<svg xmlns="http://www.w3.org/2000/svg" viewBox="0 0 1200 400" width="1200" height="400">
<defs>
<linearGradient id="bg" x1="0" y1="0" x2="0" y2="1"><stop offset="0%" stop-color="#94a3b8"/><stop offset="100%" stop-color="#0369a1"/></linearGradient>
<linearGradient id="warm" x1="0" y1="0" x2="1" y2="1"><stop offset="0%" stop-color="#858d98" stop-opacity="0.18"/><stop offset="100%" stop-color="#858d98" stop-opacity="0.06"/></linearGradient>
</defs>
<rect width="1200" height="400" fill="url(#bg)"/>
<path d="M0 400 L0 242.5597334626271 C60.0 241.3, 90.0 236.0, 150.0 237.0 C210.0 244.5, 240.0 242.2, 300.0 244.5 C360.0 242.0, 390.0 236.0, 450.0 227.2 C510.0 220.0, 540.0 228.4, 600.0 236.8 C660.0 241.9, 690.0 239.7, 750.0 244.6 C810.0 244.0, 840.0 248.3, 900.0 244.1 C960.0 239.5, 990.0 248.0, 1050.0 249.7 C1110.0 241.0, 1140.0 248.5, 1200.0 247.0 L1200 400 Z" fill="#367da9" opacity="0.45"/>
<path d="M0 400 L0 275.1361811402285 C52.5 275.0, 97.5 265.9, 150.0 263.0 C202.5 266.1, 247.5 273.2, 300.0 270.3 C352.5 276.9, 397.5 273.9, 450.0 272.0 C502.5 277.5, 547.5 262.6, 600.0 258.1 C652.5 260.4, 697.5 280.4, 750.0 277.9 C802.5 283.8, 847.5 287.4, 900.0 281.1 C952.5 280.4, 997.5 259.6, 1050.0 261.7 C1102.5 255.1, 1147.5 276.6, 1200.0 276.7 L1200 400 Z" fill="#0369a1" opacity="0.3"/>
<rect x="458.2" y="344.9" width="13.9" height="55.1" rx="5.9" fill="#04887b" opacity="0.85"/>
<rect x="758.2" y="344.1" width="38.0" height="55.9" rx="6.1" fill="#04867d" opacity="0.62"/>
<rect x="994.2" y="341.7" width="12.0" height="58.3" rx="5.1" fill="#04877c" opacity="0.73"/>
<rect x="238.0" y="328.1" width="49.8" height="71.9" rx="4.4" fill="#048979" opacity="0.67"/>
<rect x="897.3" y="331.1" width="49.4" height="68.9" rx="5.4" fill="#05956b" opacity="0.81"/>
<rect x="294.5" y="294.1" width="34.6" height="105.9" rx="6.2" fill="#05946c" opacity="0.72"/>
<rect x="299.5" y="304.1" width="4" height="5" rx="0.5" fill="#94a3b8" opacity="0.6"/>
<rect x="311.0" y="304.1" width="4" height="5" rx="0.5" fill="#94a3b8" opacity="0.6"/>
<rect x="299.5" y="326.1" width="4" height="5" rx="0.5" fill="#94a3b8" opacity="0.6"/>
<rect x="311.0" y="326.1" width="4" height="5" rx="0.5" fill="#94a3b8" opacity="0.6"/>
<rect x="299.5" y="348.1" width="4" height="5" rx="0.5" fill="#94a3b8" opacity="0.6"/>
<rect x="311.0" y="348.1" width="4" height="5" rx="0.5" fill="#94a3b8" opacity="0.6"/>
<rect x="299.5" y="370.1" width="4" height="5" rx="0.5" fill="#94a3b8" opacity="0.6"/>
<rect x="518.5" y="343.7" width="36.6" height="56.3" rx="4.5" fill="#058d74" opacity="0.76"/>
<rect x="415.2" y="299.5" width="39.7" height="100.5" rx="4.2" fill="#058b76" opacity="0.78"/>
<rect x="801.5" y="279.4" width="31.6" height="120.6" rx="5.5" fill="#047b8a" opacity="0.62"/>
<rect x="494.2" y="326.0" width="24.8" height="74.0" rx="3.4" fill="#048480" opacity="0.69"/>
<rect x="264.5" y="364.4" width="43.4" height="35.6" rx="5.9" fill="#05956a" opacity="0.54"/>
<rect x="502.4" y="331.9" width="48.3" height="68.1" rx="3.8" fill="#047f86" opacity="0.70"/>
<rect x="636.6" y="314.5" width="35.2" height="85.5" rx="6.2" fill="#047f85" opacity="0.63"/>
<rect x="641.6" y="324.5" width="4" height="5" rx="0.5" fill="#94a3b8" opacity="0.6"/>
<rect x="653.3" y="324.5" width="4" height="5" rx="0.5" fill="#94a3b8" opacity="0.6"/>
<rect x="641.6" y="346.5" width="4" height="5" rx="0.5" fill="#94a3b8" opacity="0.6"/>
<rect x="653.3" y="368.5" width="4" height="5" rx="0.5" fill="#94a3b8" opacity="0.6"/>
<circle cx="168.6" cy="198.9" r="4.0" fill="#059669" opacity="0.40"/>
<circle cx="165.5" cy="34.4" r="8.9" fill="#94a3b8" opacity="0.31"/>
<circle cx="749.7" cy="28.0" r="10.6" fill="#059669" opacity="0.27"/>
<circle cx="616.0" cy="96.3" r="3.7" fill="#059669" opacity="0.22"/>
<circle cx="29.0" cy="26.9" r="9.6" fill="#94a3b8" opacity="0.38"/>
<circle cx="993.9" cy="141.6" r="8.4" fill="#059669" opacity="0.22"/>
<circle cx="1025.3" cy="161.1" r="8.3" fill="#94a3b8" opacity="0.26"/>
<circle cx="1155.1" cy="38.2" r="8.5" fill="#059669" opacity="0.40"/>
<circle cx="857.2" cy="207.2" r="6.0" fill="#94a3b8" opacity="0.22"/>
<circle cx="504.7" cy="164.8" r="7.0" fill="#94a3b8" opacity="0.23"/>
<circle cx="874.5" cy="18.0" r="10.8" fill="#059669" opacity="0.28"/>
<circle cx="731.7" cy="69.5" r="11.1" fill="#94a3b8" opacity="0.30"/>
<rect width="1200" height="400" fill="url(#warm)"/>
<rect width="1200" height="400" fill="#94a3b8" opacity="0.40"/>
</svg>