<svg xmlns="http://www.w3.org/2000/svg" viewBox="0 0 1200 300" width="1200" height="300">
<defs>
<linearGradient id="skyGrad" x1="0" y1="0" x2="0" y2="1">
<stop offset="0%" stop-color="#818cf8"/>
<stop offset="20%" stop-color="#c4b5fd"/>
<stop offset="38%" stop-color="#fda4af"/>
<stop offset="55%" stop-color="#fdba74"/>
<stop offset="75%" stop-color="#fef08a"/>
<stop offset="100%" stop-color="#fef9c3"/>
</linearGradient>
<linearGradient id="bldg_coral" x1="0" y1="0" x2="0" y2="1"><stop offset="0%" stop-color="#fecaca"/><stop offset="100%" stop-color="#fca5a5"/></linearGradient>
<linearGradient id="bldg_teal" x1="0" y1="0" x2="0" y2="1"><stop offset="0%" stop-color="#99f6e4"/><stop offset="100%" stop-color="#5eead4"/></linearGradient>
<linearGradient id="bldg_amber" x1="0" y1="0" x2="0" y2="1"><stop offset="0%" stop-color="#fde68a"/><stop offset="100%" stop-color="#fcd34d"/></linearGradient>
<linearGradient id="bldg_lavender" x1="0" y1="0" x2="0" y2="1"><stop offset="0%" stop-color="#ddd6fe"/><stop offset="100%" stop-color="#c4b5fd"/></linearGradient>
<linearGradient id="bldg_blue" x1="0" y1="0" x2="0" y2="1"><stop offset="0%" stop-color="#bfdbfe"/><stop offset="100%" stop-color="#93c5fd"/></linearGradient>
<linearGradient id="bldg_mint" x1="0" y1="0" x2="0" y2="1"><stop offset="0%" stop-color="#a7f3d0"/><stop offset="100%" stop-color="#6ee7b7"/></linearGradient>
<linearGradient id="bldg_rose" x1="0" y1="0" x2="0" y2="1"><stop offset="0%" stop-color="#fecdd3"/><stop offset="100%" stop-color="#fda4af"/></linearGradient>
<linearGradient id="bldg_sky" x1="0" y1="0" x2="0" y2="1"><stop offset="0%" stop-color="#bae6fd"/><stop offset="100%" stop-color="#7dd3fc"/></linearGradient>
<linearGradient id="roof_navyRoof" x1="0" y1="0" x2="0" y2="1"><stop offset="0%" stop-color="#4338ca"/><stop offset="100%" stop-color="#3730a3"/></linearGradient>
<linearGradient id="roof_coralRoof" x1="0" y1="0" x2="0" y2="1"><stop offset="0%" stop-color="#f87171"/><stop offset="100%" stop-color="#ef4444"/></linearGradient>
<linearGradient id="roof_tealRoof" x1="0" y1="0" x2="0" y2="1"><stop offset="0%" stop-color="#2dd4bf"/><stop offset="100%" stop-color="#14b8a6"/></linearGradient>
<radialGradient id="windowGlow" cx="50%" cy="50%" r="50%"><stop offset="0%" stop-color="#fef08a"/><stop offset="60%" stop-color="#fbbf24"/><stop offset="100%" stop-color="#f59e0b"/></radialGradient>
<linearGradient id="hillFar" x1="0" y1="0" x2="0" y2="1"><stop offset="0%" stop-color="#c4b5fd"/><stop offset="100%" stop-color="#a5b4fc"/></linearGradient>
<linearGradient id="hillMid" x1="0" y1="0" x2="0" y2="1"><stop offset="0%" stop-color="#86efac"/><stop offset="100%" stop-color="#4ade80"/></linearGradient>
<linearGradient id="hillNear" x1="0" y1="0" x2="0" y2="1"><stop offset="0%" stop-color="#34d399"/><stop offset="100%" stop-color="#10b981"/></linearGradient>
<linearGradient id="hillDesertFar" x1="0" y1="0" x2="0" y2="1"><stop offset="0%" stop-color="#fde68a"/><stop offset="100%" stop-color="#fcd34d"/></linearGradient>
<linearGradient id="hillDesertMid" x1="0" y1="0" x2="0" y2="1"><stop offset="0%" stop-color="#fcd34d"/><stop offset="100%" stop-color="#fbbf24"/></linearGradient>
<linearGradient id="hillDesertNear" x1="0" y1="0" x2="0" y2="1"><stop offset="0%" stop-color="#fbbf24"/><stop offset="100%" stop-color="#f59e0b"/></linearGradient>
<linearGradient id="groundGrad" x1="0" y1="0" x2="0" y2="1"><stop offset="0%" stop-color="#fef3c7"/><stop offset="100%" stop-color="#fde68a"/></linearGradient>
<linearGradient id="waterGrad" x1="0" y1="0" x2="0" y2="1"><stop offset="0%" stop-color="#bfdbfe"/><stop offset="100%" stop-color="#93c5fd"/></linearGradient>
<filter id="softGlow" x="-50%" y="-50%" width="200%" height="200%"><feGaussianBlur in="SourceGraphic" stdDeviation="12"/></filter>
</defs>
<rect width="1200" height="300" fill="url(#skyGrad)"/>
<circle cx="1007.0" cy="46.2" r="45" fill="#fef08a" opacity="0.12" filter="url(#softGlow)"/>
<circle cx="1007.0" cy="46.2" r="30" fill="#fde68a" opacity="0.18" filter="url(#softGlow)"/>
<circle cx="1007.0" cy="46.2" r="16" fill="#fef9c3" opacity="0.25" filter="url(#softGlow)"/>
<ellipse cx="274.1" cy="33.2" rx="42.9" ry="15.0" fill="white" opacity="0.6"/>
<ellipse cx="247.3" cy="37.5" rx="30.0" ry="11.8" fill="white" opacity="0.5"/>
<ellipse cx="297.7" cy="36.4" rx="34.3" ry="12.9" fill="white" opacity="0.5"/>
<ellipse cx="859.3" cy="43.1" rx="38.9" ry="13.6" fill="white" opacity="0.5"/>
<ellipse cx="835.0" cy="47.0" rx="27.2" ry="10.7" fill="white" opacity="0.5"/>
<ellipse cx="880.7" cy="46.0" rx="31.1" ry="11.7" fill="white" opacity="0.5"/>
<ellipse cx="960.0" cy="31.8" rx="50.5" ry="17.7" fill="white" opacity="0.5"/>
<ellipse cx="928.4" cy="36.9" rx="35.4" ry="13.9" fill="white" opacity="0.5"/>
<ellipse cx="987.7" cy="35.6" rx="40.4" ry="15.2" fill="white" opacity="0.4"/>
<path d="M0 300 L0.0 195.1 C169.2 195.1, 169.2 190.3, 338.3 190.3 C466.7 190.3, 466.7 183.1, 595.0 183.1 C730.2 183.1, 730.2 187.7, 865.4 187.7 C1032.7 187.7, 1032.7 199.8, 1200.0 199.8 L1200 300 Z" fill="url(#hillFar)" opacity="0.5"/>
<path d="M0 300 L0.0 206.1 C129.7 206.1, 129.7 208.8, 259.5 208.8 C436.4 208.8, 436.4 214.9, 613.4 214.9 C781.1 214.9, 781.1 203.4, 948.8 203.4 C1074.4 203.4, 1074.4 218.2, 1200.0 218.2 L1200 300 Z" fill="url(#hillMid)" opacity="0.7"/>
<path d="M0 300 L0.0 232.6 C131.8 232.6, 131.8 232.1, 263.6 232.1 C383.2 232.1, 383.2 230.3, 502.9 230.3 C619.4 230.3, 619.4 230.9, 735.9 230.9 C865.8 230.9, 865.8 232.7, 995.6 232.7 C1097.8 232.7, 1097.8 233.4, 1200.0 233.4 L1200 300 Z" fill="url(#hillNear)" opacity="1"/>
<rect x="133.6" y="226.8" width="86.2" height="73.2" rx="3" fill="url(#bldg_mint)" opacity="0.7"/>
<rect x="150.9" y="218.0" width="51.7" height="8.8" rx="2" fill="url(#roof_navyRoof)" opacity="0.7"/>
<rect x="166.7" y="236.8" width="6" height="8" rx="1" fill="url(#windowGlow)" opacity="0.9539796611545512"/>
<rect x="180.7" y="236.8" width="6" height="8" rx="1" fill="url(#windowGlow)" opacity="0.8930448212628461"/>
<rect x="194.7" y="236.8" width="6" height="8" rx="1" fill="url(#windowGlow)" opacity="0.903265063838691"/>
<rect x="152.7" y="251.8" width="6" height="8" rx="1" fill="url(#windowGlow)" opacity="0.9867113582262356"/>
<rect x="166.7" y="251.8" width="6" height="8" rx="1" fill="url(#windowGlow)" opacity="0.7594724939481692"/>
<rect x="180.7" y="251.8" width="6" height="8" rx="1" fill="url(#windowGlow)" opacity="0.7793539796394081"/>
<rect x="194.7" y="251.8" width="6" height="8" rx="1" fill="url(#windowGlow)" opacity="0.7914449825377412"/>
<rect x="435.6" y="243.3" width="47.7" height="56.7" rx="3" fill="url(#bldg_rose)" opacity="0.7"/>
<polygon points="435.6,243.3 459.4,228.5 483.2,243.3" fill="url(#roof_coralRoof)" opacity="0.7"/>
<rect x="449.4" y="253.3" width="6" height="8" rx="1" fill="url(#windowGlow)" opacity="0.904774065131682"/>
<rect x="463.4" y="253.3" width="6" height="8" rx="1" fill="url(#windowGlow)" opacity="0.7749927312484908"/>
<rect x="701.5" y="215.0" width="56.4" height="85.0" rx="3" fill="url(#bldg_sky)" opacity="0.7"/>
<polygon points="701.5,215.0 729.7,196.8 757.8,215.0" fill="url(#roof_tealRoof)" opacity="0.7"/>
<rect x="719.7" y="225.0" width="6" height="8" rx="1" fill="url(#windowGlow)" opacity="0.8543895228553514"/>
<rect x="733.7" y="225.0" width="6" height="8" rx="1" fill="url(#windowGlow)" opacity="0.9129827478961007"/>
<rect x="719.7" y="240.0" width="6" height="8" rx="1" fill="url(#windowGlow)" opacity="0.9964768079558745"/>
<rect x="733.7" y="240.0" width="6" height="8" rx="1" fill="url(#windowGlow)" opacity="0.728068704078006"/>
<rect x="719.7" y="255.0" width="6" height="8" rx="1" fill="url(#windowGlow)" opacity="0.8294493476531698"/>
<rect x="733.7" y="255.0" width="6" height="8" rx="1" fill="url(#windowGlow)" opacity="0.7213448648440395"/>
<rect x="1019.7" y="209.0" width="69.0" height="91.0" rx="3" fill="url(#bldg_coral)" opacity="0.7"/>
<rect x="1019.7" y="206.0" width="69.0" height="3" rx="1" fill="url(#roof_navyRoof)" opacity="0.7"/>
<rect x="1037.2" y="219.0" width="6" height="8" rx="1" fill="url(#windowGlow)" opacity="0.9476556248719131"/>
<rect x="1037.2" y="234.0" width="6" height="8" rx="1" fill="url(#windowGlow)" opacity="0.7071273740879853"/>
<rect x="1065.2" y="234.0" width="6" height="8" rx="1" fill="url(#windowGlow)" opacity="0.8126703281480214"/>
<rect x="1037.2" y="249.0" width="6" height="8" rx="1" fill="url(#windowGlow)" opacity="0.7455788373228064"/>
<rect x="1051.2" y="249.0" width="6" height="8" rx="1" fill="url(#windowGlow)" opacity="0.868960479166806"/>
<rect x="1065.2" y="249.0" width="6" height="8" rx="1" fill="url(#windowGlow)" opacity="0.8621606884348023"/>
<rect x="166.3" y="186.6" width="50.4" height="113.4" rx="3" fill="url(#bldg_teal)" opacity="0.85"/>
<rect x="176.4" y="173.0" width="30.2" height="13.6" rx="2" fill="url(#roof_coralRoof)" opacity="0.85"/>
<rect x="181.5" y="196.6" width="6" height="8" rx="1" fill="url(#windowGlow)" opacity="0.9543914764907171"/>
<rect x="195.5" y="196.6" width="6" height="8" rx="1" fill="url(#windowGlow)" opacity="0.971994726253671"/>
<rect x="181.5" y="211.6" width="6" height="8" rx="1" fill="url(#windowGlow)" opacity="0.9859966119686125"/>
<rect x="195.5" y="211.6" width="6" height="8" rx="1" fill="url(#windowGlow)" opacity="0.7708700794590962"/>
<rect x="181.5" y="226.6" width="6" height="8" rx="1" fill="url(#windowGlow)" opacity="0.9024905006878499"/>
<rect x="181.5" y="241.6" width="6" height="8" rx="1" fill="url(#windowGlow)" opacity="0.7332037711670639"/>
<rect x="195.5" y="241.6" width="6" height="8" rx="1" fill="url(#windowGlow)" opacity="0.7995573510879451"/>
<path d="M171.4 226.3 L191.5 226.3 L188.5 232.3 L174.4 232.3 Z" fill="url(#roof_navyRoof)" opacity="0.68"/>
<rect x="416.1" y="237.0" width="64.3" height="63.0" rx="3" fill="url(#bldg_amber)" opacity="0.85"/>
<rect x="416.1" y="234.0" width="64.3" height="3" rx="1" fill="url(#roof_tealRoof)" opacity="0.85"/>
<rect x="431.2" y="247.0" width="6" height="8" rx="1" fill="url(#windowGlow)" opacity="0.7350457411888268"/>
<rect x="445.2" y="247.0" width="6" height="8" rx="1" fill="url(#windowGlow)" opacity="0.8172202091744263"/>
<rect x="743.1" y="203.4" width="51.3" height="96.6" rx="3" fill="url(#bldg_lavender)" opacity="0.85"/>
<polygon points="743.1,203.4 768.7,192.6 794.4,203.4" fill="url(#roof_navyRoof)" opacity="0.85"/>
<rect x="758.7" y="213.4" width="6" height="8" rx="1" fill="url(#windowGlow)" opacity="0.7148502819774906"/>
<rect x="772.7" y="228.4" width="6" height="8" rx="1" fill="url(#windowGlow)" opacity="0.9324029460234581"/>
<rect x="758.7" y="243.4" width="6" height="8" rx="1" fill="url(#windowGlow)" opacity="0.9484700052759004"/>
<rect x="772.7" y="243.4" width="6" height="8" rx="1" fill="url(#windowGlow)" opacity="0.8787468080775565"/>
<rect x="758.7" y="258.4" width="6" height="8" rx="1" fill="url(#windowGlow)" opacity="0.8271794144190752"/>
<rect x="772.7" y="258.4" width="6" height="8" rx="1" fill="url(#windowGlow)" opacity="0.9013807143556795"/>
<rect x="999.5" y="156.4" width="62.1" height="143.6" rx="3" fill="url(#bldg_blue)" opacity="0.85"/>
<polygon points="999.5,156.4 1030.5,134.9 1061.6,156.4" fill="url(#roof_coralRoof)" opacity="0.85"/>
<rect x="1013.5" y="166.4" width="6" height="8" rx="1" fill="url(#windowGlow)" opacity="0.7477723931184841"/>
<rect x="1027.5" y="166.4" width="6" height="8" rx="1" fill="url(#windowGlow)" opacity="0.9527857654973797"/>
<rect x="1041.5" y="166.4" width="6" height="8" rx="1" fill="url(#windowGlow)" opacity="0.914296341321569"/>
<rect x="1013.5" y="181.4" width="6" height="8" rx="1" fill="url(#windowGlow)" opacity="0.7994881576390416"/>
<rect x="1027.5" y="181.4" width="6" height="8" rx="1" fill="url(#windowGlow)" opacity="0.9715271832754495"/>
<rect x="1041.5" y="181.4" width="6" height="8" rx="1" fill="url(#windowGlow)" opacity="0.9059809197699562"/>
<rect x="1013.5" y="196.4" width="6" height="8" rx="1" fill="url(#windowGlow)" opacity="0.7801841705479585"/>
<rect x="1027.5" y="196.4" width="6" height="8" rx="1" fill="url(#windowGlow)" opacity="0.9186320307751334"/>
<rect x="1013.5" y="211.4" width="6" height="8" rx="1" fill="url(#windowGlow)" opacity="0.8324074633570422"/>
<rect x="1027.5" y="211.4" width="6" height="8" rx="1" fill="url(#windowGlow)" opacity="0.8829217016151741"/>
<rect x="1041.5" y="211.4" width="6" height="8" rx="1" fill="url(#windowGlow)" opacity="0.9702781929496108"/>
<rect x="1013.5" y="226.4" width="6" height="8" rx="1" fill="url(#windowGlow)" opacity="0.9134226252853044"/>
<rect x="1041.5" y="226.4" width="6" height="8" rx="1" fill="url(#windowGlow)" opacity="0.766066108302244"/>
<rect x="1013.5" y="241.4" width="6" height="8" rx="1" fill="url(#windowGlow)" opacity="0.8769585154843322"/>
<rect x="1013.5" y="256.4" width="6" height="8" rx="1" fill="url(#windowGlow)" opacity="0.8470202645040211"/>
<rect x="1041.5" y="256.4" width="6" height="8" rx="1" fill="url(#windowGlow)" opacity="0.7754576763955213"/>
<rect x="127.9" y="209.6" width="51.5" height="90.4" rx="3" fill="url(#bldg_mint)" opacity="1"/>
<rect x="138.2" y="198.7" width="30.9" height="10.8" rx="2" fill="url(#roof_tealRoof)" opacity="1"/>
<rect x="157.6" y="219.6" width="6" height="8" rx="1" fill="url(#windowGlow)" opacity="0.7606717811248599"/>
<rect x="143.6" y="234.6" width="6" height="8" rx="1" fill="url(#windowGlow)" opacity="0.8307700846953178"/>
<rect x="157.6" y="234.6" width="6" height="8" rx="1" fill="url(#windowGlow)" opacity="0.9609974459097708"/>
<rect x="148.6" y="284.0" width="10" height="16" rx="2" fill="url(#roof_navyRoof)" opacity="0.8"/>
<rect x="150.6" y="287.0" width="6" height="10" rx="1" fill="url(#windowGlow)" opacity="0.45"/>
<path d="M153.6 241.2 L174.2 241.2 L171.2 247.2 L156.6 247.2 Z" fill="url(#roof_coralRoof)" opacity="0.8"/>
<rect x="433.2" y="122.0" width="53.6" height="178.0" rx="3" fill="url(#bldg_rose)" opacity="1"/>
<rect x="443.9" y="100.6" width="32.2" height="21.4" rx="2" fill="url(#roof_navyRoof)" opacity="1"/>
<rect x="450.0" y="132.0" width="6" height="8" rx="1" fill="url(#windowGlow)" opacity="0.9004954259844941"/>
<rect x="464.0" y="132.0" width="6" height="8" rx="1" fill="url(#windowGlow)" opacity="0.7853974743212561"/>
<rect x="450.0" y="147.0" width="6" height="8" rx="1" fill="url(#windowGlow)" opacity="0.7307252326191985"/>
<rect x="464.0" y="147.0" width="6" height="8" rx="1" fill="url(#windowGlow)" opacity="0.769083937662227"/>
<rect x="450.0" y="162.0" width="6" height="8" rx="1" fill="url(#windowGlow)" opacity="0.7699199802567809"/>
<rect x="464.0" y="162.0" width="6" height="8" rx="1" fill="url(#windowGlow)" opacity="0.8366961220915876"/>
<rect x="450.0" y="177.0" width="6" height="8" rx="1" fill="url(#windowGlow)" opacity="0.9002062385902768"/>
<rect x="450.0" y="192.0" width="6" height="8" rx="1" fill="url(#windowGlow)" opacity="0.9889762528189348"/>
<rect x="450.0" y="207.0" width="6" height="8" rx="1" fill="url(#windowGlow)" opacity="0.887534896185405"/>
<rect x="464.0" y="207.0" width="6" height="8" rx="1" fill="url(#windowGlow)" opacity="0.7172737688837916"/>
<rect x="450.0" y="222.0" width="6" height="8" rx="1" fill="url(#windowGlow)" opacity="0.7123034436312985"/>
<rect x="450.0" y="237.0" width="6" height="8" rx="1" fill="url(#windowGlow)" opacity="0.8396445455214215"/>
<rect x="464.0" y="237.0" width="6" height="8" rx="1" fill="url(#windowGlow)" opacity="0.7454468616030396"/>
<rect x="455.0" y="284.0" width="10" height="16" rx="2" fill="url(#roof_navyRoof)" opacity="0.8"/>
<rect x="457.0" y="287.0" width="6" height="10" rx="1" fill="url(#windowGlow)" opacity="0.45"/>
<rect x="736.5" y="185.9" width="50.3" height="114.1" rx="3" fill="url(#bldg_sky)" opacity="1"/>
<rect x="736.5" y="182.9" width="50.3" height="3" rx="1" fill="url(#roof_coralRoof)" opacity="1"/>
<rect x="751.7" y="195.9" width="6" height="8" rx="1" fill="url(#windowGlow)" opacity="0.959488775981352"/>
<rect x="765.7" y="195.9" width="6" height="8" rx="1" fill="url(#windowGlow)" opacity="0.7299333481257471"/>
<rect x="765.7" y="210.9" width="6" height="8" rx="1" fill="url(#windowGlow)" opacity="0.7531207401087138"/>
<rect x="751.7" y="225.9" width="6" height="8" rx="1" fill="url(#windowGlow)" opacity="0.9110369663271294"/>
<rect x="765.7" y="225.9" width="6" height="8" rx="1" fill="url(#windowGlow)" opacity="0.9450111771677672"/>
<rect x="751.7" y="240.9" width="6" height="8" rx="1" fill="url(#windowGlow)" opacity="0.7336431056883387"/>
<rect x="765.7" y="240.9" width="6" height="8" rx="1" fill="url(#windowGlow)" opacity="0.719326955042466"/>
<rect x="751.7" y="255.9" width="6" height="8" rx="1" fill="url(#windowGlow)" opacity="0.7380758455666134"/>
<rect x="756.7" y="284.0" width="10" height="16" rx="2" fill="url(#roof_navyRoof)" opacity="0.8"/>
<rect x="758.7" y="287.0" width="6" height="10" rx="1" fill="url(#windowGlow)" opacity="0.45"/>
<path d="M741.6 225.8 L761.7 225.8 L758.7 231.8 L744.6 231.8 Z" fill="url(#roof_navyRoof)" opacity="0.8"/>
<rect x="1028.7" y="171.1" width="36.9" height="128.9" rx="3" fill="url(#bldg_coral)" opacity="1"/>
<polygon points="1028.7,171.1 1047.2,158.3 1065.6,171.1" fill="url(#roof_tealRoof)" opacity="1"/>
<rect x="1044.2" y="181.1" width="6" height="8" rx="1" fill="url(#windowGlow)" opacity="0.957189917916986"/>
<rect x="1044.2" y="196.1" width="6" height="8" rx="1" fill="url(#windowGlow)" opacity="0.9723784553689782"/>
<rect x="1044.2" y="211.1" width="6" height="8" rx="1" fill="url(#windowGlow)" opacity="0.8241771393568148"/>
<rect x="1044.2" y="226.1" width="6" height="8" rx="1" fill="url(#windowGlow)" opacity="0.7915917299648708"/>
<rect x="1044.2" y="241.1" width="6" height="8" rx="1" fill="url(#windowGlow)" opacity="0.9733791068072333"/>
<rect x="1044.2" y="256.1" width="6" height="8" rx="1" fill="url(#windowGlow)" opacity="0.7096045044761171"/>
<rect x="1042.2" y="284.0" width="10" height="16" rx="2" fill="url(#roof_navyRoof)" opacity="0.8"/>
<rect x="1044.2" y="287.0" width="6" height="10" rx="1" fill="url(#windowGlow)" opacity="0.45"/>
<rect x="303.3" y="263.2" width="6" height="21.8" rx="2" fill="#15803d"/>
<circle cx="306.3" cy="249.5" r="17.7" fill="#22c55e" opacity="0.9"/>
<circle cx="297.9" cy="252.5" r="13.3" fill="#16a34a" opacity="0.8"/>
<circle cx="311.4" cy="253.5" r="12.4" fill="#15803d" opacity="0.7"/>
<rect x="608.7" y="267.0" width="6" height="18.0" rx="2" fill="#15803d"/>
<circle cx="611.7" cy="254.7" r="16.3" fill="#22c55e" opacity="0.9"/>
<circle cx="603.4" cy="257.7" r="12.2" fill="#16a34a" opacity="0.8"/>
<circle cx="619.0" cy="258.7" r="11.4" fill="#15803d" opacity="0.7"/>
<rect x="904.8" y="264.5" width="6" height="20.5" rx="2" fill="#15803d"/>
<circle cx="907.8" cy="252.1" r="16.4" fill="#22c55e" opacity="0.9"/>
<circle cx="901.4" cy="255.1" r="12.3" fill="#16a34a" opacity="0.8"/>
<circle cx="914.1" cy="256.1" r="11.5" fill="#15803d" opacity="0.7"/>
<rect x="103.1" y="263.6" width="6" height="21.4" rx="2" fill="#15803d"/>
<circle cx="106.1" cy="253.8" r="13.8" fill="#22c55e" opacity="0.9"/>
<circle cx="97.8" cy="256.8" r="10.4" fill="#16a34a" opacity="0.8"/>
<circle cx="113.2" cy="257.8" r="9.7" fill="#15803d" opacity="0.7"/>
<rect x="1088.2" y="264.7" width="6" height="20.3" rx="2" fill="#15803d"/>
<circle cx="1091.2" cy="253.6" r="15.0" fill="#22c55e" opacity="0.9"/>
<circle cx="1084.5" cy="256.6" r="11.3" fill="#16a34a" opacity="0.8"/>
<circle cx="1097.4" cy="257.6" r="10.5" fill="#15803d" opacity="0.7"/>
<rect x="136.5" y="264.5" width="6" height="20.5" rx="2" fill="#15803d"/>
<circle cx="139.5" cy="252.4" r="16.1" fill="#22c55e" opacity="0.9"/>
<circle cx="132.7" cy="255.4" r="12.1" fill="#16a34a" opacity="0.8"/>
<circle cx="145.1" cy="256.4" r="11.3" fill="#15803d" opacity="0.7"/>
<rect x="322.8" y="263.7" width="6" height="21.3" rx="2" fill="#15803d"/>
<circle cx="325.8" cy="253.5" r="14.2" fill="#22c55e" opacity="0.9"/>
<circle cx="319.0" cy="256.5" r="10.7" fill="#16a34a" opacity="0.8"/>
<circle cx="332.8" cy="257.5" r="9.9" fill="#15803d" opacity="0.7"/>
<rect x="1071.9" y="267.1" width="6" height="17.9" rx="2" fill="#15803d"/>
<circle cx="1074.9" cy="257.4" r="13.8" fill="#22c55e" opacity="0.9"/>
<circle cx="1066.0" cy="260.4" r="10.3" fill="#16a34a" opacity="0.8"/>
<circle cx="1081.8" cy="261.4" r="9.6" fill="#15803d" opacity="0.7"/>
<rect x="997.6" y="264.2" width="6" height="20.8" rx="2" fill="#15803d"/>
<circle cx="1000.6" cy="250.7" r="17.5" fill="#22c55e" opacity="0.9"/>
<circle cx="994.4" cy="253.7" r="13.2" fill="#16a34a" opacity="0.8"/>
<circle cx="1007.2" cy="254.7" r="12.3" fill="#15803d" opacity="0.7"/>
<rect x="893.1" y="263.6" width="6" height="21.4" rx="2" fill="#15803d"/>
<circle cx="896.1" cy="252.2" r="15.4" fill="#22c55e" opacity="0.9"/>
<circle cx="889.0" cy="255.2" r="11.5" fill="#16a34a" opacity="0.8"/>
<circle cx="904.0" cy="256.2" r="10.8" fill="#15803d" opacity="0.7"/>
<rect x="0" y="282" width="1200" height="18" fill="url(#groundGrad)"/>
<line x1="627.8" y1="282.0" x2="627.8" y2="246.9" stroke="#92400e" stroke-width="2"/>
<circle cx="627.8" cy="246.9" r="4" fill="#fef08a" opacity="0.6"/>
<circle cx="627.8" cy="246.9" r="8" fill="#fef08a" opacity="0.15" filter="url(#softGlow)"/>
<ellipse cx="913.4" cy="282.0" rx="6.4" ry="4.5" fill="#22c55e" opacity="0.6"/>
<ellipse cx="844.3" cy="282.0" rx="4.5" ry="3.1" fill="#22c55e" opacity="0.6"/>
</svg>