<svg xmlns="http://www.w3.org/2000/svg" viewBox="0 0 1200 300" width="1200" height="300">
<rect width="1200" height="300" fill="#e0eff2"/>
<path d="M0 300 L0 210.0 C289.7 174.9, 966.8 180.1, 1200 210.0 L1200 300 Z" fill="#aac2c9" opacity="0.3"/>
<rect x="112.3" y="185.6" width="48.7" height="114.4" fill="#8aabb4"/>
<rect x="360.4" y="183.7" width="53.3" height="116.3" fill="#8aabb4"/>
<rect x="548.4" y="182.2" width="56.7" height="117.8" fill="#8aabb4"/>
<rect x="814.4" y="180.3" width="81.6" height="119.7" fill="#8aabb4"/>
<rect x="1039.2" y="240.1" width="69.7" height="59.9" fill="#8aabb4"/>
<rect x="107.4" y="151.3" width="59.0" height="148.7" fill="#558592"/>
<rect x="119.9" y="163.3" width="6" height="8" fill="#91b0b8" opacity="0.5"/>
<rect x="133.9" y="163.3" width="6" height="8" fill="#91b0b8" opacity="0.5"/>
<rect x="147.9" y="163.3" width="6" height="8" fill="#91b0b8" opacity="0.5"/>
<rect x="147.9" y="179.3" width="6" height="8" fill="#91b0b8" opacity="0.5"/>
<rect x="119.9" y="195.3" width="6" height="8" fill="#91b0b8" opacity="0.5"/>
<rect x="147.9" y="195.3" width="6" height="8" fill="#91b0b8" opacity="0.5"/>
<rect x="119.9" y="211.3" width="6" height="8" fill="#91b0b8" opacity="0.5"/>
<rect x="147.9" y="211.3" width="6" height="8" fill="#91b0b8" opacity="0.5"/>
<rect x="133.9" y="227.3" width="6" height="8" fill="#91b0b8" opacity="0.5"/>
<rect x="119.9" y="243.3" width="6" height="8" fill="#91b0b8" opacity="0.5"/>
<rect x="133.9" y="243.3" width="6" height="8" fill="#91b0b8" opacity="0.5"/>
<rect x="119.9" y="259.3" width="6" height="8" fill="#91b0b8" opacity="0.5"/>
<rect x="147.9" y="259.3" width="6" height="8" fill="#91b0b8" opacity="0.5"/>
<rect x="348.7" y="184.4" width="53.3" height="115.6" fill="#558592"/>
<rect x="365.4" y="196.4" width="6" height="8" fill="#91b0b8" opacity="0.5"/>
<rect x="379.4" y="196.4" width="6" height="8" fill="#91b0b8" opacity="0.5"/>
<rect x="365.4" y="212.4" width="6" height="8" fill="#91b0b8" opacity="0.5"/>
<rect x="379.4" y="212.4" width="6" height="8" fill="#91b0b8" opacity="0.5"/>
<rect x="365.4" y="228.4" width="6" height="8" fill="#91b0b8" opacity="0.5"/>
<rect x="379.4" y="228.4" width="6" height="8" fill="#91b0b8" opacity="0.5"/>
<rect x="379.4" y="244.4" width="6" height="8" fill="#91b0b8" opacity="0.5"/>
<rect x="365.4" y="260.4" width="6" height="8" fill="#91b0b8" opacity="0.5"/>
<rect x="379.4" y="260.4" width="6" height="8" fill="#91b0b8" opacity="0.5"/>
<rect x="554.3" y="182.0" width="43.6" height="118.0" fill="#558592"/>
<rect x="573.1" y="194.0" width="6" height="8" fill="#91b0b8" opacity="0.5"/>
<rect x="573.1" y="226.0" width="6" height="8" fill="#91b0b8" opacity="0.5"/>
<rect x="573.1" y="242.0" width="6" height="8" fill="#91b0b8" opacity="0.5"/>
<rect x="573.1" y="274.0" width="6" height="8" fill="#91b0b8" opacity="0.5"/>
<rect x="773.3" y="190.1" width="68.9" height="109.9" fill="#558592"/>
<rect x="790.7" y="202.1" width="6" height="8" fill="#91b0b8" opacity="0.5"/>
<rect x="804.7" y="202.1" width="6" height="8" fill="#91b0b8" opacity="0.5"/>
<rect x="818.7" y="202.1" width="6" height="8" fill="#91b0b8" opacity="0.5"/>
<rect x="790.7" y="218.1" width="6" height="8" fill="#91b0b8" opacity="0.5"/>
<rect x="804.7" y="218.1" width="6" height="8" fill="#91b0b8" opacity="0.5"/>
<rect x="818.7" y="218.1" width="6" height="8" fill="#91b0b8" opacity="0.5"/>
<rect x="790.7" y="234.1" width="6" height="8" fill="#91b0b8" opacity="0.5"/>
<rect x="804.7" y="234.1" width="6" height="8" fill="#91b0b8" opacity="0.5"/>
<rect x="818.7" y="234.1" width="6" height="8" fill="#91b0b8" opacity="0.5"/>
<rect x="790.7" y="250.1" width="6" height="8" fill="#91b0b8" opacity="0.5"/>
<rect x="804.7" y="250.1" width="6" height="8" fill="#91b0b8" opacity="0.5"/>
<rect x="818.7" y="250.1" width="6" height="8" fill="#91b0b8" opacity="0.5"/>
<rect x="804.7" y="266.1" width="6" height="8" fill="#91b0b8" opacity="0.5"/>
<rect x="818.7" y="266.1" width="6" height="8" fill="#91b0b8" opacity="0.5"/>
<rect x="1031.5" y="138.3" width="48.7" height="161.7" fill="#558592"/>
<rect x="1045.9" y="150.3" width="6" height="8" fill="#91b0b8" opacity="0.5"/>
<rect x="1059.9" y="150.3" width="6" height="8" fill="#91b0b8" opacity="0.5"/>
<rect x="1045.9" y="166.3" width="6" height="8" fill="#91b0b8" opacity="0.5"/>
<rect x="1059.9" y="166.3" width="6" height="8" fill="#91b0b8" opacity="0.5"/>
<rect x="1045.9" y="198.3" width="6" height="8" fill="#91b0b8" opacity="0.5"/>
<rect x="1059.9" y="198.3" width="6" height="8" fill="#91b0b8" opacity="0.5"/>
<rect x="1045.9" y="214.3" width="6" height="8" fill="#91b0b8" opacity="0.5"/>
<rect x="1059.9" y="214.3" width="6" height="8" fill="#91b0b8" opacity="0.5"/>
<rect x="1045.9" y="230.3" width="6" height="8" fill="#91b0b8" opacity="0.5"/>
<rect x="1045.9" y="246.3" width="6" height="8" fill="#91b0b8" opacity="0.5"/>
<rect x="1059.9" y="246.3" width="6" height="8" fill="#91b0b8" opacity="0.5"/>
<rect x="1045.9" y="262.3" width="6" height="8" fill="#91b0b8" opacity="0.5"/>
<rect x="124.1" y="220.2" width="44.1" height="79.8" fill="#2b6777"/>
<rect x="136.1" y="232.2" width="6" height="8" fill="#759ca7" opacity="0.5"/>
<rect x="150.1" y="232.2" width="6" height="8" fill="#759ca7" opacity="0.5"/>
<rect x="136.1" y="248.2" width="6" height="8" fill="#759ca7" opacity="0.5"/>
<rect x="150.1" y="248.2" width="6" height="8" fill="#759ca7" opacity="0.5"/>
<rect x="136.1" y="264.2" width="6" height="8" fill="#759ca7" opacity="0.5"/>
<rect x="150.1" y="264.2" width="6" height="8" fill="#759ca7" opacity="0.5"/>
<rect x="346.8" y="248.0" width="58.5" height="52.0" fill="#2b6777"/>
<rect x="572.6" y="228.8" width="38.2" height="71.2" fill="#2b6777"/>
<rect x="588.8" y="240.8" width="6" height="8" fill="#759ca7" opacity="0.5"/>
<rect x="588.8" y="256.8" width="6" height="8" fill="#759ca7" opacity="0.5"/>
<rect x="588.8" y="272.8" width="6" height="8" fill="#759ca7" opacity="0.5"/>
<rect x="761.0" y="191.1" width="66.9" height="108.9" fill="#2b6777"/>
<rect x="777.5" y="203.1" width="6" height="8" fill="#759ca7" opacity="0.5"/>
<rect x="805.5" y="203.1" width="6" height="8" fill="#759ca7" opacity="0.5"/>
<rect x="777.5" y="219.1" width="6" height="8" fill="#759ca7" opacity="0.5"/>
<rect x="791.5" y="219.1" width="6" height="8" fill="#759ca7" opacity="0.5"/>
<rect x="777.5" y="235.1" width="6" height="8" fill="#759ca7" opacity="0.5"/>
<rect x="805.5" y="235.1" width="6" height="8" fill="#759ca7" opacity="0.5"/>
<rect x="777.5" y="251.1" width="6" height="8" fill="#759ca7" opacity="0.5"/>
<rect x="791.5" y="251.1" width="6" height="8" fill="#759ca7" opacity="0.5"/>
<rect x="805.5" y="251.1" width="6" height="8" fill="#759ca7" opacity="0.5"/>
<rect x="777.5" y="267.1" width="6" height="8" fill="#759ca7" opacity="0.5"/>
<rect x="791.5" y="267.1" width="6" height="8" fill="#759ca7" opacity="0.5"/>
<rect x="1022.5" y="219.8" width="48.5" height="80.2" fill="#2b6777"/>
<rect x="1036.8" y="231.8" width="6" height="8" fill="#759ca7" opacity="0.5"/>
<rect x="1036.8" y="247.8" width="6" height="8" fill="#759ca7" opacity="0.5"/>
<rect x="1050.8" y="247.8" width="6" height="8" fill="#759ca7" opacity="0.5"/>
<rect x="1036.8" y="263.8" width="6" height="8" fill="#759ca7" opacity="0.5"/>
<rect x="0" y="298" width="1200" height="2" fill="#275d6b" opacity="0.15"/>
</svg>