<svg xmlns="http://www.w3.org/2000/svg" viewBox="0 0 1200 400" width="1200" height="400">
<defs>
<linearGradient id="bg" x1="0" y1="0" x2="0" y2="1"><stop offset="0%" stop-color="#94a3b8"/><stop offset="100%" stop-color="#0369a1"/></linearGradient>
<linearGradient id="warm" x1="0" y1="0" x2="1" y2="1"><stop offset="0%" stop-color="#858d98" stop-opacity="0.18"/><stop offset="100%" stop-color="#858d98" stop-opacity="0.06"/></linearGradient>
</defs>
<rect width="1200" height="400" fill="url(#bg)"/>
<path d="M0 400 L0 253.73784272252033 C60.0 258.1, 90.0 246.7, 150.0 239.8 C210.0 236.5, 240.0 231.3, 300.0 238.1 C360.0 245.5, 390.0 256.6, 450.0 250.0 C510.0 257.9, 540.0 265.9, 600.0 257.9 C660.0 259.8, 690.0 232.9, 750.0 227.7 C810.0 218.1, 840.0 236.4, 900.0 235.7 C960.0 233.6, 990.0 257.6, 1050.0 251.5 C1110.0 249.6, 1140.0 232.1, 1200.0 231.1 L1200 400 Z" fill="#367da9" opacity="0.45"/>
<path d="M0 400 L0 268.28570982672096 C52.5 275.1, 97.5 259.2, 150.0 262.0 C202.5 262.5, 247.5 256.7, 300.0 261.0 C352.5 263.0, 397.5 269.5, 450.0 268.6 C502.5 261.5, 547.5 271.3, 600.0 276.0 C652.5 274.2, 697.5 257.1, 750.0 262.3 C802.5 267.1, 847.5 259.0, 900.0 266.3 C952.5 265.0, 997.5 263.5, 1050.0 264.8 C1102.5 262.8, 1147.5 265.4, 1200.0 269.7 L1200 400 Z" fill="#0369a1" opacity="0.3"/>
<rect x="777.3" y="340.8" width="35.1" height="59.2" rx="3.8" fill="#05916f" opacity="0.83"/>
<rect x="616.1" y="364.7" width="28.8" height="35.3" rx="4.7" fill="#059071" opacity="0.64"/>
<rect x="192.2" y="283.6" width="15.9" height="116.4" rx="5.2" fill="#058f72" opacity="0.54"/>
<rect x="828.9" y="284.7" width="21.5" height="115.3" rx="6.5" fill="#047d88" opacity="0.67"/>
<rect x="833.9" y="294.7" width="4" height="5" rx="0.5" fill="#94a3b8" opacity="0.6"/>
<rect x="833.9" y="338.7" width="4" height="5" rx="0.5" fill="#94a3b8" opacity="0.6"/>
<rect x="833.9" y="360.7" width="4" height="5" rx="0.5" fill="#94a3b8" opacity="0.6"/>
<rect x="179.9" y="300.6" width="45.4" height="99.4" rx="5.8" fill="#04887a" opacity="0.53"/>
<rect x="184.9" y="310.6" width="4" height="5" rx="0.5" fill="#94a3b8" opacity="0.6"/>
<rect x="200.1" y="310.6" width="4" height="5" rx="0.5" fill="#94a3b8" opacity="0.6"/>
<rect x="184.9" y="332.6" width="4" height="5" rx="0.5" fill="#94a3b8" opacity="0.6"/>
<rect x="200.1" y="332.6" width="4" height="5" rx="0.5" fill="#94a3b8" opacity="0.6"/>
<rect x="184.9" y="354.6" width="4" height="5" rx="0.5" fill="#94a3b8" opacity="0.6"/>
<rect x="200.1" y="354.6" width="4" height="5" rx="0.5" fill="#94a3b8" opacity="0.6"/>
<rect x="758.5" y="285.7" width="27.1" height="114.3" rx="4.5" fill="#058c75" opacity="0.62"/>
<rect x="578.5" y="267.3" width="39.5" height="132.7" rx="7.9" fill="#048281" opacity="0.61"/>
<rect x="779.1" y="268.5" width="14.9" height="131.5" rx="4.4" fill="#048381" opacity="0.68"/>
<rect x="514.9" y="314.2" width="22.1" height="85.8" rx="3.7" fill="#04887b" opacity="0.74"/>
<rect x="519.9" y="324.2" width="4" height="5" rx="0.5" fill="#94a3b8" opacity="0.6"/>
<rect x="519.9" y="346.2" width="4" height="5" rx="0.5" fill="#94a3b8" opacity="0.6"/>
<rect x="519.9" y="368.2" width="4" height="5" rx="0.5" fill="#94a3b8" opacity="0.6"/>
<rect x="515.2" y="295.4" width="35.4" height="104.6" rx="6.4" fill="#05936d" opacity="0.62"/>
<rect x="755.9" y="354.2" width="49.8" height="45.8" rx="3.1" fill="#048480" opacity="0.74"/>
<rect x="1038.3" y="320.2" width="45.8" height="79.8" rx="4.7" fill="#05916f" opacity="0.76"/>
<rect x="467.7" y="312.3" width="18.7" height="87.7" rx="6.8" fill="#059170" opacity="0.65"/>
<rect x="472.7" y="344.3" width="4" height="5" rx="0.5" fill="#94a3b8" opacity="0.6"/>
<rect x="472.7" y="366.3" width="4" height="5" rx="0.5" fill="#94a3b8" opacity="0.6"/>
<circle cx="133.3" cy="180.0" r="8.7" fill="#94a3b8" opacity="0.37"/>
<circle cx="1051.8" cy="123.7" r="11.1" fill="#94a3b8" opacity="0.30"/>
<circle cx="33.7" cy="28.0" r="3.4" fill="#059669" opacity="0.39"/>
<circle cx="377.7" cy="21.0" r="6.8" fill="#059669" opacity="0.38"/>
<circle cx="1146.5" cy="30.8" r="11.2" fill="#94a3b8" opacity="0.26"/>
<circle cx="613.1" cy="185.7" r="5.4" fill="#059669" opacity="0.19"/>
<circle cx="60.8" cy="239.8" r="6.7" fill="#94a3b8" opacity="0.25"/>
<rect width="1200" height="400" fill="url(#warm)"/>
<rect width="1200" height="400" fill="#94a3b8" opacity="0.40"/>
</svg>