<svg xmlns="http://www.w3.org/2000/svg" viewBox="0 0 1200 300" width="1200" height="300">
<defs><linearGradient id="skyGrad" x1="0" y1="0" x2="0" y2="1"><stop offset="0%" stop-color="#ddf0f0"/><stop offset="100%" stop-color="#f0e8d8"/></linearGradient></defs><rect width="1200" height="300" fill="url(#skyGrad)"/>
<rect x="96.5" y="182.4" width="84.8" height="117.6" fill="#aeb0a5"/>
<rect x="333.8" y="219.6" width="83.0" height="80.4" fill="#aeb0a5"/>
<rect x="552.7" y="236.6" width="62.3" height="63.4" fill="#aeb0a5"/>
<polygon points="552.7,236.6 583.9,221.0 615.0,236.6" fill="#a0a298"/>
<rect x="810.9" y="217.9" width="71.9" height="82.1" fill="#aeb0a5"/>
<polygon points="810.9,217.9 846.8,199.9 882.8,217.9" fill="#a0a298"/>
<rect x="1038.4" y="206.1" width="78.5" height="93.9" fill="#aeb0a5"/>
<rect x="105.0" y="134.8" width="76.5" height="165.2" fill="#898d7d"/>
<rect x="154.2" y="146.8" width="6" height="8" fill="#b2b5ab" opacity="0.5"/>
<rect x="126.2" y="162.8" width="6" height="8" fill="#b2b5ab" opacity="0.5"/>
<rect x="140.2" y="162.8" width="6" height="8" fill="#b2b5ab" opacity="0.5"/>
<rect x="154.2" y="162.8" width="6" height="8" fill="#b2b5ab" opacity="0.5"/>
<rect x="126.2" y="178.8" width="6" height="8" fill="#b2b5ab" opacity="0.5"/>
<rect x="140.2" y="178.8" width="6" height="8" fill="#b2b5ab" opacity="0.5"/>
<rect x="154.2" y="178.8" width="6" height="8" fill="#b2b5ab" opacity="0.5"/>
<rect x="140.2" y="194.8" width="6" height="8" fill="#b2b5ab" opacity="0.5"/>
<rect x="154.2" y="194.8" width="6" height="8" fill="#b2b5ab" opacity="0.5"/>
<rect x="126.2" y="210.8" width="6" height="8" fill="#b2b5ab" opacity="0.5"/>
<rect x="140.2" y="210.8" width="6" height="8" fill="#b2b5ab" opacity="0.5"/>
<rect x="154.2" y="210.8" width="6" height="8" fill="#b2b5ab" opacity="0.5"/>
<rect x="140.2" y="226.8" width="6" height="8" fill="#b2b5ab" opacity="0.5"/>
<rect x="308.0" y="182.0" width="75.5" height="118.0" fill="#898d7d"/>
<rect x="321.2" y="161.1" width="49.1" height="20.8" fill="#828677"/>
<rect x="328.7" y="173.1" width="6" height="8" fill="#b2b5ab" opacity="0.5"/>
<rect x="356.7" y="173.1" width="6" height="8" fill="#b2b5ab" opacity="0.5"/>
<rect x="328.7" y="189.1" width="6" height="8" fill="#b2b5ab" opacity="0.5"/>
<rect x="342.7" y="189.1" width="6" height="8" fill="#b2b5ab" opacity="0.5"/>
<rect x="356.7" y="189.1" width="6" height="8" fill="#b2b5ab" opacity="0.5"/>
<rect x="328.7" y="205.1" width="6" height="8" fill="#b2b5ab" opacity="0.5"/>
<rect x="356.7" y="205.1" width="6" height="8" fill="#b2b5ab" opacity="0.5"/>
<rect x="356.7" y="221.1" width="6" height="8" fill="#b2b5ab" opacity="0.5"/>
<rect x="328.7" y="237.1" width="6" height="8" fill="#b2b5ab" opacity="0.5"/>
<rect x="342.7" y="237.1" width="6" height="8" fill="#b2b5ab" opacity="0.5"/>
<rect x="356.7" y="237.1" width="6" height="8" fill="#b2b5ab" opacity="0.5"/>
<rect x="580.8" y="139.0" width="59.6" height="161.0" fill="#898d7d"/>
<polygon points="580.8,139.0 610.6,124.1 640.4,139.0" fill="#7e8273"/>
<rect x="621.6" y="151.0" width="6" height="8" fill="#b2b5ab" opacity="0.5"/>
<rect x="593.6" y="167.0" width="6" height="8" fill="#b2b5ab" opacity="0.5"/>
<rect x="607.6" y="167.0" width="6" height="8" fill="#b2b5ab" opacity="0.5"/>
<rect x="621.6" y="167.0" width="6" height="8" fill="#b2b5ab" opacity="0.5"/>
<rect x="593.6" y="183.0" width="6" height="8" fill="#b2b5ab" opacity="0.5"/>
<rect x="607.6" y="183.0" width="6" height="8" fill="#b2b5ab" opacity="0.5"/>
<rect x="621.6" y="183.0" width="6" height="8" fill="#b2b5ab" opacity="0.5"/>
<rect x="593.6" y="199.0" width="6" height="8" fill="#b2b5ab" opacity="0.5"/>
<rect x="607.6" y="199.0" width="6" height="8" fill="#b2b5ab" opacity="0.5"/>
<rect x="621.6" y="199.0" width="6" height="8" fill="#b2b5ab" opacity="0.5"/>
<rect x="607.6" y="215.0" width="6" height="8" fill="#b2b5ab" opacity="0.5"/>
<rect x="621.6" y="215.0" width="6" height="8" fill="#b2b5ab" opacity="0.5"/>
<rect x="607.6" y="231.0" width="6" height="8" fill="#b2b5ab" opacity="0.5"/>
<rect x="796.5" y="180.3" width="54.5" height="119.7" fill="#898d7d"/>
<polygon points="796.5,180.3 823.7,166.6 851.0,180.3" fill="#7e8273"/>
<rect x="827.7" y="192.3" width="6" height="8" fill="#b2b5ab" opacity="0.5"/>
<rect x="813.7" y="208.3" width="6" height="8" fill="#b2b5ab" opacity="0.5"/>
<rect x="827.7" y="208.3" width="6" height="8" fill="#b2b5ab" opacity="0.5"/>
<rect x="813.7" y="224.3" width="6" height="8" fill="#b2b5ab" opacity="0.5"/>
<rect x="827.7" y="224.3" width="6" height="8" fill="#b2b5ab" opacity="0.5"/>
<rect x="813.7" y="240.3" width="6" height="8" fill="#b2b5ab" opacity="0.5"/>
<rect x="813.7" y="256.3" width="6" height="8" fill="#b2b5ab" opacity="0.5"/>
<rect x="813.7" y="272.3" width="6" height="8" fill="#b2b5ab" opacity="0.5"/>
<rect x="827.7" y="272.3" width="6" height="8" fill="#b2b5ab" opacity="0.5"/>
<rect x="1034.1" y="219.8" width="45.1" height="80.2" fill="#898d7d"/>
<rect x="1046.6" y="231.8" width="6" height="8" fill="#b2b5ab" opacity="0.5"/>
<rect x="1060.6" y="231.8" width="6" height="8" fill="#b2b5ab" opacity="0.5"/>
<rect x="1046.6" y="247.8" width="6" height="8" fill="#b2b5ab" opacity="0.5"/>
<rect x="1060.6" y="247.8" width="6" height="8" fill="#b2b5ab" opacity="0.5"/>
<rect x="1046.6" y="263.8" width="6" height="8" fill="#b2b5ab" opacity="0.5"/>
<rect x="1060.6" y="263.8" width="6" height="8" fill="#b2b5ab" opacity="0.5"/>
<rect x="131.3" y="162.6" width="50.6" height="137.4" fill="#6b705c"/>
<polygon points="131.3,162.6 156.6,149.9 181.9,162.6" fill="#626755"/>
<rect x="146.6" y="174.6" width="6" height="8" fill="#9fa295" opacity="0.5"/>
<rect x="146.6" y="190.6" width="6" height="8" fill="#9fa295" opacity="0.5"/>
<rect x="160.6" y="190.6" width="6" height="8" fill="#9fa295" opacity="0.5"/>
<rect x="146.6" y="206.6" width="6" height="8" fill="#9fa295" opacity="0.5"/>
<rect x="146.6" y="222.6" width="6" height="8" fill="#9fa295" opacity="0.5"/>
<rect x="160.6" y="222.6" width="6" height="8" fill="#9fa295" opacity="0.5"/>
<rect x="146.6" y="238.6" width="6" height="8" fill="#9fa295" opacity="0.5"/>
<rect x="160.6" y="254.6" width="6" height="8" fill="#9fa295" opacity="0.5"/>
<rect x="353.8" y="141.2" width="52.1" height="158.8" fill="#6b705c"/>
<rect x="369.8" y="169.2" width="6" height="8" fill="#9fa295" opacity="0.5"/>
<rect x="369.8" y="185.2" width="6" height="8" fill="#9fa295" opacity="0.5"/>
<rect x="369.8" y="217.2" width="6" height="8" fill="#9fa295" opacity="0.5"/>
<rect x="383.8" y="217.2" width="6" height="8" fill="#9fa295" opacity="0.5"/>
<rect x="572.4" y="110.7" width="60.6" height="189.3" fill="#6b705c"/>
<rect x="599.7" y="122.7" width="6" height="8" fill="#9fa295" opacity="0.5"/>
<rect x="613.7" y="122.7" width="6" height="8" fill="#9fa295" opacity="0.5"/>
<rect x="585.7" y="138.7" width="6" height="8" fill="#9fa295" opacity="0.5"/>
<rect x="599.7" y="138.7" width="6" height="8" fill="#9fa295" opacity="0.5"/>
<rect x="613.7" y="138.7" width="6" height="8" fill="#9fa295" opacity="0.5"/>
<rect x="585.7" y="154.7" width="6" height="8" fill="#9fa295" opacity="0.5"/>
<rect x="599.7" y="154.7" width="6" height="8" fill="#9fa295" opacity="0.5"/>
<rect x="585.7" y="170.7" width="6" height="8" fill="#9fa295" opacity="0.5"/>
<rect x="599.7" y="170.7" width="6" height="8" fill="#9fa295" opacity="0.5"/>
<rect x="585.7" y="186.7" width="6" height="8" fill="#9fa295" opacity="0.5"/>
<rect x="599.7" y="186.7" width="6" height="8" fill="#9fa295" opacity="0.5"/>
<rect x="613.7" y="186.7" width="6" height="8" fill="#9fa295" opacity="0.5"/>
<rect x="599.7" y="202.7" width="6" height="8" fill="#9fa295" opacity="0.5"/>
<rect x="785.4" y="171.8" width="68.2" height="128.2" fill="#6b705c"/>
<polygon points="785.4,171.8 819.5,154.7 853.6,171.8" fill="#626755"/>
<rect x="802.5" y="183.8" width="6" height="8" fill="#9fa295" opacity="0.5"/>
<rect x="830.5" y="183.8" width="6" height="8" fill="#9fa295" opacity="0.5"/>
<rect x="816.5" y="199.8" width="6" height="8" fill="#9fa295" opacity="0.5"/>
<rect x="830.5" y="199.8" width="6" height="8" fill="#9fa295" opacity="0.5"/>
<rect x="802.5" y="215.8" width="6" height="8" fill="#9fa295" opacity="0.5"/>
<rect x="830.5" y="215.8" width="6" height="8" fill="#9fa295" opacity="0.5"/>
<rect x="816.5" y="231.8" width="6" height="8" fill="#9fa295" opacity="0.5"/>
<rect x="830.5" y="231.8" width="6" height="8" fill="#9fa295" opacity="0.5"/>
<rect x="1046.0" y="139.9" width="39.4" height="160.1" fill="#6b705c"/>
<polygon points="1046.0,139.9 1065.7,130.1 1085.4,139.9" fill="#626755"/>
<rect x="1062.7" y="151.9" width="6" height="8" fill="#9fa295" opacity="0.5"/>
<rect x="1062.7" y="167.9" width="6" height="8" fill="#9fa295" opacity="0.5"/>
<rect x="1062.7" y="183.9" width="6" height="8" fill="#9fa295" opacity="0.5"/>
<rect x="1062.7" y="199.9" width="6" height="8" fill="#9fa295" opacity="0.5"/>
<rect x="1062.7" y="215.9" width="6" height="8" fill="#9fa295" opacity="0.5"/>
<path d="M267.9 285.0 Q289.5 255.1 283.0 225.1" fill="none" stroke="#877053" stroke-width="3"/>
<path d="M283.0 225.1 Q272.5 216.3 265.5 217.5" fill="none" stroke="#49893e" stroke-width="2.5"/>
<path d="M283.0 225.1 Q286.7 214.3 289.3 213.5" fill="none" stroke="#49893e" stroke-width="2.5"/>
<path d="M283.0 225.1 Q298.8 220.1 309.4 225.1" fill="none" stroke="#49893e" stroke-width="2.5"/>
<path d="M283.0 225.1 Q287.5 227.1 290.6 239.1" fill="none" stroke="#49893e" stroke-width="2.5"/>
<path d="M283.0 225.1 Q271.5 224.3 263.9 233.4" fill="none" stroke="#49893e" stroke-width="2.5"/>
<path d="M489.1 285.0 Q515.2 263.1 507.4 241.2" fill="none" stroke="#836c50" stroke-width="3"/>
<path d="M507.4 241.2 Q492.9 230.9 483.2 230.6" fill="none" stroke="#44803a" stroke-width="2.5"/>
<path d="M507.4 241.2 Q512.2 228.7 515.4 226.3" fill="none" stroke="#44803a" stroke-width="2.5"/>
<path d="M507.4 241.2 Q521.6 236.2 531.1 241.2" fill="none" stroke="#44803a" stroke-width="2.5"/>
<path d="M507.4 241.2 Q511.5 242.5 514.2 253.8" fill="none" stroke="#44803a" stroke-width="2.5"/>
<path d="M507.4 241.2 Q492.8 241.4 483.2 251.7" fill="none" stroke="#44803a" stroke-width="2.5"/>
<path d="M709.2 285.0 Q724.6 255.4 720.0 225.7" fill="none" stroke="#856e51" stroke-width="3"/>
<path d="M720.0 225.7 Q710.9 217.4 704.8 219.1" fill="none" stroke="#437e39" stroke-width="2.5"/>
<path d="M720.0 225.7 Q724.3 214.1 727.2 212.5" fill="none" stroke="#437e39" stroke-width="2.5"/>
<path d="M720.0 225.7 Q733.8 220.7 743.0 225.7" fill="none" stroke="#437e39" stroke-width="2.5"/>
<path d="M720.0 225.7 Q724.1 227.0 726.8 238.3" fill="none" stroke="#437e39" stroke-width="2.5"/>
<path d="M720.0 225.7 Q710.6 224.1 704.4 232.5" fill="none" stroke="#437e39" stroke-width="2.5"/>
<path d="M949.8 285.0 Q978.5 256.3 969.9 227.5" fill="none" stroke="#7b664b" stroke-width="3"/>
<path d="M969.9 227.5 Q960.4 219.1 954.1 220.6" fill="none" stroke="#47863c" stroke-width="2.5"/>
<path d="M969.9 227.5 Q975.1 214.5 978.6 211.5" fill="none" stroke="#47863c" stroke-width="2.5"/>
<path d="M969.9 227.5 Q987.3 222.5 998.9 227.5" fill="none" stroke="#47863c" stroke-width="2.5"/>
<path d="M969.9 227.5 Q975.4 231.1 979.1 244.6" fill="none" stroke="#47863c" stroke-width="2.5"/>
<path d="M969.9 227.5 Q961.1 225.7 955.3 233.9" fill="none" stroke="#47863c" stroke-width="2.5"/>
<path d="M786.8 285.0 Q809.9 264.8 803.0 244.7" fill="none" stroke="#776349" stroke-width="3"/>
<path d="M803.0 244.7 Q791.0 235.3 783.1 236.0" fill="none" stroke="#47863c" stroke-width="2.5"/>
<path d="M803.0 244.7 Q807.5 232.7 810.5 230.7" fill="none" stroke="#47863c" stroke-width="2.5"/>
<path d="M803.0 244.7 Q815.9 239.7 824.6 244.7" fill="none" stroke="#47863c" stroke-width="2.5"/>
<path d="M803.0 244.7 Q808.2 247.7 811.6 260.7" fill="none" stroke="#47863c" stroke-width="2.5"/>
<path d="M803.0 244.7 Q793.5 243.1 787.2 251.5" fill="none" stroke="#47863c" stroke-width="2.5"/>
<path d="M360.1 285.0 Q385.2 258.4 377.6 231.7" fill="none" stroke="#7f694e" stroke-width="3"/>
<path d="M377.6 231.7 Q367.8 223.2 361.2 224.6" fill="none" stroke="#48883d" stroke-width="2.5"/>
<path d="M377.6 231.7 Q381.9 220.3 384.7 218.8" fill="none" stroke="#48883d" stroke-width="2.5"/>
<path d="M377.6 231.7 Q391.1 226.7 400.0 231.7" fill="none" stroke="#48883d" stroke-width="2.5"/>
<path d="M377.6 231.7 Q383.0 235.0 386.5 248.2" fill="none" stroke="#48883d" stroke-width="2.5"/>
<path d="M377.6 231.7 Q367.3 230.5 360.4 239.3" fill="none" stroke="#48883d" stroke-width="2.5"/>
<path d="M241.9 285.0 Q261.9 264.7 255.9 244.3" fill="none" stroke="#806a4e" stroke-width="3"/>
<path d="M255.9 244.3 Q242.3 234.4 233.2 234.4" fill="none" stroke="#48883d" stroke-width="2.5"/>
<path d="M255.9 244.3 Q260.4 232.5 263.3 230.7" fill="none" stroke="#48883d" stroke-width="2.5"/>
<path d="M255.9 244.3 Q271.6 239.3 282.1 244.3" fill="none" stroke="#48883d" stroke-width="2.5"/>
<path d="M255.9 244.3 Q259.3 244.6 261.6 254.8" fill="none" stroke="#48883d" stroke-width="2.5"/>
<path d="M255.9 244.3 Q244.4 243.5 236.7 252.7" fill="none" stroke="#48883d" stroke-width="2.5"/>
<path d="M111.9 285.0 Q133.2 259.6 126.8 234.2" fill="none" stroke="#786349" stroke-width="3"/>
<path d="M126.8 234.2 Q115.0 224.9 107.1 225.6" fill="none" stroke="#46853c" stroke-width="2.5"/>
<path d="M126.8 234.2 Q131.5 222.1 134.6 219.9" fill="none" stroke="#46853c" stroke-width="2.5"/>
<path d="M126.8 234.2 Q137.7 229.2 145.0 234.2" fill="none" stroke="#46853c" stroke-width="2.5"/>
<path d="M126.8 234.2 Q132.2 237.6 135.8 250.9" fill="none" stroke="#46853c" stroke-width="2.5"/>
<path d="M126.8 234.2 Q114.8 233.6 106.8 243.0" fill="none" stroke="#46853c" stroke-width="2.5"/>
<rect x="0" y="285" width="1200" height="15" fill="#d4c5a9" opacity="0.4"/>
<circle cx="1002.3" cy="31.0" r="29.8" fill="#f5e6a0" opacity="0.1"/>
</svg>