<svg xmlns="http://www.w3.org/2000/svg" viewBox="0 0 1200 400" width="1200" height="400">
<defs>
<linearGradient id="bg" x1="0" y1="0" x2="0" y2="1"><stop offset="0%" stop-color="#d4a76a"/><stop offset="100%" stop-color="#ea580c"/></linearGradient>
<linearGradient id="warm" x1="0" y1="0" x2="1" y2="1"><stop offset="0%" stop-color="#858d98" stop-opacity="0.18"/><stop offset="100%" stop-color="#858d98" stop-opacity="0.06"/></linearGradient>
</defs>
<rect width="1200" height="400" fill="url(#bg)"/>
<path d="M0 400 L0 253.84272659454174 C60.0 245.3, 90.0 257.1, 150.0 254.3 C210.0 259.8, 240.0 233.9, 300.0 237.0 C360.0 242.4, 390.0 259.5, 450.0 253.2 C510.0 253.6, 540.0 261.4, 600.0 253.0 C660.0 252.8, 690.0 251.4, 750.0 241.5 C810.0 249.5, 840.0 225.4, 900.0 233.1 C960.0 237.0, 990.0 238.7, 1050.0 237.7 C1110.0 240.9, 1140.0 239.9, 1200.0 231.0 L1200 400 Z" fill="#e2742d" opacity="0.45"/>
<path d="M0 400 L0 268.39492110771374 C52.5 268.2, 97.5 269.9, 150.0 268.2 C202.5 272.0, 247.5 271.8, 300.0 269.1 C352.5 269.7, 397.5 269.7, 450.0 262.8 C502.5 268.0, 547.5 268.1, 600.0 270.0 C652.5 270.6, 697.5 253.5, 750.0 257.9 C802.5 260.0, 847.5 272.6, 900.0 268.7 C952.5 272.5, 997.5 276.0, 1050.0 274.3 C1102.5 269.2, 1147.5 267.2, 1200.0 272.4 L1200 400 Z" fill="#ea580c" opacity="0.3"/>
<rect x="260.5" y="269.2" width="42.0" height="130.8" rx="4.7" fill="#8b7052" opacity="0.63"/>
<rect x="265.5" y="279.2" width="4" height="5" rx="0.5" fill="#d4a76a" opacity="0.6"/>
<rect x="279.5" y="279.2" width="4" height="5" rx="0.5" fill="#d4a76a" opacity="0.6"/>
<rect x="265.5" y="301.2" width="4" height="5" rx="0.5" fill="#d4a76a" opacity="0.6"/>
<rect x="279.5" y="301.2" width="4" height="5" rx="0.5" fill="#d4a76a" opacity="0.6"/>
<rect x="279.5" y="323.2" width="4" height="5" rx="0.5" fill="#d4a76a" opacity="0.6"/>
<rect x="265.5" y="345.2" width="4" height="5" rx="0.5" fill="#d4a76a" opacity="0.6"/>
<rect x="122.3" y="314.9" width="42.6" height="85.1" rx="6.6" fill="#0f8fad" opacity="0.65"/>
<rect x="141.5" y="324.9" width="4" height="5" rx="0.5" fill="#d4a76a" opacity="0.6"/>
<rect x="127.3" y="346.9" width="4" height="5" rx="0.5" fill="#d4a76a" opacity="0.6"/>
<rect x="141.5" y="346.9" width="4" height="5" rx="0.5" fill="#d4a76a" opacity="0.6"/>
<rect x="127.3" y="368.9" width="4" height="5" rx="0.5" fill="#d4a76a" opacity="0.6"/>
<rect x="141.5" y="368.9" width="4" height="5" rx="0.5" fill="#d4a76a" opacity="0.6"/>
<rect x="244.3" y="278.3" width="21.3" height="121.7" rx="3.4" fill="#727664" opacity="0.83"/>
<rect x="226.9" y="365.2" width="43.6" height="34.8" rx="3.6" fill="#138eaa" opacity="0.62"/>
<rect x="659.4" y="298.6" width="12.8" height="101.4" rx="6.6" fill="#8c7051" opacity="0.71"/>
<rect x="1042.2" y="329.1" width="35.0" height="70.9" rx="5.5" fill="#258a9d" opacity="0.68"/>
<rect x="850.4" y="338.3" width="45.5" height="61.7" rx="3.1" fill="#148ea9" opacity="0.61"/>
<rect x="1046.0" y="322.0" width="26.2" height="78.0" rx="7.2" fill="#6a786a" opacity="0.63"/>
<rect x="144.9" y="291.2" width="23.6" height="108.8" rx="4.8" fill="#717765" opacity="0.72"/>
<rect x="149.9" y="301.2" width="4" height="5" rx="0.5" fill="#d4a76a" opacity="0.6"/>
<rect x="149.9" y="345.2" width="4" height="5" rx="0.5" fill="#d4a76a" opacity="0.6"/>
<rect x="149.9" y="367.2" width="4" height="5" rx="0.5" fill="#d4a76a" opacity="0.6"/>
<rect x="981.8" y="365.7" width="39.8" height="34.3" rx="3.7" fill="#488183" opacity="0.64"/>
<rect x="565.3" y="364.4" width="26.5" height="35.6" rx="7.6" fill="#37858f" opacity="0.50"/>
<rect x="688.8" y="273.4" width="23.5" height="126.6" rx="3.8" fill="#2f8795" opacity="0.83"/>
<rect x="314.1" y="370.5" width="40.5" height="29.5" rx="4.3" fill="#8b7052" opacity="0.62"/>
<circle cx="14.6" cy="66.1" r="8.0" fill="#d4a76a" opacity="0.15"/>
<circle cx="1166.5" cy="223.6" r="11.7" fill="#d4a76a" opacity="0.33"/>
<rect width="1200" height="400" fill="url(#warm)"/>
<rect width="1200" height="400" fill="#d4a76a" opacity="0.40"/>
</svg>