<svg xmlns="http://www.w3.org/2000/svg" viewBox="0 0 1200 300" width="1200" height="300">
<rect width="1200" height="300" fill="#e0eff2"/>
<path d="M0 300 L0 210.0 C240.8 178.6, 834.3 195.3, 1200 210.0 L1200 300 Z" fill="#aac2c9" opacity="0.3"/>
<rect x="132.1" y="217.5" width="82.4" height="82.5" fill="#8aabb4"/>
<rect x="471.2" y="225.7" width="42.5" height="74.3" fill="#8aabb4"/>
<rect x="676.2" y="228.6" width="60.4" height="71.4" fill="#8aabb4"/>
<rect x="991.5" y="235.3" width="60.1" height="64.7" fill="#8aabb4"/>
<rect x="142.0" y="217.6" width="57.7" height="82.4" fill="#558592"/>
<rect x="160.8" y="229.6" width="6" height="8" fill="#91b0b8" opacity="0.5"/>
<rect x="174.8" y="229.6" width="6" height="8" fill="#91b0b8" opacity="0.5"/>
<rect x="160.8" y="245.6" width="6" height="8" fill="#91b0b8" opacity="0.5"/>
<rect x="160.8" y="261.6" width="6" height="8" fill="#91b0b8" opacity="0.5"/>
<rect x="174.8" y="261.6" width="6" height="8" fill="#91b0b8" opacity="0.5"/>
<rect x="335.3" y="179.0" width="74.7" height="121.0" fill="#558592"/>
<rect x="348.6" y="191.0" width="6" height="8" fill="#91b0b8" opacity="0.5"/>
<rect x="362.6" y="191.0" width="6" height="8" fill="#91b0b8" opacity="0.5"/>
<rect x="376.6" y="191.0" width="6" height="8" fill="#91b0b8" opacity="0.5"/>
<rect x="390.6" y="191.0" width="6" height="8" fill="#91b0b8" opacity="0.5"/>
<rect x="348.6" y="207.0" width="6" height="8" fill="#91b0b8" opacity="0.5"/>
<rect x="362.6" y="207.0" width="6" height="8" fill="#91b0b8" opacity="0.5"/>
<rect x="376.6" y="207.0" width="6" height="8" fill="#91b0b8" opacity="0.5"/>
<rect x="390.6" y="207.0" width="6" height="8" fill="#91b0b8" opacity="0.5"/>
<rect x="348.6" y="223.0" width="6" height="8" fill="#91b0b8" opacity="0.5"/>
<rect x="362.6" y="223.0" width="6" height="8" fill="#91b0b8" opacity="0.5"/>
<rect x="376.6" y="223.0" width="6" height="8" fill="#91b0b8" opacity="0.5"/>
<rect x="390.6" y="223.0" width="6" height="8" fill="#91b0b8" opacity="0.5"/>
<rect x="348.6" y="239.0" width="6" height="8" fill="#91b0b8" opacity="0.5"/>
<rect x="376.6" y="239.0" width="6" height="8" fill="#91b0b8" opacity="0.5"/>
<rect x="390.6" y="239.0" width="6" height="8" fill="#91b0b8" opacity="0.5"/>
<rect x="376.6" y="255.0" width="6" height="8" fill="#91b0b8" opacity="0.5"/>
<rect x="390.6" y="255.0" width="6" height="8" fill="#91b0b8" opacity="0.5"/>
<rect x="376.6" y="271.0" width="6" height="8" fill="#91b0b8" opacity="0.5"/>
<rect x="390.6" y="271.0" width="6" height="8" fill="#91b0b8" opacity="0.5"/>
<rect x="577.2" y="160.3" width="71.4" height="139.7" fill="#558592"/>
<rect x="595.9" y="172.3" width="6" height="8" fill="#91b0b8" opacity="0.5"/>
<rect x="609.9" y="172.3" width="6" height="8" fill="#91b0b8" opacity="0.5"/>
<rect x="623.9" y="172.3" width="6" height="8" fill="#91b0b8" opacity="0.5"/>
<rect x="595.9" y="204.3" width="6" height="8" fill="#91b0b8" opacity="0.5"/>
<rect x="609.9" y="204.3" width="6" height="8" fill="#91b0b8" opacity="0.5"/>
<rect x="595.9" y="220.3" width="6" height="8" fill="#91b0b8" opacity="0.5"/>
<rect x="609.9" y="220.3" width="6" height="8" fill="#91b0b8" opacity="0.5"/>
<rect x="623.9" y="220.3" width="6" height="8" fill="#91b0b8" opacity="0.5"/>
<rect x="595.9" y="236.3" width="6" height="8" fill="#91b0b8" opacity="0.5"/>
<rect x="609.9" y="236.3" width="6" height="8" fill="#91b0b8" opacity="0.5"/>
<rect x="623.9" y="236.3" width="6" height="8" fill="#91b0b8" opacity="0.5"/>
<rect x="595.9" y="252.3" width="6" height="8" fill="#91b0b8" opacity="0.5"/>
<rect x="623.9" y="252.3" width="6" height="8" fill="#91b0b8" opacity="0.5"/>
<rect x="595.9" y="268.3" width="6" height="8" fill="#91b0b8" opacity="0.5"/>
<rect x="609.9" y="268.3" width="6" height="8" fill="#91b0b8" opacity="0.5"/>
<rect x="770.9" y="152.8" width="72.7" height="147.2" fill="#558592"/>
<rect x="783.2" y="164.8" width="6" height="8" fill="#91b0b8" opacity="0.5"/>
<rect x="797.2" y="164.8" width="6" height="8" fill="#91b0b8" opacity="0.5"/>
<rect x="811.2" y="164.8" width="6" height="8" fill="#91b0b8" opacity="0.5"/>
<rect x="783.2" y="180.8" width="6" height="8" fill="#91b0b8" opacity="0.5"/>
<rect x="797.2" y="180.8" width="6" height="8" fill="#91b0b8" opacity="0.5"/>
<rect x="811.2" y="180.8" width="6" height="8" fill="#91b0b8" opacity="0.5"/>
<rect x="825.2" y="180.8" width="6" height="8" fill="#91b0b8" opacity="0.5"/>
<rect x="783.2" y="196.8" width="6" height="8" fill="#91b0b8" opacity="0.5"/>
<rect x="797.2" y="196.8" width="6" height="8" fill="#91b0b8" opacity="0.5"/>
<rect x="811.2" y="196.8" width="6" height="8" fill="#91b0b8" opacity="0.5"/>
<rect x="825.2" y="196.8" width="6" height="8" fill="#91b0b8" opacity="0.5"/>
<rect x="797.2" y="212.8" width="6" height="8" fill="#91b0b8" opacity="0.5"/>
<rect x="811.2" y="212.8" width="6" height="8" fill="#91b0b8" opacity="0.5"/>
<rect x="783.2" y="228.8" width="6" height="8" fill="#91b0b8" opacity="0.5"/>
<rect x="797.2" y="228.8" width="6" height="8" fill="#91b0b8" opacity="0.5"/>
<rect x="811.2" y="228.8" width="6" height="8" fill="#91b0b8" opacity="0.5"/>
<rect x="825.2" y="228.8" width="6" height="8" fill="#91b0b8" opacity="0.5"/>
<rect x="797.2" y="244.8" width="6" height="8" fill="#91b0b8" opacity="0.5"/>
<rect x="811.2" y="244.8" width="6" height="8" fill="#91b0b8" opacity="0.5"/>
<rect x="825.2" y="244.8" width="6" height="8" fill="#91b0b8" opacity="0.5"/>
<rect x="783.2" y="260.8" width="6" height="8" fill="#91b0b8" opacity="0.5"/>
<rect x="797.2" y="260.8" width="6" height="8" fill="#91b0b8" opacity="0.5"/>
<rect x="825.2" y="260.8" width="6" height="8" fill="#91b0b8" opacity="0.5"/>
<rect x="1018.2" y="185.4" width="63.1" height="114.6" fill="#558592"/>
<rect x="1032.7" y="197.4" width="6" height="8" fill="#91b0b8" opacity="0.5"/>
<rect x="1060.7" y="197.4" width="6" height="8" fill="#91b0b8" opacity="0.5"/>
<rect x="1032.7" y="213.4" width="6" height="8" fill="#91b0b8" opacity="0.5"/>
<rect x="1046.7" y="213.4" width="6" height="8" fill="#91b0b8" opacity="0.5"/>
<rect x="1060.7" y="213.4" width="6" height="8" fill="#91b0b8" opacity="0.5"/>
<rect x="1032.7" y="229.4" width="6" height="8" fill="#91b0b8" opacity="0.5"/>
<rect x="1046.7" y="229.4" width="6" height="8" fill="#91b0b8" opacity="0.5"/>
<rect x="1046.7" y="245.4" width="6" height="8" fill="#91b0b8" opacity="0.5"/>
<rect x="1060.7" y="245.4" width="6" height="8" fill="#91b0b8" opacity="0.5"/>
<rect x="1032.7" y="261.4" width="6" height="8" fill="#91b0b8" opacity="0.5"/>
<rect x="1060.7" y="261.4" width="6" height="8" fill="#91b0b8" opacity="0.5"/>
<rect x="110.6" y="219.6" width="60.1" height="80.4" fill="#2b6777"/>
<rect x="123.7" y="231.6" width="6" height="8" fill="#759ca7" opacity="0.5"/>
<rect x="137.7" y="231.6" width="6" height="8" fill="#759ca7" opacity="0.5"/>
<rect x="151.7" y="231.6" width="6" height="8" fill="#759ca7" opacity="0.5"/>
<rect x="137.7" y="247.6" width="6" height="8" fill="#759ca7" opacity="0.5"/>
<rect x="151.7" y="247.6" width="6" height="8" fill="#759ca7" opacity="0.5"/>
<rect x="137.7" y="263.6" width="6" height="8" fill="#759ca7" opacity="0.5"/>
<rect x="359.2" y="127.1" width="49.2" height="172.9" fill="#2b6777"/>
<rect x="373.8" y="139.1" width="6" height="8" fill="#759ca7" opacity="0.5"/>
<rect x="373.8" y="155.1" width="6" height="8" fill="#759ca7" opacity="0.5"/>
<rect x="387.8" y="155.1" width="6" height="8" fill="#759ca7" opacity="0.5"/>
<rect x="373.8" y="187.1" width="6" height="8" fill="#759ca7" opacity="0.5"/>
<rect x="373.8" y="203.1" width="6" height="8" fill="#759ca7" opacity="0.5"/>
<rect x="387.8" y="203.1" width="6" height="8" fill="#759ca7" opacity="0.5"/>
<rect x="373.8" y="219.1" width="6" height="8" fill="#759ca7" opacity="0.5"/>
<rect x="387.8" y="219.1" width="6" height="8" fill="#759ca7" opacity="0.5"/>
<rect x="373.8" y="235.1" width="6" height="8" fill="#759ca7" opacity="0.5"/>
<rect x="387.8" y="235.1" width="6" height="8" fill="#759ca7" opacity="0.5"/>
<rect x="373.8" y="251.1" width="6" height="8" fill="#759ca7" opacity="0.5"/>
<rect x="387.8" y="251.1" width="6" height="8" fill="#759ca7" opacity="0.5"/>
<rect x="373.8" y="267.1" width="6" height="8" fill="#759ca7" opacity="0.5"/>
<rect x="560.3" y="174.4" width="47.1" height="125.6" fill="#2b6777"/>
<rect x="573.8" y="186.4" width="6" height="8" fill="#759ca7" opacity="0.5"/>
<rect x="587.8" y="186.4" width="6" height="8" fill="#759ca7" opacity="0.5"/>
<rect x="573.8" y="202.4" width="6" height="8" fill="#759ca7" opacity="0.5"/>
<rect x="587.8" y="202.4" width="6" height="8" fill="#759ca7" opacity="0.5"/>
<rect x="587.8" y="218.4" width="6" height="8" fill="#759ca7" opacity="0.5"/>
<rect x="573.8" y="234.4" width="6" height="8" fill="#759ca7" opacity="0.5"/>
<rect x="587.8" y="234.4" width="6" height="8" fill="#759ca7" opacity="0.5"/>
<rect x="587.8" y="250.4" width="6" height="8" fill="#759ca7" opacity="0.5"/>
<rect x="587.8" y="266.4" width="6" height="8" fill="#759ca7" opacity="0.5"/>
<rect x="786.6" y="220.0" width="43.6" height="80.0" fill="#2b6777"/>
<rect x="805.4" y="232.0" width="6" height="8" fill="#759ca7" opacity="0.5"/>
<rect x="805.4" y="264.0" width="6" height="8" fill="#759ca7" opacity="0.5"/>
<rect x="1042.6" y="249.2" width="59.9" height="50.8" fill="#2b6777"/>
<rect x="0" y="298" width="1200" height="2" fill="#275d6b" opacity="0.15"/>
</svg>