<svg xmlns="http://www.w3.org/2000/svg" viewBox="0 0 1200 300" width="1200" height="300">
<defs>
<linearGradient id="skyGrad" x1="0" y1="0" x2="0" y2="1">
<stop offset="0%" stop-color="#818cf8"/>
<stop offset="20%" stop-color="#c4b5fd"/>
<stop offset="38%" stop-color="#fda4af"/>
<stop offset="55%" stop-color="#fdba74"/>
<stop offset="75%" stop-color="#fef08a"/>
<stop offset="100%" stop-color="#fef9c3"/>
</linearGradient>
<linearGradient id="bldg_coral" x1="0" y1="0" x2="0" y2="1"><stop offset="0%" stop-color="#fecaca"/><stop offset="100%" stop-color="#fca5a5"/></linearGradient>
<linearGradient id="bldg_teal" x1="0" y1="0" x2="0" y2="1"><stop offset="0%" stop-color="#99f6e4"/><stop offset="100%" stop-color="#5eead4"/></linearGradient>
<linearGradient id="bldg_amber" x1="0" y1="0" x2="0" y2="1"><stop offset="0%" stop-color="#fde68a"/><stop offset="100%" stop-color="#fcd34d"/></linearGradient>
<linearGradient id="bldg_lavender" x1="0" y1="0" x2="0" y2="1"><stop offset="0%" stop-color="#ddd6fe"/><stop offset="100%" stop-color="#c4b5fd"/></linearGradient>
<linearGradient id="bldg_blue" x1="0" y1="0" x2="0" y2="1"><stop offset="0%" stop-color="#bfdbfe"/><stop offset="100%" stop-color="#93c5fd"/></linearGradient>
<linearGradient id="bldg_mint" x1="0" y1="0" x2="0" y2="1"><stop offset="0%" stop-color="#a7f3d0"/><stop offset="100%" stop-color="#6ee7b7"/></linearGradient>
<linearGradient id="bldg_rose" x1="0" y1="0" x2="0" y2="1"><stop offset="0%" stop-color="#fecdd3"/><stop offset="100%" stop-color="#fda4af"/></linearGradient>
<linearGradient id="bldg_sky" x1="0" y1="0" x2="0" y2="1"><stop offset="0%" stop-color="#bae6fd"/><stop offset="100%" stop-color="#7dd3fc"/></linearGradient>
<linearGradient id="roof_navyRoof" x1="0" y1="0" x2="0" y2="1"><stop offset="0%" stop-color="#4338ca"/><stop offset="100%" stop-color="#3730a3"/></linearGradient>
<linearGradient id="roof_coralRoof" x1="0" y1="0" x2="0" y2="1"><stop offset="0%" stop-color="#f87171"/><stop offset="100%" stop-color="#ef4444"/></linearGradient>
<linearGradient id="roof_tealRoof" x1="0" y1="0" x2="0" y2="1"><stop offset="0%" stop-color="#2dd4bf"/><stop offset="100%" stop-color="#14b8a6"/></linearGradient>
<radialGradient id="windowGlow" cx="50%" cy="50%" r="50%"><stop offset="0%" stop-color="#fef08a"/><stop offset="60%" stop-color="#fbbf24"/><stop offset="100%" stop-color="#f59e0b"/></radialGradient>
<linearGradient id="hillFar" x1="0" y1="0" x2="0" y2="1"><stop offset="0%" stop-color="#c4b5fd"/><stop offset="100%" stop-color="#a5b4fc"/></linearGradient>
<linearGradient id="hillMid" x1="0" y1="0" x2="0" y2="1"><stop offset="0%" stop-color="#86efac"/><stop offset="100%" stop-color="#4ade80"/></linearGradient>
<linearGradient id="hillNear" x1="0" y1="0" x2="0" y2="1"><stop offset="0%" stop-color="#34d399"/><stop offset="100%" stop-color="#10b981"/></linearGradient>
<linearGradient id="hillDesertFar" x1="0" y1="0" x2="0" y2="1"><stop offset="0%" stop-color="#fde68a"/><stop offset="100%" stop-color="#fcd34d"/></linearGradient>
<linearGradient id="hillDesertMid" x1="0" y1="0" x2="0" y2="1"><stop offset="0%" stop-color="#fcd34d"/><stop offset="100%" stop-color="#fbbf24"/></linearGradient>
<linearGradient id="hillDesertNear" x1="0" y1="0" x2="0" y2="1"><stop offset="0%" stop-color="#fbbf24"/><stop offset="100%" stop-color="#f59e0b"/></linearGradient>
<linearGradient id="groundGrad" x1="0" y1="0" x2="0" y2="1"><stop offset="0%" stop-color="#fef3c7"/><stop offset="100%" stop-color="#fde68a"/></linearGradient>
<linearGradient id="waterGrad" x1="0" y1="0" x2="0" y2="1"><stop offset="0%" stop-color="#bfdbfe"/><stop offset="100%" stop-color="#93c5fd"/></linearGradient>
<filter id="softGlow" x="-50%" y="-50%" width="200%" height="200%"><feGaussianBlur in="SourceGraphic" stdDeviation="12"/></filter>
</defs>
<rect width="1200" height="300" fill="url(#skyGrad)"/>
<circle cx="983.1" cy="37.5" r="45" fill="#fef08a" opacity="0.12" filter="url(#softGlow)"/>
<circle cx="983.1" cy="37.5" r="30" fill="#fde68a" opacity="0.18" filter="url(#softGlow)"/>
<circle cx="983.1" cy="37.5" r="16" fill="#fef9c3" opacity="0.25" filter="url(#softGlow)"/>
<ellipse cx="1051.9" cy="40.8" rx="46.4" ry="16.2" fill="white" opacity="0.4"/>
<ellipse cx="1022.9" cy="45.5" rx="32.5" ry="12.8" fill="white" opacity="0.4"/>
<ellipse cx="1077.4" cy="44.3" rx="37.1" ry="13.9" fill="white" opacity="0.4"/>
<ellipse cx="559.8" cy="38.3" rx="41.8" ry="14.6" fill="white" opacity="0.6"/>
<ellipse cx="533.7" cy="42.4" rx="29.3" ry="11.5" fill="white" opacity="0.5"/>
<ellipse cx="582.8" cy="41.4" rx="33.4" ry="12.5" fill="white" opacity="0.5"/>
<path d="M0 300 L0.0 185.4 C125.7 185.4, 125.7 185.3, 251.4 185.3 C366.2 185.3, 366.2 178.8, 481.1 178.8 C596.3 178.8, 596.3 191.5, 711.5 191.5 C838.6 191.5, 838.6 187.3, 965.7 187.3 C1082.8 187.3, 1082.8 184.7, 1200.0 184.7 L1200 300 Z" fill="url(#hillFar)" opacity="0.5"/>
<path d="M0 300 L0.0 214.3 C189.7 214.3, 189.7 209.4, 379.5 209.4 C557.5 209.4, 557.5 203.5, 735.5 203.5 C967.7 203.5, 967.7 213.9, 1200.0 213.9 L1200 300 Z" fill="url(#hillMid)" opacity="0.7"/>
<path d="M0 300 L0.0 228.7 C180.1 228.7, 180.1 231.9, 360.3 231.9 C515.9 231.9, 515.9 235.6, 671.4 235.6 C816.4 235.6, 816.4 231.3, 961.4 231.3 C1080.7 231.3, 1080.7 232.9, 1200.0 232.9 L1200 300 Z" fill="url(#hillNear)" opacity="1"/>
<rect x="163.7" y="218.9" width="78.7" height="81.1" rx="3" fill="url(#bldg_mint)" opacity="0.7"/>
<rect x="163.7" y="215.9" width="78.7" height="3" rx="1" fill="url(#roof_coralRoof)" opacity="0.7"/>
<rect x="179.0" y="228.9" width="6" height="8" rx="1" fill="url(#windowGlow)" opacity="0.9988083953963631"/>
<rect x="193.0" y="228.9" width="6" height="8" rx="1" fill="url(#windowGlow)" opacity="0.8590186120285739"/>
<rect x="207.0" y="228.9" width="6" height="8" rx="1" fill="url(#windowGlow)" opacity="0.715773966869234"/>
<rect x="179.0" y="243.9" width="6" height="8" rx="1" fill="url(#windowGlow)" opacity="0.9132127691121831"/>
<rect x="193.0" y="243.9" width="6" height="8" rx="1" fill="url(#windowGlow)" opacity="0.8937280408077537"/>
<rect x="207.0" y="243.9" width="6" height="8" rx="1" fill="url(#windowGlow)" opacity="0.7397010372205176"/>
<rect x="221.0" y="243.9" width="6" height="8" rx="1" fill="url(#windowGlow)" opacity="0.7181291613812228"/>
<rect x="179.0" y="258.9" width="6" height="8" rx="1" fill="url(#windowGlow)" opacity="0.8150317564211002"/>
<rect x="193.0" y="258.9" width="6" height="8" rx="1" fill="url(#windowGlow)" opacity="0.9608723926641383"/>
<rect x="207.0" y="258.9" width="6" height="8" rx="1" fill="url(#windowGlow)" opacity="0.7726284933614677"/>
<rect x="221.0" y="258.9" width="6" height="8" rx="1" fill="url(#windowGlow)" opacity="0.8873862297215435"/>
<rect x="420.3" y="206.8" width="83.5" height="93.2" rx="3" fill="url(#bldg_rose)" opacity="0.7"/>
<polygon points="420.3,206.8 462.0,179.0 503.8,206.8" fill="url(#roof_tealRoof)" opacity="0.7"/>
<rect x="438.0" y="216.8" width="6" height="8" rx="1" fill="url(#windowGlow)" opacity="0.9111819013073956"/>
<rect x="452.0" y="216.8" width="6" height="8" rx="1" fill="url(#windowGlow)" opacity="0.8224913814675487"/>
<rect x="466.0" y="216.8" width="6" height="8" rx="1" fill="url(#windowGlow)" opacity="0.988274755835661"/>
<rect x="480.0" y="216.8" width="6" height="8" rx="1" fill="url(#windowGlow)" opacity="0.9046904511771585"/>
<rect x="438.0" y="231.8" width="6" height="8" rx="1" fill="url(#windowGlow)" opacity="0.7114103356429423"/>
<rect x="452.0" y="231.8" width="6" height="8" rx="1" fill="url(#windowGlow)" opacity="0.9554422742014016"/>
<rect x="466.0" y="231.8" width="6" height="8" rx="1" fill="url(#windowGlow)" opacity="0.9259701394596929"/>
<rect x="480.0" y="231.8" width="6" height="8" rx="1" fill="url(#windowGlow)" opacity="0.9942688975922152"/>
<rect x="438.0" y="246.8" width="6" height="8" rx="1" fill="url(#windowGlow)" opacity="0.8394320702829547"/>
<rect x="452.0" y="246.8" width="6" height="8" rx="1" fill="url(#windowGlow)" opacity="0.729516068207806"/>
<rect x="466.0" y="246.8" width="6" height="8" rx="1" fill="url(#windowGlow)" opacity="0.9462605734571164"/>
<rect x="480.0" y="246.8" width="6" height="8" rx="1" fill="url(#windowGlow)" opacity="0.7772863387490093"/>
<rect x="685.3" y="204.2" width="76.4" height="95.8" rx="3" fill="url(#bldg_sky)" opacity="0.7"/>
<polygon points="685.3,204.2 723.5,179.8 761.7,204.2" fill="url(#roof_navyRoof)" opacity="0.7"/>
<rect x="699.5" y="214.2" width="6" height="8" rx="1" fill="url(#windowGlow)" opacity="0.9348643599240408"/>
<rect x="713.5" y="214.2" width="6" height="8" rx="1" fill="url(#windowGlow)" opacity="0.8351564184460585"/>
<rect x="727.5" y="214.2" width="6" height="8" rx="1" fill="url(#windowGlow)" opacity="0.8055093612081881"/>
<rect x="741.5" y="214.2" width="6" height="8" rx="1" fill="url(#windowGlow)" opacity="0.7686122147685904"/>
<rect x="699.5" y="229.2" width="6" height="8" rx="1" fill="url(#windowGlow)" opacity="0.7214898192423813"/>
<rect x="713.5" y="229.2" width="6" height="8" rx="1" fill="url(#windowGlow)" opacity="0.8059995782123877"/>
<rect x="727.5" y="229.2" width="6" height="8" rx="1" fill="url(#windowGlow)" opacity="0.7622353128447361"/>
<rect x="741.5" y="229.2" width="6" height="8" rx="1" fill="url(#windowGlow)" opacity="0.7213567758078485"/>
<rect x="699.5" y="244.2" width="6" height="8" rx="1" fill="url(#windowGlow)" opacity="0.9144805660538751"/>
<rect x="727.5" y="244.2" width="6" height="8" rx="1" fill="url(#windowGlow)" opacity="0.8927973024047898"/>
<rect x="741.5" y="244.2" width="6" height="8" rx="1" fill="url(#windowGlow)" opacity="0.7547950392378471"/>
<rect x="727.5" y="259.2" width="6" height="8" rx="1" fill="url(#windowGlow)" opacity="0.853251574585797"/>
<rect x="988.4" y="218.8" width="72.6" height="81.2" rx="3" fill="url(#bldg_coral)" opacity="0.7"/>
<polygon points="988.4,218.8 1024.7,200.9 1061.0,218.8" fill="url(#roof_coralRoof)" opacity="0.7"/>
<rect x="1000.7" y="228.8" width="6" height="8" rx="1" fill="url(#windowGlow)" opacity="0.9887669819820518"/>
<rect x="1028.7" y="228.8" width="6" height="8" rx="1" fill="url(#windowGlow)" opacity="0.8866816007004499"/>
<rect x="1042.7" y="228.8" width="6" height="8" rx="1" fill="url(#windowGlow)" opacity="0.9470767751089655"/>
<rect x="1000.7" y="243.8" width="6" height="8" rx="1" fill="url(#windowGlow)" opacity="0.9138695804932478"/>
<rect x="1028.7" y="243.8" width="6" height="8" rx="1" fill="url(#windowGlow)" opacity="0.8787293383752598"/>
<rect x="1042.7" y="243.8" width="6" height="8" rx="1" fill="url(#windowGlow)" opacity="0.9604124424329086"/>
<rect x="1000.7" y="258.8" width="6" height="8" rx="1" fill="url(#windowGlow)" opacity="0.8968170322462995"/>
<rect x="1014.7" y="258.8" width="6" height="8" rx="1" fill="url(#windowGlow)" opacity="0.8226024637569684"/>
<rect x="1042.7" y="258.8" width="6" height="8" rx="1" fill="url(#windowGlow)" opacity="0.8356249854134512"/>
<rect x="174.1" y="199.3" width="50.3" height="100.7" rx="3" fill="url(#bldg_teal)" opacity="0.85"/>
<polygon points="174.1,199.3 199.2,186.7 224.3,199.3" fill="url(#roof_tealRoof)" opacity="0.85"/>
<rect x="189.2" y="209.3" width="6" height="8" rx="1" fill="url(#windowGlow)" opacity="0.957275395727379"/>
<rect x="203.2" y="209.3" width="6" height="8" rx="1" fill="url(#windowGlow)" opacity="0.8377417353157613"/>
<rect x="189.2" y="239.3" width="6" height="8" rx="1" fill="url(#windowGlow)" opacity="0.9950443137414028"/>
<rect x="203.2" y="239.3" width="6" height="8" rx="1" fill="url(#windowGlow)" opacity="0.7797826381306082"/>
<rect x="189.2" y="254.3" width="6" height="8" rx="1" fill="url(#windowGlow)" opacity="0.8533298054027043"/>
<path d="M179.1 234.5 L199.2 234.5 L196.2 240.5 L182.1 240.5 Z" fill="url(#roof_coralRoof)" opacity="0.68"/>
<rect x="407.9" y="228.1" width="48.8" height="71.9" rx="3" fill="url(#bldg_amber)" opacity="0.85"/>
<rect x="407.9" y="225.1" width="48.8" height="3" rx="1" fill="url(#roof_navyRoof)" opacity="0.85"/>
<rect x="422.3" y="238.1" width="6" height="8" rx="1" fill="url(#windowGlow)" opacity="0.7561886323411896"/>
<rect x="436.3" y="238.1" width="6" height="8" rx="1" fill="url(#windowGlow)" opacity="0.7824577976867825"/>
<rect x="422.3" y="253.1" width="6" height="8" rx="1" fill="url(#windowGlow)" opacity="0.9719712485428765"/>
<rect x="436.3" y="253.1" width="6" height="8" rx="1" fill="url(#windowGlow)" opacity="0.8811326156748145"/>
<path d="M432.3 253.3 L451.8 253.3 L448.8 259.3 L435.3 259.3 Z" fill="url(#roof_tealRoof)" opacity="0.68"/>
<rect x="696.0" y="222.4" width="49.4" height="77.6" rx="3" fill="url(#bldg_lavender)" opacity="0.85"/>
<rect x="705.8" y="213.1" width="29.6" height="9.3" rx="2" fill="url(#roof_coralRoof)" opacity="0.85"/>
<rect x="724.6" y="232.4" width="6" height="8" rx="1" fill="url(#windowGlow)" opacity="0.8486202925670054"/>
<rect x="710.6" y="247.4" width="6" height="8" rx="1" fill="url(#windowGlow)" opacity="0.7725213370157971"/>
<rect x="962.5" y="165.6" width="59.6" height="134.4" rx="3" fill="url(#bldg_blue)" opacity="0.85"/>
<rect x="974.4" y="149.5" width="35.8" height="16.1" rx="2" fill="url(#roof_tealRoof)" opacity="0.85"/>
<rect x="975.3" y="175.6" width="6" height="8" rx="1" fill="url(#windowGlow)" opacity="0.8138129220874109"/>
<rect x="989.3" y="175.6" width="6" height="8" rx="1" fill="url(#windowGlow)" opacity="0.8292742703711959"/>
<rect x="1003.3" y="175.6" width="6" height="8" rx="1" fill="url(#windowGlow)" opacity="0.9162858799175759"/>
<rect x="975.3" y="190.6" width="6" height="8" rx="1" fill="url(#windowGlow)" opacity="0.9630597341168019"/>
<rect x="989.3" y="190.6" width="6" height="8" rx="1" fill="url(#windowGlow)" opacity="0.9366800679064728"/>
<rect x="975.3" y="205.6" width="6" height="8" rx="1" fill="url(#windowGlow)" opacity="0.8520974024441547"/>
<rect x="989.3" y="205.6" width="6" height="8" rx="1" fill="url(#windowGlow)" opacity="0.9409841476664804"/>
<rect x="1003.3" y="205.6" width="6" height="8" rx="1" fill="url(#windowGlow)" opacity="0.9395310377420536"/>
<rect x="975.3" y="220.6" width="6" height="8" rx="1" fill="url(#windowGlow)" opacity="0.7352031144943102"/>
<rect x="1003.3" y="220.6" width="6" height="8" rx="1" fill="url(#windowGlow)" opacity="0.969649637522944"/>
<rect x="989.3" y="235.6" width="6" height="8" rx="1" fill="url(#windowGlow)" opacity="0.8671131120375883"/>
<rect x="1003.3" y="235.6" width="6" height="8" rx="1" fill="url(#windowGlow)" opacity="0.9949398414208273"/>
<rect x="975.3" y="250.6" width="6" height="8" rx="1" fill="url(#windowGlow)" opacity="0.728694332264687"/>
<rect x="989.3" y="250.6" width="6" height="8" rx="1" fill="url(#windowGlow)" opacity="0.9174609086091914"/>
<rect x="1003.3" y="250.6" width="6" height="8" rx="1" fill="url(#windowGlow)" opacity="0.9436057446261894"/>
<path d="M968.5 212.7 L992.3 212.7 L989.3 218.7 L971.5 218.7 Z" fill="url(#roof_coralRoof)" opacity="0.68"/>
<rect x="183.4" y="135.3" width="48.0" height="164.7" rx="3" fill="url(#bldg_mint)" opacity="1"/>
<polygon points="183.4,135.3 207.4,122.8 231.4,135.3" fill="url(#roof_navyRoof)" opacity="1"/>
<rect x="197.4" y="145.3" width="6" height="8" rx="1" fill="url(#windowGlow)" opacity="0.9008655013986236"/>
<rect x="211.4" y="145.3" width="6" height="8" rx="1" fill="url(#windowGlow)" opacity="0.8552405485209266"/>
<rect x="197.4" y="160.3" width="6" height="8" rx="1" fill="url(#windowGlow)" opacity="0.8303139187536732"/>
<rect x="211.4" y="160.3" width="6" height="8" rx="1" fill="url(#windowGlow)" opacity="0.829762688199879"/>
<rect x="197.4" y="175.3" width="6" height="8" rx="1" fill="url(#windowGlow)" opacity="0.8056340558480629"/>
<rect x="211.4" y="175.3" width="6" height="8" rx="1" fill="url(#windowGlow)" opacity="0.8226607580774746"/>
<rect x="197.4" y="190.3" width="6" height="8" rx="1" fill="url(#windowGlow)" opacity="0.8842067320291915"/>
<rect x="197.4" y="205.3" width="6" height="8" rx="1" fill="url(#windowGlow)" opacity="0.9238673202804603"/>
<rect x="211.4" y="205.3" width="6" height="8" rx="1" fill="url(#windowGlow)" opacity="0.7473283732530327"/>
<rect x="211.4" y="220.3" width="6" height="8" rx="1" fill="url(#windowGlow)" opacity="0.709227186399152"/>
<rect x="197.4" y="235.3" width="6" height="8" rx="1" fill="url(#windowGlow)" opacity="0.7489639690839517"/>
<rect x="211.4" y="235.3" width="6" height="8" rx="1" fill="url(#windowGlow)" opacity="0.8499219244578489"/>
<rect x="197.4" y="250.3" width="6" height="8" rx="1" fill="url(#windowGlow)" opacity="0.9240196866560818"/>
<rect x="202.4" y="284.0" width="10" height="16" rx="2" fill="url(#roof_navyRoof)" opacity="0.8"/>
<rect x="204.4" y="287.0" width="6" height="10" rx="1" fill="url(#windowGlow)" opacity="0.45"/>
<path d="M188.2 192.9 L207.4 192.9 L204.4 198.9 L191.2 198.9 Z" fill="url(#roof_tealRoof)" opacity="0.8"/>
<rect x="199.0" y="161.3" width="16.8" height="5" rx="1" fill="#15803d" opacity="0.7"/>
<circle cx="202.0" cy="160.3" r="2.5" fill="#fb923c" opacity="0.85"/>
<circle cx="207.6" cy="160.3" r="2.5" fill="#fb923c" opacity="0.85"/>
<circle cx="213.2" cy="160.3" r="2.5" fill="#f87171" opacity="0.85"/>
<rect x="433.6" y="155.4" width="43.6" height="144.6" rx="3" fill="url(#bldg_rose)" opacity="1"/>
<polygon points="433.6,155.4 455.4,141.8 477.2,155.4" fill="url(#roof_coralRoof)" opacity="1"/>
<rect x="452.4" y="165.4" width="6" height="8" rx="1" fill="url(#windowGlow)" opacity="0.7836706115788177"/>
<rect x="452.4" y="180.4" width="6" height="8" rx="1" fill="url(#windowGlow)" opacity="0.8218912867931142"/>
<rect x="452.4" y="210.4" width="6" height="8" rx="1" fill="url(#windowGlow)" opacity="0.879453695742159"/>
<rect x="452.4" y="225.4" width="6" height="8" rx="1" fill="url(#windowGlow)" opacity="0.846018534594224"/>
<rect x="452.4" y="255.4" width="6" height="8" rx="1" fill="url(#windowGlow)" opacity="0.7217261859782628"/>
<rect x="450.4" y="284.0" width="10" height="16" rx="2" fill="url(#roof_navyRoof)" opacity="0.8"/>
<rect x="452.4" y="287.0" width="6" height="10" rx="1" fill="url(#windowGlow)" opacity="0.45"/>
<rect x="696.4" y="126.9" width="62.3" height="173.1" rx="3" fill="url(#bldg_sky)" opacity="1"/>
<polygon points="696.4,126.9 727.6,114.1 758.7,126.9" fill="url(#roof_tealRoof)" opacity="1"/>
<rect x="710.6" y="136.9" width="6" height="8" rx="1" fill="url(#windowGlow)" opacity="0.7724659896327489"/>
<rect x="724.6" y="136.9" width="6" height="8" rx="1" fill="url(#windowGlow)" opacity="0.9577573529247927"/>
<rect x="738.6" y="136.9" width="6" height="8" rx="1" fill="url(#windowGlow)" opacity="0.8608734098546549"/>
<rect x="724.6" y="151.9" width="6" height="8" rx="1" fill="url(#windowGlow)" opacity="0.874938838637871"/>
<rect x="710.6" y="166.9" width="6" height="8" rx="1" fill="url(#windowGlow)" opacity="0.8156091006545392"/>
<rect x="724.6" y="166.9" width="6" height="8" rx="1" fill="url(#windowGlow)" opacity="0.7834719397981986"/>
<rect x="738.6" y="166.9" width="6" height="8" rx="1" fill="url(#windowGlow)" opacity="0.7149596996209396"/>
<rect x="738.6" y="181.9" width="6" height="8" rx="1" fill="url(#windowGlow)" opacity="0.7958837700988556"/>
<rect x="710.6" y="196.9" width="6" height="8" rx="1" fill="url(#windowGlow)" opacity="0.9814451089042449"/>
<rect x="724.6" y="196.9" width="6" height="8" rx="1" fill="url(#windowGlow)" opacity="0.8656034399129466"/>
<rect x="738.6" y="196.9" width="6" height="8" rx="1" fill="url(#windowGlow)" opacity="0.8709702800358506"/>
<rect x="710.6" y="211.9" width="6" height="8" rx="1" fill="url(#windowGlow)" opacity="0.9934586043439146"/>
<rect x="738.6" y="211.9" width="6" height="8" rx="1" fill="url(#windowGlow)" opacity="0.7189641852951442"/>
<rect x="710.6" y="226.9" width="6" height="8" rx="1" fill="url(#windowGlow)" opacity="0.9346945562561483"/>
<rect x="724.6" y="226.9" width="6" height="8" rx="1" fill="url(#windowGlow)" opacity="0.7703783798359234"/>
<rect x="710.6" y="241.9" width="6" height="8" rx="1" fill="url(#windowGlow)" opacity="0.7694745314165365"/>
<rect x="738.6" y="241.9" width="6" height="8" rx="1" fill="url(#windowGlow)" opacity="0.8670764838192037"/>
<rect x="722.6" y="284.0" width="10" height="16" rx="2" fill="url(#roof_navyRoof)" opacity="0.8"/>
<rect x="724.6" y="287.0" width="6" height="10" rx="1" fill="url(#windowGlow)" opacity="0.45"/>
<rect x="716.7" y="152.9" width="21.8" height="5" rx="1" fill="#15803d" opacity="0.7"/>
<circle cx="719.7" cy="151.9" r="2.5" fill="#f87171" opacity="0.85"/>
<circle cx="726.9" cy="151.9" r="2.5" fill="#fbbf24" opacity="0.85"/>
<circle cx="734.2" cy="151.9" r="2.5" fill="#a78bfa" opacity="0.85"/>
<rect x="966.7" y="208.0" width="45.0" height="92.0" rx="3" fill="url(#bldg_coral)" opacity="1"/>
<rect x="966.7" y="205.0" width="45.0" height="3" rx="1" fill="url(#roof_navyRoof)" opacity="1"/>
<rect x="979.2" y="218.0" width="6" height="8" rx="1" fill="url(#windowGlow)" opacity="0.8548823400656145"/>
<rect x="993.2" y="218.0" width="6" height="8" rx="1" fill="url(#windowGlow)" opacity="0.7681144354716476"/>
<rect x="979.2" y="233.0" width="6" height="8" rx="1" fill="url(#windowGlow)" opacity="0.987714973645152"/>
<rect x="979.2" y="248.0" width="6" height="8" rx="1" fill="url(#windowGlow)" opacity="0.9528463152483321"/>
<rect x="984.2" y="284.0" width="10" height="16" rx="2" fill="url(#roof_navyRoof)" opacity="0.8"/>
<rect x="986.2" y="287.0" width="6" height="10" rx="1" fill="url(#windowGlow)" opacity="0.45"/>
<rect x="981.3" y="234.0" width="15.7" height="5" rx="1" fill="#15803d" opacity="0.7"/>
<circle cx="984.3" cy="233.0" r="2.5" fill="#fb923c" opacity="0.85"/>
<circle cx="989.6" cy="233.0" r="2.5" fill="#a78bfa" opacity="0.85"/>
<circle cx="994.8" cy="233.0" r="2.5" fill="#fb923c" opacity="0.85"/>
<rect x="329.5" y="265.3" width="6" height="19.7" rx="2" fill="#15803d"/>
<circle cx="332.5" cy="254.2" r="15.1" fill="#22c55e" opacity="0.9"/>
<circle cx="325.1" cy="257.2" r="11.3" fill="#16a34a" opacity="0.8"/>
<circle cx="340.2" cy="258.2" r="10.6" fill="#15803d" opacity="0.7"/>
<rect x="583.8" y="264.2" width="6" height="20.8" rx="2" fill="#15803d"/>
<circle cx="586.8" cy="251.2" r="17.0" fill="#22c55e" opacity="0.9"/>
<circle cx="580.4" cy="254.2" r="12.7" fill="#16a34a" opacity="0.8"/>
<circle cx="592.3" cy="255.2" r="11.9" fill="#15803d" opacity="0.7"/>
<rect x="859.7" y="267.4" width="6" height="17.6" rx="2" fill="#15803d"/>
<circle cx="862.7" cy="255.8" r="15.7" fill="#22c55e" opacity="0.9"/>
<circle cx="854.8" cy="258.8" r="11.7" fill="#16a34a" opacity="0.8"/>
<circle cx="869.9" cy="259.8" r="11.0" fill="#15803d" opacity="0.7"/>
<rect x="152.2" y="268.7" width="6" height="16.3" rx="2" fill="#15803d"/>
<circle cx="155.2" cy="255.3" r="17.4" fill="#22c55e" opacity="0.9"/>
<circle cx="148.3" cy="258.3" r="13.1" fill="#16a34a" opacity="0.8"/>
<circle cx="160.8" cy="259.3" r="12.2" fill="#15803d" opacity="0.7"/>
<rect x="1037.6" y="264.8" width="6" height="20.2" rx="2" fill="#15803d"/>
<circle cx="1040.6" cy="252.5" r="16.3" fill="#22c55e" opacity="0.9"/>
<circle cx="1034.3" cy="255.5" r="12.2" fill="#16a34a" opacity="0.8"/>
<circle cx="1048.3" cy="256.5" r="11.4" fill="#15803d" opacity="0.7"/>
<rect x="138.5" y="264.1" width="6" height="20.9" rx="2" fill="#15803d"/>
<circle cx="141.5" cy="254.7" r="13.3" fill="#22c55e" opacity="0.9"/>
<circle cx="132.7" cy="257.7" r="10.0" fill="#16a34a" opacity="0.8"/>
<circle cx="148.4" cy="258.7" r="9.3" fill="#15803d" opacity="0.7"/>
<rect x="872.0" y="263.2" width="6" height="21.8" rx="2" fill="#15803d"/>
<circle cx="875.0" cy="254.1" r="13.1" fill="#22c55e" opacity="0.9"/>
<circle cx="867.5" cy="257.1" r="9.8" fill="#16a34a" opacity="0.8"/>
<circle cx="881.8" cy="258.1" r="9.2" fill="#15803d" opacity="0.7"/>
<rect x="1061.8" y="264.2" width="6" height="20.8" rx="2" fill="#15803d"/>
<circle cx="1064.8" cy="252.7" r="15.6" fill="#22c55e" opacity="0.9"/>
<circle cx="1056.7" cy="255.7" r="11.7" fill="#16a34a" opacity="0.8"/>
<circle cx="1071.5" cy="256.7" r="10.9" fill="#15803d" opacity="0.7"/>
<rect x="371.5" y="268.9" width="6" height="16.1" rx="2" fill="#15803d"/>
<circle cx="374.5" cy="256.3" r="16.5" fill="#22c55e" opacity="0.9"/>
<circle cx="368.1" cy="259.3" r="12.4" fill="#16a34a" opacity="0.8"/>
<circle cx="380.1" cy="260.3" r="11.6" fill="#15803d" opacity="0.7"/>
<rect x="0" y="282" width="1200" height="18" fill="url(#groundGrad)"/>
<line x1="686.2" y1="282.0" x2="686.2" y2="247.0" stroke="#92400e" stroke-width="2"/>
<circle cx="686.2" cy="247.0" r="4" fill="#fef08a" opacity="0.6"/>
<circle cx="686.2" cy="247.0" r="8" fill="#fef08a" opacity="0.15" filter="url(#softGlow)"/>
<ellipse cx="763.9" cy="282.0" rx="5.4" ry="3.8" fill="#22c55e" opacity="0.6"/>
<ellipse cx="139.5" cy="282.0" rx="6.0" ry="4.2" fill="#22c55e" opacity="0.6"/>
<ellipse cx="566.5" cy="282.0" rx="5.4" ry="3.8" fill="#22c55e" opacity="0.6"/>
</svg>