<svg xmlns="http://www.w3.org/2000/svg" viewBox="0 0 1200 300" width="1200" height="300">
<defs><linearGradient id="skyGrad" x1="0" y1="0" x2="0" y2="1"><stop offset="0%" stop-color="#e6ecf2"/><stop offset="100%" stop-color="#f0eeec"/></linearGradient></defs><rect width="1200" height="300" fill="url(#skyGrad)"/>
<path d="M0 300 L0 201.9 C251.0 185.6, 1013.0 189.3, 1200 201.9 L1200 300 Z" fill="#aac2c9" opacity="0.25"/>
<rect x="176.1" y="203.1" width="78.3" height="96.9" fill="#8aabb4"/>
<rect x="572.0" y="186.6" width="73.1" height="113.4" fill="#8aabb4"/>
<rect x="955.5" y="202.7" width="70.7" height="97.3" fill="#8aabb4"/>
<rect x="184.5" y="184.4" width="57.9" height="115.6" fill="#558592"/>
<rect x="203.4" y="196.4" width="6" height="8" fill="#91b0b8" opacity="0.5"/>
<rect x="217.4" y="196.4" width="6" height="8" fill="#91b0b8" opacity="0.5"/>
<rect x="203.4" y="212.4" width="6" height="8" fill="#91b0b8" opacity="0.5"/>
<rect x="203.4" y="228.4" width="6" height="8" fill="#91b0b8" opacity="0.5"/>
<rect x="217.4" y="228.4" width="6" height="8" fill="#91b0b8" opacity="0.5"/>
<rect x="203.4" y="244.4" width="6" height="8" fill="#91b0b8" opacity="0.5"/>
<rect x="217.4" y="244.4" width="6" height="8" fill="#91b0b8" opacity="0.5"/>
<rect x="217.4" y="260.4" width="6" height="8" fill="#91b0b8" opacity="0.5"/>
<rect x="440.1" y="200.7" width="42.9" height="99.3" fill="#558592"/>
<rect x="447.6" y="183.1" width="27.9" height="17.5" fill="#517e8b"/>
<rect x="679.9" y="204.2" width="75.7" height="95.8" fill="#558592"/>
<polygon points="679.9,204.2 717.8,185.2 755.6,204.2" fill="#4e7a86"/>
<rect x="700.8" y="216.2" width="6" height="8" fill="#91b0b8" opacity="0.5"/>
<rect x="728.8" y="216.2" width="6" height="8" fill="#91b0b8" opacity="0.5"/>
<rect x="714.8" y="232.2" width="6" height="8" fill="#91b0b8" opacity="0.5"/>
<rect x="728.8" y="232.2" width="6" height="8" fill="#91b0b8" opacity="0.5"/>
<rect x="714.8" y="248.2" width="6" height="8" fill="#91b0b8" opacity="0.5"/>
<rect x="728.8" y="248.2" width="6" height="8" fill="#91b0b8" opacity="0.5"/>
<rect x="700.8" y="264.2" width="6" height="8" fill="#91b0b8" opacity="0.5"/>
<rect x="728.8" y="264.2" width="6" height="8" fill="#91b0b8" opacity="0.5"/>
<rect x="999.3" y="206.4" width="52.9" height="93.6" fill="#558592"/>
<polygon points="999.3,206.4 1025.8,193.2 1052.2,206.4" fill="#4e7a86"/>
<rect x="1015.8" y="234.4" width="6" height="8" fill="#91b0b8" opacity="0.5"/>
<rect x="1029.8" y="234.4" width="6" height="8" fill="#91b0b8" opacity="0.5"/>
<rect x="1015.8" y="250.4" width="6" height="8" fill="#91b0b8" opacity="0.5"/>
<rect x="1015.8" y="266.4" width="6" height="8" fill="#91b0b8" opacity="0.5"/>
<rect x="1029.8" y="266.4" width="6" height="8" fill="#91b0b8" opacity="0.5"/>
<rect x="134.3" y="236.9" width="72.6" height="63.1" fill="#2b6777"/>
<rect x="153.6" y="248.9" width="6" height="8" fill="#759ca7" opacity="0.5"/>
<rect x="153.6" y="264.9" width="6" height="8" fill="#759ca7" opacity="0.5"/>
<rect x="167.6" y="264.9" width="6" height="8" fill="#759ca7" opacity="0.5"/>
<rect x="181.6" y="264.9" width="6" height="8" fill="#759ca7" opacity="0.5"/>
<rect x="457.8" y="142.4" width="68.2" height="157.6" fill="#2b6777"/>
<rect x="474.9" y="154.4" width="6" height="8" fill="#759ca7" opacity="0.5"/>
<rect x="502.9" y="154.4" width="6" height="8" fill="#759ca7" opacity="0.5"/>
<rect x="488.9" y="170.4" width="6" height="8" fill="#759ca7" opacity="0.5"/>
<rect x="502.9" y="170.4" width="6" height="8" fill="#759ca7" opacity="0.5"/>
<rect x="474.9" y="186.4" width="6" height="8" fill="#759ca7" opacity="0.5"/>
<rect x="488.9" y="186.4" width="6" height="8" fill="#759ca7" opacity="0.5"/>
<rect x="488.9" y="202.4" width="6" height="8" fill="#759ca7" opacity="0.5"/>
<rect x="502.9" y="202.4" width="6" height="8" fill="#759ca7" opacity="0.5"/>
<rect x="474.9" y="218.4" width="6" height="8" fill="#759ca7" opacity="0.5"/>
<rect x="488.9" y="218.4" width="6" height="8" fill="#759ca7" opacity="0.5"/>
<rect x="502.9" y="218.4" width="6" height="8" fill="#759ca7" opacity="0.5"/>
<rect x="474.9" y="234.4" width="6" height="8" fill="#759ca7" opacity="0.5"/>
<rect x="488.9" y="234.4" width="6" height="8" fill="#759ca7" opacity="0.5"/>
<rect x="502.9" y="234.4" width="6" height="8" fill="#759ca7" opacity="0.5"/>
<rect x="686.6" y="118.3" width="73.9" height="181.7" fill="#2b6777"/>
<rect x="706.6" y="130.3" width="6" height="8" fill="#759ca7" opacity="0.5"/>
<rect x="720.6" y="130.3" width="6" height="8" fill="#759ca7" opacity="0.5"/>
<rect x="734.6" y="130.3" width="6" height="8" fill="#759ca7" opacity="0.5"/>
<rect x="706.6" y="146.3" width="6" height="8" fill="#759ca7" opacity="0.5"/>
<rect x="734.6" y="146.3" width="6" height="8" fill="#759ca7" opacity="0.5"/>
<rect x="706.6" y="162.3" width="6" height="8" fill="#759ca7" opacity="0.5"/>
<rect x="720.6" y="162.3" width="6" height="8" fill="#759ca7" opacity="0.5"/>
<rect x="734.6" y="162.3" width="6" height="8" fill="#759ca7" opacity="0.5"/>
<rect x="706.6" y="178.3" width="6" height="8" fill="#759ca7" opacity="0.5"/>
<rect x="720.6" y="178.3" width="6" height="8" fill="#759ca7" opacity="0.5"/>
<rect x="734.6" y="178.3" width="6" height="8" fill="#759ca7" opacity="0.5"/>
<rect x="706.6" y="194.3" width="6" height="8" fill="#759ca7" opacity="0.5"/>
<rect x="720.6" y="194.3" width="6" height="8" fill="#759ca7" opacity="0.5"/>
<rect x="706.6" y="210.3" width="6" height="8" fill="#759ca7" opacity="0.5"/>
<rect x="720.6" y="210.3" width="6" height="8" fill="#759ca7" opacity="0.5"/>
<rect x="734.6" y="210.3" width="6" height="8" fill="#759ca7" opacity="0.5"/>
<rect x="1012.6" y="120.1" width="66.5" height="179.9" fill="#2b6777"/>
<polygon points="1012.6,120.1 1045.8,103.4 1079.1,120.1" fill="#285f6d"/>
<rect x="1042.8" y="132.1" width="6" height="8" fill="#759ca7" opacity="0.5"/>
<rect x="1056.8" y="132.1" width="6" height="8" fill="#759ca7" opacity="0.5"/>
<rect x="1028.8" y="148.1" width="6" height="8" fill="#759ca7" opacity="0.5"/>
<rect x="1042.8" y="148.1" width="6" height="8" fill="#759ca7" opacity="0.5"/>
<rect x="1056.8" y="148.1" width="6" height="8" fill="#759ca7" opacity="0.5"/>
<rect x="1028.8" y="164.1" width="6" height="8" fill="#759ca7" opacity="0.5"/>
<rect x="1042.8" y="164.1" width="6" height="8" fill="#759ca7" opacity="0.5"/>
<rect x="1056.8" y="164.1" width="6" height="8" fill="#759ca7" opacity="0.5"/>
<rect x="1042.8" y="180.1" width="6" height="8" fill="#759ca7" opacity="0.5"/>
<rect x="1028.8" y="196.1" width="6" height="8" fill="#759ca7" opacity="0.5"/>
<rect x="1042.8" y="196.1" width="6" height="8" fill="#759ca7" opacity="0.5"/>
<rect x="1042.8" y="212.1" width="6" height="8" fill="#759ca7" opacity="0.5"/>
<line x1="332.3" y1="285.0" x2="332.3" y2="273.9" stroke="#6b5a42" stroke-width="3"/>
<circle cx="332.3" cy="260.8" r="13.1" fill="#598a49"/>
<line x1="606.3" y1="285.0" x2="606.3" y2="270.7" stroke="#6b5a42" stroke-width="3"/>
<circle cx="606.3" cy="255.6" r="15.1" fill="#598b49"/>
<line x1="886.6" y1="285.0" x2="886.6" y2="274.2" stroke="#6b5a42" stroke-width="3"/>
<circle cx="886.6" cy="260.3" r="13.9" fill="#517f43"/>
<line x1="836.4" y1="285.0" x2="836.4" y2="269.2" stroke="#6b5a42" stroke-width="3"/>
<circle cx="836.4" cy="257.2" r="12.0" fill="#538144"/>
<line x1="70.8" y1="285.0" x2="70.8" y2="271.3" stroke="#6b5a42" stroke-width="3"/>
<circle cx="70.8" cy="254.6" r="16.7" fill="#517e43"/>
<line x1="321.6" y1="285.0" x2="321.6" y2="272.8" stroke="#6b5a42" stroke-width="3"/>
<circle cx="321.6" cy="256.5" r="16.3" fill="#5a8c4a"/>
<line x1="756.9" y1="285.0" x2="756.9" y2="272.8" stroke="#6b5a42" stroke-width="3"/>
<circle cx="756.9" cy="257.2" r="15.6" fill="#578747"/>
<line x1="311.3" y1="285.0" x2="311.3" y2="269.8" stroke="#6b5a42" stroke-width="3"/>
<circle cx="311.3" cy="256.5" r="13.2" fill="#538144"/>
<rect x="0" y="285" width="1200" height="15" fill="#9aaa85" opacity="0.4"/>
</svg>