<svg xmlns="http://www.w3.org/2000/svg" viewBox="0 0 1200 300" width="1200" height="300">
<defs><linearGradient id="skyGrad" x1="0" y1="0" x2="0" y2="1"><stop offset="0%" stop-color="#e8f0f8"/><stop offset="100%" stop-color="#f5e6d8"/></linearGradient></defs><rect width="1200" height="300" fill="url(#skyGrad)"/>
<rect x="108.2" y="213.3" width="78.3" height="86.7" fill="#aeb0a5"/>
<rect x="121.9" y="198.0" width="50.9" height="15.3" fill="#a5a79d"/>
<rect x="421.7" y="202.8" width="74.8" height="97.2" fill="#aeb0a5"/>
<rect x="708.9" y="212.9" width="79.5" height="87.1" fill="#aeb0a5"/>
<rect x="950.5" y="191.6" width="80.7" height="108.4" fill="#aeb0a5"/>
<rect x="113.4" y="209.7" width="65.6" height="90.3" fill="#898d7d"/>
<polygon points="113.4,209.7 146.1,193.3 178.9,209.7" fill="#7e8273"/>
<rect x="129.1" y="221.7" width="6" height="8" fill="#b2b5ab" opacity="0.5"/>
<rect x="143.1" y="221.7" width="6" height="8" fill="#b2b5ab" opacity="0.5"/>
<rect x="129.1" y="237.7" width="6" height="8" fill="#b2b5ab" opacity="0.5"/>
<rect x="143.1" y="237.7" width="6" height="8" fill="#b2b5ab" opacity="0.5"/>
<rect x="157.1" y="237.7" width="6" height="8" fill="#b2b5ab" opacity="0.5"/>
<rect x="129.1" y="253.7" width="6" height="8" fill="#b2b5ab" opacity="0.5"/>
<rect x="143.1" y="253.7" width="6" height="8" fill="#b2b5ab" opacity="0.5"/>
<rect x="157.1" y="253.7" width="6" height="8" fill="#b2b5ab" opacity="0.5"/>
<rect x="143.1" y="269.7" width="6" height="8" fill="#b2b5ab" opacity="0.5"/>
<rect x="408.1" y="140.5" width="64.6" height="159.5" fill="#898d7d"/>
<rect x="423.4" y="152.5" width="6" height="8" fill="#b2b5ab" opacity="0.5"/>
<rect x="437.4" y="152.5" width="6" height="8" fill="#b2b5ab" opacity="0.5"/>
<rect x="437.4" y="168.5" width="6" height="8" fill="#b2b5ab" opacity="0.5"/>
<rect x="451.4" y="168.5" width="6" height="8" fill="#b2b5ab" opacity="0.5"/>
<rect x="423.4" y="184.5" width="6" height="8" fill="#b2b5ab" opacity="0.5"/>
<rect x="437.4" y="184.5" width="6" height="8" fill="#b2b5ab" opacity="0.5"/>
<rect x="451.4" y="184.5" width="6" height="8" fill="#b2b5ab" opacity="0.5"/>
<rect x="423.4" y="200.5" width="6" height="8" fill="#b2b5ab" opacity="0.5"/>
<rect x="437.4" y="200.5" width="6" height="8" fill="#b2b5ab" opacity="0.5"/>
<rect x="451.4" y="200.5" width="6" height="8" fill="#b2b5ab" opacity="0.5"/>
<rect x="423.4" y="216.5" width="6" height="8" fill="#b2b5ab" opacity="0.5"/>
<rect x="437.4" y="216.5" width="6" height="8" fill="#b2b5ab" opacity="0.5"/>
<rect x="451.4" y="216.5" width="6" height="8" fill="#b2b5ab" opacity="0.5"/>
<rect x="437.4" y="232.5" width="6" height="8" fill="#b2b5ab" opacity="0.5"/>
<rect x="451.4" y="232.5" width="6" height="8" fill="#b2b5ab" opacity="0.5"/>
<rect x="668.9" y="173.0" width="77.8" height="127.0" fill="#898d7d"/>
<polygon points="668.9,173.0 707.8,153.6 746.7,173.0" fill="#7e8273"/>
<rect x="704.8" y="185.0" width="6" height="8" fill="#b2b5ab" opacity="0.5"/>
<rect x="690.8" y="217.0" width="6" height="8" fill="#b2b5ab" opacity="0.5"/>
<rect x="704.8" y="217.0" width="6" height="8" fill="#b2b5ab" opacity="0.5"/>
<rect x="718.8" y="217.0" width="6" height="8" fill="#b2b5ab" opacity="0.5"/>
<rect x="690.8" y="233.0" width="6" height="8" fill="#b2b5ab" opacity="0.5"/>
<rect x="704.8" y="233.0" width="6" height="8" fill="#b2b5ab" opacity="0.5"/>
<rect x="718.8" y="233.0" width="6" height="8" fill="#b2b5ab" opacity="0.5"/>
<rect x="704.8" y="249.0" width="6" height="8" fill="#b2b5ab" opacity="0.5"/>
<rect x="718.8" y="249.0" width="6" height="8" fill="#b2b5ab" opacity="0.5"/>
<rect x="690.8" y="265.0" width="6" height="8" fill="#b2b5ab" opacity="0.5"/>
<rect x="704.8" y="265.0" width="6" height="8" fill="#b2b5ab" opacity="0.5"/>
<rect x="718.8" y="265.0" width="6" height="8" fill="#b2b5ab" opacity="0.5"/>
<rect x="1021.8" y="147.6" width="68.7" height="152.4" fill="#898d7d"/>
<rect x="1039.2" y="159.6" width="6" height="8" fill="#b2b5ab" opacity="0.5"/>
<rect x="1053.2" y="159.6" width="6" height="8" fill="#b2b5ab" opacity="0.5"/>
<rect x="1039.2" y="175.6" width="6" height="8" fill="#b2b5ab" opacity="0.5"/>
<rect x="1053.2" y="175.6" width="6" height="8" fill="#b2b5ab" opacity="0.5"/>
<rect x="1067.2" y="175.6" width="6" height="8" fill="#b2b5ab" opacity="0.5"/>
<rect x="1053.2" y="191.6" width="6" height="8" fill="#b2b5ab" opacity="0.5"/>
<rect x="1067.2" y="191.6" width="6" height="8" fill="#b2b5ab" opacity="0.5"/>
<rect x="1039.2" y="207.6" width="6" height="8" fill="#b2b5ab" opacity="0.5"/>
<rect x="1053.2" y="207.6" width="6" height="8" fill="#b2b5ab" opacity="0.5"/>
<rect x="1039.2" y="223.6" width="6" height="8" fill="#b2b5ab" opacity="0.5"/>
<rect x="1053.2" y="223.6" width="6" height="8" fill="#b2b5ab" opacity="0.5"/>
<rect x="1067.2" y="223.6" width="6" height="8" fill="#b2b5ab" opacity="0.5"/>
<rect x="1039.2" y="239.6" width="6" height="8" fill="#b2b5ab" opacity="0.5"/>
<rect x="140.2" y="205.6" width="41.6" height="94.4" fill="#6b705c"/>
<polygon points="140.2,205.6 161.0,195.2 181.8,205.6" fill="#626755"/>
<rect x="158.0" y="233.6" width="6" height="8" fill="#9fa295" opacity="0.5"/>
<rect x="158.0" y="249.6" width="6" height="8" fill="#9fa295" opacity="0.5"/>
<rect x="158.0" y="265.6" width="6" height="8" fill="#9fa295" opacity="0.5"/>
<rect x="445.9" y="200.6" width="72.3" height="99.4" fill="#6b705c"/>
<polygon points="445.9,200.6 482.1,182.5 518.3,200.6" fill="#626755"/>
<rect x="465.1" y="212.6" width="6" height="8" fill="#9fa295" opacity="0.5"/>
<rect x="479.1" y="228.6" width="6" height="8" fill="#9fa295" opacity="0.5"/>
<rect x="465.1" y="244.6" width="6" height="8" fill="#9fa295" opacity="0.5"/>
<rect x="479.1" y="244.6" width="6" height="8" fill="#9fa295" opacity="0.5"/>
<rect x="493.1" y="244.6" width="6" height="8" fill="#9fa295" opacity="0.5"/>
<rect x="479.1" y="260.6" width="6" height="8" fill="#9fa295" opacity="0.5"/>
<rect x="493.1" y="260.6" width="6" height="8" fill="#9fa295" opacity="0.5"/>
<rect x="733.8" y="178.3" width="70.0" height="121.7" fill="#6b705c"/>
<polygon points="733.8,178.3 768.8,160.8 803.8,178.3" fill="#626755"/>
<rect x="751.8" y="190.3" width="6" height="8" fill="#9fa295" opacity="0.5"/>
<rect x="765.8" y="190.3" width="6" height="8" fill="#9fa295" opacity="0.5"/>
<rect x="779.8" y="190.3" width="6" height="8" fill="#9fa295" opacity="0.5"/>
<rect x="765.8" y="206.3" width="6" height="8" fill="#9fa295" opacity="0.5"/>
<rect x="779.8" y="206.3" width="6" height="8" fill="#9fa295" opacity="0.5"/>
<rect x="751.8" y="238.3" width="6" height="8" fill="#9fa295" opacity="0.5"/>
<rect x="765.8" y="238.3" width="6" height="8" fill="#9fa295" opacity="0.5"/>
<rect x="779.8" y="238.3" width="6" height="8" fill="#9fa295" opacity="0.5"/>
<rect x="765.8" y="254.3" width="6" height="8" fill="#9fa295" opacity="0.5"/>
<rect x="779.8" y="254.3" width="6" height="8" fill="#9fa295" opacity="0.5"/>
<rect x="765.8" y="270.3" width="6" height="8" fill="#9fa295" opacity="0.5"/>
<rect x="1019.6" y="154.9" width="43.0" height="145.1" fill="#6b705c"/>
<polygon points="1019.6,154.9 1041.1,144.2 1062.6,154.9" fill="#626755"/>
<rect x="1038.1" y="214.9" width="6" height="8" fill="#9fa295" opacity="0.5"/>
<rect x="1038.1" y="230.9" width="6" height="8" fill="#9fa295" opacity="0.5"/>
<rect x="1038.1" y="246.9" width="6" height="8" fill="#9fa295" opacity="0.5"/>
<line x1="313.9" y1="285.0" x2="313.9" y2="269.1" stroke="#6b5a42" stroke-width="3"/>
<circle cx="313.9" cy="255.8" r="13.3" fill="#548345"/>
<line x1="626.0" y1="285.0" x2="626.0" y2="272.9" stroke="#6b5a42" stroke-width="3"/>
<circle cx="626.0" cy="256.1" r="16.8" fill="#517e43"/>
<line x1="911.7" y1="285.0" x2="911.7" y2="271.6" stroke="#6b5a42" stroke-width="3"/>
<circle cx="911.7" cy="254.5" r="17.2" fill="#578848"/>
<line x1="293.2" y1="285.0" x2="293.2" y2="274.1" stroke="#6b5a42" stroke-width="3"/>
<circle cx="293.2" cy="258.9" r="15.2" fill="#578848"/>
<line x1="208.2" y1="285.0" x2="208.2" y2="272.4" stroke="#6b5a42" stroke-width="3"/>
<circle cx="208.2" cy="254.6" r="17.9" fill="#517d42"/>
<line x1="421.3" y1="285.0" x2="421.3" y2="273.3" stroke="#6b5a42" stroke-width="3"/>
<circle cx="421.3" cy="260.1" r="13.2" fill="#517e43"/>
<line x1="582.6" y1="285.0" x2="582.6" y2="272.7" stroke="#6b5a42" stroke-width="3"/>
<circle cx="582.6" cy="259.0" r="13.7" fill="#598a49"/>
<rect x="0" y="285" width="1200" height="15" fill="#d4c5a9" opacity="0.4"/>
<circle cx="1041.0" cy="45.3" r="32.2" fill="#f5e6a0" opacity="0.1"/>
</svg>