<svg xmlns="http://www.w3.org/2000/svg" viewBox="0 0 1200 300" width="1200" height="300">
<defs>
<linearGradient id="skyGrad" x1="0" y1="0" x2="0" y2="1">
<stop offset="0%" stop-color="#818cf8"/>
<stop offset="20%" stop-color="#c4b5fd"/>
<stop offset="38%" stop-color="#fda4af"/>
<stop offset="55%" stop-color="#fdba74"/>
<stop offset="75%" stop-color="#fef08a"/>
<stop offset="100%" stop-color="#fef9c3"/>
</linearGradient>
<linearGradient id="bldg_coral" x1="0" y1="0" x2="0" y2="1"><stop offset="0%" stop-color="#fecaca"/><stop offset="100%" stop-color="#fca5a5"/></linearGradient>
<linearGradient id="bldg_teal" x1="0" y1="0" x2="0" y2="1"><stop offset="0%" stop-color="#99f6e4"/><stop offset="100%" stop-color="#5eead4"/></linearGradient>
<linearGradient id="bldg_amber" x1="0" y1="0" x2="0" y2="1"><stop offset="0%" stop-color="#fde68a"/><stop offset="100%" stop-color="#fcd34d"/></linearGradient>
<linearGradient id="bldg_lavender" x1="0" y1="0" x2="0" y2="1"><stop offset="0%" stop-color="#ddd6fe"/><stop offset="100%" stop-color="#c4b5fd"/></linearGradient>
<linearGradient id="bldg_blue" x1="0" y1="0" x2="0" y2="1"><stop offset="0%" stop-color="#bfdbfe"/><stop offset="100%" stop-color="#93c5fd"/></linearGradient>
<linearGradient id="bldg_mint" x1="0" y1="0" x2="0" y2="1"><stop offset="0%" stop-color="#a7f3d0"/><stop offset="100%" stop-color="#6ee7b7"/></linearGradient>
<linearGradient id="bldg_rose" x1="0" y1="0" x2="0" y2="1"><stop offset="0%" stop-color="#fecdd3"/><stop offset="100%" stop-color="#fda4af"/></linearGradient>
<linearGradient id="bldg_sky" x1="0" y1="0" x2="0" y2="1"><stop offset="0%" stop-color="#bae6fd"/><stop offset="100%" stop-color="#7dd3fc"/></linearGradient>
<linearGradient id="roof_navyRoof" x1="0" y1="0" x2="0" y2="1"><stop offset="0%" stop-color="#4338ca"/><stop offset="100%" stop-color="#3730a3"/></linearGradient>
<linearGradient id="roof_coralRoof" x1="0" y1="0" x2="0" y2="1"><stop offset="0%" stop-color="#f87171"/><stop offset="100%" stop-color="#ef4444"/></linearGradient>
<linearGradient id="roof_tealRoof" x1="0" y1="0" x2="0" y2="1"><stop offset="0%" stop-color="#2dd4bf"/><stop offset="100%" stop-color="#14b8a6"/></linearGradient>
<radialGradient id="windowGlow" cx="50%" cy="50%" r="50%"><stop offset="0%" stop-color="#fef08a"/><stop offset="60%" stop-color="#fbbf24"/><stop offset="100%" stop-color="#f59e0b"/></radialGradient>
<linearGradient id="hillFar" x1="0" y1="0" x2="0" y2="1"><stop offset="0%" stop-color="#c4b5fd"/><stop offset="100%" stop-color="#a5b4fc"/></linearGradient>
<linearGradient id="hillMid" x1="0" y1="0" x2="0" y2="1"><stop offset="0%" stop-color="#86efac"/><stop offset="100%" stop-color="#4ade80"/></linearGradient>
<linearGradient id="hillNear" x1="0" y1="0" x2="0" y2="1"><stop offset="0%" stop-color="#34d399"/><stop offset="100%" stop-color="#10b981"/></linearGradient>
<linearGradient id="hillDesertFar" x1="0" y1="0" x2="0" y2="1"><stop offset="0%" stop-color="#fde68a"/><stop offset="100%" stop-color="#fcd34d"/></linearGradient>
<linearGradient id="hillDesertMid" x1="0" y1="0" x2="0" y2="1"><stop offset="0%" stop-color="#fcd34d"/><stop offset="100%" stop-color="#fbbf24"/></linearGradient>
<linearGradient id="hillDesertNear" x1="0" y1="0" x2="0" y2="1"><stop offset="0%" stop-color="#fbbf24"/><stop offset="100%" stop-color="#f59e0b"/></linearGradient>
<linearGradient id="groundGrad" x1="0" y1="0" x2="0" y2="1"><stop offset="0%" stop-color="#fef3c7"/><stop offset="100%" stop-color="#fde68a"/></linearGradient>
<linearGradient id="waterGrad" x1="0" y1="0" x2="0" y2="1"><stop offset="0%" stop-color="#bfdbfe"/><stop offset="100%" stop-color="#93c5fd"/></linearGradient>
<filter id="softGlow" x="-50%" y="-50%" width="200%" height="200%"><feGaussianBlur in="SourceGraphic" stdDeviation="12"/></filter>
</defs>
<rect width="1200" height="300" fill="url(#skyGrad)"/>
<circle cx="1017.7" cy="41.3" r="45" fill="#fef08a" opacity="0.12" filter="url(#softGlow)"/>
<circle cx="1017.7" cy="41.3" r="30" fill="#fde68a" opacity="0.18" filter="url(#softGlow)"/>
<circle cx="1017.7" cy="41.3" r="16" fill="#fef9c3" opacity="0.25" filter="url(#softGlow)"/>
<ellipse cx="300.7" cy="31.5" rx="49.4" ry="17.3" fill="white" opacity="0.6"/>
<ellipse cx="269.8" cy="36.5" rx="34.6" ry="13.6" fill="white" opacity="0.5"/>
<ellipse cx="327.8" cy="35.2" rx="39.5" ry="14.8" fill="white" opacity="0.5"/>
<ellipse cx="579.6" cy="31.4" rx="35.2" ry="12.3" fill="white" opacity="0.6"/>
<ellipse cx="557.5" cy="35.0" rx="24.7" ry="9.7" fill="white" opacity="0.5"/>
<ellipse cx="598.9" cy="34.1" rx="28.2" ry="10.6" fill="white" opacity="0.5"/>
<path d="M0 300 L0.0 189.6 C159.8 189.6, 159.8 191.5, 319.6 191.5 C450.8 191.5, 450.8 181.0, 582.1 181.0 C770.9 181.0, 770.9 192.2, 959.6 192.2 C1079.8 192.2, 1079.8 188.1, 1200.0 188.1 L1200 300 Z" fill="url(#hillFar)" opacity="0.5"/>
<path d="M0 300 L0.0 206.2 C118.4 206.2, 118.4 211.0, 236.8 211.0 C410.5 211.0, 410.5 214.3, 584.3 214.3 C775.8 214.3, 775.8 207.1, 967.2 207.1 C1083.6 207.1, 1083.6 209.8, 1200.0 209.8 L1200 300 Z" fill="url(#hillMid)" opacity="0.7"/>
<path d="M0 300 L0.0 228.1 C143.7 228.1, 143.7 233.6, 287.4 233.6 C458.1 233.6, 458.1 234.2, 628.9 234.2 C762.2 234.2, 762.2 233.7, 895.6 233.7 C1047.8 233.7, 1047.8 239.6, 1200.0 239.6 L1200 300 Z" fill="url(#hillNear)" opacity="1"/>
<rect x="206.6" y="245.9" width="74.7" height="54.1" rx="3" fill="url(#bldg_amber)" opacity="0.7"/>
<rect x="221.5" y="239.4" width="44.8" height="6.5" rx="2" fill="url(#roof_tealRoof)" opacity="0.7"/>
<rect x="233.9" y="255.9" width="6" height="8" rx="1" fill="url(#windowGlow)" opacity="0.9598273658937901"/>
<rect x="247.9" y="255.9" width="6" height="8" rx="1" fill="url(#windowGlow)" opacity="0.802176415176213"/>
<rect x="261.9" y="255.9" width="6" height="8" rx="1" fill="url(#windowGlow)" opacity="0.9667593881333058"/>
<rect x="550.0" y="228.8" width="64.9" height="71.2" rx="3" fill="url(#bldg_lavender)" opacity="0.7"/>
<rect x="550.0" y="225.8" width="64.9" height="3" rx="1" fill="url(#roof_navyRoof)" opacity="0.7"/>
<rect x="565.5" y="238.8" width="6" height="8" rx="1" fill="url(#windowGlow)" opacity="0.9151832564804625"/>
<rect x="579.5" y="238.8" width="6" height="8" rx="1" fill="url(#windowGlow)" opacity="0.9761373976600065"/>
<rect x="593.5" y="238.8" width="6" height="8" rx="1" fill="url(#windowGlow)" opacity="0.9629231599452547"/>
<rect x="565.5" y="253.8" width="6" height="8" rx="1" fill="url(#windowGlow)" opacity="0.7769846148216093"/>
<rect x="593.5" y="253.8" width="6" height="8" rx="1" fill="url(#windowGlow)" opacity="0.9082699821834778"/>
<rect x="921.9" y="240.5" width="75.7" height="59.5" rx="3" fill="url(#bldg_blue)" opacity="0.7"/>
<polygon points="921.9,240.5 959.7,223.5 997.5,240.5" fill="url(#roof_coralRoof)" opacity="0.7"/>
<rect x="935.7" y="250.5" width="6" height="8" rx="1" fill="url(#windowGlow)" opacity="0.802627939638974"/>
<rect x="977.7" y="250.5" width="6" height="8" rx="1" fill="url(#windowGlow)" opacity="0.8615480837698783"/>
<rect x="205.3" y="181.2" width="67.1" height="118.8" rx="3" fill="url(#bldg_mint)" opacity="0.85"/>
<rect x="218.7" y="166.9" width="40.3" height="14.3" rx="2" fill="url(#roof_tealRoof)" opacity="0.85"/>
<rect x="221.9" y="191.2" width="6" height="8" rx="1" fill="url(#windowGlow)" opacity="0.7789976615826588"/>
<rect x="235.9" y="191.2" width="6" height="8" rx="1" fill="url(#windowGlow)" opacity="0.971255612406533"/>
<rect x="249.9" y="191.2" width="6" height="8" rx="1" fill="url(#windowGlow)" opacity="0.7227397473634871"/>
<rect x="249.9" y="206.2" width="6" height="8" rx="1" fill="url(#windowGlow)" opacity="0.9357928292061168"/>
<rect x="221.9" y="221.2" width="6" height="8" rx="1" fill="url(#windowGlow)" opacity="0.9393078889880832"/>
<rect x="235.9" y="221.2" width="6" height="8" rx="1" fill="url(#windowGlow)" opacity="0.9409882038091254"/>
<rect x="249.9" y="221.2" width="6" height="8" rx="1" fill="url(#windowGlow)" opacity="0.9898239458398073"/>
<rect x="221.9" y="236.2" width="6" height="8" rx="1" fill="url(#windowGlow)" opacity="0.8973136317903705"/>
<rect x="235.9" y="236.2" width="6" height="8" rx="1" fill="url(#windowGlow)" opacity="0.8603992275709282"/>
<rect x="249.9" y="236.2" width="6" height="8" rx="1" fill="url(#windowGlow)" opacity="0.7050769114890494"/>
<rect x="221.9" y="251.2" width="6" height="8" rx="1" fill="url(#windowGlow)" opacity="0.8773192396281841"/>
<rect x="235.9" y="251.2" width="6" height="8" rx="1" fill="url(#windowGlow)" opacity="0.7077491410112703"/>
<rect x="249.9" y="251.2" width="6" height="8" rx="1" fill="url(#windowGlow)" opacity="0.7434983629004556"/>
<rect x="600.1" y="220.7" width="60.4" height="79.3" rx="3" fill="url(#bldg_rose)" opacity="0.85"/>
<rect x="600.1" y="217.7" width="60.4" height="3" rx="1" fill="url(#roof_navyRoof)" opacity="0.85"/>
<rect x="613.3" y="230.7" width="6" height="8" rx="1" fill="url(#windowGlow)" opacity="0.8482332722974164"/>
<rect x="627.3" y="230.7" width="6" height="8" rx="1" fill="url(#windowGlow)" opacity="0.7003387216480164"/>
<rect x="641.3" y="230.7" width="6" height="8" rx="1" fill="url(#windowGlow)" opacity="0.9595735416093718"/>
<rect x="613.3" y="245.7" width="6" height="8" rx="1" fill="url(#windowGlow)" opacity="0.9506197470476011"/>
<rect x="627.3" y="245.7" width="6" height="8" rx="1" fill="url(#windowGlow)" opacity="0.8461844367655853"/>
<rect x="641.3" y="245.7" width="6" height="8" rx="1" fill="url(#windowGlow)" opacity="0.8469814062802965"/>
<rect x="613.3" y="260.7" width="6" height="8" rx="1" fill="url(#windowGlow)" opacity="0.9255768966048847"/>
<rect x="641.3" y="260.7" width="6" height="8" rx="1" fill="url(#windowGlow)" opacity="0.9340433722054787"/>
<path d="M606.2 248.4 L630.3 248.4 L627.3 254.4 L609.2 254.4 Z" fill="url(#roof_tealRoof)" opacity="0.68"/>
<rect x="965.0" y="175.9" width="55.3" height="124.1" rx="3" fill="url(#bldg_sky)" opacity="0.85"/>
<rect x="965.0" y="172.9" width="55.3" height="3" rx="1" fill="url(#roof_coralRoof)" opacity="0.85"/>
<rect x="982.7" y="185.9" width="6" height="8" rx="1" fill="url(#windowGlow)" opacity="0.9759288229401824"/>
<rect x="996.7" y="185.9" width="6" height="8" rx="1" fill="url(#windowGlow)" opacity="0.9708886395538638"/>
<rect x="982.7" y="200.9" width="6" height="8" rx="1" fill="url(#windowGlow)" opacity="0.9168489789668698"/>
<rect x="996.7" y="200.9" width="6" height="8" rx="1" fill="url(#windowGlow)" opacity="0.9934768074627391"/>
<rect x="996.7" y="215.9" width="6" height="8" rx="1" fill="url(#windowGlow)" opacity="0.7441705992185373"/>
<rect x="982.7" y="230.9" width="6" height="8" rx="1" fill="url(#windowGlow)" opacity="0.9663661030895849"/>
<rect x="996.7" y="230.9" width="6" height="8" rx="1" fill="url(#windowGlow)" opacity="0.7214285518608189"/>
<rect x="996.7" y="245.9" width="6" height="8" rx="1" fill="url(#windowGlow)" opacity="0.8961075276118272"/>
<rect x="982.7" y="260.9" width="6" height="8" rx="1" fill="url(#windowGlow)" opacity="0.7115836622247396"/>
<rect x="996.7" y="260.9" width="6" height="8" rx="1" fill="url(#windowGlow)" opacity="0.9407502440925455"/>
<rect x="213.8" y="229.7" width="42.6" height="70.3" rx="3" fill="url(#bldg_coral)" opacity="1"/>
<rect x="222.3" y="221.2" width="25.6" height="8.4" rx="2" fill="url(#roof_tealRoof)" opacity="1"/>
<rect x="232.1" y="239.7" width="6" height="8" rx="1" fill="url(#windowGlow)" opacity="0.8904757793948407"/>
<rect x="232.1" y="254.7" width="6" height="8" rx="1" fill="url(#windowGlow)" opacity="0.7210795817994883"/>
<rect x="230.1" y="284.0" width="10" height="16" rx="2" fill="url(#roof_navyRoof)" opacity="0.8"/>
<rect x="232.1" y="287.0" width="6" height="10" rx="1" fill="url(#windowGlow)" opacity="0.45"/>
<path d="M235.1 254.3 L252.1 254.3 L249.1 260.3 L238.1 260.3 Z" fill="url(#roof_coralRoof)" opacity="0.8"/>
<rect x="227.6" y="255.7" width="14.9" height="5" rx="1" fill="#15803d" opacity="0.7"/>
<circle cx="230.6" cy="254.7" r="2.5" fill="#fbbf24" opacity="0.85"/>
<circle cx="235.6" cy="254.7" r="2.5" fill="#a78bfa" opacity="0.85"/>
<circle cx="240.6" cy="254.7" r="2.5" fill="#f87171" opacity="0.85"/>
<rect x="615.0" y="202.9" width="54.4" height="97.1" rx="3" fill="url(#bldg_teal)" opacity="1"/>
<polygon points="615.0,202.9 642.2,188.8 669.4,202.9" fill="url(#roof_navyRoof)" opacity="1"/>
<rect x="632.2" y="212.9" width="6" height="8" rx="1" fill="url(#windowGlow)" opacity="0.8828509301332994"/>
<rect x="646.2" y="212.9" width="6" height="8" rx="1" fill="url(#windowGlow)" opacity="0.8449746689968625"/>
<rect x="632.2" y="227.9" width="6" height="8" rx="1" fill="url(#windowGlow)" opacity="0.8744209980938681"/>
<rect x="646.2" y="227.9" width="6" height="8" rx="1" fill="url(#windowGlow)" opacity="0.7087326359510108"/>
<rect x="632.2" y="242.9" width="6" height="8" rx="1" fill="url(#windowGlow)" opacity="0.9768636536676732"/>
<rect x="646.2" y="242.9" width="6" height="8" rx="1" fill="url(#windowGlow)" opacity="0.7014526518534182"/>
<rect x="632.2" y="257.9" width="6" height="8" rx="1" fill="url(#windowGlow)" opacity="0.8208804862670974"/>
<rect x="646.2" y="257.9" width="6" height="8" rx="1" fill="url(#windowGlow)" opacity="0.9205412471296923"/>
<rect x="637.2" y="284.0" width="10" height="16" rx="2" fill="url(#roof_navyRoof)" opacity="0.8"/>
<rect x="639.2" y="287.0" width="6" height="10" rx="1" fill="url(#windowGlow)" opacity="0.45"/>
<rect x="632.7" y="243.9" width="19.0" height="5" rx="1" fill="#15803d" opacity="0.7"/>
<circle cx="635.7" cy="242.9" r="2.5" fill="#a78bfa" opacity="0.85"/>
<circle cx="642.0" cy="242.9" r="2.5" fill="#fbbf24" opacity="0.85"/>
<circle cx="648.4" cy="242.9" r="2.5" fill="#fb923c" opacity="0.85"/>
<rect x="923.7" y="237.5" width="55.4" height="62.5" rx="3" fill="url(#bldg_amber)" opacity="1"/>
<polygon points="923.7,237.5 951.3,223.4 979.0,237.5" fill="url(#roof_coralRoof)" opacity="1"/>
<rect x="941.3" y="247.5" width="6" height="8" rx="1" fill="url(#windowGlow)" opacity="0.7363122615666651"/>
<rect x="946.3" y="284.0" width="10" height="16" rx="2" fill="url(#roof_navyRoof)" opacity="0.8"/>
<rect x="948.3" y="287.0" width="6" height="10" rx="1" fill="url(#windowGlow)" opacity="0.45"/>
<rect x="432.7" y="268.4" width="6" height="16.6" rx="2" fill="#15803d"/>
<circle cx="435.7" cy="255.5" r="16.9" fill="#22c55e" opacity="0.9"/>
<circle cx="427.7" cy="258.5" r="12.7" fill="#16a34a" opacity="0.8"/>
<circle cx="441.8" cy="259.5" r="11.8" fill="#15803d" opacity="0.7"/>
<rect x="793.5" y="266.7" width="6" height="18.3" rx="2" fill="#15803d"/>
<circle cx="796.5" cy="256.6" r="14.1" fill="#22c55e" opacity="0.9"/>
<circle cx="787.8" cy="259.6" r="10.6" fill="#16a34a" opacity="0.8"/>
<circle cx="803.8" cy="260.6" r="9.9" fill="#15803d" opacity="0.7"/>
<rect x="164.4" y="266.9" width="6" height="18.1" rx="2" fill="#15803d"/>
<circle cx="167.4" cy="257.8" r="13.1" fill="#22c55e" opacity="0.9"/>
<circle cx="158.8" cy="260.8" r="9.8" fill="#16a34a" opacity="0.8"/>
<circle cx="174.5" cy="261.8" r="9.1" fill="#15803d" opacity="0.7"/>
<rect x="0" y="282" width="1200" height="18" fill="url(#groundGrad)"/>
<line x1="939.9" y1="282.0" x2="939.9" y2="248.4" stroke="#92400e" stroke-width="2"/>
<circle cx="939.9" cy="248.4" r="4" fill="#fef08a" opacity="0.6"/>
<circle cx="939.9" cy="248.4" r="8" fill="#fef08a" opacity="0.15" filter="url(#softGlow)"/>
<ellipse cx="297.2" cy="282.0" rx="4.9" ry="3.5" fill="#22c55e" opacity="0.6"/>
<ellipse cx="631.5" cy="282.0" rx="6.7" ry="4.7" fill="#22c55e" opacity="0.6"/>
</svg>