<svg xmlns="http://www.w3.org/2000/svg" viewBox="0 0 1200 300" width="1200" height="300">
<rect width="1200" height="300" fill="#e8edf2"/>
<path d="M0 300 L0 210.0 C292.9 183.3, 825.2 192.5, 1200 210.0 L1200 300 Z" fill="#b1bdcc" opacity="0.3"/>
<rect x="171.4" y="208.8" width="69.1" height="91.2" fill="#94a4b9"/>
<rect x="440.4" y="220.9" width="58.7" height="79.1" fill="#94a4b9"/>
<rect x="706.7" y="198.5" width="51.4" height="101.5" fill="#94a4b9"/>
<rect x="992.9" y="184.1" width="48.9" height="115.9" fill="#94a4b9"/>
<rect x="81.2" y="159.1" width="75.4" height="140.9" fill="#647b99"/>
<rect x="94.9" y="171.1" width="6" height="8" fill="#9aa9bd" opacity="0.5"/>
<rect x="108.9" y="171.1" width="6" height="8" fill="#9aa9bd" opacity="0.5"/>
<rect x="122.9" y="171.1" width="6" height="8" fill="#9aa9bd" opacity="0.5"/>
<rect x="94.9" y="187.1" width="6" height="8" fill="#9aa9bd" opacity="0.5"/>
<rect x="108.9" y="187.1" width="6" height="8" fill="#9aa9bd" opacity="0.5"/>
<rect x="122.9" y="187.1" width="6" height="8" fill="#9aa9bd" opacity="0.5"/>
<rect x="136.9" y="187.1" width="6" height="8" fill="#9aa9bd" opacity="0.5"/>
<rect x="94.9" y="203.1" width="6" height="8" fill="#9aa9bd" opacity="0.5"/>
<rect x="122.9" y="203.1" width="6" height="8" fill="#9aa9bd" opacity="0.5"/>
<rect x="136.9" y="203.1" width="6" height="8" fill="#9aa9bd" opacity="0.5"/>
<rect x="94.9" y="219.1" width="6" height="8" fill="#9aa9bd" opacity="0.5"/>
<rect x="122.9" y="219.1" width="6" height="8" fill="#9aa9bd" opacity="0.5"/>
<rect x="94.9" y="235.1" width="6" height="8" fill="#9aa9bd" opacity="0.5"/>
<rect x="108.9" y="235.1" width="6" height="8" fill="#9aa9bd" opacity="0.5"/>
<rect x="122.9" y="235.1" width="6" height="8" fill="#9aa9bd" opacity="0.5"/>
<rect x="136.9" y="235.1" width="6" height="8" fill="#9aa9bd" opacity="0.5"/>
<rect x="94.9" y="251.1" width="6" height="8" fill="#9aa9bd" opacity="0.5"/>
<rect x="122.9" y="251.1" width="6" height="8" fill="#9aa9bd" opacity="0.5"/>
<rect x="136.9" y="251.1" width="6" height="8" fill="#9aa9bd" opacity="0.5"/>
<rect x="94.9" y="267.1" width="6" height="8" fill="#9aa9bd" opacity="0.5"/>
<rect x="122.9" y="267.1" width="6" height="8" fill="#9aa9bd" opacity="0.5"/>
<rect x="136.9" y="267.1" width="6" height="8" fill="#9aa9bd" opacity="0.5"/>
<rect x="352.5" y="215.1" width="74.8" height="84.9" fill="#647b99"/>
<rect x="365.9" y="227.1" width="6" height="8" fill="#9aa9bd" opacity="0.5"/>
<rect x="379.9" y="227.1" width="6" height="8" fill="#9aa9bd" opacity="0.5"/>
<rect x="393.9" y="227.1" width="6" height="8" fill="#9aa9bd" opacity="0.5"/>
<rect x="407.9" y="227.1" width="6" height="8" fill="#9aa9bd" opacity="0.5"/>
<rect x="365.9" y="243.1" width="6" height="8" fill="#9aa9bd" opacity="0.5"/>
<rect x="379.9" y="243.1" width="6" height="8" fill="#9aa9bd" opacity="0.5"/>
<rect x="393.9" y="243.1" width="6" height="8" fill="#9aa9bd" opacity="0.5"/>
<rect x="407.9" y="243.1" width="6" height="8" fill="#9aa9bd" opacity="0.5"/>
<rect x="365.9" y="259.1" width="6" height="8" fill="#9aa9bd" opacity="0.5"/>
<rect x="379.9" y="259.1" width="6" height="8" fill="#9aa9bd" opacity="0.5"/>
<rect x="393.9" y="259.1" width="6" height="8" fill="#9aa9bd" opacity="0.5"/>
<rect x="407.9" y="259.1" width="6" height="8" fill="#9aa9bd" opacity="0.5"/>
<rect x="567.5" y="214.5" width="50.8" height="85.5" fill="#647b99"/>
<rect x="582.9" y="226.5" width="6" height="8" fill="#9aa9bd" opacity="0.5"/>
<rect x="582.9" y="242.5" width="6" height="8" fill="#9aa9bd" opacity="0.5"/>
<rect x="596.9" y="242.5" width="6" height="8" fill="#9aa9bd" opacity="0.5"/>
<rect x="799.9" y="154.7" width="77.7" height="145.3" fill="#647b99"/>
<rect x="814.7" y="166.7" width="6" height="8" fill="#9aa9bd" opacity="0.5"/>
<rect x="828.7" y="166.7" width="6" height="8" fill="#9aa9bd" opacity="0.5"/>
<rect x="814.7" y="182.7" width="6" height="8" fill="#9aa9bd" opacity="0.5"/>
<rect x="828.7" y="182.7" width="6" height="8" fill="#9aa9bd" opacity="0.5"/>
<rect x="842.7" y="182.7" width="6" height="8" fill="#9aa9bd" opacity="0.5"/>
<rect x="856.7" y="182.7" width="6" height="8" fill="#9aa9bd" opacity="0.5"/>
<rect x="814.7" y="198.7" width="6" height="8" fill="#9aa9bd" opacity="0.5"/>
<rect x="828.7" y="198.7" width="6" height="8" fill="#9aa9bd" opacity="0.5"/>
<rect x="842.7" y="198.7" width="6" height="8" fill="#9aa9bd" opacity="0.5"/>
<rect x="856.7" y="198.7" width="6" height="8" fill="#9aa9bd" opacity="0.5"/>
<rect x="856.7" y="214.7" width="6" height="8" fill="#9aa9bd" opacity="0.5"/>
<rect x="814.7" y="230.7" width="6" height="8" fill="#9aa9bd" opacity="0.5"/>
<rect x="828.7" y="230.7" width="6" height="8" fill="#9aa9bd" opacity="0.5"/>
<rect x="842.7" y="230.7" width="6" height="8" fill="#9aa9bd" opacity="0.5"/>
<rect x="856.7" y="230.7" width="6" height="8" fill="#9aa9bd" opacity="0.5"/>
<rect x="814.7" y="246.7" width="6" height="8" fill="#9aa9bd" opacity="0.5"/>
<rect x="828.7" y="246.7" width="6" height="8" fill="#9aa9bd" opacity="0.5"/>
<rect x="842.7" y="246.7" width="6" height="8" fill="#9aa9bd" opacity="0.5"/>
<rect x="856.7" y="246.7" width="6" height="8" fill="#9aa9bd" opacity="0.5"/>
<rect x="814.7" y="262.7" width="6" height="8" fill="#9aa9bd" opacity="0.5"/>
<rect x="828.7" y="262.7" width="6" height="8" fill="#9aa9bd" opacity="0.5"/>
<rect x="842.7" y="262.7" width="6" height="8" fill="#9aa9bd" opacity="0.5"/>
<rect x="1063.7" y="185.5" width="40.8" height="114.5" fill="#647b99"/>
<rect x="1081.1" y="213.5" width="6" height="8" fill="#9aa9bd" opacity="0.5"/>
<rect x="1081.1" y="229.5" width="6" height="8" fill="#9aa9bd" opacity="0.5"/>
<rect x="1081.1" y="245.5" width="6" height="8" fill="#9aa9bd" opacity="0.5"/>
<rect x="162.0" y="184.0" width="53.8" height="116.0" fill="#3d5a80"/>
<rect x="179.0" y="196.0" width="6" height="8" fill="#8194ac" opacity="0.5"/>
<rect x="179.0" y="212.0" width="6" height="8" fill="#8194ac" opacity="0.5"/>
<rect x="193.0" y="212.0" width="6" height="8" fill="#8194ac" opacity="0.5"/>
<rect x="179.0" y="228.0" width="6" height="8" fill="#8194ac" opacity="0.5"/>
<rect x="193.0" y="228.0" width="6" height="8" fill="#8194ac" opacity="0.5"/>
<rect x="179.0" y="244.0" width="6" height="8" fill="#8194ac" opacity="0.5"/>
<rect x="179.0" y="260.0" width="6" height="8" fill="#8194ac" opacity="0.5"/>
<rect x="193.0" y="260.0" width="6" height="8" fill="#8194ac" opacity="0.5"/>
<rect x="433.1" y="237.8" width="51.2" height="62.2" fill="#3d5a80"/>
<rect x="448.7" y="249.8" width="6" height="8" fill="#8194ac" opacity="0.5"/>
<rect x="462.7" y="249.8" width="6" height="8" fill="#8194ac" opacity="0.5"/>
<rect x="448.7" y="265.8" width="6" height="8" fill="#8194ac" opacity="0.5"/>
<rect x="462.7" y="265.8" width="6" height="8" fill="#8194ac" opacity="0.5"/>
<rect x="734.2" y="151.1" width="43.7" height="148.9" fill="#3d5a80"/>
<rect x="753.1" y="163.1" width="6" height="8" fill="#8194ac" opacity="0.5"/>
<rect x="753.1" y="179.1" width="6" height="8" fill="#8194ac" opacity="0.5"/>
<rect x="753.1" y="195.1" width="6" height="8" fill="#8194ac" opacity="0.5"/>
<rect x="753.1" y="211.1" width="6" height="8" fill="#8194ac" opacity="0.5"/>
<rect x="753.1" y="243.1" width="6" height="8" fill="#8194ac" opacity="0.5"/>
<rect x="753.1" y="259.1" width="6" height="8" fill="#8194ac" opacity="0.5"/>
<rect x="1007.6" y="205.6" width="30.1" height="94.4" fill="#3d5a80"/>
<rect x="1019.6" y="217.6" width="6" height="8" fill="#8194ac" opacity="0.5"/>
<rect x="1019.6" y="233.6" width="6" height="8" fill="#8194ac" opacity="0.5"/>
<rect x="1019.6" y="249.6" width="6" height="8" fill="#8194ac" opacity="0.5"/>
<rect x="1019.6" y="265.6" width="6" height="8" fill="#8194ac" opacity="0.5"/>
<rect x="0" y="298" width="1200" height="2" fill="#375173" opacity="0.15"/>
</svg>