<svg xmlns="http://www.w3.org/2000/svg" viewBox="0 0 1200 300" width="1200" height="300">
<defs>
<linearGradient id="skyGrad" x1="0" y1="0" x2="0" y2="1">
<stop offset="0%" stop-color="#818cf8"/>
<stop offset="22%" stop-color="#a5b4fc"/>
<stop offset="42%" stop-color="#c4b5fd"/>
<stop offset="60%" stop-color="#e0c3fc"/>
<stop offset="80%" stop-color="#fde68a"/>
<stop offset="100%" stop-color="#fef9c3"/>
</linearGradient>
<linearGradient id="bldg_coral" x1="0" y1="0" x2="0" y2="1"><stop offset="0%" stop-color="#fecaca"/><stop offset="100%" stop-color="#fca5a5"/></linearGradient>
<linearGradient id="bldg_teal" x1="0" y1="0" x2="0" y2="1"><stop offset="0%" stop-color="#99f6e4"/><stop offset="100%" stop-color="#5eead4"/></linearGradient>
<linearGradient id="bldg_amber" x1="0" y1="0" x2="0" y2="1"><stop offset="0%" stop-color="#fde68a"/><stop offset="100%" stop-color="#fcd34d"/></linearGradient>
<linearGradient id="bldg_lavender" x1="0" y1="0" x2="0" y2="1"><stop offset="0%" stop-color="#ddd6fe"/><stop offset="100%" stop-color="#c4b5fd"/></linearGradient>
<linearGradient id="bldg_blue" x1="0" y1="0" x2="0" y2="1"><stop offset="0%" stop-color="#bfdbfe"/><stop offset="100%" stop-color="#93c5fd"/></linearGradient>
<linearGradient id="bldg_mint" x1="0" y1="0" x2="0" y2="1"><stop offset="0%" stop-color="#a7f3d0"/><stop offset="100%" stop-color="#6ee7b7"/></linearGradient>
<linearGradient id="bldg_rose" x1="0" y1="0" x2="0" y2="1"><stop offset="0%" stop-color="#fecdd3"/><stop offset="100%" stop-color="#fda4af"/></linearGradient>
<linearGradient id="bldg_sky" x1="0" y1="0" x2="0" y2="1"><stop offset="0%" stop-color="#bae6fd"/><stop offset="100%" stop-color="#7dd3fc"/></linearGradient>
<linearGradient id="roof_navyRoof" x1="0" y1="0" x2="0" y2="1"><stop offset="0%" stop-color="#4338ca"/><stop offset="100%" stop-color="#3730a3"/></linearGradient>
<linearGradient id="roof_coralRoof" x1="0" y1="0" x2="0" y2="1"><stop offset="0%" stop-color="#f87171"/><stop offset="100%" stop-color="#ef4444"/></linearGradient>
<linearGradient id="roof_tealRoof" x1="0" y1="0" x2="0" y2="1"><stop offset="0%" stop-color="#2dd4bf"/><stop offset="100%" stop-color="#14b8a6"/></linearGradient>
<radialGradient id="windowGlow" cx="50%" cy="50%" r="50%"><stop offset="0%" stop-color="#fef08a"/><stop offset="60%" stop-color="#fbbf24"/><stop offset="100%" stop-color="#f59e0b"/></radialGradient>
<linearGradient id="hillFar" x1="0" y1="0" x2="0" y2="1"><stop offset="0%" stop-color="#c4b5fd"/><stop offset="100%" stop-color="#a5b4fc"/></linearGradient>
<linearGradient id="hillMid" x1="0" y1="0" x2="0" y2="1"><stop offset="0%" stop-color="#86efac"/><stop offset="100%" stop-color="#4ade80"/></linearGradient>
<linearGradient id="hillNear" x1="0" y1="0" x2="0" y2="1"><stop offset="0%" stop-color="#34d399"/><stop offset="100%" stop-color="#10b981"/></linearGradient>
<linearGradient id="hillDesertFar" x1="0" y1="0" x2="0" y2="1"><stop offset="0%" stop-color="#fde68a"/><stop offset="100%" stop-color="#fcd34d"/></linearGradient>
<linearGradient id="hillDesertMid" x1="0" y1="0" x2="0" y2="1"><stop offset="0%" stop-color="#fcd34d"/><stop offset="100%" stop-color="#fbbf24"/></linearGradient>
<linearGradient id="hillDesertNear" x1="0" y1="0" x2="0" y2="1"><stop offset="0%" stop-color="#fbbf24"/><stop offset="100%" stop-color="#f59e0b"/></linearGradient>
<linearGradient id="groundGrad" x1="0" y1="0" x2="0" y2="1"><stop offset="0%" stop-color="#fef3c7"/><stop offset="100%" stop-color="#fde68a"/></linearGradient>
<linearGradient id="waterGrad" x1="0" y1="0" x2="0" y2="1"><stop offset="0%" stop-color="#bfdbfe"/><stop offset="100%" stop-color="#93c5fd"/></linearGradient>
<filter id="softGlow" x="-50%" y="-50%" width="200%" height="200%"><feGaussianBlur in="SourceGraphic" stdDeviation="12"/></filter>
</defs>
<rect width="1200" height="300" fill="url(#skyGrad)"/>
<circle cx="1013.8" cy="44.0" r="45" fill="#fef08a" opacity="0.12" filter="url(#softGlow)"/>
<circle cx="1013.8" cy="44.0" r="30" fill="#fde68a" opacity="0.18" filter="url(#softGlow)"/>
<circle cx="1013.8" cy="44.0" r="16" fill="#fef9c3" opacity="0.25" filter="url(#softGlow)"/>
<ellipse cx="516.8" cy="18.4" rx="35.2" ry="12.3" fill="white" opacity="0.5"/>
<ellipse cx="494.8" cy="21.9" rx="24.6" ry="9.7" fill="white" opacity="0.5"/>
<ellipse cx="536.2" cy="21.0" rx="28.1" ry="10.5" fill="white" opacity="0.5"/>
<ellipse cx="529.2" cy="30.0" rx="36.4" ry="12.7" fill="white" opacity="0.5"/>
<ellipse cx="506.5" cy="33.7" rx="25.5" ry="10.0" fill="white" opacity="0.5"/>
<ellipse cx="549.2" cy="32.8" rx="29.1" ry="10.9" fill="white" opacity="0.5"/>
<ellipse cx="863.5" cy="21.9" rx="38.8" ry="13.6" fill="white" opacity="0.5"/>
<ellipse cx="839.3" cy="25.7" rx="27.1" ry="10.7" fill="white" opacity="0.5"/>
<ellipse cx="884.8" cy="24.8" rx="31.0" ry="11.6" fill="white" opacity="0.4"/>
<path d="M0 300 L0.0 163.8 C103.2 163.8, 103.2 81.5, 206.4 81.5 C343.8 81.5, 343.8 111.5, 481.2 111.5 C628.9 111.5, 628.9 133.5, 776.6 133.5 C876.6 133.5, 876.6 55.4, 976.7 55.4 C1088.4 55.4, 1088.4 135.2, 1200.0 135.2 L1200 300 Z" fill="url(#hillFar)" opacity="0.5"/>
<path d="M0 300 L0.0 187.4 C236.4 187.4, 236.4 181.6, 472.8 181.6 C636.0 181.6, 636.0 182.2, 799.2 182.2 C999.6 182.2, 999.6 217.9, 1200.0 217.9 L1200 300 Z" fill="url(#hillMid)" opacity="0.7"/>
<path d="M0 300 L0.0 220.5 C143.8 220.5, 143.8 225.1, 287.6 225.1 C361.1 225.1, 361.1 222.5, 434.5 222.5 C584.2 222.5, 584.2 227.2, 733.8 227.2 C844.2 227.2, 844.2 221.2, 954.5 221.2 C1077.3 221.2, 1077.3 233.9, 1200.0 233.9 L1200 300 Z" fill="url(#hillNear)" opacity="1"/>
<rect x="212.9" y="204.7" width="65.3" height="95.3" rx="3" fill="url(#bldg_lavender)" opacity="0.7"/>
<polygon points="212.9,204.7 245.6,183.7 278.3,204.7" fill="url(#roof_navyRoof)" opacity="0.7"/>
<rect x="228.6" y="214.7" width="6" height="8" rx="1" fill="url(#windowGlow)" opacity="0.7098394052171332"/>
<rect x="242.6" y="214.7" width="6" height="8" rx="1" fill="url(#windowGlow)" opacity="0.8531692390112062"/>
<rect x="256.6" y="214.7" width="6" height="8" rx="1" fill="url(#windowGlow)" opacity="0.9960242256969326"/>
<rect x="228.6" y="229.7" width="6" height="8" rx="1" fill="url(#windowGlow)" opacity="0.7910465853712738"/>
<rect x="242.6" y="229.7" width="6" height="8" rx="1" fill="url(#windowGlow)" opacity="0.954968075293567"/>
<rect x="256.6" y="229.7" width="6" height="8" rx="1" fill="url(#windowGlow)" opacity="0.7974197268939669"/>
<rect x="228.6" y="244.7" width="6" height="8" rx="1" fill="url(#windowGlow)" opacity="0.9167307209301416"/>
<rect x="242.6" y="244.7" width="6" height="8" rx="1" fill="url(#windowGlow)" opacity="0.7450162006751709"/>
<rect x="228.6" y="259.7" width="6" height="8" rx="1" fill="url(#windowGlow)" opacity="0.9347362463058606"/>
<rect x="242.6" y="259.7" width="6" height="8" rx="1" fill="url(#windowGlow)" opacity="0.8507387127032218"/>
<rect x="256.6" y="259.7" width="6" height="8" rx="1" fill="url(#windowGlow)" opacity="0.9796688805239595"/>
<rect x="600.6" y="190.0" width="41.8" height="110.0" rx="3" fill="url(#bldg_blue)" opacity="0.7"/>
<rect x="600.6" y="187.0" width="41.8" height="3" rx="1" fill="url(#roof_coralRoof)" opacity="0.7"/>
<rect x="618.4" y="200.0" width="6" height="8" rx="1" fill="url(#windowGlow)" opacity="0.9337937807821639"/>
<rect x="618.4" y="215.0" width="6" height="8" rx="1" fill="url(#windowGlow)" opacity="0.7348704807622686"/>
<rect x="618.4" y="230.0" width="6" height="8" rx="1" fill="url(#windowGlow)" opacity="0.7645795467610376"/>
<rect x="618.4" y="245.0" width="6" height="8" rx="1" fill="url(#windowGlow)" opacity="0.9361560410988312"/>
<rect x="618.4" y="260.0" width="6" height="8" rx="1" fill="url(#windowGlow)" opacity="0.7891392232333958"/>
<rect x="920.3" y="198.5" width="50.7" height="101.5" rx="3" fill="url(#bldg_mint)" opacity="0.7"/>
<polygon points="920.3,198.5 945.7,182.1 971.0,198.5" fill="url(#roof_tealRoof)" opacity="0.7"/>
<rect x="935.7" y="208.5" width="6" height="8" rx="1" fill="url(#windowGlow)" opacity="0.8809362023980059"/>
<rect x="949.7" y="208.5" width="6" height="8" rx="1" fill="url(#windowGlow)" opacity="0.9263284328516239"/>
<rect x="935.7" y="223.5" width="6" height="8" rx="1" fill="url(#windowGlow)" opacity="0.8452019123105341"/>
<rect x="935.7" y="238.5" width="6" height="8" rx="1" fill="url(#windowGlow)" opacity="0.7074029146262457"/>
<rect x="949.7" y="238.5" width="6" height="8" rx="1" fill="url(#windowGlow)" opacity="0.83288396728825"/>
<rect x="949.7" y="253.5" width="6" height="8" rx="1" fill="url(#windowGlow)" opacity="0.9741524869921396"/>
<rect x="171.8" y="185.2" width="43.7" height="114.8" rx="3" fill="url(#bldg_rose)" opacity="0.85"/>
<rect x="171.8" y="182.2" width="43.7" height="3" rx="1" fill="url(#roof_navyRoof)" opacity="0.85"/>
<rect x="190.7" y="195.2" width="6" height="8" rx="1" fill="url(#windowGlow)" opacity="0.8454226504291513"/>
<rect x="190.7" y="210.2" width="6" height="8" rx="1" fill="url(#windowGlow)" opacity="0.9687619860138567"/>
<rect x="190.7" y="225.2" width="6" height="8" rx="1" fill="url(#windowGlow)" opacity="0.8250169814680781"/>
<rect x="190.7" y="240.2" width="6" height="8" rx="1" fill="url(#windowGlow)" opacity="0.834970816986156"/>
<rect x="190.7" y="255.2" width="6" height="8" rx="1" fill="url(#windowGlow)" opacity="0.8995612345168186"/>
<rect x="408.8" y="168.6" width="65.1" height="131.4" rx="3" fill="url(#bldg_sky)" opacity="0.85"/>
<polygon points="408.8,168.6 441.4,147.6 473.9,168.6" fill="url(#roof_coralRoof)" opacity="0.85"/>
<rect x="438.4" y="178.6" width="6" height="8" rx="1" fill="url(#windowGlow)" opacity="0.8569761704918817"/>
<rect x="452.4" y="178.6" width="6" height="8" rx="1" fill="url(#windowGlow)" opacity="0.8692155632512716"/>
<rect x="424.4" y="193.6" width="6" height="8" rx="1" fill="url(#windowGlow)" opacity="0.99364990172612"/>
<rect x="438.4" y="193.6" width="6" height="8" rx="1" fill="url(#windowGlow)" opacity="0.9025934421935088"/>
<rect x="452.4" y="193.6" width="6" height="8" rx="1" fill="url(#windowGlow)" opacity="0.7406479529760069"/>
<rect x="424.4" y="208.6" width="6" height="8" rx="1" fill="url(#windowGlow)" opacity="0.8094832166142217"/>
<rect x="438.4" y="208.6" width="6" height="8" rx="1" fill="url(#windowGlow)" opacity="0.8461325464985019"/>
<rect x="452.4" y="208.6" width="6" height="8" rx="1" fill="url(#windowGlow)" opacity="0.8709507798175098"/>
<rect x="424.4" y="223.6" width="6" height="8" rx="1" fill="url(#windowGlow)" opacity="0.899155644001046"/>
<rect x="438.4" y="223.6" width="6" height="8" rx="1" fill="url(#windowGlow)" opacity="0.8135843331988828"/>
<rect x="452.4" y="223.6" width="6" height="8" rx="1" fill="url(#windowGlow)" opacity="0.9234455684774767"/>
<rect x="424.4" y="238.6" width="6" height="8" rx="1" fill="url(#windowGlow)" opacity="0.9219333516070308"/>
<rect x="452.4" y="238.6" width="6" height="8" rx="1" fill="url(#windowGlow)" opacity="0.7319508515447148"/>
<rect x="438.4" y="253.6" width="6" height="8" rx="1" fill="url(#windowGlow)" opacity="0.7725047847128029"/>
<rect x="452.4" y="253.6" width="6" height="8" rx="1" fill="url(#windowGlow)" opacity="0.945642399576326"/>
<path d="M415.3 214.6 L441.4 214.6 L438.4 220.6 L418.3 220.6 Z" fill="url(#roof_navyRoof)" opacity="0.68"/>
<rect x="701.3" y="217.2" width="55.8" height="82.8" rx="3" fill="url(#bldg_coral)" opacity="0.85"/>
<rect x="712.5" y="207.3" width="33.5" height="9.9" rx="2" fill="url(#roof_tealRoof)" opacity="0.85"/>
<rect x="719.2" y="227.2" width="6" height="8" rx="1" fill="url(#windowGlow)" opacity="0.9169903576453171"/>
<rect x="733.2" y="227.2" width="6" height="8" rx="1" fill="url(#windowGlow)" opacity="0.8435071560291141"/>
<rect x="719.2" y="242.2" width="6" height="8" rx="1" fill="url(#windowGlow)" opacity="0.8807578204110068"/>
<rect x="733.2" y="257.2" width="6" height="8" rx="1" fill="url(#windowGlow)" opacity="0.848945107659765"/>
<path d="M706.9 246.2 L729.2 246.2 L726.2 252.2 L709.9 252.2 Z" fill="url(#roof_coralRoof)" opacity="0.68"/>
<rect x="980.6" y="206.3" width="48.3" height="93.7" rx="3" fill="url(#bldg_teal)" opacity="0.85"/>
<rect x="980.6" y="203.3" width="48.3" height="3" rx="1" fill="url(#roof_navyRoof)" opacity="0.85"/>
<rect x="994.7" y="216.3" width="6" height="8" rx="1" fill="url(#windowGlow)" opacity="0.8787363488593773"/>
<rect x="1008.7" y="216.3" width="6" height="8" rx="1" fill="url(#windowGlow)" opacity="0.8326407532359663"/>
<rect x="994.7" y="231.3" width="6" height="8" rx="1" fill="url(#windowGlow)" opacity="0.9521913076528308"/>
<rect x="1008.7" y="231.3" width="6" height="8" rx="1" fill="url(#windowGlow)" opacity="0.7472682625741084"/>
<rect x="994.7" y="246.3" width="6" height="8" rx="1" fill="url(#windowGlow)" opacity="0.7654232919055145"/>
<rect x="227.5" y="234.9" width="36.7" height="65.1" rx="3" fill="url(#bldg_amber)" opacity="1"/>
<rect x="227.5" y="231.9" width="36.7" height="3" rx="1" fill="url(#roof_coralRoof)" opacity="1"/>
<rect x="242.8" y="244.9" width="6" height="8" rx="1" fill="url(#windowGlow)" opacity="0.8537727377162188"/>
<rect x="242.8" y="259.9" width="6" height="8" rx="1" fill="url(#windowGlow)" opacity="0.9083943443411935"/>
<rect x="240.8" y="284.0" width="10" height="16" rx="2" fill="url(#roof_navyRoof)" opacity="0.8"/>
<rect x="242.8" y="287.0" width="6" height="10" rx="1" fill="url(#windowGlow)" opacity="0.45"/>
<rect x="594.9" y="148.7" width="39.1" height="151.3" rx="3" fill="url(#bldg_lavender)" opacity="1"/>
<polygon points="594.9,148.7 614.4,136.8 633.9,148.7" fill="url(#roof_tealRoof)" opacity="1"/>
<rect x="611.4" y="158.7" width="6" height="8" rx="1" fill="url(#windowGlow)" opacity="0.97066770376203"/>
<rect x="611.4" y="173.7" width="6" height="8" rx="1" fill="url(#windowGlow)" opacity="0.7256404382296094"/>
<rect x="611.4" y="188.7" width="6" height="8" rx="1" fill="url(#windowGlow)" opacity="0.9196684659550285"/>
<rect x="611.4" y="203.7" width="6" height="8" rx="1" fill="url(#windowGlow)" opacity="0.7071936379220307"/>
<rect x="611.4" y="218.7" width="6" height="8" rx="1" fill="url(#windowGlow)" opacity="0.9689974799142207"/>
<rect x="611.4" y="233.7" width="6" height="8" rx="1" fill="url(#windowGlow)" opacity="0.914268375381021"/>
<rect x="611.4" y="248.7" width="6" height="8" rx="1" fill="url(#windowGlow)" opacity="0.9162838635110686"/>
<rect x="609.4" y="284.0" width="10" height="16" rx="2" fill="url(#roof_navyRoof)" opacity="0.8"/>
<rect x="611.4" y="287.0" width="6" height="10" rx="1" fill="url(#windowGlow)" opacity="0.45"/>
<rect x="977.1" y="160.4" width="33.1" height="139.6" rx="3" fill="url(#bldg_blue)" opacity="1"/>
<polygon points="977.1,160.4 993.6,152.8 1010.1,160.4" fill="url(#roof_navyRoof)" opacity="1"/>
<rect x="990.6" y="170.4" width="6" height="8" rx="1" fill="url(#windowGlow)" opacity="0.8827158844017963"/>
<rect x="990.6" y="185.4" width="6" height="8" rx="1" fill="url(#windowGlow)" opacity="0.9192160063512698"/>
<rect x="990.6" y="200.4" width="6" height="8" rx="1" fill="url(#windowGlow)" opacity="0.8529150072265952"/>
<rect x="990.6" y="215.4" width="6" height="8" rx="1" fill="url(#windowGlow)" opacity="0.794737768776127"/>
<rect x="990.6" y="245.4" width="6" height="8" rx="1" fill="url(#windowGlow)" opacity="0.889009090926968"/>
<rect x="990.6" y="260.4" width="6" height="8" rx="1" fill="url(#windowGlow)" opacity="0.9275896001269992"/>
<rect x="988.6" y="284.0" width="10" height="16" rx="2" fill="url(#roof_navyRoof)" opacity="0.8"/>
<rect x="990.6" y="287.0" width="6" height="10" rx="1" fill="url(#windowGlow)" opacity="0.45"/>
<rect x="426.5" y="275.0" width="6" height="10.0" rx="2" fill="#92400e"/>
<polygon points="429.5,227.0 424.4,248.0 434.7,248.0" fill="#15803d" opacity="0.9"/>
<polygon points="429.5,243.0 422.3,264.0 436.7,264.0" fill="#16a34a" opacity="0.9"/>
<polygon points="429.5,259.0 420.2,280.0 438.8,280.0" fill="#22c55e" opacity="0.9"/>
<rect x="802.5" y="275.0" width="6" height="10.0" rx="2" fill="#92400e"/>
<polygon points="805.5,231.5 799.8,251.0 811.2,251.0" fill="#15803d" opacity="0.9"/>
<polygon points="805.5,246.0 797.5,265.5 813.5,265.5" fill="#16a34a" opacity="0.9"/>
<polygon points="805.5,260.5 795.2,280.0 815.8,280.0" fill="#22c55e" opacity="0.9"/>
<rect x="183.9" y="275.0" width="6" height="10.0" rx="2" fill="#92400e"/>
<polygon points="186.9,229.4 181.8,249.6 192.1,249.6" fill="#15803d" opacity="0.9"/>
<polygon points="186.9,244.6 179.7,264.8 194.2,264.8" fill="#16a34a" opacity="0.9"/>
<polygon points="186.9,259.8 177.6,280.0 196.2,280.0" fill="#22c55e" opacity="0.9"/>
<rect x="1052.9" y="275.0" width="6" height="10.0" rx="2" fill="#92400e"/>
<polygon points="1055.9,240.6 1050.3,257.0 1061.6,257.0" fill="#15803d" opacity="0.9"/>
<polygon points="1055.9,252.0 1048.0,268.5 1063.9,268.5" fill="#16a34a" opacity="0.9"/>
<polygon points="1055.9,263.5 1045.8,280.0 1066.1,280.0" fill="#22c55e" opacity="0.9"/>
<rect x="953.5" y="275.0" width="6" height="10.0" rx="2" fill="#92400e"/>
<polygon points="956.5,232.9 951.8,251.9 961.2,251.9" fill="#15803d" opacity="0.9"/>
<polygon points="956.5,246.9 949.9,266.0 963.1,266.0" fill="#16a34a" opacity="0.9"/>
<polygon points="956.5,261.0 948.1,280.0 964.9,280.0" fill="#22c55e" opacity="0.9"/>
<rect x="570.1" y="275.0" width="6" height="10.0" rx="2" fill="#92400e"/>
<polygon points="573.1,230.2 567.3,250.1 578.9,250.1" fill="#15803d" opacity="0.9"/>
<polygon points="573.1,245.1 565.0,265.1 581.2,265.1" fill="#16a34a" opacity="0.9"/>
<polygon points="573.1,260.1 562.7,280.0 583.5,280.0" fill="#22c55e" opacity="0.9"/>
<rect x="806.9" y="275.0" width="6" height="10.0" rx="2" fill="#92400e"/>
<polygon points="809.9,229.3 805.3,249.6 814.6,249.6" fill="#15803d" opacity="0.9"/>
<polygon points="809.9,244.6 803.5,264.8 816.4,264.8" fill="#16a34a" opacity="0.9"/>
<polygon points="809.9,259.8 801.7,280.0 818.2,280.0" fill="#22c55e" opacity="0.9"/>
<rect x="0" y="282" width="1200" height="18" fill="url(#groundGrad)"/>
<line x1="601.8" y1="282.0" x2="601.8" y2="246.7" stroke="#92400e" stroke-width="2"/>
<circle cx="601.8" cy="246.7" r="4" fill="#fef08a" opacity="0.6"/>
<circle cx="601.8" cy="246.7" r="8" fill="#fef08a" opacity="0.15" filter="url(#softGlow)"/>
<ellipse cx="531.0" cy="282.0" rx="4.9" ry="3.4" fill="#22c55e" opacity="0.6"/>
<ellipse cx="1060.6" cy="282.0" rx="4.0" ry="2.8" fill="#22c55e" opacity="0.6"/>
<ellipse cx="281.7" cy="282.0" rx="6.5" ry="4.5" fill="#22c55e" opacity="0.6"/>
</svg>