<svg xmlns="http://www.w3.org/2000/svg" viewBox="0 0 1200 300" width="1200" height="300">
<rect width="1200" height="300" fill="#ede8e0"/>
<path d="M0 300 L0 210.0 C365.1 177.2, 786.5 197.8, 1200 210.0 L1200 300 Z" fill="#c4c6be" opacity="0.3"/>
<rect x="191.8" y="222.6" width="46.3" height="77.4" fill="#aeb0a5"/>
<rect x="385.5" y="221.1" width="71.7" height="78.9" fill="#aeb0a5"/>
<rect x="716.4" y="200.8" width="60.2" height="99.2" fill="#aeb0a5"/>
<rect x="1016.2" y="230.2" width="63.8" height="69.8" fill="#aeb0a5"/>
<rect x="105.7" y="146.3" width="59.8" height="153.7" fill="#898d7d"/>
<rect x="118.7" y="158.3" width="6" height="8" fill="#b2b5ab" opacity="0.5"/>
<rect x="132.7" y="158.3" width="6" height="8" fill="#b2b5ab" opacity="0.5"/>
<rect x="146.7" y="158.3" width="6" height="8" fill="#b2b5ab" opacity="0.5"/>
<rect x="118.7" y="174.3" width="6" height="8" fill="#b2b5ab" opacity="0.5"/>
<rect x="132.7" y="174.3" width="6" height="8" fill="#b2b5ab" opacity="0.5"/>
<rect x="146.7" y="174.3" width="6" height="8" fill="#b2b5ab" opacity="0.5"/>
<rect x="132.7" y="190.3" width="6" height="8" fill="#b2b5ab" opacity="0.5"/>
<rect x="146.7" y="190.3" width="6" height="8" fill="#b2b5ab" opacity="0.5"/>
<rect x="132.7" y="206.3" width="6" height="8" fill="#b2b5ab" opacity="0.5"/>
<rect x="118.7" y="222.3" width="6" height="8" fill="#b2b5ab" opacity="0.5"/>
<rect x="132.7" y="222.3" width="6" height="8" fill="#b2b5ab" opacity="0.5"/>
<rect x="118.7" y="238.3" width="6" height="8" fill="#b2b5ab" opacity="0.5"/>
<rect x="132.7" y="238.3" width="6" height="8" fill="#b2b5ab" opacity="0.5"/>
<rect x="146.7" y="238.3" width="6" height="8" fill="#b2b5ab" opacity="0.5"/>
<rect x="132.7" y="254.3" width="6" height="8" fill="#b2b5ab" opacity="0.5"/>
<rect x="146.7" y="254.3" width="6" height="8" fill="#b2b5ab" opacity="0.5"/>
<rect x="118.7" y="270.3" width="6" height="8" fill="#b2b5ab" opacity="0.5"/>
<rect x="132.7" y="270.3" width="6" height="8" fill="#b2b5ab" opacity="0.5"/>
<rect x="146.7" y="270.3" width="6" height="8" fill="#b2b5ab" opacity="0.5"/>
<rect x="335.8" y="196.8" width="65.1" height="103.2" fill="#898d7d"/>
<rect x="365.3" y="208.8" width="6" height="8" fill="#b2b5ab" opacity="0.5"/>
<rect x="365.3" y="224.8" width="6" height="8" fill="#b2b5ab" opacity="0.5"/>
<rect x="351.3" y="240.8" width="6" height="8" fill="#b2b5ab" opacity="0.5"/>
<rect x="365.3" y="240.8" width="6" height="8" fill="#b2b5ab" opacity="0.5"/>
<rect x="379.3" y="240.8" width="6" height="8" fill="#b2b5ab" opacity="0.5"/>
<rect x="365.3" y="256.8" width="6" height="8" fill="#b2b5ab" opacity="0.5"/>
<rect x="379.3" y="256.8" width="6" height="8" fill="#b2b5ab" opacity="0.5"/>
<rect x="351.3" y="272.8" width="6" height="8" fill="#b2b5ab" opacity="0.5"/>
<rect x="365.3" y="272.8" width="6" height="8" fill="#b2b5ab" opacity="0.5"/>
<rect x="379.3" y="272.8" width="6" height="8" fill="#b2b5ab" opacity="0.5"/>
<rect x="604.6" y="162.6" width="40.5" height="137.4" fill="#898d7d"/>
<rect x="621.8" y="174.6" width="6" height="8" fill="#b2b5ab" opacity="0.5"/>
<rect x="621.8" y="190.6" width="6" height="8" fill="#b2b5ab" opacity="0.5"/>
<rect x="621.8" y="238.6" width="6" height="8" fill="#b2b5ab" opacity="0.5"/>
<rect x="621.8" y="270.6" width="6" height="8" fill="#b2b5ab" opacity="0.5"/>
<rect x="791.9" y="190.2" width="73.2" height="109.8" fill="#898d7d"/>
<rect x="804.5" y="202.2" width="6" height="8" fill="#b2b5ab" opacity="0.5"/>
<rect x="818.5" y="202.2" width="6" height="8" fill="#b2b5ab" opacity="0.5"/>
<rect x="846.5" y="202.2" width="6" height="8" fill="#b2b5ab" opacity="0.5"/>
<rect x="804.5" y="218.2" width="6" height="8" fill="#b2b5ab" opacity="0.5"/>
<rect x="818.5" y="218.2" width="6" height="8" fill="#b2b5ab" opacity="0.5"/>
<rect x="832.5" y="218.2" width="6" height="8" fill="#b2b5ab" opacity="0.5"/>
<rect x="846.5" y="218.2" width="6" height="8" fill="#b2b5ab" opacity="0.5"/>
<rect x="804.5" y="234.2" width="6" height="8" fill="#b2b5ab" opacity="0.5"/>
<rect x="818.5" y="234.2" width="6" height="8" fill="#b2b5ab" opacity="0.5"/>
<rect x="832.5" y="234.2" width="6" height="8" fill="#b2b5ab" opacity="0.5"/>
<rect x="818.5" y="250.2" width="6" height="8" fill="#b2b5ab" opacity="0.5"/>
<rect x="846.5" y="250.2" width="6" height="8" fill="#b2b5ab" opacity="0.5"/>
<rect x="804.5" y="266.2" width="6" height="8" fill="#b2b5ab" opacity="0.5"/>
<rect x="818.5" y="266.2" width="6" height="8" fill="#b2b5ab" opacity="0.5"/>
<rect x="832.5" y="266.2" width="6" height="8" fill="#b2b5ab" opacity="0.5"/>
<rect x="846.5" y="266.2" width="6" height="8" fill="#b2b5ab" opacity="0.5"/>
<rect x="1008.0" y="134.4" width="76.2" height="165.6" fill="#898d7d"/>
<rect x="1022.1" y="146.4" width="6" height="8" fill="#b2b5ab" opacity="0.5"/>
<rect x="1036.1" y="146.4" width="6" height="8" fill="#b2b5ab" opacity="0.5"/>
<rect x="1064.1" y="146.4" width="6" height="8" fill="#b2b5ab" opacity="0.5"/>
<rect x="1022.1" y="162.4" width="6" height="8" fill="#b2b5ab" opacity="0.5"/>
<rect x="1036.1" y="162.4" width="6" height="8" fill="#b2b5ab" opacity="0.5"/>
<rect x="1064.1" y="162.4" width="6" height="8" fill="#b2b5ab" opacity="0.5"/>
<rect x="1022.1" y="178.4" width="6" height="8" fill="#b2b5ab" opacity="0.5"/>
<rect x="1036.1" y="178.4" width="6" height="8" fill="#b2b5ab" opacity="0.5"/>
<rect x="1050.1" y="178.4" width="6" height="8" fill="#b2b5ab" opacity="0.5"/>
<rect x="1036.1" y="194.4" width="6" height="8" fill="#b2b5ab" opacity="0.5"/>
<rect x="1064.1" y="194.4" width="6" height="8" fill="#b2b5ab" opacity="0.5"/>
<rect x="1022.1" y="210.4" width="6" height="8" fill="#b2b5ab" opacity="0.5"/>
<rect x="1036.1" y="210.4" width="6" height="8" fill="#b2b5ab" opacity="0.5"/>
<rect x="1064.1" y="210.4" width="6" height="8" fill="#b2b5ab" opacity="0.5"/>
<rect x="1022.1" y="226.4" width="6" height="8" fill="#b2b5ab" opacity="0.5"/>
<rect x="1036.1" y="226.4" width="6" height="8" fill="#b2b5ab" opacity="0.5"/>
<rect x="1064.1" y="226.4" width="6" height="8" fill="#b2b5ab" opacity="0.5"/>
<rect x="1022.1" y="242.4" width="6" height="8" fill="#b2b5ab" opacity="0.5"/>
<rect x="1050.1" y="242.4" width="6" height="8" fill="#b2b5ab" opacity="0.5"/>
<rect x="1064.1" y="242.4" width="6" height="8" fill="#b2b5ab" opacity="0.5"/>
<rect x="1022.1" y="258.4" width="6" height="8" fill="#b2b5ab" opacity="0.5"/>
<rect x="1036.1" y="258.4" width="6" height="8" fill="#b2b5ab" opacity="0.5"/>
<rect x="195.1" y="154.8" width="37.6" height="145.2" fill="#6b705c"/>
<rect x="210.9" y="166.8" width="6" height="8" fill="#9fa295" opacity="0.5"/>
<rect x="210.9" y="182.8" width="6" height="8" fill="#9fa295" opacity="0.5"/>
<rect x="210.9" y="198.8" width="6" height="8" fill="#9fa295" opacity="0.5"/>
<rect x="210.9" y="214.8" width="6" height="8" fill="#9fa295" opacity="0.5"/>
<rect x="210.9" y="246.8" width="6" height="8" fill="#9fa295" opacity="0.5"/>
<rect x="210.9" y="262.8" width="6" height="8" fill="#9fa295" opacity="0.5"/>
<rect x="417.5" y="227.7" width="33.6" height="72.3" fill="#6b705c"/>
<rect x="431.3" y="239.7" width="6" height="8" fill="#9fa295" opacity="0.5"/>
<rect x="431.3" y="255.7" width="6" height="8" fill="#9fa295" opacity="0.5"/>
<rect x="431.3" y="271.7" width="6" height="8" fill="#9fa295" opacity="0.5"/>
<rect x="721.3" y="111.0" width="51.9" height="189.0" fill="#6b705c"/>
<rect x="751.2" y="123.0" width="6" height="8" fill="#9fa295" opacity="0.5"/>
<rect x="751.2" y="139.0" width="6" height="8" fill="#9fa295" opacity="0.5"/>
<rect x="737.2" y="155.0" width="6" height="8" fill="#9fa295" opacity="0.5"/>
<rect x="751.2" y="155.0" width="6" height="8" fill="#9fa295" opacity="0.5"/>
<rect x="737.2" y="171.0" width="6" height="8" fill="#9fa295" opacity="0.5"/>
<rect x="737.2" y="187.0" width="6" height="8" fill="#9fa295" opacity="0.5"/>
<rect x="751.2" y="187.0" width="6" height="8" fill="#9fa295" opacity="0.5"/>
<rect x="737.2" y="203.0" width="6" height="8" fill="#9fa295" opacity="0.5"/>
<rect x="751.2" y="203.0" width="6" height="8" fill="#9fa295" opacity="0.5"/>
<rect x="737.2" y="235.0" width="6" height="8" fill="#9fa295" opacity="0.5"/>
<rect x="751.2" y="235.0" width="6" height="8" fill="#9fa295" opacity="0.5"/>
<rect x="751.2" y="251.0" width="6" height="8" fill="#9fa295" opacity="0.5"/>
<rect x="737.2" y="267.0" width="6" height="8" fill="#9fa295" opacity="0.5"/>
<rect x="751.2" y="267.0" width="6" height="8" fill="#9fa295" opacity="0.5"/>
<rect x="1000.9" y="204.1" width="43.3" height="95.9" fill="#6b705c"/>
<rect x="1019.5" y="216.1" width="6" height="8" fill="#9fa295" opacity="0.5"/>
<rect x="1019.5" y="232.1" width="6" height="8" fill="#9fa295" opacity="0.5"/>
<rect x="1019.5" y="264.1" width="6" height="8" fill="#9fa295" opacity="0.5"/>
<rect x="0" y="298" width="1200" height="2" fill="#606553" opacity="0.15"/>
</svg>