<svg xmlns="http://www.w3.org/2000/svg" viewBox="0 0 1200 400" width="1200" height="400">
<defs>
<linearGradient id="bg" x1="0" y1="0" x2="0" y2="1"><stop offset="0%" stop-color="#d4a76a"/><stop offset="100%" stop-color="#ea580c"/></linearGradient>
<linearGradient id="warm" x1="0" y1="0" x2="1" y2="1"><stop offset="0%" stop-color="#858d98" stop-opacity="0.18"/><stop offset="100%" stop-color="#858d98" stop-opacity="0.06"/></linearGradient>
</defs>
<rect width="1200" height="400" fill="url(#bg)"/>
<path d="M0 400 L0 242.60835997028218 C60.0 234.2, 90.0 233.0, 150.0 237.0 C210.0 235.1, 240.0 250.7, 300.0 249.7 C360.0 251.6, 390.0 221.8, 450.0 222.3 C510.0 227.1, 540.0 218.6, 600.0 225.3 C660.0 226.4, 690.0 223.5, 750.0 225.9 C810.0 233.2, 840.0 261.4, 900.0 258.0 C960.0 256.9, 990.0 227.3, 1050.0 231.5 C1110.0 224.0, 1140.0 251.9, 1200.0 244.7 L1200 400 Z" fill="#e2742d" opacity="0.45"/>
<path d="M0 400 L0 273.2625849870653 C52.5 275.7, 97.5 272.1, 150.0 278.4 C202.5 274.4, 247.5 264.8, 300.0 269.9 C352.5 269.7, 397.5 267.1, 450.0 266.3 C502.5 273.2, 547.5 277.0, 600.0 280.1 C652.5 279.2, 697.5 263.4, 750.0 266.1 C802.5 263.1, 847.5 284.5, 900.0 282.2 C952.5 282.1, 997.5 258.1, 1050.0 261.5 C1102.5 258.8, 1147.5 288.2, 1200.0 281.8 L1200 400 Z" fill="#ea580c" opacity="0.3"/>
<rect x="974.6" y="269.8" width="19.3" height="130.2" rx="4.0" fill="#458285" opacity="0.58"/>
<rect x="443.7" y="361.6" width="31.4" height="38.4" rx="5.8" fill="#577d78" opacity="0.52"/>
<rect x="582.6" y="288.2" width="49.7" height="111.8" rx="5.3" fill="#5b7c75" opacity="0.58"/>
<rect x="587.6" y="320.2" width="4" height="5" rx="0.5" fill="#d4a76a" opacity="0.6"/>
<rect x="587.6" y="342.2" width="4" height="5" rx="0.5" fill="#d4a76a" opacity="0.6"/>
<rect x="604.2" y="342.2" width="4" height="5" rx="0.5" fill="#d4a76a" opacity="0.6"/>
<rect x="431.4" y="280.6" width="31.8" height="119.4" rx="4.6" fill="#8d6f50" opacity="0.69"/>
<rect x="891.8" y="356.1" width="20.8" height="43.9" rx="3.8" fill="#777561" opacity="0.72"/>
<rect x="946.9" y="348.2" width="36.3" height="51.8" rx="6.3" fill="#498182" opacity="0.63"/>
<rect x="456.8" y="326.2" width="21.7" height="73.8" rx="5.4" fill="#238a9e" opacity="0.51"/>
<rect x="801.7" y="367.4" width="43.5" height="32.6" rx="7.3" fill="#4b8080" opacity="0.77"/>
<rect x="1062.7" y="287.0" width="27.8" height="113.0" rx="4.2" fill="#837258" opacity="0.77"/>
<rect x="365.1" y="299.0" width="16.5" height="101.0" rx="5.8" fill="#8a7053" opacity="0.52"/>
<rect x="902.3" y="354.6" width="48.0" height="45.4" rx="7.4" fill="#5f7b72" opacity="0.55"/>
<rect x="1017.6" y="333.7" width="23.4" height="66.3" rx="3.6" fill="#4c8080" opacity="0.80"/>
<rect x="904.2" y="286.3" width="20.8" height="113.7" rx="6.6" fill="#787560" opacity="0.54"/>
<circle cx="722.4" cy="124.0" r="6.6" fill="#0891b2" opacity="0.30"/>
<circle cx="944.5" cy="97.9" r="10.9" fill="#d4a76a" opacity="0.35"/>
<circle cx="149.0" cy="78.7" r="4.2" fill="#d4a76a" opacity="0.36"/>
<circle cx="802.0" cy="126.0" r="3.5" fill="#0891b2" opacity="0.31"/>
<circle cx="680.0" cy="217.4" r="3.8" fill="#d4a76a" opacity="0.19"/>
<circle cx="910.0" cy="49.1" r="11.0" fill="#d4a76a" opacity="0.42"/>
<circle cx="1131.5" cy="97.1" r="5.0" fill="#0891b2" opacity="0.38"/>
<circle cx="715.2" cy="20.0" r="7.8" fill="#0891b2" opacity="0.34"/>
<rect width="1200" height="400" fill="url(#warm)"/>
<rect width="1200" height="400" fill="#d4a76a" opacity="0.40"/>
</svg>