<svg xmlns="http://www.w3.org/2000/svg" viewBox="0 0 1200 300" width="1200" height="300">
<rect width="1200" height="300" fill="#e8edf2"/>
<path d="M0 300 L0 210.0 C195.7 186.9, 815.4 197.3, 1200 210.0 L1200 300 Z" fill="#b1bdcc" opacity="0.3"/>
<rect x="123.9" y="171.9" width="61.3" height="128.1" fill="#94a4b9"/>
<rect x="380.7" y="205.8" width="45.5" height="94.2" fill="#94a4b9"/>
<rect x="610.4" y="179.9" width="47.4" height="120.1" fill="#94a4b9"/>
<rect x="814.0" y="163.3" width="72.4" height="136.7" fill="#94a4b9"/>
<rect x="1046.2" y="169.7" width="71.9" height="130.3" fill="#94a4b9"/>
<rect x="63.2" y="162.4" width="69.0" height="137.6" fill="#647b99"/>
<rect x="94.7" y="174.4" width="6" height="8" fill="#9aa9bd" opacity="0.5"/>
<rect x="108.7" y="174.4" width="6" height="8" fill="#9aa9bd" opacity="0.5"/>
<rect x="80.7" y="190.4" width="6" height="8" fill="#9aa9bd" opacity="0.5"/>
<rect x="94.7" y="190.4" width="6" height="8" fill="#9aa9bd" opacity="0.5"/>
<rect x="80.7" y="206.4" width="6" height="8" fill="#9aa9bd" opacity="0.5"/>
<rect x="94.7" y="206.4" width="6" height="8" fill="#9aa9bd" opacity="0.5"/>
<rect x="108.7" y="206.4" width="6" height="8" fill="#9aa9bd" opacity="0.5"/>
<rect x="80.7" y="222.4" width="6" height="8" fill="#9aa9bd" opacity="0.5"/>
<rect x="94.7" y="222.4" width="6" height="8" fill="#9aa9bd" opacity="0.5"/>
<rect x="108.7" y="222.4" width="6" height="8" fill="#9aa9bd" opacity="0.5"/>
<rect x="94.7" y="238.4" width="6" height="8" fill="#9aa9bd" opacity="0.5"/>
<rect x="108.7" y="238.4" width="6" height="8" fill="#9aa9bd" opacity="0.5"/>
<rect x="80.7" y="254.4" width="6" height="8" fill="#9aa9bd" opacity="0.5"/>
<rect x="94.7" y="254.4" width="6" height="8" fill="#9aa9bd" opacity="0.5"/>
<rect x="108.7" y="254.4" width="6" height="8" fill="#9aa9bd" opacity="0.5"/>
<rect x="80.7" y="270.4" width="6" height="8" fill="#9aa9bd" opacity="0.5"/>
<rect x="94.7" y="270.4" width="6" height="8" fill="#9aa9bd" opacity="0.5"/>
<rect x="108.7" y="270.4" width="6" height="8" fill="#9aa9bd" opacity="0.5"/>
<rect x="320.0" y="113.4" width="39.8" height="186.6" fill="#647b99"/>
<rect x="336.9" y="125.4" width="6" height="8" fill="#9aa9bd" opacity="0.5"/>
<rect x="336.9" y="141.4" width="6" height="8" fill="#9aa9bd" opacity="0.5"/>
<rect x="336.9" y="173.4" width="6" height="8" fill="#9aa9bd" opacity="0.5"/>
<rect x="336.9" y="189.4" width="6" height="8" fill="#9aa9bd" opacity="0.5"/>
<rect x="336.9" y="205.4" width="6" height="8" fill="#9aa9bd" opacity="0.5"/>
<rect x="336.9" y="253.4" width="6" height="8" fill="#9aa9bd" opacity="0.5"/>
<rect x="336.9" y="269.4" width="6" height="8" fill="#9aa9bd" opacity="0.5"/>
<rect x="441.9" y="138.4" width="75.7" height="161.6" fill="#647b99"/>
<rect x="455.8" y="150.4" width="6" height="8" fill="#9aa9bd" opacity="0.5"/>
<rect x="469.8" y="150.4" width="6" height="8" fill="#9aa9bd" opacity="0.5"/>
<rect x="483.8" y="166.4" width="6" height="8" fill="#9aa9bd" opacity="0.5"/>
<rect x="497.8" y="166.4" width="6" height="8" fill="#9aa9bd" opacity="0.5"/>
<rect x="469.8" y="182.4" width="6" height="8" fill="#9aa9bd" opacity="0.5"/>
<rect x="497.8" y="182.4" width="6" height="8" fill="#9aa9bd" opacity="0.5"/>
<rect x="455.8" y="198.4" width="6" height="8" fill="#9aa9bd" opacity="0.5"/>
<rect x="469.8" y="198.4" width="6" height="8" fill="#9aa9bd" opacity="0.5"/>
<rect x="483.8" y="198.4" width="6" height="8" fill="#9aa9bd" opacity="0.5"/>
<rect x="497.8" y="198.4" width="6" height="8" fill="#9aa9bd" opacity="0.5"/>
<rect x="455.8" y="214.4" width="6" height="8" fill="#9aa9bd" opacity="0.5"/>
<rect x="483.8" y="214.4" width="6" height="8" fill="#9aa9bd" opacity="0.5"/>
<rect x="455.8" y="230.4" width="6" height="8" fill="#9aa9bd" opacity="0.5"/>
<rect x="469.8" y="230.4" width="6" height="8" fill="#9aa9bd" opacity="0.5"/>
<rect x="483.8" y="230.4" width="6" height="8" fill="#9aa9bd" opacity="0.5"/>
<rect x="497.8" y="230.4" width="6" height="8" fill="#9aa9bd" opacity="0.5"/>
<rect x="455.8" y="246.4" width="6" height="8" fill="#9aa9bd" opacity="0.5"/>
<rect x="469.8" y="246.4" width="6" height="8" fill="#9aa9bd" opacity="0.5"/>
<rect x="497.8" y="246.4" width="6" height="8" fill="#9aa9bd" opacity="0.5"/>
<rect x="483.8" y="262.4" width="6" height="8" fill="#9aa9bd" opacity="0.5"/>
<rect x="497.8" y="262.4" width="6" height="8" fill="#9aa9bd" opacity="0.5"/>
<rect x="699.7" y="148.8" width="35.4" height="151.2" fill="#647b99"/>
<rect x="714.4" y="160.8" width="6" height="8" fill="#9aa9bd" opacity="0.5"/>
<rect x="714.4" y="176.8" width="6" height="8" fill="#9aa9bd" opacity="0.5"/>
<rect x="714.4" y="192.8" width="6" height="8" fill="#9aa9bd" opacity="0.5"/>
<rect x="714.4" y="208.8" width="6" height="8" fill="#9aa9bd" opacity="0.5"/>
<rect x="714.4" y="224.8" width="6" height="8" fill="#9aa9bd" opacity="0.5"/>
<rect x="714.4" y="240.8" width="6" height="8" fill="#9aa9bd" opacity="0.5"/>
<rect x="714.4" y="256.8" width="6" height="8" fill="#9aa9bd" opacity="0.5"/>
<rect x="714.4" y="272.8" width="6" height="8" fill="#9aa9bd" opacity="0.5"/>
<rect x="845.0" y="185.7" width="38.0" height="114.3" fill="#647b99"/>
<rect x="861.0" y="197.7" width="6" height="8" fill="#9aa9bd" opacity="0.5"/>
<rect x="861.0" y="213.7" width="6" height="8" fill="#9aa9bd" opacity="0.5"/>
<rect x="861.0" y="229.7" width="6" height="8" fill="#9aa9bd" opacity="0.5"/>
<rect x="861.0" y="245.7" width="6" height="8" fill="#9aa9bd" opacity="0.5"/>
<rect x="1046.1" y="124.7" width="56.4" height="175.3" fill="#647b99"/>
<rect x="1064.3" y="152.7" width="6" height="8" fill="#9aa9bd" opacity="0.5"/>
<rect x="1064.3" y="168.7" width="6" height="8" fill="#9aa9bd" opacity="0.5"/>
<rect x="1078.3" y="168.7" width="6" height="8" fill="#9aa9bd" opacity="0.5"/>
<rect x="1078.3" y="184.7" width="6" height="8" fill="#9aa9bd" opacity="0.5"/>
<rect x="1064.3" y="200.7" width="6" height="8" fill="#9aa9bd" opacity="0.5"/>
<rect x="1078.3" y="200.7" width="6" height="8" fill="#9aa9bd" opacity="0.5"/>
<rect x="1064.3" y="216.7" width="6" height="8" fill="#9aa9bd" opacity="0.5"/>
<rect x="1078.3" y="216.7" width="6" height="8" fill="#9aa9bd" opacity="0.5"/>
<rect x="1064.3" y="232.7" width="6" height="8" fill="#9aa9bd" opacity="0.5"/>
<rect x="1078.3" y="248.7" width="6" height="8" fill="#9aa9bd" opacity="0.5"/>
<rect x="1078.3" y="264.7" width="6" height="8" fill="#9aa9bd" opacity="0.5"/>
<rect x="74.0" y="128.8" width="43.0" height="171.2" fill="#3d5a80"/>
<rect x="92.5" y="172.8" width="6" height="8" fill="#8194ac" opacity="0.5"/>
<rect x="92.5" y="188.8" width="6" height="8" fill="#8194ac" opacity="0.5"/>
<rect x="92.5" y="204.8" width="6" height="8" fill="#8194ac" opacity="0.5"/>
<rect x="92.5" y="220.8" width="6" height="8" fill="#8194ac" opacity="0.5"/>
<rect x="92.5" y="268.8" width="6" height="8" fill="#8194ac" opacity="0.5"/>
<line x1="95.5" y1="128.8" x2="95.5" y2="119.7" stroke="#3d5a80" stroke-width="2"/>
<rect x="250.2" y="234.3" width="48.5" height="65.7" fill="#3d5a80"/>
<rect x="264.5" y="246.3" width="6" height="8" fill="#8194ac" opacity="0.5"/>
<rect x="264.5" y="262.3" width="6" height="8" fill="#8194ac" opacity="0.5"/>
<rect x="278.5" y="262.3" width="6" height="8" fill="#8194ac" opacity="0.5"/>
<rect x="429.6" y="106.4" width="52.0" height="193.6" fill="#3d5a80"/>
<rect x="445.7" y="134.4" width="6" height="8" fill="#8194ac" opacity="0.5"/>
<rect x="445.7" y="150.4" width="6" height="8" fill="#8194ac" opacity="0.5"/>
<rect x="459.7" y="150.4" width="6" height="8" fill="#8194ac" opacity="0.5"/>
<rect x="445.7" y="166.4" width="6" height="8" fill="#8194ac" opacity="0.5"/>
<rect x="459.7" y="166.4" width="6" height="8" fill="#8194ac" opacity="0.5"/>
<rect x="459.7" y="182.4" width="6" height="8" fill="#8194ac" opacity="0.5"/>
<rect x="445.7" y="214.4" width="6" height="8" fill="#8194ac" opacity="0.5"/>
<rect x="459.7" y="214.4" width="6" height="8" fill="#8194ac" opacity="0.5"/>
<rect x="445.7" y="230.4" width="6" height="8" fill="#8194ac" opacity="0.5"/>
<rect x="459.7" y="230.4" width="6" height="8" fill="#8194ac" opacity="0.5"/>
<rect x="445.7" y="262.4" width="6" height="8" fill="#8194ac" opacity="0.5"/>
<rect x="459.7" y="262.4" width="6" height="8" fill="#8194ac" opacity="0.5"/>
<line x1="455.7" y1="106.4" x2="455.7" y2="88.6" stroke="#3d5a80" stroke-width="2"/>
<rect x="579.9" y="149.9" width="66.5" height="150.1" fill="#3d5a80"/>
<rect x="596.1" y="161.9" width="6" height="8" fill="#8194ac" opacity="0.5"/>
<rect x="610.1" y="161.9" width="6" height="8" fill="#8194ac" opacity="0.5"/>
<rect x="624.1" y="161.9" width="6" height="8" fill="#8194ac" opacity="0.5"/>
<rect x="596.1" y="177.9" width="6" height="8" fill="#8194ac" opacity="0.5"/>
<rect x="596.1" y="193.9" width="6" height="8" fill="#8194ac" opacity="0.5"/>
<rect x="610.1" y="193.9" width="6" height="8" fill="#8194ac" opacity="0.5"/>
<rect x="610.1" y="209.9" width="6" height="8" fill="#8194ac" opacity="0.5"/>
<rect x="596.1" y="225.9" width="6" height="8" fill="#8194ac" opacity="0.5"/>
<rect x="610.1" y="225.9" width="6" height="8" fill="#8194ac" opacity="0.5"/>
<rect x="624.1" y="225.9" width="6" height="8" fill="#8194ac" opacity="0.5"/>
<rect x="610.1" y="241.9" width="6" height="8" fill="#8194ac" opacity="0.5"/>
<rect x="624.1" y="241.9" width="6" height="8" fill="#8194ac" opacity="0.5"/>
<rect x="596.1" y="257.9" width="6" height="8" fill="#8194ac" opacity="0.5"/>
<rect x="610.1" y="257.9" width="6" height="8" fill="#8194ac" opacity="0.5"/>
<rect x="596.1" y="273.9" width="6" height="8" fill="#8194ac" opacity="0.5"/>
<rect x="624.1" y="273.9" width="6" height="8" fill="#8194ac" opacity="0.5"/>
<rect x="744.0" y="75.5" width="52.5" height="224.5" fill="#3d5a80"/>
<rect x="774.3" y="87.5" width="6" height="8" fill="#8194ac" opacity="0.5"/>
<rect x="774.3" y="103.5" width="6" height="8" fill="#8194ac" opacity="0.5"/>
<rect x="760.3" y="119.5" width="6" height="8" fill="#8194ac" opacity="0.5"/>
<rect x="774.3" y="135.5" width="6" height="8" fill="#8194ac" opacity="0.5"/>
<rect x="760.3" y="151.5" width="6" height="8" fill="#8194ac" opacity="0.5"/>
<rect x="774.3" y="151.5" width="6" height="8" fill="#8194ac" opacity="0.5"/>
<rect x="760.3" y="167.5" width="6" height="8" fill="#8194ac" opacity="0.5"/>
<rect x="774.3" y="167.5" width="6" height="8" fill="#8194ac" opacity="0.5"/>
<rect x="760.3" y="183.5" width="6" height="8" fill="#8194ac" opacity="0.5"/>
<rect x="774.3" y="199.5" width="6" height="8" fill="#8194ac" opacity="0.5"/>
<rect x="760.3" y="231.5" width="6" height="8" fill="#8194ac" opacity="0.5"/>
<rect x="774.3" y="231.5" width="6" height="8" fill="#8194ac" opacity="0.5"/>
<rect x="760.3" y="247.5" width="6" height="8" fill="#8194ac" opacity="0.5"/>
<rect x="774.3" y="247.5" width="6" height="8" fill="#8194ac" opacity="0.5"/>
<rect x="882.6" y="188.6" width="42.5" height="111.4" fill="#3d5a80"/>
<rect x="900.8" y="200.6" width="6" height="8" fill="#8194ac" opacity="0.5"/>
<rect x="900.8" y="216.6" width="6" height="8" fill="#8194ac" opacity="0.5"/>
<rect x="900.8" y="232.6" width="6" height="8" fill="#8194ac" opacity="0.5"/>
<rect x="900.8" y="248.6" width="6" height="8" fill="#8194ac" opacity="0.5"/>
<rect x="1074.1" y="77.5" width="65.9" height="222.5" fill="#3d5a80"/>
<rect x="1090.1" y="89.5" width="6" height="8" fill="#8194ac" opacity="0.5"/>
<rect x="1104.1" y="89.5" width="6" height="8" fill="#8194ac" opacity="0.5"/>
<rect x="1118.1" y="89.5" width="6" height="8" fill="#8194ac" opacity="0.5"/>
<rect x="1090.1" y="105.5" width="6" height="8" fill="#8194ac" opacity="0.5"/>
<rect x="1090.1" y="121.5" width="6" height="8" fill="#8194ac" opacity="0.5"/>
<rect x="1104.1" y="121.5" width="6" height="8" fill="#8194ac" opacity="0.5"/>
<rect x="1118.1" y="121.5" width="6" height="8" fill="#8194ac" opacity="0.5"/>
<rect x="1090.1" y="137.5" width="6" height="8" fill="#8194ac" opacity="0.5"/>
<rect x="1104.1" y="137.5" width="6" height="8" fill="#8194ac" opacity="0.5"/>
<rect x="1118.1" y="137.5" width="6" height="8" fill="#8194ac" opacity="0.5"/>
<rect x="1090.1" y="153.5" width="6" height="8" fill="#8194ac" opacity="0.5"/>
<rect x="1104.1" y="153.5" width="6" height="8" fill="#8194ac" opacity="0.5"/>
<rect x="1118.1" y="153.5" width="6" height="8" fill="#8194ac" opacity="0.5"/>
<rect x="1090.1" y="169.5" width="6" height="8" fill="#8194ac" opacity="0.5"/>
<rect x="1104.1" y="169.5" width="6" height="8" fill="#8194ac" opacity="0.5"/>
<rect x="1090.1" y="185.5" width="6" height="8" fill="#8194ac" opacity="0.5"/>
<rect x="1104.1" y="185.5" width="6" height="8" fill="#8194ac" opacity="0.5"/>
<rect x="1118.1" y="185.5" width="6" height="8" fill="#8194ac" opacity="0.5"/>
<rect x="1090.1" y="201.5" width="6" height="8" fill="#8194ac" opacity="0.5"/>
<rect x="1104.1" y="201.5" width="6" height="8" fill="#8194ac" opacity="0.5"/>
<rect x="1118.1" y="201.5" width="6" height="8" fill="#8194ac" opacity="0.5"/>
<rect x="1118.1" y="217.5" width="6" height="8" fill="#8194ac" opacity="0.5"/>
<rect x="1090.1" y="233.5" width="6" height="8" fill="#8194ac" opacity="0.5"/>
<rect x="1104.1" y="233.5" width="6" height="8" fill="#8194ac" opacity="0.5"/>
<rect x="1118.1" y="233.5" width="6" height="8" fill="#8194ac" opacity="0.5"/>
<rect x="1090.1" y="265.5" width="6" height="8" fill="#8194ac" opacity="0.5"/>
<rect x="1104.1" y="265.5" width="6" height="8" fill="#8194ac" opacity="0.5"/>
<rect x="1118.1" y="265.5" width="6" height="8" fill="#8194ac" opacity="0.5"/>
<line x1="1107.1" y1="77.5" x2="1107.1" y2="62.5" stroke="#3d5a80" stroke-width="2"/>
<rect x="0" y="298" width="1200" height="2" fill="#375173" opacity="0.15"/>
</svg>