<svg xmlns="http://www.w3.org/2000/svg" viewBox="0 0 1200 300" width="1200" height="300">
<defs>
<linearGradient id="skyGrad" x1="0" y1="0" x2="0" y2="1">
<stop offset="0%" stop-color="#818cf8"/>
<stop offset="20%" stop-color="#c4b5fd"/>
<stop offset="38%" stop-color="#fda4af"/>
<stop offset="55%" stop-color="#fdba74"/>
<stop offset="75%" stop-color="#fef08a"/>
<stop offset="100%" stop-color="#fef9c3"/>
</linearGradient>
<linearGradient id="bldg_coral" x1="0" y1="0" x2="0" y2="1"><stop offset="0%" stop-color="#fecaca"/><stop offset="100%" stop-color="#fca5a5"/></linearGradient>
<linearGradient id="bldg_teal" x1="0" y1="0" x2="0" y2="1"><stop offset="0%" stop-color="#99f6e4"/><stop offset="100%" stop-color="#5eead4"/></linearGradient>
<linearGradient id="bldg_amber" x1="0" y1="0" x2="0" y2="1"><stop offset="0%" stop-color="#fde68a"/><stop offset="100%" stop-color="#fcd34d"/></linearGradient>
<linearGradient id="bldg_lavender" x1="0" y1="0" x2="0" y2="1"><stop offset="0%" stop-color="#ddd6fe"/><stop offset="100%" stop-color="#c4b5fd"/></linearGradient>
<linearGradient id="bldg_blue" x1="0" y1="0" x2="0" y2="1"><stop offset="0%" stop-color="#bfdbfe"/><stop offset="100%" stop-color="#93c5fd"/></linearGradient>
<linearGradient id="bldg_mint" x1="0" y1="0" x2="0" y2="1"><stop offset="0%" stop-color="#a7f3d0"/><stop offset="100%" stop-color="#6ee7b7"/></linearGradient>
<linearGradient id="bldg_rose" x1="0" y1="0" x2="0" y2="1"><stop offset="0%" stop-color="#fecdd3"/><stop offset="100%" stop-color="#fda4af"/></linearGradient>
<linearGradient id="bldg_sky" x1="0" y1="0" x2="0" y2="1"><stop offset="0%" stop-color="#bae6fd"/><stop offset="100%" stop-color="#7dd3fc"/></linearGradient>
<linearGradient id="roof_navyRoof" x1="0" y1="0" x2="0" y2="1"><stop offset="0%" stop-color="#4338ca"/><stop offset="100%" stop-color="#3730a3"/></linearGradient>
<linearGradient id="roof_coralRoof" x1="0" y1="0" x2="0" y2="1"><stop offset="0%" stop-color="#f87171"/><stop offset="100%" stop-color="#ef4444"/></linearGradient>
<linearGradient id="roof_tealRoof" x1="0" y1="0" x2="0" y2="1"><stop offset="0%" stop-color="#2dd4bf"/><stop offset="100%" stop-color="#14b8a6"/></linearGradient>
<radialGradient id="windowGlow" cx="50%" cy="50%" r="50%"><stop offset="0%" stop-color="#fef08a"/><stop offset="60%" stop-color="#fbbf24"/><stop offset="100%" stop-color="#f59e0b"/></radialGradient>
<linearGradient id="hillFar" x1="0" y1="0" x2="0" y2="1"><stop offset="0%" stop-color="#c4b5fd"/><stop offset="100%" stop-color="#a5b4fc"/></linearGradient>
<linearGradient id="hillMid" x1="0" y1="0" x2="0" y2="1"><stop offset="0%" stop-color="#86efac"/><stop offset="100%" stop-color="#4ade80"/></linearGradient>
<linearGradient id="hillNear" x1="0" y1="0" x2="0" y2="1"><stop offset="0%" stop-color="#34d399"/><stop offset="100%" stop-color="#10b981"/></linearGradient>
<linearGradient id="hillDesertFar" x1="0" y1="0" x2="0" y2="1"><stop offset="0%" stop-color="#fde68a"/><stop offset="100%" stop-color="#fcd34d"/></linearGradient>
<linearGradient id="hillDesertMid" x1="0" y1="0" x2="0" y2="1"><stop offset="0%" stop-color="#fcd34d"/><stop offset="100%" stop-color="#fbbf24"/></linearGradient>
<linearGradient id="hillDesertNear" x1="0" y1="0" x2="0" y2="1"><stop offset="0%" stop-color="#fbbf24"/><stop offset="100%" stop-color="#f59e0b"/></linearGradient>
<linearGradient id="groundGrad" x1="0" y1="0" x2="0" y2="1"><stop offset="0%" stop-color="#fef3c7"/><stop offset="100%" stop-color="#fde68a"/></linearGradient>
<linearGradient id="waterGrad" x1="0" y1="0" x2="0" y2="1"><stop offset="0%" stop-color="#bfdbfe"/><stop offset="100%" stop-color="#93c5fd"/></linearGradient>
<filter id="softGlow" x="-50%" y="-50%" width="200%" height="200%"><feGaussianBlur in="SourceGraphic" stdDeviation="12"/></filter>
</defs>
<rect width="1200" height="300" fill="url(#skyGrad)"/>
<circle cx="967.3" cy="38.5" r="45" fill="#fef08a" opacity="0.12" filter="url(#softGlow)"/>
<circle cx="967.3" cy="38.5" r="30" fill="#fde68a" opacity="0.18" filter="url(#softGlow)"/>
<circle cx="967.3" cy="38.5" r="16" fill="#fef9c3" opacity="0.25" filter="url(#softGlow)"/>
<ellipse cx="261.6" cy="22.8" rx="43.7" ry="15.3" fill="white" opacity="0.5"/>
<ellipse cx="234.3" cy="27.2" rx="30.6" ry="12.0" fill="white" opacity="0.5"/>
<ellipse cx="285.6" cy="26.1" rx="35.0" ry="13.1" fill="white" opacity="0.4"/>
<ellipse cx="761.6" cy="22.0" rx="34.3" ry="12.0" fill="white" opacity="0.7"/>
<ellipse cx="740.1" cy="25.4" rx="24.0" ry="9.4" fill="white" opacity="0.6"/>
<ellipse cx="780.5" cy="24.6" rx="27.5" ry="10.3" fill="white" opacity="0.6"/>
<path d="M0 300 L0.0 178.2 C207.3 178.2, 207.3 180.4, 414.6 180.4 C639.7 180.4, 639.7 177.8, 864.7 177.8 C1032.4 177.8, 1032.4 191.4, 1200.0 191.4 L1200 300 Z" fill="url(#hillFar)" opacity="0.5"/>
<path d="M0 300 L0.0 203.6 C219.4 203.6, 219.4 205.2, 438.8 205.2 C571.5 205.2, 571.5 210.6, 704.1 210.6 C952.1 210.6, 952.1 220.8, 1200.0 220.8 L1200 300 Z" fill="url(#hillMid)" opacity="0.7"/>
<path d="M0 300 L0.0 225.8 C233.9 225.8, 233.9 228.9, 467.8 228.9 C589.7 228.9, 589.7 231.5, 711.6 231.5 C955.8 231.5, 955.8 239.9, 1200.0 239.9 L1200 300 Z" fill="url(#hillNear)" opacity="1"/>
<rect x="0" y="226.1" width="1200" height="73.9" fill="url(#waterGrad)" opacity="0.6"/>
<path d="M0 244.5 Q60.0 242.7 120.0 243.3 Q180.0 244.4 240.0 243.6 Q300.0 245.7 360.0 244.5 Q420.0 242.9 480.0 243.9 Q540.0 244.1 600.0 244.9 Q660.0 242.2 720.0 244.6 Q780.0 246.4 840.0 244.5 Q900.0 246.1 960.0 245.3 Q1020.0 244.6 1080.0 245.4 Q1140.0 245.3 1200.0 244.5" fill="none" stroke="#bfdbfe" stroke-width="1" opacity="0.5"/>
<path d="M0 263.0 Q60.0 261.9 120.0 264.3 Q180.0 262.0 240.0 261.7 Q300.0 264.9 360.0 263.9 Q420.0 261.7 480.0 264.2 Q540.0 264.0 600.0 264.4 Q660.0 262.0 720.0 264.1 Q780.0 263.1 840.0 261.7 Q900.0 265.2 960.0 263.5 Q1020.0 264.3 1080.0 264.4 Q1140.0 261.5 1200.0 262.9" fill="none" stroke="#bfdbfe" stroke-width="1" opacity="0.5"/>
<path d="M0 281.5 Q60.0 283.4 120.0 281.8 Q180.0 281.5 240.0 281.4 Q300.0 283.7 360.0 281.3 Q420.0 283.7 480.0 281.0 Q540.0 283.8 600.0 281.3 Q660.0 282.8 720.0 280.6 Q780.0 283.0 840.0 281.5 Q900.0 279.7 960.0 280.2 Q1020.0 281.9 1080.0 281.0 Q1140.0 280.7 1200.0 281.9" fill="none" stroke="#bfdbfe" stroke-width="1" opacity="0.5"/>
<rect x="134.5" y="215.7" width="52.7" height="84.3" rx="3" fill="url(#bldg_blue)" opacity="0.7"/>
<polygon points="134.5,215.7 160.9,204.6 187.3,215.7" fill="url(#roof_tealRoof)" opacity="0.7"/>
<rect x="150.9" y="225.7" width="6" height="8" rx="1" fill="url(#windowGlow)" opacity="0.8623206435061621"/>
<rect x="150.9" y="240.7" width="6" height="8" rx="1" fill="url(#windowGlow)" opacity="0.9699637929303402"/>
<rect x="150.9" y="255.7" width="6" height="8" rx="1" fill="url(#windowGlow)" opacity="0.9747152861089983"/>
<rect x="164.9" y="255.7" width="6" height="8" rx="1" fill="url(#windowGlow)" opacity="0.8857777694639646"/>
<rect x="442.9" y="221.7" width="59.2" height="78.3" rx="3" fill="url(#bldg_mint)" opacity="0.7"/>
<rect x="442.9" y="218.7" width="59.2" height="3" rx="1" fill="url(#roof_navyRoof)" opacity="0.7"/>
<rect x="455.5" y="231.7" width="6" height="8" rx="1" fill="url(#windowGlow)" opacity="0.7396099751068325"/>
<rect x="483.5" y="231.7" width="6" height="8" rx="1" fill="url(#windowGlow)" opacity="0.7532299286468094"/>
<rect x="455.5" y="246.7" width="6" height="8" rx="1" fill="url(#windowGlow)" opacity="0.7575924178387934"/>
<rect x="469.5" y="246.7" width="6" height="8" rx="1" fill="url(#windowGlow)" opacity="0.9843879459353106"/>
<rect x="483.5" y="246.7" width="6" height="8" rx="1" fill="url(#windowGlow)" opacity="0.9191249963450827"/>
<rect x="677.2" y="187.8" width="59.3" height="112.2" rx="3" fill="url(#bldg_rose)" opacity="0.7"/>
<polygon points="677.2,187.8 706.8,175.6 736.5,187.8" fill="url(#roof_coralRoof)" opacity="0.7"/>
<rect x="703.8" y="197.8" width="6" height="8" rx="1" fill="url(#windowGlow)" opacity="0.9629718873011748"/>
<rect x="689.8" y="212.8" width="6" height="8" rx="1" fill="url(#windowGlow)" opacity="0.7481021739300816"/>
<rect x="703.8" y="212.8" width="6" height="8" rx="1" fill="url(#windowGlow)" opacity="0.9662146359524757"/>
<rect x="703.8" y="227.8" width="6" height="8" rx="1" fill="url(#windowGlow)" opacity="0.7266654629850133"/>
<rect x="717.8" y="227.8" width="6" height="8" rx="1" fill="url(#windowGlow)" opacity="0.9110629041265057"/>
<rect x="689.8" y="242.8" width="6" height="8" rx="1" fill="url(#windowGlow)" opacity="0.9258578877550818"/>
<rect x="717.8" y="242.8" width="6" height="8" rx="1" fill="url(#windowGlow)" opacity="0.706158431808538"/>
<rect x="703.8" y="257.8" width="6" height="8" rx="1" fill="url(#windowGlow)" opacity="0.8103246152449047"/>
<rect x="717.8" y="257.8" width="6" height="8" rx="1" fill="url(#windowGlow)" opacity="0.9623225025657203"/>
<rect x="1011.9" y="171.4" width="75.0" height="128.6" rx="3" fill="url(#bldg_sky)" opacity="0.7"/>
<polygon points="1011.9,171.4 1049.4,154.2 1087.0,171.4" fill="url(#roof_tealRoof)" opacity="0.7"/>
<rect x="1025.4" y="181.4" width="6" height="8" rx="1" fill="url(#windowGlow)" opacity="0.9773308796702562"/>
<rect x="1039.4" y="181.4" width="6" height="8" rx="1" fill="url(#windowGlow)" opacity="0.8973624509281304"/>
<rect x="1053.4" y="181.4" width="6" height="8" rx="1" fill="url(#windowGlow)" opacity="0.8174858453764979"/>
<rect x="1067.4" y="181.4" width="6" height="8" rx="1" fill="url(#windowGlow)" opacity="0.8708252655672026"/>
<rect x="1025.4" y="196.4" width="6" height="8" rx="1" fill="url(#windowGlow)" opacity="0.7497129731577415"/>
<rect x="1039.4" y="196.4" width="6" height="8" rx="1" fill="url(#windowGlow)" opacity="0.845856144300595"/>
<rect x="1025.4" y="211.4" width="6" height="8" rx="1" fill="url(#windowGlow)" opacity="0.7497554925967731"/>
<rect x="1039.4" y="211.4" width="6" height="8" rx="1" fill="url(#windowGlow)" opacity="0.9311687415145191"/>
<rect x="1053.4" y="211.4" width="6" height="8" rx="1" fill="url(#windowGlow)" opacity="0.7622368935319767"/>
<rect x="1067.4" y="211.4" width="6" height="8" rx="1" fill="url(#windowGlow)" opacity="0.9092184688473206"/>
<rect x="1025.4" y="226.4" width="6" height="8" rx="1" fill="url(#windowGlow)" opacity="0.8185887286526098"/>
<rect x="1053.4" y="226.4" width="6" height="8" rx="1" fill="url(#windowGlow)" opacity="0.7032094393871768"/>
<rect x="1067.4" y="226.4" width="6" height="8" rx="1" fill="url(#windowGlow)" opacity="0.8218357973368073"/>
<rect x="1025.4" y="241.4" width="6" height="8" rx="1" fill="url(#windowGlow)" opacity="0.9719780508763985"/>
<rect x="1053.4" y="241.4" width="6" height="8" rx="1" fill="url(#windowGlow)" opacity="0.9085495320654239"/>
<rect x="1039.4" y="256.4" width="6" height="8" rx="1" fill="url(#windowGlow)" opacity="0.9836821008397648"/>
<rect x="1053.4" y="256.4" width="6" height="8" rx="1" fill="url(#windowGlow)" opacity="0.853605523916709"/>
<rect x="1067.4" y="256.4" width="6" height="8" rx="1" fill="url(#windowGlow)" opacity="0.8778777220649074"/>
<rect x="127.3" y="202.2" width="73.2" height="97.8" rx="3" fill="url(#bldg_coral)" opacity="0.85"/>
<polygon points="127.3,202.2 163.9,185.9 200.5,202.2" fill="url(#roof_navyRoof)" opacity="0.85"/>
<rect x="139.9" y="212.2" width="6" height="8" rx="1" fill="url(#windowGlow)" opacity="0.7604141115026614"/>
<rect x="167.9" y="212.2" width="6" height="8" rx="1" fill="url(#windowGlow)" opacity="0.7856924055543226"/>
<rect x="181.9" y="212.2" width="6" height="8" rx="1" fill="url(#windowGlow)" opacity="0.9041327590142063"/>
<rect x="181.9" y="227.2" width="6" height="8" rx="1" fill="url(#windowGlow)" opacity="0.8262510175007632"/>
<rect x="139.9" y="242.2" width="6" height="8" rx="1" fill="url(#windowGlow)" opacity="0.787959456531312"/>
<rect x="167.9" y="242.2" width="6" height="8" rx="1" fill="url(#windowGlow)" opacity="0.809266916713336"/>
<rect x="181.9" y="242.2" width="6" height="8" rx="1" fill="url(#windowGlow)" opacity="0.9575921703398191"/>
<rect x="167.9" y="257.2" width="6" height="8" rx="1" fill="url(#windowGlow)" opacity="0.9559214877225093"/>
<rect x="181.9" y="257.2" width="6" height="8" rx="1" fill="url(#windowGlow)" opacity="0.9959331308938251"/>
<path d="M134.6 236.5 L163.9 236.5 L160.9 242.5 L137.6 242.5 Z" fill="url(#roof_tealRoof)" opacity="0.68"/>
<rect x="320.0" y="182.4" width="71.1" height="117.6" rx="3" fill="url(#bldg_teal)" opacity="0.85"/>
<rect x="320.0" y="179.4" width="71.1" height="3" rx="1" fill="url(#roof_coralRoof)" opacity="0.85"/>
<rect x="338.5" y="192.4" width="6" height="8" rx="1" fill="url(#windowGlow)" opacity="0.7867925547933171"/>
<rect x="352.5" y="192.4" width="6" height="8" rx="1" fill="url(#windowGlow)" opacity="0.9184242122426741"/>
<rect x="338.5" y="207.4" width="6" height="8" rx="1" fill="url(#windowGlow)" opacity="0.9678737145233312"/>
<rect x="352.5" y="207.4" width="6" height="8" rx="1" fill="url(#windowGlow)" opacity="0.8626541598526081"/>
<rect x="366.5" y="207.4" width="6" height="8" rx="1" fill="url(#windowGlow)" opacity="0.9084368685299702"/>
<rect x="366.5" y="222.4" width="6" height="8" rx="1" fill="url(#windowGlow)" opacity="0.7750441260053982"/>
<rect x="338.5" y="237.4" width="6" height="8" rx="1" fill="url(#windowGlow)" opacity="0.7834323684142122"/>
<rect x="352.5" y="252.4" width="6" height="8" rx="1" fill="url(#windowGlow)" opacity="0.9471781201414662"/>
<rect x="366.5" y="252.4" width="6" height="8" rx="1" fill="url(#windowGlow)" opacity="0.9682657203489289"/>
<rect x="582.4" y="140.1" width="55.9" height="159.9" rx="3" fill="url(#bldg_amber)" opacity="0.85"/>
<rect x="582.4" y="137.1" width="55.9" height="3" rx="1" fill="url(#roof_tealRoof)" opacity="0.85"/>
<rect x="600.3" y="150.1" width="6" height="8" rx="1" fill="url(#windowGlow)" opacity="0.9943371591131841"/>
<rect x="614.3" y="150.1" width="6" height="8" rx="1" fill="url(#windowGlow)" opacity="0.8600063818786322"/>
<rect x="600.3" y="165.1" width="6" height="8" rx="1" fill="url(#windowGlow)" opacity="0.724689912947216"/>
<rect x="614.3" y="165.1" width="6" height="8" rx="1" fill="url(#windowGlow)" opacity="0.7659838386652915"/>
<rect x="600.3" y="180.1" width="6" height="8" rx="1" fill="url(#windowGlow)" opacity="0.7187754191079994"/>
<rect x="614.3" y="180.1" width="6" height="8" rx="1" fill="url(#windowGlow)" opacity="0.8468888252260577"/>
<rect x="600.3" y="195.1" width="6" height="8" rx="1" fill="url(#windowGlow)" opacity="0.7516052646337101"/>
<rect x="614.3" y="195.1" width="6" height="8" rx="1" fill="url(#windowGlow)" opacity="0.7775799591921176"/>
<rect x="600.3" y="210.1" width="6" height="8" rx="1" fill="url(#windowGlow)" opacity="0.7694518703825082"/>
<rect x="614.3" y="210.1" width="6" height="8" rx="1" fill="url(#windowGlow)" opacity="0.7111530105169643"/>
<rect x="614.3" y="225.1" width="6" height="8" rx="1" fill="url(#windowGlow)" opacity="0.856193139663056"/>
<rect x="614.3" y="240.1" width="6" height="8" rx="1" fill="url(#windowGlow)" opacity="0.900832378911242"/>
<rect x="614.3" y="255.1" width="6" height="8" rx="1" fill="url(#windowGlow)" opacity="0.7167241948734615"/>
<rect x="806.7" y="199.8" width="67.6" height="100.2" rx="3" fill="url(#bldg_lavender)" opacity="0.85"/>
<polygon points="806.7,199.8 840.5,176.8 874.3,199.8" fill="url(#roof_navyRoof)" opacity="0.85"/>
<rect x="837.5" y="209.8" width="6" height="8" rx="1" fill="url(#windowGlow)" opacity="0.8534897093444549"/>
<rect x="851.5" y="209.8" width="6" height="8" rx="1" fill="url(#windowGlow)" opacity="0.929150997115835"/>
<rect x="823.5" y="224.8" width="6" height="8" rx="1" fill="url(#windowGlow)" opacity="0.8724421518726471"/>
<rect x="837.5" y="224.8" width="6" height="8" rx="1" fill="url(#windowGlow)" opacity="0.7704501551904017"/>
<rect x="851.5" y="224.8" width="6" height="8" rx="1" fill="url(#windowGlow)" opacity="0.829088997900993"/>
<rect x="837.5" y="239.8" width="6" height="8" rx="1" fill="url(#windowGlow)" opacity="0.8828779070092727"/>
<rect x="851.5" y="239.8" width="6" height="8" rx="1" fill="url(#windowGlow)" opacity="0.9185845499479139"/>
<rect x="823.5" y="254.8" width="6" height="8" rx="1" fill="url(#windowGlow)" opacity="0.9682538811900903"/>
<rect x="837.5" y="254.8" width="6" height="8" rx="1" fill="url(#windowGlow)" opacity="0.978805431341196"/>
<path d="M840.5 234.9 L867.5 234.9 L864.5 240.9 L843.5 240.9 Z" fill="url(#roof_tealRoof)" opacity="0.68"/>
<rect x="1002.4" y="210.9" width="55.3" height="89.1" rx="3" fill="url(#bldg_blue)" opacity="0.85"/>
<rect x="1013.5" y="200.2" width="33.2" height="10.7" rx="2" fill="url(#roof_coralRoof)" opacity="0.85"/>
<rect x="1020.1" y="220.9" width="6" height="8" rx="1" fill="url(#windowGlow)" opacity="0.9459667012775161"/>
<rect x="1034.1" y="220.9" width="6" height="8" rx="1" fill="url(#windowGlow)" opacity="0.9790250338516314"/>
<rect x="1020.1" y="235.9" width="6" height="8" rx="1" fill="url(#windowGlow)" opacity="0.7417179872941775"/>
<rect x="1034.1" y="235.9" width="6" height="8" rx="1" fill="url(#windowGlow)" opacity="0.7629586723460623"/>
<rect x="1020.1" y="250.9" width="6" height="8" rx="1" fill="url(#windowGlow)" opacity="0.9687661317031673"/>
<rect x="1034.1" y="250.9" width="6" height="8" rx="1" fill="url(#windowGlow)" opacity="0.959977971371253"/>
<rect x="133.1" y="185.7" width="65.2" height="114.3" rx="3" fill="url(#bldg_mint)" opacity="1"/>
<polygon points="133.1,185.7 165.7,163.8 198.3,185.7" fill="url(#roof_tealRoof)" opacity="1"/>
<rect x="148.7" y="195.7" width="6" height="8" rx="1" fill="url(#windowGlow)" opacity="0.7783521441176311"/>
<rect x="162.7" y="195.7" width="6" height="8" rx="1" fill="url(#windowGlow)" opacity="0.7229495033728655"/>
<rect x="176.7" y="195.7" width="6" height="8" rx="1" fill="url(#windowGlow)" opacity="0.721840649387725"/>
<rect x="148.7" y="210.7" width="6" height="8" rx="1" fill="url(#windowGlow)" opacity="0.8021625457807269"/>
<rect x="162.7" y="210.7" width="6" height="8" rx="1" fill="url(#windowGlow)" opacity="0.8704538876053196"/>
<rect x="176.7" y="210.7" width="6" height="8" rx="1" fill="url(#windowGlow)" opacity="0.8467260700402437"/>
<rect x="148.7" y="225.7" width="6" height="8" rx="1" fill="url(#windowGlow)" opacity="0.9619100116481585"/>
<rect x="162.7" y="225.7" width="6" height="8" rx="1" fill="url(#windowGlow)" opacity="0.8939473862731584"/>
<rect x="176.7" y="225.7" width="6" height="8" rx="1" fill="url(#windowGlow)" opacity="0.8879120072293616"/>
<rect x="148.7" y="240.7" width="6" height="8" rx="1" fill="url(#windowGlow)" opacity="0.8553517916031887"/>
<rect x="162.7" y="240.7" width="6" height="8" rx="1" fill="url(#windowGlow)" opacity="0.965033923492317"/>
<rect x="148.7" y="255.7" width="6" height="8" rx="1" fill="url(#windowGlow)" opacity="0.7276701760141505"/>
<rect x="176.7" y="255.7" width="6" height="8" rx="1" fill="url(#windowGlow)" opacity="0.731968376427874"/>
<rect x="160.7" y="284.0" width="10" height="16" rx="2" fill="url(#roof_navyRoof)" opacity="0.8"/>
<rect x="162.7" y="287.0" width="6" height="10" rx="1" fill="url(#windowGlow)" opacity="0.45"/>
<rect x="462.1" y="87.3" width="54.8" height="212.7" rx="3" fill="url(#bldg_rose)" opacity="1"/>
<rect x="462.1" y="84.3" width="54.8" height="3" rx="1" fill="url(#roof_navyRoof)" opacity="1"/>
<rect x="479.5" y="97.3" width="6" height="8" rx="1" fill="url(#windowGlow)" opacity="0.8611050688946177"/>
<rect x="493.5" y="97.3" width="6" height="8" rx="1" fill="url(#windowGlow)" opacity="0.8011953882878624"/>
<rect x="479.5" y="112.3" width="6" height="8" rx="1" fill="url(#windowGlow)" opacity="0.7114455802885096"/>
<rect x="493.5" y="112.3" width="6" height="8" rx="1" fill="url(#windowGlow)" opacity="0.8016123471789119"/>
<rect x="493.5" y="127.3" width="6" height="8" rx="1" fill="url(#windowGlow)" opacity="0.9510328689827736"/>
<rect x="479.5" y="142.3" width="6" height="8" rx="1" fill="url(#windowGlow)" opacity="0.8365236845503206"/>
<rect x="493.5" y="142.3" width="6" height="8" rx="1" fill="url(#windowGlow)" opacity="0.7581551677818201"/>
<rect x="479.5" y="157.3" width="6" height="8" rx="1" fill="url(#windowGlow)" opacity="0.91357953353486"/>
<rect x="493.5" y="157.3" width="6" height="8" rx="1" fill="url(#windowGlow)" opacity="0.8016082351569124"/>
<rect x="479.5" y="172.3" width="6" height="8" rx="1" fill="url(#windowGlow)" opacity="0.9443566643839499"/>
<rect x="479.5" y="187.3" width="6" height="8" rx="1" fill="url(#windowGlow)" opacity="0.8759452483039094"/>
<rect x="493.5" y="202.3" width="6" height="8" rx="1" fill="url(#windowGlow)" opacity="0.8956082817612254"/>
<rect x="484.5" y="284.0" width="10" height="16" rx="2" fill="url(#roof_navyRoof)" opacity="0.8"/>
<rect x="486.5" y="287.0" width="6" height="10" rx="1" fill="url(#windowGlow)" opacity="0.45"/>
<path d="M467.6 161.7 L489.5 161.7 L486.5 167.7 L470.6 167.7 Z" fill="url(#roof_tealRoof)" opacity="0.8"/>
<rect x="693.7" y="121.6" width="69.2" height="178.4" rx="3" fill="url(#bldg_sky)" opacity="1"/>
<rect x="693.7" y="118.6" width="69.2" height="3" rx="1" fill="url(#roof_coralRoof)" opacity="1"/>
<rect x="711.3" y="131.6" width="6" height="8" rx="1" fill="url(#windowGlow)" opacity="0.9041658291146931"/>
<rect x="725.3" y="131.6" width="6" height="8" rx="1" fill="url(#windowGlow)" opacity="0.9493943431179013"/>
<rect x="739.3" y="131.6" width="6" height="8" rx="1" fill="url(#windowGlow)" opacity="0.9990077167744784"/>
<rect x="711.3" y="146.6" width="6" height="8" rx="1" fill="url(#windowGlow)" opacity="0.8294550044599245"/>
<rect x="725.3" y="146.6" width="6" height="8" rx="1" fill="url(#windowGlow)" opacity="0.9418825169754599"/>
<rect x="739.3" y="146.6" width="6" height="8" rx="1" fill="url(#windowGlow)" opacity="0.8060482341824323"/>
<rect x="711.3" y="161.6" width="6" height="8" rx="1" fill="url(#windowGlow)" opacity="0.7541233042972736"/>
<rect x="711.3" y="176.6" width="6" height="8" rx="1" fill="url(#windowGlow)" opacity="0.8910986454650287"/>
<rect x="725.3" y="176.6" width="6" height="8" rx="1" fill="url(#windowGlow)" opacity="0.8721842587330304"/>
<rect x="739.3" y="176.6" width="6" height="8" rx="1" fill="url(#windowGlow)" opacity="0.7161750009824405"/>
<rect x="725.3" y="191.6" width="6" height="8" rx="1" fill="url(#windowGlow)" opacity="0.9872057340513941"/>
<rect x="739.3" y="191.6" width="6" height="8" rx="1" fill="url(#windowGlow)" opacity="0.9037489371391707"/>
<rect x="711.3" y="206.6" width="6" height="8" rx="1" fill="url(#windowGlow)" opacity="0.7655488197065651"/>
<rect x="725.3" y="206.6" width="6" height="8" rx="1" fill="url(#windowGlow)" opacity="0.811433868068938"/>
<rect x="711.3" y="221.6" width="6" height="8" rx="1" fill="url(#windowGlow)" opacity="0.8057598763172328"/>
<rect x="725.3" y="221.6" width="6" height="8" rx="1" fill="url(#windowGlow)" opacity="0.8656953715093878"/>
<rect x="739.3" y="221.6" width="6" height="8" rx="1" fill="url(#windowGlow)" opacity="0.9358593657314123"/>
<rect x="711.3" y="236.6" width="6" height="8" rx="1" fill="url(#windowGlow)" opacity="0.953826859478758"/>
<rect x="725.3" y="236.6" width="6" height="8" rx="1" fill="url(#windowGlow)" opacity="0.8893102948969743"/>
<rect x="739.3" y="236.6" width="6" height="8" rx="1" fill="url(#windowGlow)" opacity="0.969275141213683"/>
<rect x="723.3" y="284.0" width="10" height="16" rx="2" fill="url(#roof_navyRoof)" opacity="0.8"/>
<rect x="725.3" y="287.0" width="6" height="10" rx="1" fill="url(#windowGlow)" opacity="0.45"/>
<rect x="991.8" y="167.2" width="66.8" height="132.8" rx="3" fill="url(#bldg_coral)" opacity="1"/>
<rect x="1005.1" y="151.3" width="40.1" height="15.9" rx="2" fill="url(#roof_tealRoof)" opacity="1"/>
<rect x="1008.2" y="177.2" width="6" height="8" rx="1" fill="url(#windowGlow)" opacity="0.8425130556069841"/>
<rect x="1022.2" y="177.2" width="6" height="8" rx="1" fill="url(#windowGlow)" opacity="0.972748593088588"/>
<rect x="1036.2" y="177.2" width="6" height="8" rx="1" fill="url(#windowGlow)" opacity="0.8663477712154144"/>
<rect x="1008.2" y="192.2" width="6" height="8" rx="1" fill="url(#windowGlow)" opacity="0.8967599336042813"/>
<rect x="1022.2" y="192.2" width="6" height="8" rx="1" fill="url(#windowGlow)" opacity="0.721485889526776"/>
<rect x="1008.2" y="207.2" width="6" height="8" rx="1" fill="url(#windowGlow)" opacity="0.8832620468378356"/>
<rect x="1022.2" y="207.2" width="6" height="8" rx="1" fill="url(#windowGlow)" opacity="0.8582068252648258"/>
<rect x="1036.2" y="207.2" width="6" height="8" rx="1" fill="url(#windowGlow)" opacity="0.88584499679778"/>
<rect x="1008.2" y="222.2" width="6" height="8" rx="1" fill="url(#windowGlow)" opacity="0.9116635778507514"/>
<rect x="1008.2" y="237.2" width="6" height="8" rx="1" fill="url(#windowGlow)" opacity="0.9908237695651239"/>
<rect x="1022.2" y="237.2" width="6" height="8" rx="1" fill="url(#windowGlow)" opacity="0.8308558417627847"/>
<rect x="1036.2" y="237.2" width="6" height="8" rx="1" fill="url(#windowGlow)" opacity="0.7164566625451932"/>
<rect x="1008.2" y="252.2" width="6" height="8" rx="1" fill="url(#windowGlow)" opacity="0.9371702839327838"/>
<rect x="1036.2" y="252.2" width="6" height="8" rx="1" fill="url(#windowGlow)" opacity="0.7636527977248899"/>
<rect x="1020.2" y="284.0" width="10" height="16" rx="2" fill="url(#roof_navyRoof)" opacity="0.8"/>
<rect x="1022.2" y="287.0" width="6" height="10" rx="1" fill="url(#windowGlow)" opacity="0.45"/>
<path d="M1025.2 213.7 L1051.9 213.7 L1048.9 219.7 L1028.2 219.7 Z" fill="url(#roof_coralRoof)" opacity="0.8"/>
<rect x="1013.5" y="193.2" width="23.4" height="5" rx="1" fill="#15803d" opacity="0.7"/>
<circle cx="1016.5" cy="192.2" r="2.5" fill="#a78bfa" opacity="0.85"/>
<circle cx="1024.3" cy="192.2" r="2.5" fill="#a78bfa" opacity="0.85"/>
<circle cx="1032.1" cy="192.2" r="2.5" fill="#fbbf24" opacity="0.85"/>
<rect x="446.1" y="88.1" width="23.8" height="211.9" rx="2" fill="url(#bldg_blue)" opacity="0.85"/>
<rect x="449.1" y="94.1" width="17.8" height="4" rx="0.5" fill="url(#windowGlow)" opacity="0.6841584217660868"/>
<rect x="449.1" y="106.1" width="17.8" height="4" rx="0.5" fill="url(#windowGlow)" opacity="0.638410726673161"/>
<rect x="449.1" y="118.1" width="17.8" height="4" rx="0.5" fill="url(#windowGlow)" opacity="0.5562716338114215"/>
<rect x="449.1" y="130.1" width="17.8" height="4" rx="0.5" fill="url(#windowGlow)" opacity="0.5827896132985082"/>
<rect x="449.1" y="142.1" width="17.8" height="4" rx="0.5" fill="url(#windowGlow)" opacity="0.5225748019398073"/>
<rect x="449.1" y="154.1" width="17.8" height="4" rx="0.5" fill="url(#windowGlow)" opacity="0.5637446331622753"/>
<rect x="449.1" y="166.1" width="17.8" height="4" rx="0.5" fill="url(#windowGlow)" opacity="0.6770283007887323"/>
<rect x="449.1" y="178.1" width="17.8" height="4" rx="0.5" fill="url(#windowGlow)" opacity="0.6737964226276597"/>
<rect x="449.1" y="190.1" width="17.8" height="4" rx="0.5" fill="url(#windowGlow)" opacity="0.43180286806626383"/>
<rect x="449.1" y="202.1" width="17.8" height="4" rx="0.5" fill="url(#windowGlow)" opacity="0.4105841308881455"/>
<rect x="449.1" y="214.1" width="17.8" height="4" rx="0.5" fill="url(#windowGlow)" opacity="0.592099170336546"/>
<rect x="449.1" y="226.1" width="17.8" height="4" rx="0.5" fill="url(#windowGlow)" opacity="0.6129963260204514"/>
<rect x="449.1" y="238.1" width="17.8" height="4" rx="0.5" fill="url(#windowGlow)" opacity="0.6510448812279128"/>
<rect x="449.1" y="250.1" width="17.8" height="4" rx="0.5" fill="url(#windowGlow)" opacity="0.42237208915053503"/>
<rect x="449.1" y="262.1" width="17.8" height="4" rx="0.5" fill="url(#windowGlow)" opacity="0.443316737256626"/>
<rect x="449.1" y="274.1" width="17.8" height="4" rx="0.5" fill="url(#windowGlow)" opacity="0.6336892942123531"/>
<rect x="474.8" y="80.2" width="18.6" height="219.8" rx="2" fill="url(#bldg_sky)" opacity="0.85"/>
<rect x="477.8" y="86.2" width="12.6" height="4" rx="0.5" fill="url(#windowGlow)" opacity="0.6633090563413264"/>
<rect x="477.8" y="98.2" width="12.6" height="4" rx="0.5" fill="url(#windowGlow)" opacity="0.6484432379475065"/>
<rect x="477.8" y="110.2" width="12.6" height="4" rx="0.5" fill="url(#windowGlow)" opacity="0.4220927873729229"/>
<rect x="477.8" y="122.2" width="12.6" height="4" rx="0.5" fill="url(#windowGlow)" opacity="0.5385255740203548"/>
<rect x="477.8" y="134.2" width="12.6" height="4" rx="0.5" fill="url(#windowGlow)" opacity="0.42262964296277133"/>
<rect x="477.8" y="146.2" width="12.6" height="4" rx="0.5" fill="url(#windowGlow)" opacity="0.4480758502837624"/>
<rect x="477.8" y="158.2" width="12.6" height="4" rx="0.5" fill="url(#windowGlow)" opacity="0.49629709948613177"/>
<rect x="477.8" y="170.2" width="12.6" height="4" rx="0.5" fill="url(#windowGlow)" opacity="0.6710882969065981"/>
<rect x="477.8" y="182.2" width="12.6" height="4" rx="0.5" fill="url(#windowGlow)" opacity="0.48883911701330873"/>
<rect x="477.8" y="194.2" width="12.6" height="4" rx="0.5" fill="url(#windowGlow)" opacity="0.6728185019329276"/>
<rect x="477.8" y="206.2" width="12.6" height="4" rx="0.5" fill="url(#windowGlow)" opacity="0.4583592271704037"/>
<rect x="477.8" y="218.2" width="12.6" height="4" rx="0.5" fill="url(#windowGlow)" opacity="0.6342013654924004"/>
<rect x="477.8" y="230.2" width="12.6" height="4" rx="0.5" fill="url(#windowGlow)" opacity="0.469355490929147"/>
<rect x="477.8" y="242.2" width="12.6" height="4" rx="0.5" fill="url(#windowGlow)" opacity="0.5901258644136255"/>
<rect x="477.8" y="254.2" width="12.6" height="4" rx="0.5" fill="url(#windowGlow)" opacity="0.6959565063454008"/>
<rect x="477.8" y="266.2" width="12.6" height="4" rx="0.5" fill="url(#windowGlow)" opacity="0.5451359647536352"/>
<rect x="477.8" y="278.2" width="12.6" height="4" rx="0.5" fill="url(#windowGlow)" opacity="0.48325983280467794"/>
<rect x="494.0" y="103.2" width="28.0" height="196.8" rx="2" fill="url(#bldg_lavender)" opacity="0.85"/>
<rect x="497.0" y="109.2" width="22.0" height="4" rx="0.5" fill="url(#windowGlow)" opacity="0.5972215590985592"/>
<rect x="497.0" y="121.2" width="22.0" height="4" rx="0.5" fill="url(#windowGlow)" opacity="0.6571464457349603"/>
<rect x="497.0" y="133.2" width="22.0" height="4" rx="0.5" fill="url(#windowGlow)" opacity="0.42902845294635206"/>
<rect x="497.0" y="145.2" width="22.0" height="4" rx="0.5" fill="url(#windowGlow)" opacity="0.527258810320524"/>
<rect x="497.0" y="157.2" width="22.0" height="4" rx="0.5" fill="url(#windowGlow)" opacity="0.5127909149568486"/>
<rect x="497.0" y="169.2" width="22.0" height="4" rx="0.5" fill="url(#windowGlow)" opacity="0.5392719073403962"/>
<rect x="497.0" y="181.2" width="22.0" height="4" rx="0.5" fill="url(#windowGlow)" opacity="0.413098606287082"/>
<rect x="497.0" y="193.2" width="22.0" height="4" rx="0.5" fill="url(#windowGlow)" opacity="0.699260636232449"/>
<rect x="497.0" y="205.2" width="22.0" height="4" rx="0.5" fill="url(#windowGlow)" opacity="0.4519336425941129"/>
<rect x="497.0" y="217.2" width="22.0" height="4" rx="0.5" fill="url(#windowGlow)" opacity="0.688039495510999"/>
<rect x="497.0" y="229.2" width="22.0" height="4" rx="0.5" fill="url(#windowGlow)" opacity="0.5826829683886297"/>
<rect x="497.0" y="241.2" width="22.0" height="4" rx="0.5" fill="url(#windowGlow)" opacity="0.6094562690283434"/>
<rect x="497.0" y="253.2" width="22.0" height="4" rx="0.5" fill="url(#windowGlow)" opacity="0.4376828364272056"/>
<rect x="497.0" y="265.2" width="22.0" height="4" rx="0.5" fill="url(#windowGlow)" opacity="0.5649155700881573"/>
<rect x="497.0" y="277.2" width="22.0" height="4" rx="0.5" fill="url(#windowGlow)" opacity="0.630813946868672"/>
<line x1="508.0" y1="103.2" x2="508.0" y2="88.2" stroke="#818cf8" stroke-width="1.5"/>
<circle cx="508.0" cy="88.2" r="2" fill="#f87171" opacity="0.7"/>
<rect x="521.8" y="115.0" width="23.9" height="185.0" rx="2" fill="url(#bldg_teal)" opacity="0.85"/>
<rect x="524.8" y="121.0" width="17.9" height="4" rx="0.5" fill="url(#windowGlow)" opacity="0.5085309990255772"/>
<rect x="524.8" y="133.0" width="17.9" height="4" rx="0.5" fill="url(#windowGlow)" opacity="0.6027097098076296"/>
<rect x="524.8" y="145.0" width="17.9" height="4" rx="0.5" fill="url(#windowGlow)" opacity="0.5212012070795526"/>
<rect x="524.8" y="157.0" width="17.9" height="4" rx="0.5" fill="url(#windowGlow)" opacity="0.48076093251852364"/>
<rect x="524.8" y="169.0" width="17.9" height="4" rx="0.5" fill="url(#windowGlow)" opacity="0.6327785811539639"/>
<rect x="524.8" y="181.0" width="17.9" height="4" rx="0.5" fill="url(#windowGlow)" opacity="0.40925565776846173"/>
<rect x="524.8" y="193.0" width="17.9" height="4" rx="0.5" fill="url(#windowGlow)" opacity="0.6153806584027506"/>
<rect x="524.8" y="205.0" width="17.9" height="4" rx="0.5" fill="url(#windowGlow)" opacity="0.43190167952883135"/>
<rect x="524.8" y="217.0" width="17.9" height="4" rx="0.5" fill="url(#windowGlow)" opacity="0.4847337846107473"/>
<rect x="524.8" y="229.0" width="17.9" height="4" rx="0.5" fill="url(#windowGlow)" opacity="0.6444043103346622"/>
<rect x="524.8" y="241.0" width="17.9" height="4" rx="0.5" fill="url(#windowGlow)" opacity="0.5261111482633796"/>
<rect x="524.8" y="253.0" width="17.9" height="4" rx="0.5" fill="url(#windowGlow)" opacity="0.6006061362571111"/>
<rect x="524.8" y="265.0" width="17.9" height="4" rx="0.5" fill="url(#windowGlow)" opacity="0.6704386609934451"/>
<rect x="524.8" y="277.0" width="17.9" height="4" rx="0.5" fill="url(#windowGlow)" opacity="0.6536212796129386"/>
<rect x="542.0" y="59.5" width="18.1" height="240.5" rx="2" fill="url(#bldg_mint)" opacity="0.85"/>
<rect x="545.0" y="65.5" width="12.1" height="4" rx="0.5" fill="url(#windowGlow)" opacity="0.5432509317264198"/>
<rect x="545.0" y="77.5" width="12.1" height="4" rx="0.5" fill="url(#windowGlow)" opacity="0.49866166817893354"/>
<rect x="545.0" y="89.5" width="12.1" height="4" rx="0.5" fill="url(#windowGlow)" opacity="0.5547898499550251"/>
<rect x="545.0" y="101.5" width="12.1" height="4" rx="0.5" fill="url(#windowGlow)" opacity="0.4165171934368635"/>
<rect x="545.0" y="113.5" width="12.1" height="4" rx="0.5" fill="url(#windowGlow)" opacity="0.6230334763988077"/>
<rect x="545.0" y="125.5" width="12.1" height="4" rx="0.5" fill="url(#windowGlow)" opacity="0.43877063479217265"/>
<rect x="545.0" y="137.5" width="12.1" height="4" rx="0.5" fill="url(#windowGlow)" opacity="0.43248817358747504"/>
<rect x="545.0" y="149.5" width="12.1" height="4" rx="0.5" fill="url(#windowGlow)" opacity="0.5187562939332595"/>
<rect x="545.0" y="161.5" width="12.1" height="4" rx="0.5" fill="url(#windowGlow)" opacity="0.6617079939514902"/>
<rect x="545.0" y="173.5" width="12.1" height="4" rx="0.5" fill="url(#windowGlow)" opacity="0.5400700367708086"/>
<rect x="545.0" y="185.5" width="12.1" height="4" rx="0.5" fill="url(#windowGlow)" opacity="0.5194881448612959"/>
<rect x="545.0" y="197.5" width="12.1" height="4" rx="0.5" fill="url(#windowGlow)" opacity="0.5458734164693735"/>
<rect x="545.0" y="209.5" width="12.1" height="4" rx="0.5" fill="url(#windowGlow)" opacity="0.690076400521247"/>
<rect x="545.0" y="221.5" width="12.1" height="4" rx="0.5" fill="url(#windowGlow)" opacity="0.46199357261042745"/>
<rect x="545.0" y="233.5" width="12.1" height="4" rx="0.5" fill="url(#windowGlow)" opacity="0.593042103989535"/>
<rect x="545.0" y="245.5" width="12.1" height="4" rx="0.5" fill="url(#windowGlow)" opacity="0.5496343367498528"/>
<rect x="545.0" y="257.5" width="12.1" height="4" rx="0.5" fill="url(#windowGlow)" opacity="0.43590335014085446"/>
<rect x="545.0" y="269.5" width="12.1" height="4" rx="0.5" fill="url(#windowGlow)" opacity="0.4655061605691473"/>
<rect x="545.0" y="281.5" width="12.1" height="4" rx="0.5" fill="url(#windowGlow)" opacity="0.6835113695745876"/>
<rect x="327.2" y="264.5" width="6" height="20.5" rx="2" fill="#15803d"/>
<circle cx="330.2" cy="253.3" r="15.2" fill="#22c55e" opacity="0.9"/>
<circle cx="323.9" cy="256.3" r="11.4" fill="#16a34a" opacity="0.8"/>
<circle cx="336.3" cy="257.3" r="10.7" fill="#15803d" opacity="0.7"/>
<rect x="602.3" y="266.3" width="6" height="18.7" rx="2" fill="#15803d"/>
<circle cx="605.3" cy="254.8" r="15.5" fill="#22c55e" opacity="0.9"/>
<circle cx="598.8" cy="257.8" r="11.6" fill="#16a34a" opacity="0.8"/>
<circle cx="612.9" cy="258.8" r="10.9" fill="#15803d" opacity="0.7"/>
<rect x="874.3" y="268.6" width="6" height="16.4" rx="2" fill="#15803d"/>
<circle cx="877.3" cy="254.8" r="17.7" fill="#22c55e" opacity="0.9"/>
<circle cx="870.7" cy="257.8" r="13.3" fill="#16a34a" opacity="0.8"/>
<circle cx="883.5" cy="258.8" r="12.4" fill="#15803d" opacity="0.7"/>
<rect x="0" y="282" width="1200" height="18" fill="url(#groundGrad)"/>
<line x1="999.7" y1="282.0" x2="999.7" y2="240.4" stroke="#92400e" stroke-width="2"/>
<circle cx="999.7" cy="240.4" r="4" fill="#fef08a" opacity="0.6"/>
<circle cx="999.7" cy="240.4" r="8" fill="#fef08a" opacity="0.15" filter="url(#softGlow)"/>
<ellipse cx="648.5" cy="282.0" rx="4.3" ry="3.0" fill="#22c55e" opacity="0.6"/>
<ellipse cx="427.3" cy="282.0" rx="5.0" ry="3.5" fill="#22c55e" opacity="0.6"/>
</svg>