<svg xmlns="http://www.w3.org/2000/svg" viewBox="0 0 1200 400" width="1200" height="400">
<defs>
<linearGradient id="bg" x1="0" y1="0" x2="0" y2="1"><stop offset="0%" stop-color="#f5f0e8"/><stop offset="100%" stop-color="#475569"/></linearGradient>
<linearGradient id="warm" x1="0" y1="0" x2="1" y2="1"><stop offset="0%" stop-color="#838d9b" stop-opacity="0.18"/><stop offset="100%" stop-color="#838d9b" stop-opacity="0.06"/></linearGradient>
</defs>
<rect width="1200" height="400" fill="url(#bg)"/>
<path d="M0 400 L0 226.7843143472509 C60.0 236.0, 90.0 208.8, 150.0 213.5 C210.0 206.4, 240.0 221.9, 300.0 211.9 C360.0 213.4, 390.0 218.4, 450.0 215.4 C510.0 221.9, 540.0 220.3, 600.0 214.8 C660.0 217.6, 690.0 235.0, 750.0 227.4 C810.0 231.3, 840.0 242.3, 900.0 237.2 C960.0 227.6, 990.0 235.5, 1050.0 237.8 C1110.0 229.9, 1140.0 222.6, 1200.0 213.8 L1200 400 Z" fill="#848b95" opacity="0.45"/>
<path d="M0 400 L0 267.3526354921895 C52.5 262.4, 97.5 270.3, 150.0 270.7 C202.5 270.5, 247.5 253.0, 300.0 249.5 C352.5 246.3, 397.5 258.4, 450.0 263.2 C502.5 265.0, 547.5 247.0, 600.0 248.3 C652.5 248.4, 697.5 263.4, 750.0 270.4 C802.5 270.2, 847.5 266.5, 900.0 260.8 C952.5 264.5, 997.5 254.4, 1050.0 249.8 C1102.5 253.8, 1147.5 251.4, 1200.0 251.4 L1200 400 Z" fill="#475569" opacity="0.3"/>
<rect x="997.2" y="287.8" width="31.0" height="112.2" rx="4.4" fill="#973515" opacity="0.60"/>
<rect x="1002.2" y="297.8" width="4" height="5" rx="0.5" fill="#f5f0e8" opacity="0.6"/>
<rect x="1002.2" y="319.8" width="4" height="5" rx="0.5" fill="#f5f0e8" opacity="0.6"/>
<rect x="1002.2" y="363.8" width="4" height="5" rx="0.5" fill="#f5f0e8" opacity="0.6"/>
<rect x="403.4" y="262.4" width="38.6" height="137.6" rx="3.3" fill="#803e2d" opacity="0.72"/>
<rect x="408.4" y="272.4" width="4" height="5" rx="0.5" fill="#f5f0e8" opacity="0.6"/>
<rect x="421.3" y="272.4" width="4" height="5" rx="0.5" fill="#f5f0e8" opacity="0.6"/>
<rect x="408.4" y="294.4" width="4" height="5" rx="0.5" fill="#f5f0e8" opacity="0.6"/>
<rect x="408.4" y="316.4" width="4" height="5" rx="0.5" fill="#f5f0e8" opacity="0.6"/>
<rect x="421.3" y="316.4" width="4" height="5" rx="0.5" fill="#f5f0e8" opacity="0.6"/>
<rect x="408.4" y="338.4" width="4" height="5" rx="0.5" fill="#f5f0e8" opacity="0.6"/>
<rect x="421.3" y="338.4" width="4" height="5" rx="0.5" fill="#f5f0e8" opacity="0.6"/>
<rect x="420.0" y="251.3" width="28.3" height="148.7" rx="7.7" fill="#843d29" opacity="0.83"/>
<rect x="886.3" y="306.2" width="40.6" height="93.8" rx="3.2" fill="#933719" opacity="0.61"/>
<rect x="891.3" y="316.2" width="4" height="5" rx="0.5" fill="#f5f0e8" opacity="0.6"/>
<rect x="274.2" y="284.4" width="24.0" height="115.6" rx="4.6" fill="#993513" opacity="0.73"/>
<rect x="279.2" y="294.4" width="4" height="5" rx="0.5" fill="#f5f0e8" opacity="0.6"/>
<rect x="279.2" y="316.4" width="4" height="5" rx="0.5" fill="#f5f0e8" opacity="0.6"/>
<rect x="279.2" y="338.4" width="4" height="5" rx="0.5" fill="#f5f0e8" opacity="0.6"/>
<rect x="279.2" y="360.4" width="4" height="5" rx="0.5" fill="#f5f0e8" opacity="0.6"/>
<rect x="248.6" y="272.3" width="19.1" height="127.7" rx="4.9" fill="#863c27" opacity="0.74"/>
<rect x="253.6" y="282.3" width="4" height="5" rx="0.5" fill="#f5f0e8" opacity="0.6"/>
<rect x="253.6" y="304.3" width="4" height="5" rx="0.5" fill="#f5f0e8" opacity="0.6"/>
<rect x="844.5" y="355.9" width="18.8" height="44.1" rx="4.5" fill="#8b3a22" opacity="0.67"/>
<rect x="942.0" y="254.3" width="47.0" height="145.7" rx="4.7" fill="#774237" opacity="0.78"/>
<rect x="947.0" y="264.3" width="4" height="5" rx="0.5" fill="#f5f0e8" opacity="0.6"/>
<rect x="962.6" y="264.3" width="4" height="5" rx="0.5" fill="#f5f0e8" opacity="0.6"/>
<rect x="947.0" y="286.3" width="4" height="5" rx="0.5" fill="#f5f0e8" opacity="0.6"/>
<rect x="947.0" y="330.3" width="4" height="5" rx="0.5" fill="#f5f0e8" opacity="0.6"/>
<rect x="196.3" y="257.1" width="42.9" height="142.9" rx="6.2" fill="#6c4642" opacity="0.62"/>
<rect x="201.3" y="267.1" width="4" height="5" rx="0.5" fill="#f5f0e8" opacity="0.6"/>
<rect x="215.6" y="267.1" width="4" height="5" rx="0.5" fill="#f5f0e8" opacity="0.6"/>
<rect x="201.3" y="311.1" width="4" height="5" rx="0.5" fill="#f5f0e8" opacity="0.6"/>
<rect x="398.8" y="251.1" width="19.7" height="148.9" rx="6.7" fill="#8d391f" opacity="0.51"/>
<rect x="190.9" y="260.0" width="44.0" height="140.0" rx="7.6" fill="#92371a" opacity="0.63"/>
<rect x="195.9" y="314.0" width="4" height="5" rx="0.5" fill="#f5f0e8" opacity="0.6"/>
<rect x="210.5" y="314.0" width="4" height="5" rx="0.5" fill="#f5f0e8" opacity="0.6"/>
<rect x="195.9" y="336.0" width="4" height="5" rx="0.5" fill="#f5f0e8" opacity="0.6"/>
<rect x="210.5" y="336.0" width="4" height="5" rx="0.5" fill="#f5f0e8" opacity="0.6"/>
<rect x="139.7" y="273.2" width="17.3" height="126.8" rx="3.1" fill="#74433a" opacity="0.63"/>
<rect x="308.6" y="366.5" width="45.2" height="33.5" rx="7.2" fill="#6c4642" opacity="0.76"/>
<rect x="496.0" y="296.2" width="37.0" height="103.8" rx="7.5" fill="#7e3f30" opacity="0.58"/>
<rect x="248.4" y="308.3" width="40.9" height="91.7" rx="3.8" fill="#893b24" opacity="0.56"/>
<rect x="253.4" y="318.3" width="4" height="5" rx="0.5" fill="#f5f0e8" opacity="0.6"/>
<rect x="267.0" y="318.3" width="4" height="5" rx="0.5" fill="#f5f0e8" opacity="0.6"/>
<rect x="267.0" y="340.3" width="4" height="5" rx="0.5" fill="#f5f0e8" opacity="0.6"/>
<rect x="253.4" y="362.3" width="4" height="5" rx="0.5" fill="#f5f0e8" opacity="0.6"/>
<rect x="267.0" y="362.3" width="4" height="5" rx="0.5" fill="#f5f0e8" opacity="0.6"/>
<circle cx="474.4" cy="36.1" r="11.5" fill="#f5f0e8" opacity="0.15"/>
<circle cx="487.3" cy="57.7" r="11.2" fill="#f5f0e8" opacity="0.16"/>
<circle cx="834.2" cy="41.1" r="3.4" fill="#f5f0e8" opacity="0.35"/>
<circle cx="1161.3" cy="122.9" r="11.3" fill="#9a3412" opacity="0.33"/>
<circle cx="183.1" cy="101.6" r="4.8" fill="#f5f0e8" opacity="0.19"/>
<circle cx="342.8" cy="154.3" r="9.1" fill="#9a3412" opacity="0.17"/>
<circle cx="83.9" cy="143.6" r="6.8" fill="#9a3412" opacity="0.37"/>
<circle cx="223.8" cy="67.2" r="6.3" fill="#f5f0e8" opacity="0.41"/>
<circle cx="195.1" cy="24.0" r="8.1" fill="#f5f0e8" opacity="0.41"/>
<circle cx="1183.7" cy="188.9" r="9.5" fill="#9a3412" opacity="0.45"/>
<circle cx="347.2" cy="175.1" r="9.6" fill="#f5f0e8" opacity="0.15"/>
<circle cx="1071.5" cy="108.9" r="7.9" fill="#f5f0e8" opacity="0.31"/>
<rect width="1200" height="400" fill="url(#warm)"/>
<rect width="1200" height="400" fill="#f5f0e8" opacity="0.41"/>
</svg>