<svg xmlns="http://www.w3.org/2000/svg" viewBox="0 0 1200 300" width="1200" height="300">
<defs><linearGradient id="skyGrad" x1="0" y1="0" x2="0" y2="1"><stop offset="0%" stop-color="#e6ecf2"/><stop offset="100%" stop-color="#f0eeec"/></linearGradient></defs><rect width="1200" height="300" fill="url(#skyGrad)"/>
<path d="M0 300 L0 202.3 C331.9 189.9, 913.8 192.3, 1200 202.3 L1200 300 Z" fill="#aac2c9" opacity="0.25"/>
<rect x="91.9" y="226.4" width="88.2" height="73.6" fill="#8aabb4"/>
<rect x="107.3" y="213.5" width="57.4" height="13.0" fill="#83a2ab"/>
<rect x="305.0" y="187.7" width="75.6" height="112.3" fill="#8aabb4"/>
<rect x="574.8" y="217.2" width="59.9" height="82.8" fill="#8aabb4"/>
<rect x="803.7" y="200.1" width="55.8" height="99.9" fill="#8aabb4"/>
<polygon points="803.7,200.1 831.6,186.1 859.5,200.1" fill="#7f9da6"/>
<rect x="1017.1" y="199.4" width="72.5" height="100.6" fill="#8aabb4"/>
<rect x="1029.8" y="181.6" width="47.1" height="17.8" fill="#83a2ab"/>
<rect x="124.8" y="141.8" width="35.3" height="158.2" fill="#558592"/>
<rect x="139.5" y="185.8" width="6" height="8" fill="#91b0b8" opacity="0.5"/>
<rect x="139.5" y="217.8" width="6" height="8" fill="#91b0b8" opacity="0.5"/>
<rect x="139.5" y="233.8" width="6" height="8" fill="#91b0b8" opacity="0.5"/>
<rect x="323.4" y="144.3" width="56.4" height="155.7" fill="#558592"/>
<rect x="341.6" y="188.3" width="6" height="8" fill="#91b0b8" opacity="0.5"/>
<rect x="355.6" y="188.3" width="6" height="8" fill="#91b0b8" opacity="0.5"/>
<rect x="341.6" y="220.3" width="6" height="8" fill="#91b0b8" opacity="0.5"/>
<rect x="355.6" y="220.3" width="6" height="8" fill="#91b0b8" opacity="0.5"/>
<rect x="341.6" y="236.3" width="6" height="8" fill="#91b0b8" opacity="0.5"/>
<rect x="355.6" y="236.3" width="6" height="8" fill="#91b0b8" opacity="0.5"/>
<rect x="607.6" y="153.5" width="50.4" height="146.5" fill="#558592"/>
<polygon points="607.6,153.5 632.8,140.9 658.0,153.5" fill="#4e7a86"/>
<rect x="622.8" y="165.5" width="6" height="8" fill="#91b0b8" opacity="0.5"/>
<rect x="636.8" y="181.5" width="6" height="8" fill="#91b0b8" opacity="0.5"/>
<rect x="622.8" y="197.5" width="6" height="8" fill="#91b0b8" opacity="0.5"/>
<rect x="622.8" y="213.5" width="6" height="8" fill="#91b0b8" opacity="0.5"/>
<rect x="636.8" y="213.5" width="6" height="8" fill="#91b0b8" opacity="0.5"/>
<rect x="622.8" y="229.5" width="6" height="8" fill="#91b0b8" opacity="0.5"/>
<rect x="636.8" y="229.5" width="6" height="8" fill="#91b0b8" opacity="0.5"/>
<rect x="793.3" y="221.0" width="37.0" height="79.0" fill="#558592"/>
<rect x="808.8" y="233.0" width="6" height="8" fill="#91b0b8" opacity="0.5"/>
<rect x="808.8" y="249.0" width="6" height="8" fill="#91b0b8" opacity="0.5"/>
<rect x="808.8" y="265.0" width="6" height="8" fill="#91b0b8" opacity="0.5"/>
<rect x="1037.8" y="220.6" width="77.8" height="79.4" fill="#558592"/>
<polygon points="1037.8,220.6 1076.7,201.2 1115.6,220.6" fill="#4e7a86"/>
<rect x="1059.7" y="232.6" width="6" height="8" fill="#91b0b8" opacity="0.5"/>
<rect x="1073.7" y="232.6" width="6" height="8" fill="#91b0b8" opacity="0.5"/>
<rect x="1087.7" y="232.6" width="6" height="8" fill="#91b0b8" opacity="0.5"/>
<rect x="1073.7" y="248.6" width="6" height="8" fill="#91b0b8" opacity="0.5"/>
<rect x="1087.7" y="248.6" width="6" height="8" fill="#91b0b8" opacity="0.5"/>
<rect x="1059.7" y="264.6" width="6" height="8" fill="#91b0b8" opacity="0.5"/>
<rect x="1073.7" y="264.6" width="6" height="8" fill="#91b0b8" opacity="0.5"/>
<rect x="147.2" y="158.3" width="34.2" height="141.7" fill="#2b6777"/>
<rect x="153.1" y="133.3" width="22.2" height="25.0" fill="#296271"/>
<rect x="161.3" y="145.3" width="6" height="8" fill="#759ca7" opacity="0.5"/>
<rect x="161.3" y="161.3" width="6" height="8" fill="#759ca7" opacity="0.5"/>
<rect x="161.3" y="177.3" width="6" height="8" fill="#759ca7" opacity="0.5"/>
<rect x="161.3" y="209.3" width="6" height="8" fill="#759ca7" opacity="0.5"/>
<rect x="161.3" y="225.3" width="6" height="8" fill="#759ca7" opacity="0.5"/>
<rect x="376.3" y="230.9" width="47.4" height="69.1" fill="#2b6777"/>
<rect x="404.0" y="242.9" width="6" height="8" fill="#759ca7" opacity="0.5"/>
<rect x="390.0" y="258.9" width="6" height="8" fill="#759ca7" opacity="0.5"/>
<rect x="604.4" y="202.9" width="47.1" height="97.1" fill="#2b6777"/>
<rect x="618.0" y="214.9" width="6" height="8" fill="#759ca7" opacity="0.5"/>
<rect x="618.0" y="230.9" width="6" height="8" fill="#759ca7" opacity="0.5"/>
<rect x="618.0" y="246.9" width="6" height="8" fill="#759ca7" opacity="0.5"/>
<rect x="632.0" y="246.9" width="6" height="8" fill="#759ca7" opacity="0.5"/>
<rect x="618.0" y="262.9" width="6" height="8" fill="#759ca7" opacity="0.5"/>
<rect x="632.0" y="262.9" width="6" height="8" fill="#759ca7" opacity="0.5"/>
<rect x="826.7" y="200.1" width="42.5" height="99.9" fill="#2b6777"/>
<rect x="844.9" y="212.1" width="6" height="8" fill="#759ca7" opacity="0.5"/>
<rect x="844.9" y="260.1" width="6" height="8" fill="#759ca7" opacity="0.5"/>
<rect x="1030.7" y="237.3" width="34.6" height="62.7" fill="#2b6777"/>
<polygon points="1030.7,237.3 1048.0,228.6 1065.3,237.3" fill="#285f6d"/>
<rect x="1045.0" y="265.3" width="6" height="8" fill="#759ca7" opacity="0.5"/>
<line x1="278.8" y1="285.0" x2="278.8" y2="274.9" stroke="#6b5a42" stroke-width="3"/>
<circle cx="278.8" cy="259.6" r="15.4" fill="#588948"/>
<line x1="514.1" y1="285.0" x2="514.1" y2="272.3" stroke="#6b5a42" stroke-width="3"/>
<circle cx="514.1" cy="259.7" r="12.6" fill="#507c41"/>
<line x1="739.1" y1="285.0" x2="739.1" y2="269.0" stroke="#6b5a42" stroke-width="3"/>
<circle cx="739.1" cy="251.9" r="17.1" fill="#568546"/>
<line x1="949.9" y1="285.0" x2="949.9" y2="273.5" stroke="#6b5a42" stroke-width="3"/>
<circle cx="949.9" cy="261.5" r="12.0" fill="#4f7b41"/>
<line x1="1140.7" y1="285.0" x2="1140.7" y2="271.8" stroke="#6b5a42" stroke-width="3"/>
<circle cx="1140.7" cy="255.1" r="16.7" fill="#538245"/>
<line x1="154.8" y1="285.0" x2="154.8" y2="274.7" stroke="#6b5a42" stroke-width="3"/>
<circle cx="154.8" cy="262.1" r="12.6" fill="#4f7b41"/>
<line x1="845.7" y1="285.0" x2="845.7" y2="272.9" stroke="#6b5a42" stroke-width="3"/>
<circle cx="845.7" cy="260.3" r="12.6" fill="#517e43"/>
<rect x="0" y="285" width="1200" height="15" fill="#9aaa85" opacity="0.4"/>
</svg>