<svg xmlns="http://www.w3.org/2000/svg" viewBox="0 0 1200 300" width="1200" height="300">
<defs>
<linearGradient id="skyGrad" x1="0" y1="0" x2="0" y2="1">
<stop offset="0%" stop-color="#818cf8"/>
<stop offset="20%" stop-color="#c4b5fd"/>
<stop offset="38%" stop-color="#fda4af"/>
<stop offset="55%" stop-color="#fdba74"/>
<stop offset="75%" stop-color="#fef08a"/>
<stop offset="100%" stop-color="#fef9c3"/>
</linearGradient>
<linearGradient id="bldg_coral" x1="0" y1="0" x2="0" y2="1"><stop offset="0%" stop-color="#fecaca"/><stop offset="100%" stop-color="#fca5a5"/></linearGradient>
<linearGradient id="bldg_teal" x1="0" y1="0" x2="0" y2="1"><stop offset="0%" stop-color="#99f6e4"/><stop offset="100%" stop-color="#5eead4"/></linearGradient>
<linearGradient id="bldg_amber" x1="0" y1="0" x2="0" y2="1"><stop offset="0%" stop-color="#fde68a"/><stop offset="100%" stop-color="#fcd34d"/></linearGradient>
<linearGradient id="bldg_lavender" x1="0" y1="0" x2="0" y2="1"><stop offset="0%" stop-color="#ddd6fe"/><stop offset="100%" stop-color="#c4b5fd"/></linearGradient>
<linearGradient id="bldg_blue" x1="0" y1="0" x2="0" y2="1"><stop offset="0%" stop-color="#bfdbfe"/><stop offset="100%" stop-color="#93c5fd"/></linearGradient>
<linearGradient id="bldg_mint" x1="0" y1="0" x2="0" y2="1"><stop offset="0%" stop-color="#a7f3d0"/><stop offset="100%" stop-color="#6ee7b7"/></linearGradient>
<linearGradient id="bldg_rose" x1="0" y1="0" x2="0" y2="1"><stop offset="0%" stop-color="#fecdd3"/><stop offset="100%" stop-color="#fda4af"/></linearGradient>
<linearGradient id="bldg_sky" x1="0" y1="0" x2="0" y2="1"><stop offset="0%" stop-color="#bae6fd"/><stop offset="100%" stop-color="#7dd3fc"/></linearGradient>
<linearGradient id="roof_navyRoof" x1="0" y1="0" x2="0" y2="1"><stop offset="0%" stop-color="#4338ca"/><stop offset="100%" stop-color="#3730a3"/></linearGradient>
<linearGradient id="roof_coralRoof" x1="0" y1="0" x2="0" y2="1"><stop offset="0%" stop-color="#f87171"/><stop offset="100%" stop-color="#ef4444"/></linearGradient>
<linearGradient id="roof_tealRoof" x1="0" y1="0" x2="0" y2="1"><stop offset="0%" stop-color="#2dd4bf"/><stop offset="100%" stop-color="#14b8a6"/></linearGradient>
<radialGradient id="windowGlow" cx="50%" cy="50%" r="50%"><stop offset="0%" stop-color="#fef08a"/><stop offset="60%" stop-color="#fbbf24"/><stop offset="100%" stop-color="#f59e0b"/></radialGradient>
<linearGradient id="hillFar" x1="0" y1="0" x2="0" y2="1"><stop offset="0%" stop-color="#c4b5fd"/><stop offset="100%" stop-color="#a5b4fc"/></linearGradient>
<linearGradient id="hillMid" x1="0" y1="0" x2="0" y2="1"><stop offset="0%" stop-color="#86efac"/><stop offset="100%" stop-color="#4ade80"/></linearGradient>
<linearGradient id="hillNear" x1="0" y1="0" x2="0" y2="1"><stop offset="0%" stop-color="#34d399"/><stop offset="100%" stop-color="#10b981"/></linearGradient>
<linearGradient id="hillDesertFar" x1="0" y1="0" x2="0" y2="1"><stop offset="0%" stop-color="#fde68a"/><stop offset="100%" stop-color="#fcd34d"/></linearGradient>
<linearGradient id="hillDesertMid" x1="0" y1="0" x2="0" y2="1"><stop offset="0%" stop-color="#fcd34d"/><stop offset="100%" stop-color="#fbbf24"/></linearGradient>
<linearGradient id="hillDesertNear" x1="0" y1="0" x2="0" y2="1"><stop offset="0%" stop-color="#fbbf24"/><stop offset="100%" stop-color="#f59e0b"/></linearGradient>
<linearGradient id="groundGrad" x1="0" y1="0" x2="0" y2="1"><stop offset="0%" stop-color="#fef3c7"/><stop offset="100%" stop-color="#fde68a"/></linearGradient>
<linearGradient id="waterGrad" x1="0" y1="0" x2="0" y2="1"><stop offset="0%" stop-color="#bfdbfe"/><stop offset="100%" stop-color="#93c5fd"/></linearGradient>
<filter id="softGlow" x="-50%" y="-50%" width="200%" height="200%"><feGaussianBlur in="SourceGraphic" stdDeviation="12"/></filter>
</defs>
<rect width="1200" height="300" fill="url(#skyGrad)"/>
<circle cx="987.6" cy="48.3" r="45" fill="#fef08a" opacity="0.12" filter="url(#softGlow)"/>
<circle cx="987.6" cy="48.3" r="30" fill="#fde68a" opacity="0.18" filter="url(#softGlow)"/>
<circle cx="987.6" cy="48.3" r="16" fill="#fef9c3" opacity="0.25" filter="url(#softGlow)"/>
<ellipse cx="655.2" cy="32.9" rx="51.2" ry="17.9" fill="white" opacity="0.7"/>
<ellipse cx="623.2" cy="38.0" rx="35.8" ry="14.1" fill="white" opacity="0.6"/>
<ellipse cx="683.3" cy="36.7" rx="40.9" ry="15.3" fill="white" opacity="0.6"/>
<ellipse cx="488.0" cy="32.8" rx="29.8" ry="10.4" fill="white" opacity="0.6"/>
<ellipse cx="469.4" cy="35.8" rx="20.8" ry="8.2" fill="white" opacity="0.6"/>
<ellipse cx="504.4" cy="35.0" rx="23.8" ry="8.9" fill="white" opacity="0.5"/>
<path d="M0 300 L0.0 189.4 C124.2 189.4, 124.2 188.7, 248.3 188.7 C353.1 188.7, 353.1 185.5, 457.9 185.5 C595.3 185.5, 595.3 184.0, 732.8 184.0 C844.1 184.0, 844.1 180.4, 955.3 180.4 C1077.7 180.4, 1077.7 200.9, 1200.0 200.9 L1200 300 Z" fill="url(#hillFar)" opacity="0.5"/>
<path d="M0 300 L0.0 204.0 C197.5 204.0, 197.5 212.9, 395.0 212.9 C636.0 212.9, 636.0 211.1, 877.1 211.1 C1038.5 211.1, 1038.5 206.7, 1200.0 206.7 L1200 300 Z" fill="url(#hillMid)" opacity="0.7"/>
<path d="M0 300 L0.0 237.4 C105.8 237.4, 105.8 237.8, 211.6 237.8 C372.8 237.8, 372.8 231.4, 534.1 231.4 C598.0 231.4, 598.0 237.1, 661.9 237.1 C828.7 237.1, 828.7 231.4, 995.5 231.4 C1097.8 231.4, 1097.8 236.4, 1200.0 236.4 L1200 300 Z" fill="url(#hillNear)" opacity="1"/>
<rect x="145.9" y="196.9" width="51.3" height="103.1" rx="3" fill="url(#bldg_blue)" opacity="0.7"/>
<polygon points="145.9,196.9 171.5,182.9 197.2,196.9" fill="url(#roof_navyRoof)" opacity="0.7"/>
<rect x="161.5" y="206.9" width="6" height="8" rx="1" fill="url(#windowGlow)" opacity="0.7146199096993635"/>
<rect x="175.5" y="206.9" width="6" height="8" rx="1" fill="url(#windowGlow)" opacity="0.8731956967027837"/>
<rect x="161.5" y="221.9" width="6" height="8" rx="1" fill="url(#windowGlow)" opacity="0.9074940938537447"/>
<rect x="161.5" y="236.9" width="6" height="8" rx="1" fill="url(#windowGlow)" opacity="0.992310820330079"/>
<rect x="175.5" y="236.9" width="6" height="8" rx="1" fill="url(#windowGlow)" opacity="0.8584096771005586"/>
<rect x="161.5" y="251.9" width="6" height="8" rx="1" fill="url(#windowGlow)" opacity="0.7156133117692607"/>
<rect x="175.5" y="251.9" width="6" height="8" rx="1" fill="url(#windowGlow)" opacity="0.8243316935488636"/>
<rect x="414.5" y="203.3" width="59.9" height="96.7" rx="3" fill="url(#bldg_mint)" opacity="0.7"/>
<rect x="426.5" y="191.7" width="35.9" height="11.6" rx="2" fill="url(#roof_coralRoof)" opacity="0.7"/>
<rect x="441.5" y="213.3" width="6" height="8" rx="1" fill="url(#windowGlow)" opacity="0.8295552335817158"/>
<rect x="455.5" y="213.3" width="6" height="8" rx="1" fill="url(#windowGlow)" opacity="0.9712729826435786"/>
<rect x="441.5" y="228.3" width="6" height="8" rx="1" fill="url(#windowGlow)" opacity="0.9063779666118221"/>
<rect x="455.5" y="228.3" width="6" height="8" rx="1" fill="url(#windowGlow)" opacity="0.9011690208693821"/>
<rect x="441.5" y="243.3" width="6" height="8" rx="1" fill="url(#windowGlow)" opacity="0.8645606722052026"/>
<rect x="455.5" y="243.3" width="6" height="8" rx="1" fill="url(#windowGlow)" opacity="0.762870074232514"/>
<rect x="427.5" y="258.3" width="6" height="8" rx="1" fill="url(#windowGlow)" opacity="0.8278236405122203"/>
<rect x="441.5" y="258.3" width="6" height="8" rx="1" fill="url(#windowGlow)" opacity="0.8703237220972421"/>
<rect x="455.5" y="258.3" width="6" height="8" rx="1" fill="url(#windowGlow)" opacity="0.708166733993295"/>
<rect x="681.8" y="225.3" width="60.7" height="74.7" rx="3" fill="url(#bldg_rose)" opacity="0.7"/>
<rect x="681.8" y="222.3" width="60.7" height="3" rx="1" fill="url(#roof_tealRoof)" opacity="0.7"/>
<rect x="709.1" y="235.3" width="6" height="8" rx="1" fill="url(#windowGlow)" opacity="0.9988109974185055"/>
<rect x="723.1" y="235.3" width="6" height="8" rx="1" fill="url(#windowGlow)" opacity="0.828016569850974"/>
<rect x="695.1" y="250.3" width="6" height="8" rx="1" fill="url(#windowGlow)" opacity="0.9958728302250954"/>
<rect x="709.1" y="250.3" width="6" height="8" rx="1" fill="url(#windowGlow)" opacity="0.8017721386634614"/>
<rect x="723.1" y="250.3" width="6" height="8" rx="1" fill="url(#windowGlow)" opacity="0.7850217022863317"/>
<rect x="992.6" y="213.3" width="49.3" height="86.7" rx="3" fill="url(#bldg_sky)" opacity="0.7"/>
<polygon points="992.6,213.3 1017.3,200.2 1041.9,213.3" fill="url(#roof_navyRoof)" opacity="0.7"/>
<rect x="1007.3" y="223.3" width="6" height="8" rx="1" fill="url(#windowGlow)" opacity="0.9974738061416306"/>
<rect x="1007.3" y="238.3" width="6" height="8" rx="1" fill="url(#windowGlow)" opacity="0.7026705084381022"/>
<rect x="1021.3" y="238.3" width="6" height="8" rx="1" fill="url(#windowGlow)" opacity="0.7510871821321021"/>
<rect x="1007.3" y="253.3" width="6" height="8" rx="1" fill="url(#windowGlow)" opacity="0.7303568583123184"/>
<rect x="1021.3" y="253.3" width="6" height="8" rx="1" fill="url(#windowGlow)" opacity="0.999089898960241"/>
<rect x="120.1" y="198.6" width="73.2" height="101.4" rx="3" fill="url(#bldg_coral)" opacity="0.85"/>
<rect x="120.1" y="195.6" width="73.2" height="3" rx="1" fill="url(#roof_coralRoof)" opacity="0.85"/>
<rect x="132.7" y="208.6" width="6" height="8" rx="1" fill="url(#windowGlow)" opacity="0.7747852147439426"/>
<rect x="160.7" y="208.6" width="6" height="8" rx="1" fill="url(#windowGlow)" opacity="0.8612615563726339"/>
<rect x="174.7" y="208.6" width="6" height="8" rx="1" fill="url(#windowGlow)" opacity="0.8818139541809511"/>
<rect x="160.7" y="223.6" width="6" height="8" rx="1" fill="url(#windowGlow)" opacity="0.8056945906512879"/>
<rect x="132.7" y="238.6" width="6" height="8" rx="1" fill="url(#windowGlow)" opacity="0.9671515974994522"/>
<rect x="146.7" y="238.6" width="6" height="8" rx="1" fill="url(#windowGlow)" opacity="0.7468172209089702"/>
<rect x="160.7" y="238.6" width="6" height="8" rx="1" fill="url(#windowGlow)" opacity="0.9970745051266041"/>
<rect x="174.7" y="238.6" width="6" height="8" rx="1" fill="url(#windowGlow)" opacity="0.7384407452952306"/>
<rect x="132.7" y="253.6" width="6" height="8" rx="1" fill="url(#windowGlow)" opacity="0.7648098452784167"/>
<rect x="146.7" y="253.6" width="6" height="8" rx="1" fill="url(#windowGlow)" opacity="0.861591583332788"/>
<rect x="160.7" y="253.6" width="6" height="8" rx="1" fill="url(#windowGlow)" opacity="0.7872633551188107"/>
<rect x="174.7" y="253.6" width="6" height="8" rx="1" fill="url(#windowGlow)" opacity="0.9622552905987274"/>
<rect x="411.1" y="227.6" width="64.0" height="72.4" rx="3" fill="url(#bldg_teal)" opacity="0.85"/>
<polygon points="411.1,227.6 443.0,210.7 475.0,227.6" fill="url(#roof_tealRoof)" opacity="0.85"/>
<rect x="440.0" y="237.6" width="6" height="8" rx="1" fill="url(#windowGlow)" opacity="0.8086858377832388"/>
<rect x="454.0" y="237.6" width="6" height="8" rx="1" fill="url(#windowGlow)" opacity="0.9103178993381177"/>
<rect x="426.0" y="252.6" width="6" height="8" rx="1" fill="url(#windowGlow)" opacity="0.7303571230407604"/>
<rect x="440.0" y="252.6" width="6" height="8" rx="1" fill="url(#windowGlow)" opacity="0.929270889483984"/>
<rect x="454.0" y="252.6" width="6" height="8" rx="1" fill="url(#windowGlow)" opacity="0.9069119451134056"/>
<rect x="700.8" y="186.2" width="56.2" height="113.8" rx="3" fill="url(#bldg_amber)" opacity="0.85"/>
<rect x="700.8" y="183.2" width="56.2" height="3" rx="1" fill="url(#roof_navyRoof)" opacity="0.85"/>
<rect x="719.0" y="196.2" width="6" height="8" rx="1" fill="url(#windowGlow)" opacity="0.9271791059184722"/>
<rect x="733.0" y="196.2" width="6" height="8" rx="1" fill="url(#windowGlow)" opacity="0.8007511200386803"/>
<rect x="719.0" y="211.2" width="6" height="8" rx="1" fill="url(#windowGlow)" opacity="0.8607514151654911"/>
<rect x="733.0" y="211.2" width="6" height="8" rx="1" fill="url(#windowGlow)" opacity="0.9223315336379835"/>
<rect x="719.0" y="226.2" width="6" height="8" rx="1" fill="url(#windowGlow)" opacity="0.798354342485943"/>
<rect x="733.0" y="226.2" width="6" height="8" rx="1" fill="url(#windowGlow)" opacity="0.8370157225229851"/>
<rect x="719.0" y="241.2" width="6" height="8" rx="1" fill="url(#windowGlow)" opacity="0.9459256073208179"/>
<rect x="733.0" y="241.2" width="6" height="8" rx="1" fill="url(#windowGlow)" opacity="0.9184442718133536"/>
<rect x="719.0" y="256.2" width="6" height="8" rx="1" fill="url(#windowGlow)" opacity="0.8567807059068142"/>
<path d="M706.5 226.1 L729.0 226.1 L726.0 232.1 L709.5 232.1 Z" fill="url(#roof_tealRoof)" opacity="0.68"/>
<rect x="998.8" y="236.1" width="69.2" height="63.9" rx="3" fill="url(#bldg_lavender)" opacity="0.85"/>
<polygon points="998.8,236.1 1033.4,215.7 1068.0,236.1" fill="url(#roof_coralRoof)" opacity="0.85"/>
<rect x="1016.4" y="246.1" width="6" height="8" rx="1" fill="url(#windowGlow)" opacity="0.9677348562831687"/>
<rect x="1044.4" y="246.1" width="6" height="8" rx="1" fill="url(#windowGlow)" opacity="0.8948694175551037"/>
<rect x="132.4" y="223.3" width="37.3" height="76.7" rx="3" fill="url(#bldg_blue)" opacity="1"/>
<rect x="132.4" y="220.3" width="37.3" height="3" rx="1" fill="url(#roof_tealRoof)" opacity="1"/>
<rect x="148.1" y="233.3" width="6" height="8" rx="1" fill="url(#windowGlow)" opacity="0.7512968580943051"/>
<rect x="148.1" y="248.3" width="6" height="8" rx="1" fill="url(#windowGlow)" opacity="0.7330598476031142"/>
<rect x="146.1" y="284.0" width="10" height="16" rx="2" fill="url(#roof_navyRoof)" opacity="0.8"/>
<rect x="148.1" y="287.0" width="6" height="10" rx="1" fill="url(#windowGlow)" opacity="0.45"/>
<rect x="442.8" y="243.7" width="67.3" height="56.3" rx="3" fill="url(#bldg_mint)" opacity="1"/>
<rect x="456.2" y="236.9" width="40.4" height="6.8" rx="2" fill="url(#roof_navyRoof)" opacity="1"/>
<rect x="459.5" y="253.7" width="6" height="8" rx="1" fill="url(#windowGlow)" opacity="0.8776552421868105"/>
<rect x="473.5" y="253.7" width="6" height="8" rx="1" fill="url(#windowGlow)" opacity="0.8253314555274934"/>
<rect x="487.5" y="253.7" width="6" height="8" rx="1" fill="url(#windowGlow)" opacity="0.9014703284955911"/>
<rect x="471.5" y="284.0" width="10" height="16" rx="2" fill="url(#roof_navyRoof)" opacity="0.8"/>
<rect x="473.5" y="287.0" width="6" height="10" rx="1" fill="url(#windowGlow)" opacity="0.45"/>
<path d="M476.5 263.4 L503.4 263.4 L500.4 269.4 L479.5 269.4 Z" fill="url(#roof_tealRoof)" opacity="0.8"/>
<rect x="735.3" y="162.1" width="35.7" height="137.9" rx="3" fill="url(#bldg_rose)" opacity="1"/>
<rect x="735.3" y="159.1" width="35.7" height="3" rx="1" fill="url(#roof_coralRoof)" opacity="1"/>
<rect x="750.1" y="172.1" width="6" height="8" rx="1" fill="url(#windowGlow)" opacity="0.7703500207841163"/>
<rect x="750.1" y="187.1" width="6" height="8" rx="1" fill="url(#windowGlow)" opacity="0.7979902006210713"/>
<rect x="750.1" y="202.1" width="6" height="8" rx="1" fill="url(#windowGlow)" opacity="0.7982055733437675"/>
<rect x="750.1" y="217.1" width="6" height="8" rx="1" fill="url(#windowGlow)" opacity="0.9862123167543728"/>
<rect x="750.1" y="232.1" width="6" height="8" rx="1" fill="url(#windowGlow)" opacity="0.7205866985118885"/>
<rect x="748.1" y="284.0" width="10" height="16" rx="2" fill="url(#roof_navyRoof)" opacity="0.8"/>
<rect x="750.1" y="287.0" width="6" height="10" rx="1" fill="url(#windowGlow)" opacity="0.45"/>
<path d="M738.9 210.4 L753.1 210.4 L750.1 216.4 L741.9 216.4 Z" fill="url(#roof_navyRoof)" opacity="0.8"/>
<rect x="988.5" y="237.1" width="57.4" height="62.9" rx="3" fill="url(#bldg_sky)" opacity="1"/>
<polygon points="988.5,237.1 1017.2,220.4 1045.9,237.1" fill="url(#roof_tealRoof)" opacity="1"/>
<rect x="1007.2" y="247.1" width="6" height="8" rx="1" fill="url(#windowGlow)" opacity="0.9109898378192399"/>
<rect x="1012.2" y="284.0" width="10" height="16" rx="2" fill="url(#roof_navyRoof)" opacity="0.8"/>
<rect x="1014.2" y="287.0" width="6" height="10" rx="1" fill="url(#windowGlow)" opacity="0.45"/>
<rect x="303.2" y="265.0" width="6" height="20.0" rx="2" fill="#15803d"/>
<circle cx="306.2" cy="251.2" r="17.7" fill="#22c55e" opacity="0.9"/>
<circle cx="299.2" cy="254.2" r="13.3" fill="#16a34a" opacity="0.8"/>
<circle cx="312.7" cy="255.2" r="12.4" fill="#15803d" opacity="0.7"/>
<rect x="619.7" y="264.2" width="6" height="20.8" rx="2" fill="#15803d"/>
<circle cx="622.7" cy="255.1" r="13.1" fill="#22c55e" opacity="0.9"/>
<circle cx="615.5" cy="258.1" r="9.8" fill="#16a34a" opacity="0.8"/>
<circle cx="630.7" cy="259.1" r="9.2" fill="#15803d" opacity="0.7"/>
<rect x="876.8" y="266.1" width="6" height="18.9" rx="2" fill="#15803d"/>
<circle cx="879.8" cy="254.6" r="15.5" fill="#22c55e" opacity="0.9"/>
<circle cx="873.3" cy="257.6" r="11.6" fill="#16a34a" opacity="0.8"/>
<circle cx="886.4" cy="258.6" r="10.8" fill="#15803d" opacity="0.7"/>
<rect x="89.6" y="266.1" width="6" height="18.9" rx="2" fill="#15803d"/>
<circle cx="92.6" cy="255.7" r="14.4" fill="#22c55e" opacity="0.9"/>
<circle cx="85.7" cy="258.7" r="10.8" fill="#16a34a" opacity="0.8"/>
<circle cx="98.1" cy="259.7" r="10.1" fill="#15803d" opacity="0.7"/>
<rect x="1065.4" y="265.7" width="6" height="19.3" rx="2" fill="#15803d"/>
<circle cx="1068.4" cy="256.5" r="13.2" fill="#22c55e" opacity="0.9"/>
<circle cx="1061.1" cy="259.5" r="9.9" fill="#16a34a" opacity="0.8"/>
<circle cx="1074.7" cy="260.5" r="9.2" fill="#15803d" opacity="0.7"/>
<rect x="67.5" y="266.9" width="6" height="18.1" rx="2" fill="#15803d"/>
<circle cx="70.5" cy="256.5" r="14.4" fill="#22c55e" opacity="0.9"/>
<circle cx="64.4" cy="259.5" r="10.8" fill="#16a34a" opacity="0.8"/>
<circle cx="75.5" cy="260.5" r="10.1" fill="#15803d" opacity="0.7"/>
<rect x="297.8" y="266.1" width="6" height="18.9" rx="2" fill="#15803d"/>
<circle cx="300.8" cy="255.2" r="14.9" fill="#22c55e" opacity="0.9"/>
<circle cx="294.6" cy="258.2" r="11.1" fill="#16a34a" opacity="0.8"/>
<circle cx="308.2" cy="259.2" r="10.4" fill="#15803d" opacity="0.7"/>
<rect x="1012.3" y="265.7" width="6" height="19.3" rx="2" fill="#15803d"/>
<circle cx="1015.3" cy="255.8" r="13.9" fill="#22c55e" opacity="0.9"/>
<circle cx="1007.9" cy="258.8" r="10.4" fill="#16a34a" opacity="0.8"/>
<circle cx="1021.6" cy="259.8" r="9.7" fill="#15803d" opacity="0.7"/>
<rect x="505.3" y="263.2" width="6" height="21.8" rx="2" fill="#15803d"/>
<circle cx="508.3" cy="250.1" r="17.1" fill="#22c55e" opacity="0.9"/>
<circle cx="499.5" cy="253.1" r="12.8" fill="#16a34a" opacity="0.8"/>
<circle cx="513.5" cy="254.1" r="12.0" fill="#15803d" opacity="0.7"/>
<rect x="0" y="282" width="1200" height="18" fill="url(#groundGrad)"/>
<line x1="570.7" y1="282.0" x2="570.7" y2="240.5" stroke="#92400e" stroke-width="2"/>
<circle cx="570.7" cy="240.5" r="4" fill="#fef08a" opacity="0.6"/>
<circle cx="570.7" cy="240.5" r="8" fill="#fef08a" opacity="0.15" filter="url(#softGlow)"/>
<ellipse cx="981.2" cy="282.0" rx="5.6" ry="3.9" fill="#22c55e" opacity="0.6"/>
<ellipse cx="366.6" cy="282.0" rx="6.0" ry="4.2" fill="#22c55e" opacity="0.6"/>
</svg>