<svg xmlns="http://www.w3.org/2000/svg" viewBox="0 0 1200 300" width="1200" height="300">
<rect width="1200" height="300" fill="#e8edf2"/>
<path d="M0 300 L0 210.0 C282.4 183.8, 975.3 196.6, 1200 210.0 L1200 300 Z" fill="#b1bdcc" opacity="0.3"/>
<rect x="159.1" y="201.5" width="57.4" height="98.5" fill="#94a4b9"/>
<rect x="412.6" y="175.7" width="67.7" height="124.3" fill="#94a4b9"/>
<rect x="733.6" y="214.4" width="51.3" height="85.6" fill="#94a4b9"/>
<rect x="1011.0" y="175.8" width="46.0" height="124.2" fill="#94a4b9"/>
<rect x="125.5" y="198.8" width="66.0" height="101.2" fill="#647b99"/>
<rect x="141.5" y="210.8" width="6" height="8" fill="#9aa9bd" opacity="0.5"/>
<rect x="155.5" y="210.8" width="6" height="8" fill="#9aa9bd" opacity="0.5"/>
<rect x="169.5" y="210.8" width="6" height="8" fill="#9aa9bd" opacity="0.5"/>
<rect x="141.5" y="226.8" width="6" height="8" fill="#9aa9bd" opacity="0.5"/>
<rect x="155.5" y="226.8" width="6" height="8" fill="#9aa9bd" opacity="0.5"/>
<rect x="169.5" y="226.8" width="6" height="8" fill="#9aa9bd" opacity="0.5"/>
<rect x="141.5" y="242.8" width="6" height="8" fill="#9aa9bd" opacity="0.5"/>
<rect x="155.5" y="242.8" width="6" height="8" fill="#9aa9bd" opacity="0.5"/>
<rect x="155.5" y="258.8" width="6" height="8" fill="#9aa9bd" opacity="0.5"/>
<rect x="169.5" y="258.8" width="6" height="8" fill="#9aa9bd" opacity="0.5"/>
<rect x="378.2" y="141.2" width="45.5" height="158.8" fill="#647b99"/>
<rect x="390.9" y="169.2" width="6" height="8" fill="#9aa9bd" opacity="0.5"/>
<rect x="404.9" y="169.2" width="6" height="8" fill="#9aa9bd" opacity="0.5"/>
<rect x="404.9" y="185.2" width="6" height="8" fill="#9aa9bd" opacity="0.5"/>
<rect x="390.9" y="201.2" width="6" height="8" fill="#9aa9bd" opacity="0.5"/>
<rect x="404.9" y="201.2" width="6" height="8" fill="#9aa9bd" opacity="0.5"/>
<rect x="390.9" y="217.2" width="6" height="8" fill="#9aa9bd" opacity="0.5"/>
<rect x="404.9" y="217.2" width="6" height="8" fill="#9aa9bd" opacity="0.5"/>
<rect x="390.9" y="233.2" width="6" height="8" fill="#9aa9bd" opacity="0.5"/>
<rect x="404.9" y="233.2" width="6" height="8" fill="#9aa9bd" opacity="0.5"/>
<rect x="390.9" y="249.2" width="6" height="8" fill="#9aa9bd" opacity="0.5"/>
<rect x="390.9" y="265.2" width="6" height="8" fill="#9aa9bd" opacity="0.5"/>
<rect x="404.9" y="265.2" width="6" height="8" fill="#9aa9bd" opacity="0.5"/>
<rect x="560.5" y="135.7" width="76.4" height="164.3" fill="#647b99"/>
<rect x="574.7" y="147.7" width="6" height="8" fill="#9aa9bd" opacity="0.5"/>
<rect x="588.7" y="147.7" width="6" height="8" fill="#9aa9bd" opacity="0.5"/>
<rect x="574.7" y="163.7" width="6" height="8" fill="#9aa9bd" opacity="0.5"/>
<rect x="588.7" y="163.7" width="6" height="8" fill="#9aa9bd" opacity="0.5"/>
<rect x="602.7" y="163.7" width="6" height="8" fill="#9aa9bd" opacity="0.5"/>
<rect x="616.7" y="163.7" width="6" height="8" fill="#9aa9bd" opacity="0.5"/>
<rect x="574.7" y="179.7" width="6" height="8" fill="#9aa9bd" opacity="0.5"/>
<rect x="616.7" y="179.7" width="6" height="8" fill="#9aa9bd" opacity="0.5"/>
<rect x="574.7" y="195.7" width="6" height="8" fill="#9aa9bd" opacity="0.5"/>
<rect x="588.7" y="195.7" width="6" height="8" fill="#9aa9bd" opacity="0.5"/>
<rect x="602.7" y="195.7" width="6" height="8" fill="#9aa9bd" opacity="0.5"/>
<rect x="616.7" y="195.7" width="6" height="8" fill="#9aa9bd" opacity="0.5"/>
<rect x="574.7" y="211.7" width="6" height="8" fill="#9aa9bd" opacity="0.5"/>
<rect x="588.7" y="211.7" width="6" height="8" fill="#9aa9bd" opacity="0.5"/>
<rect x="602.7" y="211.7" width="6" height="8" fill="#9aa9bd" opacity="0.5"/>
<rect x="616.7" y="211.7" width="6" height="8" fill="#9aa9bd" opacity="0.5"/>
<rect x="574.7" y="227.7" width="6" height="8" fill="#9aa9bd" opacity="0.5"/>
<rect x="588.7" y="227.7" width="6" height="8" fill="#9aa9bd" opacity="0.5"/>
<rect x="602.7" y="227.7" width="6" height="8" fill="#9aa9bd" opacity="0.5"/>
<rect x="616.7" y="227.7" width="6" height="8" fill="#9aa9bd" opacity="0.5"/>
<rect x="588.7" y="243.7" width="6" height="8" fill="#9aa9bd" opacity="0.5"/>
<rect x="574.7" y="259.7" width="6" height="8" fill="#9aa9bd" opacity="0.5"/>
<rect x="602.7" y="259.7" width="6" height="8" fill="#9aa9bd" opacity="0.5"/>
<rect x="616.7" y="259.7" width="6" height="8" fill="#9aa9bd" opacity="0.5"/>
<rect x="820.7" y="136.9" width="55.7" height="163.1" fill="#647b99"/>
<rect x="838.6" y="148.9" width="6" height="8" fill="#9aa9bd" opacity="0.5"/>
<rect x="852.6" y="164.9" width="6" height="8" fill="#9aa9bd" opacity="0.5"/>
<rect x="838.6" y="180.9" width="6" height="8" fill="#9aa9bd" opacity="0.5"/>
<rect x="852.6" y="180.9" width="6" height="8" fill="#9aa9bd" opacity="0.5"/>
<rect x="838.6" y="196.9" width="6" height="8" fill="#9aa9bd" opacity="0.5"/>
<rect x="852.6" y="212.9" width="6" height="8" fill="#9aa9bd" opacity="0.5"/>
<rect x="838.6" y="228.9" width="6" height="8" fill="#9aa9bd" opacity="0.5"/>
<rect x="852.6" y="228.9" width="6" height="8" fill="#9aa9bd" opacity="0.5"/>
<rect x="838.6" y="244.9" width="6" height="8" fill="#9aa9bd" opacity="0.5"/>
<rect x="852.6" y="244.9" width="6" height="8" fill="#9aa9bd" opacity="0.5"/>
<rect x="838.6" y="260.9" width="6" height="8" fill="#9aa9bd" opacity="0.5"/>
<rect x="1043.4" y="176.3" width="67.7" height="123.7" fill="#647b99"/>
<rect x="1060.2" y="188.3" width="6" height="8" fill="#9aa9bd" opacity="0.5"/>
<rect x="1074.2" y="188.3" width="6" height="8" fill="#9aa9bd" opacity="0.5"/>
<rect x="1088.2" y="188.3" width="6" height="8" fill="#9aa9bd" opacity="0.5"/>
<rect x="1060.2" y="204.3" width="6" height="8" fill="#9aa9bd" opacity="0.5"/>
<rect x="1074.2" y="204.3" width="6" height="8" fill="#9aa9bd" opacity="0.5"/>
<rect x="1088.2" y="204.3" width="6" height="8" fill="#9aa9bd" opacity="0.5"/>
<rect x="1074.2" y="220.3" width="6" height="8" fill="#9aa9bd" opacity="0.5"/>
<rect x="1088.2" y="220.3" width="6" height="8" fill="#9aa9bd" opacity="0.5"/>
<rect x="1060.2" y="236.3" width="6" height="8" fill="#9aa9bd" opacity="0.5"/>
<rect x="1074.2" y="236.3" width="6" height="8" fill="#9aa9bd" opacity="0.5"/>
<rect x="1060.2" y="252.3" width="6" height="8" fill="#9aa9bd" opacity="0.5"/>
<rect x="1074.2" y="252.3" width="6" height="8" fill="#9aa9bd" opacity="0.5"/>
<rect x="1060.2" y="268.3" width="6" height="8" fill="#9aa9bd" opacity="0.5"/>
<rect x="1088.2" y="268.3" width="6" height="8" fill="#9aa9bd" opacity="0.5"/>
<rect x="151.1" y="171.3" width="57.0" height="128.7" fill="#3d5a80"/>
<rect x="169.6" y="183.3" width="6" height="8" fill="#8194ac" opacity="0.5"/>
<rect x="183.6" y="183.3" width="6" height="8" fill="#8194ac" opacity="0.5"/>
<rect x="183.6" y="199.3" width="6" height="8" fill="#8194ac" opacity="0.5"/>
<rect x="183.6" y="215.3" width="6" height="8" fill="#8194ac" opacity="0.5"/>
<rect x="169.6" y="231.3" width="6" height="8" fill="#8194ac" opacity="0.5"/>
<rect x="183.6" y="247.3" width="6" height="8" fill="#8194ac" opacity="0.5"/>
<rect x="183.6" y="263.3" width="6" height="8" fill="#8194ac" opacity="0.5"/>
<rect x="434.7" y="189.4" width="30.6" height="110.6" fill="#3d5a80"/>
<rect x="447.0" y="201.4" width="6" height="8" fill="#8194ac" opacity="0.5"/>
<rect x="447.0" y="217.4" width="6" height="8" fill="#8194ac" opacity="0.5"/>
<rect x="447.0" y="233.4" width="6" height="8" fill="#8194ac" opacity="0.5"/>
<rect x="447.0" y="249.4" width="6" height="8" fill="#8194ac" opacity="0.5"/>
<rect x="447.0" y="265.4" width="6" height="8" fill="#8194ac" opacity="0.5"/>
<rect x="718.1" y="131.5" width="32.2" height="168.5" fill="#3d5a80"/>
<rect x="731.2" y="143.5" width="6" height="8" fill="#8194ac" opacity="0.5"/>
<rect x="731.2" y="175.5" width="6" height="8" fill="#8194ac" opacity="0.5"/>
<rect x="731.2" y="191.5" width="6" height="8" fill="#8194ac" opacity="0.5"/>
<rect x="731.2" y="223.5" width="6" height="8" fill="#8194ac" opacity="0.5"/>
<rect x="731.2" y="239.5" width="6" height="8" fill="#8194ac" opacity="0.5"/>
<rect x="987.1" y="115.8" width="56.7" height="184.2" fill="#3d5a80"/>
<rect x="1019.5" y="127.8" width="6" height="8" fill="#8194ac" opacity="0.5"/>
<rect x="1005.5" y="143.8" width="6" height="8" fill="#8194ac" opacity="0.5"/>
<rect x="1019.5" y="143.8" width="6" height="8" fill="#8194ac" opacity="0.5"/>
<rect x="1005.5" y="159.8" width="6" height="8" fill="#8194ac" opacity="0.5"/>
<rect x="1005.5" y="175.8" width="6" height="8" fill="#8194ac" opacity="0.5"/>
<rect x="1019.5" y="175.8" width="6" height="8" fill="#8194ac" opacity="0.5"/>
<rect x="1005.5" y="191.8" width="6" height="8" fill="#8194ac" opacity="0.5"/>
<rect x="1019.5" y="191.8" width="6" height="8" fill="#8194ac" opacity="0.5"/>
<rect x="1005.5" y="207.8" width="6" height="8" fill="#8194ac" opacity="0.5"/>
<rect x="1019.5" y="207.8" width="6" height="8" fill="#8194ac" opacity="0.5"/>
<rect x="1005.5" y="223.8" width="6" height="8" fill="#8194ac" opacity="0.5"/>
<rect x="1019.5" y="223.8" width="6" height="8" fill="#8194ac" opacity="0.5"/>
<rect x="1005.5" y="239.8" width="6" height="8" fill="#8194ac" opacity="0.5"/>
<rect x="1019.5" y="239.8" width="6" height="8" fill="#8194ac" opacity="0.5"/>
<rect x="1005.5" y="255.8" width="6" height="8" fill="#8194ac" opacity="0.5"/>
<rect x="1019.5" y="255.8" width="6" height="8" fill="#8194ac" opacity="0.5"/>
<rect x="1005.5" y="271.8" width="6" height="8" fill="#8194ac" opacity="0.5"/>
<rect x="1019.5" y="271.8" width="6" height="8" fill="#8194ac" opacity="0.5"/>
<rect x="0" y="298" width="1200" height="2" fill="#375173" opacity="0.15"/>
</svg>