<svg xmlns="http://www.w3.org/2000/svg" viewBox="0 0 1200 400" width="1200" height="400">
<defs>
<linearGradient id="bg" x1="0" y1="0" x2="0" y2="1"><stop offset="0%" stop-color="#f5f0e8"/><stop offset="100%" stop-color="#475569"/></linearGradient>
<linearGradient id="warm" x1="0" y1="0" x2="1" y2="1"><stop offset="0%" stop-color="#858d98" stop-opacity="0.18"/><stop offset="100%" stop-color="#858d98" stop-opacity="0.06"/></linearGradient>
</defs>
<rect width="1200" height="400" fill="url(#bg)"/>
<path d="M0 400 L0 244.86539633317653 C60.0 242.3, 90.0 238.2, 150.0 229.0 C210.0 223.5, 240.0 240.9, 300.0 237.0 C360.0 234.9, 390.0 243.7, 450.0 251.3 C510.0 252.8, 540.0 236.8, 600.0 227.5 C660.0 231.3, 690.0 238.4, 750.0 234.1 C810.0 229.4, 840.0 241.0, 900.0 246.3 C960.0 254.8, 990.0 251.3, 1050.0 242.9 C1110.0 251.3, 1140.0 241.3, 1200.0 241.7 L1200 400 Z" fill="#848b95" opacity="0.45"/>
<path d="M0 400 L0 279.4004875403228 C52.5 280.1, 97.5 261.4, 150.0 268.7 C202.5 267.4, 247.5 276.1, 300.0 277.3 C352.5 270.5, 397.5 280.0, 450.0 281.5 C502.5 286.3, 547.5 276.8, 600.0 275.4 C652.5 273.3, 697.5 283.9, 750.0 277.5 C802.5 278.2, 847.5 270.6, 900.0 270.3 C952.5 270.2, 997.5 273.3, 1050.0 272.2 C1102.5 277.7, 1147.5 276.2, 1200.0 271.8 L1200 400 Z" fill="#475569" opacity="0.3"/>
<rect x="234.6" y="309.6" width="48.7" height="90.4" rx="3.7" fill="#72443c" opacity="0.68"/>
<rect x="956.8" y="279.6" width="18.1" height="120.4" rx="3.3" fill="#8a3a23" opacity="0.76"/>
<rect x="971.5" y="266.3" width="39.7" height="133.7" rx="7.5" fill="#6a4745" opacity="0.51"/>
<rect x="989.7" y="276.3" width="4" height="5" rx="0.5" fill="#f5f0e8" opacity="0.6"/>
<rect x="976.5" y="298.3" width="4" height="5" rx="0.5" fill="#f5f0e8" opacity="0.6"/>
<rect x="989.7" y="320.3" width="4" height="5" rx="0.5" fill="#f5f0e8" opacity="0.6"/>
<rect x="976.5" y="342.3" width="4" height="5" rx="0.5" fill="#f5f0e8" opacity="0.6"/>
<rect x="989.7" y="342.3" width="4" height="5" rx="0.5" fill="#f5f0e8" opacity="0.6"/>
<rect x="347.8" y="271.7" width="32.6" height="128.3" rx="4.1" fill="#6c4642" opacity="0.82"/>
<rect x="552.3" y="279.6" width="34.8" height="120.4" rx="8.0" fill="#863c27" opacity="0.85"/>
<rect x="396.0" y="283.9" width="36.6" height="116.1" rx="4.0" fill="#7d3f30" opacity="0.50"/>
<rect x="999.5" y="349.6" width="25.6" height="50.4" rx="4.8" fill="#8d3920" opacity="0.51"/>
<rect x="736.7" y="341.8" width="12.8" height="58.2" rx="6.2" fill="#6d4641" opacity="0.51"/>
<rect x="655.9" y="295.5" width="20.4" height="104.5" rx="6.6" fill="#8c3920" opacity="0.63"/>
<rect x="660.9" y="327.5" width="4" height="5" rx="0.5" fill="#f5f0e8" opacity="0.6"/>
<rect x="660.9" y="349.5" width="4" height="5" rx="0.5" fill="#f5f0e8" opacity="0.6"/>
<rect x="660.9" y="371.5" width="4" height="5" rx="0.5" fill="#f5f0e8" opacity="0.6"/>
<rect x="955.6" y="336.5" width="44.2" height="63.5" rx="4.1" fill="#7e3f30" opacity="0.82"/>
<rect x="258.6" y="316.1" width="35.5" height="83.9" rx="4.8" fill="#784236" opacity="0.55"/>
<rect x="275.5" y="326.1" width="4" height="5" rx="0.5" fill="#f5f0e8" opacity="0.6"/>
<rect x="263.6" y="348.1" width="4" height="5" rx="0.5" fill="#f5f0e8" opacity="0.6"/>
<rect x="275.5" y="370.1" width="4" height="5" rx="0.5" fill="#f5f0e8" opacity="0.6"/>
<rect x="603.3" y="317.4" width="19.2" height="82.6" rx="3.6" fill="#963617" opacity="0.79"/>
<rect x="545.8" y="274.4" width="42.9" height="125.6" rx="7.4" fill="#8d391f" opacity="0.73"/>
<circle cx="15.1" cy="197.1" r="8.1" fill="#f5f0e8" opacity="0.16"/>
<circle cx="663.5" cy="12.4" r="4.7" fill="#f5f0e8" opacity="0.17"/>
<rect width="1200" height="400" fill="url(#warm)"/>
<rect width="1200" height="400" fill="#f5f0e8" opacity="0.40"/>
</svg>