<svg xmlns="http://www.w3.org/2000/svg" viewBox="0 0 1200 300" width="1200" height="300">
<defs>
<linearGradient id="skyGrad" x1="0" y1="0" x2="0" y2="1">
<stop offset="0%" stop-color="#a78bfa"/>
<stop offset="18%" stop-color="#ddb4f0"/>
<stop offset="35%" stop-color="#fda4af"/>
<stop offset="52%" stop-color="#fdba74"/>
<stop offset="72%" stop-color="#fef08a"/>
<stop offset="100%" stop-color="#fef9c3"/>
</linearGradient>
<linearGradient id="bldg_coral" x1="0" y1="0" x2="0" y2="1"><stop offset="0%" stop-color="#fecaca"/><stop offset="100%" stop-color="#fca5a5"/></linearGradient>
<linearGradient id="bldg_teal" x1="0" y1="0" x2="0" y2="1"><stop offset="0%" stop-color="#99f6e4"/><stop offset="100%" stop-color="#5eead4"/></linearGradient>
<linearGradient id="bldg_amber" x1="0" y1="0" x2="0" y2="1"><stop offset="0%" stop-color="#fde68a"/><stop offset="100%" stop-color="#fcd34d"/></linearGradient>
<linearGradient id="bldg_lavender" x1="0" y1="0" x2="0" y2="1"><stop offset="0%" stop-color="#ddd6fe"/><stop offset="100%" stop-color="#c4b5fd"/></linearGradient>
<linearGradient id="bldg_blue" x1="0" y1="0" x2="0" y2="1"><stop offset="0%" stop-color="#bfdbfe"/><stop offset="100%" stop-color="#93c5fd"/></linearGradient>
<linearGradient id="bldg_mint" x1="0" y1="0" x2="0" y2="1"><stop offset="0%" stop-color="#a7f3d0"/><stop offset="100%" stop-color="#6ee7b7"/></linearGradient>
<linearGradient id="bldg_rose" x1="0" y1="0" x2="0" y2="1"><stop offset="0%" stop-color="#fecdd3"/><stop offset="100%" stop-color="#fda4af"/></linearGradient>
<linearGradient id="bldg_sky" x1="0" y1="0" x2="0" y2="1"><stop offset="0%" stop-color="#bae6fd"/><stop offset="100%" stop-color="#7dd3fc"/></linearGradient>
<linearGradient id="roof_navyRoof" x1="0" y1="0" x2="0" y2="1"><stop offset="0%" stop-color="#4338ca"/><stop offset="100%" stop-color="#3730a3"/></linearGradient>
<linearGradient id="roof_coralRoof" x1="0" y1="0" x2="0" y2="1"><stop offset="0%" stop-color="#f87171"/><stop offset="100%" stop-color="#ef4444"/></linearGradient>
<linearGradient id="roof_tealRoof" x1="0" y1="0" x2="0" y2="1"><stop offset="0%" stop-color="#2dd4bf"/><stop offset="100%" stop-color="#14b8a6"/></linearGradient>
<radialGradient id="windowGlow" cx="50%" cy="50%" r="50%"><stop offset="0%" stop-color="#fef08a"/><stop offset="60%" stop-color="#fbbf24"/><stop offset="100%" stop-color="#f59e0b"/></radialGradient>
<linearGradient id="hillFar" x1="0" y1="0" x2="0" y2="1"><stop offset="0%" stop-color="#c4b5fd"/><stop offset="100%" stop-color="#a5b4fc"/></linearGradient>
<linearGradient id="hillMid" x1="0" y1="0" x2="0" y2="1"><stop offset="0%" stop-color="#86efac"/><stop offset="100%" stop-color="#4ade80"/></linearGradient>
<linearGradient id="hillNear" x1="0" y1="0" x2="0" y2="1"><stop offset="0%" stop-color="#34d399"/><stop offset="100%" stop-color="#10b981"/></linearGradient>
<linearGradient id="hillDesertFar" x1="0" y1="0" x2="0" y2="1"><stop offset="0%" stop-color="#fde68a"/><stop offset="100%" stop-color="#fcd34d"/></linearGradient>
<linearGradient id="hillDesertMid" x1="0" y1="0" x2="0" y2="1"><stop offset="0%" stop-color="#fcd34d"/><stop offset="100%" stop-color="#fbbf24"/></linearGradient>
<linearGradient id="hillDesertNear" x1="0" y1="0" x2="0" y2="1"><stop offset="0%" stop-color="#fbbf24"/><stop offset="100%" stop-color="#f59e0b"/></linearGradient>
<linearGradient id="groundGrad" x1="0" y1="0" x2="0" y2="1"><stop offset="0%" stop-color="#fef3c7"/><stop offset="100%" stop-color="#fde68a"/></linearGradient>
<linearGradient id="waterGrad" x1="0" y1="0" x2="0" y2="1"><stop offset="0%" stop-color="#bfdbfe"/><stop offset="100%" stop-color="#93c5fd"/></linearGradient>
<filter id="softGlow" x="-50%" y="-50%" width="200%" height="200%"><feGaussianBlur in="SourceGraphic" stdDeviation="12"/></filter>
</defs>
<rect width="1200" height="300" fill="url(#skyGrad)"/>
<circle cx="1078.2" cy="39.4" r="45" fill="#fef08a" opacity="0.12" filter="url(#softGlow)"/>
<circle cx="1078.2" cy="39.4" r="30" fill="#fde68a" opacity="0.18" filter="url(#softGlow)"/>
<circle cx="1078.2" cy="39.4" r="16" fill="#fef9c3" opacity="0.25" filter="url(#softGlow)"/>
<path d="M0 300 L0.0 189.5 C230.4 189.5, 230.4 188.5, 460.9 188.5 C594.0 188.5, 594.0 177.3, 727.1 177.3 C963.6 177.3, 963.6 199.8, 1200.0 199.8 L1200 300 Z" fill="url(#hillFar)" opacity="0.5"/>
<path d="M0 300 L0.0 218.3 C188.0 218.3, 188.0 215.9, 376.0 215.9 C593.6 215.9, 593.6 203.2, 811.2 203.2 C1005.6 203.2, 1005.6 208.3, 1200.0 208.3 L1200 300 Z" fill="url(#hillMid)" opacity="0.7"/>
<path d="M0 300 L0.0 227.9 C244.1 227.9, 244.1 235.0, 488.3 235.0 C616.6 235.0, 616.6 236.1, 744.9 236.1 C972.4 236.1, 972.4 237.7, 1200.0 237.7 L1200 300 Z" fill="url(#hillNear)" opacity="1"/>
<rect x="336.9" y="249.0" width="48.6" height="51.0" rx="3" fill="url(#bldg_blue)" opacity="0.7"/>
<polygon points="336.9,249.0 361.1,236.1 385.4,249.0" fill="url(#roof_coralRoof)" opacity="0.7"/>
<rect x="351.1" y="259.0" width="6" height="8" rx="1" fill="url(#windowGlow)" opacity="0.826703806932412"/>
<rect x="365.1" y="259.0" width="6" height="8" rx="1" fill="url(#windowGlow)" opacity="0.7331918174555486"/>
<rect x="831.5" y="254.5" width="82.2" height="45.5" rx="3" fill="url(#bldg_mint)" opacity="0.7"/>
<rect x="847.9" y="249.0" width="49.3" height="5.5" rx="2" fill="url(#roof_tealRoof)" opacity="0.7"/>
<rect x="848.6" y="264.5" width="6" height="8" rx="1" fill="url(#windowGlow)" opacity="0.9709147364697022"/>
<rect x="862.6" y="264.5" width="6" height="8" rx="1" fill="url(#windowGlow)" opacity="0.7846488020311336"/>
<rect x="876.6" y="264.5" width="6" height="8" rx="1" fill="url(#windowGlow)" opacity="0.9876563704515138"/>
<rect x="890.6" y="264.5" width="6" height="8" rx="1" fill="url(#windowGlow)" opacity="0.8931240809583683"/>
<rect x="347.4" y="246.3" width="75.5" height="53.7" rx="3" fill="url(#bldg_rose)" opacity="0.85"/>
<polygon points="347.4,246.3 385.1,224.4 422.9,246.3" fill="url(#roof_navyRoof)" opacity="0.85"/>
<rect x="375.1" y="256.3" width="6" height="8" rx="1" fill="url(#windowGlow)" opacity="0.7422136082510526"/>
<rect x="403.1" y="256.3" width="6" height="8" rx="1" fill="url(#windowGlow)" opacity="0.9550683045550568"/>
<path d="M354.9 265.1 L385.1 265.1 L382.1 271.1 L357.9 271.1 Z" fill="url(#roof_tealRoof)" opacity="0.68"/>
<rect x="834.7" y="215.9" width="43.6" height="84.1" rx="3" fill="url(#bldg_sky)" opacity="0.85"/>
<rect x="843.4" y="205.8" width="26.2" height="10.1" rx="2" fill="url(#roof_coralRoof)" opacity="0.85"/>
<rect x="853.5" y="225.9" width="6" height="8" rx="1" fill="url(#windowGlow)" opacity="0.8724256615957364"/>
<rect x="853.5" y="240.9" width="6" height="8" rx="1" fill="url(#windowGlow)" opacity="0.8581417186922122"/>
<rect x="853.5" y="255.9" width="6" height="8" rx="1" fill="url(#windowGlow)" opacity="0.8375701525889198"/>
<path d="M839.1 245.3 L856.5 245.3 L853.5 251.3 L842.1 251.3 Z" fill="url(#roof_navyRoof)" opacity="0.68"/>
<rect x="606.0" y="186.2" width="62.6" height="113.8" rx="3" fill="url(#bldg_coral)" opacity="1"/>
<rect x="606.0" y="183.2" width="62.6" height="3" rx="1" fill="url(#roof_tealRoof)" opacity="1"/>
<rect x="620.3" y="196.2" width="6" height="8" rx="1" fill="url(#windowGlow)" opacity="0.7675173679215448"/>
<rect x="634.3" y="196.2" width="6" height="8" rx="1" fill="url(#windowGlow)" opacity="0.8584646866929087"/>
<rect x="648.3" y="196.2" width="6" height="8" rx="1" fill="url(#windowGlow)" opacity="0.886267335753081"/>
<rect x="620.3" y="211.2" width="6" height="8" rx="1" fill="url(#windowGlow)" opacity="0.8738135881134371"/>
<rect x="634.3" y="211.2" width="6" height="8" rx="1" fill="url(#windowGlow)" opacity="0.7819522937675716"/>
<rect x="648.3" y="211.2" width="6" height="8" rx="1" fill="url(#windowGlow)" opacity="0.9593795833920034"/>
<rect x="620.3" y="226.2" width="6" height="8" rx="1" fill="url(#windowGlow)" opacity="0.8051323827379999"/>
<rect x="634.3" y="226.2" width="6" height="8" rx="1" fill="url(#windowGlow)" opacity="0.9772580761356549"/>
<rect x="648.3" y="226.2" width="6" height="8" rx="1" fill="url(#windowGlow)" opacity="0.8458780886819017"/>
<rect x="620.3" y="241.2" width="6" height="8" rx="1" fill="url(#windowGlow)" opacity="0.8144491025313964"/>
<rect x="634.3" y="241.2" width="6" height="8" rx="1" fill="url(#windowGlow)" opacity="0.8570490516987858"/>
<rect x="620.3" y="256.2" width="6" height="8" rx="1" fill="url(#windowGlow)" opacity="0.703638097179885"/>
<rect x="648.3" y="256.2" width="6" height="8" rx="1" fill="url(#windowGlow)" opacity="0.7527149160172394"/>
<rect x="632.3" y="284.0" width="10" height="16" rx="2" fill="url(#roof_navyRoof)" opacity="0.8"/>
<rect x="634.3" y="287.0" width="6" height="10" rx="1" fill="url(#windowGlow)" opacity="0.45"/>
<path d="M637.3 226.0 L662.4 226.0 L659.4 232.0 L640.3 232.0 Z" fill="url(#roof_coralRoof)" opacity="0.8"/>
<path d="M557.6 285.0 Q574.6 254.6 567.8 224.3" stroke="#92400e" stroke-width="4" fill="none" stroke-linecap="round"/>
<path d="M567.8 224.3 Q554.2 212.6 545.2 211.9" stroke="#16a34a" stroke-width="2.5" fill="none" stroke-linecap="round"/>
<path d="M567.8 224.3 Q573.4 212.6 577.2 211.8" stroke="#22c55e" stroke-width="2.5" fill="none" stroke-linecap="round"/>
<path d="M567.8 224.3 Q588.1 218.3 601.6 224.3" stroke="#15803d" stroke-width="2.5" fill="none" stroke-linecap="round"/>
<path d="M567.8 224.3 Q575.0 225.6 579.9 240.3" stroke="#4ade80" stroke-width="2.5" fill="none" stroke-linecap="round"/>
<path d="M567.8 224.3 Q557.3 222.6 550.4 233.9" stroke="#16a34a" stroke-width="2.5" fill="none" stroke-linecap="round"/>
<path d="M718.1 285.0 Q741.3 258.6 732.0 232.2" stroke="#92400e" stroke-width="4" fill="none" stroke-linecap="round"/>
<path d="M732.0 232.2 Q721.4 221.8 714.3 222.5" stroke="#16a34a" stroke-width="2.5" fill="none" stroke-linecap="round"/>
<path d="M732.0 232.2 Q737.6 220.6 741.3 219.9" stroke="#22c55e" stroke-width="2.5" fill="none" stroke-linecap="round"/>
<path d="M732.0 232.2 Q746.7 226.2 756.5 232.2" stroke="#15803d" stroke-width="2.5" fill="none" stroke-linecap="round"/>
<path d="M732.0 232.2 Q739.0 233.2 743.6 247.6" stroke="#4ade80" stroke-width="2.5" fill="none" stroke-linecap="round"/>
<path d="M732.0 232.2 Q721.0 230.8 713.7 242.3" stroke="#16a34a" stroke-width="2.5" fill="none" stroke-linecap="round"/>
<path d="M665.7 285.0 Q694.1 262.0 682.8 239.0" stroke="#92400e" stroke-width="4" fill="none" stroke-linecap="round"/>
<path d="M682.8 239.0 Q673.5 229.1 667.4 230.5" stroke="#16a34a" stroke-width="2.5" fill="none" stroke-linecap="round"/>
<path d="M682.8 239.0 Q689.4 226.3 693.8 224.3" stroke="#22c55e" stroke-width="2.5" fill="none" stroke-linecap="round"/>
<path d="M682.8 239.0 Q701.6 233.0 714.2 239.0" stroke="#15803d" stroke-width="2.5" fill="none" stroke-linecap="round"/>
<path d="M682.8 239.0 Q687.9 238.2 691.4 250.4" stroke="#4ade80" stroke-width="2.5" fill="none" stroke-linecap="round"/>
<path d="M682.8 239.0 Q671.2 237.8 663.6 249.6" stroke="#16a34a" stroke-width="2.5" fill="none" stroke-linecap="round"/>
<path d="M814.9 285.0 Q831.8 254.7 825.0 224.4" stroke="#92400e" stroke-width="4" fill="none" stroke-linecap="round"/>
<path d="M825.0 224.4 Q813.3 213.5 805.5 213.6" stroke="#16a34a" stroke-width="2.5" fill="none" stroke-linecap="round"/>
<path d="M825.0 224.4 Q830.5 212.9 834.2 212.2" stroke="#22c55e" stroke-width="2.5" fill="none" stroke-linecap="round"/>
<path d="M825.0 224.4 Q841.3 218.4 852.1 224.4" stroke="#15803d" stroke-width="2.5" fill="none" stroke-linecap="round"/>
<path d="M825.0 224.4 Q832.0 225.4 836.7 239.9" stroke="#4ade80" stroke-width="2.5" fill="none" stroke-linecap="round"/>
<path d="M825.0 224.4 Q812.2 223.7 803.7 236.1" stroke="#16a34a" stroke-width="2.5" fill="none" stroke-linecap="round"/>
<path d="M612.9 285.0 Q635.2 263.9 626.3 242.8" stroke="#92400e" stroke-width="4" fill="none" stroke-linecap="round"/>
<path d="M626.3 242.8 Q612.0 230.8 602.5 229.6" stroke="#16a34a" stroke-width="2.5" fill="none" stroke-linecap="round"/>
<path d="M626.3 242.8 Q631.3 231.7 634.6 231.7" stroke="#22c55e" stroke-width="2.5" fill="none" stroke-linecap="round"/>
<path d="M626.3 242.8 Q640.7 236.8 650.2 242.8" stroke="#15803d" stroke-width="2.5" fill="none" stroke-linecap="round"/>
<path d="M626.3 242.8 Q633.8 244.2 638.7 259.2" stroke="#4ade80" stroke-width="2.5" fill="none" stroke-linecap="round"/>
<path d="M626.3 242.8 Q613.4 242.1 604.8 254.6" stroke="#16a34a" stroke-width="2.5" fill="none" stroke-linecap="round"/>
<path d="M207.6 285.0 Q232.6 262.2 222.6 239.3" stroke="#92400e" stroke-width="4" fill="none" stroke-linecap="round"/>
<path d="M222.6 239.3 Q211.2 228.6 203.6 228.9" stroke="#16a34a" stroke-width="2.5" fill="none" stroke-linecap="round"/>
<path d="M222.6 239.3 Q227.3 228.6 230.4 228.9" stroke="#22c55e" stroke-width="2.5" fill="none" stroke-linecap="round"/>
<path d="M222.6 239.3 Q235.9 233.3 244.9 239.3" stroke="#15803d" stroke-width="2.5" fill="none" stroke-linecap="round"/>
<path d="M222.6 239.3 Q230.3 241.1 235.4 256.3" stroke="#4ade80" stroke-width="2.5" fill="none" stroke-linecap="round"/>
<path d="M222.6 239.3 Q210.1 238.5 201.8 250.7" stroke="#16a34a" stroke-width="2.5" fill="none" stroke-linecap="round"/>
<path d="M372.0 285.0 Q398.7 259.6 388.0 234.2" stroke="#92400e" stroke-width="4" fill="none" stroke-linecap="round"/>
<path d="M388.0 234.2 Q377.2 223.7 370.0 224.3" stroke="#16a34a" stroke-width="2.5" fill="none" stroke-linecap="round"/>
<path d="M388.0 234.2 Q393.4 222.8 396.9 222.3" stroke="#22c55e" stroke-width="2.5" fill="none" stroke-linecap="round"/>
<path d="M388.0 234.2 Q407.2 228.2 419.9 234.2" stroke="#15803d" stroke-width="2.5" fill="none" stroke-linecap="round"/>
<path d="M388.0 234.2 Q392.9 233.1 396.1 245.0" stroke="#4ade80" stroke-width="2.5" fill="none" stroke-linecap="round"/>
<path d="M388.0 234.2 Q377.8 232.5 371.0 243.6" stroke="#16a34a" stroke-width="2.5" fill="none" stroke-linecap="round"/>
<path d="M605.9 285.0 Q621.5 254.0 615.3 223.0" stroke="#92400e" stroke-width="4" fill="none" stroke-linecap="round"/>
<path d="M615.3 223.0 Q603.5 212.1 595.6 212.2" stroke="#16a34a" stroke-width="2.5" fill="none" stroke-linecap="round"/>
<path d="M615.3 223.0 Q621.5 210.8 625.6 209.3" stroke="#22c55e" stroke-width="2.5" fill="none" stroke-linecap="round"/>
<path d="M615.3 223.0 Q628.7 217.0 637.6 223.0" stroke="#15803d" stroke-width="2.5" fill="none" stroke-linecap="round"/>
<path d="M615.3 223.0 Q622.9 224.6 627.9 239.8" stroke="#4ade80" stroke-width="2.5" fill="none" stroke-linecap="round"/>
<path d="M615.3 223.0 Q601.1 222.9 591.7 236.0" stroke="#16a34a" stroke-width="2.5" fill="none" stroke-linecap="round"/>
<path d="M975.8 285.0 Q998.1 254.0 989.2 223.0" stroke="#92400e" stroke-width="4" fill="none" stroke-linecap="round"/>
<path d="M989.2 223.0 Q977.6 212.1 969.9 212.3" stroke="#16a34a" stroke-width="2.5" fill="none" stroke-linecap="round"/>
<path d="M989.2 223.0 Q996.7 209.4 1001.7 206.3" stroke="#22c55e" stroke-width="2.5" fill="none" stroke-linecap="round"/>
<path d="M989.2 223.0 Q1001.3 217.0 1009.3 223.0" stroke="#15803d" stroke-width="2.5" fill="none" stroke-linecap="round"/>
<path d="M989.2 223.0 Q996.7 224.5 1001.7 239.5" stroke="#4ade80" stroke-width="2.5" fill="none" stroke-linecap="round"/>
<path d="M989.2 223.0 Q978.0 221.6 970.5 233.3" stroke="#16a34a" stroke-width="2.5" fill="none" stroke-linecap="round"/>
<rect x="0" y="282" width="1200" height="18" fill="url(#groundGrad)"/>
</svg>