<svg xmlns="http://www.w3.org/2000/svg" viewBox="0 0 1200 300" width="1200" height="300">
<rect width="1200" height="300" fill="#ede8e0"/>
<path d="M0 300 L0 210.0 C344.0 160.7, 843.4 182.4, 1200 210.0 L1200 300 Z" fill="#c4c6be" opacity="0.3"/>
<rect x="151.7" y="228.6" width="72.9" height="71.4" fill="#aeb0a5"/>
<rect x="450.8" y="215.2" width="51.3" height="84.8" fill="#aeb0a5"/>
<rect x="727.6" y="234.7" width="53.3" height="65.3" fill="#aeb0a5"/>
<rect x="999.5" y="225.6" width="55.3" height="74.4" fill="#aeb0a5"/>
<rect x="78.9" y="192.7" width="73.0" height="107.3" fill="#898d7d"/>
<rect x="105.4" y="204.7" width="6" height="8" fill="#b2b5ab" opacity="0.5"/>
<rect x="133.4" y="204.7" width="6" height="8" fill="#b2b5ab" opacity="0.5"/>
<rect x="91.4" y="220.7" width="6" height="8" fill="#b2b5ab" opacity="0.5"/>
<rect x="119.4" y="220.7" width="6" height="8" fill="#b2b5ab" opacity="0.5"/>
<rect x="133.4" y="220.7" width="6" height="8" fill="#b2b5ab" opacity="0.5"/>
<rect x="91.4" y="236.7" width="6" height="8" fill="#b2b5ab" opacity="0.5"/>
<rect x="105.4" y="236.7" width="6" height="8" fill="#b2b5ab" opacity="0.5"/>
<rect x="133.4" y="236.7" width="6" height="8" fill="#b2b5ab" opacity="0.5"/>
<rect x="105.4" y="252.7" width="6" height="8" fill="#b2b5ab" opacity="0.5"/>
<rect x="133.4" y="252.7" width="6" height="8" fill="#b2b5ab" opacity="0.5"/>
<rect x="91.4" y="268.7" width="6" height="8" fill="#b2b5ab" opacity="0.5"/>
<rect x="105.4" y="268.7" width="6" height="8" fill="#b2b5ab" opacity="0.5"/>
<rect x="119.4" y="268.7" width="6" height="8" fill="#b2b5ab" opacity="0.5"/>
<rect x="133.4" y="268.7" width="6" height="8" fill="#b2b5ab" opacity="0.5"/>
<rect x="316.1" y="136.7" width="45.8" height="163.3" fill="#898d7d"/>
<rect x="342.9" y="148.7" width="6" height="8" fill="#b2b5ab" opacity="0.5"/>
<rect x="328.9" y="164.7" width="6" height="8" fill="#b2b5ab" opacity="0.5"/>
<rect x="342.9" y="164.7" width="6" height="8" fill="#b2b5ab" opacity="0.5"/>
<rect x="342.9" y="180.7" width="6" height="8" fill="#b2b5ab" opacity="0.5"/>
<rect x="328.9" y="196.7" width="6" height="8" fill="#b2b5ab" opacity="0.5"/>
<rect x="342.9" y="212.7" width="6" height="8" fill="#b2b5ab" opacity="0.5"/>
<rect x="328.9" y="228.7" width="6" height="8" fill="#b2b5ab" opacity="0.5"/>
<rect x="342.9" y="228.7" width="6" height="8" fill="#b2b5ab" opacity="0.5"/>
<rect x="328.9" y="244.7" width="6" height="8" fill="#b2b5ab" opacity="0.5"/>
<rect x="342.9" y="244.7" width="6" height="8" fill="#b2b5ab" opacity="0.5"/>
<rect x="328.9" y="260.7" width="6" height="8" fill="#b2b5ab" opacity="0.5"/>
<rect x="342.9" y="260.7" width="6" height="8" fill="#b2b5ab" opacity="0.5"/>
<rect x="544.2" y="201.4" width="51.4" height="98.6" fill="#898d7d"/>
<rect x="559.9" y="213.4" width="6" height="8" fill="#b2b5ab" opacity="0.5"/>
<rect x="573.9" y="213.4" width="6" height="8" fill="#b2b5ab" opacity="0.5"/>
<rect x="559.9" y="229.4" width="6" height="8" fill="#b2b5ab" opacity="0.5"/>
<rect x="573.9" y="229.4" width="6" height="8" fill="#b2b5ab" opacity="0.5"/>
<rect x="559.9" y="245.4" width="6" height="8" fill="#b2b5ab" opacity="0.5"/>
<rect x="559.9" y="261.4" width="6" height="8" fill="#b2b5ab" opacity="0.5"/>
<rect x="573.9" y="261.4" width="6" height="8" fill="#b2b5ab" opacity="0.5"/>
<rect x="817.8" y="199.9" width="71.6" height="100.1" fill="#898d7d"/>
<rect x="836.6" y="211.9" width="6" height="8" fill="#b2b5ab" opacity="0.5"/>
<rect x="864.6" y="211.9" width="6" height="8" fill="#b2b5ab" opacity="0.5"/>
<rect x="836.6" y="227.9" width="6" height="8" fill="#b2b5ab" opacity="0.5"/>
<rect x="864.6" y="227.9" width="6" height="8" fill="#b2b5ab" opacity="0.5"/>
<rect x="836.6" y="243.9" width="6" height="8" fill="#b2b5ab" opacity="0.5"/>
<rect x="850.6" y="243.9" width="6" height="8" fill="#b2b5ab" opacity="0.5"/>
<rect x="864.6" y="243.9" width="6" height="8" fill="#b2b5ab" opacity="0.5"/>
<rect x="836.6" y="259.9" width="6" height="8" fill="#b2b5ab" opacity="0.5"/>
<rect x="850.6" y="259.9" width="6" height="8" fill="#b2b5ab" opacity="0.5"/>
<rect x="864.6" y="259.9" width="6" height="8" fill="#b2b5ab" opacity="0.5"/>
<rect x="1034.9" y="155.6" width="35.5" height="144.4" fill="#898d7d"/>
<rect x="1049.7" y="183.6" width="6" height="8" fill="#b2b5ab" opacity="0.5"/>
<rect x="1049.7" y="199.6" width="6" height="8" fill="#b2b5ab" opacity="0.5"/>
<rect x="1049.7" y="215.6" width="6" height="8" fill="#b2b5ab" opacity="0.5"/>
<rect x="1049.7" y="231.6" width="6" height="8" fill="#b2b5ab" opacity="0.5"/>
<rect x="1049.7" y="247.6" width="6" height="8" fill="#b2b5ab" opacity="0.5"/>
<rect x="1049.7" y="263.6" width="6" height="8" fill="#b2b5ab" opacity="0.5"/>
<rect x="148.1" y="220.6" width="60.5" height="79.4" fill="#6b705c"/>
<rect x="175.4" y="232.6" width="6" height="8" fill="#9fa295" opacity="0.5"/>
<rect x="189.4" y="232.6" width="6" height="8" fill="#9fa295" opacity="0.5"/>
<rect x="161.4" y="248.6" width="6" height="8" fill="#9fa295" opacity="0.5"/>
<rect x="175.4" y="248.6" width="6" height="8" fill="#9fa295" opacity="0.5"/>
<rect x="189.4" y="248.6" width="6" height="8" fill="#9fa295" opacity="0.5"/>
<rect x="161.4" y="264.6" width="6" height="8" fill="#9fa295" opacity="0.5"/>
<rect x="189.4" y="264.6" width="6" height="8" fill="#9fa295" opacity="0.5"/>
<rect x="441.5" y="213.0" width="58.9" height="87.0" fill="#6b705c"/>
<rect x="467.9" y="225.0" width="6" height="8" fill="#9fa295" opacity="0.5"/>
<rect x="481.9" y="225.0" width="6" height="8" fill="#9fa295" opacity="0.5"/>
<rect x="453.9" y="241.0" width="6" height="8" fill="#9fa295" opacity="0.5"/>
<rect x="467.9" y="241.0" width="6" height="8" fill="#9fa295" opacity="0.5"/>
<rect x="481.9" y="241.0" width="6" height="8" fill="#9fa295" opacity="0.5"/>
<rect x="453.9" y="257.0" width="6" height="8" fill="#9fa295" opacity="0.5"/>
<rect x="481.9" y="257.0" width="6" height="8" fill="#9fa295" opacity="0.5"/>
<rect x="453.9" y="273.0" width="6" height="8" fill="#9fa295" opacity="0.5"/>
<rect x="481.9" y="273.0" width="6" height="8" fill="#9fa295" opacity="0.5"/>
<rect x="732.6" y="202.6" width="47.3" height="97.4" fill="#6b705c"/>
<rect x="760.3" y="214.6" width="6" height="8" fill="#9fa295" opacity="0.5"/>
<rect x="746.3" y="246.6" width="6" height="8" fill="#9fa295" opacity="0.5"/>
<rect x="760.3" y="246.6" width="6" height="8" fill="#9fa295" opacity="0.5"/>
<rect x="746.3" y="262.6" width="6" height="8" fill="#9fa295" opacity="0.5"/>
<rect x="760.3" y="262.6" width="6" height="8" fill="#9fa295" opacity="0.5"/>
<rect x="992.4" y="141.0" width="42.9" height="159.0" fill="#6b705c"/>
<rect x="1010.8" y="153.0" width="6" height="8" fill="#9fa295" opacity="0.5"/>
<rect x="1010.8" y="169.0" width="6" height="8" fill="#9fa295" opacity="0.5"/>
<rect x="1010.8" y="185.0" width="6" height="8" fill="#9fa295" opacity="0.5"/>
<rect x="1010.8" y="201.0" width="6" height="8" fill="#9fa295" opacity="0.5"/>
<rect x="1010.8" y="217.0" width="6" height="8" fill="#9fa295" opacity="0.5"/>
<rect x="1010.8" y="233.0" width="6" height="8" fill="#9fa295" opacity="0.5"/>
<rect x="1010.8" y="249.0" width="6" height="8" fill="#9fa295" opacity="0.5"/>
<rect x="1010.8" y="265.0" width="6" height="8" fill="#9fa295" opacity="0.5"/>
<rect x="0" y="298" width="1200" height="2" fill="#606553" opacity="0.15"/>
</svg>