<svg xmlns="http://www.w3.org/2000/svg" viewBox="0 0 1200 300" width="1200" height="300">
<defs>
<linearGradient id="skyGrad" x1="0" y1="0" x2="0" y2="1">
<stop offset="0%" stop-color="#a78bfa"/>
<stop offset="18%" stop-color="#ddb4f0"/>
<stop offset="35%" stop-color="#fda4af"/>
<stop offset="52%" stop-color="#fdba74"/>
<stop offset="72%" stop-color="#fef08a"/>
<stop offset="100%" stop-color="#fef9c3"/>
</linearGradient>
<linearGradient id="bldg_coral" x1="0" y1="0" x2="0" y2="1"><stop offset="0%" stop-color="#fecaca"/><stop offset="100%" stop-color="#fca5a5"/></linearGradient>
<linearGradient id="bldg_teal" x1="0" y1="0" x2="0" y2="1"><stop offset="0%" stop-color="#99f6e4"/><stop offset="100%" stop-color="#5eead4"/></linearGradient>
<linearGradient id="bldg_amber" x1="0" y1="0" x2="0" y2="1"><stop offset="0%" stop-color="#fde68a"/><stop offset="100%" stop-color="#fcd34d"/></linearGradient>
<linearGradient id="bldg_lavender" x1="0" y1="0" x2="0" y2="1"><stop offset="0%" stop-color="#ddd6fe"/><stop offset="100%" stop-color="#c4b5fd"/></linearGradient>
<linearGradient id="bldg_blue" x1="0" y1="0" x2="0" y2="1"><stop offset="0%" stop-color="#bfdbfe"/><stop offset="100%" stop-color="#93c5fd"/></linearGradient>
<linearGradient id="bldg_mint" x1="0" y1="0" x2="0" y2="1"><stop offset="0%" stop-color="#a7f3d0"/><stop offset="100%" stop-color="#6ee7b7"/></linearGradient>
<linearGradient id="bldg_rose" x1="0" y1="0" x2="0" y2="1"><stop offset="0%" stop-color="#fecdd3"/><stop offset="100%" stop-color="#fda4af"/></linearGradient>
<linearGradient id="bldg_sky" x1="0" y1="0" x2="0" y2="1"><stop offset="0%" stop-color="#bae6fd"/><stop offset="100%" stop-color="#7dd3fc"/></linearGradient>
<linearGradient id="roof_navyRoof" x1="0" y1="0" x2="0" y2="1"><stop offset="0%" stop-color="#4338ca"/><stop offset="100%" stop-color="#3730a3"/></linearGradient>
<linearGradient id="roof_coralRoof" x1="0" y1="0" x2="0" y2="1"><stop offset="0%" stop-color="#f87171"/><stop offset="100%" stop-color="#ef4444"/></linearGradient>
<linearGradient id="roof_tealRoof" x1="0" y1="0" x2="0" y2="1"><stop offset="0%" stop-color="#2dd4bf"/><stop offset="100%" stop-color="#14b8a6"/></linearGradient>
<radialGradient id="windowGlow" cx="50%" cy="50%" r="50%"><stop offset="0%" stop-color="#fef08a"/><stop offset="60%" stop-color="#fbbf24"/><stop offset="100%" stop-color="#f59e0b"/></radialGradient>
<linearGradient id="hillFar" x1="0" y1="0" x2="0" y2="1"><stop offset="0%" stop-color="#c4b5fd"/><stop offset="100%" stop-color="#a5b4fc"/></linearGradient>
<linearGradient id="hillMid" x1="0" y1="0" x2="0" y2="1"><stop offset="0%" stop-color="#86efac"/><stop offset="100%" stop-color="#4ade80"/></linearGradient>
<linearGradient id="hillNear" x1="0" y1="0" x2="0" y2="1"><stop offset="0%" stop-color="#34d399"/><stop offset="100%" stop-color="#10b981"/></linearGradient>
<linearGradient id="hillDesertFar" x1="0" y1="0" x2="0" y2="1"><stop offset="0%" stop-color="#fde68a"/><stop offset="100%" stop-color="#fcd34d"/></linearGradient>
<linearGradient id="hillDesertMid" x1="0" y1="0" x2="0" y2="1"><stop offset="0%" stop-color="#fcd34d"/><stop offset="100%" stop-color="#fbbf24"/></linearGradient>
<linearGradient id="hillDesertNear" x1="0" y1="0" x2="0" y2="1"><stop offset="0%" stop-color="#fbbf24"/><stop offset="100%" stop-color="#f59e0b"/></linearGradient>
<linearGradient id="groundGrad" x1="0" y1="0" x2="0" y2="1"><stop offset="0%" stop-color="#fef3c7"/><stop offset="100%" stop-color="#fde68a"/></linearGradient>
<linearGradient id="waterGrad" x1="0" y1="0" x2="0" y2="1"><stop offset="0%" stop-color="#bfdbfe"/><stop offset="100%" stop-color="#93c5fd"/></linearGradient>
<filter id="softGlow" x="-50%" y="-50%" width="200%" height="200%"><feGaussianBlur in="SourceGraphic" stdDeviation="12"/></filter>
</defs>
<rect width="1200" height="300" fill="url(#skyGrad)"/>
<circle cx="1018.1" cy="59.5" r="45" fill="#fef08a" opacity="0.12" filter="url(#softGlow)"/>
<circle cx="1018.1" cy="59.5" r="30" fill="#fde68a" opacity="0.18" filter="url(#softGlow)"/>
<circle cx="1018.1" cy="59.5" r="16" fill="#fef9c3" opacity="0.25" filter="url(#softGlow)"/>
<path d="M0 300 L0.0 191.7 C142.9 191.7, 142.9 183.9, 285.7 183.9 C393.8 183.9, 393.8 191.3, 502.0 191.3 C594.6 191.3, 594.6 182.9, 687.2 182.9 C816.7 182.9, 816.7 190.0, 946.3 190.0 C1073.1 190.0, 1073.1 189.5, 1200.0 189.5 L1200 300 Z" fill="url(#hillFar)" opacity="0.5"/>
<path d="M0 300 L0.0 212.8 C199.6 212.8, 199.6 212.5, 399.1 212.5 C633.9 212.5, 633.9 214.4, 868.7 214.4 C1034.3 214.4, 1034.3 216.0, 1200.0 216.0 L1200 300 Z" fill="url(#hillMid)" opacity="0.7"/>
<path d="M0 300 L0.0 237.7 C185.4 237.7, 185.4 234.9, 370.9 234.9 C452.5 234.9, 452.5 236.0, 534.1 236.0 C740.5 236.0, 740.5 230.8, 946.9 230.8 C1073.5 230.8, 1073.5 237.9, 1200.0 237.9 L1200 300 Z" fill="url(#hillNear)" opacity="1"/>
<rect x="323.3" y="209.3" width="65.3" height="90.7" rx="3" fill="url(#bldg_teal)" opacity="0.7"/>
<polygon points="323.3,209.3 356.0,188.5 388.6,209.3" fill="url(#roof_tealRoof)" opacity="0.7"/>
<rect x="339.0" y="219.3" width="6" height="8" rx="1" fill="url(#windowGlow)" opacity="0.9378561447550804"/>
<rect x="353.0" y="219.3" width="6" height="8" rx="1" fill="url(#windowGlow)" opacity="0.8686652218777058"/>
<rect x="367.0" y="219.3" width="6" height="8" rx="1" fill="url(#windowGlow)" opacity="0.8672004275802524"/>
<rect x="353.0" y="234.3" width="6" height="8" rx="1" fill="url(#windowGlow)" opacity="0.8970045319278745"/>
<rect x="367.0" y="234.3" width="6" height="8" rx="1" fill="url(#windowGlow)" opacity="0.7182072129651006"/>
<rect x="339.0" y="249.3" width="6" height="8" rx="1" fill="url(#windowGlow)" opacity="0.8475236501766013"/>
<rect x="804.1" y="211.3" width="70.6" height="88.7" rx="3" fill="url(#bldg_amber)" opacity="0.7"/>
<rect x="818.2" y="200.7" width="42.4" height="10.6" rx="2" fill="url(#roof_navyRoof)" opacity="0.7"/>
<rect x="822.4" y="221.3" width="6" height="8" rx="1" fill="url(#windowGlow)" opacity="0.797790593140661"/>
<rect x="836.4" y="221.3" width="6" height="8" rx="1" fill="url(#windowGlow)" opacity="0.9709825484412641"/>
<rect x="850.4" y="221.3" width="6" height="8" rx="1" fill="url(#windowGlow)" opacity="0.8743933365561036"/>
<rect x="822.4" y="236.3" width="6" height="8" rx="1" fill="url(#windowGlow)" opacity="0.911630916228346"/>
<rect x="836.4" y="236.3" width="6" height="8" rx="1" fill="url(#windowGlow)" opacity="0.9327051757987146"/>
<rect x="850.4" y="236.3" width="6" height="8" rx="1" fill="url(#windowGlow)" opacity="0.7128041022516806"/>
<rect x="822.4" y="251.3" width="6" height="8" rx="1" fill="url(#windowGlow)" opacity="0.801794437738971"/>
<rect x="836.4" y="251.3" width="6" height="8" rx="1" fill="url(#windowGlow)" opacity="0.7292856893638547"/>
<rect x="850.4" y="251.3" width="6" height="8" rx="1" fill="url(#windowGlow)" opacity="0.9280260498765976"/>
<rect x="171.3" y="205.8" width="66.3" height="94.2" rx="3" fill="url(#bldg_lavender)" opacity="0.85"/>
<polygon points="171.3,205.8 204.4,185.6 237.5,205.8" fill="url(#roof_coralRoof)" opacity="0.85"/>
<rect x="187.4" y="215.8" width="6" height="8" rx="1" fill="url(#windowGlow)" opacity="0.9675298014038847"/>
<rect x="201.4" y="215.8" width="6" height="8" rx="1" fill="url(#windowGlow)" opacity="0.930228166668782"/>
<rect x="215.4" y="215.8" width="6" height="8" rx="1" fill="url(#windowGlow)" opacity="0.9972232929883633"/>
<rect x="201.4" y="230.8" width="6" height="8" rx="1" fill="url(#windowGlow)" opacity="0.8128212701588967"/>
<rect x="215.4" y="230.8" width="6" height="8" rx="1" fill="url(#windowGlow)" opacity="0.7802002522070893"/>
<rect x="187.4" y="245.8" width="6" height="8" rx="1" fill="url(#windowGlow)" opacity="0.9458326059141348"/>
<rect x="215.4" y="245.8" width="6" height="8" rx="1" fill="url(#windowGlow)" opacity="0.8901247335551887"/>
<rect x="187.4" y="260.8" width="6" height="8" rx="1" fill="url(#windowGlow)" opacity="0.9969485671710914"/>
<rect x="201.4" y="260.8" width="6" height="8" rx="1" fill="url(#windowGlow)" opacity="0.8262862305744952"/>
<path d="M204.4 238.8 L230.9 238.8 L227.9 244.8 L207.4 244.8 Z" fill="url(#roof_navyRoof)" opacity="0.68"/>
<rect x="551.2" y="213.8" width="66.4" height="86.2" rx="3" fill="url(#bldg_blue)" opacity="0.85"/>
<polygon points="551.2,213.8 584.4,190.6 617.6,213.8" fill="url(#roof_tealRoof)" opacity="0.85"/>
<rect x="567.4" y="223.8" width="6" height="8" rx="1" fill="url(#windowGlow)" opacity="0.8673169012494929"/>
<rect x="581.4" y="223.8" width="6" height="8" rx="1" fill="url(#windowGlow)" opacity="0.898066703462073"/>
<rect x="567.4" y="238.8" width="6" height="8" rx="1" fill="url(#windowGlow)" opacity="0.9635352855844121"/>
<rect x="595.4" y="238.8" width="6" height="8" rx="1" fill="url(#windowGlow)" opacity="0.714161354915314"/>
<rect x="567.4" y="253.8" width="6" height="8" rx="1" fill="url(#windowGlow)" opacity="0.721330364570641"/>
<rect x="581.4" y="253.8" width="6" height="8" rx="1" fill="url(#windowGlow)" opacity="0.9965977726488363"/>
<rect x="595.4" y="253.8" width="6" height="8" rx="1" fill="url(#windowGlow)" opacity="0.9077993330116381"/>
<path d="M584.4 244.0 L610.9 244.0 L607.9 250.0 L587.4 250.0 Z" fill="url(#roof_coralRoof)" opacity="0.68"/>
<rect x="970.2" y="228.5" width="53.6" height="71.5" rx="3" fill="url(#bldg_mint)" opacity="0.85"/>
<polygon points="970.2,228.5 997.0,215.7 1023.8,228.5" fill="url(#roof_navyRoof)" opacity="0.85"/>
<rect x="987.0" y="238.5" width="6" height="8" rx="1" fill="url(#windowGlow)" opacity="0.8238993474393614"/>
<rect x="1001.0" y="238.5" width="6" height="8" rx="1" fill="url(#windowGlow)" opacity="0.7763084091135806"/>
<rect x="987.0" y="253.5" width="6" height="8" rx="1" fill="url(#windowGlow)" opacity="0.9806941121726734"/>
<rect x="1001.0" y="253.5" width="6" height="8" rx="1" fill="url(#windowGlow)" opacity="0.9905654474117631"/>
<path d="M997.0 253.5 L1018.5 253.5 L1015.5 259.5 L1000.0 259.5 Z" fill="url(#roof_tealRoof)" opacity="0.68"/>
<rect x="164.6" y="129.8" width="67.5" height="170.2" rx="3" fill="url(#bldg_rose)" opacity="1"/>
<rect x="178.1" y="109.4" width="40.5" height="20.4" rx="2" fill="url(#roof_coralRoof)" opacity="1"/>
<rect x="195.4" y="139.8" width="6" height="8" rx="1" fill="url(#windowGlow)" opacity="0.8962587277853203"/>
<rect x="209.4" y="139.8" width="6" height="8" rx="1" fill="url(#windowGlow)" opacity="0.8185398900967742"/>
<rect x="195.4" y="154.8" width="6" height="8" rx="1" fill="url(#windowGlow)" opacity="0.9960034480765477"/>
<rect x="209.4" y="154.8" width="6" height="8" rx="1" fill="url(#windowGlow)" opacity="0.7596064336875483"/>
<rect x="181.4" y="169.8" width="6" height="8" rx="1" fill="url(#windowGlow)" opacity="0.9440873641726035"/>
<rect x="195.4" y="169.8" width="6" height="8" rx="1" fill="url(#windowGlow)" opacity="0.7778096279491715"/>
<rect x="209.4" y="169.8" width="6" height="8" rx="1" fill="url(#windowGlow)" opacity="0.7593433992282224"/>
<rect x="181.4" y="184.8" width="6" height="8" rx="1" fill="url(#windowGlow)" opacity="0.7874106292088565"/>
<rect x="209.4" y="184.8" width="6" height="8" rx="1" fill="url(#windowGlow)" opacity="0.9193656491671528"/>
<rect x="181.4" y="199.8" width="6" height="8" rx="1" fill="url(#windowGlow)" opacity="0.8605268114528277"/>
<rect x="181.4" y="214.8" width="6" height="8" rx="1" fill="url(#windowGlow)" opacity="0.7835240020339954"/>
<rect x="195.4" y="214.8" width="6" height="8" rx="1" fill="url(#windowGlow)" opacity="0.7847912756655324"/>
<rect x="209.4" y="214.8" width="6" height="8" rx="1" fill="url(#windowGlow)" opacity="0.7993535284881264"/>
<rect x="181.4" y="229.8" width="6" height="8" rx="1" fill="url(#windowGlow)" opacity="0.7329451504782518"/>
<rect x="195.4" y="229.8" width="6" height="8" rx="1" fill="url(#windowGlow)" opacity="0.8141568149505913"/>
<rect x="181.4" y="244.8" width="6" height="8" rx="1" fill="url(#windowGlow)" opacity="0.9031671891935016"/>
<rect x="195.4" y="244.8" width="6" height="8" rx="1" fill="url(#windowGlow)" opacity="0.7900757288048396"/>
<rect x="193.4" y="284.0" width="10" height="16" rx="2" fill="url(#roof_navyRoof)" opacity="0.8"/>
<rect x="195.4" y="287.0" width="6" height="10" rx="1" fill="url(#windowGlow)" opacity="0.45"/>
<path d="M198.4 189.4 L225.4 189.4 L222.4 195.4 L201.4 195.4 Z" fill="url(#roof_navyRoof)" opacity="0.8"/>
<rect x="186.6" y="155.8" width="23.6" height="5" rx="1" fill="#15803d" opacity="0.7"/>
<circle cx="189.6" cy="154.8" r="2.5" fill="#f87171" opacity="0.85"/>
<circle cx="197.5" cy="154.8" r="2.5" fill="#fbbf24" opacity="0.85"/>
<circle cx="205.3" cy="154.8" r="2.5" fill="#fbbf24" opacity="0.85"/>
<rect x="548.4" y="160.3" width="49.4" height="139.7" rx="3" fill="url(#bldg_sky)" opacity="1"/>
<rect x="558.3" y="143.5" width="29.6" height="16.8" rx="2" fill="url(#roof_tealRoof)" opacity="1"/>
<rect x="563.1" y="170.3" width="6" height="8" rx="1" fill="url(#windowGlow)" opacity="0.9966973055138706"/>
<rect x="577.1" y="170.3" width="6" height="8" rx="1" fill="url(#windowGlow)" opacity="0.8966504546332408"/>
<rect x="577.1" y="185.3" width="6" height="8" rx="1" fill="url(#windowGlow)" opacity="0.8237433818745162"/>
<rect x="563.1" y="200.3" width="6" height="8" rx="1" fill="url(#windowGlow)" opacity="0.9172498331485548"/>
<rect x="563.1" y="215.3" width="6" height="8" rx="1" fill="url(#windowGlow)" opacity="0.8557953251785577"/>
<rect x="577.1" y="215.3" width="6" height="8" rx="1" fill="url(#windowGlow)" opacity="0.8090674926569068"/>
<rect x="563.1" y="230.3" width="6" height="8" rx="1" fill="url(#windowGlow)" opacity="0.8867953408913665"/>
<rect x="577.1" y="230.3" width="6" height="8" rx="1" fill="url(#windowGlow)" opacity="0.9796781550998231"/>
<rect x="563.1" y="245.3" width="6" height="8" rx="1" fill="url(#windowGlow)" opacity="0.9935867960534928"/>
<rect x="577.1" y="245.3" width="6" height="8" rx="1" fill="url(#windowGlow)" opacity="0.9443356575185133"/>
<rect x="563.1" y="260.3" width="6" height="8" rx="1" fill="url(#windowGlow)" opacity="0.8432840913735722"/>
<rect x="577.1" y="260.3" width="6" height="8" rx="1" fill="url(#windowGlow)" opacity="0.8487428865622463"/>
<rect x="568.1" y="284.0" width="10" height="16" rx="2" fill="url(#roof_navyRoof)" opacity="0.8"/>
<rect x="570.1" y="287.0" width="6" height="10" rx="1" fill="url(#windowGlow)" opacity="0.45"/>
<path d="M553.4 209.2 L573.1 209.2 L570.1 215.2 L556.4 215.2 Z" fill="url(#roof_coralRoof)" opacity="0.8"/>
<rect x="564.5" y="186.3" width="17.3" height="5" rx="1" fill="#15803d" opacity="0.7"/>
<circle cx="567.5" cy="185.3" r="2.5" fill="#fbbf24" opacity="0.85"/>
<circle cx="573.2" cy="185.3" r="2.5" fill="#f87171" opacity="0.85"/>
<circle cx="579.0" cy="185.3" r="2.5" fill="#fb923c" opacity="0.85"/>
<rect x="929.8" y="181.1" width="48.4" height="118.9" rx="3" fill="url(#bldg_coral)" opacity="1"/>
<polygon points="929.8,181.1 954.0,167.3 978.3,181.1" fill="url(#roof_navyRoof)" opacity="1"/>
<rect x="944.0" y="191.1" width="6" height="8" rx="1" fill="url(#windowGlow)" opacity="0.8487338649801601"/>
<rect x="958.0" y="191.1" width="6" height="8" rx="1" fill="url(#windowGlow)" opacity="0.843989540424193"/>
<rect x="944.0" y="206.1" width="6" height="8" rx="1" fill="url(#windowGlow)" opacity="0.8271578163500678"/>
<rect x="958.0" y="221.1" width="6" height="8" rx="1" fill="url(#windowGlow)" opacity="0.8656886144381428"/>
<rect x="944.0" y="236.1" width="6" height="8" rx="1" fill="url(#windowGlow)" opacity="0.785609058423717"/>
<rect x="944.0" y="251.1" width="6" height="8" rx="1" fill="url(#windowGlow)" opacity="0.7108647401029545"/>
<rect x="958.0" y="251.1" width="6" height="8" rx="1" fill="url(#windowGlow)" opacity="0.7619788745241141"/>
<rect x="949.0" y="284.0" width="10" height="16" rx="2" fill="url(#roof_navyRoof)" opacity="0.8"/>
<rect x="951.0" y="287.0" width="6" height="10" rx="1" fill="url(#windowGlow)" opacity="0.45"/>
<rect x="387.3" y="264.4" width="6" height="20.6" rx="2" fill="#15803d"/>
<circle cx="390.3" cy="254.3" r="14.1" fill="#22c55e" opacity="0.9"/>
<circle cx="383.8" cy="257.3" r="10.6" fill="#16a34a" opacity="0.8"/>
<circle cx="397.4" cy="258.3" r="9.9" fill="#15803d" opacity="0.7"/>
<rect x="760.8" y="267.8" width="6" height="17.2" rx="2" fill="#15803d"/>
<circle cx="763.8" cy="256.8" r="14.9" fill="#22c55e" opacity="0.9"/>
<circle cx="756.0" cy="259.8" r="11.2" fill="#16a34a" opacity="0.8"/>
<circle cx="771.3" cy="260.8" r="10.5" fill="#15803d" opacity="0.7"/>
<rect x="141.2" y="265.4" width="6" height="19.6" rx="2" fill="#15803d"/>
<circle cx="144.2" cy="255.5" r="13.8" fill="#22c55e" opacity="0.9"/>
<circle cx="137.3" cy="258.5" r="10.4" fill="#16a34a" opacity="0.8"/>
<circle cx="150.4" cy="259.5" r="9.7" fill="#15803d" opacity="0.7"/>
<rect x="998.8" y="268.1" width="6" height="16.9" rx="2" fill="#15803d"/>
<circle cx="1001.8" cy="256.1" r="15.9" fill="#22c55e" opacity="0.9"/>
<circle cx="993.3" cy="259.1" r="11.9" fill="#16a34a" opacity="0.8"/>
<circle cx="1009.1" cy="260.1" r="11.1" fill="#15803d" opacity="0.7"/>
<rect x="1014.3" y="264.3" width="6" height="20.7" rx="2" fill="#15803d"/>
<circle cx="1017.3" cy="251.6" r="16.8" fill="#22c55e" opacity="0.9"/>
<circle cx="1009.7" cy="254.6" r="12.6" fill="#16a34a" opacity="0.8"/>
<circle cx="1025.2" cy="255.6" r="11.8" fill="#15803d" opacity="0.7"/>
<rect x="430.7" y="267.3" width="6" height="17.7" rx="2" fill="#15803d"/>
<circle cx="433.7" cy="253.6" r="17.7" fill="#22c55e" opacity="0.9"/>
<circle cx="424.7" cy="256.6" r="13.3" fill="#16a34a" opacity="0.8"/>
<circle cx="439.6" cy="257.6" r="12.4" fill="#15803d" opacity="0.7"/>
<rect x="85.0" y="266.8" width="6" height="18.2" rx="2" fill="#15803d"/>
<circle cx="88.0" cy="257.2" r="13.6" fill="#22c55e" opacity="0.9"/>
<circle cx="80.9" cy="260.2" r="10.2" fill="#16a34a" opacity="0.8"/>
<circle cx="93.3" cy="261.2" r="9.5" fill="#15803d" opacity="0.7"/>
<rect x="251.3" y="268.7" width="6" height="16.3" rx="2" fill="#15803d"/>
<circle cx="254.3" cy="257.1" r="15.6" fill="#22c55e" opacity="0.9"/>
<circle cx="247.6" cy="260.1" r="11.7" fill="#16a34a" opacity="0.8"/>
<circle cx="261.4" cy="261.1" r="10.9" fill="#15803d" opacity="0.7"/>
<rect x="846.0" y="264.9" width="6" height="20.1" rx="2" fill="#15803d"/>
<circle cx="849.0" cy="254.1" r="14.8" fill="#22c55e" opacity="0.9"/>
<circle cx="840.2" cy="257.1" r="11.1" fill="#16a34a" opacity="0.8"/>
<circle cx="857.0" cy="258.1" r="10.3" fill="#15803d" opacity="0.7"/>
<rect x="0" y="282" width="1200" height="18" fill="url(#groundGrad)"/>
<line x1="1038.9" y1="282.0" x2="1038.9" y2="245.4" stroke="#92400e" stroke-width="2"/>
<circle cx="1038.9" cy="245.4" r="4" fill="#fef08a" opacity="0.6"/>
<circle cx="1038.9" cy="245.4" r="8" fill="#fef08a" opacity="0.15" filter="url(#softGlow)"/>
<ellipse cx="593.5" cy="282.0" rx="5.5" ry="3.8" fill="#22c55e" opacity="0.6"/>
<ellipse cx="953.2" cy="282.0" rx="6.9" ry="4.8" fill="#22c55e" opacity="0.6"/>
</svg>