<svg xmlns="http://www.w3.org/2000/svg" viewBox="0 0 1200 400" width="1200" height="400">
<defs>
<linearGradient id="bg" x1="0" y1="0" x2="0" y2="1"><stop offset="0%" stop-color="#d4a76a"/><stop offset="100%" stop-color="#ea580c"/></linearGradient>
<linearGradient id="warm" x1="0" y1="0" x2="1" y2="1"><stop offset="0%" stop-color="#858d98" stop-opacity="0.18"/><stop offset="100%" stop-color="#858d98" stop-opacity="0.06"/></linearGradient>
</defs>
<rect width="1200" height="400" fill="url(#bg)"/>
<path d="M0 400 L0 244.4000702565864 C60.0 248.8, 90.0 255.1, 150.0 257.3 C210.0 252.7, 240.0 249.2, 300.0 246.5 C360.0 238.5, 390.0 227.2, 450.0 231.0 C510.0 231.0, 540.0 248.4, 600.0 253.8 C660.0 260.6, 690.0 237.2, 750.0 245.5 C810.0 242.2, 840.0 241.3, 900.0 246.5 C960.0 236.8, 990.0 237.7, 1050.0 228.3 C1110.0 225.6, 1140.0 220.9, 1200.0 229.7 L1200 400 Z" fill="#e2742d" opacity="0.45"/>
<path d="M0 400 L0 264.4207708263263 C52.5 260.1, 97.5 279.7, 150.0 277.5 C202.5 279.9, 247.5 275.5, 300.0 279.1 C352.5 277.4, 397.5 265.9, 450.0 263.5 C502.5 261.0, 547.5 254.3, 600.0 257.5 C652.5 255.1, 697.5 272.3, 750.0 268.5 C802.5 262.6, 847.5 280.8, 900.0 276.1 C952.5 271.6, 997.5 280.5, 1050.0 274.2 C1102.5 272.1, 1147.5 267.1, 1200.0 271.4 L1200 400 Z" fill="#ea580c" opacity="0.3"/>
<rect x="401.6" y="336.1" width="37.9" height="63.9" rx="5.6" fill="#198da5" opacity="0.75"/>
<rect x="326.4" y="288.2" width="16.9" height="111.8" rx="7.0" fill="#488183" opacity="0.70"/>
<rect x="1032.4" y="359.9" width="33.2" height="40.1" rx="6.3" fill="#67796c" opacity="0.52"/>
<rect x="265.1" y="319.7" width="37.7" height="80.3" rx="3.3" fill="#587d77" opacity="0.78"/>
<rect x="657.2" y="276.2" width="28.3" height="123.8" rx="5.9" fill="#3a848d" opacity="0.75"/>
<rect x="662.2" y="286.2" width="4" height="5" rx="0.5" fill="#d4a76a" opacity="0.6"/>
<rect x="662.2" y="308.2" width="4" height="5" rx="0.5" fill="#d4a76a" opacity="0.6"/>
<rect x="662.2" y="352.2" width="4" height="5" rx="0.5" fill="#d4a76a" opacity="0.6"/>
<rect x="213.7" y="326.5" width="24.9" height="73.5" rx="6.4" fill="#6f7766" opacity="0.50"/>
<rect x="976.1" y="272.0" width="38.4" height="128.0" rx="4.4" fill="#707766" opacity="0.59"/>
<rect x="993.9" y="282.0" width="4" height="5" rx="0.5" fill="#d4a76a" opacity="0.6"/>
<rect x="993.9" y="304.0" width="4" height="5" rx="0.5" fill="#d4a76a" opacity="0.6"/>
<rect x="993.9" y="326.0" width="4" height="5" rx="0.5" fill="#d4a76a" opacity="0.6"/>
<rect x="981.1" y="348.0" width="4" height="5" rx="0.5" fill="#d4a76a" opacity="0.6"/>
<rect x="803.6" y="304.7" width="23.1" height="95.3" rx="7.9" fill="#7b745d" opacity="0.65"/>
<rect x="447.1" y="353.9" width="41.7" height="46.1" rx="8.0" fill="#358691" opacity="0.70"/>
<rect x="187.4" y="301.9" width="25.5" height="98.1" rx="5.8" fill="#7f735b" opacity="0.51"/>
<rect x="192.4" y="333.9" width="4" height="5" rx="0.5" fill="#d4a76a" opacity="0.6"/>
<rect x="596.6" y="267.2" width="20.5" height="132.8" rx="6.5" fill="#6e7767" opacity="0.60"/>
<rect x="516.5" y="292.8" width="21.7" height="107.2" rx="6.4" fill="#2a8899" opacity="0.61"/>
<rect x="521.5" y="324.8" width="4" height="5" rx="0.5" fill="#d4a76a" opacity="0.6"/>
<rect x="521.5" y="346.8" width="4" height="5" rx="0.5" fill="#d4a76a" opacity="0.6"/>
<rect x="499.4" y="369.4" width="33.2" height="30.6" rx="6.3" fill="#637a6f" opacity="0.64"/>
<circle cx="208.4" cy="209.1" r="11.9" fill="#0891b2" opacity="0.43"/>
<circle cx="962.5" cy="195.3" r="10.8" fill="#d4a76a" opacity="0.23"/>
<circle cx="237.4" cy="90.6" r="5.6" fill="#d4a76a" opacity="0.17"/>
<circle cx="877.5" cy="118.9" r="7.8" fill="#0891b2" opacity="0.18"/>
<circle cx="484.5" cy="66.8" r="6.9" fill="#d4a76a" opacity="0.23"/>
<circle cx="397.4" cy="58.9" r="4.0" fill="#0891b2" opacity="0.42"/>
<circle cx="55.8" cy="216.4" r="9.1" fill="#0891b2" opacity="0.36"/>
<rect width="1200" height="400" fill="url(#warm)"/>
<rect width="1200" height="400" fill="#d4a76a" opacity="0.40"/>
</svg>