<svg xmlns="http://www.w3.org/2000/svg" viewBox="0 0 1200 400" width="1200" height="400">
<defs>
<linearGradient id="bg" x1="0" y1="0" x2="0" y2="1"><stop offset="0%" stop-color="#a16207"/><stop offset="100%" stop-color="#c2410c"/></linearGradient>
<linearGradient id="warm" x1="0" y1="0" x2="1" y2="1"><stop offset="0%" stop-color="#a29174" stop-opacity="0.18"/><stop offset="100%" stop-color="#a29174" stop-opacity="0.06"/></linearGradient>
</defs>
<rect width="1200" height="400" fill="url(#bg)"/>
<path d="M0 400 L0 251.9090089289156 C60.0 247.4, 90.0 259.3, 150.0 256.4 C210.0 256.4, 240.0 239.3, 300.0 246.4 C360.0 247.2, 390.0 231.5, 450.0 234.5 C510.0 225.3, 540.0 246.7, 600.0 253.1 C660.0 247.3, 690.0 247.4, 750.0 238.7 C810.0 243.4, 840.0 229.9, 900.0 227.8 C960.0 224.9, 990.0 234.1, 1050.0 242.0 C1110.0 242.9, 1140.0 245.3, 1200.0 251.2 L1200 400 Z" fill="#b64d0a" opacity="0.45"/>
<path d="M0 400 L0 267.5288584639095 C52.5 273.8, 97.5 263.9, 150.0 269.3 C202.5 275.9, 247.5 283.0, 300.0 281.0 C352.5 277.7, 397.5 274.0, 450.0 279.5 C502.5 272.4, 547.5 269.6, 600.0 273.7 C652.5 273.5, 697.5 279.7, 750.0 279.2 C802.5 274.8, 847.5 267.0, 900.0 264.1 C952.5 268.2, 997.5 263.1, 1050.0 264.1 C1102.5 269.6, 1147.5 273.7, 1200.0 277.6 L1200 400 Z" fill="#c2410c" opacity="0.3"/>
<rect x="651.6" y="276.7" width="39.2" height="123.3" rx="5.5" fill="#6e9a0d" opacity="0.80"/>
<rect x="789.1" y="284.1" width="25.6" height="115.9" rx="3.5" fill="#7b8c0d" opacity="0.81"/>
<rect x="794.1" y="294.1" width="4" height="5" rx="0.5" fill="#a16207" opacity="0.6"/>
<rect x="225.4" y="368.5" width="38.5" height="31.5" rx="6.0" fill="#77900d" opacity="0.66"/>
<rect x="400.7" y="289.1" width="33.3" height="110.9" rx="4.6" fill="#84820d" opacity="0.53"/>
<rect x="416.8" y="299.1" width="4" height="5" rx="0.5" fill="#a16207" opacity="0.6"/>
<rect x="405.7" y="321.1" width="4" height="5" rx="0.5" fill="#a16207" opacity="0.6"/>
<rect x="416.8" y="321.1" width="4" height="5" rx="0.5" fill="#a16207" opacity="0.6"/>
<rect x="416.8" y="343.1" width="4" height="5" rx="0.5" fill="#a16207" opacity="0.6"/>
<rect x="405.7" y="365.1" width="4" height="5" rx="0.5" fill="#a16207" opacity="0.6"/>
<rect x="367.8" y="346.1" width="26.8" height="53.9" rx="6.3" fill="#8b7b0d" opacity="0.52"/>
<rect x="1038.1" y="367.9" width="15.8" height="32.1" rx="6.9" fill="#81860d" opacity="0.52"/>
<rect x="165.7" y="325.1" width="32.9" height="74.9" rx="4.5" fill="#6c9c0d" opacity="0.60"/>
<rect x="433.0" y="310.9" width="49.3" height="89.1" rx="7.8" fill="#996c0c" opacity="0.55"/>
<rect x="438.0" y="320.9" width="4" height="5" rx="0.5" fill="#a16207" opacity="0.6"/>
<rect x="1031.1" y="289.5" width="31.2" height="110.5" rx="3.1" fill="#95700c" opacity="0.81"/>
<rect x="1036.1" y="299.5" width="4" height="5" rx="0.5" fill="#a16207" opacity="0.6"/>
<rect x="1036.1" y="321.5" width="4" height="5" rx="0.5" fill="#a16207" opacity="0.6"/>
<rect x="1036.1" y="343.5" width="4" height="5" rx="0.5" fill="#a16207" opacity="0.6"/>
<rect x="1036.1" y="365.5" width="4" height="5" rx="0.5" fill="#a16207" opacity="0.6"/>
<rect x="505.2" y="333.8" width="41.0" height="66.2" rx="3.0" fill="#6f990d" opacity="0.72"/>
<rect x="576.7" y="346.2" width="17.6" height="53.8" rx="7.3" fill="#986d0c" opacity="0.79"/>
<rect x="817.2" y="298.6" width="28.6" height="101.4" rx="6.3" fill="#94710c" opacity="0.64"/>
<rect x="822.2" y="308.6" width="4" height="5" rx="0.5" fill="#a16207" opacity="0.6"/>
<rect x="822.2" y="330.6" width="4" height="5" rx="0.5" fill="#a16207" opacity="0.6"/>
<polygon points="725.8,131.9 718.8,144.1 732.9,144.1" fill="#65a30d" opacity="0.42"/>
<polygon points="659.7,133.7 656.8,138.6 662.5,138.6" fill="#65a30d" opacity="0.19"/>
<polygon points="695.9,19.7 685.9,36.9 705.8,36.9" fill="#a16207" opacity="0.22"/>
<polygon points="322.3,47.9 312.4,64.9 332.1,64.9" fill="#a16207" opacity="0.16"/>
<polygon points="918.7,134.1 909.1,150.7 928.3,150.7" fill="#65a30d" opacity="0.36"/>
<polygon points="388.0,86.5 380.7,99.1 395.3,99.1" fill="#a16207" opacity="0.38"/>
<polygon points="726.9,33.4 723.8,38.7 730.0,38.7" fill="#65a30d" opacity="0.31"/>
<rect width="1200" height="400" fill="url(#warm)"/>
<rect width="1200" height="400" fill="#a16207" opacity="0.45"/>
</svg>