<svg xmlns="http://www.w3.org/2000/svg" viewBox="0 0 1200 300" width="1200" height="300">
<defs><linearGradient id="skyGrad" x1="0" y1="0" x2="0" y2="1"><stop offset="0%" stop-color="#e6ecf2"/><stop offset="100%" stop-color="#f0eeec"/></linearGradient></defs><rect width="1200" height="300" fill="url(#skyGrad)"/>
<rect x="0" y="233.7" width="1200" height="66.3" fill="#86a9c7" opacity="0.6"/>
<path d="M0 250.3 Q75.0 252.5 150.0 251.3 Q225.0 252.2 300.0 248.6 Q375.0 249.2 450.0 252.2 Q525.0 249.1 600.0 251.6 Q675.0 250.9 750.0 251.8 Q825.0 252.4 900.0 248.7 Q975.0 251.4 1050.0 248.9 Q1125.0 248.8 1200.0 252.0" fill="none" stroke="#a2bdd4" stroke-width="1" opacity="0.4"/>
<path d="M0 266.9 Q75.0 267.7 150.0 268.3 Q225.0 265.5 300.0 268.7 Q375.0 269.2 450.0 268.3 Q525.0 268.1 600.0 266.7 Q675.0 267.3 750.0 265.5 Q825.0 266.5 900.0 267.2 Q975.0 266.7 1050.0 266.7 Q1125.0 264.7 1200.0 268.7" fill="none" stroke="#a2bdd4" stroke-width="1" opacity="0.4"/>
<path d="M0 283.4 Q75.0 280.5 150.0 285.1 Q225.0 282.1 300.0 282.5 Q375.0 280.9 450.0 282.2 Q525.0 284.4 600.0 281.9 Q675.0 285.5 750.0 282.7 Q825.0 284.5 900.0 284.1 Q975.0 283.1 1050.0 281.8 Q1125.0 283.9 1200.0 282.4" fill="none" stroke="#a2bdd4" stroke-width="1" opacity="0.4"/>
<rect x="113.4" y="212.9" width="79.7" height="87.1" fill="#94a4b9"/>
<rect x="339.3" y="207.7" width="40.6" height="92.3" fill="#94a4b9"/>
<polygon points="339.3,207.7 359.6,197.5 379.9,207.7" fill="#8897aa"/>
<rect x="561.3" y="154.9" width="41.8" height="145.1" fill="#94a4b9"/>
<rect x="805.2" y="157.1" width="68.1" height="142.9" fill="#94a4b9"/>
<polygon points="805.2,157.1 839.2,140.1 873.2,157.1" fill="#8897aa"/>
<rect x="1014.4" y="161.7" width="70.3" height="138.3" fill="#94a4b9"/>
<polygon points="1014.4,161.7 1049.5,144.2 1084.7,161.7" fill="#8897aa"/>
<rect x="85.4" y="166.5" width="36.3" height="133.5" fill="#647b99"/>
<rect x="100.5" y="178.5" width="6" height="8" fill="#9aa9bd" opacity="0.5"/>
<rect x="100.5" y="194.5" width="6" height="8" fill="#9aa9bd" opacity="0.5"/>
<rect x="100.5" y="210.5" width="6" height="8" fill="#9aa9bd" opacity="0.5"/>
<rect x="100.5" y="226.5" width="6" height="8" fill="#9aa9bd" opacity="0.5"/>
<rect x="100.5" y="242.5" width="6" height="8" fill="#9aa9bd" opacity="0.5"/>
<rect x="100.5" y="258.5" width="6" height="8" fill="#9aa9bd" opacity="0.5"/>
<rect x="299.2" y="135.3" width="43.4" height="164.7" fill="#647b99"/>
<polygon points="299.2,135.3 320.9,124.5 342.6,135.3" fill="#5c718d"/>
<rect x="317.9" y="147.3" width="6" height="8" fill="#9aa9bd" opacity="0.5"/>
<rect x="317.9" y="163.3" width="6" height="8" fill="#9aa9bd" opacity="0.5"/>
<rect x="317.9" y="195.3" width="6" height="8" fill="#9aa9bd" opacity="0.5"/>
<rect x="452.5" y="97.3" width="62.4" height="202.7" fill="#647b99"/>
<rect x="494.7" y="109.3" width="6" height="8" fill="#9aa9bd" opacity="0.5"/>
<rect x="480.7" y="125.3" width="6" height="8" fill="#9aa9bd" opacity="0.5"/>
<rect x="494.7" y="125.3" width="6" height="8" fill="#9aa9bd" opacity="0.5"/>
<rect x="466.7" y="141.3" width="6" height="8" fill="#9aa9bd" opacity="0.5"/>
<rect x="480.7" y="157.3" width="6" height="8" fill="#9aa9bd" opacity="0.5"/>
<rect x="466.7" y="173.3" width="6" height="8" fill="#9aa9bd" opacity="0.5"/>
<rect x="480.7" y="173.3" width="6" height="8" fill="#9aa9bd" opacity="0.5"/>
<rect x="494.7" y="173.3" width="6" height="8" fill="#9aa9bd" opacity="0.5"/>
<rect x="466.7" y="189.3" width="6" height="8" fill="#9aa9bd" opacity="0.5"/>
<rect x="494.7" y="189.3" width="6" height="8" fill="#9aa9bd" opacity="0.5"/>
<rect x="640.5" y="99.7" width="55.1" height="200.3" fill="#647b99"/>
<rect x="658.1" y="127.7" width="6" height="8" fill="#9aa9bd" opacity="0.5"/>
<rect x="658.1" y="143.7" width="6" height="8" fill="#9aa9bd" opacity="0.5"/>
<rect x="672.1" y="143.7" width="6" height="8" fill="#9aa9bd" opacity="0.5"/>
<rect x="658.1" y="159.7" width="6" height="8" fill="#9aa9bd" opacity="0.5"/>
<rect x="672.1" y="159.7" width="6" height="8" fill="#9aa9bd" opacity="0.5"/>
<rect x="658.1" y="175.7" width="6" height="8" fill="#9aa9bd" opacity="0.5"/>
<rect x="672.1" y="175.7" width="6" height="8" fill="#9aa9bd" opacity="0.5"/>
<rect x="672.1" y="191.7" width="6" height="8" fill="#9aa9bd" opacity="0.5"/>
<rect x="868.1" y="173.4" width="37.9" height="126.6" fill="#647b99"/>
<polygon points="868.1,173.4 887.1,163.9 906.1,173.4" fill="#5c718d"/>
<rect x="884.1" y="185.4" width="6" height="8" fill="#9aa9bd" opacity="0.5"/>
<rect x="884.1" y="201.4" width="6" height="8" fill="#9aa9bd" opacity="0.5"/>
<rect x="884.1" y="233.4" width="6" height="8" fill="#9aa9bd" opacity="0.5"/>
<rect x="884.1" y="249.4" width="6" height="8" fill="#9aa9bd" opacity="0.5"/>
<rect x="1025.8" y="148.4" width="75.9" height="151.6" fill="#647b99"/>
<rect x="1046.7" y="160.4" width="6" height="8" fill="#9aa9bd" opacity="0.5"/>
<rect x="1046.7" y="176.4" width="6" height="8" fill="#9aa9bd" opacity="0.5"/>
<rect x="1060.7" y="176.4" width="6" height="8" fill="#9aa9bd" opacity="0.5"/>
<rect x="1074.7" y="176.4" width="6" height="8" fill="#9aa9bd" opacity="0.5"/>
<rect x="1046.7" y="192.4" width="6" height="8" fill="#9aa9bd" opacity="0.5"/>
<rect x="1060.7" y="192.4" width="6" height="8" fill="#9aa9bd" opacity="0.5"/>
<rect x="1046.7" y="208.4" width="6" height="8" fill="#9aa9bd" opacity="0.5"/>
<rect x="1060.7" y="208.4" width="6" height="8" fill="#9aa9bd" opacity="0.5"/>
<rect x="1060.7" y="224.4" width="6" height="8" fill="#9aa9bd" opacity="0.5"/>
<rect x="1060.7" y="240.4" width="6" height="8" fill="#9aa9bd" opacity="0.5"/>
<rect x="1074.7" y="240.4" width="6" height="8" fill="#9aa9bd" opacity="0.5"/>
<rect x="108.5" y="244.3" width="30.4" height="55.7" fill="#3d5a80"/>
<rect x="113.8" y="234.5" width="19.7" height="9.8" fill="#3a567a"/>
<rect x="120.7" y="246.5" width="6" height="8" fill="#8194ac" opacity="0.5"/>
<rect x="309.8" y="138.9" width="63.1" height="161.1" fill="#3d5a80"/>
<rect x="320.9" y="110.4" width="41.0" height="28.4" fill="#3a567a"/>
<rect x="324.4" y="122.4" width="6" height="8" fill="#8194ac" opacity="0.5"/>
<rect x="338.4" y="122.4" width="6" height="8" fill="#8194ac" opacity="0.5"/>
<rect x="324.4" y="138.4" width="6" height="8" fill="#8194ac" opacity="0.5"/>
<rect x="338.4" y="138.4" width="6" height="8" fill="#8194ac" opacity="0.5"/>
<rect x="352.4" y="138.4" width="6" height="8" fill="#8194ac" opacity="0.5"/>
<rect x="324.4" y="154.4" width="6" height="8" fill="#8194ac" opacity="0.5"/>
<rect x="338.4" y="154.4" width="6" height="8" fill="#8194ac" opacity="0.5"/>
<rect x="324.4" y="170.4" width="6" height="8" fill="#8194ac" opacity="0.5"/>
<rect x="338.4" y="170.4" width="6" height="8" fill="#8194ac" opacity="0.5"/>
<rect x="352.4" y="170.4" width="6" height="8" fill="#8194ac" opacity="0.5"/>
<rect x="324.4" y="186.4" width="6" height="8" fill="#8194ac" opacity="0.5"/>
<rect x="338.4" y="186.4" width="6" height="8" fill="#8194ac" opacity="0.5"/>
<rect x="352.4" y="186.4" width="6" height="8" fill="#8194ac" opacity="0.5"/>
<rect x="352.4" y="202.4" width="6" height="8" fill="#8194ac" opacity="0.5"/>
<rect x="503.3" y="107.0" width="43.6" height="193.0" fill="#3d5a80"/>
<rect x="510.9" y="73.0" width="28.4" height="34.1" fill="#3a567a"/>
<rect x="522.1" y="85.0" width="6" height="8" fill="#8194ac" opacity="0.5"/>
<rect x="522.1" y="101.0" width="6" height="8" fill="#8194ac" opacity="0.5"/>
<rect x="522.1" y="117.0" width="6" height="8" fill="#8194ac" opacity="0.5"/>
<rect x="522.1" y="149.0" width="6" height="8" fill="#8194ac" opacity="0.5"/>
<rect x="522.1" y="165.0" width="6" height="8" fill="#8194ac" opacity="0.5"/>
<rect x="649.1" y="133.7" width="60.5" height="166.3" fill="#3d5a80"/>
<rect x="662.3" y="145.7" width="6" height="8" fill="#8194ac" opacity="0.5"/>
<rect x="676.3" y="145.7" width="6" height="8" fill="#8194ac" opacity="0.5"/>
<rect x="690.3" y="145.7" width="6" height="8" fill="#8194ac" opacity="0.5"/>
<rect x="662.3" y="161.7" width="6" height="8" fill="#8194ac" opacity="0.5"/>
<rect x="690.3" y="161.7" width="6" height="8" fill="#8194ac" opacity="0.5"/>
<rect x="662.3" y="177.7" width="6" height="8" fill="#8194ac" opacity="0.5"/>
<rect x="676.3" y="177.7" width="6" height="8" fill="#8194ac" opacity="0.5"/>
<rect x="662.3" y="193.7" width="6" height="8" fill="#8194ac" opacity="0.5"/>
<rect x="662.3" y="209.7" width="6" height="8" fill="#8194ac" opacity="0.5"/>
<rect x="676.3" y="209.7" width="6" height="8" fill="#8194ac" opacity="0.5"/>
<rect x="690.3" y="209.7" width="6" height="8" fill="#8194ac" opacity="0.5"/>
<rect x="662.3" y="225.7" width="6" height="8" fill="#8194ac" opacity="0.5"/>
<rect x="840.5" y="208.5" width="50.4" height="91.5" fill="#3d5a80"/>
<polygon points="840.5,208.5 865.7,195.9 890.9,208.5" fill="#385376"/>
<rect x="855.7" y="220.5" width="6" height="8" fill="#8194ac" opacity="0.5"/>
<rect x="869.7" y="220.5" width="6" height="8" fill="#8194ac" opacity="0.5"/>
<rect x="855.7" y="236.5" width="6" height="8" fill="#8194ac" opacity="0.5"/>
<rect x="869.7" y="236.5" width="6" height="8" fill="#8194ac" opacity="0.5"/>
<rect x="855.7" y="252.5" width="6" height="8" fill="#8194ac" opacity="0.5"/>
<rect x="869.7" y="252.5" width="6" height="8" fill="#8194ac" opacity="0.5"/>
<rect x="855.7" y="268.5" width="6" height="8" fill="#8194ac" opacity="0.5"/>
<rect x="869.7" y="268.5" width="6" height="8" fill="#8194ac" opacity="0.5"/>
<rect x="1039.5" y="177.2" width="31.1" height="122.8" fill="#3d5a80"/>
<polygon points="1039.5,177.2 1055.0,169.4 1070.6,177.2" fill="#385376"/>
<rect x="1052.0" y="253.2" width="6" height="8" fill="#8194ac" opacity="0.5"/>
<rect x="703.0" y="219.1" width="26.8" height="65.9" fill="#5a7393"/>
<polygon points="712.4,219.1 716.4,181.9 720.4,219.1" fill="#4d627d"/>
<line x1="224.4" y1="285.0" x2="224.4" y2="271.1" stroke="#6b5a42" stroke-width="3"/>
<circle cx="224.4" cy="256.3" r="14.8" fill="#5a8c4a"/>
<line x1="438.1" y1="285.0" x2="438.1" y2="272.1" stroke="#6b5a42" stroke-width="3"/>
<circle cx="438.1" cy="256.8" r="15.3" fill="#517e43"/>
<rect x="0" y="285" width="1200" height="15" fill="#d4c5a9" opacity="0.4"/>
</svg>