<svg xmlns="http://www.w3.org/2000/svg" viewBox="0 0 1200 400" width="1200" height="400">
<defs>
<linearGradient id="bg" x1="0" y1="0" x2="0" y2="1"><stop offset="0%" stop-color="#f5f0e8"/><stop offset="100%" stop-color="#475569"/></linearGradient>
<linearGradient id="warm" x1="0" y1="0" x2="1" y2="1"><stop offset="0%" stop-color="#aa936a" stop-opacity="0.18"/><stop offset="100%" stop-color="#aa936a" stop-opacity="0.06"/></linearGradient>
</defs>
<rect width="1200" height="400" fill="url(#bg)"/>
<path d="M0 400 L0 244.6594155597738 C60.0 240.7, 90.0 241.7, 150.0 234.0 C210.0 235.9, 240.0 233.0, 300.0 241.1 C360.0 248.0, 390.0 238.7, 450.0 245.6 C510.0 249.3, 540.0 220.0, 600.0 211.6 C660.0 206.7, 690.0 251.3, 750.0 244.0 C810.0 246.7, 840.0 259.8, 900.0 250.8 C960.0 246.1, 990.0 229.0, 1050.0 222.0 C1110.0 229.8, 1140.0 243.0, 1200.0 243.8 L1200 400 Z" fill="#848b95" opacity="0.45"/>
<path d="M0 400 L0 264.1609461178782 C52.5 270.4, 97.5 244.1, 150.0 251.6 C202.5 248.1, 247.5 258.5, 300.0 261.9 C352.5 257.1, 397.5 256.0, 450.0 262.4 C502.5 256.7, 547.5 260.9, 600.0 258.6 C652.5 255.7, 697.5 264.5, 750.0 259.3 C802.5 261.8, 847.5 261.8, 900.0 259.2 C952.5 253.0, 997.5 270.8, 1050.0 271.6 C1102.5 267.6, 1147.5 252.0, 1200.0 250.8 L1200 400 Z" fill="#475569" opacity="0.3"/>
<rect x="729.4" y="269.2" width="31.1" height="130.8" rx="3.9" fill="#993413" opacity="0.61"/>
<rect x="955.0" y="338.4" width="13.4" height="61.6" rx="5.8" fill="#794135" opacity="0.80"/>
<rect x="877.2" y="317.8" width="35.0" height="82.2" rx="3.1" fill="#943618" opacity="0.62"/>
<rect x="703.8" y="289.0" width="35.0" height="111.0" rx="3.6" fill="#694846" opacity="0.66"/>
<rect x="635.3" y="360.2" width="48.7" height="39.8" rx="4.4" fill="#6d4641" opacity="0.61"/>
<rect x="578.3" y="367.4" width="31.6" height="32.6" rx="3.2" fill="#754338" opacity="0.84"/>
<rect x="938.3" y="330.6" width="39.4" height="69.4" rx="7.6" fill="#784135" opacity="0.58"/>
<rect x="274.5" y="311.6" width="34.4" height="88.4" rx="3.9" fill="#993413" opacity="0.55"/>
<rect x="734.5" y="350.7" width="42.9" height="49.3" rx="4.3" fill="#8c3a21" opacity="0.83"/>
<rect x="649.8" y="296.7" width="45.1" height="103.3" rx="8.0" fill="#6d4641" opacity="0.84"/>
<rect x="440.2" y="260.6" width="26.0" height="139.4" rx="5.7" fill="#8a3a22" opacity="0.56"/>
<rect x="445.2" y="314.6" width="4" height="5" rx="0.5" fill="#f5f0e8" opacity="0.6"/>
<rect x="739.7" y="247.3" width="37.2" height="152.7" rx="3.6" fill="#963616" opacity="0.52"/>
<rect x="866.0" y="302.9" width="24.3" height="97.1" rx="7.9" fill="#6f453f" opacity="0.58"/>
<rect x="292.6" y="351.6" width="42.1" height="48.4" rx="7.4" fill="#893b24" opacity="0.78"/>
<rect x="983.7" y="311.3" width="36.5" height="88.7" rx="6.5" fill="#883b25" opacity="0.59"/>
<rect x="1000.8" y="321.3" width="4" height="5" rx="0.5" fill="#f5f0e8" opacity="0.6"/>
<rect x="988.7" y="343.3" width="4" height="5" rx="0.5" fill="#f5f0e8" opacity="0.6"/>
<rect x="988.7" y="365.3" width="4" height="5" rx="0.5" fill="#f5f0e8" opacity="0.6"/>
<circle cx="390.4" cy="221.5" r="10.4" fill="#9a3412" opacity="0.19"/>
<circle cx="973.2" cy="110.3" r="8.5" fill="#f5f0e8" opacity="0.38"/>
<rect width="1200" height="400" fill="url(#warm)"/>
<rect width="1200" height="400" fill="#f5f0e8" opacity="0.36"/>
</svg>