<svg xmlns="http://www.w3.org/2000/svg" viewBox="0 0 1200 300" width="1200" height="300">
<defs><linearGradient id="skyGrad" x1="0" y1="0" x2="0" y2="1"><stop offset="0%" stop-color="#ddf0f0"/><stop offset="100%" stop-color="#f0e8d8"/></linearGradient></defs><rect width="1200" height="300" fill="url(#skyGrad)"/>
<rect x="245.8" y="178.1" width="43.3" height="121.9" fill="#aeb0a5"/>
<rect x="589.4" y="175.6" width="80.3" height="124.4" fill="#aeb0a5"/>
<polygon points="589.4,175.6 629.6,155.5 669.7,175.6" fill="#a0a298"/>
<rect x="913.7" y="217.3" width="88.9" height="82.7" fill="#aeb0a5"/>
<rect x="125.2" y="178.6" width="41.0" height="121.4" fill="#898d7d"/>
<rect x="132.4" y="157.2" width="26.7" height="21.4" fill="#828677"/>
<rect x="142.7" y="185.2" width="6" height="8" fill="#b2b5ab" opacity="0.5"/>
<rect x="142.7" y="233.2" width="6" height="8" fill="#b2b5ab" opacity="0.5"/>
<rect x="142.7" y="249.2" width="6" height="8" fill="#b2b5ab" opacity="0.5"/>
<rect x="449.2" y="198.1" width="50.0" height="101.9" fill="#898d7d"/>
<rect x="464.2" y="210.1" width="6" height="8" fill="#b2b5ab" opacity="0.5"/>
<rect x="478.2" y="210.1" width="6" height="8" fill="#b2b5ab" opacity="0.5"/>
<rect x="464.2" y="226.1" width="6" height="8" fill="#b2b5ab" opacity="0.5"/>
<rect x="464.2" y="242.1" width="6" height="8" fill="#b2b5ab" opacity="0.5"/>
<rect x="478.2" y="242.1" width="6" height="8" fill="#b2b5ab" opacity="0.5"/>
<rect x="464.2" y="258.1" width="6" height="8" fill="#b2b5ab" opacity="0.5"/>
<rect x="478.2" y="258.1" width="6" height="8" fill="#b2b5ab" opacity="0.5"/>
<rect x="737.1" y="136.2" width="45.6" height="163.8" fill="#898d7d"/>
<rect x="749.9" y="164.2" width="6" height="8" fill="#b2b5ab" opacity="0.5"/>
<rect x="763.9" y="164.2" width="6" height="8" fill="#b2b5ab" opacity="0.5"/>
<rect x="749.9" y="180.2" width="6" height="8" fill="#b2b5ab" opacity="0.5"/>
<rect x="763.9" y="180.2" width="6" height="8" fill="#b2b5ab" opacity="0.5"/>
<rect x="763.9" y="196.2" width="6" height="8" fill="#b2b5ab" opacity="0.5"/>
<rect x="749.9" y="212.2" width="6" height="8" fill="#b2b5ab" opacity="0.5"/>
<rect x="763.9" y="212.2" width="6" height="8" fill="#b2b5ab" opacity="0.5"/>
<rect x="763.9" y="228.2" width="6" height="8" fill="#b2b5ab" opacity="0.5"/>
<rect x="972.0" y="180.9" width="62.4" height="119.1" fill="#898d7d"/>
<rect x="982.9" y="159.9" width="40.6" height="21.0" fill="#828677"/>
<rect x="1000.2" y="171.9" width="6" height="8" fill="#b2b5ab" opacity="0.5"/>
<rect x="1014.2" y="171.9" width="6" height="8" fill="#b2b5ab" opacity="0.5"/>
<rect x="986.2" y="187.9" width="6" height="8" fill="#b2b5ab" opacity="0.5"/>
<rect x="1000.2" y="187.9" width="6" height="8" fill="#b2b5ab" opacity="0.5"/>
<rect x="986.2" y="203.9" width="6" height="8" fill="#b2b5ab" opacity="0.5"/>
<rect x="1014.2" y="203.9" width="6" height="8" fill="#b2b5ab" opacity="0.5"/>
<rect x="986.2" y="219.9" width="6" height="8" fill="#b2b5ab" opacity="0.5"/>
<rect x="1014.2" y="219.9" width="6" height="8" fill="#b2b5ab" opacity="0.5"/>
<rect x="1000.2" y="235.9" width="6" height="8" fill="#b2b5ab" opacity="0.5"/>
<rect x="1014.2" y="235.9" width="6" height="8" fill="#b2b5ab" opacity="0.5"/>
<rect x="986.2" y="251.9" width="6" height="8" fill="#b2b5ab" opacity="0.5"/>
<rect x="1000.2" y="251.9" width="6" height="8" fill="#b2b5ab" opacity="0.5"/>
<rect x="152.7" y="118.1" width="46.7" height="181.9" fill="#6b705c"/>
<rect x="166.1" y="130.1" width="6" height="8" fill="#9fa295" opacity="0.5"/>
<rect x="180.1" y="162.1" width="6" height="8" fill="#9fa295" opacity="0.5"/>
<rect x="180.1" y="178.1" width="6" height="8" fill="#9fa295" opacity="0.5"/>
<rect x="166.1" y="210.1" width="6" height="8" fill="#9fa295" opacity="0.5"/>
<rect x="427.4" y="169.7" width="56.8" height="130.3" fill="#6b705c"/>
<polygon points="427.4,169.7 455.8,155.5 484.2,169.7" fill="#626755"/>
<rect x="445.8" y="181.7" width="6" height="8" fill="#9fa295" opacity="0.5"/>
<rect x="459.8" y="197.7" width="6" height="8" fill="#9fa295" opacity="0.5"/>
<rect x="445.8" y="213.7" width="6" height="8" fill="#9fa295" opacity="0.5"/>
<rect x="459.8" y="213.7" width="6" height="8" fill="#9fa295" opacity="0.5"/>
<rect x="445.8" y="229.7" width="6" height="8" fill="#9fa295" opacity="0.5"/>
<rect x="459.8" y="229.7" width="6" height="8" fill="#9fa295" opacity="0.5"/>
<rect x="445.8" y="245.7" width="6" height="8" fill="#9fa295" opacity="0.5"/>
<rect x="459.8" y="245.7" width="6" height="8" fill="#9fa295" opacity="0.5"/>
<rect x="445.8" y="261.7" width="6" height="8" fill="#9fa295" opacity="0.5"/>
<rect x="459.8" y="261.7" width="6" height="8" fill="#9fa295" opacity="0.5"/>
<rect x="741.7" y="185.6" width="30.4" height="114.4" fill="#6b705c"/>
<rect x="753.9" y="197.6" width="6" height="8" fill="#9fa295" opacity="0.5"/>
<rect x="753.9" y="229.6" width="6" height="8" fill="#9fa295" opacity="0.5"/>
<rect x="753.9" y="245.6" width="6" height="8" fill="#9fa295" opacity="0.5"/>
<rect x="1011.8" y="222.4" width="62.2" height="77.6" fill="#6b705c"/>
<rect x="1025.9" y="234.4" width="6" height="8" fill="#9fa295" opacity="0.5"/>
<rect x="1039.9" y="234.4" width="6" height="8" fill="#9fa295" opacity="0.5"/>
<rect x="1053.9" y="234.4" width="6" height="8" fill="#9fa295" opacity="0.5"/>
<rect x="1025.9" y="250.4" width="6" height="8" fill="#9fa295" opacity="0.5"/>
<rect x="1039.9" y="250.4" width="6" height="8" fill="#9fa295" opacity="0.5"/>
<rect x="1053.9" y="250.4" width="6" height="8" fill="#9fa295" opacity="0.5"/>
<rect x="1025.9" y="266.4" width="6" height="8" fill="#9fa295" opacity="0.5"/>
<rect x="1053.9" y="266.4" width="6" height="8" fill="#9fa295" opacity="0.5"/>
<path d="M313.4 285.0 Q336.5 261.5 329.5 237.9" fill="none" stroke="#826b4f" stroke-width="3"/>
<path d="M329.5 237.9 Q318.2 228.8 310.7 229.7" fill="none" stroke="#47873d" stroke-width="2.5"/>
<path d="M329.5 237.9 Q333.4 226.9 336.0 225.9" fill="none" stroke="#47873d" stroke-width="2.5"/>
<path d="M329.5 237.9 Q344.4 232.9 354.3 237.9" fill="none" stroke="#47873d" stroke-width="2.5"/>
<path d="M329.5 237.9 Q334.2 240.1 337.4 252.4" fill="none" stroke="#47873d" stroke-width="2.5"/>
<path d="M329.5 237.9 Q318.3 237.0 310.8 246.1" fill="none" stroke="#47873d" stroke-width="2.5"/>
<path d="M613.0 285.0 Q632.9 257.2 626.9 229.5" fill="none" stroke="#79644a" stroke-width="3"/>
<path d="M626.9 229.5 Q613.1 219.5 603.9 219.4" fill="none" stroke="#47873d" stroke-width="2.5"/>
<path d="M626.9 229.5 Q631.6 217.2 634.8 215.0" fill="none" stroke="#47873d" stroke-width="2.5"/>
<path d="M626.9 229.5 Q644.3 224.5 655.9 229.5" fill="none" stroke="#47873d" stroke-width="2.5"/>
<path d="M626.9 229.5 Q631.7 231.8 634.9 244.2" fill="none" stroke="#47873d" stroke-width="2.5"/>
<path d="M626.9 229.5 Q613.9 229.2 605.1 239.0" fill="none" stroke="#47873d" stroke-width="2.5"/>
<path d="M892.0 285.0 Q918.4 260.6 910.4 236.1" fill="none" stroke="#7a654b" stroke-width="3"/>
<path d="M910.4 236.1 Q900.4 227.5 893.8 228.9" fill="none" stroke="#49893e" stroke-width="2.5"/>
<path d="M910.4 236.1 Q915.2 223.9 918.3 221.6" fill="none" stroke="#49893e" stroke-width="2.5"/>
<path d="M910.4 236.1 Q921.7 231.1 929.3 236.1" fill="none" stroke="#49893e" stroke-width="2.5"/>
<path d="M910.4 236.1 Q915.8 239.4 919.4 252.6" fill="none" stroke="#49893e" stroke-width="2.5"/>
<path d="M910.4 236.1 Q901.1 234.5 894.9 242.9" fill="none" stroke="#49893e" stroke-width="2.5"/>
<path d="M574.8 285.0 Q599.5 263.0 592.1 241.0" fill="none" stroke="#7c664c" stroke-width="3"/>
<path d="M592.1 241.0 Q583.1 232.8 577.1 234.5" fill="none" stroke="#498a3e" stroke-width="2.5"/>
<path d="M592.1 241.0 Q596.9 228.6 600.1 226.2" fill="none" stroke="#498a3e" stroke-width="2.5"/>
<path d="M592.1 241.0 Q609.8 236.0 621.6 241.0" fill="none" stroke="#498a3e" stroke-width="2.5"/>
<path d="M592.1 241.0 Q597.5 244.4 601.2 257.9" fill="none" stroke="#498a3e" stroke-width="2.5"/>
<path d="M592.1 241.0 Q579.9 240.4 571.9 249.8" fill="none" stroke="#498a3e" stroke-width="2.5"/>
<path d="M421.0 285.0 Q441.2 262.4 435.1 239.8" fill="none" stroke="#887053" stroke-width="3"/>
<path d="M435.1 239.8 Q420.7 229.6 411.1 229.3" fill="none" stroke="#46853c" stroke-width="2.5"/>
<path d="M435.1 239.8 Q440.7 226.3 444.4 222.8" fill="none" stroke="#46853c" stroke-width="2.5"/>
<path d="M435.1 239.8 Q448.4 234.8 457.2 239.8" fill="none" stroke="#46853c" stroke-width="2.5"/>
<path d="M435.1 239.8 Q439.1 240.9 441.7 252.0" fill="none" stroke="#46853c" stroke-width="2.5"/>
<path d="M435.1 239.8 Q422.3 239.5 413.7 249.2" fill="none" stroke="#46853c" stroke-width="2.5"/>
<path d="M257.0 285.0 Q281.3 257.5 274.0 230.0" fill="none" stroke="#8b7355" stroke-width="3"/>
<path d="M274.0 230.0 Q263.5 221.2 256.6 222.4" fill="none" stroke="#44803a" stroke-width="2.5"/>
<path d="M274.0 230.0 Q278.7 217.9 281.8 215.8" fill="none" stroke="#44803a" stroke-width="2.5"/>
<path d="M274.0 230.0 Q291.9 225.0 303.9 230.0" fill="none" stroke="#44803a" stroke-width="2.5"/>
<path d="M274.0 230.0 Q277.4 230.3 279.7 240.5" fill="none" stroke="#44803a" stroke-width="2.5"/>
<path d="M274.0 230.0 Q261.8 229.5 253.6 239.0" fill="none" stroke="#44803a" stroke-width="2.5"/>
<path d="M660.9 285.0 Q677.3 257.2 672.4 229.5" fill="none" stroke="#856e51" stroke-width="3"/>
<path d="M672.4 229.5 Q659.9 220.0 651.6 220.4" fill="none" stroke="#44813a" stroke-width="2.5"/>
<path d="M672.4 229.5 Q677.2 217.1 680.4 214.7" fill="none" stroke="#44813a" stroke-width="2.5"/>
<path d="M672.4 229.5 Q688.2 224.5 698.7 229.5" fill="none" stroke="#44813a" stroke-width="2.5"/>
<path d="M672.4 229.5 Q676.4 230.6 679.0 241.7" fill="none" stroke="#44813a" stroke-width="2.5"/>
<path d="M672.4 229.5 Q661.6 228.4 654.4 237.3" fill="none" stroke="#44813a" stroke-width="2.5"/>
<rect x="0" y="285" width="1200" height="15" fill="#d4c5a9" opacity="0.4"/>
<circle cx="1093.3" cy="37.0" r="26.3" fill="#f5e6a0" opacity="0.1"/>
</svg>