<svg xmlns="http://www.w3.org/2000/svg" viewBox="0 0 1200 300" width="1200" height="300">
<defs><linearGradient id="skyGrad" x1="0" y1="0" x2="0" y2="1"><stop offset="0%" stop-color="#e0eaf4"/><stop offset="100%" stop-color="#f0f2f5"/></linearGradient></defs><rect width="1200" height="300" fill="url(#skyGrad)"/>
<path d="M641.0 210.0 Q728.0 132.1 765.3 132.1 Q802.6 132.1 889.6 210.0 Z" fill="#bbcbbe" opacity="0.5"/>
<path d="M463.6 210.0 Q586.9 86.0 639.7 86.0 Q692.5 86.0 815.7 210.0 Z" fill="#bbcbbe" opacity="0.5"/>
<path d="M358.6 210.0 Q485.6 108.0 540.0 108.0 Q594.5 108.0 721.5 210.0 Z" fill="#bbcbbe" opacity="0.5"/>
<path d="M397.1 180.0 Q534.2 62.1 577.5 62.1 Q620.9 62.1 758.0 180.0 Z" fill="#a5baaa" opacity="0.35"/>
<path d="M506.6 180.0 Q674.7 56.2 727.8 56.2 Q780.9 56.2 949.0 180.0 Z" fill="#a5baaa" opacity="0.35"/>
<rect x="264.0" y="192.3" width="43.9" height="107.7" fill="#92ab97"/>
<rect x="843.7" y="226.8" width="50.5" height="73.2" fill="#92ab97"/>
<polygon points="843.7,226.8 868.9,214.2 894.2,226.8" fill="#869d8b"/>
<rect x="227.0" y="199.1" width="29.5" height="100.9" fill="#608567"/>
<polygon points="227.0,199.1 241.8,191.7 256.6,199.1" fill="#587a5f"/>
<rect x="238.8" y="227.1" width="6" height="8" fill="#98b09c" opacity="0.5"/>
<rect x="238.8" y="243.1" width="6" height="8" fill="#98b09c" opacity="0.5"/>
<rect x="238.8" y="259.1" width="6" height="8" fill="#98b09c" opacity="0.5"/>
<rect x="556.3" y="156.2" width="62.3" height="143.8" fill="#608567"/>
<rect x="584.4" y="184.2" width="6" height="8" fill="#98b09c" opacity="0.5"/>
<rect x="570.4" y="200.2" width="6" height="8" fill="#98b09c" opacity="0.5"/>
<rect x="598.4" y="200.2" width="6" height="8" fill="#98b09c" opacity="0.5"/>
<rect x="570.4" y="216.2" width="6" height="8" fill="#98b09c" opacity="0.5"/>
<rect x="584.4" y="216.2" width="6" height="8" fill="#98b09c" opacity="0.5"/>
<rect x="598.4" y="216.2" width="6" height="8" fill="#98b09c" opacity="0.5"/>
<rect x="598.4" y="248.2" width="6" height="8" fill="#98b09c" opacity="0.5"/>
<rect x="992.7" y="187.1" width="33.8" height="112.9" fill="#608567"/>
<rect x="1006.6" y="231.1" width="6" height="8" fill="#98b09c" opacity="0.5"/>
<rect x="1006.6" y="247.1" width="6" height="8" fill="#98b09c" opacity="0.5"/>
<rect x="1006.6" y="263.1" width="6" height="8" fill="#98b09c" opacity="0.5"/>
<rect x="245.5" y="143.0" width="46.4" height="157.0" fill="#386641"/>
<rect x="258.7" y="155.0" width="6" height="8" fill="#7e9c84" opacity="0.5"/>
<rect x="272.7" y="155.0" width="6" height="8" fill="#7e9c84" opacity="0.5"/>
<rect x="258.7" y="187.0" width="6" height="8" fill="#7e9c84" opacity="0.5"/>
<rect x="272.7" y="187.0" width="6" height="8" fill="#7e9c84" opacity="0.5"/>
<rect x="258.7" y="203.0" width="6" height="8" fill="#7e9c84" opacity="0.5"/>
<rect x="258.7" y="219.0" width="6" height="8" fill="#7e9c84" opacity="0.5"/>
<rect x="272.7" y="219.0" width="6" height="8" fill="#7e9c84" opacity="0.5"/>
<rect x="272.7" y="235.0" width="6" height="8" fill="#7e9c84" opacity="0.5"/>
<rect x="600.7" y="238.5" width="47.0" height="61.5" fill="#386641"/>
<rect x="628.1" y="250.5" width="6" height="8" fill="#7e9c84" opacity="0.5"/>
<rect x="614.1" y="266.5" width="6" height="8" fill="#7e9c84" opacity="0.5"/>
<rect x="905.4" y="245.9" width="44.1" height="54.1" fill="#386641"/>
<polygon points="905.4,245.9 927.4,234.9 949.5,245.9" fill="#345e3c"/>
<line x1="446.3" y1="285.0" x2="446.3" y2="275.1" stroke="#5c4a32" stroke-width="3"/>
<polygon points="436.4,275.1 446.3,237.2 456.2,275.1" fill="#2b5525"/>
<line x1="776.5" y1="285.0" x2="776.5" y2="275.5" stroke="#5c4a32" stroke-width="3"/>
<polygon points="768.0,275.5 776.5,232.8 785.0,275.5" fill="#2a5324"/>
<line x1="558.9" y1="285.0" x2="558.9" y2="275.0" stroke="#5c4a32" stroke-width="3"/>
<polygon points="550.6,275.0 558.9,234.1 567.1,275.0" fill="#274e22"/>
<line x1="916.4" y1="285.0" x2="916.4" y2="273.2" stroke="#5c4a32" stroke-width="3"/>
<polygon points="908.0,273.2 916.4,232.6 924.8,273.2" fill="#295224"/>
<line x1="820.7" y1="285.0" x2="820.7" y2="275.3" stroke="#5c4a32" stroke-width="3"/>
<polygon points="812.1,275.3 820.7,240.8 829.2,275.3" fill="#2c5926"/>
<line x1="288.9" y1="285.0" x2="288.9" y2="274.3" stroke="#5c4a32" stroke-width="3"/>
<polygon points="280.9,274.3 288.9,234.2 296.9,274.3" fill="#295324"/>
<line x1="562.1" y1="285.0" x2="562.1" y2="274.5" stroke="#5c4a32" stroke-width="3"/>
<polygon points="554.3,274.5 562.1,241.4 569.9,274.5" fill="#2c5826"/>
<rect x="0" y="285" width="1200" height="15" fill="#8a7e72" opacity="0.4"/>
<ellipse cx="797.9" cy="31.4" rx="81.1" ry="13.4" fill="#c8c8c8" opacity="0.15"/>
<ellipse cx="771.6" cy="47.2" rx="132.6" ry="21.5" fill="#c8c8c8" opacity="0.15"/>
</svg>