<svg xmlns="http://www.w3.org/2000/svg" viewBox="0 0 1200 300" width="1200" height="300">
<rect width="1200" height="300" fill="#e4ede4"/>
<path d="M0 300 L0 210.0 C410.6 169.8, 818.9 189.2, 1200 210.0 L1200 300 Z" fill="#afc2b3" opacity="0.3"/>
<rect x="192.1" y="232.0" width="57.3" height="68.0" fill="#92ab97"/>
<rect x="568.9" y="253.4" width="72.0" height="46.6" fill="#92ab97"/>
<rect x="987.7" y="231.7" width="63.7" height="68.3" fill="#92ab97"/>
<rect x="212.5" y="188.1" width="64.3" height="111.9" fill="#608567"/>
<rect x="227.7" y="200.1" width="6" height="8" fill="#98b09c" opacity="0.5"/>
<rect x="241.7" y="200.1" width="6" height="8" fill="#98b09c" opacity="0.5"/>
<rect x="255.7" y="200.1" width="6" height="8" fill="#98b09c" opacity="0.5"/>
<rect x="227.7" y="216.1" width="6" height="8" fill="#98b09c" opacity="0.5"/>
<rect x="241.7" y="216.1" width="6" height="8" fill="#98b09c" opacity="0.5"/>
<rect x="255.7" y="216.1" width="6" height="8" fill="#98b09c" opacity="0.5"/>
<rect x="241.7" y="232.1" width="6" height="8" fill="#98b09c" opacity="0.5"/>
<rect x="241.7" y="248.1" width="6" height="8" fill="#98b09c" opacity="0.5"/>
<rect x="255.7" y="264.1" width="6" height="8" fill="#98b09c" opacity="0.5"/>
<rect x="550.5" y="217.7" width="52.9" height="82.3" fill="#608567"/>
<rect x="567.0" y="229.7" width="6" height="8" fill="#98b09c" opacity="0.5"/>
<rect x="581.0" y="229.7" width="6" height="8" fill="#98b09c" opacity="0.5"/>
<rect x="567.0" y="245.7" width="6" height="8" fill="#98b09c" opacity="0.5"/>
<rect x="581.0" y="261.7" width="6" height="8" fill="#98b09c" opacity="0.5"/>
<rect x="937.4" y="212.6" width="76.7" height="87.4" fill="#608567"/>
<rect x="965.7" y="224.6" width="6" height="8" fill="#98b09c" opacity="0.5"/>
<rect x="993.7" y="224.6" width="6" height="8" fill="#98b09c" opacity="0.5"/>
<rect x="965.7" y="240.6" width="6" height="8" fill="#98b09c" opacity="0.5"/>
<rect x="979.7" y="240.6" width="6" height="8" fill="#98b09c" opacity="0.5"/>
<rect x="993.7" y="240.6" width="6" height="8" fill="#98b09c" opacity="0.5"/>
<rect x="951.7" y="256.6" width="6" height="8" fill="#98b09c" opacity="0.5"/>
<rect x="979.7" y="272.6" width="6" height="8" fill="#98b09c" opacity="0.5"/>
<rect x="993.7" y="272.6" width="6" height="8" fill="#98b09c" opacity="0.5"/>
<rect x="144.9" y="184.8" width="46.0" height="115.2" fill="#386641"/>
<rect x="157.9" y="196.8" width="6" height="8" fill="#7e9c84" opacity="0.5"/>
<rect x="157.9" y="212.8" width="6" height="8" fill="#7e9c84" opacity="0.5"/>
<rect x="171.9" y="212.8" width="6" height="8" fill="#7e9c84" opacity="0.5"/>
<rect x="157.9" y="228.8" width="6" height="8" fill="#7e9c84" opacity="0.5"/>
<rect x="171.9" y="228.8" width="6" height="8" fill="#7e9c84" opacity="0.5"/>
<rect x="157.9" y="244.8" width="6" height="8" fill="#7e9c84" opacity="0.5"/>
<rect x="171.9" y="244.8" width="6" height="8" fill="#7e9c84" opacity="0.5"/>
<rect x="627.5" y="218.6" width="48.5" height="81.4" fill="#386641"/>
<rect x="641.7" y="230.6" width="6" height="8" fill="#7e9c84" opacity="0.5"/>
<rect x="655.7" y="230.6" width="6" height="8" fill="#7e9c84" opacity="0.5"/>
<rect x="641.7" y="246.6" width="6" height="8" fill="#7e9c84" opacity="0.5"/>
<rect x="655.7" y="246.6" width="6" height="8" fill="#7e9c84" opacity="0.5"/>
<rect x="641.7" y="262.6" width="6" height="8" fill="#7e9c84" opacity="0.5"/>
<rect x="655.7" y="262.6" width="6" height="8" fill="#7e9c84" opacity="0.5"/>
<rect x="904.7" y="177.0" width="73.4" height="123.0" fill="#386641"/>
<rect x="931.4" y="189.0" width="6" height="8" fill="#7e9c84" opacity="0.5"/>
<rect x="945.4" y="189.0" width="6" height="8" fill="#7e9c84" opacity="0.5"/>
<rect x="917.4" y="205.0" width="6" height="8" fill="#7e9c84" opacity="0.5"/>
<rect x="931.4" y="205.0" width="6" height="8" fill="#7e9c84" opacity="0.5"/>
<rect x="917.4" y="221.0" width="6" height="8" fill="#7e9c84" opacity="0.5"/>
<rect x="931.4" y="221.0" width="6" height="8" fill="#7e9c84" opacity="0.5"/>
<rect x="945.4" y="221.0" width="6" height="8" fill="#7e9c84" opacity="0.5"/>
<rect x="959.4" y="221.0" width="6" height="8" fill="#7e9c84" opacity="0.5"/>
<rect x="931.4" y="237.0" width="6" height="8" fill="#7e9c84" opacity="0.5"/>
<rect x="945.4" y="237.0" width="6" height="8" fill="#7e9c84" opacity="0.5"/>
<rect x="959.4" y="237.0" width="6" height="8" fill="#7e9c84" opacity="0.5"/>
<rect x="917.4" y="253.0" width="6" height="8" fill="#7e9c84" opacity="0.5"/>
<rect x="931.4" y="253.0" width="6" height="8" fill="#7e9c84" opacity="0.5"/>
<rect x="945.4" y="253.0" width="6" height="8" fill="#7e9c84" opacity="0.5"/>
<rect x="959.4" y="253.0" width="6" height="8" fill="#7e9c84" opacity="0.5"/>
<rect x="917.4" y="269.0" width="6" height="8" fill="#7e9c84" opacity="0.5"/>
<rect x="931.4" y="269.0" width="6" height="8" fill="#7e9c84" opacity="0.5"/>
<rect x="945.4" y="269.0" width="6" height="8" fill="#7e9c84" opacity="0.5"/>
<rect x="959.4" y="269.0" width="6" height="8" fill="#7e9c84" opacity="0.5"/>
<rect x="0" y="298" width="1200" height="2" fill="#325c3b" opacity="0.15"/>
</svg>