<svg xmlns="http://www.w3.org/2000/svg" viewBox="0 0 1200 300" width="1200" height="300">
<defs>
<linearGradient id="skyGrad" x1="0" y1="0" x2="0" y2="1">
<stop offset="0%" stop-color="#818cf8"/>
<stop offset="20%" stop-color="#c4b5fd"/>
<stop offset="38%" stop-color="#fda4af"/>
<stop offset="55%" stop-color="#fdba74"/>
<stop offset="75%" stop-color="#fef08a"/>
<stop offset="100%" stop-color="#fef9c3"/>
</linearGradient>
<linearGradient id="bldg_coral" x1="0" y1="0" x2="0" y2="1"><stop offset="0%" stop-color="#fecaca"/><stop offset="100%" stop-color="#fca5a5"/></linearGradient>
<linearGradient id="bldg_teal" x1="0" y1="0" x2="0" y2="1"><stop offset="0%" stop-color="#99f6e4"/><stop offset="100%" stop-color="#5eead4"/></linearGradient>
<linearGradient id="bldg_amber" x1="0" y1="0" x2="0" y2="1"><stop offset="0%" stop-color="#fde68a"/><stop offset="100%" stop-color="#fcd34d"/></linearGradient>
<linearGradient id="bldg_lavender" x1="0" y1="0" x2="0" y2="1"><stop offset="0%" stop-color="#ddd6fe"/><stop offset="100%" stop-color="#c4b5fd"/></linearGradient>
<linearGradient id="bldg_blue" x1="0" y1="0" x2="0" y2="1"><stop offset="0%" stop-color="#bfdbfe"/><stop offset="100%" stop-color="#93c5fd"/></linearGradient>
<linearGradient id="bldg_mint" x1="0" y1="0" x2="0" y2="1"><stop offset="0%" stop-color="#a7f3d0"/><stop offset="100%" stop-color="#6ee7b7"/></linearGradient>
<linearGradient id="bldg_rose" x1="0" y1="0" x2="0" y2="1"><stop offset="0%" stop-color="#fecdd3"/><stop offset="100%" stop-color="#fda4af"/></linearGradient>
<linearGradient id="bldg_sky" x1="0" y1="0" x2="0" y2="1"><stop offset="0%" stop-color="#bae6fd"/><stop offset="100%" stop-color="#7dd3fc"/></linearGradient>
<linearGradient id="roof_navyRoof" x1="0" y1="0" x2="0" y2="1"><stop offset="0%" stop-color="#4338ca"/><stop offset="100%" stop-color="#3730a3"/></linearGradient>
<linearGradient id="roof_coralRoof" x1="0" y1="0" x2="0" y2="1"><stop offset="0%" stop-color="#f87171"/><stop offset="100%" stop-color="#ef4444"/></linearGradient>
<linearGradient id="roof_tealRoof" x1="0" y1="0" x2="0" y2="1"><stop offset="0%" stop-color="#2dd4bf"/><stop offset="100%" stop-color="#14b8a6"/></linearGradient>
<radialGradient id="windowGlow" cx="50%" cy="50%" r="50%"><stop offset="0%" stop-color="#fef08a"/><stop offset="60%" stop-color="#fbbf24"/><stop offset="100%" stop-color="#f59e0b"/></radialGradient>
<linearGradient id="hillFar" x1="0" y1="0" x2="0" y2="1"><stop offset="0%" stop-color="#c4b5fd"/><stop offset="100%" stop-color="#a5b4fc"/></linearGradient>
<linearGradient id="hillMid" x1="0" y1="0" x2="0" y2="1"><stop offset="0%" stop-color="#86efac"/><stop offset="100%" stop-color="#4ade80"/></linearGradient>
<linearGradient id="hillNear" x1="0" y1="0" x2="0" y2="1"><stop offset="0%" stop-color="#34d399"/><stop offset="100%" stop-color="#10b981"/></linearGradient>
<linearGradient id="hillDesertFar" x1="0" y1="0" x2="0" y2="1"><stop offset="0%" stop-color="#fde68a"/><stop offset="100%" stop-color="#fcd34d"/></linearGradient>
<linearGradient id="hillDesertMid" x1="0" y1="0" x2="0" y2="1"><stop offset="0%" stop-color="#fcd34d"/><stop offset="100%" stop-color="#fbbf24"/></linearGradient>
<linearGradient id="hillDesertNear" x1="0" y1="0" x2="0" y2="1"><stop offset="0%" stop-color="#fbbf24"/><stop offset="100%" stop-color="#f59e0b"/></linearGradient>
<linearGradient id="groundGrad" x1="0" y1="0" x2="0" y2="1"><stop offset="0%" stop-color="#fef3c7"/><stop offset="100%" stop-color="#fde68a"/></linearGradient>
<linearGradient id="waterGrad" x1="0" y1="0" x2="0" y2="1"><stop offset="0%" stop-color="#bfdbfe"/><stop offset="100%" stop-color="#93c5fd"/></linearGradient>
<filter id="softGlow" x="-50%" y="-50%" width="200%" height="200%"><feGaussianBlur in="SourceGraphic" stdDeviation="12"/></filter>
</defs>
<rect width="1200" height="300" fill="url(#skyGrad)"/>
<circle cx="908.3" cy="47.7" r="45" fill="#fef08a" opacity="0.12" filter="url(#softGlow)"/>
<circle cx="908.3" cy="47.7" r="30" fill="#fde68a" opacity="0.18" filter="url(#softGlow)"/>
<circle cx="908.3" cy="47.7" r="16" fill="#fef9c3" opacity="0.25" filter="url(#softGlow)"/>
<ellipse cx="903.4" cy="51.3" rx="34.9" ry="12.2" fill="white" opacity="0.6"/>
<ellipse cx="881.6" cy="54.8" rx="24.4" ry="9.6" fill="white" opacity="0.5"/>
<ellipse cx="922.6" cy="53.9" rx="27.9" ry="10.5" fill="white" opacity="0.5"/>
<ellipse cx="556.2" cy="43.6" rx="28.5" ry="10.0" fill="white" opacity="0.7"/>
<ellipse cx="538.4" cy="46.4" rx="19.9" ry="7.8" fill="white" opacity="0.6"/>
<ellipse cx="571.8" cy="45.7" rx="22.8" ry="8.5" fill="white" opacity="0.6"/>
<ellipse cx="937.4" cy="21.4" rx="44.4" ry="15.6" fill="white" opacity="0.5"/>
<ellipse cx="909.6" cy="25.8" rx="31.1" ry="12.2" fill="white" opacity="0.4"/>
<ellipse cx="961.9" cy="24.7" rx="35.6" ry="13.3" fill="white" opacity="0.4"/>
<path d="M0 300 L0.0 190.6 C119.6 190.6, 119.6 183.1, 239.1 183.1 C330.6 183.1, 330.6 194.0, 422.1 194.0 C541.7 194.0, 541.7 191.2, 661.2 191.2 C819.0 191.2, 819.0 178.5, 976.8 178.5 C1088.4 178.5, 1088.4 197.6, 1200.0 197.6 L1200 300 Z" fill="url(#hillFar)" opacity="0.5"/>
<path d="M0 300 L0.0 210.9 C115.6 210.9, 115.6 208.5, 231.2 208.5 C396.6 208.5, 396.6 208.1, 561.9 208.1 C725.1 208.1, 725.1 209.9, 888.3 209.9 C1044.1 209.9, 1044.1 208.7, 1200.0 208.7 L1200 300 Z" fill="url(#hillMid)" opacity="0.7"/>
<path d="M0 300 L0.0 236.5 C148.7 236.5, 148.7 235.9, 297.5 235.9 C460.5 235.9, 460.5 231.3, 623.5 231.3 C778.2 231.3, 778.2 233.1, 932.8 233.1 C1066.4 233.1, 1066.4 236.3, 1200.0 236.3 L1200 300 Z" fill="url(#hillNear)" opacity="1"/>
<rect x="325.9" y="199.7" width="83.7" height="100.3" rx="3" fill="url(#bldg_rose)" opacity="0.7"/>
<polygon points="325.9,199.7 367.7,174.0 409.6,199.7" fill="url(#roof_coralRoof)" opacity="0.7"/>
<rect x="343.7" y="209.7" width="6" height="8" rx="1" fill="url(#windowGlow)" opacity="0.7770676087946945"/>
<rect x="357.7" y="209.7" width="6" height="8" rx="1" fill="url(#windowGlow)" opacity="0.8763640753814783"/>
<rect x="371.7" y="209.7" width="6" height="8" rx="1" fill="url(#windowGlow)" opacity="0.8541066492693995"/>
<rect x="385.7" y="209.7" width="6" height="8" rx="1" fill="url(#windowGlow)" opacity="0.9336024811647843"/>
<rect x="343.7" y="224.7" width="6" height="8" rx="1" fill="url(#windowGlow)" opacity="0.9993960091375726"/>
<rect x="357.7" y="224.7" width="6" height="8" rx="1" fill="url(#windowGlow)" opacity="0.8707289654625249"/>
<rect x="371.7" y="224.7" width="6" height="8" rx="1" fill="url(#windowGlow)" opacity="0.7463596364699115"/>
<rect x="343.7" y="239.7" width="6" height="8" rx="1" fill="url(#windowGlow)" opacity="0.8304026406399918"/>
<rect x="357.7" y="239.7" width="6" height="8" rx="1" fill="url(#windowGlow)" opacity="0.8888267401088153"/>
<rect x="371.7" y="239.7" width="6" height="8" rx="1" fill="url(#windowGlow)" opacity="0.7731884227940758"/>
<rect x="385.7" y="239.7" width="6" height="8" rx="1" fill="url(#windowGlow)" opacity="0.931166630392506"/>
<rect x="343.7" y="254.7" width="6" height="8" rx="1" fill="url(#windowGlow)" opacity="0.9330574058615869"/>
<rect x="371.7" y="254.7" width="6" height="8" rx="1" fill="url(#windowGlow)" opacity="0.8304842721347158"/>
<rect x="385.7" y="254.7" width="6" height="8" rx="1" fill="url(#windowGlow)" opacity="0.8461302770982171"/>
<rect x="899.9" y="241.9" width="65.0" height="58.1" rx="3" fill="url(#bldg_sky)" opacity="0.7"/>
<polygon points="899.9,241.9 932.3,223.0 964.8,241.9" fill="url(#roof_tealRoof)" opacity="0.7"/>
<rect x="915.3" y="251.9" width="6" height="8" rx="1" fill="url(#windowGlow)" opacity="0.7006371196362362"/>
<rect x="929.3" y="251.9" width="6" height="8" rx="1" fill="url(#windowGlow)" opacity="0.7757628417926667"/>
<rect x="943.3" y="251.9" width="6" height="8" rx="1" fill="url(#windowGlow)" opacity="0.9805270503650079"/>
<rect x="195.8" y="213.3" width="40.2" height="86.7" rx="3" fill="url(#bldg_coral)" opacity="0.85"/>
<polygon points="195.8,213.3 215.9,203.8 236.0,213.3" fill="url(#roof_navyRoof)" opacity="0.85"/>
<rect x="212.9" y="223.3" width="6" height="8" rx="1" fill="url(#windowGlow)" opacity="0.7778734617297879"/>
<rect x="212.9" y="238.3" width="6" height="8" rx="1" fill="url(#windowGlow)" opacity="0.8664156023256553"/>
<rect x="212.9" y="253.3" width="6" height="8" rx="1" fill="url(#windowGlow)" opacity="0.942353964523577"/>
<rect x="604.3" y="168.4" width="73.3" height="131.6" rx="3" fill="url(#bldg_teal)" opacity="0.85"/>
<rect x="604.3" y="165.4" width="73.3" height="3" rx="1" fill="url(#roof_coralRoof)" opacity="0.85"/>
<rect x="617.0" y="178.4" width="6" height="8" rx="1" fill="url(#windowGlow)" opacity="0.8092655230822347"/>
<rect x="659.0" y="178.4" width="6" height="8" rx="1" fill="url(#windowGlow)" opacity="0.8648442807443646"/>
<rect x="617.0" y="193.4" width="6" height="8" rx="1" fill="url(#windowGlow)" opacity="0.8577554551687815"/>
<rect x="631.0" y="193.4" width="6" height="8" rx="1" fill="url(#windowGlow)" opacity="0.9707650707432838"/>
<rect x="645.0" y="193.4" width="6" height="8" rx="1" fill="url(#windowGlow)" opacity="0.8517865057810147"/>
<rect x="659.0" y="193.4" width="6" height="8" rx="1" fill="url(#windowGlow)" opacity="0.7196956155913395"/>
<rect x="617.0" y="208.4" width="6" height="8" rx="1" fill="url(#windowGlow)" opacity="0.719278776002712"/>
<rect x="645.0" y="208.4" width="6" height="8" rx="1" fill="url(#windowGlow)" opacity="0.7358992765359111"/>
<rect x="659.0" y="208.4" width="6" height="8" rx="1" fill="url(#windowGlow)" opacity="0.7304360741425473"/>
<rect x="617.0" y="223.4" width="6" height="8" rx="1" fill="url(#windowGlow)" opacity="0.9866891147506838"/>
<rect x="645.0" y="223.4" width="6" height="8" rx="1" fill="url(#windowGlow)" opacity="0.7897857822895915"/>
<rect x="659.0" y="223.4" width="6" height="8" rx="1" fill="url(#windowGlow)" opacity="0.7706027197980334"/>
<rect x="617.0" y="238.4" width="6" height="8" rx="1" fill="url(#windowGlow)" opacity="0.878249835119699"/>
<rect x="631.0" y="238.4" width="6" height="8" rx="1" fill="url(#windowGlow)" opacity="0.8186840818816256"/>
<rect x="645.0" y="238.4" width="6" height="8" rx="1" fill="url(#windowGlow)" opacity="0.812430695124171"/>
<rect x="659.0" y="238.4" width="6" height="8" rx="1" fill="url(#windowGlow)" opacity="0.9792126313220768"/>
<rect x="617.0" y="253.4" width="6" height="8" rx="1" fill="url(#windowGlow)" opacity="0.932904105183158"/>
<rect x="631.0" y="253.4" width="6" height="8" rx="1" fill="url(#windowGlow)" opacity="0.9743814660582605"/>
<rect x="659.0" y="253.4" width="6" height="8" rx="1" fill="url(#windowGlow)" opacity="0.8996380730996085"/>
<path d="M641.0 214.4 L670.3 214.4 L667.3 220.4 L644.0 220.4 Z" fill="url(#roof_navyRoof)" opacity="0.68"/>
<rect x="972.3" y="216.5" width="53.1" height="83.5" rx="3" fill="url(#bldg_amber)" opacity="0.85"/>
<rect x="972.3" y="213.5" width="53.1" height="3" rx="1" fill="url(#roof_tealRoof)" opacity="0.85"/>
<rect x="988.9" y="226.5" width="6" height="8" rx="1" fill="url(#windowGlow)" opacity="0.7256519773163143"/>
<rect x="1002.9" y="226.5" width="6" height="8" rx="1" fill="url(#windowGlow)" opacity="0.9982699540901323"/>
<rect x="988.9" y="241.5" width="6" height="8" rx="1" fill="url(#windowGlow)" opacity="0.7382881350062266"/>
<rect x="1002.9" y="241.5" width="6" height="8" rx="1" fill="url(#windowGlow)" opacity="0.9195702831351991"/>
<rect x="988.9" y="256.5" width="6" height="8" rx="1" fill="url(#windowGlow)" opacity="0.7550544386054642"/>
<rect x="1002.9" y="256.5" width="6" height="8" rx="1" fill="url(#windowGlow)" opacity="0.7636241816280522"/>
<path d="M998.9 245.7 L1020.1 245.7 L1017.1 251.7 L1001.9 251.7 Z" fill="url(#roof_coralRoof)" opacity="0.68"/>
<rect x="177.3" y="161.3" width="64.4" height="138.7" rx="3" fill="url(#bldg_lavender)" opacity="1"/>
<rect x="177.3" y="158.3" width="64.4" height="3" rx="1" fill="url(#roof_navyRoof)" opacity="1"/>
<rect x="192.5" y="171.3" width="6" height="8" rx="1" fill="url(#windowGlow)" opacity="0.7373436388267872"/>
<rect x="206.5" y="171.3" width="6" height="8" rx="1" fill="url(#windowGlow)" opacity="0.821743803853981"/>
<rect x="220.5" y="171.3" width="6" height="8" rx="1" fill="url(#windowGlow)" opacity="0.7980281847519931"/>
<rect x="192.5" y="186.3" width="6" height="8" rx="1" fill="url(#windowGlow)" opacity="0.7648765565663932"/>
<rect x="206.5" y="186.3" width="6" height="8" rx="1" fill="url(#windowGlow)" opacity="0.8583566853116995"/>
<rect x="220.5" y="186.3" width="6" height="8" rx="1" fill="url(#windowGlow)" opacity="0.920069698300245"/>
<rect x="192.5" y="201.3" width="6" height="8" rx="1" fill="url(#windowGlow)" opacity="0.8734833210117572"/>
<rect x="206.5" y="201.3" width="6" height="8" rx="1" fill="url(#windowGlow)" opacity="0.9246395035295931"/>
<rect x="192.5" y="216.3" width="6" height="8" rx="1" fill="url(#windowGlow)" opacity="0.7197828614245089"/>
<rect x="220.5" y="216.3" width="6" height="8" rx="1" fill="url(#windowGlow)" opacity="0.9606463711525528"/>
<rect x="206.5" y="231.3" width="6" height="8" rx="1" fill="url(#windowGlow)" opacity="0.8055817867189561"/>
<rect x="220.5" y="231.3" width="6" height="8" rx="1" fill="url(#windowGlow)" opacity="0.8534634580618997"/>
<rect x="192.5" y="246.3" width="6" height="8" rx="1" fill="url(#windowGlow)" opacity="0.9247548707876144"/>
<rect x="220.5" y="246.3" width="6" height="8" rx="1" fill="url(#windowGlow)" opacity="0.9101356393239161"/>
<rect x="204.5" y="284.0" width="10" height="16" rx="2" fill="url(#roof_navyRoof)" opacity="0.8"/>
<rect x="206.5" y="287.0" width="6" height="10" rx="1" fill="url(#windowGlow)" opacity="0.45"/>
<rect x="587.2" y="179.6" width="42.6" height="120.4" rx="3" fill="url(#bldg_blue)" opacity="1"/>
<rect x="595.8" y="165.1" width="25.5" height="14.5" rx="2" fill="url(#roof_coralRoof)" opacity="1"/>
<rect x="605.5" y="189.6" width="6" height="8" rx="1" fill="url(#windowGlow)" opacity="0.849027801001923"/>
<rect x="605.5" y="204.6" width="6" height="8" rx="1" fill="url(#windowGlow)" opacity="0.913223253196675"/>
<rect x="605.5" y="219.6" width="6" height="8" rx="1" fill="url(#windowGlow)" opacity="0.9754288214610092"/>
<rect x="605.5" y="234.6" width="6" height="8" rx="1" fill="url(#windowGlow)" opacity="0.7422383231307558"/>
<rect x="605.5" y="249.6" width="6" height="8" rx="1" fill="url(#windowGlow)" opacity="0.8412210226716571"/>
<rect x="603.5" y="284.0" width="10" height="16" rx="2" fill="url(#roof_navyRoof)" opacity="0.8"/>
<rect x="605.5" y="287.0" width="6" height="10" rx="1" fill="url(#windowGlow)" opacity="0.45"/>
<rect x="987.6" y="230.4" width="38.3" height="69.6" rx="3" fill="url(#bldg_mint)" opacity="1"/>
<rect x="987.6" y="227.4" width="38.3" height="3" rx="1" fill="url(#roof_tealRoof)" opacity="1"/>
<rect x="1003.7" y="240.4" width="6" height="8" rx="1" fill="url(#windowGlow)" opacity="0.8823120718273856"/>
<rect x="1003.7" y="255.4" width="6" height="8" rx="1" fill="url(#windowGlow)" opacity="0.8738007847563367"/>
<rect x="1001.7" y="284.0" width="10" height="16" rx="2" fill="url(#roof_navyRoof)" opacity="0.8"/>
<rect x="1003.7" y="287.0" width="6" height="10" rx="1" fill="url(#windowGlow)" opacity="0.45"/>
<path d="M1006.7 254.8 L1022.0 254.8 L1019.0 260.8 L1009.7 260.8 Z" fill="url(#roof_coralRoof)" opacity="0.8"/>
<rect x="1000.0" y="271.4" width="13.4" height="5" rx="1" fill="#15803d" opacity="0.7"/>
<circle cx="1003.0" cy="270.4" r="2.5" fill="#f87171" opacity="0.85"/>
<circle cx="1007.5" cy="270.4" r="2.5" fill="#fb923c" opacity="0.85"/>
<circle cx="1011.9" cy="270.4" r="2.5" fill="#a78bfa" opacity="0.85"/>
<rect x="411.5" y="266.9" width="6" height="18.1" rx="2" fill="#15803d"/>
<circle cx="414.5" cy="254.0" r="16.8" fill="#22c55e" opacity="0.9"/>
<circle cx="407.5" cy="257.0" r="12.6" fill="#16a34a" opacity="0.8"/>
<circle cx="422.0" cy="258.0" r="11.8" fill="#15803d" opacity="0.7"/>
<rect x="805.7" y="263.4" width="6" height="21.6" rx="2" fill="#15803d"/>
<circle cx="808.7" cy="253.3" r="14.1" fill="#22c55e" opacity="0.9"/>
<circle cx="801.9" cy="256.3" r="10.6" fill="#16a34a" opacity="0.8"/>
<circle cx="815.3" cy="257.3" r="9.9" fill="#15803d" opacity="0.7"/>
<rect x="144.8" y="263.4" width="6" height="21.6" rx="2" fill="#15803d"/>
<circle cx="147.8" cy="254.2" r="13.2" fill="#22c55e" opacity="0.9"/>
<circle cx="141.1" cy="257.2" r="9.9" fill="#16a34a" opacity="0.8"/>
<circle cx="155.6" cy="258.2" r="9.2" fill="#15803d" opacity="0.7"/>
<rect x="1048.2" y="268.9" width="6" height="16.1" rx="2" fill="#15803d"/>
<circle cx="1051.2" cy="255.3" r="17.6" fill="#22c55e" opacity="0.9"/>
<circle cx="1042.7" cy="258.3" r="13.2" fill="#16a34a" opacity="0.8"/>
<circle cx="1057.5" cy="259.3" r="12.3" fill="#15803d" opacity="0.7"/>
<rect x="1133.4" y="264.1" width="6" height="20.9" rx="2" fill="#15803d"/>
<circle cx="1136.4" cy="252.4" r="15.6" fill="#22c55e" opacity="0.9"/>
<circle cx="1128.7" cy="255.4" r="11.7" fill="#16a34a" opacity="0.8"/>
<circle cx="1143.4" cy="256.4" r="10.9" fill="#15803d" opacity="0.7"/>
<rect x="385.1" y="268.3" width="6" height="16.7" rx="2" fill="#15803d"/>
<circle cx="388.1" cy="256.2" r="16.1" fill="#22c55e" opacity="0.9"/>
<circle cx="379.2" cy="259.2" r="12.1" fill="#16a34a" opacity="0.8"/>
<circle cx="394.0" cy="260.2" r="11.3" fill="#15803d" opacity="0.7"/>
<rect x="165.7" y="268.2" width="6" height="16.8" rx="2" fill="#15803d"/>
<circle cx="168.7" cy="256.6" r="15.7" fill="#22c55e" opacity="0.9"/>
<circle cx="160.6" cy="259.6" r="11.7" fill="#16a34a" opacity="0.8"/>
<circle cx="176.7" cy="260.6" r="11.0" fill="#15803d" opacity="0.7"/>
<rect x="0" y="282" width="1200" height="18" fill="url(#groundGrad)"/>
<line x1="602.7" y1="282.0" x2="602.7" y2="249.0" stroke="#92400e" stroke-width="2"/>
<circle cx="602.7" cy="249.0" r="4" fill="#fef08a" opacity="0.6"/>
<circle cx="602.7" cy="249.0" r="8" fill="#fef08a" opacity="0.15" filter="url(#softGlow)"/>
<line x1="681.4" y1="282.0" x2="681.4" y2="250.7" stroke="#92400e" stroke-width="2"/>
<circle cx="681.4" cy="250.7" r="4" fill="#fef08a" opacity="0.6"/>
<circle cx="681.4" cy="250.7" r="8" fill="#fef08a" opacity="0.15" filter="url(#softGlow)"/>
<ellipse cx="372.9" cy="282.0" rx="6.9" ry="4.8" fill="#22c55e" opacity="0.6"/>
<ellipse cx="1079.0" cy="282.0" rx="5.0" ry="3.5" fill="#22c55e" opacity="0.6"/>
<ellipse cx="817.5" cy="282.0" rx="5.8" ry="4.1" fill="#22c55e" opacity="0.6"/>
</svg>