<svg xmlns="http://www.w3.org/2000/svg" viewBox="0 0 1200 300" width="1200" height="300">
<rect width="1200" height="300" fill="#ede8e0"/>
<path d="M0 300 L0 210.0 C300.3 188.9, 1000.0 196.4, 1200 210.0 L1200 300 Z" fill="#c4c6be" opacity="0.3"/>
<rect x="145.5" y="206.5" width="71.6" height="93.5" fill="#aeb0a5"/>
<rect x="441.0" y="217.7" width="69.6" height="82.3" fill="#aeb0a5"/>
<rect x="685.9" y="213.6" width="71.2" height="86.4" fill="#aeb0a5"/>
<rect x="968.6" y="232.8" width="43.0" height="67.2" fill="#aeb0a5"/>
<rect x="133.8" y="162.5" width="72.6" height="137.5" fill="#898d7d"/>
<rect x="146.1" y="174.5" width="6" height="8" fill="#b2b5ab" opacity="0.5"/>
<rect x="160.1" y="174.5" width="6" height="8" fill="#b2b5ab" opacity="0.5"/>
<rect x="146.1" y="190.5" width="6" height="8" fill="#b2b5ab" opacity="0.5"/>
<rect x="160.1" y="190.5" width="6" height="8" fill="#b2b5ab" opacity="0.5"/>
<rect x="188.1" y="190.5" width="6" height="8" fill="#b2b5ab" opacity="0.5"/>
<rect x="146.1" y="206.5" width="6" height="8" fill="#b2b5ab" opacity="0.5"/>
<rect x="160.1" y="206.5" width="6" height="8" fill="#b2b5ab" opacity="0.5"/>
<rect x="174.1" y="206.5" width="6" height="8" fill="#b2b5ab" opacity="0.5"/>
<rect x="188.1" y="206.5" width="6" height="8" fill="#b2b5ab" opacity="0.5"/>
<rect x="146.1" y="222.5" width="6" height="8" fill="#b2b5ab" opacity="0.5"/>
<rect x="160.1" y="222.5" width="6" height="8" fill="#b2b5ab" opacity="0.5"/>
<rect x="174.1" y="222.5" width="6" height="8" fill="#b2b5ab" opacity="0.5"/>
<rect x="188.1" y="222.5" width="6" height="8" fill="#b2b5ab" opacity="0.5"/>
<rect x="146.1" y="238.5" width="6" height="8" fill="#b2b5ab" opacity="0.5"/>
<rect x="160.1" y="238.5" width="6" height="8" fill="#b2b5ab" opacity="0.5"/>
<rect x="174.1" y="238.5" width="6" height="8" fill="#b2b5ab" opacity="0.5"/>
<rect x="188.1" y="238.5" width="6" height="8" fill="#b2b5ab" opacity="0.5"/>
<rect x="146.1" y="254.5" width="6" height="8" fill="#b2b5ab" opacity="0.5"/>
<rect x="174.1" y="254.5" width="6" height="8" fill="#b2b5ab" opacity="0.5"/>
<rect x="160.1" y="270.5" width="6" height="8" fill="#b2b5ab" opacity="0.5"/>
<rect x="174.1" y="270.5" width="6" height="8" fill="#b2b5ab" opacity="0.5"/>
<rect x="354.9" y="138.6" width="73.4" height="161.4" fill="#898d7d"/>
<rect x="367.5" y="150.6" width="6" height="8" fill="#b2b5ab" opacity="0.5"/>
<rect x="409.5" y="150.6" width="6" height="8" fill="#b2b5ab" opacity="0.5"/>
<rect x="381.5" y="166.6" width="6" height="8" fill="#b2b5ab" opacity="0.5"/>
<rect x="395.5" y="166.6" width="6" height="8" fill="#b2b5ab" opacity="0.5"/>
<rect x="409.5" y="166.6" width="6" height="8" fill="#b2b5ab" opacity="0.5"/>
<rect x="381.5" y="182.6" width="6" height="8" fill="#b2b5ab" opacity="0.5"/>
<rect x="395.5" y="182.6" width="6" height="8" fill="#b2b5ab" opacity="0.5"/>
<rect x="409.5" y="182.6" width="6" height="8" fill="#b2b5ab" opacity="0.5"/>
<rect x="367.5" y="198.6" width="6" height="8" fill="#b2b5ab" opacity="0.5"/>
<rect x="381.5" y="198.6" width="6" height="8" fill="#b2b5ab" opacity="0.5"/>
<rect x="409.5" y="198.6" width="6" height="8" fill="#b2b5ab" opacity="0.5"/>
<rect x="367.5" y="214.6" width="6" height="8" fill="#b2b5ab" opacity="0.5"/>
<rect x="381.5" y="214.6" width="6" height="8" fill="#b2b5ab" opacity="0.5"/>
<rect x="395.5" y="214.6" width="6" height="8" fill="#b2b5ab" opacity="0.5"/>
<rect x="381.5" y="230.6" width="6" height="8" fill="#b2b5ab" opacity="0.5"/>
<rect x="367.5" y="246.6" width="6" height="8" fill="#b2b5ab" opacity="0.5"/>
<rect x="367.5" y="262.6" width="6" height="8" fill="#b2b5ab" opacity="0.5"/>
<rect x="381.5" y="262.6" width="6" height="8" fill="#b2b5ab" opacity="0.5"/>
<rect x="395.5" y="262.6" width="6" height="8" fill="#b2b5ab" opacity="0.5"/>
<rect x="409.5" y="262.6" width="6" height="8" fill="#b2b5ab" opacity="0.5"/>
<rect x="603.1" y="184.4" width="44.7" height="115.6" fill="#898d7d"/>
<rect x="615.5" y="196.4" width="6" height="8" fill="#b2b5ab" opacity="0.5"/>
<rect x="629.5" y="196.4" width="6" height="8" fill="#b2b5ab" opacity="0.5"/>
<rect x="629.5" y="212.4" width="6" height="8" fill="#b2b5ab" opacity="0.5"/>
<rect x="615.5" y="228.4" width="6" height="8" fill="#b2b5ab" opacity="0.5"/>
<rect x="629.5" y="228.4" width="6" height="8" fill="#b2b5ab" opacity="0.5"/>
<rect x="615.5" y="244.4" width="6" height="8" fill="#b2b5ab" opacity="0.5"/>
<rect x="629.5" y="244.4" width="6" height="8" fill="#b2b5ab" opacity="0.5"/>
<rect x="615.5" y="260.4" width="6" height="8" fill="#b2b5ab" opacity="0.5"/>
<rect x="629.5" y="260.4" width="6" height="8" fill="#b2b5ab" opacity="0.5"/>
<rect x="781.7" y="164.2" width="39.2" height="135.8" fill="#898d7d"/>
<rect x="798.3" y="208.2" width="6" height="8" fill="#b2b5ab" opacity="0.5"/>
<rect x="798.3" y="224.2" width="6" height="8" fill="#b2b5ab" opacity="0.5"/>
<rect x="798.3" y="256.2" width="6" height="8" fill="#b2b5ab" opacity="0.5"/>
<rect x="1017.3" y="146.6" width="56.3" height="153.4" fill="#898d7d"/>
<rect x="1035.5" y="158.6" width="6" height="8" fill="#b2b5ab" opacity="0.5"/>
<rect x="1049.5" y="158.6" width="6" height="8" fill="#b2b5ab" opacity="0.5"/>
<rect x="1035.5" y="174.6" width="6" height="8" fill="#b2b5ab" opacity="0.5"/>
<rect x="1035.5" y="206.6" width="6" height="8" fill="#b2b5ab" opacity="0.5"/>
<rect x="1049.5" y="222.6" width="6" height="8" fill="#b2b5ab" opacity="0.5"/>
<rect x="1049.5" y="238.6" width="6" height="8" fill="#b2b5ab" opacity="0.5"/>
<rect x="1035.5" y="270.6" width="6" height="8" fill="#b2b5ab" opacity="0.5"/>
<rect x="1049.5" y="270.6" width="6" height="8" fill="#b2b5ab" opacity="0.5"/>
<rect x="128.7" y="242.7" width="56.1" height="57.3" fill="#6b705c"/>
<rect x="350.4" y="228.6" width="36.9" height="71.4" fill="#6b705c"/>
<rect x="365.8" y="256.6" width="6" height="8" fill="#9fa295" opacity="0.5"/>
<rect x="558.2" y="208.9" width="69.9" height="91.1" fill="#6b705c"/>
<rect x="590.2" y="220.9" width="6" height="8" fill="#9fa295" opacity="0.5"/>
<rect x="576.2" y="236.9" width="6" height="8" fill="#9fa295" opacity="0.5"/>
<rect x="604.2" y="236.9" width="6" height="8" fill="#9fa295" opacity="0.5"/>
<rect x="576.2" y="252.9" width="6" height="8" fill="#9fa295" opacity="0.5"/>
<rect x="590.2" y="252.9" width="6" height="8" fill="#9fa295" opacity="0.5"/>
<rect x="604.2" y="252.9" width="6" height="8" fill="#9fa295" opacity="0.5"/>
<rect x="576.2" y="268.9" width="6" height="8" fill="#9fa295" opacity="0.5"/>
<rect x="590.2" y="268.9" width="6" height="8" fill="#9fa295" opacity="0.5"/>
<rect x="604.2" y="268.9" width="6" height="8" fill="#9fa295" opacity="0.5"/>
<rect x="803.0" y="134.4" width="40.6" height="165.6" fill="#6b705c"/>
<rect x="820.3" y="162.4" width="6" height="8" fill="#9fa295" opacity="0.5"/>
<rect x="820.3" y="178.4" width="6" height="8" fill="#9fa295" opacity="0.5"/>
<rect x="820.3" y="194.4" width="6" height="8" fill="#9fa295" opacity="0.5"/>
<rect x="820.3" y="210.4" width="6" height="8" fill="#9fa295" opacity="0.5"/>
<rect x="820.3" y="226.4" width="6" height="8" fill="#9fa295" opacity="0.5"/>
<rect x="1039.0" y="129.0" width="42.5" height="171.0" fill="#6b705c"/>
<rect x="1057.3" y="157.0" width="6" height="8" fill="#9fa295" opacity="0.5"/>
<rect x="1057.3" y="173.0" width="6" height="8" fill="#9fa295" opacity="0.5"/>
<rect x="1057.3" y="189.0" width="6" height="8" fill="#9fa295" opacity="0.5"/>
<rect x="1057.3" y="237.0" width="6" height="8" fill="#9fa295" opacity="0.5"/>
<rect x="1057.3" y="253.0" width="6" height="8" fill="#9fa295" opacity="0.5"/>
<rect x="1057.3" y="269.0" width="6" height="8" fill="#9fa295" opacity="0.5"/>
<rect x="0" y="298" width="1200" height="2" fill="#606553" opacity="0.15"/>
</svg>