<svg xmlns="http://www.w3.org/2000/svg" viewBox="0 0 1200 300" width="1200" height="300">
<rect width="1200" height="300" fill="#e0eff2"/>
<path d="M0 300 L0 210.0 C258.8 173.9, 1004.0 191.7, 1200 210.0 L1200 300 Z" fill="#aac2c9" opacity="0.3"/>
<rect x="287.6" y="233.4" width="89.6" height="66.6" fill="#8aabb4"/>
<rect x="817.7" y="228.2" width="88.0" height="71.8" fill="#8aabb4"/>
<rect x="310.1" y="238.2" width="61.7" height="61.8" fill="#558592"/>
<rect x="324.0" y="250.2" width="6" height="8" fill="#91b0b8" opacity="0.5"/>
<rect x="338.0" y="250.2" width="6" height="8" fill="#91b0b8" opacity="0.5"/>
<rect x="324.0" y="266.2" width="6" height="8" fill="#91b0b8" opacity="0.5"/>
<rect x="338.0" y="266.2" width="6" height="8" fill="#91b0b8" opacity="0.5"/>
<rect x="352.0" y="266.2" width="6" height="8" fill="#91b0b8" opacity="0.5"/>
<rect x="866.7" y="181.1" width="66.1" height="118.9" fill="#558592"/>
<rect x="896.7" y="193.1" width="6" height="8" fill="#91b0b8" opacity="0.5"/>
<rect x="910.7" y="193.1" width="6" height="8" fill="#91b0b8" opacity="0.5"/>
<rect x="882.7" y="209.1" width="6" height="8" fill="#91b0b8" opacity="0.5"/>
<rect x="896.7" y="209.1" width="6" height="8" fill="#91b0b8" opacity="0.5"/>
<rect x="910.7" y="209.1" width="6" height="8" fill="#91b0b8" opacity="0.5"/>
<rect x="896.7" y="225.1" width="6" height="8" fill="#91b0b8" opacity="0.5"/>
<rect x="910.7" y="225.1" width="6" height="8" fill="#91b0b8" opacity="0.5"/>
<rect x="882.7" y="241.1" width="6" height="8" fill="#91b0b8" opacity="0.5"/>
<rect x="896.7" y="241.1" width="6" height="8" fill="#91b0b8" opacity="0.5"/>
<rect x="910.7" y="241.1" width="6" height="8" fill="#91b0b8" opacity="0.5"/>
<rect x="882.7" y="257.1" width="6" height="8" fill="#91b0b8" opacity="0.5"/>
<rect x="896.7" y="257.1" width="6" height="8" fill="#91b0b8" opacity="0.5"/>
<rect x="882.7" y="273.1" width="6" height="8" fill="#91b0b8" opacity="0.5"/>
<rect x="896.7" y="273.1" width="6" height="8" fill="#91b0b8" opacity="0.5"/>
<rect x="910.7" y="273.1" width="6" height="8" fill="#91b0b8" opacity="0.5"/>
<rect x="193.7" y="215.8" width="69.3" height="84.2" fill="#2b6777"/>
<rect x="225.4" y="227.8" width="6" height="8" fill="#759ca7" opacity="0.5"/>
<rect x="239.4" y="227.8" width="6" height="8" fill="#759ca7" opacity="0.5"/>
<rect x="211.4" y="243.8" width="6" height="8" fill="#759ca7" opacity="0.5"/>
<rect x="239.4" y="243.8" width="6" height="8" fill="#759ca7" opacity="0.5"/>
<rect x="225.4" y="259.8" width="6" height="8" fill="#759ca7" opacity="0.5"/>
<rect x="525.0" y="186.9" width="51.5" height="113.1" fill="#2b6777"/>
<rect x="540.8" y="198.9" width="6" height="8" fill="#759ca7" opacity="0.5"/>
<rect x="554.8" y="198.9" width="6" height="8" fill="#759ca7" opacity="0.5"/>
<rect x="554.8" y="214.9" width="6" height="8" fill="#759ca7" opacity="0.5"/>
<rect x="540.8" y="230.9" width="6" height="8" fill="#759ca7" opacity="0.5"/>
<rect x="554.8" y="230.9" width="6" height="8" fill="#759ca7" opacity="0.5"/>
<rect x="540.8" y="246.9" width="6" height="8" fill="#759ca7" opacity="0.5"/>
<rect x="981.6" y="237.9" width="48.7" height="62.1" fill="#2b6777"/>
<rect x="996.0" y="249.9" width="6" height="8" fill="#759ca7" opacity="0.5"/>
<rect x="1010.0" y="249.9" width="6" height="8" fill="#759ca7" opacity="0.5"/>
<rect x="996.0" y="265.9" width="6" height="8" fill="#759ca7" opacity="0.5"/>
<rect x="0" y="298" width="1200" height="2" fill="#275d6b" opacity="0.15"/>
</svg>