<svg xmlns="http://www.w3.org/2000/svg" viewBox="0 0 1200 300" width="1200" height="300">
<rect width="1200" height="300" fill="#e0eff2"/>
<path d="M0 300 L0 210.0 C413.9 167.4, 852.8 182.2, 1200 210.0 L1200 300 Z" fill="#aac2c9" opacity="0.3"/>
<rect x="153.6" y="212.1" width="89.7" height="87.9" fill="#8aabb4"/>
<rect x="552.6" y="194.5" width="65.6" height="105.5" fill="#8aabb4"/>
<rect x="919.1" y="175.9" width="48.9" height="124.1" fill="#8aabb4"/>
<rect x="107.7" y="209.9" width="54.1" height="90.1" fill="#558592"/>
<rect x="124.7" y="221.9" width="6" height="8" fill="#91b0b8" opacity="0.5"/>
<rect x="138.7" y="221.9" width="6" height="8" fill="#91b0b8" opacity="0.5"/>
<rect x="124.7" y="237.9" width="6" height="8" fill="#91b0b8" opacity="0.5"/>
<rect x="138.7" y="237.9" width="6" height="8" fill="#91b0b8" opacity="0.5"/>
<rect x="124.7" y="253.9" width="6" height="8" fill="#91b0b8" opacity="0.5"/>
<rect x="124.7" y="269.9" width="6" height="8" fill="#91b0b8" opacity="0.5"/>
<rect x="435.4" y="147.9" width="46.5" height="152.1" fill="#558592"/>
<rect x="448.7" y="159.9" width="6" height="8" fill="#91b0b8" opacity="0.5"/>
<rect x="462.7" y="159.9" width="6" height="8" fill="#91b0b8" opacity="0.5"/>
<rect x="462.7" y="175.9" width="6" height="8" fill="#91b0b8" opacity="0.5"/>
<rect x="448.7" y="191.9" width="6" height="8" fill="#91b0b8" opacity="0.5"/>
<rect x="462.7" y="191.9" width="6" height="8" fill="#91b0b8" opacity="0.5"/>
<rect x="448.7" y="207.9" width="6" height="8" fill="#91b0b8" opacity="0.5"/>
<rect x="448.7" y="223.9" width="6" height="8" fill="#91b0b8" opacity="0.5"/>
<rect x="462.7" y="223.9" width="6" height="8" fill="#91b0b8" opacity="0.5"/>
<rect x="448.7" y="239.9" width="6" height="8" fill="#91b0b8" opacity="0.5"/>
<rect x="462.7" y="239.9" width="6" height="8" fill="#91b0b8" opacity="0.5"/>
<rect x="462.7" y="255.9" width="6" height="8" fill="#91b0b8" opacity="0.5"/>
<rect x="448.7" y="271.9" width="6" height="8" fill="#91b0b8" opacity="0.5"/>
<rect x="750.4" y="189.2" width="38.1" height="110.8" fill="#558592"/>
<rect x="766.4" y="201.2" width="6" height="8" fill="#91b0b8" opacity="0.5"/>
<rect x="766.4" y="217.2" width="6" height="8" fill="#91b0b8" opacity="0.5"/>
<rect x="766.4" y="265.2" width="6" height="8" fill="#91b0b8" opacity="0.5"/>
<rect x="971.0" y="164.6" width="72.0" height="135.4" fill="#558592"/>
<rect x="983.0" y="176.6" width="6" height="8" fill="#91b0b8" opacity="0.5"/>
<rect x="997.0" y="176.6" width="6" height="8" fill="#91b0b8" opacity="0.5"/>
<rect x="1011.0" y="176.6" width="6" height="8" fill="#91b0b8" opacity="0.5"/>
<rect x="1025.0" y="176.6" width="6" height="8" fill="#91b0b8" opacity="0.5"/>
<rect x="983.0" y="192.6" width="6" height="8" fill="#91b0b8" opacity="0.5"/>
<rect x="997.0" y="192.6" width="6" height="8" fill="#91b0b8" opacity="0.5"/>
<rect x="1011.0" y="192.6" width="6" height="8" fill="#91b0b8" opacity="0.5"/>
<rect x="1025.0" y="192.6" width="6" height="8" fill="#91b0b8" opacity="0.5"/>
<rect x="983.0" y="208.6" width="6" height="8" fill="#91b0b8" opacity="0.5"/>
<rect x="997.0" y="208.6" width="6" height="8" fill="#91b0b8" opacity="0.5"/>
<rect x="1011.0" y="208.6" width="6" height="8" fill="#91b0b8" opacity="0.5"/>
<rect x="1025.0" y="208.6" width="6" height="8" fill="#91b0b8" opacity="0.5"/>
<rect x="983.0" y="224.6" width="6" height="8" fill="#91b0b8" opacity="0.5"/>
<rect x="997.0" y="224.6" width="6" height="8" fill="#91b0b8" opacity="0.5"/>
<rect x="1025.0" y="224.6" width="6" height="8" fill="#91b0b8" opacity="0.5"/>
<rect x="983.0" y="240.6" width="6" height="8" fill="#91b0b8" opacity="0.5"/>
<rect x="997.0" y="240.6" width="6" height="8" fill="#91b0b8" opacity="0.5"/>
<rect x="1011.0" y="240.6" width="6" height="8" fill="#91b0b8" opacity="0.5"/>
<rect x="997.0" y="256.6" width="6" height="8" fill="#91b0b8" opacity="0.5"/>
<rect x="1011.0" y="256.6" width="6" height="8" fill="#91b0b8" opacity="0.5"/>
<rect x="1025.0" y="256.6" width="6" height="8" fill="#91b0b8" opacity="0.5"/>
<rect x="983.0" y="272.6" width="6" height="8" fill="#91b0b8" opacity="0.5"/>
<rect x="997.0" y="272.6" width="6" height="8" fill="#91b0b8" opacity="0.5"/>
<rect x="1011.0" y="272.6" width="6" height="8" fill="#91b0b8" opacity="0.5"/>
<rect x="1025.0" y="272.6" width="6" height="8" fill="#91b0b8" opacity="0.5"/>
<rect x="187.6" y="106.5" width="50.3" height="193.5" fill="#2b6777"/>
<rect x="202.8" y="118.5" width="6" height="8" fill="#759ca7" opacity="0.5"/>
<rect x="216.8" y="118.5" width="6" height="8" fill="#759ca7" opacity="0.5"/>
<rect x="202.8" y="150.5" width="6" height="8" fill="#759ca7" opacity="0.5"/>
<rect x="202.8" y="166.5" width="6" height="8" fill="#759ca7" opacity="0.5"/>
<rect x="216.8" y="166.5" width="6" height="8" fill="#759ca7" opacity="0.5"/>
<rect x="202.8" y="182.5" width="6" height="8" fill="#759ca7" opacity="0.5"/>
<rect x="216.8" y="214.5" width="6" height="8" fill="#759ca7" opacity="0.5"/>
<rect x="202.8" y="230.5" width="6" height="8" fill="#759ca7" opacity="0.5"/>
<rect x="216.8" y="230.5" width="6" height="8" fill="#759ca7" opacity="0.5"/>
<rect x="202.8" y="246.5" width="6" height="8" fill="#759ca7" opacity="0.5"/>
<rect x="216.8" y="246.5" width="6" height="8" fill="#759ca7" opacity="0.5"/>
<rect x="216.8" y="262.5" width="6" height="8" fill="#759ca7" opacity="0.5"/>
<rect x="576.9" y="178.4" width="44.1" height="121.6" fill="#2b6777"/>
<rect x="588.9" y="190.4" width="6" height="8" fill="#759ca7" opacity="0.5"/>
<rect x="602.9" y="190.4" width="6" height="8" fill="#759ca7" opacity="0.5"/>
<rect x="588.9" y="206.4" width="6" height="8" fill="#759ca7" opacity="0.5"/>
<rect x="602.9" y="206.4" width="6" height="8" fill="#759ca7" opacity="0.5"/>
<rect x="588.9" y="222.4" width="6" height="8" fill="#759ca7" opacity="0.5"/>
<rect x="602.9" y="222.4" width="6" height="8" fill="#759ca7" opacity="0.5"/>
<rect x="602.9" y="254.4" width="6" height="8" fill="#759ca7" opacity="0.5"/>
<rect x="588.9" y="270.4" width="6" height="8" fill="#759ca7" opacity="0.5"/>
<rect x="602.9" y="270.4" width="6" height="8" fill="#759ca7" opacity="0.5"/>
<rect x="1018.3" y="141.0" width="35.7" height="159.0" fill="#2b6777"/>
<rect x="1033.2" y="153.0" width="6" height="8" fill="#759ca7" opacity="0.5"/>
<rect x="1033.2" y="169.0" width="6" height="8" fill="#759ca7" opacity="0.5"/>
<rect x="1033.2" y="201.0" width="6" height="8" fill="#759ca7" opacity="0.5"/>
<rect x="1033.2" y="217.0" width="6" height="8" fill="#759ca7" opacity="0.5"/>
<rect x="1033.2" y="249.0" width="6" height="8" fill="#759ca7" opacity="0.5"/>
<rect x="1033.2" y="265.0" width="6" height="8" fill="#759ca7" opacity="0.5"/>
<rect x="0" y="298" width="1200" height="2" fill="#275d6b" opacity="0.15"/>
</svg>