<svg xmlns="http://www.w3.org/2000/svg" viewBox="0 0 1200 400" width="1200" height="400">
<defs>
<linearGradient id="bg" x1="0" y1="0" x2="0" y2="1"><stop offset="0%" stop-color="#94a3b8"/><stop offset="100%" stop-color="#0369a1"/></linearGradient>
<linearGradient id="warm" x1="0" y1="0" x2="1" y2="1"><stop offset="0%" stop-color="#858d98" stop-opacity="0.18"/><stop offset="100%" stop-color="#858d98" stop-opacity="0.06"/></linearGradient>
</defs>
<rect width="1200" height="400" fill="url(#bg)"/>
<path d="M0 400 L0 225.25173859993095 C60.0 222.7, 90.0 252.8, 150.0 249.1 C210.0 242.6, 240.0 250.8, 300.0 257.2 C360.0 266.4, 390.0 231.0, 450.0 232.5 C510.0 223.6, 540.0 246.9, 600.0 254.1 C660.0 249.3, 690.0 258.2, 750.0 257.9 C810.0 264.8, 840.0 224.1, 900.0 232.7 C960.0 239.0, 990.0 234.6, 1050.0 237.2 C1110.0 243.6, 1140.0 235.4, 1200.0 240.2 L1200 400 Z" fill="#367da9" opacity="0.45"/>
<path d="M0 400 L0 272.8081562693597 C52.5 276.6, 97.5 270.0, 150.0 268.5 C202.5 268.7, 247.5 270.6, 300.0 268.1 C352.5 274.8, 397.5 288.2, 450.0 282.0 C502.5 276.7, 547.5 266.3, 600.0 265.1 C652.5 259.5, 697.5 276.9, 750.0 269.5 C802.5 272.4, 847.5 263.0, 900.0 269.7 C952.5 269.4, 997.5 264.4, 1050.0 260.4 C1102.5 257.9, 1147.5 288.8, 1200.0 282.0 L1200 400 Z" fill="#0369a1" opacity="0.3"/>
<rect x="639.7" y="331.4" width="13.6" height="68.6" rx="6.9" fill="#058d74" opacity="0.51"/>
<rect x="279.2" y="286.3" width="41.6" height="113.7" rx="4.9" fill="#04857e" opacity="0.51"/>
<rect x="701.7" y="332.0" width="49.3" height="68.0" rx="7.7" fill="#047f86" opacity="0.77"/>
<rect x="1044.7" y="329.1" width="23.2" height="70.9" rx="5.8" fill="#048183" opacity="0.60"/>
<rect x="424.4" y="272.5" width="43.5" height="127.5" rx="3.3" fill="#04867d" opacity="0.59"/>
<rect x="321.8" y="352.0" width="26.3" height="48.0" rx="7.1" fill="#04867d" opacity="0.76"/>
<rect x="717.9" y="336.8" width="46.0" height="63.2" rx="7.2" fill="#048085" opacity="0.76"/>
<rect x="635.8" y="369.3" width="15.5" height="30.7" rx="3.0" fill="#048381" opacity="0.73"/>
<rect x="204.5" y="355.8" width="29.9" height="44.2" rx="3.4" fill="#059071" opacity="0.63"/>
<rect x="668.2" y="276.8" width="44.0" height="123.2" rx="6.4" fill="#05916f" opacity="0.59"/>
<rect x="432.4" y="270.7" width="38.5" height="129.3" rx="7.0" fill="#048184" opacity="0.50"/>
<rect x="375.8" y="319.3" width="20.4" height="80.7" rx="8.0" fill="#048480" opacity="0.67"/>
<rect x="351.9" y="301.4" width="33.2" height="98.6" rx="6.9" fill="#04877c" opacity="0.59"/>
<rect x="356.9" y="311.4" width="4" height="5" rx="0.5" fill="#94a3b8" opacity="0.6"/>
<rect x="356.9" y="333.4" width="4" height="5" rx="0.5" fill="#94a3b8" opacity="0.6"/>
<rect x="368.0" y="333.4" width="4" height="5" rx="0.5" fill="#94a3b8" opacity="0.6"/>
<circle cx="36.8" cy="55.1" r="11.3" fill="#059669" opacity="0.43"/>
<circle cx="1044.6" cy="179.4" r="10.0" fill="#94a3b8" opacity="0.40"/>
<rect width="1200" height="400" fill="url(#warm)"/>
<rect width="1200" height="400" fill="#94a3b8" opacity="0.40"/>
</svg>