<svg xmlns="http://www.w3.org/2000/svg" viewBox="0 0 1200 300" width="1200" height="300">
<defs>
<linearGradient id="skyGrad" x1="0" y1="0" x2="0" y2="1">
<stop offset="0%" stop-color="#818cf8"/>
<stop offset="22%" stop-color="#a5b4fc"/>
<stop offset="42%" stop-color="#c4b5fd"/>
<stop offset="60%" stop-color="#e0c3fc"/>
<stop offset="80%" stop-color="#fde68a"/>
<stop offset="100%" stop-color="#fef9c3"/>
</linearGradient>
<linearGradient id="bldg_coral" x1="0" y1="0" x2="0" y2="1"><stop offset="0%" stop-color="#fecaca"/><stop offset="100%" stop-color="#fca5a5"/></linearGradient>
<linearGradient id="bldg_teal" x1="0" y1="0" x2="0" y2="1"><stop offset="0%" stop-color="#99f6e4"/><stop offset="100%" stop-color="#5eead4"/></linearGradient>
<linearGradient id="bldg_amber" x1="0" y1="0" x2="0" y2="1"><stop offset="0%" stop-color="#fde68a"/><stop offset="100%" stop-color="#fcd34d"/></linearGradient>
<linearGradient id="bldg_lavender" x1="0" y1="0" x2="0" y2="1"><stop offset="0%" stop-color="#ddd6fe"/><stop offset="100%" stop-color="#c4b5fd"/></linearGradient>
<linearGradient id="bldg_blue" x1="0" y1="0" x2="0" y2="1"><stop offset="0%" stop-color="#bfdbfe"/><stop offset="100%" stop-color="#93c5fd"/></linearGradient>
<linearGradient id="bldg_mint" x1="0" y1="0" x2="0" y2="1"><stop offset="0%" stop-color="#a7f3d0"/><stop offset="100%" stop-color="#6ee7b7"/></linearGradient>
<linearGradient id="bldg_rose" x1="0" y1="0" x2="0" y2="1"><stop offset="0%" stop-color="#fecdd3"/><stop offset="100%" stop-color="#fda4af"/></linearGradient>
<linearGradient id="bldg_sky" x1="0" y1="0" x2="0" y2="1"><stop offset="0%" stop-color="#bae6fd"/><stop offset="100%" stop-color="#7dd3fc"/></linearGradient>
<linearGradient id="roof_navyRoof" x1="0" y1="0" x2="0" y2="1"><stop offset="0%" stop-color="#4338ca"/><stop offset="100%" stop-color="#3730a3"/></linearGradient>
<linearGradient id="roof_coralRoof" x1="0" y1="0" x2="0" y2="1"><stop offset="0%" stop-color="#f87171"/><stop offset="100%" stop-color="#ef4444"/></linearGradient>
<linearGradient id="roof_tealRoof" x1="0" y1="0" x2="0" y2="1"><stop offset="0%" stop-color="#2dd4bf"/><stop offset="100%" stop-color="#14b8a6"/></linearGradient>
<radialGradient id="windowGlow" cx="50%" cy="50%" r="50%"><stop offset="0%" stop-color="#fef08a"/><stop offset="60%" stop-color="#fbbf24"/><stop offset="100%" stop-color="#f59e0b"/></radialGradient>
<linearGradient id="hillFar" x1="0" y1="0" x2="0" y2="1"><stop offset="0%" stop-color="#c4b5fd"/><stop offset="100%" stop-color="#a5b4fc"/></linearGradient>
<linearGradient id="hillMid" x1="0" y1="0" x2="0" y2="1"><stop offset="0%" stop-color="#86efac"/><stop offset="100%" stop-color="#4ade80"/></linearGradient>
<linearGradient id="hillNear" x1="0" y1="0" x2="0" y2="1"><stop offset="0%" stop-color="#34d399"/><stop offset="100%" stop-color="#10b981"/></linearGradient>
<linearGradient id="hillDesertFar" x1="0" y1="0" x2="0" y2="1"><stop offset="0%" stop-color="#fde68a"/><stop offset="100%" stop-color="#fcd34d"/></linearGradient>
<linearGradient id="hillDesertMid" x1="0" y1="0" x2="0" y2="1"><stop offset="0%" stop-color="#fcd34d"/><stop offset="100%" stop-color="#fbbf24"/></linearGradient>
<linearGradient id="hillDesertNear" x1="0" y1="0" x2="0" y2="1"><stop offset="0%" stop-color="#fbbf24"/><stop offset="100%" stop-color="#f59e0b"/></linearGradient>
<linearGradient id="groundGrad" x1="0" y1="0" x2="0" y2="1"><stop offset="0%" stop-color="#fef3c7"/><stop offset="100%" stop-color="#fde68a"/></linearGradient>
<linearGradient id="waterGrad" x1="0" y1="0" x2="0" y2="1"><stop offset="0%" stop-color="#bfdbfe"/><stop offset="100%" stop-color="#93c5fd"/></linearGradient>
<filter id="softGlow" x="-50%" y="-50%" width="200%" height="200%"><feGaussianBlur in="SourceGraphic" stdDeviation="12"/></filter>
</defs>
<rect width="1200" height="300" fill="url(#skyGrad)"/>
<circle cx="973.1" cy="56.8" r="45" fill="#fef08a" opacity="0.12" filter="url(#softGlow)"/>
<circle cx="973.1" cy="56.8" r="30" fill="#fde68a" opacity="0.18" filter="url(#softGlow)"/>
<circle cx="973.1" cy="56.8" r="16" fill="#fef9c3" opacity="0.25" filter="url(#softGlow)"/>
<ellipse cx="218.1" cy="23.4" rx="44.4" ry="15.5" fill="white" opacity="0.7"/>
<ellipse cx="190.4" cy="27.9" rx="31.1" ry="12.2" fill="white" opacity="0.6"/>
<ellipse cx="242.6" cy="26.7" rx="35.5" ry="13.3" fill="white" opacity="0.6"/>
<ellipse cx="562.2" cy="34.1" rx="44.7" ry="15.7" fill="white" opacity="0.6"/>
<ellipse cx="534.3" cy="38.5" rx="31.3" ry="12.3" fill="white" opacity="0.5"/>
<ellipse cx="586.8" cy="37.4" rx="35.8" ry="13.4" fill="white" opacity="0.5"/>
<path d="M0 300 L0.0 190.4 C132.0 190.4, 132.0 186.0, 263.9 186.0 C364.5 186.0, 364.5 184.3, 465.0 184.3 C571.1 184.3, 571.1 191.1, 677.2 191.1 C803.4 191.1, 803.4 194.0, 929.5 194.0 C1064.8 194.0, 1064.8 199.5, 1200.0 199.5 L1200 300 Z" fill="url(#hillFar)" opacity="0.5"/>
<path d="M0 300 L0.0 207.7 C204.6 207.7, 204.6 204.4, 409.3 204.4 C596.2 204.4, 596.2 206.0, 783.1 206.0 C991.5 206.0, 991.5 216.0, 1200.0 216.0 L1200 300 Z" fill="url(#hillMid)" opacity="0.7"/>
<path d="M0 300 L0.0 233.9 C170.7 233.9, 170.7 230.8, 341.5 230.8 C502.1 230.8, 502.1 235.5, 662.7 235.5 C745.3 235.5, 745.3 230.6, 827.8 230.6 C1013.9 230.6, 1013.9 235.2, 1200.0 235.2 L1200 300 Z" fill="url(#hillNear)" opacity="1"/>
<rect x="174.8" y="217.9" width="49.2" height="82.1" rx="3" fill="url(#bldg_teal)" opacity="0.7"/>
<rect x="174.8" y="214.9" width="49.2" height="3" rx="1" fill="url(#roof_tealRoof)" opacity="0.7"/>
<rect x="189.4" y="227.9" width="6" height="8" rx="1" fill="url(#windowGlow)" opacity="0.7228333142692378"/>
<rect x="203.4" y="227.9" width="6" height="8" rx="1" fill="url(#windowGlow)" opacity="0.9670372830084698"/>
<rect x="189.4" y="242.9" width="6" height="8" rx="1" fill="url(#windowGlow)" opacity="0.7843086894062854"/>
<rect x="203.4" y="242.9" width="6" height="8" rx="1" fill="url(#windowGlow)" opacity="0.812789136037598"/>
<rect x="189.4" y="257.9" width="6" height="8" rx="1" fill="url(#windowGlow)" opacity="0.7000512533821404"/>
<rect x="203.4" y="257.9" width="6" height="8" rx="1" fill="url(#windowGlow)" opacity="0.8320915442575195"/>
<rect x="573.2" y="219.8" width="66.9" height="80.2" rx="3" fill="url(#bldg_amber)" opacity="0.7"/>
<polygon points="573.2,219.8 606.7,197.3 640.2,219.8" fill="url(#roof_navyRoof)" opacity="0.7"/>
<rect x="603.7" y="229.8" width="6" height="8" rx="1" fill="url(#windowGlow)" opacity="0.877810222039842"/>
<rect x="617.7" y="229.8" width="6" height="8" rx="1" fill="url(#windowGlow)" opacity="0.9809298367150732"/>
<rect x="589.7" y="244.8" width="6" height="8" rx="1" fill="url(#windowGlow)" opacity="0.9309666119194433"/>
<rect x="603.7" y="244.8" width="6" height="8" rx="1" fill="url(#windowGlow)" opacity="0.8955481147838514"/>
<rect x="617.7" y="244.8" width="6" height="8" rx="1" fill="url(#windowGlow)" opacity="0.9213174057758028"/>
<rect x="589.7" y="259.8" width="6" height="8" rx="1" fill="url(#windowGlow)" opacity="0.9064363193262537"/>
<rect x="617.7" y="259.8" width="6" height="8" rx="1" fill="url(#windowGlow)" opacity="0.7472860767726256"/>
<rect x="918.8" y="188.5" width="73.9" height="111.5" rx="3" fill="url(#bldg_lavender)" opacity="0.7"/>
<polygon points="918.8,188.5 955.8,172.3 992.7,188.5" fill="url(#roof_coralRoof)" opacity="0.7"/>
<rect x="931.8" y="198.5" width="6" height="8" rx="1" fill="url(#windowGlow)" opacity="0.9570107473325965"/>
<rect x="973.8" y="198.5" width="6" height="8" rx="1" fill="url(#windowGlow)" opacity="0.8534889977208753"/>
<rect x="931.8" y="213.5" width="6" height="8" rx="1" fill="url(#windowGlow)" opacity="0.9021631523045539"/>
<rect x="945.8" y="213.5" width="6" height="8" rx="1" fill="url(#windowGlow)" opacity="0.8356213846875453"/>
<rect x="959.8" y="213.5" width="6" height="8" rx="1" fill="url(#windowGlow)" opacity="0.866955992284676"/>
<rect x="973.8" y="213.5" width="6" height="8" rx="1" fill="url(#windowGlow)" opacity="0.8991765983398894"/>
<rect x="931.8" y="228.5" width="6" height="8" rx="1" fill="url(#windowGlow)" opacity="0.989182243817105"/>
<rect x="959.8" y="228.5" width="6" height="8" rx="1" fill="url(#windowGlow)" opacity="0.8398973956889926"/>
<rect x="973.8" y="228.5" width="6" height="8" rx="1" fill="url(#windowGlow)" opacity="0.9105908400894099"/>
<rect x="945.8" y="243.5" width="6" height="8" rx="1" fill="url(#windowGlow)" opacity="0.7937956607406007"/>
<rect x="959.8" y="243.5" width="6" height="8" rx="1" fill="url(#windowGlow)" opacity="0.9351208182215321"/>
<rect x="973.8" y="243.5" width="6" height="8" rx="1" fill="url(#windowGlow)" opacity="0.8184083778962532"/>
<rect x="931.8" y="258.5" width="6" height="8" rx="1" fill="url(#windowGlow)" opacity="0.89223185181256"/>
<rect x="945.8" y="258.5" width="6" height="8" rx="1" fill="url(#windowGlow)" opacity="0.8344905706748788"/>
<rect x="973.8" y="258.5" width="6" height="8" rx="1" fill="url(#windowGlow)" opacity="0.8281530954074827"/>
<rect x="175.3" y="153.9" width="51.8" height="146.1" rx="3" fill="url(#bldg_blue)" opacity="0.85"/>
<polygon points="175.3,153.9 201.2,140.5 227.1,153.9" fill="url(#roof_tealRoof)" opacity="0.85"/>
<rect x="191.2" y="163.9" width="6" height="8" rx="1" fill="url(#windowGlow)" opacity="0.8918965800161923"/>
<rect x="205.2" y="163.9" width="6" height="8" rx="1" fill="url(#windowGlow)" opacity="0.9997455975039609"/>
<rect x="191.2" y="178.9" width="6" height="8" rx="1" fill="url(#windowGlow)" opacity="0.707430811555791"/>
<rect x="205.2" y="178.9" width="6" height="8" rx="1" fill="url(#windowGlow)" opacity="0.8314922670980414"/>
<rect x="191.2" y="193.9" width="6" height="8" rx="1" fill="url(#windowGlow)" opacity="0.7464516425255926"/>
<rect x="205.2" y="193.9" width="6" height="8" rx="1" fill="url(#windowGlow)" opacity="0.8341740519898823"/>
<rect x="205.2" y="208.9" width="6" height="8" rx="1" fill="url(#windowGlow)" opacity="0.8946450182211795"/>
<rect x="205.2" y="223.9" width="6" height="8" rx="1" fill="url(#windowGlow)" opacity="0.7538731997617861"/>
<rect x="191.2" y="238.9" width="6" height="8" rx="1" fill="url(#windowGlow)" opacity="0.9959722323324401"/>
<rect x="205.2" y="238.9" width="6" height="8" rx="1" fill="url(#windowGlow)" opacity="0.8513887446612998"/>
<rect x="191.2" y="253.9" width="6" height="8" rx="1" fill="url(#windowGlow)" opacity="0.7376999976754653"/>
<rect x="205.2" y="253.9" width="6" height="8" rx="1" fill="url(#windowGlow)" opacity="0.9332328307131458"/>
<rect x="588.8" y="167.3" width="59.4" height="132.7" rx="3" fill="url(#bldg_mint)" opacity="0.85"/>
<rect x="600.7" y="151.4" width="35.6" height="15.9" rx="2" fill="url(#roof_navyRoof)" opacity="0.85"/>
<rect x="601.5" y="177.3" width="6" height="8" rx="1" fill="url(#windowGlow)" opacity="0.8334113381958619"/>
<rect x="601.5" y="192.3" width="6" height="8" rx="1" fill="url(#windowGlow)" opacity="0.7888926414721145"/>
<rect x="615.5" y="192.3" width="6" height="8" rx="1" fill="url(#windowGlow)" opacity="0.7659767811028179"/>
<rect x="601.5" y="207.3" width="6" height="8" rx="1" fill="url(#windowGlow)" opacity="0.818965810220207"/>
<rect x="615.5" y="207.3" width="6" height="8" rx="1" fill="url(#windowGlow)" opacity="0.7381308770916102"/>
<rect x="629.5" y="207.3" width="6" height="8" rx="1" fill="url(#windowGlow)" opacity="0.7001927921549383"/>
<rect x="615.5" y="222.3" width="6" height="8" rx="1" fill="url(#windowGlow)" opacity="0.8907153949563928"/>
<rect x="629.5" y="222.3" width="6" height="8" rx="1" fill="url(#windowGlow)" opacity="0.8846634007453282"/>
<rect x="601.5" y="237.3" width="6" height="8" rx="1" fill="url(#windowGlow)" opacity="0.886295115056585"/>
<rect x="615.5" y="237.3" width="6" height="8" rx="1" fill="url(#windowGlow)" opacity="0.948879727511145"/>
<rect x="629.5" y="237.3" width="6" height="8" rx="1" fill="url(#windowGlow)" opacity="0.948988648945926"/>
<rect x="601.5" y="252.3" width="6" height="8" rx="1" fill="url(#windowGlow)" opacity="0.8401847052575018"/>
<rect x="615.5" y="252.3" width="6" height="8" rx="1" fill="url(#windowGlow)" opacity="0.7143865020546999"/>
<rect x="629.5" y="252.3" width="6" height="8" rx="1" fill="url(#windowGlow)" opacity="0.8259616711297825"/>
<rect x="946.5" y="207.5" width="59.0" height="92.5" rx="3" fill="url(#bldg_rose)" opacity="0.85"/>
<polygon points="946.5,207.5 976.0,191.2 1005.5,207.5" fill="url(#roof_coralRoof)" opacity="0.85"/>
<rect x="973.0" y="217.5" width="6" height="8" rx="1" fill="url(#windowGlow)" opacity="0.8375692678790396"/>
<rect x="959.0" y="232.5" width="6" height="8" rx="1" fill="url(#windowGlow)" opacity="0.7443661564236349"/>
<rect x="973.0" y="232.5" width="6" height="8" rx="1" fill="url(#windowGlow)" opacity="0.9290311020934168"/>
<rect x="987.0" y="232.5" width="6" height="8" rx="1" fill="url(#windowGlow)" opacity="0.7039494357090208"/>
<rect x="959.0" y="247.5" width="6" height="8" rx="1" fill="url(#windowGlow)" opacity="0.7705033833489303"/>
<rect x="973.0" y="247.5" width="6" height="8" rx="1" fill="url(#windowGlow)" opacity="0.9070950051802652"/>
<rect x="987.0" y="247.5" width="6" height="8" rx="1" fill="url(#windowGlow)" opacity="0.8046209730695099"/>
<rect x="231.3" y="113.0" width="40.7" height="187.0" rx="3" fill="url(#bldg_sky)" opacity="1"/>
<rect x="231.3" y="110.0" width="40.7" height="3" rx="1" fill="url(#roof_tealRoof)" opacity="1"/>
<rect x="248.7" y="123.0" width="6" height="8" rx="1" fill="url(#windowGlow)" opacity="0.8497565499272925"/>
<rect x="248.7" y="138.0" width="6" height="8" rx="1" fill="url(#windowGlow)" opacity="0.7169663474974065"/>
<rect x="248.7" y="153.0" width="6" height="8" rx="1" fill="url(#windowGlow)" opacity="0.753554490606093"/>
<rect x="248.7" y="183.0" width="6" height="8" rx="1" fill="url(#windowGlow)" opacity="0.8525002794584726"/>
<rect x="248.7" y="198.0" width="6" height="8" rx="1" fill="url(#windowGlow)" opacity="0.720530190374949"/>
<rect x="248.7" y="213.0" width="6" height="8" rx="1" fill="url(#windowGlow)" opacity="0.7713785759971377"/>
<rect x="248.7" y="228.0" width="6" height="8" rx="1" fill="url(#windowGlow)" opacity="0.948716561472377"/>
<rect x="246.7" y="284.0" width="10" height="16" rx="2" fill="url(#roof_navyRoof)" opacity="0.8"/>
<rect x="248.7" y="287.0" width="6" height="10" rx="1" fill="url(#windowGlow)" opacity="0.45"/>
<rect x="612.3" y="188.7" width="35.8" height="111.3" rx="3" fill="url(#bldg_coral)" opacity="1"/>
<polygon points="612.3,188.7 630.2,180.9 648.1,188.7" fill="url(#roof_navyRoof)" opacity="1"/>
<rect x="627.2" y="198.7" width="6" height="8" rx="1" fill="url(#windowGlow)" opacity="0.8222505781903167"/>
<rect x="627.2" y="213.7" width="6" height="8" rx="1" fill="url(#windowGlow)" opacity="0.7266440863379482"/>
<rect x="627.2" y="228.7" width="6" height="8" rx="1" fill="url(#windowGlow)" opacity="0.9169757405840678"/>
<rect x="627.2" y="243.7" width="6" height="8" rx="1" fill="url(#windowGlow)" opacity="0.7792709634542795"/>
<rect x="627.2" y="258.7" width="6" height="8" rx="1" fill="url(#windowGlow)" opacity="0.8007092669609511"/>
<rect x="625.2" y="284.0" width="10" height="16" rx="2" fill="url(#roof_navyRoof)" opacity="0.8"/>
<rect x="627.2" y="287.0" width="6" height="10" rx="1" fill="url(#windowGlow)" opacity="0.45"/>
<rect x="899.7" y="151.4" width="56.7" height="148.6" rx="3" fill="url(#bldg_teal)" opacity="1"/>
<rect x="911.1" y="133.6" width="34.0" height="17.8" rx="2" fill="url(#roof_coralRoof)" opacity="1"/>
<rect x="918.1" y="161.4" width="6" height="8" rx="1" fill="url(#windowGlow)" opacity="0.7625199055590294"/>
<rect x="932.1" y="161.4" width="6" height="8" rx="1" fill="url(#windowGlow)" opacity="0.8210575015847839"/>
<rect x="918.1" y="176.4" width="6" height="8" rx="1" fill="url(#windowGlow)" opacity="0.925600697577745"/>
<rect x="918.1" y="191.4" width="6" height="8" rx="1" fill="url(#windowGlow)" opacity="0.9263583424158199"/>
<rect x="932.1" y="191.4" width="6" height="8" rx="1" fill="url(#windowGlow)" opacity="0.7052970357729573"/>
<rect x="918.1" y="206.4" width="6" height="8" rx="1" fill="url(#windowGlow)" opacity="0.829624680443492"/>
<rect x="932.1" y="206.4" width="6" height="8" rx="1" fill="url(#windowGlow)" opacity="0.7647157399750854"/>
<rect x="918.1" y="221.4" width="6" height="8" rx="1" fill="url(#windowGlow)" opacity="0.8863509340613851"/>
<rect x="918.1" y="236.4" width="6" height="8" rx="1" fill="url(#windowGlow)" opacity="0.978860720470017"/>
<rect x="932.1" y="236.4" width="6" height="8" rx="1" fill="url(#windowGlow)" opacity="0.8261447560629549"/>
<rect x="932.1" y="251.4" width="6" height="8" rx="1" fill="url(#windowGlow)" opacity="0.9583672012008573"/>
<rect x="923.1" y="284.0" width="10" height="16" rx="2" fill="url(#roof_navyRoof)" opacity="0.8"/>
<rect x="925.1" y="287.0" width="6" height="10" rx="1" fill="url(#windowGlow)" opacity="0.45"/>
<rect x="439.2" y="268.2" width="6" height="16.8" rx="2" fill="#15803d"/>
<circle cx="442.2" cy="254.5" r="17.7" fill="#22c55e" opacity="0.9"/>
<circle cx="434.6" cy="257.5" r="13.3" fill="#16a34a" opacity="0.8"/>
<circle cx="449.6" cy="258.5" r="12.4" fill="#15803d" opacity="0.7"/>
<rect x="770.9" y="267.5" width="6" height="17.5" rx="2" fill="#15803d"/>
<circle cx="773.9" cy="257.3" r="14.2" fill="#22c55e" opacity="0.9"/>
<circle cx="767.6" cy="260.3" r="10.7" fill="#16a34a" opacity="0.8"/>
<circle cx="779.4" cy="261.3" r="9.9" fill="#15803d" opacity="0.7"/>
<rect x="205.8" y="263.1" width="6" height="21.9" rx="2" fill="#15803d"/>
<circle cx="208.8" cy="250.3" r="16.8" fill="#22c55e" opacity="0.9"/>
<circle cx="201.4" cy="253.3" r="12.6" fill="#16a34a" opacity="0.8"/>
<circle cx="214.5" cy="254.3" r="11.8" fill="#15803d" opacity="0.7"/>
<rect x="988.3" y="268.6" width="6" height="16.4" rx="2" fill="#15803d"/>
<circle cx="991.3" cy="256.5" r="16.1" fill="#22c55e" opacity="0.9"/>
<circle cx="984.7" cy="259.5" r="12.1" fill="#16a34a" opacity="0.8"/>
<circle cx="998.5" cy="260.5" r="11.3" fill="#15803d" opacity="0.7"/>
<rect x="916.2" y="268.2" width="6" height="16.8" rx="2" fill="#15803d"/>
<circle cx="919.2" cy="258.0" r="14.2" fill="#22c55e" opacity="0.9"/>
<circle cx="910.4" cy="261.0" r="10.7" fill="#16a34a" opacity="0.8"/>
<circle cx="926.6" cy="262.0" r="10.0" fill="#15803d" opacity="0.7"/>
<rect x="353.8" y="267.3" width="6" height="17.7" rx="2" fill="#15803d"/>
<circle cx="356.8" cy="258.2" r="13.1" fill="#22c55e" opacity="0.9"/>
<circle cx="349.6" cy="261.2" r="9.8" fill="#16a34a" opacity="0.8"/>
<circle cx="364.1" cy="262.2" r="9.2" fill="#15803d" opacity="0.7"/>
<rect x="1080.5" y="264.2" width="6" height="20.8" rx="2" fill="#15803d"/>
<circle cx="1083.5" cy="254.8" r="13.4" fill="#22c55e" opacity="0.9"/>
<circle cx="1075.3" cy="257.8" r="10.0" fill="#16a34a" opacity="0.8"/>
<circle cx="1089.6" cy="258.8" r="9.4" fill="#15803d" opacity="0.7"/>
<rect x="0" y="282" width="1200" height="18" fill="url(#groundGrad)"/>
<line x1="655.6" y1="282.0" x2="655.6" y2="250.9" stroke="#92400e" stroke-width="2"/>
<circle cx="655.6" cy="250.9" r="4" fill="#fef08a" opacity="0.6"/>
<circle cx="655.6" cy="250.9" r="8" fill="#fef08a" opacity="0.15" filter="url(#softGlow)"/>
<ellipse cx="87.0" cy="282.0" rx="4.1" ry="2.9" fill="#22c55e" opacity="0.6"/>
<ellipse cx="573.9" cy="282.0" rx="5.2" ry="3.6" fill="#22c55e" opacity="0.6"/>
<ellipse cx="742.1" cy="282.0" rx="5.7" ry="4.0" fill="#22c55e" opacity="0.6"/>
</svg>