<svg xmlns="http://www.w3.org/2000/svg" viewBox="0 0 1200 300" width="1200" height="300">
<rect width="1200" height="300" fill="#f0e6d8"/>
<path d="M0 300 L0 210.0 C258.4 183.0, 823.2 187.3, 1200 210.0 L1200 300 Z" fill="#e4c4a8" opacity="0.3"/>
<rect x="134.5" y="225.8" width="88.5" height="74.2" fill="#daae87"/>
<rect x="407.5" y="224.4" width="87.6" height="75.6" fill="#daae87"/>
<rect x="761.8" y="206.3" width="45.6" height="93.7" fill="#daae87"/>
<rect x="991.5" y="220.0" width="80.8" height="80.0" fill="#daae87"/>
<rect x="119.4" y="213.9" width="46.6" height="86.1" fill="#c98951"/>
<rect x="146.7" y="241.9" width="6" height="8" fill="#dcb28e" opacity="0.5"/>
<rect x="132.7" y="257.9" width="6" height="8" fill="#dcb28e" opacity="0.5"/>
<rect x="132.7" y="273.9" width="6" height="8" fill="#dcb28e" opacity="0.5"/>
<rect x="370.3" y="188.3" width="50.2" height="111.7" fill="#c98951"/>
<rect x="385.4" y="200.3" width="6" height="8" fill="#dcb28e" opacity="0.5"/>
<rect x="399.4" y="200.3" width="6" height="8" fill="#dcb28e" opacity="0.5"/>
<rect x="399.4" y="216.3" width="6" height="8" fill="#dcb28e" opacity="0.5"/>
<rect x="385.4" y="232.3" width="6" height="8" fill="#dcb28e" opacity="0.5"/>
<rect x="399.4" y="232.3" width="6" height="8" fill="#dcb28e" opacity="0.5"/>
<rect x="385.4" y="248.3" width="6" height="8" fill="#dcb28e" opacity="0.5"/>
<rect x="399.4" y="248.3" width="6" height="8" fill="#dcb28e" opacity="0.5"/>
<rect x="385.4" y="264.3" width="6" height="8" fill="#dcb28e" opacity="0.5"/>
<rect x="399.4" y="264.3" width="6" height="8" fill="#dcb28e" opacity="0.5"/>
<rect x="580.1" y="166.8" width="79.6" height="133.2" fill="#c98951"/>
<rect x="609.9" y="178.8" width="6" height="8" fill="#dcb28e" opacity="0.5"/>
<rect x="623.9" y="178.8" width="6" height="8" fill="#dcb28e" opacity="0.5"/>
<rect x="637.9" y="178.8" width="6" height="8" fill="#dcb28e" opacity="0.5"/>
<rect x="609.9" y="194.8" width="6" height="8" fill="#dcb28e" opacity="0.5"/>
<rect x="637.9" y="194.8" width="6" height="8" fill="#dcb28e" opacity="0.5"/>
<rect x="595.9" y="210.8" width="6" height="8" fill="#dcb28e" opacity="0.5"/>
<rect x="609.9" y="210.8" width="6" height="8" fill="#dcb28e" opacity="0.5"/>
<rect x="623.9" y="210.8" width="6" height="8" fill="#dcb28e" opacity="0.5"/>
<rect x="637.9" y="210.8" width="6" height="8" fill="#dcb28e" opacity="0.5"/>
<rect x="595.9" y="226.8" width="6" height="8" fill="#dcb28e" opacity="0.5"/>
<rect x="609.9" y="226.8" width="6" height="8" fill="#dcb28e" opacity="0.5"/>
<rect x="623.9" y="226.8" width="6" height="8" fill="#dcb28e" opacity="0.5"/>
<rect x="637.9" y="226.8" width="6" height="8" fill="#dcb28e" opacity="0.5"/>
<rect x="595.9" y="242.8" width="6" height="8" fill="#dcb28e" opacity="0.5"/>
<rect x="609.9" y="242.8" width="6" height="8" fill="#dcb28e" opacity="0.5"/>
<rect x="623.9" y="242.8" width="6" height="8" fill="#dcb28e" opacity="0.5"/>
<rect x="637.9" y="242.8" width="6" height="8" fill="#dcb28e" opacity="0.5"/>
<rect x="595.9" y="258.8" width="6" height="8" fill="#dcb28e" opacity="0.5"/>
<rect x="609.9" y="258.8" width="6" height="8" fill="#dcb28e" opacity="0.5"/>
<rect x="637.9" y="258.8" width="6" height="8" fill="#dcb28e" opacity="0.5"/>
<rect x="787.6" y="195.9" width="38.1" height="104.1" fill="#c98951"/>
<rect x="803.6" y="207.9" width="6" height="8" fill="#dcb28e" opacity="0.5"/>
<rect x="803.6" y="223.9" width="6" height="8" fill="#dcb28e" opacity="0.5"/>
<rect x="803.6" y="239.9" width="6" height="8" fill="#dcb28e" opacity="0.5"/>
<rect x="803.6" y="271.9" width="6" height="8" fill="#dcb28e" opacity="0.5"/>
<rect x="1008.5" y="176.8" width="35.2" height="123.2" fill="#c98951"/>
<rect x="1023.2" y="188.8" width="6" height="8" fill="#dcb28e" opacity="0.5"/>
<rect x="1023.2" y="204.8" width="6" height="8" fill="#dcb28e" opacity="0.5"/>
<rect x="1023.2" y="220.8" width="6" height="8" fill="#dcb28e" opacity="0.5"/>
<rect x="1023.2" y="236.8" width="6" height="8" fill="#dcb28e" opacity="0.5"/>
<rect x="154.5" y="128.0" width="36.6" height="172.0" fill="#bc6c25"/>
<rect x="169.8" y="140.0" width="6" height="8" fill="#d39f71" opacity="0.5"/>
<rect x="169.8" y="172.0" width="6" height="8" fill="#d39f71" opacity="0.5"/>
<rect x="169.8" y="188.0" width="6" height="8" fill="#d39f71" opacity="0.5"/>
<rect x="169.8" y="220.0" width="6" height="8" fill="#d39f71" opacity="0.5"/>
<rect x="169.8" y="236.0" width="6" height="8" fill="#d39f71" opacity="0.5"/>
<rect x="169.8" y="252.0" width="6" height="8" fill="#d39f71" opacity="0.5"/>
<rect x="169.8" y="268.0" width="6" height="8" fill="#d39f71" opacity="0.5"/>
<rect x="445.4" y="238.7" width="67.5" height="61.3" fill="#bc6c25"/>
<rect x="476.1" y="250.7" width="6" height="8" fill="#d39f71" opacity="0.5"/>
<rect x="490.1" y="250.7" width="6" height="8" fill="#d39f71" opacity="0.5"/>
<rect x="462.1" y="266.7" width="6" height="8" fill="#d39f71" opacity="0.5"/>
<rect x="679.5" y="123.8" width="72.1" height="176.2" fill="#bc6c25"/>
<rect x="733.6" y="135.8" width="6" height="8" fill="#d39f71" opacity="0.5"/>
<rect x="691.6" y="151.8" width="6" height="8" fill="#d39f71" opacity="0.5"/>
<rect x="705.6" y="151.8" width="6" height="8" fill="#d39f71" opacity="0.5"/>
<rect x="719.6" y="151.8" width="6" height="8" fill="#d39f71" opacity="0.5"/>
<rect x="733.6" y="151.8" width="6" height="8" fill="#d39f71" opacity="0.5"/>
<rect x="691.6" y="167.8" width="6" height="8" fill="#d39f71" opacity="0.5"/>
<rect x="719.6" y="167.8" width="6" height="8" fill="#d39f71" opacity="0.5"/>
<rect x="733.6" y="167.8" width="6" height="8" fill="#d39f71" opacity="0.5"/>
<rect x="705.6" y="183.8" width="6" height="8" fill="#d39f71" opacity="0.5"/>
<rect x="719.6" y="183.8" width="6" height="8" fill="#d39f71" opacity="0.5"/>
<rect x="733.6" y="183.8" width="6" height="8" fill="#d39f71" opacity="0.5"/>
<rect x="691.6" y="199.8" width="6" height="8" fill="#d39f71" opacity="0.5"/>
<rect x="705.6" y="199.8" width="6" height="8" fill="#d39f71" opacity="0.5"/>
<rect x="719.6" y="199.8" width="6" height="8" fill="#d39f71" opacity="0.5"/>
<rect x="733.6" y="199.8" width="6" height="8" fill="#d39f71" opacity="0.5"/>
<rect x="691.6" y="215.8" width="6" height="8" fill="#d39f71" opacity="0.5"/>
<rect x="705.6" y="215.8" width="6" height="8" fill="#d39f71" opacity="0.5"/>
<rect x="719.6" y="215.8" width="6" height="8" fill="#d39f71" opacity="0.5"/>
<rect x="733.6" y="215.8" width="6" height="8" fill="#d39f71" opacity="0.5"/>
<rect x="691.6" y="231.8" width="6" height="8" fill="#d39f71" opacity="0.5"/>
<rect x="719.6" y="231.8" width="6" height="8" fill="#d39f71" opacity="0.5"/>
<rect x="733.6" y="231.8" width="6" height="8" fill="#d39f71" opacity="0.5"/>
<rect x="691.6" y="247.8" width="6" height="8" fill="#d39f71" opacity="0.5"/>
<rect x="705.6" y="247.8" width="6" height="8" fill="#d39f71" opacity="0.5"/>
<rect x="719.6" y="247.8" width="6" height="8" fill="#d39f71" opacity="0.5"/>
<rect x="733.6" y="247.8" width="6" height="8" fill="#d39f71" opacity="0.5"/>
<rect x="705.6" y="263.8" width="6" height="8" fill="#d39f71" opacity="0.5"/>
<rect x="719.6" y="263.8" width="6" height="8" fill="#d39f71" opacity="0.5"/>
<rect x="733.6" y="263.8" width="6" height="8" fill="#d39f71" opacity="0.5"/>
<rect x="988.8" y="148.9" width="74.8" height="151.1" fill="#bc6c25"/>
<rect x="1002.2" y="160.9" width="6" height="8" fill="#d39f71" opacity="0.5"/>
<rect x="1016.2" y="160.9" width="6" height="8" fill="#d39f71" opacity="0.5"/>
<rect x="1030.2" y="160.9" width="6" height="8" fill="#d39f71" opacity="0.5"/>
<rect x="1002.2" y="176.9" width="6" height="8" fill="#d39f71" opacity="0.5"/>
<rect x="1030.2" y="176.9" width="6" height="8" fill="#d39f71" opacity="0.5"/>
<rect x="1044.2" y="176.9" width="6" height="8" fill="#d39f71" opacity="0.5"/>
<rect x="1002.2" y="192.9" width="6" height="8" fill="#d39f71" opacity="0.5"/>
<rect x="1030.2" y="192.9" width="6" height="8" fill="#d39f71" opacity="0.5"/>
<rect x="1044.2" y="192.9" width="6" height="8" fill="#d39f71" opacity="0.5"/>
<rect x="1016.2" y="208.9" width="6" height="8" fill="#d39f71" opacity="0.5"/>
<rect x="1030.2" y="208.9" width="6" height="8" fill="#d39f71" opacity="0.5"/>
<rect x="1044.2" y="208.9" width="6" height="8" fill="#d39f71" opacity="0.5"/>
<rect x="1002.2" y="224.9" width="6" height="8" fill="#d39f71" opacity="0.5"/>
<rect x="1016.2" y="224.9" width="6" height="8" fill="#d39f71" opacity="0.5"/>
<rect x="1030.2" y="224.9" width="6" height="8" fill="#d39f71" opacity="0.5"/>
<rect x="1044.2" y="224.9" width="6" height="8" fill="#d39f71" opacity="0.5"/>
<rect x="1002.2" y="240.9" width="6" height="8" fill="#d39f71" opacity="0.5"/>
<rect x="1016.2" y="240.9" width="6" height="8" fill="#d39f71" opacity="0.5"/>
<rect x="1030.2" y="240.9" width="6" height="8" fill="#d39f71" opacity="0.5"/>
<rect x="1044.2" y="240.9" width="6" height="8" fill="#d39f71" opacity="0.5"/>
<rect x="1002.2" y="256.9" width="6" height="8" fill="#d39f71" opacity="0.5"/>
<rect x="1002.2" y="272.9" width="6" height="8" fill="#d39f71" opacity="0.5"/>
<rect x="1016.2" y="272.9" width="6" height="8" fill="#d39f71" opacity="0.5"/>
<rect x="1030.2" y="272.9" width="6" height="8" fill="#d39f71" opacity="0.5"/>
<rect x="1044.2" y="272.9" width="6" height="8" fill="#d39f71" opacity="0.5"/>
<rect x="0" y="298" width="1200" height="2" fill="#a96121" opacity="0.15"/>
</svg>