<svg xmlns="http://www.w3.org/2000/svg" viewBox="0 0 1200 300" width="1200" height="300">
<defs><linearGradient id="skyGrad" x1="0" y1="0" x2="0" y2="1"><stop offset="0%" stop-color="#e8f0f8"/><stop offset="100%" stop-color="#f5e6d8"/></linearGradient></defs><rect width="1200" height="300" fill="url(#skyGrad)"/>
<rect x="92.0" y="216.9" width="86.3" height="83.1" fill="#aeb0a5"/>
<rect x="107.1" y="202.3" width="56.1" height="14.7" fill="#a5a79d"/>
<rect x="314.3" y="237.3" width="60.6" height="62.7" fill="#aeb0a5"/>
<rect x="324.9" y="226.2" width="39.4" height="11.1" fill="#a5a79d"/>
<rect x="596.6" y="208.0" width="54.3" height="92.0" fill="#aeb0a5"/>
<rect x="606.1" y="191.8" width="35.3" height="16.2" fill="#a5a79d"/>
<rect x="814.3" y="226.6" width="89.9" height="73.4" fill="#aeb0a5"/>
<rect x="1031.4" y="203.7" width="72.4" height="96.3" fill="#aeb0a5"/>
<rect x="1044.0" y="186.7" width="47.1" height="17.0" fill="#a5a79d"/>
<rect x="144.4" y="192.8" width="52.6" height="107.2" fill="#898d7d"/>
<polygon points="144.4,192.8 170.7,179.6 197.0,192.8" fill="#7e8273"/>
<rect x="160.7" y="204.8" width="6" height="8" fill="#b2b5ab" opacity="0.5"/>
<rect x="174.7" y="220.8" width="6" height="8" fill="#b2b5ab" opacity="0.5"/>
<rect x="160.7" y="236.8" width="6" height="8" fill="#b2b5ab" opacity="0.5"/>
<rect x="160.7" y="252.8" width="6" height="8" fill="#b2b5ab" opacity="0.5"/>
<rect x="174.7" y="252.8" width="6" height="8" fill="#b2b5ab" opacity="0.5"/>
<rect x="160.7" y="268.8" width="6" height="8" fill="#b2b5ab" opacity="0.5"/>
<rect x="174.7" y="268.8" width="6" height="8" fill="#b2b5ab" opacity="0.5"/>
<rect x="333.2" y="174.5" width="39.2" height="125.5" fill="#898d7d"/>
<rect x="349.8" y="218.5" width="6" height="8" fill="#b2b5ab" opacity="0.5"/>
<rect x="349.8" y="234.5" width="6" height="8" fill="#b2b5ab" opacity="0.5"/>
<rect x="573.5" y="161.0" width="55.3" height="139.0" fill="#898d7d"/>
<rect x="591.1" y="173.0" width="6" height="8" fill="#b2b5ab" opacity="0.5"/>
<rect x="605.1" y="173.0" width="6" height="8" fill="#b2b5ab" opacity="0.5"/>
<rect x="591.1" y="205.0" width="6" height="8" fill="#b2b5ab" opacity="0.5"/>
<rect x="605.1" y="205.0" width="6" height="8" fill="#b2b5ab" opacity="0.5"/>
<rect x="591.1" y="221.0" width="6" height="8" fill="#b2b5ab" opacity="0.5"/>
<rect x="591.1" y="237.0" width="6" height="8" fill="#b2b5ab" opacity="0.5"/>
<rect x="591.1" y="253.0" width="6" height="8" fill="#b2b5ab" opacity="0.5"/>
<rect x="605.1" y="253.0" width="6" height="8" fill="#b2b5ab" opacity="0.5"/>
<rect x="833.6" y="208.7" width="55.6" height="91.3" fill="#898d7d"/>
<rect x="851.4" y="220.7" width="6" height="8" fill="#b2b5ab" opacity="0.5"/>
<rect x="865.4" y="220.7" width="6" height="8" fill="#b2b5ab" opacity="0.5"/>
<rect x="851.4" y="236.7" width="6" height="8" fill="#b2b5ab" opacity="0.5"/>
<rect x="865.4" y="236.7" width="6" height="8" fill="#b2b5ab" opacity="0.5"/>
<rect x="851.4" y="252.7" width="6" height="8" fill="#b2b5ab" opacity="0.5"/>
<rect x="865.4" y="252.7" width="6" height="8" fill="#b2b5ab" opacity="0.5"/>
<rect x="851.4" y="268.7" width="6" height="8" fill="#b2b5ab" opacity="0.5"/>
<rect x="865.4" y="268.7" width="6" height="8" fill="#b2b5ab" opacity="0.5"/>
<rect x="1048.7" y="180.6" width="78.4" height="119.4" fill="#898d7d"/>
<polygon points="1048.7,180.6 1087.8,161.0 1127.0,180.6" fill="#7e8273"/>
<rect x="1070.8" y="192.6" width="6" height="8" fill="#b2b5ab" opacity="0.5"/>
<rect x="1084.8" y="192.6" width="6" height="8" fill="#b2b5ab" opacity="0.5"/>
<rect x="1098.8" y="192.6" width="6" height="8" fill="#b2b5ab" opacity="0.5"/>
<rect x="1070.8" y="208.6" width="6" height="8" fill="#b2b5ab" opacity="0.5"/>
<rect x="1084.8" y="208.6" width="6" height="8" fill="#b2b5ab" opacity="0.5"/>
<rect x="1070.8" y="224.6" width="6" height="8" fill="#b2b5ab" opacity="0.5"/>
<rect x="1070.8" y="240.6" width="6" height="8" fill="#b2b5ab" opacity="0.5"/>
<rect x="1084.8" y="240.6" width="6" height="8" fill="#b2b5ab" opacity="0.5"/>
<rect x="1070.8" y="256.6" width="6" height="8" fill="#b2b5ab" opacity="0.5"/>
<rect x="1084.8" y="256.6" width="6" height="8" fill="#b2b5ab" opacity="0.5"/>
<rect x="1070.8" y="272.6" width="6" height="8" fill="#b2b5ab" opacity="0.5"/>
<rect x="1084.8" y="272.6" width="6" height="8" fill="#b2b5ab" opacity="0.5"/>
<rect x="1098.8" y="272.6" width="6" height="8" fill="#b2b5ab" opacity="0.5"/>
<rect x="115.0" y="232.6" width="49.7" height="67.4" fill="#6b705c"/>
<rect x="123.7" y="220.7" width="32.3" height="11.9" fill="#666a57"/>
<rect x="143.9" y="232.7" width="6" height="8" fill="#9fa295" opacity="0.5"/>
<rect x="129.9" y="248.7" width="6" height="8" fill="#9fa295" opacity="0.5"/>
<rect x="129.9" y="264.7" width="6" height="8" fill="#9fa295" opacity="0.5"/>
<rect x="143.9" y="264.7" width="6" height="8" fill="#9fa295" opacity="0.5"/>
<rect x="316.2" y="126.8" width="52.9" height="173.2" fill="#6b705c"/>
<rect x="332.6" y="138.8" width="6" height="8" fill="#9fa295" opacity="0.5"/>
<rect x="332.6" y="154.8" width="6" height="8" fill="#9fa295" opacity="0.5"/>
<rect x="346.6" y="154.8" width="6" height="8" fill="#9fa295" opacity="0.5"/>
<rect x="332.6" y="170.8" width="6" height="8" fill="#9fa295" opacity="0.5"/>
<rect x="346.6" y="186.8" width="6" height="8" fill="#9fa295" opacity="0.5"/>
<rect x="332.6" y="202.8" width="6" height="8" fill="#9fa295" opacity="0.5"/>
<rect x="346.6" y="202.8" width="6" height="8" fill="#9fa295" opacity="0.5"/>
<rect x="332.6" y="218.8" width="6" height="8" fill="#9fa295" opacity="0.5"/>
<rect x="346.6" y="218.8" width="6" height="8" fill="#9fa295" opacity="0.5"/>
<rect x="597.4" y="220.3" width="44.2" height="79.7" fill="#6b705c"/>
<rect x="623.5" y="232.3" width="6" height="8" fill="#9fa295" opacity="0.5"/>
<rect x="609.5" y="248.3" width="6" height="8" fill="#9fa295" opacity="0.5"/>
<rect x="609.5" y="264.3" width="6" height="8" fill="#9fa295" opacity="0.5"/>
<rect x="623.5" y="264.3" width="6" height="8" fill="#9fa295" opacity="0.5"/>
<rect x="769.3" y="238.1" width="50.6" height="61.9" fill="#6b705c"/>
<rect x="784.6" y="250.1" width="6" height="8" fill="#9fa295" opacity="0.5"/>
<rect x="784.6" y="266.1" width="6" height="8" fill="#9fa295" opacity="0.5"/>
<rect x="1003.1" y="124.2" width="72.3" height="175.8" fill="#6b705c"/>
<polygon points="1003.1,124.2 1039.2,106.1 1075.4,124.2" fill="#626755"/>
<rect x="1022.2" y="136.2" width="6" height="8" fill="#9fa295" opacity="0.5"/>
<rect x="1036.2" y="136.2" width="6" height="8" fill="#9fa295" opacity="0.5"/>
<rect x="1036.2" y="152.2" width="6" height="8" fill="#9fa295" opacity="0.5"/>
<rect x="1050.2" y="152.2" width="6" height="8" fill="#9fa295" opacity="0.5"/>
<rect x="1022.2" y="168.2" width="6" height="8" fill="#9fa295" opacity="0.5"/>
<rect x="1036.2" y="168.2" width="6" height="8" fill="#9fa295" opacity="0.5"/>
<rect x="1050.2" y="184.2" width="6" height="8" fill="#9fa295" opacity="0.5"/>
<rect x="1050.2" y="200.2" width="6" height="8" fill="#9fa295" opacity="0.5"/>
<rect x="1036.2" y="216.2" width="6" height="8" fill="#9fa295" opacity="0.5"/>
<line x1="240.5" y1="285.0" x2="240.5" y2="269.8" stroke="#6b5a42" stroke-width="3"/>
<circle cx="240.5" cy="256.7" r="13.1" fill="#517e43"/>
<line x1="483.3" y1="285.0" x2="483.3" y2="271.3" stroke="#6b5a42" stroke-width="3"/>
<circle cx="483.3" cy="254.0" r="17.3" fill="#588948"/>
<line x1="705.4" y1="285.0" x2="705.4" y2="271.8" stroke="#6b5a42" stroke-width="3"/>
<circle cx="705.4" cy="255.6" r="16.1" fill="#538144"/>
<line x1="911.5" y1="285.0" x2="911.5" y2="272.0" stroke="#6b5a42" stroke-width="3"/>
<circle cx="911.5" cy="257.1" r="14.8" fill="#578747"/>
<line x1="565.5" y1="285.0" x2="565.5" y2="272.9" stroke="#6b5a42" stroke-width="3"/>
<circle cx="565.5" cy="255.6" r="17.3" fill="#588948"/>
<line x1="956.0" y1="285.0" x2="956.0" y2="270.6" stroke="#6b5a42" stroke-width="3"/>
<circle cx="956.0" cy="254.4" r="16.1" fill="#568647"/>
<line x1="580.4" y1="285.0" x2="580.4" y2="270.9" stroke="#6b5a42" stroke-width="3"/>
<circle cx="580.4" cy="258.1" r="12.9" fill="#578848"/>
<rect x="0" y="285" width="1200" height="15" fill="#d4c5a9" opacity="0.4"/>
<circle cx="1043.3" cy="39.4" r="27.1" fill="#f5e6a0" opacity="0.1"/>
</svg>