<svg xmlns="http://www.w3.org/2000/svg" viewBox="0 0 1200 400" width="1200" height="400">
<defs>
<linearGradient id="bg" x1="0" y1="0" x2="0" y2="1"><stop offset="0%" stop-color="#a16207"/><stop offset="100%" stop-color="#c2410c"/></linearGradient>
<linearGradient id="warm" x1="0" y1="0" x2="1" y2="1"><stop offset="0%" stop-color="#b19461" stop-opacity="0.18"/><stop offset="100%" stop-color="#b19461" stop-opacity="0.06"/></linearGradient>
</defs>
<rect width="1200" height="400" fill="url(#bg)"/>
<path d="M0 400 L0 236.2542430021736 C60.0 234.8, 90.0 220.6, 150.0 225.6 C210.0 217.9, 240.0 239.1, 300.0 229.3 C360.0 229.6, 390.0 229.8, 450.0 223.5 C510.0 224.6, 540.0 237.7, 600.0 241.4 C660.0 236.5, 690.0 254.2, 750.0 254.5 C810.0 246.4, 840.0 235.7, 900.0 239.0 C960.0 245.8, 990.0 223.2, 1050.0 225.5 C1110.0 235.3, 1140.0 259.7, 1200.0 253.8 L1200 400 Z" fill="#b64d0a" opacity="0.45"/>
<path d="M0 400 L0 268.6774893222421 C52.5 273.8, 97.5 260.3, 150.0 255.3 C202.5 259.1, 247.5 252.1, 300.0 258.3 C352.5 264.8, 397.5 256.3, 450.0 261.0 C502.5 266.6, 547.5 261.1, 600.0 253.7 C652.5 253.5, 697.5 258.2, 750.0 255.2 C802.5 248.7, 847.5 260.4, 900.0 266.5 C952.5 259.2, 997.5 254.8, 1050.0 257.2 C1102.5 256.8, 1147.5 259.7, 1200.0 266.2 L1200 400 Z" fill="#c2410c" opacity="0.3"/>
<rect x="525.8" y="349.8" width="39.3" height="50.2" rx="5.3" fill="#65a30d" opacity="0.64"/>
<rect x="714.9" y="271.0" width="45.5" height="129.0" rx="5.5" fill="#77900d" opacity="0.59"/>
<rect x="816.6" y="260.0" width="21.8" height="140.0" rx="3.4" fill="#80870d" opacity="0.55"/>
<rect x="821.6" y="292.0" width="4" height="5" rx="0.5" fill="#a16207" opacity="0.6"/>
<rect x="821.6" y="336.0" width="4" height="5" rx="0.5" fill="#a16207" opacity="0.6"/>
<rect x="960.6" y="275.2" width="23.9" height="124.8" rx="4.8" fill="#996c0c" opacity="0.69"/>
<rect x="965.6" y="285.2" width="4" height="5" rx="0.5" fill="#a16207" opacity="0.6"/>
<rect x="965.6" y="307.2" width="4" height="5" rx="0.5" fill="#a16207" opacity="0.6"/>
<rect x="950.3" y="305.6" width="40.0" height="94.4" rx="5.0" fill="#6e9a0d" opacity="0.59"/>
<rect x="955.3" y="315.6" width="4" height="5" rx="0.5" fill="#a16207" opacity="0.6"/>
<rect x="955.3" y="337.6" width="4" height="5" rx="0.5" fill="#a16207" opacity="0.6"/>
<rect x="968.7" y="359.6" width="4" height="5" rx="0.5" fill="#a16207" opacity="0.6"/>
<rect x="818.1" y="276.8" width="16.2" height="123.2" rx="3.1" fill="#93720d" opacity="0.80"/>
<rect x="823.1" y="286.8" width="4" height="5" rx="0.5" fill="#a16207" opacity="0.6"/>
<rect x="823.1" y="330.8" width="4" height="5" rx="0.5" fill="#a16207" opacity="0.6"/>
<rect x="823.1" y="352.8" width="4" height="5" rx="0.5" fill="#a16207" opacity="0.6"/>
<rect x="198.0" y="351.6" width="32.6" height="48.4" rx="3.3" fill="#66a20d" opacity="0.55"/>
<rect x="618.7" y="315.6" width="48.7" height="84.4" rx="4.6" fill="#86810d" opacity="0.65"/>
<rect x="343.2" y="264.8" width="34.5" height="135.2" rx="7.5" fill="#8c7a0d" opacity="0.72"/>
<rect x="348.2" y="274.8" width="4" height="5" rx="0.5" fill="#a16207" opacity="0.6"/>
<rect x="359.6" y="274.8" width="4" height="5" rx="0.5" fill="#a16207" opacity="0.6"/>
<rect x="348.2" y="296.8" width="4" height="5" rx="0.5" fill="#a16207" opacity="0.6"/>
<rect x="348.2" y="318.8" width="4" height="5" rx="0.5" fill="#a16207" opacity="0.6"/>
<rect x="359.6" y="318.8" width="4" height="5" rx="0.5" fill="#a16207" opacity="0.6"/>
<rect x="348.2" y="340.8" width="4" height="5" rx="0.5" fill="#a16207" opacity="0.6"/>
<rect x="359.6" y="340.8" width="4" height="5" rx="0.5" fill="#a16207" opacity="0.6"/>
<rect x="989.9" y="289.3" width="15.9" height="110.7" rx="6.0" fill="#9c690c" opacity="0.61"/>
<rect x="696.8" y="304.1" width="15.3" height="95.9" rx="7.3" fill="#996c0c" opacity="0.80"/>
<rect x="262.4" y="326.3" width="16.8" height="73.7" rx="7.0" fill="#9a6b0c" opacity="0.76"/>
<rect x="1038.2" y="327.3" width="12.1" height="72.7" rx="3.9" fill="#9a6b0c" opacity="0.74"/>
<rect x="751.9" y="337.1" width="47.6" height="62.9" rx="5.1" fill="#7a8d0d" opacity="0.63"/>
<polygon points="731.9,137.2 724.3,150.4 739.5,150.4" fill="#65a30d" opacity="0.42"/>
<polygon points="24.0,2.9 17.8,13.5 30.1,13.5" fill="#a16207" opacity="0.43"/>
<polygon points="512.6,57.6 503.0,74.2 522.1,74.2" fill="#65a30d" opacity="0.26"/>
<polygon points="1093.1,33.2 1086.2,45.1 1099.9,45.1" fill="#65a30d" opacity="0.24"/>
<rect width="1200" height="400" fill="url(#warm)"/>
<rect width="1200" height="400" fill="#a16207" opacity="0.45"/>
</svg>