<svg xmlns="http://www.w3.org/2000/svg" viewBox="0 0 1200 400" width="1200" height="400">
<defs>
<linearGradient id="bg" x1="0" y1="0" x2="0" y2="1"><stop offset="0%" stop-color="#94a3b8"/><stop offset="100%" stop-color="#0369a1"/></linearGradient>
<linearGradient id="warm" x1="0" y1="0" x2="1" y2="1"><stop offset="0%" stop-color="#bb9555" stop-opacity="0.18"/><stop offset="100%" stop-color="#bb9555" stop-opacity="0.06"/></linearGradient>
</defs>
<rect width="1200" height="400" fill="url(#bg)"/>
<path d="M0 400 L0 245.94860771918252 C60.0 242.8, 90.0 249.3, 150.0 254.7 C210.0 244.8, 240.0 222.7, 300.0 223.1 C360.0 219.1, 390.0 230.7, 450.0 226.3 C510.0 229.6, 540.0 229.5, 600.0 238.4 C660.0 242.4, 690.0 235.2, 750.0 243.1 C810.0 252.3, 840.0 262.4, 900.0 254.4 C960.0 263.8, 990.0 223.7, 1050.0 233.6 C1110.0 226.1, 1140.0 213.8, 1200.0 223.4 L1200 400 Z" fill="#367da9" opacity="0.45"/>
<path d="M0 400 L0 259.03440668871474 C52.5 262.1, 97.5 279.4, 150.0 277.8 C202.5 280.3, 247.5 268.3, 300.0 269.2 C352.5 275.8, 397.5 263.6, 450.0 260.4 C502.5 260.1, 547.5 264.1, 600.0 257.9 C652.5 259.3, 697.5 261.0, 750.0 262.8 C802.5 258.1, 847.5 280.3, 900.0 278.1 C952.5 280.3, 997.5 250.7, 1050.0 255.8 C1102.5 249.5, 1147.5 262.9, 1200.0 257.4 L1200 400 Z" fill="#0369a1" opacity="0.3"/>
<rect x="601.6" y="294.1" width="19.7" height="105.9" rx="7.8" fill="#048380" opacity="0.59"/>
<rect x="502.8" y="355.8" width="41.0" height="44.2" rx="4.1" fill="#059071" opacity="0.81"/>
<rect x="887.3" y="361.7" width="19.6" height="38.3" rx="6.1" fill="#04877b" opacity="0.57"/>
<rect x="882.0" y="287.8" width="32.0" height="112.2" rx="3.9" fill="#05956a" opacity="0.58"/>
<rect x="939.8" y="305.3" width="43.1" height="94.7" rx="6.2" fill="#04857e" opacity="0.68"/>
<rect x="944.8" y="315.3" width="4" height="5" rx="0.5" fill="#94a3b8" opacity="0.6"/>
<rect x="959.2" y="315.3" width="4" height="5" rx="0.5" fill="#94a3b8" opacity="0.6"/>
<rect x="944.8" y="337.3" width="4" height="5" rx="0.5" fill="#94a3b8" opacity="0.6"/>
<rect x="944.8" y="359.3" width="4" height="5" rx="0.5" fill="#94a3b8" opacity="0.6"/>
<rect x="959.2" y="359.3" width="4" height="5" rx="0.5" fill="#94a3b8" opacity="0.6"/>
<rect x="663.1" y="311.2" width="17.2" height="88.8" rx="4.1" fill="#048a78" opacity="0.52"/>
<rect x="883.8" y="264.4" width="13.6" height="135.6" rx="5.2" fill="#058d75" opacity="0.68"/>
<rect x="371.7" y="354.4" width="22.0" height="45.6" rx="6.7" fill="#05936d" opacity="0.70"/>
<rect x="697.7" y="279.2" width="13.8" height="120.8" rx="6.3" fill="#05926e" opacity="0.67"/>
<rect x="702.7" y="289.2" width="4" height="5" rx="0.5" fill="#94a3b8" opacity="0.6"/>
<rect x="702.7" y="311.2" width="4" height="5" rx="0.5" fill="#94a3b8" opacity="0.6"/>
<rect x="702.7" y="355.2" width="4" height="5" rx="0.5" fill="#94a3b8" opacity="0.6"/>
<rect x="796.8" y="274.7" width="43.2" height="125.3" rx="7.6" fill="#05956a" opacity="0.84"/>
<rect x="776.2" y="280.9" width="36.4" height="119.1" rx="4.0" fill="#05936c" opacity="0.74"/>
<rect x="793.3" y="290.9" width="4" height="5" rx="0.5" fill="#94a3b8" opacity="0.6"/>
<rect x="781.2" y="334.9" width="4" height="5" rx="0.5" fill="#94a3b8" opacity="0.6"/>
<rect x="781.2" y="356.9" width="4" height="5" rx="0.5" fill="#94a3b8" opacity="0.6"/>
<rect x="793.3" y="356.9" width="4" height="5" rx="0.5" fill="#94a3b8" opacity="0.6"/>
<rect x="136.8" y="326.5" width="33.7" height="73.5" rx="5.2" fill="#04867d" opacity="0.66"/>
<rect x="491.4" y="263.3" width="40.2" height="136.7" rx="6.4" fill="#05936c" opacity="0.78"/>
<rect x="773.3" y="285.3" width="38.9" height="114.7" rx="6.0" fill="#04877c" opacity="0.53"/>
<circle cx="965.5" cy="182.4" r="11.8" fill="#94a3b8" opacity="0.43"/>
<circle cx="455.8" cy="148.3" r="5.6" fill="#94a3b8" opacity="0.34"/>
<circle cx="715.5" cy="74.3" r="8.5" fill="#059669" opacity="0.25"/>
<rect width="1200" height="400" fill="url(#warm)"/>
<rect width="1200" height="400" fill="#94a3b8" opacity="0.45"/>
</svg>