<svg xmlns="http://www.w3.org/2000/svg" viewBox="0 0 1200 300" width="1200" height="300">
<defs><linearGradient id="skyGrad" x1="0" y1="0" x2="0" y2="1"><stop offset="0%" stop-color="#e8f0f8"/><stop offset="100%" stop-color="#f5e6d8"/></linearGradient></defs><rect width="1200" height="300" fill="url(#skyGrad)"/>
<rect x="96.9" y="238.0" width="87.5" height="62.0" fill="#8aabb4"/>
<rect x="112.3" y="227.1" width="56.9" height="10.9" fill="#83a2ab"/>
<rect x="437.1" y="177.2" width="66.4" height="122.8" fill="#8aabb4"/>
<polygon points="437.1,177.2 470.3,160.6 503.5,177.2" fill="#7f9da6"/>
<rect x="681.3" y="218.0" width="60.2" height="82.0" fill="#8aabb4"/>
<rect x="959.6" y="208.7" width="51.5" height="91.3" fill="#8aabb4"/>
<rect x="135.0" y="163.4" width="48.6" height="136.6" fill="#558592"/>
<polygon points="135.0,163.4 159.3,151.3 183.6,163.4" fill="#4e7a86"/>
<rect x="163.3" y="175.4" width="6" height="8" fill="#91b0b8" opacity="0.5"/>
<rect x="163.3" y="191.4" width="6" height="8" fill="#91b0b8" opacity="0.5"/>
<rect x="149.3" y="207.4" width="6" height="8" fill="#91b0b8" opacity="0.5"/>
<rect x="163.3" y="207.4" width="6" height="8" fill="#91b0b8" opacity="0.5"/>
<rect x="149.3" y="223.4" width="6" height="8" fill="#91b0b8" opacity="0.5"/>
<rect x="163.3" y="239.4" width="6" height="8" fill="#91b0b8" opacity="0.5"/>
<rect x="163.3" y="255.4" width="6" height="8" fill="#91b0b8" opacity="0.5"/>
<rect x="366.9" y="213.0" width="37.5" height="87.0" fill="#558592"/>
<polygon points="366.9,213.0 385.6,203.7 404.3,213.0" fill="#4e7a86"/>
<rect x="382.6" y="241.0" width="6" height="8" fill="#91b0b8" opacity="0.5"/>
<rect x="588.5" y="136.8" width="78.3" height="163.2" fill="#558592"/>
<rect x="610.6" y="148.8" width="6" height="8" fill="#91b0b8" opacity="0.5"/>
<rect x="624.6" y="148.8" width="6" height="8" fill="#91b0b8" opacity="0.5"/>
<rect x="610.6" y="164.8" width="6" height="8" fill="#91b0b8" opacity="0.5"/>
<rect x="624.6" y="164.8" width="6" height="8" fill="#91b0b8" opacity="0.5"/>
<rect x="638.6" y="164.8" width="6" height="8" fill="#91b0b8" opacity="0.5"/>
<rect x="624.6" y="196.8" width="6" height="8" fill="#91b0b8" opacity="0.5"/>
<rect x="638.6" y="196.8" width="6" height="8" fill="#91b0b8" opacity="0.5"/>
<rect x="610.6" y="212.8" width="6" height="8" fill="#91b0b8" opacity="0.5"/>
<rect x="624.6" y="212.8" width="6" height="8" fill="#91b0b8" opacity="0.5"/>
<rect x="638.6" y="212.8" width="6" height="8" fill="#91b0b8" opacity="0.5"/>
<rect x="610.6" y="228.8" width="6" height="8" fill="#91b0b8" opacity="0.5"/>
<rect x="624.6" y="228.8" width="6" height="8" fill="#91b0b8" opacity="0.5"/>
<rect x="638.6" y="228.8" width="6" height="8" fill="#91b0b8" opacity="0.5"/>
<rect x="784.7" y="220.2" width="35.0" height="79.8" fill="#558592"/>
<rect x="799.2" y="232.2" width="6" height="8" fill="#91b0b8" opacity="0.5"/>
<rect x="799.2" y="264.2" width="6" height="8" fill="#91b0b8" opacity="0.5"/>
<rect x="1065.2" y="171.5" width="38.8" height="128.5" fill="#558592"/>
<rect x="1081.6" y="199.5" width="6" height="8" fill="#91b0b8" opacity="0.5"/>
<rect x="1081.6" y="215.5" width="6" height="8" fill="#91b0b8" opacity="0.5"/>
<rect x="1081.6" y="247.5" width="6" height="8" fill="#91b0b8" opacity="0.5"/>
<rect x="98.2" y="219.0" width="39.9" height="81.0" fill="#2b6777"/>
<rect x="105.2" y="204.7" width="26.0" height="14.3" fill="#296271"/>
<rect x="115.1" y="232.7" width="6" height="8" fill="#759ca7" opacity="0.5"/>
<rect x="115.1" y="248.7" width="6" height="8" fill="#759ca7" opacity="0.5"/>
<rect x="115.1" y="264.7" width="6" height="8" fill="#759ca7" opacity="0.5"/>
<rect x="304.4" y="245.7" width="71.9" height="54.3" fill="#2b6777"/>
<rect x="317.0" y="236.1" width="46.7" height="9.6" fill="#296271"/>
<rect x="323.3" y="248.1" width="6" height="8" fill="#759ca7" opacity="0.5"/>
<rect x="351.3" y="264.1" width="6" height="8" fill="#759ca7" opacity="0.5"/>
<rect x="576.5" y="154.1" width="61.7" height="145.9" fill="#2b6777"/>
<polygon points="576.5,154.1 607.4,138.7 638.2,154.1" fill="#285f6d"/>
<rect x="590.4" y="166.1" width="6" height="8" fill="#759ca7" opacity="0.5"/>
<rect x="618.4" y="166.1" width="6" height="8" fill="#759ca7" opacity="0.5"/>
<rect x="590.4" y="182.1" width="6" height="8" fill="#759ca7" opacity="0.5"/>
<rect x="604.4" y="182.1" width="6" height="8" fill="#759ca7" opacity="0.5"/>
<rect x="590.4" y="198.1" width="6" height="8" fill="#759ca7" opacity="0.5"/>
<rect x="604.4" y="198.1" width="6" height="8" fill="#759ca7" opacity="0.5"/>
<rect x="618.4" y="198.1" width="6" height="8" fill="#759ca7" opacity="0.5"/>
<rect x="590.4" y="214.1" width="6" height="8" fill="#759ca7" opacity="0.5"/>
<rect x="618.4" y="214.1" width="6" height="8" fill="#759ca7" opacity="0.5"/>
<rect x="590.4" y="230.1" width="6" height="8" fill="#759ca7" opacity="0.5"/>
<rect x="604.4" y="230.1" width="6" height="8" fill="#759ca7" opacity="0.5"/>
<rect x="618.4" y="230.1" width="6" height="8" fill="#759ca7" opacity="0.5"/>
<rect x="590.4" y="246.1" width="6" height="8" fill="#759ca7" opacity="0.5"/>
<rect x="618.4" y="246.1" width="6" height="8" fill="#759ca7" opacity="0.5"/>
<rect x="833.0" y="146.8" width="49.7" height="153.2" fill="#2b6777"/>
<rect x="847.8" y="158.8" width="6" height="8" fill="#759ca7" opacity="0.5"/>
<rect x="861.8" y="158.8" width="6" height="8" fill="#759ca7" opacity="0.5"/>
<rect x="847.8" y="174.8" width="6" height="8" fill="#759ca7" opacity="0.5"/>
<rect x="861.8" y="190.8" width="6" height="8" fill="#759ca7" opacity="0.5"/>
<rect x="847.8" y="206.8" width="6" height="8" fill="#759ca7" opacity="0.5"/>
<rect x="847.8" y="222.8" width="6" height="8" fill="#759ca7" opacity="0.5"/>
<rect x="847.8" y="238.8" width="6" height="8" fill="#759ca7" opacity="0.5"/>
<rect x="861.8" y="238.8" width="6" height="8" fill="#759ca7" opacity="0.5"/>
<rect x="1058.4" y="164.5" width="51.7" height="135.5" fill="#2b6777"/>
<polygon points="1058.4,164.5 1084.2,151.6 1110.1,164.5" fill="#285f6d"/>
<rect x="1074.2" y="176.5" width="6" height="8" fill="#759ca7" opacity="0.5"/>
<rect x="1088.2" y="176.5" width="6" height="8" fill="#759ca7" opacity="0.5"/>
<rect x="1074.2" y="192.5" width="6" height="8" fill="#759ca7" opacity="0.5"/>
<rect x="1088.2" y="192.5" width="6" height="8" fill="#759ca7" opacity="0.5"/>
<rect x="1088.2" y="208.5" width="6" height="8" fill="#759ca7" opacity="0.5"/>
<rect x="1074.2" y="224.5" width="6" height="8" fill="#759ca7" opacity="0.5"/>
<rect x="1088.2" y="224.5" width="6" height="8" fill="#759ca7" opacity="0.5"/>
<rect x="1074.2" y="240.5" width="6" height="8" fill="#759ca7" opacity="0.5"/>
<rect x="1088.2" y="240.5" width="6" height="8" fill="#759ca7" opacity="0.5"/>
<rect x="1074.2" y="256.5" width="6" height="8" fill="#759ca7" opacity="0.5"/>
<rect x="1088.2" y="256.5" width="6" height="8" fill="#759ca7" opacity="0.5"/>
<path d="M221.2 285.0 Q239.8 257.1 234.2 229.2" fill="none" stroke="#7c674c" stroke-width="3"/>
<path d="M234.2 229.2 Q221.5 219.6 213.0 219.9" fill="none" stroke="#44813a" stroke-width="2.5"/>
<path d="M234.2 229.2 Q238.9 217.0 242.0 214.8" fill="none" stroke="#44813a" stroke-width="2.5"/>
<path d="M234.2 229.2 Q249.1 224.2 259.1 229.2" fill="none" stroke="#44813a" stroke-width="2.5"/>
<path d="M234.2 229.2 Q237.7 229.6 240.1 240.0" fill="none" stroke="#44813a" stroke-width="2.5"/>
<path d="M234.2 229.2 Q224.3 227.8 217.8 236.3" fill="none" stroke="#44813a" stroke-width="2.5"/>
<path d="M476.4 285.0 Q502.8 257.0 494.9 228.9" fill="none" stroke="#776249" stroke-width="3"/>
<path d="M494.9 228.9 Q480.8 218.8 471.5 218.7" fill="none" stroke="#437f39" stroke-width="2.5"/>
<path d="M494.9 228.9 Q499.1 217.5 501.9 216.0" fill="none" stroke="#437f39" stroke-width="2.5"/>
<path d="M494.9 228.9 Q510.1 223.9 520.3 228.9" fill="none" stroke="#437f39" stroke-width="2.5"/>
<path d="M494.9 228.9 Q498.9 230.0 501.5 241.1" fill="none" stroke="#437f39" stroke-width="2.5"/>
<path d="M494.9 228.9 Q482.4 228.4 474.1 238.0" fill="none" stroke="#437f39" stroke-width="2.5"/>
<path d="M735.6 285.0 Q759.5 257.1 752.4 229.2" fill="none" stroke="#856e51" stroke-width="3"/>
<path d="M752.4 229.2 Q741.7 220.3 734.6 221.4" fill="none" stroke="#45833b" stroke-width="2.5"/>
<path d="M752.4 229.2 Q756.3 218.2 758.9 217.2" fill="none" stroke="#45833b" stroke-width="2.5"/>
<path d="M752.4 229.2 Q764.7 224.2 772.9 229.2" fill="none" stroke="#45833b" stroke-width="2.5"/>
<path d="M752.4 229.2 Q757.1 231.5 760.3 243.9" fill="none" stroke="#45833b" stroke-width="2.5"/>
<path d="M752.4 229.2 Q741.9 228.0 735.0 236.8" fill="none" stroke="#45833b" stroke-width="2.5"/>
<path d="M970.5 285.0 Q989.6 262.9 983.9 240.9" fill="none" stroke="#806a4e" stroke-width="3"/>
<path d="M983.9 240.9 Q971.9 231.5 963.9 232.2" fill="none" stroke="#44813a" stroke-width="2.5"/>
<path d="M983.9 240.9 Q989.2 227.7 992.7 224.6" fill="none" stroke="#44813a" stroke-width="2.5"/>
<path d="M983.9 240.9 Q1000.2 235.9 1011.1 240.9" fill="none" stroke="#44813a" stroke-width="2.5"/>
<path d="M983.9 240.9 Q988.5 243.0 991.6 255.2" fill="none" stroke="#44813a" stroke-width="2.5"/>
<path d="M983.9 240.9 Q970.1 240.9 961.0 250.8" fill="none" stroke="#44813a" stroke-width="2.5"/>
<rect x="0" y="285" width="1200" height="15" fill="#d4c5a9" opacity="0.4"/>
<circle cx="999.5" cy="25.4" r="39.8" fill="#f5e6a0" opacity="0.1"/>
</svg>