<svg xmlns="http://www.w3.org/2000/svg" viewBox="0 0 1200 300" width="1200" height="300">
<rect width="1200" height="300" fill="#ede8e0"/>
<path d="M0 300 L0 210.0 C188.7 188.7, 964.2 192.7, 1200 210.0 L1200 300 Z" fill="#c4c6be" opacity="0.3"/>
<rect x="159.0" y="183.4" width="65.2" height="116.6" fill="#aeb0a5"/>
<rect x="412.2" y="205.8" width="83.4" height="94.2" fill="#aeb0a5"/>
<rect x="700.9" y="237.1" width="87.5" height="62.9" fill="#aeb0a5"/>
<rect x="982.2" y="201.4" width="56.9" height="98.6" fill="#aeb0a5"/>
<rect x="183.8" y="190.9" width="37.0" height="109.1" fill="#898d7d"/>
<rect x="199.3" y="202.9" width="6" height="8" fill="#b2b5ab" opacity="0.5"/>
<rect x="199.3" y="218.9" width="6" height="8" fill="#b2b5ab" opacity="0.5"/>
<rect x="199.3" y="250.9" width="6" height="8" fill="#b2b5ab" opacity="0.5"/>
<rect x="199.3" y="266.9" width="6" height="8" fill="#b2b5ab" opacity="0.5"/>
<rect x="430.6" y="175.2" width="59.7" height="124.8" fill="#898d7d"/>
<rect x="457.4" y="187.2" width="6" height="8" fill="#b2b5ab" opacity="0.5"/>
<rect x="471.4" y="187.2" width="6" height="8" fill="#b2b5ab" opacity="0.5"/>
<rect x="457.4" y="203.2" width="6" height="8" fill="#b2b5ab" opacity="0.5"/>
<rect x="443.4" y="219.2" width="6" height="8" fill="#b2b5ab" opacity="0.5"/>
<rect x="457.4" y="219.2" width="6" height="8" fill="#b2b5ab" opacity="0.5"/>
<rect x="443.4" y="235.2" width="6" height="8" fill="#b2b5ab" opacity="0.5"/>
<rect x="457.4" y="235.2" width="6" height="8" fill="#b2b5ab" opacity="0.5"/>
<rect x="471.4" y="235.2" width="6" height="8" fill="#b2b5ab" opacity="0.5"/>
<rect x="443.4" y="251.2" width="6" height="8" fill="#b2b5ab" opacity="0.5"/>
<rect x="457.4" y="251.2" width="6" height="8" fill="#b2b5ab" opacity="0.5"/>
<rect x="471.4" y="251.2" width="6" height="8" fill="#b2b5ab" opacity="0.5"/>
<rect x="443.4" y="267.2" width="6" height="8" fill="#b2b5ab" opacity="0.5"/>
<rect x="457.4" y="267.2" width="6" height="8" fill="#b2b5ab" opacity="0.5"/>
<rect x="736.8" y="156.7" width="41.7" height="143.3" fill="#898d7d"/>
<rect x="754.7" y="168.7" width="6" height="8" fill="#b2b5ab" opacity="0.5"/>
<rect x="754.7" y="200.7" width="6" height="8" fill="#b2b5ab" opacity="0.5"/>
<rect x="754.7" y="216.7" width="6" height="8" fill="#b2b5ab" opacity="0.5"/>
<rect x="754.7" y="232.7" width="6" height="8" fill="#b2b5ab" opacity="0.5"/>
<rect x="754.7" y="248.7" width="6" height="8" fill="#b2b5ab" opacity="0.5"/>
<rect x="754.7" y="264.7" width="6" height="8" fill="#b2b5ab" opacity="0.5"/>
<rect x="967.3" y="156.2" width="42.7" height="143.8" fill="#898d7d"/>
<rect x="985.6" y="184.2" width="6" height="8" fill="#b2b5ab" opacity="0.5"/>
<rect x="985.6" y="200.2" width="6" height="8" fill="#b2b5ab" opacity="0.5"/>
<rect x="985.6" y="232.2" width="6" height="8" fill="#b2b5ab" opacity="0.5"/>
<rect x="985.6" y="248.2" width="6" height="8" fill="#b2b5ab" opacity="0.5"/>
<rect x="985.6" y="264.2" width="6" height="8" fill="#b2b5ab" opacity="0.5"/>
<rect x="143.9" y="155.4" width="33.6" height="144.6" fill="#6b705c"/>
<rect x="157.7" y="167.4" width="6" height="8" fill="#9fa295" opacity="0.5"/>
<rect x="157.7" y="215.4" width="6" height="8" fill="#9fa295" opacity="0.5"/>
<rect x="157.7" y="231.4" width="6" height="8" fill="#9fa295" opacity="0.5"/>
<rect x="157.7" y="247.4" width="6" height="8" fill="#9fa295" opacity="0.5"/>
<rect x="157.7" y="263.4" width="6" height="8" fill="#9fa295" opacity="0.5"/>
<rect x="458.7" y="238.0" width="63.5" height="62.0" fill="#6b705c"/>
<rect x="487.4" y="250.0" width="6" height="8" fill="#9fa295" opacity="0.5"/>
<rect x="501.4" y="250.0" width="6" height="8" fill="#9fa295" opacity="0.5"/>
<rect x="473.4" y="266.0" width="6" height="8" fill="#9fa295" opacity="0.5"/>
<rect x="501.4" y="266.0" width="6" height="8" fill="#9fa295" opacity="0.5"/>
<rect x="742.1" y="185.1" width="49.2" height="114.9" fill="#6b705c"/>
<rect x="756.7" y="197.1" width="6" height="8" fill="#9fa295" opacity="0.5"/>
<rect x="756.7" y="213.1" width="6" height="8" fill="#9fa295" opacity="0.5"/>
<rect x="756.7" y="229.1" width="6" height="8" fill="#9fa295" opacity="0.5"/>
<rect x="770.7" y="229.1" width="6" height="8" fill="#9fa295" opacity="0.5"/>
<rect x="756.7" y="245.1" width="6" height="8" fill="#9fa295" opacity="0.5"/>
<rect x="770.7" y="245.1" width="6" height="8" fill="#9fa295" opacity="0.5"/>
<rect x="756.7" y="261.1" width="6" height="8" fill="#9fa295" opacity="0.5"/>
<rect x="1015.0" y="232.8" width="69.6" height="67.2" fill="#6b705c"/>
<rect x="1046.8" y="244.8" width="6" height="8" fill="#9fa295" opacity="0.5"/>
<rect x="1032.8" y="260.8" width="6" height="8" fill="#9fa295" opacity="0.5"/>
<rect x="1046.8" y="260.8" width="6" height="8" fill="#9fa295" opacity="0.5"/>
<rect x="1060.8" y="260.8" width="6" height="8" fill="#9fa295" opacity="0.5"/>
<rect x="0" y="298" width="1200" height="2" fill="#606553" opacity="0.15"/>
</svg>