<svg xmlns="http://www.w3.org/2000/svg" viewBox="0 0 1200 300" width="1200" height="300">
<defs><linearGradient id="skyGrad" x1="0" y1="0" x2="0" y2="1"><stop offset="0%" stop-color="#e8f0f8"/><stop offset="100%" stop-color="#f5e6d8"/></linearGradient></defs><rect width="1200" height="300" fill="url(#skyGrad)"/>
<rect x="111.7" y="205.7" width="42.2" height="94.3" fill="#aeb0a5"/>
<rect x="119.1" y="189.1" width="27.5" height="16.6" fill="#a5a79d"/>
<rect x="428.7" y="192.2" width="58.3" height="107.8" fill="#aeb0a5"/>
<rect x="732.6" y="210.2" width="82.6" height="89.8" fill="#aeb0a5"/>
<rect x="1032.9" y="205.7" width="66.2" height="94.3" fill="#aeb0a5"/>
<polygon points="1032.9,205.7 1066.0,189.1 1099.1,205.7" fill="#a0a298"/>
<rect x="139.7" y="211.1" width="37.9" height="88.9" fill="#898d7d"/>
<rect x="146.4" y="195.4" width="24.6" height="15.7" fill="#828677"/>
<rect x="155.7" y="207.4" width="6" height="8" fill="#b2b5ab" opacity="0.5"/>
<rect x="155.7" y="239.4" width="6" height="8" fill="#b2b5ab" opacity="0.5"/>
<rect x="155.7" y="255.4" width="6" height="8" fill="#b2b5ab" opacity="0.5"/>
<rect x="387.8" y="147.6" width="61.5" height="152.4" fill="#898d7d"/>
<rect x="429.5" y="159.6" width="6" height="8" fill="#b2b5ab" opacity="0.5"/>
<rect x="415.5" y="175.6" width="6" height="8" fill="#b2b5ab" opacity="0.5"/>
<rect x="429.5" y="175.6" width="6" height="8" fill="#b2b5ab" opacity="0.5"/>
<rect x="415.5" y="191.6" width="6" height="8" fill="#b2b5ab" opacity="0.5"/>
<rect x="401.5" y="207.6" width="6" height="8" fill="#b2b5ab" opacity="0.5"/>
<rect x="415.5" y="207.6" width="6" height="8" fill="#b2b5ab" opacity="0.5"/>
<rect x="429.5" y="207.6" width="6" height="8" fill="#b2b5ab" opacity="0.5"/>
<rect x="401.5" y="223.6" width="6" height="8" fill="#b2b5ab" opacity="0.5"/>
<rect x="415.5" y="223.6" width="6" height="8" fill="#b2b5ab" opacity="0.5"/>
<rect x="429.5" y="223.6" width="6" height="8" fill="#b2b5ab" opacity="0.5"/>
<rect x="415.5" y="239.6" width="6" height="8" fill="#b2b5ab" opacity="0.5"/>
<rect x="721.2" y="193.9" width="51.0" height="106.1" fill="#898d7d"/>
<rect x="730.1" y="175.2" width="33.1" height="18.7" fill="#828677"/>
<rect x="736.6" y="187.2" width="6" height="8" fill="#b2b5ab" opacity="0.5"/>
<rect x="736.6" y="203.2" width="6" height="8" fill="#b2b5ab" opacity="0.5"/>
<rect x="750.6" y="203.2" width="6" height="8" fill="#b2b5ab" opacity="0.5"/>
<rect x="750.6" y="219.2" width="6" height="8" fill="#b2b5ab" opacity="0.5"/>
<rect x="736.6" y="235.2" width="6" height="8" fill="#b2b5ab" opacity="0.5"/>
<rect x="736.6" y="251.2" width="6" height="8" fill="#b2b5ab" opacity="0.5"/>
<rect x="736.6" y="267.2" width="6" height="8" fill="#b2b5ab" opacity="0.5"/>
<rect x="750.6" y="267.2" width="6" height="8" fill="#b2b5ab" opacity="0.5"/>
<rect x="968.1" y="162.6" width="59.0" height="137.4" fill="#898d7d"/>
<polygon points="968.1,162.6 997.6,147.8 1027.0,162.6" fill="#7e8273"/>
<rect x="994.6" y="174.6" width="6" height="8" fill="#b2b5ab" opacity="0.5"/>
<rect x="1008.6" y="174.6" width="6" height="8" fill="#b2b5ab" opacity="0.5"/>
<rect x="980.6" y="190.6" width="6" height="8" fill="#b2b5ab" opacity="0.5"/>
<rect x="994.6" y="190.6" width="6" height="8" fill="#b2b5ab" opacity="0.5"/>
<rect x="980.6" y="206.6" width="6" height="8" fill="#b2b5ab" opacity="0.5"/>
<rect x="994.6" y="206.6" width="6" height="8" fill="#b2b5ab" opacity="0.5"/>
<rect x="1008.6" y="206.6" width="6" height="8" fill="#b2b5ab" opacity="0.5"/>
<rect x="994.6" y="222.6" width="6" height="8" fill="#b2b5ab" opacity="0.5"/>
<rect x="1008.6" y="222.6" width="6" height="8" fill="#b2b5ab" opacity="0.5"/>
<rect x="980.6" y="254.6" width="6" height="8" fill="#b2b5ab" opacity="0.5"/>
<rect x="994.6" y="254.6" width="6" height="8" fill="#b2b5ab" opacity="0.5"/>
<rect x="1008.6" y="254.6" width="6" height="8" fill="#b2b5ab" opacity="0.5"/>
<rect x="112.7" y="244.6" width="63.5" height="55.4" fill="#6b705c"/>
<polygon points="112.7,244.6 144.4,228.7 176.2,244.6" fill="#626755"/>
<rect x="389.8" y="198.3" width="63.8" height="101.7" fill="#6b705c"/>
<rect x="432.6" y="210.3" width="6" height="8" fill="#9fa295" opacity="0.5"/>
<rect x="418.6" y="226.3" width="6" height="8" fill="#9fa295" opacity="0.5"/>
<rect x="432.6" y="226.3" width="6" height="8" fill="#9fa295" opacity="0.5"/>
<rect x="404.6" y="242.3" width="6" height="8" fill="#9fa295" opacity="0.5"/>
<rect x="418.6" y="242.3" width="6" height="8" fill="#9fa295" opacity="0.5"/>
<rect x="432.6" y="242.3" width="6" height="8" fill="#9fa295" opacity="0.5"/>
<rect x="432.6" y="258.3" width="6" height="8" fill="#9fa295" opacity="0.5"/>
<rect x="733.6" y="121.8" width="59.5" height="178.2" fill="#6b705c"/>
<rect x="760.3" y="133.8" width="6" height="8" fill="#9fa295" opacity="0.5"/>
<rect x="774.3" y="133.8" width="6" height="8" fill="#9fa295" opacity="0.5"/>
<rect x="760.3" y="149.8" width="6" height="8" fill="#9fa295" opacity="0.5"/>
<rect x="774.3" y="149.8" width="6" height="8" fill="#9fa295" opacity="0.5"/>
<rect x="774.3" y="165.8" width="6" height="8" fill="#9fa295" opacity="0.5"/>
<rect x="774.3" y="181.8" width="6" height="8" fill="#9fa295" opacity="0.5"/>
<rect x="774.3" y="197.8" width="6" height="8" fill="#9fa295" opacity="0.5"/>
<rect x="774.3" y="213.8" width="6" height="8" fill="#9fa295" opacity="0.5"/>
<rect x="1004.2" y="136.7" width="34.1" height="163.3" fill="#6b705c"/>
<polygon points="1004.2,136.7 1021.3,128.2 1038.3,136.7" fill="#626755"/>
<rect x="1018.3" y="164.7" width="6" height="8" fill="#9fa295" opacity="0.5"/>
<rect x="1018.3" y="180.7" width="6" height="8" fill="#9fa295" opacity="0.5"/>
<rect x="1018.3" y="196.7" width="6" height="8" fill="#9fa295" opacity="0.5"/>
<line x1="283.0" y1="285.0" x2="283.0" y2="271.0" stroke="#6b5a42" stroke-width="3"/>
<circle cx="283.0" cy="257.9" r="13.2" fill="#507c42"/>
<line x1="593.5" y1="285.0" x2="593.5" y2="272.8" stroke="#6b5a42" stroke-width="3"/>
<circle cx="593.5" cy="258.8" r="14.0" fill="#517f43"/>
<line x1="898.7" y1="285.0" x2="898.7" y2="270.9" stroke="#6b5a42" stroke-width="3"/>
<circle cx="898.7" cy="253.0" r="17.9" fill="#548345"/>
<line x1="735.6" y1="285.0" x2="735.6" y2="269.9" stroke="#6b5a42" stroke-width="3"/>
<circle cx="735.6" cy="257.5" r="12.4" fill="#527f43"/>
<line x1="307.0" y1="285.0" x2="307.0" y2="273.3" stroke="#6b5a42" stroke-width="3"/>
<circle cx="307.0" cy="258.2" r="15.0" fill="#528044"/>
<line x1="551.2" y1="285.0" x2="551.2" y2="274.7" stroke="#6b5a42" stroke-width="3"/>
<circle cx="551.2" cy="258.8" r="15.9" fill="#568546"/>
<line x1="1083.2" y1="285.0" x2="1083.2" y2="271.1" stroke="#6b5a42" stroke-width="3"/>
<circle cx="1083.2" cy="254.6" r="16.6" fill="#588948"/>
<line x1="673.9" y1="285.0" x2="673.9" y2="274.6" stroke="#6b5a42" stroke-width="3"/>
<circle cx="673.9" cy="260.3" r="14.3" fill="#588948"/>
<rect x="0" y="285" width="1200" height="15" fill="#d4c5a9" opacity="0.4"/>
<circle cx="1049.5" cy="40.5" r="38.6" fill="#f5e6a0" opacity="0.1"/>
</svg>