<svg xmlns="http://www.w3.org/2000/svg" viewBox="0 0 1200 400" width="1200" height="400">
<defs>
<linearGradient id="bg" x1="0" y1="0" x2="0" y2="1"><stop offset="0%" stop-color="#d4a76a"/><stop offset="100%" stop-color="#ea580c"/></linearGradient>
<linearGradient id="warm" x1="0" y1="0" x2="1" y2="1"><stop offset="0%" stop-color="#979082" stop-opacity="0.18"/><stop offset="100%" stop-color="#979082" stop-opacity="0.06"/></linearGradient>
</defs>
<rect width="1200" height="400" fill="url(#bg)"/>
<path d="M0 400 L0 220.51236299589223 C60.0 220.2, 90.0 220.0, 150.0 221.5 C210.0 220.8, 240.0 234.2, 300.0 243.4 C360.0 235.7, 390.0 242.0, 450.0 248.2 C510.0 241.5, 540.0 232.5, 600.0 236.2 C660.0 233.5, 690.0 251.1, 750.0 247.2 C810.0 241.6, 840.0 206.3, 900.0 210.5 C960.0 220.2, 990.0 219.3, 1050.0 214.5 C1110.0 219.3, 1140.0 219.0, 1200.0 210.2 L1200 400 Z" fill="#e2742d" opacity="0.45"/>
<path d="M0 400 L0 265.4609939388314 C52.5 264.0, 97.5 253.8, 150.0 246.6 C202.5 243.7, 247.5 274.6, 300.0 270.4 C352.5 270.4, 397.5 256.7, 450.0 263.7 C502.5 268.0, 547.5 256.1, 600.0 250.9 C652.5 244.7, 697.5 273.0, 750.0 270.3 C802.5 277.6, 847.5 274.1, 900.0 268.7 C952.5 265.6, 997.5 249.0, 1050.0 246.8 C1102.5 247.4, 1147.5 264.6, 1200.0 259.8 L1200 400 Z" fill="#ea580c" opacity="0.3"/>
<rect x="1023.5" y="343.2" width="27.7" height="56.8" rx="7.6" fill="#6f7767" opacity="0.82"/>
<rect x="692.0" y="326.9" width="46.1" height="73.1" rx="3.9" fill="#847257" opacity="0.74"/>
<rect x="958.1" y="287.4" width="46.2" height="112.6" rx="4.5" fill="#0991b1" opacity="0.76"/>
<rect x="271.9" y="256.7" width="45.3" height="143.3" rx="5.7" fill="#1b8ca4" opacity="0.53"/>
<rect x="365.2" y="352.6" width="25.2" height="47.4" rx="5.5" fill="#2c8898" opacity="0.57"/>
<rect x="804.3" y="297.6" width="47.6" height="102.4" rx="3.4" fill="#7d745c" opacity="0.70"/>
<rect x="809.3" y="307.6" width="4" height="5" rx="0.5" fill="#d4a76a" opacity="0.6"/>
<rect x="825.2" y="307.6" width="4" height="5" rx="0.5" fill="#d4a76a" opacity="0.6"/>
<rect x="825.2" y="329.6" width="4" height="5" rx="0.5" fill="#d4a76a" opacity="0.6"/>
<rect x="809.3" y="351.6" width="4" height="5" rx="0.5" fill="#d4a76a" opacity="0.6"/>
<rect x="809.3" y="373.6" width="4" height="5" rx="0.5" fill="#d4a76a" opacity="0.6"/>
<rect x="825.2" y="373.6" width="4" height="5" rx="0.5" fill="#d4a76a" opacity="0.6"/>
<rect x="724.6" y="361.8" width="15.9" height="38.2" rx="7.2" fill="#128fab" opacity="0.83"/>
<rect x="806.7" y="324.1" width="19.4" height="75.9" rx="4.7" fill="#3f838a" opacity="0.70"/>
<rect x="813.6" y="249.2" width="41.9" height="150.8" rx="6.4" fill="#8f6f4f" opacity="0.81"/>
<rect x="365.8" y="291.9" width="44.5" height="108.1" rx="4.5" fill="#6e7767" opacity="0.50"/>
<rect x="663.1" y="324.5" width="28.5" height="75.5" rx="7.4" fill="#897153" opacity="0.66"/>
<rect x="335.7" y="322.0" width="28.7" height="78.0" rx="4.3" fill="#707765" opacity="0.63"/>
<rect x="1032.9" y="316.0" width="34.6" height="84.0" rx="3.6" fill="#2f8796" opacity="0.78"/>
<rect x="243.2" y="359.3" width="15.6" height="40.7" rx="6.5" fill="#328693" opacity="0.73"/>
<rect x="172.4" y="348.8" width="22.4" height="51.2" rx="4.9" fill="#0c90af" opacity="0.83"/>
<rect x="864.6" y="355.5" width="35.0" height="44.5" rx="6.7" fill="#458285" opacity="0.52"/>
<circle cx="1092.7" cy="200.0" r="4.6" fill="#d4a76a" opacity="0.29"/>
<circle cx="1094.4" cy="177.6" r="8.3" fill="#0891b2" opacity="0.17"/>
<circle cx="181.2" cy="55.0" r="10.0" fill="#0891b2" opacity="0.30"/>
<circle cx="110.8" cy="34.4" r="10.7" fill="#0891b2" opacity="0.34"/>
<circle cx="643.5" cy="225.5" r="5.5" fill="#0891b2" opacity="0.44"/>
<rect width="1200" height="400" fill="url(#warm)"/>
<rect width="1200" height="400" fill="#d4a76a" opacity="0.44"/>
</svg>