<svg xmlns="http://www.w3.org/2000/svg" viewBox="0 0 1200 300" width="1200" height="300">
<defs><linearGradient id="skyGrad" x1="0" y1="0" x2="0" y2="1"><stop offset="0%" stop-color="#e8f0f8"/><stop offset="100%" stop-color="#f5e6d8"/></linearGradient></defs><rect width="1200" height="300" fill="url(#skyGrad)"/>
<rect x="138.1" y="149.5" width="56.4" height="150.5" fill="#aeb0a5"/>
<polygon points="138.1,149.5 166.4,135.4 194.6,149.5" fill="#a0a298"/>
<rect x="363.7" y="221.5" width="73.1" height="78.5" fill="#aeb0a5"/>
<rect x="546.5" y="187.2" width="48.4" height="112.8" fill="#aeb0a5"/>
<rect x="795.0" y="224.8" width="61.1" height="75.2" fill="#aeb0a5"/>
<rect x="1012.0" y="226.8" width="45.6" height="73.2" fill="#aeb0a5"/>
<rect x="1020.0" y="213.9" width="29.6" height="12.9" fill="#a5a79d"/>
<rect x="110.0" y="129.0" width="49.2" height="171.0" fill="#898d7d"/>
<polygon points="110.0,129.0 134.6,116.7 159.1,129.0" fill="#7e8273"/>
<rect x="124.6" y="141.0" width="6" height="8" fill="#b2b5ab" opacity="0.5"/>
<rect x="138.6" y="141.0" width="6" height="8" fill="#b2b5ab" opacity="0.5"/>
<rect x="124.6" y="157.0" width="6" height="8" fill="#b2b5ab" opacity="0.5"/>
<rect x="138.6" y="157.0" width="6" height="8" fill="#b2b5ab" opacity="0.5"/>
<rect x="124.6" y="173.0" width="6" height="8" fill="#b2b5ab" opacity="0.5"/>
<rect x="124.6" y="189.0" width="6" height="8" fill="#b2b5ab" opacity="0.5"/>
<rect x="124.6" y="205.0" width="6" height="8" fill="#b2b5ab" opacity="0.5"/>
<rect x="138.6" y="205.0" width="6" height="8" fill="#b2b5ab" opacity="0.5"/>
<rect x="124.6" y="221.0" width="6" height="8" fill="#b2b5ab" opacity="0.5"/>
<rect x="138.6" y="221.0" width="6" height="8" fill="#b2b5ab" opacity="0.5"/>
<rect x="335.2" y="97.4" width="44.8" height="202.6" fill="#898d7d"/>
<rect x="347.5" y="125.4" width="6" height="8" fill="#b2b5ab" opacity="0.5"/>
<rect x="347.5" y="141.4" width="6" height="8" fill="#b2b5ab" opacity="0.5"/>
<rect x="361.5" y="141.4" width="6" height="8" fill="#b2b5ab" opacity="0.5"/>
<rect x="361.5" y="157.4" width="6" height="8" fill="#b2b5ab" opacity="0.5"/>
<rect x="347.5" y="189.4" width="6" height="8" fill="#b2b5ab" opacity="0.5"/>
<rect x="582.2" y="102.5" width="68.2" height="197.5" fill="#898d7d"/>
<polygon points="582.2,102.5 616.4,85.5 650.5,102.5" fill="#7e8273"/>
<rect x="613.4" y="114.5" width="6" height="8" fill="#b2b5ab" opacity="0.5"/>
<rect x="613.4" y="130.5" width="6" height="8" fill="#b2b5ab" opacity="0.5"/>
<rect x="627.4" y="130.5" width="6" height="8" fill="#b2b5ab" opacity="0.5"/>
<rect x="599.4" y="146.5" width="6" height="8" fill="#b2b5ab" opacity="0.5"/>
<rect x="627.4" y="146.5" width="6" height="8" fill="#b2b5ab" opacity="0.5"/>
<rect x="599.4" y="162.5" width="6" height="8" fill="#b2b5ab" opacity="0.5"/>
<rect x="613.4" y="162.5" width="6" height="8" fill="#b2b5ab" opacity="0.5"/>
<rect x="627.4" y="162.5" width="6" height="8" fill="#b2b5ab" opacity="0.5"/>
<rect x="599.4" y="178.5" width="6" height="8" fill="#b2b5ab" opacity="0.5"/>
<rect x="627.4" y="178.5" width="6" height="8" fill="#b2b5ab" opacity="0.5"/>
<rect x="599.4" y="194.5" width="6" height="8" fill="#b2b5ab" opacity="0.5"/>
<rect x="627.4" y="194.5" width="6" height="8" fill="#b2b5ab" opacity="0.5"/>
<rect x="758.1" y="101.2" width="71.9" height="198.8" fill="#898d7d"/>
<rect x="805.0" y="113.2" width="6" height="8" fill="#b2b5ab" opacity="0.5"/>
<rect x="777.0" y="129.2" width="6" height="8" fill="#b2b5ab" opacity="0.5"/>
<rect x="805.0" y="129.2" width="6" height="8" fill="#b2b5ab" opacity="0.5"/>
<rect x="805.0" y="145.2" width="6" height="8" fill="#b2b5ab" opacity="0.5"/>
<rect x="791.0" y="161.2" width="6" height="8" fill="#b2b5ab" opacity="0.5"/>
<rect x="805.0" y="161.2" width="6" height="8" fill="#b2b5ab" opacity="0.5"/>
<rect x="777.0" y="177.2" width="6" height="8" fill="#b2b5ab" opacity="0.5"/>
<rect x="791.0" y="177.2" width="6" height="8" fill="#b2b5ab" opacity="0.5"/>
<rect x="805.0" y="177.2" width="6" height="8" fill="#b2b5ab" opacity="0.5"/>
<rect x="777.0" y="193.2" width="6" height="8" fill="#b2b5ab" opacity="0.5"/>
<rect x="791.0" y="193.2" width="6" height="8" fill="#b2b5ab" opacity="0.5"/>
<rect x="805.0" y="193.2" width="6" height="8" fill="#b2b5ab" opacity="0.5"/>
<rect x="1000.8" y="101.6" width="65.8" height="198.4" fill="#898d7d"/>
<polygon points="1000.8,101.6 1033.6,85.2 1066.5,101.6" fill="#7e8273"/>
<rect x="1016.6" y="113.6" width="6" height="8" fill="#b2b5ab" opacity="0.5"/>
<rect x="1030.6" y="113.6" width="6" height="8" fill="#b2b5ab" opacity="0.5"/>
<rect x="1030.6" y="129.6" width="6" height="8" fill="#b2b5ab" opacity="0.5"/>
<rect x="1030.6" y="145.6" width="6" height="8" fill="#b2b5ab" opacity="0.5"/>
<rect x="1016.6" y="161.6" width="6" height="8" fill="#b2b5ab" opacity="0.5"/>
<rect x="1030.6" y="161.6" width="6" height="8" fill="#b2b5ab" opacity="0.5"/>
<rect x="1044.6" y="161.6" width="6" height="8" fill="#b2b5ab" opacity="0.5"/>
<rect x="1016.6" y="177.6" width="6" height="8" fill="#b2b5ab" opacity="0.5"/>
<rect x="1030.6" y="177.6" width="6" height="8" fill="#b2b5ab" opacity="0.5"/>
<rect x="1044.6" y="177.6" width="6" height="8" fill="#b2b5ab" opacity="0.5"/>
<rect x="1044.6" y="193.6" width="6" height="8" fill="#b2b5ab" opacity="0.5"/>
<rect x="75.4" y="168.1" width="69.9" height="131.9" fill="#6b705c"/>
<rect x="87.6" y="144.9" width="45.4" height="23.3" fill="#666a57"/>
<rect x="93.3" y="156.9" width="6" height="8" fill="#9fa295" opacity="0.5"/>
<rect x="107.3" y="156.9" width="6" height="8" fill="#9fa295" opacity="0.5"/>
<rect x="121.3" y="156.9" width="6" height="8" fill="#9fa295" opacity="0.5"/>
<rect x="121.3" y="172.9" width="6" height="8" fill="#9fa295" opacity="0.5"/>
<rect x="107.3" y="204.9" width="6" height="8" fill="#9fa295" opacity="0.5"/>
<rect x="93.3" y="220.9" width="6" height="8" fill="#9fa295" opacity="0.5"/>
<rect x="107.3" y="236.9" width="6" height="8" fill="#9fa295" opacity="0.5"/>
<line x1="110.3" y1="144.9" x2="110.3" y2="127.8" stroke="#6b705c" stroke-width="2"/>
<rect x="380.4" y="185.8" width="48.3" height="114.2" fill="#6b705c"/>
<polygon points="380.4,185.8 404.5,173.8 428.6,185.8" fill="#626755"/>
<rect x="394.5" y="197.8" width="6" height="8" fill="#9fa295" opacity="0.5"/>
<rect x="408.5" y="197.8" width="6" height="8" fill="#9fa295" opacity="0.5"/>
<rect x="394.5" y="213.8" width="6" height="8" fill="#9fa295" opacity="0.5"/>
<rect x="394.5" y="229.8" width="6" height="8" fill="#9fa295" opacity="0.5"/>
<rect x="408.5" y="229.8" width="6" height="8" fill="#9fa295" opacity="0.5"/>
<rect x="408.5" y="245.8" width="6" height="8" fill="#9fa295" opacity="0.5"/>
<rect x="394.5" y="261.8" width="6" height="8" fill="#9fa295" opacity="0.5"/>
<rect x="408.5" y="261.8" width="6" height="8" fill="#9fa295" opacity="0.5"/>
<rect x="567.7" y="233.1" width="65.3" height="66.9" fill="#6b705c"/>
<rect x="583.3" y="245.1" width="6" height="8" fill="#9fa295" opacity="0.5"/>
<rect x="611.3" y="261.1" width="6" height="8" fill="#9fa295" opacity="0.5"/>
<rect x="818.9" y="224.1" width="65.6" height="75.9" fill="#6b705c"/>
<rect x="834.7" y="236.1" width="6" height="8" fill="#9fa295" opacity="0.5"/>
<rect x="834.7" y="252.1" width="6" height="8" fill="#9fa295" opacity="0.5"/>
<rect x="848.7" y="252.1" width="6" height="8" fill="#9fa295" opacity="0.5"/>
<rect x="834.7" y="268.1" width="6" height="8" fill="#9fa295" opacity="0.5"/>
<rect x="848.7" y="268.1" width="6" height="8" fill="#9fa295" opacity="0.5"/>
<rect x="1059.1" y="85.6" width="60.5" height="214.4" fill="#6b705c"/>
<rect x="1072.4" y="97.6" width="6" height="8" fill="#9fa295" opacity="0.5"/>
<rect x="1100.4" y="97.6" width="6" height="8" fill="#9fa295" opacity="0.5"/>
<rect x="1072.4" y="113.6" width="6" height="8" fill="#9fa295" opacity="0.5"/>
<rect x="1086.4" y="113.6" width="6" height="8" fill="#9fa295" opacity="0.5"/>
<rect x="1100.4" y="113.6" width="6" height="8" fill="#9fa295" opacity="0.5"/>
<rect x="1072.4" y="129.6" width="6" height="8" fill="#9fa295" opacity="0.5"/>
<rect x="1086.4" y="129.6" width="6" height="8" fill="#9fa295" opacity="0.5"/>
<rect x="1100.4" y="129.6" width="6" height="8" fill="#9fa295" opacity="0.5"/>
<rect x="1072.4" y="145.6" width="6" height="8" fill="#9fa295" opacity="0.5"/>
<rect x="1100.4" y="145.6" width="6" height="8" fill="#9fa295" opacity="0.5"/>
<rect x="1072.4" y="161.6" width="6" height="8" fill="#9fa295" opacity="0.5"/>
<rect x="1086.4" y="161.6" width="6" height="8" fill="#9fa295" opacity="0.5"/>
<rect x="1100.4" y="161.6" width="6" height="8" fill="#9fa295" opacity="0.5"/>
<rect x="1086.4" y="177.6" width="6" height="8" fill="#9fa295" opacity="0.5"/>
<rect x="606.4" y="64.6" width="24.9" height="235.4" fill="#7a7e6c" opacity="0.7"/>
<rect x="637.0" y="86.6" width="18.9" height="213.4" fill="#7a7e6c" opacity="0.7"/>
<rect x="662.2" y="38.4" width="23.3" height="261.6" fill="#7a7e6c" opacity="0.7"/>
<rect x="689.6" y="32.8" width="23.4" height="267.2" fill="#7a7e6c" opacity="0.7"/>
<line x1="262.8" y1="285.0" x2="262.8" y2="273.7" stroke="#6b5a42" stroke-width="3"/>
<circle cx="262.8" cy="257.2" r="16.5" fill="#598a49"/>
<line x1="498.2" y1="285.0" x2="498.2" y2="274.1" stroke="#6b5a42" stroke-width="3"/>
<circle cx="498.2" cy="257.3" r="16.8" fill="#517e43"/>
<line x1="725.9" y1="285.0" x2="725.9" y2="274.7" stroke="#6b5a42" stroke-width="3"/>
<circle cx="725.9" cy="262.3" r="12.4" fill="#578747"/>
<rect x="0" y="285" width="1200" height="15" fill="#d4c5a9" opacity="0.4"/>
<circle cx="1088.6" cy="43.6" r="39.0" fill="#f5e6a0" opacity="0.1"/>
</svg>