<svg xmlns="http://www.w3.org/2000/svg" viewBox="0 0 1200 300" width="1200" height="300">
<rect width="1200" height="300" fill="#ede8e0"/>
<path d="M0 300 L0 210.0 C378.5 180.1, 1004.4 186.7, 1200 210.0 L1200 300 Z" fill="#c4c6be" opacity="0.3"/>
<rect x="72.3" y="213.9" width="85.7" height="86.1" fill="#aeb0a5"/>
<rect x="349.2" y="192.6" width="43.6" height="107.4" fill="#aeb0a5"/>
<rect x="536.8" y="218.6" width="63.2" height="81.4" fill="#aeb0a5"/>
<rect x="780.6" y="201.6" width="49.5" height="98.4" fill="#aeb0a5"/>
<rect x="1040.3" y="209.8" width="58.1" height="90.2" fill="#aeb0a5"/>
<rect x="128.8" y="124.2" width="48.0" height="175.8" fill="#898d7d"/>
<rect x="142.8" y="136.2" width="6" height="8" fill="#b2b5ab" opacity="0.5"/>
<rect x="156.8" y="136.2" width="6" height="8" fill="#b2b5ab" opacity="0.5"/>
<rect x="142.8" y="152.2" width="6" height="8" fill="#b2b5ab" opacity="0.5"/>
<rect x="142.8" y="168.2" width="6" height="8" fill="#b2b5ab" opacity="0.5"/>
<rect x="156.8" y="168.2" width="6" height="8" fill="#b2b5ab" opacity="0.5"/>
<rect x="142.8" y="184.2" width="6" height="8" fill="#b2b5ab" opacity="0.5"/>
<rect x="156.8" y="184.2" width="6" height="8" fill="#b2b5ab" opacity="0.5"/>
<rect x="142.8" y="200.2" width="6" height="8" fill="#b2b5ab" opacity="0.5"/>
<rect x="156.8" y="200.2" width="6" height="8" fill="#b2b5ab" opacity="0.5"/>
<rect x="156.8" y="216.2" width="6" height="8" fill="#b2b5ab" opacity="0.5"/>
<rect x="156.8" y="232.2" width="6" height="8" fill="#b2b5ab" opacity="0.5"/>
<rect x="142.8" y="248.2" width="6" height="8" fill="#b2b5ab" opacity="0.5"/>
<rect x="142.8" y="264.2" width="6" height="8" fill="#b2b5ab" opacity="0.5"/>
<rect x="305.9" y="115.5" width="68.3" height="184.5" fill="#898d7d"/>
<rect x="337.1" y="127.5" width="6" height="8" fill="#b2b5ab" opacity="0.5"/>
<rect x="351.1" y="127.5" width="6" height="8" fill="#b2b5ab" opacity="0.5"/>
<rect x="337.1" y="143.5" width="6" height="8" fill="#b2b5ab" opacity="0.5"/>
<rect x="351.1" y="143.5" width="6" height="8" fill="#b2b5ab" opacity="0.5"/>
<rect x="323.1" y="159.5" width="6" height="8" fill="#b2b5ab" opacity="0.5"/>
<rect x="351.1" y="159.5" width="6" height="8" fill="#b2b5ab" opacity="0.5"/>
<rect x="323.1" y="175.5" width="6" height="8" fill="#b2b5ab" opacity="0.5"/>
<rect x="337.1" y="175.5" width="6" height="8" fill="#b2b5ab" opacity="0.5"/>
<rect x="323.1" y="191.5" width="6" height="8" fill="#b2b5ab" opacity="0.5"/>
<rect x="337.1" y="191.5" width="6" height="8" fill="#b2b5ab" opacity="0.5"/>
<rect x="351.1" y="191.5" width="6" height="8" fill="#b2b5ab" opacity="0.5"/>
<rect x="323.1" y="207.5" width="6" height="8" fill="#b2b5ab" opacity="0.5"/>
<rect x="337.1" y="207.5" width="6" height="8" fill="#b2b5ab" opacity="0.5"/>
<rect x="323.1" y="223.5" width="6" height="8" fill="#b2b5ab" opacity="0.5"/>
<rect x="337.1" y="223.5" width="6" height="8" fill="#b2b5ab" opacity="0.5"/>
<rect x="351.1" y="223.5" width="6" height="8" fill="#b2b5ab" opacity="0.5"/>
<rect x="323.1" y="239.5" width="6" height="8" fill="#b2b5ab" opacity="0.5"/>
<rect x="337.1" y="239.5" width="6" height="8" fill="#b2b5ab" opacity="0.5"/>
<rect x="337.1" y="255.5" width="6" height="8" fill="#b2b5ab" opacity="0.5"/>
<rect x="351.1" y="255.5" width="6" height="8" fill="#b2b5ab" opacity="0.5"/>
<rect x="337.1" y="271.5" width="6" height="8" fill="#b2b5ab" opacity="0.5"/>
<rect x="513.2" y="130.2" width="35.1" height="169.8" fill="#898d7d"/>
<rect x="527.7" y="142.2" width="6" height="8" fill="#b2b5ab" opacity="0.5"/>
<rect x="527.7" y="158.2" width="6" height="8" fill="#b2b5ab" opacity="0.5"/>
<rect x="527.7" y="174.2" width="6" height="8" fill="#b2b5ab" opacity="0.5"/>
<rect x="527.7" y="190.2" width="6" height="8" fill="#b2b5ab" opacity="0.5"/>
<rect x="527.7" y="206.2" width="6" height="8" fill="#b2b5ab" opacity="0.5"/>
<rect x="527.7" y="222.2" width="6" height="8" fill="#b2b5ab" opacity="0.5"/>
<rect x="527.7" y="238.2" width="6" height="8" fill="#b2b5ab" opacity="0.5"/>
<rect x="527.7" y="254.2" width="6" height="8" fill="#b2b5ab" opacity="0.5"/>
<rect x="527.7" y="270.2" width="6" height="8" fill="#b2b5ab" opacity="0.5"/>
<rect x="699.2" y="108.4" width="42.8" height="191.6" fill="#898d7d"/>
<rect x="717.5" y="120.4" width="6" height="8" fill="#b2b5ab" opacity="0.5"/>
<rect x="717.5" y="136.4" width="6" height="8" fill="#b2b5ab" opacity="0.5"/>
<rect x="717.5" y="152.4" width="6" height="8" fill="#b2b5ab" opacity="0.5"/>
<rect x="717.5" y="168.4" width="6" height="8" fill="#b2b5ab" opacity="0.5"/>
<rect x="717.5" y="184.4" width="6" height="8" fill="#b2b5ab" opacity="0.5"/>
<rect x="717.5" y="200.4" width="6" height="8" fill="#b2b5ab" opacity="0.5"/>
<rect x="717.5" y="216.4" width="6" height="8" fill="#b2b5ab" opacity="0.5"/>
<rect x="717.5" y="232.4" width="6" height="8" fill="#b2b5ab" opacity="0.5"/>
<rect x="869.0" y="160.2" width="35.3" height="139.8" fill="#898d7d"/>
<rect x="883.6" y="172.2" width="6" height="8" fill="#b2b5ab" opacity="0.5"/>
<rect x="883.6" y="188.2" width="6" height="8" fill="#b2b5ab" opacity="0.5"/>
<rect x="883.6" y="204.2" width="6" height="8" fill="#b2b5ab" opacity="0.5"/>
<rect x="883.6" y="220.2" width="6" height="8" fill="#b2b5ab" opacity="0.5"/>
<rect x="883.6" y="236.2" width="6" height="8" fill="#b2b5ab" opacity="0.5"/>
<rect x="883.6" y="252.2" width="6" height="8" fill="#b2b5ab" opacity="0.5"/>
<rect x="883.6" y="268.2" width="6" height="8" fill="#b2b5ab" opacity="0.5"/>
<rect x="1024.2" y="119.4" width="78.9" height="180.6" fill="#898d7d"/>
<rect x="1039.7" y="131.4" width="6" height="8" fill="#b2b5ab" opacity="0.5"/>
<rect x="1067.7" y="131.4" width="6" height="8" fill="#b2b5ab" opacity="0.5"/>
<rect x="1081.7" y="131.4" width="6" height="8" fill="#b2b5ab" opacity="0.5"/>
<rect x="1039.7" y="147.4" width="6" height="8" fill="#b2b5ab" opacity="0.5"/>
<rect x="1053.7" y="147.4" width="6" height="8" fill="#b2b5ab" opacity="0.5"/>
<rect x="1067.7" y="147.4" width="6" height="8" fill="#b2b5ab" opacity="0.5"/>
<rect x="1081.7" y="147.4" width="6" height="8" fill="#b2b5ab" opacity="0.5"/>
<rect x="1053.7" y="163.4" width="6" height="8" fill="#b2b5ab" opacity="0.5"/>
<rect x="1067.7" y="163.4" width="6" height="8" fill="#b2b5ab" opacity="0.5"/>
<rect x="1081.7" y="163.4" width="6" height="8" fill="#b2b5ab" opacity="0.5"/>
<rect x="1081.7" y="179.4" width="6" height="8" fill="#b2b5ab" opacity="0.5"/>
<rect x="1039.7" y="195.4" width="6" height="8" fill="#b2b5ab" opacity="0.5"/>
<rect x="1053.7" y="195.4" width="6" height="8" fill="#b2b5ab" opacity="0.5"/>
<rect x="1067.7" y="195.4" width="6" height="8" fill="#b2b5ab" opacity="0.5"/>
<rect x="1053.7" y="211.4" width="6" height="8" fill="#b2b5ab" opacity="0.5"/>
<rect x="1081.7" y="211.4" width="6" height="8" fill="#b2b5ab" opacity="0.5"/>
<rect x="1039.7" y="227.4" width="6" height="8" fill="#b2b5ab" opacity="0.5"/>
<rect x="1067.7" y="227.4" width="6" height="8" fill="#b2b5ab" opacity="0.5"/>
<rect x="1081.7" y="227.4" width="6" height="8" fill="#b2b5ab" opacity="0.5"/>
<rect x="1039.7" y="243.4" width="6" height="8" fill="#b2b5ab" opacity="0.5"/>
<rect x="1067.7" y="243.4" width="6" height="8" fill="#b2b5ab" opacity="0.5"/>
<rect x="1081.7" y="243.4" width="6" height="8" fill="#b2b5ab" opacity="0.5"/>
<rect x="1053.7" y="259.4" width="6" height="8" fill="#b2b5ab" opacity="0.5"/>
<rect x="1067.7" y="259.4" width="6" height="8" fill="#b2b5ab" opacity="0.5"/>
<rect x="1081.7" y="259.4" width="6" height="8" fill="#b2b5ab" opacity="0.5"/>
<rect x="72.3" y="97.6" width="52.7" height="202.4" fill="#6b705c"/>
<rect x="88.7" y="109.6" width="6" height="8" fill="#9fa295" opacity="0.5"/>
<rect x="102.7" y="109.6" width="6" height="8" fill="#9fa295" opacity="0.5"/>
<rect x="102.7" y="125.6" width="6" height="8" fill="#9fa295" opacity="0.5"/>
<rect x="88.7" y="157.6" width="6" height="8" fill="#9fa295" opacity="0.5"/>
<rect x="102.7" y="157.6" width="6" height="8" fill="#9fa295" opacity="0.5"/>
<rect x="88.7" y="173.6" width="6" height="8" fill="#9fa295" opacity="0.5"/>
<rect x="102.7" y="189.6" width="6" height="8" fill="#9fa295" opacity="0.5"/>
<rect x="88.7" y="205.6" width="6" height="8" fill="#9fa295" opacity="0.5"/>
<rect x="88.7" y="221.6" width="6" height="8" fill="#9fa295" opacity="0.5"/>
<rect x="102.7" y="221.6" width="6" height="8" fill="#9fa295" opacity="0.5"/>
<rect x="88.7" y="237.6" width="6" height="8" fill="#9fa295" opacity="0.5"/>
<rect x="102.7" y="237.6" width="6" height="8" fill="#9fa295" opacity="0.5"/>
<rect x="88.7" y="253.6" width="6" height="8" fill="#9fa295" opacity="0.5"/>
<rect x="88.7" y="269.6" width="6" height="8" fill="#9fa295" opacity="0.5"/>
<rect x="102.7" y="269.6" width="6" height="8" fill="#9fa295" opacity="0.5"/>
<line x1="98.7" y1="97.6" x2="98.7" y2="76.8" stroke="#6b705c" stroke-width="2"/>
<rect x="257.5" y="117.8" width="68.1" height="182.2" fill="#6b705c"/>
<rect x="274.5" y="129.8" width="6" height="8" fill="#9fa295" opacity="0.5"/>
<rect x="288.5" y="129.8" width="6" height="8" fill="#9fa295" opacity="0.5"/>
<rect x="302.5" y="129.8" width="6" height="8" fill="#9fa295" opacity="0.5"/>
<rect x="274.5" y="145.8" width="6" height="8" fill="#9fa295" opacity="0.5"/>
<rect x="302.5" y="145.8" width="6" height="8" fill="#9fa295" opacity="0.5"/>
<rect x="274.5" y="161.8" width="6" height="8" fill="#9fa295" opacity="0.5"/>
<rect x="288.5" y="161.8" width="6" height="8" fill="#9fa295" opacity="0.5"/>
<rect x="302.5" y="161.8" width="6" height="8" fill="#9fa295" opacity="0.5"/>
<rect x="288.5" y="177.8" width="6" height="8" fill="#9fa295" opacity="0.5"/>
<rect x="274.5" y="193.8" width="6" height="8" fill="#9fa295" opacity="0.5"/>
<rect x="288.5" y="193.8" width="6" height="8" fill="#9fa295" opacity="0.5"/>
<rect x="302.5" y="193.8" width="6" height="8" fill="#9fa295" opacity="0.5"/>
<rect x="274.5" y="209.8" width="6" height="8" fill="#9fa295" opacity="0.5"/>
<rect x="288.5" y="209.8" width="6" height="8" fill="#9fa295" opacity="0.5"/>
<rect x="274.5" y="225.8" width="6" height="8" fill="#9fa295" opacity="0.5"/>
<rect x="302.5" y="225.8" width="6" height="8" fill="#9fa295" opacity="0.5"/>
<rect x="274.5" y="241.8" width="6" height="8" fill="#9fa295" opacity="0.5"/>
<rect x="288.5" y="241.8" width="6" height="8" fill="#9fa295" opacity="0.5"/>
<rect x="302.5" y="241.8" width="6" height="8" fill="#9fa295" opacity="0.5"/>
<rect x="274.5" y="257.8" width="6" height="8" fill="#9fa295" opacity="0.5"/>
<rect x="288.5" y="257.8" width="6" height="8" fill="#9fa295" opacity="0.5"/>
<rect x="302.5" y="257.8" width="6" height="8" fill="#9fa295" opacity="0.5"/>
<rect x="274.5" y="273.8" width="6" height="8" fill="#9fa295" opacity="0.5"/>
<rect x="302.5" y="273.8" width="6" height="8" fill="#9fa295" opacity="0.5"/>
<rect x="488.2" y="187.5" width="74.5" height="112.5" fill="#6b705c"/>
<rect x="515.4" y="199.5" width="6" height="8" fill="#9fa295" opacity="0.5"/>
<rect x="529.4" y="199.5" width="6" height="8" fill="#9fa295" opacity="0.5"/>
<rect x="515.4" y="215.5" width="6" height="8" fill="#9fa295" opacity="0.5"/>
<rect x="529.4" y="215.5" width="6" height="8" fill="#9fa295" opacity="0.5"/>
<rect x="543.4" y="215.5" width="6" height="8" fill="#9fa295" opacity="0.5"/>
<rect x="501.4" y="231.5" width="6" height="8" fill="#9fa295" opacity="0.5"/>
<rect x="543.4" y="231.5" width="6" height="8" fill="#9fa295" opacity="0.5"/>
<rect x="501.4" y="247.5" width="6" height="8" fill="#9fa295" opacity="0.5"/>
<rect x="515.4" y="247.5" width="6" height="8" fill="#9fa295" opacity="0.5"/>
<rect x="543.4" y="247.5" width="6" height="8" fill="#9fa295" opacity="0.5"/>
<rect x="501.4" y="263.5" width="6" height="8" fill="#9fa295" opacity="0.5"/>
<rect x="515.4" y="263.5" width="6" height="8" fill="#9fa295" opacity="0.5"/>
<rect x="529.4" y="263.5" width="6" height="8" fill="#9fa295" opacity="0.5"/>
<rect x="543.4" y="263.5" width="6" height="8" fill="#9fa295" opacity="0.5"/>
<rect x="667.9" y="92.1" width="59.2" height="207.9" fill="#6b705c"/>
<rect x="680.5" y="104.1" width="6" height="8" fill="#9fa295" opacity="0.5"/>
<rect x="694.5" y="104.1" width="6" height="8" fill="#9fa295" opacity="0.5"/>
<rect x="708.5" y="104.1" width="6" height="8" fill="#9fa295" opacity="0.5"/>
<rect x="694.5" y="120.1" width="6" height="8" fill="#9fa295" opacity="0.5"/>
<rect x="708.5" y="120.1" width="6" height="8" fill="#9fa295" opacity="0.5"/>
<rect x="694.5" y="136.1" width="6" height="8" fill="#9fa295" opacity="0.5"/>
<rect x="708.5" y="136.1" width="6" height="8" fill="#9fa295" opacity="0.5"/>
<rect x="680.5" y="152.1" width="6" height="8" fill="#9fa295" opacity="0.5"/>
<rect x="680.5" y="168.1" width="6" height="8" fill="#9fa295" opacity="0.5"/>
<rect x="694.5" y="168.1" width="6" height="8" fill="#9fa295" opacity="0.5"/>
<rect x="708.5" y="168.1" width="6" height="8" fill="#9fa295" opacity="0.5"/>
<rect x="680.5" y="184.1" width="6" height="8" fill="#9fa295" opacity="0.5"/>
<rect x="680.5" y="200.1" width="6" height="8" fill="#9fa295" opacity="0.5"/>
<rect x="694.5" y="200.1" width="6" height="8" fill="#9fa295" opacity="0.5"/>
<rect x="708.5" y="200.1" width="6" height="8" fill="#9fa295" opacity="0.5"/>
<rect x="680.5" y="216.1" width="6" height="8" fill="#9fa295" opacity="0.5"/>
<rect x="708.5" y="216.1" width="6" height="8" fill="#9fa295" opacity="0.5"/>
<rect x="694.5" y="232.1" width="6" height="8" fill="#9fa295" opacity="0.5"/>
<rect x="708.5" y="232.1" width="6" height="8" fill="#9fa295" opacity="0.5"/>
<rect x="680.5" y="248.1" width="6" height="8" fill="#9fa295" opacity="0.5"/>
<rect x="708.5" y="248.1" width="6" height="8" fill="#9fa295" opacity="0.5"/>
<rect x="680.5" y="264.1" width="6" height="8" fill="#9fa295" opacity="0.5"/>
<rect x="843.4" y="70.6" width="48.6" height="229.4" fill="#6b705c"/>
<rect x="857.7" y="82.6" width="6" height="8" fill="#9fa295" opacity="0.5"/>
<rect x="871.7" y="82.6" width="6" height="8" fill="#9fa295" opacity="0.5"/>
<rect x="857.7" y="98.6" width="6" height="8" fill="#9fa295" opacity="0.5"/>
<rect x="871.7" y="98.6" width="6" height="8" fill="#9fa295" opacity="0.5"/>
<rect x="857.7" y="114.6" width="6" height="8" fill="#9fa295" opacity="0.5"/>
<rect x="871.7" y="114.6" width="6" height="8" fill="#9fa295" opacity="0.5"/>
<rect x="857.7" y="130.6" width="6" height="8" fill="#9fa295" opacity="0.5"/>
<rect x="871.7" y="130.6" width="6" height="8" fill="#9fa295" opacity="0.5"/>
<rect x="857.7" y="146.6" width="6" height="8" fill="#9fa295" opacity="0.5"/>
<rect x="871.7" y="146.6" width="6" height="8" fill="#9fa295" opacity="0.5"/>
<rect x="857.7" y="162.6" width="6" height="8" fill="#9fa295" opacity="0.5"/>
<rect x="857.7" y="178.6" width="6" height="8" fill="#9fa295" opacity="0.5"/>
<rect x="871.7" y="178.6" width="6" height="8" fill="#9fa295" opacity="0.5"/>
<rect x="857.7" y="194.6" width="6" height="8" fill="#9fa295" opacity="0.5"/>
<rect x="871.7" y="194.6" width="6" height="8" fill="#9fa295" opacity="0.5"/>
<rect x="857.7" y="210.6" width="6" height="8" fill="#9fa295" opacity="0.5"/>
<rect x="871.7" y="210.6" width="6" height="8" fill="#9fa295" opacity="0.5"/>
<rect x="857.7" y="226.6" width="6" height="8" fill="#9fa295" opacity="0.5"/>
<rect x="871.7" y="226.6" width="6" height="8" fill="#9fa295" opacity="0.5"/>
<rect x="857.7" y="242.6" width="6" height="8" fill="#9fa295" opacity="0.5"/>
<rect x="857.7" y="258.6" width="6" height="8" fill="#9fa295" opacity="0.5"/>
<line x1="867.7" y1="70.6" x2="867.7" y2="50.3" stroke="#6b705c" stroke-width="2"/>
<rect x="1053.9" y="74.7" width="71.6" height="225.3" fill="#6b705c"/>
<rect x="1072.7" y="86.7" width="6" height="8" fill="#9fa295" opacity="0.5"/>
<rect x="1100.7" y="86.7" width="6" height="8" fill="#9fa295" opacity="0.5"/>
<rect x="1072.7" y="102.7" width="6" height="8" fill="#9fa295" opacity="0.5"/>
<rect x="1100.7" y="102.7" width="6" height="8" fill="#9fa295" opacity="0.5"/>
<rect x="1072.7" y="118.7" width="6" height="8" fill="#9fa295" opacity="0.5"/>
<rect x="1072.7" y="134.7" width="6" height="8" fill="#9fa295" opacity="0.5"/>
<rect x="1100.7" y="134.7" width="6" height="8" fill="#9fa295" opacity="0.5"/>
<rect x="1072.7" y="150.7" width="6" height="8" fill="#9fa295" opacity="0.5"/>
<rect x="1086.7" y="150.7" width="6" height="8" fill="#9fa295" opacity="0.5"/>
<rect x="1072.7" y="166.7" width="6" height="8" fill="#9fa295" opacity="0.5"/>
<rect x="1086.7" y="166.7" width="6" height="8" fill="#9fa295" opacity="0.5"/>
<rect x="1100.7" y="166.7" width="6" height="8" fill="#9fa295" opacity="0.5"/>
<rect x="1072.7" y="182.7" width="6" height="8" fill="#9fa295" opacity="0.5"/>
<rect x="1086.7" y="182.7" width="6" height="8" fill="#9fa295" opacity="0.5"/>
<rect x="1100.7" y="182.7" width="6" height="8" fill="#9fa295" opacity="0.5"/>
<rect x="1072.7" y="198.7" width="6" height="8" fill="#9fa295" opacity="0.5"/>
<rect x="1086.7" y="198.7" width="6" height="8" fill="#9fa295" opacity="0.5"/>
<rect x="1100.7" y="198.7" width="6" height="8" fill="#9fa295" opacity="0.5"/>
<rect x="1072.7" y="214.7" width="6" height="8" fill="#9fa295" opacity="0.5"/>
<rect x="1086.7" y="214.7" width="6" height="8" fill="#9fa295" opacity="0.5"/>
<rect x="1072.7" y="230.7" width="6" height="8" fill="#9fa295" opacity="0.5"/>
<rect x="1086.7" y="230.7" width="6" height="8" fill="#9fa295" opacity="0.5"/>
<rect x="1100.7" y="230.7" width="6" height="8" fill="#9fa295" opacity="0.5"/>
<rect x="1072.7" y="246.7" width="6" height="8" fill="#9fa295" opacity="0.5"/>
<rect x="1100.7" y="246.7" width="6" height="8" fill="#9fa295" opacity="0.5"/>
<rect x="1072.7" y="262.7" width="6" height="8" fill="#9fa295" opacity="0.5"/>
<rect x="1086.7" y="262.7" width="6" height="8" fill="#9fa295" opacity="0.5"/>
<rect x="1100.7" y="262.7" width="6" height="8" fill="#9fa295" opacity="0.5"/>
<line x1="1089.7" y1="74.7" x2="1089.7" y2="60.7" stroke="#6b705c" stroke-width="2"/>
<rect x="0" y="298" width="1200" height="2" fill="#606553" opacity="0.15"/>
</svg>