<svg xmlns="http://www.w3.org/2000/svg" viewBox="0 0 1200 300" width="1200" height="300">
<defs>
<linearGradient id="skyGrad" x1="0" y1="0" x2="0" y2="1">
<stop offset="0%" stop-color="#a78bfa"/>
<stop offset="18%" stop-color="#ddb4f0"/>
<stop offset="35%" stop-color="#fda4af"/>
<stop offset="52%" stop-color="#fdba74"/>
<stop offset="72%" stop-color="#fef08a"/>
<stop offset="100%" stop-color="#fef9c3"/>
</linearGradient>
<linearGradient id="bldg_coral" x1="0" y1="0" x2="0" y2="1"><stop offset="0%" stop-color="#fecaca"/><stop offset="100%" stop-color="#fca5a5"/></linearGradient>
<linearGradient id="bldg_teal" x1="0" y1="0" x2="0" y2="1"><stop offset="0%" stop-color="#99f6e4"/><stop offset="100%" stop-color="#5eead4"/></linearGradient>
<linearGradient id="bldg_amber" x1="0" y1="0" x2="0" y2="1"><stop offset="0%" stop-color="#fde68a"/><stop offset="100%" stop-color="#fcd34d"/></linearGradient>
<linearGradient id="bldg_lavender" x1="0" y1="0" x2="0" y2="1"><stop offset="0%" stop-color="#ddd6fe"/><stop offset="100%" stop-color="#c4b5fd"/></linearGradient>
<linearGradient id="bldg_blue" x1="0" y1="0" x2="0" y2="1"><stop offset="0%" stop-color="#bfdbfe"/><stop offset="100%" stop-color="#93c5fd"/></linearGradient>
<linearGradient id="bldg_mint" x1="0" y1="0" x2="0" y2="1"><stop offset="0%" stop-color="#a7f3d0"/><stop offset="100%" stop-color="#6ee7b7"/></linearGradient>
<linearGradient id="bldg_rose" x1="0" y1="0" x2="0" y2="1"><stop offset="0%" stop-color="#fecdd3"/><stop offset="100%" stop-color="#fda4af"/></linearGradient>
<linearGradient id="bldg_sky" x1="0" y1="0" x2="0" y2="1"><stop offset="0%" stop-color="#bae6fd"/><stop offset="100%" stop-color="#7dd3fc"/></linearGradient>
<linearGradient id="roof_navyRoof" x1="0" y1="0" x2="0" y2="1"><stop offset="0%" stop-color="#4338ca"/><stop offset="100%" stop-color="#3730a3"/></linearGradient>
<linearGradient id="roof_coralRoof" x1="0" y1="0" x2="0" y2="1"><stop offset="0%" stop-color="#f87171"/><stop offset="100%" stop-color="#ef4444"/></linearGradient>
<linearGradient id="roof_tealRoof" x1="0" y1="0" x2="0" y2="1"><stop offset="0%" stop-color="#2dd4bf"/><stop offset="100%" stop-color="#14b8a6"/></linearGradient>
<radialGradient id="windowGlow" cx="50%" cy="50%" r="50%"><stop offset="0%" stop-color="#fef08a"/><stop offset="60%" stop-color="#fbbf24"/><stop offset="100%" stop-color="#f59e0b"/></radialGradient>
<linearGradient id="hillFar" x1="0" y1="0" x2="0" y2="1"><stop offset="0%" stop-color="#c4b5fd"/><stop offset="100%" stop-color="#a5b4fc"/></linearGradient>
<linearGradient id="hillMid" x1="0" y1="0" x2="0" y2="1"><stop offset="0%" stop-color="#86efac"/><stop offset="100%" stop-color="#4ade80"/></linearGradient>
<linearGradient id="hillNear" x1="0" y1="0" x2="0" y2="1"><stop offset="0%" stop-color="#34d399"/><stop offset="100%" stop-color="#10b981"/></linearGradient>
<linearGradient id="hillDesertFar" x1="0" y1="0" x2="0" y2="1"><stop offset="0%" stop-color="#fde68a"/><stop offset="100%" stop-color="#fcd34d"/></linearGradient>
<linearGradient id="hillDesertMid" x1="0" y1="0" x2="0" y2="1"><stop offset="0%" stop-color="#fcd34d"/><stop offset="100%" stop-color="#fbbf24"/></linearGradient>
<linearGradient id="hillDesertNear" x1="0" y1="0" x2="0" y2="1"><stop offset="0%" stop-color="#fbbf24"/><stop offset="100%" stop-color="#f59e0b"/></linearGradient>
<linearGradient id="groundGrad" x1="0" y1="0" x2="0" y2="1"><stop offset="0%" stop-color="#fef3c7"/><stop offset="100%" stop-color="#fde68a"/></linearGradient>
<linearGradient id="waterGrad" x1="0" y1="0" x2="0" y2="1"><stop offset="0%" stop-color="#bfdbfe"/><stop offset="100%" stop-color="#93c5fd"/></linearGradient>
<filter id="softGlow" x="-50%" y="-50%" width="200%" height="200%"><feGaussianBlur in="SourceGraphic" stdDeviation="12"/></filter>
</defs>
<rect width="1200" height="300" fill="url(#skyGrad)"/>
<circle cx="1056.5" cy="49.9" r="45" fill="#fef08a" opacity="0.12" filter="url(#softGlow)"/>
<circle cx="1056.5" cy="49.9" r="30" fill="#fde68a" opacity="0.18" filter="url(#softGlow)"/>
<circle cx="1056.5" cy="49.9" r="16" fill="#fef9c3" opacity="0.25" filter="url(#softGlow)"/>
<path d="M0 300 L0.0 198.6 C166.9 198.6, 166.9 191.4, 333.8 191.4 C603.0 191.4, 603.0 175.7, 872.2 175.7 C1036.1 175.7, 1036.1 184.5, 1200.0 184.5 L1200 300 Z" fill="url(#hillFar)" opacity="0.5"/>
<path d="M0 300 L0.0 215.2 C235.6 215.2, 235.6 211.5, 471.2 211.5 C589.2 211.5, 589.2 214.9, 707.2 214.9 C953.6 214.9, 953.6 220.2, 1200.0 220.2 L1200 300 Z" fill="url(#hillMid)" opacity="0.7"/>
<path d="M0 300 L0.0 235.2 C249.9 235.2, 249.9 229.6, 499.8 229.6 C656.0 229.6, 656.0 233.3, 812.2 233.3 C1006.1 233.3, 1006.1 229.0, 1200.0 229.0 L1200 300 Z" fill="url(#hillNear)" opacity="1"/>
<rect x="174.8" y="213.7" width="58.3" height="86.3" rx="3" fill="url(#bldg_sky)" opacity="0.7"/>
<polygon points="174.8,213.7 203.9,201.5 233.1,213.7" fill="url(#roof_coralRoof)" opacity="0.7"/>
<rect x="186.9" y="223.7" width="6" height="8" rx="1" fill="url(#windowGlow)" opacity="0.9536464464169212"/>
<rect x="200.9" y="223.7" width="6" height="8" rx="1" fill="url(#windowGlow)" opacity="0.8260650648391177"/>
<rect x="214.9" y="223.7" width="6" height="8" rx="1" fill="url(#windowGlow)" opacity="0.8644519576637316"/>
<rect x="186.9" y="238.7" width="6" height="8" rx="1" fill="url(#windowGlow)" opacity="0.7710397418919204"/>
<rect x="200.9" y="238.7" width="6" height="8" rx="1" fill="url(#windowGlow)" opacity="0.8463645912457092"/>
<rect x="214.9" y="238.7" width="6" height="8" rx="1" fill="url(#windowGlow)" opacity="0.9746250461203162"/>
<rect x="186.9" y="253.7" width="6" height="8" rx="1" fill="url(#windowGlow)" opacity="0.7200241004210077"/>
<rect x="200.9" y="253.7" width="6" height="8" rx="1" fill="url(#windowGlow)" opacity="0.7574099950759717"/>
<rect x="553.5" y="217.6" width="74.0" height="82.4" rx="3" fill="url(#bldg_coral)" opacity="0.7"/>
<polygon points="553.5,217.6 590.5,191.9 627.5,217.6" fill="url(#roof_tealRoof)" opacity="0.7"/>
<rect x="566.5" y="227.6" width="6" height="8" rx="1" fill="url(#windowGlow)" opacity="0.9963444558886552"/>
<rect x="580.5" y="227.6" width="6" height="8" rx="1" fill="url(#windowGlow)" opacity="0.7723099674900574"/>
<rect x="594.5" y="227.6" width="6" height="8" rx="1" fill="url(#windowGlow)" opacity="0.9576838422369602"/>
<rect x="608.5" y="227.6" width="6" height="8" rx="1" fill="url(#windowGlow)" opacity="0.7239134939033135"/>
<rect x="566.5" y="242.6" width="6" height="8" rx="1" fill="url(#windowGlow)" opacity="0.7282352068127297"/>
<rect x="608.5" y="242.6" width="6" height="8" rx="1" fill="url(#windowGlow)" opacity="0.9055965780772253"/>
<rect x="566.5" y="257.6" width="6" height="8" rx="1" fill="url(#windowGlow)" opacity="0.8003974987195792"/>
<rect x="580.5" y="257.6" width="6" height="8" rx="1" fill="url(#windowGlow)" opacity="0.7078516711051815"/>
<rect x="594.5" y="257.6" width="6" height="8" rx="1" fill="url(#windowGlow)" opacity="0.7619184303851418"/>
<rect x="608.5" y="257.6" width="6" height="8" rx="1" fill="url(#windowGlow)" opacity="0.8151104162517517"/>
<rect x="889.6" y="194.8" width="85.7" height="105.2" rx="3" fill="url(#bldg_teal)" opacity="0.7"/>
<polygon points="889.6,194.8 932.5,167.1 975.3,194.8" fill="url(#roof_navyRoof)" opacity="0.7"/>
<rect x="908.5" y="204.8" width="6" height="8" rx="1" fill="url(#windowGlow)" opacity="0.9335104228619069"/>
<rect x="922.5" y="204.8" width="6" height="8" rx="1" fill="url(#windowGlow)" opacity="0.7735179215546315"/>
<rect x="936.5" y="204.8" width="6" height="8" rx="1" fill="url(#windowGlow)" opacity="0.8660543821128338"/>
<rect x="950.5" y="204.8" width="6" height="8" rx="1" fill="url(#windowGlow)" opacity="0.8906705892135718"/>
<rect x="908.5" y="219.8" width="6" height="8" rx="1" fill="url(#windowGlow)" opacity="0.824658407002994"/>
<rect x="922.5" y="219.8" width="6" height="8" rx="1" fill="url(#windowGlow)" opacity="0.986452497256199"/>
<rect x="936.5" y="219.8" width="6" height="8" rx="1" fill="url(#windowGlow)" opacity="0.7677863093874353"/>
<rect x="908.5" y="234.8" width="6" height="8" rx="1" fill="url(#windowGlow)" opacity="0.9390321302409432"/>
<rect x="922.5" y="234.8" width="6" height="8" rx="1" fill="url(#windowGlow)" opacity="0.9872637940977065"/>
<rect x="936.5" y="234.8" width="6" height="8" rx="1" fill="url(#windowGlow)" opacity="0.8388526231697073"/>
<rect x="950.5" y="234.8" width="6" height="8" rx="1" fill="url(#windowGlow)" opacity="0.988650320139085"/>
<rect x="908.5" y="249.8" width="6" height="8" rx="1" fill="url(#windowGlow)" opacity="0.8795157416628281"/>
<rect x="922.5" y="249.8" width="6" height="8" rx="1" fill="url(#windowGlow)" opacity="0.7570188024346803"/>
<rect x="936.5" y="249.8" width="6" height="8" rx="1" fill="url(#windowGlow)" opacity="0.9007282403301113"/>
<rect x="950.5" y="249.8" width="6" height="8" rx="1" fill="url(#windowGlow)" opacity="0.7012971109716674"/>
<rect x="230.4" y="218.6" width="73.1" height="81.4" rx="3" fill="url(#bldg_amber)" opacity="0.85"/>
<polygon points="230.4,218.6 267.0,200.1 303.6,218.6" fill="url(#roof_coralRoof)" opacity="0.85"/>
<rect x="243.0" y="228.6" width="6" height="8" rx="1" fill="url(#windowGlow)" opacity="0.796409667048794"/>
<rect x="257.0" y="228.6" width="6" height="8" rx="1" fill="url(#windowGlow)" opacity="0.9009976291102346"/>
<rect x="243.0" y="243.6" width="6" height="8" rx="1" fill="url(#windowGlow)" opacity="0.7331092333575288"/>
<rect x="257.0" y="243.6" width="6" height="8" rx="1" fill="url(#windowGlow)" opacity="0.9330025347103377"/>
<rect x="271.0" y="243.6" width="6" height="8" rx="1" fill="url(#windowGlow)" opacity="0.736230232210937"/>
<rect x="285.0" y="243.6" width="6" height="8" rx="1" fill="url(#windowGlow)" opacity="0.9350639581843576"/>
<rect x="243.0" y="258.6" width="6" height="8" rx="1" fill="url(#windowGlow)" opacity="0.9705103430294013"/>
<rect x="257.0" y="258.6" width="6" height="8" rx="1" fill="url(#windowGlow)" opacity="0.9514802513883822"/>
<rect x="271.0" y="258.6" width="6" height="8" rx="1" fill="url(#windowGlow)" opacity="0.9682176606115966"/>
<rect x="285.0" y="258.6" width="6" height="8" rx="1" fill="url(#windowGlow)" opacity="0.7387333001190486"/>
<path d="M237.8 247.1 L267.0 247.1 L264.0 253.1 L240.8 253.1 Z" fill="url(#roof_navyRoof)" opacity="0.68"/>
<rect x="542.7" y="192.5" width="40.9" height="107.5" rx="3" fill="url(#bldg_lavender)" opacity="0.85"/>
<rect x="550.8" y="179.6" width="24.5" height="12.9" rx="2" fill="url(#roof_tealRoof)" opacity="0.85"/>
<rect x="560.1" y="217.5" width="6" height="8" rx="1" fill="url(#windowGlow)" opacity="0.7110830675862184"/>
<rect x="560.1" y="232.5" width="6" height="8" rx="1" fill="url(#windowGlow)" opacity="0.9351877980098071"/>
<rect x="560.1" y="247.5" width="6" height="8" rx="1" fill="url(#windowGlow)" opacity="0.7147554660284684"/>
<path d="M563.1 230.1 L579.5 230.1 L576.5 236.1 L566.1 236.1 Z" fill="url(#roof_coralRoof)" opacity="0.68"/>
<rect x="910.7" y="219.4" width="57.3" height="80.6" rx="3" fill="url(#bldg_blue)" opacity="0.85"/>
<rect x="910.7" y="216.4" width="57.3" height="3" rx="1" fill="url(#roof_navyRoof)" opacity="0.85"/>
<rect x="929.3" y="229.4" width="6" height="8" rx="1" fill="url(#windowGlow)" opacity="0.7679868212751982"/>
<rect x="943.3" y="229.4" width="6" height="8" rx="1" fill="url(#windowGlow)" opacity="0.8628735428968787"/>
<rect x="929.3" y="244.4" width="6" height="8" rx="1" fill="url(#windowGlow)" opacity="0.9962355358508581"/>
<rect x="943.3" y="244.4" width="6" height="8" rx="1" fill="url(#windowGlow)" opacity="0.825336502131697"/>
<rect x="929.3" y="259.4" width="6" height="8" rx="1" fill="url(#windowGlow)" opacity="0.7055802407234815"/>
<rect x="943.3" y="259.4" width="6" height="8" rx="1" fill="url(#windowGlow)" opacity="0.8986035274800861"/>
<rect x="222.8" y="210.0" width="41.0" height="90.0" rx="3" fill="url(#bldg_mint)" opacity="1"/>
<rect x="222.8" y="207.0" width="41.0" height="3" rx="1" fill="url(#roof_coralRoof)" opacity="1"/>
<rect x="240.4" y="235.0" width="6" height="8" rx="1" fill="url(#windowGlow)" opacity="0.8104487181224156"/>
<rect x="240.4" y="250.0" width="6" height="8" rx="1" fill="url(#windowGlow)" opacity="0.8836815070284909"/>
<rect x="238.4" y="284.0" width="10" height="16" rx="2" fill="url(#roof_navyRoof)" opacity="0.8"/>
<rect x="240.4" y="287.0" width="6" height="10" rx="1" fill="url(#windowGlow)" opacity="0.45"/>
<rect x="528.6" y="223.6" width="57.9" height="76.4" rx="3" fill="url(#bldg_rose)" opacity="1"/>
<rect x="528.6" y="220.6" width="57.9" height="3" rx="1" fill="url(#roof_tealRoof)" opacity="1"/>
<rect x="547.5" y="233.6" width="6" height="8" rx="1" fill="url(#windowGlow)" opacity="0.8345724407744465"/>
<rect x="561.5" y="233.6" width="6" height="8" rx="1" fill="url(#windowGlow)" opacity="0.9963588085008592"/>
<rect x="547.5" y="248.6" width="6" height="8" rx="1" fill="url(#windowGlow)" opacity="0.715209687647973"/>
<rect x="552.5" y="284.0" width="10" height="16" rx="2" fill="url(#roof_navyRoof)" opacity="0.8"/>
<rect x="554.5" y="287.0" width="6" height="10" rx="1" fill="url(#windowGlow)" opacity="0.45"/>
<path d="M557.5 250.3 L580.7 250.3 L577.7 256.3 L560.5 256.3 Z" fill="url(#roof_coralRoof)" opacity="0.8"/>
<rect x="547.4" y="264.6" width="20.3" height="5" rx="1" fill="#15803d" opacity="0.7"/>
<circle cx="550.4" cy="263.6" r="2.5" fill="#f87171" opacity="0.85"/>
<circle cx="557.1" cy="263.6" r="2.5" fill="#fb923c" opacity="0.85"/>
<circle cx="563.9" cy="263.6" r="2.5" fill="#a78bfa" opacity="0.85"/>
<rect x="935.0" y="196.9" width="46.6" height="103.1" rx="3" fill="url(#bldg_sky)" opacity="1"/>
<rect x="944.3" y="184.5" width="27.9" height="12.4" rx="2" fill="url(#roof_navyRoof)" opacity="1"/>
<rect x="948.3" y="206.9" width="6" height="8" rx="1" fill="url(#windowGlow)" opacity="0.8197471977769151"/>
<rect x="962.3" y="206.9" width="6" height="8" rx="1" fill="url(#windowGlow)" opacity="0.7579465855182831"/>
<rect x="948.3" y="221.9" width="6" height="8" rx="1" fill="url(#windowGlow)" opacity="0.9827430218843478"/>
<rect x="962.3" y="221.9" width="6" height="8" rx="1" fill="url(#windowGlow)" opacity="0.942142343820139"/>
<rect x="962.3" y="236.9" width="6" height="8" rx="1" fill="url(#windowGlow)" opacity="0.9687204726826029"/>
<rect x="948.3" y="251.9" width="6" height="8" rx="1" fill="url(#windowGlow)" opacity="0.8888144075352765"/>
<rect x="962.3" y="251.9" width="6" height="8" rx="1" fill="url(#windowGlow)" opacity="0.8761552585643507"/>
<rect x="953.3" y="284.0" width="10" height="16" rx="2" fill="url(#roof_navyRoof)" opacity="0.8"/>
<rect x="955.3" y="287.0" width="6" height="10" rx="1" fill="url(#windowGlow)" opacity="0.45"/>
<rect x="393.2" y="265.8" width="6" height="19.2" rx="2" fill="#15803d"/>
<circle cx="396.2" cy="253.6" r="16.2" fill="#22c55e" opacity="0.9"/>
<circle cx="388.1" cy="256.6" r="12.2" fill="#16a34a" opacity="0.8"/>
<circle cx="402.2" cy="257.6" r="11.4" fill="#15803d" opacity="0.7"/>
<rect x="757.7" y="265.9" width="6" height="19.1" rx="2" fill="#15803d"/>
<circle cx="760.7" cy="252.4" r="17.5" fill="#22c55e" opacity="0.9"/>
<circle cx="753.4" cy="255.4" r="13.1" fill="#16a34a" opacity="0.8"/>
<circle cx="768.5" cy="256.4" r="12.3" fill="#15803d" opacity="0.7"/>
<rect x="171.5" y="265.6" width="6" height="19.4" rx="2" fill="#15803d"/>
<circle cx="174.5" cy="251.7" r="17.9" fill="#22c55e" opacity="0.9"/>
<circle cx="165.9" cy="254.7" r="13.4" fill="#16a34a" opacity="0.8"/>
<circle cx="181.9" cy="255.7" r="12.5" fill="#15803d" opacity="0.7"/>
<rect x="1003.6" y="266.6" width="6" height="18.4" rx="2" fill="#15803d"/>
<circle cx="1006.6" cy="254.4" r="16.2" fill="#22c55e" opacity="0.9"/>
<circle cx="999.2" cy="257.4" r="12.1" fill="#16a34a" opacity="0.8"/>
<circle cx="1012.5" cy="258.4" r="11.3" fill="#15803d" opacity="0.7"/>
<rect x="1098.6" y="267.7" width="6" height="17.3" rx="2" fill="#15803d"/>
<circle cx="1101.6" cy="258.5" r="13.2" fill="#22c55e" opacity="0.9"/>
<circle cx="1093.4" cy="261.5" r="9.9" fill="#16a34a" opacity="0.8"/>
<circle cx="1108.6" cy="262.5" r="9.3" fill="#15803d" opacity="0.7"/>
<rect x="810.9" y="267.7" width="6" height="17.3" rx="2" fill="#15803d"/>
<circle cx="813.9" cy="257.7" r="14.0" fill="#22c55e" opacity="0.9"/>
<circle cx="805.9" cy="260.7" r="10.5" fill="#16a34a" opacity="0.8"/>
<circle cx="821.4" cy="261.7" r="9.8" fill="#15803d" opacity="0.7"/>
<rect x="570.2" y="263.6" width="6" height="21.4" rx="2" fill="#15803d"/>
<circle cx="573.2" cy="253.9" r="13.7" fill="#22c55e" opacity="0.9"/>
<circle cx="564.7" cy="256.9" r="10.3" fill="#16a34a" opacity="0.8"/>
<circle cx="578.3" cy="257.9" r="9.6" fill="#15803d" opacity="0.7"/>
<rect x="806.0" y="266.1" width="6" height="18.9" rx="2" fill="#15803d"/>
<circle cx="809.0" cy="253.1" r="17.0" fill="#22c55e" opacity="0.9"/>
<circle cx="802.5" cy="256.1" r="12.8" fill="#16a34a" opacity="0.8"/>
<circle cx="816.5" cy="257.1" r="11.9" fill="#15803d" opacity="0.7"/>
<rect x="821.0" y="265.9" width="6" height="19.1" rx="2" fill="#15803d"/>
<circle cx="824.0" cy="256.7" r="13.2" fill="#22c55e" opacity="0.9"/>
<circle cx="815.1" cy="259.7" r="9.9" fill="#16a34a" opacity="0.8"/>
<circle cx="829.9" cy="260.7" r="9.2" fill="#15803d" opacity="0.7"/>
<rect x="1139.5" y="266.3" width="6" height="18.7" rx="2" fill="#15803d"/>
<circle cx="1142.5" cy="255.2" r="15.2" fill="#22c55e" opacity="0.9"/>
<circle cx="1136.3" cy="258.2" r="11.4" fill="#16a34a" opacity="0.8"/>
<circle cx="1149.1" cy="259.2" r="10.6" fill="#15803d" opacity="0.7"/>
<rect x="0" y="282" width="1200" height="18" fill="url(#groundGrad)"/>
<line x1="823.8" y1="282.0" x2="823.8" y2="245.4" stroke="#92400e" stroke-width="2"/>
<circle cx="823.8" cy="245.4" r="4" fill="#fef08a" opacity="0.6"/>
<circle cx="823.8" cy="245.4" r="8" fill="#fef08a" opacity="0.15" filter="url(#softGlow)"/>
<line x1="715.6" y1="282.0" x2="715.6" y2="247.1" stroke="#92400e" stroke-width="2"/>
<circle cx="715.6" cy="247.1" r="4" fill="#fef08a" opacity="0.6"/>
<circle cx="715.6" cy="247.1" r="8" fill="#fef08a" opacity="0.15" filter="url(#softGlow)"/>
<ellipse cx="31.4" cy="282.0" rx="6.6" ry="4.6" fill="#22c55e" opacity="0.6"/>
<ellipse cx="270.6" cy="282.0" rx="6.1" ry="4.2" fill="#22c55e" opacity="0.6"/>
<ellipse cx="908.7" cy="282.0" rx="4.4" ry="3.1" fill="#22c55e" opacity="0.6"/>
</svg>