<svg xmlns="http://www.w3.org/2000/svg" viewBox="0 0 1200 300" width="1200" height="300">
<defs><linearGradient id="skyGrad" x1="0" y1="0" x2="0" y2="1"><stop offset="0%" stop-color="#e6ecf2"/><stop offset="100%" stop-color="#f0eeec"/></linearGradient></defs><rect width="1200" height="300" fill="url(#skyGrad)"/>
<path d="M0 300 L0 202.3 C338.6 186.0, 1003.3 189.5, 1200 202.3 L1200 300 Z" fill="#b5cad8" opacity="0.25"/>
<ellipse cx="1010.2" cy="228.7" rx="155.1" ry="40.6" fill="#88b2ce" opacity="0.55"/>
<path d="M875.0 228.7 Q1010.2 225.7 1145.3 228.7" fill="none" stroke="#a4c4da" stroke-width="1" opacity="0.35"/>
<rect x="60.2" y="159.9" width="83.7" height="140.1" fill="#99b6c9"/>
<rect x="74.8" y="135.2" width="54.4" height="24.7" fill="#91adbf"/>
<rect x="274.9" y="132.7" width="53.6" height="167.3" fill="#99b6c9"/>
<rect x="502.6" y="210.6" width="44.7" height="89.4" fill="#99b6c9"/>
<rect x="658.2" y="136.6" width="62.8" height="163.4" fill="#99b6c9"/>
<rect x="840.1" y="197.7" width="53.5" height="102.3" fill="#99b6c9"/>
<rect x="849.5" y="179.6" width="34.8" height="18.1" fill="#91adbf"/>
<rect x="1059.8" y="176.4" width="72.6" height="123.6" fill="#99b6c9"/>
<rect x="86.9" y="139.0" width="45.8" height="161.0" fill="#6a95b1"/>
<rect x="99.8" y="151.0" width="6" height="8" fill="#9ebacc" opacity="0.5"/>
<rect x="113.8" y="151.0" width="6" height="8" fill="#9ebacc" opacity="0.5"/>
<rect x="99.8" y="167.0" width="6" height="8" fill="#9ebacc" opacity="0.5"/>
<rect x="113.8" y="167.0" width="6" height="8" fill="#9ebacc" opacity="0.5"/>
<rect x="99.8" y="183.0" width="6" height="8" fill="#9ebacc" opacity="0.5"/>
<rect x="113.8" y="183.0" width="6" height="8" fill="#9ebacc" opacity="0.5"/>
<rect x="99.8" y="215.0" width="6" height="8" fill="#9ebacc" opacity="0.5"/>
<rect x="113.8" y="215.0" width="6" height="8" fill="#9ebacc" opacity="0.5"/>
<rect x="263.5" y="100.8" width="41.4" height="199.2" fill="#6a95b1"/>
<rect x="281.2" y="112.8" width="6" height="8" fill="#9ebacc" opacity="0.5"/>
<rect x="281.2" y="144.8" width="6" height="8" fill="#9ebacc" opacity="0.5"/>
<rect x="281.2" y="160.8" width="6" height="8" fill="#9ebacc" opacity="0.5"/>
<rect x="281.2" y="176.8" width="6" height="8" fill="#9ebacc" opacity="0.5"/>
<rect x="407.0" y="205.8" width="48.3" height="94.2" fill="#6a95b1"/>
<rect x="415.4" y="189.2" width="31.4" height="16.6" fill="#658ea8"/>
<rect x="421.1" y="201.2" width="6" height="8" fill="#9ebacc" opacity="0.5"/>
<rect x="435.1" y="201.2" width="6" height="8" fill="#9ebacc" opacity="0.5"/>
<rect x="421.1" y="233.2" width="6" height="8" fill="#9ebacc" opacity="0.5"/>
<rect x="435.1" y="233.2" width="6" height="8" fill="#9ebacc" opacity="0.5"/>
<rect x="421.1" y="249.2" width="6" height="8" fill="#9ebacc" opacity="0.5"/>
<rect x="435.1" y="249.2" width="6" height="8" fill="#9ebacc" opacity="0.5"/>
<rect x="421.1" y="265.2" width="6" height="8" fill="#9ebacc" opacity="0.5"/>
<rect x="435.1" y="265.2" width="6" height="8" fill="#9ebacc" opacity="0.5"/>
<rect x="577.1" y="82.4" width="40.1" height="217.6" fill="#6a95b1"/>
<rect x="594.2" y="94.4" width="6" height="8" fill="#9ebacc" opacity="0.5"/>
<rect x="594.2" y="126.4" width="6" height="8" fill="#9ebacc" opacity="0.5"/>
<rect x="594.2" y="142.4" width="6" height="8" fill="#9ebacc" opacity="0.5"/>
<rect x="594.2" y="158.4" width="6" height="8" fill="#9ebacc" opacity="0.5"/>
<rect x="749.2" y="174.0" width="71.6" height="126.0" fill="#6a95b1"/>
<polygon points="749.2,174.0 785.0,156.1 820.8,174.0" fill="#6289a3"/>
<rect x="782.0" y="186.0" width="6" height="8" fill="#9ebacc" opacity="0.5"/>
<rect x="768.0" y="202.0" width="6" height="8" fill="#9ebacc" opacity="0.5"/>
<rect x="782.0" y="218.0" width="6" height="8" fill="#9ebacc" opacity="0.5"/>
<rect x="796.0" y="218.0" width="6" height="8" fill="#9ebacc" opacity="0.5"/>
<rect x="768.0" y="234.0" width="6" height="8" fill="#9ebacc" opacity="0.5"/>
<rect x="782.0" y="234.0" width="6" height="8" fill="#9ebacc" opacity="0.5"/>
<rect x="796.0" y="234.0" width="6" height="8" fill="#9ebacc" opacity="0.5"/>
<rect x="768.0" y="250.0" width="6" height="8" fill="#9ebacc" opacity="0.5"/>
<rect x="782.0" y="250.0" width="6" height="8" fill="#9ebacc" opacity="0.5"/>
<rect x="796.0" y="250.0" width="6" height="8" fill="#9ebacc" opacity="0.5"/>
<rect x="768.0" y="266.0" width="6" height="8" fill="#9ebacc" opacity="0.5"/>
<rect x="782.0" y="266.0" width="6" height="8" fill="#9ebacc" opacity="0.5"/>
<rect x="796.0" y="266.0" width="6" height="8" fill="#9ebacc" opacity="0.5"/>
<rect x="923.0" y="78.4" width="40.5" height="221.6" fill="#6a95b1"/>
<rect x="940.3" y="122.4" width="6" height="8" fill="#9ebacc" opacity="0.5"/>
<rect x="940.3" y="154.4" width="6" height="8" fill="#9ebacc" opacity="0.5"/>
<rect x="1041.9" y="125.0" width="79.9" height="175.0" fill="#6a95b1"/>
<rect x="1064.9" y="137.0" width="6" height="8" fill="#9ebacc" opacity="0.5"/>
<rect x="1064.9" y="153.0" width="6" height="8" fill="#9ebacc" opacity="0.5"/>
<rect x="1078.9" y="153.0" width="6" height="8" fill="#9ebacc" opacity="0.5"/>
<rect x="1064.9" y="169.0" width="6" height="8" fill="#9ebacc" opacity="0.5"/>
<rect x="1078.9" y="169.0" width="6" height="8" fill="#9ebacc" opacity="0.5"/>
<rect x="1064.9" y="185.0" width="6" height="8" fill="#9ebacc" opacity="0.5"/>
<rect x="1078.9" y="185.0" width="6" height="8" fill="#9ebacc" opacity="0.5"/>
<rect x="1092.9" y="201.0" width="6" height="8" fill="#9ebacc" opacity="0.5"/>
<rect x="1064.9" y="217.0" width="6" height="8" fill="#9ebacc" opacity="0.5"/>
<rect x="1092.9" y="217.0" width="6" height="8" fill="#9ebacc" opacity="0.5"/>
<rect x="104.5" y="163.6" width="36.7" height="136.4" fill="#457b9d"/>
<rect x="119.9" y="175.6" width="6" height="8" fill="#86a9bf" opacity="0.5"/>
<rect x="119.9" y="191.6" width="6" height="8" fill="#86a9bf" opacity="0.5"/>
<rect x="119.9" y="207.6" width="6" height="8" fill="#86a9bf" opacity="0.5"/>
<rect x="119.9" y="223.6" width="6" height="8" fill="#86a9bf" opacity="0.5"/>
<rect x="119.9" y="239.6" width="6" height="8" fill="#86a9bf" opacity="0.5"/>
<rect x="119.9" y="255.6" width="6" height="8" fill="#86a9bf" opacity="0.5"/>
<rect x="272.8" y="91.0" width="48.2" height="209.0" fill="#457b9d"/>
<rect x="286.9" y="103.0" width="6" height="8" fill="#86a9bf" opacity="0.5"/>
<rect x="300.9" y="103.0" width="6" height="8" fill="#86a9bf" opacity="0.5"/>
<rect x="286.9" y="119.0" width="6" height="8" fill="#86a9bf" opacity="0.5"/>
<rect x="300.9" y="119.0" width="6" height="8" fill="#86a9bf" opacity="0.5"/>
<rect x="300.9" y="135.0" width="6" height="8" fill="#86a9bf" opacity="0.5"/>
<rect x="300.9" y="151.0" width="6" height="8" fill="#86a9bf" opacity="0.5"/>
<rect x="300.9" y="167.0" width="6" height="8" fill="#86a9bf" opacity="0.5"/>
<rect x="286.9" y="183.0" width="6" height="8" fill="#86a9bf" opacity="0.5"/>
<rect x="300.9" y="183.0" width="6" height="8" fill="#86a9bf" opacity="0.5"/>
<rect x="482.7" y="42.8" width="49.5" height="257.2" fill="#457b9d"/>
<polygon points="482.7,42.8 507.5,30.5 532.2,42.8" fill="#3f7190"/>
<rect x="511.5" y="54.8" width="6" height="8" fill="#86a9bf" opacity="0.5"/>
<rect x="497.5" y="70.8" width="6" height="8" fill="#86a9bf" opacity="0.5"/>
<rect x="497.5" y="86.8" width="6" height="8" fill="#86a9bf" opacity="0.5"/>
<rect x="511.5" y="86.8" width="6" height="8" fill="#86a9bf" opacity="0.5"/>
<rect x="497.5" y="102.8" width="6" height="8" fill="#86a9bf" opacity="0.5"/>
<rect x="511.5" y="102.8" width="6" height="8" fill="#86a9bf" opacity="0.5"/>
<rect x="497.5" y="134.8" width="6" height="8" fill="#86a9bf" opacity="0.5"/>
<rect x="511.5" y="134.8" width="6" height="8" fill="#86a9bf" opacity="0.5"/>
<line x1="507.5" y1="42.8" x2="507.5" y2="28.1" stroke="#457b9d" stroke-width="2"/>
<rect x="676.7" y="115.8" width="61.8" height="184.2" fill="#457b9d"/>
<polygon points="676.7,115.8 707.7,100.4 738.6,115.8" fill="#3f7190"/>
<rect x="704.7" y="127.8" width="6" height="8" fill="#86a9bf" opacity="0.5"/>
<rect x="718.7" y="127.8" width="6" height="8" fill="#86a9bf" opacity="0.5"/>
<rect x="690.7" y="143.8" width="6" height="8" fill="#86a9bf" opacity="0.5"/>
<rect x="718.7" y="143.8" width="6" height="8" fill="#86a9bf" opacity="0.5"/>
<rect x="690.7" y="159.8" width="6" height="8" fill="#86a9bf" opacity="0.5"/>
<rect x="718.7" y="159.8" width="6" height="8" fill="#86a9bf" opacity="0.5"/>
<rect x="690.7" y="191.8" width="6" height="8" fill="#86a9bf" opacity="0.5"/>
<rect x="718.7" y="191.8" width="6" height="8" fill="#86a9bf" opacity="0.5"/>
<rect x="690.7" y="207.8" width="6" height="8" fill="#86a9bf" opacity="0.5"/>
<rect x="861.7" y="177.0" width="49.3" height="123.0" fill="#457b9d"/>
<rect x="870.3" y="155.3" width="32.1" height="21.7" fill="#427595"/>
<rect x="876.3" y="167.3" width="6" height="8" fill="#86a9bf" opacity="0.5"/>
<rect x="890.3" y="167.3" width="6" height="8" fill="#86a9bf" opacity="0.5"/>
<rect x="890.3" y="199.3" width="6" height="8" fill="#86a9bf" opacity="0.5"/>
<rect x="876.3" y="215.3" width="6" height="8" fill="#86a9bf" opacity="0.5"/>
<rect x="890.3" y="215.3" width="6" height="8" fill="#86a9bf" opacity="0.5"/>
<rect x="890.3" y="231.3" width="6" height="8" fill="#86a9bf" opacity="0.5"/>
<rect x="876.3" y="247.3" width="6" height="8" fill="#86a9bf" opacity="0.5"/>
<rect x="890.3" y="247.3" width="6" height="8" fill="#86a9bf" opacity="0.5"/>
<rect x="1036.2" y="142.1" width="64.4" height="157.9" fill="#457b9d"/>
<rect x="1047.5" y="114.3" width="41.9" height="27.9" fill="#427595"/>
<rect x="1051.4" y="126.3" width="6" height="8" fill="#86a9bf" opacity="0.5"/>
<rect x="1065.4" y="126.3" width="6" height="8" fill="#86a9bf" opacity="0.5"/>
<rect x="1079.4" y="126.3" width="6" height="8" fill="#86a9bf" opacity="0.5"/>
<rect x="1065.4" y="142.3" width="6" height="8" fill="#86a9bf" opacity="0.5"/>
<rect x="1079.4" y="142.3" width="6" height="8" fill="#86a9bf" opacity="0.5"/>
<rect x="1051.4" y="158.3" width="6" height="8" fill="#86a9bf" opacity="0.5"/>
<rect x="1065.4" y="158.3" width="6" height="8" fill="#86a9bf" opacity="0.5"/>
<rect x="1079.4" y="158.3" width="6" height="8" fill="#86a9bf" opacity="0.5"/>
<rect x="1051.4" y="174.3" width="6" height="8" fill="#86a9bf" opacity="0.5"/>
<rect x="1051.4" y="190.3" width="6" height="8" fill="#86a9bf" opacity="0.5"/>
<rect x="1065.4" y="190.3" width="6" height="8" fill="#86a9bf" opacity="0.5"/>
<rect x="1079.4" y="190.3" width="6" height="8" fill="#86a9bf" opacity="0.5"/>
<rect x="1051.4" y="206.3" width="6" height="8" fill="#86a9bf" opacity="0.5"/>
<rect x="1065.4" y="206.3" width="6" height="8" fill="#86a9bf" opacity="0.5"/>
<rect x="1079.4" y="206.3" width="6" height="8" fill="#86a9bf" opacity="0.5"/>
<rect x="556.2" y="40.3" width="24.2" height="259.7" fill="#5888a7" opacity="0.7"/>
<rect x="581.5" y="67.4" width="17.8" height="232.6" fill="#5888a7" opacity="0.7"/>
<rect x="608.6" y="48.0" width="19.4" height="252.0" fill="#5888a7" opacity="0.7"/>
<rect x="628.8" y="58.4" width="22.4" height="241.6" fill="#5888a7" opacity="0.7"/>
<line x1="207.0" y1="285.0" x2="207.0" y2="272.2" stroke="#6b5a42" stroke-width="3"/>
<circle cx="207.0" cy="255.0" r="17.2" fill="#548345"/>
<line x1="401.8" y1="285.0" x2="401.8" y2="273.4" stroke="#6b5a42" stroke-width="3"/>
<circle cx="401.8" cy="255.5" r="17.9" fill="#568647"/>
<rect x="0" y="285" width="1200" height="15" fill="#9aaa85" opacity="0.4"/>
</svg>