<svg xmlns="http://www.w3.org/2000/svg" viewBox="0 0 1200 400" width="1200" height="400">
<defs>
<linearGradient id="bg" x1="0" y1="0" x2="0" y2="1"><stop offset="0%" stop-color="#166534"/><stop offset="100%" stop-color="#3b82f6"/></linearGradient>
<linearGradient id="warm" x1="0" y1="0" x2="1" y2="1"><stop offset="0%" stop-color="#948f86" stop-opacity="0.18"/><stop offset="100%" stop-color="#948f86" stop-opacity="0.06"/></linearGradient>
</defs>
<rect width="1200" height="400" fill="url(#bg)"/>
<path d="M0 400 L0 224.41785857993798 C60.0 225.0, 90.0 219.4, 150.0 227.1 C210.0 234.6, 240.0 213.0, 300.0 221.1 C360.0 228.8, 390.0 240.4, 450.0 245.0 C510.0 240.3, 540.0 240.1, 600.0 231.8 C660.0 223.7, 690.0 211.7, 750.0 204.7 C810.0 196.5, 840.0 235.0, 900.0 235.8 C960.0 233.9, 990.0 233.7, 1050.0 226.3 C1110.0 221.7, 1140.0 237.9, 1200.0 244.3 L1200 400 Z" fill="#2e78b2" opacity="0.45"/>
<path d="M0 400 L0 253.18327593773546 C52.5 256.9, 97.5 255.6, 150.0 258.6 C202.5 256.8, 247.5 256.9, 300.0 264.1 C352.5 258.3, 397.5 252.8, 450.0 253.6 C502.5 259.6, 547.5 253.0, 600.0 248.3 C652.5 255.1, 697.5 248.7, 750.0 254.0 C802.5 248.4, 847.5 258.6, 900.0 253.2 C952.5 259.8, 997.5 253.3, 1050.0 245.9 C1102.5 243.8, 1147.5 260.7, 1200.0 259.9 L1200 400 Z" fill="#3b82f6" opacity="0.3"/>
<rect x="446.9" y="304.0" width="17.6" height="96.0" rx="0.8" fill="#ba891e" opacity="0.74"/>
<rect x="799.3" y="239.9" width="32.6" height="160.1" rx="1.4" fill="#998758" opacity="0.65"/>
<rect x="489.1" y="263.1" width="26.5" height="136.9" rx="1.2" fill="#a68840" opacity="0.81"/>
<rect x="494.1" y="273.1" width="4" height="5" rx="0.5" fill="#166534" opacity="0.6"/>
<rect x="494.1" y="317.1" width="4" height="5" rx="0.5" fill="#166534" opacity="0.6"/>
<rect x="494.1" y="339.1" width="4" height="5" rx="0.5" fill="#166534" opacity="0.6"/>
<rect x="488.7" y="290.7" width="29.1" height="109.3" rx="1.7" fill="#938761" opacity="0.76"/>
<rect x="1025.0" y="316.5" width="21.2" height="83.5" rx="0.5" fill="#b2892c" opacity="0.82"/>
<rect x="886.6" y="279.6" width="19.9" height="120.4" rx="1.6" fill="#c48a0e" opacity="0.65"/>
<rect x="891.6" y="289.6" width="4" height="5" rx="0.5" fill="#166534" opacity="0.6"/>
<rect x="891.6" y="355.6" width="4" height="5" rx="0.5" fill="#166534" opacity="0.6"/>
<rect x="813.3" y="301.7" width="36.7" height="98.3" rx="1.9" fill="#83867c" opacity="0.71"/>
<rect x="830.5" y="311.7" width="4" height="5" rx="0.5" fill="#166534" opacity="0.6"/>
<rect x="818.3" y="333.7" width="4" height="5" rx="0.5" fill="#166534" opacity="0.6"/>
<rect x="830.5" y="333.7" width="4" height="5" rx="0.5" fill="#166534" opacity="0.6"/>
<rect x="209.3" y="245.4" width="18.0" height="154.6" rx="1.6" fill="#bd891b" opacity="0.53"/>
<rect x="999.7" y="307.7" width="32.2" height="92.3" rx="0.8" fill="#818680" opacity="0.82"/>
<rect x="1004.7" y="317.7" width="4" height="5" rx="0.5" fill="#166534" opacity="0.6"/>
<rect x="1015.5" y="317.7" width="4" height="5" rx="0.5" fill="#166534" opacity="0.6"/>
<rect x="1004.7" y="339.7" width="4" height="5" rx="0.5" fill="#166534" opacity="0.6"/>
<rect x="1015.5" y="339.7" width="4" height="5" rx="0.5" fill="#166534" opacity="0.6"/>
<rect x="1004.7" y="361.7" width="4" height="5" rx="0.5" fill="#166534" opacity="0.6"/>
<rect x="339.3" y="258.9" width="23.3" height="141.1" rx="1.9" fill="#c08915" opacity="0.74"/>
<rect x="344.3" y="312.9" width="4" height="5" rx="0.5" fill="#166534" opacity="0.6"/>
<rect x="344.3" y="334.9" width="4" height="5" rx="0.5" fill="#166534" opacity="0.6"/>
<rect x="985.1" y="275.1" width="16.4" height="124.9" rx="0.6" fill="#918765" opacity="0.81"/>
<rect x="502.9" y="321.2" width="17.5" height="78.8" rx="1.9" fill="#bb891e" opacity="0.65"/>
<rect x="972.3" y="266.9" width="48.5" height="133.1" rx="1.6" fill="#a28848" opacity="0.75"/>
<rect x="977.3" y="276.9" width="4" height="5" rx="0.5" fill="#166534" opacity="0.6"/>
<rect x="993.4" y="276.9" width="4" height="5" rx="0.5" fill="#166534" opacity="0.6"/>
<rect x="977.3" y="298.9" width="4" height="5" rx="0.5" fill="#166534" opacity="0.6"/>
<rect x="993.4" y="298.9" width="4" height="5" rx="0.5" fill="#166534" opacity="0.6"/>
<rect x="977.3" y="320.9" width="4" height="5" rx="0.5" fill="#166534" opacity="0.6"/>
<rect x="977.3" y="342.9" width="4" height="5" rx="0.5" fill="#166534" opacity="0.6"/>
<rect x="608.3" y="334.1" width="31.6" height="65.9" rx="1.4" fill="#9f884d" opacity="0.68"/>
<rect x="768.5" y="348.2" width="15.2" height="51.8" rx="1.8" fill="#bd891a" opacity="0.70"/>
<rect x="982.4" y="308.0" width="46.9" height="92.0" rx="0.4" fill="#b2892d" opacity="0.75"/>
<rect x="129.0" y="305.7" width="35.2" height="94.3" rx="0.7" fill="#988759" opacity="0.69"/>
<rect x="145.8" y="315.7" width="4" height="5" rx="0.5" fill="#166534" opacity="0.6"/>
<rect x="134.0" y="337.7" width="4" height="5" rx="0.5" fill="#166534" opacity="0.6"/>
<rect x="134.0" y="359.7" width="4" height="5" rx="0.5" fill="#166534" opacity="0.6"/>
<line x1="213.4" y1="53.4" x2="277.6" y2="53.4" stroke="#166534" stroke-width="1.6" opacity="0.20"/>
<line x1="57.8" y1="42.2" x2="90.4" y2="42.2" stroke="#166534" stroke-width="1.1" opacity="0.43"/>
<line x1="63.4" y1="224.4" x2="124.5" y2="224.4" stroke="#ca8a04" stroke-width="2.3" opacity="0.26"/>
<line x1="798.2" y1="74.3" x2="837.3" y2="74.3" stroke="#166534" stroke-width="2.5" opacity="0.44"/>
<line x1="432.2" y1="198.0" x2="461.9" y2="198.0" stroke="#ca8a04" stroke-width="1.5" opacity="0.44"/>
<line x1="828.2" y1="111.2" x2="897.1" y2="111.2" stroke="#166534" stroke-width="1.1" opacity="0.28"/>
<line x1="473.4" y1="119.0" x2="509.9" y2="119.0" stroke="#166534" stroke-width="1.8" opacity="0.40"/>
<line x1="839.5" y1="105.2" x2="891.1" y2="105.2" stroke="#166534" stroke-width="1.9" opacity="0.42"/>
<line x1="276.7" y1="112.8" x2="356.0" y2="112.8" stroke="#ca8a04" stroke-width="1.7" opacity="0.32"/>
<line x1="351.6" y1="192.9" x2="378.2" y2="192.9" stroke="#166534" stroke-width="1.9" opacity="0.24"/>
<line x1="481.7" y1="43.8" x2="553.5" y2="43.8" stroke="#ca8a04" stroke-width="2.1" opacity="0.26"/>
<line x1="765.2" y1="9.1" x2="798.4" y2="9.1" stroke="#ca8a04" stroke-width="1.3" opacity="0.32"/>
<rect width="1200" height="400" fill="url(#warm)"/>
<rect width="1200" height="400" fill="#166534" opacity="0.45"/>
</svg>