<svg xmlns="http://www.w3.org/2000/svg" viewBox="0 0 1200 400" width="1200" height="400">
<defs>
<linearGradient id="bg" x1="0" y1="0" x2="0" y2="1"><stop offset="0%" stop-color="#94a3b8"/><stop offset="100%" stop-color="#0369a1"/></linearGradient>
<linearGradient id="warm" x1="0" y1="0" x2="1" y2="1"><stop offset="0%" stop-color="#b6955a" stop-opacity="0.18"/><stop offset="100%" stop-color="#b6955a" stop-opacity="0.06"/></linearGradient>
</defs>
<rect width="1200" height="400" fill="url(#bg)"/>
<path d="M0 400 L0 241.33667097965065 C60.0 248.5, 90.0 229.2, 150.0 232.1 C210.0 237.6, 240.0 217.6, 300.0 220.3 C360.0 225.2, 390.0 252.1, 450.0 245.0 C510.0 237.4, 540.0 222.9, 600.0 226.2 C660.0 219.5, 690.0 246.5, 750.0 242.8 C810.0 242.8, 840.0 237.4, 900.0 233.2 C960.0 228.6, 990.0 212.1, 1050.0 219.2 C1110.0 224.5, 1140.0 233.0, 1200.0 229.2 L1200 400 Z" fill="#367da9" opacity="0.45"/>
<path d="M0 400 L0 260.3591147789631 C52.5 265.2, 97.5 263.7, 150.0 260.4 C202.5 263.3, 247.5 260.6, 300.0 258.9 C352.5 252.5, 397.5 262.3, 450.0 256.5 C502.5 251.1, 547.5 275.6, 600.0 273.5 C652.5 278.6, 697.5 263.6, 750.0 264.5 C802.5 259.1, 847.5 255.8, 900.0 259.1 C952.5 253.9, 997.5 261.9, 1050.0 262.3 C1102.5 266.8, 1147.5 263.6, 1200.0 264.5 L1200 400 Z" fill="#0369a1" opacity="0.3"/>
<rect x="605.1" y="312.3" width="27.6" height="87.7" rx="4.1" fill="#04847f" opacity="0.59"/>
<rect x="610.1" y="322.3" width="4" height="5" rx="0.5" fill="#94a3b8" opacity="0.6"/>
<rect x="610.1" y="344.3" width="4" height="5" rx="0.5" fill="#94a3b8" opacity="0.6"/>
<rect x="130.2" y="345.2" width="34.6" height="54.8" rx="4.2" fill="#048183" opacity="0.72"/>
<rect x="574.0" y="368.7" width="26.8" height="31.3" rx="7.1" fill="#059669" opacity="0.56"/>
<rect x="276.2" y="309.1" width="20.3" height="90.9" rx="3.6" fill="#048183" opacity="0.73"/>
<rect x="280.3" y="335.2" width="37.1" height="64.8" rx="4.6" fill="#058d74" opacity="0.70"/>
<rect x="614.8" y="310.5" width="24.4" height="89.5" rx="4.4" fill="#04887a" opacity="0.63"/>
<rect x="472.4" y="267.7" width="48.1" height="132.3" rx="3.5" fill="#048979" opacity="0.65"/>
<rect x="212.0" y="363.8" width="40.5" height="36.2" rx="5.9" fill="#047e87" opacity="0.67"/>
<rect x="404.2" y="296.7" width="49.7" height="103.3" rx="7.9" fill="#047e86" opacity="0.63"/>
<rect x="230.4" y="261.2" width="37.1" height="138.8" rx="7.6" fill="#05956b" opacity="0.83"/>
<rect x="235.4" y="271.2" width="4" height="5" rx="0.5" fill="#94a3b8" opacity="0.6"/>
<rect x="235.4" y="293.2" width="4" height="5" rx="0.5" fill="#94a3b8" opacity="0.6"/>
<rect x="235.4" y="315.2" width="4" height="5" rx="0.5" fill="#94a3b8" opacity="0.6"/>
<rect x="247.7" y="315.2" width="4" height="5" rx="0.5" fill="#94a3b8" opacity="0.6"/>
<rect x="235.4" y="337.2" width="4" height="5" rx="0.5" fill="#94a3b8" opacity="0.6"/>
<rect x="247.7" y="337.2" width="4" height="5" rx="0.5" fill="#94a3b8" opacity="0.6"/>
<rect x="844.5" y="318.5" width="46.1" height="81.5" rx="7.1" fill="#047f86" opacity="0.56"/>
<rect x="653.8" y="323.9" width="35.4" height="76.1" rx="7.3" fill="#04857e" opacity="0.59"/>
<rect x="1057.6" y="268.5" width="35.3" height="131.5" rx="7.0" fill="#059070" opacity="0.53"/>
<rect x="584.4" y="351.1" width="18.5" height="48.9" rx="4.7" fill="#058b77" opacity="0.56"/>
<circle cx="38.7" cy="68.9" r="6.9" fill="#94a3b8" opacity="0.27"/>
<circle cx="1175.5" cy="8.3" r="7.8" fill="#94a3b8" opacity="0.15"/>
<rect width="1200" height="400" fill="url(#warm)"/>
<rect width="1200" height="400" fill="#94a3b8" opacity="0.39"/>
</svg>