<svg xmlns="http://www.w3.org/2000/svg" viewBox="0 0 1200 300" width="1200" height="300">
<defs><linearGradient id="skyGrad" x1="0" y1="0" x2="0" y2="1"><stop offset="0%" stop-color="#e8f0f8"/><stop offset="100%" stop-color="#f5e6d8"/></linearGradient></defs><rect width="1200" height="300" fill="url(#skyGrad)"/>
<rect x="105.2" y="194.0" width="57.9" height="106.0" fill="#8aabb4"/>
<polygon points="105.2,194.0 134.2,179.6 163.1,194.0" fill="#7f9da6"/>
<rect x="444.2" y="215.0" width="50.2" height="85.0" fill="#8aabb4"/>
<rect x="703.5" y="183.0" width="41.2" height="117.0" fill="#8aabb4"/>
<rect x="1022.2" y="229.2" width="57.8" height="70.8" fill="#8aabb4"/>
<rect x="1032.3" y="216.7" width="37.5" height="12.5" fill="#83a2ab"/>
<rect x="134.2" y="211.3" width="68.5" height="88.7" fill="#558592"/>
<polygon points="134.2,211.3 168.5,194.2 202.7,211.3" fill="#4e7a86"/>
<rect x="179.5" y="223.3" width="6" height="8" fill="#91b0b8" opacity="0.5"/>
<rect x="151.5" y="239.3" width="6" height="8" fill="#91b0b8" opacity="0.5"/>
<rect x="165.5" y="239.3" width="6" height="8" fill="#91b0b8" opacity="0.5"/>
<rect x="179.5" y="239.3" width="6" height="8" fill="#91b0b8" opacity="0.5"/>
<rect x="151.5" y="255.3" width="6" height="8" fill="#91b0b8" opacity="0.5"/>
<rect x="165.5" y="255.3" width="6" height="8" fill="#91b0b8" opacity="0.5"/>
<rect x="151.5" y="271.3" width="6" height="8" fill="#91b0b8" opacity="0.5"/>
<rect x="179.5" y="271.3" width="6" height="8" fill="#91b0b8" opacity="0.5"/>
<rect x="324.1" y="161.8" width="50.2" height="138.2" fill="#558592"/>
<rect x="339.1" y="173.8" width="6" height="8" fill="#91b0b8" opacity="0.5"/>
<rect x="339.1" y="189.8" width="6" height="8" fill="#91b0b8" opacity="0.5"/>
<rect x="339.1" y="221.8" width="6" height="8" fill="#91b0b8" opacity="0.5"/>
<rect x="353.1" y="221.8" width="6" height="8" fill="#91b0b8" opacity="0.5"/>
<rect x="339.1" y="237.8" width="6" height="8" fill="#91b0b8" opacity="0.5"/>
<rect x="339.1" y="253.8" width="6" height="8" fill="#91b0b8" opacity="0.5"/>
<rect x="353.1" y="253.8" width="6" height="8" fill="#91b0b8" opacity="0.5"/>
<rect x="585.6" y="198.3" width="57.4" height="101.7" fill="#558592"/>
<polygon points="585.6,198.3 614.3,183.9 643.1,198.3" fill="#4e7a86"/>
<rect x="604.3" y="226.3" width="6" height="8" fill="#91b0b8" opacity="0.5"/>
<rect x="618.3" y="242.3" width="6" height="8" fill="#91b0b8" opacity="0.5"/>
<rect x="604.3" y="258.3" width="6" height="8" fill="#91b0b8" opacity="0.5"/>
<rect x="825.1" y="161.7" width="41.6" height="138.3" fill="#558592"/>
<rect x="842.9" y="237.7" width="6" height="8" fill="#91b0b8" opacity="0.5"/>
<rect x="1015.8" y="208.2" width="41.4" height="91.8" fill="#558592"/>
<rect x="1033.5" y="220.2" width="6" height="8" fill="#91b0b8" opacity="0.5"/>
<rect x="1033.5" y="252.2" width="6" height="8" fill="#91b0b8" opacity="0.5"/>
<rect x="1033.5" y="268.2" width="6" height="8" fill="#91b0b8" opacity="0.5"/>
<rect x="176.5" y="195.4" width="32.7" height="104.6" fill="#2b6777"/>
<polygon points="176.5,195.4 192.9,187.2 209.3,195.4" fill="#285f6d"/>
<rect x="189.9" y="207.4" width="6" height="8" fill="#759ca7" opacity="0.5"/>
<rect x="189.9" y="223.4" width="6" height="8" fill="#759ca7" opacity="0.5"/>
<rect x="189.9" y="239.4" width="6" height="8" fill="#759ca7" opacity="0.5"/>
<rect x="189.9" y="271.4" width="6" height="8" fill="#759ca7" opacity="0.5"/>
<rect x="421.2" y="211.2" width="37.4" height="88.8" fill="#2b6777"/>
<rect x="427.7" y="195.6" width="24.3" height="15.7" fill="#296271"/>
<rect x="436.9" y="223.6" width="6" height="8" fill="#759ca7" opacity="0.5"/>
<rect x="436.9" y="271.6" width="6" height="8" fill="#759ca7" opacity="0.5"/>
<rect x="728.0" y="149.1" width="67.1" height="150.9" fill="#2b6777"/>
<rect x="744.5" y="161.1" width="6" height="8" fill="#759ca7" opacity="0.5"/>
<rect x="758.5" y="161.1" width="6" height="8" fill="#759ca7" opacity="0.5"/>
<rect x="772.5" y="161.1" width="6" height="8" fill="#759ca7" opacity="0.5"/>
<rect x="758.5" y="177.1" width="6" height="8" fill="#759ca7" opacity="0.5"/>
<rect x="772.5" y="177.1" width="6" height="8" fill="#759ca7" opacity="0.5"/>
<rect x="744.5" y="193.1" width="6" height="8" fill="#759ca7" opacity="0.5"/>
<rect x="772.5" y="193.1" width="6" height="8" fill="#759ca7" opacity="0.5"/>
<rect x="744.5" y="209.1" width="6" height="8" fill="#759ca7" opacity="0.5"/>
<rect x="772.5" y="209.1" width="6" height="8" fill="#759ca7" opacity="0.5"/>
<rect x="758.5" y="225.1" width="6" height="8" fill="#759ca7" opacity="0.5"/>
<rect x="772.5" y="225.1" width="6" height="8" fill="#759ca7" opacity="0.5"/>
<rect x="744.5" y="241.1" width="6" height="8" fill="#759ca7" opacity="0.5"/>
<rect x="772.5" y="241.1" width="6" height="8" fill="#759ca7" opacity="0.5"/>
<rect x="962.3" y="121.7" width="57.3" height="178.3" fill="#2b6777"/>
<polygon points="962.3,121.7 990.9,107.4 1019.6,121.7" fill="#285f6d"/>
<rect x="980.9" y="133.7" width="6" height="8" fill="#759ca7" opacity="0.5"/>
<rect x="994.9" y="133.7" width="6" height="8" fill="#759ca7" opacity="0.5"/>
<rect x="980.9" y="149.7" width="6" height="8" fill="#759ca7" opacity="0.5"/>
<rect x="994.9" y="149.7" width="6" height="8" fill="#759ca7" opacity="0.5"/>
<rect x="980.9" y="165.7" width="6" height="8" fill="#759ca7" opacity="0.5"/>
<rect x="994.9" y="165.7" width="6" height="8" fill="#759ca7" opacity="0.5"/>
<rect x="980.9" y="181.7" width="6" height="8" fill="#759ca7" opacity="0.5"/>
<rect x="994.9" y="181.7" width="6" height="8" fill="#759ca7" opacity="0.5"/>
<rect x="980.9" y="197.7" width="6" height="8" fill="#759ca7" opacity="0.5"/>
<rect x="994.9" y="213.7" width="6" height="8" fill="#759ca7" opacity="0.5"/>
<path d="M315.2 285.0 Q334.0 258.6 328.4 232.3" fill="none" stroke="#7e684d" stroke-width="3"/>
<path d="M328.4 232.3 Q313.9 222.0 304.3 221.8" fill="none" stroke="#437f39" stroke-width="2.5"/>
<path d="M328.4 232.3 Q333.5 219.4 336.9 216.6" fill="none" stroke="#437f39" stroke-width="2.5"/>
<path d="M328.4 232.3 Q340.7 227.3 348.9 232.3" fill="none" stroke="#437f39" stroke-width="2.5"/>
<path d="M328.4 232.3 Q331.9 232.7 334.3 243.2" fill="none" stroke="#437f39" stroke-width="2.5"/>
<path d="M328.4 232.3 Q317.2 231.3 309.8 240.4" fill="none" stroke="#437f39" stroke-width="2.5"/>
<path d="M593.3 285.0 Q611.0 263.3 605.7 241.6" fill="none" stroke="#816b4f" stroke-width="3"/>
<path d="M605.7 241.6 Q594.6 232.5 587.2 233.5" fill="none" stroke="#47873d" stroke-width="2.5"/>
<path d="M605.7 241.6 Q609.4 230.8 611.9 230.1" fill="none" stroke="#47873d" stroke-width="2.5"/>
<path d="M605.7 241.6 Q616.7 236.6 624.0 241.6" fill="none" stroke="#47873d" stroke-width="2.5"/>
<path d="M605.7 241.6 Q609.6 242.7 612.3 253.8" fill="none" stroke="#47873d" stroke-width="2.5"/>
<path d="M605.7 241.6 Q594.4 240.7 586.9 249.8" fill="none" stroke="#47873d" stroke-width="2.5"/>
<path d="M878.7 285.0 Q908.6 260.9 899.6 236.8" fill="none" stroke="#776249" stroke-width="3"/>
<path d="M899.6 236.8 Q887.8 227.6 879.9 228.3" fill="none" stroke="#4a8c3f" stroke-width="2.5"/>
<path d="M899.6 236.8 Q903.0 226.7 905.2 226.6" fill="none" stroke="#4a8c3f" stroke-width="2.5"/>
<path d="M899.6 236.8 Q917.0 231.8 928.6 236.8" fill="none" stroke="#4a8c3f" stroke-width="2.5"/>
<path d="M899.6 236.8 Q903.2 237.3 905.5 247.8" fill="none" stroke="#4a8c3f" stroke-width="2.5"/>
<path d="M899.6 236.8 Q887.3 236.3 879.0 245.8" fill="none" stroke="#4a8c3f" stroke-width="2.5"/>
<path d="M661.6 285.0 Q681.2 260.4 675.3 235.8" fill="none" stroke="#846d51" stroke-width="3"/>
<path d="M675.3 235.8 Q663.2 226.4 655.1 227.0" fill="none" stroke="#45823b" stroke-width="2.5"/>
<path d="M675.3 235.8 Q679.2 224.9 681.7 224.1" fill="none" stroke="#45823b" stroke-width="2.5"/>
<path d="M675.3 235.8 Q686.4 230.8 693.7 235.8" fill="none" stroke="#45823b" stroke-width="2.5"/>
<path d="M675.3 235.8 Q680.2 238.3 683.5 250.8" fill="none" stroke="#45823b" stroke-width="2.5"/>
<path d="M675.3 235.8 Q661.5 235.8 652.3 245.8" fill="none" stroke="#45823b" stroke-width="2.5"/>
<path d="M989.3 285.0 Q1012.7 264.9 1005.7 244.9" fill="none" stroke="#8a7254" stroke-width="3"/>
<path d="M1005.7 244.9 Q992.7 235.2 984.1 235.5" fill="none" stroke="#498a3e" stroke-width="2.5"/>
<path d="M1005.7 244.9 Q1010.6 232.4 1013.8 229.9" fill="none" stroke="#498a3e" stroke-width="2.5"/>
<path d="M1005.7 244.9 Q1019.4 239.9 1028.5 244.9" fill="none" stroke="#498a3e" stroke-width="2.5"/>
<path d="M1005.7 244.9 Q1009.8 246.3 1012.6 257.6" fill="none" stroke="#498a3e" stroke-width="2.5"/>
<path d="M1005.7 244.9 Q993.1 244.5 984.7 254.1" fill="none" stroke="#498a3e" stroke-width="2.5"/>
<rect x="0" y="285" width="1200" height="15" fill="#d4c5a9" opacity="0.4"/>
<circle cx="1013.4" cy="24.4" r="34.5" fill="#f5e6a0" opacity="0.1"/>
</svg>