<svg xmlns="http://www.w3.org/2000/svg" viewBox="0 0 1200 300" width="1200" height="300">
<defs>
<linearGradient id="skyGrad" x1="0" y1="0" x2="0" y2="1">
<stop offset="0%" stop-color="#a78bfa"/>
<stop offset="18%" stop-color="#ddb4f0"/>
<stop offset="35%" stop-color="#fda4af"/>
<stop offset="52%" stop-color="#fdba74"/>
<stop offset="72%" stop-color="#fef08a"/>
<stop offset="100%" stop-color="#fef9c3"/>
</linearGradient>
<linearGradient id="bldg_coral" x1="0" y1="0" x2="0" y2="1"><stop offset="0%" stop-color="#fecaca"/><stop offset="100%" stop-color="#fca5a5"/></linearGradient>
<linearGradient id="bldg_teal" x1="0" y1="0" x2="0" y2="1"><stop offset="0%" stop-color="#99f6e4"/><stop offset="100%" stop-color="#5eead4"/></linearGradient>
<linearGradient id="bldg_amber" x1="0" y1="0" x2="0" y2="1"><stop offset="0%" stop-color="#fde68a"/><stop offset="100%" stop-color="#fcd34d"/></linearGradient>
<linearGradient id="bldg_lavender" x1="0" y1="0" x2="0" y2="1"><stop offset="0%" stop-color="#ddd6fe"/><stop offset="100%" stop-color="#c4b5fd"/></linearGradient>
<linearGradient id="bldg_blue" x1="0" y1="0" x2="0" y2="1"><stop offset="0%" stop-color="#bfdbfe"/><stop offset="100%" stop-color="#93c5fd"/></linearGradient>
<linearGradient id="bldg_mint" x1="0" y1="0" x2="0" y2="1"><stop offset="0%" stop-color="#a7f3d0"/><stop offset="100%" stop-color="#6ee7b7"/></linearGradient>
<linearGradient id="bldg_rose" x1="0" y1="0" x2="0" y2="1"><stop offset="0%" stop-color="#fecdd3"/><stop offset="100%" stop-color="#fda4af"/></linearGradient>
<linearGradient id="bldg_sky" x1="0" y1="0" x2="0" y2="1"><stop offset="0%" stop-color="#bae6fd"/><stop offset="100%" stop-color="#7dd3fc"/></linearGradient>
<linearGradient id="roof_navyRoof" x1="0" y1="0" x2="0" y2="1"><stop offset="0%" stop-color="#4338ca"/><stop offset="100%" stop-color="#3730a3"/></linearGradient>
<linearGradient id="roof_coralRoof" x1="0" y1="0" x2="0" y2="1"><stop offset="0%" stop-color="#f87171"/><stop offset="100%" stop-color="#ef4444"/></linearGradient>
<linearGradient id="roof_tealRoof" x1="0" y1="0" x2="0" y2="1"><stop offset="0%" stop-color="#2dd4bf"/><stop offset="100%" stop-color="#14b8a6"/></linearGradient>
<radialGradient id="windowGlow" cx="50%" cy="50%" r="50%"><stop offset="0%" stop-color="#fef08a"/><stop offset="60%" stop-color="#fbbf24"/><stop offset="100%" stop-color="#f59e0b"/></radialGradient>
<linearGradient id="hillFar" x1="0" y1="0" x2="0" y2="1"><stop offset="0%" stop-color="#c4b5fd"/><stop offset="100%" stop-color="#a5b4fc"/></linearGradient>
<linearGradient id="hillMid" x1="0" y1="0" x2="0" y2="1"><stop offset="0%" stop-color="#86efac"/><stop offset="100%" stop-color="#4ade80"/></linearGradient>
<linearGradient id="hillNear" x1="0" y1="0" x2="0" y2="1"><stop offset="0%" stop-color="#34d399"/><stop offset="100%" stop-color="#10b981"/></linearGradient>
<linearGradient id="hillDesertFar" x1="0" y1="0" x2="0" y2="1"><stop offset="0%" stop-color="#fde68a"/><stop offset="100%" stop-color="#fcd34d"/></linearGradient>
<linearGradient id="hillDesertMid" x1="0" y1="0" x2="0" y2="1"><stop offset="0%" stop-color="#fcd34d"/><stop offset="100%" stop-color="#fbbf24"/></linearGradient>
<linearGradient id="hillDesertNear" x1="0" y1="0" x2="0" y2="1"><stop offset="0%" stop-color="#fbbf24"/><stop offset="100%" stop-color="#f59e0b"/></linearGradient>
<linearGradient id="groundGrad" x1="0" y1="0" x2="0" y2="1"><stop offset="0%" stop-color="#fef3c7"/><stop offset="100%" stop-color="#fde68a"/></linearGradient>
<linearGradient id="waterGrad" x1="0" y1="0" x2="0" y2="1"><stop offset="0%" stop-color="#bfdbfe"/><stop offset="100%" stop-color="#93c5fd"/></linearGradient>
<filter id="softGlow" x="-50%" y="-50%" width="200%" height="200%"><feGaussianBlur in="SourceGraphic" stdDeviation="12"/></filter>
</defs>
<rect width="1200" height="300" fill="url(#skyGrad)"/>
<circle cx="996.1" cy="43.6" r="45" fill="#fef08a" opacity="0.12" filter="url(#softGlow)"/>
<circle cx="996.1" cy="43.6" r="30" fill="#fde68a" opacity="0.18" filter="url(#softGlow)"/>
<circle cx="996.1" cy="43.6" r="16" fill="#fef9c3" opacity="0.25" filter="url(#softGlow)"/>
<path d="M0 300 L0.0 198.4 C151.4 198.4, 151.4 176.8, 302.8 176.8 C584.6 176.8, 584.6 176.6, 866.5 176.6 C1033.3 176.6, 1033.3 186.2, 1200.0 186.2 L1200 300 Z" fill="url(#hillFar)" opacity="0.5"/>
<path d="M0 300 L0.0 205.3 C228.9 205.3, 228.9 214.2, 457.8 214.2 C643.2 214.2, 643.2 208.0, 828.6 208.0 C1014.3 208.0, 1014.3 207.3, 1200.0 207.3 L1200 300 Z" fill="url(#hillMid)" opacity="0.7"/>
<path d="M0 300 L0.0 233.2 C159.1 233.2, 159.1 234.7, 318.3 234.7 C574.9 234.7, 574.9 228.2, 831.5 228.2 C1015.7 228.2, 1015.7 228.3, 1200.0 228.3 L1200 300 Z" fill="url(#hillNear)" opacity="1"/>
<rect x="159.6" y="166.5" width="47.9" height="133.5" rx="3" fill="url(#bldg_amber)" opacity="0.7"/>
<polygon points="159.6,166.5 183.5,151.9 207.4,166.5" fill="url(#roof_tealRoof)" opacity="0.7"/>
<rect x="173.5" y="176.5" width="6" height="8" rx="1" fill="url(#windowGlow)" opacity="0.9695362848553509"/>
<rect x="173.5" y="191.5" width="6" height="8" rx="1" fill="url(#windowGlow)" opacity="0.7835575813351001"/>
<rect x="187.5" y="191.5" width="6" height="8" rx="1" fill="url(#windowGlow)" opacity="0.7632106424137999"/>
<rect x="173.5" y="206.5" width="6" height="8" rx="1" fill="url(#windowGlow)" opacity="0.8736777931794886"/>
<rect x="187.5" y="206.5" width="6" height="8" rx="1" fill="url(#windowGlow)" opacity="0.8896180889986539"/>
<rect x="173.5" y="221.5" width="6" height="8" rx="1" fill="url(#windowGlow)" opacity="0.9266113674857706"/>
<rect x="187.5" y="221.5" width="6" height="8" rx="1" fill="url(#windowGlow)" opacity="0.9071094048708255"/>
<rect x="173.5" y="236.5" width="6" height="8" rx="1" fill="url(#windowGlow)" opacity="0.7878220092448508"/>
<rect x="187.5" y="236.5" width="6" height="8" rx="1" fill="url(#windowGlow)" opacity="0.9852323863586561"/>
<rect x="173.5" y="251.5" width="6" height="8" rx="1" fill="url(#windowGlow)" opacity="0.7255845503535049"/>
<rect x="187.5" y="251.5" width="6" height="8" rx="1" fill="url(#windowGlow)" opacity="0.8962714934238565"/>
<rect x="445.0" y="186.3" width="79.6" height="113.7" rx="3" fill="url(#bldg_lavender)" opacity="0.7"/>
<rect x="460.9" y="172.6" width="47.8" height="13.6" rx="2" fill="url(#roof_navyRoof)" opacity="0.7"/>
<rect x="460.8" y="196.3" width="6" height="8" rx="1" fill="url(#windowGlow)" opacity="0.8372680813713316"/>
<rect x="474.8" y="196.3" width="6" height="8" rx="1" fill="url(#windowGlow)" opacity="0.8079843382853942"/>
<rect x="488.8" y="196.3" width="6" height="8" rx="1" fill="url(#windowGlow)" opacity="0.858012185878126"/>
<rect x="502.8" y="196.3" width="6" height="8" rx="1" fill="url(#windowGlow)" opacity="0.8774222710996038"/>
<rect x="488.8" y="211.3" width="6" height="8" rx="1" fill="url(#windowGlow)" opacity="0.807288462625485"/>
<rect x="502.8" y="211.3" width="6" height="8" rx="1" fill="url(#windowGlow)" opacity="0.7825909773272419"/>
<rect x="460.8" y="226.3" width="6" height="8" rx="1" fill="url(#windowGlow)" opacity="0.8251928811544519"/>
<rect x="474.8" y="226.3" width="6" height="8" rx="1" fill="url(#windowGlow)" opacity="0.9238691114931689"/>
<rect x="488.8" y="226.3" width="6" height="8" rx="1" fill="url(#windowGlow)" opacity="0.7495345267697864"/>
<rect x="502.8" y="226.3" width="6" height="8" rx="1" fill="url(#windowGlow)" opacity="0.7391744947243363"/>
<rect x="460.8" y="241.3" width="6" height="8" rx="1" fill="url(#windowGlow)" opacity="0.7133173496524418"/>
<rect x="474.8" y="241.3" width="6" height="8" rx="1" fill="url(#windowGlow)" opacity="0.9402079005912913"/>
<rect x="488.8" y="241.3" width="6" height="8" rx="1" fill="url(#windowGlow)" opacity="0.9955833554712977"/>
<rect x="460.8" y="256.3" width="6" height="8" rx="1" fill="url(#windowGlow)" opacity="0.8601780482848072"/>
<rect x="502.8" y="256.3" width="6" height="8" rx="1" fill="url(#windowGlow)" opacity="0.7917954294904114"/>
<rect x="697.8" y="185.8" width="81.3" height="114.2" rx="3" fill="url(#bldg_blue)" opacity="0.7"/>
<rect x="697.8" y="182.8" width="81.3" height="3" rx="1" fill="url(#roof_coralRoof)" opacity="0.7"/>
<rect x="728.4" y="195.8" width="6" height="8" rx="1" fill="url(#windowGlow)" opacity="0.9914576252882636"/>
<rect x="742.4" y="195.8" width="6" height="8" rx="1" fill="url(#windowGlow)" opacity="0.9178169746500519"/>
<rect x="756.4" y="195.8" width="6" height="8" rx="1" fill="url(#windowGlow)" opacity="0.9860397022152504"/>
<rect x="714.4" y="210.8" width="6" height="8" rx="1" fill="url(#windowGlow)" opacity="0.9255333508018093"/>
<rect x="728.4" y="210.8" width="6" height="8" rx="1" fill="url(#windowGlow)" opacity="0.765749093967373"/>
<rect x="742.4" y="210.8" width="6" height="8" rx="1" fill="url(#windowGlow)" opacity="0.8960995674580798"/>
<rect x="756.4" y="210.8" width="6" height="8" rx="1" fill="url(#windowGlow)" opacity="0.7768380037401048"/>
<rect x="714.4" y="225.8" width="6" height="8" rx="1" fill="url(#windowGlow)" opacity="0.8030226951479086"/>
<rect x="728.4" y="225.8" width="6" height="8" rx="1" fill="url(#windowGlow)" opacity="0.705526743505861"/>
<rect x="714.4" y="240.8" width="6" height="8" rx="1" fill="url(#windowGlow)" opacity="0.7375130119442534"/>
<rect x="728.4" y="240.8" width="6" height="8" rx="1" fill="url(#windowGlow)" opacity="0.8571193026644732"/>
<rect x="742.4" y="240.8" width="6" height="8" rx="1" fill="url(#windowGlow)" opacity="0.7274421088990951"/>
<rect x="756.4" y="240.8" width="6" height="8" rx="1" fill="url(#windowGlow)" opacity="0.8305603109442443"/>
<rect x="714.4" y="255.8" width="6" height="8" rx="1" fill="url(#windowGlow)" opacity="0.962713088077825"/>
<rect x="756.4" y="255.8" width="6" height="8" rx="1" fill="url(#windowGlow)" opacity="0.8559958462864141"/>
<rect x="988.9" y="218.6" width="81.5" height="81.4" rx="3" fill="url(#bldg_mint)" opacity="0.7"/>
<polygon points="988.9,218.6 1029.7,199.9 1070.4,218.6" fill="url(#roof_tealRoof)" opacity="0.7"/>
<rect x="1005.7" y="228.6" width="6" height="8" rx="1" fill="url(#windowGlow)" opacity="0.7508341516139144"/>
<rect x="1019.7" y="228.6" width="6" height="8" rx="1" fill="url(#windowGlow)" opacity="0.8060763845248503"/>
<rect x="1033.7" y="228.6" width="6" height="8" rx="1" fill="url(#windowGlow)" opacity="0.7747096077421258"/>
<rect x="1047.7" y="228.6" width="6" height="8" rx="1" fill="url(#windowGlow)" opacity="0.8023529693495263"/>
<rect x="1005.7" y="243.6" width="6" height="8" rx="1" fill="url(#windowGlow)" opacity="0.7239415562357481"/>
<rect x="1019.7" y="243.6" width="6" height="8" rx="1" fill="url(#windowGlow)" opacity="0.9627982786683358"/>
<rect x="1033.7" y="243.6" width="6" height="8" rx="1" fill="url(#windowGlow)" opacity="0.9147979167824601"/>
<rect x="1047.7" y="243.6" width="6" height="8" rx="1" fill="url(#windowGlow)" opacity="0.7037317301629724"/>
<rect x="1005.7" y="258.6" width="6" height="8" rx="1" fill="url(#windowGlow)" opacity="0.7851919638855345"/>
<rect x="1019.7" y="258.6" width="6" height="8" rx="1" fill="url(#windowGlow)" opacity="0.790944025102511"/>
<rect x="1033.7" y="258.6" width="6" height="8" rx="1" fill="url(#windowGlow)" opacity="0.8813400426326972"/>
<rect x="1047.7" y="258.6" width="6" height="8" rx="1" fill="url(#windowGlow)" opacity="0.9473509558231341"/>
<rect x="188.0" y="146.4" width="46.1" height="153.6" rx="3" fill="url(#bldg_rose)" opacity="0.85"/>
<rect x="197.3" y="127.9" width="27.7" height="18.4" rx="2" fill="url(#roof_navyRoof)" opacity="0.85"/>
<rect x="201.1" y="156.4" width="6" height="8" rx="1" fill="url(#windowGlow)" opacity="0.9492696937403035"/>
<rect x="215.1" y="156.4" width="6" height="8" rx="1" fill="url(#windowGlow)" opacity="0.8777711211600205"/>
<rect x="201.1" y="171.4" width="6" height="8" rx="1" fill="url(#windowGlow)" opacity="0.9627196247050164"/>
<rect x="215.1" y="171.4" width="6" height="8" rx="1" fill="url(#windowGlow)" opacity="0.8135247927687711"/>
<rect x="201.1" y="186.4" width="6" height="8" rx="1" fill="url(#windowGlow)" opacity="0.8756622217482245"/>
<rect x="215.1" y="186.4" width="6" height="8" rx="1" fill="url(#windowGlow)" opacity="0.841374122603505"/>
<rect x="215.1" y="201.4" width="6" height="8" rx="1" fill="url(#windowGlow)" opacity="0.7317011207024106"/>
<rect x="201.1" y="216.4" width="6" height="8" rx="1" fill="url(#windowGlow)" opacity="0.7015968284111455"/>
<rect x="215.1" y="216.4" width="6" height="8" rx="1" fill="url(#windowGlow)" opacity="0.739916047984695"/>
<rect x="201.1" y="231.4" width="6" height="8" rx="1" fill="url(#windowGlow)" opacity="0.8980625820802816"/>
<rect x="215.1" y="231.4" width="6" height="8" rx="1" fill="url(#windowGlow)" opacity="0.9037636947369965"/>
<rect x="201.1" y="246.4" width="6" height="8" rx="1" fill="url(#windowGlow)" opacity="0.9785776648570679"/>
<rect x="215.1" y="246.4" width="6" height="8" rx="1" fill="url(#windowGlow)" opacity="0.7345608846911047"/>
<path d="M211.1 200.1 L229.5 200.1 L226.5 206.1 L214.1 206.1 Z" fill="url(#roof_tealRoof)" opacity="0.68"/>
<rect x="423.5" y="217.0" width="63.0" height="83.0" rx="3" fill="url(#bldg_sky)" opacity="0.85"/>
<rect x="423.5" y="214.0" width="63.0" height="3" rx="1" fill="url(#roof_coralRoof)" opacity="0.85"/>
<rect x="438.1" y="227.0" width="6" height="8" rx="1" fill="url(#windowGlow)" opacity="0.9604827017804992"/>
<rect x="438.1" y="242.0" width="6" height="8" rx="1" fill="url(#windowGlow)" opacity="0.7404056353682678"/>
<rect x="452.1" y="242.0" width="6" height="8" rx="1" fill="url(#windowGlow)" opacity="0.7105639257517475"/>
<rect x="466.1" y="242.0" width="6" height="8" rx="1" fill="url(#windowGlow)" opacity="0.703973957525554"/>
<rect x="438.1" y="257.0" width="6" height="8" rx="1" fill="url(#windowGlow)" opacity="0.82733187746598"/>
<rect x="452.1" y="257.0" width="6" height="8" rx="1" fill="url(#windowGlow)" opacity="0.9855591874036748"/>
<rect x="466.1" y="257.0" width="6" height="8" rx="1" fill="url(#windowGlow)" opacity="0.9122268622798039"/>
<rect x="688.0" y="190.4" width="60.7" height="109.6" rx="3" fill="url(#bldg_coral)" opacity="0.85"/>
<rect x="688.0" y="187.4" width="60.7" height="3" rx="1" fill="url(#roof_tealRoof)" opacity="0.85"/>
<rect x="701.4" y="200.4" width="6" height="8" rx="1" fill="url(#windowGlow)" opacity="0.9480765912905691"/>
<rect x="715.4" y="200.4" width="6" height="8" rx="1" fill="url(#windowGlow)" opacity="0.9086097992065407"/>
<rect x="729.4" y="200.4" width="6" height="8" rx="1" fill="url(#windowGlow)" opacity="0.9662981005694242"/>
<rect x="701.4" y="215.4" width="6" height="8" rx="1" fill="url(#windowGlow)" opacity="0.7997226078527618"/>
<rect x="729.4" y="215.4" width="6" height="8" rx="1" fill="url(#windowGlow)" opacity="0.8292540611835448"/>
<rect x="701.4" y="230.4" width="6" height="8" rx="1" fill="url(#windowGlow)" opacity="0.9290179976862939"/>
<rect x="715.4" y="230.4" width="6" height="8" rx="1" fill="url(#windowGlow)" opacity="0.7239347554389083"/>
<rect x="729.4" y="230.4" width="6" height="8" rx="1" fill="url(#windowGlow)" opacity="0.8783808737426907"/>
<rect x="701.4" y="245.4" width="6" height="8" rx="1" fill="url(#windowGlow)" opacity="0.8963627798931499"/>
<rect x="715.4" y="245.4" width="6" height="8" rx="1" fill="url(#windowGlow)" opacity="0.9674728294683028"/>
<rect x="701.4" y="260.4" width="6" height="8" rx="1" fill="url(#windowGlow)" opacity="0.8331863593930314"/>
<rect x="715.4" y="260.4" width="6" height="8" rx="1" fill="url(#windowGlow)" opacity="0.7817463986024942"/>
<rect x="729.4" y="260.4" width="6" height="8" rx="1" fill="url(#windowGlow)" opacity="0.8406968201234456"/>
<rect x="1004.4" y="130.1" width="73.3" height="169.9" rx="3" fill="url(#bldg_teal)" opacity="0.85"/>
<rect x="1004.4" y="127.1" width="73.3" height="3" rx="1" fill="url(#roof_navyRoof)" opacity="0.85"/>
<rect x="1017.1" y="140.1" width="6" height="8" rx="1" fill="url(#windowGlow)" opacity="0.737252277898254"/>
<rect x="1031.1" y="140.1" width="6" height="8" rx="1" fill="url(#windowGlow)" opacity="0.7717831331639472"/>
<rect x="1045.1" y="140.1" width="6" height="8" rx="1" fill="url(#windowGlow)" opacity="0.9647727749612055"/>
<rect x="1017.1" y="155.1" width="6" height="8" rx="1" fill="url(#windowGlow)" opacity="0.8225320380285996"/>
<rect x="1031.1" y="155.1" width="6" height="8" rx="1" fill="url(#windowGlow)" opacity="0.7527622821520837"/>
<rect x="1045.1" y="155.1" width="6" height="8" rx="1" fill="url(#windowGlow)" opacity="0.8506827341628646"/>
<rect x="1045.1" y="170.1" width="6" height="8" rx="1" fill="url(#windowGlow)" opacity="0.8173037112305424"/>
<rect x="1059.1" y="170.1" width="6" height="8" rx="1" fill="url(#windowGlow)" opacity="0.8253479491571654"/>
<rect x="1031.1" y="185.1" width="6" height="8" rx="1" fill="url(#windowGlow)" opacity="0.8001529877074774"/>
<rect x="1045.1" y="185.1" width="6" height="8" rx="1" fill="url(#windowGlow)" opacity="0.8250422839191939"/>
<rect x="1017.1" y="200.1" width="6" height="8" rx="1" fill="url(#windowGlow)" opacity="0.7797016836142641"/>
<rect x="1031.1" y="200.1" width="6" height="8" rx="1" fill="url(#windowGlow)" opacity="0.9262938569422317"/>
<rect x="1059.1" y="200.1" width="6" height="8" rx="1" fill="url(#windowGlow)" opacity="0.732874618439411"/>
<rect x="1017.1" y="215.1" width="6" height="8" rx="1" fill="url(#windowGlow)" opacity="0.9686053849610524"/>
<rect x="1045.1" y="215.1" width="6" height="8" rx="1" fill="url(#windowGlow)" opacity="0.7135960822988283"/>
<rect x="1059.1" y="215.1" width="6" height="8" rx="1" fill="url(#windowGlow)" opacity="0.8349839867721237"/>
<rect x="1017.1" y="230.1" width="6" height="8" rx="1" fill="url(#windowGlow)" opacity="0.8491931725988132"/>
<rect x="1031.1" y="230.1" width="6" height="8" rx="1" fill="url(#windowGlow)" opacity="0.8774091511859601"/>
<rect x="1045.1" y="230.1" width="6" height="8" rx="1" fill="url(#windowGlow)" opacity="0.7267716707786412"/>
<rect x="1059.1" y="230.1" width="6" height="8" rx="1" fill="url(#windowGlow)" opacity="0.8498759833862427"/>
<rect x="1017.1" y="245.1" width="6" height="8" rx="1" fill="url(#windowGlow)" opacity="0.7743150040853373"/>
<rect x="1045.1" y="245.1" width="6" height="8" rx="1" fill="url(#windowGlow)" opacity="0.9277654482646684"/>
<rect x="156.8" y="136.9" width="51.9" height="163.1" rx="3" fill="url(#bldg_amber)" opacity="1"/>
<rect x="167.2" y="117.4" width="31.1" height="19.6" rx="2" fill="url(#roof_coralRoof)" opacity="1"/>
<rect x="172.8" y="146.9" width="6" height="8" rx="1" fill="url(#windowGlow)" opacity="0.79686571773927"/>
<rect x="186.8" y="146.9" width="6" height="8" rx="1" fill="url(#windowGlow)" opacity="0.83386863094469"/>
<rect x="172.8" y="161.9" width="6" height="8" rx="1" fill="url(#windowGlow)" opacity="0.9087321336421799"/>
<rect x="186.8" y="161.9" width="6" height="8" rx="1" fill="url(#windowGlow)" opacity="0.7562791844160665"/>
<rect x="172.8" y="176.9" width="6" height="8" rx="1" fill="url(#windowGlow)" opacity="0.7275382913777317"/>
<rect x="186.8" y="176.9" width="6" height="8" rx="1" fill="url(#windowGlow)" opacity="0.9103714872199908"/>
<rect x="186.8" y="191.9" width="6" height="8" rx="1" fill="url(#windowGlow)" opacity="0.8553335082974907"/>
<rect x="172.8" y="206.9" width="6" height="8" rx="1" fill="url(#windowGlow)" opacity="0.9430299651543749"/>
<rect x="186.8" y="206.9" width="6" height="8" rx="1" fill="url(#windowGlow)" opacity="0.7544028016526264"/>
<rect x="172.8" y="221.9" width="6" height="8" rx="1" fill="url(#windowGlow)" opacity="0.9482582884599725"/>
<rect x="186.8" y="221.9" width="6" height="8" rx="1" fill="url(#windowGlow)" opacity="0.8212606572645067"/>
<rect x="186.8" y="236.9" width="6" height="8" rx="1" fill="url(#windowGlow)" opacity="0.7915067702957925"/>
<rect x="186.8" y="251.9" width="6" height="8" rx="1" fill="url(#windowGlow)" opacity="0.8353186844081238"/>
<rect x="177.8" y="284.0" width="10" height="16" rx="2" fill="url(#roof_navyRoof)" opacity="0.8"/>
<rect x="179.8" y="287.0" width="6" height="10" rx="1" fill="url(#windowGlow)" opacity="0.45"/>
<path d="M182.8 194.0 L203.5 194.0 L200.5 200.0 L185.8 200.0 Z" fill="url(#roof_navyRoof)" opacity="0.8"/>
<rect x="423.4" y="172.7" width="57.9" height="127.3" rx="3" fill="url(#bldg_lavender)" opacity="1"/>
<rect x="435.0" y="157.4" width="34.7" height="15.3" rx="2" fill="url(#roof_tealRoof)" opacity="1"/>
<rect x="442.3" y="182.7" width="6" height="8" rx="1" fill="url(#windowGlow)" opacity="0.9129557605427483"/>
<rect x="456.3" y="182.7" width="6" height="8" rx="1" fill="url(#windowGlow)" opacity="0.7411974945763113"/>
<rect x="442.3" y="197.7" width="6" height="8" rx="1" fill="url(#windowGlow)" opacity="0.7684993550966025"/>
<rect x="456.3" y="197.7" width="6" height="8" rx="1" fill="url(#windowGlow)" opacity="0.8123875334916578"/>
<rect x="442.3" y="212.7" width="6" height="8" rx="1" fill="url(#windowGlow)" opacity="0.9147749609848368"/>
<rect x="456.3" y="212.7" width="6" height="8" rx="1" fill="url(#windowGlow)" opacity="0.8204277237972373"/>
<rect x="442.3" y="227.7" width="6" height="8" rx="1" fill="url(#windowGlow)" opacity="0.9788048921054251"/>
<rect x="442.3" y="242.7" width="6" height="8" rx="1" fill="url(#windowGlow)" opacity="0.8073787946754036"/>
<rect x="456.3" y="242.7" width="6" height="8" rx="1" fill="url(#windowGlow)" opacity="0.812613391835528"/>
<rect x="442.3" y="257.7" width="6" height="8" rx="1" fill="url(#windowGlow)" opacity="0.8831273349854756"/>
<rect x="456.3" y="257.7" width="6" height="8" rx="1" fill="url(#windowGlow)" opacity="0.801647406584419"/>
<rect x="447.3" y="284.0" width="10" height="16" rx="2" fill="url(#roof_navyRoof)" opacity="0.8"/>
<rect x="449.3" y="287.0" width="6" height="10" rx="1" fill="url(#windowGlow)" opacity="0.45"/>
<path d="M452.3 217.2 L475.5 217.2 L472.5 223.2 L455.3 223.2 Z" fill="url(#roof_coralRoof)" opacity="0.8"/>
<rect x="723.0" y="115.8" width="43.2" height="184.2" rx="3" fill="url(#bldg_blue)" opacity="1"/>
<polygon points="723.0,115.8 744.7,101.5 766.3,115.8" fill="url(#roof_navyRoof)" opacity="1"/>
<rect x="741.7" y="125.8" width="6" height="8" rx="1" fill="url(#windowGlow)" opacity="0.8834385951438166"/>
<rect x="741.7" y="140.8" width="6" height="8" rx="1" fill="url(#windowGlow)" opacity="0.7296541113078846"/>
<rect x="741.7" y="155.8" width="6" height="8" rx="1" fill="url(#windowGlow)" opacity="0.9560104410890538"/>
<rect x="741.7" y="185.8" width="6" height="8" rx="1" fill="url(#windowGlow)" opacity="0.9640347506217819"/>
<rect x="741.7" y="200.8" width="6" height="8" rx="1" fill="url(#windowGlow)" opacity="0.9287184467672922"/>
<rect x="741.7" y="215.8" width="6" height="8" rx="1" fill="url(#windowGlow)" opacity="0.8608411201093537"/>
<rect x="739.7" y="284.0" width="10" height="16" rx="2" fill="url(#roof_navyRoof)" opacity="0.8"/>
<rect x="741.7" y="287.0" width="6" height="10" rx="1" fill="url(#windowGlow)" opacity="0.45"/>
<rect x="1014.2" y="149.0" width="46.3" height="151.0" rx="3" fill="url(#bldg_mint)" opacity="1"/>
<polygon points="1014.2,149.0 1037.4,137.7 1060.5,149.0" fill="url(#roof_coralRoof)" opacity="1"/>
<rect x="1041.4" y="159.0" width="6" height="8" rx="1" fill="url(#windowGlow)" opacity="0.9758115296605097"/>
<rect x="1027.4" y="174.0" width="6" height="8" rx="1" fill="url(#windowGlow)" opacity="0.9625493631058136"/>
<rect x="1041.4" y="174.0" width="6" height="8" rx="1" fill="url(#windowGlow)" opacity="0.8525814312289381"/>
<rect x="1027.4" y="189.0" width="6" height="8" rx="1" fill="url(#windowGlow)" opacity="0.9917959852571581"/>
<rect x="1027.4" y="204.0" width="6" height="8" rx="1" fill="url(#windowGlow)" opacity="0.8144377484053549"/>
<rect x="1041.4" y="204.0" width="6" height="8" rx="1" fill="url(#windowGlow)" opacity="0.8335186092339076"/>
<rect x="1027.4" y="219.0" width="6" height="8" rx="1" fill="url(#windowGlow)" opacity="0.8541825657031418"/>
<rect x="1041.4" y="219.0" width="6" height="8" rx="1" fill="url(#windowGlow)" opacity="0.7762863222399197"/>
<rect x="1027.4" y="234.0" width="6" height="8" rx="1" fill="url(#windowGlow)" opacity="0.9038416947721697"/>
<rect x="1041.4" y="249.0" width="6" height="8" rx="1" fill="url(#windowGlow)" opacity="0.9984650986261969"/>
<rect x="1032.4" y="284.0" width="10" height="16" rx="2" fill="url(#roof_navyRoof)" opacity="0.8"/>
<rect x="1034.4" y="287.0" width="6" height="10" rx="1" fill="url(#windowGlow)" opacity="0.45"/>
<path d="M316.1 285.0 Q343.1 260.6 332.3 236.2" stroke="#92400e" stroke-width="4" fill="none" stroke-linecap="round"/>
<path d="M332.3 236.2 Q320.7 225.4 312.9 225.6" stroke="#16a34a" stroke-width="2.5" fill="none" stroke-linecap="round"/>
<path d="M332.3 236.2 Q337.7 224.7 341.3 224.2" stroke="#22c55e" stroke-width="2.5" fill="none" stroke-linecap="round"/>
<path d="M332.3 236.2 Q351.8 230.2 364.8 236.2" stroke="#15803d" stroke-width="2.5" fill="none" stroke-linecap="round"/>
<path d="M332.3 236.2 Q338.8 236.8 343.2 250.7" stroke="#4ade80" stroke-width="2.5" fill="none" stroke-linecap="round"/>
<path d="M332.3 236.2 Q321.8 234.6 314.7 245.9" stroke="#16a34a" stroke-width="2.5" fill="none" stroke-linecap="round"/>
<path d="M602.2 285.0 Q627.0 262.9 617.0 240.9" stroke="#92400e" stroke-width="4" fill="none" stroke-linecap="round"/>
<path d="M617.0 240.9 Q608.4 231.3 602.6 232.9" stroke="#16a34a" stroke-width="2.5" fill="none" stroke-linecap="round"/>
<path d="M617.0 240.9 Q624.0 227.9 628.6 225.5" stroke="#22c55e" stroke-width="2.5" fill="none" stroke-linecap="round"/>
<path d="M617.0 240.9 Q631.2 234.9 640.7 240.9" stroke="#15803d" stroke-width="2.5" fill="none" stroke-linecap="round"/>
<path d="M617.0 240.9 Q622.5 240.4 626.2 253.1" stroke="#4ade80" stroke-width="2.5" fill="none" stroke-linecap="round"/>
<path d="M617.0 240.9 Q607.4 238.9 601.0 249.7" stroke="#16a34a" stroke-width="2.5" fill="none" stroke-linecap="round"/>
<path d="M890.2 285.0 Q919.6 254.5 907.8 224.0" stroke="#92400e" stroke-width="4" fill="none" stroke-linecap="round"/>
<path d="M907.8 224.0 Q896.8 213.4 889.5 213.9" stroke="#16a34a" stroke-width="2.5" fill="none" stroke-linecap="round"/>
<path d="M907.8 224.0 Q914.0 211.8 918.1 210.4" stroke="#22c55e" stroke-width="2.5" fill="none" stroke-linecap="round"/>
<path d="M907.8 224.0 Q923.9 218.0 934.5 224.0" stroke="#15803d" stroke-width="2.5" fill="none" stroke-linecap="round"/>
<path d="M907.8 224.0 Q912.7 222.9 916.0 234.9" stroke="#4ade80" stroke-width="2.5" fill="none" stroke-linecap="round"/>
<path d="M907.8 224.0 Q898.4 221.9 892.2 232.6" stroke="#16a34a" stroke-width="2.5" fill="none" stroke-linecap="round"/>
<path d="M107.4 285.0 Q121.8 260.6 116.0 236.2" stroke="#92400e" stroke-width="4" fill="none" stroke-linecap="round"/>
<path d="M116.0 236.2 Q103.9 225.1 95.9 225.1" stroke="#16a34a" stroke-width="2.5" fill="none" stroke-linecap="round"/>
<path d="M116.0 236.2 Q122.7 223.5 127.2 221.4" stroke="#22c55e" stroke-width="2.5" fill="none" stroke-linecap="round"/>
<path d="M116.0 236.2 Q130.1 230.2 139.5 236.2" stroke="#15803d" stroke-width="2.5" fill="none" stroke-linecap="round"/>
<path d="M116.0 236.2 Q123.5 237.7 128.5 252.8" stroke="#4ade80" stroke-width="2.5" fill="none" stroke-linecap="round"/>
<path d="M116.0 236.2 Q106.4 234.2 100.1 244.9" stroke="#16a34a" stroke-width="2.5" fill="none" stroke-linecap="round"/>
<rect x="0" y="282" width="1200" height="18" fill="url(#groundGrad)"/>
<line x1="175.6" y1="282.0" x2="175.6" y2="242.5" stroke="#92400e" stroke-width="2"/>
<circle cx="175.6" cy="242.5" r="4" fill="#fef08a" opacity="0.6"/>
<circle cx="175.6" cy="242.5" r="8" fill="#fef08a" opacity="0.15" filter="url(#softGlow)"/>
<ellipse cx="496.6" cy="282.0" rx="5.6" ry="3.9" fill="#22c55e" opacity="0.6"/>
<ellipse cx="632.7" cy="282.0" rx="4.3" ry="3.0" fill="#22c55e" opacity="0.6"/>
<ellipse cx="686.7" cy="282.0" rx="4.1" ry="2.9" fill="#22c55e" opacity="0.6"/>
<ellipse cx="286.1" cy="282.0" rx="6.0" ry="4.2" fill="#22c55e" opacity="0.6"/>
</svg>