<svg xmlns="http://www.w3.org/2000/svg" viewBox="0 0 1200 300" width="1200" height="300">
<rect width="1200" height="300" fill="#e0eff2"/>
<path d="M0 300 L0 210.0 C376.3 162.8, 816.7 189.0, 1200 210.0 L1200 300 Z" fill="#aac2c9" opacity="0.3"/>
<rect x="129.0" y="188.4" width="69.3" height="111.6" fill="#8aabb4"/>
<rect x="546.5" y="202.2" width="64.2" height="97.8" fill="#8aabb4"/>
<rect x="906.7" y="201.0" width="81.3" height="99.0" fill="#8aabb4"/>
<rect x="187.9" y="145.9" width="38.4" height="154.1" fill="#558592"/>
<rect x="204.1" y="157.9" width="6" height="8" fill="#91b0b8" opacity="0.5"/>
<rect x="204.1" y="173.9" width="6" height="8" fill="#91b0b8" opacity="0.5"/>
<rect x="204.1" y="189.9" width="6" height="8" fill="#91b0b8" opacity="0.5"/>
<rect x="204.1" y="205.9" width="6" height="8" fill="#91b0b8" opacity="0.5"/>
<rect x="204.1" y="253.9" width="6" height="8" fill="#91b0b8" opacity="0.5"/>
<rect x="204.1" y="269.9" width="6" height="8" fill="#91b0b8" opacity="0.5"/>
<rect x="461.6" y="157.5" width="63.2" height="142.5" fill="#558592"/>
<rect x="490.1" y="169.5" width="6" height="8" fill="#91b0b8" opacity="0.5"/>
<rect x="504.1" y="169.5" width="6" height="8" fill="#91b0b8" opacity="0.5"/>
<rect x="476.1" y="185.5" width="6" height="8" fill="#91b0b8" opacity="0.5"/>
<rect x="490.1" y="185.5" width="6" height="8" fill="#91b0b8" opacity="0.5"/>
<rect x="504.1" y="185.5" width="6" height="8" fill="#91b0b8" opacity="0.5"/>
<rect x="476.1" y="201.5" width="6" height="8" fill="#91b0b8" opacity="0.5"/>
<rect x="490.1" y="201.5" width="6" height="8" fill="#91b0b8" opacity="0.5"/>
<rect x="490.1" y="217.5" width="6" height="8" fill="#91b0b8" opacity="0.5"/>
<rect x="504.1" y="217.5" width="6" height="8" fill="#91b0b8" opacity="0.5"/>
<rect x="476.1" y="233.5" width="6" height="8" fill="#91b0b8" opacity="0.5"/>
<rect x="476.1" y="249.5" width="6" height="8" fill="#91b0b8" opacity="0.5"/>
<rect x="476.1" y="265.5" width="6" height="8" fill="#91b0b8" opacity="0.5"/>
<rect x="504.1" y="265.5" width="6" height="8" fill="#91b0b8" opacity="0.5"/>
<rect x="743.6" y="134.3" width="78.6" height="165.7" fill="#558592"/>
<rect x="772.9" y="146.3" width="6" height="8" fill="#91b0b8" opacity="0.5"/>
<rect x="786.9" y="146.3" width="6" height="8" fill="#91b0b8" opacity="0.5"/>
<rect x="800.9" y="146.3" width="6" height="8" fill="#91b0b8" opacity="0.5"/>
<rect x="758.9" y="162.3" width="6" height="8" fill="#91b0b8" opacity="0.5"/>
<rect x="772.9" y="162.3" width="6" height="8" fill="#91b0b8" opacity="0.5"/>
<rect x="786.9" y="162.3" width="6" height="8" fill="#91b0b8" opacity="0.5"/>
<rect x="758.9" y="178.3" width="6" height="8" fill="#91b0b8" opacity="0.5"/>
<rect x="786.9" y="178.3" width="6" height="8" fill="#91b0b8" opacity="0.5"/>
<rect x="800.9" y="178.3" width="6" height="8" fill="#91b0b8" opacity="0.5"/>
<rect x="772.9" y="194.3" width="6" height="8" fill="#91b0b8" opacity="0.5"/>
<rect x="786.9" y="194.3" width="6" height="8" fill="#91b0b8" opacity="0.5"/>
<rect x="800.9" y="194.3" width="6" height="8" fill="#91b0b8" opacity="0.5"/>
<rect x="758.9" y="210.3" width="6" height="8" fill="#91b0b8" opacity="0.5"/>
<rect x="772.9" y="210.3" width="6" height="8" fill="#91b0b8" opacity="0.5"/>
<rect x="786.9" y="210.3" width="6" height="8" fill="#91b0b8" opacity="0.5"/>
<rect x="800.9" y="210.3" width="6" height="8" fill="#91b0b8" opacity="0.5"/>
<rect x="758.9" y="226.3" width="6" height="8" fill="#91b0b8" opacity="0.5"/>
<rect x="772.9" y="226.3" width="6" height="8" fill="#91b0b8" opacity="0.5"/>
<rect x="800.9" y="226.3" width="6" height="8" fill="#91b0b8" opacity="0.5"/>
<rect x="758.9" y="242.3" width="6" height="8" fill="#91b0b8" opacity="0.5"/>
<rect x="772.9" y="242.3" width="6" height="8" fill="#91b0b8" opacity="0.5"/>
<rect x="786.9" y="242.3" width="6" height="8" fill="#91b0b8" opacity="0.5"/>
<rect x="800.9" y="242.3" width="6" height="8" fill="#91b0b8" opacity="0.5"/>
<rect x="758.9" y="258.3" width="6" height="8" fill="#91b0b8" opacity="0.5"/>
<rect x="772.9" y="258.3" width="6" height="8" fill="#91b0b8" opacity="0.5"/>
<rect x="786.9" y="258.3" width="6" height="8" fill="#91b0b8" opacity="0.5"/>
<rect x="1009.2" y="169.9" width="58.2" height="130.1" fill="#558592"/>
<rect x="1035.3" y="181.9" width="6" height="8" fill="#91b0b8" opacity="0.5"/>
<rect x="1021.3" y="197.9" width="6" height="8" fill="#91b0b8" opacity="0.5"/>
<rect x="1035.3" y="197.9" width="6" height="8" fill="#91b0b8" opacity="0.5"/>
<rect x="1049.3" y="197.9" width="6" height="8" fill="#91b0b8" opacity="0.5"/>
<rect x="1021.3" y="213.9" width="6" height="8" fill="#91b0b8" opacity="0.5"/>
<rect x="1035.3" y="213.9" width="6" height="8" fill="#91b0b8" opacity="0.5"/>
<rect x="1021.3" y="229.9" width="6" height="8" fill="#91b0b8" opacity="0.5"/>
<rect x="1035.3" y="229.9" width="6" height="8" fill="#91b0b8" opacity="0.5"/>
<rect x="1021.3" y="245.9" width="6" height="8" fill="#91b0b8" opacity="0.5"/>
<rect x="1035.3" y="245.9" width="6" height="8" fill="#91b0b8" opacity="0.5"/>
<rect x="1021.3" y="261.9" width="6" height="8" fill="#91b0b8" opacity="0.5"/>
<rect x="1035.3" y="261.9" width="6" height="8" fill="#91b0b8" opacity="0.5"/>
<rect x="1049.3" y="261.9" width="6" height="8" fill="#91b0b8" opacity="0.5"/>
<rect x="168.8" y="146.9" width="36.3" height="153.1" fill="#2b6777"/>
<rect x="184.0" y="190.9" width="6" height="8" fill="#759ca7" opacity="0.5"/>
<rect x="184.0" y="206.9" width="6" height="8" fill="#759ca7" opacity="0.5"/>
<rect x="184.0" y="222.9" width="6" height="8" fill="#759ca7" opacity="0.5"/>
<rect x="184.0" y="254.9" width="6" height="8" fill="#759ca7" opacity="0.5"/>
<rect x="450.7" y="120.8" width="71.2" height="179.2" fill="#2b6777"/>
<rect x="469.3" y="132.8" width="6" height="8" fill="#759ca7" opacity="0.5"/>
<rect x="483.3" y="132.8" width="6" height="8" fill="#759ca7" opacity="0.5"/>
<rect x="469.3" y="148.8" width="6" height="8" fill="#759ca7" opacity="0.5"/>
<rect x="483.3" y="148.8" width="6" height="8" fill="#759ca7" opacity="0.5"/>
<rect x="497.3" y="148.8" width="6" height="8" fill="#759ca7" opacity="0.5"/>
<rect x="469.3" y="164.8" width="6" height="8" fill="#759ca7" opacity="0.5"/>
<rect x="483.3" y="164.8" width="6" height="8" fill="#759ca7" opacity="0.5"/>
<rect x="497.3" y="164.8" width="6" height="8" fill="#759ca7" opacity="0.5"/>
<rect x="469.3" y="180.8" width="6" height="8" fill="#759ca7" opacity="0.5"/>
<rect x="483.3" y="180.8" width="6" height="8" fill="#759ca7" opacity="0.5"/>
<rect x="497.3" y="180.8" width="6" height="8" fill="#759ca7" opacity="0.5"/>
<rect x="469.3" y="196.8" width="6" height="8" fill="#759ca7" opacity="0.5"/>
<rect x="483.3" y="196.8" width="6" height="8" fill="#759ca7" opacity="0.5"/>
<rect x="469.3" y="212.8" width="6" height="8" fill="#759ca7" opacity="0.5"/>
<rect x="483.3" y="212.8" width="6" height="8" fill="#759ca7" opacity="0.5"/>
<rect x="497.3" y="212.8" width="6" height="8" fill="#759ca7" opacity="0.5"/>
<rect x="469.3" y="228.8" width="6" height="8" fill="#759ca7" opacity="0.5"/>
<rect x="483.3" y="228.8" width="6" height="8" fill="#759ca7" opacity="0.5"/>
<rect x="497.3" y="228.8" width="6" height="8" fill="#759ca7" opacity="0.5"/>
<rect x="497.3" y="244.8" width="6" height="8" fill="#759ca7" opacity="0.5"/>
<rect x="483.3" y="260.8" width="6" height="8" fill="#759ca7" opacity="0.5"/>
<rect x="497.3" y="260.8" width="6" height="8" fill="#759ca7" opacity="0.5"/>
<rect x="671.8" y="196.3" width="67.7" height="103.7" fill="#2b6777"/>
<rect x="688.6" y="208.3" width="6" height="8" fill="#759ca7" opacity="0.5"/>
<rect x="702.6" y="208.3" width="6" height="8" fill="#759ca7" opacity="0.5"/>
<rect x="716.6" y="208.3" width="6" height="8" fill="#759ca7" opacity="0.5"/>
<rect x="688.6" y="224.3" width="6" height="8" fill="#759ca7" opacity="0.5"/>
<rect x="702.6" y="224.3" width="6" height="8" fill="#759ca7" opacity="0.5"/>
<rect x="716.6" y="224.3" width="6" height="8" fill="#759ca7" opacity="0.5"/>
<rect x="688.6" y="240.3" width="6" height="8" fill="#759ca7" opacity="0.5"/>
<rect x="702.6" y="240.3" width="6" height="8" fill="#759ca7" opacity="0.5"/>
<rect x="716.6" y="240.3" width="6" height="8" fill="#759ca7" opacity="0.5"/>
<rect x="688.6" y="256.3" width="6" height="8" fill="#759ca7" opacity="0.5"/>
<rect x="702.6" y="256.3" width="6" height="8" fill="#759ca7" opacity="0.5"/>
<rect x="716.6" y="256.3" width="6" height="8" fill="#759ca7" opacity="0.5"/>
<rect x="688.6" y="272.3" width="6" height="8" fill="#759ca7" opacity="0.5"/>
<rect x="702.6" y="272.3" width="6" height="8" fill="#759ca7" opacity="0.5"/>
<rect x="980.9" y="108.2" width="69.7" height="191.8" fill="#2b6777"/>
<rect x="998.8" y="120.2" width="6" height="8" fill="#759ca7" opacity="0.5"/>
<rect x="1012.8" y="120.2" width="6" height="8" fill="#759ca7" opacity="0.5"/>
<rect x="1026.8" y="120.2" width="6" height="8" fill="#759ca7" opacity="0.5"/>
<rect x="998.8" y="152.2" width="6" height="8" fill="#759ca7" opacity="0.5"/>
<rect x="1012.8" y="152.2" width="6" height="8" fill="#759ca7" opacity="0.5"/>
<rect x="998.8" y="168.2" width="6" height="8" fill="#759ca7" opacity="0.5"/>
<rect x="1012.8" y="168.2" width="6" height="8" fill="#759ca7" opacity="0.5"/>
<rect x="1026.8" y="168.2" width="6" height="8" fill="#759ca7" opacity="0.5"/>
<rect x="998.8" y="184.2" width="6" height="8" fill="#759ca7" opacity="0.5"/>
<rect x="1026.8" y="184.2" width="6" height="8" fill="#759ca7" opacity="0.5"/>
<rect x="998.8" y="200.2" width="6" height="8" fill="#759ca7" opacity="0.5"/>
<rect x="1026.8" y="200.2" width="6" height="8" fill="#759ca7" opacity="0.5"/>
<rect x="998.8" y="216.2" width="6" height="8" fill="#759ca7" opacity="0.5"/>
<rect x="1012.8" y="216.2" width="6" height="8" fill="#759ca7" opacity="0.5"/>
<rect x="1026.8" y="216.2" width="6" height="8" fill="#759ca7" opacity="0.5"/>
<rect x="998.8" y="232.2" width="6" height="8" fill="#759ca7" opacity="0.5"/>
<rect x="1012.8" y="232.2" width="6" height="8" fill="#759ca7" opacity="0.5"/>
<rect x="1026.8" y="232.2" width="6" height="8" fill="#759ca7" opacity="0.5"/>
<rect x="1012.8" y="248.2" width="6" height="8" fill="#759ca7" opacity="0.5"/>
<rect x="1026.8" y="248.2" width="6" height="8" fill="#759ca7" opacity="0.5"/>
<rect x="1012.8" y="264.2" width="6" height="8" fill="#759ca7" opacity="0.5"/>
<rect x="1026.8" y="264.2" width="6" height="8" fill="#759ca7" opacity="0.5"/>
<rect x="0" y="298" width="1200" height="2" fill="#275d6b" opacity="0.15"/>
</svg>