<svg xmlns="http://www.w3.org/2000/svg" viewBox="0 0 1200 400" width="1200" height="400">
<defs>
<linearGradient id="bg" x1="0" y1="0" x2="0" y2="1"><stop offset="0%" stop-color="#94a3b8"/><stop offset="100%" stop-color="#0369a1"/></linearGradient>
<linearGradient id="warm" x1="0" y1="0" x2="1" y2="1"><stop offset="0%" stop-color="#768bab" stop-opacity="0.18"/><stop offset="100%" stop-color="#768bab" stop-opacity="0.06"/></linearGradient>
</defs>
<rect width="1200" height="400" fill="url(#bg)"/>
<path d="M0 400 L0 242.063495345121 C60.0 236.9, 90.0 244.9, 150.0 240.5 C210.0 234.4, 240.0 225.4, 300.0 234.7 C360.0 227.5, 390.0 239.6, 450.0 232.3 C510.0 237.0, 540.0 244.4, 600.0 244.3 C660.0 245.1, 690.0 265.5, 750.0 258.9 C810.0 256.1, 840.0 239.7, 900.0 247.0 C960.0 250.3, 990.0 238.9, 1050.0 247.2 C1110.0 242.2, 1140.0 243.4, 1200.0 234.9 L1200 400 Z" fill="#367da9" opacity="0.45"/>
<path d="M0 400 L0 272.32533384423385 C52.5 275.9, 97.5 291.8, 150.0 284.4 C202.5 279.6, 247.5 272.3, 300.0 277.8 C352.5 283.2, 397.5 295.9, 450.0 288.8 C502.5 285.1, 547.5 281.1, 600.0 286.6 C652.5 290.8, 697.5 271.0, 750.0 272.1 C802.5 265.4, 847.5 280.8, 900.0 285.3 C952.5 289.8, 997.5 258.8, 1050.0 266.0 C1102.5 268.3, 1147.5 271.5, 1200.0 276.5 L1200 400 Z" fill="#0369a1" opacity="0.3"/>
<rect x="527.8" y="366.4" width="45.5" height="33.6" rx="7.5" fill="#05946b" opacity="0.66"/>
<rect x="472.3" y="311.3" width="44.7" height="88.7" rx="4.0" fill="#059070" opacity="0.81"/>
<rect x="381.4" y="346.7" width="22.6" height="53.3" rx="3.1" fill="#048a77" opacity="0.68"/>
<rect x="719.5" y="341.1" width="30.9" height="58.9" rx="3.8" fill="#048a77" opacity="0.78"/>
<rect x="811.1" y="334.5" width="28.4" height="65.5" rx="3.6" fill="#058d74" opacity="0.85"/>
<rect x="724.3" y="349.4" width="17.7" height="50.6" rx="5.3" fill="#058b77" opacity="0.64"/>
<rect x="720.2" y="293.3" width="42.3" height="106.7" rx="5.6" fill="#05956a" opacity="0.65"/>
<rect x="437.2" y="298.8" width="18.8" height="101.2" rx="3.1" fill="#048183" opacity="0.58"/>
<rect x="807.4" y="328.6" width="22.5" height="71.4" rx="6.3" fill="#048979" opacity="0.76"/>
<rect x="262.0" y="353.2" width="28.0" height="46.8" rx="3.2" fill="#058b76" opacity="0.55"/>
<rect x="859.1" y="347.6" width="15.3" height="52.4" rx="6.4" fill="#047b8a" opacity="0.59"/>
<circle cx="845.4" cy="154.9" r="4.7" fill="#94a3b8" opacity="0.19"/>
<circle cx="939.2" cy="15.0" r="5.4" fill="#059669" opacity="0.40"/>
<circle cx="736.6" cy="190.3" r="3.3" fill="#94a3b8" opacity="0.32"/>
<rect width="1200" height="400" fill="url(#warm)"/>
<rect width="1200" height="400" fill="#94a3b8" opacity="0.45"/>
</svg>