<svg xmlns="http://www.w3.org/2000/svg" viewBox="0 0 1200 400" width="1200" height="400">
<defs>
<linearGradient id="bg" x1="0" y1="0" x2="0" y2="1"><stop offset="0%" stop-color="#a16207"/><stop offset="100%" stop-color="#c2410c"/></linearGradient>
<linearGradient id="warm" x1="0" y1="0" x2="1" y2="1"><stop offset="0%" stop-color="#f59e0b" stop-opacity="0.18"/><stop offset="100%" stop-color="#f59e0b" stop-opacity="0.06"/></linearGradient>
</defs>
<rect width="1200" height="400" fill="url(#bg)"/>
<path d="M0 400 L0 225.78801110889327 C60.0 223.4, 90.0 247.1, 150.0 245.4 C210.0 254.9, 240.0 262.6, 300.0 257.5 C360.0 260.5, 390.0 242.1, 450.0 244.4 C510.0 241.1, 540.0 237.1, 600.0 244.9 C660.0 249.1, 690.0 227.3, 750.0 235.2 C810.0 241.3, 840.0 228.2, 900.0 234.8 C960.0 240.2, 990.0 221.8, 1050.0 228.9 C1110.0 221.6, 1140.0 232.8, 1200.0 238.9 L1200 400 Z" fill="#b64d0a" opacity="0.45"/>
<path d="M0 400 L0 266.1713356786286 C52.5 266.0, 97.5 265.0, 150.0 261.3 C202.5 259.0, 247.5 282.4, 300.0 279.2 C352.5 278.9, 397.5 275.1, 450.0 276.7 C502.5 281.6, 547.5 264.6, 600.0 263.4 C652.5 266.1, 697.5 260.5, 750.0 264.0 C802.5 264.6, 847.5 266.5, 900.0 272.0 C952.5 267.2, 997.5 257.1, 1050.0 264.5 C1102.5 263.8, 1147.5 258.7, 1200.0 261.5 L1200 400 Z" fill="#c2410c" opacity="0.3"/>
<rect x="459.0" y="277.5" width="25.0" height="122.5" rx="6.9" fill="#7b8c0d" opacity="0.71"/>
<rect x="464.0" y="287.5" width="4" height="5" rx="0.5" fill="#a16207" opacity="0.6"/>
<rect x="464.0" y="331.5" width="4" height="5" rx="0.5" fill="#a16207" opacity="0.6"/>
<rect x="383.6" y="317.6" width="35.6" height="82.4" rx="7.9" fill="#6e990d" opacity="0.79"/>
<rect x="388.6" y="327.6" width="4" height="5" rx="0.5" fill="#a16207" opacity="0.6"/>
<rect x="400.4" y="327.6" width="4" height="5" rx="0.5" fill="#a16207" opacity="0.6"/>
<rect x="388.6" y="349.6" width="4" height="5" rx="0.5" fill="#a16207" opacity="0.6"/>
<rect x="400.4" y="349.6" width="4" height="5" rx="0.5" fill="#a16207" opacity="0.6"/>
<rect x="388.6" y="371.6" width="4" height="5" rx="0.5" fill="#a16207" opacity="0.6"/>
<rect x="400.4" y="371.6" width="4" height="5" rx="0.5" fill="#a16207" opacity="0.6"/>
<rect x="501.9" y="342.6" width="24.7" height="57.4" rx="6.3" fill="#91750d" opacity="0.57"/>
<rect x="735.4" y="330.6" width="22.9" height="69.4" rx="4.1" fill="#8b7b0d" opacity="0.66"/>
<rect x="440.8" y="275.8" width="42.6" height="124.2" rx="6.4" fill="#85820d" opacity="0.78"/>
<rect x="985.5" y="339.7" width="14.3" height="60.3" rx="5.3" fill="#84820d" opacity="0.76"/>
<rect x="546.2" y="337.5" width="25.0" height="62.5" rx="3.6" fill="#74930d" opacity="0.67"/>
<rect x="986.9" y="346.6" width="45.3" height="53.4" rx="3.7" fill="#85820d" opacity="0.78"/>
<rect x="311.1" y="279.5" width="44.8" height="120.5" rx="7.3" fill="#91750d" opacity="0.74"/>
<rect x="316.1" y="289.5" width="4" height="5" rx="0.5" fill="#a16207" opacity="0.6"/>
<rect x="316.1" y="311.5" width="4" height="5" rx="0.5" fill="#a16207" opacity="0.6"/>
<rect x="331.1" y="311.5" width="4" height="5" rx="0.5" fill="#a16207" opacity="0.6"/>
<rect x="316.1" y="333.5" width="4" height="5" rx="0.5" fill="#a16207" opacity="0.6"/>
<rect x="982.1" y="357.3" width="14.8" height="42.7" rx="7.9" fill="#70980d" opacity="0.79"/>
<rect x="529.3" y="333.1" width="36.8" height="66.9" rx="4.5" fill="#67a00d" opacity="0.73"/>
<rect x="1048.9" y="366.6" width="21.3" height="33.4" rx="5.3" fill="#83840d" opacity="0.65"/>
<rect x="126.9" y="288.9" width="27.0" height="111.1" rx="6.2" fill="#76910d" opacity="0.56"/>
<polygon points="487.9,139.8 483.1,148.0 492.6,148.0" fill="#65a30d" opacity="0.38"/>
<polygon points="149.6,46.5 139.8,63.4 159.4,63.4" fill="#65a30d" opacity="0.21"/>
<polygon points="1057.6,56.4 1051.1,67.6 1064.0,67.6" fill="#65a30d" opacity="0.33"/>
<polygon points="51.2,116.0 45.6,125.8 56.8,125.8" fill="#65a30d" opacity="0.22"/>
<polygon points="786.2,116.3 782.0,123.6 790.4,123.6" fill="#a16207" opacity="0.42"/>
<rect width="1200" height="400" fill="url(#warm)"/>
<rect width="1200" height="400" fill="#a16207" opacity="0.40"/>
</svg>