<svg xmlns="http://www.w3.org/2000/svg" viewBox="0 0 1200 300" width="1200" height="300">
<rect width="1200" height="300" fill="#e6eef4"/>
<path d="M0 300 L0 210.0 C393.9 173.2, 874.0 193.7, 1200 210.0 L1200 300 Z" fill="#b5cad8" opacity="0.3"/>
<rect x="250.0" y="226.7" width="41.6" height="73.3" fill="#99b6c9"/>
<rect x="816.5" y="250.2" width="60.1" height="49.8" fill="#99b6c9"/>
<rect x="258.9" y="229.7" width="57.2" height="70.3" fill="#6a95b1"/>
<rect x="291.5" y="241.7" width="6" height="8" fill="#9ebacc" opacity="0.5"/>
<rect x="277.5" y="257.7" width="6" height="8" fill="#9ebacc" opacity="0.5"/>
<rect x="291.5" y="257.7" width="6" height="8" fill="#9ebacc" opacity="0.5"/>
<rect x="291.5" y="273.7" width="6" height="8" fill="#9ebacc" opacity="0.5"/>
<rect x="891.5" y="232.5" width="47.4" height="67.5" fill="#6a95b1"/>
<rect x="919.2" y="244.5" width="6" height="8" fill="#9ebacc" opacity="0.5"/>
<rect x="905.2" y="260.5" width="6" height="8" fill="#9ebacc" opacity="0.5"/>
<rect x="238.2" y="177.3" width="72.1" height="122.7" fill="#457b9d"/>
<rect x="264.2" y="189.3" width="6" height="8" fill="#86a9bf" opacity="0.5"/>
<rect x="278.2" y="189.3" width="6" height="8" fill="#86a9bf" opacity="0.5"/>
<rect x="292.2" y="189.3" width="6" height="8" fill="#86a9bf" opacity="0.5"/>
<rect x="250.2" y="205.3" width="6" height="8" fill="#86a9bf" opacity="0.5"/>
<rect x="264.2" y="205.3" width="6" height="8" fill="#86a9bf" opacity="0.5"/>
<rect x="292.2" y="205.3" width="6" height="8" fill="#86a9bf" opacity="0.5"/>
<rect x="250.2" y="221.3" width="6" height="8" fill="#86a9bf" opacity="0.5"/>
<rect x="292.2" y="221.3" width="6" height="8" fill="#86a9bf" opacity="0.5"/>
<rect x="264.2" y="237.3" width="6" height="8" fill="#86a9bf" opacity="0.5"/>
<rect x="278.2" y="237.3" width="6" height="8" fill="#86a9bf" opacity="0.5"/>
<rect x="292.2" y="237.3" width="6" height="8" fill="#86a9bf" opacity="0.5"/>
<rect x="250.2" y="253.3" width="6" height="8" fill="#86a9bf" opacity="0.5"/>
<rect x="264.2" y="253.3" width="6" height="8" fill="#86a9bf" opacity="0.5"/>
<rect x="278.2" y="253.3" width="6" height="8" fill="#86a9bf" opacity="0.5"/>
<rect x="292.2" y="253.3" width="6" height="8" fill="#86a9bf" opacity="0.5"/>
<rect x="264.2" y="269.3" width="6" height="8" fill="#86a9bf" opacity="0.5"/>
<rect x="278.2" y="269.3" width="6" height="8" fill="#86a9bf" opacity="0.5"/>
<rect x="292.2" y="269.3" width="6" height="8" fill="#86a9bf" opacity="0.5"/>
<rect x="539.8" y="176.3" width="67.5" height="123.7" fill="#457b9d"/>
<rect x="570.6" y="188.3" width="6" height="8" fill="#86a9bf" opacity="0.5"/>
<rect x="584.6" y="188.3" width="6" height="8" fill="#86a9bf" opacity="0.5"/>
<rect x="570.6" y="204.3" width="6" height="8" fill="#86a9bf" opacity="0.5"/>
<rect x="584.6" y="204.3" width="6" height="8" fill="#86a9bf" opacity="0.5"/>
<rect x="556.6" y="220.3" width="6" height="8" fill="#86a9bf" opacity="0.5"/>
<rect x="570.6" y="220.3" width="6" height="8" fill="#86a9bf" opacity="0.5"/>
<rect x="584.6" y="220.3" width="6" height="8" fill="#86a9bf" opacity="0.5"/>
<rect x="556.6" y="236.3" width="6" height="8" fill="#86a9bf" opacity="0.5"/>
<rect x="556.6" y="252.3" width="6" height="8" fill="#86a9bf" opacity="0.5"/>
<rect x="570.6" y="252.3" width="6" height="8" fill="#86a9bf" opacity="0.5"/>
<rect x="584.6" y="252.3" width="6" height="8" fill="#86a9bf" opacity="0.5"/>
<rect x="556.6" y="268.3" width="6" height="8" fill="#86a9bf" opacity="0.5"/>
<rect x="570.6" y="268.3" width="6" height="8" fill="#86a9bf" opacity="0.5"/>
<rect x="952.3" y="181.5" width="30.6" height="118.5" fill="#457b9d"/>
<rect x="964.6" y="193.5" width="6" height="8" fill="#86a9bf" opacity="0.5"/>
<rect x="964.6" y="209.5" width="6" height="8" fill="#86a9bf" opacity="0.5"/>
<rect x="964.6" y="241.5" width="6" height="8" fill="#86a9bf" opacity="0.5"/>
<rect x="964.6" y="257.5" width="6" height="8" fill="#86a9bf" opacity="0.5"/>
<rect x="964.6" y="273.5" width="6" height="8" fill="#86a9bf" opacity="0.5"/>
<rect x="0" y="298" width="1200" height="2" fill="#3e6f8d" opacity="0.15"/>
</svg>