<svg xmlns="http://www.w3.org/2000/svg" viewBox="0 0 1200 300" width="1200" height="300">
<defs>
<linearGradient id="skyGrad" x1="0" y1="0" x2="0" y2="1">
<stop offset="0%" stop-color="#818cf8"/>
<stop offset="20%" stop-color="#c4b5fd"/>
<stop offset="38%" stop-color="#fda4af"/>
<stop offset="55%" stop-color="#fdba74"/>
<stop offset="75%" stop-color="#fef08a"/>
<stop offset="100%" stop-color="#fef9c3"/>
</linearGradient>
<linearGradient id="bldg_coral" x1="0" y1="0" x2="0" y2="1"><stop offset="0%" stop-color="#fecaca"/><stop offset="100%" stop-color="#fca5a5"/></linearGradient>
<linearGradient id="bldg_teal" x1="0" y1="0" x2="0" y2="1"><stop offset="0%" stop-color="#99f6e4"/><stop offset="100%" stop-color="#5eead4"/></linearGradient>
<linearGradient id="bldg_amber" x1="0" y1="0" x2="0" y2="1"><stop offset="0%" stop-color="#fde68a"/><stop offset="100%" stop-color="#fcd34d"/></linearGradient>
<linearGradient id="bldg_lavender" x1="0" y1="0" x2="0" y2="1"><stop offset="0%" stop-color="#ddd6fe"/><stop offset="100%" stop-color="#c4b5fd"/></linearGradient>
<linearGradient id="bldg_blue" x1="0" y1="0" x2="0" y2="1"><stop offset="0%" stop-color="#bfdbfe"/><stop offset="100%" stop-color="#93c5fd"/></linearGradient>
<linearGradient id="bldg_mint" x1="0" y1="0" x2="0" y2="1"><stop offset="0%" stop-color="#a7f3d0"/><stop offset="100%" stop-color="#6ee7b7"/></linearGradient>
<linearGradient id="bldg_rose" x1="0" y1="0" x2="0" y2="1"><stop offset="0%" stop-color="#fecdd3"/><stop offset="100%" stop-color="#fda4af"/></linearGradient>
<linearGradient id="bldg_sky" x1="0" y1="0" x2="0" y2="1"><stop offset="0%" stop-color="#bae6fd"/><stop offset="100%" stop-color="#7dd3fc"/></linearGradient>
<linearGradient id="roof_navyRoof" x1="0" y1="0" x2="0" y2="1"><stop offset="0%" stop-color="#4338ca"/><stop offset="100%" stop-color="#3730a3"/></linearGradient>
<linearGradient id="roof_coralRoof" x1="0" y1="0" x2="0" y2="1"><stop offset="0%" stop-color="#f87171"/><stop offset="100%" stop-color="#ef4444"/></linearGradient>
<linearGradient id="roof_tealRoof" x1="0" y1="0" x2="0" y2="1"><stop offset="0%" stop-color="#2dd4bf"/><stop offset="100%" stop-color="#14b8a6"/></linearGradient>
<radialGradient id="windowGlow" cx="50%" cy="50%" r="50%"><stop offset="0%" stop-color="#fef08a"/><stop offset="60%" stop-color="#fbbf24"/><stop offset="100%" stop-color="#f59e0b"/></radialGradient>
<linearGradient id="hillFar" x1="0" y1="0" x2="0" y2="1"><stop offset="0%" stop-color="#c4b5fd"/><stop offset="100%" stop-color="#a5b4fc"/></linearGradient>
<linearGradient id="hillMid" x1="0" y1="0" x2="0" y2="1"><stop offset="0%" stop-color="#86efac"/><stop offset="100%" stop-color="#4ade80"/></linearGradient>
<linearGradient id="hillNear" x1="0" y1="0" x2="0" y2="1"><stop offset="0%" stop-color="#34d399"/><stop offset="100%" stop-color="#10b981"/></linearGradient>
<linearGradient id="hillDesertFar" x1="0" y1="0" x2="0" y2="1"><stop offset="0%" stop-color="#fde68a"/><stop offset="100%" stop-color="#fcd34d"/></linearGradient>
<linearGradient id="hillDesertMid" x1="0" y1="0" x2="0" y2="1"><stop offset="0%" stop-color="#fcd34d"/><stop offset="100%" stop-color="#fbbf24"/></linearGradient>
<linearGradient id="hillDesertNear" x1="0" y1="0" x2="0" y2="1"><stop offset="0%" stop-color="#fbbf24"/><stop offset="100%" stop-color="#f59e0b"/></linearGradient>
<linearGradient id="groundGrad" x1="0" y1="0" x2="0" y2="1"><stop offset="0%" stop-color="#fef3c7"/><stop offset="100%" stop-color="#fde68a"/></linearGradient>
<linearGradient id="waterGrad" x1="0" y1="0" x2="0" y2="1"><stop offset="0%" stop-color="#bfdbfe"/><stop offset="100%" stop-color="#93c5fd"/></linearGradient>
<filter id="softGlow" x="-50%" y="-50%" width="200%" height="200%"><feGaussianBlur in="SourceGraphic" stdDeviation="12"/></filter>
</defs>
<rect width="1200" height="300" fill="url(#skyGrad)"/>
<circle cx="918.0" cy="48.7" r="45" fill="#fef08a" opacity="0.12" filter="url(#softGlow)"/>
<circle cx="918.0" cy="48.7" r="30" fill="#fde68a" opacity="0.18" filter="url(#softGlow)"/>
<circle cx="918.0" cy="48.7" r="16" fill="#fef9c3" opacity="0.25" filter="url(#softGlow)"/>
<ellipse cx="784.0" cy="43.4" rx="35.3" ry="12.3" fill="white" opacity="0.5"/>
<ellipse cx="761.9" cy="47.0" rx="24.7" ry="9.7" fill="white" opacity="0.5"/>
<ellipse cx="803.4" cy="46.1" rx="28.2" ry="10.6" fill="white" opacity="0.4"/>
<ellipse cx="464.3" cy="51.5" rx="42.9" ry="15.0" fill="white" opacity="0.7"/>
<ellipse cx="437.5" cy="55.8" rx="30.0" ry="11.8" fill="white" opacity="0.6"/>
<ellipse cx="487.9" cy="54.7" rx="34.3" ry="12.9" fill="white" opacity="0.6"/>
<path d="M0 300 L0.0 195.6 C164.1 195.6, 164.1 175.0, 328.2 175.0 C548.4 175.0, 548.4 194.3, 768.7 194.3 C984.3 194.3, 984.3 184.6, 1200.0 184.6 L1200 300 Z" fill="url(#hillFar)" opacity="0.5"/>
<path d="M0 300 L0.0 205.1 C208.4 205.1, 208.4 215.4, 416.7 215.4 C584.9 215.4, 584.9 202.3, 753.2 202.3 C976.6 202.3, 976.6 212.2, 1200.0 212.2 L1200 300 Z" fill="url(#hillMid)" opacity="0.7"/>
<path d="M0 300 L0.0 225.2 C188.5 225.2, 188.5 232.3, 377.0 232.3 C587.1 232.3, 587.1 229.0, 797.2 229.0 C998.6 229.0, 998.6 233.0, 1200.0 233.0 L1200 300 Z" fill="url(#hillNear)" opacity="1"/>
<rect x="231.1" y="201.0" width="67.6" height="99.0" rx="3" fill="url(#bldg_sky)" opacity="0.7"/>
<polygon points="231.1,201.0 264.9,181.8 298.7,201.0" fill="url(#roof_coralRoof)" opacity="0.7"/>
<rect x="247.9" y="211.0" width="6" height="8" rx="1" fill="url(#windowGlow)" opacity="0.7317395637425312"/>
<rect x="261.9" y="211.0" width="6" height="8" rx="1" fill="url(#windowGlow)" opacity="0.9453889484262973"/>
<rect x="275.9" y="211.0" width="6" height="8" rx="1" fill="url(#windowGlow)" opacity="0.9713176252186846"/>
<rect x="247.9" y="226.0" width="6" height="8" rx="1" fill="url(#windowGlow)" opacity="0.9356646091377663"/>
<rect x="261.9" y="226.0" width="6" height="8" rx="1" fill="url(#windowGlow)" opacity="0.8851287505985836"/>
<rect x="275.9" y="226.0" width="6" height="8" rx="1" fill="url(#windowGlow)" opacity="0.991265229038552"/>
<rect x="247.9" y="241.0" width="6" height="8" rx="1" fill="url(#windowGlow)" opacity="0.8676085842156822"/>
<rect x="261.9" y="241.0" width="6" height="8" rx="1" fill="url(#windowGlow)" opacity="0.7451056848955833"/>
<rect x="275.9" y="241.0" width="6" height="8" rx="1" fill="url(#windowGlow)" opacity="0.7175529691006769"/>
<rect x="247.9" y="256.0" width="6" height="8" rx="1" fill="url(#windowGlow)" opacity="0.9583807307101695"/>
<rect x="261.9" y="256.0" width="6" height="8" rx="1" fill="url(#windowGlow)" opacity="0.8607131623945725"/>
<rect x="527.4" y="195.8" width="80.5" height="104.2" rx="3" fill="url(#bldg_coral)" opacity="0.7"/>
<polygon points="527.4,195.8 567.7,175.6 607.9,195.8" fill="url(#roof_tealRoof)" opacity="0.7"/>
<rect x="543.7" y="205.8" width="6" height="8" rx="1" fill="url(#windowGlow)" opacity="0.8295507650494346"/>
<rect x="571.7" y="205.8" width="6" height="8" rx="1" fill="url(#windowGlow)" opacity="0.8447609220839855"/>
<rect x="585.7" y="205.8" width="6" height="8" rx="1" fill="url(#windowGlow)" opacity="0.7526656362938999"/>
<rect x="543.7" y="220.8" width="6" height="8" rx="1" fill="url(#windowGlow)" opacity="0.8522381301281219"/>
<rect x="571.7" y="220.8" width="6" height="8" rx="1" fill="url(#windowGlow)" opacity="0.8015827695380816"/>
<rect x="571.7" y="235.8" width="6" height="8" rx="1" fill="url(#windowGlow)" opacity="0.7954681581796463"/>
<rect x="585.7" y="235.8" width="6" height="8" rx="1" fill="url(#windowGlow)" opacity="0.8687596997566334"/>
<rect x="543.7" y="250.8" width="6" height="8" rx="1" fill="url(#windowGlow)" opacity="0.7866060909752762"/>
<rect x="571.7" y="250.8" width="6" height="8" rx="1" fill="url(#windowGlow)" opacity="0.8752017755877234"/>
<rect x="585.7" y="250.8" width="6" height="8" rx="1" fill="url(#windowGlow)" opacity="0.9665428638768115"/>
<rect x="934.6" y="208.7" width="83.1" height="91.3" rx="3" fill="url(#bldg_teal)" opacity="0.7"/>
<polygon points="934.6,208.7 976.2,185.0 1017.7,208.7" fill="url(#roof_navyRoof)" opacity="0.7"/>
<rect x="952.2" y="218.7" width="6" height="8" rx="1" fill="url(#windowGlow)" opacity="0.8415502367269015"/>
<rect x="980.2" y="218.7" width="6" height="8" rx="1" fill="url(#windowGlow)" opacity="0.981615325799964"/>
<rect x="994.2" y="218.7" width="6" height="8" rx="1" fill="url(#windowGlow)" opacity="0.8114238901116996"/>
<rect x="952.2" y="233.7" width="6" height="8" rx="1" fill="url(#windowGlow)" opacity="0.84769426185996"/>
<rect x="966.2" y="233.7" width="6" height="8" rx="1" fill="url(#windowGlow)" opacity="0.8633246798363163"/>
<rect x="980.2" y="233.7" width="6" height="8" rx="1" fill="url(#windowGlow)" opacity="0.9805650275110104"/>
<rect x="966.2" y="248.7" width="6" height="8" rx="1" fill="url(#windowGlow)" opacity="0.7395268530303272"/>
<rect x="980.2" y="248.7" width="6" height="8" rx="1" fill="url(#windowGlow)" opacity="0.8345725894135295"/>
<rect x="994.2" y="248.7" width="6" height="8" rx="1" fill="url(#windowGlow)" opacity="0.7016424885492969"/>
<rect x="140.1" y="212.2" width="59.3" height="87.8" rx="3" fill="url(#bldg_amber)" opacity="0.85"/>
<rect x="140.1" y="209.2" width="59.3" height="3" rx="1" fill="url(#roof_coralRoof)" opacity="0.85"/>
<rect x="152.8" y="222.2" width="6" height="8" rx="1" fill="url(#windowGlow)" opacity="0.819020195919564"/>
<rect x="180.8" y="222.2" width="6" height="8" rx="1" fill="url(#windowGlow)" opacity="0.7846549730676482"/>
<rect x="152.8" y="237.2" width="6" height="8" rx="1" fill="url(#windowGlow)" opacity="0.8365297618492179"/>
<rect x="166.8" y="237.2" width="6" height="8" rx="1" fill="url(#windowGlow)" opacity="0.9896927046541556"/>
<rect x="180.8" y="237.2" width="6" height="8" rx="1" fill="url(#windowGlow)" opacity="0.8073592417907711"/>
<rect x="152.8" y="252.2" width="6" height="8" rx="1" fill="url(#windowGlow)" opacity="0.9011187516623729"/>
<rect x="180.8" y="252.2" width="6" height="8" rx="1" fill="url(#windowGlow)" opacity="0.7989044617390746"/>
<path d="M169.8 242.9 L193.5 242.9 L190.5 248.9 L172.8 248.9 Z" fill="url(#roof_navyRoof)" opacity="0.68"/>
<rect x="412.1" y="175.3" width="58.3" height="124.7" rx="3" fill="url(#bldg_lavender)" opacity="0.85"/>
<rect x="412.1" y="172.3" width="58.3" height="3" rx="1" fill="url(#roof_tealRoof)" opacity="0.85"/>
<rect x="424.2" y="185.3" width="6" height="8" rx="1" fill="url(#windowGlow)" opacity="0.8480123106613812"/>
<rect x="438.2" y="185.3" width="6" height="8" rx="1" fill="url(#windowGlow)" opacity="0.9410122479968761"/>
<rect x="452.2" y="185.3" width="6" height="8" rx="1" fill="url(#windowGlow)" opacity="0.9769485841397887"/>
<rect x="424.2" y="200.3" width="6" height="8" rx="1" fill="url(#windowGlow)" opacity="0.9404047863280423"/>
<rect x="438.2" y="200.3" width="6" height="8" rx="1" fill="url(#windowGlow)" opacity="0.7139323755697963"/>
<rect x="424.2" y="215.3" width="6" height="8" rx="1" fill="url(#windowGlow)" opacity="0.7908458474515219"/>
<rect x="452.2" y="215.3" width="6" height="8" rx="1" fill="url(#windowGlow)" opacity="0.9757075575998553"/>
<rect x="424.2" y="230.3" width="6" height="8" rx="1" fill="url(#windowGlow)" opacity="0.7975708868343248"/>
<rect x="438.2" y="230.3" width="6" height="8" rx="1" fill="url(#windowGlow)" opacity="0.9500763285672646"/>
<rect x="424.2" y="245.3" width="6" height="8" rx="1" fill="url(#windowGlow)" opacity="0.7221665145932541"/>
<rect x="438.2" y="245.3" width="6" height="8" rx="1" fill="url(#windowGlow)" opacity="0.9140911607137374"/>
<rect x="452.2" y="245.3" width="6" height="8" rx="1" fill="url(#windowGlow)" opacity="0.9506606803511551"/>
<rect x="424.2" y="260.3" width="6" height="8" rx="1" fill="url(#windowGlow)" opacity="0.721167236110739"/>
<rect x="452.2" y="260.3" width="6" height="8" rx="1" fill="url(#windowGlow)" opacity="0.9334881951722727"/>
<rect x="710.2" y="160.7" width="58.1" height="139.3" rx="3" fill="url(#bldg_blue)" opacity="0.85"/>
<polygon points="710.2,160.7 739.3,141.0 768.3,160.7" fill="url(#roof_navyRoof)" opacity="0.85"/>
<rect x="736.3" y="170.7" width="6" height="8" rx="1" fill="url(#windowGlow)" opacity="0.727780275944518"/>
<rect x="722.3" y="185.7" width="6" height="8" rx="1" fill="url(#windowGlow)" opacity="0.967076011592092"/>
<rect x="736.3" y="185.7" width="6" height="8" rx="1" fill="url(#windowGlow)" opacity="0.9671984055392435"/>
<rect x="750.3" y="185.7" width="6" height="8" rx="1" fill="url(#windowGlow)" opacity="0.8410618651383844"/>
<rect x="722.3" y="200.7" width="6" height="8" rx="1" fill="url(#windowGlow)" opacity="0.9302606753214544"/>
<rect x="736.3" y="200.7" width="6" height="8" rx="1" fill="url(#windowGlow)" opacity="0.8834489332434948"/>
<rect x="750.3" y="200.7" width="6" height="8" rx="1" fill="url(#windowGlow)" opacity="0.9400941346958718"/>
<rect x="722.3" y="215.7" width="6" height="8" rx="1" fill="url(#windowGlow)" opacity="0.8492863014104246"/>
<rect x="750.3" y="215.7" width="6" height="8" rx="1" fill="url(#windowGlow)" opacity="0.9841345632374913"/>
<rect x="722.3" y="230.7" width="6" height="8" rx="1" fill="url(#windowGlow)" opacity="0.8963293366582734"/>
<rect x="736.3" y="230.7" width="6" height="8" rx="1" fill="url(#windowGlow)" opacity="0.8963338240498369"/>
<rect x="750.3" y="230.7" width="6" height="8" rx="1" fill="url(#windowGlow)" opacity="0.9481405674238412"/>
<rect x="722.3" y="245.7" width="6" height="8" rx="1" fill="url(#windowGlow)" opacity="0.9719640230629425"/>
<rect x="750.3" y="245.7" width="6" height="8" rx="1" fill="url(#windowGlow)" opacity="0.9198493328969224"/>
<rect x="736.3" y="260.7" width="6" height="8" rx="1" fill="url(#windowGlow)" opacity="0.9686165074671695"/>
<rect x="750.3" y="260.7" width="6" height="8" rx="1" fill="url(#windowGlow)" opacity="0.9905266271859996"/>
<rect x="1011.4" y="203.9" width="42.3" height="96.1" rx="3" fill="url(#bldg_mint)" opacity="0.85"/>
<rect x="1019.9" y="192.4" width="25.4" height="11.5" rx="2" fill="url(#roof_coralRoof)" opacity="0.85"/>
<rect x="1029.5" y="213.9" width="6" height="8" rx="1" fill="url(#windowGlow)" opacity="0.8084074384572019"/>
<rect x="1029.5" y="243.9" width="6" height="8" rx="1" fill="url(#windowGlow)" opacity="0.8063045179966393"/>
<rect x="1029.5" y="258.9" width="6" height="8" rx="1" fill="url(#windowGlow)" opacity="0.8639736505057539"/>
<path d="M1015.6 237.5 L1032.5 237.5 L1029.5 243.5 L1018.6 243.5 Z" fill="url(#roof_navyRoof)" opacity="0.68"/>
<rect x="136.1" y="122.5" width="47.4" height="177.5" rx="3" fill="url(#bldg_rose)" opacity="1"/>
<rect x="145.6" y="101.2" width="28.5" height="21.3" rx="2" fill="url(#roof_tealRoof)" opacity="1"/>
<rect x="163.8" y="132.5" width="6" height="8" rx="1" fill="url(#windowGlow)" opacity="0.7715016099025969"/>
<rect x="163.8" y="147.5" width="6" height="8" rx="1" fill="url(#windowGlow)" opacity="0.9402771928069541"/>
<rect x="149.8" y="162.5" width="6" height="8" rx="1" fill="url(#windowGlow)" opacity="0.8435852914320237"/>
<rect x="163.8" y="162.5" width="6" height="8" rx="1" fill="url(#windowGlow)" opacity="0.8666051728961082"/>
<rect x="149.8" y="177.5" width="6" height="8" rx="1" fill="url(#windowGlow)" opacity="0.8935275813068857"/>
<rect x="149.8" y="192.5" width="6" height="8" rx="1" fill="url(#windowGlow)" opacity="0.9834779334643287"/>
<rect x="149.8" y="207.5" width="6" height="8" rx="1" fill="url(#windowGlow)" opacity="0.8329289579917345"/>
<rect x="163.8" y="207.5" width="6" height="8" rx="1" fill="url(#windowGlow)" opacity="0.8938232691464122"/>
<rect x="149.8" y="222.5" width="6" height="8" rx="1" fill="url(#windowGlow)" opacity="0.8154825747085188"/>
<rect x="163.8" y="222.5" width="6" height="8" rx="1" fill="url(#windowGlow)" opacity="0.7080288818609104"/>
<rect x="154.8" y="284.0" width="10" height="16" rx="2" fill="url(#roof_navyRoof)" opacity="0.8"/>
<rect x="156.8" y="287.0" width="6" height="10" rx="1" fill="url(#windowGlow)" opacity="0.45"/>
<rect x="446.8" y="137.3" width="41.1" height="162.7" rx="3" fill="url(#bldg_sky)" opacity="1"/>
<rect x="446.8" y="134.3" width="41.1" height="3" rx="1" fill="url(#roof_navyRoof)" opacity="1"/>
<rect x="464.3" y="162.3" width="6" height="8" rx="1" fill="url(#windowGlow)" opacity="0.9453276160849853"/>
<rect x="464.3" y="177.3" width="6" height="8" rx="1" fill="url(#windowGlow)" opacity="0.9492168294960711"/>
<rect x="464.3" y="192.3" width="6" height="8" rx="1" fill="url(#windowGlow)" opacity="0.9697500640385551"/>
<rect x="464.3" y="207.3" width="6" height="8" rx="1" fill="url(#windowGlow)" opacity="0.8894364975809289"/>
<rect x="464.3" y="237.3" width="6" height="8" rx="1" fill="url(#windowGlow)" opacity="0.9528500449158483"/>
<rect x="464.3" y="252.3" width="6" height="8" rx="1" fill="url(#windowGlow)" opacity="0.9283750667368876"/>
<rect x="462.3" y="284.0" width="10" height="16" rx="2" fill="url(#roof_navyRoof)" opacity="0.8"/>
<rect x="464.3" y="287.0" width="6" height="10" rx="1" fill="url(#windowGlow)" opacity="0.45"/>
<rect x="722.5" y="183.7" width="43.7" height="116.3" rx="3" fill="url(#bldg_coral)" opacity="1"/>
<rect x="731.3" y="169.7" width="26.2" height="14.0" rx="2" fill="url(#roof_coralRoof)" opacity="1"/>
<rect x="741.4" y="193.7" width="6" height="8" rx="1" fill="url(#windowGlow)" opacity="0.8679692055415218"/>
<rect x="741.4" y="208.7" width="6" height="8" rx="1" fill="url(#windowGlow)" opacity="0.8885643074701374"/>
<rect x="741.4" y="223.7" width="6" height="8" rx="1" fill="url(#windowGlow)" opacity="0.7676038817351701"/>
<rect x="741.4" y="238.7" width="6" height="8" rx="1" fill="url(#windowGlow)" opacity="0.8193014368504757"/>
<rect x="741.4" y="253.7" width="6" height="8" rx="1" fill="url(#windowGlow)" opacity="0.805413959084737"/>
<rect x="739.4" y="284.0" width="10" height="16" rx="2" fill="url(#roof_navyRoof)" opacity="0.8"/>
<rect x="741.4" y="287.0" width="6" height="10" rx="1" fill="url(#windowGlow)" opacity="0.45"/>
<rect x="959.7" y="200.5" width="57.5" height="99.5" rx="3" fill="url(#bldg_teal)" opacity="1"/>
<rect x="971.2" y="188.5" width="34.5" height="11.9" rx="2" fill="url(#roof_tealRoof)" opacity="1"/>
<rect x="992.5" y="210.5" width="6" height="8" rx="1" fill="url(#windowGlow)" opacity="0.8259217824907609"/>
<rect x="978.5" y="225.5" width="6" height="8" rx="1" fill="url(#windowGlow)" opacity="0.7022968816115972"/>
<rect x="992.5" y="225.5" width="6" height="8" rx="1" fill="url(#windowGlow)" opacity="0.758573320674977"/>
<rect x="978.5" y="240.5" width="6" height="8" rx="1" fill="url(#windowGlow)" opacity="0.9127356746758966"/>
<rect x="992.5" y="240.5" width="6" height="8" rx="1" fill="url(#windowGlow)" opacity="0.7550133056729162"/>
<rect x="978.5" y="255.5" width="6" height="8" rx="1" fill="url(#windowGlow)" opacity="0.8192331313245153"/>
<rect x="992.5" y="255.5" width="6" height="8" rx="1" fill="url(#windowGlow)" opacity="0.7418280316245872"/>
<rect x="983.5" y="284.0" width="10" height="16" rx="2" fill="url(#roof_navyRoof)" opacity="0.8"/>
<rect x="985.5" y="287.0" width="6" height="10" rx="1" fill="url(#windowGlow)" opacity="0.45"/>
<path d="M988.5 235.3 L1011.5 235.3 L1008.5 241.3 L991.5 241.3 Z" fill="url(#roof_coralRoof)" opacity="0.8"/>
<rect x="312.1" y="268.2" width="6" height="16.8" rx="2" fill="#15803d"/>
<circle cx="315.1" cy="258.2" r="14.1" fill="#22c55e" opacity="0.9"/>
<circle cx="308.0" cy="261.2" r="10.6" fill="#16a34a" opacity="0.8"/>
<circle cx="320.3" cy="262.2" r="9.9" fill="#15803d" opacity="0.7"/>
<rect x="602.2" y="267.5" width="6" height="17.5" rx="2" fill="#15803d"/>
<circle cx="605.2" cy="253.6" r="17.9" fill="#22c55e" opacity="0.9"/>
<circle cx="597.2" cy="256.6" r="13.4" fill="#16a34a" opacity="0.8"/>
<circle cx="612.3" cy="257.6" r="12.5" fill="#15803d" opacity="0.7"/>
<rect x="860.0" y="268.9" width="6" height="16.1" rx="2" fill="#15803d"/>
<circle cx="863.0" cy="259.6" r="13.3" fill="#22c55e" opacity="0.9"/>
<circle cx="856.2" cy="262.6" r="10.0" fill="#16a34a" opacity="0.8"/>
<circle cx="870.5" cy="263.6" r="9.3" fill="#15803d" opacity="0.7"/>
<rect x="106.5" y="264.9" width="6" height="20.1" rx="2" fill="#15803d"/>
<circle cx="109.5" cy="252.8" r="16.1" fill="#22c55e" opacity="0.9"/>
<circle cx="100.8" cy="255.8" r="12.1" fill="#16a34a" opacity="0.8"/>
<circle cx="117.5" cy="256.8" r="11.3" fill="#15803d" opacity="0.7"/>
<rect x="1047.4" y="266.7" width="6" height="18.3" rx="2" fill="#15803d"/>
<circle cx="1050.4" cy="254.8" r="16.0" fill="#22c55e" opacity="0.9"/>
<circle cx="1043.5" cy="257.8" r="12.0" fill="#16a34a" opacity="0.8"/>
<circle cx="1058.2" cy="258.8" r="11.2" fill="#15803d" opacity="0.7"/>
<rect x="551.7" y="264.3" width="6" height="20.7" rx="2" fill="#15803d"/>
<circle cx="554.7" cy="253.7" r="14.7" fill="#22c55e" opacity="0.9"/>
<circle cx="548.2" cy="256.7" r="11.0" fill="#16a34a" opacity="0.8"/>
<circle cx="561.9" cy="257.7" r="10.3" fill="#15803d" opacity="0.7"/>
<rect x="0" y="282" width="1200" height="18" fill="url(#groundGrad)"/>
<line x1="803.4" y1="282.0" x2="803.4" y2="243.4" stroke="#92400e" stroke-width="2"/>
<circle cx="803.4" cy="243.4" r="4" fill="#fef08a" opacity="0.6"/>
<circle cx="803.4" cy="243.4" r="8" fill="#fef08a" opacity="0.15" filter="url(#softGlow)"/>
<ellipse cx="128.0" cy="282.0" rx="6.2" ry="4.4" fill="#22c55e" opacity="0.6"/>
<ellipse cx="485.3" cy="282.0" rx="5.5" ry="3.9" fill="#22c55e" opacity="0.6"/>
<ellipse cx="474.8" cy="282.0" rx="4.6" ry="3.2" fill="#22c55e" opacity="0.6"/>
</svg>