<svg xmlns="http://www.w3.org/2000/svg" viewBox="0 0 1200 300" width="1200" height="300">
<defs>
<linearGradient id="skyGrad" x1="0" y1="0" x2="0" y2="1">
<stop offset="0%" stop-color="#818cf8"/>
<stop offset="20%" stop-color="#c4b5fd"/>
<stop offset="38%" stop-color="#fda4af"/>
<stop offset="55%" stop-color="#fdba74"/>
<stop offset="75%" stop-color="#fef08a"/>
<stop offset="100%" stop-color="#fef9c3"/>
</linearGradient>
<linearGradient id="bldg_coral" x1="0" y1="0" x2="0" y2="1"><stop offset="0%" stop-color="#fecaca"/><stop offset="100%" stop-color="#fca5a5"/></linearGradient>
<linearGradient id="bldg_teal" x1="0" y1="0" x2="0" y2="1"><stop offset="0%" stop-color="#99f6e4"/><stop offset="100%" stop-color="#5eead4"/></linearGradient>
<linearGradient id="bldg_amber" x1="0" y1="0" x2="0" y2="1"><stop offset="0%" stop-color="#fde68a"/><stop offset="100%" stop-color="#fcd34d"/></linearGradient>
<linearGradient id="bldg_lavender" x1="0" y1="0" x2="0" y2="1"><stop offset="0%" stop-color="#ddd6fe"/><stop offset="100%" stop-color="#c4b5fd"/></linearGradient>
<linearGradient id="bldg_blue" x1="0" y1="0" x2="0" y2="1"><stop offset="0%" stop-color="#bfdbfe"/><stop offset="100%" stop-color="#93c5fd"/></linearGradient>
<linearGradient id="bldg_mint" x1="0" y1="0" x2="0" y2="1"><stop offset="0%" stop-color="#a7f3d0"/><stop offset="100%" stop-color="#6ee7b7"/></linearGradient>
<linearGradient id="bldg_rose" x1="0" y1="0" x2="0" y2="1"><stop offset="0%" stop-color="#fecdd3"/><stop offset="100%" stop-color="#fda4af"/></linearGradient>
<linearGradient id="bldg_sky" x1="0" y1="0" x2="0" y2="1"><stop offset="0%" stop-color="#bae6fd"/><stop offset="100%" stop-color="#7dd3fc"/></linearGradient>
<linearGradient id="roof_navyRoof" x1="0" y1="0" x2="0" y2="1"><stop offset="0%" stop-color="#4338ca"/><stop offset="100%" stop-color="#3730a3"/></linearGradient>
<linearGradient id="roof_coralRoof" x1="0" y1="0" x2="0" y2="1"><stop offset="0%" stop-color="#f87171"/><stop offset="100%" stop-color="#ef4444"/></linearGradient>
<linearGradient id="roof_tealRoof" x1="0" y1="0" x2="0" y2="1"><stop offset="0%" stop-color="#2dd4bf"/><stop offset="100%" stop-color="#14b8a6"/></linearGradient>
<radialGradient id="windowGlow" cx="50%" cy="50%" r="50%"><stop offset="0%" stop-color="#fef08a"/><stop offset="60%" stop-color="#fbbf24"/><stop offset="100%" stop-color="#f59e0b"/></radialGradient>
<linearGradient id="hillFar" x1="0" y1="0" x2="0" y2="1"><stop offset="0%" stop-color="#c4b5fd"/><stop offset="100%" stop-color="#a5b4fc"/></linearGradient>
<linearGradient id="hillMid" x1="0" y1="0" x2="0" y2="1"><stop offset="0%" stop-color="#86efac"/><stop offset="100%" stop-color="#4ade80"/></linearGradient>
<linearGradient id="hillNear" x1="0" y1="0" x2="0" y2="1"><stop offset="0%" stop-color="#34d399"/><stop offset="100%" stop-color="#10b981"/></linearGradient>
<linearGradient id="hillDesertFar" x1="0" y1="0" x2="0" y2="1"><stop offset="0%" stop-color="#fde68a"/><stop offset="100%" stop-color="#fcd34d"/></linearGradient>
<linearGradient id="hillDesertMid" x1="0" y1="0" x2="0" y2="1"><stop offset="0%" stop-color="#fcd34d"/><stop offset="100%" stop-color="#fbbf24"/></linearGradient>
<linearGradient id="hillDesertNear" x1="0" y1="0" x2="0" y2="1"><stop offset="0%" stop-color="#fbbf24"/><stop offset="100%" stop-color="#f59e0b"/></linearGradient>
<linearGradient id="groundGrad" x1="0" y1="0" x2="0" y2="1"><stop offset="0%" stop-color="#fef3c7"/><stop offset="100%" stop-color="#fde68a"/></linearGradient>
<linearGradient id="waterGrad" x1="0" y1="0" x2="0" y2="1"><stop offset="0%" stop-color="#bfdbfe"/><stop offset="100%" stop-color="#93c5fd"/></linearGradient>
<filter id="softGlow" x="-50%" y="-50%" width="200%" height="200%"><feGaussianBlur in="SourceGraphic" stdDeviation="12"/></filter>
</defs>
<rect width="1200" height="300" fill="url(#skyGrad)"/>
<circle cx="903.1" cy="55.2" r="45" fill="#fef08a" opacity="0.12" filter="url(#softGlow)"/>
<circle cx="903.1" cy="55.2" r="30" fill="#fde68a" opacity="0.18" filter="url(#softGlow)"/>
<circle cx="903.1" cy="55.2" r="16" fill="#fef9c3" opacity="0.25" filter="url(#softGlow)"/>
<ellipse cx="375.8" cy="29.0" rx="49.0" ry="17.2" fill="white" opacity="0.7"/>
<ellipse cx="345.2" cy="33.9" rx="34.3" ry="13.5" fill="white" opacity="0.6"/>
<ellipse cx="402.8" cy="32.7" rx="39.2" ry="14.7" fill="white" opacity="0.6"/>
<ellipse cx="712.9" cy="23.5" rx="34.0" ry="11.9" fill="white" opacity="0.7"/>
<ellipse cx="691.7" cy="26.9" rx="23.8" ry="9.3" fill="white" opacity="0.6"/>
<ellipse cx="731.6" cy="26.0" rx="27.2" ry="10.2" fill="white" opacity="0.6"/>
<ellipse cx="836.9" cy="30.5" rx="51.8" ry="18.1" fill="white" opacity="0.6"/>
<ellipse cx="804.5" cy="35.7" rx="36.3" ry="14.3" fill="white" opacity="0.5"/>
<ellipse cx="865.4" cy="34.4" rx="41.5" ry="15.5" fill="white" opacity="0.5"/>
<path d="M0 300 L0.0 180.3 C120.4 180.3, 120.4 190.7, 240.8 190.7 C369.8 190.7, 369.8 189.4, 498.9 189.4 C584.9 189.4, 584.9 180.5, 670.9 180.5 C833.3 180.5, 833.3 183.9, 995.7 183.9 C1097.8 183.9, 1097.8 188.2, 1200.0 188.2 L1200 300 Z" fill="url(#hillFar)" opacity="0.5"/>
<path d="M0 300 L0.0 207.4 C155.5 207.4, 155.5 207.7, 310.9 207.7 C431.2 207.7, 431.2 214.4, 551.5 214.4 C733.7 214.4, 733.7 206.8, 915.9 206.8 C1057.9 206.8, 1057.9 207.4, 1200.0 207.4 L1200 300 Z" fill="url(#hillMid)" opacity="0.7"/>
<path d="M0 300 L0.0 227.3 C171.2 227.3, 171.2 230.9, 342.3 230.9 C475.2 230.9, 475.2 235.1, 608.2 235.1 C751.0 235.1, 751.0 230.6, 893.8 230.6 C1046.9 230.6, 1046.9 231.7, 1200.0 231.7 L1200 300 Z" fill="url(#hillNear)" opacity="1"/>
<rect x="215.0" y="220.1" width="68.4" height="79.9" rx="3" fill="url(#bldg_amber)" opacity="0.7"/>
<polygon points="215.0,220.1 249.3,204.0 283.5,220.1" fill="url(#roof_navyRoof)" opacity="0.7"/>
<rect x="232.3" y="230.1" width="6" height="8" rx="1" fill="url(#windowGlow)" opacity="0.9641932329927538"/>
<rect x="246.3" y="230.1" width="6" height="8" rx="1" fill="url(#windowGlow)" opacity="0.8591969308719024"/>
<rect x="260.3" y="230.1" width="6" height="8" rx="1" fill="url(#windowGlow)" opacity="0.9349330600979425"/>
<rect x="232.3" y="245.1" width="6" height="8" rx="1" fill="url(#windowGlow)" opacity="0.7416242974538468"/>
<rect x="246.3" y="245.1" width="6" height="8" rx="1" fill="url(#windowGlow)" opacity="0.9395165803560599"/>
<rect x="260.3" y="245.1" width="6" height="8" rx="1" fill="url(#windowGlow)" opacity="0.7756090708894697"/>
<rect x="246.3" y="260.1" width="6" height="8" rx="1" fill="url(#windowGlow)" opacity="0.9138398067158832"/>
<rect x="260.3" y="260.1" width="6" height="8" rx="1" fill="url(#windowGlow)" opacity="0.7479116405583506"/>
<rect x="547.6" y="245.0" width="71.2" height="55.0" rx="3" fill="url(#bldg_lavender)" opacity="0.7"/>
<polygon points="547.6,245.0 583.2,222.4 618.8,245.0" fill="url(#roof_coralRoof)" opacity="0.7"/>
<rect x="566.2" y="255.0" width="6" height="8" rx="1" fill="url(#windowGlow)" opacity="0.8405448162651363"/>
<rect x="580.2" y="255.0" width="6" height="8" rx="1" fill="url(#windowGlow)" opacity="0.9533326399760937"/>
<rect x="594.2" y="255.0" width="6" height="8" rx="1" fill="url(#windowGlow)" opacity="0.7435417822764915"/>
<rect x="990.4" y="236.8" width="51.7" height="63.2" rx="3" fill="url(#bldg_blue)" opacity="0.7"/>
<polygon points="990.4,236.8 1016.3,220.4 1042.2,236.8" fill="url(#roof_tealRoof)" opacity="0.7"/>
<rect x="1006.3" y="246.8" width="6" height="8" rx="1" fill="url(#windowGlow)" opacity="0.8378267159395976"/>
<rect x="1020.3" y="246.8" width="6" height="8" rx="1" fill="url(#windowGlow)" opacity="0.7118451602812135"/>
<rect x="158.4" y="156.5" width="48.2" height="143.5" rx="3" fill="url(#bldg_mint)" opacity="0.85"/>
<polygon points="158.4,156.5 182.5,145.3 206.6,156.5" fill="url(#roof_navyRoof)" opacity="0.85"/>
<rect x="186.5" y="166.5" width="6" height="8" rx="1" fill="url(#windowGlow)" opacity="0.8126875025279295"/>
<rect x="172.5" y="181.5" width="6" height="8" rx="1" fill="url(#windowGlow)" opacity="0.7636900763789611"/>
<rect x="186.5" y="181.5" width="6" height="8" rx="1" fill="url(#windowGlow)" opacity="0.7219656410263691"/>
<rect x="186.5" y="211.5" width="6" height="8" rx="1" fill="url(#windowGlow)" opacity="0.9122636599523312"/>
<rect x="172.5" y="226.5" width="6" height="8" rx="1" fill="url(#windowGlow)" opacity="0.7184838891115429"/>
<rect x="186.5" y="226.5" width="6" height="8" rx="1" fill="url(#windowGlow)" opacity="0.8922235559635905"/>
<rect x="172.5" y="241.5" width="6" height="8" rx="1" fill="url(#windowGlow)" opacity="0.9230562999020593"/>
<rect x="186.5" y="241.5" width="6" height="8" rx="1" fill="url(#windowGlow)" opacity="0.9779128143926676"/>
<rect x="172.5" y="256.5" width="6" height="8" rx="1" fill="url(#windowGlow)" opacity="0.7353959556833821"/>
<rect x="186.5" y="256.5" width="6" height="8" rx="1" fill="url(#windowGlow)" opacity="0.974487332289334"/>
<rect x="394.5" y="160.0" width="72.7" height="140.0" rx="3" fill="url(#bldg_rose)" opacity="0.85"/>
<rect x="409.1" y="143.2" width="43.6" height="16.8" rx="2" fill="url(#roof_coralRoof)" opacity="0.85"/>
<rect x="406.9" y="170.0" width="6" height="8" rx="1" fill="url(#windowGlow)" opacity="0.7505604957465829"/>
<rect x="434.9" y="170.0" width="6" height="8" rx="1" fill="url(#windowGlow)" opacity="0.8605731404668526"/>
<rect x="406.9" y="185.0" width="6" height="8" rx="1" fill="url(#windowGlow)" opacity="0.7686990088171786"/>
<rect x="434.9" y="185.0" width="6" height="8" rx="1" fill="url(#windowGlow)" opacity="0.9894615200299124"/>
<rect x="448.9" y="185.0" width="6" height="8" rx="1" fill="url(#windowGlow)" opacity="0.981534241503819"/>
<rect x="406.9" y="200.0" width="6" height="8" rx="1" fill="url(#windowGlow)" opacity="0.7261092396108941"/>
<rect x="420.9" y="200.0" width="6" height="8" rx="1" fill="url(#windowGlow)" opacity="0.7353941120837787"/>
<rect x="434.9" y="200.0" width="6" height="8" rx="1" fill="url(#windowGlow)" opacity="0.963934017049118"/>
<rect x="448.9" y="200.0" width="6" height="8" rx="1" fill="url(#windowGlow)" opacity="0.8805503785053967"/>
<rect x="406.9" y="215.0" width="6" height="8" rx="1" fill="url(#windowGlow)" opacity="0.7263727320015303"/>
<rect x="420.9" y="215.0" width="6" height="8" rx="1" fill="url(#windowGlow)" opacity="0.7882361699772236"/>
<rect x="434.9" y="215.0" width="6" height="8" rx="1" fill="url(#windowGlow)" opacity="0.9594902862606058"/>
<rect x="448.9" y="215.0" width="6" height="8" rx="1" fill="url(#windowGlow)" opacity="0.7889764557541238"/>
<rect x="406.9" y="230.0" width="6" height="8" rx="1" fill="url(#windowGlow)" opacity="0.8710787231433571"/>
<rect x="420.9" y="230.0" width="6" height="8" rx="1" fill="url(#windowGlow)" opacity="0.8428395093618144"/>
<rect x="434.9" y="230.0" width="6" height="8" rx="1" fill="url(#windowGlow)" opacity="0.8656547874517994"/>
<rect x="448.9" y="230.0" width="6" height="8" rx="1" fill="url(#windowGlow)" opacity="0.9165243111162094"/>
<rect x="406.9" y="245.0" width="6" height="8" rx="1" fill="url(#windowGlow)" opacity="0.8347309207705459"/>
<rect x="420.9" y="245.0" width="6" height="8" rx="1" fill="url(#windowGlow)" opacity="0.9016588879291242"/>
<rect x="406.9" y="260.0" width="6" height="8" rx="1" fill="url(#windowGlow)" opacity="0.7586845907190277"/>
<rect x="448.9" y="260.0" width="6" height="8" rx="1" fill="url(#windowGlow)" opacity="0.8207013093962805"/>
<path d="M401.8 209.0 L430.9 209.0 L427.9 215.0 L404.8 215.0 Z" fill="url(#roof_navyRoof)" opacity="0.68"/>
<rect x="707.3" y="237.0" width="42.7" height="63.0" rx="3" fill="url(#bldg_sky)" opacity="0.85"/>
<polygon points="707.3,237.0 728.7,225.4 750.1,237.0" fill="url(#roof_tealRoof)" opacity="0.85"/>
<path d="M711.6 259.0 L728.7 259.0 L725.7 265.0 L714.6 265.0 Z" fill="url(#roof_coralRoof)" opacity="0.68"/>
<rect x="970.2" y="203.2" width="57.7" height="96.8" rx="3" fill="url(#bldg_coral)" opacity="0.85"/>
<polygon points="970.2,203.2 999.0,191.0 1027.9,203.2" fill="url(#roof_navyRoof)" opacity="0.85"/>
<rect x="989.0" y="213.2" width="6" height="8" rx="1" fill="url(#windowGlow)" opacity="0.931949993703491"/>
<rect x="1003.0" y="213.2" width="6" height="8" rx="1" fill="url(#windowGlow)" opacity="0.8468835361054555"/>
<rect x="989.0" y="228.2" width="6" height="8" rx="1" fill="url(#windowGlow)" opacity="0.9704535584293554"/>
<rect x="1003.0" y="228.2" width="6" height="8" rx="1" fill="url(#windowGlow)" opacity="0.7916021292524422"/>
<rect x="989.0" y="243.2" width="6" height="8" rx="1" fill="url(#windowGlow)" opacity="0.72076861486806"/>
<rect x="1003.0" y="243.2" width="6" height="8" rx="1" fill="url(#windowGlow)" opacity="0.7307813259916293"/>
<rect x="210.9" y="203.5" width="64.0" height="96.5" rx="3" fill="url(#bldg_teal)" opacity="1"/>
<rect x="210.9" y="200.5" width="64.0" height="3" rx="1" fill="url(#roof_coralRoof)" opacity="1"/>
<rect x="225.9" y="213.5" width="6" height="8" rx="1" fill="url(#windowGlow)" opacity="0.7406258899907702"/>
<rect x="239.9" y="213.5" width="6" height="8" rx="1" fill="url(#windowGlow)" opacity="0.7388371049607345"/>
<rect x="253.9" y="213.5" width="6" height="8" rx="1" fill="url(#windowGlow)" opacity="0.7827021928889221"/>
<rect x="225.9" y="228.5" width="6" height="8" rx="1" fill="url(#windowGlow)" opacity="0.7387278435000814"/>
<rect x="239.9" y="228.5" width="6" height="8" rx="1" fill="url(#windowGlow)" opacity="0.7277274921665562"/>
<rect x="225.9" y="243.5" width="6" height="8" rx="1" fill="url(#windowGlow)" opacity="0.7520785314739116"/>
<rect x="239.9" y="243.5" width="6" height="8" rx="1" fill="url(#windowGlow)" opacity="0.8008176703941159"/>
<rect x="253.9" y="243.5" width="6" height="8" rx="1" fill="url(#windowGlow)" opacity="0.8630740363444546"/>
<rect x="239.9" y="258.5" width="6" height="8" rx="1" fill="url(#windowGlow)" opacity="0.9543009870007173"/>
<rect x="253.9" y="258.5" width="6" height="8" rx="1" fill="url(#windowGlow)" opacity="0.808086308328475"/>
<rect x="237.9" y="284.0" width="10" height="16" rx="2" fill="url(#roof_navyRoof)" opacity="0.8"/>
<rect x="239.9" y="287.0" width="6" height="10" rx="1" fill="url(#windowGlow)" opacity="0.45"/>
<rect x="546.8" y="221.4" width="49.2" height="78.6" rx="3" fill="url(#bldg_amber)" opacity="1"/>
<polygon points="546.8,221.4 571.4,209.3 596.0,221.4" fill="url(#roof_tealRoof)" opacity="1"/>
<rect x="561.4" y="231.4" width="6" height="8" rx="1" fill="url(#windowGlow)" opacity="0.803584547668502"/>
<rect x="575.4" y="231.4" width="6" height="8" rx="1" fill="url(#windowGlow)" opacity="0.8261258861637328"/>
<rect x="561.4" y="246.4" width="6" height="8" rx="1" fill="url(#windowGlow)" opacity="0.7099289731168789"/>
<rect x="575.4" y="246.4" width="6" height="8" rx="1" fill="url(#windowGlow)" opacity="0.7934343878614876"/>
<rect x="566.4" y="284.0" width="10" height="16" rx="2" fill="url(#roof_navyRoof)" opacity="0.8"/>
<rect x="568.4" y="287.0" width="6" height="10" rx="1" fill="url(#windowGlow)" opacity="0.45"/>
<rect x="964.0" y="132.6" width="69.3" height="167.4" rx="3" fill="url(#bldg_lavender)" opacity="1"/>
<rect x="977.8" y="112.5" width="41.6" height="20.1" rx="2" fill="url(#roof_navyRoof)" opacity="1"/>
<rect x="981.6" y="142.6" width="6" height="8" rx="1" fill="url(#windowGlow)" opacity="0.8122768932079323"/>
<rect x="995.6" y="142.6" width="6" height="8" rx="1" fill="url(#windowGlow)" opacity="0.712102963734466"/>
<rect x="1009.6" y="142.6" width="6" height="8" rx="1" fill="url(#windowGlow)" opacity="0.9766062334070942"/>
<rect x="995.6" y="157.6" width="6" height="8" rx="1" fill="url(#windowGlow)" opacity="0.9084511532487585"/>
<rect x="1009.6" y="157.6" width="6" height="8" rx="1" fill="url(#windowGlow)" opacity="0.907354212741998"/>
<rect x="995.6" y="172.6" width="6" height="8" rx="1" fill="url(#windowGlow)" opacity="0.7698548222751611"/>
<rect x="981.6" y="187.6" width="6" height="8" rx="1" fill="url(#windowGlow)" opacity="0.8855534623309753"/>
<rect x="995.6" y="187.6" width="6" height="8" rx="1" fill="url(#windowGlow)" opacity="0.7154860173424175"/>
<rect x="1009.6" y="187.6" width="6" height="8" rx="1" fill="url(#windowGlow)" opacity="0.7720413379706634"/>
<rect x="981.6" y="202.6" width="6" height="8" rx="1" fill="url(#windowGlow)" opacity="0.9351079765870738"/>
<rect x="995.6" y="202.6" width="6" height="8" rx="1" fill="url(#windowGlow)" opacity="0.9066630608433219"/>
<rect x="1009.6" y="202.6" width="6" height="8" rx="1" fill="url(#windowGlow)" opacity="0.7767799080707039"/>
<rect x="981.6" y="217.6" width="6" height="8" rx="1" fill="url(#windowGlow)" opacity="0.7902429391118897"/>
<rect x="995.6" y="217.6" width="6" height="8" rx="1" fill="url(#windowGlow)" opacity="0.8189212590078456"/>
<rect x="981.6" y="232.6" width="6" height="8" rx="1" fill="url(#windowGlow)" opacity="0.9507230141901983"/>
<rect x="995.6" y="232.6" width="6" height="8" rx="1" fill="url(#windowGlow)" opacity="0.8964435048850455"/>
<rect x="1009.6" y="232.6" width="6" height="8" rx="1" fill="url(#windowGlow)" opacity="0.878737080040731"/>
<rect x="981.6" y="247.6" width="6" height="8" rx="1" fill="url(#windowGlow)" opacity="0.9787448718113567"/>
<rect x="1009.6" y="247.6" width="6" height="8" rx="1" fill="url(#windowGlow)" opacity="0.8484520310295988"/>
<rect x="993.6" y="284.0" width="10" height="16" rx="2" fill="url(#roof_navyRoof)" opacity="0.8"/>
<rect x="995.6" y="287.0" width="6" height="10" rx="1" fill="url(#windowGlow)" opacity="0.45"/>
<rect x="407.9" y="267.7" width="6" height="17.3" rx="2" fill="#15803d"/>
<circle cx="410.9" cy="254.7" r="17.1" fill="#22c55e" opacity="0.9"/>
<circle cx="403.5" cy="257.7" r="12.8" fill="#16a34a" opacity="0.8"/>
<circle cx="416.7" cy="258.7" r="11.9" fill="#15803d" opacity="0.7"/>
<rect x="777.0" y="264.7" width="6" height="20.3" rx="2" fill="#15803d"/>
<circle cx="780.0" cy="254.7" r="14.0" fill="#22c55e" opacity="0.9"/>
<circle cx="772.9" cy="257.7" r="10.5" fill="#16a34a" opacity="0.8"/>
<circle cx="785.2" cy="258.7" r="9.8" fill="#15803d" opacity="0.7"/>
<rect x="176.4" y="263.2" width="6" height="21.8" rx="2" fill="#15803d"/>
<circle cx="179.4" cy="251.0" r="16.3" fill="#22c55e" opacity="0.9"/>
<circle cx="171.8" cy="254.0" r="12.2" fill="#16a34a" opacity="0.8"/>
<circle cx="186.7" cy="255.0" r="11.4" fill="#15803d" opacity="0.7"/>
<rect x="1069.7" y="265.9" width="6" height="19.1" rx="2" fill="#15803d"/>
<circle cx="1072.7" cy="254.7" r="15.2" fill="#22c55e" opacity="0.9"/>
<circle cx="1064.9" cy="257.7" r="11.4" fill="#16a34a" opacity="0.8"/>
<circle cx="1079.9" cy="258.7" r="10.6" fill="#15803d" opacity="0.7"/>
<rect x="668.8" y="265.9" width="6" height="19.1" rx="2" fill="#15803d"/>
<circle cx="671.8" cy="253.5" r="16.4" fill="#22c55e" opacity="0.9"/>
<circle cx="665.3" cy="256.5" r="12.3" fill="#16a34a" opacity="0.8"/>
<circle cx="677.3" cy="257.5" r="11.5" fill="#15803d" opacity="0.7"/>
<rect x="110.2" y="265.0" width="6" height="20.0" rx="2" fill="#15803d"/>
<circle cx="113.2" cy="251.9" r="17.1" fill="#22c55e" opacity="0.9"/>
<circle cx="106.4" cy="254.9" r="12.8" fill="#16a34a" opacity="0.8"/>
<circle cx="119.9" cy="255.9" r="12.0" fill="#15803d" opacity="0.7"/>
<rect x="368.5" y="268.6" width="6" height="16.4" rx="2" fill="#15803d"/>
<circle cx="371.5" cy="256.8" r="15.8" fill="#22c55e" opacity="0.9"/>
<circle cx="363.0" cy="259.8" r="11.8" fill="#16a34a" opacity="0.8"/>
<circle cx="377.3" cy="260.8" r="11.0" fill="#15803d" opacity="0.7"/>
<rect x="394.8" y="264.2" width="6" height="20.8" rx="2" fill="#15803d"/>
<circle cx="397.8" cy="253.8" r="14.4" fill="#22c55e" opacity="0.9"/>
<circle cx="389.5" cy="256.8" r="10.8" fill="#16a34a" opacity="0.8"/>
<circle cx="404.7" cy="257.8" r="10.1" fill="#15803d" opacity="0.7"/>
<rect x="953.5" y="267.0" width="6" height="18.0" rx="2" fill="#15803d"/>
<circle cx="956.5" cy="254.4" r="16.6" fill="#22c55e" opacity="0.9"/>
<circle cx="949.5" cy="257.4" r="12.5" fill="#16a34a" opacity="0.8"/>
<circle cx="963.4" cy="258.4" r="11.7" fill="#15803d" opacity="0.7"/>
<rect x="0" y="282" width="1200" height="18" fill="url(#groundGrad)"/>
<line x1="144.7" y1="282.0" x2="144.7" y2="241.6" stroke="#92400e" stroke-width="2"/>
<circle cx="144.7" cy="241.6" r="4" fill="#fef08a" opacity="0.6"/>
<circle cx="144.7" cy="241.6" r="8" fill="#fef08a" opacity="0.15" filter="url(#softGlow)"/>
<line x1="378.4" y1="282.0" x2="378.4" y2="243.7" stroke="#92400e" stroke-width="2"/>
<circle cx="378.4" cy="243.7" r="4" fill="#fef08a" opacity="0.6"/>
<circle cx="378.4" cy="243.7" r="8" fill="#fef08a" opacity="0.15" filter="url(#softGlow)"/>
<ellipse cx="308.3" cy="282.0" rx="4.1" ry="2.9" fill="#22c55e" opacity="0.6"/>
<ellipse cx="1032.0" cy="282.0" rx="5.6" ry="3.9" fill="#22c55e" opacity="0.6"/>
<ellipse cx="275.0" cy="282.0" rx="4.8" ry="3.4" fill="#22c55e" opacity="0.6"/>
<ellipse cx="669.5" cy="282.0" rx="4.3" ry="3.0" fill="#22c55e" opacity="0.6"/>
</svg>