<svg xmlns="http://www.w3.org/2000/svg" viewBox="0 0 1200 400" width="1200" height="400">
<defs>
<linearGradient id="bg" x1="0" y1="0" x2="0" y2="1"><stop offset="0%" stop-color="#d4a76a"/><stop offset="100%" stop-color="#ea580c"/></linearGradient>
<linearGradient id="warm" x1="0" y1="0" x2="1" y2="1"><stop offset="0%" stop-color="#828d9d" stop-opacity="0.18"/><stop offset="100%" stop-color="#828d9d" stop-opacity="0.06"/></linearGradient>
</defs>
<rect width="1200" height="400" fill="url(#bg)"/>
<path d="M0 400 L0 236.98626701696654 C60.0 232.1, 90.0 243.8, 150.0 248.9 C210.0 247.1, 240.0 252.8, 300.0 257.2 C360.0 255.8, 390.0 240.7, 450.0 244.8 C510.0 251.1, 540.0 236.9, 600.0 240.0 C660.0 242.4, 690.0 261.2, 750.0 253.6 C810.0 257.5, 840.0 231.2, 900.0 229.2 C960.0 226.0, 990.0 263.4, 1050.0 259.5 C1110.0 268.8, 1140.0 223.4, 1200.0 230.3 L1200 400 Z" fill="#e2742d" opacity="0.45"/>
<path d="M0 400 L0 264.6960874284651 C52.5 259.2, 97.5 285.8, 150.0 284.4 C202.5 282.3, 247.5 258.7, 300.0 262.1 C352.5 264.1, 397.5 266.0, 450.0 263.8 C502.5 268.4, 547.5 277.9, 600.0 282.3 C652.5 280.2, 697.5 281.1, 750.0 284.8 C802.5 287.9, 847.5 280.7, 900.0 280.7 C952.5 286.5, 997.5 255.2, 1050.0 262.6 C1102.5 268.9, 1147.5 278.8, 1200.0 280.3 L1200 400 Z" fill="#ea580c" opacity="0.3"/>
<rect x="337.8" y="334.4" width="18.6" height="65.6" rx="7.6" fill="#0b90b0" opacity="0.80"/>
<rect x="903.2" y="274.3" width="19.1" height="125.7" rx="5.3" fill="#198da6" opacity="0.65"/>
<rect x="604.9" y="306.7" width="22.2" height="93.3" rx="6.1" fill="#617b71" opacity="0.69"/>
<rect x="1064.7" y="297.7" width="35.7" height="102.3" rx="6.1" fill="#428287" opacity="0.85"/>
<rect x="308.4" y="304.9" width="19.0" height="95.1" rx="7.3" fill="#707766" opacity="0.60"/>
<rect x="1038.8" y="355.7" width="33.5" height="44.3" rx="5.4" fill="#597d76" opacity="0.72"/>
<rect x="761.3" y="320.6" width="15.3" height="79.4" rx="4.9" fill="#3c848c" opacity="0.73"/>
<rect x="526.6" y="370.6" width="43.3" height="29.4" rx="7.9" fill="#607b71" opacity="0.79"/>
<rect x="388.3" y="292.5" width="28.3" height="107.5" rx="5.8" fill="#597d76" opacity="0.76"/>
<rect x="549.5" y="354.9" width="20.2" height="45.1" rx="6.9" fill="#837258" opacity="0.74"/>
<rect x="640.3" y="341.0" width="14.0" height="59.0" rx="5.3" fill="#66796d" opacity="0.59"/>
<rect x="1056.8" y="291.0" width="34.1" height="109.0" rx="7.3" fill="#248a9e" opacity="0.56"/>
<rect x="1061.8" y="301.0" width="4" height="5" rx="0.5" fill="#d4a76a" opacity="0.6"/>
<rect x="1073.2" y="301.0" width="4" height="5" rx="0.5" fill="#d4a76a" opacity="0.6"/>
<rect x="1061.8" y="323.0" width="4" height="5" rx="0.5" fill="#d4a76a" opacity="0.6"/>
<rect x="1073.2" y="323.0" width="4" height="5" rx="0.5" fill="#d4a76a" opacity="0.6"/>
<rect x="1061.8" y="345.0" width="4" height="5" rx="0.5" fill="#d4a76a" opacity="0.6"/>
<rect x="1073.2" y="345.0" width="4" height="5" rx="0.5" fill="#d4a76a" opacity="0.6"/>
<rect x="1061.8" y="367.0" width="4" height="5" rx="0.5" fill="#d4a76a" opacity="0.6"/>
<rect x="1073.2" y="367.0" width="4" height="5" rx="0.5" fill="#d4a76a" opacity="0.6"/>
<circle cx="980.2" cy="17.3" r="10.0" fill="#0891b2" opacity="0.39"/>
<circle cx="890.8" cy="43.5" r="7.2" fill="#d4a76a" opacity="0.39"/>
<circle cx="742.3" cy="188.0" r="4.9" fill="#d4a76a" opacity="0.43"/>
<circle cx="1179.6" cy="125.9" r="5.8" fill="#d4a76a" opacity="0.39"/>
<circle cx="994.2" cy="181.3" r="10.6" fill="#d4a76a" opacity="0.30"/>
<rect width="1200" height="400" fill="url(#warm)"/>
<rect width="1200" height="400" fill="#d4a76a" opacity="0.36"/>
</svg>