<svg xmlns="http://www.w3.org/2000/svg" viewBox="0 0 1200 400" width="1200" height="400">
<defs>
<linearGradient id="bg" x1="0" y1="0" x2="0" y2="1"><stop offset="0%" stop-color="#94a3b8"/><stop offset="100%" stop-color="#0369a1"/></linearGradient>
<linearGradient id="warm" x1="0" y1="0" x2="1" y2="1"><stop offset="0%" stop-color="#c3964b" stop-opacity="0.18"/><stop offset="100%" stop-color="#c3964b" stop-opacity="0.06"/></linearGradient>
</defs>
<rect width="1200" height="400" fill="url(#bg)"/>
<path d="M0 400 L0 232.61295930457703 C60.0 239.8, 90.0 241.5, 150.0 238.9 C210.0 242.6, 240.0 236.8, 300.0 243.4 C360.0 245.1, 390.0 223.0, 450.0 219.9 C510.0 217.3, 540.0 245.3, 600.0 235.7 C660.0 225.9, 690.0 234.4, 750.0 242.4 C810.0 249.1, 840.0 257.7, 900.0 253.4 C960.0 255.2, 990.0 225.6, 1050.0 230.5 C1110.0 223.6, 1140.0 228.5, 1200.0 225.6 L1200 400 Z" fill="#367da9" opacity="0.45"/>
<path d="M0 400 L0 271.32726167011214 C52.5 277.7, 97.5 266.2, 150.0 268.1 C202.5 264.5, 247.5 261.8, 300.0 255.0 C352.5 249.9, 397.5 270.3, 450.0 265.5 C502.5 259.5, 547.5 276.9, 600.0 277.6 C652.5 272.7, 697.5 268.4, 750.0 271.4 C802.5 272.0, 847.5 265.7, 900.0 272.0 C952.5 275.9, 997.5 264.1, 1050.0 262.6 C1102.5 261.5, 1147.5 272.8, 1200.0 267.3 L1200 400 Z" fill="#0369a1" opacity="0.3"/>
<rect x="993.2" y="310.0" width="34.5" height="90.0" rx="3.4" fill="#048084" opacity="0.59"/>
<rect x="309.1" y="289.4" width="38.2" height="110.6" rx="5.6" fill="#048a78" opacity="0.79"/>
<rect x="687.4" y="344.4" width="49.9" height="55.6" rx="6.7" fill="#048381" opacity="0.72"/>
<rect x="702.4" y="264.9" width="47.1" height="135.1" rx="6.3" fill="#05926d" opacity="0.67"/>
<rect x="707.4" y="274.9" width="4" height="5" rx="0.5" fill="#94a3b8" opacity="0.6"/>
<rect x="723.1" y="318.9" width="4" height="5" rx="0.5" fill="#94a3b8" opacity="0.6"/>
<rect x="707.4" y="340.9" width="4" height="5" rx="0.5" fill="#94a3b8" opacity="0.6"/>
<rect x="556.0" y="261.8" width="14.9" height="138.2" rx="5.8" fill="#04857e" opacity="0.53"/>
<rect x="220.9" y="347.1" width="29.9" height="52.9" rx="7.9" fill="#04847f" opacity="0.52"/>
<rect x="1057.2" y="361.7" width="30.9" height="38.3" rx="5.6" fill="#05916f" opacity="0.58"/>
<rect x="232.6" y="311.2" width="36.5" height="88.8" rx="7.0" fill="#047f85" opacity="0.71"/>
<rect x="237.6" y="321.2" width="4" height="5" rx="0.5" fill="#94a3b8" opacity="0.6"/>
<rect x="249.7" y="321.2" width="4" height="5" rx="0.5" fill="#94a3b8" opacity="0.6"/>
<rect x="237.6" y="343.2" width="4" height="5" rx="0.5" fill="#94a3b8" opacity="0.6"/>
<rect x="249.7" y="343.2" width="4" height="5" rx="0.5" fill="#94a3b8" opacity="0.6"/>
<rect x="237.6" y="365.2" width="4" height="5" rx="0.5" fill="#94a3b8" opacity="0.6"/>
<rect x="249.7" y="365.2" width="4" height="5" rx="0.5" fill="#94a3b8" opacity="0.6"/>
<rect x="224.2" y="280.1" width="16.8" height="119.9" rx="5.9" fill="#04867d" opacity="0.75"/>
<rect x="229.2" y="312.1" width="4" height="5" rx="0.5" fill="#94a3b8" opacity="0.6"/>
<rect x="229.2" y="356.1" width="4" height="5" rx="0.5" fill="#94a3b8" opacity="0.6"/>
<rect x="342.1" y="325.4" width="23.6" height="74.6" rx="4.9" fill="#05916f" opacity="0.81"/>
<rect x="744.0" y="264.6" width="16.9" height="135.4" rx="3.0" fill="#04877b" opacity="0.80"/>
<rect x="540.3" y="321.6" width="18.2" height="78.4" rx="7.2" fill="#04867d" opacity="0.70"/>
<rect x="308.9" y="257.2" width="33.5" height="142.8" rx="6.4" fill="#058f71" opacity="0.76"/>
<rect x="368.7" y="333.1" width="28.3" height="66.9" rx="3.1" fill="#04887a" opacity="0.55"/>
<circle cx="434.1" cy="125.4" r="4.5" fill="#94a3b8" opacity="0.40"/>
<circle cx="516.9" cy="67.8" r="10.9" fill="#94a3b8" opacity="0.32"/>
<circle cx="722.2" cy="138.3" r="3.1" fill="#94a3b8" opacity="0.25"/>
<rect width="1200" height="400" fill="url(#warm)"/>
<rect width="1200" height="400" fill="#94a3b8" opacity="0.45"/>
</svg>