<svg xmlns="http://www.w3.org/2000/svg" viewBox="0 0 1200 300" width="1200" height="300">
<rect width="1200" height="300" fill="#e0eff2"/>
<path d="M0 300 L0 210.0 C345.7 172.7, 802.6 190.1, 1200 210.0 L1200 300 Z" fill="#aac2c9" opacity="0.3"/>
<rect x="173.7" y="216.8" width="73.2" height="83.2" fill="#8aabb4"/>
<rect x="462.1" y="198.7" width="51.9" height="101.3" fill="#8aabb4"/>
<rect x="677.4" y="201.7" width="74.0" height="98.3" fill="#8aabb4"/>
<rect x="979.9" y="174.6" width="72.6" height="125.4" fill="#8aabb4"/>
<rect x="120.7" y="148.7" width="35.5" height="151.3" fill="#558592"/>
<rect x="135.4" y="160.7" width="6" height="8" fill="#91b0b8" opacity="0.5"/>
<rect x="135.4" y="192.7" width="6" height="8" fill="#91b0b8" opacity="0.5"/>
<rect x="135.4" y="208.7" width="6" height="8" fill="#91b0b8" opacity="0.5"/>
<rect x="135.4" y="240.7" width="6" height="8" fill="#91b0b8" opacity="0.5"/>
<rect x="135.4" y="256.7" width="6" height="8" fill="#91b0b8" opacity="0.5"/>
<rect x="135.4" y="272.7" width="6" height="8" fill="#91b0b8" opacity="0.5"/>
<rect x="431.9" y="199.5" width="67.3" height="100.5" fill="#558592"/>
<rect x="448.5" y="211.5" width="6" height="8" fill="#91b0b8" opacity="0.5"/>
<rect x="462.5" y="211.5" width="6" height="8" fill="#91b0b8" opacity="0.5"/>
<rect x="476.5" y="211.5" width="6" height="8" fill="#91b0b8" opacity="0.5"/>
<rect x="448.5" y="227.5" width="6" height="8" fill="#91b0b8" opacity="0.5"/>
<rect x="476.5" y="227.5" width="6" height="8" fill="#91b0b8" opacity="0.5"/>
<rect x="448.5" y="243.5" width="6" height="8" fill="#91b0b8" opacity="0.5"/>
<rect x="462.5" y="243.5" width="6" height="8" fill="#91b0b8" opacity="0.5"/>
<rect x="476.5" y="243.5" width="6" height="8" fill="#91b0b8" opacity="0.5"/>
<rect x="448.5" y="259.5" width="6" height="8" fill="#91b0b8" opacity="0.5"/>
<rect x="476.5" y="259.5" width="6" height="8" fill="#91b0b8" opacity="0.5"/>
<rect x="733.6" y="154.4" width="42.1" height="145.6" fill="#558592"/>
<rect x="751.7" y="166.4" width="6" height="8" fill="#91b0b8" opacity="0.5"/>
<rect x="751.7" y="182.4" width="6" height="8" fill="#91b0b8" opacity="0.5"/>
<rect x="751.7" y="214.4" width="6" height="8" fill="#91b0b8" opacity="0.5"/>
<rect x="751.7" y="246.4" width="6" height="8" fill="#91b0b8" opacity="0.5"/>
<rect x="751.7" y="262.4" width="6" height="8" fill="#91b0b8" opacity="0.5"/>
<rect x="959.6" y="179.8" width="61.4" height="120.2" fill="#558592"/>
<rect x="973.3" y="191.8" width="6" height="8" fill="#91b0b8" opacity="0.5"/>
<rect x="987.3" y="191.8" width="6" height="8" fill="#91b0b8" opacity="0.5"/>
<rect x="1001.3" y="191.8" width="6" height="8" fill="#91b0b8" opacity="0.5"/>
<rect x="973.3" y="207.8" width="6" height="8" fill="#91b0b8" opacity="0.5"/>
<rect x="987.3" y="207.8" width="6" height="8" fill="#91b0b8" opacity="0.5"/>
<rect x="1001.3" y="207.8" width="6" height="8" fill="#91b0b8" opacity="0.5"/>
<rect x="987.3" y="223.8" width="6" height="8" fill="#91b0b8" opacity="0.5"/>
<rect x="1001.3" y="223.8" width="6" height="8" fill="#91b0b8" opacity="0.5"/>
<rect x="973.3" y="239.8" width="6" height="8" fill="#91b0b8" opacity="0.5"/>
<rect x="1001.3" y="255.8" width="6" height="8" fill="#91b0b8" opacity="0.5"/>
<rect x="973.3" y="271.8" width="6" height="8" fill="#91b0b8" opacity="0.5"/>
<rect x="154.4" y="142.6" width="73.4" height="157.4" fill="#2b6777"/>
<rect x="167.2" y="154.6" width="6" height="8" fill="#759ca7" opacity="0.5"/>
<rect x="181.2" y="154.6" width="6" height="8" fill="#759ca7" opacity="0.5"/>
<rect x="195.2" y="154.6" width="6" height="8" fill="#759ca7" opacity="0.5"/>
<rect x="209.2" y="154.6" width="6" height="8" fill="#759ca7" opacity="0.5"/>
<rect x="181.2" y="170.6" width="6" height="8" fill="#759ca7" opacity="0.5"/>
<rect x="195.2" y="170.6" width="6" height="8" fill="#759ca7" opacity="0.5"/>
<rect x="181.2" y="186.6" width="6" height="8" fill="#759ca7" opacity="0.5"/>
<rect x="195.2" y="186.6" width="6" height="8" fill="#759ca7" opacity="0.5"/>
<rect x="167.2" y="202.6" width="6" height="8" fill="#759ca7" opacity="0.5"/>
<rect x="195.2" y="202.6" width="6" height="8" fill="#759ca7" opacity="0.5"/>
<rect x="209.2" y="202.6" width="6" height="8" fill="#759ca7" opacity="0.5"/>
<rect x="195.2" y="218.6" width="6" height="8" fill="#759ca7" opacity="0.5"/>
<rect x="209.2" y="218.6" width="6" height="8" fill="#759ca7" opacity="0.5"/>
<rect x="181.2" y="234.6" width="6" height="8" fill="#759ca7" opacity="0.5"/>
<rect x="195.2" y="234.6" width="6" height="8" fill="#759ca7" opacity="0.5"/>
<rect x="209.2" y="234.6" width="6" height="8" fill="#759ca7" opacity="0.5"/>
<rect x="167.2" y="250.6" width="6" height="8" fill="#759ca7" opacity="0.5"/>
<rect x="181.2" y="250.6" width="6" height="8" fill="#759ca7" opacity="0.5"/>
<rect x="195.2" y="250.6" width="6" height="8" fill="#759ca7" opacity="0.5"/>
<rect x="209.2" y="250.6" width="6" height="8" fill="#759ca7" opacity="0.5"/>
<rect x="167.2" y="266.6" width="6" height="8" fill="#759ca7" opacity="0.5"/>
<rect x="181.2" y="266.6" width="6" height="8" fill="#759ca7" opacity="0.5"/>
<rect x="195.2" y="266.6" width="6" height="8" fill="#759ca7" opacity="0.5"/>
<rect x="438.9" y="116.1" width="46.5" height="183.9" fill="#2b6777"/>
<rect x="452.2" y="128.1" width="6" height="8" fill="#759ca7" opacity="0.5"/>
<rect x="452.2" y="144.1" width="6" height="8" fill="#759ca7" opacity="0.5"/>
<rect x="466.2" y="144.1" width="6" height="8" fill="#759ca7" opacity="0.5"/>
<rect x="452.2" y="160.1" width="6" height="8" fill="#759ca7" opacity="0.5"/>
<rect x="466.2" y="160.1" width="6" height="8" fill="#759ca7" opacity="0.5"/>
<rect x="466.2" y="176.1" width="6" height="8" fill="#759ca7" opacity="0.5"/>
<rect x="466.2" y="192.1" width="6" height="8" fill="#759ca7" opacity="0.5"/>
<rect x="452.2" y="208.1" width="6" height="8" fill="#759ca7" opacity="0.5"/>
<rect x="466.2" y="208.1" width="6" height="8" fill="#759ca7" opacity="0.5"/>
<rect x="466.2" y="224.1" width="6" height="8" fill="#759ca7" opacity="0.5"/>
<rect x="466.2" y="240.1" width="6" height="8" fill="#759ca7" opacity="0.5"/>
<rect x="466.2" y="256.1" width="6" height="8" fill="#759ca7" opacity="0.5"/>
<rect x="452.2" y="272.1" width="6" height="8" fill="#759ca7" opacity="0.5"/>
<rect x="698.4" y="112.3" width="47.0" height="187.7" fill="#2b6777"/>
<rect x="711.9" y="124.3" width="6" height="8" fill="#759ca7" opacity="0.5"/>
<rect x="725.9" y="124.3" width="6" height="8" fill="#759ca7" opacity="0.5"/>
<rect x="711.9" y="140.3" width="6" height="8" fill="#759ca7" opacity="0.5"/>
<rect x="711.9" y="156.3" width="6" height="8" fill="#759ca7" opacity="0.5"/>
<rect x="725.9" y="156.3" width="6" height="8" fill="#759ca7" opacity="0.5"/>
<rect x="711.9" y="172.3" width="6" height="8" fill="#759ca7" opacity="0.5"/>
<rect x="725.9" y="172.3" width="6" height="8" fill="#759ca7" opacity="0.5"/>
<rect x="711.9" y="188.3" width="6" height="8" fill="#759ca7" opacity="0.5"/>
<rect x="725.9" y="188.3" width="6" height="8" fill="#759ca7" opacity="0.5"/>
<rect x="711.9" y="204.3" width="6" height="8" fill="#759ca7" opacity="0.5"/>
<rect x="711.9" y="220.3" width="6" height="8" fill="#759ca7" opacity="0.5"/>
<rect x="711.9" y="236.3" width="6" height="8" fill="#759ca7" opacity="0.5"/>
<rect x="725.9" y="236.3" width="6" height="8" fill="#759ca7" opacity="0.5"/>
<rect x="711.9" y="252.3" width="6" height="8" fill="#759ca7" opacity="0.5"/>
<rect x="725.9" y="252.3" width="6" height="8" fill="#759ca7" opacity="0.5"/>
<rect x="711.9" y="268.3" width="6" height="8" fill="#759ca7" opacity="0.5"/>
<rect x="1036.3" y="236.1" width="37.1" height="63.9" fill="#2b6777"/>
<rect x="1051.8" y="248.1" width="6" height="8" fill="#759ca7" opacity="0.5"/>
<rect x="0" y="298" width="1200" height="2" fill="#275d6b" opacity="0.15"/>
</svg>