<svg xmlns="http://www.w3.org/2000/svg" viewBox="0 0 1200 300" width="1200" height="300">
<rect width="1200" height="300" fill="#ede8e0"/>
<path d="M0 300 L0 210.0 C230.5 161.0, 876.6 180.6, 1200 210.0 L1200 300 Z" fill="#c4c6be" opacity="0.3"/>
<rect x="211.6" y="229.4" width="65.5" height="70.6" fill="#aeb0a5"/>
<rect x="842.4" y="252.4" width="77.1" height="47.6" fill="#aeb0a5"/>
<rect x="292.3" y="178.4" width="75.6" height="121.6" fill="#898d7d"/>
<rect x="306.1" y="190.4" width="6" height="8" fill="#b2b5ab" opacity="0.5"/>
<rect x="320.1" y="190.4" width="6" height="8" fill="#b2b5ab" opacity="0.5"/>
<rect x="334.1" y="190.4" width="6" height="8" fill="#b2b5ab" opacity="0.5"/>
<rect x="306.1" y="206.4" width="6" height="8" fill="#b2b5ab" opacity="0.5"/>
<rect x="334.1" y="206.4" width="6" height="8" fill="#b2b5ab" opacity="0.5"/>
<rect x="348.1" y="206.4" width="6" height="8" fill="#b2b5ab" opacity="0.5"/>
<rect x="306.1" y="222.4" width="6" height="8" fill="#b2b5ab" opacity="0.5"/>
<rect x="320.1" y="222.4" width="6" height="8" fill="#b2b5ab" opacity="0.5"/>
<rect x="334.1" y="222.4" width="6" height="8" fill="#b2b5ab" opacity="0.5"/>
<rect x="348.1" y="222.4" width="6" height="8" fill="#b2b5ab" opacity="0.5"/>
<rect x="306.1" y="238.4" width="6" height="8" fill="#b2b5ab" opacity="0.5"/>
<rect x="320.1" y="238.4" width="6" height="8" fill="#b2b5ab" opacity="0.5"/>
<rect x="334.1" y="238.4" width="6" height="8" fill="#b2b5ab" opacity="0.5"/>
<rect x="348.1" y="238.4" width="6" height="8" fill="#b2b5ab" opacity="0.5"/>
<rect x="306.1" y="254.4" width="6" height="8" fill="#b2b5ab" opacity="0.5"/>
<rect x="320.1" y="254.4" width="6" height="8" fill="#b2b5ab" opacity="0.5"/>
<rect x="348.1" y="254.4" width="6" height="8" fill="#b2b5ab" opacity="0.5"/>
<rect x="306.1" y="270.4" width="6" height="8" fill="#b2b5ab" opacity="0.5"/>
<rect x="320.1" y="270.4" width="6" height="8" fill="#b2b5ab" opacity="0.5"/>
<rect x="334.1" y="270.4" width="6" height="8" fill="#b2b5ab" opacity="0.5"/>
<rect x="348.1" y="270.4" width="6" height="8" fill="#b2b5ab" opacity="0.5"/>
<rect x="908.3" y="183.8" width="76.7" height="116.2" fill="#898d7d"/>
<rect x="922.7" y="195.8" width="6" height="8" fill="#b2b5ab" opacity="0.5"/>
<rect x="936.7" y="195.8" width="6" height="8" fill="#b2b5ab" opacity="0.5"/>
<rect x="950.7" y="195.8" width="6" height="8" fill="#b2b5ab" opacity="0.5"/>
<rect x="964.7" y="195.8" width="6" height="8" fill="#b2b5ab" opacity="0.5"/>
<rect x="922.7" y="211.8" width="6" height="8" fill="#b2b5ab" opacity="0.5"/>
<rect x="936.7" y="211.8" width="6" height="8" fill="#b2b5ab" opacity="0.5"/>
<rect x="950.7" y="211.8" width="6" height="8" fill="#b2b5ab" opacity="0.5"/>
<rect x="964.7" y="211.8" width="6" height="8" fill="#b2b5ab" opacity="0.5"/>
<rect x="936.7" y="227.8" width="6" height="8" fill="#b2b5ab" opacity="0.5"/>
<rect x="950.7" y="227.8" width="6" height="8" fill="#b2b5ab" opacity="0.5"/>
<rect x="922.7" y="243.8" width="6" height="8" fill="#b2b5ab" opacity="0.5"/>
<rect x="936.7" y="243.8" width="6" height="8" fill="#b2b5ab" opacity="0.5"/>
<rect x="950.7" y="243.8" width="6" height="8" fill="#b2b5ab" opacity="0.5"/>
<rect x="964.7" y="243.8" width="6" height="8" fill="#b2b5ab" opacity="0.5"/>
<rect x="936.7" y="259.8" width="6" height="8" fill="#b2b5ab" opacity="0.5"/>
<rect x="304.3" y="163.0" width="46.7" height="137.0" fill="#6b705c"/>
<rect x="317.6" y="175.0" width="6" height="8" fill="#9fa295" opacity="0.5"/>
<rect x="331.6" y="175.0" width="6" height="8" fill="#9fa295" opacity="0.5"/>
<rect x="317.6" y="191.0" width="6" height="8" fill="#9fa295" opacity="0.5"/>
<rect x="331.6" y="191.0" width="6" height="8" fill="#9fa295" opacity="0.5"/>
<rect x="331.6" y="207.0" width="6" height="8" fill="#9fa295" opacity="0.5"/>
<rect x="331.6" y="223.0" width="6" height="8" fill="#9fa295" opacity="0.5"/>
<rect x="317.6" y="239.0" width="6" height="8" fill="#9fa295" opacity="0.5"/>
<rect x="331.6" y="239.0" width="6" height="8" fill="#9fa295" opacity="0.5"/>
<rect x="317.6" y="255.0" width="6" height="8" fill="#9fa295" opacity="0.5"/>
<rect x="317.6" y="271.0" width="6" height="8" fill="#9fa295" opacity="0.5"/>
<rect x="331.6" y="271.0" width="6" height="8" fill="#9fa295" opacity="0.5"/>
<rect x="832.4" y="241.5" width="43.9" height="58.5" fill="#6b705c"/>
<rect x="0" y="298" width="1200" height="2" fill="#606553" opacity="0.15"/>
</svg>