<svg xmlns="http://www.w3.org/2000/svg" viewBox="0 0 1200 300" width="1200" height="300">
<defs><linearGradient id="skyGrad" x1="0" y1="0" x2="0" y2="1"><stop offset="0%" stop-color="#e6ecf2"/><stop offset="100%" stop-color="#f0eeec"/></linearGradient></defs><rect width="1200" height="300" fill="url(#skyGrad)"/>
<rect x="105.7" y="188.7" width="89.9" height="111.3" fill="#8aabb4"/>
<rect x="324.9" y="211.6" width="77.5" height="88.4" fill="#8aabb4"/>
<polygon points="324.9,211.6 363.7,192.2 402.4,211.6" fill="#7f9da6"/>
<rect x="580.3" y="224.7" width="77.2" height="75.3" fill="#8aabb4"/>
<polygon points="580.3,224.7 618.9,205.4 657.5,224.7" fill="#7f9da6"/>
<rect x="793.0" y="236.4" width="52.4" height="63.6" fill="#8aabb4"/>
<rect x="802.2" y="225.2" width="34.1" height="11.2" fill="#83a2ab"/>
<rect x="1068.0" y="204.0" width="41.7" height="96.0" fill="#8aabb4"/>
<polygon points="1068.0,204.0 1088.8,193.6 1109.7,204.0" fill="#7f9da6"/>
<rect x="87.9" y="145.4" width="42.5" height="154.6" fill="#558592"/>
<rect x="95.3" y="118.1" width="27.6" height="27.3" fill="#517e8b"/>
<rect x="106.2" y="130.1" width="6" height="8" fill="#91b0b8" opacity="0.5"/>
<rect x="106.2" y="146.1" width="6" height="8" fill="#91b0b8" opacity="0.5"/>
<rect x="106.2" y="162.1" width="6" height="8" fill="#91b0b8" opacity="0.5"/>
<rect x="106.2" y="194.1" width="6" height="8" fill="#91b0b8" opacity="0.5"/>
<rect x="106.2" y="210.1" width="6" height="8" fill="#91b0b8" opacity="0.5"/>
<rect x="278.9" y="109.2" width="76.7" height="190.8" fill="#558592"/>
<polygon points="278.9,109.2 317.2,90.0 355.5,109.2" fill="#4e7a86"/>
<rect x="328.2" y="121.2" width="6" height="8" fill="#91b0b8" opacity="0.5"/>
<rect x="300.2" y="137.2" width="6" height="8" fill="#91b0b8" opacity="0.5"/>
<rect x="328.2" y="137.2" width="6" height="8" fill="#91b0b8" opacity="0.5"/>
<rect x="300.2" y="153.2" width="6" height="8" fill="#91b0b8" opacity="0.5"/>
<rect x="314.2" y="169.2" width="6" height="8" fill="#91b0b8" opacity="0.5"/>
<rect x="314.2" y="185.2" width="6" height="8" fill="#91b0b8" opacity="0.5"/>
<rect x="328.2" y="185.2" width="6" height="8" fill="#91b0b8" opacity="0.5"/>
<rect x="328.2" y="201.2" width="6" height="8" fill="#91b0b8" opacity="0.5"/>
<rect x="493.2" y="128.7" width="74.8" height="171.3" fill="#558592"/>
<rect x="513.6" y="140.7" width="6" height="8" fill="#91b0b8" opacity="0.5"/>
<rect x="541.6" y="140.7" width="6" height="8" fill="#91b0b8" opacity="0.5"/>
<rect x="513.6" y="156.7" width="6" height="8" fill="#91b0b8" opacity="0.5"/>
<rect x="527.6" y="156.7" width="6" height="8" fill="#91b0b8" opacity="0.5"/>
<rect x="541.6" y="156.7" width="6" height="8" fill="#91b0b8" opacity="0.5"/>
<rect x="513.6" y="172.7" width="6" height="8" fill="#91b0b8" opacity="0.5"/>
<rect x="527.6" y="172.7" width="6" height="8" fill="#91b0b8" opacity="0.5"/>
<rect x="513.6" y="188.7" width="6" height="8" fill="#91b0b8" opacity="0.5"/>
<rect x="513.6" y="204.7" width="6" height="8" fill="#91b0b8" opacity="0.5"/>
<rect x="541.6" y="204.7" width="6" height="8" fill="#91b0b8" opacity="0.5"/>
<rect x="513.6" y="220.7" width="6" height="8" fill="#91b0b8" opacity="0.5"/>
<rect x="541.6" y="220.7" width="6" height="8" fill="#91b0b8" opacity="0.5"/>
<rect x="643.8" y="191.0" width="52.8" height="109.0" fill="#558592"/>
<rect x="660.2" y="203.0" width="6" height="8" fill="#91b0b8" opacity="0.5"/>
<rect x="674.2" y="203.0" width="6" height="8" fill="#91b0b8" opacity="0.5"/>
<rect x="660.2" y="219.0" width="6" height="8" fill="#91b0b8" opacity="0.5"/>
<rect x="660.2" y="235.0" width="6" height="8" fill="#91b0b8" opacity="0.5"/>
<rect x="674.2" y="235.0" width="6" height="8" fill="#91b0b8" opacity="0.5"/>
<rect x="674.2" y="251.0" width="6" height="8" fill="#91b0b8" opacity="0.5"/>
<rect x="674.2" y="267.0" width="6" height="8" fill="#91b0b8" opacity="0.5"/>
<rect x="857.2" y="147.6" width="40.7" height="152.4" fill="#558592"/>
<polygon points="857.2,147.6 877.6,137.5 897.9,147.6" fill="#4e7a86"/>
<rect x="874.6" y="159.6" width="6" height="8" fill="#91b0b8" opacity="0.5"/>
<rect x="874.6" y="175.6" width="6" height="8" fill="#91b0b8" opacity="0.5"/>
<rect x="874.6" y="191.6" width="6" height="8" fill="#91b0b8" opacity="0.5"/>
<rect x="874.6" y="223.6" width="6" height="8" fill="#91b0b8" opacity="0.5"/>
<rect x="1017.6" y="141.7" width="75.6" height="158.3" fill="#558592"/>
<rect x="1030.8" y="113.8" width="49.2" height="27.9" fill="#517e8b"/>
<rect x="1038.4" y="125.8" width="6" height="8" fill="#91b0b8" opacity="0.5"/>
<rect x="1052.4" y="125.8" width="6" height="8" fill="#91b0b8" opacity="0.5"/>
<rect x="1066.4" y="125.8" width="6" height="8" fill="#91b0b8" opacity="0.5"/>
<rect x="1038.4" y="141.8" width="6" height="8" fill="#91b0b8" opacity="0.5"/>
<rect x="1052.4" y="141.8" width="6" height="8" fill="#91b0b8" opacity="0.5"/>
<rect x="1066.4" y="141.8" width="6" height="8" fill="#91b0b8" opacity="0.5"/>
<rect x="1038.4" y="157.8" width="6" height="8" fill="#91b0b8" opacity="0.5"/>
<rect x="1038.4" y="173.8" width="6" height="8" fill="#91b0b8" opacity="0.5"/>
<rect x="1052.4" y="173.8" width="6" height="8" fill="#91b0b8" opacity="0.5"/>
<rect x="1066.4" y="173.8" width="6" height="8" fill="#91b0b8" opacity="0.5"/>
<rect x="1038.4" y="189.8" width="6" height="8" fill="#91b0b8" opacity="0.5"/>
<rect x="1052.4" y="189.8" width="6" height="8" fill="#91b0b8" opacity="0.5"/>
<rect x="1052.4" y="205.8" width="6" height="8" fill="#91b0b8" opacity="0.5"/>
<rect x="1066.4" y="205.8" width="6" height="8" fill="#91b0b8" opacity="0.5"/>
<rect x="135.4" y="162.5" width="57.4" height="137.5" fill="#2b6777"/>
<polygon points="135.4,162.5 164.1,148.1 192.8,162.5" fill="#285f6d"/>
<rect x="154.1" y="174.5" width="6" height="8" fill="#759ca7" opacity="0.5"/>
<rect x="168.1" y="174.5" width="6" height="8" fill="#759ca7" opacity="0.5"/>
<rect x="154.1" y="190.5" width="6" height="8" fill="#759ca7" opacity="0.5"/>
<rect x="168.1" y="190.5" width="6" height="8" fill="#759ca7" opacity="0.5"/>
<rect x="168.1" y="206.5" width="6" height="8" fill="#759ca7" opacity="0.5"/>
<rect x="154.1" y="222.5" width="6" height="8" fill="#759ca7" opacity="0.5"/>
<rect x="168.1" y="222.5" width="6" height="8" fill="#759ca7" opacity="0.5"/>
<rect x="154.1" y="238.5" width="6" height="8" fill="#759ca7" opacity="0.5"/>
<rect x="168.1" y="254.5" width="6" height="8" fill="#759ca7" opacity="0.5"/>
<rect x="326.4" y="74.8" width="72.5" height="225.2" fill="#2b6777"/>
<rect x="359.6" y="102.8" width="6" height="8" fill="#759ca7" opacity="0.5"/>
<rect x="345.6" y="134.8" width="6" height="8" fill="#759ca7" opacity="0.5"/>
<rect x="359.6" y="134.8" width="6" height="8" fill="#759ca7" opacity="0.5"/>
<rect x="373.6" y="134.8" width="6" height="8" fill="#759ca7" opacity="0.5"/>
<rect x="359.6" y="150.8" width="6" height="8" fill="#759ca7" opacity="0.5"/>
<rect x="373.6" y="150.8" width="6" height="8" fill="#759ca7" opacity="0.5"/>
<rect x="345.6" y="166.8" width="6" height="8" fill="#759ca7" opacity="0.5"/>
<rect x="359.6" y="166.8" width="6" height="8" fill="#759ca7" opacity="0.5"/>
<rect x="373.6" y="166.8" width="6" height="8" fill="#759ca7" opacity="0.5"/>
<rect x="590.5" y="81.6" width="69.7" height="218.4" fill="#2b6777"/>
<rect x="622.3" y="93.6" width="6" height="8" fill="#759ca7" opacity="0.5"/>
<rect x="636.3" y="93.6" width="6" height="8" fill="#759ca7" opacity="0.5"/>
<rect x="622.3" y="109.6" width="6" height="8" fill="#759ca7" opacity="0.5"/>
<rect x="636.3" y="109.6" width="6" height="8" fill="#759ca7" opacity="0.5"/>
<rect x="636.3" y="125.6" width="6" height="8" fill="#759ca7" opacity="0.5"/>
<rect x="608.3" y="141.6" width="6" height="8" fill="#759ca7" opacity="0.5"/>
<rect x="622.3" y="141.6" width="6" height="8" fill="#759ca7" opacity="0.5"/>
<rect x="608.3" y="157.6" width="6" height="8" fill="#759ca7" opacity="0.5"/>
<rect x="608.3" y="173.6" width="6" height="8" fill="#759ca7" opacity="0.5"/>
<rect x="796.4" y="203.4" width="71.6" height="96.6" fill="#2b6777"/>
<polygon points="796.4,203.4 832.2,185.4 868.0,203.4" fill="#285f6d"/>
<rect x="829.2" y="215.4" width="6" height="8" fill="#759ca7" opacity="0.5"/>
<rect x="843.2" y="215.4" width="6" height="8" fill="#759ca7" opacity="0.5"/>
<rect x="829.2" y="231.4" width="6" height="8" fill="#759ca7" opacity="0.5"/>
<rect x="829.2" y="247.4" width="6" height="8" fill="#759ca7" opacity="0.5"/>
<rect x="843.2" y="247.4" width="6" height="8" fill="#759ca7" opacity="0.5"/>
<rect x="829.2" y="263.4" width="6" height="8" fill="#759ca7" opacity="0.5"/>
<rect x="843.2" y="263.4" width="6" height="8" fill="#759ca7" opacity="0.5"/>
<rect x="1050.8" y="189.6" width="40.2" height="110.4" fill="#2b6777"/>
<rect x="1067.9" y="217.6" width="6" height="8" fill="#759ca7" opacity="0.5"/>
<rect x="1067.9" y="233.6" width="6" height="8" fill="#759ca7" opacity="0.5"/>
<rect x="1067.9" y="249.6" width="6" height="8" fill="#759ca7" opacity="0.5"/>
<rect x="1067.9" y="265.6" width="6" height="8" fill="#759ca7" opacity="0.5"/>
<line x1="259.6" y1="285.0" x2="259.6" y2="276.7" stroke="#5c4a32" stroke-width="3"/>
<polygon points="250.1,276.7 259.6,235.6 269.1,276.7" fill="#295224"/>
<line x1="494.7" y1="285.0" x2="494.7" y2="276.4" stroke="#5c4a32" stroke-width="3"/>
<polygon points="485.0,276.4 494.7,235.1 504.3,276.4" fill="#2b5625"/>
<line x1="728.3" y1="285.0" x2="728.3" y2="275.4" stroke="#5c4a32" stroke-width="3"/>
<polygon points="719.6,275.4 728.3,245.1 736.9,275.4" fill="#2d5a27"/>
<line x1="959.4" y1="285.0" x2="959.4" y2="276.1" stroke="#5c4a32" stroke-width="3"/>
<polygon points="950.1,276.1 959.4,238.3 968.8,276.1" fill="#295224"/>
<line x1="673.4" y1="285.0" x2="673.4" y2="275.7" stroke="#5c4a32" stroke-width="3"/>
<polygon points="664.2,275.7 673.4,232.7 682.5,275.7" fill="#285023"/>
<rect x="0" y="285" width="1200" height="15" fill="#d4c5a9" opacity="0.4"/>
</svg>