<svg xmlns="http://www.w3.org/2000/svg" viewBox="0 0 1200 300" width="1200" height="300">
<defs>
<linearGradient id="skyGrad" x1="0" y1="0" x2="0" y2="1">
<stop offset="0%" stop-color="#818cf8"/>
<stop offset="22%" stop-color="#a5b4fc"/>
<stop offset="42%" stop-color="#c4b5fd"/>
<stop offset="60%" stop-color="#e0c3fc"/>
<stop offset="80%" stop-color="#fde68a"/>
<stop offset="100%" stop-color="#fef9c3"/>
</linearGradient>
<linearGradient id="bldg_coral" x1="0" y1="0" x2="0" y2="1"><stop offset="0%" stop-color="#fecaca"/><stop offset="100%" stop-color="#fca5a5"/></linearGradient>
<linearGradient id="bldg_teal" x1="0" y1="0" x2="0" y2="1"><stop offset="0%" stop-color="#99f6e4"/><stop offset="100%" stop-color="#5eead4"/></linearGradient>
<linearGradient id="bldg_amber" x1="0" y1="0" x2="0" y2="1"><stop offset="0%" stop-color="#fde68a"/><stop offset="100%" stop-color="#fcd34d"/></linearGradient>
<linearGradient id="bldg_lavender" x1="0" y1="0" x2="0" y2="1"><stop offset="0%" stop-color="#ddd6fe"/><stop offset="100%" stop-color="#c4b5fd"/></linearGradient>
<linearGradient id="bldg_blue" x1="0" y1="0" x2="0" y2="1"><stop offset="0%" stop-color="#bfdbfe"/><stop offset="100%" stop-color="#93c5fd"/></linearGradient>
<linearGradient id="bldg_mint" x1="0" y1="0" x2="0" y2="1"><stop offset="0%" stop-color="#a7f3d0"/><stop offset="100%" stop-color="#6ee7b7"/></linearGradient>
<linearGradient id="bldg_rose" x1="0" y1="0" x2="0" y2="1"><stop offset="0%" stop-color="#fecdd3"/><stop offset="100%" stop-color="#fda4af"/></linearGradient>
<linearGradient id="bldg_sky" x1="0" y1="0" x2="0" y2="1"><stop offset="0%" stop-color="#bae6fd"/><stop offset="100%" stop-color="#7dd3fc"/></linearGradient>
<linearGradient id="roof_navyRoof" x1="0" y1="0" x2="0" y2="1"><stop offset="0%" stop-color="#4338ca"/><stop offset="100%" stop-color="#3730a3"/></linearGradient>
<linearGradient id="roof_coralRoof" x1="0" y1="0" x2="0" y2="1"><stop offset="0%" stop-color="#f87171"/><stop offset="100%" stop-color="#ef4444"/></linearGradient>
<linearGradient id="roof_tealRoof" x1="0" y1="0" x2="0" y2="1"><stop offset="0%" stop-color="#2dd4bf"/><stop offset="100%" stop-color="#14b8a6"/></linearGradient>
<radialGradient id="windowGlow" cx="50%" cy="50%" r="50%"><stop offset="0%" stop-color="#fef08a"/><stop offset="60%" stop-color="#fbbf24"/><stop offset="100%" stop-color="#f59e0b"/></radialGradient>
<linearGradient id="hillFar" x1="0" y1="0" x2="0" y2="1"><stop offset="0%" stop-color="#c4b5fd"/><stop offset="100%" stop-color="#a5b4fc"/></linearGradient>
<linearGradient id="hillMid" x1="0" y1="0" x2="0" y2="1"><stop offset="0%" stop-color="#86efac"/><stop offset="100%" stop-color="#4ade80"/></linearGradient>
<linearGradient id="hillNear" x1="0" y1="0" x2="0" y2="1"><stop offset="0%" stop-color="#34d399"/><stop offset="100%" stop-color="#10b981"/></linearGradient>
<linearGradient id="hillDesertFar" x1="0" y1="0" x2="0" y2="1"><stop offset="0%" stop-color="#fde68a"/><stop offset="100%" stop-color="#fcd34d"/></linearGradient>
<linearGradient id="hillDesertMid" x1="0" y1="0" x2="0" y2="1"><stop offset="0%" stop-color="#fcd34d"/><stop offset="100%" stop-color="#fbbf24"/></linearGradient>
<linearGradient id="hillDesertNear" x1="0" y1="0" x2="0" y2="1"><stop offset="0%" stop-color="#fbbf24"/><stop offset="100%" stop-color="#f59e0b"/></linearGradient>
<linearGradient id="groundGrad" x1="0" y1="0" x2="0" y2="1"><stop offset="0%" stop-color="#fef3c7"/><stop offset="100%" stop-color="#fde68a"/></linearGradient>
<linearGradient id="waterGrad" x1="0" y1="0" x2="0" y2="1"><stop offset="0%" stop-color="#bfdbfe"/><stop offset="100%" stop-color="#93c5fd"/></linearGradient>
<filter id="softGlow" x="-50%" y="-50%" width="200%" height="200%"><feGaussianBlur in="SourceGraphic" stdDeviation="12"/></filter>
</defs>
<rect width="1200" height="300" fill="url(#skyGrad)"/>
<circle cx="955.0" cy="49.4" r="45" fill="#fef08a" opacity="0.12" filter="url(#softGlow)"/>
<circle cx="955.0" cy="49.4" r="30" fill="#fde68a" opacity="0.18" filter="url(#softGlow)"/>
<circle cx="955.0" cy="49.4" r="16" fill="#fef9c3" opacity="0.25" filter="url(#softGlow)"/>
<ellipse cx="495.8" cy="29.3" rx="33.8" ry="11.8" fill="white" opacity="0.4"/>
<ellipse cx="474.7" cy="32.7" rx="23.7" ry="9.3" fill="white" opacity="0.4"/>
<ellipse cx="514.4" cy="31.8" rx="27.0" ry="10.1" fill="white" opacity="0.3"/>
<ellipse cx="636.8" cy="32.5" rx="30.2" ry="10.6" fill="white" opacity="0.5"/>
<ellipse cx="617.9" cy="35.5" rx="21.1" ry="8.3" fill="white" opacity="0.4"/>
<ellipse cx="653.4" cy="34.8" rx="24.2" ry="9.1" fill="white" opacity="0.4"/>
<ellipse cx="593.5" cy="30.2" rx="34.6" ry="12.1" fill="white" opacity="0.4"/>
<ellipse cx="571.8" cy="33.7" rx="24.2" ry="9.5" fill="white" opacity="0.4"/>
<ellipse cx="612.5" cy="32.8" rx="27.7" ry="10.4" fill="white" opacity="0.4"/>
<path d="M0 300 L0.0 194.5 C146.1 194.5, 146.1 178.9, 292.2 178.9 C401.5 178.9, 401.5 181.1, 510.8 181.1 C601.5 181.1, 601.5 182.2, 692.2 182.2 C796.9 182.2, 796.9 188.1, 901.5 188.1 C1050.7 188.1, 1050.7 188.0, 1200.0 188.0 L1200 300 Z" fill="url(#hillFar)" opacity="0.5"/>
<path d="M0 300 L0.0 211.3 C184.6 211.3, 184.6 205.4, 369.2 205.4 C542.8 205.4, 542.8 208.7, 716.3 208.7 C958.1 208.7, 958.1 218.6, 1200.0 218.6 L1200 300 Z" fill="url(#hillMid)" opacity="0.7"/>
<path d="M0 300 L0.0 231.9 C94.5 231.9, 94.5 236.4, 189.0 236.4 C351.6 236.4, 351.6 232.1, 514.1 232.1 C645.8 232.1, 645.8 232.5, 777.5 232.5 C894.4 232.5, 894.4 236.8, 1011.4 236.8 C1105.7 236.8, 1105.7 230.7, 1200.0 230.7 L1200 300 Z" fill="url(#hillNear)" opacity="1"/>
<rect x="251.9" y="235.9" width="40.3" height="64.1" rx="3" fill="url(#bldg_sky)" opacity="0.7"/>
<polygon points="251.9,235.9 272.1,223.5 292.3,235.9" fill="url(#roof_navyRoof)" opacity="0.7"/>
<rect x="269.1" y="245.9" width="6" height="8" rx="1" fill="url(#windowGlow)" opacity="0.9486880406498387"/>
<rect x="269.1" y="260.9" width="6" height="8" rx="1" fill="url(#windowGlow)" opacity="0.9550119577697533"/>
<rect x="911.6" y="203.8" width="41.8" height="96.2" rx="3" fill="url(#bldg_coral)" opacity="0.7"/>
<polygon points="911.6,203.8 932.5,191.7 953.4,203.8" fill="url(#roof_coralRoof)" opacity="0.7"/>
<rect x="929.5" y="213.8" width="6" height="8" rx="1" fill="url(#windowGlow)" opacity="0.7318759593795406"/>
<rect x="929.5" y="228.8" width="6" height="8" rx="1" fill="url(#windowGlow)" opacity="0.8534372742536651"/>
<rect x="929.5" y="243.8" width="6" height="8" rx="1" fill="url(#windowGlow)" opacity="0.8063098887010989"/>
<rect x="240.2" y="170.2" width="46.2" height="129.8" rx="3" fill="url(#bldg_teal)" opacity="0.85"/>
<rect x="240.2" y="167.2" width="46.2" height="3" rx="1" fill="url(#roof_tealRoof)" opacity="0.85"/>
<rect x="253.3" y="180.2" width="6" height="8" rx="1" fill="url(#windowGlow)" opacity="0.7492062225701316"/>
<rect x="253.3" y="195.2" width="6" height="8" rx="1" fill="url(#windowGlow)" opacity="0.8967207644119489"/>
<rect x="267.3" y="195.2" width="6" height="8" rx="1" fill="url(#windowGlow)" opacity="0.7907909786751451"/>
<rect x="253.3" y="210.2" width="6" height="8" rx="1" fill="url(#windowGlow)" opacity="0.929807576737277"/>
<rect x="267.3" y="210.2" width="6" height="8" rx="1" fill="url(#windowGlow)" opacity="0.8017571885612593"/>
<rect x="253.3" y="225.2" width="6" height="8" rx="1" fill="url(#windowGlow)" opacity="0.8781198203461802"/>
<rect x="267.3" y="225.2" width="6" height="8" rx="1" fill="url(#windowGlow)" opacity="0.9017423125923342"/>
<rect x="253.3" y="240.2" width="6" height="8" rx="1" fill="url(#windowGlow)" opacity="0.8331560132713783"/>
<rect x="267.3" y="240.2" width="6" height="8" rx="1" fill="url(#windowGlow)" opacity="0.952091594157783"/>
<rect x="253.3" y="255.2" width="6" height="8" rx="1" fill="url(#windowGlow)" opacity="0.8904361274048853"/>
<rect x="267.3" y="255.2" width="6" height="8" rx="1" fill="url(#windowGlow)" opacity="0.8070572285480132"/>
<rect x="582.2" y="230.5" width="64.9" height="69.5" rx="3" fill="url(#bldg_amber)" opacity="0.85"/>
<rect x="595.1" y="222.1" width="38.9" height="8.3" rx="2" fill="url(#roof_navyRoof)" opacity="0.85"/>
<rect x="597.6" y="240.5" width="6" height="8" rx="1" fill="url(#windowGlow)" opacity="0.8879072499405161"/>
<rect x="625.6" y="240.5" width="6" height="8" rx="1" fill="url(#windowGlow)" opacity="0.9491349125975439"/>
<rect x="597.6" y="255.5" width="6" height="8" rx="1" fill="url(#windowGlow)" opacity="0.8277711899149097"/>
<rect x="611.6" y="255.5" width="6" height="8" rx="1" fill="url(#windowGlow)" opacity="0.7066118537944797"/>
<rect x="625.6" y="255.5" width="6" height="8" rx="1" fill="url(#windowGlow)" opacity="0.9981592826536667"/>
<rect x="980.7" y="210.1" width="52.1" height="89.9" rx="3" fill="url(#bldg_lavender)" opacity="0.85"/>
<rect x="980.7" y="207.1" width="52.1" height="3" rx="1" fill="url(#roof_coralRoof)" opacity="0.85"/>
<rect x="996.8" y="220.1" width="6" height="8" rx="1" fill="url(#windowGlow)" opacity="0.9229590339227388"/>
<rect x="996.8" y="235.1" width="6" height="8" rx="1" fill="url(#windowGlow)" opacity="0.912257642025248"/>
<rect x="1010.8" y="235.1" width="6" height="8" rx="1" fill="url(#windowGlow)" opacity="0.8164064690081432"/>
<rect x="1010.8" y="250.1" width="6" height="8" rx="1" fill="url(#windowGlow)" opacity="0.9359108144118966"/>
<path d="M1006.8 241.5 L1027.6 241.5 L1024.6 247.5 L1009.8 247.5 Z" fill="url(#roof_navyRoof)" opacity="0.68"/>
<rect x="241.9" y="182.0" width="32.6" height="118.0" rx="3" fill="url(#bldg_blue)" opacity="1"/>
<rect x="241.9" y="179.0" width="32.6" height="3" rx="1" fill="url(#roof_tealRoof)" opacity="1"/>
<rect x="255.2" y="192.0" width="6" height="8" rx="1" fill="url(#windowGlow)" opacity="0.8756728779411282"/>
<rect x="255.2" y="207.0" width="6" height="8" rx="1" fill="url(#windowGlow)" opacity="0.7712981118221293"/>
<rect x="255.2" y="237.0" width="6" height="8" rx="1" fill="url(#windowGlow)" opacity="0.759386635180277"/>
<rect x="255.2" y="252.0" width="6" height="8" rx="1" fill="url(#windowGlow)" opacity="0.7044901395703154"/>
<rect x="253.2" y="284.0" width="10" height="16" rx="2" fill="url(#roof_navyRoof)" opacity="0.8"/>
<rect x="255.2" y="287.0" width="6" height="10" rx="1" fill="url(#windowGlow)" opacity="0.45"/>
<path d="M245.1 223.3 L258.2 223.3 L255.2 229.3 L248.1 229.3 Z" fill="url(#roof_coralRoof)" opacity="0.8"/>
<rect x="622.3" y="151.3" width="35.0" height="148.7" rx="3" fill="url(#bldg_mint)" opacity="1"/>
<polygon points="622.3,151.3 639.8,143.5 657.3,151.3" fill="url(#roof_navyRoof)" opacity="1"/>
<rect x="636.8" y="161.3" width="6" height="8" rx="1" fill="url(#windowGlow)" opacity="0.8944179826390082"/>
<rect x="636.8" y="176.3" width="6" height="8" rx="1" fill="url(#windowGlow)" opacity="0.9752448026441245"/>
<rect x="636.8" y="191.3" width="6" height="8" rx="1" fill="url(#windowGlow)" opacity="0.8860635167854203"/>
<rect x="636.8" y="206.3" width="6" height="8" rx="1" fill="url(#windowGlow)" opacity="0.778745538126093"/>
<rect x="636.8" y="221.3" width="6" height="8" rx="1" fill="url(#windowGlow)" opacity="0.7107034612496865"/>
<rect x="636.8" y="236.3" width="6" height="8" rx="1" fill="url(#windowGlow)" opacity="0.7067177682214965"/>
<rect x="636.8" y="251.3" width="6" height="8" rx="1" fill="url(#windowGlow)" opacity="0.9502282562899534"/>
<rect x="634.8" y="284.0" width="10" height="16" rx="2" fill="url(#roof_navyRoof)" opacity="0.8"/>
<rect x="636.8" y="287.0" width="6" height="10" rx="1" fill="url(#windowGlow)" opacity="0.45"/>
<rect x="982.1" y="155.0" width="38.5" height="145.0" rx="3" fill="url(#bldg_rose)" opacity="1"/>
<rect x="982.1" y="152.0" width="38.5" height="3" rx="1" fill="url(#roof_coralRoof)" opacity="1"/>
<rect x="998.4" y="180.0" width="6" height="8" rx="1" fill="url(#windowGlow)" opacity="0.9652230974590512"/>
<rect x="998.4" y="195.0" width="6" height="8" rx="1" fill="url(#windowGlow)" opacity="0.755335557300288"/>
<rect x="998.4" y="210.0" width="6" height="8" rx="1" fill="url(#windowGlow)" opacity="0.7905856603247047"/>
<rect x="998.4" y="225.0" width="6" height="8" rx="1" fill="url(#windowGlow)" opacity="0.8206326287801529"/>
<rect x="998.4" y="240.0" width="6" height="8" rx="1" fill="url(#windowGlow)" opacity="0.8525151692109718"/>
<rect x="996.4" y="284.0" width="10" height="16" rx="2" fill="url(#roof_navyRoof)" opacity="0.8"/>
<rect x="998.4" y="287.0" width="6" height="10" rx="1" fill="url(#windowGlow)" opacity="0.45"/>
<rect x="994.6" y="181.0" width="13.5" height="5" rx="1" fill="#15803d" opacity="0.7"/>
<circle cx="997.6" cy="180.0" r="2.5" fill="#f87171" opacity="0.85"/>
<circle cx="1002.1" cy="180.0" r="2.5" fill="#fbbf24" opacity="0.85"/>
<circle cx="1006.6" cy="180.0" r="2.5" fill="#fb923c" opacity="0.85"/>
<rect x="445.4" y="266.8" width="6" height="18.2" rx="2" fill="#15803d"/>
<circle cx="448.4" cy="256.6" r="14.2" fill="#22c55e" opacity="0.9"/>
<circle cx="441.9" cy="259.6" r="10.7" fill="#16a34a" opacity="0.8"/>
<circle cx="454.9" cy="260.6" r="9.9" fill="#15803d" opacity="0.7"/>
<rect x="816.7" y="269.0" width="6" height="16.0" rx="2" fill="#15803d"/>
<circle cx="819.7" cy="258.1" r="14.9" fill="#22c55e" opacity="0.9"/>
<circle cx="812.3" cy="261.1" r="11.2" fill="#16a34a" opacity="0.8"/>
<circle cx="827.1" cy="262.1" r="10.4" fill="#15803d" opacity="0.7"/>
<rect x="190.2" y="268.5" width="6" height="16.5" rx="2" fill="#15803d"/>
<circle cx="193.2" cy="258.8" r="13.6" fill="#22c55e" opacity="0.9"/>
<circle cx="184.6" cy="261.8" r="10.2" fill="#16a34a" opacity="0.8"/>
<circle cx="200.7" cy="262.8" r="9.5" fill="#15803d" opacity="0.7"/>
<rect x="1050.2" y="263.4" width="6" height="21.6" rx="2" fill="#15803d"/>
<circle cx="1053.2" cy="252.6" r="14.7" fill="#22c55e" opacity="0.9"/>
<circle cx="1046.9" cy="255.6" r="11.1" fill="#16a34a" opacity="0.8"/>
<circle cx="1060.0" cy="256.6" r="10.3" fill="#15803d" opacity="0.7"/>
<rect x="194.2" y="263.4" width="6" height="21.6" rx="2" fill="#15803d"/>
<circle cx="197.2" cy="253.6" r="13.9" fill="#22c55e" opacity="0.9"/>
<circle cx="190.6" cy="256.6" r="10.4" fill="#16a34a" opacity="0.8"/>
<circle cx="204.3" cy="257.6" r="9.7" fill="#15803d" opacity="0.7"/>
<rect x="952.9" y="263.9" width="6" height="21.1" rx="2" fill="#15803d"/>
<circle cx="955.9" cy="250.7" r="17.2" fill="#22c55e" opacity="0.9"/>
<circle cx="949.6" cy="253.7" r="12.9" fill="#16a34a" opacity="0.8"/>
<circle cx="961.6" cy="254.7" r="12.1" fill="#15803d" opacity="0.7"/>
<rect x="179.7" y="267.4" width="6" height="17.6" rx="2" fill="#15803d"/>
<circle cx="182.7" cy="254.8" r="16.6" fill="#22c55e" opacity="0.9"/>
<circle cx="175.4" cy="257.8" r="12.4" fill="#16a34a" opacity="0.8"/>
<circle cx="189.3" cy="258.8" r="11.6" fill="#15803d" opacity="0.7"/>
<rect x="94.6" y="265.5" width="6" height="19.5" rx="2" fill="#15803d"/>
<circle cx="97.6" cy="253.0" r="16.5" fill="#22c55e" opacity="0.9"/>
<circle cx="89.8" cy="256.0" r="12.4" fill="#16a34a" opacity="0.8"/>
<circle cx="103.0" cy="257.0" r="11.6" fill="#15803d" opacity="0.7"/>
<rect x="0" y="282" width="1200" height="18" fill="url(#groundGrad)"/>
</svg>