<svg xmlns="http://www.w3.org/2000/svg" viewBox="0 0 1200 400" width="1200" height="400">
<defs>
<linearGradient id="bg" x1="0" y1="0" x2="0" y2="1"><stop offset="0%" stop-color="#94a3b8"/><stop offset="100%" stop-color="#0369a1"/></linearGradient>
<linearGradient id="warm" x1="0" y1="0" x2="1" y2="1"><stop offset="0%" stop-color="#858d98" stop-opacity="0.18"/><stop offset="100%" stop-color="#858d98" stop-opacity="0.06"/></linearGradient>
</defs>
<rect width="1200" height="400" fill="url(#bg)"/>
<path d="M0 400 L0 225.2372308107594 C60.0 233.2, 90.0 245.8, 150.0 250.8 C210.0 255.8, 240.0 247.8, 300.0 250.9 C360.0 251.7, 390.0 241.0, 450.0 231.1 C510.0 239.0, 540.0 240.6, 600.0 232.6 C660.0 232.7, 690.0 249.4, 750.0 254.9 C810.0 258.1, 840.0 249.7, 900.0 253.6 C960.0 245.4, 990.0 251.5, 1050.0 244.1 C1110.0 250.0, 1140.0 230.0, 1200.0 226.9 L1200 400 Z" fill="#367da9" opacity="0.45"/>
<path d="M0 400 L0 273.90396803178567 C52.5 280.3, 97.5 275.9, 150.0 276.1 C202.5 283.3, 247.5 278.4, 300.0 274.2 C352.5 279.5, 397.5 272.4, 450.0 271.5 C502.5 269.2, 547.5 271.8, 600.0 272.5 C652.5 278.4, 697.5 266.5, 750.0 261.6 C802.5 261.5, 847.5 259.5, 900.0 259.2 C952.5 262.8, 997.5 272.1, 1050.0 272.4 C1102.5 273.6, 1147.5 271.6, 1200.0 274.3 L1200 400 Z" fill="#0369a1" opacity="0.3"/>
<rect x="1041.9" y="355.8" width="12.7" height="44.2" rx="3.9" fill="#059070" opacity="0.69"/>
<rect x="200.7" y="285.4" width="49.8" height="114.6" rx="7.8" fill="#05946b" opacity="0.62"/>
<rect x="520.1" y="350.4" width="28.8" height="49.6" rx="6.6" fill="#048480" opacity="0.62"/>
<rect x="307.5" y="351.1" width="25.5" height="48.9" rx="7.3" fill="#048183" opacity="0.82"/>
<rect x="459.7" y="339.9" width="22.3" height="60.1" rx="4.2" fill="#047d88" opacity="0.81"/>
<rect x="481.2" y="315.6" width="35.1" height="84.4" rx="6.9" fill="#047c8a" opacity="0.55"/>
<rect x="361.9" y="344.4" width="42.3" height="55.6" rx="3.5" fill="#058d74" opacity="0.75"/>
<rect x="328.3" y="354.7" width="43.1" height="45.3" rx="6.9" fill="#058e73" opacity="0.66"/>
<rect x="612.8" y="282.4" width="37.6" height="117.6" rx="3.7" fill="#048b77" opacity="0.78"/>
<rect x="157.9" y="316.7" width="29.5" height="83.3" rx="4.8" fill="#059070" opacity="0.54"/>
<rect x="162.9" y="348.7" width="4" height="5" rx="0.5" fill="#94a3b8" opacity="0.6"/>
<rect x="120.8" y="363.8" width="33.0" height="36.2" rx="4.0" fill="#05946b" opacity="0.68"/>
<rect x="179.1" y="297.7" width="38.9" height="102.3" rx="7.0" fill="#04857f" opacity="0.80"/>
<rect x="184.1" y="307.7" width="4" height="5" rx="0.5" fill="#94a3b8" opacity="0.6"/>
<rect x="197.1" y="307.7" width="4" height="5" rx="0.5" fill="#94a3b8" opacity="0.6"/>
<rect x="184.1" y="329.7" width="4" height="5" rx="0.5" fill="#94a3b8" opacity="0.6"/>
<rect x="184.1" y="351.7" width="4" height="5" rx="0.5" fill="#94a3b8" opacity="0.6"/>
<rect x="197.1" y="351.7" width="4" height="5" rx="0.5" fill="#94a3b8" opacity="0.6"/>
<rect x="184.1" y="373.7" width="4" height="5" rx="0.5" fill="#94a3b8" opacity="0.6"/>
<rect x="197.1" y="373.7" width="4" height="5" rx="0.5" fill="#94a3b8" opacity="0.6"/>
<rect x="282.5" y="353.8" width="46.6" height="46.2" rx="4.2" fill="#04887b" opacity="0.56"/>
<circle cx="402.4" cy="55.0" r="4.8" fill="#94a3b8" opacity="0.40"/>
<circle cx="712.2" cy="225.2" r="9.7" fill="#059669" opacity="0.18"/>
<circle cx="141.6" cy="180.8" r="10.9" fill="#94a3b8" opacity="0.26"/>
<circle cx="241.1" cy="21.1" r="6.4" fill="#94a3b8" opacity="0.24"/>
<circle cx="1038.0" cy="168.1" r="5.7" fill="#94a3b8" opacity="0.43"/>
<circle cx="612.6" cy="114.3" r="8.3" fill="#059669" opacity="0.32"/>
<circle cx="866.1" cy="136.3" r="7.0" fill="#94a3b8" opacity="0.38"/>
<circle cx="7.7" cy="9.4" r="7.1" fill="#059669" opacity="0.21"/>
<circle cx="203.8" cy="156.3" r="6.6" fill="#94a3b8" opacity="0.34"/>
<circle cx="337.7" cy="113.3" r="3.6" fill="#94a3b8" opacity="0.35"/>
<circle cx="92.8" cy="19.2" r="9.5" fill="#94a3b8" opacity="0.38"/>
<circle cx="587.5" cy="127.6" r="11.1" fill="#059669" opacity="0.30"/>
<rect width="1200" height="400" fill="url(#warm)"/>
<rect width="1200" height="400" fill="#94a3b8" opacity="0.40"/>
</svg>