<svg xmlns="http://www.w3.org/2000/svg" viewBox="0 0 1200 300" width="1200" height="300">
<defs>
<linearGradient id="skyGrad" x1="0" y1="0" x2="0" y2="1">
<stop offset="0%" stop-color="#a78bfa"/>
<stop offset="18%" stop-color="#ddb4f0"/>
<stop offset="35%" stop-color="#fda4af"/>
<stop offset="52%" stop-color="#fdba74"/>
<stop offset="72%" stop-color="#fef08a"/>
<stop offset="100%" stop-color="#fef9c3"/>
</linearGradient>
<linearGradient id="bldg_coral" x1="0" y1="0" x2="0" y2="1"><stop offset="0%" stop-color="#fecaca"/><stop offset="100%" stop-color="#fca5a5"/></linearGradient>
<linearGradient id="bldg_teal" x1="0" y1="0" x2="0" y2="1"><stop offset="0%" stop-color="#99f6e4"/><stop offset="100%" stop-color="#5eead4"/></linearGradient>
<linearGradient id="bldg_amber" x1="0" y1="0" x2="0" y2="1"><stop offset="0%" stop-color="#fde68a"/><stop offset="100%" stop-color="#fcd34d"/></linearGradient>
<linearGradient id="bldg_lavender" x1="0" y1="0" x2="0" y2="1"><stop offset="0%" stop-color="#ddd6fe"/><stop offset="100%" stop-color="#c4b5fd"/></linearGradient>
<linearGradient id="bldg_blue" x1="0" y1="0" x2="0" y2="1"><stop offset="0%" stop-color="#bfdbfe"/><stop offset="100%" stop-color="#93c5fd"/></linearGradient>
<linearGradient id="bldg_mint" x1="0" y1="0" x2="0" y2="1"><stop offset="0%" stop-color="#a7f3d0"/><stop offset="100%" stop-color="#6ee7b7"/></linearGradient>
<linearGradient id="bldg_rose" x1="0" y1="0" x2="0" y2="1"><stop offset="0%" stop-color="#fecdd3"/><stop offset="100%" stop-color="#fda4af"/></linearGradient>
<linearGradient id="bldg_sky" x1="0" y1="0" x2="0" y2="1"><stop offset="0%" stop-color="#bae6fd"/><stop offset="100%" stop-color="#7dd3fc"/></linearGradient>
<linearGradient id="roof_navyRoof" x1="0" y1="0" x2="0" y2="1"><stop offset="0%" stop-color="#4338ca"/><stop offset="100%" stop-color="#3730a3"/></linearGradient>
<linearGradient id="roof_coralRoof" x1="0" y1="0" x2="0" y2="1"><stop offset="0%" stop-color="#f87171"/><stop offset="100%" stop-color="#ef4444"/></linearGradient>
<linearGradient id="roof_tealRoof" x1="0" y1="0" x2="0" y2="1"><stop offset="0%" stop-color="#2dd4bf"/><stop offset="100%" stop-color="#14b8a6"/></linearGradient>
<radialGradient id="windowGlow" cx="50%" cy="50%" r="50%"><stop offset="0%" stop-color="#fef08a"/><stop offset="60%" stop-color="#fbbf24"/><stop offset="100%" stop-color="#f59e0b"/></radialGradient>
<linearGradient id="hillFar" x1="0" y1="0" x2="0" y2="1"><stop offset="0%" stop-color="#c4b5fd"/><stop offset="100%" stop-color="#a5b4fc"/></linearGradient>
<linearGradient id="hillMid" x1="0" y1="0" x2="0" y2="1"><stop offset="0%" stop-color="#86efac"/><stop offset="100%" stop-color="#4ade80"/></linearGradient>
<linearGradient id="hillNear" x1="0" y1="0" x2="0" y2="1"><stop offset="0%" stop-color="#34d399"/><stop offset="100%" stop-color="#10b981"/></linearGradient>
<linearGradient id="hillDesertFar" x1="0" y1="0" x2="0" y2="1"><stop offset="0%" stop-color="#fde68a"/><stop offset="100%" stop-color="#fcd34d"/></linearGradient>
<linearGradient id="hillDesertMid" x1="0" y1="0" x2="0" y2="1"><stop offset="0%" stop-color="#fcd34d"/><stop offset="100%" stop-color="#fbbf24"/></linearGradient>
<linearGradient id="hillDesertNear" x1="0" y1="0" x2="0" y2="1"><stop offset="0%" stop-color="#fbbf24"/><stop offset="100%" stop-color="#f59e0b"/></linearGradient>
<linearGradient id="groundGrad" x1="0" y1="0" x2="0" y2="1"><stop offset="0%" stop-color="#fef3c7"/><stop offset="100%" stop-color="#fde68a"/></linearGradient>
<linearGradient id="waterGrad" x1="0" y1="0" x2="0" y2="1"><stop offset="0%" stop-color="#bfdbfe"/><stop offset="100%" stop-color="#93c5fd"/></linearGradient>
<filter id="softGlow" x="-50%" y="-50%" width="200%" height="200%"><feGaussianBlur in="SourceGraphic" stdDeviation="12"/></filter>
</defs>
<rect width="1200" height="300" fill="url(#skyGrad)"/>
<circle cx="908.1" cy="41.0" r="45" fill="#fef08a" opacity="0.12" filter="url(#softGlow)"/>
<circle cx="908.1" cy="41.0" r="30" fill="#fde68a" opacity="0.18" filter="url(#softGlow)"/>
<circle cx="908.1" cy="41.0" r="16" fill="#fef9c3" opacity="0.25" filter="url(#softGlow)"/>
<path d="M0 300 L0.0 190.7 C156.2 190.7, 156.2 176.0, 312.4 176.0 C549.3 176.0, 549.3 185.7, 786.1 185.7 C993.1 185.7, 993.1 202.9, 1200.0 202.9 L1200 300 Z" fill="url(#hillFar)" opacity="0.5"/>
<path d="M0 300 L0.0 205.3 C157.8 205.3, 157.8 203.3, 315.5 203.3 C573.3 203.3, 573.3 206.3, 831.0 206.3 C1015.5 206.3, 1015.5 216.6, 1200.0 216.6 L1200 300 Z" fill="url(#hillMid)" opacity="0.7"/>
<path d="M0 300 L0.0 227.2 C184.9 227.2, 184.9 231.0, 369.8 231.0 C576.5 231.0, 576.5 235.1, 783.3 235.1 C991.6 235.1, 991.6 238.1, 1200.0 238.1 L1200 300 Z" fill="url(#hillNear)" opacity="1"/>
<rect x="100.3" y="229.7" width="53.8" height="70.3" rx="3" fill="url(#bldg_blue)" opacity="0.7"/>
<polygon points="100.3,229.7 127.2,212.6 154.1,229.7" fill="url(#roof_navyRoof)" opacity="0.7"/>
<rect x="131.2" y="239.7" width="6" height="8" rx="1" fill="url(#windowGlow)" opacity="0.9201593308803435"/>
<rect x="131.2" y="254.7" width="6" height="8" rx="1" fill="url(#windowGlow)" opacity="0.8253077823786567"/>
<rect x="345.8" y="207.9" width="64.1" height="92.1" rx="3" fill="url(#bldg_mint)" opacity="0.7"/>
<polygon points="345.8,207.9 377.9,190.0 409.9,207.9" fill="url(#roof_coralRoof)" opacity="0.7"/>
<rect x="360.9" y="217.9" width="6" height="8" rx="1" fill="url(#windowGlow)" opacity="0.9150619889213992"/>
<rect x="374.9" y="217.9" width="6" height="8" rx="1" fill="url(#windowGlow)" opacity="0.7089490443975427"/>
<rect x="388.9" y="217.9" width="6" height="8" rx="1" fill="url(#windowGlow)" opacity="0.8514993489028416"/>
<rect x="360.9" y="232.9" width="6" height="8" rx="1" fill="url(#windowGlow)" opacity="0.9994291476902687"/>
<rect x="374.9" y="247.9" width="6" height="8" rx="1" fill="url(#windowGlow)" opacity="0.8915017561947469"/>
<rect x="581.4" y="231.0" width="54.1" height="69.0" rx="3" fill="url(#bldg_rose)" opacity="0.7"/>
<polygon points="581.4,231.0 608.5,219.3 635.5,231.0" fill="url(#roof_tealRoof)" opacity="0.7"/>
<rect x="598.5" y="241.0" width="6" height="8" rx="1" fill="url(#windowGlow)" opacity="0.7577124701615946"/>
<rect x="612.5" y="241.0" width="6" height="8" rx="1" fill="url(#windowGlow)" opacity="0.9323444062528872"/>
<rect x="772.9" y="226.0" width="86.6" height="74.0" rx="3" fill="url(#bldg_sky)" opacity="0.7"/>
<rect x="772.9" y="223.0" width="86.6" height="3" rx="1" fill="url(#roof_navyRoof)" opacity="0.7"/>
<rect x="792.2" y="236.0" width="6" height="8" rx="1" fill="url(#windowGlow)" opacity="0.9603055130971155"/>
<rect x="806.2" y="236.0" width="6" height="8" rx="1" fill="url(#windowGlow)" opacity="0.9670357122398148"/>
<rect x="820.2" y="236.0" width="6" height="8" rx="1" fill="url(#windowGlow)" opacity="0.8604273924419783"/>
<rect x="834.2" y="236.0" width="6" height="8" rx="1" fill="url(#windowGlow)" opacity="0.9855781612384962"/>
<rect x="806.2" y="251.0" width="6" height="8" rx="1" fill="url(#windowGlow)" opacity="0.9059420893462105"/>
<rect x="820.2" y="251.0" width="6" height="8" rx="1" fill="url(#windowGlow)" opacity="0.8234675721374655"/>
<rect x="991.8" y="219.9" width="62.9" height="80.1" rx="3" fill="url(#bldg_coral)" opacity="0.7"/>
<rect x="991.8" y="216.9" width="62.9" height="3" rx="1" fill="url(#roof_coralRoof)" opacity="0.7"/>
<rect x="1006.3" y="229.9" width="6" height="8" rx="1" fill="url(#windowGlow)" opacity="0.9811556555243002"/>
<rect x="1034.3" y="229.9" width="6" height="8" rx="1" fill="url(#windowGlow)" opacity="0.9130602723979672"/>
<rect x="1006.3" y="244.9" width="6" height="8" rx="1" fill="url(#windowGlow)" opacity="0.8937851252005365"/>
<rect x="1034.3" y="244.9" width="6" height="8" rx="1" fill="url(#windowGlow)" opacity="0.8720853614956537"/>
<rect x="1006.3" y="259.9" width="6" height="8" rx="1" fill="url(#windowGlow)" opacity="0.8486027749481624"/>
<rect x="1020.3" y="259.9" width="6" height="8" rx="1" fill="url(#windowGlow)" opacity="0.8389194944123362"/>
<rect x="1034.3" y="259.9" width="6" height="8" rx="1" fill="url(#windowGlow)" opacity="0.8989020891948147"/>
<rect x="141.1" y="126.4" width="47.7" height="173.6" rx="3" fill="url(#bldg_teal)" opacity="0.85"/>
<polygon points="141.1,126.4 165.0,111.1 188.9,126.4" fill="url(#roof_tealRoof)" opacity="0.85"/>
<rect x="155.0" y="136.4" width="6" height="8" rx="1" fill="url(#windowGlow)" opacity="0.7456125212580024"/>
<rect x="169.0" y="136.4" width="6" height="8" rx="1" fill="url(#windowGlow)" opacity="0.8096519102387372"/>
<rect x="155.0" y="151.4" width="6" height="8" rx="1" fill="url(#windowGlow)" opacity="0.7716397929804585"/>
<rect x="169.0" y="151.4" width="6" height="8" rx="1" fill="url(#windowGlow)" opacity="0.7718024323563102"/>
<rect x="155.0" y="166.4" width="6" height="8" rx="1" fill="url(#windowGlow)" opacity="0.7454448932527773"/>
<rect x="169.0" y="166.4" width="6" height="8" rx="1" fill="url(#windowGlow)" opacity="0.8171370626507033"/>
<rect x="155.0" y="181.4" width="6" height="8" rx="1" fill="url(#windowGlow)" opacity="0.7872916370571086"/>
<rect x="169.0" y="181.4" width="6" height="8" rx="1" fill="url(#windowGlow)" opacity="0.9486096642672128"/>
<rect x="155.0" y="196.4" width="6" height="8" rx="1" fill="url(#windowGlow)" opacity="0.9907676613846643"/>
<rect x="169.0" y="196.4" width="6" height="8" rx="1" fill="url(#windowGlow)" opacity="0.7835562718024274"/>
<rect x="155.0" y="211.4" width="6" height="8" rx="1" fill="url(#windowGlow)" opacity="0.9089538585901976"/>
<rect x="169.0" y="211.4" width="6" height="8" rx="1" fill="url(#windowGlow)" opacity="0.878829369265041"/>
<rect x="155.0" y="226.4" width="6" height="8" rx="1" fill="url(#windowGlow)" opacity="0.8646172480958594"/>
<rect x="169.0" y="226.4" width="6" height="8" rx="1" fill="url(#windowGlow)" opacity="0.915893104074473"/>
<rect x="155.0" y="241.4" width="6" height="8" rx="1" fill="url(#windowGlow)" opacity="0.8938022844930189"/>
<rect x="169.0" y="241.4" width="6" height="8" rx="1" fill="url(#windowGlow)" opacity="0.83025443993055"/>
<rect x="365.8" y="196.6" width="54.4" height="103.4" rx="3" fill="url(#bldg_amber)" opacity="0.85"/>
<polygon points="365.8,196.6 392.9,178.1 420.1,196.6" fill="url(#roof_navyRoof)" opacity="0.85"/>
<rect x="382.9" y="206.6" width="6" height="8" rx="1" fill="url(#windowGlow)" opacity="0.9647465566474696"/>
<rect x="396.9" y="206.6" width="6" height="8" rx="1" fill="url(#windowGlow)" opacity="0.8920336273461736"/>
<rect x="396.9" y="221.6" width="6" height="8" rx="1" fill="url(#windowGlow)" opacity="0.7201670804620567"/>
<rect x="382.9" y="236.6" width="6" height="8" rx="1" fill="url(#windowGlow)" opacity="0.749796383152621"/>
<rect x="396.9" y="236.6" width="6" height="8" rx="1" fill="url(#windowGlow)" opacity="0.9529402569648531"/>
<rect x="382.9" y="251.6" width="6" height="8" rx="1" fill="url(#windowGlow)" opacity="0.7096769160170466"/>
<path d="M371.2 232.8 L392.9 232.8 L389.9 238.8 L374.2 238.8 Z" fill="url(#roof_tealRoof)" opacity="0.68"/>
<rect x="555.6" y="128.3" width="65.2" height="171.7" rx="3" fill="url(#bldg_lavender)" opacity="0.85"/>
<polygon points="555.6,128.3 588.2,114.3 620.9,128.3" fill="url(#roof_coralRoof)" opacity="0.85"/>
<rect x="571.2" y="138.3" width="6" height="8" rx="1" fill="url(#windowGlow)" opacity="0.8349841971578934"/>
<rect x="599.2" y="138.3" width="6" height="8" rx="1" fill="url(#windowGlow)" opacity="0.909540069340514"/>
<rect x="585.2" y="153.3" width="6" height="8" rx="1" fill="url(#windowGlow)" opacity="0.7583111700873408"/>
<rect x="571.2" y="168.3" width="6" height="8" rx="1" fill="url(#windowGlow)" opacity="0.7377651541204029"/>
<rect x="585.2" y="168.3" width="6" height="8" rx="1" fill="url(#windowGlow)" opacity="0.9102541728458619"/>
<rect x="599.2" y="168.3" width="6" height="8" rx="1" fill="url(#windowGlow)" opacity="0.719579907189859"/>
<rect x="571.2" y="183.3" width="6" height="8" rx="1" fill="url(#windowGlow)" opacity="0.7314689654537797"/>
<rect x="585.2" y="183.3" width="6" height="8" rx="1" fill="url(#windowGlow)" opacity="0.7499156157252916"/>
<rect x="585.2" y="198.3" width="6" height="8" rx="1" fill="url(#windowGlow)" opacity="0.990659401002647"/>
<rect x="599.2" y="198.3" width="6" height="8" rx="1" fill="url(#windowGlow)" opacity="0.7184902667619708"/>
<rect x="585.2" y="213.3" width="6" height="8" rx="1" fill="url(#windowGlow)" opacity="0.9480363626256754"/>
<rect x="599.2" y="213.3" width="6" height="8" rx="1" fill="url(#windowGlow)" opacity="0.7395018896271949"/>
<rect x="571.2" y="228.3" width="6" height="8" rx="1" fill="url(#windowGlow)" opacity="0.9489830868546771"/>
<rect x="585.2" y="228.3" width="6" height="8" rx="1" fill="url(#windowGlow)" opacity="0.9179387216539767"/>
<rect x="599.2" y="228.3" width="6" height="8" rx="1" fill="url(#windowGlow)" opacity="0.8304212793383846"/>
<rect x="585.2" y="243.3" width="6" height="8" rx="1" fill="url(#windowGlow)" opacity="0.9485163563622703"/>
<rect x="599.2" y="243.3" width="6" height="8" rx="1" fill="url(#windowGlow)" opacity="0.8577819429607045"/>
<rect x="789.4" y="214.3" width="78.6" height="85.7" rx="3" fill="url(#bldg_blue)" opacity="0.85"/>
<polygon points="789.4,214.3 828.6,188.4 867.9,214.3" fill="url(#roof_tealRoof)" opacity="0.85"/>
<rect x="804.6" y="224.3" width="6" height="8" rx="1" fill="url(#windowGlow)" opacity="0.8757002188710962"/>
<rect x="818.6" y="224.3" width="6" height="8" rx="1" fill="url(#windowGlow)" opacity="0.7693152019145503"/>
<rect x="804.6" y="239.3" width="6" height="8" rx="1" fill="url(#windowGlow)" opacity="0.7713027752336593"/>
<rect x="818.6" y="239.3" width="6" height="8" rx="1" fill="url(#windowGlow)" opacity="0.867663253363065"/>
<rect x="846.6" y="239.3" width="6" height="8" rx="1" fill="url(#windowGlow)" opacity="0.9904602215580922"/>
<rect x="804.6" y="254.3" width="6" height="8" rx="1" fill="url(#windowGlow)" opacity="0.8410691178595038"/>
<rect x="818.6" y="254.3" width="6" height="8" rx="1" fill="url(#windowGlow)" opacity="0.9706862619941523"/>
<rect x="832.6" y="254.3" width="6" height="8" rx="1" fill="url(#windowGlow)" opacity="0.7506503012732837"/>
<rect x="846.6" y="254.3" width="6" height="8" rx="1" fill="url(#windowGlow)" opacity="0.8831460502385842"/>
<rect x="1003.4" y="158.7" width="41.8" height="141.3" rx="3" fill="url(#bldg_mint)" opacity="0.85"/>
<polygon points="1003.4,158.7 1024.3,150.3 1045.2,158.7" fill="url(#roof_navyRoof)" opacity="0.85"/>
<rect x="1021.3" y="168.7" width="6" height="8" rx="1" fill="url(#windowGlow)" opacity="0.7288256527990222"/>
<rect x="1021.3" y="183.7" width="6" height="8" rx="1" fill="url(#windowGlow)" opacity="0.7192584660925243"/>
<rect x="1021.3" y="198.7" width="6" height="8" rx="1" fill="url(#windowGlow)" opacity="0.9180637226524128"/>
<rect x="1021.3" y="213.7" width="6" height="8" rx="1" fill="url(#windowGlow)" opacity="0.8324840243591387"/>
<rect x="130.3" y="203.7" width="60.4" height="96.3" rx="3" fill="url(#bldg_rose)" opacity="1"/>
<rect x="142.4" y="192.1" width="36.2" height="11.6" rx="2" fill="url(#roof_coralRoof)" opacity="1"/>
<rect x="157.5" y="213.7" width="6" height="8" rx="1" fill="url(#windowGlow)" opacity="0.931110133990231"/>
<rect x="171.5" y="213.7" width="6" height="8" rx="1" fill="url(#windowGlow)" opacity="0.8462998027663211"/>
<rect x="143.5" y="228.7" width="6" height="8" rx="1" fill="url(#windowGlow)" opacity="0.9458341678817915"/>
<rect x="157.5" y="228.7" width="6" height="8" rx="1" fill="url(#windowGlow)" opacity="0.8831739880997566"/>
<rect x="143.5" y="243.7" width="6" height="8" rx="1" fill="url(#windowGlow)" opacity="0.8524854278436328"/>
<rect x="171.5" y="243.7" width="6" height="8" rx="1" fill="url(#windowGlow)" opacity="0.7332493410600579"/>
<rect x="143.5" y="258.7" width="6" height="8" rx="1" fill="url(#windowGlow)" opacity="0.9493196104882842"/>
<rect x="157.5" y="258.7" width="6" height="8" rx="1" fill="url(#windowGlow)" opacity="0.9305474713586956"/>
<rect x="171.5" y="258.7" width="6" height="8" rx="1" fill="url(#windowGlow)" opacity="0.7310201512794103"/>
<rect x="155.5" y="284.0" width="10" height="16" rx="2" fill="url(#roof_navyRoof)" opacity="0.8"/>
<rect x="157.5" y="287.0" width="6" height="10" rx="1" fill="url(#windowGlow)" opacity="0.45"/>
<rect x="367.0" y="139.3" width="42.1" height="160.7" rx="3" fill="url(#bldg_sky)" opacity="1"/>
<rect x="367.0" y="136.3" width="42.1" height="3" rx="1" fill="url(#roof_tealRoof)" opacity="1"/>
<rect x="385.1" y="149.3" width="6" height="8" rx="1" fill="url(#windowGlow)" opacity="0.9455851539716055"/>
<rect x="385.1" y="164.3" width="6" height="8" rx="1" fill="url(#windowGlow)" opacity="0.9076870976517382"/>
<rect x="385.1" y="194.3" width="6" height="8" rx="1" fill="url(#windowGlow)" opacity="0.8911255160305301"/>
<rect x="385.1" y="209.3" width="6" height="8" rx="1" fill="url(#windowGlow)" opacity="0.9304549661606806"/>
<rect x="385.1" y="224.3" width="6" height="8" rx="1" fill="url(#windowGlow)" opacity="0.7083352095486294"/>
<rect x="385.1" y="239.3" width="6" height="8" rx="1" fill="url(#windowGlow)" opacity="0.8906008343168538"/>
<rect x="385.1" y="254.3" width="6" height="8" rx="1" fill="url(#windowGlow)" opacity="0.7301343386201813"/>
<rect x="383.1" y="284.0" width="10" height="16" rx="2" fill="url(#roof_navyRoof)" opacity="0.8"/>
<rect x="385.1" y="287.0" width="6" height="10" rx="1" fill="url(#windowGlow)" opacity="0.45"/>
<rect x="600.1" y="141.9" width="47.0" height="158.1" rx="3" fill="url(#bldg_coral)" opacity="1"/>
<rect x="600.1" y="138.9" width="47.0" height="3" rx="1" fill="url(#roof_navyRoof)" opacity="1"/>
<rect x="613.6" y="151.9" width="6" height="8" rx="1" fill="url(#windowGlow)" opacity="0.7085359593427442"/>
<rect x="627.6" y="151.9" width="6" height="8" rx="1" fill="url(#windowGlow)" opacity="0.8286365029535425"/>
<rect x="613.6" y="166.9" width="6" height="8" rx="1" fill="url(#windowGlow)" opacity="0.9516477462610451"/>
<rect x="613.6" y="181.9" width="6" height="8" rx="1" fill="url(#windowGlow)" opacity="0.7034595548191385"/>
<rect x="627.6" y="181.9" width="6" height="8" rx="1" fill="url(#windowGlow)" opacity="0.9168356749307529"/>
<rect x="627.6" y="196.9" width="6" height="8" rx="1" fill="url(#windowGlow)" opacity="0.7197904206438877"/>
<rect x="613.6" y="211.9" width="6" height="8" rx="1" fill="url(#windowGlow)" opacity="0.8956152468433674"/>
<rect x="627.6" y="211.9" width="6" height="8" rx="1" fill="url(#windowGlow)" opacity="0.7379269106024535"/>
<rect x="613.6" y="226.9" width="6" height="8" rx="1" fill="url(#windowGlow)" opacity="0.7352191348258494"/>
<rect x="627.6" y="226.9" width="6" height="8" rx="1" fill="url(#windowGlow)" opacity="0.8252125460771902"/>
<rect x="613.6" y="241.9" width="6" height="8" rx="1" fill="url(#windowGlow)" opacity="0.9820155482655463"/>
<rect x="627.6" y="241.9" width="6" height="8" rx="1" fill="url(#windowGlow)" opacity="0.8592025542907429"/>
<rect x="613.6" y="256.9" width="6" height="8" rx="1" fill="url(#windowGlow)" opacity="0.7485507876372667"/>
<rect x="627.6" y="256.9" width="6" height="8" rx="1" fill="url(#windowGlow)" opacity="0.775700300920615"/>
<rect x="618.6" y="284.0" width="10" height="16" rx="2" fill="url(#roof_navyRoof)" opacity="0.8"/>
<rect x="620.6" y="287.0" width="6" height="10" rx="1" fill="url(#windowGlow)" opacity="0.45"/>
<rect x="808.1" y="177.2" width="71.8" height="122.8" rx="3" fill="url(#bldg_teal)" opacity="1"/>
<polygon points="808.1,177.2 844.0,153.2 879.9,177.2" fill="url(#roof_coralRoof)" opacity="1"/>
<rect x="827.0" y="187.2" width="6" height="8" rx="1" fill="url(#windowGlow)" opacity="0.814154509927218"/>
<rect x="841.0" y="187.2" width="6" height="8" rx="1" fill="url(#windowGlow)" opacity="0.9031975787613529"/>
<rect x="855.0" y="187.2" width="6" height="8" rx="1" fill="url(#windowGlow)" opacity="0.7450531127606765"/>
<rect x="827.0" y="202.2" width="6" height="8" rx="1" fill="url(#windowGlow)" opacity="0.9064756857727074"/>
<rect x="841.0" y="202.2" width="6" height="8" rx="1" fill="url(#windowGlow)" opacity="0.8258302741804301"/>
<rect x="855.0" y="202.2" width="6" height="8" rx="1" fill="url(#windowGlow)" opacity="0.8368528627030797"/>
<rect x="841.0" y="217.2" width="6" height="8" rx="1" fill="url(#windowGlow)" opacity="0.9639394771605447"/>
<rect x="855.0" y="217.2" width="6" height="8" rx="1" fill="url(#windowGlow)" opacity="0.9745472207081258"/>
<rect x="827.0" y="232.2" width="6" height="8" rx="1" fill="url(#windowGlow)" opacity="0.8971696862937741"/>
<rect x="855.0" y="232.2" width="6" height="8" rx="1" fill="url(#windowGlow)" opacity="0.9018476869453897"/>
<rect x="827.0" y="247.2" width="6" height="8" rx="1" fill="url(#windowGlow)" opacity="0.9887713144481047"/>
<rect x="855.0" y="247.2" width="6" height="8" rx="1" fill="url(#windowGlow)" opacity="0.8012716447474768"/>
<rect x="839.0" y="284.0" width="10" height="16" rx="2" fill="url(#roof_navyRoof)" opacity="0.8"/>
<rect x="841.0" y="287.0" width="6" height="10" rx="1" fill="url(#windowGlow)" opacity="0.45"/>
<path d="M844.0 220.2 L872.7 220.2 L869.7 226.2 L847.0 226.2 Z" fill="url(#roof_navyRoof)" opacity="0.8"/>
<rect x="831.5" y="203.2" width="25.1" height="5" rx="1" fill="#15803d" opacity="0.7"/>
<circle cx="834.5" cy="202.2" r="2.5" fill="#fbbf24" opacity="0.85"/>
<circle cx="842.8" cy="202.2" r="2.5" fill="#fb923c" opacity="0.85"/>
<circle cx="851.2" cy="202.2" r="2.5" fill="#fb923c" opacity="0.85"/>
<rect x="1056.6" y="158.5" width="38.0" height="141.5" rx="3" fill="url(#bldg_amber)" opacity="1"/>
<polygon points="1056.6,158.5 1075.6,150.7 1094.6,158.5" fill="url(#roof_tealRoof)" opacity="1"/>
<rect x="1072.6" y="198.5" width="6" height="8" rx="1" fill="url(#windowGlow)" opacity="0.8293163688989897"/>
<rect x="1072.6" y="213.5" width="6" height="8" rx="1" fill="url(#windowGlow)" opacity="0.8273318150208013"/>
<rect x="1072.6" y="228.5" width="6" height="8" rx="1" fill="url(#windowGlow)" opacity="0.9588093706214844"/>
<rect x="1072.6" y="243.5" width="6" height="8" rx="1" fill="url(#windowGlow)" opacity="0.8844375252185563"/>
<rect x="1072.6" y="258.5" width="6" height="8" rx="1" fill="url(#windowGlow)" opacity="0.8240048719681822"/>
<rect x="1070.6" y="284.0" width="10" height="16" rx="2" fill="url(#roof_navyRoof)" opacity="0.8"/>
<rect x="1072.6" y="287.0" width="6" height="10" rx="1" fill="url(#windowGlow)" opacity="0.45"/>
<rect x="1069.0" y="199.5" width="13.3" height="5" rx="1" fill="#15803d" opacity="0.7"/>
<circle cx="1072.0" cy="198.5" r="2.5" fill="#fbbf24" opacity="0.85"/>
<circle cx="1076.4" cy="198.5" r="2.5" fill="#fb923c" opacity="0.85"/>
<circle cx="1080.9" cy="198.5" r="2.5" fill="#a78bfa" opacity="0.85"/>
<rect x="275.9" y="267.7" width="6" height="17.3" rx="2" fill="#15803d"/>
<circle cx="278.9" cy="256.1" r="15.6" fill="#22c55e" opacity="0.9"/>
<circle cx="272.1" cy="259.1" r="11.7" fill="#16a34a" opacity="0.8"/>
<circle cx="286.3" cy="260.1" r="10.9" fill="#15803d" opacity="0.7"/>
<rect x="501.6" y="263.2" width="6" height="21.8" rx="2" fill="#15803d"/>
<circle cx="504.6" cy="253.0" r="14.2" fill="#22c55e" opacity="0.9"/>
<circle cx="497.7" cy="256.0" r="10.7" fill="#16a34a" opacity="0.8"/>
<circle cx="510.8" cy="257.0" r="10.0" fill="#15803d" opacity="0.7"/>
<rect x="724.6" y="264.3" width="6" height="20.7" rx="2" fill="#15803d"/>
<circle cx="727.6" cy="251.8" r="16.5" fill="#22c55e" opacity="0.9"/>
<circle cx="721.6" cy="254.8" r="12.4" fill="#16a34a" opacity="0.8"/>
<circle cx="732.9" cy="255.8" r="11.6" fill="#15803d" opacity="0.7"/>
<rect x="965.3" y="266.5" width="6" height="18.5" rx="2" fill="#15803d"/>
<circle cx="968.3" cy="252.7" r="17.8" fill="#22c55e" opacity="0.9"/>
<circle cx="960.6" cy="255.7" r="13.3" fill="#16a34a" opacity="0.8"/>
<circle cx="975.0" cy="256.7" r="12.5" fill="#15803d" opacity="0.7"/>
<rect x="95.1" y="265.4" width="6" height="19.6" rx="2" fill="#15803d"/>
<circle cx="98.1" cy="254.7" r="14.8" fill="#22c55e" opacity="0.9"/>
<circle cx="91.0" cy="257.7" r="11.1" fill="#16a34a" opacity="0.8"/>
<circle cx="105.5" cy="258.7" r="10.3" fill="#15803d" opacity="0.7"/>
<rect x="0" y="282" width="1200" height="18" fill="url(#groundGrad)"/>
<line x1="814.9" y1="282.0" x2="814.9" y2="248.9" stroke="#92400e" stroke-width="2"/>
<circle cx="814.9" cy="248.9" r="4" fill="#fef08a" opacity="0.6"/>
<circle cx="814.9" cy="248.9" r="8" fill="#fef08a" opacity="0.15" filter="url(#softGlow)"/>
<line x1="517.0" y1="282.0" x2="517.0" y2="249.0" stroke="#92400e" stroke-width="2"/>
<circle cx="517.0" cy="249.0" r="4" fill="#fef08a" opacity="0.6"/>
<circle cx="517.0" cy="249.0" r="8" fill="#fef08a" opacity="0.15" filter="url(#softGlow)"/>
<ellipse cx="662.6" cy="282.0" rx="6.6" ry="4.6" fill="#22c55e" opacity="0.6"/>
<ellipse cx="337.9" cy="282.0" rx="5.5" ry="3.8" fill="#22c55e" opacity="0.6"/>
<ellipse cx="110.5" cy="282.0" rx="4.8" ry="3.4" fill="#22c55e" opacity="0.6"/>
</svg>