<svg xmlns="http://www.w3.org/2000/svg" viewBox="0 0 1200 300" width="1200" height="300">
<defs>
<linearGradient id="skyGrad" x1="0" y1="0" x2="0" y2="1">
<stop offset="0%" stop-color="#a78bfa"/>
<stop offset="18%" stop-color="#ddb4f0"/>
<stop offset="35%" stop-color="#fda4af"/>
<stop offset="52%" stop-color="#fdba74"/>
<stop offset="72%" stop-color="#fef08a"/>
<stop offset="100%" stop-color="#fef9c3"/>
</linearGradient>
<linearGradient id="bldg_coral" x1="0" y1="0" x2="0" y2="1"><stop offset="0%" stop-color="#fecaca"/><stop offset="100%" stop-color="#fca5a5"/></linearGradient>
<linearGradient id="bldg_teal" x1="0" y1="0" x2="0" y2="1"><stop offset="0%" stop-color="#99f6e4"/><stop offset="100%" stop-color="#5eead4"/></linearGradient>
<linearGradient id="bldg_amber" x1="0" y1="0" x2="0" y2="1"><stop offset="0%" stop-color="#fde68a"/><stop offset="100%" stop-color="#fcd34d"/></linearGradient>
<linearGradient id="bldg_lavender" x1="0" y1="0" x2="0" y2="1"><stop offset="0%" stop-color="#ddd6fe"/><stop offset="100%" stop-color="#c4b5fd"/></linearGradient>
<linearGradient id="bldg_blue" x1="0" y1="0" x2="0" y2="1"><stop offset="0%" stop-color="#bfdbfe"/><stop offset="100%" stop-color="#93c5fd"/></linearGradient>
<linearGradient id="bldg_mint" x1="0" y1="0" x2="0" y2="1"><stop offset="0%" stop-color="#a7f3d0"/><stop offset="100%" stop-color="#6ee7b7"/></linearGradient>
<linearGradient id="bldg_rose" x1="0" y1="0" x2="0" y2="1"><stop offset="0%" stop-color="#fecdd3"/><stop offset="100%" stop-color="#fda4af"/></linearGradient>
<linearGradient id="bldg_sky" x1="0" y1="0" x2="0" y2="1"><stop offset="0%" stop-color="#bae6fd"/><stop offset="100%" stop-color="#7dd3fc"/></linearGradient>
<linearGradient id="roof_navyRoof" x1="0" y1="0" x2="0" y2="1"><stop offset="0%" stop-color="#4338ca"/><stop offset="100%" stop-color="#3730a3"/></linearGradient>
<linearGradient id="roof_coralRoof" x1="0" y1="0" x2="0" y2="1"><stop offset="0%" stop-color="#f87171"/><stop offset="100%" stop-color="#ef4444"/></linearGradient>
<linearGradient id="roof_tealRoof" x1="0" y1="0" x2="0" y2="1"><stop offset="0%" stop-color="#2dd4bf"/><stop offset="100%" stop-color="#14b8a6"/></linearGradient>
<radialGradient id="windowGlow" cx="50%" cy="50%" r="50%"><stop offset="0%" stop-color="#fef08a"/><stop offset="60%" stop-color="#fbbf24"/><stop offset="100%" stop-color="#f59e0b"/></radialGradient>
<linearGradient id="hillFar" x1="0" y1="0" x2="0" y2="1"><stop offset="0%" stop-color="#c4b5fd"/><stop offset="100%" stop-color="#a5b4fc"/></linearGradient>
<linearGradient id="hillMid" x1="0" y1="0" x2="0" y2="1"><stop offset="0%" stop-color="#86efac"/><stop offset="100%" stop-color="#4ade80"/></linearGradient>
<linearGradient id="hillNear" x1="0" y1="0" x2="0" y2="1"><stop offset="0%" stop-color="#34d399"/><stop offset="100%" stop-color="#10b981"/></linearGradient>
<linearGradient id="hillDesertFar" x1="0" y1="0" x2="0" y2="1"><stop offset="0%" stop-color="#fde68a"/><stop offset="100%" stop-color="#fcd34d"/></linearGradient>
<linearGradient id="hillDesertMid" x1="0" y1="0" x2="0" y2="1"><stop offset="0%" stop-color="#fcd34d"/><stop offset="100%" stop-color="#fbbf24"/></linearGradient>
<linearGradient id="hillDesertNear" x1="0" y1="0" x2="0" y2="1"><stop offset="0%" stop-color="#fbbf24"/><stop offset="100%" stop-color="#f59e0b"/></linearGradient>
<linearGradient id="groundGrad" x1="0" y1="0" x2="0" y2="1"><stop offset="0%" stop-color="#fef3c7"/><stop offset="100%" stop-color="#fde68a"/></linearGradient>
<linearGradient id="waterGrad" x1="0" y1="0" x2="0" y2="1"><stop offset="0%" stop-color="#bfdbfe"/><stop offset="100%" stop-color="#93c5fd"/></linearGradient>
<filter id="softGlow" x="-50%" y="-50%" width="200%" height="200%"><feGaussianBlur in="SourceGraphic" stdDeviation="12"/></filter>
</defs>
<rect width="1200" height="300" fill="url(#skyGrad)"/>
<circle cx="976.6" cy="44.3" r="45" fill="#fef08a" opacity="0.12" filter="url(#softGlow)"/>
<circle cx="976.6" cy="44.3" r="30" fill="#fde68a" opacity="0.18" filter="url(#softGlow)"/>
<circle cx="976.6" cy="44.3" r="16" fill="#fef9c3" opacity="0.25" filter="url(#softGlow)"/>
<path d="M0 300 L0.0 179.0 C129.1 179.0, 129.1 192.3, 258.1 192.3 C398.4 192.3, 398.4 192.8, 538.6 192.8 C650.5 192.8, 650.5 182.4, 762.4 182.4 C872.7 182.4, 872.7 186.9, 983.0 186.9 C1091.5 186.9, 1091.5 183.6, 1200.0 183.6 L1200 300 Z" fill="url(#hillFar)" opacity="0.5"/>
<path d="M0 300 L0.0 206.3 C132.8 206.3, 132.8 208.3, 265.7 208.3 C446.9 208.3, 446.9 210.5, 628.2 210.5 C734.6 210.5, 734.6 209.6, 841.1 209.6 C1020.5 209.6, 1020.5 220.7, 1200.0 220.7 L1200 300 Z" fill="url(#hillMid)" opacity="0.7"/>
<path d="M0 300 L0.0 237.8 C173.6 237.8, 173.6 234.3, 347.1 234.3 C441.2 234.3, 441.2 236.9, 535.2 236.9 C711.3 236.9, 711.3 235.6, 887.3 235.6 C1043.7 235.6, 1043.7 232.5, 1200.0 232.5 L1200 300 Z" fill="url(#hillNear)" opacity="1"/>
<rect x="122.8" y="221.1" width="54.9" height="78.9" rx="3" fill="url(#bldg_sky)" opacity="0.7"/>
<rect x="122.8" y="218.1" width="54.9" height="3" rx="1" fill="url(#roof_tealRoof)" opacity="0.7"/>
<rect x="140.3" y="231.1" width="6" height="8" rx="1" fill="url(#windowGlow)" opacity="0.953405894876181"/>
<rect x="154.3" y="231.1" width="6" height="8" rx="1" fill="url(#windowGlow)" opacity="0.8333452899164265"/>
<rect x="140.3" y="246.1" width="6" height="8" rx="1" fill="url(#windowGlow)" opacity="0.9988320689642951"/>
<rect x="154.3" y="246.1" width="6" height="8" rx="1" fill="url(#windowGlow)" opacity="0.7638898635114961"/>
<rect x="371.6" y="206.8" width="52.5" height="93.2" rx="3" fill="url(#bldg_coral)" opacity="0.7"/>
<polygon points="371.6,206.8 397.8,190.1 424.0,206.8" fill="url(#roof_navyRoof)" opacity="0.7"/>
<rect x="387.8" y="216.8" width="6" height="8" rx="1" fill="url(#windowGlow)" opacity="0.9315808475630268"/>
<rect x="401.8" y="216.8" width="6" height="8" rx="1" fill="url(#windowGlow)" opacity="0.9939079813630822"/>
<rect x="387.8" y="231.8" width="6" height="8" rx="1" fill="url(#windowGlow)" opacity="0.710584492008474"/>
<rect x="401.8" y="231.8" width="6" height="8" rx="1" fill="url(#windowGlow)" opacity="0.8945360941321291"/>
<rect x="387.8" y="246.8" width="6" height="8" rx="1" fill="url(#windowGlow)" opacity="0.8347556155336814"/>
<rect x="401.8" y="246.8" width="6" height="8" rx="1" fill="url(#windowGlow)" opacity="0.8332441452114117"/>
<rect x="572.0" y="202.8" width="82.4" height="97.2" rx="3" fill="url(#bldg_teal)" opacity="0.7"/>
<rect x="588.5" y="191.1" width="49.4" height="11.7" rx="2" fill="url(#roof_coralRoof)" opacity="0.7"/>
<rect x="589.2" y="212.8" width="6" height="8" rx="1" fill="url(#windowGlow)" opacity="0.8793483572915887"/>
<rect x="603.2" y="212.8" width="6" height="8" rx="1" fill="url(#windowGlow)" opacity="0.876923821669502"/>
<rect x="617.2" y="212.8" width="6" height="8" rx="1" fill="url(#windowGlow)" opacity="0.9503053725931352"/>
<rect x="631.2" y="212.8" width="6" height="8" rx="1" fill="url(#windowGlow)" opacity="0.8827556621202992"/>
<rect x="603.2" y="227.8" width="6" height="8" rx="1" fill="url(#windowGlow)" opacity="0.9645223324953216"/>
<rect x="617.2" y="227.8" width="6" height="8" rx="1" fill="url(#windowGlow)" opacity="0.9552681808151622"/>
<rect x="631.2" y="227.8" width="6" height="8" rx="1" fill="url(#windowGlow)" opacity="0.7168819809876764"/>
<rect x="589.2" y="242.8" width="6" height="8" rx="1" fill="url(#windowGlow)" opacity="0.9172623346174426"/>
<rect x="603.2" y="242.8" width="6" height="8" rx="1" fill="url(#windowGlow)" opacity="0.8322555259951648"/>
<rect x="617.2" y="242.8" width="6" height="8" rx="1" fill="url(#windowGlow)" opacity="0.9897042141248025"/>
<rect x="603.2" y="257.8" width="6" height="8" rx="1" fill="url(#windowGlow)" opacity="0.7237315049039812"/>
<rect x="617.2" y="257.8" width="6" height="8" rx="1" fill="url(#windowGlow)" opacity="0.8274850932077901"/>
<rect x="631.2" y="257.8" width="6" height="8" rx="1" fill="url(#windowGlow)" opacity="0.8968696799580331"/>
<rect x="789.9" y="232.1" width="53.9" height="67.9" rx="3" fill="url(#bldg_amber)" opacity="0.7"/>
<rect x="800.6" y="224.0" width="32.3" height="8.1" rx="2" fill="url(#roof_tealRoof)" opacity="0.7"/>
<rect x="806.8" y="242.1" width="6" height="8" rx="1" fill="url(#windowGlow)" opacity="0.979013946689206"/>
<rect x="806.8" y="257.1" width="6" height="8" rx="1" fill="url(#windowGlow)" opacity="0.8511887409962661"/>
<rect x="820.8" y="257.1" width="6" height="8" rx="1" fill="url(#windowGlow)" opacity="0.7689501710091485"/>
<rect x="1000.7" y="209.4" width="74.8" height="90.6" rx="3" fill="url(#bldg_lavender)" opacity="0.7"/>
<rect x="1000.7" y="206.4" width="74.8" height="3" rx="1" fill="url(#roof_navyRoof)" opacity="0.7"/>
<rect x="1014.1" y="219.4" width="6" height="8" rx="1" fill="url(#windowGlow)" opacity="0.9720907327123408"/>
<rect x="1028.1" y="219.4" width="6" height="8" rx="1" fill="url(#windowGlow)" opacity="0.89376132478647"/>
<rect x="1056.1" y="219.4" width="6" height="8" rx="1" fill="url(#windowGlow)" opacity="0.7230702448278061"/>
<rect x="1014.1" y="234.4" width="6" height="8" rx="1" fill="url(#windowGlow)" opacity="0.9348012398624798"/>
<rect x="1028.1" y="234.4" width="6" height="8" rx="1" fill="url(#windowGlow)" opacity="0.971405946729428"/>
<rect x="1042.1" y="234.4" width="6" height="8" rx="1" fill="url(#windowGlow)" opacity="0.720534086283545"/>
<rect x="1014.1" y="249.4" width="6" height="8" rx="1" fill="url(#windowGlow)" opacity="0.9523765006346518"/>
<rect x="1028.1" y="249.4" width="6" height="8" rx="1" fill="url(#windowGlow)" opacity="0.8225307870295507"/>
<rect x="1042.1" y="249.4" width="6" height="8" rx="1" fill="url(#windowGlow)" opacity="0.9014320603578501"/>
<rect x="1056.1" y="249.4" width="6" height="8" rx="1" fill="url(#windowGlow)" opacity="0.8617487000123358"/>
<rect x="109.1" y="127.3" width="46.3" height="172.7" rx="3" fill="url(#bldg_blue)" opacity="0.85"/>
<rect x="109.1" y="124.3" width="46.3" height="3" rx="1" fill="url(#roof_coralRoof)" opacity="0.85"/>
<rect x="122.2" y="137.3" width="6" height="8" rx="1" fill="url(#windowGlow)" opacity="0.751718160766977"/>
<rect x="136.2" y="137.3" width="6" height="8" rx="1" fill="url(#windowGlow)" opacity="0.7908918695481921"/>
<rect x="122.2" y="152.3" width="6" height="8" rx="1" fill="url(#windowGlow)" opacity="0.7574393891531226"/>
<rect x="136.2" y="167.3" width="6" height="8" rx="1" fill="url(#windowGlow)" opacity="0.8941783114774983"/>
<rect x="122.2" y="182.3" width="6" height="8" rx="1" fill="url(#windowGlow)" opacity="0.751601862698608"/>
<rect x="122.2" y="197.3" width="6" height="8" rx="1" fill="url(#windowGlow)" opacity="0.8136460998624777"/>
<rect x="136.2" y="197.3" width="6" height="8" rx="1" fill="url(#windowGlow)" opacity="0.9443498996292938"/>
<rect x="122.2" y="212.3" width="6" height="8" rx="1" fill="url(#windowGlow)" opacity="0.9381768651484403"/>
<rect x="136.2" y="212.3" width="6" height="8" rx="1" fill="url(#windowGlow)" opacity="0.7176357785321938"/>
<rect x="136.2" y="227.3" width="6" height="8" rx="1" fill="url(#windowGlow)" opacity="0.8732576564295486"/>
<rect x="136.2" y="242.3" width="6" height="8" rx="1" fill="url(#windowGlow)" opacity="0.8899455580813556"/>
<rect x="284.2" y="133.0" width="57.4" height="167.0" rx="3" fill="url(#bldg_mint)" opacity="0.85"/>
<rect x="284.2" y="130.0" width="57.4" height="3" rx="1" fill="url(#roof_tealRoof)" opacity="0.85"/>
<rect x="303.0" y="143.0" width="6" height="8" rx="1" fill="url(#windowGlow)" opacity="0.9782544048867441"/>
<rect x="317.0" y="143.0" width="6" height="8" rx="1" fill="url(#windowGlow)" opacity="0.9433421869964069"/>
<rect x="303.0" y="158.0" width="6" height="8" rx="1" fill="url(#windowGlow)" opacity="0.925241136562657"/>
<rect x="303.0" y="173.0" width="6" height="8" rx="1" fill="url(#windowGlow)" opacity="0.8242008634955625"/>
<rect x="317.0" y="173.0" width="6" height="8" rx="1" fill="url(#windowGlow)" opacity="0.8973207749879549"/>
<rect x="303.0" y="188.0" width="6" height="8" rx="1" fill="url(#windowGlow)" opacity="0.8337736814440104"/>
<rect x="317.0" y="188.0" width="6" height="8" rx="1" fill="url(#windowGlow)" opacity="0.8597797556127327"/>
<rect x="317.0" y="203.0" width="6" height="8" rx="1" fill="url(#windowGlow)" opacity="0.9787883365893681"/>
<rect x="303.0" y="218.0" width="6" height="8" rx="1" fill="url(#windowGlow)" opacity="0.7591267239577727"/>
<rect x="303.0" y="233.0" width="6" height="8" rx="1" fill="url(#windowGlow)" opacity="0.96276831280569"/>
<rect x="317.0" y="233.0" width="6" height="8" rx="1" fill="url(#windowGlow)" opacity="0.7225323767040541"/>
<rect x="303.0" y="248.0" width="6" height="8" rx="1" fill="url(#windowGlow)" opacity="0.9085998416452667"/>
<rect x="317.0" y="248.0" width="6" height="8" rx="1" fill="url(#windowGlow)" opacity="0.8020918599339629"/>
<path d="M313.0 191.4 L335.9 191.4 L332.9 197.4 L316.0 197.4 Z" fill="url(#roof_coralRoof)" opacity="0.68"/>
<rect x="463.2" y="156.6" width="45.4" height="143.4" rx="3" fill="url(#bldg_rose)" opacity="0.85"/>
<rect x="463.2" y="153.6" width="45.4" height="3" rx="1" fill="url(#roof_navyRoof)" opacity="0.85"/>
<rect x="475.9" y="166.6" width="6" height="8" rx="1" fill="url(#windowGlow)" opacity="0.8960798041876776"/>
<rect x="489.9" y="166.6" width="6" height="8" rx="1" fill="url(#windowGlow)" opacity="0.8054211620732309"/>
<rect x="489.9" y="181.6" width="6" height="8" rx="1" fill="url(#windowGlow)" opacity="0.7044304059373356"/>
<rect x="475.9" y="196.6" width="6" height="8" rx="1" fill="url(#windowGlow)" opacity="0.9003745311407253"/>
<rect x="489.9" y="196.6" width="6" height="8" rx="1" fill="url(#windowGlow)" opacity="0.8167963944453729"/>
<rect x="475.9" y="211.6" width="6" height="8" rx="1" fill="url(#windowGlow)" opacity="0.7750999702956061"/>
<rect x="489.9" y="211.6" width="6" height="8" rx="1" fill="url(#windowGlow)" opacity="0.9270845024506954"/>
<rect x="475.9" y="226.6" width="6" height="8" rx="1" fill="url(#windowGlow)" opacity="0.8557345276026681"/>
<rect x="489.9" y="226.6" width="6" height="8" rx="1" fill="url(#windowGlow)" opacity="0.9153745238275148"/>
<rect x="475.9" y="256.6" width="6" height="8" rx="1" fill="url(#windowGlow)" opacity="0.8263054261106557"/>
<rect x="489.9" y="256.6" width="6" height="8" rx="1" fill="url(#windowGlow)" opacity="0.8340548412101598"/>
<rect x="678.9" y="155.0" width="63.9" height="145.0" rx="3" fill="url(#bldg_sky)" opacity="0.85"/>
<rect x="678.9" y="152.0" width="63.9" height="3" rx="1" fill="url(#roof_coralRoof)" opacity="0.85"/>
<rect x="693.8" y="165.0" width="6" height="8" rx="1" fill="url(#windowGlow)" opacity="0.9241938866321899"/>
<rect x="707.8" y="165.0" width="6" height="8" rx="1" fill="url(#windowGlow)" opacity="0.7045754005688127"/>
<rect x="721.8" y="165.0" width="6" height="8" rx="1" fill="url(#windowGlow)" opacity="0.9161593703162667"/>
<rect x="693.8" y="180.0" width="6" height="8" rx="1" fill="url(#windowGlow)" opacity="0.9550209906674088"/>
<rect x="721.8" y="180.0" width="6" height="8" rx="1" fill="url(#windowGlow)" opacity="0.8245864599591989"/>
<rect x="707.8" y="195.0" width="6" height="8" rx="1" fill="url(#windowGlow)" opacity="0.8442367592101157"/>
<rect x="693.8" y="210.0" width="6" height="8" rx="1" fill="url(#windowGlow)" opacity="0.721364568183834"/>
<rect x="707.8" y="210.0" width="6" height="8" rx="1" fill="url(#windowGlow)" opacity="0.888093047956048"/>
<rect x="693.8" y="225.0" width="6" height="8" rx="1" fill="url(#windowGlow)" opacity="0.8855122735190728"/>
<rect x="707.8" y="225.0" width="6" height="8" rx="1" fill="url(#windowGlow)" opacity="0.9021913279323798"/>
<rect x="721.8" y="225.0" width="6" height="8" rx="1" fill="url(#windowGlow)" opacity="0.8066365848326295"/>
<rect x="693.8" y="240.0" width="6" height="8" rx="1" fill="url(#windowGlow)" opacity="0.7432503992427375"/>
<rect x="707.8" y="240.0" width="6" height="8" rx="1" fill="url(#windowGlow)" opacity="0.933419674790194"/>
<rect x="693.8" y="255.0" width="6" height="8" rx="1" fill="url(#windowGlow)" opacity="0.8637323715555166"/>
<rect x="707.8" y="255.0" width="6" height="8" rx="1" fill="url(#windowGlow)" opacity="0.823270880022678"/>
<rect x="721.8" y="255.0" width="6" height="8" rx="1" fill="url(#windowGlow)" opacity="0.7103029420647318"/>
<rect x="832.3" y="125.4" width="71.3" height="174.6" rx="3" fill="url(#bldg_coral)" opacity="0.85"/>
<rect x="846.6" y="104.4" width="42.8" height="21.0" rx="2" fill="url(#roof_tealRoof)" opacity="0.85"/>
<rect x="850.9" y="135.4" width="6" height="8" rx="1" fill="url(#windowGlow)" opacity="0.9757150148394121"/>
<rect x="864.9" y="135.4" width="6" height="8" rx="1" fill="url(#windowGlow)" opacity="0.7121837928016594"/>
<rect x="878.9" y="135.4" width="6" height="8" rx="1" fill="url(#windowGlow)" opacity="0.9324535119498397"/>
<rect x="850.9" y="150.4" width="6" height="8" rx="1" fill="url(#windowGlow)" opacity="0.7014843833639679"/>
<rect x="864.9" y="150.4" width="6" height="8" rx="1" fill="url(#windowGlow)" opacity="0.9560787649155029"/>
<rect x="850.9" y="165.4" width="6" height="8" rx="1" fill="url(#windowGlow)" opacity="0.8479612766057072"/>
<rect x="864.9" y="165.4" width="6" height="8" rx="1" fill="url(#windowGlow)" opacity="0.9190076326574235"/>
<rect x="850.9" y="180.4" width="6" height="8" rx="1" fill="url(#windowGlow)" opacity="0.7109877910516168"/>
<rect x="864.9" y="180.4" width="6" height="8" rx="1" fill="url(#windowGlow)" opacity="0.9837268717976877"/>
<rect x="878.9" y="180.4" width="6" height="8" rx="1" fill="url(#windowGlow)" opacity="0.8624680022534299"/>
<rect x="850.9" y="195.4" width="6" height="8" rx="1" fill="url(#windowGlow)" opacity="0.9474752729979694"/>
<rect x="864.9" y="195.4" width="6" height="8" rx="1" fill="url(#windowGlow)" opacity="0.8188596807973737"/>
<rect x="878.9" y="195.4" width="6" height="8" rx="1" fill="url(#windowGlow)" opacity="0.7302051517321752"/>
<rect x="850.9" y="210.4" width="6" height="8" rx="1" fill="url(#windowGlow)" opacity="0.7114444410481696"/>
<rect x="864.9" y="210.4" width="6" height="8" rx="1" fill="url(#windowGlow)" opacity="0.988089403737378"/>
<rect x="878.9" y="210.4" width="6" height="8" rx="1" fill="url(#windowGlow)" opacity="0.9424748142447671"/>
<rect x="850.9" y="225.4" width="6" height="8" rx="1" fill="url(#windowGlow)" opacity="0.7784171044260343"/>
<rect x="864.9" y="225.4" width="6" height="8" rx="1" fill="url(#windowGlow)" opacity="0.791119072069935"/>
<rect x="850.9" y="240.4" width="6" height="8" rx="1" fill="url(#windowGlow)" opacity="0.8339821793297222"/>
<rect x="864.9" y="240.4" width="6" height="8" rx="1" fill="url(#windowGlow)" opacity="0.9195717721802982"/>
<path d="M867.9 186.5 L896.4 186.5 L893.4 192.5 L870.9 192.5 Z" fill="url(#roof_coralRoof)" opacity="0.68"/>
<rect x="1040.8" y="131.6" width="69.5" height="168.4" rx="3" fill="url(#bldg_teal)" opacity="0.85"/>
<polygon points="1040.8,131.6 1075.5,110.7 1110.3,131.6" fill="url(#roof_navyRoof)" opacity="0.85"/>
<rect x="1072.5" y="141.6" width="6" height="8" rx="1" fill="url(#windowGlow)" opacity="0.7061746338876776"/>
<rect x="1086.5" y="141.6" width="6" height="8" rx="1" fill="url(#windowGlow)" opacity="0.7681256437525738"/>
<rect x="1058.5" y="156.6" width="6" height="8" rx="1" fill="url(#windowGlow)" opacity="0.8944069178283246"/>
<rect x="1086.5" y="156.6" width="6" height="8" rx="1" fill="url(#windowGlow)" opacity="0.9053222485842752"/>
<rect x="1058.5" y="171.6" width="6" height="8" rx="1" fill="url(#windowGlow)" opacity="0.8408059198133675"/>
<rect x="1072.5" y="171.6" width="6" height="8" rx="1" fill="url(#windowGlow)" opacity="0.9855441234472878"/>
<rect x="1086.5" y="171.6" width="6" height="8" rx="1" fill="url(#windowGlow)" opacity="0.7511838154174312"/>
<rect x="1058.5" y="186.6" width="6" height="8" rx="1" fill="url(#windowGlow)" opacity="0.930798143628425"/>
<rect x="1072.5" y="186.6" width="6" height="8" rx="1" fill="url(#windowGlow)" opacity="0.8531447931905951"/>
<rect x="1086.5" y="186.6" width="6" height="8" rx="1" fill="url(#windowGlow)" opacity="0.8449046808038394"/>
<rect x="1072.5" y="201.6" width="6" height="8" rx="1" fill="url(#windowGlow)" opacity="0.7008172653153618"/>
<rect x="1058.5" y="216.6" width="6" height="8" rx="1" fill="url(#windowGlow)" opacity="0.7333500753312139"/>
<rect x="1072.5" y="216.6" width="6" height="8" rx="1" fill="url(#windowGlow)" opacity="0.9695989742267872"/>
<rect x="1086.5" y="216.6" width="6" height="8" rx="1" fill="url(#windowGlow)" opacity="0.8760649571083788"/>
<rect x="1058.5" y="231.6" width="6" height="8" rx="1" fill="url(#windowGlow)" opacity="0.9367494401693108"/>
<rect x="1086.5" y="231.6" width="6" height="8" rx="1" fill="url(#windowGlow)" opacity="0.8773742745059422"/>
<rect x="1058.5" y="246.6" width="6" height="8" rx="1" fill="url(#windowGlow)" opacity="0.8288320616953224"/>
<rect x="1072.5" y="246.6" width="6" height="8" rx="1" fill="url(#windowGlow)" opacity="0.9129575953413535"/>
<rect x="1086.5" y="246.6" width="6" height="8" rx="1" fill="url(#windowGlow)" opacity="0.9231484867274521"/>
<rect x="129.7" y="101.7" width="47.9" height="198.3" rx="3" fill="url(#bldg_amber)" opacity="1"/>
<rect x="139.3" y="78.0" width="28.7" height="23.8" rx="2" fill="url(#roof_coralRoof)" opacity="1"/>
<rect x="157.7" y="111.7" width="6" height="8" rx="1" fill="url(#windowGlow)" opacity="0.9449680390045829"/>
<rect x="143.7" y="126.7" width="6" height="8" rx="1" fill="url(#windowGlow)" opacity="0.8121449638680298"/>
<rect x="157.7" y="126.7" width="6" height="8" rx="1" fill="url(#windowGlow)" opacity="0.7381002574405168"/>
<rect x="143.7" y="141.7" width="6" height="8" rx="1" fill="url(#windowGlow)" opacity="0.8117546739577104"/>
<rect x="157.7" y="141.7" width="6" height="8" rx="1" fill="url(#windowGlow)" opacity="0.7129434553035271"/>
<rect x="157.7" y="156.7" width="6" height="8" rx="1" fill="url(#windowGlow)" opacity="0.9321336745899793"/>
<rect x="143.7" y="171.7" width="6" height="8" rx="1" fill="url(#windowGlow)" opacity="0.7556135846095222"/>
<rect x="157.7" y="171.7" width="6" height="8" rx="1" fill="url(#windowGlow)" opacity="0.707375561123423"/>
<rect x="143.7" y="201.7" width="6" height="8" rx="1" fill="url(#windowGlow)" opacity="0.8072408507611792"/>
<rect x="157.7" y="201.7" width="6" height="8" rx="1" fill="url(#windowGlow)" opacity="0.7426674836979561"/>
<rect x="143.7" y="216.7" width="6" height="8" rx="1" fill="url(#windowGlow)" opacity="0.8967050434540514"/>
<rect x="148.7" y="284.0" width="10" height="16" rx="2" fill="url(#roof_navyRoof)" opacity="0.8"/>
<rect x="150.7" y="287.0" width="6" height="10" rx="1" fill="url(#windowGlow)" opacity="0.45"/>
<path d="M153.7 171.1 L172.8 171.1 L169.8 177.1 L156.7 177.1 Z" fill="url(#roof_navyRoof)" opacity="0.8"/>
<rect x="269.8" y="224.1" width="73.0" height="75.9" rx="3" fill="url(#bldg_lavender)" opacity="1"/>
<polygon points="269.8,224.1 306.3,208.9 342.8,224.1" fill="url(#roof_tealRoof)" opacity="1"/>
<rect x="282.3" y="234.1" width="6" height="8" rx="1" fill="url(#windowGlow)" opacity="0.7139871370578125"/>
<rect x="296.3" y="234.1" width="6" height="8" rx="1" fill="url(#windowGlow)" opacity="0.9220093500437259"/>
<rect x="310.3" y="234.1" width="6" height="8" rx="1" fill="url(#windowGlow)" opacity="0.9306419942205035"/>
<rect x="324.3" y="234.1" width="6" height="8" rx="1" fill="url(#windowGlow)" opacity="0.7743932442620365"/>
<rect x="296.3" y="249.1" width="6" height="8" rx="1" fill="url(#windowGlow)" opacity="0.7108942342041499"/>
<rect x="310.3" y="249.1" width="6" height="8" rx="1" fill="url(#windowGlow)" opacity="0.7702754408448355"/>
<rect x="324.3" y="249.1" width="6" height="8" rx="1" fill="url(#windowGlow)" opacity="0.8130591492695077"/>
<rect x="301.3" y="284.0" width="10" height="16" rx="2" fill="url(#roof_navyRoof)" opacity="0.8"/>
<rect x="303.3" y="287.0" width="6" height="10" rx="1" fill="url(#windowGlow)" opacity="0.45"/>
<path d="M277.1 250.7 L306.3 250.7 L303.3 256.7 L280.1 256.7 Z" fill="url(#roof_coralRoof)" opacity="0.8"/>
<rect x="478.8" y="89.1" width="48.7" height="210.9" rx="3" fill="url(#bldg_blue)" opacity="1"/>
<polygon points="478.8,89.1 503.1,76.8 527.4,89.1" fill="url(#roof_navyRoof)" opacity="1"/>
<rect x="493.1" y="99.1" width="6" height="8" rx="1" fill="url(#windowGlow)" opacity="0.8983738775823144"/>
<rect x="507.1" y="99.1" width="6" height="8" rx="1" fill="url(#windowGlow)" opacity="0.8006019512194218"/>
<rect x="493.1" y="129.1" width="6" height="8" rx="1" fill="url(#windowGlow)" opacity="0.7546989038375667"/>
<rect x="507.1" y="129.1" width="6" height="8" rx="1" fill="url(#windowGlow)" opacity="0.9890415735491744"/>
<rect x="493.1" y="144.1" width="6" height="8" rx="1" fill="url(#windowGlow)" opacity="0.9549935421696834"/>
<rect x="507.1" y="144.1" width="6" height="8" rx="1" fill="url(#windowGlow)" opacity="0.9208310184631641"/>
<rect x="493.1" y="159.1" width="6" height="8" rx="1" fill="url(#windowGlow)" opacity="0.9446241316127703"/>
<rect x="507.1" y="174.1" width="6" height="8" rx="1" fill="url(#windowGlow)" opacity="0.8374892832885912"/>
<rect x="493.1" y="189.1" width="6" height="8" rx="1" fill="url(#windowGlow)" opacity="0.8735964604996127"/>
<rect x="507.1" y="189.1" width="6" height="8" rx="1" fill="url(#windowGlow)" opacity="0.9415267624620007"/>
<rect x="493.1" y="204.1" width="6" height="8" rx="1" fill="url(#windowGlow)" opacity="0.9252520650277156"/>
<rect x="507.1" y="204.1" width="6" height="8" rx="1" fill="url(#windowGlow)" opacity="0.7497657341648665"/>
<rect x="498.1" y="284.0" width="10" height="16" rx="2" fill="url(#roof_navyRoof)" opacity="0.8"/>
<rect x="500.1" y="287.0" width="6" height="10" rx="1" fill="url(#windowGlow)" opacity="0.45"/>
<rect x="649.6" y="214.4" width="55.4" height="85.6" rx="3" fill="url(#bldg_mint)" opacity="1"/>
<rect x="660.7" y="204.1" width="33.3" height="10.3" rx="2" fill="url(#roof_coralRoof)" opacity="1"/>
<rect x="667.3" y="224.4" width="6" height="8" rx="1" fill="url(#windowGlow)" opacity="0.8913725388196169"/>
<rect x="681.3" y="239.4" width="6" height="8" rx="1" fill="url(#windowGlow)" opacity="0.99942592638518"/>
<rect x="667.3" y="254.4" width="6" height="8" rx="1" fill="url(#windowGlow)" opacity="0.7240483393073307"/>
<rect x="681.3" y="254.4" width="6" height="8" rx="1" fill="url(#windowGlow)" opacity="0.9124743231630298"/>
<rect x="672.3" y="284.0" width="10" height="16" rx="2" fill="url(#roof_navyRoof)" opacity="0.8"/>
<rect x="674.3" y="287.0" width="6" height="10" rx="1" fill="url(#windowGlow)" opacity="0.45"/>
<rect x="841.8" y="90.0" width="36.5" height="210.0" rx="3" fill="url(#bldg_rose)" opacity="1"/>
<rect x="841.8" y="87.0" width="36.5" height="3" rx="1" fill="url(#roof_tealRoof)" opacity="1"/>
<rect x="857.0" y="100.0" width="6" height="8" rx="1" fill="url(#windowGlow)" opacity="0.8276937824802909"/>
<rect x="857.0" y="115.0" width="6" height="8" rx="1" fill="url(#windowGlow)" opacity="0.8151566606085545"/>
<rect x="857.0" y="130.0" width="6" height="8" rx="1" fill="url(#windowGlow)" opacity="0.7483095827271741"/>
<rect x="857.0" y="160.0" width="6" height="8" rx="1" fill="url(#windowGlow)" opacity="0.7732593195854031"/>
<rect x="857.0" y="175.0" width="6" height="8" rx="1" fill="url(#windowGlow)" opacity="0.9732365651397203"/>
<rect x="857.0" y="190.0" width="6" height="8" rx="1" fill="url(#windowGlow)" opacity="0.7942671657047546"/>
<rect x="857.0" y="205.0" width="6" height="8" rx="1" fill="url(#windowGlow)" opacity="0.9848267864830916"/>
<rect x="855.0" y="284.0" width="10" height="16" rx="2" fill="url(#roof_navyRoof)" opacity="0.8"/>
<rect x="857.0" y="287.0" width="6" height="10" rx="1" fill="url(#windowGlow)" opacity="0.45"/>
<rect x="1026.4" y="190.5" width="38.4" height="109.5" rx="3" fill="url(#bldg_sky)" opacity="1"/>
<polygon points="1026.4,190.5 1045.6,181.4 1064.7,190.5" fill="url(#roof_navyRoof)" opacity="1"/>
<rect x="1042.6" y="200.5" width="6" height="8" rx="1" fill="url(#windowGlow)" opacity="0.8315565821395985"/>
<rect x="1042.6" y="215.5" width="6" height="8" rx="1" fill="url(#windowGlow)" opacity="0.8382064379463933"/>
<rect x="1042.6" y="230.5" width="6" height="8" rx="1" fill="url(#windowGlow)" opacity="0.7019457230353475"/>
<rect x="1042.6" y="260.5" width="6" height="8" rx="1" fill="url(#windowGlow)" opacity="0.8851082727709357"/>
<rect x="1040.6" y="284.0" width="10" height="16" rx="2" fill="url(#roof_navyRoof)" opacity="0.8"/>
<rect x="1042.6" y="287.0" width="6" height="10" rx="1" fill="url(#windowGlow)" opacity="0.45"/>
<path d="M223.7 285.0 Q244.5 259.6 236.2 234.3" stroke="#92400e" stroke-width="4" fill="none" stroke-linecap="round"/>
<path d="M236.2 234.3 Q226.2 224.1 219.5 225.1" stroke="#16a34a" stroke-width="2.5" fill="none" stroke-linecap="round"/>
<path d="M236.2 234.3 Q242.8 221.7 247.1 219.7" stroke="#22c55e" stroke-width="2.5" fill="none" stroke-linecap="round"/>
<path d="M236.2 234.3 Q253.8 228.3 265.5 234.3" stroke="#15803d" stroke-width="2.5" fill="none" stroke-linecap="round"/>
<path d="M236.2 234.3 Q242.8 234.9 247.2 248.9" stroke="#4ade80" stroke-width="2.5" fill="none" stroke-linecap="round"/>
<path d="M236.2 234.3 Q224.3 233.2 216.4 245.2" stroke="#16a34a" stroke-width="2.5" fill="none" stroke-linecap="round"/>
<path d="M410.8 285.0 Q436.9 255.5 426.4 226.1" stroke="#92400e" stroke-width="4" fill="none" stroke-linecap="round"/>
<path d="M426.4 226.1 Q413.8 214.8 405.4 214.5" stroke="#16a34a" stroke-width="2.5" fill="none" stroke-linecap="round"/>
<path d="M426.4 226.1 Q433.4 213.1 438.0 210.7" stroke="#22c55e" stroke-width="2.5" fill="none" stroke-linecap="round"/>
<path d="M426.4 226.1 Q441.4 220.1 451.4 226.1" stroke="#15803d" stroke-width="2.5" fill="none" stroke-linecap="round"/>
<path d="M426.4 226.1 Q432.1 225.8 435.8 238.5" stroke="#4ade80" stroke-width="2.5" fill="none" stroke-linecap="round"/>
<path d="M426.4 226.1 Q412.6 225.9 403.3 238.8" stroke="#16a34a" stroke-width="2.5" fill="none" stroke-linecap="round"/>
<path d="M588.5 285.0 Q613.0 255.3 603.2 225.6" stroke="#92400e" stroke-width="4" fill="none" stroke-linecap="round"/>
<path d="M603.2 225.6 Q593.5 215.6 587.0 216.7" stroke="#16a34a" stroke-width="2.5" fill="none" stroke-linecap="round"/>
<path d="M603.2 225.6 Q607.9 214.9 611.0 215.2" stroke="#22c55e" stroke-width="2.5" fill="none" stroke-linecap="round"/>
<path d="M603.2 225.6 Q619.6 219.6 630.5 225.6" stroke="#15803d" stroke-width="2.5" fill="none" stroke-linecap="round"/>
<path d="M603.2 225.6 Q610.7 227.2 615.7 242.2" stroke="#4ade80" stroke-width="2.5" fill="none" stroke-linecap="round"/>
<path d="M603.2 225.6 Q592.8 223.9 585.9 235.1" stroke="#16a34a" stroke-width="2.5" fill="none" stroke-linecap="round"/>
<rect x="0" y="282" width="1200" height="18" fill="url(#groundGrad)"/>
<line x1="396.5" y1="282.0" x2="396.5" y2="246.7" stroke="#92400e" stroke-width="2"/>
<circle cx="396.5" cy="246.7" r="4" fill="#fef08a" opacity="0.6"/>
<circle cx="396.5" cy="246.7" r="8" fill="#fef08a" opacity="0.15" filter="url(#softGlow)"/>
<ellipse cx="945.3" cy="282.0" rx="5.4" ry="3.8" fill="#22c55e" opacity="0.6"/>
<ellipse cx="1027.3" cy="282.0" rx="6.4" ry="4.5" fill="#22c55e" opacity="0.6"/>
</svg>