<svg xmlns="http://www.w3.org/2000/svg" viewBox="0 0 1200 300" width="1200" height="300">
<rect width="1200" height="300" fill="#e0eff2"/>
<path d="M0 300 L0 210.0 C372.8 166.0, 844.0 193.9, 1200 210.0 L1200 300 Z" fill="#aac2c9" opacity="0.3"/>
<rect x="220.1" y="199.3" width="85.6" height="100.7" fill="#8aabb4"/>
<rect x="621.8" y="224.5" width="47.6" height="75.5" fill="#8aabb4"/>
<rect x="923.8" y="204.7" width="77.3" height="95.3" fill="#8aabb4"/>
<rect x="166.2" y="143.0" width="79.7" height="157.0" fill="#558592"/>
<rect x="182.0" y="155.0" width="6" height="8" fill="#91b0b8" opacity="0.5"/>
<rect x="196.0" y="155.0" width="6" height="8" fill="#91b0b8" opacity="0.5"/>
<rect x="210.0" y="155.0" width="6" height="8" fill="#91b0b8" opacity="0.5"/>
<rect x="224.0" y="155.0" width="6" height="8" fill="#91b0b8" opacity="0.5"/>
<rect x="182.0" y="171.0" width="6" height="8" fill="#91b0b8" opacity="0.5"/>
<rect x="196.0" y="171.0" width="6" height="8" fill="#91b0b8" opacity="0.5"/>
<rect x="210.0" y="171.0" width="6" height="8" fill="#91b0b8" opacity="0.5"/>
<rect x="224.0" y="171.0" width="6" height="8" fill="#91b0b8" opacity="0.5"/>
<rect x="182.0" y="187.0" width="6" height="8" fill="#91b0b8" opacity="0.5"/>
<rect x="196.0" y="187.0" width="6" height="8" fill="#91b0b8" opacity="0.5"/>
<rect x="210.0" y="187.0" width="6" height="8" fill="#91b0b8" opacity="0.5"/>
<rect x="224.0" y="187.0" width="6" height="8" fill="#91b0b8" opacity="0.5"/>
<rect x="182.0" y="203.0" width="6" height="8" fill="#91b0b8" opacity="0.5"/>
<rect x="196.0" y="203.0" width="6" height="8" fill="#91b0b8" opacity="0.5"/>
<rect x="210.0" y="203.0" width="6" height="8" fill="#91b0b8" opacity="0.5"/>
<rect x="196.0" y="219.0" width="6" height="8" fill="#91b0b8" opacity="0.5"/>
<rect x="182.0" y="235.0" width="6" height="8" fill="#91b0b8" opacity="0.5"/>
<rect x="196.0" y="235.0" width="6" height="8" fill="#91b0b8" opacity="0.5"/>
<rect x="210.0" y="235.0" width="6" height="8" fill="#91b0b8" opacity="0.5"/>
<rect x="182.0" y="251.0" width="6" height="8" fill="#91b0b8" opacity="0.5"/>
<rect x="210.0" y="251.0" width="6" height="8" fill="#91b0b8" opacity="0.5"/>
<rect x="182.0" y="267.0" width="6" height="8" fill="#91b0b8" opacity="0.5"/>
<rect x="210.0" y="267.0" width="6" height="8" fill="#91b0b8" opacity="0.5"/>
<rect x="224.0" y="267.0" width="6" height="8" fill="#91b0b8" opacity="0.5"/>
<rect x="405.0" y="164.3" width="57.8" height="135.7" fill="#558592"/>
<rect x="423.9" y="176.3" width="6" height="8" fill="#91b0b8" opacity="0.5"/>
<rect x="437.9" y="176.3" width="6" height="8" fill="#91b0b8" opacity="0.5"/>
<rect x="423.9" y="192.3" width="6" height="8" fill="#91b0b8" opacity="0.5"/>
<rect x="437.9" y="208.3" width="6" height="8" fill="#91b0b8" opacity="0.5"/>
<rect x="423.9" y="224.3" width="6" height="8" fill="#91b0b8" opacity="0.5"/>
<rect x="437.9" y="224.3" width="6" height="8" fill="#91b0b8" opacity="0.5"/>
<rect x="423.9" y="240.3" width="6" height="8" fill="#91b0b8" opacity="0.5"/>
<rect x="437.9" y="240.3" width="6" height="8" fill="#91b0b8" opacity="0.5"/>
<rect x="423.9" y="256.3" width="6" height="8" fill="#91b0b8" opacity="0.5"/>
<rect x="423.9" y="272.3" width="6" height="8" fill="#91b0b8" opacity="0.5"/>
<rect x="437.9" y="272.3" width="6" height="8" fill="#91b0b8" opacity="0.5"/>
<rect x="683.1" y="145.3" width="48.9" height="154.7" fill="#558592"/>
<rect x="697.5" y="157.3" width="6" height="8" fill="#91b0b8" opacity="0.5"/>
<rect x="711.5" y="157.3" width="6" height="8" fill="#91b0b8" opacity="0.5"/>
<rect x="697.5" y="173.3" width="6" height="8" fill="#91b0b8" opacity="0.5"/>
<rect x="711.5" y="173.3" width="6" height="8" fill="#91b0b8" opacity="0.5"/>
<rect x="697.5" y="189.3" width="6" height="8" fill="#91b0b8" opacity="0.5"/>
<rect x="697.5" y="205.3" width="6" height="8" fill="#91b0b8" opacity="0.5"/>
<rect x="711.5" y="205.3" width="6" height="8" fill="#91b0b8" opacity="0.5"/>
<rect x="697.5" y="221.3" width="6" height="8" fill="#91b0b8" opacity="0.5"/>
<rect x="711.5" y="221.3" width="6" height="8" fill="#91b0b8" opacity="0.5"/>
<rect x="711.5" y="237.3" width="6" height="8" fill="#91b0b8" opacity="0.5"/>
<rect x="697.5" y="253.3" width="6" height="8" fill="#91b0b8" opacity="0.5"/>
<rect x="711.5" y="253.3" width="6" height="8" fill="#91b0b8" opacity="0.5"/>
<rect x="1005.2" y="159.8" width="70.9" height="140.2" fill="#558592"/>
<rect x="1023.7" y="171.8" width="6" height="8" fill="#91b0b8" opacity="0.5"/>
<rect x="1037.7" y="171.8" width="6" height="8" fill="#91b0b8" opacity="0.5"/>
<rect x="1051.7" y="171.8" width="6" height="8" fill="#91b0b8" opacity="0.5"/>
<rect x="1023.7" y="187.8" width="6" height="8" fill="#91b0b8" opacity="0.5"/>
<rect x="1037.7" y="187.8" width="6" height="8" fill="#91b0b8" opacity="0.5"/>
<rect x="1051.7" y="187.8" width="6" height="8" fill="#91b0b8" opacity="0.5"/>
<rect x="1037.7" y="203.8" width="6" height="8" fill="#91b0b8" opacity="0.5"/>
<rect x="1051.7" y="203.8" width="6" height="8" fill="#91b0b8" opacity="0.5"/>
<rect x="1023.7" y="219.8" width="6" height="8" fill="#91b0b8" opacity="0.5"/>
<rect x="1037.7" y="219.8" width="6" height="8" fill="#91b0b8" opacity="0.5"/>
<rect x="1051.7" y="219.8" width="6" height="8" fill="#91b0b8" opacity="0.5"/>
<rect x="1037.7" y="235.8" width="6" height="8" fill="#91b0b8" opacity="0.5"/>
<rect x="1037.7" y="251.8" width="6" height="8" fill="#91b0b8" opacity="0.5"/>
<rect x="1051.7" y="251.8" width="6" height="8" fill="#91b0b8" opacity="0.5"/>
<rect x="1023.7" y="267.8" width="6" height="8" fill="#91b0b8" opacity="0.5"/>
<rect x="1051.7" y="267.8" width="6" height="8" fill="#91b0b8" opacity="0.5"/>
<rect x="208.3" y="167.5" width="63.9" height="132.5" fill="#2b6777"/>
<rect x="237.3" y="195.5" width="6" height="8" fill="#759ca7" opacity="0.5"/>
<rect x="251.3" y="195.5" width="6" height="8" fill="#759ca7" opacity="0.5"/>
<rect x="223.3" y="211.5" width="6" height="8" fill="#759ca7" opacity="0.5"/>
<rect x="251.3" y="211.5" width="6" height="8" fill="#759ca7" opacity="0.5"/>
<rect x="223.3" y="227.5" width="6" height="8" fill="#759ca7" opacity="0.5"/>
<rect x="237.3" y="227.5" width="6" height="8" fill="#759ca7" opacity="0.5"/>
<rect x="251.3" y="227.5" width="6" height="8" fill="#759ca7" opacity="0.5"/>
<rect x="223.3" y="243.5" width="6" height="8" fill="#759ca7" opacity="0.5"/>
<rect x="237.3" y="243.5" width="6" height="8" fill="#759ca7" opacity="0.5"/>
<rect x="251.3" y="243.5" width="6" height="8" fill="#759ca7" opacity="0.5"/>
<rect x="237.3" y="259.5" width="6" height="8" fill="#759ca7" opacity="0.5"/>
<rect x="251.3" y="259.5" width="6" height="8" fill="#759ca7" opacity="0.5"/>
<rect x="534.4" y="239.7" width="57.4" height="60.3" fill="#2b6777"/>
<rect x="553.2" y="251.7" width="6" height="8" fill="#759ca7" opacity="0.5"/>
<rect x="567.2" y="251.7" width="6" height="8" fill="#759ca7" opacity="0.5"/>
<rect x="553.2" y="267.7" width="6" height="8" fill="#759ca7" opacity="0.5"/>
<rect x="972.2" y="115.6" width="57.3" height="184.4" fill="#2b6777"/>
<rect x="990.8" y="143.6" width="6" height="8" fill="#759ca7" opacity="0.5"/>
<rect x="990.8" y="159.6" width="6" height="8" fill="#759ca7" opacity="0.5"/>
<rect x="1004.8" y="175.6" width="6" height="8" fill="#759ca7" opacity="0.5"/>
<rect x="990.8" y="191.6" width="6" height="8" fill="#759ca7" opacity="0.5"/>
<rect x="1004.8" y="191.6" width="6" height="8" fill="#759ca7" opacity="0.5"/>
<rect x="990.8" y="207.6" width="6" height="8" fill="#759ca7" opacity="0.5"/>
<rect x="1004.8" y="207.6" width="6" height="8" fill="#759ca7" opacity="0.5"/>
<rect x="1004.8" y="223.6" width="6" height="8" fill="#759ca7" opacity="0.5"/>
<rect x="1004.8" y="239.6" width="6" height="8" fill="#759ca7" opacity="0.5"/>
<rect x="990.8" y="255.6" width="6" height="8" fill="#759ca7" opacity="0.5"/>
<rect x="1004.8" y="255.6" width="6" height="8" fill="#759ca7" opacity="0.5"/>
<rect x="990.8" y="271.6" width="6" height="8" fill="#759ca7" opacity="0.5"/>
<rect x="0" y="298" width="1200" height="2" fill="#275d6b" opacity="0.15"/>
</svg>