<svg xmlns="http://www.w3.org/2000/svg" viewBox="0 0 1200 400" width="1200" height="400">
<defs>
<linearGradient id="bg" x1="0" y1="0" x2="0" y2="1"><stop offset="0%" stop-color="#166534"/><stop offset="100%" stop-color="#3b82f6"/></linearGradient>
<linearGradient id="warm" x1="0" y1="0" x2="1" y2="1"><stop offset="0%" stop-color="#ab9368" stop-opacity="0.18"/><stop offset="100%" stop-color="#ab9368" stop-opacity="0.06"/></linearGradient>
</defs>
<rect width="1200" height="400" fill="url(#bg)"/>
<path d="M0 400 L0 230.41097580500463 C60.0 224.4, 90.0 251.7, 150.0 249.0 C210.0 243.6, 240.0 245.9, 300.0 236.0 C360.0 242.6, 390.0 264.8, 450.0 255.0 C510.0 254.7, 540.0 251.2, 600.0 253.9 C660.0 246.3, 690.0 234.5, 750.0 238.0 C810.0 236.7, 840.0 238.2, 900.0 243.7 C960.0 245.8, 990.0 234.6, 1050.0 239.8 C1110.0 235.7, 1140.0 242.5, 1200.0 233.8 L1200 400 Z" fill="#2e78b2" opacity="0.45"/>
<path d="M0 400 L0 275.3846145192835 C52.5 268.4, 97.5 267.3, 150.0 268.4 C202.5 271.4, 247.5 271.2, 300.0 264.8 C352.5 260.0, 397.5 275.1, 450.0 280.1 C502.5 285.2, 547.5 266.7, 600.0 267.3 C652.5 263.3, 697.5 269.8, 750.0 269.2 C802.5 275.2, 847.5 281.2, 900.0 274.0 C952.5 267.4, 997.5 269.8, 1050.0 277.2 C1102.5 281.4, 1147.5 260.3, 1200.0 260.3 L1200 400 Z" fill="#3b82f6" opacity="0.3"/>
<rect x="929.4" y="345.0" width="24.5" height="55.0" rx="7.0" fill="#7f8682" opacity="0.65"/>
<rect x="776.5" y="339.9" width="41.2" height="60.1" rx="4.6" fill="#c48a0e" opacity="0.84"/>
<rect x="1027.1" y="327.4" width="20.9" height="72.6" rx="4.2" fill="#83867c" opacity="0.60"/>
<rect x="564.7" y="288.1" width="37.6" height="111.9" rx="3.7" fill="#c38a10" opacity="0.58"/>
<rect x="295.1" y="333.5" width="34.4" height="66.5" rx="3.8" fill="#ae8833" opacity="0.83"/>
<rect x="830.9" y="319.3" width="41.1" height="80.7" rx="4.1" fill="#c98a05" opacity="0.64"/>
<rect x="1007.5" y="317.0" width="24.0" height="83.0" rx="5.3" fill="#898672" opacity="0.65"/>
<rect x="1012.5" y="327.0" width="4" height="5" rx="0.5" fill="#166534" opacity="0.6"/>
<rect x="1012.5" y="349.0" width="4" height="5" rx="0.5" fill="#166534" opacity="0.6"/>
<rect x="1012.5" y="371.0" width="4" height="5" rx="0.5" fill="#166534" opacity="0.6"/>
<rect x="251.3" y="361.7" width="29.0" height="38.3" rx="6.7" fill="#c48a0f" opacity="0.54"/>
<rect x="508.4" y="362.8" width="43.1" height="37.2" rx="4.0" fill="#9c8753" opacity="0.69"/>
<rect x="178.4" y="328.7" width="41.1" height="71.3" rx="3.4" fill="#b58927" opacity="0.52"/>
<rect x="471.0" y="370.3" width="27.3" height="29.7" rx="7.4" fill="#ab8838" opacity="0.61"/>
<rect x="304.6" y="326.3" width="15.0" height="73.7" rx="5.2" fill="#a68842" opacity="0.58"/>
<rect x="909.4" y="369.6" width="16.6" height="30.4" rx="6.2" fill="#808681" opacity="0.70"/>
<line x1="424.7" y1="82.5" x2="459.5" y2="82.5" stroke="#166534" stroke-width="2.7" opacity="0.27"/>
<line x1="460.1" y1="2.7" x2="538.7" y2="2.7" stroke="#ca8a04" stroke-width="1.9" opacity="0.21"/>
<line x1="1067.4" y1="214.5" x2="1110.8" y2="214.5" stroke="#166534" stroke-width="1.6" opacity="0.36"/>
<line x1="231.6" y1="18.6" x2="265.0" y2="18.6" stroke="#ca8a04" stroke-width="2.0" opacity="0.16"/>
<line x1="15.9" y1="153.5" x2="72.0" y2="153.5" stroke="#ca8a04" stroke-width="2.2" opacity="0.30"/>
<line x1="368.9" y1="26.2" x2="429.4" y2="26.2" stroke="#ca8a04" stroke-width="2.2" opacity="0.23"/>
<line x1="379.3" y1="82.1" x2="457.6" y2="82.1" stroke="#166534" stroke-width="2.7" opacity="0.20"/>
<rect width="1200" height="400" fill="url(#warm)"/>
<rect width="1200" height="400" fill="#166534" opacity="0.45"/>
</svg>