<svg xmlns="http://www.w3.org/2000/svg" viewBox="0 0 1200 300" width="1200" height="300">
<defs>
<linearGradient id="skyGrad" x1="0" y1="0" x2="0" y2="1">
<stop offset="0%" stop-color="#818cf8"/>
<stop offset="20%" stop-color="#c4b5fd"/>
<stop offset="38%" stop-color="#fda4af"/>
<stop offset="55%" stop-color="#fdba74"/>
<stop offset="75%" stop-color="#fef08a"/>
<stop offset="100%" stop-color="#fef9c3"/>
</linearGradient>
<linearGradient id="bldg_coral" x1="0" y1="0" x2="0" y2="1"><stop offset="0%" stop-color="#fecaca"/><stop offset="100%" stop-color="#fca5a5"/></linearGradient>
<linearGradient id="bldg_teal" x1="0" y1="0" x2="0" y2="1"><stop offset="0%" stop-color="#99f6e4"/><stop offset="100%" stop-color="#5eead4"/></linearGradient>
<linearGradient id="bldg_amber" x1="0" y1="0" x2="0" y2="1"><stop offset="0%" stop-color="#fde68a"/><stop offset="100%" stop-color="#fcd34d"/></linearGradient>
<linearGradient id="bldg_lavender" x1="0" y1="0" x2="0" y2="1"><stop offset="0%" stop-color="#ddd6fe"/><stop offset="100%" stop-color="#c4b5fd"/></linearGradient>
<linearGradient id="bldg_blue" x1="0" y1="0" x2="0" y2="1"><stop offset="0%" stop-color="#bfdbfe"/><stop offset="100%" stop-color="#93c5fd"/></linearGradient>
<linearGradient id="bldg_mint" x1="0" y1="0" x2="0" y2="1"><stop offset="0%" stop-color="#a7f3d0"/><stop offset="100%" stop-color="#6ee7b7"/></linearGradient>
<linearGradient id="bldg_rose" x1="0" y1="0" x2="0" y2="1"><stop offset="0%" stop-color="#fecdd3"/><stop offset="100%" stop-color="#fda4af"/></linearGradient>
<linearGradient id="bldg_sky" x1="0" y1="0" x2="0" y2="1"><stop offset="0%" stop-color="#bae6fd"/><stop offset="100%" stop-color="#7dd3fc"/></linearGradient>
<linearGradient id="roof_navyRoof" x1="0" y1="0" x2="0" y2="1"><stop offset="0%" stop-color="#4338ca"/><stop offset="100%" stop-color="#3730a3"/></linearGradient>
<linearGradient id="roof_coralRoof" x1="0" y1="0" x2="0" y2="1"><stop offset="0%" stop-color="#f87171"/><stop offset="100%" stop-color="#ef4444"/></linearGradient>
<linearGradient id="roof_tealRoof" x1="0" y1="0" x2="0" y2="1"><stop offset="0%" stop-color="#2dd4bf"/><stop offset="100%" stop-color="#14b8a6"/></linearGradient>
<radialGradient id="windowGlow" cx="50%" cy="50%" r="50%"><stop offset="0%" stop-color="#fef08a"/><stop offset="60%" stop-color="#fbbf24"/><stop offset="100%" stop-color="#f59e0b"/></radialGradient>
<linearGradient id="hillFar" x1="0" y1="0" x2="0" y2="1"><stop offset="0%" stop-color="#c4b5fd"/><stop offset="100%" stop-color="#a5b4fc"/></linearGradient>
<linearGradient id="hillMid" x1="0" y1="0" x2="0" y2="1"><stop offset="0%" stop-color="#86efac"/><stop offset="100%" stop-color="#4ade80"/></linearGradient>
<linearGradient id="hillNear" x1="0" y1="0" x2="0" y2="1"><stop offset="0%" stop-color="#34d399"/><stop offset="100%" stop-color="#10b981"/></linearGradient>
<linearGradient id="hillDesertFar" x1="0" y1="0" x2="0" y2="1"><stop offset="0%" stop-color="#fde68a"/><stop offset="100%" stop-color="#fcd34d"/></linearGradient>
<linearGradient id="hillDesertMid" x1="0" y1="0" x2="0" y2="1"><stop offset="0%" stop-color="#fcd34d"/><stop offset="100%" stop-color="#fbbf24"/></linearGradient>
<linearGradient id="hillDesertNear" x1="0" y1="0" x2="0" y2="1"><stop offset="0%" stop-color="#fbbf24"/><stop offset="100%" stop-color="#f59e0b"/></linearGradient>
<linearGradient id="groundGrad" x1="0" y1="0" x2="0" y2="1"><stop offset="0%" stop-color="#fef3c7"/><stop offset="100%" stop-color="#fde68a"/></linearGradient>
<linearGradient id="waterGrad" x1="0" y1="0" x2="0" y2="1"><stop offset="0%" stop-color="#bfdbfe"/><stop offset="100%" stop-color="#93c5fd"/></linearGradient>
<filter id="softGlow" x="-50%" y="-50%" width="200%" height="200%"><feGaussianBlur in="SourceGraphic" stdDeviation="12"/></filter>
</defs>
<rect width="1200" height="300" fill="url(#skyGrad)"/>
<circle cx="903.9" cy="36.9" r="45" fill="#fef08a" opacity="0.12" filter="url(#softGlow)"/>
<circle cx="903.9" cy="36.9" r="30" fill="#fde68a" opacity="0.18" filter="url(#softGlow)"/>
<circle cx="903.9" cy="36.9" r="16" fill="#fef9c3" opacity="0.25" filter="url(#softGlow)"/>
<ellipse cx="133.5" cy="23.7" rx="40.9" ry="14.3" fill="white" opacity="0.4"/>
<ellipse cx="107.9" cy="27.8" rx="28.6" ry="11.3" fill="white" opacity="0.4"/>
<ellipse cx="156.0" cy="26.7" rx="32.7" ry="12.3" fill="white" opacity="0.4"/>
<ellipse cx="981.8" cy="46.2" rx="36.6" ry="12.8" fill="white" opacity="0.6"/>
<ellipse cx="959.0" cy="49.9" rx="25.6" ry="10.1" fill="white" opacity="0.6"/>
<ellipse cx="1002.0" cy="49.0" rx="29.3" ry="11.0" fill="white" opacity="0.5"/>
<path d="M0 300 L0.0 192.2 C114.8 192.2, 114.8 182.1, 229.7 182.1 C363.3 182.1, 363.3 181.1, 496.9 181.1 C621.1 181.1, 621.1 194.2, 745.2 194.2 C872.4 194.2, 872.4 192.5, 999.6 192.5 C1099.8 192.5, 1099.8 189.6, 1200.0 189.6 L1200 300 Z" fill="url(#hillFar)" opacity="0.5"/>
<path d="M0 300 L0.0 214.6 C155.6 214.6, 155.6 207.8, 311.2 207.8 C528.4 207.8, 528.4 209.1, 745.5 209.1 C972.7 209.1, 972.7 216.3, 1200.0 216.3 L1200 300 Z" fill="url(#hillMid)" opacity="0.7"/>
<path d="M0 300 L0.0 236.5 C129.4 236.5, 129.4 236.7, 258.7 236.7 C343.1 236.7, 343.1 229.8, 427.4 229.8 C580.6 229.8, 580.6 235.9, 733.8 235.9 C830.7 235.9, 830.7 231.6, 927.5 231.6 C1063.8 231.6, 1063.8 239.8, 1200.0 239.8 L1200 300 Z" fill="url(#hillNear)" opacity="1"/>
<rect x="160.6" y="212.5" width="81.4" height="87.5" rx="3" fill="url(#bldg_rose)" opacity="0.7"/>
<polygon points="160.6,212.5 201.3,195.5 242.0,212.5" fill="url(#roof_tealRoof)" opacity="0.7"/>
<rect x="177.3" y="222.5" width="6" height="8" rx="1" fill="url(#windowGlow)" opacity="0.7537332101043933"/>
<rect x="191.3" y="222.5" width="6" height="8" rx="1" fill="url(#windowGlow)" opacity="0.7664640941966623"/>
<rect x="205.3" y="222.5" width="6" height="8" rx="1" fill="url(#windowGlow)" opacity="0.8243690219355603"/>
<rect x="219.3" y="222.5" width="6" height="8" rx="1" fill="url(#windowGlow)" opacity="0.8311534173466048"/>
<rect x="177.3" y="237.5" width="6" height="8" rx="1" fill="url(#windowGlow)" opacity="0.8488066534273357"/>
<rect x="191.3" y="237.5" width="6" height="8" rx="1" fill="url(#windowGlow)" opacity="0.7178699200124805"/>
<rect x="205.3" y="237.5" width="6" height="8" rx="1" fill="url(#windowGlow)" opacity="0.8315340482311016"/>
<rect x="177.3" y="252.5" width="6" height="8" rx="1" fill="url(#windowGlow)" opacity="0.7027594824800079"/>
<rect x="191.3" y="252.5" width="6" height="8" rx="1" fill="url(#windowGlow)" opacity="0.9423289058461454"/>
<rect x="205.3" y="252.5" width="6" height="8" rx="1" fill="url(#windowGlow)" opacity="0.8866355058209204"/>
<rect x="425.4" y="191.3" width="86.2" height="108.7" rx="3" fill="url(#bldg_sky)" opacity="0.7"/>
<rect x="442.6" y="178.3" width="51.7" height="13.0" rx="2" fill="url(#roof_navyRoof)" opacity="0.7"/>
<rect x="444.5" y="201.3" width="6" height="8" rx="1" fill="url(#windowGlow)" opacity="0.9618121924632286"/>
<rect x="458.5" y="201.3" width="6" height="8" rx="1" fill="url(#windowGlow)" opacity="0.7029486187281778"/>
<rect x="472.5" y="201.3" width="6" height="8" rx="1" fill="url(#windowGlow)" opacity="0.8946989872002503"/>
<rect x="486.5" y="201.3" width="6" height="8" rx="1" fill="url(#windowGlow)" opacity="0.9392205983117318"/>
<rect x="486.5" y="216.3" width="6" height="8" rx="1" fill="url(#windowGlow)" opacity="0.7802856826597292"/>
<rect x="444.5" y="231.3" width="6" height="8" rx="1" fill="url(#windowGlow)" opacity="0.9620500517366686"/>
<rect x="458.5" y="231.3" width="6" height="8" rx="1" fill="url(#windowGlow)" opacity="0.9698910586861386"/>
<rect x="472.5" y="231.3" width="6" height="8" rx="1" fill="url(#windowGlow)" opacity="0.8326765860117397"/>
<rect x="486.5" y="231.3" width="6" height="8" rx="1" fill="url(#windowGlow)" opacity="0.7160721828304567"/>
<rect x="444.5" y="246.3" width="6" height="8" rx="1" fill="url(#windowGlow)" opacity="0.8881916233283428"/>
<rect x="472.5" y="246.3" width="6" height="8" rx="1" fill="url(#windowGlow)" opacity="0.7044389431851166"/>
<rect x="486.5" y="246.3" width="6" height="8" rx="1" fill="url(#windowGlow)" opacity="0.9534725231833162"/>
<rect x="684.0" y="219.6" width="71.5" height="80.4" rx="3" fill="url(#bldg_coral)" opacity="0.7"/>
<rect x="698.3" y="209.9" width="42.9" height="9.7" rx="2" fill="url(#roof_coralRoof)" opacity="0.7"/>
<rect x="702.7" y="229.6" width="6" height="8" rx="1" fill="url(#windowGlow)" opacity="0.9115812604369508"/>
<rect x="716.7" y="229.6" width="6" height="8" rx="1" fill="url(#windowGlow)" opacity="0.8407088204942219"/>
<rect x="730.7" y="229.6" width="6" height="8" rx="1" fill="url(#windowGlow)" opacity="0.7324464874493174"/>
<rect x="716.7" y="244.6" width="6" height="8" rx="1" fill="url(#windowGlow)" opacity="0.7601653598063464"/>
<rect x="730.7" y="244.6" width="6" height="8" rx="1" fill="url(#windowGlow)" opacity="0.7272029234688742"/>
<rect x="702.7" y="259.6" width="6" height="8" rx="1" fill="url(#windowGlow)" opacity="0.8331122545679622"/>
<rect x="716.7" y="259.6" width="6" height="8" rx="1" fill="url(#windowGlow)" opacity="0.7869185392683924"/>
<rect x="730.7" y="259.6" width="6" height="8" rx="1" fill="url(#windowGlow)" opacity="0.9531910066274883"/>
<rect x="948.5" y="203.7" width="79.7" height="96.3" rx="3" fill="url(#bldg_teal)" opacity="0.7"/>
<rect x="948.5" y="200.7" width="79.7" height="3" rx="1" fill="url(#roof_tealRoof)" opacity="0.7"/>
<rect x="964.4" y="213.7" width="6" height="8" rx="1" fill="url(#windowGlow)" opacity="0.7267788387028401"/>
<rect x="978.4" y="213.7" width="6" height="8" rx="1" fill="url(#windowGlow)" opacity="0.8559902976062103"/>
<rect x="992.4" y="213.7" width="6" height="8" rx="1" fill="url(#windowGlow)" opacity="0.9601559078600983"/>
<rect x="1006.4" y="213.7" width="6" height="8" rx="1" fill="url(#windowGlow)" opacity="0.899011605325626"/>
<rect x="964.4" y="228.7" width="6" height="8" rx="1" fill="url(#windowGlow)" opacity="0.9093185011340856"/>
<rect x="978.4" y="228.7" width="6" height="8" rx="1" fill="url(#windowGlow)" opacity="0.9670161254084744"/>
<rect x="1006.4" y="228.7" width="6" height="8" rx="1" fill="url(#windowGlow)" opacity="0.8004519905897098"/>
<rect x="964.4" y="243.7" width="6" height="8" rx="1" fill="url(#windowGlow)" opacity="0.7896134781602833"/>
<rect x="978.4" y="243.7" width="6" height="8" rx="1" fill="url(#windowGlow)" opacity="0.7018090875362087"/>
<rect x="1006.4" y="243.7" width="6" height="8" rx="1" fill="url(#windowGlow)" opacity="0.8590270368191539"/>
<rect x="964.4" y="258.7" width="6" height="8" rx="1" fill="url(#windowGlow)" opacity="0.7589533850825174"/>
<rect x="978.4" y="258.7" width="6" height="8" rx="1" fill="url(#windowGlow)" opacity="0.7917932863774677"/>
<rect x="992.4" y="258.7" width="6" height="8" rx="1" fill="url(#windowGlow)" opacity="0.7455388067502243"/>
<rect x="1006.4" y="258.7" width="6" height="8" rx="1" fill="url(#windowGlow)" opacity="0.7706159704693667"/>
<rect x="129.2" y="121.1" width="73.9" height="178.9" rx="3" fill="url(#bldg_amber)" opacity="0.85"/>
<polygon points="129.2,121.1 166.2,101.2 203.1,121.1" fill="url(#roof_navyRoof)" opacity="0.85"/>
<rect x="142.2" y="131.1" width="6" height="8" rx="1" fill="url(#windowGlow)" opacity="0.8644876561893557"/>
<rect x="156.2" y="131.1" width="6" height="8" rx="1" fill="url(#windowGlow)" opacity="0.7351296240627437"/>
<rect x="170.2" y="131.1" width="6" height="8" rx="1" fill="url(#windowGlow)" opacity="0.9436513683030621"/>
<rect x="184.2" y="131.1" width="6" height="8" rx="1" fill="url(#windowGlow)" opacity="0.9956102052217397"/>
<rect x="156.2" y="146.1" width="6" height="8" rx="1" fill="url(#windowGlow)" opacity="0.8964943444805659"/>
<rect x="170.2" y="146.1" width="6" height="8" rx="1" fill="url(#windowGlow)" opacity="0.7449570310045764"/>
<rect x="184.2" y="146.1" width="6" height="8" rx="1" fill="url(#windowGlow)" opacity="0.7651133190678029"/>
<rect x="142.2" y="161.1" width="6" height="8" rx="1" fill="url(#windowGlow)" opacity="0.7561429473367254"/>
<rect x="156.2" y="161.1" width="6" height="8" rx="1" fill="url(#windowGlow)" opacity="0.7887540416739667"/>
<rect x="170.2" y="161.1" width="6" height="8" rx="1" fill="url(#windowGlow)" opacity="0.7835244082769026"/>
<rect x="184.2" y="161.1" width="6" height="8" rx="1" fill="url(#windowGlow)" opacity="0.9447207324880738"/>
<rect x="156.2" y="176.1" width="6" height="8" rx="1" fill="url(#windowGlow)" opacity="0.8238970260712769"/>
<rect x="170.2" y="176.1" width="6" height="8" rx="1" fill="url(#windowGlow)" opacity="0.9416289790727332"/>
<rect x="184.2" y="176.1" width="6" height="8" rx="1" fill="url(#windowGlow)" opacity="0.9201227167714958"/>
<rect x="156.2" y="191.1" width="6" height="8" rx="1" fill="url(#windowGlow)" opacity="0.8673494096227685"/>
<rect x="170.2" y="191.1" width="6" height="8" rx="1" fill="url(#windowGlow)" opacity="0.9754478256103805"/>
<rect x="184.2" y="191.1" width="6" height="8" rx="1" fill="url(#windowGlow)" opacity="0.783099226738838"/>
<rect x="142.2" y="206.1" width="6" height="8" rx="1" fill="url(#windowGlow)" opacity="0.8984425977330853"/>
<rect x="156.2" y="206.1" width="6" height="8" rx="1" fill="url(#windowGlow)" opacity="0.989452881361103"/>
<rect x="170.2" y="206.1" width="6" height="8" rx="1" fill="url(#windowGlow)" opacity="0.7178761442740802"/>
<rect x="184.2" y="206.1" width="6" height="8" rx="1" fill="url(#windowGlow)" opacity="0.715288155952137"/>
<rect x="142.2" y="221.1" width="6" height="8" rx="1" fill="url(#windowGlow)" opacity="0.7686347778740501"/>
<rect x="156.2" y="221.1" width="6" height="8" rx="1" fill="url(#windowGlow)" opacity="0.9238235015067381"/>
<rect x="170.2" y="221.1" width="6" height="8" rx="1" fill="url(#windowGlow)" opacity="0.8805839063974953"/>
<rect x="184.2" y="221.1" width="6" height="8" rx="1" fill="url(#windowGlow)" opacity="0.7774007507494654"/>
<rect x="156.2" y="236.1" width="6" height="8" rx="1" fill="url(#windowGlow)" opacity="0.9932817952210464"/>
<rect x="184.2" y="236.1" width="6" height="8" rx="1" fill="url(#windowGlow)" opacity="0.814857046126787"/>
<rect x="456.9" y="175.7" width="42.6" height="124.3" rx="3" fill="url(#bldg_lavender)" opacity="0.85"/>
<polygon points="456.9,175.7 478.3,163.1 499.6,175.7" fill="url(#roof_coralRoof)" opacity="0.85"/>
<rect x="475.3" y="200.7" width="6" height="8" rx="1" fill="url(#windowGlow)" opacity="0.9454962532713526"/>
<rect x="475.3" y="215.7" width="6" height="8" rx="1" fill="url(#windowGlow)" opacity="0.7881314003784821"/>
<rect x="475.3" y="230.7" width="6" height="8" rx="1" fill="url(#windowGlow)" opacity="0.8978346200184126"/>
<rect x="475.3" y="245.7" width="6" height="8" rx="1" fill="url(#windowGlow)" opacity="0.9906115652018279"/>
<rect x="475.3" y="260.7" width="6" height="8" rx="1" fill="url(#windowGlow)" opacity="0.7396854391972001"/>
<path d="M478.3 219.2 L495.3 219.2 L492.3 225.2 L481.3 225.2 Z" fill="url(#roof_navyRoof)" opacity="0.68"/>
<rect x="738.4" y="121.6" width="70.3" height="178.4" rx="3" fill="url(#bldg_blue)" opacity="0.85"/>
<polygon points="738.4,121.6 773.6,104.8 808.7,121.6" fill="url(#roof_tealRoof)" opacity="0.85"/>
<rect x="770.6" y="131.6" width="6" height="8" rx="1" fill="url(#windowGlow)" opacity="0.7969344381694377"/>
<rect x="756.6" y="146.6" width="6" height="8" rx="1" fill="url(#windowGlow)" opacity="0.9404578613771395"/>
<rect x="770.6" y="146.6" width="6" height="8" rx="1" fill="url(#windowGlow)" opacity="0.8451424115547641"/>
<rect x="756.6" y="161.6" width="6" height="8" rx="1" fill="url(#windowGlow)" opacity="0.706515049937421"/>
<rect x="770.6" y="161.6" width="6" height="8" rx="1" fill="url(#windowGlow)" opacity="0.9481396388486678"/>
<rect x="784.6" y="161.6" width="6" height="8" rx="1" fill="url(#windowGlow)" opacity="0.727207799082253"/>
<rect x="756.6" y="176.6" width="6" height="8" rx="1" fill="url(#windowGlow)" opacity="0.924377031076875"/>
<rect x="770.6" y="176.6" width="6" height="8" rx="1" fill="url(#windowGlow)" opacity="0.7318305131196186"/>
<rect x="784.6" y="176.6" width="6" height="8" rx="1" fill="url(#windowGlow)" opacity="0.8673743165877528"/>
<rect x="756.6" y="191.6" width="6" height="8" rx="1" fill="url(#windowGlow)" opacity="0.7744446525696873"/>
<rect x="770.6" y="191.6" width="6" height="8" rx="1" fill="url(#windowGlow)" opacity="0.8940358972149136"/>
<rect x="784.6" y="191.6" width="6" height="8" rx="1" fill="url(#windowGlow)" opacity="0.9693648212912328"/>
<rect x="756.6" y="206.6" width="6" height="8" rx="1" fill="url(#windowGlow)" opacity="0.8860786441648745"/>
<rect x="770.6" y="206.6" width="6" height="8" rx="1" fill="url(#windowGlow)" opacity="0.7474942153540878"/>
<rect x="756.6" y="221.6" width="6" height="8" rx="1" fill="url(#windowGlow)" opacity="0.8995823052244178"/>
<rect x="770.6" y="221.6" width="6" height="8" rx="1" fill="url(#windowGlow)" opacity="0.7004308330362806"/>
<rect x="784.6" y="221.6" width="6" height="8" rx="1" fill="url(#windowGlow)" opacity="0.8659100862526847"/>
<rect x="756.6" y="236.6" width="6" height="8" rx="1" fill="url(#windowGlow)" opacity="0.995025757884153"/>
<rect x="770.6" y="236.6" width="6" height="8" rx="1" fill="url(#windowGlow)" opacity="0.7799511797632794"/>
<rect x="784.6" y="236.6" width="6" height="8" rx="1" fill="url(#windowGlow)" opacity="0.9674191534367479"/>
<rect x="974.9" y="155.8" width="52.6" height="144.2" rx="3" fill="url(#bldg_mint)" opacity="0.85"/>
<polygon points="974.9,155.8 1001.2,143.2 1027.4,155.8" fill="url(#roof_navyRoof)" opacity="0.85"/>
<rect x="991.2" y="165.8" width="6" height="8" rx="1" fill="url(#windowGlow)" opacity="0.7833726459571032"/>
<rect x="1005.2" y="165.8" width="6" height="8" rx="1" fill="url(#windowGlow)" opacity="0.8425938945927628"/>
<rect x="991.2" y="180.8" width="6" height="8" rx="1" fill="url(#windowGlow)" opacity="0.8925762675668002"/>
<rect x="1005.2" y="180.8" width="6" height="8" rx="1" fill="url(#windowGlow)" opacity="0.9782047982691808"/>
<rect x="991.2" y="195.8" width="6" height="8" rx="1" fill="url(#windowGlow)" opacity="0.8079810341391623"/>
<rect x="1005.2" y="195.8" width="6" height="8" rx="1" fill="url(#windowGlow)" opacity="0.9627400019498262"/>
<rect x="991.2" y="210.8" width="6" height="8" rx="1" fill="url(#windowGlow)" opacity="0.8707703698290373"/>
<rect x="1005.2" y="210.8" width="6" height="8" rx="1" fill="url(#windowGlow)" opacity="0.8332001140961424"/>
<rect x="991.2" y="225.8" width="6" height="8" rx="1" fill="url(#windowGlow)" opacity="0.8973771797480886"/>
<rect x="1005.2" y="225.8" width="6" height="8" rx="1" fill="url(#windowGlow)" opacity="0.9195293163040323"/>
<rect x="991.2" y="240.8" width="6" height="8" rx="1" fill="url(#windowGlow)" opacity="0.7187294556846513"/>
<rect x="1005.2" y="240.8" width="6" height="8" rx="1" fill="url(#windowGlow)" opacity="0.9896226871244714"/>
<rect x="991.2" y="255.8" width="6" height="8" rx="1" fill="url(#windowGlow)" opacity="0.9989880694537367"/>
<rect x="1005.2" y="255.8" width="6" height="8" rx="1" fill="url(#windowGlow)" opacity="0.7285132140053963"/>
<path d="M980.1 206.3 L1001.2 206.3 L998.2 212.3 L983.1 212.3 Z" fill="url(#roof_tealRoof)" opacity="0.68"/>
<rect x="141.5" y="104.8" width="35.1" height="195.2" rx="3" fill="url(#bldg_rose)" opacity="1"/>
<rect x="148.5" y="81.4" width="21.0" height="23.4" rx="2" fill="url(#roof_coralRoof)" opacity="1"/>
<rect x="156.1" y="114.8" width="6" height="8" rx="1" fill="url(#windowGlow)" opacity="0.7910071109379674"/>
<rect x="156.1" y="129.8" width="6" height="8" rx="1" fill="url(#windowGlow)" opacity="0.9116370354367592"/>
<rect x="156.1" y="144.8" width="6" height="8" rx="1" fill="url(#windowGlow)" opacity="0.9909204419660012"/>
<rect x="156.1" y="159.8" width="6" height="8" rx="1" fill="url(#windowGlow)" opacity="0.9695296744674116"/>
<rect x="156.1" y="174.8" width="6" height="8" rx="1" fill="url(#windowGlow)" opacity="0.7892610297488333"/>
<rect x="156.1" y="189.8" width="6" height="8" rx="1" fill="url(#windowGlow)" opacity="0.878196729756052"/>
<rect x="156.1" y="219.8" width="6" height="8" rx="1" fill="url(#windowGlow)" opacity="0.7288795682736111"/>
<rect x="154.1" y="284.0" width="10" height="16" rx="2" fill="url(#roof_navyRoof)" opacity="0.8"/>
<rect x="156.1" y="287.0" width="6" height="10" rx="1" fill="url(#windowGlow)" opacity="0.45"/>
<rect x="152.9" y="145.8" width="12.3" height="5" rx="1" fill="#15803d" opacity="0.7"/>
<circle cx="155.9" cy="144.8" r="2.5" fill="#f87171" opacity="0.85"/>
<circle cx="160.0" cy="144.8" r="2.5" fill="#a78bfa" opacity="0.85"/>
<circle cx="164.1" cy="144.8" r="2.5" fill="#fbbf24" opacity="0.85"/>
<rect x="454.0" y="216.5" width="57.8" height="83.5" rx="3" fill="url(#bldg_sky)" opacity="1"/>
<rect x="465.5" y="206.5" width="34.7" height="10.0" rx="2" fill="url(#roof_tealRoof)" opacity="1"/>
<rect x="472.8" y="226.5" width="6" height="8" rx="1" fill="url(#windowGlow)" opacity="0.7755610646566194"/>
<rect x="486.8" y="226.5" width="6" height="8" rx="1" fill="url(#windowGlow)" opacity="0.7211979754833495"/>
<rect x="472.8" y="241.5" width="6" height="8" rx="1" fill="url(#windowGlow)" opacity="0.7189403749624921"/>
<rect x="486.8" y="241.5" width="6" height="8" rx="1" fill="url(#windowGlow)" opacity="0.8504316478271184"/>
<rect x="472.8" y="256.5" width="6" height="8" rx="1" fill="url(#windowGlow)" opacity="0.7065251452413038"/>
<rect x="486.8" y="256.5" width="6" height="8" rx="1" fill="url(#windowGlow)" opacity="0.7726933498739699"/>
<rect x="477.8" y="284.0" width="10" height="16" rx="2" fill="url(#roof_navyRoof)" opacity="0.8"/>
<rect x="479.8" y="287.0" width="6" height="10" rx="1" fill="url(#windowGlow)" opacity="0.45"/>
<rect x="716.1" y="204.0" width="40.5" height="96.0" rx="3" fill="url(#bldg_coral)" opacity="1"/>
<polygon points="716.1,204.0 736.3,193.4 756.6,204.0" fill="url(#roof_navyRoof)" opacity="1"/>
<rect x="733.3" y="214.0" width="6" height="8" rx="1" fill="url(#windowGlow)" opacity="0.9081005478781184"/>
<rect x="733.3" y="244.0" width="6" height="8" rx="1" fill="url(#windowGlow)" opacity="0.9662158897454924"/>
<rect x="731.3" y="284.0" width="10" height="16" rx="2" fill="url(#roof_navyRoof)" opacity="0.8"/>
<rect x="733.3" y="287.0" width="6" height="10" rx="1" fill="url(#windowGlow)" opacity="0.45"/>
<rect x="729.2" y="245.0" width="14.2" height="5" rx="1" fill="#15803d" opacity="0.7"/>
<circle cx="732.2" cy="244.0" r="2.5" fill="#a78bfa" opacity="0.85"/>
<circle cx="737.0" cy="244.0" r="2.5" fill="#f87171" opacity="0.85"/>
<circle cx="741.7" cy="244.0" r="2.5" fill="#a78bfa" opacity="0.85"/>
<rect x="988.6" y="188.1" width="43.8" height="111.9" rx="3" fill="url(#bldg_teal)" opacity="1"/>
<rect x="988.6" y="185.1" width="43.8" height="3" rx="1" fill="url(#roof_coralRoof)" opacity="1"/>
<rect x="1007.5" y="198.1" width="6" height="8" rx="1" fill="url(#windowGlow)" opacity="0.9909759705378561"/>
<rect x="1007.5" y="213.1" width="6" height="8" rx="1" fill="url(#windowGlow)" opacity="0.8188762470702065"/>
<rect x="1007.5" y="228.1" width="6" height="8" rx="1" fill="url(#windowGlow)" opacity="0.8482225375940197"/>
<rect x="1007.5" y="243.1" width="6" height="8" rx="1" fill="url(#windowGlow)" opacity="0.7851051194058289"/>
<rect x="1005.5" y="284.0" width="10" height="16" rx="2" fill="url(#roof_navyRoof)" opacity="0.8"/>
<rect x="1007.5" y="287.0" width="6" height="10" rx="1" fill="url(#windowGlow)" opacity="0.45"/>
<rect x="312.3" y="267.4" width="6" height="17.6" rx="2" fill="#15803d"/>
<circle cx="315.3" cy="255.6" r="15.9" fill="#22c55e" opacity="0.9"/>
<circle cx="308.7" cy="258.6" r="11.9" fill="#16a34a" opacity="0.8"/>
<circle cx="320.5" cy="259.6" r="11.1" fill="#15803d" opacity="0.7"/>
<rect x="610.9" y="268.1" width="6" height="16.9" rx="2" fill="#15803d"/>
<circle cx="613.9" cy="258.3" r="13.8" fill="#22c55e" opacity="0.9"/>
<circle cx="606.0" cy="261.3" r="10.4" fill="#16a34a" opacity="0.8"/>
<circle cx="619.6" cy="262.3" r="9.7" fill="#15803d" opacity="0.7"/>
<rect x="869.6" y="265.3" width="6" height="19.7" rx="2" fill="#15803d"/>
<circle cx="872.6" cy="253.2" r="16.0" fill="#22c55e" opacity="0.9"/>
<circle cx="864.2" cy="256.2" r="12.0" fill="#16a34a" opacity="0.8"/>
<circle cx="880.3" cy="257.2" r="11.2" fill="#15803d" opacity="0.7"/>
<rect x="95.8" y="265.8" width="6" height="19.2" rx="2" fill="#15803d"/>
<circle cx="98.8" cy="256.2" r="13.6" fill="#22c55e" opacity="0.9"/>
<circle cx="91.4" cy="259.2" r="10.2" fill="#16a34a" opacity="0.8"/>
<circle cx="104.2" cy="260.2" r="9.5" fill="#15803d" opacity="0.7"/>
<rect x="0" y="282" width="1200" height="18" fill="url(#groundGrad)"/>
<line x1="790.5" y1="282.0" x2="790.5" y2="250.7" stroke="#92400e" stroke-width="2"/>
<circle cx="790.5" cy="250.7" r="4" fill="#fef08a" opacity="0.6"/>
<circle cx="790.5" cy="250.7" r="8" fill="#fef08a" opacity="0.15" filter="url(#softGlow)"/>
<line x1="312.4" y1="282.0" x2="312.4" y2="243.7" stroke="#92400e" stroke-width="2"/>
<circle cx="312.4" cy="243.7" r="4" fill="#fef08a" opacity="0.6"/>
<circle cx="312.4" cy="243.7" r="8" fill="#fef08a" opacity="0.15" filter="url(#softGlow)"/>
<ellipse cx="703.8" cy="282.0" rx="6.3" ry="4.4" fill="#22c55e" opacity="0.6"/>
<ellipse cx="446.6" cy="282.0" rx="4.6" ry="3.2" fill="#22c55e" opacity="0.6"/>
<ellipse cx="727.2" cy="282.0" rx="6.7" ry="4.7" fill="#22c55e" opacity="0.6"/>
</svg>