<svg xmlns="http://www.w3.org/2000/svg" viewBox="0 0 1200 300" width="1200" height="300">
<rect width="1200" height="300" fill="#e0eff2"/>
<path d="M0 300 L0 210.0 C207.6 181.1, 789.3 191.7, 1200 210.0 L1200 300 Z" fill="#aac2c9" opacity="0.3"/>
<rect x="273.2" y="249.9" width="83.6" height="50.1" fill="#8aabb4"/>
<rect x="817.9" y="242.1" width="46.0" height="57.9" fill="#8aabb4"/>
<rect x="213.5" y="251.5" width="43.7" height="48.5" fill="#558592"/>
<rect x="888.6" y="234.1" width="74.0" height="65.9" fill="#558592"/>
<rect x="915.6" y="246.1" width="6" height="8" fill="#91b0b8" opacity="0.5"/>
<rect x="901.6" y="262.1" width="6" height="8" fill="#91b0b8" opacity="0.5"/>
<rect x="915.6" y="262.1" width="6" height="8" fill="#91b0b8" opacity="0.5"/>
<rect x="929.6" y="262.1" width="6" height="8" fill="#91b0b8" opacity="0.5"/>
<rect x="943.6" y="262.1" width="6" height="8" fill="#91b0b8" opacity="0.5"/>
<rect x="684.3" y="245.6" width="54.2" height="54.4" fill="#2b6777"/>
<rect x="0" y="298" width="1200" height="2" fill="#275d6b" opacity="0.15"/>
</svg>