<svg xmlns="http://www.w3.org/2000/svg" viewBox="0 0 1200 300" width="1200" height="300">
<rect width="1200" height="300" fill="#e8edf2"/>
<path d="M0 300 L0 210.0 C226.9 174.1, 946.0 185.9, 1200 210.0 L1200 300 Z" fill="#b1bdcc" opacity="0.3"/>
<rect x="168.0" y="217.0" width="59.0" height="83.0" fill="#94a4b9"/>
<rect x="602.6" y="199.2" width="86.5" height="100.8" fill="#94a4b9"/>
<rect x="914.7" y="231.9" width="61.4" height="68.1" fill="#94a4b9"/>
<rect x="121.4" y="221.6" width="75.4" height="78.4" fill="#647b99"/>
<rect x="135.1" y="233.6" width="6" height="8" fill="#9aa9bd" opacity="0.5"/>
<rect x="149.1" y="233.6" width="6" height="8" fill="#9aa9bd" opacity="0.5"/>
<rect x="163.1" y="233.6" width="6" height="8" fill="#9aa9bd" opacity="0.5"/>
<rect x="177.1" y="233.6" width="6" height="8" fill="#9aa9bd" opacity="0.5"/>
<rect x="135.1" y="249.6" width="6" height="8" fill="#9aa9bd" opacity="0.5"/>
<rect x="149.1" y="249.6" width="6" height="8" fill="#9aa9bd" opacity="0.5"/>
<rect x="177.1" y="249.6" width="6" height="8" fill="#9aa9bd" opacity="0.5"/>
<rect x="135.1" y="265.6" width="6" height="8" fill="#9aa9bd" opacity="0.5"/>
<rect x="149.1" y="265.6" width="6" height="8" fill="#9aa9bd" opacity="0.5"/>
<rect x="163.1" y="265.6" width="6" height="8" fill="#9aa9bd" opacity="0.5"/>
<rect x="443.5" y="170.8" width="77.8" height="129.2" fill="#647b99"/>
<rect x="458.4" y="182.8" width="6" height="8" fill="#9aa9bd" opacity="0.5"/>
<rect x="472.4" y="182.8" width="6" height="8" fill="#9aa9bd" opacity="0.5"/>
<rect x="486.4" y="182.8" width="6" height="8" fill="#9aa9bd" opacity="0.5"/>
<rect x="458.4" y="198.8" width="6" height="8" fill="#9aa9bd" opacity="0.5"/>
<rect x="486.4" y="198.8" width="6" height="8" fill="#9aa9bd" opacity="0.5"/>
<rect x="500.4" y="198.8" width="6" height="8" fill="#9aa9bd" opacity="0.5"/>
<rect x="472.4" y="214.8" width="6" height="8" fill="#9aa9bd" opacity="0.5"/>
<rect x="486.4" y="214.8" width="6" height="8" fill="#9aa9bd" opacity="0.5"/>
<rect x="500.4" y="214.8" width="6" height="8" fill="#9aa9bd" opacity="0.5"/>
<rect x="472.4" y="230.8" width="6" height="8" fill="#9aa9bd" opacity="0.5"/>
<rect x="486.4" y="230.8" width="6" height="8" fill="#9aa9bd" opacity="0.5"/>
<rect x="500.4" y="230.8" width="6" height="8" fill="#9aa9bd" opacity="0.5"/>
<rect x="458.4" y="246.8" width="6" height="8" fill="#9aa9bd" opacity="0.5"/>
<rect x="472.4" y="246.8" width="6" height="8" fill="#9aa9bd" opacity="0.5"/>
<rect x="486.4" y="246.8" width="6" height="8" fill="#9aa9bd" opacity="0.5"/>
<rect x="458.4" y="262.8" width="6" height="8" fill="#9aa9bd" opacity="0.5"/>
<rect x="472.4" y="262.8" width="6" height="8" fill="#9aa9bd" opacity="0.5"/>
<rect x="486.4" y="262.8" width="6" height="8" fill="#9aa9bd" opacity="0.5"/>
<rect x="500.4" y="262.8" width="6" height="8" fill="#9aa9bd" opacity="0.5"/>
<rect x="703.5" y="138.5" width="37.9" height="161.5" fill="#647b99"/>
<rect x="719.5" y="150.5" width="6" height="8" fill="#9aa9bd" opacity="0.5"/>
<rect x="719.5" y="166.5" width="6" height="8" fill="#9aa9bd" opacity="0.5"/>
<rect x="719.5" y="182.5" width="6" height="8" fill="#9aa9bd" opacity="0.5"/>
<rect x="719.5" y="198.5" width="6" height="8" fill="#9aa9bd" opacity="0.5"/>
<rect x="719.5" y="214.5" width="6" height="8" fill="#9aa9bd" opacity="0.5"/>
<rect x="719.5" y="230.5" width="6" height="8" fill="#9aa9bd" opacity="0.5"/>
<rect x="719.5" y="246.5" width="6" height="8" fill="#9aa9bd" opacity="0.5"/>
<rect x="719.5" y="262.5" width="6" height="8" fill="#9aa9bd" opacity="0.5"/>
<rect x="1037.3" y="188.2" width="62.9" height="111.8" fill="#647b99"/>
<rect x="1051.8" y="200.2" width="6" height="8" fill="#9aa9bd" opacity="0.5"/>
<rect x="1079.8" y="200.2" width="6" height="8" fill="#9aa9bd" opacity="0.5"/>
<rect x="1065.8" y="216.2" width="6" height="8" fill="#9aa9bd" opacity="0.5"/>
<rect x="1079.8" y="216.2" width="6" height="8" fill="#9aa9bd" opacity="0.5"/>
<rect x="1051.8" y="232.2" width="6" height="8" fill="#9aa9bd" opacity="0.5"/>
<rect x="1065.8" y="232.2" width="6" height="8" fill="#9aa9bd" opacity="0.5"/>
<rect x="1065.8" y="248.2" width="6" height="8" fill="#9aa9bd" opacity="0.5"/>
<rect x="1079.8" y="248.2" width="6" height="8" fill="#9aa9bd" opacity="0.5"/>
<rect x="1051.8" y="264.2" width="6" height="8" fill="#9aa9bd" opacity="0.5"/>
<rect x="144.6" y="121.6" width="53.4" height="178.4" fill="#3d5a80"/>
<rect x="161.3" y="133.6" width="6" height="8" fill="#8194ac" opacity="0.5"/>
<rect x="175.3" y="133.6" width="6" height="8" fill="#8194ac" opacity="0.5"/>
<rect x="175.3" y="149.6" width="6" height="8" fill="#8194ac" opacity="0.5"/>
<rect x="161.3" y="165.6" width="6" height="8" fill="#8194ac" opacity="0.5"/>
<rect x="161.3" y="181.6" width="6" height="8" fill="#8194ac" opacity="0.5"/>
<rect x="175.3" y="181.6" width="6" height="8" fill="#8194ac" opacity="0.5"/>
<rect x="175.3" y="213.6" width="6" height="8" fill="#8194ac" opacity="0.5"/>
<rect x="161.3" y="229.6" width="6" height="8" fill="#8194ac" opacity="0.5"/>
<rect x="175.3" y="229.6" width="6" height="8" fill="#8194ac" opacity="0.5"/>
<rect x="161.3" y="245.6" width="6" height="8" fill="#8194ac" opacity="0.5"/>
<rect x="175.3" y="245.6" width="6" height="8" fill="#8194ac" opacity="0.5"/>
<rect x="161.3" y="261.6" width="6" height="8" fill="#8194ac" opacity="0.5"/>
<rect x="449.7" y="177.8" width="56.4" height="122.2" fill="#3d5a80"/>
<rect x="482.0" y="189.8" width="6" height="8" fill="#8194ac" opacity="0.5"/>
<rect x="468.0" y="205.8" width="6" height="8" fill="#8194ac" opacity="0.5"/>
<rect x="482.0" y="205.8" width="6" height="8" fill="#8194ac" opacity="0.5"/>
<rect x="468.0" y="221.8" width="6" height="8" fill="#8194ac" opacity="0.5"/>
<rect x="482.0" y="221.8" width="6" height="8" fill="#8194ac" opacity="0.5"/>
<rect x="468.0" y="237.8" width="6" height="8" fill="#8194ac" opacity="0.5"/>
<rect x="482.0" y="237.8" width="6" height="8" fill="#8194ac" opacity="0.5"/>
<rect x="482.0" y="253.8" width="6" height="8" fill="#8194ac" opacity="0.5"/>
<rect x="468.0" y="269.8" width="6" height="8" fill="#8194ac" opacity="0.5"/>
<rect x="482.0" y="269.8" width="6" height="8" fill="#8194ac" opacity="0.5"/>
<rect x="735.6" y="135.9" width="70.9" height="164.1" fill="#3d5a80"/>
<rect x="754.0" y="147.9" width="6" height="8" fill="#8194ac" opacity="0.5"/>
<rect x="768.0" y="147.9" width="6" height="8" fill="#8194ac" opacity="0.5"/>
<rect x="782.0" y="147.9" width="6" height="8" fill="#8194ac" opacity="0.5"/>
<rect x="754.0" y="163.9" width="6" height="8" fill="#8194ac" opacity="0.5"/>
<rect x="768.0" y="163.9" width="6" height="8" fill="#8194ac" opacity="0.5"/>
<rect x="782.0" y="163.9" width="6" height="8" fill="#8194ac" opacity="0.5"/>
<rect x="754.0" y="179.9" width="6" height="8" fill="#8194ac" opacity="0.5"/>
<rect x="754.0" y="195.9" width="6" height="8" fill="#8194ac" opacity="0.5"/>
<rect x="782.0" y="195.9" width="6" height="8" fill="#8194ac" opacity="0.5"/>
<rect x="754.0" y="211.9" width="6" height="8" fill="#8194ac" opacity="0.5"/>
<rect x="768.0" y="211.9" width="6" height="8" fill="#8194ac" opacity="0.5"/>
<rect x="754.0" y="227.9" width="6" height="8" fill="#8194ac" opacity="0.5"/>
<rect x="768.0" y="227.9" width="6" height="8" fill="#8194ac" opacity="0.5"/>
<rect x="782.0" y="227.9" width="6" height="8" fill="#8194ac" opacity="0.5"/>
<rect x="768.0" y="243.9" width="6" height="8" fill="#8194ac" opacity="0.5"/>
<rect x="782.0" y="243.9" width="6" height="8" fill="#8194ac" opacity="0.5"/>
<rect x="754.0" y="259.9" width="6" height="8" fill="#8194ac" opacity="0.5"/>
<rect x="768.0" y="259.9" width="6" height="8" fill="#8194ac" opacity="0.5"/>
<rect x="782.0" y="259.9" width="6" height="8" fill="#8194ac" opacity="0.5"/>
<rect x="1045.8" y="127.4" width="36.9" height="172.6" fill="#3d5a80"/>
<rect x="1061.2" y="139.4" width="6" height="8" fill="#8194ac" opacity="0.5"/>
<rect x="1061.2" y="155.4" width="6" height="8" fill="#8194ac" opacity="0.5"/>
<rect x="1061.2" y="171.4" width="6" height="8" fill="#8194ac" opacity="0.5"/>
<rect x="1061.2" y="187.4" width="6" height="8" fill="#8194ac" opacity="0.5"/>
<rect x="1061.2" y="203.4" width="6" height="8" fill="#8194ac" opacity="0.5"/>
<rect x="1061.2" y="235.4" width="6" height="8" fill="#8194ac" opacity="0.5"/>
<rect x="1061.2" y="251.4" width="6" height="8" fill="#8194ac" opacity="0.5"/>
<rect x="1061.2" y="267.4" width="6" height="8" fill="#8194ac" opacity="0.5"/>
<rect x="0" y="298" width="1200" height="2" fill="#375173" opacity="0.15"/>
</svg>