<svg xmlns="http://www.w3.org/2000/svg" viewBox="0 0 1200 400" width="1200" height="400">
<defs>
<linearGradient id="bg" x1="0" y1="0" x2="0" y2="1"><stop offset="0%" stop-color="#166534"/><stop offset="100%" stop-color="#3b82f6"/></linearGradient>
<linearGradient id="warm" x1="0" y1="0" x2="1" y2="1"><stop offset="0%" stop-color="#948f86" stop-opacity="0.18"/><stop offset="100%" stop-color="#948f86" stop-opacity="0.06"/></linearGradient>
</defs>
<rect width="1200" height="400" fill="url(#bg)"/>
<path d="M0 400 L0 265.3269268229693 C60.0 265.1, 90.0 258.7, 150.0 264.6 C210.0 274.2, 240.0 237.6, 300.0 235.9 C360.0 243.0, 390.0 246.2, 450.0 246.0 C510.0 245.9, 540.0 260.5, 600.0 262.0 C660.0 269.8, 690.0 272.0, 750.0 263.6 C810.0 272.3, 840.0 259.0, 900.0 251.8 C960.0 258.3, 990.0 237.5, 1050.0 236.9 C1110.0 227.2, 1140.0 266.2, 1200.0 260.5 L1200 400 Z" fill="#2e78b2" opacity="0.45"/>
<path d="M0 400 L0 279.044309139781 C52.5 278.5, 97.5 273.2, 150.0 274.7 C202.5 279.4, 247.5 284.0, 300.0 288.0 C352.5 287.1, 397.5 291.3, 450.0 288.1 C502.5 283.5, 547.5 264.8, 600.0 269.5 C652.5 262.7, 697.5 280.8, 750.0 280.5 C802.5 282.2, 847.5 268.1, 900.0 269.8 C952.5 270.4, 997.5 294.2, 1050.0 289.4 C1102.5 285.8, 1147.5 291.5, 1200.0 289.2 L1200 400 Z" fill="#3b82f6" opacity="0.3"/>
<rect x="908.7" y="319.6" width="37.5" height="80.4" rx="7.4" fill="#898672" opacity="0.66"/>
<rect x="149.9" y="324.1" width="38.7" height="75.9" rx="4.0" fill="#a48845" opacity="0.54"/>
<rect x="268.4" y="369.6" width="28.0" height="30.4" rx="7.0" fill="#988759" opacity="0.70"/>
<rect x="914.4" y="327.6" width="31.4" height="72.4" rx="6.5" fill="#9f884d" opacity="0.70"/>
<rect x="543.6" y="360.3" width="20.9" height="39.7" rx="6.0" fill="#7e8685" opacity="0.79"/>
<rect x="258.2" y="293.7" width="24.2" height="106.3" rx="7.8" fill="#c38a10" opacity="0.59"/>
<rect x="263.2" y="303.7" width="4" height="5" rx="0.5" fill="#166534" opacity="0.6"/>
<rect x="263.2" y="325.7" width="4" height="5" rx="0.5" fill="#166534" opacity="0.6"/>
<rect x="263.2" y="347.7" width="4" height="5" rx="0.5" fill="#166534" opacity="0.6"/>
<rect x="1059.9" y="348.5" width="19.1" height="51.5" rx="6.2" fill="#898671" opacity="0.64"/>
<rect x="915.4" y="330.7" width="41.4" height="69.3" rx="7.1" fill="#c78a09" opacity="0.76"/>
<rect x="688.6" y="321.7" width="30.0" height="78.3" rx="4.3" fill="#988758" opacity="0.81"/>
<rect x="548.5" y="316.5" width="28.7" height="83.5" rx="3.1" fill="#7d8687" opacity="0.60"/>
<line x1="477.8" y1="165.2" x2="509.4" y2="165.2" stroke="#ca8a04" stroke-width="1.4" opacity="0.43"/>
<line x1="0.8" y1="225.7" x2="41.0" y2="225.7" stroke="#ca8a04" stroke-width="2.6" opacity="0.37"/>
<rect width="1200" height="400" fill="url(#warm)"/>
<rect width="1200" height="400" fill="#166534" opacity="0.40"/>
</svg>