<svg xmlns="http://www.w3.org/2000/svg" viewBox="0 0 1200 300" width="1200" height="300">
<defs><linearGradient id="skyGrad" x1="0" y1="0" x2="0" y2="1"><stop offset="0%" stop-color="#e8f0f8"/><stop offset="100%" stop-color="#f5e6d8"/></linearGradient></defs><rect width="1200" height="300" fill="url(#skyGrad)"/>
<path d="M0 300 L0 195.3 C356.0 170.7, 928.4 182.8, 1200 195.3 L1200 300 Z" fill="#e4c4a8" opacity="0.25"/>
<rect x="233.8" y="230.4" width="57.8" height="69.6" fill="#daae87"/>
<rect x="870.1" y="203.7" width="59.0" height="96.3" fill="#daae87"/>
<rect x="306.0" y="214.0" width="69.0" height="86.0" fill="#c98951"/>
<polygon points="306.0,214.0 340.6,196.8 375.1,214.0" fill="#b97e4b"/>
<rect x="337.6" y="226.0" width="6" height="8" fill="#dcb28e" opacity="0.5"/>
<rect x="337.6" y="242.0" width="6" height="8" fill="#dcb28e" opacity="0.5"/>
<rect x="351.6" y="242.0" width="6" height="8" fill="#dcb28e" opacity="0.5"/>
<rect x="337.6" y="258.0" width="6" height="8" fill="#dcb28e" opacity="0.5"/>
<rect x="351.6" y="258.0" width="6" height="8" fill="#dcb28e" opacity="0.5"/>
<rect x="793.0" y="208.1" width="50.1" height="91.9" fill="#c98951"/>
<rect x="801.7" y="191.9" width="32.6" height="16.2" fill="#bf824d"/>
<rect x="808.0" y="203.9" width="6" height="8" fill="#dcb28e" opacity="0.5"/>
<rect x="822.0" y="203.9" width="6" height="8" fill="#dcb28e" opacity="0.5"/>
<rect x="808.0" y="219.9" width="6" height="8" fill="#dcb28e" opacity="0.5"/>
<rect x="808.0" y="235.9" width="6" height="8" fill="#dcb28e" opacity="0.5"/>
<rect x="808.0" y="267.9" width="6" height="8" fill="#dcb28e" opacity="0.5"/>
<rect x="237.2" y="252.0" width="34.6" height="48.0" fill="#bc6c25"/>
<rect x="243.2" y="243.5" width="22.5" height="8.5" fill="#b36723"/>
<rect x="527.2" y="247.3" width="64.7" height="52.7" fill="#bc6c25"/>
<rect x="938.3" y="254.1" width="38.7" height="45.9" fill="#bc6c25"/>
<rect x="945.1" y="246.0" width="25.2" height="8.1" fill="#b36723"/>
<path d="M399.5 285.0 Q423.8 261.4 416.5 237.9" fill="none" stroke="#806a4e" stroke-width="3"/>
<path d="M416.5 237.9 Q402.0 227.6 392.4 227.4" fill="none" stroke="#48883d" stroke-width="2.5"/>
<path d="M416.5 237.9 Q420.2 227.2 422.7 226.5" fill="none" stroke="#48883d" stroke-width="2.5"/>
<path d="M416.5 237.9 Q433.2 232.9 444.3 237.9" fill="none" stroke="#48883d" stroke-width="2.5"/>
<path d="M416.5 237.9 Q422.0 241.4 425.7 255.0" fill="none" stroke="#48883d" stroke-width="2.5"/>
<path d="M416.5 237.9 Q405.0 237.1 397.4 246.2" fill="none" stroke="#48883d" stroke-width="2.5"/>
<path d="M765.1 285.0 Q790.8 258.0 783.1 231.1" fill="none" stroke="#826b4f" stroke-width="3"/>
<path d="M783.1 231.1 Q771.8 222.0 764.3 222.9" fill="none" stroke="#44813a" stroke-width="2.5"/>
<path d="M783.1 231.1 Q787.2 219.8 789.9 218.5" fill="none" stroke="#44813a" stroke-width="2.5"/>
<path d="M783.1 231.1 Q795.9 226.1 804.4 231.1" fill="none" stroke="#44813a" stroke-width="2.5"/>
<path d="M783.1 231.1 Q787.3 232.6 790.1 244.1" fill="none" stroke="#44813a" stroke-width="2.5"/>
<path d="M783.1 231.1 Q770.5 230.6 762.1 240.2" fill="none" stroke="#44813a" stroke-width="2.5"/>
<path d="M474.1 285.0 Q492.2 257.2 486.8 229.3" fill="none" stroke="#856e51" stroke-width="3"/>
<path d="M486.8 229.3 Q474.3 219.8 466.0 220.2" fill="none" stroke="#47873d" stroke-width="2.5"/>
<path d="M486.8 229.3 Q490.6 218.4 493.2 217.5" fill="none" stroke="#47873d" stroke-width="2.5"/>
<path d="M486.8 229.3 Q502.5 224.3 513.0 229.3" fill="none" stroke="#47873d" stroke-width="2.5"/>
<path d="M486.8 229.3 Q491.1 231.0 494.0 242.7" fill="none" stroke="#47873d" stroke-width="2.5"/>
<path d="M486.8 229.3 Q473.4 229.2 464.4 239.1" fill="none" stroke="#47873d" stroke-width="2.5"/>
<path d="M697.7 285.0 Q717.7 255.8 711.7 226.7" fill="none" stroke="#7d674c" stroke-width="3"/>
<path d="M711.7 226.7 Q698.3 216.8 689.4 217.0" fill="none" stroke="#46843b" stroke-width="2.5"/>
<path d="M711.7 226.7 Q715.9 215.3 718.6 213.9" fill="none" stroke="#46843b" stroke-width="2.5"/>
<path d="M711.7 226.7 Q722.9 221.7 730.4 226.7" fill="none" stroke="#46843b" stroke-width="2.5"/>
<path d="M711.7 226.7 Q715.7 227.9 718.4 239.1" fill="none" stroke="#46843b" stroke-width="2.5"/>
<path d="M711.7 226.7 Q697.7 226.8 688.4 236.9" fill="none" stroke="#46843b" stroke-width="2.5"/>
<path d="M921.4 285.0 Q944.8 260.5 937.8 235.9" fill="none" stroke="#7c664c" stroke-width="3"/>
<path d="M937.8 235.9 Q927.1 227.1 920.0 228.2" fill="none" stroke="#47873d" stroke-width="2.5"/>
<path d="M937.8 235.9 Q942.1 224.3 945.0 222.6" fill="none" stroke="#47873d" stroke-width="2.5"/>
<path d="M937.8 235.9 Q949.4 230.9 957.1 235.9" fill="none" stroke="#47873d" stroke-width="2.5"/>
<path d="M937.8 235.9 Q941.7 237.0 944.3 248.1" fill="none" stroke="#47873d" stroke-width="2.5"/>
<path d="M937.8 235.9 Q926.1 235.2 918.4 244.4" fill="none" stroke="#47873d" stroke-width="2.5"/>
<path d="M853.1 285.0 Q871.7 256.2 866.1 227.4" fill="none" stroke="#786349" stroke-width="3"/>
<path d="M866.1 227.4 Q854.1 218.1 846.0 218.7" fill="none" stroke="#498a3e" stroke-width="2.5"/>
<path d="M866.1 227.4 Q871.3 214.5 874.7 211.6" fill="none" stroke="#498a3e" stroke-width="2.5"/>
<path d="M866.1 227.4 Q883.1 222.4 894.5 227.4" fill="none" stroke="#498a3e" stroke-width="2.5"/>
<path d="M866.1 227.4 Q871.4 230.6 874.9 243.7" fill="none" stroke="#498a3e" stroke-width="2.5"/>
<path d="M866.1 227.4 Q856.2 226.0 849.6 234.6" fill="none" stroke="#498a3e" stroke-width="2.5"/>
<path d="M92.5 285.0 Q119.3 256.4 111.3 227.8" fill="none" stroke="#7d674c" stroke-width="3"/>
<path d="M111.3 227.8 Q97.8 217.9 88.9 218.0" fill="none" stroke="#46843b" stroke-width="2.5"/>
<path d="M111.3 227.8 Q115.3 216.7 117.9 215.6" fill="none" stroke="#46843b" stroke-width="2.5"/>
<path d="M111.3 227.8 Q125.2 222.8 134.5 227.8" fill="none" stroke="#46843b" stroke-width="2.5"/>
<path d="M111.3 227.8 Q116.8 231.3 120.5 244.9" fill="none" stroke="#46843b" stroke-width="2.5"/>
<path d="M111.3 227.8 Q96.7 228.1 87.0 238.4" fill="none" stroke="#46843b" stroke-width="2.5"/>
<path d="M599.3 285.0 Q619.2 263.3 613.2 241.7" fill="none" stroke="#8b7355" stroke-width="3"/>
<path d="M613.2 241.7 Q603.7 233.2 597.3 234.8" fill="none" stroke="#498b3f" stroke-width="2.5"/>
<path d="M613.2 241.7 Q618.6 228.5 622.1 225.3" fill="none" stroke="#498b3f" stroke-width="2.5"/>
<path d="M613.2 241.7 Q631.1 236.7 643.0 241.7" fill="none" stroke="#498b3f" stroke-width="2.5"/>
<path d="M613.2 241.7 Q617.0 242.5 619.5 253.3" fill="none" stroke="#498b3f" stroke-width="2.5"/>
<path d="M613.2 241.7 Q599.7 241.6 590.7 251.5" fill="none" stroke="#498b3f" stroke-width="2.5"/>
<rect x="0" y="285" width="1200" height="15" fill="#9aaa85" opacity="0.4"/>
<circle cx="1062.2" cy="32.8" r="31.4" fill="#f5e6a0" opacity="0.1"/>
</svg>