<svg xmlns="http://www.w3.org/2000/svg" viewBox="0 0 1200 300" width="1200" height="300">
<defs>
<linearGradient id="skyGrad" x1="0" y1="0" x2="0" y2="1">
<stop offset="0%" stop-color="#a78bfa"/>
<stop offset="18%" stop-color="#ddb4f0"/>
<stop offset="35%" stop-color="#fda4af"/>
<stop offset="52%" stop-color="#fdba74"/>
<stop offset="72%" stop-color="#fef08a"/>
<stop offset="100%" stop-color="#fef9c3"/>
</linearGradient>
<linearGradient id="bldg_coral" x1="0" y1="0" x2="0" y2="1"><stop offset="0%" stop-color="#fecaca"/><stop offset="100%" stop-color="#fca5a5"/></linearGradient>
<linearGradient id="bldg_teal" x1="0" y1="0" x2="0" y2="1"><stop offset="0%" stop-color="#99f6e4"/><stop offset="100%" stop-color="#5eead4"/></linearGradient>
<linearGradient id="bldg_amber" x1="0" y1="0" x2="0" y2="1"><stop offset="0%" stop-color="#fde68a"/><stop offset="100%" stop-color="#fcd34d"/></linearGradient>
<linearGradient id="bldg_lavender" x1="0" y1="0" x2="0" y2="1"><stop offset="0%" stop-color="#ddd6fe"/><stop offset="100%" stop-color="#c4b5fd"/></linearGradient>
<linearGradient id="bldg_blue" x1="0" y1="0" x2="0" y2="1"><stop offset="0%" stop-color="#bfdbfe"/><stop offset="100%" stop-color="#93c5fd"/></linearGradient>
<linearGradient id="bldg_mint" x1="0" y1="0" x2="0" y2="1"><stop offset="0%" stop-color="#a7f3d0"/><stop offset="100%" stop-color="#6ee7b7"/></linearGradient>
<linearGradient id="bldg_rose" x1="0" y1="0" x2="0" y2="1"><stop offset="0%" stop-color="#fecdd3"/><stop offset="100%" stop-color="#fda4af"/></linearGradient>
<linearGradient id="bldg_sky" x1="0" y1="0" x2="0" y2="1"><stop offset="0%" stop-color="#bae6fd"/><stop offset="100%" stop-color="#7dd3fc"/></linearGradient>
<linearGradient id="roof_navyRoof" x1="0" y1="0" x2="0" y2="1"><stop offset="0%" stop-color="#4338ca"/><stop offset="100%" stop-color="#3730a3"/></linearGradient>
<linearGradient id="roof_coralRoof" x1="0" y1="0" x2="0" y2="1"><stop offset="0%" stop-color="#f87171"/><stop offset="100%" stop-color="#ef4444"/></linearGradient>
<linearGradient id="roof_tealRoof" x1="0" y1="0" x2="0" y2="1"><stop offset="0%" stop-color="#2dd4bf"/><stop offset="100%" stop-color="#14b8a6"/></linearGradient>
<radialGradient id="windowGlow" cx="50%" cy="50%" r="50%"><stop offset="0%" stop-color="#fef08a"/><stop offset="60%" stop-color="#fbbf24"/><stop offset="100%" stop-color="#f59e0b"/></radialGradient>
<linearGradient id="hillFar" x1="0" y1="0" x2="0" y2="1"><stop offset="0%" stop-color="#c4b5fd"/><stop offset="100%" stop-color="#a5b4fc"/></linearGradient>
<linearGradient id="hillMid" x1="0" y1="0" x2="0" y2="1"><stop offset="0%" stop-color="#86efac"/><stop offset="100%" stop-color="#4ade80"/></linearGradient>
<linearGradient id="hillNear" x1="0" y1="0" x2="0" y2="1"><stop offset="0%" stop-color="#34d399"/><stop offset="100%" stop-color="#10b981"/></linearGradient>
<linearGradient id="hillDesertFar" x1="0" y1="0" x2="0" y2="1"><stop offset="0%" stop-color="#fde68a"/><stop offset="100%" stop-color="#fcd34d"/></linearGradient>
<linearGradient id="hillDesertMid" x1="0" y1="0" x2="0" y2="1"><stop offset="0%" stop-color="#fcd34d"/><stop offset="100%" stop-color="#fbbf24"/></linearGradient>
<linearGradient id="hillDesertNear" x1="0" y1="0" x2="0" y2="1"><stop offset="0%" stop-color="#fbbf24"/><stop offset="100%" stop-color="#f59e0b"/></linearGradient>
<linearGradient id="groundGrad" x1="0" y1="0" x2="0" y2="1"><stop offset="0%" stop-color="#fef3c7"/><stop offset="100%" stop-color="#fde68a"/></linearGradient>
<linearGradient id="waterGrad" x1="0" y1="0" x2="0" y2="1"><stop offset="0%" stop-color="#bfdbfe"/><stop offset="100%" stop-color="#93c5fd"/></linearGradient>
<filter id="softGlow" x="-50%" y="-50%" width="200%" height="200%"><feGaussianBlur in="SourceGraphic" stdDeviation="12"/></filter>
</defs>
<rect width="1200" height="300" fill="url(#skyGrad)"/>
<circle cx="990.8" cy="57.5" r="45" fill="#fef08a" opacity="0.12" filter="url(#softGlow)"/>
<circle cx="990.8" cy="57.5" r="30" fill="#fde68a" opacity="0.18" filter="url(#softGlow)"/>
<circle cx="990.8" cy="57.5" r="16" fill="#fef9c3" opacity="0.25" filter="url(#softGlow)"/>
<path d="M0 300 L0.0 189.9 C206.9 189.9, 206.9 187.6, 413.7 187.6 C654.5 187.6, 654.5 191.6, 895.2 191.6 C1047.6 191.6, 1047.6 184.1, 1200.0 184.1 L1200 300 Z" fill="url(#hillFar)" opacity="0.5"/>
<path d="M0 300 L0.0 217.1 C178.4 217.1, 178.4 215.5, 356.8 215.5 C557.9 215.5, 557.9 213.4, 759.0 213.4 C979.5 213.4, 979.5 207.6, 1200.0 207.6 L1200 300 Z" fill="url(#hillMid)" opacity="0.7"/>
<path d="M0 300 L0.0 235.5 C206.6 235.5, 206.6 233.7, 413.1 233.7 C635.5 233.7, 635.5 234.5, 857.9 234.5 C1029.0 234.5, 1029.0 231.1, 1200.0 231.1 L1200 300 Z" fill="url(#hillNear)" opacity="1"/>
<rect x="221.4" y="264.0" width="83.7" height="36.0" rx="3" fill="url(#bldg_lavender)" opacity="0.7"/>
<polygon points="221.4,264.0 263.3,245.5 305.1,264.0" fill="url(#roof_navyRoof)" opacity="0.7"/>
<rect x="860.5" y="246.5" width="64.8" height="53.5" rx="3" fill="url(#bldg_blue)" opacity="0.7"/>
<rect x="873.4" y="240.1" width="38.9" height="6.4" rx="2" fill="url(#roof_coralRoof)" opacity="0.7"/>
<rect x="875.9" y="256.5" width="6" height="8" rx="1" fill="url(#windowGlow)" opacity="0.7601573423762606"/>
<rect x="889.9" y="256.5" width="6" height="8" rx="1" fill="url(#windowGlow)" opacity="0.9793310349245234"/>
<rect x="903.9" y="256.5" width="6" height="8" rx="1" fill="url(#windowGlow)" opacity="0.8893586918662109"/>
<rect x="334.4" y="210.6" width="40.6" height="89.4" rx="3" fill="url(#bldg_mint)" opacity="0.85"/>
<polygon points="334.4,210.6 354.6,199.1 374.9,210.6" fill="url(#roof_tealRoof)" opacity="0.85"/>
<rect x="351.6" y="220.6" width="6" height="8" rx="1" fill="url(#windowGlow)" opacity="0.9924131257889852"/>
<rect x="351.6" y="235.6" width="6" height="8" rx="1" fill="url(#windowGlow)" opacity="0.9658371151731522"/>
<rect x="351.6" y="250.6" width="6" height="8" rx="1" fill="url(#windowGlow)" opacity="0.8549712311266787"/>
<rect x="859.0" y="222.1" width="78.1" height="77.9" rx="3" fill="url(#bldg_rose)" opacity="0.85"/>
<polygon points="859.0,222.1 898.1,205.6 937.1,222.1" fill="url(#roof_navyRoof)" opacity="0.85"/>
<rect x="874.1" y="232.1" width="6" height="8" rx="1" fill="url(#windowGlow)" opacity="0.7949733260995584"/>
<rect x="902.1" y="232.1" width="6" height="8" rx="1" fill="url(#windowGlow)" opacity="0.7799262381530955"/>
<rect x="916.1" y="232.1" width="6" height="8" rx="1" fill="url(#windowGlow)" opacity="0.8717020700553907"/>
<rect x="888.1" y="247.1" width="6" height="8" rx="1" fill="url(#windowGlow)" opacity="0.9476302609535074"/>
<rect x="902.1" y="247.1" width="6" height="8" rx="1" fill="url(#windowGlow)" opacity="0.8309490895974212"/>
<rect x="916.1" y="247.1" width="6" height="8" rx="1" fill="url(#windowGlow)" opacity="0.8478709688633079"/>
<rect x="619.8" y="258.3" width="65.0" height="41.7" rx="3" fill="url(#bldg_sky)" opacity="1"/>
<polygon points="619.8,258.3 652.3,240.5 684.8,258.3" fill="url(#roof_coralRoof)" opacity="1"/>
<rect x="635.3" y="268.3" width="6" height="8" rx="1" fill="url(#windowGlow)" opacity="0.8433469225388703"/>
<rect x="649.3" y="268.3" width="6" height="8" rx="1" fill="url(#windowGlow)" opacity="0.9672615439012933"/>
<rect x="663.3" y="268.3" width="6" height="8" rx="1" fill="url(#windowGlow)" opacity="0.9341282787891702"/>
<path d="M626.3 272.9 L652.3 272.9 L649.3 278.9 L629.3 278.9 Z" fill="url(#roof_navyRoof)" opacity="0.8"/>
<path d="M590.5 285.0 Q604.2 257.2 598.7 229.4" stroke="#92400e" stroke-width="4" fill="none" stroke-linecap="round"/>
<path d="M598.7 229.4 Q587.7 218.8 580.4 219.3" stroke="#16a34a" stroke-width="2.5" fill="none" stroke-linecap="round"/>
<path d="M598.7 229.4 Q604.1 217.9 607.8 217.4" stroke="#22c55e" stroke-width="2.5" fill="none" stroke-linecap="round"/>
<path d="M598.7 229.4 Q612.9 223.4 622.4 229.4" stroke="#15803d" stroke-width="2.5" fill="none" stroke-linecap="round"/>
<path d="M598.7 229.4 Q603.7 228.4 607.0 240.3" stroke="#4ade80" stroke-width="2.5" fill="none" stroke-linecap="round"/>
<path d="M598.7 229.4 Q590.1 226.9 584.4 237.2" stroke="#16a34a" stroke-width="2.5" fill="none" stroke-linecap="round"/>
<path d="M718.3 285.0 Q735.0 256.5 728.3 228.0" stroke="#92400e" stroke-width="4" fill="none" stroke-linecap="round"/>
<path d="M728.3 228.0 Q716.3 217.0 708.2 216.9" stroke="#16a34a" stroke-width="2.5" fill="none" stroke-linecap="round"/>
<path d="M728.3 228.0 Q735.4 214.8 740.2 212.2" stroke="#22c55e" stroke-width="2.5" fill="none" stroke-linecap="round"/>
<path d="M728.3 228.0 Q742.6 222.0 752.1 228.0" stroke="#15803d" stroke-width="2.5" fill="none" stroke-linecap="round"/>
<path d="M728.3 228.0 Q735.9 229.7 741.0 244.9" stroke="#4ade80" stroke-width="2.5" fill="none" stroke-linecap="round"/>
<path d="M728.3 228.0 Q717.2 226.6 709.8 238.1" stroke="#16a34a" stroke-width="2.5" fill="none" stroke-linecap="round"/>
<path d="M698.9 285.0 Q721.0 257.8 712.2 230.7" stroke="#92400e" stroke-width="4" fill="none" stroke-linecap="round"/>
<path d="M712.2 230.7 Q699.6 219.4 691.3 219.2" stroke="#16a34a" stroke-width="2.5" fill="none" stroke-linecap="round"/>
<path d="M712.2 230.7 Q718.9 218.0 723.3 215.9" stroke="#22c55e" stroke-width="2.5" fill="none" stroke-linecap="round"/>
<path d="M712.2 230.7 Q729.0 224.7 740.3 230.7" stroke="#15803d" stroke-width="2.5" fill="none" stroke-linecap="round"/>
<path d="M712.2 230.7 Q719.3 231.9 724.1 246.5" stroke="#4ade80" stroke-width="2.5" fill="none" stroke-linecap="round"/>
<path d="M712.2 230.7 Q699.1 230.1 690.4 242.6" stroke="#16a34a" stroke-width="2.5" fill="none" stroke-linecap="round"/>
<path d="M678.1 285.0 Q690.4 260.0 685.5 235.0" stroke="#92400e" stroke-width="4" fill="none" stroke-linecap="round"/>
<path d="M685.5 235.0 Q674.9 224.6 667.9 225.3" stroke="#16a34a" stroke-width="2.5" fill="none" stroke-linecap="round"/>
<path d="M685.5 235.0 Q690.8 223.7 694.3 223.2" stroke="#22c55e" stroke-width="2.5" fill="none" stroke-linecap="round"/>
<path d="M685.5 235.0 Q701.6 229.0 712.4 235.0" stroke="#15803d" stroke-width="2.5" fill="none" stroke-linecap="round"/>
<path d="M685.5 235.0 Q690.4 233.9 693.7 245.9" stroke="#4ade80" stroke-width="2.5" fill="none" stroke-linecap="round"/>
<path d="M685.5 235.0 Q674.3 233.7 666.8 245.3" stroke="#16a34a" stroke-width="2.5" fill="none" stroke-linecap="round"/>
<path d="M686.9 285.0 Q700.5 262.1 695.1 239.3" stroke="#92400e" stroke-width="4" fill="none" stroke-linecap="round"/>
<path d="M695.1 239.3 Q681.4 227.6 672.3 226.8" stroke="#16a34a" stroke-width="2.5" fill="none" stroke-linecap="round"/>
<path d="M695.1 239.3 Q702.1 226.2 706.8 223.7" stroke="#22c55e" stroke-width="2.5" fill="none" stroke-linecap="round"/>
<path d="M695.1 239.3 Q707.3 233.3 715.4 239.3" stroke="#15803d" stroke-width="2.5" fill="none" stroke-linecap="round"/>
<path d="M695.1 239.3 Q700.1 238.4 703.4 250.4" stroke="#4ade80" stroke-width="2.5" fill="none" stroke-linecap="round"/>
<path d="M695.1 239.3 Q685.3 237.4 678.7 248.3" stroke="#16a34a" stroke-width="2.5" fill="none" stroke-linecap="round"/>
<path d="M741.0 285.0 Q761.0 258.3 753.0 231.6" stroke="#92400e" stroke-width="4" fill="none" stroke-linecap="round"/>
<path d="M753.0 231.6 Q739.5 219.9 730.5 219.2" stroke="#16a34a" stroke-width="2.5" fill="none" stroke-linecap="round"/>
<path d="M753.0 231.6 Q758.0 220.6 761.2 220.6" stroke="#22c55e" stroke-width="2.5" fill="none" stroke-linecap="round"/>
<path d="M753.0 231.6 Q772.0 225.6 784.6 231.6" stroke="#15803d" stroke-width="2.5" fill="none" stroke-linecap="round"/>
<path d="M753.0 231.6 Q758.0 230.5 761.3 242.5" stroke="#4ade80" stroke-width="2.5" fill="none" stroke-linecap="round"/>
<path d="M753.0 231.6 Q743.2 229.7 736.6 240.6" stroke="#16a34a" stroke-width="2.5" fill="none" stroke-linecap="round"/>
<path d="M336.4 285.0 Q364.1 257.8 353.0 230.7" stroke="#92400e" stroke-width="4" fill="none" stroke-linecap="round"/>
<path d="M353.0 230.7 Q342.5 220.3 335.5 221.1" stroke="#16a34a" stroke-width="2.5" fill="none" stroke-linecap="round"/>
<path d="M353.0 230.7 Q357.6 220.0 360.7 220.4" stroke="#22c55e" stroke-width="2.5" fill="none" stroke-linecap="round"/>
<path d="M353.0 230.7 Q369.2 224.7 379.9 230.7" stroke="#15803d" stroke-width="2.5" fill="none" stroke-linecap="round"/>
<path d="M353.0 230.7 Q359.4 231.2 363.7 244.9" stroke="#4ade80" stroke-width="2.5" fill="none" stroke-linecap="round"/>
<path d="M353.0 230.7 Q341.0 229.7 333.1 241.7" stroke="#16a34a" stroke-width="2.5" fill="none" stroke-linecap="round"/>
<path d="M275.6 285.0 Q302.8 257.8 291.9 230.7" stroke="#92400e" stroke-width="4" fill="none" stroke-linecap="round"/>
<path d="M291.9 230.7 Q280.6 220.0 273.1 220.3" stroke="#16a34a" stroke-width="2.5" fill="none" stroke-linecap="round"/>
<path d="M291.9 230.7 Q299.2 217.4 304.0 214.7" stroke="#22c55e" stroke-width="2.5" fill="none" stroke-linecap="round"/>
<path d="M291.9 230.7 Q312.2 224.7 325.8 230.7" stroke="#15803d" stroke-width="2.5" fill="none" stroke-linecap="round"/>
<path d="M291.9 230.7 Q296.6 229.4 299.8 241.1" stroke="#4ade80" stroke-width="2.5" fill="none" stroke-linecap="round"/>
<path d="M291.9 230.7 Q281.2 229.2 274.0 240.5" stroke="#16a34a" stroke-width="2.5" fill="none" stroke-linecap="round"/>
<rect x="0" y="282" width="1200" height="18" fill="url(#groundGrad)"/>
</svg>