<svg xmlns="http://www.w3.org/2000/svg" viewBox="0 0 1200 300" width="1200" height="300">
<rect width="1200" height="300" fill="#e0eff2"/>
<path d="M0 300 L0 210.0 C340.3 171.8, 783.1 199.9, 1200 210.0 L1200 300 Z" fill="#aac2c9" opacity="0.3"/>
<rect x="330.5" y="232.6" width="40.8" height="67.4" fill="#8aabb4"/>
<rect x="842.8" y="232.0" width="62.3" height="68.0" fill="#8aabb4"/>
<rect x="150.0" y="229.6" width="77.0" height="70.4" fill="#558592"/>
<rect x="178.5" y="241.6" width="6" height="8" fill="#91b0b8" opacity="0.5"/>
<rect x="192.5" y="241.6" width="6" height="8" fill="#91b0b8" opacity="0.5"/>
<rect x="206.5" y="241.6" width="6" height="8" fill="#91b0b8" opacity="0.5"/>
<rect x="206.5" y="257.6" width="6" height="8" fill="#91b0b8" opacity="0.5"/>
<rect x="164.5" y="273.6" width="6" height="8" fill="#91b0b8" opacity="0.5"/>
<rect x="178.5" y="273.6" width="6" height="8" fill="#91b0b8" opacity="0.5"/>
<rect x="192.5" y="273.6" width="6" height="8" fill="#91b0b8" opacity="0.5"/>
<rect x="592.5" y="217.2" width="49.3" height="82.8" fill="#558592"/>
<rect x="607.2" y="229.2" width="6" height="8" fill="#91b0b8" opacity="0.5"/>
<rect x="621.2" y="229.2" width="6" height="8" fill="#91b0b8" opacity="0.5"/>
<rect x="607.2" y="245.2" width="6" height="8" fill="#91b0b8" opacity="0.5"/>
<rect x="607.2" y="261.2" width="6" height="8" fill="#91b0b8" opacity="0.5"/>
<rect x="621.2" y="261.2" width="6" height="8" fill="#91b0b8" opacity="0.5"/>
<rect x="923.8" y="231.9" width="66.5" height="68.1" fill="#558592"/>
<rect x="940.1" y="243.9" width="6" height="8" fill="#91b0b8" opacity="0.5"/>
<rect x="954.1" y="243.9" width="6" height="8" fill="#91b0b8" opacity="0.5"/>
<rect x="968.1" y="243.9" width="6" height="8" fill="#91b0b8" opacity="0.5"/>
<rect x="940.1" y="259.9" width="6" height="8" fill="#91b0b8" opacity="0.5"/>
<rect x="954.1" y="259.9" width="6" height="8" fill="#91b0b8" opacity="0.5"/>
<rect x="968.1" y="259.9" width="6" height="8" fill="#91b0b8" opacity="0.5"/>
<rect x="203.4" y="213.3" width="68.2" height="86.7" fill="#2b6777"/>
<rect x="248.5" y="225.3" width="6" height="8" fill="#759ca7" opacity="0.5"/>
<rect x="234.5" y="241.3" width="6" height="8" fill="#759ca7" opacity="0.5"/>
<rect x="248.5" y="241.3" width="6" height="8" fill="#759ca7" opacity="0.5"/>
<rect x="220.5" y="257.3" width="6" height="8" fill="#759ca7" opacity="0.5"/>
<rect x="234.5" y="257.3" width="6" height="8" fill="#759ca7" opacity="0.5"/>
<rect x="220.5" y="273.3" width="6" height="8" fill="#759ca7" opacity="0.5"/>
<rect x="234.5" y="273.3" width="6" height="8" fill="#759ca7" opacity="0.5"/>
<rect x="248.5" y="273.3" width="6" height="8" fill="#759ca7" opacity="0.5"/>
<rect x="604.7" y="175.5" width="48.9" height="124.5" fill="#2b6777"/>
<rect x="619.2" y="187.5" width="6" height="8" fill="#759ca7" opacity="0.5"/>
<rect x="633.2" y="187.5" width="6" height="8" fill="#759ca7" opacity="0.5"/>
<rect x="619.2" y="203.5" width="6" height="8" fill="#759ca7" opacity="0.5"/>
<rect x="633.2" y="203.5" width="6" height="8" fill="#759ca7" opacity="0.5"/>
<rect x="619.2" y="219.5" width="6" height="8" fill="#759ca7" opacity="0.5"/>
<rect x="633.2" y="219.5" width="6" height="8" fill="#759ca7" opacity="0.5"/>
<rect x="619.2" y="235.5" width="6" height="8" fill="#759ca7" opacity="0.5"/>
<rect x="633.2" y="235.5" width="6" height="8" fill="#759ca7" opacity="0.5"/>
<rect x="619.2" y="251.5" width="6" height="8" fill="#759ca7" opacity="0.5"/>
<rect x="633.2" y="251.5" width="6" height="8" fill="#759ca7" opacity="0.5"/>
<rect x="619.2" y="267.5" width="6" height="8" fill="#759ca7" opacity="0.5"/>
<rect x="633.2" y="267.5" width="6" height="8" fill="#759ca7" opacity="0.5"/>
<rect x="907.7" y="198.2" width="51.8" height="101.8" fill="#2b6777"/>
<rect x="923.5" y="210.2" width="6" height="8" fill="#759ca7" opacity="0.5"/>
<rect x="937.5" y="210.2" width="6" height="8" fill="#759ca7" opacity="0.5"/>
<rect x="923.5" y="226.2" width="6" height="8" fill="#759ca7" opacity="0.5"/>
<rect x="937.5" y="226.2" width="6" height="8" fill="#759ca7" opacity="0.5"/>
<rect x="923.5" y="242.2" width="6" height="8" fill="#759ca7" opacity="0.5"/>
<rect x="937.5" y="242.2" width="6" height="8" fill="#759ca7" opacity="0.5"/>
<rect x="923.5" y="258.2" width="6" height="8" fill="#759ca7" opacity="0.5"/>
<rect x="937.5" y="258.2" width="6" height="8" fill="#759ca7" opacity="0.5"/>
<rect x="0" y="298" width="1200" height="2" fill="#275d6b" opacity="0.15"/>
</svg>