<svg xmlns="http://www.w3.org/2000/svg" viewBox="0 0 1200 300" width="1200" height="300">
<defs><linearGradient id="skyGrad" x1="0" y1="0" x2="0" y2="1"><stop offset="0%" stop-color="#e8f0f8"/><stop offset="100%" stop-color="#f5e6d8"/></linearGradient></defs><rect width="1200" height="300" fill="url(#skyGrad)"/>
<rect x="308.5" y="254.3" width="70.3" height="45.7" fill="#8aabb4"/>
<rect x="782.2" y="230.1" width="40.3" height="69.9" fill="#8aabb4"/>
<rect x="789.2" y="217.7" width="26.2" height="12.3" fill="#83a2ab"/>
<rect x="186.8" y="210.6" width="54.2" height="89.4" fill="#558592"/>
<polygon points="186.8,210.6 213.9,197.1 241.0,210.6" fill="#4e7a86"/>
<rect x="203.9" y="222.6" width="6" height="8" fill="#91b0b8" opacity="0.5"/>
<rect x="203.9" y="238.6" width="6" height="8" fill="#91b0b8" opacity="0.5"/>
<rect x="217.9" y="238.6" width="6" height="8" fill="#91b0b8" opacity="0.5"/>
<rect x="203.9" y="254.6" width="6" height="8" fill="#91b0b8" opacity="0.5"/>
<rect x="622.0" y="224.9" width="54.7" height="75.1" fill="#558592"/>
<rect x="639.4" y="236.9" width="6" height="8" fill="#91b0b8" opacity="0.5"/>
<rect x="653.4" y="236.9" width="6" height="8" fill="#91b0b8" opacity="0.5"/>
<rect x="639.4" y="252.9" width="6" height="8" fill="#91b0b8" opacity="0.5"/>
<rect x="639.4" y="268.9" width="6" height="8" fill="#91b0b8" opacity="0.5"/>
<rect x="653.4" y="268.9" width="6" height="8" fill="#91b0b8" opacity="0.5"/>
<rect x="938.2" y="211.7" width="42.0" height="88.3" fill="#558592"/>
<rect x="945.5" y="196.1" width="27.3" height="15.6" fill="#517e8b"/>
<rect x="956.2" y="224.1" width="6" height="8" fill="#91b0b8" opacity="0.5"/>
<rect x="956.2" y="256.1" width="6" height="8" fill="#91b0b8" opacity="0.5"/>
<rect x="956.2" y="272.1" width="6" height="8" fill="#91b0b8" opacity="0.5"/>
<rect x="220.3" y="228.9" width="45.2" height="71.1" fill="#2b6777"/>
<rect x="232.9" y="240.9" width="6" height="8" fill="#759ca7" opacity="0.5"/>
<rect x="246.9" y="240.9" width="6" height="8" fill="#759ca7" opacity="0.5"/>
<rect x="232.9" y="256.9" width="6" height="8" fill="#759ca7" opacity="0.5"/>
<rect x="246.9" y="272.9" width="6" height="8" fill="#759ca7" opacity="0.5"/>
<rect x="622.0" y="189.0" width="35.4" height="111.0" fill="#2b6777"/>
<polygon points="622.0,189.0 639.7,180.1 657.4,189.0" fill="#285f6d"/>
<rect x="636.7" y="201.0" width="6" height="8" fill="#759ca7" opacity="0.5"/>
<rect x="636.7" y="217.0" width="6" height="8" fill="#759ca7" opacity="0.5"/>
<rect x="636.7" y="249.0" width="6" height="8" fill="#759ca7" opacity="0.5"/>
<rect x="946.0" y="177.5" width="49.7" height="122.5" fill="#2b6777"/>
<rect x="960.9" y="189.5" width="6" height="8" fill="#759ca7" opacity="0.5"/>
<rect x="974.9" y="189.5" width="6" height="8" fill="#759ca7" opacity="0.5"/>
<rect x="960.9" y="205.5" width="6" height="8" fill="#759ca7" opacity="0.5"/>
<rect x="974.9" y="205.5" width="6" height="8" fill="#759ca7" opacity="0.5"/>
<rect x="960.9" y="221.5" width="6" height="8" fill="#759ca7" opacity="0.5"/>
<rect x="974.9" y="221.5" width="6" height="8" fill="#759ca7" opacity="0.5"/>
<rect x="960.9" y="237.5" width="6" height="8" fill="#759ca7" opacity="0.5"/>
<rect x="974.9" y="237.5" width="6" height="8" fill="#759ca7" opacity="0.5"/>
<rect x="960.9" y="253.5" width="6" height="8" fill="#759ca7" opacity="0.5"/>
<rect x="974.9" y="253.5" width="6" height="8" fill="#759ca7" opacity="0.5"/>
<rect x="974.9" y="269.5" width="6" height="8" fill="#759ca7" opacity="0.5"/>
<path d="M443.8 285.0 Q469.3 258.1 461.6 231.3" fill="none" stroke="#7b664b" stroke-width="3"/>
<path d="M461.6 231.3 Q452.5 223.0 446.3 224.6" fill="none" stroke="#48883d" stroke-width="2.5"/>
<path d="M461.6 231.3 Q465.4 220.4 468.0 219.6" fill="none" stroke="#48883d" stroke-width="2.5"/>
<path d="M461.6 231.3 Q475.1 226.3 484.0 231.3" fill="none" stroke="#48883d" stroke-width="2.5"/>
<path d="M461.6 231.3 Q467.0 234.6 470.6 247.8" fill="none" stroke="#48883d" stroke-width="2.5"/>
<path d="M461.6 231.3 Q449.5 230.7 441.4 240.1" fill="none" stroke="#48883d" stroke-width="2.5"/>
<path d="M801.7 285.0 Q827.7 255.0 819.9 225.0" fill="none" stroke="#806a4e" stroke-width="3"/>
<path d="M819.9 225.0 Q808.5 215.9 800.8 216.7" fill="none" stroke="#48893d" stroke-width="2.5"/>
<path d="M819.9 225.0 Q824.8 212.6 828.0 210.1" fill="none" stroke="#48893d" stroke-width="2.5"/>
<path d="M819.9 225.0 Q835.7 220.0 846.3 225.0" fill="none" stroke="#48893d" stroke-width="2.5"/>
<path d="M819.9 225.0 Q824.6 227.3 827.8 239.5" fill="none" stroke="#48893d" stroke-width="2.5"/>
<path d="M819.9 225.0 Q809.8 223.7 803.1 232.4" fill="none" stroke="#48893d" stroke-width="2.5"/>
<path d="M696.3 285.0 Q722.5 259.4 714.7 233.7" fill="none" stroke="#826b4f" stroke-width="3"/>
<path d="M714.7 233.7 Q700.5 223.6 691.1 223.5" fill="none" stroke="#47873d" stroke-width="2.5"/>
<path d="M714.7 233.7 Q720.0 220.5 723.6 217.3" fill="none" stroke="#47873d" stroke-width="2.5"/>
<path d="M714.7 233.7 Q730.6 228.7 741.1 233.7" fill="none" stroke="#47873d" stroke-width="2.5"/>
<path d="M714.7 233.7 Q718.9 235.2 721.7 246.7" fill="none" stroke="#47873d" stroke-width="2.5"/>
<path d="M714.7 233.7 Q704.3 232.5 697.3 241.3" fill="none" stroke="#47873d" stroke-width="2.5"/>
<path d="M670.5 285.0 Q697.9 258.0 689.7 231.0" fill="none" stroke="#897254" stroke-width="3"/>
<path d="M689.7 231.0 Q678.1 221.8 670.4 222.6" fill="none" stroke="#45833b" stroke-width="2.5"/>
<path d="M689.7 231.0 Q693.1 220.8 695.4 220.6" fill="none" stroke="#45833b" stroke-width="2.5"/>
<path d="M689.7 231.0 Q707.2 226.0 718.9 231.0" fill="none" stroke="#45833b" stroke-width="2.5"/>
<path d="M689.7 231.0 Q693.4 231.8 695.9 242.6" fill="none" stroke="#45833b" stroke-width="2.5"/>
<path d="M689.7 231.0 Q678.9 230.0 671.7 238.9" fill="none" stroke="#45833b" stroke-width="2.5"/>
<path d="M694.4 285.0 Q722.7 258.4 714.2 231.8" fill="none" stroke="#806a4f" stroke-width="3"/>
<path d="M714.2 231.8 Q702.3 222.5 694.3 223.1" fill="none" stroke="#498a3e" stroke-width="2.5"/>
<path d="M714.2 231.8 Q717.6 221.5 719.9 221.3" fill="none" stroke="#498a3e" stroke-width="2.5"/>
<path d="M714.2 231.8 Q731.4 226.8 742.8 231.8" fill="none" stroke="#498a3e" stroke-width="2.5"/>
<path d="M714.2 231.8 Q719.7 235.3 723.4 248.7" fill="none" stroke="#498a3e" stroke-width="2.5"/>
<path d="M714.2 231.8 Q704.9 230.2 698.7 238.5" fill="none" stroke="#498a3e" stroke-width="2.5"/>
<path d="M470.3 285.0 Q491.9 259.7 485.4 234.5" fill="none" stroke="#786349" stroke-width="3"/>
<path d="M485.4 234.5 Q472.2 224.7 463.3 224.8" fill="none" stroke="#49893e" stroke-width="2.5"/>
<path d="M485.4 234.5 Q488.8 224.2 491.1 224.0" fill="none" stroke="#49893e" stroke-width="2.5"/>
<path d="M485.4 234.5 Q498.3 229.5 506.9 234.5" fill="none" stroke="#49893e" stroke-width="2.5"/>
<path d="M485.4 234.5 Q490.3 237.0 493.6 249.6" fill="none" stroke="#49893e" stroke-width="2.5"/>
<path d="M485.4 234.5 Q473.8 233.7 466.0 242.9" fill="none" stroke="#49893e" stroke-width="2.5"/>
<path d="M977.6 285.0 Q992.9 255.9 988.3 226.7" fill="none" stroke="#7e684d" stroke-width="3"/>
<path d="M988.3 226.7 Q975.7 217.1 967.2 217.6" fill="none" stroke="#45833b" stroke-width="2.5"/>
<path d="M988.3 226.7 Q993.5 213.7 996.9 210.8" fill="none" stroke="#45833b" stroke-width="2.5"/>
<path d="M988.3 226.7 Q1003.3 221.7 1013.3 226.7" fill="none" stroke="#45833b" stroke-width="2.5"/>
<path d="M988.3 226.7 Q992.8 228.7 995.9 240.7" fill="none" stroke="#45833b" stroke-width="2.5"/>
<path d="M988.3 226.7 Q978.5 225.3 972.0 233.9" fill="none" stroke="#45833b" stroke-width="2.5"/>
<rect x="0" y="285" width="1200" height="15" fill="#d4c5a9" opacity="0.4"/>
<circle cx="1055.9" cy="42.1" r="38.7" fill="#f5e6a0" opacity="0.1"/>
</svg>