<svg xmlns="http://www.w3.org/2000/svg" viewBox="0 0 1200 300" width="1200" height="300">
<defs><linearGradient id="skyGrad" x1="0" y1="0" x2="0" y2="1"><stop offset="0%" stop-color="#e8f0f8"/><stop offset="100%" stop-color="#f5e6d8"/></linearGradient></defs><rect width="1200" height="300" fill="url(#skyGrad)"/>
<rect x="221.8" y="267.1" width="54.8" height="32.9" fill="#8aabb4"/>
<rect x="918.3" y="250.1" width="60.8" height="49.9" fill="#8aabb4"/>
<rect x="221.0" y="246.6" width="57.8" height="53.4" fill="#558592"/>
<rect x="799.0" y="262.9" width="67.4" height="37.1" fill="#558592"/>
<rect x="810.8" y="256.4" width="43.8" height="6.5" fill="#517e8b"/>
<rect x="706.9" y="215.7" width="36.2" height="84.3" fill="#2b6777"/>
<polygon points="706.9,215.7 725.0,206.6 743.2,215.7" fill="#285f6d"/>
<rect x="722.0" y="227.7" width="6" height="8" fill="#759ca7" opacity="0.5"/>
<path d="M340.8 285.0 Q366.9 260.2 359.1 235.5" fill="none" stroke="#766248" stroke-width="3"/>
<path d="M359.1 235.5 Q349.6 227.0 343.2 228.5" fill="none" stroke="#49893e" stroke-width="2.5"/>
<path d="M359.1 235.5 Q364.3 222.4 367.8 219.3" fill="none" stroke="#49893e" stroke-width="2.5"/>
<path d="M359.1 235.5 Q376.9 230.5 388.8 235.5" fill="none" stroke="#49893e" stroke-width="2.5"/>
<path d="M359.1 235.5 Q363.0 236.5 365.6 247.5" fill="none" stroke="#49893e" stroke-width="2.5"/>
<path d="M359.1 235.5 Q349.6 233.9 343.2 242.4" fill="none" stroke="#49893e" stroke-width="2.5"/>
<path d="M923.4 285.0 Q944.8 257.2 938.4 229.4" fill="none" stroke="#8a7254" stroke-width="3"/>
<path d="M938.4 229.4 Q925.0 219.5 916.1 219.7" fill="none" stroke="#49893e" stroke-width="2.5"/>
<path d="M938.4 229.4 Q941.7 219.2 944.0 219.0" fill="none" stroke="#49893e" stroke-width="2.5"/>
<path d="M938.4 229.4 Q953.9 224.4 964.2 229.4" fill="none" stroke="#49893e" stroke-width="2.5"/>
<path d="M938.4 229.4 Q942.1 230.1 944.6 240.8" fill="none" stroke="#49893e" stroke-width="2.5"/>
<path d="M938.4 229.4 Q924.5 229.4 915.2 239.5" fill="none" stroke="#49893e" stroke-width="2.5"/>
<path d="M632.7 285.0 Q654.0 264.2 647.6 243.3" fill="none" stroke="#786349" stroke-width="3"/>
<path d="M647.6 243.3 Q636.3 234.2 628.7 235.1" fill="none" stroke="#498b3f" stroke-width="2.5"/>
<path d="M647.6 243.3 Q652.9 230.2 656.4 227.2" fill="none" stroke="#498b3f" stroke-width="2.5"/>
<path d="M647.6 243.3 Q663.4 238.3 673.9 243.3" fill="none" stroke="#498b3f" stroke-width="2.5"/>
<path d="M647.6 243.3 Q651.8 244.7 654.6 256.1" fill="none" stroke="#498b3f" stroke-width="2.5"/>
<path d="M647.6 243.3 Q637.7 241.9 631.1 250.5" fill="none" stroke="#498b3f" stroke-width="2.5"/>
<path d="M1116.9 285.0 Q1145.4 262.9 1136.9 240.9" fill="none" stroke="#846d51" stroke-width="3"/>
<path d="M1136.9 240.9 Q1126.4 232.1 1119.4 233.3" fill="none" stroke="#48883d" stroke-width="2.5"/>
<path d="M1136.9 240.9 Q1140.8 229.8 1143.5 228.8" fill="none" stroke="#48883d" stroke-width="2.5"/>
<path d="M1136.9 240.9 Q1147.8 235.9 1155.1 240.9" fill="none" stroke="#48883d" stroke-width="2.5"/>
<path d="M1136.9 240.9 Q1141.2 242.5 1144.0 254.1" fill="none" stroke="#48883d" stroke-width="2.5"/>
<path d="M1136.9 240.9 Q1125.2 240.1 1117.4 249.4" fill="none" stroke="#48883d" stroke-width="2.5"/>
<path d="M1018.9 285.0 Q1039.3 260.0 1033.2 235.1" fill="none" stroke="#7e684d" stroke-width="3"/>
<path d="M1033.2 235.1 Q1021.9 226.0 1014.5 226.9" fill="none" stroke="#498a3e" stroke-width="2.5"/>
<path d="M1033.2 235.1 Q1038.3 222.2 1041.7 219.3" fill="none" stroke="#498a3e" stroke-width="2.5"/>
<path d="M1033.2 235.1 Q1047.1 230.1 1056.3 235.1" fill="none" stroke="#498a3e" stroke-width="2.5"/>
<path d="M1033.2 235.1 Q1037.5 236.7 1040.3 248.3" fill="none" stroke="#498a3e" stroke-width="2.5"/>
<path d="M1033.2 235.1 Q1020.2 234.8 1011.6 244.5" fill="none" stroke="#498a3e" stroke-width="2.5"/>
<path d="M384.8 285.0 Q404.8 263.9 398.8 242.7" fill="none" stroke="#766248" stroke-width="3"/>
<path d="M398.8 242.7 Q388.5 234.0 381.6 235.2" fill="none" stroke="#498a3e" stroke-width="2.5"/>
<path d="M398.8 242.7 Q403.5 230.4 406.7 228.1" fill="none" stroke="#498a3e" stroke-width="2.5"/>
<path d="M398.8 242.7 Q412.9 237.7 422.3 242.7" fill="none" stroke="#498a3e" stroke-width="2.5"/>
<path d="M398.8 242.7 Q403.1 244.3 405.9 255.8" fill="none" stroke="#498a3e" stroke-width="2.5"/>
<path d="M398.8 242.7 Q387.8 241.7 380.4 250.8" fill="none" stroke="#498a3e" stroke-width="2.5"/>
<path d="M964.1 285.0 Q992.4 257.0 983.9 229.0" fill="none" stroke="#7e684d" stroke-width="3"/>
<path d="M983.9 229.0 Q974.9 220.8 969.0 222.5" fill="none" stroke="#46853c" stroke-width="2.5"/>
<path d="M983.9 229.0 Q988.2 217.4 991.1 215.8" fill="none" stroke="#46853c" stroke-width="2.5"/>
<path d="M983.9 229.0 Q998.1 224.0 1007.5 229.0" fill="none" stroke="#46853c" stroke-width="2.5"/>
<path d="M983.9 229.0 Q987.6 229.8 990.1 240.5" fill="none" stroke="#46853c" stroke-width="2.5"/>
<path d="M983.9 229.0 Q970.3 229.0 961.3 238.9" fill="none" stroke="#46853c" stroke-width="2.5"/>
<path d="M113.4 285.0 Q128.8 261.7 124.1 238.4" fill="none" stroke="#7b664b" stroke-width="3"/>
<path d="M124.1 238.4 Q113.7 229.6 106.8 230.8" fill="none" stroke="#48893e" stroke-width="2.5"/>
<path d="M124.1 238.4 Q128.1 227.3 130.7 226.2" fill="none" stroke="#48893e" stroke-width="2.5"/>
<path d="M124.1 238.4 Q138.5 233.4 148.1 238.4" fill="none" stroke="#48893e" stroke-width="2.5"/>
<path d="M124.1 238.4 Q129.1 241.0 132.4 253.6" fill="none" stroke="#48893e" stroke-width="2.5"/>
<path d="M124.1 238.4 Q111.6 238.0 103.2 247.5" fill="none" stroke="#48893e" stroke-width="2.5"/>
<rect x="0" y="285" width="1200" height="15" fill="#d4c5a9" opacity="0.4"/>
<circle cx="1040.6" cy="41.6" r="31.3" fill="#f5e6a0" opacity="0.1"/>
</svg>