<svg xmlns="http://www.w3.org/2000/svg" viewBox="0 0 1200 400" width="1200" height="400">
<defs>
<linearGradient id="bg" x1="0" y1="0" x2="0" y2="1"><stop offset="0%" stop-color="#f5f0e8"/><stop offset="100%" stop-color="#475569"/></linearGradient>
<linearGradient id="warm" x1="0" y1="0" x2="1" y2="1"><stop offset="0%" stop-color="#ab9369" stop-opacity="0.18"/><stop offset="100%" stop-color="#ab9369" stop-opacity="0.06"/></linearGradient>
</defs>
<rect width="1200" height="400" fill="url(#bg)"/>
<path d="M0 400 L0 226.7207120211126 C60.0 234.8, 90.0 242.2, 150.0 239.8 C210.0 238.4, 240.0 221.2, 300.0 227.3 C360.0 220.1, 390.0 253.8, 450.0 245.9 C510.0 242.8, 540.0 236.6, 600.0 246.5 C660.0 255.5, 690.0 240.0, 750.0 234.2 C810.0 235.9, 840.0 222.6, 900.0 231.3 C960.0 226.6, 990.0 242.4, 1050.0 233.4 C1110.0 235.8, 1140.0 264.5, 1200.0 254.9 L1200 400 Z" fill="#848b95" opacity="0.45"/>
<path d="M0 400 L0 266.4190609347795 C52.5 270.8, 97.5 264.0, 150.0 269.2 C202.5 275.7, 247.5 273.6, 300.0 268.4 C352.5 268.8, 397.5 281.3, 450.0 278.4 C502.5 278.1, 547.5 268.7, 600.0 270.9 C652.5 268.0, 697.5 274.1, 750.0 274.7 C802.5 270.7, 847.5 272.7, 900.0 268.8 C952.5 268.0, 997.5 278.8, 1050.0 279.0 C1102.5 285.6, 1147.5 270.4, 1200.0 277.1 L1200 400 Z" fill="#475569" opacity="0.3"/>
<rect x="418.2" y="327.3" width="37.8" height="72.7" rx="4.1" fill="#694745" opacity="0.55"/>
<rect x="328.3" y="278.4" width="35.0" height="121.6" rx="5.8" fill="#813e2c" opacity="0.70"/>
<rect x="483.8" y="264.8" width="25.7" height="135.2" rx="4.8" fill="#7e3f2f" opacity="0.81"/>
<rect x="698.7" y="283.3" width="42.3" height="116.7" rx="7.5" fill="#774237" opacity="0.77"/>
<rect x="703.7" y="293.3" width="4" height="5" rx="0.5" fill="#f5f0e8" opacity="0.6"/>
<rect x="717.7" y="293.3" width="4" height="5" rx="0.5" fill="#f5f0e8" opacity="0.6"/>
<rect x="703.7" y="315.3" width="4" height="5" rx="0.5" fill="#f5f0e8" opacity="0.6"/>
<rect x="703.7" y="337.3" width="4" height="5" rx="0.5" fill="#f5f0e8" opacity="0.6"/>
<rect x="717.7" y="337.3" width="4" height="5" rx="0.5" fill="#f5f0e8" opacity="0.6"/>
<rect x="717.7" y="359.3" width="4" height="5" rx="0.5" fill="#f5f0e8" opacity="0.6"/>
<rect x="946.8" y="300.4" width="14.2" height="99.6" rx="5.1" fill="#7f3f2e" opacity="0.52"/>
<rect x="534.6" y="329.4" width="25.0" height="70.6" rx="3.5" fill="#8f381e" opacity="0.67"/>
<rect x="471.5" y="352.4" width="26.6" height="47.6" rx="5.5" fill="#973515" opacity="0.83"/>
<rect x="154.4" y="370.9" width="24.9" height="29.1" rx="3.6" fill="#70453e" opacity="0.61"/>
<rect x="698.4" y="310.7" width="34.5" height="89.3" rx="4.4" fill="#93371a" opacity="0.57"/>
<rect x="703.4" y="320.7" width="4" height="5" rx="0.5" fill="#f5f0e8" opacity="0.6"/>
<rect x="714.9" y="320.7" width="4" height="5" rx="0.5" fill="#f5f0e8" opacity="0.6"/>
<rect x="714.9" y="342.7" width="4" height="5" rx="0.5" fill="#f5f0e8" opacity="0.6"/>
<rect x="703.4" y="364.7" width="4" height="5" rx="0.5" fill="#f5f0e8" opacity="0.6"/>
<rect x="714.9" y="364.7" width="4" height="5" rx="0.5" fill="#f5f0e8" opacity="0.6"/>
<rect x="1021.2" y="333.3" width="18.2" height="66.7" rx="6.2" fill="#883b25" opacity="0.72"/>
<rect x="642.6" y="287.8" width="30.7" height="112.2" rx="7.2" fill="#6b4743" opacity="0.55"/>
<rect x="1005.3" y="357.1" width="45.8" height="42.9" rx="5.2" fill="#8d3920" opacity="0.50"/>
<rect x="500.9" y="282.9" width="38.0" height="117.1" rx="3.6" fill="#803e2e" opacity="0.60"/>
<circle cx="546.1" cy="114.7" r="11.7" fill="#9a3412" opacity="0.24"/>
<circle cx="334.0" cy="160.9" r="3.9" fill="#9a3412" opacity="0.34"/>
<circle cx="763.0" cy="105.7" r="10.1" fill="#9a3412" opacity="0.40"/>
<circle cx="531.7" cy="192.8" r="10.6" fill="#f5f0e8" opacity="0.43"/>
<circle cx="961.6" cy="94.7" r="3.4" fill="#9a3412" opacity="0.18"/>
<circle cx="363.4" cy="20.6" r="7.3" fill="#f5f0e8" opacity="0.43"/>
<circle cx="390.3" cy="97.6" r="10.5" fill="#f5f0e8" opacity="0.19"/>
<circle cx="88.7" cy="127.5" r="9.4" fill="#f5f0e8" opacity="0.28"/>
<circle cx="441.6" cy="16.9" r="4.1" fill="#f5f0e8" opacity="0.44"/>
<circle cx="318.1" cy="31.2" r="11.4" fill="#f5f0e8" opacity="0.17"/>
<circle cx="111.1" cy="4.3" r="8.0" fill="#9a3412" opacity="0.42"/>
<circle cx="1068.8" cy="133.9" r="7.2" fill="#f5f0e8" opacity="0.29"/>
<rect width="1200" height="400" fill="url(#warm)"/>
<rect width="1200" height="400" fill="#f5f0e8" opacity="0.33"/>
</svg>