<svg xmlns="http://www.w3.org/2000/svg" viewBox="0 0 1200 300" width="1200" height="300">
<defs>
<linearGradient id="skyGrad" x1="0" y1="0" x2="0" y2="1">
<stop offset="0%" stop-color="#a78bfa"/>
<stop offset="18%" stop-color="#ddb4f0"/>
<stop offset="35%" stop-color="#fda4af"/>
<stop offset="52%" stop-color="#fdba74"/>
<stop offset="72%" stop-color="#fef08a"/>
<stop offset="100%" stop-color="#fef9c3"/>
</linearGradient>
<linearGradient id="bldg_coral" x1="0" y1="0" x2="0" y2="1"><stop offset="0%" stop-color="#fecaca"/><stop offset="100%" stop-color="#fca5a5"/></linearGradient>
<linearGradient id="bldg_teal" x1="0" y1="0" x2="0" y2="1"><stop offset="0%" stop-color="#99f6e4"/><stop offset="100%" stop-color="#5eead4"/></linearGradient>
<linearGradient id="bldg_amber" x1="0" y1="0" x2="0" y2="1"><stop offset="0%" stop-color="#fde68a"/><stop offset="100%" stop-color="#fcd34d"/></linearGradient>
<linearGradient id="bldg_lavender" x1="0" y1="0" x2="0" y2="1"><stop offset="0%" stop-color="#ddd6fe"/><stop offset="100%" stop-color="#c4b5fd"/></linearGradient>
<linearGradient id="bldg_blue" x1="0" y1="0" x2="0" y2="1"><stop offset="0%" stop-color="#bfdbfe"/><stop offset="100%" stop-color="#93c5fd"/></linearGradient>
<linearGradient id="bldg_mint" x1="0" y1="0" x2="0" y2="1"><stop offset="0%" stop-color="#a7f3d0"/><stop offset="100%" stop-color="#6ee7b7"/></linearGradient>
<linearGradient id="bldg_rose" x1="0" y1="0" x2="0" y2="1"><stop offset="0%" stop-color="#fecdd3"/><stop offset="100%" stop-color="#fda4af"/></linearGradient>
<linearGradient id="bldg_sky" x1="0" y1="0" x2="0" y2="1"><stop offset="0%" stop-color="#bae6fd"/><stop offset="100%" stop-color="#7dd3fc"/></linearGradient>
<linearGradient id="roof_navyRoof" x1="0" y1="0" x2="0" y2="1"><stop offset="0%" stop-color="#4338ca"/><stop offset="100%" stop-color="#3730a3"/></linearGradient>
<linearGradient id="roof_coralRoof" x1="0" y1="0" x2="0" y2="1"><stop offset="0%" stop-color="#f87171"/><stop offset="100%" stop-color="#ef4444"/></linearGradient>
<linearGradient id="roof_tealRoof" x1="0" y1="0" x2="0" y2="1"><stop offset="0%" stop-color="#2dd4bf"/><stop offset="100%" stop-color="#14b8a6"/></linearGradient>
<radialGradient id="windowGlow" cx="50%" cy="50%" r="50%"><stop offset="0%" stop-color="#fef08a"/><stop offset="60%" stop-color="#fbbf24"/><stop offset="100%" stop-color="#f59e0b"/></radialGradient>
<linearGradient id="hillFar" x1="0" y1="0" x2="0" y2="1"><stop offset="0%" stop-color="#c4b5fd"/><stop offset="100%" stop-color="#a5b4fc"/></linearGradient>
<linearGradient id="hillMid" x1="0" y1="0" x2="0" y2="1"><stop offset="0%" stop-color="#86efac"/><stop offset="100%" stop-color="#4ade80"/></linearGradient>
<linearGradient id="hillNear" x1="0" y1="0" x2="0" y2="1"><stop offset="0%" stop-color="#34d399"/><stop offset="100%" stop-color="#10b981"/></linearGradient>
<linearGradient id="hillDesertFar" x1="0" y1="0" x2="0" y2="1"><stop offset="0%" stop-color="#fde68a"/><stop offset="100%" stop-color="#fcd34d"/></linearGradient>
<linearGradient id="hillDesertMid" x1="0" y1="0" x2="0" y2="1"><stop offset="0%" stop-color="#fcd34d"/><stop offset="100%" stop-color="#fbbf24"/></linearGradient>
<linearGradient id="hillDesertNear" x1="0" y1="0" x2="0" y2="1"><stop offset="0%" stop-color="#fbbf24"/><stop offset="100%" stop-color="#f59e0b"/></linearGradient>
<linearGradient id="groundGrad" x1="0" y1="0" x2="0" y2="1"><stop offset="0%" stop-color="#fef3c7"/><stop offset="100%" stop-color="#fde68a"/></linearGradient>
<linearGradient id="waterGrad" x1="0" y1="0" x2="0" y2="1"><stop offset="0%" stop-color="#bfdbfe"/><stop offset="100%" stop-color="#93c5fd"/></linearGradient>
<filter id="softGlow" x="-50%" y="-50%" width="200%" height="200%"><feGaussianBlur in="SourceGraphic" stdDeviation="12"/></filter>
</defs>
<rect width="1200" height="300" fill="url(#skyGrad)"/>
<circle cx="1067.6" cy="42.4" r="45" fill="#fef08a" opacity="0.12" filter="url(#softGlow)"/>
<circle cx="1067.6" cy="42.4" r="30" fill="#fde68a" opacity="0.18" filter="url(#softGlow)"/>
<circle cx="1067.6" cy="42.4" r="16" fill="#fef9c3" opacity="0.25" filter="url(#softGlow)"/>
<path d="M0 300 L0.0 186.1 C177.7 186.1, 177.7 188.7, 355.4 188.7 C554.8 188.7, 554.8 188.8, 754.2 188.8 C977.1 188.8, 977.1 197.6, 1200.0 197.6 L1200 300 Z" fill="url(#hillFar)" opacity="0.5"/>
<path d="M0 300 L0.0 209.9 C241.2 209.9, 241.2 211.6, 482.4 211.6 C641.6 211.6, 641.6 214.3, 800.9 214.3 C1000.4 214.3, 1000.4 215.0, 1200.0 215.0 L1200 300 Z" fill="url(#hillMid)" opacity="0.7"/>
<path d="M0 300 L0.0 229.1 C214.3 229.1, 214.3 232.1, 428.7 232.1 C593.6 232.1, 593.6 233.6, 758.4 233.6 C979.2 233.6, 979.2 228.5, 1200.0 228.5 L1200 300 Z" fill="url(#hillNear)" opacity="1"/>
<rect x="195.9" y="228.1" width="61.7" height="71.9" rx="3" fill="url(#bldg_blue)" opacity="0.7"/>
<polygon points="195.9,228.1 226.7,208.8 257.6,228.1" fill="url(#roof_tealRoof)" opacity="0.7"/>
<rect x="209.7" y="238.1" width="6" height="8" rx="1" fill="url(#windowGlow)" opacity="0.8720196596682163"/>
<rect x="223.7" y="238.1" width="6" height="8" rx="1" fill="url(#windowGlow)" opacity="0.8070819145101503"/>
<rect x="237.7" y="238.1" width="6" height="8" rx="1" fill="url(#windowGlow)" opacity="0.9942691905397312"/>
<rect x="209.7" y="253.1" width="6" height="8" rx="1" fill="url(#windowGlow)" opacity="0.9629093986763196"/>
<rect x="223.7" y="253.1" width="6" height="8" rx="1" fill="url(#windowGlow)" opacity="0.8035076561400236"/>
<rect x="602.9" y="205.1" width="74.7" height="94.9" rx="3" fill="url(#bldg_mint)" opacity="0.7"/>
<rect x="602.9" y="202.1" width="74.7" height="3" rx="1" fill="url(#roof_navyRoof)" opacity="0.7"/>
<rect x="616.2" y="215.1" width="6" height="8" rx="1" fill="url(#windowGlow)" opacity="0.8809428566512385"/>
<rect x="630.2" y="215.1" width="6" height="8" rx="1" fill="url(#windowGlow)" opacity="0.9217960440189559"/>
<rect x="644.2" y="215.1" width="6" height="8" rx="1" fill="url(#windowGlow)" opacity="0.9655363455254288"/>
<rect x="658.2" y="215.1" width="6" height="8" rx="1" fill="url(#windowGlow)" opacity="0.8120892254691986"/>
<rect x="644.2" y="230.1" width="6" height="8" rx="1" fill="url(#windowGlow)" opacity="0.9936442081786898"/>
<rect x="658.2" y="230.1" width="6" height="8" rx="1" fill="url(#windowGlow)" opacity="0.7690016473499134"/>
<rect x="616.2" y="245.1" width="6" height="8" rx="1" fill="url(#windowGlow)" opacity="0.9572425375493441"/>
<rect x="630.2" y="245.1" width="6" height="8" rx="1" fill="url(#windowGlow)" opacity="0.9870238320841564"/>
<rect x="644.2" y="245.1" width="6" height="8" rx="1" fill="url(#windowGlow)" opacity="0.7080662414003471"/>
<rect x="658.2" y="245.1" width="6" height="8" rx="1" fill="url(#windowGlow)" opacity="0.9484689153490908"/>
<rect x="616.2" y="260.1" width="6" height="8" rx="1" fill="url(#windowGlow)" opacity="0.7762813260668335"/>
<rect x="644.2" y="260.1" width="6" height="8" rx="1" fill="url(#windowGlow)" opacity="0.7944822551191235"/>
<rect x="658.2" y="260.1" width="6" height="8" rx="1" fill="url(#windowGlow)" opacity="0.9044920791892763"/>
<rect x="911.2" y="245.9" width="74.5" height="54.1" rx="3" fill="url(#bldg_rose)" opacity="0.7"/>
<rect x="911.2" y="242.9" width="74.5" height="3" rx="1" fill="url(#roof_coralRoof)" opacity="0.7"/>
<rect x="924.5" y="255.9" width="6" height="8" rx="1" fill="url(#windowGlow)" opacity="0.8608845921516812"/>
<rect x="938.5" y="255.9" width="6" height="8" rx="1" fill="url(#windowGlow)" opacity="0.9415302434663895"/>
<rect x="952.5" y="255.9" width="6" height="8" rx="1" fill="url(#windowGlow)" opacity="0.719104266874075"/>
<rect x="966.5" y="255.9" width="6" height="8" rx="1" fill="url(#windowGlow)" opacity="0.9740491807339942"/>
<rect x="181.6" y="173.1" width="52.7" height="126.9" rx="3" fill="url(#bldg_sky)" opacity="0.85"/>
<rect x="192.2" y="157.8" width="31.6" height="15.2" rx="2" fill="url(#roof_tealRoof)" opacity="0.85"/>
<rect x="212.0" y="183.1" width="6" height="8" rx="1" fill="url(#windowGlow)" opacity="0.7282285024077764"/>
<rect x="198.0" y="198.1" width="6" height="8" rx="1" fill="url(#windowGlow)" opacity="0.7176085341338108"/>
<rect x="212.0" y="198.1" width="6" height="8" rx="1" fill="url(#windowGlow)" opacity="0.9119369279183154"/>
<rect x="198.0" y="213.1" width="6" height="8" rx="1" fill="url(#windowGlow)" opacity="0.716437571643124"/>
<rect x="212.0" y="213.1" width="6" height="8" rx="1" fill="url(#windowGlow)" opacity="0.700086480425711"/>
<rect x="198.0" y="228.1" width="6" height="8" rx="1" fill="url(#windowGlow)" opacity="0.7210569709171806"/>
<rect x="212.0" y="228.1" width="6" height="8" rx="1" fill="url(#windowGlow)" opacity="0.8117198905962146"/>
<rect x="198.0" y="243.1" width="6" height="8" rx="1" fill="url(#windowGlow)" opacity="0.86907292365519"/>
<rect x="212.0" y="243.1" width="6" height="8" rx="1" fill="url(#windowGlow)" opacity="0.7283089351506479"/>
<rect x="198.0" y="258.1" width="6" height="8" rx="1" fill="url(#windowGlow)" opacity="0.7775067519291801"/>
<rect x="212.0" y="258.1" width="6" height="8" rx="1" fill="url(#windowGlow)" opacity="0.9376387152530432"/>
<rect x="454.4" y="223.2" width="68.7" height="76.8" rx="3" fill="url(#bldg_coral)" opacity="0.85"/>
<polygon points="454.4,223.2 488.8,202.0 523.1,223.2" fill="url(#roof_navyRoof)" opacity="0.85"/>
<rect x="471.8" y="233.2" width="6" height="8" rx="1" fill="url(#windowGlow)" opacity="0.9856005205240103"/>
<rect x="499.8" y="233.2" width="6" height="8" rx="1" fill="url(#windowGlow)" opacity="0.7846347316096698"/>
<rect x="471.8" y="248.2" width="6" height="8" rx="1" fill="url(#windowGlow)" opacity="0.8777200280119292"/>
<rect x="485.8" y="248.2" width="6" height="8" rx="1" fill="url(#windowGlow)" opacity="0.7200994108431503"/>
<rect x="499.8" y="248.2" width="6" height="8" rx="1" fill="url(#windowGlow)" opacity="0.9163338695263181"/>
<path d="M461.3 250.1 L488.8 250.1 L485.8 256.1 L464.3 256.1 Z" fill="url(#roof_tealRoof)" opacity="0.68"/>
<rect x="730.6" y="216.7" width="79.7" height="83.3" rx="3" fill="url(#bldg_teal)" opacity="0.85"/>
<rect x="746.5" y="206.7" width="47.8" height="10.0" rx="2" fill="url(#roof_coralRoof)" opacity="0.85"/>
<rect x="746.4" y="226.7" width="6" height="8" rx="1" fill="url(#windowGlow)" opacity="0.7244496444354065"/>
<rect x="760.4" y="226.7" width="6" height="8" rx="1" fill="url(#windowGlow)" opacity="0.9327609962004986"/>
<rect x="774.4" y="226.7" width="6" height="8" rx="1" fill="url(#windowGlow)" opacity="0.8502499305411474"/>
<rect x="788.4" y="226.7" width="6" height="8" rx="1" fill="url(#windowGlow)" opacity="0.7570689770658822"/>
<rect x="746.4" y="241.7" width="6" height="8" rx="1" fill="url(#windowGlow)" opacity="0.9169948852700157"/>
<rect x="760.4" y="241.7" width="6" height="8" rx="1" fill="url(#windowGlow)" opacity="0.9689245196380301"/>
<rect x="774.4" y="241.7" width="6" height="8" rx="1" fill="url(#windowGlow)" opacity="0.7010093051944902"/>
<rect x="788.4" y="241.7" width="6" height="8" rx="1" fill="url(#windowGlow)" opacity="0.8938295900792952"/>
<rect x="746.4" y="256.7" width="6" height="8" rx="1" fill="url(#windowGlow)" opacity="0.8594399782640114"/>
<rect x="760.4" y="256.7" width="6" height="8" rx="1" fill="url(#windowGlow)" opacity="0.9357338784428936"/>
<rect x="774.4" y="256.7" width="6" height="8" rx="1" fill="url(#windowGlow)" opacity="0.8078801945354231"/>
<rect x="788.4" y="256.7" width="6" height="8" rx="1" fill="url(#windowGlow)" opacity="0.7080772782713535"/>
<rect x="979.5" y="217.3" width="61.8" height="82.7" rx="3" fill="url(#bldg_amber)" opacity="0.85"/>
<rect x="979.5" y="214.3" width="61.8" height="3" rx="1" fill="url(#roof_tealRoof)" opacity="0.85"/>
<rect x="993.4" y="227.3" width="6" height="8" rx="1" fill="url(#windowGlow)" opacity="0.7630745553705257"/>
<rect x="1007.4" y="227.3" width="6" height="8" rx="1" fill="url(#windowGlow)" opacity="0.8843998146170748"/>
<rect x="1021.4" y="227.3" width="6" height="8" rx="1" fill="url(#windowGlow)" opacity="0.9161172024980733"/>
<rect x="993.4" y="242.3" width="6" height="8" rx="1" fill="url(#windowGlow)" opacity="0.7505345428597808"/>
<rect x="1021.4" y="242.3" width="6" height="8" rx="1" fill="url(#windowGlow)" opacity="0.7205218970405505"/>
<rect x="993.4" y="257.3" width="6" height="8" rx="1" fill="url(#windowGlow)" opacity="0.9395449690239247"/>
<rect x="1007.4" y="257.3" width="6" height="8" rx="1" fill="url(#windowGlow)" opacity="0.9405693954511403"/>
<rect x="1021.4" y="257.3" width="6" height="8" rx="1" fill="url(#windowGlow)" opacity="0.9414281172405128"/>
<rect x="193.2" y="153.4" width="40.6" height="146.6" rx="3" fill="url(#bldg_lavender)" opacity="1"/>
<rect x="201.3" y="135.8" width="24.3" height="17.6" rx="2" fill="url(#roof_navyRoof)" opacity="1"/>
<rect x="210.5" y="163.4" width="6" height="8" rx="1" fill="url(#windowGlow)" opacity="0.8298897388530381"/>
<rect x="210.5" y="178.4" width="6" height="8" rx="1" fill="url(#windowGlow)" opacity="0.9910822856198447"/>
<rect x="210.5" y="193.4" width="6" height="8" rx="1" fill="url(#windowGlow)" opacity="0.8539843135764749"/>
<rect x="210.5" y="208.4" width="6" height="8" rx="1" fill="url(#windowGlow)" opacity="0.9538210653484896"/>
<rect x="210.5" y="223.4" width="6" height="8" rx="1" fill="url(#windowGlow)" opacity="0.8716919496057982"/>
<rect x="210.5" y="238.4" width="6" height="8" rx="1" fill="url(#windowGlow)" opacity="0.7947996525069696"/>
<rect x="210.5" y="253.4" width="6" height="8" rx="1" fill="url(#windowGlow)" opacity="0.7111854736279628"/>
<rect x="208.5" y="284.0" width="10" height="16" rx="2" fill="url(#roof_navyRoof)" opacity="0.8"/>
<rect x="210.5" y="287.0" width="6" height="10" rx="1" fill="url(#windowGlow)" opacity="0.45"/>
<rect x="206.4" y="194.4" width="14.2" height="5" rx="1" fill="#15803d" opacity="0.7"/>
<circle cx="209.4" cy="193.4" r="2.5" fill="#fb923c" opacity="0.85"/>
<circle cx="214.1" cy="193.4" r="2.5" fill="#fbbf24" opacity="0.85"/>
<circle cx="218.8" cy="193.4" r="2.5" fill="#fb923c" opacity="0.85"/>
<rect x="403.8" y="238.7" width="68.5" height="61.3" rx="3" fill="url(#bldg_blue)" opacity="1"/>
<rect x="403.8" y="235.7" width="68.5" height="3" rx="1" fill="url(#roof_coralRoof)" opacity="1"/>
<rect x="435.1" y="248.7" width="6" height="8" rx="1" fill="url(#windowGlow)" opacity="0.7106582030237923"/>
<rect x="449.1" y="248.7" width="6" height="8" rx="1" fill="url(#windowGlow)" opacity="0.773015556378763"/>
<rect x="433.1" y="284.0" width="10" height="16" rx="2" fill="url(#roof_navyRoof)" opacity="0.8"/>
<rect x="435.1" y="287.0" width="6" height="10" rx="1" fill="url(#windowGlow)" opacity="0.45"/>
<rect x="697.2" y="178.1" width="63.5" height="121.9" rx="3" fill="url(#bldg_mint)" opacity="1"/>
<rect x="709.9" y="163.4" width="38.1" height="14.6" rx="2" fill="url(#roof_tealRoof)" opacity="1"/>
<rect x="712.0" y="188.1" width="6" height="8" rx="1" fill="url(#windowGlow)" opacity="0.914661187126609"/>
<rect x="740.0" y="188.1" width="6" height="8" rx="1" fill="url(#windowGlow)" opacity="0.8776808428939807"/>
<rect x="712.0" y="203.1" width="6" height="8" rx="1" fill="url(#windowGlow)" opacity="0.885266962873408"/>
<rect x="726.0" y="203.1" width="6" height="8" rx="1" fill="url(#windowGlow)" opacity="0.9063708642061663"/>
<rect x="712.0" y="218.1" width="6" height="8" rx="1" fill="url(#windowGlow)" opacity="0.8539830491663809"/>
<rect x="726.0" y="218.1" width="6" height="8" rx="1" fill="url(#windowGlow)" opacity="0.9779539700960526"/>
<rect x="740.0" y="218.1" width="6" height="8" rx="1" fill="url(#windowGlow)" opacity="0.8506152390272427"/>
<rect x="712.0" y="233.1" width="6" height="8" rx="1" fill="url(#windowGlow)" opacity="0.7761648529563866"/>
<rect x="726.0" y="233.1" width="6" height="8" rx="1" fill="url(#windowGlow)" opacity="0.9509112042611982"/>
<rect x="740.0" y="233.1" width="6" height="8" rx="1" fill="url(#windowGlow)" opacity="0.9468527160803101"/>
<rect x="726.0" y="248.1" width="6" height="8" rx="1" fill="url(#windowGlow)" opacity="0.7951162339165416"/>
<rect x="740.0" y="248.1" width="6" height="8" rx="1" fill="url(#windowGlow)" opacity="0.9374634773179252"/>
<rect x="724.0" y="284.0" width="10" height="16" rx="2" fill="url(#roof_navyRoof)" opacity="0.8"/>
<rect x="726.0" y="287.0" width="6" height="10" rx="1" fill="url(#windowGlow)" opacity="0.45"/>
<path d="M729.0 220.7 L754.4 220.7 L751.4 226.7 L732.0 226.7 Z" fill="url(#roof_coralRoof)" opacity="0.8"/>
<rect x="717.9" y="219.1" width="22.2" height="5" rx="1" fill="#15803d" opacity="0.7"/>
<circle cx="720.9" cy="218.1" r="2.5" fill="#a78bfa" opacity="0.85"/>
<circle cx="728.3" cy="218.1" r="2.5" fill="#f87171" opacity="0.85"/>
<circle cx="735.7" cy="218.1" r="2.5" fill="#f87171" opacity="0.85"/>
<rect x="1003.3" y="238.1" width="70.2" height="61.9" rx="3" fill="url(#bldg_rose)" opacity="1"/>
<polygon points="1003.3,238.1 1038.4,217.0 1073.5,238.1" fill="url(#roof_navyRoof)" opacity="1"/>
<rect x="1021.4" y="248.1" width="6" height="8" rx="1" fill="url(#windowGlow)" opacity="0.8546881094363928"/>
<rect x="1035.4" y="248.1" width="6" height="8" rx="1" fill="url(#windowGlow)" opacity="0.9992218303956193"/>
<rect x="1049.4" y="248.1" width="6" height="8" rx="1" fill="url(#windowGlow)" opacity="0.7096404981844315"/>
<rect x="1033.4" y="284.0" width="10" height="16" rx="2" fill="url(#roof_navyRoof)" opacity="0.8"/>
<rect x="1035.4" y="287.0" width="6" height="10" rx="1" fill="url(#windowGlow)" opacity="0.45"/>
<path d="M1010.3 259.8 L1038.4 259.8 L1035.4 265.8 L1013.3 265.8 Z" fill="url(#roof_tealRoof)" opacity="0.8"/>
<path d="M318.8 285.0 Q344.4 258.4 334.2 231.7" stroke="#92400e" stroke-width="4" fill="none" stroke-linecap="round"/>
<path d="M334.2 231.7 Q324.3 221.6 317.7 222.6" stroke="#16a34a" stroke-width="2.5" fill="none" stroke-linecap="round"/>
<path d="M334.2 231.7 Q340.0 219.9 343.8 218.9" stroke="#22c55e" stroke-width="2.5" fill="none" stroke-linecap="round"/>
<path d="M334.2 231.7 Q349.9 225.7 360.4 231.7" stroke="#15803d" stroke-width="2.5" fill="none" stroke-linecap="round"/>
<path d="M334.2 231.7 Q339.8 231.4 343.6 244.2" stroke="#4ade80" stroke-width="2.5" fill="none" stroke-linecap="round"/>
<path d="M334.2 231.7 Q325.4 229.3 319.6 239.7" stroke="#16a34a" stroke-width="2.5" fill="none" stroke-linecap="round"/>
<path d="M584.8 285.0 Q614.6 257.5 602.7 230.0" stroke="#92400e" stroke-width="4" fill="none" stroke-linecap="round"/>
<path d="M602.7 230.0 Q593.6 220.2 587.5 221.6" stroke="#16a34a" stroke-width="2.5" fill="none" stroke-linecap="round"/>
<path d="M602.7 230.0 Q608.6 218.0 612.5 216.9" stroke="#22c55e" stroke-width="2.5" fill="none" stroke-linecap="round"/>
<path d="M602.7 230.0 Q619.1 224.0 630.1 230.0" stroke="#15803d" stroke-width="2.5" fill="none" stroke-linecap="round"/>
<path d="M602.7 230.0 Q609.9 231.2 614.7 246.0" stroke="#4ade80" stroke-width="2.5" fill="none" stroke-linecap="round"/>
<path d="M602.7 230.0 Q591.5 228.6 584.0 240.2" stroke="#16a34a" stroke-width="2.5" fill="none" stroke-linecap="round"/>
<path d="M882.0 285.0 Q904.6 258.3 895.6 231.6" stroke="#92400e" stroke-width="4" fill="none" stroke-linecap="round"/>
<path d="M895.6 231.6 Q884.0 220.8 876.3 221.0" stroke="#16a34a" stroke-width="2.5" fill="none" stroke-linecap="round"/>
<path d="M895.6 231.6 Q902.9 218.3 907.8 215.4" stroke="#22c55e" stroke-width="2.5" fill="none" stroke-linecap="round"/>
<path d="M895.6 231.6 Q910.8 225.6 920.9 231.6" stroke="#15803d" stroke-width="2.5" fill="none" stroke-linecap="round"/>
<path d="M895.6 231.6 Q900.4 230.4 903.6 242.2" stroke="#4ade80" stroke-width="2.5" fill="none" stroke-linecap="round"/>
<path d="M895.6 231.6 Q884.1 230.4 876.5 242.1" stroke="#16a34a" stroke-width="2.5" fill="none" stroke-linecap="round"/>
<path d="M165.7 285.0 Q194.3 263.1 182.9 241.3" stroke="#92400e" stroke-width="4" fill="none" stroke-linecap="round"/>
<path d="M182.9 241.3 Q169.2 229.6 160.1 228.7" stroke="#16a34a" stroke-width="2.5" fill="none" stroke-linecap="round"/>
<path d="M182.9 241.3 Q187.7 230.4 191.0 230.5" stroke="#22c55e" stroke-width="2.5" fill="none" stroke-linecap="round"/>
<path d="M182.9 241.3 Q197.9 235.3 207.9 241.3" stroke="#15803d" stroke-width="2.5" fill="none" stroke-linecap="round"/>
<path d="M182.9 241.3 Q190.7 243.1 195.9 258.5" stroke="#4ade80" stroke-width="2.5" fill="none" stroke-linecap="round"/>
<path d="M182.9 241.3 Q168.9 241.1 159.5 254.1" stroke="#16a34a" stroke-width="2.5" fill="none" stroke-linecap="round"/>
<path d="M1123.0 285.0 Q1142.3 260.3 1134.6 235.6" stroke="#92400e" stroke-width="4" fill="none" stroke-linecap="round"/>
<path d="M1134.6 235.6 Q1124.2 225.3 1117.3 226.1" stroke="#16a34a" stroke-width="2.5" fill="none" stroke-linecap="round"/>
<path d="M1134.6 235.6 Q1140.6 223.6 1144.6 222.3" stroke="#22c55e" stroke-width="2.5" fill="none" stroke-linecap="round"/>
<path d="M1134.6 235.6 Q1147.5 229.6 1156.1 235.6" stroke="#15803d" stroke-width="2.5" fill="none" stroke-linecap="round"/>
<path d="M1134.6 235.6 Q1139.6 234.7 1142.9 246.7" stroke="#4ade80" stroke-width="2.5" fill="none" stroke-linecap="round"/>
<path d="M1134.6 235.6 Q1120.9 235.3 1111.8 248.2" stroke="#16a34a" stroke-width="2.5" fill="none" stroke-linecap="round"/>
<path d="M291.0 285.0 Q319.3 261.4 308.0 237.9" stroke="#92400e" stroke-width="4" fill="none" stroke-linecap="round"/>
<path d="M308.0 237.9 Q298.3 227.8 291.8 228.9" stroke="#16a34a" stroke-width="2.5" fill="none" stroke-linecap="round"/>
<path d="M308.0 237.9 Q315.1 224.7 319.9 222.1" stroke="#22c55e" stroke-width="2.5" fill="none" stroke-linecap="round"/>
<path d="M308.0 237.9 Q322.5 231.9 332.1 237.9" stroke="#15803d" stroke-width="2.5" fill="none" stroke-linecap="round"/>
<path d="M308.0 237.9 Q312.7 236.6 315.9 248.3" stroke="#4ade80" stroke-width="2.5" fill="none" stroke-linecap="round"/>
<path d="M308.0 237.9 Q299.1 235.6 293.1 246.1" stroke="#16a34a" stroke-width="2.5" fill="none" stroke-linecap="round"/>
<path d="M87.2 285.0 Q110.2 261.9 101.0 238.7" stroke="#92400e" stroke-width="4" fill="none" stroke-linecap="round"/>
<path d="M101.0 238.7 Q88.6 227.6 80.4 227.4" stroke="#16a34a" stroke-width="2.5" fill="none" stroke-linecap="round"/>
<path d="M101.0 238.7 Q107.3 226.4 111.5 224.8" stroke="#22c55e" stroke-width="2.5" fill="none" stroke-linecap="round"/>
<path d="M101.0 238.7 Q114.8 232.7 124.0 238.7" stroke="#15803d" stroke-width="2.5" fill="none" stroke-linecap="round"/>
<path d="M101.0 238.7 Q107.6 239.4 112.0 253.4" stroke="#4ade80" stroke-width="2.5" fill="none" stroke-linecap="round"/>
<path d="M101.0 238.7 Q92.2 236.4 86.3 246.8" stroke="#16a34a" stroke-width="2.5" fill="none" stroke-linecap="round"/>
<path d="M956.4 285.0 Q976.9 257.1 968.7 229.3" stroke="#92400e" stroke-width="4" fill="none" stroke-linecap="round"/>
<path d="M968.7 229.3 Q958.8 219.1 952.1 220.1" stroke="#16a34a" stroke-width="2.5" fill="none" stroke-linecap="round"/>
<path d="M968.7 229.3 Q973.6 218.3 976.9 218.4" stroke="#22c55e" stroke-width="2.5" fill="none" stroke-linecap="round"/>
<path d="M968.7 229.3 Q989.0 223.3 1002.5 229.3" stroke="#15803d" stroke-width="2.5" fill="none" stroke-linecap="round"/>
<path d="M968.7 229.3 Q974.0 228.6 977.5 241.0" stroke="#4ade80" stroke-width="2.5" fill="none" stroke-linecap="round"/>
<path d="M968.7 229.3 Q955.9 228.6 947.4 241.0" stroke="#16a34a" stroke-width="2.5" fill="none" stroke-linecap="round"/>
<path d="M395.9 285.0 Q412.1 254.8 405.6 224.5" stroke="#92400e" stroke-width="4" fill="none" stroke-linecap="round"/>
<path d="M405.6 224.5 Q393.6 213.5 385.6 213.5" stroke="#16a34a" stroke-width="2.5" fill="none" stroke-linecap="round"/>
<path d="M405.6 224.5 Q411.9 212.2 416.1 210.6" stroke="#22c55e" stroke-width="2.5" fill="none" stroke-linecap="round"/>
<path d="M405.6 224.5 Q420.0 218.5 429.6 224.5" stroke="#15803d" stroke-width="2.5" fill="none" stroke-linecap="round"/>
<path d="M405.6 224.5 Q412.3 225.2 416.7 239.2" stroke="#4ade80" stroke-width="2.5" fill="none" stroke-linecap="round"/>
<path d="M405.6 224.5 Q396.3 222.4 390.0 233.1" stroke="#16a34a" stroke-width="2.5" fill="none" stroke-linecap="round"/>
<rect x="0" y="282" width="1200" height="18" fill="url(#groundGrad)"/>
<line x1="666.8" y1="282.0" x2="666.8" y2="243.8" stroke="#92400e" stroke-width="2"/>
<circle cx="666.8" cy="243.8" r="4" fill="#fef08a" opacity="0.6"/>
<circle cx="666.8" cy="243.8" r="8" fill="#fef08a" opacity="0.15" filter="url(#softGlow)"/>
<ellipse cx="362.0" cy="282.0" rx="4.6" ry="3.3" fill="#22c55e" opacity="0.6"/>
<ellipse cx="750.1" cy="282.0" rx="4.9" ry="3.4" fill="#22c55e" opacity="0.6"/>
<ellipse cx="935.0" cy="282.0" rx="6.8" ry="4.8" fill="#22c55e" opacity="0.6"/>
<ellipse cx="1077.4" cy="282.0" rx="5.1" ry="3.5" fill="#22c55e" opacity="0.6"/>
</svg>