<svg xmlns="http://www.w3.org/2000/svg" viewBox="0 0 1200 300" width="1200" height="300">
<rect width="1200" height="300" fill="#f0e6d8"/>
<path d="M0 300 L0 210.0 C272.7 162.7, 984.7 191.6, 1200 210.0 L1200 300 Z" fill="#e4c4a8" opacity="0.3"/>
<rect x="328.1" y="243.8" width="40.1" height="56.2" fill="#daae87"/>
<rect x="798.2" y="244.6" width="41.3" height="55.4" fill="#daae87"/>
<rect x="206.4" y="218.4" width="68.1" height="81.6" fill="#c98951"/>
<rect x="223.4" y="230.4" width="6" height="8" fill="#dcb28e" opacity="0.5"/>
<rect x="223.4" y="246.4" width="6" height="8" fill="#dcb28e" opacity="0.5"/>
<rect x="237.4" y="246.4" width="6" height="8" fill="#dcb28e" opacity="0.5"/>
<rect x="251.4" y="246.4" width="6" height="8" fill="#dcb28e" opacity="0.5"/>
<rect x="223.4" y="262.4" width="6" height="8" fill="#dcb28e" opacity="0.5"/>
<rect x="237.4" y="262.4" width="6" height="8" fill="#dcb28e" opacity="0.5"/>
<rect x="855.7" y="229.1" width="71.8" height="70.9" fill="#c98951"/>
<rect x="874.7" y="241.1" width="6" height="8" fill="#dcb28e" opacity="0.5"/>
<rect x="902.7" y="241.1" width="6" height="8" fill="#dcb28e" opacity="0.5"/>
<rect x="888.7" y="257.1" width="6" height="8" fill="#dcb28e" opacity="0.5"/>
<rect x="902.7" y="257.1" width="6" height="8" fill="#dcb28e" opacity="0.5"/>
<rect x="874.7" y="273.1" width="6" height="8" fill="#dcb28e" opacity="0.5"/>
<rect x="888.7" y="273.1" width="6" height="8" fill="#dcb28e" opacity="0.5"/>
<rect x="902.7" y="273.1" width="6" height="8" fill="#dcb28e" opacity="0.5"/>
<rect x="361.1" y="258.2" width="44.9" height="41.8" fill="#bc6c25"/>
<rect x="899.7" y="254.0" width="33.0" height="46.0" fill="#bc6c25"/>
<rect x="0" y="298" width="1200" height="2" fill="#a96121" opacity="0.15"/>
</svg>