<svg xmlns="http://www.w3.org/2000/svg" viewBox="0 0 1200 300" width="1200" height="300">
<rect width="1200" height="300" fill="#e6eef4"/>
<path d="M0 300 L0 210.0 C180.9 160.8, 862.9 182.3, 1200 210.0 L1200 300 Z" fill="#b5cad8" opacity="0.3"/>
<rect x="278.4" y="267.1" width="87.0" height="32.9" fill="#99b6c9"/>
<rect x="842.6" y="261.0" width="81.8" height="39.0" fill="#99b6c9"/>
<rect x="290.2" y="217.7" width="79.1" height="82.3" fill="#6a95b1"/>
<rect x="319.8" y="229.7" width="6" height="8" fill="#9ebacc" opacity="0.5"/>
<rect x="333.8" y="229.7" width="6" height="8" fill="#9ebacc" opacity="0.5"/>
<rect x="347.8" y="229.7" width="6" height="8" fill="#9ebacc" opacity="0.5"/>
<rect x="305.8" y="245.7" width="6" height="8" fill="#9ebacc" opacity="0.5"/>
<rect x="319.8" y="245.7" width="6" height="8" fill="#9ebacc" opacity="0.5"/>
<rect x="347.8" y="245.7" width="6" height="8" fill="#9ebacc" opacity="0.5"/>
<rect x="319.8" y="261.7" width="6" height="8" fill="#9ebacc" opacity="0.5"/>
<rect x="333.8" y="261.7" width="6" height="8" fill="#9ebacc" opacity="0.5"/>
<rect x="347.8" y="261.7" width="6" height="8" fill="#9ebacc" opacity="0.5"/>
<rect x="855.4" y="237.9" width="57.9" height="62.1" fill="#6a95b1"/>
<rect x="874.3" y="249.9" width="6" height="8" fill="#9ebacc" opacity="0.5"/>
<rect x="888.3" y="249.9" width="6" height="8" fill="#9ebacc" opacity="0.5"/>
<rect x="888.3" y="265.9" width="6" height="8" fill="#9ebacc" opacity="0.5"/>
<rect x="351.5" y="200.2" width="70.0" height="99.8" fill="#457b9d"/>
<rect x="369.4" y="212.2" width="6" height="8" fill="#86a9bf" opacity="0.5"/>
<rect x="383.4" y="228.2" width="6" height="8" fill="#86a9bf" opacity="0.5"/>
<rect x="397.4" y="228.2" width="6" height="8" fill="#86a9bf" opacity="0.5"/>
<rect x="369.4" y="244.2" width="6" height="8" fill="#86a9bf" opacity="0.5"/>
<rect x="383.4" y="244.2" width="6" height="8" fill="#86a9bf" opacity="0.5"/>
<rect x="397.4" y="244.2" width="6" height="8" fill="#86a9bf" opacity="0.5"/>
<rect x="369.4" y="260.2" width="6" height="8" fill="#86a9bf" opacity="0.5"/>
<rect x="383.4" y="260.2" width="6" height="8" fill="#86a9bf" opacity="0.5"/>
<rect x="397.4" y="260.2" width="6" height="8" fill="#86a9bf" opacity="0.5"/>
<rect x="906.7" y="232.3" width="68.7" height="67.7" fill="#457b9d"/>
<rect x="924.0" y="244.3" width="6" height="8" fill="#86a9bf" opacity="0.5"/>
<rect x="938.0" y="244.3" width="6" height="8" fill="#86a9bf" opacity="0.5"/>
<rect x="952.0" y="244.3" width="6" height="8" fill="#86a9bf" opacity="0.5"/>
<rect x="924.0" y="260.3" width="6" height="8" fill="#86a9bf" opacity="0.5"/>
<rect x="938.0" y="260.3" width="6" height="8" fill="#86a9bf" opacity="0.5"/>
<rect x="952.0" y="260.3" width="6" height="8" fill="#86a9bf" opacity="0.5"/>
<rect x="0" y="298" width="1200" height="2" fill="#3e6f8d" opacity="0.15"/>
</svg>