<svg xmlns="http://www.w3.org/2000/svg" viewBox="0 0 1200 300" width="1200" height="300">
<defs>
<linearGradient id="skyGrad" x1="0" y1="0" x2="0" y2="1">
<stop offset="0%" stop-color="#a78bfa"/>
<stop offset="18%" stop-color="#ddb4f0"/>
<stop offset="35%" stop-color="#fda4af"/>
<stop offset="52%" stop-color="#fdba74"/>
<stop offset="72%" stop-color="#fef08a"/>
<stop offset="100%" stop-color="#fef9c3"/>
</linearGradient>
<linearGradient id="bldg_coral" x1="0" y1="0" x2="0" y2="1"><stop offset="0%" stop-color="#fecaca"/><stop offset="100%" stop-color="#fca5a5"/></linearGradient>
<linearGradient id="bldg_teal" x1="0" y1="0" x2="0" y2="1"><stop offset="0%" stop-color="#99f6e4"/><stop offset="100%" stop-color="#5eead4"/></linearGradient>
<linearGradient id="bldg_amber" x1="0" y1="0" x2="0" y2="1"><stop offset="0%" stop-color="#fde68a"/><stop offset="100%" stop-color="#fcd34d"/></linearGradient>
<linearGradient id="bldg_lavender" x1="0" y1="0" x2="0" y2="1"><stop offset="0%" stop-color="#ddd6fe"/><stop offset="100%" stop-color="#c4b5fd"/></linearGradient>
<linearGradient id="bldg_blue" x1="0" y1="0" x2="0" y2="1"><stop offset="0%" stop-color="#bfdbfe"/><stop offset="100%" stop-color="#93c5fd"/></linearGradient>
<linearGradient id="bldg_mint" x1="0" y1="0" x2="0" y2="1"><stop offset="0%" stop-color="#a7f3d0"/><stop offset="100%" stop-color="#6ee7b7"/></linearGradient>
<linearGradient id="bldg_rose" x1="0" y1="0" x2="0" y2="1"><stop offset="0%" stop-color="#fecdd3"/><stop offset="100%" stop-color="#fda4af"/></linearGradient>
<linearGradient id="bldg_sky" x1="0" y1="0" x2="0" y2="1"><stop offset="0%" stop-color="#bae6fd"/><stop offset="100%" stop-color="#7dd3fc"/></linearGradient>
<linearGradient id="roof_navyRoof" x1="0" y1="0" x2="0" y2="1"><stop offset="0%" stop-color="#4338ca"/><stop offset="100%" stop-color="#3730a3"/></linearGradient>
<linearGradient id="roof_coralRoof" x1="0" y1="0" x2="0" y2="1"><stop offset="0%" stop-color="#f87171"/><stop offset="100%" stop-color="#ef4444"/></linearGradient>
<linearGradient id="roof_tealRoof" x1="0" y1="0" x2="0" y2="1"><stop offset="0%" stop-color="#2dd4bf"/><stop offset="100%" stop-color="#14b8a6"/></linearGradient>
<radialGradient id="windowGlow" cx="50%" cy="50%" r="50%"><stop offset="0%" stop-color="#fef08a"/><stop offset="60%" stop-color="#fbbf24"/><stop offset="100%" stop-color="#f59e0b"/></radialGradient>
<linearGradient id="hillFar" x1="0" y1="0" x2="0" y2="1"><stop offset="0%" stop-color="#c4b5fd"/><stop offset="100%" stop-color="#a5b4fc"/></linearGradient>
<linearGradient id="hillMid" x1="0" y1="0" x2="0" y2="1"><stop offset="0%" stop-color="#86efac"/><stop offset="100%" stop-color="#4ade80"/></linearGradient>
<linearGradient id="hillNear" x1="0" y1="0" x2="0" y2="1"><stop offset="0%" stop-color="#34d399"/><stop offset="100%" stop-color="#10b981"/></linearGradient>
<linearGradient id="hillDesertFar" x1="0" y1="0" x2="0" y2="1"><stop offset="0%" stop-color="#fde68a"/><stop offset="100%" stop-color="#fcd34d"/></linearGradient>
<linearGradient id="hillDesertMid" x1="0" y1="0" x2="0" y2="1"><stop offset="0%" stop-color="#fcd34d"/><stop offset="100%" stop-color="#fbbf24"/></linearGradient>
<linearGradient id="hillDesertNear" x1="0" y1="0" x2="0" y2="1"><stop offset="0%" stop-color="#fbbf24"/><stop offset="100%" stop-color="#f59e0b"/></linearGradient>
<linearGradient id="groundGrad" x1="0" y1="0" x2="0" y2="1"><stop offset="0%" stop-color="#fef3c7"/><stop offset="100%" stop-color="#fde68a"/></linearGradient>
<linearGradient id="waterGrad" x1="0" y1="0" x2="0" y2="1"><stop offset="0%" stop-color="#bfdbfe"/><stop offset="100%" stop-color="#93c5fd"/></linearGradient>
<filter id="softGlow" x="-50%" y="-50%" width="200%" height="200%"><feGaussianBlur in="SourceGraphic" stdDeviation="12"/></filter>
</defs>
<rect width="1200" height="300" fill="url(#skyGrad)"/>
<circle cx="900.6" cy="39.6" r="45" fill="#fef08a" opacity="0.12" filter="url(#softGlow)"/>
<circle cx="900.6" cy="39.6" r="30" fill="#fde68a" opacity="0.18" filter="url(#softGlow)"/>
<circle cx="900.6" cy="39.6" r="16" fill="#fef9c3" opacity="0.25" filter="url(#softGlow)"/>
<path d="M0 300 L0.0 191.3 C245.0 191.3, 245.0 188.4, 490.0 188.4 C602.7 188.4, 602.7 190.6, 715.5 190.6 C957.7 190.6, 957.7 196.7, 1200.0 196.7 L1200 300 Z" fill="url(#hillFar)" opacity="0.5"/>
<path d="M0 300 L0.0 202.1 C165.0 202.1, 165.0 214.8, 330.0 214.8 C539.6 214.8, 539.6 203.3, 749.2 203.3 C974.6 203.3, 974.6 214.5, 1200.0 214.5 L1200 300 Z" fill="url(#hillMid)" opacity="0.7"/>
<path d="M0 300 L0.0 232.6 C247.4 232.6, 247.4 236.8, 494.7 236.8 C682.2 236.8, 682.2 230.7, 869.7 230.7 C1034.9 230.7, 1034.9 235.9, 1200.0 235.9 L1200 300 Z" fill="url(#hillNear)" opacity="1"/>
<rect x="146.0" y="238.6" width="89.5" height="61.4" rx="3" fill="url(#bldg_teal)" opacity="0.7"/>
<polygon points="146.0,238.6 190.8,216.2 235.5,238.6" fill="url(#roof_coralRoof)" opacity="0.7"/>
<rect x="180.8" y="248.6" width="6" height="8" rx="1" fill="url(#windowGlow)" opacity="0.998501045256155"/>
<rect x="194.8" y="248.6" width="6" height="8" rx="1" fill="url(#windowGlow)" opacity="0.7556217988746342"/>
<rect x="208.8" y="248.6" width="6" height="8" rx="1" fill="url(#windowGlow)" opacity="0.9362105188594247"/>
<rect x="536.1" y="212.2" width="86.4" height="87.8" rx="3" fill="url(#bldg_amber)" opacity="0.7"/>
<rect x="536.1" y="209.2" width="86.4" height="3" rx="1" fill="url(#roof_tealRoof)" opacity="0.7"/>
<rect x="555.2" y="222.2" width="6" height="8" rx="1" fill="url(#windowGlow)" opacity="0.7856279749822002"/>
<rect x="583.2" y="222.2" width="6" height="8" rx="1" fill="url(#windowGlow)" opacity="0.9191592576537091"/>
<rect x="597.2" y="222.2" width="6" height="8" rx="1" fill="url(#windowGlow)" opacity="0.8795574733426595"/>
<rect x="569.2" y="237.2" width="6" height="8" rx="1" fill="url(#windowGlow)" opacity="0.7725619212130839"/>
<rect x="583.2" y="237.2" width="6" height="8" rx="1" fill="url(#windowGlow)" opacity="0.7951911892253865"/>
<rect x="597.2" y="237.2" width="6" height="8" rx="1" fill="url(#windowGlow)" opacity="0.7550047246995404"/>
<rect x="555.2" y="252.2" width="6" height="8" rx="1" fill="url(#windowGlow)" opacity="0.8319680416639745"/>
<rect x="583.2" y="252.2" width="6" height="8" rx="1" fill="url(#windowGlow)" opacity="0.8320182482861067"/>
<rect x="597.2" y="252.2" width="6" height="8" rx="1" fill="url(#windowGlow)" opacity="0.7826263988309663"/>
<rect x="895.6" y="197.6" width="62.5" height="102.4" rx="3" fill="url(#bldg_lavender)" opacity="0.7"/>
<polygon points="895.6,197.6 926.9,179.8 958.1,197.6" fill="url(#roof_navyRoof)" opacity="0.7"/>
<rect x="909.9" y="207.6" width="6" height="8" rx="1" fill="url(#windowGlow)" opacity="0.7790837287805432"/>
<rect x="923.9" y="207.6" width="6" height="8" rx="1" fill="url(#windowGlow)" opacity="0.9441300265230843"/>
<rect x="937.9" y="207.6" width="6" height="8" rx="1" fill="url(#windowGlow)" opacity="0.7370932822754109"/>
<rect x="909.9" y="222.6" width="6" height="8" rx="1" fill="url(#windowGlow)" opacity="0.9939247233764849"/>
<rect x="923.9" y="222.6" width="6" height="8" rx="1" fill="url(#windowGlow)" opacity="0.8918038230816852"/>
<rect x="923.9" y="237.6" width="6" height="8" rx="1" fill="url(#windowGlow)" opacity="0.9314486789197887"/>
<rect x="909.9" y="252.6" width="6" height="8" rx="1" fill="url(#windowGlow)" opacity="0.8262149614869686"/>
<rect x="923.9" y="252.6" width="6" height="8" rx="1" fill="url(#windowGlow)" opacity="0.7573085427551104"/>
<rect x="136.1" y="181.7" width="43.1" height="118.3" rx="3" fill="url(#bldg_blue)" opacity="0.85"/>
<rect x="144.7" y="167.5" width="25.8" height="14.2" rx="2" fill="url(#roof_coralRoof)" opacity="0.85"/>
<rect x="154.7" y="191.7" width="6" height="8" rx="1" fill="url(#windowGlow)" opacity="0.9998478725086188"/>
<rect x="154.7" y="206.7" width="6" height="8" rx="1" fill="url(#windowGlow)" opacity="0.950805766345377"/>
<rect x="154.7" y="221.7" width="6" height="8" rx="1" fill="url(#windowGlow)" opacity="0.9291095254147004"/>
<rect x="154.7" y="236.7" width="6" height="8" rx="1" fill="url(#windowGlow)" opacity="0.9540727891279723"/>
<rect x="442.6" y="196.6" width="70.1" height="103.4" rx="3" fill="url(#bldg_mint)" opacity="0.85"/>
<rect x="442.6" y="193.6" width="70.1" height="3" rx="1" fill="url(#roof_tealRoof)" opacity="0.85"/>
<rect x="460.7" y="206.6" width="6" height="8" rx="1" fill="url(#windowGlow)" opacity="0.8619972870042534"/>
<rect x="474.7" y="206.6" width="6" height="8" rx="1" fill="url(#windowGlow)" opacity="0.7467999852014705"/>
<rect x="488.7" y="206.6" width="6" height="8" rx="1" fill="url(#windowGlow)" opacity="0.7875915219949519"/>
<rect x="460.7" y="221.6" width="6" height="8" rx="1" fill="url(#windowGlow)" opacity="0.7353248026852145"/>
<rect x="460.7" y="236.6" width="6" height="8" rx="1" fill="url(#windowGlow)" opacity="0.7895201194051281"/>
<rect x="474.7" y="236.6" width="6" height="8" rx="1" fill="url(#windowGlow)" opacity="0.8591210576049615"/>
<rect x="488.7" y="236.6" width="6" height="8" rx="1" fill="url(#windowGlow)" opacity="0.8087272801477123"/>
<rect x="460.7" y="251.6" width="6" height="8" rx="1" fill="url(#windowGlow)" opacity="0.8000128515064776"/>
<rect x="474.7" y="251.6" width="6" height="8" rx="1" fill="url(#windowGlow)" opacity="0.8065843521648013"/>
<rect x="488.7" y="251.6" width="6" height="8" rx="1" fill="url(#windowGlow)" opacity="0.8782627238325135"/>
<rect x="735.9" y="161.9" width="69.0" height="138.1" rx="3" fill="url(#bldg_rose)" opacity="0.85"/>
<polygon points="735.9,161.9 770.4,138.2 804.9,161.9" fill="url(#roof_navyRoof)" opacity="0.85"/>
<rect x="753.4" y="171.9" width="6" height="8" rx="1" fill="url(#windowGlow)" opacity="0.8503999453738331"/>
<rect x="781.4" y="171.9" width="6" height="8" rx="1" fill="url(#windowGlow)" opacity="0.7459484511734678"/>
<rect x="753.4" y="186.9" width="6" height="8" rx="1" fill="url(#windowGlow)" opacity="0.8276594937907809"/>
<rect x="767.4" y="186.9" width="6" height="8" rx="1" fill="url(#windowGlow)" opacity="0.7805055946020901"/>
<rect x="753.4" y="201.9" width="6" height="8" rx="1" fill="url(#windowGlow)" opacity="0.8637703407387111"/>
<rect x="767.4" y="201.9" width="6" height="8" rx="1" fill="url(#windowGlow)" opacity="0.9667601398503222"/>
<rect x="781.4" y="201.9" width="6" height="8" rx="1" fill="url(#windowGlow)" opacity="0.9059966193540006"/>
<rect x="753.4" y="216.9" width="6" height="8" rx="1" fill="url(#windowGlow)" opacity="0.7625061128579573"/>
<rect x="767.4" y="216.9" width="6" height="8" rx="1" fill="url(#windowGlow)" opacity="0.9025722458970603"/>
<rect x="781.4" y="216.9" width="6" height="8" rx="1" fill="url(#windowGlow)" opacity="0.8056972848743653"/>
<rect x="767.4" y="231.9" width="6" height="8" rx="1" fill="url(#windowGlow)" opacity="0.8373958043928238"/>
<rect x="781.4" y="231.9" width="6" height="8" rx="1" fill="url(#windowGlow)" opacity="0.7277656062169772"/>
<rect x="753.4" y="246.9" width="6" height="8" rx="1" fill="url(#windowGlow)" opacity="0.9851972161723288"/>
<rect x="767.4" y="246.9" width="6" height="8" rx="1" fill="url(#windowGlow)" opacity="0.7864785765234746"/>
<rect x="781.4" y="246.9" width="6" height="8" rx="1" fill="url(#windowGlow)" opacity="0.7965222392215031"/>
<rect x="1003.4" y="158.8" width="48.8" height="141.2" rx="3" fill="url(#bldg_sky)" opacity="0.85"/>
<polygon points="1003.4,158.8 1027.8,146.0 1052.2,158.8" fill="url(#roof_coralRoof)" opacity="0.85"/>
<rect x="1017.8" y="168.8" width="6" height="8" rx="1" fill="url(#windowGlow)" opacity="0.7452492812859124"/>
<rect x="1031.8" y="168.8" width="6" height="8" rx="1" fill="url(#windowGlow)" opacity="0.8209464972470637"/>
<rect x="1031.8" y="183.8" width="6" height="8" rx="1" fill="url(#windowGlow)" opacity="0.9266808040098663"/>
<rect x="1031.8" y="198.8" width="6" height="8" rx="1" fill="url(#windowGlow)" opacity="0.928382901022389"/>
<rect x="1017.8" y="213.8" width="6" height="8" rx="1" fill="url(#windowGlow)" opacity="0.8040460558161353"/>
<rect x="1031.8" y="213.8" width="6" height="8" rx="1" fill="url(#windowGlow)" opacity="0.7189708072780495"/>
<rect x="1017.8" y="228.8" width="6" height="8" rx="1" fill="url(#windowGlow)" opacity="0.9586203158174735"/>
<rect x="1031.8" y="228.8" width="6" height="8" rx="1" fill="url(#windowGlow)" opacity="0.8602444979177063"/>
<rect x="1017.8" y="243.8" width="6" height="8" rx="1" fill="url(#windowGlow)" opacity="0.8197445748000147"/>
<rect x="1031.8" y="243.8" width="6" height="8" rx="1" fill="url(#windowGlow)" opacity="0.7256097629785583"/>
<rect x="1031.8" y="258.8" width="6" height="8" rx="1" fill="url(#windowGlow)" opacity="0.8276501638943563"/>
<path d="M1008.2 208.2 L1027.8 208.2 L1024.8 214.2 L1011.2 214.2 Z" fill="url(#roof_navyRoof)" opacity="0.68"/>
<rect x="210.8" y="146.2" width="74.4" height="153.8" rx="3" fill="url(#bldg_coral)" opacity="1"/>
<polygon points="210.8,146.2 248.0,124.3 285.2,146.2" fill="url(#roof_tealRoof)" opacity="1"/>
<rect x="224.0" y="156.2" width="6" height="8" rx="1" fill="url(#windowGlow)" opacity="0.7971504072645448"/>
<rect x="238.0" y="156.2" width="6" height="8" rx="1" fill="url(#windowGlow)" opacity="0.8481949115396453"/>
<rect x="252.0" y="156.2" width="6" height="8" rx="1" fill="url(#windowGlow)" opacity="0.7112572104256866"/>
<rect x="224.0" y="171.2" width="6" height="8" rx="1" fill="url(#windowGlow)" opacity="0.8097963758324256"/>
<rect x="238.0" y="171.2" width="6" height="8" rx="1" fill="url(#windowGlow)" opacity="0.7903294283385991"/>
<rect x="252.0" y="171.2" width="6" height="8" rx="1" fill="url(#windowGlow)" opacity="0.8014404079417886"/>
<rect x="252.0" y="186.2" width="6" height="8" rx="1" fill="url(#windowGlow)" opacity="0.9331646565036683"/>
<rect x="224.0" y="201.2" width="6" height="8" rx="1" fill="url(#windowGlow)" opacity="0.879638321967627"/>
<rect x="238.0" y="201.2" width="6" height="8" rx="1" fill="url(#windowGlow)" opacity="0.9301758987969606"/>
<rect x="252.0" y="201.2" width="6" height="8" rx="1" fill="url(#windowGlow)" opacity="0.9178263248027425"/>
<rect x="266.0" y="201.2" width="6" height="8" rx="1" fill="url(#windowGlow)" opacity="0.9222633849933106"/>
<rect x="224.0" y="216.2" width="6" height="8" rx="1" fill="url(#windowGlow)" opacity="0.9509653820893565"/>
<rect x="238.0" y="216.2" width="6" height="8" rx="1" fill="url(#windowGlow)" opacity="0.7873760709014609"/>
<rect x="252.0" y="216.2" width="6" height="8" rx="1" fill="url(#windowGlow)" opacity="0.9164307055140057"/>
<rect x="266.0" y="216.2" width="6" height="8" rx="1" fill="url(#windowGlow)" opacity="0.8279110647402289"/>
<rect x="224.0" y="231.2" width="6" height="8" rx="1" fill="url(#windowGlow)" opacity="0.9010230134246047"/>
<rect x="238.0" y="231.2" width="6" height="8" rx="1" fill="url(#windowGlow)" opacity="0.7687073384731576"/>
<rect x="252.0" y="231.2" width="6" height="8" rx="1" fill="url(#windowGlow)" opacity="0.8349992924067188"/>
<rect x="266.0" y="231.2" width="6" height="8" rx="1" fill="url(#windowGlow)" opacity="0.9607444588377813"/>
<rect x="224.0" y="246.2" width="6" height="8" rx="1" fill="url(#windowGlow)" opacity="0.9296582467060807"/>
<rect x="252.0" y="246.2" width="6" height="8" rx="1" fill="url(#windowGlow)" opacity="0.8245211329425317"/>
<rect x="266.0" y="246.2" width="6" height="8" rx="1" fill="url(#windowGlow)" opacity="0.87123896361852"/>
<rect x="243.0" y="284.0" width="10" height="16" rx="2" fill="url(#roof_navyRoof)" opacity="0.8"/>
<rect x="245.0" y="287.0" width="6" height="10" rx="1" fill="url(#windowGlow)" opacity="0.45"/>
<rect x="550.5" y="218.9" width="61.8" height="81.1" rx="3" fill="url(#bldg_teal)" opacity="1"/>
<polygon points="550.5,218.9 581.4,201.9 612.4,218.9" fill="url(#roof_navyRoof)" opacity="1"/>
<rect x="578.4" y="228.9" width="6" height="8" rx="1" fill="url(#windowGlow)" opacity="0.7526696488506485"/>
<rect x="592.4" y="228.9" width="6" height="8" rx="1" fill="url(#windowGlow)" opacity="0.7227861995914886"/>
<rect x="564.4" y="243.9" width="6" height="8" rx="1" fill="url(#windowGlow)" opacity="0.8159339188206632"/>
<rect x="564.4" y="258.9" width="6" height="8" rx="1" fill="url(#windowGlow)" opacity="0.8325689953437861"/>
<rect x="578.4" y="258.9" width="6" height="8" rx="1" fill="url(#windowGlow)" opacity="0.8513162933063303"/>
<rect x="592.4" y="258.9" width="6" height="8" rx="1" fill="url(#windowGlow)" opacity="0.784730821328578"/>
<rect x="576.4" y="284.0" width="10" height="16" rx="2" fill="url(#roof_navyRoof)" opacity="0.8"/>
<rect x="578.4" y="287.0" width="6" height="10" rx="1" fill="url(#windowGlow)" opacity="0.45"/>
<rect x="980.3" y="181.9" width="63.9" height="118.1" rx="3" fill="url(#bldg_amber)" opacity="1"/>
<rect x="993.1" y="167.8" width="38.3" height="14.2" rx="2" fill="url(#roof_coralRoof)" opacity="1"/>
<rect x="995.3" y="191.9" width="6" height="8" rx="1" fill="url(#windowGlow)" opacity="0.9042654178590818"/>
<rect x="1023.3" y="191.9" width="6" height="8" rx="1" fill="url(#windowGlow)" opacity="0.8036370030155577"/>
<rect x="995.3" y="206.9" width="6" height="8" rx="1" fill="url(#windowGlow)" opacity="0.7401945636794877"/>
<rect x="1009.3" y="206.9" width="6" height="8" rx="1" fill="url(#windowGlow)" opacity="0.8750702892314038"/>
<rect x="1023.3" y="206.9" width="6" height="8" rx="1" fill="url(#windowGlow)" opacity="0.7655237569778802"/>
<rect x="995.3" y="221.9" width="6" height="8" rx="1" fill="url(#windowGlow)" opacity="0.9316181468924591"/>
<rect x="1009.3" y="221.9" width="6" height="8" rx="1" fill="url(#windowGlow)" opacity="0.8826648665511351"/>
<rect x="1023.3" y="221.9" width="6" height="8" rx="1" fill="url(#windowGlow)" opacity="0.9101934463764509"/>
<rect x="995.3" y="236.9" width="6" height="8" rx="1" fill="url(#windowGlow)" opacity="0.92681681924817"/>
<rect x="1009.3" y="236.9" width="6" height="8" rx="1" fill="url(#windowGlow)" opacity="0.7895417912348833"/>
<rect x="1023.3" y="236.9" width="6" height="8" rx="1" fill="url(#windowGlow)" opacity="0.9474416950938486"/>
<rect x="1009.3" y="251.9" width="6" height="8" rx="1" fill="url(#windowGlow)" opacity="0.8635241504123081"/>
<rect x="1023.3" y="251.9" width="6" height="8" rx="1" fill="url(#windowGlow)" opacity="0.8739741364838435"/>
<rect x="1007.3" y="284.0" width="10" height="16" rx="2" fill="url(#roof_navyRoof)" opacity="0.8"/>
<rect x="1009.3" y="287.0" width="6" height="10" rx="1" fill="url(#windowGlow)" opacity="0.45"/>
<rect x="1001.1" y="222.9" width="22.4" height="5" rx="1" fill="#15803d" opacity="0.7"/>
<circle cx="1004.1" cy="221.9" r="2.5" fill="#fb923c" opacity="0.85"/>
<circle cx="1011.6" cy="221.9" r="2.5" fill="#f87171" opacity="0.85"/>
<circle cx="1019.0" cy="221.9" r="2.5" fill="#fb923c" opacity="0.85"/>
<path d="M417.9 285.0 Q435.9 262.3 428.7 239.6" stroke="#92400e" stroke-width="4" fill="none" stroke-linecap="round"/>
<path d="M428.7 239.6 Q418.3 229.3 411.3 230.0" stroke="#16a34a" stroke-width="2.5" fill="none" stroke-linecap="round"/>
<path d="M428.7 239.6 Q436.2 226.0 441.3 222.9" stroke="#22c55e" stroke-width="2.5" fill="none" stroke-linecap="round"/>
<path d="M428.7 239.6 Q444.7 233.6 455.3 239.6" stroke="#15803d" stroke-width="2.5" fill="none" stroke-linecap="round"/>
<path d="M428.7 239.6 Q436.4 241.4 441.5 256.7" stroke="#4ade80" stroke-width="2.5" fill="none" stroke-linecap="round"/>
<path d="M428.7 239.6 Q419.8 237.3 413.9 247.8" stroke="#16a34a" stroke-width="2.5" fill="none" stroke-linecap="round"/>
<path d="M796.4 285.0 Q820.6 258.3 810.9 231.6" stroke="#92400e" stroke-width="4" fill="none" stroke-linecap="round"/>
<path d="M810.9 231.6 Q801.1 221.5 794.5 222.6" stroke="#16a34a" stroke-width="2.5" fill="none" stroke-linecap="round"/>
<path d="M810.9 231.6 Q817.2 219.2 821.5 217.5" stroke="#22c55e" stroke-width="2.5" fill="none" stroke-linecap="round"/>
<path d="M810.9 231.6 Q827.4 225.6 838.4 231.6" stroke="#15803d" stroke-width="2.5" fill="none" stroke-linecap="round"/>
<path d="M810.9 231.6 Q817.7 232.4 822.2 246.6" stroke="#4ade80" stroke-width="2.5" fill="none" stroke-linecap="round"/>
<path d="M810.9 231.6 Q798.8 230.6 790.7 242.7" stroke="#16a34a" stroke-width="2.5" fill="none" stroke-linecap="round"/>
<path d="M175.6 285.0 Q199.4 255.6 189.9 226.1" stroke="#92400e" stroke-width="4" fill="none" stroke-linecap="round"/>
<path d="M189.9 226.1 Q175.6 214.2 166.0 213.0" stroke="#16a34a" stroke-width="2.5" fill="none" stroke-linecap="round"/>
<path d="M189.9 226.1 Q196.8 213.2 201.3 211.0" stroke="#22c55e" stroke-width="2.5" fill="none" stroke-linecap="round"/>
<path d="M189.9 226.1 Q203.9 220.1 213.2 226.1" stroke="#15803d" stroke-width="2.5" fill="none" stroke-linecap="round"/>
<path d="M189.9 226.1 Q196.3 226.5 200.5 240.2" stroke="#4ade80" stroke-width="2.5" fill="none" stroke-linecap="round"/>
<path d="M189.9 226.1 Q180.6 224.0 174.4 234.6" stroke="#16a34a" stroke-width="2.5" fill="none" stroke-linecap="round"/>
<path d="M1080.3 285.0 Q1108.6 259.2 1097.3 233.5" stroke="#92400e" stroke-width="4" fill="none" stroke-linecap="round"/>
<path d="M1097.3 233.5 Q1086.6 223.0 1079.5 223.7" stroke="#16a34a" stroke-width="2.5" fill="none" stroke-linecap="round"/>
<path d="M1097.3 233.5 Q1103.6 221.1 1107.8 219.5" stroke="#22c55e" stroke-width="2.5" fill="none" stroke-linecap="round"/>
<path d="M1097.3 233.5 Q1114.7 227.5 1126.4 233.5" stroke="#15803d" stroke-width="2.5" fill="none" stroke-linecap="round"/>
<path d="M1097.3 233.5 Q1102.6 232.8 1106.2 245.3" stroke="#4ade80" stroke-width="2.5" fill="none" stroke-linecap="round"/>
<path d="M1097.3 233.5 Q1084.2 232.9 1075.4 245.5" stroke="#16a34a" stroke-width="2.5" fill="none" stroke-linecap="round"/>
<path d="M990.5 285.0 Q1019.7 259.8 1008.0 234.7" stroke="#92400e" stroke-width="4" fill="none" stroke-linecap="round"/>
<path d="M1008.0 234.7 Q997.8 224.4 991.0 225.3" stroke="#16a34a" stroke-width="2.5" fill="none" stroke-linecap="round"/>
<path d="M1008.0 234.7 Q1014.4 222.2 1018.7 220.5" stroke="#22c55e" stroke-width="2.5" fill="none" stroke-linecap="round"/>
<path d="M1008.0 234.7 Q1024.9 228.7 1036.2 234.7" stroke="#15803d" stroke-width="2.5" fill="none" stroke-linecap="round"/>
<path d="M1008.0 234.7 Q1013.1 233.8 1016.4 245.9" stroke="#4ade80" stroke-width="2.5" fill="none" stroke-linecap="round"/>
<path d="M1008.0 234.7 Q999.2 232.4 993.3 242.8" stroke="#16a34a" stroke-width="2.5" fill="none" stroke-linecap="round"/>
<path d="M368.2 285.0 Q385.9 258.4 378.8 231.9" stroke="#92400e" stroke-width="4" fill="none" stroke-linecap="round"/>
<path d="M378.8 231.9 Q369.0 221.8 362.4 222.9" stroke="#16a34a" stroke-width="2.5" fill="none" stroke-linecap="round"/>
<path d="M378.8 231.9 Q386.1 218.6 390.9 215.9" stroke="#22c55e" stroke-width="2.5" fill="none" stroke-linecap="round"/>
<path d="M378.8 231.9 Q396.9 225.9 408.9 231.9" stroke="#15803d" stroke-width="2.5" fill="none" stroke-linecap="round"/>
<path d="M378.8 231.9 Q383.8 230.9 387.1 242.9" stroke="#4ade80" stroke-width="2.5" fill="none" stroke-linecap="round"/>
<path d="M378.8 231.9 Q368.4 230.2 361.4 241.4" stroke="#16a34a" stroke-width="2.5" fill="none" stroke-linecap="round"/>
<rect x="0" y="282" width="1200" height="18" fill="url(#groundGrad)"/>
<line x1="153.1" y1="282.0" x2="153.1" y2="249.5" stroke="#92400e" stroke-width="2"/>
<circle cx="153.1" cy="249.5" r="4" fill="#fef08a" opacity="0.6"/>
<circle cx="153.1" cy="249.5" r="8" fill="#fef08a" opacity="0.15" filter="url(#softGlow)"/>
<line x1="611.1" y1="282.0" x2="611.1" y2="240.9" stroke="#92400e" stroke-width="2"/>
<circle cx="611.1" cy="240.9" r="4" fill="#fef08a" opacity="0.6"/>
<circle cx="611.1" cy="240.9" r="8" fill="#fef08a" opacity="0.15" filter="url(#softGlow)"/>
<ellipse cx="1042.2" cy="282.0" rx="6.5" ry="4.5" fill="#22c55e" opacity="0.6"/>
<ellipse cx="1157.8" cy="282.0" rx="4.4" ry="3.1" fill="#22c55e" opacity="0.6"/>
<ellipse cx="884.0" cy="282.0" rx="5.6" ry="3.9" fill="#22c55e" opacity="0.6"/>
<ellipse cx="1127.0" cy="282.0" rx="6.4" ry="4.5" fill="#22c55e" opacity="0.6"/>
</svg>