<svg xmlns="http://www.w3.org/2000/svg" viewBox="0 0 1200 300" width="1200" height="300">
<defs>
<linearGradient id="skyGrad" x1="0" y1="0" x2="0" y2="1">
<stop offset="0%" stop-color="#a78bfa"/>
<stop offset="18%" stop-color="#ddb4f0"/>
<stop offset="35%" stop-color="#fda4af"/>
<stop offset="52%" stop-color="#fdba74"/>
<stop offset="72%" stop-color="#fef08a"/>
<stop offset="100%" stop-color="#fef9c3"/>
</linearGradient>
<linearGradient id="bldg_coral" x1="0" y1="0" x2="0" y2="1"><stop offset="0%" stop-color="#fecaca"/><stop offset="100%" stop-color="#fca5a5"/></linearGradient>
<linearGradient id="bldg_teal" x1="0" y1="0" x2="0" y2="1"><stop offset="0%" stop-color="#99f6e4"/><stop offset="100%" stop-color="#5eead4"/></linearGradient>
<linearGradient id="bldg_amber" x1="0" y1="0" x2="0" y2="1"><stop offset="0%" stop-color="#fde68a"/><stop offset="100%" stop-color="#fcd34d"/></linearGradient>
<linearGradient id="bldg_lavender" x1="0" y1="0" x2="0" y2="1"><stop offset="0%" stop-color="#ddd6fe"/><stop offset="100%" stop-color="#c4b5fd"/></linearGradient>
<linearGradient id="bldg_blue" x1="0" y1="0" x2="0" y2="1"><stop offset="0%" stop-color="#bfdbfe"/><stop offset="100%" stop-color="#93c5fd"/></linearGradient>
<linearGradient id="bldg_mint" x1="0" y1="0" x2="0" y2="1"><stop offset="0%" stop-color="#a7f3d0"/><stop offset="100%" stop-color="#6ee7b7"/></linearGradient>
<linearGradient id="bldg_rose" x1="0" y1="0" x2="0" y2="1"><stop offset="0%" stop-color="#fecdd3"/><stop offset="100%" stop-color="#fda4af"/></linearGradient>
<linearGradient id="bldg_sky" x1="0" y1="0" x2="0" y2="1"><stop offset="0%" stop-color="#bae6fd"/><stop offset="100%" stop-color="#7dd3fc"/></linearGradient>
<linearGradient id="roof_navyRoof" x1="0" y1="0" x2="0" y2="1"><stop offset="0%" stop-color="#4338ca"/><stop offset="100%" stop-color="#3730a3"/></linearGradient>
<linearGradient id="roof_coralRoof" x1="0" y1="0" x2="0" y2="1"><stop offset="0%" stop-color="#f87171"/><stop offset="100%" stop-color="#ef4444"/></linearGradient>
<linearGradient id="roof_tealRoof" x1="0" y1="0" x2="0" y2="1"><stop offset="0%" stop-color="#2dd4bf"/><stop offset="100%" stop-color="#14b8a6"/></linearGradient>
<radialGradient id="windowGlow" cx="50%" cy="50%" r="50%"><stop offset="0%" stop-color="#fef08a"/><stop offset="60%" stop-color="#fbbf24"/><stop offset="100%" stop-color="#f59e0b"/></radialGradient>
<linearGradient id="hillFar" x1="0" y1="0" x2="0" y2="1"><stop offset="0%" stop-color="#c4b5fd"/><stop offset="100%" stop-color="#a5b4fc"/></linearGradient>
<linearGradient id="hillMid" x1="0" y1="0" x2="0" y2="1"><stop offset="0%" stop-color="#86efac"/><stop offset="100%" stop-color="#4ade80"/></linearGradient>
<linearGradient id="hillNear" x1="0" y1="0" x2="0" y2="1"><stop offset="0%" stop-color="#34d399"/><stop offset="100%" stop-color="#10b981"/></linearGradient>
<linearGradient id="hillDesertFar" x1="0" y1="0" x2="0" y2="1"><stop offset="0%" stop-color="#fde68a"/><stop offset="100%" stop-color="#fcd34d"/></linearGradient>
<linearGradient id="hillDesertMid" x1="0" y1="0" x2="0" y2="1"><stop offset="0%" stop-color="#fcd34d"/><stop offset="100%" stop-color="#fbbf24"/></linearGradient>
<linearGradient id="hillDesertNear" x1="0" y1="0" x2="0" y2="1"><stop offset="0%" stop-color="#fbbf24"/><stop offset="100%" stop-color="#f59e0b"/></linearGradient>
<linearGradient id="groundGrad" x1="0" y1="0" x2="0" y2="1"><stop offset="0%" stop-color="#fef3c7"/><stop offset="100%" stop-color="#fde68a"/></linearGradient>
<linearGradient id="waterGrad" x1="0" y1="0" x2="0" y2="1"><stop offset="0%" stop-color="#bfdbfe"/><stop offset="100%" stop-color="#93c5fd"/></linearGradient>
<filter id="softGlow" x="-50%" y="-50%" width="200%" height="200%"><feGaussianBlur in="SourceGraphic" stdDeviation="12"/></filter>
</defs>
<rect width="1200" height="300" fill="url(#skyGrad)"/>
<circle cx="1064.0" cy="50.9" r="45" fill="#fef08a" opacity="0.12" filter="url(#softGlow)"/>
<circle cx="1064.0" cy="50.9" r="30" fill="#fde68a" opacity="0.18" filter="url(#softGlow)"/>
<circle cx="1064.0" cy="50.9" r="16" fill="#fef9c3" opacity="0.25" filter="url(#softGlow)"/>
<path d="M0 300 L0.0 179.7 C193.8 179.7, 193.8 191.4, 387.6 191.4 C608.7 191.4, 608.7 176.1, 829.9 176.1 C1014.9 176.1, 1014.9 188.3, 1200.0 188.3 L1200 300 Z" fill="url(#hillFar)" opacity="0.5"/>
<path d="M0 300 L0.0 205.1 C220.7 205.1, 220.7 215.2, 441.4 215.2 C600.7 215.2, 600.7 207.9, 760.1 207.9 C980.0 207.9, 980.0 217.7, 1200.0 217.7 L1200 300 Z" fill="url(#hillMid)" opacity="0.7"/>
<path d="M0 300 L0.0 227.7 C166.8 227.7, 166.8 229.1, 333.6 229.1 C610.8 229.1, 610.8 233.6, 888.0 233.6 C1044.0 233.6, 1044.0 232.7, 1200.0 232.7 L1200 300 Z" fill="url(#hillNear)" opacity="1"/>
<rect x="143.2" y="204.6" width="77.0" height="95.4" rx="3" fill="url(#bldg_mint)" opacity="0.7"/>
<rect x="143.2" y="201.6" width="77.0" height="3" rx="1" fill="url(#roof_coralRoof)" opacity="0.7"/>
<rect x="157.7" y="214.6" width="6" height="8" rx="1" fill="url(#windowGlow)" opacity="0.9896045030046274"/>
<rect x="171.7" y="214.6" width="6" height="8" rx="1" fill="url(#windowGlow)" opacity="0.91678807061016"/>
<rect x="199.7" y="214.6" width="6" height="8" rx="1" fill="url(#windowGlow)" opacity="0.9511361024580598"/>
<rect x="157.7" y="229.6" width="6" height="8" rx="1" fill="url(#windowGlow)" opacity="0.9710183101105588"/>
<rect x="171.7" y="229.6" width="6" height="8" rx="1" fill="url(#windowGlow)" opacity="0.837344330985725"/>
<rect x="199.7" y="229.6" width="6" height="8" rx="1" fill="url(#windowGlow)" opacity="0.7104668246165229"/>
<rect x="157.7" y="244.6" width="6" height="8" rx="1" fill="url(#windowGlow)" opacity="0.9433869534839815"/>
<rect x="171.7" y="244.6" width="6" height="8" rx="1" fill="url(#windowGlow)" opacity="0.9925913237932097"/>
<rect x="199.7" y="244.6" width="6" height="8" rx="1" fill="url(#windowGlow)" opacity="0.9914616238751734"/>
<rect x="185.7" y="259.6" width="6" height="8" rx="1" fill="url(#windowGlow)" opacity="0.9977045665018747"/>
<rect x="199.7" y="259.6" width="6" height="8" rx="1" fill="url(#windowGlow)" opacity="0.7624225195787951"/>
<rect x="585.2" y="234.1" width="68.1" height="65.9" rx="3" fill="url(#bldg_rose)" opacity="0.7"/>
<rect x="598.8" y="226.1" width="40.9" height="7.9" rx="2" fill="url(#roof_tealRoof)" opacity="0.7"/>
<rect x="602.2" y="244.1" width="6" height="8" rx="1" fill="url(#windowGlow)" opacity="0.9241841147300713"/>
<rect x="616.2" y="244.1" width="6" height="8" rx="1" fill="url(#windowGlow)" opacity="0.8675515012198833"/>
<rect x="975.0" y="202.8" width="74.1" height="97.2" rx="3" fill="url(#bldg_sky)" opacity="0.7"/>
<polygon points="975.0,202.8 1012.1,181.2 1049.1,202.8" fill="url(#roof_navyRoof)" opacity="0.7"/>
<rect x="1016.1" y="212.8" width="6" height="8" rx="1" fill="url(#windowGlow)" opacity="0.7774721469625234"/>
<rect x="1030.1" y="212.8" width="6" height="8" rx="1" fill="url(#windowGlow)" opacity="0.9909930515992422"/>
<rect x="1002.1" y="227.8" width="6" height="8" rx="1" fill="url(#windowGlow)" opacity="0.805803531643843"/>
<rect x="1016.1" y="227.8" width="6" height="8" rx="1" fill="url(#windowGlow)" opacity="0.9583966939050688"/>
<rect x="1030.1" y="227.8" width="6" height="8" rx="1" fill="url(#windowGlow)" opacity="0.9378380225216215"/>
<rect x="988.1" y="242.8" width="6" height="8" rx="1" fill="url(#windowGlow)" opacity="0.8955260034629731"/>
<rect x="1002.1" y="242.8" width="6" height="8" rx="1" fill="url(#windowGlow)" opacity="0.9205696462749362"/>
<rect x="1016.1" y="242.8" width="6" height="8" rx="1" fill="url(#windowGlow)" opacity="0.9584084028650114"/>
<rect x="1030.1" y="242.8" width="6" height="8" rx="1" fill="url(#windowGlow)" opacity="0.89390657366901"/>
<rect x="988.1" y="257.8" width="6" height="8" rx="1" fill="url(#windowGlow)" opacity="0.9337610684492443"/>
<rect x="1002.1" y="257.8" width="6" height="8" rx="1" fill="url(#windowGlow)" opacity="0.7009910756726707"/>
<rect x="1016.1" y="257.8" width="6" height="8" rx="1" fill="url(#windowGlow)" opacity="0.8243953844180308"/>
<rect x="1030.1" y="257.8" width="6" height="8" rx="1" fill="url(#windowGlow)" opacity="0.9556677856741789"/>
<rect x="122.0" y="216.9" width="53.0" height="83.1" rx="3" fill="url(#bldg_coral)" opacity="0.85"/>
<rect x="122.0" y="213.9" width="53.0" height="3" rx="1" fill="url(#roof_coralRoof)" opacity="0.85"/>
<rect x="138.5" y="226.9" width="6" height="8" rx="1" fill="url(#windowGlow)" opacity="0.8448235905006637"/>
<rect x="138.5" y="241.9" width="6" height="8" rx="1" fill="url(#windowGlow)" opacity="0.9667851137308334"/>
<rect x="152.5" y="241.9" width="6" height="8" rx="1" fill="url(#windowGlow)" opacity="0.9732555543413643"/>
<path d="M148.5 246.0 L169.7 246.0 L166.7 252.0 L151.5 252.0 Z" fill="url(#roof_navyRoof)" opacity="0.68"/>
<rect x="441.7" y="165.2" width="69.5" height="134.8" rx="3" fill="url(#bldg_teal)" opacity="0.85"/>
<rect x="441.7" y="162.2" width="69.5" height="3" rx="1" fill="url(#roof_tealRoof)" opacity="0.85"/>
<rect x="459.5" y="175.2" width="6" height="8" rx="1" fill="url(#windowGlow)" opacity="0.717304777315494"/>
<rect x="473.5" y="175.2" width="6" height="8" rx="1" fill="url(#windowGlow)" opacity="0.8578886314564796"/>
<rect x="487.5" y="175.2" width="6" height="8" rx="1" fill="url(#windowGlow)" opacity="0.7178524849553837"/>
<rect x="459.5" y="190.2" width="6" height="8" rx="1" fill="url(#windowGlow)" opacity="0.961487332527287"/>
<rect x="459.5" y="205.2" width="6" height="8" rx="1" fill="url(#windowGlow)" opacity="0.7363536472135939"/>
<rect x="473.5" y="205.2" width="6" height="8" rx="1" fill="url(#windowGlow)" opacity="0.7812191644596025"/>
<rect x="487.5" y="205.2" width="6" height="8" rx="1" fill="url(#windowGlow)" opacity="0.791280214577578"/>
<rect x="473.5" y="220.2" width="6" height="8" rx="1" fill="url(#windowGlow)" opacity="0.8617434286334288"/>
<rect x="487.5" y="220.2" width="6" height="8" rx="1" fill="url(#windowGlow)" opacity="0.8162120971438531"/>
<rect x="459.5" y="235.2" width="6" height="8" rx="1" fill="url(#windowGlow)" opacity="0.9478206015414654"/>
<rect x="473.5" y="235.2" width="6" height="8" rx="1" fill="url(#windowGlow)" opacity="0.7576148540981182"/>
<rect x="487.5" y="235.2" width="6" height="8" rx="1" fill="url(#windowGlow)" opacity="0.9713103671890266"/>
<rect x="459.5" y="250.2" width="6" height="8" rx="1" fill="url(#windowGlow)" opacity="0.9271931767590311"/>
<rect x="473.5" y="250.2" width="6" height="8" rx="1" fill="url(#windowGlow)" opacity="0.7739542397083501"/>
<rect x="487.5" y="250.2" width="6" height="8" rx="1" fill="url(#windowGlow)" opacity="0.8004055438099454"/>
<rect x="702.8" y="197.6" width="41.5" height="102.4" rx="3" fill="url(#bldg_amber)" opacity="0.85"/>
<polygon points="702.8,197.6 723.6,188.4 744.4,197.6" fill="url(#roof_navyRoof)" opacity="0.85"/>
<rect x="720.6" y="207.6" width="6" height="8" rx="1" fill="url(#windowGlow)" opacity="0.9921207710132565"/>
<rect x="720.6" y="222.6" width="6" height="8" rx="1" fill="url(#windowGlow)" opacity="0.7021541316537904"/>
<rect x="720.6" y="237.6" width="6" height="8" rx="1" fill="url(#windowGlow)" opacity="0.999647666979417"/>
<rect x="720.6" y="252.6" width="6" height="8" rx="1" fill="url(#windowGlow)" opacity="0.9418915431675927"/>
<rect x="968.9" y="201.7" width="70.9" height="98.3" rx="3" fill="url(#bldg_lavender)" opacity="0.85"/>
<rect x="983.1" y="189.9" width="42.6" height="11.8" rx="2" fill="url(#roof_coralRoof)" opacity="0.85"/>
<rect x="1001.4" y="211.7" width="6" height="8" rx="1" fill="url(#windowGlow)" opacity="0.8653923859658615"/>
<rect x="1015.4" y="211.7" width="6" height="8" rx="1" fill="url(#windowGlow)" opacity="0.7471035488169191"/>
<rect x="987.4" y="226.7" width="6" height="8" rx="1" fill="url(#windowGlow)" opacity="0.8756554860508328"/>
<rect x="1001.4" y="226.7" width="6" height="8" rx="1" fill="url(#windowGlow)" opacity="0.917729457382918"/>
<rect x="1015.4" y="226.7" width="6" height="8" rx="1" fill="url(#windowGlow)" opacity="0.7101158515597301"/>
<rect x="987.4" y="241.7" width="6" height="8" rx="1" fill="url(#windowGlow)" opacity="0.7732529286636286"/>
<rect x="1001.4" y="241.7" width="6" height="8" rx="1" fill="url(#windowGlow)" opacity="0.963727353542916"/>
<rect x="1015.4" y="241.7" width="6" height="8" rx="1" fill="url(#windowGlow)" opacity="0.8394425767191883"/>
<rect x="987.4" y="256.7" width="6" height="8" rx="1" fill="url(#windowGlow)" opacity="0.8187783045316014"/>
<rect x="1001.4" y="256.7" width="6" height="8" rx="1" fill="url(#windowGlow)" opacity="0.9023689867008333"/>
<rect x="1015.4" y="256.7" width="6" height="8" rx="1" fill="url(#windowGlow)" opacity="0.9806214403736504"/>
<rect x="147.5" y="148.9" width="42.3" height="151.1" rx="3" fill="url(#bldg_blue)" opacity="1"/>
<rect x="147.5" y="145.9" width="42.3" height="3" rx="1" fill="url(#roof_tealRoof)" opacity="1"/>
<rect x="165.7" y="158.9" width="6" height="8" rx="1" fill="url(#windowGlow)" opacity="0.9866460869492246"/>
<rect x="165.7" y="173.9" width="6" height="8" rx="1" fill="url(#windowGlow)" opacity="0.7473541733098003"/>
<rect x="165.7" y="203.9" width="6" height="8" rx="1" fill="url(#windowGlow)" opacity="0.8067684659765886"/>
<rect x="165.7" y="218.9" width="6" height="8" rx="1" fill="url(#windowGlow)" opacity="0.8415737168125685"/>
<rect x="165.7" y="233.9" width="6" height="8" rx="1" fill="url(#windowGlow)" opacity="0.9358834908045285"/>
<rect x="165.7" y="248.9" width="6" height="8" rx="1" fill="url(#windowGlow)" opacity="0.9514395154786479"/>
<rect x="163.7" y="284.0" width="10" height="16" rx="2" fill="url(#roof_navyRoof)" opacity="0.8"/>
<rect x="165.7" y="287.0" width="6" height="10" rx="1" fill="url(#windowGlow)" opacity="0.45"/>
<path d="M151.8 201.8 L168.7 201.8 L165.7 207.8 L154.8 207.8 Z" fill="url(#roof_coralRoof)" opacity="0.8"/>
<rect x="449.2" y="230.5" width="64.9" height="69.5" rx="3" fill="url(#bldg_mint)" opacity="1"/>
<polygon points="449.2,230.5 481.7,215.9 514.1,230.5" fill="url(#roof_navyRoof)" opacity="1"/>
<rect x="464.7" y="240.5" width="6" height="8" rx="1" fill="url(#windowGlow)" opacity="0.8880431999396733"/>
<rect x="478.7" y="240.5" width="6" height="8" rx="1" fill="url(#windowGlow)" opacity="0.9607822746321475"/>
<rect x="478.7" y="255.5" width="6" height="8" rx="1" fill="url(#windowGlow)" opacity="0.9548953203740042"/>
<rect x="492.7" y="255.5" width="6" height="8" rx="1" fill="url(#windowGlow)" opacity="0.7848815307416401"/>
<rect x="476.7" y="284.0" width="10" height="16" rx="2" fill="url(#roof_navyRoof)" opacity="0.8"/>
<rect x="478.7" y="287.0" width="6" height="10" rx="1" fill="url(#windowGlow)" opacity="0.45"/>
<rect x="701.7" y="183.1" width="48.1" height="116.9" rx="3" fill="url(#bldg_rose)" opacity="1"/>
<rect x="711.4" y="169.1" width="28.8" height="14.0" rx="2" fill="url(#roof_coralRoof)" opacity="1"/>
<rect x="715.8" y="193.1" width="6" height="8" rx="1" fill="url(#windowGlow)" opacity="0.9811884215014001"/>
<rect x="729.8" y="193.1" width="6" height="8" rx="1" fill="url(#windowGlow)" opacity="0.7298465598047927"/>
<rect x="715.8" y="208.1" width="6" height="8" rx="1" fill="url(#windowGlow)" opacity="0.9601437341236247"/>
<rect x="729.8" y="208.1" width="6" height="8" rx="1" fill="url(#windowGlow)" opacity="0.7800870353263276"/>
<rect x="715.8" y="223.1" width="6" height="8" rx="1" fill="url(#windowGlow)" opacity="0.779013806664857"/>
<rect x="729.8" y="223.1" width="6" height="8" rx="1" fill="url(#windowGlow)" opacity="0.8061618179111564"/>
<rect x="715.8" y="238.1" width="6" height="8" rx="1" fill="url(#windowGlow)" opacity="0.7337944945943515"/>
<rect x="729.8" y="238.1" width="6" height="8" rx="1" fill="url(#windowGlow)" opacity="0.8507552242142871"/>
<rect x="715.8" y="253.1" width="6" height="8" rx="1" fill="url(#windowGlow)" opacity="0.7641606998462978"/>
<rect x="729.8" y="253.1" width="6" height="8" rx="1" fill="url(#windowGlow)" opacity="0.8672167014643627"/>
<rect x="720.8" y="284.0" width="10" height="16" rx="2" fill="url(#roof_navyRoof)" opacity="0.8"/>
<rect x="722.8" y="287.0" width="6" height="10" rx="1" fill="url(#windowGlow)" opacity="0.45"/>
<rect x="962.4" y="176.3" width="54.8" height="123.7" rx="3" fill="url(#bldg_sky)" opacity="1"/>
<polygon points="962.4,176.3 989.8,157.2 1017.3,176.3" fill="url(#roof_tealRoof)" opacity="1"/>
<rect x="979.8" y="186.3" width="6" height="8" rx="1" fill="url(#windowGlow)" opacity="0.9520111048370651"/>
<rect x="979.8" y="201.3" width="6" height="8" rx="1" fill="url(#windowGlow)" opacity="0.8714222044550917"/>
<rect x="993.8" y="201.3" width="6" height="8" rx="1" fill="url(#windowGlow)" opacity="0.8560626309160434"/>
<rect x="979.8" y="216.3" width="6" height="8" rx="1" fill="url(#windowGlow)" opacity="0.8263161464251187"/>
<rect x="979.8" y="231.3" width="6" height="8" rx="1" fill="url(#windowGlow)" opacity="0.7729688677810919"/>
<rect x="993.8" y="246.3" width="6" height="8" rx="1" fill="url(#windowGlow)" opacity="0.7811054566787115"/>
<rect x="984.8" y="284.0" width="10" height="16" rx="2" fill="url(#roof_navyRoof)" opacity="0.8"/>
<rect x="986.8" y="287.0" width="6" height="10" rx="1" fill="url(#windowGlow)" opacity="0.45"/>
<path d="M319.5 285.0 Q339.2 258.1 331.3 231.2" stroke="#92400e" stroke-width="4" fill="none" stroke-linecap="round"/>
<path d="M331.3 231.2 Q318.1 219.7 309.3 219.1" stroke="#16a34a" stroke-width="2.5" fill="none" stroke-linecap="round"/>
<path d="M331.3 231.2 Q337.2 219.3 341.1 218.2" stroke="#22c55e" stroke-width="2.5" fill="none" stroke-linecap="round"/>
<path d="M331.3 231.2 Q345.1 225.2 354.3 231.2" stroke="#15803d" stroke-width="2.5" fill="none" stroke-linecap="round"/>
<path d="M331.3 231.2 Q337.8 231.7 342.1 245.5" stroke="#4ade80" stroke-width="2.5" fill="none" stroke-linecap="round"/>
<path d="M331.3 231.2 Q318.5 230.5 310.0 242.9" stroke="#16a34a" stroke-width="2.5" fill="none" stroke-linecap="round"/>
<path d="M607.9 285.0 Q630.7 254.7 621.6 224.5" stroke="#92400e" stroke-width="4" fill="none" stroke-linecap="round"/>
<path d="M621.6 224.5 Q607.8 212.7 598.6 211.8" stroke="#16a34a" stroke-width="2.5" fill="none" stroke-linecap="round"/>
<path d="M621.6 224.5 Q628.7 211.4 633.3 208.9" stroke="#22c55e" stroke-width="2.5" fill="none" stroke-linecap="round"/>
<path d="M621.6 224.5 Q641.2 218.5 654.2 224.5" stroke="#15803d" stroke-width="2.5" fill="none" stroke-linecap="round"/>
<path d="M621.6 224.5 Q627.4 224.3 631.3 237.3" stroke="#4ade80" stroke-width="2.5" fill="none" stroke-linecap="round"/>
<path d="M621.6 224.5 Q608.2 224.1 599.2 236.8" stroke="#16a34a" stroke-width="2.5" fill="none" stroke-linecap="round"/>
<path d="M856.1 285.0 Q871.7 254.9 865.4 224.8" stroke="#92400e" stroke-width="4" fill="none" stroke-linecap="round"/>
<path d="M865.4 224.8 Q851.5 212.9 842.1 211.9" stroke="#16a34a" stroke-width="2.5" fill="none" stroke-linecap="round"/>
<path d="M865.4 224.8 Q870.1 214.1 873.1 214.6" stroke="#22c55e" stroke-width="2.5" fill="none" stroke-linecap="round"/>
<path d="M865.4 224.8 Q885.6 218.8 899.1 224.8" stroke="#15803d" stroke-width="2.5" fill="none" stroke-linecap="round"/>
<path d="M865.4 224.8 Q872.2 225.6 876.7 239.8" stroke="#4ade80" stroke-width="2.5" fill="none" stroke-linecap="round"/>
<path d="M865.4 224.8 Q855.5 222.9 848.8 233.9" stroke="#16a34a" stroke-width="2.5" fill="none" stroke-linecap="round"/>
<path d="M108.7 285.0 Q135.2 257.5 124.6 230.0" stroke="#92400e" stroke-width="4" fill="none" stroke-linecap="round"/>
<path d="M124.6 230.0 Q116.0 220.4 110.2 222.1" stroke="#16a34a" stroke-width="2.5" fill="none" stroke-linecap="round"/>
<path d="M124.6 230.0 Q129.9 218.6 133.5 218.2" stroke="#22c55e" stroke-width="2.5" fill="none" stroke-linecap="round"/>
<path d="M124.6 230.0 Q143.8 224.0 156.7 230.0" stroke="#15803d" stroke-width="2.5" fill="none" stroke-linecap="round"/>
<path d="M124.6 230.0 Q132.0 231.5 137.0 246.4" stroke="#4ade80" stroke-width="2.5" fill="none" stroke-linecap="round"/>
<path d="M124.6 230.0 Q111.0 229.7 101.9 242.5" stroke="#16a34a" stroke-width="2.5" fill="none" stroke-linecap="round"/>
<path d="M1050.8 285.0 Q1079.6 258.7 1068.1 232.5" stroke="#92400e" stroke-width="4" fill="none" stroke-linecap="round"/>
<path d="M1068.1 232.5 Q1058.4 222.4 1051.9 223.6" stroke="#16a34a" stroke-width="2.5" fill="none" stroke-linecap="round"/>
<path d="M1068.1 232.5 Q1074.1 220.4 1078.2 219.0" stroke="#22c55e" stroke-width="2.5" fill="none" stroke-linecap="round"/>
<path d="M1068.1 232.5 Q1081.6 226.5 1090.5 232.5" stroke="#15803d" stroke-width="2.5" fill="none" stroke-linecap="round"/>
<path d="M1068.1 232.5 Q1075.1 233.6 1079.9 248.1" stroke="#4ade80" stroke-width="2.5" fill="none" stroke-linecap="round"/>
<path d="M1068.1 232.5 Q1055.2 231.8 1046.6 244.3" stroke="#16a34a" stroke-width="2.5" fill="none" stroke-linecap="round"/>
<path d="M1043.0 285.0 Q1071.7 263.7 1060.2 242.5" stroke="#92400e" stroke-width="4" fill="none" stroke-linecap="round"/>
<path d="M1060.2 242.5 Q1046.7 230.8 1037.8 230.1" stroke="#16a34a" stroke-width="2.5" fill="none" stroke-linecap="round"/>
<path d="M1060.2 242.5 Q1065.5 231.2 1069.0 230.8" stroke="#22c55e" stroke-width="2.5" fill="none" stroke-linecap="round"/>
<path d="M1060.2 242.5 Q1074.6 236.5 1084.2 242.5" stroke="#15803d" stroke-width="2.5" fill="none" stroke-linecap="round"/>
<path d="M1060.2 242.5 Q1065.6 241.9 1069.3 254.5" stroke="#4ade80" stroke-width="2.5" fill="none" stroke-linecap="round"/>
<path d="M1060.2 242.5 Q1050.1 240.7 1043.3 251.8" stroke="#16a34a" stroke-width="2.5" fill="none" stroke-linecap="round"/>
<path d="M575.8 285.0 Q596.7 254.9 588.3 224.8" stroke="#92400e" stroke-width="4" fill="none" stroke-linecap="round"/>
<path d="M588.3 224.8 Q576.1 213.7 567.9 213.5" stroke="#16a34a" stroke-width="2.5" fill="none" stroke-linecap="round"/>
<path d="M588.3 224.8 Q593.1 214.0 596.2 214.4" stroke="#22c55e" stroke-width="2.5" fill="none" stroke-linecap="round"/>
<path d="M588.3 224.8 Q604.3 218.8 615.0 224.8" stroke="#15803d" stroke-width="2.5" fill="none" stroke-linecap="round"/>
<path d="M588.3 224.8 Q594.7 225.2 598.9 238.8" stroke="#4ade80" stroke-width="2.5" fill="none" stroke-linecap="round"/>
<path d="M588.3 224.8 Q575.4 224.2 566.8 236.6" stroke="#16a34a" stroke-width="2.5" fill="none" stroke-linecap="round"/>
<rect x="0" y="282" width="1200" height="18" fill="url(#groundGrad)"/>
<line x1="968.9" y1="282.0" x2="968.9" y2="248.7" stroke="#92400e" stroke-width="2"/>
<circle cx="968.9" cy="248.7" r="4" fill="#fef08a" opacity="0.6"/>
<circle cx="968.9" cy="248.7" r="8" fill="#fef08a" opacity="0.15" filter="url(#softGlow)"/>
<line x1="931.1" y1="282.0" x2="931.1" y2="246.9" stroke="#92400e" stroke-width="2"/>
<circle cx="931.1" cy="246.9" r="4" fill="#fef08a" opacity="0.6"/>
<circle cx="931.1" cy="246.9" r="8" fill="#fef08a" opacity="0.15" filter="url(#softGlow)"/>
<ellipse cx="897.2" cy="282.0" rx="6.3" ry="4.4" fill="#22c55e" opacity="0.6"/>
<ellipse cx="42.4" cy="282.0" rx="5.4" ry="3.8" fill="#22c55e" opacity="0.6"/>
</svg>