<svg xmlns="http://www.w3.org/2000/svg" viewBox="0 0 1200 300" width="1200" height="300">
<rect width="1200" height="300" fill="#ede8e0"/>
<path d="M0 300 L0 210.0 C214.7 171.4, 1003.7 191.2, 1200 210.0 L1200 300 Z" fill="#c4c6be" opacity="0.3"/>
<rect x="130.8" y="183.6" width="46.9" height="116.4" fill="#aeb0a5"/>
<rect x="352.5" y="193.3" width="79.2" height="106.7" fill="#aeb0a5"/>
<rect x="564.5" y="202.5" width="43.8" height="97.5" fill="#aeb0a5"/>
<rect x="819.4" y="230.0" width="54.6" height="70.0" fill="#aeb0a5"/>
<rect x="1044.2" y="215.9" width="83.9" height="84.1" fill="#aeb0a5"/>
<rect x="127.4" y="159.6" width="62.5" height="140.4" fill="#898d7d"/>
<rect x="141.6" y="171.6" width="6" height="8" fill="#b2b5ab" opacity="0.5"/>
<rect x="155.6" y="171.6" width="6" height="8" fill="#b2b5ab" opacity="0.5"/>
<rect x="169.6" y="171.6" width="6" height="8" fill="#b2b5ab" opacity="0.5"/>
<rect x="155.6" y="187.6" width="6" height="8" fill="#b2b5ab" opacity="0.5"/>
<rect x="169.6" y="187.6" width="6" height="8" fill="#b2b5ab" opacity="0.5"/>
<rect x="141.6" y="203.6" width="6" height="8" fill="#b2b5ab" opacity="0.5"/>
<rect x="155.6" y="203.6" width="6" height="8" fill="#b2b5ab" opacity="0.5"/>
<rect x="169.6" y="203.6" width="6" height="8" fill="#b2b5ab" opacity="0.5"/>
<rect x="141.6" y="219.6" width="6" height="8" fill="#b2b5ab" opacity="0.5"/>
<rect x="155.6" y="219.6" width="6" height="8" fill="#b2b5ab" opacity="0.5"/>
<rect x="169.6" y="219.6" width="6" height="8" fill="#b2b5ab" opacity="0.5"/>
<rect x="155.6" y="235.6" width="6" height="8" fill="#b2b5ab" opacity="0.5"/>
<rect x="169.6" y="235.6" width="6" height="8" fill="#b2b5ab" opacity="0.5"/>
<rect x="155.6" y="251.6" width="6" height="8" fill="#b2b5ab" opacity="0.5"/>
<rect x="169.6" y="251.6" width="6" height="8" fill="#b2b5ab" opacity="0.5"/>
<rect x="141.6" y="267.6" width="6" height="8" fill="#b2b5ab" opacity="0.5"/>
<rect x="169.6" y="267.6" width="6" height="8" fill="#b2b5ab" opacity="0.5"/>
<rect x="372.3" y="176.9" width="35.8" height="123.1" fill="#898d7d"/>
<rect x="387.3" y="204.9" width="6" height="8" fill="#b2b5ab" opacity="0.5"/>
<rect x="387.3" y="220.9" width="6" height="8" fill="#b2b5ab" opacity="0.5"/>
<rect x="387.3" y="236.9" width="6" height="8" fill="#b2b5ab" opacity="0.5"/>
<rect x="387.3" y="252.9" width="6" height="8" fill="#b2b5ab" opacity="0.5"/>
<rect x="547.5" y="165.3" width="66.8" height="134.7" fill="#898d7d"/>
<rect x="563.9" y="177.3" width="6" height="8" fill="#b2b5ab" opacity="0.5"/>
<rect x="577.9" y="177.3" width="6" height="8" fill="#b2b5ab" opacity="0.5"/>
<rect x="577.9" y="193.3" width="6" height="8" fill="#b2b5ab" opacity="0.5"/>
<rect x="591.9" y="193.3" width="6" height="8" fill="#b2b5ab" opacity="0.5"/>
<rect x="563.9" y="209.3" width="6" height="8" fill="#b2b5ab" opacity="0.5"/>
<rect x="591.9" y="209.3" width="6" height="8" fill="#b2b5ab" opacity="0.5"/>
<rect x="563.9" y="225.3" width="6" height="8" fill="#b2b5ab" opacity="0.5"/>
<rect x="577.9" y="225.3" width="6" height="8" fill="#b2b5ab" opacity="0.5"/>
<rect x="591.9" y="225.3" width="6" height="8" fill="#b2b5ab" opacity="0.5"/>
<rect x="563.9" y="241.3" width="6" height="8" fill="#b2b5ab" opacity="0.5"/>
<rect x="563.9" y="273.3" width="6" height="8" fill="#b2b5ab" opacity="0.5"/>
<rect x="810.4" y="193.4" width="76.2" height="106.6" fill="#898d7d"/>
<rect x="824.5" y="205.4" width="6" height="8" fill="#b2b5ab" opacity="0.5"/>
<rect x="838.5" y="205.4" width="6" height="8" fill="#b2b5ab" opacity="0.5"/>
<rect x="866.5" y="205.4" width="6" height="8" fill="#b2b5ab" opacity="0.5"/>
<rect x="838.5" y="221.4" width="6" height="8" fill="#b2b5ab" opacity="0.5"/>
<rect x="852.5" y="221.4" width="6" height="8" fill="#b2b5ab" opacity="0.5"/>
<rect x="866.5" y="221.4" width="6" height="8" fill="#b2b5ab" opacity="0.5"/>
<rect x="824.5" y="237.4" width="6" height="8" fill="#b2b5ab" opacity="0.5"/>
<rect x="838.5" y="237.4" width="6" height="8" fill="#b2b5ab" opacity="0.5"/>
<rect x="852.5" y="237.4" width="6" height="8" fill="#b2b5ab" opacity="0.5"/>
<rect x="866.5" y="237.4" width="6" height="8" fill="#b2b5ab" opacity="0.5"/>
<rect x="824.5" y="253.4" width="6" height="8" fill="#b2b5ab" opacity="0.5"/>
<rect x="852.5" y="253.4" width="6" height="8" fill="#b2b5ab" opacity="0.5"/>
<rect x="866.5" y="253.4" width="6" height="8" fill="#b2b5ab" opacity="0.5"/>
<rect x="824.5" y="269.4" width="6" height="8" fill="#b2b5ab" opacity="0.5"/>
<rect x="838.5" y="269.4" width="6" height="8" fill="#b2b5ab" opacity="0.5"/>
<rect x="852.5" y="269.4" width="6" height="8" fill="#b2b5ab" opacity="0.5"/>
<rect x="866.5" y="269.4" width="6" height="8" fill="#b2b5ab" opacity="0.5"/>
<rect x="1020.2" y="157.3" width="37.3" height="142.7" fill="#898d7d"/>
<rect x="1035.8" y="169.3" width="6" height="8" fill="#b2b5ab" opacity="0.5"/>
<rect x="1035.8" y="185.3" width="6" height="8" fill="#b2b5ab" opacity="0.5"/>
<rect x="1035.8" y="217.3" width="6" height="8" fill="#b2b5ab" opacity="0.5"/>
<rect x="1035.8" y="233.3" width="6" height="8" fill="#b2b5ab" opacity="0.5"/>
<rect x="1035.8" y="249.3" width="6" height="8" fill="#b2b5ab" opacity="0.5"/>
<rect x="1035.8" y="265.3" width="6" height="8" fill="#b2b5ab" opacity="0.5"/>
<rect x="138.9" y="245.7" width="63.1" height="54.3" fill="#6b705c"/>
<rect x="350.1" y="138.1" width="42.0" height="161.9" fill="#6b705c"/>
<rect x="368.1" y="150.1" width="6" height="8" fill="#9fa295" opacity="0.5"/>
<rect x="368.1" y="182.1" width="6" height="8" fill="#9fa295" opacity="0.5"/>
<rect x="368.1" y="230.1" width="6" height="8" fill="#9fa295" opacity="0.5"/>
<rect x="368.1" y="246.1" width="6" height="8" fill="#9fa295" opacity="0.5"/>
<rect x="368.1" y="262.1" width="6" height="8" fill="#9fa295" opacity="0.5"/>
<rect x="574.4" y="224.7" width="42.5" height="75.3" fill="#6b705c"/>
<rect x="592.6" y="268.7" width="6" height="8" fill="#9fa295" opacity="0.5"/>
<rect x="823.9" y="141.8" width="45.2" height="158.2" fill="#6b705c"/>
<rect x="850.5" y="153.8" width="6" height="8" fill="#9fa295" opacity="0.5"/>
<rect x="836.5" y="169.8" width="6" height="8" fill="#9fa295" opacity="0.5"/>
<rect x="836.5" y="185.8" width="6" height="8" fill="#9fa295" opacity="0.5"/>
<rect x="850.5" y="185.8" width="6" height="8" fill="#9fa295" opacity="0.5"/>
<rect x="836.5" y="201.8" width="6" height="8" fill="#9fa295" opacity="0.5"/>
<rect x="836.5" y="217.8" width="6" height="8" fill="#9fa295" opacity="0.5"/>
<rect x="850.5" y="217.8" width="6" height="8" fill="#9fa295" opacity="0.5"/>
<rect x="836.5" y="249.8" width="6" height="8" fill="#9fa295" opacity="0.5"/>
<rect x="836.5" y="265.8" width="6" height="8" fill="#9fa295" opacity="0.5"/>
<rect x="850.5" y="265.8" width="6" height="8" fill="#9fa295" opacity="0.5"/>
<rect x="997.0" y="203.4" width="66.4" height="96.6" fill="#6b705c"/>
<rect x="1027.2" y="215.4" width="6" height="8" fill="#9fa295" opacity="0.5"/>
<rect x="1013.2" y="231.4" width="6" height="8" fill="#9fa295" opacity="0.5"/>
<rect x="1027.2" y="231.4" width="6" height="8" fill="#9fa295" opacity="0.5"/>
<rect x="1041.2" y="231.4" width="6" height="8" fill="#9fa295" opacity="0.5"/>
<rect x="1013.2" y="247.4" width="6" height="8" fill="#9fa295" opacity="0.5"/>
<rect x="1027.2" y="247.4" width="6" height="8" fill="#9fa295" opacity="0.5"/>
<rect x="1041.2" y="247.4" width="6" height="8" fill="#9fa295" opacity="0.5"/>
<rect x="1013.2" y="263.4" width="6" height="8" fill="#9fa295" opacity="0.5"/>
<rect x="1041.2" y="263.4" width="6" height="8" fill="#9fa295" opacity="0.5"/>
<rect x="0" y="298" width="1200" height="2" fill="#606553" opacity="0.15"/>
</svg>