<svg xmlns="http://www.w3.org/2000/svg" viewBox="0 0 1200 300" width="1200" height="300">
<defs>
<linearGradient id="skyGrad" x1="0" y1="0" x2="0" y2="1">
<stop offset="0%" stop-color="#a78bfa"/>
<stop offset="18%" stop-color="#ddb4f0"/>
<stop offset="35%" stop-color="#fda4af"/>
<stop offset="52%" stop-color="#fdba74"/>
<stop offset="72%" stop-color="#fef08a"/>
<stop offset="100%" stop-color="#fef9c3"/>
</linearGradient>
<linearGradient id="bldg_coral" x1="0" y1="0" x2="0" y2="1"><stop offset="0%" stop-color="#fecaca"/><stop offset="100%" stop-color="#fca5a5"/></linearGradient>
<linearGradient id="bldg_teal" x1="0" y1="0" x2="0" y2="1"><stop offset="0%" stop-color="#99f6e4"/><stop offset="100%" stop-color="#5eead4"/></linearGradient>
<linearGradient id="bldg_amber" x1="0" y1="0" x2="0" y2="1"><stop offset="0%" stop-color="#fde68a"/><stop offset="100%" stop-color="#fcd34d"/></linearGradient>
<linearGradient id="bldg_lavender" x1="0" y1="0" x2="0" y2="1"><stop offset="0%" stop-color="#ddd6fe"/><stop offset="100%" stop-color="#c4b5fd"/></linearGradient>
<linearGradient id="bldg_blue" x1="0" y1="0" x2="0" y2="1"><stop offset="0%" stop-color="#bfdbfe"/><stop offset="100%" stop-color="#93c5fd"/></linearGradient>
<linearGradient id="bldg_mint" x1="0" y1="0" x2="0" y2="1"><stop offset="0%" stop-color="#a7f3d0"/><stop offset="100%" stop-color="#6ee7b7"/></linearGradient>
<linearGradient id="bldg_rose" x1="0" y1="0" x2="0" y2="1"><stop offset="0%" stop-color="#fecdd3"/><stop offset="100%" stop-color="#fda4af"/></linearGradient>
<linearGradient id="bldg_sky" x1="0" y1="0" x2="0" y2="1"><stop offset="0%" stop-color="#bae6fd"/><stop offset="100%" stop-color="#7dd3fc"/></linearGradient>
<linearGradient id="roof_navyRoof" x1="0" y1="0" x2="0" y2="1"><stop offset="0%" stop-color="#4338ca"/><stop offset="100%" stop-color="#3730a3"/></linearGradient>
<linearGradient id="roof_coralRoof" x1="0" y1="0" x2="0" y2="1"><stop offset="0%" stop-color="#f87171"/><stop offset="100%" stop-color="#ef4444"/></linearGradient>
<linearGradient id="roof_tealRoof" x1="0" y1="0" x2="0" y2="1"><stop offset="0%" stop-color="#2dd4bf"/><stop offset="100%" stop-color="#14b8a6"/></linearGradient>
<radialGradient id="windowGlow" cx="50%" cy="50%" r="50%"><stop offset="0%" stop-color="#fef08a"/><stop offset="60%" stop-color="#fbbf24"/><stop offset="100%" stop-color="#f59e0b"/></radialGradient>
<linearGradient id="hillFar" x1="0" y1="0" x2="0" y2="1"><stop offset="0%" stop-color="#c4b5fd"/><stop offset="100%" stop-color="#a5b4fc"/></linearGradient>
<linearGradient id="hillMid" x1="0" y1="0" x2="0" y2="1"><stop offset="0%" stop-color="#86efac"/><stop offset="100%" stop-color="#4ade80"/></linearGradient>
<linearGradient id="hillNear" x1="0" y1="0" x2="0" y2="1"><stop offset="0%" stop-color="#34d399"/><stop offset="100%" stop-color="#10b981"/></linearGradient>
<linearGradient id="hillDesertFar" x1="0" y1="0" x2="0" y2="1"><stop offset="0%" stop-color="#fde68a"/><stop offset="100%" stop-color="#fcd34d"/></linearGradient>
<linearGradient id="hillDesertMid" x1="0" y1="0" x2="0" y2="1"><stop offset="0%" stop-color="#fcd34d"/><stop offset="100%" stop-color="#fbbf24"/></linearGradient>
<linearGradient id="hillDesertNear" x1="0" y1="0" x2="0" y2="1"><stop offset="0%" stop-color="#fbbf24"/><stop offset="100%" stop-color="#f59e0b"/></linearGradient>
<linearGradient id="groundGrad" x1="0" y1="0" x2="0" y2="1"><stop offset="0%" stop-color="#fef3c7"/><stop offset="100%" stop-color="#fde68a"/></linearGradient>
<linearGradient id="waterGrad" x1="0" y1="0" x2="0" y2="1"><stop offset="0%" stop-color="#bfdbfe"/><stop offset="100%" stop-color="#93c5fd"/></linearGradient>
<filter id="softGlow" x="-50%" y="-50%" width="200%" height="200%"><feGaussianBlur in="SourceGraphic" stdDeviation="12"/></filter>
</defs>
<rect width="1200" height="300" fill="url(#skyGrad)"/>
<circle cx="1045.8" cy="51.1" r="45" fill="#fef08a" opacity="0.12" filter="url(#softGlow)"/>
<circle cx="1045.8" cy="51.1" r="30" fill="#fde68a" opacity="0.18" filter="url(#softGlow)"/>
<circle cx="1045.8" cy="51.1" r="16" fill="#fef9c3" opacity="0.25" filter="url(#softGlow)"/>
<path d="M0 300 L0.0 185.9 C242.4 185.9, 242.4 189.6, 484.7 189.6 C658.7 189.6, 658.7 179.8, 832.8 179.8 C1016.4 179.8, 1016.4 185.0, 1200.0 185.0 L1200 300 Z" fill="url(#hillFar)" opacity="0.5"/>
<path d="M0 300 L0.0 208.5 C208.9 208.5, 208.9 214.0, 417.7 214.0 C642.6 214.0, 642.6 214.4, 867.5 214.4 C1033.7 214.4, 1033.7 211.2, 1200.0 211.2 L1200 300 Z" fill="url(#hillMid)" opacity="0.7"/>
<path d="M0 300 L0.0 235.1 C151.0 235.1, 151.0 236.6, 302.1 236.6 C528.7 236.6, 528.7 232.7, 755.3 232.7 C977.7 232.7, 977.7 239.9, 1200.0 239.9 L1200 300 Z" fill="url(#hillNear)" opacity="1"/>
<path d="M0 183.0 C369.3 142.0, 874.9 191.4, 1200 199.2" fill="none" stroke="url(#waterGrad)" stroke-width="30.5" stroke-linecap="round" opacity="0.5"/>
<rect x="261.9" y="252.7" width="78.8" height="47.3" rx="3" fill="url(#bldg_lavender)" opacity="0.7"/>
<rect x="277.6" y="247.0" width="47.3" height="5.7" rx="2" fill="url(#roof_tealRoof)" opacity="0.7"/>
<rect x="277.3" y="262.7" width="6" height="8" rx="1" fill="url(#windowGlow)" opacity="0.7998932337853559"/>
<rect x="291.3" y="262.7" width="6" height="8" rx="1" fill="url(#windowGlow)" opacity="0.9662759455229508"/>
<rect x="305.3" y="262.7" width="6" height="8" rx="1" fill="url(#windowGlow)" opacity="0.8648077507339453"/>
<rect x="319.3" y="262.7" width="6" height="8" rx="1" fill="url(#windowGlow)" opacity="0.9723794222215094"/>
<rect x="856.8" y="247.2" width="76.1" height="52.8" rx="3" fill="url(#bldg_blue)" opacity="0.7"/>
<rect x="856.8" y="244.2" width="76.1" height="3" rx="1" fill="url(#roof_navyRoof)" opacity="0.7"/>
<rect x="870.9" y="257.2" width="6" height="8" rx="1" fill="url(#windowGlow)" opacity="0.914004153904507"/>
<rect x="884.9" y="257.2" width="6" height="8" rx="1" fill="url(#windowGlow)" opacity="0.9336715736117547"/>
<rect x="898.9" y="257.2" width="6" height="8" rx="1" fill="url(#windowGlow)" opacity="0.7235674350166541"/>
<rect x="912.9" y="257.2" width="6" height="8" rx="1" fill="url(#windowGlow)" opacity="0.9699094696761619"/>
<rect x="295.4" y="203.5" width="63.6" height="96.5" rx="3" fill="url(#bldg_mint)" opacity="0.85"/>
<rect x="295.4" y="200.5" width="63.6" height="3" rx="1" fill="url(#roof_coralRoof)" opacity="0.85"/>
<rect x="310.2" y="213.5" width="6" height="8" rx="1" fill="url(#windowGlow)" opacity="0.7686210953950048"/>
<rect x="324.2" y="213.5" width="6" height="8" rx="1" fill="url(#windowGlow)" opacity="0.7445006739555395"/>
<rect x="338.2" y="213.5" width="6" height="8" rx="1" fill="url(#windowGlow)" opacity="0.8842281155214775"/>
<rect x="310.2" y="228.5" width="6" height="8" rx="1" fill="url(#windowGlow)" opacity="0.7501277232776059"/>
<rect x="324.2" y="228.5" width="6" height="8" rx="1" fill="url(#windowGlow)" opacity="0.9276251783723128"/>
<rect x="338.2" y="228.5" width="6" height="8" rx="1" fill="url(#windowGlow)" opacity="0.9149215349065706"/>
<rect x="310.2" y="243.5" width="6" height="8" rx="1" fill="url(#windowGlow)" opacity="0.779851664919337"/>
<rect x="324.2" y="243.5" width="6" height="8" rx="1" fill="url(#windowGlow)" opacity="0.7990394553630796"/>
<rect x="338.2" y="243.5" width="6" height="8" rx="1" fill="url(#windowGlow)" opacity="0.8583292500853208"/>
<rect x="324.2" y="258.5" width="6" height="8" rx="1" fill="url(#windowGlow)" opacity="0.8522955003438031"/>
<rect x="338.2" y="258.5" width="6" height="8" rx="1" fill="url(#windowGlow)" opacity="0.9812753605569132"/>
<rect x="890.3" y="239.0" width="61.1" height="61.0" rx="3" fill="url(#bldg_rose)" opacity="0.85"/>
<polygon points="890.3,239.0 920.9,225.9 951.4,239.0" fill="url(#roof_tealRoof)" opacity="0.85"/>
<rect x="903.9" y="249.0" width="6" height="8" rx="1" fill="url(#windowGlow)" opacity="0.8577182532091244"/>
<rect x="931.9" y="249.0" width="6" height="8" rx="1" fill="url(#windowGlow)" opacity="0.8614055006119448"/>
<rect x="690.8" y="216.8" width="56.4" height="83.2" rx="3" fill="url(#bldg_sky)" opacity="1"/>
<rect x="690.8" y="213.8" width="56.4" height="3" rx="1" fill="url(#roof_navyRoof)" opacity="1"/>
<rect x="709.0" y="226.8" width="6" height="8" rx="1" fill="url(#windowGlow)" opacity="0.9719058339353212"/>
<rect x="723.0" y="226.8" width="6" height="8" rx="1" fill="url(#windowGlow)" opacity="0.8317764605543466"/>
<rect x="709.0" y="256.8" width="6" height="8" rx="1" fill="url(#windowGlow)" opacity="0.9696299211911996"/>
<rect x="723.0" y="256.8" width="6" height="8" rx="1" fill="url(#windowGlow)" opacity="0.7758561417348012"/>
<rect x="714.0" y="284.0" width="10" height="16" rx="2" fill="url(#roof_navyRoof)" opacity="0.8"/>
<rect x="716.0" y="287.0" width="6" height="10" rx="1" fill="url(#windowGlow)" opacity="0.45"/>
<path d="M719.0 245.9 L741.6 245.9 L738.6 251.9 L722.0 251.9 Z" fill="url(#roof_tealRoof)" opacity="0.8"/>
<path d="M662.7 285.0 Q684.1 257.1 675.5 229.3" stroke="#92400e" stroke-width="4" fill="none" stroke-linecap="round"/>
<path d="M675.5 229.3 Q662.1 217.7 653.2 217.0" stroke="#16a34a" stroke-width="2.5" fill="none" stroke-linecap="round"/>
<path d="M675.5 229.3 Q681.3 217.5 685.2 216.5" stroke="#22c55e" stroke-width="2.5" fill="none" stroke-linecap="round"/>
<path d="M675.5 229.3 Q688.8 223.3 697.7 229.3" stroke="#15803d" stroke-width="2.5" fill="none" stroke-linecap="round"/>
<path d="M675.5 229.3 Q680.5 228.3 683.8 240.3" stroke="#4ade80" stroke-width="2.5" fill="none" stroke-linecap="round"/>
<path d="M675.5 229.3 Q665.2 227.6 658.3 238.8" stroke="#16a34a" stroke-width="2.5" fill="none" stroke-linecap="round"/>
<path d="M769.8 285.0 Q797.1 256.4 786.2 227.7" stroke="#92400e" stroke-width="4" fill="none" stroke-linecap="round"/>
<path d="M786.2 227.7 Q774.7 216.9 766.9 217.1" stroke="#16a34a" stroke-width="2.5" fill="none" stroke-linecap="round"/>
<path d="M786.2 227.7 Q792.4 215.5 796.5 214.0" stroke="#22c55e" stroke-width="2.5" fill="none" stroke-linecap="round"/>
<path d="M786.2 227.7 Q800.0 221.7 809.2 227.7" stroke="#15803d" stroke-width="2.5" fill="none" stroke-linecap="round"/>
<path d="M786.2 227.7 Q792.0 227.6 795.9 240.6" stroke="#4ade80" stroke-width="2.5" fill="none" stroke-linecap="round"/>
<path d="M786.2 227.7 Q776.8 225.6 770.5 236.3" stroke="#16a34a" stroke-width="2.5" fill="none" stroke-linecap="round"/>
<path d="M828.7 285.0 Q848.9 259.6 840.8 234.2" stroke="#92400e" stroke-width="4" fill="none" stroke-linecap="round"/>
<path d="M840.8 234.2 Q830.1 223.7 822.9 224.4" stroke="#16a34a" stroke-width="2.5" fill="none" stroke-linecap="round"/>
<path d="M840.8 234.2 Q846.6 222.4 850.5 221.4" stroke="#22c55e" stroke-width="2.5" fill="none" stroke-linecap="round"/>
<path d="M840.8 234.2 Q856.6 228.2 867.1 234.2" stroke="#15803d" stroke-width="2.5" fill="none" stroke-linecap="round"/>
<path d="M840.8 234.2 Q847.9 235.3 852.5 249.8" stroke="#4ade80" stroke-width="2.5" fill="none" stroke-linecap="round"/>
<path d="M840.8 234.2 Q830.8 232.4 824.2 243.4" stroke="#16a34a" stroke-width="2.5" fill="none" stroke-linecap="round"/>
<path d="M280.8 285.0 Q308.8 258.4 297.6 231.8" stroke="#92400e" stroke-width="4" fill="none" stroke-linecap="round"/>
<path d="M297.6 231.8 Q286.7 221.2 279.4 221.8" stroke="#16a34a" stroke-width="2.5" fill="none" stroke-linecap="round"/>
<path d="M297.6 231.8 Q304.1 219.3 308.4 217.4" stroke="#22c55e" stroke-width="2.5" fill="none" stroke-linecap="round"/>
<path d="M297.6 231.8 Q314.1 225.8 325.0 231.8" stroke="#15803d" stroke-width="2.5" fill="none" stroke-linecap="round"/>
<path d="M297.6 231.8 Q303.2 231.5 307.0 244.3" stroke="#4ade80" stroke-width="2.5" fill="none" stroke-linecap="round"/>
<path d="M297.6 231.8 Q286.8 230.3 279.6 241.7" stroke="#16a34a" stroke-width="2.5" fill="none" stroke-linecap="round"/>
<path d="M794.1 285.0 Q812.8 255.2 805.3 225.4" stroke="#92400e" stroke-width="4" fill="none" stroke-linecap="round"/>
<path d="M805.3 225.4 Q796.8 215.8 791.1 217.6" stroke="#16a34a" stroke-width="2.5" fill="none" stroke-linecap="round"/>
<path d="M805.3 225.4 Q810.5 214.1 814.0 213.8" stroke="#22c55e" stroke-width="2.5" fill="none" stroke-linecap="round"/>
<path d="M805.3 225.4 Q823.9 219.4 836.3 225.4" stroke="#15803d" stroke-width="2.5" fill="none" stroke-linecap="round"/>
<path d="M805.3 225.4 Q812.5 226.7 817.4 241.4" stroke="#4ade80" stroke-width="2.5" fill="none" stroke-linecap="round"/>
<path d="M805.3 225.4 Q796.7 223.0 790.9 233.3" stroke="#16a34a" stroke-width="2.5" fill="none" stroke-linecap="round"/>
<path d="M839.6 285.0 Q869.5 255.9 857.5 226.7" stroke="#92400e" stroke-width="4" fill="none" stroke-linecap="round"/>
<path d="M857.5 226.7 Q847.6 216.6 841.0 217.6" stroke="#16a34a" stroke-width="2.5" fill="none" stroke-linecap="round"/>
<path d="M857.5 226.7 Q862.7 215.5 866.2 215.3" stroke="#22c55e" stroke-width="2.5" fill="none" stroke-linecap="round"/>
<path d="M857.5 226.7 Q876.9 220.7 889.9 226.7" stroke="#15803d" stroke-width="2.5" fill="none" stroke-linecap="round"/>
<path d="M857.5 226.7 Q865.0 228.3 870.0 243.3" stroke="#4ade80" stroke-width="2.5" fill="none" stroke-linecap="round"/>
<path d="M857.5 226.7 Q844.0 226.4 835.0 239.1" stroke="#16a34a" stroke-width="2.5" fill="none" stroke-linecap="round"/>
<path d="M65.4 285.0 Q90.1 258.1 80.2 231.2" stroke="#92400e" stroke-width="4" fill="none" stroke-linecap="round"/>
<path d="M80.2 231.2 Q70.5 221.1 64.0 222.2" stroke="#16a34a" stroke-width="2.5" fill="none" stroke-linecap="round"/>
<path d="M80.2 231.2 Q87.7 217.7 92.6 214.8" stroke="#22c55e" stroke-width="2.5" fill="none" stroke-linecap="round"/>
<path d="M80.2 231.2 Q95.1 225.2 105.0 231.2" stroke="#15803d" stroke-width="2.5" fill="none" stroke-linecap="round"/>
<path d="M80.2 231.2 Q87.9 232.9 93.0 248.1" stroke="#4ade80" stroke-width="2.5" fill="none" stroke-linecap="round"/>
<path d="M80.2 231.2 Q67.4 230.6 58.8 243.0" stroke="#16a34a" stroke-width="2.5" fill="none" stroke-linecap="round"/>
<path d="M1002.6 285.0 Q1025.0 258.9 1016.0 232.9" stroke="#92400e" stroke-width="4" fill="none" stroke-linecap="round"/>
<path d="M1016.0 232.9 Q1003.6 221.7 995.3 221.5" stroke="#16a34a" stroke-width="2.5" fill="none" stroke-linecap="round"/>
<path d="M1016.0 232.9 Q1021.7 221.1 1025.5 220.3" stroke="#22c55e" stroke-width="2.5" fill="none" stroke-linecap="round"/>
<path d="M1016.0 232.9 Q1030.9 226.9 1040.9 232.9" stroke="#15803d" stroke-width="2.5" fill="none" stroke-linecap="round"/>
<path d="M1016.0 232.9 Q1022.9 233.8 1027.5 248.0" stroke="#4ade80" stroke-width="2.5" fill="none" stroke-linecap="round"/>
<path d="M1016.0 232.9 Q1003.8 232.0 995.6 244.1" stroke="#16a34a" stroke-width="2.5" fill="none" stroke-linecap="round"/>
<rect x="0" y="282" width="1200" height="18" fill="url(#groundGrad)"/>
</svg>