<svg xmlns="http://www.w3.org/2000/svg" viewBox="0 0 1200 400" width="1200" height="400">
<defs>
<linearGradient id="bg" x1="0" y1="0" x2="0" y2="1"><stop offset="0%" stop-color="#a16207"/><stop offset="100%" stop-color="#c2410c"/></linearGradient>
<linearGradient id="warm" x1="0" y1="0" x2="1" y2="1"><stop offset="0%" stop-color="#9a907e" stop-opacity="0.18"/><stop offset="100%" stop-color="#9a907e" stop-opacity="0.06"/></linearGradient>
</defs>
<rect width="1200" height="400" fill="url(#bg)"/>
<path d="M0 400 L0 234.2113452146326 C60.0 243.9, 90.0 257.8, 150.0 253.6 C210.0 256.2, 240.0 251.7, 300.0 261.3 C360.0 260.9, 390.0 244.4, 450.0 253.9 C510.0 249.8, 540.0 241.4, 600.0 248.3 C660.0 251.0, 690.0 240.9, 750.0 233.4 C810.0 238.5, 840.0 248.3, 900.0 239.7 C960.0 229.8, 990.0 243.1, 1050.0 249.3 C1110.0 255.4, 1140.0 255.5, 1200.0 255.1 L1200 400 Z" fill="#b64d0a" opacity="0.45"/>
<path d="M0 400 L0 284.8781655124265 C52.5 289.9, 97.5 267.9, 150.0 265.2 C202.5 258.5, 247.5 277.8, 300.0 279.0 C352.5 275.5, 397.5 287.5, 450.0 287.4 C502.5 287.3, 547.5 270.8, 600.0 275.7 C652.5 279.1, 697.5 267.1, 750.0 265.8 C802.5 271.9, 847.5 282.6, 900.0 282.9 C952.5 284.2, 997.5 286.5, 1050.0 279.8 C1102.5 274.0, 1147.5 258.2, 1200.0 265.0 L1200 400 Z" fill="#c2410c" opacity="0.3"/>
<rect x="192.0" y="321.1" width="14.1" height="78.9" rx="4.2" fill="#6a9d0d" opacity="0.84"/>
<rect x="216.4" y="355.5" width="31.0" height="44.5" rx="7.5" fill="#8a7c0d" opacity="0.80"/>
<rect x="768.0" y="319.6" width="22.5" height="80.4" rx="7.3" fill="#76910d" opacity="0.72"/>
<rect x="773.0" y="373.6" width="4" height="5" rx="0.5" fill="#a16207" opacity="0.6"/>
<rect x="735.7" y="337.1" width="46.3" height="62.9" rx="4.4" fill="#92740d" opacity="0.70"/>
<rect x="1063.2" y="301.3" width="31.2" height="98.7" rx="5.3" fill="#67a00d" opacity="0.79"/>
<rect x="366.2" y="301.8" width="24.4" height="98.2" rx="6.5" fill="#8d790d" opacity="0.52"/>
<rect x="371.2" y="311.8" width="4" height="5" rx="0.5" fill="#a16207" opacity="0.6"/>
<rect x="371.2" y="333.8" width="4" height="5" rx="0.5" fill="#a16207" opacity="0.6"/>
<rect x="307.2" y="334.9" width="35.1" height="65.1" rx="5.5" fill="#82840d" opacity="0.84"/>
<rect x="463.9" y="311.3" width="42.3" height="88.7" rx="6.6" fill="#75920d" opacity="0.64"/>
<rect x="1051.5" y="337.4" width="23.4" height="62.6" rx="6.6" fill="#72950d" opacity="0.63"/>
<rect x="1009.1" y="368.7" width="44.5" height="31.3" rx="4.8" fill="#897d0d" opacity="0.53"/>
<rect x="341.1" y="369.1" width="35.8" height="30.9" rx="4.8" fill="#9c690c" opacity="0.84"/>
<polygon points="317.0,-0.9 309.7,11.9 324.4,11.9" fill="#65a30d" opacity="0.44"/>
<polygon points="510.9,61.9 507.6,67.5 514.1,67.5" fill="#65a30d" opacity="0.42"/>
<polygon points="208.6,79.8 200.5,93.9 216.8,93.9" fill="#a16207" opacity="0.29"/>
<rect width="1200" height="400" fill="url(#warm)"/>
<rect width="1200" height="400" fill="#a16207" opacity="0.44"/>
</svg>