<svg xmlns="http://www.w3.org/2000/svg" viewBox="0 0 1200 400" width="1200" height="400">
<defs>
<linearGradient id="bg" x1="0" y1="0" x2="0" y2="1"><stop offset="0%" stop-color="#94a3b8"/><stop offset="100%" stop-color="#0369a1"/></linearGradient>
<linearGradient id="warm" x1="0" y1="0" x2="1" y2="1"><stop offset="0%" stop-color="#858d98" stop-opacity="0.18"/><stop offset="100%" stop-color="#858d98" stop-opacity="0.06"/></linearGradient>
</defs>
<rect width="1200" height="400" fill="url(#bg)"/>
<path d="M0 400 L0 252.4431761233665 C60.0 242.7, 90.0 221.1, 150.0 221.5 C210.0 223.8, 240.0 225.4, 300.0 232.2 C360.0 233.2, 390.0 242.0, 450.0 233.9 C510.0 243.8, 540.0 219.5, 600.0 221.9 C660.0 222.2, 690.0 253.5, 750.0 257.0 C810.0 258.4, 840.0 250.6, 900.0 241.4 C960.0 249.2, 990.0 240.3, 1050.0 237.3 C1110.0 232.2, 1140.0 248.0, 1200.0 239.8 L1200 400 Z" fill="#367da9" opacity="0.45"/>
<path d="M0 400 L0 267.9087661693707 C52.5 261.0, 97.5 274.9, 150.0 271.8 C202.5 269.2, 247.5 273.0, 300.0 274.3 C352.5 281.0, 397.5 277.6, 450.0 280.9 C502.5 276.6, 547.5 269.2, 600.0 274.9 C652.5 282.3, 697.5 284.7, 750.0 280.0 C802.5 284.7, 847.5 274.0, 900.0 274.0 C952.5 277.0, 997.5 282.2, 1050.0 281.2 C1102.5 283.1, 1147.5 273.0, 1200.0 267.2 L1200 400 Z" fill="#0369a1" opacity="0.3"/>
<rect x="774.0" y="328.1" width="45.6" height="71.9" rx="6.1" fill="#048a78" opacity="0.53"/>
<rect x="1047.4" y="368.6" width="49.3" height="31.4" rx="5.3" fill="#047f86" opacity="0.57"/>
<rect x="701.8" y="300.1" width="33.8" height="99.9" rx="7.5" fill="#05916f" opacity="0.70"/>
<rect x="406.9" y="315.4" width="45.9" height="84.6" rx="3.8" fill="#04897a" opacity="0.56"/>
<rect x="411.9" y="325.4" width="4" height="5" rx="0.5" fill="#94a3b8" opacity="0.6"/>
<rect x="411.9" y="347.4" width="4" height="5" rx="0.5" fill="#94a3b8" opacity="0.6"/>
<rect x="427.1" y="347.4" width="4" height="5" rx="0.5" fill="#94a3b8" opacity="0.6"/>
<rect x="411.9" y="369.4" width="4" height="5" rx="0.5" fill="#94a3b8" opacity="0.6"/>
<rect x="427.1" y="369.4" width="4" height="5" rx="0.5" fill="#94a3b8" opacity="0.6"/>
<rect x="746.3" y="276.6" width="22.2" height="123.4" rx="6.1" fill="#05926e" opacity="0.61"/>
<rect x="402.8" y="283.5" width="12.8" height="116.5" rx="3.6" fill="#047d88" opacity="0.77"/>
<rect x="636.9" y="334.0" width="37.3" height="66.0" rx="5.6" fill="#048282" opacity="0.77"/>
<rect x="968.7" y="281.7" width="44.1" height="118.3" rx="7.2" fill="#047f86" opacity="0.65"/>
<rect x="675.8" y="266.8" width="40.2" height="133.2" rx="6.8" fill="#04847f" opacity="0.73"/>
<rect x="694.2" y="276.8" width="4" height="5" rx="0.5" fill="#94a3b8" opacity="0.6"/>
<rect x="680.8" y="298.8" width="4" height="5" rx="0.5" fill="#94a3b8" opacity="0.6"/>
<rect x="694.2" y="298.8" width="4" height="5" rx="0.5" fill="#94a3b8" opacity="0.6"/>
<rect x="694.2" y="320.8" width="4" height="5" rx="0.5" fill="#94a3b8" opacity="0.6"/>
<rect x="680.8" y="342.8" width="4" height="5" rx="0.5" fill="#94a3b8" opacity="0.6"/>
<rect x="476.6" y="331.7" width="22.5" height="68.3" rx="5.5" fill="#048979" opacity="0.68"/>
<rect x="307.3" y="343.9" width="36.5" height="56.1" rx="7.0" fill="#048381" opacity="0.83"/>
<rect x="780.3" y="295.9" width="31.1" height="104.1" rx="7.7" fill="#047c89" opacity="0.54"/>
<rect x="667.1" y="336.3" width="30.3" height="63.7" rx="3.0" fill="#04887b" opacity="0.52"/>
<circle cx="211.3" cy="77.1" r="6.4" fill="#94a3b8" opacity="0.29"/>
<circle cx="947.4" cy="106.7" r="11.3" fill="#94a3b8" opacity="0.31"/>
<circle cx="509.8" cy="216.9" r="12.0" fill="#94a3b8" opacity="0.41"/>
<circle cx="900.0" cy="40.8" r="4.8" fill="#94a3b8" opacity="0.23"/>
<circle cx="792.6" cy="19.8" r="11.1" fill="#059669" opacity="0.24"/>
<circle cx="1040.2" cy="91.4" r="11.2" fill="#059669" opacity="0.45"/>
<circle cx="499.5" cy="215.9" r="3.5" fill="#94a3b8" opacity="0.45"/>
<circle cx="1072.3" cy="49.8" r="9.4" fill="#94a3b8" opacity="0.25"/>
<circle cx="842.3" cy="167.0" r="4.8" fill="#059669" opacity="0.25"/>
<circle cx="352.5" cy="180.1" r="8.9" fill="#94a3b8" opacity="0.28"/>
<circle cx="190.7" cy="103.2" r="3.6" fill="#059669" opacity="0.22"/>
<circle cx="348.6" cy="145.5" r="6.9" fill="#94a3b8" opacity="0.19"/>
<rect width="1200" height="400" fill="url(#warm)"/>
<rect width="1200" height="400" fill="#94a3b8" opacity="0.40"/>
</svg>