<svg xmlns="http://www.w3.org/2000/svg" viewBox="0 0 1200 300" width="1200" height="300">
<defs><linearGradient id="skyGrad" x1="0" y1="0" x2="0" y2="1"><stop offset="0%" stop-color="#e6ecf2"/><stop offset="100%" stop-color="#f0eeec"/></linearGradient></defs><rect width="1200" height="300" fill="url(#skyGrad)"/>
<path d="M0 300 L0 208.9 C240.8 194.4, 862.4 203.7, 1200 208.9 L1200 300 Z" fill="#aac2c9" opacity="0.25"/>
<rect x="105.8" y="221.2" width="67.3" height="78.8" fill="#8aabb4"/>
<rect x="117.6" y="207.3" width="43.7" height="13.9" fill="#83a2ab"/>
<rect x="350.3" y="199.4" width="40.7" height="100.6" fill="#8aabb4"/>
<rect x="579.4" y="179.9" width="48.2" height="120.1" fill="#8aabb4"/>
<rect x="775.0" y="220.3" width="89.6" height="79.7" fill="#8aabb4"/>
<rect x="790.7" y="206.2" width="58.2" height="14.1" fill="#83a2ab"/>
<rect x="1032.8" y="176.0" width="56.4" height="124.0" fill="#8aabb4"/>
<polygon points="1032.8,176.0 1061.1,161.9 1089.3,176.0" fill="#7f9da6"/>
<rect x="116.9" y="200.4" width="74.9" height="99.6" fill="#558592"/>
<rect x="151.3" y="212.4" width="6" height="8" fill="#91b0b8" opacity="0.5"/>
<rect x="165.3" y="212.4" width="6" height="8" fill="#91b0b8" opacity="0.5"/>
<rect x="137.3" y="228.4" width="6" height="8" fill="#91b0b8" opacity="0.5"/>
<rect x="165.3" y="228.4" width="6" height="8" fill="#91b0b8" opacity="0.5"/>
<rect x="137.3" y="244.4" width="6" height="8" fill="#91b0b8" opacity="0.5"/>
<rect x="151.3" y="244.4" width="6" height="8" fill="#91b0b8" opacity="0.5"/>
<rect x="165.3" y="244.4" width="6" height="8" fill="#91b0b8" opacity="0.5"/>
<rect x="151.3" y="260.4" width="6" height="8" fill="#91b0b8" opacity="0.5"/>
<rect x="327.8" y="170.7" width="76.1" height="129.3" fill="#558592"/>
<rect x="348.8" y="182.7" width="6" height="8" fill="#91b0b8" opacity="0.5"/>
<rect x="348.8" y="198.7" width="6" height="8" fill="#91b0b8" opacity="0.5"/>
<rect x="376.8" y="198.7" width="6" height="8" fill="#91b0b8" opacity="0.5"/>
<rect x="348.8" y="214.7" width="6" height="8" fill="#91b0b8" opacity="0.5"/>
<rect x="376.8" y="214.7" width="6" height="8" fill="#91b0b8" opacity="0.5"/>
<rect x="348.8" y="230.7" width="6" height="8" fill="#91b0b8" opacity="0.5"/>
<rect x="362.8" y="230.7" width="6" height="8" fill="#91b0b8" opacity="0.5"/>
<rect x="376.8" y="230.7" width="6" height="8" fill="#91b0b8" opacity="0.5"/>
<rect x="362.8" y="246.7" width="6" height="8" fill="#91b0b8" opacity="0.5"/>
<rect x="376.8" y="246.7" width="6" height="8" fill="#91b0b8" opacity="0.5"/>
<rect x="348.8" y="262.7" width="6" height="8" fill="#91b0b8" opacity="0.5"/>
<rect x="597.7" y="160.0" width="65.8" height="140.0" fill="#558592"/>
<polygon points="597.7,160.0 630.6,143.6 663.5,160.0" fill="#4e7a86"/>
<rect x="627.6" y="172.0" width="6" height="8" fill="#91b0b8" opacity="0.5"/>
<rect x="627.6" y="188.0" width="6" height="8" fill="#91b0b8" opacity="0.5"/>
<rect x="641.6" y="188.0" width="6" height="8" fill="#91b0b8" opacity="0.5"/>
<rect x="613.6" y="204.0" width="6" height="8" fill="#91b0b8" opacity="0.5"/>
<rect x="627.6" y="204.0" width="6" height="8" fill="#91b0b8" opacity="0.5"/>
<rect x="641.6" y="204.0" width="6" height="8" fill="#91b0b8" opacity="0.5"/>
<rect x="613.6" y="220.0" width="6" height="8" fill="#91b0b8" opacity="0.5"/>
<rect x="627.6" y="220.0" width="6" height="8" fill="#91b0b8" opacity="0.5"/>
<rect x="641.6" y="220.0" width="6" height="8" fill="#91b0b8" opacity="0.5"/>
<rect x="613.6" y="236.0" width="6" height="8" fill="#91b0b8" opacity="0.5"/>
<rect x="627.6" y="236.0" width="6" height="8" fill="#91b0b8" opacity="0.5"/>
<rect x="641.6" y="236.0" width="6" height="8" fill="#91b0b8" opacity="0.5"/>
<rect x="613.6" y="252.0" width="6" height="8" fill="#91b0b8" opacity="0.5"/>
<rect x="627.6" y="252.0" width="6" height="8" fill="#91b0b8" opacity="0.5"/>
<rect x="641.6" y="252.0" width="6" height="8" fill="#91b0b8" opacity="0.5"/>
<rect x="801.8" y="162.1" width="76.0" height="137.9" fill="#558592"/>
<rect x="815.1" y="137.7" width="49.4" height="24.3" fill="#517e8b"/>
<rect x="836.8" y="149.7" width="6" height="8" fill="#91b0b8" opacity="0.5"/>
<rect x="850.8" y="149.7" width="6" height="8" fill="#91b0b8" opacity="0.5"/>
<rect x="822.8" y="165.7" width="6" height="8" fill="#91b0b8" opacity="0.5"/>
<rect x="836.8" y="165.7" width="6" height="8" fill="#91b0b8" opacity="0.5"/>
<rect x="850.8" y="165.7" width="6" height="8" fill="#91b0b8" opacity="0.5"/>
<rect x="822.8" y="181.7" width="6" height="8" fill="#91b0b8" opacity="0.5"/>
<rect x="836.8" y="181.7" width="6" height="8" fill="#91b0b8" opacity="0.5"/>
<rect x="822.8" y="197.7" width="6" height="8" fill="#91b0b8" opacity="0.5"/>
<rect x="836.8" y="197.7" width="6" height="8" fill="#91b0b8" opacity="0.5"/>
<rect x="850.8" y="197.7" width="6" height="8" fill="#91b0b8" opacity="0.5"/>
<rect x="836.8" y="213.7" width="6" height="8" fill="#91b0b8" opacity="0.5"/>
<rect x="850.8" y="213.7" width="6" height="8" fill="#91b0b8" opacity="0.5"/>
<rect x="850.8" y="229.7" width="6" height="8" fill="#91b0b8" opacity="0.5"/>
<rect x="997.9" y="181.2" width="52.9" height="118.8" fill="#558592"/>
<rect x="1007.2" y="160.3" width="34.4" height="21.0" fill="#517e8b"/>
<rect x="1014.4" y="172.3" width="6" height="8" fill="#91b0b8" opacity="0.5"/>
<rect x="1028.4" y="172.3" width="6" height="8" fill="#91b0b8" opacity="0.5"/>
<rect x="1014.4" y="188.3" width="6" height="8" fill="#91b0b8" opacity="0.5"/>
<rect x="1028.4" y="188.3" width="6" height="8" fill="#91b0b8" opacity="0.5"/>
<rect x="1014.4" y="220.3" width="6" height="8" fill="#91b0b8" opacity="0.5"/>
<rect x="1028.4" y="220.3" width="6" height="8" fill="#91b0b8" opacity="0.5"/>
<rect x="1014.4" y="236.3" width="6" height="8" fill="#91b0b8" opacity="0.5"/>
<rect x="1028.4" y="236.3" width="6" height="8" fill="#91b0b8" opacity="0.5"/>
<rect x="1014.4" y="252.3" width="6" height="8" fill="#91b0b8" opacity="0.5"/>
<rect x="1028.4" y="252.3" width="6" height="8" fill="#91b0b8" opacity="0.5"/>
<rect x="115.7" y="113.1" width="44.5" height="186.9" fill="#2b6777"/>
<rect x="127.9" y="125.1" width="6" height="8" fill="#759ca7" opacity="0.5"/>
<rect x="141.9" y="141.1" width="6" height="8" fill="#759ca7" opacity="0.5"/>
<rect x="141.9" y="157.1" width="6" height="8" fill="#759ca7" opacity="0.5"/>
<rect x="141.9" y="173.1" width="6" height="8" fill="#759ca7" opacity="0.5"/>
<rect x="141.9" y="205.1" width="6" height="8" fill="#759ca7" opacity="0.5"/>
<rect x="331.0" y="243.4" width="42.6" height="56.6" fill="#2b6777"/>
<rect x="338.4" y="233.4" width="27.7" height="10.0" fill="#296271"/>
<rect x="349.3" y="245.4" width="6" height="8" fill="#759ca7" opacity="0.5"/>
<rect x="349.3" y="261.4" width="6" height="8" fill="#759ca7" opacity="0.5"/>
<rect x="584.3" y="157.6" width="74.8" height="142.4" fill="#2b6777"/>
<rect x="597.4" y="132.4" width="48.6" height="25.1" fill="#296271"/>
<rect x="604.7" y="144.4" width="6" height="8" fill="#759ca7" opacity="0.5"/>
<rect x="618.7" y="144.4" width="6" height="8" fill="#759ca7" opacity="0.5"/>
<rect x="632.7" y="144.4" width="6" height="8" fill="#759ca7" opacity="0.5"/>
<rect x="604.7" y="160.4" width="6" height="8" fill="#759ca7" opacity="0.5"/>
<rect x="618.7" y="160.4" width="6" height="8" fill="#759ca7" opacity="0.5"/>
<rect x="632.7" y="160.4" width="6" height="8" fill="#759ca7" opacity="0.5"/>
<rect x="604.7" y="176.4" width="6" height="8" fill="#759ca7" opacity="0.5"/>
<rect x="618.7" y="176.4" width="6" height="8" fill="#759ca7" opacity="0.5"/>
<rect x="632.7" y="176.4" width="6" height="8" fill="#759ca7" opacity="0.5"/>
<rect x="604.7" y="208.4" width="6" height="8" fill="#759ca7" opacity="0.5"/>
<rect x="618.7" y="208.4" width="6" height="8" fill="#759ca7" opacity="0.5"/>
<rect x="604.7" y="224.4" width="6" height="8" fill="#759ca7" opacity="0.5"/>
<rect x="815.1" y="169.2" width="52.4" height="130.8" fill="#2b6777"/>
<rect x="831.3" y="181.2" width="6" height="8" fill="#759ca7" opacity="0.5"/>
<rect x="845.3" y="181.2" width="6" height="8" fill="#759ca7" opacity="0.5"/>
<rect x="831.3" y="197.2" width="6" height="8" fill="#759ca7" opacity="0.5"/>
<rect x="831.3" y="213.2" width="6" height="8" fill="#759ca7" opacity="0.5"/>
<rect x="845.3" y="213.2" width="6" height="8" fill="#759ca7" opacity="0.5"/>
<rect x="845.3" y="229.2" width="6" height="8" fill="#759ca7" opacity="0.5"/>
<rect x="831.3" y="245.2" width="6" height="8" fill="#759ca7" opacity="0.5"/>
<rect x="845.3" y="245.2" width="6" height="8" fill="#759ca7" opacity="0.5"/>
<rect x="845.3" y="261.2" width="6" height="8" fill="#759ca7" opacity="0.5"/>
<rect x="1053.4" y="148.6" width="58.0" height="151.4" fill="#2b6777"/>
<rect x="1063.6" y="121.9" width="37.7" height="26.7" fill="#296271"/>
<rect x="1065.4" y="133.9" width="6" height="8" fill="#759ca7" opacity="0.5"/>
<rect x="1079.4" y="133.9" width="6" height="8" fill="#759ca7" opacity="0.5"/>
<rect x="1093.4" y="133.9" width="6" height="8" fill="#759ca7" opacity="0.5"/>
<rect x="1093.4" y="149.9" width="6" height="8" fill="#759ca7" opacity="0.5"/>
<rect x="1079.4" y="165.9" width="6" height="8" fill="#759ca7" opacity="0.5"/>
<rect x="1093.4" y="165.9" width="6" height="8" fill="#759ca7" opacity="0.5"/>
<rect x="1065.4" y="181.9" width="6" height="8" fill="#759ca7" opacity="0.5"/>
<rect x="1079.4" y="181.9" width="6" height="8" fill="#759ca7" opacity="0.5"/>
<rect x="1065.4" y="197.9" width="6" height="8" fill="#759ca7" opacity="0.5"/>
<rect x="1093.4" y="213.9" width="6" height="8" fill="#759ca7" opacity="0.5"/>
<line x1="245.6" y1="285.0" x2="245.6" y2="273.2" stroke="#6b5a42" stroke-width="3"/>
<circle cx="245.6" cy="258.6" r="14.6" fill="#517e42"/>
<line x1="478.9" y1="285.0" x2="478.9" y2="269.5" stroke="#6b5a42" stroke-width="3"/>
<circle cx="478.9" cy="251.7" r="17.8" fill="#517e43"/>
<line x1="737.1" y1="285.0" x2="737.1" y2="269.6" stroke="#6b5a42" stroke-width="3"/>
<circle cx="737.1" cy="256.4" r="13.2" fill="#527f43"/>
<line x1="960.5" y1="285.0" x2="960.5" y2="272.4" stroke="#6b5a42" stroke-width="3"/>
<circle cx="960.5" cy="259.5" r="12.9" fill="#538144"/>
<line x1="205.3" y1="285.0" x2="205.3" y2="271.6" stroke="#6b5a42" stroke-width="3"/>
<circle cx="205.3" cy="256.5" r="15.1" fill="#528043"/>
<line x1="757.7" y1="285.0" x2="757.7" y2="274.0" stroke="#6b5a42" stroke-width="3"/>
<circle cx="757.7" cy="256.8" r="17.2" fill="#528044"/>
<line x1="513.8" y1="285.0" x2="513.8" y2="273.9" stroke="#6b5a42" stroke-width="3"/>
<circle cx="513.8" cy="258.2" r="15.7" fill="#507c42"/>
<rect x="0" y="285" width="1200" height="15" fill="#9aaa85" opacity="0.4"/>
</svg>