<svg xmlns="http://www.w3.org/2000/svg" viewBox="0 0 1200 300" width="1200" height="300">
<rect width="1200" height="300" fill="#e8edf2"/>
<path d="M0 300 L0 210.0 C356.6 172.8, 958.0 190.9, 1200 210.0 L1200 300 Z" fill="#b1bdcc" opacity="0.3"/>
<rect x="164.3" y="211.6" width="48.9" height="88.4" fill="#94a4b9"/>
<rect x="516.1" y="207.4" width="61.6" height="92.6" fill="#94a4b9"/>
<rect x="906.2" y="236.3" width="72.6" height="63.7" fill="#94a4b9"/>
<rect x="160.6" y="193.6" width="45.2" height="106.4" fill="#647b99"/>
<rect x="173.2" y="205.6" width="6" height="8" fill="#9aa9bd" opacity="0.5"/>
<rect x="187.2" y="205.6" width="6" height="8" fill="#9aa9bd" opacity="0.5"/>
<rect x="173.2" y="221.6" width="6" height="8" fill="#9aa9bd" opacity="0.5"/>
<rect x="173.2" y="237.6" width="6" height="8" fill="#9aa9bd" opacity="0.5"/>
<rect x="187.2" y="237.6" width="6" height="8" fill="#9aa9bd" opacity="0.5"/>
<rect x="173.2" y="253.6" width="6" height="8" fill="#9aa9bd" opacity="0.5"/>
<rect x="187.2" y="253.6" width="6" height="8" fill="#9aa9bd" opacity="0.5"/>
<rect x="173.2" y="269.6" width="6" height="8" fill="#9aa9bd" opacity="0.5"/>
<rect x="187.2" y="269.6" width="6" height="8" fill="#9aa9bd" opacity="0.5"/>
<rect x="409.7" y="231.8" width="52.1" height="68.2" fill="#647b99"/>
<rect x="425.8" y="243.8" width="6" height="8" fill="#9aa9bd" opacity="0.5"/>
<rect x="439.8" y="243.8" width="6" height="8" fill="#9aa9bd" opacity="0.5"/>
<rect x="425.8" y="259.8" width="6" height="8" fill="#9aa9bd" opacity="0.5"/>
<rect x="687.8" y="187.8" width="69.2" height="112.2" fill="#647b99"/>
<rect x="719.4" y="199.8" width="6" height="8" fill="#9aa9bd" opacity="0.5"/>
<rect x="705.4" y="215.8" width="6" height="8" fill="#9aa9bd" opacity="0.5"/>
<rect x="733.4" y="215.8" width="6" height="8" fill="#9aa9bd" opacity="0.5"/>
<rect x="705.4" y="231.8" width="6" height="8" fill="#9aa9bd" opacity="0.5"/>
<rect x="719.4" y="231.8" width="6" height="8" fill="#9aa9bd" opacity="0.5"/>
<rect x="733.4" y="231.8" width="6" height="8" fill="#9aa9bd" opacity="0.5"/>
<rect x="705.4" y="247.8" width="6" height="8" fill="#9aa9bd" opacity="0.5"/>
<rect x="719.4" y="247.8" width="6" height="8" fill="#9aa9bd" opacity="0.5"/>
<rect x="733.4" y="247.8" width="6" height="8" fill="#9aa9bd" opacity="0.5"/>
<rect x="719.4" y="263.8" width="6" height="8" fill="#9aa9bd" opacity="0.5"/>
<rect x="953.5" y="210.4" width="78.5" height="89.6" fill="#647b99"/>
<rect x="968.8" y="222.4" width="6" height="8" fill="#9aa9bd" opacity="0.5"/>
<rect x="982.8" y="222.4" width="6" height="8" fill="#9aa9bd" opacity="0.5"/>
<rect x="1010.8" y="222.4" width="6" height="8" fill="#9aa9bd" opacity="0.5"/>
<rect x="968.8" y="238.4" width="6" height="8" fill="#9aa9bd" opacity="0.5"/>
<rect x="982.8" y="238.4" width="6" height="8" fill="#9aa9bd" opacity="0.5"/>
<rect x="996.8" y="238.4" width="6" height="8" fill="#9aa9bd" opacity="0.5"/>
<rect x="1010.8" y="238.4" width="6" height="8" fill="#9aa9bd" opacity="0.5"/>
<rect x="968.8" y="254.4" width="6" height="8" fill="#9aa9bd" opacity="0.5"/>
<rect x="982.8" y="254.4" width="6" height="8" fill="#9aa9bd" opacity="0.5"/>
<rect x="996.8" y="254.4" width="6" height="8" fill="#9aa9bd" opacity="0.5"/>
<rect x="1010.8" y="254.4" width="6" height="8" fill="#9aa9bd" opacity="0.5"/>
<rect x="968.8" y="270.4" width="6" height="8" fill="#9aa9bd" opacity="0.5"/>
<rect x="982.8" y="270.4" width="6" height="8" fill="#9aa9bd" opacity="0.5"/>
<rect x="996.8" y="270.4" width="6" height="8" fill="#9aa9bd" opacity="0.5"/>
<rect x="1010.8" y="270.4" width="6" height="8" fill="#9aa9bd" opacity="0.5"/>
<rect x="198.2" y="246.7" width="44.5" height="53.3" fill="#3d5a80"/>
<rect x="596.0" y="217.0" width="43.7" height="83.0" fill="#3d5a80"/>
<rect x="614.8" y="229.0" width="6" height="8" fill="#8194ac" opacity="0.5"/>
<rect x="614.8" y="245.0" width="6" height="8" fill="#8194ac" opacity="0.5"/>
<rect x="614.8" y="261.0" width="6" height="8" fill="#8194ac" opacity="0.5"/>
<rect x="974.1" y="238.7" width="55.6" height="61.3" fill="#3d5a80"/>
<rect x="991.9" y="250.7" width="6" height="8" fill="#8194ac" opacity="0.5"/>
<rect x="1005.9" y="266.7" width="6" height="8" fill="#8194ac" opacity="0.5"/>
<rect x="0" y="298" width="1200" height="2" fill="#375173" opacity="0.15"/>
</svg>