<svg xmlns="http://www.w3.org/2000/svg" viewBox="0 0 1200 300" width="1200" height="300">
<defs><linearGradient id="skyGrad" x1="0" y1="0" x2="0" y2="1"><stop offset="0%" stop-color="#e6ecf2"/><stop offset="100%" stop-color="#f0eeec"/></linearGradient></defs><rect width="1200" height="300" fill="url(#skyGrad)"/>
<path d="M0 300 L0 198.3 C354.5 185.6, 934.1 191.3, 1200 198.3 L1200 300 Z" fill="#aac2c9" opacity="0.25"/>
<rect x="162.0" y="205.9" width="42.2" height="94.1" fill="#8aabb4"/>
<polygon points="162.0,205.9 183.1,195.4 204.2,205.9" fill="#7f9da6"/>
<rect x="408.8" y="207.3" width="44.6" height="92.7" fill="#8aabb4"/>
<rect x="721.9" y="196.1" width="70.8" height="103.9" fill="#8aabb4"/>
<rect x="1008.3" y="241.3" width="60.0" height="58.7" fill="#8aabb4"/>
<polygon points="1008.3,241.3 1038.3,226.4 1068.2,241.3" fill="#7f9da6"/>
<rect x="92.7" y="199.2" width="74.8" height="100.8" fill="#558592"/>
<rect x="105.8" y="181.4" width="48.6" height="17.8" fill="#517e8b"/>
<rect x="127.1" y="193.4" width="6" height="8" fill="#91b0b8" opacity="0.5"/>
<rect x="141.1" y="193.4" width="6" height="8" fill="#91b0b8" opacity="0.5"/>
<rect x="127.1" y="209.4" width="6" height="8" fill="#91b0b8" opacity="0.5"/>
<rect x="113.1" y="225.4" width="6" height="8" fill="#91b0b8" opacity="0.5"/>
<rect x="127.1" y="241.4" width="6" height="8" fill="#91b0b8" opacity="0.5"/>
<rect x="141.1" y="241.4" width="6" height="8" fill="#91b0b8" opacity="0.5"/>
<rect x="113.1" y="257.4" width="6" height="8" fill="#91b0b8" opacity="0.5"/>
<rect x="127.1" y="257.4" width="6" height="8" fill="#91b0b8" opacity="0.5"/>
<rect x="141.1" y="257.4" width="6" height="8" fill="#91b0b8" opacity="0.5"/>
<rect x="141.1" y="273.4" width="6" height="8" fill="#91b0b8" opacity="0.5"/>
<rect x="342.3" y="225.7" width="67.1" height="74.3" fill="#558592"/>
<rect x="354.1" y="212.5" width="43.6" height="13.1" fill="#517e8b"/>
<rect x="386.9" y="224.5" width="6" height="8" fill="#91b0b8" opacity="0.5"/>
<rect x="358.9" y="240.5" width="6" height="8" fill="#91b0b8" opacity="0.5"/>
<rect x="372.9" y="240.5" width="6" height="8" fill="#91b0b8" opacity="0.5"/>
<rect x="386.9" y="240.5" width="6" height="8" fill="#91b0b8" opacity="0.5"/>
<rect x="358.9" y="256.5" width="6" height="8" fill="#91b0b8" opacity="0.5"/>
<rect x="372.9" y="256.5" width="6" height="8" fill="#91b0b8" opacity="0.5"/>
<rect x="386.9" y="256.5" width="6" height="8" fill="#91b0b8" opacity="0.5"/>
<rect x="358.9" y="272.5" width="6" height="8" fill="#91b0b8" opacity="0.5"/>
<rect x="372.9" y="272.5" width="6" height="8" fill="#91b0b8" opacity="0.5"/>
<rect x="386.9" y="272.5" width="6" height="8" fill="#91b0b8" opacity="0.5"/>
<rect x="571.9" y="201.0" width="56.3" height="99.0" fill="#558592"/>
<rect x="590.1" y="213.0" width="6" height="8" fill="#91b0b8" opacity="0.5"/>
<rect x="604.1" y="245.0" width="6" height="8" fill="#91b0b8" opacity="0.5"/>
<rect x="604.1" y="261.0" width="6" height="8" fill="#91b0b8" opacity="0.5"/>
<rect x="823.6" y="161.5" width="41.5" height="138.5" fill="#558592"/>
<polygon points="823.6,161.5 844.3,151.2 865.0,161.5" fill="#4e7a86"/>
<rect x="841.3" y="173.5" width="6" height="8" fill="#91b0b8" opacity="0.5"/>
<rect x="841.3" y="189.5" width="6" height="8" fill="#91b0b8" opacity="0.5"/>
<rect x="841.3" y="237.5" width="6" height="8" fill="#91b0b8" opacity="0.5"/>
<rect x="1013.2" y="200.0" width="60.7" height="100.0" fill="#558592"/>
<rect x="1040.6" y="212.0" width="6" height="8" fill="#91b0b8" opacity="0.5"/>
<rect x="1040.6" y="228.0" width="6" height="8" fill="#91b0b8" opacity="0.5"/>
<rect x="1026.6" y="244.0" width="6" height="8" fill="#91b0b8" opacity="0.5"/>
<rect x="1040.6" y="244.0" width="6" height="8" fill="#91b0b8" opacity="0.5"/>
<rect x="1054.6" y="244.0" width="6" height="8" fill="#91b0b8" opacity="0.5"/>
<rect x="1040.6" y="260.0" width="6" height="8" fill="#91b0b8" opacity="0.5"/>
<rect x="1054.6" y="260.0" width="6" height="8" fill="#91b0b8" opacity="0.5"/>
<rect x="139.2" y="247.3" width="38.3" height="52.7" fill="#2b6777"/>
<rect x="374.2" y="250.6" width="63.5" height="49.4" fill="#2b6777"/>
<polygon points="374.2,250.6 406.0,234.8 437.7,250.6" fill="#285f6d"/>
<rect x="580.8" y="108.7" width="34.2" height="191.3" fill="#2b6777"/>
<rect x="594.9" y="120.7" width="6" height="8" fill="#759ca7" opacity="0.5"/>
<rect x="594.9" y="152.7" width="6" height="8" fill="#759ca7" opacity="0.5"/>
<rect x="594.9" y="168.7" width="6" height="8" fill="#759ca7" opacity="0.5"/>
<rect x="594.9" y="184.7" width="6" height="8" fill="#759ca7" opacity="0.5"/>
<rect x="594.9" y="200.7" width="6" height="8" fill="#759ca7" opacity="0.5"/>
<rect x="816.5" y="151.5" width="49.9" height="148.5" fill="#2b6777"/>
<rect x="831.5" y="163.5" width="6" height="8" fill="#759ca7" opacity="0.5"/>
<rect x="845.5" y="163.5" width="6" height="8" fill="#759ca7" opacity="0.5"/>
<rect x="831.5" y="179.5" width="6" height="8" fill="#759ca7" opacity="0.5"/>
<rect x="845.5" y="179.5" width="6" height="8" fill="#759ca7" opacity="0.5"/>
<rect x="831.5" y="195.5" width="6" height="8" fill="#759ca7" opacity="0.5"/>
<rect x="845.5" y="195.5" width="6" height="8" fill="#759ca7" opacity="0.5"/>
<rect x="831.5" y="211.5" width="6" height="8" fill="#759ca7" opacity="0.5"/>
<rect x="845.5" y="211.5" width="6" height="8" fill="#759ca7" opacity="0.5"/>
<rect x="845.5" y="227.5" width="6" height="8" fill="#759ca7" opacity="0.5"/>
<rect x="831.5" y="243.5" width="6" height="8" fill="#759ca7" opacity="0.5"/>
<rect x="845.5" y="243.5" width="6" height="8" fill="#759ca7" opacity="0.5"/>
<rect x="1047.0" y="150.4" width="70.4" height="149.6" fill="#2b6777"/>
<rect x="1079.2" y="162.4" width="6" height="8" fill="#759ca7" opacity="0.5"/>
<rect x="1065.2" y="178.4" width="6" height="8" fill="#759ca7" opacity="0.5"/>
<rect x="1079.2" y="178.4" width="6" height="8" fill="#759ca7" opacity="0.5"/>
<rect x="1093.2" y="178.4" width="6" height="8" fill="#759ca7" opacity="0.5"/>
<rect x="1065.2" y="194.4" width="6" height="8" fill="#759ca7" opacity="0.5"/>
<rect x="1079.2" y="194.4" width="6" height="8" fill="#759ca7" opacity="0.5"/>
<rect x="1093.2" y="194.4" width="6" height="8" fill="#759ca7" opacity="0.5"/>
<rect x="1065.2" y="210.4" width="6" height="8" fill="#759ca7" opacity="0.5"/>
<rect x="1079.2" y="210.4" width="6" height="8" fill="#759ca7" opacity="0.5"/>
<rect x="1079.2" y="226.4" width="6" height="8" fill="#759ca7" opacity="0.5"/>
<rect x="1065.2" y="242.4" width="6" height="8" fill="#759ca7" opacity="0.5"/>
<rect x="1079.2" y="242.4" width="6" height="8" fill="#759ca7" opacity="0.5"/>
<rect x="1093.2" y="242.4" width="6" height="8" fill="#759ca7" opacity="0.5"/>
<line x1="275.8" y1="285.0" x2="275.8" y2="271.8" stroke="#6b5a42" stroke-width="3"/>
<circle cx="275.8" cy="256.4" r="15.4" fill="#527f43"/>
<line x1="509.3" y1="285.0" x2="509.3" y2="273.6" stroke="#6b5a42" stroke-width="3"/>
<circle cx="509.3" cy="261.4" r="12.2" fill="#578848"/>
<line x1="715.8" y1="285.0" x2="715.8" y2="269.1" stroke="#6b5a42" stroke-width="3"/>
<circle cx="715.8" cy="256.5" r="12.6" fill="#4f7b41"/>
<line x1="956.7" y1="285.0" x2="956.7" y2="274.3" stroke="#6b5a42" stroke-width="3"/>
<circle cx="956.7" cy="259.9" r="14.4" fill="#507c42"/>
<line x1="961.7" y1="285.0" x2="961.7" y2="273.5" stroke="#6b5a42" stroke-width="3"/>
<circle cx="961.7" cy="260.8" r="12.7" fill="#507d42"/>
<line x1="171.3" y1="285.0" x2="171.3" y2="271.8" stroke="#6b5a42" stroke-width="3"/>
<circle cx="171.3" cy="259.6" r="12.2" fill="#4f7c41"/>
<line x1="656.6" y1="285.0" x2="656.6" y2="270.2" stroke="#6b5a42" stroke-width="3"/>
<circle cx="656.6" cy="256.8" r="13.4" fill="#548345"/>
<rect x="0" y="285" width="1200" height="15" fill="#9aaa85" opacity="0.4"/>
</svg>