<svg xmlns="http://www.w3.org/2000/svg" viewBox="0 0 1200 300" width="1200" height="300">
<rect width="1200" height="300" fill="#e0eff2"/>
<path d="M0 300 L0 210.0 C224.1 170.9, 934.1 196.7, 1200 210.0 L1200 300 Z" fill="#aac2c9" opacity="0.3"/>
<rect x="126.4" y="198.9" width="83.4" height="101.1" fill="#8aabb4"/>
<rect x="520.4" y="228.5" width="66.1" height="71.5" fill="#8aabb4"/>
<rect x="960.7" y="195.6" width="65.0" height="104.4" fill="#8aabb4"/>
<rect x="131.5" y="167.1" width="64.9" height="132.9" fill="#558592"/>
<rect x="174.9" y="179.1" width="6" height="8" fill="#91b0b8" opacity="0.5"/>
<rect x="146.9" y="195.1" width="6" height="8" fill="#91b0b8" opacity="0.5"/>
<rect x="160.9" y="195.1" width="6" height="8" fill="#91b0b8" opacity="0.5"/>
<rect x="174.9" y="195.1" width="6" height="8" fill="#91b0b8" opacity="0.5"/>
<rect x="146.9" y="211.1" width="6" height="8" fill="#91b0b8" opacity="0.5"/>
<rect x="160.9" y="211.1" width="6" height="8" fill="#91b0b8" opacity="0.5"/>
<rect x="174.9" y="211.1" width="6" height="8" fill="#91b0b8" opacity="0.5"/>
<rect x="146.9" y="227.1" width="6" height="8" fill="#91b0b8" opacity="0.5"/>
<rect x="174.9" y="227.1" width="6" height="8" fill="#91b0b8" opacity="0.5"/>
<rect x="146.9" y="243.1" width="6" height="8" fill="#91b0b8" opacity="0.5"/>
<rect x="174.9" y="243.1" width="6" height="8" fill="#91b0b8" opacity="0.5"/>
<rect x="146.9" y="259.1" width="6" height="8" fill="#91b0b8" opacity="0.5"/>
<rect x="160.9" y="259.1" width="6" height="8" fill="#91b0b8" opacity="0.5"/>
<rect x="174.9" y="259.1" width="6" height="8" fill="#91b0b8" opacity="0.5"/>
<rect x="472.8" y="196.0" width="35.1" height="104.0" fill="#558592"/>
<rect x="487.3" y="224.0" width="6" height="8" fill="#91b0b8" opacity="0.5"/>
<rect x="487.3" y="256.0" width="6" height="8" fill="#91b0b8" opacity="0.5"/>
<rect x="487.3" y="272.0" width="6" height="8" fill="#91b0b8" opacity="0.5"/>
<rect x="732.8" y="173.2" width="55.8" height="126.8" fill="#558592"/>
<rect x="750.7" y="185.2" width="6" height="8" fill="#91b0b8" opacity="0.5"/>
<rect x="764.7" y="185.2" width="6" height="8" fill="#91b0b8" opacity="0.5"/>
<rect x="750.7" y="201.2" width="6" height="8" fill="#91b0b8" opacity="0.5"/>
<rect x="764.7" y="201.2" width="6" height="8" fill="#91b0b8" opacity="0.5"/>
<rect x="750.7" y="217.2" width="6" height="8" fill="#91b0b8" opacity="0.5"/>
<rect x="764.7" y="217.2" width="6" height="8" fill="#91b0b8" opacity="0.5"/>
<rect x="750.7" y="233.2" width="6" height="8" fill="#91b0b8" opacity="0.5"/>
<rect x="764.7" y="233.2" width="6" height="8" fill="#91b0b8" opacity="0.5"/>
<rect x="764.7" y="249.2" width="6" height="8" fill="#91b0b8" opacity="0.5"/>
<rect x="750.7" y="265.2" width="6" height="8" fill="#91b0b8" opacity="0.5"/>
<rect x="764.7" y="265.2" width="6" height="8" fill="#91b0b8" opacity="0.5"/>
<rect x="1005.2" y="178.0" width="39.9" height="122.0" fill="#558592"/>
<rect x="1022.2" y="206.0" width="6" height="8" fill="#91b0b8" opacity="0.5"/>
<rect x="1022.2" y="222.0" width="6" height="8" fill="#91b0b8" opacity="0.5"/>
<rect x="1022.2" y="238.0" width="6" height="8" fill="#91b0b8" opacity="0.5"/>
<rect x="1022.2" y="254.0" width="6" height="8" fill="#91b0b8" opacity="0.5"/>
<rect x="1022.2" y="270.0" width="6" height="8" fill="#91b0b8" opacity="0.5"/>
<rect x="121.7" y="143.3" width="40.8" height="156.7" fill="#2b6777"/>
<rect x="139.0" y="155.3" width="6" height="8" fill="#759ca7" opacity="0.5"/>
<rect x="139.0" y="171.3" width="6" height="8" fill="#759ca7" opacity="0.5"/>
<rect x="139.0" y="187.3" width="6" height="8" fill="#759ca7" opacity="0.5"/>
<rect x="139.0" y="203.3" width="6" height="8" fill="#759ca7" opacity="0.5"/>
<rect x="139.0" y="219.3" width="6" height="8" fill="#759ca7" opacity="0.5"/>
<rect x="139.0" y="235.3" width="6" height="8" fill="#759ca7" opacity="0.5"/>
<rect x="139.0" y="251.3" width="6" height="8" fill="#759ca7" opacity="0.5"/>
<rect x="139.0" y="267.3" width="6" height="8" fill="#759ca7" opacity="0.5"/>
<rect x="433.1" y="204.7" width="61.0" height="95.3" fill="#2b6777"/>
<rect x="474.6" y="216.7" width="6" height="8" fill="#759ca7" opacity="0.5"/>
<rect x="446.6" y="232.7" width="6" height="8" fill="#759ca7" opacity="0.5"/>
<rect x="474.6" y="232.7" width="6" height="8" fill="#759ca7" opacity="0.5"/>
<rect x="460.6" y="248.7" width="6" height="8" fill="#759ca7" opacity="0.5"/>
<rect x="474.6" y="248.7" width="6" height="8" fill="#759ca7" opacity="0.5"/>
<rect x="460.6" y="264.7" width="6" height="8" fill="#759ca7" opacity="0.5"/>
<rect x="474.6" y="264.7" width="6" height="8" fill="#759ca7" opacity="0.5"/>
<rect x="694.8" y="147.6" width="41.3" height="152.4" fill="#2b6777"/>
<rect x="712.5" y="175.6" width="6" height="8" fill="#759ca7" opacity="0.5"/>
<rect x="712.5" y="207.6" width="6" height="8" fill="#759ca7" opacity="0.5"/>
<rect x="712.5" y="223.6" width="6" height="8" fill="#759ca7" opacity="0.5"/>
<rect x="712.5" y="255.6" width="6" height="8" fill="#759ca7" opacity="0.5"/>
<rect x="1032.8" y="105.5" width="31.2" height="194.5" fill="#2b6777"/>
<rect x="1045.4" y="117.5" width="6" height="8" fill="#759ca7" opacity="0.5"/>
<rect x="1045.4" y="133.5" width="6" height="8" fill="#759ca7" opacity="0.5"/>
<rect x="1045.4" y="149.5" width="6" height="8" fill="#759ca7" opacity="0.5"/>
<rect x="1045.4" y="181.5" width="6" height="8" fill="#759ca7" opacity="0.5"/>
<rect x="1045.4" y="197.5" width="6" height="8" fill="#759ca7" opacity="0.5"/>
<rect x="1045.4" y="213.5" width="6" height="8" fill="#759ca7" opacity="0.5"/>
<rect x="1045.4" y="229.5" width="6" height="8" fill="#759ca7" opacity="0.5"/>
<rect x="1045.4" y="245.5" width="6" height="8" fill="#759ca7" opacity="0.5"/>
<rect x="1045.4" y="261.5" width="6" height="8" fill="#759ca7" opacity="0.5"/>
<rect x="0" y="298" width="1200" height="2" fill="#275d6b" opacity="0.15"/>
</svg>