<svg xmlns="http://www.w3.org/2000/svg" viewBox="0 0 1200 300" width="1200" height="300">
<defs>
<linearGradient id="skyGrad" x1="0" y1="0" x2="0" y2="1">
<stop offset="0%" stop-color="#818cf8"/>
<stop offset="20%" stop-color="#c4b5fd"/>
<stop offset="38%" stop-color="#fda4af"/>
<stop offset="55%" stop-color="#fdba74"/>
<stop offset="75%" stop-color="#fef08a"/>
<stop offset="100%" stop-color="#fef9c3"/>
</linearGradient>
<linearGradient id="bldg_coral" x1="0" y1="0" x2="0" y2="1"><stop offset="0%" stop-color="#fecaca"/><stop offset="100%" stop-color="#fca5a5"/></linearGradient>
<linearGradient id="bldg_teal" x1="0" y1="0" x2="0" y2="1"><stop offset="0%" stop-color="#99f6e4"/><stop offset="100%" stop-color="#5eead4"/></linearGradient>
<linearGradient id="bldg_amber" x1="0" y1="0" x2="0" y2="1"><stop offset="0%" stop-color="#fde68a"/><stop offset="100%" stop-color="#fcd34d"/></linearGradient>
<linearGradient id="bldg_lavender" x1="0" y1="0" x2="0" y2="1"><stop offset="0%" stop-color="#ddd6fe"/><stop offset="100%" stop-color="#c4b5fd"/></linearGradient>
<linearGradient id="bldg_blue" x1="0" y1="0" x2="0" y2="1"><stop offset="0%" stop-color="#bfdbfe"/><stop offset="100%" stop-color="#93c5fd"/></linearGradient>
<linearGradient id="bldg_mint" x1="0" y1="0" x2="0" y2="1"><stop offset="0%" stop-color="#a7f3d0"/><stop offset="100%" stop-color="#6ee7b7"/></linearGradient>
<linearGradient id="bldg_rose" x1="0" y1="0" x2="0" y2="1"><stop offset="0%" stop-color="#fecdd3"/><stop offset="100%" stop-color="#fda4af"/></linearGradient>
<linearGradient id="bldg_sky" x1="0" y1="0" x2="0" y2="1"><stop offset="0%" stop-color="#bae6fd"/><stop offset="100%" stop-color="#7dd3fc"/></linearGradient>
<linearGradient id="roof_navyRoof" x1="0" y1="0" x2="0" y2="1"><stop offset="0%" stop-color="#4338ca"/><stop offset="100%" stop-color="#3730a3"/></linearGradient>
<linearGradient id="roof_coralRoof" x1="0" y1="0" x2="0" y2="1"><stop offset="0%" stop-color="#f87171"/><stop offset="100%" stop-color="#ef4444"/></linearGradient>
<linearGradient id="roof_tealRoof" x1="0" y1="0" x2="0" y2="1"><stop offset="0%" stop-color="#2dd4bf"/><stop offset="100%" stop-color="#14b8a6"/></linearGradient>
<radialGradient id="windowGlow" cx="50%" cy="50%" r="50%"><stop offset="0%" stop-color="#fef08a"/><stop offset="60%" stop-color="#fbbf24"/><stop offset="100%" stop-color="#f59e0b"/></radialGradient>
<linearGradient id="hillFar" x1="0" y1="0" x2="0" y2="1"><stop offset="0%" stop-color="#c4b5fd"/><stop offset="100%" stop-color="#a5b4fc"/></linearGradient>
<linearGradient id="hillMid" x1="0" y1="0" x2="0" y2="1"><stop offset="0%" stop-color="#86efac"/><stop offset="100%" stop-color="#4ade80"/></linearGradient>
<linearGradient id="hillNear" x1="0" y1="0" x2="0" y2="1"><stop offset="0%" stop-color="#34d399"/><stop offset="100%" stop-color="#10b981"/></linearGradient>
<linearGradient id="hillDesertFar" x1="0" y1="0" x2="0" y2="1"><stop offset="0%" stop-color="#fde68a"/><stop offset="100%" stop-color="#fcd34d"/></linearGradient>
<linearGradient id="hillDesertMid" x1="0" y1="0" x2="0" y2="1"><stop offset="0%" stop-color="#fcd34d"/><stop offset="100%" stop-color="#fbbf24"/></linearGradient>
<linearGradient id="hillDesertNear" x1="0" y1="0" x2="0" y2="1"><stop offset="0%" stop-color="#fbbf24"/><stop offset="100%" stop-color="#f59e0b"/></linearGradient>
<linearGradient id="groundGrad" x1="0" y1="0" x2="0" y2="1"><stop offset="0%" stop-color="#fef3c7"/><stop offset="100%" stop-color="#fde68a"/></linearGradient>
<linearGradient id="waterGrad" x1="0" y1="0" x2="0" y2="1"><stop offset="0%" stop-color="#bfdbfe"/><stop offset="100%" stop-color="#93c5fd"/></linearGradient>
<filter id="softGlow" x="-50%" y="-50%" width="200%" height="200%"><feGaussianBlur in="SourceGraphic" stdDeviation="12"/></filter>
</defs>
<rect width="1200" height="300" fill="url(#skyGrad)"/>
<circle cx="999.6" cy="41.2" r="45" fill="#fef08a" opacity="0.12" filter="url(#softGlow)"/>
<circle cx="999.6" cy="41.2" r="30" fill="#fde68a" opacity="0.18" filter="url(#softGlow)"/>
<circle cx="999.6" cy="41.2" r="16" fill="#fef9c3" opacity="0.25" filter="url(#softGlow)"/>
<ellipse cx="152.6" cy="31.1" rx="41.7" ry="14.6" fill="white" opacity="0.5"/>
<ellipse cx="126.6" cy="35.2" rx="29.2" ry="11.5" fill="white" opacity="0.4"/>
<ellipse cx="175.6" cy="34.2" rx="33.3" ry="12.5" fill="white" opacity="0.4"/>
<ellipse cx="621.3" cy="30.2" rx="34.4" ry="12.0" fill="white" opacity="0.5"/>
<ellipse cx="599.8" cy="33.7" rx="24.1" ry="9.5" fill="white" opacity="0.5"/>
<ellipse cx="640.2" cy="32.8" rx="27.5" ry="10.3" fill="white" opacity="0.5"/>
<path d="M0 300 L0.0 185.6 C185.2 185.6, 185.2 184.3, 370.4 184.3 C506.2 184.3, 506.2 185.3, 642.1 185.3 C742.8 185.3, 742.8 182.8, 843.5 182.8 C1021.7 182.8, 1021.7 194.4, 1200.0 194.4 L1200 300 Z" fill="url(#hillFar)" opacity="0.5"/>
<path d="M0 300 L0.0 204.1 C166.6 204.1, 166.6 211.0, 333.2 211.0 C442.6 211.0, 442.6 209.5, 552.1 209.5 C731.0 209.5, 731.0 208.1, 909.9 208.1 C1055.0 208.1, 1055.0 212.5, 1200.0 212.5 L1200 300 Z" fill="url(#hillMid)" opacity="0.7"/>
<path d="M0 300 L0.0 232.4 C186.7 232.4, 186.7 233.9, 373.4 233.9 C521.2 233.9, 521.2 235.6, 669.0 235.6 C748.6 235.6, 748.6 237.0, 828.2 237.0 C1014.1 237.0, 1014.1 240.0, 1200.0 240.0 L1200 300 Z" fill="url(#hillNear)" opacity="1"/>
<rect x="159.3" y="231.9" width="75.8" height="68.1" rx="3" fill="url(#bldg_rose)" opacity="0.7"/>
<rect x="159.3" y="228.9" width="75.8" height="3" rx="1" fill="url(#roof_coralRoof)" opacity="0.7"/>
<rect x="173.1" y="241.9" width="6" height="8" rx="1" fill="url(#windowGlow)" opacity="0.9915669384373198"/>
<rect x="187.1" y="241.9" width="6" height="8" rx="1" fill="url(#windowGlow)" opacity="0.7090275414795743"/>
<rect x="173.1" y="256.9" width="6" height="8" rx="1" fill="url(#windowGlow)" opacity="0.7858713059620333"/>
<rect x="187.1" y="256.9" width="6" height="8" rx="1" fill="url(#windowGlow)" opacity="0.8831564767673409"/>
<rect x="201.1" y="256.9" width="6" height="8" rx="1" fill="url(#windowGlow)" opacity="0.9570065280222364"/>
<rect x="215.1" y="256.9" width="6" height="8" rx="1" fill="url(#windowGlow)" opacity="0.7252141076723179"/>
<rect x="547.4" y="192.9" width="50.4" height="107.1" rx="3" fill="url(#bldg_sky)" opacity="0.7"/>
<rect x="547.4" y="189.9" width="50.4" height="3" rx="1" fill="url(#roof_tealRoof)" opacity="0.7"/>
<rect x="562.6" y="202.9" width="6" height="8" rx="1" fill="url(#windowGlow)" opacity="0.947223138086136"/>
<rect x="576.6" y="202.9" width="6" height="8" rx="1" fill="url(#windowGlow)" opacity="0.8956822837682824"/>
<rect x="562.6" y="217.9" width="6" height="8" rx="1" fill="url(#windowGlow)" opacity="0.9929779699505203"/>
<rect x="576.6" y="217.9" width="6" height="8" rx="1" fill="url(#windowGlow)" opacity="0.7391148396018495"/>
<rect x="562.6" y="232.9" width="6" height="8" rx="1" fill="url(#windowGlow)" opacity="0.9848592836804964"/>
<rect x="576.6" y="232.9" width="6" height="8" rx="1" fill="url(#windowGlow)" opacity="0.9253868243775268"/>
<rect x="562.6" y="247.9" width="6" height="8" rx="1" fill="url(#windowGlow)" opacity="0.7098932460927838"/>
<rect x="576.6" y="247.9" width="6" height="8" rx="1" fill="url(#windowGlow)" opacity="0.8272036497142182"/>
<rect x="903.3" y="219.5" width="56.1" height="80.5" rx="3" fill="url(#bldg_coral)" opacity="0.7"/>
<polygon points="903.3,219.5 931.4,201.6 959.4,219.5" fill="url(#roof_navyRoof)" opacity="0.7"/>
<rect x="935.4" y="229.5" width="6" height="8" rx="1" fill="url(#windowGlow)" opacity="0.7314071111992966"/>
<rect x="921.4" y="244.5" width="6" height="8" rx="1" fill="url(#windowGlow)" opacity="0.8062548302143135"/>
<rect x="935.4" y="244.5" width="6" height="8" rx="1" fill="url(#windowGlow)" opacity="0.9092799618417768"/>
<rect x="921.4" y="259.5" width="6" height="8" rx="1" fill="url(#windowGlow)" opacity="0.726287486928649"/>
<rect x="935.4" y="259.5" width="6" height="8" rx="1" fill="url(#windowGlow)" opacity="0.990356547194699"/>
<rect x="117.1" y="185.6" width="76.3" height="114.4" rx="3" fill="url(#bldg_teal)" opacity="0.85"/>
<rect x="132.4" y="171.8" width="45.8" height="13.7" rx="2" fill="url(#roof_coralRoof)" opacity="0.85"/>
<rect x="131.3" y="195.6" width="6" height="8" rx="1" fill="url(#windowGlow)" opacity="0.8848456201072994"/>
<rect x="145.3" y="195.6" width="6" height="8" rx="1" fill="url(#windowGlow)" opacity="0.829350481149438"/>
<rect x="159.3" y="195.6" width="6" height="8" rx="1" fill="url(#windowGlow)" opacity="0.8266696403392915"/>
<rect x="173.3" y="195.6" width="6" height="8" rx="1" fill="url(#windowGlow)" opacity="0.8635952031070344"/>
<rect x="131.3" y="210.6" width="6" height="8" rx="1" fill="url(#windowGlow)" opacity="0.7512852244317928"/>
<rect x="145.3" y="210.6" width="6" height="8" rx="1" fill="url(#windowGlow)" opacity="0.7105889502030746"/>
<rect x="159.3" y="210.6" width="6" height="8" rx="1" fill="url(#windowGlow)" opacity="0.9720906860530798"/>
<rect x="173.3" y="210.6" width="6" height="8" rx="1" fill="url(#windowGlow)" opacity="0.7167267859991299"/>
<rect x="131.3" y="225.6" width="6" height="8" rx="1" fill="url(#windowGlow)" opacity="0.9513849427231517"/>
<rect x="145.3" y="225.6" width="6" height="8" rx="1" fill="url(#windowGlow)" opacity="0.7996371417770335"/>
<rect x="159.3" y="225.6" width="6" height="8" rx="1" fill="url(#windowGlow)" opacity="0.8781873407672101"/>
<rect x="131.3" y="240.6" width="6" height="8" rx="1" fill="url(#windowGlow)" opacity="0.9939141579875322"/>
<rect x="145.3" y="240.6" width="6" height="8" rx="1" fill="url(#windowGlow)" opacity="0.9363482474984359"/>
<rect x="173.3" y="240.6" width="6" height="8" rx="1" fill="url(#windowGlow)" opacity="0.7170478461389652"/>
<rect x="145.3" y="255.6" width="6" height="8" rx="1" fill="url(#windowGlow)" opacity="0.7054755616492944"/>
<path d="M155.3 225.6 L185.8 225.6 L182.8 231.6 L158.3 231.6 Z" fill="url(#roof_navyRoof)" opacity="0.68"/>
<rect x="456.2" y="193.4" width="46.3" height="106.6" rx="3" fill="url(#bldg_amber)" opacity="0.85"/>
<rect x="465.4" y="180.6" width="27.8" height="12.8" rx="2" fill="url(#roof_tealRoof)" opacity="0.85"/>
<rect x="469.3" y="203.4" width="6" height="8" rx="1" fill="url(#windowGlow)" opacity="0.7917882343250271"/>
<rect x="483.3" y="203.4" width="6" height="8" rx="1" fill="url(#windowGlow)" opacity="0.9189607896930355"/>
<rect x="483.3" y="218.4" width="6" height="8" rx="1" fill="url(#windowGlow)" opacity="0.7383840238388553"/>
<rect x="483.3" y="233.4" width="6" height="8" rx="1" fill="url(#windowGlow)" opacity="0.7110616610436987"/>
<rect x="483.3" y="248.4" width="6" height="8" rx="1" fill="url(#windowGlow)" opacity="0.7584985348202746"/>
<path d="M479.3 230.7 L497.8 230.7 L494.8 236.7 L482.3 236.7 Z" fill="url(#roof_coralRoof)" opacity="0.68"/>
<rect x="708.5" y="193.6" width="58.5" height="106.4" rx="3" fill="url(#bldg_lavender)" opacity="0.85"/>
<rect x="708.5" y="190.6" width="58.5" height="3" rx="1" fill="url(#roof_navyRoof)" opacity="0.85"/>
<rect x="720.8" y="203.6" width="6" height="8" rx="1" fill="url(#windowGlow)" opacity="0.9361228300426727"/>
<rect x="734.8" y="203.6" width="6" height="8" rx="1" fill="url(#windowGlow)" opacity="0.8677948386258421"/>
<rect x="720.8" y="218.6" width="6" height="8" rx="1" fill="url(#windowGlow)" opacity="0.7832894442525177"/>
<rect x="748.8" y="218.6" width="6" height="8" rx="1" fill="url(#windowGlow)" opacity="0.8013982394251032"/>
<rect x="734.8" y="233.6" width="6" height="8" rx="1" fill="url(#windowGlow)" opacity="0.7466466779572175"/>
<rect x="748.8" y="233.6" width="6" height="8" rx="1" fill="url(#windowGlow)" opacity="0.9297013203286106"/>
<rect x="734.8" y="248.6" width="6" height="8" rx="1" fill="url(#windowGlow)" opacity="0.91796233710738"/>
<rect x="748.8" y="248.6" width="6" height="8" rx="1" fill="url(#windowGlow)" opacity="0.895632746161722"/>
<rect x="954.4" y="162.8" width="65.0" height="137.2" rx="3" fill="url(#bldg_blue)" opacity="0.85"/>
<polygon points="954.4,162.8 986.9,142.6 1019.4,162.8" fill="url(#roof_coralRoof)" opacity="0.85"/>
<rect x="969.9" y="172.8" width="6" height="8" rx="1" fill="url(#windowGlow)" opacity="0.9094770488839024"/>
<rect x="983.9" y="172.8" width="6" height="8" rx="1" fill="url(#windowGlow)" opacity="0.8671118673249668"/>
<rect x="997.9" y="172.8" width="6" height="8" rx="1" fill="url(#windowGlow)" opacity="0.8926112789160624"/>
<rect x="983.9" y="187.8" width="6" height="8" rx="1" fill="url(#windowGlow)" opacity="0.7464173944883129"/>
<rect x="997.9" y="187.8" width="6" height="8" rx="1" fill="url(#windowGlow)" opacity="0.7364003834484146"/>
<rect x="969.9" y="202.8" width="6" height="8" rx="1" fill="url(#windowGlow)" opacity="0.8024226323247061"/>
<rect x="983.9" y="202.8" width="6" height="8" rx="1" fill="url(#windowGlow)" opacity="0.7086191381367943"/>
<rect x="969.9" y="217.8" width="6" height="8" rx="1" fill="url(#windowGlow)" opacity="0.7838548620156267"/>
<rect x="997.9" y="217.8" width="6" height="8" rx="1" fill="url(#windowGlow)" opacity="0.8531283867327162"/>
<rect x="969.9" y="232.8" width="6" height="8" rx="1" fill="url(#windowGlow)" opacity="0.8859517030352502"/>
<rect x="983.9" y="232.8" width="6" height="8" rx="1" fill="url(#windowGlow)" opacity="0.92909711852162"/>
<rect x="997.9" y="232.8" width="6" height="8" rx="1" fill="url(#windowGlow)" opacity="0.90439778473433"/>
<rect x="969.9" y="247.8" width="6" height="8" rx="1" fill="url(#windowGlow)" opacity="0.8316673048453719"/>
<rect x="983.9" y="247.8" width="6" height="8" rx="1" fill="url(#windowGlow)" opacity="0.7500113028334506"/>
<rect x="213.5" y="193.1" width="56.5" height="106.9" rx="3" fill="url(#bldg_mint)" opacity="1"/>
<polygon points="213.5,193.1 241.8,181.3 270.0,193.1" fill="url(#roof_tealRoof)" opacity="1"/>
<rect x="231.8" y="203.1" width="6" height="8" rx="1" fill="url(#windowGlow)" opacity="0.8966693763605642"/>
<rect x="231.8" y="218.1" width="6" height="8" rx="1" fill="url(#windowGlow)" opacity="0.9325615453219793"/>
<rect x="245.8" y="218.1" width="6" height="8" rx="1" fill="url(#windowGlow)" opacity="0.8303793543159865"/>
<rect x="231.8" y="233.1" width="6" height="8" rx="1" fill="url(#windowGlow)" opacity="0.9424577080376715"/>
<rect x="245.8" y="233.1" width="6" height="8" rx="1" fill="url(#windowGlow)" opacity="0.9183683052278907"/>
<rect x="231.8" y="248.1" width="6" height="8" rx="1" fill="url(#windowGlow)" opacity="0.9765058486613005"/>
<rect x="236.8" y="284.0" width="10" height="16" rx="2" fill="url(#roof_navyRoof)" opacity="0.8"/>
<rect x="238.8" y="287.0" width="6" height="10" rx="1" fill="url(#windowGlow)" opacity="0.45"/>
<path d="M219.2 230.5 L241.8 230.5 L238.8 236.5 L222.2 236.5 Z" fill="url(#roof_coralRoof)" opacity="0.8"/>
<rect x="231.9" y="219.1" width="19.8" height="5" rx="1" fill="#15803d" opacity="0.7"/>
<circle cx="234.9" cy="218.1" r="2.5" fill="#fb923c" opacity="0.85"/>
<circle cx="241.5" cy="218.1" r="2.5" fill="#fbbf24" opacity="0.85"/>
<circle cx="248.1" cy="218.1" r="2.5" fill="#f87171" opacity="0.85"/>
<rect x="522.4" y="227.1" width="64.6" height="72.9" rx="3" fill="url(#bldg_rose)" opacity="1"/>
<polygon points="522.4,227.1 554.7,208.1 587.0,227.1" fill="url(#roof_navyRoof)" opacity="1"/>
<rect x="537.7" y="237.1" width="6" height="8" rx="1" fill="url(#windowGlow)" opacity="0.9992433474395626"/>
<rect x="551.7" y="237.1" width="6" height="8" rx="1" fill="url(#windowGlow)" opacity="0.7980980551792765"/>
<rect x="565.7" y="237.1" width="6" height="8" rx="1" fill="url(#windowGlow)" opacity="0.8666088989314664"/>
<rect x="565.7" y="252.1" width="6" height="8" rx="1" fill="url(#windowGlow)" opacity="0.9714267042332452"/>
<rect x="549.7" y="284.0" width="10" height="16" rx="2" fill="url(#roof_navyRoof)" opacity="0.8"/>
<rect x="551.7" y="287.0" width="6" height="10" rx="1" fill="url(#windowGlow)" opacity="0.45"/>
<path d="M554.7 252.6 L580.5 252.6 L577.5 258.6 L557.7 258.6 Z" fill="url(#roof_tealRoof)" opacity="0.8"/>
<rect x="925.3" y="128.8" width="35.4" height="171.2" rx="3" fill="url(#bldg_sky)" opacity="1"/>
<rect x="925.3" y="125.8" width="35.4" height="3" rx="1" fill="url(#roof_coralRoof)" opacity="1"/>
<rect x="940.0" y="138.8" width="6" height="8" rx="1" fill="url(#windowGlow)" opacity="0.7535552420437127"/>
<rect x="940.0" y="153.8" width="6" height="8" rx="1" fill="url(#windowGlow)" opacity="0.7015975959140796"/>
<rect x="940.0" y="168.8" width="6" height="8" rx="1" fill="url(#windowGlow)" opacity="0.9358075320421753"/>
<rect x="940.0" y="183.8" width="6" height="8" rx="1" fill="url(#windowGlow)" opacity="0.8188111675990797"/>
<rect x="940.0" y="198.8" width="6" height="8" rx="1" fill="url(#windowGlow)" opacity="0.8578659584083901"/>
<rect x="940.0" y="213.8" width="6" height="8" rx="1" fill="url(#windowGlow)" opacity="0.8852008928010244"/>
<rect x="940.0" y="243.8" width="6" height="8" rx="1" fill="url(#windowGlow)" opacity="0.7594316623450403"/>
<rect x="938.0" y="284.0" width="10" height="16" rx="2" fill="url(#roof_navyRoof)" opacity="0.8"/>
<rect x="940.0" y="287.0" width="6" height="10" rx="1" fill="url(#windowGlow)" opacity="0.45"/>
<rect x="936.8" y="169.8" width="12.4" height="5" rx="1" fill="#15803d" opacity="0.7"/>
<circle cx="939.8" cy="168.8" r="2.5" fill="#a78bfa" opacity="0.85"/>
<circle cx="943.9" cy="168.8" r="2.5" fill="#fbbf24" opacity="0.85"/>
<circle cx="948.1" cy="168.8" r="2.5" fill="#fb923c" opacity="0.85"/>
<rect x="393.2" y="266.7" width="6" height="18.3" rx="2" fill="#15803d"/>
<circle cx="396.2" cy="255.6" r="15.0" fill="#22c55e" opacity="0.9"/>
<circle cx="389.1" cy="258.6" r="11.3" fill="#16a34a" opacity="0.8"/>
<circle cx="402.6" cy="259.6" r="10.5" fill="#15803d" opacity="0.7"/>
<rect x="753.1" y="266.8" width="6" height="18.2" rx="2" fill="#15803d"/>
<circle cx="756.1" cy="255.0" r="15.8" fill="#22c55e" opacity="0.9"/>
<circle cx="748.8" cy="258.0" r="11.8" fill="#16a34a" opacity="0.8"/>
<circle cx="761.1" cy="259.0" r="11.1" fill="#15803d" opacity="0.7"/>
<rect x="161.2" y="264.8" width="6" height="20.2" rx="2" fill="#15803d"/>
<circle cx="164.2" cy="251.7" r="17.0" fill="#22c55e" opacity="0.9"/>
<circle cx="158.1" cy="254.7" r="12.8" fill="#16a34a" opacity="0.8"/>
<circle cx="171.3" cy="255.7" r="11.9" fill="#15803d" opacity="0.7"/>
<rect x="999.3" y="263.5" width="6" height="21.5" rx="2" fill="#15803d"/>
<circle cx="1002.3" cy="252.3" r="15.2" fill="#22c55e" opacity="0.9"/>
<circle cx="994.9" cy="255.3" r="11.4" fill="#16a34a" opacity="0.8"/>
<circle cx="1010.3" cy="256.3" r="10.6" fill="#15803d" opacity="0.7"/>
<rect x="819.9" y="265.2" width="6" height="19.8" rx="2" fill="#15803d"/>
<circle cx="822.9" cy="252.9" r="16.3" fill="#22c55e" opacity="0.9"/>
<circle cx="815.2" cy="255.9" r="12.3" fill="#16a34a" opacity="0.8"/>
<circle cx="828.9" cy="256.9" r="11.4" fill="#15803d" opacity="0.7"/>
<rect x="1041.7" y="264.5" width="6" height="20.5" rx="2" fill="#15803d"/>
<circle cx="1044.7" cy="254.1" r="14.4" fill="#22c55e" opacity="0.9"/>
<circle cx="1037.0" cy="257.1" r="10.8" fill="#16a34a" opacity="0.8"/>
<circle cx="1050.1" cy="258.1" r="10.1" fill="#15803d" opacity="0.7"/>
<rect x="630.7" y="263.9" width="6" height="21.1" rx="2" fill="#15803d"/>
<circle cx="633.7" cy="253.1" r="14.8" fill="#22c55e" opacity="0.9"/>
<circle cx="627.1" cy="256.1" r="11.1" fill="#16a34a" opacity="0.8"/>
<circle cx="640.7" cy="257.1" r="10.4" fill="#15803d" opacity="0.7"/>
<rect x="694.9" y="266.6" width="6" height="18.4" rx="2" fill="#15803d"/>
<circle cx="697.9" cy="254.6" r="16.0" fill="#22c55e" opacity="0.9"/>
<circle cx="691.6" cy="257.6" r="12.0" fill="#16a34a" opacity="0.8"/>
<circle cx="704.5" cy="258.6" r="11.2" fill="#15803d" opacity="0.7"/>
<rect x="0" y="282" width="1200" height="18" fill="url(#groundGrad)"/>
<line x1="774.2" y1="282.0" x2="774.2" y2="247.5" stroke="#92400e" stroke-width="2"/>
<circle cx="774.2" cy="247.5" r="4" fill="#fef08a" opacity="0.6"/>
<circle cx="774.2" cy="247.5" r="8" fill="#fef08a" opacity="0.15" filter="url(#softGlow)"/>
<line x1="1089.4" y1="282.0" x2="1089.4" y2="251.0" stroke="#92400e" stroke-width="2"/>
<circle cx="1089.4" cy="251.0" r="4" fill="#fef08a" opacity="0.6"/>
<circle cx="1089.4" cy="251.0" r="8" fill="#fef08a" opacity="0.15" filter="url(#softGlow)"/>
<ellipse cx="386.7" cy="282.0" rx="5.6" ry="3.9" fill="#22c55e" opacity="0.6"/>
<ellipse cx="1135.2" cy="282.0" rx="4.1" ry="2.9" fill="#22c55e" opacity="0.6"/>
<ellipse cx="974.6" cy="282.0" rx="6.8" ry="4.8" fill="#22c55e" opacity="0.6"/>
</svg>