<svg xmlns="http://www.w3.org/2000/svg" viewBox="0 0 1200 300" width="1200" height="300">
<defs>
<linearGradient id="skyGrad" x1="0" y1="0" x2="0" y2="1">
<stop offset="0%" stop-color="#a78bfa"/>
<stop offset="18%" stop-color="#ddb4f0"/>
<stop offset="35%" stop-color="#fda4af"/>
<stop offset="52%" stop-color="#fdba74"/>
<stop offset="72%" stop-color="#fef08a"/>
<stop offset="100%" stop-color="#fef9c3"/>
</linearGradient>
<linearGradient id="bldg_coral" x1="0" y1="0" x2="0" y2="1"><stop offset="0%" stop-color="#fecaca"/><stop offset="100%" stop-color="#fca5a5"/></linearGradient>
<linearGradient id="bldg_teal" x1="0" y1="0" x2="0" y2="1"><stop offset="0%" stop-color="#99f6e4"/><stop offset="100%" stop-color="#5eead4"/></linearGradient>
<linearGradient id="bldg_amber" x1="0" y1="0" x2="0" y2="1"><stop offset="0%" stop-color="#fde68a"/><stop offset="100%" stop-color="#fcd34d"/></linearGradient>
<linearGradient id="bldg_lavender" x1="0" y1="0" x2="0" y2="1"><stop offset="0%" stop-color="#ddd6fe"/><stop offset="100%" stop-color="#c4b5fd"/></linearGradient>
<linearGradient id="bldg_blue" x1="0" y1="0" x2="0" y2="1"><stop offset="0%" stop-color="#bfdbfe"/><stop offset="100%" stop-color="#93c5fd"/></linearGradient>
<linearGradient id="bldg_mint" x1="0" y1="0" x2="0" y2="1"><stop offset="0%" stop-color="#a7f3d0"/><stop offset="100%" stop-color="#6ee7b7"/></linearGradient>
<linearGradient id="bldg_rose" x1="0" y1="0" x2="0" y2="1"><stop offset="0%" stop-color="#fecdd3"/><stop offset="100%" stop-color="#fda4af"/></linearGradient>
<linearGradient id="bldg_sky" x1="0" y1="0" x2="0" y2="1"><stop offset="0%" stop-color="#bae6fd"/><stop offset="100%" stop-color="#7dd3fc"/></linearGradient>
<linearGradient id="roof_navyRoof" x1="0" y1="0" x2="0" y2="1"><stop offset="0%" stop-color="#4338ca"/><stop offset="100%" stop-color="#3730a3"/></linearGradient>
<linearGradient id="roof_coralRoof" x1="0" y1="0" x2="0" y2="1"><stop offset="0%" stop-color="#f87171"/><stop offset="100%" stop-color="#ef4444"/></linearGradient>
<linearGradient id="roof_tealRoof" x1="0" y1="0" x2="0" y2="1"><stop offset="0%" stop-color="#2dd4bf"/><stop offset="100%" stop-color="#14b8a6"/></linearGradient>
<radialGradient id="windowGlow" cx="50%" cy="50%" r="50%"><stop offset="0%" stop-color="#fef08a"/><stop offset="60%" stop-color="#fbbf24"/><stop offset="100%" stop-color="#f59e0b"/></radialGradient>
<linearGradient id="hillFar" x1="0" y1="0" x2="0" y2="1"><stop offset="0%" stop-color="#c4b5fd"/><stop offset="100%" stop-color="#a5b4fc"/></linearGradient>
<linearGradient id="hillMid" x1="0" y1="0" x2="0" y2="1"><stop offset="0%" stop-color="#86efac"/><stop offset="100%" stop-color="#4ade80"/></linearGradient>
<linearGradient id="hillNear" x1="0" y1="0" x2="0" y2="1"><stop offset="0%" stop-color="#34d399"/><stop offset="100%" stop-color="#10b981"/></linearGradient>
<linearGradient id="hillDesertFar" x1="0" y1="0" x2="0" y2="1"><stop offset="0%" stop-color="#fde68a"/><stop offset="100%" stop-color="#fcd34d"/></linearGradient>
<linearGradient id="hillDesertMid" x1="0" y1="0" x2="0" y2="1"><stop offset="0%" stop-color="#fcd34d"/><stop offset="100%" stop-color="#fbbf24"/></linearGradient>
<linearGradient id="hillDesertNear" x1="0" y1="0" x2="0" y2="1"><stop offset="0%" stop-color="#fbbf24"/><stop offset="100%" stop-color="#f59e0b"/></linearGradient>
<linearGradient id="groundGrad" x1="0" y1="0" x2="0" y2="1"><stop offset="0%" stop-color="#fef3c7"/><stop offset="100%" stop-color="#fde68a"/></linearGradient>
<linearGradient id="waterGrad" x1="0" y1="0" x2="0" y2="1"><stop offset="0%" stop-color="#bfdbfe"/><stop offset="100%" stop-color="#93c5fd"/></linearGradient>
<filter id="softGlow" x="-50%" y="-50%" width="200%" height="200%"><feGaussianBlur in="SourceGraphic" stdDeviation="12"/></filter>
</defs>
<rect width="1200" height="300" fill="url(#skyGrad)"/>
<circle cx="1026.8" cy="40.8" r="45" fill="#fef08a" opacity="0.12" filter="url(#softGlow)"/>
<circle cx="1026.8" cy="40.8" r="30" fill="#fde68a" opacity="0.18" filter="url(#softGlow)"/>
<circle cx="1026.8" cy="40.8" r="16" fill="#fef9c3" opacity="0.25" filter="url(#softGlow)"/>
<path d="M0 300 L0.0 184.5 C124.4 184.5, 124.4 190.0, 248.8 190.0 C439.4 190.0, 439.4 192.7, 630.0 192.7 C781.7 192.7, 781.7 192.3, 933.3 192.3 C1066.7 192.3, 1066.7 193.1, 1200.0 193.1 L1200 300 Z" fill="url(#hillFar)" opacity="0.5"/>
<path d="M0 300 L0.0 214.8 C196.2 214.8, 196.2 206.9, 392.5 206.9 C624.0 206.9, 624.0 205.6, 855.5 205.6 C1027.8 205.6, 1027.8 210.4, 1200.0 210.4 L1200 300 Z" fill="url(#hillMid)" opacity="0.7"/>
<path d="M0 300 L0.0 235.1 C135.7 235.1, 135.7 230.9, 271.4 230.9 C380.9 230.9, 380.9 234.8, 490.3 234.8 C609.1 234.8, 609.1 237.0, 727.8 237.0 C839.2 237.0, 839.2 234.9, 950.7 234.9 C1075.3 234.9, 1075.3 234.7, 1200.0 234.7 L1200 300 Z" fill="url(#hillNear)" opacity="1"/>
<rect x="235.1" y="216.8" width="76.7" height="83.2" rx="3" fill="url(#bldg_sky)" opacity="0.7"/>
<rect x="235.1" y="213.8" width="76.7" height="3" rx="1" fill="url(#roof_tealRoof)" opacity="0.7"/>
<rect x="277.5" y="226.8" width="6" height="8" rx="1" fill="url(#windowGlow)" opacity="0.947271519269455"/>
<rect x="291.5" y="226.8" width="6" height="8" rx="1" fill="url(#windowGlow)" opacity="0.9389866296383489"/>
<rect x="249.5" y="241.8" width="6" height="8" rx="1" fill="url(#windowGlow)" opacity="0.8309420472620717"/>
<rect x="263.5" y="241.8" width="6" height="8" rx="1" fill="url(#windowGlow)" opacity="0.8673675836843286"/>
<rect x="277.5" y="241.8" width="6" height="8" rx="1" fill="url(#windowGlow)" opacity="0.739245169255531"/>
<rect x="249.5" y="256.8" width="6" height="8" rx="1" fill="url(#windowGlow)" opacity="0.8386464150802448"/>
<rect x="263.5" y="256.8" width="6" height="8" rx="1" fill="url(#windowGlow)" opacity="0.7641071774829677"/>
<rect x="277.5" y="256.8" width="6" height="8" rx="1" fill="url(#windowGlow)" opacity="0.7759330339617715"/>
<rect x="291.5" y="256.8" width="6" height="8" rx="1" fill="url(#windowGlow)" opacity="0.8936076402168756"/>
<rect x="788.7" y="225.1" width="71.5" height="74.9" rx="3" fill="url(#bldg_coral)" opacity="0.7"/>
<polygon points="788.7,225.1 824.4,210.1 860.2,225.1" fill="url(#roof_navyRoof)" opacity="0.7"/>
<rect x="807.4" y="235.1" width="6" height="8" rx="1" fill="url(#windowGlow)" opacity="0.7408454526871654"/>
<rect x="835.4" y="235.1" width="6" height="8" rx="1" fill="url(#windowGlow)" opacity="0.8713026326947392"/>
<rect x="807.4" y="250.1" width="6" height="8" rx="1" fill="url(#windowGlow)" opacity="0.920677467445227"/>
<rect x="835.4" y="250.1" width="6" height="8" rx="1" fill="url(#windowGlow)" opacity="0.9465239645664225"/>
<rect x="227.0" y="193.3" width="76.4" height="106.7" rx="3" fill="url(#bldg_teal)" opacity="0.85"/>
<polygon points="227.0,193.3 265.2,167.6 303.5,193.3" fill="url(#roof_coralRoof)" opacity="0.85"/>
<rect x="241.2" y="203.3" width="6" height="8" rx="1" fill="url(#windowGlow)" opacity="0.7335385582100313"/>
<rect x="255.2" y="203.3" width="6" height="8" rx="1" fill="url(#windowGlow)" opacity="0.7890632545524571"/>
<rect x="269.2" y="203.3" width="6" height="8" rx="1" fill="url(#windowGlow)" opacity="0.8533240330653842"/>
<rect x="241.2" y="218.3" width="6" height="8" rx="1" fill="url(#windowGlow)" opacity="0.863813844771969"/>
<rect x="255.2" y="218.3" width="6" height="8" rx="1" fill="url(#windowGlow)" opacity="0.9201548591349995"/>
<rect x="269.2" y="218.3" width="6" height="8" rx="1" fill="url(#windowGlow)" opacity="0.8547407078345961"/>
<rect x="283.2" y="218.3" width="6" height="8" rx="1" fill="url(#windowGlow)" opacity="0.8416838241469504"/>
<rect x="241.2" y="233.3" width="6" height="8" rx="1" fill="url(#windowGlow)" opacity="0.8176370293449783"/>
<rect x="255.2" y="233.3" width="6" height="8" rx="1" fill="url(#windowGlow)" opacity="0.9647994380746033"/>
<rect x="283.2" y="233.3" width="6" height="8" rx="1" fill="url(#windowGlow)" opacity="0.9966972267239806"/>
<rect x="241.2" y="248.3" width="6" height="8" rx="1" fill="url(#windowGlow)" opacity="0.8024963233631552"/>
<rect x="255.2" y="248.3" width="6" height="8" rx="1" fill="url(#windowGlow)" opacity="0.904715549528932"/>
<rect x="269.2" y="248.3" width="6" height="8" rx="1" fill="url(#windowGlow)" opacity="0.9689021269646017"/>
<rect x="283.2" y="248.3" width="6" height="8" rx="1" fill="url(#windowGlow)" opacity="0.8938317225751614"/>
<path d="M234.7 230.7 L265.2 230.7 L262.2 236.7 L237.7 236.7 Z" fill="url(#roof_navyRoof)" opacity="0.68"/>
<rect x="571.2" y="190.0" width="62.5" height="110.0" rx="3" fill="url(#bldg_amber)" opacity="0.85"/>
<polygon points="571.2,190.0 602.4,169.1 633.7,190.0" fill="url(#roof_tealRoof)" opacity="0.85"/>
<rect x="585.4" y="200.0" width="6" height="8" rx="1" fill="url(#windowGlow)" opacity="0.9917118391914813"/>
<rect x="599.4" y="200.0" width="6" height="8" rx="1" fill="url(#windowGlow)" opacity="0.7530542668667874"/>
<rect x="613.4" y="200.0" width="6" height="8" rx="1" fill="url(#windowGlow)" opacity="0.9498013672185136"/>
<rect x="585.4" y="215.0" width="6" height="8" rx="1" fill="url(#windowGlow)" opacity="0.8577373403393371"/>
<rect x="599.4" y="215.0" width="6" height="8" rx="1" fill="url(#windowGlow)" opacity="0.882005584464411"/>
<rect x="613.4" y="215.0" width="6" height="8" rx="1" fill="url(#windowGlow)" opacity="0.8822761604014207"/>
<rect x="585.4" y="230.0" width="6" height="8" rx="1" fill="url(#windowGlow)" opacity="0.770188037292188"/>
<rect x="599.4" y="230.0" width="6" height="8" rx="1" fill="url(#windowGlow)" opacity="0.7368542044129475"/>
<rect x="613.4" y="230.0" width="6" height="8" rx="1" fill="url(#windowGlow)" opacity="0.9016161723535583"/>
<rect x="613.4" y="245.0" width="6" height="8" rx="1" fill="url(#windowGlow)" opacity="0.762162019667291"/>
<rect x="585.4" y="260.0" width="6" height="8" rx="1" fill="url(#windowGlow)" opacity="0.719854275379262"/>
<rect x="599.4" y="260.0" width="6" height="8" rx="1" fill="url(#windowGlow)" opacity="0.7660263145184266"/>
<rect x="613.4" y="260.0" width="6" height="8" rx="1" fill="url(#windowGlow)" opacity="0.9243431778272349"/>
<path d="M602.4 228.5 L627.5 228.5 L624.5 234.5 L605.4 234.5 Z" fill="url(#roof_coralRoof)" opacity="0.68"/>
<rect x="974.1" y="190.3" width="55.3" height="109.7" rx="3" fill="url(#bldg_lavender)" opacity="0.85"/>
<polygon points="974.1,190.3 1001.7,178.1 1029.4,190.3" fill="url(#roof_navyRoof)" opacity="0.85"/>
<rect x="1005.7" y="200.3" width="6" height="8" rx="1" fill="url(#windowGlow)" opacity="0.7458602270324994"/>
<rect x="1005.7" y="215.3" width="6" height="8" rx="1" fill="url(#windowGlow)" opacity="0.9388306003710397"/>
<rect x="991.7" y="245.3" width="6" height="8" rx="1" fill="url(#windowGlow)" opacity="0.7977068709198882"/>
<rect x="1005.7" y="245.3" width="6" height="8" rx="1" fill="url(#windowGlow)" opacity="0.730149351866054"/>
<rect x="991.7" y="260.3" width="6" height="8" rx="1" fill="url(#windowGlow)" opacity="0.7740707002459423"/>
<rect x="1005.7" y="260.3" width="6" height="8" rx="1" fill="url(#windowGlow)" opacity="0.9976583376515928"/>
<path d="M1001.7 228.7 L1023.8 228.7 L1020.8 234.7 L1004.7 234.7 Z" fill="url(#roof_tealRoof)" opacity="0.68"/>
<rect x="231.2" y="237.6" width="45.2" height="62.4" rx="3" fill="url(#bldg_blue)" opacity="1"/>
<rect x="231.2" y="234.6" width="45.2" height="3" rx="1" fill="url(#roof_coralRoof)" opacity="1"/>
<rect x="243.8" y="247.6" width="6" height="8" rx="1" fill="url(#windowGlow)" opacity="0.715651566635655"/>
<rect x="257.8" y="247.6" width="6" height="8" rx="1" fill="url(#windowGlow)" opacity="0.9613408086175754"/>
<rect x="248.8" y="284.0" width="10" height="16" rx="2" fill="url(#roof_navyRoof)" opacity="0.8"/>
<rect x="250.8" y="287.0" width="6" height="10" rx="1" fill="url(#windowGlow)" opacity="0.45"/>
<rect x="568.5" y="195.5" width="44.8" height="104.5" rx="3" fill="url(#bldg_mint)" opacity="1"/>
<rect x="577.4" y="182.9" width="26.9" height="12.5" rx="2" fill="url(#roof_tealRoof)" opacity="1"/>
<rect x="580.9" y="205.5" width="6" height="8" rx="1" fill="url(#windowGlow)" opacity="0.8166471974070403"/>
<rect x="594.9" y="205.5" width="6" height="8" rx="1" fill="url(#windowGlow)" opacity="0.7289169475105204"/>
<rect x="580.9" y="220.5" width="6" height="8" rx="1" fill="url(#windowGlow)" opacity="0.7730683243708072"/>
<rect x="594.9" y="220.5" width="6" height="8" rx="1" fill="url(#windowGlow)" opacity="0.7238646676409359"/>
<rect x="580.9" y="235.5" width="6" height="8" rx="1" fill="url(#windowGlow)" opacity="0.9956133751178222"/>
<rect x="594.9" y="235.5" width="6" height="8" rx="1" fill="url(#windowGlow)" opacity="0.952218010719967"/>
<rect x="594.9" y="250.5" width="6" height="8" rx="1" fill="url(#windowGlow)" opacity="0.9164700359182758"/>
<rect x="585.9" y="284.0" width="10" height="16" rx="2" fill="url(#roof_navyRoof)" opacity="0.8"/>
<rect x="587.9" y="287.0" width="6" height="10" rx="1" fill="url(#windowGlow)" opacity="0.45"/>
<rect x="947.6" y="155.5" width="35.9" height="144.5" rx="3" fill="url(#bldg_rose)" opacity="1"/>
<polygon points="947.6,155.5 965.6,144.5 983.5,155.5" fill="url(#roof_navyRoof)" opacity="1"/>
<rect x="962.6" y="180.5" width="6" height="8" rx="1" fill="url(#windowGlow)" opacity="0.7065556942050139"/>
<rect x="962.6" y="225.5" width="6" height="8" rx="1" fill="url(#windowGlow)" opacity="0.8187359620904251"/>
<rect x="962.6" y="255.5" width="6" height="8" rx="1" fill="url(#windowGlow)" opacity="0.7434893828087902"/>
<rect x="960.6" y="284.0" width="10" height="16" rx="2" fill="url(#roof_navyRoof)" opacity="0.8"/>
<rect x="962.6" y="287.0" width="6" height="10" rx="1" fill="url(#windowGlow)" opacity="0.45"/>
<path d="M951.2 206.1 L965.6 206.1 L962.6 212.1 L954.2 212.1 Z" fill="url(#roof_tealRoof)" opacity="0.8"/>
<path d="M422.5 285.0 Q442.5 260.7 434.5 236.5" stroke="#92400e" stroke-width="4" fill="none" stroke-linecap="round"/>
<path d="M434.5 236.5 Q426.0 226.9 420.3 228.7" stroke="#16a34a" stroke-width="2.5" fill="none" stroke-linecap="round"/>
<path d="M434.5 236.5 Q442.2 222.8 447.3 219.5" stroke="#22c55e" stroke-width="2.5" fill="none" stroke-linecap="round"/>
<path d="M434.5 236.5 Q452.3 230.5 464.1 236.5" stroke="#15803d" stroke-width="2.5" fill="none" stroke-linecap="round"/>
<path d="M434.5 236.5 Q442.2 238.2 447.3 253.5" stroke="#4ade80" stroke-width="2.5" fill="none" stroke-linecap="round"/>
<path d="M434.5 236.5 Q425.5 234.3 419.5 244.8" stroke="#16a34a" stroke-width="2.5" fill="none" stroke-linecap="round"/>
<path d="M780.4 285.0 Q802.2 257.4 793.5 229.8" stroke="#92400e" stroke-width="4" fill="none" stroke-linecap="round"/>
<path d="M793.5 229.8 Q784.6 220.1 778.7 221.7" stroke="#16a34a" stroke-width="2.5" fill="none" stroke-linecap="round"/>
<path d="M793.5 229.8 Q798.5 218.8 801.8 218.8" stroke="#22c55e" stroke-width="2.5" fill="none" stroke-linecap="round"/>
<path d="M793.5 229.8 Q810.8 223.8 822.3 229.8" stroke="#15803d" stroke-width="2.5" fill="none" stroke-linecap="round"/>
<path d="M793.5 229.8 Q800.2 230.6 804.7 244.7" stroke="#4ade80" stroke-width="2.5" fill="none" stroke-linecap="round"/>
<path d="M793.5 229.8 Q782.4 228.4 775.1 239.9" stroke="#16a34a" stroke-width="2.5" fill="none" stroke-linecap="round"/>
<path d="M185.4 285.0 Q208.8 254.1 199.4 223.1" stroke="#92400e" stroke-width="4" fill="none" stroke-linecap="round"/>
<path d="M199.4 223.1 Q188.2 212.4 180.7 212.8" stroke="#16a34a" stroke-width="2.5" fill="none" stroke-linecap="round"/>
<path d="M199.4 223.1 Q204.1 212.5 207.2 212.9" stroke="#22c55e" stroke-width="2.5" fill="none" stroke-linecap="round"/>
<path d="M199.4 223.1 Q218.6 217.1 231.4 223.1" stroke="#15803d" stroke-width="2.5" fill="none" stroke-linecap="round"/>
<path d="M199.4 223.1 Q205.3 223.0 209.2 236.1" stroke="#4ade80" stroke-width="2.5" fill="none" stroke-linecap="round"/>
<path d="M199.4 223.1 Q189.4 221.3 182.7 232.3" stroke="#16a34a" stroke-width="2.5" fill="none" stroke-linecap="round"/>
<path d="M1012.6 285.0 Q1026.8 254.7 1021.1 224.3" stroke="#92400e" stroke-width="4" fill="none" stroke-linecap="round"/>
<path d="M1021.1 224.3 Q1007.3 212.6 998.0 211.6" stroke="#16a34a" stroke-width="2.5" fill="none" stroke-linecap="round"/>
<path d="M1021.1 224.3 Q1026.6 212.8 1030.3 212.1" stroke="#22c55e" stroke-width="2.5" fill="none" stroke-linecap="round"/>
<path d="M1021.1 224.3 Q1037.2 218.3 1048.0 224.3" stroke="#15803d" stroke-width="2.5" fill="none" stroke-linecap="round"/>
<path d="M1021.1 224.3 Q1026.4 223.6 1029.9 236.0" stroke="#4ade80" stroke-width="2.5" fill="none" stroke-linecap="round"/>
<path d="M1021.1 224.3 Q1008.3 223.6 999.8 236.0" stroke="#16a34a" stroke-width="2.5" fill="none" stroke-linecap="round"/>
<path d="M1155.5 285.0 Q1175.3 255.2 1167.4 225.4" stroke="#92400e" stroke-width="4" fill="none" stroke-linecap="round"/>
<path d="M1167.4 225.4 Q1153.8 213.7 1144.7 212.9" stroke="#16a34a" stroke-width="2.5" fill="none" stroke-linecap="round"/>
<path d="M1167.4 225.4 Q1172.0 214.7 1175.2 215.0" stroke="#22c55e" stroke-width="2.5" fill="none" stroke-linecap="round"/>
<path d="M1167.4 225.4 Q1180.2 219.4 1188.7 225.4" stroke="#15803d" stroke-width="2.5" fill="none" stroke-linecap="round"/>
<path d="M1167.4 225.4 Q1172.7 224.7 1176.2 237.1" stroke="#4ade80" stroke-width="2.5" fill="none" stroke-linecap="round"/>
<path d="M1167.4 225.4 Q1157.5 223.5 1150.9 234.4" stroke="#16a34a" stroke-width="2.5" fill="none" stroke-linecap="round"/>
<path d="M685.0 285.0 Q714.3 259.1 702.6 233.1" stroke="#92400e" stroke-width="4" fill="none" stroke-linecap="round"/>
<path d="M702.6 233.1 Q690.9 222.3 683.1 222.4" stroke="#16a34a" stroke-width="2.5" fill="none" stroke-linecap="round"/>
<path d="M702.6 233.1 Q707.8 221.9 711.2 221.6" stroke="#22c55e" stroke-width="2.5" fill="none" stroke-linecap="round"/>
<path d="M702.6 233.1 Q717.2 227.1 727.0 233.1" stroke="#15803d" stroke-width="2.5" fill="none" stroke-linecap="round"/>
<path d="M702.6 233.1 Q708.5 233.1 712.4 246.2" stroke="#4ade80" stroke-width="2.5" fill="none" stroke-linecap="round"/>
<path d="M702.6 233.1 Q693.0 231.1 686.6 241.9" stroke="#16a34a" stroke-width="2.5" fill="none" stroke-linecap="round"/>
<path d="M245.6 285.0 Q260.6 256.1 254.6 227.2" stroke="#92400e" stroke-width="4" fill="none" stroke-linecap="round"/>
<path d="M254.6 227.2 Q245.7 217.5 239.8 219.1" stroke="#16a34a" stroke-width="2.5" fill="none" stroke-linecap="round"/>
<path d="M254.6 227.2 Q262.3 213.5 267.4 210.2" stroke="#22c55e" stroke-width="2.5" fill="none" stroke-linecap="round"/>
<path d="M254.6 227.2 Q268.3 221.2 277.4 227.2" stroke="#15803d" stroke-width="2.5" fill="none" stroke-linecap="round"/>
<path d="M254.6 227.2 Q259.9 226.6 263.5 239.0" stroke="#4ade80" stroke-width="2.5" fill="none" stroke-linecap="round"/>
<path d="M254.6 227.2 Q244.5 225.5 237.7 236.5" stroke="#16a34a" stroke-width="2.5" fill="none" stroke-linecap="round"/>
<path d="M70.5 285.0 Q95.1 257.9 85.2 230.8" stroke="#92400e" stroke-width="4" fill="none" stroke-linecap="round"/>
<path d="M85.2 230.8 Q72.1 219.3 63.4 218.8" stroke="#16a34a" stroke-width="2.5" fill="none" stroke-linecap="round"/>
<path d="M85.2 230.8 Q90.0 220.0 93.2 220.2" stroke="#22c55e" stroke-width="2.5" fill="none" stroke-linecap="round"/>
<path d="M85.2 230.8 Q100.7 224.8 111.0 230.8" stroke="#15803d" stroke-width="2.5" fill="none" stroke-linecap="round"/>
<path d="M85.2 230.8 Q92.5 232.0 97.3 246.7" stroke="#4ade80" stroke-width="2.5" fill="none" stroke-linecap="round"/>
<path d="M85.2 230.8 Q71.0 230.7 61.6 243.8" stroke="#16a34a" stroke-width="2.5" fill="none" stroke-linecap="round"/>
<path d="M565.0 285.0 Q588.4 262.9 579.1 240.8" stroke="#92400e" stroke-width="4" fill="none" stroke-linecap="round"/>
<path d="M579.1 240.8 Q567.8 230.1 560.2 230.4" stroke="#16a34a" stroke-width="2.5" fill="none" stroke-linecap="round"/>
<path d="M579.1 240.8 Q584.1 229.7 587.5 229.7" stroke="#22c55e" stroke-width="2.5" fill="none" stroke-linecap="round"/>
<path d="M579.1 240.8 Q591.5 234.8 599.8 240.8" stroke="#15803d" stroke-width="2.5" fill="none" stroke-linecap="round"/>
<path d="M579.1 240.8 Q583.7 239.5 586.8 251.1" stroke="#4ade80" stroke-width="2.5" fill="none" stroke-linecap="round"/>
<path d="M579.1 240.8 Q570.1 238.5 564.2 249.0" stroke="#16a34a" stroke-width="2.5" fill="none" stroke-linecap="round"/>
<rect x="0" y="282" width="1200" height="18" fill="url(#groundGrad)"/>
</svg>