<svg xmlns="http://www.w3.org/2000/svg" viewBox="0 0 1200 300" width="1200" height="300">
<defs><linearGradient id="skyGrad" x1="0" y1="0" x2="0" y2="1"><stop offset="0%" stop-color="#ddf0f0"/><stop offset="100%" stop-color="#f0e8d8"/></linearGradient></defs><rect width="1200" height="300" fill="url(#skyGrad)"/>
<rect x="154.7" y="247.2" width="65.5" height="52.8" fill="#aeb0a5"/>
<polygon points="154.7,247.2 187.4,230.8 220.2,247.2" fill="#a0a298"/>
<rect x="556.4" y="252.1" width="56.1" height="47.9" fill="#aeb0a5"/>
<rect x="966.3" y="255.0" width="66.3" height="45.0" fill="#aeb0a5"/>
<polygon points="966.3,255.0 999.4,238.4 1032.6,255.0" fill="#a0a298"/>
<rect x="123.8" y="239.9" width="53.3" height="60.1" fill="#898d7d"/>
<rect x="140.5" y="251.9" width="6" height="8" fill="#b2b5ab" opacity="0.5"/>
<rect x="154.5" y="251.9" width="6" height="8" fill="#b2b5ab" opacity="0.5"/>
<rect x="154.5" y="267.9" width="6" height="8" fill="#b2b5ab" opacity="0.5"/>
<rect x="423.7" y="190.5" width="74.6" height="109.5" fill="#898d7d"/>
<rect x="458.0" y="202.5" width="6" height="8" fill="#b2b5ab" opacity="0.5"/>
<rect x="444.0" y="218.5" width="6" height="8" fill="#b2b5ab" opacity="0.5"/>
<rect x="472.0" y="218.5" width="6" height="8" fill="#b2b5ab" opacity="0.5"/>
<rect x="458.0" y="234.5" width="6" height="8" fill="#b2b5ab" opacity="0.5"/>
<rect x="444.0" y="250.5" width="6" height="8" fill="#b2b5ab" opacity="0.5"/>
<rect x="472.0" y="250.5" width="6" height="8" fill="#b2b5ab" opacity="0.5"/>
<rect x="444.0" y="266.5" width="6" height="8" fill="#b2b5ab" opacity="0.5"/>
<rect x="458.0" y="266.5" width="6" height="8" fill="#b2b5ab" opacity="0.5"/>
<rect x="472.0" y="266.5" width="6" height="8" fill="#b2b5ab" opacity="0.5"/>
<rect x="734.9" y="175.8" width="73.8" height="124.2" fill="#898d7d"/>
<rect x="754.8" y="187.8" width="6" height="8" fill="#b2b5ab" opacity="0.5"/>
<rect x="782.8" y="203.8" width="6" height="8" fill="#b2b5ab" opacity="0.5"/>
<rect x="754.8" y="219.8" width="6" height="8" fill="#b2b5ab" opacity="0.5"/>
<rect x="782.8" y="219.8" width="6" height="8" fill="#b2b5ab" opacity="0.5"/>
<rect x="782.8" y="235.8" width="6" height="8" fill="#b2b5ab" opacity="0.5"/>
<rect x="782.8" y="251.8" width="6" height="8" fill="#b2b5ab" opacity="0.5"/>
<rect x="754.8" y="267.8" width="6" height="8" fill="#b2b5ab" opacity="0.5"/>
<rect x="956.9" y="232.0" width="65.1" height="68.0" fill="#898d7d"/>
<polygon points="956.9,232.0 989.4,215.7 1022.0,232.0" fill="#7e8273"/>
<rect x="972.4" y="244.0" width="6" height="8" fill="#b2b5ab" opacity="0.5"/>
<rect x="986.4" y="244.0" width="6" height="8" fill="#b2b5ab" opacity="0.5"/>
<rect x="1000.4" y="244.0" width="6" height="8" fill="#b2b5ab" opacity="0.5"/>
<rect x="986.4" y="260.0" width="6" height="8" fill="#b2b5ab" opacity="0.5"/>
<rect x="1000.4" y="260.0" width="6" height="8" fill="#b2b5ab" opacity="0.5"/>
<rect x="221.6" y="239.3" width="34.5" height="60.7" fill="#6b705c"/>
<rect x="235.9" y="251.3" width="6" height="8" fill="#9fa295" opacity="0.5"/>
<rect x="235.9" y="267.3" width="6" height="8" fill="#9fa295" opacity="0.5"/>
<rect x="542.8" y="201.6" width="30.7" height="98.4" fill="#6b705c"/>
<rect x="555.2" y="213.6" width="6" height="8" fill="#9fa295" opacity="0.5"/>
<rect x="555.2" y="229.6" width="6" height="8" fill="#9fa295" opacity="0.5"/>
<rect x="555.2" y="261.6" width="6" height="8" fill="#9fa295" opacity="0.5"/>
<rect x="917.1" y="199.0" width="32.0" height="101.0" fill="#6b705c"/>
<rect x="922.7" y="181.2" width="20.8" height="17.8" fill="#666a57"/>
<rect x="930.1" y="193.2" width="6" height="8" fill="#9fa295" opacity="0.5"/>
<rect x="930.1" y="225.2" width="6" height="8" fill="#9fa295" opacity="0.5"/>
<rect x="930.1" y="241.2" width="6" height="8" fill="#9fa295" opacity="0.5"/>
<rect x="930.1" y="273.2" width="6" height="8" fill="#9fa295" opacity="0.5"/>
<path d="M399.5 285.0 Q417.5 257.5 412.1 229.9" fill="none" stroke="#7d674c" stroke-width="3"/>
<path d="M412.1 229.9 Q400.5 220.7 392.8 221.5" fill="none" stroke="#437f39" stroke-width="2.5"/>
<path d="M412.1 229.9 Q415.6 219.4 418.0 219.0" fill="none" stroke="#437f39" stroke-width="2.5"/>
<path d="M412.1 229.9 Q428.7 224.9 439.8 229.9" fill="none" stroke="#437f39" stroke-width="2.5"/>
<path d="M412.1 229.9 Q416.6 231.9 419.6 243.8" fill="none" stroke="#437f39" stroke-width="2.5"/>
<path d="M412.1 229.9 Q398.7 229.8 389.9 239.6" fill="none" stroke="#437f39" stroke-width="2.5"/>
<path d="M745.3 285.0 Q769.8 257.7 762.5 230.4" fill="none" stroke="#7e684d" stroke-width="3"/>
<path d="M762.5 230.4 Q749.3 220.6 740.5 220.8" fill="none" stroke="#45823b" stroke-width="2.5"/>
<path d="M762.5 230.4 Q766.8 218.9 769.6 217.3" fill="none" stroke="#45823b" stroke-width="2.5"/>
<path d="M762.5 230.4 Q776.6 225.4 786.1 230.4" fill="none" stroke="#45823b" stroke-width="2.5"/>
<path d="M762.5 230.4 Q767.0 232.3 770.0 244.2" fill="none" stroke="#45823b" stroke-width="2.5"/>
<path d="M762.5 230.4 Q752.6 229.0 746.0 237.6" fill="none" stroke="#45823b" stroke-width="2.5"/>
<path d="M693.3 285.0 Q713.3 256.8 707.3 228.7" fill="none" stroke="#856e51" stroke-width="3"/>
<path d="M707.3 228.7 Q693.2 218.6 683.8 218.5" fill="none" stroke="#437e39" stroke-width="2.5"/>
<path d="M707.3 228.7 Q711.5 217.3 714.3 215.8" fill="none" stroke="#437e39" stroke-width="2.5"/>
<path d="M707.3 228.7 Q724.1 223.7 735.3 228.7" fill="none" stroke="#437e39" stroke-width="2.5"/>
<path d="M707.3 228.7 Q711.9 230.8 715.0 242.9" fill="none" stroke="#437e39" stroke-width="2.5"/>
<path d="M707.3 228.7 Q695.1 228.1 687.0 237.5" fill="none" stroke="#437e39" stroke-width="2.5"/>
<path d="M714.3 285.0 Q742.8 264.8 734.2 244.5" fill="none" stroke="#897154" stroke-width="3"/>
<path d="M734.2 244.5 Q723.3 235.6 716.1 236.6" fill="none" stroke="#45833b" stroke-width="2.5"/>
<path d="M734.2 244.5 Q739.6 231.3 743.1 228.1" fill="none" stroke="#45833b" stroke-width="2.5"/>
<path d="M734.2 244.5 Q746.1 239.5 754.0 244.5" fill="none" stroke="#45833b" stroke-width="2.5"/>
<path d="M734.2 244.5 Q739.3 247.4 742.7 260.2" fill="none" stroke="#45833b" stroke-width="2.5"/>
<path d="M734.2 244.5 Q721.7 244.1 713.3 253.6" fill="none" stroke="#45833b" stroke-width="2.5"/>
<path d="M783.9 285.0 Q810.0 264.2 802.1 243.5" fill="none" stroke="#866f52" stroke-width="3"/>
<path d="M802.1 243.5 Q787.6 233.2 777.9 232.9" fill="none" stroke="#437f39" stroke-width="2.5"/>
<path d="M802.1 243.5 Q805.7 233.0 808.0 232.6" fill="none" stroke="#437f39" stroke-width="2.5"/>
<path d="M802.1 243.5 Q815.0 238.5 823.5 243.5" fill="none" stroke="#437f39" stroke-width="2.5"/>
<path d="M802.1 243.5 Q805.8 244.1 808.2 254.7" fill="none" stroke="#437f39" stroke-width="2.5"/>
<path d="M802.1 243.5 Q789.0 243.3 780.2 253.0" fill="none" stroke="#437f39" stroke-width="2.5"/>
<path d="M841.6 285.0 Q861.8 262.0 855.8 239.1" fill="none" stroke="#7c664c" stroke-width="3"/>
<path d="M855.8 239.1 Q844.7 230.1 837.3 231.0" fill="none" stroke="#46853c" stroke-width="2.5"/>
<path d="M855.8 239.1 Q860.4 226.9 863.5 224.7" fill="none" stroke="#46853c" stroke-width="2.5"/>
<path d="M855.8 239.1 Q873.4 234.1 885.1 239.1" fill="none" stroke="#46853c" stroke-width="2.5"/>
<path d="M855.8 239.1 Q860.9 242.0 864.3 254.9" fill="none" stroke="#46853c" stroke-width="2.5"/>
<path d="M855.8 239.1 Q844.3 238.2 836.7 247.4" fill="none" stroke="#46853c" stroke-width="2.5"/>
<rect x="0" y="285" width="1200" height="15" fill="#d4c5a9" opacity="0.4"/>
<circle cx="1021.5" cy="47.9" r="27.3" fill="#f5e6a0" opacity="0.1"/>
</svg>