<svg xmlns="http://www.w3.org/2000/svg" viewBox="0 0 1200 300" width="1200" height="300">
<defs><linearGradient id="skyGrad" x1="0" y1="0" x2="0" y2="1"><stop offset="0%" stop-color="#e8f0f8"/><stop offset="100%" stop-color="#f5e6d8"/></linearGradient></defs><rect width="1200" height="300" fill="url(#skyGrad)"/>
<rect x="153.5" y="235.0" width="88.5" height="65.0" fill="#8aabb4"/>
<rect x="575.9" y="212.2" width="69.7" height="87.8" fill="#8aabb4"/>
<rect x="588.1" y="196.7" width="45.3" height="15.5" fill="#83a2ab"/>
<rect x="990.5" y="242.2" width="61.3" height="57.8" fill="#8aabb4"/>
<rect x="1001.2" y="232.1" width="39.8" height="10.2" fill="#83a2ab"/>
<rect x="124.4" y="198.0" width="70.8" height="102.0" fill="#558592"/>
<rect x="142.8" y="210.0" width="6" height="8" fill="#91b0b8" opacity="0.5"/>
<rect x="170.8" y="210.0" width="6" height="8" fill="#91b0b8" opacity="0.5"/>
<rect x="142.8" y="226.0" width="6" height="8" fill="#91b0b8" opacity="0.5"/>
<rect x="156.8" y="242.0" width="6" height="8" fill="#91b0b8" opacity="0.5"/>
<rect x="170.8" y="242.0" width="6" height="8" fill="#91b0b8" opacity="0.5"/>
<rect x="156.8" y="258.0" width="6" height="8" fill="#91b0b8" opacity="0.5"/>
<rect x="433.8" y="164.9" width="74.7" height="135.1" fill="#558592"/>
<rect x="454.1" y="176.9" width="6" height="8" fill="#91b0b8" opacity="0.5"/>
<rect x="468.1" y="176.9" width="6" height="8" fill="#91b0b8" opacity="0.5"/>
<rect x="482.1" y="176.9" width="6" height="8" fill="#91b0b8" opacity="0.5"/>
<rect x="454.1" y="208.9" width="6" height="8" fill="#91b0b8" opacity="0.5"/>
<rect x="454.1" y="224.9" width="6" height="8" fill="#91b0b8" opacity="0.5"/>
<rect x="468.1" y="224.9" width="6" height="8" fill="#91b0b8" opacity="0.5"/>
<rect x="454.1" y="240.9" width="6" height="8" fill="#91b0b8" opacity="0.5"/>
<rect x="468.1" y="240.9" width="6" height="8" fill="#91b0b8" opacity="0.5"/>
<rect x="454.1" y="256.9" width="6" height="8" fill="#91b0b8" opacity="0.5"/>
<rect x="482.1" y="256.9" width="6" height="8" fill="#91b0b8" opacity="0.5"/>
<rect x="701.2" y="156.1" width="48.8" height="143.9" fill="#558592"/>
<polygon points="701.2,156.1 725.6,143.9 750.0,156.1" fill="#4e7a86"/>
<rect x="715.6" y="168.1" width="6" height="8" fill="#91b0b8" opacity="0.5"/>
<rect x="729.6" y="168.1" width="6" height="8" fill="#91b0b8" opacity="0.5"/>
<rect x="729.6" y="184.1" width="6" height="8" fill="#91b0b8" opacity="0.5"/>
<rect x="715.6" y="200.1" width="6" height="8" fill="#91b0b8" opacity="0.5"/>
<rect x="729.6" y="200.1" width="6" height="8" fill="#91b0b8" opacity="0.5"/>
<rect x="715.6" y="216.1" width="6" height="8" fill="#91b0b8" opacity="0.5"/>
<rect x="981.9" y="177.1" width="38.6" height="122.9" fill="#558592"/>
<rect x="998.2" y="189.1" width="6" height="8" fill="#91b0b8" opacity="0.5"/>
<rect x="998.2" y="221.1" width="6" height="8" fill="#91b0b8" opacity="0.5"/>
<rect x="998.2" y="269.1" width="6" height="8" fill="#91b0b8" opacity="0.5"/>
<rect x="139.1" y="163.2" width="60.7" height="136.8" fill="#2b6777"/>
<rect x="180.4" y="175.2" width="6" height="8" fill="#759ca7" opacity="0.5"/>
<rect x="152.4" y="191.2" width="6" height="8" fill="#759ca7" opacity="0.5"/>
<rect x="166.4" y="207.2" width="6" height="8" fill="#759ca7" opacity="0.5"/>
<rect x="166.4" y="223.2" width="6" height="8" fill="#759ca7" opacity="0.5"/>
<rect x="180.4" y="223.2" width="6" height="8" fill="#759ca7" opacity="0.5"/>
<rect x="180.4" y="239.2" width="6" height="8" fill="#759ca7" opacity="0.5"/>
<rect x="152.4" y="255.2" width="6" height="8" fill="#759ca7" opacity="0.5"/>
<rect x="420.1" y="196.9" width="63.2" height="103.1" fill="#2b6777"/>
<rect x="448.7" y="208.9" width="6" height="8" fill="#759ca7" opacity="0.5"/>
<rect x="462.7" y="208.9" width="6" height="8" fill="#759ca7" opacity="0.5"/>
<rect x="434.7" y="224.9" width="6" height="8" fill="#759ca7" opacity="0.5"/>
<rect x="462.7" y="224.9" width="6" height="8" fill="#759ca7" opacity="0.5"/>
<rect x="448.7" y="240.9" width="6" height="8" fill="#759ca7" opacity="0.5"/>
<rect x="462.7" y="240.9" width="6" height="8" fill="#759ca7" opacity="0.5"/>
<rect x="434.7" y="256.9" width="6" height="8" fill="#759ca7" opacity="0.5"/>
<rect x="448.7" y="256.9" width="6" height="8" fill="#759ca7" opacity="0.5"/>
<rect x="462.7" y="256.9" width="6" height="8" fill="#759ca7" opacity="0.5"/>
<rect x="448.7" y="272.9" width="6" height="8" fill="#759ca7" opacity="0.5"/>
<rect x="462.7" y="272.9" width="6" height="8" fill="#759ca7" opacity="0.5"/>
<rect x="712.8" y="121.5" width="64.0" height="178.5" fill="#2b6777"/>
<polygon points="712.8,121.5 744.8,105.5 776.8,121.5" fill="#285f6d"/>
<rect x="727.8" y="133.5" width="6" height="8" fill="#759ca7" opacity="0.5"/>
<rect x="741.8" y="133.5" width="6" height="8" fill="#759ca7" opacity="0.5"/>
<rect x="727.8" y="149.5" width="6" height="8" fill="#759ca7" opacity="0.5"/>
<rect x="741.8" y="149.5" width="6" height="8" fill="#759ca7" opacity="0.5"/>
<rect x="727.8" y="165.5" width="6" height="8" fill="#759ca7" opacity="0.5"/>
<rect x="741.8" y="165.5" width="6" height="8" fill="#759ca7" opacity="0.5"/>
<rect x="741.8" y="181.5" width="6" height="8" fill="#759ca7" opacity="0.5"/>
<rect x="755.8" y="181.5" width="6" height="8" fill="#759ca7" opacity="0.5"/>
<rect x="727.8" y="197.5" width="6" height="8" fill="#759ca7" opacity="0.5"/>
<rect x="755.8" y="197.5" width="6" height="8" fill="#759ca7" opacity="0.5"/>
<rect x="727.8" y="213.5" width="6" height="8" fill="#759ca7" opacity="0.5"/>
<rect x="1029.2" y="132.8" width="41.5" height="167.2" fill="#2b6777"/>
<rect x="1047.0" y="176.8" width="6" height="8" fill="#759ca7" opacity="0.5"/>
<rect x="1047.0" y="192.8" width="6" height="8" fill="#759ca7" opacity="0.5"/>
<rect x="1047.0" y="224.8" width="6" height="8" fill="#759ca7" opacity="0.5"/>
<path d="M309.9 285.0 Q328.7 255.4 323.0 225.8" fill="none" stroke="#856e52" stroke-width="3"/>
<path d="M323.0 225.8 Q313.5 217.4 307.1 218.9" fill="none" stroke="#48883d" stroke-width="2.5"/>
<path d="M323.0 225.8 Q327.2 214.4 330.0 212.9" fill="none" stroke="#48883d" stroke-width="2.5"/>
<path d="M323.0 225.8 Q337.0 220.8 346.2 225.8" fill="none" stroke="#48883d" stroke-width="2.5"/>
<path d="M323.0 225.8 Q328.0 228.5 331.3 241.1" fill="none" stroke="#48883d" stroke-width="2.5"/>
<path d="M323.0 225.8 Q311.3 225.1 303.4 234.4" fill="none" stroke="#48883d" stroke-width="2.5"/>
<path d="M598.1 285.0 Q620.9 255.2 614.1 225.4" fill="none" stroke="#7a654b" stroke-width="3"/>
<path d="M614.1 225.4 Q602.9 216.4 595.4 217.3" fill="none" stroke="#49893e" stroke-width="2.5"/>
<path d="M614.1 225.4 Q619.4 212.2 623.0 209.0" fill="none" stroke="#49893e" stroke-width="2.5"/>
<path d="M614.1 225.4 Q630.9 220.4 642.2 225.4" fill="none" stroke="#49893e" stroke-width="2.5"/>
<path d="M614.1 225.4 Q619.2 228.3 622.6 241.2" fill="none" stroke="#49893e" stroke-width="2.5"/>
<path d="M614.1 225.4 Q601.6 225.0 593.3 234.5" fill="none" stroke="#49893e" stroke-width="2.5"/>
<path d="M903.0 285.0 Q919.4 260.3 914.5 235.6" fill="none" stroke="#816b4f" stroke-width="3"/>
<path d="M914.5 235.6 Q904.2 226.8 897.3 228.0" fill="none" stroke="#4a8b3f" stroke-width="2.5"/>
<path d="M914.5 235.6 Q918.1 225.0 920.5 224.4" fill="none" stroke="#4a8b3f" stroke-width="2.5"/>
<path d="M914.5 235.6 Q927.3 230.6 935.9 235.6" fill="none" stroke="#4a8b3f" stroke-width="2.5"/>
<path d="M914.5 235.6 Q919.9 238.8 923.4 252.0" fill="none" stroke="#4a8b3f" stroke-width="2.5"/>
<path d="M914.5 235.6 Q901.6 235.2 893.0 244.9" fill="none" stroke="#4a8b3f" stroke-width="2.5"/>
<path d="M990.1 285.0 Q1012.8 260.8 1006.0 236.7" fill="none" stroke="#856e51" stroke-width="3"/>
<path d="M1006.0 236.7 Q995.8 228.0 989.0 229.3" fill="none" stroke="#498a3e" stroke-width="2.5"/>
<path d="M1006.0 236.7 Q1009.6 226.1 1012.0 225.5" fill="none" stroke="#498a3e" stroke-width="2.5"/>
<path d="M1006.0 236.7 Q1022.3 231.7 1033.2 236.7" fill="none" stroke="#498a3e" stroke-width="2.5"/>
<path d="M1006.0 236.7 Q1010.1 238.0 1012.8 249.3" fill="none" stroke="#498a3e" stroke-width="2.5"/>
<path d="M1006.0 236.7 Q994.2 235.9 986.4 245.2" fill="none" stroke="#498a3e" stroke-width="2.5"/>
<path d="M1097.7 285.0 Q1122.7 259.5 1115.2 234.1" fill="none" stroke="#8b7355" stroke-width="3"/>
<path d="M1115.2 234.1 Q1106.0 225.8 1099.9 227.4" fill="none" stroke="#45823a" stroke-width="2.5"/>
<path d="M1115.2 234.1 Q1120.4 221.2 1123.8 218.3" fill="none" stroke="#45823a" stroke-width="2.5"/>
<path d="M1115.2 234.1 Q1130.6 229.1 1140.8 234.1" fill="none" stroke="#45823a" stroke-width="2.5"/>
<path d="M1115.2 234.1 Q1120.2 236.7 1123.5 249.3" fill="none" stroke="#45823a" stroke-width="2.5"/>
<path d="M1115.2 234.1 Q1104.0 233.2 1096.5 242.3" fill="none" stroke="#45823a" stroke-width="2.5"/>
<path d="M350.5 285.0 Q370.4 255.4 364.4 225.8" fill="none" stroke="#856e51" stroke-width="3"/>
<path d="M364.4 225.8 Q350.0 215.6 340.5 215.3" fill="none" stroke="#48883d" stroke-width="2.5"/>
<path d="M364.4 225.8 Q369.6 212.8 373.1 209.7" fill="none" stroke="#48883d" stroke-width="2.5"/>
<path d="M364.4 225.8 Q378.6 220.8 388.1 225.8" fill="none" stroke="#48883d" stroke-width="2.5"/>
<path d="M364.4 225.8 Q369.1 228.0 372.2 240.1" fill="none" stroke="#48883d" stroke-width="2.5"/>
<path d="M364.4 225.8 Q355.3 224.1 349.3 232.4" fill="none" stroke="#48883d" stroke-width="2.5"/>
<rect x="0" y="285" width="1200" height="15" fill="#d4c5a9" opacity="0.4"/>
<circle cx="989.1" cy="39.1" r="31.3" fill="#f5e6a0" opacity="0.1"/>
</svg>