<svg xmlns="http://www.w3.org/2000/svg" viewBox="0 0 1200 300" width="1200" height="300">
<defs><linearGradient id="skyGrad" x1="0" y1="0" x2="0" y2="1"><stop offset="0%" stop-color="#e8f0f8"/><stop offset="100%" stop-color="#f5e6d8"/></linearGradient></defs><rect width="1200" height="300" fill="url(#skyGrad)"/>
<path d="M0 300 L0 209.2 C392.3 187.1, 801.9 201.3, 1200 209.2 L1200 300 Z" fill="#e4c4a8" opacity="0.25"/>
<rect x="0" y="216.2" width="1200" height="83.8" fill="#a7aeaf" opacity="0.6"/>
<path d="M0 237.2 Q75.0 236.3 150.0 237.6 Q225.0 237.0 300.0 235.2 Q375.0 239.8 450.0 237.0 Q525.0 238.4 600.0 237.0 Q675.0 237.3 750.0 238.6 Q825.0 239.1 900.0 236.3 Q975.0 237.7 1050.0 237.8 Q1125.0 237.7 1200.0 238.7" fill="none" stroke="#bcc1c2" stroke-width="1" opacity="0.4"/>
<path d="M0 258.1 Q75.0 261.1 150.0 256.7 Q225.0 255.9 300.0 258.5 Q375.0 255.8 450.0 259.6 Q525.0 255.2 600.0 256.5 Q675.0 257.9 750.0 256.4 Q825.0 255.3 900.0 259.7 Q975.0 261.0 1050.0 257.5 Q1125.0 260.7 1200.0 258.6" fill="none" stroke="#bcc1c2" stroke-width="1" opacity="0.4"/>
<path d="M0 279.1 Q75.0 276.1 150.0 277.9 Q225.0 278.5 300.0 278.2 Q375.0 281.6 450.0 278.3 Q525.0 279.8 600.0 277.5 Q675.0 279.0 750.0 280.1 Q825.0 278.6 900.0 277.3 Q975.0 281.8 1050.0 278.8 Q1125.0 281.0 1200.0 280.1" fill="none" stroke="#bcc1c2" stroke-width="1" opacity="0.4"/>
<rect x="58.9" y="190.9" width="89.7" height="109.1" fill="#daae87"/>
<rect x="74.6" y="171.7" width="58.3" height="19.2" fill="#cfa580"/>
<rect x="268.9" y="226.4" width="79.4" height="73.6" fill="#daae87"/>
<rect x="456.2" y="181.4" width="41.6" height="118.6" fill="#daae87"/>
<polygon points="456.2,181.4 477.0,171.0 497.8,181.4" fill="#c9a07c"/>
<rect x="666.4" y="167.4" width="57.3" height="132.6" fill="#daae87"/>
<rect x="847.2" y="186.2" width="42.5" height="113.8" fill="#daae87"/>
<rect x="854.6" y="166.2" width="27.6" height="20.1" fill="#cfa580"/>
<rect x="1058.4" y="211.0" width="70.8" height="89.0" fill="#daae87"/>
<polygon points="1058.4,211.0 1093.8,193.3 1129.2,211.0" fill="#c9a07c"/>
<rect x="64.6" y="138.9" width="52.8" height="161.1" fill="#c98951"/>
<rect x="81.0" y="150.9" width="6" height="8" fill="#dcb28e" opacity="0.5"/>
<rect x="95.0" y="150.9" width="6" height="8" fill="#dcb28e" opacity="0.5"/>
<rect x="81.0" y="182.9" width="6" height="8" fill="#dcb28e" opacity="0.5"/>
<rect x="95.0" y="182.9" width="6" height="8" fill="#dcb28e" opacity="0.5"/>
<rect x="95.0" y="198.9" width="6" height="8" fill="#dcb28e" opacity="0.5"/>
<rect x="81.0" y="214.9" width="6" height="8" fill="#dcb28e" opacity="0.5"/>
<rect x="95.0" y="214.9" width="6" height="8" fill="#dcb28e" opacity="0.5"/>
<rect x="81.0" y="230.9" width="6" height="8" fill="#dcb28e" opacity="0.5"/>
<rect x="267.1" y="192.2" width="60.1" height="107.8" fill="#c98951"/>
<rect x="280.1" y="204.2" width="6" height="8" fill="#dcb28e" opacity="0.5"/>
<rect x="294.1" y="204.2" width="6" height="8" fill="#dcb28e" opacity="0.5"/>
<rect x="308.1" y="204.2" width="6" height="8" fill="#dcb28e" opacity="0.5"/>
<rect x="280.1" y="220.2" width="6" height="8" fill="#dcb28e" opacity="0.5"/>
<rect x="308.1" y="220.2" width="6" height="8" fill="#dcb28e" opacity="0.5"/>
<rect x="280.1" y="236.2" width="6" height="8" fill="#dcb28e" opacity="0.5"/>
<rect x="294.1" y="236.2" width="6" height="8" fill="#dcb28e" opacity="0.5"/>
<rect x="308.1" y="236.2" width="6" height="8" fill="#dcb28e" opacity="0.5"/>
<rect x="294.1" y="252.2" width="6" height="8" fill="#dcb28e" opacity="0.5"/>
<rect x="308.1" y="252.2" width="6" height="8" fill="#dcb28e" opacity="0.5"/>
<rect x="308.1" y="268.2" width="6" height="8" fill="#dcb28e" opacity="0.5"/>
<rect x="408.9" y="148.7" width="35.7" height="151.3" fill="#c98951"/>
<rect x="423.8" y="160.7" width="6" height="8" fill="#dcb28e" opacity="0.5"/>
<rect x="423.8" y="176.7" width="6" height="8" fill="#dcb28e" opacity="0.5"/>
<rect x="423.8" y="192.7" width="6" height="8" fill="#dcb28e" opacity="0.5"/>
<rect x="423.8" y="208.7" width="6" height="8" fill="#dcb28e" opacity="0.5"/>
<rect x="423.8" y="224.7" width="6" height="8" fill="#dcb28e" opacity="0.5"/>
<rect x="423.8" y="240.7" width="6" height="8" fill="#dcb28e" opacity="0.5"/>
<rect x="600.9" y="99.6" width="44.2" height="200.4" fill="#c98951"/>
<polygon points="600.9,99.6 623.0,88.5 645.1,99.6" fill="#b97e4b"/>
<rect x="613.0" y="111.6" width="6" height="8" fill="#dcb28e" opacity="0.5"/>
<rect x="613.0" y="127.6" width="6" height="8" fill="#dcb28e" opacity="0.5"/>
<rect x="627.0" y="127.6" width="6" height="8" fill="#dcb28e" opacity="0.5"/>
<rect x="613.0" y="159.6" width="6" height="8" fill="#dcb28e" opacity="0.5"/>
<rect x="613.0" y="175.6" width="6" height="8" fill="#dcb28e" opacity="0.5"/>
<rect x="627.0" y="175.6" width="6" height="8" fill="#dcb28e" opacity="0.5"/>
<rect x="613.0" y="191.6" width="6" height="8" fill="#dcb28e" opacity="0.5"/>
<rect x="712.0" y="112.7" width="74.1" height="187.3" fill="#c98951"/>
<rect x="746.1" y="124.7" width="6" height="8" fill="#dcb28e" opacity="0.5"/>
<rect x="732.1" y="140.7" width="6" height="8" fill="#dcb28e" opacity="0.5"/>
<rect x="746.1" y="140.7" width="6" height="8" fill="#dcb28e" opacity="0.5"/>
<rect x="732.1" y="156.7" width="6" height="8" fill="#dcb28e" opacity="0.5"/>
<rect x="732.1" y="172.7" width="6" height="8" fill="#dcb28e" opacity="0.5"/>
<rect x="760.1" y="172.7" width="6" height="8" fill="#dcb28e" opacity="0.5"/>
<rect x="732.1" y="188.7" width="6" height="8" fill="#dcb28e" opacity="0.5"/>
<rect x="746.1" y="188.7" width="6" height="8" fill="#dcb28e" opacity="0.5"/>
<rect x="746.1" y="204.7" width="6" height="8" fill="#dcb28e" opacity="0.5"/>
<rect x="760.1" y="204.7" width="6" height="8" fill="#dcb28e" opacity="0.5"/>
<rect x="893.1" y="150.2" width="50.2" height="149.8" fill="#c98951"/>
<rect x="908.2" y="162.2" width="6" height="8" fill="#dcb28e" opacity="0.5"/>
<rect x="922.2" y="162.2" width="6" height="8" fill="#dcb28e" opacity="0.5"/>
<rect x="908.2" y="178.2" width="6" height="8" fill="#dcb28e" opacity="0.5"/>
<rect x="922.2" y="178.2" width="6" height="8" fill="#dcb28e" opacity="0.5"/>
<rect x="908.2" y="194.2" width="6" height="8" fill="#dcb28e" opacity="0.5"/>
<rect x="922.2" y="194.2" width="6" height="8" fill="#dcb28e" opacity="0.5"/>
<rect x="922.2" y="210.2" width="6" height="8" fill="#dcb28e" opacity="0.5"/>
<rect x="908.2" y="226.2" width="6" height="8" fill="#dcb28e" opacity="0.5"/>
<rect x="922.2" y="226.2" width="6" height="8" fill="#dcb28e" opacity="0.5"/>
<rect x="908.2" y="242.2" width="6" height="8" fill="#dcb28e" opacity="0.5"/>
<rect x="922.2" y="242.2" width="6" height="8" fill="#dcb28e" opacity="0.5"/>
<rect x="1044.0" y="158.0" width="76.0" height="142.0" fill="#c98951"/>
<rect x="1093.0" y="170.0" width="6" height="8" fill="#dcb28e" opacity="0.5"/>
<rect x="1065.0" y="186.0" width="6" height="8" fill="#dcb28e" opacity="0.5"/>
<rect x="1079.0" y="186.0" width="6" height="8" fill="#dcb28e" opacity="0.5"/>
<rect x="1093.0" y="186.0" width="6" height="8" fill="#dcb28e" opacity="0.5"/>
<rect x="1065.0" y="202.0" width="6" height="8" fill="#dcb28e" opacity="0.5"/>
<rect x="1079.0" y="202.0" width="6" height="8" fill="#dcb28e" opacity="0.5"/>
<rect x="1093.0" y="202.0" width="6" height="8" fill="#dcb28e" opacity="0.5"/>
<rect x="1065.0" y="218.0" width="6" height="8" fill="#dcb28e" opacity="0.5"/>
<rect x="1065.0" y="234.0" width="6" height="8" fill="#dcb28e" opacity="0.5"/>
<rect x="1079.0" y="234.0" width="6" height="8" fill="#dcb28e" opacity="0.5"/>
<rect x="1093.0" y="234.0" width="6" height="8" fill="#dcb28e" opacity="0.5"/>
<rect x="1065.0" y="250.0" width="6" height="8" fill="#dcb28e" opacity="0.5"/>
<rect x="1093.0" y="250.0" width="6" height="8" fill="#dcb28e" opacity="0.5"/>
<rect x="116.1" y="75.7" width="42.1" height="224.3" fill="#bc6c25"/>
<rect x="134.2" y="87.7" width="6" height="8" fill="#d39f71" opacity="0.5"/>
<rect x="134.2" y="103.7" width="6" height="8" fill="#d39f71" opacity="0.5"/>
<rect x="134.2" y="119.7" width="6" height="8" fill="#d39f71" opacity="0.5"/>
<rect x="134.2" y="135.7" width="6" height="8" fill="#d39f71" opacity="0.5"/>
<rect x="134.2" y="151.7" width="6" height="8" fill="#d39f71" opacity="0.5"/>
<rect x="296.6" y="112.4" width="53.3" height="187.6" fill="#bc6c25"/>
<polygon points="296.6,112.4 323.3,99.0 350.0,112.4" fill="#ad6322"/>
<rect x="313.3" y="140.4" width="6" height="8" fill="#d39f71" opacity="0.5"/>
<rect x="327.3" y="140.4" width="6" height="8" fill="#d39f71" opacity="0.5"/>
<rect x="313.3" y="156.4" width="6" height="8" fill="#d39f71" opacity="0.5"/>
<rect x="327.3" y="156.4" width="6" height="8" fill="#d39f71" opacity="0.5"/>
<rect x="313.3" y="172.4" width="6" height="8" fill="#d39f71" opacity="0.5"/>
<rect x="327.3" y="172.4" width="6" height="8" fill="#d39f71" opacity="0.5"/>
<rect x="313.3" y="188.4" width="6" height="8" fill="#d39f71" opacity="0.5"/>
<rect x="327.3" y="188.4" width="6" height="8" fill="#d39f71" opacity="0.5"/>
<rect x="327.3" y="204.4" width="6" height="8" fill="#d39f71" opacity="0.5"/>
<rect x="463.1" y="204.7" width="61.6" height="95.3" fill="#bc6c25"/>
<rect x="476.8" y="216.7" width="6" height="8" fill="#d39f71" opacity="0.5"/>
<rect x="490.8" y="216.7" width="6" height="8" fill="#d39f71" opacity="0.5"/>
<rect x="504.8" y="216.7" width="6" height="8" fill="#d39f71" opacity="0.5"/>
<rect x="476.8" y="232.7" width="6" height="8" fill="#d39f71" opacity="0.5"/>
<rect x="504.8" y="232.7" width="6" height="8" fill="#d39f71" opacity="0.5"/>
<rect x="476.8" y="248.7" width="6" height="8" fill="#d39f71" opacity="0.5"/>
<rect x="504.8" y="248.7" width="6" height="8" fill="#d39f71" opacity="0.5"/>
<rect x="476.8" y="264.7" width="6" height="8" fill="#d39f71" opacity="0.5"/>
<rect x="490.8" y="264.7" width="6" height="8" fill="#d39f71" opacity="0.5"/>
<rect x="504.8" y="264.7" width="6" height="8" fill="#d39f71" opacity="0.5"/>
<rect x="669.9" y="118.2" width="72.1" height="181.8" fill="#bc6c25"/>
<polygon points="669.9,118.2 706.0,100.1 742.0,118.2" fill="#ad6322"/>
<rect x="703.0" y="130.2" width="6" height="8" fill="#d39f71" opacity="0.5"/>
<rect x="717.0" y="130.2" width="6" height="8" fill="#d39f71" opacity="0.5"/>
<rect x="689.0" y="146.2" width="6" height="8" fill="#d39f71" opacity="0.5"/>
<rect x="703.0" y="146.2" width="6" height="8" fill="#d39f71" opacity="0.5"/>
<rect x="717.0" y="146.2" width="6" height="8" fill="#d39f71" opacity="0.5"/>
<rect x="689.0" y="162.2" width="6" height="8" fill="#d39f71" opacity="0.5"/>
<rect x="703.0" y="162.2" width="6" height="8" fill="#d39f71" opacity="0.5"/>
<rect x="717.0" y="162.2" width="6" height="8" fill="#d39f71" opacity="0.5"/>
<rect x="703.0" y="178.2" width="6" height="8" fill="#d39f71" opacity="0.5"/>
<rect x="689.0" y="194.2" width="6" height="8" fill="#d39f71" opacity="0.5"/>
<rect x="703.0" y="194.2" width="6" height="8" fill="#d39f71" opacity="0.5"/>
<rect x="717.0" y="194.2" width="6" height="8" fill="#d39f71" opacity="0.5"/>
<rect x="703.0" y="210.2" width="6" height="8" fill="#d39f71" opacity="0.5"/>
<rect x="717.0" y="210.2" width="6" height="8" fill="#d39f71" opacity="0.5"/>
<line x1="706.0" y1="118.2" x2="706.0" y2="106.9" stroke="#bc6c25" stroke-width="2"/>
<rect x="888.1" y="139.4" width="49.7" height="160.6" fill="#bc6c25"/>
<rect x="902.9" y="151.4" width="6" height="8" fill="#d39f71" opacity="0.5"/>
<rect x="902.9" y="167.4" width="6" height="8" fill="#d39f71" opacity="0.5"/>
<rect x="916.9" y="167.4" width="6" height="8" fill="#d39f71" opacity="0.5"/>
<rect x="902.9" y="183.4" width="6" height="8" fill="#d39f71" opacity="0.5"/>
<rect x="902.9" y="231.4" width="6" height="8" fill="#d39f71" opacity="0.5"/>
<rect x="916.9" y="231.4" width="6" height="8" fill="#d39f71" opacity="0.5"/>
<rect x="1024.0" y="218.5" width="67.5" height="81.5" fill="#bc6c25"/>
<rect x="1054.8" y="230.5" width="6" height="8" fill="#d39f71" opacity="0.5"/>
<rect x="1068.8" y="230.5" width="6" height="8" fill="#d39f71" opacity="0.5"/>
<rect x="1054.8" y="246.5" width="6" height="8" fill="#d39f71" opacity="0.5"/>
<rect x="1068.8" y="246.5" width="6" height="8" fill="#d39f71" opacity="0.5"/>
<rect x="1054.8" y="262.5" width="6" height="8" fill="#d39f71" opacity="0.5"/>
<rect x="1068.8" y="262.5" width="6" height="8" fill="#d39f71" opacity="0.5"/>
<path d="M227.4 285.0 Q250.1 265.0 243.3 244.9" fill="none" stroke="#836c50" stroke-width="3"/>
<path d="M243.3 244.9 Q229.2 234.8 219.9 234.7" fill="none" stroke="#437f39" stroke-width="2.5"/>
<path d="M243.3 244.9 Q248.7 231.6 252.3 228.3" fill="none" stroke="#437f39" stroke-width="2.5"/>
<path d="M243.3 244.9 Q254.7 239.9 262.4 244.9" fill="none" stroke="#437f39" stroke-width="2.5"/>
<path d="M243.3 244.9 Q248.6 248.2 252.2 261.5" fill="none" stroke="#437f39" stroke-width="2.5"/>
<path d="M243.3 244.9 Q233.2 243.6 226.4 252.3" fill="none" stroke="#437f39" stroke-width="2.5"/>
<path d="M406.5 285.0 Q434.6 262.8 426.1 240.7" fill="none" stroke="#897254" stroke-width="3"/>
<path d="M426.1 240.7 Q416.6 232.2 410.2 233.7" fill="none" stroke="#437f39" stroke-width="2.5"/>
<path d="M426.1 240.7 Q430.8 228.5 433.9 226.3" fill="none" stroke="#437f39" stroke-width="2.5"/>
<path d="M426.1 240.7 Q443.3 235.7 454.8 240.7" fill="none" stroke="#437f39" stroke-width="2.5"/>
<path d="M426.1 240.7 Q431.0 243.1 434.2 255.5" fill="none" stroke="#437f39" stroke-width="2.5"/>
<path d="M426.1 240.7 Q417.2 239.0 411.2 247.2" fill="none" stroke="#437f39" stroke-width="2.5"/>
<path d="M597.3 285.0 Q626.9 262.5 618.0 240.0" fill="none" stroke="#866f52" stroke-width="3"/>
<path d="M618.0 240.0 Q608.0 231.3 601.3 232.7" fill="none" stroke="#46853c" stroke-width="2.5"/>
<path d="M618.0 240.0 Q621.5 229.7 623.8 229.3" fill="none" stroke="#46853c" stroke-width="2.5"/>
<path d="M618.0 240.0 Q632.4 235.0 642.0 240.0" fill="none" stroke="#46853c" stroke-width="2.5"/>
<path d="M618.0 240.0 Q621.9 240.9 624.4 251.8" fill="none" stroke="#46853c" stroke-width="2.5"/>
<path d="M618.0 240.0 Q608.8 238.3 602.7 246.7" fill="none" stroke="#46853c" stroke-width="2.5"/>
<path d="M815.0 285.0 Q836.6 263.3 830.1 241.7" fill="none" stroke="#7b664b" stroke-width="3"/>
<path d="M830.1 241.7 Q818.1 232.3 810.1 232.9" fill="none" stroke="#46843c" stroke-width="2.5"/>
<path d="M830.1 241.7 Q835.5 228.5 839.0 225.3" fill="none" stroke="#46843c" stroke-width="2.5"/>
<path d="M830.1 241.7 Q844.8 236.7 854.6 241.7" fill="none" stroke="#46843c" stroke-width="2.5"/>
<path d="M830.1 241.7 Q834.7 243.6 837.7 255.6" fill="none" stroke="#46843c" stroke-width="2.5"/>
<path d="M830.1 241.7 Q819.8 240.4 813.0 249.2" fill="none" stroke="#46843c" stroke-width="2.5"/>
<rect x="0" y="285" width="1200" height="15" fill="#d4c5a9" opacity="0.4"/>
<circle cx="1074.4" cy="33.0" r="39.1" fill="#f5e6a0" opacity="0.1"/>
</svg>