<svg xmlns="http://www.w3.org/2000/svg" viewBox="0 0 1200 300" width="1200" height="300">
<rect width="1200" height="300" fill="#f0e6d8"/>
<path d="M0 300 L0 210.0 C374.1 164.6, 801.9 195.2, 1200 210.0 L1200 300 Z" fill="#e4c4a8" opacity="0.3"/>
<rect x="110.9" y="176.9" width="40.6" height="123.1" fill="#daae87"/>
<rect x="221.9" y="188.6" width="57.9" height="111.4" fill="#daae87"/>
<rect x="427.4" y="189.2" width="62.4" height="110.8" fill="#daae87"/>
<rect x="579.7" y="184.3" width="75.7" height="115.7" fill="#daae87"/>
<rect x="751.4" y="173.1" width="53.7" height="126.9" fill="#daae87"/>
<rect x="909.5" y="178.9" width="69.2" height="121.1" fill="#daae87"/>
<rect x="1089.0" y="177.7" width="47.0" height="122.3" fill="#daae87"/>
<rect x="96.3" y="191.1" width="40.8" height="108.9" fill="#c98951"/>
<rect x="113.7" y="203.1" width="6" height="8" fill="#dcb28e" opacity="0.5"/>
<rect x="113.7" y="219.1" width="6" height="8" fill="#dcb28e" opacity="0.5"/>
<rect x="113.7" y="251.1" width="6" height="8" fill="#dcb28e" opacity="0.5"/>
<rect x="203.4" y="196.4" width="39.8" height="103.6" fill="#c98951"/>
<rect x="220.3" y="208.4" width="6" height="8" fill="#dcb28e" opacity="0.5"/>
<rect x="220.3" y="224.4" width="6" height="8" fill="#dcb28e" opacity="0.5"/>
<rect x="220.3" y="240.4" width="6" height="8" fill="#dcb28e" opacity="0.5"/>
<rect x="375.4" y="200.2" width="55.8" height="99.8" fill="#c98951"/>
<rect x="393.3" y="212.2" width="6" height="8" fill="#dcb28e" opacity="0.5"/>
<rect x="407.3" y="212.2" width="6" height="8" fill="#dcb28e" opacity="0.5"/>
<rect x="407.3" y="228.2" width="6" height="8" fill="#dcb28e" opacity="0.5"/>
<rect x="393.3" y="244.2" width="6" height="8" fill="#dcb28e" opacity="0.5"/>
<rect x="407.3" y="244.2" width="6" height="8" fill="#dcb28e" opacity="0.5"/>
<rect x="407.3" y="260.2" width="6" height="8" fill="#dcb28e" opacity="0.5"/>
<rect x="524.3" y="136.7" width="50.4" height="163.3" fill="#c98951"/>
<rect x="539.5" y="148.7" width="6" height="8" fill="#dcb28e" opacity="0.5"/>
<rect x="553.5" y="148.7" width="6" height="8" fill="#dcb28e" opacity="0.5"/>
<rect x="539.5" y="164.7" width="6" height="8" fill="#dcb28e" opacity="0.5"/>
<rect x="553.5" y="164.7" width="6" height="8" fill="#dcb28e" opacity="0.5"/>
<rect x="539.5" y="180.7" width="6" height="8" fill="#dcb28e" opacity="0.5"/>
<rect x="553.5" y="180.7" width="6" height="8" fill="#dcb28e" opacity="0.5"/>
<rect x="539.5" y="196.7" width="6" height="8" fill="#dcb28e" opacity="0.5"/>
<rect x="553.5" y="196.7" width="6" height="8" fill="#dcb28e" opacity="0.5"/>
<rect x="539.5" y="212.7" width="6" height="8" fill="#dcb28e" opacity="0.5"/>
<rect x="553.5" y="212.7" width="6" height="8" fill="#dcb28e" opacity="0.5"/>
<rect x="539.5" y="228.7" width="6" height="8" fill="#dcb28e" opacity="0.5"/>
<rect x="553.5" y="228.7" width="6" height="8" fill="#dcb28e" opacity="0.5"/>
<rect x="539.5" y="244.7" width="6" height="8" fill="#dcb28e" opacity="0.5"/>
<rect x="553.5" y="244.7" width="6" height="8" fill="#dcb28e" opacity="0.5"/>
<rect x="553.5" y="260.7" width="6" height="8" fill="#dcb28e" opacity="0.5"/>
<rect x="620.7" y="202.8" width="77.2" height="97.2" fill="#c98951"/>
<rect x="635.3" y="214.8" width="6" height="8" fill="#dcb28e" opacity="0.5"/>
<rect x="649.3" y="214.8" width="6" height="8" fill="#dcb28e" opacity="0.5"/>
<rect x="663.3" y="214.8" width="6" height="8" fill="#dcb28e" opacity="0.5"/>
<rect x="677.3" y="214.8" width="6" height="8" fill="#dcb28e" opacity="0.5"/>
<rect x="635.3" y="230.8" width="6" height="8" fill="#dcb28e" opacity="0.5"/>
<rect x="649.3" y="230.8" width="6" height="8" fill="#dcb28e" opacity="0.5"/>
<rect x="635.3" y="246.8" width="6" height="8" fill="#dcb28e" opacity="0.5"/>
<rect x="649.3" y="246.8" width="6" height="8" fill="#dcb28e" opacity="0.5"/>
<rect x="677.3" y="246.8" width="6" height="8" fill="#dcb28e" opacity="0.5"/>
<rect x="635.3" y="262.8" width="6" height="8" fill="#dcb28e" opacity="0.5"/>
<rect x="663.3" y="262.8" width="6" height="8" fill="#dcb28e" opacity="0.5"/>
<rect x="677.3" y="262.8" width="6" height="8" fill="#dcb28e" opacity="0.5"/>
<rect x="785.8" y="169.5" width="48.3" height="130.5" fill="#c98951"/>
<rect x="800.0" y="181.5" width="6" height="8" fill="#dcb28e" opacity="0.5"/>
<rect x="814.0" y="197.5" width="6" height="8" fill="#dcb28e" opacity="0.5"/>
<rect x="800.0" y="213.5" width="6" height="8" fill="#dcb28e" opacity="0.5"/>
<rect x="800.0" y="229.5" width="6" height="8" fill="#dcb28e" opacity="0.5"/>
<rect x="814.0" y="229.5" width="6" height="8" fill="#dcb28e" opacity="0.5"/>
<rect x="800.0" y="245.5" width="6" height="8" fill="#dcb28e" opacity="0.5"/>
<rect x="814.0" y="245.5" width="6" height="8" fill="#dcb28e" opacity="0.5"/>
<rect x="814.0" y="261.5" width="6" height="8" fill="#dcb28e" opacity="0.5"/>
<rect x="901.6" y="137.2" width="76.8" height="162.8" fill="#c98951"/>
<rect x="916.0" y="149.2" width="6" height="8" fill="#dcb28e" opacity="0.5"/>
<rect x="930.0" y="149.2" width="6" height="8" fill="#dcb28e" opacity="0.5"/>
<rect x="944.0" y="149.2" width="6" height="8" fill="#dcb28e" opacity="0.5"/>
<rect x="958.0" y="149.2" width="6" height="8" fill="#dcb28e" opacity="0.5"/>
<rect x="930.0" y="165.2" width="6" height="8" fill="#dcb28e" opacity="0.5"/>
<rect x="944.0" y="165.2" width="6" height="8" fill="#dcb28e" opacity="0.5"/>
<rect x="958.0" y="165.2" width="6" height="8" fill="#dcb28e" opacity="0.5"/>
<rect x="916.0" y="181.2" width="6" height="8" fill="#dcb28e" opacity="0.5"/>
<rect x="944.0" y="181.2" width="6" height="8" fill="#dcb28e" opacity="0.5"/>
<rect x="958.0" y="181.2" width="6" height="8" fill="#dcb28e" opacity="0.5"/>
<rect x="944.0" y="197.2" width="6" height="8" fill="#dcb28e" opacity="0.5"/>
<rect x="958.0" y="197.2" width="6" height="8" fill="#dcb28e" opacity="0.5"/>
<rect x="916.0" y="213.2" width="6" height="8" fill="#dcb28e" opacity="0.5"/>
<rect x="930.0" y="213.2" width="6" height="8" fill="#dcb28e" opacity="0.5"/>
<rect x="944.0" y="213.2" width="6" height="8" fill="#dcb28e" opacity="0.5"/>
<rect x="958.0" y="213.2" width="6" height="8" fill="#dcb28e" opacity="0.5"/>
<rect x="916.0" y="229.2" width="6" height="8" fill="#dcb28e" opacity="0.5"/>
<rect x="930.0" y="229.2" width="6" height="8" fill="#dcb28e" opacity="0.5"/>
<rect x="958.0" y="229.2" width="6" height="8" fill="#dcb28e" opacity="0.5"/>
<rect x="930.0" y="245.2" width="6" height="8" fill="#dcb28e" opacity="0.5"/>
<rect x="944.0" y="245.2" width="6" height="8" fill="#dcb28e" opacity="0.5"/>
<rect x="958.0" y="245.2" width="6" height="8" fill="#dcb28e" opacity="0.5"/>
<rect x="916.0" y="261.2" width="6" height="8" fill="#dcb28e" opacity="0.5"/>
<rect x="930.0" y="261.2" width="6" height="8" fill="#dcb28e" opacity="0.5"/>
<rect x="958.0" y="261.2" width="6" height="8" fill="#dcb28e" opacity="0.5"/>
<rect x="1063.3" y="198.3" width="69.6" height="101.7" fill="#c98951"/>
<rect x="1081.1" y="210.3" width="6" height="8" fill="#dcb28e" opacity="0.5"/>
<rect x="1095.1" y="210.3" width="6" height="8" fill="#dcb28e" opacity="0.5"/>
<rect x="1109.1" y="210.3" width="6" height="8" fill="#dcb28e" opacity="0.5"/>
<rect x="1081.1" y="226.3" width="6" height="8" fill="#dcb28e" opacity="0.5"/>
<rect x="1095.1" y="226.3" width="6" height="8" fill="#dcb28e" opacity="0.5"/>
<rect x="1109.1" y="226.3" width="6" height="8" fill="#dcb28e" opacity="0.5"/>
<rect x="1095.1" y="242.3" width="6" height="8" fill="#dcb28e" opacity="0.5"/>
<rect x="1109.1" y="242.3" width="6" height="8" fill="#dcb28e" opacity="0.5"/>
<rect x="1081.1" y="258.3" width="6" height="8" fill="#dcb28e" opacity="0.5"/>
<rect x="1095.1" y="258.3" width="6" height="8" fill="#dcb28e" opacity="0.5"/>
<rect x="83.4" y="67.8" width="48.9" height="232.2" fill="#bc6c25"/>
<rect x="111.9" y="79.8" width="6" height="8" fill="#d39f71" opacity="0.5"/>
<rect x="97.9" y="95.8" width="6" height="8" fill="#d39f71" opacity="0.5"/>
<rect x="111.9" y="95.8" width="6" height="8" fill="#d39f71" opacity="0.5"/>
<rect x="97.9" y="111.8" width="6" height="8" fill="#d39f71" opacity="0.5"/>
<rect x="111.9" y="111.8" width="6" height="8" fill="#d39f71" opacity="0.5"/>
<rect x="97.9" y="143.8" width="6" height="8" fill="#d39f71" opacity="0.5"/>
<rect x="111.9" y="143.8" width="6" height="8" fill="#d39f71" opacity="0.5"/>
<rect x="97.9" y="159.8" width="6" height="8" fill="#d39f71" opacity="0.5"/>
<rect x="111.9" y="159.8" width="6" height="8" fill="#d39f71" opacity="0.5"/>
<rect x="97.9" y="175.8" width="6" height="8" fill="#d39f71" opacity="0.5"/>
<rect x="111.9" y="175.8" width="6" height="8" fill="#d39f71" opacity="0.5"/>
<rect x="97.9" y="191.8" width="6" height="8" fill="#d39f71" opacity="0.5"/>
<rect x="111.9" y="191.8" width="6" height="8" fill="#d39f71" opacity="0.5"/>
<rect x="97.9" y="207.8" width="6" height="8" fill="#d39f71" opacity="0.5"/>
<rect x="97.9" y="223.8" width="6" height="8" fill="#d39f71" opacity="0.5"/>
<rect x="111.9" y="223.8" width="6" height="8" fill="#d39f71" opacity="0.5"/>
<rect x="97.9" y="239.8" width="6" height="8" fill="#d39f71" opacity="0.5"/>
<rect x="111.9" y="239.8" width="6" height="8" fill="#d39f71" opacity="0.5"/>
<rect x="97.9" y="255.8" width="6" height="8" fill="#d39f71" opacity="0.5"/>
<rect x="111.9" y="255.8" width="6" height="8" fill="#d39f71" opacity="0.5"/>
<rect x="258.3" y="103.2" width="64.1" height="196.8" fill="#bc6c25"/>
<rect x="287.4" y="115.2" width="6" height="8" fill="#d39f71" opacity="0.5"/>
<rect x="301.4" y="115.2" width="6" height="8" fill="#d39f71" opacity="0.5"/>
<rect x="273.4" y="131.2" width="6" height="8" fill="#d39f71" opacity="0.5"/>
<rect x="287.4" y="131.2" width="6" height="8" fill="#d39f71" opacity="0.5"/>
<rect x="301.4" y="131.2" width="6" height="8" fill="#d39f71" opacity="0.5"/>
<rect x="273.4" y="147.2" width="6" height="8" fill="#d39f71" opacity="0.5"/>
<rect x="287.4" y="147.2" width="6" height="8" fill="#d39f71" opacity="0.5"/>
<rect x="301.4" y="147.2" width="6" height="8" fill="#d39f71" opacity="0.5"/>
<rect x="301.4" y="163.2" width="6" height="8" fill="#d39f71" opacity="0.5"/>
<rect x="273.4" y="179.2" width="6" height="8" fill="#d39f71" opacity="0.5"/>
<rect x="287.4" y="179.2" width="6" height="8" fill="#d39f71" opacity="0.5"/>
<rect x="301.4" y="179.2" width="6" height="8" fill="#d39f71" opacity="0.5"/>
<rect x="287.4" y="195.2" width="6" height="8" fill="#d39f71" opacity="0.5"/>
<rect x="301.4" y="195.2" width="6" height="8" fill="#d39f71" opacity="0.5"/>
<rect x="273.4" y="211.2" width="6" height="8" fill="#d39f71" opacity="0.5"/>
<rect x="287.4" y="211.2" width="6" height="8" fill="#d39f71" opacity="0.5"/>
<rect x="301.4" y="211.2" width="6" height="8" fill="#d39f71" opacity="0.5"/>
<rect x="273.4" y="227.2" width="6" height="8" fill="#d39f71" opacity="0.5"/>
<rect x="287.4" y="227.2" width="6" height="8" fill="#d39f71" opacity="0.5"/>
<rect x="301.4" y="243.2" width="6" height="8" fill="#d39f71" opacity="0.5"/>
<rect x="287.4" y="259.2" width="6" height="8" fill="#d39f71" opacity="0.5"/>
<rect x="301.4" y="259.2" width="6" height="8" fill="#d39f71" opacity="0.5"/>
<line x1="290.4" y1="103.2" x2="290.4" y2="83.9" stroke="#bc6c25" stroke-width="2"/>
<rect x="381.6" y="119.3" width="74.8" height="180.7" fill="#bc6c25"/>
<rect x="395.0" y="131.3" width="6" height="8" fill="#d39f71" opacity="0.5"/>
<rect x="409.0" y="131.3" width="6" height="8" fill="#d39f71" opacity="0.5"/>
<rect x="423.0" y="131.3" width="6" height="8" fill="#d39f71" opacity="0.5"/>
<rect x="437.0" y="131.3" width="6" height="8" fill="#d39f71" opacity="0.5"/>
<rect x="395.0" y="147.3" width="6" height="8" fill="#d39f71" opacity="0.5"/>
<rect x="409.0" y="147.3" width="6" height="8" fill="#d39f71" opacity="0.5"/>
<rect x="423.0" y="147.3" width="6" height="8" fill="#d39f71" opacity="0.5"/>
<rect x="437.0" y="147.3" width="6" height="8" fill="#d39f71" opacity="0.5"/>
<rect x="395.0" y="163.3" width="6" height="8" fill="#d39f71" opacity="0.5"/>
<rect x="409.0" y="163.3" width="6" height="8" fill="#d39f71" opacity="0.5"/>
<rect x="423.0" y="163.3" width="6" height="8" fill="#d39f71" opacity="0.5"/>
<rect x="437.0" y="163.3" width="6" height="8" fill="#d39f71" opacity="0.5"/>
<rect x="409.0" y="179.3" width="6" height="8" fill="#d39f71" opacity="0.5"/>
<rect x="423.0" y="179.3" width="6" height="8" fill="#d39f71" opacity="0.5"/>
<rect x="437.0" y="179.3" width="6" height="8" fill="#d39f71" opacity="0.5"/>
<rect x="395.0" y="195.3" width="6" height="8" fill="#d39f71" opacity="0.5"/>
<rect x="409.0" y="195.3" width="6" height="8" fill="#d39f71" opacity="0.5"/>
<rect x="423.0" y="195.3" width="6" height="8" fill="#d39f71" opacity="0.5"/>
<rect x="437.0" y="195.3" width="6" height="8" fill="#d39f71" opacity="0.5"/>
<rect x="423.0" y="211.3" width="6" height="8" fill="#d39f71" opacity="0.5"/>
<rect x="437.0" y="211.3" width="6" height="8" fill="#d39f71" opacity="0.5"/>
<rect x="395.0" y="227.3" width="6" height="8" fill="#d39f71" opacity="0.5"/>
<rect x="409.0" y="227.3" width="6" height="8" fill="#d39f71" opacity="0.5"/>
<rect x="423.0" y="227.3" width="6" height="8" fill="#d39f71" opacity="0.5"/>
<rect x="437.0" y="227.3" width="6" height="8" fill="#d39f71" opacity="0.5"/>
<rect x="395.0" y="243.3" width="6" height="8" fill="#d39f71" opacity="0.5"/>
<rect x="409.0" y="243.3" width="6" height="8" fill="#d39f71" opacity="0.5"/>
<rect x="437.0" y="243.3" width="6" height="8" fill="#d39f71" opacity="0.5"/>
<rect x="409.0" y="259.3" width="6" height="8" fill="#d39f71" opacity="0.5"/>
<rect x="423.0" y="259.3" width="6" height="8" fill="#d39f71" opacity="0.5"/>
<rect x="437.0" y="259.3" width="6" height="8" fill="#d39f71" opacity="0.5"/>
<rect x="561.8" y="236.6" width="65.4" height="63.4" fill="#bc6c25"/>
<rect x="577.5" y="248.6" width="6" height="8" fill="#d39f71" opacity="0.5"/>
<rect x="591.5" y="248.6" width="6" height="8" fill="#d39f71" opacity="0.5"/>
<rect x="605.5" y="248.6" width="6" height="8" fill="#d39f71" opacity="0.5"/>
<rect x="591.5" y="264.6" width="6" height="8" fill="#d39f71" opacity="0.5"/>
<rect x="605.5" y="264.6" width="6" height="8" fill="#d39f71" opacity="0.5"/>
<rect x="723.2" y="140.1" width="31.5" height="159.9" fill="#bc6c25"/>
<rect x="735.9" y="168.1" width="6" height="8" fill="#d39f71" opacity="0.5"/>
<rect x="735.9" y="184.1" width="6" height="8" fill="#d39f71" opacity="0.5"/>
<rect x="735.9" y="200.1" width="6" height="8" fill="#d39f71" opacity="0.5"/>
<rect x="735.9" y="264.1" width="6" height="8" fill="#d39f71" opacity="0.5"/>
<rect x="903.0" y="110.1" width="45.6" height="189.9" fill="#bc6c25"/>
<rect x="915.8" y="122.1" width="6" height="8" fill="#d39f71" opacity="0.5"/>
<rect x="929.8" y="122.1" width="6" height="8" fill="#d39f71" opacity="0.5"/>
<rect x="915.8" y="138.1" width="6" height="8" fill="#d39f71" opacity="0.5"/>
<rect x="929.8" y="138.1" width="6" height="8" fill="#d39f71" opacity="0.5"/>
<rect x="929.8" y="154.1" width="6" height="8" fill="#d39f71" opacity="0.5"/>
<rect x="915.8" y="170.1" width="6" height="8" fill="#d39f71" opacity="0.5"/>
<rect x="915.8" y="186.1" width="6" height="8" fill="#d39f71" opacity="0.5"/>
<rect x="929.8" y="186.1" width="6" height="8" fill="#d39f71" opacity="0.5"/>
<rect x="915.8" y="202.1" width="6" height="8" fill="#d39f71" opacity="0.5"/>
<rect x="929.8" y="202.1" width="6" height="8" fill="#d39f71" opacity="0.5"/>
<rect x="915.8" y="218.1" width="6" height="8" fill="#d39f71" opacity="0.5"/>
<rect x="929.8" y="234.1" width="6" height="8" fill="#d39f71" opacity="0.5"/>
<rect x="915.8" y="250.1" width="6" height="8" fill="#d39f71" opacity="0.5"/>
<rect x="929.8" y="250.1" width="6" height="8" fill="#d39f71" opacity="0.5"/>
<rect x="915.8" y="266.1" width="6" height="8" fill="#d39f71" opacity="0.5"/>
<rect x="929.8" y="266.1" width="6" height="8" fill="#d39f71" opacity="0.5"/>
<rect x="1058.2" y="107.5" width="32.2" height="192.5" fill="#bc6c25"/>
<rect x="1071.3" y="119.5" width="6" height="8" fill="#d39f71" opacity="0.5"/>
<rect x="1071.3" y="167.5" width="6" height="8" fill="#d39f71" opacity="0.5"/>
<rect x="1071.3" y="199.5" width="6" height="8" fill="#d39f71" opacity="0.5"/>
<rect x="1071.3" y="231.5" width="6" height="8" fill="#d39f71" opacity="0.5"/>
<rect x="1071.3" y="247.5" width="6" height="8" fill="#d39f71" opacity="0.5"/>
<rect x="1071.3" y="263.5" width="6" height="8" fill="#d39f71" opacity="0.5"/>
<rect x="0" y="298" width="1200" height="2" fill="#a96121" opacity="0.15"/>
</svg>