<svg xmlns="http://www.w3.org/2000/svg" viewBox="0 0 1200 300" width="1200" height="300">
<defs>
<linearGradient id="skyGrad" x1="0" y1="0" x2="0" y2="1">
<stop offset="0%" stop-color="#a78bfa"/>
<stop offset="15%" stop-color="#c4b5fd"/>
<stop offset="30%" stop-color="#fda4af"/>
<stop offset="48%" stop-color="#fdba74"/>
<stop offset="65%" stop-color="#fcd34d"/>
<stop offset="85%" stop-color="#fef08a"/>
<stop offset="100%" stop-color="#fef9c3"/>
</linearGradient>
<linearGradient id="bldg_coral" x1="0" y1="0" x2="0" y2="1"><stop offset="0%" stop-color="#fecaca"/><stop offset="100%" stop-color="#fca5a5"/></linearGradient>
<linearGradient id="bldg_teal" x1="0" y1="0" x2="0" y2="1"><stop offset="0%" stop-color="#99f6e4"/><stop offset="100%" stop-color="#5eead4"/></linearGradient>
<linearGradient id="bldg_amber" x1="0" y1="0" x2="0" y2="1"><stop offset="0%" stop-color="#fde68a"/><stop offset="100%" stop-color="#fcd34d"/></linearGradient>
<linearGradient id="bldg_lavender" x1="0" y1="0" x2="0" y2="1"><stop offset="0%" stop-color="#ddd6fe"/><stop offset="100%" stop-color="#c4b5fd"/></linearGradient>
<linearGradient id="bldg_blue" x1="0" y1="0" x2="0" y2="1"><stop offset="0%" stop-color="#bfdbfe"/><stop offset="100%" stop-color="#93c5fd"/></linearGradient>
<linearGradient id="bldg_mint" x1="0" y1="0" x2="0" y2="1"><stop offset="0%" stop-color="#a7f3d0"/><stop offset="100%" stop-color="#6ee7b7"/></linearGradient>
<linearGradient id="bldg_rose" x1="0" y1="0" x2="0" y2="1"><stop offset="0%" stop-color="#fecdd3"/><stop offset="100%" stop-color="#fda4af"/></linearGradient>
<linearGradient id="bldg_sky" x1="0" y1="0" x2="0" y2="1"><stop offset="0%" stop-color="#bae6fd"/><stop offset="100%" stop-color="#7dd3fc"/></linearGradient>
<linearGradient id="roof_navyRoof" x1="0" y1="0" x2="0" y2="1"><stop offset="0%" stop-color="#4338ca"/><stop offset="100%" stop-color="#3730a3"/></linearGradient>
<linearGradient id="roof_coralRoof" x1="0" y1="0" x2="0" y2="1"><stop offset="0%" stop-color="#f87171"/><stop offset="100%" stop-color="#ef4444"/></linearGradient>
<linearGradient id="roof_tealRoof" x1="0" y1="0" x2="0" y2="1"><stop offset="0%" stop-color="#2dd4bf"/><stop offset="100%" stop-color="#14b8a6"/></linearGradient>
<radialGradient id="windowGlow" cx="50%" cy="50%" r="50%"><stop offset="0%" stop-color="#fef08a"/><stop offset="60%" stop-color="#fbbf24"/><stop offset="100%" stop-color="#f59e0b"/></radialGradient>
<linearGradient id="hillFar" x1="0" y1="0" x2="0" y2="1"><stop offset="0%" stop-color="#c4b5fd"/><stop offset="100%" stop-color="#a5b4fc"/></linearGradient>
<linearGradient id="hillMid" x1="0" y1="0" x2="0" y2="1"><stop offset="0%" stop-color="#86efac"/><stop offset="100%" stop-color="#4ade80"/></linearGradient>
<linearGradient id="hillNear" x1="0" y1="0" x2="0" y2="1"><stop offset="0%" stop-color="#34d399"/><stop offset="100%" stop-color="#10b981"/></linearGradient>
<linearGradient id="hillDesertFar" x1="0" y1="0" x2="0" y2="1"><stop offset="0%" stop-color="#fde68a"/><stop offset="100%" stop-color="#fcd34d"/></linearGradient>
<linearGradient id="hillDesertMid" x1="0" y1="0" x2="0" y2="1"><stop offset="0%" stop-color="#fcd34d"/><stop offset="100%" stop-color="#fbbf24"/></linearGradient>
<linearGradient id="hillDesertNear" x1="0" y1="0" x2="0" y2="1"><stop offset="0%" stop-color="#fbbf24"/><stop offset="100%" stop-color="#f59e0b"/></linearGradient>
<linearGradient id="groundGrad" x1="0" y1="0" x2="0" y2="1"><stop offset="0%" stop-color="#fef3c7"/><stop offset="100%" stop-color="#fde68a"/></linearGradient>
<linearGradient id="waterGrad" x1="0" y1="0" x2="0" y2="1"><stop offset="0%" stop-color="#bfdbfe"/><stop offset="100%" stop-color="#93c5fd"/></linearGradient>
<filter id="softGlow" x="-50%" y="-50%" width="200%" height="200%"><feGaussianBlur in="SourceGraphic" stdDeviation="12"/></filter>
</defs>
<rect width="1200" height="300" fill="url(#skyGrad)"/>
<circle cx="1069.6" cy="54.8" r="45" fill="#fef08a" opacity="0.12" filter="url(#softGlow)"/>
<circle cx="1069.6" cy="54.8" r="30" fill="#fde68a" opacity="0.18" filter="url(#softGlow)"/>
<circle cx="1069.6" cy="54.8" r="16" fill="#fef9c3" opacity="0.25" filter="url(#softGlow)"/>
<path d="M0 300 L0.0 194.7 C140.3 194.7, 140.3 204.0, 280.6 204.0 C402.5 204.0, 402.5 204.2, 524.4 204.2 C592.6 204.2, 592.6 196.5, 660.7 196.5 C809.3 196.5, 809.3 195.7, 957.9 195.7 C1078.9 195.7, 1078.9 195.4, 1200.0 195.4 L1200 300 Z" fill="url(#hillDesertFar)" opacity="0.45"/>
<path d="M0 300 L0.0 210.3 C150.2 210.3, 150.2 217.1, 300.4 217.1 C453.9 217.1, 453.9 219.4, 607.5 219.4 C779.9 219.4, 779.9 218.7, 952.3 218.7 C1076.2 218.7, 1076.2 220.9, 1200.0 220.9 L1200 300 Z" fill="url(#hillDesertMid)" opacity="0.6"/>
<path d="M0 300 L0.0 233.8 C138.5 233.8, 138.5 235.9, 277.0 235.9 C471.9 235.9, 471.9 239.5, 666.8 239.5 C806.3 239.5, 806.3 238.9, 945.8 238.9 C1072.9 238.9, 1072.9 236.1, 1200.0 236.1 L1200 300 Z" fill="url(#hillDesertNear)" opacity="0.85"/>
<rect x="94.9" y="227.5" width="84.2" height="72.5" rx="3" fill="url(#bldg_teal)" opacity="0.7"/>
<polygon points="94.9,227.5 137.0,210.5 179.1,227.5" fill="url(#roof_navyRoof)" opacity="0.7"/>
<rect x="113.0" y="237.5" width="6" height="8" rx="1" fill="url(#windowGlow)" opacity="0.7915985929274925"/>
<rect x="127.0" y="237.5" width="6" height="8" rx="1" fill="url(#windowGlow)" opacity="0.9757018102685463"/>
<rect x="141.0" y="237.5" width="6" height="8" rx="1" fill="url(#windowGlow)" opacity="0.7114093393140516"/>
<rect x="155.0" y="237.5" width="6" height="8" rx="1" fill="url(#windowGlow)" opacity="0.7158903877324845"/>
<rect x="113.0" y="252.5" width="6" height="8" rx="1" fill="url(#windowGlow)" opacity="0.9255371376059656"/>
<rect x="127.0" y="252.5" width="6" height="8" rx="1" fill="url(#windowGlow)" opacity="0.8899264613119542"/>
<rect x="141.0" y="252.5" width="6" height="8" rx="1" fill="url(#windowGlow)" opacity="0.8376780000225073"/>
<rect x="155.0" y="252.5" width="6" height="8" rx="1" fill="url(#windowGlow)" opacity="0.8959224708359327"/>
<rect x="316.3" y="242.9" width="70.9" height="57.1" rx="3" fill="url(#bldg_amber)" opacity="0.7"/>
<rect x="316.3" y="239.9" width="70.9" height="3" rx="1" fill="url(#roof_coralRoof)" opacity="0.7"/>
<rect x="334.7" y="252.9" width="6" height="8" rx="1" fill="url(#windowGlow)" opacity="0.9378748999619273"/>
<rect x="348.7" y="252.9" width="6" height="8" rx="1" fill="url(#windowGlow)" opacity="0.8290604129568955"/>
<rect x="362.7" y="252.9" width="6" height="8" rx="1" fill="url(#windowGlow)" opacity="0.9465235717345604"/>
<rect x="557.2" y="219.4" width="69.9" height="80.6" rx="3" fill="url(#bldg_lavender)" opacity="0.7"/>
<rect x="557.2" y="216.4" width="69.9" height="3" rx="1" fill="url(#roof_tealRoof)" opacity="0.7"/>
<rect x="575.2" y="229.4" width="6" height="8" rx="1" fill="url(#windowGlow)" opacity="0.823065642138508"/>
<rect x="589.2" y="229.4" width="6" height="8" rx="1" fill="url(#windowGlow)" opacity="0.748349234577431"/>
<rect x="575.2" y="244.4" width="6" height="8" rx="1" fill="url(#windowGlow)" opacity="0.7200469093956271"/>
<rect x="575.2" y="259.4" width="6" height="8" rx="1" fill="url(#windowGlow)" opacity="0.8663900622475845"/>
<rect x="589.2" y="259.4" width="6" height="8" rx="1" fill="url(#windowGlow)" opacity="0.801678905636854"/>
<rect x="603.2" y="259.4" width="6" height="8" rx="1" fill="url(#windowGlow)" opacity="0.7223668603796357"/>
<rect x="787.0" y="246.6" width="95.8" height="53.4" rx="3" fill="url(#bldg_blue)" opacity="0.7"/>
<polygon points="787.0,246.6 834.9,214.9 882.8,246.6" fill="url(#roof_navyRoof)" opacity="0.7"/>
<rect x="824.9" y="256.6" width="6" height="8" rx="1" fill="url(#windowGlow)" opacity="0.7628392362328429"/>
<rect x="838.9" y="256.6" width="6" height="8" rx="1" fill="url(#windowGlow)" opacity="0.7773945521923687"/>
<rect x="852.9" y="256.6" width="6" height="8" rx="1" fill="url(#windowGlow)" opacity="0.7192884079270476"/>
<rect x="1016.1" y="200.6" width="63.0" height="99.4" rx="3" fill="url(#bldg_mint)" opacity="0.7"/>
<rect x="1028.7" y="188.7" width="37.8" height="11.9" rx="2" fill="url(#roof_coralRoof)" opacity="0.7"/>
<rect x="1044.6" y="210.6" width="6" height="8" rx="1" fill="url(#windowGlow)" opacity="0.7075269510073247"/>
<rect x="1030.6" y="225.6" width="6" height="8" rx="1" fill="url(#windowGlow)" opacity="0.7714700273105269"/>
<rect x="1044.6" y="225.6" width="6" height="8" rx="1" fill="url(#windowGlow)" opacity="0.8098788684280025"/>
<rect x="1058.6" y="225.6" width="6" height="8" rx="1" fill="url(#windowGlow)" opacity="0.8064380449272869"/>
<rect x="1058.6" y="240.6" width="6" height="8" rx="1" fill="url(#windowGlow)" opacity="0.7490416648560397"/>
<rect x="1044.6" y="255.6" width="6" height="8" rx="1" fill="url(#windowGlow)" opacity="0.8310791807859573"/>
<rect x="1058.6" y="255.6" width="6" height="8" rx="1" fill="url(#windowGlow)" opacity="0.8337884647463394"/>
<rect x="104.8" y="183.3" width="56.9" height="116.7" rx="3" fill="url(#bldg_rose)" opacity="0.85"/>
<rect x="116.2" y="169.3" width="34.1" height="14.0" rx="2" fill="url(#roof_tealRoof)" opacity="0.85"/>
<rect x="123.2" y="193.3" width="6" height="8" rx="1" fill="url(#windowGlow)" opacity="0.9693305089926953"/>
<rect x="137.2" y="193.3" width="6" height="8" rx="1" fill="url(#windowGlow)" opacity="0.954065790657916"/>
<rect x="123.2" y="208.3" width="6" height="8" rx="1" fill="url(#windowGlow)" opacity="0.8382467930383266"/>
<rect x="137.2" y="208.3" width="6" height="8" rx="1" fill="url(#windowGlow)" opacity="0.9231981162555507"/>
<rect x="123.2" y="223.3" width="6" height="8" rx="1" fill="url(#windowGlow)" opacity="0.9328809167877216"/>
<rect x="137.2" y="223.3" width="6" height="8" rx="1" fill="url(#windowGlow)" opacity="0.7780160615118294"/>
<rect x="137.2" y="238.3" width="6" height="8" rx="1" fill="url(#windowGlow)" opacity="0.859041706267298"/>
<rect x="137.2" y="253.3" width="6" height="8" rx="1" fill="url(#windowGlow)" opacity="0.7326566791779625"/>
<rect x="291.4" y="237.5" width="76.0" height="62.5" rx="3" fill="url(#bldg_sky)" opacity="0.85"/>
<polygon points="291.4,237.5 329.4,217.8 367.4,237.5" fill="url(#roof_navyRoof)" opacity="0.85"/>
<rect x="305.4" y="247.5" width="6" height="8" rx="1" fill="url(#windowGlow)" opacity="0.7047426403522223"/>
<rect x="319.4" y="247.5" width="6" height="8" rx="1" fill="url(#windowGlow)" opacity="0.869216184769392"/>
<rect x="333.4" y="247.5" width="6" height="8" rx="1" fill="url(#windowGlow)" opacity="0.7182806282389352"/>
<rect x="461.6" y="210.4" width="66.0" height="89.6" rx="3" fill="url(#bldg_coral)" opacity="0.85"/>
<rect x="474.8" y="199.7" width="39.6" height="10.7" rx="2" fill="url(#roof_coralRoof)" opacity="0.85"/>
<rect x="477.7" y="220.4" width="6" height="8" rx="1" fill="url(#windowGlow)" opacity="0.8857906289798163"/>
<rect x="491.7" y="220.4" width="6" height="8" rx="1" fill="url(#windowGlow)" opacity="0.8568678497601616"/>
<rect x="505.7" y="220.4" width="6" height="8" rx="1" fill="url(#windowGlow)" opacity="0.993733627998146"/>
<rect x="491.7" y="235.4" width="6" height="8" rx="1" fill="url(#windowGlow)" opacity="0.981117522195502"/>
<rect x="505.7" y="235.4" width="6" height="8" rx="1" fill="url(#windowGlow)" opacity="0.9081759613976701"/>
<rect x="477.7" y="250.4" width="6" height="8" rx="1" fill="url(#windowGlow)" opacity="0.9991572224065461"/>
<rect x="491.7" y="250.4" width="6" height="8" rx="1" fill="url(#windowGlow)" opacity="0.7944083745099643"/>
<rect x="505.7" y="250.4" width="6" height="8" rx="1" fill="url(#windowGlow)" opacity="0.9573900720371817"/>
<path d="M494.7 241.8 L521.1 241.8 L518.1 247.8 L497.7 247.8 Z" fill="url(#roof_navyRoof)" opacity="0.68"/>
<rect x="669.5" y="232.3" width="53.4" height="67.7" rx="3" fill="url(#bldg_teal)" opacity="0.85"/>
<rect x="680.2" y="224.1" width="32.0" height="8.1" rx="2" fill="url(#roof_tealRoof)" opacity="0.85"/>
<rect x="686.2" y="242.3" width="6" height="8" rx="1" fill="url(#windowGlow)" opacity="0.7118402754477412"/>
<rect x="700.2" y="242.3" width="6" height="8" rx="1" fill="url(#windowGlow)" opacity="0.9782875431600434"/>
<rect x="686.2" y="257.3" width="6" height="8" rx="1" fill="url(#windowGlow)" opacity="0.7106895815165198"/>
<rect x="700.2" y="257.3" width="6" height="8" rx="1" fill="url(#windowGlow)" opacity="0.7831650945279585"/>
<rect x="866.4" y="198.2" width="54.1" height="101.8" rx="3" fill="url(#bldg_amber)" opacity="0.85"/>
<polygon points="866.4,198.2 893.4,182.6 920.5,198.2" fill="url(#roof_navyRoof)" opacity="0.85"/>
<rect x="883.4" y="208.2" width="6" height="8" rx="1" fill="url(#windowGlow)" opacity="0.8030865145395912"/>
<rect x="897.4" y="208.2" width="6" height="8" rx="1" fill="url(#windowGlow)" opacity="0.9071062595616589"/>
<rect x="883.4" y="223.2" width="6" height="8" rx="1" fill="url(#windowGlow)" opacity="0.9706584196866761"/>
<rect x="897.4" y="238.2" width="6" height="8" rx="1" fill="url(#windowGlow)" opacity="0.8994810799134341"/>
<rect x="883.4" y="253.2" width="6" height="8" rx="1" fill="url(#windowGlow)" opacity="0.7859107401622043"/>
<rect x="1053.0" y="189.7" width="62.4" height="110.3" rx="3" fill="url(#bldg_lavender)" opacity="0.85"/>
<polygon points="1053.0,189.7 1084.1,168.9 1115.3,189.7" fill="url(#roof_coralRoof)" opacity="0.85"/>
<rect x="1067.1" y="199.7" width="6" height="8" rx="1" fill="url(#windowGlow)" opacity="0.7679773216452344"/>
<rect x="1081.1" y="199.7" width="6" height="8" rx="1" fill="url(#windowGlow)" opacity="0.8948326253308134"/>
<rect x="1067.1" y="214.7" width="6" height="8" rx="1" fill="url(#windowGlow)" opacity="0.9735266408759758"/>
<rect x="1081.1" y="214.7" width="6" height="8" rx="1" fill="url(#windowGlow)" opacity="0.9132152257083055"/>
<rect x="1095.1" y="214.7" width="6" height="8" rx="1" fill="url(#windowGlow)" opacity="0.9091542777182321"/>
<rect x="1067.1" y="229.7" width="6" height="8" rx="1" fill="url(#windowGlow)" opacity="0.9993777532127581"/>
<rect x="1081.1" y="229.7" width="6" height="8" rx="1" fill="url(#windowGlow)" opacity="0.7154877902546375"/>
<rect x="1067.1" y="244.7" width="6" height="8" rx="1" fill="url(#windowGlow)" opacity="0.7292811212266241"/>
<rect x="1081.1" y="244.7" width="6" height="8" rx="1" fill="url(#windowGlow)" opacity="0.9201535479259461"/>
<rect x="1067.1" y="259.7" width="6" height="8" rx="1" fill="url(#windowGlow)" opacity="0.7151227159030376"/>
<rect x="1081.1" y="259.7" width="6" height="8" rx="1" fill="url(#windowGlow)" opacity="0.8375419219199297"/>
<rect x="1095.1" y="259.7" width="6" height="8" rx="1" fill="url(#windowGlow)" opacity="0.7896690744858557"/>
<path d="M1084.1 228.3 L1109.1 228.3 L1106.1 234.3 L1087.1 234.3 Z" fill="url(#roof_navyRoof)" opacity="0.68"/>
<rect x="114.5" y="194.8" width="80.2" height="105.2" rx="3" fill="url(#bldg_blue)" opacity="1"/>
<polygon points="114.5,194.8 154.6,170.9 194.7,194.8" fill="url(#roof_tealRoof)" opacity="1"/>
<rect x="144.6" y="204.8" width="6" height="8" rx="1" fill="url(#windowGlow)" opacity="0.7780837287558632"/>
<rect x="158.6" y="204.8" width="6" height="8" rx="1" fill="url(#windowGlow)" opacity="0.7296968348462585"/>
<rect x="172.6" y="204.8" width="6" height="8" rx="1" fill="url(#windowGlow)" opacity="0.7522435802278311"/>
<rect x="130.6" y="219.8" width="6" height="8" rx="1" fill="url(#windowGlow)" opacity="0.9951627932000732"/>
<rect x="144.6" y="219.8" width="6" height="8" rx="1" fill="url(#windowGlow)" opacity="0.8875239150540548"/>
<rect x="158.6" y="219.8" width="6" height="8" rx="1" fill="url(#windowGlow)" opacity="0.8011751179123181"/>
<rect x="130.6" y="234.8" width="6" height="8" rx="1" fill="url(#windowGlow)" opacity="0.8831467794641604"/>
<rect x="158.6" y="234.8" width="6" height="8" rx="1" fill="url(#windowGlow)" opacity="0.8068381471125586"/>
<rect x="144.6" y="249.8" width="6" height="8" rx="1" fill="url(#windowGlow)" opacity="0.7272435615897381"/>
<rect x="172.6" y="249.8" width="6" height="8" rx="1" fill="url(#windowGlow)" opacity="0.8881015663445468"/>
<rect x="149.6" y="284.0" width="10" height="16" rx="2" fill="url(#roof_navyRoof)" opacity="0.8"/>
<rect x="151.6" y="287.0" width="6" height="10" rx="1" fill="url(#windowGlow)" opacity="0.45"/>
<rect x="354.3" y="157.8" width="81.3" height="142.2" rx="3" fill="url(#bldg_mint)" opacity="1"/>
<rect x="370.6" y="140.8" width="48.8" height="17.1" rx="2" fill="url(#roof_navyRoof)" opacity="1"/>
<rect x="385.0" y="167.8" width="6" height="8" rx="1" fill="url(#windowGlow)" opacity="0.8609361062110104"/>
<rect x="371.0" y="182.8" width="6" height="8" rx="1" fill="url(#windowGlow)" opacity="0.934481482270398"/>
<rect x="385.0" y="182.8" width="6" height="8" rx="1" fill="url(#windowGlow)" opacity="0.9006450928284996"/>
<rect x="413.0" y="182.8" width="6" height="8" rx="1" fill="url(#windowGlow)" opacity="0.7728366559710524"/>
<rect x="371.0" y="197.8" width="6" height="8" rx="1" fill="url(#windowGlow)" opacity="0.8337564112310094"/>
<rect x="385.0" y="197.8" width="6" height="8" rx="1" fill="url(#windowGlow)" opacity="0.7079987753219896"/>
<rect x="413.0" y="197.8" width="6" height="8" rx="1" fill="url(#windowGlow)" opacity="0.744118413489367"/>
<rect x="371.0" y="212.8" width="6" height="8" rx="1" fill="url(#windowGlow)" opacity="0.7872574844338267"/>
<rect x="385.0" y="212.8" width="6" height="8" rx="1" fill="url(#windowGlow)" opacity="0.8212389595905499"/>
<rect x="399.0" y="212.8" width="6" height="8" rx="1" fill="url(#windowGlow)" opacity="0.9673439800587221"/>
<rect x="413.0" y="212.8" width="6" height="8" rx="1" fill="url(#windowGlow)" opacity="0.8636442197783124"/>
<rect x="371.0" y="227.8" width="6" height="8" rx="1" fill="url(#windowGlow)" opacity="0.8614462067659228"/>
<rect x="385.0" y="227.8" width="6" height="8" rx="1" fill="url(#windowGlow)" opacity="0.7810221422375282"/>
<rect x="371.0" y="242.8" width="6" height="8" rx="1" fill="url(#windowGlow)" opacity="0.8190065676434927"/>
<rect x="385.0" y="242.8" width="6" height="8" rx="1" fill="url(#windowGlow)" opacity="0.7954894722418344"/>
<rect x="399.0" y="242.8" width="6" height="8" rx="1" fill="url(#windowGlow)" opacity="0.7816747873936196"/>
<rect x="413.0" y="242.8" width="6" height="8" rx="1" fill="url(#windowGlow)" opacity="0.8831938586585195"/>
<rect x="371.0" y="257.8" width="6" height="8" rx="1" fill="url(#windowGlow)" opacity="0.9093185401099354"/>
<rect x="385.0" y="257.8" width="6" height="8" rx="1" fill="url(#windowGlow)" opacity="0.8508264136737335"/>
<rect x="399.0" y="257.8" width="6" height="8" rx="1" fill="url(#windowGlow)" opacity="0.8208634447403547"/>
<rect x="413.0" y="257.8" width="6" height="8" rx="1" fill="url(#windowGlow)" opacity="0.7579984101271249"/>
<rect x="390.0" y="284.0" width="10" height="16" rx="2" fill="url(#roof_navyRoof)" opacity="0.8"/>
<rect x="392.0" y="287.0" width="6" height="10" rx="1" fill="url(#windowGlow)" opacity="0.45"/>
<path d="M362.5 207.6 L395.0 207.6 L392.0 213.6 L365.5 213.6 Z" fill="url(#roof_tealRoof)" opacity="0.8"/>
<rect x="380.8" y="183.8" width="28.5" height="5" rx="1" fill="#15803d" opacity="0.7"/>
<circle cx="383.8" cy="182.8" r="2.5" fill="#a78bfa" opacity="0.85"/>
<circle cx="393.3" cy="182.8" r="2.5" fill="#a78bfa" opacity="0.85"/>
<circle cx="402.8" cy="182.8" r="2.5" fill="#fb923c" opacity="0.85"/>
<rect x="582.9" y="141.0" width="75.9" height="159.0" rx="3" fill="url(#bldg_rose)" opacity="1"/>
<polygon points="582.9,141.0 620.8,116.4 658.8,141.0" fill="url(#roof_coralRoof)" opacity="1"/>
<rect x="596.8" y="151.0" width="6" height="8" rx="1" fill="url(#windowGlow)" opacity="0.7995922251136937"/>
<rect x="610.8" y="151.0" width="6" height="8" rx="1" fill="url(#windowGlow)" opacity="0.8069086232720448"/>
<rect x="638.8" y="151.0" width="6" height="8" rx="1" fill="url(#windowGlow)" opacity="0.855917137421629"/>
<rect x="596.8" y="166.0" width="6" height="8" rx="1" fill="url(#windowGlow)" opacity="0.8686440686083603"/>
<rect x="624.8" y="166.0" width="6" height="8" rx="1" fill="url(#windowGlow)" opacity="0.9064456289664122"/>
<rect x="638.8" y="166.0" width="6" height="8" rx="1" fill="url(#windowGlow)" opacity="0.904674061483086"/>
<rect x="596.8" y="181.0" width="6" height="8" rx="1" fill="url(#windowGlow)" opacity="0.9831284497320318"/>
<rect x="638.8" y="181.0" width="6" height="8" rx="1" fill="url(#windowGlow)" opacity="0.9653611513159057"/>
<rect x="596.8" y="196.0" width="6" height="8" rx="1" fill="url(#windowGlow)" opacity="0.7555993754675608"/>
<rect x="610.8" y="196.0" width="6" height="8" rx="1" fill="url(#windowGlow)" opacity="0.8561359345708675"/>
<rect x="624.8" y="196.0" width="6" height="8" rx="1" fill="url(#windowGlow)" opacity="0.7094880791425183"/>
<rect x="638.8" y="196.0" width="6" height="8" rx="1" fill="url(#windowGlow)" opacity="0.8579864738313417"/>
<rect x="596.8" y="211.0" width="6" height="8" rx="1" fill="url(#windowGlow)" opacity="0.942946262770773"/>
<rect x="610.8" y="211.0" width="6" height="8" rx="1" fill="url(#windowGlow)" opacity="0.7415303970880482"/>
<rect x="624.8" y="211.0" width="6" height="8" rx="1" fill="url(#windowGlow)" opacity="0.701730027609379"/>
<rect x="638.8" y="211.0" width="6" height="8" rx="1" fill="url(#windowGlow)" opacity="0.7122539543603797"/>
<rect x="596.8" y="226.0" width="6" height="8" rx="1" fill="url(#windowGlow)" opacity="0.7501738142455806"/>
<rect x="610.8" y="226.0" width="6" height="8" rx="1" fill="url(#windowGlow)" opacity="0.9724138729611476"/>
<rect x="638.8" y="226.0" width="6" height="8" rx="1" fill="url(#windowGlow)" opacity="0.9365792544263318"/>
<rect x="596.8" y="241.0" width="6" height="8" rx="1" fill="url(#windowGlow)" opacity="0.8802089274303098"/>
<rect x="610.8" y="241.0" width="6" height="8" rx="1" fill="url(#windowGlow)" opacity="0.831841080557481"/>
<rect x="624.8" y="241.0" width="6" height="8" rx="1" fill="url(#windowGlow)" opacity="0.8028822725652168"/>
<rect x="610.8" y="256.0" width="6" height="8" rx="1" fill="url(#windowGlow)" opacity="0.8480760019496436"/>
<rect x="624.8" y="256.0" width="6" height="8" rx="1" fill="url(#windowGlow)" opacity="0.7373801710723806"/>
<rect x="638.8" y="256.0" width="6" height="8" rx="1" fill="url(#windowGlow)" opacity="0.9778759824940357"/>
<rect x="615.8" y="284.0" width="10" height="16" rx="2" fill="url(#roof_navyRoof)" opacity="0.8"/>
<rect x="617.8" y="287.0" width="6" height="10" rx="1" fill="url(#windowGlow)" opacity="0.45"/>
<rect x="814.3" y="187.5" width="59.4" height="112.5" rx="3" fill="url(#bldg_sky)" opacity="1"/>
<polygon points="814.3,187.5 844.0,167.1 873.6,187.5" fill="url(#roof_tealRoof)" opacity="1"/>
<rect x="827.0" y="197.5" width="6" height="8" rx="1" fill="url(#windowGlow)" opacity="0.755594964211618"/>
<rect x="841.0" y="197.5" width="6" height="8" rx="1" fill="url(#windowGlow)" opacity="0.7644603995440808"/>
<rect x="855.0" y="197.5" width="6" height="8" rx="1" fill="url(#windowGlow)" opacity="0.7900162761053146"/>
<rect x="827.0" y="212.5" width="6" height="8" rx="1" fill="url(#windowGlow)" opacity="0.8783564810074662"/>
<rect x="841.0" y="212.5" width="6" height="8" rx="1" fill="url(#windowGlow)" opacity="0.7257016922001269"/>
<rect x="841.0" y="227.5" width="6" height="8" rx="1" fill="url(#windowGlow)" opacity="0.8133994177977552"/>
<rect x="855.0" y="227.5" width="6" height="8" rx="1" fill="url(#windowGlow)" opacity="0.9852118716506342"/>
<rect x="827.0" y="242.5" width="6" height="8" rx="1" fill="url(#windowGlow)" opacity="0.8168360210102219"/>
<rect x="841.0" y="242.5" width="6" height="8" rx="1" fill="url(#windowGlow)" opacity="0.9842711678632866"/>
<rect x="855.0" y="242.5" width="6" height="8" rx="1" fill="url(#windowGlow)" opacity="0.9200772730261446"/>
<rect x="827.0" y="257.5" width="6" height="8" rx="1" fill="url(#windowGlow)" opacity="0.9572161284076124"/>
<rect x="841.0" y="257.5" width="6" height="8" rx="1" fill="url(#windowGlow)" opacity="0.9854749251089407"/>
<rect x="855.0" y="257.5" width="6" height="8" rx="1" fill="url(#windowGlow)" opacity="0.8749399932450335"/>
<rect x="839.0" y="284.0" width="10" height="16" rx="2" fill="url(#roof_navyRoof)" opacity="0.8"/>
<rect x="841.0" y="287.0" width="6" height="10" rx="1" fill="url(#windowGlow)" opacity="0.45"/>
<rect x="998.7" y="150.8" width="85.3" height="149.2" rx="3" fill="url(#bldg_coral)" opacity="1"/>
<rect x="1015.7" y="132.9" width="51.2" height="17.9" rx="2" fill="url(#roof_navyRoof)" opacity="1"/>
<rect x="1017.3" y="160.8" width="6" height="8" rx="1" fill="url(#windowGlow)" opacity="0.9896442101754453"/>
<rect x="1031.3" y="160.8" width="6" height="8" rx="1" fill="url(#windowGlow)" opacity="0.7276027674915282"/>
<rect x="1017.3" y="175.8" width="6" height="8" rx="1" fill="url(#windowGlow)" opacity="0.8213739150768955"/>
<rect x="1031.3" y="175.8" width="6" height="8" rx="1" fill="url(#windowGlow)" opacity="0.8363232654222861"/>
<rect x="1045.3" y="175.8" width="6" height="8" rx="1" fill="url(#windowGlow)" opacity="0.9376067839738013"/>
<rect x="1059.3" y="175.8" width="6" height="8" rx="1" fill="url(#windowGlow)" opacity="0.7627089912363835"/>
<rect x="1031.3" y="190.8" width="6" height="8" rx="1" fill="url(#windowGlow)" opacity="0.870438471469301"/>
<rect x="1059.3" y="190.8" width="6" height="8" rx="1" fill="url(#windowGlow)" opacity="0.8860742855752233"/>
<rect x="1031.3" y="205.8" width="6" height="8" rx="1" fill="url(#windowGlow)" opacity="0.8115580332519291"/>
<rect x="1045.3" y="205.8" width="6" height="8" rx="1" fill="url(#windowGlow)" opacity="0.7512368928414009"/>
<rect x="1017.3" y="220.8" width="6" height="8" rx="1" fill="url(#windowGlow)" opacity="0.9905555502001919"/>
<rect x="1031.3" y="220.8" width="6" height="8" rx="1" fill="url(#windowGlow)" opacity="0.9920326876882615"/>
<rect x="1045.3" y="220.8" width="6" height="8" rx="1" fill="url(#windowGlow)" opacity="0.7072364163618704"/>
<rect x="1017.3" y="235.8" width="6" height="8" rx="1" fill="url(#windowGlow)" opacity="0.7919800325259473"/>
<rect x="1045.3" y="235.8" width="6" height="8" rx="1" fill="url(#windowGlow)" opacity="0.9293153866330699"/>
<rect x="1059.3" y="235.8" width="6" height="8" rx="1" fill="url(#windowGlow)" opacity="0.7481465914510873"/>
<rect x="1017.3" y="250.8" width="6" height="8" rx="1" fill="url(#windowGlow)" opacity="0.9867615965599015"/>
<rect x="1031.3" y="250.8" width="6" height="8" rx="1" fill="url(#windowGlow)" opacity="0.9922892876399165"/>
<rect x="1045.3" y="250.8" width="6" height="8" rx="1" fill="url(#windowGlow)" opacity="0.9746591012341246"/>
<rect x="1059.3" y="250.8" width="6" height="8" rx="1" fill="url(#windowGlow)" opacity="0.960657954803043"/>
<rect x="1036.3" y="284.0" width="10" height="16" rx="2" fill="url(#roof_navyRoof)" opacity="0.8"/>
<rect x="1038.3" y="287.0" width="6" height="10" rx="1" fill="url(#windowGlow)" opacity="0.45"/>
<rect x="271.5" y="240.1" width="6" height="44.9" rx="3" fill="#16a34a"/>
<rect x="263.0" y="257.1" width="8.5" height="5" rx="2.5" fill="#22c55e"/>
<rect x="263.0" y="250.6" width="5" height="8.9" rx="2.5" fill="#22c55e"/>
<rect x="277.5" y="263.4" width="13.9" height="5" rx="2.5" fill="#22c55e"/>
<rect x="288.9" y="253.8" width="5" height="12.1" rx="2.5" fill="#22c55e"/>
<rect x="506.3" y="250.1" width="6" height="34.9" rx="3" fill="#16a34a"/>
<rect x="493.1" y="266.9" width="13.2" height="5" rx="2.5" fill="#22c55e"/>
<rect x="493.1" y="260.5" width="5" height="8.9" rx="2.5" fill="#22c55e"/>
<rect x="0" y="282" width="1200" height="18" fill="url(#groundGrad)"/>
<line x1="821.1" y1="282.0" x2="821.1" y2="245.7" stroke="#92400e" stroke-width="2"/>
<circle cx="821.1" cy="245.7" r="4" fill="#fef08a" opacity="0.6"/>
<circle cx="821.1" cy="245.7" r="8" fill="#fef08a" opacity="0.15" filter="url(#softGlow)"/>
<ellipse cx="741.5" cy="282.0" rx="6.1" ry="4.3" fill="#22c55e" opacity="0.6"/>
<ellipse cx="622.7" cy="282.0" rx="6.1" ry="4.3" fill="#22c55e" opacity="0.6"/>
<ellipse cx="351.1" cy="282.0" rx="6.3" ry="4.4" fill="#22c55e" opacity="0.6"/>
</svg>