<svg xmlns="http://www.w3.org/2000/svg" viewBox="0 0 1200 300" width="1200" height="300">
<defs>
<linearGradient id="skyGrad" x1="0" y1="0" x2="0" y2="1">
<stop offset="0%" stop-color="#818cf8"/>
<stop offset="20%" stop-color="#c4b5fd"/>
<stop offset="38%" stop-color="#fda4af"/>
<stop offset="55%" stop-color="#fdba74"/>
<stop offset="75%" stop-color="#fef08a"/>
<stop offset="100%" stop-color="#fef9c3"/>
</linearGradient>
<linearGradient id="bldg_coral" x1="0" y1="0" x2="0" y2="1"><stop offset="0%" stop-color="#fecaca"/><stop offset="100%" stop-color="#fca5a5"/></linearGradient>
<linearGradient id="bldg_teal" x1="0" y1="0" x2="0" y2="1"><stop offset="0%" stop-color="#99f6e4"/><stop offset="100%" stop-color="#5eead4"/></linearGradient>
<linearGradient id="bldg_amber" x1="0" y1="0" x2="0" y2="1"><stop offset="0%" stop-color="#fde68a"/><stop offset="100%" stop-color="#fcd34d"/></linearGradient>
<linearGradient id="bldg_lavender" x1="0" y1="0" x2="0" y2="1"><stop offset="0%" stop-color="#ddd6fe"/><stop offset="100%" stop-color="#c4b5fd"/></linearGradient>
<linearGradient id="bldg_blue" x1="0" y1="0" x2="0" y2="1"><stop offset="0%" stop-color="#bfdbfe"/><stop offset="100%" stop-color="#93c5fd"/></linearGradient>
<linearGradient id="bldg_mint" x1="0" y1="0" x2="0" y2="1"><stop offset="0%" stop-color="#a7f3d0"/><stop offset="100%" stop-color="#6ee7b7"/></linearGradient>
<linearGradient id="bldg_rose" x1="0" y1="0" x2="0" y2="1"><stop offset="0%" stop-color="#fecdd3"/><stop offset="100%" stop-color="#fda4af"/></linearGradient>
<linearGradient id="bldg_sky" x1="0" y1="0" x2="0" y2="1"><stop offset="0%" stop-color="#bae6fd"/><stop offset="100%" stop-color="#7dd3fc"/></linearGradient>
<linearGradient id="roof_navyRoof" x1="0" y1="0" x2="0" y2="1"><stop offset="0%" stop-color="#4338ca"/><stop offset="100%" stop-color="#3730a3"/></linearGradient>
<linearGradient id="roof_coralRoof" x1="0" y1="0" x2="0" y2="1"><stop offset="0%" stop-color="#f87171"/><stop offset="100%" stop-color="#ef4444"/></linearGradient>
<linearGradient id="roof_tealRoof" x1="0" y1="0" x2="0" y2="1"><stop offset="0%" stop-color="#2dd4bf"/><stop offset="100%" stop-color="#14b8a6"/></linearGradient>
<radialGradient id="windowGlow" cx="50%" cy="50%" r="50%"><stop offset="0%" stop-color="#fef08a"/><stop offset="60%" stop-color="#fbbf24"/><stop offset="100%" stop-color="#f59e0b"/></radialGradient>
<linearGradient id="hillFar" x1="0" y1="0" x2="0" y2="1"><stop offset="0%" stop-color="#c4b5fd"/><stop offset="100%" stop-color="#a5b4fc"/></linearGradient>
<linearGradient id="hillMid" x1="0" y1="0" x2="0" y2="1"><stop offset="0%" stop-color="#86efac"/><stop offset="100%" stop-color="#4ade80"/></linearGradient>
<linearGradient id="hillNear" x1="0" y1="0" x2="0" y2="1"><stop offset="0%" stop-color="#34d399"/><stop offset="100%" stop-color="#10b981"/></linearGradient>
<linearGradient id="hillDesertFar" x1="0" y1="0" x2="0" y2="1"><stop offset="0%" stop-color="#fde68a"/><stop offset="100%" stop-color="#fcd34d"/></linearGradient>
<linearGradient id="hillDesertMid" x1="0" y1="0" x2="0" y2="1"><stop offset="0%" stop-color="#fcd34d"/><stop offset="100%" stop-color="#fbbf24"/></linearGradient>
<linearGradient id="hillDesertNear" x1="0" y1="0" x2="0" y2="1"><stop offset="0%" stop-color="#fbbf24"/><stop offset="100%" stop-color="#f59e0b"/></linearGradient>
<linearGradient id="groundGrad" x1="0" y1="0" x2="0" y2="1"><stop offset="0%" stop-color="#fef3c7"/><stop offset="100%" stop-color="#fde68a"/></linearGradient>
<linearGradient id="waterGrad" x1="0" y1="0" x2="0" y2="1"><stop offset="0%" stop-color="#bfdbfe"/><stop offset="100%" stop-color="#93c5fd"/></linearGradient>
<filter id="softGlow" x="-50%" y="-50%" width="200%" height="200%"><feGaussianBlur in="SourceGraphic" stdDeviation="12"/></filter>
</defs>
<rect width="1200" height="300" fill="url(#skyGrad)"/>
<circle cx="936.5" cy="59.4" r="45" fill="#fef08a" opacity="0.12" filter="url(#softGlow)"/>
<circle cx="936.5" cy="59.4" r="30" fill="#fde68a" opacity="0.18" filter="url(#softGlow)"/>
<circle cx="936.5" cy="59.4" r="16" fill="#fef9c3" opacity="0.25" filter="url(#softGlow)"/>
<ellipse cx="918.2" cy="37.3" rx="42.2" ry="14.8" fill="white" opacity="0.6"/>
<ellipse cx="891.9" cy="41.5" rx="29.5" ry="11.6" fill="white" opacity="0.5"/>
<ellipse cx="941.4" cy="40.4" rx="33.7" ry="12.6" fill="white" opacity="0.5"/>
<ellipse cx="1032.1" cy="42.4" rx="42.8" ry="15.0" fill="white" opacity="0.7"/>
<ellipse cx="1005.4" cy="46.7" rx="30.0" ry="11.8" fill="white" opacity="0.6"/>
<ellipse cx="1055.7" cy="45.6" rx="34.2" ry="12.8" fill="white" opacity="0.6"/>
<ellipse cx="335.8" cy="30.1" rx="28.7" ry="10.0" fill="white" opacity="0.6"/>
<ellipse cx="317.8" cy="32.9" rx="20.1" ry="7.9" fill="white" opacity="0.6"/>
<ellipse cx="351.5" cy="32.2" rx="22.9" ry="8.6" fill="white" opacity="0.5"/>
<path d="M0 300 L0.0 187.8 C103.9 187.8, 103.9 187.0, 207.8 187.0 C366.0 187.0, 366.0 189.6, 524.3 189.6 C609.0 189.6, 609.0 193.5, 693.8 193.5 C810.5 193.5, 810.5 183.9, 927.1 183.9 C1063.6 183.9, 1063.6 188.7, 1200.0 188.7 L1200 300 Z" fill="url(#hillFar)" opacity="0.5"/>
<path d="M0 300 L0.0 215.1 C121.2 215.1, 121.2 206.1, 242.4 206.1 C436.7 206.1, 436.7 204.1, 630.9 204.1 C767.3 204.1, 767.3 212.6, 903.8 212.6 C1051.9 212.6, 1051.9 213.3, 1200.0 213.3 L1200 300 Z" fill="url(#hillMid)" opacity="0.7"/>
<path d="M0 300 L0.0 236.5 C115.0 236.5, 115.0 230.7, 229.9 230.7 C366.0 230.7, 366.0 234.5, 502.1 234.5 C634.7 234.5, 634.7 232.4, 767.3 232.4 C853.2 232.4, 853.2 233.4, 939.1 233.4 C1069.5 233.4, 1069.5 237.8, 1200.0 237.8 L1200 300 Z" fill="url(#hillNear)" opacity="1"/>
<rect x="186.5" y="220.6" width="79.3" height="79.4" rx="3" fill="url(#bldg_rose)" opacity="0.7"/>
<rect x="202.3" y="211.1" width="47.6" height="9.5" rx="2" fill="url(#roof_coralRoof)" opacity="0.7"/>
<rect x="202.1" y="230.6" width="6" height="8" rx="1" fill="url(#windowGlow)" opacity="0.9560768344235033"/>
<rect x="216.1" y="230.6" width="6" height="8" rx="1" fill="url(#windowGlow)" opacity="0.964383903129205"/>
<rect x="230.1" y="230.6" width="6" height="8" rx="1" fill="url(#windowGlow)" opacity="0.7679719073548782"/>
<rect x="244.1" y="230.6" width="6" height="8" rx="1" fill="url(#windowGlow)" opacity="0.9513367673155557"/>
<rect x="202.1" y="245.6" width="6" height="8" rx="1" fill="url(#windowGlow)" opacity="0.8203204471712561"/>
<rect x="216.1" y="245.6" width="6" height="8" rx="1" fill="url(#windowGlow)" opacity="0.7552874545358528"/>
<rect x="230.1" y="245.6" width="6" height="8" rx="1" fill="url(#windowGlow)" opacity="0.9108436966831068"/>
<rect x="202.1" y="260.6" width="6" height="8" rx="1" fill="url(#windowGlow)" opacity="0.9724059990013045"/>
<rect x="216.1" y="260.6" width="6" height="8" rx="1" fill="url(#windowGlow)" opacity="0.8888921805605721"/>
<rect x="230.1" y="260.6" width="6" height="8" rx="1" fill="url(#windowGlow)" opacity="0.9906625111078202"/>
<rect x="605.2" y="198.9" width="61.6" height="101.1" rx="3" fill="url(#bldg_sky)" opacity="0.7"/>
<rect x="605.2" y="195.9" width="61.6" height="3" rx="1" fill="url(#roof_tealRoof)" opacity="0.7"/>
<rect x="619.0" y="208.9" width="6" height="8" rx="1" fill="url(#windowGlow)" opacity="0.8888307051681125"/>
<rect x="633.0" y="208.9" width="6" height="8" rx="1" fill="url(#windowGlow)" opacity="0.7401683990099319"/>
<rect x="647.0" y="208.9" width="6" height="8" rx="1" fill="url(#windowGlow)" opacity="0.7124748035392141"/>
<rect x="619.0" y="223.9" width="6" height="8" rx="1" fill="url(#windowGlow)" opacity="0.7995817142071117"/>
<rect x="633.0" y="223.9" width="6" height="8" rx="1" fill="url(#windowGlow)" opacity="0.7761340958420812"/>
<rect x="619.0" y="238.9" width="6" height="8" rx="1" fill="url(#windowGlow)" opacity="0.9031764700557927"/>
<rect x="619.0" y="253.9" width="6" height="8" rx="1" fill="url(#windowGlow)" opacity="0.7583226506404218"/>
<rect x="633.0" y="253.9" width="6" height="8" rx="1" fill="url(#windowGlow)" opacity="0.761367178317796"/>
<rect x="900.2" y="234.1" width="84.2" height="65.9" rx="3" fill="url(#bldg_coral)" opacity="0.7"/>
<polygon points="900.2,234.1 942.2,211.9 984.3,234.1" fill="url(#roof_navyRoof)" opacity="0.7"/>
<rect x="918.2" y="244.1" width="6" height="8" rx="1" fill="url(#windowGlow)" opacity="0.7521897027512032"/>
<rect x="932.2" y="244.1" width="6" height="8" rx="1" fill="url(#windowGlow)" opacity="0.862496498768449"/>
<rect x="946.2" y="244.1" width="6" height="8" rx="1" fill="url(#windowGlow)" opacity="0.8264196210198196"/>
<rect x="960.2" y="244.1" width="6" height="8" rx="1" fill="url(#windowGlow)" opacity="0.711109584854501"/>
<rect x="946.2" y="259.1" width="6" height="8" rx="1" fill="url(#windowGlow)" opacity="0.9382820429458665"/>
<rect x="960.2" y="259.1" width="6" height="8" rx="1" fill="url(#windowGlow)" opacity="0.8011325289034901"/>
<rect x="211.6" y="166.5" width="65.1" height="133.5" rx="3" fill="url(#bldg_teal)" opacity="0.85"/>
<rect x="211.6" y="163.5" width="65.1" height="3" rx="1" fill="url(#roof_coralRoof)" opacity="0.85"/>
<rect x="227.1" y="176.5" width="6" height="8" rx="1" fill="url(#windowGlow)" opacity="0.9415036233800945"/>
<rect x="241.1" y="176.5" width="6" height="8" rx="1" fill="url(#windowGlow)" opacity="0.739944122051794"/>
<rect x="227.1" y="191.5" width="6" height="8" rx="1" fill="url(#windowGlow)" opacity="0.9672200129680428"/>
<rect x="241.1" y="191.5" width="6" height="8" rx="1" fill="url(#windowGlow)" opacity="0.7407210583988209"/>
<rect x="255.1" y="191.5" width="6" height="8" rx="1" fill="url(#windowGlow)" opacity="0.8674694894661519"/>
<rect x="227.1" y="206.5" width="6" height="8" rx="1" fill="url(#windowGlow)" opacity="0.844589328181273"/>
<rect x="241.1" y="206.5" width="6" height="8" rx="1" fill="url(#windowGlow)" opacity="0.7666372578901411"/>
<rect x="255.1" y="206.5" width="6" height="8" rx="1" fill="url(#windowGlow)" opacity="0.9533228837201944"/>
<rect x="227.1" y="221.5" width="6" height="8" rx="1" fill="url(#windowGlow)" opacity="0.7018109017991511"/>
<rect x="255.1" y="221.5" width="6" height="8" rx="1" fill="url(#windowGlow)" opacity="0.7428267627688249"/>
<rect x="241.1" y="236.5" width="6" height="8" rx="1" fill="url(#windowGlow)" opacity="0.8375180769420778"/>
<rect x="241.1" y="251.5" width="6" height="8" rx="1" fill="url(#windowGlow)" opacity="0.9740628408612975"/>
<rect x="255.1" y="251.5" width="6" height="8" rx="1" fill="url(#windowGlow)" opacity="0.8832207356501467"/>
<rect x="559.4" y="234.9" width="52.1" height="65.1" rx="3" fill="url(#bldg_amber)" opacity="0.85"/>
<polygon points="559.4,234.9 585.5,223.7 611.5,234.9" fill="url(#roof_tealRoof)" opacity="0.85"/>
<rect x="575.5" y="244.9" width="6" height="8" rx="1" fill="url(#windowGlow)" opacity="0.7433825754296884"/>
<rect x="575.5" y="259.9" width="6" height="8" rx="1" fill="url(#windowGlow)" opacity="0.7080644279755951"/>
<rect x="589.5" y="259.9" width="6" height="8" rx="1" fill="url(#windowGlow)" opacity="0.9931235652850584"/>
<rect x="917.6" y="193.8" width="42.9" height="106.2" rx="3" fill="url(#bldg_lavender)" opacity="0.85"/>
<polygon points="917.6,193.8 939.0,183.5 960.5,193.8" fill="url(#roof_navyRoof)" opacity="0.85"/>
<rect x="936.0" y="203.8" width="6" height="8" rx="1" fill="url(#windowGlow)" opacity="0.9194526527633203"/>
<rect x="936.0" y="218.8" width="6" height="8" rx="1" fill="url(#windowGlow)" opacity="0.825803958916014"/>
<rect x="936.0" y="233.8" width="6" height="8" rx="1" fill="url(#windowGlow)" opacity="0.8070620695161922"/>
<rect x="936.0" y="248.8" width="6" height="8" rx="1" fill="url(#windowGlow)" opacity="0.9858307765730799"/>
<path d="M939.0 230.9 L956.2 230.9 L953.2 236.9 L942.0 236.9 Z" fill="url(#roof_tealRoof)" opacity="0.68"/>
<rect x="222.0" y="171.2" width="39.4" height="128.8" rx="3" fill="url(#bldg_blue)" opacity="1"/>
<polygon points="222.0,171.2 241.7,159.1 261.4,171.2" fill="url(#roof_coralRoof)" opacity="1"/>
<rect x="238.7" y="181.2" width="6" height="8" rx="1" fill="url(#windowGlow)" opacity="0.9009899458386887"/>
<rect x="238.7" y="196.2" width="6" height="8" rx="1" fill="url(#windowGlow)" opacity="0.939023047470964"/>
<rect x="238.7" y="211.2" width="6" height="8" rx="1" fill="url(#windowGlow)" opacity="0.8152440246265586"/>
<rect x="238.7" y="226.2" width="6" height="8" rx="1" fill="url(#windowGlow)" opacity="0.7230152028254304"/>
<rect x="238.7" y="241.2" width="6" height="8" rx="1" fill="url(#windowGlow)" opacity="0.7381831051493916"/>
<rect x="238.7" y="256.2" width="6" height="8" rx="1" fill="url(#windowGlow)" opacity="0.8692459174754311"/>
<rect x="236.7" y="284.0" width="10" height="16" rx="2" fill="url(#roof_navyRoof)" opacity="0.8"/>
<rect x="238.7" y="287.0" width="6" height="10" rx="1" fill="url(#windowGlow)" opacity="0.45"/>
<rect x="234.8" y="212.2" width="13.8" height="5" rx="1" fill="#15803d" opacity="0.7"/>
<circle cx="237.8" cy="211.2" r="2.5" fill="#fb923c" opacity="0.85"/>
<circle cx="242.4" cy="211.2" r="2.5" fill="#f87171" opacity="0.85"/>
<circle cx="247.0" cy="211.2" r="2.5" fill="#fbbf24" opacity="0.85"/>
<rect x="605.6" y="176.4" width="59.8" height="123.6" rx="3" fill="url(#bldg_mint)" opacity="1"/>
<polygon points="605.6,176.4 635.5,163.3 665.4,176.4" fill="url(#roof_tealRoof)" opacity="1"/>
<rect x="618.5" y="186.4" width="6" height="8" rx="1" fill="url(#windowGlow)" opacity="0.9292160053407847"/>
<rect x="632.5" y="186.4" width="6" height="8" rx="1" fill="url(#windowGlow)" opacity="0.7074465910473123"/>
<rect x="646.5" y="186.4" width="6" height="8" rx="1" fill="url(#windowGlow)" opacity="0.7433464133848187"/>
<rect x="618.5" y="201.4" width="6" height="8" rx="1" fill="url(#windowGlow)" opacity="0.834408637990434"/>
<rect x="632.5" y="201.4" width="6" height="8" rx="1" fill="url(#windowGlow)" opacity="0.794142580029621"/>
<rect x="646.5" y="201.4" width="6" height="8" rx="1" fill="url(#windowGlow)" opacity="0.7801403394807783"/>
<rect x="618.5" y="216.4" width="6" height="8" rx="1" fill="url(#windowGlow)" opacity="0.7627287631680857"/>
<rect x="632.5" y="216.4" width="6" height="8" rx="1" fill="url(#windowGlow)" opacity="0.9181666953108117"/>
<rect x="618.5" y="231.4" width="6" height="8" rx="1" fill="url(#windowGlow)" opacity="0.8684842233399321"/>
<rect x="618.5" y="246.4" width="6" height="8" rx="1" fill="url(#windowGlow)" opacity="0.7989446538029912"/>
<rect x="632.5" y="246.4" width="6" height="8" rx="1" fill="url(#windowGlow)" opacity="0.842549256767402"/>
<rect x="630.5" y="284.0" width="10" height="16" rx="2" fill="url(#roof_navyRoof)" opacity="0.8"/>
<rect x="632.5" y="287.0" width="6" height="10" rx="1" fill="url(#windowGlow)" opacity="0.45"/>
<rect x="991.1" y="167.9" width="45.9" height="132.1" rx="3" fill="url(#bldg_rose)" opacity="1"/>
<polygon points="991.1,167.9 1014.0,154.0 1037.0,167.9" fill="url(#roof_navyRoof)" opacity="1"/>
<rect x="1004.0" y="177.9" width="6" height="8" rx="1" fill="url(#windowGlow)" opacity="0.9146532540743486"/>
<rect x="1004.0" y="192.9" width="6" height="8" rx="1" fill="url(#windowGlow)" opacity="0.860484027564751"/>
<rect x="1018.0" y="192.9" width="6" height="8" rx="1" fill="url(#windowGlow)" opacity="0.8136390484467331"/>
<rect x="1004.0" y="207.9" width="6" height="8" rx="1" fill="url(#windowGlow)" opacity="0.7263996729750184"/>
<rect x="1018.0" y="207.9" width="6" height="8" rx="1" fill="url(#windowGlow)" opacity="0.9753254628159689"/>
<rect x="1004.0" y="222.9" width="6" height="8" rx="1" fill="url(#windowGlow)" opacity="0.7453995458993127"/>
<rect x="1004.0" y="237.9" width="6" height="8" rx="1" fill="url(#windowGlow)" opacity="0.9302130869264775"/>
<rect x="1018.0" y="237.9" width="6" height="8" rx="1" fill="url(#windowGlow)" opacity="0.9864649681311403"/>
<rect x="1004.0" y="252.9" width="6" height="8" rx="1" fill="url(#windowGlow)" opacity="0.8428559806397444"/>
<rect x="1018.0" y="252.9" width="6" height="8" rx="1" fill="url(#windowGlow)" opacity="0.8765359866789244"/>
<rect x="1009.0" y="284.0" width="10" height="16" rx="2" fill="url(#roof_navyRoof)" opacity="0.8"/>
<rect x="1011.0" y="287.0" width="6" height="10" rx="1" fill="url(#windowGlow)" opacity="0.45"/>
<path d="M995.7 214.1 L1014.0 214.1 L1011.0 220.1 L998.7 220.1 Z" fill="url(#roof_tealRoof)" opacity="0.8"/>
<rect x="430.5" y="267.9" width="6" height="17.1" rx="2" fill="#15803d"/>
<circle cx="433.5" cy="254.8" r="17.1" fill="#22c55e" opacity="0.9"/>
<circle cx="426.8" cy="257.8" r="12.8" fill="#16a34a" opacity="0.8"/>
<circle cx="439.2" cy="258.8" r="12.0" fill="#15803d" opacity="0.7"/>
<rect x="825.3" y="267.7" width="6" height="17.3" rx="2" fill="#15803d"/>
<circle cx="828.3" cy="258.6" r="13.1" fill="#22c55e" opacity="0.9"/>
<circle cx="822.2" cy="261.6" r="9.8" fill="#16a34a" opacity="0.8"/>
<circle cx="835.3" cy="262.6" r="9.2" fill="#15803d" opacity="0.7"/>
<rect x="185.1" y="266.2" width="6" height="18.8" rx="2" fill="#15803d"/>
<circle cx="188.1" cy="252.9" r="17.3" fill="#22c55e" opacity="0.9"/>
<circle cx="182.1" cy="255.9" r="13.0" fill="#16a34a" opacity="0.8"/>
<circle cx="195.7" cy="256.9" r="12.1" fill="#15803d" opacity="0.7"/>
<rect x="1070.0" y="268.6" width="6" height="16.4" rx="2" fill="#15803d"/>
<circle cx="1073.0" cy="258.2" r="14.4" fill="#22c55e" opacity="0.9"/>
<circle cx="1066.4" cy="261.2" r="10.8" fill="#16a34a" opacity="0.8"/>
<circle cx="1079.7" cy="262.2" r="10.0" fill="#15803d" opacity="0.7"/>
<rect x="193.2" y="268.1" width="6" height="16.9" rx="2" fill="#15803d"/>
<circle cx="196.2" cy="254.5" r="17.6" fill="#22c55e" opacity="0.9"/>
<circle cx="189.5" cy="257.5" r="13.2" fill="#16a34a" opacity="0.8"/>
<circle cx="204.0" cy="258.5" r="12.3" fill="#15803d" opacity="0.7"/>
<rect x="130.3" y="263.8" width="6" height="21.2" rx="2" fill="#15803d"/>
<circle cx="133.3" cy="251.7" r="16.1" fill="#22c55e" opacity="0.9"/>
<circle cx="125.2" cy="254.7" r="12.1" fill="#16a34a" opacity="0.8"/>
<circle cx="139.9" cy="255.7" r="11.3" fill="#15803d" opacity="0.7"/>
<rect x="489.2" y="263.7" width="6" height="21.3" rx="2" fill="#15803d"/>
<circle cx="492.2" cy="251.2" r="16.5" fill="#22c55e" opacity="0.9"/>
<circle cx="486.1" cy="254.2" r="12.4" fill="#16a34a" opacity="0.8"/>
<circle cx="498.3" cy="255.2" r="11.5" fill="#15803d" opacity="0.7"/>
<rect x="174.7" y="264.5" width="6" height="20.5" rx="2" fill="#15803d"/>
<circle cx="177.7" cy="251.0" r="17.5" fill="#22c55e" opacity="0.9"/>
<circle cx="170.5" cy="254.0" r="13.1" fill="#16a34a" opacity="0.8"/>
<circle cx="184.4" cy="255.0" r="12.2" fill="#15803d" opacity="0.7"/>
<rect x="748.7" y="264.6" width="6" height="20.4" rx="2" fill="#15803d"/>
<circle cx="751.7" cy="254.9" r="13.7" fill="#22c55e" opacity="0.9"/>
<circle cx="743.6" cy="257.9" r="10.3" fill="#16a34a" opacity="0.8"/>
<circle cx="758.6" cy="258.9" r="9.6" fill="#15803d" opacity="0.7"/>
<rect x="0" y="282" width="1200" height="18" fill="url(#groundGrad)"/>
<line x1="615.2" y1="282.0" x2="615.2" y2="246.4" stroke="#92400e" stroke-width="2"/>
<circle cx="615.2" cy="246.4" r="4" fill="#fef08a" opacity="0.6"/>
<circle cx="615.2" cy="246.4" r="8" fill="#fef08a" opacity="0.15" filter="url(#softGlow)"/>
<line x1="691.8" y1="282.0" x2="691.8" y2="244.5" stroke="#92400e" stroke-width="2"/>
<circle cx="691.8" cy="244.5" r="4" fill="#fef08a" opacity="0.6"/>
<circle cx="691.8" cy="244.5" r="8" fill="#fef08a" opacity="0.15" filter="url(#softGlow)"/>
<ellipse cx="462.0" cy="282.0" rx="6.6" ry="4.6" fill="#22c55e" opacity="0.6"/>
<ellipse cx="905.5" cy="282.0" rx="5.0" ry="3.5" fill="#22c55e" opacity="0.6"/>
</svg>