<svg xmlns="http://www.w3.org/2000/svg" viewBox="0 0 1200 400" width="1200" height="400">
<defs>
<linearGradient id="bg" x1="0" y1="0" x2="0" y2="1"><stop offset="0%" stop-color="#94a3b8"/><stop offset="100%" stop-color="#0369a1"/></linearGradient>
<linearGradient id="warm" x1="0" y1="0" x2="1" y2="1"><stop offset="0%" stop-color="#858d98" stop-opacity="0.18"/><stop offset="100%" stop-color="#858d98" stop-opacity="0.06"/></linearGradient>
</defs>
<rect width="1200" height="400" fill="url(#bg)"/>
<path d="M0 400 L0 230.80691301844888 C60.0 239.5, 90.0 259.6, 150.0 257.3 C210.0 251.8, 240.0 239.7, 300.0 243.0 C360.0 249.2, 390.0 242.5, 450.0 251.9 C510.0 260.8, 540.0 240.7, 600.0 241.0 C660.0 235.6, 690.0 239.3, 750.0 240.1 C810.0 247.4, 840.0 239.0, 900.0 243.0 C960.0 238.7, 990.0 247.3, 1050.0 256.3 C1110.0 250.8, 1140.0 249.4, 1200.0 246.3 L1200 400 Z" fill="#367da9" opacity="0.45"/>
<path d="M0 400 L0 273.41243845880166 C52.5 273.7, 97.5 277.6, 150.0 272.0 C202.5 266.4, 247.5 259.6, 300.0 260.8 C352.5 266.6, 397.5 262.9, 450.0 260.1 C502.5 259.0, 547.5 281.6, 600.0 275.7 C652.5 278.4, 697.5 272.3, 750.0 274.9 C802.5 275.7, 847.5 276.1, 900.0 279.6 C952.5 275.6, 997.5 274.3, 1050.0 270.4 C1102.5 270.3, 1147.5 262.4, 1200.0 262.8 L1200 400 Z" fill="#0369a1" opacity="0.3"/>
<rect x="958.0" y="278.0" width="26.0" height="122.0" rx="7.4" fill="#05916f" opacity="0.58"/>
<rect x="963.0" y="288.0" width="4" height="5" rx="0.5" fill="#94a3b8" opacity="0.6"/>
<rect x="963.0" y="310.0" width="4" height="5" rx="0.5" fill="#94a3b8" opacity="0.6"/>
<rect x="247.1" y="363.9" width="13.0" height="36.1" rx="5.7" fill="#05936d" opacity="0.73"/>
<rect x="965.5" y="306.1" width="34.6" height="93.9" rx="5.8" fill="#058f72" opacity="0.83"/>
<rect x="970.5" y="316.1" width="4" height="5" rx="0.5" fill="#94a3b8" opacity="0.6"/>
<rect x="982.0" y="316.1" width="4" height="5" rx="0.5" fill="#94a3b8" opacity="0.6"/>
<rect x="970.5" y="338.1" width="4" height="5" rx="0.5" fill="#94a3b8" opacity="0.6"/>
<rect x="982.0" y="338.1" width="4" height="5" rx="0.5" fill="#94a3b8" opacity="0.6"/>
<rect x="970.5" y="360.1" width="4" height="5" rx="0.5" fill="#94a3b8" opacity="0.6"/>
<rect x="982.0" y="360.1" width="4" height="5" rx="0.5" fill="#94a3b8" opacity="0.6"/>
<rect x="337.5" y="316.1" width="45.5" height="83.9" rx="7.7" fill="#047f85" opacity="0.70"/>
<rect x="413.9" y="352.1" width="29.0" height="47.9" rx="6.5" fill="#05926e" opacity="0.67"/>
<rect x="724.5" y="323.4" width="46.5" height="76.6" rx="8.0" fill="#047c8a" opacity="0.57"/>
<rect x="724.3" y="319.1" width="40.0" height="80.9" rx="7.5" fill="#05926d" opacity="0.67"/>
<rect x="422.1" y="336.5" width="45.4" height="63.5" rx="4.3" fill="#05926e" opacity="0.75"/>
<rect x="225.1" y="352.1" width="37.7" height="47.9" rx="4.7" fill="#059170" opacity="0.79"/>
<rect x="471.9" y="356.1" width="19.8" height="43.9" rx="5.1" fill="#048979" opacity="0.56"/>
<rect x="843.6" y="314.4" width="38.2" height="85.6" rx="5.1" fill="#059070" opacity="0.51"/>
<rect x="882.5" y="342.1" width="19.5" height="57.9" rx="5.6" fill="#058d74" opacity="0.81"/>
<rect x="312.5" y="286.6" width="50.0" height="113.4" rx="3.7" fill="#05936d" opacity="0.74"/>
<rect x="317.5" y="296.6" width="4" height="5" rx="0.5" fill="#94a3b8" opacity="0.6"/>
<rect x="317.5" y="318.6" width="4" height="5" rx="0.5" fill="#94a3b8" opacity="0.6"/>
<rect x="334.2" y="318.6" width="4" height="5" rx="0.5" fill="#94a3b8" opacity="0.6"/>
<rect x="317.5" y="340.6" width="4" height="5" rx="0.5" fill="#94a3b8" opacity="0.6"/>
<rect x="334.2" y="340.6" width="4" height="5" rx="0.5" fill="#94a3b8" opacity="0.6"/>
<circle cx="893.1" cy="202.7" r="6.4" fill="#059669" opacity="0.15"/>
<circle cx="586.0" cy="34.3" r="4.8" fill="#059669" opacity="0.45"/>
<rect width="1200" height="400" fill="url(#warm)"/>
<rect width="1200" height="400" fill="#94a3b8" opacity="0.40"/>
</svg>