<svg xmlns="http://www.w3.org/2000/svg" viewBox="0 0 1200 400" width="1200" height="400">
<defs>
<linearGradient id="bg" x1="0" y1="0" x2="0" y2="1"><stop offset="0%" stop-color="#94a3b8"/><stop offset="100%" stop-color="#0369a1"/></linearGradient>
<linearGradient id="warm" x1="0" y1="0" x2="1" y2="1"><stop offset="0%" stop-color="#c99743" stop-opacity="0.18"/><stop offset="100%" stop-color="#c99743" stop-opacity="0.06"/></linearGradient>
</defs>
<rect width="1200" height="400" fill="url(#bg)"/>
<path d="M0 400 L0 245.08898238095753 C60.0 248.2, 90.0 240.5, 150.0 243.1 C210.0 249.2, 240.0 233.6, 300.0 241.4 C360.0 232.4, 390.0 222.3, 450.0 227.2 C510.0 219.3, 540.0 248.5, 600.0 255.8 C660.0 265.5, 690.0 249.0, 750.0 242.4 C810.0 237.7, 840.0 257.9, 900.0 248.9 C960.0 240.2, 990.0 237.1, 1050.0 238.9 C1110.0 236.1, 1140.0 249.9, 1200.0 250.4 L1200 400 Z" fill="#367da9" opacity="0.45"/>
<path d="M0 400 L0 273.3031354105475 C52.5 278.0, 97.5 253.7, 150.0 258.6 C202.5 259.7, 247.5 262.7, 300.0 269.3 C352.5 270.1, 397.5 286.1, 450.0 282.5 C502.5 276.0, 547.5 264.2, 600.0 270.9 C652.5 269.1, 697.5 274.0, 750.0 267.6 C802.5 272.0, 847.5 266.8, 900.0 267.0 C952.5 272.2, 997.5 285.8, 1050.0 278.7 C1102.5 286.0, 1147.5 274.7, 1200.0 267.7 L1200 400 Z" fill="#0369a1" opacity="0.3"/>
<rect x="872.8" y="299.0" width="23.1" height="101.0" rx="4.4" fill="#04847f" opacity="0.78"/>
<rect x="170.9" y="334.7" width="34.9" height="65.3" rx="7.3" fill="#059071" opacity="0.66"/>
<rect x="352.6" y="297.0" width="41.7" height="103.0" rx="7.8" fill="#05916f" opacity="0.54"/>
<rect x="647.6" y="369.5" width="48.6" height="30.5" rx="7.4" fill="#05936c" opacity="0.58"/>
<rect x="186.0" y="331.7" width="43.8" height="68.3" rx="7.8" fill="#04847f" opacity="0.54"/>
<rect x="389.7" y="308.3" width="13.1" height="91.7" rx="5.9" fill="#05916f" opacity="0.61"/>
<rect x="644.9" y="315.4" width="27.6" height="84.6" rx="4.8" fill="#05926d" opacity="0.62"/>
<rect x="933.9" y="361.4" width="33.4" height="38.6" rx="6.5" fill="#048381" opacity="0.78"/>
<rect x="178.0" y="360.3" width="12.6" height="39.7" rx="7.5" fill="#05936c" opacity="0.81"/>
<rect x="384.2" y="343.4" width="35.1" height="56.6" rx="6.2" fill="#047e87" opacity="0.61"/>
<rect x="388.3" y="368.1" width="31.8" height="31.9" rx="6.6" fill="#047e86" opacity="0.67"/>
<rect x="330.5" y="347.0" width="28.3" height="53.0" rx="3.5" fill="#05956a" opacity="0.64"/>
<rect x="600.5" y="337.2" width="42.3" height="62.8" rx="6.5" fill="#04887b" opacity="0.58"/>
<circle cx="1044.3" cy="116.1" r="7.0" fill="#059669" opacity="0.25"/>
<circle cx="841.7" cy="20.4" r="3.7" fill="#94a3b8" opacity="0.41"/>
<circle cx="582.0" cy="19.0" r="5.2" fill="#059669" opacity="0.20"/>
<circle cx="47.4" cy="5.1" r="9.2" fill="#059669" opacity="0.24"/>
<circle cx="908.0" cy="9.8" r="4.6" fill="#94a3b8" opacity="0.42"/>
<circle cx="581.7" cy="30.6" r="8.9" fill="#94a3b8" opacity="0.33"/>
<circle cx="277.9" cy="99.2" r="7.9" fill="#94a3b8" opacity="0.30"/>
<circle cx="693.2" cy="12.6" r="8.6" fill="#059669" opacity="0.43"/>
<circle cx="941.6" cy="137.9" r="6.3" fill="#059669" opacity="0.43"/>
<circle cx="97.0" cy="105.6" r="9.5" fill="#94a3b8" opacity="0.20"/>
<circle cx="837.9" cy="181.6" r="9.1" fill="#059669" opacity="0.32"/>
<circle cx="246.8" cy="46.8" r="4.3" fill="#059669" opacity="0.25"/>
<rect width="1200" height="400" fill="url(#warm)"/>
<rect width="1200" height="400" fill="#94a3b8" opacity="0.45"/>
</svg>