<svg xmlns="http://www.w3.org/2000/svg" viewBox="0 0 1200 300" width="1200" height="300">
<rect width="1200" height="300" fill="#e8edf2"/>
<path d="M0 300 L0 210.0 C261.1 175.9, 814.2 198.6, 1200 210.0 L1200 300 Z" fill="#b1bdcc" opacity="0.3"/>
<rect x="168.4" y="232.7" width="75.0" height="67.3" fill="#94a4b9"/>
<rect x="448.3" y="207.9" width="46.7" height="92.1" fill="#94a4b9"/>
<rect x="699.6" y="225.8" width="85.0" height="74.2" fill="#94a4b9"/>
<rect x="1016.7" y="240.4" width="60.9" height="59.6" fill="#94a4b9"/>
<rect x="138.3" y="152.5" width="64.3" height="147.5" fill="#647b99"/>
<rect x="153.4" y="164.5" width="6" height="8" fill="#9aa9bd" opacity="0.5"/>
<rect x="167.4" y="164.5" width="6" height="8" fill="#9aa9bd" opacity="0.5"/>
<rect x="153.4" y="180.5" width="6" height="8" fill="#9aa9bd" opacity="0.5"/>
<rect x="167.4" y="180.5" width="6" height="8" fill="#9aa9bd" opacity="0.5"/>
<rect x="181.4" y="180.5" width="6" height="8" fill="#9aa9bd" opacity="0.5"/>
<rect x="153.4" y="196.5" width="6" height="8" fill="#9aa9bd" opacity="0.5"/>
<rect x="167.4" y="196.5" width="6" height="8" fill="#9aa9bd" opacity="0.5"/>
<rect x="153.4" y="212.5" width="6" height="8" fill="#9aa9bd" opacity="0.5"/>
<rect x="167.4" y="212.5" width="6" height="8" fill="#9aa9bd" opacity="0.5"/>
<rect x="181.4" y="212.5" width="6" height="8" fill="#9aa9bd" opacity="0.5"/>
<rect x="153.4" y="228.5" width="6" height="8" fill="#9aa9bd" opacity="0.5"/>
<rect x="167.4" y="228.5" width="6" height="8" fill="#9aa9bd" opacity="0.5"/>
<rect x="181.4" y="228.5" width="6" height="8" fill="#9aa9bd" opacity="0.5"/>
<rect x="153.4" y="244.5" width="6" height="8" fill="#9aa9bd" opacity="0.5"/>
<rect x="167.4" y="244.5" width="6" height="8" fill="#9aa9bd" opacity="0.5"/>
<rect x="181.4" y="244.5" width="6" height="8" fill="#9aa9bd" opacity="0.5"/>
<rect x="153.4" y="260.5" width="6" height="8" fill="#9aa9bd" opacity="0.5"/>
<rect x="181.4" y="260.5" width="6" height="8" fill="#9aa9bd" opacity="0.5"/>
<rect x="374.8" y="138.4" width="60.0" height="161.6" fill="#647b99"/>
<rect x="387.8" y="150.4" width="6" height="8" fill="#9aa9bd" opacity="0.5"/>
<rect x="401.8" y="150.4" width="6" height="8" fill="#9aa9bd" opacity="0.5"/>
<rect x="387.8" y="166.4" width="6" height="8" fill="#9aa9bd" opacity="0.5"/>
<rect x="387.8" y="182.4" width="6" height="8" fill="#9aa9bd" opacity="0.5"/>
<rect x="415.8" y="182.4" width="6" height="8" fill="#9aa9bd" opacity="0.5"/>
<rect x="387.8" y="198.4" width="6" height="8" fill="#9aa9bd" opacity="0.5"/>
<rect x="401.8" y="198.4" width="6" height="8" fill="#9aa9bd" opacity="0.5"/>
<rect x="415.8" y="198.4" width="6" height="8" fill="#9aa9bd" opacity="0.5"/>
<rect x="387.8" y="214.4" width="6" height="8" fill="#9aa9bd" opacity="0.5"/>
<rect x="401.8" y="214.4" width="6" height="8" fill="#9aa9bd" opacity="0.5"/>
<rect x="415.8" y="214.4" width="6" height="8" fill="#9aa9bd" opacity="0.5"/>
<rect x="387.8" y="230.4" width="6" height="8" fill="#9aa9bd" opacity="0.5"/>
<rect x="401.8" y="230.4" width="6" height="8" fill="#9aa9bd" opacity="0.5"/>
<rect x="387.8" y="246.4" width="6" height="8" fill="#9aa9bd" opacity="0.5"/>
<rect x="401.8" y="246.4" width="6" height="8" fill="#9aa9bd" opacity="0.5"/>
<rect x="415.8" y="246.4" width="6" height="8" fill="#9aa9bd" opacity="0.5"/>
<rect x="401.8" y="262.4" width="6" height="8" fill="#9aa9bd" opacity="0.5"/>
<rect x="415.8" y="262.4" width="6" height="8" fill="#9aa9bd" opacity="0.5"/>
<rect x="569.4" y="156.2" width="75.0" height="143.8" fill="#647b99"/>
<rect x="582.9" y="168.2" width="6" height="8" fill="#9aa9bd" opacity="0.5"/>
<rect x="596.9" y="168.2" width="6" height="8" fill="#9aa9bd" opacity="0.5"/>
<rect x="610.9" y="168.2" width="6" height="8" fill="#9aa9bd" opacity="0.5"/>
<rect x="624.9" y="168.2" width="6" height="8" fill="#9aa9bd" opacity="0.5"/>
<rect x="582.9" y="184.2" width="6" height="8" fill="#9aa9bd" opacity="0.5"/>
<rect x="596.9" y="184.2" width="6" height="8" fill="#9aa9bd" opacity="0.5"/>
<rect x="610.9" y="184.2" width="6" height="8" fill="#9aa9bd" opacity="0.5"/>
<rect x="624.9" y="184.2" width="6" height="8" fill="#9aa9bd" opacity="0.5"/>
<rect x="582.9" y="200.2" width="6" height="8" fill="#9aa9bd" opacity="0.5"/>
<rect x="610.9" y="200.2" width="6" height="8" fill="#9aa9bd" opacity="0.5"/>
<rect x="582.9" y="216.2" width="6" height="8" fill="#9aa9bd" opacity="0.5"/>
<rect x="624.9" y="216.2" width="6" height="8" fill="#9aa9bd" opacity="0.5"/>
<rect x="582.9" y="248.2" width="6" height="8" fill="#9aa9bd" opacity="0.5"/>
<rect x="596.9" y="248.2" width="6" height="8" fill="#9aa9bd" opacity="0.5"/>
<rect x="610.9" y="248.2" width="6" height="8" fill="#9aa9bd" opacity="0.5"/>
<rect x="624.9" y="248.2" width="6" height="8" fill="#9aa9bd" opacity="0.5"/>
<rect x="582.9" y="264.2" width="6" height="8" fill="#9aa9bd" opacity="0.5"/>
<rect x="596.9" y="264.2" width="6" height="8" fill="#9aa9bd" opacity="0.5"/>
<rect x="776.1" y="212.2" width="39.9" height="87.8" fill="#647b99"/>
<rect x="793.1" y="256.2" width="6" height="8" fill="#9aa9bd" opacity="0.5"/>
<rect x="793.1" y="272.2" width="6" height="8" fill="#9aa9bd" opacity="0.5"/>
<rect x="1013.6" y="183.3" width="45.0" height="116.7" fill="#647b99"/>
<rect x="1026.1" y="195.3" width="6" height="8" fill="#9aa9bd" opacity="0.5"/>
<rect x="1040.1" y="195.3" width="6" height="8" fill="#9aa9bd" opacity="0.5"/>
<rect x="1026.1" y="211.3" width="6" height="8" fill="#9aa9bd" opacity="0.5"/>
<rect x="1026.1" y="227.3" width="6" height="8" fill="#9aa9bd" opacity="0.5"/>
<rect x="1026.1" y="243.3" width="6" height="8" fill="#9aa9bd" opacity="0.5"/>
<rect x="1026.1" y="259.3" width="6" height="8" fill="#9aa9bd" opacity="0.5"/>
<rect x="188.6" y="122.6" width="49.9" height="177.4" fill="#3d5a80"/>
<rect x="203.5" y="134.6" width="6" height="8" fill="#8194ac" opacity="0.5"/>
<rect x="217.5" y="134.6" width="6" height="8" fill="#8194ac" opacity="0.5"/>
<rect x="217.5" y="150.6" width="6" height="8" fill="#8194ac" opacity="0.5"/>
<rect x="203.5" y="166.6" width="6" height="8" fill="#8194ac" opacity="0.5"/>
<rect x="217.5" y="166.6" width="6" height="8" fill="#8194ac" opacity="0.5"/>
<rect x="203.5" y="182.6" width="6" height="8" fill="#8194ac" opacity="0.5"/>
<rect x="203.5" y="198.6" width="6" height="8" fill="#8194ac" opacity="0.5"/>
<rect x="217.5" y="198.6" width="6" height="8" fill="#8194ac" opacity="0.5"/>
<rect x="217.5" y="214.6" width="6" height="8" fill="#8194ac" opacity="0.5"/>
<rect x="203.5" y="230.6" width="6" height="8" fill="#8194ac" opacity="0.5"/>
<rect x="217.5" y="230.6" width="6" height="8" fill="#8194ac" opacity="0.5"/>
<rect x="203.5" y="246.6" width="6" height="8" fill="#8194ac" opacity="0.5"/>
<rect x="203.5" y="262.6" width="6" height="8" fill="#8194ac" opacity="0.5"/>
<rect x="217.5" y="262.6" width="6" height="8" fill="#8194ac" opacity="0.5"/>
<rect x="446.8" y="229.0" width="71.4" height="71.0" fill="#3d5a80"/>
<rect x="465.6" y="241.0" width="6" height="8" fill="#8194ac" opacity="0.5"/>
<rect x="465.6" y="257.0" width="6" height="8" fill="#8194ac" opacity="0.5"/>
<rect x="479.6" y="257.0" width="6" height="8" fill="#8194ac" opacity="0.5"/>
<rect x="493.6" y="257.0" width="6" height="8" fill="#8194ac" opacity="0.5"/>
<rect x="465.6" y="273.0" width="6" height="8" fill="#8194ac" opacity="0.5"/>
<rect x="703.5" y="240.6" width="34.7" height="59.4" fill="#3d5a80"/>
<rect x="976.4" y="179.1" width="32.0" height="120.9" fill="#3d5a80"/>
<rect x="989.4" y="191.1" width="6" height="8" fill="#8194ac" opacity="0.5"/>
<rect x="989.4" y="207.1" width="6" height="8" fill="#8194ac" opacity="0.5"/>
<rect x="989.4" y="223.1" width="6" height="8" fill="#8194ac" opacity="0.5"/>
<rect x="989.4" y="239.1" width="6" height="8" fill="#8194ac" opacity="0.5"/>
<rect x="989.4" y="271.1" width="6" height="8" fill="#8194ac" opacity="0.5"/>
<rect x="0" y="298" width="1200" height="2" fill="#375173" opacity="0.15"/>
</svg>