<svg xmlns="http://www.w3.org/2000/svg" viewBox="0 0 1200 300" width="1200" height="300">
<defs>
<linearGradient id="skyGrad" x1="0" y1="0" x2="0" y2="1">
<stop offset="0%" stop-color="#a78bfa"/>
<stop offset="18%" stop-color="#ddb4f0"/>
<stop offset="35%" stop-color="#fda4af"/>
<stop offset="52%" stop-color="#fdba74"/>
<stop offset="72%" stop-color="#fef08a"/>
<stop offset="100%" stop-color="#fef9c3"/>
</linearGradient>
<linearGradient id="bldg_coral" x1="0" y1="0" x2="0" y2="1"><stop offset="0%" stop-color="#fecaca"/><stop offset="100%" stop-color="#fca5a5"/></linearGradient>
<linearGradient id="bldg_teal" x1="0" y1="0" x2="0" y2="1"><stop offset="0%" stop-color="#99f6e4"/><stop offset="100%" stop-color="#5eead4"/></linearGradient>
<linearGradient id="bldg_amber" x1="0" y1="0" x2="0" y2="1"><stop offset="0%" stop-color="#fde68a"/><stop offset="100%" stop-color="#fcd34d"/></linearGradient>
<linearGradient id="bldg_lavender" x1="0" y1="0" x2="0" y2="1"><stop offset="0%" stop-color="#ddd6fe"/><stop offset="100%" stop-color="#c4b5fd"/></linearGradient>
<linearGradient id="bldg_blue" x1="0" y1="0" x2="0" y2="1"><stop offset="0%" stop-color="#bfdbfe"/><stop offset="100%" stop-color="#93c5fd"/></linearGradient>
<linearGradient id="bldg_mint" x1="0" y1="0" x2="0" y2="1"><stop offset="0%" stop-color="#a7f3d0"/><stop offset="100%" stop-color="#6ee7b7"/></linearGradient>
<linearGradient id="bldg_rose" x1="0" y1="0" x2="0" y2="1"><stop offset="0%" stop-color="#fecdd3"/><stop offset="100%" stop-color="#fda4af"/></linearGradient>
<linearGradient id="bldg_sky" x1="0" y1="0" x2="0" y2="1"><stop offset="0%" stop-color="#bae6fd"/><stop offset="100%" stop-color="#7dd3fc"/></linearGradient>
<linearGradient id="roof_navyRoof" x1="0" y1="0" x2="0" y2="1"><stop offset="0%" stop-color="#4338ca"/><stop offset="100%" stop-color="#3730a3"/></linearGradient>
<linearGradient id="roof_coralRoof" x1="0" y1="0" x2="0" y2="1"><stop offset="0%" stop-color="#f87171"/><stop offset="100%" stop-color="#ef4444"/></linearGradient>
<linearGradient id="roof_tealRoof" x1="0" y1="0" x2="0" y2="1"><stop offset="0%" stop-color="#2dd4bf"/><stop offset="100%" stop-color="#14b8a6"/></linearGradient>
<radialGradient id="windowGlow" cx="50%" cy="50%" r="50%"><stop offset="0%" stop-color="#fef08a"/><stop offset="60%" stop-color="#fbbf24"/><stop offset="100%" stop-color="#f59e0b"/></radialGradient>
<linearGradient id="hillFar" x1="0" y1="0" x2="0" y2="1"><stop offset="0%" stop-color="#c4b5fd"/><stop offset="100%" stop-color="#a5b4fc"/></linearGradient>
<linearGradient id="hillMid" x1="0" y1="0" x2="0" y2="1"><stop offset="0%" stop-color="#86efac"/><stop offset="100%" stop-color="#4ade80"/></linearGradient>
<linearGradient id="hillNear" x1="0" y1="0" x2="0" y2="1"><stop offset="0%" stop-color="#34d399"/><stop offset="100%" stop-color="#10b981"/></linearGradient>
<linearGradient id="hillDesertFar" x1="0" y1="0" x2="0" y2="1"><stop offset="0%" stop-color="#fde68a"/><stop offset="100%" stop-color="#fcd34d"/></linearGradient>
<linearGradient id="hillDesertMid" x1="0" y1="0" x2="0" y2="1"><stop offset="0%" stop-color="#fcd34d"/><stop offset="100%" stop-color="#fbbf24"/></linearGradient>
<linearGradient id="hillDesertNear" x1="0" y1="0" x2="0" y2="1"><stop offset="0%" stop-color="#fbbf24"/><stop offset="100%" stop-color="#f59e0b"/></linearGradient>
<linearGradient id="groundGrad" x1="0" y1="0" x2="0" y2="1"><stop offset="0%" stop-color="#fef3c7"/><stop offset="100%" stop-color="#fde68a"/></linearGradient>
<linearGradient id="waterGrad" x1="0" y1="0" x2="0" y2="1"><stop offset="0%" stop-color="#bfdbfe"/><stop offset="100%" stop-color="#93c5fd"/></linearGradient>
<filter id="softGlow" x="-50%" y="-50%" width="200%" height="200%"><feGaussianBlur in="SourceGraphic" stdDeviation="12"/></filter>
</defs>
<rect width="1200" height="300" fill="url(#skyGrad)"/>
<circle cx="906.7" cy="55.7" r="45" fill="#fef08a" opacity="0.12" filter="url(#softGlow)"/>
<circle cx="906.7" cy="55.7" r="30" fill="#fde68a" opacity="0.18" filter="url(#softGlow)"/>
<circle cx="906.7" cy="55.7" r="16" fill="#fef9c3" opacity="0.25" filter="url(#softGlow)"/>
<path d="M0 300 L0.0 183.8 C234.8 183.8, 234.8 191.4, 469.7 191.4 C639.1 191.4, 639.1 178.3, 808.6 178.3 C1004.3 178.3, 1004.3 185.9, 1200.0 185.9 L1200 300 Z" fill="url(#hillFar)" opacity="0.5"/>
<path d="M0 300 L0.0 215.1 C203.0 215.1, 203.0 203.2, 406.1 203.2 C574.6 203.2, 574.6 212.0, 743.1 212.0 C971.5 212.0, 971.5 213.4, 1200.0 213.4 L1200 300 Z" fill="url(#hillMid)" opacity="0.7"/>
<path d="M0 300 L0.0 230.4 C186.3 230.4, 186.3 234.7, 372.6 234.7 C616.6 234.7, 616.6 228.4, 860.7 228.4 C1030.3 228.4, 1030.3 228.6, 1200.0 228.6 L1200 300 Z" fill="url(#hillNear)" opacity="1"/>
<rect x="225.8" y="234.8" width="73.7" height="65.2" rx="3" fill="url(#bldg_teal)" opacity="0.7"/>
<polygon points="225.8,234.8 262.6,213.3 299.5,234.8" fill="url(#roof_tealRoof)" opacity="0.7"/>
<rect x="238.6" y="244.8" width="6" height="8" rx="1" fill="url(#windowGlow)" opacity="0.7028426174087647"/>
<rect x="252.6" y="244.8" width="6" height="8" rx="1" fill="url(#windowGlow)" opacity="0.9919848546814103"/>
<rect x="280.6" y="244.8" width="6" height="8" rx="1" fill="url(#windowGlow)" opacity="0.7484605067169575"/>
<rect x="238.6" y="259.8" width="6" height="8" rx="1" fill="url(#windowGlow)" opacity="0.8642247163058373"/>
<rect x="252.6" y="259.8" width="6" height="8" rx="1" fill="url(#windowGlow)" opacity="0.8223222985036309"/>
<rect x="266.6" y="259.8" width="6" height="8" rx="1" fill="url(#windowGlow)" opacity="0.8879314033724047"/>
<rect x="280.6" y="259.8" width="6" height="8" rx="1" fill="url(#windowGlow)" opacity="0.9050717239757402"/>
<rect x="524.4" y="238.3" width="70.8" height="61.7" rx="3" fill="url(#bldg_amber)" opacity="0.7"/>
<rect x="524.4" y="235.3" width="70.8" height="3" rx="1" fill="url(#roof_navyRoof)" opacity="0.7"/>
<rect x="542.8" y="248.3" width="6" height="8" rx="1" fill="url(#windowGlow)" opacity="0.8377127525106597"/>
<rect x="556.8" y="248.3" width="6" height="8" rx="1" fill="url(#windowGlow)" opacity="0.7124737418314785"/>
<rect x="570.8" y="248.3" width="6" height="8" rx="1" fill="url(#windowGlow)" opacity="0.8904125700660108"/>
<rect x="907.9" y="244.8" width="78.0" height="55.2" rx="3" fill="url(#bldg_lavender)" opacity="0.7"/>
<rect x="907.9" y="241.8" width="78.0" height="3" rx="1" fill="url(#roof_coralRoof)" opacity="0.7"/>
<rect x="922.9" y="254.8" width="6" height="8" rx="1" fill="url(#windowGlow)" opacity="0.9613278911268934"/>
<rect x="936.9" y="254.8" width="6" height="8" rx="1" fill="url(#windowGlow)" opacity="0.974309281247812"/>
<rect x="950.9" y="254.8" width="6" height="8" rx="1" fill="url(#windowGlow)" opacity="0.891850524252211"/>
<rect x="165.1" y="202.0" width="42.4" height="98.0" rx="3" fill="url(#bldg_blue)" opacity="0.85"/>
<rect x="173.6" y="190.3" width="25.5" height="11.8" rx="2" fill="url(#roof_tealRoof)" opacity="0.85"/>
<rect x="183.3" y="212.0" width="6" height="8" rx="1" fill="url(#windowGlow)" opacity="0.9741228964990576"/>
<rect x="183.3" y="227.0" width="6" height="8" rx="1" fill="url(#windowGlow)" opacity="0.940295635508511"/>
<rect x="183.3" y="242.0" width="6" height="8" rx="1" fill="url(#windowGlow)" opacity="0.8613868804934373"/>
<rect x="613.5" y="214.4" width="47.3" height="85.6" rx="3" fill="url(#bldg_mint)" opacity="0.85"/>
<rect x="622.9" y="204.2" width="28.4" height="10.3" rx="2" fill="url(#roof_navyRoof)" opacity="0.85"/>
<rect x="627.1" y="224.4" width="6" height="8" rx="1" fill="url(#windowGlow)" opacity="0.8269220099444138"/>
<rect x="641.1" y="224.4" width="6" height="8" rx="1" fill="url(#windowGlow)" opacity="0.7161678846069461"/>
<rect x="627.1" y="239.4" width="6" height="8" rx="1" fill="url(#windowGlow)" opacity="0.901009243634068"/>
<rect x="641.1" y="239.4" width="6" height="8" rx="1" fill="url(#windowGlow)" opacity="0.7754725748093205"/>
<rect x="627.1" y="254.4" width="6" height="8" rx="1" fill="url(#windowGlow)" opacity="0.7575062852620642"/>
<rect x="641.1" y="254.4" width="6" height="8" rx="1" fill="url(#windowGlow)" opacity="0.7418962738671788"/>
<rect x="971.8" y="210.1" width="65.5" height="89.9" rx="3" fill="url(#bldg_rose)" opacity="0.85"/>
<polygon points="971.8,210.1 1004.5,196.5 1037.3,210.1" fill="url(#roof_coralRoof)" opacity="0.85"/>
<rect x="987.5" y="220.1" width="6" height="8" rx="1" fill="url(#windowGlow)" opacity="0.9266974658363952"/>
<rect x="1001.5" y="220.1" width="6" height="8" rx="1" fill="url(#windowGlow)" opacity="0.7161475977469922"/>
<rect x="987.5" y="235.1" width="6" height="8" rx="1" fill="url(#windowGlow)" opacity="0.7623844316519723"/>
<rect x="1001.5" y="235.1" width="6" height="8" rx="1" fill="url(#windowGlow)" opacity="0.8910747038158935"/>
<rect x="1015.5" y="235.1" width="6" height="8" rx="1" fill="url(#windowGlow)" opacity="0.9309977983268898"/>
<rect x="987.5" y="250.1" width="6" height="8" rx="1" fill="url(#windowGlow)" opacity="0.7750913932337851"/>
<rect x="1001.5" y="250.1" width="6" height="8" rx="1" fill="url(#windowGlow)" opacity="0.9636426675429766"/>
<rect x="1015.5" y="250.1" width="6" height="8" rx="1" fill="url(#windowGlow)" opacity="0.7394438636672886"/>
<rect x="197.9" y="165.7" width="42.3" height="134.3" rx="3" fill="url(#bldg_sky)" opacity="1"/>
<polygon points="197.9,165.7 219.1,155.3 240.3,165.7" fill="url(#roof_tealRoof)" opacity="1"/>
<rect x="216.1" y="190.7" width="6" height="8" rx="1" fill="url(#windowGlow)" opacity="0.7272103471808183"/>
<rect x="216.1" y="205.7" width="6" height="8" rx="1" fill="url(#windowGlow)" opacity="0.8863829770993361"/>
<rect x="216.1" y="220.7" width="6" height="8" rx="1" fill="url(#windowGlow)" opacity="0.8389390316507495"/>
<rect x="214.1" y="284.0" width="10" height="16" rx="2" fill="url(#roof_navyRoof)" opacity="0.8"/>
<rect x="216.1" y="287.0" width="6" height="10" rx="1" fill="url(#windowGlow)" opacity="0.45"/>
<rect x="554.0" y="132.4" width="70.1" height="167.6" rx="3" fill="url(#bldg_coral)" opacity="1"/>
<polygon points="554.0,132.4 589.1,114.5 624.1,132.4" fill="url(#roof_navyRoof)" opacity="1"/>
<rect x="572.1" y="142.4" width="6" height="8" rx="1" fill="url(#windowGlow)" opacity="0.9537506186653629"/>
<rect x="586.1" y="142.4" width="6" height="8" rx="1" fill="url(#windowGlow)" opacity="0.9781408284223363"/>
<rect x="600.1" y="142.4" width="6" height="8" rx="1" fill="url(#windowGlow)" opacity="0.7936284697119279"/>
<rect x="572.1" y="157.4" width="6" height="8" rx="1" fill="url(#windowGlow)" opacity="0.7754324288458714"/>
<rect x="572.1" y="172.4" width="6" height="8" rx="1" fill="url(#windowGlow)" opacity="0.9727944314818803"/>
<rect x="586.1" y="172.4" width="6" height="8" rx="1" fill="url(#windowGlow)" opacity="0.9156920167690571"/>
<rect x="600.1" y="172.4" width="6" height="8" rx="1" fill="url(#windowGlow)" opacity="0.8715886352451465"/>
<rect x="572.1" y="187.4" width="6" height="8" rx="1" fill="url(#windowGlow)" opacity="0.9498170093865212"/>
<rect x="586.1" y="187.4" width="6" height="8" rx="1" fill="url(#windowGlow)" opacity="0.9725107934663588"/>
<rect x="600.1" y="187.4" width="6" height="8" rx="1" fill="url(#windowGlow)" opacity="0.7377099661332135"/>
<rect x="586.1" y="202.4" width="6" height="8" rx="1" fill="url(#windowGlow)" opacity="0.955916412619835"/>
<rect x="600.1" y="202.4" width="6" height="8" rx="1" fill="url(#windowGlow)" opacity="0.8896823625497903"/>
<rect x="572.1" y="217.4" width="6" height="8" rx="1" fill="url(#windowGlow)" opacity="0.7549552107020072"/>
<rect x="586.1" y="217.4" width="6" height="8" rx="1" fill="url(#windowGlow)" opacity="0.778564670765104"/>
<rect x="572.1" y="232.4" width="6" height="8" rx="1" fill="url(#windowGlow)" opacity="0.8511751004267367"/>
<rect x="586.1" y="232.4" width="6" height="8" rx="1" fill="url(#windowGlow)" opacity="0.7163050728925993"/>
<rect x="600.1" y="232.4" width="6" height="8" rx="1" fill="url(#windowGlow)" opacity="0.9009556910958866"/>
<rect x="572.1" y="247.4" width="6" height="8" rx="1" fill="url(#windowGlow)" opacity="0.928980942270244"/>
<rect x="584.1" y="284.0" width="10" height="16" rx="2" fill="url(#roof_navyRoof)" opacity="0.8"/>
<rect x="586.1" y="287.0" width="6" height="10" rx="1" fill="url(#windowGlow)" opacity="0.45"/>
<path d="M589.1 191.1 L617.1 191.1 L614.1 197.1 L592.1 197.1 Z" fill="url(#roof_tealRoof)" opacity="0.8"/>
<rect x="939.7" y="149.9" width="63.5" height="150.1" rx="3" fill="url(#bldg_teal)" opacity="1"/>
<rect x="952.4" y="131.9" width="38.1" height="18.0" rx="2" fill="url(#roof_coralRoof)" opacity="1"/>
<rect x="954.5" y="159.9" width="6" height="8" rx="1" fill="url(#windowGlow)" opacity="0.7745294195946908"/>
<rect x="968.5" y="159.9" width="6" height="8" rx="1" fill="url(#windowGlow)" opacity="0.7589448869502846"/>
<rect x="982.5" y="159.9" width="6" height="8" rx="1" fill="url(#windowGlow)" opacity="0.9769278418630956"/>
<rect x="954.5" y="174.9" width="6" height="8" rx="1" fill="url(#windowGlow)" opacity="0.8777961864032764"/>
<rect x="968.5" y="174.9" width="6" height="8" rx="1" fill="url(#windowGlow)" opacity="0.9221360096811019"/>
<rect x="982.5" y="174.9" width="6" height="8" rx="1" fill="url(#windowGlow)" opacity="0.888187008811248"/>
<rect x="954.5" y="189.9" width="6" height="8" rx="1" fill="url(#windowGlow)" opacity="0.7404318905623778"/>
<rect x="968.5" y="189.9" width="6" height="8" rx="1" fill="url(#windowGlow)" opacity="0.73878330683279"/>
<rect x="982.5" y="189.9" width="6" height="8" rx="1" fill="url(#windowGlow)" opacity="0.9618790662204283"/>
<rect x="954.5" y="204.9" width="6" height="8" rx="1" fill="url(#windowGlow)" opacity="0.9928010517232124"/>
<rect x="968.5" y="204.9" width="6" height="8" rx="1" fill="url(#windowGlow)" opacity="0.7575254622183393"/>
<rect x="982.5" y="204.9" width="6" height="8" rx="1" fill="url(#windowGlow)" opacity="0.903091681656936"/>
<rect x="954.5" y="219.9" width="6" height="8" rx="1" fill="url(#windowGlow)" opacity="0.9413442673354149"/>
<rect x="982.5" y="219.9" width="6" height="8" rx="1" fill="url(#windowGlow)" opacity="0.7332388448218065"/>
<rect x="954.5" y="234.9" width="6" height="8" rx="1" fill="url(#windowGlow)" opacity="0.9328822883464778"/>
<rect x="968.5" y="234.9" width="6" height="8" rx="1" fill="url(#windowGlow)" opacity="0.7957558848875369"/>
<rect x="954.5" y="249.9" width="6" height="8" rx="1" fill="url(#windowGlow)" opacity="0.7784729645021599"/>
<rect x="982.5" y="249.9" width="6" height="8" rx="1" fill="url(#windowGlow)" opacity="0.9065239621822367"/>
<rect x="966.5" y="284.0" width="10" height="16" rx="2" fill="url(#roof_navyRoof)" opacity="0.8"/>
<rect x="968.5" y="287.0" width="6" height="10" rx="1" fill="url(#windowGlow)" opacity="0.45"/>
<path d="M397.1 285.0 Q417.9 259.6 409.6 234.3" stroke="#92400e" stroke-width="4" fill="none" stroke-linecap="round"/>
<path d="M409.6 234.3 Q400.8 224.6 395.0 226.2" stroke="#16a34a" stroke-width="2.5" fill="none" stroke-linecap="round"/>
<path d="M409.6 234.3 Q415.3 222.5 419.1 221.6" stroke="#22c55e" stroke-width="2.5" fill="none" stroke-linecap="round"/>
<path d="M409.6 234.3 Q425.4 228.3 435.9 234.3" stroke="#15803d" stroke-width="2.5" fill="none" stroke-linecap="round"/>
<path d="M409.6 234.3 Q415.2 233.9 419.0 246.7" stroke="#4ade80" stroke-width="2.5" fill="none" stroke-linecap="round"/>
<path d="M409.6 234.3 Q395.3 234.2 385.7 247.4" stroke="#16a34a" stroke-width="2.5" fill="none" stroke-linecap="round"/>
<path d="M781.9 285.0 Q809.9 257.3 798.7 229.6" stroke="#92400e" stroke-width="4" fill="none" stroke-linecap="round"/>
<path d="M798.7 229.6 Q787.9 219.1 780.8 219.7" stroke="#16a34a" stroke-width="2.5" fill="none" stroke-linecap="round"/>
<path d="M798.7 229.6 Q804.6 217.6 808.6 216.5" stroke="#22c55e" stroke-width="2.5" fill="none" stroke-linecap="round"/>
<path d="M798.7 229.6 Q810.9 223.6 819.1 229.6" stroke="#15803d" stroke-width="2.5" fill="none" stroke-linecap="round"/>
<path d="M798.7 229.6 Q804.0 228.9 807.5 241.3" stroke="#4ade80" stroke-width="2.5" fill="none" stroke-linecap="round"/>
<path d="M798.7 229.6 Q789.3 227.5 783.0 238.2" stroke="#16a34a" stroke-width="2.5" fill="none" stroke-linecap="round"/>
<path d="M166.2 285.0 Q185.9 254.3 178.0 223.6" stroke="#92400e" stroke-width="4" fill="none" stroke-linecap="round"/>
<path d="M178.0 223.6 Q166.0 212.6 157.9 212.6" stroke="#16a34a" stroke-width="2.5" fill="none" stroke-linecap="round"/>
<path d="M178.0 223.6 Q184.3 211.3 188.4 209.8" stroke="#22c55e" stroke-width="2.5" fill="none" stroke-linecap="round"/>
<path d="M178.0 223.6 Q191.3 217.6 200.1 223.6" stroke="#15803d" stroke-width="2.5" fill="none" stroke-linecap="round"/>
<path d="M178.0 223.6 Q184.4 224.1 188.7 237.8" stroke="#4ade80" stroke-width="2.5" fill="none" stroke-linecap="round"/>
<path d="M178.0 223.6 Q166.3 222.5 158.5 234.4" stroke="#16a34a" stroke-width="2.5" fill="none" stroke-linecap="round"/>
<path d="M1043.1 285.0 Q1056.6 256.8 1051.2 228.6" stroke="#92400e" stroke-width="4" fill="none" stroke-linecap="round"/>
<path d="M1051.2 228.6 Q1039.6 217.7 1031.9 217.9" stroke="#16a34a" stroke-width="2.5" fill="none" stroke-linecap="round"/>
<path d="M1051.2 228.6 Q1058.6 215.1 1063.5 212.2" stroke="#22c55e" stroke-width="2.5" fill="none" stroke-linecap="round"/>
<path d="M1051.2 228.6 Q1069.8 222.6 1082.1 228.6" stroke="#15803d" stroke-width="2.5" fill="none" stroke-linecap="round"/>
<path d="M1051.2 228.6 Q1056.6 228.0 1060.2 240.5" stroke="#4ade80" stroke-width="2.5" fill="none" stroke-linecap="round"/>
<path d="M1051.2 228.6 Q1038.5 227.8 1030.0 240.2" stroke="#16a34a" stroke-width="2.5" fill="none" stroke-linecap="round"/>
<path d="M608.7 285.0 Q630.3 258.2 621.6 231.5" stroke="#92400e" stroke-width="4" fill="none" stroke-linecap="round"/>
<path d="M621.6 231.5 Q613.1 221.9 607.4 223.7" stroke="#16a34a" stroke-width="2.5" fill="none" stroke-linecap="round"/>
<path d="M621.6 231.5 Q626.7 220.4 630.1 220.3" stroke="#22c55e" stroke-width="2.5" fill="none" stroke-linecap="round"/>
<path d="M621.6 231.5 Q641.8 225.5 655.3 231.5" stroke="#15803d" stroke-width="2.5" fill="none" stroke-linecap="round"/>
<path d="M621.6 231.5 Q626.8 230.6 630.2 242.9" stroke="#4ade80" stroke-width="2.5" fill="none" stroke-linecap="round"/>
<path d="M621.6 231.5 Q607.3 231.5 597.7 244.6" stroke="#16a34a" stroke-width="2.5" fill="none" stroke-linecap="round"/>
<path d="M1145.1 285.0 Q1171.1 253.6 1160.7 222.2" stroke="#92400e" stroke-width="4" fill="none" stroke-linecap="round"/>
<path d="M1160.7 222.2 Q1148.4 211.1 1140.2 211.0" stroke="#16a34a" stroke-width="2.5" fill="none" stroke-linecap="round"/>
<path d="M1160.7 222.2 Q1168.4 208.5 1173.6 205.1" stroke="#22c55e" stroke-width="2.5" fill="none" stroke-linecap="round"/>
<path d="M1160.7 222.2 Q1177.3 216.2 1188.3 222.2" stroke="#15803d" stroke-width="2.5" fill="none" stroke-linecap="round"/>
<path d="M1160.7 222.2 Q1165.3 220.9 1168.4 232.4" stroke="#4ade80" stroke-width="2.5" fill="none" stroke-linecap="round"/>
<path d="M1160.7 222.2 Q1150.0 220.7 1142.8 232.1" stroke="#16a34a" stroke-width="2.5" fill="none" stroke-linecap="round"/>
<path d="M731.5 285.0 Q757.9 263.6 747.3 242.2" stroke="#92400e" stroke-width="4" fill="none" stroke-linecap="round"/>
<path d="M747.3 242.2 Q737.8 232.3 731.4 233.5" stroke="#16a34a" stroke-width="2.5" fill="none" stroke-linecap="round"/>
<path d="M747.3 242.2 Q752.3 231.2 755.7 231.1" stroke="#22c55e" stroke-width="2.5" fill="none" stroke-linecap="round"/>
<path d="M747.3 242.2 Q765.1 236.2 777.0 242.2" stroke="#15803d" stroke-width="2.5" fill="none" stroke-linecap="round"/>
<path d="M747.3 242.2 Q753.0 241.9 756.8 254.8" stroke="#4ade80" stroke-width="2.5" fill="none" stroke-linecap="round"/>
<path d="M747.3 242.2 Q736.5 240.8 729.2 252.2" stroke="#16a34a" stroke-width="2.5" fill="none" stroke-linecap="round"/>
<rect x="0" y="282" width="1200" height="18" fill="url(#groundGrad)"/>
<line x1="403.9" y1="282.0" x2="403.9" y2="248.6" stroke="#92400e" stroke-width="2"/>
<circle cx="403.9" cy="248.6" r="4" fill="#fef08a" opacity="0.6"/>
<circle cx="403.9" cy="248.6" r="8" fill="#fef08a" opacity="0.15" filter="url(#softGlow)"/>
<line x1="308.2" y1="282.0" x2="308.2" y2="242.0" stroke="#92400e" stroke-width="2"/>
<circle cx="308.2" cy="242.0" r="4" fill="#fef08a" opacity="0.6"/>
<circle cx="308.2" cy="242.0" r="8" fill="#fef08a" opacity="0.15" filter="url(#softGlow)"/>
<ellipse cx="1117.1" cy="282.0" rx="4.3" ry="3.0" fill="#22c55e" opacity="0.6"/>
<ellipse cx="271.5" cy="282.0" rx="5.2" ry="3.6" fill="#22c55e" opacity="0.6"/>
<ellipse cx="446.8" cy="282.0" rx="6.8" ry="4.7" fill="#22c55e" opacity="0.6"/>
</svg>