<svg xmlns="http://www.w3.org/2000/svg" viewBox="0 0 1200 400" width="1200" height="400">
<defs>
<linearGradient id="bg" x1="0" y1="0" x2="0" y2="1"><stop offset="0%" stop-color="#94a3b8"/><stop offset="100%" stop-color="#0369a1"/></linearGradient>
<linearGradient id="warm" x1="0" y1="0" x2="1" y2="1"><stop offset="0%" stop-color="#f59e0b" stop-opacity="0.18"/><stop offset="100%" stop-color="#f59e0b" stop-opacity="0.06"/></linearGradient>
</defs>
<rect width="1200" height="400" fill="url(#bg)"/>
<path d="M0 400 L0 225.16907744674305 C60.0 219.1, 90.0 251.6, 150.0 251.0 C210.0 258.8, 240.0 224.5, 300.0 230.2 C360.0 226.0, 390.0 249.0, 450.0 248.0 C510.0 249.0, 540.0 249.3, 600.0 252.0 C660.0 247.2, 690.0 231.7, 750.0 225.6 C810.0 234.6, 840.0 249.7, 900.0 240.7 C960.0 237.7, 990.0 251.0, 1050.0 248.2 C1110.0 255.9, 1140.0 248.0, 1200.0 253.8 L1200 400 Z" fill="#367da9" opacity="0.45"/>
<path d="M0 400 L0 270.51210715550434 C52.5 265.7, 97.5 264.2, 150.0 258.3 C202.5 255.0, 247.5 262.2, 300.0 260.1 C352.5 265.1, 397.5 272.4, 450.0 274.9 C502.5 270.1, 547.5 260.8, 600.0 262.0 C652.5 264.0, 697.5 262.8, 750.0 257.1 C802.5 255.4, 847.5 264.1, 900.0 258.1 C952.5 261.3, 997.5 258.0, 1050.0 258.3 C1102.5 262.2, 1147.5 262.1, 1200.0 267.3 L1200 400 Z" fill="#0369a1" opacity="0.3"/>
<rect x="698.6" y="361.4" width="48.4" height="38.6" rx="6.0" fill="#059669" opacity="0.67"/>
<rect x="814.0" y="360.1" width="49.0" height="39.9" rx="3.8" fill="#04877c" opacity="0.69"/>
<rect x="649.5" y="327.8" width="35.7" height="72.2" rx="6.1" fill="#059170" opacity="0.74"/>
<rect x="560.7" y="284.8" width="44.0" height="115.2" rx="4.0" fill="#05956a" opacity="0.85"/>
<rect x="565.7" y="294.8" width="4" height="5" rx="0.5" fill="#94a3b8" opacity="0.6"/>
<rect x="580.4" y="294.8" width="4" height="5" rx="0.5" fill="#94a3b8" opacity="0.6"/>
<rect x="565.7" y="316.8" width="4" height="5" rx="0.5" fill="#94a3b8" opacity="0.6"/>
<rect x="580.4" y="316.8" width="4" height="5" rx="0.5" fill="#94a3b8" opacity="0.6"/>
<rect x="565.7" y="338.8" width="4" height="5" rx="0.5" fill="#94a3b8" opacity="0.6"/>
<rect x="580.4" y="338.8" width="4" height="5" rx="0.5" fill="#94a3b8" opacity="0.6"/>
<rect x="565.7" y="360.8" width="4" height="5" rx="0.5" fill="#94a3b8" opacity="0.6"/>
<rect x="997.2" y="297.2" width="33.5" height="102.8" rx="5.6" fill="#048084" opacity="0.77"/>
<rect x="575.6" y="349.1" width="16.9" height="50.9" rx="4.2" fill="#048b77" opacity="0.73"/>
<rect x="763.2" y="303.7" width="14.0" height="96.3" rx="5.5" fill="#058f71" opacity="0.77"/>
<rect x="558.0" y="356.4" width="23.5" height="43.6" rx="3.2" fill="#05956b" opacity="0.61"/>
<rect x="171.7" y="321.2" width="40.7" height="78.8" rx="3.4" fill="#047f86" opacity="0.57"/>
<rect x="641.2" y="303.3" width="23.1" height="96.7" rx="6.8" fill="#04887a" opacity="0.59"/>
<rect x="646.2" y="313.3" width="4" height="5" rx="0.5" fill="#94a3b8" opacity="0.6"/>
<rect x="646.2" y="335.3" width="4" height="5" rx="0.5" fill="#94a3b8" opacity="0.6"/>
<rect x="415.5" y="338.3" width="29.6" height="61.7" rx="3.2" fill="#048a78" opacity="0.53"/>
<rect x="972.6" y="304.9" width="43.0" height="95.1" rx="5.3" fill="#05936d" opacity="0.52"/>
<rect x="473.1" y="333.8" width="31.3" height="66.2" rx="4.9" fill="#047f85" opacity="0.72"/>
<circle cx="1112.6" cy="163.1" r="5.8" fill="#059669" opacity="0.22"/>
<circle cx="20.8" cy="5.1" r="10.7" fill="#94a3b8" opacity="0.42"/>
<circle cx="862.8" cy="156.5" r="8.1" fill="#94a3b8" opacity="0.36"/>
<circle cx="396.0" cy="218.0" r="11.1" fill="#059669" opacity="0.19"/>
<circle cx="569.5" cy="204.7" r="6.2" fill="#059669" opacity="0.34"/>
<circle cx="219.8" cy="211.0" r="5.4" fill="#94a3b8" opacity="0.15"/>
<rect width="1200" height="400" fill="url(#warm)"/>
<rect width="1200" height="400" fill="#94a3b8" opacity="0.40"/>
</svg>