<svg xmlns="http://www.w3.org/2000/svg" viewBox="0 0 1200 300" width="1200" height="300">
<rect width="1200" height="300" fill="#e6eef4"/>
<path d="M0 300 L0 210.0 C344.8 186.2, 920.6 189.4, 1200 210.0 L1200 300 Z" fill="#b5cad8" opacity="0.3"/>
<rect x="98.7" y="226.7" width="81.3" height="73.3" fill="#99b6c9"/>
<rect x="441.4" y="201.3" width="78.9" height="98.7" fill="#99b6c9"/>
<rect x="733.0" y="237.6" width="73.9" height="62.4" fill="#99b6c9"/>
<rect x="1016.5" y="206.7" width="60.5" height="93.3" fill="#99b6c9"/>
<rect x="107.2" y="209.2" width="74.0" height="90.8" fill="#6a95b1"/>
<rect x="134.3" y="221.2" width="6" height="8" fill="#9ebacc" opacity="0.5"/>
<rect x="148.3" y="221.2" width="6" height="8" fill="#9ebacc" opacity="0.5"/>
<rect x="134.3" y="237.2" width="6" height="8" fill="#9ebacc" opacity="0.5"/>
<rect x="148.3" y="237.2" width="6" height="8" fill="#9ebacc" opacity="0.5"/>
<rect x="134.3" y="253.2" width="6" height="8" fill="#9ebacc" opacity="0.5"/>
<rect x="148.3" y="253.2" width="6" height="8" fill="#9ebacc" opacity="0.5"/>
<rect x="162.3" y="253.2" width="6" height="8" fill="#9ebacc" opacity="0.5"/>
<rect x="120.3" y="269.2" width="6" height="8" fill="#9ebacc" opacity="0.5"/>
<rect x="134.3" y="269.2" width="6" height="8" fill="#9ebacc" opacity="0.5"/>
<rect x="162.3" y="269.2" width="6" height="8" fill="#9ebacc" opacity="0.5"/>
<rect x="362.2" y="209.5" width="73.7" height="90.5" fill="#6a95b1"/>
<rect x="375.0" y="221.5" width="6" height="8" fill="#9ebacc" opacity="0.5"/>
<rect x="389.0" y="221.5" width="6" height="8" fill="#9ebacc" opacity="0.5"/>
<rect x="403.0" y="221.5" width="6" height="8" fill="#9ebacc" opacity="0.5"/>
<rect x="417.0" y="221.5" width="6" height="8" fill="#9ebacc" opacity="0.5"/>
<rect x="375.0" y="237.5" width="6" height="8" fill="#9ebacc" opacity="0.5"/>
<rect x="403.0" y="237.5" width="6" height="8" fill="#9ebacc" opacity="0.5"/>
<rect x="417.0" y="237.5" width="6" height="8" fill="#9ebacc" opacity="0.5"/>
<rect x="375.0" y="253.5" width="6" height="8" fill="#9ebacc" opacity="0.5"/>
<rect x="389.0" y="253.5" width="6" height="8" fill="#9ebacc" opacity="0.5"/>
<rect x="403.0" y="253.5" width="6" height="8" fill="#9ebacc" opacity="0.5"/>
<rect x="417.0" y="253.5" width="6" height="8" fill="#9ebacc" opacity="0.5"/>
<rect x="375.0" y="269.5" width="6" height="8" fill="#9ebacc" opacity="0.5"/>
<rect x="403.0" y="269.5" width="6" height="8" fill="#9ebacc" opacity="0.5"/>
<rect x="417.0" y="269.5" width="6" height="8" fill="#9ebacc" opacity="0.5"/>
<rect x="572.7" y="175.2" width="68.1" height="124.8" fill="#6a95b1"/>
<rect x="589.7" y="187.2" width="6" height="8" fill="#9ebacc" opacity="0.5"/>
<rect x="603.7" y="187.2" width="6" height="8" fill="#9ebacc" opacity="0.5"/>
<rect x="617.7" y="187.2" width="6" height="8" fill="#9ebacc" opacity="0.5"/>
<rect x="589.7" y="203.2" width="6" height="8" fill="#9ebacc" opacity="0.5"/>
<rect x="603.7" y="203.2" width="6" height="8" fill="#9ebacc" opacity="0.5"/>
<rect x="589.7" y="219.2" width="6" height="8" fill="#9ebacc" opacity="0.5"/>
<rect x="603.7" y="219.2" width="6" height="8" fill="#9ebacc" opacity="0.5"/>
<rect x="617.7" y="219.2" width="6" height="8" fill="#9ebacc" opacity="0.5"/>
<rect x="589.7" y="235.2" width="6" height="8" fill="#9ebacc" opacity="0.5"/>
<rect x="617.7" y="235.2" width="6" height="8" fill="#9ebacc" opacity="0.5"/>
<rect x="589.7" y="251.2" width="6" height="8" fill="#9ebacc" opacity="0.5"/>
<rect x="603.7" y="251.2" width="6" height="8" fill="#9ebacc" opacity="0.5"/>
<rect x="589.7" y="267.2" width="6" height="8" fill="#9ebacc" opacity="0.5"/>
<rect x="603.7" y="267.2" width="6" height="8" fill="#9ebacc" opacity="0.5"/>
<rect x="617.7" y="267.2" width="6" height="8" fill="#9ebacc" opacity="0.5"/>
<rect x="819.5" y="172.8" width="77.3" height="127.2" fill="#6a95b1"/>
<rect x="834.2" y="184.8" width="6" height="8" fill="#9ebacc" opacity="0.5"/>
<rect x="848.2" y="184.8" width="6" height="8" fill="#9ebacc" opacity="0.5"/>
<rect x="862.2" y="184.8" width="6" height="8" fill="#9ebacc" opacity="0.5"/>
<rect x="834.2" y="200.8" width="6" height="8" fill="#9ebacc" opacity="0.5"/>
<rect x="848.2" y="200.8" width="6" height="8" fill="#9ebacc" opacity="0.5"/>
<rect x="862.2" y="200.8" width="6" height="8" fill="#9ebacc" opacity="0.5"/>
<rect x="876.2" y="200.8" width="6" height="8" fill="#9ebacc" opacity="0.5"/>
<rect x="848.2" y="216.8" width="6" height="8" fill="#9ebacc" opacity="0.5"/>
<rect x="862.2" y="216.8" width="6" height="8" fill="#9ebacc" opacity="0.5"/>
<rect x="876.2" y="216.8" width="6" height="8" fill="#9ebacc" opacity="0.5"/>
<rect x="862.2" y="232.8" width="6" height="8" fill="#9ebacc" opacity="0.5"/>
<rect x="834.2" y="248.8" width="6" height="8" fill="#9ebacc" opacity="0.5"/>
<rect x="862.2" y="248.8" width="6" height="8" fill="#9ebacc" opacity="0.5"/>
<rect x="876.2" y="248.8" width="6" height="8" fill="#9ebacc" opacity="0.5"/>
<rect x="834.2" y="264.8" width="6" height="8" fill="#9ebacc" opacity="0.5"/>
<rect x="862.2" y="264.8" width="6" height="8" fill="#9ebacc" opacity="0.5"/>
<rect x="876.2" y="264.8" width="6" height="8" fill="#9ebacc" opacity="0.5"/>
<rect x="1026.9" y="146.7" width="47.0" height="153.3" fill="#6a95b1"/>
<rect x="1054.4" y="158.7" width="6" height="8" fill="#9ebacc" opacity="0.5"/>
<rect x="1040.4" y="174.7" width="6" height="8" fill="#9ebacc" opacity="0.5"/>
<rect x="1040.4" y="190.7" width="6" height="8" fill="#9ebacc" opacity="0.5"/>
<rect x="1054.4" y="190.7" width="6" height="8" fill="#9ebacc" opacity="0.5"/>
<rect x="1040.4" y="206.7" width="6" height="8" fill="#9ebacc" opacity="0.5"/>
<rect x="1054.4" y="206.7" width="6" height="8" fill="#9ebacc" opacity="0.5"/>
<rect x="1040.4" y="222.7" width="6" height="8" fill="#9ebacc" opacity="0.5"/>
<rect x="1054.4" y="222.7" width="6" height="8" fill="#9ebacc" opacity="0.5"/>
<rect x="1040.4" y="238.7" width="6" height="8" fill="#9ebacc" opacity="0.5"/>
<rect x="1054.4" y="238.7" width="6" height="8" fill="#9ebacc" opacity="0.5"/>
<rect x="1040.4" y="254.7" width="6" height="8" fill="#9ebacc" opacity="0.5"/>
<rect x="1054.4" y="254.7" width="6" height="8" fill="#9ebacc" opacity="0.5"/>
<rect x="1040.4" y="270.7" width="6" height="8" fill="#9ebacc" opacity="0.5"/>
<rect x="1054.4" y="270.7" width="6" height="8" fill="#9ebacc" opacity="0.5"/>
<rect x="95.6" y="118.6" width="51.8" height="181.4" fill="#457b9d"/>
<rect x="111.5" y="130.6" width="6" height="8" fill="#86a9bf" opacity="0.5"/>
<rect x="125.5" y="130.6" width="6" height="8" fill="#86a9bf" opacity="0.5"/>
<rect x="111.5" y="146.6" width="6" height="8" fill="#86a9bf" opacity="0.5"/>
<rect x="125.5" y="146.6" width="6" height="8" fill="#86a9bf" opacity="0.5"/>
<rect x="111.5" y="162.6" width="6" height="8" fill="#86a9bf" opacity="0.5"/>
<rect x="111.5" y="178.6" width="6" height="8" fill="#86a9bf" opacity="0.5"/>
<rect x="125.5" y="178.6" width="6" height="8" fill="#86a9bf" opacity="0.5"/>
<rect x="125.5" y="194.6" width="6" height="8" fill="#86a9bf" opacity="0.5"/>
<rect x="111.5" y="226.6" width="6" height="8" fill="#86a9bf" opacity="0.5"/>
<rect x="125.5" y="226.6" width="6" height="8" fill="#86a9bf" opacity="0.5"/>
<rect x="111.5" y="242.6" width="6" height="8" fill="#86a9bf" opacity="0.5"/>
<rect x="125.5" y="242.6" width="6" height="8" fill="#86a9bf" opacity="0.5"/>
<rect x="111.5" y="258.6" width="6" height="8" fill="#86a9bf" opacity="0.5"/>
<rect x="125.5" y="258.6" width="6" height="8" fill="#86a9bf" opacity="0.5"/>
<rect x="322.6" y="116.2" width="61.7" height="183.8" fill="#457b9d"/>
<rect x="336.5" y="128.2" width="6" height="8" fill="#86a9bf" opacity="0.5"/>
<rect x="364.5" y="128.2" width="6" height="8" fill="#86a9bf" opacity="0.5"/>
<rect x="336.5" y="144.2" width="6" height="8" fill="#86a9bf" opacity="0.5"/>
<rect x="350.5" y="144.2" width="6" height="8" fill="#86a9bf" opacity="0.5"/>
<rect x="364.5" y="144.2" width="6" height="8" fill="#86a9bf" opacity="0.5"/>
<rect x="336.5" y="160.2" width="6" height="8" fill="#86a9bf" opacity="0.5"/>
<rect x="350.5" y="160.2" width="6" height="8" fill="#86a9bf" opacity="0.5"/>
<rect x="364.5" y="176.2" width="6" height="8" fill="#86a9bf" opacity="0.5"/>
<rect x="336.5" y="192.2" width="6" height="8" fill="#86a9bf" opacity="0.5"/>
<rect x="350.5" y="192.2" width="6" height="8" fill="#86a9bf" opacity="0.5"/>
<rect x="336.5" y="208.2" width="6" height="8" fill="#86a9bf" opacity="0.5"/>
<rect x="364.5" y="208.2" width="6" height="8" fill="#86a9bf" opacity="0.5"/>
<rect x="364.5" y="224.2" width="6" height="8" fill="#86a9bf" opacity="0.5"/>
<rect x="336.5" y="240.2" width="6" height="8" fill="#86a9bf" opacity="0.5"/>
<rect x="350.5" y="240.2" width="6" height="8" fill="#86a9bf" opacity="0.5"/>
<rect x="364.5" y="240.2" width="6" height="8" fill="#86a9bf" opacity="0.5"/>
<rect x="336.5" y="256.2" width="6" height="8" fill="#86a9bf" opacity="0.5"/>
<rect x="364.5" y="256.2" width="6" height="8" fill="#86a9bf" opacity="0.5"/>
<rect x="336.5" y="272.2" width="6" height="8" fill="#86a9bf" opacity="0.5"/>
<rect x="350.5" y="272.2" width="6" height="8" fill="#86a9bf" opacity="0.5"/>
<rect x="364.5" y="272.2" width="6" height="8" fill="#86a9bf" opacity="0.5"/>
<rect x="580.6" y="113.2" width="33.8" height="186.8" fill="#457b9d"/>
<rect x="594.5" y="141.2" width="6" height="8" fill="#86a9bf" opacity="0.5"/>
<rect x="594.5" y="157.2" width="6" height="8" fill="#86a9bf" opacity="0.5"/>
<rect x="594.5" y="173.2" width="6" height="8" fill="#86a9bf" opacity="0.5"/>
<rect x="594.5" y="189.2" width="6" height="8" fill="#86a9bf" opacity="0.5"/>
<rect x="594.5" y="205.2" width="6" height="8" fill="#86a9bf" opacity="0.5"/>
<rect x="594.5" y="221.2" width="6" height="8" fill="#86a9bf" opacity="0.5"/>
<rect x="594.5" y="237.2" width="6" height="8" fill="#86a9bf" opacity="0.5"/>
<rect x="594.5" y="253.2" width="6" height="8" fill="#86a9bf" opacity="0.5"/>
<rect x="594.5" y="269.2" width="6" height="8" fill="#86a9bf" opacity="0.5"/>
<rect x="836.4" y="132.0" width="40.0" height="168.0" fill="#457b9d"/>
<rect x="853.4" y="160.0" width="6" height="8" fill="#86a9bf" opacity="0.5"/>
<rect x="853.4" y="192.0" width="6" height="8" fill="#86a9bf" opacity="0.5"/>
<rect x="853.4" y="208.0" width="6" height="8" fill="#86a9bf" opacity="0.5"/>
<rect x="853.4" y="224.0" width="6" height="8" fill="#86a9bf" opacity="0.5"/>
<rect x="853.4" y="240.0" width="6" height="8" fill="#86a9bf" opacity="0.5"/>
<rect x="853.4" y="256.0" width="6" height="8" fill="#86a9bf" opacity="0.5"/>
<rect x="853.4" y="272.0" width="6" height="8" fill="#86a9bf" opacity="0.5"/>
<rect x="1004.1" y="209.3" width="40.3" height="90.7" fill="#457b9d"/>
<rect x="1021.3" y="253.3" width="6" height="8" fill="#86a9bf" opacity="0.5"/>
<rect x="1021.3" y="269.3" width="6" height="8" fill="#86a9bf" opacity="0.5"/>
<rect x="0" y="298" width="1200" height="2" fill="#3e6f8d" opacity="0.15"/>
</svg>