<svg xmlns="http://www.w3.org/2000/svg" viewBox="0 0 1200 300" width="1200" height="300">
<defs>
<linearGradient id="skyGrad" x1="0" y1="0" x2="0" y2="1">
<stop offset="0%" stop-color="#818cf8"/>
<stop offset="20%" stop-color="#c4b5fd"/>
<stop offset="38%" stop-color="#fda4af"/>
<stop offset="55%" stop-color="#fdba74"/>
<stop offset="75%" stop-color="#fef08a"/>
<stop offset="100%" stop-color="#fef9c3"/>
</linearGradient>
<linearGradient id="bldg_coral" x1="0" y1="0" x2="0" y2="1"><stop offset="0%" stop-color="#fecaca"/><stop offset="100%" stop-color="#fca5a5"/></linearGradient>
<linearGradient id="bldg_teal" x1="0" y1="0" x2="0" y2="1"><stop offset="0%" stop-color="#99f6e4"/><stop offset="100%" stop-color="#5eead4"/></linearGradient>
<linearGradient id="bldg_amber" x1="0" y1="0" x2="0" y2="1"><stop offset="0%" stop-color="#fde68a"/><stop offset="100%" stop-color="#fcd34d"/></linearGradient>
<linearGradient id="bldg_lavender" x1="0" y1="0" x2="0" y2="1"><stop offset="0%" stop-color="#ddd6fe"/><stop offset="100%" stop-color="#c4b5fd"/></linearGradient>
<linearGradient id="bldg_blue" x1="0" y1="0" x2="0" y2="1"><stop offset="0%" stop-color="#bfdbfe"/><stop offset="100%" stop-color="#93c5fd"/></linearGradient>
<linearGradient id="bldg_mint" x1="0" y1="0" x2="0" y2="1"><stop offset="0%" stop-color="#a7f3d0"/><stop offset="100%" stop-color="#6ee7b7"/></linearGradient>
<linearGradient id="bldg_rose" x1="0" y1="0" x2="0" y2="1"><stop offset="0%" stop-color="#fecdd3"/><stop offset="100%" stop-color="#fda4af"/></linearGradient>
<linearGradient id="bldg_sky" x1="0" y1="0" x2="0" y2="1"><stop offset="0%" stop-color="#bae6fd"/><stop offset="100%" stop-color="#7dd3fc"/></linearGradient>
<linearGradient id="roof_navyRoof" x1="0" y1="0" x2="0" y2="1"><stop offset="0%" stop-color="#4338ca"/><stop offset="100%" stop-color="#3730a3"/></linearGradient>
<linearGradient id="roof_coralRoof" x1="0" y1="0" x2="0" y2="1"><stop offset="0%" stop-color="#f87171"/><stop offset="100%" stop-color="#ef4444"/></linearGradient>
<linearGradient id="roof_tealRoof" x1="0" y1="0" x2="0" y2="1"><stop offset="0%" stop-color="#2dd4bf"/><stop offset="100%" stop-color="#14b8a6"/></linearGradient>
<radialGradient id="windowGlow" cx="50%" cy="50%" r="50%"><stop offset="0%" stop-color="#fef08a"/><stop offset="60%" stop-color="#fbbf24"/><stop offset="100%" stop-color="#f59e0b"/></radialGradient>
<linearGradient id="hillFar" x1="0" y1="0" x2="0" y2="1"><stop offset="0%" stop-color="#c4b5fd"/><stop offset="100%" stop-color="#a5b4fc"/></linearGradient>
<linearGradient id="hillMid" x1="0" y1="0" x2="0" y2="1"><stop offset="0%" stop-color="#86efac"/><stop offset="100%" stop-color="#4ade80"/></linearGradient>
<linearGradient id="hillNear" x1="0" y1="0" x2="0" y2="1"><stop offset="0%" stop-color="#34d399"/><stop offset="100%" stop-color="#10b981"/></linearGradient>
<linearGradient id="hillDesertFar" x1="0" y1="0" x2="0" y2="1"><stop offset="0%" stop-color="#fde68a"/><stop offset="100%" stop-color="#fcd34d"/></linearGradient>
<linearGradient id="hillDesertMid" x1="0" y1="0" x2="0" y2="1"><stop offset="0%" stop-color="#fcd34d"/><stop offset="100%" stop-color="#fbbf24"/></linearGradient>
<linearGradient id="hillDesertNear" x1="0" y1="0" x2="0" y2="1"><stop offset="0%" stop-color="#fbbf24"/><stop offset="100%" stop-color="#f59e0b"/></linearGradient>
<linearGradient id="groundGrad" x1="0" y1="0" x2="0" y2="1"><stop offset="0%" stop-color="#fef3c7"/><stop offset="100%" stop-color="#fde68a"/></linearGradient>
<linearGradient id="waterGrad" x1="0" y1="0" x2="0" y2="1"><stop offset="0%" stop-color="#bfdbfe"/><stop offset="100%" stop-color="#93c5fd"/></linearGradient>
<filter id="softGlow" x="-50%" y="-50%" width="200%" height="200%"><feGaussianBlur in="SourceGraphic" stdDeviation="12"/></filter>
</defs>
<rect width="1200" height="300" fill="url(#skyGrad)"/>
<circle cx="1026.0" cy="39.0" r="45" fill="#fef08a" opacity="0.12" filter="url(#softGlow)"/>
<circle cx="1026.0" cy="39.0" r="30" fill="#fde68a" opacity="0.18" filter="url(#softGlow)"/>
<circle cx="1026.0" cy="39.0" r="16" fill="#fef9c3" opacity="0.25" filter="url(#softGlow)"/>
<ellipse cx="682.5" cy="37.2" rx="30.7" ry="10.7" fill="white" opacity="0.6"/>
<ellipse cx="663.4" cy="40.2" rx="21.5" ry="8.4" fill="white" opacity="0.6"/>
<ellipse cx="699.4" cy="39.5" rx="24.6" ry="9.2" fill="white" opacity="0.6"/>
<ellipse cx="327.7" cy="46.0" rx="42.1" ry="14.7" fill="white" opacity="0.6"/>
<ellipse cx="301.4" cy="50.2" rx="29.5" ry="11.6" fill="white" opacity="0.6"/>
<ellipse cx="350.9" cy="49.1" rx="33.7" ry="12.6" fill="white" opacity="0.5"/>
<ellipse cx="770.8" cy="47.5" rx="37.8" ry="13.2" fill="white" opacity="0.4"/>
<ellipse cx="747.1" cy="51.3" rx="26.5" ry="10.4" fill="white" opacity="0.4"/>
<ellipse cx="791.6" cy="50.4" rx="30.3" ry="11.4" fill="white" opacity="0.4"/>
<path d="M0 300 L0.0 187.3 C142.0 187.3, 142.0 186.3, 284.1 186.3 C360.8 186.3, 360.8 180.7, 437.5 180.7 C602.5 180.7, 602.5 192.0, 767.5 192.0 C877.8 192.0, 877.8 184.8, 988.2 184.8 C1094.1 184.8, 1094.1 191.4, 1200.0 191.4 L1200 300 Z" fill="url(#hillFar)" opacity="0.5"/>
<path d="M0 300 L0.0 203.6 C154.5 203.6, 154.5 212.1, 309.1 212.1 C448.4 212.1, 448.4 204.6, 587.8 204.6 C742.8 204.6, 742.8 213.3, 897.7 213.3 C1048.9 213.3, 1048.9 207.7, 1200.0 207.7 L1200 300 Z" fill="url(#hillMid)" opacity="0.7"/>
<path d="M0 300 L0.0 235.4 C145.4 235.4, 145.4 237.2, 290.8 237.2 C383.2 237.2, 383.2 230.3, 475.6 230.3 C581.2 230.3, 581.2 230.5, 686.7 230.5 C842.3 230.5, 842.3 236.0, 997.9 236.0 C1098.9 236.0, 1098.9 240.2, 1200.0 240.2 L1200 300 Z" fill="url(#hillNear)" opacity="1"/>
<rect x="231.9" y="215.1" width="47.1" height="84.9" rx="3" fill="url(#bldg_sky)" opacity="0.7"/>
<polygon points="231.9,215.1 255.5,199.1 279.1,215.1" fill="url(#roof_coralRoof)" opacity="0.7"/>
<rect x="245.5" y="225.1" width="6" height="8" rx="1" fill="url(#windowGlow)" opacity="0.7876077863795719"/>
<rect x="259.5" y="225.1" width="6" height="8" rx="1" fill="url(#windowGlow)" opacity="0.8468402779413574"/>
<rect x="245.5" y="240.1" width="6" height="8" rx="1" fill="url(#windowGlow)" opacity="0.8002348513809194"/>
<rect x="245.5" y="255.1" width="6" height="8" rx="1" fill="url(#windowGlow)" opacity="0.8102140146355209"/>
<rect x="259.5" y="255.1" width="6" height="8" rx="1" fill="url(#windowGlow)" opacity="0.9155720891969148"/>
<rect x="534.9" y="204.9" width="49.9" height="95.1" rx="3" fill="url(#bldg_coral)" opacity="0.7"/>
<polygon points="534.9,204.9 559.9,189.4 584.8,204.9" fill="url(#roof_tealRoof)" opacity="0.7"/>
<rect x="549.9" y="214.9" width="6" height="8" rx="1" fill="url(#windowGlow)" opacity="0.8749822832993148"/>
<rect x="549.9" y="229.9" width="6" height="8" rx="1" fill="url(#windowGlow)" opacity="0.96015310551047"/>
<rect x="563.9" y="229.9" width="6" height="8" rx="1" fill="url(#windowGlow)" opacity="0.888494101068235"/>
<rect x="549.9" y="244.9" width="6" height="8" rx="1" fill="url(#windowGlow)" opacity="0.8803384089750882"/>
<rect x="549.9" y="259.9" width="6" height="8" rx="1" fill="url(#windowGlow)" opacity="0.9958588581512956"/>
<rect x="563.9" y="259.9" width="6" height="8" rx="1" fill="url(#windowGlow)" opacity="0.9051062012580717"/>
<rect x="911.2" y="234.2" width="62.6" height="65.8" rx="3" fill="url(#bldg_teal)" opacity="0.7"/>
<polygon points="911.2,234.2 942.5,213.9 973.8,234.2" fill="url(#roof_navyRoof)" opacity="0.7"/>
<rect x="925.5" y="244.2" width="6" height="8" rx="1" fill="url(#windowGlow)" opacity="0.7999511539935837"/>
<rect x="925.5" y="259.2" width="6" height="8" rx="1" fill="url(#windowGlow)" opacity="0.7558798854965156"/>
<rect x="939.5" y="259.2" width="6" height="8" rx="1" fill="url(#windowGlow)" opacity="0.7653145235801648"/>
<rect x="953.5" y="259.2" width="6" height="8" rx="1" fill="url(#windowGlow)" opacity="0.838631979766596"/>
<rect x="195.6" y="194.8" width="72.7" height="105.2" rx="3" fill="url(#bldg_amber)" opacity="0.85"/>
<rect x="210.1" y="182.2" width="43.6" height="12.6" rx="2" fill="url(#roof_coralRoof)" opacity="0.85"/>
<rect x="221.9" y="204.8" width="6" height="8" rx="1" fill="url(#windowGlow)" opacity="0.7908597098620886"/>
<rect x="249.9" y="204.8" width="6" height="8" rx="1" fill="url(#windowGlow)" opacity="0.8476510865370049"/>
<rect x="207.9" y="219.8" width="6" height="8" rx="1" fill="url(#windowGlow)" opacity="0.8655056179340489"/>
<rect x="221.9" y="219.8" width="6" height="8" rx="1" fill="url(#windowGlow)" opacity="0.7915263305844396"/>
<rect x="235.9" y="219.8" width="6" height="8" rx="1" fill="url(#windowGlow)" opacity="0.8560491933282693"/>
<rect x="249.9" y="219.8" width="6" height="8" rx="1" fill="url(#windowGlow)" opacity="0.949213517666428"/>
<rect x="207.9" y="234.8" width="6" height="8" rx="1" fill="url(#windowGlow)" opacity="0.7812536295881745"/>
<rect x="221.9" y="234.8" width="6" height="8" rx="1" fill="url(#windowGlow)" opacity="0.8612445212720169"/>
<rect x="235.9" y="234.8" width="6" height="8" rx="1" fill="url(#windowGlow)" opacity="0.8226950357308123"/>
<rect x="249.9" y="234.8" width="6" height="8" rx="1" fill="url(#windowGlow)" opacity="0.819499329253798"/>
<rect x="207.9" y="249.8" width="6" height="8" rx="1" fill="url(#windowGlow)" opacity="0.8905620389574029"/>
<rect x="235.9" y="249.8" width="6" height="8" rx="1" fill="url(#windowGlow)" opacity="0.8226722231240348"/>
<path d="M231.9 231.6 L261.0 231.6 L258.0 237.6 L234.9 237.6 Z" fill="url(#roof_navyRoof)" opacity="0.68"/>
<rect x="586.7" y="218.5" width="79.2" height="81.5" rx="3" fill="url(#bldg_lavender)" opacity="0.85"/>
<polygon points="586.7,218.5 626.3,196.5 665.9,218.5" fill="url(#roof_tealRoof)" opacity="0.85"/>
<rect x="602.3" y="228.5" width="6" height="8" rx="1" fill="url(#windowGlow)" opacity="0.8728718191258943"/>
<rect x="616.3" y="228.5" width="6" height="8" rx="1" fill="url(#windowGlow)" opacity="0.8154679241196569"/>
<rect x="630.3" y="228.5" width="6" height="8" rx="1" fill="url(#windowGlow)" opacity="0.782450505850115"/>
<rect x="644.3" y="228.5" width="6" height="8" rx="1" fill="url(#windowGlow)" opacity="0.9933131144816583"/>
<rect x="602.3" y="243.5" width="6" height="8" rx="1" fill="url(#windowGlow)" opacity="0.7951817746717398"/>
<rect x="616.3" y="243.5" width="6" height="8" rx="1" fill="url(#windowGlow)" opacity="0.9301195978327279"/>
<rect x="630.3" y="243.5" width="6" height="8" rx="1" fill="url(#windowGlow)" opacity="0.7678091996665155"/>
<rect x="602.3" y="258.5" width="6" height="8" rx="1" fill="url(#windowGlow)" opacity="0.8634106706191835"/>
<rect x="616.3" y="258.5" width="6" height="8" rx="1" fill="url(#windowGlow)" opacity="0.8844637150338216"/>
<rect x="644.3" y="258.5" width="6" height="8" rx="1" fill="url(#windowGlow)" opacity="0.7502466817620427"/>
<path d="M626.3 247.0 L658.0 247.0 L655.0 253.0 L629.3 253.0 Z" fill="url(#roof_coralRoof)" opacity="0.68"/>
<rect x="922.2" y="189.4" width="67.4" height="110.6" rx="3" fill="url(#bldg_blue)" opacity="0.85"/>
<polygon points="922.2,189.4 955.9,171.9 989.6,189.4" fill="url(#roof_navyRoof)" opacity="0.85"/>
<rect x="938.9" y="199.4" width="6" height="8" rx="1" fill="url(#windowGlow)" opacity="0.9096538892992091"/>
<rect x="952.9" y="199.4" width="6" height="8" rx="1" fill="url(#windowGlow)" opacity="0.8355029271615216"/>
<rect x="938.9" y="214.4" width="6" height="8" rx="1" fill="url(#windowGlow)" opacity="0.8152007910493765"/>
<rect x="952.9" y="214.4" width="6" height="8" rx="1" fill="url(#windowGlow)" opacity="0.8311140971403168"/>
<rect x="938.9" y="229.4" width="6" height="8" rx="1" fill="url(#windowGlow)" opacity="0.9879971100427196"/>
<rect x="952.9" y="229.4" width="6" height="8" rx="1" fill="url(#windowGlow)" opacity="0.8150901467143977"/>
<rect x="966.9" y="229.4" width="6" height="8" rx="1" fill="url(#windowGlow)" opacity="0.8501965861535614"/>
<rect x="938.9" y="244.4" width="6" height="8" rx="1" fill="url(#windowGlow)" opacity="0.9997434004674401"/>
<rect x="952.9" y="244.4" width="6" height="8" rx="1" fill="url(#windowGlow)" opacity="0.7085619785862798"/>
<rect x="966.9" y="244.4" width="6" height="8" rx="1" fill="url(#windowGlow)" opacity="0.7376602675941122"/>
<rect x="938.9" y="259.4" width="6" height="8" rx="1" fill="url(#windowGlow)" opacity="0.8971676416681929"/>
<rect x="952.9" y="259.4" width="6" height="8" rx="1" fill="url(#windowGlow)" opacity="0.9315960566660371"/>
<rect x="966.9" y="259.4" width="6" height="8" rx="1" fill="url(#windowGlow)" opacity="0.9996782308908543"/>
<rect x="192.0" y="157.5" width="59.7" height="142.5" rx="3" fill="url(#bldg_mint)" opacity="1"/>
<polygon points="192.0,157.5 221.8,142.6 251.7,157.5" fill="url(#roof_coralRoof)" opacity="1"/>
<rect x="204.8" y="167.5" width="6" height="8" rx="1" fill="url(#windowGlow)" opacity="0.8932199797095823"/>
<rect x="218.8" y="167.5" width="6" height="8" rx="1" fill="url(#windowGlow)" opacity="0.8276565847115854"/>
<rect x="232.8" y="167.5" width="6" height="8" rx="1" fill="url(#windowGlow)" opacity="0.8913821395912124"/>
<rect x="204.8" y="182.5" width="6" height="8" rx="1" fill="url(#windowGlow)" opacity="0.7952394383937303"/>
<rect x="218.8" y="182.5" width="6" height="8" rx="1" fill="url(#windowGlow)" opacity="0.9692742231158885"/>
<rect x="204.8" y="197.5" width="6" height="8" rx="1" fill="url(#windowGlow)" opacity="0.9156336722968302"/>
<rect x="218.8" y="197.5" width="6" height="8" rx="1" fill="url(#windowGlow)" opacity="0.8327654258034962"/>
<rect x="232.8" y="197.5" width="6" height="8" rx="1" fill="url(#windowGlow)" opacity="0.807522913397999"/>
<rect x="204.8" y="212.5" width="6" height="8" rx="1" fill="url(#windowGlow)" opacity="0.7008336870003649"/>
<rect x="232.8" y="212.5" width="6" height="8" rx="1" fill="url(#windowGlow)" opacity="0.8186231631872352"/>
<rect x="204.8" y="227.5" width="6" height="8" rx="1" fill="url(#windowGlow)" opacity="0.8346390883599589"/>
<rect x="218.8" y="227.5" width="6" height="8" rx="1" fill="url(#windowGlow)" opacity="0.776573761727928"/>
<rect x="232.8" y="227.5" width="6" height="8" rx="1" fill="url(#windowGlow)" opacity="0.9203383179010536"/>
<rect x="204.8" y="242.5" width="6" height="8" rx="1" fill="url(#windowGlow)" opacity="0.9320787907261767"/>
<rect x="218.8" y="242.5" width="6" height="8" rx="1" fill="url(#windowGlow)" opacity="0.9649927489296499"/>
<rect x="232.8" y="242.5" width="6" height="8" rx="1" fill="url(#windowGlow)" opacity="0.8467312580192141"/>
<rect x="204.8" y="257.5" width="6" height="8" rx="1" fill="url(#windowGlow)" opacity="0.941346131051586"/>
<rect x="218.8" y="257.5" width="6" height="8" rx="1" fill="url(#windowGlow)" opacity="0.7000158648472353"/>
<rect x="232.8" y="257.5" width="6" height="8" rx="1" fill="url(#windowGlow)" opacity="0.7309946003048655"/>
<rect x="216.8" y="284.0" width="10" height="16" rx="2" fill="url(#roof_navyRoof)" opacity="0.8"/>
<rect x="218.8" y="287.0" width="6" height="10" rx="1" fill="url(#windowGlow)" opacity="0.45"/>
<rect x="211.4" y="183.5" width="20.9" height="5" rx="1" fill="#15803d" opacity="0.7"/>
<circle cx="214.4" cy="182.5" r="2.5" fill="#fb923c" opacity="0.85"/>
<circle cx="221.4" cy="182.5" r="2.5" fill="#f87171" opacity="0.85"/>
<circle cx="228.3" cy="182.5" r="2.5" fill="#f87171" opacity="0.85"/>
<rect x="600.1" y="178.1" width="36.2" height="121.9" rx="3" fill="url(#bldg_rose)" opacity="1"/>
<rect x="607.4" y="163.4" width="21.7" height="14.6" rx="2" fill="url(#roof_tealRoof)" opacity="1"/>
<rect x="615.2" y="188.1" width="6" height="8" rx="1" fill="url(#windowGlow)" opacity="0.7899879048997479"/>
<rect x="615.2" y="203.1" width="6" height="8" rx="1" fill="url(#windowGlow)" opacity="0.9161785437800821"/>
<rect x="615.2" y="233.1" width="6" height="8" rx="1" fill="url(#windowGlow)" opacity="0.7713360015169419"/>
<rect x="615.2" y="248.1" width="6" height="8" rx="1" fill="url(#windowGlow)" opacity="0.7210338796121225"/>
<rect x="613.2" y="284.0" width="10" height="16" rx="2" fill="url(#roof_navyRoof)" opacity="0.8"/>
<rect x="615.2" y="287.0" width="6" height="10" rx="1" fill="url(#windowGlow)" opacity="0.45"/>
<rect x="611.9" y="219.1" width="12.7" height="5" rx="1" fill="#15803d" opacity="0.7"/>
<circle cx="614.9" cy="218.1" r="2.5" fill="#fbbf24" opacity="0.85"/>
<circle cx="619.1" cy="218.1" r="2.5" fill="#fb923c" opacity="0.85"/>
<circle cx="623.3" cy="218.1" r="2.5" fill="#fb923c" opacity="0.85"/>
<rect x="962.8" y="174.3" width="60.1" height="125.7" rx="3" fill="url(#bldg_sky)" opacity="1"/>
<rect x="974.8" y="159.2" width="36.1" height="15.1" rx="2" fill="url(#roof_navyRoof)" opacity="1"/>
<rect x="975.8" y="199.3" width="6" height="8" rx="1" fill="url(#windowGlow)" opacity="0.8160653022192722"/>
<rect x="1003.8" y="199.3" width="6" height="8" rx="1" fill="url(#windowGlow)" opacity="0.9675096859538506"/>
<rect x="975.8" y="214.3" width="6" height="8" rx="1" fill="url(#windowGlow)" opacity="0.860296139102567"/>
<rect x="989.8" y="214.3" width="6" height="8" rx="1" fill="url(#windowGlow)" opacity="0.9608872297503459"/>
<rect x="1003.8" y="214.3" width="6" height="8" rx="1" fill="url(#windowGlow)" opacity="0.7519227651189653"/>
<rect x="975.8" y="229.3" width="6" height="8" rx="1" fill="url(#windowGlow)" opacity="0.8479005680176898"/>
<rect x="989.8" y="229.3" width="6" height="8" rx="1" fill="url(#windowGlow)" opacity="0.8922937091404077"/>
<rect x="975.8" y="244.3" width="6" height="8" rx="1" fill="url(#windowGlow)" opacity="0.9658846666877552"/>
<rect x="989.8" y="244.3" width="6" height="8" rx="1" fill="url(#windowGlow)" opacity="0.7844787944035971"/>
<rect x="975.8" y="259.3" width="6" height="8" rx="1" fill="url(#windowGlow)" opacity="0.9923297308815315"/>
<rect x="989.8" y="259.3" width="6" height="8" rx="1" fill="url(#windowGlow)" opacity="0.7363569850271366"/>
<rect x="987.8" y="284.0" width="10" height="16" rx="2" fill="url(#roof_navyRoof)" opacity="0.8"/>
<rect x="989.8" y="287.0" width="6" height="10" rx="1" fill="url(#windowGlow)" opacity="0.45"/>
<path d="M968.8 218.3 L992.8 218.3 L989.8 224.3 L971.8 224.3 Z" fill="url(#roof_tealRoof)" opacity="0.8"/>
<rect x="422.9" y="267.5" width="6" height="17.5" rx="2" fill="#15803d"/>
<circle cx="425.9" cy="254.9" r="16.6" fill="#22c55e" opacity="0.9"/>
<circle cx="419.1" cy="257.9" r="12.5" fill="#16a34a" opacity="0.8"/>
<circle cx="432.1" cy="258.9" r="11.6" fill="#15803d" opacity="0.7"/>
<rect x="796.6" y="267.5" width="6" height="17.5" rx="2" fill="#15803d"/>
<circle cx="799.6" cy="256.6" r="15.0" fill="#22c55e" opacity="0.9"/>
<circle cx="793.2" cy="259.6" r="11.2" fill="#16a34a" opacity="0.8"/>
<circle cx="806.4" cy="260.6" r="10.5" fill="#15803d" opacity="0.7"/>
<rect x="144.1" y="265.4" width="6" height="19.6" rx="2" fill="#15803d"/>
<circle cx="147.1" cy="252.2" r="17.2" fill="#22c55e" opacity="0.9"/>
<circle cx="138.5" cy="255.2" r="12.9" fill="#16a34a" opacity="0.8"/>
<circle cx="154.0" cy="256.2" r="12.1" fill="#15803d" opacity="0.7"/>
<rect x="1042.1" y="266.9" width="6" height="18.1" rx="2" fill="#15803d"/>
<circle cx="1045.1" cy="254.5" r="16.3" fill="#22c55e" opacity="0.9"/>
<circle cx="1037.8" cy="257.5" r="12.2" fill="#16a34a" opacity="0.8"/>
<circle cx="1050.5" cy="258.5" r="11.4" fill="#15803d" opacity="0.7"/>
<rect x="812.4" y="263.7" width="6" height="21.3" rx="2" fill="#15803d"/>
<circle cx="815.4" cy="250.7" r="17.1" fill="#22c55e" opacity="0.9"/>
<circle cx="807.9" cy="253.7" r="12.8" fill="#16a34a" opacity="0.8"/>
<circle cx="821.5" cy="254.7" r="12.0" fill="#15803d" opacity="0.7"/>
<rect x="987.6" y="265.8" width="6" height="19.2" rx="2" fill="#15803d"/>
<circle cx="990.6" cy="252.3" r="17.6" fill="#22c55e" opacity="0.9"/>
<circle cx="984.4" cy="255.3" r="13.2" fill="#16a34a" opacity="0.8"/>
<circle cx="998.0" cy="256.3" r="12.3" fill="#15803d" opacity="0.7"/>
<rect x="980.3" y="266.0" width="6" height="19.0" rx="2" fill="#15803d"/>
<circle cx="983.3" cy="255.3" r="14.7" fill="#22c55e" opacity="0.9"/>
<circle cx="977.1" cy="258.3" r="11.0" fill="#16a34a" opacity="0.8"/>
<circle cx="991.0" cy="259.3" r="10.3" fill="#15803d" opacity="0.7"/>
<rect x="664.1" y="268.5" width="6" height="16.5" rx="2" fill="#15803d"/>
<circle cx="667.1" cy="259.4" r="13.2" fill="#22c55e" opacity="0.9"/>
<circle cx="659.8" cy="262.4" r="9.9" fill="#16a34a" opacity="0.8"/>
<circle cx="673.7" cy="263.4" r="9.2" fill="#15803d" opacity="0.7"/>
<rect x="1002.2" y="264.0" width="6" height="21.0" rx="2" fill="#15803d"/>
<circle cx="1005.2" cy="251.1" r="16.9" fill="#22c55e" opacity="0.9"/>
<circle cx="996.4" cy="254.1" r="12.7" fill="#16a34a" opacity="0.8"/>
<circle cx="1012.4" cy="255.1" r="11.8" fill="#15803d" opacity="0.7"/>
<rect x="578.1" y="268.2" width="6" height="16.8" rx="2" fill="#15803d"/>
<circle cx="581.1" cy="255.8" r="16.4" fill="#22c55e" opacity="0.9"/>
<circle cx="573.2" cy="258.8" r="12.3" fill="#16a34a" opacity="0.8"/>
<circle cx="588.2" cy="259.8" r="11.5" fill="#15803d" opacity="0.7"/>
<rect x="0" y="282" width="1200" height="18" fill="url(#groundGrad)"/>
<line x1="765.5" y1="282.0" x2="765.5" y2="240.9" stroke="#92400e" stroke-width="2"/>
<circle cx="765.5" cy="240.9" r="4" fill="#fef08a" opacity="0.6"/>
<circle cx="765.5" cy="240.9" r="8" fill="#fef08a" opacity="0.15" filter="url(#softGlow)"/>
<ellipse cx="72.6" cy="282.0" rx="6.4" ry="4.5" fill="#22c55e" opacity="0.6"/>
<ellipse cx="583.4" cy="282.0" rx="5.7" ry="4.0" fill="#22c55e" opacity="0.6"/>
<ellipse cx="195.7" cy="282.0" rx="4.7" ry="3.3" fill="#22c55e" opacity="0.6"/>
</svg>