<svg xmlns="http://www.w3.org/2000/svg" viewBox="0 0 1200 300" width="1200" height="300">
<defs><linearGradient id="skyGrad" x1="0" y1="0" x2="0" y2="1"><stop offset="0%" stop-color="#e6ecf2"/><stop offset="100%" stop-color="#f0eeec"/></linearGradient></defs><rect width="1200" height="300" fill="url(#skyGrad)"/>
<path d="M0 300 L0 205.5 C262.6 185.2, 920.6 194.1, 1200 205.5 L1200 300 Z" fill="#b5cad8" opacity="0.25"/>
<rect x="125.4" y="188.4" width="45.6" height="111.6" fill="#99b6c9"/>
<rect x="425.7" y="195.2" width="78.7" height="104.8" fill="#99b6c9"/>
<rect x="664.1" y="213.5" width="81.0" height="86.5" fill="#99b6c9"/>
<polygon points="664.1,213.5 704.6,193.3 745.2,213.5" fill="#8da7b9"/>
<rect x="990.2" y="182.3" width="76.2" height="117.7" fill="#99b6c9"/>
<polygon points="990.2,182.3 1028.3,163.2 1066.4,182.3" fill="#8da7b9"/>
<rect x="90.9" y="146.6" width="57.7" height="153.4" fill="#6a95b1"/>
<rect x="109.8" y="158.6" width="6" height="8" fill="#9ebacc" opacity="0.5"/>
<rect x="123.8" y="174.6" width="6" height="8" fill="#9ebacc" opacity="0.5"/>
<rect x="109.8" y="190.6" width="6" height="8" fill="#9ebacc" opacity="0.5"/>
<rect x="123.8" y="190.6" width="6" height="8" fill="#9ebacc" opacity="0.5"/>
<rect x="109.8" y="206.6" width="6" height="8" fill="#9ebacc" opacity="0.5"/>
<rect x="123.8" y="206.6" width="6" height="8" fill="#9ebacc" opacity="0.5"/>
<rect x="123.8" y="222.6" width="6" height="8" fill="#9ebacc" opacity="0.5"/>
<rect x="123.8" y="238.6" width="6" height="8" fill="#9ebacc" opacity="0.5"/>
<rect x="309.9" y="157.5" width="75.3" height="142.5" fill="#6a95b1"/>
<rect x="330.5" y="169.5" width="6" height="8" fill="#9ebacc" opacity="0.5"/>
<rect x="344.5" y="169.5" width="6" height="8" fill="#9ebacc" opacity="0.5"/>
<rect x="330.5" y="185.5" width="6" height="8" fill="#9ebacc" opacity="0.5"/>
<rect x="344.5" y="185.5" width="6" height="8" fill="#9ebacc" opacity="0.5"/>
<rect x="358.5" y="185.5" width="6" height="8" fill="#9ebacc" opacity="0.5"/>
<rect x="330.5" y="201.5" width="6" height="8" fill="#9ebacc" opacity="0.5"/>
<rect x="344.5" y="201.5" width="6" height="8" fill="#9ebacc" opacity="0.5"/>
<rect x="358.5" y="201.5" width="6" height="8" fill="#9ebacc" opacity="0.5"/>
<rect x="330.5" y="217.5" width="6" height="8" fill="#9ebacc" opacity="0.5"/>
<rect x="358.5" y="217.5" width="6" height="8" fill="#9ebacc" opacity="0.5"/>
<rect x="358.5" y="233.5" width="6" height="8" fill="#9ebacc" opacity="0.5"/>
<rect x="330.5" y="249.5" width="6" height="8" fill="#9ebacc" opacity="0.5"/>
<rect x="344.5" y="249.5" width="6" height="8" fill="#9ebacc" opacity="0.5"/>
<rect x="571.3" y="139.4" width="61.9" height="160.6" fill="#6a95b1"/>
<polygon points="571.3,139.4 602.3,124.0 633.2,139.4" fill="#6289a3"/>
<rect x="585.3" y="151.4" width="6" height="8" fill="#9ebacc" opacity="0.5"/>
<rect x="599.3" y="151.4" width="6" height="8" fill="#9ebacc" opacity="0.5"/>
<rect x="613.3" y="151.4" width="6" height="8" fill="#9ebacc" opacity="0.5"/>
<rect x="585.3" y="167.4" width="6" height="8" fill="#9ebacc" opacity="0.5"/>
<rect x="613.3" y="167.4" width="6" height="8" fill="#9ebacc" opacity="0.5"/>
<rect x="585.3" y="183.4" width="6" height="8" fill="#9ebacc" opacity="0.5"/>
<rect x="599.3" y="183.4" width="6" height="8" fill="#9ebacc" opacity="0.5"/>
<rect x="585.3" y="199.4" width="6" height="8" fill="#9ebacc" opacity="0.5"/>
<rect x="599.3" y="199.4" width="6" height="8" fill="#9ebacc" opacity="0.5"/>
<rect x="585.3" y="215.4" width="6" height="8" fill="#9ebacc" opacity="0.5"/>
<rect x="613.3" y="215.4" width="6" height="8" fill="#9ebacc" opacity="0.5"/>
<rect x="599.3" y="231.4" width="6" height="8" fill="#9ebacc" opacity="0.5"/>
<rect x="613.3" y="231.4" width="6" height="8" fill="#9ebacc" opacity="0.5"/>
<rect x="793.5" y="198.7" width="77.4" height="101.3" fill="#6a95b1"/>
<rect x="815.1" y="210.7" width="6" height="8" fill="#9ebacc" opacity="0.5"/>
<rect x="843.1" y="210.7" width="6" height="8" fill="#9ebacc" opacity="0.5"/>
<rect x="815.1" y="226.7" width="6" height="8" fill="#9ebacc" opacity="0.5"/>
<rect x="829.1" y="242.7" width="6" height="8" fill="#9ebacc" opacity="0.5"/>
<rect x="815.1" y="258.7" width="6" height="8" fill="#9ebacc" opacity="0.5"/>
<rect x="843.1" y="258.7" width="6" height="8" fill="#9ebacc" opacity="0.5"/>
<rect x="1053.6" y="197.5" width="53.8" height="102.5" fill="#6a95b1"/>
<rect x="1063.0" y="179.5" width="35.0" height="18.1" fill="#658ea8"/>
<rect x="1070.5" y="191.5" width="6" height="8" fill="#9ebacc" opacity="0.5"/>
<rect x="1084.5" y="223.5" width="6" height="8" fill="#9ebacc" opacity="0.5"/>
<rect x="1070.5" y="239.5" width="6" height="8" fill="#9ebacc" opacity="0.5"/>
<rect x="1070.5" y="255.5" width="6" height="8" fill="#9ebacc" opacity="0.5"/>
<rect x="1084.5" y="255.5" width="6" height="8" fill="#9ebacc" opacity="0.5"/>
<rect x="1084.5" y="271.5" width="6" height="8" fill="#9ebacc" opacity="0.5"/>
<rect x="153.0" y="148.2" width="37.7" height="151.8" fill="#457b9d"/>
<rect x="168.8" y="160.2" width="6" height="8" fill="#86a9bf" opacity="0.5"/>
<rect x="168.8" y="176.2" width="6" height="8" fill="#86a9bf" opacity="0.5"/>
<rect x="168.8" y="192.2" width="6" height="8" fill="#86a9bf" opacity="0.5"/>
<rect x="168.8" y="224.2" width="6" height="8" fill="#86a9bf" opacity="0.5"/>
<rect x="168.8" y="240.2" width="6" height="8" fill="#86a9bf" opacity="0.5"/>
<rect x="380.8" y="239.0" width="40.3" height="61.0" fill="#457b9d"/>
<polygon points="380.8,239.0 401.0,228.9 421.1,239.0" fill="#3f7190"/>
<rect x="398.0" y="251.0" width="6" height="8" fill="#86a9bf" opacity="0.5"/>
<rect x="398.0" y="267.0" width="6" height="8" fill="#86a9bf" opacity="0.5"/>
<rect x="605.0" y="230.9" width="50.8" height="69.1" fill="#457b9d"/>
<rect x="613.9" y="218.7" width="33.0" height="12.2" fill="#427595"/>
<rect x="620.4" y="230.7" width="6" height="8" fill="#86a9bf" opacity="0.5"/>
<rect x="634.4" y="230.7" width="6" height="8" fill="#86a9bf" opacity="0.5"/>
<rect x="634.4" y="246.7" width="6" height="8" fill="#86a9bf" opacity="0.5"/>
<rect x="620.4" y="262.7" width="6" height="8" fill="#86a9bf" opacity="0.5"/>
<rect x="814.0" y="217.8" width="71.2" height="82.2" fill="#457b9d"/>
<rect x="860.6" y="229.8" width="6" height="8" fill="#86a9bf" opacity="0.5"/>
<rect x="832.6" y="245.8" width="6" height="8" fill="#86a9bf" opacity="0.5"/>
<rect x="846.6" y="245.8" width="6" height="8" fill="#86a9bf" opacity="0.5"/>
<rect x="860.6" y="245.8" width="6" height="8" fill="#86a9bf" opacity="0.5"/>
<rect x="832.6" y="261.8" width="6" height="8" fill="#86a9bf" opacity="0.5"/>
<rect x="846.6" y="261.8" width="6" height="8" fill="#86a9bf" opacity="0.5"/>
<rect x="1025.6" y="244.3" width="31.6" height="55.7" fill="#457b9d"/>
<polygon points="1025.6,244.3 1041.4,236.4 1057.2,244.3" fill="#3f7190"/>
<line x1="285.7" y1="285.0" x2="285.7" y2="269.7" stroke="#6b5a42" stroke-width="3"/>
<circle cx="285.7" cy="256.3" r="13.4" fill="#588949"/>
<line x1="513.0" y1="285.0" x2="513.0" y2="273.7" stroke="#6b5a42" stroke-width="3"/>
<circle cx="513.0" cy="258.4" r="15.3" fill="#507c41"/>
<line x1="734.9" y1="285.0" x2="734.9" y2="271.3" stroke="#6b5a42" stroke-width="3"/>
<circle cx="734.9" cy="259.2" r="12.1" fill="#538245"/>
<line x1="955.4" y1="285.0" x2="955.4" y2="274.0" stroke="#6b5a42" stroke-width="3"/>
<circle cx="955.4" cy="256.0" r="18.0" fill="#588949"/>
<line x1="978.8" y1="285.0" x2="978.8" y2="274.8" stroke="#6b5a42" stroke-width="3"/>
<circle cx="978.8" cy="260.4" r="14.4" fill="#568647"/>
<line x1="399.0" y1="285.0" x2="399.0" y2="270.8" stroke="#6b5a42" stroke-width="3"/>
<circle cx="399.0" cy="255.2" r="15.6" fill="#558446"/>
<line x1="728.5" y1="285.0" x2="728.5" y2="274.0" stroke="#6b5a42" stroke-width="3"/>
<circle cx="728.5" cy="257.9" r="16.1" fill="#568647"/>
<line x1="893.8" y1="285.0" x2="893.8" y2="272.2" stroke="#6b5a42" stroke-width="3"/>
<circle cx="893.8" cy="257.6" r="14.6" fill="#598a49"/>
<rect x="0" y="285" width="1200" height="15" fill="#9aaa85" opacity="0.4"/>
</svg>