<svg xmlns="http://www.w3.org/2000/svg" viewBox="0 0 1200 400" width="1200" height="400">
<defs>
<linearGradient id="bg" x1="0" y1="0" x2="0" y2="1"><stop offset="0%" stop-color="#166534"/><stop offset="100%" stop-color="#3b82f6"/></linearGradient>
<linearGradient id="warm" x1="0" y1="0" x2="1" y2="1"><stop offset="0%" stop-color="#858d98" stop-opacity="0.18"/><stop offset="100%" stop-color="#858d98" stop-opacity="0.06"/></linearGradient>
</defs>
<rect width="1200" height="400" fill="url(#bg)"/>
<path d="M0 400 L0 245.72427050554876 C60.0 251.2, 90.0 227.7, 150.0 225.9 C210.0 229.5, 240.0 253.0, 300.0 246.6 C360.0 237.8, 390.0 241.1, 450.0 242.9 C510.0 247.4, 540.0 241.1, 600.0 240.9 C660.0 248.3, 690.0 251.8, 750.0 251.8 C810.0 244.7, 840.0 232.6, 900.0 225.4 C960.0 233.4, 990.0 222.1, 1050.0 229.3 C1110.0 234.0, 1140.0 251.9, 1200.0 249.9 L1200 400 Z" fill="#2e78b2" opacity="0.45"/>
<path d="M0 400 L0 270.38565724485375 C52.5 276.5, 97.5 283.8, 150.0 280.7 C202.5 276.7, 247.5 287.1, 300.0 280.8 C352.5 274.5, 397.5 270.7, 450.0 271.2 C502.5 277.9, 547.5 259.7, 600.0 263.9 C652.5 270.1, 697.5 272.4, 750.0 267.7 C802.5 263.6, 847.5 271.7, 900.0 278.7 C952.5 275.5, 997.5 262.6, 1050.0 269.3 C1102.5 274.0, 1147.5 262.6, 1200.0 261.5 L1200 400 Z" fill="#3b82f6" opacity="0.3"/>
<rect x="850.9" y="364.2" width="16.1" height="35.8" rx="5.0" fill="#bb891d" opacity="0.58"/>
<rect x="620.0" y="312.9" width="43.1" height="87.1" rx="7.9" fill="#878676" opacity="0.58"/>
<rect x="639.4" y="322.9" width="4" height="5" rx="0.5" fill="#166534" opacity="0.6"/>
<rect x="625.0" y="344.9" width="4" height="5" rx="0.5" fill="#166534" opacity="0.6"/>
<rect x="639.4" y="344.9" width="4" height="5" rx="0.5" fill="#166534" opacity="0.6"/>
<rect x="625.0" y="366.9" width="4" height="5" rx="0.5" fill="#166534" opacity="0.6"/>
<rect x="723.0" y="314.7" width="38.4" height="85.3" rx="6.5" fill="#998757" opacity="0.84"/>
<rect x="740.8" y="324.7" width="4" height="5" rx="0.5" fill="#166534" opacity="0.6"/>
<rect x="728.0" y="368.7" width="4" height="5" rx="0.5" fill="#166534" opacity="0.6"/>
<rect x="740.8" y="368.7" width="4" height="5" rx="0.5" fill="#166534" opacity="0.6"/>
<rect x="304.2" y="336.3" width="31.7" height="63.7" rx="6.9" fill="#aa8839" opacity="0.76"/>
<rect x="832.7" y="345.8" width="39.3" height="54.2" rx="7.2" fill="#988759" opacity="0.53"/>
<rect x="406.0" y="280.0" width="39.9" height="120.0" rx="6.1" fill="#b2892d" opacity="0.71"/>
<rect x="783.3" y="267.5" width="39.7" height="132.5" rx="6.4" fill="#be8918" opacity="0.79"/>
<rect x="801.5" y="299.5" width="4" height="5" rx="0.5" fill="#166534" opacity="0.6"/>
<rect x="801.5" y="343.5" width="4" height="5" rx="0.5" fill="#166534" opacity="0.6"/>
<rect x="130.3" y="323.1" width="29.6" height="76.9" rx="4.3" fill="#b08930" opacity="0.50"/>
<rect x="332.3" y="319.6" width="39.6" height="80.4" rx="5.8" fill="#96875b" opacity="0.61"/>
<rect x="337.3" y="329.6" width="4" height="5" rx="0.5" fill="#166534" opacity="0.6"/>
<rect x="350.5" y="329.6" width="4" height="5" rx="0.5" fill="#166534" opacity="0.6"/>
<rect x="337.3" y="351.6" width="4" height="5" rx="0.5" fill="#166534" opacity="0.6"/>
<rect x="350.5" y="351.6" width="4" height="5" rx="0.5" fill="#166534" opacity="0.6"/>
<rect x="350.5" y="373.6" width="4" height="5" rx="0.5" fill="#166534" opacity="0.6"/>
<rect x="512.6" y="344.0" width="32.4" height="56.0" rx="6.3" fill="#a8883e" opacity="0.69"/>
<rect x="866.9" y="364.8" width="36.1" height="35.2" rx="5.0" fill="#c38a0f" opacity="0.76"/>
<rect x="617.1" y="354.2" width="19.2" height="45.8" rx="7.5" fill="#998758" opacity="0.62"/>
<rect x="383.8" y="305.4" width="26.6" height="94.6" rx="4.2" fill="#768592" opacity="0.80"/>
<line x1="740.2" y1="184.1" x2="773.3" y2="184.1" stroke="#ca8a04" stroke-width="2.1" opacity="0.22"/>
<line x1="1152.1" y1="147.6" x2="1232.0" y2="147.6" stroke="#ca8a04" stroke-width="1.3" opacity="0.33"/>
<rect width="1200" height="400" fill="url(#warm)"/>
<rect width="1200" height="400" fill="#166534" opacity="0.40"/>
</svg>