<svg xmlns="http://www.w3.org/2000/svg" viewBox="0 0 1200 300" width="1200" height="300">
<rect width="1200" height="300" fill="#ede8e0"/>
<path d="M0 300 L0 210.0 C256.9 186.0, 999.9 188.6, 1200 210.0 L1200 300 Z" fill="#c4c6be" opacity="0.3"/>
<rect x="134.4" y="215.4" width="67.0" height="84.6" fill="#aeb0a5"/>
<rect x="453.2" y="215.0" width="77.0" height="85.0" fill="#aeb0a5"/>
<rect x="686.8" y="195.5" width="82.3" height="104.5" fill="#aeb0a5"/>
<rect x="1005.6" y="215.4" width="76.5" height="84.6" fill="#aeb0a5"/>
<rect x="133.1" y="181.4" width="49.3" height="118.6" fill="#898d7d"/>
<rect x="147.8" y="193.4" width="6" height="8" fill="#b2b5ab" opacity="0.5"/>
<rect x="161.8" y="193.4" width="6" height="8" fill="#b2b5ab" opacity="0.5"/>
<rect x="147.8" y="209.4" width="6" height="8" fill="#b2b5ab" opacity="0.5"/>
<rect x="147.8" y="225.4" width="6" height="8" fill="#b2b5ab" opacity="0.5"/>
<rect x="147.8" y="241.4" width="6" height="8" fill="#b2b5ab" opacity="0.5"/>
<rect x="161.8" y="241.4" width="6" height="8" fill="#b2b5ab" opacity="0.5"/>
<rect x="147.8" y="257.4" width="6" height="8" fill="#b2b5ab" opacity="0.5"/>
<rect x="161.8" y="257.4" width="6" height="8" fill="#b2b5ab" opacity="0.5"/>
<rect x="147.8" y="273.4" width="6" height="8" fill="#b2b5ab" opacity="0.5"/>
<rect x="161.8" y="273.4" width="6" height="8" fill="#b2b5ab" opacity="0.5"/>
<rect x="422.6" y="214.9" width="39.7" height="85.1" fill="#898d7d"/>
<rect x="439.4" y="242.9" width="6" height="8" fill="#b2b5ab" opacity="0.5"/>
<rect x="749.8" y="180.5" width="50.8" height="119.5" fill="#898d7d"/>
<rect x="779.2" y="192.5" width="6" height="8" fill="#b2b5ab" opacity="0.5"/>
<rect x="765.2" y="208.5" width="6" height="8" fill="#b2b5ab" opacity="0.5"/>
<rect x="779.2" y="208.5" width="6" height="8" fill="#b2b5ab" opacity="0.5"/>
<rect x="765.2" y="224.5" width="6" height="8" fill="#b2b5ab" opacity="0.5"/>
<rect x="779.2" y="224.5" width="6" height="8" fill="#b2b5ab" opacity="0.5"/>
<rect x="765.2" y="240.5" width="6" height="8" fill="#b2b5ab" opacity="0.5"/>
<rect x="779.2" y="240.5" width="6" height="8" fill="#b2b5ab" opacity="0.5"/>
<rect x="779.2" y="272.5" width="6" height="8" fill="#b2b5ab" opacity="0.5"/>
<rect x="988.2" y="145.6" width="51.9" height="154.4" fill="#898d7d"/>
<rect x="1018.1" y="157.6" width="6" height="8" fill="#b2b5ab" opacity="0.5"/>
<rect x="1018.1" y="189.6" width="6" height="8" fill="#b2b5ab" opacity="0.5"/>
<rect x="1004.1" y="205.6" width="6" height="8" fill="#b2b5ab" opacity="0.5"/>
<rect x="1018.1" y="205.6" width="6" height="8" fill="#b2b5ab" opacity="0.5"/>
<rect x="1004.1" y="221.6" width="6" height="8" fill="#b2b5ab" opacity="0.5"/>
<rect x="1018.1" y="221.6" width="6" height="8" fill="#b2b5ab" opacity="0.5"/>
<rect x="1004.1" y="237.6" width="6" height="8" fill="#b2b5ab" opacity="0.5"/>
<rect x="1018.1" y="237.6" width="6" height="8" fill="#b2b5ab" opacity="0.5"/>
<rect x="1004.1" y="253.6" width="6" height="8" fill="#b2b5ab" opacity="0.5"/>
<rect x="1018.1" y="253.6" width="6" height="8" fill="#b2b5ab" opacity="0.5"/>
<rect x="1004.1" y="269.6" width="6" height="8" fill="#b2b5ab" opacity="0.5"/>
<rect x="1018.1" y="269.6" width="6" height="8" fill="#b2b5ab" opacity="0.5"/>
<rect x="158.0" y="206.9" width="44.6" height="93.1" fill="#6b705c"/>
<rect x="170.3" y="218.9" width="6" height="8" fill="#9fa295" opacity="0.5"/>
<rect x="184.3" y="218.9" width="6" height="8" fill="#9fa295" opacity="0.5"/>
<rect x="184.3" y="234.9" width="6" height="8" fill="#9fa295" opacity="0.5"/>
<rect x="170.3" y="250.9" width="6" height="8" fill="#9fa295" opacity="0.5"/>
<rect x="184.3" y="250.9" width="6" height="8" fill="#9fa295" opacity="0.5"/>
<rect x="170.3" y="266.9" width="6" height="8" fill="#9fa295" opacity="0.5"/>
<rect x="184.3" y="266.9" width="6" height="8" fill="#9fa295" opacity="0.5"/>
<rect x="421.8" y="164.0" width="65.0" height="136.0" fill="#6b705c"/>
<rect x="437.3" y="176.0" width="6" height="8" fill="#9fa295" opacity="0.5"/>
<rect x="465.3" y="176.0" width="6" height="8" fill="#9fa295" opacity="0.5"/>
<rect x="437.3" y="192.0" width="6" height="8" fill="#9fa295" opacity="0.5"/>
<rect x="451.3" y="192.0" width="6" height="8" fill="#9fa295" opacity="0.5"/>
<rect x="465.3" y="192.0" width="6" height="8" fill="#9fa295" opacity="0.5"/>
<rect x="437.3" y="208.0" width="6" height="8" fill="#9fa295" opacity="0.5"/>
<rect x="451.3" y="208.0" width="6" height="8" fill="#9fa295" opacity="0.5"/>
<rect x="465.3" y="208.0" width="6" height="8" fill="#9fa295" opacity="0.5"/>
<rect x="437.3" y="224.0" width="6" height="8" fill="#9fa295" opacity="0.5"/>
<rect x="451.3" y="224.0" width="6" height="8" fill="#9fa295" opacity="0.5"/>
<rect x="465.3" y="224.0" width="6" height="8" fill="#9fa295" opacity="0.5"/>
<rect x="437.3" y="240.0" width="6" height="8" fill="#9fa295" opacity="0.5"/>
<rect x="451.3" y="240.0" width="6" height="8" fill="#9fa295" opacity="0.5"/>
<rect x="465.3" y="240.0" width="6" height="8" fill="#9fa295" opacity="0.5"/>
<rect x="437.3" y="256.0" width="6" height="8" fill="#9fa295" opacity="0.5"/>
<rect x="451.3" y="256.0" width="6" height="8" fill="#9fa295" opacity="0.5"/>
<rect x="465.3" y="256.0" width="6" height="8" fill="#9fa295" opacity="0.5"/>
<rect x="451.3" y="272.0" width="6" height="8" fill="#9fa295" opacity="0.5"/>
<rect x="670.2" y="169.7" width="65.0" height="130.3" fill="#6b705c"/>
<rect x="685.7" y="181.7" width="6" height="8" fill="#9fa295" opacity="0.5"/>
<rect x="699.7" y="181.7" width="6" height="8" fill="#9fa295" opacity="0.5"/>
<rect x="713.7" y="181.7" width="6" height="8" fill="#9fa295" opacity="0.5"/>
<rect x="699.7" y="197.7" width="6" height="8" fill="#9fa295" opacity="0.5"/>
<rect x="713.7" y="197.7" width="6" height="8" fill="#9fa295" opacity="0.5"/>
<rect x="685.7" y="213.7" width="6" height="8" fill="#9fa295" opacity="0.5"/>
<rect x="699.7" y="213.7" width="6" height="8" fill="#9fa295" opacity="0.5"/>
<rect x="713.7" y="213.7" width="6" height="8" fill="#9fa295" opacity="0.5"/>
<rect x="699.7" y="229.7" width="6" height="8" fill="#9fa295" opacity="0.5"/>
<rect x="713.7" y="229.7" width="6" height="8" fill="#9fa295" opacity="0.5"/>
<rect x="713.7" y="245.7" width="6" height="8" fill="#9fa295" opacity="0.5"/>
<rect x="1025.0" y="107.9" width="57.8" height="192.1" fill="#6b705c"/>
<rect x="1043.8" y="119.9" width="6" height="8" fill="#9fa295" opacity="0.5"/>
<rect x="1057.8" y="135.9" width="6" height="8" fill="#9fa295" opacity="0.5"/>
<rect x="1043.8" y="151.9" width="6" height="8" fill="#9fa295" opacity="0.5"/>
<rect x="1057.8" y="151.9" width="6" height="8" fill="#9fa295" opacity="0.5"/>
<rect x="1043.8" y="167.9" width="6" height="8" fill="#9fa295" opacity="0.5"/>
<rect x="1057.8" y="167.9" width="6" height="8" fill="#9fa295" opacity="0.5"/>
<rect x="1057.8" y="199.9" width="6" height="8" fill="#9fa295" opacity="0.5"/>
<rect x="1043.8" y="215.9" width="6" height="8" fill="#9fa295" opacity="0.5"/>
<rect x="1057.8" y="215.9" width="6" height="8" fill="#9fa295" opacity="0.5"/>
<rect x="1043.8" y="231.9" width="6" height="8" fill="#9fa295" opacity="0.5"/>
<rect x="1057.8" y="231.9" width="6" height="8" fill="#9fa295" opacity="0.5"/>
<rect x="1043.8" y="247.9" width="6" height="8" fill="#9fa295" opacity="0.5"/>
<rect x="1057.8" y="247.9" width="6" height="8" fill="#9fa295" opacity="0.5"/>
<rect x="1043.8" y="263.9" width="6" height="8" fill="#9fa295" opacity="0.5"/>
<rect x="1057.8" y="263.9" width="6" height="8" fill="#9fa295" opacity="0.5"/>
<rect x="0" y="298" width="1200" height="2" fill="#606553" opacity="0.15"/>
</svg>