<svg xmlns="http://www.w3.org/2000/svg" viewBox="0 0 1200 300" width="1200" height="300">
<defs><linearGradient id="skyGrad" x1="0" y1="0" x2="0" y2="1"><stop offset="0%" stop-color="#ddf0f0"/><stop offset="100%" stop-color="#f0e8d8"/></linearGradient></defs><rect width="1200" height="300" fill="url(#skyGrad)"/>
<rect x="151.1" y="229.1" width="55.4" height="70.9" fill="#aeb0a5"/>
<rect x="552.8" y="218.2" width="64.6" height="81.8" fill="#aeb0a5"/>
<rect x="564.1" y="203.7" width="42.0" height="14.4" fill="#a5a79d"/>
<rect x="949.3" y="217.9" width="64.7" height="82.1" fill="#aeb0a5"/>
<rect x="171.2" y="169.4" width="70.1" height="130.6" fill="#898d7d"/>
<rect x="189.2" y="181.4" width="6" height="8" fill="#b2b5ab" opacity="0.5"/>
<rect x="203.2" y="181.4" width="6" height="8" fill="#b2b5ab" opacity="0.5"/>
<rect x="217.2" y="181.4" width="6" height="8" fill="#b2b5ab" opacity="0.5"/>
<rect x="189.2" y="197.4" width="6" height="8" fill="#b2b5ab" opacity="0.5"/>
<rect x="203.2" y="197.4" width="6" height="8" fill="#b2b5ab" opacity="0.5"/>
<rect x="189.2" y="213.4" width="6" height="8" fill="#b2b5ab" opacity="0.5"/>
<rect x="203.2" y="213.4" width="6" height="8" fill="#b2b5ab" opacity="0.5"/>
<rect x="217.2" y="213.4" width="6" height="8" fill="#b2b5ab" opacity="0.5"/>
<rect x="189.2" y="229.4" width="6" height="8" fill="#b2b5ab" opacity="0.5"/>
<rect x="203.2" y="229.4" width="6" height="8" fill="#b2b5ab" opacity="0.5"/>
<rect x="217.2" y="229.4" width="6" height="8" fill="#b2b5ab" opacity="0.5"/>
<rect x="189.2" y="245.4" width="6" height="8" fill="#b2b5ab" opacity="0.5"/>
<rect x="203.2" y="245.4" width="6" height="8" fill="#b2b5ab" opacity="0.5"/>
<rect x="203.2" y="261.4" width="6" height="8" fill="#b2b5ab" opacity="0.5"/>
<rect x="217.2" y="261.4" width="6" height="8" fill="#b2b5ab" opacity="0.5"/>
<rect x="418.4" y="210.0" width="40.3" height="90.0" fill="#898d7d"/>
<rect x="425.5" y="194.2" width="26.2" height="15.9" fill="#828677"/>
<rect x="435.5" y="222.2" width="6" height="8" fill="#b2b5ab" opacity="0.5"/>
<rect x="435.5" y="238.2" width="6" height="8" fill="#b2b5ab" opacity="0.5"/>
<rect x="435.5" y="254.2" width="6" height="8" fill="#b2b5ab" opacity="0.5"/>
<rect x="721.0" y="220.7" width="67.1" height="79.3" fill="#898d7d"/>
<rect x="751.6" y="232.7" width="6" height="8" fill="#b2b5ab" opacity="0.5"/>
<rect x="765.6" y="232.7" width="6" height="8" fill="#b2b5ab" opacity="0.5"/>
<rect x="737.6" y="248.7" width="6" height="8" fill="#b2b5ab" opacity="0.5"/>
<rect x="751.6" y="248.7" width="6" height="8" fill="#b2b5ab" opacity="0.5"/>
<rect x="765.6" y="248.7" width="6" height="8" fill="#b2b5ab" opacity="0.5"/>
<rect x="737.6" y="264.7" width="6" height="8" fill="#b2b5ab" opacity="0.5"/>
<rect x="751.6" y="264.7" width="6" height="8" fill="#b2b5ab" opacity="0.5"/>
<rect x="765.6" y="264.7" width="6" height="8" fill="#b2b5ab" opacity="0.5"/>
<rect x="974.4" y="148.1" width="51.8" height="151.9" fill="#898d7d"/>
<polygon points="974.4,148.1 1000.3,135.1 1026.1,148.1" fill="#7e8273"/>
<rect x="1004.3" y="160.1" width="6" height="8" fill="#b2b5ab" opacity="0.5"/>
<rect x="990.3" y="176.1" width="6" height="8" fill="#b2b5ab" opacity="0.5"/>
<rect x="1004.3" y="176.1" width="6" height="8" fill="#b2b5ab" opacity="0.5"/>
<rect x="990.3" y="192.1" width="6" height="8" fill="#b2b5ab" opacity="0.5"/>
<rect x="1004.3" y="192.1" width="6" height="8" fill="#b2b5ab" opacity="0.5"/>
<rect x="990.3" y="224.1" width="6" height="8" fill="#b2b5ab" opacity="0.5"/>
<rect x="1004.3" y="224.1" width="6" height="8" fill="#b2b5ab" opacity="0.5"/>
<rect x="1004.3" y="240.1" width="6" height="8" fill="#b2b5ab" opacity="0.5"/>
<rect x="96.6" y="121.6" width="70.1" height="178.4" fill="#6b705c"/>
<rect x="128.7" y="149.6" width="6" height="8" fill="#9fa295" opacity="0.5"/>
<rect x="142.7" y="149.6" width="6" height="8" fill="#9fa295" opacity="0.5"/>
<rect x="114.7" y="165.6" width="6" height="8" fill="#9fa295" opacity="0.5"/>
<rect x="128.7" y="165.6" width="6" height="8" fill="#9fa295" opacity="0.5"/>
<rect x="142.7" y="165.6" width="6" height="8" fill="#9fa295" opacity="0.5"/>
<rect x="128.7" y="181.6" width="6" height="8" fill="#9fa295" opacity="0.5"/>
<rect x="142.7" y="181.6" width="6" height="8" fill="#9fa295" opacity="0.5"/>
<rect x="114.7" y="197.6" width="6" height="8" fill="#9fa295" opacity="0.5"/>
<rect x="128.7" y="197.6" width="6" height="8" fill="#9fa295" opacity="0.5"/>
<rect x="142.7" y="197.6" width="6" height="8" fill="#9fa295" opacity="0.5"/>
<rect x="142.7" y="213.6" width="6" height="8" fill="#9fa295" opacity="0.5"/>
<rect x="394.3" y="240.6" width="65.9" height="59.4" fill="#6b705c"/>
<rect x="757.9" y="208.5" width="36.5" height="91.5" fill="#6b705c"/>
<rect x="773.2" y="220.5" width="6" height="8" fill="#9fa295" opacity="0.5"/>
<rect x="773.2" y="236.5" width="6" height="8" fill="#9fa295" opacity="0.5"/>
<rect x="773.2" y="252.5" width="6" height="8" fill="#9fa295" opacity="0.5"/>
<rect x="773.2" y="268.5" width="6" height="8" fill="#9fa295" opacity="0.5"/>
<rect x="966.1" y="237.9" width="48.2" height="62.1" fill="#6b705c"/>
<rect x="980.2" y="249.9" width="6" height="8" fill="#9fa295" opacity="0.5"/>
<rect x="980.2" y="265.9" width="6" height="8" fill="#9fa295" opacity="0.5"/>
<rect x="994.2" y="265.9" width="6" height="8" fill="#9fa295" opacity="0.5"/>
<path d="M280.5 285.0 Q300.9 260.7 294.8 236.4" fill="none" stroke="#8a7254" stroke-width="3"/>
<path d="M294.8 236.4 Q281.7 226.7 272.9 226.9" fill="none" stroke="#44813a" stroke-width="2.5"/>
<path d="M294.8 236.4 Q298.1 226.3 300.4 226.1" fill="none" stroke="#44813a" stroke-width="2.5"/>
<path d="M294.8 236.4 Q312.6 231.4 324.6 236.4" fill="none" stroke="#44813a" stroke-width="2.5"/>
<path d="M294.8 236.4 Q299.3 238.3 302.2 250.2" fill="none" stroke="#44813a" stroke-width="2.5"/>
<path d="M294.8 236.4 Q284.8 235.1 278.1 243.7" fill="none" stroke="#44813a" stroke-width="2.5"/>
<path d="M609.1 285.0 Q635.7 255.8 627.7 226.6" fill="none" stroke="#7c674c" stroke-width="3"/>
<path d="M627.7 226.6 Q616.0 217.3 608.3 218.1" fill="none" stroke="#45833b" stroke-width="2.5"/>
<path d="M627.7 226.6 Q631.6 215.5 634.2 214.5" fill="none" stroke="#45833b" stroke-width="2.5"/>
<path d="M627.7 226.6 Q642.3 221.6 652.0 226.6" fill="none" stroke="#45833b" stroke-width="2.5"/>
<path d="M627.7 226.6 Q632.9 229.6 636.4 242.7" fill="none" stroke="#45833b" stroke-width="2.5"/>
<path d="M627.7 226.6 Q618.2 225.0 611.9 233.5" fill="none" stroke="#45833b" stroke-width="2.5"/>
<path d="M880.3 285.0 Q908.0 261.5 899.7 238.0" fill="none" stroke="#897154" stroke-width="3"/>
<path d="M899.7 238.0 Q888.9 229.0 881.7 230.1" fill="none" stroke="#45833b" stroke-width="2.5"/>
<path d="M899.7 238.0 Q903.0 227.8 905.3 227.6" fill="none" stroke="#45833b" stroke-width="2.5"/>
<path d="M899.7 238.0 Q913.6 233.0 922.8 238.0" fill="none" stroke="#45833b" stroke-width="2.5"/>
<path d="M899.7 238.0 Q904.9 241.0 908.4 254.0" fill="none" stroke="#45833b" stroke-width="2.5"/>
<path d="M899.7 238.0 Q886.7 237.7 878.1 247.4" fill="none" stroke="#45833b" stroke-width="2.5"/>
<path d="M470.2 285.0 Q487.1 257.4 482.0 229.8" fill="none" stroke="#7d684d" stroke-width="3"/>
<path d="M482.0 229.8 Q470.3 220.6 462.5 221.3" fill="none" stroke="#47863c" stroke-width="2.5"/>
<path d="M482.0 229.8 Q485.8 219.1 488.2 218.4" fill="none" stroke="#47863c" stroke-width="2.5"/>
<path d="M482.0 229.8 Q496.6 224.8 506.3 229.8" fill="none" stroke="#47863c" stroke-width="2.5"/>
<path d="M482.0 229.8 Q486.7 232.1 489.9 244.3" fill="none" stroke="#47863c" stroke-width="2.5"/>
<path d="M482.0 229.8 Q468.6 229.7 459.7 239.6" fill="none" stroke="#47863c" stroke-width="2.5"/>
<path d="M288.0 285.0 Q314.5 257.5 306.6 229.9" fill="none" stroke="#866f52" stroke-width="3"/>
<path d="M306.6 229.9 Q296.6 221.3 290.0 222.7" fill="none" stroke="#44813a" stroke-width="2.5"/>
<path d="M306.6 229.9 Q311.3 217.6 314.5 215.4" fill="none" stroke="#44813a" stroke-width="2.5"/>
<path d="M306.6 229.9 Q322.6 224.9 333.3 229.9" fill="none" stroke="#44813a" stroke-width="2.5"/>
<path d="M306.6 229.9 Q311.7 232.8 315.1 245.6" fill="none" stroke="#44813a" stroke-width="2.5"/>
<path d="M306.6 229.9 Q294.3 229.4 286.1 238.8" fill="none" stroke="#44813a" stroke-width="2.5"/>
<rect x="0" y="285" width="1200" height="15" fill="#d4c5a9" opacity="0.4"/>
<circle cx="1030.2" cy="45.1" r="36.1" fill="#f5e6a0" opacity="0.1"/>
</svg>