<svg xmlns="http://www.w3.org/2000/svg" viewBox="0 0 1200 300" width="1200" height="300">
<rect width="1200" height="300" fill="#ede8e0"/>
<path d="M0 300 L0 210.0 C213.3 180.8, 823.5 190.2, 1200 210.0 L1200 300 Z" fill="#c4c6be" opacity="0.3"/>
<rect x="196.9" y="207.8" width="58.5" height="92.2" fill="#aeb0a5"/>
<rect x="549.6" y="188.2" width="65.7" height="111.8" fill="#aeb0a5"/>
<rect x="948.9" y="233.5" width="84.7" height="66.5" fill="#aeb0a5"/>
<rect x="133.1" y="159.5" width="47.5" height="140.5" fill="#898d7d"/>
<rect x="146.9" y="171.5" width="6" height="8" fill="#b2b5ab" opacity="0.5"/>
<rect x="160.9" y="171.5" width="6" height="8" fill="#b2b5ab" opacity="0.5"/>
<rect x="146.9" y="187.5" width="6" height="8" fill="#b2b5ab" opacity="0.5"/>
<rect x="160.9" y="187.5" width="6" height="8" fill="#b2b5ab" opacity="0.5"/>
<rect x="146.9" y="203.5" width="6" height="8" fill="#b2b5ab" opacity="0.5"/>
<rect x="146.9" y="219.5" width="6" height="8" fill="#b2b5ab" opacity="0.5"/>
<rect x="160.9" y="219.5" width="6" height="8" fill="#b2b5ab" opacity="0.5"/>
<rect x="146.9" y="235.5" width="6" height="8" fill="#b2b5ab" opacity="0.5"/>
<rect x="160.9" y="235.5" width="6" height="8" fill="#b2b5ab" opacity="0.5"/>
<rect x="146.9" y="251.5" width="6" height="8" fill="#b2b5ab" opacity="0.5"/>
<rect x="160.9" y="251.5" width="6" height="8" fill="#b2b5ab" opacity="0.5"/>
<rect x="146.9" y="267.5" width="6" height="8" fill="#b2b5ab" opacity="0.5"/>
<rect x="160.9" y="267.5" width="6" height="8" fill="#b2b5ab" opacity="0.5"/>
<rect x="384.1" y="189.3" width="63.9" height="110.7" fill="#898d7d"/>
<rect x="427.0" y="201.3" width="6" height="8" fill="#b2b5ab" opacity="0.5"/>
<rect x="399.0" y="217.3" width="6" height="8" fill="#b2b5ab" opacity="0.5"/>
<rect x="413.0" y="217.3" width="6" height="8" fill="#b2b5ab" opacity="0.5"/>
<rect x="399.0" y="233.3" width="6" height="8" fill="#b2b5ab" opacity="0.5"/>
<rect x="413.0" y="233.3" width="6" height="8" fill="#b2b5ab" opacity="0.5"/>
<rect x="427.0" y="233.3" width="6" height="8" fill="#b2b5ab" opacity="0.5"/>
<rect x="399.0" y="249.3" width="6" height="8" fill="#b2b5ab" opacity="0.5"/>
<rect x="413.0" y="249.3" width="6" height="8" fill="#b2b5ab" opacity="0.5"/>
<rect x="427.0" y="249.3" width="6" height="8" fill="#b2b5ab" opacity="0.5"/>
<rect x="399.0" y="265.3" width="6" height="8" fill="#b2b5ab" opacity="0.5"/>
<rect x="413.0" y="265.3" width="6" height="8" fill="#b2b5ab" opacity="0.5"/>
<rect x="427.0" y="265.3" width="6" height="8" fill="#b2b5ab" opacity="0.5"/>
<rect x="750.2" y="143.9" width="43.2" height="156.1" fill="#898d7d"/>
<rect x="768.8" y="155.9" width="6" height="8" fill="#b2b5ab" opacity="0.5"/>
<rect x="768.8" y="171.9" width="6" height="8" fill="#b2b5ab" opacity="0.5"/>
<rect x="768.8" y="187.9" width="6" height="8" fill="#b2b5ab" opacity="0.5"/>
<rect x="768.8" y="203.9" width="6" height="8" fill="#b2b5ab" opacity="0.5"/>
<rect x="768.8" y="219.9" width="6" height="8" fill="#b2b5ab" opacity="0.5"/>
<rect x="768.8" y="235.9" width="6" height="8" fill="#b2b5ab" opacity="0.5"/>
<rect x="768.8" y="267.9" width="6" height="8" fill="#b2b5ab" opacity="0.5"/>
<rect x="1042.5" y="151.9" width="36.0" height="148.1" fill="#898d7d"/>
<rect x="1057.5" y="163.9" width="6" height="8" fill="#b2b5ab" opacity="0.5"/>
<rect x="1057.5" y="179.9" width="6" height="8" fill="#b2b5ab" opacity="0.5"/>
<rect x="1057.5" y="195.9" width="6" height="8" fill="#b2b5ab" opacity="0.5"/>
<rect x="1057.5" y="211.9" width="6" height="8" fill="#b2b5ab" opacity="0.5"/>
<rect x="1057.5" y="227.9" width="6" height="8" fill="#b2b5ab" opacity="0.5"/>
<rect x="1057.5" y="259.9" width="6" height="8" fill="#b2b5ab" opacity="0.5"/>
<rect x="117.7" y="230.0" width="36.6" height="70.0" fill="#6b705c"/>
<rect x="133.0" y="242.0" width="6" height="8" fill="#9fa295" opacity="0.5"/>
<rect x="404.7" y="192.2" width="70.2" height="107.8" fill="#6b705c"/>
<rect x="422.8" y="204.2" width="6" height="8" fill="#9fa295" opacity="0.5"/>
<rect x="436.8" y="204.2" width="6" height="8" fill="#9fa295" opacity="0.5"/>
<rect x="450.8" y="220.2" width="6" height="8" fill="#9fa295" opacity="0.5"/>
<rect x="422.8" y="236.2" width="6" height="8" fill="#9fa295" opacity="0.5"/>
<rect x="436.8" y="236.2" width="6" height="8" fill="#9fa295" opacity="0.5"/>
<rect x="450.8" y="236.2" width="6" height="8" fill="#9fa295" opacity="0.5"/>
<rect x="422.8" y="252.2" width="6" height="8" fill="#9fa295" opacity="0.5"/>
<rect x="436.8" y="252.2" width="6" height="8" fill="#9fa295" opacity="0.5"/>
<rect x="450.8" y="252.2" width="6" height="8" fill="#9fa295" opacity="0.5"/>
<rect x="422.8" y="268.2" width="6" height="8" fill="#9fa295" opacity="0.5"/>
<rect x="436.8" y="268.2" width="6" height="8" fill="#9fa295" opacity="0.5"/>
<rect x="450.8" y="268.2" width="6" height="8" fill="#9fa295" opacity="0.5"/>
<rect x="691.2" y="166.9" width="32.8" height="133.1" fill="#6b705c"/>
<rect x="704.6" y="178.9" width="6" height="8" fill="#9fa295" opacity="0.5"/>
<rect x="704.6" y="194.9" width="6" height="8" fill="#9fa295" opacity="0.5"/>
<rect x="704.6" y="226.9" width="6" height="8" fill="#9fa295" opacity="0.5"/>
<rect x="704.6" y="242.9" width="6" height="8" fill="#9fa295" opacity="0.5"/>
<rect x="704.6" y="258.9" width="6" height="8" fill="#9fa295" opacity="0.5"/>
<rect x="1017.3" y="107.8" width="44.5" height="192.2" fill="#6b705c"/>
<rect x="1029.5" y="119.8" width="6" height="8" fill="#9fa295" opacity="0.5"/>
<rect x="1043.5" y="119.8" width="6" height="8" fill="#9fa295" opacity="0.5"/>
<rect x="1029.5" y="135.8" width="6" height="8" fill="#9fa295" opacity="0.5"/>
<rect x="1043.5" y="135.8" width="6" height="8" fill="#9fa295" opacity="0.5"/>
<rect x="1029.5" y="151.8" width="6" height="8" fill="#9fa295" opacity="0.5"/>
<rect x="1043.5" y="151.8" width="6" height="8" fill="#9fa295" opacity="0.5"/>
<rect x="1029.5" y="167.8" width="6" height="8" fill="#9fa295" opacity="0.5"/>
<rect x="1029.5" y="183.8" width="6" height="8" fill="#9fa295" opacity="0.5"/>
<rect x="1043.5" y="183.8" width="6" height="8" fill="#9fa295" opacity="0.5"/>
<rect x="1029.5" y="199.8" width="6" height="8" fill="#9fa295" opacity="0.5"/>
<rect x="1043.5" y="199.8" width="6" height="8" fill="#9fa295" opacity="0.5"/>
<rect x="1043.5" y="215.8" width="6" height="8" fill="#9fa295" opacity="0.5"/>
<rect x="1029.5" y="231.8" width="6" height="8" fill="#9fa295" opacity="0.5"/>
<rect x="1029.5" y="247.8" width="6" height="8" fill="#9fa295" opacity="0.5"/>
<rect x="1043.5" y="247.8" width="6" height="8" fill="#9fa295" opacity="0.5"/>
<rect x="1043.5" y="263.8" width="6" height="8" fill="#9fa295" opacity="0.5"/>
<rect x="0" y="298" width="1200" height="2" fill="#606553" opacity="0.15"/>
</svg>