<svg xmlns="http://www.w3.org/2000/svg" viewBox="0 0 1200 300" width="1200" height="300">
<defs>
<linearGradient id="skyGrad" x1="0" y1="0" x2="0" y2="1">
<stop offset="0%" stop-color="#818cf8"/>
<stop offset="22%" stop-color="#a5b4fc"/>
<stop offset="42%" stop-color="#c4b5fd"/>
<stop offset="60%" stop-color="#e0c3fc"/>
<stop offset="80%" stop-color="#fde68a"/>
<stop offset="100%" stop-color="#fef9c3"/>
</linearGradient>
<linearGradient id="bldg_coral" x1="0" y1="0" x2="0" y2="1"><stop offset="0%" stop-color="#fecaca"/><stop offset="100%" stop-color="#fca5a5"/></linearGradient>
<linearGradient id="bldg_teal" x1="0" y1="0" x2="0" y2="1"><stop offset="0%" stop-color="#99f6e4"/><stop offset="100%" stop-color="#5eead4"/></linearGradient>
<linearGradient id="bldg_amber" x1="0" y1="0" x2="0" y2="1"><stop offset="0%" stop-color="#fde68a"/><stop offset="100%" stop-color="#fcd34d"/></linearGradient>
<linearGradient id="bldg_lavender" x1="0" y1="0" x2="0" y2="1"><stop offset="0%" stop-color="#ddd6fe"/><stop offset="100%" stop-color="#c4b5fd"/></linearGradient>
<linearGradient id="bldg_blue" x1="0" y1="0" x2="0" y2="1"><stop offset="0%" stop-color="#bfdbfe"/><stop offset="100%" stop-color="#93c5fd"/></linearGradient>
<linearGradient id="bldg_mint" x1="0" y1="0" x2="0" y2="1"><stop offset="0%" stop-color="#a7f3d0"/><stop offset="100%" stop-color="#6ee7b7"/></linearGradient>
<linearGradient id="bldg_rose" x1="0" y1="0" x2="0" y2="1"><stop offset="0%" stop-color="#fecdd3"/><stop offset="100%" stop-color="#fda4af"/></linearGradient>
<linearGradient id="bldg_sky" x1="0" y1="0" x2="0" y2="1"><stop offset="0%" stop-color="#bae6fd"/><stop offset="100%" stop-color="#7dd3fc"/></linearGradient>
<linearGradient id="roof_navyRoof" x1="0" y1="0" x2="0" y2="1"><stop offset="0%" stop-color="#4338ca"/><stop offset="100%" stop-color="#3730a3"/></linearGradient>
<linearGradient id="roof_coralRoof" x1="0" y1="0" x2="0" y2="1"><stop offset="0%" stop-color="#f87171"/><stop offset="100%" stop-color="#ef4444"/></linearGradient>
<linearGradient id="roof_tealRoof" x1="0" y1="0" x2="0" y2="1"><stop offset="0%" stop-color="#2dd4bf"/><stop offset="100%" stop-color="#14b8a6"/></linearGradient>
<radialGradient id="windowGlow" cx="50%" cy="50%" r="50%"><stop offset="0%" stop-color="#fef08a"/><stop offset="60%" stop-color="#fbbf24"/><stop offset="100%" stop-color="#f59e0b"/></radialGradient>
<linearGradient id="hillFar" x1="0" y1="0" x2="0" y2="1"><stop offset="0%" stop-color="#c4b5fd"/><stop offset="100%" stop-color="#a5b4fc"/></linearGradient>
<linearGradient id="hillMid" x1="0" y1="0" x2="0" y2="1"><stop offset="0%" stop-color="#86efac"/><stop offset="100%" stop-color="#4ade80"/></linearGradient>
<linearGradient id="hillNear" x1="0" y1="0" x2="0" y2="1"><stop offset="0%" stop-color="#34d399"/><stop offset="100%" stop-color="#10b981"/></linearGradient>
<linearGradient id="hillDesertFar" x1="0" y1="0" x2="0" y2="1"><stop offset="0%" stop-color="#fde68a"/><stop offset="100%" stop-color="#fcd34d"/></linearGradient>
<linearGradient id="hillDesertMid" x1="0" y1="0" x2="0" y2="1"><stop offset="0%" stop-color="#fcd34d"/><stop offset="100%" stop-color="#fbbf24"/></linearGradient>
<linearGradient id="hillDesertNear" x1="0" y1="0" x2="0" y2="1"><stop offset="0%" stop-color="#fbbf24"/><stop offset="100%" stop-color="#f59e0b"/></linearGradient>
<linearGradient id="groundGrad" x1="0" y1="0" x2="0" y2="1"><stop offset="0%" stop-color="#fef3c7"/><stop offset="100%" stop-color="#fde68a"/></linearGradient>
<linearGradient id="waterGrad" x1="0" y1="0" x2="0" y2="1"><stop offset="0%" stop-color="#bfdbfe"/><stop offset="100%" stop-color="#93c5fd"/></linearGradient>
<filter id="softGlow" x="-50%" y="-50%" width="200%" height="200%"><feGaussianBlur in="SourceGraphic" stdDeviation="12"/></filter>
</defs>
<rect width="1200" height="300" fill="url(#skyGrad)"/>
<circle cx="946.3" cy="47.5" r="45" fill="#fef08a" opacity="0.12" filter="url(#softGlow)"/>
<circle cx="946.3" cy="47.5" r="30" fill="#fde68a" opacity="0.18" filter="url(#softGlow)"/>
<circle cx="946.3" cy="47.5" r="16" fill="#fef9c3" opacity="0.25" filter="url(#softGlow)"/>
<ellipse cx="194.0" cy="24.9" rx="51.9" ry="18.2" fill="white" opacity="0.5"/>
<ellipse cx="161.5" cy="30.1" rx="36.3" ry="14.3" fill="white" opacity="0.4"/>
<ellipse cx="222.5" cy="28.8" rx="41.5" ry="15.6" fill="white" opacity="0.4"/>
<ellipse cx="595.0" cy="42.0" rx="45.8" ry="16.0" fill="white" opacity="0.6"/>
<ellipse cx="566.4" cy="46.6" rx="32.1" ry="12.6" fill="white" opacity="0.5"/>
<ellipse cx="620.2" cy="45.5" rx="36.6" ry="13.7" fill="white" opacity="0.5"/>
<ellipse cx="131.5" cy="33.2" rx="45.7" ry="16.0" fill="white" opacity="0.4"/>
<ellipse cx="103.0" cy="37.7" rx="32.0" ry="12.6" fill="white" opacity="0.4"/>
<ellipse cx="156.6" cy="36.6" rx="36.5" ry="13.7" fill="white" opacity="0.3"/>
<path d="M0 300 L0.0 151.4 C152.4 151.4, 152.4 68.3, 304.7 68.3 C448.5 68.3, 448.5 101.7, 592.3 101.7 C744.9 101.7, 744.9 117.2, 897.5 117.2 C1048.7 117.2, 1048.7 177.3, 1200.0 177.3 L1200 300 Z" fill="url(#hillFar)" opacity="0.5"/>
<path d="M0 300 L0.0 188.4 C169.5 188.4, 169.5 196.5, 339.0 196.5 C445.8 196.5, 445.8 175.3, 552.6 175.3 C699.5 175.3, 699.5 178.3, 846.4 178.3 C1023.2 178.3, 1023.2 190.0, 1200.0 190.0 L1200 300 Z" fill="url(#hillMid)" opacity="0.7"/>
<path d="M0 300 L0.0 215.3 C98.6 215.3, 98.6 216.3, 197.3 216.3 C323.4 216.3, 323.4 214.0, 449.5 214.0 C589.7 214.0, 589.7 226.1, 729.9 226.1 C837.2 226.1, 837.2 226.1, 944.5 226.1 C1072.3 226.1, 1072.3 227.4, 1200.0 227.4 L1200 300 Z" fill="url(#hillNear)" opacity="1"/>
<path d="M522.6 180.0 Q696.9 35.8 758.2 35.8 Q819.4 35.8 993.7 180.0 Z" fill="#c4b5fd" opacity="0.35"/>
<path d="M711.0 57.4 Q744.0 33.8 758.2 35.8 Q772.3 33.8 805.3 57.4 Z" fill="white" opacity="0.5"/>
<path d="M584.5 180.0 Q705.6 25.5 748.2 25.5 Q790.7 25.5 911.8 180.0 Z" fill="#c4b5fd" opacity="0.35"/>
<rect x="109.5" y="162.2" width="74.5" height="137.8" rx="3" fill="url(#bldg_coral)" opacity="0.7"/>
<rect x="124.4" y="145.7" width="44.7" height="16.5" rx="2" fill="url(#roof_coralRoof)" opacity="0.7"/>
<rect x="122.7" y="172.2" width="6" height="8" rx="1" fill="url(#windowGlow)" opacity="0.9769426342458196"/>
<rect x="136.7" y="172.2" width="6" height="8" rx="1" fill="url(#windowGlow)" opacity="0.8419675468196941"/>
<rect x="150.7" y="172.2" width="6" height="8" rx="1" fill="url(#windowGlow)" opacity="0.9755080933102909"/>
<rect x="122.7" y="187.2" width="6" height="8" rx="1" fill="url(#windowGlow)" opacity="0.9119007896221711"/>
<rect x="136.7" y="187.2" width="6" height="8" rx="1" fill="url(#windowGlow)" opacity="0.7310760492137987"/>
<rect x="150.7" y="187.2" width="6" height="8" rx="1" fill="url(#windowGlow)" opacity="0.8862877727888001"/>
<rect x="164.7" y="187.2" width="6" height="8" rx="1" fill="url(#windowGlow)" opacity="0.8237860590330259"/>
<rect x="136.7" y="202.2" width="6" height="8" rx="1" fill="url(#windowGlow)" opacity="0.9921890546065704"/>
<rect x="164.7" y="202.2" width="6" height="8" rx="1" fill="url(#windowGlow)" opacity="0.9139672053577225"/>
<rect x="122.7" y="217.2" width="6" height="8" rx="1" fill="url(#windowGlow)" opacity="0.8992072832301292"/>
<rect x="136.7" y="217.2" width="6" height="8" rx="1" fill="url(#windowGlow)" opacity="0.7928153607029539"/>
<rect x="150.7" y="217.2" width="6" height="8" rx="1" fill="url(#windowGlow)" opacity="0.9388210969692194"/>
<rect x="164.7" y="217.2" width="6" height="8" rx="1" fill="url(#windowGlow)" opacity="0.8178914093495772"/>
<rect x="164.7" y="232.2" width="6" height="8" rx="1" fill="url(#windowGlow)" opacity="0.839193163411316"/>
<rect x="136.7" y="247.2" width="6" height="8" rx="1" fill="url(#windowGlow)" opacity="0.9339868222987218"/>
<rect x="150.7" y="247.2" width="6" height="8" rx="1" fill="url(#windowGlow)" opacity="0.7614936444729071"/>
<rect x="164.7" y="247.2" width="6" height="8" rx="1" fill="url(#windowGlow)" opacity="0.9926700469072303"/>
<rect x="356.3" y="188.4" width="46.4" height="111.6" rx="3" fill="url(#bldg_teal)" opacity="0.7"/>
<rect x="356.3" y="185.4" width="46.4" height="3" rx="1" fill="url(#roof_tealRoof)" opacity="0.7"/>
<rect x="369.5" y="198.4" width="6" height="8" rx="1" fill="url(#windowGlow)" opacity="0.7964888969885598"/>
<rect x="369.5" y="213.4" width="6" height="8" rx="1" fill="url(#windowGlow)" opacity="0.8980742052654149"/>
<rect x="383.5" y="213.4" width="6" height="8" rx="1" fill="url(#windowGlow)" opacity="0.7445651597085247"/>
<rect x="369.5" y="228.4" width="6" height="8" rx="1" fill="url(#windowGlow)" opacity="0.8799835285544318"/>
<rect x="383.5" y="243.4" width="6" height="8" rx="1" fill="url(#windowGlow)" opacity="0.9697590765402462"/>
<rect x="369.5" y="258.4" width="6" height="8" rx="1" fill="url(#windowGlow)" opacity="0.9870599407642426"/>
<rect x="383.5" y="258.4" width="6" height="8" rx="1" fill="url(#windowGlow)" opacity="0.8559088351465337"/>
<rect x="553.7" y="188.3" width="69.6" height="111.7" rx="3" fill="url(#bldg_amber)" opacity="0.7"/>
<rect x="553.7" y="185.3" width="69.6" height="3" rx="1" fill="url(#roof_navyRoof)" opacity="0.7"/>
<rect x="571.5" y="198.3" width="6" height="8" rx="1" fill="url(#windowGlow)" opacity="0.8822353063068517"/>
<rect x="585.5" y="198.3" width="6" height="8" rx="1" fill="url(#windowGlow)" opacity="0.852626146447205"/>
<rect x="599.5" y="198.3" width="6" height="8" rx="1" fill="url(#windowGlow)" opacity="0.886177083470941"/>
<rect x="571.5" y="213.3" width="6" height="8" rx="1" fill="url(#windowGlow)" opacity="0.7189011184586682"/>
<rect x="585.5" y="213.3" width="6" height="8" rx="1" fill="url(#windowGlow)" opacity="0.8058248007231507"/>
<rect x="599.5" y="213.3" width="6" height="8" rx="1" fill="url(#windowGlow)" opacity="0.7473443519544528"/>
<rect x="571.5" y="228.3" width="6" height="8" rx="1" fill="url(#windowGlow)" opacity="0.782863896285586"/>
<rect x="585.5" y="228.3" width="6" height="8" rx="1" fill="url(#windowGlow)" opacity="0.8832343484196972"/>
<rect x="599.5" y="228.3" width="6" height="8" rx="1" fill="url(#windowGlow)" opacity="0.7936287035670264"/>
<rect x="571.5" y="243.3" width="6" height="8" rx="1" fill="url(#windowGlow)" opacity="0.9782941588565214"/>
<rect x="585.5" y="243.3" width="6" height="8" rx="1" fill="url(#windowGlow)" opacity="0.9856136817883763"/>
<rect x="571.5" y="258.3" width="6" height="8" rx="1" fill="url(#windowGlow)" opacity="0.9260869366703959"/>
<rect x="585.5" y="258.3" width="6" height="8" rx="1" fill="url(#windowGlow)" opacity="0.9491661173054791"/>
<rect x="599.5" y="258.3" width="6" height="8" rx="1" fill="url(#windowGlow)" opacity="0.9366304102989986"/>
<rect x="784.9" y="213.0" width="75.5" height="87.0" rx="3" fill="url(#bldg_lavender)" opacity="0.7"/>
<rect x="800.0" y="202.5" width="45.3" height="10.4" rx="2" fill="url(#roof_coralRoof)" opacity="0.7"/>
<rect x="798.6" y="223.0" width="6" height="8" rx="1" fill="url(#windowGlow)" opacity="0.8781309741447358"/>
<rect x="812.6" y="223.0" width="6" height="8" rx="1" fill="url(#windowGlow)" opacity="0.8837532086222214"/>
<rect x="826.6" y="223.0" width="6" height="8" rx="1" fill="url(#windowGlow)" opacity="0.8095682025465966"/>
<rect x="840.6" y="223.0" width="6" height="8" rx="1" fill="url(#windowGlow)" opacity="0.790721542709843"/>
<rect x="798.6" y="238.0" width="6" height="8" rx="1" fill="url(#windowGlow)" opacity="0.8813010289246687"/>
<rect x="826.6" y="238.0" width="6" height="8" rx="1" fill="url(#windowGlow)" opacity="0.7928358022090214"/>
<rect x="798.6" y="253.0" width="6" height="8" rx="1" fill="url(#windowGlow)" opacity="0.901483396441435"/>
<rect x="812.6" y="253.0" width="6" height="8" rx="1" fill="url(#windowGlow)" opacity="0.9446774850807513"/>
<rect x="1043.5" y="198.3" width="50.3" height="101.7" rx="3" fill="url(#bldg_blue)" opacity="0.7"/>
<rect x="1053.5" y="186.1" width="30.2" height="12.2" rx="2" fill="url(#roof_tealRoof)" opacity="0.7"/>
<rect x="1058.6" y="208.3" width="6" height="8" rx="1" fill="url(#windowGlow)" opacity="0.866820398656102"/>
<rect x="1072.6" y="208.3" width="6" height="8" rx="1" fill="url(#windowGlow)" opacity="0.8293177535893943"/>
<rect x="1058.6" y="223.3" width="6" height="8" rx="1" fill="url(#windowGlow)" opacity="0.8607639936081897"/>
<rect x="1058.6" y="238.3" width="6" height="8" rx="1" fill="url(#windowGlow)" opacity="0.9172021021215254"/>
<rect x="1072.6" y="238.3" width="6" height="8" rx="1" fill="url(#windowGlow)" opacity="0.8766006082187409"/>
<rect x="1058.6" y="253.3" width="6" height="8" rx="1" fill="url(#windowGlow)" opacity="0.981698954422818"/>
<rect x="1072.6" y="253.3" width="6" height="8" rx="1" fill="url(#windowGlow)" opacity="0.8893434910054054"/>
<rect x="119.4" y="102.6" width="47.0" height="197.4" rx="3" fill="url(#bldg_mint)" opacity="0.85"/>
<polygon points="119.4,102.6 142.9,91.6 166.4,102.6" fill="url(#roof_navyRoof)" opacity="0.85"/>
<rect x="132.9" y="112.6" width="6" height="8" rx="1" fill="url(#windowGlow)" opacity="0.7975286896794702"/>
<rect x="146.9" y="112.6" width="6" height="8" rx="1" fill="url(#windowGlow)" opacity="0.7169154701833219"/>
<rect x="132.9" y="127.6" width="6" height="8" rx="1" fill="url(#windowGlow)" opacity="0.8933245832069425"/>
<rect x="146.9" y="127.6" width="6" height="8" rx="1" fill="url(#windowGlow)" opacity="0.9812461835710546"/>
<rect x="132.9" y="142.6" width="6" height="8" rx="1" fill="url(#windowGlow)" opacity="0.9822715901221482"/>
<rect x="146.9" y="142.6" width="6" height="8" rx="1" fill="url(#windowGlow)" opacity="0.9097001428761053"/>
<rect x="132.9" y="157.6" width="6" height="8" rx="1" fill="url(#windowGlow)" opacity="0.9278012117500423"/>
<rect x="146.9" y="157.6" width="6" height="8" rx="1" fill="url(#windowGlow)" opacity="0.8859217860670395"/>
<rect x="146.9" y="172.6" width="6" height="8" rx="1" fill="url(#windowGlow)" opacity="0.9134576177752844"/>
<rect x="132.9" y="187.6" width="6" height="8" rx="1" fill="url(#windowGlow)" opacity="0.9151376677281864"/>
<rect x="146.9" y="187.6" width="6" height="8" rx="1" fill="url(#windowGlow)" opacity="0.9793701601118641"/>
<rect x="132.9" y="202.6" width="6" height="8" rx="1" fill="url(#windowGlow)" opacity="0.7770419868533694"/>
<rect x="146.9" y="202.6" width="6" height="8" rx="1" fill="url(#windowGlow)" opacity="0.944245185211415"/>
<rect x="132.9" y="217.6" width="6" height="8" rx="1" fill="url(#windowGlow)" opacity="0.7733135425361402"/>
<rect x="146.9" y="217.6" width="6" height="8" rx="1" fill="url(#windowGlow)" opacity="0.9921496086717347"/>
<rect x="353.5" y="153.3" width="66.9" height="146.7" rx="3" fill="url(#bldg_rose)" opacity="0.85"/>
<rect x="366.9" y="135.7" width="40.1" height="17.6" rx="2" fill="url(#roof_coralRoof)" opacity="0.85"/>
<rect x="370.0" y="163.3" width="6" height="8" rx="1" fill="url(#windowGlow)" opacity="0.828276902264113"/>
<rect x="398.0" y="163.3" width="6" height="8" rx="1" fill="url(#windowGlow)" opacity="0.9298438111459109"/>
<rect x="370.0" y="178.3" width="6" height="8" rx="1" fill="url(#windowGlow)" opacity="0.729632970331997"/>
<rect x="384.0" y="178.3" width="6" height="8" rx="1" fill="url(#windowGlow)" opacity="0.9722743757405664"/>
<rect x="384.0" y="193.3" width="6" height="8" rx="1" fill="url(#windowGlow)" opacity="0.8875255769060577"/>
<rect x="398.0" y="193.3" width="6" height="8" rx="1" fill="url(#windowGlow)" opacity="0.8083693467585227"/>
<rect x="370.0" y="208.3" width="6" height="8" rx="1" fill="url(#windowGlow)" opacity="0.7952415320534452"/>
<rect x="398.0" y="208.3" width="6" height="8" rx="1" fill="url(#windowGlow)" opacity="0.8513905761071436"/>
<rect x="370.0" y="223.3" width="6" height="8" rx="1" fill="url(#windowGlow)" opacity="0.8135167714271306"/>
<rect x="384.0" y="223.3" width="6" height="8" rx="1" fill="url(#windowGlow)" opacity="0.8039670783113535"/>
<rect x="370.0" y="238.3" width="6" height="8" rx="1" fill="url(#windowGlow)" opacity="0.8073249431826756"/>
<rect x="384.0" y="238.3" width="6" height="8" rx="1" fill="url(#windowGlow)" opacity="0.9024872897204418"/>
<rect x="398.0" y="238.3" width="6" height="8" rx="1" fill="url(#windowGlow)" opacity="0.7530494764694242"/>
<rect x="398.0" y="253.3" width="6" height="8" rx="1" fill="url(#windowGlow)" opacity="0.9608152895517719"/>
<rect x="585.0" y="160.4" width="47.3" height="139.6" rx="3" fill="url(#bldg_sky)" opacity="0.85"/>
<polygon points="585.0,160.4 608.6,144.5 632.3,160.4" fill="url(#roof_tealRoof)" opacity="0.85"/>
<rect x="612.6" y="170.4" width="6" height="8" rx="1" fill="url(#windowGlow)" opacity="0.7904126516964345"/>
<rect x="598.6" y="185.4" width="6" height="8" rx="1" fill="url(#windowGlow)" opacity="0.8003863657360832"/>
<rect x="612.6" y="185.4" width="6" height="8" rx="1" fill="url(#windowGlow)" opacity="0.7347573806693578"/>
<rect x="598.6" y="200.4" width="6" height="8" rx="1" fill="url(#windowGlow)" opacity="0.7947693534636727"/>
<rect x="612.6" y="200.4" width="6" height="8" rx="1" fill="url(#windowGlow)" opacity="0.921831985200677"/>
<rect x="598.6" y="215.4" width="6" height="8" rx="1" fill="url(#windowGlow)" opacity="0.9610902807959776"/>
<rect x="598.6" y="230.4" width="6" height="8" rx="1" fill="url(#windowGlow)" opacity="0.7232178490251385"/>
<rect x="612.6" y="230.4" width="6" height="8" rx="1" fill="url(#windowGlow)" opacity="0.8583860281195426"/>
<rect x="612.6" y="245.4" width="6" height="8" rx="1" fill="url(#windowGlow)" opacity="0.8746466237002269"/>
<rect x="598.6" y="260.4" width="6" height="8" rx="1" fill="url(#windowGlow)" opacity="0.9096013529270893"/>
<rect x="805.5" y="161.1" width="58.6" height="138.9" rx="3" fill="url(#bldg_coral)" opacity="0.85"/>
<rect x="805.5" y="158.1" width="58.6" height="3" rx="1" fill="url(#roof_navyRoof)" opacity="0.85"/>
<rect x="831.8" y="171.1" width="6" height="8" rx="1" fill="url(#windowGlow)" opacity="0.7628018392542385"/>
<rect x="845.8" y="171.1" width="6" height="8" rx="1" fill="url(#windowGlow)" opacity="0.9474785575864271"/>
<rect x="817.8" y="186.1" width="6" height="8" rx="1" fill="url(#windowGlow)" opacity="0.8950155911012625"/>
<rect x="831.8" y="186.1" width="6" height="8" rx="1" fill="url(#windowGlow)" opacity="0.9274823166557971"/>
<rect x="817.8" y="201.1" width="6" height="8" rx="1" fill="url(#windowGlow)" opacity="0.725489373563551"/>
<rect x="845.8" y="201.1" width="6" height="8" rx="1" fill="url(#windowGlow)" opacity="0.7798630170896012"/>
<rect x="817.8" y="216.1" width="6" height="8" rx="1" fill="url(#windowGlow)" opacity="0.960658270521396"/>
<rect x="845.8" y="216.1" width="6" height="8" rx="1" fill="url(#windowGlow)" opacity="0.9651395646692903"/>
<rect x="817.8" y="231.1" width="6" height="8" rx="1" fill="url(#windowGlow)" opacity="0.8110856976411704"/>
<rect x="831.8" y="231.1" width="6" height="8" rx="1" fill="url(#windowGlow)" opacity="0.8067783284032616"/>
<rect x="817.8" y="246.1" width="6" height="8" rx="1" fill="url(#windowGlow)" opacity="0.8532748761369263"/>
<rect x="831.8" y="246.1" width="6" height="8" rx="1" fill="url(#windowGlow)" opacity="0.919908889951142"/>
<rect x="845.8" y="246.1" width="6" height="8" rx="1" fill="url(#windowGlow)" opacity="0.8123908564971717"/>
<path d="M811.3 209.7 L834.8 209.7 L831.8 215.7 L814.3 215.7 Z" fill="url(#roof_tealRoof)" opacity="0.68"/>
<rect x="1049.0" y="152.1" width="41.5" height="147.9" rx="3" fill="url(#bldg_teal)" opacity="0.85"/>
<rect x="1049.0" y="149.1" width="41.5" height="3" rx="1" fill="url(#roof_coralRoof)" opacity="0.85"/>
<rect x="1066.7" y="162.1" width="6" height="8" rx="1" fill="url(#windowGlow)" opacity="0.7382251490551164"/>
<rect x="1066.7" y="177.1" width="6" height="8" rx="1" fill="url(#windowGlow)" opacity="0.80118854530211"/>
<rect x="1066.7" y="192.1" width="6" height="8" rx="1" fill="url(#windowGlow)" opacity="0.9915059279610896"/>
<rect x="1066.7" y="207.1" width="6" height="8" rx="1" fill="url(#windowGlow)" opacity="0.9758117074965553"/>
<rect x="1066.7" y="222.1" width="6" height="8" rx="1" fill="url(#windowGlow)" opacity="0.9420851947470033"/>
<rect x="1066.7" y="252.1" width="6" height="8" rx="1" fill="url(#windowGlow)" opacity="0.8952665486350965"/>
<path d="M1053.2 203.9 L1069.7 203.9 L1066.7 209.9 L1056.2 209.9 Z" fill="url(#roof_navyRoof)" opacity="0.68"/>
<rect x="136.8" y="219.3" width="48.4" height="80.7" rx="3" fill="url(#bldg_amber)" opacity="1"/>
<rect x="136.8" y="216.3" width="48.4" height="3" rx="1" fill="url(#roof_tealRoof)" opacity="1"/>
<rect x="151.0" y="229.3" width="6" height="8" rx="1" fill="url(#windowGlow)" opacity="0.7138758790278229"/>
<rect x="165.0" y="229.3" width="6" height="8" rx="1" fill="url(#windowGlow)" opacity="0.9641076219101006"/>
<rect x="151.0" y="244.3" width="6" height="8" rx="1" fill="url(#windowGlow)" opacity="0.9749984715017482"/>
<rect x="165.0" y="244.3" width="6" height="8" rx="1" fill="url(#windowGlow)" opacity="0.8356403427364492"/>
<rect x="151.0" y="259.3" width="6" height="8" rx="1" fill="url(#windowGlow)" opacity="0.948471393598463"/>
<rect x="165.0" y="259.3" width="6" height="8" rx="1" fill="url(#windowGlow)" opacity="0.8271577231712441"/>
<rect x="156.0" y="284.0" width="10" height="16" rx="2" fill="url(#roof_navyRoof)" opacity="0.8"/>
<rect x="158.0" y="287.0" width="6" height="10" rx="1" fill="url(#windowGlow)" opacity="0.45"/>
<rect x="367.6" y="164.8" width="56.2" height="135.2" rx="3" fill="url(#bldg_lavender)" opacity="1"/>
<rect x="378.9" y="148.6" width="33.7" height="16.2" rx="2" fill="url(#roof_navyRoof)" opacity="1"/>
<rect x="399.7" y="174.8" width="6" height="8" rx="1" fill="url(#windowGlow)" opacity="0.9517200505136139"/>
<rect x="399.7" y="189.8" width="6" height="8" rx="1" fill="url(#windowGlow)" opacity="0.8230683472580594"/>
<rect x="385.7" y="204.8" width="6" height="8" rx="1" fill="url(#windowGlow)" opacity="0.9809744067867167"/>
<rect x="399.7" y="204.8" width="6" height="8" rx="1" fill="url(#windowGlow)" opacity="0.980620507467827"/>
<rect x="385.7" y="219.8" width="6" height="8" rx="1" fill="url(#windowGlow)" opacity="0.8274251585488325"/>
<rect x="399.7" y="219.8" width="6" height="8" rx="1" fill="url(#windowGlow)" opacity="0.8694711589112277"/>
<rect x="399.7" y="234.8" width="6" height="8" rx="1" fill="url(#windowGlow)" opacity="0.7677516421152984"/>
<rect x="385.7" y="249.8" width="6" height="8" rx="1" fill="url(#windowGlow)" opacity="0.9869718966944943"/>
<rect x="390.7" y="284.0" width="10" height="16" rx="2" fill="url(#roof_navyRoof)" opacity="0.8"/>
<rect x="392.7" y="287.0" width="6" height="10" rx="1" fill="url(#windowGlow)" opacity="0.45"/>
<rect x="573.2" y="193.0" width="36.4" height="107.0" rx="3" fill="url(#bldg_blue)" opacity="1"/>
<rect x="573.2" y="190.0" width="36.4" height="3" rx="1" fill="url(#roof_coralRoof)" opacity="1"/>
<rect x="588.4" y="203.0" width="6" height="8" rx="1" fill="url(#windowGlow)" opacity="0.7921003343500663"/>
<rect x="588.4" y="218.0" width="6" height="8" rx="1" fill="url(#windowGlow)" opacity="0.73358919105194"/>
<rect x="588.4" y="233.0" width="6" height="8" rx="1" fill="url(#windowGlow)" opacity="0.8103397406685816"/>
<rect x="588.4" y="248.0" width="6" height="8" rx="1" fill="url(#windowGlow)" opacity="0.7691595523474549"/>
<rect x="586.4" y="284.0" width="10" height="16" rx="2" fill="url(#roof_navyRoof)" opacity="0.8"/>
<rect x="588.4" y="287.0" width="6" height="10" rx="1" fill="url(#windowGlow)" opacity="0.45"/>
<rect x="585.1" y="219.0" width="12.8" height="5" rx="1" fill="#15803d" opacity="0.7"/>
<circle cx="588.1" cy="218.0" r="2.5" fill="#f87171" opacity="0.85"/>
<circle cx="592.3" cy="218.0" r="2.5" fill="#f87171" opacity="0.85"/>
<circle cx="596.6" cy="218.0" r="2.5" fill="#f87171" opacity="0.85"/>
<rect x="831.9" y="64.4" width="34.2" height="235.6" rx="3" fill="url(#bldg_mint)" opacity="1"/>
<rect x="831.9" y="61.4" width="34.2" height="3" rx="1" fill="url(#roof_tealRoof)" opacity="1"/>
<rect x="846.1" y="74.4" width="6" height="8" rx="1" fill="url(#windowGlow)" opacity="0.8383636288057843"/>
<rect x="846.1" y="89.4" width="6" height="8" rx="1" fill="url(#windowGlow)" opacity="0.8986388470039883"/>
<rect x="846.1" y="104.4" width="6" height="8" rx="1" fill="url(#windowGlow)" opacity="0.8599894514121066"/>
<rect x="846.1" y="119.4" width="6" height="8" rx="1" fill="url(#windowGlow)" opacity="0.9278430589604392"/>
<rect x="846.1" y="134.4" width="6" height="8" rx="1" fill="url(#windowGlow)" opacity="0.9913236041047254"/>
<rect x="846.1" y="149.4" width="6" height="8" rx="1" fill="url(#windowGlow)" opacity="0.8249065360636014"/>
<rect x="846.1" y="164.4" width="6" height="8" rx="1" fill="url(#windowGlow)" opacity="0.9513502614811762"/>
<rect x="846.1" y="179.4" width="6" height="8" rx="1" fill="url(#windowGlow)" opacity="0.8384380106527535"/>
<rect x="844.1" y="284.0" width="10" height="16" rx="2" fill="url(#roof_navyRoof)" opacity="0.8"/>
<rect x="846.1" y="287.0" width="6" height="10" rx="1" fill="url(#windowGlow)" opacity="0.45"/>
<rect x="1025.9" y="185.5" width="31.9" height="114.5" rx="3" fill="url(#bldg_rose)" opacity="1"/>
<rect x="1025.9" y="182.5" width="31.9" height="3" rx="1" fill="url(#roof_navyRoof)" opacity="1"/>
<rect x="1038.9" y="195.5" width="6" height="8" rx="1" fill="url(#windowGlow)" opacity="0.758978556915642"/>
<rect x="1038.9" y="225.5" width="6" height="8" rx="1" fill="url(#windowGlow)" opacity="0.9792579413760722"/>
<rect x="1038.9" y="240.5" width="6" height="8" rx="1" fill="url(#windowGlow)" opacity="0.9572644423960077"/>
<rect x="1038.9" y="255.5" width="6" height="8" rx="1" fill="url(#windowGlow)" opacity="0.9516726448441262"/>
<rect x="1036.9" y="284.0" width="10" height="16" rx="2" fill="url(#roof_navyRoof)" opacity="0.8"/>
<rect x="1038.9" y="287.0" width="6" height="10" rx="1" fill="url(#windowGlow)" opacity="0.45"/>
<rect x="273.4" y="275.0" width="6" height="10.0" rx="2" fill="#92400e"/>
<polygon points="276.4,235.8 271.0,253.8 281.8,253.8" fill="#15803d" opacity="0.9"/>
<polygon points="276.4,248.8 268.8,266.9 284.0,266.9" fill="#16a34a" opacity="0.9"/>
<polygon points="276.4,261.9 266.7,280.0 286.2,280.0" fill="#22c55e" opacity="0.9"/>
<rect x="495.5" y="275.0" width="6" height="10.0" rx="2" fill="#92400e"/>
<polygon points="498.5,232.5 493.8,251.7 503.2,251.7" fill="#15803d" opacity="0.9"/>
<polygon points="498.5,246.7 491.9,265.8 505.1,265.8" fill="#16a34a" opacity="0.9"/>
<polygon points="498.5,260.8 490.0,280.0 507.0,280.0" fill="#22c55e" opacity="0.9"/>
<rect x="0" y="282" width="1200" height="18" fill="url(#groundGrad)"/>
<line x1="689.1" y1="282.0" x2="689.1" y2="241.7" stroke="#92400e" stroke-width="2"/>
<circle cx="689.1" cy="241.7" r="4" fill="#fef08a" opacity="0.6"/>
<circle cx="689.1" cy="241.7" r="8" fill="#fef08a" opacity="0.15" filter="url(#softGlow)"/>
<line x1="412.3" y1="282.0" x2="412.3" y2="244.3" stroke="#92400e" stroke-width="2"/>
<circle cx="412.3" cy="244.3" r="4" fill="#fef08a" opacity="0.6"/>
<circle cx="412.3" cy="244.3" r="8" fill="#fef08a" opacity="0.15" filter="url(#softGlow)"/>
<ellipse cx="1091.1" cy="282.0" rx="6.1" ry="4.3" fill="#22c55e" opacity="0.6"/>
<ellipse cx="774.7" cy="282.0" rx="5.5" ry="3.9" fill="#22c55e" opacity="0.6"/>
<ellipse cx="341.8" cy="282.0" rx="4.5" ry="3.1" fill="#22c55e" opacity="0.6"/>
</svg>