<svg xmlns="http://www.w3.org/2000/svg" viewBox="0 0 1200 300" width="1200" height="300">
<defs>
<linearGradient id="skyGrad" x1="0" y1="0" x2="0" y2="1">
<stop offset="0%" stop-color="#a78bfa"/>
<stop offset="18%" stop-color="#ddb4f0"/>
<stop offset="35%" stop-color="#fda4af"/>
<stop offset="52%" stop-color="#fdba74"/>
<stop offset="72%" stop-color="#fef08a"/>
<stop offset="100%" stop-color="#fef9c3"/>
</linearGradient>
<linearGradient id="bldg_coral" x1="0" y1="0" x2="0" y2="1"><stop offset="0%" stop-color="#fecaca"/><stop offset="100%" stop-color="#fca5a5"/></linearGradient>
<linearGradient id="bldg_teal" x1="0" y1="0" x2="0" y2="1"><stop offset="0%" stop-color="#99f6e4"/><stop offset="100%" stop-color="#5eead4"/></linearGradient>
<linearGradient id="bldg_amber" x1="0" y1="0" x2="0" y2="1"><stop offset="0%" stop-color="#fde68a"/><stop offset="100%" stop-color="#fcd34d"/></linearGradient>
<linearGradient id="bldg_lavender" x1="0" y1="0" x2="0" y2="1"><stop offset="0%" stop-color="#ddd6fe"/><stop offset="100%" stop-color="#c4b5fd"/></linearGradient>
<linearGradient id="bldg_blue" x1="0" y1="0" x2="0" y2="1"><stop offset="0%" stop-color="#bfdbfe"/><stop offset="100%" stop-color="#93c5fd"/></linearGradient>
<linearGradient id="bldg_mint" x1="0" y1="0" x2="0" y2="1"><stop offset="0%" stop-color="#a7f3d0"/><stop offset="100%" stop-color="#6ee7b7"/></linearGradient>
<linearGradient id="bldg_rose" x1="0" y1="0" x2="0" y2="1"><stop offset="0%" stop-color="#fecdd3"/><stop offset="100%" stop-color="#fda4af"/></linearGradient>
<linearGradient id="bldg_sky" x1="0" y1="0" x2="0" y2="1"><stop offset="0%" stop-color="#bae6fd"/><stop offset="100%" stop-color="#7dd3fc"/></linearGradient>
<linearGradient id="roof_navyRoof" x1="0" y1="0" x2="0" y2="1"><stop offset="0%" stop-color="#4338ca"/><stop offset="100%" stop-color="#3730a3"/></linearGradient>
<linearGradient id="roof_coralRoof" x1="0" y1="0" x2="0" y2="1"><stop offset="0%" stop-color="#f87171"/><stop offset="100%" stop-color="#ef4444"/></linearGradient>
<linearGradient id="roof_tealRoof" x1="0" y1="0" x2="0" y2="1"><stop offset="0%" stop-color="#2dd4bf"/><stop offset="100%" stop-color="#14b8a6"/></linearGradient>
<radialGradient id="windowGlow" cx="50%" cy="50%" r="50%"><stop offset="0%" stop-color="#fef08a"/><stop offset="60%" stop-color="#fbbf24"/><stop offset="100%" stop-color="#f59e0b"/></radialGradient>
<linearGradient id="hillFar" x1="0" y1="0" x2="0" y2="1"><stop offset="0%" stop-color="#c4b5fd"/><stop offset="100%" stop-color="#a5b4fc"/></linearGradient>
<linearGradient id="hillMid" x1="0" y1="0" x2="0" y2="1"><stop offset="0%" stop-color="#86efac"/><stop offset="100%" stop-color="#4ade80"/></linearGradient>
<linearGradient id="hillNear" x1="0" y1="0" x2="0" y2="1"><stop offset="0%" stop-color="#34d399"/><stop offset="100%" stop-color="#10b981"/></linearGradient>
<linearGradient id="hillDesertFar" x1="0" y1="0" x2="0" y2="1"><stop offset="0%" stop-color="#fde68a"/><stop offset="100%" stop-color="#fcd34d"/></linearGradient>
<linearGradient id="hillDesertMid" x1="0" y1="0" x2="0" y2="1"><stop offset="0%" stop-color="#fcd34d"/><stop offset="100%" stop-color="#fbbf24"/></linearGradient>
<linearGradient id="hillDesertNear" x1="0" y1="0" x2="0" y2="1"><stop offset="0%" stop-color="#fbbf24"/><stop offset="100%" stop-color="#f59e0b"/></linearGradient>
<linearGradient id="groundGrad" x1="0" y1="0" x2="0" y2="1"><stop offset="0%" stop-color="#fef3c7"/><stop offset="100%" stop-color="#fde68a"/></linearGradient>
<linearGradient id="waterGrad" x1="0" y1="0" x2="0" y2="1"><stop offset="0%" stop-color="#bfdbfe"/><stop offset="100%" stop-color="#93c5fd"/></linearGradient>
<filter id="softGlow" x="-50%" y="-50%" width="200%" height="200%"><feGaussianBlur in="SourceGraphic" stdDeviation="12"/></filter>
</defs>
<rect width="1200" height="300" fill="url(#skyGrad)"/>
<circle cx="964.8" cy="50.3" r="45" fill="#fef08a" opacity="0.12" filter="url(#softGlow)"/>
<circle cx="964.8" cy="50.3" r="30" fill="#fde68a" opacity="0.18" filter="url(#softGlow)"/>
<circle cx="964.8" cy="50.3" r="16" fill="#fef9c3" opacity="0.25" filter="url(#softGlow)"/>
<path d="M0 300 L0.0 195.4 C195.0 195.4, 195.0 188.9, 389.9 188.9 C634.5 188.9, 634.5 192.9, 879.1 192.9 C1039.5 192.9, 1039.5 185.8, 1200.0 185.8 L1200 300 Z" fill="url(#hillFar)" opacity="0.5"/>
<path d="M0 300 L0.0 214.4 C213.2 214.4, 213.2 214.7, 426.4 214.7 C659.5 214.7, 659.5 213.3, 892.6 213.3 C1046.3 213.3, 1046.3 207.5, 1200.0 207.5 L1200 300 Z" fill="url(#hillMid)" opacity="0.7"/>
<path d="M0 300 L0.0 235.1 C239.7 235.1, 239.7 235.1, 479.3 235.1 C671.1 235.1, 671.1 230.4, 862.9 230.4 C1031.4 230.4, 1031.4 236.0, 1200.0 236.0 L1200 300 Z" fill="url(#hillNear)" opacity="1"/>
<rect x="316.5" y="230.5" width="85.6" height="69.5" rx="3" fill="url(#bldg_coral)" opacity="0.7"/>
<polygon points="316.5,230.5 359.3,200.6 402.1,230.5" fill="url(#roof_coralRoof)" opacity="0.7"/>
<rect x="335.3" y="240.5" width="6" height="8" rx="1" fill="url(#windowGlow)" opacity="0.8404373159820387"/>
<rect x="349.3" y="240.5" width="6" height="8" rx="1" fill="url(#windowGlow)" opacity="0.8997783867175589"/>
<rect x="363.3" y="240.5" width="6" height="8" rx="1" fill="url(#windowGlow)" opacity="0.9098342266445207"/>
<rect x="335.3" y="255.5" width="6" height="8" rx="1" fill="url(#windowGlow)" opacity="0.9507521540162862"/>
<rect x="349.3" y="255.5" width="6" height="8" rx="1" fill="url(#windowGlow)" opacity="0.8898909988766028"/>
<rect x="363.3" y="255.5" width="6" height="8" rx="1" fill="url(#windowGlow)" opacity="0.7472059932757197"/>
<rect x="377.3" y="255.5" width="6" height="8" rx="1" fill="url(#windowGlow)" opacity="0.8332307264829197"/>
<rect x="791.7" y="245.7" width="47.1" height="54.3" rx="3" fill="url(#bldg_teal)" opacity="0.7"/>
<polygon points="791.7,245.7 815.2,230.2 838.7,245.7" fill="url(#roof_tealRoof)" opacity="0.7"/>
<rect x="805.2" y="255.7" width="6" height="8" rx="1" fill="url(#windowGlow)" opacity="0.9017060636550681"/>
<rect x="819.2" y="255.7" width="6" height="8" rx="1" fill="url(#windowGlow)" opacity="0.9453652853357444"/>
<rect x="185.8" y="169.2" width="69.6" height="130.8" rx="3" fill="url(#bldg_amber)" opacity="0.85"/>
<polygon points="185.8,169.2 220.6,146.6 255.4,169.2" fill="url(#roof_navyRoof)" opacity="0.85"/>
<rect x="203.6" y="179.2" width="6" height="8" rx="1" fill="url(#windowGlow)" opacity="0.8809611759991204"/>
<rect x="217.6" y="179.2" width="6" height="8" rx="1" fill="url(#windowGlow)" opacity="0.8847428495924653"/>
<rect x="231.6" y="179.2" width="6" height="8" rx="1" fill="url(#windowGlow)" opacity="0.7502225061181106"/>
<rect x="203.6" y="194.2" width="6" height="8" rx="1" fill="url(#windowGlow)" opacity="0.8508224525259912"/>
<rect x="217.6" y="194.2" width="6" height="8" rx="1" fill="url(#windowGlow)" opacity="0.8777067232773205"/>
<rect x="231.6" y="194.2" width="6" height="8" rx="1" fill="url(#windowGlow)" opacity="0.9985651842777454"/>
<rect x="203.6" y="209.2" width="6" height="8" rx="1" fill="url(#windowGlow)" opacity="0.9753301309772442"/>
<rect x="217.6" y="209.2" width="6" height="8" rx="1" fill="url(#windowGlow)" opacity="0.7196095619441986"/>
<rect x="231.6" y="209.2" width="6" height="8" rx="1" fill="url(#windowGlow)" opacity="0.9253634944676251"/>
<rect x="217.6" y="224.2" width="6" height="8" rx="1" fill="url(#windowGlow)" opacity="0.7065473340947866"/>
<rect x="231.6" y="224.2" width="6" height="8" rx="1" fill="url(#windowGlow)" opacity="0.977794908814968"/>
<rect x="203.6" y="239.2" width="6" height="8" rx="1" fill="url(#windowGlow)" opacity="0.9942950531813758"/>
<rect x="231.6" y="239.2" width="6" height="8" rx="1" fill="url(#windowGlow)" opacity="0.7553935868923523"/>
<rect x="217.6" y="254.2" width="6" height="8" rx="1" fill="url(#windowGlow)" opacity="0.7410208079689279"/>
<rect x="527.1" y="186.4" width="73.4" height="113.6" rx="3" fill="url(#bldg_lavender)" opacity="0.85"/>
<rect x="527.1" y="183.4" width="73.4" height="3" rx="1" fill="url(#roof_coralRoof)" opacity="0.85"/>
<rect x="539.8" y="196.4" width="6" height="8" rx="1" fill="url(#windowGlow)" opacity="0.8836772124207006"/>
<rect x="567.8" y="196.4" width="6" height="8" rx="1" fill="url(#windowGlow)" opacity="0.7521581008807561"/>
<rect x="581.8" y="196.4" width="6" height="8" rx="1" fill="url(#windowGlow)" opacity="0.831154663037115"/>
<rect x="567.8" y="211.4" width="6" height="8" rx="1" fill="url(#windowGlow)" opacity="0.7628308114422628"/>
<rect x="581.8" y="211.4" width="6" height="8" rx="1" fill="url(#windowGlow)" opacity="0.7342151339790853"/>
<rect x="539.8" y="226.4" width="6" height="8" rx="1" fill="url(#windowGlow)" opacity="0.8117010491954633"/>
<rect x="553.8" y="226.4" width="6" height="8" rx="1" fill="url(#windowGlow)" opacity="0.9301438691700548"/>
<rect x="567.8" y="226.4" width="6" height="8" rx="1" fill="url(#windowGlow)" opacity="0.745527131178196"/>
<rect x="581.8" y="226.4" width="6" height="8" rx="1" fill="url(#windowGlow)" opacity="0.9214673437743761"/>
<rect x="539.8" y="241.4" width="6" height="8" rx="1" fill="url(#windowGlow)" opacity="0.708281597359237"/>
<rect x="553.8" y="241.4" width="6" height="8" rx="1" fill="url(#windowGlow)" opacity="0.9058045669020174"/>
<rect x="567.8" y="241.4" width="6" height="8" rx="1" fill="url(#windowGlow)" opacity="0.8454773624639387"/>
<rect x="581.8" y="241.4" width="6" height="8" rx="1" fill="url(#windowGlow)" opacity="0.7200041312351841"/>
<rect x="539.8" y="256.4" width="6" height="8" rx="1" fill="url(#windowGlow)" opacity="0.9675832431612458"/>
<rect x="553.8" y="256.4" width="6" height="8" rx="1" fill="url(#windowGlow)" opacity="0.8198683345782889"/>
<rect x="567.8" y="256.4" width="6" height="8" rx="1" fill="url(#windowGlow)" opacity="0.785900423017284"/>
<rect x="581.8" y="256.4" width="6" height="8" rx="1" fill="url(#windowGlow)" opacity="0.7057757377185745"/>
<path d="M563.8 226.2 L593.2 226.2 L590.2 232.2 L566.8 232.2 Z" fill="url(#roof_navyRoof)" opacity="0.68"/>
<rect x="950.6" y="185.4" width="45.3" height="114.6" rx="3" fill="url(#bldg_blue)" opacity="0.85"/>
<polygon points="950.6,185.4 973.2,170.6 995.9,185.4" fill="url(#roof_tealRoof)" opacity="0.85"/>
<rect x="963.2" y="195.4" width="6" height="8" rx="1" fill="url(#windowGlow)" opacity="0.8080206018909908"/>
<rect x="977.2" y="195.4" width="6" height="8" rx="1" fill="url(#windowGlow)" opacity="0.7601401191019174"/>
<rect x="963.2" y="210.4" width="6" height="8" rx="1" fill="url(#windowGlow)" opacity="0.8134291115279444"/>
<rect x="977.2" y="210.4" width="6" height="8" rx="1" fill="url(#windowGlow)" opacity="0.7629166887900404"/>
<rect x="963.2" y="225.4" width="6" height="8" rx="1" fill="url(#windowGlow)" opacity="0.8472394340891574"/>
<rect x="977.2" y="225.4" width="6" height="8" rx="1" fill="url(#windowGlow)" opacity="0.9429098211894322"/>
<rect x="963.2" y="240.4" width="6" height="8" rx="1" fill="url(#windowGlow)" opacity="0.8054443730998059"/>
<rect x="977.2" y="240.4" width="6" height="8" rx="1" fill="url(#windowGlow)" opacity="0.9704130857113809"/>
<rect x="963.2" y="255.4" width="6" height="8" rx="1" fill="url(#windowGlow)" opacity="0.946807575759854"/>
<rect x="977.2" y="255.4" width="6" height="8" rx="1" fill="url(#windowGlow)" opacity="0.9028988544377027"/>
<path d="M955.1 225.5 L973.2 225.5 L970.2 231.5 L958.1 231.5 Z" fill="url(#roof_coralRoof)" opacity="0.68"/>
<rect x="223.5" y="209.3" width="40.6" height="90.7" rx="3" fill="url(#bldg_mint)" opacity="1"/>
<polygon points="223.5,209.3 243.8,197.2 264.1,209.3" fill="url(#roof_navyRoof)" opacity="1"/>
<rect x="240.8" y="219.3" width="6" height="8" rx="1" fill="url(#windowGlow)" opacity="0.8089966789861194"/>
<rect x="240.8" y="234.3" width="6" height="8" rx="1" fill="url(#windowGlow)" opacity="0.8259695693971447"/>
<rect x="238.8" y="284.0" width="10" height="16" rx="2" fill="url(#roof_navyRoof)" opacity="0.8"/>
<rect x="240.8" y="287.0" width="6" height="10" rx="1" fill="url(#windowGlow)" opacity="0.45"/>
<rect x="526.0" y="144.9" width="74.1" height="155.1" rx="3" fill="url(#bldg_rose)" opacity="1"/>
<rect x="526.0" y="141.9" width="74.1" height="3" rx="1" fill="url(#roof_coralRoof)" opacity="1"/>
<rect x="539.0" y="154.9" width="6" height="8" rx="1" fill="url(#windowGlow)" opacity="0.8837712672929146"/>
<rect x="567.0" y="154.9" width="6" height="8" rx="1" fill="url(#windowGlow)" opacity="0.8860939850034629"/>
<rect x="581.0" y="154.9" width="6" height="8" rx="1" fill="url(#windowGlow)" opacity="0.7734547942287543"/>
<rect x="539.0" y="169.9" width="6" height="8" rx="1" fill="url(#windowGlow)" opacity="0.872346437243906"/>
<rect x="553.0" y="169.9" width="6" height="8" rx="1" fill="url(#windowGlow)" opacity="0.850784697919518"/>
<rect x="567.0" y="169.9" width="6" height="8" rx="1" fill="url(#windowGlow)" opacity="0.9268074379427392"/>
<rect x="581.0" y="169.9" width="6" height="8" rx="1" fill="url(#windowGlow)" opacity="0.7171543295575092"/>
<rect x="539.0" y="184.9" width="6" height="8" rx="1" fill="url(#windowGlow)" opacity="0.7692199049839842"/>
<rect x="553.0" y="184.9" width="6" height="8" rx="1" fill="url(#windowGlow)" opacity="0.9193219119772882"/>
<rect x="567.0" y="184.9" width="6" height="8" rx="1" fill="url(#windowGlow)" opacity="0.9763816577738065"/>
<rect x="539.0" y="199.9" width="6" height="8" rx="1" fill="url(#windowGlow)" opacity="0.9679071838818059"/>
<rect x="567.0" y="199.9" width="6" height="8" rx="1" fill="url(#windowGlow)" opacity="0.8341505607283444"/>
<rect x="581.0" y="199.9" width="6" height="8" rx="1" fill="url(#windowGlow)" opacity="0.7113299347513029"/>
<rect x="539.0" y="214.9" width="6" height="8" rx="1" fill="url(#windowGlow)" opacity="0.7038191306422553"/>
<rect x="553.0" y="214.9" width="6" height="8" rx="1" fill="url(#windowGlow)" opacity="0.8641072085891418"/>
<rect x="567.0" y="214.9" width="6" height="8" rx="1" fill="url(#windowGlow)" opacity="0.9758153068254772"/>
<rect x="581.0" y="214.9" width="6" height="8" rx="1" fill="url(#windowGlow)" opacity="0.9315908526217522"/>
<rect x="553.0" y="229.9" width="6" height="8" rx="1" fill="url(#windowGlow)" opacity="0.8971453803112476"/>
<rect x="581.0" y="229.9" width="6" height="8" rx="1" fill="url(#windowGlow)" opacity="0.7772900116989807"/>
<rect x="539.0" y="244.9" width="6" height="8" rx="1" fill="url(#windowGlow)" opacity="0.8101376623428136"/>
<rect x="567.0" y="244.9" width="6" height="8" rx="1" fill="url(#windowGlow)" opacity="0.7786708412592629"/>
<rect x="539.0" y="259.9" width="6" height="8" rx="1" fill="url(#windowGlow)" opacity="0.8017121115241721"/>
<rect x="553.0" y="259.9" width="6" height="8" rx="1" fill="url(#windowGlow)" opacity="0.7300876584044134"/>
<rect x="567.0" y="259.9" width="6" height="8" rx="1" fill="url(#windowGlow)" opacity="0.770430136411651"/>
<rect x="581.0" y="259.9" width="6" height="8" rx="1" fill="url(#windowGlow)" opacity="0.9193602661692352"/>
<rect x="558.0" y="284.0" width="10" height="16" rx="2" fill="url(#roof_navyRoof)" opacity="0.8"/>
<rect x="560.0" y="287.0" width="6" height="10" rx="1" fill="url(#windowGlow)" opacity="0.45"/>
<path d="M563.0 199.2 L592.6 199.2 L589.6 205.2 L566.0 205.2 Z" fill="url(#roof_navyRoof)" opacity="0.8"/>
<rect x="991.3" y="138.6" width="56.9" height="161.4" rx="3" fill="url(#bldg_sky)" opacity="1"/>
<polygon points="991.3,138.6 1019.8,122.8 1048.2,138.6" fill="url(#roof_tealRoof)" opacity="1"/>
<rect x="1023.8" y="178.6" width="6" height="8" rx="1" fill="url(#windowGlow)" opacity="0.812542851694181"/>
<rect x="1023.8" y="193.6" width="6" height="8" rx="1" fill="url(#windowGlow)" opacity="0.9467946114702125"/>
<rect x="1009.8" y="208.6" width="6" height="8" rx="1" fill="url(#windowGlow)" opacity="0.9084100493734749"/>
<rect x="1023.8" y="208.6" width="6" height="8" rx="1" fill="url(#windowGlow)" opacity="0.8827930547682535"/>
<rect x="1009.8" y="223.6" width="6" height="8" rx="1" fill="url(#windowGlow)" opacity="0.856097510390029"/>
<rect x="1023.8" y="223.6" width="6" height="8" rx="1" fill="url(#windowGlow)" opacity="0.9127009375545666"/>
<rect x="1009.8" y="238.6" width="6" height="8" rx="1" fill="url(#windowGlow)" opacity="0.9249105354421355"/>
<rect x="1023.8" y="238.6" width="6" height="8" rx="1" fill="url(#windowGlow)" opacity="0.8699244696972539"/>
<rect x="1009.8" y="253.6" width="6" height="8" rx="1" fill="url(#windowGlow)" opacity="0.8685552458598069"/>
<rect x="1023.8" y="253.6" width="6" height="8" rx="1" fill="url(#windowGlow)" opacity="0.8423704410169135"/>
<rect x="1014.8" y="284.0" width="10" height="16" rx="2" fill="url(#roof_navyRoof)" opacity="0.8"/>
<rect x="1016.8" y="287.0" width="6" height="10" rx="1" fill="url(#windowGlow)" opacity="0.45"/>
<path d="M1019.8 195.1 L1042.5 195.1 L1039.5 201.1 L1022.8 201.1 Z" fill="url(#roof_coralRoof)" opacity="0.8"/>
<path d="M395.0 285.0 Q414.6 261.0 406.8 237.1" stroke="#92400e" stroke-width="4" fill="none" stroke-linecap="round"/>
<path d="M406.8 237.1 Q397.7 227.3 391.7 228.8" stroke="#16a34a" stroke-width="2.5" fill="none" stroke-linecap="round"/>
<path d="M406.8 237.1 Q412.1 225.7 415.6 225.3" stroke="#22c55e" stroke-width="2.5" fill="none" stroke-linecap="round"/>
<path d="M406.8 237.1 Q424.0 231.1 435.5 237.1" stroke="#15803d" stroke-width="2.5" fill="none" stroke-linecap="round"/>
<path d="M406.8 237.1 Q411.4 235.8 414.6 247.4" stroke="#4ade80" stroke-width="2.5" fill="none" stroke-linecap="round"/>
<path d="M406.8 237.1 Q397.7 234.9 391.7 245.4" stroke="#16a34a" stroke-width="2.5" fill="none" stroke-linecap="round"/>
<path d="M795.7 285.0 Q820.6 253.5 810.6 221.9" stroke="#92400e" stroke-width="4" fill="none" stroke-linecap="round"/>
<path d="M810.6 221.9 Q801.2 212.0 795.0 213.3" stroke="#16a34a" stroke-width="2.5" fill="none" stroke-linecap="round"/>
<path d="M810.6 221.9 Q815.6 210.9 818.9 210.9" stroke="#22c55e" stroke-width="2.5" fill="none" stroke-linecap="round"/>
<path d="M810.6 221.9 Q823.9 215.9 832.7 221.9" stroke="#15803d" stroke-width="2.5" fill="none" stroke-linecap="round"/>
<path d="M810.6 221.9 Q817.9 223.2 822.8 238.0" stroke="#4ade80" stroke-width="2.5" fill="none" stroke-linecap="round"/>
<path d="M810.6 221.9 Q799.2 220.7 791.5 232.4" stroke="#16a34a" stroke-width="2.5" fill="none" stroke-linecap="round"/>
<path d="M181.4 285.0 Q195.4 261.2 189.8 237.3" stroke="#92400e" stroke-width="4" fill="none" stroke-linecap="round"/>
<path d="M189.8 237.3 Q176.0 225.6 166.8 224.7" stroke="#16a34a" stroke-width="2.5" fill="none" stroke-linecap="round"/>
<path d="M189.8 237.3 Q195.3 225.8 199.0 225.1" stroke="#22c55e" stroke-width="2.5" fill="none" stroke-linecap="round"/>
<path d="M189.8 237.3 Q208.6 231.3 221.1 237.3" stroke="#15803d" stroke-width="2.5" fill="none" stroke-linecap="round"/>
<path d="M189.8 237.3 Q194.5 236.0 197.6 247.7" stroke="#4ade80" stroke-width="2.5" fill="none" stroke-linecap="round"/>
<path d="M189.8 237.3 Q177.0 236.7 168.4 249.1" stroke="#16a34a" stroke-width="2.5" fill="none" stroke-linecap="round"/>
<path d="M1098.0 285.0 Q1122.5 260.5 1112.7 236.1" stroke="#92400e" stroke-width="4" fill="none" stroke-linecap="round"/>
<path d="M1112.7 236.1 Q1100.1 224.8 1091.7 224.5" stroke="#16a34a" stroke-width="2.5" fill="none" stroke-linecap="round"/>
<path d="M1112.7 236.1 Q1118.4 224.3 1122.3 223.3" stroke="#22c55e" stroke-width="2.5" fill="none" stroke-linecap="round"/>
<path d="M1112.7 236.1 Q1131.9 230.1 1144.6 236.1" stroke="#15803d" stroke-width="2.5" fill="none" stroke-linecap="round"/>
<path d="M1112.7 236.1 Q1118.7 236.1 1122.7 249.3" stroke="#4ade80" stroke-width="2.5" fill="none" stroke-linecap="round"/>
<path d="M1112.7 236.1 Q1100.3 235.2 1092.1 247.4" stroke="#16a34a" stroke-width="2.5" fill="none" stroke-linecap="round"/>
<path d="M830.6 285.0 Q855.0 263.6 845.3 242.1" stroke="#92400e" stroke-width="4" fill="none" stroke-linecap="round"/>
<path d="M845.3 242.1 Q833.1 231.0 824.9 230.9" stroke="#16a34a" stroke-width="2.5" fill="none" stroke-linecap="round"/>
<path d="M845.3 242.1 Q851.9 229.5 856.3 227.5" stroke="#22c55e" stroke-width="2.5" fill="none" stroke-linecap="round"/>
<path d="M845.3 242.1 Q858.0 236.1 866.5 242.1" stroke="#15803d" stroke-width="2.5" fill="none" stroke-linecap="round"/>
<path d="M845.3 242.1 Q851.6 242.5 855.8 256.1" stroke="#4ade80" stroke-width="2.5" fill="none" stroke-linecap="round"/>
<path d="M845.3 242.1 Q835.3 240.3 828.6 251.3" stroke="#16a34a" stroke-width="2.5" fill="none" stroke-linecap="round"/>
<path d="M893.3 285.0 Q911.6 259.2 904.3 233.4" stroke="#92400e" stroke-width="4" fill="none" stroke-linecap="round"/>
<path d="M904.3 233.4 Q894.0 223.1 887.2 224.0" stroke="#16a34a" stroke-width="2.5" fill="none" stroke-linecap="round"/>
<path d="M904.3 233.4 Q911.6 220.0 916.5 217.2" stroke="#22c55e" stroke-width="2.5" fill="none" stroke-linecap="round"/>
<path d="M904.3 233.4 Q917.4 227.4 926.1 233.4" stroke="#15803d" stroke-width="2.5" fill="none" stroke-linecap="round"/>
<path d="M904.3 233.4 Q909.7 232.8 913.2 245.3" stroke="#4ade80" stroke-width="2.5" fill="none" stroke-linecap="round"/>
<path d="M904.3 233.4 Q895.3 231.2 889.3 241.6" stroke="#16a34a" stroke-width="2.5" fill="none" stroke-linecap="round"/>
<path d="M57.9 285.0 Q84.2 254.9 73.7 224.9" stroke="#92400e" stroke-width="4" fill="none" stroke-linecap="round"/>
<path d="M73.7 224.9 Q64.0 214.8 57.5 216.0" stroke="#16a34a" stroke-width="2.5" fill="none" stroke-linecap="round"/>
<path d="M73.7 224.9 Q80.7 211.8 85.3 209.4" stroke="#22c55e" stroke-width="2.5" fill="none" stroke-linecap="round"/>
<path d="M73.7 224.9 Q93.1 218.9 106.0 224.9" stroke="#15803d" stroke-width="2.5" fill="none" stroke-linecap="round"/>
<path d="M73.7 224.9 Q80.2 225.4 84.6 239.3" stroke="#4ade80" stroke-width="2.5" fill="none" stroke-linecap="round"/>
<path d="M73.7 224.9 Q61.6 223.9 53.5 236.0" stroke="#16a34a" stroke-width="2.5" fill="none" stroke-linecap="round"/>
<path d="M1045.5 285.0 Q1075.2 255.4 1063.3 225.8" stroke="#92400e" stroke-width="4" fill="none" stroke-linecap="round"/>
<path d="M1063.3 225.8 Q1051.5 214.9 1043.6 214.9" stroke="#16a34a" stroke-width="2.5" fill="none" stroke-linecap="round"/>
<path d="M1063.3 225.8 Q1070.6 212.4 1075.5 209.6" stroke="#22c55e" stroke-width="2.5" fill="none" stroke-linecap="round"/>
<path d="M1063.3 225.8 Q1076.7 219.8 1085.6 225.8" stroke="#15803d" stroke-width="2.5" fill="none" stroke-linecap="round"/>
<path d="M1063.3 225.8 Q1070.2 226.7 1074.7 240.9" stroke="#4ade80" stroke-width="2.5" fill="none" stroke-linecap="round"/>
<path d="M1063.3 225.8 Q1051.0 224.9 1042.8 237.1" stroke="#16a34a" stroke-width="2.5" fill="none" stroke-linecap="round"/>
<rect x="0" y="282" width="1200" height="18" fill="url(#groundGrad)"/>
<line x1="287.9" y1="282.0" x2="287.9" y2="247.2" stroke="#92400e" stroke-width="2"/>
<circle cx="287.9" cy="247.2" r="4" fill="#fef08a" opacity="0.6"/>
<circle cx="287.9" cy="247.2" r="8" fill="#fef08a" opacity="0.15" filter="url(#softGlow)"/>
<line x1="671.9" y1="282.0" x2="671.9" y2="244.9" stroke="#92400e" stroke-width="2"/>
<circle cx="671.9" cy="244.9" r="4" fill="#fef08a" opacity="0.6"/>
<circle cx="671.9" cy="244.9" r="8" fill="#fef08a" opacity="0.15" filter="url(#softGlow)"/>
<ellipse cx="221.9" cy="282.0" rx="4.5" ry="3.1" fill="#22c55e" opacity="0.6"/>
<ellipse cx="324.5" cy="282.0" rx="6.8" ry="4.7" fill="#22c55e" opacity="0.6"/>
<ellipse cx="973.7" cy="282.0" rx="5.0" ry="3.5" fill="#22c55e" opacity="0.6"/>
<ellipse cx="920.3" cy="282.0" rx="5.4" ry="3.8" fill="#22c55e" opacity="0.6"/>
</svg>