<svg xmlns="http://www.w3.org/2000/svg" viewBox="0 0 1200 300" width="1200" height="300">
<rect width="1200" height="300" fill="#e6eef4"/>
<path d="M0 300 L0 210.0 C188.5 174.2, 876.3 194.7, 1200 210.0 L1200 300 Z" fill="#b5cad8" opacity="0.3"/>
<rect x="150.4" y="185.4" width="52.3" height="114.6" fill="#99b6c9"/>
<rect x="333.3" y="215.1" width="75.4" height="84.9" fill="#99b6c9"/>
<rect x="530.7" y="220.2" width="79.8" height="79.8" fill="#99b6c9"/>
<rect x="810.6" y="159.4" width="78.4" height="140.6" fill="#99b6c9"/>
<rect x="985.4" y="144.1" width="74.3" height="155.9" fill="#99b6c9"/>
<rect x="133.0" y="143.3" width="78.7" height="156.7" fill="#6a95b1"/>
<rect x="162.4" y="155.3" width="6" height="8" fill="#9ebacc" opacity="0.5"/>
<rect x="176.4" y="155.3" width="6" height="8" fill="#9ebacc" opacity="0.5"/>
<rect x="148.4" y="171.3" width="6" height="8" fill="#9ebacc" opacity="0.5"/>
<rect x="162.4" y="171.3" width="6" height="8" fill="#9ebacc" opacity="0.5"/>
<rect x="190.4" y="171.3" width="6" height="8" fill="#9ebacc" opacity="0.5"/>
<rect x="148.4" y="187.3" width="6" height="8" fill="#9ebacc" opacity="0.5"/>
<rect x="162.4" y="187.3" width="6" height="8" fill="#9ebacc" opacity="0.5"/>
<rect x="176.4" y="187.3" width="6" height="8" fill="#9ebacc" opacity="0.5"/>
<rect x="190.4" y="187.3" width="6" height="8" fill="#9ebacc" opacity="0.5"/>
<rect x="148.4" y="203.3" width="6" height="8" fill="#9ebacc" opacity="0.5"/>
<rect x="190.4" y="203.3" width="6" height="8" fill="#9ebacc" opacity="0.5"/>
<rect x="162.4" y="219.3" width="6" height="8" fill="#9ebacc" opacity="0.5"/>
<rect x="176.4" y="219.3" width="6" height="8" fill="#9ebacc" opacity="0.5"/>
<rect x="190.4" y="219.3" width="6" height="8" fill="#9ebacc" opacity="0.5"/>
<rect x="148.4" y="235.3" width="6" height="8" fill="#9ebacc" opacity="0.5"/>
<rect x="162.4" y="235.3" width="6" height="8" fill="#9ebacc" opacity="0.5"/>
<rect x="176.4" y="235.3" width="6" height="8" fill="#9ebacc" opacity="0.5"/>
<rect x="162.4" y="251.3" width="6" height="8" fill="#9ebacc" opacity="0.5"/>
<rect x="176.4" y="251.3" width="6" height="8" fill="#9ebacc" opacity="0.5"/>
<rect x="190.4" y="251.3" width="6" height="8" fill="#9ebacc" opacity="0.5"/>
<rect x="148.4" y="267.3" width="6" height="8" fill="#9ebacc" opacity="0.5"/>
<rect x="162.4" y="267.3" width="6" height="8" fill="#9ebacc" opacity="0.5"/>
<rect x="176.4" y="267.3" width="6" height="8" fill="#9ebacc" opacity="0.5"/>
<rect x="190.4" y="267.3" width="6" height="8" fill="#9ebacc" opacity="0.5"/>
<rect x="329.1" y="148.9" width="55.2" height="151.1" fill="#6a95b1"/>
<rect x="346.7" y="160.9" width="6" height="8" fill="#9ebacc" opacity="0.5"/>
<rect x="360.7" y="160.9" width="6" height="8" fill="#9ebacc" opacity="0.5"/>
<rect x="346.7" y="176.9" width="6" height="8" fill="#9ebacc" opacity="0.5"/>
<rect x="360.7" y="176.9" width="6" height="8" fill="#9ebacc" opacity="0.5"/>
<rect x="346.7" y="192.9" width="6" height="8" fill="#9ebacc" opacity="0.5"/>
<rect x="360.7" y="192.9" width="6" height="8" fill="#9ebacc" opacity="0.5"/>
<rect x="346.7" y="208.9" width="6" height="8" fill="#9ebacc" opacity="0.5"/>
<rect x="346.7" y="224.9" width="6" height="8" fill="#9ebacc" opacity="0.5"/>
<rect x="360.7" y="224.9" width="6" height="8" fill="#9ebacc" opacity="0.5"/>
<rect x="346.7" y="240.9" width="6" height="8" fill="#9ebacc" opacity="0.5"/>
<rect x="346.7" y="256.9" width="6" height="8" fill="#9ebacc" opacity="0.5"/>
<rect x="590.6" y="162.5" width="55.7" height="137.5" fill="#6a95b1"/>
<rect x="608.5" y="174.5" width="6" height="8" fill="#9ebacc" opacity="0.5"/>
<rect x="622.5" y="174.5" width="6" height="8" fill="#9ebacc" opacity="0.5"/>
<rect x="622.5" y="190.5" width="6" height="8" fill="#9ebacc" opacity="0.5"/>
<rect x="608.5" y="206.5" width="6" height="8" fill="#9ebacc" opacity="0.5"/>
<rect x="622.5" y="206.5" width="6" height="8" fill="#9ebacc" opacity="0.5"/>
<rect x="608.5" y="222.5" width="6" height="8" fill="#9ebacc" opacity="0.5"/>
<rect x="622.5" y="222.5" width="6" height="8" fill="#9ebacc" opacity="0.5"/>
<rect x="608.5" y="238.5" width="6" height="8" fill="#9ebacc" opacity="0.5"/>
<rect x="622.5" y="238.5" width="6" height="8" fill="#9ebacc" opacity="0.5"/>
<rect x="608.5" y="254.5" width="6" height="8" fill="#9ebacc" opacity="0.5"/>
<rect x="622.5" y="254.5" width="6" height="8" fill="#9ebacc" opacity="0.5"/>
<rect x="779.9" y="133.9" width="65.0" height="166.1" fill="#6a95b1"/>
<rect x="823.4" y="145.9" width="6" height="8" fill="#9ebacc" opacity="0.5"/>
<rect x="795.4" y="161.9" width="6" height="8" fill="#9ebacc" opacity="0.5"/>
<rect x="809.4" y="161.9" width="6" height="8" fill="#9ebacc" opacity="0.5"/>
<rect x="823.4" y="161.9" width="6" height="8" fill="#9ebacc" opacity="0.5"/>
<rect x="795.4" y="177.9" width="6" height="8" fill="#9ebacc" opacity="0.5"/>
<rect x="809.4" y="177.9" width="6" height="8" fill="#9ebacc" opacity="0.5"/>
<rect x="823.4" y="177.9" width="6" height="8" fill="#9ebacc" opacity="0.5"/>
<rect x="795.4" y="193.9" width="6" height="8" fill="#9ebacc" opacity="0.5"/>
<rect x="809.4" y="193.9" width="6" height="8" fill="#9ebacc" opacity="0.5"/>
<rect x="823.4" y="193.9" width="6" height="8" fill="#9ebacc" opacity="0.5"/>
<rect x="795.4" y="209.9" width="6" height="8" fill="#9ebacc" opacity="0.5"/>
<rect x="823.4" y="209.9" width="6" height="8" fill="#9ebacc" opacity="0.5"/>
<rect x="795.4" y="225.9" width="6" height="8" fill="#9ebacc" opacity="0.5"/>
<rect x="809.4" y="225.9" width="6" height="8" fill="#9ebacc" opacity="0.5"/>
<rect x="823.4" y="225.9" width="6" height="8" fill="#9ebacc" opacity="0.5"/>
<rect x="795.4" y="241.9" width="6" height="8" fill="#9ebacc" opacity="0.5"/>
<rect x="823.4" y="241.9" width="6" height="8" fill="#9ebacc" opacity="0.5"/>
<rect x="795.4" y="257.9" width="6" height="8" fill="#9ebacc" opacity="0.5"/>
<rect x="809.4" y="257.9" width="6" height="8" fill="#9ebacc" opacity="0.5"/>
<rect x="795.4" y="273.9" width="6" height="8" fill="#9ebacc" opacity="0.5"/>
<rect x="809.4" y="273.9" width="6" height="8" fill="#9ebacc" opacity="0.5"/>
<rect x="823.4" y="273.9" width="6" height="8" fill="#9ebacc" opacity="0.5"/>
<rect x="1053.5" y="101.4" width="45.1" height="198.6" fill="#6a95b1"/>
<rect x="1066.0" y="113.4" width="6" height="8" fill="#9ebacc" opacity="0.5"/>
<rect x="1080.0" y="113.4" width="6" height="8" fill="#9ebacc" opacity="0.5"/>
<rect x="1066.0" y="129.4" width="6" height="8" fill="#9ebacc" opacity="0.5"/>
<rect x="1080.0" y="129.4" width="6" height="8" fill="#9ebacc" opacity="0.5"/>
<rect x="1066.0" y="145.4" width="6" height="8" fill="#9ebacc" opacity="0.5"/>
<rect x="1080.0" y="145.4" width="6" height="8" fill="#9ebacc" opacity="0.5"/>
<rect x="1066.0" y="161.4" width="6" height="8" fill="#9ebacc" opacity="0.5"/>
<rect x="1080.0" y="161.4" width="6" height="8" fill="#9ebacc" opacity="0.5"/>
<rect x="1080.0" y="177.4" width="6" height="8" fill="#9ebacc" opacity="0.5"/>
<rect x="1066.0" y="209.4" width="6" height="8" fill="#9ebacc" opacity="0.5"/>
<rect x="1080.0" y="209.4" width="6" height="8" fill="#9ebacc" opacity="0.5"/>
<rect x="1066.0" y="225.4" width="6" height="8" fill="#9ebacc" opacity="0.5"/>
<rect x="1080.0" y="225.4" width="6" height="8" fill="#9ebacc" opacity="0.5"/>
<rect x="1066.0" y="241.4" width="6" height="8" fill="#9ebacc" opacity="0.5"/>
<rect x="1080.0" y="241.4" width="6" height="8" fill="#9ebacc" opacity="0.5"/>
<rect x="1066.0" y="257.4" width="6" height="8" fill="#9ebacc" opacity="0.5"/>
<rect x="1080.0" y="257.4" width="6" height="8" fill="#9ebacc" opacity="0.5"/>
<rect x="1066.0" y="273.4" width="6" height="8" fill="#9ebacc" opacity="0.5"/>
<rect x="1080.0" y="273.4" width="6" height="8" fill="#9ebacc" opacity="0.5"/>
<rect x="97.9" y="215.2" width="53.0" height="84.8" fill="#457b9d"/>
<rect x="128.4" y="227.2" width="6" height="8" fill="#86a9bf" opacity="0.5"/>
<rect x="114.4" y="243.2" width="6" height="8" fill="#86a9bf" opacity="0.5"/>
<rect x="128.4" y="243.2" width="6" height="8" fill="#86a9bf" opacity="0.5"/>
<rect x="114.4" y="259.2" width="6" height="8" fill="#86a9bf" opacity="0.5"/>
<rect x="128.4" y="259.2" width="6" height="8" fill="#86a9bf" opacity="0.5"/>
<rect x="317.2" y="157.9" width="43.7" height="142.1" fill="#457b9d"/>
<rect x="336.1" y="249.9" width="6" height="8" fill="#86a9bf" opacity="0.5"/>
<rect x="575.2" y="113.5" width="46.2" height="186.5" fill="#457b9d"/>
<rect x="602.3" y="125.5" width="6" height="8" fill="#86a9bf" opacity="0.5"/>
<rect x="588.3" y="141.5" width="6" height="8" fill="#86a9bf" opacity="0.5"/>
<rect x="602.3" y="141.5" width="6" height="8" fill="#86a9bf" opacity="0.5"/>
<rect x="602.3" y="157.5" width="6" height="8" fill="#86a9bf" opacity="0.5"/>
<rect x="588.3" y="173.5" width="6" height="8" fill="#86a9bf" opacity="0.5"/>
<rect x="588.3" y="189.5" width="6" height="8" fill="#86a9bf" opacity="0.5"/>
<rect x="602.3" y="189.5" width="6" height="8" fill="#86a9bf" opacity="0.5"/>
<rect x="588.3" y="205.5" width="6" height="8" fill="#86a9bf" opacity="0.5"/>
<rect x="602.3" y="205.5" width="6" height="8" fill="#86a9bf" opacity="0.5"/>
<rect x="588.3" y="221.5" width="6" height="8" fill="#86a9bf" opacity="0.5"/>
<rect x="588.3" y="237.5" width="6" height="8" fill="#86a9bf" opacity="0.5"/>
<rect x="602.3" y="237.5" width="6" height="8" fill="#86a9bf" opacity="0.5"/>
<rect x="588.3" y="253.5" width="6" height="8" fill="#86a9bf" opacity="0.5"/>
<rect x="602.3" y="253.5" width="6" height="8" fill="#86a9bf" opacity="0.5"/>
<rect x="588.3" y="269.5" width="6" height="8" fill="#86a9bf" opacity="0.5"/>
<rect x="602.3" y="269.5" width="6" height="8" fill="#86a9bf" opacity="0.5"/>
<rect x="802.4" y="180.9" width="56.8" height="119.1" fill="#457b9d"/>
<rect x="834.8" y="192.9" width="6" height="8" fill="#86a9bf" opacity="0.5"/>
<rect x="820.8" y="208.9" width="6" height="8" fill="#86a9bf" opacity="0.5"/>
<rect x="834.8" y="208.9" width="6" height="8" fill="#86a9bf" opacity="0.5"/>
<rect x="820.8" y="224.9" width="6" height="8" fill="#86a9bf" opacity="0.5"/>
<rect x="834.8" y="224.9" width="6" height="8" fill="#86a9bf" opacity="0.5"/>
<rect x="820.8" y="240.9" width="6" height="8" fill="#86a9bf" opacity="0.5"/>
<rect x="834.8" y="240.9" width="6" height="8" fill="#86a9bf" opacity="0.5"/>
<rect x="820.8" y="256.9" width="6" height="8" fill="#86a9bf" opacity="0.5"/>
<rect x="834.8" y="256.9" width="6" height="8" fill="#86a9bf" opacity="0.5"/>
<rect x="820.8" y="272.9" width="6" height="8" fill="#86a9bf" opacity="0.5"/>
<rect x="834.8" y="272.9" width="6" height="8" fill="#86a9bf" opacity="0.5"/>
<rect x="1028.1" y="116.6" width="52.5" height="183.4" fill="#457b9d"/>
<rect x="1044.4" y="128.6" width="6" height="8" fill="#86a9bf" opacity="0.5"/>
<rect x="1058.4" y="128.6" width="6" height="8" fill="#86a9bf" opacity="0.5"/>
<rect x="1044.4" y="144.6" width="6" height="8" fill="#86a9bf" opacity="0.5"/>
<rect x="1058.4" y="144.6" width="6" height="8" fill="#86a9bf" opacity="0.5"/>
<rect x="1044.4" y="160.6" width="6" height="8" fill="#86a9bf" opacity="0.5"/>
<rect x="1058.4" y="160.6" width="6" height="8" fill="#86a9bf" opacity="0.5"/>
<rect x="1044.4" y="176.6" width="6" height="8" fill="#86a9bf" opacity="0.5"/>
<rect x="1058.4" y="192.6" width="6" height="8" fill="#86a9bf" opacity="0.5"/>
<rect x="1044.4" y="208.6" width="6" height="8" fill="#86a9bf" opacity="0.5"/>
<rect x="1058.4" y="208.6" width="6" height="8" fill="#86a9bf" opacity="0.5"/>
<rect x="1044.4" y="224.6" width="6" height="8" fill="#86a9bf" opacity="0.5"/>
<rect x="1058.4" y="224.6" width="6" height="8" fill="#86a9bf" opacity="0.5"/>
<rect x="1044.4" y="240.6" width="6" height="8" fill="#86a9bf" opacity="0.5"/>
<rect x="1044.4" y="256.6" width="6" height="8" fill="#86a9bf" opacity="0.5"/>
<rect x="1058.4" y="256.6" width="6" height="8" fill="#86a9bf" opacity="0.5"/>
<rect x="1058.4" y="272.6" width="6" height="8" fill="#86a9bf" opacity="0.5"/>
<rect x="0" y="298" width="1200" height="2" fill="#3e6f8d" opacity="0.15"/>
</svg>