<svg xmlns="http://www.w3.org/2000/svg" viewBox="0 0 1200 300" width="1200" height="300">
<defs><linearGradient id="skyGrad" x1="0" y1="0" x2="0" y2="1"><stop offset="0%" stop-color="#e0eaf4"/><stop offset="100%" stop-color="#f0f2f5"/></linearGradient></defs><rect width="1200" height="300" fill="url(#skyGrad)"/>
<path d="M0 197.5 C372.3 151.0, 764.3 223.5, 1200 182.7" fill="none" stroke="#88b2ce" stroke-width="30.9" stroke-linecap="round" opacity="0.5"/>
<rect x="112.9" y="202.3" width="60.3" height="97.7" fill="#99b6c9"/>
<polygon points="112.9,202.3 143.0,187.2 173.2,202.3" fill="#8da7b9"/>
<rect x="310.7" y="208.2" width="63.9" height="91.8" fill="#99b6c9"/>
<rect x="590.4" y="138.3" width="62.7" height="161.7" fill="#99b6c9"/>
<rect x="764.8" y="147.6" width="59.5" height="152.4" fill="#99b6c9"/>
<rect x="775.2" y="120.7" width="38.6" height="26.9" fill="#91adbf"/>
<rect x="1049.0" y="162.9" width="70.8" height="137.1" fill="#99b6c9"/>
<polygon points="1049.0,162.9 1084.4,145.2 1119.8,162.9" fill="#8da7b9"/>
<rect x="90.2" y="126.2" width="44.1" height="173.8" fill="#6a95b1"/>
<polygon points="90.2,126.2 112.2,115.2 134.3,126.2" fill="#6289a3"/>
<rect x="102.2" y="138.2" width="6" height="8" fill="#9ebacc" opacity="0.5"/>
<rect x="102.2" y="154.2" width="6" height="8" fill="#9ebacc" opacity="0.5"/>
<rect x="116.2" y="154.2" width="6" height="8" fill="#9ebacc" opacity="0.5"/>
<rect x="102.2" y="170.2" width="6" height="8" fill="#9ebacc" opacity="0.5"/>
<rect x="116.2" y="170.2" width="6" height="8" fill="#9ebacc" opacity="0.5"/>
<rect x="102.2" y="186.2" width="6" height="8" fill="#9ebacc" opacity="0.5"/>
<rect x="116.2" y="186.2" width="6" height="8" fill="#9ebacc" opacity="0.5"/>
<rect x="102.2" y="218.2" width="6" height="8" fill="#9ebacc" opacity="0.5"/>
<rect x="308.1" y="141.9" width="44.6" height="158.1" fill="#6a95b1"/>
<rect x="320.4" y="153.9" width="6" height="8" fill="#9ebacc" opacity="0.5"/>
<rect x="320.4" y="169.9" width="6" height="8" fill="#9ebacc" opacity="0.5"/>
<rect x="320.4" y="185.9" width="6" height="8" fill="#9ebacc" opacity="0.5"/>
<rect x="334.4" y="185.9" width="6" height="8" fill="#9ebacc" opacity="0.5"/>
<rect x="320.4" y="201.9" width="6" height="8" fill="#9ebacc" opacity="0.5"/>
<rect x="334.4" y="201.9" width="6" height="8" fill="#9ebacc" opacity="0.5"/>
<rect x="334.4" y="217.9" width="6" height="8" fill="#9ebacc" opacity="0.5"/>
<rect x="466.0" y="137.6" width="52.0" height="162.4" fill="#6a95b1"/>
<rect x="475.1" y="108.9" width="33.8" height="28.7" fill="#658ea8"/>
<rect x="482.0" y="120.9" width="6" height="8" fill="#9ebacc" opacity="0.5"/>
<rect x="496.0" y="120.9" width="6" height="8" fill="#9ebacc" opacity="0.5"/>
<rect x="496.0" y="136.9" width="6" height="8" fill="#9ebacc" opacity="0.5"/>
<rect x="496.0" y="168.9" width="6" height="8" fill="#9ebacc" opacity="0.5"/>
<rect x="482.0" y="184.9" width="6" height="8" fill="#9ebacc" opacity="0.5"/>
<rect x="496.0" y="200.9" width="6" height="8" fill="#9ebacc" opacity="0.5"/>
<rect x="693.7" y="71.6" width="36.1" height="228.4" fill="#6a95b1"/>
<rect x="708.7" y="83.6" width="6" height="8" fill="#9ebacc" opacity="0.5"/>
<rect x="708.7" y="99.6" width="6" height="8" fill="#9ebacc" opacity="0.5"/>
<rect x="708.7" y="131.6" width="6" height="8" fill="#9ebacc" opacity="0.5"/>
<rect x="708.7" y="147.6" width="6" height="8" fill="#9ebacc" opacity="0.5"/>
<rect x="708.7" y="163.6" width="6" height="8" fill="#9ebacc" opacity="0.5"/>
<rect x="845.5" y="172.5" width="46.4" height="127.5" fill="#6a95b1"/>
<polygon points="845.5,172.5 868.7,160.9 891.9,172.5" fill="#6289a3"/>
<rect x="872.7" y="200.5" width="6" height="8" fill="#9ebacc" opacity="0.5"/>
<rect x="858.7" y="232.5" width="6" height="8" fill="#9ebacc" opacity="0.5"/>
<rect x="872.7" y="232.5" width="6" height="8" fill="#9ebacc" opacity="0.5"/>
<rect x="858.7" y="264.5" width="6" height="8" fill="#9ebacc" opacity="0.5"/>
<rect x="872.7" y="264.5" width="6" height="8" fill="#9ebacc" opacity="0.5"/>
<rect x="1028.1" y="132.9" width="39.0" height="167.1" fill="#6a95b1"/>
<rect x="1044.5" y="144.9" width="6" height="8" fill="#9ebacc" opacity="0.5"/>
<rect x="1044.5" y="176.9" width="6" height="8" fill="#9ebacc" opacity="0.5"/>
<rect x="1044.5" y="192.9" width="6" height="8" fill="#9ebacc" opacity="0.5"/>
<rect x="1044.5" y="208.9" width="6" height="8" fill="#9ebacc" opacity="0.5"/>
<rect x="1044.5" y="224.9" width="6" height="8" fill="#9ebacc" opacity="0.5"/>
<rect x="105.1" y="85.5" width="37.0" height="214.5" fill="#457b9d"/>
<rect x="120.6" y="113.5" width="6" height="8" fill="#86a9bf" opacity="0.5"/>
<rect x="120.6" y="145.5" width="6" height="8" fill="#86a9bf" opacity="0.5"/>
<rect x="120.6" y="177.5" width="6" height="8" fill="#86a9bf" opacity="0.5"/>
<line x1="123.6" y1="85.5" x2="123.6" y2="69.5" stroke="#457b9d" stroke-width="2"/>
<rect x="294.6" y="163.1" width="45.5" height="136.9" fill="#457b9d"/>
<rect x="307.3" y="175.1" width="6" height="8" fill="#86a9bf" opacity="0.5"/>
<rect x="321.3" y="175.1" width="6" height="8" fill="#86a9bf" opacity="0.5"/>
<rect x="307.3" y="191.1" width="6" height="8" fill="#86a9bf" opacity="0.5"/>
<rect x="321.3" y="191.1" width="6" height="8" fill="#86a9bf" opacity="0.5"/>
<rect x="307.3" y="207.1" width="6" height="8" fill="#86a9bf" opacity="0.5"/>
<rect x="321.3" y="207.1" width="6" height="8" fill="#86a9bf" opacity="0.5"/>
<rect x="307.3" y="223.1" width="6" height="8" fill="#86a9bf" opacity="0.5"/>
<rect x="307.3" y="239.1" width="6" height="8" fill="#86a9bf" opacity="0.5"/>
<rect x="321.3" y="255.1" width="6" height="8" fill="#86a9bf" opacity="0.5"/>
<rect x="482.7" y="120.7" width="42.0" height="179.3" fill="#457b9d"/>
<rect x="490.0" y="89.0" width="27.3" height="31.6" fill="#427595"/>
<rect x="500.7" y="101.0" width="6" height="8" fill="#86a9bf" opacity="0.5"/>
<rect x="500.7" y="117.0" width="6" height="8" fill="#86a9bf" opacity="0.5"/>
<rect x="500.7" y="133.0" width="6" height="8" fill="#86a9bf" opacity="0.5"/>
<rect x="500.7" y="149.0" width="6" height="8" fill="#86a9bf" opacity="0.5"/>
<rect x="500.7" y="165.0" width="6" height="8" fill="#86a9bf" opacity="0.5"/>
<rect x="500.7" y="181.0" width="6" height="8" fill="#86a9bf" opacity="0.5"/>
<line x1="503.7" y1="89.0" x2="503.7" y2="66.3" stroke="#457b9d" stroke-width="2"/>
<rect x="678.5" y="177.0" width="29.9" height="123.0" fill="#457b9d"/>
<polygon points="678.5,177.0 693.5,169.6 708.5,177.0" fill="#3f7190"/>
<rect x="690.5" y="189.0" width="6" height="8" fill="#86a9bf" opacity="0.5"/>
<rect x="690.5" y="205.0" width="6" height="8" fill="#86a9bf" opacity="0.5"/>
<rect x="690.5" y="221.0" width="6" height="8" fill="#86a9bf" opacity="0.5"/>
<rect x="690.5" y="237.0" width="6" height="8" fill="#86a9bf" opacity="0.5"/>
<rect x="690.5" y="253.0" width="6" height="8" fill="#86a9bf" opacity="0.5"/>
<rect x="878.2" y="124.4" width="32.8" height="175.6" fill="#457b9d"/>
<polygon points="878.2,124.4 894.6,116.2 911.0,124.4" fill="#3f7190"/>
<rect x="891.6" y="184.4" width="6" height="8" fill="#86a9bf" opacity="0.5"/>
<line x1="894.6" y1="124.4" x2="894.6" y2="111.1" stroke="#457b9d" stroke-width="2"/>
<rect x="1070.1" y="130.8" width="30.2" height="169.2" fill="#457b9d"/>
<rect x="1082.2" y="158.8" width="6" height="8" fill="#86a9bf" opacity="0.5"/>
<rect x="1082.2" y="174.8" width="6" height="8" fill="#86a9bf" opacity="0.5"/>
<rect x="1082.2" y="206.8" width="6" height="8" fill="#86a9bf" opacity="0.5"/>
<line x1="1085.2" y1="130.8" x2="1085.2" y2="119.0" stroke="#457b9d" stroke-width="2"/>
<rect x="514.7" y="39.3" width="21.8" height="260.7" fill="#5888a7" opacity="0.7"/>
<rect x="539.5" y="50.9" width="24.3" height="249.1" fill="#5888a7" opacity="0.7"/>
<rect x="563.6" y="89.5" width="16.5" height="210.5" fill="#5888a7" opacity="0.7"/>
<rect x="585.8" y="74.5" width="17.8" height="225.5" fill="#5888a7" opacity="0.7"/>
<line x1="218.3" y1="285.0" x2="218.3" y2="271.5" stroke="#6b5a42" stroke-width="3"/>
<circle cx="218.3" cy="257.9" r="13.6" fill="#558546"/>
<line x1="411.4" y1="285.0" x2="411.4" y2="273.0" stroke="#6b5a42" stroke-width="3"/>
<circle cx="411.4" cy="259.3" r="13.7" fill="#527f43"/>
<line x1="601.6" y1="285.0" x2="601.6" y2="271.8" stroke="#6b5a42" stroke-width="3"/>
<circle cx="601.6" cy="256.2" r="15.6" fill="#528044"/>
<rect x="0" y="285" width="1200" height="15" fill="#8a9a82" opacity="0.4"/>
<ellipse cx="884.9" cy="38.8" rx="101.2" ry="12.3" fill="#c8c8c8" opacity="0.15"/>
</svg>