<svg xmlns="http://www.w3.org/2000/svg" viewBox="0 0 1200 300" width="1200" height="300">
<rect width="1200" height="300" fill="#e0eff2"/>
<path d="M0 300 L0 210.0 C275.4 185.0, 914.9 184.9, 1200 210.0 L1200 300 Z" fill="#aac2c9" opacity="0.3"/>
<rect x="102.2" y="191.7" width="60.5" height="108.3" fill="#8aabb4"/>
<rect x="451.1" y="182.1" width="42.5" height="117.9" fill="#8aabb4"/>
<rect x="702.0" y="205.6" width="55.9" height="94.4" fill="#8aabb4"/>
<rect x="998.9" y="190.1" width="62.0" height="109.9" fill="#8aabb4"/>
<rect x="176.4" y="178.2" width="67.5" height="121.8" fill="#558592"/>
<rect x="193.1" y="190.2" width="6" height="8" fill="#91b0b8" opacity="0.5"/>
<rect x="221.1" y="190.2" width="6" height="8" fill="#91b0b8" opacity="0.5"/>
<rect x="193.1" y="206.2" width="6" height="8" fill="#91b0b8" opacity="0.5"/>
<rect x="207.1" y="206.2" width="6" height="8" fill="#91b0b8" opacity="0.5"/>
<rect x="221.1" y="206.2" width="6" height="8" fill="#91b0b8" opacity="0.5"/>
<rect x="193.1" y="222.2" width="6" height="8" fill="#91b0b8" opacity="0.5"/>
<rect x="207.1" y="222.2" width="6" height="8" fill="#91b0b8" opacity="0.5"/>
<rect x="221.1" y="238.2" width="6" height="8" fill="#91b0b8" opacity="0.5"/>
<rect x="193.1" y="254.2" width="6" height="8" fill="#91b0b8" opacity="0.5"/>
<rect x="221.1" y="254.2" width="6" height="8" fill="#91b0b8" opacity="0.5"/>
<rect x="193.1" y="270.2" width="6" height="8" fill="#91b0b8" opacity="0.5"/>
<rect x="221.1" y="270.2" width="6" height="8" fill="#91b0b8" opacity="0.5"/>
<rect x="439.0" y="144.7" width="73.5" height="155.3" fill="#558592"/>
<rect x="451.8" y="172.7" width="6" height="8" fill="#91b0b8" opacity="0.5"/>
<rect x="465.8" y="172.7" width="6" height="8" fill="#91b0b8" opacity="0.5"/>
<rect x="493.8" y="172.7" width="6" height="8" fill="#91b0b8" opacity="0.5"/>
<rect x="451.8" y="188.7" width="6" height="8" fill="#91b0b8" opacity="0.5"/>
<rect x="465.8" y="188.7" width="6" height="8" fill="#91b0b8" opacity="0.5"/>
<rect x="493.8" y="188.7" width="6" height="8" fill="#91b0b8" opacity="0.5"/>
<rect x="451.8" y="204.7" width="6" height="8" fill="#91b0b8" opacity="0.5"/>
<rect x="493.8" y="204.7" width="6" height="8" fill="#91b0b8" opacity="0.5"/>
<rect x="465.8" y="220.7" width="6" height="8" fill="#91b0b8" opacity="0.5"/>
<rect x="479.8" y="220.7" width="6" height="8" fill="#91b0b8" opacity="0.5"/>
<rect x="451.8" y="236.7" width="6" height="8" fill="#91b0b8" opacity="0.5"/>
<rect x="465.8" y="236.7" width="6" height="8" fill="#91b0b8" opacity="0.5"/>
<rect x="493.8" y="236.7" width="6" height="8" fill="#91b0b8" opacity="0.5"/>
<rect x="451.8" y="252.7" width="6" height="8" fill="#91b0b8" opacity="0.5"/>
<rect x="465.8" y="252.7" width="6" height="8" fill="#91b0b8" opacity="0.5"/>
<rect x="479.8" y="252.7" width="6" height="8" fill="#91b0b8" opacity="0.5"/>
<rect x="493.8" y="252.7" width="6" height="8" fill="#91b0b8" opacity="0.5"/>
<rect x="451.8" y="268.7" width="6" height="8" fill="#91b0b8" opacity="0.5"/>
<rect x="465.8" y="268.7" width="6" height="8" fill="#91b0b8" opacity="0.5"/>
<rect x="479.8" y="268.7" width="6" height="8" fill="#91b0b8" opacity="0.5"/>
<rect x="493.8" y="268.7" width="6" height="8" fill="#91b0b8" opacity="0.5"/>
<rect x="683.0" y="151.5" width="36.8" height="148.5" fill="#558592"/>
<rect x="698.4" y="163.5" width="6" height="8" fill="#91b0b8" opacity="0.5"/>
<rect x="698.4" y="179.5" width="6" height="8" fill="#91b0b8" opacity="0.5"/>
<rect x="698.4" y="211.5" width="6" height="8" fill="#91b0b8" opacity="0.5"/>
<rect x="698.4" y="227.5" width="6" height="8" fill="#91b0b8" opacity="0.5"/>
<rect x="698.4" y="259.5" width="6" height="8" fill="#91b0b8" opacity="0.5"/>
<rect x="976.5" y="220.2" width="56.7" height="79.8" fill="#558592"/>
<rect x="994.8" y="232.2" width="6" height="8" fill="#91b0b8" opacity="0.5"/>
<rect x="994.8" y="248.2" width="6" height="8" fill="#91b0b8" opacity="0.5"/>
<rect x="1008.8" y="248.2" width="6" height="8" fill="#91b0b8" opacity="0.5"/>
<rect x="994.8" y="264.2" width="6" height="8" fill="#91b0b8" opacity="0.5"/>
<rect x="165.6" y="145.5" width="54.0" height="154.5" fill="#2b6777"/>
<rect x="196.6" y="157.5" width="6" height="8" fill="#759ca7" opacity="0.5"/>
<rect x="182.6" y="173.5" width="6" height="8" fill="#759ca7" opacity="0.5"/>
<rect x="196.6" y="173.5" width="6" height="8" fill="#759ca7" opacity="0.5"/>
<rect x="182.6" y="189.5" width="6" height="8" fill="#759ca7" opacity="0.5"/>
<rect x="196.6" y="189.5" width="6" height="8" fill="#759ca7" opacity="0.5"/>
<rect x="182.6" y="205.5" width="6" height="8" fill="#759ca7" opacity="0.5"/>
<rect x="196.6" y="205.5" width="6" height="8" fill="#759ca7" opacity="0.5"/>
<rect x="182.6" y="221.5" width="6" height="8" fill="#759ca7" opacity="0.5"/>
<rect x="196.6" y="221.5" width="6" height="8" fill="#759ca7" opacity="0.5"/>
<rect x="196.6" y="237.5" width="6" height="8" fill="#759ca7" opacity="0.5"/>
<rect x="182.6" y="253.5" width="6" height="8" fill="#759ca7" opacity="0.5"/>
<rect x="196.6" y="253.5" width="6" height="8" fill="#759ca7" opacity="0.5"/>
<rect x="182.6" y="269.5" width="6" height="8" fill="#759ca7" opacity="0.5"/>
<rect x="196.6" y="269.5" width="6" height="8" fill="#759ca7" opacity="0.5"/>
<rect x="418.7" y="171.5" width="41.1" height="128.5" fill="#2b6777"/>
<rect x="436.3" y="199.5" width="6" height="8" fill="#759ca7" opacity="0.5"/>
<rect x="436.3" y="231.5" width="6" height="8" fill="#759ca7" opacity="0.5"/>
<rect x="436.3" y="247.5" width="6" height="8" fill="#759ca7" opacity="0.5"/>
<rect x="674.9" y="152.2" width="70.7" height="147.8" fill="#2b6777"/>
<rect x="693.3" y="164.2" width="6" height="8" fill="#759ca7" opacity="0.5"/>
<rect x="721.3" y="164.2" width="6" height="8" fill="#759ca7" opacity="0.5"/>
<rect x="707.3" y="180.2" width="6" height="8" fill="#759ca7" opacity="0.5"/>
<rect x="721.3" y="180.2" width="6" height="8" fill="#759ca7" opacity="0.5"/>
<rect x="707.3" y="196.2" width="6" height="8" fill="#759ca7" opacity="0.5"/>
<rect x="693.3" y="212.2" width="6" height="8" fill="#759ca7" opacity="0.5"/>
<rect x="693.3" y="228.2" width="6" height="8" fill="#759ca7" opacity="0.5"/>
<rect x="707.3" y="228.2" width="6" height="8" fill="#759ca7" opacity="0.5"/>
<rect x="721.3" y="228.2" width="6" height="8" fill="#759ca7" opacity="0.5"/>
<rect x="693.3" y="244.2" width="6" height="8" fill="#759ca7" opacity="0.5"/>
<rect x="707.3" y="244.2" width="6" height="8" fill="#759ca7" opacity="0.5"/>
<rect x="721.3" y="244.2" width="6" height="8" fill="#759ca7" opacity="0.5"/>
<rect x="693.3" y="260.2" width="6" height="8" fill="#759ca7" opacity="0.5"/>
<rect x="707.3" y="260.2" width="6" height="8" fill="#759ca7" opacity="0.5"/>
<rect x="721.3" y="260.2" width="6" height="8" fill="#759ca7" opacity="0.5"/>
<rect x="1025.2" y="120.5" width="67.7" height="179.5" fill="#2b6777"/>
<rect x="1042.1" y="132.5" width="6" height="8" fill="#759ca7" opacity="0.5"/>
<rect x="1056.1" y="132.5" width="6" height="8" fill="#759ca7" opacity="0.5"/>
<rect x="1070.1" y="132.5" width="6" height="8" fill="#759ca7" opacity="0.5"/>
<rect x="1042.1" y="148.5" width="6" height="8" fill="#759ca7" opacity="0.5"/>
<rect x="1056.1" y="148.5" width="6" height="8" fill="#759ca7" opacity="0.5"/>
<rect x="1042.1" y="164.5" width="6" height="8" fill="#759ca7" opacity="0.5"/>
<rect x="1056.1" y="164.5" width="6" height="8" fill="#759ca7" opacity="0.5"/>
<rect x="1070.1" y="164.5" width="6" height="8" fill="#759ca7" opacity="0.5"/>
<rect x="1042.1" y="196.5" width="6" height="8" fill="#759ca7" opacity="0.5"/>
<rect x="1056.1" y="196.5" width="6" height="8" fill="#759ca7" opacity="0.5"/>
<rect x="1070.1" y="196.5" width="6" height="8" fill="#759ca7" opacity="0.5"/>
<rect x="1042.1" y="212.5" width="6" height="8" fill="#759ca7" opacity="0.5"/>
<rect x="1056.1" y="212.5" width="6" height="8" fill="#759ca7" opacity="0.5"/>
<rect x="1070.1" y="212.5" width="6" height="8" fill="#759ca7" opacity="0.5"/>
<rect x="1042.1" y="228.5" width="6" height="8" fill="#759ca7" opacity="0.5"/>
<rect x="1070.1" y="228.5" width="6" height="8" fill="#759ca7" opacity="0.5"/>
<rect x="1056.1" y="244.5" width="6" height="8" fill="#759ca7" opacity="0.5"/>
<rect x="1070.1" y="244.5" width="6" height="8" fill="#759ca7" opacity="0.5"/>
<rect x="1042.1" y="260.5" width="6" height="8" fill="#759ca7" opacity="0.5"/>
<rect x="1056.1" y="260.5" width="6" height="8" fill="#759ca7" opacity="0.5"/>
<rect x="1070.1" y="260.5" width="6" height="8" fill="#759ca7" opacity="0.5"/>
<rect x="0" y="298" width="1200" height="2" fill="#275d6b" opacity="0.15"/>
</svg>