<svg xmlns="http://www.w3.org/2000/svg" viewBox="0 0 1200 400" width="1200" height="400">
<defs>
<linearGradient id="bg" x1="0" y1="0" x2="0" y2="1"><stop offset="0%" stop-color="#94a3b8"/><stop offset="100%" stop-color="#0369a1"/></linearGradient>
<linearGradient id="warm" x1="0" y1="0" x2="1" y2="1"><stop offset="0%" stop-color="#858d98" stop-opacity="0.18"/><stop offset="100%" stop-color="#858d98" stop-opacity="0.06"/></linearGradient>
</defs>
<rect width="1200" height="400" fill="url(#bg)"/>
<path d="M0 400 L0 236.37819953637597 C60.0 239.8, 90.0 234.8, 150.0 227.4 C210.0 223.8, 240.0 233.0, 300.0 236.0 C360.0 236.5, 390.0 240.8, 450.0 242.0 C510.0 242.6, 540.0 254.2, 600.0 249.1 C660.0 253.6, 690.0 245.2, 750.0 236.4 C810.0 236.4, 840.0 229.5, 900.0 222.4 C960.0 226.7, 990.0 255.8, 1050.0 248.2 C1110.0 239.0, 1140.0 213.5, 1200.0 223.1 L1200 400 Z" fill="#367da9" opacity="0.45"/>
<path d="M0 400 L0 275.7887306867443 C52.5 276.5, 97.5 275.3, 150.0 269.3 C202.5 263.6, 247.5 265.8, 300.0 263.1 C352.5 268.2, 397.5 263.3, 450.0 257.7 C502.5 263.6, 547.5 273.8, 600.0 270.5 C652.5 264.1, 697.5 273.1, 750.0 275.6 C802.5 274.7, 847.5 272.7, 900.0 275.3 C952.5 282.8, 997.5 261.3, 1050.0 263.4 C1102.5 260.0, 1147.5 260.1, 1200.0 264.4 L1200 400 Z" fill="#0369a1" opacity="0.3"/>
<rect x="470.9" y="358.7" width="19.7" height="41.3" rx="6.1" fill="#05926e" opacity="0.69"/>
<rect x="387.2" y="371.0" width="49.3" height="29.0" rx="3.3" fill="#05926e" opacity="0.58"/>
<rect x="1029.0" y="345.0" width="15.1" height="55.0" rx="3.6" fill="#058c76" opacity="0.75"/>
<rect x="998.1" y="357.6" width="21.7" height="42.4" rx="7.5" fill="#05936d" opacity="0.53"/>
<rect x="465.7" y="357.4" width="33.1" height="42.6" rx="5.1" fill="#05956a" opacity="0.77"/>
<rect x="742.5" y="371.4" width="39.5" height="28.6" rx="6.1" fill="#047c89" opacity="0.59"/>
<rect x="377.0" y="330.5" width="41.9" height="69.5" rx="4.8" fill="#048282" opacity="0.74"/>
<rect x="820.8" y="364.3" width="34.8" height="35.7" rx="8.0" fill="#05966a" opacity="0.64"/>
<rect x="852.0" y="352.2" width="23.7" height="47.8" rx="6.1" fill="#04887b" opacity="0.58"/>
<rect x="867.8" y="341.7" width="19.9" height="58.3" rx="5.0" fill="#058d74" opacity="0.66"/>
<rect x="923.2" y="287.1" width="30.4" height="112.9" rx="5.5" fill="#059669" opacity="0.64"/>
<rect x="928.2" y="297.1" width="4" height="5" rx="0.5" fill="#94a3b8" opacity="0.6"/>
<rect x="928.2" y="319.1" width="4" height="5" rx="0.5" fill="#94a3b8" opacity="0.6"/>
<rect x="928.2" y="341.1" width="4" height="5" rx="0.5" fill="#94a3b8" opacity="0.6"/>
<rect x="665.7" y="351.6" width="31.1" height="48.4" rx="5.7" fill="#05936d" opacity="0.74"/>
<rect x="348.1" y="329.7" width="12.1" height="70.3" rx="5.0" fill="#047b8a" opacity="0.56"/>
<circle cx="883.7" cy="26.6" r="5.3" fill="#059669" opacity="0.18"/>
<circle cx="1010.0" cy="77.6" r="7.1" fill="#059669" opacity="0.42"/>
<circle cx="591.9" cy="181.0" r="6.8" fill="#059669" opacity="0.36"/>
<circle cx="669.6" cy="133.6" r="10.1" fill="#059669" opacity="0.38"/>
<circle cx="355.3" cy="122.0" r="9.1" fill="#059669" opacity="0.17"/>
<circle cx="161.2" cy="82.6" r="6.8" fill="#059669" opacity="0.43"/>
<circle cx="473.0" cy="213.3" r="11.2" fill="#059669" opacity="0.22"/>
<circle cx="122.1" cy="83.7" r="7.5" fill="#94a3b8" opacity="0.35"/>
<circle cx="1124.8" cy="33.7" r="11.5" fill="#94a3b8" opacity="0.16"/>
<rect width="1200" height="400" fill="url(#warm)"/>
<rect width="1200" height="400" fill="#94a3b8" opacity="0.40"/>
</svg>