<svg xmlns="http://www.w3.org/2000/svg" viewBox="0 0 1200 300" width="1200" height="300">
<defs>
<linearGradient id="skyGrad" x1="0" y1="0" x2="0" y2="1">
<stop offset="0%" stop-color="#818cf8"/>
<stop offset="20%" stop-color="#c4b5fd"/>
<stop offset="38%" stop-color="#fda4af"/>
<stop offset="55%" stop-color="#fdba74"/>
<stop offset="75%" stop-color="#fef08a"/>
<stop offset="100%" stop-color="#fef9c3"/>
</linearGradient>
<linearGradient id="bldg_coral" x1="0" y1="0" x2="0" y2="1"><stop offset="0%" stop-color="#fecaca"/><stop offset="100%" stop-color="#fca5a5"/></linearGradient>
<linearGradient id="bldg_teal" x1="0" y1="0" x2="0" y2="1"><stop offset="0%" stop-color="#99f6e4"/><stop offset="100%" stop-color="#5eead4"/></linearGradient>
<linearGradient id="bldg_amber" x1="0" y1="0" x2="0" y2="1"><stop offset="0%" stop-color="#fde68a"/><stop offset="100%" stop-color="#fcd34d"/></linearGradient>
<linearGradient id="bldg_lavender" x1="0" y1="0" x2="0" y2="1"><stop offset="0%" stop-color="#ddd6fe"/><stop offset="100%" stop-color="#c4b5fd"/></linearGradient>
<linearGradient id="bldg_blue" x1="0" y1="0" x2="0" y2="1"><stop offset="0%" stop-color="#bfdbfe"/><stop offset="100%" stop-color="#93c5fd"/></linearGradient>
<linearGradient id="bldg_mint" x1="0" y1="0" x2="0" y2="1"><stop offset="0%" stop-color="#a7f3d0"/><stop offset="100%" stop-color="#6ee7b7"/></linearGradient>
<linearGradient id="bldg_rose" x1="0" y1="0" x2="0" y2="1"><stop offset="0%" stop-color="#fecdd3"/><stop offset="100%" stop-color="#fda4af"/></linearGradient>
<linearGradient id="bldg_sky" x1="0" y1="0" x2="0" y2="1"><stop offset="0%" stop-color="#bae6fd"/><stop offset="100%" stop-color="#7dd3fc"/></linearGradient>
<linearGradient id="roof_navyRoof" x1="0" y1="0" x2="0" y2="1"><stop offset="0%" stop-color="#4338ca"/><stop offset="100%" stop-color="#3730a3"/></linearGradient>
<linearGradient id="roof_coralRoof" x1="0" y1="0" x2="0" y2="1"><stop offset="0%" stop-color="#f87171"/><stop offset="100%" stop-color="#ef4444"/></linearGradient>
<linearGradient id="roof_tealRoof" x1="0" y1="0" x2="0" y2="1"><stop offset="0%" stop-color="#2dd4bf"/><stop offset="100%" stop-color="#14b8a6"/></linearGradient>
<radialGradient id="windowGlow" cx="50%" cy="50%" r="50%"><stop offset="0%" stop-color="#fef08a"/><stop offset="60%" stop-color="#fbbf24"/><stop offset="100%" stop-color="#f59e0b"/></radialGradient>
<linearGradient id="hillFar" x1="0" y1="0" x2="0" y2="1"><stop offset="0%" stop-color="#c4b5fd"/><stop offset="100%" stop-color="#a5b4fc"/></linearGradient>
<linearGradient id="hillMid" x1="0" y1="0" x2="0" y2="1"><stop offset="0%" stop-color="#86efac"/><stop offset="100%" stop-color="#4ade80"/></linearGradient>
<linearGradient id="hillNear" x1="0" y1="0" x2="0" y2="1"><stop offset="0%" stop-color="#34d399"/><stop offset="100%" stop-color="#10b981"/></linearGradient>
<linearGradient id="hillDesertFar" x1="0" y1="0" x2="0" y2="1"><stop offset="0%" stop-color="#fde68a"/><stop offset="100%" stop-color="#fcd34d"/></linearGradient>
<linearGradient id="hillDesertMid" x1="0" y1="0" x2="0" y2="1"><stop offset="0%" stop-color="#fcd34d"/><stop offset="100%" stop-color="#fbbf24"/></linearGradient>
<linearGradient id="hillDesertNear" x1="0" y1="0" x2="0" y2="1"><stop offset="0%" stop-color="#fbbf24"/><stop offset="100%" stop-color="#f59e0b"/></linearGradient>
<linearGradient id="groundGrad" x1="0" y1="0" x2="0" y2="1"><stop offset="0%" stop-color="#fef3c7"/><stop offset="100%" stop-color="#fde68a"/></linearGradient>
<linearGradient id="waterGrad" x1="0" y1="0" x2="0" y2="1"><stop offset="0%" stop-color="#bfdbfe"/><stop offset="100%" stop-color="#93c5fd"/></linearGradient>
<filter id="softGlow" x="-50%" y="-50%" width="200%" height="200%"><feGaussianBlur in="SourceGraphic" stdDeviation="12"/></filter>
</defs>
<rect width="1200" height="300" fill="url(#skyGrad)"/>
<circle cx="969.9" cy="40.0" r="45" fill="#fef08a" opacity="0.12" filter="url(#softGlow)"/>
<circle cx="969.9" cy="40.0" r="30" fill="#fde68a" opacity="0.18" filter="url(#softGlow)"/>
<circle cx="969.9" cy="40.0" r="16" fill="#fef9c3" opacity="0.25" filter="url(#softGlow)"/>
<ellipse cx="659.5" cy="45.2" rx="28.7" ry="10.1" fill="white" opacity="0.5"/>
<ellipse cx="641.5" cy="48.1" rx="20.1" ry="7.9" fill="white" opacity="0.5"/>
<ellipse cx="675.3" cy="47.4" rx="23.0" ry="8.6" fill="white" opacity="0.4"/>
<ellipse cx="821.1" cy="19.8" rx="48.9" ry="17.1" fill="white" opacity="0.6"/>
<ellipse cx="790.6" cy="24.7" rx="34.2" ry="13.4" fill="white" opacity="0.5"/>
<ellipse cx="848.0" cy="23.5" rx="39.1" ry="14.7" fill="white" opacity="0.5"/>
<path d="M0 300 L0.0 190.2 C151.9 190.2, 151.9 187.3, 303.8 187.3 C454.0 187.3, 454.0 182.4, 604.1 182.4 C768.8 182.4, 768.8 179.4, 933.4 179.4 C1066.7 179.4, 1066.7 192.0, 1200.0 192.0 L1200 300 Z" fill="url(#hillFar)" opacity="0.5"/>
<path d="M0 300 L0.0 206.9 C178.6 206.9, 178.6 214.9, 357.1 214.9 C442.5 214.9, 442.5 205.3, 527.9 205.3 C712.6 205.3, 712.6 212.4, 897.2 212.4 C1048.6 212.4, 1048.6 220.5, 1200.0 220.5 L1200 300 Z" fill="url(#hillMid)" opacity="0.7"/>
<path d="M0 300 L0.0 230.0 C133.4 230.0, 133.4 235.9, 266.8 235.9 C360.6 235.9, 360.6 233.5, 454.4 233.5 C611.5 233.5, 611.5 236.9, 768.5 236.9 C874.9 236.9, 874.9 231.1, 981.3 231.1 C1090.6 231.1, 1090.6 231.2, 1200.0 231.2 L1200 300 Z" fill="url(#hillNear)" opacity="1"/>
<rect x="111.1" y="227.9" width="77.2" height="72.1" rx="3" fill="url(#bldg_lavender)" opacity="0.7"/>
<rect x="111.1" y="224.9" width="77.2" height="3" rx="1" fill="url(#roof_navyRoof)" opacity="0.7"/>
<rect x="125.7" y="237.9" width="6" height="8" rx="1" fill="url(#windowGlow)" opacity="0.7004183493090879"/>
<rect x="139.7" y="237.9" width="6" height="8" rx="1" fill="url(#windowGlow)" opacity="0.883992578035217"/>
<rect x="153.7" y="237.9" width="6" height="8" rx="1" fill="url(#windowGlow)" opacity="0.7811314908699745"/>
<rect x="167.7" y="237.9" width="6" height="8" rx="1" fill="url(#windowGlow)" opacity="0.8168484334912376"/>
<rect x="125.7" y="252.9" width="6" height="8" rx="1" fill="url(#windowGlow)" opacity="0.8108365360697901"/>
<rect x="139.7" y="252.9" width="6" height="8" rx="1" fill="url(#windowGlow)" opacity="0.9069635714902372"/>
<rect x="153.7" y="252.9" width="6" height="8" rx="1" fill="url(#windowGlow)" opacity="0.7207935461405635"/>
<rect x="167.7" y="252.9" width="6" height="8" rx="1" fill="url(#windowGlow)" opacity="0.9992512362074345"/>
<rect x="415.4" y="192.1" width="64.8" height="107.9" rx="3" fill="url(#bldg_blue)" opacity="0.7"/>
<polygon points="415.4,192.1 447.8,175.1 480.2,192.1" fill="url(#roof_coralRoof)" opacity="0.7"/>
<rect x="430.8" y="202.1" width="6" height="8" rx="1" fill="url(#windowGlow)" opacity="0.7551186597697057"/>
<rect x="444.8" y="202.1" width="6" height="8" rx="1" fill="url(#windowGlow)" opacity="0.8836208632605247"/>
<rect x="458.8" y="202.1" width="6" height="8" rx="1" fill="url(#windowGlow)" opacity="0.7660779026179005"/>
<rect x="430.8" y="217.1" width="6" height="8" rx="1" fill="url(#windowGlow)" opacity="0.7850273754377977"/>
<rect x="444.8" y="217.1" width="6" height="8" rx="1" fill="url(#windowGlow)" opacity="0.8179426300422952"/>
<rect x="458.8" y="217.1" width="6" height="8" rx="1" fill="url(#windowGlow)" opacity="0.8382455678834791"/>
<rect x="430.8" y="232.1" width="6" height="8" rx="1" fill="url(#windowGlow)" opacity="0.9399858275148951"/>
<rect x="444.8" y="232.1" width="6" height="8" rx="1" fill="url(#windowGlow)" opacity="0.8527634985990652"/>
<rect x="430.8" y="247.1" width="6" height="8" rx="1" fill="url(#windowGlow)" opacity="0.9095044430389555"/>
<rect x="444.8" y="247.1" width="6" height="8" rx="1" fill="url(#windowGlow)" opacity="0.9000096737407193"/>
<rect x="458.8" y="247.1" width="6" height="8" rx="1" fill="url(#windowGlow)" opacity="0.7271751457020524"/>
<rect x="693.5" y="234.7" width="61.2" height="65.3" rx="3" fill="url(#bldg_mint)" opacity="0.7"/>
<rect x="705.7" y="226.8" width="36.7" height="7.8" rx="2" fill="url(#roof_tealRoof)" opacity="0.7"/>
<rect x="721.1" y="244.7" width="6" height="8" rx="1" fill="url(#windowGlow)" opacity="0.8641901992094657"/>
<rect x="707.1" y="259.7" width="6" height="8" rx="1" fill="url(#windowGlow)" opacity="0.7010300100320158"/>
<rect x="721.1" y="259.7" width="6" height="8" rx="1" fill="url(#windowGlow)" opacity="0.77127275167558"/>
<rect x="735.1" y="259.7" width="6" height="8" rx="1" fill="url(#windowGlow)" opacity="0.9990047059948577"/>
<rect x="966.5" y="226.3" width="54.1" height="73.7" rx="3" fill="url(#bldg_rose)" opacity="0.7"/>
<polygon points="966.5,226.3 993.5,209.5 1020.6,226.3" fill="url(#roof_navyRoof)" opacity="0.7"/>
<rect x="997.5" y="236.3" width="6" height="8" rx="1" fill="url(#windowGlow)" opacity="0.7295494304176184"/>
<rect x="997.5" y="251.3" width="6" height="8" rx="1" fill="url(#windowGlow)" opacity="0.7969438704647793"/>
<rect x="122.7" y="192.7" width="64.5" height="107.3" rx="3" fill="url(#bldg_sky)" opacity="0.85"/>
<rect x="135.6" y="179.9" width="38.7" height="12.9" rx="2" fill="url(#roof_coralRoof)" opacity="0.85"/>
<rect x="138.0" y="202.7" width="6" height="8" rx="1" fill="url(#windowGlow)" opacity="0.8311619269341053"/>
<rect x="152.0" y="202.7" width="6" height="8" rx="1" fill="url(#windowGlow)" opacity="0.9262973440933494"/>
<rect x="166.0" y="202.7" width="6" height="8" rx="1" fill="url(#windowGlow)" opacity="0.9068177432784893"/>
<rect x="138.0" y="217.7" width="6" height="8" rx="1" fill="url(#windowGlow)" opacity="0.8673886697587504"/>
<rect x="152.0" y="217.7" width="6" height="8" rx="1" fill="url(#windowGlow)" opacity="0.9350334092206476"/>
<rect x="166.0" y="217.7" width="6" height="8" rx="1" fill="url(#windowGlow)" opacity="0.7197353282103944"/>
<rect x="138.0" y="232.7" width="6" height="8" rx="1" fill="url(#windowGlow)" opacity="0.8525615778530768"/>
<rect x="152.0" y="232.7" width="6" height="8" rx="1" fill="url(#windowGlow)" opacity="0.7180220252918181"/>
<rect x="152.0" y="247.7" width="6" height="8" rx="1" fill="url(#windowGlow)" opacity="0.8281643932350745"/>
<rect x="166.0" y="247.7" width="6" height="8" rx="1" fill="url(#windowGlow)" opacity="0.8079821430649525"/>
<rect x="385.8" y="214.5" width="79.2" height="85.5" rx="3" fill="url(#bldg_coral)" opacity="0.85"/>
<rect x="385.8" y="211.5" width="79.2" height="3" rx="1" fill="url(#roof_tealRoof)" opacity="0.85"/>
<rect x="401.4" y="224.5" width="6" height="8" rx="1" fill="url(#windowGlow)" opacity="0.7723179256880274"/>
<rect x="415.4" y="224.5" width="6" height="8" rx="1" fill="url(#windowGlow)" opacity="0.7305178732753348"/>
<rect x="429.4" y="224.5" width="6" height="8" rx="1" fill="url(#windowGlow)" opacity="0.8507035691992861"/>
<rect x="443.4" y="224.5" width="6" height="8" rx="1" fill="url(#windowGlow)" opacity="0.9352143943473763"/>
<rect x="401.4" y="239.5" width="6" height="8" rx="1" fill="url(#windowGlow)" opacity="0.742131564226994"/>
<rect x="415.4" y="239.5" width="6" height="8" rx="1" fill="url(#windowGlow)" opacity="0.7065958020308035"/>
<rect x="429.4" y="239.5" width="6" height="8" rx="1" fill="url(#windowGlow)" opacity="0.9173221544443266"/>
<rect x="443.4" y="239.5" width="6" height="8" rx="1" fill="url(#windowGlow)" opacity="0.8245570685363174"/>
<rect x="401.4" y="254.5" width="6" height="8" rx="1" fill="url(#windowGlow)" opacity="0.7899025349365093"/>
<rect x="429.4" y="254.5" width="6" height="8" rx="1" fill="url(#windowGlow)" opacity="0.9752727349173616"/>
<rect x="443.4" y="254.5" width="6" height="8" rx="1" fill="url(#windowGlow)" opacity="0.8535033683541712"/>
<rect x="694.1" y="218.6" width="42.4" height="81.4" rx="3" fill="url(#bldg_teal)" opacity="0.85"/>
<rect x="694.1" y="215.6" width="42.4" height="3" rx="1" fill="url(#roof_navyRoof)" opacity="0.85"/>
<rect x="712.3" y="228.6" width="6" height="8" rx="1" fill="url(#windowGlow)" opacity="0.7375482589646932"/>
<rect x="712.3" y="243.6" width="6" height="8" rx="1" fill="url(#windowGlow)" opacity="0.7284677803183289"/>
<rect x="712.3" y="258.6" width="6" height="8" rx="1" fill="url(#windowGlow)" opacity="0.7425921133452058"/>
<rect x="981.0" y="160.3" width="43.3" height="139.7" rx="3" fill="url(#bldg_amber)" opacity="0.85"/>
<polygon points="981.0,160.3 1002.6,147.4 1024.3,160.3" fill="url(#roof_coralRoof)" opacity="0.85"/>
<rect x="999.6" y="170.3" width="6" height="8" rx="1" fill="url(#windowGlow)" opacity="0.9830989795192605"/>
<rect x="999.6" y="185.3" width="6" height="8" rx="1" fill="url(#windowGlow)" opacity="0.7529032413162772"/>
<rect x="999.6" y="200.3" width="6" height="8" rx="1" fill="url(#windowGlow)" opacity="0.7706690117114544"/>
<rect x="999.6" y="215.3" width="6" height="8" rx="1" fill="url(#windowGlow)" opacity="0.9993931252040867"/>
<rect x="999.6" y="230.3" width="6" height="8" rx="1" fill="url(#windowGlow)" opacity="0.8776121480286178"/>
<rect x="999.6" y="245.3" width="6" height="8" rx="1" fill="url(#windowGlow)" opacity="0.9468449295716569"/>
<rect x="999.6" y="260.3" width="6" height="8" rx="1" fill="url(#windowGlow)" opacity="0.716336787779041"/>
<path d="M985.3 209.2 L1002.6 209.2 L999.6 215.2 L988.3 215.2 Z" fill="url(#roof_navyRoof)" opacity="0.68"/>
<rect x="151.9" y="155.2" width="39.4" height="144.8" rx="3" fill="url(#bldg_lavender)" opacity="1"/>
<rect x="151.9" y="152.2" width="39.4" height="3" rx="1" fill="url(#roof_tealRoof)" opacity="1"/>
<rect x="168.6" y="165.2" width="6" height="8" rx="1" fill="url(#windowGlow)" opacity="0.9458177570932627"/>
<rect x="168.6" y="180.2" width="6" height="8" rx="1" fill="url(#windowGlow)" opacity="0.7371309782085619"/>
<rect x="168.6" y="195.2" width="6" height="8" rx="1" fill="url(#windowGlow)" opacity="0.8874751875584364"/>
<rect x="168.6" y="210.2" width="6" height="8" rx="1" fill="url(#windowGlow)" opacity="0.8450904683419924"/>
<rect x="168.6" y="225.2" width="6" height="8" rx="1" fill="url(#windowGlow)" opacity="0.8911214814014367"/>
<rect x="168.6" y="255.2" width="6" height="8" rx="1" fill="url(#windowGlow)" opacity="0.8582426968767506"/>
<rect x="166.6" y="284.0" width="10" height="16" rx="2" fill="url(#roof_navyRoof)" opacity="0.8"/>
<rect x="168.6" y="287.0" width="6" height="10" rx="1" fill="url(#windowGlow)" opacity="0.45"/>
<path d="M171.6 205.9 L187.4 205.9 L184.4 211.9 L174.6 211.9 Z" fill="url(#roof_coralRoof)" opacity="0.8"/>
<rect x="411.7" y="130.7" width="45.2" height="169.3" rx="3" fill="url(#bldg_blue)" opacity="1"/>
<rect x="411.7" y="127.7" width="45.2" height="3" rx="1" fill="url(#roof_navyRoof)" opacity="1"/>
<rect x="424.2" y="140.7" width="6" height="8" rx="1" fill="url(#windowGlow)" opacity="0.9805482794905771"/>
<rect x="438.2" y="140.7" width="6" height="8" rx="1" fill="url(#windowGlow)" opacity="0.8956482797840835"/>
<rect x="424.2" y="155.7" width="6" height="8" rx="1" fill="url(#windowGlow)" opacity="0.8708909454619935"/>
<rect x="438.2" y="155.7" width="6" height="8" rx="1" fill="url(#windowGlow)" opacity="0.9469391552949972"/>
<rect x="424.2" y="170.7" width="6" height="8" rx="1" fill="url(#windowGlow)" opacity="0.8035647795086562"/>
<rect x="438.2" y="185.7" width="6" height="8" rx="1" fill="url(#windowGlow)" opacity="0.9872043013047447"/>
<rect x="424.2" y="200.7" width="6" height="8" rx="1" fill="url(#windowGlow)" opacity="0.7490596288112269"/>
<rect x="438.2" y="200.7" width="6" height="8" rx="1" fill="url(#windowGlow)" opacity="0.9816395563453619"/>
<rect x="438.2" y="215.7" width="6" height="8" rx="1" fill="url(#windowGlow)" opacity="0.8713200325478427"/>
<rect x="424.2" y="230.7" width="6" height="8" rx="1" fill="url(#windowGlow)" opacity="0.8763148905133432"/>
<rect x="438.2" y="230.7" width="6" height="8" rx="1" fill="url(#windowGlow)" opacity="0.9195457131227225"/>
<rect x="424.2" y="245.7" width="6" height="8" rx="1" fill="url(#windowGlow)" opacity="0.8225465557642964"/>
<rect x="438.2" y="245.7" width="6" height="8" rx="1" fill="url(#windowGlow)" opacity="0.8227722561092917"/>
<rect x="429.2" y="284.0" width="10" height="16" rx="2" fill="url(#roof_navyRoof)" opacity="0.8"/>
<rect x="431.2" y="287.0" width="6" height="10" rx="1" fill="url(#windowGlow)" opacity="0.45"/>
<rect x="677.3" y="233.8" width="71.0" height="66.2" rx="3" fill="url(#bldg_mint)" opacity="1"/>
<polygon points="677.3,233.8 712.8,216.0 748.3,233.8" fill="url(#roof_coralRoof)" opacity="1"/>
<rect x="695.8" y="243.8" width="6" height="8" rx="1" fill="url(#windowGlow)" opacity="0.8718717906027434"/>
<rect x="709.8" y="243.8" width="6" height="8" rx="1" fill="url(#windowGlow)" opacity="0.8988938766060833"/>
<rect x="723.8" y="243.8" width="6" height="8" rx="1" fill="url(#windowGlow)" opacity="0.7667976164104405"/>
<rect x="695.8" y="258.8" width="6" height="8" rx="1" fill="url(#windowGlow)" opacity="0.9747410529175498"/>
<rect x="709.8" y="258.8" width="6" height="8" rx="1" fill="url(#windowGlow)" opacity="0.8537793441926033"/>
<rect x="723.8" y="258.8" width="6" height="8" rx="1" fill="url(#windowGlow)" opacity="0.8914493440144925"/>
<rect x="707.8" y="284.0" width="10" height="16" rx="2" fill="url(#roof_navyRoof)" opacity="0.8"/>
<rect x="709.8" y="287.0" width="6" height="10" rx="1" fill="url(#windowGlow)" opacity="0.45"/>
<rect x="965.8" y="200.6" width="57.2" height="99.4" rx="3" fill="url(#bldg_rose)" opacity="1"/>
<polygon points="965.8,200.6 994.4,183.4 1023.0,200.6" fill="url(#roof_tealRoof)" opacity="1"/>
<rect x="984.4" y="210.6" width="6" height="8" rx="1" fill="url(#windowGlow)" opacity="0.8444971676191767"/>
<rect x="998.4" y="210.6" width="6" height="8" rx="1" fill="url(#windowGlow)" opacity="0.9036655107995799"/>
<rect x="984.4" y="225.6" width="6" height="8" rx="1" fill="url(#windowGlow)" opacity="0.8910603926941102"/>
<rect x="984.4" y="240.6" width="6" height="8" rx="1" fill="url(#windowGlow)" opacity="0.8099958204245175"/>
<rect x="984.4" y="255.6" width="6" height="8" rx="1" fill="url(#windowGlow)" opacity="0.8170285066669007"/>
<rect x="998.4" y="255.6" width="6" height="8" rx="1" fill="url(#windowGlow)" opacity="0.7647253808401178"/>
<rect x="989.4" y="284.0" width="10" height="16" rx="2" fill="url(#roof_navyRoof)" opacity="0.8"/>
<rect x="991.4" y="287.0" width="6" height="10" rx="1" fill="url(#windowGlow)" opacity="0.45"/>
<path d="M971.5 235.4 L994.4 235.4 L991.4 241.4 L974.5 241.4 Z" fill="url(#roof_coralRoof)" opacity="0.8"/>
<rect x="298.5" y="266.7" width="6" height="18.3" rx="2" fill="#15803d"/>
<circle cx="301.5" cy="257.2" r="13.5" fill="#22c55e" opacity="0.9"/>
<circle cx="295.2" cy="260.2" r="10.1" fill="#16a34a" opacity="0.8"/>
<circle cx="308.8" cy="261.2" r="9.4" fill="#15803d" opacity="0.7"/>
<rect x="564.0" y="268.7" width="6" height="16.3" rx="2" fill="#15803d"/>
<circle cx="567.0" cy="259.1" r="13.6" fill="#22c55e" opacity="0.9"/>
<circle cx="560.3" cy="262.1" r="10.2" fill="#16a34a" opacity="0.8"/>
<circle cx="574.9" cy="263.1" r="9.5" fill="#15803d" opacity="0.7"/>
<rect x="854.1" y="263.5" width="6" height="21.5" rx="2" fill="#15803d"/>
<circle cx="857.1" cy="249.7" r="17.8" fill="#22c55e" opacity="0.9"/>
<circle cx="850.7" cy="252.7" r="13.4" fill="#16a34a" opacity="0.8"/>
<circle cx="864.1" cy="253.7" r="12.5" fill="#15803d" opacity="0.7"/>
<rect x="120.8" y="266.3" width="6" height="18.7" rx="2" fill="#15803d"/>
<circle cx="123.8" cy="253.0" r="17.3" fill="#22c55e" opacity="0.9"/>
<circle cx="115.4" cy="256.0" r="13.0" fill="#16a34a" opacity="0.8"/>
<circle cx="130.9" cy="257.0" r="12.1" fill="#15803d" opacity="0.7"/>
<rect x="1069.6" y="266.1" width="6" height="18.9" rx="2" fill="#15803d"/>
<circle cx="1072.6" cy="254.3" r="15.7" fill="#22c55e" opacity="0.9"/>
<circle cx="1064.7" cy="257.3" r="11.8" fill="#16a34a" opacity="0.8"/>
<circle cx="1078.0" cy="258.3" r="11.0" fill="#15803d" opacity="0.7"/>
<rect x="1017.9" y="266.1" width="6" height="18.9" rx="2" fill="#15803d"/>
<circle cx="1020.9" cy="256.0" r="14.1" fill="#22c55e" opacity="0.9"/>
<circle cx="1013.6" cy="259.0" r="10.6" fill="#16a34a" opacity="0.8"/>
<circle cx="1027.3" cy="260.0" r="9.9" fill="#15803d" opacity="0.7"/>
<rect x="300.4" y="267.3" width="6" height="17.7" rx="2" fill="#15803d"/>
<circle cx="303.4" cy="254.5" r="16.8" fill="#22c55e" opacity="0.9"/>
<circle cx="295.3" cy="257.5" r="12.6" fill="#16a34a" opacity="0.8"/>
<circle cx="310.6" cy="258.5" r="11.8" fill="#15803d" opacity="0.7"/>
<rect x="859.3" y="265.9" width="6" height="19.1" rx="2" fill="#15803d"/>
<circle cx="862.3" cy="252.3" r="17.6" fill="#22c55e" opacity="0.9"/>
<circle cx="855.9" cy="255.3" r="13.2" fill="#16a34a" opacity="0.8"/>
<circle cx="869.8" cy="256.3" r="12.3" fill="#15803d" opacity="0.7"/>
<rect x="184.9" y="263.6" width="6" height="21.4" rx="2" fill="#15803d"/>
<circle cx="187.9" cy="250.0" r="17.6" fill="#22c55e" opacity="0.9"/>
<circle cx="179.4" cy="253.0" r="13.2" fill="#16a34a" opacity="0.8"/>
<circle cx="194.0" cy="254.0" r="12.3" fill="#15803d" opacity="0.7"/>
<rect x="0" y="282" width="1200" height="18" fill="url(#groundGrad)"/>
<line x1="125.2" y1="282.0" x2="125.2" y2="242.1" stroke="#92400e" stroke-width="2"/>
<circle cx="125.2" cy="242.1" r="4" fill="#fef08a" opacity="0.6"/>
<circle cx="125.2" cy="242.1" r="8" fill="#fef08a" opacity="0.15" filter="url(#softGlow)"/>
<ellipse cx="1010.2" cy="282.0" rx="6.1" ry="4.2" fill="#22c55e" opacity="0.6"/>
<ellipse cx="413.5" cy="282.0" rx="4.3" ry="3.0" fill="#22c55e" opacity="0.6"/>
</svg>