<svg xmlns="http://www.w3.org/2000/svg" viewBox="0 0 1200 300" width="1200" height="300">
<rect width="1200" height="300" fill="#e0eff2"/>
<path d="M0 300 L0 210.0 C189.0 180.1, 1011.7 194.2, 1200 210.0 L1200 300 Z" fill="#aac2c9" opacity="0.3"/>
<rect x="100.3" y="238.5" width="82.6" height="61.5" fill="#8aabb4"/>
<rect x="410.8" y="205.7" width="68.2" height="94.3" fill="#8aabb4"/>
<rect x="684.7" y="199.1" width="84.9" height="100.9" fill="#8aabb4"/>
<rect x="1028.1" y="215.8" width="54.8" height="84.2" fill="#8aabb4"/>
<rect x="122.3" y="181.4" width="53.2" height="118.6" fill="#558592"/>
<rect x="152.9" y="193.4" width="6" height="8" fill="#91b0b8" opacity="0.5"/>
<rect x="138.9" y="209.4" width="6" height="8" fill="#91b0b8" opacity="0.5"/>
<rect x="138.9" y="225.4" width="6" height="8" fill="#91b0b8" opacity="0.5"/>
<rect x="138.9" y="241.4" width="6" height="8" fill="#91b0b8" opacity="0.5"/>
<rect x="152.9" y="241.4" width="6" height="8" fill="#91b0b8" opacity="0.5"/>
<rect x="138.9" y="257.4" width="6" height="8" fill="#91b0b8" opacity="0.5"/>
<rect x="152.9" y="257.4" width="6" height="8" fill="#91b0b8" opacity="0.5"/>
<rect x="138.9" y="273.4" width="6" height="8" fill="#91b0b8" opacity="0.5"/>
<rect x="152.9" y="273.4" width="6" height="8" fill="#91b0b8" opacity="0.5"/>
<rect x="405.2" y="138.7" width="65.3" height="161.3" fill="#558592"/>
<rect x="434.8" y="150.7" width="6" height="8" fill="#91b0b8" opacity="0.5"/>
<rect x="448.8" y="150.7" width="6" height="8" fill="#91b0b8" opacity="0.5"/>
<rect x="420.8" y="166.7" width="6" height="8" fill="#91b0b8" opacity="0.5"/>
<rect x="434.8" y="166.7" width="6" height="8" fill="#91b0b8" opacity="0.5"/>
<rect x="448.8" y="166.7" width="6" height="8" fill="#91b0b8" opacity="0.5"/>
<rect x="420.8" y="182.7" width="6" height="8" fill="#91b0b8" opacity="0.5"/>
<rect x="420.8" y="198.7" width="6" height="8" fill="#91b0b8" opacity="0.5"/>
<rect x="434.8" y="198.7" width="6" height="8" fill="#91b0b8" opacity="0.5"/>
<rect x="448.8" y="198.7" width="6" height="8" fill="#91b0b8" opacity="0.5"/>
<rect x="420.8" y="214.7" width="6" height="8" fill="#91b0b8" opacity="0.5"/>
<rect x="434.8" y="214.7" width="6" height="8" fill="#91b0b8" opacity="0.5"/>
<rect x="448.8" y="214.7" width="6" height="8" fill="#91b0b8" opacity="0.5"/>
<rect x="420.8" y="230.7" width="6" height="8" fill="#91b0b8" opacity="0.5"/>
<rect x="434.8" y="230.7" width="6" height="8" fill="#91b0b8" opacity="0.5"/>
<rect x="420.8" y="246.7" width="6" height="8" fill="#91b0b8" opacity="0.5"/>
<rect x="448.8" y="246.7" width="6" height="8" fill="#91b0b8" opacity="0.5"/>
<rect x="420.8" y="262.7" width="6" height="8" fill="#91b0b8" opacity="0.5"/>
<rect x="742.9" y="157.0" width="55.8" height="143.0" fill="#558592"/>
<rect x="760.8" y="169.0" width="6" height="8" fill="#91b0b8" opacity="0.5"/>
<rect x="774.8" y="169.0" width="6" height="8" fill="#91b0b8" opacity="0.5"/>
<rect x="760.8" y="185.0" width="6" height="8" fill="#91b0b8" opacity="0.5"/>
<rect x="774.8" y="185.0" width="6" height="8" fill="#91b0b8" opacity="0.5"/>
<rect x="760.8" y="201.0" width="6" height="8" fill="#91b0b8" opacity="0.5"/>
<rect x="774.8" y="201.0" width="6" height="8" fill="#91b0b8" opacity="0.5"/>
<rect x="760.8" y="217.0" width="6" height="8" fill="#91b0b8" opacity="0.5"/>
<rect x="774.8" y="233.0" width="6" height="8" fill="#91b0b8" opacity="0.5"/>
<rect x="760.8" y="249.0" width="6" height="8" fill="#91b0b8" opacity="0.5"/>
<rect x="760.8" y="265.0" width="6" height="8" fill="#91b0b8" opacity="0.5"/>
<rect x="774.8" y="265.0" width="6" height="8" fill="#91b0b8" opacity="0.5"/>
<rect x="1015.5" y="154.4" width="68.4" height="145.6" fill="#558592"/>
<rect x="1032.7" y="166.4" width="6" height="8" fill="#91b0b8" opacity="0.5"/>
<rect x="1046.7" y="166.4" width="6" height="8" fill="#91b0b8" opacity="0.5"/>
<rect x="1060.7" y="166.4" width="6" height="8" fill="#91b0b8" opacity="0.5"/>
<rect x="1032.7" y="182.4" width="6" height="8" fill="#91b0b8" opacity="0.5"/>
<rect x="1060.7" y="182.4" width="6" height="8" fill="#91b0b8" opacity="0.5"/>
<rect x="1032.7" y="198.4" width="6" height="8" fill="#91b0b8" opacity="0.5"/>
<rect x="1046.7" y="198.4" width="6" height="8" fill="#91b0b8" opacity="0.5"/>
<rect x="1060.7" y="198.4" width="6" height="8" fill="#91b0b8" opacity="0.5"/>
<rect x="1032.7" y="214.4" width="6" height="8" fill="#91b0b8" opacity="0.5"/>
<rect x="1046.7" y="214.4" width="6" height="8" fill="#91b0b8" opacity="0.5"/>
<rect x="1060.7" y="214.4" width="6" height="8" fill="#91b0b8" opacity="0.5"/>
<rect x="1032.7" y="246.4" width="6" height="8" fill="#91b0b8" opacity="0.5"/>
<rect x="1060.7" y="246.4" width="6" height="8" fill="#91b0b8" opacity="0.5"/>
<rect x="1032.7" y="262.4" width="6" height="8" fill="#91b0b8" opacity="0.5"/>
<rect x="1046.7" y="262.4" width="6" height="8" fill="#91b0b8" opacity="0.5"/>
<rect x="1060.7" y="262.4" width="6" height="8" fill="#91b0b8" opacity="0.5"/>
<rect x="172.4" y="141.7" width="69.5" height="158.3" fill="#2b6777"/>
<rect x="190.1" y="153.7" width="6" height="8" fill="#759ca7" opacity="0.5"/>
<rect x="204.1" y="153.7" width="6" height="8" fill="#759ca7" opacity="0.5"/>
<rect x="218.1" y="153.7" width="6" height="8" fill="#759ca7" opacity="0.5"/>
<rect x="190.1" y="169.7" width="6" height="8" fill="#759ca7" opacity="0.5"/>
<rect x="204.1" y="169.7" width="6" height="8" fill="#759ca7" opacity="0.5"/>
<rect x="190.1" y="185.7" width="6" height="8" fill="#759ca7" opacity="0.5"/>
<rect x="218.1" y="185.7" width="6" height="8" fill="#759ca7" opacity="0.5"/>
<rect x="190.1" y="201.7" width="6" height="8" fill="#759ca7" opacity="0.5"/>
<rect x="204.1" y="201.7" width="6" height="8" fill="#759ca7" opacity="0.5"/>
<rect x="190.1" y="217.7" width="6" height="8" fill="#759ca7" opacity="0.5"/>
<rect x="204.1" y="217.7" width="6" height="8" fill="#759ca7" opacity="0.5"/>
<rect x="218.1" y="217.7" width="6" height="8" fill="#759ca7" opacity="0.5"/>
<rect x="190.1" y="233.7" width="6" height="8" fill="#759ca7" opacity="0.5"/>
<rect x="204.1" y="233.7" width="6" height="8" fill="#759ca7" opacity="0.5"/>
<rect x="218.1" y="233.7" width="6" height="8" fill="#759ca7" opacity="0.5"/>
<rect x="190.1" y="249.7" width="6" height="8" fill="#759ca7" opacity="0.5"/>
<rect x="204.1" y="249.7" width="6" height="8" fill="#759ca7" opacity="0.5"/>
<rect x="218.1" y="249.7" width="6" height="8" fill="#759ca7" opacity="0.5"/>
<rect x="190.1" y="265.7" width="6" height="8" fill="#759ca7" opacity="0.5"/>
<rect x="204.1" y="265.7" width="6" height="8" fill="#759ca7" opacity="0.5"/>
<rect x="218.1" y="265.7" width="6" height="8" fill="#759ca7" opacity="0.5"/>
<rect x="465.2" y="210.0" width="58.2" height="90.0" fill="#2b6777"/>
<rect x="477.3" y="222.0" width="6" height="8" fill="#759ca7" opacity="0.5"/>
<rect x="491.3" y="222.0" width="6" height="8" fill="#759ca7" opacity="0.5"/>
<rect x="477.3" y="238.0" width="6" height="8" fill="#759ca7" opacity="0.5"/>
<rect x="491.3" y="238.0" width="6" height="8" fill="#759ca7" opacity="0.5"/>
<rect x="505.3" y="238.0" width="6" height="8" fill="#759ca7" opacity="0.5"/>
<rect x="477.3" y="254.0" width="6" height="8" fill="#759ca7" opacity="0.5"/>
<rect x="505.3" y="254.0" width="6" height="8" fill="#759ca7" opacity="0.5"/>
<rect x="477.3" y="270.0" width="6" height="8" fill="#759ca7" opacity="0.5"/>
<rect x="491.3" y="270.0" width="6" height="8" fill="#759ca7" opacity="0.5"/>
<rect x="505.3" y="270.0" width="6" height="8" fill="#759ca7" opacity="0.5"/>
<rect x="743.0" y="214.0" width="45.1" height="86.0" fill="#2b6777"/>
<rect x="755.5" y="226.0" width="6" height="8" fill="#759ca7" opacity="0.5"/>
<rect x="769.5" y="226.0" width="6" height="8" fill="#759ca7" opacity="0.5"/>
<rect x="755.5" y="242.0" width="6" height="8" fill="#759ca7" opacity="0.5"/>
<rect x="769.5" y="242.0" width="6" height="8" fill="#759ca7" opacity="0.5"/>
<rect x="755.5" y="258.0" width="6" height="8" fill="#759ca7" opacity="0.5"/>
<rect x="769.5" y="258.0" width="6" height="8" fill="#759ca7" opacity="0.5"/>
<rect x="755.5" y="274.0" width="6" height="8" fill="#759ca7" opacity="0.5"/>
<rect x="769.5" y="274.0" width="6" height="8" fill="#759ca7" opacity="0.5"/>
<rect x="968.0" y="223.4" width="73.8" height="76.6" fill="#2b6777"/>
<rect x="980.9" y="235.4" width="6" height="8" fill="#759ca7" opacity="0.5"/>
<rect x="994.9" y="235.4" width="6" height="8" fill="#759ca7" opacity="0.5"/>
<rect x="1008.9" y="235.4" width="6" height="8" fill="#759ca7" opacity="0.5"/>
<rect x="1022.9" y="235.4" width="6" height="8" fill="#759ca7" opacity="0.5"/>
<rect x="980.9" y="251.4" width="6" height="8" fill="#759ca7" opacity="0.5"/>
<rect x="994.9" y="251.4" width="6" height="8" fill="#759ca7" opacity="0.5"/>
<rect x="1022.9" y="251.4" width="6" height="8" fill="#759ca7" opacity="0.5"/>
<rect x="980.9" y="267.4" width="6" height="8" fill="#759ca7" opacity="0.5"/>
<rect x="1008.9" y="267.4" width="6" height="8" fill="#759ca7" opacity="0.5"/>
<rect x="1022.9" y="267.4" width="6" height="8" fill="#759ca7" opacity="0.5"/>
<rect x="0" y="298" width="1200" height="2" fill="#275d6b" opacity="0.15"/>
</svg>