<svg xmlns="http://www.w3.org/2000/svg" viewBox="0 0 1200 300" width="1200" height="300">
<defs>
<linearGradient id="skyGrad" x1="0" y1="0" x2="0" y2="1">
<stop offset="0%" stop-color="#a78bfa"/>
<stop offset="18%" stop-color="#ddb4f0"/>
<stop offset="35%" stop-color="#fda4af"/>
<stop offset="52%" stop-color="#fdba74"/>
<stop offset="72%" stop-color="#fef08a"/>
<stop offset="100%" stop-color="#fef9c3"/>
</linearGradient>
<linearGradient id="bldg_coral" x1="0" y1="0" x2="0" y2="1"><stop offset="0%" stop-color="#fecaca"/><stop offset="100%" stop-color="#fca5a5"/></linearGradient>
<linearGradient id="bldg_teal" x1="0" y1="0" x2="0" y2="1"><stop offset="0%" stop-color="#99f6e4"/><stop offset="100%" stop-color="#5eead4"/></linearGradient>
<linearGradient id="bldg_amber" x1="0" y1="0" x2="0" y2="1"><stop offset="0%" stop-color="#fde68a"/><stop offset="100%" stop-color="#fcd34d"/></linearGradient>
<linearGradient id="bldg_lavender" x1="0" y1="0" x2="0" y2="1"><stop offset="0%" stop-color="#ddd6fe"/><stop offset="100%" stop-color="#c4b5fd"/></linearGradient>
<linearGradient id="bldg_blue" x1="0" y1="0" x2="0" y2="1"><stop offset="0%" stop-color="#bfdbfe"/><stop offset="100%" stop-color="#93c5fd"/></linearGradient>
<linearGradient id="bldg_mint" x1="0" y1="0" x2="0" y2="1"><stop offset="0%" stop-color="#a7f3d0"/><stop offset="100%" stop-color="#6ee7b7"/></linearGradient>
<linearGradient id="bldg_rose" x1="0" y1="0" x2="0" y2="1"><stop offset="0%" stop-color="#fecdd3"/><stop offset="100%" stop-color="#fda4af"/></linearGradient>
<linearGradient id="bldg_sky" x1="0" y1="0" x2="0" y2="1"><stop offset="0%" stop-color="#bae6fd"/><stop offset="100%" stop-color="#7dd3fc"/></linearGradient>
<linearGradient id="roof_navyRoof" x1="0" y1="0" x2="0" y2="1"><stop offset="0%" stop-color="#4338ca"/><stop offset="100%" stop-color="#3730a3"/></linearGradient>
<linearGradient id="roof_coralRoof" x1="0" y1="0" x2="0" y2="1"><stop offset="0%" stop-color="#f87171"/><stop offset="100%" stop-color="#ef4444"/></linearGradient>
<linearGradient id="roof_tealRoof" x1="0" y1="0" x2="0" y2="1"><stop offset="0%" stop-color="#2dd4bf"/><stop offset="100%" stop-color="#14b8a6"/></linearGradient>
<radialGradient id="windowGlow" cx="50%" cy="50%" r="50%"><stop offset="0%" stop-color="#fef08a"/><stop offset="60%" stop-color="#fbbf24"/><stop offset="100%" stop-color="#f59e0b"/></radialGradient>
<linearGradient id="hillFar" x1="0" y1="0" x2="0" y2="1"><stop offset="0%" stop-color="#c4b5fd"/><stop offset="100%" stop-color="#a5b4fc"/></linearGradient>
<linearGradient id="hillMid" x1="0" y1="0" x2="0" y2="1"><stop offset="0%" stop-color="#86efac"/><stop offset="100%" stop-color="#4ade80"/></linearGradient>
<linearGradient id="hillNear" x1="0" y1="0" x2="0" y2="1"><stop offset="0%" stop-color="#34d399"/><stop offset="100%" stop-color="#10b981"/></linearGradient>
<linearGradient id="hillDesertFar" x1="0" y1="0" x2="0" y2="1"><stop offset="0%" stop-color="#fde68a"/><stop offset="100%" stop-color="#fcd34d"/></linearGradient>
<linearGradient id="hillDesertMid" x1="0" y1="0" x2="0" y2="1"><stop offset="0%" stop-color="#fcd34d"/><stop offset="100%" stop-color="#fbbf24"/></linearGradient>
<linearGradient id="hillDesertNear" x1="0" y1="0" x2="0" y2="1"><stop offset="0%" stop-color="#fbbf24"/><stop offset="100%" stop-color="#f59e0b"/></linearGradient>
<linearGradient id="groundGrad" x1="0" y1="0" x2="0" y2="1"><stop offset="0%" stop-color="#fef3c7"/><stop offset="100%" stop-color="#fde68a"/></linearGradient>
<linearGradient id="waterGrad" x1="0" y1="0" x2="0" y2="1"><stop offset="0%" stop-color="#bfdbfe"/><stop offset="100%" stop-color="#93c5fd"/></linearGradient>
<filter id="softGlow" x="-50%" y="-50%" width="200%" height="200%"><feGaussianBlur in="SourceGraphic" stdDeviation="12"/></filter>
</defs>
<rect width="1200" height="300" fill="url(#skyGrad)"/>
<circle cx="1073.6" cy="57.9" r="45" fill="#fef08a" opacity="0.12" filter="url(#softGlow)"/>
<circle cx="1073.6" cy="57.9" r="30" fill="#fde68a" opacity="0.18" filter="url(#softGlow)"/>
<circle cx="1073.6" cy="57.9" r="16" fill="#fef9c3" opacity="0.25" filter="url(#softGlow)"/>
<path d="M0 300 L0.0 199.4 C124.7 199.4, 124.7 177.8, 249.4 177.8 C458.2 177.8, 458.2 175.8, 667.0 175.8 C754.6 175.8, 754.6 178.9, 842.2 178.9 C1021.1 178.9, 1021.1 197.7, 1200.0 197.7 L1200 300 Z" fill="url(#hillFar)" opacity="0.5"/>
<path d="M0 300 L0.0 216.0 C152.5 216.0, 152.5 213.3, 305.0 213.3 C548.3 213.3, 548.3 215.8, 791.5 215.8 C995.7 215.8, 995.7 209.8, 1200.0 209.8 L1200 300 Z" fill="url(#hillMid)" opacity="0.7"/>
<path d="M0 300 L0.0 236.2 C191.9 236.2, 191.9 233.7, 383.9 233.7 C638.7 233.7, 638.7 230.7, 893.6 230.7 C1046.8 230.7, 1046.8 238.3, 1200.0 238.3 L1200 300 Z" fill="url(#hillNear)" opacity="1"/>
<rect x="148.5" y="202.1" width="81.3" height="97.9" rx="3" fill="url(#bldg_rose)" opacity="0.7"/>
<rect x="148.5" y="199.1" width="81.3" height="3" rx="1" fill="url(#roof_tealRoof)" opacity="0.7"/>
<rect x="165.1" y="212.1" width="6" height="8" rx="1" fill="url(#windowGlow)" opacity="0.8266107523006436"/>
<rect x="179.1" y="212.1" width="6" height="8" rx="1" fill="url(#windowGlow)" opacity="0.8677618436830872"/>
<rect x="207.1" y="212.1" width="6" height="8" rx="1" fill="url(#windowGlow)" opacity="0.967657975511466"/>
<rect x="165.1" y="227.1" width="6" height="8" rx="1" fill="url(#windowGlow)" opacity="0.779484061747549"/>
<rect x="193.1" y="227.1" width="6" height="8" rx="1" fill="url(#windowGlow)" opacity="0.9173515353898292"/>
<rect x="207.1" y="227.1" width="6" height="8" rx="1" fill="url(#windowGlow)" opacity="0.8508237655511236"/>
<rect x="165.1" y="242.1" width="6" height="8" rx="1" fill="url(#windowGlow)" opacity="0.8925199846236593"/>
<rect x="179.1" y="242.1" width="6" height="8" rx="1" fill="url(#windowGlow)" opacity="0.9486590968205868"/>
<rect x="193.1" y="242.1" width="6" height="8" rx="1" fill="url(#windowGlow)" opacity="0.8159939780905814"/>
<rect x="207.1" y="242.1" width="6" height="8" rx="1" fill="url(#windowGlow)" opacity="0.9726222522429293"/>
<rect x="165.1" y="257.1" width="6" height="8" rx="1" fill="url(#windowGlow)" opacity="0.9003980180716132"/>
<rect x="193.1" y="257.1" width="6" height="8" rx="1" fill="url(#windowGlow)" opacity="0.7178116769612821"/>
<rect x="539.2" y="232.6" width="47.9" height="67.4" rx="3" fill="url(#bldg_sky)" opacity="0.7"/>
<polygon points="539.2,232.6 563.1,222.8 587.0,232.6" fill="url(#roof_navyRoof)" opacity="0.7"/>
<rect x="553.1" y="242.6" width="6" height="8" rx="1" fill="url(#windowGlow)" opacity="0.9354463639368519"/>
<rect x="553.1" y="257.6" width="6" height="8" rx="1" fill="url(#windowGlow)" opacity="0.7677600738907978"/>
<rect x="567.1" y="257.6" width="6" height="8" rx="1" fill="url(#windowGlow)" opacity="0.7512642696738542"/>
<rect x="933.6" y="194.9" width="69.8" height="105.1" rx="3" fill="url(#bldg_coral)" opacity="0.7"/>
<polygon points="933.6,194.9 968.5,171.4 1003.4,194.9" fill="url(#roof_coralRoof)" opacity="0.7"/>
<rect x="951.5" y="204.9" width="6" height="8" rx="1" fill="url(#windowGlow)" opacity="0.9991587906606303"/>
<rect x="979.5" y="204.9" width="6" height="8" rx="1" fill="url(#windowGlow)" opacity="0.862187977536669"/>
<rect x="951.5" y="219.9" width="6" height="8" rx="1" fill="url(#windowGlow)" opacity="0.8012247900484245"/>
<rect x="965.5" y="219.9" width="6" height="8" rx="1" fill="url(#windowGlow)" opacity="0.7466288828973793"/>
<rect x="979.5" y="219.9" width="6" height="8" rx="1" fill="url(#windowGlow)" opacity="0.9134929092198111"/>
<rect x="965.5" y="234.9" width="6" height="8" rx="1" fill="url(#windowGlow)" opacity="0.7350541539653456"/>
<rect x="979.5" y="234.9" width="6" height="8" rx="1" fill="url(#windowGlow)" opacity="0.9800853450224201"/>
<rect x="951.5" y="249.9" width="6" height="8" rx="1" fill="url(#windowGlow)" opacity="0.9515379688942516"/>
<rect x="965.5" y="249.9" width="6" height="8" rx="1" fill="url(#windowGlow)" opacity="0.959942038571435"/>
<rect x="979.5" y="249.9" width="6" height="8" rx="1" fill="url(#windowGlow)" opacity="0.8033572737608837"/>
<rect x="187.4" y="157.4" width="79.6" height="142.6" rx="3" fill="url(#bldg_teal)" opacity="0.85"/>
<rect x="187.4" y="154.4" width="79.6" height="3" rx="1" fill="url(#roof_tealRoof)" opacity="0.85"/>
<rect x="203.2" y="167.4" width="6" height="8" rx="1" fill="url(#windowGlow)" opacity="0.8074975954403624"/>
<rect x="217.2" y="167.4" width="6" height="8" rx="1" fill="url(#windowGlow)" opacity="0.9915505940055245"/>
<rect x="231.2" y="167.4" width="6" height="8" rx="1" fill="url(#windowGlow)" opacity="0.9135576032630901"/>
<rect x="203.2" y="182.4" width="6" height="8" rx="1" fill="url(#windowGlow)" opacity="0.7539565573697707"/>
<rect x="217.2" y="182.4" width="6" height="8" rx="1" fill="url(#windowGlow)" opacity="0.7947091831335374"/>
<rect x="231.2" y="182.4" width="6" height="8" rx="1" fill="url(#windowGlow)" opacity="0.8840823659599211"/>
<rect x="203.2" y="197.4" width="6" height="8" rx="1" fill="url(#windowGlow)" opacity="0.9326719190611839"/>
<rect x="217.2" y="197.4" width="6" height="8" rx="1" fill="url(#windowGlow)" opacity="0.9953809927196153"/>
<rect x="231.2" y="197.4" width="6" height="8" rx="1" fill="url(#windowGlow)" opacity="0.7099435046827157"/>
<rect x="203.2" y="212.4" width="6" height="8" rx="1" fill="url(#windowGlow)" opacity="0.8395417385453087"/>
<rect x="231.2" y="212.4" width="6" height="8" rx="1" fill="url(#windowGlow)" opacity="0.7610222210926106"/>
<rect x="203.2" y="227.4" width="6" height="8" rx="1" fill="url(#windowGlow)" opacity="0.7462387741758668"/>
<rect x="217.2" y="227.4" width="6" height="8" rx="1" fill="url(#windowGlow)" opacity="0.9740061571234866"/>
<rect x="231.2" y="227.4" width="6" height="8" rx="1" fill="url(#windowGlow)" opacity="0.7162136822083097"/>
<rect x="245.2" y="227.4" width="6" height="8" rx="1" fill="url(#windowGlow)" opacity="0.9590538325994525"/>
<rect x="217.2" y="242.4" width="6" height="8" rx="1" fill="url(#windowGlow)" opacity="0.9088966794819089"/>
<rect x="231.2" y="242.4" width="6" height="8" rx="1" fill="url(#windowGlow)" opacity="0.9304915547047237"/>
<rect x="245.2" y="242.4" width="6" height="8" rx="1" fill="url(#windowGlow)" opacity="0.8966378046649683"/>
<rect x="203.2" y="257.4" width="6" height="8" rx="1" fill="url(#windowGlow)" opacity="0.8866479386979005"/>
<rect x="231.2" y="257.4" width="6" height="8" rx="1" fill="url(#windowGlow)" opacity="0.705705801772748"/>
<rect x="245.2" y="257.4" width="6" height="8" rx="1" fill="url(#windowGlow)" opacity="0.9795029960942934"/>
<rect x="599.3" y="202.8" width="57.4" height="97.2" rx="3" fill="url(#bldg_amber)" opacity="0.85"/>
<rect x="610.8" y="191.1" width="34.5" height="11.7" rx="2" fill="url(#roof_navyRoof)" opacity="0.85"/>
<rect x="618.1" y="212.8" width="6" height="8" rx="1" fill="url(#windowGlow)" opacity="0.95082559792829"/>
<rect x="632.1" y="212.8" width="6" height="8" rx="1" fill="url(#windowGlow)" opacity="0.8130110659231483"/>
<rect x="618.1" y="227.8" width="6" height="8" rx="1" fill="url(#windowGlow)" opacity="0.8600555348955353"/>
<rect x="632.1" y="227.8" width="6" height="8" rx="1" fill="url(#windowGlow)" opacity="0.8509757748576698"/>
<rect x="618.1" y="242.8" width="6" height="8" rx="1" fill="url(#windowGlow)" opacity="0.9132009076016028"/>
<rect x="632.1" y="242.8" width="6" height="8" rx="1" fill="url(#windowGlow)" opacity="0.9085525547194073"/>
<rect x="618.1" y="257.8" width="6" height="8" rx="1" fill="url(#windowGlow)" opacity="0.7483430280575263"/>
<rect x="632.1" y="257.8" width="6" height="8" rx="1" fill="url(#windowGlow)" opacity="0.9375476169574761"/>
<path d="M605.1 236.8 L628.1 236.8 L625.1 242.8 L608.1 242.8 Z" fill="url(#roof_tealRoof)" opacity="0.68"/>
<rect x="957.4" y="189.2" width="79.9" height="110.8" rx="3" fill="url(#bldg_lavender)" opacity="0.85"/>
<rect x="973.4" y="175.9" width="47.9" height="13.3" rx="2" fill="url(#roof_coralRoof)" opacity="0.85"/>
<rect x="987.4" y="199.2" width="6" height="8" rx="1" fill="url(#windowGlow)" opacity="0.7536027650598449"/>
<rect x="1001.4" y="199.2" width="6" height="8" rx="1" fill="url(#windowGlow)" opacity="0.9289643033542503"/>
<rect x="1015.4" y="199.2" width="6" height="8" rx="1" fill="url(#windowGlow)" opacity="0.8388501384942094"/>
<rect x="973.4" y="214.2" width="6" height="8" rx="1" fill="url(#windowGlow)" opacity="0.8343500044822459"/>
<rect x="987.4" y="214.2" width="6" height="8" rx="1" fill="url(#windowGlow)" opacity="0.955665297087126"/>
<rect x="1015.4" y="214.2" width="6" height="8" rx="1" fill="url(#windowGlow)" opacity="0.9089255140670227"/>
<rect x="973.4" y="229.2" width="6" height="8" rx="1" fill="url(#windowGlow)" opacity="0.8113029196911039"/>
<rect x="987.4" y="229.2" width="6" height="8" rx="1" fill="url(#windowGlow)" opacity="0.8366510099902055"/>
<rect x="1001.4" y="229.2" width="6" height="8" rx="1" fill="url(#windowGlow)" opacity="0.8921870431360728"/>
<rect x="1015.4" y="229.2" width="6" height="8" rx="1" fill="url(#windowGlow)" opacity="0.8316181359028527"/>
<rect x="973.4" y="244.2" width="6" height="8" rx="1" fill="url(#windowGlow)" opacity="0.7195879038048851"/>
<rect x="987.4" y="244.2" width="6" height="8" rx="1" fill="url(#windowGlow)" opacity="0.7704242485437655"/>
<rect x="1001.4" y="244.2" width="6" height="8" rx="1" fill="url(#windowGlow)" opacity="0.9844060662129921"/>
<rect x="1015.4" y="244.2" width="6" height="8" rx="1" fill="url(#windowGlow)" opacity="0.7303525873135555"/>
<rect x="973.4" y="259.2" width="6" height="8" rx="1" fill="url(#windowGlow)" opacity="0.9473624982626002"/>
<rect x="987.4" y="259.2" width="6" height="8" rx="1" fill="url(#windowGlow)" opacity="0.9984909266226416"/>
<rect x="1001.4" y="259.2" width="6" height="8" rx="1" fill="url(#windowGlow)" opacity="0.842550818455662"/>
<rect x="1015.4" y="259.2" width="6" height="8" rx="1" fill="url(#windowGlow)" opacity="0.8345611651588981"/>
<path d="M965.4 228.0 L997.4 228.0 L994.4 234.0 L968.4 234.0 Z" fill="url(#roof_navyRoof)" opacity="0.68"/>
<rect x="235.7" y="219.5" width="35.5" height="80.5" rx="3" fill="url(#bldg_blue)" opacity="1"/>
<rect x="242.7" y="209.8" width="21.3" height="9.7" rx="2" fill="url(#roof_tealRoof)" opacity="1"/>
<rect x="250.4" y="229.5" width="6" height="8" rx="1" fill="url(#windowGlow)" opacity="0.9524435572570392"/>
<rect x="250.4" y="244.5" width="6" height="8" rx="1" fill="url(#windowGlow)" opacity="0.9511203791252898"/>
<rect x="250.4" y="259.5" width="6" height="8" rx="1" fill="url(#windowGlow)" opacity="0.7369123210371064"/>
<rect x="248.4" y="284.0" width="10" height="16" rx="2" fill="url(#roof_navyRoof)" opacity="0.8"/>
<rect x="250.4" y="287.0" width="6" height="10" rx="1" fill="url(#windowGlow)" opacity="0.45"/>
<rect x="247.2" y="260.5" width="12.4" height="5" rx="1" fill="#15803d" opacity="0.7"/>
<circle cx="250.2" cy="259.5" r="2.5" fill="#fb923c" opacity="0.85"/>
<circle cx="254.3" cy="259.5" r="2.5" fill="#fb923c" opacity="0.85"/>
<circle cx="258.5" cy="259.5" r="2.5" fill="#f87171" opacity="0.85"/>
<rect x="520.2" y="204.9" width="74.6" height="95.1" rx="3" fill="url(#bldg_mint)" opacity="1"/>
<rect x="520.2" y="201.9" width="74.6" height="3" rx="1" fill="url(#roof_navyRoof)" opacity="1"/>
<rect x="533.5" y="214.9" width="6" height="8" rx="1" fill="url(#windowGlow)" opacity="0.8550877791154606"/>
<rect x="561.5" y="214.9" width="6" height="8" rx="1" fill="url(#windowGlow)" opacity="0.7052235229896491"/>
<rect x="575.5" y="214.9" width="6" height="8" rx="1" fill="url(#windowGlow)" opacity="0.7763308780623277"/>
<rect x="533.5" y="229.9" width="6" height="8" rx="1" fill="url(#windowGlow)" opacity="0.8024251622624812"/>
<rect x="547.5" y="229.9" width="6" height="8" rx="1" fill="url(#windowGlow)" opacity="0.7957314014880598"/>
<rect x="575.5" y="229.9" width="6" height="8" rx="1" fill="url(#windowGlow)" opacity="0.906211766463803"/>
<rect x="533.5" y="244.9" width="6" height="8" rx="1" fill="url(#windowGlow)" opacity="0.9585644131333402"/>
<rect x="547.5" y="244.9" width="6" height="8" rx="1" fill="url(#windowGlow)" opacity="0.7680880609751157"/>
<rect x="561.5" y="244.9" width="6" height="8" rx="1" fill="url(#windowGlow)" opacity="0.9828863229522883"/>
<rect x="575.5" y="244.9" width="6" height="8" rx="1" fill="url(#windowGlow)" opacity="0.8968801388968155"/>
<rect x="533.5" y="259.9" width="6" height="8" rx="1" fill="url(#windowGlow)" opacity="0.861816062155094"/>
<rect x="547.5" y="259.9" width="6" height="8" rx="1" fill="url(#windowGlow)" opacity="0.9358071372545357"/>
<rect x="561.5" y="259.9" width="6" height="8" rx="1" fill="url(#windowGlow)" opacity="0.92150695692818"/>
<rect x="575.5" y="259.9" width="6" height="8" rx="1" fill="url(#windowGlow)" opacity="0.7929159214687141"/>
<rect x="552.5" y="284.0" width="10" height="16" rx="2" fill="url(#roof_navyRoof)" opacity="0.8"/>
<rect x="554.5" y="287.0" width="6" height="10" rx="1" fill="url(#windowGlow)" opacity="0.45"/>
<path d="M527.6 238.2 L557.5 238.2 L554.5 244.2 L530.6 244.2 Z" fill="url(#roof_tealRoof)" opacity="0.8"/>
<rect x="544.4" y="230.9" width="26.1" height="5" rx="1" fill="#15803d" opacity="0.7"/>
<circle cx="547.4" cy="229.9" r="2.5" fill="#fb923c" opacity="0.85"/>
<circle cx="556.1" cy="229.9" r="2.5" fill="#fbbf24" opacity="0.85"/>
<circle cx="564.8" cy="229.9" r="2.5" fill="#fbbf24" opacity="0.85"/>
<rect x="922.3" y="171.5" width="49.0" height="128.5" rx="3" fill="url(#bldg_rose)" opacity="1"/>
<polygon points="922.3,171.5 946.8,158.0 971.3,171.5" fill="url(#roof_coralRoof)" opacity="1"/>
<rect x="936.8" y="181.5" width="6" height="8" rx="1" fill="url(#windowGlow)" opacity="0.8169464138881053"/>
<rect x="950.8" y="181.5" width="6" height="8" rx="1" fill="url(#windowGlow)" opacity="0.8051223025215427"/>
<rect x="936.8" y="196.5" width="6" height="8" rx="1" fill="url(#windowGlow)" opacity="0.7303083474888971"/>
<rect x="950.8" y="196.5" width="6" height="8" rx="1" fill="url(#windowGlow)" opacity="0.8519291101731029"/>
<rect x="936.8" y="211.5" width="6" height="8" rx="1" fill="url(#windowGlow)" opacity="0.7706272893914148"/>
<rect x="936.8" y="226.5" width="6" height="8" rx="1" fill="url(#windowGlow)" opacity="0.7995688567867357"/>
<rect x="950.8" y="226.5" width="6" height="8" rx="1" fill="url(#windowGlow)" opacity="0.7146735006546012"/>
<rect x="950.8" y="241.5" width="6" height="8" rx="1" fill="url(#windowGlow)" opacity="0.870196767696271"/>
<rect x="950.8" y="256.5" width="6" height="8" rx="1" fill="url(#windowGlow)" opacity="0.8184172949839463"/>
<rect x="941.8" y="284.0" width="10" height="16" rx="2" fill="url(#roof_navyRoof)" opacity="0.8"/>
<rect x="943.8" y="287.0" width="6" height="10" rx="1" fill="url(#windowGlow)" opacity="0.45"/>
<path d="M946.8 216.5 L966.4 216.5 L963.4 222.5 L949.8 222.5 Z" fill="url(#roof_navyRoof)" opacity="0.8"/>
<rect x="392.6" y="265.6" width="6" height="19.4" rx="2" fill="#15803d"/>
<circle cx="395.6" cy="255.8" r="13.8" fill="#22c55e" opacity="0.9"/>
<circle cx="389.2" cy="258.8" r="10.4" fill="#16a34a" opacity="0.8"/>
<circle cx="400.8" cy="259.8" r="9.7" fill="#15803d" opacity="0.7"/>
<rect x="755.5" y="263.7" width="6" height="21.3" rx="2" fill="#15803d"/>
<circle cx="758.5" cy="251.4" r="16.3" fill="#22c55e" opacity="0.9"/>
<circle cx="751.5" cy="254.4" r="12.2" fill="#16a34a" opacity="0.8"/>
<circle cx="764.8" cy="255.4" r="11.4" fill="#15803d" opacity="0.7"/>
<rect x="194.3" y="263.8" width="6" height="21.2" rx="2" fill="#15803d"/>
<circle cx="197.3" cy="254.8" r="13.1" fill="#22c55e" opacity="0.9"/>
<circle cx="189.1" cy="257.8" r="9.8" fill="#16a34a" opacity="0.8"/>
<circle cx="205.3" cy="258.8" r="9.1" fill="#15803d" opacity="0.7"/>
<rect x="1004.8" y="263.8" width="6" height="21.2" rx="2" fill="#15803d"/>
<circle cx="1007.8" cy="253.6" r="14.1" fill="#22c55e" opacity="0.9"/>
<circle cx="1001.2" cy="256.6" r="10.6" fill="#16a34a" opacity="0.8"/>
<circle cx="1013.9" cy="257.6" r="9.9" fill="#15803d" opacity="0.7"/>
<rect x="571.0" y="268.9" width="6" height="16.1" rx="2" fill="#15803d"/>
<circle cx="574.0" cy="257.6" r="15.3" fill="#22c55e" opacity="0.9"/>
<circle cx="565.7" cy="260.6" r="11.5" fill="#16a34a" opacity="0.8"/>
<circle cx="580.3" cy="261.6" r="10.7" fill="#15803d" opacity="0.7"/>
<rect x="218.1" y="268.7" width="6" height="16.3" rx="2" fill="#15803d"/>
<circle cx="221.1" cy="258.8" r="13.9" fill="#22c55e" opacity="0.9"/>
<circle cx="213.5" cy="261.8" r="10.4" fill="#16a34a" opacity="0.8"/>
<circle cx="227.6" cy="262.8" r="9.7" fill="#15803d" opacity="0.7"/>
<rect x="1134.7" y="268.8" width="6" height="16.2" rx="2" fill="#15803d"/>
<circle cx="1137.7" cy="258.1" r="14.7" fill="#22c55e" opacity="0.9"/>
<circle cx="1130.6" cy="261.1" r="11.0" fill="#16a34a" opacity="0.8"/>
<circle cx="1144.4" cy="262.1" r="10.3" fill="#15803d" opacity="0.7"/>
<rect x="0" y="282" width="1200" height="18" fill="url(#groundGrad)"/>
<line x1="1077.4" y1="282.0" x2="1077.4" y2="241.7" stroke="#92400e" stroke-width="2"/>
<circle cx="1077.4" cy="241.7" r="4" fill="#fef08a" opacity="0.6"/>
<circle cx="1077.4" cy="241.7" r="8" fill="#fef08a" opacity="0.15" filter="url(#softGlow)"/>
<line x1="723.4" y1="282.0" x2="723.4" y2="249.4" stroke="#92400e" stroke-width="2"/>
<circle cx="723.4" cy="249.4" r="4" fill="#fef08a" opacity="0.6"/>
<circle cx="723.4" cy="249.4" r="8" fill="#fef08a" opacity="0.15" filter="url(#softGlow)"/>
<ellipse cx="674.7" cy="282.0" rx="5.2" ry="3.6" fill="#22c55e" opacity="0.6"/>
<ellipse cx="437.9" cy="282.0" rx="6.4" ry="4.5" fill="#22c55e" opacity="0.6"/>
<ellipse cx="978.5" cy="282.0" rx="5.8" ry="4.1" fill="#22c55e" opacity="0.6"/>
<ellipse cx="739.4" cy="282.0" rx="5.4" ry="3.8" fill="#22c55e" opacity="0.6"/>
</svg>