<svg xmlns="http://www.w3.org/2000/svg" viewBox="0 0 1200 300" width="1200" height="300">
<rect width="1200" height="300" fill="#e0eff2"/>
<path d="M0 300 L0 210.0 C338.6 187.2, 957.9 195.8, 1200 210.0 L1200 300 Z" fill="#aac2c9" opacity="0.3"/>
<rect x="179.7" y="206.6" width="45.6" height="93.4" fill="#8aabb4"/>
<rect x="611.4" y="227.3" width="89.3" height="72.7" fill="#8aabb4"/>
<rect x="974.3" y="177.4" width="77.5" height="122.6" fill="#8aabb4"/>
<rect x="166.1" y="150.0" width="37.7" height="150.0" fill="#558592"/>
<rect x="181.9" y="194.0" width="6" height="8" fill="#91b0b8" opacity="0.5"/>
<rect x="181.9" y="210.0" width="6" height="8" fill="#91b0b8" opacity="0.5"/>
<rect x="181.9" y="226.0" width="6" height="8" fill="#91b0b8" opacity="0.5"/>
<rect x="181.9" y="242.0" width="6" height="8" fill="#91b0b8" opacity="0.5"/>
<rect x="181.9" y="258.0" width="6" height="8" fill="#91b0b8" opacity="0.5"/>
<rect x="442.4" y="147.2" width="76.6" height="152.8" fill="#558592"/>
<rect x="456.7" y="159.2" width="6" height="8" fill="#91b0b8" opacity="0.5"/>
<rect x="470.7" y="159.2" width="6" height="8" fill="#91b0b8" opacity="0.5"/>
<rect x="498.7" y="159.2" width="6" height="8" fill="#91b0b8" opacity="0.5"/>
<rect x="470.7" y="175.2" width="6" height="8" fill="#91b0b8" opacity="0.5"/>
<rect x="484.7" y="175.2" width="6" height="8" fill="#91b0b8" opacity="0.5"/>
<rect x="498.7" y="175.2" width="6" height="8" fill="#91b0b8" opacity="0.5"/>
<rect x="456.7" y="191.2" width="6" height="8" fill="#91b0b8" opacity="0.5"/>
<rect x="470.7" y="191.2" width="6" height="8" fill="#91b0b8" opacity="0.5"/>
<rect x="498.7" y="191.2" width="6" height="8" fill="#91b0b8" opacity="0.5"/>
<rect x="456.7" y="207.2" width="6" height="8" fill="#91b0b8" opacity="0.5"/>
<rect x="470.7" y="207.2" width="6" height="8" fill="#91b0b8" opacity="0.5"/>
<rect x="498.7" y="207.2" width="6" height="8" fill="#91b0b8" opacity="0.5"/>
<rect x="470.7" y="223.2" width="6" height="8" fill="#91b0b8" opacity="0.5"/>
<rect x="498.7" y="223.2" width="6" height="8" fill="#91b0b8" opacity="0.5"/>
<rect x="456.7" y="239.2" width="6" height="8" fill="#91b0b8" opacity="0.5"/>
<rect x="470.7" y="239.2" width="6" height="8" fill="#91b0b8" opacity="0.5"/>
<rect x="484.7" y="239.2" width="6" height="8" fill="#91b0b8" opacity="0.5"/>
<rect x="498.7" y="239.2" width="6" height="8" fill="#91b0b8" opacity="0.5"/>
<rect x="456.7" y="255.2" width="6" height="8" fill="#91b0b8" opacity="0.5"/>
<rect x="484.7" y="255.2" width="6" height="8" fill="#91b0b8" opacity="0.5"/>
<rect x="498.7" y="255.2" width="6" height="8" fill="#91b0b8" opacity="0.5"/>
<rect x="456.7" y="271.2" width="6" height="8" fill="#91b0b8" opacity="0.5"/>
<rect x="470.7" y="271.2" width="6" height="8" fill="#91b0b8" opacity="0.5"/>
<rect x="498.7" y="271.2" width="6" height="8" fill="#91b0b8" opacity="0.5"/>
<rect x="737.2" y="219.0" width="64.2" height="81.0" fill="#558592"/>
<rect x="752.3" y="231.0" width="6" height="8" fill="#91b0b8" opacity="0.5"/>
<rect x="780.3" y="231.0" width="6" height="8" fill="#91b0b8" opacity="0.5"/>
<rect x="752.3" y="247.0" width="6" height="8" fill="#91b0b8" opacity="0.5"/>
<rect x="766.3" y="247.0" width="6" height="8" fill="#91b0b8" opacity="0.5"/>
<rect x="780.3" y="247.0" width="6" height="8" fill="#91b0b8" opacity="0.5"/>
<rect x="752.3" y="263.0" width="6" height="8" fill="#91b0b8" opacity="0.5"/>
<rect x="766.3" y="263.0" width="6" height="8" fill="#91b0b8" opacity="0.5"/>
<rect x="780.3" y="263.0" width="6" height="8" fill="#91b0b8" opacity="0.5"/>
<rect x="1021.9" y="139.4" width="68.2" height="160.6" fill="#558592"/>
<rect x="1039.0" y="151.4" width="6" height="8" fill="#91b0b8" opacity="0.5"/>
<rect x="1053.0" y="151.4" width="6" height="8" fill="#91b0b8" opacity="0.5"/>
<rect x="1067.0" y="151.4" width="6" height="8" fill="#91b0b8" opacity="0.5"/>
<rect x="1039.0" y="167.4" width="6" height="8" fill="#91b0b8" opacity="0.5"/>
<rect x="1053.0" y="167.4" width="6" height="8" fill="#91b0b8" opacity="0.5"/>
<rect x="1039.0" y="183.4" width="6" height="8" fill="#91b0b8" opacity="0.5"/>
<rect x="1053.0" y="183.4" width="6" height="8" fill="#91b0b8" opacity="0.5"/>
<rect x="1039.0" y="199.4" width="6" height="8" fill="#91b0b8" opacity="0.5"/>
<rect x="1053.0" y="199.4" width="6" height="8" fill="#91b0b8" opacity="0.5"/>
<rect x="1067.0" y="199.4" width="6" height="8" fill="#91b0b8" opacity="0.5"/>
<rect x="1039.0" y="215.4" width="6" height="8" fill="#91b0b8" opacity="0.5"/>
<rect x="1053.0" y="215.4" width="6" height="8" fill="#91b0b8" opacity="0.5"/>
<rect x="1067.0" y="215.4" width="6" height="8" fill="#91b0b8" opacity="0.5"/>
<rect x="1039.0" y="231.4" width="6" height="8" fill="#91b0b8" opacity="0.5"/>
<rect x="1053.0" y="231.4" width="6" height="8" fill="#91b0b8" opacity="0.5"/>
<rect x="1067.0" y="231.4" width="6" height="8" fill="#91b0b8" opacity="0.5"/>
<rect x="1039.0" y="247.4" width="6" height="8" fill="#91b0b8" opacity="0.5"/>
<rect x="1053.0" y="247.4" width="6" height="8" fill="#91b0b8" opacity="0.5"/>
<rect x="1067.0" y="247.4" width="6" height="8" fill="#91b0b8" opacity="0.5"/>
<rect x="1053.0" y="263.4" width="6" height="8" fill="#91b0b8" opacity="0.5"/>
<rect x="195.7" y="129.7" width="63.8" height="170.3" fill="#2b6777"/>
<rect x="210.6" y="141.7" width="6" height="8" fill="#759ca7" opacity="0.5"/>
<rect x="224.6" y="141.7" width="6" height="8" fill="#759ca7" opacity="0.5"/>
<rect x="238.6" y="141.7" width="6" height="8" fill="#759ca7" opacity="0.5"/>
<rect x="210.6" y="157.7" width="6" height="8" fill="#759ca7" opacity="0.5"/>
<rect x="224.6" y="157.7" width="6" height="8" fill="#759ca7" opacity="0.5"/>
<rect x="238.6" y="157.7" width="6" height="8" fill="#759ca7" opacity="0.5"/>
<rect x="224.6" y="173.7" width="6" height="8" fill="#759ca7" opacity="0.5"/>
<rect x="238.6" y="173.7" width="6" height="8" fill="#759ca7" opacity="0.5"/>
<rect x="224.6" y="189.7" width="6" height="8" fill="#759ca7" opacity="0.5"/>
<rect x="238.6" y="189.7" width="6" height="8" fill="#759ca7" opacity="0.5"/>
<rect x="210.6" y="205.7" width="6" height="8" fill="#759ca7" opacity="0.5"/>
<rect x="224.6" y="205.7" width="6" height="8" fill="#759ca7" opacity="0.5"/>
<rect x="210.6" y="221.7" width="6" height="8" fill="#759ca7" opacity="0.5"/>
<rect x="238.6" y="221.7" width="6" height="8" fill="#759ca7" opacity="0.5"/>
<rect x="210.6" y="237.7" width="6" height="8" fill="#759ca7" opacity="0.5"/>
<rect x="224.6" y="237.7" width="6" height="8" fill="#759ca7" opacity="0.5"/>
<rect x="210.6" y="253.7" width="6" height="8" fill="#759ca7" opacity="0.5"/>
<rect x="224.6" y="253.7" width="6" height="8" fill="#759ca7" opacity="0.5"/>
<rect x="224.6" y="269.7" width="6" height="8" fill="#759ca7" opacity="0.5"/>
<rect x="238.6" y="269.7" width="6" height="8" fill="#759ca7" opacity="0.5"/>
<rect x="574.5" y="170.4" width="64.9" height="129.6" fill="#2b6777"/>
<rect x="590.0" y="182.4" width="6" height="8" fill="#759ca7" opacity="0.5"/>
<rect x="618.0" y="182.4" width="6" height="8" fill="#759ca7" opacity="0.5"/>
<rect x="590.0" y="198.4" width="6" height="8" fill="#759ca7" opacity="0.5"/>
<rect x="590.0" y="214.4" width="6" height="8" fill="#759ca7" opacity="0.5"/>
<rect x="604.0" y="214.4" width="6" height="8" fill="#759ca7" opacity="0.5"/>
<rect x="590.0" y="246.4" width="6" height="8" fill="#759ca7" opacity="0.5"/>
<rect x="604.0" y="246.4" width="6" height="8" fill="#759ca7" opacity="0.5"/>
<rect x="618.0" y="246.4" width="6" height="8" fill="#759ca7" opacity="0.5"/>
<rect x="590.0" y="262.4" width="6" height="8" fill="#759ca7" opacity="0.5"/>
<rect x="604.0" y="262.4" width="6" height="8" fill="#759ca7" opacity="0.5"/>
<rect x="618.0" y="262.4" width="6" height="8" fill="#759ca7" opacity="0.5"/>
<rect x="1001.1" y="171.3" width="31.0" height="128.7" fill="#2b6777"/>
<rect x="1013.6" y="183.3" width="6" height="8" fill="#759ca7" opacity="0.5"/>
<rect x="1013.6" y="199.3" width="6" height="8" fill="#759ca7" opacity="0.5"/>
<rect x="1013.6" y="215.3" width="6" height="8" fill="#759ca7" opacity="0.5"/>
<rect x="1013.6" y="247.3" width="6" height="8" fill="#759ca7" opacity="0.5"/>
<rect x="1013.6" y="263.3" width="6" height="8" fill="#759ca7" opacity="0.5"/>
<rect x="0" y="298" width="1200" height="2" fill="#275d6b" opacity="0.15"/>
</svg>