<svg xmlns="http://www.w3.org/2000/svg" viewBox="0 0 1200 300" width="1200" height="300">
<defs>
<linearGradient id="skyGrad" x1="0" y1="0" x2="0" y2="1">
<stop offset="0%" stop-color="#a78bfa"/>
<stop offset="18%" stop-color="#ddb4f0"/>
<stop offset="35%" stop-color="#fda4af"/>
<stop offset="52%" stop-color="#fdba74"/>
<stop offset="72%" stop-color="#fef08a"/>
<stop offset="100%" stop-color="#fef9c3"/>
</linearGradient>
<linearGradient id="bldg_coral" x1="0" y1="0" x2="0" y2="1"><stop offset="0%" stop-color="#fecaca"/><stop offset="100%" stop-color="#fca5a5"/></linearGradient>
<linearGradient id="bldg_teal" x1="0" y1="0" x2="0" y2="1"><stop offset="0%" stop-color="#99f6e4"/><stop offset="100%" stop-color="#5eead4"/></linearGradient>
<linearGradient id="bldg_amber" x1="0" y1="0" x2="0" y2="1"><stop offset="0%" stop-color="#fde68a"/><stop offset="100%" stop-color="#fcd34d"/></linearGradient>
<linearGradient id="bldg_lavender" x1="0" y1="0" x2="0" y2="1"><stop offset="0%" stop-color="#ddd6fe"/><stop offset="100%" stop-color="#c4b5fd"/></linearGradient>
<linearGradient id="bldg_blue" x1="0" y1="0" x2="0" y2="1"><stop offset="0%" stop-color="#bfdbfe"/><stop offset="100%" stop-color="#93c5fd"/></linearGradient>
<linearGradient id="bldg_mint" x1="0" y1="0" x2="0" y2="1"><stop offset="0%" stop-color="#a7f3d0"/><stop offset="100%" stop-color="#6ee7b7"/></linearGradient>
<linearGradient id="bldg_rose" x1="0" y1="0" x2="0" y2="1"><stop offset="0%" stop-color="#fecdd3"/><stop offset="100%" stop-color="#fda4af"/></linearGradient>
<linearGradient id="bldg_sky" x1="0" y1="0" x2="0" y2="1"><stop offset="0%" stop-color="#bae6fd"/><stop offset="100%" stop-color="#7dd3fc"/></linearGradient>
<linearGradient id="roof_navyRoof" x1="0" y1="0" x2="0" y2="1"><stop offset="0%" stop-color="#4338ca"/><stop offset="100%" stop-color="#3730a3"/></linearGradient>
<linearGradient id="roof_coralRoof" x1="0" y1="0" x2="0" y2="1"><stop offset="0%" stop-color="#f87171"/><stop offset="100%" stop-color="#ef4444"/></linearGradient>
<linearGradient id="roof_tealRoof" x1="0" y1="0" x2="0" y2="1"><stop offset="0%" stop-color="#2dd4bf"/><stop offset="100%" stop-color="#14b8a6"/></linearGradient>
<radialGradient id="windowGlow" cx="50%" cy="50%" r="50%"><stop offset="0%" stop-color="#fef08a"/><stop offset="60%" stop-color="#fbbf24"/><stop offset="100%" stop-color="#f59e0b"/></radialGradient>
<linearGradient id="hillFar" x1="0" y1="0" x2="0" y2="1"><stop offset="0%" stop-color="#c4b5fd"/><stop offset="100%" stop-color="#a5b4fc"/></linearGradient>
<linearGradient id="hillMid" x1="0" y1="0" x2="0" y2="1"><stop offset="0%" stop-color="#86efac"/><stop offset="100%" stop-color="#4ade80"/></linearGradient>
<linearGradient id="hillNear" x1="0" y1="0" x2="0" y2="1"><stop offset="0%" stop-color="#34d399"/><stop offset="100%" stop-color="#10b981"/></linearGradient>
<linearGradient id="hillDesertFar" x1="0" y1="0" x2="0" y2="1"><stop offset="0%" stop-color="#fde68a"/><stop offset="100%" stop-color="#fcd34d"/></linearGradient>
<linearGradient id="hillDesertMid" x1="0" y1="0" x2="0" y2="1"><stop offset="0%" stop-color="#fcd34d"/><stop offset="100%" stop-color="#fbbf24"/></linearGradient>
<linearGradient id="hillDesertNear" x1="0" y1="0" x2="0" y2="1"><stop offset="0%" stop-color="#fbbf24"/><stop offset="100%" stop-color="#f59e0b"/></linearGradient>
<linearGradient id="groundGrad" x1="0" y1="0" x2="0" y2="1"><stop offset="0%" stop-color="#fef3c7"/><stop offset="100%" stop-color="#fde68a"/></linearGradient>
<linearGradient id="waterGrad" x1="0" y1="0" x2="0" y2="1"><stop offset="0%" stop-color="#bfdbfe"/><stop offset="100%" stop-color="#93c5fd"/></linearGradient>
<filter id="softGlow" x="-50%" y="-50%" width="200%" height="200%"><feGaussianBlur in="SourceGraphic" stdDeviation="12"/></filter>
</defs>
<rect width="1200" height="300" fill="url(#skyGrad)"/>
<circle cx="911.2" cy="38.2" r="45" fill="#fef08a" opacity="0.12" filter="url(#softGlow)"/>
<circle cx="911.2" cy="38.2" r="30" fill="#fde68a" opacity="0.18" filter="url(#softGlow)"/>
<circle cx="911.2" cy="38.2" r="16" fill="#fef9c3" opacity="0.25" filter="url(#softGlow)"/>
<path d="M0 300 L0.0 183.8 C128.1 183.8, 128.1 192.0, 256.1 192.0 C416.6 192.0, 416.6 183.4, 577.0 183.4 C774.9 183.4, 774.9 173.0, 972.8 173.0 C1086.4 173.0, 1086.4 200.7, 1200.0 200.7 L1200 300 Z" fill="url(#hillFar)" opacity="0.5"/>
<path d="M0 300 L0.0 205.8 C229.0 205.8, 229.0 202.5, 458.0 202.5 C585.1 202.5, 585.1 206.8, 712.2 206.8 C956.1 206.8, 956.1 208.8, 1200.0 208.8 L1200 300 Z" fill="url(#hillMid)" opacity="0.7"/>
<path d="M0 300 L0.0 225.9 C227.2 225.9, 227.2 229.3, 454.4 229.3 C642.1 229.3, 642.1 229.7, 829.9 229.7 C1015.0 229.7, 1015.0 239.6, 1200.0 239.6 L1200 300 Z" fill="url(#hillNear)" opacity="1"/>
<rect x="226.6" y="205.5" width="82.5" height="94.5" rx="3" fill="url(#bldg_lavender)" opacity="0.7"/>
<polygon points="226.6,205.5 267.9,186.5 309.1,205.5" fill="url(#roof_navyRoof)" opacity="0.7"/>
<rect x="243.9" y="215.5" width="6" height="8" rx="1" fill="url(#windowGlow)" opacity="0.9912692322355086"/>
<rect x="257.9" y="215.5" width="6" height="8" rx="1" fill="url(#windowGlow)" opacity="0.9918652942366271"/>
<rect x="271.9" y="215.5" width="6" height="8" rx="1" fill="url(#windowGlow)" opacity="0.8896945942610942"/>
<rect x="243.9" y="230.5" width="6" height="8" rx="1" fill="url(#windowGlow)" opacity="0.775837662013172"/>
<rect x="257.9" y="230.5" width="6" height="8" rx="1" fill="url(#windowGlow)" opacity="0.9717437501399515"/>
<rect x="285.9" y="230.5" width="6" height="8" rx="1" fill="url(#windowGlow)" opacity="0.9881782025975073"/>
<rect x="243.9" y="245.5" width="6" height="8" rx="1" fill="url(#windowGlow)" opacity="0.9882036291007901"/>
<rect x="257.9" y="245.5" width="6" height="8" rx="1" fill="url(#windowGlow)" opacity="0.9835820413118144"/>
<rect x="271.9" y="245.5" width="6" height="8" rx="1" fill="url(#windowGlow)" opacity="0.8928376031540509"/>
<rect x="285.9" y="245.5" width="6" height="8" rx="1" fill="url(#windowGlow)" opacity="0.8057886432883277"/>
<rect x="243.9" y="260.5" width="6" height="8" rx="1" fill="url(#windowGlow)" opacity="0.8061333331308017"/>
<rect x="257.9" y="260.5" width="6" height="8" rx="1" fill="url(#windowGlow)" opacity="0.926319910830967"/>
<rect x="271.9" y="260.5" width="6" height="8" rx="1" fill="url(#windowGlow)" opacity="0.7241301619094471"/>
<rect x="285.9" y="260.5" width="6" height="8" rx="1" fill="url(#windowGlow)" opacity="0.9194283061285634"/>
<rect x="595.7" y="204.1" width="70.5" height="95.9" rx="3" fill="url(#bldg_blue)" opacity="0.7"/>
<polygon points="595.7,204.1 630.9,182.4 666.2,204.1" fill="url(#roof_coralRoof)" opacity="0.7"/>
<rect x="613.9" y="214.1" width="6" height="8" rx="1" fill="url(#windowGlow)" opacity="0.9797115980553028"/>
<rect x="627.9" y="214.1" width="6" height="8" rx="1" fill="url(#windowGlow)" opacity="0.9558812832254363"/>
<rect x="641.9" y="214.1" width="6" height="8" rx="1" fill="url(#windowGlow)" opacity="0.941876045308018"/>
<rect x="613.9" y="229.1" width="6" height="8" rx="1" fill="url(#windowGlow)" opacity="0.8404732640089808"/>
<rect x="627.9" y="229.1" width="6" height="8" rx="1" fill="url(#windowGlow)" opacity="0.8620230177706214"/>
<rect x="641.9" y="229.1" width="6" height="8" rx="1" fill="url(#windowGlow)" opacity="0.7738587126945419"/>
<rect x="613.9" y="244.1" width="6" height="8" rx="1" fill="url(#windowGlow)" opacity="0.7698340549924569"/>
<rect x="627.9" y="244.1" width="6" height="8" rx="1" fill="url(#windowGlow)" opacity="0.9568369515039199"/>
<rect x="641.9" y="244.1" width="6" height="8" rx="1" fill="url(#windowGlow)" opacity="0.9510293624135802"/>
<rect x="613.9" y="259.1" width="6" height="8" rx="1" fill="url(#windowGlow)" opacity="0.983398067757207"/>
<rect x="641.9" y="259.1" width="6" height="8" rx="1" fill="url(#windowGlow)" opacity="0.8905260045968583"/>
<rect x="943.2" y="244.7" width="70.3" height="55.3" rx="3" fill="url(#bldg_mint)" opacity="0.7"/>
<polygon points="943.2,244.7 978.3,222.3 1013.4,244.7" fill="url(#roof_tealRoof)" opacity="0.7"/>
<rect x="961.3" y="254.7" width="6" height="8" rx="1" fill="url(#windowGlow)" opacity="0.9340482684942186"/>
<rect x="975.3" y="254.7" width="6" height="8" rx="1" fill="url(#windowGlow)" opacity="0.7377356049780434"/>
<rect x="989.3" y="254.7" width="6" height="8" rx="1" fill="url(#windowGlow)" opacity="0.7595875218788103"/>
<rect x="146.8" y="224.1" width="72.9" height="75.9" rx="3" fill="url(#bldg_rose)" opacity="0.85"/>
<rect x="146.8" y="221.1" width="72.9" height="3" rx="1" fill="url(#roof_navyRoof)" opacity="0.85"/>
<rect x="159.3" y="234.1" width="6" height="8" rx="1" fill="url(#windowGlow)" opacity="0.9210552318585362"/>
<rect x="187.3" y="234.1" width="6" height="8" rx="1" fill="url(#windowGlow)" opacity="0.99553778418132"/>
<rect x="201.3" y="234.1" width="6" height="8" rx="1" fill="url(#windowGlow)" opacity="0.713397867611329"/>
<rect x="159.3" y="249.1" width="6" height="8" rx="1" fill="url(#windowGlow)" opacity="0.8976841680694763"/>
<rect x="173.3" y="249.1" width="6" height="8" rx="1" fill="url(#windowGlow)" opacity="0.7692750657299883"/>
<rect x="187.3" y="249.1" width="6" height="8" rx="1" fill="url(#windowGlow)" opacity="0.8748602798091528"/>
<rect x="432.7" y="185.8" width="44.1" height="114.2" rx="3" fill="url(#bldg_sky)" opacity="0.85"/>
<rect x="441.5" y="172.1" width="26.5" height="13.7" rx="2" fill="url(#roof_coralRoof)" opacity="0.85"/>
<rect x="444.7" y="195.8" width="6" height="8" rx="1" fill="url(#windowGlow)" opacity="0.7029575412641081"/>
<rect x="458.7" y="210.8" width="6" height="8" rx="1" fill="url(#windowGlow)" opacity="0.7803949993012449"/>
<rect x="444.7" y="225.8" width="6" height="8" rx="1" fill="url(#windowGlow)" opacity="0.9138170960889277"/>
<rect x="458.7" y="225.8" width="6" height="8" rx="1" fill="url(#windowGlow)" opacity="0.9756723510919475"/>
<rect x="444.7" y="240.8" width="6" height="8" rx="1" fill="url(#windowGlow)" opacity="0.8086775475222047"/>
<rect x="458.7" y="240.8" width="6" height="8" rx="1" fill="url(#windowGlow)" opacity="0.7757739923781594"/>
<rect x="458.7" y="255.8" width="6" height="8" rx="1" fill="url(#windowGlow)" opacity="0.9676860940026519"/>
<rect x="717.6" y="185.6" width="62.8" height="114.4" rx="3" fill="url(#bldg_coral)" opacity="0.85"/>
<rect x="717.6" y="182.6" width="62.8" height="3" rx="1" fill="url(#roof_tealRoof)" opacity="0.85"/>
<rect x="732.0" y="195.6" width="6" height="8" rx="1" fill="url(#windowGlow)" opacity="0.9323938498424337"/>
<rect x="746.0" y="195.6" width="6" height="8" rx="1" fill="url(#windowGlow)" opacity="0.9519133624862475"/>
<rect x="760.0" y="195.6" width="6" height="8" rx="1" fill="url(#windowGlow)" opacity="0.7307667113052525"/>
<rect x="760.0" y="210.6" width="6" height="8" rx="1" fill="url(#windowGlow)" opacity="0.9207002913675737"/>
<rect x="732.0" y="225.6" width="6" height="8" rx="1" fill="url(#windowGlow)" opacity="0.7285832218958918"/>
<rect x="760.0" y="225.6" width="6" height="8" rx="1" fill="url(#windowGlow)" opacity="0.828307007825145"/>
<rect x="732.0" y="240.6" width="6" height="8" rx="1" fill="url(#windowGlow)" opacity="0.9317387310470169"/>
<rect x="746.0" y="240.6" width="6" height="8" rx="1" fill="url(#windowGlow)" opacity="0.7161617125925429"/>
<rect x="760.0" y="240.6" width="6" height="8" rx="1" fill="url(#windowGlow)" opacity="0.9711800385132339"/>
<rect x="732.0" y="255.6" width="6" height="8" rx="1" fill="url(#windowGlow)" opacity="0.8234352143590502"/>
<rect x="746.0" y="255.6" width="6" height="8" rx="1" fill="url(#windowGlow)" opacity="0.9892150381529773"/>
<rect x="1001.8" y="235.6" width="69.2" height="64.4" rx="3" fill="url(#bldg_teal)" opacity="0.85"/>
<polygon points="1001.8,235.6 1036.4,213.8 1071.0,235.6" fill="url(#roof_navyRoof)" opacity="0.85"/>
<rect x="1019.4" y="245.6" width="6" height="8" rx="1" fill="url(#windowGlow)" opacity="0.9838330223149774"/>
<rect x="1033.4" y="245.6" width="6" height="8" rx="1" fill="url(#windowGlow)" opacity="0.9881548514534508"/>
<rect x="1047.4" y="245.6" width="6" height="8" rx="1" fill="url(#windowGlow)" opacity="0.9899063755711104"/>
<rect x="1019.4" y="260.6" width="6" height="8" rx="1" fill="url(#windowGlow)" opacity="0.7234056542270842"/>
<rect x="1033.4" y="260.6" width="6" height="8" rx="1" fill="url(#windowGlow)" opacity="0.9754714245793742"/>
<rect x="1047.4" y="260.6" width="6" height="8" rx="1" fill="url(#windowGlow)" opacity="0.726484119951019"/>
<rect x="122.6" y="134.9" width="66.2" height="165.1" rx="3" fill="url(#bldg_amber)" opacity="1"/>
<rect x="122.6" y="131.9" width="66.2" height="3" rx="1" fill="url(#roof_coralRoof)" opacity="1"/>
<rect x="138.7" y="144.9" width="6" height="8" rx="1" fill="url(#windowGlow)" opacity="0.8702659867099793"/>
<rect x="166.7" y="144.9" width="6" height="8" rx="1" fill="url(#windowGlow)" opacity="0.768709312970149"/>
<rect x="138.7" y="159.9" width="6" height="8" rx="1" fill="url(#windowGlow)" opacity="0.8392093823939605"/>
<rect x="166.7" y="159.9" width="6" height="8" rx="1" fill="url(#windowGlow)" opacity="0.7122380110026514"/>
<rect x="152.7" y="174.9" width="6" height="8" rx="1" fill="url(#windowGlow)" opacity="0.7891606258643608"/>
<rect x="166.7" y="174.9" width="6" height="8" rx="1" fill="url(#windowGlow)" opacity="0.8665601325996966"/>
<rect x="138.7" y="189.9" width="6" height="8" rx="1" fill="url(#windowGlow)" opacity="0.9585495622169922"/>
<rect x="166.7" y="189.9" width="6" height="8" rx="1" fill="url(#windowGlow)" opacity="0.951898038271767"/>
<rect x="138.7" y="204.9" width="6" height="8" rx="1" fill="url(#windowGlow)" opacity="0.8810549651650036"/>
<rect x="152.7" y="204.9" width="6" height="8" rx="1" fill="url(#windowGlow)" opacity="0.7024111602000944"/>
<rect x="166.7" y="204.9" width="6" height="8" rx="1" fill="url(#windowGlow)" opacity="0.8345612640653556"/>
<rect x="138.7" y="219.9" width="6" height="8" rx="1" fill="url(#windowGlow)" opacity="0.7890974203073873"/>
<rect x="166.7" y="219.9" width="6" height="8" rx="1" fill="url(#windowGlow)" opacity="0.8673098569583659"/>
<rect x="138.7" y="234.9" width="6" height="8" rx="1" fill="url(#windowGlow)" opacity="0.7556516908368336"/>
<rect x="152.7" y="234.9" width="6" height="8" rx="1" fill="url(#windowGlow)" opacity="0.8391009960039989"/>
<rect x="166.7" y="234.9" width="6" height="8" rx="1" fill="url(#windowGlow)" opacity="0.8203902101704805"/>
<rect x="138.7" y="249.9" width="6" height="8" rx="1" fill="url(#windowGlow)" opacity="0.7063025505311333"/>
<rect x="152.7" y="249.9" width="6" height="8" rx="1" fill="url(#windowGlow)" opacity="0.8171580214598951"/>
<rect x="166.7" y="249.9" width="6" height="8" rx="1" fill="url(#windowGlow)" opacity="0.9044018387814992"/>
<rect x="150.7" y="284.0" width="10" height="16" rx="2" fill="url(#roof_navyRoof)" opacity="0.8"/>
<rect x="152.7" y="287.0" width="6" height="10" rx="1" fill="url(#windowGlow)" opacity="0.45"/>
<rect x="144.2" y="160.9" width="23.2" height="5" rx="1" fill="#15803d" opacity="0.7"/>
<circle cx="147.2" cy="159.9" r="2.5" fill="#a78bfa" opacity="0.85"/>
<circle cx="154.9" cy="159.9" r="2.5" fill="#a78bfa" opacity="0.85"/>
<circle cx="162.6" cy="159.9" r="2.5" fill="#fbbf24" opacity="0.85"/>
<rect x="456.4" y="205.6" width="65.2" height="94.4" rx="3" fill="url(#bldg_lavender)" opacity="1"/>
<rect x="469.4" y="194.3" width="39.1" height="11.3" rx="2" fill="url(#roof_tealRoof)" opacity="1"/>
<rect x="471.9" y="215.6" width="6" height="8" rx="1" fill="url(#windowGlow)" opacity="0.866126040958858"/>
<rect x="485.9" y="215.6" width="6" height="8" rx="1" fill="url(#windowGlow)" opacity="0.8061639030492695"/>
<rect x="471.9" y="230.6" width="6" height="8" rx="1" fill="url(#windowGlow)" opacity="0.7961330187023306"/>
<rect x="485.9" y="230.6" width="6" height="8" rx="1" fill="url(#windowGlow)" opacity="0.8863272838230837"/>
<rect x="499.9" y="230.6" width="6" height="8" rx="1" fill="url(#windowGlow)" opacity="0.7257489824787475"/>
<rect x="471.9" y="245.6" width="6" height="8" rx="1" fill="url(#windowGlow)" opacity="0.8707649579135537"/>
<rect x="485.9" y="245.6" width="6" height="8" rx="1" fill="url(#windowGlow)" opacity="0.9148826607572299"/>
<rect x="471.9" y="260.6" width="6" height="8" rx="1" fill="url(#windowGlow)" opacity="0.8499124294379318"/>
<rect x="499.9" y="260.6" width="6" height="8" rx="1" fill="url(#windowGlow)" opacity="0.8592857258204769"/>
<rect x="483.9" y="284.0" width="10" height="16" rx="2" fill="url(#roof_navyRoof)" opacity="0.8"/>
<rect x="485.9" y="287.0" width="6" height="10" rx="1" fill="url(#windowGlow)" opacity="0.45"/>
<rect x="477.5" y="231.6" width="22.8" height="5" rx="1" fill="#15803d" opacity="0.7"/>
<circle cx="480.5" cy="230.6" r="2.5" fill="#a78bfa" opacity="0.85"/>
<circle cx="488.1" cy="230.6" r="2.5" fill="#a78bfa" opacity="0.85"/>
<circle cx="495.7" cy="230.6" r="2.5" fill="#fbbf24" opacity="0.85"/>
<rect x="676.3" y="148.3" width="72.4" height="151.7" rx="3" fill="url(#bldg_blue)" opacity="1"/>
<rect x="676.3" y="145.3" width="72.4" height="3" rx="1" fill="url(#roof_navyRoof)" opacity="1"/>
<rect x="688.5" y="158.3" width="6" height="8" rx="1" fill="url(#windowGlow)" opacity="0.732936342774395"/>
<rect x="716.5" y="158.3" width="6" height="8" rx="1" fill="url(#windowGlow)" opacity="0.7216652463291143"/>
<rect x="730.5" y="158.3" width="6" height="8" rx="1" fill="url(#windowGlow)" opacity="0.9843953445015453"/>
<rect x="688.5" y="173.3" width="6" height="8" rx="1" fill="url(#windowGlow)" opacity="0.7763890811597878"/>
<rect x="702.5" y="173.3" width="6" height="8" rx="1" fill="url(#windowGlow)" opacity="0.9659221646682927"/>
<rect x="716.5" y="173.3" width="6" height="8" rx="1" fill="url(#windowGlow)" opacity="0.9616881169666014"/>
<rect x="688.5" y="188.3" width="6" height="8" rx="1" fill="url(#windowGlow)" opacity="0.7159554973784626"/>
<rect x="702.5" y="188.3" width="6" height="8" rx="1" fill="url(#windowGlow)" opacity="0.9711016819677789"/>
<rect x="716.5" y="188.3" width="6" height="8" rx="1" fill="url(#windowGlow)" opacity="0.7871517098448946"/>
<rect x="730.5" y="188.3" width="6" height="8" rx="1" fill="url(#windowGlow)" opacity="0.7458513429136254"/>
<rect x="688.5" y="203.3" width="6" height="8" rx="1" fill="url(#windowGlow)" opacity="0.9915372757201721"/>
<rect x="702.5" y="203.3" width="6" height="8" rx="1" fill="url(#windowGlow)" opacity="0.7130642439765223"/>
<rect x="716.5" y="203.3" width="6" height="8" rx="1" fill="url(#windowGlow)" opacity="0.8367520320400372"/>
<rect x="730.5" y="203.3" width="6" height="8" rx="1" fill="url(#windowGlow)" opacity="0.8223201485454664"/>
<rect x="688.5" y="218.3" width="6" height="8" rx="1" fill="url(#windowGlow)" opacity="0.9293638864203188"/>
<rect x="702.5" y="218.3" width="6" height="8" rx="1" fill="url(#windowGlow)" opacity="0.7959489114563674"/>
<rect x="730.5" y="218.3" width="6" height="8" rx="1" fill="url(#windowGlow)" opacity="0.7417566950627401"/>
<rect x="702.5" y="233.3" width="6" height="8" rx="1" fill="url(#windowGlow)" opacity="0.9173637201624754"/>
<rect x="716.5" y="233.3" width="6" height="8" rx="1" fill="url(#windowGlow)" opacity="0.7691068041925815"/>
<rect x="730.5" y="233.3" width="6" height="8" rx="1" fill="url(#windowGlow)" opacity="0.9774004232033158"/>
<rect x="688.5" y="248.3" width="6" height="8" rx="1" fill="url(#windowGlow)" opacity="0.8510085040940942"/>
<rect x="702.5" y="248.3" width="6" height="8" rx="1" fill="url(#windowGlow)" opacity="0.9321736635324422"/>
<rect x="716.5" y="248.3" width="6" height="8" rx="1" fill="url(#windowGlow)" opacity="0.8361248821188345"/>
<rect x="707.5" y="284.0" width="10" height="16" rx="2" fill="url(#roof_navyRoof)" opacity="0.8"/>
<rect x="709.5" y="287.0" width="6" height="10" rx="1" fill="url(#windowGlow)" opacity="0.45"/>
<rect x="699.8" y="189.3" width="25.3" height="5" rx="1" fill="#15803d" opacity="0.7"/>
<circle cx="702.8" cy="188.3" r="2.5" fill="#fbbf24" opacity="0.85"/>
<circle cx="711.3" cy="188.3" r="2.5" fill="#a78bfa" opacity="0.85"/>
<circle cx="719.7" cy="188.3" r="2.5" fill="#fb923c" opacity="0.85"/>
<rect x="1010.9" y="230.1" width="46.9" height="69.9" rx="3" fill="url(#bldg_mint)" opacity="1"/>
<rect x="1020.3" y="221.7" width="28.1" height="8.4" rx="2" fill="url(#roof_coralRoof)" opacity="1"/>
<rect x="1038.4" y="240.1" width="6" height="8" rx="1" fill="url(#windowGlow)" opacity="0.9937660649855462"/>
<rect x="1038.4" y="255.1" width="6" height="8" rx="1" fill="url(#windowGlow)" opacity="0.9618451559738466"/>
<rect x="1029.4" y="284.0" width="10" height="16" rx="2" fill="url(#roof_navyRoof)" opacity="0.8"/>
<rect x="1031.4" y="287.0" width="6" height="10" rx="1" fill="url(#windowGlow)" opacity="0.45"/>
<path d="M322.6 285.0 Q338.0 260.8 331.9 236.6" stroke="#92400e" stroke-width="4" fill="none" stroke-linecap="round"/>
<path d="M331.9 236.6 Q322.6 226.7 316.4 228.1" stroke="#16a34a" stroke-width="2.5" fill="none" stroke-linecap="round"/>
<path d="M331.9 236.6 Q339.4 223.0 344.5 219.9" stroke="#22c55e" stroke-width="2.5" fill="none" stroke-linecap="round"/>
<path d="M331.9 236.6 Q350.1 230.6 362.2 236.6" stroke="#15803d" stroke-width="2.5" fill="none" stroke-linecap="round"/>
<path d="M331.9 236.6 Q336.6 235.4 339.7 247.1" stroke="#4ade80" stroke-width="2.5" fill="none" stroke-linecap="round"/>
<path d="M331.9 236.6 Q319.9 235.6 311.9 247.6" stroke="#16a34a" stroke-width="2.5" fill="none" stroke-linecap="round"/>
<path d="M598.9 285.0 Q612.9 254.7 607.3 224.4" stroke="#92400e" stroke-width="4" fill="none" stroke-linecap="round"/>
<path d="M607.3 224.4 Q594.4 213.0 585.8 212.6" stroke="#16a34a" stroke-width="2.5" fill="none" stroke-linecap="round"/>
<path d="M607.3 224.4 Q612.4 213.3 615.8 213.1" stroke="#22c55e" stroke-width="2.5" fill="none" stroke-linecap="round"/>
<path d="M607.3 224.4 Q623.0 218.4 633.6 224.4" stroke="#15803d" stroke-width="2.5" fill="none" stroke-linecap="round"/>
<path d="M607.3 224.4 Q612.8 223.9 616.5 236.6" stroke="#4ade80" stroke-width="2.5" fill="none" stroke-linecap="round"/>
<path d="M607.3 224.4 Q596.4 223.0 589.1 234.4" stroke="#16a34a" stroke-width="2.5" fill="none" stroke-linecap="round"/>
<path d="M879.8 285.0 Q893.6 259.8 888.1 234.6" stroke="#92400e" stroke-width="4" fill="none" stroke-linecap="round"/>
<path d="M888.1 234.6 Q877.0 224.0 869.6 224.5" stroke="#16a34a" stroke-width="2.5" fill="none" stroke-linecap="round"/>
<path d="M888.1 234.6 Q895.5 221.2 900.4 218.3" stroke="#22c55e" stroke-width="2.5" fill="none" stroke-linecap="round"/>
<path d="M888.1 234.6 Q906.7 228.6 919.1 234.6" stroke="#15803d" stroke-width="2.5" fill="none" stroke-linecap="round"/>
<path d="M888.1 234.6 Q895.6 236.2 900.6 251.2" stroke="#4ade80" stroke-width="2.5" fill="none" stroke-linecap="round"/>
<path d="M888.1 234.6 Q874.9 234.1 866.2 246.7" stroke="#16a34a" stroke-width="2.5" fill="none" stroke-linecap="round"/>
<path d="M85.8 285.0 Q104.3 257.6 96.9 230.3" stroke="#92400e" stroke-width="4" fill="none" stroke-linecap="round"/>
<path d="M96.9 230.3 Q86.9 220.1 80.2 221.1" stroke="#16a34a" stroke-width="2.5" fill="none" stroke-linecap="round"/>
<path d="M96.9 230.3 Q101.5 219.7 104.6 220.1" stroke="#22c55e" stroke-width="2.5" fill="none" stroke-linecap="round"/>
<path d="M96.9 230.3 Q114.1 224.3 125.6 230.3" stroke="#15803d" stroke-width="2.5" fill="none" stroke-linecap="round"/>
<path d="M96.9 230.3 Q104.0 231.4 108.7 246.0" stroke="#4ade80" stroke-width="2.5" fill="none" stroke-linecap="round"/>
<path d="M96.9 230.3 Q86.7 228.5 79.9 239.6" stroke="#16a34a" stroke-width="2.5" fill="none" stroke-linecap="round"/>
<path d="M1107.8 285.0 Q1128.4 261.5 1120.2 237.9" stroke="#92400e" stroke-width="4" fill="none" stroke-linecap="round"/>
<path d="M1120.2 237.9 Q1107.4 226.6 1099.0 226.3" stroke="#16a34a" stroke-width="2.5" fill="none" stroke-linecap="round"/>
<path d="M1120.2 237.9 Q1125.5 226.5 1129.1 226.1" stroke="#22c55e" stroke-width="2.5" fill="none" stroke-linecap="round"/>
<path d="M1120.2 237.9 Q1133.4 231.9 1142.2 237.9" stroke="#15803d" stroke-width="2.5" fill="none" stroke-linecap="round"/>
<path d="M1120.2 237.9 Q1128.0 239.8 1133.2 255.2" stroke="#4ade80" stroke-width="2.5" fill="none" stroke-linecap="round"/>
<path d="M1120.2 237.9 Q1107.5 237.2 1099.1 249.5" stroke="#16a34a" stroke-width="2.5" fill="none" stroke-linecap="round"/>
<path d="M600.7 285.0 Q629.0 260.6 617.7 236.2" stroke="#92400e" stroke-width="4" fill="none" stroke-linecap="round"/>
<path d="M617.7 236.2 Q607.9 226.1 601.4 227.2" stroke="#16a34a" stroke-width="2.5" fill="none" stroke-linecap="round"/>
<path d="M617.7 236.2 Q625.2 222.6 630.2 219.6" stroke="#22c55e" stroke-width="2.5" fill="none" stroke-linecap="round"/>
<path d="M617.7 236.2 Q637.6 230.2 650.9 236.2" stroke="#15803d" stroke-width="2.5" fill="none" stroke-linecap="round"/>
<path d="M617.7 236.2 Q623.6 236.1 627.5 249.2" stroke="#4ade80" stroke-width="2.5" fill="none" stroke-linecap="round"/>
<path d="M617.7 236.2 Q606.7 234.8 599.4 246.3" stroke="#16a34a" stroke-width="2.5" fill="none" stroke-linecap="round"/>
<path d="M876.2 285.0 Q891.3 261.1 885.3 237.1" stroke="#92400e" stroke-width="4" fill="none" stroke-linecap="round"/>
<path d="M885.3 237.1 Q871.9 225.6 863.0 224.9" stroke="#16a34a" stroke-width="2.5" fill="none" stroke-linecap="round"/>
<path d="M885.3 237.1 Q890.4 226.0 893.8 225.8" stroke="#22c55e" stroke-width="2.5" fill="none" stroke-linecap="round"/>
<path d="M885.3 237.1 Q900.1 231.1 910.0 237.1" stroke="#15803d" stroke-width="2.5" fill="none" stroke-linecap="round"/>
<path d="M885.3 237.1 Q889.9 235.8 892.9 247.3" stroke="#4ade80" stroke-width="2.5" fill="none" stroke-linecap="round"/>
<path d="M885.3 237.1 Q872.5 236.5 864.0 248.8" stroke="#16a34a" stroke-width="2.5" fill="none" stroke-linecap="round"/>
<path d="M820.5 285.0 Q838.5 258.7 831.3 232.3" stroke="#92400e" stroke-width="4" fill="none" stroke-linecap="round"/>
<path d="M831.3 232.3 Q820.6 221.9 813.5 222.6" stroke="#16a34a" stroke-width="2.5" fill="none" stroke-linecap="round"/>
<path d="M831.3 232.3 Q838.3 219.3 843.0 216.9" stroke="#22c55e" stroke-width="2.5" fill="none" stroke-linecap="round"/>
<path d="M831.3 232.3 Q845.4 226.3 854.8 232.3" stroke="#15803d" stroke-width="2.5" fill="none" stroke-linecap="round"/>
<path d="M831.3 232.3 Q838.0 233.1 842.5 247.2" stroke="#4ade80" stroke-width="2.5" fill="none" stroke-linecap="round"/>
<path d="M831.3 232.3 Q818.6 231.6 810.1 244.0" stroke="#16a34a" stroke-width="2.5" fill="none" stroke-linecap="round"/>
<path d="M63.8 285.0 Q89.0 261.2 78.9 237.3" stroke="#92400e" stroke-width="4" fill="none" stroke-linecap="round"/>
<path d="M78.9 237.3 Q67.4 226.5 59.7 226.7" stroke="#16a34a" stroke-width="2.5" fill="none" stroke-linecap="round"/>
<path d="M78.9 237.3 Q85.7 224.5 90.3 222.3" stroke="#22c55e" stroke-width="2.5" fill="none" stroke-linecap="round"/>
<path d="M78.9 237.3 Q97.7 231.3 110.2 237.3" stroke="#15803d" stroke-width="2.5" fill="none" stroke-linecap="round"/>
<path d="M78.9 237.3 Q84.6 237.0 88.4 249.8" stroke="#4ade80" stroke-width="2.5" fill="none" stroke-linecap="round"/>
<path d="M78.9 237.3 Q66.2 236.6 57.7 249.0" stroke="#16a34a" stroke-width="2.5" fill="none" stroke-linecap="round"/>
<path d="M1005.9 285.0 Q1033.7 263.3 1022.6 241.6" stroke="#92400e" stroke-width="4" fill="none" stroke-linecap="round"/>
<path d="M1022.6 241.6 Q1010.4 230.5 1002.2 230.4" stroke="#16a34a" stroke-width="2.5" fill="none" stroke-linecap="round"/>
<path d="M1022.6 241.6 Q1028.6 229.6 1032.6 228.4" stroke="#22c55e" stroke-width="2.5" fill="none" stroke-linecap="round"/>
<path d="M1022.6 241.6 Q1037.1 235.6 1046.8 241.6" stroke="#15803d" stroke-width="2.5" fill="none" stroke-linecap="round"/>
<path d="M1022.6 241.6 Q1029.8 242.8 1034.5 257.5" stroke="#4ade80" stroke-width="2.5" fill="none" stroke-linecap="round"/>
<path d="M1022.6 241.6 Q1010.1 240.8 1001.8 253.1" stroke="#16a34a" stroke-width="2.5" fill="none" stroke-linecap="round"/>
<rect x="0" y="282" width="1200" height="18" fill="url(#groundGrad)"/>
<line x1="1008.2" y1="282.0" x2="1008.2" y2="249.4" stroke="#92400e" stroke-width="2"/>
<circle cx="1008.2" cy="249.4" r="4" fill="#fef08a" opacity="0.6"/>
<circle cx="1008.2" cy="249.4" r="8" fill="#fef08a" opacity="0.15" filter="url(#softGlow)"/>
<ellipse cx="667.4" cy="282.0" rx="6.9" ry="4.8" fill="#22c55e" opacity="0.6"/>
<ellipse cx="92.1" cy="282.0" rx="5.9" ry="4.1" fill="#22c55e" opacity="0.6"/>
<ellipse cx="134.6" cy="282.0" rx="4.5" ry="3.2" fill="#22c55e" opacity="0.6"/>
</svg>