<svg xmlns="http://www.w3.org/2000/svg" viewBox="0 0 1200 400" width="1200" height="400">
<defs>
<linearGradient id="bg" x1="0" y1="0" x2="0" y2="1"><stop offset="0%" stop-color="#a16207"/><stop offset="100%" stop-color="#c2410c"/></linearGradient>
<linearGradient id="warm" x1="0" y1="0" x2="1" y2="1"><stop offset="0%" stop-color="#808c9f" stop-opacity="0.18"/><stop offset="100%" stop-color="#808c9f" stop-opacity="0.06"/></linearGradient>
</defs>
<rect width="1200" height="400" fill="url(#bg)"/>
<path d="M0 400 L0 238.35224421642812 C60.0 235.0, 90.0 211.7, 150.0 216.6 C210.0 214.7, 240.0 237.8, 300.0 233.4 C360.0 224.7, 390.0 211.0, 450.0 220.6 C510.0 219.2, 540.0 251.9, 600.0 250.4 C660.0 259.9, 690.0 228.7, 750.0 237.0 C810.0 239.2, 840.0 204.0, 900.0 211.5 C960.0 203.9, 990.0 254.2, 1050.0 244.6 C1110.0 254.0, 1140.0 250.7, 1200.0 245.7 L1200 400 Z" fill="#b64d0a" opacity="0.45"/>
<path d="M0 400 L0 264.55401153773244 C52.5 271.0, 97.5 248.0, 150.0 251.0 C202.5 246.0, 247.5 267.5, 300.0 265.2 C352.5 265.3, 397.5 261.2, 450.0 255.5 C502.5 252.2, 547.5 263.7, 600.0 259.4 C652.5 265.3, 697.5 253.0, 750.0 249.2 C802.5 249.3, 847.5 257.9, 900.0 263.3 C952.5 269.1, 997.5 277.0, 1050.0 270.5 C1102.5 266.1, 1147.5 268.6, 1200.0 271.2 L1200 400 Z" fill="#c2410c" opacity="0.3"/>
<rect x="1078.0" y="337.2" width="28.8" height="62.8" rx="6.3" fill="#699e0d" opacity="0.64"/>
<rect x="795.0" y="255.0" width="28.7" height="145.0" rx="7.9" fill="#877f0d" opacity="0.65"/>
<rect x="800.0" y="287.0" width="4" height="5" rx="0.5" fill="#a16207" opacity="0.6"/>
<rect x="800.0" y="309.0" width="4" height="5" rx="0.5" fill="#a16207" opacity="0.6"/>
<rect x="800.0" y="331.0" width="4" height="5" rx="0.5" fill="#a16207" opacity="0.6"/>
<rect x="795.6" y="276.2" width="28.6" height="123.8" rx="5.0" fill="#91750d" opacity="0.54"/>
<rect x="1046.2" y="252.0" width="47.3" height="148.0" rx="4.9" fill="#798d0d" opacity="0.62"/>
<rect x="189.8" y="276.8" width="14.1" height="123.2" rx="5.0" fill="#8b7b0d" opacity="0.51"/>
<rect x="194.8" y="286.8" width="4" height="5" rx="0.5" fill="#a16207" opacity="0.6"/>
<rect x="194.8" y="308.8" width="4" height="5" rx="0.5" fill="#a16207" opacity="0.6"/>
<rect x="194.8" y="330.8" width="4" height="5" rx="0.5" fill="#a16207" opacity="0.6"/>
<rect x="194.8" y="352.8" width="4" height="5" rx="0.5" fill="#a16207" opacity="0.6"/>
<rect x="919.4" y="243.8" width="36.1" height="156.2" rx="5.0" fill="#8b7b0d" opacity="0.52"/>
<rect x="924.4" y="253.8" width="4" height="5" rx="0.5" fill="#a16207" opacity="0.6"/>
<rect x="936.5" y="253.8" width="4" height="5" rx="0.5" fill="#a16207" opacity="0.6"/>
<rect x="924.4" y="275.8" width="4" height="5" rx="0.5" fill="#a16207" opacity="0.6"/>
<rect x="924.4" y="297.8" width="4" height="5" rx="0.5" fill="#a16207" opacity="0.6"/>
<rect x="936.5" y="297.8" width="4" height="5" rx="0.5" fill="#a16207" opacity="0.6"/>
<rect x="936.5" y="319.8" width="4" height="5" rx="0.5" fill="#a16207" opacity="0.6"/>
<rect x="296.5" y="247.4" width="48.7" height="152.6" rx="7.7" fill="#90760d" opacity="0.78"/>
<rect x="637.3" y="320.9" width="49.6" height="79.1" rx="3.9" fill="#8c7a0d" opacity="0.65"/>
<rect x="345.1" y="307.4" width="38.5" height="92.6" rx="3.6" fill="#73940d" opacity="0.85"/>
<rect x="350.1" y="317.4" width="4" height="5" rx="0.5" fill="#a16207" opacity="0.6"/>
<rect x="363.0" y="317.4" width="4" height="5" rx="0.5" fill="#a16207" opacity="0.6"/>
<rect x="363.0" y="339.4" width="4" height="5" rx="0.5" fill="#a16207" opacity="0.6"/>
<rect x="350.1" y="361.4" width="4" height="5" rx="0.5" fill="#a16207" opacity="0.6"/>
<rect x="386.2" y="249.2" width="14.5" height="150.8" rx="3.8" fill="#6a9e0d" opacity="0.80"/>
<rect x="357.3" y="279.5" width="23.9" height="120.5" rx="5.1" fill="#7f870d" opacity="0.68"/>
<rect x="362.3" y="289.5" width="4" height="5" rx="0.5" fill="#a16207" opacity="0.6"/>
<rect x="362.3" y="311.5" width="4" height="5" rx="0.5" fill="#a16207" opacity="0.6"/>
<rect x="362.3" y="333.5" width="4" height="5" rx="0.5" fill="#a16207" opacity="0.6"/>
<rect x="459.6" y="251.5" width="15.1" height="148.5" rx="8.0" fill="#6d9a0d" opacity="0.57"/>
<rect x="464.6" y="261.5" width="4" height="5" rx="0.5" fill="#a16207" opacity="0.6"/>
<rect x="464.6" y="305.5" width="4" height="5" rx="0.5" fill="#a16207" opacity="0.6"/>
<rect x="464.6" y="327.5" width="4" height="5" rx="0.5" fill="#a16207" opacity="0.6"/>
<rect x="1080.0" y="308.7" width="13.9" height="91.3" rx="7.3" fill="#8e780d" opacity="0.83"/>
<rect x="526.5" y="346.2" width="22.4" height="53.8" rx="6.5" fill="#996d0c" opacity="0.53"/>
<rect x="957.4" y="340.4" width="29.8" height="59.6" rx="7.1" fill="#75920d" opacity="0.71"/>
<polygon points="375.8,149.5 371.3,157.5 380.4,157.5" fill="#65a30d" opacity="0.26"/>
<polygon points="469.5,105.0 466.0,110.9 472.9,110.9" fill="#65a30d" opacity="0.24"/>
<polygon points="64.1,88.3 55.2,103.9 73.1,103.9" fill="#a16207" opacity="0.36"/>
<polygon points="1118.5,163.3 1114.5,170.1 1122.4,170.1" fill="#65a30d" opacity="0.36"/>
<polygon points="1121.7,189.6 1114.6,202.0 1128.9,202.0" fill="#a16207" opacity="0.37"/>
<polygon points="467.1,30.8 461.1,41.1 473.0,41.1" fill="#a16207" opacity="0.42"/>
<polygon points="170.1,107.9 161.3,123.0 178.8,123.0" fill="#a16207" opacity="0.29"/>
<polygon points="416.5,-4.7 410.4,5.9 422.6,5.9" fill="#a16207" opacity="0.28"/>
<polygon points="75.4,91.3 68.4,103.4 82.4,103.4" fill="#a16207" opacity="0.16"/>
<rect width="1200" height="400" fill="url(#warm)"/>
<rect width="1200" height="400" fill="#a16207" opacity="0.43"/>
</svg>