<svg xmlns="http://www.w3.org/2000/svg" viewBox="0 0 1200 300" width="1200" height="300">
<defs>
<linearGradient id="skyGrad" x1="0" y1="0" x2="0" y2="1">
<stop offset="0%" stop-color="#818cf8"/>
<stop offset="20%" stop-color="#c4b5fd"/>
<stop offset="38%" stop-color="#fda4af"/>
<stop offset="55%" stop-color="#fdba74"/>
<stop offset="75%" stop-color="#fef08a"/>
<stop offset="100%" stop-color="#fef9c3"/>
</linearGradient>
<linearGradient id="bldg_coral" x1="0" y1="0" x2="0" y2="1"><stop offset="0%" stop-color="#fecaca"/><stop offset="100%" stop-color="#fca5a5"/></linearGradient>
<linearGradient id="bldg_teal" x1="0" y1="0" x2="0" y2="1"><stop offset="0%" stop-color="#99f6e4"/><stop offset="100%" stop-color="#5eead4"/></linearGradient>
<linearGradient id="bldg_amber" x1="0" y1="0" x2="0" y2="1"><stop offset="0%" stop-color="#fde68a"/><stop offset="100%" stop-color="#fcd34d"/></linearGradient>
<linearGradient id="bldg_lavender" x1="0" y1="0" x2="0" y2="1"><stop offset="0%" stop-color="#ddd6fe"/><stop offset="100%" stop-color="#c4b5fd"/></linearGradient>
<linearGradient id="bldg_blue" x1="0" y1="0" x2="0" y2="1"><stop offset="0%" stop-color="#bfdbfe"/><stop offset="100%" stop-color="#93c5fd"/></linearGradient>
<linearGradient id="bldg_mint" x1="0" y1="0" x2="0" y2="1"><stop offset="0%" stop-color="#a7f3d0"/><stop offset="100%" stop-color="#6ee7b7"/></linearGradient>
<linearGradient id="bldg_rose" x1="0" y1="0" x2="0" y2="1"><stop offset="0%" stop-color="#fecdd3"/><stop offset="100%" stop-color="#fda4af"/></linearGradient>
<linearGradient id="bldg_sky" x1="0" y1="0" x2="0" y2="1"><stop offset="0%" stop-color="#bae6fd"/><stop offset="100%" stop-color="#7dd3fc"/></linearGradient>
<linearGradient id="roof_navyRoof" x1="0" y1="0" x2="0" y2="1"><stop offset="0%" stop-color="#4338ca"/><stop offset="100%" stop-color="#3730a3"/></linearGradient>
<linearGradient id="roof_coralRoof" x1="0" y1="0" x2="0" y2="1"><stop offset="0%" stop-color="#f87171"/><stop offset="100%" stop-color="#ef4444"/></linearGradient>
<linearGradient id="roof_tealRoof" x1="0" y1="0" x2="0" y2="1"><stop offset="0%" stop-color="#2dd4bf"/><stop offset="100%" stop-color="#14b8a6"/></linearGradient>
<radialGradient id="windowGlow" cx="50%" cy="50%" r="50%"><stop offset="0%" stop-color="#fef08a"/><stop offset="60%" stop-color="#fbbf24"/><stop offset="100%" stop-color="#f59e0b"/></radialGradient>
<linearGradient id="hillFar" x1="0" y1="0" x2="0" y2="1"><stop offset="0%" stop-color="#c4b5fd"/><stop offset="100%" stop-color="#a5b4fc"/></linearGradient>
<linearGradient id="hillMid" x1="0" y1="0" x2="0" y2="1"><stop offset="0%" stop-color="#86efac"/><stop offset="100%" stop-color="#4ade80"/></linearGradient>
<linearGradient id="hillNear" x1="0" y1="0" x2="0" y2="1"><stop offset="0%" stop-color="#34d399"/><stop offset="100%" stop-color="#10b981"/></linearGradient>
<linearGradient id="hillDesertFar" x1="0" y1="0" x2="0" y2="1"><stop offset="0%" stop-color="#fde68a"/><stop offset="100%" stop-color="#fcd34d"/></linearGradient>
<linearGradient id="hillDesertMid" x1="0" y1="0" x2="0" y2="1"><stop offset="0%" stop-color="#fcd34d"/><stop offset="100%" stop-color="#fbbf24"/></linearGradient>
<linearGradient id="hillDesertNear" x1="0" y1="0" x2="0" y2="1"><stop offset="0%" stop-color="#fbbf24"/><stop offset="100%" stop-color="#f59e0b"/></linearGradient>
<linearGradient id="groundGrad" x1="0" y1="0" x2="0" y2="1"><stop offset="0%" stop-color="#fef3c7"/><stop offset="100%" stop-color="#fde68a"/></linearGradient>
<linearGradient id="waterGrad" x1="0" y1="0" x2="0" y2="1"><stop offset="0%" stop-color="#bfdbfe"/><stop offset="100%" stop-color="#93c5fd"/></linearGradient>
<filter id="softGlow" x="-50%" y="-50%" width="200%" height="200%"><feGaussianBlur in="SourceGraphic" stdDeviation="12"/></filter>
</defs>
<rect width="1200" height="300" fill="url(#skyGrad)"/>
<circle cx="935.1" cy="54.4" r="45" fill="#fef08a" opacity="0.12" filter="url(#softGlow)"/>
<circle cx="935.1" cy="54.4" r="30" fill="#fde68a" opacity="0.18" filter="url(#softGlow)"/>
<circle cx="935.1" cy="54.4" r="16" fill="#fef9c3" opacity="0.25" filter="url(#softGlow)"/>
<ellipse cx="880.3" cy="47.8" rx="36.7" ry="12.9" fill="white" opacity="0.5"/>
<ellipse cx="857.3" cy="51.5" rx="25.7" ry="10.1" fill="white" opacity="0.4"/>
<ellipse cx="900.5" cy="50.6" rx="29.4" ry="11.0" fill="white" opacity="0.4"/>
<ellipse cx="834.8" cy="48.2" rx="51.0" ry="17.9" fill="white" opacity="0.6"/>
<ellipse cx="802.9" cy="53.3" rx="35.7" ry="14.0" fill="white" opacity="0.5"/>
<ellipse cx="862.9" cy="52.1" rx="40.8" ry="15.3" fill="white" opacity="0.5"/>
<ellipse cx="223.5" cy="18.2" rx="50.2" ry="17.6" fill="white" opacity="0.5"/>
<ellipse cx="192.1" cy="23.2" rx="35.2" ry="13.8" fill="white" opacity="0.4"/>
<ellipse cx="251.1" cy="22.0" rx="40.2" ry="15.1" fill="white" opacity="0.4"/>
<path d="M0 300 L0.0 190.0 C136.4 190.0, 136.4 182.3, 272.8 182.3 C415.1 182.3, 415.1 192.2, 557.3 192.2 C716.4 192.2, 716.4 178.9, 875.5 178.9 C1037.8 178.9, 1037.8 191.0, 1200.0 191.0 L1200 300 Z" fill="url(#hillFar)" opacity="0.5"/>
<path d="M0 300 L0.0 215.5 C127.1 215.5, 127.1 211.2, 254.2 211.2 C458.1 211.2, 458.1 203.5, 662.0 203.5 C797.6 203.5, 797.6 215.3, 933.3 215.3 C1066.6 215.3, 1066.6 219.4, 1200.0 219.4 L1200 300 Z" fill="url(#hillMid)" opacity="0.7"/>
<path d="M0 300 L0.0 227.6 C92.6 227.6, 92.6 235.5, 185.1 235.5 C362.4 235.5, 362.4 236.8, 539.7 236.8 C655.4 236.8, 655.4 232.7, 771.1 232.7 C850.8 232.7, 850.8 232.1, 930.6 232.1 C1065.3 232.1, 1065.3 236.1, 1200.0 236.1 L1200 300 Z" fill="url(#hillNear)" opacity="1"/>
<rect x="229.2" y="218.1" width="61.3" height="81.9" rx="3" fill="url(#bldg_lavender)" opacity="0.7"/>
<polygon points="229.2,218.1 259.9,202.7 290.5,218.1" fill="url(#roof_coralRoof)" opacity="0.7"/>
<rect x="242.9" y="228.1" width="6" height="8" rx="1" fill="url(#windowGlow)" opacity="0.9167288146059628"/>
<rect x="256.9" y="228.1" width="6" height="8" rx="1" fill="url(#windowGlow)" opacity="0.8988685505459404"/>
<rect x="242.9" y="243.1" width="6" height="8" rx="1" fill="url(#windowGlow)" opacity="0.8756041470335816"/>
<rect x="256.9" y="243.1" width="6" height="8" rx="1" fill="url(#windowGlow)" opacity="0.8919332312848107"/>
<rect x="270.9" y="258.1" width="6" height="8" rx="1" fill="url(#windowGlow)" opacity="0.9656726957604627"/>
<rect x="540.3" y="226.7" width="85.8" height="73.3" rx="3" fill="url(#bldg_blue)" opacity="0.7"/>
<polygon points="540.3,226.7 583.2,208.1 626.1,226.7" fill="url(#roof_tealRoof)" opacity="0.7"/>
<rect x="559.2" y="236.7" width="6" height="8" rx="1" fill="url(#windowGlow)" opacity="0.8633214308709471"/>
<rect x="573.2" y="236.7" width="6" height="8" rx="1" fill="url(#windowGlow)" opacity="0.9820851872126037"/>
<rect x="587.2" y="236.7" width="6" height="8" rx="1" fill="url(#windowGlow)" opacity="0.7832515713215114"/>
<rect x="601.2" y="236.7" width="6" height="8" rx="1" fill="url(#windowGlow)" opacity="0.7325453556294298"/>
<rect x="559.2" y="251.7" width="6" height="8" rx="1" fill="url(#windowGlow)" opacity="0.8529132495414993"/>
<rect x="573.2" y="251.7" width="6" height="8" rx="1" fill="url(#windowGlow)" opacity="0.9538737988350325"/>
<rect x="601.2" y="251.7" width="6" height="8" rx="1" fill="url(#windowGlow)" opacity="0.9019359506210014"/>
<rect x="977.5" y="193.1" width="59.3" height="106.9" rx="3" fill="url(#bldg_mint)" opacity="0.7"/>
<polygon points="977.5,193.1 1007.2,179.9 1036.9,193.1" fill="url(#roof_navyRoof)" opacity="0.7"/>
<rect x="990.2" y="203.1" width="6" height="8" rx="1" fill="url(#windowGlow)" opacity="0.9161115554702056"/>
<rect x="1004.2" y="203.1" width="6" height="8" rx="1" fill="url(#windowGlow)" opacity="0.7395550276802643"/>
<rect x="1018.2" y="203.1" width="6" height="8" rx="1" fill="url(#windowGlow)" opacity="0.7246319758354834"/>
<rect x="990.2" y="218.1" width="6" height="8" rx="1" fill="url(#windowGlow)" opacity="0.7224681587528754"/>
<rect x="1018.2" y="218.1" width="6" height="8" rx="1" fill="url(#windowGlow)" opacity="0.7654665616645787"/>
<rect x="990.2" y="233.1" width="6" height="8" rx="1" fill="url(#windowGlow)" opacity="0.9702982769675079"/>
<rect x="1004.2" y="233.1" width="6" height="8" rx="1" fill="url(#windowGlow)" opacity="0.7383463557056833"/>
<rect x="1004.2" y="248.1" width="6" height="8" rx="1" fill="url(#windowGlow)" opacity="0.7194484167822862"/>
<rect x="1018.2" y="248.1" width="6" height="8" rx="1" fill="url(#windowGlow)" opacity="0.7522043448184637"/>
<rect x="119.8" y="190.8" width="64.6" height="109.2" rx="3" fill="url(#bldg_rose)" opacity="0.85"/>
<rect x="119.8" y="187.8" width="64.6" height="3" rx="1" fill="url(#roof_coralRoof)" opacity="0.85"/>
<rect x="135.2" y="200.8" width="6" height="8" rx="1" fill="url(#windowGlow)" opacity="0.7121916705333589"/>
<rect x="149.2" y="200.8" width="6" height="8" rx="1" fill="url(#windowGlow)" opacity="0.8580663026580895"/>
<rect x="135.2" y="215.8" width="6" height="8" rx="1" fill="url(#windowGlow)" opacity="0.9541036107829323"/>
<rect x="163.2" y="215.8" width="6" height="8" rx="1" fill="url(#windowGlow)" opacity="0.7945831870634962"/>
<rect x="135.2" y="230.8" width="6" height="8" rx="1" fill="url(#windowGlow)" opacity="0.8322680664399024"/>
<rect x="149.2" y="230.8" width="6" height="8" rx="1" fill="url(#windowGlow)" opacity="0.8670589160486398"/>
<rect x="163.2" y="230.8" width="6" height="8" rx="1" fill="url(#windowGlow)" opacity="0.9795228037887824"/>
<rect x="135.2" y="245.8" width="6" height="8" rx="1" fill="url(#windowGlow)" opacity="0.729201473448985"/>
<rect x="149.2" y="245.8" width="6" height="8" rx="1" fill="url(#windowGlow)" opacity="0.9589292013826449"/>
<rect x="163.2" y="245.8" width="6" height="8" rx="1" fill="url(#windowGlow)" opacity="0.9186910562769933"/>
<rect x="135.2" y="260.8" width="6" height="8" rx="1" fill="url(#windowGlow)" opacity="0.8074346526560534"/>
<rect x="149.2" y="260.8" width="6" height="8" rx="1" fill="url(#windowGlow)" opacity="0.8896469174370387"/>
<rect x="163.2" y="260.8" width="6" height="8" rx="1" fill="url(#windowGlow)" opacity="0.8128433321662448"/>
<rect x="447.5" y="168.9" width="55.5" height="131.1" rx="3" fill="url(#bldg_sky)" opacity="0.85"/>
<polygon points="447.5,168.9 475.3,154.8 503.0,168.9" fill="url(#roof_tealRoof)" opacity="0.85"/>
<rect x="465.3" y="178.9" width="6" height="8" rx="1" fill="url(#windowGlow)" opacity="0.9699440010217688"/>
<rect x="479.3" y="178.9" width="6" height="8" rx="1" fill="url(#windowGlow)" opacity="0.862740478926683"/>
<rect x="465.3" y="193.9" width="6" height="8" rx="1" fill="url(#windowGlow)" opacity="0.904644436205106"/>
<rect x="465.3" y="208.9" width="6" height="8" rx="1" fill="url(#windowGlow)" opacity="0.8175223357125755"/>
<rect x="479.3" y="208.9" width="6" height="8" rx="1" fill="url(#windowGlow)" opacity="0.9002797147726079"/>
<rect x="465.3" y="223.9" width="6" height="8" rx="1" fill="url(#windowGlow)" opacity="0.7322569367160354"/>
<rect x="479.3" y="223.9" width="6" height="8" rx="1" fill="url(#windowGlow)" opacity="0.8819580909246383"/>
<rect x="465.3" y="238.9" width="6" height="8" rx="1" fill="url(#windowGlow)" opacity="0.738006122660826"/>
<rect x="479.3" y="238.9" width="6" height="8" rx="1" fill="url(#windowGlow)" opacity="0.7534173549867316"/>
<rect x="465.3" y="253.9" width="6" height="8" rx="1" fill="url(#windowGlow)" opacity="0.8815111407458368"/>
<rect x="479.3" y="253.9" width="6" height="8" rx="1" fill="url(#windowGlow)" opacity="0.9887817957386289"/>
<rect x="680.2" y="203.6" width="75.4" height="96.4" rx="3" fill="url(#bldg_coral)" opacity="0.85"/>
<polygon points="680.2,203.6 717.8,178.0 755.5,203.6" fill="url(#roof_navyRoof)" opacity="0.85"/>
<rect x="693.8" y="213.6" width="6" height="8" rx="1" fill="url(#windowGlow)" opacity="0.7961407451406777"/>
<rect x="707.8" y="213.6" width="6" height="8" rx="1" fill="url(#windowGlow)" opacity="0.972633471560028"/>
<rect x="721.8" y="213.6" width="6" height="8" rx="1" fill="url(#windowGlow)" opacity="0.9064484310366439"/>
<rect x="735.8" y="213.6" width="6" height="8" rx="1" fill="url(#windowGlow)" opacity="0.8063470474939546"/>
<rect x="693.8" y="228.6" width="6" height="8" rx="1" fill="url(#windowGlow)" opacity="0.9676889027784061"/>
<rect x="721.8" y="228.6" width="6" height="8" rx="1" fill="url(#windowGlow)" opacity="0.9448076427657193"/>
<rect x="735.8" y="228.6" width="6" height="8" rx="1" fill="url(#windowGlow)" opacity="0.7967168382353693"/>
<rect x="693.8" y="243.6" width="6" height="8" rx="1" fill="url(#windowGlow)" opacity="0.8894805377765933"/>
<rect x="707.8" y="243.6" width="6" height="8" rx="1" fill="url(#windowGlow)" opacity="0.8376357835892754"/>
<rect x="735.8" y="243.6" width="6" height="8" rx="1" fill="url(#windowGlow)" opacity="0.8207913462635089"/>
<rect x="707.8" y="258.6" width="6" height="8" rx="1" fill="url(#windowGlow)" opacity="0.8707749830888467"/>
<rect x="721.8" y="258.6" width="6" height="8" rx="1" fill="url(#windowGlow)" opacity="0.7194623046179591"/>
<rect x="735.8" y="258.6" width="6" height="8" rx="1" fill="url(#windowGlow)" opacity="0.8322480462641678"/>
<path d="M717.8 237.3 L748.0 237.3 L745.0 243.3 L720.8 243.3 Z" fill="url(#roof_tealRoof)" opacity="0.68"/>
<rect x="992.7" y="167.4" width="63.6" height="132.6" rx="3" fill="url(#bldg_teal)" opacity="0.85"/>
<rect x="992.7" y="164.4" width="63.6" height="3" rx="1" fill="url(#roof_coralRoof)" opacity="0.85"/>
<rect x="1007.5" y="177.4" width="6" height="8" rx="1" fill="url(#windowGlow)" opacity="0.9687602295860462"/>
<rect x="1021.5" y="177.4" width="6" height="8" rx="1" fill="url(#windowGlow)" opacity="0.8739533433569378"/>
<rect x="1007.5" y="192.4" width="6" height="8" rx="1" fill="url(#windowGlow)" opacity="0.9525247003662048"/>
<rect x="1021.5" y="192.4" width="6" height="8" rx="1" fill="url(#windowGlow)" opacity="0.8482061097622877"/>
<rect x="1035.5" y="192.4" width="6" height="8" rx="1" fill="url(#windowGlow)" opacity="0.8995464996898297"/>
<rect x="1007.5" y="207.4" width="6" height="8" rx="1" fill="url(#windowGlow)" opacity="0.7488904818654482"/>
<rect x="1021.5" y="207.4" width="6" height="8" rx="1" fill="url(#windowGlow)" opacity="0.8559015370234389"/>
<rect x="1007.5" y="222.4" width="6" height="8" rx="1" fill="url(#windowGlow)" opacity="0.8644971615469536"/>
<rect x="1021.5" y="222.4" width="6" height="8" rx="1" fill="url(#windowGlow)" opacity="0.8344831647046297"/>
<rect x="1035.5" y="237.4" width="6" height="8" rx="1" fill="url(#windowGlow)" opacity="0.7913085373078047"/>
<rect x="1007.5" y="252.4" width="6" height="8" rx="1" fill="url(#windowGlow)" opacity="0.8935590603824514"/>
<rect x="1021.5" y="252.4" width="6" height="8" rx="1" fill="url(#windowGlow)" opacity="0.9852958627908005"/>
<rect x="1035.5" y="252.4" width="6" height="8" rx="1" fill="url(#windowGlow)" opacity="0.8205179809688208"/>
<rect x="235.6" y="183.7" width="37.3" height="116.3" rx="3" fill="url(#bldg_amber)" opacity="1"/>
<rect x="235.6" y="180.7" width="37.3" height="3" rx="1" fill="url(#roof_tealRoof)" opacity="1"/>
<rect x="251.2" y="223.7" width="6" height="8" rx="1" fill="url(#windowGlow)" opacity="0.9437280704005286"/>
<rect x="251.2" y="238.7" width="6" height="8" rx="1" fill="url(#windowGlow)" opacity="0.9090792130255508"/>
<rect x="249.2" y="284.0" width="10" height="16" rx="2" fill="url(#roof_navyRoof)" opacity="0.8"/>
<rect x="251.2" y="287.0" width="6" height="10" rx="1" fill="url(#windowGlow)" opacity="0.45"/>
<rect x="247.7" y="224.7" width="13.0" height="5" rx="1" fill="#15803d" opacity="0.7"/>
<circle cx="250.7" cy="223.7" r="2.5" fill="#f87171" opacity="0.85"/>
<circle cx="255.0" cy="223.7" r="2.5" fill="#a78bfa" opacity="0.85"/>
<circle cx="259.4" cy="223.7" r="2.5" fill="#fbbf24" opacity="0.85"/>
<rect x="553.6" y="238.4" width="40.3" height="61.6" rx="3" fill="url(#bldg_lavender)" opacity="1"/>
<polygon points="553.6,238.4 573.7,225.1 593.9,238.4" fill="url(#roof_navyRoof)" opacity="1"/>
<rect x="568.7" y="284.0" width="10" height="16" rx="2" fill="url(#roof_navyRoof)" opacity="0.8"/>
<rect x="570.7" y="287.0" width="6" height="10" rx="1" fill="url(#windowGlow)" opacity="0.45"/>
<rect x="914.4" y="234.9" width="68.3" height="65.1" rx="3" fill="url(#bldg_blue)" opacity="1"/>
<polygon points="914.4,234.9 948.5,215.9 982.7,234.9" fill="url(#roof_coralRoof)" opacity="1"/>
<rect x="931.5" y="244.9" width="6" height="8" rx="1" fill="url(#windowGlow)" opacity="0.9029309484655647"/>
<rect x="945.5" y="244.9" width="6" height="8" rx="1" fill="url(#windowGlow)" opacity="0.7594271974449172"/>
<rect x="959.5" y="244.9" width="6" height="8" rx="1" fill="url(#windowGlow)" opacity="0.9339527750080231"/>
<rect x="931.5" y="259.9" width="6" height="8" rx="1" fill="url(#windowGlow)" opacity="0.868506299736214"/>
<rect x="945.5" y="259.9" width="6" height="8" rx="1" fill="url(#windowGlow)" opacity="0.9154503032171402"/>
<rect x="959.5" y="259.9" width="6" height="8" rx="1" fill="url(#windowGlow)" opacity="0.8945176838405977"/>
<rect x="943.5" y="284.0" width="10" height="16" rx="2" fill="url(#roof_navyRoof)" opacity="0.8"/>
<rect x="945.5" y="287.0" width="6" height="10" rx="1" fill="url(#windowGlow)" opacity="0.45"/>
<path d="M948.5 257.7 L975.9 257.7 L972.9 263.7 L951.5 263.7 Z" fill="url(#roof_navyRoof)" opacity="0.8"/>
<rect x="410.2" y="267.0" width="6" height="18.0" rx="2" fill="#15803d"/>
<circle cx="413.2" cy="255.2" r="15.8" fill="#22c55e" opacity="0.9"/>
<circle cx="406.6" cy="258.2" r="11.8" fill="#16a34a" opacity="0.8"/>
<circle cx="418.9" cy="259.2" r="11.1" fill="#15803d" opacity="0.7"/>
<rect x="751.1" y="266.4" width="6" height="18.6" rx="2" fill="#15803d"/>
<circle cx="754.1" cy="255.1" r="15.4" fill="#22c55e" opacity="0.9"/>
<circle cx="747.4" cy="258.1" r="11.5" fill="#16a34a" opacity="0.8"/>
<circle cx="760.6" cy="259.1" r="10.8" fill="#15803d" opacity="0.7"/>
<rect x="203.4" y="265.7" width="6" height="19.3" rx="2" fill="#15803d"/>
<circle cx="206.4" cy="252.6" r="17.0" fill="#22c55e" opacity="0.9"/>
<circle cx="197.9" cy="255.6" r="12.8" fill="#16a34a" opacity="0.8"/>
<circle cx="214.0" cy="256.6" r="11.9" fill="#15803d" opacity="0.7"/>
<rect x="1008.8" y="266.1" width="6" height="18.9" rx="2" fill="#15803d"/>
<circle cx="1011.8" cy="252.4" r="17.7" fill="#22c55e" opacity="0.9"/>
<circle cx="1004.8" cy="255.4" r="13.3" fill="#16a34a" opacity="0.8"/>
<circle cx="1018.7" cy="256.4" r="12.4" fill="#15803d" opacity="0.7"/>
<rect x="729.1" y="267.9" width="6" height="17.1" rx="2" fill="#15803d"/>
<circle cx="732.1" cy="254.5" r="17.3" fill="#22c55e" opacity="0.9"/>
<circle cx="723.6" cy="257.5" r="13.0" fill="#16a34a" opacity="0.8"/>
<circle cx="738.7" cy="258.5" r="12.1" fill="#15803d" opacity="0.7"/>
<rect x="624.6" y="264.8" width="6" height="20.2" rx="2" fill="#15803d"/>
<circle cx="627.6" cy="252.8" r="15.9" fill="#22c55e" opacity="0.9"/>
<circle cx="619.1" cy="255.8" r="11.9" fill="#16a34a" opacity="0.8"/>
<circle cx="632.9" cy="256.8" r="11.1" fill="#15803d" opacity="0.7"/>
<rect x="863.8" y="268.9" width="6" height="16.1" rx="2" fill="#15803d"/>
<circle cx="866.8" cy="257.2" r="15.7" fill="#22c55e" opacity="0.9"/>
<circle cx="859.9" cy="260.2" r="11.8" fill="#16a34a" opacity="0.8"/>
<circle cx="873.7" cy="261.2" r="11.0" fill="#15803d" opacity="0.7"/>
<rect x="549.7" y="264.5" width="6" height="20.5" rx="2" fill="#15803d"/>
<circle cx="552.7" cy="255.0" r="13.6" fill="#22c55e" opacity="0.9"/>
<circle cx="543.9" cy="258.0" r="10.2" fill="#16a34a" opacity="0.8"/>
<circle cx="559.2" cy="259.0" r="9.5" fill="#15803d" opacity="0.7"/>
<rect x="775.5" y="267.0" width="6" height="18.0" rx="2" fill="#15803d"/>
<circle cx="778.5" cy="257.3" r="13.8" fill="#22c55e" opacity="0.9"/>
<circle cx="771.4" cy="260.3" r="10.3" fill="#16a34a" opacity="0.8"/>
<circle cx="785.2" cy="261.3" r="9.6" fill="#15803d" opacity="0.7"/>
<rect x="0" y="282" width="1200" height="18" fill="url(#groundGrad)"/>
<line x1="677.4" y1="282.0" x2="677.4" y2="245.2" stroke="#92400e" stroke-width="2"/>
<circle cx="677.4" cy="245.2" r="4" fill="#fef08a" opacity="0.6"/>
<circle cx="677.4" cy="245.2" r="8" fill="#fef08a" opacity="0.15" filter="url(#softGlow)"/>
<ellipse cx="199.3" cy="282.0" rx="4.6" ry="3.2" fill="#22c55e" opacity="0.6"/>
<ellipse cx="110.7" cy="282.0" rx="5.9" ry="4.1" fill="#22c55e" opacity="0.6"/>
<ellipse cx="74.9" cy="282.0" rx="5.8" ry="4.1" fill="#22c55e" opacity="0.6"/>
</svg>