<svg xmlns="http://www.w3.org/2000/svg" viewBox="0 0 1200 400" width="1200" height="400">
<defs>
<linearGradient id="bg" x1="0" y1="0" x2="0" y2="1"><stop offset="0%" stop-color="#94a3b8"/><stop offset="100%" stop-color="#0369a1"/></linearGradient>
<linearGradient id="warm" x1="0" y1="0" x2="1" y2="1"><stop offset="0%" stop-color="#858d98" stop-opacity="0.18"/><stop offset="100%" stop-color="#858d98" stop-opacity="0.06"/></linearGradient>
</defs>
<rect width="1200" height="400" fill="url(#bg)"/>
<path d="M0 400 L0 230.58046625100582 C60.0 234.4, 90.0 258.7, 150.0 249.6 C210.0 241.7, 240.0 232.7, 300.0 242.6 C360.0 236.2, 390.0 259.0, 450.0 250.5 C510.0 242.6, 540.0 249.0, 600.0 251.8 C660.0 248.2, 690.0 237.8, 750.0 232.7 C810.0 227.0, 840.0 227.3, 900.0 234.7 C960.0 231.5, 990.0 258.3, 1050.0 248.7 C1110.0 249.8, 1140.0 255.7, 1200.0 252.3 L1200 400 Z" fill="#367da9" opacity="0.45"/>
<path d="M0 400 L0 262.04920394286495 C52.5 268.9, 97.5 255.2, 150.0 262.1 C202.5 259.1, 247.5 273.1, 300.0 265.6 C352.5 260.3, 397.5 286.5, 450.0 280.1 C502.5 282.2, 547.5 277.2, 600.0 280.9 C652.5 284.2, 697.5 273.9, 750.0 275.3 C802.5 275.8, 847.5 255.4, 900.0 257.5 C952.5 262.8, 997.5 259.9, 1050.0 259.6 C1102.5 265.7, 1147.5 276.6, 1200.0 279.3 L1200 400 Z" fill="#0369a1" opacity="0.3"/>
<rect x="948.2" y="337.9" width="25.6" height="62.1" rx="7.9" fill="#04857e" opacity="0.54"/>
<rect x="809.5" y="330.7" width="33.7" height="69.3" rx="7.2" fill="#047e87" opacity="0.56"/>
<rect x="661.9" y="309.3" width="27.7" height="90.7" rx="7.3" fill="#05946b" opacity="0.78"/>
<rect x="178.1" y="348.5" width="17.0" height="51.5" rx="7.2" fill="#059071" opacity="0.53"/>
<rect x="489.3" y="322.2" width="27.1" height="77.8" rx="4.7" fill="#04897a" opacity="0.75"/>
<rect x="169.9" y="301.6" width="21.1" height="98.4" rx="6.4" fill="#04867d" opacity="0.66"/>
<rect x="393.1" y="278.1" width="21.6" height="121.9" rx="3.5" fill="#047d88" opacity="0.69"/>
<rect x="398.1" y="288.1" width="4" height="5" rx="0.5" fill="#94a3b8" opacity="0.6"/>
<rect x="398.1" y="310.1" width="4" height="5" rx="0.5" fill="#94a3b8" opacity="0.6"/>
<rect x="398.1" y="354.1" width="4" height="5" rx="0.5" fill="#94a3b8" opacity="0.6"/>
<rect x="609.3" y="301.3" width="16.1" height="98.7" rx="7.5" fill="#047f85" opacity="0.53"/>
<rect x="257.0" y="343.5" width="37.6" height="56.5" rx="4.6" fill="#048381" opacity="0.65"/>
<rect x="198.8" y="345.5" width="17.0" height="54.5" rx="7.7" fill="#05946c" opacity="0.56"/>
<rect x="344.5" y="348.5" width="29.8" height="51.5" rx="7.5" fill="#047d88" opacity="0.54"/>
<rect x="1012.0" y="357.4" width="13.2" height="42.6" rx="3.3" fill="#058b76" opacity="0.56"/>
<rect x="159.0" y="347.5" width="47.3" height="52.5" rx="7.7" fill="#04887b" opacity="0.56"/>
<circle cx="941.7" cy="203.3" r="4.6" fill="#059669" opacity="0.26"/>
<circle cx="484.1" cy="105.8" r="10.3" fill="#94a3b8" opacity="0.32"/>
<circle cx="1118.1" cy="109.1" r="3.9" fill="#94a3b8" opacity="0.27"/>
<rect width="1200" height="400" fill="url(#warm)"/>
<rect width="1200" height="400" fill="#94a3b8" opacity="0.40"/>
</svg>