<svg xmlns="http://www.w3.org/2000/svg" viewBox="0 0 1200 300" width="1200" height="300">
<defs>
<linearGradient id="skyGrad" x1="0" y1="0" x2="0" y2="1">
<stop offset="0%" stop-color="#a78bfa"/>
<stop offset="18%" stop-color="#ddb4f0"/>
<stop offset="35%" stop-color="#fda4af"/>
<stop offset="52%" stop-color="#fdba74"/>
<stop offset="72%" stop-color="#fef08a"/>
<stop offset="100%" stop-color="#fef9c3"/>
</linearGradient>
<linearGradient id="bldg_coral" x1="0" y1="0" x2="0" y2="1"><stop offset="0%" stop-color="#fecaca"/><stop offset="100%" stop-color="#fca5a5"/></linearGradient>
<linearGradient id="bldg_teal" x1="0" y1="0" x2="0" y2="1"><stop offset="0%" stop-color="#99f6e4"/><stop offset="100%" stop-color="#5eead4"/></linearGradient>
<linearGradient id="bldg_amber" x1="0" y1="0" x2="0" y2="1"><stop offset="0%" stop-color="#fde68a"/><stop offset="100%" stop-color="#fcd34d"/></linearGradient>
<linearGradient id="bldg_lavender" x1="0" y1="0" x2="0" y2="1"><stop offset="0%" stop-color="#ddd6fe"/><stop offset="100%" stop-color="#c4b5fd"/></linearGradient>
<linearGradient id="bldg_blue" x1="0" y1="0" x2="0" y2="1"><stop offset="0%" stop-color="#bfdbfe"/><stop offset="100%" stop-color="#93c5fd"/></linearGradient>
<linearGradient id="bldg_mint" x1="0" y1="0" x2="0" y2="1"><stop offset="0%" stop-color="#a7f3d0"/><stop offset="100%" stop-color="#6ee7b7"/></linearGradient>
<linearGradient id="bldg_rose" x1="0" y1="0" x2="0" y2="1"><stop offset="0%" stop-color="#fecdd3"/><stop offset="100%" stop-color="#fda4af"/></linearGradient>
<linearGradient id="bldg_sky" x1="0" y1="0" x2="0" y2="1"><stop offset="0%" stop-color="#bae6fd"/><stop offset="100%" stop-color="#7dd3fc"/></linearGradient>
<linearGradient id="roof_navyRoof" x1="0" y1="0" x2="0" y2="1"><stop offset="0%" stop-color="#4338ca"/><stop offset="100%" stop-color="#3730a3"/></linearGradient>
<linearGradient id="roof_coralRoof" x1="0" y1="0" x2="0" y2="1"><stop offset="0%" stop-color="#f87171"/><stop offset="100%" stop-color="#ef4444"/></linearGradient>
<linearGradient id="roof_tealRoof" x1="0" y1="0" x2="0" y2="1"><stop offset="0%" stop-color="#2dd4bf"/><stop offset="100%" stop-color="#14b8a6"/></linearGradient>
<radialGradient id="windowGlow" cx="50%" cy="50%" r="50%"><stop offset="0%" stop-color="#fef08a"/><stop offset="60%" stop-color="#fbbf24"/><stop offset="100%" stop-color="#f59e0b"/></radialGradient>
<linearGradient id="hillFar" x1="0" y1="0" x2="0" y2="1"><stop offset="0%" stop-color="#c4b5fd"/><stop offset="100%" stop-color="#a5b4fc"/></linearGradient>
<linearGradient id="hillMid" x1="0" y1="0" x2="0" y2="1"><stop offset="0%" stop-color="#86efac"/><stop offset="100%" stop-color="#4ade80"/></linearGradient>
<linearGradient id="hillNear" x1="0" y1="0" x2="0" y2="1"><stop offset="0%" stop-color="#34d399"/><stop offset="100%" stop-color="#10b981"/></linearGradient>
<linearGradient id="hillDesertFar" x1="0" y1="0" x2="0" y2="1"><stop offset="0%" stop-color="#fde68a"/><stop offset="100%" stop-color="#fcd34d"/></linearGradient>
<linearGradient id="hillDesertMid" x1="0" y1="0" x2="0" y2="1"><stop offset="0%" stop-color="#fcd34d"/><stop offset="100%" stop-color="#fbbf24"/></linearGradient>
<linearGradient id="hillDesertNear" x1="0" y1="0" x2="0" y2="1"><stop offset="0%" stop-color="#fbbf24"/><stop offset="100%" stop-color="#f59e0b"/></linearGradient>
<linearGradient id="groundGrad" x1="0" y1="0" x2="0" y2="1"><stop offset="0%" stop-color="#fef3c7"/><stop offset="100%" stop-color="#fde68a"/></linearGradient>
<linearGradient id="waterGrad" x1="0" y1="0" x2="0" y2="1"><stop offset="0%" stop-color="#bfdbfe"/><stop offset="100%" stop-color="#93c5fd"/></linearGradient>
<filter id="softGlow" x="-50%" y="-50%" width="200%" height="200%"><feGaussianBlur in="SourceGraphic" stdDeviation="12"/></filter>
</defs>
<rect width="1200" height="300" fill="url(#skyGrad)"/>
<circle cx="941.8" cy="43.1" r="45" fill="#fef08a" opacity="0.12" filter="url(#softGlow)"/>
<circle cx="941.8" cy="43.1" r="30" fill="#fde68a" opacity="0.18" filter="url(#softGlow)"/>
<circle cx="941.8" cy="43.1" r="16" fill="#fef9c3" opacity="0.25" filter="url(#softGlow)"/>
<path d="M0 300 L0.0 192.8 C227.3 192.8, 227.3 183.9, 454.5 183.9 C633.9 183.9, 633.9 176.4, 813.4 176.4 C1006.7 176.4, 1006.7 186.3, 1200.0 186.3 L1200 300 Z" fill="url(#hillFar)" opacity="0.5"/>
<path d="M0 300 L0.0 218.0 C191.6 218.0, 191.6 204.6, 383.2 204.6 C611.3 204.6, 611.3 207.2, 839.5 207.2 C1019.7 207.2, 1019.7 207.6, 1200.0 207.6 L1200 300 Z" fill="url(#hillMid)" opacity="0.7"/>
<path d="M0 300 L0.0 235.7 C199.5 235.7, 199.5 230.9, 398.9 230.9 C610.0 230.9, 610.0 229.7, 821.2 229.7 C1010.6 229.7, 1010.6 237.0, 1200.0 237.0 L1200 300 Z" fill="url(#hillNear)" opacity="1"/>
<rect x="141.1" y="169.8" width="54.1" height="130.2" rx="3" fill="url(#bldg_coral)" opacity="0.7"/>
<polygon points="141.1,169.8 168.2,155.5 195.2,169.8" fill="url(#roof_coralRoof)" opacity="0.7"/>
<rect x="172.2" y="179.8" width="6" height="8" rx="1" fill="url(#windowGlow)" opacity="0.7824004231404514"/>
<rect x="158.2" y="194.8" width="6" height="8" rx="1" fill="url(#windowGlow)" opacity="0.7868929558838219"/>
<rect x="172.2" y="194.8" width="6" height="8" rx="1" fill="url(#windowGlow)" opacity="0.7416156273529005"/>
<rect x="158.2" y="209.8" width="6" height="8" rx="1" fill="url(#windowGlow)" opacity="0.7308501861201833"/>
<rect x="158.2" y="224.8" width="6" height="8" rx="1" fill="url(#windowGlow)" opacity="0.7930909694140269"/>
<rect x="172.2" y="224.8" width="6" height="8" rx="1" fill="url(#windowGlow)" opacity="0.9430392355392869"/>
<rect x="158.2" y="239.8" width="6" height="8" rx="1" fill="url(#windowGlow)" opacity="0.8155165395771695"/>
<rect x="172.2" y="239.8" width="6" height="8" rx="1" fill="url(#windowGlow)" opacity="0.8918833589609169"/>
<rect x="158.2" y="254.8" width="6" height="8" rx="1" fill="url(#windowGlow)" opacity="0.8771445704051967"/>
<rect x="172.2" y="254.8" width="6" height="8" rx="1" fill="url(#windowGlow)" opacity="0.8701089810906485"/>
<rect x="420.9" y="174.1" width="70.4" height="125.9" rx="3" fill="url(#bldg_teal)" opacity="0.7"/>
<rect x="420.9" y="171.1" width="70.4" height="3" rx="1" fill="url(#roof_tealRoof)" opacity="0.7"/>
<rect x="439.0" y="184.1" width="6" height="8" rx="1" fill="url(#windowGlow)" opacity="0.9005893424156072"/>
<rect x="453.0" y="184.1" width="6" height="8" rx="1" fill="url(#windowGlow)" opacity="0.9817438233093096"/>
<rect x="467.0" y="184.1" width="6" height="8" rx="1" fill="url(#windowGlow)" opacity="0.9482095970065377"/>
<rect x="439.0" y="199.1" width="6" height="8" rx="1" fill="url(#windowGlow)" opacity="0.8061188549297483"/>
<rect x="467.0" y="199.1" width="6" height="8" rx="1" fill="url(#windowGlow)" opacity="0.902659064392866"/>
<rect x="439.0" y="214.1" width="6" height="8" rx="1" fill="url(#windowGlow)" opacity="0.9614811276837629"/>
<rect x="453.0" y="214.1" width="6" height="8" rx="1" fill="url(#windowGlow)" opacity="0.8945363793962339"/>
<rect x="467.0" y="214.1" width="6" height="8" rx="1" fill="url(#windowGlow)" opacity="0.9650086935446638"/>
<rect x="453.0" y="229.1" width="6" height="8" rx="1" fill="url(#windowGlow)" opacity="0.8068045476948863"/>
<rect x="467.0" y="229.1" width="6" height="8" rx="1" fill="url(#windowGlow)" opacity="0.9859203046587856"/>
<rect x="439.0" y="244.1" width="6" height="8" rx="1" fill="url(#windowGlow)" opacity="0.7547052823261847"/>
<rect x="467.0" y="244.1" width="6" height="8" rx="1" fill="url(#windowGlow)" opacity="0.9236327430809068"/>
<rect x="453.0" y="259.1" width="6" height="8" rx="1" fill="url(#windowGlow)" opacity="0.7591191978469114"/>
<rect x="467.0" y="259.1" width="6" height="8" rx="1" fill="url(#windowGlow)" opacity="0.7214734155784702"/>
<rect x="709.5" y="176.8" width="88.1" height="123.2" rx="3" fill="url(#bldg_amber)" opacity="0.7"/>
<rect x="709.5" y="173.8" width="88.1" height="3" rx="1" fill="url(#roof_navyRoof)" opacity="0.7"/>
<rect x="743.5" y="186.8" width="6" height="8" rx="1" fill="url(#windowGlow)" opacity="0.7408045860197416"/>
<rect x="757.5" y="186.8" width="6" height="8" rx="1" fill="url(#windowGlow)" opacity="0.8980957625424935"/>
<rect x="771.5" y="186.8" width="6" height="8" rx="1" fill="url(#windowGlow)" opacity="0.9066333369382812"/>
<rect x="729.5" y="201.8" width="6" height="8" rx="1" fill="url(#windowGlow)" opacity="0.943867125755114"/>
<rect x="743.5" y="201.8" width="6" height="8" rx="1" fill="url(#windowGlow)" opacity="0.7625185041048184"/>
<rect x="771.5" y="201.8" width="6" height="8" rx="1" fill="url(#windowGlow)" opacity="0.9833394964148008"/>
<rect x="757.5" y="216.8" width="6" height="8" rx="1" fill="url(#windowGlow)" opacity="0.8282536530998785"/>
<rect x="743.5" y="231.8" width="6" height="8" rx="1" fill="url(#windowGlow)" opacity="0.9642021597196357"/>
<rect x="771.5" y="231.8" width="6" height="8" rx="1" fill="url(#windowGlow)" opacity="0.7280384498778909"/>
<rect x="729.5" y="246.8" width="6" height="8" rx="1" fill="url(#windowGlow)" opacity="0.8096410295505267"/>
<rect x="743.5" y="246.8" width="6" height="8" rx="1" fill="url(#windowGlow)" opacity="0.9851454334730028"/>
<rect x="956.2" y="177.3" width="86.4" height="122.7" rx="3" fill="url(#bldg_lavender)" opacity="0.7"/>
<polygon points="956.2,177.3 999.4,156.9 1042.7,177.3" fill="url(#roof_coralRoof)" opacity="0.7"/>
<rect x="975.4" y="187.3" width="6" height="8" rx="1" fill="url(#windowGlow)" opacity="0.8736963349272013"/>
<rect x="1003.4" y="187.3" width="6" height="8" rx="1" fill="url(#windowGlow)" opacity="0.7560019992087045"/>
<rect x="1017.4" y="187.3" width="6" height="8" rx="1" fill="url(#windowGlow)" opacity="0.9681262329072347"/>
<rect x="975.4" y="202.3" width="6" height="8" rx="1" fill="url(#windowGlow)" opacity="0.7749327806639171"/>
<rect x="989.4" y="202.3" width="6" height="8" rx="1" fill="url(#windowGlow)" opacity="0.71161870402825"/>
<rect x="1003.4" y="202.3" width="6" height="8" rx="1" fill="url(#windowGlow)" opacity="0.9658001069751568"/>
<rect x="1017.4" y="202.3" width="6" height="8" rx="1" fill="url(#windowGlow)" opacity="0.9822023060089919"/>
<rect x="975.4" y="217.3" width="6" height="8" rx="1" fill="url(#windowGlow)" opacity="0.9181892345278473"/>
<rect x="989.4" y="217.3" width="6" height="8" rx="1" fill="url(#windowGlow)" opacity="0.9567482905260978"/>
<rect x="1003.4" y="217.3" width="6" height="8" rx="1" fill="url(#windowGlow)" opacity="0.9200702772103577"/>
<rect x="975.4" y="232.3" width="6" height="8" rx="1" fill="url(#windowGlow)" opacity="0.7250617566635188"/>
<rect x="989.4" y="232.3" width="6" height="8" rx="1" fill="url(#windowGlow)" opacity="0.9127825743578293"/>
<rect x="1003.4" y="232.3" width="6" height="8" rx="1" fill="url(#windowGlow)" opacity="0.8502599181375745"/>
<rect x="975.4" y="247.3" width="6" height="8" rx="1" fill="url(#windowGlow)" opacity="0.700580732757496"/>
<rect x="989.4" y="247.3" width="6" height="8" rx="1" fill="url(#windowGlow)" opacity="0.7560563714970165"/>
<rect x="1003.4" y="247.3" width="6" height="8" rx="1" fill="url(#windowGlow)" opacity="0.9644342521039928"/>
<rect x="1017.4" y="247.3" width="6" height="8" rx="1" fill="url(#windowGlow)" opacity="0.903217906552934"/>
<rect x="105.6" y="219.8" width="45.8" height="80.2" rx="3" fill="url(#bldg_blue)" opacity="0.85"/>
<polygon points="105.6,219.8 128.5,209.8 151.4,219.8" fill="url(#roof_tealRoof)" opacity="0.85"/>
<rect x="118.5" y="229.8" width="6" height="8" rx="1" fill="url(#windowGlow)" opacity="0.8017374588184698"/>
<rect x="132.5" y="229.8" width="6" height="8" rx="1" fill="url(#windowGlow)" opacity="0.7680451621152671"/>
<rect x="118.5" y="244.8" width="6" height="8" rx="1" fill="url(#windowGlow)" opacity="0.9867180158322295"/>
<rect x="132.5" y="244.8" width="6" height="8" rx="1" fill="url(#windowGlow)" opacity="0.8610743235149766"/>
<rect x="118.5" y="259.8" width="6" height="8" rx="1" fill="url(#windowGlow)" opacity="0.8327240819263849"/>
<rect x="132.5" y="259.8" width="6" height="8" rx="1" fill="url(#windowGlow)" opacity="0.8855206252473967"/>
<rect x="376.8" y="129.8" width="44.9" height="170.2" rx="3" fill="url(#bldg_mint)" opacity="0.85"/>
<rect x="376.8" y="126.8" width="44.9" height="3" rx="1" fill="url(#roof_navyRoof)" opacity="0.85"/>
<rect x="389.2" y="139.8" width="6" height="8" rx="1" fill="url(#windowGlow)" opacity="0.7984883210614735"/>
<rect x="403.2" y="139.8" width="6" height="8" rx="1" fill="url(#windowGlow)" opacity="0.8311371361981784"/>
<rect x="389.2" y="154.8" width="6" height="8" rx="1" fill="url(#windowGlow)" opacity="0.8066200864532125"/>
<rect x="389.2" y="169.8" width="6" height="8" rx="1" fill="url(#windowGlow)" opacity="0.8842287813239864"/>
<rect x="403.2" y="169.8" width="6" height="8" rx="1" fill="url(#windowGlow)" opacity="0.9266145840411142"/>
<rect x="389.2" y="184.8" width="6" height="8" rx="1" fill="url(#windowGlow)" opacity="0.8796251344399644"/>
<rect x="403.2" y="184.8" width="6" height="8" rx="1" fill="url(#windowGlow)" opacity="0.9689170552738555"/>
<rect x="389.2" y="199.8" width="6" height="8" rx="1" fill="url(#windowGlow)" opacity="0.7108611851981195"/>
<rect x="403.2" y="199.8" width="6" height="8" rx="1" fill="url(#windowGlow)" opacity="0.9787516098836211"/>
<rect x="389.2" y="214.8" width="6" height="8" rx="1" fill="url(#windowGlow)" opacity="0.7472098810818092"/>
<rect x="403.2" y="214.8" width="6" height="8" rx="1" fill="url(#windowGlow)" opacity="0.7047014215051668"/>
<rect x="389.2" y="229.8" width="6" height="8" rx="1" fill="url(#windowGlow)" opacity="0.7551357891667335"/>
<rect x="403.2" y="229.8" width="6" height="8" rx="1" fill="url(#windowGlow)" opacity="0.7777646727290771"/>
<rect x="389.2" y="244.8" width="6" height="8" rx="1" fill="url(#windowGlow)" opacity="0.9675211708375817"/>
<rect x="403.2" y="244.8" width="6" height="8" rx="1" fill="url(#windowGlow)" opacity="0.8230610971912095"/>
<path d="M399.2 189.4 L417.2 189.4 L414.2 195.4 L402.2 195.4 Z" fill="url(#roof_tealRoof)" opacity="0.68"/>
<rect x="569.0" y="216.1" width="58.6" height="83.9" rx="3" fill="url(#bldg_rose)" opacity="0.85"/>
<rect x="580.7" y="206.1" width="35.1" height="10.1" rx="2" fill="url(#roof_coralRoof)" opacity="0.85"/>
<rect x="581.2" y="226.1" width="6" height="8" rx="1" fill="url(#windowGlow)" opacity="0.8321087798253208"/>
<rect x="609.2" y="226.1" width="6" height="8" rx="1" fill="url(#windowGlow)" opacity="0.8656247289691235"/>
<rect x="581.2" y="241.1" width="6" height="8" rx="1" fill="url(#windowGlow)" opacity="0.9423009892191276"/>
<rect x="595.2" y="241.1" width="6" height="8" rx="1" fill="url(#windowGlow)" opacity="0.7144886731237585"/>
<rect x="609.2" y="241.1" width="6" height="8" rx="1" fill="url(#windowGlow)" opacity="0.7791758569326139"/>
<rect x="595.2" y="256.1" width="6" height="8" rx="1" fill="url(#windowGlow)" opacity="0.7098905123350632"/>
<rect x="804.0" y="151.8" width="47.7" height="148.2" rx="3" fill="url(#bldg_sky)" opacity="0.85"/>
<polygon points="804.0,151.8 827.8,142.0 851.7,151.8" fill="url(#roof_tealRoof)" opacity="0.85"/>
<rect x="817.8" y="161.8" width="6" height="8" rx="1" fill="url(#windowGlow)" opacity="0.9685890039282798"/>
<rect x="817.8" y="176.8" width="6" height="8" rx="1" fill="url(#windowGlow)" opacity="0.7783873450376034"/>
<rect x="817.8" y="191.8" width="6" height="8" rx="1" fill="url(#windowGlow)" opacity="0.9163532937487369"/>
<rect x="831.8" y="191.8" width="6" height="8" rx="1" fill="url(#windowGlow)" opacity="0.7493658394316983"/>
<rect x="817.8" y="206.8" width="6" height="8" rx="1" fill="url(#windowGlow)" opacity="0.8626689076715469"/>
<rect x="831.8" y="206.8" width="6" height="8" rx="1" fill="url(#windowGlow)" opacity="0.9119075767285691"/>
<rect x="831.8" y="221.8" width="6" height="8" rx="1" fill="url(#windowGlow)" opacity="0.7224563082784676"/>
<rect x="817.8" y="236.8" width="6" height="8" rx="1" fill="url(#windowGlow)" opacity="0.9544981019825199"/>
<rect x="831.8" y="236.8" width="6" height="8" rx="1" fill="url(#windowGlow)" opacity="0.733362508208194"/>
<rect x="817.8" y="251.8" width="6" height="8" rx="1" fill="url(#windowGlow)" opacity="0.9418141707972689"/>
<rect x="831.8" y="251.8" width="6" height="8" rx="1" fill="url(#windowGlow)" opacity="0.8055849092572857"/>
<rect x="1009.3" y="170.3" width="68.4" height="129.7" rx="3" fill="url(#bldg_coral)" opacity="0.85"/>
<polygon points="1009.3,170.3 1043.5,147.6 1077.7,170.3" fill="url(#roof_navyRoof)" opacity="0.85"/>
<rect x="1026.5" y="180.3" width="6" height="8" rx="1" fill="url(#windowGlow)" opacity="0.9550405040173979"/>
<rect x="1040.5" y="180.3" width="6" height="8" rx="1" fill="url(#windowGlow)" opacity="0.9339829294634903"/>
<rect x="1054.5" y="180.3" width="6" height="8" rx="1" fill="url(#windowGlow)" opacity="0.7308216218514468"/>
<rect x="1026.5" y="195.3" width="6" height="8" rx="1" fill="url(#windowGlow)" opacity="0.9938385789253927"/>
<rect x="1040.5" y="195.3" width="6" height="8" rx="1" fill="url(#windowGlow)" opacity="0.8234201277715247"/>
<rect x="1054.5" y="195.3" width="6" height="8" rx="1" fill="url(#windowGlow)" opacity="0.7117660173735423"/>
<rect x="1026.5" y="210.3" width="6" height="8" rx="1" fill="url(#windowGlow)" opacity="0.9822414534083761"/>
<rect x="1040.5" y="210.3" width="6" height="8" rx="1" fill="url(#windowGlow)" opacity="0.7590117260622846"/>
<rect x="1026.5" y="225.3" width="6" height="8" rx="1" fill="url(#windowGlow)" opacity="0.9936187748301861"/>
<rect x="1040.5" y="225.3" width="6" height="8" rx="1" fill="url(#windowGlow)" opacity="0.8069325393563753"/>
<rect x="1054.5" y="225.3" width="6" height="8" rx="1" fill="url(#windowGlow)" opacity="0.8597058178669335"/>
<rect x="1026.5" y="240.3" width="6" height="8" rx="1" fill="url(#windowGlow)" opacity="0.9913732995704623"/>
<rect x="1040.5" y="240.3" width="6" height="8" rx="1" fill="url(#windowGlow)" opacity="0.7728244751099611"/>
<rect x="1026.5" y="255.3" width="6" height="8" rx="1" fill="url(#windowGlow)" opacity="0.9600823679753031"/>
<rect x="1040.5" y="255.3" width="6" height="8" rx="1" fill="url(#windowGlow)" opacity="0.787799537921231"/>
<rect x="1054.5" y="255.3" width="6" height="8" rx="1" fill="url(#windowGlow)" opacity="0.8383229314528047"/>
<path d="M1043.5 215.7 L1070.9 215.7 L1067.9 221.7 L1046.5 221.7 Z" fill="url(#roof_tealRoof)" opacity="0.68"/>
<rect x="134.9" y="138.9" width="58.2" height="161.1" rx="3" fill="url(#bldg_teal)" opacity="1"/>
<polygon points="134.9,138.9 164.0,126.4 193.1,138.9" fill="url(#roof_coralRoof)" opacity="1"/>
<rect x="147.0" y="148.9" width="6" height="8" rx="1" fill="url(#windowGlow)" opacity="0.7040837276280316"/>
<rect x="161.0" y="148.9" width="6" height="8" rx="1" fill="url(#windowGlow)" opacity="0.7337519536417685"/>
<rect x="175.0" y="148.9" width="6" height="8" rx="1" fill="url(#windowGlow)" opacity="0.7844147259296917"/>
<rect x="147.0" y="163.9" width="6" height="8" rx="1" fill="url(#windowGlow)" opacity="0.9299125613318349"/>
<rect x="175.0" y="163.9" width="6" height="8" rx="1" fill="url(#windowGlow)" opacity="0.8832745172936816"/>
<rect x="147.0" y="178.9" width="6" height="8" rx="1" fill="url(#windowGlow)" opacity="0.7700097191473514"/>
<rect x="161.0" y="178.9" width="6" height="8" rx="1" fill="url(#windowGlow)" opacity="0.7898064068005449"/>
<rect x="175.0" y="178.9" width="6" height="8" rx="1" fill="url(#windowGlow)" opacity="0.8552469001874545"/>
<rect x="147.0" y="193.9" width="6" height="8" rx="1" fill="url(#windowGlow)" opacity="0.847168323838696"/>
<rect x="161.0" y="193.9" width="6" height="8" rx="1" fill="url(#windowGlow)" opacity="0.8436279847955461"/>
<rect x="175.0" y="193.9" width="6" height="8" rx="1" fill="url(#windowGlow)" opacity="0.9076303469984002"/>
<rect x="161.0" y="208.9" width="6" height="8" rx="1" fill="url(#windowGlow)" opacity="0.9904672198884501"/>
<rect x="175.0" y="208.9" width="6" height="8" rx="1" fill="url(#windowGlow)" opacity="0.7785608871740106"/>
<rect x="161.0" y="223.9" width="6" height="8" rx="1" fill="url(#windowGlow)" opacity="0.7678662700894596"/>
<rect x="175.0" y="223.9" width="6" height="8" rx="1" fill="url(#windowGlow)" opacity="0.9730298439380851"/>
<rect x="147.0" y="238.9" width="6" height="8" rx="1" fill="url(#windowGlow)" opacity="0.7767663564890466"/>
<rect x="161.0" y="238.9" width="6" height="8" rx="1" fill="url(#windowGlow)" opacity="0.9045768864474151"/>
<rect x="175.0" y="238.9" width="6" height="8" rx="1" fill="url(#windowGlow)" opacity="0.9331663827566272"/>
<rect x="147.0" y="253.9" width="6" height="8" rx="1" fill="url(#windowGlow)" opacity="0.8712584083766016"/>
<rect x="161.0" y="253.9" width="6" height="8" rx="1" fill="url(#windowGlow)" opacity="0.866114839243756"/>
<rect x="175.0" y="253.9" width="6" height="8" rx="1" fill="url(#windowGlow)" opacity="0.7573181364020882"/>
<rect x="159.0" y="284.0" width="10" height="16" rx="2" fill="url(#roof_navyRoof)" opacity="0.8"/>
<rect x="161.0" y="287.0" width="6" height="10" rx="1" fill="url(#windowGlow)" opacity="0.45"/>
<rect x="331.9" y="163.2" width="57.3" height="136.8" rx="3" fill="url(#bldg_amber)" opacity="1"/>
<polygon points="331.9,163.2 360.6,150.6 389.3,163.2" fill="url(#roof_tealRoof)" opacity="1"/>
<rect x="350.6" y="173.2" width="6" height="8" rx="1" fill="url(#windowGlow)" opacity="0.8284575421961292"/>
<rect x="364.6" y="173.2" width="6" height="8" rx="1" fill="url(#windowGlow)" opacity="0.8622080981555432"/>
<rect x="350.6" y="188.2" width="6" height="8" rx="1" fill="url(#windowGlow)" opacity="0.7847804041974155"/>
<rect x="364.6" y="188.2" width="6" height="8" rx="1" fill="url(#windowGlow)" opacity="0.7047282692998313"/>
<rect x="350.6" y="203.2" width="6" height="8" rx="1" fill="url(#windowGlow)" opacity="0.9425782636937583"/>
<rect x="364.6" y="203.2" width="6" height="8" rx="1" fill="url(#windowGlow)" opacity="0.7497242952928526"/>
<rect x="350.6" y="218.2" width="6" height="8" rx="1" fill="url(#windowGlow)" opacity="0.7066892532662904"/>
<rect x="364.6" y="218.2" width="6" height="8" rx="1" fill="url(#windowGlow)" opacity="0.7875457072106868"/>
<rect x="350.6" y="233.2" width="6" height="8" rx="1" fill="url(#windowGlow)" opacity="0.8833423447717643"/>
<rect x="350.6" y="248.2" width="6" height="8" rx="1" fill="url(#windowGlow)" opacity="0.8921818161812526"/>
<rect x="364.6" y="248.2" width="6" height="8" rx="1" fill="url(#windowGlow)" opacity="0.9683717282341662"/>
<rect x="355.6" y="284.0" width="10" height="16" rx="2" fill="url(#roof_navyRoof)" opacity="0.8"/>
<rect x="357.6" y="287.0" width="6" height="10" rx="1" fill="url(#windowGlow)" opacity="0.45"/>
<path d="M360.6 211.1 L383.6 211.1 L380.6 217.1 L363.6 217.1 Z" fill="url(#roof_coralRoof)" opacity="0.8"/>
<rect x="601.2" y="146.9" width="49.0" height="153.1" rx="3" fill="url(#bldg_lavender)" opacity="1"/>
<rect x="611.0" y="128.6" width="29.4" height="18.4" rx="2" fill="url(#roof_navyRoof)" opacity="1"/>
<rect x="629.7" y="156.9" width="6" height="8" rx="1" fill="url(#windowGlow)" opacity="0.897524394745717"/>
<rect x="615.7" y="186.9" width="6" height="8" rx="1" fill="url(#windowGlow)" opacity="0.7598259154985779"/>
<rect x="629.7" y="186.9" width="6" height="8" rx="1" fill="url(#windowGlow)" opacity="0.8084232136180732"/>
<rect x="615.7" y="201.9" width="6" height="8" rx="1" fill="url(#windowGlow)" opacity="0.991816135072995"/>
<rect x="629.7" y="201.9" width="6" height="8" rx="1" fill="url(#windowGlow)" opacity="0.7688293320447342"/>
<rect x="615.7" y="216.9" width="6" height="8" rx="1" fill="url(#windowGlow)" opacity="0.7346681773824003"/>
<rect x="629.7" y="216.9" width="6" height="8" rx="1" fill="url(#windowGlow)" opacity="0.9966004502478057"/>
<rect x="615.7" y="231.9" width="6" height="8" rx="1" fill="url(#windowGlow)" opacity="0.9192394628279095"/>
<rect x="629.7" y="231.9" width="6" height="8" rx="1" fill="url(#windowGlow)" opacity="0.7855956205565462"/>
<rect x="615.7" y="246.9" width="6" height="8" rx="1" fill="url(#windowGlow)" opacity="0.7011180933570107"/>
<rect x="620.7" y="284.0" width="10" height="16" rx="2" fill="url(#roof_navyRoof)" opacity="0.8"/>
<rect x="622.7" y="287.0" width="6" height="10" rx="1" fill="url(#windowGlow)" opacity="0.45"/>
<rect x="617.1" y="172.9" width="17.2" height="5" rx="1" fill="#15803d" opacity="0.7"/>
<circle cx="620.1" cy="171.9" r="2.5" fill="#fbbf24" opacity="0.85"/>
<circle cx="625.8" cy="171.9" r="2.5" fill="#a78bfa" opacity="0.85"/>
<circle cx="631.6" cy="171.9" r="2.5" fill="#fbbf24" opacity="0.85"/>
<rect x="796.4" y="199.9" width="59.2" height="100.1" rx="3" fill="url(#bldg_blue)" opacity="1"/>
<rect x="796.4" y="196.9" width="59.2" height="3" rx="1" fill="url(#roof_coralRoof)" opacity="1"/>
<rect x="809.0" y="209.9" width="6" height="8" rx="1" fill="url(#windowGlow)" opacity="0.8341209832272124"/>
<rect x="823.0" y="209.9" width="6" height="8" rx="1" fill="url(#windowGlow)" opacity="0.9129446870707649"/>
<rect x="837.0" y="209.9" width="6" height="8" rx="1" fill="url(#windowGlow)" opacity="0.8519855798929862"/>
<rect x="809.0" y="224.9" width="6" height="8" rx="1" fill="url(#windowGlow)" opacity="0.9627334048332336"/>
<rect x="823.0" y="224.9" width="6" height="8" rx="1" fill="url(#windowGlow)" opacity="0.9340067297378586"/>
<rect x="837.0" y="224.9" width="6" height="8" rx="1" fill="url(#windowGlow)" opacity="0.7966818752217487"/>
<rect x="809.0" y="239.9" width="6" height="8" rx="1" fill="url(#windowGlow)" opacity="0.9585848061640676"/>
<rect x="823.0" y="239.9" width="6" height="8" rx="1" fill="url(#windowGlow)" opacity="0.9750489161699306"/>
<rect x="837.0" y="239.9" width="6" height="8" rx="1" fill="url(#windowGlow)" opacity="0.7501338239061337"/>
<rect x="809.0" y="254.9" width="6" height="8" rx="1" fill="url(#windowGlow)" opacity="0.9476799844986199"/>
<rect x="823.0" y="254.9" width="6" height="8" rx="1" fill="url(#windowGlow)" opacity="0.9177411073901416"/>
<rect x="837.0" y="254.9" width="6" height="8" rx="1" fill="url(#windowGlow)" opacity="0.7999910634476649"/>
<rect x="821.0" y="284.0" width="10" height="16" rx="2" fill="url(#roof_navyRoof)" opacity="0.8"/>
<rect x="823.0" y="287.0" width="6" height="10" rx="1" fill="url(#windowGlow)" opacity="0.45"/>
<rect x="1034.8" y="220.3" width="63.8" height="79.7" rx="3" fill="url(#bldg_mint)" opacity="1"/>
<rect x="1034.8" y="217.3" width="63.8" height="3" rx="1" fill="url(#roof_tealRoof)" opacity="1"/>
<rect x="1063.7" y="230.3" width="6" height="8" rx="1" fill="url(#windowGlow)" opacity="0.9354996344239914"/>
<rect x="1077.7" y="230.3" width="6" height="8" rx="1" fill="url(#windowGlow)" opacity="0.7345809497100212"/>
<rect x="1049.7" y="245.3" width="6" height="8" rx="1" fill="url(#windowGlow)" opacity="0.738019709586175"/>
<rect x="1063.7" y="245.3" width="6" height="8" rx="1" fill="url(#windowGlow)" opacity="0.9079149595498642"/>
<rect x="1077.7" y="245.3" width="6" height="8" rx="1" fill="url(#windowGlow)" opacity="0.986350362229324"/>
<rect x="1049.7" y="260.3" width="6" height="8" rx="1" fill="url(#windowGlow)" opacity="0.7555149708201713"/>
<rect x="1063.7" y="260.3" width="6" height="8" rx="1" fill="url(#windowGlow)" opacity="0.8625670447771283"/>
<rect x="1061.7" y="284.0" width="10" height="16" rx="2" fill="url(#roof_navyRoof)" opacity="0.8"/>
<rect x="1063.7" y="287.0" width="6" height="10" rx="1" fill="url(#windowGlow)" opacity="0.45"/>
<path d="M262.5 285.0 Q278.7 264.0 272.2 242.9" stroke="#92400e" stroke-width="4" fill="none" stroke-linecap="round"/>
<path d="M272.2 242.9 Q261.7 232.6 254.7 233.3" stroke="#16a34a" stroke-width="2.5" fill="none" stroke-linecap="round"/>
<path d="M272.2 242.9 Q277.8 231.4 281.5 230.7" stroke="#22c55e" stroke-width="2.5" fill="none" stroke-linecap="round"/>
<path d="M272.2 242.9 Q289.3 236.9 300.7 242.9" stroke="#15803d" stroke-width="2.5" fill="none" stroke-linecap="round"/>
<path d="M272.2 242.9 Q279.8 244.6 284.9 259.8" stroke="#4ade80" stroke-width="2.5" fill="none" stroke-linecap="round"/>
<path d="M272.2 242.9 Q258.4 242.7 249.2 255.6" stroke="#16a34a" stroke-width="2.5" fill="none" stroke-linecap="round"/>
<path d="M495.2 285.0 Q511.0 254.6 504.7 224.2" stroke="#92400e" stroke-width="4" fill="none" stroke-linecap="round"/>
<path d="M504.7 224.2 Q495.3 214.3 489.0 215.6" stroke="#16a34a" stroke-width="2.5" fill="none" stroke-linecap="round"/>
<path d="M504.7 224.2 Q511.2 211.6 515.6 209.8" stroke="#22c55e" stroke-width="2.5" fill="none" stroke-linecap="round"/>
<path d="M504.7 224.2 Q517.5 218.2 526.0 224.2" stroke="#15803d" stroke-width="2.5" fill="none" stroke-linecap="round"/>
<path d="M504.7 224.2 Q511.7 225.3 516.4 239.8" stroke="#4ade80" stroke-width="2.5" fill="none" stroke-linecap="round"/>
<path d="M504.7 224.2 Q491.2 223.8 482.2 236.6" stroke="#16a34a" stroke-width="2.5" fill="none" stroke-linecap="round"/>
<path d="M723.3 285.0 Q742.3 260.3 734.7 235.7" stroke="#92400e" stroke-width="4" fill="none" stroke-linecap="round"/>
<path d="M734.7 235.7 Q725.4 225.8 719.2 227.1" stroke="#16a34a" stroke-width="2.5" fill="none" stroke-linecap="round"/>
<path d="M734.7 235.7 Q739.9 224.5 743.3 224.2" stroke="#22c55e" stroke-width="2.5" fill="none" stroke-linecap="round"/>
<path d="M734.7 235.7 Q754.4 229.7 767.5 235.7" stroke="#15803d" stroke-width="2.5" fill="none" stroke-linecap="round"/>
<path d="M734.7 235.7 Q740.2 235.2 743.8 247.8" stroke="#4ade80" stroke-width="2.5" fill="none" stroke-linecap="round"/>
<path d="M734.7 235.7 Q725.1 233.7 718.7 244.5" stroke="#16a34a" stroke-width="2.5" fill="none" stroke-linecap="round"/>
<path d="M945.2 285.0 Q968.5 255.0 959.2 225.0" stroke="#92400e" stroke-width="4" fill="none" stroke-linecap="round"/>
<path d="M959.2 225.0 Q948.5 214.6 941.4 215.3" stroke="#16a34a" stroke-width="2.5" fill="none" stroke-linecap="round"/>
<path d="M959.2 225.0 Q965.4 212.8 969.5 211.3" stroke="#22c55e" stroke-width="2.5" fill="none" stroke-linecap="round"/>
<path d="M959.2 225.0 Q975.4 219.0 986.3 225.0" stroke="#15803d" stroke-width="2.5" fill="none" stroke-linecap="round"/>
<path d="M959.2 225.0 Q966.3 226.3 971.1 241.0" stroke="#4ade80" stroke-width="2.5" fill="none" stroke-linecap="round"/>
<path d="M959.2 225.0 Q948.9 223.3 942.1 234.4" stroke="#16a34a" stroke-width="2.5" fill="none" stroke-linecap="round"/>
<rect x="0" y="282" width="1200" height="18" fill="url(#groundGrad)"/>
<line x1="101.0" y1="282.0" x2="101.0" y2="249.9" stroke="#92400e" stroke-width="2"/>
<circle cx="101.0" cy="249.9" r="4" fill="#fef08a" opacity="0.6"/>
<circle cx="101.0" cy="249.9" r="8" fill="#fef08a" opacity="0.15" filter="url(#softGlow)"/>
<line x1="963.3" y1="282.0" x2="963.3" y2="249.2" stroke="#92400e" stroke-width="2"/>
<circle cx="963.3" cy="249.2" r="4" fill="#fef08a" opacity="0.6"/>
<circle cx="963.3" cy="249.2" r="8" fill="#fef08a" opacity="0.15" filter="url(#softGlow)"/>
<ellipse cx="276.1" cy="282.0" rx="6.7" ry="4.7" fill="#22c55e" opacity="0.6"/>
<ellipse cx="186.6" cy="282.0" rx="6.6" ry="4.6" fill="#22c55e" opacity="0.6"/>
<ellipse cx="567.1" cy="282.0" rx="5.0" ry="3.5" fill="#22c55e" opacity="0.6"/>
</svg>