<svg xmlns="http://www.w3.org/2000/svg" viewBox="0 0 1200 300" width="1200" height="300">
<rect width="1200" height="300" fill="#e0eff2"/>
<path d="M0 300 L0 210.0 C259.2 181.1, 857.6 184.5, 1200 210.0 L1200 300 Z" fill="#aac2c9" opacity="0.3"/>
<rect x="116.4" y="158.2" width="64.4" height="141.8" fill="#8aabb4"/>
<rect x="297.6" y="193.1" width="83.8" height="106.9" fill="#8aabb4"/>
<rect x="573.6" y="176.0" width="79.8" height="124.0" fill="#8aabb4"/>
<rect x="758.8" y="186.5" width="84.6" height="113.5" fill="#8aabb4"/>
<rect x="1026.2" y="159.5" width="74.1" height="140.5" fill="#8aabb4"/>
<rect x="93.3" y="182.2" width="46.4" height="117.8" fill="#558592"/>
<rect x="106.6" y="194.2" width="6" height="8" fill="#91b0b8" opacity="0.5"/>
<rect x="120.6" y="194.2" width="6" height="8" fill="#91b0b8" opacity="0.5"/>
<rect x="106.6" y="210.2" width="6" height="8" fill="#91b0b8" opacity="0.5"/>
<rect x="120.6" y="210.2" width="6" height="8" fill="#91b0b8" opacity="0.5"/>
<rect x="120.6" y="226.2" width="6" height="8" fill="#91b0b8" opacity="0.5"/>
<rect x="106.6" y="242.2" width="6" height="8" fill="#91b0b8" opacity="0.5"/>
<rect x="120.6" y="258.2" width="6" height="8" fill="#91b0b8" opacity="0.5"/>
<rect x="314.5" y="143.1" width="49.9" height="156.9" fill="#558592"/>
<rect x="329.5" y="155.1" width="6" height="8" fill="#91b0b8" opacity="0.5"/>
<rect x="343.5" y="155.1" width="6" height="8" fill="#91b0b8" opacity="0.5"/>
<rect x="343.5" y="171.1" width="6" height="8" fill="#91b0b8" opacity="0.5"/>
<rect x="329.5" y="187.1" width="6" height="8" fill="#91b0b8" opacity="0.5"/>
<rect x="343.5" y="187.1" width="6" height="8" fill="#91b0b8" opacity="0.5"/>
<rect x="329.5" y="203.1" width="6" height="8" fill="#91b0b8" opacity="0.5"/>
<rect x="343.5" y="203.1" width="6" height="8" fill="#91b0b8" opacity="0.5"/>
<rect x="343.5" y="219.1" width="6" height="8" fill="#91b0b8" opacity="0.5"/>
<rect x="329.5" y="251.1" width="6" height="8" fill="#91b0b8" opacity="0.5"/>
<rect x="343.5" y="251.1" width="6" height="8" fill="#91b0b8" opacity="0.5"/>
<rect x="329.5" y="267.1" width="6" height="8" fill="#91b0b8" opacity="0.5"/>
<rect x="343.5" y="267.1" width="6" height="8" fill="#91b0b8" opacity="0.5"/>
<rect x="498.4" y="100.7" width="55.0" height="199.3" fill="#558592"/>
<rect x="515.8" y="112.7" width="6" height="8" fill="#91b0b8" opacity="0.5"/>
<rect x="529.8" y="112.7" width="6" height="8" fill="#91b0b8" opacity="0.5"/>
<rect x="515.8" y="128.7" width="6" height="8" fill="#91b0b8" opacity="0.5"/>
<rect x="529.8" y="128.7" width="6" height="8" fill="#91b0b8" opacity="0.5"/>
<rect x="515.8" y="144.7" width="6" height="8" fill="#91b0b8" opacity="0.5"/>
<rect x="529.8" y="144.7" width="6" height="8" fill="#91b0b8" opacity="0.5"/>
<rect x="515.8" y="160.7" width="6" height="8" fill="#91b0b8" opacity="0.5"/>
<rect x="529.8" y="160.7" width="6" height="8" fill="#91b0b8" opacity="0.5"/>
<rect x="515.8" y="176.7" width="6" height="8" fill="#91b0b8" opacity="0.5"/>
<rect x="529.8" y="176.7" width="6" height="8" fill="#91b0b8" opacity="0.5"/>
<rect x="515.8" y="192.7" width="6" height="8" fill="#91b0b8" opacity="0.5"/>
<rect x="529.8" y="192.7" width="6" height="8" fill="#91b0b8" opacity="0.5"/>
<rect x="515.8" y="208.7" width="6" height="8" fill="#91b0b8" opacity="0.5"/>
<rect x="529.8" y="208.7" width="6" height="8" fill="#91b0b8" opacity="0.5"/>
<rect x="515.8" y="224.7" width="6" height="8" fill="#91b0b8" opacity="0.5"/>
<rect x="529.8" y="224.7" width="6" height="8" fill="#91b0b8" opacity="0.5"/>
<rect x="515.8" y="240.7" width="6" height="8" fill="#91b0b8" opacity="0.5"/>
<rect x="515.8" y="256.7" width="6" height="8" fill="#91b0b8" opacity="0.5"/>
<rect x="529.8" y="256.7" width="6" height="8" fill="#91b0b8" opacity="0.5"/>
<rect x="515.8" y="272.7" width="6" height="8" fill="#91b0b8" opacity="0.5"/>
<rect x="529.8" y="272.7" width="6" height="8" fill="#91b0b8" opacity="0.5"/>
<rect x="680.5" y="104.6" width="66.2" height="195.4" fill="#558592"/>
<rect x="696.6" y="116.6" width="6" height="8" fill="#91b0b8" opacity="0.5"/>
<rect x="710.6" y="116.6" width="6" height="8" fill="#91b0b8" opacity="0.5"/>
<rect x="724.6" y="116.6" width="6" height="8" fill="#91b0b8" opacity="0.5"/>
<rect x="696.6" y="132.6" width="6" height="8" fill="#91b0b8" opacity="0.5"/>
<rect x="724.6" y="132.6" width="6" height="8" fill="#91b0b8" opacity="0.5"/>
<rect x="696.6" y="148.6" width="6" height="8" fill="#91b0b8" opacity="0.5"/>
<rect x="710.6" y="148.6" width="6" height="8" fill="#91b0b8" opacity="0.5"/>
<rect x="724.6" y="148.6" width="6" height="8" fill="#91b0b8" opacity="0.5"/>
<rect x="696.6" y="164.6" width="6" height="8" fill="#91b0b8" opacity="0.5"/>
<rect x="696.6" y="180.6" width="6" height="8" fill="#91b0b8" opacity="0.5"/>
<rect x="710.6" y="180.6" width="6" height="8" fill="#91b0b8" opacity="0.5"/>
<rect x="696.6" y="196.6" width="6" height="8" fill="#91b0b8" opacity="0.5"/>
<rect x="724.6" y="196.6" width="6" height="8" fill="#91b0b8" opacity="0.5"/>
<rect x="710.6" y="212.6" width="6" height="8" fill="#91b0b8" opacity="0.5"/>
<rect x="696.6" y="228.6" width="6" height="8" fill="#91b0b8" opacity="0.5"/>
<rect x="724.6" y="228.6" width="6" height="8" fill="#91b0b8" opacity="0.5"/>
<rect x="696.6" y="244.6" width="6" height="8" fill="#91b0b8" opacity="0.5"/>
<rect x="710.6" y="244.6" width="6" height="8" fill="#91b0b8" opacity="0.5"/>
<rect x="724.6" y="244.6" width="6" height="8" fill="#91b0b8" opacity="0.5"/>
<rect x="696.6" y="260.6" width="6" height="8" fill="#91b0b8" opacity="0.5"/>
<rect x="710.6" y="260.6" width="6" height="8" fill="#91b0b8" opacity="0.5"/>
<rect x="724.6" y="260.6" width="6" height="8" fill="#91b0b8" opacity="0.5"/>
<rect x="881.0" y="188.4" width="44.3" height="111.6" fill="#558592"/>
<rect x="893.1" y="216.4" width="6" height="8" fill="#91b0b8" opacity="0.5"/>
<rect x="907.1" y="216.4" width="6" height="8" fill="#91b0b8" opacity="0.5"/>
<rect x="893.1" y="248.4" width="6" height="8" fill="#91b0b8" opacity="0.5"/>
<rect x="907.1" y="248.4" width="6" height="8" fill="#91b0b8" opacity="0.5"/>
<rect x="1028.0" y="190.9" width="38.6" height="109.1" fill="#558592"/>
<rect x="1044.3" y="202.9" width="6" height="8" fill="#91b0b8" opacity="0.5"/>
<rect x="1044.3" y="218.9" width="6" height="8" fill="#91b0b8" opacity="0.5"/>
<rect x="1044.3" y="250.9" width="6" height="8" fill="#91b0b8" opacity="0.5"/>
<rect x="112.4" y="156.4" width="71.2" height="143.6" fill="#2b6777"/>
<rect x="131.0" y="168.4" width="6" height="8" fill="#759ca7" opacity="0.5"/>
<rect x="145.0" y="168.4" width="6" height="8" fill="#759ca7" opacity="0.5"/>
<rect x="159.0" y="168.4" width="6" height="8" fill="#759ca7" opacity="0.5"/>
<rect x="131.0" y="184.4" width="6" height="8" fill="#759ca7" opacity="0.5"/>
<rect x="159.0" y="200.4" width="6" height="8" fill="#759ca7" opacity="0.5"/>
<rect x="131.0" y="216.4" width="6" height="8" fill="#759ca7" opacity="0.5"/>
<rect x="159.0" y="216.4" width="6" height="8" fill="#759ca7" opacity="0.5"/>
<rect x="145.0" y="232.4" width="6" height="8" fill="#759ca7" opacity="0.5"/>
<rect x="159.0" y="232.4" width="6" height="8" fill="#759ca7" opacity="0.5"/>
<rect x="131.0" y="248.4" width="6" height="8" fill="#759ca7" opacity="0.5"/>
<rect x="159.0" y="248.4" width="6" height="8" fill="#759ca7" opacity="0.5"/>
<rect x="145.0" y="264.4" width="6" height="8" fill="#759ca7" opacity="0.5"/>
<rect x="159.0" y="264.4" width="6" height="8" fill="#759ca7" opacity="0.5"/>
<rect x="263.8" y="205.4" width="51.1" height="94.6" fill="#2b6777"/>
<rect x="293.4" y="217.4" width="6" height="8" fill="#759ca7" opacity="0.5"/>
<rect x="279.4" y="233.4" width="6" height="8" fill="#759ca7" opacity="0.5"/>
<rect x="293.4" y="233.4" width="6" height="8" fill="#759ca7" opacity="0.5"/>
<rect x="279.4" y="249.4" width="6" height="8" fill="#759ca7" opacity="0.5"/>
<rect x="293.4" y="249.4" width="6" height="8" fill="#759ca7" opacity="0.5"/>
<rect x="279.4" y="265.4" width="6" height="8" fill="#759ca7" opacity="0.5"/>
<rect x="293.4" y="265.4" width="6" height="8" fill="#759ca7" opacity="0.5"/>
<rect x="487.8" y="112.1" width="55.6" height="187.9" fill="#2b6777"/>
<rect x="519.6" y="124.1" width="6" height="8" fill="#759ca7" opacity="0.5"/>
<rect x="519.6" y="140.1" width="6" height="8" fill="#759ca7" opacity="0.5"/>
<rect x="505.6" y="156.1" width="6" height="8" fill="#759ca7" opacity="0.5"/>
<rect x="519.6" y="156.1" width="6" height="8" fill="#759ca7" opacity="0.5"/>
<rect x="505.6" y="172.1" width="6" height="8" fill="#759ca7" opacity="0.5"/>
<rect x="505.6" y="188.1" width="6" height="8" fill="#759ca7" opacity="0.5"/>
<rect x="505.6" y="204.1" width="6" height="8" fill="#759ca7" opacity="0.5"/>
<rect x="505.6" y="220.1" width="6" height="8" fill="#759ca7" opacity="0.5"/>
<rect x="519.6" y="220.1" width="6" height="8" fill="#759ca7" opacity="0.5"/>
<rect x="505.6" y="236.1" width="6" height="8" fill="#759ca7" opacity="0.5"/>
<rect x="519.6" y="236.1" width="6" height="8" fill="#759ca7" opacity="0.5"/>
<rect x="505.6" y="268.1" width="6" height="8" fill="#759ca7" opacity="0.5"/>
<rect x="519.6" y="268.1" width="6" height="8" fill="#759ca7" opacity="0.5"/>
<rect x="670.7" y="135.6" width="48.9" height="164.4" fill="#2b6777"/>
<rect x="699.2" y="147.6" width="6" height="8" fill="#759ca7" opacity="0.5"/>
<rect x="685.2" y="163.6" width="6" height="8" fill="#759ca7" opacity="0.5"/>
<rect x="699.2" y="163.6" width="6" height="8" fill="#759ca7" opacity="0.5"/>
<rect x="685.2" y="179.6" width="6" height="8" fill="#759ca7" opacity="0.5"/>
<rect x="699.2" y="179.6" width="6" height="8" fill="#759ca7" opacity="0.5"/>
<rect x="685.2" y="195.6" width="6" height="8" fill="#759ca7" opacity="0.5"/>
<rect x="699.2" y="195.6" width="6" height="8" fill="#759ca7" opacity="0.5"/>
<rect x="685.2" y="211.6" width="6" height="8" fill="#759ca7" opacity="0.5"/>
<rect x="685.2" y="227.6" width="6" height="8" fill="#759ca7" opacity="0.5"/>
<rect x="699.2" y="227.6" width="6" height="8" fill="#759ca7" opacity="0.5"/>
<rect x="685.2" y="243.6" width="6" height="8" fill="#759ca7" opacity="0.5"/>
<rect x="699.2" y="243.6" width="6" height="8" fill="#759ca7" opacity="0.5"/>
<rect x="685.2" y="259.6" width="6" height="8" fill="#759ca7" opacity="0.5"/>
<rect x="699.2" y="259.6" width="6" height="8" fill="#759ca7" opacity="0.5"/>
<rect x="859.3" y="139.5" width="62.1" height="160.5" fill="#2b6777"/>
<rect x="887.4" y="151.5" width="6" height="8" fill="#759ca7" opacity="0.5"/>
<rect x="901.4" y="151.5" width="6" height="8" fill="#759ca7" opacity="0.5"/>
<rect x="873.4" y="167.5" width="6" height="8" fill="#759ca7" opacity="0.5"/>
<rect x="887.4" y="167.5" width="6" height="8" fill="#759ca7" opacity="0.5"/>
<rect x="901.4" y="167.5" width="6" height="8" fill="#759ca7" opacity="0.5"/>
<rect x="873.4" y="183.5" width="6" height="8" fill="#759ca7" opacity="0.5"/>
<rect x="887.4" y="183.5" width="6" height="8" fill="#759ca7" opacity="0.5"/>
<rect x="901.4" y="183.5" width="6" height="8" fill="#759ca7" opacity="0.5"/>
<rect x="873.4" y="199.5" width="6" height="8" fill="#759ca7" opacity="0.5"/>
<rect x="901.4" y="199.5" width="6" height="8" fill="#759ca7" opacity="0.5"/>
<rect x="873.4" y="215.5" width="6" height="8" fill="#759ca7" opacity="0.5"/>
<rect x="887.4" y="215.5" width="6" height="8" fill="#759ca7" opacity="0.5"/>
<rect x="873.4" y="231.5" width="6" height="8" fill="#759ca7" opacity="0.5"/>
<rect x="901.4" y="231.5" width="6" height="8" fill="#759ca7" opacity="0.5"/>
<rect x="887.4" y="247.5" width="6" height="8" fill="#759ca7" opacity="0.5"/>
<rect x="901.4" y="247.5" width="6" height="8" fill="#759ca7" opacity="0.5"/>
<rect x="873.4" y="263.5" width="6" height="8" fill="#759ca7" opacity="0.5"/>
<rect x="887.4" y="263.5" width="6" height="8" fill="#759ca7" opacity="0.5"/>
<rect x="901.4" y="263.5" width="6" height="8" fill="#759ca7" opacity="0.5"/>
<rect x="1051.5" y="176.8" width="40.1" height="123.2" fill="#2b6777"/>
<rect x="1068.6" y="188.8" width="6" height="8" fill="#759ca7" opacity="0.5"/>
<rect x="1068.6" y="220.8" width="6" height="8" fill="#759ca7" opacity="0.5"/>
<rect x="1068.6" y="236.8" width="6" height="8" fill="#759ca7" opacity="0.5"/>
<rect x="1068.6" y="252.8" width="6" height="8" fill="#759ca7" opacity="0.5"/>
<rect x="0" y="298" width="1200" height="2" fill="#275d6b" opacity="0.15"/>
</svg>