<svg xmlns="http://www.w3.org/2000/svg" viewBox="0 0 1200 300" width="1200" height="300">
<defs><linearGradient id="skyGrad" x1="0" y1="0" x2="0" y2="1"><stop offset="0%" stop-color="#ddf0f0"/><stop offset="100%" stop-color="#f0e8d8"/></linearGradient></defs><rect width="1200" height="300" fill="url(#skyGrad)"/>
<rect x="0" y="232.0" width="1200" height="68.0" fill="#92aebd" opacity="0.6"/>
<path d="M0 249.0 Q75.0 249.8 150.0 249.7 Q225.0 249.3 300.0 250.6 Q375.0 247.1 450.0 248.7 Q525.0 250.0 600.0 248.1 Q675.0 249.8 750.0 249.6 Q825.0 251.7 900.0 249.4 Q975.0 246.4 1050.0 250.7 Q1125.0 247.0 1200.0 247.9" fill="none" stroke="#abc1cd" stroke-width="1" opacity="0.4"/>
<path d="M0 266.0 Q75.0 265.5 150.0 265.3 Q225.0 266.5 300.0 265.2 Q375.0 268.8 450.0 267.1 Q525.0 264.1 600.0 266.4 Q675.0 266.8 750.0 264.7 Q825.0 264.0 900.0 265.1 Q975.0 265.9 1050.0 265.8 Q1125.0 265.7 1200.0 267.6" fill="none" stroke="#abc1cd" stroke-width="1" opacity="0.4"/>
<path d="M0 283.0 Q75.0 284.4 150.0 283.0 Q225.0 284.8 300.0 281.2 Q375.0 280.3 450.0 282.9 Q525.0 281.8 600.0 284.0 Q675.0 285.6 750.0 282.8 Q825.0 283.7 900.0 284.8 Q975.0 281.7 1050.0 281.0 Q1125.0 280.4 1200.0 283.3" fill="none" stroke="#abc1cd" stroke-width="1" opacity="0.4"/>
<rect x="120.8" y="183.9" width="85.9" height="116.1" fill="#aeb0a5"/>
<rect x="621.7" y="197.0" width="66.3" height="103.0" fill="#aeb0a5"/>
<polygon points="621.7,197.0 654.8,180.4 688.0,197.0" fill="#a0a298"/>
<rect x="966.0" y="228.6" width="46.1" height="71.4" fill="#aeb0a5"/>
<polygon points="966.0,228.6 989.0,217.0 1012.1,228.6" fill="#a0a298"/>
<rect x="162.9" y="168.3" width="70.0" height="131.7" fill="#898d7d"/>
<polygon points="162.9,168.3 197.9,150.8 232.9,168.3" fill="#7e8273"/>
<rect x="194.9" y="180.3" width="6" height="8" fill="#b2b5ab" opacity="0.5"/>
<rect x="208.9" y="180.3" width="6" height="8" fill="#b2b5ab" opacity="0.5"/>
<rect x="194.9" y="196.3" width="6" height="8" fill="#b2b5ab" opacity="0.5"/>
<rect x="208.9" y="196.3" width="6" height="8" fill="#b2b5ab" opacity="0.5"/>
<rect x="180.9" y="212.3" width="6" height="8" fill="#b2b5ab" opacity="0.5"/>
<rect x="194.9" y="212.3" width="6" height="8" fill="#b2b5ab" opacity="0.5"/>
<rect x="180.9" y="228.3" width="6" height="8" fill="#b2b5ab" opacity="0.5"/>
<rect x="194.9" y="228.3" width="6" height="8" fill="#b2b5ab" opacity="0.5"/>
<rect x="208.9" y="228.3" width="6" height="8" fill="#b2b5ab" opacity="0.5"/>
<rect x="208.9" y="244.3" width="6" height="8" fill="#b2b5ab" opacity="0.5"/>
<rect x="180.9" y="260.3" width="6" height="8" fill="#b2b5ab" opacity="0.5"/>
<rect x="194.9" y="260.3" width="6" height="8" fill="#b2b5ab" opacity="0.5"/>
<rect x="208.9" y="260.3" width="6" height="8" fill="#b2b5ab" opacity="0.5"/>
<rect x="450.8" y="180.6" width="68.4" height="119.4" fill="#898d7d"/>
<rect x="468.0" y="192.6" width="6" height="8" fill="#b2b5ab" opacity="0.5"/>
<rect x="482.0" y="192.6" width="6" height="8" fill="#b2b5ab" opacity="0.5"/>
<rect x="496.0" y="192.6" width="6" height="8" fill="#b2b5ab" opacity="0.5"/>
<rect x="468.0" y="208.6" width="6" height="8" fill="#b2b5ab" opacity="0.5"/>
<rect x="482.0" y="208.6" width="6" height="8" fill="#b2b5ab" opacity="0.5"/>
<rect x="496.0" y="208.6" width="6" height="8" fill="#b2b5ab" opacity="0.5"/>
<rect x="496.0" y="224.6" width="6" height="8" fill="#b2b5ab" opacity="0.5"/>
<rect x="468.0" y="240.6" width="6" height="8" fill="#b2b5ab" opacity="0.5"/>
<rect x="482.0" y="240.6" width="6" height="8" fill="#b2b5ab" opacity="0.5"/>
<rect x="496.0" y="240.6" width="6" height="8" fill="#b2b5ab" opacity="0.5"/>
<rect x="468.0" y="256.6" width="6" height="8" fill="#b2b5ab" opacity="0.5"/>
<rect x="482.0" y="256.6" width="6" height="8" fill="#b2b5ab" opacity="0.5"/>
<rect x="468.0" y="272.6" width="6" height="8" fill="#b2b5ab" opacity="0.5"/>
<rect x="482.0" y="272.6" width="6" height="8" fill="#b2b5ab" opacity="0.5"/>
<rect x="496.0" y="272.6" width="6" height="8" fill="#b2b5ab" opacity="0.5"/>
<rect x="742.3" y="183.2" width="73.9" height="116.8" fill="#898d7d"/>
<rect x="776.3" y="211.2" width="6" height="8" fill="#b2b5ab" opacity="0.5"/>
<rect x="790.3" y="211.2" width="6" height="8" fill="#b2b5ab" opacity="0.5"/>
<rect x="762.3" y="227.2" width="6" height="8" fill="#b2b5ab" opacity="0.5"/>
<rect x="776.3" y="227.2" width="6" height="8" fill="#b2b5ab" opacity="0.5"/>
<rect x="790.3" y="227.2" width="6" height="8" fill="#b2b5ab" opacity="0.5"/>
<rect x="762.3" y="243.2" width="6" height="8" fill="#b2b5ab" opacity="0.5"/>
<rect x="762.3" y="259.2" width="6" height="8" fill="#b2b5ab" opacity="0.5"/>
<rect x="1040.7" y="206.9" width="45.4" height="93.1" fill="#898d7d"/>
<polygon points="1040.7,206.9 1063.4,195.6 1086.0,206.9" fill="#7e8273"/>
<rect x="1053.4" y="218.9" width="6" height="8" fill="#b2b5ab" opacity="0.5"/>
<rect x="1067.4" y="218.9" width="6" height="8" fill="#b2b5ab" opacity="0.5"/>
<rect x="1053.4" y="234.9" width="6" height="8" fill="#b2b5ab" opacity="0.5"/>
<rect x="1053.4" y="250.9" width="6" height="8" fill="#b2b5ab" opacity="0.5"/>
<rect x="1053.4" y="266.9" width="6" height="8" fill="#b2b5ab" opacity="0.5"/>
<rect x="1067.4" y="266.9" width="6" height="8" fill="#b2b5ab" opacity="0.5"/>
<rect x="139.4" y="129.4" width="65.0" height="170.6" fill="#6b705c"/>
<rect x="154.9" y="157.4" width="6" height="8" fill="#9fa295" opacity="0.5"/>
<rect x="168.9" y="157.4" width="6" height="8" fill="#9fa295" opacity="0.5"/>
<rect x="154.9" y="173.4" width="6" height="8" fill="#9fa295" opacity="0.5"/>
<rect x="182.9" y="173.4" width="6" height="8" fill="#9fa295" opacity="0.5"/>
<rect x="154.9" y="205.4" width="6" height="8" fill="#9fa295" opacity="0.5"/>
<rect x="168.9" y="205.4" width="6" height="8" fill="#9fa295" opacity="0.5"/>
<rect x="154.9" y="221.4" width="6" height="8" fill="#9fa295" opacity="0.5"/>
<rect x="168.9" y="221.4" width="6" height="8" fill="#9fa295" opacity="0.5"/>
<rect x="182.9" y="221.4" width="6" height="8" fill="#9fa295" opacity="0.5"/>
<rect x="620.8" y="184.7" width="56.3" height="115.3" fill="#6b705c"/>
<rect x="638.9" y="196.7" width="6" height="8" fill="#9fa295" opacity="0.5"/>
<rect x="652.9" y="196.7" width="6" height="8" fill="#9fa295" opacity="0.5"/>
<rect x="638.9" y="212.7" width="6" height="8" fill="#9fa295" opacity="0.5"/>
<rect x="652.9" y="212.7" width="6" height="8" fill="#9fa295" opacity="0.5"/>
<rect x="638.9" y="228.7" width="6" height="8" fill="#9fa295" opacity="0.5"/>
<rect x="652.9" y="228.7" width="6" height="8" fill="#9fa295" opacity="0.5"/>
<rect x="638.9" y="244.7" width="6" height="8" fill="#9fa295" opacity="0.5"/>
<rect x="652.9" y="244.7" width="6" height="8" fill="#9fa295" opacity="0.5"/>
<rect x="652.9" y="260.7" width="6" height="8" fill="#9fa295" opacity="0.5"/>
<rect x="991.5" y="220.2" width="40.5" height="79.8" fill="#6b705c"/>
<rect x="1008.7" y="232.2" width="6" height="8" fill="#9fa295" opacity="0.5"/>
<rect x="1008.7" y="248.2" width="6" height="8" fill="#9fa295" opacity="0.5"/>
<rect x="1008.7" y="264.2" width="6" height="8" fill="#9fa295" opacity="0.5"/>
<path d="M412.6 285.0 Q433.9 264.9 427.5 244.8" fill="none" stroke="#806a4f" stroke-width="3"/>
<path d="M427.5 244.8 Q418.1 236.3 411.9 237.9" fill="none" stroke="#48883d" stroke-width="2.5"/>
<path d="M427.5 244.8 Q432.6 232.0 435.9 229.2" fill="none" stroke="#48883d" stroke-width="2.5"/>
<path d="M427.5 244.8 Q441.5 239.8 450.8 244.8" fill="none" stroke="#48883d" stroke-width="2.5"/>
<path d="M427.5 244.8 Q431.8 246.3 434.6 257.9" fill="none" stroke="#48883d" stroke-width="2.5"/>
<path d="M427.5 244.8 Q418.8 242.9 412.9 251.1" fill="none" stroke="#48883d" stroke-width="2.5"/>
<path d="M834.3 285.0 Q859.9 259.3 852.2 233.6" fill="none" stroke="#7d674c" stroke-width="3"/>
<path d="M852.2 233.6 Q837.6 223.3 827.9 223.0" fill="none" stroke="#48883d" stroke-width="2.5"/>
<path d="M852.2 233.6 Q855.9 222.8 858.4 222.1" fill="none" stroke="#48883d" stroke-width="2.5"/>
<path d="M852.2 233.6 Q863.7 228.6 871.3 233.6" fill="none" stroke="#48883d" stroke-width="2.5"/>
<path d="M852.2 233.6 Q856.1 234.6 858.7 245.6" fill="none" stroke="#48883d" stroke-width="2.5"/>
<path d="M852.2 233.6 Q841.0 232.6 833.6 241.6" fill="none" stroke="#48883d" stroke-width="2.5"/>
<path d="M118.2 285.0 Q142.5 264.7 135.2 244.5" fill="none" stroke="#806a4e" stroke-width="3"/>
<path d="M135.2 244.5 Q125.9 236.1 119.7 237.7" fill="none" stroke="#46853c" stroke-width="2.5"/>
<path d="M135.2 244.5 Q139.6 232.6 142.6 230.8" fill="none" stroke="#46853c" stroke-width="2.5"/>
<path d="M135.2 244.5 Q148.4 239.5 157.2 244.5" fill="none" stroke="#46853c" stroke-width="2.5"/>
<path d="M135.2 244.5 Q139.9 246.7 143.1 259.0" fill="none" stroke="#46853c" stroke-width="2.5"/>
<path d="M135.2 244.5 Q121.1 244.6 111.6 254.7" fill="none" stroke="#46853c" stroke-width="2.5"/>
<path d="M756.5 285.0 Q772.6 255.7 767.8 226.5" fill="none" stroke="#80694e" stroke-width="3"/>
<path d="M767.8 226.5 Q759.0 218.3 753.2 220.1" fill="none" stroke="#48883d" stroke-width="2.5"/>
<path d="M767.8 226.5 Q771.8 215.4 774.4 214.2" fill="none" stroke="#48883d" stroke-width="2.5"/>
<path d="M767.8 226.5 Q785.2 221.5 796.9 226.5" fill="none" stroke="#48883d" stroke-width="2.5"/>
<path d="M767.8 226.5 Q773.1 229.7 776.6 242.8" fill="none" stroke="#48883d" stroke-width="2.5"/>
<path d="M767.8 226.5 Q756.6 225.5 749.1 234.6" fill="none" stroke="#48883d" stroke-width="2.5"/>
<path d="M898.2 285.0 Q926.3 255.3 917.9 225.7" fill="none" stroke="#877053" stroke-width="3"/>
<path d="M917.9 225.7 Q905.7 216.2 897.6 216.8" fill="none" stroke="#44813a" stroke-width="2.5"/>
<path d="M917.9 225.7 Q922.4 213.8 925.4 211.8" fill="none" stroke="#44813a" stroke-width="2.5"/>
<path d="M917.9 225.7 Q935.5 220.7 947.2 225.7" fill="none" stroke="#44813a" stroke-width="2.5"/>
<path d="M917.9 225.7 Q922.9 228.4 926.3 241.2" fill="none" stroke="#44813a" stroke-width="2.5"/>
<path d="M917.9 225.7 Q907.2 224.6 900.1 233.4" fill="none" stroke="#44813a" stroke-width="2.5"/>
<path d="M916.1 285.0 Q935.2 263.7 929.5 242.3" fill="none" stroke="#806a4e" stroke-width="3"/>
<path d="M929.5 242.3 Q920.0 233.9 913.8 235.4" fill="none" stroke="#498a3e" stroke-width="2.5"/>
<path d="M929.5 242.3 Q933.5 231.1 936.2 229.8" fill="none" stroke="#498a3e" stroke-width="2.5"/>
<path d="M929.5 242.3 Q940.7 237.3 948.2 242.3" fill="none" stroke="#498a3e" stroke-width="2.5"/>
<path d="M929.5 242.3 Q932.9 242.5 935.1 252.7" fill="none" stroke="#498a3e" stroke-width="2.5"/>
<path d="M929.5 242.3 Q918.2 241.4 910.7 250.5" fill="none" stroke="#498a3e" stroke-width="2.5"/>
<rect x="0" y="285" width="1200" height="15" fill="#d4c5a9" opacity="0.4"/>
<circle cx="1069.1" cy="24.3" r="30.1" fill="#f5e6a0" opacity="0.1"/>
</svg>