<svg xmlns="http://www.w3.org/2000/svg" viewBox="0 0 1200 300" width="1200" height="300">
<defs>
<linearGradient id="skyGrad" x1="0" y1="0" x2="0" y2="1">
<stop offset="0%" stop-color="#a78bfa"/>
<stop offset="18%" stop-color="#ddb4f0"/>
<stop offset="35%" stop-color="#fda4af"/>
<stop offset="52%" stop-color="#fdba74"/>
<stop offset="72%" stop-color="#fef08a"/>
<stop offset="100%" stop-color="#fef9c3"/>
</linearGradient>
<linearGradient id="bldg_coral" x1="0" y1="0" x2="0" y2="1"><stop offset="0%" stop-color="#fecaca"/><stop offset="100%" stop-color="#fca5a5"/></linearGradient>
<linearGradient id="bldg_teal" x1="0" y1="0" x2="0" y2="1"><stop offset="0%" stop-color="#99f6e4"/><stop offset="100%" stop-color="#5eead4"/></linearGradient>
<linearGradient id="bldg_amber" x1="0" y1="0" x2="0" y2="1"><stop offset="0%" stop-color="#fde68a"/><stop offset="100%" stop-color="#fcd34d"/></linearGradient>
<linearGradient id="bldg_lavender" x1="0" y1="0" x2="0" y2="1"><stop offset="0%" stop-color="#ddd6fe"/><stop offset="100%" stop-color="#c4b5fd"/></linearGradient>
<linearGradient id="bldg_blue" x1="0" y1="0" x2="0" y2="1"><stop offset="0%" stop-color="#bfdbfe"/><stop offset="100%" stop-color="#93c5fd"/></linearGradient>
<linearGradient id="bldg_mint" x1="0" y1="0" x2="0" y2="1"><stop offset="0%" stop-color="#a7f3d0"/><stop offset="100%" stop-color="#6ee7b7"/></linearGradient>
<linearGradient id="bldg_rose" x1="0" y1="0" x2="0" y2="1"><stop offset="0%" stop-color="#fecdd3"/><stop offset="100%" stop-color="#fda4af"/></linearGradient>
<linearGradient id="bldg_sky" x1="0" y1="0" x2="0" y2="1"><stop offset="0%" stop-color="#bae6fd"/><stop offset="100%" stop-color="#7dd3fc"/></linearGradient>
<linearGradient id="roof_navyRoof" x1="0" y1="0" x2="0" y2="1"><stop offset="0%" stop-color="#4338ca"/><stop offset="100%" stop-color="#3730a3"/></linearGradient>
<linearGradient id="roof_coralRoof" x1="0" y1="0" x2="0" y2="1"><stop offset="0%" stop-color="#f87171"/><stop offset="100%" stop-color="#ef4444"/></linearGradient>
<linearGradient id="roof_tealRoof" x1="0" y1="0" x2="0" y2="1"><stop offset="0%" stop-color="#2dd4bf"/><stop offset="100%" stop-color="#14b8a6"/></linearGradient>
<radialGradient id="windowGlow" cx="50%" cy="50%" r="50%"><stop offset="0%" stop-color="#fef08a"/><stop offset="60%" stop-color="#fbbf24"/><stop offset="100%" stop-color="#f59e0b"/></radialGradient>
<linearGradient id="hillFar" x1="0" y1="0" x2="0" y2="1"><stop offset="0%" stop-color="#c4b5fd"/><stop offset="100%" stop-color="#a5b4fc"/></linearGradient>
<linearGradient id="hillMid" x1="0" y1="0" x2="0" y2="1"><stop offset="0%" stop-color="#86efac"/><stop offset="100%" stop-color="#4ade80"/></linearGradient>
<linearGradient id="hillNear" x1="0" y1="0" x2="0" y2="1"><stop offset="0%" stop-color="#34d399"/><stop offset="100%" stop-color="#10b981"/></linearGradient>
<linearGradient id="hillDesertFar" x1="0" y1="0" x2="0" y2="1"><stop offset="0%" stop-color="#fde68a"/><stop offset="100%" stop-color="#fcd34d"/></linearGradient>
<linearGradient id="hillDesertMid" x1="0" y1="0" x2="0" y2="1"><stop offset="0%" stop-color="#fcd34d"/><stop offset="100%" stop-color="#fbbf24"/></linearGradient>
<linearGradient id="hillDesertNear" x1="0" y1="0" x2="0" y2="1"><stop offset="0%" stop-color="#fbbf24"/><stop offset="100%" stop-color="#f59e0b"/></linearGradient>
<linearGradient id="groundGrad" x1="0" y1="0" x2="0" y2="1"><stop offset="0%" stop-color="#fef3c7"/><stop offset="100%" stop-color="#fde68a"/></linearGradient>
<linearGradient id="waterGrad" x1="0" y1="0" x2="0" y2="1"><stop offset="0%" stop-color="#bfdbfe"/><stop offset="100%" stop-color="#93c5fd"/></linearGradient>
<filter id="softGlow" x="-50%" y="-50%" width="200%" height="200%"><feGaussianBlur in="SourceGraphic" stdDeviation="12"/></filter>
</defs>
<rect width="1200" height="300" fill="url(#skyGrad)"/>
<circle cx="1059.7" cy="55.4" r="45" fill="#fef08a" opacity="0.12" filter="url(#softGlow)"/>
<circle cx="1059.7" cy="55.4" r="30" fill="#fde68a" opacity="0.18" filter="url(#softGlow)"/>
<circle cx="1059.7" cy="55.4" r="16" fill="#fef9c3" opacity="0.25" filter="url(#softGlow)"/>
<path d="M0 300 L0.0 186.2 C181.1 186.2, 181.1 182.4, 362.3 182.4 C475.1 182.4, 475.1 190.5, 587.8 190.5 C727.8 190.5, 727.8 179.7, 867.8 179.7 C1033.9 179.7, 1033.9 191.1, 1200.0 191.1 L1200 300 Z" fill="url(#hillFar)" opacity="0.5"/>
<path d="M0 300 L0.0 207.7 C209.8 207.7, 209.8 202.2, 419.7 202.2 C654.2 202.2, 654.2 215.2, 888.7 215.2 C1044.3 215.2, 1044.3 218.9, 1200.0 218.9 L1200 300 Z" fill="url(#hillMid)" opacity="0.7"/>
<path d="M0 300 L0.0 234.9 C181.8 234.9, 181.8 233.2, 363.6 233.2 C561.2 233.2, 561.2 231.7, 758.8 231.7 C979.4 231.7, 979.4 230.5, 1200.0 230.5 L1200 300 Z" fill="url(#hillNear)" opacity="1"/>
<rect x="0" y="227.5" width="1200" height="72.5" fill="url(#waterGrad)" opacity="0.6"/>
<path d="M0 245.6 Q60.0 244.0 120.0 244.7 Q180.0 244.5 240.0 246.1 Q300.0 245.4 360.0 244.6 Q420.0 247.7 480.0 245.6 Q540.0 245.7 600.0 245.5 Q660.0 243.4 720.0 246.4 Q780.0 245.5 840.0 246.6 Q900.0 246.8 960.0 244.3 Q1020.0 245.4 1080.0 245.0 Q1140.0 247.9 1200.0 246.9" fill="none" stroke="#bfdbfe" stroke-width="1" opacity="0.5"/>
<path d="M0 263.8 Q60.0 261.3 120.0 264.1 Q180.0 264.2 240.0 263.1 Q300.0 261.5 360.0 262.5 Q420.0 261.3 480.0 265.0 Q540.0 263.9 600.0 264.8 Q660.0 264.5 720.0 265.2 Q780.0 264.2 840.0 262.6 Q900.0 265.1 960.0 262.8 Q1020.0 264.3 1080.0 264.6 Q1140.0 265.4 1200.0 264.5" fill="none" stroke="#bfdbfe" stroke-width="1" opacity="0.5"/>
<path d="M0 281.9 Q60.0 283.7 120.0 281.8 Q180.0 281.6 240.0 283.2 Q300.0 284.0 360.0 281.1 Q420.0 283.3 480.0 280.9 Q540.0 283.5 600.0 280.6 Q660.0 284.0 720.0 282.1 Q780.0 280.5 840.0 281.7 Q900.0 280.4 960.0 282.7 Q1020.0 279.9 1080.0 282.5 Q1140.0 280.5 1200.0 280.5" fill="none" stroke="#bfdbfe" stroke-width="1" opacity="0.5"/>
<rect x="274.5" y="236.6" width="74.5" height="63.4" rx="3" fill="url(#bldg_coral)" opacity="0.7"/>
<rect x="274.5" y="233.6" width="74.5" height="3" rx="1" fill="url(#roof_navyRoof)" opacity="0.7"/>
<rect x="287.7" y="246.6" width="6" height="8" rx="1" fill="url(#windowGlow)" opacity="0.8835489613393084"/>
<rect x="301.7" y="246.6" width="6" height="8" rx="1" fill="url(#windowGlow)" opacity="0.9558537584523921"/>
<rect x="315.7" y="246.6" width="6" height="8" rx="1" fill="url(#windowGlow)" opacity="0.7241659822520641"/>
<rect x="329.7" y="246.6" width="6" height="8" rx="1" fill="url(#windowGlow)" opacity="0.9397281217108145"/>
<rect x="888.0" y="226.6" width="69.4" height="73.4" rx="3" fill="url(#bldg_teal)" opacity="0.7"/>
<rect x="888.0" y="223.6" width="69.4" height="3" rx="1" fill="url(#roof_coralRoof)" opacity="0.7"/>
<rect x="905.7" y="236.6" width="6" height="8" rx="1" fill="url(#windowGlow)" opacity="0.769287971905101"/>
<rect x="919.7" y="251.6" width="6" height="8" rx="1" fill="url(#windowGlow)" opacity="0.9317528693618964"/>
<rect x="933.7" y="251.6" width="6" height="8" rx="1" fill="url(#windowGlow)" opacity="0.8753159766436163"/>
<rect x="160.9" y="161.2" width="69.1" height="138.8" rx="3" fill="url(#bldg_amber)" opacity="0.85"/>
<rect x="174.8" y="144.6" width="41.5" height="16.7" rx="2" fill="url(#roof_tealRoof)" opacity="0.85"/>
<rect x="178.5" y="171.2" width="6" height="8" rx="1" fill="url(#windowGlow)" opacity="0.7254870172708701"/>
<rect x="206.5" y="171.2" width="6" height="8" rx="1" fill="url(#windowGlow)" opacity="0.7952052840940679"/>
<rect x="192.5" y="186.2" width="6" height="8" rx="1" fill="url(#windowGlow)" opacity="0.9656612849168764"/>
<rect x="206.5" y="186.2" width="6" height="8" rx="1" fill="url(#windowGlow)" opacity="0.8139357083076311"/>
<rect x="178.5" y="201.2" width="6" height="8" rx="1" fill="url(#windowGlow)" opacity="0.8208412769813282"/>
<rect x="192.5" y="201.2" width="6" height="8" rx="1" fill="url(#windowGlow)" opacity="0.9706579751664111"/>
<rect x="206.5" y="201.2" width="6" height="8" rx="1" fill="url(#windowGlow)" opacity="0.9595168592685446"/>
<rect x="206.5" y="216.2" width="6" height="8" rx="1" fill="url(#windowGlow)" opacity="0.95632329883814"/>
<rect x="178.5" y="231.2" width="6" height="8" rx="1" fill="url(#windowGlow)" opacity="0.7336422564618486"/>
<rect x="192.5" y="231.2" width="6" height="8" rx="1" fill="url(#windowGlow)" opacity="0.7864138988249069"/>
<rect x="206.5" y="231.2" width="6" height="8" rx="1" fill="url(#windowGlow)" opacity="0.7245828256125482"/>
<rect x="178.5" y="246.2" width="6" height="8" rx="1" fill="url(#windowGlow)" opacity="0.7846274788885504"/>
<rect x="192.5" y="246.2" width="6" height="8" rx="1" fill="url(#windowGlow)" opacity="0.8372944413392313"/>
<rect x="206.5" y="246.2" width="6" height="8" rx="1" fill="url(#windowGlow)" opacity="0.8528980428133616"/>
<rect x="573.4" y="224.1" width="61.4" height="75.9" rx="3" fill="url(#bldg_lavender)" opacity="0.85"/>
<rect x="573.4" y="221.1" width="61.4" height="3" rx="1" fill="url(#roof_navyRoof)" opacity="0.85"/>
<rect x="587.1" y="234.1" width="6" height="8" rx="1" fill="url(#windowGlow)" opacity="0.9127816341876898"/>
<rect x="601.1" y="234.1" width="6" height="8" rx="1" fill="url(#windowGlow)" opacity="0.8884561891613789"/>
<rect x="615.1" y="234.1" width="6" height="8" rx="1" fill="url(#windowGlow)" opacity="0.8499753793468584"/>
<rect x="587.1" y="249.1" width="6" height="8" rx="1" fill="url(#windowGlow)" opacity="0.8293522097772695"/>
<rect x="601.1" y="249.1" width="6" height="8" rx="1" fill="url(#windowGlow)" opacity="0.7477037179505935"/>
<rect x="615.1" y="249.1" width="6" height="8" rx="1" fill="url(#windowGlow)" opacity="0.8879022649433008"/>
<rect x="932.6" y="165.2" width="53.9" height="134.8" rx="3" fill="url(#bldg_blue)" opacity="0.85"/>
<rect x="943.4" y="149.0" width="32.3" height="16.2" rx="2" fill="url(#roof_coralRoof)" opacity="0.85"/>
<rect x="949.5" y="175.2" width="6" height="8" rx="1" fill="url(#windowGlow)" opacity="0.9966384266953163"/>
<rect x="949.5" y="190.2" width="6" height="8" rx="1" fill="url(#windowGlow)" opacity="0.9313359635562337"/>
<rect x="963.5" y="190.2" width="6" height="8" rx="1" fill="url(#windowGlow)" opacity="0.7036668025439916"/>
<rect x="949.5" y="205.2" width="6" height="8" rx="1" fill="url(#windowGlow)" opacity="0.8518310241642553"/>
<rect x="963.5" y="205.2" width="6" height="8" rx="1" fill="url(#windowGlow)" opacity="0.7331136448928683"/>
<rect x="949.5" y="220.2" width="6" height="8" rx="1" fill="url(#windowGlow)" opacity="0.8335225878439483"/>
<rect x="963.5" y="220.2" width="6" height="8" rx="1" fill="url(#windowGlow)" opacity="0.700121674360764"/>
<rect x="949.5" y="235.2" width="6" height="8" rx="1" fill="url(#windowGlow)" opacity="0.9119469915106645"/>
<rect x="963.5" y="235.2" width="6" height="8" rx="1" fill="url(#windowGlow)" opacity="0.7871384675554645"/>
<rect x="949.5" y="250.2" width="6" height="8" rx="1" fill="url(#windowGlow)" opacity="0.7510669329907125"/>
<rect x="235.4" y="162.0" width="56.3" height="138.0" rx="3" fill="url(#bldg_mint)" opacity="1"/>
<polygon points="235.4,162.0 263.6,150.5 291.7,162.0" fill="url(#roof_tealRoof)" opacity="1"/>
<rect x="253.6" y="172.0" width="6" height="8" rx="1" fill="url(#windowGlow)" opacity="0.8538199193094949"/>
<rect x="267.6" y="172.0" width="6" height="8" rx="1" fill="url(#windowGlow)" opacity="0.7277598162776603"/>
<rect x="253.6" y="187.0" width="6" height="8" rx="1" fill="url(#windowGlow)" opacity="0.8002466437407986"/>
<rect x="267.6" y="187.0" width="6" height="8" rx="1" fill="url(#windowGlow)" opacity="0.9782976743664116"/>
<rect x="253.6" y="202.0" width="6" height="8" rx="1" fill="url(#windowGlow)" opacity="0.7217638807938266"/>
<rect x="267.6" y="202.0" width="6" height="8" rx="1" fill="url(#windowGlow)" opacity="0.7836982073186423"/>
<rect x="267.6" y="217.0" width="6" height="8" rx="1" fill="url(#windowGlow)" opacity="0.9773164866852184"/>
<rect x="253.6" y="232.0" width="6" height="8" rx="1" fill="url(#windowGlow)" opacity="0.826429851412042"/>
<rect x="267.6" y="232.0" width="6" height="8" rx="1" fill="url(#windowGlow)" opacity="0.9619878437658715"/>
<rect x="267.6" y="247.0" width="6" height="8" rx="1" fill="url(#windowGlow)" opacity="0.8780374666107993"/>
<rect x="258.6" y="284.0" width="10" height="16" rx="2" fill="url(#roof_navyRoof)" opacity="0.8"/>
<rect x="260.6" y="287.0" width="6" height="10" rx="1" fill="url(#windowGlow)" opacity="0.45"/>
<rect x="253.7" y="203.0" width="19.7" height="5" rx="1" fill="#15803d" opacity="0.7"/>
<circle cx="256.7" cy="202.0" r="2.5" fill="#fbbf24" opacity="0.85"/>
<circle cx="263.3" cy="202.0" r="2.5" fill="#f87171" opacity="0.85"/>
<circle cx="269.8" cy="202.0" r="2.5" fill="#fbbf24" opacity="0.85"/>
<rect x="566.3" y="179.5" width="60.2" height="120.5" rx="3" fill="url(#bldg_rose)" opacity="1"/>
<rect x="578.3" y="165.1" width="36.1" height="14.5" rx="2" fill="url(#roof_navyRoof)" opacity="1"/>
<rect x="607.4" y="189.5" width="6" height="8" rx="1" fill="url(#windowGlow)" opacity="0.7184976287272281"/>
<rect x="593.4" y="204.5" width="6" height="8" rx="1" fill="url(#windowGlow)" opacity="0.9127827829275199"/>
<rect x="579.4" y="219.5" width="6" height="8" rx="1" fill="url(#windowGlow)" opacity="0.8934326248212869"/>
<rect x="593.4" y="219.5" width="6" height="8" rx="1" fill="url(#windowGlow)" opacity="0.7210544411191039"/>
<rect x="607.4" y="219.5" width="6" height="8" rx="1" fill="url(#windowGlow)" opacity="0.7790298863682104"/>
<rect x="579.4" y="234.5" width="6" height="8" rx="1" fill="url(#windowGlow)" opacity="0.9714507657435958"/>
<rect x="593.4" y="234.5" width="6" height="8" rx="1" fill="url(#windowGlow)" opacity="0.8506536943608213"/>
<rect x="607.4" y="234.5" width="6" height="8" rx="1" fill="url(#windowGlow)" opacity="0.7091157734436522"/>
<rect x="579.4" y="249.5" width="6" height="8" rx="1" fill="url(#windowGlow)" opacity="0.7367769013330232"/>
<rect x="607.4" y="249.5" width="6" height="8" rx="1" fill="url(#windowGlow)" opacity="0.9314970438980948"/>
<rect x="591.4" y="284.0" width="10" height="16" rx="2" fill="url(#roof_navyRoof)" opacity="0.8"/>
<rect x="593.4" y="287.0" width="6" height="10" rx="1" fill="url(#windowGlow)" opacity="0.45"/>
<rect x="970.7" y="121.0" width="54.0" height="179.0" rx="3" fill="url(#bldg_sky)" opacity="1"/>
<polygon points="970.7,121.0 997.7,105.8 1024.7,121.0" fill="url(#roof_coralRoof)" opacity="1"/>
<rect x="987.7" y="131.0" width="6" height="8" rx="1" fill="url(#windowGlow)" opacity="0.7313022086076914"/>
<rect x="987.7" y="146.0" width="6" height="8" rx="1" fill="url(#windowGlow)" opacity="0.8596517478859292"/>
<rect x="1001.7" y="146.0" width="6" height="8" rx="1" fill="url(#windowGlow)" opacity="0.864833968209491"/>
<rect x="1001.7" y="176.0" width="6" height="8" rx="1" fill="url(#windowGlow)" opacity="0.9473208276309635"/>
<rect x="987.7" y="191.0" width="6" height="8" rx="1" fill="url(#windowGlow)" opacity="0.9828246083961913"/>
<rect x="1001.7" y="191.0" width="6" height="8" rx="1" fill="url(#windowGlow)" opacity="0.7754784512219384"/>
<rect x="987.7" y="206.0" width="6" height="8" rx="1" fill="url(#windowGlow)" opacity="0.729835239206364"/>
<rect x="1001.7" y="206.0" width="6" height="8" rx="1" fill="url(#windowGlow)" opacity="0.7979554750947074"/>
<rect x="987.7" y="221.0" width="6" height="8" rx="1" fill="url(#windowGlow)" opacity="0.9851503082481912"/>
<rect x="987.7" y="236.0" width="6" height="8" rx="1" fill="url(#windowGlow)" opacity="0.9879497405551139"/>
<rect x="1001.7" y="236.0" width="6" height="8" rx="1" fill="url(#windowGlow)" opacity="0.9977861880780132"/>
<rect x="992.7" y="284.0" width="10" height="16" rx="2" fill="url(#roof_navyRoof)" opacity="0.8"/>
<rect x="994.7" y="287.0" width="6" height="10" rx="1" fill="url(#windowGlow)" opacity="0.45"/>
<path d="M429.0 285.0 Q451.3 259.5 442.4 234.1" stroke="#92400e" stroke-width="4" fill="none" stroke-linecap="round"/>
<path d="M442.4 234.1 Q431.5 223.5 424.3 224.1" stroke="#16a34a" stroke-width="2.5" fill="none" stroke-linecap="round"/>
<path d="M442.4 234.1 Q447.3 223.1 450.6 223.1" stroke="#22c55e" stroke-width="2.5" fill="none" stroke-linecap="round"/>
<path d="M442.4 234.1 Q462.4 228.1 475.8 234.1" stroke="#15803d" stroke-width="2.5" fill="none" stroke-linecap="round"/>
<path d="M442.4 234.1 Q449.1 234.8 453.6 249.0" stroke="#4ade80" stroke-width="2.5" fill="none" stroke-linecap="round"/>
<path d="M442.4 234.1 Q430.8 232.9 423.1 244.7" stroke="#16a34a" stroke-width="2.5" fill="none" stroke-linecap="round"/>
<path d="M798.6 285.0 Q813.0 263.5 807.2 242.0" stroke="#92400e" stroke-width="4" fill="none" stroke-linecap="round"/>
<path d="M807.2 242.0 Q793.5 230.3 784.4 229.5" stroke="#16a34a" stroke-width="2.5" fill="none" stroke-linecap="round"/>
<path d="M807.2 242.0 Q814.0 229.2 818.6 227.0" stroke="#22c55e" stroke-width="2.5" fill="none" stroke-linecap="round"/>
<path d="M807.2 242.0 Q819.9 236.0 828.4 242.0" stroke="#15803d" stroke-width="2.5" fill="none" stroke-linecap="round"/>
<path d="M807.2 242.0 Q813.1 241.9 817.0 255.0" stroke="#4ade80" stroke-width="2.5" fill="none" stroke-linecap="round"/>
<path d="M807.2 242.0 Q795.4 241.0 787.5 252.9" stroke="#16a34a" stroke-width="2.5" fill="none" stroke-linecap="round"/>
<path d="M202.9 285.0 Q216.0 253.9 210.8 222.7" stroke="#92400e" stroke-width="4" fill="none" stroke-linecap="round"/>
<path d="M210.8 222.7 Q200.2 212.3 193.1 213.0" stroke="#16a34a" stroke-width="2.5" fill="none" stroke-linecap="round"/>
<path d="M210.8 222.7 Q216.2 211.3 219.8 210.7" stroke="#22c55e" stroke-width="2.5" fill="none" stroke-linecap="round"/>
<path d="M210.8 222.7 Q224.3 216.7 233.4 222.7" stroke="#15803d" stroke-width="2.5" fill="none" stroke-linecap="round"/>
<path d="M210.8 222.7 Q218.4 224.4 223.4 239.5" stroke="#4ade80" stroke-width="2.5" fill="none" stroke-linecap="round"/>
<path d="M210.8 222.7 Q198.0 222.1 189.5 234.4" stroke="#16a34a" stroke-width="2.5" fill="none" stroke-linecap="round"/>
<path d="M1051.6 285.0 Q1075.8 258.6 1066.1 232.3" stroke="#92400e" stroke-width="4" fill="none" stroke-linecap="round"/>
<path d="M1066.1 232.3 Q1052.5 220.6 1043.4 219.8" stroke="#16a34a" stroke-width="2.5" fill="none" stroke-linecap="round"/>
<path d="M1066.1 232.3 Q1073.0 219.3 1077.7 216.9" stroke="#22c55e" stroke-width="2.5" fill="none" stroke-linecap="round"/>
<path d="M1066.1 232.3 Q1080.4 226.3 1090.0 232.3" stroke="#15803d" stroke-width="2.5" fill="none" stroke-linecap="round"/>
<path d="M1066.1 232.3 Q1072.3 232.5 1076.4 245.9" stroke="#4ade80" stroke-width="2.5" fill="none" stroke-linecap="round"/>
<path d="M1066.1 232.3 Q1057.3 230.0 1051.4 240.4" stroke="#16a34a" stroke-width="2.5" fill="none" stroke-linecap="round"/>
<rect x="0" y="282" width="1200" height="18" fill="url(#groundGrad)"/>
<line x1="419.5" y1="282.0" x2="419.5" y2="240.6" stroke="#92400e" stroke-width="2"/>
<circle cx="419.5" cy="240.6" r="4" fill="#fef08a" opacity="0.6"/>
<circle cx="419.5" cy="240.6" r="8" fill="#fef08a" opacity="0.15" filter="url(#softGlow)"/>
<ellipse cx="636.5" cy="282.0" rx="5.2" ry="3.6" fill="#22c55e" opacity="0.6"/>
<ellipse cx="893.0" cy="282.0" rx="4.2" ry="3.0" fill="#22c55e" opacity="0.6"/>
<ellipse cx="161.6" cy="282.0" rx="6.6" ry="4.6" fill="#22c55e" opacity="0.6"/>
</svg>