<svg xmlns="http://www.w3.org/2000/svg" viewBox="0 0 1200 300" width="1200" height="300">
<defs>
<linearGradient id="skyGrad" x1="0" y1="0" x2="0" y2="1">
<stop offset="0%" stop-color="#a78bfa"/>
<stop offset="18%" stop-color="#ddb4f0"/>
<stop offset="35%" stop-color="#fda4af"/>
<stop offset="52%" stop-color="#fdba74"/>
<stop offset="72%" stop-color="#fef08a"/>
<stop offset="100%" stop-color="#fef9c3"/>
</linearGradient>
<linearGradient id="bldg_coral" x1="0" y1="0" x2="0" y2="1"><stop offset="0%" stop-color="#fecaca"/><stop offset="100%" stop-color="#fca5a5"/></linearGradient>
<linearGradient id="bldg_teal" x1="0" y1="0" x2="0" y2="1"><stop offset="0%" stop-color="#99f6e4"/><stop offset="100%" stop-color="#5eead4"/></linearGradient>
<linearGradient id="bldg_amber" x1="0" y1="0" x2="0" y2="1"><stop offset="0%" stop-color="#fde68a"/><stop offset="100%" stop-color="#fcd34d"/></linearGradient>
<linearGradient id="bldg_lavender" x1="0" y1="0" x2="0" y2="1"><stop offset="0%" stop-color="#ddd6fe"/><stop offset="100%" stop-color="#c4b5fd"/></linearGradient>
<linearGradient id="bldg_blue" x1="0" y1="0" x2="0" y2="1"><stop offset="0%" stop-color="#bfdbfe"/><stop offset="100%" stop-color="#93c5fd"/></linearGradient>
<linearGradient id="bldg_mint" x1="0" y1="0" x2="0" y2="1"><stop offset="0%" stop-color="#a7f3d0"/><stop offset="100%" stop-color="#6ee7b7"/></linearGradient>
<linearGradient id="bldg_rose" x1="0" y1="0" x2="0" y2="1"><stop offset="0%" stop-color="#fecdd3"/><stop offset="100%" stop-color="#fda4af"/></linearGradient>
<linearGradient id="bldg_sky" x1="0" y1="0" x2="0" y2="1"><stop offset="0%" stop-color="#bae6fd"/><stop offset="100%" stop-color="#7dd3fc"/></linearGradient>
<linearGradient id="roof_navyRoof" x1="0" y1="0" x2="0" y2="1"><stop offset="0%" stop-color="#4338ca"/><stop offset="100%" stop-color="#3730a3"/></linearGradient>
<linearGradient id="roof_coralRoof" x1="0" y1="0" x2="0" y2="1"><stop offset="0%" stop-color="#f87171"/><stop offset="100%" stop-color="#ef4444"/></linearGradient>
<linearGradient id="roof_tealRoof" x1="0" y1="0" x2="0" y2="1"><stop offset="0%" stop-color="#2dd4bf"/><stop offset="100%" stop-color="#14b8a6"/></linearGradient>
<radialGradient id="windowGlow" cx="50%" cy="50%" r="50%"><stop offset="0%" stop-color="#fef08a"/><stop offset="60%" stop-color="#fbbf24"/><stop offset="100%" stop-color="#f59e0b"/></radialGradient>
<linearGradient id="hillFar" x1="0" y1="0" x2="0" y2="1"><stop offset="0%" stop-color="#c4b5fd"/><stop offset="100%" stop-color="#a5b4fc"/></linearGradient>
<linearGradient id="hillMid" x1="0" y1="0" x2="0" y2="1"><stop offset="0%" stop-color="#86efac"/><stop offset="100%" stop-color="#4ade80"/></linearGradient>
<linearGradient id="hillNear" x1="0" y1="0" x2="0" y2="1"><stop offset="0%" stop-color="#34d399"/><stop offset="100%" stop-color="#10b981"/></linearGradient>
<linearGradient id="hillDesertFar" x1="0" y1="0" x2="0" y2="1"><stop offset="0%" stop-color="#fde68a"/><stop offset="100%" stop-color="#fcd34d"/></linearGradient>
<linearGradient id="hillDesertMid" x1="0" y1="0" x2="0" y2="1"><stop offset="0%" stop-color="#fcd34d"/><stop offset="100%" stop-color="#fbbf24"/></linearGradient>
<linearGradient id="hillDesertNear" x1="0" y1="0" x2="0" y2="1"><stop offset="0%" stop-color="#fbbf24"/><stop offset="100%" stop-color="#f59e0b"/></linearGradient>
<linearGradient id="groundGrad" x1="0" y1="0" x2="0" y2="1"><stop offset="0%" stop-color="#fef3c7"/><stop offset="100%" stop-color="#fde68a"/></linearGradient>
<linearGradient id="waterGrad" x1="0" y1="0" x2="0" y2="1"><stop offset="0%" stop-color="#bfdbfe"/><stop offset="100%" stop-color="#93c5fd"/></linearGradient>
<filter id="softGlow" x="-50%" y="-50%" width="200%" height="200%"><feGaussianBlur in="SourceGraphic" stdDeviation="12"/></filter>
</defs>
<rect width="1200" height="300" fill="url(#skyGrad)"/>
<circle cx="973.4" cy="49.4" r="45" fill="#fef08a" opacity="0.12" filter="url(#softGlow)"/>
<circle cx="973.4" cy="49.4" r="30" fill="#fde68a" opacity="0.18" filter="url(#softGlow)"/>
<circle cx="973.4" cy="49.4" r="16" fill="#fef9c3" opacity="0.25" filter="url(#softGlow)"/>
<path d="M0 300 L0.0 179.7 C119.8 179.7, 119.8 189.8, 239.7 189.8 C454.4 189.8, 454.4 191.9, 669.1 191.9 C815.0 191.9, 815.0 193.1, 960.9 193.1 C1080.4 193.1, 1080.4 198.0, 1200.0 198.0 L1200 300 Z" fill="url(#hillFar)" opacity="0.5"/>
<path d="M0 300 L0.0 218.0 C179.9 218.0, 179.9 207.7, 359.7 207.7 C543.5 207.7, 543.5 206.3, 727.4 206.3 C963.7 206.3, 963.7 214.3, 1200.0 214.3 L1200 300 Z" fill="url(#hillMid)" opacity="0.7"/>
<path d="M0 300 L0.0 231.9 C187.7 231.9, 187.7 229.9, 375.5 229.9 C597.0 229.9, 597.0 233.4, 818.5 233.4 C1009.2 233.4, 1009.2 238.6, 1200.0 238.6 L1200 300 Z" fill="url(#hillNear)" opacity="1"/>
<rect x="171.2" y="241.7" width="88.9" height="58.3" rx="3" fill="url(#bldg_mint)" opacity="0.7"/>
<rect x="171.2" y="238.7" width="88.9" height="3" rx="1" fill="url(#roof_tealRoof)" opacity="0.7"/>
<rect x="191.6" y="251.7" width="6" height="8" rx="1" fill="url(#windowGlow)" opacity="0.8582056330787975"/>
<rect x="205.6" y="251.7" width="6" height="8" rx="1" fill="url(#windowGlow)" opacity="0.8462858551397388"/>
<rect x="219.6" y="251.7" width="6" height="8" rx="1" fill="url(#windowGlow)" opacity="0.9730635725767647"/>
<rect x="233.6" y="251.7" width="6" height="8" rx="1" fill="url(#windowGlow)" opacity="0.7325806989020578"/>
<rect x="557.9" y="236.9" width="71.8" height="63.1" rx="3" fill="url(#bldg_rose)" opacity="0.7"/>
<rect x="557.9" y="233.9" width="71.8" height="3" rx="1" fill="url(#roof_navyRoof)" opacity="0.7"/>
<rect x="604.8" y="246.9" width="6" height="8" rx="1" fill="url(#windowGlow)" opacity="0.7047397681534009"/>
<rect x="904.1" y="198.4" width="50.5" height="101.6" rx="3" fill="url(#bldg_sky)" opacity="0.7"/>
<rect x="904.1" y="195.4" width="50.5" height="3" rx="1" fill="url(#roof_coralRoof)" opacity="0.7"/>
<rect x="919.4" y="208.4" width="6" height="8" rx="1" fill="url(#windowGlow)" opacity="0.7502153123497103"/>
<rect x="933.4" y="208.4" width="6" height="8" rx="1" fill="url(#windowGlow)" opacity="0.9765902052524453"/>
<rect x="933.4" y="223.4" width="6" height="8" rx="1" fill="url(#windowGlow)" opacity="0.7170999740330036"/>
<rect x="919.4" y="238.4" width="6" height="8" rx="1" fill="url(#windowGlow)" opacity="0.7035829775052065"/>
<rect x="933.4" y="238.4" width="6" height="8" rx="1" fill="url(#windowGlow)" opacity="0.7562151315883804"/>
<rect x="919.4" y="253.4" width="6" height="8" rx="1" fill="url(#windowGlow)" opacity="0.7863638228207658"/>
<rect x="933.4" y="253.4" width="6" height="8" rx="1" fill="url(#windowGlow)" opacity="0.7304311038136626"/>
<rect x="218.3" y="231.6" width="50.3" height="68.4" rx="3" fill="url(#bldg_coral)" opacity="0.85"/>
<rect x="218.3" y="228.6" width="50.3" height="3" rx="1" fill="url(#roof_tealRoof)" opacity="0.85"/>
<rect x="233.5" y="241.6" width="6" height="8" rx="1" fill="url(#windowGlow)" opacity="0.8987760055338851"/>
<rect x="247.5" y="241.6" width="6" height="8" rx="1" fill="url(#windowGlow)" opacity="0.9679947110675251"/>
<rect x="233.5" y="256.6" width="6" height="8" rx="1" fill="url(#windowGlow)" opacity="0.8506598630224633"/>
<rect x="598.7" y="167.0" width="43.1" height="133.0" rx="3" fill="url(#bldg_teal)" opacity="0.85"/>
<rect x="598.7" y="164.0" width="43.1" height="3" rx="1" fill="url(#roof_navyRoof)" opacity="0.85"/>
<rect x="617.3" y="192.0" width="6" height="8" rx="1" fill="url(#windowGlow)" opacity="0.9648432864643834"/>
<rect x="617.3" y="207.0" width="6" height="8" rx="1" fill="url(#windowGlow)" opacity="0.8982559492337777"/>
<rect x="617.3" y="237.0" width="6" height="8" rx="1" fill="url(#windowGlow)" opacity="0.9600094539392783"/>
<rect x="617.3" y="252.0" width="6" height="8" rx="1" fill="url(#windowGlow)" opacity="0.8883082292919551"/>
<path d="M603.1 213.5 L620.3 213.5 L617.3 219.5 L606.1 219.5 Z" fill="url(#roof_tealRoof)" opacity="0.68"/>
<rect x="923.8" y="158.3" width="55.9" height="141.7" rx="3" fill="url(#bldg_amber)" opacity="0.85"/>
<polygon points="923.8,158.3 951.7,142.5 979.7,158.3" fill="url(#roof_coralRoof)" opacity="0.85"/>
<rect x="941.7" y="168.3" width="6" height="8" rx="1" fill="url(#windowGlow)" opacity="0.7522972084825379"/>
<rect x="941.7" y="183.3" width="6" height="8" rx="1" fill="url(#windowGlow)" opacity="0.8416646098912063"/>
<rect x="955.7" y="183.3" width="6" height="8" rx="1" fill="url(#windowGlow)" opacity="0.8256984424896996"/>
<rect x="941.7" y="198.3" width="6" height="8" rx="1" fill="url(#windowGlow)" opacity="0.8040092658270193"/>
<rect x="955.7" y="198.3" width="6" height="8" rx="1" fill="url(#windowGlow)" opacity="0.9537705931597251"/>
<rect x="941.7" y="213.3" width="6" height="8" rx="1" fill="url(#windowGlow)" opacity="0.7360134260430994"/>
<rect x="955.7" y="213.3" width="6" height="8" rx="1" fill="url(#windowGlow)" opacity="0.9202566111088993"/>
<rect x="941.7" y="228.3" width="6" height="8" rx="1" fill="url(#windowGlow)" opacity="0.7411775998497278"/>
<rect x="955.7" y="228.3" width="6" height="8" rx="1" fill="url(#windowGlow)" opacity="0.8857367023293565"/>
<rect x="955.7" y="243.3" width="6" height="8" rx="1" fill="url(#windowGlow)" opacity="0.9251181407948574"/>
<rect x="941.7" y="258.3" width="6" height="8" rx="1" fill="url(#windowGlow)" opacity="0.9259031096593956"/>
<rect x="221.3" y="226.1" width="50.2" height="73.9" rx="3" fill="url(#bldg_lavender)" opacity="1"/>
<polygon points="221.3,226.1 246.4,214.3 271.5,226.1" fill="url(#roof_tealRoof)" opacity="1"/>
<rect x="236.4" y="236.1" width="6" height="8" rx="1" fill="url(#windowGlow)" opacity="0.9498218636260469"/>
<rect x="250.4" y="236.1" width="6" height="8" rx="1" fill="url(#windowGlow)" opacity="0.8371699278881632"/>
<rect x="236.4" y="251.1" width="6" height="8" rx="1" fill="url(#windowGlow)" opacity="0.8845195495451426"/>
<rect x="250.4" y="251.1" width="6" height="8" rx="1" fill="url(#windowGlow)" opacity="0.816700992321922"/>
<rect x="241.4" y="284.0" width="10" height="16" rx="2" fill="url(#roof_navyRoof)" opacity="0.8"/>
<rect x="243.4" y="287.0" width="6" height="10" rx="1" fill="url(#windowGlow)" opacity="0.45"/>
<rect x="603.4" y="186.7" width="66.1" height="113.3" rx="3" fill="url(#bldg_blue)" opacity="1"/>
<polygon points="603.4,186.7 636.5,166.6 669.6,186.7" fill="url(#roof_navyRoof)" opacity="1"/>
<rect x="619.5" y="196.7" width="6" height="8" rx="1" fill="url(#windowGlow)" opacity="0.8756567318810413"/>
<rect x="633.5" y="196.7" width="6" height="8" rx="1" fill="url(#windowGlow)" opacity="0.8554360925943758"/>
<rect x="647.5" y="196.7" width="6" height="8" rx="1" fill="url(#windowGlow)" opacity="0.7772865625458241"/>
<rect x="619.5" y="211.7" width="6" height="8" rx="1" fill="url(#windowGlow)" opacity="0.8245605347326772"/>
<rect x="633.5" y="211.7" width="6" height="8" rx="1" fill="url(#windowGlow)" opacity="0.8149952725111484"/>
<rect x="633.5" y="226.7" width="6" height="8" rx="1" fill="url(#windowGlow)" opacity="0.9117362289744132"/>
<rect x="647.5" y="226.7" width="6" height="8" rx="1" fill="url(#windowGlow)" opacity="0.7881042146534213"/>
<rect x="619.5" y="241.7" width="6" height="8" rx="1" fill="url(#windowGlow)" opacity="0.7629473876501188"/>
<rect x="633.5" y="241.7" width="6" height="8" rx="1" fill="url(#windowGlow)" opacity="0.9930984609262544"/>
<rect x="647.5" y="241.7" width="6" height="8" rx="1" fill="url(#windowGlow)" opacity="0.8729648674712353"/>
<rect x="619.5" y="256.7" width="6" height="8" rx="1" fill="url(#windowGlow)" opacity="0.9318962386026495"/>
<rect x="633.5" y="256.7" width="6" height="8" rx="1" fill="url(#windowGlow)" opacity="0.988116211578304"/>
<rect x="647.5" y="256.7" width="6" height="8" rx="1" fill="url(#windowGlow)" opacity="0.8651511866437044"/>
<rect x="631.5" y="284.0" width="10" height="16" rx="2" fill="url(#roof_navyRoof)" opacity="0.8"/>
<rect x="633.5" y="287.0" width="6" height="10" rx="1" fill="url(#windowGlow)" opacity="0.45"/>
<rect x="624.9" y="212.7" width="23.1" height="5" rx="1" fill="#15803d" opacity="0.7"/>
<circle cx="627.9" cy="211.7" r="2.5" fill="#a78bfa" opacity="0.85"/>
<circle cx="635.6" cy="211.7" r="2.5" fill="#fbbf24" opacity="0.85"/>
<circle cx="643.3" cy="211.7" r="2.5" fill="#fbbf24" opacity="0.85"/>
<rect x="923.4" y="244.3" width="38.8" height="55.7" rx="3" fill="url(#bldg_mint)" opacity="1"/>
<polygon points="923.4,244.3 942.8,231.2 962.1,244.3" fill="url(#roof_coralRoof)" opacity="1"/>
<rect x="939.8" y="254.3" width="6" height="8" rx="1" fill="url(#windowGlow)" opacity="0.7970099764396482"/>
<rect x="937.8" y="284.0" width="10" height="16" rx="2" fill="url(#roof_navyRoof)" opacity="0.8"/>
<rect x="939.8" y="287.0" width="6" height="10" rx="1" fill="url(#windowGlow)" opacity="0.45"/>
<path d="M437.5 285.0 Q457.5 258.8 449.5 232.7" stroke="#92400e" stroke-width="4" fill="none" stroke-linecap="round"/>
<path d="M449.5 232.7 Q436.2 221.1 427.3 220.5" stroke="#16a34a" stroke-width="2.5" fill="none" stroke-linecap="round"/>
<path d="M449.5 232.7 Q456.2 220.0 460.6 217.9" stroke="#22c55e" stroke-width="2.5" fill="none" stroke-linecap="round"/>
<path d="M449.5 232.7 Q464.7 226.7 474.9 232.7" stroke="#15803d" stroke-width="2.5" fill="none" stroke-linecap="round"/>
<path d="M449.5 232.7 Q455.0 232.2 458.6 244.8" stroke="#4ade80" stroke-width="2.5" fill="none" stroke-linecap="round"/>
<path d="M449.5 232.7 Q436.0 232.3 427.0 245.0" stroke="#16a34a" stroke-width="2.5" fill="none" stroke-linecap="round"/>
<path d="M796.5 285.0 Q808.7 260.6 803.8 236.2" stroke="#92400e" stroke-width="4" fill="none" stroke-linecap="round"/>
<path d="M803.8 236.2 Q794.4 226.2 788.1 227.5" stroke="#16a34a" stroke-width="2.5" fill="none" stroke-linecap="round"/>
<path d="M803.8 236.2 Q811.1 222.8 816.0 219.9" stroke="#22c55e" stroke-width="2.5" fill="none" stroke-linecap="round"/>
<path d="M803.8 236.2 Q822.0 230.2 834.1 236.2" stroke="#15803d" stroke-width="2.5" fill="none" stroke-linecap="round"/>
<path d="M803.8 236.2 Q811.3 237.7 816.3 252.8" stroke="#4ade80" stroke-width="2.5" fill="none" stroke-linecap="round"/>
<path d="M803.8 236.2 Q794.0 234.3 787.5 245.2" stroke="#16a34a" stroke-width="2.5" fill="none" stroke-linecap="round"/>
<path d="M196.7 285.0 Q209.8 258.6 204.6 232.2" stroke="#92400e" stroke-width="4" fill="none" stroke-linecap="round"/>
<path d="M204.6 232.2 Q191.5 220.7 182.8 220.2" stroke="#16a34a" stroke-width="2.5" fill="none" stroke-linecap="round"/>
<path d="M204.6 232.2 Q210.1 220.6 213.7 220.0" stroke="#22c55e" stroke-width="2.5" fill="none" stroke-linecap="round"/>
<path d="M204.6 232.2 Q224.2 226.2 237.2 232.2" stroke="#15803d" stroke-width="2.5" fill="none" stroke-linecap="round"/>
<path d="M204.6 232.2 Q210.0 231.6 213.7 244.2" stroke="#4ade80" stroke-width="2.5" fill="none" stroke-linecap="round"/>
<path d="M204.6 232.2 Q194.1 230.5 187.1 241.8" stroke="#16a34a" stroke-width="2.5" fill="none" stroke-linecap="round"/>
<rect x="0" y="282" width="1200" height="18" fill="url(#groundGrad)"/>
<line x1="157.9" y1="282.0" x2="157.9" y2="250.7" stroke="#92400e" stroke-width="2"/>
<circle cx="157.9" cy="250.7" r="4" fill="#fef08a" opacity="0.6"/>
<circle cx="157.9" cy="250.7" r="8" fill="#fef08a" opacity="0.15" filter="url(#softGlow)"/>
<ellipse cx="691.8" cy="282.0" rx="6.9" ry="4.8" fill="#22c55e" opacity="0.6"/>
<ellipse cx="362.6" cy="282.0" rx="6.5" ry="4.5" fill="#22c55e" opacity="0.6"/>
<ellipse cx="996.8" cy="282.0" rx="6.6" ry="4.6" fill="#22c55e" opacity="0.6"/>
<ellipse cx="272.4" cy="282.0" rx="4.3" ry="3.0" fill="#22c55e" opacity="0.6"/>
</svg>