<svg xmlns="http://www.w3.org/2000/svg" viewBox="0 0 1200 300" width="1200" height="300">
<defs><linearGradient id="skyGrad" x1="0" y1="0" x2="0" y2="1"><stop offset="0%" stop-color="#e8f0f8"/><stop offset="100%" stop-color="#f5e6d8"/></linearGradient></defs><rect width="1200" height="300" fill="url(#skyGrad)"/>
<rect x="148.6" y="178.1" width="67.9" height="121.9" fill="#8aabb4"/>
<rect x="410.6" y="175.9" width="44.9" height="124.1" fill="#8aabb4"/>
<rect x="754.2" y="246.9" width="45.9" height="53.1" fill="#8aabb4"/>
<rect x="762.3" y="237.5" width="29.8" height="9.4" fill="#83a2ab"/>
<rect x="958.3" y="221.1" width="56.7" height="78.9" fill="#8aabb4"/>
<polygon points="958.3,221.1 986.6,206.9 1015.0,221.1" fill="#7f9da6"/>
<rect x="110.8" y="162.4" width="61.3" height="137.6" fill="#558592"/>
<rect x="124.5" y="174.4" width="6" height="8" fill="#91b0b8" opacity="0.5"/>
<rect x="138.5" y="174.4" width="6" height="8" fill="#91b0b8" opacity="0.5"/>
<rect x="124.5" y="190.4" width="6" height="8" fill="#91b0b8" opacity="0.5"/>
<rect x="138.5" y="190.4" width="6" height="8" fill="#91b0b8" opacity="0.5"/>
<rect x="152.5" y="190.4" width="6" height="8" fill="#91b0b8" opacity="0.5"/>
<rect x="124.5" y="222.4" width="6" height="8" fill="#91b0b8" opacity="0.5"/>
<rect x="138.5" y="222.4" width="6" height="8" fill="#91b0b8" opacity="0.5"/>
<rect x="152.5" y="222.4" width="6" height="8" fill="#91b0b8" opacity="0.5"/>
<rect x="124.5" y="238.4" width="6" height="8" fill="#91b0b8" opacity="0.5"/>
<rect x="138.5" y="238.4" width="6" height="8" fill="#91b0b8" opacity="0.5"/>
<rect x="124.5" y="254.4" width="6" height="8" fill="#91b0b8" opacity="0.5"/>
<rect x="152.5" y="254.4" width="6" height="8" fill="#91b0b8" opacity="0.5"/>
<rect x="422.2" y="188.9" width="57.3" height="111.1" fill="#558592"/>
<rect x="454.9" y="200.9" width="6" height="8" fill="#91b0b8" opacity="0.5"/>
<rect x="440.9" y="232.9" width="6" height="8" fill="#91b0b8" opacity="0.5"/>
<rect x="440.9" y="248.9" width="6" height="8" fill="#91b0b8" opacity="0.5"/>
<rect x="454.9" y="248.9" width="6" height="8" fill="#91b0b8" opacity="0.5"/>
<rect x="454.9" y="264.9" width="6" height="8" fill="#91b0b8" opacity="0.5"/>
<rect x="715.2" y="186.8" width="70.4" height="113.2" fill="#558592"/>
<rect x="747.4" y="230.8" width="6" height="8" fill="#91b0b8" opacity="0.5"/>
<rect x="733.4" y="246.8" width="6" height="8" fill="#91b0b8" opacity="0.5"/>
<rect x="761.4" y="246.8" width="6" height="8" fill="#91b0b8" opacity="0.5"/>
<rect x="733.4" y="262.8" width="6" height="8" fill="#91b0b8" opacity="0.5"/>
<rect x="747.4" y="262.8" width="6" height="8" fill="#91b0b8" opacity="0.5"/>
<rect x="761.4" y="262.8" width="6" height="8" fill="#91b0b8" opacity="0.5"/>
<rect x="993.1" y="136.5" width="40.2" height="163.5" fill="#558592"/>
<rect x="1010.2" y="148.5" width="6" height="8" fill="#91b0b8" opacity="0.5"/>
<rect x="1010.2" y="164.5" width="6" height="8" fill="#91b0b8" opacity="0.5"/>
<rect x="1010.2" y="196.5" width="6" height="8" fill="#91b0b8" opacity="0.5"/>
<rect x="1010.2" y="212.5" width="6" height="8" fill="#91b0b8" opacity="0.5"/>
<rect x="112.9" y="184.4" width="47.2" height="115.6" fill="#2b6777"/>
<rect x="121.2" y="164.1" width="30.7" height="20.4" fill="#296271"/>
<rect x="126.5" y="176.1" width="6" height="8" fill="#759ca7" opacity="0.5"/>
<rect x="140.5" y="176.1" width="6" height="8" fill="#759ca7" opacity="0.5"/>
<rect x="126.5" y="192.1" width="6" height="8" fill="#759ca7" opacity="0.5"/>
<rect x="126.5" y="208.1" width="6" height="8" fill="#759ca7" opacity="0.5"/>
<rect x="140.5" y="208.1" width="6" height="8" fill="#759ca7" opacity="0.5"/>
<rect x="140.5" y="224.1" width="6" height="8" fill="#759ca7" opacity="0.5"/>
<rect x="126.5" y="240.1" width="6" height="8" fill="#759ca7" opacity="0.5"/>
<rect x="140.5" y="240.1" width="6" height="8" fill="#759ca7" opacity="0.5"/>
<rect x="140.5" y="256.1" width="6" height="8" fill="#759ca7" opacity="0.5"/>
<rect x="404.4" y="233.3" width="49.5" height="66.7" fill="#2b6777"/>
<rect x="419.1" y="261.3" width="6" height="8" fill="#759ca7" opacity="0.5"/>
<rect x="433.1" y="261.3" width="6" height="8" fill="#759ca7" opacity="0.5"/>
<rect x="759.5" y="213.6" width="31.3" height="86.4" fill="#2b6777"/>
<rect x="772.1" y="225.6" width="6" height="8" fill="#759ca7" opacity="0.5"/>
<rect x="772.1" y="241.6" width="6" height="8" fill="#759ca7" opacity="0.5"/>
<rect x="960.2" y="240.0" width="60.6" height="60.0" fill="#2b6777"/>
<rect x="973.5" y="252.0" width="6" height="8" fill="#759ca7" opacity="0.5"/>
<rect x="1001.5" y="252.0" width="6" height="8" fill="#759ca7" opacity="0.5"/>
<rect x="973.5" y="268.0" width="6" height="8" fill="#759ca7" opacity="0.5"/>
<rect x="987.5" y="268.0" width="6" height="8" fill="#759ca7" opacity="0.5"/>
<path d="M282.2 285.0 Q308.0 257.5 300.2 230.0" fill="none" stroke="#7b664b" stroke-width="3"/>
<path d="M300.2 230.0 Q289.3 221.0 282.0 222.0" fill="none" stroke="#4a8b3f" stroke-width="2.5"/>
<path d="M300.2 230.0 Q304.1 219.1 306.6 218.2" fill="none" stroke="#4a8b3f" stroke-width="2.5"/>
<path d="M300.2 230.0 Q312.7 225.0 321.0 230.0" fill="none" stroke="#4a8b3f" stroke-width="2.5"/>
<path d="M300.2 230.0 Q305.1 232.5 308.3 244.9" fill="none" stroke="#4a8b3f" stroke-width="2.5"/>
<path d="M300.2 230.0 Q286.7 229.9 277.6 239.9" fill="none" stroke="#4a8b3f" stroke-width="2.5"/>
<path d="M606.7 285.0 Q628.5 262.4 622.0 239.7" fill="none" stroke="#836c50" stroke-width="3"/>
<path d="M622.0 239.7 Q608.5 229.8 599.5 229.9" fill="none" stroke="#45833b" stroke-width="2.5"/>
<path d="M622.0 239.7 Q626.2 228.3 629.0 226.8" fill="none" stroke="#45833b" stroke-width="2.5"/>
<path d="M622.0 239.7 Q634.2 234.7 642.4 239.7" fill="none" stroke="#45833b" stroke-width="2.5"/>
<path d="M622.0 239.7 Q626.1 241.0 628.8 252.2" fill="none" stroke="#45833b" stroke-width="2.5"/>
<path d="M622.0 239.7 Q611.5 238.5 604.5 247.3" fill="none" stroke="#45833b" stroke-width="2.5"/>
<path d="M875.5 285.0 Q895.0 258.1 889.1 231.1" fill="none" stroke="#7f694e" stroke-width="3"/>
<path d="M889.1 231.1 Q877.4 221.9 869.5 222.6" fill="none" stroke="#48893e" stroke-width="2.5"/>
<path d="M889.1 231.1 Q894.0 218.7 897.2 216.2" fill="none" stroke="#48893e" stroke-width="2.5"/>
<path d="M889.1 231.1 Q901.8 226.1 910.2 231.1" fill="none" stroke="#48893e" stroke-width="2.5"/>
<path d="M889.1 231.1 Q893.6 233.1 896.6 245.0" fill="none" stroke="#48893e" stroke-width="2.5"/>
<path d="M889.1 231.1 Q878.0 230.2 870.5 239.2" fill="none" stroke="#48893e" stroke-width="2.5"/>
<path d="M731.0 285.0 Q751.8 262.8 745.6 240.6" fill="none" stroke="#887053" stroke-width="3"/>
<path d="M745.6 240.6 Q733.1 231.1 724.8 231.6" fill="none" stroke="#498a3e" stroke-width="2.5"/>
<path d="M745.6 240.6 Q750.5 228.1 753.7 225.5" fill="none" stroke="#498a3e" stroke-width="2.5"/>
<path d="M745.6 240.6 Q758.5 235.6 767.1 240.6" fill="none" stroke="#498a3e" stroke-width="2.5"/>
<path d="M745.6 240.6 Q749.6 241.8 752.2 252.9" fill="none" stroke="#498a3e" stroke-width="2.5"/>
<path d="M745.6 240.6 Q734.7 239.6 727.5 248.5" fill="none" stroke="#498a3e" stroke-width="2.5"/>
<path d="M145.1 285.0 Q172.2 262.9 164.1 240.8" fill="none" stroke="#776249" stroke-width="3"/>
<path d="M164.1 240.8 Q152.0 231.4 143.9 232.0" fill="none" stroke="#44803a" stroke-width="2.5"/>
<path d="M164.1 240.8 Q168.8 228.5 172.0 226.3" fill="none" stroke="#44803a" stroke-width="2.5"/>
<path d="M164.1 240.8 Q180.5 235.8 191.4 240.8" fill="none" stroke="#44803a" stroke-width="2.5"/>
<path d="M164.1 240.8 Q168.4 242.4 171.2 254.0" fill="none" stroke="#44803a" stroke-width="2.5"/>
<path d="M164.1 240.8 Q149.8 241.0 140.2 251.2" fill="none" stroke="#44803a" stroke-width="2.5"/>
<path d="M297.7 285.0 Q321.0 262.4 314.0 239.8" fill="none" stroke="#8a7254" stroke-width="3"/>
<path d="M314.0 239.8 Q303.4 230.9 296.3 232.0" fill="none" stroke="#437e39" stroke-width="2.5"/>
<path d="M314.0 239.8 Q319.0 227.1 322.3 224.4" fill="none" stroke="#437e39" stroke-width="2.5"/>
<path d="M314.0 239.8 Q327.3 234.8 336.1 239.8" fill="none" stroke="#437e39" stroke-width="2.5"/>
<path d="M314.0 239.8 Q318.3 241.4 321.2 253.0" fill="none" stroke="#437e39" stroke-width="2.5"/>
<path d="M314.0 239.8 Q303.7 238.5 296.7 247.3" fill="none" stroke="#437e39" stroke-width="2.5"/>
<rect x="0" y="285" width="1200" height="15" fill="#d4c5a9" opacity="0.4"/>
<circle cx="1095.7" cy="43.7" r="29.9" fill="#f5e6a0" opacity="0.1"/>
</svg>