<svg xmlns="http://www.w3.org/2000/svg" viewBox="0 0 1200 300" width="1200" height="300">
<rect width="1200" height="300" fill="#e0eff2"/>
<path d="M0 300 L0 210.0 C418.8 175.7, 946.9 184.8, 1200 210.0 L1200 300 Z" fill="#aac2c9" opacity="0.3"/>
<rect x="127.3" y="238.6" width="79.3" height="61.4" fill="#8aabb4"/>
<rect x="526.4" y="222.0" width="60.2" height="78.0" fill="#8aabb4"/>
<rect x="888.9" y="178.1" width="79.5" height="121.9" fill="#8aabb4"/>
<rect x="159.1" y="184.4" width="62.5" height="115.6" fill="#558592"/>
<rect x="187.3" y="196.4" width="6" height="8" fill="#91b0b8" opacity="0.5"/>
<rect x="201.3" y="196.4" width="6" height="8" fill="#91b0b8" opacity="0.5"/>
<rect x="187.3" y="212.4" width="6" height="8" fill="#91b0b8" opacity="0.5"/>
<rect x="173.3" y="228.4" width="6" height="8" fill="#91b0b8" opacity="0.5"/>
<rect x="187.3" y="228.4" width="6" height="8" fill="#91b0b8" opacity="0.5"/>
<rect x="201.3" y="228.4" width="6" height="8" fill="#91b0b8" opacity="0.5"/>
<rect x="173.3" y="244.4" width="6" height="8" fill="#91b0b8" opacity="0.5"/>
<rect x="187.3" y="244.4" width="6" height="8" fill="#91b0b8" opacity="0.5"/>
<rect x="173.3" y="260.4" width="6" height="8" fill="#91b0b8" opacity="0.5"/>
<rect x="187.3" y="260.4" width="6" height="8" fill="#91b0b8" opacity="0.5"/>
<rect x="201.3" y="260.4" width="6" height="8" fill="#91b0b8" opacity="0.5"/>
<rect x="478.3" y="184.7" width="39.9" height="115.3" fill="#558592"/>
<rect x="495.2" y="196.7" width="6" height="8" fill="#91b0b8" opacity="0.5"/>
<rect x="495.2" y="212.7" width="6" height="8" fill="#91b0b8" opacity="0.5"/>
<rect x="495.2" y="228.7" width="6" height="8" fill="#91b0b8" opacity="0.5"/>
<rect x="495.2" y="244.7" width="6" height="8" fill="#91b0b8" opacity="0.5"/>
<rect x="711.8" y="193.3" width="43.5" height="106.7" fill="#558592"/>
<rect x="730.5" y="221.3" width="6" height="8" fill="#91b0b8" opacity="0.5"/>
<rect x="730.5" y="237.3" width="6" height="8" fill="#91b0b8" opacity="0.5"/>
<rect x="730.5" y="253.3" width="6" height="8" fill="#91b0b8" opacity="0.5"/>
<rect x="730.5" y="269.3" width="6" height="8" fill="#91b0b8" opacity="0.5"/>
<rect x="974.2" y="198.2" width="51.5" height="101.8" fill="#558592"/>
<rect x="990.0" y="210.2" width="6" height="8" fill="#91b0b8" opacity="0.5"/>
<rect x="1004.0" y="210.2" width="6" height="8" fill="#91b0b8" opacity="0.5"/>
<rect x="990.0" y="226.2" width="6" height="8" fill="#91b0b8" opacity="0.5"/>
<rect x="1004.0" y="226.2" width="6" height="8" fill="#91b0b8" opacity="0.5"/>
<rect x="990.0" y="242.2" width="6" height="8" fill="#91b0b8" opacity="0.5"/>
<rect x="1004.0" y="242.2" width="6" height="8" fill="#91b0b8" opacity="0.5"/>
<rect x="990.0" y="258.2" width="6" height="8" fill="#91b0b8" opacity="0.5"/>
<rect x="1004.0" y="258.2" width="6" height="8" fill="#91b0b8" opacity="0.5"/>
<rect x="149.6" y="245.9" width="60.0" height="54.1" fill="#2b6777"/>
<rect x="438.7" y="238.7" width="63.6" height="61.3" fill="#2b6777"/>
<rect x="453.5" y="250.7" width="6" height="8" fill="#759ca7" opacity="0.5"/>
<rect x="467.5" y="250.7" width="6" height="8" fill="#759ca7" opacity="0.5"/>
<rect x="453.5" y="266.7" width="6" height="8" fill="#759ca7" opacity="0.5"/>
<rect x="467.5" y="266.7" width="6" height="8" fill="#759ca7" opacity="0.5"/>
<rect x="481.5" y="266.7" width="6" height="8" fill="#759ca7" opacity="0.5"/>
<rect x="750.6" y="184.4" width="57.1" height="115.6" fill="#2b6777"/>
<rect x="769.1" y="196.4" width="6" height="8" fill="#759ca7" opacity="0.5"/>
<rect x="783.1" y="212.4" width="6" height="8" fill="#759ca7" opacity="0.5"/>
<rect x="769.1" y="228.4" width="6" height="8" fill="#759ca7" opacity="0.5"/>
<rect x="783.1" y="228.4" width="6" height="8" fill="#759ca7" opacity="0.5"/>
<rect x="769.1" y="244.4" width="6" height="8" fill="#759ca7" opacity="0.5"/>
<rect x="783.1" y="244.4" width="6" height="8" fill="#759ca7" opacity="0.5"/>
<rect x="769.1" y="260.4" width="6" height="8" fill="#759ca7" opacity="0.5"/>
<rect x="783.1" y="260.4" width="6" height="8" fill="#759ca7" opacity="0.5"/>
<rect x="966.0" y="135.2" width="69.7" height="164.8" fill="#2b6777"/>
<rect x="983.9" y="147.2" width="6" height="8" fill="#759ca7" opacity="0.5"/>
<rect x="997.9" y="147.2" width="6" height="8" fill="#759ca7" opacity="0.5"/>
<rect x="983.9" y="163.2" width="6" height="8" fill="#759ca7" opacity="0.5"/>
<rect x="997.9" y="163.2" width="6" height="8" fill="#759ca7" opacity="0.5"/>
<rect x="983.9" y="179.2" width="6" height="8" fill="#759ca7" opacity="0.5"/>
<rect x="997.9" y="179.2" width="6" height="8" fill="#759ca7" opacity="0.5"/>
<rect x="1011.9" y="179.2" width="6" height="8" fill="#759ca7" opacity="0.5"/>
<rect x="997.9" y="195.2" width="6" height="8" fill="#759ca7" opacity="0.5"/>
<rect x="1011.9" y="195.2" width="6" height="8" fill="#759ca7" opacity="0.5"/>
<rect x="997.9" y="211.2" width="6" height="8" fill="#759ca7" opacity="0.5"/>
<rect x="997.9" y="227.2" width="6" height="8" fill="#759ca7" opacity="0.5"/>
<rect x="1011.9" y="227.2" width="6" height="8" fill="#759ca7" opacity="0.5"/>
<rect x="997.9" y="243.2" width="6" height="8" fill="#759ca7" opacity="0.5"/>
<rect x="1011.9" y="243.2" width="6" height="8" fill="#759ca7" opacity="0.5"/>
<rect x="983.9" y="259.2" width="6" height="8" fill="#759ca7" opacity="0.5"/>
<rect x="997.9" y="259.2" width="6" height="8" fill="#759ca7" opacity="0.5"/>
<rect x="0" y="298" width="1200" height="2" fill="#275d6b" opacity="0.15"/>
</svg>