<svg xmlns="http://www.w3.org/2000/svg" viewBox="0 0 1200 300" width="1200" height="300">
<defs>
<linearGradient id="skyGrad" x1="0" y1="0" x2="0" y2="1">
<stop offset="0%" stop-color="#a78bfa"/>
<stop offset="18%" stop-color="#ddb4f0"/>
<stop offset="35%" stop-color="#fda4af"/>
<stop offset="52%" stop-color="#fdba74"/>
<stop offset="72%" stop-color="#fef08a"/>
<stop offset="100%" stop-color="#fef9c3"/>
</linearGradient>
<linearGradient id="bldg_coral" x1="0" y1="0" x2="0" y2="1"><stop offset="0%" stop-color="#fecaca"/><stop offset="100%" stop-color="#fca5a5"/></linearGradient>
<linearGradient id="bldg_teal" x1="0" y1="0" x2="0" y2="1"><stop offset="0%" stop-color="#99f6e4"/><stop offset="100%" stop-color="#5eead4"/></linearGradient>
<linearGradient id="bldg_amber" x1="0" y1="0" x2="0" y2="1"><stop offset="0%" stop-color="#fde68a"/><stop offset="100%" stop-color="#fcd34d"/></linearGradient>
<linearGradient id="bldg_lavender" x1="0" y1="0" x2="0" y2="1"><stop offset="0%" stop-color="#ddd6fe"/><stop offset="100%" stop-color="#c4b5fd"/></linearGradient>
<linearGradient id="bldg_blue" x1="0" y1="0" x2="0" y2="1"><stop offset="0%" stop-color="#bfdbfe"/><stop offset="100%" stop-color="#93c5fd"/></linearGradient>
<linearGradient id="bldg_mint" x1="0" y1="0" x2="0" y2="1"><stop offset="0%" stop-color="#a7f3d0"/><stop offset="100%" stop-color="#6ee7b7"/></linearGradient>
<linearGradient id="bldg_rose" x1="0" y1="0" x2="0" y2="1"><stop offset="0%" stop-color="#fecdd3"/><stop offset="100%" stop-color="#fda4af"/></linearGradient>
<linearGradient id="bldg_sky" x1="0" y1="0" x2="0" y2="1"><stop offset="0%" stop-color="#bae6fd"/><stop offset="100%" stop-color="#7dd3fc"/></linearGradient>
<linearGradient id="roof_navyRoof" x1="0" y1="0" x2="0" y2="1"><stop offset="0%" stop-color="#4338ca"/><stop offset="100%" stop-color="#3730a3"/></linearGradient>
<linearGradient id="roof_coralRoof" x1="0" y1="0" x2="0" y2="1"><stop offset="0%" stop-color="#f87171"/><stop offset="100%" stop-color="#ef4444"/></linearGradient>
<linearGradient id="roof_tealRoof" x1="0" y1="0" x2="0" y2="1"><stop offset="0%" stop-color="#2dd4bf"/><stop offset="100%" stop-color="#14b8a6"/></linearGradient>
<radialGradient id="windowGlow" cx="50%" cy="50%" r="50%"><stop offset="0%" stop-color="#fef08a"/><stop offset="60%" stop-color="#fbbf24"/><stop offset="100%" stop-color="#f59e0b"/></radialGradient>
<linearGradient id="hillFar" x1="0" y1="0" x2="0" y2="1"><stop offset="0%" stop-color="#c4b5fd"/><stop offset="100%" stop-color="#a5b4fc"/></linearGradient>
<linearGradient id="hillMid" x1="0" y1="0" x2="0" y2="1"><stop offset="0%" stop-color="#86efac"/><stop offset="100%" stop-color="#4ade80"/></linearGradient>
<linearGradient id="hillNear" x1="0" y1="0" x2="0" y2="1"><stop offset="0%" stop-color="#34d399"/><stop offset="100%" stop-color="#10b981"/></linearGradient>
<linearGradient id="hillDesertFar" x1="0" y1="0" x2="0" y2="1"><stop offset="0%" stop-color="#fde68a"/><stop offset="100%" stop-color="#fcd34d"/></linearGradient>
<linearGradient id="hillDesertMid" x1="0" y1="0" x2="0" y2="1"><stop offset="0%" stop-color="#fcd34d"/><stop offset="100%" stop-color="#fbbf24"/></linearGradient>
<linearGradient id="hillDesertNear" x1="0" y1="0" x2="0" y2="1"><stop offset="0%" stop-color="#fbbf24"/><stop offset="100%" stop-color="#f59e0b"/></linearGradient>
<linearGradient id="groundGrad" x1="0" y1="0" x2="0" y2="1"><stop offset="0%" stop-color="#fef3c7"/><stop offset="100%" stop-color="#fde68a"/></linearGradient>
<linearGradient id="waterGrad" x1="0" y1="0" x2="0" y2="1"><stop offset="0%" stop-color="#bfdbfe"/><stop offset="100%" stop-color="#93c5fd"/></linearGradient>
<filter id="softGlow" x="-50%" y="-50%" width="200%" height="200%"><feGaussianBlur in="SourceGraphic" stdDeviation="12"/></filter>
</defs>
<rect width="1200" height="300" fill="url(#skyGrad)"/>
<circle cx="969.3" cy="47.4" r="45" fill="#fef08a" opacity="0.12" filter="url(#softGlow)"/>
<circle cx="969.3" cy="47.4" r="30" fill="#fde68a" opacity="0.18" filter="url(#softGlow)"/>
<circle cx="969.3" cy="47.4" r="16" fill="#fef9c3" opacity="0.25" filter="url(#softGlow)"/>
<path d="M0 300 L0.0 188.3 C134.6 188.3, 134.6 180.7, 269.2 180.7 C441.0 180.7, 441.0 183.3, 612.9 183.3 C762.0 183.3, 762.0 179.0, 911.0 179.0 C1055.5 179.0, 1055.5 198.7, 1200.0 198.7 L1200 300 Z" fill="url(#hillFar)" opacity="0.5"/>
<path d="M0 300 L0.0 209.0 C225.9 209.0, 225.9 202.0, 451.8 202.0 C619.4 202.0, 619.4 210.3, 787.1 210.3 C993.5 210.3, 993.5 216.4, 1200.0 216.4 L1200 300 Z" fill="url(#hillMid)" opacity="0.7"/>
<path d="M0 300 L0.0 228.8 C238.8 228.8, 238.8 229.7, 477.7 229.7 C668.8 229.7, 668.8 235.5, 859.9 235.5 C1029.9 235.5, 1029.9 237.1, 1200.0 237.1 L1200 300 Z" fill="url(#hillNear)" opacity="1"/>
<rect x="251.3" y="222.1" width="59.1" height="77.9" rx="3" fill="url(#bldg_rose)" opacity="0.7"/>
<rect x="263.2" y="212.7" width="35.5" height="9.3" rx="2" fill="url(#roof_coralRoof)" opacity="0.7"/>
<rect x="263.9" y="232.1" width="6" height="8" rx="1" fill="url(#windowGlow)" opacity="0.8760766589437037"/>
<rect x="291.9" y="232.1" width="6" height="8" rx="1" fill="url(#windowGlow)" opacity="0.7564146250749074"/>
<rect x="263.9" y="247.1" width="6" height="8" rx="1" fill="url(#windowGlow)" opacity="0.9050234239571836"/>
<rect x="277.9" y="247.1" width="6" height="8" rx="1" fill="url(#windowGlow)" opacity="0.719037334443553"/>
<rect x="291.9" y="247.1" width="6" height="8" rx="1" fill="url(#windowGlow)" opacity="0.9268479267260282"/>
<rect x="853.9" y="248.6" width="69.2" height="51.4" rx="3" fill="url(#bldg_sky)" opacity="0.7"/>
<polygon points="853.9,248.6 888.5,230.6 923.1,248.6" fill="url(#roof_tealRoof)" opacity="0.7"/>
<rect x="871.5" y="258.6" width="6" height="8" rx="1" fill="url(#windowGlow)" opacity="0.7412189132725907"/>
<rect x="899.5" y="258.6" width="6" height="8" rx="1" fill="url(#windowGlow)" opacity="0.9248439060174133"/>
<rect x="325.7" y="214.4" width="55.6" height="85.6" rx="3" fill="url(#bldg_coral)" opacity="0.85"/>
<polygon points="325.7,214.4 353.4,196.0 381.2,214.4" fill="url(#roof_navyRoof)" opacity="0.85"/>
<rect x="343.4" y="224.4" width="6" height="8" rx="1" fill="url(#windowGlow)" opacity="0.8507031566699516"/>
<rect x="357.4" y="224.4" width="6" height="8" rx="1" fill="url(#windowGlow)" opacity="0.7262832780956678"/>
<rect x="357.4" y="239.4" width="6" height="8" rx="1" fill="url(#windowGlow)" opacity="0.9386375518695625"/>
<path d="M331.2 244.4 L353.4 244.4 L350.4 250.4 L334.2 250.4 Z" fill="url(#roof_tealRoof)" opacity="0.68"/>
<rect x="853.4" y="209.3" width="46.9" height="90.7" rx="3" fill="url(#bldg_teal)" opacity="0.85"/>
<polygon points="853.4,209.3 876.8,197.9 900.3,209.3" fill="url(#roof_coralRoof)" opacity="0.85"/>
<rect x="866.8" y="219.3" width="6" height="8" rx="1" fill="url(#windowGlow)" opacity="0.9557951925582229"/>
<rect x="880.8" y="219.3" width="6" height="8" rx="1" fill="url(#windowGlow)" opacity="0.8260621026745355"/>
<rect x="866.8" y="234.3" width="6" height="8" rx="1" fill="url(#windowGlow)" opacity="0.9948700454527838"/>
<rect x="880.8" y="234.3" width="6" height="8" rx="1" fill="url(#windowGlow)" opacity="0.8340260891867922"/>
<rect x="880.8" y="249.3" width="6" height="8" rx="1" fill="url(#windowGlow)" opacity="0.9372311432553599"/>
<path d="M876.8 241.0 L895.6 241.0 L892.6 247.0 L879.8 247.0 Z" fill="url(#roof_navyRoof)" opacity="0.68"/>
<rect x="219.1" y="161.3" width="39.1" height="138.7" rx="3" fill="url(#bldg_amber)" opacity="1"/>
<rect x="219.1" y="158.3" width="39.1" height="3" rx="1" fill="url(#roof_tealRoof)" opacity="1"/>
<rect x="235.6" y="171.3" width="6" height="8" rx="1" fill="url(#windowGlow)" opacity="0.9030615056879173"/>
<rect x="235.6" y="186.3" width="6" height="8" rx="1" fill="url(#windowGlow)" opacity="0.7980010440098126"/>
<rect x="235.6" y="246.3" width="6" height="8" rx="1" fill="url(#windowGlow)" opacity="0.9645212716257764"/>
<rect x="233.6" y="284.0" width="10" height="16" rx="2" fill="url(#roof_navyRoof)" opacity="0.8"/>
<rect x="235.6" y="287.0" width="6" height="10" rx="1" fill="url(#windowGlow)" opacity="0.45"/>
<path d="M238.6 209.9 L254.2 209.9 L251.2 215.9 L241.6 215.9 Z" fill="url(#roof_coralRoof)" opacity="0.8"/>
<rect x="607.9" y="201.7" width="62.7" height="98.3" rx="3" fill="url(#bldg_lavender)" opacity="1"/>
<rect x="607.9" y="198.7" width="62.7" height="3" rx="1" fill="url(#roof_navyRoof)" opacity="1"/>
<rect x="622.2" y="211.7" width="6" height="8" rx="1" fill="url(#windowGlow)" opacity="0.8474675419961416"/>
<rect x="636.2" y="211.7" width="6" height="8" rx="1" fill="url(#windowGlow)" opacity="0.9729004490063062"/>
<rect x="650.2" y="211.7" width="6" height="8" rx="1" fill="url(#windowGlow)" opacity="0.8313882046525312"/>
<rect x="622.2" y="226.7" width="6" height="8" rx="1" fill="url(#windowGlow)" opacity="0.7702715299885121"/>
<rect x="636.2" y="226.7" width="6" height="8" rx="1" fill="url(#windowGlow)" opacity="0.961915703100113"/>
<rect x="650.2" y="226.7" width="6" height="8" rx="1" fill="url(#windowGlow)" opacity="0.8112052945472324"/>
<rect x="622.2" y="241.7" width="6" height="8" rx="1" fill="url(#windowGlow)" opacity="0.938170129590747"/>
<rect x="636.2" y="241.7" width="6" height="8" rx="1" fill="url(#windowGlow)" opacity="0.8484133724348681"/>
<rect x="650.2" y="241.7" width="6" height="8" rx="1" fill="url(#windowGlow)" opacity="0.9577235724580118"/>
<rect x="622.2" y="256.7" width="6" height="8" rx="1" fill="url(#windowGlow)" opacity="0.8144009420715277"/>
<rect x="636.2" y="256.7" width="6" height="8" rx="1" fill="url(#windowGlow)" opacity="0.7009140804879899"/>
<rect x="634.2" y="284.0" width="10" height="16" rx="2" fill="url(#roof_navyRoof)" opacity="0.8"/>
<rect x="636.2" y="287.0" width="6" height="10" rx="1" fill="url(#windowGlow)" opacity="0.45"/>
<rect x="628.2" y="227.7" width="21.9" height="5" rx="1" fill="#15803d" opacity="0.7"/>
<circle cx="631.2" cy="226.7" r="2.5" fill="#f87171" opacity="0.85"/>
<circle cx="638.6" cy="226.7" r="2.5" fill="#f87171" opacity="0.85"/>
<circle cx="645.9" cy="226.7" r="2.5" fill="#fb923c" opacity="0.85"/>
<rect x="899.9" y="191.9" width="62.5" height="108.1" rx="3" fill="url(#bldg_blue)" opacity="1"/>
<polygon points="899.9,191.9 931.1,174.8 962.4,191.9" fill="url(#roof_coralRoof)" opacity="1"/>
<rect x="928.1" y="201.9" width="6" height="8" rx="1" fill="url(#windowGlow)" opacity="0.8041774082017026"/>
<rect x="914.1" y="216.9" width="6" height="8" rx="1" fill="url(#windowGlow)" opacity="0.972225803449855"/>
<rect x="928.1" y="216.9" width="6" height="8" rx="1" fill="url(#windowGlow)" opacity="0.9611043660254703"/>
<rect x="942.1" y="216.9" width="6" height="8" rx="1" fill="url(#windowGlow)" opacity="0.9665283606697471"/>
<rect x="914.1" y="231.9" width="6" height="8" rx="1" fill="url(#windowGlow)" opacity="0.7590368981748059"/>
<rect x="928.1" y="231.9" width="6" height="8" rx="1" fill="url(#windowGlow)" opacity="0.8625046132889131"/>
<rect x="942.1" y="231.9" width="6" height="8" rx="1" fill="url(#windowGlow)" opacity="0.8977615827684111"/>
<rect x="928.1" y="246.9" width="6" height="8" rx="1" fill="url(#windowGlow)" opacity="0.9387913297576789"/>
<rect x="942.1" y="246.9" width="6" height="8" rx="1" fill="url(#windowGlow)" opacity="0.9140783066461227"/>
<rect x="926.1" y="284.0" width="10" height="16" rx="2" fill="url(#roof_navyRoof)" opacity="0.8"/>
<rect x="928.1" y="287.0" width="6" height="10" rx="1" fill="url(#windowGlow)" opacity="0.45"/>
<rect x="920.2" y="217.9" width="21.9" height="5" rx="1" fill="#15803d" opacity="0.7"/>
<circle cx="923.2" cy="216.9" r="2.5" fill="#f87171" opacity="0.85"/>
<circle cx="930.5" cy="216.9" r="2.5" fill="#fb923c" opacity="0.85"/>
<circle cx="937.8" cy="216.9" r="2.5" fill="#a78bfa" opacity="0.85"/>
<path d="M433.0 285.0 Q449.5 258.4 442.9 231.8" stroke="#92400e" stroke-width="4" fill="none" stroke-linecap="round"/>
<path d="M442.9 231.8 Q433.8 222.0 427.7 223.4" stroke="#16a34a" stroke-width="2.5" fill="none" stroke-linecap="round"/>
<path d="M442.9 231.8 Q449.6 219.1 454.0 217.1" stroke="#22c55e" stroke-width="2.5" fill="none" stroke-linecap="round"/>
<path d="M442.9 231.8 Q457.4 225.8 467.1 231.8" stroke="#15803d" stroke-width="2.5" fill="none" stroke-linecap="round"/>
<path d="M442.9 231.8 Q449.9 232.9 454.6 247.4" stroke="#4ade80" stroke-width="2.5" fill="none" stroke-linecap="round"/>
<path d="M442.9 231.8 Q431.4 230.6 423.8 242.3" stroke="#16a34a" stroke-width="2.5" fill="none" stroke-linecap="round"/>
<path d="M785.2 285.0 Q804.4 257.1 796.7 229.2" stroke="#92400e" stroke-width="4" fill="none" stroke-linecap="round"/>
<path d="M796.7 229.2 Q787.0 219.1 780.5 220.2" stroke="#16a34a" stroke-width="2.5" fill="none" stroke-linecap="round"/>
<path d="M796.7 229.2 Q802.5 217.4 806.3 216.5" stroke="#22c55e" stroke-width="2.5" fill="none" stroke-linecap="round"/>
<path d="M796.7 229.2 Q809.3 223.2 817.7 229.2" stroke="#15803d" stroke-width="2.5" fill="none" stroke-linecap="round"/>
<path d="M796.7 229.2 Q801.4 227.9 804.5 239.5" stroke="#4ade80" stroke-width="2.5" fill="none" stroke-linecap="round"/>
<path d="M796.7 229.2 Q784.0 228.5 775.4 240.9" stroke="#16a34a" stroke-width="2.5" fill="none" stroke-linecap="round"/>
<path d="M190.1 285.0 Q219.6 263.3 207.8 241.7" stroke="#92400e" stroke-width="4" fill="none" stroke-linecap="round"/>
<path d="M207.8 241.7 Q195.9 230.7 187.9 230.7" stroke="#16a34a" stroke-width="2.5" fill="none" stroke-linecap="round"/>
<path d="M207.8 241.7 Q215.2 228.2 220.2 225.2" stroke="#22c55e" stroke-width="2.5" fill="none" stroke-linecap="round"/>
<path d="M207.8 241.7 Q220.8 235.7 229.5 241.7" stroke="#15803d" stroke-width="2.5" fill="none" stroke-linecap="round"/>
<path d="M207.8 241.7 Q213.9 241.8 217.9 255.1" stroke="#4ade80" stroke-width="2.5" fill="none" stroke-linecap="round"/>
<path d="M207.8 241.7 Q196.3 240.5 188.6 252.2" stroke="#16a34a" stroke-width="2.5" fill="none" stroke-linecap="round"/>
<path d="M992.0 285.0 Q1020.9 258.3 1009.3 231.6" stroke="#92400e" stroke-width="4" fill="none" stroke-linecap="round"/>
<path d="M1009.3 231.6 Q1000.2 221.8 994.2 223.3" stroke="#16a34a" stroke-width="2.5" fill="none" stroke-linecap="round"/>
<path d="M1009.3 231.6 Q1015.0 219.9 1018.8 219.1" stroke="#22c55e" stroke-width="2.5" fill="none" stroke-linecap="round"/>
<path d="M1009.3 231.6 Q1023.0 225.6 1032.0 231.6" stroke="#15803d" stroke-width="2.5" fill="none" stroke-linecap="round"/>
<path d="M1009.3 231.6 Q1015.7 232.0 1019.9 245.6" stroke="#4ade80" stroke-width="2.5" fill="none" stroke-linecap="round"/>
<path d="M1009.3 231.6 Q994.9 231.6 985.3 244.8" stroke="#16a34a" stroke-width="2.5" fill="none" stroke-linecap="round"/>
<path d="M1060.8 285.0 Q1082.0 263.4 1073.5 241.7" stroke="#92400e" stroke-width="4" fill="none" stroke-linecap="round"/>
<path d="M1073.5 241.7 Q1060.9 230.5 1052.5 230.1" stroke="#16a34a" stroke-width="2.5" fill="none" stroke-linecap="round"/>
<path d="M1073.5 241.7 Q1080.7 228.5 1085.5 225.8" stroke="#22c55e" stroke-width="2.5" fill="none" stroke-linecap="round"/>
<path d="M1073.5 241.7 Q1090.6 235.7 1101.9 241.7" stroke="#15803d" stroke-width="2.5" fill="none" stroke-linecap="round"/>
<path d="M1073.5 241.7 Q1080.4 242.6 1085.0 257.0" stroke="#4ade80" stroke-width="2.5" fill="none" stroke-linecap="round"/>
<path d="M1073.5 241.7 Q1063.0 240.1 1055.9 251.4" stroke="#16a34a" stroke-width="2.5" fill="none" stroke-linecap="round"/>
<path d="M870.3 285.0 Q890.1 257.4 882.2 229.8" stroke="#92400e" stroke-width="4" fill="none" stroke-linecap="round"/>
<path d="M882.2 229.8 Q869.2 218.4 860.6 218.0" stroke="#16a34a" stroke-width="2.5" fill="none" stroke-linecap="round"/>
<path d="M882.2 229.8 Q889.1 216.9 893.7 214.6" stroke="#22c55e" stroke-width="2.5" fill="none" stroke-linecap="round"/>
<path d="M882.2 229.8 Q900.7 223.8 913.0 229.8" stroke="#15803d" stroke-width="2.5" fill="none" stroke-linecap="round"/>
<path d="M882.2 229.8 Q886.9 228.6 890.0 240.2" stroke="#4ade80" stroke-width="2.5" fill="none" stroke-linecap="round"/>
<path d="M882.2 229.8 Q873.2 227.6 867.2 238.1" stroke="#16a34a" stroke-width="2.5" fill="none" stroke-linecap="round"/>
<path d="M678.7 285.0 Q704.7 263.8 694.3 242.7" stroke="#92400e" stroke-width="4" fill="none" stroke-linecap="round"/>
<path d="M694.3 242.7 Q683.9 232.3 677.0 233.2" stroke="#16a34a" stroke-width="2.5" fill="none" stroke-linecap="round"/>
<path d="M694.3 242.7 Q700.7 230.3 704.9 228.6" stroke="#22c55e" stroke-width="2.5" fill="none" stroke-linecap="round"/>
<path d="M694.3 242.7 Q707.9 236.7 716.9 242.7" stroke="#15803d" stroke-width="2.5" fill="none" stroke-linecap="round"/>
<path d="M694.3 242.7 Q699.0 241.4 702.1 253.1" stroke="#4ade80" stroke-width="2.5" fill="none" stroke-linecap="round"/>
<path d="M694.3 242.7 Q681.2 242.1 672.5 254.7" stroke="#16a34a" stroke-width="2.5" fill="none" stroke-linecap="round"/>
<path d="M293.6 285.0 Q315.3 257.2 306.6 229.5" stroke="#92400e" stroke-width="4" fill="none" stroke-linecap="round"/>
<path d="M306.6 229.5 Q294.3 218.3 286.0 218.1" stroke="#16a34a" stroke-width="2.5" fill="none" stroke-linecap="round"/>
<path d="M306.6 229.5 Q312.3 217.7 316.1 216.8" stroke="#22c55e" stroke-width="2.5" fill="none" stroke-linecap="round"/>
<path d="M306.6 229.5 Q319.6 223.5 328.2 229.5" stroke="#15803d" stroke-width="2.5" fill="none" stroke-linecap="round"/>
<path d="M306.6 229.5 Q313.4 230.3 318.0 244.5" stroke="#4ade80" stroke-width="2.5" fill="none" stroke-linecap="round"/>
<path d="M306.6 229.5 Q295.2 228.2 287.6 239.9" stroke="#16a34a" stroke-width="2.5" fill="none" stroke-linecap="round"/>
<path d="M967.7 285.0 Q980.2 255.0 975.2 225.1" stroke="#92400e" stroke-width="4" fill="none" stroke-linecap="round"/>
<path d="M975.2 225.1 Q961.9 213.5 953.1 212.9" stroke="#16a34a" stroke-width="2.5" fill="none" stroke-linecap="round"/>
<path d="M975.2 225.1 Q979.9 214.3 983.1 214.5" stroke="#22c55e" stroke-width="2.5" fill="none" stroke-linecap="round"/>
<path d="M975.2 225.1 Q993.8 219.1 1006.2 225.1" stroke="#15803d" stroke-width="2.5" fill="none" stroke-linecap="round"/>
<path d="M975.2 225.1 Q980.8 224.7 984.5 237.5" stroke="#4ade80" stroke-width="2.5" fill="none" stroke-linecap="round"/>
<path d="M975.2 225.1 Q964.4 223.5 957.2 234.9" stroke="#16a34a" stroke-width="2.5" fill="none" stroke-linecap="round"/>
<rect x="0" y="282" width="1200" height="18" fill="url(#groundGrad)"/>
</svg>