<svg xmlns="http://www.w3.org/2000/svg" viewBox="0 0 1200 300" width="1200" height="300">
<defs>
<linearGradient id="skyGrad" x1="0" y1="0" x2="0" y2="1">
<stop offset="0%" stop-color="#818cf8"/>
<stop offset="20%" stop-color="#c4b5fd"/>
<stop offset="38%" stop-color="#fda4af"/>
<stop offset="55%" stop-color="#fdba74"/>
<stop offset="75%" stop-color="#fef08a"/>
<stop offset="100%" stop-color="#fef9c3"/>
</linearGradient>
<linearGradient id="bldg_coral" x1="0" y1="0" x2="0" y2="1"><stop offset="0%" stop-color="#fecaca"/><stop offset="100%" stop-color="#fca5a5"/></linearGradient>
<linearGradient id="bldg_teal" x1="0" y1="0" x2="0" y2="1"><stop offset="0%" stop-color="#99f6e4"/><stop offset="100%" stop-color="#5eead4"/></linearGradient>
<linearGradient id="bldg_amber" x1="0" y1="0" x2="0" y2="1"><stop offset="0%" stop-color="#fde68a"/><stop offset="100%" stop-color="#fcd34d"/></linearGradient>
<linearGradient id="bldg_lavender" x1="0" y1="0" x2="0" y2="1"><stop offset="0%" stop-color="#ddd6fe"/><stop offset="100%" stop-color="#c4b5fd"/></linearGradient>
<linearGradient id="bldg_blue" x1="0" y1="0" x2="0" y2="1"><stop offset="0%" stop-color="#bfdbfe"/><stop offset="100%" stop-color="#93c5fd"/></linearGradient>
<linearGradient id="bldg_mint" x1="0" y1="0" x2="0" y2="1"><stop offset="0%" stop-color="#a7f3d0"/><stop offset="100%" stop-color="#6ee7b7"/></linearGradient>
<linearGradient id="bldg_rose" x1="0" y1="0" x2="0" y2="1"><stop offset="0%" stop-color="#fecdd3"/><stop offset="100%" stop-color="#fda4af"/></linearGradient>
<linearGradient id="bldg_sky" x1="0" y1="0" x2="0" y2="1"><stop offset="0%" stop-color="#bae6fd"/><stop offset="100%" stop-color="#7dd3fc"/></linearGradient>
<linearGradient id="roof_navyRoof" x1="0" y1="0" x2="0" y2="1"><stop offset="0%" stop-color="#4338ca"/><stop offset="100%" stop-color="#3730a3"/></linearGradient>
<linearGradient id="roof_coralRoof" x1="0" y1="0" x2="0" y2="1"><stop offset="0%" stop-color="#f87171"/><stop offset="100%" stop-color="#ef4444"/></linearGradient>
<linearGradient id="roof_tealRoof" x1="0" y1="0" x2="0" y2="1"><stop offset="0%" stop-color="#2dd4bf"/><stop offset="100%" stop-color="#14b8a6"/></linearGradient>
<radialGradient id="windowGlow" cx="50%" cy="50%" r="50%"><stop offset="0%" stop-color="#fef08a"/><stop offset="60%" stop-color="#fbbf24"/><stop offset="100%" stop-color="#f59e0b"/></radialGradient>
<linearGradient id="hillFar" x1="0" y1="0" x2="0" y2="1"><stop offset="0%" stop-color="#c4b5fd"/><stop offset="100%" stop-color="#a5b4fc"/></linearGradient>
<linearGradient id="hillMid" x1="0" y1="0" x2="0" y2="1"><stop offset="0%" stop-color="#86efac"/><stop offset="100%" stop-color="#4ade80"/></linearGradient>
<linearGradient id="hillNear" x1="0" y1="0" x2="0" y2="1"><stop offset="0%" stop-color="#34d399"/><stop offset="100%" stop-color="#10b981"/></linearGradient>
<linearGradient id="hillDesertFar" x1="0" y1="0" x2="0" y2="1"><stop offset="0%" stop-color="#fde68a"/><stop offset="100%" stop-color="#fcd34d"/></linearGradient>
<linearGradient id="hillDesertMid" x1="0" y1="0" x2="0" y2="1"><stop offset="0%" stop-color="#fcd34d"/><stop offset="100%" stop-color="#fbbf24"/></linearGradient>
<linearGradient id="hillDesertNear" x1="0" y1="0" x2="0" y2="1"><stop offset="0%" stop-color="#fbbf24"/><stop offset="100%" stop-color="#f59e0b"/></linearGradient>
<linearGradient id="groundGrad" x1="0" y1="0" x2="0" y2="1"><stop offset="0%" stop-color="#fef3c7"/><stop offset="100%" stop-color="#fde68a"/></linearGradient>
<linearGradient id="waterGrad" x1="0" y1="0" x2="0" y2="1"><stop offset="0%" stop-color="#bfdbfe"/><stop offset="100%" stop-color="#93c5fd"/></linearGradient>
<filter id="softGlow" x="-50%" y="-50%" width="200%" height="200%"><feGaussianBlur in="SourceGraphic" stdDeviation="12"/></filter>
</defs>
<rect width="1200" height="300" fill="url(#skyGrad)"/>
<circle cx="923.0" cy="40.3" r="45" fill="#fef08a" opacity="0.12" filter="url(#softGlow)"/>
<circle cx="923.0" cy="40.3" r="30" fill="#fde68a" opacity="0.18" filter="url(#softGlow)"/>
<circle cx="923.0" cy="40.3" r="16" fill="#fef9c3" opacity="0.25" filter="url(#softGlow)"/>
<ellipse cx="1054.5" cy="20.6" rx="29.1" ry="10.2" fill="white" opacity="0.6"/>
<ellipse cx="1036.3" cy="23.5" rx="20.4" ry="8.0" fill="white" opacity="0.5"/>
<ellipse cx="1070.5" cy="22.7" rx="23.3" ry="8.7" fill="white" opacity="0.5"/>
<ellipse cx="315.5" cy="27.6" rx="41.8" ry="14.6" fill="white" opacity="0.5"/>
<ellipse cx="289.3" cy="31.8" rx="29.3" ry="11.5" fill="white" opacity="0.5"/>
<ellipse cx="338.5" cy="30.7" rx="33.5" ry="12.6" fill="white" opacity="0.4"/>
<path d="M0 300 L0.0 194.8 C148.8 194.8, 148.8 189.8, 297.7 189.8 C405.5 189.8, 405.5 180.7, 513.2 180.7 C602.8 180.7, 602.8 184.8, 692.4 184.8 C819.8 184.8, 819.8 194.1, 947.2 194.1 C1073.6 194.1, 1073.6 186.7, 1200.0 186.7 L1200 300 Z" fill="url(#hillFar)" opacity="0.5"/>
<path d="M0 300 L0.0 215.7 C168.3 215.7, 168.3 210.7, 336.6 210.7 C597.3 210.7, 597.3 214.1, 857.9 214.1 C1029.0 214.1, 1029.0 209.2, 1200.0 209.2 L1200 300 Z" fill="url(#hillMid)" opacity="0.7"/>
<path d="M0 300 L0.0 233.2 C119.3 233.2, 119.3 234.7, 238.5 234.7 C348.0 234.7, 348.0 237.4, 457.4 237.4 C615.9 237.4, 615.9 237.0, 774.5 237.0 C875.9 237.0, 875.9 231.0, 977.3 231.0 C1088.7 231.0, 1088.7 231.6, 1200.0 231.6 L1200 300 Z" fill="url(#hillNear)" opacity="1"/>
<rect x="172.7" y="205.1" width="55.0" height="94.9" rx="3" fill="url(#bldg_lavender)" opacity="0.7"/>
<rect x="172.7" y="202.1" width="55.0" height="3" rx="1" fill="url(#roof_tealRoof)" opacity="0.7"/>
<rect x="190.2" y="215.1" width="6" height="8" rx="1" fill="url(#windowGlow)" opacity="0.9052849308146559"/>
<rect x="204.2" y="215.1" width="6" height="8" rx="1" fill="url(#windowGlow)" opacity="0.9683108337075965"/>
<rect x="190.2" y="230.1" width="6" height="8" rx="1" fill="url(#windowGlow)" opacity="0.8542389890431608"/>
<rect x="204.2" y="230.1" width="6" height="8" rx="1" fill="url(#windowGlow)" opacity="0.9002024171409209"/>
<rect x="190.2" y="245.1" width="6" height="8" rx="1" fill="url(#windowGlow)" opacity="0.71669739443655"/>
<rect x="204.2" y="245.1" width="6" height="8" rx="1" fill="url(#windowGlow)" opacity="0.9890265542962711"/>
<rect x="190.2" y="260.1" width="6" height="8" rx="1" fill="url(#windowGlow)" opacity="0.8090734066483907"/>
<rect x="418.6" y="205.2" width="87.2" height="94.8" rx="3" fill="url(#bldg_blue)" opacity="0.7"/>
<polygon points="418.6,205.2 462.2,178.1 505.8,205.2" fill="url(#roof_navyRoof)" opacity="0.7"/>
<rect x="452.2" y="215.2" width="6" height="8" rx="1" fill="url(#windowGlow)" opacity="0.7486951379797864"/>
<rect x="466.2" y="215.2" width="6" height="8" rx="1" fill="url(#windowGlow)" opacity="0.8960261805430176"/>
<rect x="480.2" y="215.2" width="6" height="8" rx="1" fill="url(#windowGlow)" opacity="0.8579996486464513"/>
<rect x="438.2" y="230.2" width="6" height="8" rx="1" fill="url(#windowGlow)" opacity="0.7517795283122823"/>
<rect x="452.2" y="230.2" width="6" height="8" rx="1" fill="url(#windowGlow)" opacity="0.7274019579065041"/>
<rect x="466.2" y="230.2" width="6" height="8" rx="1" fill="url(#windowGlow)" opacity="0.920228459928291"/>
<rect x="480.2" y="230.2" width="6" height="8" rx="1" fill="url(#windowGlow)" opacity="0.994057741944705"/>
<rect x="438.2" y="245.2" width="6" height="8" rx="1" fill="url(#windowGlow)" opacity="0.9961607159097495"/>
<rect x="452.2" y="245.2" width="6" height="8" rx="1" fill="url(#windowGlow)" opacity="0.9429643206032757"/>
<rect x="466.2" y="245.2" width="6" height="8" rx="1" fill="url(#windowGlow)" opacity="0.8260081714140288"/>
<rect x="480.2" y="245.2" width="6" height="8" rx="1" fill="url(#windowGlow)" opacity="0.9096339983444819"/>
<rect x="438.2" y="260.2" width="6" height="8" rx="1" fill="url(#windowGlow)" opacity="0.9221412700238364"/>
<rect x="452.2" y="260.2" width="6" height="8" rx="1" fill="url(#windowGlow)" opacity="0.8583533409323325"/>
<rect x="466.2" y="260.2" width="6" height="8" rx="1" fill="url(#windowGlow)" opacity="0.9511868941370336"/>
<rect x="716.4" y="224.4" width="76.5" height="75.6" rx="3" fill="url(#bldg_mint)" opacity="0.7"/>
<polygon points="716.4,224.4 754.7,199.7 792.9,224.4" fill="url(#roof_coralRoof)" opacity="0.7"/>
<rect x="730.7" y="234.4" width="6" height="8" rx="1" fill="url(#windowGlow)" opacity="0.9951476158085966"/>
<rect x="744.7" y="234.4" width="6" height="8" rx="1" fill="url(#windowGlow)" opacity="0.935606480778943"/>
<rect x="758.7" y="234.4" width="6" height="8" rx="1" fill="url(#windowGlow)" opacity="0.7375403655867745"/>
<rect x="744.7" y="249.4" width="6" height="8" rx="1" fill="url(#windowGlow)" opacity="0.7211583074280797"/>
<rect x="758.7" y="249.4" width="6" height="8" rx="1" fill="url(#windowGlow)" opacity="0.8463582254696442"/>
<rect x="772.7" y="249.4" width="6" height="8" rx="1" fill="url(#windowGlow)" opacity="0.8611224721004824"/>
<rect x="1007.4" y="243.2" width="61.7" height="56.8" rx="3" fill="url(#bldg_rose)" opacity="0.7"/>
<polygon points="1007.4,243.2 1038.3,225.9 1069.1,243.2" fill="url(#roof_tealRoof)" opacity="0.7"/>
<rect x="1021.3" y="253.2" width="6" height="8" rx="1" fill="url(#windowGlow)" opacity="0.9441351586227003"/>
<rect x="1049.3" y="253.2" width="6" height="8" rx="1" fill="url(#windowGlow)" opacity="0.9139720788756255"/>
<rect x="150.7" y="206.0" width="71.3" height="94.0" rx="3" fill="url(#bldg_sky)" opacity="0.85"/>
<rect x="150.7" y="203.0" width="71.3" height="3" rx="1" fill="url(#roof_navyRoof)" opacity="0.85"/>
<rect x="169.4" y="216.0" width="6" height="8" rx="1" fill="url(#windowGlow)" opacity="0.9842783155312195"/>
<rect x="197.4" y="216.0" width="6" height="8" rx="1" fill="url(#windowGlow)" opacity="0.7236066030913995"/>
<rect x="169.4" y="231.0" width="6" height="8" rx="1" fill="url(#windowGlow)" opacity="0.7652263076814013"/>
<rect x="183.4" y="231.0" width="6" height="8" rx="1" fill="url(#windowGlow)" opacity="0.7969903805279128"/>
<rect x="197.4" y="231.0" width="6" height="8" rx="1" fill="url(#windowGlow)" opacity="0.7796420998776528"/>
<rect x="183.4" y="246.0" width="6" height="8" rx="1" fill="url(#windowGlow)" opacity="0.8927760239656902"/>
<rect x="169.4" y="261.0" width="6" height="8" rx="1" fill="url(#windowGlow)" opacity="0.9283349027523466"/>
<rect x="183.4" y="261.0" width="6" height="8" rx="1" fill="url(#windowGlow)" opacity="0.83215389737494"/>
<rect x="197.4" y="261.0" width="6" height="8" rx="1" fill="url(#windowGlow)" opacity="0.8581221054578768"/>
<path d="M186.4 238.9 L214.9 238.9 L211.9 244.9 L189.4 244.9 Z" fill="url(#roof_tealRoof)" opacity="0.68"/>
<rect x="402.5" y="199.8" width="61.5" height="100.2" rx="3" fill="url(#bldg_coral)" opacity="0.85"/>
<polygon points="402.5,199.8 433.3,181.0 464.1,199.8" fill="url(#roof_coralRoof)" opacity="0.85"/>
<rect x="416.3" y="209.8" width="6" height="8" rx="1" fill="url(#windowGlow)" opacity="0.8553508311767832"/>
<rect x="430.3" y="209.8" width="6" height="8" rx="1" fill="url(#windowGlow)" opacity="0.9120026252754044"/>
<rect x="444.3" y="209.8" width="6" height="8" rx="1" fill="url(#windowGlow)" opacity="0.8164461409749677"/>
<rect x="444.3" y="224.8" width="6" height="8" rx="1" fill="url(#windowGlow)" opacity="0.7010010133967739"/>
<rect x="416.3" y="239.8" width="6" height="8" rx="1" fill="url(#windowGlow)" opacity="0.7606408330428603"/>
<rect x="444.3" y="239.8" width="6" height="8" rx="1" fill="url(#windowGlow)" opacity="0.9084992217870891"/>
<rect x="430.3" y="254.8" width="6" height="8" rx="1" fill="url(#windowGlow)" opacity="0.9524521463329214"/>
<rect x="745.4" y="175.2" width="53.2" height="124.8" rx="3" fill="url(#bldg_teal)" opacity="0.85"/>
<rect x="745.4" y="172.2" width="53.2" height="3" rx="1" fill="url(#roof_tealRoof)" opacity="0.85"/>
<rect x="762.0" y="185.2" width="6" height="8" rx="1" fill="url(#windowGlow)" opacity="0.7297422630850887"/>
<rect x="776.0" y="185.2" width="6" height="8" rx="1" fill="url(#windowGlow)" opacity="0.917835114345809"/>
<rect x="762.0" y="200.2" width="6" height="8" rx="1" fill="url(#windowGlow)" opacity="0.8619613078245713"/>
<rect x="776.0" y="200.2" width="6" height="8" rx="1" fill="url(#windowGlow)" opacity="0.9483915753887926"/>
<rect x="762.0" y="215.2" width="6" height="8" rx="1" fill="url(#windowGlow)" opacity="0.7707772771226136"/>
<rect x="776.0" y="215.2" width="6" height="8" rx="1" fill="url(#windowGlow)" opacity="0.9236604577040581"/>
<rect x="762.0" y="230.2" width="6" height="8" rx="1" fill="url(#windowGlow)" opacity="0.8545013570014859"/>
<rect x="776.0" y="230.2" width="6" height="8" rx="1" fill="url(#windowGlow)" opacity="0.9082809958645519"/>
<rect x="762.0" y="245.2" width="6" height="8" rx="1" fill="url(#windowGlow)" opacity="0.7454161381560452"/>
<path d="M772.0 218.9 L793.3 218.9 L790.3 224.9 L775.0 224.9 Z" fill="url(#roof_coralRoof)" opacity="0.68"/>
<rect x="961.9" y="183.6" width="74.7" height="116.4" rx="3" fill="url(#bldg_amber)" opacity="0.85"/>
<rect x="961.9" y="180.6" width="74.7" height="3" rx="1" fill="url(#roof_navyRoof)" opacity="0.85"/>
<rect x="975.3" y="193.6" width="6" height="8" rx="1" fill="url(#windowGlow)" opacity="0.884450701151253"/>
<rect x="989.3" y="193.6" width="6" height="8" rx="1" fill="url(#windowGlow)" opacity="0.7682162103560828"/>
<rect x="1003.3" y="193.6" width="6" height="8" rx="1" fill="url(#windowGlow)" opacity="0.79940235768417"/>
<rect x="1003.3" y="208.6" width="6" height="8" rx="1" fill="url(#windowGlow)" opacity="0.9842437347323837"/>
<rect x="1003.3" y="223.6" width="6" height="8" rx="1" fill="url(#windowGlow)" opacity="0.8306373648022475"/>
<rect x="975.3" y="238.6" width="6" height="8" rx="1" fill="url(#windowGlow)" opacity="0.8019094557510267"/>
<rect x="989.3" y="238.6" width="6" height="8" rx="1" fill="url(#windowGlow)" opacity="0.8622910380653529"/>
<rect x="1003.3" y="238.6" width="6" height="8" rx="1" fill="url(#windowGlow)" opacity="0.7609626523037267"/>
<rect x="1017.3" y="238.6" width="6" height="8" rx="1" fill="url(#windowGlow)" opacity="0.9300614482397499"/>
<rect x="975.3" y="253.6" width="6" height="8" rx="1" fill="url(#windowGlow)" opacity="0.7480374318305577"/>
<rect x="172.0" y="149.4" width="55.9" height="150.6" rx="3" fill="url(#bldg_lavender)" opacity="1"/>
<polygon points="172.0,149.4 199.9,131.1 227.9,149.4" fill="url(#roof_coralRoof)" opacity="1"/>
<rect x="189.9" y="159.4" width="6" height="8" rx="1" fill="url(#windowGlow)" opacity="0.7545135729734382"/>
<rect x="203.9" y="159.4" width="6" height="8" rx="1" fill="url(#windowGlow)" opacity="0.8990093194409317"/>
<rect x="203.9" y="174.4" width="6" height="8" rx="1" fill="url(#windowGlow)" opacity="0.9907025766049988"/>
<rect x="189.9" y="189.4" width="6" height="8" rx="1" fill="url(#windowGlow)" opacity="0.8251538469107607"/>
<rect x="189.9" y="204.4" width="6" height="8" rx="1" fill="url(#windowGlow)" opacity="0.9846510474498621"/>
<rect x="189.9" y="219.4" width="6" height="8" rx="1" fill="url(#windowGlow)" opacity="0.8141387618678336"/>
<rect x="203.9" y="219.4" width="6" height="8" rx="1" fill="url(#windowGlow)" opacity="0.9363517294807134"/>
<rect x="189.9" y="234.4" width="6" height="8" rx="1" fill="url(#windowGlow)" opacity="0.8543055152307755"/>
<rect x="203.9" y="234.4" width="6" height="8" rx="1" fill="url(#windowGlow)" opacity="0.7874742143263455"/>
<rect x="189.9" y="249.4" width="6" height="8" rx="1" fill="url(#windowGlow)" opacity="0.8214928391955294"/>
<rect x="203.9" y="249.4" width="6" height="8" rx="1" fill="url(#windowGlow)" opacity="0.7701152509404883"/>
<rect x="194.9" y="284.0" width="10" height="16" rx="2" fill="url(#roof_navyRoof)" opacity="0.8"/>
<rect x="196.9" y="287.0" width="6" height="10" rx="1" fill="url(#windowGlow)" opacity="0.45"/>
<rect x="456.4" y="141.5" width="55.3" height="158.5" rx="3" fill="url(#bldg_blue)" opacity="1"/>
<rect x="456.4" y="138.5" width="55.3" height="3" rx="1" fill="url(#roof_tealRoof)" opacity="1"/>
<rect x="474.1" y="151.5" width="6" height="8" rx="1" fill="url(#windowGlow)" opacity="0.9515992510838429"/>
<rect x="488.1" y="151.5" width="6" height="8" rx="1" fill="url(#windowGlow)" opacity="0.9444518181236702"/>
<rect x="488.1" y="166.5" width="6" height="8" rx="1" fill="url(#windowGlow)" opacity="0.9590432672104999"/>
<rect x="474.1" y="181.5" width="6" height="8" rx="1" fill="url(#windowGlow)" opacity="0.9095783934973078"/>
<rect x="488.1" y="181.5" width="6" height="8" rx="1" fill="url(#windowGlow)" opacity="0.7582412298108643"/>
<rect x="488.1" y="196.5" width="6" height="8" rx="1" fill="url(#windowGlow)" opacity="0.9981870820737384"/>
<rect x="474.1" y="211.5" width="6" height="8" rx="1" fill="url(#windowGlow)" opacity="0.8113238085114042"/>
<rect x="488.1" y="211.5" width="6" height="8" rx="1" fill="url(#windowGlow)" opacity="0.9882094036732844"/>
<rect x="474.1" y="226.5" width="6" height="8" rx="1" fill="url(#windowGlow)" opacity="0.8820841128388811"/>
<rect x="488.1" y="226.5" width="6" height="8" rx="1" fill="url(#windowGlow)" opacity="0.9579383553741212"/>
<rect x="474.1" y="241.5" width="6" height="8" rx="1" fill="url(#windowGlow)" opacity="0.7316297739425812"/>
<rect x="488.1" y="241.5" width="6" height="8" rx="1" fill="url(#windowGlow)" opacity="0.8654303393631383"/>
<rect x="474.1" y="256.5" width="6" height="8" rx="1" fill="url(#windowGlow)" opacity="0.7408775305100146"/>
<rect x="479.1" y="284.0" width="10" height="16" rx="2" fill="url(#roof_navyRoof)" opacity="0.8"/>
<rect x="481.1" y="287.0" width="6" height="10" rx="1" fill="url(#windowGlow)" opacity="0.45"/>
<path d="M461.9 197.0 L484.1 197.0 L481.1 203.0 L464.9 203.0 Z" fill="url(#roof_coralRoof)" opacity="0.8"/>
<rect x="709.1" y="161.8" width="69.8" height="138.2" rx="3" fill="url(#bldg_mint)" opacity="1"/>
<polygon points="709.1,161.8 744.0,140.1 778.9,161.8" fill="url(#roof_navyRoof)" opacity="1"/>
<rect x="727.0" y="171.8" width="6" height="8" rx="1" fill="url(#windowGlow)" opacity="0.8717585580757625"/>
<rect x="741.0" y="171.8" width="6" height="8" rx="1" fill="url(#windowGlow)" opacity="0.9367820584852165"/>
<rect x="755.0" y="171.8" width="6" height="8" rx="1" fill="url(#windowGlow)" opacity="0.9975646310474559"/>
<rect x="741.0" y="186.8" width="6" height="8" rx="1" fill="url(#windowGlow)" opacity="0.7526275317429693"/>
<rect x="755.0" y="186.8" width="6" height="8" rx="1" fill="url(#windowGlow)" opacity="0.7735798044472838"/>
<rect x="727.0" y="201.8" width="6" height="8" rx="1" fill="url(#windowGlow)" opacity="0.8662782827235191"/>
<rect x="741.0" y="201.8" width="6" height="8" rx="1" fill="url(#windowGlow)" opacity="0.7854839649449493"/>
<rect x="727.0" y="216.8" width="6" height="8" rx="1" fill="url(#windowGlow)" opacity="0.8540848950175963"/>
<rect x="741.0" y="216.8" width="6" height="8" rx="1" fill="url(#windowGlow)" opacity="0.8361489758995123"/>
<rect x="755.0" y="216.8" width="6" height="8" rx="1" fill="url(#windowGlow)" opacity="0.8196668520661382"/>
<rect x="727.0" y="246.8" width="6" height="8" rx="1" fill="url(#windowGlow)" opacity="0.9274674094409996"/>
<rect x="741.0" y="246.8" width="6" height="8" rx="1" fill="url(#windowGlow)" opacity="0.8189202637965419"/>
<rect x="755.0" y="246.8" width="6" height="8" rx="1" fill="url(#windowGlow)" opacity="0.7313081462082025"/>
<rect x="739.0" y="284.0" width="10" height="16" rx="2" fill="url(#roof_navyRoof)" opacity="0.8"/>
<rect x="741.0" y="287.0" width="6" height="10" rx="1" fill="url(#windowGlow)" opacity="0.45"/>
<rect x="731.8" y="202.8" width="24.4" height="5" rx="1" fill="#15803d" opacity="0.7"/>
<circle cx="734.8" cy="201.8" r="2.5" fill="#a78bfa" opacity="0.85"/>
<circle cx="743.0" cy="201.8" r="2.5" fill="#f87171" opacity="0.85"/>
<circle cx="751.1" cy="201.8" r="2.5" fill="#fb923c" opacity="0.85"/>
<rect x="972.7" y="227.4" width="59.3" height="72.6" rx="3" fill="url(#bldg_rose)" opacity="1"/>
<rect x="972.7" y="224.4" width="59.3" height="3" rx="1" fill="url(#roof_coralRoof)" opacity="1"/>
<rect x="985.3" y="237.4" width="6" height="8" rx="1" fill="url(#windowGlow)" opacity="0.8934755235414372"/>
<rect x="999.3" y="237.4" width="6" height="8" rx="1" fill="url(#windowGlow)" opacity="0.9628004892555999"/>
<rect x="985.3" y="252.4" width="6" height="8" rx="1" fill="url(#windowGlow)" opacity="0.8381275200928223"/>
<rect x="999.3" y="252.4" width="6" height="8" rx="1" fill="url(#windowGlow)" opacity="0.9970251632374828"/>
<rect x="1013.3" y="252.4" width="6" height="8" rx="1" fill="url(#windowGlow)" opacity="0.8332605831014274"/>
<rect x="997.3" y="284.0" width="10" height="16" rx="2" fill="url(#roof_navyRoof)" opacity="0.8"/>
<rect x="999.3" y="287.0" width="6" height="10" rx="1" fill="url(#windowGlow)" opacity="0.45"/>
<path d="M978.6 252.8 L1002.3 252.8 L999.3 258.8 L981.6 258.8 Z" fill="url(#roof_navyRoof)" opacity="0.8"/>
<rect x="992.0" y="253.4" width="20.7" height="5" rx="1" fill="#15803d" opacity="0.7"/>
<circle cx="995.0" cy="252.4" r="2.5" fill="#fb923c" opacity="0.85"/>
<circle cx="1001.9" cy="252.4" r="2.5" fill="#fbbf24" opacity="0.85"/>
<circle cx="1008.8" cy="252.4" r="2.5" fill="#a78bfa" opacity="0.85"/>
<rect x="339.2" y="268.3" width="6" height="16.7" rx="2" fill="#15803d"/>
<circle cx="342.2" cy="258.7" r="13.7" fill="#22c55e" opacity="0.9"/>
<circle cx="333.5" cy="261.7" r="10.2" fill="#16a34a" opacity="0.8"/>
<circle cx="348.5" cy="262.7" r="9.6" fill="#15803d" opacity="0.7"/>
<rect x="607.4" y="268.4" width="6" height="16.6" rx="2" fill="#15803d"/>
<circle cx="610.4" cy="256.9" r="15.5" fill="#22c55e" opacity="0.9"/>
<circle cx="602.2" cy="259.9" r="11.6" fill="#16a34a" opacity="0.8"/>
<circle cx="617.5" cy="260.9" r="10.9" fill="#15803d" opacity="0.7"/>
<rect x="872.8" y="264.0" width="6" height="21.0" rx="2" fill="#15803d"/>
<circle cx="875.8" cy="252.8" r="15.2" fill="#22c55e" opacity="0.9"/>
<circle cx="869.1" cy="255.8" r="11.4" fill="#16a34a" opacity="0.8"/>
<circle cx="883.1" cy="256.8" r="10.7" fill="#15803d" opacity="0.7"/>
<rect x="131.7" y="267.2" width="6" height="17.8" rx="2" fill="#15803d"/>
<circle cx="134.7" cy="254.0" r="17.2" fill="#22c55e" opacity="0.9"/>
<circle cx="128.1" cy="257.0" r="12.9" fill="#16a34a" opacity="0.8"/>
<circle cx="141.6" cy="258.0" r="12.0" fill="#15803d" opacity="0.7"/>
<rect x="1067.5" y="266.2" width="6" height="18.8" rx="2" fill="#15803d"/>
<circle cx="1070.5" cy="256.7" r="13.5" fill="#22c55e" opacity="0.9"/>
<circle cx="1061.9" cy="259.7" r="10.1" fill="#16a34a" opacity="0.8"/>
<circle cx="1076.5" cy="260.7" r="9.4" fill="#15803d" opacity="0.7"/>
<rect x="913.5" y="264.6" width="6" height="20.4" rx="2" fill="#15803d"/>
<circle cx="916.5" cy="252.7" r="15.9" fill="#22c55e" opacity="0.9"/>
<circle cx="910.2" cy="255.7" r="11.9" fill="#16a34a" opacity="0.8"/>
<circle cx="924.0" cy="256.7" r="11.1" fill="#15803d" opacity="0.7"/>
<rect x="562.2" y="263.3" width="6" height="21.7" rx="2" fill="#15803d"/>
<circle cx="565.2" cy="252.3" r="15.0" fill="#22c55e" opacity="0.9"/>
<circle cx="559.1" cy="255.3" r="11.2" fill="#16a34a" opacity="0.8"/>
<circle cx="573.0" cy="256.3" r="10.5" fill="#15803d" opacity="0.7"/>
<rect x="319.6" y="265.5" width="6" height="19.5" rx="2" fill="#15803d"/>
<circle cx="322.6" cy="254.9" r="14.6" fill="#22c55e" opacity="0.9"/>
<circle cx="315.6" cy="257.9" r="10.9" fill="#16a34a" opacity="0.8"/>
<circle cx="330.3" cy="258.9" r="10.2" fill="#15803d" opacity="0.7"/>
<rect x="1044.2" y="268.2" width="6" height="16.8" rx="2" fill="#15803d"/>
<circle cx="1047.2" cy="255.6" r="16.6" fill="#22c55e" opacity="0.9"/>
<circle cx="1039.1" cy="258.6" r="12.4" fill="#16a34a" opacity="0.8"/>
<circle cx="1052.9" cy="259.6" r="11.6" fill="#15803d" opacity="0.7"/>
<rect x="855.9" y="266.7" width="6" height="18.3" rx="2" fill="#15803d"/>
<circle cx="858.9" cy="256.4" r="14.3" fill="#22c55e" opacity="0.9"/>
<circle cx="852.4" cy="259.4" r="10.7" fill="#16a34a" opacity="0.8"/>
<circle cx="864.1" cy="260.4" r="10.0" fill="#15803d" opacity="0.7"/>
<rect x="0" y="282" width="1200" height="18" fill="url(#groundGrad)"/>
<line x1="83.9" y1="282.0" x2="83.9" y2="243.5" stroke="#92400e" stroke-width="2"/>
<circle cx="83.9" cy="243.5" r="4" fill="#fef08a" opacity="0.6"/>
<circle cx="83.9" cy="243.5" r="8" fill="#fef08a" opacity="0.15" filter="url(#softGlow)"/>
<line x1="912.1" y1="282.0" x2="912.1" y2="247.3" stroke="#92400e" stroke-width="2"/>
<circle cx="912.1" cy="247.3" r="4" fill="#fef08a" opacity="0.6"/>
<circle cx="912.1" cy="247.3" r="8" fill="#fef08a" opacity="0.15" filter="url(#softGlow)"/>
<ellipse cx="406.2" cy="282.0" rx="5.7" ry="4.0" fill="#22c55e" opacity="0.6"/>
<ellipse cx="303.9" cy="282.0" rx="5.0" ry="3.5" fill="#22c55e" opacity="0.6"/>
<ellipse cx="605.6" cy="282.0" rx="6.8" ry="4.8" fill="#22c55e" opacity="0.6"/>
<ellipse cx="802.0" cy="282.0" rx="5.7" ry="4.0" fill="#22c55e" opacity="0.6"/>
</svg>