<svg xmlns="http://www.w3.org/2000/svg" viewBox="0 0 1200 400" width="1200" height="400">
<defs>
<linearGradient id="bg" x1="0" y1="0" x2="0" y2="1"><stop offset="0%" stop-color="#166534"/><stop offset="100%" stop-color="#3b82f6"/></linearGradient>
<linearGradient id="warm" x1="0" y1="0" x2="1" y2="1"><stop offset="0%" stop-color="#858d98" stop-opacity="0.18"/><stop offset="100%" stop-color="#858d98" stop-opacity="0.06"/></linearGradient>
</defs>
<rect width="1200" height="400" fill="url(#bg)"/>
<path d="M0 400 L0 241.96696198714773 C60.0 237.2, 90.0 257.8, 150.0 257.9 C210.0 252.0, 240.0 247.0, 300.0 246.1 C360.0 239.4, 390.0 247.7, 450.0 240.6 C510.0 240.6, 540.0 234.7, 600.0 226.7 C660.0 230.8, 690.0 261.6, 750.0 254.3 C810.0 254.3, 840.0 222.2, 900.0 227.6 C960.0 229.8, 990.0 237.7, 1050.0 238.8 C1110.0 246.4, 1140.0 235.1, 1200.0 227.1 L1200 400 Z" fill="#2e78b2" opacity="0.45"/>
<path d="M0 400 L0 267.4299739599696 C52.5 265.6, 97.5 270.7, 150.0 269.8 C202.5 276.4, 247.5 281.4, 300.0 274.7 C352.5 280.2, 397.5 266.8, 450.0 262.2 C502.5 264.5, 547.5 281.3, 600.0 275.7 C652.5 279.9, 697.5 258.4, 750.0 263.6 C802.5 265.6, 847.5 279.7, 900.0 281.3 C952.5 285.2, 997.5 268.1, 1050.0 270.8 C1102.5 275.1, 1147.5 281.6, 1200.0 276.9 L1200 400 Z" fill="#3b82f6" opacity="0.3"/>
<rect x="605.4" y="330.9" width="31.3" height="69.1" rx="5.6" fill="#c48a0f" opacity="0.54"/>
<rect x="300.5" y="340.2" width="36.4" height="59.8" rx="3.4" fill="#b08930" opacity="0.57"/>
<rect x="702.1" y="282.6" width="29.7" height="117.4" rx="5.5" fill="#8d876b" opacity="0.75"/>
<rect x="707.1" y="292.6" width="4" height="5" rx="0.5" fill="#166534" opacity="0.6"/>
<rect x="923.7" y="286.3" width="38.5" height="113.7" rx="7.8" fill="#c08915" opacity="0.84"/>
<rect x="819.4" y="330.3" width="43.4" height="69.7" rx="7.9" fill="#7c8688" opacity="0.60"/>
<rect x="878.6" y="322.3" width="39.4" height="77.7" rx="4.1" fill="#c48a0e" opacity="0.61"/>
<rect x="584.2" y="309.5" width="41.8" height="90.5" rx="6.3" fill="#b88923" opacity="0.64"/>
<rect x="589.2" y="319.5" width="4" height="5" rx="0.5" fill="#166534" opacity="0.6"/>
<rect x="587.0" y="279.5" width="40.8" height="120.5" rx="5.5" fill="#b78924" opacity="0.85"/>
<rect x="592.0" y="289.5" width="4" height="5" rx="0.5" fill="#166534" opacity="0.6"/>
<rect x="605.6" y="289.5" width="4" height="5" rx="0.5" fill="#166534" opacity="0.6"/>
<rect x="605.6" y="333.5" width="4" height="5" rx="0.5" fill="#166534" opacity="0.6"/>
<rect x="592.0" y="355.5" width="4" height="5" rx="0.5" fill="#166534" opacity="0.6"/>
<rect x="802.9" y="315.6" width="45.5" height="84.4" rx="3.5" fill="#a0884c" opacity="0.63"/>
<rect x="464.8" y="360.7" width="21.0" height="39.3" rx="7.7" fill="#808681" opacity="0.71"/>
<rect x="298.5" y="369.7" width="21.7" height="30.3" rx="5.3" fill="#8a8671" opacity="0.78"/>
<rect x="857.3" y="268.3" width="21.4" height="131.7" rx="4.9" fill="#8c876c" opacity="0.52"/>
<rect x="862.3" y="278.3" width="4" height="5" rx="0.5" fill="#166534" opacity="0.6"/>
<rect x="862.3" y="300.3" width="4" height="5" rx="0.5" fill="#166534" opacity="0.6"/>
<rect x="862.3" y="344.3" width="4" height="5" rx="0.5" fill="#166534" opacity="0.6"/>
<rect x="825.9" y="327.4" width="39.3" height="72.6" rx="4.1" fill="#b88922" opacity="0.51"/>
<line x1="84.2" y1="41.2" x2="160.9" y2="41.2" stroke="#ca8a04" stroke-width="2.0" opacity="0.40"/>
<line x1="399.7" y1="119.2" x2="446.0" y2="119.2" stroke="#166534" stroke-width="1.0" opacity="0.45"/>
<rect width="1200" height="400" fill="url(#warm)"/>
<rect width="1200" height="400" fill="#166534" opacity="0.40"/>
</svg>