<svg xmlns="http://www.w3.org/2000/svg" viewBox="0 0 1200 300" width="1200" height="300">
<defs>
<linearGradient id="skyGrad" x1="0" y1="0" x2="0" y2="1">
<stop offset="0%" stop-color="#a78bfa"/>
<stop offset="18%" stop-color="#ddb4f0"/>
<stop offset="35%" stop-color="#fda4af"/>
<stop offset="52%" stop-color="#fdba74"/>
<stop offset="72%" stop-color="#fef08a"/>
<stop offset="100%" stop-color="#fef9c3"/>
</linearGradient>
<linearGradient id="bldg_coral" x1="0" y1="0" x2="0" y2="1"><stop offset="0%" stop-color="#fecaca"/><stop offset="100%" stop-color="#fca5a5"/></linearGradient>
<linearGradient id="bldg_teal" x1="0" y1="0" x2="0" y2="1"><stop offset="0%" stop-color="#99f6e4"/><stop offset="100%" stop-color="#5eead4"/></linearGradient>
<linearGradient id="bldg_amber" x1="0" y1="0" x2="0" y2="1"><stop offset="0%" stop-color="#fde68a"/><stop offset="100%" stop-color="#fcd34d"/></linearGradient>
<linearGradient id="bldg_lavender" x1="0" y1="0" x2="0" y2="1"><stop offset="0%" stop-color="#ddd6fe"/><stop offset="100%" stop-color="#c4b5fd"/></linearGradient>
<linearGradient id="bldg_blue" x1="0" y1="0" x2="0" y2="1"><stop offset="0%" stop-color="#bfdbfe"/><stop offset="100%" stop-color="#93c5fd"/></linearGradient>
<linearGradient id="bldg_mint" x1="0" y1="0" x2="0" y2="1"><stop offset="0%" stop-color="#a7f3d0"/><stop offset="100%" stop-color="#6ee7b7"/></linearGradient>
<linearGradient id="bldg_rose" x1="0" y1="0" x2="0" y2="1"><stop offset="0%" stop-color="#fecdd3"/><stop offset="100%" stop-color="#fda4af"/></linearGradient>
<linearGradient id="bldg_sky" x1="0" y1="0" x2="0" y2="1"><stop offset="0%" stop-color="#bae6fd"/><stop offset="100%" stop-color="#7dd3fc"/></linearGradient>
<linearGradient id="roof_navyRoof" x1="0" y1="0" x2="0" y2="1"><stop offset="0%" stop-color="#4338ca"/><stop offset="100%" stop-color="#3730a3"/></linearGradient>
<linearGradient id="roof_coralRoof" x1="0" y1="0" x2="0" y2="1"><stop offset="0%" stop-color="#f87171"/><stop offset="100%" stop-color="#ef4444"/></linearGradient>
<linearGradient id="roof_tealRoof" x1="0" y1="0" x2="0" y2="1"><stop offset="0%" stop-color="#2dd4bf"/><stop offset="100%" stop-color="#14b8a6"/></linearGradient>
<radialGradient id="windowGlow" cx="50%" cy="50%" r="50%"><stop offset="0%" stop-color="#fef08a"/><stop offset="60%" stop-color="#fbbf24"/><stop offset="100%" stop-color="#f59e0b"/></radialGradient>
<linearGradient id="hillFar" x1="0" y1="0" x2="0" y2="1"><stop offset="0%" stop-color="#c4b5fd"/><stop offset="100%" stop-color="#a5b4fc"/></linearGradient>
<linearGradient id="hillMid" x1="0" y1="0" x2="0" y2="1"><stop offset="0%" stop-color="#86efac"/><stop offset="100%" stop-color="#4ade80"/></linearGradient>
<linearGradient id="hillNear" x1="0" y1="0" x2="0" y2="1"><stop offset="0%" stop-color="#34d399"/><stop offset="100%" stop-color="#10b981"/></linearGradient>
<linearGradient id="hillDesertFar" x1="0" y1="0" x2="0" y2="1"><stop offset="0%" stop-color="#fde68a"/><stop offset="100%" stop-color="#fcd34d"/></linearGradient>
<linearGradient id="hillDesertMid" x1="0" y1="0" x2="0" y2="1"><stop offset="0%" stop-color="#fcd34d"/><stop offset="100%" stop-color="#fbbf24"/></linearGradient>
<linearGradient id="hillDesertNear" x1="0" y1="0" x2="0" y2="1"><stop offset="0%" stop-color="#fbbf24"/><stop offset="100%" stop-color="#f59e0b"/></linearGradient>
<linearGradient id="groundGrad" x1="0" y1="0" x2="0" y2="1"><stop offset="0%" stop-color="#fef3c7"/><stop offset="100%" stop-color="#fde68a"/></linearGradient>
<linearGradient id="waterGrad" x1="0" y1="0" x2="0" y2="1"><stop offset="0%" stop-color="#bfdbfe"/><stop offset="100%" stop-color="#93c5fd"/></linearGradient>
<filter id="softGlow" x="-50%" y="-50%" width="200%" height="200%"><feGaussianBlur in="SourceGraphic" stdDeviation="12"/></filter>
</defs>
<rect width="1200" height="300" fill="url(#skyGrad)"/>
<circle cx="1029.1" cy="38.7" r="45" fill="#fef08a" opacity="0.12" filter="url(#softGlow)"/>
<circle cx="1029.1" cy="38.7" r="30" fill="#fde68a" opacity="0.18" filter="url(#softGlow)"/>
<circle cx="1029.1" cy="38.7" r="16" fill="#fef9c3" opacity="0.25" filter="url(#softGlow)"/>
<path d="M0 300 L0.0 182.5 C196.6 182.5, 196.6 182.4, 393.1 182.4 C632.9 182.4, 632.9 182.0, 872.6 182.0 C1036.3 182.0, 1036.3 189.0, 1200.0 189.0 L1200 300 Z" fill="url(#hillFar)" opacity="0.5"/>
<path d="M0 300 L0.0 209.5 C161.4 209.5, 161.4 209.7, 322.8 209.7 C528.6 209.7, 528.6 210.7, 734.3 210.7 C967.2 210.7, 967.2 218.3, 1200.0 218.3 L1200 300 Z" fill="url(#hillMid)" opacity="0.7"/>
<path d="M0 300 L0.0 231.2 C230.5 231.2, 230.5 231.0, 460.9 231.0 C662.7 231.0, 662.7 234.9, 864.5 234.9 C1032.3 234.9, 1032.3 230.3, 1200.0 230.3 L1200 300 Z" fill="url(#hillNear)" opacity="1"/>
<rect x="322.5" y="238.3" width="67.1" height="61.7" rx="3" fill="url(#bldg_coral)" opacity="0.7"/>
<polygon points="322.5,238.3 356.1,222.5 389.6,238.3" fill="url(#roof_navyRoof)" opacity="0.7"/>
<rect x="339.1" y="248.3" width="6" height="8" rx="1" fill="url(#windowGlow)" opacity="0.7463180728472387"/>
<rect x="353.1" y="248.3" width="6" height="8" rx="1" fill="url(#windowGlow)" opacity="0.8340050179203995"/>
<rect x="883.9" y="220.8" width="61.8" height="79.2" rx="3" fill="url(#bldg_teal)" opacity="0.7"/>
<polygon points="883.9,220.8 914.8,206.4 945.7,220.8" fill="url(#roof_coralRoof)" opacity="0.7"/>
<rect x="911.8" y="230.8" width="6" height="8" rx="1" fill="url(#windowGlow)" opacity="0.8047540966909165"/>
<rect x="925.8" y="230.8" width="6" height="8" rx="1" fill="url(#windowGlow)" opacity="0.8935587808459805"/>
<rect x="897.8" y="245.8" width="6" height="8" rx="1" fill="url(#windowGlow)" opacity="0.9863554078556389"/>
<rect x="911.8" y="245.8" width="6" height="8" rx="1" fill="url(#windowGlow)" opacity="0.77866906946463"/>
<rect x="925.8" y="245.8" width="6" height="8" rx="1" fill="url(#windowGlow)" opacity="0.8368294060867416"/>
<rect x="911.8" y="260.8" width="6" height="8" rx="1" fill="url(#windowGlow)" opacity="0.8551592974249084"/>
<rect x="925.8" y="260.8" width="6" height="8" rx="1" fill="url(#windowGlow)" opacity="0.8648219053935361"/>
<rect x="311.5" y="206.6" width="41.0" height="93.4" rx="3" fill="url(#bldg_amber)" opacity="0.85"/>
<polygon points="311.5,206.6 332.0,194.3 352.5,206.6" fill="url(#roof_tealRoof)" opacity="0.85"/>
<rect x="329.0" y="216.6" width="6" height="8" rx="1" fill="url(#windowGlow)" opacity="0.7461782122711549"/>
<rect x="329.0" y="231.6" width="6" height="8" rx="1" fill="url(#windowGlow)" opacity="0.7906642863483467"/>
<rect x="329.0" y="246.6" width="6" height="8" rx="1" fill="url(#windowGlow)" opacity="0.8374539331707422"/>
<rect x="893.4" y="194.1" width="66.3" height="105.9" rx="3" fill="url(#bldg_lavender)" opacity="0.85"/>
<polygon points="893.4,194.1 926.5,175.0 959.7,194.1" fill="url(#roof_navyRoof)" opacity="0.85"/>
<rect x="923.5" y="204.1" width="6" height="8" rx="1" fill="url(#windowGlow)" opacity="0.778808413994875"/>
<rect x="937.5" y="204.1" width="6" height="8" rx="1" fill="url(#windowGlow)" opacity="0.8443450299298134"/>
<rect x="909.5" y="219.1" width="6" height="8" rx="1" fill="url(#windowGlow)" opacity="0.9689284768742176"/>
<rect x="923.5" y="219.1" width="6" height="8" rx="1" fill="url(#windowGlow)" opacity="0.920342772044401"/>
<rect x="937.5" y="219.1" width="6" height="8" rx="1" fill="url(#windowGlow)" opacity="0.9313878687710444"/>
<rect x="909.5" y="234.1" width="6" height="8" rx="1" fill="url(#windowGlow)" opacity="0.8028791525414581"/>
<rect x="923.5" y="234.1" width="6" height="8" rx="1" fill="url(#windowGlow)" opacity="0.8547029681758502"/>
<rect x="937.5" y="234.1" width="6" height="8" rx="1" fill="url(#windowGlow)" opacity="0.7139662622073508"/>
<rect x="923.5" y="249.1" width="6" height="8" rx="1" fill="url(#windowGlow)" opacity="0.9022187232050201"/>
<rect x="937.5" y="249.1" width="6" height="8" rx="1" fill="url(#windowGlow)" opacity="0.9749124640947731"/>
<rect x="308.9" y="200.1" width="41.5" height="99.9" rx="3" fill="url(#bldg_blue)" opacity="1"/>
<polygon points="308.9,200.1 329.6,187.0 350.4,200.1" fill="url(#roof_coralRoof)" opacity="1"/>
<rect x="326.6" y="210.1" width="6" height="8" rx="1" fill="url(#windowGlow)" opacity="0.8187245244247487"/>
<rect x="326.6" y="225.1" width="6" height="8" rx="1" fill="url(#windowGlow)" opacity="0.9020172835802739"/>
<rect x="326.6" y="240.1" width="6" height="8" rx="1" fill="url(#windowGlow)" opacity="0.7997613698242984"/>
<rect x="324.6" y="284.0" width="10" height="16" rx="2" fill="url(#roof_navyRoof)" opacity="0.8"/>
<rect x="326.6" y="287.0" width="6" height="10" rx="1" fill="url(#windowGlow)" opacity="0.45"/>
<path d="M329.6 235.1 L346.2 235.1 L343.2 241.1 L332.6 241.1 Z" fill="url(#roof_navyRoof)" opacity="0.8"/>
<rect x="825.3" y="151.6" width="50.9" height="148.4" rx="3" fill="url(#bldg_mint)" opacity="1"/>
<polygon points="825.3,151.6 850.7,134.4 876.2,151.6" fill="url(#roof_tealRoof)" opacity="1"/>
<rect x="840.7" y="161.6" width="6" height="8" rx="1" fill="url(#windowGlow)" opacity="0.8681112896968197"/>
<rect x="854.7" y="161.6" width="6" height="8" rx="1" fill="url(#windowGlow)" opacity="0.7710031005418874"/>
<rect x="840.7" y="176.6" width="6" height="8" rx="1" fill="url(#windowGlow)" opacity="0.7864480571758226"/>
<rect x="854.7" y="176.6" width="6" height="8" rx="1" fill="url(#windowGlow)" opacity="0.9832661533650318"/>
<rect x="854.7" y="191.6" width="6" height="8" rx="1" fill="url(#windowGlow)" opacity="0.9940830023466064"/>
<rect x="840.7" y="206.6" width="6" height="8" rx="1" fill="url(#windowGlow)" opacity="0.7834730605983515"/>
<rect x="854.7" y="206.6" width="6" height="8" rx="1" fill="url(#windowGlow)" opacity="0.8447444422844538"/>
<rect x="840.7" y="221.6" width="6" height="8" rx="1" fill="url(#windowGlow)" opacity="0.7220266320845236"/>
<rect x="854.7" y="221.6" width="6" height="8" rx="1" fill="url(#windowGlow)" opacity="0.7264557507012298"/>
<rect x="854.7" y="236.6" width="6" height="8" rx="1" fill="url(#windowGlow)" opacity="0.7142307081791714"/>
<rect x="840.7" y="251.6" width="6" height="8" rx="1" fill="url(#windowGlow)" opacity="0.9518595265000404"/>
<rect x="845.7" y="284.0" width="10" height="16" rx="2" fill="url(#roof_navyRoof)" opacity="0.8"/>
<rect x="847.7" y="287.0" width="6" height="10" rx="1" fill="url(#windowGlow)" opacity="0.45"/>
<rect x="841.8" y="192.6" width="17.8" height="5" rx="1" fill="#15803d" opacity="0.7"/>
<circle cx="844.8" cy="191.6" r="2.5" fill="#fbbf24" opacity="0.85"/>
<circle cx="850.7" cy="191.6" r="2.5" fill="#a78bfa" opacity="0.85"/>
<circle cx="856.7" cy="191.6" r="2.5" fill="#a78bfa" opacity="0.85"/>
<path d="M587.8 285.0 Q614.6 255.9 603.9 226.8" stroke="#92400e" stroke-width="4" fill="none" stroke-linecap="round"/>
<path d="M603.9 226.8 Q590.8 215.3 582.1 214.8" stroke="#16a34a" stroke-width="2.5" fill="none" stroke-linecap="round"/>
<path d="M603.9 226.8 Q609.9 214.7 613.9 213.5" stroke="#22c55e" stroke-width="2.5" fill="none" stroke-linecap="round"/>
<path d="M603.9 226.8 Q623.8 220.8 637.0 226.8" stroke="#15803d" stroke-width="2.5" fill="none" stroke-linecap="round"/>
<path d="M603.9 226.8 Q611.3 228.2 616.2 243.1" stroke="#4ade80" stroke-width="2.5" fill="none" stroke-linecap="round"/>
<path d="M603.9 226.8 Q591.7 225.9 583.6 237.9" stroke="#16a34a" stroke-width="2.5" fill="none" stroke-linecap="round"/>
<path d="M260.6 285.0 Q287.3 253.6 276.6 222.2" stroke="#92400e" stroke-width="4" fill="none" stroke-linecap="round"/>
<path d="M276.6 222.2 Q267.8 212.5 261.9 214.0" stroke="#16a34a" stroke-width="2.5" fill="none" stroke-linecap="round"/>
<path d="M276.6 222.2 Q281.9 210.8 285.4 210.4" stroke="#22c55e" stroke-width="2.5" fill="none" stroke-linecap="round"/>
<path d="M276.6 222.2 Q296.8 216.2 310.3 222.2" stroke="#15803d" stroke-width="2.5" fill="none" stroke-linecap="round"/>
<path d="M276.6 222.2 Q283.6 223.2 288.2 237.6" stroke="#4ade80" stroke-width="2.5" fill="none" stroke-linecap="round"/>
<path d="M276.6 222.2 Q263.9 221.5 255.4 233.8" stroke="#16a34a" stroke-width="2.5" fill="none" stroke-linecap="round"/>
<path d="M908.6 285.0 Q936.5 253.7 925.4 222.4" stroke="#92400e" stroke-width="4" fill="none" stroke-linecap="round"/>
<path d="M925.4 222.4 Q915.5 212.3 908.9 213.3" stroke="#16a34a" stroke-width="2.5" fill="none" stroke-linecap="round"/>
<path d="M925.4 222.4 Q931.6 210.1 935.8 208.6" stroke="#22c55e" stroke-width="2.5" fill="none" stroke-linecap="round"/>
<path d="M925.4 222.4 Q942.2 216.4 953.5 222.4" stroke="#15803d" stroke-width="2.5" fill="none" stroke-linecap="round"/>
<path d="M925.4 222.4 Q930.3 221.4 933.6 233.3" stroke="#4ade80" stroke-width="2.5" fill="none" stroke-linecap="round"/>
<path d="M925.4 222.4 Q916.3 220.2 910.2 230.7" stroke="#16a34a" stroke-width="2.5" fill="none" stroke-linecap="round"/>
<path d="M263.0 285.0 Q287.2 257.5 277.6 230.0" stroke="#92400e" stroke-width="4" fill="none" stroke-linecap="round"/>
<path d="M277.6 230.0 Q268.8 220.3 263.0 222.0" stroke="#16a34a" stroke-width="2.5" fill="none" stroke-linecap="round"/>
<path d="M277.6 230.0 Q284.2 217.3 288.7 215.2" stroke="#22c55e" stroke-width="2.5" fill="none" stroke-linecap="round"/>
<path d="M277.6 230.0 Q291.6 224.0 300.9 230.0" stroke="#15803d" stroke-width="2.5" fill="none" stroke-linecap="round"/>
<path d="M277.6 230.0 Q282.4 228.9 285.7 240.8" stroke="#4ade80" stroke-width="2.5" fill="none" stroke-linecap="round"/>
<path d="M277.6 230.0 Q268.1 227.9 261.9 238.6" stroke="#16a34a" stroke-width="2.5" fill="none" stroke-linecap="round"/>
<path d="M1128.5 285.0 Q1143.3 259.2 1137.4 233.4" stroke="#92400e" stroke-width="4" fill="none" stroke-linecap="round"/>
<path d="M1137.4 233.4 Q1125.5 222.4 1117.5 222.5" stroke="#16a34a" stroke-width="2.5" fill="none" stroke-linecap="round"/>
<path d="M1137.4 233.4 Q1143.8 220.9 1148.1 219.2" stroke="#22c55e" stroke-width="2.5" fill="none" stroke-linecap="round"/>
<path d="M1137.4 233.4 Q1155.0 227.4 1166.8 233.4" stroke="#15803d" stroke-width="2.5" fill="none" stroke-linecap="round"/>
<path d="M1137.4 233.4 Q1143.9 234.0 1148.3 247.9" stroke="#4ade80" stroke-width="2.5" fill="none" stroke-linecap="round"/>
<path d="M1137.4 233.4 Q1124.4 232.8 1115.7 245.4" stroke="#16a34a" stroke-width="2.5" fill="none" stroke-linecap="round"/>
<path d="M1026.6 285.0 Q1052.1 255.8 1041.9 226.6" stroke="#92400e" stroke-width="4" fill="none" stroke-linecap="round"/>
<path d="M1041.9 226.6 Q1030.3 215.8 1022.6 216.0" stroke="#16a34a" stroke-width="2.5" fill="none" stroke-linecap="round"/>
<path d="M1041.9 226.6 Q1046.8 215.6 1050.1 215.7" stroke="#22c55e" stroke-width="2.5" fill="none" stroke-linecap="round"/>
<path d="M1041.9 226.6 Q1056.8 220.6 1066.7 226.6" stroke="#15803d" stroke-width="2.5" fill="none" stroke-linecap="round"/>
<path d="M1041.9 226.6 Q1049.4 228.2 1054.5 243.4" stroke="#4ade80" stroke-width="2.5" fill="none" stroke-linecap="round"/>
<path d="M1041.9 226.6 Q1029.1 226.0 1020.6 238.3" stroke="#16a34a" stroke-width="2.5" fill="none" stroke-linecap="round"/>
<path d="M1029.9 285.0 Q1043.1 260.2 1037.8 235.5" stroke="#92400e" stroke-width="4" fill="none" stroke-linecap="round"/>
<path d="M1037.8 235.5 Q1024.9 224.1 1016.2 223.6" stroke="#16a34a" stroke-width="2.5" fill="none" stroke-linecap="round"/>
<path d="M1037.8 235.5 Q1044.0 223.3 1048.1 221.8" stroke="#22c55e" stroke-width="2.5" fill="none" stroke-linecap="round"/>
<path d="M1037.8 235.5 Q1058.0 229.5 1071.5 235.5" stroke="#15803d" stroke-width="2.5" fill="none" stroke-linecap="round"/>
<path d="M1037.8 235.5 Q1044.1 235.8 1048.2 249.3" stroke="#4ade80" stroke-width="2.5" fill="none" stroke-linecap="round"/>
<path d="M1037.8 235.5 Q1028.1 233.5 1021.7 244.4" stroke="#16a34a" stroke-width="2.5" fill="none" stroke-linecap="round"/>
<path d="M240.5 285.0 Q258.6 258.1 251.4 231.2" stroke="#92400e" stroke-width="4" fill="none" stroke-linecap="round"/>
<path d="M251.4 231.2 Q238.5 219.9 229.9 219.4" stroke="#16a34a" stroke-width="2.5" fill="none" stroke-linecap="round"/>
<path d="M251.4 231.2 Q256.2 220.4 259.4 220.5" stroke="#22c55e" stroke-width="2.5" fill="none" stroke-linecap="round"/>
<path d="M251.4 231.2 Q267.8 225.2 278.8 231.2" stroke="#15803d" stroke-width="2.5" fill="none" stroke-linecap="round"/>
<path d="M251.4 231.2 Q258.4 232.3 263.1 246.8" stroke="#4ade80" stroke-width="2.5" fill="none" stroke-linecap="round"/>
<path d="M251.4 231.2 Q238.6 230.6 230.1 242.9" stroke="#16a34a" stroke-width="2.5" fill="none" stroke-linecap="round"/>
<path d="M440.8 285.0 Q462.4 256.0 453.8 227.0" stroke="#92400e" stroke-width="4" fill="none" stroke-linecap="round"/>
<path d="M453.8 227.0 Q443.7 216.8 437.0 217.7" stroke="#16a34a" stroke-width="2.5" fill="none" stroke-linecap="round"/>
<path d="M453.8 227.0 Q459.3 215.4 463.0 214.7" stroke="#22c55e" stroke-width="2.5" fill="none" stroke-linecap="round"/>
<path d="M453.8 227.0 Q470.8 221.0 482.2 227.0" stroke="#15803d" stroke-width="2.5" fill="none" stroke-linecap="round"/>
<path d="M453.8 227.0 Q458.9 226.2 462.4 238.4" stroke="#4ade80" stroke-width="2.5" fill="none" stroke-linecap="round"/>
<path d="M453.8 227.0 Q441.5 226.1 433.3 238.2" stroke="#16a34a" stroke-width="2.5" fill="none" stroke-linecap="round"/>
<path d="M1056.3 285.0 Q1079.4 254.7 1070.1 224.4" stroke="#92400e" stroke-width="4" fill="none" stroke-linecap="round"/>
<path d="M1070.1 224.4 Q1061.2 214.7 1055.3 216.2" stroke="#16a34a" stroke-width="2.5" fill="none" stroke-linecap="round"/>
<path d="M1070.1 224.4 Q1077.7 210.8 1082.7 207.7" stroke="#22c55e" stroke-width="2.5" fill="none" stroke-linecap="round"/>
<path d="M1070.1 224.4 Q1084.4 218.4 1093.9 224.4" stroke="#15803d" stroke-width="2.5" fill="none" stroke-linecap="round"/>
<path d="M1070.1 224.4 Q1077.8 226.1 1083.0 241.4" stroke="#4ade80" stroke-width="2.5" fill="none" stroke-linecap="round"/>
<path d="M1070.1 224.4 Q1060.0 222.6 1053.2 233.7" stroke="#16a34a" stroke-width="2.5" fill="none" stroke-linecap="round"/>
<rect x="0" y="282" width="1200" height="18" fill="url(#groundGrad)"/>
</svg>