<svg xmlns="http://www.w3.org/2000/svg" viewBox="0 0 1200 300" width="1200" height="300">
<defs><linearGradient id="skyGrad" x1="0" y1="0" x2="0" y2="1"><stop offset="0%" stop-color="#e8f0f8"/><stop offset="100%" stop-color="#f5e6d8"/></linearGradient></defs><rect width="1200" height="300" fill="url(#skyGrad)"/>
<path d="M0 300 L0 207.9 C319.8 185.8, 807.6 196.6, 1200 207.9 L1200 300 Z" fill="#e4c4a8" opacity="0.25"/>
<rect x="162.1" y="220.8" width="46.4" height="79.2" fill="#daae87"/>
<rect x="403.5" y="209.7" width="83.1" height="90.3" fill="#daae87"/>
<rect x="682.0" y="174.9" width="88.1" height="125.1" fill="#daae87"/>
<rect x="1016.4" y="180.7" width="65.0" height="119.3" fill="#daae87"/>
<rect x="194.3" y="203.1" width="37.7" height="96.9" fill="#c98951"/>
<polygon points="194.3,203.1 213.1,193.7 232.0,203.1" fill="#b97e4b"/>
<rect x="210.1" y="263.1" width="6" height="8" fill="#dcb28e" opacity="0.5"/>
<rect x="471.6" y="190.2" width="45.5" height="109.8" fill="#c98951"/>
<rect x="484.4" y="218.2" width="6" height="8" fill="#dcb28e" opacity="0.5"/>
<rect x="498.4" y="218.2" width="6" height="8" fill="#dcb28e" opacity="0.5"/>
<rect x="498.4" y="234.2" width="6" height="8" fill="#dcb28e" opacity="0.5"/>
<rect x="498.4" y="266.2" width="6" height="8" fill="#dcb28e" opacity="0.5"/>
<rect x="669.5" y="188.2" width="79.4" height="111.8" fill="#c98951"/>
<rect x="683.4" y="168.5" width="51.6" height="19.7" fill="#bf824d"/>
<rect x="706.2" y="180.5" width="6" height="8" fill="#dcb28e" opacity="0.5"/>
<rect x="706.2" y="196.5" width="6" height="8" fill="#dcb28e" opacity="0.5"/>
<rect x="692.2" y="212.5" width="6" height="8" fill="#dcb28e" opacity="0.5"/>
<rect x="706.2" y="212.5" width="6" height="8" fill="#dcb28e" opacity="0.5"/>
<rect x="692.2" y="228.5" width="6" height="8" fill="#dcb28e" opacity="0.5"/>
<rect x="706.2" y="228.5" width="6" height="8" fill="#dcb28e" opacity="0.5"/>
<rect x="720.2" y="228.5" width="6" height="8" fill="#dcb28e" opacity="0.5"/>
<rect x="692.2" y="244.5" width="6" height="8" fill="#dcb28e" opacity="0.5"/>
<rect x="706.2" y="244.5" width="6" height="8" fill="#dcb28e" opacity="0.5"/>
<rect x="720.2" y="244.5" width="6" height="8" fill="#dcb28e" opacity="0.5"/>
<rect x="692.2" y="260.5" width="6" height="8" fill="#dcb28e" opacity="0.5"/>
<rect x="706.2" y="260.5" width="6" height="8" fill="#dcb28e" opacity="0.5"/>
<rect x="983.3" y="174.6" width="48.5" height="125.4" fill="#c98951"/>
<rect x="1011.5" y="202.6" width="6" height="8" fill="#dcb28e" opacity="0.5"/>
<rect x="997.5" y="218.6" width="6" height="8" fill="#dcb28e" opacity="0.5"/>
<rect x="1011.5" y="234.6" width="6" height="8" fill="#dcb28e" opacity="0.5"/>
<rect x="997.5" y="250.6" width="6" height="8" fill="#dcb28e" opacity="0.5"/>
<rect x="1011.5" y="250.6" width="6" height="8" fill="#dcb28e" opacity="0.5"/>
<rect x="1011.5" y="266.6" width="6" height="8" fill="#dcb28e" opacity="0.5"/>
<rect x="190.9" y="204.8" width="32.4" height="95.2" fill="#bc6c25"/>
<rect x="204.1" y="232.8" width="6" height="8" fill="#d39f71" opacity="0.5"/>
<rect x="204.1" y="248.8" width="6" height="8" fill="#d39f71" opacity="0.5"/>
<rect x="204.1" y="264.8" width="6" height="8" fill="#d39f71" opacity="0.5"/>
<rect x="441.4" y="195.3" width="71.3" height="104.7" fill="#bc6c25"/>
<rect x="474.1" y="207.3" width="6" height="8" fill="#d39f71" opacity="0.5"/>
<rect x="488.1" y="207.3" width="6" height="8" fill="#d39f71" opacity="0.5"/>
<rect x="460.1" y="223.3" width="6" height="8" fill="#d39f71" opacity="0.5"/>
<rect x="474.1" y="223.3" width="6" height="8" fill="#d39f71" opacity="0.5"/>
<rect x="474.1" y="239.3" width="6" height="8" fill="#d39f71" opacity="0.5"/>
<rect x="488.1" y="239.3" width="6" height="8" fill="#d39f71" opacity="0.5"/>
<rect x="474.1" y="255.3" width="6" height="8" fill="#d39f71" opacity="0.5"/>
<rect x="460.1" y="271.3" width="6" height="8" fill="#d39f71" opacity="0.5"/>
<rect x="474.1" y="271.3" width="6" height="8" fill="#d39f71" opacity="0.5"/>
<rect x="488.1" y="271.3" width="6" height="8" fill="#d39f71" opacity="0.5"/>
<rect x="694.9" y="172.0" width="63.8" height="128.0" fill="#bc6c25"/>
<rect x="723.8" y="184.0" width="6" height="8" fill="#d39f71" opacity="0.5"/>
<rect x="737.8" y="184.0" width="6" height="8" fill="#d39f71" opacity="0.5"/>
<rect x="723.8" y="200.0" width="6" height="8" fill="#d39f71" opacity="0.5"/>
<rect x="709.8" y="216.0" width="6" height="8" fill="#d39f71" opacity="0.5"/>
<rect x="737.8" y="216.0" width="6" height="8" fill="#d39f71" opacity="0.5"/>
<rect x="737.8" y="232.0" width="6" height="8" fill="#d39f71" opacity="0.5"/>
<rect x="709.8" y="248.0" width="6" height="8" fill="#d39f71" opacity="0.5"/>
<rect x="737.8" y="248.0" width="6" height="8" fill="#d39f71" opacity="0.5"/>
<rect x="723.8" y="264.0" width="6" height="8" fill="#d39f71" opacity="0.5"/>
<rect x="737.8" y="264.0" width="6" height="8" fill="#d39f71" opacity="0.5"/>
<rect x="1036.4" y="158.0" width="44.4" height="142.0" fill="#bc6c25"/>
<polygon points="1036.4,158.0 1058.6,146.9 1080.8,158.0" fill="#ad6322"/>
<rect x="1062.6" y="186.0" width="6" height="8" fill="#d39f71" opacity="0.5"/>
<rect x="1062.6" y="202.0" width="6" height="8" fill="#d39f71" opacity="0.5"/>
<rect x="1048.6" y="218.0" width="6" height="8" fill="#d39f71" opacity="0.5"/>
<rect x="1048.6" y="234.0" width="6" height="8" fill="#d39f71" opacity="0.5"/>
<path d="M332.4 285.0 Q355.5 260.9 348.5 236.7" fill="none" stroke="#7d674c" stroke-width="3"/>
<path d="M348.5 236.7 Q335.5 227.0 326.8 227.3" fill="none" stroke="#45823a" stroke-width="2.5"/>
<path d="M348.5 236.7 Q353.0 224.8 356.1 222.8" fill="none" stroke="#45823a" stroke-width="2.5"/>
<path d="M348.5 236.7 Q365.6 231.7 377.0 236.7" fill="none" stroke="#45823a" stroke-width="2.5"/>
<path d="M348.5 236.7 Q352.0 237.1 354.3 247.5" fill="none" stroke="#45823a" stroke-width="2.5"/>
<path d="M348.5 236.7 Q337.1 235.9 329.5 245.0" fill="none" stroke="#45823a" stroke-width="2.5"/>
<path d="M603.8 285.0 Q620.7 262.0 615.6 239.0" fill="none" stroke="#856e51" stroke-width="3"/>
<path d="M615.6 239.0 Q601.6 228.9 592.3 228.8" fill="none" stroke="#437f39" stroke-width="2.5"/>
<path d="M615.6 239.0 Q619.0 228.8 621.3 228.5" fill="none" stroke="#437f39" stroke-width="2.5"/>
<path d="M615.6 239.0 Q631.0 234.0 641.2 239.0" fill="none" stroke="#437f39" stroke-width="2.5"/>
<path d="M615.6 239.0 Q620.2 241.0 623.2 253.0" fill="none" stroke="#437f39" stroke-width="2.5"/>
<path d="M615.6 239.0 Q603.7 238.3 595.7 247.7" fill="none" stroke="#437f39" stroke-width="2.5"/>
<path d="M897.6 285.0 Q916.8 256.3 911.0 227.6" fill="none" stroke="#7e694d" stroke-width="3"/>
<path d="M911.0 227.6 Q900.0 218.6 892.8 219.7" fill="none" stroke="#47873d" stroke-width="2.5"/>
<path d="M911.0 227.6 Q915.9 215.1 919.2 212.5" fill="none" stroke="#47873d" stroke-width="2.5"/>
<path d="M911.0 227.6 Q923.0 222.6 931.0 227.6" fill="none" stroke="#47873d" stroke-width="2.5"/>
<path d="M911.0 227.6 Q916.4 231.0 920.0 244.3" fill="none" stroke="#47873d" stroke-width="2.5"/>
<path d="M911.0 227.6 Q898.7 227.1 890.5 236.5" fill="none" stroke="#47873d" stroke-width="2.5"/>
<path d="M837.1 285.0 Q856.0 256.9 850.4 228.8" fill="none" stroke="#856e52" stroke-width="3"/>
<path d="M850.4 228.8 Q836.7 218.9 827.5 218.9" fill="none" stroke="#45823a" stroke-width="2.5"/>
<path d="M850.4 228.8 Q855.3 216.3 858.5 213.7" fill="none" stroke="#45823a" stroke-width="2.5"/>
<path d="M850.4 228.8 Q864.5 223.8 873.9 228.8" fill="none" stroke="#45823a" stroke-width="2.5"/>
<path d="M850.4 228.8 Q855.8 232.2 859.4 245.6" fill="none" stroke="#45823a" stroke-width="2.5"/>
<path d="M850.4 228.8 Q837.0 228.7 828.1 238.5" fill="none" stroke="#45823a" stroke-width="2.5"/>
<path d="M482.8 285.0 Q498.2 256.9 493.6 228.9" fill="none" stroke="#7f694e" stroke-width="3"/>
<path d="M493.6 228.9 Q483.5 220.2 476.7 221.5" fill="none" stroke="#48883d" stroke-width="2.5"/>
<path d="M493.6 228.9 Q498.5 216.3 501.8 213.7" fill="none" stroke="#48883d" stroke-width="2.5"/>
<path d="M493.6 228.9 Q505.0 223.9 512.6 228.9" fill="none" stroke="#48883d" stroke-width="2.5"/>
<path d="M493.6 228.9 Q499.1 232.3 502.8 245.8" fill="none" stroke="#48883d" stroke-width="2.5"/>
<path d="M493.6 228.9 Q482.5 227.9 475.2 236.9" fill="none" stroke="#48883d" stroke-width="2.5"/>
<rect x="0" y="285" width="1200" height="15" fill="#9aaa85" opacity="0.4"/>
<circle cx="1088.5" cy="34.6" r="27.4" fill="#f5e6a0" opacity="0.1"/>
</svg>