<svg xmlns="http://www.w3.org/2000/svg" viewBox="0 0 1200 400" width="1200" height="400">
<defs>
<linearGradient id="bg" x1="0" y1="0" x2="0" y2="1"><stop offset="0%" stop-color="#a16207"/><stop offset="100%" stop-color="#c2410c"/></linearGradient>
<linearGradient id="warm" x1="0" y1="0" x2="1" y2="1"><stop offset="0%" stop-color="#9a907e" stop-opacity="0.18"/><stop offset="100%" stop-color="#9a907e" stop-opacity="0.06"/></linearGradient>
</defs>
<rect width="1200" height="400" fill="url(#bg)"/>
<path d="M0 400 L0 245.4498997908494 C60.0 252.7, 90.0 229.4, 150.0 232.3 C210.0 231.6, 240.0 256.3, 300.0 247.1 C360.0 243.2, 390.0 228.6, 450.0 219.1 C510.0 219.1, 540.0 240.7, 600.0 235.7 C660.0 243.5, 690.0 219.5, 750.0 228.3 C810.0 237.8, 840.0 213.9, 900.0 219.6 C960.0 214.3, 990.0 249.3, 1050.0 240.6 C1110.0 237.9, 1140.0 236.5, 1200.0 226.7 L1200 400 Z" fill="#b64d0a" opacity="0.45"/>
<path d="M0 400 L0 256.8261534396857 C52.5 260.3, 97.5 265.6, 150.0 267.4 C202.5 271.1, 247.5 256.8, 300.0 259.6 C352.5 260.2, 397.5 256.1, 450.0 258.8 C502.5 264.2, 547.5 267.7, 600.0 265.6 C652.5 268.1, 697.5 254.9, 750.0 253.4 C802.5 258.4, 847.5 278.4, 900.0 274.7 C952.5 271.4, 997.5 256.9, 1050.0 260.0 C1102.5 252.9, 1147.5 271.5, 1200.0 275.1 L1200 400 Z" fill="#c2410c" opacity="0.3"/>
<rect x="323.8" y="310.0" width="41.5" height="90.0" rx="3.8" fill="#7f870d" opacity="0.70"/>
<rect x="417.6" y="338.9" width="43.1" height="61.1" rx="4.3" fill="#8d790d" opacity="0.66"/>
<rect x="452.5" y="300.2" width="18.8" height="99.8" rx="3.1" fill="#8f760d" opacity="0.59"/>
<rect x="457.5" y="310.2" width="4" height="5" rx="0.5" fill="#a16207" opacity="0.6"/>
<rect x="457.5" y="354.2" width="4" height="5" rx="0.5" fill="#a16207" opacity="0.6"/>
<rect x="982.6" y="300.5" width="31.9" height="99.5" rx="6.8" fill="#798d0d" opacity="0.63"/>
<rect x="397.9" y="266.2" width="19.8" height="133.8" rx="4.5" fill="#6f990d" opacity="0.75"/>
<rect x="833.0" y="331.4" width="22.1" height="68.6" rx="4.9" fill="#9a6b0c" opacity="0.61"/>
<rect x="353.5" y="269.8" width="28.2" height="130.2" rx="5.6" fill="#85820d" opacity="0.67"/>
<rect x="358.5" y="301.8" width="4" height="5" rx="0.5" fill="#a16207" opacity="0.6"/>
<rect x="358.5" y="323.8" width="4" height="5" rx="0.5" fill="#a16207" opacity="0.6"/>
<rect x="358.5" y="345.8" width="4" height="5" rx="0.5" fill="#a16207" opacity="0.6"/>
<rect x="134.1" y="345.5" width="45.9" height="54.5" rx="7.2" fill="#90750d" opacity="0.50"/>
<rect x="961.6" y="365.5" width="49.8" height="34.5" rx="5.9" fill="#90750d" opacity="0.84"/>
<rect x="975.2" y="315.0" width="22.6" height="85.0" rx="3.7" fill="#90760d" opacity="0.51"/>
<rect x="980.2" y="347.0" width="4" height="5" rx="0.5" fill="#a16207" opacity="0.6"/>
<rect x="508.2" y="274.7" width="17.6" height="125.3" rx="4.6" fill="#8b7b0d" opacity="0.58"/>
<rect x="181.1" y="306.7" width="23.2" height="93.3" rx="7.7" fill="#976e0c" opacity="0.56"/>
<rect x="299.9" y="367.9" width="17.1" height="32.1" rx="4.5" fill="#8d790d" opacity="0.64"/>
<rect x="767.1" y="307.4" width="27.7" height="92.6" rx="6.6" fill="#8e780d" opacity="0.69"/>
<rect x="772.1" y="339.4" width="4" height="5" rx="0.5" fill="#a16207" opacity="0.6"/>
<polygon points="152.4,55.6 142.5,72.7 162.3,72.7" fill="#65a30d" opacity="0.42"/>
<polygon points="759.3,123.0 752.3,135.1 766.2,135.1" fill="#65a30d" opacity="0.41"/>
<rect width="1200" height="400" fill="url(#warm)"/>
<rect width="1200" height="400" fill="#a16207" opacity="0.45"/>
</svg>