<svg xmlns="http://www.w3.org/2000/svg" viewBox="0 0 1200 300" width="1200" height="300">
<defs>
<linearGradient id="skyGrad" x1="0" y1="0" x2="0" y2="1">
<stop offset="0%" stop-color="#a78bfa"/>
<stop offset="18%" stop-color="#ddb4f0"/>
<stop offset="35%" stop-color="#fda4af"/>
<stop offset="52%" stop-color="#fdba74"/>
<stop offset="72%" stop-color="#fef08a"/>
<stop offset="100%" stop-color="#fef9c3"/>
</linearGradient>
<linearGradient id="bldg_coral" x1="0" y1="0" x2="0" y2="1"><stop offset="0%" stop-color="#fecaca"/><stop offset="100%" stop-color="#fca5a5"/></linearGradient>
<linearGradient id="bldg_teal" x1="0" y1="0" x2="0" y2="1"><stop offset="0%" stop-color="#99f6e4"/><stop offset="100%" stop-color="#5eead4"/></linearGradient>
<linearGradient id="bldg_amber" x1="0" y1="0" x2="0" y2="1"><stop offset="0%" stop-color="#fde68a"/><stop offset="100%" stop-color="#fcd34d"/></linearGradient>
<linearGradient id="bldg_lavender" x1="0" y1="0" x2="0" y2="1"><stop offset="0%" stop-color="#ddd6fe"/><stop offset="100%" stop-color="#c4b5fd"/></linearGradient>
<linearGradient id="bldg_blue" x1="0" y1="0" x2="0" y2="1"><stop offset="0%" stop-color="#bfdbfe"/><stop offset="100%" stop-color="#93c5fd"/></linearGradient>
<linearGradient id="bldg_mint" x1="0" y1="0" x2="0" y2="1"><stop offset="0%" stop-color="#a7f3d0"/><stop offset="100%" stop-color="#6ee7b7"/></linearGradient>
<linearGradient id="bldg_rose" x1="0" y1="0" x2="0" y2="1"><stop offset="0%" stop-color="#fecdd3"/><stop offset="100%" stop-color="#fda4af"/></linearGradient>
<linearGradient id="bldg_sky" x1="0" y1="0" x2="0" y2="1"><stop offset="0%" stop-color="#bae6fd"/><stop offset="100%" stop-color="#7dd3fc"/></linearGradient>
<linearGradient id="roof_navyRoof" x1="0" y1="0" x2="0" y2="1"><stop offset="0%" stop-color="#4338ca"/><stop offset="100%" stop-color="#3730a3"/></linearGradient>
<linearGradient id="roof_coralRoof" x1="0" y1="0" x2="0" y2="1"><stop offset="0%" stop-color="#f87171"/><stop offset="100%" stop-color="#ef4444"/></linearGradient>
<linearGradient id="roof_tealRoof" x1="0" y1="0" x2="0" y2="1"><stop offset="0%" stop-color="#2dd4bf"/><stop offset="100%" stop-color="#14b8a6"/></linearGradient>
<radialGradient id="windowGlow" cx="50%" cy="50%" r="50%"><stop offset="0%" stop-color="#fef08a"/><stop offset="60%" stop-color="#fbbf24"/><stop offset="100%" stop-color="#f59e0b"/></radialGradient>
<linearGradient id="hillFar" x1="0" y1="0" x2="0" y2="1"><stop offset="0%" stop-color="#c4b5fd"/><stop offset="100%" stop-color="#a5b4fc"/></linearGradient>
<linearGradient id="hillMid" x1="0" y1="0" x2="0" y2="1"><stop offset="0%" stop-color="#86efac"/><stop offset="100%" stop-color="#4ade80"/></linearGradient>
<linearGradient id="hillNear" x1="0" y1="0" x2="0" y2="1"><stop offset="0%" stop-color="#34d399"/><stop offset="100%" stop-color="#10b981"/></linearGradient>
<linearGradient id="hillDesertFar" x1="0" y1="0" x2="0" y2="1"><stop offset="0%" stop-color="#fde68a"/><stop offset="100%" stop-color="#fcd34d"/></linearGradient>
<linearGradient id="hillDesertMid" x1="0" y1="0" x2="0" y2="1"><stop offset="0%" stop-color="#fcd34d"/><stop offset="100%" stop-color="#fbbf24"/></linearGradient>
<linearGradient id="hillDesertNear" x1="0" y1="0" x2="0" y2="1"><stop offset="0%" stop-color="#fbbf24"/><stop offset="100%" stop-color="#f59e0b"/></linearGradient>
<linearGradient id="groundGrad" x1="0" y1="0" x2="0" y2="1"><stop offset="0%" stop-color="#fef3c7"/><stop offset="100%" stop-color="#fde68a"/></linearGradient>
<linearGradient id="waterGrad" x1="0" y1="0" x2="0" y2="1"><stop offset="0%" stop-color="#bfdbfe"/><stop offset="100%" stop-color="#93c5fd"/></linearGradient>
<filter id="softGlow" x="-50%" y="-50%" width="200%" height="200%"><feGaussianBlur in="SourceGraphic" stdDeviation="12"/></filter>
</defs>
<rect width="1200" height="300" fill="url(#skyGrad)"/>
<circle cx="950.3" cy="53.8" r="45" fill="#fef08a" opacity="0.12" filter="url(#softGlow)"/>
<circle cx="950.3" cy="53.8" r="30" fill="#fde68a" opacity="0.18" filter="url(#softGlow)"/>
<circle cx="950.3" cy="53.8" r="16" fill="#fef9c3" opacity="0.25" filter="url(#softGlow)"/>
<path d="M0 300 L0.0 190.1 C208.4 190.1, 208.4 188.5, 416.7 188.5 C599.5 188.5, 599.5 184.5, 782.3 184.5 C991.1 184.5, 991.1 193.6, 1200.0 193.6 L1200 300 Z" fill="url(#hillFar)" opacity="0.5"/>
<path d="M0 300 L0.0 206.0 C169.0 206.0, 169.0 210.5, 338.0 210.5 C574.1 210.5, 574.1 209.2, 810.2 209.2 C1005.1 209.2, 1005.1 215.4, 1200.0 215.4 L1200 300 Z" fill="url(#hillMid)" opacity="0.7"/>
<path d="M0 300 L0.0 231.3 C162.1 231.3, 162.1 228.7, 324.2 228.7 C526.7 228.7, 526.7 230.0, 729.1 230.0 C964.6 230.0, 964.6 235.5, 1200.0 235.5 L1200 300 Z" fill="url(#hillNear)" opacity="1"/>
<rect x="135.1" y="219.2" width="45.2" height="80.8" rx="3" fill="url(#bldg_amber)" opacity="0.7"/>
<polygon points="135.1,219.2 157.7,204.7 180.3,219.2" fill="url(#roof_navyRoof)" opacity="0.7"/>
<rect x="161.7" y="229.2" width="6" height="8" rx="1" fill="url(#windowGlow)" opacity="0.8890728809819896"/>
<rect x="147.7" y="244.2" width="6" height="8" rx="1" fill="url(#windowGlow)" opacity="0.8004947054667839"/>
<rect x="161.7" y="244.2" width="6" height="8" rx="1" fill="url(#windowGlow)" opacity="0.8116665533332463"/>
<rect x="161.7" y="259.2" width="6" height="8" rx="1" fill="url(#windowGlow)" opacity="0.7462544034916229"/>
<rect x="305.9" y="174.0" width="84.2" height="126.0" rx="3" fill="url(#bldg_lavender)" opacity="0.7"/>
<polygon points="305.9,174.0 348.0,149.6 390.1,174.0" fill="url(#roof_coralRoof)" opacity="0.7"/>
<rect x="324.0" y="184.0" width="6" height="8" rx="1" fill="url(#windowGlow)" opacity="0.9286146658140302"/>
<rect x="338.0" y="184.0" width="6" height="8" rx="1" fill="url(#windowGlow)" opacity="0.7455130898139966"/>
<rect x="324.0" y="199.0" width="6" height="8" rx="1" fill="url(#windowGlow)" opacity="0.9548993930010587"/>
<rect x="338.0" y="199.0" width="6" height="8" rx="1" fill="url(#windowGlow)" opacity="0.9570010124505501"/>
<rect x="366.0" y="199.0" width="6" height="8" rx="1" fill="url(#windowGlow)" opacity="0.8629893937907132"/>
<rect x="324.0" y="214.0" width="6" height="8" rx="1" fill="url(#windowGlow)" opacity="0.9947496262820202"/>
<rect x="338.0" y="214.0" width="6" height="8" rx="1" fill="url(#windowGlow)" opacity="0.7732172376817172"/>
<rect x="352.0" y="214.0" width="6" height="8" rx="1" fill="url(#windowGlow)" opacity="0.938439462631214"/>
<rect x="366.0" y="214.0" width="6" height="8" rx="1" fill="url(#windowGlow)" opacity="0.7414860551438694"/>
<rect x="324.0" y="229.0" width="6" height="8" rx="1" fill="url(#windowGlow)" opacity="0.7236252389958245"/>
<rect x="366.0" y="229.0" width="6" height="8" rx="1" fill="url(#windowGlow)" opacity="0.8091276323930954"/>
<rect x="352.0" y="244.0" width="6" height="8" rx="1" fill="url(#windowGlow)" opacity="0.9403632362561128"/>
<rect x="366.0" y="244.0" width="6" height="8" rx="1" fill="url(#windowGlow)" opacity="0.8646756589248197"/>
<rect x="324.0" y="259.0" width="6" height="8" rx="1" fill="url(#windowGlow)" opacity="0.7052893849114372"/>
<rect x="352.0" y="259.0" width="6" height="8" rx="1" fill="url(#windowGlow)" opacity="0.8119847752209681"/>
<rect x="366.0" y="259.0" width="6" height="8" rx="1" fill="url(#windowGlow)" opacity="0.8941491513951444"/>
<rect x="548.4" y="217.7" width="67.5" height="82.3" rx="3" fill="url(#bldg_blue)" opacity="0.7"/>
<rect x="548.4" y="214.7" width="67.5" height="3" rx="1" fill="url(#roof_tealRoof)" opacity="0.7"/>
<rect x="565.1" y="227.7" width="6" height="8" rx="1" fill="url(#windowGlow)" opacity="0.8725481181277651"/>
<rect x="579.1" y="227.7" width="6" height="8" rx="1" fill="url(#windowGlow)" opacity="0.8131772541968045"/>
<rect x="565.1" y="242.7" width="6" height="8" rx="1" fill="url(#windowGlow)" opacity="0.7953531484097955"/>
<rect x="579.1" y="242.7" width="6" height="8" rx="1" fill="url(#windowGlow)" opacity="0.9466676379305625"/>
<rect x="593.1" y="242.7" width="6" height="8" rx="1" fill="url(#windowGlow)" opacity="0.7640488416720409"/>
<rect x="579.1" y="257.7" width="6" height="8" rx="1" fill="url(#windowGlow)" opacity="0.7434191055798061"/>
<rect x="593.1" y="257.7" width="6" height="8" rx="1" fill="url(#windowGlow)" opacity="0.711352499114048"/>
<rect x="795.4" y="188.6" width="78.7" height="111.4" rx="3" fill="url(#bldg_mint)" opacity="0.7"/>
<rect x="795.4" y="185.6" width="78.7" height="3" rx="1" fill="url(#roof_navyRoof)" opacity="0.7"/>
<rect x="810.8" y="198.6" width="6" height="8" rx="1" fill="url(#windowGlow)" opacity="0.8498090428532142"/>
<rect x="824.8" y="198.6" width="6" height="8" rx="1" fill="url(#windowGlow)" opacity="0.8706227224649036"/>
<rect x="838.8" y="198.6" width="6" height="8" rx="1" fill="url(#windowGlow)" opacity="0.8931372645744762"/>
<rect x="852.8" y="198.6" width="6" height="8" rx="1" fill="url(#windowGlow)" opacity="0.816889225140628"/>
<rect x="810.8" y="213.6" width="6" height="8" rx="1" fill="url(#windowGlow)" opacity="0.7016486101325827"/>
<rect x="824.8" y="213.6" width="6" height="8" rx="1" fill="url(#windowGlow)" opacity="0.7298513553709962"/>
<rect x="838.8" y="213.6" width="6" height="8" rx="1" fill="url(#windowGlow)" opacity="0.7674540473927995"/>
<rect x="852.8" y="213.6" width="6" height="8" rx="1" fill="url(#windowGlow)" opacity="0.8987724094180262"/>
<rect x="810.8" y="228.6" width="6" height="8" rx="1" fill="url(#windowGlow)" opacity="0.730201012329292"/>
<rect x="824.8" y="228.6" width="6" height="8" rx="1" fill="url(#windowGlow)" opacity="0.9254851107138604"/>
<rect x="838.8" y="228.6" width="6" height="8" rx="1" fill="url(#windowGlow)" opacity="0.7889264370263211"/>
<rect x="852.8" y="228.6" width="6" height="8" rx="1" fill="url(#windowGlow)" opacity="0.9900532315438861"/>
<rect x="810.8" y="243.6" width="6" height="8" rx="1" fill="url(#windowGlow)" opacity="0.7613707140839522"/>
<rect x="824.8" y="243.6" width="6" height="8" rx="1" fill="url(#windowGlow)" opacity="0.9373316512151302"/>
<rect x="838.8" y="243.6" width="6" height="8" rx="1" fill="url(#windowGlow)" opacity="0.7751275992836466"/>
<rect x="852.8" y="243.6" width="6" height="8" rx="1" fill="url(#windowGlow)" opacity="0.9437998524605296"/>
<rect x="810.8" y="258.6" width="6" height="8" rx="1" fill="url(#windowGlow)" opacity="0.8250050512258917"/>
<rect x="824.8" y="258.6" width="6" height="8" rx="1" fill="url(#windowGlow)" opacity="0.774043854686452"/>
<rect x="838.8" y="258.6" width="6" height="8" rx="1" fill="url(#windowGlow)" opacity="0.780972008677652"/>
<rect x="852.8" y="258.6" width="6" height="8" rx="1" fill="url(#windowGlow)" opacity="0.786261585534672"/>
<rect x="990.0" y="177.5" width="89.2" height="122.5" rx="3" fill="url(#bldg_rose)" opacity="0.7"/>
<rect x="990.0" y="174.5" width="89.2" height="3" rx="1" fill="url(#roof_coralRoof)" opacity="0.7"/>
<rect x="1010.6" y="187.5" width="6" height="8" rx="1" fill="url(#windowGlow)" opacity="0.7010002580475995"/>
<rect x="1024.6" y="187.5" width="6" height="8" rx="1" fill="url(#windowGlow)" opacity="0.7994858906136294"/>
<rect x="1038.6" y="187.5" width="6" height="8" rx="1" fill="url(#windowGlow)" opacity="0.7071065421249282"/>
<rect x="1052.6" y="187.5" width="6" height="8" rx="1" fill="url(#windowGlow)" opacity="0.7850293277227456"/>
<rect x="1010.6" y="202.5" width="6" height="8" rx="1" fill="url(#windowGlow)" opacity="0.8690135234822581"/>
<rect x="1024.6" y="202.5" width="6" height="8" rx="1" fill="url(#windowGlow)" opacity="0.7204737227505416"/>
<rect x="1038.6" y="202.5" width="6" height="8" rx="1" fill="url(#windowGlow)" opacity="0.7956063471248402"/>
<rect x="1052.6" y="202.5" width="6" height="8" rx="1" fill="url(#windowGlow)" opacity="0.995348065670276"/>
<rect x="1010.6" y="217.5" width="6" height="8" rx="1" fill="url(#windowGlow)" opacity="0.729051866116492"/>
<rect x="1024.6" y="217.5" width="6" height="8" rx="1" fill="url(#windowGlow)" opacity="0.9745712080386333"/>
<rect x="1038.6" y="217.5" width="6" height="8" rx="1" fill="url(#windowGlow)" opacity="0.9344348717641247"/>
<rect x="1052.6" y="217.5" width="6" height="8" rx="1" fill="url(#windowGlow)" opacity="0.9594748131276456"/>
<rect x="1010.6" y="232.5" width="6" height="8" rx="1" fill="url(#windowGlow)" opacity="0.8251365111792164"/>
<rect x="1024.6" y="232.5" width="6" height="8" rx="1" fill="url(#windowGlow)" opacity="0.8892559920387603"/>
<rect x="1038.6" y="232.5" width="6" height="8" rx="1" fill="url(#windowGlow)" opacity="0.7208298935651918"/>
<rect x="1052.6" y="232.5" width="6" height="8" rx="1" fill="url(#windowGlow)" opacity="0.8547346281608261"/>
<rect x="1010.6" y="247.5" width="6" height="8" rx="1" fill="url(#windowGlow)" opacity="0.884967882737968"/>
<rect x="1024.6" y="247.5" width="6" height="8" rx="1" fill="url(#windowGlow)" opacity="0.846290388771468"/>
<rect x="1038.6" y="247.5" width="6" height="8" rx="1" fill="url(#windowGlow)" opacity="0.7386380772286272"/>
<rect x="1052.6" y="247.5" width="6" height="8" rx="1" fill="url(#windowGlow)" opacity="0.907854424327544"/>
<rect x="101.8" y="135.4" width="61.0" height="164.6" rx="3" fill="url(#bldg_sky)" opacity="0.85"/>
<polygon points="101.8,135.4 132.3,114.1 162.9,135.4" fill="url(#roof_tealRoof)" opacity="0.85"/>
<rect x="129.3" y="145.4" width="6" height="8" rx="1" fill="url(#windowGlow)" opacity="0.9040746088624347"/>
<rect x="143.3" y="145.4" width="6" height="8" rx="1" fill="url(#windowGlow)" opacity="0.8026485839870984"/>
<rect x="115.3" y="160.4" width="6" height="8" rx="1" fill="url(#windowGlow)" opacity="0.731040589572415"/>
<rect x="129.3" y="160.4" width="6" height="8" rx="1" fill="url(#windowGlow)" opacity="0.9842609480881415"/>
<rect x="143.3" y="160.4" width="6" height="8" rx="1" fill="url(#windowGlow)" opacity="0.905290705666547"/>
<rect x="115.3" y="175.4" width="6" height="8" rx="1" fill="url(#windowGlow)" opacity="0.9756574234811857"/>
<rect x="129.3" y="175.4" width="6" height="8" rx="1" fill="url(#windowGlow)" opacity="0.9637593803758543"/>
<rect x="143.3" y="175.4" width="6" height="8" rx="1" fill="url(#windowGlow)" opacity="0.8232965882976058"/>
<rect x="115.3" y="190.4" width="6" height="8" rx="1" fill="url(#windowGlow)" opacity="0.9753779549037003"/>
<rect x="143.3" y="190.4" width="6" height="8" rx="1" fill="url(#windowGlow)" opacity="0.8332175406316377"/>
<rect x="115.3" y="205.4" width="6" height="8" rx="1" fill="url(#windowGlow)" opacity="0.7476660904696518"/>
<rect x="129.3" y="205.4" width="6" height="8" rx="1" fill="url(#windowGlow)" opacity="0.9612587587261845"/>
<rect x="143.3" y="205.4" width="6" height="8" rx="1" fill="url(#windowGlow)" opacity="0.985371753240643"/>
<rect x="115.3" y="220.4" width="6" height="8" rx="1" fill="url(#windowGlow)" opacity="0.7406616298671167"/>
<rect x="143.3" y="220.4" width="6" height="8" rx="1" fill="url(#windowGlow)" opacity="0.989082839055491"/>
<rect x="115.3" y="235.4" width="6" height="8" rx="1" fill="url(#windowGlow)" opacity="0.9461084764199836"/>
<rect x="129.3" y="235.4" width="6" height="8" rx="1" fill="url(#windowGlow)" opacity="0.7794267022886437"/>
<rect x="143.3" y="235.4" width="6" height="8" rx="1" fill="url(#windowGlow)" opacity="0.8324413270840614"/>
<rect x="129.3" y="250.4" width="6" height="8" rx="1" fill="url(#windowGlow)" opacity="0.7229588754582027"/>
<rect x="143.3" y="250.4" width="6" height="8" rx="1" fill="url(#windowGlow)" opacity="0.8023590106062399"/>
<path d="M132.3 193.0 L156.7 193.0 L153.7 199.0 L135.3 199.0 Z" fill="url(#roof_coralRoof)" opacity="0.68"/>
<rect x="370.7" y="134.5" width="58.0" height="165.5" rx="3" fill="url(#bldg_coral)" opacity="0.85"/>
<rect x="382.3" y="114.7" width="34.8" height="19.9" rx="2" fill="url(#roof_navyRoof)" opacity="0.85"/>
<rect x="382.7" y="144.5" width="6" height="8" rx="1" fill="url(#windowGlow)" opacity="0.8462277990049811"/>
<rect x="396.7" y="144.5" width="6" height="8" rx="1" fill="url(#windowGlow)" opacity="0.7617831411593514"/>
<rect x="382.7" y="159.5" width="6" height="8" rx="1" fill="url(#windowGlow)" opacity="0.7012540953239678"/>
<rect x="396.7" y="159.5" width="6" height="8" rx="1" fill="url(#windowGlow)" opacity="0.9123126549703593"/>
<rect x="410.7" y="159.5" width="6" height="8" rx="1" fill="url(#windowGlow)" opacity="0.7931947112517406"/>
<rect x="382.7" y="174.5" width="6" height="8" rx="1" fill="url(#windowGlow)" opacity="0.8201347183064254"/>
<rect x="396.7" y="174.5" width="6" height="8" rx="1" fill="url(#windowGlow)" opacity="0.7162390304804961"/>
<rect x="410.7" y="174.5" width="6" height="8" rx="1" fill="url(#windowGlow)" opacity="0.7779671498937379"/>
<rect x="382.7" y="189.5" width="6" height="8" rx="1" fill="url(#windowGlow)" opacity="0.9367905852556184"/>
<rect x="396.7" y="189.5" width="6" height="8" rx="1" fill="url(#windowGlow)" opacity="0.8689931906615351"/>
<rect x="382.7" y="204.5" width="6" height="8" rx="1" fill="url(#windowGlow)" opacity="0.8132127539316252"/>
<rect x="410.7" y="204.5" width="6" height="8" rx="1" fill="url(#windowGlow)" opacity="0.8025784485519762"/>
<rect x="382.7" y="219.5" width="6" height="8" rx="1" fill="url(#windowGlow)" opacity="0.8902827385767748"/>
<rect x="396.7" y="219.5" width="6" height="8" rx="1" fill="url(#windowGlow)" opacity="0.9665677137051558"/>
<rect x="410.7" y="219.5" width="6" height="8" rx="1" fill="url(#windowGlow)" opacity="0.9094247819899697"/>
<rect x="382.7" y="234.5" width="6" height="8" rx="1" fill="url(#windowGlow)" opacity="0.868670712862476"/>
<rect x="396.7" y="234.5" width="6" height="8" rx="1" fill="url(#windowGlow)" opacity="0.9885165304357728"/>
<rect x="410.7" y="234.5" width="6" height="8" rx="1" fill="url(#windowGlow)" opacity="0.9642886284106823"/>
<rect x="382.7" y="249.5" width="6" height="8" rx="1" fill="url(#windowGlow)" opacity="0.9240003494657577"/>
<rect x="396.7" y="249.5" width="6" height="8" rx="1" fill="url(#windowGlow)" opacity="0.7877769574931714"/>
<rect x="410.7" y="249.5" width="6" height="8" rx="1" fill="url(#windowGlow)" opacity="0.7876291211171211"/>
<rect x="586.5" y="210.5" width="68.9" height="89.5" rx="3" fill="url(#bldg_teal)" opacity="0.85"/>
<polygon points="586.5,210.5 620.9,188.4 655.4,210.5" fill="url(#roof_coralRoof)" opacity="0.85"/>
<rect x="603.9" y="220.5" width="6" height="8" rx="1" fill="url(#windowGlow)" opacity="0.8936896909464568"/>
<rect x="617.9" y="220.5" width="6" height="8" rx="1" fill="url(#windowGlow)" opacity="0.7955557356567847"/>
<rect x="631.9" y="220.5" width="6" height="8" rx="1" fill="url(#windowGlow)" opacity="0.9006772215015614"/>
<rect x="603.9" y="235.5" width="6" height="8" rx="1" fill="url(#windowGlow)" opacity="0.9113187374134168"/>
<rect x="617.9" y="235.5" width="6" height="8" rx="1" fill="url(#windowGlow)" opacity="0.7239226430300263"/>
<rect x="631.9" y="235.5" width="6" height="8" rx="1" fill="url(#windowGlow)" opacity="0.9508280478188897"/>
<rect x="603.9" y="250.5" width="6" height="8" rx="1" fill="url(#windowGlow)" opacity="0.9161688661743741"/>
<rect x="617.9" y="250.5" width="6" height="8" rx="1" fill="url(#windowGlow)" opacity="0.9536609126039133"/>
<rect x="631.9" y="250.5" width="6" height="8" rx="1" fill="url(#windowGlow)" opacity="0.914261431672732"/>
<rect x="769.0" y="169.1" width="59.4" height="130.9" rx="3" fill="url(#bldg_amber)" opacity="0.85"/>
<rect x="769.0" y="166.1" width="59.4" height="3" rx="1" fill="url(#roof_tealRoof)" opacity="0.85"/>
<rect x="781.7" y="179.1" width="6" height="8" rx="1" fill="url(#windowGlow)" opacity="0.8930913823158906"/>
<rect x="795.7" y="179.1" width="6" height="8" rx="1" fill="url(#windowGlow)" opacity="0.7789556228457742"/>
<rect x="781.7" y="194.1" width="6" height="8" rx="1" fill="url(#windowGlow)" opacity="0.9875592084077928"/>
<rect x="795.7" y="194.1" width="6" height="8" rx="1" fill="url(#windowGlow)" opacity="0.8044321100713834"/>
<rect x="809.7" y="194.1" width="6" height="8" rx="1" fill="url(#windowGlow)" opacity="0.9612317606160565"/>
<rect x="809.7" y="209.1" width="6" height="8" rx="1" fill="url(#windowGlow)" opacity="0.8709361758879088"/>
<rect x="781.7" y="224.1" width="6" height="8" rx="1" fill="url(#windowGlow)" opacity="0.8506118066378924"/>
<rect x="795.7" y="224.1" width="6" height="8" rx="1" fill="url(#windowGlow)" opacity="0.7212588170642307"/>
<rect x="809.7" y="224.1" width="6" height="8" rx="1" fill="url(#windowGlow)" opacity="0.9556449597960547"/>
<rect x="781.7" y="239.1" width="6" height="8" rx="1" fill="url(#windowGlow)" opacity="0.7932501279251883"/>
<rect x="809.7" y="239.1" width="6" height="8" rx="1" fill="url(#windowGlow)" opacity="0.7166194220616572"/>
<rect x="781.7" y="254.1" width="6" height="8" rx="1" fill="url(#windowGlow)" opacity="0.9139555690409409"/>
<rect x="993.8" y="153.2" width="65.4" height="146.8" rx="3" fill="url(#bldg_lavender)" opacity="0.85"/>
<rect x="993.8" y="150.2" width="65.4" height="3" rx="1" fill="url(#roof_navyRoof)" opacity="0.85"/>
<rect x="1009.5" y="163.2" width="6" height="8" rx="1" fill="url(#windowGlow)" opacity="0.7441901983433357"/>
<rect x="1037.5" y="163.2" width="6" height="8" rx="1" fill="url(#windowGlow)" opacity="0.7782452223255509"/>
<rect x="1009.5" y="178.2" width="6" height="8" rx="1" fill="url(#windowGlow)" opacity="0.731970174625502"/>
<rect x="1023.5" y="178.2" width="6" height="8" rx="1" fill="url(#windowGlow)" opacity="0.7589958335547689"/>
<rect x="1037.5" y="178.2" width="6" height="8" rx="1" fill="url(#windowGlow)" opacity="0.8305982618269502"/>
<rect x="1023.5" y="193.2" width="6" height="8" rx="1" fill="url(#windowGlow)" opacity="0.9864030797902508"/>
<rect x="1009.5" y="208.2" width="6" height="8" rx="1" fill="url(#windowGlow)" opacity="0.7823670260060425"/>
<rect x="1037.5" y="208.2" width="6" height="8" rx="1" fill="url(#windowGlow)" opacity="0.9582648427962627"/>
<rect x="1009.5" y="223.2" width="6" height="8" rx="1" fill="url(#windowGlow)" opacity="0.840300411004713"/>
<rect x="1023.5" y="223.2" width="6" height="8" rx="1" fill="url(#windowGlow)" opacity="0.8681733898204627"/>
<rect x="1037.5" y="223.2" width="6" height="8" rx="1" fill="url(#windowGlow)" opacity="0.7978398984288051"/>
<rect x="1009.5" y="238.2" width="6" height="8" rx="1" fill="url(#windowGlow)" opacity="0.7175308269064551"/>
<rect x="1023.5" y="238.2" width="6" height="8" rx="1" fill="url(#windowGlow)" opacity="0.9303137105565116"/>
<rect x="1037.5" y="238.2" width="6" height="8" rx="1" fill="url(#windowGlow)" opacity="0.8043151262236363"/>
<rect x="1009.5" y="253.2" width="6" height="8" rx="1" fill="url(#windowGlow)" opacity="0.8981963860328291"/>
<rect x="1023.5" y="253.2" width="6" height="8" rx="1" fill="url(#windowGlow)" opacity="0.9700612360472145"/>
<rect x="1037.5" y="253.2" width="6" height="8" rx="1" fill="url(#windowGlow)" opacity="0.9769977115918871"/>
<rect x="119.5" y="187.0" width="44.9" height="113.0" rx="3" fill="url(#bldg_blue)" opacity="1"/>
<polygon points="119.5,187.0 142.0,175.5 164.4,187.0" fill="url(#roof_coralRoof)" opacity="1"/>
<rect x="132.0" y="197.0" width="6" height="8" rx="1" fill="url(#windowGlow)" opacity="0.9426373019081713"/>
<rect x="146.0" y="197.0" width="6" height="8" rx="1" fill="url(#windowGlow)" opacity="0.7494861849814123"/>
<rect x="132.0" y="212.0" width="6" height="8" rx="1" fill="url(#windowGlow)" opacity="0.7429472144893124"/>
<rect x="146.0" y="212.0" width="6" height="8" rx="1" fill="url(#windowGlow)" opacity="0.8385223842871014"/>
<rect x="132.0" y="227.0" width="6" height="8" rx="1" fill="url(#windowGlow)" opacity="0.7246338674913317"/>
<rect x="146.0" y="227.0" width="6" height="8" rx="1" fill="url(#windowGlow)" opacity="0.854278603733647"/>
<rect x="132.0" y="242.0" width="6" height="8" rx="1" fill="url(#windowGlow)" opacity="0.9834815913268744"/>
<rect x="146.0" y="242.0" width="6" height="8" rx="1" fill="url(#windowGlow)" opacity="0.9218555037034002"/>
<rect x="132.0" y="257.0" width="6" height="8" rx="1" fill="url(#windowGlow)" opacity="0.7572539335383353"/>
<rect x="137.0" y="284.0" width="10" height="16" rx="2" fill="url(#roof_navyRoof)" opacity="0.8"/>
<rect x="139.0" y="287.0" width="6" height="10" rx="1" fill="url(#windowGlow)" opacity="0.45"/>
<path d="M124.0 226.6 L142.0 226.6 L139.0 232.6 L127.0 232.6 Z" fill="url(#roof_navyRoof)" opacity="0.8"/>
<rect x="350.3" y="175.6" width="55.5" height="124.4" rx="3" fill="url(#bldg_mint)" opacity="1"/>
<polygon points="350.3,175.6 378.1,160.2 405.8,175.6" fill="url(#roof_tealRoof)" opacity="1"/>
<rect x="368.1" y="185.6" width="6" height="8" rx="1" fill="url(#windowGlow)" opacity="0.9159182610995686"/>
<rect x="382.1" y="185.6" width="6" height="8" rx="1" fill="url(#windowGlow)" opacity="0.9086428968276097"/>
<rect x="382.1" y="200.6" width="6" height="8" rx="1" fill="url(#windowGlow)" opacity="0.7592642663788349"/>
<rect x="368.1" y="215.6" width="6" height="8" rx="1" fill="url(#windowGlow)" opacity="0.7266333175481452"/>
<rect x="382.1" y="215.6" width="6" height="8" rx="1" fill="url(#windowGlow)" opacity="0.9227109184128748"/>
<rect x="368.1" y="230.6" width="6" height="8" rx="1" fill="url(#windowGlow)" opacity="0.8131214428754157"/>
<rect x="382.1" y="230.6" width="6" height="8" rx="1" fill="url(#windowGlow)" opacity="0.7767691324356799"/>
<rect x="368.1" y="245.6" width="6" height="8" rx="1" fill="url(#windowGlow)" opacity="0.8292874211581831"/>
<rect x="382.1" y="245.6" width="6" height="8" rx="1" fill="url(#windowGlow)" opacity="0.964490580728506"/>
<rect x="368.1" y="260.6" width="6" height="8" rx="1" fill="url(#windowGlow)" opacity="0.7288423329260397"/>
<rect x="382.1" y="260.6" width="6" height="8" rx="1" fill="url(#windowGlow)" opacity="0.7914170167368916"/>
<rect x="373.1" y="284.0" width="10" height="16" rx="2" fill="url(#roof_navyRoof)" opacity="0.8"/>
<rect x="375.1" y="287.0" width="6" height="10" rx="1" fill="url(#windowGlow)" opacity="0.45"/>
<rect x="565.7" y="76.4" width="47.0" height="223.6" rx="3" fill="url(#bldg_rose)" opacity="1"/>
<polygon points="565.7,76.4 589.2,65.0 612.7,76.4" fill="url(#roof_navyRoof)" opacity="1"/>
<rect x="579.2" y="86.4" width="6" height="8" rx="1" fill="url(#windowGlow)" opacity="0.777783073102023"/>
<rect x="593.2" y="86.4" width="6" height="8" rx="1" fill="url(#windowGlow)" opacity="0.9953782532342608"/>
<rect x="593.2" y="101.4" width="6" height="8" rx="1" fill="url(#windowGlow)" opacity="0.9762327242066304"/>
<rect x="579.2" y="116.4" width="6" height="8" rx="1" fill="url(#windowGlow)" opacity="0.8975528432044912"/>
<rect x="593.2" y="116.4" width="6" height="8" rx="1" fill="url(#windowGlow)" opacity="0.7803874761240498"/>
<rect x="579.2" y="131.4" width="6" height="8" rx="1" fill="url(#windowGlow)" opacity="0.8118978958166659"/>
<rect x="593.2" y="131.4" width="6" height="8" rx="1" fill="url(#windowGlow)" opacity="0.710260341880033"/>
<rect x="593.2" y="146.4" width="6" height="8" rx="1" fill="url(#windowGlow)" opacity="0.8539663765830762"/>
<rect x="593.2" y="161.4" width="6" height="8" rx="1" fill="url(#windowGlow)" opacity="0.7465921110690534"/>
<rect x="579.2" y="176.4" width="6" height="8" rx="1" fill="url(#windowGlow)" opacity="0.7231863776329841"/>
<rect x="579.2" y="191.4" width="6" height="8" rx="1" fill="url(#windowGlow)" opacity="0.8863931134745446"/>
<rect x="584.2" y="284.0" width="10" height="16" rx="2" fill="url(#roof_navyRoof)" opacity="0.8"/>
<rect x="586.2" y="287.0" width="6" height="10" rx="1" fill="url(#windowGlow)" opacity="0.45"/>
<rect x="815.5" y="100.0" width="58.8" height="200.0" rx="3" fill="url(#bldg_sky)" opacity="1"/>
<rect x="815.5" y="97.0" width="58.8" height="3" rx="1" fill="url(#roof_coralRoof)" opacity="1"/>
<rect x="827.9" y="110.0" width="6" height="8" rx="1" fill="url(#windowGlow)" opacity="0.9441413817667129"/>
<rect x="841.9" y="110.0" width="6" height="8" rx="1" fill="url(#windowGlow)" opacity="0.8960017975866803"/>
<rect x="827.9" y="125.0" width="6" height="8" rx="1" fill="url(#windowGlow)" opacity="0.8175690412137513"/>
<rect x="841.9" y="125.0" width="6" height="8" rx="1" fill="url(#windowGlow)" opacity="0.9485861811081814"/>
<rect x="827.9" y="140.0" width="6" height="8" rx="1" fill="url(#windowGlow)" opacity="0.7174584902438607"/>
<rect x="841.9" y="140.0" width="6" height="8" rx="1" fill="url(#windowGlow)" opacity="0.9580192535920158"/>
<rect x="855.9" y="140.0" width="6" height="8" rx="1" fill="url(#windowGlow)" opacity="0.926495306066468"/>
<rect x="827.9" y="155.0" width="6" height="8" rx="1" fill="url(#windowGlow)" opacity="0.7942508538226833"/>
<rect x="841.9" y="155.0" width="6" height="8" rx="1" fill="url(#windowGlow)" opacity="0.9697432179794382"/>
<rect x="855.9" y="155.0" width="6" height="8" rx="1" fill="url(#windowGlow)" opacity="0.8722071449608575"/>
<rect x="827.9" y="170.0" width="6" height="8" rx="1" fill="url(#windowGlow)" opacity="0.7971939766766475"/>
<rect x="855.9" y="170.0" width="6" height="8" rx="1" fill="url(#windowGlow)" opacity="0.9878927698768176"/>
<rect x="827.9" y="185.0" width="6" height="8" rx="1" fill="url(#windowGlow)" opacity="0.9474589475651546"/>
<rect x="841.9" y="185.0" width="6" height="8" rx="1" fill="url(#windowGlow)" opacity="0.9248169798519541"/>
<rect x="855.9" y="185.0" width="6" height="8" rx="1" fill="url(#windowGlow)" opacity="0.8462733707140541"/>
<rect x="855.9" y="200.0" width="6" height="8" rx="1" fill="url(#windowGlow)" opacity="0.7076373342460195"/>
<rect x="827.9" y="215.0" width="6" height="8" rx="1" fill="url(#windowGlow)" opacity="0.9149628982017575"/>
<rect x="855.9" y="215.0" width="6" height="8" rx="1" fill="url(#windowGlow)" opacity="0.7975430005218568"/>
<rect x="839.9" y="284.0" width="10" height="16" rx="2" fill="url(#roof_navyRoof)" opacity="0.8"/>
<rect x="841.9" y="287.0" width="6" height="10" rx="1" fill="url(#windowGlow)" opacity="0.45"/>
<path d="M821.4 170.0 L844.9 170.0 L841.9 176.0 L824.4 176.0 Z" fill="url(#roof_navyRoof)" opacity="0.8"/>
<rect x="834.7" y="141.0" width="20.6" height="5" rx="1" fill="#15803d" opacity="0.7"/>
<circle cx="837.7" cy="140.0" r="2.5" fill="#fb923c" opacity="0.85"/>
<circle cx="844.5" cy="140.0" r="2.5" fill="#fbbf24" opacity="0.85"/>
<circle cx="851.4" cy="140.0" r="2.5" fill="#f87171" opacity="0.85"/>
<rect x="1010.4" y="164.1" width="47.7" height="135.9" rx="3" fill="url(#bldg_coral)" opacity="1"/>
<polygon points="1010.4,164.1 1034.2,151.4 1058.1,164.1" fill="url(#roof_tealRoof)" opacity="1"/>
<rect x="1024.2" y="174.1" width="6" height="8" rx="1" fill="url(#windowGlow)" opacity="0.8372843858493885"/>
<rect x="1038.2" y="174.1" width="6" height="8" rx="1" fill="url(#windowGlow)" opacity="0.9386881746531874"/>
<rect x="1024.2" y="189.1" width="6" height="8" rx="1" fill="url(#windowGlow)" opacity="0.7104710349861862"/>
<rect x="1024.2" y="204.1" width="6" height="8" rx="1" fill="url(#windowGlow)" opacity="0.8637720868288409"/>
<rect x="1038.2" y="204.1" width="6" height="8" rx="1" fill="url(#windowGlow)" opacity="0.7905766046562123"/>
<rect x="1024.2" y="219.1" width="6" height="8" rx="1" fill="url(#windowGlow)" opacity="0.7065311243322356"/>
<rect x="1038.2" y="219.1" width="6" height="8" rx="1" fill="url(#windowGlow)" opacity="0.8453827408353717"/>
<rect x="1024.2" y="234.1" width="6" height="8" rx="1" fill="url(#windowGlow)" opacity="0.9000938561279763"/>
<rect x="1038.2" y="234.1" width="6" height="8" rx="1" fill="url(#windowGlow)" opacity="0.8349298107600444"/>
<rect x="1024.2" y="249.1" width="6" height="8" rx="1" fill="url(#windowGlow)" opacity="0.8161591859609629"/>
<rect x="1029.2" y="284.0" width="10" height="16" rx="2" fill="url(#roof_navyRoof)" opacity="0.8"/>
<rect x="1031.2" y="287.0" width="6" height="10" rx="1" fill="url(#windowGlow)" opacity="0.45"/>
<rect x="1025.9" y="190.1" width="16.7" height="5" rx="1" fill="#15803d" opacity="0.7"/>
<circle cx="1028.9" cy="189.1" r="2.5" fill="#fbbf24" opacity="0.85"/>
<circle cx="1034.5" cy="189.1" r="2.5" fill="#fbbf24" opacity="0.85"/>
<circle cx="1040.0" cy="189.1" r="2.5" fill="#fbbf24" opacity="0.85"/>
<rect x="254.4" y="268.3" width="6" height="16.7" rx="2" fill="#15803d"/>
<circle cx="257.4" cy="256.0" r="16.3" fill="#22c55e" opacity="0.9"/>
<circle cx="249.9" cy="259.0" r="12.3" fill="#16a34a" opacity="0.8"/>
<circle cx="262.4" cy="260.0" r="11.4" fill="#15803d" opacity="0.7"/>
<rect x="482.7" y="268.9" width="6" height="16.1" rx="2" fill="#15803d"/>
<circle cx="485.7" cy="257.2" r="15.7" fill="#22c55e" opacity="0.9"/>
<circle cx="478.8" cy="260.2" r="11.8" fill="#16a34a" opacity="0.8"/>
<circle cx="493.0" cy="261.2" r="11.0" fill="#15803d" opacity="0.7"/>
<rect x="711.1" y="264.6" width="6" height="20.4" rx="2" fill="#15803d"/>
<circle cx="714.1" cy="251.1" r="17.5" fill="#22c55e" opacity="0.9"/>
<circle cx="706.1" cy="254.1" r="13.1" fill="#16a34a" opacity="0.8"/>
<circle cx="721.4" cy="255.1" r="12.2" fill="#15803d" opacity="0.7"/>
<rect x="939.4" y="266.2" width="6" height="18.8" rx="2" fill="#15803d"/>
<circle cx="942.4" cy="255.4" r="14.8" fill="#22c55e" opacity="0.9"/>
<circle cx="934.8" cy="258.4" r="11.1" fill="#16a34a" opacity="0.8"/>
<circle cx="948.1" cy="259.4" r="10.4" fill="#15803d" opacity="0.7"/>
<rect x="0" y="282" width="1200" height="18" fill="url(#groundGrad)"/>
<line x1="552.7" y1="282.0" x2="552.7" y2="242.5" stroke="#92400e" stroke-width="2"/>
<circle cx="552.7" cy="242.5" r="4" fill="#fef08a" opacity="0.6"/>
<circle cx="552.7" cy="242.5" r="8" fill="#fef08a" opacity="0.15" filter="url(#softGlow)"/>
<line x1="602.0" y1="282.0" x2="602.0" y2="242.3" stroke="#92400e" stroke-width="2"/>
<circle cx="602.0" cy="242.3" r="4" fill="#fef08a" opacity="0.6"/>
<circle cx="602.0" cy="242.3" r="8" fill="#fef08a" opacity="0.15" filter="url(#softGlow)"/>
<ellipse cx="270.0" cy="282.0" rx="5.5" ry="3.9" fill="#22c55e" opacity="0.6"/>
<ellipse cx="440.2" cy="282.0" rx="6.4" ry="4.5" fill="#22c55e" opacity="0.6"/>
<ellipse cx="85.0" cy="282.0" rx="4.3" ry="3.0" fill="#22c55e" opacity="0.6"/>
</svg>