<svg xmlns="http://www.w3.org/2000/svg" viewBox="0 0 1200 400" width="1200" height="400">
<defs>
<linearGradient id="bg" x1="0" y1="0" x2="0" y2="1"><stop offset="0%" stop-color="#d4a76a"/><stop offset="100%" stop-color="#ea580c"/></linearGradient>
<linearGradient id="warm" x1="0" y1="0" x2="1" y2="1"><stop offset="0%" stop-color="#738aaf" stop-opacity="0.18"/><stop offset="100%" stop-color="#738aaf" stop-opacity="0.06"/></linearGradient>
</defs>
<rect width="1200" height="400" fill="url(#bg)"/>
<path d="M0 400 L0 230.3416909787581 C60.0 230.2, 90.0 237.0, 150.0 237.9 C210.0 237.2, 240.0 229.6, 300.0 225.3 C360.0 220.7, 390.0 264.5, 450.0 257.8 C510.0 259.3, 540.0 232.2, 600.0 222.5 C660.0 231.5, 690.0 224.5, 750.0 225.2 C810.0 215.8, 840.0 256.4, 900.0 251.5 C960.0 261.0, 990.0 265.3, 1050.0 257.9 C1110.0 253.0, 1140.0 242.1, 1200.0 235.4 L1200 400 Z" fill="#e2742d" opacity="0.45"/>
<path d="M0 400 L0 261.7595678036893 C52.5 261.1, 97.5 268.1, 150.0 263.7 C202.5 265.7, 247.5 266.4, 300.0 269.2 C352.5 269.2, 397.5 270.5, 450.0 276.5 C502.5 270.5, 547.5 264.2, 600.0 265.6 C652.5 269.4, 697.5 279.1, 750.0 282.2 C802.5 282.0, 847.5 268.2, 900.0 263.9 C952.5 267.4, 997.5 282.1, 1050.0 279.0 C1102.5 278.5, 1147.5 269.4, 1200.0 274.6 L1200 400 Z" fill="#ea580c" opacity="0.3"/>
<rect x="1064.5" y="325.8" width="33.3" height="74.2" rx="4.1" fill="#168da7" opacity="0.62"/>
<rect x="795.9" y="323.7" width="45.2" height="76.3" rx="3.4" fill="#478184" opacity="0.80"/>
<rect x="313.2" y="270.0" width="14.4" height="130.0" rx="4.2" fill="#547e7a" opacity="0.76"/>
<rect x="318.2" y="280.0" width="4" height="5" rx="0.5" fill="#d4a76a" opacity="0.6"/>
<rect x="318.2" y="302.0" width="4" height="5" rx="0.5" fill="#d4a76a" opacity="0.6"/>
<rect x="318.2" y="324.0" width="4" height="5" rx="0.5" fill="#d4a76a" opacity="0.6"/>
<rect x="318.2" y="346.0" width="4" height="5" rx="0.5" fill="#d4a76a" opacity="0.6"/>
<rect x="160.5" y="281.7" width="29.8" height="118.3" rx="3.1" fill="#67796c" opacity="0.55"/>
<rect x="252.3" y="359.4" width="37.2" height="40.6" rx="3.9" fill="#647a6e" opacity="0.69"/>
<rect x="245.6" y="298.8" width="40.3" height="101.2" rx="3.6" fill="#6b7869" opacity="0.73"/>
<rect x="142.3" y="371.1" width="42.0" height="28.9" rx="4.8" fill="#4c8080" opacity="0.67"/>
<rect x="942.1" y="281.2" width="13.5" height="118.8" rx="4.4" fill="#0e8fad" opacity="0.59"/>
<rect x="947.1" y="313.2" width="4" height="5" rx="0.5" fill="#d4a76a" opacity="0.6"/>
<rect x="947.1" y="357.2" width="4" height="5" rx="0.5" fill="#d4a76a" opacity="0.6"/>
<rect x="378.8" y="352.3" width="20.0" height="47.7" rx="6.6" fill="#0891b2" opacity="0.70"/>
<rect x="160.5" y="285.3" width="29.4" height="114.7" rx="5.8" fill="#478184" opacity="0.52"/>
<rect x="165.5" y="295.3" width="4" height="5" rx="0.5" fill="#d4a76a" opacity="0.6"/>
<rect x="165.5" y="317.3" width="4" height="5" rx="0.5" fill="#d4a76a" opacity="0.6"/>
<rect x="165.5" y="361.3" width="4" height="5" rx="0.5" fill="#d4a76a" opacity="0.6"/>
<rect x="949.8" y="313.3" width="20.0" height="86.7" rx="6.9" fill="#198da5" opacity="0.75"/>
<rect x="954.8" y="323.3" width="4" height="5" rx="0.5" fill="#d4a76a" opacity="0.6"/>
<rect x="954.8" y="345.3" width="4" height="5" rx="0.5" fill="#d4a76a" opacity="0.6"/>
<rect x="954.8" y="367.3" width="4" height="5" rx="0.5" fill="#d4a76a" opacity="0.6"/>
<rect x="201.9" y="345.7" width="13.0" height="54.3" rx="4.6" fill="#7b745d" opacity="0.51"/>
<rect x="967.2" y="358.1" width="20.5" height="41.9" rx="4.8" fill="#28899b" opacity="0.71"/>
<circle cx="669.1" cy="40.7" r="12.0" fill="#0891b2" opacity="0.41"/>
<circle cx="1153.4" cy="6.2" r="11.2" fill="#d4a76a" opacity="0.18"/>
<circle cx="190.5" cy="63.3" r="9.7" fill="#d4a76a" opacity="0.24"/>
<rect width="1200" height="400" fill="url(#warm)"/>
<rect width="1200" height="400" fill="#d4a76a" opacity="0.36"/>
</svg>