<svg xmlns="http://www.w3.org/2000/svg" viewBox="0 0 1200 300" width="1200" height="300">
<defs><linearGradient id="skyGrad" x1="0" y1="0" x2="0" y2="1"><stop offset="0%" stop-color="#ddf0f0"/><stop offset="100%" stop-color="#f0e8d8"/></linearGradient></defs><rect width="1200" height="300" fill="url(#skyGrad)"/>
<rect x="213.2" y="203.7" width="61.5" height="96.3" fill="#aeb0a5"/>
<rect x="793.0" y="212.8" width="40.4" height="87.2" fill="#aeb0a5"/>
<polygon points="793.0,212.8 813.2,202.7 833.4,212.8" fill="#a0a298"/>
<rect x="251.9" y="206.8" width="79.1" height="93.2" fill="#898d7d"/>
<rect x="302.5" y="218.8" width="6" height="8" fill="#b2b5ab" opacity="0.5"/>
<rect x="274.5" y="234.8" width="6" height="8" fill="#b2b5ab" opacity="0.5"/>
<rect x="302.5" y="234.8" width="6" height="8" fill="#b2b5ab" opacity="0.5"/>
<rect x="288.5" y="250.8" width="6" height="8" fill="#b2b5ab" opacity="0.5"/>
<rect x="302.5" y="250.8" width="6" height="8" fill="#b2b5ab" opacity="0.5"/>
<rect x="274.5" y="266.8" width="6" height="8" fill="#b2b5ab" opacity="0.5"/>
<rect x="288.5" y="266.8" width="6" height="8" fill="#b2b5ab" opacity="0.5"/>
<rect x="302.5" y="266.8" width="6" height="8" fill="#b2b5ab" opacity="0.5"/>
<rect x="851.5" y="208.2" width="55.3" height="91.8" fill="#898d7d"/>
<rect x="861.1" y="192.0" width="36.0" height="16.2" fill="#828677"/>
<rect x="869.1" y="204.0" width="6" height="8" fill="#b2b5ab" opacity="0.5"/>
<rect x="883.1" y="220.0" width="6" height="8" fill="#b2b5ab" opacity="0.5"/>
<rect x="869.1" y="236.0" width="6" height="8" fill="#b2b5ab" opacity="0.5"/>
<rect x="869.1" y="252.0" width="6" height="8" fill="#b2b5ab" opacity="0.5"/>
<rect x="883.1" y="252.0" width="6" height="8" fill="#b2b5ab" opacity="0.5"/>
<rect x="869.1" y="268.0" width="6" height="8" fill="#b2b5ab" opacity="0.5"/>
<rect x="883.1" y="268.0" width="6" height="8" fill="#b2b5ab" opacity="0.5"/>
<rect x="237.3" y="213.2" width="42.2" height="86.8" fill="#6b705c"/>
<rect x="244.7" y="197.9" width="27.4" height="15.3" fill="#666a57"/>
<rect x="255.4" y="225.9" width="6" height="8" fill="#9fa295" opacity="0.5"/>
<rect x="255.4" y="241.9" width="6" height="8" fill="#9fa295" opacity="0.5"/>
<rect x="255.4" y="257.9" width="6" height="8" fill="#9fa295" opacity="0.5"/>
<rect x="614.3" y="210.1" width="74.2" height="89.9" fill="#6b705c"/>
<polygon points="614.3,210.1 651.4,191.5 688.5,210.1" fill="#626755"/>
<rect x="634.4" y="222.1" width="6" height="8" fill="#9fa295" opacity="0.5"/>
<rect x="648.4" y="222.1" width="6" height="8" fill="#9fa295" opacity="0.5"/>
<rect x="662.4" y="222.1" width="6" height="8" fill="#9fa295" opacity="0.5"/>
<rect x="634.4" y="238.1" width="6" height="8" fill="#9fa295" opacity="0.5"/>
<rect x="662.4" y="238.1" width="6" height="8" fill="#9fa295" opacity="0.5"/>
<rect x="634.4" y="254.1" width="6" height="8" fill="#9fa295" opacity="0.5"/>
<rect x="662.4" y="254.1" width="6" height="8" fill="#9fa295" opacity="0.5"/>
<rect x="662.4" y="270.1" width="6" height="8" fill="#9fa295" opacity="0.5"/>
<rect x="992.5" y="153.0" width="31.3" height="147.0" fill="#6b705c"/>
<rect x="1005.2" y="165.0" width="6" height="8" fill="#9fa295" opacity="0.5"/>
<rect x="1005.2" y="181.0" width="6" height="8" fill="#9fa295" opacity="0.5"/>
<rect x="1005.2" y="197.0" width="6" height="8" fill="#9fa295" opacity="0.5"/>
<rect x="1005.2" y="213.0" width="6" height="8" fill="#9fa295" opacity="0.5"/>
<rect x="1005.2" y="229.0" width="6" height="8" fill="#9fa295" opacity="0.5"/>
<rect x="1005.2" y="245.0" width="6" height="8" fill="#9fa295" opacity="0.5"/>
<path d="M446.9 285.0 Q463.9 263.8 458.8 242.6" fill="none" stroke="#877053" stroke-width="3"/>
<path d="M458.8 242.6 Q447.0 233.3 439.1 234.0" fill="none" stroke="#45823b" stroke-width="2.5"/>
<path d="M458.8 242.6 Q463.8 229.9 467.1 227.3" fill="none" stroke="#45823b" stroke-width="2.5"/>
<path d="M458.8 242.6 Q474.7 237.6 485.2 242.6" fill="none" stroke="#45823b" stroke-width="2.5"/>
<path d="M458.8 242.6 Q462.4 243.2 464.9 253.8" fill="none" stroke="#45823b" stroke-width="2.5"/>
<path d="M458.8 242.6 Q449.4 241.0 443.1 249.5" fill="none" stroke="#45823b" stroke-width="2.5"/>
<path d="M840.5 285.0 Q865.5 257.7 858.0 230.4" fill="none" stroke="#8b7355" stroke-width="3"/>
<path d="M858.0 230.4 Q849.2 222.2 843.3 224.1" fill="none" stroke="#44813a" stroke-width="2.5"/>
<path d="M858.0 230.4 Q861.4 220.2 863.6 220.0" fill="none" stroke="#44813a" stroke-width="2.5"/>
<path d="M858.0 230.4 Q871.3 225.4 880.2 230.4" fill="none" stroke="#44813a" stroke-width="2.5"/>
<path d="M858.0 230.4 Q862.4 232.3 865.4 244.2" fill="none" stroke="#44813a" stroke-width="2.5"/>
<path d="M858.0 230.4 Q846.3 229.7 838.6 238.9" fill="none" stroke="#44813a" stroke-width="2.5"/>
<path d="M96.4 285.0 Q124.4 264.6 116.0 244.2" fill="none" stroke="#79644a" stroke-width="3"/>
<path d="M116.0 244.2 Q107.0 235.9 101.0 237.7" fill="none" stroke="#48883d" stroke-width="2.5"/>
<path d="M116.0 244.2 Q119.9 233.2 122.6 232.1" fill="none" stroke="#48883d" stroke-width="2.5"/>
<path d="M116.0 244.2 Q131.6 239.2 142.0 244.2" fill="none" stroke="#48883d" stroke-width="2.5"/>
<path d="M116.0 244.2 Q119.6 244.8 122.0 255.3" fill="none" stroke="#48883d" stroke-width="2.5"/>
<path d="M116.0 244.2 Q102.4 244.1 93.3 254.1" fill="none" stroke="#48883d" stroke-width="2.5"/>
<path d="M74.7 285.0 Q103.3 261.1 94.7 237.3" fill="none" stroke="#876f52" stroke-width="3"/>
<path d="M94.7 237.3 Q84.4 228.5 77.6 229.8" fill="none" stroke="#49893e" stroke-width="2.5"/>
<path d="M94.7 237.3 Q99.7 224.7 103.0 222.0" fill="none" stroke="#49893e" stroke-width="2.5"/>
<path d="M94.7 237.3 Q105.6 232.3 112.8 237.3" fill="none" stroke="#49893e" stroke-width="2.5"/>
<path d="M94.7 237.3 Q99.4 239.4 102.4 251.5" fill="none" stroke="#49893e" stroke-width="2.5"/>
<path d="M94.7 237.3 Q83.3 236.4 75.7 245.6" fill="none" stroke="#49893e" stroke-width="2.5"/>
<path d="M817.6 285.0 Q833.3 256.7 828.6 228.4" fill="none" stroke="#7f694e" stroke-width="3"/>
<path d="M828.6 228.4 Q819.6 220.1 813.5 221.8" fill="none" stroke="#47863c" stroke-width="2.5"/>
<path d="M828.6 228.4 Q833.8 215.4 837.2 212.4" fill="none" stroke="#47863c" stroke-width="2.5"/>
<path d="M828.6 228.4 Q846.3 223.4 858.1 228.4" fill="none" stroke="#47863c" stroke-width="2.5"/>
<path d="M828.6 228.4 Q833.7 231.3 837.1 244.2" fill="none" stroke="#47863c" stroke-width="2.5"/>
<path d="M828.6 228.4 Q818.0 227.2 811.0 236.0" fill="none" stroke="#47863c" stroke-width="2.5"/>
<path d="M202.1 285.0 Q220.3 260.9 214.8 236.7" fill="none" stroke="#7f694e" stroke-width="3"/>
<path d="M214.8 236.7 Q201.6 226.9 192.7 227.1" fill="none" stroke="#44803a" stroke-width="2.5"/>
<path d="M214.8 236.7 Q218.5 226.2 220.9 225.6" fill="none" stroke="#44803a" stroke-width="2.5"/>
<path d="M214.8 236.7 Q230.8 231.7 241.4 236.7" fill="none" stroke="#44803a" stroke-width="2.5"/>
<path d="M214.8 236.7 Q220.4 240.3 224.1 253.9" fill="none" stroke="#44803a" stroke-width="2.5"/>
<path d="M214.8 236.7 Q201.0 236.8 191.8 246.8" fill="none" stroke="#44803a" stroke-width="2.5"/>
<path d="M332.7 285.0 Q353.8 260.8 347.5 236.6" fill="none" stroke="#8a7355" stroke-width="3"/>
<path d="M347.5 236.6 Q338.3 228.3 332.1 229.9" fill="none" stroke="#48883d" stroke-width="2.5"/>
<path d="M347.5 236.6 Q351.5 225.4 354.2 224.2" fill="none" stroke="#48883d" stroke-width="2.5"/>
<path d="M347.5 236.6 Q364.4 231.6 375.7 236.6" fill="none" stroke="#48883d" stroke-width="2.5"/>
<path d="M347.5 236.6 Q350.9 236.8 353.1 247.0" fill="none" stroke="#48883d" stroke-width="2.5"/>
<path d="M347.5 236.6 Q337.4 235.3 330.8 243.9" fill="none" stroke="#48883d" stroke-width="2.5"/>
<path d="M780.1 285.0 Q808.4 263.7 799.9 242.4" fill="none" stroke="#836d50" stroke-width="3"/>
<path d="M799.9 242.4 Q787.7 232.9 779.6 233.5" fill="none" stroke="#48893e" stroke-width="2.5"/>
<path d="M799.9 242.4 Q804.5 230.3 807.5 228.3" fill="none" stroke="#48893e" stroke-width="2.5"/>
<path d="M799.9 242.4 Q811.9 237.4 819.9 242.4" fill="none" stroke="#48893e" stroke-width="2.5"/>
<path d="M799.9 242.4 Q805.4 245.9 809.1 259.4" fill="none" stroke="#48893e" stroke-width="2.5"/>
<path d="M799.9 242.4 Q786.0 242.4 776.8 252.4" fill="none" stroke="#48893e" stroke-width="2.5"/>
<rect x="0" y="285" width="1200" height="15" fill="#d4c5a9" opacity="0.4"/>
<circle cx="1019.0" cy="47.1" r="25.4" fill="#f5e6a0" opacity="0.1"/>
</svg>