<svg xmlns="http://www.w3.org/2000/svg" viewBox="0 0 1200 400" width="1200" height="400">
<defs>
<linearGradient id="bg" x1="0" y1="0" x2="0" y2="1"><stop offset="0%" stop-color="#166534"/><stop offset="100%" stop-color="#3b82f6"/></linearGradient>
<linearGradient id="warm" x1="0" y1="0" x2="1" y2="1"><stop offset="0%" stop-color="#b7955a" stop-opacity="0.18"/><stop offset="100%" stop-color="#b7955a" stop-opacity="0.06"/></linearGradient>
</defs>
<rect width="1200" height="400" fill="url(#bg)"/>
<path d="M0 400 L0 237.28249368808892 C60.0 242.3, 90.0 248.0, 150.0 257.6 C210.0 252.1, 240.0 254.6, 300.0 249.4 C360.0 247.4, 390.0 235.8, 450.0 244.1 C510.0 253.8, 540.0 245.6, 600.0 238.7 C660.0 232.9, 690.0 233.8, 750.0 234.5 C810.0 235.4, 840.0 237.0, 900.0 246.9 C960.0 237.5, 990.0 234.9, 1050.0 241.7 C1110.0 247.8, 1140.0 251.8, 1200.0 259.5 L1200 400 Z" fill="#2e78b2" opacity="0.45"/>
<path d="M0 400 L0 277.3304975437383 C52.5 277.2, 97.5 272.3, 150.0 275.2 C202.5 269.5, 247.5 268.0, 300.0 269.2 C352.5 262.4, 397.5 278.4, 450.0 271.5 C502.5 266.2, 547.5 269.6, 600.0 274.5 C652.5 277.3, 697.5 267.9, 750.0 262.8 C802.5 261.2, 847.5 278.8, 900.0 277.9 C952.5 278.5, 997.5 267.0, 1050.0 264.6 C1102.5 266.9, 1147.5 266.8, 1200.0 273.4 L1200 400 Z" fill="#3b82f6" opacity="0.3"/>
<rect x="358.2" y="338.3" width="43.3" height="61.7" rx="3.8" fill="#918764" opacity="0.56"/>
<rect x="602.4" y="341.4" width="14.3" height="58.6" rx="4.0" fill="#83867b" opacity="0.54"/>
<rect x="297.0" y="337.3" width="32.7" height="62.7" rx="3.6" fill="#81867f" opacity="0.72"/>
<rect x="547.6" y="316.4" width="34.6" height="83.6" rx="3.6" fill="#a1884a" opacity="0.84"/>
<rect x="582.3" y="295.1" width="40.5" height="104.9" rx="3.3" fill="#af8832" opacity="0.70"/>
<rect x="163.7" y="289.3" width="23.6" height="110.7" rx="4.2" fill="#c98a06" opacity="0.72"/>
<rect x="168.7" y="299.3" width="4" height="5" rx="0.5" fill="#166534" opacity="0.6"/>
<rect x="168.7" y="321.3" width="4" height="5" rx="0.5" fill="#166534" opacity="0.6"/>
<rect x="168.7" y="343.3" width="4" height="5" rx="0.5" fill="#166534" opacity="0.6"/>
<rect x="168.7" y="365.3" width="4" height="5" rx="0.5" fill="#166534" opacity="0.6"/>
<rect x="972.4" y="340.0" width="31.4" height="60.0" rx="7.7" fill="#7c8688" opacity="0.66"/>
<rect x="481.5" y="342.4" width="28.5" height="57.6" rx="4.4" fill="#c28a12" opacity="0.57"/>
<rect x="285.7" y="362.1" width="43.3" height="37.9" rx="5.8" fill="#bf8916" opacity="0.84"/>
<rect x="694.3" y="286.1" width="49.7" height="113.9" rx="3.8" fill="#898673" opacity="0.54"/>
<rect x="699.3" y="296.1" width="4" height="5" rx="0.5" fill="#166534" opacity="0.6"/>
<rect x="699.3" y="318.1" width="4" height="5" rx="0.5" fill="#166534" opacity="0.6"/>
<rect x="699.3" y="340.1" width="4" height="5" rx="0.5" fill="#166534" opacity="0.6"/>
<rect x="715.9" y="340.1" width="4" height="5" rx="0.5" fill="#166534" opacity="0.6"/>
<rect x="699.3" y="362.1" width="4" height="5" rx="0.5" fill="#166534" opacity="0.6"/>
<rect x="715.9" y="362.1" width="4" height="5" rx="0.5" fill="#166534" opacity="0.6"/>
<rect x="690.7" y="311.1" width="49.2" height="88.9" rx="7.7" fill="#c48a0f" opacity="0.54"/>
<rect x="1035.6" y="317.4" width="15.4" height="82.6" rx="4.5" fill="#9f884d" opacity="0.73"/>
<line x1="752.0" y1="191.4" x2="796.0" y2="191.4" stroke="#ca8a04" stroke-width="2.7" opacity="0.36"/>
<line x1="1171.1" y1="65.4" x2="1242.9" y2="65.4" stroke="#ca8a04" stroke-width="1.3" opacity="0.42"/>
<line x1="560.5" y1="124.3" x2="611.4" y2="124.3" stroke="#166534" stroke-width="1.9" opacity="0.19"/>
<line x1="205.4" y1="170.1" x2="284.7" y2="170.1" stroke="#166534" stroke-width="1.6" opacity="0.36"/>
<line x1="457.0" y1="91.1" x2="483.3" y2="91.1" stroke="#ca8a04" stroke-width="2.6" opacity="0.34"/>
<line x1="230.8" y1="94.4" x2="278.1" y2="94.4" stroke="#166534" stroke-width="2.8" opacity="0.25"/>
<line x1="1009.0" y1="147.2" x2="1063.5" y2="147.2" stroke="#166534" stroke-width="1.8" opacity="0.36"/>
<line x1="375.0" y1="27.5" x2="447.3" y2="27.5" stroke="#166534" stroke-width="2.1" opacity="0.33"/>
<line x1="265.8" y1="186.6" x2="339.0" y2="186.6" stroke="#166534" stroke-width="2.5" opacity="0.31"/>
<line x1="748.4" y1="16.1" x2="800.1" y2="16.1" stroke="#ca8a04" stroke-width="1.1" opacity="0.25"/>
<line x1="809.1" y1="174.2" x2="880.5" y2="174.2" stroke="#ca8a04" stroke-width="1.4" opacity="0.44"/>
<line x1="22.0" y1="118.5" x2="61.8" y2="118.5" stroke="#166534" stroke-width="1.4" opacity="0.42"/>
<rect width="1200" height="400" fill="url(#warm)"/>
<rect width="1200" height="400" fill="#166534" opacity="0.45"/>
</svg>