<svg xmlns="http://www.w3.org/2000/svg" viewBox="0 0 1200 300" width="1200" height="300">
<rect width="1200" height="300" fill="#f0e6d8"/>
<path d="M0 300 L0 210.0 C333.7 164.0, 834.2 188.5, 1200 210.0 L1200 300 Z" fill="#e4c4a8" opacity="0.3"/>
<rect x="109.0" y="176.6" width="59.7" height="123.4" fill="#daae87"/>
<rect x="438.3" y="238.7" width="63.6" height="61.3" fill="#daae87"/>
<rect x="722.1" y="215.3" width="47.2" height="84.7" fill="#daae87"/>
<rect x="985.7" y="236.7" width="49.4" height="63.3" fill="#daae87"/>
<rect x="115.4" y="189.7" width="78.9" height="110.3" fill="#c98951"/>
<rect x="130.8" y="201.7" width="6" height="8" fill="#dcb28e" opacity="0.5"/>
<rect x="158.8" y="201.7" width="6" height="8" fill="#dcb28e" opacity="0.5"/>
<rect x="172.8" y="201.7" width="6" height="8" fill="#dcb28e" opacity="0.5"/>
<rect x="130.8" y="217.7" width="6" height="8" fill="#dcb28e" opacity="0.5"/>
<rect x="144.8" y="217.7" width="6" height="8" fill="#dcb28e" opacity="0.5"/>
<rect x="172.8" y="217.7" width="6" height="8" fill="#dcb28e" opacity="0.5"/>
<rect x="130.8" y="233.7" width="6" height="8" fill="#dcb28e" opacity="0.5"/>
<rect x="172.8" y="233.7" width="6" height="8" fill="#dcb28e" opacity="0.5"/>
<rect x="130.8" y="249.7" width="6" height="8" fill="#dcb28e" opacity="0.5"/>
<rect x="144.8" y="249.7" width="6" height="8" fill="#dcb28e" opacity="0.5"/>
<rect x="158.8" y="249.7" width="6" height="8" fill="#dcb28e" opacity="0.5"/>
<rect x="172.8" y="249.7" width="6" height="8" fill="#dcb28e" opacity="0.5"/>
<rect x="130.8" y="265.7" width="6" height="8" fill="#dcb28e" opacity="0.5"/>
<rect x="144.8" y="265.7" width="6" height="8" fill="#dcb28e" opacity="0.5"/>
<rect x="158.8" y="265.7" width="6" height="8" fill="#dcb28e" opacity="0.5"/>
<rect x="172.8" y="265.7" width="6" height="8" fill="#dcb28e" opacity="0.5"/>
<rect x="358.3" y="173.5" width="51.6" height="126.5" fill="#c98951"/>
<rect x="374.1" y="185.5" width="6" height="8" fill="#dcb28e" opacity="0.5"/>
<rect x="388.1" y="185.5" width="6" height="8" fill="#dcb28e" opacity="0.5"/>
<rect x="374.1" y="201.5" width="6" height="8" fill="#dcb28e" opacity="0.5"/>
<rect x="388.1" y="201.5" width="6" height="8" fill="#dcb28e" opacity="0.5"/>
<rect x="374.1" y="217.5" width="6" height="8" fill="#dcb28e" opacity="0.5"/>
<rect x="388.1" y="217.5" width="6" height="8" fill="#dcb28e" opacity="0.5"/>
<rect x="374.1" y="233.5" width="6" height="8" fill="#dcb28e" opacity="0.5"/>
<rect x="388.1" y="233.5" width="6" height="8" fill="#dcb28e" opacity="0.5"/>
<rect x="374.1" y="249.5" width="6" height="8" fill="#dcb28e" opacity="0.5"/>
<rect x="388.1" y="249.5" width="6" height="8" fill="#dcb28e" opacity="0.5"/>
<rect x="374.1" y="265.5" width="6" height="8" fill="#dcb28e" opacity="0.5"/>
<rect x="388.1" y="265.5" width="6" height="8" fill="#dcb28e" opacity="0.5"/>
<rect x="566.7" y="170.1" width="44.5" height="129.9" fill="#c98951"/>
<rect x="579.0" y="182.1" width="6" height="8" fill="#dcb28e" opacity="0.5"/>
<rect x="579.0" y="198.1" width="6" height="8" fill="#dcb28e" opacity="0.5"/>
<rect x="593.0" y="198.1" width="6" height="8" fill="#dcb28e" opacity="0.5"/>
<rect x="579.0" y="214.1" width="6" height="8" fill="#dcb28e" opacity="0.5"/>
<rect x="579.0" y="230.1" width="6" height="8" fill="#dcb28e" opacity="0.5"/>
<rect x="579.0" y="262.1" width="6" height="8" fill="#dcb28e" opacity="0.5"/>
<rect x="774.2" y="206.7" width="68.6" height="93.3" fill="#c98951"/>
<rect x="791.5" y="218.7" width="6" height="8" fill="#dcb28e" opacity="0.5"/>
<rect x="805.5" y="218.7" width="6" height="8" fill="#dcb28e" opacity="0.5"/>
<rect x="819.5" y="218.7" width="6" height="8" fill="#dcb28e" opacity="0.5"/>
<rect x="791.5" y="234.7" width="6" height="8" fill="#dcb28e" opacity="0.5"/>
<rect x="805.5" y="234.7" width="6" height="8" fill="#dcb28e" opacity="0.5"/>
<rect x="819.5" y="234.7" width="6" height="8" fill="#dcb28e" opacity="0.5"/>
<rect x="805.5" y="250.7" width="6" height="8" fill="#dcb28e" opacity="0.5"/>
<rect x="819.5" y="250.7" width="6" height="8" fill="#dcb28e" opacity="0.5"/>
<rect x="791.5" y="266.7" width="6" height="8" fill="#dcb28e" opacity="0.5"/>
<rect x="805.5" y="266.7" width="6" height="8" fill="#dcb28e" opacity="0.5"/>
<rect x="1012.0" y="191.4" width="51.9" height="108.6" fill="#c98951"/>
<rect x="1027.9" y="203.4" width="6" height="8" fill="#dcb28e" opacity="0.5"/>
<rect x="1041.9" y="219.4" width="6" height="8" fill="#dcb28e" opacity="0.5"/>
<rect x="1041.9" y="235.4" width="6" height="8" fill="#dcb28e" opacity="0.5"/>
<rect x="1041.9" y="267.4" width="6" height="8" fill="#dcb28e" opacity="0.5"/>
<rect x="92.8" y="107.5" width="63.5" height="192.5" fill="#bc6c25"/>
<rect x="107.6" y="119.5" width="6" height="8" fill="#d39f71" opacity="0.5"/>
<rect x="121.6" y="119.5" width="6" height="8" fill="#d39f71" opacity="0.5"/>
<rect x="135.6" y="119.5" width="6" height="8" fill="#d39f71" opacity="0.5"/>
<rect x="107.6" y="135.5" width="6" height="8" fill="#d39f71" opacity="0.5"/>
<rect x="121.6" y="135.5" width="6" height="8" fill="#d39f71" opacity="0.5"/>
<rect x="135.6" y="135.5" width="6" height="8" fill="#d39f71" opacity="0.5"/>
<rect x="107.6" y="151.5" width="6" height="8" fill="#d39f71" opacity="0.5"/>
<rect x="121.6" y="151.5" width="6" height="8" fill="#d39f71" opacity="0.5"/>
<rect x="107.6" y="167.5" width="6" height="8" fill="#d39f71" opacity="0.5"/>
<rect x="135.6" y="167.5" width="6" height="8" fill="#d39f71" opacity="0.5"/>
<rect x="107.6" y="183.5" width="6" height="8" fill="#d39f71" opacity="0.5"/>
<rect x="121.6" y="183.5" width="6" height="8" fill="#d39f71" opacity="0.5"/>
<rect x="135.6" y="183.5" width="6" height="8" fill="#d39f71" opacity="0.5"/>
<rect x="107.6" y="199.5" width="6" height="8" fill="#d39f71" opacity="0.5"/>
<rect x="121.6" y="199.5" width="6" height="8" fill="#d39f71" opacity="0.5"/>
<rect x="107.6" y="215.5" width="6" height="8" fill="#d39f71" opacity="0.5"/>
<rect x="121.6" y="215.5" width="6" height="8" fill="#d39f71" opacity="0.5"/>
<rect x="135.6" y="215.5" width="6" height="8" fill="#d39f71" opacity="0.5"/>
<rect x="107.6" y="231.5" width="6" height="8" fill="#d39f71" opacity="0.5"/>
<rect x="121.6" y="231.5" width="6" height="8" fill="#d39f71" opacity="0.5"/>
<rect x="135.6" y="231.5" width="6" height="8" fill="#d39f71" opacity="0.5"/>
<rect x="107.6" y="247.5" width="6" height="8" fill="#d39f71" opacity="0.5"/>
<rect x="121.6" y="247.5" width="6" height="8" fill="#d39f71" opacity="0.5"/>
<rect x="135.6" y="247.5" width="6" height="8" fill="#d39f71" opacity="0.5"/>
<rect x="107.6" y="263.5" width="6" height="8" fill="#d39f71" opacity="0.5"/>
<rect x="121.6" y="263.5" width="6" height="8" fill="#d39f71" opacity="0.5"/>
<rect x="135.6" y="263.5" width="6" height="8" fill="#d39f71" opacity="0.5"/>
<rect x="370.7" y="237.3" width="49.4" height="62.7" fill="#bc6c25"/>
<rect x="385.4" y="249.3" width="6" height="8" fill="#d39f71" opacity="0.5"/>
<rect x="399.4" y="249.3" width="6" height="8" fill="#d39f71" opacity="0.5"/>
<rect x="385.4" y="265.3" width="6" height="8" fill="#d39f71" opacity="0.5"/>
<rect x="399.4" y="265.3" width="6" height="8" fill="#d39f71" opacity="0.5"/>
<rect x="599.6" y="108.4" width="58.1" height="191.6" fill="#bc6c25"/>
<rect x="625.7" y="120.4" width="6" height="8" fill="#d39f71" opacity="0.5"/>
<rect x="639.7" y="120.4" width="6" height="8" fill="#d39f71" opacity="0.5"/>
<rect x="625.7" y="136.4" width="6" height="8" fill="#d39f71" opacity="0.5"/>
<rect x="639.7" y="136.4" width="6" height="8" fill="#d39f71" opacity="0.5"/>
<rect x="611.7" y="152.4" width="6" height="8" fill="#d39f71" opacity="0.5"/>
<rect x="625.7" y="152.4" width="6" height="8" fill="#d39f71" opacity="0.5"/>
<rect x="639.7" y="152.4" width="6" height="8" fill="#d39f71" opacity="0.5"/>
<rect x="611.7" y="168.4" width="6" height="8" fill="#d39f71" opacity="0.5"/>
<rect x="625.7" y="168.4" width="6" height="8" fill="#d39f71" opacity="0.5"/>
<rect x="639.7" y="168.4" width="6" height="8" fill="#d39f71" opacity="0.5"/>
<rect x="611.7" y="184.4" width="6" height="8" fill="#d39f71" opacity="0.5"/>
<rect x="639.7" y="184.4" width="6" height="8" fill="#d39f71" opacity="0.5"/>
<rect x="611.7" y="200.4" width="6" height="8" fill="#d39f71" opacity="0.5"/>
<rect x="611.7" y="216.4" width="6" height="8" fill="#d39f71" opacity="0.5"/>
<rect x="625.7" y="216.4" width="6" height="8" fill="#d39f71" opacity="0.5"/>
<rect x="639.7" y="216.4" width="6" height="8" fill="#d39f71" opacity="0.5"/>
<rect x="611.7" y="232.4" width="6" height="8" fill="#d39f71" opacity="0.5"/>
<rect x="625.7" y="232.4" width="6" height="8" fill="#d39f71" opacity="0.5"/>
<rect x="639.7" y="232.4" width="6" height="8" fill="#d39f71" opacity="0.5"/>
<rect x="625.7" y="248.4" width="6" height="8" fill="#d39f71" opacity="0.5"/>
<rect x="625.7" y="264.4" width="6" height="8" fill="#d39f71" opacity="0.5"/>
<rect x="639.7" y="264.4" width="6" height="8" fill="#d39f71" opacity="0.5"/>
<rect x="826.2" y="112.1" width="70.4" height="187.9" fill="#bc6c25"/>
<rect x="844.4" y="124.1" width="6" height="8" fill="#d39f71" opacity="0.5"/>
<rect x="858.4" y="124.1" width="6" height="8" fill="#d39f71" opacity="0.5"/>
<rect x="872.4" y="124.1" width="6" height="8" fill="#d39f71" opacity="0.5"/>
<rect x="844.4" y="140.1" width="6" height="8" fill="#d39f71" opacity="0.5"/>
<rect x="858.4" y="140.1" width="6" height="8" fill="#d39f71" opacity="0.5"/>
<rect x="872.4" y="140.1" width="6" height="8" fill="#d39f71" opacity="0.5"/>
<rect x="844.4" y="156.1" width="6" height="8" fill="#d39f71" opacity="0.5"/>
<rect x="872.4" y="156.1" width="6" height="8" fill="#d39f71" opacity="0.5"/>
<rect x="844.4" y="172.1" width="6" height="8" fill="#d39f71" opacity="0.5"/>
<rect x="858.4" y="172.1" width="6" height="8" fill="#d39f71" opacity="0.5"/>
<rect x="844.4" y="188.1" width="6" height="8" fill="#d39f71" opacity="0.5"/>
<rect x="858.4" y="188.1" width="6" height="8" fill="#d39f71" opacity="0.5"/>
<rect x="872.4" y="188.1" width="6" height="8" fill="#d39f71" opacity="0.5"/>
<rect x="844.4" y="204.1" width="6" height="8" fill="#d39f71" opacity="0.5"/>
<rect x="858.4" y="204.1" width="6" height="8" fill="#d39f71" opacity="0.5"/>
<rect x="872.4" y="204.1" width="6" height="8" fill="#d39f71" opacity="0.5"/>
<rect x="844.4" y="220.1" width="6" height="8" fill="#d39f71" opacity="0.5"/>
<rect x="858.4" y="220.1" width="6" height="8" fill="#d39f71" opacity="0.5"/>
<rect x="872.4" y="220.1" width="6" height="8" fill="#d39f71" opacity="0.5"/>
<rect x="844.4" y="252.1" width="6" height="8" fill="#d39f71" opacity="0.5"/>
<rect x="858.4" y="252.1" width="6" height="8" fill="#d39f71" opacity="0.5"/>
<rect x="872.4" y="252.1" width="6" height="8" fill="#d39f71" opacity="0.5"/>
<rect x="844.4" y="268.1" width="6" height="8" fill="#d39f71" opacity="0.5"/>
<rect x="872.4" y="268.1" width="6" height="8" fill="#d39f71" opacity="0.5"/>
<rect x="1013.6" y="135.0" width="67.4" height="165.0" fill="#bc6c25"/>
<rect x="1030.3" y="147.0" width="6" height="8" fill="#d39f71" opacity="0.5"/>
<rect x="1044.3" y="147.0" width="6" height="8" fill="#d39f71" opacity="0.5"/>
<rect x="1058.3" y="147.0" width="6" height="8" fill="#d39f71" opacity="0.5"/>
<rect x="1030.3" y="163.0" width="6" height="8" fill="#d39f71" opacity="0.5"/>
<rect x="1044.3" y="163.0" width="6" height="8" fill="#d39f71" opacity="0.5"/>
<rect x="1030.3" y="179.0" width="6" height="8" fill="#d39f71" opacity="0.5"/>
<rect x="1044.3" y="179.0" width="6" height="8" fill="#d39f71" opacity="0.5"/>
<rect x="1058.3" y="179.0" width="6" height="8" fill="#d39f71" opacity="0.5"/>
<rect x="1030.3" y="195.0" width="6" height="8" fill="#d39f71" opacity="0.5"/>
<rect x="1044.3" y="195.0" width="6" height="8" fill="#d39f71" opacity="0.5"/>
<rect x="1058.3" y="195.0" width="6" height="8" fill="#d39f71" opacity="0.5"/>
<rect x="1030.3" y="211.0" width="6" height="8" fill="#d39f71" opacity="0.5"/>
<rect x="1044.3" y="211.0" width="6" height="8" fill="#d39f71" opacity="0.5"/>
<rect x="1030.3" y="227.0" width="6" height="8" fill="#d39f71" opacity="0.5"/>
<rect x="1044.3" y="227.0" width="6" height="8" fill="#d39f71" opacity="0.5"/>
<rect x="1058.3" y="227.0" width="6" height="8" fill="#d39f71" opacity="0.5"/>
<rect x="1030.3" y="243.0" width="6" height="8" fill="#d39f71" opacity="0.5"/>
<rect x="1044.3" y="243.0" width="6" height="8" fill="#d39f71" opacity="0.5"/>
<rect x="1030.3" y="259.0" width="6" height="8" fill="#d39f71" opacity="0.5"/>
<rect x="1044.3" y="259.0" width="6" height="8" fill="#d39f71" opacity="0.5"/>
<rect x="1058.3" y="259.0" width="6" height="8" fill="#d39f71" opacity="0.5"/>
<rect x="0" y="298" width="1200" height="2" fill="#a96121" opacity="0.15"/>
</svg>