<svg xmlns="http://www.w3.org/2000/svg" viewBox="0 0 1200 300" width="1200" height="300">
<rect width="1200" height="300" fill="#e0eff2"/>
<path d="M0 300 L0 210.0 C403.3 164.5, 847.1 188.5, 1200 210.0 L1200 300 Z" fill="#aac2c9" opacity="0.3"/>
<rect x="103.5" y="216.1" width="85.8" height="83.9" fill="#8aabb4"/>
<rect x="428.8" y="187.6" width="46.4" height="112.4" fill="#8aabb4"/>
<rect x="736.8" y="228.7" width="48.3" height="71.3" fill="#8aabb4"/>
<rect x="978.6" y="205.8" width="70.7" height="94.2" fill="#8aabb4"/>
<rect x="95.7" y="216.6" width="61.0" height="83.4" fill="#558592"/>
<rect x="109.2" y="228.6" width="6" height="8" fill="#91b0b8" opacity="0.5"/>
<rect x="137.2" y="228.6" width="6" height="8" fill="#91b0b8" opacity="0.5"/>
<rect x="109.2" y="244.6" width="6" height="8" fill="#91b0b8" opacity="0.5"/>
<rect x="123.2" y="244.6" width="6" height="8" fill="#91b0b8" opacity="0.5"/>
<rect x="137.2" y="244.6" width="6" height="8" fill="#91b0b8" opacity="0.5"/>
<rect x="123.2" y="260.6" width="6" height="8" fill="#91b0b8" opacity="0.5"/>
<rect x="328.2" y="216.6" width="66.1" height="83.4" fill="#558592"/>
<rect x="344.2" y="228.6" width="6" height="8" fill="#91b0b8" opacity="0.5"/>
<rect x="344.2" y="244.6" width="6" height="8" fill="#91b0b8" opacity="0.5"/>
<rect x="358.2" y="244.6" width="6" height="8" fill="#91b0b8" opacity="0.5"/>
<rect x="358.2" y="260.6" width="6" height="8" fill="#91b0b8" opacity="0.5"/>
<rect x="372.2" y="260.6" width="6" height="8" fill="#91b0b8" opacity="0.5"/>
<rect x="548.8" y="200.5" width="77.3" height="99.5" fill="#558592"/>
<rect x="577.5" y="212.5" width="6" height="8" fill="#91b0b8" opacity="0.5"/>
<rect x="591.5" y="212.5" width="6" height="8" fill="#91b0b8" opacity="0.5"/>
<rect x="563.5" y="228.5" width="6" height="8" fill="#91b0b8" opacity="0.5"/>
<rect x="577.5" y="228.5" width="6" height="8" fill="#91b0b8" opacity="0.5"/>
<rect x="591.5" y="228.5" width="6" height="8" fill="#91b0b8" opacity="0.5"/>
<rect x="605.5" y="228.5" width="6" height="8" fill="#91b0b8" opacity="0.5"/>
<rect x="577.5" y="244.5" width="6" height="8" fill="#91b0b8" opacity="0.5"/>
<rect x="591.5" y="244.5" width="6" height="8" fill="#91b0b8" opacity="0.5"/>
<rect x="605.5" y="244.5" width="6" height="8" fill="#91b0b8" opacity="0.5"/>
<rect x="577.5" y="260.5" width="6" height="8" fill="#91b0b8" opacity="0.5"/>
<rect x="591.5" y="260.5" width="6" height="8" fill="#91b0b8" opacity="0.5"/>
<rect x="605.5" y="260.5" width="6" height="8" fill="#91b0b8" opacity="0.5"/>
<rect x="769.4" y="170.4" width="50.4" height="129.6" fill="#558592"/>
<rect x="798.6" y="182.4" width="6" height="8" fill="#91b0b8" opacity="0.5"/>
<rect x="784.6" y="214.4" width="6" height="8" fill="#91b0b8" opacity="0.5"/>
<rect x="798.6" y="214.4" width="6" height="8" fill="#91b0b8" opacity="0.5"/>
<rect x="784.6" y="230.4" width="6" height="8" fill="#91b0b8" opacity="0.5"/>
<rect x="784.6" y="246.4" width="6" height="8" fill="#91b0b8" opacity="0.5"/>
<rect x="798.6" y="246.4" width="6" height="8" fill="#91b0b8" opacity="0.5"/>
<rect x="784.6" y="262.4" width="6" height="8" fill="#91b0b8" opacity="0.5"/>
<rect x="798.6" y="262.4" width="6" height="8" fill="#91b0b8" opacity="0.5"/>
<rect x="1045.0" y="166.5" width="54.7" height="133.5" fill="#558592"/>
<rect x="1062.3" y="178.5" width="6" height="8" fill="#91b0b8" opacity="0.5"/>
<rect x="1076.3" y="178.5" width="6" height="8" fill="#91b0b8" opacity="0.5"/>
<rect x="1062.3" y="194.5" width="6" height="8" fill="#91b0b8" opacity="0.5"/>
<rect x="1062.3" y="210.5" width="6" height="8" fill="#91b0b8" opacity="0.5"/>
<rect x="1062.3" y="226.5" width="6" height="8" fill="#91b0b8" opacity="0.5"/>
<rect x="1076.3" y="226.5" width="6" height="8" fill="#91b0b8" opacity="0.5"/>
<rect x="1062.3" y="242.5" width="6" height="8" fill="#91b0b8" opacity="0.5"/>
<rect x="1062.3" y="258.5" width="6" height="8" fill="#91b0b8" opacity="0.5"/>
<rect x="1076.3" y="258.5" width="6" height="8" fill="#91b0b8" opacity="0.5"/>
<rect x="148.8" y="206.9" width="66.5" height="93.1" fill="#2b6777"/>
<rect x="165.1" y="218.9" width="6" height="8" fill="#759ca7" opacity="0.5"/>
<rect x="179.1" y="218.9" width="6" height="8" fill="#759ca7" opacity="0.5"/>
<rect x="165.1" y="234.9" width="6" height="8" fill="#759ca7" opacity="0.5"/>
<rect x="193.1" y="234.9" width="6" height="8" fill="#759ca7" opacity="0.5"/>
<rect x="165.1" y="250.9" width="6" height="8" fill="#759ca7" opacity="0.5"/>
<rect x="193.1" y="250.9" width="6" height="8" fill="#759ca7" opacity="0.5"/>
<rect x="179.1" y="266.9" width="6" height="8" fill="#759ca7" opacity="0.5"/>
<rect x="193.1" y="266.9" width="6" height="8" fill="#759ca7" opacity="0.5"/>
<rect x="439.5" y="159.8" width="61.0" height="140.2" fill="#2b6777"/>
<rect x="453.0" y="171.8" width="6" height="8" fill="#759ca7" opacity="0.5"/>
<rect x="467.0" y="171.8" width="6" height="8" fill="#759ca7" opacity="0.5"/>
<rect x="481.0" y="171.8" width="6" height="8" fill="#759ca7" opacity="0.5"/>
<rect x="453.0" y="187.8" width="6" height="8" fill="#759ca7" opacity="0.5"/>
<rect x="481.0" y="187.8" width="6" height="8" fill="#759ca7" opacity="0.5"/>
<rect x="453.0" y="203.8" width="6" height="8" fill="#759ca7" opacity="0.5"/>
<rect x="467.0" y="203.8" width="6" height="8" fill="#759ca7" opacity="0.5"/>
<rect x="481.0" y="203.8" width="6" height="8" fill="#759ca7" opacity="0.5"/>
<rect x="467.0" y="219.8" width="6" height="8" fill="#759ca7" opacity="0.5"/>
<rect x="481.0" y="219.8" width="6" height="8" fill="#759ca7" opacity="0.5"/>
<rect x="467.0" y="235.8" width="6" height="8" fill="#759ca7" opacity="0.5"/>
<rect x="481.0" y="235.8" width="6" height="8" fill="#759ca7" opacity="0.5"/>
<rect x="453.0" y="251.8" width="6" height="8" fill="#759ca7" opacity="0.5"/>
<rect x="467.0" y="251.8" width="6" height="8" fill="#759ca7" opacity="0.5"/>
<rect x="481.0" y="251.8" width="6" height="8" fill="#759ca7" opacity="0.5"/>
<rect x="453.0" y="267.8" width="6" height="8" fill="#759ca7" opacity="0.5"/>
<rect x="467.0" y="267.8" width="6" height="8" fill="#759ca7" opacity="0.5"/>
<rect x="481.0" y="267.8" width="6" height="8" fill="#759ca7" opacity="0.5"/>
<rect x="677.1" y="208.8" width="52.4" height="91.2" fill="#2b6777"/>
<rect x="693.3" y="220.8" width="6" height="8" fill="#759ca7" opacity="0.5"/>
<rect x="693.3" y="236.8" width="6" height="8" fill="#759ca7" opacity="0.5"/>
<rect x="707.3" y="236.8" width="6" height="8" fill="#759ca7" opacity="0.5"/>
<rect x="693.3" y="268.8" width="6" height="8" fill="#759ca7" opacity="0.5"/>
<rect x="976.0" y="162.6" width="63.3" height="137.4" fill="#2b6777"/>
<rect x="990.6" y="174.6" width="6" height="8" fill="#759ca7" opacity="0.5"/>
<rect x="1004.6" y="174.6" width="6" height="8" fill="#759ca7" opacity="0.5"/>
<rect x="1018.6" y="174.6" width="6" height="8" fill="#759ca7" opacity="0.5"/>
<rect x="990.6" y="190.6" width="6" height="8" fill="#759ca7" opacity="0.5"/>
<rect x="1004.6" y="190.6" width="6" height="8" fill="#759ca7" opacity="0.5"/>
<rect x="1018.6" y="190.6" width="6" height="8" fill="#759ca7" opacity="0.5"/>
<rect x="990.6" y="206.6" width="6" height="8" fill="#759ca7" opacity="0.5"/>
<rect x="1018.6" y="206.6" width="6" height="8" fill="#759ca7" opacity="0.5"/>
<rect x="990.6" y="222.6" width="6" height="8" fill="#759ca7" opacity="0.5"/>
<rect x="1004.6" y="222.6" width="6" height="8" fill="#759ca7" opacity="0.5"/>
<rect x="1018.6" y="222.6" width="6" height="8" fill="#759ca7" opacity="0.5"/>
<rect x="1004.6" y="238.6" width="6" height="8" fill="#759ca7" opacity="0.5"/>
<rect x="1004.6" y="254.6" width="6" height="8" fill="#759ca7" opacity="0.5"/>
<rect x="1018.6" y="254.6" width="6" height="8" fill="#759ca7" opacity="0.5"/>
<rect x="990.6" y="270.6" width="6" height="8" fill="#759ca7" opacity="0.5"/>
<rect x="1004.6" y="270.6" width="6" height="8" fill="#759ca7" opacity="0.5"/>
<rect x="1018.6" y="270.6" width="6" height="8" fill="#759ca7" opacity="0.5"/>
<rect x="0" y="298" width="1200" height="2" fill="#275d6b" opacity="0.15"/>
</svg>