<svg xmlns="http://www.w3.org/2000/svg" viewBox="0 0 1200 400" width="1200" height="400">
<defs>
<linearGradient id="bg" x1="0" y1="0" x2="0" y2="1"><stop offset="0%" stop-color="#94a3b8"/><stop offset="100%" stop-color="#0369a1"/></linearGradient>
<linearGradient id="warm" x1="0" y1="0" x2="1" y2="1"><stop offset="0%" stop-color="#d79931" stop-opacity="0.18"/><stop offset="100%" stop-color="#d79931" stop-opacity="0.06"/></linearGradient>
</defs>
<rect width="1200" height="400" fill="url(#bg)"/>
<path d="M0 400 L0 250.77981290007932 C60.0 251.6, 90.0 231.7, 150.0 238.7 C210.0 232.0, 240.0 222.4, 300.0 226.9 C360.0 219.5, 390.0 246.8, 450.0 238.6 C510.0 241.5, 540.0 264.7, 600.0 259.1 C660.0 257.4, 690.0 246.6, 750.0 242.8 C810.0 242.9, 840.0 248.8, 900.0 242.6 C960.0 240.4, 990.0 246.8, 1050.0 247.5 C1110.0 247.9, 1140.0 264.3, 1200.0 254.4 L1200 400 Z" fill="#367da9" opacity="0.45"/>
<path d="M0 400 L0 275.5344839306429 C52.5 272.0, 97.5 274.4, 150.0 273.5 C202.5 275.3, 247.5 276.2, 300.0 277.2 C352.5 284.6, 397.5 259.8, 450.0 266.3 C502.5 267.2, 547.5 262.1, 600.0 267.2 C652.5 271.9, 697.5 262.8, 750.0 261.4 C802.5 268.8, 847.5 267.8, 900.0 267.5 C952.5 260.2, 997.5 258.5, 1050.0 265.0 C1102.5 261.2, 1147.5 280.6, 1200.0 284.4 L1200 400 Z" fill="#0369a1" opacity="0.3"/>
<rect x="348.8" y="330.1" width="17.9" height="69.9" rx="4.2" fill="#058f71" opacity="0.60"/>
<rect x="448.9" y="277.7" width="48.2" height="122.3" rx="3.9" fill="#059669" opacity="0.52"/>
<rect x="453.9" y="287.7" width="4" height="5" rx="0.5" fill="#94a3b8" opacity="0.6"/>
<rect x="470.0" y="287.7" width="4" height="5" rx="0.5" fill="#94a3b8" opacity="0.6"/>
<rect x="453.9" y="309.7" width="4" height="5" rx="0.5" fill="#94a3b8" opacity="0.6"/>
<rect x="470.0" y="331.7" width="4" height="5" rx="0.5" fill="#94a3b8" opacity="0.6"/>
<rect x="470.0" y="353.7" width="4" height="5" rx="0.5" fill="#94a3b8" opacity="0.6"/>
<rect x="761.8" y="313.9" width="49.2" height="86.1" rx="7.7" fill="#04867d" opacity="0.58"/>
<rect x="836.1" y="354.5" width="30.9" height="45.5" rx="6.5" fill="#04857f" opacity="0.61"/>
<rect x="317.3" y="343.9" width="21.5" height="56.1" rx="6.9" fill="#048a78" opacity="0.80"/>
<rect x="695.8" y="281.8" width="26.5" height="118.2" rx="5.3" fill="#058d74" opacity="0.72"/>
<rect x="826.6" y="350.7" width="47.3" height="49.3" rx="3.9" fill="#047e87" opacity="0.77"/>
<rect x="1015.4" y="295.4" width="25.5" height="104.6" rx="3.4" fill="#059170" opacity="0.74"/>
<rect x="267.7" y="309.8" width="42.6" height="90.2" rx="3.7" fill="#058e73" opacity="0.51"/>
<rect x="643.0" y="371.8" width="21.1" height="28.2" rx="6.2" fill="#04887a" opacity="0.74"/>
<rect x="190.0" y="339.6" width="41.2" height="60.4" rx="5.8" fill="#059071" opacity="0.80"/>
<rect x="548.9" y="345.5" width="12.6" height="54.5" rx="7.2" fill="#047f86" opacity="0.64"/>
<circle cx="517.4" cy="146.6" r="6.1" fill="#059669" opacity="0.36"/>
<circle cx="276.6" cy="15.1" r="10.1" fill="#059669" opacity="0.25"/>
<rect width="1200" height="400" fill="url(#warm)"/>
<rect width="1200" height="400" fill="#94a3b8" opacity="0.38"/>
</svg>