<svg xmlns="http://www.w3.org/2000/svg" viewBox="0 0 1200 300" width="1200" height="300">
<defs>
<linearGradient id="skyGrad" x1="0" y1="0" x2="0" y2="1">
<stop offset="0%" stop-color="#a78bfa"/>
<stop offset="18%" stop-color="#ddb4f0"/>
<stop offset="35%" stop-color="#fda4af"/>
<stop offset="52%" stop-color="#fdba74"/>
<stop offset="72%" stop-color="#fef08a"/>
<stop offset="100%" stop-color="#fef9c3"/>
</linearGradient>
<linearGradient id="bldg_coral" x1="0" y1="0" x2="0" y2="1"><stop offset="0%" stop-color="#fecaca"/><stop offset="100%" stop-color="#fca5a5"/></linearGradient>
<linearGradient id="bldg_teal" x1="0" y1="0" x2="0" y2="1"><stop offset="0%" stop-color="#99f6e4"/><stop offset="100%" stop-color="#5eead4"/></linearGradient>
<linearGradient id="bldg_amber" x1="0" y1="0" x2="0" y2="1"><stop offset="0%" stop-color="#fde68a"/><stop offset="100%" stop-color="#fcd34d"/></linearGradient>
<linearGradient id="bldg_lavender" x1="0" y1="0" x2="0" y2="1"><stop offset="0%" stop-color="#ddd6fe"/><stop offset="100%" stop-color="#c4b5fd"/></linearGradient>
<linearGradient id="bldg_blue" x1="0" y1="0" x2="0" y2="1"><stop offset="0%" stop-color="#bfdbfe"/><stop offset="100%" stop-color="#93c5fd"/></linearGradient>
<linearGradient id="bldg_mint" x1="0" y1="0" x2="0" y2="1"><stop offset="0%" stop-color="#a7f3d0"/><stop offset="100%" stop-color="#6ee7b7"/></linearGradient>
<linearGradient id="bldg_rose" x1="0" y1="0" x2="0" y2="1"><stop offset="0%" stop-color="#fecdd3"/><stop offset="100%" stop-color="#fda4af"/></linearGradient>
<linearGradient id="bldg_sky" x1="0" y1="0" x2="0" y2="1"><stop offset="0%" stop-color="#bae6fd"/><stop offset="100%" stop-color="#7dd3fc"/></linearGradient>
<linearGradient id="roof_navyRoof" x1="0" y1="0" x2="0" y2="1"><stop offset="0%" stop-color="#4338ca"/><stop offset="100%" stop-color="#3730a3"/></linearGradient>
<linearGradient id="roof_coralRoof" x1="0" y1="0" x2="0" y2="1"><stop offset="0%" stop-color="#f87171"/><stop offset="100%" stop-color="#ef4444"/></linearGradient>
<linearGradient id="roof_tealRoof" x1="0" y1="0" x2="0" y2="1"><stop offset="0%" stop-color="#2dd4bf"/><stop offset="100%" stop-color="#14b8a6"/></linearGradient>
<radialGradient id="windowGlow" cx="50%" cy="50%" r="50%"><stop offset="0%" stop-color="#fef08a"/><stop offset="60%" stop-color="#fbbf24"/><stop offset="100%" stop-color="#f59e0b"/></radialGradient>
<linearGradient id="hillFar" x1="0" y1="0" x2="0" y2="1"><stop offset="0%" stop-color="#c4b5fd"/><stop offset="100%" stop-color="#a5b4fc"/></linearGradient>
<linearGradient id="hillMid" x1="0" y1="0" x2="0" y2="1"><stop offset="0%" stop-color="#86efac"/><stop offset="100%" stop-color="#4ade80"/></linearGradient>
<linearGradient id="hillNear" x1="0" y1="0" x2="0" y2="1"><stop offset="0%" stop-color="#34d399"/><stop offset="100%" stop-color="#10b981"/></linearGradient>
<linearGradient id="hillDesertFar" x1="0" y1="0" x2="0" y2="1"><stop offset="0%" stop-color="#fde68a"/><stop offset="100%" stop-color="#fcd34d"/></linearGradient>
<linearGradient id="hillDesertMid" x1="0" y1="0" x2="0" y2="1"><stop offset="0%" stop-color="#fcd34d"/><stop offset="100%" stop-color="#fbbf24"/></linearGradient>
<linearGradient id="hillDesertNear" x1="0" y1="0" x2="0" y2="1"><stop offset="0%" stop-color="#fbbf24"/><stop offset="100%" stop-color="#f59e0b"/></linearGradient>
<linearGradient id="groundGrad" x1="0" y1="0" x2="0" y2="1"><stop offset="0%" stop-color="#fef3c7"/><stop offset="100%" stop-color="#fde68a"/></linearGradient>
<linearGradient id="waterGrad" x1="0" y1="0" x2="0" y2="1"><stop offset="0%" stop-color="#bfdbfe"/><stop offset="100%" stop-color="#93c5fd"/></linearGradient>
<filter id="softGlow" x="-50%" y="-50%" width="200%" height="200%"><feGaussianBlur in="SourceGraphic" stdDeviation="12"/></filter>
</defs>
<rect width="1200" height="300" fill="url(#skyGrad)"/>
<circle cx="1045.9" cy="55.1" r="45" fill="#fef08a" opacity="0.12" filter="url(#softGlow)"/>
<circle cx="1045.9" cy="55.1" r="30" fill="#fde68a" opacity="0.18" filter="url(#softGlow)"/>
<circle cx="1045.9" cy="55.1" r="16" fill="#fef9c3" opacity="0.25" filter="url(#softGlow)"/>
<path d="M0 300 L0.0 189.3 C222.2 189.3, 222.2 194.4, 444.4 194.4 C623.3 194.4, 623.3 189.7, 802.2 189.7 C1001.1 189.7, 1001.1 185.8, 1200.0 185.8 L1200 300 Z" fill="url(#hillFar)" opacity="0.5"/>
<path d="M0 300 L0.0 217.0 C194.6 217.0, 194.6 203.2, 389.2 203.2 C569.8 203.2, 569.8 202.6, 750.5 202.6 C975.3 202.6, 975.3 206.1, 1200.0 206.1 L1200 300 Z" fill="url(#hillMid)" opacity="0.7"/>
<path d="M0 300 L0.0 225.2 C161.2 225.2, 161.2 236.7, 322.4 236.7 C546.8 236.7, 546.8 228.8, 771.3 228.8 C985.6 228.8, 985.6 238.7, 1200.0 238.7 L1200 300 Z" fill="url(#hillNear)" opacity="1"/>
<rect x="501.8" y="233.7" width="45.3" height="66.3" rx="3" fill="url(#bldg_lavender)" opacity="0.7"/>
<rect x="510.9" y="225.8" width="27.2" height="8.0" rx="2" fill="url(#roof_navyRoof)" opacity="0.7"/>
<rect x="514.5" y="243.7" width="6" height="8" rx="1" fill="url(#windowGlow)" opacity="0.963270554488185"/>
<rect x="528.5" y="243.7" width="6" height="8" rx="1" fill="url(#windowGlow)" opacity="0.9665295873612769"/>
<rect x="514.5" y="258.7" width="6" height="8" rx="1" fill="url(#windowGlow)" opacity="0.740894036991938"/>
<rect x="528.5" y="258.7" width="6" height="8" rx="1" fill="url(#windowGlow)" opacity="0.886930046457299"/>
<rect x="606.6" y="235.9" width="59.1" height="64.1" rx="3" fill="url(#bldg_blue)" opacity="0.85"/>
<polygon points="606.6,235.9 636.1,215.5 665.7,235.9" fill="url(#roof_coralRoof)" opacity="0.85"/>
<rect x="633.1" y="245.9" width="6" height="8" rx="1" fill="url(#windowGlow)" opacity="0.955343242853574"/>
<rect x="633.1" y="260.9" width="6" height="8" rx="1" fill="url(#windowGlow)" opacity="0.8864516771335395"/>
<path d="M612.5 258.3 L636.1 258.3 L633.1 264.3 L615.5 264.3 Z" fill="url(#roof_navyRoof)" opacity="0.68"/>
<rect x="586.2" y="211.3" width="55.3" height="88.7" rx="3" fill="url(#bldg_mint)" opacity="1"/>
<polygon points="586.2,211.3 613.9,194.4 641.5,211.3" fill="url(#roof_tealRoof)" opacity="1"/>
<rect x="617.9" y="221.3" width="6" height="8" rx="1" fill="url(#windowGlow)" opacity="0.9343266102645204"/>
<rect x="603.9" y="251.3" width="6" height="8" rx="1" fill="url(#windowGlow)" opacity="0.8701222495036769"/>
<rect x="617.9" y="251.3" width="6" height="8" rx="1" fill="url(#windowGlow)" opacity="0.8893624927799042"/>
<rect x="608.9" y="284.0" width="10" height="16" rx="2" fill="url(#roof_navyRoof)" opacity="0.8"/>
<rect x="610.9" y="287.0" width="6" height="10" rx="1" fill="url(#windowGlow)" opacity="0.45"/>
<path d="M558.5 285.0 Q573.5 261.8 567.5 238.7" stroke="#92400e" stroke-width="4" fill="none" stroke-linecap="round"/>
<path d="M567.5 238.7 Q557.6 228.5 551.1 229.6" stroke="#16a34a" stroke-width="2.5" fill="none" stroke-linecap="round"/>
<path d="M567.5 238.7 Q573.0 227.0 576.8 226.3" stroke="#22c55e" stroke-width="2.5" fill="none" stroke-linecap="round"/>
<path d="M567.5 238.7 Q584.4 232.7 595.6 238.7" stroke="#15803d" stroke-width="2.5" fill="none" stroke-linecap="round"/>
<path d="M567.5 238.7 Q574.3 239.6 578.9 253.9" stroke="#4ade80" stroke-width="2.5" fill="none" stroke-linecap="round"/>
<path d="M567.5 238.7 Q553.9 238.3 544.8 251.1" stroke="#16a34a" stroke-width="2.5" fill="none" stroke-linecap="round"/>
<path d="M684.3 285.0 Q696.6 259.1 691.7 233.2" stroke="#92400e" stroke-width="4" fill="none" stroke-linecap="round"/>
<path d="M691.7 233.2 Q681.8 223.1 675.2 224.2" stroke="#16a34a" stroke-width="2.5" fill="none" stroke-linecap="round"/>
<path d="M691.7 233.2 Q698.9 220.0 703.7 217.2" stroke="#22c55e" stroke-width="2.5" fill="none" stroke-linecap="round"/>
<path d="M691.7 233.2 Q709.7 227.2 721.8 233.2" stroke="#15803d" stroke-width="2.5" fill="none" stroke-linecap="round"/>
<path d="M691.7 233.2 Q698.9 234.4 703.7 249.1" stroke="#4ade80" stroke-width="2.5" fill="none" stroke-linecap="round"/>
<path d="M691.7 233.2 Q678.4 232.8 669.5 245.4" stroke="#16a34a" stroke-width="2.5" fill="none" stroke-linecap="round"/>
<path d="M399.1 285.0 Q422.8 262.1 413.3 239.2" stroke="#92400e" stroke-width="4" fill="none" stroke-linecap="round"/>
<path d="M413.3 239.2 Q403.5 229.1 396.9 230.2" stroke="#16a34a" stroke-width="2.5" fill="none" stroke-linecap="round"/>
<path d="M413.3 239.2 Q418.4 228.1 421.7 228.1" stroke="#22c55e" stroke-width="2.5" fill="none" stroke-linecap="round"/>
<path d="M413.3 239.2 Q433.5 233.2 446.9 239.2" stroke="#15803d" stroke-width="2.5" fill="none" stroke-linecap="round"/>
<path d="M413.3 239.2 Q418.0 237.9 421.1 249.6" stroke="#4ade80" stroke-width="2.5" fill="none" stroke-linecap="round"/>
<path d="M413.3 239.2 Q402.0 237.9 394.4 249.6" stroke="#16a34a" stroke-width="2.5" fill="none" stroke-linecap="round"/>
<path d="M1006.6 285.0 Q1022.5 261.4 1016.2 237.9" stroke="#92400e" stroke-width="4" fill="none" stroke-linecap="round"/>
<path d="M1016.2 237.9 Q1007.3 228.2 1001.4 229.8" stroke="#16a34a" stroke-width="2.5" fill="none" stroke-linecap="round"/>
<path d="M1016.2 237.9 Q1023.4 224.6 1028.2 221.9" stroke="#22c55e" stroke-width="2.5" fill="none" stroke-linecap="round"/>
<path d="M1016.2 237.9 Q1031.8 231.9 1042.3 237.9" stroke="#15803d" stroke-width="2.5" fill="none" stroke-linecap="round"/>
<path d="M1016.2 237.9 Q1021.4 237.1 1024.8 249.4" stroke="#4ade80" stroke-width="2.5" fill="none" stroke-linecap="round"/>
<path d="M1016.2 237.9 Q1005.7 236.3 998.7 247.5" stroke="#16a34a" stroke-width="2.5" fill="none" stroke-linecap="round"/>
<path d="M1043.7 285.0 Q1066.2 259.8 1057.2 234.5" stroke="#92400e" stroke-width="4" fill="none" stroke-linecap="round"/>
<path d="M1057.2 234.5 Q1043.2 222.7 1033.8 221.7" stroke="#16a34a" stroke-width="2.5" fill="none" stroke-linecap="round"/>
<path d="M1057.2 234.5 Q1064.6 221.1 1069.5 218.2" stroke="#22c55e" stroke-width="2.5" fill="none" stroke-linecap="round"/>
<path d="M1057.2 234.5 Q1076.2 228.5 1088.8 234.5" stroke="#15803d" stroke-width="2.5" fill="none" stroke-linecap="round"/>
<path d="M1057.2 234.5 Q1064.1 235.5 1068.6 249.8" stroke="#4ade80" stroke-width="2.5" fill="none" stroke-linecap="round"/>
<path d="M1057.2 234.5 Q1047.5 232.6 1041.1 243.4" stroke="#16a34a" stroke-width="2.5" fill="none" stroke-linecap="round"/>
<path d="M797.2 285.0 Q811.5 254.3 805.8 223.6" stroke="#92400e" stroke-width="4" fill="none" stroke-linecap="round"/>
<path d="M805.8 223.6 Q795.7 213.4 788.9 214.3" stroke="#16a34a" stroke-width="2.5" fill="none" stroke-linecap="round"/>
<path d="M805.8 223.6 Q812.2 211.2 816.5 209.4" stroke="#22c55e" stroke-width="2.5" fill="none" stroke-linecap="round"/>
<path d="M805.8 223.6 Q821.3 217.6 831.6 223.6" stroke="#15803d" stroke-width="2.5" fill="none" stroke-linecap="round"/>
<path d="M805.8 223.6 Q812.8 224.6 817.4 239.0" stroke="#4ade80" stroke-width="2.5" fill="none" stroke-linecap="round"/>
<path d="M805.8 223.6 Q795.8 221.8 789.1 232.8" stroke="#16a34a" stroke-width="2.5" fill="none" stroke-linecap="round"/>
<path d="M292.8 285.0 Q313.6 262.6 305.2 240.2" stroke="#92400e" stroke-width="4" fill="none" stroke-linecap="round"/>
<path d="M305.2 240.2 Q293.5 229.3 285.7 229.5" stroke="#16a34a" stroke-width="2.5" fill="none" stroke-linecap="round"/>
<path d="M305.2 240.2 Q309.9 229.5 313.1 229.9" stroke="#22c55e" stroke-width="2.5" fill="none" stroke-linecap="round"/>
<path d="M305.2 240.2 Q320.7 234.2 330.9 240.2" stroke="#15803d" stroke-width="2.5" fill="none" stroke-linecap="round"/>
<path d="M305.2 240.2 Q312.9 242.0 318.1 257.3" stroke="#4ade80" stroke-width="2.5" fill="none" stroke-linecap="round"/>
<path d="M305.2 240.2 Q292.2 239.7 283.4 252.2" stroke="#16a34a" stroke-width="2.5" fill="none" stroke-linecap="round"/>
<path d="M50.2 285.0 Q77.7 259.0 66.7 233.1" stroke="#92400e" stroke-width="4" fill="none" stroke-linecap="round"/>
<path d="M66.7 233.1 Q54.1 221.8 45.7 221.5" stroke="#16a34a" stroke-width="2.5" fill="none" stroke-linecap="round"/>
<path d="M66.7 233.1 Q71.7 222.0 75.1 221.9" stroke="#22c55e" stroke-width="2.5" fill="none" stroke-linecap="round"/>
<path d="M66.7 233.1 Q79.0 227.1 87.3 233.1" stroke="#15803d" stroke-width="2.5" fill="none" stroke-linecap="round"/>
<path d="M66.7 233.1 Q73.6 234.0 78.2 248.3" stroke="#4ade80" stroke-width="2.5" fill="none" stroke-linecap="round"/>
<path d="M66.7 233.1 Q57.0 231.1 50.6 241.9" stroke="#16a34a" stroke-width="2.5" fill="none" stroke-linecap="round"/>
<path d="M312.8 285.0 Q337.0 258.1 327.3 231.1" stroke="#92400e" stroke-width="4" fill="none" stroke-linecap="round"/>
<path d="M327.3 231.1 Q316.2 220.5 308.9 221.0" stroke="#16a34a" stroke-width="2.5" fill="none" stroke-linecap="round"/>
<path d="M327.3 231.1 Q333.5 218.9 337.6 217.5" stroke="#22c55e" stroke-width="2.5" fill="none" stroke-linecap="round"/>
<path d="M327.3 231.1 Q345.0 225.1 356.7 231.1" stroke="#15803d" stroke-width="2.5" fill="none" stroke-linecap="round"/>
<path d="M327.3 231.1 Q334.2 232.1 338.8 246.4" stroke="#4ade80" stroke-width="2.5" fill="none" stroke-linecap="round"/>
<path d="M327.3 231.1 Q315.0 230.3 306.8 242.4" stroke="#16a34a" stroke-width="2.5" fill="none" stroke-linecap="round"/>
<rect x="0" y="282" width="1200" height="18" fill="url(#groundGrad)"/>
</svg>