<svg xmlns="http://www.w3.org/2000/svg" viewBox="0 0 1200 400" width="1200" height="400">
<defs>
<linearGradient id="bg" x1="0" y1="0" x2="0" y2="1"><stop offset="0%" stop-color="#d4a76a"/><stop offset="100%" stop-color="#ea580c"/></linearGradient>
<linearGradient id="warm" x1="0" y1="0" x2="1" y2="1"><stop offset="0%" stop-color="#6e8ab6" stop-opacity="0.18"/><stop offset="100%" stop-color="#6e8ab6" stop-opacity="0.06"/></linearGradient>
</defs>
<rect width="1200" height="400" fill="url(#bg)"/>
<path d="M0 400 L0 255.4589348017258 C60.0 247.1, 90.0 254.7, 150.0 255.8 C210.0 263.6, 240.0 231.0, 300.0 235.9 C360.0 244.6, 390.0 255.4, 450.0 245.7 C510.0 255.5, 540.0 245.6, 600.0 253.4 C660.0 243.9, 690.0 227.0, 750.0 229.9 C810.0 238.1, 840.0 238.6, 900.0 246.5 C960.0 237.2, 990.0 227.2, 1050.0 237.0 C1110.0 231.6, 1140.0 265.9, 1200.0 259.1 L1200 400 Z" fill="#e2742d" opacity="0.45"/>
<path d="M0 400 L0 275.7064338994454 C52.5 282.5, 97.5 285.0, 150.0 279.4 C202.5 274.9, 247.5 279.7, 300.0 273.9 C352.5 276.5, 397.5 270.9, 450.0 276.3 C502.5 278.3, 547.5 279.2, 600.0 277.4 C652.5 273.7, 697.5 286.2, 750.0 279.3 C802.5 271.9, 847.5 278.3, 900.0 274.1 C952.5 279.3, 997.5 260.5, 1050.0 265.4 C1102.5 258.6, 1147.5 281.1, 1200.0 276.8 L1200 400 Z" fill="#ea580c" opacity="0.3"/>
<rect x="1051.2" y="367.7" width="35.6" height="32.3" rx="5.8" fill="#418388" opacity="0.75"/>
<rect x="869.8" y="284.5" width="13.4" height="115.5" rx="3.7" fill="#238a9e" opacity="0.71"/>
<rect x="874.8" y="294.5" width="4" height="5" rx="0.5" fill="#d4a76a" opacity="0.6"/>
<rect x="874.8" y="316.5" width="4" height="5" rx="0.5" fill="#d4a76a" opacity="0.6"/>
<rect x="874.8" y="338.5" width="4" height="5" rx="0.5" fill="#d4a76a" opacity="0.6"/>
<rect x="849.5" y="349.9" width="32.4" height="50.1" rx="4.6" fill="#7d735c" opacity="0.81"/>
<rect x="128.8" y="352.8" width="37.7" height="47.2" rx="4.2" fill="#238a9e" opacity="0.56"/>
<rect x="680.1" y="345.5" width="20.7" height="54.5" rx="6.6" fill="#7c745d" opacity="0.66"/>
<rect x="905.9" y="352.2" width="12.6" height="47.8" rx="6.6" fill="#757562" opacity="0.78"/>
<rect x="343.5" y="313.7" width="18.6" height="86.3" rx="3.7" fill="#8c7051" opacity="0.51"/>
<rect x="178.7" y="353.5" width="20.8" height="46.5" rx="7.1" fill="#438286" opacity="0.57"/>
<rect x="680.4" y="338.1" width="24.8" height="61.9" rx="7.7" fill="#7e735b" opacity="0.79"/>
<rect x="966.4" y="355.8" width="38.9" height="44.2" rx="3.6" fill="#2d8897" opacity="0.70"/>
<rect x="367.5" y="305.8" width="27.6" height="94.2" rx="3.6" fill="#4a8081" opacity="0.69"/>
<circle cx="487.7" cy="232.2" r="10.0" fill="#d4a76a" opacity="0.29"/>
<circle cx="836.7" cy="32.8" r="3.4" fill="#0891b2" opacity="0.36"/>
<circle cx="647.3" cy="162.7" r="6.9" fill="#d4a76a" opacity="0.30"/>
<rect width="1200" height="400" fill="url(#warm)"/>
<rect width="1200" height="400" fill="#d4a76a" opacity="0.45"/>
</svg>