<svg xmlns="http://www.w3.org/2000/svg" viewBox="0 0 1200 400" width="1200" height="400">
<defs>
<linearGradient id="bg" x1="0" y1="0" x2="0" y2="1"><stop offset="0%" stop-color="#94a3b8"/><stop offset="100%" stop-color="#0369a1"/></linearGradient>
<linearGradient id="warm" x1="0" y1="0" x2="1" y2="1"><stop offset="0%" stop-color="#8f8f8c" stop-opacity="0.18"/><stop offset="100%" stop-color="#8f8f8c" stop-opacity="0.06"/></linearGradient>
</defs>
<rect width="1200" height="400" fill="url(#bg)"/>
<path d="M0 400 L0 233.17927807205058 C60.0 240.5, 90.0 249.3, 150.0 254.7 C210.0 253.7, 240.0 222.4, 300.0 227.4 C360.0 230.1, 390.0 232.5, 450.0 233.0 C510.0 242.4, 540.0 246.0, 600.0 249.3 C660.0 250.0, 690.0 240.9, 750.0 242.1 C810.0 250.0, 840.0 211.8, 900.0 221.5 C960.0 230.7, 990.0 210.7, 1050.0 218.5 C1110.0 216.2, 1140.0 234.0, 1200.0 224.4 L1200 400 Z" fill="#367da9" opacity="0.45"/>
<path d="M0 400 L0 276.71014011870346 C52.5 269.2, 97.5 280.3, 150.0 276.0 C202.5 272.2, 247.5 262.8, 300.0 256.2 C352.5 256.4, 397.5 255.2, 450.0 259.4 C502.5 254.2, 547.5 255.9, 600.0 258.5 C652.5 256.6, 697.5 271.2, 750.0 264.5 C802.5 257.1, 847.5 281.2, 900.0 278.3 C952.5 274.2, 997.5 260.9, 1050.0 264.3 C1102.5 270.8, 1147.5 254.4, 1200.0 261.1 L1200 400 Z" fill="#0369a1" opacity="0.3"/>
<rect x="376.4" y="352.9" width="29.9" height="47.1" rx="7.9" fill="#05926e" opacity="0.63"/>
<rect x="619.1" y="331.9" width="44.7" height="68.1" rx="5.6" fill="#047d89" opacity="0.61"/>
<rect x="658.4" y="276.7" width="44.3" height="123.3" rx="5.1" fill="#048281" opacity="0.68"/>
<rect x="663.4" y="286.7" width="4" height="5" rx="0.5" fill="#94a3b8" opacity="0.6"/>
<rect x="678.1" y="308.7" width="4" height="5" rx="0.5" fill="#94a3b8" opacity="0.6"/>
<rect x="678.1" y="352.7" width="4" height="5" rx="0.5" fill="#94a3b8" opacity="0.6"/>
<rect x="688.7" y="318.0" width="32.1" height="82.0" rx="6.5" fill="#04887a" opacity="0.71"/>
<rect x="693.7" y="328.0" width="4" height="5" rx="0.5" fill="#94a3b8" opacity="0.6"/>
<rect x="704.4" y="328.0" width="4" height="5" rx="0.5" fill="#94a3b8" opacity="0.6"/>
<rect x="693.7" y="350.0" width="4" height="5" rx="0.5" fill="#94a3b8" opacity="0.6"/>
<rect x="693.7" y="372.0" width="4" height="5" rx="0.5" fill="#94a3b8" opacity="0.6"/>
<rect x="704.4" y="372.0" width="4" height="5" rx="0.5" fill="#94a3b8" opacity="0.6"/>
<rect x="898.5" y="345.2" width="17.2" height="54.8" rx="4.8" fill="#059071" opacity="0.68"/>
<rect x="629.0" y="334.6" width="19.4" height="65.4" rx="7.5" fill="#05956b" opacity="0.76"/>
<rect x="404.3" y="345.6" width="14.5" height="54.4" rx="3.1" fill="#058c75" opacity="0.66"/>
<rect x="870.1" y="319.0" width="42.5" height="81.0" rx="7.3" fill="#059669" opacity="0.78"/>
<rect x="252.1" y="332.6" width="49.8" height="67.4" rx="4.7" fill="#048b77" opacity="0.65"/>
<rect x="911.5" y="260.3" width="32.7" height="139.7" rx="4.4" fill="#058d75" opacity="0.50"/>
<rect x="1014.2" y="267.8" width="40.8" height="132.2" rx="5.4" fill="#058e73" opacity="0.64"/>
<rect x="1019.2" y="299.8" width="4" height="5" rx="0.5" fill="#94a3b8" opacity="0.6"/>
<rect x="1032.8" y="299.8" width="4" height="5" rx="0.5" fill="#94a3b8" opacity="0.6"/>
<rect x="1019.2" y="321.8" width="4" height="5" rx="0.5" fill="#94a3b8" opacity="0.6"/>
<rect x="1032.8" y="321.8" width="4" height="5" rx="0.5" fill="#94a3b8" opacity="0.6"/>
<rect x="1032.8" y="343.8" width="4" height="5" rx="0.5" fill="#94a3b8" opacity="0.6"/>
<rect x="977.2" y="325.0" width="41.8" height="75.0" rx="7.1" fill="#048381" opacity="0.75"/>
<rect x="379.1" y="351.2" width="48.1" height="48.8" rx="7.2" fill="#047b8b" opacity="0.78"/>
<rect x="997.1" y="320.3" width="19.8" height="79.7" rx="6.0" fill="#05926f" opacity="0.81"/>
<circle cx="227.9" cy="203.9" r="4.1" fill="#059669" opacity="0.19"/>
<circle cx="427.3" cy="149.5" r="8.6" fill="#94a3b8" opacity="0.29"/>
<circle cx="1155.6" cy="133.6" r="8.2" fill="#94a3b8" opacity="0.22"/>
<circle cx="738.1" cy="182.2" r="9.8" fill="#94a3b8" opacity="0.30"/>
<circle cx="1120.9" cy="196.1" r="10.3" fill="#059669" opacity="0.19"/>
<circle cx="750.9" cy="133.5" r="4.4" fill="#059669" opacity="0.21"/>
<circle cx="154.3" cy="75.6" r="3.9" fill="#94a3b8" opacity="0.33"/>
<circle cx="771.7" cy="26.0" r="6.2" fill="#94a3b8" opacity="0.45"/>
<rect width="1200" height="400" fill="url(#warm)"/>
<rect width="1200" height="400" fill="#94a3b8" opacity="0.40"/>
</svg>