<svg xmlns="http://www.w3.org/2000/svg" viewBox="0 0 1200 300" width="1200" height="300">
<defs><linearGradient id="skyGrad" x1="0" y1="0" x2="0" y2="1"><stop offset="0%" stop-color="#e8f0f8"/><stop offset="100%" stop-color="#f5e6d8"/></linearGradient></defs><rect width="1200" height="300" fill="url(#skyGrad)"/>
<rect x="107.1" y="214.7" width="87.8" height="85.3" fill="#8aabb4"/>
<rect x="428.1" y="235.1" width="80.8" height="64.9" fill="#8aabb4"/>
<rect x="693.9" y="182.4" width="40.8" height="117.6" fill="#8aabb4"/>
<polygon points="693.9,182.4 714.3,172.2 734.7,182.4" fill="#7f9da6"/>
<rect x="997.1" y="224.7" width="51.5" height="75.3" fill="#8aabb4"/>
<polygon points="997.1,224.7 1022.9,211.8 1048.6,224.7" fill="#7f9da6"/>
<rect x="138.8" y="161.5" width="63.4" height="138.5" fill="#558592"/>
<rect x="149.9" y="137.1" width="41.2" height="24.4" fill="#517e8b"/>
<rect x="153.5" y="149.1" width="6" height="8" fill="#91b0b8" opacity="0.5"/>
<rect x="167.5" y="149.1" width="6" height="8" fill="#91b0b8" opacity="0.5"/>
<rect x="153.5" y="165.1" width="6" height="8" fill="#91b0b8" opacity="0.5"/>
<rect x="153.5" y="181.1" width="6" height="8" fill="#91b0b8" opacity="0.5"/>
<rect x="181.5" y="181.1" width="6" height="8" fill="#91b0b8" opacity="0.5"/>
<rect x="181.5" y="197.1" width="6" height="8" fill="#91b0b8" opacity="0.5"/>
<rect x="167.5" y="213.1" width="6" height="8" fill="#91b0b8" opacity="0.5"/>
<rect x="181.5" y="213.1" width="6" height="8" fill="#91b0b8" opacity="0.5"/>
<rect x="153.5" y="229.1" width="6" height="8" fill="#91b0b8" opacity="0.5"/>
<rect x="167.5" y="229.1" width="6" height="8" fill="#91b0b8" opacity="0.5"/>
<rect x="181.5" y="229.1" width="6" height="8" fill="#91b0b8" opacity="0.5"/>
<rect x="435.2" y="183.5" width="50.0" height="116.5" fill="#558592"/>
<rect x="464.2" y="195.5" width="6" height="8" fill="#91b0b8" opacity="0.5"/>
<rect x="450.2" y="211.5" width="6" height="8" fill="#91b0b8" opacity="0.5"/>
<rect x="464.2" y="211.5" width="6" height="8" fill="#91b0b8" opacity="0.5"/>
<rect x="450.2" y="227.5" width="6" height="8" fill="#91b0b8" opacity="0.5"/>
<rect x="464.2" y="227.5" width="6" height="8" fill="#91b0b8" opacity="0.5"/>
<rect x="450.2" y="243.5" width="6" height="8" fill="#91b0b8" opacity="0.5"/>
<rect x="464.2" y="243.5" width="6" height="8" fill="#91b0b8" opacity="0.5"/>
<rect x="450.2" y="259.5" width="6" height="8" fill="#91b0b8" opacity="0.5"/>
<rect x="464.2" y="259.5" width="6" height="8" fill="#91b0b8" opacity="0.5"/>
<rect x="663.4" y="137.5" width="75.3" height="162.5" fill="#558592"/>
<polygon points="663.4,137.5 701.1,118.7 738.7,137.5" fill="#4e7a86"/>
<rect x="684.1" y="149.5" width="6" height="8" fill="#91b0b8" opacity="0.5"/>
<rect x="698.1" y="165.5" width="6" height="8" fill="#91b0b8" opacity="0.5"/>
<rect x="712.1" y="165.5" width="6" height="8" fill="#91b0b8" opacity="0.5"/>
<rect x="684.1" y="181.5" width="6" height="8" fill="#91b0b8" opacity="0.5"/>
<rect x="698.1" y="181.5" width="6" height="8" fill="#91b0b8" opacity="0.5"/>
<rect x="712.1" y="181.5" width="6" height="8" fill="#91b0b8" opacity="0.5"/>
<rect x="684.1" y="197.5" width="6" height="8" fill="#91b0b8" opacity="0.5"/>
<rect x="698.1" y="197.5" width="6" height="8" fill="#91b0b8" opacity="0.5"/>
<rect x="712.1" y="197.5" width="6" height="8" fill="#91b0b8" opacity="0.5"/>
<rect x="684.1" y="213.5" width="6" height="8" fill="#91b0b8" opacity="0.5"/>
<rect x="698.1" y="213.5" width="6" height="8" fill="#91b0b8" opacity="0.5"/>
<rect x="712.1" y="213.5" width="6" height="8" fill="#91b0b8" opacity="0.5"/>
<rect x="698.1" y="229.5" width="6" height="8" fill="#91b0b8" opacity="0.5"/>
<rect x="712.1" y="229.5" width="6" height="8" fill="#91b0b8" opacity="0.5"/>
<rect x="997.8" y="136.2" width="40.0" height="163.8" fill="#558592"/>
<polygon points="997.8,136.2 1017.8,126.2 1037.8,136.2" fill="#4e7a86"/>
<rect x="1014.8" y="164.2" width="6" height="8" fill="#91b0b8" opacity="0.5"/>
<rect x="1014.8" y="180.2" width="6" height="8" fill="#91b0b8" opacity="0.5"/>
<rect x="1014.8" y="212.2" width="6" height="8" fill="#91b0b8" opacity="0.5"/>
<rect x="165.9" y="250.9" width="74.0" height="49.1" fill="#2b6777"/>
<rect x="178.8" y="242.2" width="48.1" height="8.7" fill="#296271"/>
<rect x="408.8" y="193.7" width="38.6" height="106.3" fill="#2b6777"/>
<rect x="425.1" y="205.7" width="6" height="8" fill="#759ca7" opacity="0.5"/>
<rect x="425.1" y="237.7" width="6" height="8" fill="#759ca7" opacity="0.5"/>
<rect x="696.6" y="213.6" width="72.6" height="86.4" fill="#2b6777"/>
<polygon points="696.6,213.6 732.9,195.5 769.3,213.6" fill="#285f6d"/>
<rect x="729.9" y="225.6" width="6" height="8" fill="#759ca7" opacity="0.5"/>
<rect x="743.9" y="225.6" width="6" height="8" fill="#759ca7" opacity="0.5"/>
<rect x="715.9" y="241.6" width="6" height="8" fill="#759ca7" opacity="0.5"/>
<rect x="729.9" y="241.6" width="6" height="8" fill="#759ca7" opacity="0.5"/>
<rect x="743.9" y="241.6" width="6" height="8" fill="#759ca7" opacity="0.5"/>
<rect x="715.9" y="257.6" width="6" height="8" fill="#759ca7" opacity="0.5"/>
<rect x="743.9" y="257.6" width="6" height="8" fill="#759ca7" opacity="0.5"/>
<rect x="729.9" y="273.6" width="6" height="8" fill="#759ca7" opacity="0.5"/>
<rect x="1036.7" y="215.5" width="30.0" height="84.5" fill="#2b6777"/>
<polygon points="1036.7,215.5 1051.7,208.0 1066.7,215.5" fill="#285f6d"/>
<rect x="1048.7" y="243.5" width="6" height="8" fill="#759ca7" opacity="0.5"/>
<rect x="1048.7" y="259.5" width="6" height="8" fill="#759ca7" opacity="0.5"/>
<path d="M324.3 285.0 Q344.5 262.3 338.4 239.6" fill="none" stroke="#8b7355" stroke-width="3"/>
<path d="M338.4 239.6 Q325.3 229.8 316.5 230.0" fill="none" stroke="#48883d" stroke-width="2.5"/>
<path d="M338.4 239.6 Q343.9 226.3 347.5 223.0" fill="none" stroke="#48883d" stroke-width="2.5"/>
<path d="M338.4 239.6 Q356.0 234.6 367.6 239.6" fill="none" stroke="#48883d" stroke-width="2.5"/>
<path d="M338.4 239.6 Q342.9 241.4 345.8 253.2" fill="none" stroke="#48883d" stroke-width="2.5"/>
<path d="M338.4 239.6 Q327.9 238.4 320.9 247.3" fill="none" stroke="#48883d" stroke-width="2.5"/>
<path d="M572.0 285.0 Q601.7 260.9 592.8 236.8" fill="none" stroke="#8b7355" stroke-width="3"/>
<path d="M592.8 236.8 Q579.1 226.8 570.0 226.8" fill="none" stroke="#4a8b3f" stroke-width="2.5"/>
<path d="M592.8 236.8 Q597.9 223.9 601.3 221.0" fill="none" stroke="#4a8b3f" stroke-width="2.5"/>
<path d="M592.8 236.8 Q608.9 231.8 619.6 236.8" fill="none" stroke="#4a8b3f" stroke-width="2.5"/>
<path d="M592.8 236.8 Q597.9 239.6 601.3 252.4" fill="none" stroke="#4a8b3f" stroke-width="2.5"/>
<path d="M592.8 236.8 Q582.0 235.7 574.8 244.6" fill="none" stroke="#4a8b3f" stroke-width="2.5"/>
<path d="M903.0 285.0 Q929.7 259.1 921.7 233.3" fill="none" stroke="#826c50" stroke-width="3"/>
<path d="M921.7 233.3 Q908.2 223.4 899.2 223.5" fill="none" stroke="#437f39" stroke-width="2.5"/>
<path d="M921.7 233.3 Q926.6 220.7 929.9 218.2" fill="none" stroke="#437f39" stroke-width="2.5"/>
<path d="M921.7 233.3 Q937.6 228.3 948.2 233.3" fill="none" stroke="#437f39" stroke-width="2.5"/>
<path d="M921.7 233.3 Q927.2 236.7 930.8 250.1" fill="none" stroke="#437f39" stroke-width="2.5"/>
<path d="M921.7 233.3 Q912.0 231.8 905.4 240.4" fill="none" stroke="#437f39" stroke-width="2.5"/>
<path d="M1147.2 285.0 Q1174.9 262.3 1166.6 239.6" fill="none" stroke="#766248" stroke-width="3"/>
<path d="M1166.6 239.6 Q1156.6 231.0 1150.0 232.4" fill="none" stroke="#44813a" stroke-width="2.5"/>
<path d="M1166.6 239.6 Q1170.9 227.9 1173.8 226.2" fill="none" stroke="#44813a" stroke-width="2.5"/>
<path d="M1166.6 239.6 Q1183.9 234.6 1195.5 239.6" fill="none" stroke="#44813a" stroke-width="2.5"/>
<path d="M1166.6 239.6 Q1171.3 241.8 1174.4 254.0" fill="none" stroke="#44813a" stroke-width="2.5"/>
<path d="M1166.6 239.6 Q1156.9 238.1 1150.4 246.7" fill="none" stroke="#44813a" stroke-width="2.5"/>
<path d="M956.9 285.0 Q974.7 256.3 969.4 227.6" fill="none" stroke="#79644a" stroke-width="3"/>
<path d="M969.4 227.6 Q959.8 219.1 953.4 220.6" fill="none" stroke="#498a3e" stroke-width="2.5"/>
<path d="M969.4 227.6 Q973.2 216.6 975.8 215.7" fill="none" stroke="#498a3e" stroke-width="2.5"/>
<path d="M969.4 227.6 Q982.7 222.6 991.7 227.6" fill="none" stroke="#498a3e" stroke-width="2.5"/>
<path d="M969.4 227.6 Q974.1 229.8 977.3 242.1" fill="none" stroke="#498a3e" stroke-width="2.5"/>
<path d="M969.4 227.6 Q957.0 227.0 948.8 236.5" fill="none" stroke="#498a3e" stroke-width="2.5"/>
<rect x="0" y="285" width="1200" height="15" fill="#d4c5a9" opacity="0.4"/>
<circle cx="1038.6" cy="46.0" r="39.4" fill="#f5e6a0" opacity="0.1"/>
</svg>