<svg xmlns="http://www.w3.org/2000/svg" viewBox="0 0 1200 300" width="1200" height="300">
<defs><linearGradient id="skyGrad" x1="0" y1="0" x2="0" y2="1"><stop offset="0%" stop-color="#e6ecf2"/><stop offset="100%" stop-color="#f0eeec"/></linearGradient></defs><rect width="1200" height="300" fill="url(#skyGrad)"/>
<path d="M0 300 L0 207.5 C319.6 184.3, 1012.0 191.7, 1200 207.5 L1200 300 Z" fill="#aac2c9" opacity="0.25"/>
<rect x="116.8" y="184.3" width="54.8" height="115.7" fill="#8aabb4"/>
<rect x="385.4" y="216.7" width="67.3" height="83.3" fill="#8aabb4"/>
<rect x="397.2" y="202.1" width="43.8" height="14.7" fill="#83a2ab"/>
<rect x="714.0" y="176.6" width="88.3" height="123.4" fill="#8aabb4"/>
<rect x="964.3" y="203.9" width="53.6" height="96.1" fill="#8aabb4"/>
<rect x="973.7" y="186.9" width="34.9" height="17.0" fill="#83a2ab"/>
<rect x="89.0" y="216.0" width="42.0" height="84.0" fill="#558592"/>
<rect x="96.3" y="201.2" width="27.3" height="14.8" fill="#517e8b"/>
<rect x="106.9" y="213.2" width="6" height="8" fill="#91b0b8" opacity="0.5"/>
<rect x="106.9" y="229.2" width="6" height="8" fill="#91b0b8" opacity="0.5"/>
<rect x="106.9" y="261.2" width="6" height="8" fill="#91b0b8" opacity="0.5"/>
<rect x="363.8" y="195.1" width="68.0" height="104.9" fill="#558592"/>
<rect x="375.7" y="176.5" width="44.2" height="18.5" fill="#517e8b"/>
<rect x="394.8" y="188.5" width="6" height="8" fill="#91b0b8" opacity="0.5"/>
<rect x="408.8" y="188.5" width="6" height="8" fill="#91b0b8" opacity="0.5"/>
<rect x="394.8" y="204.5" width="6" height="8" fill="#91b0b8" opacity="0.5"/>
<rect x="380.8" y="220.5" width="6" height="8" fill="#91b0b8" opacity="0.5"/>
<rect x="394.8" y="220.5" width="6" height="8" fill="#91b0b8" opacity="0.5"/>
<rect x="380.8" y="236.5" width="6" height="8" fill="#91b0b8" opacity="0.5"/>
<rect x="394.8" y="236.5" width="6" height="8" fill="#91b0b8" opacity="0.5"/>
<rect x="394.8" y="252.5" width="6" height="8" fill="#91b0b8" opacity="0.5"/>
<rect x="408.8" y="252.5" width="6" height="8" fill="#91b0b8" opacity="0.5"/>
<rect x="562.9" y="170.8" width="59.3" height="129.2" fill="#558592"/>
<rect x="589.6" y="182.8" width="6" height="8" fill="#91b0b8" opacity="0.5"/>
<rect x="603.6" y="182.8" width="6" height="8" fill="#91b0b8" opacity="0.5"/>
<rect x="575.6" y="198.8" width="6" height="8" fill="#91b0b8" opacity="0.5"/>
<rect x="589.6" y="198.8" width="6" height="8" fill="#91b0b8" opacity="0.5"/>
<rect x="575.6" y="214.8" width="6" height="8" fill="#91b0b8" opacity="0.5"/>
<rect x="589.6" y="214.8" width="6" height="8" fill="#91b0b8" opacity="0.5"/>
<rect x="603.6" y="214.8" width="6" height="8" fill="#91b0b8" opacity="0.5"/>
<rect x="575.6" y="230.8" width="6" height="8" fill="#91b0b8" opacity="0.5"/>
<rect x="589.6" y="246.8" width="6" height="8" fill="#91b0b8" opacity="0.5"/>
<rect x="603.6" y="246.8" width="6" height="8" fill="#91b0b8" opacity="0.5"/>
<rect x="589.6" y="262.8" width="6" height="8" fill="#91b0b8" opacity="0.5"/>
<rect x="838.8" y="194.7" width="45.1" height="105.3" fill="#558592"/>
<rect x="865.4" y="222.7" width="6" height="8" fill="#91b0b8" opacity="0.5"/>
<rect x="851.4" y="270.7" width="6" height="8" fill="#91b0b8" opacity="0.5"/>
<rect x="1003.9" y="187.3" width="43.8" height="112.7" fill="#558592"/>
<rect x="1022.8" y="199.3" width="6" height="8" fill="#91b0b8" opacity="0.5"/>
<rect x="1022.8" y="215.3" width="6" height="8" fill="#91b0b8" opacity="0.5"/>
<rect x="1022.8" y="231.3" width="6" height="8" fill="#91b0b8" opacity="0.5"/>
<rect x="1022.8" y="263.3" width="6" height="8" fill="#91b0b8" opacity="0.5"/>
<rect x="125.5" y="257.9" width="67.5" height="42.1" fill="#2b6777"/>
<rect x="137.3" y="250.5" width="43.9" height="7.4" fill="#296271"/>
<rect x="436.6" y="219.9" width="53.3" height="80.1" fill="#2b6777"/>
<rect x="453.3" y="231.9" width="6" height="8" fill="#759ca7" opacity="0.5"/>
<rect x="453.3" y="247.9" width="6" height="8" fill="#759ca7" opacity="0.5"/>
<rect x="467.3" y="247.9" width="6" height="8" fill="#759ca7" opacity="0.5"/>
<rect x="453.3" y="263.9" width="6" height="8" fill="#759ca7" opacity="0.5"/>
<rect x="467.3" y="263.9" width="6" height="8" fill="#759ca7" opacity="0.5"/>
<rect x="700.2" y="212.9" width="37.1" height="87.1" fill="#2b6777"/>
<rect x="715.8" y="272.9" width="6" height="8" fill="#759ca7" opacity="0.5"/>
<rect x="1008.8" y="109.4" width="74.1" height="190.6" fill="#2b6777"/>
<rect x="1028.9" y="121.4" width="6" height="8" fill="#759ca7" opacity="0.5"/>
<rect x="1042.9" y="121.4" width="6" height="8" fill="#759ca7" opacity="0.5"/>
<rect x="1056.9" y="121.4" width="6" height="8" fill="#759ca7" opacity="0.5"/>
<rect x="1028.9" y="137.4" width="6" height="8" fill="#759ca7" opacity="0.5"/>
<rect x="1042.9" y="137.4" width="6" height="8" fill="#759ca7" opacity="0.5"/>
<rect x="1028.9" y="153.4" width="6" height="8" fill="#759ca7" opacity="0.5"/>
<rect x="1042.9" y="153.4" width="6" height="8" fill="#759ca7" opacity="0.5"/>
<rect x="1056.9" y="153.4" width="6" height="8" fill="#759ca7" opacity="0.5"/>
<rect x="1028.9" y="169.4" width="6" height="8" fill="#759ca7" opacity="0.5"/>
<rect x="1042.9" y="169.4" width="6" height="8" fill="#759ca7" opacity="0.5"/>
<rect x="1028.9" y="185.4" width="6" height="8" fill="#759ca7" opacity="0.5"/>
<rect x="1042.9" y="185.4" width="6" height="8" fill="#759ca7" opacity="0.5"/>
<rect x="1056.9" y="185.4" width="6" height="8" fill="#759ca7" opacity="0.5"/>
<line x1="314.8" y1="285.0" x2="314.8" y2="271.5" stroke="#6b5a42" stroke-width="3"/>
<circle cx="314.8" cy="256.7" r="14.7" fill="#588a49"/>
<line x1="595.1" y1="285.0" x2="595.1" y2="269.9" stroke="#6b5a42" stroke-width="3"/>
<circle cx="595.1" cy="253.9" r="16.0" fill="#5a8b4a"/>
<line x1="873.1" y1="285.0" x2="873.1" y2="274.0" stroke="#6b5a42" stroke-width="3"/>
<circle cx="873.1" cy="260.2" r="13.8" fill="#558446"/>
<line x1="858.2" y1="285.0" x2="858.2" y2="272.3" stroke="#6b5a42" stroke-width="3"/>
<circle cx="858.2" cy="258.2" r="14.1" fill="#548245"/>
<line x1="100.9" y1="285.0" x2="100.9" y2="274.4" stroke="#6b5a42" stroke-width="3"/>
<circle cx="100.9" cy="256.4" r="18.0" fill="#578747"/>
<line x1="707.7" y1="285.0" x2="707.7" y2="269.1" stroke="#6b5a42" stroke-width="3"/>
<circle cx="707.7" cy="256.5" r="12.6" fill="#528044"/>
<rect x="0" y="285" width="1200" height="15" fill="#9aaa85" opacity="0.4"/>
</svg>