<svg xmlns="http://www.w3.org/2000/svg" viewBox="0 0 1200 400" width="1200" height="400">
<defs>
<linearGradient id="bg" x1="0" y1="0" x2="0" y2="1"><stop offset="0%" stop-color="#d4a76a"/><stop offset="100%" stop-color="#ea580c"/></linearGradient>
<linearGradient id="warm" x1="0" y1="0" x2="1" y2="1"><stop offset="0%" stop-color="#888e95" stop-opacity="0.18"/><stop offset="100%" stop-color="#888e95" stop-opacity="0.06"/></linearGradient>
</defs>
<rect width="1200" height="400" fill="url(#bg)"/>
<path d="M0 400 L0 228.55226158317456 C60.0 230.5, 90.0 240.4, 150.0 231.2 C210.0 236.9, 240.0 256.2, 300.0 247.8 C360.0 255.8, 390.0 229.9, 450.0 225.3 C510.0 225.4, 540.0 256.7, 600.0 253.2 C660.0 252.0, 690.0 213.9, 750.0 215.8 C810.0 210.9, 840.0 234.6, 900.0 244.1 C960.0 234.6, 990.0 238.5, 1050.0 242.0 C1110.0 232.9, 1140.0 230.8, 1200.0 224.8 L1200 400 Z" fill="#e2742d" opacity="0.45"/>
<path d="M0 400 L0 256.9090811799479 C52.5 262.3, 97.5 270.4, 150.0 274.5 C202.5 276.9, 247.5 263.5, 300.0 265.5 C352.5 266.2, 397.5 269.1, 450.0 267.6 C502.5 270.8, 547.5 254.9, 600.0 258.3 C652.5 262.1, 697.5 275.0, 750.0 275.1 C802.5 279.9, 847.5 265.4, 900.0 271.2 C952.5 278.2, 997.5 257.4, 1050.0 260.2 C1102.5 262.1, 1147.5 267.2, 1200.0 261.0 L1200 400 Z" fill="#ea580c" opacity="0.3"/>
<rect x="538.3" y="342.2" width="22.8" height="57.8" rx="5.1" fill="#647a6f" opacity="0.57"/>
<rect x="846.8" y="265.9" width="19.4" height="134.1" rx="3.1" fill="#6d7767" opacity="0.70"/>
<rect x="631.4" y="308.3" width="36.9" height="91.7" rx="7.6" fill="#707766" opacity="0.65"/>
<rect x="735.3" y="330.4" width="30.8" height="69.6" rx="6.3" fill="#3a848d" opacity="0.76"/>
<rect x="636.7" y="307.9" width="42.8" height="92.1" rx="7.3" fill="#7e735b" opacity="0.84"/>
<rect x="641.7" y="317.9" width="4" height="5" rx="0.5" fill="#d4a76a" opacity="0.6"/>
<rect x="655.9" y="317.9" width="4" height="5" rx="0.5" fill="#d4a76a" opacity="0.6"/>
<rect x="641.7" y="339.9" width="4" height="5" rx="0.5" fill="#d4a76a" opacity="0.6"/>
<rect x="655.9" y="339.9" width="4" height="5" rx="0.5" fill="#d4a76a" opacity="0.6"/>
<rect x="972.2" y="352.8" width="21.3" height="47.2" rx="4.8" fill="#158ea9" opacity="0.69"/>
<rect x="793.7" y="367.8" width="44.3" height="32.2" rx="7.8" fill="#537e7b" opacity="0.69"/>
<rect x="180.2" y="295.8" width="46.8" height="104.2" rx="5.4" fill="#5b7c75" opacity="0.61"/>
<rect x="809.7" y="312.0" width="24.3" height="88.0" rx="5.3" fill="#5b7c75" opacity="0.82"/>
<rect x="814.7" y="322.0" width="4" height="5" rx="0.5" fill="#d4a76a" opacity="0.6"/>
<rect x="814.7" y="344.0" width="4" height="5" rx="0.5" fill="#d4a76a" opacity="0.6"/>
<rect x="136.5" y="270.9" width="40.3" height="129.1" rx="3.2" fill="#3e838a" opacity="0.69"/>
<rect x="141.5" y="280.9" width="4" height="5" rx="0.5" fill="#d4a76a" opacity="0.6"/>
<rect x="141.5" y="302.9" width="4" height="5" rx="0.5" fill="#d4a76a" opacity="0.6"/>
<rect x="141.5" y="324.9" width="4" height="5" rx="0.5" fill="#d4a76a" opacity="0.6"/>
<rect x="154.9" y="324.9" width="4" height="5" rx="0.5" fill="#d4a76a" opacity="0.6"/>
<rect x="141.5" y="346.9" width="4" height="5" rx="0.5" fill="#d4a76a" opacity="0.6"/>
<rect x="1017.6" y="338.6" width="43.5" height="61.4" rx="3.4" fill="#2e8796" opacity="0.78"/>
<rect x="199.2" y="293.0" width="22.2" height="107.0" rx="7.6" fill="#428287" opacity="0.65"/>
<rect x="540.3" y="333.0" width="14.9" height="67.0" rx="7.5" fill="#8b7052" opacity="0.76"/>
<rect x="600.2" y="300.4" width="18.8" height="99.6" rx="3.0" fill="#338692" opacity="0.55"/>
<circle cx="372.3" cy="145.1" r="11.6" fill="#0891b2" opacity="0.23"/>
<circle cx="791.7" cy="72.2" r="10.0" fill="#d4a76a" opacity="0.21"/>
<circle cx="83.4" cy="152.0" r="7.5" fill="#0891b2" opacity="0.18"/>
<circle cx="869.9" cy="29.1" r="6.1" fill="#d4a76a" opacity="0.18"/>
<circle cx="6.8" cy="226.7" r="5.8" fill="#d4a76a" opacity="0.32"/>
<rect width="1200" height="400" fill="url(#warm)"/>
<rect width="1200" height="400" fill="#d4a76a" opacity="0.36"/>
</svg>