<svg xmlns="http://www.w3.org/2000/svg" viewBox="0 0 1200 300" width="1200" height="300">
<defs><linearGradient id="skyGrad" x1="0" y1="0" x2="0" y2="1"><stop offset="0%" stop-color="#e6ecf2"/><stop offset="100%" stop-color="#f0eeec"/></linearGradient></defs><rect width="1200" height="300" fill="url(#skyGrad)"/>
<path d="M0 300 L0 209.9 C255.3 185.3, 1008.1 198.6, 1200 209.9 L1200 300 Z" fill="#aac2c9" opacity="0.25"/>
<rect x="149.9" y="199.8" width="64.9" height="100.2" fill="#8aabb4"/>
<polygon points="149.9,199.8 182.3,183.5 214.8,199.8" fill="#7f9da6"/>
<rect x="548.9" y="181.7" width="60.1" height="118.3" fill="#8aabb4"/>
<rect x="949.7" y="203.7" width="62.3" height="96.3" fill="#8aabb4"/>
<rect x="960.6" y="186.7" width="40.5" height="17.0" fill="#83a2ab"/>
<rect x="154.8" y="189.0" width="45.2" height="111.0" fill="#558592"/>
<polygon points="154.8,189.0 177.4,177.7 200.0,189.0" fill="#4e7a86"/>
<rect x="181.4" y="201.0" width="6" height="8" fill="#91b0b8" opacity="0.5"/>
<rect x="167.4" y="217.0" width="6" height="8" fill="#91b0b8" opacity="0.5"/>
<rect x="181.4" y="217.0" width="6" height="8" fill="#91b0b8" opacity="0.5"/>
<rect x="167.4" y="233.0" width="6" height="8" fill="#91b0b8" opacity="0.5"/>
<rect x="181.4" y="233.0" width="6" height="8" fill="#91b0b8" opacity="0.5"/>
<rect x="167.4" y="249.0" width="6" height="8" fill="#91b0b8" opacity="0.5"/>
<rect x="181.4" y="249.0" width="6" height="8" fill="#91b0b8" opacity="0.5"/>
<rect x="181.4" y="265.0" width="6" height="8" fill="#91b0b8" opacity="0.5"/>
<rect x="435.9" y="180.1" width="44.1" height="119.9" fill="#558592"/>
<polygon points="435.9,180.1 457.9,169.0 480.0,180.1" fill="#4e7a86"/>
<rect x="461.9" y="208.1" width="6" height="8" fill="#91b0b8" opacity="0.5"/>
<rect x="447.9" y="224.1" width="6" height="8" fill="#91b0b8" opacity="0.5"/>
<rect x="461.9" y="224.1" width="6" height="8" fill="#91b0b8" opacity="0.5"/>
<rect x="447.9" y="240.1" width="6" height="8" fill="#91b0b8" opacity="0.5"/>
<rect x="447.9" y="256.1" width="6" height="8" fill="#91b0b8" opacity="0.5"/>
<rect x="461.9" y="256.1" width="6" height="8" fill="#91b0b8" opacity="0.5"/>
<rect x="725.6" y="134.3" width="38.3" height="165.7" fill="#558592"/>
<rect x="741.7" y="162.3" width="6" height="8" fill="#91b0b8" opacity="0.5"/>
<rect x="741.7" y="178.3" width="6" height="8" fill="#91b0b8" opacity="0.5"/>
<rect x="741.7" y="194.3" width="6" height="8" fill="#91b0b8" opacity="0.5"/>
<rect x="741.7" y="226.3" width="6" height="8" fill="#91b0b8" opacity="0.5"/>
<rect x="1040.4" y="215.9" width="56.5" height="84.1" fill="#558592"/>
<rect x="1072.6" y="227.9" width="6" height="8" fill="#91b0b8" opacity="0.5"/>
<rect x="1058.6" y="243.9" width="6" height="8" fill="#91b0b8" opacity="0.5"/>
<rect x="1072.6" y="243.9" width="6" height="8" fill="#91b0b8" opacity="0.5"/>
<rect x="1072.6" y="259.9" width="6" height="8" fill="#91b0b8" opacity="0.5"/>
<rect x="149.2" y="237.2" width="66.4" height="62.8" fill="#2b6777"/>
<polygon points="149.2,237.2 182.4,220.6 215.6,237.2" fill="#285f6d"/>
<rect x="165.4" y="249.2" width="6" height="8" fill="#759ca7" opacity="0.5"/>
<rect x="179.4" y="249.2" width="6" height="8" fill="#759ca7" opacity="0.5"/>
<rect x="193.4" y="249.2" width="6" height="8" fill="#759ca7" opacity="0.5"/>
<rect x="179.4" y="265.2" width="6" height="8" fill="#759ca7" opacity="0.5"/>
<rect x="193.4" y="265.2" width="6" height="8" fill="#759ca7" opacity="0.5"/>
<rect x="443.1" y="123.0" width="32.7" height="177.0" fill="#2b6777"/>
<polygon points="443.1,123.0 459.4,114.8 475.8,123.0" fill="#285f6d"/>
<rect x="456.4" y="135.0" width="6" height="8" fill="#759ca7" opacity="0.5"/>
<rect x="456.4" y="151.0" width="6" height="8" fill="#759ca7" opacity="0.5"/>
<rect x="456.4" y="183.0" width="6" height="8" fill="#759ca7" opacity="0.5"/>
<rect x="456.4" y="199.0" width="6" height="8" fill="#759ca7" opacity="0.5"/>
<rect x="713.8" y="230.8" width="54.7" height="69.2" fill="#2b6777"/>
<rect x="745.1" y="242.8" width="6" height="8" fill="#759ca7" opacity="0.5"/>
<rect x="731.1" y="258.8" width="6" height="8" fill="#759ca7" opacity="0.5"/>
<rect x="957.7" y="160.8" width="61.2" height="139.2" fill="#2b6777"/>
<rect x="985.3" y="172.8" width="6" height="8" fill="#759ca7" opacity="0.5"/>
<rect x="999.3" y="172.8" width="6" height="8" fill="#759ca7" opacity="0.5"/>
<rect x="985.3" y="188.8" width="6" height="8" fill="#759ca7" opacity="0.5"/>
<rect x="971.3" y="204.8" width="6" height="8" fill="#759ca7" opacity="0.5"/>
<rect x="999.3" y="204.8" width="6" height="8" fill="#759ca7" opacity="0.5"/>
<rect x="971.3" y="220.8" width="6" height="8" fill="#759ca7" opacity="0.5"/>
<rect x="985.3" y="220.8" width="6" height="8" fill="#759ca7" opacity="0.5"/>
<rect x="999.3" y="220.8" width="6" height="8" fill="#759ca7" opacity="0.5"/>
<rect x="971.3" y="236.8" width="6" height="8" fill="#759ca7" opacity="0.5"/>
<rect x="999.3" y="236.8" width="6" height="8" fill="#759ca7" opacity="0.5"/>
<rect x="985.3" y="252.8" width="6" height="8" fill="#759ca7" opacity="0.5"/>
<line x1="329.4" y1="285.0" x2="329.4" y2="274.9" stroke="#6b5a42" stroke-width="3"/>
<circle cx="329.4" cy="262.4" r="12.5" fill="#548345"/>
<line x1="594.8" y1="285.0" x2="594.8" y2="272.4" stroke="#6b5a42" stroke-width="3"/>
<circle cx="594.8" cy="257.2" r="15.2" fill="#507d42"/>
<line x1="863.1" y1="285.0" x2="863.1" y2="271.9" stroke="#6b5a42" stroke-width="3"/>
<circle cx="863.1" cy="258.0" r="13.9" fill="#578848"/>
<line x1="159.3" y1="285.0" x2="159.3" y2="273.0" stroke="#6b5a42" stroke-width="3"/>
<circle cx="159.3" cy="256.4" r="16.6" fill="#558546"/>
<line x1="90.6" y1="285.0" x2="90.6" y2="271.9" stroke="#6b5a42" stroke-width="3"/>
<circle cx="90.6" cy="259.4" r="12.6" fill="#598a49"/>
<line x1="185.8" y1="285.0" x2="185.8" y2="272.6" stroke="#6b5a42" stroke-width="3"/>
<circle cx="185.8" cy="256.3" r="16.3" fill="#507c41"/>
<rect x="0" y="285" width="1200" height="15" fill="#9aaa85" opacity="0.4"/>
</svg>