<svg xmlns="http://www.w3.org/2000/svg" viewBox="0 0 1200 300" width="1200" height="300">
<rect width="1200" height="300" fill="#e6eef4"/>
<path d="M0 300 L0 210.0 C235.5 185.6, 875.3 193.4, 1200 210.0 L1200 300 Z" fill="#b5cad8" opacity="0.3"/>
<rect x="324.0" y="214.7" width="64.3" height="85.3" fill="#99b6c9"/>
<rect x="813.9" y="254.8" width="79.6" height="45.2" fill="#99b6c9"/>
<rect x="221.3" y="231.1" width="69.7" height="68.9" fill="#6a95b1"/>
<rect x="253.1" y="243.1" width="6" height="8" fill="#9ebacc" opacity="0.5"/>
<rect x="239.1" y="259.1" width="6" height="8" fill="#9ebacc" opacity="0.5"/>
<rect x="253.1" y="259.1" width="6" height="8" fill="#9ebacc" opacity="0.5"/>
<rect x="267.1" y="259.1" width="6" height="8" fill="#9ebacc" opacity="0.5"/>
<rect x="553.8" y="213.9" width="71.2" height="86.1" fill="#6a95b1"/>
<rect x="600.3" y="225.9" width="6" height="8" fill="#9ebacc" opacity="0.5"/>
<rect x="572.3" y="241.9" width="6" height="8" fill="#9ebacc" opacity="0.5"/>
<rect x="600.3" y="241.9" width="6" height="8" fill="#9ebacc" opacity="0.5"/>
<rect x="572.3" y="257.9" width="6" height="8" fill="#9ebacc" opacity="0.5"/>
<rect x="586.3" y="257.9" width="6" height="8" fill="#9ebacc" opacity="0.5"/>
<rect x="572.3" y="273.9" width="6" height="8" fill="#9ebacc" opacity="0.5"/>
<rect x="586.3" y="273.9" width="6" height="8" fill="#9ebacc" opacity="0.5"/>
<rect x="600.3" y="273.9" width="6" height="8" fill="#9ebacc" opacity="0.5"/>
<rect x="978.5" y="191.3" width="61.3" height="108.7" fill="#6a95b1"/>
<rect x="992.2" y="203.3" width="6" height="8" fill="#9ebacc" opacity="0.5"/>
<rect x="1020.2" y="203.3" width="6" height="8" fill="#9ebacc" opacity="0.5"/>
<rect x="1006.2" y="219.3" width="6" height="8" fill="#9ebacc" opacity="0.5"/>
<rect x="1020.2" y="219.3" width="6" height="8" fill="#9ebacc" opacity="0.5"/>
<rect x="992.2" y="235.3" width="6" height="8" fill="#9ebacc" opacity="0.5"/>
<rect x="1006.2" y="235.3" width="6" height="8" fill="#9ebacc" opacity="0.5"/>
<rect x="1020.2" y="235.3" width="6" height="8" fill="#9ebacc" opacity="0.5"/>
<rect x="992.2" y="251.3" width="6" height="8" fill="#9ebacc" opacity="0.5"/>
<rect x="1020.2" y="251.3" width="6" height="8" fill="#9ebacc" opacity="0.5"/>
<rect x="1006.2" y="267.3" width="6" height="8" fill="#9ebacc" opacity="0.5"/>
<rect x="1020.2" y="267.3" width="6" height="8" fill="#9ebacc" opacity="0.5"/>
<rect x="226.7" y="243.7" width="60.8" height="56.3" fill="#457b9d"/>
<rect x="619.2" y="255.5" width="30.1" height="44.5" fill="#457b9d"/>
<rect x="966.1" y="153.4" width="38.1" height="146.6" fill="#457b9d"/>
<rect x="982.2" y="181.4" width="6" height="8" fill="#86a9bf" opacity="0.5"/>
<rect x="982.2" y="197.4" width="6" height="8" fill="#86a9bf" opacity="0.5"/>
<rect x="982.2" y="229.4" width="6" height="8" fill="#86a9bf" opacity="0.5"/>
<rect x="982.2" y="245.4" width="6" height="8" fill="#86a9bf" opacity="0.5"/>
<rect x="982.2" y="261.4" width="6" height="8" fill="#86a9bf" opacity="0.5"/>
<rect x="0" y="298" width="1200" height="2" fill="#3e6f8d" opacity="0.15"/>
</svg>