<svg xmlns="http://www.w3.org/2000/svg" viewBox="0 0 1200 300" width="1200" height="300">
<defs>
<linearGradient id="skyGrad" x1="0" y1="0" x2="0" y2="1">
<stop offset="0%" stop-color="#a78bfa"/>
<stop offset="15%" stop-color="#c4b5fd"/>
<stop offset="30%" stop-color="#fda4af"/>
<stop offset="48%" stop-color="#fdba74"/>
<stop offset="65%" stop-color="#fcd34d"/>
<stop offset="85%" stop-color="#fef08a"/>
<stop offset="100%" stop-color="#fef9c3"/>
</linearGradient>
<linearGradient id="bldg_coral" x1="0" y1="0" x2="0" y2="1"><stop offset="0%" stop-color="#fecaca"/><stop offset="100%" stop-color="#fca5a5"/></linearGradient>
<linearGradient id="bldg_teal" x1="0" y1="0" x2="0" y2="1"><stop offset="0%" stop-color="#99f6e4"/><stop offset="100%" stop-color="#5eead4"/></linearGradient>
<linearGradient id="bldg_amber" x1="0" y1="0" x2="0" y2="1"><stop offset="0%" stop-color="#fde68a"/><stop offset="100%" stop-color="#fcd34d"/></linearGradient>
<linearGradient id="bldg_lavender" x1="0" y1="0" x2="0" y2="1"><stop offset="0%" stop-color="#ddd6fe"/><stop offset="100%" stop-color="#c4b5fd"/></linearGradient>
<linearGradient id="bldg_blue" x1="0" y1="0" x2="0" y2="1"><stop offset="0%" stop-color="#bfdbfe"/><stop offset="100%" stop-color="#93c5fd"/></linearGradient>
<linearGradient id="bldg_mint" x1="0" y1="0" x2="0" y2="1"><stop offset="0%" stop-color="#a7f3d0"/><stop offset="100%" stop-color="#6ee7b7"/></linearGradient>
<linearGradient id="bldg_rose" x1="0" y1="0" x2="0" y2="1"><stop offset="0%" stop-color="#fecdd3"/><stop offset="100%" stop-color="#fda4af"/></linearGradient>
<linearGradient id="bldg_sky" x1="0" y1="0" x2="0" y2="1"><stop offset="0%" stop-color="#bae6fd"/><stop offset="100%" stop-color="#7dd3fc"/></linearGradient>
<linearGradient id="roof_navyRoof" x1="0" y1="0" x2="0" y2="1"><stop offset="0%" stop-color="#4338ca"/><stop offset="100%" stop-color="#3730a3"/></linearGradient>
<linearGradient id="roof_coralRoof" x1="0" y1="0" x2="0" y2="1"><stop offset="0%" stop-color="#f87171"/><stop offset="100%" stop-color="#ef4444"/></linearGradient>
<linearGradient id="roof_tealRoof" x1="0" y1="0" x2="0" y2="1"><stop offset="0%" stop-color="#2dd4bf"/><stop offset="100%" stop-color="#14b8a6"/></linearGradient>
<radialGradient id="windowGlow" cx="50%" cy="50%" r="50%"><stop offset="0%" stop-color="#fef08a"/><stop offset="60%" stop-color="#fbbf24"/><stop offset="100%" stop-color="#f59e0b"/></radialGradient>
<linearGradient id="hillFar" x1="0" y1="0" x2="0" y2="1"><stop offset="0%" stop-color="#c4b5fd"/><stop offset="100%" stop-color="#a5b4fc"/></linearGradient>
<linearGradient id="hillMid" x1="0" y1="0" x2="0" y2="1"><stop offset="0%" stop-color="#86efac"/><stop offset="100%" stop-color="#4ade80"/></linearGradient>
<linearGradient id="hillNear" x1="0" y1="0" x2="0" y2="1"><stop offset="0%" stop-color="#34d399"/><stop offset="100%" stop-color="#10b981"/></linearGradient>
<linearGradient id="hillDesertFar" x1="0" y1="0" x2="0" y2="1"><stop offset="0%" stop-color="#fde68a"/><stop offset="100%" stop-color="#fcd34d"/></linearGradient>
<linearGradient id="hillDesertMid" x1="0" y1="0" x2="0" y2="1"><stop offset="0%" stop-color="#fcd34d"/><stop offset="100%" stop-color="#fbbf24"/></linearGradient>
<linearGradient id="hillDesertNear" x1="0" y1="0" x2="0" y2="1"><stop offset="0%" stop-color="#fbbf24"/><stop offset="100%" stop-color="#f59e0b"/></linearGradient>
<linearGradient id="groundGrad" x1="0" y1="0" x2="0" y2="1"><stop offset="0%" stop-color="#fef3c7"/><stop offset="100%" stop-color="#fde68a"/></linearGradient>
<linearGradient id="waterGrad" x1="0" y1="0" x2="0" y2="1"><stop offset="0%" stop-color="#bfdbfe"/><stop offset="100%" stop-color="#93c5fd"/></linearGradient>
<filter id="softGlow" x="-50%" y="-50%" width="200%" height="200%"><feGaussianBlur in="SourceGraphic" stdDeviation="12"/></filter>
</defs>
<rect width="1200" height="300" fill="url(#skyGrad)"/>
<circle cx="967.0" cy="51.8" r="45" fill="#fef08a" opacity="0.12" filter="url(#softGlow)"/>
<circle cx="967.0" cy="51.8" r="30" fill="#fde68a" opacity="0.18" filter="url(#softGlow)"/>
<circle cx="967.0" cy="51.8" r="16" fill="#fef9c3" opacity="0.25" filter="url(#softGlow)"/>
<path d="M0 300 L0.0 190.8 C134.4 190.8, 134.4 199.7, 268.8 199.7 C391.6 199.7, 391.6 195.0, 514.4 195.0 C630.5 195.0, 630.5 194.4, 746.6 194.4 C851.1 194.4, 851.1 202.3, 955.6 202.3 C1077.8 202.3, 1077.8 203.7, 1200.0 203.7 L1200 300 Z" fill="url(#hillDesertFar)" opacity="0.45"/>
<path d="M0 300 L0.0 212.2 C177.0 212.2, 177.0 218.5, 354.0 218.5 C596.1 218.5, 596.1 219.1, 838.1 219.1 C1019.1 219.1, 1019.1 217.1, 1200.0 217.1 L1200 300 Z" fill="url(#hillDesertMid)" opacity="0.6"/>
<path d="M0 300 L0.0 237.7 C154.0 237.7, 154.0 235.5, 308.0 235.5 C438.4 235.5, 438.4 238.3, 568.8 238.3 C729.2 238.3, 729.2 238.2, 889.7 238.2 C1044.9 238.2, 1044.9 232.8, 1200.0 232.8 L1200 300 Z" fill="url(#hillDesertNear)" opacity="0.85"/>
<rect x="153.2" y="220.2" width="100.4" height="79.8" rx="3" fill="url(#bldg_rose)" opacity="0.7"/>
<rect x="173.3" y="210.6" width="60.3" height="9.6" rx="2" fill="url(#roof_tealRoof)" opacity="0.7"/>
<rect x="179.4" y="230.2" width="6" height="8" rx="1" fill="url(#windowGlow)" opacity="0.8363625365944405"/>
<rect x="193.4" y="230.2" width="6" height="8" rx="1" fill="url(#windowGlow)" opacity="0.9965508363659263"/>
<rect x="221.4" y="230.2" width="6" height="8" rx="1" fill="url(#windowGlow)" opacity="0.7225815932837228"/>
<rect x="179.4" y="245.2" width="6" height="8" rx="1" fill="url(#windowGlow)" opacity="0.8970135930446039"/>
<rect x="193.4" y="245.2" width="6" height="8" rx="1" fill="url(#windowGlow)" opacity="0.8547768222423162"/>
<rect x="207.4" y="245.2" width="6" height="8" rx="1" fill="url(#windowGlow)" opacity="0.8208390408292594"/>
<rect x="221.4" y="245.2" width="6" height="8" rx="1" fill="url(#windowGlow)" opacity="0.7335565946686811"/>
<rect x="179.4" y="260.2" width="6" height="8" rx="1" fill="url(#windowGlow)" opacity="0.9469353869310279"/>
<rect x="193.4" y="260.2" width="6" height="8" rx="1" fill="url(#windowGlow)" opacity="0.9631256132214915"/>
<rect x="616.4" y="249.6" width="57.0" height="50.4" rx="3" fill="url(#bldg_sky)" opacity="0.7"/>
<rect x="616.4" y="246.6" width="57.0" height="3" rx="1" fill="url(#roof_navyRoof)" opacity="0.7"/>
<rect x="634.9" y="259.6" width="6" height="8" rx="1" fill="url(#windowGlow)" opacity="0.7466800268956832"/>
<rect x="648.9" y="259.6" width="6" height="8" rx="1" fill="url(#windowGlow)" opacity="0.8658154345889647"/>
<rect x="976.1" y="239.8" width="77.7" height="60.2" rx="3" fill="url(#bldg_coral)" opacity="0.7"/>
<rect x="991.6" y="232.5" width="46.6" height="7.2" rx="2" fill="url(#roof_coralRoof)" opacity="0.7"/>
<rect x="990.9" y="249.8" width="6" height="8" rx="1" fill="url(#windowGlow)" opacity="0.9128746823933322"/>
<rect x="1004.9" y="249.8" width="6" height="8" rx="1" fill="url(#windowGlow)" opacity="0.9504622445211104"/>
<rect x="1018.9" y="249.8" width="6" height="8" rx="1" fill="url(#windowGlow)" opacity="0.7334312653790374"/>
<rect x="181.2" y="242.0" width="56.1" height="58.0" rx="3" fill="url(#bldg_teal)" opacity="0.85"/>
<rect x="192.4" y="235.0" width="33.7" height="7.0" rx="2" fill="url(#roof_tealRoof)" opacity="0.85"/>
<rect x="199.3" y="252.0" width="6" height="8" rx="1" fill="url(#windowGlow)" opacity="0.7011985030496486"/>
<rect x="213.3" y="252.0" width="6" height="8" rx="1" fill="url(#windowGlow)" opacity="0.8464159336157216"/>
<rect x="400.9" y="210.6" width="74.3" height="89.4" rx="3" fill="url(#bldg_amber)" opacity="0.85"/>
<polygon points="400.9,210.6 438.1,187.6 475.2,210.6" fill="url(#roof_navyRoof)" opacity="0.85"/>
<rect x="414.1" y="220.6" width="6" height="8" rx="1" fill="url(#windowGlow)" opacity="0.9644506874794376"/>
<rect x="456.1" y="220.6" width="6" height="8" rx="1" fill="url(#windowGlow)" opacity="0.9998787329997303"/>
<rect x="414.1" y="235.6" width="6" height="8" rx="1" fill="url(#windowGlow)" opacity="0.7632185693193313"/>
<rect x="428.1" y="235.6" width="6" height="8" rx="1" fill="url(#windowGlow)" opacity="0.7559257863349866"/>
<rect x="456.1" y="235.6" width="6" height="8" rx="1" fill="url(#windowGlow)" opacity="0.7680030036568655"/>
<rect x="414.1" y="250.6" width="6" height="8" rx="1" fill="url(#windowGlow)" opacity="0.8285229276067219"/>
<rect x="428.1" y="250.6" width="6" height="8" rx="1" fill="url(#windowGlow)" opacity="0.9373121018229574"/>
<rect x="442.1" y="250.6" width="6" height="8" rx="1" fill="url(#windowGlow)" opacity="0.7241894364935296"/>
<rect x="456.1" y="250.6" width="6" height="8" rx="1" fill="url(#windowGlow)" opacity="0.9016525894876815"/>
<rect x="688.6" y="218.9" width="56.0" height="81.1" rx="3" fill="url(#bldg_lavender)" opacity="0.85"/>
<polygon points="688.6,218.9 716.6,199.8 744.6,218.9" fill="url(#roof_coralRoof)" opacity="0.85"/>
<rect x="706.6" y="228.9" width="6" height="8" rx="1" fill="url(#windowGlow)" opacity="0.8313432565570544"/>
<rect x="720.6" y="228.9" width="6" height="8" rx="1" fill="url(#windowGlow)" opacity="0.7539845154872091"/>
<rect x="720.6" y="243.9" width="6" height="8" rx="1" fill="url(#windowGlow)" opacity="0.8661986681940959"/>
<rect x="706.6" y="258.9" width="6" height="8" rx="1" fill="url(#windowGlow)" opacity="0.876757283730785"/>
<rect x="720.6" y="258.9" width="6" height="8" rx="1" fill="url(#windowGlow)" opacity="0.8146782659993871"/>
<rect x="993.8" y="214.3" width="63.6" height="85.7" rx="3" fill="url(#bldg_blue)" opacity="0.85"/>
<polygon points="993.8,214.3 1025.6,193.4 1057.4,214.3" fill="url(#roof_tealRoof)" opacity="0.85"/>
<rect x="1022.6" y="224.3" width="6" height="8" rx="1" fill="url(#windowGlow)" opacity="0.9671917795050851"/>
<rect x="1036.6" y="224.3" width="6" height="8" rx="1" fill="url(#windowGlow)" opacity="0.738890591700976"/>
<rect x="1008.6" y="239.3" width="6" height="8" rx="1" fill="url(#windowGlow)" opacity="0.7963097903860312"/>
<rect x="1022.6" y="239.3" width="6" height="8" rx="1" fill="url(#windowGlow)" opacity="0.7789668674482809"/>
<rect x="1036.6" y="239.3" width="6" height="8" rx="1" fill="url(#windowGlow)" opacity="0.9094158808278925"/>
<rect x="1022.6" y="254.3" width="6" height="8" rx="1" fill="url(#windowGlow)" opacity="0.9256442552551832"/>
<rect x="1036.6" y="254.3" width="6" height="8" rx="1" fill="url(#windowGlow)" opacity="0.9809130453881403"/>
<rect x="224.8" y="212.7" width="61.4" height="87.3" rx="3" fill="url(#bldg_mint)" opacity="1"/>
<polygon points="224.8,212.7 255.5,193.9 286.2,212.7" fill="url(#roof_navyRoof)" opacity="1"/>
<rect x="252.5" y="222.7" width="6" height="8" rx="1" fill="url(#windowGlow)" opacity="0.8594626935010136"/>
<rect x="266.5" y="222.7" width="6" height="8" rx="1" fill="url(#windowGlow)" opacity="0.7039077181387262"/>
<rect x="252.5" y="237.7" width="6" height="8" rx="1" fill="url(#windowGlow)" opacity="0.7702335717017919"/>
<rect x="266.5" y="237.7" width="6" height="8" rx="1" fill="url(#windowGlow)" opacity="0.8633626529310655"/>
<rect x="238.5" y="252.7" width="6" height="8" rx="1" fill="url(#windowGlow)" opacity="0.8478775419517781"/>
<rect x="252.5" y="252.7" width="6" height="8" rx="1" fill="url(#windowGlow)" opacity="0.9345933764868384"/>
<rect x="266.5" y="252.7" width="6" height="8" rx="1" fill="url(#windowGlow)" opacity="0.8975147529027958"/>
<rect x="250.5" y="284.0" width="10" height="16" rx="2" fill="url(#roof_navyRoof)" opacity="0.8"/>
<rect x="252.5" y="287.0" width="6" height="10" rx="1" fill="url(#windowGlow)" opacity="0.45"/>
<path d="M231.0 243.3 L255.5 243.3 L252.5 249.3 L234.0 249.3 Z" fill="url(#roof_tealRoof)" opacity="0.8"/>
<rect x="512.0" y="180.2" width="84.6" height="119.8" rx="3" fill="url(#bldg_rose)" opacity="1"/>
<rect x="528.9" y="165.9" width="50.7" height="14.4" rx="2" fill="url(#roof_coralRoof)" opacity="1"/>
<rect x="530.3" y="190.2" width="6" height="8" rx="1" fill="url(#windowGlow)" opacity="0.9546219508883644"/>
<rect x="572.3" y="190.2" width="6" height="8" rx="1" fill="url(#windowGlow)" opacity="0.746283552118709"/>
<rect x="530.3" y="205.2" width="6" height="8" rx="1" fill="url(#windowGlow)" opacity="0.703981590226284"/>
<rect x="544.3" y="205.2" width="6" height="8" rx="1" fill="url(#windowGlow)" opacity="0.9963022105378574"/>
<rect x="558.3" y="205.2" width="6" height="8" rx="1" fill="url(#windowGlow)" opacity="0.9634697205216949"/>
<rect x="572.3" y="205.2" width="6" height="8" rx="1" fill="url(#windowGlow)" opacity="0.7194138628055405"/>
<rect x="530.3" y="220.2" width="6" height="8" rx="1" fill="url(#windowGlow)" opacity="0.8696832519349098"/>
<rect x="544.3" y="220.2" width="6" height="8" rx="1" fill="url(#windowGlow)" opacity="0.8360818329435222"/>
<rect x="572.3" y="220.2" width="6" height="8" rx="1" fill="url(#windowGlow)" opacity="0.7279725449289999"/>
<rect x="530.3" y="235.2" width="6" height="8" rx="1" fill="url(#windowGlow)" opacity="0.8381554407710933"/>
<rect x="544.3" y="235.2" width="6" height="8" rx="1" fill="url(#windowGlow)" opacity="0.9474175096710293"/>
<rect x="558.3" y="235.2" width="6" height="8" rx="1" fill="url(#windowGlow)" opacity="0.9766343187897626"/>
<rect x="572.3" y="235.2" width="6" height="8" rx="1" fill="url(#windowGlow)" opacity="0.8807603671125883"/>
<rect x="530.3" y="250.2" width="6" height="8" rx="1" fill="url(#windowGlow)" opacity="0.7260915824333631"/>
<rect x="544.3" y="250.2" width="6" height="8" rx="1" fill="url(#windowGlow)" opacity="0.7339554306277797"/>
<rect x="558.3" y="250.2" width="6" height="8" rx="1" fill="url(#windowGlow)" opacity="0.8537925041996839"/>
<rect x="572.3" y="250.2" width="6" height="8" rx="1" fill="url(#windowGlow)" opacity="0.9315231452842816"/>
<rect x="549.3" y="284.0" width="10" height="16" rx="2" fill="url(#roof_navyRoof)" opacity="0.8"/>
<rect x="551.3" y="287.0" width="6" height="10" rx="1" fill="url(#windowGlow)" opacity="0.45"/>
<rect x="539.5" y="206.2" width="29.6" height="5" rx="1" fill="#15803d" opacity="0.7"/>
<circle cx="542.5" cy="205.2" r="2.5" fill="#fb923c" opacity="0.85"/>
<circle cx="552.3" cy="205.2" r="2.5" fill="#f87171" opacity="0.85"/>
<circle cx="562.2" cy="205.2" r="2.5" fill="#f87171" opacity="0.85"/>
<rect x="929.7" y="211.7" width="51.1" height="88.3" rx="3" fill="url(#bldg_sky)" opacity="1"/>
<rect x="929.7" y="208.7" width="51.1" height="3" rx="1" fill="url(#roof_tealRoof)" opacity="1"/>
<rect x="945.3" y="221.7" width="6" height="8" rx="1" fill="url(#windowGlow)" opacity="0.7661972430377254"/>
<rect x="959.3" y="221.7" width="6" height="8" rx="1" fill="url(#windowGlow)" opacity="0.897151472837269"/>
<rect x="945.3" y="236.7" width="6" height="8" rx="1" fill="url(#windowGlow)" opacity="0.84490580439796"/>
<rect x="959.3" y="236.7" width="6" height="8" rx="1" fill="url(#windowGlow)" opacity="0.812954160763395"/>
<rect x="945.3" y="251.7" width="6" height="8" rx="1" fill="url(#windowGlow)" opacity="0.83376781131782"/>
<rect x="950.3" y="284.0" width="10" height="16" rx="2" fill="url(#roof_navyRoof)" opacity="0.8"/>
<rect x="952.3" y="287.0" width="6" height="10" rx="1" fill="url(#windowGlow)" opacity="0.45"/>
<path d="M955.3 242.6 L975.7 242.6 L972.7 248.6 L958.3 248.6 Z" fill="url(#roof_coralRoof)" opacity="0.8"/>
<rect x="396.1" y="248.8" width="6" height="36.2" rx="3" fill="#16a34a"/>
<rect x="381.5" y="267.3" width="14.6" height="5" rx="2.5" fill="#22c55e"/>
<rect x="381.5" y="255.9" width="5" height="13.9" rx="2.5" fill="#22c55e"/>
<rect x="760.1" y="244.4" width="6" height="40.6" rx="3" fill="#16a34a"/>
<rect x="745.6" y="255.1" width="14.6" height="5" rx="2.5" fill="#22c55e"/>
<rect x="745.6" y="244.1" width="5" height="13.5" rx="2.5" fill="#22c55e"/>
<rect x="766.1" y="257.7" width="13.5" height="5" rx="2.5" fill="#22c55e"/>
<rect x="777.2" y="244.3" width="5" height="16.0" rx="2.5" fill="#22c55e"/>
<rect x="180.7" y="247.2" width="6" height="37.8" rx="3" fill="#16a34a"/>
<rect x="167.4" y="265.0" width="13.4" height="5" rx="2.5" fill="#22c55e"/>
<rect x="167.4" y="254.1" width="5" height="13.4" rx="2.5" fill="#22c55e"/>
<rect x="186.7" y="258.2" width="11.3" height="5" rx="2.5" fill="#22c55e"/>
<rect x="195.5" y="250.2" width="5" height="10.5" rx="2.5" fill="#22c55e"/>
<rect x="1023.2" y="243.1" width="6" height="41.9" rx="3" fill="#16a34a"/>
<rect x="1011.0" y="259.0" width="12.2" height="5" rx="2.5" fill="#22c55e"/>
<rect x="1011.0" y="248.0" width="5" height="13.5" rx="2.5" fill="#22c55e"/>
<rect x="1029.2" y="265.2" width="13.0" height="5" rx="2.5" fill="#22c55e"/>
<rect x="1039.7" y="254.9" width="5" height="12.8" rx="2.5" fill="#22c55e"/>
<rect x="796.1" y="242.3" width="6" height="42.7" rx="3" fill="#16a34a"/>
<rect x="787.3" y="264.7" width="8.8" height="5" rx="2.5" fill="#22c55e"/>
<rect x="787.3" y="255.9" width="5" height="11.3" rx="2.5" fill="#22c55e"/>
<rect x="934.2" y="254.5" width="6" height="30.5" rx="3" fill="#16a34a"/>
<rect x="922.5" y="267.8" width="11.7" height="5" rx="2.5" fill="#22c55e"/>
<rect x="922.5" y="255.4" width="5" height="14.9" rx="2.5" fill="#22c55e"/>
<rect x="940.2" y="265.6" width="8.8" height="5" rx="2.5" fill="#22c55e"/>
<rect x="946.4" y="252.6" width="5" height="15.5" rx="2.5" fill="#22c55e"/>
<rect x="1050.0" y="242.8" width="6" height="42.2" rx="3" fill="#16a34a"/>
<rect x="1036.8" y="264.1" width="13.2" height="5" rx="2.5" fill="#22c55e"/>
<rect x="1036.8" y="255.1" width="5" height="11.4" rx="2.5" fill="#22c55e"/>
<rect x="0" y="282" width="1200" height="18" fill="url(#groundGrad)"/>
<line x1="292.6" y1="282.0" x2="292.6" y2="251.9" stroke="#92400e" stroke-width="2"/>
<circle cx="292.6" cy="251.9" r="4" fill="#fef08a" opacity="0.6"/>
<circle cx="292.6" cy="251.9" r="8" fill="#fef08a" opacity="0.15" filter="url(#softGlow)"/>
<line x1="220.8" y1="282.0" x2="220.8" y2="244.6" stroke="#92400e" stroke-width="2"/>
<circle cx="220.8" cy="244.6" r="4" fill="#fef08a" opacity="0.6"/>
<circle cx="220.8" cy="244.6" r="8" fill="#fef08a" opacity="0.15" filter="url(#softGlow)"/>
<ellipse cx="170.4" cy="282.0" rx="4.1" ry="2.9" fill="#22c55e" opacity="0.6"/>
<ellipse cx="1042.2" cy="282.0" rx="4.5" ry="3.2" fill="#22c55e" opacity="0.6"/>
<ellipse cx="392.7" cy="282.0" rx="6.6" ry="4.6" fill="#22c55e" opacity="0.6"/>
<ellipse cx="629.2" cy="282.0" rx="4.8" ry="3.4" fill="#22c55e" opacity="0.6"/>
</svg>