<svg xmlns="http://www.w3.org/2000/svg" viewBox="0 0 1200 300" width="1200" height="300">
<rect width="1200" height="300" fill="#f0e6d8"/>
<path d="M0 300 L0 210.0 C389.0 170.3, 1019.5 185.2, 1200 210.0 L1200 300 Z" fill="#e4c4a8" opacity="0.3"/>
<rect x="164.3" y="176.8" width="65.4" height="123.2" fill="#daae87"/>
<rect x="462.0" y="209.9" width="76.1" height="90.1" fill="#daae87"/>
<rect x="703.2" y="236.9" width="53.6" height="63.1" fill="#daae87"/>
<rect x="967.5" y="195.6" width="80.7" height="104.4" fill="#daae87"/>
<rect x="146.5" y="164.2" width="66.1" height="135.8" fill="#c98951"/>
<rect x="176.5" y="176.2" width="6" height="8" fill="#dcb28e" opacity="0.5"/>
<rect x="162.5" y="192.2" width="6" height="8" fill="#dcb28e" opacity="0.5"/>
<rect x="162.5" y="208.2" width="6" height="8" fill="#dcb28e" opacity="0.5"/>
<rect x="176.5" y="208.2" width="6" height="8" fill="#dcb28e" opacity="0.5"/>
<rect x="190.5" y="208.2" width="6" height="8" fill="#dcb28e" opacity="0.5"/>
<rect x="162.5" y="224.2" width="6" height="8" fill="#dcb28e" opacity="0.5"/>
<rect x="176.5" y="224.2" width="6" height="8" fill="#dcb28e" opacity="0.5"/>
<rect x="190.5" y="224.2" width="6" height="8" fill="#dcb28e" opacity="0.5"/>
<rect x="162.5" y="240.2" width="6" height="8" fill="#dcb28e" opacity="0.5"/>
<rect x="176.5" y="240.2" width="6" height="8" fill="#dcb28e" opacity="0.5"/>
<rect x="162.5" y="256.2" width="6" height="8" fill="#dcb28e" opacity="0.5"/>
<rect x="190.5" y="256.2" width="6" height="8" fill="#dcb28e" opacity="0.5"/>
<rect x="162.5" y="272.2" width="6" height="8" fill="#dcb28e" opacity="0.5"/>
<rect x="176.5" y="272.2" width="6" height="8" fill="#dcb28e" opacity="0.5"/>
<rect x="190.5" y="272.2" width="6" height="8" fill="#dcb28e" opacity="0.5"/>
<rect x="400.5" y="173.4" width="47.5" height="126.6" fill="#c98951"/>
<rect x="414.3" y="185.4" width="6" height="8" fill="#dcb28e" opacity="0.5"/>
<rect x="428.3" y="185.4" width="6" height="8" fill="#dcb28e" opacity="0.5"/>
<rect x="414.3" y="201.4" width="6" height="8" fill="#dcb28e" opacity="0.5"/>
<rect x="428.3" y="201.4" width="6" height="8" fill="#dcb28e" opacity="0.5"/>
<rect x="414.3" y="217.4" width="6" height="8" fill="#dcb28e" opacity="0.5"/>
<rect x="414.3" y="233.4" width="6" height="8" fill="#dcb28e" opacity="0.5"/>
<rect x="414.3" y="249.4" width="6" height="8" fill="#dcb28e" opacity="0.5"/>
<rect x="428.3" y="249.4" width="6" height="8" fill="#dcb28e" opacity="0.5"/>
<rect x="414.3" y="265.4" width="6" height="8" fill="#dcb28e" opacity="0.5"/>
<rect x="428.3" y="265.4" width="6" height="8" fill="#dcb28e" opacity="0.5"/>
<rect x="690.2" y="197.3" width="68.9" height="102.7" fill="#c98951"/>
<rect x="707.7" y="209.3" width="6" height="8" fill="#dcb28e" opacity="0.5"/>
<rect x="721.7" y="209.3" width="6" height="8" fill="#dcb28e" opacity="0.5"/>
<rect x="735.7" y="209.3" width="6" height="8" fill="#dcb28e" opacity="0.5"/>
<rect x="721.7" y="225.3" width="6" height="8" fill="#dcb28e" opacity="0.5"/>
<rect x="735.7" y="225.3" width="6" height="8" fill="#dcb28e" opacity="0.5"/>
<rect x="707.7" y="241.3" width="6" height="8" fill="#dcb28e" opacity="0.5"/>
<rect x="721.7" y="241.3" width="6" height="8" fill="#dcb28e" opacity="0.5"/>
<rect x="721.7" y="257.3" width="6" height="8" fill="#dcb28e" opacity="0.5"/>
<rect x="735.7" y="257.3" width="6" height="8" fill="#dcb28e" opacity="0.5"/>
<rect x="721.7" y="273.3" width="6" height="8" fill="#dcb28e" opacity="0.5"/>
<rect x="735.7" y="273.3" width="6" height="8" fill="#dcb28e" opacity="0.5"/>
<rect x="983.3" y="145.0" width="54.4" height="155.0" fill="#c98951"/>
<rect x="1000.5" y="157.0" width="6" height="8" fill="#dcb28e" opacity="0.5"/>
<rect x="1014.5" y="157.0" width="6" height="8" fill="#dcb28e" opacity="0.5"/>
<rect x="1000.5" y="173.0" width="6" height="8" fill="#dcb28e" opacity="0.5"/>
<rect x="1014.5" y="173.0" width="6" height="8" fill="#dcb28e" opacity="0.5"/>
<rect x="1000.5" y="189.0" width="6" height="8" fill="#dcb28e" opacity="0.5"/>
<rect x="1014.5" y="189.0" width="6" height="8" fill="#dcb28e" opacity="0.5"/>
<rect x="1000.5" y="221.0" width="6" height="8" fill="#dcb28e" opacity="0.5"/>
<rect x="1014.5" y="221.0" width="6" height="8" fill="#dcb28e" opacity="0.5"/>
<rect x="1014.5" y="237.0" width="6" height="8" fill="#dcb28e" opacity="0.5"/>
<rect x="1000.5" y="253.0" width="6" height="8" fill="#dcb28e" opacity="0.5"/>
<rect x="1000.5" y="269.0" width="6" height="8" fill="#dcb28e" opacity="0.5"/>
<rect x="1014.5" y="269.0" width="6" height="8" fill="#dcb28e" opacity="0.5"/>
<rect x="170.0" y="214.6" width="53.9" height="85.4" fill="#bc6c25"/>
<rect x="186.9" y="226.6" width="6" height="8" fill="#d39f71" opacity="0.5"/>
<rect x="200.9" y="226.6" width="6" height="8" fill="#d39f71" opacity="0.5"/>
<rect x="186.9" y="258.6" width="6" height="8" fill="#d39f71" opacity="0.5"/>
<rect x="200.9" y="258.6" width="6" height="8" fill="#d39f71" opacity="0.5"/>
<rect x="379.1" y="107.8" width="73.7" height="192.2" fill="#bc6c25"/>
<rect x="391.9" y="119.8" width="6" height="8" fill="#d39f71" opacity="0.5"/>
<rect x="419.9" y="119.8" width="6" height="8" fill="#d39f71" opacity="0.5"/>
<rect x="405.9" y="135.8" width="6" height="8" fill="#d39f71" opacity="0.5"/>
<rect x="433.9" y="135.8" width="6" height="8" fill="#d39f71" opacity="0.5"/>
<rect x="391.9" y="151.8" width="6" height="8" fill="#d39f71" opacity="0.5"/>
<rect x="419.9" y="151.8" width="6" height="8" fill="#d39f71" opacity="0.5"/>
<rect x="433.9" y="151.8" width="6" height="8" fill="#d39f71" opacity="0.5"/>
<rect x="405.9" y="167.8" width="6" height="8" fill="#d39f71" opacity="0.5"/>
<rect x="419.9" y="167.8" width="6" height="8" fill="#d39f71" opacity="0.5"/>
<rect x="405.9" y="183.8" width="6" height="8" fill="#d39f71" opacity="0.5"/>
<rect x="419.9" y="183.8" width="6" height="8" fill="#d39f71" opacity="0.5"/>
<rect x="433.9" y="183.8" width="6" height="8" fill="#d39f71" opacity="0.5"/>
<rect x="391.9" y="199.8" width="6" height="8" fill="#d39f71" opacity="0.5"/>
<rect x="433.9" y="199.8" width="6" height="8" fill="#d39f71" opacity="0.5"/>
<rect x="391.9" y="215.8" width="6" height="8" fill="#d39f71" opacity="0.5"/>
<rect x="405.9" y="215.8" width="6" height="8" fill="#d39f71" opacity="0.5"/>
<rect x="419.9" y="215.8" width="6" height="8" fill="#d39f71" opacity="0.5"/>
<rect x="433.9" y="215.8" width="6" height="8" fill="#d39f71" opacity="0.5"/>
<rect x="391.9" y="231.8" width="6" height="8" fill="#d39f71" opacity="0.5"/>
<rect x="405.9" y="231.8" width="6" height="8" fill="#d39f71" opacity="0.5"/>
<rect x="419.9" y="231.8" width="6" height="8" fill="#d39f71" opacity="0.5"/>
<rect x="433.9" y="231.8" width="6" height="8" fill="#d39f71" opacity="0.5"/>
<rect x="405.9" y="247.8" width="6" height="8" fill="#d39f71" opacity="0.5"/>
<rect x="419.9" y="247.8" width="6" height="8" fill="#d39f71" opacity="0.5"/>
<rect x="433.9" y="247.8" width="6" height="8" fill="#d39f71" opacity="0.5"/>
<rect x="405.9" y="263.8" width="6" height="8" fill="#d39f71" opacity="0.5"/>
<rect x="419.9" y="263.8" width="6" height="8" fill="#d39f71" opacity="0.5"/>
<rect x="433.9" y="263.8" width="6" height="8" fill="#d39f71" opacity="0.5"/>
<rect x="711.8" y="112.9" width="41.1" height="187.1" fill="#bc6c25"/>
<rect x="729.4" y="124.9" width="6" height="8" fill="#d39f71" opacity="0.5"/>
<rect x="729.4" y="140.9" width="6" height="8" fill="#d39f71" opacity="0.5"/>
<rect x="729.4" y="156.9" width="6" height="8" fill="#d39f71" opacity="0.5"/>
<rect x="729.4" y="188.9" width="6" height="8" fill="#d39f71" opacity="0.5"/>
<rect x="729.4" y="204.9" width="6" height="8" fill="#d39f71" opacity="0.5"/>
<rect x="729.4" y="220.9" width="6" height="8" fill="#d39f71" opacity="0.5"/>
<rect x="729.4" y="236.9" width="6" height="8" fill="#d39f71" opacity="0.5"/>
<rect x="969.3" y="117.0" width="51.9" height="183.0" fill="#bc6c25"/>
<rect x="985.2" y="129.0" width="6" height="8" fill="#d39f71" opacity="0.5"/>
<rect x="985.2" y="145.0" width="6" height="8" fill="#d39f71" opacity="0.5"/>
<rect x="999.2" y="145.0" width="6" height="8" fill="#d39f71" opacity="0.5"/>
<rect x="985.2" y="161.0" width="6" height="8" fill="#d39f71" opacity="0.5"/>
<rect x="999.2" y="193.0" width="6" height="8" fill="#d39f71" opacity="0.5"/>
<rect x="985.2" y="209.0" width="6" height="8" fill="#d39f71" opacity="0.5"/>
<rect x="999.2" y="209.0" width="6" height="8" fill="#d39f71" opacity="0.5"/>
<rect x="985.2" y="225.0" width="6" height="8" fill="#d39f71" opacity="0.5"/>
<rect x="999.2" y="225.0" width="6" height="8" fill="#d39f71" opacity="0.5"/>
<rect x="985.2" y="241.0" width="6" height="8" fill="#d39f71" opacity="0.5"/>
<rect x="999.2" y="241.0" width="6" height="8" fill="#d39f71" opacity="0.5"/>
<rect x="985.2" y="257.0" width="6" height="8" fill="#d39f71" opacity="0.5"/>
<rect x="999.2" y="257.0" width="6" height="8" fill="#d39f71" opacity="0.5"/>
<rect x="985.2" y="273.0" width="6" height="8" fill="#d39f71" opacity="0.5"/>
<rect x="0" y="298" width="1200" height="2" fill="#a96121" opacity="0.15"/>
</svg>