<svg xmlns="http://www.w3.org/2000/svg" viewBox="0 0 1200 300" width="1200" height="300">
<defs><linearGradient id="skyGrad" x1="0" y1="0" x2="0" y2="1"><stop offset="0%" stop-color="#e8f0f8"/><stop offset="100%" stop-color="#f5e6d8"/></linearGradient></defs><rect width="1200" height="300" fill="url(#skyGrad)"/>
<rect x="0" y="229.1" width="1200" height="70.9" fill="#82acc5" opacity="0.6"/>
<path d="M0 252.8 Q75.0 255.3 150.0 252.3 Q225.0 254.3 300.0 252.9 Q375.0 254.1 450.0 253.5 Q525.0 255.3 600.0 252.1 Q675.0 253.5 750.0 253.1 Q825.0 253.8 900.0 253.2 Q975.0 254.0 1050.0 252.4 Q1125.0 250.2 1200.0 254.3" fill="none" stroke="#9fc0d2" stroke-width="1" opacity="0.4"/>
<path d="M0 276.4 Q75.0 277.0 150.0 274.9 Q225.0 275.0 300.0 274.5 Q375.0 278.0 450.0 277.4 Q525.0 276.3 600.0 274.6 Q675.0 277.9 750.0 275.6 Q825.0 278.1 900.0 277.4 Q975.0 274.1 1050.0 275.3 Q1125.0 274.4 1200.0 276.1" fill="none" stroke="#9fc0d2" stroke-width="1" opacity="0.4"/>
<rect x="119.8" y="234.2" width="81.8" height="65.8" fill="#8aabb4"/>
<rect x="134.1" y="222.6" width="53.1" height="11.6" fill="#83a2ab"/>
<rect x="396.7" y="226.0" width="44.8" height="74.0" fill="#8aabb4"/>
<rect x="687.6" y="206.8" width="81.1" height="93.2" fill="#8aabb4"/>
<rect x="957.9" y="180.4" width="89.5" height="119.6" fill="#8aabb4"/>
<polygon points="957.9,180.4 1002.6,158.1 1047.4,180.4" fill="#7f9da6"/>
<rect x="124.4" y="192.7" width="58.3" height="107.3" fill="#558592"/>
<rect x="134.6" y="173.8" width="37.9" height="18.9" fill="#517e8b"/>
<rect x="150.5" y="185.8" width="6" height="8" fill="#91b0b8" opacity="0.5"/>
<rect x="164.5" y="185.8" width="6" height="8" fill="#91b0b8" opacity="0.5"/>
<rect x="136.5" y="201.8" width="6" height="8" fill="#91b0b8" opacity="0.5"/>
<rect x="150.5" y="201.8" width="6" height="8" fill="#91b0b8" opacity="0.5"/>
<rect x="164.5" y="201.8" width="6" height="8" fill="#91b0b8" opacity="0.5"/>
<rect x="136.5" y="217.8" width="6" height="8" fill="#91b0b8" opacity="0.5"/>
<rect x="150.5" y="217.8" width="6" height="8" fill="#91b0b8" opacity="0.5"/>
<rect x="136.5" y="233.8" width="6" height="8" fill="#91b0b8" opacity="0.5"/>
<rect x="150.5" y="233.8" width="6" height="8" fill="#91b0b8" opacity="0.5"/>
<rect x="136.5" y="249.8" width="6" height="8" fill="#91b0b8" opacity="0.5"/>
<rect x="164.5" y="249.8" width="6" height="8" fill="#91b0b8" opacity="0.5"/>
<rect x="344.2" y="213.9" width="45.7" height="86.1" fill="#558592"/>
<polygon points="344.2,213.9 367.1,202.5 389.9,213.9" fill="#4e7a86"/>
<rect x="357.1" y="241.9" width="6" height="8" fill="#91b0b8" opacity="0.5"/>
<rect x="357.1" y="257.9" width="6" height="8" fill="#91b0b8" opacity="0.5"/>
<rect x="357.1" y="273.9" width="6" height="8" fill="#91b0b8" opacity="0.5"/>
<rect x="371.1" y="273.9" width="6" height="8" fill="#91b0b8" opacity="0.5"/>
<rect x="587.4" y="145.7" width="46.9" height="154.3" fill="#558592"/>
<rect x="600.9" y="157.7" width="6" height="8" fill="#91b0b8" opacity="0.5"/>
<rect x="614.9" y="157.7" width="6" height="8" fill="#91b0b8" opacity="0.5"/>
<rect x="614.9" y="173.7" width="6" height="8" fill="#91b0b8" opacity="0.5"/>
<rect x="614.9" y="189.7" width="6" height="8" fill="#91b0b8" opacity="0.5"/>
<rect x="614.9" y="205.7" width="6" height="8" fill="#91b0b8" opacity="0.5"/>
<rect x="600.9" y="221.7" width="6" height="8" fill="#91b0b8" opacity="0.5"/>
<rect x="600.9" y="237.7" width="6" height="8" fill="#91b0b8" opacity="0.5"/>
<rect x="809.0" y="193.3" width="74.2" height="106.7" fill="#558592"/>
<rect x="843.2" y="221.3" width="6" height="8" fill="#91b0b8" opacity="0.5"/>
<rect x="857.2" y="221.3" width="6" height="8" fill="#91b0b8" opacity="0.5"/>
<rect x="829.2" y="237.3" width="6" height="8" fill="#91b0b8" opacity="0.5"/>
<rect x="857.2" y="237.3" width="6" height="8" fill="#91b0b8" opacity="0.5"/>
<rect x="829.2" y="253.3" width="6" height="8" fill="#91b0b8" opacity="0.5"/>
<rect x="843.2" y="253.3" width="6" height="8" fill="#91b0b8" opacity="0.5"/>
<rect x="857.2" y="253.3" width="6" height="8" fill="#91b0b8" opacity="0.5"/>
<rect x="829.2" y="269.3" width="6" height="8" fill="#91b0b8" opacity="0.5"/>
<rect x="843.2" y="269.3" width="6" height="8" fill="#91b0b8" opacity="0.5"/>
<rect x="1041.1" y="200.0" width="58.0" height="100.0" fill="#558592"/>
<polygon points="1041.1,200.0 1070.1,185.5 1099.1,200.0" fill="#4e7a86"/>
<rect x="1060.1" y="228.0" width="6" height="8" fill="#91b0b8" opacity="0.5"/>
<rect x="1074.1" y="228.0" width="6" height="8" fill="#91b0b8" opacity="0.5"/>
<rect x="1060.1" y="244.0" width="6" height="8" fill="#91b0b8" opacity="0.5"/>
<rect x="1074.1" y="244.0" width="6" height="8" fill="#91b0b8" opacity="0.5"/>
<rect x="1074.1" y="260.0" width="6" height="8" fill="#91b0b8" opacity="0.5"/>
<rect x="152.2" y="145.3" width="63.7" height="154.7" fill="#2b6777"/>
<polygon points="152.2,145.3 184.0,129.3 215.9,145.3" fill="#285f6d"/>
<rect x="167.0" y="157.3" width="6" height="8" fill="#759ca7" opacity="0.5"/>
<rect x="181.0" y="157.3" width="6" height="8" fill="#759ca7" opacity="0.5"/>
<rect x="195.0" y="157.3" width="6" height="8" fill="#759ca7" opacity="0.5"/>
<rect x="167.0" y="173.3" width="6" height="8" fill="#759ca7" opacity="0.5"/>
<rect x="181.0" y="173.3" width="6" height="8" fill="#759ca7" opacity="0.5"/>
<rect x="167.0" y="189.3" width="6" height="8" fill="#759ca7" opacity="0.5"/>
<rect x="195.0" y="189.3" width="6" height="8" fill="#759ca7" opacity="0.5"/>
<rect x="167.0" y="205.3" width="6" height="8" fill="#759ca7" opacity="0.5"/>
<rect x="195.0" y="205.3" width="6" height="8" fill="#759ca7" opacity="0.5"/>
<rect x="181.0" y="221.3" width="6" height="8" fill="#759ca7" opacity="0.5"/>
<rect x="195.0" y="221.3" width="6" height="8" fill="#759ca7" opacity="0.5"/>
<rect x="167.0" y="237.3" width="6" height="8" fill="#759ca7" opacity="0.5"/>
<rect x="195.0" y="237.3" width="6" height="8" fill="#759ca7" opacity="0.5"/>
<rect x="448.2" y="205.0" width="35.9" height="95.0" fill="#2b6777"/>
<rect x="463.1" y="217.0" width="6" height="8" fill="#759ca7" opacity="0.5"/>
<rect x="463.1" y="233.0" width="6" height="8" fill="#759ca7" opacity="0.5"/>
<rect x="463.1" y="249.0" width="6" height="8" fill="#759ca7" opacity="0.5"/>
<rect x="463.1" y="265.0" width="6" height="8" fill="#759ca7" opacity="0.5"/>
<rect x="688.0" y="206.1" width="47.5" height="93.9" fill="#2b6777"/>
<rect x="715.8" y="234.1" width="6" height="8" fill="#759ca7" opacity="0.5"/>
<rect x="701.8" y="266.1" width="6" height="8" fill="#759ca7" opacity="0.5"/>
<rect x="715.8" y="266.1" width="6" height="8" fill="#759ca7" opacity="0.5"/>
<rect x="1030.8" y="155.7" width="51.0" height="144.3" fill="#2b6777"/>
<rect x="1060.3" y="167.7" width="6" height="8" fill="#759ca7" opacity="0.5"/>
<rect x="1046.3" y="183.7" width="6" height="8" fill="#759ca7" opacity="0.5"/>
<rect x="1060.3" y="183.7" width="6" height="8" fill="#759ca7" opacity="0.5"/>
<rect x="1060.3" y="199.7" width="6" height="8" fill="#759ca7" opacity="0.5"/>
<rect x="1046.3" y="215.7" width="6" height="8" fill="#759ca7" opacity="0.5"/>
<rect x="1046.3" y="231.7" width="6" height="8" fill="#759ca7" opacity="0.5"/>
<rect x="1060.3" y="247.7" width="6" height="8" fill="#759ca7" opacity="0.5"/>
<path d="M332.0 285.0 Q361.0 262.2 352.3 239.3" fill="none" stroke="#897154" stroke-width="3"/>
<path d="M352.3 239.3 Q339.3 229.6 330.6 229.9" fill="none" stroke="#45833b" stroke-width="2.5"/>
<path d="M352.3 239.3 Q355.9 228.9 358.2 228.4" fill="none" stroke="#45833b" stroke-width="2.5"/>
<path d="M352.3 239.3 Q367.4 234.3 377.4 239.3" fill="none" stroke="#45833b" stroke-width="2.5"/>
<path d="M352.3 239.3 Q356.2 240.3 358.8 251.3" fill="none" stroke="#45833b" stroke-width="2.5"/>
<path d="M352.3 239.3 Q341.1 238.4 333.6 247.5" fill="none" stroke="#45833b" stroke-width="2.5"/>
<path d="M586.0 285.0 Q614.0 256.0 605.6 227.1" fill="none" stroke="#7d674c" stroke-width="3"/>
<path d="M605.6 227.1 Q596.3 218.7 590.2 220.4" fill="none" stroke="#48883d" stroke-width="2.5"/>
<path d="M605.6 227.1 Q611.0 213.6 614.7 210.2" fill="none" stroke="#48883d" stroke-width="2.5"/>
<path d="M605.6 227.1 Q620.9 222.1 631.1 227.1" fill="none" stroke="#48883d" stroke-width="2.5"/>
<path d="M605.6 227.1 Q609.5 228.1 612.1 239.0" fill="none" stroke="#48883d" stroke-width="2.5"/>
<path d="M605.6 227.1 Q595.1 225.9 588.1 234.7" fill="none" stroke="#48883d" stroke-width="2.5"/>
<path d="M883.2 285.0 Q911.1 263.2 902.7 241.4" fill="none" stroke="#7e684d" stroke-width="3"/>
<path d="M902.7 241.4 Q888.7 231.4 879.4 231.3" fill="none" stroke="#437e39" stroke-width="2.5"/>
<path d="M902.7 241.4 Q907.7 228.7 911.1 226.0" fill="none" stroke="#437e39" stroke-width="2.5"/>
<path d="M902.7 241.4 Q913.6 236.4 920.9 241.4" fill="none" stroke="#437e39" stroke-width="2.5"/>
<path d="M902.7 241.4 Q906.3 241.9 908.7 252.4" fill="none" stroke="#437e39" stroke-width="2.5"/>
<path d="M902.7 241.4 Q890.6 240.8 882.6 250.2" fill="none" stroke="#437e39" stroke-width="2.5"/>
<path d="M705.5 285.0 Q732.4 263.4 724.3 241.7" fill="none" stroke="#776249" stroke-width="3"/>
<path d="M724.3 241.7 Q714.8 233.3 708.4 234.8" fill="none" stroke="#46843c" stroke-width="2.5"/>
<path d="M724.3 241.7 Q727.9 231.2 730.3 230.6" fill="none" stroke="#46843c" stroke-width="2.5"/>
<path d="M724.3 241.7 Q740.6 236.7 751.5 241.7" fill="none" stroke="#46843c" stroke-width="2.5"/>
<path d="M724.3 241.7 Q729.6 244.8 733.1 257.9" fill="none" stroke="#46843c" stroke-width="2.5"/>
<path d="M724.3 241.7 Q711.7 241.3 703.2 250.9" fill="none" stroke="#46843c" stroke-width="2.5"/>
<path d="M944.7 285.0 Q966.1 263.8 959.7 242.6" fill="none" stroke="#7a654a" stroke-width="3"/>
<path d="M959.7 242.6 Q946.0 232.6 936.8 232.6" fill="none" stroke="#44813a" stroke-width="2.5"/>
<path d="M959.7 242.6 Q963.5 231.7 966.0 230.9" fill="none" stroke="#44813a" stroke-width="2.5"/>
<path d="M959.7 242.6 Q972.0 237.6 980.2 242.6" fill="none" stroke="#44813a" stroke-width="2.5"/>
<path d="M959.7 242.6 Q963.5 243.5 966.1 254.4" fill="none" stroke="#44813a" stroke-width="2.5"/>
<path d="M959.7 242.6 Q947.1 242.1 938.6 251.7" fill="none" stroke="#44813a" stroke-width="2.5"/>
<path d="M185.9 285.0 Q215.7 259.6 206.8 234.2" fill="none" stroke="#8a7255" stroke-width="3"/>
<path d="M206.8 234.2 Q192.6 224.0 183.2 223.9" fill="none" stroke="#44813a" stroke-width="2.5"/>
<path d="M206.8 234.2 Q211.8 221.4 215.1 218.7" fill="none" stroke="#44813a" stroke-width="2.5"/>
<path d="M206.8 234.2 Q219.5 229.2 227.9 234.2" fill="none" stroke="#44813a" stroke-width="2.5"/>
<path d="M206.8 234.2 Q211.1 235.8 214.0 247.4" fill="none" stroke="#44813a" stroke-width="2.5"/>
<path d="M206.8 234.2 Q192.6 234.3 183.2 244.4" fill="none" stroke="#44813a" stroke-width="2.5"/>
<rect x="0" y="285" width="1200" height="15" fill="#d4c5a9" opacity="0.4"/>
<circle cx="1028.4" cy="30.9" r="36.2" fill="#f5e6a0" opacity="0.1"/>
</svg>