<svg xmlns="http://www.w3.org/2000/svg" viewBox="0 0 1200 300" width="1200" height="300">
<defs>
<linearGradient id="skyGrad" x1="0" y1="0" x2="0" y2="1">
<stop offset="0%" stop-color="#a78bfa"/>
<stop offset="18%" stop-color="#ddb4f0"/>
<stop offset="35%" stop-color="#fda4af"/>
<stop offset="52%" stop-color="#fdba74"/>
<stop offset="72%" stop-color="#fef08a"/>
<stop offset="100%" stop-color="#fef9c3"/>
</linearGradient>
<linearGradient id="bldg_coral" x1="0" y1="0" x2="0" y2="1"><stop offset="0%" stop-color="#fecaca"/><stop offset="100%" stop-color="#fca5a5"/></linearGradient>
<linearGradient id="bldg_teal" x1="0" y1="0" x2="0" y2="1"><stop offset="0%" stop-color="#99f6e4"/><stop offset="100%" stop-color="#5eead4"/></linearGradient>
<linearGradient id="bldg_amber" x1="0" y1="0" x2="0" y2="1"><stop offset="0%" stop-color="#fde68a"/><stop offset="100%" stop-color="#fcd34d"/></linearGradient>
<linearGradient id="bldg_lavender" x1="0" y1="0" x2="0" y2="1"><stop offset="0%" stop-color="#ddd6fe"/><stop offset="100%" stop-color="#c4b5fd"/></linearGradient>
<linearGradient id="bldg_blue" x1="0" y1="0" x2="0" y2="1"><stop offset="0%" stop-color="#bfdbfe"/><stop offset="100%" stop-color="#93c5fd"/></linearGradient>
<linearGradient id="bldg_mint" x1="0" y1="0" x2="0" y2="1"><stop offset="0%" stop-color="#a7f3d0"/><stop offset="100%" stop-color="#6ee7b7"/></linearGradient>
<linearGradient id="bldg_rose" x1="0" y1="0" x2="0" y2="1"><stop offset="0%" stop-color="#fecdd3"/><stop offset="100%" stop-color="#fda4af"/></linearGradient>
<linearGradient id="bldg_sky" x1="0" y1="0" x2="0" y2="1"><stop offset="0%" stop-color="#bae6fd"/><stop offset="100%" stop-color="#7dd3fc"/></linearGradient>
<linearGradient id="roof_navyRoof" x1="0" y1="0" x2="0" y2="1"><stop offset="0%" stop-color="#4338ca"/><stop offset="100%" stop-color="#3730a3"/></linearGradient>
<linearGradient id="roof_coralRoof" x1="0" y1="0" x2="0" y2="1"><stop offset="0%" stop-color="#f87171"/><stop offset="100%" stop-color="#ef4444"/></linearGradient>
<linearGradient id="roof_tealRoof" x1="0" y1="0" x2="0" y2="1"><stop offset="0%" stop-color="#2dd4bf"/><stop offset="100%" stop-color="#14b8a6"/></linearGradient>
<radialGradient id="windowGlow" cx="50%" cy="50%" r="50%"><stop offset="0%" stop-color="#fef08a"/><stop offset="60%" stop-color="#fbbf24"/><stop offset="100%" stop-color="#f59e0b"/></radialGradient>
<linearGradient id="hillFar" x1="0" y1="0" x2="0" y2="1"><stop offset="0%" stop-color="#c4b5fd"/><stop offset="100%" stop-color="#a5b4fc"/></linearGradient>
<linearGradient id="hillMid" x1="0" y1="0" x2="0" y2="1"><stop offset="0%" stop-color="#86efac"/><stop offset="100%" stop-color="#4ade80"/></linearGradient>
<linearGradient id="hillNear" x1="0" y1="0" x2="0" y2="1"><stop offset="0%" stop-color="#34d399"/><stop offset="100%" stop-color="#10b981"/></linearGradient>
<linearGradient id="hillDesertFar" x1="0" y1="0" x2="0" y2="1"><stop offset="0%" stop-color="#fde68a"/><stop offset="100%" stop-color="#fcd34d"/></linearGradient>
<linearGradient id="hillDesertMid" x1="0" y1="0" x2="0" y2="1"><stop offset="0%" stop-color="#fcd34d"/><stop offset="100%" stop-color="#fbbf24"/></linearGradient>
<linearGradient id="hillDesertNear" x1="0" y1="0" x2="0" y2="1"><stop offset="0%" stop-color="#fbbf24"/><stop offset="100%" stop-color="#f59e0b"/></linearGradient>
<linearGradient id="groundGrad" x1="0" y1="0" x2="0" y2="1"><stop offset="0%" stop-color="#fef3c7"/><stop offset="100%" stop-color="#fde68a"/></linearGradient>
<linearGradient id="waterGrad" x1="0" y1="0" x2="0" y2="1"><stop offset="0%" stop-color="#bfdbfe"/><stop offset="100%" stop-color="#93c5fd"/></linearGradient>
<filter id="softGlow" x="-50%" y="-50%" width="200%" height="200%"><feGaussianBlur in="SourceGraphic" stdDeviation="12"/></filter>
</defs>
<rect width="1200" height="300" fill="url(#skyGrad)"/>
<circle cx="973.4" cy="45.4" r="45" fill="#fef08a" opacity="0.12" filter="url(#softGlow)"/>
<circle cx="973.4" cy="45.4" r="30" fill="#fde68a" opacity="0.18" filter="url(#softGlow)"/>
<circle cx="973.4" cy="45.4" r="16" fill="#fef9c3" opacity="0.25" filter="url(#softGlow)"/>
<path d="M0 300 L0.0 192.7 C241.6 192.7, 241.6 181.9, 483.3 181.9 C633.9 181.9, 633.9 184.6, 784.5 184.6 C992.3 184.6, 992.3 197.8, 1200.0 197.8 L1200 300 Z" fill="url(#hillFar)" opacity="0.5"/>
<path d="M0 300 L0.0 203.5 C168.2 203.5, 168.2 212.5, 336.4 212.5 C591.9 212.5, 591.9 203.2, 847.3 203.2 C1023.7 203.2, 1023.7 216.2, 1200.0 216.2 L1200 300 Z" fill="url(#hillMid)" opacity="0.7"/>
<path d="M0 300 L0.0 236.3 C155.7 236.3, 155.7 233.8, 311.4 233.8 C576.8 233.8, 576.8 231.0, 842.2 231.0 C1021.1 231.0, 1021.1 236.1, 1200.0 236.1 L1200 300 Z" fill="url(#hillNear)" opacity="1"/>
<rect x="110.6" y="190.4" width="66.5" height="109.6" rx="3" fill="url(#bldg_rose)" opacity="0.7"/>
<polygon points="110.6,190.4 143.9,172.6 177.1,190.4" fill="url(#roof_coralRoof)" opacity="0.7"/>
<rect x="126.9" y="200.4" width="6" height="8" rx="1" fill="url(#windowGlow)" opacity="0.9340807180544737"/>
<rect x="140.9" y="200.4" width="6" height="8" rx="1" fill="url(#windowGlow)" opacity="0.70334564685046"/>
<rect x="154.9" y="200.4" width="6" height="8" rx="1" fill="url(#windowGlow)" opacity="0.9231011183574335"/>
<rect x="126.9" y="215.4" width="6" height="8" rx="1" fill="url(#windowGlow)" opacity="0.8903433859768991"/>
<rect x="140.9" y="215.4" width="6" height="8" rx="1" fill="url(#windowGlow)" opacity="0.8563321522699352"/>
<rect x="154.9" y="215.4" width="6" height="8" rx="1" fill="url(#windowGlow)" opacity="0.8805940932038212"/>
<rect x="126.9" y="230.4" width="6" height="8" rx="1" fill="url(#windowGlow)" opacity="0.8485341710264487"/>
<rect x="140.9" y="230.4" width="6" height="8" rx="1" fill="url(#windowGlow)" opacity="0.9293881338692215"/>
<rect x="154.9" y="230.4" width="6" height="8" rx="1" fill="url(#windowGlow)" opacity="0.7674605372210315"/>
<rect x="126.9" y="245.4" width="6" height="8" rx="1" fill="url(#windowGlow)" opacity="0.7392410622626734"/>
<rect x="140.9" y="245.4" width="6" height="8" rx="1" fill="url(#windowGlow)" opacity="0.8095778399191693"/>
<rect x="154.9" y="245.4" width="6" height="8" rx="1" fill="url(#windowGlow)" opacity="0.7191099308054474"/>
<rect x="126.9" y="260.4" width="6" height="8" rx="1" fill="url(#windowGlow)" opacity="0.9701220467547522"/>
<rect x="154.9" y="260.4" width="6" height="8" rx="1" fill="url(#windowGlow)" opacity="0.7638832701667599"/>
<rect x="326.3" y="215.9" width="73.4" height="84.1" rx="3" fill="url(#bldg_sky)" opacity="0.7"/>
<rect x="341.0" y="205.8" width="44.0" height="10.1" rx="2" fill="url(#roof_tealRoof)" opacity="0.7"/>
<rect x="339.0" y="225.9" width="6" height="8" rx="1" fill="url(#windowGlow)" opacity="0.7210181001206013"/>
<rect x="353.0" y="225.9" width="6" height="8" rx="1" fill="url(#windowGlow)" opacity="0.7269704128275487"/>
<rect x="367.0" y="225.9" width="6" height="8" rx="1" fill="url(#windowGlow)" opacity="0.7312038967065531"/>
<rect x="381.0" y="225.9" width="6" height="8" rx="1" fill="url(#windowGlow)" opacity="0.9963018970546786"/>
<rect x="339.0" y="240.9" width="6" height="8" rx="1" fill="url(#windowGlow)" opacity="0.9399203047807888"/>
<rect x="353.0" y="240.9" width="6" height="8" rx="1" fill="url(#windowGlow)" opacity="0.9805788017718953"/>
<rect x="367.0" y="240.9" width="6" height="8" rx="1" fill="url(#windowGlow)" opacity="0.9517718068099449"/>
<rect x="381.0" y="240.9" width="6" height="8" rx="1" fill="url(#windowGlow)" opacity="0.9277340856975569"/>
<rect x="367.0" y="255.9" width="6" height="8" rx="1" fill="url(#windowGlow)" opacity="0.8108616876466487"/>
<rect x="381.0" y="255.9" width="6" height="8" rx="1" fill="url(#windowGlow)" opacity="0.8993360789955296"/>
<rect x="556.8" y="184.2" width="82.5" height="115.8" rx="3" fill="url(#bldg_coral)" opacity="0.7"/>
<polygon points="556.8,184.2 598.0,166.8 639.3,184.2" fill="url(#roof_navyRoof)" opacity="0.7"/>
<rect x="574.0" y="194.2" width="6" height="8" rx="1" fill="url(#windowGlow)" opacity="0.9152104206919718"/>
<rect x="588.0" y="194.2" width="6" height="8" rx="1" fill="url(#windowGlow)" opacity="0.8299967288179307"/>
<rect x="602.0" y="194.2" width="6" height="8" rx="1" fill="url(#windowGlow)" opacity="0.840124054085521"/>
<rect x="574.0" y="209.2" width="6" height="8" rx="1" fill="url(#windowGlow)" opacity="0.8895007366265639"/>
<rect x="588.0" y="209.2" width="6" height="8" rx="1" fill="url(#windowGlow)" opacity="0.9976564926550054"/>
<rect x="602.0" y="209.2" width="6" height="8" rx="1" fill="url(#windowGlow)" opacity="0.7480881891437285"/>
<rect x="616.0" y="209.2" width="6" height="8" rx="1" fill="url(#windowGlow)" opacity="0.9171231205654904"/>
<rect x="588.0" y="224.2" width="6" height="8" rx="1" fill="url(#windowGlow)" opacity="0.8376896292146712"/>
<rect x="602.0" y="224.2" width="6" height="8" rx="1" fill="url(#windowGlow)" opacity="0.976881077129804"/>
<rect x="574.0" y="239.2" width="6" height="8" rx="1" fill="url(#windowGlow)" opacity="0.9280516258571536"/>
<rect x="588.0" y="239.2" width="6" height="8" rx="1" fill="url(#windowGlow)" opacity="0.9357116149904725"/>
<rect x="602.0" y="239.2" width="6" height="8" rx="1" fill="url(#windowGlow)" opacity="0.9412922774633822"/>
<rect x="616.0" y="239.2" width="6" height="8" rx="1" fill="url(#windowGlow)" opacity="0.873555876302326"/>
<rect x="574.0" y="254.2" width="6" height="8" rx="1" fill="url(#windowGlow)" opacity="0.8677694487235366"/>
<rect x="588.0" y="254.2" width="6" height="8" rx="1" fill="url(#windowGlow)" opacity="0.7839463067631918"/>
<rect x="602.0" y="254.2" width="6" height="8" rx="1" fill="url(#windowGlow)" opacity="0.9134878070156498"/>
<rect x="616.0" y="254.2" width="6" height="8" rx="1" fill="url(#windowGlow)" opacity="0.8285955052490325"/>
<rect x="793.6" y="213.9" width="58.4" height="86.1" rx="3" fill="url(#bldg_teal)" opacity="0.7"/>
<rect x="793.6" y="210.9" width="58.4" height="3" rx="1" fill="url(#roof_coralRoof)" opacity="0.7"/>
<rect x="805.7" y="223.9" width="6" height="8" rx="1" fill="url(#windowGlow)" opacity="0.7718058739657541"/>
<rect x="819.7" y="223.9" width="6" height="8" rx="1" fill="url(#windowGlow)" opacity="0.7922200296037923"/>
<rect x="833.7" y="223.9" width="6" height="8" rx="1" fill="url(#windowGlow)" opacity="0.7782513971339219"/>
<rect x="805.7" y="238.9" width="6" height="8" rx="1" fill="url(#windowGlow)" opacity="0.8502445617924651"/>
<rect x="819.7" y="238.9" width="6" height="8" rx="1" fill="url(#windowGlow)" opacity="0.8552295849915731"/>
<rect x="833.7" y="238.9" width="6" height="8" rx="1" fill="url(#windowGlow)" opacity="0.8714199141000489"/>
<rect x="805.7" y="253.9" width="6" height="8" rx="1" fill="url(#windowGlow)" opacity="0.8031247205115504"/>
<rect x="819.7" y="253.9" width="6" height="8" rx="1" fill="url(#windowGlow)" opacity="0.8963246902899465"/>
<rect x="833.7" y="253.9" width="6" height="8" rx="1" fill="url(#windowGlow)" opacity="0.7119962271824462"/>
<rect x="1016.4" y="190.1" width="47.2" height="109.9" rx="3" fill="url(#bldg_amber)" opacity="0.7"/>
<rect x="1025.8" y="176.9" width="28.3" height="13.2" rx="2" fill="url(#roof_tealRoof)" opacity="0.7"/>
<rect x="1030.0" y="200.1" width="6" height="8" rx="1" fill="url(#windowGlow)" opacity="0.8187996049033476"/>
<rect x="1030.0" y="215.1" width="6" height="8" rx="1" fill="url(#windowGlow)" opacity="0.8045421721434882"/>
<rect x="1030.0" y="230.1" width="6" height="8" rx="1" fill="url(#windowGlow)" opacity="0.9393202958811634"/>
<rect x="1030.0" y="245.1" width="6" height="8" rx="1" fill="url(#windowGlow)" opacity="0.718049201237992"/>
<rect x="1044.0" y="245.1" width="6" height="8" rx="1" fill="url(#windowGlow)" opacity="0.9656360669832844"/>
<rect x="1044.0" y="260.1" width="6" height="8" rx="1" fill="url(#windowGlow)" opacity="0.7865044557892272"/>
<rect x="101.4" y="188.0" width="70.2" height="112.0" rx="3" fill="url(#bldg_lavender)" opacity="0.85"/>
<polygon points="101.4,188.0 136.6,171.3 171.7,188.0" fill="url(#roof_navyRoof)" opacity="0.85"/>
<rect x="119.6" y="198.0" width="6" height="8" rx="1" fill="url(#windowGlow)" opacity="0.9003714017571748"/>
<rect x="133.6" y="198.0" width="6" height="8" rx="1" fill="url(#windowGlow)" opacity="0.9037703420053098"/>
<rect x="147.6" y="198.0" width="6" height="8" rx="1" fill="url(#windowGlow)" opacity="0.9529323211186249"/>
<rect x="119.6" y="213.0" width="6" height="8" rx="1" fill="url(#windowGlow)" opacity="0.9444043406492119"/>
<rect x="133.6" y="213.0" width="6" height="8" rx="1" fill="url(#windowGlow)" opacity="0.7102363604168577"/>
<rect x="119.6" y="228.0" width="6" height="8" rx="1" fill="url(#windowGlow)" opacity="0.7757986885382787"/>
<rect x="147.6" y="228.0" width="6" height="8" rx="1" fill="url(#windowGlow)" opacity="0.7263665560755722"/>
<rect x="133.6" y="243.0" width="6" height="8" rx="1" fill="url(#windowGlow)" opacity="0.9915966081393865"/>
<rect x="147.6" y="243.0" width="6" height="8" rx="1" fill="url(#windowGlow)" opacity="0.7261037938884011"/>
<rect x="133.6" y="258.0" width="6" height="8" rx="1" fill="url(#windowGlow)" opacity="0.7473061919432628"/>
<rect x="147.6" y="258.0" width="6" height="8" rx="1" fill="url(#windowGlow)" opacity="0.9985687088680307"/>
<rect x="291.4" y="148.2" width="50.2" height="151.8" rx="3" fill="url(#bldg_blue)" opacity="0.85"/>
<rect x="291.4" y="145.2" width="50.2" height="3" rx="1" fill="url(#roof_coralRoof)" opacity="0.85"/>
<rect x="320.5" y="158.2" width="6" height="8" rx="1" fill="url(#windowGlow)" opacity="0.8139308396791717"/>
<rect x="306.5" y="173.2" width="6" height="8" rx="1" fill="url(#windowGlow)" opacity="0.7506894553781903"/>
<rect x="320.5" y="173.2" width="6" height="8" rx="1" fill="url(#windowGlow)" opacity="0.9362369785719723"/>
<rect x="306.5" y="188.2" width="6" height="8" rx="1" fill="url(#windowGlow)" opacity="0.9766595618690641"/>
<rect x="320.5" y="188.2" width="6" height="8" rx="1" fill="url(#windowGlow)" opacity="0.8197125837298633"/>
<rect x="306.5" y="203.2" width="6" height="8" rx="1" fill="url(#windowGlow)" opacity="0.8738540805288841"/>
<rect x="320.5" y="203.2" width="6" height="8" rx="1" fill="url(#windowGlow)" opacity="0.8002853801475304"/>
<rect x="306.5" y="218.2" width="6" height="8" rx="1" fill="url(#windowGlow)" opacity="0.9088338998653152"/>
<rect x="320.5" y="218.2" width="6" height="8" rx="1" fill="url(#windowGlow)" opacity="0.7937865044892702"/>
<rect x="320.5" y="233.2" width="6" height="8" rx="1" fill="url(#windowGlow)" opacity="0.7208323567271383"/>
<rect x="486.8" y="202.9" width="79.3" height="97.1" rx="3" fill="url(#bldg_mint)" opacity="0.85"/>
<rect x="486.8" y="199.9" width="79.3" height="3" rx="1" fill="url(#roof_tealRoof)" opacity="0.85"/>
<rect x="502.4" y="212.9" width="6" height="8" rx="1" fill="url(#windowGlow)" opacity="0.9290954695218687"/>
<rect x="516.4" y="212.9" width="6" height="8" rx="1" fill="url(#windowGlow)" opacity="0.804051392853284"/>
<rect x="530.4" y="212.9" width="6" height="8" rx="1" fill="url(#windowGlow)" opacity="0.8669573842393967"/>
<rect x="544.4" y="212.9" width="6" height="8" rx="1" fill="url(#windowGlow)" opacity="0.7625662499398767"/>
<rect x="516.4" y="227.9" width="6" height="8" rx="1" fill="url(#windowGlow)" opacity="0.817681742747166"/>
<rect x="530.4" y="227.9" width="6" height="8" rx="1" fill="url(#windowGlow)" opacity="0.7516911679653875"/>
<rect x="544.4" y="227.9" width="6" height="8" rx="1" fill="url(#windowGlow)" opacity="0.813144451479029"/>
<rect x="516.4" y="242.9" width="6" height="8" rx="1" fill="url(#windowGlow)" opacity="0.7748713232925494"/>
<rect x="530.4" y="242.9" width="6" height="8" rx="1" fill="url(#windowGlow)" opacity="0.881596015757693"/>
<rect x="544.4" y="242.9" width="6" height="8" rx="1" fill="url(#windowGlow)" opacity="0.922097068197139"/>
<rect x="502.4" y="257.9" width="6" height="8" rx="1" fill="url(#windowGlow)" opacity="0.8657744275246627"/>
<rect x="530.4" y="257.9" width="6" height="8" rx="1" fill="url(#windowGlow)" opacity="0.7531171115828291"/>
<rect x="544.4" y="257.9" width="6" height="8" rx="1" fill="url(#windowGlow)" opacity="0.9472791569993269"/>
<rect x="652.1" y="195.6" width="76.1" height="104.4" rx="3" fill="url(#bldg_rose)" opacity="0.85"/>
<rect x="652.1" y="192.6" width="76.1" height="3" rx="1" fill="url(#roof_navyRoof)" opacity="0.85"/>
<rect x="666.1" y="205.6" width="6" height="8" rx="1" fill="url(#windowGlow)" opacity="0.7084060839882148"/>
<rect x="680.1" y="205.6" width="6" height="8" rx="1" fill="url(#windowGlow)" opacity="0.9251093133935282"/>
<rect x="694.1" y="205.6" width="6" height="8" rx="1" fill="url(#windowGlow)" opacity="0.9377729712695688"/>
<rect x="708.1" y="205.6" width="6" height="8" rx="1" fill="url(#windowGlow)" opacity="0.798465762007267"/>
<rect x="666.1" y="220.6" width="6" height="8" rx="1" fill="url(#windowGlow)" opacity="0.7070489678099048"/>
<rect x="694.1" y="220.6" width="6" height="8" rx="1" fill="url(#windowGlow)" opacity="0.9586600549792219"/>
<rect x="708.1" y="220.6" width="6" height="8" rx="1" fill="url(#windowGlow)" opacity="0.8337565282982571"/>
<rect x="666.1" y="235.6" width="6" height="8" rx="1" fill="url(#windowGlow)" opacity="0.7138518993807267"/>
<rect x="680.1" y="235.6" width="6" height="8" rx="1" fill="url(#windowGlow)" opacity="0.9200666868221324"/>
<rect x="708.1" y="235.6" width="6" height="8" rx="1" fill="url(#windowGlow)" opacity="0.9126773139986569"/>
<rect x="666.1" y="250.6" width="6" height="8" rx="1" fill="url(#windowGlow)" opacity="0.703208040866632"/>
<rect x="694.1" y="250.6" width="6" height="8" rx="1" fill="url(#windowGlow)" opacity="0.7033997613952494"/>
<rect x="708.1" y="250.6" width="6" height="8" rx="1" fill="url(#windowGlow)" opacity="0.7103411017965251"/>
<rect x="853.8" y="137.3" width="68.7" height="162.7" rx="3" fill="url(#bldg_sky)" opacity="0.85"/>
<rect x="867.5" y="117.7" width="41.2" height="19.5" rx="2" fill="url(#roof_coralRoof)" opacity="0.85"/>
<rect x="871.1" y="147.3" width="6" height="8" rx="1" fill="url(#windowGlow)" opacity="0.8656025526884954"/>
<rect x="885.1" y="147.3" width="6" height="8" rx="1" fill="url(#windowGlow)" opacity="0.835202749136464"/>
<rect x="899.1" y="147.3" width="6" height="8" rx="1" fill="url(#windowGlow)" opacity="0.9388946678670563"/>
<rect x="871.1" y="162.3" width="6" height="8" rx="1" fill="url(#windowGlow)" opacity="0.7108449963903264"/>
<rect x="899.1" y="162.3" width="6" height="8" rx="1" fill="url(#windowGlow)" opacity="0.7248071629203889"/>
<rect x="871.1" y="177.3" width="6" height="8" rx="1" fill="url(#windowGlow)" opacity="0.7034227947254771"/>
<rect x="885.1" y="177.3" width="6" height="8" rx="1" fill="url(#windowGlow)" opacity="0.7979989076023916"/>
<rect x="899.1" y="177.3" width="6" height="8" rx="1" fill="url(#windowGlow)" opacity="0.9743483694150803"/>
<rect x="871.1" y="192.3" width="6" height="8" rx="1" fill="url(#windowGlow)" opacity="0.7576351582806721"/>
<rect x="885.1" y="192.3" width="6" height="8" rx="1" fill="url(#windowGlow)" opacity="0.7657144359153296"/>
<rect x="899.1" y="192.3" width="6" height="8" rx="1" fill="url(#windowGlow)" opacity="0.9689954466042088"/>
<rect x="871.1" y="207.3" width="6" height="8" rx="1" fill="url(#windowGlow)" opacity="0.7982872051178883"/>
<rect x="885.1" y="207.3" width="6" height="8" rx="1" fill="url(#windowGlow)" opacity="0.7523603718505987"/>
<rect x="899.1" y="207.3" width="6" height="8" rx="1" fill="url(#windowGlow)" opacity="0.8731696489607773"/>
<rect x="871.1" y="222.3" width="6" height="8" rx="1" fill="url(#windowGlow)" opacity="0.9963294732367292"/>
<rect x="885.1" y="222.3" width="6" height="8" rx="1" fill="url(#windowGlow)" opacity="0.7850217156973768"/>
<rect x="899.1" y="222.3" width="6" height="8" rx="1" fill="url(#windowGlow)" opacity="0.9545375370208814"/>
<rect x="871.1" y="237.3" width="6" height="8" rx="1" fill="url(#windowGlow)" opacity="0.729616482429959"/>
<rect x="899.1" y="237.3" width="6" height="8" rx="1" fill="url(#windowGlow)" opacity="0.9304035677716151"/>
<rect x="871.1" y="252.3" width="6" height="8" rx="1" fill="url(#windowGlow)" opacity="0.9530788669609831"/>
<rect x="885.1" y="252.3" width="6" height="8" rx="1" fill="url(#windowGlow)" opacity="0.7649542030249509"/>
<rect x="899.1" y="252.3" width="6" height="8" rx="1" fill="url(#windowGlow)" opacity="0.8662971950910506"/>
<path d="M888.1 194.2 L915.6 194.2 L912.6 200.2 L891.1 200.2 Z" fill="url(#roof_navyRoof)" opacity="0.68"/>
<rect x="1050.9" y="167.8" width="42.1" height="132.2" rx="3" fill="url(#bldg_coral)" opacity="0.85"/>
<rect x="1050.9" y="164.8" width="42.1" height="3" rx="1" fill="url(#roof_tealRoof)" opacity="0.85"/>
<rect x="1068.9" y="177.8" width="6" height="8" rx="1" fill="url(#windowGlow)" opacity="0.9752708540182891"/>
<rect x="1068.9" y="192.8" width="6" height="8" rx="1" fill="url(#windowGlow)" opacity="0.7122068739087353"/>
<rect x="1068.9" y="207.8" width="6" height="8" rx="1" fill="url(#windowGlow)" opacity="0.7325239291100408"/>
<rect x="1068.9" y="222.8" width="6" height="8" rx="1" fill="url(#windowGlow)" opacity="0.9300795880752054"/>
<rect x="1068.9" y="237.8" width="6" height="8" rx="1" fill="url(#windowGlow)" opacity="0.9783812967028381"/>
<rect x="1068.9" y="252.8" width="6" height="8" rx="1" fill="url(#windowGlow)" opacity="0.7506818222583652"/>
<rect x="97.2" y="177.0" width="46.4" height="123.0" rx="3" fill="url(#bldg_teal)" opacity="1"/>
<rect x="97.2" y="174.0" width="46.4" height="3" rx="1" fill="url(#roof_navyRoof)" opacity="1"/>
<rect x="110.4" y="187.0" width="6" height="8" rx="1" fill="url(#windowGlow)" opacity="0.9321195700821092"/>
<rect x="124.4" y="187.0" width="6" height="8" rx="1" fill="url(#windowGlow)" opacity="0.8666460223806305"/>
<rect x="124.4" y="202.0" width="6" height="8" rx="1" fill="url(#windowGlow)" opacity="0.9879644748233093"/>
<rect x="110.4" y="217.0" width="6" height="8" rx="1" fill="url(#windowGlow)" opacity="0.8222977636951476"/>
<rect x="124.4" y="217.0" width="6" height="8" rx="1" fill="url(#windowGlow)" opacity="0.8698328131669353"/>
<rect x="110.4" y="232.0" width="6" height="8" rx="1" fill="url(#windowGlow)" opacity="0.8610943239932387"/>
<rect x="124.4" y="232.0" width="6" height="8" rx="1" fill="url(#windowGlow)" opacity="0.8131368718636859"/>
<rect x="110.4" y="247.0" width="6" height="8" rx="1" fill="url(#windowGlow)" opacity="0.9431752021625522"/>
<rect x="124.4" y="247.0" width="6" height="8" rx="1" fill="url(#windowGlow)" opacity="0.9928071758210693"/>
<rect x="115.4" y="284.0" width="10" height="16" rx="2" fill="url(#roof_navyRoof)" opacity="0.8"/>
<rect x="117.4" y="287.0" width="6" height="10" rx="1" fill="url(#windowGlow)" opacity="0.45"/>
<path d="M101.8 220.1 L120.4 220.1 L117.4 226.1 L104.8 226.1 Z" fill="url(#roof_tealRoof)" opacity="0.8"/>
<rect x="247.5" y="174.0" width="69.8" height="126.0" rx="3" fill="url(#bldg_amber)" opacity="1"/>
<polygon points="247.5,174.0 282.3,151.3 317.2,174.0" fill="url(#roof_coralRoof)" opacity="1"/>
<rect x="279.3" y="184.0" width="6" height="8" rx="1" fill="url(#windowGlow)" opacity="0.8407804773844687"/>
<rect x="293.3" y="184.0" width="6" height="8" rx="1" fill="url(#windowGlow)" opacity="0.7860281739784536"/>
<rect x="265.3" y="199.0" width="6" height="8" rx="1" fill="url(#windowGlow)" opacity="0.710008825273257"/>
<rect x="279.3" y="199.0" width="6" height="8" rx="1" fill="url(#windowGlow)" opacity="0.8744237947158626"/>
<rect x="293.3" y="199.0" width="6" height="8" rx="1" fill="url(#windowGlow)" opacity="0.8879375172722793"/>
<rect x="279.3" y="214.0" width="6" height="8" rx="1" fill="url(#windowGlow)" opacity="0.8073559208807329"/>
<rect x="293.3" y="214.0" width="6" height="8" rx="1" fill="url(#windowGlow)" opacity="0.7751754758763943"/>
<rect x="265.3" y="229.0" width="6" height="8" rx="1" fill="url(#windowGlow)" opacity="0.9139043366135583"/>
<rect x="279.3" y="229.0" width="6" height="8" rx="1" fill="url(#windowGlow)" opacity="0.8411009285790384"/>
<rect x="293.3" y="229.0" width="6" height="8" rx="1" fill="url(#windowGlow)" opacity="0.7633054490030302"/>
<rect x="265.3" y="244.0" width="6" height="8" rx="1" fill="url(#windowGlow)" opacity="0.7486591139569222"/>
<rect x="279.3" y="244.0" width="6" height="8" rx="1" fill="url(#windowGlow)" opacity="0.7280726001263003"/>
<rect x="293.3" y="244.0" width="6" height="8" rx="1" fill="url(#windowGlow)" opacity="0.9118333295508443"/>
<rect x="279.3" y="259.0" width="6" height="8" rx="1" fill="url(#windowGlow)" opacity="0.9492564950367698"/>
<rect x="293.3" y="259.0" width="6" height="8" rx="1" fill="url(#windowGlow)" opacity="0.7627315497317964"/>
<rect x="277.3" y="284.0" width="10" height="16" rx="2" fill="url(#roof_navyRoof)" opacity="0.8"/>
<rect x="279.3" y="287.0" width="6" height="10" rx="1" fill="url(#windowGlow)" opacity="0.45"/>
<rect x="415.8" y="145.8" width="37.8" height="154.2" rx="3" fill="url(#bldg_lavender)" opacity="1"/>
<rect x="415.8" y="142.8" width="37.8" height="3" rx="1" fill="url(#roof_tealRoof)" opacity="1"/>
<rect x="431.7" y="155.8" width="6" height="8" rx="1" fill="url(#windowGlow)" opacity="0.8699504393478624"/>
<rect x="431.7" y="170.8" width="6" height="8" rx="1" fill="url(#windowGlow)" opacity="0.9576770308230431"/>
<rect x="431.7" y="215.8" width="6" height="8" rx="1" fill="url(#windowGlow)" opacity="0.8218537844819267"/>
<rect x="431.7" y="245.8" width="6" height="8" rx="1" fill="url(#windowGlow)" opacity="0.9963780012430521"/>
<rect x="429.7" y="284.0" width="10" height="16" rx="2" fill="url(#roof_navyRoof)" opacity="0.8"/>
<rect x="431.7" y="287.0" width="6" height="10" rx="1" fill="url(#windowGlow)" opacity="0.45"/>
<rect x="564.1" y="179.8" width="55.4" height="120.2" rx="3" fill="url(#bldg_blue)" opacity="1"/>
<polygon points="564.1,179.8 591.8,161.4 619.5,179.8" fill="url(#roof_navyRoof)" opacity="1"/>
<rect x="581.8" y="189.8" width="6" height="8" rx="1" fill="url(#windowGlow)" opacity="0.9277315895667911"/>
<rect x="595.8" y="189.8" width="6" height="8" rx="1" fill="url(#windowGlow)" opacity="0.8925438607542513"/>
<rect x="595.8" y="204.8" width="6" height="8" rx="1" fill="url(#windowGlow)" opacity="0.8407286157555545"/>
<rect x="581.8" y="219.8" width="6" height="8" rx="1" fill="url(#windowGlow)" opacity="0.866560662615374"/>
<rect x="595.8" y="219.8" width="6" height="8" rx="1" fill="url(#windowGlow)" opacity="0.7366005796178247"/>
<rect x="581.8" y="234.8" width="6" height="8" rx="1" fill="url(#windowGlow)" opacity="0.7650454959203701"/>
<rect x="595.8" y="234.8" width="6" height="8" rx="1" fill="url(#windowGlow)" opacity="0.8126176850463346"/>
<rect x="581.8" y="249.8" width="6" height="8" rx="1" fill="url(#windowGlow)" opacity="0.8879939322303951"/>
<rect x="586.8" y="284.0" width="10" height="16" rx="2" fill="url(#roof_navyRoof)" opacity="0.8"/>
<rect x="588.8" y="287.0" width="6" height="10" rx="1" fill="url(#windowGlow)" opacity="0.45"/>
<rect x="750.7" y="157.2" width="39.9" height="142.8" rx="3" fill="url(#bldg_mint)" opacity="1"/>
<rect x="750.7" y="154.2" width="39.9" height="3" rx="1" fill="url(#roof_coralRoof)" opacity="1"/>
<rect x="767.7" y="167.2" width="6" height="8" rx="1" fill="url(#windowGlow)" opacity="0.8427450580255803"/>
<rect x="767.7" y="182.2" width="6" height="8" rx="1" fill="url(#windowGlow)" opacity="0.7864783525869614"/>
<rect x="767.7" y="197.2" width="6" height="8" rx="1" fill="url(#windowGlow)" opacity="0.8576409052860182"/>
<rect x="767.7" y="212.2" width="6" height="8" rx="1" fill="url(#windowGlow)" opacity="0.8067499591534724"/>
<rect x="767.7" y="227.2" width="6" height="8" rx="1" fill="url(#windowGlow)" opacity="0.7439552017692267"/>
<rect x="767.7" y="242.2" width="6" height="8" rx="1" fill="url(#windowGlow)" opacity="0.7456194993320943"/>
<rect x="767.7" y="257.2" width="6" height="8" rx="1" fill="url(#windowGlow)" opacity="0.9559161104522255"/>
<rect x="765.7" y="284.0" width="10" height="16" rx="2" fill="url(#roof_navyRoof)" opacity="0.8"/>
<rect x="767.7" y="287.0" width="6" height="10" rx="1" fill="url(#windowGlow)" opacity="0.45"/>
<path d="M770.7 207.2 L786.6 207.2 L783.6 213.2 L773.7 213.2 Z" fill="url(#roof_navyRoof)" opacity="0.8"/>
<rect x="888.2" y="151.1" width="45.9" height="148.9" rx="3" fill="url(#bldg_rose)" opacity="1"/>
<polygon points="888.2,151.1 911.2,136.8 934.1,151.1" fill="url(#roof_tealRoof)" opacity="1"/>
<rect x="901.2" y="161.1" width="6" height="8" rx="1" fill="url(#windowGlow)" opacity="0.8003246820533296"/>
<rect x="915.2" y="161.1" width="6" height="8" rx="1" fill="url(#windowGlow)" opacity="0.9406749537869705"/>
<rect x="901.2" y="176.1" width="6" height="8" rx="1" fill="url(#windowGlow)" opacity="0.7711586502246366"/>
<rect x="915.2" y="176.1" width="6" height="8" rx="1" fill="url(#windowGlow)" opacity="0.9304412987690611"/>
<rect x="901.2" y="191.1" width="6" height="8" rx="1" fill="url(#windowGlow)" opacity="0.7066163646553719"/>
<rect x="915.2" y="191.1" width="6" height="8" rx="1" fill="url(#windowGlow)" opacity="0.8929055544049038"/>
<rect x="901.2" y="206.1" width="6" height="8" rx="1" fill="url(#windowGlow)" opacity="0.8545254984193134"/>
<rect x="915.2" y="206.1" width="6" height="8" rx="1" fill="url(#windowGlow)" opacity="0.973297966352337"/>
<rect x="901.2" y="221.1" width="6" height="8" rx="1" fill="url(#windowGlow)" opacity="0.946541696761987"/>
<rect x="915.2" y="221.1" width="6" height="8" rx="1" fill="url(#windowGlow)" opacity="0.8001823676750912"/>
<rect x="901.2" y="236.1" width="6" height="8" rx="1" fill="url(#windowGlow)" opacity="0.77035316721087"/>
<rect x="915.2" y="251.1" width="6" height="8" rx="1" fill="url(#windowGlow)" opacity="0.9299712072731793"/>
<rect x="906.2" y="284.0" width="10" height="16" rx="2" fill="url(#roof_navyRoof)" opacity="0.8"/>
<rect x="908.2" y="287.0" width="6" height="10" rx="1" fill="url(#windowGlow)" opacity="0.45"/>
<rect x="1042.0" y="194.1" width="58.4" height="105.9" rx="3" fill="url(#bldg_sky)" opacity="1"/>
<polygon points="1042.0,194.1 1071.2,181.6 1100.4,194.1" fill="url(#roof_navyRoof)" opacity="1"/>
<rect x="1054.2" y="204.1" width="6" height="8" rx="1" fill="url(#windowGlow)" opacity="0.8770580739141711"/>
<rect x="1068.2" y="204.1" width="6" height="8" rx="1" fill="url(#windowGlow)" opacity="0.7576323590044083"/>
<rect x="1082.2" y="204.1" width="6" height="8" rx="1" fill="url(#windowGlow)" opacity="0.7524866318108917"/>
<rect x="1068.2" y="219.1" width="6" height="8" rx="1" fill="url(#windowGlow)" opacity="0.9966672646331913"/>
<rect x="1054.2" y="234.1" width="6" height="8" rx="1" fill="url(#windowGlow)" opacity="0.8285314235037804"/>
<rect x="1068.2" y="234.1" width="6" height="8" rx="1" fill="url(#windowGlow)" opacity="0.7814214007842454"/>
<rect x="1082.2" y="234.1" width="6" height="8" rx="1" fill="url(#windowGlow)" opacity="0.8365749442188883"/>
<rect x="1068.2" y="249.1" width="6" height="8" rx="1" fill="url(#windowGlow)" opacity="0.9868944854880191"/>
<rect x="1082.2" y="249.1" width="6" height="8" rx="1" fill="url(#windowGlow)" opacity="0.9927897375509094"/>
<rect x="1066.2" y="284.0" width="10" height="16" rx="2" fill="url(#roof_navyRoof)" opacity="0.8"/>
<rect x="1068.2" y="287.0" width="6" height="10" rx="1" fill="url(#windowGlow)" opacity="0.45"/>
<path d="M1047.8 231.1 L1071.2 231.1 L1068.2 237.1 L1050.8 237.1 Z" fill="url(#roof_tealRoof)" opacity="0.8"/>
<path d="M195.5 285.0 Q218.3 258.1 209.2 231.2" stroke="#92400e" stroke-width="4" fill="none" stroke-linecap="round"/>
<path d="M209.2 231.2 Q196.8 220.0 188.6 219.8" stroke="#16a34a" stroke-width="2.5" fill="none" stroke-linecap="round"/>
<path d="M209.2 231.2 Q215.0 219.3 218.9 218.2" stroke="#22c55e" stroke-width="2.5" fill="none" stroke-linecap="round"/>
<path d="M209.2 231.2 Q224.8 225.2 235.3 231.2" stroke="#15803d" stroke-width="2.5" fill="none" stroke-linecap="round"/>
<path d="M209.2 231.2 Q216.8 232.8 221.8 247.9" stroke="#4ade80" stroke-width="2.5" fill="none" stroke-linecap="round"/>
<path d="M209.2 231.2 Q198.9 229.4 192.1 240.5" stroke="#16a34a" stroke-width="2.5" fill="none" stroke-linecap="round"/>
<path d="M366.5 285.0 Q384.6 257.8 377.4 230.5" stroke="#92400e" stroke-width="4" fill="none" stroke-linecap="round"/>
<path d="M377.4 230.5 Q365.3 219.5 357.3 219.5" stroke="#16a34a" stroke-width="2.5" fill="none" stroke-linecap="round"/>
<path d="M377.4 230.5 Q382.7 219.2 386.3 218.7" stroke="#22c55e" stroke-width="2.5" fill="none" stroke-linecap="round"/>
<path d="M377.4 230.5 Q390.7 224.5 399.6 230.5" stroke="#15803d" stroke-width="2.5" fill="none" stroke-linecap="round"/>
<path d="M377.4 230.5 Q382.8 230.0 386.4 242.5" stroke="#4ade80" stroke-width="2.5" fill="none" stroke-linecap="round"/>
<path d="M377.4 230.5 Q368.1 228.4 361.9 239.1" stroke="#16a34a" stroke-width="2.5" fill="none" stroke-linecap="round"/>
<path d="M508.9 285.0 Q533.9 263.8 523.9 242.6" stroke="#92400e" stroke-width="4" fill="none" stroke-linecap="round"/>
<path d="M523.9 242.6 Q514.0 232.5 507.4 233.5" stroke="#16a34a" stroke-width="2.5" fill="none" stroke-linecap="round"/>
<path d="M523.9 242.6 Q530.9 229.6 535.5 227.2" stroke="#22c55e" stroke-width="2.5" fill="none" stroke-linecap="round"/>
<path d="M523.9 242.6 Q536.7 236.6 545.3 242.6" stroke="#15803d" stroke-width="2.5" fill="none" stroke-linecap="round"/>
<path d="M523.9 242.6 Q529.0 241.8 532.5 254.0" stroke="#4ade80" stroke-width="2.5" fill="none" stroke-linecap="round"/>
<path d="M523.9 242.6 Q512.9 241.2 505.5 252.7" stroke="#16a34a" stroke-width="2.5" fill="none" stroke-linecap="round"/>
<path d="M685.1 285.0 Q708.5 259.3 699.1 233.6" stroke="#92400e" stroke-width="4" fill="none" stroke-linecap="round"/>
<path d="M699.1 233.6 Q687.3 222.7 679.4 222.8" stroke="#16a34a" stroke-width="2.5" fill="none" stroke-linecap="round"/>
<path d="M699.1 233.6 Q705.3 221.4 709.4 219.9" stroke="#22c55e" stroke-width="2.5" fill="none" stroke-linecap="round"/>
<path d="M699.1 233.6 Q718.0 227.6 730.5 233.6" stroke="#15803d" stroke-width="2.5" fill="none" stroke-linecap="round"/>
<path d="M699.1 233.6 Q704.6 233.2 708.3 245.8" stroke="#4ade80" stroke-width="2.5" fill="none" stroke-linecap="round"/>
<path d="M699.1 233.6 Q686.2 233.0 677.7 245.4" stroke="#16a34a" stroke-width="2.5" fill="none" stroke-linecap="round"/>
<path d="M839.4 285.0 Q861.0 253.2 852.4 221.4" stroke="#92400e" stroke-width="4" fill="none" stroke-linecap="round"/>
<path d="M852.4 221.4 Q838.1 209.5 828.6 208.4" stroke="#16a34a" stroke-width="2.5" fill="none" stroke-linecap="round"/>
<path d="M852.4 221.4 Q860.2 207.6 865.4 204.2" stroke="#22c55e" stroke-width="2.5" fill="none" stroke-linecap="round"/>
<path d="M852.4 221.4 Q868.8 215.4 879.8 221.4" stroke="#15803d" stroke-width="2.5" fill="none" stroke-linecap="round"/>
<path d="M852.4 221.4 Q859.0 222.1 863.4 236.0" stroke="#4ade80" stroke-width="2.5" fill="none" stroke-linecap="round"/>
<path d="M852.4 221.4 Q840.3 220.5 832.2 232.6" stroke="#16a34a" stroke-width="2.5" fill="none" stroke-linecap="round"/>
<rect x="0" y="282" width="1200" height="18" fill="url(#groundGrad)"/>
<line x1="686.0" y1="282.0" x2="686.0" y2="241.3" stroke="#92400e" stroke-width="2"/>
<circle cx="686.0" cy="241.3" r="4" fill="#fef08a" opacity="0.6"/>
<circle cx="686.0" cy="241.3" r="8" fill="#fef08a" opacity="0.15" filter="url(#softGlow)"/>
<ellipse cx="706.3" cy="282.0" rx="5.8" ry="4.1" fill="#22c55e" opacity="0.6"/>
<ellipse cx="627.5" cy="282.0" rx="4.7" ry="3.3" fill="#22c55e" opacity="0.6"/>
<ellipse cx="1139.1" cy="282.0" rx="4.7" ry="3.3" fill="#22c55e" opacity="0.6"/>
<ellipse cx="49.6" cy="282.0" rx="5.5" ry="3.8" fill="#22c55e" opacity="0.6"/>
</svg>