<svg xmlns="http://www.w3.org/2000/svg" viewBox="0 0 1200 300" width="1200" height="300">
<rect width="1200" height="300" fill="#e0eff2"/>
<path d="M0 300 L0 210.0 C272.1 184.3, 1003.6 189.2, 1200 210.0 L1200 300 Z" fill="#aac2c9" opacity="0.3"/>
<rect x="149.0" y="192.6" width="77.9" height="107.4" fill="#8aabb4"/>
<rect x="465.3" y="200.7" width="56.6" height="99.3" fill="#8aabb4"/>
<rect x="715.8" y="195.3" width="71.5" height="104.7" fill="#8aabb4"/>
<rect x="1014.1" y="181.3" width="60.9" height="118.7" fill="#8aabb4"/>
<rect x="100.4" y="168.9" width="38.0" height="131.1" fill="#558592"/>
<rect x="116.3" y="180.9" width="6" height="8" fill="#91b0b8" opacity="0.5"/>
<rect x="116.3" y="196.9" width="6" height="8" fill="#91b0b8" opacity="0.5"/>
<rect x="116.3" y="212.9" width="6" height="8" fill="#91b0b8" opacity="0.5"/>
<rect x="116.3" y="244.9" width="6" height="8" fill="#91b0b8" opacity="0.5"/>
<rect x="337.9" y="156.0" width="35.9" height="144.0" fill="#558592"/>
<rect x="352.8" y="168.0" width="6" height="8" fill="#91b0b8" opacity="0.5"/>
<rect x="352.8" y="184.0" width="6" height="8" fill="#91b0b8" opacity="0.5"/>
<rect x="352.8" y="200.0" width="6" height="8" fill="#91b0b8" opacity="0.5"/>
<rect x="352.8" y="216.0" width="6" height="8" fill="#91b0b8" opacity="0.5"/>
<rect x="352.8" y="232.0" width="6" height="8" fill="#91b0b8" opacity="0.5"/>
<rect x="352.8" y="248.0" width="6" height="8" fill="#91b0b8" opacity="0.5"/>
<rect x="352.8" y="264.0" width="6" height="8" fill="#91b0b8" opacity="0.5"/>
<rect x="535.0" y="179.0" width="69.9" height="121.0" fill="#558592"/>
<rect x="552.9" y="191.0" width="6" height="8" fill="#91b0b8" opacity="0.5"/>
<rect x="566.9" y="191.0" width="6" height="8" fill="#91b0b8" opacity="0.5"/>
<rect x="580.9" y="191.0" width="6" height="8" fill="#91b0b8" opacity="0.5"/>
<rect x="552.9" y="207.0" width="6" height="8" fill="#91b0b8" opacity="0.5"/>
<rect x="566.9" y="207.0" width="6" height="8" fill="#91b0b8" opacity="0.5"/>
<rect x="552.9" y="223.0" width="6" height="8" fill="#91b0b8" opacity="0.5"/>
<rect x="566.9" y="223.0" width="6" height="8" fill="#91b0b8" opacity="0.5"/>
<rect x="580.9" y="223.0" width="6" height="8" fill="#91b0b8" opacity="0.5"/>
<rect x="566.9" y="239.0" width="6" height="8" fill="#91b0b8" opacity="0.5"/>
<rect x="580.9" y="239.0" width="6" height="8" fill="#91b0b8" opacity="0.5"/>
<rect x="552.9" y="255.0" width="6" height="8" fill="#91b0b8" opacity="0.5"/>
<rect x="566.9" y="255.0" width="6" height="8" fill="#91b0b8" opacity="0.5"/>
<rect x="580.9" y="255.0" width="6" height="8" fill="#91b0b8" opacity="0.5"/>
<rect x="552.9" y="271.0" width="6" height="8" fill="#91b0b8" opacity="0.5"/>
<rect x="566.9" y="271.0" width="6" height="8" fill="#91b0b8" opacity="0.5"/>
<rect x="820.5" y="155.6" width="49.3" height="144.4" fill="#558592"/>
<rect x="835.1" y="167.6" width="6" height="8" fill="#91b0b8" opacity="0.5"/>
<rect x="835.1" y="183.6" width="6" height="8" fill="#91b0b8" opacity="0.5"/>
<rect x="849.1" y="183.6" width="6" height="8" fill="#91b0b8" opacity="0.5"/>
<rect x="835.1" y="199.6" width="6" height="8" fill="#91b0b8" opacity="0.5"/>
<rect x="849.1" y="199.6" width="6" height="8" fill="#91b0b8" opacity="0.5"/>
<rect x="835.1" y="215.6" width="6" height="8" fill="#91b0b8" opacity="0.5"/>
<rect x="849.1" y="215.6" width="6" height="8" fill="#91b0b8" opacity="0.5"/>
<rect x="835.1" y="231.6" width="6" height="8" fill="#91b0b8" opacity="0.5"/>
<rect x="835.1" y="247.6" width="6" height="8" fill="#91b0b8" opacity="0.5"/>
<rect x="849.1" y="247.6" width="6" height="8" fill="#91b0b8" opacity="0.5"/>
<rect x="849.1" y="263.6" width="6" height="8" fill="#91b0b8" opacity="0.5"/>
<rect x="1002.2" y="210.9" width="70.3" height="89.1" fill="#558592"/>
<rect x="1034.4" y="222.9" width="6" height="8" fill="#91b0b8" opacity="0.5"/>
<rect x="1020.4" y="254.9" width="6" height="8" fill="#91b0b8" opacity="0.5"/>
<rect x="1048.4" y="254.9" width="6" height="8" fill="#91b0b8" opacity="0.5"/>
<rect x="1020.4" y="270.9" width="6" height="8" fill="#91b0b8" opacity="0.5"/>
<rect x="1034.4" y="270.9" width="6" height="8" fill="#91b0b8" opacity="0.5"/>
<rect x="97.1" y="165.1" width="49.7" height="134.9" fill="#2b6777"/>
<rect x="111.9" y="177.1" width="6" height="8" fill="#759ca7" opacity="0.5"/>
<rect x="125.9" y="177.1" width="6" height="8" fill="#759ca7" opacity="0.5"/>
<rect x="111.9" y="193.1" width="6" height="8" fill="#759ca7" opacity="0.5"/>
<rect x="125.9" y="193.1" width="6" height="8" fill="#759ca7" opacity="0.5"/>
<rect x="111.9" y="209.1" width="6" height="8" fill="#759ca7" opacity="0.5"/>
<rect x="111.9" y="225.1" width="6" height="8" fill="#759ca7" opacity="0.5"/>
<rect x="125.9" y="225.1" width="6" height="8" fill="#759ca7" opacity="0.5"/>
<rect x="111.9" y="241.1" width="6" height="8" fill="#759ca7" opacity="0.5"/>
<rect x="111.9" y="257.1" width="6" height="8" fill="#759ca7" opacity="0.5"/>
<rect x="125.9" y="257.1" width="6" height="8" fill="#759ca7" opacity="0.5"/>
<rect x="111.9" y="273.1" width="6" height="8" fill="#759ca7" opacity="0.5"/>
<rect x="125.9" y="273.1" width="6" height="8" fill="#759ca7" opacity="0.5"/>
<rect x="328.7" y="210.7" width="67.6" height="89.3" fill="#2b6777"/>
<rect x="345.5" y="222.7" width="6" height="8" fill="#759ca7" opacity="0.5"/>
<rect x="359.5" y="222.7" width="6" height="8" fill="#759ca7" opacity="0.5"/>
<rect x="373.5" y="222.7" width="6" height="8" fill="#759ca7" opacity="0.5"/>
<rect x="373.5" y="238.7" width="6" height="8" fill="#759ca7" opacity="0.5"/>
<rect x="345.5" y="254.7" width="6" height="8" fill="#759ca7" opacity="0.5"/>
<rect x="359.5" y="254.7" width="6" height="8" fill="#759ca7" opacity="0.5"/>
<rect x="373.5" y="254.7" width="6" height="8" fill="#759ca7" opacity="0.5"/>
<rect x="345.5" y="270.7" width="6" height="8" fill="#759ca7" opacity="0.5"/>
<rect x="359.5" y="270.7" width="6" height="8" fill="#759ca7" opacity="0.5"/>
<rect x="373.5" y="270.7" width="6" height="8" fill="#759ca7" opacity="0.5"/>
<rect x="552.1" y="218.0" width="34.3" height="82.0" fill="#2b6777"/>
<rect x="566.2" y="230.0" width="6" height="8" fill="#759ca7" opacity="0.5"/>
<rect x="566.2" y="246.0" width="6" height="8" fill="#759ca7" opacity="0.5"/>
<rect x="566.2" y="262.0" width="6" height="8" fill="#759ca7" opacity="0.5"/>
<rect x="783.0" y="176.8" width="67.0" height="123.2" fill="#2b6777"/>
<rect x="799.5" y="188.8" width="6" height="8" fill="#759ca7" opacity="0.5"/>
<rect x="813.5" y="204.8" width="6" height="8" fill="#759ca7" opacity="0.5"/>
<rect x="827.5" y="204.8" width="6" height="8" fill="#759ca7" opacity="0.5"/>
<rect x="799.5" y="220.8" width="6" height="8" fill="#759ca7" opacity="0.5"/>
<rect x="813.5" y="220.8" width="6" height="8" fill="#759ca7" opacity="0.5"/>
<rect x="827.5" y="220.8" width="6" height="8" fill="#759ca7" opacity="0.5"/>
<rect x="799.5" y="236.8" width="6" height="8" fill="#759ca7" opacity="0.5"/>
<rect x="813.5" y="236.8" width="6" height="8" fill="#759ca7" opacity="0.5"/>
<rect x="799.5" y="252.8" width="6" height="8" fill="#759ca7" opacity="0.5"/>
<rect x="813.5" y="252.8" width="6" height="8" fill="#759ca7" opacity="0.5"/>
<rect x="827.5" y="252.8" width="6" height="8" fill="#759ca7" opacity="0.5"/>
<rect x="799.5" y="268.8" width="6" height="8" fill="#759ca7" opacity="0.5"/>
<rect x="813.5" y="268.8" width="6" height="8" fill="#759ca7" opacity="0.5"/>
<rect x="998.8" y="120.4" width="74.6" height="179.6" fill="#2b6777"/>
<rect x="1012.1" y="132.4" width="6" height="8" fill="#759ca7" opacity="0.5"/>
<rect x="1040.1" y="132.4" width="6" height="8" fill="#759ca7" opacity="0.5"/>
<rect x="1054.1" y="132.4" width="6" height="8" fill="#759ca7" opacity="0.5"/>
<rect x="1026.1" y="148.4" width="6" height="8" fill="#759ca7" opacity="0.5"/>
<rect x="1040.1" y="148.4" width="6" height="8" fill="#759ca7" opacity="0.5"/>
<rect x="1054.1" y="148.4" width="6" height="8" fill="#759ca7" opacity="0.5"/>
<rect x="1012.1" y="164.4" width="6" height="8" fill="#759ca7" opacity="0.5"/>
<rect x="1026.1" y="164.4" width="6" height="8" fill="#759ca7" opacity="0.5"/>
<rect x="1054.1" y="164.4" width="6" height="8" fill="#759ca7" opacity="0.5"/>
<rect x="1012.1" y="180.4" width="6" height="8" fill="#759ca7" opacity="0.5"/>
<rect x="1026.1" y="180.4" width="6" height="8" fill="#759ca7" opacity="0.5"/>
<rect x="1040.1" y="180.4" width="6" height="8" fill="#759ca7" opacity="0.5"/>
<rect x="1054.1" y="180.4" width="6" height="8" fill="#759ca7" opacity="0.5"/>
<rect x="1012.1" y="196.4" width="6" height="8" fill="#759ca7" opacity="0.5"/>
<rect x="1026.1" y="196.4" width="6" height="8" fill="#759ca7" opacity="0.5"/>
<rect x="1040.1" y="196.4" width="6" height="8" fill="#759ca7" opacity="0.5"/>
<rect x="1012.1" y="212.4" width="6" height="8" fill="#759ca7" opacity="0.5"/>
<rect x="1026.1" y="212.4" width="6" height="8" fill="#759ca7" opacity="0.5"/>
<rect x="1040.1" y="212.4" width="6" height="8" fill="#759ca7" opacity="0.5"/>
<rect x="1012.1" y="228.4" width="6" height="8" fill="#759ca7" opacity="0.5"/>
<rect x="1026.1" y="228.4" width="6" height="8" fill="#759ca7" opacity="0.5"/>
<rect x="1040.1" y="228.4" width="6" height="8" fill="#759ca7" opacity="0.5"/>
<rect x="1012.1" y="244.4" width="6" height="8" fill="#759ca7" opacity="0.5"/>
<rect x="1026.1" y="244.4" width="6" height="8" fill="#759ca7" opacity="0.5"/>
<rect x="1040.1" y="244.4" width="6" height="8" fill="#759ca7" opacity="0.5"/>
<rect x="1012.1" y="260.4" width="6" height="8" fill="#759ca7" opacity="0.5"/>
<rect x="1026.1" y="260.4" width="6" height="8" fill="#759ca7" opacity="0.5"/>
<rect x="1054.1" y="260.4" width="6" height="8" fill="#759ca7" opacity="0.5"/>
<rect x="0" y="298" width="1200" height="2" fill="#275d6b" opacity="0.15"/>
</svg>