<svg xmlns="http://www.w3.org/2000/svg" viewBox="0 0 1200 300" width="1200" height="300">
<defs><linearGradient id="skyGrad" x1="0" y1="0" x2="0" y2="1"><stop offset="0%" stop-color="#e0eaf4"/><stop offset="100%" stop-color="#f0f2f5"/></linearGradient></defs><rect width="1200" height="300" fill="url(#skyGrad)"/>
<path d="M39.9 210.0 Q117.4 129.0 150.6 129.0 Q183.8 129.0 261.2 210.0 Z" fill="#bbcbbe" opacity="0.5"/>
<path d="M846.2 210.0 Q917.5 121.1 948.0 121.1 Q978.6 121.1 1049.9 210.0 Z" fill="#bbcbbe" opacity="0.5"/>
<path d="M482.8 210.0 Q630.8 112.4 694.3 112.4 Q757.7 112.4 905.7 210.0 Z" fill="#bbcbbe" opacity="0.5"/>
<path d="M581.4 180.0 Q705.0 37.8 744.0 37.8 Q783.1 37.8 906.6 180.0 Z" fill="#a5baaa" opacity="0.35"/>
<path d="M835.7 180.0 Q964.5 57.4 1005.2 57.4 Q1045.9 57.4 1174.7 180.0 Z" fill="#a5baaa" opacity="0.35"/>
<path d="M0 184.0 C373.0 162.5, 866.6 170.5, 1200 217.0" fill="none" stroke="#85acb7" stroke-width="47.6" stroke-linecap="round" opacity="0.5"/>
<rect x="130.1" y="183.9" width="49.5" height="116.1" fill="#92ab97"/>
<rect x="138.7" y="163.4" width="32.2" height="20.5" fill="#8ba28f"/>
<rect x="417.8" y="192.6" width="53.3" height="107.4" fill="#92ab97"/>
<rect x="743.9" y="172.9" width="55.8" height="127.1" fill="#92ab97"/>
<rect x="1005.5" y="220.9" width="48.7" height="79.1" fill="#92ab97"/>
<rect x="146.1" y="153.2" width="34.9" height="146.8" fill="#608567"/>
<rect x="152.2" y="127.2" width="22.7" height="25.9" fill="#5b7e62"/>
<rect x="160.6" y="171.2" width="6" height="8" fill="#98b09c" opacity="0.5"/>
<rect x="160.6" y="203.2" width="6" height="8" fill="#98b09c" opacity="0.5"/>
<rect x="160.6" y="219.2" width="6" height="8" fill="#98b09c" opacity="0.5"/>
<rect x="418.1" y="138.1" width="29.6" height="161.9" fill="#608567"/>
<polygon points="418.1,138.1 432.9,130.8 447.7,138.1" fill="#587a5f"/>
<rect x="429.9" y="150.1" width="6" height="8" fill="#98b09c" opacity="0.5"/>
<rect x="429.9" y="166.1" width="6" height="8" fill="#98b09c" opacity="0.5"/>
<rect x="429.9" y="182.1" width="6" height="8" fill="#98b09c" opacity="0.5"/>
<rect x="429.9" y="198.1" width="6" height="8" fill="#98b09c" opacity="0.5"/>
<rect x="429.9" y="214.1" width="6" height="8" fill="#98b09c" opacity="0.5"/>
<rect x="429.9" y="230.1" width="6" height="8" fill="#98b09c" opacity="0.5"/>
<rect x="752.1" y="146.3" width="38.7" height="153.7" fill="#608567"/>
<rect x="768.5" y="190.3" width="6" height="8" fill="#98b09c" opacity="0.5"/>
<rect x="768.5" y="206.3" width="6" height="8" fill="#98b09c" opacity="0.5"/>
<rect x="768.5" y="238.3" width="6" height="8" fill="#98b09c" opacity="0.5"/>
<rect x="1038.6" y="173.3" width="43.0" height="126.7" fill="#608567"/>
<rect x="1046.1" y="150.9" width="27.9" height="22.4" fill="#5b7e62"/>
<rect x="1057.1" y="162.9" width="6" height="8" fill="#98b09c" opacity="0.5"/>
<rect x="1057.1" y="178.9" width="6" height="8" fill="#98b09c" opacity="0.5"/>
<rect x="1057.1" y="210.9" width="6" height="8" fill="#98b09c" opacity="0.5"/>
<rect x="1057.1" y="242.9" width="6" height="8" fill="#98b09c" opacity="0.5"/>
<rect x="124.2" y="206.5" width="59.7" height="93.5" fill="#386641"/>
<polygon points="124.2,206.5 154.0,191.5 183.9,206.5" fill="#345e3c"/>
<rect x="137.0" y="218.5" width="6" height="8" fill="#7e9c84" opacity="0.5"/>
<rect x="151.0" y="218.5" width="6" height="8" fill="#7e9c84" opacity="0.5"/>
<rect x="137.0" y="234.5" width="6" height="8" fill="#7e9c84" opacity="0.5"/>
<rect x="151.0" y="234.5" width="6" height="8" fill="#7e9c84" opacity="0.5"/>
<rect x="165.0" y="234.5" width="6" height="8" fill="#7e9c84" opacity="0.5"/>
<rect x="137.0" y="250.5" width="6" height="8" fill="#7e9c84" opacity="0.5"/>
<rect x="151.0" y="250.5" width="6" height="8" fill="#7e9c84" opacity="0.5"/>
<rect x="151.0" y="266.5" width="6" height="8" fill="#7e9c84" opacity="0.5"/>
<rect x="395.6" y="232.7" width="57.6" height="67.3" fill="#386641"/>
<rect x="428.4" y="244.7" width="6" height="8" fill="#7e9c84" opacity="0.5"/>
<rect x="699.0" y="229.4" width="39.8" height="70.6" fill="#386641"/>
<rect x="715.9" y="257.4" width="6" height="8" fill="#7e9c84" opacity="0.5"/>
<rect x="1013.0" y="138.0" width="45.3" height="162.0" fill="#386641"/>
<rect x="1020.9" y="109.4" width="29.5" height="28.6" fill="#35613e"/>
<rect x="1025.6" y="121.4" width="6" height="8" fill="#7e9c84" opacity="0.5"/>
<rect x="1039.6" y="121.4" width="6" height="8" fill="#7e9c84" opacity="0.5"/>
<rect x="1039.6" y="153.4" width="6" height="8" fill="#7e9c84" opacity="0.5"/>
<rect x="1025.6" y="169.4" width="6" height="8" fill="#7e9c84" opacity="0.5"/>
<rect x="1039.6" y="169.4" width="6" height="8" fill="#7e9c84" opacity="0.5"/>
<rect x="1025.6" y="185.4" width="6" height="8" fill="#7e9c84" opacity="0.5"/>
<rect x="1025.6" y="201.4" width="6" height="8" fill="#7e9c84" opacity="0.5"/>
<line x1="289.7" y1="285.0" x2="289.7" y2="276.6" stroke="#5c4a32" stroke-width="3"/>
<polygon points="280.8,276.6 289.7,234.0 298.6,276.6" fill="#274e22"/>
<line x1="576.1" y1="285.0" x2="576.1" y2="274.9" stroke="#5c4a32" stroke-width="3"/>
<polygon points="568.3,274.9 576.1,230.1 583.9,274.9" fill="#295224"/>
<line x1="875.9" y1="285.0" x2="875.9" y2="273.6" stroke="#5c4a32" stroke-width="3"/>
<polygon points="868.3,273.6 875.9,241.5 883.4,273.6" fill="#295123"/>
<line x1="992.3" y1="285.0" x2="992.3" y2="275.4" stroke="#5c4a32" stroke-width="3"/>
<polygon points="983.2,275.4 992.3,242.0 1001.4,275.4" fill="#2b5525"/>
<line x1="1105.2" y1="285.0" x2="1105.2" y2="273.2" stroke="#5c4a32" stroke-width="3"/>
<polygon points="1096.4,273.2 1105.2,242.2 1113.9,273.2" fill="#274f22"/>
<rect x="0" y="285" width="1200" height="15" fill="#8a7e72" opacity="0.4"/>
<ellipse cx="903.2" cy="49.3" rx="81.7" ry="13.2" fill="#c8c8c8" opacity="0.15"/>
<ellipse cx="679.4" cy="29.5" rx="116.7" ry="17.4" fill="#c8c8c8" opacity="0.15"/>
</svg>