<svg xmlns="http://www.w3.org/2000/svg" viewBox="0 0 1200 400" width="1200" height="400">
<defs>
<linearGradient id="bg" x1="0" y1="0" x2="0" y2="1"><stop offset="0%" stop-color="#15803d"/><stop offset="100%" stop-color="#1d4ed8"/></linearGradient>
<linearGradient id="warm" x1="0" y1="0" x2="1" y2="1"><stop offset="0%" stop-color="#8d8e8e" stop-opacity="0.18"/><stop offset="100%" stop-color="#8d8e8e" stop-opacity="0.06"/></linearGradient>
</defs>
<rect width="1200" height="400" fill="url(#bg)"/>
<path d="M0 400 L0 241.8147164784015 C60.0 246.7, 90.0 215.6, 150.0 221.1 C210.0 224.6, 240.0 250.6, 300.0 254.5 C360.0 250.5, 390.0 232.3, 450.0 222.6 C510.0 227.4, 540.0 249.4, 600.0 252.3 C660.0 259.9, 690.0 248.1, 750.0 250.5 C810.0 250.4, 840.0 218.5, 900.0 220.4 C960.0 219.6, 990.0 248.7, 1050.0 242.4 C1110.0 234.2, 1140.0 242.3, 1200.0 246.2 L1200 400 Z" fill="#1a60a2" opacity="0.45"/>
<path d="M0 400 L0 267.4800472025707 C52.5 266.2, 97.5 263.9, 150.0 263.5 C202.5 258.3, 247.5 273.7, 300.0 278.3 C352.5 276.7, 397.5 274.4, 450.0 269.5 C502.5 262.7, 547.5 260.6, 600.0 264.9 C652.5 268.1, 697.5 265.9, 750.0 269.0 C802.5 274.1, 847.5 273.1, 900.0 271.1 C952.5 269.8, 997.5 283.0, 1050.0 277.3 C1102.5 278.6, 1147.5 282.6, 1200.0 275.3 L1200 400 Z" fill="#1d4ed8" opacity="0.3"/>
<rect x="1016.2" y="347.3" width="22.8" height="52.7" rx="3.6" fill="#e8eef8" opacity="0.65"/>
<rect x="688.8" y="361.9" width="20.5" height="38.1" rx="6.0" fill="#8ba5e9" opacity="0.63"/>
<rect x="931.4" y="274.6" width="47.8" height="125.4" rx="4.7" fill="#c5d3f2" opacity="0.56"/>
<rect x="952.4" y="284.6" width="4" height="5" rx="0.5" fill="#15803d" opacity="0.6"/>
<rect x="936.4" y="306.6" width="4" height="5" rx="0.5" fill="#15803d" opacity="0.6"/>
<rect x="936.4" y="328.6" width="4" height="5" rx="0.5" fill="#15803d" opacity="0.6"/>
<rect x="952.4" y="328.6" width="4" height="5" rx="0.5" fill="#15803d" opacity="0.6"/>
<rect x="936.4" y="350.6" width="4" height="5" rx="0.5" fill="#15803d" opacity="0.6"/>
<rect x="952.4" y="350.6" width="4" height="5" rx="0.5" fill="#15803d" opacity="0.6"/>
<rect x="678.6" y="271.7" width="33.7" height="128.3" rx="4.1" fill="#dbe4f6" opacity="0.75"/>
<rect x="694.8" y="281.7" width="4" height="5" rx="0.5" fill="#15803d" opacity="0.6"/>
<rect x="683.6" y="303.7" width="4" height="5" rx="0.5" fill="#15803d" opacity="0.6"/>
<rect x="694.8" y="303.7" width="4" height="5" rx="0.5" fill="#15803d" opacity="0.6"/>
<rect x="683.6" y="325.7" width="4" height="5" rx="0.5" fill="#15803d" opacity="0.6"/>
<rect x="683.6" y="347.7" width="4" height="5" rx="0.5" fill="#15803d" opacity="0.6"/>
<rect x="510.7" y="349.3" width="44.2" height="50.7" rx="6.2" fill="#cbd7f3" opacity="0.70"/>
<rect x="731.4" y="287.7" width="43.9" height="112.3" rx="8.0" fill="#e4eaf7" opacity="0.50"/>
<rect x="751.0" y="297.7" width="4" height="5" rx="0.5" fill="#15803d" opacity="0.6"/>
<rect x="751.0" y="319.7" width="4" height="5" rx="0.5" fill="#15803d" opacity="0.6"/>
<rect x="736.4" y="363.7" width="4" height="5" rx="0.5" fill="#15803d" opacity="0.6"/>
<rect x="584.4" y="346.6" width="31.3" height="53.4" rx="8.0" fill="#abbeee" opacity="0.54"/>
<rect x="457.6" y="355.3" width="15.4" height="44.7" rx="5.1" fill="#839ee8" opacity="0.66"/>
<rect x="380.5" y="277.6" width="14.1" height="122.4" rx="5.8" fill="#849fe8" opacity="0.84"/>
<rect x="385.5" y="309.6" width="4" height="5" rx="0.5" fill="#15803d" opacity="0.6"/>
<rect x="385.5" y="331.6" width="4" height="5" rx="0.5" fill="#15803d" opacity="0.6"/>
<rect x="385.5" y="353.6" width="4" height="5" rx="0.5" fill="#15803d" opacity="0.6"/>
<rect x="693.4" y="358.2" width="31.5" height="41.8" rx="3.7" fill="#85a0e8" opacity="0.51"/>
<rect x="514.7" y="347.3" width="36.1" height="52.7" rx="6.2" fill="#c2d0f2" opacity="0.52"/>
<rect x="903.4" y="317.6" width="48.1" height="82.4" rx="6.5" fill="#7c99e7" opacity="0.75"/>
<rect x="266.8" y="305.6" width="16.4" height="94.4" rx="6.5" fill="#acbfee" opacity="0.71"/>
<polygon points="788.2,155.9 782.0,166.7 794.4,166.7" fill="#15803d" opacity="0.26"/>
<polygon points="65.2,15.5 58.8,26.5 71.5,26.5" fill="#15803d" opacity="0.21"/>
<rect width="1200" height="400" fill="url(#warm)"/>
<rect width="1200" height="400" fill="#15803d" opacity="0.38"/>
</svg>