<svg xmlns="http://www.w3.org/2000/svg" viewBox="0 0 1200 300" width="1200" height="300">
<rect width="1200" height="300" fill="#e6eef4"/>
<path d="M0 300 L0 210.0 C386.9 161.4, 891.3 192.4, 1200 210.0 L1200 300 Z" fill="#b5cad8" opacity="0.3"/>
<rect x="175.9" y="206.9" width="50.2" height="93.1" fill="#99b6c9"/>
<rect x="432.8" y="241.5" width="54.9" height="58.5" fill="#99b6c9"/>
<rect x="681.3" y="229.9" width="58.8" height="70.1" fill="#99b6c9"/>
<rect x="996.9" y="204.0" width="72.6" height="96.0" fill="#99b6c9"/>
<rect x="153.8" y="178.1" width="47.7" height="121.9" fill="#6a95b1"/>
<rect x="167.7" y="206.1" width="6" height="8" fill="#9ebacc" opacity="0.5"/>
<rect x="181.7" y="206.1" width="6" height="8" fill="#9ebacc" opacity="0.5"/>
<rect x="167.7" y="222.1" width="6" height="8" fill="#9ebacc" opacity="0.5"/>
<rect x="181.7" y="222.1" width="6" height="8" fill="#9ebacc" opacity="0.5"/>
<rect x="167.7" y="238.1" width="6" height="8" fill="#9ebacc" opacity="0.5"/>
<rect x="181.7" y="238.1" width="6" height="8" fill="#9ebacc" opacity="0.5"/>
<rect x="181.7" y="254.1" width="6" height="8" fill="#9ebacc" opacity="0.5"/>
<rect x="167.7" y="270.1" width="6" height="8" fill="#9ebacc" opacity="0.5"/>
<rect x="456.2" y="141.6" width="52.3" height="158.4" fill="#6a95b1"/>
<rect x="486.4" y="153.6" width="6" height="8" fill="#9ebacc" opacity="0.5"/>
<rect x="472.4" y="169.6" width="6" height="8" fill="#9ebacc" opacity="0.5"/>
<rect x="486.4" y="169.6" width="6" height="8" fill="#9ebacc" opacity="0.5"/>
<rect x="486.4" y="185.6" width="6" height="8" fill="#9ebacc" opacity="0.5"/>
<rect x="472.4" y="201.6" width="6" height="8" fill="#9ebacc" opacity="0.5"/>
<rect x="486.4" y="201.6" width="6" height="8" fill="#9ebacc" opacity="0.5"/>
<rect x="472.4" y="217.6" width="6" height="8" fill="#9ebacc" opacity="0.5"/>
<rect x="486.4" y="217.6" width="6" height="8" fill="#9ebacc" opacity="0.5"/>
<rect x="472.4" y="233.6" width="6" height="8" fill="#9ebacc" opacity="0.5"/>
<rect x="486.4" y="233.6" width="6" height="8" fill="#9ebacc" opacity="0.5"/>
<rect x="486.4" y="249.6" width="6" height="8" fill="#9ebacc" opacity="0.5"/>
<rect x="472.4" y="265.6" width="6" height="8" fill="#9ebacc" opacity="0.5"/>
<rect x="486.4" y="265.6" width="6" height="8" fill="#9ebacc" opacity="0.5"/>
<rect x="682.8" y="141.9" width="37.2" height="158.1" fill="#6a95b1"/>
<rect x="698.4" y="153.9" width="6" height="8" fill="#9ebacc" opacity="0.5"/>
<rect x="698.4" y="217.9" width="6" height="8" fill="#9ebacc" opacity="0.5"/>
<rect x="698.4" y="233.9" width="6" height="8" fill="#9ebacc" opacity="0.5"/>
<rect x="698.4" y="249.9" width="6" height="8" fill="#9ebacc" opacity="0.5"/>
<rect x="698.4" y="265.9" width="6" height="8" fill="#9ebacc" opacity="0.5"/>
<rect x="975.3" y="143.2" width="53.8" height="156.8" fill="#6a95b1"/>
<rect x="992.3" y="155.2" width="6" height="8" fill="#9ebacc" opacity="0.5"/>
<rect x="1006.3" y="155.2" width="6" height="8" fill="#9ebacc" opacity="0.5"/>
<rect x="992.3" y="171.2" width="6" height="8" fill="#9ebacc" opacity="0.5"/>
<rect x="1006.3" y="171.2" width="6" height="8" fill="#9ebacc" opacity="0.5"/>
<rect x="992.3" y="187.2" width="6" height="8" fill="#9ebacc" opacity="0.5"/>
<rect x="1006.3" y="187.2" width="6" height="8" fill="#9ebacc" opacity="0.5"/>
<rect x="992.3" y="203.2" width="6" height="8" fill="#9ebacc" opacity="0.5"/>
<rect x="1006.3" y="203.2" width="6" height="8" fill="#9ebacc" opacity="0.5"/>
<rect x="1006.3" y="219.2" width="6" height="8" fill="#9ebacc" opacity="0.5"/>
<rect x="992.3" y="235.2" width="6" height="8" fill="#9ebacc" opacity="0.5"/>
<rect x="1006.3" y="235.2" width="6" height="8" fill="#9ebacc" opacity="0.5"/>
<rect x="992.3" y="251.2" width="6" height="8" fill="#9ebacc" opacity="0.5"/>
<rect x="185.7" y="221.9" width="48.9" height="78.1" fill="#457b9d"/>
<rect x="200.1" y="233.9" width="6" height="8" fill="#86a9bf" opacity="0.5"/>
<rect x="214.1" y="233.9" width="6" height="8" fill="#86a9bf" opacity="0.5"/>
<rect x="200.1" y="265.9" width="6" height="8" fill="#86a9bf" opacity="0.5"/>
<rect x="399.2" y="151.5" width="62.2" height="148.5" fill="#457b9d"/>
<rect x="413.3" y="163.5" width="6" height="8" fill="#86a9bf" opacity="0.5"/>
<rect x="427.3" y="163.5" width="6" height="8" fill="#86a9bf" opacity="0.5"/>
<rect x="413.3" y="179.5" width="6" height="8" fill="#86a9bf" opacity="0.5"/>
<rect x="427.3" y="179.5" width="6" height="8" fill="#86a9bf" opacity="0.5"/>
<rect x="441.3" y="179.5" width="6" height="8" fill="#86a9bf" opacity="0.5"/>
<rect x="413.3" y="195.5" width="6" height="8" fill="#86a9bf" opacity="0.5"/>
<rect x="427.3" y="195.5" width="6" height="8" fill="#86a9bf" opacity="0.5"/>
<rect x="413.3" y="211.5" width="6" height="8" fill="#86a9bf" opacity="0.5"/>
<rect x="427.3" y="211.5" width="6" height="8" fill="#86a9bf" opacity="0.5"/>
<rect x="441.3" y="211.5" width="6" height="8" fill="#86a9bf" opacity="0.5"/>
<rect x="413.3" y="227.5" width="6" height="8" fill="#86a9bf" opacity="0.5"/>
<rect x="427.3" y="227.5" width="6" height="8" fill="#86a9bf" opacity="0.5"/>
<rect x="441.3" y="227.5" width="6" height="8" fill="#86a9bf" opacity="0.5"/>
<rect x="413.3" y="243.5" width="6" height="8" fill="#86a9bf" opacity="0.5"/>
<rect x="413.3" y="259.5" width="6" height="8" fill="#86a9bf" opacity="0.5"/>
<rect x="441.3" y="259.5" width="6" height="8" fill="#86a9bf" opacity="0.5"/>
<rect x="708.3" y="106.5" width="68.1" height="193.5" fill="#457b9d"/>
<rect x="725.3" y="118.5" width="6" height="8" fill="#86a9bf" opacity="0.5"/>
<rect x="739.3" y="118.5" width="6" height="8" fill="#86a9bf" opacity="0.5"/>
<rect x="725.3" y="134.5" width="6" height="8" fill="#86a9bf" opacity="0.5"/>
<rect x="739.3" y="134.5" width="6" height="8" fill="#86a9bf" opacity="0.5"/>
<rect x="725.3" y="150.5" width="6" height="8" fill="#86a9bf" opacity="0.5"/>
<rect x="739.3" y="150.5" width="6" height="8" fill="#86a9bf" opacity="0.5"/>
<rect x="753.3" y="150.5" width="6" height="8" fill="#86a9bf" opacity="0.5"/>
<rect x="725.3" y="166.5" width="6" height="8" fill="#86a9bf" opacity="0.5"/>
<rect x="739.3" y="166.5" width="6" height="8" fill="#86a9bf" opacity="0.5"/>
<rect x="725.3" y="182.5" width="6" height="8" fill="#86a9bf" opacity="0.5"/>
<rect x="753.3" y="182.5" width="6" height="8" fill="#86a9bf" opacity="0.5"/>
<rect x="725.3" y="198.5" width="6" height="8" fill="#86a9bf" opacity="0.5"/>
<rect x="739.3" y="198.5" width="6" height="8" fill="#86a9bf" opacity="0.5"/>
<rect x="753.3" y="198.5" width="6" height="8" fill="#86a9bf" opacity="0.5"/>
<rect x="725.3" y="214.5" width="6" height="8" fill="#86a9bf" opacity="0.5"/>
<rect x="739.3" y="214.5" width="6" height="8" fill="#86a9bf" opacity="0.5"/>
<rect x="753.3" y="214.5" width="6" height="8" fill="#86a9bf" opacity="0.5"/>
<rect x="725.3" y="230.5" width="6" height="8" fill="#86a9bf" opacity="0.5"/>
<rect x="739.3" y="230.5" width="6" height="8" fill="#86a9bf" opacity="0.5"/>
<rect x="753.3" y="230.5" width="6" height="8" fill="#86a9bf" opacity="0.5"/>
<rect x="739.3" y="246.5" width="6" height="8" fill="#86a9bf" opacity="0.5"/>
<rect x="753.3" y="246.5" width="6" height="8" fill="#86a9bf" opacity="0.5"/>
<rect x="753.3" y="262.5" width="6" height="8" fill="#86a9bf" opacity="0.5"/>
<rect x="997.0" y="224.5" width="38.9" height="75.5" fill="#457b9d"/>
<rect x="1013.4" y="268.5" width="6" height="8" fill="#86a9bf" opacity="0.5"/>
<rect x="0" y="298" width="1200" height="2" fill="#3e6f8d" opacity="0.15"/>
</svg>