<svg xmlns="http://www.w3.org/2000/svg" viewBox="0 0 1200 300" width="1200" height="300">
<defs>
<linearGradient id="skyGrad" x1="0" y1="0" x2="0" y2="1">
<stop offset="0%" stop-color="#a78bfa"/>
<stop offset="18%" stop-color="#ddb4f0"/>
<stop offset="35%" stop-color="#fda4af"/>
<stop offset="52%" stop-color="#fdba74"/>
<stop offset="72%" stop-color="#fef08a"/>
<stop offset="100%" stop-color="#fef9c3"/>
</linearGradient>
<linearGradient id="bldg_coral" x1="0" y1="0" x2="0" y2="1"><stop offset="0%" stop-color="#fecaca"/><stop offset="100%" stop-color="#fca5a5"/></linearGradient>
<linearGradient id="bldg_teal" x1="0" y1="0" x2="0" y2="1"><stop offset="0%" stop-color="#99f6e4"/><stop offset="100%" stop-color="#5eead4"/></linearGradient>
<linearGradient id="bldg_amber" x1="0" y1="0" x2="0" y2="1"><stop offset="0%" stop-color="#fde68a"/><stop offset="100%" stop-color="#fcd34d"/></linearGradient>
<linearGradient id="bldg_lavender" x1="0" y1="0" x2="0" y2="1"><stop offset="0%" stop-color="#ddd6fe"/><stop offset="100%" stop-color="#c4b5fd"/></linearGradient>
<linearGradient id="bldg_blue" x1="0" y1="0" x2="0" y2="1"><stop offset="0%" stop-color="#bfdbfe"/><stop offset="100%" stop-color="#93c5fd"/></linearGradient>
<linearGradient id="bldg_mint" x1="0" y1="0" x2="0" y2="1"><stop offset="0%" stop-color="#a7f3d0"/><stop offset="100%" stop-color="#6ee7b7"/></linearGradient>
<linearGradient id="bldg_rose" x1="0" y1="0" x2="0" y2="1"><stop offset="0%" stop-color="#fecdd3"/><stop offset="100%" stop-color="#fda4af"/></linearGradient>
<linearGradient id="bldg_sky" x1="0" y1="0" x2="0" y2="1"><stop offset="0%" stop-color="#bae6fd"/><stop offset="100%" stop-color="#7dd3fc"/></linearGradient>
<linearGradient id="roof_navyRoof" x1="0" y1="0" x2="0" y2="1"><stop offset="0%" stop-color="#4338ca"/><stop offset="100%" stop-color="#3730a3"/></linearGradient>
<linearGradient id="roof_coralRoof" x1="0" y1="0" x2="0" y2="1"><stop offset="0%" stop-color="#f87171"/><stop offset="100%" stop-color="#ef4444"/></linearGradient>
<linearGradient id="roof_tealRoof" x1="0" y1="0" x2="0" y2="1"><stop offset="0%" stop-color="#2dd4bf"/><stop offset="100%" stop-color="#14b8a6"/></linearGradient>
<radialGradient id="windowGlow" cx="50%" cy="50%" r="50%"><stop offset="0%" stop-color="#fef08a"/><stop offset="60%" stop-color="#fbbf24"/><stop offset="100%" stop-color="#f59e0b"/></radialGradient>
<linearGradient id="hillFar" x1="0" y1="0" x2="0" y2="1"><stop offset="0%" stop-color="#c4b5fd"/><stop offset="100%" stop-color="#a5b4fc"/></linearGradient>
<linearGradient id="hillMid" x1="0" y1="0" x2="0" y2="1"><stop offset="0%" stop-color="#86efac"/><stop offset="100%" stop-color="#4ade80"/></linearGradient>
<linearGradient id="hillNear" x1="0" y1="0" x2="0" y2="1"><stop offset="0%" stop-color="#34d399"/><stop offset="100%" stop-color="#10b981"/></linearGradient>
<linearGradient id="hillDesertFar" x1="0" y1="0" x2="0" y2="1"><stop offset="0%" stop-color="#fde68a"/><stop offset="100%" stop-color="#fcd34d"/></linearGradient>
<linearGradient id="hillDesertMid" x1="0" y1="0" x2="0" y2="1"><stop offset="0%" stop-color="#fcd34d"/><stop offset="100%" stop-color="#fbbf24"/></linearGradient>
<linearGradient id="hillDesertNear" x1="0" y1="0" x2="0" y2="1"><stop offset="0%" stop-color="#fbbf24"/><stop offset="100%" stop-color="#f59e0b"/></linearGradient>
<linearGradient id="groundGrad" x1="0" y1="0" x2="0" y2="1"><stop offset="0%" stop-color="#fef3c7"/><stop offset="100%" stop-color="#fde68a"/></linearGradient>
<linearGradient id="waterGrad" x1="0" y1="0" x2="0" y2="1"><stop offset="0%" stop-color="#bfdbfe"/><stop offset="100%" stop-color="#93c5fd"/></linearGradient>
<filter id="softGlow" x="-50%" y="-50%" width="200%" height="200%"><feGaussianBlur in="SourceGraphic" stdDeviation="12"/></filter>
</defs>
<rect width="1200" height="300" fill="url(#skyGrad)"/>
<circle cx="1027.9" cy="47.9" r="45" fill="#fef08a" opacity="0.12" filter="url(#softGlow)"/>
<circle cx="1027.9" cy="47.9" r="30" fill="#fde68a" opacity="0.18" filter="url(#softGlow)"/>
<circle cx="1027.9" cy="47.9" r="16" fill="#fef9c3" opacity="0.25" filter="url(#softGlow)"/>
<path d="M0 300 L0.0 184.0 C94.3 184.0, 94.3 184.4, 188.6 184.4 C356.8 184.4, 356.8 192.0, 525.0 192.0 C641.0 192.0, 641.0 193.3, 756.9 193.3 C880.6 193.3, 880.6 182.6, 1004.3 182.6 C1102.2 182.6, 1102.2 184.2, 1200.0 184.2 L1200 300 Z" fill="url(#hillFar)" opacity="0.5"/>
<path d="M0 300 L0.0 206.3 C123.4 206.3, 123.4 212.3, 246.8 212.3 C422.0 212.3, 422.0 208.9, 597.2 208.9 C729.6 208.9, 729.6 207.1, 862.0 207.1 C1031.0 207.1, 1031.0 212.1, 1200.0 212.1 L1200 300 Z" fill="url(#hillMid)" opacity="0.7"/>
<path d="M0 300 L0.0 231.9 C134.2 231.9, 134.2 230.2, 268.5 230.2 C466.4 230.2, 466.4 236.6, 664.3 236.6 C786.0 236.6, 786.0 237.4, 907.6 237.4 C1053.8 237.4, 1053.8 238.4, 1200.0 238.4 L1200 300 Z" fill="url(#hillNear)" opacity="1"/>
<rect x="151.2" y="203.9" width="77.9" height="96.1" rx="3" fill="url(#bldg_lavender)" opacity="0.7"/>
<polygon points="151.2,203.9 190.2,180.7 229.1,203.9" fill="url(#roof_coralRoof)" opacity="0.7"/>
<rect x="180.2" y="213.9" width="6" height="8" rx="1" fill="url(#windowGlow)" opacity="0.9977209771507052"/>
<rect x="194.2" y="213.9" width="6" height="8" rx="1" fill="url(#windowGlow)" opacity="0.8540432703467287"/>
<rect x="208.2" y="213.9" width="6" height="8" rx="1" fill="url(#windowGlow)" opacity="0.7254059008440961"/>
<rect x="166.2" y="228.9" width="6" height="8" rx="1" fill="url(#windowGlow)" opacity="0.8596251155061764"/>
<rect x="194.2" y="228.9" width="6" height="8" rx="1" fill="url(#windowGlow)" opacity="0.9097736835990909"/>
<rect x="208.2" y="228.9" width="6" height="8" rx="1" fill="url(#windowGlow)" opacity="0.7655468336146076"/>
<rect x="166.2" y="243.9" width="6" height="8" rx="1" fill="url(#windowGlow)" opacity="0.790176272946492"/>
<rect x="166.2" y="258.9" width="6" height="8" rx="1" fill="url(#windowGlow)" opacity="0.8336026315268141"/>
<rect x="180.2" y="258.9" width="6" height="8" rx="1" fill="url(#windowGlow)" opacity="0.9940283045610545"/>
<rect x="208.2" y="258.9" width="6" height="8" rx="1" fill="url(#windowGlow)" opacity="0.9099474781704822"/>
<rect x="550.9" y="205.0" width="78.5" height="95.0" rx="3" fill="url(#bldg_blue)" opacity="0.7"/>
<rect x="566.6" y="193.6" width="47.1" height="11.4" rx="2" fill="url(#roof_tealRoof)" opacity="0.7"/>
<rect x="566.2" y="215.0" width="6" height="8" rx="1" fill="url(#windowGlow)" opacity="0.8970341802560883"/>
<rect x="580.2" y="215.0" width="6" height="8" rx="1" fill="url(#windowGlow)" opacity="0.8086778234265175"/>
<rect x="594.2" y="215.0" width="6" height="8" rx="1" fill="url(#windowGlow)" opacity="0.8597357108070215"/>
<rect x="608.2" y="215.0" width="6" height="8" rx="1" fill="url(#windowGlow)" opacity="0.9752195904381664"/>
<rect x="566.2" y="230.0" width="6" height="8" rx="1" fill="url(#windowGlow)" opacity="0.9744305608209365"/>
<rect x="580.2" y="230.0" width="6" height="8" rx="1" fill="url(#windowGlow)" opacity="0.7393531597402659"/>
<rect x="608.2" y="230.0" width="6" height="8" rx="1" fill="url(#windowGlow)" opacity="0.7168066517062516"/>
<rect x="566.2" y="245.0" width="6" height="8" rx="1" fill="url(#windowGlow)" opacity="0.9113334820192929"/>
<rect x="580.2" y="245.0" width="6" height="8" rx="1" fill="url(#windowGlow)" opacity="0.9756813920921092"/>
<rect x="594.2" y="245.0" width="6" height="8" rx="1" fill="url(#windowGlow)" opacity="0.9084418466819645"/>
<rect x="608.2" y="245.0" width="6" height="8" rx="1" fill="url(#windowGlow)" opacity="0.8508753684586264"/>
<rect x="566.2" y="260.0" width="6" height="8" rx="1" fill="url(#windowGlow)" opacity="0.8219636466456407"/>
<rect x="580.2" y="260.0" width="6" height="8" rx="1" fill="url(#windowGlow)" opacity="0.8894815433255776"/>
<rect x="608.2" y="260.0" width="6" height="8" rx="1" fill="url(#windowGlow)" opacity="0.7622996213204691"/>
<rect x="991.6" y="238.1" width="50.5" height="61.9" rx="3" fill="url(#bldg_mint)" opacity="0.7"/>
<rect x="991.6" y="235.1" width="50.5" height="3" rx="1" fill="url(#roof_navyRoof)" opacity="0.7"/>
<rect x="1006.9" y="248.1" width="6" height="8" rx="1" fill="url(#windowGlow)" opacity="0.7708791978521641"/>
<rect x="1020.9" y="248.1" width="6" height="8" rx="1" fill="url(#windowGlow)" opacity="0.8521863400247816"/>
<rect x="152.2" y="228.6" width="44.9" height="71.4" rx="3" fill="url(#bldg_rose)" opacity="0.85"/>
<rect x="152.2" y="225.6" width="44.9" height="3" rx="1" fill="url(#roof_coralRoof)" opacity="0.85"/>
<rect x="178.6" y="238.6" width="6" height="8" rx="1" fill="url(#windowGlow)" opacity="0.999046783707592"/>
<rect x="164.6" y="253.6" width="6" height="8" rx="1" fill="url(#windowGlow)" opacity="0.8230562556642369"/>
<rect x="178.6" y="253.6" width="6" height="8" rx="1" fill="url(#windowGlow)" opacity="0.7623381863172809"/>
<path d="M174.6 253.6 L192.6 253.6 L189.6 259.6 L177.6 259.6 Z" fill="url(#roof_navyRoof)" opacity="0.68"/>
<rect x="386.2" y="168.2" width="78.7" height="131.8" rx="3" fill="url(#bldg_sky)" opacity="0.85"/>
<rect x="386.2" y="165.2" width="78.7" height="3" rx="1" fill="url(#roof_tealRoof)" opacity="0.85"/>
<rect x="415.5" y="178.2" width="6" height="8" rx="1" fill="url(#windowGlow)" opacity="0.7977067798365405"/>
<rect x="429.5" y="178.2" width="6" height="8" rx="1" fill="url(#windowGlow)" opacity="0.9468364201238548"/>
<rect x="443.5" y="178.2" width="6" height="8" rx="1" fill="url(#windowGlow)" opacity="0.9932683563759868"/>
<rect x="401.5" y="193.2" width="6" height="8" rx="1" fill="url(#windowGlow)" opacity="0.9931671334398757"/>
<rect x="415.5" y="193.2" width="6" height="8" rx="1" fill="url(#windowGlow)" opacity="0.8038254451024465"/>
<rect x="429.5" y="193.2" width="6" height="8" rx="1" fill="url(#windowGlow)" opacity="0.8683591875565979"/>
<rect x="443.5" y="193.2" width="6" height="8" rx="1" fill="url(#windowGlow)" opacity="0.9670620578187806"/>
<rect x="415.5" y="208.2" width="6" height="8" rx="1" fill="url(#windowGlow)" opacity="0.8159442914258429"/>
<rect x="429.5" y="208.2" width="6" height="8" rx="1" fill="url(#windowGlow)" opacity="0.8533066362856452"/>
<rect x="443.5" y="208.2" width="6" height="8" rx="1" fill="url(#windowGlow)" opacity="0.8116702835595562"/>
<rect x="401.5" y="223.2" width="6" height="8" rx="1" fill="url(#windowGlow)" opacity="0.8704449935678602"/>
<rect x="415.5" y="223.2" width="6" height="8" rx="1" fill="url(#windowGlow)" opacity="0.9991783420085805"/>
<rect x="429.5" y="223.2" width="6" height="8" rx="1" fill="url(#windowGlow)" opacity="0.8515387979110417"/>
<rect x="443.5" y="223.2" width="6" height="8" rx="1" fill="url(#windowGlow)" opacity="0.7379090315838852"/>
<rect x="401.5" y="238.2" width="6" height="8" rx="1" fill="url(#windowGlow)" opacity="0.7112330058641885"/>
<rect x="415.5" y="238.2" width="6" height="8" rx="1" fill="url(#windowGlow)" opacity="0.8458775942893129"/>
<rect x="443.5" y="238.2" width="6" height="8" rx="1" fill="url(#windowGlow)" opacity="0.8243976599650447"/>
<rect x="401.5" y="253.2" width="6" height="8" rx="1" fill="url(#windowGlow)" opacity="0.9398462316672532"/>
<rect x="415.5" y="253.2" width="6" height="8" rx="1" fill="url(#windowGlow)" opacity="0.7396037575507554"/>
<rect x="429.5" y="253.2" width="6" height="8" rx="1" fill="url(#windowGlow)" opacity="0.7058950300821545"/>
<rect x="443.5" y="253.2" width="6" height="8" rx="1" fill="url(#windowGlow)" opacity="0.7961418229137276"/>
<rect x="722.3" y="162.0" width="70.7" height="138.0" rx="3" fill="url(#bldg_coral)" opacity="0.85"/>
<rect x="736.4" y="145.5" width="42.4" height="16.6" rx="2" fill="url(#roof_navyRoof)" opacity="0.85"/>
<rect x="740.7" y="172.0" width="6" height="8" rx="1" fill="url(#windowGlow)" opacity="0.9552062282130152"/>
<rect x="754.7" y="172.0" width="6" height="8" rx="1" fill="url(#windowGlow)" opacity="0.8599507905822017"/>
<rect x="754.7" y="187.0" width="6" height="8" rx="1" fill="url(#windowGlow)" opacity="0.9348133547859327"/>
<rect x="768.7" y="187.0" width="6" height="8" rx="1" fill="url(#windowGlow)" opacity="0.9785594364528355"/>
<rect x="740.7" y="202.0" width="6" height="8" rx="1" fill="url(#windowGlow)" opacity="0.8005047518762316"/>
<rect x="754.7" y="202.0" width="6" height="8" rx="1" fill="url(#windowGlow)" opacity="0.7884295801578227"/>
<rect x="768.7" y="202.0" width="6" height="8" rx="1" fill="url(#windowGlow)" opacity="0.9064552093420435"/>
<rect x="740.7" y="217.0" width="6" height="8" rx="1" fill="url(#windowGlow)" opacity="0.8287807376257985"/>
<rect x="754.7" y="217.0" width="6" height="8" rx="1" fill="url(#windowGlow)" opacity="0.7103430926382276"/>
<rect x="768.7" y="217.0" width="6" height="8" rx="1" fill="url(#windowGlow)" opacity="0.913125853945094"/>
<rect x="740.7" y="232.0" width="6" height="8" rx="1" fill="url(#windowGlow)" opacity="0.8777409023035974"/>
<rect x="768.7" y="232.0" width="6" height="8" rx="1" fill="url(#windowGlow)" opacity="0.7227905587399334"/>
<rect x="740.7" y="247.0" width="6" height="8" rx="1" fill="url(#windowGlow)" opacity="0.7081068102308115"/>
<rect x="754.7" y="247.0" width="6" height="8" rx="1" fill="url(#windowGlow)" opacity="0.7357777281830914"/>
<rect x="768.7" y="247.0" width="6" height="8" rx="1" fill="url(#windowGlow)" opacity="0.8745069342546663"/>
<path d="M729.4 210.3 L757.7 210.3 L754.7 216.3 L732.4 216.3 Z" fill="url(#roof_tealRoof)" opacity="0.68"/>
<rect x="1005.0" y="218.5" width="71.6" height="81.5" rx="3" fill="url(#bldg_teal)" opacity="0.85"/>
<polygon points="1005.0,218.5 1040.9,198.5 1076.7,218.5" fill="url(#roof_coralRoof)" opacity="0.85"/>
<rect x="1023.9" y="228.5" width="6" height="8" rx="1" fill="url(#windowGlow)" opacity="0.7485181818942158"/>
<rect x="1037.9" y="228.5" width="6" height="8" rx="1" fill="url(#windowGlow)" opacity="0.866004587600941"/>
<rect x="1037.9" y="243.5" width="6" height="8" rx="1" fill="url(#windowGlow)" opacity="0.9899499831208726"/>
<rect x="1051.9" y="243.5" width="6" height="8" rx="1" fill="url(#windowGlow)" opacity="0.8036943651287324"/>
<rect x="1037.9" y="258.5" width="6" height="8" rx="1" fill="url(#windowGlow)" opacity="0.7792413429260446"/>
<rect x="1051.9" y="258.5" width="6" height="8" rx="1" fill="url(#windowGlow)" opacity="0.7402682169993725"/>
<rect x="189.5" y="142.3" width="70.7" height="157.7" rx="3" fill="url(#bldg_amber)" opacity="1"/>
<polygon points="189.5,142.3 224.8,125.7 260.2,142.3" fill="url(#roof_tealRoof)" opacity="1"/>
<rect x="207.8" y="152.3" width="6" height="8" rx="1" fill="url(#windowGlow)" opacity="0.9761030919272933"/>
<rect x="221.8" y="152.3" width="6" height="8" rx="1" fill="url(#windowGlow)" opacity="0.8887564839742874"/>
<rect x="221.8" y="167.3" width="6" height="8" rx="1" fill="url(#windowGlow)" opacity="0.9241893082969772"/>
<rect x="207.8" y="182.3" width="6" height="8" rx="1" fill="url(#windowGlow)" opacity="0.9437434056511816"/>
<rect x="221.8" y="182.3" width="6" height="8" rx="1" fill="url(#windowGlow)" opacity="0.8581494279476578"/>
<rect x="235.8" y="182.3" width="6" height="8" rx="1" fill="url(#windowGlow)" opacity="0.8299384712381002"/>
<rect x="207.8" y="197.3" width="6" height="8" rx="1" fill="url(#windowGlow)" opacity="0.751946003526424"/>
<rect x="221.8" y="197.3" width="6" height="8" rx="1" fill="url(#windowGlow)" opacity="0.7274347294715394"/>
<rect x="235.8" y="197.3" width="6" height="8" rx="1" fill="url(#windowGlow)" opacity="0.9291457225238651"/>
<rect x="207.8" y="212.3" width="6" height="8" rx="1" fill="url(#windowGlow)" opacity="0.7512053916934902"/>
<rect x="221.8" y="212.3" width="6" height="8" rx="1" fill="url(#windowGlow)" opacity="0.994293558129246"/>
<rect x="235.8" y="212.3" width="6" height="8" rx="1" fill="url(#windowGlow)" opacity="0.9375638486526737"/>
<rect x="207.8" y="227.3" width="6" height="8" rx="1" fill="url(#windowGlow)" opacity="0.9623310596506721"/>
<rect x="221.8" y="227.3" width="6" height="8" rx="1" fill="url(#windowGlow)" opacity="0.7400010726135229"/>
<rect x="207.8" y="242.3" width="6" height="8" rx="1" fill="url(#windowGlow)" opacity="0.758400939990953"/>
<rect x="221.8" y="242.3" width="6" height="8" rx="1" fill="url(#windowGlow)" opacity="0.7205440566970706"/>
<rect x="235.8" y="242.3" width="6" height="8" rx="1" fill="url(#windowGlow)" opacity="0.8703943763721708"/>
<rect x="207.8" y="257.3" width="6" height="8" rx="1" fill="url(#windowGlow)" opacity="0.7731948747640451"/>
<rect x="219.8" y="284.0" width="10" height="16" rx="2" fill="url(#roof_navyRoof)" opacity="0.8"/>
<rect x="221.8" y="287.0" width="6" height="10" rx="1" fill="url(#windowGlow)" opacity="0.45"/>
<path d="M196.6 197.5 L224.8 197.5 L221.8 203.5 L199.6 203.5 Z" fill="url(#roof_coralRoof)" opacity="0.8"/>
<rect x="570.4" y="131.0" width="70.6" height="169.0" rx="3" fill="url(#bldg_lavender)" opacity="1"/>
<rect x="570.4" y="128.0" width="70.6" height="3" rx="1" fill="url(#roof_navyRoof)" opacity="1"/>
<rect x="588.7" y="141.0" width="6" height="8" rx="1" fill="url(#windowGlow)" opacity="0.8893387060562794"/>
<rect x="602.7" y="141.0" width="6" height="8" rx="1" fill="url(#windowGlow)" opacity="0.8962191804294564"/>
<rect x="616.7" y="141.0" width="6" height="8" rx="1" fill="url(#windowGlow)" opacity="0.8667896011689629"/>
<rect x="588.7" y="156.0" width="6" height="8" rx="1" fill="url(#windowGlow)" opacity="0.9613438037509767"/>
<rect x="602.7" y="156.0" width="6" height="8" rx="1" fill="url(#windowGlow)" opacity="0.8505763478346989"/>
<rect x="616.7" y="156.0" width="6" height="8" rx="1" fill="url(#windowGlow)" opacity="0.8457655469634409"/>
<rect x="588.7" y="171.0" width="6" height="8" rx="1" fill="url(#windowGlow)" opacity="0.870408523627747"/>
<rect x="602.7" y="171.0" width="6" height="8" rx="1" fill="url(#windowGlow)" opacity="0.8153737210274551"/>
<rect x="616.7" y="171.0" width="6" height="8" rx="1" fill="url(#windowGlow)" opacity="0.8116284880375622"/>
<rect x="588.7" y="186.0" width="6" height="8" rx="1" fill="url(#windowGlow)" opacity="0.8012790417770291"/>
<rect x="602.7" y="186.0" width="6" height="8" rx="1" fill="url(#windowGlow)" opacity="0.8765273006523621"/>
<rect x="616.7" y="186.0" width="6" height="8" rx="1" fill="url(#windowGlow)" opacity="0.7747037668128981"/>
<rect x="602.7" y="201.0" width="6" height="8" rx="1" fill="url(#windowGlow)" opacity="0.9153230907932497"/>
<rect x="616.7" y="201.0" width="6" height="8" rx="1" fill="url(#windowGlow)" opacity="0.9880934188086974"/>
<rect x="588.7" y="216.0" width="6" height="8" rx="1" fill="url(#windowGlow)" opacity="0.8926235475077403"/>
<rect x="602.7" y="231.0" width="6" height="8" rx="1" fill="url(#windowGlow)" opacity="0.976214191259916"/>
<rect x="616.7" y="231.0" width="6" height="8" rx="1" fill="url(#windowGlow)" opacity="0.8229718768610488"/>
<rect x="588.7" y="246.0" width="6" height="8" rx="1" fill="url(#windowGlow)" opacity="0.9368872297168184"/>
<rect x="602.7" y="246.0" width="6" height="8" rx="1" fill="url(#windowGlow)" opacity="0.9232152037430625"/>
<rect x="616.7" y="246.0" width="6" height="8" rx="1" fill="url(#windowGlow)" opacity="0.7003469968216246"/>
<rect x="600.7" y="284.0" width="10" height="16" rx="2" fill="url(#roof_navyRoof)" opacity="0.8"/>
<rect x="602.7" y="287.0" width="6" height="10" rx="1" fill="url(#windowGlow)" opacity="0.45"/>
<path d="M577.4 190.1 L605.7 190.1 L602.7 196.1 L580.4 196.1 Z" fill="url(#roof_tealRoof)" opacity="0.8"/>
<rect x="908.3" y="156.2" width="59.1" height="143.8" rx="3" fill="url(#bldg_blue)" opacity="1"/>
<polygon points="908.3,156.2 937.8,136.9 967.4,156.2" fill="url(#roof_coralRoof)" opacity="1"/>
<rect x="920.8" y="166.2" width="6" height="8" rx="1" fill="url(#windowGlow)" opacity="0.8369211321868566"/>
<rect x="934.8" y="166.2" width="6" height="8" rx="1" fill="url(#windowGlow)" opacity="0.7166013699567882"/>
<rect x="948.8" y="166.2" width="6" height="8" rx="1" fill="url(#windowGlow)" opacity="0.9607904177907809"/>
<rect x="920.8" y="181.2" width="6" height="8" rx="1" fill="url(#windowGlow)" opacity="0.8454120937014986"/>
<rect x="934.8" y="181.2" width="6" height="8" rx="1" fill="url(#windowGlow)" opacity="0.7874864743964217"/>
<rect x="948.8" y="181.2" width="6" height="8" rx="1" fill="url(#windowGlow)" opacity="0.9733735317240345"/>
<rect x="920.8" y="196.2" width="6" height="8" rx="1" fill="url(#windowGlow)" opacity="0.8260884247841724"/>
<rect x="934.8" y="196.2" width="6" height="8" rx="1" fill="url(#windowGlow)" opacity="0.991351534422185"/>
<rect x="920.8" y="211.2" width="6" height="8" rx="1" fill="url(#windowGlow)" opacity="0.8608934595067489"/>
<rect x="934.8" y="211.2" width="6" height="8" rx="1" fill="url(#windowGlow)" opacity="0.8944264838446054"/>
<rect x="948.8" y="211.2" width="6" height="8" rx="1" fill="url(#windowGlow)" opacity="0.7873999473114497"/>
<rect x="920.8" y="226.2" width="6" height="8" rx="1" fill="url(#windowGlow)" opacity="0.9424221672315254"/>
<rect x="934.8" y="226.2" width="6" height="8" rx="1" fill="url(#windowGlow)" opacity="0.8970089445808013"/>
<rect x="934.8" y="241.2" width="6" height="8" rx="1" fill="url(#windowGlow)" opacity="0.9890936487769213"/>
<rect x="948.8" y="241.2" width="6" height="8" rx="1" fill="url(#windowGlow)" opacity="0.9860952143026959"/>
<rect x="920.8" y="256.2" width="6" height="8" rx="1" fill="url(#windowGlow)" opacity="0.9530533499331462"/>
<rect x="934.8" y="256.2" width="6" height="8" rx="1" fill="url(#windowGlow)" opacity="0.9039518954250737"/>
<rect x="948.8" y="256.2" width="6" height="8" rx="1" fill="url(#windowGlow)" opacity="0.9650785674644068"/>
<rect x="932.8" y="284.0" width="10" height="16" rx="2" fill="url(#roof_navyRoof)" opacity="0.8"/>
<rect x="934.8" y="287.0" width="6" height="10" rx="1" fill="url(#windowGlow)" opacity="0.45"/>
<path d="M937.8 206.5 L961.5 206.5 L958.5 212.5 L940.8 212.5 Z" fill="url(#roof_navyRoof)" opacity="0.8"/>
<rect x="412.3" y="266.3" width="6" height="18.7" rx="2" fill="#15803d"/>
<circle cx="415.3" cy="256.9" r="13.3" fill="#22c55e" opacity="0.9"/>
<circle cx="407.5" cy="259.9" r="10.0" fill="#16a34a" opacity="0.8"/>
<circle cx="421.4" cy="260.9" r="9.3" fill="#15803d" opacity="0.7"/>
<rect x="771.6" y="263.9" width="6" height="21.1" rx="2" fill="#15803d"/>
<circle cx="774.6" cy="253.7" r="14.2" fill="#22c55e" opacity="0.9"/>
<circle cx="765.7" cy="256.7" r="10.7" fill="#16a34a" opacity="0.8"/>
<circle cx="781.4" cy="257.7" r="10.0" fill="#15803d" opacity="0.7"/>
<rect x="162.3" y="268.1" width="6" height="16.9" rx="2" fill="#15803d"/>
<circle cx="165.3" cy="256.4" r="15.7" fill="#22c55e" opacity="0.9"/>
<circle cx="158.2" cy="259.4" r="11.8" fill="#16a34a" opacity="0.8"/>
<circle cx="170.4" cy="260.4" r="11.0" fill="#15803d" opacity="0.7"/>
<rect x="984.7" y="263.2" width="6" height="21.8" rx="2" fill="#15803d"/>
<circle cx="987.7" cy="252.8" r="14.4" fill="#22c55e" opacity="0.9"/>
<circle cx="980.6" cy="255.8" r="10.8" fill="#16a34a" opacity="0.8"/>
<circle cx="994.7" cy="256.8" r="10.1" fill="#15803d" opacity="0.7"/>
<rect x="934.9" y="268.3" width="6" height="16.7" rx="2" fill="#15803d"/>
<circle cx="937.9" cy="258.8" r="13.5" fill="#22c55e" opacity="0.9"/>
<circle cx="930.8" cy="261.8" r="10.1" fill="#16a34a" opacity="0.8"/>
<circle cx="944.0" cy="262.8" r="9.4" fill="#15803d" opacity="0.7"/>
<rect x="0" y="282" width="1200" height="18" fill="url(#groundGrad)"/>
<line x1="332.4" y1="282.0" x2="332.4" y2="243.9" stroke="#92400e" stroke-width="2"/>
<circle cx="332.4" cy="243.9" r="4" fill="#fef08a" opacity="0.6"/>
<circle cx="332.4" cy="243.9" r="8" fill="#fef08a" opacity="0.15" filter="url(#softGlow)"/>
<line x1="944.5" y1="282.0" x2="944.5" y2="247.4" stroke="#92400e" stroke-width="2"/>
<circle cx="944.5" cy="247.4" r="4" fill="#fef08a" opacity="0.6"/>
<circle cx="944.5" cy="247.4" r="8" fill="#fef08a" opacity="0.15" filter="url(#softGlow)"/>
<ellipse cx="649.2" cy="282.0" rx="6.5" ry="4.5" fill="#22c55e" opacity="0.6"/>
<ellipse cx="1006.8" cy="282.0" rx="4.6" ry="3.2" fill="#22c55e" opacity="0.6"/>
<ellipse cx="349.3" cy="282.0" rx="6.9" ry="4.9" fill="#22c55e" opacity="0.6"/>
<ellipse cx="774.7" cy="282.0" rx="6.4" ry="4.5" fill="#22c55e" opacity="0.6"/>
</svg>