<svg xmlns="http://www.w3.org/2000/svg" viewBox="0 0 1200 300" width="1200" height="300">
<defs>
<linearGradient id="skyGrad" x1="0" y1="0" x2="0" y2="1">
<stop offset="0%" stop-color="#a78bfa"/>
<stop offset="18%" stop-color="#ddb4f0"/>
<stop offset="35%" stop-color="#fda4af"/>
<stop offset="52%" stop-color="#fdba74"/>
<stop offset="72%" stop-color="#fef08a"/>
<stop offset="100%" stop-color="#fef9c3"/>
</linearGradient>
<linearGradient id="bldg_coral" x1="0" y1="0" x2="0" y2="1"><stop offset="0%" stop-color="#fecaca"/><stop offset="100%" stop-color="#fca5a5"/></linearGradient>
<linearGradient id="bldg_teal" x1="0" y1="0" x2="0" y2="1"><stop offset="0%" stop-color="#99f6e4"/><stop offset="100%" stop-color="#5eead4"/></linearGradient>
<linearGradient id="bldg_amber" x1="0" y1="0" x2="0" y2="1"><stop offset="0%" stop-color="#fde68a"/><stop offset="100%" stop-color="#fcd34d"/></linearGradient>
<linearGradient id="bldg_lavender" x1="0" y1="0" x2="0" y2="1"><stop offset="0%" stop-color="#ddd6fe"/><stop offset="100%" stop-color="#c4b5fd"/></linearGradient>
<linearGradient id="bldg_blue" x1="0" y1="0" x2="0" y2="1"><stop offset="0%" stop-color="#bfdbfe"/><stop offset="100%" stop-color="#93c5fd"/></linearGradient>
<linearGradient id="bldg_mint" x1="0" y1="0" x2="0" y2="1"><stop offset="0%" stop-color="#a7f3d0"/><stop offset="100%" stop-color="#6ee7b7"/></linearGradient>
<linearGradient id="bldg_rose" x1="0" y1="0" x2="0" y2="1"><stop offset="0%" stop-color="#fecdd3"/><stop offset="100%" stop-color="#fda4af"/></linearGradient>
<linearGradient id="bldg_sky" x1="0" y1="0" x2="0" y2="1"><stop offset="0%" stop-color="#bae6fd"/><stop offset="100%" stop-color="#7dd3fc"/></linearGradient>
<linearGradient id="roof_navyRoof" x1="0" y1="0" x2="0" y2="1"><stop offset="0%" stop-color="#4338ca"/><stop offset="100%" stop-color="#3730a3"/></linearGradient>
<linearGradient id="roof_coralRoof" x1="0" y1="0" x2="0" y2="1"><stop offset="0%" stop-color="#f87171"/><stop offset="100%" stop-color="#ef4444"/></linearGradient>
<linearGradient id="roof_tealRoof" x1="0" y1="0" x2="0" y2="1"><stop offset="0%" stop-color="#2dd4bf"/><stop offset="100%" stop-color="#14b8a6"/></linearGradient>
<radialGradient id="windowGlow" cx="50%" cy="50%" r="50%"><stop offset="0%" stop-color="#fef08a"/><stop offset="60%" stop-color="#fbbf24"/><stop offset="100%" stop-color="#f59e0b"/></radialGradient>
<linearGradient id="hillFar" x1="0" y1="0" x2="0" y2="1"><stop offset="0%" stop-color="#c4b5fd"/><stop offset="100%" stop-color="#a5b4fc"/></linearGradient>
<linearGradient id="hillMid" x1="0" y1="0" x2="0" y2="1"><stop offset="0%" stop-color="#86efac"/><stop offset="100%" stop-color="#4ade80"/></linearGradient>
<linearGradient id="hillNear" x1="0" y1="0" x2="0" y2="1"><stop offset="0%" stop-color="#34d399"/><stop offset="100%" stop-color="#10b981"/></linearGradient>
<linearGradient id="hillDesertFar" x1="0" y1="0" x2="0" y2="1"><stop offset="0%" stop-color="#fde68a"/><stop offset="100%" stop-color="#fcd34d"/></linearGradient>
<linearGradient id="hillDesertMid" x1="0" y1="0" x2="0" y2="1"><stop offset="0%" stop-color="#fcd34d"/><stop offset="100%" stop-color="#fbbf24"/></linearGradient>
<linearGradient id="hillDesertNear" x1="0" y1="0" x2="0" y2="1"><stop offset="0%" stop-color="#fbbf24"/><stop offset="100%" stop-color="#f59e0b"/></linearGradient>
<linearGradient id="groundGrad" x1="0" y1="0" x2="0" y2="1"><stop offset="0%" stop-color="#fef3c7"/><stop offset="100%" stop-color="#fde68a"/></linearGradient>
<linearGradient id="waterGrad" x1="0" y1="0" x2="0" y2="1"><stop offset="0%" stop-color="#bfdbfe"/><stop offset="100%" stop-color="#93c5fd"/></linearGradient>
<filter id="softGlow" x="-50%" y="-50%" width="200%" height="200%"><feGaussianBlur in="SourceGraphic" stdDeviation="12"/></filter>
</defs>
<rect width="1200" height="300" fill="url(#skyGrad)"/>
<circle cx="1016.1" cy="43.6" r="45" fill="#fef08a" opacity="0.12" filter="url(#softGlow)"/>
<circle cx="1016.1" cy="43.6" r="30" fill="#fde68a" opacity="0.18" filter="url(#softGlow)"/>
<circle cx="1016.1" cy="43.6" r="16" fill="#fef9c3" opacity="0.25" filter="url(#softGlow)"/>
<path d="M0 300 L0.0 193.7 C179.5 193.7, 179.5 190.9, 358.9 190.9 C611.0 190.9, 611.0 190.7, 863.0 190.7 C1031.5 190.7, 1031.5 200.9, 1200.0 200.9 L1200 300 Z" fill="url(#hillFar)" opacity="0.5"/>
<path d="M0 300 L0.0 216.8 C178.8 216.8, 178.8 205.2, 357.5 205.2 C589.1 205.2, 589.1 211.1, 820.7 211.1 C1010.4 211.1, 1010.4 208.0, 1200.0 208.0 L1200 300 Z" fill="url(#hillMid)" opacity="0.7"/>
<path d="M0 300 L0.0 227.7 C243.3 227.7, 243.3 232.1, 486.6 232.1 C594.1 232.1, 594.1 234.8, 701.5 234.8 C950.7 234.8, 950.7 232.2, 1200.0 232.2 L1200 300 Z" fill="url(#hillNear)" opacity="1"/>
<rect x="0" y="210.9" width="1200" height="89.1" fill="url(#waterGrad)" opacity="0.6"/>
<path d="M0 240.6 Q60.0 240.3 120.0 241.1 Q180.0 242.1 240.0 241.5 Q300.0 242.1 360.0 240.6 Q420.0 239.0 480.0 241.3 Q540.0 240.4 600.0 240.2 Q660.0 239.9 720.0 241.0 Q780.0 241.8 840.0 240.3 Q900.0 243.1 960.0 240.5 Q1020.0 240.4 1080.0 239.5 Q1140.0 240.6 1200.0 239.3" fill="none" stroke="#bfdbfe" stroke-width="1" opacity="0.5"/>
<path d="M0 270.3 Q60.0 268.4 120.0 269.4 Q180.0 267.9 240.0 270.5 Q300.0 269.7 360.0 270.3 Q420.0 269.8 480.0 271.4 Q540.0 269.3 600.0 269.0 Q660.0 270.6 720.0 271.0 Q780.0 270.1 840.0 269.0 Q900.0 271.4 960.0 270.4 Q1020.0 269.6 1080.0 269.9 Q1140.0 272.6 1200.0 271.3" fill="none" stroke="#bfdbfe" stroke-width="1" opacity="0.5"/>
<rect x="353.1" y="253.5" width="56.8" height="46.5" rx="3" fill="url(#bldg_amber)" opacity="0.7"/>
<rect x="353.1" y="250.5" width="56.8" height="3" rx="1" fill="url(#roof_navyRoof)" opacity="0.7"/>
<rect x="371.5" y="263.5" width="6" height="8" rx="1" fill="url(#windowGlow)" opacity="0.869989603930148"/>
<rect x="385.5" y="263.5" width="6" height="8" rx="1" fill="url(#windowGlow)" opacity="0.8924373914452444"/>
<rect x="773.8" y="231.2" width="76.9" height="68.8" rx="3" fill="url(#bldg_lavender)" opacity="0.7"/>
<polygon points="773.8,231.2 812.3,214.0 850.7,231.2" fill="url(#roof_coralRoof)" opacity="0.7"/>
<rect x="788.3" y="241.2" width="6" height="8" rx="1" fill="url(#windowGlow)" opacity="0.8154329123512994"/>
<rect x="802.3" y="241.2" width="6" height="8" rx="1" fill="url(#windowGlow)" opacity="0.7581863490204263"/>
<rect x="816.3" y="241.2" width="6" height="8" rx="1" fill="url(#windowGlow)" opacity="0.8794992254020176"/>
<rect x="830.3" y="241.2" width="6" height="8" rx="1" fill="url(#windowGlow)" opacity="0.9221701737596514"/>
<rect x="802.3" y="256.2" width="6" height="8" rx="1" fill="url(#windowGlow)" opacity="0.8320866574682698"/>
<rect x="816.3" y="256.2" width="6" height="8" rx="1" fill="url(#windowGlow)" opacity="0.7275285768916497"/>
<rect x="830.3" y="256.2" width="6" height="8" rx="1" fill="url(#windowGlow)" opacity="0.9408960770540387"/>
<rect x="246.3" y="201.2" width="55.5" height="98.8" rx="3" fill="url(#bldg_blue)" opacity="0.85"/>
<polygon points="246.3,201.2 274.1,187.4 301.8,201.2" fill="url(#roof_tealRoof)" opacity="0.85"/>
<rect x="264.1" y="211.2" width="6" height="8" rx="1" fill="url(#windowGlow)" opacity="0.8098274708771275"/>
<rect x="264.1" y="226.2" width="6" height="8" rx="1" fill="url(#windowGlow)" opacity="0.7294052519041138"/>
<rect x="264.1" y="241.2" width="6" height="8" rx="1" fill="url(#windowGlow)" opacity="0.8769636428342031"/>
<rect x="278.1" y="241.2" width="6" height="8" rx="1" fill="url(#windowGlow)" opacity="0.7696834933802874"/>
<rect x="264.1" y="256.2" width="6" height="8" rx="1" fill="url(#windowGlow)" opacity="0.9140270602489016"/>
<rect x="278.1" y="256.2" width="6" height="8" rx="1" fill="url(#windowGlow)" opacity="0.7514958592837191"/>
<path d="M274.1 235.8 L296.3 235.8 L293.3 241.8 L277.1 241.8 Z" fill="url(#roof_coralRoof)" opacity="0.68"/>
<rect x="832.4" y="222.4" width="66.1" height="77.6" rx="3" fill="url(#bldg_mint)" opacity="0.85"/>
<polygon points="832.4,222.4 865.4,207.1 898.4,222.4" fill="url(#roof_navyRoof)" opacity="0.85"/>
<rect x="848.4" y="232.4" width="6" height="8" rx="1" fill="url(#windowGlow)" opacity="0.857311689135298"/>
<rect x="862.4" y="232.4" width="6" height="8" rx="1" fill="url(#windowGlow)" opacity="0.8680923625212592"/>
<rect x="876.4" y="232.4" width="6" height="8" rx="1" fill="url(#windowGlow)" opacity="0.7168069598808917"/>
<rect x="848.4" y="247.4" width="6" height="8" rx="1" fill="url(#windowGlow)" opacity="0.9668370520541616"/>
<rect x="862.4" y="247.4" width="6" height="8" rx="1" fill="url(#windowGlow)" opacity="0.7705433104050081"/>
<rect x="474.5" y="249.4" width="69.4" height="50.6" rx="3" fill="url(#bldg_rose)" opacity="1"/>
<polygon points="474.5,249.4 509.2,229.5 543.9,249.4" fill="url(#roof_coralRoof)" opacity="1"/>
<rect x="492.2" y="259.4" width="6" height="8" rx="1" fill="url(#windowGlow)" opacity="0.960789708961169"/>
<rect x="506.2" y="259.4" width="6" height="8" rx="1" fill="url(#windowGlow)" opacity="0.7068694307966481"/>
<rect x="520.2" y="259.4" width="6" height="8" rx="1" fill="url(#windowGlow)" opacity="0.8948620981978541"/>
<rect x="504.2" y="284.0" width="10" height="16" rx="2" fill="url(#roof_navyRoof)" opacity="0.8"/>
<rect x="506.2" y="287.0" width="6" height="10" rx="1" fill="url(#windowGlow)" opacity="0.45"/>
<path d="M445.5 285.0 Q467.3 263.1 458.5 241.2" stroke="#92400e" stroke-width="4" fill="none" stroke-linecap="round"/>
<path d="M458.5 241.2 Q445.4 229.7 436.7 229.2" stroke="#16a34a" stroke-width="2.5" fill="none" stroke-linecap="round"/>
<path d="M458.5 241.2 Q465.1 228.6 469.5 226.7" stroke="#22c55e" stroke-width="2.5" fill="none" stroke-linecap="round"/>
<path d="M458.5 241.2 Q474.8 235.2 485.6 241.2" stroke="#15803d" stroke-width="2.5" fill="none" stroke-linecap="round"/>
<path d="M458.5 241.2 Q465.0 241.7 469.4 255.6" stroke="#4ade80" stroke-width="2.5" fill="none" stroke-linecap="round"/>
<path d="M458.5 241.2 Q446.1 240.4 437.9 252.6" stroke="#16a34a" stroke-width="2.5" fill="none" stroke-linecap="round"/>
<path d="M568.3 285.0 Q591.3 256.0 582.1 227.0" stroke="#92400e" stroke-width="4" fill="none" stroke-linecap="round"/>
<path d="M582.1 227.0 Q567.8 215.0 558.2 213.8" stroke="#16a34a" stroke-width="2.5" fill="none" stroke-linecap="round"/>
<path d="M582.1 227.0 Q589.9 213.2 595.1 209.8" stroke="#22c55e" stroke-width="2.5" fill="none" stroke-linecap="round"/>
<path d="M582.1 227.0 Q599.6 221.0 611.2 227.0" stroke="#15803d" stroke-width="2.5" fill="none" stroke-linecap="round"/>
<path d="M582.1 227.0 Q588.2 227.0 592.2 240.4" stroke="#4ade80" stroke-width="2.5" fill="none" stroke-linecap="round"/>
<path d="M582.1 227.0 Q571.2 225.5 563.9 237.0" stroke="#16a34a" stroke-width="2.5" fill="none" stroke-linecap="round"/>
<path d="M1141.9 285.0 Q1160.9 256.6 1153.3 228.1" stroke="#92400e" stroke-width="4" fill="none" stroke-linecap="round"/>
<path d="M1153.3 228.1 Q1143.7 218.1 1137.3 219.3" stroke="#16a34a" stroke-width="2.5" fill="none" stroke-linecap="round"/>
<path d="M1153.3 228.1 Q1158.3 217.0 1161.7 216.9" stroke="#22c55e" stroke-width="2.5" fill="none" stroke-linecap="round"/>
<path d="M1153.3 228.1 Q1173.2 222.1 1186.5 228.1" stroke="#15803d" stroke-width="2.5" fill="none" stroke-linecap="round"/>
<path d="M1153.3 228.1 Q1161.0 229.8 1166.1 245.1" stroke="#4ade80" stroke-width="2.5" fill="none" stroke-linecap="round"/>
<path d="M1153.3 228.1 Q1141.5 227.0 1133.6 238.9" stroke="#16a34a" stroke-width="2.5" fill="none" stroke-linecap="round"/>
<path d="M905.7 285.0 Q928.0 258.8 919.1 232.7" stroke="#92400e" stroke-width="4" fill="none" stroke-linecap="round"/>
<path d="M919.1 232.7 Q905.0 220.8 895.6 219.8" stroke="#16a34a" stroke-width="2.5" fill="none" stroke-linecap="round"/>
<path d="M919.1 232.7 Q923.8 222.0 926.9 222.3" stroke="#22c55e" stroke-width="2.5" fill="none" stroke-linecap="round"/>
<path d="M919.1 232.7 Q932.1 226.7 940.8 232.7" stroke="#15803d" stroke-width="2.5" fill="none" stroke-linecap="round"/>
<path d="M919.1 232.7 Q926.6 234.2 931.6 249.3" stroke="#4ade80" stroke-width="2.5" fill="none" stroke-linecap="round"/>
<path d="M919.1 232.7 Q908.7 231.0 901.8 242.2" stroke="#16a34a" stroke-width="2.5" fill="none" stroke-linecap="round"/>
<path d="M369.5 285.0 Q386.7 262.4 379.8 239.8" stroke="#92400e" stroke-width="4" fill="none" stroke-linecap="round"/>
<path d="M379.8 239.8 Q369.4 229.4 362.4 230.2" stroke="#16a34a" stroke-width="2.5" fill="none" stroke-linecap="round"/>
<path d="M379.8 239.8 Q385.4 228.2 389.1 227.5" stroke="#22c55e" stroke-width="2.5" fill="none" stroke-linecap="round"/>
<path d="M379.8 239.8 Q395.2 233.8 405.5 239.8" stroke="#15803d" stroke-width="2.5" fill="none" stroke-linecap="round"/>
<path d="M379.8 239.8 Q385.3 239.2 388.9 251.8" stroke="#4ade80" stroke-width="2.5" fill="none" stroke-linecap="round"/>
<path d="M379.8 239.8 Q367.2 239.0 358.8 251.3" stroke="#16a34a" stroke-width="2.5" fill="none" stroke-linecap="round"/>
<path d="M430.3 285.0 Q444.2 258.1 438.6 231.3" stroke="#92400e" stroke-width="4" fill="none" stroke-linecap="round"/>
<path d="M438.6 231.3 Q428.7 221.2 422.2 222.2" stroke="#16a34a" stroke-width="2.5" fill="none" stroke-linecap="round"/>
<path d="M438.6 231.3 Q445.2 218.6 449.7 216.6" stroke="#22c55e" stroke-width="2.5" fill="none" stroke-linecap="round"/>
<path d="M438.6 231.3 Q453.5 225.3 463.4 231.3" stroke="#15803d" stroke-width="2.5" fill="none" stroke-linecap="round"/>
<path d="M438.6 231.3 Q445.0 231.7 449.3 245.5" stroke="#4ade80" stroke-width="2.5" fill="none" stroke-linecap="round"/>
<path d="M438.6 231.3 Q429.0 229.3 422.6 240.1" stroke="#16a34a" stroke-width="2.5" fill="none" stroke-linecap="round"/>
<path d="M464.2 285.0 Q483.0 262.9 475.5 240.8" stroke="#92400e" stroke-width="4" fill="none" stroke-linecap="round"/>
<path d="M475.5 240.8 Q466.2 230.9 460.0 232.2" stroke="#16a34a" stroke-width="2.5" fill="none" stroke-linecap="round"/>
<path d="M475.5 240.8 Q482.1 228.1 486.4 226.2" stroke="#22c55e" stroke-width="2.5" fill="none" stroke-linecap="round"/>
<path d="M475.5 240.8 Q488.4 234.8 497.1 240.8" stroke="#15803d" stroke-width="2.5" fill="none" stroke-linecap="round"/>
<path d="M475.5 240.8 Q481.4 240.8 485.4 254.0" stroke="#4ade80" stroke-width="2.5" fill="none" stroke-linecap="round"/>
<path d="M475.5 240.8 Q465.1 239.1 458.1 250.3" stroke="#16a34a" stroke-width="2.5" fill="none" stroke-linecap="round"/>
<path d="M699.6 285.0 Q712.0 254.2 707.1 223.4" stroke="#92400e" stroke-width="4" fill="none" stroke-linecap="round"/>
<path d="M707.1 223.4 Q694.7 212.3 686.4 212.1" stroke="#16a34a" stroke-width="2.5" fill="none" stroke-linecap="round"/>
<path d="M707.1 223.4 Q713.6 210.8 718.0 208.9" stroke="#22c55e" stroke-width="2.5" fill="none" stroke-linecap="round"/>
<path d="M707.1 223.4 Q726.7 217.4 739.8 223.4" stroke="#15803d" stroke-width="2.5" fill="none" stroke-linecap="round"/>
<path d="M707.1 223.4 Q712.6 223.0 716.3 235.6" stroke="#4ade80" stroke-width="2.5" fill="none" stroke-linecap="round"/>
<path d="M707.1 223.4 Q698.2 221.1 692.3 231.5" stroke="#16a34a" stroke-width="2.5" fill="none" stroke-linecap="round"/>
<path d="M802.4 285.0 Q816.0 262.1 810.6 239.2" stroke="#92400e" stroke-width="4" fill="none" stroke-linecap="round"/>
<path d="M810.6 239.2 Q801.2 229.3 795.0 230.6" stroke="#16a34a" stroke-width="2.5" fill="none" stroke-linecap="round"/>
<path d="M810.6 239.2 Q816.5 227.2 820.5 226.0" stroke="#22c55e" stroke-width="2.5" fill="none" stroke-linecap="round"/>
<path d="M810.6 239.2 Q823.1 233.2 831.5 239.2" stroke="#15803d" stroke-width="2.5" fill="none" stroke-linecap="round"/>
<path d="M810.6 239.2 Q815.5 238.2 818.8 250.1" stroke="#4ade80" stroke-width="2.5" fill="none" stroke-linecap="round"/>
<path d="M810.6 239.2 Q801.9 236.8 796.1 247.1" stroke="#16a34a" stroke-width="2.5" fill="none" stroke-linecap="round"/>
<rect x="0" y="282" width="1200" height="18" fill="url(#groundGrad)"/>
</svg>