<svg xmlns="http://www.w3.org/2000/svg" viewBox="0 0 1200 400" width="1200" height="400">
<defs>
<linearGradient id="bg" x1="0" y1="0" x2="0" y2="1"><stop offset="0%" stop-color="#d4a76a"/><stop offset="100%" stop-color="#ea580c"/></linearGradient>
<linearGradient id="warm" x1="0" y1="0" x2="1" y2="1"><stop offset="0%" stop-color="#9f9177" stop-opacity="0.18"/><stop offset="100%" stop-color="#9f9177" stop-opacity="0.06"/></linearGradient>
</defs>
<rect width="1200" height="400" fill="url(#bg)"/>
<path d="M0 400 L0 246.5039023048381 C60.0 238.4, 90.0 231.5, 150.0 235.7 C210.0 240.8, 240.0 230.6, 300.0 228.5 C360.0 225.6, 390.0 241.9, 450.0 234.5 C510.0 240.1, 540.0 243.6, 600.0 234.9 C660.0 235.7, 690.0 220.4, 750.0 230.2 C810.0 225.2, 840.0 256.2, 900.0 253.2 C960.0 244.2, 990.0 228.1, 1050.0 230.5 C1110.0 233.9, 1140.0 230.3, 1200.0 231.5 L1200 400 Z" fill="#e2742d" opacity="0.45"/>
<path d="M0 400 L0 278.45444447117853 C52.5 276.3, 97.5 278.2, 150.0 279.7 C202.5 283.3, 247.5 271.3, 300.0 271.8 C352.5 279.3, 397.5 274.4, 450.0 279.7 C502.5 279.0, 547.5 271.3, 600.0 277.7 C652.5 277.9, 697.5 259.9, 750.0 264.2 C802.5 258.5, 847.5 269.6, 900.0 268.5 C952.5 261.3, 997.5 271.3, 1050.0 271.0 C1102.5 269.1, 1147.5 281.2, 1200.0 275.7 L1200 400 Z" fill="#ea580c" opacity="0.3"/>
<rect x="416.6" y="365.4" width="27.3" height="34.6" rx="6.6" fill="#557e7a" opacity="0.52"/>
<rect x="802.6" y="319.7" width="29.6" height="80.3" rx="4.9" fill="#39858e" opacity="0.79"/>
<rect x="807.6" y="373.7" width="4" height="5" rx="0.5" fill="#d4a76a" opacity="0.6"/>
<rect x="135.6" y="300.9" width="13.3" height="99.1" rx="5.6" fill="#3d848b" opacity="0.56"/>
<rect x="140.6" y="310.9" width="4" height="5" rx="0.5" fill="#d4a76a" opacity="0.6"/>
<rect x="171.6" y="354.7" width="44.7" height="45.3" rx="4.6" fill="#2b8898" opacity="0.76"/>
<rect x="718.4" y="315.3" width="45.3" height="84.7" rx="6.2" fill="#318794" opacity="0.56"/>
<rect x="306.2" y="335.5" width="26.6" height="64.5" rx="5.9" fill="#597d76" opacity="0.84"/>
<rect x="1010.2" y="355.6" width="40.1" height="44.4" rx="5.2" fill="#2e8796" opacity="0.53"/>
<rect x="389.2" y="291.5" width="30.5" height="108.5" rx="4.6" fill="#6a786a" opacity="0.63"/>
<rect x="179.3" y="362.5" width="21.8" height="37.5" rx="5.9" fill="#587d77" opacity="0.67"/>
<rect x="804.9" y="319.2" width="20.8" height="80.8" rx="6.9" fill="#1f8ba1" opacity="0.83"/>
<rect x="1037.6" y="352.1" width="25.9" height="47.9" rx="5.6" fill="#2d8897" opacity="0.70"/>
<rect x="588.9" y="366.7" width="47.6" height="33.3" rx="7.4" fill="#5c7c74" opacity="0.58"/>
<circle cx="181.4" cy="142.8" r="6.8" fill="#0891b2" opacity="0.32"/>
<circle cx="1043.2" cy="105.4" r="3.2" fill="#d4a76a" opacity="0.43"/>
<circle cx="702.0" cy="33.9" r="8.1" fill="#0891b2" opacity="0.24"/>
<circle cx="1180.6" cy="185.5" r="5.6" fill="#0891b2" opacity="0.25"/>
<circle cx="706.7" cy="163.4" r="3.7" fill="#d4a76a" opacity="0.31"/>
<circle cx="736.5" cy="121.4" r="8.4" fill="#d4a76a" opacity="0.35"/>
<circle cx="733.9" cy="238.0" r="11.8" fill="#0891b2" opacity="0.34"/>
<rect width="1200" height="400" fill="url(#warm)"/>
<rect width="1200" height="400" fill="#d4a76a" opacity="0.36"/>
</svg>