<svg xmlns="http://www.w3.org/2000/svg" viewBox="0 0 1200 300" width="1200" height="300">
<rect width="1200" height="300" fill="#f0e6d8"/>
<path d="M0 300 L0 210.0 C383.4 163.5, 923.6 194.6, 1200 210.0 L1200 300 Z" fill="#e4c4a8" opacity="0.3"/>
<rect x="171.4" y="173.5" width="74.0" height="126.5" fill="#daae87"/>
<rect x="453.9" y="190.5" width="72.3" height="109.5" fill="#daae87"/>
<rect x="714.4" y="226.9" width="62.6" height="73.1" fill="#daae87"/>
<rect x="971.7" y="231.9" width="53.1" height="68.1" fill="#daae87"/>
<rect x="187.1" y="150.3" width="39.2" height="149.7" fill="#c98951"/>
<rect x="203.7" y="162.3" width="6" height="8" fill="#dcb28e" opacity="0.5"/>
<rect x="203.7" y="194.3" width="6" height="8" fill="#dcb28e" opacity="0.5"/>
<rect x="203.7" y="210.3" width="6" height="8" fill="#dcb28e" opacity="0.5"/>
<rect x="203.7" y="226.3" width="6" height="8" fill="#dcb28e" opacity="0.5"/>
<rect x="203.7" y="258.3" width="6" height="8" fill="#dcb28e" opacity="0.5"/>
<rect x="460.7" y="170.7" width="55.4" height="129.3" fill="#c98951"/>
<rect x="478.4" y="182.7" width="6" height="8" fill="#dcb28e" opacity="0.5"/>
<rect x="492.4" y="182.7" width="6" height="8" fill="#dcb28e" opacity="0.5"/>
<rect x="478.4" y="198.7" width="6" height="8" fill="#dcb28e" opacity="0.5"/>
<rect x="478.4" y="230.7" width="6" height="8" fill="#dcb28e" opacity="0.5"/>
<rect x="492.4" y="230.7" width="6" height="8" fill="#dcb28e" opacity="0.5"/>
<rect x="478.4" y="246.7" width="6" height="8" fill="#dcb28e" opacity="0.5"/>
<rect x="492.4" y="246.7" width="6" height="8" fill="#dcb28e" opacity="0.5"/>
<rect x="478.4" y="262.7" width="6" height="8" fill="#dcb28e" opacity="0.5"/>
<rect x="492.4" y="262.7" width="6" height="8" fill="#dcb28e" opacity="0.5"/>
<rect x="719.7" y="207.6" width="53.2" height="92.4" fill="#c98951"/>
<rect x="750.4" y="219.6" width="6" height="8" fill="#dcb28e" opacity="0.5"/>
<rect x="736.4" y="235.6" width="6" height="8" fill="#dcb28e" opacity="0.5"/>
<rect x="982.4" y="198.5" width="63.6" height="101.5" fill="#c98951"/>
<rect x="997.2" y="210.5" width="6" height="8" fill="#dcb28e" opacity="0.5"/>
<rect x="1011.2" y="210.5" width="6" height="8" fill="#dcb28e" opacity="0.5"/>
<rect x="1025.2" y="210.5" width="6" height="8" fill="#dcb28e" opacity="0.5"/>
<rect x="997.2" y="226.5" width="6" height="8" fill="#dcb28e" opacity="0.5"/>
<rect x="1025.2" y="226.5" width="6" height="8" fill="#dcb28e" opacity="0.5"/>
<rect x="997.2" y="242.5" width="6" height="8" fill="#dcb28e" opacity="0.5"/>
<rect x="1011.2" y="242.5" width="6" height="8" fill="#dcb28e" opacity="0.5"/>
<rect x="1011.2" y="258.5" width="6" height="8" fill="#dcb28e" opacity="0.5"/>
<rect x="1025.2" y="258.5" width="6" height="8" fill="#dcb28e" opacity="0.5"/>
<rect x="158.4" y="179.0" width="59.2" height="121.0" fill="#bc6c25"/>
<rect x="171.0" y="191.0" width="6" height="8" fill="#d39f71" opacity="0.5"/>
<rect x="185.0" y="191.0" width="6" height="8" fill="#d39f71" opacity="0.5"/>
<rect x="199.0" y="191.0" width="6" height="8" fill="#d39f71" opacity="0.5"/>
<rect x="171.0" y="207.0" width="6" height="8" fill="#d39f71" opacity="0.5"/>
<rect x="199.0" y="207.0" width="6" height="8" fill="#d39f71" opacity="0.5"/>
<rect x="185.0" y="223.0" width="6" height="8" fill="#d39f71" opacity="0.5"/>
<rect x="199.0" y="223.0" width="6" height="8" fill="#d39f71" opacity="0.5"/>
<rect x="171.0" y="239.0" width="6" height="8" fill="#d39f71" opacity="0.5"/>
<rect x="185.0" y="239.0" width="6" height="8" fill="#d39f71" opacity="0.5"/>
<rect x="199.0" y="239.0" width="6" height="8" fill="#d39f71" opacity="0.5"/>
<rect x="185.0" y="255.0" width="6" height="8" fill="#d39f71" opacity="0.5"/>
<rect x="199.0" y="255.0" width="6" height="8" fill="#d39f71" opacity="0.5"/>
<rect x="185.0" y="271.0" width="6" height="8" fill="#d39f71" opacity="0.5"/>
<rect x="199.0" y="271.0" width="6" height="8" fill="#d39f71" opacity="0.5"/>
<rect x="438.2" y="238.2" width="58.0" height="61.8" fill="#bc6c25"/>
<rect x="450.2" y="250.2" width="6" height="8" fill="#d39f71" opacity="0.5"/>
<rect x="464.2" y="250.2" width="6" height="8" fill="#d39f71" opacity="0.5"/>
<rect x="450.2" y="266.2" width="6" height="8" fill="#d39f71" opacity="0.5"/>
<rect x="464.2" y="266.2" width="6" height="8" fill="#d39f71" opacity="0.5"/>
<rect x="478.2" y="266.2" width="6" height="8" fill="#d39f71" opacity="0.5"/>
<rect x="718.1" y="138.0" width="69.5" height="162.0" fill="#bc6c25"/>
<rect x="735.9" y="150.0" width="6" height="8" fill="#d39f71" opacity="0.5"/>
<rect x="749.9" y="150.0" width="6" height="8" fill="#d39f71" opacity="0.5"/>
<rect x="763.9" y="150.0" width="6" height="8" fill="#d39f71" opacity="0.5"/>
<rect x="735.9" y="166.0" width="6" height="8" fill="#d39f71" opacity="0.5"/>
<rect x="749.9" y="166.0" width="6" height="8" fill="#d39f71" opacity="0.5"/>
<rect x="763.9" y="166.0" width="6" height="8" fill="#d39f71" opacity="0.5"/>
<rect x="735.9" y="182.0" width="6" height="8" fill="#d39f71" opacity="0.5"/>
<rect x="735.9" y="198.0" width="6" height="8" fill="#d39f71" opacity="0.5"/>
<rect x="749.9" y="198.0" width="6" height="8" fill="#d39f71" opacity="0.5"/>
<rect x="763.9" y="198.0" width="6" height="8" fill="#d39f71" opacity="0.5"/>
<rect x="735.9" y="214.0" width="6" height="8" fill="#d39f71" opacity="0.5"/>
<rect x="749.9" y="214.0" width="6" height="8" fill="#d39f71" opacity="0.5"/>
<rect x="763.9" y="214.0" width="6" height="8" fill="#d39f71" opacity="0.5"/>
<rect x="749.9" y="230.0" width="6" height="8" fill="#d39f71" opacity="0.5"/>
<rect x="763.9" y="230.0" width="6" height="8" fill="#d39f71" opacity="0.5"/>
<rect x="735.9" y="246.0" width="6" height="8" fill="#d39f71" opacity="0.5"/>
<rect x="763.9" y="246.0" width="6" height="8" fill="#d39f71" opacity="0.5"/>
<rect x="749.9" y="262.0" width="6" height="8" fill="#d39f71" opacity="0.5"/>
<rect x="763.9" y="262.0" width="6" height="8" fill="#d39f71" opacity="0.5"/>
<rect x="995.4" y="121.9" width="72.0" height="178.1" fill="#bc6c25"/>
<rect x="1007.4" y="133.9" width="6" height="8" fill="#d39f71" opacity="0.5"/>
<rect x="1035.4" y="133.9" width="6" height="8" fill="#d39f71" opacity="0.5"/>
<rect x="1049.4" y="133.9" width="6" height="8" fill="#d39f71" opacity="0.5"/>
<rect x="1007.4" y="149.9" width="6" height="8" fill="#d39f71" opacity="0.5"/>
<rect x="1035.4" y="149.9" width="6" height="8" fill="#d39f71" opacity="0.5"/>
<rect x="1049.4" y="149.9" width="6" height="8" fill="#d39f71" opacity="0.5"/>
<rect x="1007.4" y="165.9" width="6" height="8" fill="#d39f71" opacity="0.5"/>
<rect x="1021.4" y="165.9" width="6" height="8" fill="#d39f71" opacity="0.5"/>
<rect x="1035.4" y="165.9" width="6" height="8" fill="#d39f71" opacity="0.5"/>
<rect x="1049.4" y="165.9" width="6" height="8" fill="#d39f71" opacity="0.5"/>
<rect x="1049.4" y="181.9" width="6" height="8" fill="#d39f71" opacity="0.5"/>
<rect x="1007.4" y="197.9" width="6" height="8" fill="#d39f71" opacity="0.5"/>
<rect x="1035.4" y="197.9" width="6" height="8" fill="#d39f71" opacity="0.5"/>
<rect x="1049.4" y="197.9" width="6" height="8" fill="#d39f71" opacity="0.5"/>
<rect x="1021.4" y="213.9" width="6" height="8" fill="#d39f71" opacity="0.5"/>
<rect x="1035.4" y="213.9" width="6" height="8" fill="#d39f71" opacity="0.5"/>
<rect x="1021.4" y="229.9" width="6" height="8" fill="#d39f71" opacity="0.5"/>
<rect x="1035.4" y="229.9" width="6" height="8" fill="#d39f71" opacity="0.5"/>
<rect x="1049.4" y="229.9" width="6" height="8" fill="#d39f71" opacity="0.5"/>
<rect x="1007.4" y="245.9" width="6" height="8" fill="#d39f71" opacity="0.5"/>
<rect x="1021.4" y="245.9" width="6" height="8" fill="#d39f71" opacity="0.5"/>
<rect x="1035.4" y="245.9" width="6" height="8" fill="#d39f71" opacity="0.5"/>
<rect x="1049.4" y="245.9" width="6" height="8" fill="#d39f71" opacity="0.5"/>
<rect x="1007.4" y="261.9" width="6" height="8" fill="#d39f71" opacity="0.5"/>
<rect x="1035.4" y="261.9" width="6" height="8" fill="#d39f71" opacity="0.5"/>
<rect x="1049.4" y="261.9" width="6" height="8" fill="#d39f71" opacity="0.5"/>
<rect x="0" y="298" width="1200" height="2" fill="#a96121" opacity="0.15"/>
</svg>