<svg xmlns="http://www.w3.org/2000/svg" viewBox="0 0 1200 400" width="1200" height="400">
<defs>
<linearGradient id="bg" x1="0" y1="0" x2="0" y2="1"><stop offset="0%" stop-color="#94a3b8"/><stop offset="100%" stop-color="#0369a1"/></linearGradient>
<linearGradient id="warm" x1="0" y1="0" x2="1" y2="1"><stop offset="0%" stop-color="#858d98" stop-opacity="0.18"/><stop offset="100%" stop-color="#858d98" stop-opacity="0.06"/></linearGradient>
</defs>
<rect width="1200" height="400" fill="url(#bg)"/>
<path d="M0 400 L0 231.51730774118923 C60.0 230.9, 90.0 239.3, 150.0 244.7 C210.0 241.2, 240.0 239.7, 300.0 246.0 C360.0 246.4, 390.0 247.1, 450.0 254.1 C510.0 254.8, 540.0 249.6, 600.0 243.6 C660.0 252.7, 690.0 227.8, 750.0 237.6 C810.0 238.5, 840.0 256.9, 900.0 256.5 C960.0 253.1, 990.0 238.1, 1050.0 238.0 C1110.0 245.1, 1140.0 239.2, 1200.0 244.7 L1200 400 Z" fill="#367da9" opacity="0.45"/>
<path d="M0 400 L0 274.4230054743092 C52.5 281.6, 97.5 270.1, 150.0 264.6 C202.5 268.2, 247.5 278.8, 300.0 278.3 C352.5 284.5, 397.5 268.0, 450.0 273.9 C502.5 275.5, 547.5 258.8, 600.0 260.9 C652.5 259.5, 697.5 279.2, 750.0 276.7 C802.5 284.0, 847.5 270.1, 900.0 263.1 C952.5 265.6, 997.5 271.6, 1050.0 277.6 C1102.5 272.3, 1147.5 251.8, 1200.0 258.4 L1200 400 Z" fill="#0369a1" opacity="0.3"/>
<rect x="530.8" y="288.0" width="38.7" height="112.0" rx="6.3" fill="#048183" opacity="0.74"/>
<rect x="639.8" y="280.9" width="24.0" height="119.1" rx="3.9" fill="#058b77" opacity="0.77"/>
<rect x="429.7" y="365.4" width="36.6" height="34.6" rx="4.9" fill="#058c76" opacity="0.76"/>
<rect x="322.8" y="273.9" width="32.1" height="126.1" rx="3.3" fill="#058e73" opacity="0.63"/>
<rect x="327.8" y="283.9" width="4" height="5" rx="0.5" fill="#94a3b8" opacity="0.6"/>
<rect x="327.8" y="305.9" width="4" height="5" rx="0.5" fill="#94a3b8" opacity="0.6"/>
<rect x="338.5" y="305.9" width="4" height="5" rx="0.5" fill="#94a3b8" opacity="0.6"/>
<rect x="338.5" y="327.9" width="4" height="5" rx="0.5" fill="#94a3b8" opacity="0.6"/>
<rect x="327.8" y="349.9" width="4" height="5" rx="0.5" fill="#94a3b8" opacity="0.6"/>
<rect x="338.5" y="349.9" width="4" height="5" rx="0.5" fill="#94a3b8" opacity="0.6"/>
<rect x="341.3" y="345.0" width="26.5" height="55.0" rx="7.0" fill="#04847f" opacity="0.60"/>
<rect x="182.8" y="350.8" width="27.1" height="49.2" rx="3.9" fill="#04867d" opacity="0.62"/>
<rect x="231.3" y="307.2" width="38.8" height="92.8" rx="4.4" fill="#047c89" opacity="0.54"/>
<rect x="1056.3" y="272.2" width="18.5" height="127.8" rx="4.4" fill="#047e87" opacity="0.75"/>
<rect x="355.2" y="279.6" width="25.4" height="120.4" rx="4.2" fill="#05926e" opacity="0.75"/>
<rect x="360.2" y="311.6" width="4" height="5" rx="0.5" fill="#94a3b8" opacity="0.6"/>
<rect x="360.2" y="333.6" width="4" height="5" rx="0.5" fill="#94a3b8" opacity="0.6"/>
<rect x="360.2" y="355.6" width="4" height="5" rx="0.5" fill="#94a3b8" opacity="0.6"/>
<rect x="523.9" y="342.2" width="39.3" height="57.8" rx="3.6" fill="#04887a" opacity="0.74"/>
<rect x="992.0" y="285.7" width="29.4" height="114.3" rx="7.3" fill="#04857e" opacity="0.63"/>
<rect x="997.0" y="295.7" width="4" height="5" rx="0.5" fill="#94a3b8" opacity="0.6"/>
<rect x="997.0" y="361.7" width="4" height="5" rx="0.5" fill="#94a3b8" opacity="0.6"/>
<rect x="145.0" y="330.8" width="23.4" height="69.2" rx="7.3" fill="#04867d" opacity="0.61"/>
<rect x="878.2" y="350.0" width="49.2" height="50.0" rx="5.2" fill="#04877c" opacity="0.59"/>
<circle cx="119.5" cy="126.1" r="7.4" fill="#059669" opacity="0.29"/>
<circle cx="1152.5" cy="204.5" r="10.3" fill="#059669" opacity="0.35"/>
<circle cx="1182.5" cy="106.3" r="6.5" fill="#94a3b8" opacity="0.45"/>
<circle cx="1099.7" cy="125.5" r="8.5" fill="#94a3b8" opacity="0.32"/>
<circle cx="394.5" cy="127.8" r="9.9" fill="#059669" opacity="0.17"/>
<circle cx="62.8" cy="209.5" r="6.0" fill="#059669" opacity="0.18"/>
<circle cx="1195.4" cy="18.6" r="3.6" fill="#94a3b8" opacity="0.45"/>
<circle cx="23.0" cy="183.1" r="6.0" fill="#94a3b8" opacity="0.40"/>
<circle cx="395.6" cy="134.0" r="8.5" fill="#94a3b8" opacity="0.33"/>
<circle cx="475.9" cy="35.7" r="3.6" fill="#059669" opacity="0.40"/>
<circle cx="1168.3" cy="206.7" r="5.9" fill="#059669" opacity="0.16"/>
<circle cx="965.9" cy="53.1" r="10.8" fill="#94a3b8" opacity="0.21"/>
<rect width="1200" height="400" fill="url(#warm)"/>
<rect width="1200" height="400" fill="#94a3b8" opacity="0.40"/>
</svg>