<svg xmlns="http://www.w3.org/2000/svg" viewBox="0 0 1200 400" width="1200" height="400">
<defs>
<linearGradient id="bg" x1="0" y1="0" x2="0" y2="1"><stop offset="0%" stop-color="#166534"/><stop offset="100%" stop-color="#3b82f6"/></linearGradient>
<linearGradient id="warm" x1="0" y1="0" x2="1" y2="1"><stop offset="0%" stop-color="#778bab" stop-opacity="0.18"/><stop offset="100%" stop-color="#778bab" stop-opacity="0.06"/></linearGradient>
</defs>
<rect width="1200" height="400" fill="url(#bg)"/>
<path d="M0 400 L0 254.49178551435978 C60.0 259.7, 90.0 267.4, 150.0 263.8 C210.0 269.0, 240.0 238.3, 300.0 248.1 C360.0 242.2, 390.0 239.5, 450.0 242.6 C510.0 242.5, 540.0 264.6, 600.0 256.7 C660.0 263.4, 690.0 260.7, 750.0 264.1 C810.0 267.1, 840.0 250.5, 900.0 250.2 C960.0 251.5, 990.0 231.3, 1050.0 239.3 C1110.0 231.8, 1140.0 269.5, 1200.0 261.8 L1200 400 Z" fill="#2e78b2" opacity="0.45"/>
<path d="M0 400 L0 272.58850743319266 C52.5 273.1, 97.5 275.7, 150.0 274.1 C202.5 274.0, 247.5 287.1, 300.0 285.4 C352.5 289.8, 397.5 273.5, 450.0 277.8 C502.5 284.4, 547.5 284.6, 600.0 277.1 C652.5 271.0, 697.5 293.3, 750.0 291.6 C802.5 291.3, 847.5 285.1, 900.0 284.1 C952.5 279.0, 997.5 274.4, 1050.0 278.6 C1102.5 280.1, 1147.5 287.9, 1200.0 286.3 L1200 400 Z" fill="#3b82f6" opacity="0.3"/>
<rect x="288.7" y="297.5" width="28.3" height="102.5" rx="3.6" fill="#af8832" opacity="0.79"/>
<rect x="293.7" y="351.5" width="4" height="5" rx="0.5" fill="#166534" opacity="0.6"/>
<rect x="293.7" y="373.5" width="4" height="5" rx="0.5" fill="#166534" opacity="0.6"/>
<rect x="708.0" y="362.3" width="24.3" height="37.7" rx="6.7" fill="#8e876a" opacity="0.51"/>
<rect x="780.8" y="336.2" width="24.2" height="63.8" rx="4.2" fill="#c38a11" opacity="0.51"/>
<rect x="697.1" y="314.6" width="29.6" height="85.4" rx="6.5" fill="#9a8755" opacity="0.66"/>
<rect x="715.4" y="301.1" width="48.4" height="98.9" rx="3.0" fill="#ac8837" opacity="0.75"/>
<rect x="533.0" y="368.6" width="49.6" height="31.4" rx="7.6" fill="#c38a0f" opacity="0.76"/>
<rect x="779.9" y="315.3" width="13.1" height="84.7" rx="3.5" fill="#ae8833" opacity="0.59"/>
<rect x="1075.9" y="346.7" width="22.8" height="53.3" rx="5.1" fill="#a8883e" opacity="0.62"/>
<rect x="947.2" y="305.8" width="32.8" height="94.2" rx="5.1" fill="#988758" opacity="0.65"/>
<rect x="436.2" y="335.8" width="16.6" height="64.2" rx="3.1" fill="#83867d" opacity="0.60"/>
<line x1="356.9" y1="75.2" x2="414.2" y2="75.2" stroke="#ca8a04" stroke-width="1.8" opacity="0.39"/>
<line x1="1084.6" y1="65.7" x2="1142.3" y2="65.7" stroke="#166534" stroke-width="1.3" opacity="0.41"/>
<line x1="457.7" y1="45.5" x2="521.5" y2="45.5" stroke="#166534" stroke-width="2.7" opacity="0.28"/>
<line x1="951.9" y1="212.0" x2="1004.7" y2="212.0" stroke="#ca8a04" stroke-width="1.1" opacity="0.40"/>
<line x1="978.0" y1="193.4" x2="1011.2" y2="193.4" stroke="#ca8a04" stroke-width="2.9" opacity="0.25"/>
<line x1="1064.2" y1="28.9" x2="1121.6" y2="28.9" stroke="#166534" stroke-width="2.7" opacity="0.45"/>
<line x1="850.6" y1="99.0" x2="921.9" y2="99.0" stroke="#ca8a04" stroke-width="1.8" opacity="0.18"/>
<line x1="823.0" y1="65.4" x2="858.9" y2="65.4" stroke="#166534" stroke-width="1.2" opacity="0.21"/>
<line x1="86.9" y1="204.7" x2="166.1" y2="204.7" stroke="#166534" stroke-width="1.5" opacity="0.36"/>
<line x1="63.4" y1="196.6" x2="87.4" y2="196.6" stroke="#166534" stroke-width="3.0" opacity="0.35"/>
<line x1="974.6" y1="134.3" x2="1004.5" y2="134.3" stroke="#ca8a04" stroke-width="1.0" opacity="0.35"/>
<line x1="847.2" y1="30.0" x2="919.1" y2="30.0" stroke="#166534" stroke-width="1.8" opacity="0.29"/>
<rect width="1200" height="400" fill="url(#warm)"/>
<rect width="1200" height="400" fill="#166534" opacity="0.45"/>
</svg>