<svg xmlns="http://www.w3.org/2000/svg" viewBox="0 0 1200 400" width="1200" height="400">
<defs>
<linearGradient id="bg" x1="0" y1="0" x2="0" y2="1"><stop offset="0%" stop-color="#94a3b8"/><stop offset="100%" stop-color="#0369a1"/></linearGradient>
<linearGradient id="warm" x1="0" y1="0" x2="1" y2="1"><stop offset="0%" stop-color="#858d98" stop-opacity="0.18"/><stop offset="100%" stop-color="#858d98" stop-opacity="0.06"/></linearGradient>
</defs>
<rect width="1200" height="400" fill="url(#bg)"/>
<path d="M0 400 L0 251.61346892047854 C60.0 250.5, 90.0 243.2, 150.0 235.7 C210.0 227.3, 240.0 228.5, 300.0 232.0 C360.0 226.5, 390.0 215.2, 450.0 221.7 C510.0 230.3, 540.0 224.6, 600.0 225.4 C660.0 221.5, 690.0 246.3, 750.0 244.9 C810.0 246.5, 840.0 262.0, 900.0 253.2 C960.0 262.9, 990.0 241.7, 1050.0 248.0 C1110.0 240.1, 1140.0 241.8, 1200.0 247.0 L1200 400 Z" fill="#367da9" opacity="0.45"/>
<path d="M0 400 L0 264.2961406526 C52.5 261.0, 97.5 271.3, 150.0 265.0 C202.5 261.0, 247.5 272.6, 300.0 279.1 C352.5 273.6, 397.5 282.3, 450.0 276.7 C502.5 273.9, 547.5 272.6, 600.0 265.5 C652.5 268.6, 697.5 274.1, 750.0 271.1 C802.5 272.8, 847.5 282.4, 900.0 279.7 C952.5 273.2, 997.5 255.7, 1050.0 263.1 C1102.5 257.7, 1147.5 261.4, 1200.0 263.8 L1200 400 Z" fill="#0369a1" opacity="0.3"/>
<rect x="189.5" y="293.5" width="22.6" height="106.5" rx="7.1" fill="#04877c" opacity="0.58"/>
<rect x="194.5" y="303.5" width="4" height="5" rx="0.5" fill="#94a3b8" opacity="0.6"/>
<rect x="194.5" y="347.5" width="4" height="5" rx="0.5" fill="#94a3b8" opacity="0.6"/>
<rect x="335.4" y="352.3" width="43.0" height="47.7" rx="7.8" fill="#05946c" opacity="0.83"/>
<rect x="540.0" y="338.4" width="33.6" height="61.6" rx="7.8" fill="#059070" opacity="0.63"/>
<rect x="833.1" y="333.7" width="16.5" height="66.3" rx="3.5" fill="#04857f" opacity="0.80"/>
<rect x="802.0" y="370.1" width="47.9" height="29.9" rx="7.0" fill="#047e87" opacity="0.58"/>
<rect x="917.6" y="355.1" width="33.1" height="44.9" rx="6.1" fill="#048a77" opacity="0.70"/>
<rect x="624.3" y="323.4" width="39.3" height="76.6" rx="4.0" fill="#05936d" opacity="0.75"/>
<rect x="400.8" y="354.6" width="17.4" height="45.4" rx="3.9" fill="#058d74" opacity="0.82"/>
<rect x="866.4" y="352.2" width="21.2" height="47.8" rx="7.7" fill="#04897a" opacity="0.81"/>
<rect x="452.0" y="266.6" width="28.3" height="133.4" rx="4.5" fill="#059170" opacity="0.75"/>
<rect x="636.7" y="315.5" width="15.6" height="84.5" rx="7.1" fill="#04857e" opacity="0.58"/>
<rect x="641.7" y="325.5" width="4" height="5" rx="0.5" fill="#94a3b8" opacity="0.6"/>
<rect x="641.7" y="347.5" width="4" height="5" rx="0.5" fill="#94a3b8" opacity="0.6"/>
<rect x="432.1" y="365.3" width="29.9" height="34.7" rx="6.6" fill="#059070" opacity="0.75"/>
<rect x="615.4" y="288.3" width="22.9" height="111.7" rx="4.5" fill="#059070" opacity="0.81"/>
<rect x="620.4" y="298.3" width="4" height="5" rx="0.5" fill="#94a3b8" opacity="0.6"/>
<rect x="620.4" y="320.3" width="4" height="5" rx="0.5" fill="#94a3b8" opacity="0.6"/>
<rect x="620.4" y="342.3" width="4" height="5" rx="0.5" fill="#94a3b8" opacity="0.6"/>
<rect x="620.4" y="364.3" width="4" height="5" rx="0.5" fill="#94a3b8" opacity="0.6"/>
<circle cx="713.0" cy="93.0" r="8.7" fill="#059669" opacity="0.16"/>
<circle cx="1127.3" cy="141.8" r="4.3" fill="#94a3b8" opacity="0.42"/>
<circle cx="84.8" cy="76.5" r="9.1" fill="#059669" opacity="0.37"/>
<circle cx="989.9" cy="81.3" r="9.5" fill="#94a3b8" opacity="0.19"/>
<circle cx="900.7" cy="189.5" r="7.2" fill="#059669" opacity="0.20"/>
<circle cx="93.3" cy="97.3" r="6.4" fill="#059669" opacity="0.35"/>
<circle cx="446.2" cy="135.9" r="10.7" fill="#94a3b8" opacity="0.39"/>
<circle cx="159.5" cy="139.2" r="9.6" fill="#059669" opacity="0.19"/>
<circle cx="692.5" cy="238.3" r="11.6" fill="#059669" opacity="0.31"/>
<circle cx="705.0" cy="104.3" r="11.6" fill="#059669" opacity="0.15"/>
<circle cx="963.1" cy="13.5" r="8.2" fill="#94a3b8" opacity="0.29"/>
<circle cx="173.9" cy="154.9" r="8.1" fill="#059669" opacity="0.25"/>
<rect width="1200" height="400" fill="url(#warm)"/>
<rect width="1200" height="400" fill="#94a3b8" opacity="0.40"/>
</svg>