<svg xmlns="http://www.w3.org/2000/svg" viewBox="0 0 1200 300" width="1200" height="300">
<defs>
<linearGradient id="skyGrad" x1="0" y1="0" x2="0" y2="1">
<stop offset="0%" stop-color="#818cf8"/>
<stop offset="20%" stop-color="#c4b5fd"/>
<stop offset="38%" stop-color="#fda4af"/>
<stop offset="55%" stop-color="#fdba74"/>
<stop offset="75%" stop-color="#fef08a"/>
<stop offset="100%" stop-color="#fef9c3"/>
</linearGradient>
<linearGradient id="bldg_coral" x1="0" y1="0" x2="0" y2="1"><stop offset="0%" stop-color="#fecaca"/><stop offset="100%" stop-color="#fca5a5"/></linearGradient>
<linearGradient id="bldg_teal" x1="0" y1="0" x2="0" y2="1"><stop offset="0%" stop-color="#99f6e4"/><stop offset="100%" stop-color="#5eead4"/></linearGradient>
<linearGradient id="bldg_amber" x1="0" y1="0" x2="0" y2="1"><stop offset="0%" stop-color="#fde68a"/><stop offset="100%" stop-color="#fcd34d"/></linearGradient>
<linearGradient id="bldg_lavender" x1="0" y1="0" x2="0" y2="1"><stop offset="0%" stop-color="#ddd6fe"/><stop offset="100%" stop-color="#c4b5fd"/></linearGradient>
<linearGradient id="bldg_blue" x1="0" y1="0" x2="0" y2="1"><stop offset="0%" stop-color="#bfdbfe"/><stop offset="100%" stop-color="#93c5fd"/></linearGradient>
<linearGradient id="bldg_mint" x1="0" y1="0" x2="0" y2="1"><stop offset="0%" stop-color="#a7f3d0"/><stop offset="100%" stop-color="#6ee7b7"/></linearGradient>
<linearGradient id="bldg_rose" x1="0" y1="0" x2="0" y2="1"><stop offset="0%" stop-color="#fecdd3"/><stop offset="100%" stop-color="#fda4af"/></linearGradient>
<linearGradient id="bldg_sky" x1="0" y1="0" x2="0" y2="1"><stop offset="0%" stop-color="#bae6fd"/><stop offset="100%" stop-color="#7dd3fc"/></linearGradient>
<linearGradient id="roof_navyRoof" x1="0" y1="0" x2="0" y2="1"><stop offset="0%" stop-color="#4338ca"/><stop offset="100%" stop-color="#3730a3"/></linearGradient>
<linearGradient id="roof_coralRoof" x1="0" y1="0" x2="0" y2="1"><stop offset="0%" stop-color="#f87171"/><stop offset="100%" stop-color="#ef4444"/></linearGradient>
<linearGradient id="roof_tealRoof" x1="0" y1="0" x2="0" y2="1"><stop offset="0%" stop-color="#2dd4bf"/><stop offset="100%" stop-color="#14b8a6"/></linearGradient>
<radialGradient id="windowGlow" cx="50%" cy="50%" r="50%"><stop offset="0%" stop-color="#fef08a"/><stop offset="60%" stop-color="#fbbf24"/><stop offset="100%" stop-color="#f59e0b"/></radialGradient>
<linearGradient id="hillFar" x1="0" y1="0" x2="0" y2="1"><stop offset="0%" stop-color="#c4b5fd"/><stop offset="100%" stop-color="#a5b4fc"/></linearGradient>
<linearGradient id="hillMid" x1="0" y1="0" x2="0" y2="1"><stop offset="0%" stop-color="#86efac"/><stop offset="100%" stop-color="#4ade80"/></linearGradient>
<linearGradient id="hillNear" x1="0" y1="0" x2="0" y2="1"><stop offset="0%" stop-color="#34d399"/><stop offset="100%" stop-color="#10b981"/></linearGradient>
<linearGradient id="hillDesertFar" x1="0" y1="0" x2="0" y2="1"><stop offset="0%" stop-color="#fde68a"/><stop offset="100%" stop-color="#fcd34d"/></linearGradient>
<linearGradient id="hillDesertMid" x1="0" y1="0" x2="0" y2="1"><stop offset="0%" stop-color="#fcd34d"/><stop offset="100%" stop-color="#fbbf24"/></linearGradient>
<linearGradient id="hillDesertNear" x1="0" y1="0" x2="0" y2="1"><stop offset="0%" stop-color="#fbbf24"/><stop offset="100%" stop-color="#f59e0b"/></linearGradient>
<linearGradient id="groundGrad" x1="0" y1="0" x2="0" y2="1"><stop offset="0%" stop-color="#fef3c7"/><stop offset="100%" stop-color="#fde68a"/></linearGradient>
<linearGradient id="waterGrad" x1="0" y1="0" x2="0" y2="1"><stop offset="0%" stop-color="#bfdbfe"/><stop offset="100%" stop-color="#93c5fd"/></linearGradient>
<filter id="softGlow" x="-50%" y="-50%" width="200%" height="200%"><feGaussianBlur in="SourceGraphic" stdDeviation="12"/></filter>
</defs>
<rect width="1200" height="300" fill="url(#skyGrad)"/>
<circle cx="1061.3" cy="45.4" r="45" fill="#fef08a" opacity="0.12" filter="url(#softGlow)"/>
<circle cx="1061.3" cy="45.4" r="30" fill="#fde68a" opacity="0.18" filter="url(#softGlow)"/>
<circle cx="1061.3" cy="45.4" r="16" fill="#fef9c3" opacity="0.25" filter="url(#softGlow)"/>
<ellipse cx="131.6" cy="22.0" rx="48.8" ry="17.1" fill="white" opacity="0.6"/>
<ellipse cx="101.1" cy="26.9" rx="34.2" ry="13.4" fill="white" opacity="0.5"/>
<ellipse cx="158.4" cy="25.7" rx="39.0" ry="14.6" fill="white" opacity="0.5"/>
<ellipse cx="816.1" cy="43.1" rx="49.0" ry="17.1" fill="white" opacity="0.5"/>
<ellipse cx="785.5" cy="48.0" rx="34.3" ry="13.5" fill="white" opacity="0.5"/>
<ellipse cx="843.1" cy="46.8" rx="39.2" ry="14.7" fill="white" opacity="0.5"/>
<path d="M0 300 L0.0 190.7 C129.2 190.7, 129.2 191.6, 258.3 191.6 C461.3 191.6, 461.3 187.0, 664.2 187.0 C767.3 187.0, 767.3 185.3, 870.4 185.3 C1035.2 185.3, 1035.2 190.5, 1200.0 190.5 L1200 300 Z" fill="url(#hillFar)" opacity="0.5"/>
<path d="M0 300 L0.0 203.1 C126.1 203.1, 126.1 214.1, 252.3 214.1 C406.5 214.1, 406.5 212.5, 560.6 212.5 C716.1 212.5, 716.1 204.4, 871.6 204.4 C1035.8 204.4, 1035.8 209.6, 1200.0 209.6 L1200 300 Z" fill="url(#hillMid)" opacity="0.7"/>
<path d="M0 300 L0.0 231.9 C179.9 231.9, 179.9 236.0, 359.8 236.0 C462.2 236.0, 462.2 235.6, 564.6 235.6 C764.0 235.6, 764.0 236.0, 963.3 236.0 C1081.6 236.0, 1081.6 239.9, 1200.0 239.9 L1200 300 Z" fill="url(#hillNear)" opacity="1"/>
<rect x="167.1" y="193.3" width="84.6" height="106.7" rx="3" fill="url(#bldg_sky)" opacity="0.7"/>
<polygon points="167.1,193.3 209.4,170.8 251.7,193.3" fill="url(#roof_coralRoof)" opacity="0.7"/>
<rect x="185.4" y="203.3" width="6" height="8" rx="1" fill="url(#windowGlow)" opacity="0.7622847782272308"/>
<rect x="199.4" y="203.3" width="6" height="8" rx="1" fill="url(#windowGlow)" opacity="0.7358139806128172"/>
<rect x="213.4" y="203.3" width="6" height="8" rx="1" fill="url(#windowGlow)" opacity="0.9228541397130369"/>
<rect x="185.4" y="218.3" width="6" height="8" rx="1" fill="url(#windowGlow)" opacity="0.9585862886433425"/>
<rect x="199.4" y="218.3" width="6" height="8" rx="1" fill="url(#windowGlow)" opacity="0.7040624631587706"/>
<rect x="213.4" y="218.3" width="6" height="8" rx="1" fill="url(#windowGlow)" opacity="0.940738845821814"/>
<rect x="227.4" y="218.3" width="6" height="8" rx="1" fill="url(#windowGlow)" opacity="0.7723128971049156"/>
<rect x="185.4" y="233.3" width="6" height="8" rx="1" fill="url(#windowGlow)" opacity="0.746879384595379"/>
<rect x="199.4" y="233.3" width="6" height="8" rx="1" fill="url(#windowGlow)" opacity="0.886039192502405"/>
<rect x="213.4" y="233.3" width="6" height="8" rx="1" fill="url(#windowGlow)" opacity="0.8749914085376036"/>
<rect x="227.4" y="233.3" width="6" height="8" rx="1" fill="url(#windowGlow)" opacity="0.8369241171222758"/>
<rect x="185.4" y="248.3" width="6" height="8" rx="1" fill="url(#windowGlow)" opacity="0.7570115152080596"/>
<rect x="213.4" y="248.3" width="6" height="8" rx="1" fill="url(#windowGlow)" opacity="0.7423296776331634"/>
<rect x="580.3" y="212.9" width="76.7" height="87.1" rx="3" fill="url(#bldg_coral)" opacity="0.7"/>
<polygon points="580.3,212.9 618.7,195.6 657.1,212.9" fill="url(#roof_tealRoof)" opacity="0.7"/>
<rect x="594.7" y="222.9" width="6" height="8" rx="1" fill="url(#windowGlow)" opacity="0.9745505363096252"/>
<rect x="608.7" y="222.9" width="6" height="8" rx="1" fill="url(#windowGlow)" opacity="0.7550671162340171"/>
<rect x="622.7" y="222.9" width="6" height="8" rx="1" fill="url(#windowGlow)" opacity="0.9836373178677806"/>
<rect x="636.7" y="222.9" width="6" height="8" rx="1" fill="url(#windowGlow)" opacity="0.9644287632146984"/>
<rect x="594.7" y="237.9" width="6" height="8" rx="1" fill="url(#windowGlow)" opacity="0.9982356902669349"/>
<rect x="608.7" y="237.9" width="6" height="8" rx="1" fill="url(#windowGlow)" opacity="0.7907991884699087"/>
<rect x="622.7" y="237.9" width="6" height="8" rx="1" fill="url(#windowGlow)" opacity="0.9171302432274121"/>
<rect x="636.7" y="237.9" width="6" height="8" rx="1" fill="url(#windowGlow)" opacity="0.7284322660548762"/>
<rect x="594.7" y="252.9" width="6" height="8" rx="1" fill="url(#windowGlow)" opacity="0.8614619813680006"/>
<rect x="608.7" y="252.9" width="6" height="8" rx="1" fill="url(#windowGlow)" opacity="0.8880972201880519"/>
<rect x="622.7" y="252.9" width="6" height="8" rx="1" fill="url(#windowGlow)" opacity="0.9129973670528257"/>
<rect x="636.7" y="252.9" width="6" height="8" rx="1" fill="url(#windowGlow)" opacity="0.977046886960532"/>
<rect x="895.2" y="245.6" width="75.5" height="54.4" rx="3" fill="url(#bldg_teal)" opacity="0.7"/>
<polygon points="895.2,245.6 933.0,225.2 970.7,245.6" fill="url(#roof_navyRoof)" opacity="0.7"/>
<rect x="923.0" y="255.6" width="6" height="8" rx="1" fill="url(#windowGlow)" opacity="0.9149551523453346"/>
<rect x="937.0" y="255.6" width="6" height="8" rx="1" fill="url(#windowGlow)" opacity="0.9155477654726932"/>
<rect x="951.0" y="255.6" width="6" height="8" rx="1" fill="url(#windowGlow)" opacity="0.9366444561335465"/>
<rect x="188.8" y="214.4" width="45.6" height="85.6" rx="3" fill="url(#bldg_amber)" opacity="0.85"/>
<rect x="197.9" y="204.1" width="27.4" height="10.3" rx="2" fill="url(#roof_coralRoof)" opacity="0.85"/>
<rect x="201.6" y="224.4" width="6" height="8" rx="1" fill="url(#windowGlow)" opacity="0.7632514523636789"/>
<rect x="215.6" y="224.4" width="6" height="8" rx="1" fill="url(#windowGlow)" opacity="0.9938058091764365"/>
<rect x="201.6" y="239.4" width="6" height="8" rx="1" fill="url(#windowGlow)" opacity="0.9219922334989497"/>
<rect x="215.6" y="239.4" width="6" height="8" rx="1" fill="url(#windowGlow)" opacity="0.9433460217171097"/>
<rect x="201.6" y="254.4" width="6" height="8" rx="1" fill="url(#windowGlow)" opacity="0.8162533743848341"/>
<rect x="215.6" y="254.4" width="6" height="8" rx="1" fill="url(#windowGlow)" opacity="0.7104052999105329"/>
<rect x="525.3" y="171.2" width="69.6" height="128.8" rx="3" fill="url(#bldg_lavender)" opacity="0.85"/>
<rect x="525.3" y="168.2" width="69.6" height="3" rx="1" fill="url(#roof_tealRoof)" opacity="0.85"/>
<rect x="543.1" y="181.2" width="6" height="8" rx="1" fill="url(#windowGlow)" opacity="0.7437552637624345"/>
<rect x="557.1" y="181.2" width="6" height="8" rx="1" fill="url(#windowGlow)" opacity="0.855331448724182"/>
<rect x="543.1" y="196.2" width="6" height="8" rx="1" fill="url(#windowGlow)" opacity="0.9017655328390027"/>
<rect x="557.1" y="196.2" width="6" height="8" rx="1" fill="url(#windowGlow)" opacity="0.8377964920540324"/>
<rect x="571.1" y="196.2" width="6" height="8" rx="1" fill="url(#windowGlow)" opacity="0.8016670664780153"/>
<rect x="543.1" y="211.2" width="6" height="8" rx="1" fill="url(#windowGlow)" opacity="0.7447528299618292"/>
<rect x="557.1" y="211.2" width="6" height="8" rx="1" fill="url(#windowGlow)" opacity="0.9251666363911547"/>
<rect x="571.1" y="211.2" width="6" height="8" rx="1" fill="url(#windowGlow)" opacity="0.8410376566653315"/>
<rect x="557.1" y="226.2" width="6" height="8" rx="1" fill="url(#windowGlow)" opacity="0.7233185323063835"/>
<rect x="571.1" y="226.2" width="6" height="8" rx="1" fill="url(#windowGlow)" opacity="0.8145408210877985"/>
<rect x="543.1" y="241.2" width="6" height="8" rx="1" fill="url(#windowGlow)" opacity="0.7279930129777608"/>
<rect x="557.1" y="241.2" width="6" height="8" rx="1" fill="url(#windowGlow)" opacity="0.8698694314667347"/>
<rect x="571.1" y="241.2" width="6" height="8" rx="1" fill="url(#windowGlow)" opacity="0.9413381069159777"/>
<rect x="543.1" y="256.2" width="6" height="8" rx="1" fill="url(#windowGlow)" opacity="0.7398755395039336"/>
<rect x="557.1" y="256.2" width="6" height="8" rx="1" fill="url(#windowGlow)" opacity="0.92116969945895"/>
<rect x="917.4" y="159.8" width="62.1" height="140.2" rx="3" fill="url(#bldg_blue)" opacity="0.85"/>
<rect x="929.8" y="143.0" width="37.2" height="16.8" rx="2" fill="url(#roof_navyRoof)" opacity="0.85"/>
<rect x="931.4" y="169.8" width="6" height="8" rx="1" fill="url(#windowGlow)" opacity="0.9854490132934641"/>
<rect x="945.4" y="169.8" width="6" height="8" rx="1" fill="url(#windowGlow)" opacity="0.8166334748345583"/>
<rect x="959.4" y="169.8" width="6" height="8" rx="1" fill="url(#windowGlow)" opacity="0.8304057589873698"/>
<rect x="931.4" y="184.8" width="6" height="8" rx="1" fill="url(#windowGlow)" opacity="0.7024943237670205"/>
<rect x="959.4" y="184.8" width="6" height="8" rx="1" fill="url(#windowGlow)" opacity="0.716918899219911"/>
<rect x="931.4" y="199.8" width="6" height="8" rx="1" fill="url(#windowGlow)" opacity="0.842096400699623"/>
<rect x="945.4" y="199.8" width="6" height="8" rx="1" fill="url(#windowGlow)" opacity="0.7434767588244177"/>
<rect x="959.4" y="199.8" width="6" height="8" rx="1" fill="url(#windowGlow)" opacity="0.8688376921083953"/>
<rect x="931.4" y="214.8" width="6" height="8" rx="1" fill="url(#windowGlow)" opacity="0.8440601272248012"/>
<rect x="931.4" y="229.8" width="6" height="8" rx="1" fill="url(#windowGlow)" opacity="0.8256330679755811"/>
<rect x="959.4" y="229.8" width="6" height="8" rx="1" fill="url(#windowGlow)" opacity="0.9174617414909703"/>
<rect x="931.4" y="244.8" width="6" height="8" rx="1" fill="url(#windowGlow)" opacity="0.8091144863558535"/>
<rect x="931.4" y="259.8" width="6" height="8" rx="1" fill="url(#windowGlow)" opacity="0.7297145018026765"/>
<rect x="945.4" y="259.8" width="6" height="8" rx="1" fill="url(#windowGlow)" opacity="0.9632403986357341"/>
<rect x="959.4" y="259.8" width="6" height="8" rx="1" fill="url(#windowGlow)" opacity="0.8599916741531303"/>
<path d="M948.4 208.9 L973.3 208.9 L970.3 214.9 L951.4 214.9 Z" fill="url(#roof_tealRoof)" opacity="0.68"/>
<rect x="168.4" y="147.4" width="64.4" height="152.6" rx="3" fill="url(#bldg_mint)" opacity="1"/>
<rect x="181.3" y="129.1" width="38.7" height="18.3" rx="2" fill="url(#roof_coralRoof)" opacity="1"/>
<rect x="183.6" y="157.4" width="6" height="8" rx="1" fill="url(#windowGlow)" opacity="0.8503138012021378"/>
<rect x="211.6" y="157.4" width="6" height="8" rx="1" fill="url(#windowGlow)" opacity="0.8972152378862794"/>
<rect x="183.6" y="172.4" width="6" height="8" rx="1" fill="url(#windowGlow)" opacity="0.8762265312840354"/>
<rect x="197.6" y="172.4" width="6" height="8" rx="1" fill="url(#windowGlow)" opacity="0.8406662794019404"/>
<rect x="211.6" y="172.4" width="6" height="8" rx="1" fill="url(#windowGlow)" opacity="0.9116837301811593"/>
<rect x="211.6" y="187.4" width="6" height="8" rx="1" fill="url(#windowGlow)" opacity="0.8905521928754412"/>
<rect x="183.6" y="202.4" width="6" height="8" rx="1" fill="url(#windowGlow)" opacity="0.9981612934722384"/>
<rect x="197.6" y="202.4" width="6" height="8" rx="1" fill="url(#windowGlow)" opacity="0.753449814465572"/>
<rect x="211.6" y="202.4" width="6" height="8" rx="1" fill="url(#windowGlow)" opacity="0.8111015785537201"/>
<rect x="183.6" y="217.4" width="6" height="8" rx="1" fill="url(#windowGlow)" opacity="0.9291925798771867"/>
<rect x="197.6" y="217.4" width="6" height="8" rx="1" fill="url(#windowGlow)" opacity="0.8565074974934139"/>
<rect x="211.6" y="217.4" width="6" height="8" rx="1" fill="url(#windowGlow)" opacity="0.9675460280699404"/>
<rect x="183.6" y="232.4" width="6" height="8" rx="1" fill="url(#windowGlow)" opacity="0.7477336853499215"/>
<rect x="197.6" y="232.4" width="6" height="8" rx="1" fill="url(#windowGlow)" opacity="0.778812654958485"/>
<rect x="211.6" y="232.4" width="6" height="8" rx="1" fill="url(#windowGlow)" opacity="0.8952867245745317"/>
<rect x="183.6" y="247.4" width="6" height="8" rx="1" fill="url(#windowGlow)" opacity="0.8146302533404111"/>
<rect x="197.6" y="247.4" width="6" height="8" rx="1" fill="url(#windowGlow)" opacity="0.924244577868024"/>
<rect x="211.6" y="247.4" width="6" height="8" rx="1" fill="url(#windowGlow)" opacity="0.974356189730743"/>
<rect x="195.6" y="284.0" width="10" height="16" rx="2" fill="url(#roof_navyRoof)" opacity="0.8"/>
<rect x="197.6" y="287.0" width="6" height="10" rx="1" fill="url(#windowGlow)" opacity="0.45"/>
<path d="M200.6 200.8 L226.4 200.8 L223.4 206.8 L203.6 206.8 Z" fill="url(#roof_navyRoof)" opacity="0.8"/>
<rect x="607.6" y="223.0" width="43.8" height="77.0" rx="3" fill="url(#bldg_rose)" opacity="1"/>
<rect x="616.4" y="213.8" width="26.3" height="9.2" rx="2" fill="url(#roof_tealRoof)" opacity="1"/>
<rect x="626.5" y="248.0" width="6" height="8" rx="1" fill="url(#windowGlow)" opacity="0.7590313166654814"/>
<rect x="624.5" y="284.0" width="10" height="16" rx="2" fill="url(#roof_navyRoof)" opacity="0.8"/>
<rect x="626.5" y="287.0" width="6" height="10" rx="1" fill="url(#windowGlow)" opacity="0.45"/>
<path d="M612.0 250.0 L629.5 250.0 L626.5 256.0 L615.0 256.0 Z" fill="url(#roof_coralRoof)" opacity="0.8"/>
<rect x="994.7" y="234.6" width="44.0" height="65.4" rx="3" fill="url(#bldg_sky)" opacity="1"/>
<rect x="994.7" y="231.6" width="44.0" height="3" rx="1" fill="url(#roof_navyRoof)" opacity="1"/>
<rect x="1013.7" y="259.6" width="6" height="8" rx="1" fill="url(#windowGlow)" opacity="0.8466387424835183"/>
<rect x="1011.7" y="284.0" width="10" height="16" rx="2" fill="url(#roof_navyRoof)" opacity="0.8"/>
<rect x="1013.7" y="287.0" width="6" height="10" rx="1" fill="url(#windowGlow)" opacity="0.45"/>
<rect x="417.2" y="264.8" width="6" height="20.2" rx="2" fill="#15803d"/>
<circle cx="420.2" cy="252.6" r="16.2" fill="#22c55e" opacity="0.9"/>
<circle cx="411.6" cy="255.6" r="12.2" fill="#16a34a" opacity="0.8"/>
<circle cx="425.8" cy="256.6" r="11.4" fill="#15803d" opacity="0.7"/>
<rect x="820.1" y="264.8" width="6" height="20.2" rx="2" fill="#15803d"/>
<circle cx="823.1" cy="251.4" r="17.4" fill="#22c55e" opacity="0.9"/>
<circle cx="816.0" cy="254.4" r="13.0" fill="#16a34a" opacity="0.8"/>
<circle cx="828.8" cy="255.4" r="12.2" fill="#15803d" opacity="0.7"/>
<rect x="125.1" y="263.8" width="6" height="21.2" rx="2" fill="#15803d"/>
<circle cx="128.1" cy="251.7" r="16.1" fill="#22c55e" opacity="0.9"/>
<circle cx="119.6" cy="254.7" r="12.1" fill="#16a34a" opacity="0.8"/>
<circle cx="133.2" cy="255.7" r="11.3" fill="#15803d" opacity="0.7"/>
<rect x="1063.8" y="267.1" width="6" height="17.9" rx="2" fill="#15803d"/>
<circle cx="1066.8" cy="256.2" r="14.9" fill="#22c55e" opacity="0.9"/>
<circle cx="1058.2" cy="259.2" r="11.2" fill="#16a34a" opacity="0.8"/>
<circle cx="1074.4" cy="260.2" r="10.5" fill="#15803d" opacity="0.7"/>
<rect x="114.3" y="264.5" width="6" height="20.5" rx="2" fill="#15803d"/>
<circle cx="117.3" cy="251.9" r="16.6" fill="#22c55e" opacity="0.9"/>
<circle cx="108.3" cy="254.9" r="12.4" fill="#16a34a" opacity="0.8"/>
<circle cx="124.1" cy="255.9" r="11.6" fill="#15803d" opacity="0.7"/>
<rect x="211.2" y="265.6" width="6" height="19.4" rx="2" fill="#15803d"/>
<circle cx="214.2" cy="252.1" r="17.4" fill="#22c55e" opacity="0.9"/>
<circle cx="206.2" cy="255.1" r="13.1" fill="#16a34a" opacity="0.8"/>
<circle cx="219.7" cy="256.1" r="12.2" fill="#15803d" opacity="0.7"/>
<rect x="709.5" y="264.8" width="6" height="20.2" rx="2" fill="#15803d"/>
<circle cx="712.5" cy="254.9" r="13.9" fill="#22c55e" opacity="0.9"/>
<circle cx="705.8" cy="257.9" r="10.4" fill="#16a34a" opacity="0.8"/>
<circle cx="719.0" cy="258.9" r="9.7" fill="#15803d" opacity="0.7"/>
<rect x="59.6" y="268.0" width="6" height="17.0" rx="2" fill="#15803d"/>
<circle cx="62.6" cy="256.6" r="15.4" fill="#22c55e" opacity="0.9"/>
<circle cx="54.1" cy="259.6" r="11.5" fill="#16a34a" opacity="0.8"/>
<circle cx="68.5" cy="260.6" r="10.8" fill="#15803d" opacity="0.7"/>
<rect x="96.8" y="268.2" width="6" height="16.8" rx="2" fill="#15803d"/>
<circle cx="99.8" cy="258.9" r="13.3" fill="#22c55e" opacity="0.9"/>
<circle cx="93.5" cy="261.9" r="10.0" fill="#16a34a" opacity="0.8"/>
<circle cx="107.7" cy="262.9" r="9.3" fill="#15803d" opacity="0.7"/>
<rect x="0" y="282" width="1200" height="18" fill="url(#groundGrad)"/>
<line x1="442.7" y1="282.0" x2="442.7" y2="242.6" stroke="#92400e" stroke-width="2"/>
<circle cx="442.7" cy="242.6" r="4" fill="#fef08a" opacity="0.6"/>
<circle cx="442.7" cy="242.6" r="8" fill="#fef08a" opacity="0.15" filter="url(#softGlow)"/>
<line x1="930.5" y1="282.0" x2="930.5" y2="246.6" stroke="#92400e" stroke-width="2"/>
<circle cx="930.5" cy="246.6" r="4" fill="#fef08a" opacity="0.6"/>
<circle cx="930.5" cy="246.6" r="8" fill="#fef08a" opacity="0.15" filter="url(#softGlow)"/>
<ellipse cx="856.3" cy="282.0" rx="4.6" ry="3.2" fill="#22c55e" opacity="0.6"/>
<ellipse cx="713.9" cy="282.0" rx="6.3" ry="4.4" fill="#22c55e" opacity="0.6"/>
</svg>