<svg xmlns="http://www.w3.org/2000/svg" viewBox="0 0 1200 300" width="1200" height="300">
<defs><linearGradient id="skyGrad" x1="0" y1="0" x2="0" y2="1"><stop offset="0%" stop-color="#f5ede0"/><stop offset="100%" stop-color="#ede0cc"/></linearGradient></defs><rect width="1200" height="300" fill="url(#skyGrad)"/>
<path d="M0 300 L0.0 192.3 Q100.0 198.3 200.0 208.5 Q300.0 151.1 400.0 173.0 Q500.0 139.4 600.0 159.9 Q700.0 131.9 800.0 151.7 Q900.0 183.0 1000.0 204.6 Q1100.0 196.8 1200.0 207.1 L1200 300 Z" fill="#d9bc9b" opacity="0.35"/>
<ellipse cx="1075.9" cy="239.1" rx="114.1" ry="41.9" fill="#a7aeaf" opacity="0.55"/>
<path d="M981.8 239.1 Q1075.9 236.1 1170.0 239.1" fill="none" stroke="#bcc1c2" stroke-width="1" opacity="0.35"/>
<rect x="121.1" y="248.3" width="116.1" height="51.7" fill="#daae87"/>
<rect x="454.0" y="250.9" width="70.5" height="49.1" fill="#daae87"/>
<rect x="466.4" y="242.2" width="45.8" height="8.7" fill="#cfa580"/>
<rect x="690.1" y="213.4" width="53.8" height="86.6" fill="#daae87"/>
<rect x="938.9" y="234.3" width="98.0" height="65.7" fill="#daae87"/>
<rect x="119.7" y="229.1" width="104.0" height="70.9" fill="#c98951"/>
<rect x="154.6" y="241.1" width="6" height="8" fill="#dcb28e" opacity="0.5"/>
<rect x="182.6" y="241.1" width="6" height="8" fill="#dcb28e" opacity="0.5"/>
<rect x="154.6" y="257.1" width="6" height="8" fill="#dcb28e" opacity="0.5"/>
<rect x="168.6" y="257.1" width="6" height="8" fill="#dcb28e" opacity="0.5"/>
<rect x="182.6" y="257.1" width="6" height="8" fill="#dcb28e" opacity="0.5"/>
<rect x="154.6" y="273.1" width="6" height="8" fill="#dcb28e" opacity="0.5"/>
<rect x="168.6" y="273.1" width="6" height="8" fill="#dcb28e" opacity="0.5"/>
<rect x="182.6" y="273.1" width="6" height="8" fill="#dcb28e" opacity="0.5"/>
<rect x="340.9" y="207.0" width="60.1" height="93.0" fill="#c98951"/>
<polygon points="340.9,207.0 371.0,192.0 401.0,207.0" fill="#b97e4b"/>
<rect x="354.0" y="219.0" width="6" height="8" fill="#dcb28e" opacity="0.5"/>
<rect x="354.0" y="235.0" width="6" height="8" fill="#dcb28e" opacity="0.5"/>
<rect x="354.0" y="251.0" width="6" height="8" fill="#dcb28e" opacity="0.5"/>
<rect x="368.0" y="251.0" width="6" height="8" fill="#dcb28e" opacity="0.5"/>
<rect x="382.0" y="251.0" width="6" height="8" fill="#dcb28e" opacity="0.5"/>
<rect x="354.0" y="267.0" width="6" height="8" fill="#dcb28e" opacity="0.5"/>
<rect x="368.0" y="267.0" width="6" height="8" fill="#dcb28e" opacity="0.5"/>
<rect x="382.0" y="267.0" width="6" height="8" fill="#dcb28e" opacity="0.5"/>
<rect x="579.0" y="238.0" width="60.1" height="62.0" fill="#c98951"/>
<rect x="606.0" y="250.0" width="6" height="8" fill="#dcb28e" opacity="0.5"/>
<rect x="620.0" y="250.0" width="6" height="8" fill="#dcb28e" opacity="0.5"/>
<rect x="760.0" y="243.0" width="96.2" height="57.0" fill="#c98951"/>
<rect x="1017.3" y="236.9" width="48.8" height="63.1" fill="#c98951"/>
<rect x="1025.9" y="225.7" width="31.7" height="11.1" fill="#bf824d"/>
<rect x="1031.7" y="237.7" width="6" height="8" fill="#dcb28e" opacity="0.5"/>
<rect x="1045.7" y="237.7" width="6" height="8" fill="#dcb28e" opacity="0.5"/>
<rect x="1045.7" y="253.7" width="6" height="8" fill="#dcb28e" opacity="0.5"/>
<rect x="1031.7" y="269.7" width="6" height="8" fill="#dcb28e" opacity="0.5"/>
<rect x="117.9" y="232.3" width="66.1" height="67.7" fill="#bc6c25"/>
<rect x="148.0" y="244.3" width="6" height="8" fill="#d39f71" opacity="0.5"/>
<rect x="162.0" y="260.3" width="6" height="8" fill="#d39f71" opacity="0.5"/>
<rect x="378.8" y="177.9" width="83.3" height="122.1" fill="#bc6c25"/>
<polygon points="378.8,177.9 420.5,157.1 462.2,177.9" fill="#ad6322"/>
<rect x="403.5" y="189.9" width="6" height="8" fill="#d39f71" opacity="0.5"/>
<rect x="417.5" y="189.9" width="6" height="8" fill="#d39f71" opacity="0.5"/>
<rect x="431.5" y="189.9" width="6" height="8" fill="#d39f71" opacity="0.5"/>
<rect x="403.5" y="205.9" width="6" height="8" fill="#d39f71" opacity="0.5"/>
<rect x="431.5" y="205.9" width="6" height="8" fill="#d39f71" opacity="0.5"/>
<rect x="403.5" y="221.9" width="6" height="8" fill="#d39f71" opacity="0.5"/>
<rect x="431.5" y="221.9" width="6" height="8" fill="#d39f71" opacity="0.5"/>
<rect x="403.5" y="237.9" width="6" height="8" fill="#d39f71" opacity="0.5"/>
<rect x="431.5" y="237.9" width="6" height="8" fill="#d39f71" opacity="0.5"/>
<rect x="403.5" y="253.9" width="6" height="8" fill="#d39f71" opacity="0.5"/>
<rect x="417.5" y="253.9" width="6" height="8" fill="#d39f71" opacity="0.5"/>
<rect x="417.5" y="269.9" width="6" height="8" fill="#d39f71" opacity="0.5"/>
<rect x="431.5" y="269.9" width="6" height="8" fill="#d39f71" opacity="0.5"/>
<rect x="714.4" y="178.9" width="86.5" height="121.1" fill="#bc6c25"/>
<rect x="740.7" y="190.9" width="6" height="8" fill="#d39f71" opacity="0.5"/>
<rect x="754.7" y="206.9" width="6" height="8" fill="#d39f71" opacity="0.5"/>
<rect x="754.7" y="222.9" width="6" height="8" fill="#d39f71" opacity="0.5"/>
<rect x="768.7" y="222.9" width="6" height="8" fill="#d39f71" opacity="0.5"/>
<rect x="754.7" y="238.9" width="6" height="8" fill="#d39f71" opacity="0.5"/>
<rect x="740.7" y="254.9" width="6" height="8" fill="#d39f71" opacity="0.5"/>
<rect x="754.7" y="254.9" width="6" height="8" fill="#d39f71" opacity="0.5"/>
<rect x="740.7" y="270.9" width="6" height="8" fill="#d39f71" opacity="0.5"/>
<rect x="999.6" y="202.8" width="44.9" height="97.2" fill="#bc6c25"/>
<rect x="1007.5" y="185.6" width="29.2" height="17.2" fill="#b36723"/>
<rect x="1012.0" y="213.6" width="6" height="8" fill="#d39f71" opacity="0.5"/>
<rect x="1026.0" y="213.6" width="6" height="8" fill="#d39f71" opacity="0.5"/>
<rect x="1012.0" y="229.6" width="6" height="8" fill="#d39f71" opacity="0.5"/>
<rect x="1026.0" y="229.6" width="6" height="8" fill="#d39f71" opacity="0.5"/>
<rect x="1026.0" y="245.6" width="6" height="8" fill="#d39f71" opacity="0.5"/>
<rect x="1012.0" y="261.6" width="6" height="8" fill="#d39f71" opacity="0.5"/>
<rect x="1026.0" y="261.6" width="6" height="8" fill="#d39f71" opacity="0.5"/>
<line x1="281.4" y1="285.0" x2="281.4" y2="258.7" stroke="#5a7a4a" stroke-width="4" stroke-linecap="round"/>
<line x1="281.4" y1="269.9" x2="270.7" y2="269.9" stroke="#5a7a4a" stroke-width="3" stroke-linecap="round"/>
<line x1="270.7" y1="269.9" x2="270.7" y2="261.1" stroke="#5a7a4a" stroke-width="3" stroke-linecap="round"/>
<line x1="588.3" y1="285.0" x2="588.3" y2="257.7" stroke="#5a7a4a" stroke-width="4" stroke-linecap="round"/>
<line x1="588.3" y1="269.7" x2="597.7" y2="269.7" stroke="#5a7a4a" stroke-width="3" stroke-linecap="round"/>
<line x1="597.7" y1="269.7" x2="597.7" y2="260.7" stroke="#5a7a4a" stroke-width="3" stroke-linecap="round"/>
<line x1="588.3" y1="273.9" x2="596.5" y2="273.9" stroke="#5a7a4a" stroke-width="3" stroke-linecap="round"/>
<line x1="596.5" y1="273.9" x2="596.5" y2="267.7" stroke="#5a7a4a" stroke-width="3" stroke-linecap="round"/>
<line x1="900.3" y1="285.0" x2="900.3" y2="247.9" stroke="#5a7a4a" stroke-width="4" stroke-linecap="round"/>
<line x1="900.3" y1="261.2" x2="887.7" y2="261.2" stroke="#5a7a4a" stroke-width="3" stroke-linecap="round"/>
<line x1="887.7" y1="261.2" x2="887.7" y2="252.9" stroke="#5a7a4a" stroke-width="3" stroke-linecap="round"/>
<line x1="900.3" y1="263.2" x2="909.9" y2="263.2" stroke="#5a7a4a" stroke-width="3" stroke-linecap="round"/>
<line x1="909.9" y1="263.2" x2="909.9" y2="256.9" stroke="#5a7a4a" stroke-width="3" stroke-linecap="round"/>
<line x1="1116.5" y1="285.0" x2="1116.5" y2="254.4" stroke="#5a7a4a" stroke-width="4" stroke-linecap="round"/>
<line x1="1116.5" y1="272.4" x2="1102.8" y2="272.4" stroke="#5a7a4a" stroke-width="3" stroke-linecap="round"/>
<line x1="1102.8" y1="272.4" x2="1102.8" y2="266.0" stroke="#5a7a4a" stroke-width="3" stroke-linecap="round"/>
<line x1="854.4" y1="285.0" x2="854.4" y2="256.6" stroke="#5a7a4a" stroke-width="4" stroke-linecap="round"/>
<line x1="854.4" y1="270.6" x2="869.7" y2="270.6" stroke="#5a7a4a" stroke-width="3" stroke-linecap="round"/>
<line x1="869.7" y1="270.6" x2="869.7" y2="263.8" stroke="#5a7a4a" stroke-width="3" stroke-linecap="round"/>
<line x1="854.4" y1="271.7" x2="862.5" y2="271.7" stroke="#5a7a4a" stroke-width="3" stroke-linecap="round"/>
<line x1="862.5" y1="271.7" x2="862.5" y2="265.4" stroke="#5a7a4a" stroke-width="3" stroke-linecap="round"/>
<rect x="0" y="285" width="1200" height="15" fill="#d9c4a0" opacity="0.4"/>
</svg>