<svg xmlns="http://www.w3.org/2000/svg" viewBox="0 0 1200 300" width="1200" height="300">
<defs><linearGradient id="skyGrad" x1="0" y1="0" x2="0" y2="1"><stop offset="0%" stop-color="#e6ecf2"/><stop offset="100%" stop-color="#f0eeec"/></linearGradient></defs><rect width="1200" height="300" fill="url(#skyGrad)"/>
<path d="M0 300 L0 208.4 C310.5 194.1, 782.9 202.1, 1200 208.4 L1200 300 Z" fill="#aac2c9" opacity="0.25"/>
<rect x="150.1" y="193.9" width="83.3" height="106.1" fill="#8aabb4"/>
<rect x="458.4" y="236.2" width="62.3" height="63.8" fill="#8aabb4"/>
<polygon points="458.4,236.2 489.6,220.6 520.7,236.2" fill="#7f9da6"/>
<rect x="690.6" y="229.8" width="56.2" height="70.2" fill="#8aabb4"/>
<polygon points="690.6,229.8 718.8,215.8 746.9,229.8" fill="#7f9da6"/>
<rect x="980.7" y="220.9" width="86.4" height="79.1" fill="#8aabb4"/>
<polygon points="980.7,220.9 1023.9,199.3 1067.1,220.9" fill="#7f9da6"/>
<rect x="119.2" y="163.7" width="60.6" height="136.3" fill="#558592"/>
<rect x="129.8" y="139.6" width="39.4" height="24.1" fill="#517e8b"/>
<rect x="146.5" y="151.6" width="6" height="8" fill="#91b0b8" opacity="0.5"/>
<rect x="132.5" y="167.6" width="6" height="8" fill="#91b0b8" opacity="0.5"/>
<rect x="146.5" y="167.6" width="6" height="8" fill="#91b0b8" opacity="0.5"/>
<rect x="132.5" y="183.6" width="6" height="8" fill="#91b0b8" opacity="0.5"/>
<rect x="146.5" y="183.6" width="6" height="8" fill="#91b0b8" opacity="0.5"/>
<rect x="132.5" y="199.6" width="6" height="8" fill="#91b0b8" opacity="0.5"/>
<rect x="160.5" y="199.6" width="6" height="8" fill="#91b0b8" opacity="0.5"/>
<rect x="160.5" y="215.6" width="6" height="8" fill="#91b0b8" opacity="0.5"/>
<rect x="146.5" y="231.6" width="6" height="8" fill="#91b0b8" opacity="0.5"/>
<rect x="160.5" y="231.6" width="6" height="8" fill="#91b0b8" opacity="0.5"/>
<rect x="310.6" y="226.0" width="79.2" height="74.0" fill="#558592"/>
<rect x="324.5" y="212.9" width="51.5" height="13.1" fill="#517e8b"/>
<rect x="333.2" y="224.9" width="6" height="8" fill="#91b0b8" opacity="0.5"/>
<rect x="347.2" y="224.9" width="6" height="8" fill="#91b0b8" opacity="0.5"/>
<rect x="333.2" y="240.9" width="6" height="8" fill="#91b0b8" opacity="0.5"/>
<rect x="361.2" y="240.9" width="6" height="8" fill="#91b0b8" opacity="0.5"/>
<rect x="333.2" y="256.9" width="6" height="8" fill="#91b0b8" opacity="0.5"/>
<rect x="361.2" y="256.9" width="6" height="8" fill="#91b0b8" opacity="0.5"/>
<rect x="333.2" y="272.9" width="6" height="8" fill="#91b0b8" opacity="0.5"/>
<rect x="347.2" y="272.9" width="6" height="8" fill="#91b0b8" opacity="0.5"/>
<rect x="558.6" y="194.7" width="45.7" height="105.3" fill="#558592"/>
<rect x="571.4" y="206.7" width="6" height="8" fill="#91b0b8" opacity="0.5"/>
<rect x="585.4" y="206.7" width="6" height="8" fill="#91b0b8" opacity="0.5"/>
<rect x="585.4" y="222.7" width="6" height="8" fill="#91b0b8" opacity="0.5"/>
<rect x="585.4" y="238.7" width="6" height="8" fill="#91b0b8" opacity="0.5"/>
<rect x="571.4" y="254.7" width="6" height="8" fill="#91b0b8" opacity="0.5"/>
<rect x="585.4" y="254.7" width="6" height="8" fill="#91b0b8" opacity="0.5"/>
<rect x="571.4" y="270.7" width="6" height="8" fill="#91b0b8" opacity="0.5"/>
<rect x="585.4" y="270.7" width="6" height="8" fill="#91b0b8" opacity="0.5"/>
<rect x="809.8" y="209.0" width="74.4" height="91.0" fill="#558592"/>
<rect x="822.8" y="193.0" width="48.3" height="16.1" fill="#517e8b"/>
<rect x="830.0" y="205.0" width="6" height="8" fill="#91b0b8" opacity="0.5"/>
<rect x="830.0" y="221.0" width="6" height="8" fill="#91b0b8" opacity="0.5"/>
<rect x="830.0" y="253.0" width="6" height="8" fill="#91b0b8" opacity="0.5"/>
<rect x="830.0" y="269.0" width="6" height="8" fill="#91b0b8" opacity="0.5"/>
<rect x="844.0" y="269.0" width="6" height="8" fill="#91b0b8" opacity="0.5"/>
<rect x="858.0" y="269.0" width="6" height="8" fill="#91b0b8" opacity="0.5"/>
<rect x="1053.3" y="201.3" width="59.9" height="98.7" fill="#558592"/>
<rect x="1066.3" y="213.3" width="6" height="8" fill="#91b0b8" opacity="0.5"/>
<rect x="1080.3" y="213.3" width="6" height="8" fill="#91b0b8" opacity="0.5"/>
<rect x="1094.3" y="229.3" width="6" height="8" fill="#91b0b8" opacity="0.5"/>
<rect x="1066.3" y="245.3" width="6" height="8" fill="#91b0b8" opacity="0.5"/>
<rect x="1094.3" y="245.3" width="6" height="8" fill="#91b0b8" opacity="0.5"/>
<rect x="1066.3" y="261.3" width="6" height="8" fill="#91b0b8" opacity="0.5"/>
<rect x="1080.3" y="261.3" width="6" height="8" fill="#91b0b8" opacity="0.5"/>
<rect x="1094.3" y="261.3" width="6" height="8" fill="#91b0b8" opacity="0.5"/>
<rect x="132.8" y="116.4" width="41.9" height="183.6" fill="#2b6777"/>
<polygon points="132.8,116.4 153.8,105.9 174.7,116.4" fill="#285f6d"/>
<rect x="150.8" y="128.4" width="6" height="8" fill="#759ca7" opacity="0.5"/>
<rect x="150.8" y="144.4" width="6" height="8" fill="#759ca7" opacity="0.5"/>
<rect x="150.8" y="160.4" width="6" height="8" fill="#759ca7" opacity="0.5"/>
<rect x="150.8" y="192.4" width="6" height="8" fill="#759ca7" opacity="0.5"/>
<rect x="399.9" y="242.1" width="40.6" height="57.9" fill="#2b6777"/>
<rect x="407.0" y="231.8" width="26.4" height="10.2" fill="#296271"/>
<rect x="417.2" y="243.8" width="6" height="8" fill="#759ca7" opacity="0.5"/>
<rect x="691.9" y="108.5" width="69.6" height="191.5" fill="#2b6777"/>
<rect x="723.7" y="120.5" width="6" height="8" fill="#759ca7" opacity="0.5"/>
<rect x="737.7" y="120.5" width="6" height="8" fill="#759ca7" opacity="0.5"/>
<rect x="737.7" y="136.5" width="6" height="8" fill="#759ca7" opacity="0.5"/>
<rect x="709.7" y="152.5" width="6" height="8" fill="#759ca7" opacity="0.5"/>
<rect x="723.7" y="152.5" width="6" height="8" fill="#759ca7" opacity="0.5"/>
<rect x="737.7" y="152.5" width="6" height="8" fill="#759ca7" opacity="0.5"/>
<rect x="709.7" y="168.5" width="6" height="8" fill="#759ca7" opacity="0.5"/>
<rect x="723.7" y="168.5" width="6" height="8" fill="#759ca7" opacity="0.5"/>
<rect x="737.7" y="168.5" width="6" height="8" fill="#759ca7" opacity="0.5"/>
<rect x="709.7" y="184.5" width="6" height="8" fill="#759ca7" opacity="0.5"/>
<rect x="723.7" y="184.5" width="6" height="8" fill="#759ca7" opacity="0.5"/>
<rect x="709.7" y="200.5" width="6" height="8" fill="#759ca7" opacity="0.5"/>
<rect x="723.7" y="200.5" width="6" height="8" fill="#759ca7" opacity="0.5"/>
<rect x="737.7" y="200.5" width="6" height="8" fill="#759ca7" opacity="0.5"/>
<rect x="1013.8" y="161.7" width="61.7" height="138.3" fill="#2b6777"/>
<polygon points="1013.8,161.7 1044.6,146.2 1075.5,161.7" fill="#285f6d"/>
<rect x="1027.6" y="173.7" width="6" height="8" fill="#759ca7" opacity="0.5"/>
<rect x="1041.6" y="173.7" width="6" height="8" fill="#759ca7" opacity="0.5"/>
<rect x="1041.6" y="189.7" width="6" height="8" fill="#759ca7" opacity="0.5"/>
<rect x="1055.6" y="189.7" width="6" height="8" fill="#759ca7" opacity="0.5"/>
<rect x="1027.6" y="205.7" width="6" height="8" fill="#759ca7" opacity="0.5"/>
<rect x="1041.6" y="205.7" width="6" height="8" fill="#759ca7" opacity="0.5"/>
<rect x="1027.6" y="221.7" width="6" height="8" fill="#759ca7" opacity="0.5"/>
<rect x="1055.6" y="221.7" width="6" height="8" fill="#759ca7" opacity="0.5"/>
<rect x="1027.6" y="237.7" width="6" height="8" fill="#759ca7" opacity="0.5"/>
<rect x="1041.6" y="237.7" width="6" height="8" fill="#759ca7" opacity="0.5"/>
<rect x="1055.6" y="237.7" width="6" height="8" fill="#759ca7" opacity="0.5"/>
<rect x="1041.6" y="253.7" width="6" height="8" fill="#759ca7" opacity="0.5"/>
<line x1="287.3" y1="285.0" x2="287.3" y2="271.6" stroke="#6b5a42" stroke-width="3"/>
<circle cx="287.3" cy="254.5" r="17.1" fill="#517e43"/>
<line x1="566.2" y1="285.0" x2="566.2" y2="269.9" stroke="#6b5a42" stroke-width="3"/>
<circle cx="566.2" cy="257.1" r="12.8" fill="#548245"/>
<line x1="887.6" y1="285.0" x2="887.6" y2="270.6" stroke="#6b5a42" stroke-width="3"/>
<circle cx="887.6" cy="257.9" r="12.7" fill="#568647"/>
<line x1="470.0" y1="285.0" x2="470.0" y2="271.5" stroke="#6b5a42" stroke-width="3"/>
<circle cx="470.0" cy="253.6" r="18.0" fill="#507c42"/>
<line x1="789.8" y1="285.0" x2="789.8" y2="271.8" stroke="#6b5a42" stroke-width="3"/>
<circle cx="789.8" cy="257.5" r="14.3" fill="#548245"/>
<line x1="152.6" y1="285.0" x2="152.6" y2="272.4" stroke="#6b5a42" stroke-width="3"/>
<circle cx="152.6" cy="254.6" r="17.8" fill="#5a8c4a"/>
<line x1="459.0" y1="285.0" x2="459.0" y2="274.9" stroke="#6b5a42" stroke-width="3"/>
<circle cx="459.0" cy="258.1" r="16.8" fill="#598b49"/>
<rect x="0" y="285" width="1200" height="15" fill="#9aaa85" opacity="0.4"/>
</svg>