<svg xmlns="http://www.w3.org/2000/svg" viewBox="0 0 1200 400" width="1200" height="400">
<defs>
<linearGradient id="bg" x1="0" y1="0" x2="0" y2="1"><stop offset="0%" stop-color="#a16207"/><stop offset="100%" stop-color="#c2410c"/></linearGradient>
<linearGradient id="warm" x1="0" y1="0" x2="1" y2="1"><stop offset="0%" stop-color="#8a8e92" stop-opacity="0.18"/><stop offset="100%" stop-color="#8a8e92" stop-opacity="0.06"/></linearGradient>
</defs>
<rect width="1200" height="400" fill="url(#bg)"/>
<path d="M0 400 L0 236.1934628245159 C60.0 240.5, 90.0 248.0, 150.0 239.6 C210.0 246.4, 240.0 213.3, 300.0 221.3 C360.0 223.6, 390.0 233.0, 450.0 227.2 C510.0 230.9, 540.0 255.2, 600.0 252.1 C660.0 260.2, 690.0 221.6, 750.0 226.1 C810.0 231.7, 840.0 224.5, 900.0 231.5 C960.0 221.9, 990.0 241.8, 1050.0 248.0 C1110.0 249.9, 1140.0 252.3, 1200.0 254.9 L1200 400 Z" fill="#b64d0a" opacity="0.45"/>
<path d="M0 400 L0 278.44646322419715 C52.5 274.0, 97.5 277.4, 150.0 270.6 C202.5 273.7, 247.5 274.4, 300.0 281.4 C352.5 281.6, 397.5 278.7, 450.0 271.2 C502.5 277.2, 547.5 258.8, 600.0 262.4 C652.5 258.6, 697.5 263.6, 750.0 263.8 C802.5 265.7, 847.5 274.7, 900.0 278.5 C952.5 280.5, 997.5 259.8, 1050.0 265.5 C1102.5 271.0, 1147.5 253.0, 1200.0 257.4 L1200 400 Z" fill="#c2410c" opacity="0.3"/>
<rect x="399.7" y="365.5" width="13.5" height="34.5" rx="4.6" fill="#7f880d" opacity="0.59"/>
<rect x="184.5" y="290.7" width="24.5" height="109.3" rx="7.3" fill="#92730d" opacity="0.74"/>
<rect x="189.5" y="322.7" width="4" height="5" rx="0.5" fill="#a16207" opacity="0.6"/>
<rect x="189.5" y="344.7" width="4" height="5" rx="0.5" fill="#a16207" opacity="0.6"/>
<rect x="189.5" y="366.7" width="4" height="5" rx="0.5" fill="#a16207" opacity="0.6"/>
<rect x="733.9" y="285.9" width="28.6" height="114.1" rx="6.3" fill="#84830d" opacity="0.62"/>
<rect x="985.4" y="269.5" width="33.3" height="130.5" rx="7.8" fill="#9b6a0c" opacity="0.75"/>
<rect x="211.7" y="353.1" width="38.7" height="46.9" rx="5.0" fill="#67a10d" opacity="0.62"/>
<rect x="593.0" y="298.7" width="36.9" height="101.3" rx="7.4" fill="#85810d" opacity="0.84"/>
<rect x="610.3" y="308.7" width="4" height="5" rx="0.5" fill="#a16207" opacity="0.6"/>
<rect x="598.0" y="330.7" width="4" height="5" rx="0.5" fill="#a16207" opacity="0.6"/>
<rect x="598.0" y="374.7" width="4" height="5" rx="0.5" fill="#a16207" opacity="0.6"/>
<rect x="610.3" y="374.7" width="4" height="5" rx="0.5" fill="#a16207" opacity="0.6"/>
<rect x="354.6" y="320.6" width="27.2" height="79.4" rx="5.7" fill="#9a6b0c" opacity="0.53"/>
<rect x="1014.7" y="369.2" width="32.4" height="30.8" rx="4.7" fill="#6c9c0d" opacity="0.58"/>
<rect x="552.6" y="356.6" width="25.5" height="43.4" rx="5.1" fill="#877f0d" opacity="0.75"/>
<rect x="623.0" y="307.5" width="19.8" height="92.5" rx="3.1" fill="#8b7b0d" opacity="0.72"/>
<rect x="540.1" y="314.9" width="47.0" height="85.1" rx="3.6" fill="#76910d" opacity="0.71"/>
<rect x="264.7" y="315.7" width="37.8" height="84.3" rx="3.6" fill="#788f0d" opacity="0.79"/>
<rect x="626.2" y="275.4" width="14.4" height="124.6" rx="4.1" fill="#81860d" opacity="0.52"/>
<rect x="631.2" y="285.4" width="4" height="5" rx="0.5" fill="#a16207" opacity="0.6"/>
<polygon points="240.5,95.1 235.9,103.0 245.1,103.0" fill="#a16207" opacity="0.24"/>
<polygon points="540.4,107.1 533.3,119.4 547.5,119.4" fill="#a16207" opacity="0.19"/>
<polygon points="562.6,112.4 557.3,121.7 568.0,121.7" fill="#a16207" opacity="0.44"/>
<rect width="1200" height="400" fill="url(#warm)"/>
<rect width="1200" height="400" fill="#a16207" opacity="0.36"/>
</svg>