<svg xmlns="http://www.w3.org/2000/svg" viewBox="0 0 1200 400" width="1200" height="400">
<defs>
<linearGradient id="bg" x1="0" y1="0" x2="0" y2="1"><stop offset="0%" stop-color="#15803d"/><stop offset="100%" stop-color="#1d4ed8"/></linearGradient>
<linearGradient id="warm" x1="0" y1="0" x2="1" y2="1"><stop offset="0%" stop-color="#858d98" stop-opacity="0.18"/><stop offset="100%" stop-color="#858d98" stop-opacity="0.06"/></linearGradient>
</defs>
<rect width="1200" height="400" fill="url(#bg)"/>
<path d="M0 400 L0 230.49023282814798 C60.0 236.7, 90.0 238.9, 150.0 230.2 C210.0 240.0, 240.0 228.0, 300.0 232.9 C360.0 225.2, 390.0 225.4, 450.0 229.5 C510.0 239.4, 540.0 234.3, 600.0 242.2 C660.0 236.1, 690.0 250.6, 750.0 255.3 C810.0 261.4, 840.0 233.9, 900.0 225.6 C960.0 226.0, 990.0 246.2, 1050.0 237.1 C1110.0 230.4, 1140.0 247.0, 1200.0 247.5 L1200 400 Z" fill="#1a60a2" opacity="0.45"/>
<path d="M0 400 L0 275.46531966521206 C52.5 271.0, 97.5 266.9, 150.0 262.1 C202.5 267.2, 247.5 261.6, 300.0 267.9 C352.5 273.5, 397.5 268.8, 450.0 264.9 C502.5 258.8, 547.5 269.9, 600.0 265.5 C652.5 266.3, 697.5 261.9, 750.0 262.2 C802.5 258.8, 847.5 276.4, 900.0 271.1 C952.5 264.3, 997.5 271.8, 1050.0 268.6 C1102.5 266.9, 1147.5 278.8, 1200.0 276.7 L1200 400 Z" fill="#1d4ed8" opacity="0.3"/>
<rect x="187.7" y="285.0" width="15.1" height="115.0" rx="5.9" fill="#e2eaf7" opacity="0.54"/>
<rect x="802.1" y="305.7" width="18.9" height="94.3" rx="4.6" fill="#aec0ef" opacity="0.69"/>
<rect x="187.9" y="333.6" width="16.8" height="66.4" rx="3.7" fill="#c8d5f3" opacity="0.77"/>
<rect x="789.2" y="270.9" width="22.5" height="129.1" rx="4.5" fill="#ecf1f8" opacity="0.50"/>
<rect x="794.2" y="280.9" width="4" height="5" rx="0.5" fill="#15803d" opacity="0.6"/>
<rect x="794.2" y="302.9" width="4" height="5" rx="0.5" fill="#15803d" opacity="0.6"/>
<rect x="794.2" y="324.9" width="4" height="5" rx="0.5" fill="#15803d" opacity="0.6"/>
<rect x="794.2" y="346.9" width="4" height="5" rx="0.5" fill="#15803d" opacity="0.6"/>
<rect x="121.5" y="352.5" width="34.6" height="47.5" rx="7.5" fill="#dce4f6" opacity="0.83"/>
<rect x="735.0" y="353.4" width="44.8" height="46.6" rx="3.5" fill="#99afeb" opacity="0.58"/>
<rect x="392.0" y="272.2" width="39.0" height="127.8" rx="3.0" fill="#dae3f5" opacity="0.81"/>
<rect x="410.0" y="304.2" width="4" height="5" rx="0.5" fill="#15803d" opacity="0.6"/>
<rect x="397.0" y="326.2" width="4" height="5" rx="0.5" fill="#15803d" opacity="0.6"/>
<rect x="410.0" y="326.2" width="4" height="5" rx="0.5" fill="#15803d" opacity="0.6"/>
<rect x="410.0" y="348.2" width="4" height="5" rx="0.5" fill="#15803d" opacity="0.6"/>
<rect x="753.9" y="337.7" width="25.0" height="62.3" rx="6.2" fill="#a8bcee" opacity="0.60"/>
<rect x="196.3" y="323.9" width="40.0" height="76.1" rx="7.4" fill="#7593e6" opacity="0.78"/>
<rect x="358.6" y="344.0" width="31.6" height="56.0" rx="6.4" fill="#d0dbf4" opacity="0.68"/>
<rect x="162.2" y="291.4" width="48.7" height="108.6" rx="5.4" fill="#eff4f9" opacity="0.53"/>
<rect x="167.2" y="301.4" width="4" height="5" rx="0.5" fill="#15803d" opacity="0.6"/>
<rect x="167.2" y="323.4" width="4" height="5" rx="0.5" fill="#15803d" opacity="0.6"/>
<rect x="183.5" y="323.4" width="4" height="5" rx="0.5" fill="#15803d" opacity="0.6"/>
<rect x="183.5" y="345.4" width="4" height="5" rx="0.5" fill="#15803d" opacity="0.6"/>
<rect x="183.5" y="367.4" width="4" height="5" rx="0.5" fill="#15803d" opacity="0.6"/>
<rect x="441.5" y="294.3" width="24.0" height="105.7" rx="4.9" fill="#7a97e6" opacity="0.61"/>
<rect x="446.5" y="304.3" width="4" height="5" rx="0.5" fill="#15803d" opacity="0.6"/>
<rect x="446.5" y="326.3" width="4" height="5" rx="0.5" fill="#15803d" opacity="0.6"/>
<rect x="446.5" y="348.3" width="4" height="5" rx="0.5" fill="#15803d" opacity="0.6"/>
<rect x="260.6" y="353.2" width="26.9" height="46.8" rx="4.1" fill="#ced9f4" opacity="0.54"/>
<polygon points="166.7,11.6 161.5,20.7 172.0,20.7" fill="#f1f5f9" opacity="0.30"/>
<polygon points="537.0,175.7 532.8,182.8 541.1,182.8" fill="#15803d" opacity="0.26"/>
<rect width="1200" height="400" fill="url(#warm)"/>
<rect width="1200" height="400" fill="#15803d" opacity="0.40"/>
</svg>