<svg xmlns="http://www.w3.org/2000/svg" viewBox="0 0 1200 300" width="1200" height="300">
<rect width="1200" height="300" fill="#e4ede4"/>
<path d="M0 300 L0 210.0 C255.4 182.8, 833.6 188.6, 1200 210.0 L1200 300 Z" fill="#afc2b3" opacity="0.3"/>
<rect x="133.2" y="212.2" width="86.1" height="87.8" fill="#92ab97"/>
<rect x="597.6" y="177.6" width="75.5" height="122.4" fill="#92ab97"/>
<rect x="907.5" y="233.5" width="89.5" height="66.5" fill="#92ab97"/>
<rect x="190.6" y="212.9" width="48.3" height="87.1" fill="#608567"/>
<rect x="204.8" y="224.9" width="6" height="8" fill="#98b09c" opacity="0.5"/>
<rect x="218.8" y="224.9" width="6" height="8" fill="#98b09c" opacity="0.5"/>
<rect x="218.8" y="240.9" width="6" height="8" fill="#98b09c" opacity="0.5"/>
<rect x="204.8" y="256.9" width="6" height="8" fill="#98b09c" opacity="0.5"/>
<rect x="218.8" y="256.9" width="6" height="8" fill="#98b09c" opacity="0.5"/>
<rect x="204.8" y="272.9" width="6" height="8" fill="#98b09c" opacity="0.5"/>
<rect x="218.8" y="272.9" width="6" height="8" fill="#98b09c" opacity="0.5"/>
<rect x="415.7" y="151.1" width="43.8" height="148.9" fill="#608567"/>
<rect x="434.6" y="179.1" width="6" height="8" fill="#98b09c" opacity="0.5"/>
<rect x="434.6" y="195.1" width="6" height="8" fill="#98b09c" opacity="0.5"/>
<rect x="434.6" y="211.1" width="6" height="8" fill="#98b09c" opacity="0.5"/>
<rect x="434.6" y="243.1" width="6" height="8" fill="#98b09c" opacity="0.5"/>
<rect x="706.4" y="138.4" width="76.2" height="161.6" fill="#608567"/>
<rect x="720.5" y="150.4" width="6" height="8" fill="#98b09c" opacity="0.5"/>
<rect x="762.5" y="150.4" width="6" height="8" fill="#98b09c" opacity="0.5"/>
<rect x="734.5" y="166.4" width="6" height="8" fill="#98b09c" opacity="0.5"/>
<rect x="748.5" y="166.4" width="6" height="8" fill="#98b09c" opacity="0.5"/>
<rect x="762.5" y="166.4" width="6" height="8" fill="#98b09c" opacity="0.5"/>
<rect x="720.5" y="182.4" width="6" height="8" fill="#98b09c" opacity="0.5"/>
<rect x="734.5" y="182.4" width="6" height="8" fill="#98b09c" opacity="0.5"/>
<rect x="720.5" y="198.4" width="6" height="8" fill="#98b09c" opacity="0.5"/>
<rect x="762.5" y="198.4" width="6" height="8" fill="#98b09c" opacity="0.5"/>
<rect x="720.5" y="214.4" width="6" height="8" fill="#98b09c" opacity="0.5"/>
<rect x="734.5" y="214.4" width="6" height="8" fill="#98b09c" opacity="0.5"/>
<rect x="748.5" y="214.4" width="6" height="8" fill="#98b09c" opacity="0.5"/>
<rect x="762.5" y="214.4" width="6" height="8" fill="#98b09c" opacity="0.5"/>
<rect x="720.5" y="230.4" width="6" height="8" fill="#98b09c" opacity="0.5"/>
<rect x="762.5" y="230.4" width="6" height="8" fill="#98b09c" opacity="0.5"/>
<rect x="720.5" y="246.4" width="6" height="8" fill="#98b09c" opacity="0.5"/>
<rect x="734.5" y="246.4" width="6" height="8" fill="#98b09c" opacity="0.5"/>
<rect x="748.5" y="246.4" width="6" height="8" fill="#98b09c" opacity="0.5"/>
<rect x="762.5" y="246.4" width="6" height="8" fill="#98b09c" opacity="0.5"/>
<rect x="720.5" y="262.4" width="6" height="8" fill="#98b09c" opacity="0.5"/>
<rect x="762.5" y="262.4" width="6" height="8" fill="#98b09c" opacity="0.5"/>
<rect x="1004.2" y="152.9" width="42.4" height="147.1" fill="#608567"/>
<rect x="1022.4" y="180.9" width="6" height="8" fill="#98b09c" opacity="0.5"/>
<rect x="1022.4" y="196.9" width="6" height="8" fill="#98b09c" opacity="0.5"/>
<rect x="1022.4" y="228.9" width="6" height="8" fill="#98b09c" opacity="0.5"/>
<rect x="1022.4" y="260.9" width="6" height="8" fill="#98b09c" opacity="0.5"/>
<rect x="146.7" y="206.4" width="38.8" height="93.6" fill="#386641"/>
<rect x="163.1" y="234.4" width="6" height="8" fill="#7e9c84" opacity="0.5"/>
<rect x="163.1" y="250.4" width="6" height="8" fill="#7e9c84" opacity="0.5"/>
<rect x="163.1" y="266.4" width="6" height="8" fill="#7e9c84" opacity="0.5"/>
<rect x="409.3" y="170.1" width="44.9" height="129.9" fill="#386641"/>
<rect x="421.7" y="198.1" width="6" height="8" fill="#7e9c84" opacity="0.5"/>
<rect x="435.7" y="198.1" width="6" height="8" fill="#7e9c84" opacity="0.5"/>
<rect x="421.7" y="214.1" width="6" height="8" fill="#7e9c84" opacity="0.5"/>
<rect x="435.7" y="214.1" width="6" height="8" fill="#7e9c84" opacity="0.5"/>
<rect x="421.7" y="230.1" width="6" height="8" fill="#7e9c84" opacity="0.5"/>
<rect x="435.7" y="230.1" width="6" height="8" fill="#7e9c84" opacity="0.5"/>
<rect x="421.7" y="246.1" width="6" height="8" fill="#7e9c84" opacity="0.5"/>
<rect x="435.7" y="246.1" width="6" height="8" fill="#7e9c84" opacity="0.5"/>
<rect x="421.7" y="262.1" width="6" height="8" fill="#7e9c84" opacity="0.5"/>
<rect x="435.7" y="262.1" width="6" height="8" fill="#7e9c84" opacity="0.5"/>
<rect x="741.1" y="221.4" width="50.4" height="78.6" fill="#386641"/>
<rect x="756.4" y="233.4" width="6" height="8" fill="#7e9c84" opacity="0.5"/>
<rect x="770.4" y="233.4" width="6" height="8" fill="#7e9c84" opacity="0.5"/>
<rect x="756.4" y="249.4" width="6" height="8" fill="#7e9c84" opacity="0.5"/>
<rect x="770.4" y="249.4" width="6" height="8" fill="#7e9c84" opacity="0.5"/>
<rect x="756.4" y="265.4" width="6" height="8" fill="#7e9c84" opacity="0.5"/>
<rect x="770.4" y="265.4" width="6" height="8" fill="#7e9c84" opacity="0.5"/>
<rect x="1023.1" y="239.4" width="66.9" height="60.6" fill="#386641"/>
<rect x="1039.5" y="251.4" width="6" height="8" fill="#7e9c84" opacity="0.5"/>
<rect x="1053.5" y="251.4" width="6" height="8" fill="#7e9c84" opacity="0.5"/>
<rect x="1039.5" y="267.4" width="6" height="8" fill="#7e9c84" opacity="0.5"/>
<rect x="1053.5" y="267.4" width="6" height="8" fill="#7e9c84" opacity="0.5"/>
<rect x="1067.5" y="267.4" width="6" height="8" fill="#7e9c84" opacity="0.5"/>
<rect x="0" y="298" width="1200" height="2" fill="#325c3b" opacity="0.15"/>
</svg>