<svg xmlns="http://www.w3.org/2000/svg" viewBox="0 0 1200 400" width="1200" height="400">
<defs>
<linearGradient id="bg" x1="0" y1="0" x2="0" y2="1"><stop offset="0%" stop-color="#94a3b8"/><stop offset="100%" stop-color="#0369a1"/></linearGradient>
<linearGradient id="warm" x1="0" y1="0" x2="1" y2="1"><stop offset="0%" stop-color="#858d98" stop-opacity="0.18"/><stop offset="100%" stop-color="#858d98" stop-opacity="0.06"/></linearGradient>
</defs>
<rect width="1200" height="400" fill="url(#bg)"/>
<path d="M0 400 L0 238.84340909799272 C60.0 231.7, 90.0 232.0, 150.0 231.0 C210.0 235.4, 240.0 244.0, 300.0 249.8 C360.0 246.4, 390.0 239.1, 450.0 242.7 C510.0 238.2, 540.0 232.9, 600.0 232.5 C660.0 242.4, 690.0 255.7, 750.0 250.7 C810.0 253.9, 840.0 231.3, 900.0 226.7 C960.0 230.4, 990.0 230.9, 1050.0 237.4 C1110.0 246.0, 1140.0 250.9, 1200.0 254.5 L1200 400 Z" fill="#367da9" opacity="0.45"/>
<path d="M0 400 L0 261.71751758008634 C52.5 266.4, 97.5 259.1, 150.0 261.8 C202.5 267.9, 247.5 271.2, 300.0 267.6 C352.5 266.7, 397.5 261.5, 450.0 261.6 C502.5 266.8, 547.5 259.7, 600.0 266.4 C652.5 265.0, 697.5 270.7, 750.0 265.6 C802.5 266.9, 847.5 282.2, 900.0 279.6 C952.5 274.6, 997.5 273.2, 1050.0 269.6 C1102.5 273.8, 1147.5 268.9, 1200.0 264.5 L1200 400 Z" fill="#0369a1" opacity="0.3"/>
<rect x="1055.9" y="322.4" width="45.0" height="77.6" rx="4.9" fill="#048084" opacity="0.60"/>
<rect x="262.6" y="347.9" width="48.5" height="52.1" rx="6.8" fill="#058b76" opacity="0.64"/>
<rect x="672.9" y="307.6" width="32.5" height="92.4" rx="7.2" fill="#048184" opacity="0.68"/>
<rect x="677.9" y="317.6" width="4" height="5" rx="0.5" fill="#94a3b8" opacity="0.6"/>
<rect x="677.9" y="361.6" width="4" height="5" rx="0.5" fill="#94a3b8" opacity="0.6"/>
<rect x="312.7" y="312.1" width="13.1" height="87.9" rx="3.6" fill="#048b77" opacity="0.68"/>
<rect x="317.7" y="344.1" width="4" height="5" rx="0.5" fill="#94a3b8" opacity="0.6"/>
<rect x="317.7" y="366.1" width="4" height="5" rx="0.5" fill="#94a3b8" opacity="0.6"/>
<rect x="318.1" y="313.3" width="37.0" height="86.7" rx="3.3" fill="#059669" opacity="0.66"/>
<rect x="323.1" y="323.3" width="4" height="5" rx="0.5" fill="#94a3b8" opacity="0.6"/>
<rect x="335.4" y="323.3" width="4" height="5" rx="0.5" fill="#94a3b8" opacity="0.6"/>
<rect x="802.3" y="335.9" width="22.8" height="64.1" rx="8.0" fill="#048183" opacity="0.82"/>
<rect x="354.8" y="338.4" width="17.5" height="61.6" rx="3.8" fill="#047f86" opacity="0.59"/>
<rect x="566.3" y="276.5" width="46.9" height="123.5" rx="5.7" fill="#05956a" opacity="0.73"/>
<rect x="571.3" y="286.5" width="4" height="5" rx="0.5" fill="#94a3b8" opacity="0.6"/>
<rect x="571.3" y="330.5" width="4" height="5" rx="0.5" fill="#94a3b8" opacity="0.6"/>
<rect x="586.9" y="352.5" width="4" height="5" rx="0.5" fill="#94a3b8" opacity="0.6"/>
<rect x="199.5" y="293.0" width="37.3" height="107.0" rx="6.1" fill="#058f71" opacity="0.59"/>
<rect x="1069.1" y="318.5" width="47.9" height="81.5" rx="5.7" fill="#048282" opacity="0.78"/>
<rect x="1090.0" y="328.5" width="4" height="5" rx="0.5" fill="#94a3b8" opacity="0.6"/>
<rect x="1074.1" y="350.5" width="4" height="5" rx="0.5" fill="#94a3b8" opacity="0.6"/>
<rect x="1074.1" y="372.5" width="4" height="5" rx="0.5" fill="#94a3b8" opacity="0.6"/>
<rect x="1090.0" y="372.5" width="4" height="5" rx="0.5" fill="#94a3b8" opacity="0.6"/>
<rect x="1059.3" y="370.5" width="45.6" height="29.5" rx="3.3" fill="#048085" opacity="0.74"/>
<rect x="907.2" y="339.2" width="49.0" height="60.8" rx="5.0" fill="#048480" opacity="0.75"/>
<rect x="640.9" y="366.7" width="37.1" height="33.3" rx="4.5" fill="#04887b" opacity="0.53"/>
<circle cx="1195.2" cy="123.4" r="11.5" fill="#059669" opacity="0.42"/>
<circle cx="525.0" cy="160.4" r="10.8" fill="#94a3b8" opacity="0.19"/>
<circle cx="1180.1" cy="141.2" r="6.5" fill="#94a3b8" opacity="0.32"/>
<rect width="1200" height="400" fill="url(#warm)"/>
<rect width="1200" height="400" fill="#94a3b8" opacity="0.40"/>
</svg>