<svg xmlns="http://www.w3.org/2000/svg" viewBox="0 0 1200 300" width="1200" height="300">
<rect width="1200" height="300" fill="#e0eff2"/>
<path d="M0 300 L0 210.0 C365.3 182.1, 919.3 193.9, 1200 210.0 L1200 300 Z" fill="#aac2c9" opacity="0.3"/>
<rect x="102.2" y="211.7" width="79.9" height="88.3" fill="#8aabb4"/>
<rect x="384.6" y="204.2" width="85.1" height="95.8" fill="#8aabb4"/>
<rect x="680.1" y="218.7" width="75.8" height="81.3" fill="#8aabb4"/>
<rect x="980.2" y="206.2" width="56.0" height="93.8" fill="#8aabb4"/>
<rect x="153.7" y="164.1" width="79.7" height="135.9" fill="#558592"/>
<rect x="183.6" y="176.1" width="6" height="8" fill="#91b0b8" opacity="0.5"/>
<rect x="197.6" y="176.1" width="6" height="8" fill="#91b0b8" opacity="0.5"/>
<rect x="211.6" y="176.1" width="6" height="8" fill="#91b0b8" opacity="0.5"/>
<rect x="169.6" y="192.1" width="6" height="8" fill="#91b0b8" opacity="0.5"/>
<rect x="197.6" y="192.1" width="6" height="8" fill="#91b0b8" opacity="0.5"/>
<rect x="211.6" y="192.1" width="6" height="8" fill="#91b0b8" opacity="0.5"/>
<rect x="169.6" y="208.1" width="6" height="8" fill="#91b0b8" opacity="0.5"/>
<rect x="183.6" y="208.1" width="6" height="8" fill="#91b0b8" opacity="0.5"/>
<rect x="197.6" y="208.1" width="6" height="8" fill="#91b0b8" opacity="0.5"/>
<rect x="211.6" y="208.1" width="6" height="8" fill="#91b0b8" opacity="0.5"/>
<rect x="169.6" y="224.1" width="6" height="8" fill="#91b0b8" opacity="0.5"/>
<rect x="183.6" y="224.1" width="6" height="8" fill="#91b0b8" opacity="0.5"/>
<rect x="197.6" y="224.1" width="6" height="8" fill="#91b0b8" opacity="0.5"/>
<rect x="211.6" y="224.1" width="6" height="8" fill="#91b0b8" opacity="0.5"/>
<rect x="197.6" y="240.1" width="6" height="8" fill="#91b0b8" opacity="0.5"/>
<rect x="211.6" y="240.1" width="6" height="8" fill="#91b0b8" opacity="0.5"/>
<rect x="169.6" y="256.1" width="6" height="8" fill="#91b0b8" opacity="0.5"/>
<rect x="183.6" y="256.1" width="6" height="8" fill="#91b0b8" opacity="0.5"/>
<rect x="197.6" y="256.1" width="6" height="8" fill="#91b0b8" opacity="0.5"/>
<rect x="211.6" y="256.1" width="6" height="8" fill="#91b0b8" opacity="0.5"/>
<rect x="169.6" y="272.1" width="6" height="8" fill="#91b0b8" opacity="0.5"/>
<rect x="183.6" y="272.1" width="6" height="8" fill="#91b0b8" opacity="0.5"/>
<rect x="197.6" y="272.1" width="6" height="8" fill="#91b0b8" opacity="0.5"/>
<rect x="211.6" y="272.1" width="6" height="8" fill="#91b0b8" opacity="0.5"/>
<rect x="439.3" y="206.4" width="68.0" height="93.6" fill="#558592"/>
<rect x="456.3" y="218.4" width="6" height="8" fill="#91b0b8" opacity="0.5"/>
<rect x="470.3" y="218.4" width="6" height="8" fill="#91b0b8" opacity="0.5"/>
<rect x="470.3" y="234.4" width="6" height="8" fill="#91b0b8" opacity="0.5"/>
<rect x="470.3" y="250.4" width="6" height="8" fill="#91b0b8" opacity="0.5"/>
<rect x="470.3" y="266.4" width="6" height="8" fill="#91b0b8" opacity="0.5"/>
<rect x="484.3" y="266.4" width="6" height="8" fill="#91b0b8" opacity="0.5"/>
<rect x="688.3" y="213.2" width="77.0" height="86.8" fill="#558592"/>
<rect x="702.8" y="225.2" width="6" height="8" fill="#91b0b8" opacity="0.5"/>
<rect x="730.8" y="225.2" width="6" height="8" fill="#91b0b8" opacity="0.5"/>
<rect x="744.8" y="225.2" width="6" height="8" fill="#91b0b8" opacity="0.5"/>
<rect x="702.8" y="241.2" width="6" height="8" fill="#91b0b8" opacity="0.5"/>
<rect x="716.8" y="241.2" width="6" height="8" fill="#91b0b8" opacity="0.5"/>
<rect x="716.8" y="257.2" width="6" height="8" fill="#91b0b8" opacity="0.5"/>
<rect x="730.8" y="257.2" width="6" height="8" fill="#91b0b8" opacity="0.5"/>
<rect x="744.8" y="257.2" width="6" height="8" fill="#91b0b8" opacity="0.5"/>
<rect x="702.8" y="273.2" width="6" height="8" fill="#91b0b8" opacity="0.5"/>
<rect x="730.8" y="273.2" width="6" height="8" fill="#91b0b8" opacity="0.5"/>
<rect x="744.8" y="273.2" width="6" height="8" fill="#91b0b8" opacity="0.5"/>
<rect x="998.6" y="206.8" width="43.2" height="93.2" fill="#558592"/>
<rect x="1017.2" y="234.8" width="6" height="8" fill="#91b0b8" opacity="0.5"/>
<rect x="1017.2" y="250.8" width="6" height="8" fill="#91b0b8" opacity="0.5"/>
<rect x="1017.2" y="266.8" width="6" height="8" fill="#91b0b8" opacity="0.5"/>
<rect x="135.1" y="120.1" width="46.6" height="179.9" fill="#2b6777"/>
<rect x="148.4" y="132.1" width="6" height="8" fill="#759ca7" opacity="0.5"/>
<rect x="162.4" y="132.1" width="6" height="8" fill="#759ca7" opacity="0.5"/>
<rect x="148.4" y="148.1" width="6" height="8" fill="#759ca7" opacity="0.5"/>
<rect x="148.4" y="164.1" width="6" height="8" fill="#759ca7" opacity="0.5"/>
<rect x="162.4" y="180.1" width="6" height="8" fill="#759ca7" opacity="0.5"/>
<rect x="148.4" y="196.1" width="6" height="8" fill="#759ca7" opacity="0.5"/>
<rect x="162.4" y="196.1" width="6" height="8" fill="#759ca7" opacity="0.5"/>
<rect x="148.4" y="212.1" width="6" height="8" fill="#759ca7" opacity="0.5"/>
<rect x="162.4" y="212.1" width="6" height="8" fill="#759ca7" opacity="0.5"/>
<rect x="148.4" y="228.1" width="6" height="8" fill="#759ca7" opacity="0.5"/>
<rect x="148.4" y="244.1" width="6" height="8" fill="#759ca7" opacity="0.5"/>
<rect x="162.4" y="244.1" width="6" height="8" fill="#759ca7" opacity="0.5"/>
<rect x="148.4" y="260.1" width="6" height="8" fill="#759ca7" opacity="0.5"/>
<rect x="413.3" y="132.9" width="52.3" height="167.1" fill="#2b6777"/>
<rect x="429.5" y="144.9" width="6" height="8" fill="#759ca7" opacity="0.5"/>
<rect x="429.5" y="160.9" width="6" height="8" fill="#759ca7" opacity="0.5"/>
<rect x="443.5" y="160.9" width="6" height="8" fill="#759ca7" opacity="0.5"/>
<rect x="443.5" y="176.9" width="6" height="8" fill="#759ca7" opacity="0.5"/>
<rect x="429.5" y="192.9" width="6" height="8" fill="#759ca7" opacity="0.5"/>
<rect x="443.5" y="192.9" width="6" height="8" fill="#759ca7" opacity="0.5"/>
<rect x="443.5" y="208.9" width="6" height="8" fill="#759ca7" opacity="0.5"/>
<rect x="429.5" y="224.9" width="6" height="8" fill="#759ca7" opacity="0.5"/>
<rect x="443.5" y="224.9" width="6" height="8" fill="#759ca7" opacity="0.5"/>
<rect x="429.5" y="240.9" width="6" height="8" fill="#759ca7" opacity="0.5"/>
<rect x="443.5" y="240.9" width="6" height="8" fill="#759ca7" opacity="0.5"/>
<rect x="429.5" y="256.9" width="6" height="8" fill="#759ca7" opacity="0.5"/>
<rect x="443.5" y="256.9" width="6" height="8" fill="#759ca7" opacity="0.5"/>
<rect x="429.5" y="272.9" width="6" height="8" fill="#759ca7" opacity="0.5"/>
<rect x="443.5" y="272.9" width="6" height="8" fill="#759ca7" opacity="0.5"/>
<rect x="755.1" y="143.4" width="44.4" height="156.6" fill="#2b6777"/>
<rect x="767.4" y="155.4" width="6" height="8" fill="#759ca7" opacity="0.5"/>
<rect x="781.4" y="155.4" width="6" height="8" fill="#759ca7" opacity="0.5"/>
<rect x="767.4" y="171.4" width="6" height="8" fill="#759ca7" opacity="0.5"/>
<rect x="781.4" y="171.4" width="6" height="8" fill="#759ca7" opacity="0.5"/>
<rect x="767.4" y="187.4" width="6" height="8" fill="#759ca7" opacity="0.5"/>
<rect x="767.4" y="203.4" width="6" height="8" fill="#759ca7" opacity="0.5"/>
<rect x="781.4" y="203.4" width="6" height="8" fill="#759ca7" opacity="0.5"/>
<rect x="767.4" y="219.4" width="6" height="8" fill="#759ca7" opacity="0.5"/>
<rect x="767.4" y="235.4" width="6" height="8" fill="#759ca7" opacity="0.5"/>
<rect x="767.4" y="251.4" width="6" height="8" fill="#759ca7" opacity="0.5"/>
<rect x="781.4" y="251.4" width="6" height="8" fill="#759ca7" opacity="0.5"/>
<rect x="767.4" y="267.4" width="6" height="8" fill="#759ca7" opacity="0.5"/>
<rect x="781.4" y="267.4" width="6" height="8" fill="#759ca7" opacity="0.5"/>
<rect x="1002.0" y="127.1" width="49.9" height="172.9" fill="#2b6777"/>
<rect x="1017.0" y="139.1" width="6" height="8" fill="#759ca7" opacity="0.5"/>
<rect x="1031.0" y="139.1" width="6" height="8" fill="#759ca7" opacity="0.5"/>
<rect x="1017.0" y="155.1" width="6" height="8" fill="#759ca7" opacity="0.5"/>
<rect x="1031.0" y="155.1" width="6" height="8" fill="#759ca7" opacity="0.5"/>
<rect x="1017.0" y="171.1" width="6" height="8" fill="#759ca7" opacity="0.5"/>
<rect x="1017.0" y="187.1" width="6" height="8" fill="#759ca7" opacity="0.5"/>
<rect x="1031.0" y="187.1" width="6" height="8" fill="#759ca7" opacity="0.5"/>
<rect x="1017.0" y="203.1" width="6" height="8" fill="#759ca7" opacity="0.5"/>
<rect x="1017.0" y="219.1" width="6" height="8" fill="#759ca7" opacity="0.5"/>
<rect x="1031.0" y="219.1" width="6" height="8" fill="#759ca7" opacity="0.5"/>
<rect x="1017.0" y="235.1" width="6" height="8" fill="#759ca7" opacity="0.5"/>
<rect x="1031.0" y="235.1" width="6" height="8" fill="#759ca7" opacity="0.5"/>
<rect x="1017.0" y="251.1" width="6" height="8" fill="#759ca7" opacity="0.5"/>
<rect x="1031.0" y="251.1" width="6" height="8" fill="#759ca7" opacity="0.5"/>
<rect x="1017.0" y="267.1" width="6" height="8" fill="#759ca7" opacity="0.5"/>
<rect x="1031.0" y="267.1" width="6" height="8" fill="#759ca7" opacity="0.5"/>
<rect x="0" y="298" width="1200" height="2" fill="#275d6b" opacity="0.15"/>
</svg>