<svg xmlns="http://www.w3.org/2000/svg" viewBox="0 0 1200 300" width="1200" height="300">
<defs>
<linearGradient id="skyGrad" x1="0" y1="0" x2="0" y2="1">
<stop offset="0%" stop-color="#818cf8"/>
<stop offset="20%" stop-color="#c4b5fd"/>
<stop offset="38%" stop-color="#fda4af"/>
<stop offset="55%" stop-color="#fdba74"/>
<stop offset="75%" stop-color="#fef08a"/>
<stop offset="100%" stop-color="#fef9c3"/>
</linearGradient>
<linearGradient id="bldg_coral" x1="0" y1="0" x2="0" y2="1"><stop offset="0%" stop-color="#fecaca"/><stop offset="100%" stop-color="#fca5a5"/></linearGradient>
<linearGradient id="bldg_teal" x1="0" y1="0" x2="0" y2="1"><stop offset="0%" stop-color="#99f6e4"/><stop offset="100%" stop-color="#5eead4"/></linearGradient>
<linearGradient id="bldg_amber" x1="0" y1="0" x2="0" y2="1"><stop offset="0%" stop-color="#fde68a"/><stop offset="100%" stop-color="#fcd34d"/></linearGradient>
<linearGradient id="bldg_lavender" x1="0" y1="0" x2="0" y2="1"><stop offset="0%" stop-color="#ddd6fe"/><stop offset="100%" stop-color="#c4b5fd"/></linearGradient>
<linearGradient id="bldg_blue" x1="0" y1="0" x2="0" y2="1"><stop offset="0%" stop-color="#bfdbfe"/><stop offset="100%" stop-color="#93c5fd"/></linearGradient>
<linearGradient id="bldg_mint" x1="0" y1="0" x2="0" y2="1"><stop offset="0%" stop-color="#a7f3d0"/><stop offset="100%" stop-color="#6ee7b7"/></linearGradient>
<linearGradient id="bldg_rose" x1="0" y1="0" x2="0" y2="1"><stop offset="0%" stop-color="#fecdd3"/><stop offset="100%" stop-color="#fda4af"/></linearGradient>
<linearGradient id="bldg_sky" x1="0" y1="0" x2="0" y2="1"><stop offset="0%" stop-color="#bae6fd"/><stop offset="100%" stop-color="#7dd3fc"/></linearGradient>
<linearGradient id="roof_navyRoof" x1="0" y1="0" x2="0" y2="1"><stop offset="0%" stop-color="#4338ca"/><stop offset="100%" stop-color="#3730a3"/></linearGradient>
<linearGradient id="roof_coralRoof" x1="0" y1="0" x2="0" y2="1"><stop offset="0%" stop-color="#f87171"/><stop offset="100%" stop-color="#ef4444"/></linearGradient>
<linearGradient id="roof_tealRoof" x1="0" y1="0" x2="0" y2="1"><stop offset="0%" stop-color="#2dd4bf"/><stop offset="100%" stop-color="#14b8a6"/></linearGradient>
<radialGradient id="windowGlow" cx="50%" cy="50%" r="50%"><stop offset="0%" stop-color="#fef08a"/><stop offset="60%" stop-color="#fbbf24"/><stop offset="100%" stop-color="#f59e0b"/></radialGradient>
<linearGradient id="hillFar" x1="0" y1="0" x2="0" y2="1"><stop offset="0%" stop-color="#c4b5fd"/><stop offset="100%" stop-color="#a5b4fc"/></linearGradient>
<linearGradient id="hillMid" x1="0" y1="0" x2="0" y2="1"><stop offset="0%" stop-color="#86efac"/><stop offset="100%" stop-color="#4ade80"/></linearGradient>
<linearGradient id="hillNear" x1="0" y1="0" x2="0" y2="1"><stop offset="0%" stop-color="#34d399"/><stop offset="100%" stop-color="#10b981"/></linearGradient>
<linearGradient id="hillDesertFar" x1="0" y1="0" x2="0" y2="1"><stop offset="0%" stop-color="#fde68a"/><stop offset="100%" stop-color="#fcd34d"/></linearGradient>
<linearGradient id="hillDesertMid" x1="0" y1="0" x2="0" y2="1"><stop offset="0%" stop-color="#fcd34d"/><stop offset="100%" stop-color="#fbbf24"/></linearGradient>
<linearGradient id="hillDesertNear" x1="0" y1="0" x2="0" y2="1"><stop offset="0%" stop-color="#fbbf24"/><stop offset="100%" stop-color="#f59e0b"/></linearGradient>
<linearGradient id="groundGrad" x1="0" y1="0" x2="0" y2="1"><stop offset="0%" stop-color="#fef3c7"/><stop offset="100%" stop-color="#fde68a"/></linearGradient>
<linearGradient id="waterGrad" x1="0" y1="0" x2="0" y2="1"><stop offset="0%" stop-color="#bfdbfe"/><stop offset="100%" stop-color="#93c5fd"/></linearGradient>
<filter id="softGlow" x="-50%" y="-50%" width="200%" height="200%"><feGaussianBlur in="SourceGraphic" stdDeviation="12"/></filter>
</defs>
<rect width="1200" height="300" fill="url(#skyGrad)"/>
<circle cx="984.7" cy="42.3" r="45" fill="#fef08a" opacity="0.12" filter="url(#softGlow)"/>
<circle cx="984.7" cy="42.3" r="30" fill="#fde68a" opacity="0.18" filter="url(#softGlow)"/>
<circle cx="984.7" cy="42.3" r="16" fill="#fef9c3" opacity="0.25" filter="url(#softGlow)"/>
<ellipse cx="677.3" cy="28.9" rx="31.5" ry="11.0" fill="white" opacity="0.6"/>
<ellipse cx="657.6" cy="32.1" rx="22.0" ry="8.7" fill="white" opacity="0.6"/>
<ellipse cx="694.6" cy="31.3" rx="25.2" ry="9.4" fill="white" opacity="0.5"/>
<ellipse cx="539.4" cy="50.5" rx="41.1" ry="14.4" fill="white" opacity="0.4"/>
<ellipse cx="513.7" cy="54.6" rx="28.8" ry="11.3" fill="white" opacity="0.4"/>
<ellipse cx="562.0" cy="53.6" rx="32.9" ry="12.3" fill="white" opacity="0.4"/>
<ellipse cx="807.3" cy="25.7" rx="35.7" ry="12.5" fill="white" opacity="0.5"/>
<ellipse cx="785.0" cy="29.2" rx="25.0" ry="9.8" fill="white" opacity="0.5"/>
<ellipse cx="827.0" cy="28.3" rx="28.6" ry="10.7" fill="white" opacity="0.4"/>
<path d="M0 300 L0.0 187.2 C187.0 187.2, 187.0 182.5, 374.0 182.5 C499.0 182.5, 499.0 182.7, 624.0 182.7 C775.9 182.7, 775.9 191.5, 927.8 191.5 C1063.9 191.5, 1063.9 184.2, 1200.0 184.2 L1200 300 Z" fill="url(#hillFar)" opacity="0.5"/>
<path d="M0 300 L0.0 215.8 C168.2 215.8, 168.2 210.2, 336.5 210.2 C535.6 210.2, 535.6 210.8, 734.7 210.8 C967.3 210.8, 967.3 216.0, 1200.0 216.0 L1200 300 Z" fill="url(#hillMid)" opacity="0.7"/>
<path d="M0 300 L0.0 232.5 C107.4 232.5, 107.4 231.3, 214.7 231.3 C336.6 231.3, 336.6 230.5, 458.5 230.5 C603.5 230.5, 603.5 234.3, 748.5 234.3 C853.9 234.3, 853.9 231.0, 959.3 231.0 C1079.6 231.0, 1079.6 240.0, 1200.0 240.0 L1200 300 Z" fill="url(#hillNear)" opacity="1"/>
<rect x="193.5" y="209.8" width="82.8" height="90.2" rx="3" fill="url(#bldg_blue)" opacity="0.7"/>
<polygon points="193.5,209.8 234.9,186.3 276.3,209.8" fill="url(#roof_navyRoof)" opacity="0.7"/>
<rect x="210.9" y="219.8" width="6" height="8" rx="1" fill="url(#windowGlow)" opacity="0.7349483399814685"/>
<rect x="224.9" y="219.8" width="6" height="8" rx="1" fill="url(#windowGlow)" opacity="0.8576206627104528"/>
<rect x="238.9" y="219.8" width="6" height="8" rx="1" fill="url(#windowGlow)" opacity="0.7125621524697924"/>
<rect x="252.9" y="219.8" width="6" height="8" rx="1" fill="url(#windowGlow)" opacity="0.8966833517871253"/>
<rect x="210.9" y="234.8" width="6" height="8" rx="1" fill="url(#windowGlow)" opacity="0.865581965057916"/>
<rect x="224.9" y="234.8" width="6" height="8" rx="1" fill="url(#windowGlow)" opacity="0.7180349705824791"/>
<rect x="252.9" y="234.8" width="6" height="8" rx="1" fill="url(#windowGlow)" opacity="0.9092831779780253"/>
<rect x="210.9" y="249.8" width="6" height="8" rx="1" fill="url(#windowGlow)" opacity="0.8355364392677026"/>
<rect x="238.9" y="249.8" width="6" height="8" rx="1" fill="url(#windowGlow)" opacity="0.8048467809822628"/>
<rect x="595.9" y="203.8" width="52.5" height="96.2" rx="3" fill="url(#bldg_mint)" opacity="0.7"/>
<polygon points="595.9,203.8 622.1,190.6 648.3,203.8" fill="url(#roof_coralRoof)" opacity="0.7"/>
<rect x="612.1" y="213.8" width="6" height="8" rx="1" fill="url(#windowGlow)" opacity="0.9987068913870989"/>
<rect x="626.1" y="213.8" width="6" height="8" rx="1" fill="url(#windowGlow)" opacity="0.9720916188192048"/>
<rect x="626.1" y="228.8" width="6" height="8" rx="1" fill="url(#windowGlow)" opacity="0.7733736680230934"/>
<rect x="626.1" y="243.8" width="6" height="8" rx="1" fill="url(#windowGlow)" opacity="0.7789128634049151"/>
<rect x="612.1" y="258.8" width="6" height="8" rx="1" fill="url(#windowGlow)" opacity="0.9701828437718483"/>
<rect x="626.1" y="258.8" width="6" height="8" rx="1" fill="url(#windowGlow)" opacity="0.8623869681090055"/>
<rect x="967.3" y="220.8" width="80.8" height="79.2" rx="3" fill="url(#bldg_rose)" opacity="0.7"/>
<polygon points="967.3,220.8 1007.7,196.6 1048.1,220.8" fill="url(#roof_tealRoof)" opacity="0.7"/>
<rect x="983.7" y="230.8" width="6" height="8" rx="1" fill="url(#windowGlow)" opacity="0.879884748104906"/>
<rect x="1011.7" y="230.8" width="6" height="8" rx="1" fill="url(#windowGlow)" opacity="0.7741272790702652"/>
<rect x="1025.7" y="230.8" width="6" height="8" rx="1" fill="url(#windowGlow)" opacity="0.7935488083835452"/>
<rect x="983.7" y="245.8" width="6" height="8" rx="1" fill="url(#windowGlow)" opacity="0.9352489498608042"/>
<rect x="997.7" y="245.8" width="6" height="8" rx="1" fill="url(#windowGlow)" opacity="0.9232975073267228"/>
<rect x="1025.7" y="245.8" width="6" height="8" rx="1" fill="url(#windowGlow)" opacity="0.7753643439036627"/>
<rect x="983.7" y="260.8" width="6" height="8" rx="1" fill="url(#windowGlow)" opacity="0.7755369499211837"/>
<rect x="997.7" y="260.8" width="6" height="8" rx="1" fill="url(#windowGlow)" opacity="0.8508324927887099"/>
<rect x="1011.7" y="260.8" width="6" height="8" rx="1" fill="url(#windowGlow)" opacity="0.8598903497959908"/>
<rect x="1025.7" y="260.8" width="6" height="8" rx="1" fill="url(#windowGlow)" opacity="0.940505772615087"/>
<rect x="132.5" y="171.6" width="79.0" height="128.4" rx="3" fill="url(#bldg_sky)" opacity="0.85"/>
<rect x="132.5" y="168.6" width="79.0" height="3" rx="1" fill="url(#roof_navyRoof)" opacity="0.85"/>
<rect x="148.0" y="181.6" width="6" height="8" rx="1" fill="url(#windowGlow)" opacity="0.9652203937364836"/>
<rect x="162.0" y="181.6" width="6" height="8" rx="1" fill="url(#windowGlow)" opacity="0.7669329761839159"/>
<rect x="176.0" y="181.6" width="6" height="8" rx="1" fill="url(#windowGlow)" opacity="0.841738167657395"/>
<rect x="190.0" y="181.6" width="6" height="8" rx="1" fill="url(#windowGlow)" opacity="0.7029596743187679"/>
<rect x="148.0" y="196.6" width="6" height="8" rx="1" fill="url(#windowGlow)" opacity="0.7178617373192039"/>
<rect x="162.0" y="196.6" width="6" height="8" rx="1" fill="url(#windowGlow)" opacity="0.9021296467641972"/>
<rect x="176.0" y="196.6" width="6" height="8" rx="1" fill="url(#windowGlow)" opacity="0.7921548216101503"/>
<rect x="190.0" y="196.6" width="6" height="8" rx="1" fill="url(#windowGlow)" opacity="0.8194164478776121"/>
<rect x="148.0" y="211.6" width="6" height="8" rx="1" fill="url(#windowGlow)" opacity="0.9173063528804604"/>
<rect x="162.0" y="211.6" width="6" height="8" rx="1" fill="url(#windowGlow)" opacity="0.7139859846858242"/>
<rect x="176.0" y="211.6" width="6" height="8" rx="1" fill="url(#windowGlow)" opacity="0.7927940512508126"/>
<rect x="190.0" y="211.6" width="6" height="8" rx="1" fill="url(#windowGlow)" opacity="0.7218405594219642"/>
<rect x="148.0" y="226.6" width="6" height="8" rx="1" fill="url(#windowGlow)" opacity="0.8542276867452205"/>
<rect x="162.0" y="226.6" width="6" height="8" rx="1" fill="url(#windowGlow)" opacity="0.9673301000461587"/>
<rect x="176.0" y="226.6" width="6" height="8" rx="1" fill="url(#windowGlow)" opacity="0.831247027838252"/>
<rect x="190.0" y="226.6" width="6" height="8" rx="1" fill="url(#windowGlow)" opacity="0.9604055779336046"/>
<rect x="162.0" y="241.6" width="6" height="8" rx="1" fill="url(#windowGlow)" opacity="0.995036262644006"/>
<rect x="176.0" y="241.6" width="6" height="8" rx="1" fill="url(#windowGlow)" opacity="0.8161463068873371"/>
<rect x="190.0" y="241.6" width="6" height="8" rx="1" fill="url(#windowGlow)" opacity="0.9570097321444235"/>
<rect x="148.0" y="256.6" width="6" height="8" rx="1" fill="url(#windowGlow)" opacity="0.9541487776460817"/>
<rect x="162.0" y="256.6" width="6" height="8" rx="1" fill="url(#windowGlow)" opacity="0.8547303571620631"/>
<rect x="176.0" y="256.6" width="6" height="8" rx="1" fill="url(#windowGlow)" opacity="0.8332404820403272"/>
<rect x="466.2" y="218.8" width="51.9" height="81.2" rx="3" fill="url(#bldg_coral)" opacity="0.85"/>
<rect x="466.2" y="215.8" width="51.9" height="3" rx="1" fill="url(#roof_coralRoof)" opacity="0.85"/>
<rect x="482.2" y="228.8" width="6" height="8" rx="1" fill="url(#windowGlow)" opacity="0.8299971100548269"/>
<rect x="496.2" y="228.8" width="6" height="8" rx="1" fill="url(#windowGlow)" opacity="0.8584691323146545"/>
<rect x="482.2" y="243.8" width="6" height="8" rx="1" fill="url(#windowGlow)" opacity="0.8658186088156973"/>
<rect x="496.2" y="243.8" width="6" height="8" rx="1" fill="url(#windowGlow)" opacity="0.8569009994887286"/>
<rect x="482.2" y="258.8" width="6" height="8" rx="1" fill="url(#windowGlow)" opacity="0.7237062685302021"/>
<rect x="496.2" y="258.8" width="6" height="8" rx="1" fill="url(#windowGlow)" opacity="0.8008013132497673"/>
<rect x="735.3" y="205.2" width="45.9" height="94.8" rx="3" fill="url(#bldg_teal)" opacity="0.85"/>
<rect x="735.3" y="202.2" width="45.9" height="3" rx="1" fill="url(#roof_tealRoof)" opacity="0.85"/>
<rect x="748.3" y="215.2" width="6" height="8" rx="1" fill="url(#windowGlow)" opacity="0.8438649417571094"/>
<rect x="748.3" y="230.2" width="6" height="8" rx="1" fill="url(#windowGlow)" opacity="0.9910428512799753"/>
<rect x="762.3" y="230.2" width="6" height="8" rx="1" fill="url(#windowGlow)" opacity="0.8298416348313175"/>
<rect x="748.3" y="245.2" width="6" height="8" rx="1" fill="url(#windowGlow)" opacity="0.9215399900085944"/>
<rect x="762.3" y="245.2" width="6" height="8" rx="1" fill="url(#windowGlow)" opacity="0.9803022154515153"/>
<rect x="748.3" y="260.2" width="6" height="8" rx="1" fill="url(#windowGlow)" opacity="0.8005845009352008"/>
<path d="M739.9 238.4 L758.3 238.4 L755.3 244.4 L742.9 244.4 Z" fill="url(#roof_coralRoof)" opacity="0.68"/>
<rect x="995.1" y="187.9" width="55.5" height="112.1" rx="3" fill="url(#bldg_amber)" opacity="0.85"/>
<rect x="1006.2" y="174.5" width="33.3" height="13.4" rx="2" fill="url(#roof_navyRoof)" opacity="0.85"/>
<rect x="1012.8" y="197.9" width="6" height="8" rx="1" fill="url(#windowGlow)" opacity="0.9558908332865177"/>
<rect x="1026.8" y="197.9" width="6" height="8" rx="1" fill="url(#windowGlow)" opacity="0.7563524971512856"/>
<rect x="1012.8" y="212.9" width="6" height="8" rx="1" fill="url(#windowGlow)" opacity="0.8481570655704276"/>
<rect x="1026.8" y="212.9" width="6" height="8" rx="1" fill="url(#windowGlow)" opacity="0.8682004751023839"/>
<rect x="1012.8" y="227.9" width="6" height="8" rx="1" fill="url(#windowGlow)" opacity="0.803122839333081"/>
<rect x="1026.8" y="227.9" width="6" height="8" rx="1" fill="url(#windowGlow)" opacity="0.9461836777376866"/>
<rect x="1012.8" y="257.9" width="6" height="8" rx="1" fill="url(#windowGlow)" opacity="0.744820756905163"/>
<rect x="1026.8" y="257.9" width="6" height="8" rx="1" fill="url(#windowGlow)" opacity="0.8044304084053404"/>
<path d="M1022.8 227.2 L1045.0 227.2 L1042.0 233.2 L1025.8 233.2 Z" fill="url(#roof_tealRoof)" opacity="0.68"/>
<rect x="229.8" y="146.1" width="58.0" height="153.9" rx="3" fill="url(#bldg_lavender)" opacity="1"/>
<polygon points="229.8,146.1 258.8,131.5 287.9,146.1" fill="url(#roof_coralRoof)" opacity="1"/>
<rect x="241.8" y="156.1" width="6" height="8" rx="1" fill="url(#windowGlow)" opacity="0.9512929880764768"/>
<rect x="255.8" y="156.1" width="6" height="8" rx="1" fill="url(#windowGlow)" opacity="0.7550753049343243"/>
<rect x="269.8" y="156.1" width="6" height="8" rx="1" fill="url(#windowGlow)" opacity="0.8531988605173298"/>
<rect x="241.8" y="171.1" width="6" height="8" rx="1" fill="url(#windowGlow)" opacity="0.8374210892419428"/>
<rect x="255.8" y="171.1" width="6" height="8" rx="1" fill="url(#windowGlow)" opacity="0.7389732931456404"/>
<rect x="269.8" y="171.1" width="6" height="8" rx="1" fill="url(#windowGlow)" opacity="0.8736957583919613"/>
<rect x="241.8" y="186.1" width="6" height="8" rx="1" fill="url(#windowGlow)" opacity="0.8921380813662605"/>
<rect x="255.8" y="186.1" width="6" height="8" rx="1" fill="url(#windowGlow)" opacity="0.8094049790917919"/>
<rect x="269.8" y="186.1" width="6" height="8" rx="1" fill="url(#windowGlow)" opacity="0.9776137934893434"/>
<rect x="241.8" y="201.1" width="6" height="8" rx="1" fill="url(#windowGlow)" opacity="0.9503533378943583"/>
<rect x="269.8" y="201.1" width="6" height="8" rx="1" fill="url(#windowGlow)" opacity="0.9503496740247819"/>
<rect x="241.8" y="216.1" width="6" height="8" rx="1" fill="url(#windowGlow)" opacity="0.9784053123921179"/>
<rect x="255.8" y="231.1" width="6" height="8" rx="1" fill="url(#windowGlow)" opacity="0.8507182675649962"/>
<rect x="269.8" y="231.1" width="6" height="8" rx="1" fill="url(#windowGlow)" opacity="0.8732053818522045"/>
<rect x="255.8" y="246.1" width="6" height="8" rx="1" fill="url(#windowGlow)" opacity="0.8319396851267384"/>
<rect x="269.8" y="246.1" width="6" height="8" rx="1" fill="url(#windowGlow)" opacity="0.9558216885923508"/>
<rect x="253.8" y="284.0" width="10" height="16" rx="2" fill="url(#roof_navyRoof)" opacity="0.8"/>
<rect x="255.8" y="287.0" width="6" height="10" rx="1" fill="url(#windowGlow)" opacity="0.45"/>
<path d="M258.8 199.9 L282.1 199.9 L279.1 205.9 L261.8 205.9 Z" fill="url(#roof_navyRoof)" opacity="0.8"/>
<rect x="601.5" y="179.6" width="55.6" height="120.4" rx="3" fill="url(#bldg_blue)" opacity="1"/>
<rect x="612.6" y="165.1" width="33.3" height="14.5" rx="2" fill="url(#roof_tealRoof)" opacity="1"/>
<rect x="619.3" y="189.6" width="6" height="8" rx="1" fill="url(#windowGlow)" opacity="0.731616177517742"/>
<rect x="619.3" y="204.6" width="6" height="8" rx="1" fill="url(#windowGlow)" opacity="0.9159277777727357"/>
<rect x="633.3" y="204.6" width="6" height="8" rx="1" fill="url(#windowGlow)" opacity="0.9161994243581776"/>
<rect x="619.3" y="219.6" width="6" height="8" rx="1" fill="url(#windowGlow)" opacity="0.8963050277420808"/>
<rect x="633.3" y="219.6" width="6" height="8" rx="1" fill="url(#windowGlow)" opacity="0.9790281952261124"/>
<rect x="633.3" y="234.6" width="6" height="8" rx="1" fill="url(#windowGlow)" opacity="0.7433311182276024"/>
<rect x="619.3" y="249.6" width="6" height="8" rx="1" fill="url(#windowGlow)" opacity="0.9045267841799774"/>
<rect x="633.3" y="249.6" width="6" height="8" rx="1" fill="url(#windowGlow)" opacity="0.90762995053438"/>
<rect x="624.3" y="284.0" width="10" height="16" rx="2" fill="url(#roof_navyRoof)" opacity="0.8"/>
<rect x="626.3" y="287.0" width="6" height="10" rx="1" fill="url(#windowGlow)" opacity="0.45"/>
<path d="M629.3 221.7 L651.5 221.7 L648.5 227.7 L632.3 227.7 Z" fill="url(#roof_coralRoof)" opacity="0.8"/>
<rect x="910.3" y="215.1" width="45.7" height="84.9" rx="3" fill="url(#bldg_mint)" opacity="1"/>
<rect x="919.4" y="204.9" width="27.4" height="10.2" rx="2" fill="url(#roof_navyRoof)" opacity="1"/>
<rect x="923.1" y="225.1" width="6" height="8" rx="1" fill="url(#windowGlow)" opacity="0.7002387361602106"/>
<rect x="937.1" y="240.1" width="6" height="8" rx="1" fill="url(#windowGlow)" opacity="0.9497350276679428"/>
<rect x="923.1" y="255.1" width="6" height="8" rx="1" fill="url(#windowGlow)" opacity="0.7786036978841776"/>
<rect x="937.1" y="255.1" width="6" height="8" rx="1" fill="url(#windowGlow)" opacity="0.749529053107616"/>
<rect x="928.1" y="284.0" width="10" height="16" rx="2" fill="url(#roof_navyRoof)" opacity="0.8"/>
<rect x="930.1" y="287.0" width="6" height="10" rx="1" fill="url(#windowGlow)" opacity="0.45"/>
<rect x="441.7" y="266.2" width="6" height="18.8" rx="2" fill="#15803d"/>
<circle cx="444.7" cy="253.3" r="16.9" fill="#22c55e" opacity="0.9"/>
<circle cx="437.5" cy="256.3" r="12.7" fill="#16a34a" opacity="0.8"/>
<circle cx="451.0" cy="257.3" r="11.8" fill="#15803d" opacity="0.7"/>
<rect x="780.7" y="265.9" width="6" height="19.1" rx="2" fill="#15803d"/>
<circle cx="783.7" cy="253.4" r="16.6" fill="#22c55e" opacity="0.9"/>
<circle cx="775.6" cy="256.4" r="12.4" fill="#16a34a" opacity="0.8"/>
<circle cx="789.7" cy="257.4" r="11.6" fill="#15803d" opacity="0.7"/>
<rect x="198.0" y="264.1" width="6" height="20.9" rx="2" fill="#15803d"/>
<circle cx="201.0" cy="251.6" r="16.6" fill="#22c55e" opacity="0.9"/>
<circle cx="194.6" cy="254.6" r="12.4" fill="#16a34a" opacity="0.8"/>
<circle cx="207.2" cy="255.6" r="11.6" fill="#15803d" opacity="0.7"/>
<rect x="994.4" y="267.3" width="6" height="17.7" rx="2" fill="#15803d"/>
<circle cx="997.4" cy="254.1" r="17.2" fill="#22c55e" opacity="0.9"/>
<circle cx="990.0" cy="257.1" r="12.9" fill="#16a34a" opacity="0.8"/>
<circle cx="1005.4" cy="258.1" r="12.0" fill="#15803d" opacity="0.7"/>
<rect x="245.7" y="266.7" width="6" height="18.3" rx="2" fill="#15803d"/>
<circle cx="248.7" cy="254.9" r="15.8" fill="#22c55e" opacity="0.9"/>
<circle cx="240.4" cy="257.9" r="11.8" fill="#16a34a" opacity="0.8"/>
<circle cx="254.7" cy="258.9" r="11.1" fill="#15803d" opacity="0.7"/>
<rect x="266.2" y="265.8" width="6" height="19.2" rx="2" fill="#15803d"/>
<circle cx="269.2" cy="255.5" r="14.4" fill="#22c55e" opacity="0.9"/>
<circle cx="261.0" cy="258.5" r="10.8" fill="#16a34a" opacity="0.8"/>
<circle cx="275.2" cy="259.5" r="10.1" fill="#15803d" opacity="0.7"/>
<rect x="680.5" y="263.2" width="6" height="21.8" rx="2" fill="#15803d"/>
<circle cx="683.5" cy="253.1" r="14.0" fill="#22c55e" opacity="0.9"/>
<circle cx="675.0" cy="256.1" r="10.5" fill="#16a34a" opacity="0.8"/>
<circle cx="689.9" cy="257.1" r="9.8" fill="#15803d" opacity="0.7"/>
<rect x="187.7" y="263.3" width="6" height="21.7" rx="2" fill="#15803d"/>
<circle cx="190.7" cy="253.1" r="14.2" fill="#22c55e" opacity="0.9"/>
<circle cx="182.9" cy="256.1" r="10.7" fill="#16a34a" opacity="0.8"/>
<circle cx="198.0" cy="257.1" r="9.9" fill="#15803d" opacity="0.7"/>
<rect x="0" y="282" width="1200" height="18" fill="url(#groundGrad)"/>
<line x1="916.0" y1="282.0" x2="916.0" y2="242.7" stroke="#92400e" stroke-width="2"/>
<circle cx="916.0" cy="242.7" r="4" fill="#fef08a" opacity="0.6"/>
<circle cx="916.0" cy="242.7" r="8" fill="#fef08a" opacity="0.15" filter="url(#softGlow)"/>
<line x1="1020.0" y1="282.0" x2="1020.0" y2="248.1" stroke="#92400e" stroke-width="2"/>
<circle cx="1020.0" cy="248.1" r="4" fill="#fef08a" opacity="0.6"/>
<circle cx="1020.0" cy="248.1" r="8" fill="#fef08a" opacity="0.15" filter="url(#softGlow)"/>
<ellipse cx="274.8" cy="282.0" rx="4.4" ry="3.1" fill="#22c55e" opacity="0.6"/>
<ellipse cx="321.9" cy="282.0" rx="5.6" ry="3.9" fill="#22c55e" opacity="0.6"/>
</svg>