<svg xmlns="http://www.w3.org/2000/svg" viewBox="0 0 1200 300" width="1200" height="300">
<defs><linearGradient id="skyGrad" x1="0" y1="0" x2="0" y2="1"><stop offset="0%" stop-color="#e8f0f8"/><stop offset="100%" stop-color="#f5e6d8"/></linearGradient></defs><rect width="1200" height="300" fill="url(#skyGrad)"/>
<path d="M0 300 L0 198.7 C338.9 188.1, 936.7 191.0, 1200 198.7 L1200 300 Z" fill="#e4c4a8" opacity="0.25"/>
<rect x="163.2" y="209.8" width="67.6" height="90.2" fill="#daae87"/>
<rect x="436.9" y="231.6" width="79.6" height="68.4" fill="#daae87"/>
<rect x="450.9" y="219.6" width="51.7" height="12.1" fill="#cfa580"/>
<rect x="736.9" y="219.2" width="54.8" height="80.8" fill="#daae87"/>
<polygon points="736.9,219.2 764.3,205.5 791.7,219.2" fill="#c9a07c"/>
<rect x="1026.1" y="232.2" width="82.4" height="67.8" fill="#daae87"/>
<rect x="1040.5" y="220.2" width="53.6" height="12.0" fill="#cfa580"/>
<rect x="130.9" y="183.5" width="46.4" height="116.5" fill="#c98951"/>
<rect x="144.1" y="195.5" width="6" height="8" fill="#dcb28e" opacity="0.5"/>
<rect x="144.1" y="211.5" width="6" height="8" fill="#dcb28e" opacity="0.5"/>
<rect x="158.1" y="211.5" width="6" height="8" fill="#dcb28e" opacity="0.5"/>
<rect x="144.1" y="227.5" width="6" height="8" fill="#dcb28e" opacity="0.5"/>
<rect x="158.1" y="227.5" width="6" height="8" fill="#dcb28e" opacity="0.5"/>
<rect x="144.1" y="243.5" width="6" height="8" fill="#dcb28e" opacity="0.5"/>
<rect x="158.1" y="259.5" width="6" height="8" fill="#dcb28e" opacity="0.5"/>
<rect x="378.7" y="201.1" width="53.5" height="98.9" fill="#c98951"/>
<rect x="395.5" y="213.1" width="6" height="8" fill="#dcb28e" opacity="0.5"/>
<rect x="409.5" y="213.1" width="6" height="8" fill="#dcb28e" opacity="0.5"/>
<rect x="395.5" y="229.1" width="6" height="8" fill="#dcb28e" opacity="0.5"/>
<rect x="395.5" y="245.1" width="6" height="8" fill="#dcb28e" opacity="0.5"/>
<rect x="409.5" y="245.1" width="6" height="8" fill="#dcb28e" opacity="0.5"/>
<rect x="395.5" y="261.1" width="6" height="8" fill="#dcb28e" opacity="0.5"/>
<rect x="567.5" y="163.6" width="46.6" height="136.4" fill="#c98951"/>
<rect x="580.8" y="175.6" width="6" height="8" fill="#dcb28e" opacity="0.5"/>
<rect x="580.8" y="191.6" width="6" height="8" fill="#dcb28e" opacity="0.5"/>
<rect x="580.8" y="207.6" width="6" height="8" fill="#dcb28e" opacity="0.5"/>
<rect x="580.8" y="223.6" width="6" height="8" fill="#dcb28e" opacity="0.5"/>
<rect x="580.8" y="239.6" width="6" height="8" fill="#dcb28e" opacity="0.5"/>
<rect x="594.8" y="255.6" width="6" height="8" fill="#dcb28e" opacity="0.5"/>
<rect x="775.8" y="214.4" width="51.8" height="85.6" fill="#c98951"/>
<rect x="784.9" y="199.3" width="33.6" height="15.1" fill="#bf824d"/>
<rect x="791.7" y="211.3" width="6" height="8" fill="#dcb28e" opacity="0.5"/>
<rect x="791.7" y="227.3" width="6" height="8" fill="#dcb28e" opacity="0.5"/>
<rect x="805.7" y="227.3" width="6" height="8" fill="#dcb28e" opacity="0.5"/>
<rect x="791.7" y="243.3" width="6" height="8" fill="#dcb28e" opacity="0.5"/>
<rect x="791.7" y="259.3" width="6" height="8" fill="#dcb28e" opacity="0.5"/>
<rect x="805.7" y="259.3" width="6" height="8" fill="#dcb28e" opacity="0.5"/>
<rect x="1008.4" y="210.7" width="60.6" height="89.3" fill="#c98951"/>
<rect x="1019.0" y="195.0" width="39.4" height="15.8" fill="#bf824d"/>
<rect x="1035.7" y="207.0" width="6" height="8" fill="#dcb28e" opacity="0.5"/>
<rect x="1049.7" y="207.0" width="6" height="8" fill="#dcb28e" opacity="0.5"/>
<rect x="1021.7" y="223.0" width="6" height="8" fill="#dcb28e" opacity="0.5"/>
<rect x="1035.7" y="223.0" width="6" height="8" fill="#dcb28e" opacity="0.5"/>
<rect x="1049.7" y="223.0" width="6" height="8" fill="#dcb28e" opacity="0.5"/>
<rect x="1021.7" y="239.0" width="6" height="8" fill="#dcb28e" opacity="0.5"/>
<rect x="1035.7" y="239.0" width="6" height="8" fill="#dcb28e" opacity="0.5"/>
<rect x="1049.7" y="239.0" width="6" height="8" fill="#dcb28e" opacity="0.5"/>
<rect x="1021.7" y="255.0" width="6" height="8" fill="#dcb28e" opacity="0.5"/>
<rect x="1035.7" y="255.0" width="6" height="8" fill="#dcb28e" opacity="0.5"/>
<rect x="1049.7" y="255.0" width="6" height="8" fill="#dcb28e" opacity="0.5"/>
<rect x="1021.7" y="271.0" width="6" height="8" fill="#dcb28e" opacity="0.5"/>
<rect x="1035.7" y="271.0" width="6" height="8" fill="#dcb28e" opacity="0.5"/>
<rect x="1049.7" y="271.0" width="6" height="8" fill="#dcb28e" opacity="0.5"/>
<rect x="146.7" y="219.5" width="59.7" height="80.5" fill="#bc6c25"/>
<polygon points="146.7,219.5 176.6,204.6 206.4,219.5" fill="#ad6322"/>
<rect x="159.6" y="231.5" width="6" height="8" fill="#d39f71" opacity="0.5"/>
<rect x="187.6" y="231.5" width="6" height="8" fill="#d39f71" opacity="0.5"/>
<rect x="159.6" y="247.5" width="6" height="8" fill="#d39f71" opacity="0.5"/>
<rect x="173.6" y="247.5" width="6" height="8" fill="#d39f71" opacity="0.5"/>
<rect x="187.6" y="247.5" width="6" height="8" fill="#d39f71" opacity="0.5"/>
<rect x="397.5" y="219.2" width="61.2" height="80.8" fill="#bc6c25"/>
<rect x="425.1" y="231.2" width="6" height="8" fill="#d39f71" opacity="0.5"/>
<rect x="411.1" y="247.2" width="6" height="8" fill="#d39f71" opacity="0.5"/>
<rect x="425.1" y="247.2" width="6" height="8" fill="#d39f71" opacity="0.5"/>
<rect x="439.1" y="247.2" width="6" height="8" fill="#d39f71" opacity="0.5"/>
<rect x="411.1" y="263.2" width="6" height="8" fill="#d39f71" opacity="0.5"/>
<rect x="439.1" y="263.2" width="6" height="8" fill="#d39f71" opacity="0.5"/>
<rect x="697.0" y="140.1" width="65.6" height="159.9" fill="#bc6c25"/>
<polygon points="697.0,140.1 729.8,123.7 762.6,140.1" fill="#ad6322"/>
<rect x="726.8" y="152.1" width="6" height="8" fill="#d39f71" opacity="0.5"/>
<rect x="712.8" y="168.1" width="6" height="8" fill="#d39f71" opacity="0.5"/>
<rect x="726.8" y="168.1" width="6" height="8" fill="#d39f71" opacity="0.5"/>
<rect x="740.8" y="168.1" width="6" height="8" fill="#d39f71" opacity="0.5"/>
<rect x="712.8" y="184.1" width="6" height="8" fill="#d39f71" opacity="0.5"/>
<rect x="726.8" y="184.1" width="6" height="8" fill="#d39f71" opacity="0.5"/>
<rect x="712.8" y="200.1" width="6" height="8" fill="#d39f71" opacity="0.5"/>
<rect x="726.8" y="200.1" width="6" height="8" fill="#d39f71" opacity="0.5"/>
<rect x="740.8" y="200.1" width="6" height="8" fill="#d39f71" opacity="0.5"/>
<rect x="712.8" y="216.1" width="6" height="8" fill="#d39f71" opacity="0.5"/>
<rect x="726.8" y="216.1" width="6" height="8" fill="#d39f71" opacity="0.5"/>
<rect x="740.8" y="216.1" width="6" height="8" fill="#d39f71" opacity="0.5"/>
<rect x="712.8" y="232.1" width="6" height="8" fill="#d39f71" opacity="0.5"/>
<rect x="726.8" y="232.1" width="6" height="8" fill="#d39f71" opacity="0.5"/>
<rect x="978.6" y="188.3" width="45.9" height="111.7" fill="#bc6c25"/>
<rect x="986.6" y="168.5" width="29.8" height="19.7" fill="#b36723"/>
<rect x="991.5" y="180.5" width="6" height="8" fill="#d39f71" opacity="0.5"/>
<rect x="1005.5" y="180.5" width="6" height="8" fill="#d39f71" opacity="0.5"/>
<rect x="1005.5" y="196.5" width="6" height="8" fill="#d39f71" opacity="0.5"/>
<rect x="991.5" y="212.5" width="6" height="8" fill="#d39f71" opacity="0.5"/>
<rect x="1005.5" y="212.5" width="6" height="8" fill="#d39f71" opacity="0.5"/>
<rect x="1005.5" y="228.5" width="6" height="8" fill="#d39f71" opacity="0.5"/>
<rect x="1005.5" y="244.5" width="6" height="8" fill="#d39f71" opacity="0.5"/>
<rect x="991.5" y="260.5" width="6" height="8" fill="#d39f71" opacity="0.5"/>
<rect x="1005.5" y="260.5" width="6" height="8" fill="#d39f71" opacity="0.5"/>
<line x1="301.9" y1="285.0" x2="301.9" y2="272.7" stroke="#6b5a42" stroke-width="3"/>
<circle cx="301.9" cy="258.1" r="14.7" fill="#558446"/>
<line x1="577.9" y1="285.0" x2="577.9" y2="272.2" stroke="#6b5a42" stroke-width="3"/>
<circle cx="577.9" cy="257.7" r="14.5" fill="#538245"/>
<line x1="870.6" y1="285.0" x2="870.6" y2="274.3" stroke="#6b5a42" stroke-width="3"/>
<circle cx="870.6" cy="257.6" r="16.7" fill="#528044"/>
<line x1="467.4" y1="285.0" x2="467.4" y2="274.5" stroke="#6b5a42" stroke-width="3"/>
<circle cx="467.4" cy="261.1" r="13.5" fill="#598a49"/>
<line x1="133.1" y1="285.0" x2="133.1" y2="274.1" stroke="#6b5a42" stroke-width="3"/>
<circle cx="133.1" cy="261.3" r="12.8" fill="#568647"/>
<line x1="461.0" y1="285.0" x2="461.0" y2="272.6" stroke="#6b5a42" stroke-width="3"/>
<circle cx="461.0" cy="255.7" r="17.0" fill="#598b49"/>
<rect x="0" y="285" width="1200" height="15" fill="#9aaa85" opacity="0.4"/>
<circle cx="1012.2" cy="41.7" r="35.2" fill="#f5e6a0" opacity="0.1"/>
</svg>