<svg xmlns="http://www.w3.org/2000/svg" viewBox="0 0 1200 300" width="1200" height="300">
<defs>
<linearGradient id="skyGrad" x1="0" y1="0" x2="0" y2="1">
<stop offset="0%" stop-color="#a78bfa"/>
<stop offset="18%" stop-color="#ddb4f0"/>
<stop offset="35%" stop-color="#fda4af"/>
<stop offset="52%" stop-color="#fdba74"/>
<stop offset="72%" stop-color="#fef08a"/>
<stop offset="100%" stop-color="#fef9c3"/>
</linearGradient>
<linearGradient id="bldg_coral" x1="0" y1="0" x2="0" y2="1"><stop offset="0%" stop-color="#fecaca"/><stop offset="100%" stop-color="#fca5a5"/></linearGradient>
<linearGradient id="bldg_teal" x1="0" y1="0" x2="0" y2="1"><stop offset="0%" stop-color="#99f6e4"/><stop offset="100%" stop-color="#5eead4"/></linearGradient>
<linearGradient id="bldg_amber" x1="0" y1="0" x2="0" y2="1"><stop offset="0%" stop-color="#fde68a"/><stop offset="100%" stop-color="#fcd34d"/></linearGradient>
<linearGradient id="bldg_lavender" x1="0" y1="0" x2="0" y2="1"><stop offset="0%" stop-color="#ddd6fe"/><stop offset="100%" stop-color="#c4b5fd"/></linearGradient>
<linearGradient id="bldg_blue" x1="0" y1="0" x2="0" y2="1"><stop offset="0%" stop-color="#bfdbfe"/><stop offset="100%" stop-color="#93c5fd"/></linearGradient>
<linearGradient id="bldg_mint" x1="0" y1="0" x2="0" y2="1"><stop offset="0%" stop-color="#a7f3d0"/><stop offset="100%" stop-color="#6ee7b7"/></linearGradient>
<linearGradient id="bldg_rose" x1="0" y1="0" x2="0" y2="1"><stop offset="0%" stop-color="#fecdd3"/><stop offset="100%" stop-color="#fda4af"/></linearGradient>
<linearGradient id="bldg_sky" x1="0" y1="0" x2="0" y2="1"><stop offset="0%" stop-color="#bae6fd"/><stop offset="100%" stop-color="#7dd3fc"/></linearGradient>
<linearGradient id="roof_navyRoof" x1="0" y1="0" x2="0" y2="1"><stop offset="0%" stop-color="#4338ca"/><stop offset="100%" stop-color="#3730a3"/></linearGradient>
<linearGradient id="roof_coralRoof" x1="0" y1="0" x2="0" y2="1"><stop offset="0%" stop-color="#f87171"/><stop offset="100%" stop-color="#ef4444"/></linearGradient>
<linearGradient id="roof_tealRoof" x1="0" y1="0" x2="0" y2="1"><stop offset="0%" stop-color="#2dd4bf"/><stop offset="100%" stop-color="#14b8a6"/></linearGradient>
<radialGradient id="windowGlow" cx="50%" cy="50%" r="50%"><stop offset="0%" stop-color="#fef08a"/><stop offset="60%" stop-color="#fbbf24"/><stop offset="100%" stop-color="#f59e0b"/></radialGradient>
<linearGradient id="hillFar" x1="0" y1="0" x2="0" y2="1"><stop offset="0%" stop-color="#c4b5fd"/><stop offset="100%" stop-color="#a5b4fc"/></linearGradient>
<linearGradient id="hillMid" x1="0" y1="0" x2="0" y2="1"><stop offset="0%" stop-color="#86efac"/><stop offset="100%" stop-color="#4ade80"/></linearGradient>
<linearGradient id="hillNear" x1="0" y1="0" x2="0" y2="1"><stop offset="0%" stop-color="#34d399"/><stop offset="100%" stop-color="#10b981"/></linearGradient>
<linearGradient id="hillDesertFar" x1="0" y1="0" x2="0" y2="1"><stop offset="0%" stop-color="#fde68a"/><stop offset="100%" stop-color="#fcd34d"/></linearGradient>
<linearGradient id="hillDesertMid" x1="0" y1="0" x2="0" y2="1"><stop offset="0%" stop-color="#fcd34d"/><stop offset="100%" stop-color="#fbbf24"/></linearGradient>
<linearGradient id="hillDesertNear" x1="0" y1="0" x2="0" y2="1"><stop offset="0%" stop-color="#fbbf24"/><stop offset="100%" stop-color="#f59e0b"/></linearGradient>
<linearGradient id="groundGrad" x1="0" y1="0" x2="0" y2="1"><stop offset="0%" stop-color="#fef3c7"/><stop offset="100%" stop-color="#fde68a"/></linearGradient>
<linearGradient id="waterGrad" x1="0" y1="0" x2="0" y2="1"><stop offset="0%" stop-color="#bfdbfe"/><stop offset="100%" stop-color="#93c5fd"/></linearGradient>
<filter id="softGlow" x="-50%" y="-50%" width="200%" height="200%"><feGaussianBlur in="SourceGraphic" stdDeviation="12"/></filter>
</defs>
<rect width="1200" height="300" fill="url(#skyGrad)"/>
<circle cx="944.7" cy="49.2" r="45" fill="#fef08a" opacity="0.12" filter="url(#softGlow)"/>
<circle cx="944.7" cy="49.2" r="30" fill="#fde68a" opacity="0.18" filter="url(#softGlow)"/>
<circle cx="944.7" cy="49.2" r="16" fill="#fef9c3" opacity="0.25" filter="url(#softGlow)"/>
<path d="M0 300 L0.0 184.7 C129.6 184.7, 129.6 183.3, 259.1 183.3 C433.5 183.3, 433.5 181.9, 607.9 181.9 C751.3 181.9, 751.3 181.8, 894.7 181.8 C1047.3 181.8, 1047.3 187.9, 1200.0 187.9 L1200 300 Z" fill="url(#hillFar)" opacity="0.5"/>
<path d="M0 300 L0.0 213.0 C225.5 213.0, 225.5 211.3, 451.0 211.3 C660.4 211.3, 660.4 203.2, 869.7 203.2 C1034.8 203.2, 1034.8 216.3, 1200.0 216.3 L1200 300 Z" fill="url(#hillMid)" opacity="0.7"/>
<path d="M0 300 L0.0 230.9 C145.4 230.9, 145.4 234.6, 290.8 234.6 C482.1 234.6, 482.1 236.0, 673.5 236.0 C768.5 236.0, 768.5 234.9, 863.5 234.9 C1031.8 234.9, 1031.8 233.4, 1200.0 233.4 L1200 300 Z" fill="url(#hillNear)" opacity="1"/>
<rect x="179.1" y="215.3" width="50.2" height="84.7" rx="3" fill="url(#bldg_mint)" opacity="0.7"/>
<polygon points="179.1,215.3 204.2,203.1 229.3,215.3" fill="url(#roof_tealRoof)" opacity="0.7"/>
<rect x="194.2" y="225.3" width="6" height="8" rx="1" fill="url(#windowGlow)" opacity="0.9759504426624395"/>
<rect x="208.2" y="225.3" width="6" height="8" rx="1" fill="url(#windowGlow)" opacity="0.8597066334261124"/>
<rect x="194.2" y="240.3" width="6" height="8" rx="1" fill="url(#windowGlow)" opacity="0.7085219130891011"/>
<rect x="208.2" y="240.3" width="6" height="8" rx="1" fill="url(#windowGlow)" opacity="0.8337509845074969"/>
<rect x="194.2" y="255.3" width="6" height="8" rx="1" fill="url(#windowGlow)" opacity="0.7209218575716586"/>
<rect x="208.2" y="255.3" width="6" height="8" rx="1" fill="url(#windowGlow)" opacity="0.9455878245856556"/>
<rect x="554.0" y="210.4" width="56.1" height="89.6" rx="3" fill="url(#bldg_rose)" opacity="0.7"/>
<polygon points="554.0,210.4 582.1,193.6 610.2,210.4" fill="url(#roof_navyRoof)" opacity="0.7"/>
<rect x="586.1" y="220.4" width="6" height="8" rx="1" fill="url(#windowGlow)" opacity="0.7923953636514001"/>
<rect x="572.1" y="235.4" width="6" height="8" rx="1" fill="url(#windowGlow)" opacity="0.7114226040949219"/>
<rect x="586.1" y="235.4" width="6" height="8" rx="1" fill="url(#windowGlow)" opacity="0.7726585124491986"/>
<rect x="586.1" y="250.4" width="6" height="8" rx="1" fill="url(#windowGlow)" opacity="0.8277838316409774"/>
<rect x="912.1" y="208.5" width="69.6" height="91.5" rx="3" fill="url(#bldg_sky)" opacity="0.7"/>
<polygon points="912.1,208.5 946.9,193.2 981.8,208.5" fill="url(#roof_coralRoof)" opacity="0.7"/>
<rect x="929.9" y="218.5" width="6" height="8" rx="1" fill="url(#windowGlow)" opacity="0.8313594559819248"/>
<rect x="943.9" y="218.5" width="6" height="8" rx="1" fill="url(#windowGlow)" opacity="0.7591495101615551"/>
<rect x="957.9" y="218.5" width="6" height="8" rx="1" fill="url(#windowGlow)" opacity="0.8809415184803966"/>
<rect x="929.9" y="233.5" width="6" height="8" rx="1" fill="url(#windowGlow)" opacity="0.710976144955948"/>
<rect x="943.9" y="233.5" width="6" height="8" rx="1" fill="url(#windowGlow)" opacity="0.9176749146625748"/>
<rect x="957.9" y="233.5" width="6" height="8" rx="1" fill="url(#windowGlow)" opacity="0.9186517329973409"/>
<rect x="929.9" y="248.5" width="6" height="8" rx="1" fill="url(#windowGlow)" opacity="0.8489879567869882"/>
<rect x="943.9" y="248.5" width="6" height="8" rx="1" fill="url(#windowGlow)" opacity="0.8141723811226768"/>
<rect x="957.9" y="248.5" width="6" height="8" rx="1" fill="url(#windowGlow)" opacity="0.8795371982173701"/>
<rect x="177.3" y="172.9" width="46.2" height="127.1" rx="3" fill="url(#bldg_coral)" opacity="0.85"/>
<rect x="177.3" y="169.9" width="46.2" height="3" rx="1" fill="url(#roof_tealRoof)" opacity="0.85"/>
<rect x="190.5" y="182.9" width="6" height="8" rx="1" fill="url(#windowGlow)" opacity="0.9914983012673902"/>
<rect x="204.5" y="182.9" width="6" height="8" rx="1" fill="url(#windowGlow)" opacity="0.7469985156073228"/>
<rect x="190.5" y="197.9" width="6" height="8" rx="1" fill="url(#windowGlow)" opacity="0.7191969019915894"/>
<rect x="204.5" y="197.9" width="6" height="8" rx="1" fill="url(#windowGlow)" opacity="0.9094350834886706"/>
<rect x="190.5" y="212.9" width="6" height="8" rx="1" fill="url(#windowGlow)" opacity="0.920478852521851"/>
<rect x="190.5" y="227.9" width="6" height="8" rx="1" fill="url(#windowGlow)" opacity="0.7522291890588725"/>
<rect x="204.5" y="227.9" width="6" height="8" rx="1" fill="url(#windowGlow)" opacity="0.7317195618672853"/>
<rect x="190.5" y="242.9" width="6" height="8" rx="1" fill="url(#windowGlow)" opacity="0.7207535673960827"/>
<rect x="204.5" y="242.9" width="6" height="8" rx="1" fill="url(#windowGlow)" opacity="0.9915648528801113"/>
<rect x="190.5" y="257.9" width="6" height="8" rx="1" fill="url(#windowGlow)" opacity="0.9391214687559387"/>
<path d="M200.5 217.4 L219.0 217.4 L216.0 223.4 L203.5 223.4 Z" fill="url(#roof_coralRoof)" opacity="0.68"/>
<rect x="597.3" y="208.4" width="54.1" height="91.6" rx="3" fill="url(#bldg_teal)" opacity="0.85"/>
<polygon points="597.3,208.4 624.3,194.7 651.3,208.4" fill="url(#roof_navyRoof)" opacity="0.85"/>
<rect x="628.3" y="218.4" width="6" height="8" rx="1" fill="url(#windowGlow)" opacity="0.8678704067915074"/>
<rect x="614.3" y="233.4" width="6" height="8" rx="1" fill="url(#windowGlow)" opacity="0.988684745453617"/>
<rect x="628.3" y="233.4" width="6" height="8" rx="1" fill="url(#windowGlow)" opacity="0.7391362053524405"/>
<rect x="614.3" y="248.4" width="6" height="8" rx="1" fill="url(#windowGlow)" opacity="0.9340102375643375"/>
<rect x="628.3" y="248.4" width="6" height="8" rx="1" fill="url(#windowGlow)" opacity="0.8396078239845148"/>
<path d="M602.7 240.5 L624.3 240.5 L621.3 246.5 L605.7 246.5 Z" fill="url(#roof_tealRoof)" opacity="0.68"/>
<rect x="955.5" y="180.4" width="47.9" height="119.6" rx="3" fill="url(#bldg_amber)" opacity="0.85"/>
<rect x="955.5" y="177.4" width="47.9" height="3" rx="1" fill="url(#roof_coralRoof)" opacity="0.85"/>
<rect x="969.4" y="190.4" width="6" height="8" rx="1" fill="url(#windowGlow)" opacity="0.7425436500192357"/>
<rect x="983.4" y="190.4" width="6" height="8" rx="1" fill="url(#windowGlow)" opacity="0.8470393206211921"/>
<rect x="969.4" y="205.4" width="6" height="8" rx="1" fill="url(#windowGlow)" opacity="0.7982643434769773"/>
<rect x="983.4" y="205.4" width="6" height="8" rx="1" fill="url(#windowGlow)" opacity="0.9496589975197143"/>
<rect x="969.4" y="220.4" width="6" height="8" rx="1" fill="url(#windowGlow)" opacity="0.7362009510100823"/>
<rect x="983.4" y="220.4" width="6" height="8" rx="1" fill="url(#windowGlow)" opacity="0.7662902570172633"/>
<rect x="969.4" y="235.4" width="6" height="8" rx="1" fill="url(#windowGlow)" opacity="0.8257040491447336"/>
<rect x="983.4" y="235.4" width="6" height="8" rx="1" fill="url(#windowGlow)" opacity="0.9869559017880614"/>
<rect x="969.4" y="250.4" width="6" height="8" rx="1" fill="url(#windowGlow)" opacity="0.7226682509866861"/>
<rect x="983.4" y="250.4" width="6" height="8" rx="1" fill="url(#windowGlow)" opacity="0.8127772140376163"/>
<rect x="181.5" y="207.0" width="50.0" height="93.0" rx="3" fill="url(#bldg_lavender)" opacity="1"/>
<rect x="191.4" y="195.8" width="30.0" height="11.2" rx="2" fill="url(#roof_tealRoof)" opacity="1"/>
<rect x="196.4" y="217.0" width="6" height="8" rx="1" fill="url(#windowGlow)" opacity="0.823881671681945"/>
<rect x="210.4" y="217.0" width="6" height="8" rx="1" fill="url(#windowGlow)" opacity="0.7367092676166022"/>
<rect x="196.4" y="232.0" width="6" height="8" rx="1" fill="url(#windowGlow)" opacity="0.9166465997307778"/>
<rect x="196.4" y="247.0" width="6" height="8" rx="1" fill="url(#windowGlow)" opacity="0.7405965684170819"/>
<rect x="201.4" y="284.0" width="10" height="16" rx="2" fill="url(#roof_navyRoof)" opacity="0.8"/>
<rect x="203.4" y="287.0" width="6" height="10" rx="1" fill="url(#windowGlow)" opacity="0.45"/>
<rect x="557.6" y="238.2" width="60.2" height="61.8" rx="3" fill="url(#bldg_blue)" opacity="1"/>
<polygon points="557.6,238.2 587.7,218.7 617.9,238.2" fill="url(#roof_navyRoof)" opacity="1"/>
<rect x="584.7" y="248.2" width="6" height="8" rx="1" fill="url(#windowGlow)" opacity="0.9212545092316597"/>
<rect x="598.7" y="248.2" width="6" height="8" rx="1" fill="url(#windowGlow)" opacity="0.8183004041753245"/>
<rect x="582.7" y="284.0" width="10" height="16" rx="2" fill="url(#roof_navyRoof)" opacity="0.8"/>
<rect x="584.7" y="287.0" width="6" height="10" rx="1" fill="url(#windowGlow)" opacity="0.45"/>
<rect x="968.0" y="182.0" width="70.3" height="118.0" rx="3" fill="url(#bldg_mint)" opacity="1"/>
<rect x="982.1" y="167.9" width="42.2" height="14.2" rx="2" fill="url(#roof_coralRoof)" opacity="1"/>
<rect x="1000.1" y="192.0" width="6" height="8" rx="1" fill="url(#windowGlow)" opacity="0.9565749517905409"/>
<rect x="1014.1" y="192.0" width="6" height="8" rx="1" fill="url(#windowGlow)" opacity="0.7000257656909645"/>
<rect x="986.1" y="207.0" width="6" height="8" rx="1" fill="url(#windowGlow)" opacity="0.9997636472339573"/>
<rect x="1014.1" y="207.0" width="6" height="8" rx="1" fill="url(#windowGlow)" opacity="0.7526365237089975"/>
<rect x="986.1" y="222.0" width="6" height="8" rx="1" fill="url(#windowGlow)" opacity="0.9711311602830566"/>
<rect x="1014.1" y="222.0" width="6" height="8" rx="1" fill="url(#windowGlow)" opacity="0.8602305085213066"/>
<rect x="1000.1" y="237.0" width="6" height="8" rx="1" fill="url(#windowGlow)" opacity="0.968081700693854"/>
<rect x="1014.1" y="237.0" width="6" height="8" rx="1" fill="url(#windowGlow)" opacity="0.7737111006740998"/>
<rect x="986.1" y="252.0" width="6" height="8" rx="1" fill="url(#windowGlow)" opacity="0.7986027572297504"/>
<rect x="1000.1" y="252.0" width="6" height="8" rx="1" fill="url(#windowGlow)" opacity="0.7954333419890298"/>
<rect x="1014.1" y="252.0" width="6" height="8" rx="1" fill="url(#windowGlow)" opacity="0.8356582800092447"/>
<rect x="998.1" y="284.0" width="10" height="16" rx="2" fill="url(#roof_navyRoof)" opacity="0.8"/>
<rect x="1000.1" y="287.0" width="6" height="10" rx="1" fill="url(#windowGlow)" opacity="0.45"/>
<rect x="391.5" y="267.5" width="6" height="17.5" rx="2" fill="#15803d"/>
<circle cx="394.5" cy="253.9" r="17.6" fill="#22c55e" opacity="0.9"/>
<circle cx="386.7" cy="256.9" r="13.2" fill="#16a34a" opacity="0.8"/>
<circle cx="402.3" cy="257.9" r="12.3" fill="#15803d" opacity="0.7"/>
<rect x="789.9" y="265.6" width="6" height="19.4" rx="2" fill="#15803d"/>
<circle cx="792.9" cy="254.7" r="14.9" fill="#22c55e" opacity="0.9"/>
<circle cx="784.8" cy="257.7" r="11.2" fill="#16a34a" opacity="0.8"/>
<circle cx="798.6" cy="258.7" r="10.4" fill="#15803d" opacity="0.7"/>
<rect x="151.7" y="264.2" width="6" height="20.8" rx="2" fill="#15803d"/>
<circle cx="154.7" cy="250.5" r="17.7" fill="#22c55e" opacity="0.9"/>
<circle cx="147.4" cy="253.5" r="13.3" fill="#16a34a" opacity="0.8"/>
<circle cx="162.2" cy="254.5" r="12.4" fill="#15803d" opacity="0.7"/>
<rect x="1056.4" y="265.2" width="6" height="19.8" rx="2" fill="#15803d"/>
<circle cx="1059.4" cy="252.7" r="16.5" fill="#22c55e" opacity="0.9"/>
<circle cx="1051.8" cy="255.7" r="12.4" fill="#16a34a" opacity="0.8"/>
<circle cx="1065.9" cy="256.7" r="11.6" fill="#15803d" opacity="0.7"/>
<rect x="386.3" y="267.8" width="6" height="17.2" rx="2" fill="#15803d"/>
<circle cx="389.3" cy="256.0" r="15.7" fill="#22c55e" opacity="0.9"/>
<circle cx="383.2" cy="259.0" r="11.8" fill="#16a34a" opacity="0.8"/>
<circle cx="395.2" cy="260.0" r="11.0" fill="#15803d" opacity="0.7"/>
<rect x="986.4" y="266.5" width="6" height="18.5" rx="2" fill="#15803d"/>
<circle cx="989.4" cy="255.7" r="14.7" fill="#22c55e" opacity="0.9"/>
<circle cx="981.6" cy="258.7" r="11.1" fill="#16a34a" opacity="0.8"/>
<circle cx="996.0" cy="259.7" r="10.3" fill="#15803d" opacity="0.7"/>
<rect x="0" y="282" width="1200" height="18" fill="url(#groundGrad)"/>
<line x1="216.8" y1="282.0" x2="216.8" y2="243.7" stroke="#92400e" stroke-width="2"/>
<circle cx="216.8" cy="243.7" r="4" fill="#fef08a" opacity="0.6"/>
<circle cx="216.8" cy="243.7" r="8" fill="#fef08a" opacity="0.15" filter="url(#softGlow)"/>
<line x1="1054.9" y1="282.0" x2="1054.9" y2="248.1" stroke="#92400e" stroke-width="2"/>
<circle cx="1054.9" cy="248.1" r="4" fill="#fef08a" opacity="0.6"/>
<circle cx="1054.9" cy="248.1" r="8" fill="#fef08a" opacity="0.15" filter="url(#softGlow)"/>
<ellipse cx="249.8" cy="282.0" rx="5.9" ry="4.1" fill="#22c55e" opacity="0.6"/>
<ellipse cx="616.8" cy="282.0" rx="5.4" ry="3.8" fill="#22c55e" opacity="0.6"/>
<ellipse cx="914.6" cy="282.0" rx="5.7" ry="4.0" fill="#22c55e" opacity="0.6"/>
</svg>