<svg xmlns="http://www.w3.org/2000/svg" viewBox="0 0 1200 300" width="1200" height="300">
<defs>
<linearGradient id="skyGrad" x1="0" y1="0" x2="0" y2="1">
<stop offset="0%" stop-color="#a78bfa"/>
<stop offset="18%" stop-color="#ddb4f0"/>
<stop offset="35%" stop-color="#fda4af"/>
<stop offset="52%" stop-color="#fdba74"/>
<stop offset="72%" stop-color="#fef08a"/>
<stop offset="100%" stop-color="#fef9c3"/>
</linearGradient>
<linearGradient id="bldg_coral" x1="0" y1="0" x2="0" y2="1"><stop offset="0%" stop-color="#fecaca"/><stop offset="100%" stop-color="#fca5a5"/></linearGradient>
<linearGradient id="bldg_teal" x1="0" y1="0" x2="0" y2="1"><stop offset="0%" stop-color="#99f6e4"/><stop offset="100%" stop-color="#5eead4"/></linearGradient>
<linearGradient id="bldg_amber" x1="0" y1="0" x2="0" y2="1"><stop offset="0%" stop-color="#fde68a"/><stop offset="100%" stop-color="#fcd34d"/></linearGradient>
<linearGradient id="bldg_lavender" x1="0" y1="0" x2="0" y2="1"><stop offset="0%" stop-color="#ddd6fe"/><stop offset="100%" stop-color="#c4b5fd"/></linearGradient>
<linearGradient id="bldg_blue" x1="0" y1="0" x2="0" y2="1"><stop offset="0%" stop-color="#bfdbfe"/><stop offset="100%" stop-color="#93c5fd"/></linearGradient>
<linearGradient id="bldg_mint" x1="0" y1="0" x2="0" y2="1"><stop offset="0%" stop-color="#a7f3d0"/><stop offset="100%" stop-color="#6ee7b7"/></linearGradient>
<linearGradient id="bldg_rose" x1="0" y1="0" x2="0" y2="1"><stop offset="0%" stop-color="#fecdd3"/><stop offset="100%" stop-color="#fda4af"/></linearGradient>
<linearGradient id="bldg_sky" x1="0" y1="0" x2="0" y2="1"><stop offset="0%" stop-color="#bae6fd"/><stop offset="100%" stop-color="#7dd3fc"/></linearGradient>
<linearGradient id="roof_navyRoof" x1="0" y1="0" x2="0" y2="1"><stop offset="0%" stop-color="#4338ca"/><stop offset="100%" stop-color="#3730a3"/></linearGradient>
<linearGradient id="roof_coralRoof" x1="0" y1="0" x2="0" y2="1"><stop offset="0%" stop-color="#f87171"/><stop offset="100%" stop-color="#ef4444"/></linearGradient>
<linearGradient id="roof_tealRoof" x1="0" y1="0" x2="0" y2="1"><stop offset="0%" stop-color="#2dd4bf"/><stop offset="100%" stop-color="#14b8a6"/></linearGradient>
<radialGradient id="windowGlow" cx="50%" cy="50%" r="50%"><stop offset="0%" stop-color="#fef08a"/><stop offset="60%" stop-color="#fbbf24"/><stop offset="100%" stop-color="#f59e0b"/></radialGradient>
<linearGradient id="hillFar" x1="0" y1="0" x2="0" y2="1"><stop offset="0%" stop-color="#c4b5fd"/><stop offset="100%" stop-color="#a5b4fc"/></linearGradient>
<linearGradient id="hillMid" x1="0" y1="0" x2="0" y2="1"><stop offset="0%" stop-color="#86efac"/><stop offset="100%" stop-color="#4ade80"/></linearGradient>
<linearGradient id="hillNear" x1="0" y1="0" x2="0" y2="1"><stop offset="0%" stop-color="#34d399"/><stop offset="100%" stop-color="#10b981"/></linearGradient>
<linearGradient id="hillDesertFar" x1="0" y1="0" x2="0" y2="1"><stop offset="0%" stop-color="#fde68a"/><stop offset="100%" stop-color="#fcd34d"/></linearGradient>
<linearGradient id="hillDesertMid" x1="0" y1="0" x2="0" y2="1"><stop offset="0%" stop-color="#fcd34d"/><stop offset="100%" stop-color="#fbbf24"/></linearGradient>
<linearGradient id="hillDesertNear" x1="0" y1="0" x2="0" y2="1"><stop offset="0%" stop-color="#fbbf24"/><stop offset="100%" stop-color="#f59e0b"/></linearGradient>
<linearGradient id="groundGrad" x1="0" y1="0" x2="0" y2="1"><stop offset="0%" stop-color="#fef3c7"/><stop offset="100%" stop-color="#fde68a"/></linearGradient>
<linearGradient id="waterGrad" x1="0" y1="0" x2="0" y2="1"><stop offset="0%" stop-color="#bfdbfe"/><stop offset="100%" stop-color="#93c5fd"/></linearGradient>
<filter id="softGlow" x="-50%" y="-50%" width="200%" height="200%"><feGaussianBlur in="SourceGraphic" stdDeviation="12"/></filter>
</defs>
<rect width="1200" height="300" fill="url(#skyGrad)"/>
<circle cx="966.4" cy="48.0" r="45" fill="#fef08a" opacity="0.12" filter="url(#softGlow)"/>
<circle cx="966.4" cy="48.0" r="30" fill="#fde68a" opacity="0.18" filter="url(#softGlow)"/>
<circle cx="966.4" cy="48.0" r="16" fill="#fef9c3" opacity="0.25" filter="url(#softGlow)"/>
<path d="M0 300 L0.0 189.9 C169.2 189.9, 169.2 188.9, 338.4 188.9 C504.8 188.9, 504.8 190.7, 671.1 190.7 C765.7 190.7, 765.7 184.2, 860.2 184.2 C1030.1 184.2, 1030.1 186.5, 1200.0 186.5 L1200 300 Z" fill="url(#hillFar)" opacity="0.5"/>
<path d="M0 300 L0.0 212.6 C231.5 212.6, 231.5 205.5, 462.9 205.5 C631.8 205.5, 631.8 209.0, 800.7 209.0 C1000.3 209.0, 1000.3 213.2, 1200.0 213.2 L1200 300 Z" fill="url(#hillMid)" opacity="0.7"/>
<path d="M0 300 L0.0 230.5 C116.2 230.5, 116.2 230.1, 232.4 230.1 C402.1 230.1, 402.1 235.8, 571.7 235.8 C708.3 235.8, 708.3 236.2, 844.9 236.2 C1022.4 236.2, 1022.4 235.8, 1200.0 235.8 L1200 300 Z" fill="url(#hillNear)" opacity="1"/>
<rect x="160.1" y="242.0" width="65.4" height="58.0" rx="3" fill="url(#bldg_mint)" opacity="0.7"/>
<rect x="160.1" y="239.0" width="65.4" height="3" rx="1" fill="url(#roof_navyRoof)" opacity="0.7"/>
<rect x="175.8" y="252.0" width="6" height="8" rx="1" fill="url(#windowGlow)" opacity="0.9714350739826612"/>
<rect x="189.8" y="252.0" width="6" height="8" rx="1" fill="url(#windowGlow)" opacity="0.9159782615564662"/>
<rect x="203.8" y="252.0" width="6" height="8" rx="1" fill="url(#windowGlow)" opacity="0.7689254529163825"/>
<rect x="591.1" y="209.6" width="69.7" height="90.4" rx="3" fill="url(#bldg_rose)" opacity="0.7"/>
<rect x="605.0" y="198.8" width="41.8" height="10.8" rx="2" fill="url(#roof_coralRoof)" opacity="0.7"/>
<rect x="608.9" y="219.6" width="6" height="8" rx="1" fill="url(#windowGlow)" opacity="0.9138910160930319"/>
<rect x="622.9" y="219.6" width="6" height="8" rx="1" fill="url(#windowGlow)" opacity="0.9698514238790847"/>
<rect x="636.9" y="219.6" width="6" height="8" rx="1" fill="url(#windowGlow)" opacity="0.7125921017083302"/>
<rect x="608.9" y="234.6" width="6" height="8" rx="1" fill="url(#windowGlow)" opacity="0.9127000591311137"/>
<rect x="608.9" y="249.6" width="6" height="8" rx="1" fill="url(#windowGlow)" opacity="0.7145791645695357"/>
<rect x="622.9" y="249.6" width="6" height="8" rx="1" fill="url(#windowGlow)" opacity="0.8049959021643716"/>
<rect x="636.9" y="249.6" width="6" height="8" rx="1" fill="url(#windowGlow)" opacity="0.9804762187322956"/>
<rect x="926.8" y="220.7" width="70.2" height="79.3" rx="3" fill="url(#bldg_sky)" opacity="0.7"/>
<polygon points="926.8,220.7 961.9,206.4 997.0,220.7" fill="url(#roof_tealRoof)" opacity="0.7"/>
<rect x="972.9" y="230.7" width="6" height="8" rx="1" fill="url(#windowGlow)" opacity="0.9803711205629497"/>
<rect x="944.9" y="245.7" width="6" height="8" rx="1" fill="url(#windowGlow)" opacity="0.7445064766074094"/>
<rect x="958.9" y="245.7" width="6" height="8" rx="1" fill="url(#windowGlow)" opacity="0.921604265794905"/>
<rect x="972.9" y="245.7" width="6" height="8" rx="1" fill="url(#windowGlow)" opacity="0.7794022042208361"/>
<rect x="944.9" y="260.7" width="6" height="8" rx="1" fill="url(#windowGlow)" opacity="0.7273968795907668"/>
<rect x="958.9" y="260.7" width="6" height="8" rx="1" fill="url(#windowGlow)" opacity="0.7622657323080421"/>
<rect x="972.9" y="260.7" width="6" height="8" rx="1" fill="url(#windowGlow)" opacity="0.9226976068330451"/>
<rect x="165.4" y="202.7" width="78.5" height="97.3" rx="3" fill="url(#bldg_coral)" opacity="0.85"/>
<rect x="181.1" y="191.0" width="47.1" height="11.7" rx="2" fill="url(#roof_navyRoof)" opacity="0.85"/>
<rect x="180.6" y="212.7" width="6" height="8" rx="1" fill="url(#windowGlow)" opacity="0.8221424766453646"/>
<rect x="194.6" y="212.7" width="6" height="8" rx="1" fill="url(#windowGlow)" opacity="0.7396866756676168"/>
<rect x="208.6" y="212.7" width="6" height="8" rx="1" fill="url(#windowGlow)" opacity="0.8922048590109706"/>
<rect x="180.6" y="227.7" width="6" height="8" rx="1" fill="url(#windowGlow)" opacity="0.9376103204384494"/>
<rect x="194.6" y="227.7" width="6" height="8" rx="1" fill="url(#windowGlow)" opacity="0.8621980550988568"/>
<rect x="208.6" y="227.7" width="6" height="8" rx="1" fill="url(#windowGlow)" opacity="0.9141515957723145"/>
<rect x="222.6" y="227.7" width="6" height="8" rx="1" fill="url(#windowGlow)" opacity="0.9185912901156541"/>
<rect x="194.6" y="242.7" width="6" height="8" rx="1" fill="url(#windowGlow)" opacity="0.8158551037851046"/>
<rect x="208.6" y="242.7" width="6" height="8" rx="1" fill="url(#windowGlow)" opacity="0.8504307519413673"/>
<rect x="222.6" y="242.7" width="6" height="8" rx="1" fill="url(#windowGlow)" opacity="0.896577550376103"/>
<rect x="180.6" y="257.7" width="6" height="8" rx="1" fill="url(#windowGlow)" opacity="0.8411206016042831"/>
<rect x="194.6" y="257.7" width="6" height="8" rx="1" fill="url(#windowGlow)" opacity="0.9779429135275739"/>
<rect x="208.6" y="257.7" width="6" height="8" rx="1" fill="url(#windowGlow)" opacity="0.9464966751851591"/>
<rect x="222.6" y="257.7" width="6" height="8" rx="1" fill="url(#windowGlow)" opacity="0.9577870677494382"/>
<rect x="540.1" y="234.1" width="61.5" height="65.9" rx="3" fill="url(#bldg_teal)" opacity="0.85"/>
<polygon points="540.1,234.1 570.8,215.7 601.6,234.1" fill="url(#roof_coralRoof)" opacity="0.85"/>
<rect x="567.8" y="244.1" width="6" height="8" rx="1" fill="url(#windowGlow)" opacity="0.9131321016760227"/>
<rect x="553.8" y="259.1" width="6" height="8" rx="1" fill="url(#windowGlow)" opacity="0.8417482224487458"/>
<rect x="567.8" y="259.1" width="6" height="8" rx="1" fill="url(#windowGlow)" opacity="0.9450582471420328"/>
<rect x="581.8" y="259.1" width="6" height="8" rx="1" fill="url(#windowGlow)" opacity="0.8696235585350652"/>
<path d="M546.3 257.2 L570.8 257.2 L567.8 263.2 L549.3 263.2 Z" fill="url(#roof_navyRoof)" opacity="0.68"/>
<rect x="928.4" y="191.1" width="42.1" height="108.9" rx="3" fill="url(#bldg_amber)" opacity="0.85"/>
<rect x="928.4" y="188.1" width="42.1" height="3" rx="1" fill="url(#roof_tealRoof)" opacity="0.85"/>
<rect x="946.5" y="201.1" width="6" height="8" rx="1" fill="url(#windowGlow)" opacity="0.8090465394356504"/>
<rect x="946.5" y="231.1" width="6" height="8" rx="1" fill="url(#windowGlow)" opacity="0.8308572172330958"/>
<rect x="946.5" y="246.1" width="6" height="8" rx="1" fill="url(#windowGlow)" opacity="0.7580197406737226"/>
<rect x="240.2" y="147.4" width="52.5" height="152.6" rx="3" fill="url(#bldg_lavender)" opacity="1"/>
<rect x="240.2" y="144.4" width="52.5" height="3" rx="1" fill="url(#roof_navyRoof)" opacity="1"/>
<rect x="270.4" y="172.4" width="6" height="8" rx="1" fill="url(#windowGlow)" opacity="0.9732252680106206"/>
<rect x="270.4" y="187.4" width="6" height="8" rx="1" fill="url(#windowGlow)" opacity="0.7024218798160654"/>
<rect x="270.4" y="202.4" width="6" height="8" rx="1" fill="url(#windowGlow)" opacity="0.7723467029968027"/>
<rect x="270.4" y="217.4" width="6" height="8" rx="1" fill="url(#windowGlow)" opacity="0.9037920987716839"/>
<rect x="256.4" y="232.4" width="6" height="8" rx="1" fill="url(#windowGlow)" opacity="0.8299864900438052"/>
<rect x="270.4" y="232.4" width="6" height="8" rx="1" fill="url(#windowGlow)" opacity="0.9239102494548588"/>
<rect x="256.4" y="247.4" width="6" height="8" rx="1" fill="url(#windowGlow)" opacity="0.8531269046725365"/>
<rect x="270.4" y="247.4" width="6" height="8" rx="1" fill="url(#windowGlow)" opacity="0.720204933136797"/>
<rect x="261.4" y="284.0" width="10" height="16" rx="2" fill="url(#roof_navyRoof)" opacity="0.8"/>
<rect x="263.4" y="287.0" width="6" height="10" rx="1" fill="url(#windowGlow)" opacity="0.45"/>
<path d="M266.4 200.8 L287.5 200.8 L284.5 206.8 L269.4 206.8 Z" fill="url(#roof_tealRoof)" opacity="0.8"/>
<rect x="576.0" y="171.0" width="49.9" height="129.0" rx="3" fill="url(#bldg_blue)" opacity="1"/>
<rect x="576.0" y="168.0" width="49.9" height="3" rx="1" fill="url(#roof_coralRoof)" opacity="1"/>
<rect x="591.0" y="181.0" width="6" height="8" rx="1" fill="url(#windowGlow)" opacity="0.8516043587828075"/>
<rect x="605.0" y="181.0" width="6" height="8" rx="1" fill="url(#windowGlow)" opacity="0.7673704622161437"/>
<rect x="591.0" y="196.0" width="6" height="8" rx="1" fill="url(#windowGlow)" opacity="0.946175388035446"/>
<rect x="591.0" y="211.0" width="6" height="8" rx="1" fill="url(#windowGlow)" opacity="0.7275777008512885"/>
<rect x="591.0" y="226.0" width="6" height="8" rx="1" fill="url(#windowGlow)" opacity="0.7067186632690572"/>
<rect x="605.0" y="226.0" width="6" height="8" rx="1" fill="url(#windowGlow)" opacity="0.7336422965552855"/>
<rect x="591.0" y="241.0" width="6" height="8" rx="1" fill="url(#windowGlow)" opacity="0.8056022599365572"/>
<rect x="605.0" y="241.0" width="6" height="8" rx="1" fill="url(#windowGlow)" opacity="0.798801035340317"/>
<rect x="591.0" y="256.0" width="6" height="8" rx="1" fill="url(#windowGlow)" opacity="0.8404387911969976"/>
<rect x="605.0" y="256.0" width="6" height="8" rx="1" fill="url(#windowGlow)" opacity="0.7988344606938"/>
<rect x="596.0" y="284.0" width="10" height="16" rx="2" fill="url(#roof_navyRoof)" opacity="0.8"/>
<rect x="598.0" y="287.0" width="6" height="10" rx="1" fill="url(#windowGlow)" opacity="0.45"/>
<rect x="945.9" y="202.5" width="37.5" height="97.5" rx="3" fill="url(#bldg_mint)" opacity="1"/>
<rect x="945.9" y="199.5" width="37.5" height="3" rx="1" fill="url(#roof_tealRoof)" opacity="1"/>
<rect x="961.7" y="212.5" width="6" height="8" rx="1" fill="url(#windowGlow)" opacity="0.8013886689680575"/>
<rect x="961.7" y="242.5" width="6" height="8" rx="1" fill="url(#windowGlow)" opacity="0.750053805927771"/>
<rect x="961.7" y="257.5" width="6" height="8" rx="1" fill="url(#windowGlow)" opacity="0.767469028368345"/>
<rect x="959.7" y="284.0" width="10" height="16" rx="2" fill="url(#roof_navyRoof)" opacity="0.8"/>
<rect x="961.7" y="287.0" width="6" height="10" rx="1" fill="url(#windowGlow)" opacity="0.45"/>
<path d="M964.7 236.6 L979.7 236.6 L976.7 242.6 L967.7 242.6 Z" fill="url(#roof_coralRoof)" opacity="0.8"/>
<path d="M434.4 285.0 Q448.5 253.9 442.9 222.8" stroke="#92400e" stroke-width="4" fill="none" stroke-linecap="round"/>
<path d="M442.9 222.8 Q430.9 211.9 422.9 211.9" stroke="#16a34a" stroke-width="2.5" fill="none" stroke-linecap="round"/>
<path d="M442.9 222.8 Q448.4 211.3 452.1 210.6" stroke="#22c55e" stroke-width="2.5" fill="none" stroke-linecap="round"/>
<path d="M442.9 222.8 Q462.6 216.8 475.7 222.8" stroke="#15803d" stroke-width="2.5" fill="none" stroke-linecap="round"/>
<path d="M442.9 222.8 Q450.6 224.6 455.8 240.0" stroke="#4ade80" stroke-width="2.5" fill="none" stroke-linecap="round"/>
<path d="M442.9 222.8 Q434.0 220.5 428.2 230.9" stroke="#16a34a" stroke-width="2.5" fill="none" stroke-linecap="round"/>
<path d="M785.9 285.0 Q815.1 254.9 803.4 224.8" stroke="#92400e" stroke-width="4" fill="none" stroke-linecap="round"/>
<path d="M803.4 224.8 Q792.1 214.0 784.5 214.3" stroke="#16a34a" stroke-width="2.5" fill="none" stroke-linecap="round"/>
<path d="M803.4 224.8 Q810.0 212.2 814.3 210.4" stroke="#22c55e" stroke-width="2.5" fill="none" stroke-linecap="round"/>
<path d="M803.4 224.8 Q823.1 218.8 836.3 224.8" stroke="#15803d" stroke-width="2.5" fill="none" stroke-linecap="round"/>
<path d="M803.4 224.8 Q810.6 225.9 815.3 240.5" stroke="#4ade80" stroke-width="2.5" fill="none" stroke-linecap="round"/>
<path d="M803.4 224.8 Q791.4 223.8 783.4 235.8" stroke="#16a34a" stroke-width="2.5" fill="none" stroke-linecap="round"/>
<path d="M211.5 285.0 Q232.9 262.3 224.4 239.6" stroke="#92400e" stroke-width="4" fill="none" stroke-linecap="round"/>
<path d="M224.4 239.6 Q213.2 229.0 205.7 229.4" stroke="#16a34a" stroke-width="2.5" fill="none" stroke-linecap="round"/>
<path d="M224.4 239.6 Q229.7 228.3 233.2 227.9" stroke="#22c55e" stroke-width="2.5" fill="none" stroke-linecap="round"/>
<path d="M224.4 239.6 Q244.0 233.6 257.1 239.6" stroke="#15803d" stroke-width="2.5" fill="none" stroke-linecap="round"/>
<path d="M224.4 239.6 Q229.5 238.8 232.9 250.9" stroke="#4ade80" stroke-width="2.5" fill="none" stroke-linecap="round"/>
<path d="M224.4 239.6 Q210.2 239.5 200.8 252.6" stroke="#16a34a" stroke-width="2.5" fill="none" stroke-linecap="round"/>
<rect x="0" y="282" width="1200" height="18" fill="url(#groundGrad)"/>
<line x1="123.8" y1="282.0" x2="123.8" y2="240.3" stroke="#92400e" stroke-width="2"/>
<circle cx="123.8" cy="240.3" r="4" fill="#fef08a" opacity="0.6"/>
<circle cx="123.8" cy="240.3" r="8" fill="#fef08a" opacity="0.15" filter="url(#softGlow)"/>
<ellipse cx="780.2" cy="282.0" rx="5.3" ry="3.7" fill="#22c55e" opacity="0.6"/>
<ellipse cx="208.5" cy="282.0" rx="5.4" ry="3.8" fill="#22c55e" opacity="0.6"/>
</svg>