<svg xmlns="http://www.w3.org/2000/svg" viewBox="0 0 1200 300" width="1200" height="300">
<rect width="1200" height="300" fill="#e0eff2"/>
<path d="M0 300 L0 210.0 C272.2 177.4, 1007.0 196.1, 1200 210.0 L1200 300 Z" fill="#aac2c9" opacity="0.3"/>
<rect x="131.6" y="228.1" width="53.3" height="71.9" fill="#8aabb4"/>
<rect x="450.1" y="231.1" width="58.7" height="68.9" fill="#8aabb4"/>
<rect x="731.3" y="237.5" width="41.7" height="62.5" fill="#8aabb4"/>
<rect x="1042.7" y="182.1" width="43.8" height="117.9" fill="#8aabb4"/>
<rect x="111.4" y="154.6" width="48.6" height="145.4" fill="#558592"/>
<rect x="139.7" y="166.6" width="6" height="8" fill="#91b0b8" opacity="0.5"/>
<rect x="125.7" y="182.6" width="6" height="8" fill="#91b0b8" opacity="0.5"/>
<rect x="139.7" y="182.6" width="6" height="8" fill="#91b0b8" opacity="0.5"/>
<rect x="125.7" y="198.6" width="6" height="8" fill="#91b0b8" opacity="0.5"/>
<rect x="139.7" y="198.6" width="6" height="8" fill="#91b0b8" opacity="0.5"/>
<rect x="125.7" y="214.6" width="6" height="8" fill="#91b0b8" opacity="0.5"/>
<rect x="139.7" y="214.6" width="6" height="8" fill="#91b0b8" opacity="0.5"/>
<rect x="125.7" y="230.6" width="6" height="8" fill="#91b0b8" opacity="0.5"/>
<rect x="139.7" y="230.6" width="6" height="8" fill="#91b0b8" opacity="0.5"/>
<rect x="125.7" y="246.6" width="6" height="8" fill="#91b0b8" opacity="0.5"/>
<rect x="139.7" y="246.6" width="6" height="8" fill="#91b0b8" opacity="0.5"/>
<rect x="139.7" y="262.6" width="6" height="8" fill="#91b0b8" opacity="0.5"/>
<rect x="340.0" y="216.4" width="51.1" height="83.6" fill="#558592"/>
<rect x="355.6" y="228.4" width="6" height="8" fill="#91b0b8" opacity="0.5"/>
<rect x="369.6" y="228.4" width="6" height="8" fill="#91b0b8" opacity="0.5"/>
<rect x="355.6" y="244.4" width="6" height="8" fill="#91b0b8" opacity="0.5"/>
<rect x="369.6" y="244.4" width="6" height="8" fill="#91b0b8" opacity="0.5"/>
<rect x="547.1" y="173.2" width="75.6" height="126.8" fill="#558592"/>
<rect x="560.9" y="185.2" width="6" height="8" fill="#91b0b8" opacity="0.5"/>
<rect x="574.9" y="185.2" width="6" height="8" fill="#91b0b8" opacity="0.5"/>
<rect x="602.9" y="185.2" width="6" height="8" fill="#91b0b8" opacity="0.5"/>
<rect x="560.9" y="201.2" width="6" height="8" fill="#91b0b8" opacity="0.5"/>
<rect x="574.9" y="201.2" width="6" height="8" fill="#91b0b8" opacity="0.5"/>
<rect x="588.9" y="201.2" width="6" height="8" fill="#91b0b8" opacity="0.5"/>
<rect x="602.9" y="201.2" width="6" height="8" fill="#91b0b8" opacity="0.5"/>
<rect x="560.9" y="217.2" width="6" height="8" fill="#91b0b8" opacity="0.5"/>
<rect x="602.9" y="217.2" width="6" height="8" fill="#91b0b8" opacity="0.5"/>
<rect x="560.9" y="233.2" width="6" height="8" fill="#91b0b8" opacity="0.5"/>
<rect x="588.9" y="233.2" width="6" height="8" fill="#91b0b8" opacity="0.5"/>
<rect x="560.9" y="249.2" width="6" height="8" fill="#91b0b8" opacity="0.5"/>
<rect x="574.9" y="249.2" width="6" height="8" fill="#91b0b8" opacity="0.5"/>
<rect x="588.9" y="249.2" width="6" height="8" fill="#91b0b8" opacity="0.5"/>
<rect x="560.9" y="265.2" width="6" height="8" fill="#91b0b8" opacity="0.5"/>
<rect x="574.9" y="265.2" width="6" height="8" fill="#91b0b8" opacity="0.5"/>
<rect x="588.9" y="265.2" width="6" height="8" fill="#91b0b8" opacity="0.5"/>
<rect x="602.9" y="265.2" width="6" height="8" fill="#91b0b8" opacity="0.5"/>
<rect x="790.8" y="177.8" width="35.1" height="122.2" fill="#558592"/>
<rect x="805.4" y="189.8" width="6" height="8" fill="#91b0b8" opacity="0.5"/>
<rect x="805.4" y="205.8" width="6" height="8" fill="#91b0b8" opacity="0.5"/>
<rect x="805.4" y="237.8" width="6" height="8" fill="#91b0b8" opacity="0.5"/>
<rect x="805.4" y="253.8" width="6" height="8" fill="#91b0b8" opacity="0.5"/>
<rect x="805.4" y="269.8" width="6" height="8" fill="#91b0b8" opacity="0.5"/>
<rect x="1031.5" y="184.0" width="57.0" height="116.0" fill="#558592"/>
<rect x="1050.0" y="196.0" width="6" height="8" fill="#91b0b8" opacity="0.5"/>
<rect x="1064.0" y="212.0" width="6" height="8" fill="#91b0b8" opacity="0.5"/>
<rect x="1050.0" y="228.0" width="6" height="8" fill="#91b0b8" opacity="0.5"/>
<rect x="1050.0" y="244.0" width="6" height="8" fill="#91b0b8" opacity="0.5"/>
<rect x="1064.0" y="244.0" width="6" height="8" fill="#91b0b8" opacity="0.5"/>
<rect x="1050.0" y="260.0" width="6" height="8" fill="#91b0b8" opacity="0.5"/>
<rect x="1064.0" y="260.0" width="6" height="8" fill="#91b0b8" opacity="0.5"/>
<rect x="101.6" y="216.4" width="48.7" height="83.6" fill="#2b6777"/>
<rect x="116.0" y="228.4" width="6" height="8" fill="#759ca7" opacity="0.5"/>
<rect x="130.0" y="228.4" width="6" height="8" fill="#759ca7" opacity="0.5"/>
<rect x="116.0" y="244.4" width="6" height="8" fill="#759ca7" opacity="0.5"/>
<rect x="130.0" y="244.4" width="6" height="8" fill="#759ca7" opacity="0.5"/>
<rect x="116.0" y="260.4" width="6" height="8" fill="#759ca7" opacity="0.5"/>
<rect x="130.0" y="260.4" width="6" height="8" fill="#759ca7" opacity="0.5"/>
<rect x="356.5" y="178.7" width="62.1" height="121.3" fill="#2b6777"/>
<rect x="370.6" y="190.7" width="6" height="8" fill="#759ca7" opacity="0.5"/>
<rect x="384.6" y="190.7" width="6" height="8" fill="#759ca7" opacity="0.5"/>
<rect x="398.6" y="190.7" width="6" height="8" fill="#759ca7" opacity="0.5"/>
<rect x="370.6" y="206.7" width="6" height="8" fill="#759ca7" opacity="0.5"/>
<rect x="384.6" y="206.7" width="6" height="8" fill="#759ca7" opacity="0.5"/>
<rect x="398.6" y="206.7" width="6" height="8" fill="#759ca7" opacity="0.5"/>
<rect x="370.6" y="222.7" width="6" height="8" fill="#759ca7" opacity="0.5"/>
<rect x="384.6" y="222.7" width="6" height="8" fill="#759ca7" opacity="0.5"/>
<rect x="398.6" y="222.7" width="6" height="8" fill="#759ca7" opacity="0.5"/>
<rect x="370.6" y="238.7" width="6" height="8" fill="#759ca7" opacity="0.5"/>
<rect x="384.6" y="238.7" width="6" height="8" fill="#759ca7" opacity="0.5"/>
<rect x="398.6" y="238.7" width="6" height="8" fill="#759ca7" opacity="0.5"/>
<rect x="370.6" y="254.7" width="6" height="8" fill="#759ca7" opacity="0.5"/>
<rect x="384.6" y="254.7" width="6" height="8" fill="#759ca7" opacity="0.5"/>
<rect x="398.6" y="254.7" width="6" height="8" fill="#759ca7" opacity="0.5"/>
<rect x="370.6" y="270.7" width="6" height="8" fill="#759ca7" opacity="0.5"/>
<rect x="384.6" y="270.7" width="6" height="8" fill="#759ca7" opacity="0.5"/>
<rect x="398.6" y="270.7" width="6" height="8" fill="#759ca7" opacity="0.5"/>
<rect x="599.0" y="168.8" width="47.0" height="131.2" fill="#2b6777"/>
<rect x="612.5" y="180.8" width="6" height="8" fill="#759ca7" opacity="0.5"/>
<rect x="626.5" y="180.8" width="6" height="8" fill="#759ca7" opacity="0.5"/>
<rect x="612.5" y="196.8" width="6" height="8" fill="#759ca7" opacity="0.5"/>
<rect x="626.5" y="196.8" width="6" height="8" fill="#759ca7" opacity="0.5"/>
<rect x="612.5" y="212.8" width="6" height="8" fill="#759ca7" opacity="0.5"/>
<rect x="612.5" y="244.8" width="6" height="8" fill="#759ca7" opacity="0.5"/>
<rect x="801.9" y="116.9" width="42.0" height="183.1" fill="#2b6777"/>
<rect x="819.9" y="128.9" width="6" height="8" fill="#759ca7" opacity="0.5"/>
<rect x="819.9" y="144.9" width="6" height="8" fill="#759ca7" opacity="0.5"/>
<rect x="819.9" y="176.9" width="6" height="8" fill="#759ca7" opacity="0.5"/>
<rect x="819.9" y="192.9" width="6" height="8" fill="#759ca7" opacity="0.5"/>
<rect x="819.9" y="224.9" width="6" height="8" fill="#759ca7" opacity="0.5"/>
<rect x="819.9" y="240.9" width="6" height="8" fill="#759ca7" opacity="0.5"/>
<rect x="819.9" y="256.9" width="6" height="8" fill="#759ca7" opacity="0.5"/>
<rect x="819.9" y="272.9" width="6" height="8" fill="#759ca7" opacity="0.5"/>
<rect x="1057.7" y="132.3" width="55.2" height="167.7" fill="#2b6777"/>
<rect x="1075.2" y="144.3" width="6" height="8" fill="#759ca7" opacity="0.5"/>
<rect x="1089.2" y="144.3" width="6" height="8" fill="#759ca7" opacity="0.5"/>
<rect x="1075.2" y="160.3" width="6" height="8" fill="#759ca7" opacity="0.5"/>
<rect x="1089.2" y="160.3" width="6" height="8" fill="#759ca7" opacity="0.5"/>
<rect x="1089.2" y="176.3" width="6" height="8" fill="#759ca7" opacity="0.5"/>
<rect x="1075.2" y="192.3" width="6" height="8" fill="#759ca7" opacity="0.5"/>
<rect x="1089.2" y="192.3" width="6" height="8" fill="#759ca7" opacity="0.5"/>
<rect x="1089.2" y="208.3" width="6" height="8" fill="#759ca7" opacity="0.5"/>
<rect x="1075.2" y="224.3" width="6" height="8" fill="#759ca7" opacity="0.5"/>
<rect x="1089.2" y="224.3" width="6" height="8" fill="#759ca7" opacity="0.5"/>
<rect x="1075.2" y="240.3" width="6" height="8" fill="#759ca7" opacity="0.5"/>
<rect x="1089.2" y="240.3" width="6" height="8" fill="#759ca7" opacity="0.5"/>
<rect x="1075.2" y="256.3" width="6" height="8" fill="#759ca7" opacity="0.5"/>
<rect x="1089.2" y="256.3" width="6" height="8" fill="#759ca7" opacity="0.5"/>
<rect x="1075.2" y="272.3" width="6" height="8" fill="#759ca7" opacity="0.5"/>
<rect x="1089.2" y="272.3" width="6" height="8" fill="#759ca7" opacity="0.5"/>
<rect x="0" y="298" width="1200" height="2" fill="#275d6b" opacity="0.15"/>
</svg>