<svg xmlns="http://www.w3.org/2000/svg" viewBox="0 0 1200 300" width="1200" height="300">
<defs><linearGradient id="skyGrad" x1="0" y1="0" x2="0" y2="1"><stop offset="0%" stop-color="#e6ecf2"/><stop offset="100%" stop-color="#f0eeec"/></linearGradient></defs><rect width="1200" height="300" fill="url(#skyGrad)"/>
<path d="M0 300 L0 206.1 C315.7 190.3, 1007.0 198.7, 1200 206.1 L1200 300 Z" fill="#aac2c9" opacity="0.25"/>
<rect x="157.0" y="216.0" width="56.6" height="84.0" fill="#8aabb4"/>
<rect x="521.4" y="239.2" width="77.8" height="60.8" fill="#8aabb4"/>
<rect x="894.4" y="236.3" width="70.6" height="63.7" fill="#8aabb4"/>
<polygon points="894.4,236.3 929.7,218.7 965.0,236.3" fill="#7f9da6"/>
<rect x="165.7" y="211.2" width="77.0" height="88.8" fill="#558592"/>
<rect x="179.2" y="195.5" width="50.1" height="15.7" fill="#517e8b"/>
<rect x="187.2" y="207.5" width="6" height="8" fill="#91b0b8" opacity="0.5"/>
<rect x="201.2" y="207.5" width="6" height="8" fill="#91b0b8" opacity="0.5"/>
<rect x="215.2" y="207.5" width="6" height="8" fill="#91b0b8" opacity="0.5"/>
<rect x="187.2" y="223.5" width="6" height="8" fill="#91b0b8" opacity="0.5"/>
<rect x="187.2" y="239.5" width="6" height="8" fill="#91b0b8" opacity="0.5"/>
<rect x="201.2" y="239.5" width="6" height="8" fill="#91b0b8" opacity="0.5"/>
<rect x="215.2" y="239.5" width="6" height="8" fill="#91b0b8" opacity="0.5"/>
<rect x="187.2" y="255.5" width="6" height="8" fill="#91b0b8" opacity="0.5"/>
<rect x="201.2" y="255.5" width="6" height="8" fill="#91b0b8" opacity="0.5"/>
<rect x="215.2" y="255.5" width="6" height="8" fill="#91b0b8" opacity="0.5"/>
<rect x="187.2" y="271.5" width="6" height="8" fill="#91b0b8" opacity="0.5"/>
<rect x="201.2" y="271.5" width="6" height="8" fill="#91b0b8" opacity="0.5"/>
<rect x="215.2" y="271.5" width="6" height="8" fill="#91b0b8" opacity="0.5"/>
<rect x="454.4" y="190.6" width="52.0" height="109.4" fill="#558592"/>
<rect x="484.4" y="202.6" width="6" height="8" fill="#91b0b8" opacity="0.5"/>
<rect x="470.4" y="218.6" width="6" height="8" fill="#91b0b8" opacity="0.5"/>
<rect x="484.4" y="218.6" width="6" height="8" fill="#91b0b8" opacity="0.5"/>
<rect x="470.4" y="234.6" width="6" height="8" fill="#91b0b8" opacity="0.5"/>
<rect x="484.4" y="234.6" width="6" height="8" fill="#91b0b8" opacity="0.5"/>
<rect x="470.4" y="266.6" width="6" height="8" fill="#91b0b8" opacity="0.5"/>
<rect x="484.4" y="266.6" width="6" height="8" fill="#91b0b8" opacity="0.5"/>
<rect x="678.6" y="142.9" width="53.3" height="157.1" fill="#558592"/>
<polygon points="678.6,142.9 705.3,129.6 731.9,142.9" fill="#4e7a86"/>
<rect x="695.3" y="154.9" width="6" height="8" fill="#91b0b8" opacity="0.5"/>
<rect x="709.3" y="154.9" width="6" height="8" fill="#91b0b8" opacity="0.5"/>
<rect x="709.3" y="170.9" width="6" height="8" fill="#91b0b8" opacity="0.5"/>
<rect x="695.3" y="186.9" width="6" height="8" fill="#91b0b8" opacity="0.5"/>
<rect x="709.3" y="186.9" width="6" height="8" fill="#91b0b8" opacity="0.5"/>
<rect x="695.3" y="218.9" width="6" height="8" fill="#91b0b8" opacity="0.5"/>
<rect x="709.3" y="218.9" width="6" height="8" fill="#91b0b8" opacity="0.5"/>
<rect x="1008.6" y="221.8" width="47.5" height="78.2" fill="#558592"/>
<polygon points="1008.6,221.8 1032.3,209.9 1056.1,221.8" fill="#4e7a86"/>
<rect x="1022.3" y="233.8" width="6" height="8" fill="#91b0b8" opacity="0.5"/>
<rect x="1036.3" y="233.8" width="6" height="8" fill="#91b0b8" opacity="0.5"/>
<rect x="1022.3" y="249.8" width="6" height="8" fill="#91b0b8" opacity="0.5"/>
<rect x="1022.3" y="265.8" width="6" height="8" fill="#91b0b8" opacity="0.5"/>
<rect x="1036.3" y="265.8" width="6" height="8" fill="#91b0b8" opacity="0.5"/>
<rect x="153.1" y="197.8" width="39.6" height="102.2" fill="#2b6777"/>
<rect x="160.0" y="179.8" width="25.7" height="18.0" fill="#296271"/>
<rect x="169.9" y="191.8" width="6" height="8" fill="#759ca7" opacity="0.5"/>
<rect x="169.9" y="207.8" width="6" height="8" fill="#759ca7" opacity="0.5"/>
<rect x="169.9" y="223.8" width="6" height="8" fill="#759ca7" opacity="0.5"/>
<rect x="169.9" y="255.8" width="6" height="8" fill="#759ca7" opacity="0.5"/>
<rect x="424.2" y="190.5" width="55.2" height="109.5" fill="#2b6777"/>
<rect x="441.8" y="202.5" width="6" height="8" fill="#759ca7" opacity="0.5"/>
<rect x="455.8" y="218.5" width="6" height="8" fill="#759ca7" opacity="0.5"/>
<rect x="441.8" y="234.5" width="6" height="8" fill="#759ca7" opacity="0.5"/>
<rect x="455.8" y="250.5" width="6" height="8" fill="#759ca7" opacity="0.5"/>
<rect x="441.8" y="266.5" width="6" height="8" fill="#759ca7" opacity="0.5"/>
<rect x="455.8" y="266.5" width="6" height="8" fill="#759ca7" opacity="0.5"/>
<rect x="699.8" y="146.8" width="40.7" height="153.2" fill="#2b6777"/>
<rect x="717.1" y="158.8" width="6" height="8" fill="#759ca7" opacity="0.5"/>
<rect x="717.1" y="174.8" width="6" height="8" fill="#759ca7" opacity="0.5"/>
<rect x="717.1" y="190.8" width="6" height="8" fill="#759ca7" opacity="0.5"/>
<rect x="717.1" y="206.8" width="6" height="8" fill="#759ca7" opacity="0.5"/>
<rect x="717.1" y="222.8" width="6" height="8" fill="#759ca7" opacity="0.5"/>
<rect x="717.1" y="238.8" width="6" height="8" fill="#759ca7" opacity="0.5"/>
<rect x="995.8" y="195.8" width="62.8" height="104.2" fill="#2b6777"/>
<rect x="1024.2" y="207.8" width="6" height="8" fill="#759ca7" opacity="0.5"/>
<rect x="1038.2" y="207.8" width="6" height="8" fill="#759ca7" opacity="0.5"/>
<rect x="1010.2" y="223.8" width="6" height="8" fill="#759ca7" opacity="0.5"/>
<rect x="1024.2" y="223.8" width="6" height="8" fill="#759ca7" opacity="0.5"/>
<rect x="1038.2" y="223.8" width="6" height="8" fill="#759ca7" opacity="0.5"/>
<rect x="1010.2" y="239.8" width="6" height="8" fill="#759ca7" opacity="0.5"/>
<rect x="1024.2" y="239.8" width="6" height="8" fill="#759ca7" opacity="0.5"/>
<rect x="1038.2" y="239.8" width="6" height="8" fill="#759ca7" opacity="0.5"/>
<rect x="1010.2" y="255.8" width="6" height="8" fill="#759ca7" opacity="0.5"/>
<rect x="1024.2" y="255.8" width="6" height="8" fill="#759ca7" opacity="0.5"/>
<rect x="1010.2" y="271.8" width="6" height="8" fill="#759ca7" opacity="0.5"/>
<rect x="1024.2" y="271.8" width="6" height="8" fill="#759ca7" opacity="0.5"/>
<rect x="1038.2" y="271.8" width="6" height="8" fill="#759ca7" opacity="0.5"/>
<line x1="308.4" y1="285.0" x2="308.4" y2="274.9" stroke="#6b5a42" stroke-width="3"/>
<circle cx="308.4" cy="261.6" r="13.3" fill="#578848"/>
<line x1="589.6" y1="285.0" x2="589.6" y2="273.1" stroke="#6b5a42" stroke-width="3"/>
<circle cx="589.6" cy="260.6" r="12.5" fill="#578848"/>
<line x1="868.1" y1="285.0" x2="868.1" y2="274.2" stroke="#6b5a42" stroke-width="3"/>
<circle cx="868.1" cy="259.7" r="14.5" fill="#548345"/>
<line x1="1004.5" y1="285.0" x2="1004.5" y2="274.5" stroke="#6b5a42" stroke-width="3"/>
<circle cx="1004.5" cy="260.4" r="14.1" fill="#538044"/>
<line x1="639.4" y1="285.0" x2="639.4" y2="274.9" stroke="#6b5a42" stroke-width="3"/>
<circle cx="639.4" cy="258.8" r="16.2" fill="#538144"/>
<line x1="352.3" y1="285.0" x2="352.3" y2="272.0" stroke="#6b5a42" stroke-width="3"/>
<circle cx="352.3" cy="258.2" r="13.8" fill="#507d42"/>
<line x1="463.7" y1="285.0" x2="463.7" y2="272.7" stroke="#6b5a42" stroke-width="3"/>
<circle cx="463.7" cy="255.2" r="17.5" fill="#558346"/>
<line x1="1108.8" y1="285.0" x2="1108.8" y2="274.5" stroke="#6b5a42" stroke-width="3"/>
<circle cx="1108.8" cy="260.6" r="14.0" fill="#517e43"/>
<rect x="0" y="285" width="1200" height="15" fill="#9aaa85" opacity="0.4"/>
</svg>