<svg xmlns="http://www.w3.org/2000/svg" viewBox="0 0 1200 300" width="1200" height="300">
<defs>
<linearGradient id="skyGrad" x1="0" y1="0" x2="0" y2="1">
<stop offset="0%" stop-color="#a78bfa"/>
<stop offset="18%" stop-color="#ddb4f0"/>
<stop offset="35%" stop-color="#fda4af"/>
<stop offset="52%" stop-color="#fdba74"/>
<stop offset="72%" stop-color="#fef08a"/>
<stop offset="100%" stop-color="#fef9c3"/>
</linearGradient>
<linearGradient id="bldg_coral" x1="0" y1="0" x2="0" y2="1"><stop offset="0%" stop-color="#fecaca"/><stop offset="100%" stop-color="#fca5a5"/></linearGradient>
<linearGradient id="bldg_teal" x1="0" y1="0" x2="0" y2="1"><stop offset="0%" stop-color="#99f6e4"/><stop offset="100%" stop-color="#5eead4"/></linearGradient>
<linearGradient id="bldg_amber" x1="0" y1="0" x2="0" y2="1"><stop offset="0%" stop-color="#fde68a"/><stop offset="100%" stop-color="#fcd34d"/></linearGradient>
<linearGradient id="bldg_lavender" x1="0" y1="0" x2="0" y2="1"><stop offset="0%" stop-color="#ddd6fe"/><stop offset="100%" stop-color="#c4b5fd"/></linearGradient>
<linearGradient id="bldg_blue" x1="0" y1="0" x2="0" y2="1"><stop offset="0%" stop-color="#bfdbfe"/><stop offset="100%" stop-color="#93c5fd"/></linearGradient>
<linearGradient id="bldg_mint" x1="0" y1="0" x2="0" y2="1"><stop offset="0%" stop-color="#a7f3d0"/><stop offset="100%" stop-color="#6ee7b7"/></linearGradient>
<linearGradient id="bldg_rose" x1="0" y1="0" x2="0" y2="1"><stop offset="0%" stop-color="#fecdd3"/><stop offset="100%" stop-color="#fda4af"/></linearGradient>
<linearGradient id="bldg_sky" x1="0" y1="0" x2="0" y2="1"><stop offset="0%" stop-color="#bae6fd"/><stop offset="100%" stop-color="#7dd3fc"/></linearGradient>
<linearGradient id="roof_navyRoof" x1="0" y1="0" x2="0" y2="1"><stop offset="0%" stop-color="#4338ca"/><stop offset="100%" stop-color="#3730a3"/></linearGradient>
<linearGradient id="roof_coralRoof" x1="0" y1="0" x2="0" y2="1"><stop offset="0%" stop-color="#f87171"/><stop offset="100%" stop-color="#ef4444"/></linearGradient>
<linearGradient id="roof_tealRoof" x1="0" y1="0" x2="0" y2="1"><stop offset="0%" stop-color="#2dd4bf"/><stop offset="100%" stop-color="#14b8a6"/></linearGradient>
<radialGradient id="windowGlow" cx="50%" cy="50%" r="50%"><stop offset="0%" stop-color="#fef08a"/><stop offset="60%" stop-color="#fbbf24"/><stop offset="100%" stop-color="#f59e0b"/></radialGradient>
<linearGradient id="hillFar" x1="0" y1="0" x2="0" y2="1"><stop offset="0%" stop-color="#c4b5fd"/><stop offset="100%" stop-color="#a5b4fc"/></linearGradient>
<linearGradient id="hillMid" x1="0" y1="0" x2="0" y2="1"><stop offset="0%" stop-color="#86efac"/><stop offset="100%" stop-color="#4ade80"/></linearGradient>
<linearGradient id="hillNear" x1="0" y1="0" x2="0" y2="1"><stop offset="0%" stop-color="#34d399"/><stop offset="100%" stop-color="#10b981"/></linearGradient>
<linearGradient id="hillDesertFar" x1="0" y1="0" x2="0" y2="1"><stop offset="0%" stop-color="#fde68a"/><stop offset="100%" stop-color="#fcd34d"/></linearGradient>
<linearGradient id="hillDesertMid" x1="0" y1="0" x2="0" y2="1"><stop offset="0%" stop-color="#fcd34d"/><stop offset="100%" stop-color="#fbbf24"/></linearGradient>
<linearGradient id="hillDesertNear" x1="0" y1="0" x2="0" y2="1"><stop offset="0%" stop-color="#fbbf24"/><stop offset="100%" stop-color="#f59e0b"/></linearGradient>
<linearGradient id="groundGrad" x1="0" y1="0" x2="0" y2="1"><stop offset="0%" stop-color="#fef3c7"/><stop offset="100%" stop-color="#fde68a"/></linearGradient>
<linearGradient id="waterGrad" x1="0" y1="0" x2="0" y2="1"><stop offset="0%" stop-color="#bfdbfe"/><stop offset="100%" stop-color="#93c5fd"/></linearGradient>
<filter id="softGlow" x="-50%" y="-50%" width="200%" height="200%"><feGaussianBlur in="SourceGraphic" stdDeviation="12"/></filter>
</defs>
<rect width="1200" height="300" fill="url(#skyGrad)"/>
<circle cx="973.7" cy="48.5" r="45" fill="#fef08a" opacity="0.12" filter="url(#softGlow)"/>
<circle cx="973.7" cy="48.5" r="30" fill="#fde68a" opacity="0.18" filter="url(#softGlow)"/>
<circle cx="973.7" cy="48.5" r="16" fill="#fef9c3" opacity="0.25" filter="url(#softGlow)"/>
<path d="M0 300 L0.0 185.4 C219.5 185.4, 219.5 176.3, 439.0 176.3 C585.6 176.3, 585.6 192.8, 732.2 192.8 C966.1 192.8, 966.1 185.3, 1200.0 185.3 L1200 300 Z" fill="url(#hillFar)" opacity="0.5"/>
<path d="M0 300 L0.0 205.2 C178.1 205.2, 178.1 203.3, 356.3 203.3 C551.0 203.3, 551.0 214.5, 745.8 214.5 C972.9 214.5, 972.9 209.3, 1200.0 209.3 L1200 300 Z" fill="url(#hillMid)" opacity="0.7"/>
<path d="M0 300 L0.0 233.2 C187.8 233.2, 187.8 235.0, 375.5 235.0 C623.9 235.0, 623.9 235.7, 872.2 235.7 C1036.1 235.7, 1036.1 233.2, 1200.0 233.2 L1200 300 Z" fill="url(#hillNear)" opacity="1"/>
<rect x="0" y="225.0" width="1200" height="75.0" fill="url(#waterGrad)" opacity="0.6"/>
<path d="M0 243.7 Q60.0 244.4 120.0 242.9 Q180.0 241.4 240.0 243.4 Q300.0 244.7 360.0 243.0 Q420.0 242.4 480.0 244.1 Q540.0 246.2 600.0 243.4 Q660.0 241.3 720.0 242.6 Q780.0 246.2 840.0 245.1 Q900.0 241.5 960.0 242.5 Q1020.0 243.9 1080.0 242.8 Q1140.0 244.7 1200.0 243.1" fill="none" stroke="#bfdbfe" stroke-width="1" opacity="0.5"/>
<path d="M0 262.5 Q60.0 264.9 120.0 261.2 Q180.0 263.9 240.0 263.2 Q300.0 261.1 360.0 262.1 Q420.0 262.7 480.0 262.5 Q540.0 262.9 600.0 263.2 Q660.0 263.5 720.0 262.8 Q780.0 261.7 840.0 264.0 Q900.0 261.7 960.0 261.9 Q1020.0 265.0 1080.0 263.4 Q1140.0 260.7 1200.0 262.6" fill="none" stroke="#bfdbfe" stroke-width="1" opacity="0.5"/>
<path d="M0 281.2 Q60.0 283.1 120.0 280.5 Q180.0 281.1 240.0 279.9 Q300.0 280.6 360.0 280.6 Q420.0 281.8 480.0 280.5 Q540.0 280.4 600.0 281.7 Q660.0 282.4 720.0 280.7 Q780.0 283.1 840.0 280.1 Q900.0 281.3 960.0 281.7 Q1020.0 279.7 1080.0 280.1 Q1140.0 283.2 1200.0 280.1" fill="none" stroke="#bfdbfe" stroke-width="1" opacity="0.5"/>
<rect x="99.9" y="199.2" width="69.2" height="100.8" rx="3" fill="url(#bldg_amber)" opacity="0.7"/>
<polygon points="99.9,199.2 134.5,176.3 169.1,199.2" fill="url(#roof_coralRoof)" opacity="0.7"/>
<rect x="145.5" y="209.2" width="6" height="8" rx="1" fill="url(#windowGlow)" opacity="0.7329137828819983"/>
<rect x="117.5" y="224.2" width="6" height="8" rx="1" fill="url(#windowGlow)" opacity="0.8489434864599925"/>
<rect x="131.5" y="224.2" width="6" height="8" rx="1" fill="url(#windowGlow)" opacity="0.9220114815617033"/>
<rect x="145.5" y="224.2" width="6" height="8" rx="1" fill="url(#windowGlow)" opacity="0.9054713102548715"/>
<rect x="117.5" y="239.2" width="6" height="8" rx="1" fill="url(#windowGlow)" opacity="0.9518198767452593"/>
<rect x="145.5" y="239.2" width="6" height="8" rx="1" fill="url(#windowGlow)" opacity="0.868717335243112"/>
<rect x="117.5" y="254.2" width="6" height="8" rx="1" fill="url(#windowGlow)" opacity="0.7555788333786553"/>
<rect x="131.5" y="254.2" width="6" height="8" rx="1" fill="url(#windowGlow)" opacity="0.7806246219578313"/>
<rect x="145.5" y="254.2" width="6" height="8" rx="1" fill="url(#windowGlow)" opacity="0.9443631226403466"/>
<rect x="323.2" y="202.6" width="57.8" height="97.4" rx="3" fill="url(#bldg_lavender)" opacity="0.7"/>
<rect x="323.2" y="199.6" width="57.8" height="3" rx="1" fill="url(#roof_tealRoof)" opacity="0.7"/>
<rect x="342.1" y="212.6" width="6" height="8" rx="1" fill="url(#windowGlow)" opacity="0.9140034090327115"/>
<rect x="356.1" y="212.6" width="6" height="8" rx="1" fill="url(#windowGlow)" opacity="0.8541860634713369"/>
<rect x="342.1" y="227.6" width="6" height="8" rx="1" fill="url(#windowGlow)" opacity="0.8008096159439578"/>
<rect x="356.1" y="227.6" width="6" height="8" rx="1" fill="url(#windowGlow)" opacity="0.793303486701708"/>
<rect x="356.1" y="242.6" width="6" height="8" rx="1" fill="url(#windowGlow)" opacity="0.7871662724237731"/>
<rect x="342.1" y="257.6" width="6" height="8" rx="1" fill="url(#windowGlow)" opacity="0.8854064873351746"/>
<rect x="356.1" y="257.6" width="6" height="8" rx="1" fill="url(#windowGlow)" opacity="0.8097562061202508"/>
<rect x="535.3" y="186.6" width="82.6" height="113.4" rx="3" fill="url(#bldg_blue)" opacity="0.7"/>
<rect x="551.8" y="173.0" width="49.5" height="13.6" rx="2" fill="url(#roof_navyRoof)" opacity="0.7"/>
<rect x="552.6" y="196.6" width="6" height="8" rx="1" fill="url(#windowGlow)" opacity="0.8583491477455707"/>
<rect x="566.6" y="196.6" width="6" height="8" rx="1" fill="url(#windowGlow)" opacity="0.9126578109863484"/>
<rect x="580.6" y="196.6" width="6" height="8" rx="1" fill="url(#windowGlow)" opacity="0.7204598986173327"/>
<rect x="594.6" y="196.6" width="6" height="8" rx="1" fill="url(#windowGlow)" opacity="0.9321127944309789"/>
<rect x="552.6" y="211.6" width="6" height="8" rx="1" fill="url(#windowGlow)" opacity="0.9782352551716543"/>
<rect x="566.6" y="211.6" width="6" height="8" rx="1" fill="url(#windowGlow)" opacity="0.8944873033531416"/>
<rect x="594.6" y="211.6" width="6" height="8" rx="1" fill="url(#windowGlow)" opacity="0.7274140277073784"/>
<rect x="552.6" y="226.6" width="6" height="8" rx="1" fill="url(#windowGlow)" opacity="0.7489922609408349"/>
<rect x="566.6" y="226.6" width="6" height="8" rx="1" fill="url(#windowGlow)" opacity="0.8002566940618011"/>
<rect x="580.6" y="226.6" width="6" height="8" rx="1" fill="url(#windowGlow)" opacity="0.9788839559438097"/>
<rect x="594.6" y="226.6" width="6" height="8" rx="1" fill="url(#windowGlow)" opacity="0.7628114764871129"/>
<rect x="552.6" y="241.6" width="6" height="8" rx="1" fill="url(#windowGlow)" opacity="0.8214446865587703"/>
<rect x="580.6" y="241.6" width="6" height="8" rx="1" fill="url(#windowGlow)" opacity="0.9730224749879084"/>
<rect x="594.6" y="241.6" width="6" height="8" rx="1" fill="url(#windowGlow)" opacity="0.7570212003574804"/>
<rect x="552.6" y="256.6" width="6" height="8" rx="1" fill="url(#windowGlow)" opacity="0.8588056560879599"/>
<rect x="566.6" y="256.6" width="6" height="8" rx="1" fill="url(#windowGlow)" opacity="0.9328496176436774"/>
<rect x="594.6" y="256.6" width="6" height="8" rx="1" fill="url(#windowGlow)" opacity="0.7149675818229874"/>
<rect x="782.1" y="226.9" width="65.0" height="73.1" rx="3" fill="url(#bldg_mint)" opacity="0.7"/>
<rect x="782.1" y="223.9" width="65.0" height="3" rx="1" fill="url(#roof_coralRoof)" opacity="0.7"/>
<rect x="797.6" y="236.9" width="6" height="8" rx="1" fill="url(#windowGlow)" opacity="0.9630326964720304"/>
<rect x="811.6" y="236.9" width="6" height="8" rx="1" fill="url(#windowGlow)" opacity="0.8893874793729686"/>
<rect x="811.6" y="251.9" width="6" height="8" rx="1" fill="url(#windowGlow)" opacity="0.9477171441296661"/>
<rect x="825.6" y="251.9" width="6" height="8" rx="1" fill="url(#windowGlow)" opacity="0.9842388947420935"/>
<rect x="1031.9" y="208.2" width="65.0" height="91.8" rx="3" fill="url(#bldg_rose)" opacity="0.7"/>
<polygon points="1031.9,208.2 1064.4,185.7 1096.9,208.2" fill="url(#roof_tealRoof)" opacity="0.7"/>
<rect x="1047.4" y="218.2" width="6" height="8" rx="1" fill="url(#windowGlow)" opacity="0.9447046185586156"/>
<rect x="1061.4" y="218.2" width="6" height="8" rx="1" fill="url(#windowGlow)" opacity="0.8867663414621568"/>
<rect x="1075.4" y="218.2" width="6" height="8" rx="1" fill="url(#windowGlow)" opacity="0.7806010544209745"/>
<rect x="1047.4" y="233.2" width="6" height="8" rx="1" fill="url(#windowGlow)" opacity="0.9459865264343035"/>
<rect x="1061.4" y="233.2" width="6" height="8" rx="1" fill="url(#windowGlow)" opacity="0.7595026558076509"/>
<rect x="1075.4" y="233.2" width="6" height="8" rx="1" fill="url(#windowGlow)" opacity="0.8260490340301995"/>
<rect x="1061.4" y="248.2" width="6" height="8" rx="1" fill="url(#windowGlow)" opacity="0.9393180553984446"/>
<rect x="1075.4" y="248.2" width="6" height="8" rx="1" fill="url(#windowGlow)" opacity="0.8664717957221305"/>
<rect x="122.0" y="143.1" width="64.3" height="156.9" rx="3" fill="url(#bldg_sky)" opacity="0.85"/>
<polygon points="122.0,143.1 154.1,124.2 186.3,143.1" fill="url(#roof_navyRoof)" opacity="0.85"/>
<rect x="137.1" y="153.1" width="6" height="8" rx="1" fill="url(#windowGlow)" opacity="0.8436984402796711"/>
<rect x="151.1" y="153.1" width="6" height="8" rx="1" fill="url(#windowGlow)" opacity="0.9297837914106359"/>
<rect x="165.1" y="153.1" width="6" height="8" rx="1" fill="url(#windowGlow)" opacity="0.8590786587256373"/>
<rect x="151.1" y="168.1" width="6" height="8" rx="1" fill="url(#windowGlow)" opacity="0.9086764161981067"/>
<rect x="137.1" y="183.1" width="6" height="8" rx="1" fill="url(#windowGlow)" opacity="0.8118083533420266"/>
<rect x="151.1" y="183.1" width="6" height="8" rx="1" fill="url(#windowGlow)" opacity="0.7748463488532445"/>
<rect x="165.1" y="183.1" width="6" height="8" rx="1" fill="url(#windowGlow)" opacity="0.8966480444169826"/>
<rect x="137.1" y="198.1" width="6" height="8" rx="1" fill="url(#windowGlow)" opacity="0.8838175570516928"/>
<rect x="151.1" y="198.1" width="6" height="8" rx="1" fill="url(#windowGlow)" opacity="0.7082429222800969"/>
<rect x="165.1" y="198.1" width="6" height="8" rx="1" fill="url(#windowGlow)" opacity="0.8666400853389129"/>
<rect x="151.1" y="213.1" width="6" height="8" rx="1" fill="url(#windowGlow)" opacity="0.7378447738186664"/>
<rect x="151.1" y="228.1" width="6" height="8" rx="1" fill="url(#windowGlow)" opacity="0.7841319370009618"/>
<rect x="165.1" y="228.1" width="6" height="8" rx="1" fill="url(#windowGlow)" opacity="0.9304213079299877"/>
<rect x="137.1" y="243.1" width="6" height="8" rx="1" fill="url(#windowGlow)" opacity="0.8813394525467135"/>
<rect x="151.1" y="243.1" width="6" height="8" rx="1" fill="url(#windowGlow)" opacity="0.8677285261767583"/>
<rect x="165.1" y="243.1" width="6" height="8" rx="1" fill="url(#windowGlow)" opacity="0.8994774579533736"/>
<rect x="137.1" y="258.1" width="6" height="8" rx="1" fill="url(#windowGlow)" opacity="0.9799991085100914"/>
<rect x="272.9" y="120.9" width="63.4" height="179.1" rx="3" fill="url(#bldg_coral)" opacity="0.85"/>
<polygon points="272.9,120.9 304.6,105.3 336.3,120.9" fill="url(#roof_coralRoof)" opacity="0.85"/>
<rect x="315.6" y="130.9" width="6" height="8" rx="1" fill="url(#windowGlow)" opacity="0.8702377493354667"/>
<rect x="287.6" y="145.9" width="6" height="8" rx="1" fill="url(#windowGlow)" opacity="0.9247394701581166"/>
<rect x="301.6" y="145.9" width="6" height="8" rx="1" fill="url(#windowGlow)" opacity="0.7177245177411122"/>
<rect x="315.6" y="145.9" width="6" height="8" rx="1" fill="url(#windowGlow)" opacity="0.7115971612798037"/>
<rect x="287.6" y="160.9" width="6" height="8" rx="1" fill="url(#windowGlow)" opacity="0.7636468759102965"/>
<rect x="301.6" y="160.9" width="6" height="8" rx="1" fill="url(#windowGlow)" opacity="0.8281399415471311"/>
<rect x="315.6" y="160.9" width="6" height="8" rx="1" fill="url(#windowGlow)" opacity="0.7711277161124757"/>
<rect x="287.6" y="175.9" width="6" height="8" rx="1" fill="url(#windowGlow)" opacity="0.9374979511077971"/>
<rect x="315.6" y="175.9" width="6" height="8" rx="1" fill="url(#windowGlow)" opacity="0.9725403571373505"/>
<rect x="287.6" y="190.9" width="6" height="8" rx="1" fill="url(#windowGlow)" opacity="0.8482915632651613"/>
<rect x="301.6" y="190.9" width="6" height="8" rx="1" fill="url(#windowGlow)" opacity="0.8954366966595112"/>
<rect x="315.6" y="190.9" width="6" height="8" rx="1" fill="url(#windowGlow)" opacity="0.9955067514420983"/>
<rect x="301.6" y="205.9" width="6" height="8" rx="1" fill="url(#windowGlow)" opacity="0.9590206483653843"/>
<rect x="315.6" y="205.9" width="6" height="8" rx="1" fill="url(#windowGlow)" opacity="0.8927633312497116"/>
<rect x="287.6" y="220.9" width="6" height="8" rx="1" fill="url(#windowGlow)" opacity="0.8219389028483717"/>
<rect x="301.6" y="220.9" width="6" height="8" rx="1" fill="url(#windowGlow)" opacity="0.7556833425796047"/>
<rect x="315.6" y="220.9" width="6" height="8" rx="1" fill="url(#windowGlow)" opacity="0.7991893296591888"/>
<rect x="287.6" y="235.9" width="6" height="8" rx="1" fill="url(#windowGlow)" opacity="0.7436243795061597"/>
<rect x="301.6" y="235.9" width="6" height="8" rx="1" fill="url(#windowGlow)" opacity="0.9142490539766145"/>
<rect x="315.6" y="235.9" width="6" height="8" rx="1" fill="url(#windowGlow)" opacity="0.8824725485325197"/>
<rect x="468.1" y="189.5" width="79.7" height="110.5" rx="3" fill="url(#bldg_teal)" opacity="0.85"/>
<polygon points="468.1,189.5 508.0,172.4 547.8,189.5" fill="url(#roof_tealRoof)" opacity="0.85"/>
<rect x="484.0" y="199.5" width="6" height="8" rx="1" fill="url(#windowGlow)" opacity="0.9451943773521083"/>
<rect x="512.0" y="199.5" width="6" height="8" rx="1" fill="url(#windowGlow)" opacity="0.8674684914608805"/>
<rect x="526.0" y="199.5" width="6" height="8" rx="1" fill="url(#windowGlow)" opacity="0.8519703326523165"/>
<rect x="498.0" y="214.5" width="6" height="8" rx="1" fill="url(#windowGlow)" opacity="0.7823114245116298"/>
<rect x="512.0" y="214.5" width="6" height="8" rx="1" fill="url(#windowGlow)" opacity="0.9173336310858529"/>
<rect x="484.0" y="229.5" width="6" height="8" rx="1" fill="url(#windowGlow)" opacity="0.8992681706320811"/>
<rect x="498.0" y="229.5" width="6" height="8" rx="1" fill="url(#windowGlow)" opacity="0.8800209295842893"/>
<rect x="512.0" y="229.5" width="6" height="8" rx="1" fill="url(#windowGlow)" opacity="0.9664603881847393"/>
<rect x="526.0" y="229.5" width="6" height="8" rx="1" fill="url(#windowGlow)" opacity="0.8381166602196715"/>
<rect x="484.0" y="244.5" width="6" height="8" rx="1" fill="url(#windowGlow)" opacity="0.9194474091843923"/>
<rect x="512.0" y="244.5" width="6" height="8" rx="1" fill="url(#windowGlow)" opacity="0.7612565866491089"/>
<rect x="526.0" y="244.5" width="6" height="8" rx="1" fill="url(#windowGlow)" opacity="0.9462280518124941"/>
<rect x="484.0" y="259.5" width="6" height="8" rx="1" fill="url(#windowGlow)" opacity="0.929790602405458"/>
<rect x="498.0" y="259.5" width="6" height="8" rx="1" fill="url(#windowGlow)" opacity="0.7163209776935731"/>
<path d="M508.0 228.2 L539.8 228.2 L536.8 234.2 L511.0 234.2 Z" fill="url(#roof_coralRoof)" opacity="0.68"/>
<rect x="634.0" y="143.2" width="79.8" height="156.8" rx="3" fill="url(#bldg_amber)" opacity="0.85"/>
<rect x="634.0" y="140.2" width="79.8" height="3" rx="1" fill="url(#roof_navyRoof)" opacity="0.85"/>
<rect x="649.9" y="153.2" width="6" height="8" rx="1" fill="url(#windowGlow)" opacity="0.8846985621306572"/>
<rect x="677.9" y="153.2" width="6" height="8" rx="1" fill="url(#windowGlow)" opacity="0.9070498838587896"/>
<rect x="691.9" y="153.2" width="6" height="8" rx="1" fill="url(#windowGlow)" opacity="0.8047326771564468"/>
<rect x="663.9" y="168.2" width="6" height="8" rx="1" fill="url(#windowGlow)" opacity="0.912014586670331"/>
<rect x="677.9" y="168.2" width="6" height="8" rx="1" fill="url(#windowGlow)" opacity="0.7135368820342872"/>
<rect x="691.9" y="168.2" width="6" height="8" rx="1" fill="url(#windowGlow)" opacity="0.7054015434372246"/>
<rect x="649.9" y="183.2" width="6" height="8" rx="1" fill="url(#windowGlow)" opacity="0.8495445380683729"/>
<rect x="663.9" y="183.2" width="6" height="8" rx="1" fill="url(#windowGlow)" opacity="0.9196689820008673"/>
<rect x="677.9" y="183.2" width="6" height="8" rx="1" fill="url(#windowGlow)" opacity="0.7430187456510117"/>
<rect x="691.9" y="183.2" width="6" height="8" rx="1" fill="url(#windowGlow)" opacity="0.8120708826519878"/>
<rect x="649.9" y="198.2" width="6" height="8" rx="1" fill="url(#windowGlow)" opacity="0.9406341857466074"/>
<rect x="677.9" y="198.2" width="6" height="8" rx="1" fill="url(#windowGlow)" opacity="0.9556056049445669"/>
<rect x="691.9" y="198.2" width="6" height="8" rx="1" fill="url(#windowGlow)" opacity="0.835372875926724"/>
<rect x="649.9" y="213.2" width="6" height="8" rx="1" fill="url(#windowGlow)" opacity="0.8823579999070419"/>
<rect x="663.9" y="213.2" width="6" height="8" rx="1" fill="url(#windowGlow)" opacity="0.7622353710989632"/>
<rect x="677.9" y="213.2" width="6" height="8" rx="1" fill="url(#windowGlow)" opacity="0.915438819730393"/>
<rect x="691.9" y="213.2" width="6" height="8" rx="1" fill="url(#windowGlow)" opacity="0.8759753167051707"/>
<rect x="649.9" y="228.2" width="6" height="8" rx="1" fill="url(#windowGlow)" opacity="0.9513318194781113"/>
<rect x="677.9" y="228.2" width="6" height="8" rx="1" fill="url(#windowGlow)" opacity="0.8353214198422252"/>
<rect x="649.9" y="243.2" width="6" height="8" rx="1" fill="url(#windowGlow)" opacity="0.9567494164950909"/>
<rect x="663.9" y="243.2" width="6" height="8" rx="1" fill="url(#windowGlow)" opacity="0.9634786064566478"/>
<rect x="677.9" y="243.2" width="6" height="8" rx="1" fill="url(#windowGlow)" opacity="0.7104705632247359"/>
<rect x="691.9" y="243.2" width="6" height="8" rx="1" fill="url(#windowGlow)" opacity="0.8918849319647462"/>
<rect x="663.9" y="258.2" width="6" height="8" rx="1" fill="url(#windowGlow)" opacity="0.996645115733447"/>
<rect x="691.9" y="258.2" width="6" height="8" rx="1" fill="url(#windowGlow)" opacity="0.7522336673700407"/>
<path d="M673.9 198.1 L705.8 198.1 L702.8 204.1 L676.9 204.1 Z" fill="url(#roof_tealRoof)" opacity="0.68"/>
<rect x="851.5" y="122.7" width="66.8" height="177.3" rx="3" fill="url(#bldg_lavender)" opacity="0.85"/>
<polygon points="851.5,122.7 884.9,106.0 918.3,122.7" fill="url(#roof_coralRoof)" opacity="0.85"/>
<rect x="867.9" y="132.7" width="6" height="8" rx="1" fill="url(#windowGlow)" opacity="0.9119245665669089"/>
<rect x="881.9" y="132.7" width="6" height="8" rx="1" fill="url(#windowGlow)" opacity="0.7084190331904305"/>
<rect x="895.9" y="132.7" width="6" height="8" rx="1" fill="url(#windowGlow)" opacity="0.741994135799815"/>
<rect x="867.9" y="147.7" width="6" height="8" rx="1" fill="url(#windowGlow)" opacity="0.7547859652688661"/>
<rect x="881.9" y="147.7" width="6" height="8" rx="1" fill="url(#windowGlow)" opacity="0.9851339875651215"/>
<rect x="895.9" y="147.7" width="6" height="8" rx="1" fill="url(#windowGlow)" opacity="0.9366327857303585"/>
<rect x="867.9" y="162.7" width="6" height="8" rx="1" fill="url(#windowGlow)" opacity="0.8545171771452376"/>
<rect x="867.9" y="177.7" width="6" height="8" rx="1" fill="url(#windowGlow)" opacity="0.9964306215739019"/>
<rect x="867.9" y="192.7" width="6" height="8" rx="1" fill="url(#windowGlow)" opacity="0.7299601569445617"/>
<rect x="881.9" y="192.7" width="6" height="8" rx="1" fill="url(#windowGlow)" opacity="0.7643517977392076"/>
<rect x="867.9" y="207.7" width="6" height="8" rx="1" fill="url(#windowGlow)" opacity="0.7353551184923178"/>
<rect x="881.9" y="207.7" width="6" height="8" rx="1" fill="url(#windowGlow)" opacity="0.7420187921458943"/>
<rect x="895.9" y="207.7" width="6" height="8" rx="1" fill="url(#windowGlow)" opacity="0.7202499706392409"/>
<rect x="867.9" y="222.7" width="6" height="8" rx="1" fill="url(#windowGlow)" opacity="0.8516543924583375"/>
<rect x="881.9" y="222.7" width="6" height="8" rx="1" fill="url(#windowGlow)" opacity="0.7715776773502946"/>
<rect x="895.9" y="222.7" width="6" height="8" rx="1" fill="url(#windowGlow)" opacity="0.7040948745813662"/>
<rect x="867.9" y="237.7" width="6" height="8" rx="1" fill="url(#windowGlow)" opacity="0.7490721538891421"/>
<rect x="881.9" y="237.7" width="6" height="8" rx="1" fill="url(#windowGlow)" opacity="0.8725457575044342"/>
<rect x="895.9" y="237.7" width="6" height="8" rx="1" fill="url(#windowGlow)" opacity="0.9858430176441757"/>
<path d="M858.2 184.8 L884.9 184.8 L881.9 190.8 L861.2 190.8 Z" fill="url(#roof_navyRoof)" opacity="0.68"/>
<rect x="1012.9" y="140.9" width="68.1" height="159.1" rx="3" fill="url(#bldg_blue)" opacity="0.85"/>
<polygon points="1012.9,140.9 1046.9,118.8 1080.9,140.9" fill="url(#roof_tealRoof)" opacity="0.85"/>
<rect x="1029.9" y="150.9" width="6" height="8" rx="1" fill="url(#windowGlow)" opacity="0.9998270147013604"/>
<rect x="1043.9" y="150.9" width="6" height="8" rx="1" fill="url(#windowGlow)" opacity="0.8809888924383507"/>
<rect x="1057.9" y="150.9" width="6" height="8" rx="1" fill="url(#windowGlow)" opacity="0.7697923948381992"/>
<rect x="1029.9" y="165.9" width="6" height="8" rx="1" fill="url(#windowGlow)" opacity="0.8228400655662826"/>
<rect x="1043.9" y="165.9" width="6" height="8" rx="1" fill="url(#windowGlow)" opacity="0.7496934610650379"/>
<rect x="1057.9" y="165.9" width="6" height="8" rx="1" fill="url(#windowGlow)" opacity="0.9256611607156978"/>
<rect x="1029.9" y="180.9" width="6" height="8" rx="1" fill="url(#windowGlow)" opacity="0.9361755209212077"/>
<rect x="1043.9" y="180.9" width="6" height="8" rx="1" fill="url(#windowGlow)" opacity="0.7377923552122863"/>
<rect x="1057.9" y="180.9" width="6" height="8" rx="1" fill="url(#windowGlow)" opacity="0.7315899058392223"/>
<rect x="1029.9" y="195.9" width="6" height="8" rx="1" fill="url(#windowGlow)" opacity="0.7601731615421237"/>
<rect x="1043.9" y="195.9" width="6" height="8" rx="1" fill="url(#windowGlow)" opacity="0.7471067649531675"/>
<rect x="1057.9" y="195.9" width="6" height="8" rx="1" fill="url(#windowGlow)" opacity="0.9849044383898864"/>
<rect x="1057.9" y="210.9" width="6" height="8" rx="1" fill="url(#windowGlow)" opacity="0.8898650898550939"/>
<rect x="1043.9" y="225.9" width="6" height="8" rx="1" fill="url(#windowGlow)" opacity="0.8565487269575468"/>
<rect x="1043.9" y="240.9" width="6" height="8" rx="1" fill="url(#windowGlow)" opacity="0.8761959264409709"/>
<rect x="1057.9" y="240.9" width="6" height="8" rx="1" fill="url(#windowGlow)" opacity="0.7209876254764327"/>
<rect x="1029.9" y="255.9" width="6" height="8" rx="1" fill="url(#windowGlow)" opacity="0.9288372383121574"/>
<rect x="1043.9" y="255.9" width="6" height="8" rx="1" fill="url(#windowGlow)" opacity="0.7479092216807925"/>
<rect x="1057.9" y="255.9" width="6" height="8" rx="1" fill="url(#windowGlow)" opacity="0.9154150358007359"/>
<path d="M1019.7 196.6 L1046.9 196.6 L1043.9 202.6 L1022.7 202.6 Z" fill="url(#roof_coralRoof)" opacity="0.68"/>
<rect x="102.5" y="76.9" width="65.5" height="223.1" rx="3" fill="url(#bldg_mint)" opacity="1"/>
<rect x="102.5" y="73.9" width="65.5" height="3" rx="1" fill="url(#roof_navyRoof)" opacity="1"/>
<rect x="118.3" y="86.9" width="6" height="8" rx="1" fill="url(#windowGlow)" opacity="0.9102722932632418"/>
<rect x="132.3" y="86.9" width="6" height="8" rx="1" fill="url(#windowGlow)" opacity="0.8852297574212913"/>
<rect x="146.3" y="86.9" width="6" height="8" rx="1" fill="url(#windowGlow)" opacity="0.9893720928064417"/>
<rect x="118.3" y="101.9" width="6" height="8" rx="1" fill="url(#windowGlow)" opacity="0.9444840042127687"/>
<rect x="132.3" y="101.9" width="6" height="8" rx="1" fill="url(#windowGlow)" opacity="0.8211759850947074"/>
<rect x="146.3" y="101.9" width="6" height="8" rx="1" fill="url(#windowGlow)" opacity="0.8115874882375763"/>
<rect x="118.3" y="116.9" width="6" height="8" rx="1" fill="url(#windowGlow)" opacity="0.8213009117736019"/>
<rect x="132.3" y="116.9" width="6" height="8" rx="1" fill="url(#windowGlow)" opacity="0.9610083932341116"/>
<rect x="146.3" y="116.9" width="6" height="8" rx="1" fill="url(#windowGlow)" opacity="0.9745280904111118"/>
<rect x="118.3" y="131.9" width="6" height="8" rx="1" fill="url(#windowGlow)" opacity="0.913008817291357"/>
<rect x="146.3" y="131.9" width="6" height="8" rx="1" fill="url(#windowGlow)" opacity="0.9682444574163502"/>
<rect x="118.3" y="146.9" width="6" height="8" rx="1" fill="url(#windowGlow)" opacity="0.8620512038758262"/>
<rect x="146.3" y="146.9" width="6" height="8" rx="1" fill="url(#windowGlow)" opacity="0.8032476353939844"/>
<rect x="118.3" y="161.9" width="6" height="8" rx="1" fill="url(#windowGlow)" opacity="0.9107923260940203"/>
<rect x="146.3" y="161.9" width="6" height="8" rx="1" fill="url(#windowGlow)" opacity="0.7627383123909767"/>
<rect x="118.3" y="176.9" width="6" height="8" rx="1" fill="url(#windowGlow)" opacity="0.7061095925542105"/>
<rect x="146.3" y="176.9" width="6" height="8" rx="1" fill="url(#windowGlow)" opacity="0.8489938067966112"/>
<rect x="130.3" y="284.0" width="10" height="16" rx="2" fill="url(#roof_navyRoof)" opacity="0.8"/>
<rect x="132.3" y="287.0" width="6" height="10" rx="1" fill="url(#windowGlow)" opacity="0.45"/>
<path d="M109.1 155.0 L135.3 155.0 L132.3 161.0 L112.1 161.0 Z" fill="url(#roof_tealRoof)" opacity="0.8"/>
<rect x="373.3" y="202.1" width="35.0" height="97.9" rx="3" fill="url(#bldg_rose)" opacity="1"/>
<polygon points="373.3,202.1 390.9,194.3 408.4,202.1" fill="url(#roof_coralRoof)" opacity="1"/>
<rect x="387.9" y="227.1" width="6" height="8" rx="1" fill="url(#windowGlow)" opacity="0.8483469698803252"/>
<rect x="387.9" y="242.1" width="6" height="8" rx="1" fill="url(#windowGlow)" opacity="0.9341510768673154"/>
<rect x="387.9" y="257.1" width="6" height="8" rx="1" fill="url(#windowGlow)" opacity="0.865295795567937"/>
<rect x="385.9" y="284.0" width="10" height="16" rx="2" fill="url(#roof_navyRoof)" opacity="0.8"/>
<rect x="387.9" y="287.0" width="6" height="10" rx="1" fill="url(#windowGlow)" opacity="0.45"/>
<rect x="585.2" y="122.6" width="35.1" height="177.4" rx="3" fill="url(#bldg_sky)" opacity="1"/>
<polygon points="585.2,122.6 602.8,111.3 620.3,122.6" fill="url(#roof_tealRoof)" opacity="1"/>
<rect x="599.8" y="132.6" width="6" height="8" rx="1" fill="url(#windowGlow)" opacity="0.9204703993724986"/>
<rect x="599.8" y="162.6" width="6" height="8" rx="1" fill="url(#windowGlow)" opacity="0.933693621230169"/>
<rect x="599.8" y="192.6" width="6" height="8" rx="1" fill="url(#windowGlow)" opacity="0.9545929011677359"/>
<rect x="599.8" y="207.6" width="6" height="8" rx="1" fill="url(#windowGlow)" opacity="0.7239640968497675"/>
<rect x="599.8" y="222.6" width="6" height="8" rx="1" fill="url(#windowGlow)" opacity="0.8031482459991929"/>
<rect x="599.8" y="237.6" width="6" height="8" rx="1" fill="url(#windowGlow)" opacity="0.7136012979380792"/>
<rect x="597.8" y="284.0" width="10" height="16" rx="2" fill="url(#roof_navyRoof)" opacity="0.8"/>
<rect x="599.8" y="287.0" width="6" height="10" rx="1" fill="url(#windowGlow)" opacity="0.45"/>
<rect x="811.7" y="83.2" width="52.7" height="216.8" rx="3" fill="url(#bldg_coral)" opacity="1"/>
<polygon points="811.7,83.2 838.0,68.7 864.4,83.2" fill="url(#roof_navyRoof)" opacity="1"/>
<rect x="828.0" y="93.2" width="6" height="8" rx="1" fill="url(#windowGlow)" opacity="0.7485427541418666"/>
<rect x="842.0" y="93.2" width="6" height="8" rx="1" fill="url(#windowGlow)" opacity="0.7692686159951931"/>
<rect x="828.0" y="108.2" width="6" height="8" rx="1" fill="url(#windowGlow)" opacity="0.7535799879364575"/>
<rect x="842.0" y="108.2" width="6" height="8" rx="1" fill="url(#windowGlow)" opacity="0.7517296830898754"/>
<rect x="828.0" y="123.2" width="6" height="8" rx="1" fill="url(#windowGlow)" opacity="0.9388222659653156"/>
<rect x="842.0" y="123.2" width="6" height="8" rx="1" fill="url(#windowGlow)" opacity="0.8233555407372096"/>
<rect x="828.0" y="138.2" width="6" height="8" rx="1" fill="url(#windowGlow)" opacity="0.8598727584163997"/>
<rect x="828.0" y="153.2" width="6" height="8" rx="1" fill="url(#windowGlow)" opacity="0.7899248260492109"/>
<rect x="842.0" y="153.2" width="6" height="8" rx="1" fill="url(#windowGlow)" opacity="0.906994505881795"/>
<rect x="828.0" y="168.2" width="6" height="8" rx="1" fill="url(#windowGlow)" opacity="0.8225814120483498"/>
<rect x="842.0" y="168.2" width="6" height="8" rx="1" fill="url(#windowGlow)" opacity="0.8750620369683308"/>
<rect x="828.0" y="183.2" width="6" height="8" rx="1" fill="url(#windowGlow)" opacity="0.7338343246997493"/>
<rect x="842.0" y="183.2" width="6" height="8" rx="1" fill="url(#windowGlow)" opacity="0.8531579273534742"/>
<rect x="828.0" y="198.2" width="6" height="8" rx="1" fill="url(#windowGlow)" opacity="0.7168605488803519"/>
<rect x="842.0" y="198.2" width="6" height="8" rx="1" fill="url(#windowGlow)" opacity="0.9175383091985891"/>
<rect x="833.0" y="284.0" width="10" height="16" rx="2" fill="url(#roof_navyRoof)" opacity="0.8"/>
<rect x="835.0" y="287.0" width="6" height="10" rx="1" fill="url(#windowGlow)" opacity="0.45"/>
<path d="M817.0 159.1 L838.0 159.1 L835.0 165.1 L820.0 165.1 Z" fill="url(#roof_tealRoof)" opacity="0.8"/>
<rect x="828.8" y="124.2" width="18.4" height="5" rx="1" fill="#15803d" opacity="0.7"/>
<circle cx="831.8" cy="123.2" r="2.5" fill="#fbbf24" opacity="0.85"/>
<circle cx="838.0" cy="123.2" r="2.5" fill="#fbbf24" opacity="0.85"/>
<circle cx="844.1" cy="123.2" r="2.5" fill="#a78bfa" opacity="0.85"/>
<rect x="1020.3" y="84.0" width="58.7" height="216.0" rx="3" fill="url(#bldg_teal)" opacity="1"/>
<rect x="1020.3" y="81.0" width="58.7" height="3" rx="1" fill="url(#roof_coralRoof)" opacity="1"/>
<rect x="1032.6" y="94.0" width="6" height="8" rx="1" fill="url(#windowGlow)" opacity="0.9302967228136475"/>
<rect x="1046.6" y="94.0" width="6" height="8" rx="1" fill="url(#windowGlow)" opacity="0.894342042037445"/>
<rect x="1032.6" y="124.0" width="6" height="8" rx="1" fill="url(#windowGlow)" opacity="0.7078305485694811"/>
<rect x="1046.6" y="124.0" width="6" height="8" rx="1" fill="url(#windowGlow)" opacity="0.7619205659543725"/>
<rect x="1060.6" y="124.0" width="6" height="8" rx="1" fill="url(#windowGlow)" opacity="0.8681852461622027"/>
<rect x="1032.6" y="139.0" width="6" height="8" rx="1" fill="url(#windowGlow)" opacity="0.8693917979343756"/>
<rect x="1046.6" y="139.0" width="6" height="8" rx="1" fill="url(#windowGlow)" opacity="0.7871255129050116"/>
<rect x="1032.6" y="154.0" width="6" height="8" rx="1" fill="url(#windowGlow)" opacity="0.9969062367439765"/>
<rect x="1046.6" y="154.0" width="6" height="8" rx="1" fill="url(#windowGlow)" opacity="0.8742901929068798"/>
<rect x="1032.6" y="169.0" width="6" height="8" rx="1" fill="url(#windowGlow)" opacity="0.7862567956961024"/>
<rect x="1060.6" y="169.0" width="6" height="8" rx="1" fill="url(#windowGlow)" opacity="0.9454800298183598"/>
<rect x="1032.6" y="184.0" width="6" height="8" rx="1" fill="url(#windowGlow)" opacity="0.7223378408338584"/>
<rect x="1032.6" y="199.0" width="6" height="8" rx="1" fill="url(#windowGlow)" opacity="0.8955616767031893"/>
<rect x="1060.6" y="199.0" width="6" height="8" rx="1" fill="url(#windowGlow)" opacity="0.8837654551415542"/>
<rect x="1044.6" y="284.0" width="10" height="16" rx="2" fill="url(#roof_navyRoof)" opacity="0.8"/>
<rect x="1046.6" y="287.0" width="6" height="10" rx="1" fill="url(#windowGlow)" opacity="0.45"/>
<path d="M1049.6 159.6 L1073.1 159.6 L1070.1 165.6 L1052.6 165.6 Z" fill="url(#roof_navyRoof)" opacity="0.8"/>
<line x1="210.5" y1="282.0" x2="210.5" y2="202.3" stroke="#f87171" stroke-width="4"/>
<line x1="210.5" y1="202.3" x2="261.9" y2="214.3" stroke="#f87171" stroke-width="3"/>
<line x1="210.5" y1="202.3" x2="192.5" y2="210.3" stroke="#f87171" stroke-width="2.5"/>
<rect x="186.5" y="210.3" width="12" height="8" fill="#ef4444" opacity="0.8"/>
<line x1="261.9" y1="214.3" x2="261.9" y2="272.0" stroke="#fda4af" stroke-width="1" opacity="0.6"/>
<path d="M270.7 285.0 Q287.1 258.4 280.5 231.7" stroke="#92400e" stroke-width="4" fill="none" stroke-linecap="round"/>
<path d="M280.5 231.7 Q269.6 221.1 262.2 221.6" stroke="#16a34a" stroke-width="2.5" fill="none" stroke-linecap="round"/>
<path d="M280.5 231.7 Q286.5 219.7 290.5 218.5" stroke="#22c55e" stroke-width="2.5" fill="none" stroke-linecap="round"/>
<path d="M280.5 231.7 Q293.3 225.7 301.9 231.7" stroke="#15803d" stroke-width="2.5" fill="none" stroke-linecap="round"/>
<path d="M280.5 231.7 Q285.7 230.9 289.1 243.1" stroke="#4ade80" stroke-width="2.5" fill="none" stroke-linecap="round"/>
<path d="M280.5 231.7 Q268.7 230.6 260.8 242.5" stroke="#16a34a" stroke-width="2.5" fill="none" stroke-linecap="round"/>
<path d="M496.8 285.0 Q508.9 255.5 504.1 226.1" stroke="#92400e" stroke-width="4" fill="none" stroke-linecap="round"/>
<path d="M504.1 226.1 Q491.2 214.7 482.7 214.3" stroke="#16a34a" stroke-width="2.5" fill="none" stroke-linecap="round"/>
<path d="M504.1 226.1 Q508.8 215.3 511.9 215.6" stroke="#22c55e" stroke-width="2.5" fill="none" stroke-linecap="round"/>
<path d="M504.1 226.1 Q518.8 220.1 528.7 226.1" stroke="#15803d" stroke-width="2.5" fill="none" stroke-linecap="round"/>
<path d="M504.1 226.1 Q511.6 227.6 516.6 242.7" stroke="#4ade80" stroke-width="2.5" fill="none" stroke-linecap="round"/>
<path d="M504.1 226.1 Q495.0 223.8 489.0 234.4" stroke="#16a34a" stroke-width="2.5" fill="none" stroke-linecap="round"/>
<path d="M716.0 285.0 Q742.1 255.6 731.7 226.2" stroke="#92400e" stroke-width="4" fill="none" stroke-linecap="round"/>
<path d="M731.7 226.2 Q719.7 215.3 711.8 215.3" stroke="#16a34a" stroke-width="2.5" fill="none" stroke-linecap="round"/>
<path d="M731.7 226.2 Q736.4 215.5 739.5 215.8" stroke="#22c55e" stroke-width="2.5" fill="none" stroke-linecap="round"/>
<path d="M731.7 226.2 Q746.6 220.2 756.5 226.2" stroke="#15803d" stroke-width="2.5" fill="none" stroke-linecap="round"/>
<path d="M731.7 226.2 Q736.7 225.3 740.1 237.4" stroke="#4ade80" stroke-width="2.5" fill="none" stroke-linecap="round"/>
<path d="M731.7 226.2 Q722.9 223.9 717.0 234.3" stroke="#16a34a" stroke-width="2.5" fill="none" stroke-linecap="round"/>
<path d="M942.3 285.0 Q970.8 263.6 959.4 242.2" stroke="#92400e" stroke-width="4" fill="none" stroke-linecap="round"/>
<path d="M959.4 242.2 Q946.8 230.9 938.4 230.6" stroke="#16a34a" stroke-width="2.5" fill="none" stroke-linecap="round"/>
<path d="M959.4 242.2 Q966.6 229.0 971.4 226.3" stroke="#22c55e" stroke-width="2.5" fill="none" stroke-linecap="round"/>
<path d="M959.4 242.2 Q973.8 236.2 983.4 242.2" stroke="#15803d" stroke-width="2.5" fill="none" stroke-linecap="round"/>
<path d="M959.4 242.2 Q964.2 241.0 967.4 252.8" stroke="#4ade80" stroke-width="2.5" fill="none" stroke-linecap="round"/>
<path d="M959.4 242.2 Q946.9 241.4 938.5 253.7" stroke="#16a34a" stroke-width="2.5" fill="none" stroke-linecap="round"/>
<path d="M75.7 285.0 Q95.4 253.9 87.5 222.8" stroke="#92400e" stroke-width="4" fill="none" stroke-linecap="round"/>
<path d="M87.5 222.8 Q77.6 212.7 71.0 213.7" stroke="#16a34a" stroke-width="2.5" fill="none" stroke-linecap="round"/>
<path d="M87.5 222.8 Q94.7 209.5 99.5 206.8" stroke="#22c55e" stroke-width="2.5" fill="none" stroke-linecap="round"/>
<path d="M87.5 222.8 Q105.3 216.8 117.1 222.8" stroke="#15803d" stroke-width="2.5" fill="none" stroke-linecap="round"/>
<path d="M87.5 222.8 Q93.1 222.5 96.9 235.3" stroke="#4ade80" stroke-width="2.5" fill="none" stroke-linecap="round"/>
<path d="M87.5 222.8 Q78.8 220.4 73.1 230.7" stroke="#16a34a" stroke-width="2.5" fill="none" stroke-linecap="round"/>
<rect x="0" y="282" width="1200" height="18" fill="url(#groundGrad)"/>
<line x1="525.0" y1="282.0" x2="525.0" y2="244.9" stroke="#92400e" stroke-width="2"/>
<circle cx="525.0" cy="244.9" r="4" fill="#fef08a" opacity="0.6"/>
<circle cx="525.0" cy="244.9" r="8" fill="#fef08a" opacity="0.15" filter="url(#softGlow)"/>
<ellipse cx="1012.3" cy="282.0" rx="4.1" ry="2.9" fill="#22c55e" opacity="0.6"/>
<ellipse cx="181.1" cy="282.0" rx="4.6" ry="3.2" fill="#22c55e" opacity="0.6"/>
<ellipse cx="218.5" cy="282.0" rx="4.5" ry="3.2" fill="#22c55e" opacity="0.6"/>
<ellipse cx="762.7" cy="282.0" rx="4.6" ry="3.2" fill="#22c55e" opacity="0.6"/>
</svg>