<svg xmlns="http://www.w3.org/2000/svg" viewBox="0 0 1200 300" width="1200" height="300">
<rect width="1200" height="300" fill="#e0eff2"/>
<path d="M0 300 L0 210.0 C250.1 174.4, 939.9 186.1, 1200 210.0 L1200 300 Z" fill="#aac2c9" opacity="0.3"/>
<rect x="79.8" y="221.7" width="82.0" height="78.3" fill="#8aabb4"/>
<rect x="348.3" y="204.4" width="86.0" height="95.6" fill="#8aabb4"/>
<rect x="539.4" y="217.5" width="84.2" height="82.5" fill="#8aabb4"/>
<rect x="775.5" y="196.3" width="79.7" height="103.7" fill="#8aabb4"/>
<rect x="1055.2" y="215.7" width="50.9" height="84.3" fill="#8aabb4"/>
<rect x="113.6" y="122.7" width="60.6" height="177.3" fill="#558592"/>
<rect x="127.0" y="134.7" width="6" height="8" fill="#91b0b8" opacity="0.5"/>
<rect x="141.0" y="134.7" width="6" height="8" fill="#91b0b8" opacity="0.5"/>
<rect x="155.0" y="134.7" width="6" height="8" fill="#91b0b8" opacity="0.5"/>
<rect x="141.0" y="150.7" width="6" height="8" fill="#91b0b8" opacity="0.5"/>
<rect x="155.0" y="150.7" width="6" height="8" fill="#91b0b8" opacity="0.5"/>
<rect x="141.0" y="166.7" width="6" height="8" fill="#91b0b8" opacity="0.5"/>
<rect x="155.0" y="166.7" width="6" height="8" fill="#91b0b8" opacity="0.5"/>
<rect x="127.0" y="182.7" width="6" height="8" fill="#91b0b8" opacity="0.5"/>
<rect x="155.0" y="182.7" width="6" height="8" fill="#91b0b8" opacity="0.5"/>
<rect x="127.0" y="198.7" width="6" height="8" fill="#91b0b8" opacity="0.5"/>
<rect x="141.0" y="198.7" width="6" height="8" fill="#91b0b8" opacity="0.5"/>
<rect x="155.0" y="198.7" width="6" height="8" fill="#91b0b8" opacity="0.5"/>
<rect x="127.0" y="214.7" width="6" height="8" fill="#91b0b8" opacity="0.5"/>
<rect x="155.0" y="214.7" width="6" height="8" fill="#91b0b8" opacity="0.5"/>
<rect x="127.0" y="230.7" width="6" height="8" fill="#91b0b8" opacity="0.5"/>
<rect x="141.0" y="230.7" width="6" height="8" fill="#91b0b8" opacity="0.5"/>
<rect x="155.0" y="246.7" width="6" height="8" fill="#91b0b8" opacity="0.5"/>
<rect x="127.0" y="262.7" width="6" height="8" fill="#91b0b8" opacity="0.5"/>
<rect x="141.0" y="262.7" width="6" height="8" fill="#91b0b8" opacity="0.5"/>
<rect x="300.2" y="161.9" width="44.7" height="138.1" fill="#558592"/>
<rect x="312.6" y="173.9" width="6" height="8" fill="#91b0b8" opacity="0.5"/>
<rect x="326.6" y="173.9" width="6" height="8" fill="#91b0b8" opacity="0.5"/>
<rect x="326.6" y="189.9" width="6" height="8" fill="#91b0b8" opacity="0.5"/>
<rect x="312.6" y="205.9" width="6" height="8" fill="#91b0b8" opacity="0.5"/>
<rect x="312.6" y="221.9" width="6" height="8" fill="#91b0b8" opacity="0.5"/>
<rect x="326.6" y="221.9" width="6" height="8" fill="#91b0b8" opacity="0.5"/>
<rect x="312.6" y="237.9" width="6" height="8" fill="#91b0b8" opacity="0.5"/>
<rect x="312.6" y="253.9" width="6" height="8" fill="#91b0b8" opacity="0.5"/>
<rect x="326.6" y="253.9" width="6" height="8" fill="#91b0b8" opacity="0.5"/>
<rect x="312.6" y="269.9" width="6" height="8" fill="#91b0b8" opacity="0.5"/>
<rect x="326.6" y="269.9" width="6" height="8" fill="#91b0b8" opacity="0.5"/>
<rect x="473.1" y="129.4" width="36.4" height="170.6" fill="#558592"/>
<rect x="488.3" y="141.4" width="6" height="8" fill="#91b0b8" opacity="0.5"/>
<rect x="488.3" y="157.4" width="6" height="8" fill="#91b0b8" opacity="0.5"/>
<rect x="488.3" y="173.4" width="6" height="8" fill="#91b0b8" opacity="0.5"/>
<rect x="488.3" y="205.4" width="6" height="8" fill="#91b0b8" opacity="0.5"/>
<rect x="488.3" y="221.4" width="6" height="8" fill="#91b0b8" opacity="0.5"/>
<rect x="488.3" y="237.4" width="6" height="8" fill="#91b0b8" opacity="0.5"/>
<rect x="488.3" y="253.4" width="6" height="8" fill="#91b0b8" opacity="0.5"/>
<rect x="488.3" y="269.4" width="6" height="8" fill="#91b0b8" opacity="0.5"/>
<rect x="648.9" y="162.1" width="62.5" height="137.9" fill="#558592"/>
<rect x="677.1" y="174.1" width="6" height="8" fill="#91b0b8" opacity="0.5"/>
<rect x="691.1" y="174.1" width="6" height="8" fill="#91b0b8" opacity="0.5"/>
<rect x="663.1" y="190.1" width="6" height="8" fill="#91b0b8" opacity="0.5"/>
<rect x="677.1" y="190.1" width="6" height="8" fill="#91b0b8" opacity="0.5"/>
<rect x="691.1" y="190.1" width="6" height="8" fill="#91b0b8" opacity="0.5"/>
<rect x="677.1" y="206.1" width="6" height="8" fill="#91b0b8" opacity="0.5"/>
<rect x="691.1" y="206.1" width="6" height="8" fill="#91b0b8" opacity="0.5"/>
<rect x="677.1" y="222.1" width="6" height="8" fill="#91b0b8" opacity="0.5"/>
<rect x="663.1" y="238.1" width="6" height="8" fill="#91b0b8" opacity="0.5"/>
<rect x="663.1" y="254.1" width="6" height="8" fill="#91b0b8" opacity="0.5"/>
<rect x="677.1" y="254.1" width="6" height="8" fill="#91b0b8" opacity="0.5"/>
<rect x="691.1" y="254.1" width="6" height="8" fill="#91b0b8" opacity="0.5"/>
<rect x="663.1" y="270.1" width="6" height="8" fill="#91b0b8" opacity="0.5"/>
<rect x="677.1" y="270.1" width="6" height="8" fill="#91b0b8" opacity="0.5"/>
<rect x="691.1" y="270.1" width="6" height="8" fill="#91b0b8" opacity="0.5"/>
<rect x="824.5" y="201.8" width="79.3" height="98.2" fill="#558592"/>
<rect x="840.1" y="213.8" width="6" height="8" fill="#91b0b8" opacity="0.5"/>
<rect x="854.1" y="213.8" width="6" height="8" fill="#91b0b8" opacity="0.5"/>
<rect x="868.1" y="213.8" width="6" height="8" fill="#91b0b8" opacity="0.5"/>
<rect x="882.1" y="213.8" width="6" height="8" fill="#91b0b8" opacity="0.5"/>
<rect x="840.1" y="229.8" width="6" height="8" fill="#91b0b8" opacity="0.5"/>
<rect x="854.1" y="229.8" width="6" height="8" fill="#91b0b8" opacity="0.5"/>
<rect x="840.1" y="245.8" width="6" height="8" fill="#91b0b8" opacity="0.5"/>
<rect x="868.1" y="245.8" width="6" height="8" fill="#91b0b8" opacity="0.5"/>
<rect x="882.1" y="245.8" width="6" height="8" fill="#91b0b8" opacity="0.5"/>
<rect x="840.1" y="261.8" width="6" height="8" fill="#91b0b8" opacity="0.5"/>
<rect x="854.1" y="261.8" width="6" height="8" fill="#91b0b8" opacity="0.5"/>
<rect x="868.1" y="261.8" width="6" height="8" fill="#91b0b8" opacity="0.5"/>
<rect x="882.1" y="261.8" width="6" height="8" fill="#91b0b8" opacity="0.5"/>
<rect x="1064.0" y="193.0" width="78.4" height="107.0" fill="#558592"/>
<rect x="1079.2" y="205.0" width="6" height="8" fill="#91b0b8" opacity="0.5"/>
<rect x="1093.2" y="205.0" width="6" height="8" fill="#91b0b8" opacity="0.5"/>
<rect x="1121.2" y="205.0" width="6" height="8" fill="#91b0b8" opacity="0.5"/>
<rect x="1079.2" y="221.0" width="6" height="8" fill="#91b0b8" opacity="0.5"/>
<rect x="1093.2" y="221.0" width="6" height="8" fill="#91b0b8" opacity="0.5"/>
<rect x="1121.2" y="221.0" width="6" height="8" fill="#91b0b8" opacity="0.5"/>
<rect x="1079.2" y="237.0" width="6" height="8" fill="#91b0b8" opacity="0.5"/>
<rect x="1093.2" y="237.0" width="6" height="8" fill="#91b0b8" opacity="0.5"/>
<rect x="1107.2" y="237.0" width="6" height="8" fill="#91b0b8" opacity="0.5"/>
<rect x="1121.2" y="237.0" width="6" height="8" fill="#91b0b8" opacity="0.5"/>
<rect x="1079.2" y="253.0" width="6" height="8" fill="#91b0b8" opacity="0.5"/>
<rect x="1093.2" y="253.0" width="6" height="8" fill="#91b0b8" opacity="0.5"/>
<rect x="1107.2" y="253.0" width="6" height="8" fill="#91b0b8" opacity="0.5"/>
<rect x="1121.2" y="253.0" width="6" height="8" fill="#91b0b8" opacity="0.5"/>
<rect x="1079.2" y="269.0" width="6" height="8" fill="#91b0b8" opacity="0.5"/>
<rect x="1093.2" y="269.0" width="6" height="8" fill="#91b0b8" opacity="0.5"/>
<rect x="1121.2" y="269.0" width="6" height="8" fill="#91b0b8" opacity="0.5"/>
<rect x="79.7" y="142.6" width="32.2" height="157.4" fill="#2b6777"/>
<rect x="92.8" y="170.6" width="6" height="8" fill="#759ca7" opacity="0.5"/>
<rect x="92.8" y="186.6" width="6" height="8" fill="#759ca7" opacity="0.5"/>
<rect x="92.8" y="202.6" width="6" height="8" fill="#759ca7" opacity="0.5"/>
<rect x="92.8" y="218.6" width="6" height="8" fill="#759ca7" opacity="0.5"/>
<rect x="92.8" y="234.6" width="6" height="8" fill="#759ca7" opacity="0.5"/>
<rect x="92.8" y="250.6" width="6" height="8" fill="#759ca7" opacity="0.5"/>
<rect x="92.8" y="266.6" width="6" height="8" fill="#759ca7" opacity="0.5"/>
<rect x="262.1" y="225.7" width="42.7" height="74.3" fill="#2b6777"/>
<rect x="280.4" y="237.7" width="6" height="8" fill="#759ca7" opacity="0.5"/>
<rect x="280.4" y="253.7" width="6" height="8" fill="#759ca7" opacity="0.5"/>
<rect x="280.4" y="269.7" width="6" height="8" fill="#759ca7" opacity="0.5"/>
<rect x="410.9" y="98.0" width="74.4" height="202.0" fill="#2b6777"/>
<rect x="424.1" y="110.0" width="6" height="8" fill="#759ca7" opacity="0.5"/>
<rect x="452.1" y="110.0" width="6" height="8" fill="#759ca7" opacity="0.5"/>
<rect x="466.1" y="110.0" width="6" height="8" fill="#759ca7" opacity="0.5"/>
<rect x="424.1" y="126.0" width="6" height="8" fill="#759ca7" opacity="0.5"/>
<rect x="438.1" y="126.0" width="6" height="8" fill="#759ca7" opacity="0.5"/>
<rect x="452.1" y="126.0" width="6" height="8" fill="#759ca7" opacity="0.5"/>
<rect x="466.1" y="126.0" width="6" height="8" fill="#759ca7" opacity="0.5"/>
<rect x="438.1" y="142.0" width="6" height="8" fill="#759ca7" opacity="0.5"/>
<rect x="466.1" y="142.0" width="6" height="8" fill="#759ca7" opacity="0.5"/>
<rect x="438.1" y="158.0" width="6" height="8" fill="#759ca7" opacity="0.5"/>
<rect x="452.1" y="158.0" width="6" height="8" fill="#759ca7" opacity="0.5"/>
<rect x="466.1" y="158.0" width="6" height="8" fill="#759ca7" opacity="0.5"/>
<rect x="424.1" y="174.0" width="6" height="8" fill="#759ca7" opacity="0.5"/>
<rect x="438.1" y="174.0" width="6" height="8" fill="#759ca7" opacity="0.5"/>
<rect x="466.1" y="174.0" width="6" height="8" fill="#759ca7" opacity="0.5"/>
<rect x="424.1" y="190.0" width="6" height="8" fill="#759ca7" opacity="0.5"/>
<rect x="452.1" y="190.0" width="6" height="8" fill="#759ca7" opacity="0.5"/>
<rect x="466.1" y="190.0" width="6" height="8" fill="#759ca7" opacity="0.5"/>
<rect x="424.1" y="206.0" width="6" height="8" fill="#759ca7" opacity="0.5"/>
<rect x="452.1" y="206.0" width="6" height="8" fill="#759ca7" opacity="0.5"/>
<rect x="466.1" y="206.0" width="6" height="8" fill="#759ca7" opacity="0.5"/>
<rect x="424.1" y="222.0" width="6" height="8" fill="#759ca7" opacity="0.5"/>
<rect x="438.1" y="222.0" width="6" height="8" fill="#759ca7" opacity="0.5"/>
<rect x="466.1" y="222.0" width="6" height="8" fill="#759ca7" opacity="0.5"/>
<rect x="438.1" y="238.0" width="6" height="8" fill="#759ca7" opacity="0.5"/>
<rect x="452.1" y="238.0" width="6" height="8" fill="#759ca7" opacity="0.5"/>
<rect x="466.1" y="238.0" width="6" height="8" fill="#759ca7" opacity="0.5"/>
<rect x="424.1" y="254.0" width="6" height="8" fill="#759ca7" opacity="0.5"/>
<rect x="438.1" y="254.0" width="6" height="8" fill="#759ca7" opacity="0.5"/>
<rect x="424.1" y="270.0" width="6" height="8" fill="#759ca7" opacity="0.5"/>
<rect x="438.1" y="270.0" width="6" height="8" fill="#759ca7" opacity="0.5"/>
<rect x="452.1" y="270.0" width="6" height="8" fill="#759ca7" opacity="0.5"/>
<rect x="466.1" y="270.0" width="6" height="8" fill="#759ca7" opacity="0.5"/>
<rect x="562.8" y="148.7" width="46.7" height="151.3" fill="#2b6777"/>
<rect x="576.2" y="160.7" width="6" height="8" fill="#759ca7" opacity="0.5"/>
<rect x="590.2" y="160.7" width="6" height="8" fill="#759ca7" opacity="0.5"/>
<rect x="576.2" y="176.7" width="6" height="8" fill="#759ca7" opacity="0.5"/>
<rect x="590.2" y="176.7" width="6" height="8" fill="#759ca7" opacity="0.5"/>
<rect x="576.2" y="192.7" width="6" height="8" fill="#759ca7" opacity="0.5"/>
<rect x="590.2" y="192.7" width="6" height="8" fill="#759ca7" opacity="0.5"/>
<rect x="576.2" y="208.7" width="6" height="8" fill="#759ca7" opacity="0.5"/>
<rect x="590.2" y="208.7" width="6" height="8" fill="#759ca7" opacity="0.5"/>
<rect x="576.2" y="224.7" width="6" height="8" fill="#759ca7" opacity="0.5"/>
<rect x="590.2" y="240.7" width="6" height="8" fill="#759ca7" opacity="0.5"/>
<rect x="576.2" y="256.7" width="6" height="8" fill="#759ca7" opacity="0.5"/>
<rect x="576.2" y="272.7" width="6" height="8" fill="#759ca7" opacity="0.5"/>
<rect x="590.2" y="272.7" width="6" height="8" fill="#759ca7" opacity="0.5"/>
<line x1="586.2" y1="148.7" x2="586.2" y2="132.4" stroke="#2b6777" stroke-width="2"/>
<rect x="747.7" y="136.9" width="53.9" height="163.1" fill="#2b6777"/>
<rect x="764.7" y="148.9" width="6" height="8" fill="#759ca7" opacity="0.5"/>
<rect x="778.7" y="148.9" width="6" height="8" fill="#759ca7" opacity="0.5"/>
<rect x="764.7" y="164.9" width="6" height="8" fill="#759ca7" opacity="0.5"/>
<rect x="778.7" y="164.9" width="6" height="8" fill="#759ca7" opacity="0.5"/>
<rect x="764.7" y="180.9" width="6" height="8" fill="#759ca7" opacity="0.5"/>
<rect x="778.7" y="180.9" width="6" height="8" fill="#759ca7" opacity="0.5"/>
<rect x="764.7" y="196.9" width="6" height="8" fill="#759ca7" opacity="0.5"/>
<rect x="778.7" y="196.9" width="6" height="8" fill="#759ca7" opacity="0.5"/>
<rect x="778.7" y="212.9" width="6" height="8" fill="#759ca7" opacity="0.5"/>
<rect x="764.7" y="228.9" width="6" height="8" fill="#759ca7" opacity="0.5"/>
<rect x="764.7" y="244.9" width="6" height="8" fill="#759ca7" opacity="0.5"/>
<rect x="778.7" y="244.9" width="6" height="8" fill="#759ca7" opacity="0.5"/>
<rect x="764.7" y="260.9" width="6" height="8" fill="#759ca7" opacity="0.5"/>
<rect x="907.5" y="60.9" width="56.4" height="239.1" fill="#2b6777"/>
<rect x="925.7" y="72.9" width="6" height="8" fill="#759ca7" opacity="0.5"/>
<rect x="939.7" y="72.9" width="6" height="8" fill="#759ca7" opacity="0.5"/>
<rect x="925.7" y="88.9" width="6" height="8" fill="#759ca7" opacity="0.5"/>
<rect x="939.7" y="88.9" width="6" height="8" fill="#759ca7" opacity="0.5"/>
<rect x="939.7" y="104.9" width="6" height="8" fill="#759ca7" opacity="0.5"/>
<rect x="925.7" y="120.9" width="6" height="8" fill="#759ca7" opacity="0.5"/>
<rect x="925.7" y="136.9" width="6" height="8" fill="#759ca7" opacity="0.5"/>
<rect x="925.7" y="168.9" width="6" height="8" fill="#759ca7" opacity="0.5"/>
<rect x="939.7" y="168.9" width="6" height="8" fill="#759ca7" opacity="0.5"/>
<rect x="925.7" y="184.9" width="6" height="8" fill="#759ca7" opacity="0.5"/>
<rect x="939.7" y="184.9" width="6" height="8" fill="#759ca7" opacity="0.5"/>
<rect x="925.7" y="200.9" width="6" height="8" fill="#759ca7" opacity="0.5"/>
<rect x="939.7" y="200.9" width="6" height="8" fill="#759ca7" opacity="0.5"/>
<rect x="925.7" y="216.9" width="6" height="8" fill="#759ca7" opacity="0.5"/>
<rect x="939.7" y="216.9" width="6" height="8" fill="#759ca7" opacity="0.5"/>
<rect x="939.7" y="232.9" width="6" height="8" fill="#759ca7" opacity="0.5"/>
<rect x="925.7" y="248.9" width="6" height="8" fill="#759ca7" opacity="0.5"/>
<rect x="939.7" y="248.9" width="6" height="8" fill="#759ca7" opacity="0.5"/>
<rect x="1056.2" y="178.0" width="45.2" height="122.0" fill="#2b6777"/>
<rect x="1082.8" y="190.0" width="6" height="8" fill="#759ca7" opacity="0.5"/>
<rect x="1082.8" y="206.0" width="6" height="8" fill="#759ca7" opacity="0.5"/>
<rect x="1068.8" y="238.0" width="6" height="8" fill="#759ca7" opacity="0.5"/>
<rect x="1082.8" y="238.0" width="6" height="8" fill="#759ca7" opacity="0.5"/>
<rect x="1068.8" y="254.0" width="6" height="8" fill="#759ca7" opacity="0.5"/>
<rect x="1082.8" y="254.0" width="6" height="8" fill="#759ca7" opacity="0.5"/>
<rect x="1068.8" y="270.0" width="6" height="8" fill="#759ca7" opacity="0.5"/>
<rect x="0" y="298" width="1200" height="2" fill="#275d6b" opacity="0.15"/>
</svg>