<svg xmlns="http://www.w3.org/2000/svg" viewBox="0 0 1200 300" width="1200" height="300">
<defs><linearGradient id="skyGrad" x1="0" y1="0" x2="0" y2="1"><stop offset="0%" stop-color="#e8f0f8"/><stop offset="100%" stop-color="#f5e6d8"/></linearGradient></defs><rect width="1200" height="300" fill="url(#skyGrad)"/>
<rect x="242.8" y="248.6" width="67.1" height="51.4" fill="#8aabb4"/>
<rect x="254.6" y="239.5" width="43.6" height="9.1" fill="#83a2ab"/>
<rect x="616.1" y="232.0" width="63.2" height="68.0" fill="#8aabb4"/>
<polygon points="616.1,232.0 647.7,216.2 679.3,232.0" fill="#7f9da6"/>
<rect x="900.2" y="188.7" width="76.6" height="111.3" fill="#8aabb4"/>
<rect x="159.5" y="176.2" width="73.0" height="123.8" fill="#558592"/>
<rect x="172.3" y="154.4" width="47.5" height="21.8" fill="#517e8b"/>
<rect x="179.0" y="166.4" width="6" height="8" fill="#91b0b8" opacity="0.5"/>
<rect x="207.0" y="182.4" width="6" height="8" fill="#91b0b8" opacity="0.5"/>
<rect x="193.0" y="198.4" width="6" height="8" fill="#91b0b8" opacity="0.5"/>
<rect x="193.0" y="214.4" width="6" height="8" fill="#91b0b8" opacity="0.5"/>
<rect x="207.0" y="214.4" width="6" height="8" fill="#91b0b8" opacity="0.5"/>
<rect x="179.0" y="230.4" width="6" height="8" fill="#91b0b8" opacity="0.5"/>
<rect x="193.0" y="230.4" width="6" height="8" fill="#91b0b8" opacity="0.5"/>
<rect x="193.0" y="246.4" width="6" height="8" fill="#91b0b8" opacity="0.5"/>
<rect x="207.0" y="246.4" width="6" height="8" fill="#91b0b8" opacity="0.5"/>
<rect x="454.6" y="163.6" width="54.4" height="136.4" fill="#558592"/>
<rect x="464.1" y="139.5" width="35.4" height="24.1" fill="#517e8b"/>
<rect x="471.8" y="151.5" width="6" height="8" fill="#91b0b8" opacity="0.5"/>
<rect x="485.8" y="151.5" width="6" height="8" fill="#91b0b8" opacity="0.5"/>
<rect x="471.8" y="167.5" width="6" height="8" fill="#91b0b8" opacity="0.5"/>
<rect x="471.8" y="183.5" width="6" height="8" fill="#91b0b8" opacity="0.5"/>
<rect x="471.8" y="199.5" width="6" height="8" fill="#91b0b8" opacity="0.5"/>
<rect x="485.8" y="199.5" width="6" height="8" fill="#91b0b8" opacity="0.5"/>
<rect x="471.8" y="215.5" width="6" height="8" fill="#91b0b8" opacity="0.5"/>
<rect x="485.8" y="215.5" width="6" height="8" fill="#91b0b8" opacity="0.5"/>
<rect x="485.8" y="231.5" width="6" height="8" fill="#91b0b8" opacity="0.5"/>
<rect x="694.8" y="211.8" width="58.0" height="88.2" fill="#558592"/>
<polygon points="694.8,211.8 723.8,197.3 752.9,211.8" fill="#4e7a86"/>
<rect x="706.8" y="223.8" width="6" height="8" fill="#91b0b8" opacity="0.5"/>
<rect x="720.8" y="223.8" width="6" height="8" fill="#91b0b8" opacity="0.5"/>
<rect x="734.8" y="239.8" width="6" height="8" fill="#91b0b8" opacity="0.5"/>
<rect x="706.8" y="255.8" width="6" height="8" fill="#91b0b8" opacity="0.5"/>
<rect x="720.8" y="255.8" width="6" height="8" fill="#91b0b8" opacity="0.5"/>
<rect x="734.8" y="255.8" width="6" height="8" fill="#91b0b8" opacity="0.5"/>
<rect x="706.8" y="271.8" width="6" height="8" fill="#91b0b8" opacity="0.5"/>
<rect x="720.8" y="271.8" width="6" height="8" fill="#91b0b8" opacity="0.5"/>
<rect x="734.8" y="271.8" width="6" height="8" fill="#91b0b8" opacity="0.5"/>
<rect x="959.1" y="150.4" width="79.8" height="149.6" fill="#558592"/>
<polygon points="959.1,150.4 998.9,130.4 1038.8,150.4" fill="#4e7a86"/>
<rect x="981.9" y="162.4" width="6" height="8" fill="#91b0b8" opacity="0.5"/>
<rect x="995.9" y="162.4" width="6" height="8" fill="#91b0b8" opacity="0.5"/>
<rect x="981.9" y="178.4" width="6" height="8" fill="#91b0b8" opacity="0.5"/>
<rect x="995.9" y="178.4" width="6" height="8" fill="#91b0b8" opacity="0.5"/>
<rect x="1009.9" y="178.4" width="6" height="8" fill="#91b0b8" opacity="0.5"/>
<rect x="981.9" y="194.4" width="6" height="8" fill="#91b0b8" opacity="0.5"/>
<rect x="995.9" y="210.4" width="6" height="8" fill="#91b0b8" opacity="0.5"/>
<rect x="1009.9" y="210.4" width="6" height="8" fill="#91b0b8" opacity="0.5"/>
<rect x="981.9" y="226.4" width="6" height="8" fill="#91b0b8" opacity="0.5"/>
<rect x="1009.9" y="226.4" width="6" height="8" fill="#91b0b8" opacity="0.5"/>
<rect x="981.9" y="242.4" width="6" height="8" fill="#91b0b8" opacity="0.5"/>
<rect x="995.9" y="242.4" width="6" height="8" fill="#91b0b8" opacity="0.5"/>
<rect x="1009.9" y="242.4" width="6" height="8" fill="#91b0b8" opacity="0.5"/>
<rect x="239.3" y="115.2" width="40.4" height="184.8" fill="#2b6777"/>
<rect x="256.5" y="127.2" width="6" height="8" fill="#759ca7" opacity="0.5"/>
<rect x="256.5" y="159.2" width="6" height="8" fill="#759ca7" opacity="0.5"/>
<rect x="256.5" y="175.2" width="6" height="8" fill="#759ca7" opacity="0.5"/>
<rect x="256.5" y="191.2" width="6" height="8" fill="#759ca7" opacity="0.5"/>
<rect x="256.5" y="207.2" width="6" height="8" fill="#759ca7" opacity="0.5"/>
<rect x="526.8" y="203.7" width="34.5" height="96.3" fill="#2b6777"/>
<polygon points="526.8,203.7 544.1,195.1 561.3,203.7" fill="#285f6d"/>
<rect x="541.1" y="215.7" width="6" height="8" fill="#759ca7" opacity="0.5"/>
<rect x="541.1" y="231.7" width="6" height="8" fill="#759ca7" opacity="0.5"/>
<rect x="541.1" y="247.7" width="6" height="8" fill="#759ca7" opacity="0.5"/>
<rect x="924.3" y="179.0" width="42.6" height="121.0" fill="#2b6777"/>
<rect x="942.6" y="223.0" width="6" height="8" fill="#759ca7" opacity="0.5"/>
<rect x="942.6" y="239.0" width="6" height="8" fill="#759ca7" opacity="0.5"/>
<rect x="942.6" y="255.0" width="6" height="8" fill="#759ca7" opacity="0.5"/>
<path d="M403.3 285.0 Q432.7 256.6 423.8 228.2" fill="none" stroke="#856e51" stroke-width="3"/>
<path d="M423.8 228.2 Q413.1 219.3 405.9 220.4" fill="none" stroke="#44803a" stroke-width="2.5"/>
<path d="M423.8 228.2 Q427.6 217.5 430.0 216.8" fill="none" stroke="#44803a" stroke-width="2.5"/>
<path d="M423.8 228.2 Q440.5 223.2 451.6 228.2" fill="none" stroke="#44803a" stroke-width="2.5"/>
<path d="M423.8 228.2 Q428.2 230.0 431.2 241.8" fill="none" stroke="#44803a" stroke-width="2.5"/>
<path d="M423.8 228.2 Q410.2 228.2 401.0 238.2" fill="none" stroke="#44803a" stroke-width="2.5"/>
<path d="M742.8 285.0 Q758.3 262.0 753.6 239.0" fill="none" stroke="#816b4f" stroke-width="3"/>
<path d="M753.6 239.0 Q744.7 230.8 738.7 232.5" fill="none" stroke="#44813a" stroke-width="2.5"/>
<path d="M753.6 239.0 Q757.8 227.6 760.5 226.3" fill="none" stroke="#44813a" stroke-width="2.5"/>
<path d="M753.6 239.0 Q771.0 234.0 782.6 239.0" fill="none" stroke="#44813a" stroke-width="2.5"/>
<path d="M753.6 239.0 Q758.1 240.9 761.1 252.8" fill="none" stroke="#44813a" stroke-width="2.5"/>
<path d="M753.6 239.0 Q744.7 237.3 738.8 245.5" fill="none" stroke="#44813a" stroke-width="2.5"/>
<path d="M1042.8 285.0 Q1065.8 264.6 1058.9 244.2" fill="none" stroke="#7f694e" stroke-width="3"/>
<path d="M1058.9 244.2 Q1047.2 235.0 1039.4 235.7" fill="none" stroke="#46843b" stroke-width="2.5"/>
<path d="M1058.9 244.2 Q1062.3 234.1 1064.5 233.9" fill="none" stroke="#46843b" stroke-width="2.5"/>
<path d="M1058.9 244.2 Q1071.2 239.2 1079.5 244.2" fill="none" stroke="#46843b" stroke-width="2.5"/>
<path d="M1058.9 244.2 Q1064.0 247.0 1067.4 259.9" fill="none" stroke="#46843b" stroke-width="2.5"/>
<path d="M1058.9 244.2 Q1049.7 242.6 1043.6 250.9" fill="none" stroke="#46843b" stroke-width="2.5"/>
<path d="M933.6 285.0 Q955.1 257.5 948.6 230.0" fill="none" stroke="#776249" stroke-width="3"/>
<path d="M948.6 230.0 Q938.7 221.4 932.1 222.8" fill="none" stroke="#437f39" stroke-width="2.5"/>
<path d="M948.6 230.0 Q952.4 219.3 954.9 218.5" fill="none" stroke="#437f39" stroke-width="2.5"/>
<path d="M948.6 230.0 Q961.7 225.0 970.4 230.0" fill="none" stroke="#437f39" stroke-width="2.5"/>
<path d="M948.6 230.0 Q953.1 231.9 956.1 243.8" fill="none" stroke="#437f39" stroke-width="2.5"/>
<path d="M948.6 230.0 Q936.1 229.5 927.8 239.1" fill="none" stroke="#437f39" stroke-width="2.5"/>
<path d="M398.9 285.0 Q417.0 256.4 411.6 227.7" fill="none" stroke="#887053" stroke-width="3"/>
<path d="M411.6 227.7 Q398.1 217.8 389.1 217.9" fill="none" stroke="#46843b" stroke-width="2.5"/>
<path d="M411.6 227.7 Q415.5 216.6 418.1 215.6" fill="none" stroke="#46843b" stroke-width="2.5"/>
<path d="M411.6 227.7 Q427.5 222.7 438.2 227.7" fill="none" stroke="#46843b" stroke-width="2.5"/>
<path d="M411.6 227.7 Q416.4 230.2 419.6 242.6" fill="none" stroke="#46843b" stroke-width="2.5"/>
<path d="M411.6 227.7 Q397.8 227.7 388.7 237.7" fill="none" stroke="#46843b" stroke-width="2.5"/>
<path d="M115.5 285.0 Q131.4 255.6 126.6 226.2" fill="none" stroke="#816b4f" stroke-width="3"/>
<path d="M126.6 226.2 Q117.8 218.0 111.9 219.8" fill="none" stroke="#45823b" stroke-width="2.5"/>
<path d="M126.6 226.2 Q130.2 215.8 132.5 215.4" fill="none" stroke="#45823b" stroke-width="2.5"/>
<path d="M126.6 226.2 Q141.2 221.2 151.0 226.2" fill="none" stroke="#45823b" stroke-width="2.5"/>
<path d="M126.6 226.2 Q130.3 226.9 132.8 237.6" fill="none" stroke="#45823b" stroke-width="2.5"/>
<path d="M126.6 226.2 Q115.4 225.2 108.0 234.3" fill="none" stroke="#45823b" stroke-width="2.5"/>
<path d="M703.3 285.0 Q724.6 260.4 718.2 235.8" fill="none" stroke="#877053" stroke-width="3"/>
<path d="M718.2 235.8 Q705.7 226.3 697.4 226.7" fill="none" stroke="#46843b" stroke-width="2.5"/>
<path d="M718.2 235.8 Q722.5 224.2 725.4 222.6" fill="none" stroke="#46843b" stroke-width="2.5"/>
<path d="M718.2 235.8 Q731.0 230.8 739.5 235.8" fill="none" stroke="#46843b" stroke-width="2.5"/>
<path d="M718.2 235.8 Q722.6 237.6 725.5 249.3" fill="none" stroke="#46843b" stroke-width="2.5"/>
<path d="M718.2 235.8 Q705.8 235.3 697.5 244.9" fill="none" stroke="#46843b" stroke-width="2.5"/>
<path d="M384.9 285.0 Q410.0 255.4 402.5 225.9" fill="none" stroke="#7a654a" stroke-width="3"/>
<path d="M402.5 225.9 Q389.6 216.2 381.0 216.5" fill="none" stroke="#47863c" stroke-width="2.5"/>
<path d="M402.5 225.9 Q407.8 212.7 411.3 209.5" fill="none" stroke="#47863c" stroke-width="2.5"/>
<path d="M402.5 225.9 Q418.1 220.9 428.6 225.9" fill="none" stroke="#47863c" stroke-width="2.5"/>
<path d="M402.5 225.9 Q406.8 227.5 409.6 239.1" fill="none" stroke="#47863c" stroke-width="2.5"/>
<path d="M402.5 225.9 Q389.2 225.7 380.4 235.5" fill="none" stroke="#47863c" stroke-width="2.5"/>
<rect x="0" y="285" width="1200" height="15" fill="#d4c5a9" opacity="0.4"/>
<circle cx="1039.9" cy="37.9" r="27.7" fill="#f5e6a0" opacity="0.1"/>
</svg>