<svg xmlns="http://www.w3.org/2000/svg" viewBox="0 0 1200 400" width="1200" height="400">
<defs>
<linearGradient id="bg" x1="0" y1="0" x2="0" y2="1"><stop offset="0%" stop-color="#94a3b8"/><stop offset="100%" stop-color="#0369a1"/></linearGradient>
<linearGradient id="warm" x1="0" y1="0" x2="1" y2="1"><stop offset="0%" stop-color="#858d98" stop-opacity="0.18"/><stop offset="100%" stop-color="#858d98" stop-opacity="0.06"/></linearGradient>
</defs>
<rect width="1200" height="400" fill="url(#bg)"/>
<path d="M0 400 L0 235.09191288462014 C60.0 238.8, 90.0 246.5, 150.0 244.3 C210.0 241.0, 240.0 228.7, 300.0 234.4 C360.0 227.9, 390.0 226.6, 450.0 233.7 C510.0 237.8, 540.0 233.2, 600.0 223.2 C660.0 229.5, 690.0 227.5, 750.0 225.1 C810.0 225.2, 840.0 260.4, 900.0 253.2 C960.0 244.9, 990.0 229.5, 1050.0 224.7 C1110.0 223.6, 1140.0 235.0, 1200.0 232.9 L1200 400 Z" fill="#367da9" opacity="0.45"/>
<path d="M0 400 L0 263.29234871080274 C52.5 267.5, 97.5 273.6, 150.0 269.0 C202.5 267.5, 247.5 270.9, 300.0 266.0 C352.5 268.7, 397.5 275.9, 450.0 280.8 C502.5 285.8, 547.5 262.3, 600.0 266.4 C652.5 267.2, 697.5 268.1, 750.0 263.0 C802.5 257.0, 847.5 252.9, 900.0 257.7 C952.5 264.7, 997.5 264.8, 1050.0 263.3 C1102.5 258.2, 1147.5 264.3, 1200.0 266.3 L1200 400 Z" fill="#0369a1" opacity="0.3"/>
<rect x="1021.3" y="298.8" width="16.4" height="101.2" rx="4.6" fill="#058e73" opacity="0.68"/>
<rect x="843.8" y="355.6" width="17.4" height="44.4" rx="3.5" fill="#059071" opacity="0.79"/>
<rect x="559.3" y="326.0" width="41.5" height="74.0" rx="7.7" fill="#05956a" opacity="0.62"/>
<rect x="850.4" y="323.0" width="31.2" height="77.0" rx="4.2" fill="#05956b" opacity="0.72"/>
<rect x="546.3" y="315.8" width="24.0" height="84.2" rx="6.4" fill="#048282" opacity="0.65"/>
<rect x="313.0" y="286.2" width="39.3" height="113.8" rx="7.4" fill="#04877b" opacity="0.83"/>
<rect x="318.0" y="296.2" width="4" height="5" rx="0.5" fill="#94a3b8" opacity="0.6"/>
<rect x="331.1" y="296.2" width="4" height="5" rx="0.5" fill="#94a3b8" opacity="0.6"/>
<rect x="318.0" y="318.2" width="4" height="5" rx="0.5" fill="#94a3b8" opacity="0.6"/>
<rect x="318.0" y="340.2" width="4" height="5" rx="0.5" fill="#94a3b8" opacity="0.6"/>
<rect x="331.1" y="340.2" width="4" height="5" rx="0.5" fill="#94a3b8" opacity="0.6"/>
<rect x="703.9" y="348.9" width="47.9" height="51.1" rx="8.0" fill="#05916f" opacity="0.66"/>
<rect x="567.0" y="277.5" width="28.2" height="122.5" rx="7.9" fill="#05916f" opacity="0.75"/>
<rect x="572.0" y="287.5" width="4" height="5" rx="0.5" fill="#94a3b8" opacity="0.6"/>
<rect x="572.0" y="353.5" width="4" height="5" rx="0.5" fill="#94a3b8" opacity="0.6"/>
<rect x="274.1" y="332.3" width="34.6" height="67.7" rx="7.4" fill="#048183" opacity="0.68"/>
<rect x="317.1" y="355.0" width="27.9" height="45.0" rx="6.8" fill="#04857e" opacity="0.81"/>
<rect x="816.2" y="353.1" width="12.9" height="46.9" rx="5.6" fill="#04877b" opacity="0.84"/>
<rect x="1005.3" y="370.2" width="22.2" height="29.8" rx="3.8" fill="#048979" opacity="0.66"/>
<rect x="700.3" y="291.6" width="22.9" height="108.4" rx="6.5" fill="#058d74" opacity="0.62"/>
<rect x="705.3" y="323.6" width="4" height="5" rx="0.5" fill="#94a3b8" opacity="0.6"/>
<rect x="705.3" y="345.6" width="4" height="5" rx="0.5" fill="#94a3b8" opacity="0.6"/>
<circle cx="708.1" cy="61.8" r="7.0" fill="#059669" opacity="0.38"/>
<circle cx="1146.3" cy="237.8" r="11.7" fill="#94a3b8" opacity="0.42"/>
<circle cx="888.1" cy="130.2" r="7.9" fill="#059669" opacity="0.27"/>
<circle cx="1033.1" cy="87.9" r="4.7" fill="#94a3b8" opacity="0.25"/>
<circle cx="834.2" cy="188.2" r="5.3" fill="#059669" opacity="0.45"/>
<circle cx="759.3" cy="29.9" r="3.1" fill="#059669" opacity="0.43"/>
<circle cx="492.0" cy="35.7" r="6.7" fill="#059669" opacity="0.25"/>
<circle cx="662.0" cy="150.2" r="5.9" fill="#94a3b8" opacity="0.44"/>
<circle cx="443.4" cy="88.2" r="7.6" fill="#059669" opacity="0.18"/>
<circle cx="916.0" cy="103.5" r="5.1" fill="#94a3b8" opacity="0.37"/>
<circle cx="932.6" cy="107.7" r="7.0" fill="#94a3b8" opacity="0.21"/>
<circle cx="474.3" cy="84.1" r="7.8" fill="#059669" opacity="0.39"/>
<rect width="1200" height="400" fill="url(#warm)"/>
<rect width="1200" height="400" fill="#94a3b8" opacity="0.40"/>
</svg>