<svg xmlns="http://www.w3.org/2000/svg" viewBox="0 0 1200 300" width="1200" height="300">
<defs>
<linearGradient id="skyGrad" x1="0" y1="0" x2="0" y2="1">
<stop offset="0%" stop-color="#818cf8"/>
<stop offset="20%" stop-color="#c4b5fd"/>
<stop offset="38%" stop-color="#fda4af"/>
<stop offset="55%" stop-color="#fdba74"/>
<stop offset="75%" stop-color="#fef08a"/>
<stop offset="100%" stop-color="#fef9c3"/>
</linearGradient>
<linearGradient id="bldg_coral" x1="0" y1="0" x2="0" y2="1"><stop offset="0%" stop-color="#fecaca"/><stop offset="100%" stop-color="#fca5a5"/></linearGradient>
<linearGradient id="bldg_teal" x1="0" y1="0" x2="0" y2="1"><stop offset="0%" stop-color="#99f6e4"/><stop offset="100%" stop-color="#5eead4"/></linearGradient>
<linearGradient id="bldg_amber" x1="0" y1="0" x2="0" y2="1"><stop offset="0%" stop-color="#fde68a"/><stop offset="100%" stop-color="#fcd34d"/></linearGradient>
<linearGradient id="bldg_lavender" x1="0" y1="0" x2="0" y2="1"><stop offset="0%" stop-color="#ddd6fe"/><stop offset="100%" stop-color="#c4b5fd"/></linearGradient>
<linearGradient id="bldg_blue" x1="0" y1="0" x2="0" y2="1"><stop offset="0%" stop-color="#bfdbfe"/><stop offset="100%" stop-color="#93c5fd"/></linearGradient>
<linearGradient id="bldg_mint" x1="0" y1="0" x2="0" y2="1"><stop offset="0%" stop-color="#a7f3d0"/><stop offset="100%" stop-color="#6ee7b7"/></linearGradient>
<linearGradient id="bldg_rose" x1="0" y1="0" x2="0" y2="1"><stop offset="0%" stop-color="#fecdd3"/><stop offset="100%" stop-color="#fda4af"/></linearGradient>
<linearGradient id="bldg_sky" x1="0" y1="0" x2="0" y2="1"><stop offset="0%" stop-color="#bae6fd"/><stop offset="100%" stop-color="#7dd3fc"/></linearGradient>
<linearGradient id="roof_navyRoof" x1="0" y1="0" x2="0" y2="1"><stop offset="0%" stop-color="#4338ca"/><stop offset="100%" stop-color="#3730a3"/></linearGradient>
<linearGradient id="roof_coralRoof" x1="0" y1="0" x2="0" y2="1"><stop offset="0%" stop-color="#f87171"/><stop offset="100%" stop-color="#ef4444"/></linearGradient>
<linearGradient id="roof_tealRoof" x1="0" y1="0" x2="0" y2="1"><stop offset="0%" stop-color="#2dd4bf"/><stop offset="100%" stop-color="#14b8a6"/></linearGradient>
<radialGradient id="windowGlow" cx="50%" cy="50%" r="50%"><stop offset="0%" stop-color="#fef08a"/><stop offset="60%" stop-color="#fbbf24"/><stop offset="100%" stop-color="#f59e0b"/></radialGradient>
<linearGradient id="hillFar" x1="0" y1="0" x2="0" y2="1"><stop offset="0%" stop-color="#c4b5fd"/><stop offset="100%" stop-color="#a5b4fc"/></linearGradient>
<linearGradient id="hillMid" x1="0" y1="0" x2="0" y2="1"><stop offset="0%" stop-color="#86efac"/><stop offset="100%" stop-color="#4ade80"/></linearGradient>
<linearGradient id="hillNear" x1="0" y1="0" x2="0" y2="1"><stop offset="0%" stop-color="#34d399"/><stop offset="100%" stop-color="#10b981"/></linearGradient>
<linearGradient id="hillDesertFar" x1="0" y1="0" x2="0" y2="1"><stop offset="0%" stop-color="#fde68a"/><stop offset="100%" stop-color="#fcd34d"/></linearGradient>
<linearGradient id="hillDesertMid" x1="0" y1="0" x2="0" y2="1"><stop offset="0%" stop-color="#fcd34d"/><stop offset="100%" stop-color="#fbbf24"/></linearGradient>
<linearGradient id="hillDesertNear" x1="0" y1="0" x2="0" y2="1"><stop offset="0%" stop-color="#fbbf24"/><stop offset="100%" stop-color="#f59e0b"/></linearGradient>
<linearGradient id="groundGrad" x1="0" y1="0" x2="0" y2="1"><stop offset="0%" stop-color="#fef3c7"/><stop offset="100%" stop-color="#fde68a"/></linearGradient>
<linearGradient id="waterGrad" x1="0" y1="0" x2="0" y2="1"><stop offset="0%" stop-color="#bfdbfe"/><stop offset="100%" stop-color="#93c5fd"/></linearGradient>
<filter id="softGlow" x="-50%" y="-50%" width="200%" height="200%"><feGaussianBlur in="SourceGraphic" stdDeviation="12"/></filter>
</defs>
<rect width="1200" height="300" fill="url(#skyGrad)"/>
<circle cx="962.2" cy="51.0" r="45" fill="#fef08a" opacity="0.12" filter="url(#softGlow)"/>
<circle cx="962.2" cy="51.0" r="30" fill="#fde68a" opacity="0.18" filter="url(#softGlow)"/>
<circle cx="962.2" cy="51.0" r="16" fill="#fef9c3" opacity="0.25" filter="url(#softGlow)"/>
<ellipse cx="441.9" cy="19.8" rx="48.8" ry="17.1" fill="white" opacity="0.4"/>
<ellipse cx="411.4" cy="24.7" rx="34.2" ry="13.4" fill="white" opacity="0.4"/>
<ellipse cx="468.7" cy="23.5" rx="39.0" ry="14.6" fill="white" opacity="0.4"/>
<ellipse cx="209.6" cy="29.4" rx="42.6" ry="14.9" fill="white" opacity="0.6"/>
<ellipse cx="183.0" cy="33.6" rx="29.8" ry="11.7" fill="white" opacity="0.5"/>
<ellipse cx="233.0" cy="32.6" rx="34.1" ry="12.8" fill="white" opacity="0.5"/>
<path d="M0 300 L0.0 192.7 C125.3 192.7, 125.3 191.9, 250.7 191.9 C440.7 191.9, 440.7 178.5, 630.8 178.5 C789.2 178.5, 789.2 184.4, 947.6 184.4 C1073.8 184.4, 1073.8 191.9, 1200.0 191.9 L1200 300 Z" fill="url(#hillFar)" opacity="0.5"/>
<path d="M0 300 L0.0 216.0 C167.9 216.0, 167.9 209.8, 335.8 209.8 C475.7 209.8, 475.7 213.2, 615.6 213.2 C755.7 213.2, 755.7 211.0, 895.7 211.0 C1047.9 211.0, 1047.9 207.2, 1200.0 207.2 L1200 300 Z" fill="url(#hillMid)" opacity="0.7"/>
<path d="M0 300 L0.0 235.4 C114.0 235.4, 114.0 235.9, 228.0 235.9 C403.8 235.9, 403.8 231.6, 579.6 231.6 C762.7 231.6, 762.7 234.7, 945.8 234.7 C1072.9 234.7, 1072.9 231.7, 1200.0 231.7 L1200 300 Z" fill="url(#hillNear)" opacity="1"/>
<path d="M0 163.2 C341.9 168.5, 870.5 170.8, 1200 240.2" fill="none" stroke="url(#waterGrad)" stroke-width="40.3" stroke-linecap="round" opacity="0.5"/>
<rect x="192.3" y="237.3" width="88.4" height="62.7" rx="3" fill="url(#bldg_coral)" opacity="0.7"/>
<polygon points="192.3,237.3 236.5,212.6 280.7,237.3" fill="url(#roof_coralRoof)" opacity="0.7"/>
<rect x="212.5" y="247.3" width="6" height="8" rx="1" fill="url(#windowGlow)" opacity="0.9023682316310555"/>
<rect x="226.5" y="247.3" width="6" height="8" rx="1" fill="url(#windowGlow)" opacity="0.8283110160512435"/>
<rect x="240.5" y="247.3" width="6" height="8" rx="1" fill="url(#windowGlow)" opacity="0.9151967685274764"/>
<rect x="254.5" y="247.3" width="6" height="8" rx="1" fill="url(#windowGlow)" opacity="0.7603041255661771"/>
<rect x="533.4" y="208.7" width="61.4" height="91.3" rx="3" fill="url(#bldg_teal)" opacity="0.7"/>
<rect x="533.4" y="205.7" width="61.4" height="3" rx="1" fill="url(#roof_tealRoof)" opacity="0.7"/>
<rect x="547.1" y="218.7" width="6" height="8" rx="1" fill="url(#windowGlow)" opacity="0.9837549081462225"/>
<rect x="561.1" y="218.7" width="6" height="8" rx="1" fill="url(#windowGlow)" opacity="0.8744908817924981"/>
<rect x="575.1" y="218.7" width="6" height="8" rx="1" fill="url(#windowGlow)" opacity="0.880579592651026"/>
<rect x="547.1" y="233.7" width="6" height="8" rx="1" fill="url(#windowGlow)" opacity="0.8724620661570047"/>
<rect x="561.1" y="233.7" width="6" height="8" rx="1" fill="url(#windowGlow)" opacity="0.7723290817217571"/>
<rect x="575.1" y="233.7" width="6" height="8" rx="1" fill="url(#windowGlow)" opacity="0.9832849149980045"/>
<rect x="547.1" y="248.7" width="6" height="8" rx="1" fill="url(#windowGlow)" opacity="0.882472871235792"/>
<rect x="561.1" y="248.7" width="6" height="8" rx="1" fill="url(#windowGlow)" opacity="0.7518686669188871"/>
<rect x="575.1" y="248.7" width="6" height="8" rx="1" fill="url(#windowGlow)" opacity="0.8280648989267949"/>
<rect x="912.9" y="230.5" width="87.2" height="69.5" rx="3" fill="url(#bldg_amber)" opacity="0.7"/>
<rect x="912.9" y="227.5" width="87.2" height="3" rx="1" fill="url(#roof_navyRoof)" opacity="0.7"/>
<rect x="932.6" y="240.5" width="6" height="8" rx="1" fill="url(#windowGlow)" opacity="0.9927063360776316"/>
<rect x="960.6" y="240.5" width="6" height="8" rx="1" fill="url(#windowGlow)" opacity="0.9755823924558155"/>
<rect x="974.6" y="240.5" width="6" height="8" rx="1" fill="url(#windowGlow)" opacity="0.7493537017374083"/>
<rect x="932.6" y="255.5" width="6" height="8" rx="1" fill="url(#windowGlow)" opacity="0.9846871850475143"/>
<rect x="946.6" y="255.5" width="6" height="8" rx="1" fill="url(#windowGlow)" opacity="0.811736325133469"/>
<rect x="974.6" y="255.5" width="6" height="8" rx="1" fill="url(#windowGlow)" opacity="0.9309266106835224"/>
<rect x="149.9" y="225.6" width="60.5" height="74.4" rx="3" fill="url(#bldg_lavender)" opacity="0.85"/>
<rect x="162.0" y="216.6" width="36.3" height="8.9" rx="2" fill="url(#roof_coralRoof)" opacity="0.85"/>
<rect x="163.2" y="235.6" width="6" height="8" rx="1" fill="url(#windowGlow)" opacity="0.7472287409227475"/>
<rect x="177.2" y="235.6" width="6" height="8" rx="1" fill="url(#windowGlow)" opacity="0.9273686770477185"/>
<rect x="191.2" y="235.6" width="6" height="8" rx="1" fill="url(#windowGlow)" opacity="0.9696137733150337"/>
<rect x="191.2" y="250.6" width="6" height="8" rx="1" fill="url(#windowGlow)" opacity="0.8561928619426641"/>
<rect x="600.7" y="229.4" width="46.0" height="70.6" rx="3" fill="url(#bldg_blue)" opacity="0.85"/>
<rect x="600.7" y="226.4" width="46.0" height="3" rx="1" fill="url(#roof_tealRoof)" opacity="0.85"/>
<rect x="613.7" y="239.4" width="6" height="8" rx="1" fill="url(#windowGlow)" opacity="0.7038710953685786"/>
<rect x="627.7" y="239.4" width="6" height="8" rx="1" fill="url(#windowGlow)" opacity="0.7472019341994085"/>
<rect x="613.7" y="254.4" width="6" height="8" rx="1" fill="url(#windowGlow)" opacity="0.8400703773554742"/>
<rect x="627.7" y="254.4" width="6" height="8" rx="1" fill="url(#windowGlow)" opacity="0.9273410972335101"/>
<path d="M605.3 254.1 L623.7 254.1 L620.7 260.1 L608.3 260.1 Z" fill="url(#roof_coralRoof)" opacity="0.68"/>
<rect x="978.9" y="174.2" width="49.5" height="125.8" rx="3" fill="url(#bldg_mint)" opacity="0.85"/>
<polygon points="978.9,174.2 1003.7,161.8 1028.4,174.2" fill="url(#roof_navyRoof)" opacity="0.85"/>
<rect x="993.7" y="184.2" width="6" height="8" rx="1" fill="url(#windowGlow)" opacity="0.8140586596513439"/>
<rect x="1007.7" y="184.2" width="6" height="8" rx="1" fill="url(#windowGlow)" opacity="0.9395185373907529"/>
<rect x="1007.7" y="199.2" width="6" height="8" rx="1" fill="url(#windowGlow)" opacity="0.7772167981496159"/>
<rect x="993.7" y="214.2" width="6" height="8" rx="1" fill="url(#windowGlow)" opacity="0.9293228477841815"/>
<rect x="993.7" y="229.2" width="6" height="8" rx="1" fill="url(#windowGlow)" opacity="0.9972090233570006"/>
<rect x="1007.7" y="229.2" width="6" height="8" rx="1" fill="url(#windowGlow)" opacity="0.9657490543395975"/>
<rect x="993.7" y="244.2" width="6" height="8" rx="1" fill="url(#windowGlow)" opacity="0.9220372306285599"/>
<rect x="1007.7" y="244.2" width="6" height="8" rx="1" fill="url(#windowGlow)" opacity="0.8618459795423997"/>
<rect x="993.7" y="259.2" width="6" height="8" rx="1" fill="url(#windowGlow)" opacity="0.8435487702226028"/>
<rect x="1007.7" y="259.2" width="6" height="8" rx="1" fill="url(#windowGlow)" opacity="0.8098314630379115"/>
<rect x="196.6" y="128.1" width="52.3" height="171.9" rx="3" fill="url(#bldg_rose)" opacity="1"/>
<polygon points="196.6,128.1 222.7,110.4 248.9,128.1" fill="url(#roof_coralRoof)" opacity="1"/>
<rect x="212.7" y="138.1" width="6" height="8" rx="1" fill="url(#windowGlow)" opacity="0.9352910503443754"/>
<rect x="226.7" y="138.1" width="6" height="8" rx="1" fill="url(#windowGlow)" opacity="0.9962550698762085"/>
<rect x="226.7" y="153.1" width="6" height="8" rx="1" fill="url(#windowGlow)" opacity="0.7373871603223435"/>
<rect x="226.7" y="168.1" width="6" height="8" rx="1" fill="url(#windowGlow)" opacity="0.8449303443752836"/>
<rect x="212.7" y="183.1" width="6" height="8" rx="1" fill="url(#windowGlow)" opacity="0.7446763375516404"/>
<rect x="226.7" y="183.1" width="6" height="8" rx="1" fill="url(#windowGlow)" opacity="0.7995085344647562"/>
<rect x="212.7" y="198.1" width="6" height="8" rx="1" fill="url(#windowGlow)" opacity="0.8655059829659322"/>
<rect x="226.7" y="198.1" width="6" height="8" rx="1" fill="url(#windowGlow)" opacity="0.7968893534489392"/>
<rect x="212.7" y="213.1" width="6" height="8" rx="1" fill="url(#windowGlow)" opacity="0.9903076670087443"/>
<rect x="226.7" y="213.1" width="6" height="8" rx="1" fill="url(#windowGlow)" opacity="0.8103109356995257"/>
<rect x="212.7" y="228.1" width="6" height="8" rx="1" fill="url(#windowGlow)" opacity="0.7258671160442135"/>
<rect x="212.7" y="243.1" width="6" height="8" rx="1" fill="url(#windowGlow)" opacity="0.8293575822978082"/>
<rect x="226.7" y="243.1" width="6" height="8" rx="1" fill="url(#windowGlow)" opacity="0.9189441057941615"/>
<rect x="217.7" y="284.0" width="10" height="16" rx="2" fill="url(#roof_navyRoof)" opacity="0.8"/>
<rect x="219.7" y="287.0" width="6" height="10" rx="1" fill="url(#windowGlow)" opacity="0.45"/>
<rect x="213.6" y="154.1" width="18.3" height="5" rx="1" fill="#15803d" opacity="0.7"/>
<circle cx="216.6" cy="153.1" r="2.5" fill="#fbbf24" opacity="0.85"/>
<circle cx="222.7" cy="153.1" r="2.5" fill="#f87171" opacity="0.85"/>
<circle cx="228.8" cy="153.1" r="2.5" fill="#fb923c" opacity="0.85"/>
<rect x="566.5" y="182.4" width="36.7" height="117.6" rx="3" fill="url(#bldg_sky)" opacity="1"/>
<polygon points="566.5,182.4 584.9,173.1 603.3,182.4" fill="url(#roof_tealRoof)" opacity="1"/>
<rect x="581.9" y="192.4" width="6" height="8" rx="1" fill="url(#windowGlow)" opacity="0.940054574068661"/>
<rect x="581.9" y="207.4" width="6" height="8" rx="1" fill="url(#windowGlow)" opacity="0.8274213981476711"/>
<rect x="581.9" y="222.4" width="6" height="8" rx="1" fill="url(#windowGlow)" opacity="0.8311007611132696"/>
<rect x="581.9" y="252.4" width="6" height="8" rx="1" fill="url(#windowGlow)" opacity="0.8045156867264377"/>
<rect x="579.9" y="284.0" width="10" height="16" rx="2" fill="url(#roof_navyRoof)" opacity="0.8"/>
<rect x="581.9" y="287.0" width="6" height="10" rx="1" fill="url(#windowGlow)" opacity="0.45"/>
<rect x="971.0" y="216.5" width="53.4" height="83.5" rx="3" fill="url(#bldg_coral)" opacity="1"/>
<polygon points="971.0,216.5 997.7,203.2 1024.4,216.5" fill="url(#roof_navyRoof)" opacity="1"/>
<rect x="987.7" y="226.5" width="6" height="8" rx="1" fill="url(#windowGlow)" opacity="0.7160746519994338"/>
<rect x="1001.7" y="226.5" width="6" height="8" rx="1" fill="url(#windowGlow)" opacity="0.7016211789574572"/>
<rect x="987.7" y="241.5" width="6" height="8" rx="1" fill="url(#windowGlow)" opacity="0.9750548881362447"/>
<rect x="1001.7" y="241.5" width="6" height="8" rx="1" fill="url(#windowGlow)" opacity="0.7472880008384994"/>
<rect x="1001.7" y="256.5" width="6" height="8" rx="1" fill="url(#windowGlow)" opacity="0.9272783595264322"/>
<rect x="992.7" y="284.0" width="10" height="16" rx="2" fill="url(#roof_navyRoof)" opacity="0.8"/>
<rect x="994.7" y="287.0" width="6" height="10" rx="1" fill="url(#windowGlow)" opacity="0.45"/>
<rect x="404.7" y="267.1" width="6" height="17.9" rx="2" fill="#15803d"/>
<circle cx="407.7" cy="256.2" r="14.8" fill="#22c55e" opacity="0.9"/>
<circle cx="399.5" cy="259.2" r="11.1" fill="#16a34a" opacity="0.8"/>
<circle cx="412.7" cy="260.2" r="10.4" fill="#15803d" opacity="0.7"/>
<rect x="784.1" y="265.0" width="6" height="20.0" rx="2" fill="#15803d"/>
<circle cx="787.1" cy="251.7" r="17.3" fill="#22c55e" opacity="0.9"/>
<circle cx="779.0" cy="254.7" r="13.0" fill="#16a34a" opacity="0.8"/>
<circle cx="792.6" cy="255.7" r="12.1" fill="#15803d" opacity="0.7"/>
<rect x="153.1" y="267.8" width="6" height="17.2" rx="2" fill="#15803d"/>
<circle cx="156.1" cy="254.2" r="17.7" fill="#22c55e" opacity="0.9"/>
<circle cx="148.6" cy="257.2" r="13.2" fill="#16a34a" opacity="0.8"/>
<circle cx="162.4" cy="258.2" r="12.4" fill="#15803d" opacity="0.7"/>
<rect x="1067.2" y="266.4" width="6" height="18.6" rx="2" fill="#15803d"/>
<circle cx="1070.2" cy="252.7" r="17.7" fill="#22c55e" opacity="0.9"/>
<circle cx="1062.3" cy="255.7" r="13.3" fill="#16a34a" opacity="0.8"/>
<circle cx="1078.1" cy="256.7" r="12.4" fill="#15803d" opacity="0.7"/>
<rect x="543.1" y="263.7" width="6" height="21.3" rx="2" fill="#15803d"/>
<circle cx="546.1" cy="251.6" r="16.1" fill="#22c55e" opacity="0.9"/>
<circle cx="538.2" cy="254.6" r="12.1" fill="#16a34a" opacity="0.8"/>
<circle cx="552.0" cy="255.6" r="11.3" fill="#15803d" opacity="0.7"/>
<rect x="205.1" y="268.2" width="6" height="16.8" rx="2" fill="#15803d"/>
<circle cx="208.1" cy="257.9" r="14.3" fill="#22c55e" opacity="0.9"/>
<circle cx="201.1" cy="260.9" r="10.7" fill="#16a34a" opacity="0.8"/>
<circle cx="214.9" cy="261.9" r="10.0" fill="#15803d" opacity="0.7"/>
<rect x="263.2" y="268.4" width="6" height="16.6" rx="2" fill="#15803d"/>
<circle cx="266.2" cy="259.4" r="13.0" fill="#22c55e" opacity="0.9"/>
<circle cx="258.6" cy="262.4" r="9.8" fill="#16a34a" opacity="0.8"/>
<circle cx="271.6" cy="263.4" r="9.1" fill="#15803d" opacity="0.7"/>
<rect x="359.7" y="266.9" width="6" height="18.1" rx="2" fill="#15803d"/>
<circle cx="362.7" cy="256.3" r="14.6" fill="#22c55e" opacity="0.9"/>
<circle cx="356.1" cy="259.3" r="10.9" fill="#16a34a" opacity="0.8"/>
<circle cx="370.5" cy="260.3" r="10.2" fill="#15803d" opacity="0.7"/>
<rect x="84.7" y="268.0" width="6" height="17.0" rx="2" fill="#15803d"/>
<circle cx="87.7" cy="254.5" r="17.5" fill="#22c55e" opacity="0.9"/>
<circle cx="81.6" cy="257.5" r="13.2" fill="#16a34a" opacity="0.8"/>
<circle cx="93.3" cy="258.5" r="12.3" fill="#15803d" opacity="0.7"/>
<rect x="0" y="282" width="1200" height="18" fill="url(#groundGrad)"/>
<line x1="184.8" y1="282.0" x2="184.8" y2="242.5" stroke="#92400e" stroke-width="2"/>
<circle cx="184.8" cy="242.5" r="4" fill="#fef08a" opacity="0.6"/>
<circle cx="184.8" cy="242.5" r="8" fill="#fef08a" opacity="0.15" filter="url(#softGlow)"/>
<ellipse cx="747.4" cy="282.0" rx="4.0" ry="2.8" fill="#22c55e" opacity="0.6"/>
<ellipse cx="1109.8" cy="282.0" rx="6.4" ry="4.4" fill="#22c55e" opacity="0.6"/>
<ellipse cx="171.2" cy="282.0" rx="5.4" ry="3.8" fill="#22c55e" opacity="0.6"/>
</svg>