<svg xmlns="http://www.w3.org/2000/svg" viewBox="0 0 1200 300" width="1200" height="300">
<rect width="1200" height="300" fill="#e6eef4"/>
<path d="M0 300 L0 210.0 C205.6 172.3, 881.2 197.3, 1200 210.0 L1200 300 Z" fill="#b5cad8" opacity="0.3"/>
<rect x="153.5" y="193.7" width="67.9" height="106.3" fill="#99b6c9"/>
<rect x="441.7" y="187.6" width="79.1" height="112.4" fill="#99b6c9"/>
<rect x="739.4" y="238.3" width="49.9" height="61.7" fill="#99b6c9"/>
<rect x="967.1" y="213.6" width="44.1" height="86.4" fill="#99b6c9"/>
<rect x="111.5" y="182.5" width="46.8" height="117.5" fill="#6a95b1"/>
<rect x="124.9" y="194.5" width="6" height="8" fill="#9ebacc" opacity="0.5"/>
<rect x="138.9" y="194.5" width="6" height="8" fill="#9ebacc" opacity="0.5"/>
<rect x="124.9" y="226.5" width="6" height="8" fill="#9ebacc" opacity="0.5"/>
<rect x="138.9" y="226.5" width="6" height="8" fill="#9ebacc" opacity="0.5"/>
<rect x="124.9" y="242.5" width="6" height="8" fill="#9ebacc" opacity="0.5"/>
<rect x="138.9" y="242.5" width="6" height="8" fill="#9ebacc" opacity="0.5"/>
<rect x="124.9" y="258.5" width="6" height="8" fill="#9ebacc" opacity="0.5"/>
<rect x="138.9" y="258.5" width="6" height="8" fill="#9ebacc" opacity="0.5"/>
<rect x="333.9" y="185.5" width="36.0" height="114.5" fill="#6a95b1"/>
<rect x="348.9" y="197.5" width="6" height="8" fill="#9ebacc" opacity="0.5"/>
<rect x="348.9" y="213.5" width="6" height="8" fill="#9ebacc" opacity="0.5"/>
<rect x="348.9" y="245.5" width="6" height="8" fill="#9ebacc" opacity="0.5"/>
<rect x="348.9" y="261.5" width="6" height="8" fill="#9ebacc" opacity="0.5"/>
<rect x="553.0" y="169.4" width="67.9" height="130.6" fill="#6a95b1"/>
<rect x="570.0" y="181.4" width="6" height="8" fill="#9ebacc" opacity="0.5"/>
<rect x="598.0" y="181.4" width="6" height="8" fill="#9ebacc" opacity="0.5"/>
<rect x="570.0" y="197.4" width="6" height="8" fill="#9ebacc" opacity="0.5"/>
<rect x="584.0" y="197.4" width="6" height="8" fill="#9ebacc" opacity="0.5"/>
<rect x="598.0" y="197.4" width="6" height="8" fill="#9ebacc" opacity="0.5"/>
<rect x="570.0" y="213.4" width="6" height="8" fill="#9ebacc" opacity="0.5"/>
<rect x="584.0" y="213.4" width="6" height="8" fill="#9ebacc" opacity="0.5"/>
<rect x="598.0" y="213.4" width="6" height="8" fill="#9ebacc" opacity="0.5"/>
<rect x="570.0" y="229.4" width="6" height="8" fill="#9ebacc" opacity="0.5"/>
<rect x="598.0" y="229.4" width="6" height="8" fill="#9ebacc" opacity="0.5"/>
<rect x="570.0" y="245.4" width="6" height="8" fill="#9ebacc" opacity="0.5"/>
<rect x="584.0" y="245.4" width="6" height="8" fill="#9ebacc" opacity="0.5"/>
<rect x="598.0" y="245.4" width="6" height="8" fill="#9ebacc" opacity="0.5"/>
<rect x="570.0" y="261.4" width="6" height="8" fill="#9ebacc" opacity="0.5"/>
<rect x="584.0" y="261.4" width="6" height="8" fill="#9ebacc" opacity="0.5"/>
<rect x="598.0" y="261.4" width="6" height="8" fill="#9ebacc" opacity="0.5"/>
<rect x="790.2" y="210.2" width="54.3" height="89.8" fill="#6a95b1"/>
<rect x="807.3" y="222.2" width="6" height="8" fill="#9ebacc" opacity="0.5"/>
<rect x="821.3" y="222.2" width="6" height="8" fill="#9ebacc" opacity="0.5"/>
<rect x="807.3" y="254.2" width="6" height="8" fill="#9ebacc" opacity="0.5"/>
<rect x="821.3" y="254.2" width="6" height="8" fill="#9ebacc" opacity="0.5"/>
<rect x="821.3" y="270.2" width="6" height="8" fill="#9ebacc" opacity="0.5"/>
<rect x="1044.4" y="203.5" width="67.7" height="96.5" fill="#6a95b1"/>
<rect x="1075.3" y="215.5" width="6" height="8" fill="#9ebacc" opacity="0.5"/>
<rect x="1089.3" y="215.5" width="6" height="8" fill="#9ebacc" opacity="0.5"/>
<rect x="1061.3" y="231.5" width="6" height="8" fill="#9ebacc" opacity="0.5"/>
<rect x="1089.3" y="231.5" width="6" height="8" fill="#9ebacc" opacity="0.5"/>
<rect x="1061.3" y="247.5" width="6" height="8" fill="#9ebacc" opacity="0.5"/>
<rect x="1075.3" y="247.5" width="6" height="8" fill="#9ebacc" opacity="0.5"/>
<rect x="1089.3" y="247.5" width="6" height="8" fill="#9ebacc" opacity="0.5"/>
<rect x="1061.3" y="263.5" width="6" height="8" fill="#9ebacc" opacity="0.5"/>
<rect x="1075.3" y="263.5" width="6" height="8" fill="#9ebacc" opacity="0.5"/>
<rect x="1089.3" y="263.5" width="6" height="8" fill="#9ebacc" opacity="0.5"/>
<rect x="142.7" y="169.7" width="44.1" height="130.3" fill="#457b9d"/>
<rect x="154.8" y="181.7" width="6" height="8" fill="#86a9bf" opacity="0.5"/>
<rect x="168.8" y="181.7" width="6" height="8" fill="#86a9bf" opacity="0.5"/>
<rect x="154.8" y="213.7" width="6" height="8" fill="#86a9bf" opacity="0.5"/>
<rect x="168.8" y="213.7" width="6" height="8" fill="#86a9bf" opacity="0.5"/>
<rect x="154.8" y="229.7" width="6" height="8" fill="#86a9bf" opacity="0.5"/>
<rect x="168.8" y="229.7" width="6" height="8" fill="#86a9bf" opacity="0.5"/>
<rect x="154.8" y="245.7" width="6" height="8" fill="#86a9bf" opacity="0.5"/>
<rect x="168.8" y="245.7" width="6" height="8" fill="#86a9bf" opacity="0.5"/>
<rect x="154.8" y="261.7" width="6" height="8" fill="#86a9bf" opacity="0.5"/>
<rect x="168.8" y="261.7" width="6" height="8" fill="#86a9bf" opacity="0.5"/>
<rect x="468.8" y="163.9" width="52.4" height="136.1" fill="#457b9d"/>
<rect x="485.0" y="175.9" width="6" height="8" fill="#86a9bf" opacity="0.5"/>
<rect x="485.0" y="191.9" width="6" height="8" fill="#86a9bf" opacity="0.5"/>
<rect x="499.0" y="191.9" width="6" height="8" fill="#86a9bf" opacity="0.5"/>
<rect x="485.0" y="207.9" width="6" height="8" fill="#86a9bf" opacity="0.5"/>
<rect x="499.0" y="207.9" width="6" height="8" fill="#86a9bf" opacity="0.5"/>
<rect x="485.0" y="223.9" width="6" height="8" fill="#86a9bf" opacity="0.5"/>
<rect x="499.0" y="223.9" width="6" height="8" fill="#86a9bf" opacity="0.5"/>
<rect x="485.0" y="239.9" width="6" height="8" fill="#86a9bf" opacity="0.5"/>
<rect x="499.0" y="239.9" width="6" height="8" fill="#86a9bf" opacity="0.5"/>
<rect x="485.0" y="255.9" width="6" height="8" fill="#86a9bf" opacity="0.5"/>
<rect x="499.0" y="255.9" width="6" height="8" fill="#86a9bf" opacity="0.5"/>
<rect x="485.0" y="271.9" width="6" height="8" fill="#86a9bf" opacity="0.5"/>
<rect x="499.0" y="271.9" width="6" height="8" fill="#86a9bf" opacity="0.5"/>
<rect x="703.6" y="235.1" width="54.2" height="64.9" fill="#457b9d"/>
<rect x="720.6" y="247.1" width="6" height="8" fill="#86a9bf" opacity="0.5"/>
<rect x="720.6" y="263.1" width="6" height="8" fill="#86a9bf" opacity="0.5"/>
<rect x="734.6" y="263.1" width="6" height="8" fill="#86a9bf" opacity="0.5"/>
<rect x="995.2" y="155.6" width="47.0" height="144.4" fill="#457b9d"/>
<rect x="1022.7" y="167.6" width="6" height="8" fill="#86a9bf" opacity="0.5"/>
<rect x="1008.7" y="183.6" width="6" height="8" fill="#86a9bf" opacity="0.5"/>
<rect x="1022.7" y="183.6" width="6" height="8" fill="#86a9bf" opacity="0.5"/>
<rect x="1008.7" y="199.6" width="6" height="8" fill="#86a9bf" opacity="0.5"/>
<rect x="1022.7" y="199.6" width="6" height="8" fill="#86a9bf" opacity="0.5"/>
<rect x="1008.7" y="215.6" width="6" height="8" fill="#86a9bf" opacity="0.5"/>
<rect x="1022.7" y="215.6" width="6" height="8" fill="#86a9bf" opacity="0.5"/>
<rect x="1008.7" y="231.6" width="6" height="8" fill="#86a9bf" opacity="0.5"/>
<rect x="1022.7" y="231.6" width="6" height="8" fill="#86a9bf" opacity="0.5"/>
<rect x="1008.7" y="247.6" width="6" height="8" fill="#86a9bf" opacity="0.5"/>
<rect x="1008.7" y="263.6" width="6" height="8" fill="#86a9bf" opacity="0.5"/>
<rect x="1022.7" y="263.6" width="6" height="8" fill="#86a9bf" opacity="0.5"/>
<rect x="0" y="298" width="1200" height="2" fill="#3e6f8d" opacity="0.15"/>
</svg>