<svg xmlns="http://www.w3.org/2000/svg" viewBox="0 0 1200 300" width="1200" height="300">
<defs>
<linearGradient id="skyGrad" x1="0" y1="0" x2="0" y2="1">
<stop offset="0%" stop-color="#818cf8"/>
<stop offset="20%" stop-color="#c4b5fd"/>
<stop offset="38%" stop-color="#fda4af"/>
<stop offset="55%" stop-color="#fdba74"/>
<stop offset="75%" stop-color="#fef08a"/>
<stop offset="100%" stop-color="#fef9c3"/>
</linearGradient>
<linearGradient id="bldg_coral" x1="0" y1="0" x2="0" y2="1"><stop offset="0%" stop-color="#fecaca"/><stop offset="100%" stop-color="#fca5a5"/></linearGradient>
<linearGradient id="bldg_teal" x1="0" y1="0" x2="0" y2="1"><stop offset="0%" stop-color="#99f6e4"/><stop offset="100%" stop-color="#5eead4"/></linearGradient>
<linearGradient id="bldg_amber" x1="0" y1="0" x2="0" y2="1"><stop offset="0%" stop-color="#fde68a"/><stop offset="100%" stop-color="#fcd34d"/></linearGradient>
<linearGradient id="bldg_lavender" x1="0" y1="0" x2="0" y2="1"><stop offset="0%" stop-color="#ddd6fe"/><stop offset="100%" stop-color="#c4b5fd"/></linearGradient>
<linearGradient id="bldg_blue" x1="0" y1="0" x2="0" y2="1"><stop offset="0%" stop-color="#bfdbfe"/><stop offset="100%" stop-color="#93c5fd"/></linearGradient>
<linearGradient id="bldg_mint" x1="0" y1="0" x2="0" y2="1"><stop offset="0%" stop-color="#a7f3d0"/><stop offset="100%" stop-color="#6ee7b7"/></linearGradient>
<linearGradient id="bldg_rose" x1="0" y1="0" x2="0" y2="1"><stop offset="0%" stop-color="#fecdd3"/><stop offset="100%" stop-color="#fda4af"/></linearGradient>
<linearGradient id="bldg_sky" x1="0" y1="0" x2="0" y2="1"><stop offset="0%" stop-color="#bae6fd"/><stop offset="100%" stop-color="#7dd3fc"/></linearGradient>
<linearGradient id="roof_navyRoof" x1="0" y1="0" x2="0" y2="1"><stop offset="0%" stop-color="#4338ca"/><stop offset="100%" stop-color="#3730a3"/></linearGradient>
<linearGradient id="roof_coralRoof" x1="0" y1="0" x2="0" y2="1"><stop offset="0%" stop-color="#f87171"/><stop offset="100%" stop-color="#ef4444"/></linearGradient>
<linearGradient id="roof_tealRoof" x1="0" y1="0" x2="0" y2="1"><stop offset="0%" stop-color="#2dd4bf"/><stop offset="100%" stop-color="#14b8a6"/></linearGradient>
<radialGradient id="windowGlow" cx="50%" cy="50%" r="50%"><stop offset="0%" stop-color="#fef08a"/><stop offset="60%" stop-color="#fbbf24"/><stop offset="100%" stop-color="#f59e0b"/></radialGradient>
<linearGradient id="hillFar" x1="0" y1="0" x2="0" y2="1"><stop offset="0%" stop-color="#c4b5fd"/><stop offset="100%" stop-color="#a5b4fc"/></linearGradient>
<linearGradient id="hillMid" x1="0" y1="0" x2="0" y2="1"><stop offset="0%" stop-color="#86efac"/><stop offset="100%" stop-color="#4ade80"/></linearGradient>
<linearGradient id="hillNear" x1="0" y1="0" x2="0" y2="1"><stop offset="0%" stop-color="#34d399"/><stop offset="100%" stop-color="#10b981"/></linearGradient>
<linearGradient id="hillDesertFar" x1="0" y1="0" x2="0" y2="1"><stop offset="0%" stop-color="#fde68a"/><stop offset="100%" stop-color="#fcd34d"/></linearGradient>
<linearGradient id="hillDesertMid" x1="0" y1="0" x2="0" y2="1"><stop offset="0%" stop-color="#fcd34d"/><stop offset="100%" stop-color="#fbbf24"/></linearGradient>
<linearGradient id="hillDesertNear" x1="0" y1="0" x2="0" y2="1"><stop offset="0%" stop-color="#fbbf24"/><stop offset="100%" stop-color="#f59e0b"/></linearGradient>
<linearGradient id="groundGrad" x1="0" y1="0" x2="0" y2="1"><stop offset="0%" stop-color="#fef3c7"/><stop offset="100%" stop-color="#fde68a"/></linearGradient>
<linearGradient id="waterGrad" x1="0" y1="0" x2="0" y2="1"><stop offset="0%" stop-color="#bfdbfe"/><stop offset="100%" stop-color="#93c5fd"/></linearGradient>
<filter id="softGlow" x="-50%" y="-50%" width="200%" height="200%"><feGaussianBlur in="SourceGraphic" stdDeviation="12"/></filter>
</defs>
<rect width="1200" height="300" fill="url(#skyGrad)"/>
<circle cx="1057.5" cy="46.7" r="45" fill="#fef08a" opacity="0.12" filter="url(#softGlow)"/>
<circle cx="1057.5" cy="46.7" r="30" fill="#fde68a" opacity="0.18" filter="url(#softGlow)"/>
<circle cx="1057.5" cy="46.7" r="16" fill="#fef9c3" opacity="0.25" filter="url(#softGlow)"/>
<ellipse cx="611.3" cy="39.1" rx="38.2" ry="13.4" fill="white" opacity="0.4"/>
<ellipse cx="587.4" cy="42.9" rx="26.7" ry="10.5" fill="white" opacity="0.4"/>
<ellipse cx="632.3" cy="42.0" rx="30.5" ry="11.4" fill="white" opacity="0.3"/>
<ellipse cx="165.9" cy="35.0" rx="48.4" ry="16.9" fill="white" opacity="0.5"/>
<ellipse cx="135.6" cy="39.8" rx="33.9" ry="13.3" fill="white" opacity="0.5"/>
<ellipse cx="192.5" cy="38.6" rx="38.7" ry="14.5" fill="white" opacity="0.5"/>
<path d="M0 300 L0.0 185.6 C101.6 185.6, 101.6 184.1, 203.2 184.1 C352.0 184.1, 352.0 180.4, 500.8 180.4 C617.0 180.4, 617.0 180.8, 733.2 180.8 C841.8 180.8, 841.8 183.6, 950.3 183.6 C1075.1 183.6, 1075.1 186.6, 1200.0 186.6 L1200 300 Z" fill="url(#hillFar)" opacity="0.5"/>
<path d="M0 300 L0.0 203.8 C133.7 203.8, 133.7 212.3, 267.5 212.3 C469.7 212.3, 469.7 206.2, 671.9 206.2 C820.3 206.2, 820.3 214.4, 968.7 214.4 C1084.4 214.4, 1084.4 208.0, 1200.0 208.0 L1200 300 Z" fill="url(#hillMid)" opacity="0.7"/>
<path d="M0 300 L0.0 228.6 C139.8 228.6, 139.8 235.0, 279.5 235.0 C380.2 235.0, 380.2 232.9, 480.8 232.9 C611.3 232.9, 611.3 234.6, 741.7 234.6 C864.2 234.6, 864.2 231.0, 986.6 231.0 C1093.3 231.0, 1093.3 230.4, 1200.0 230.4 L1200 300 Z" fill="url(#hillNear)" opacity="1"/>
<rect x="198.8" y="197.1" width="48.5" height="102.9" rx="3" fill="url(#bldg_mint)" opacity="0.7"/>
<rect x="198.8" y="194.1" width="48.5" height="3" rx="1" fill="url(#roof_tealRoof)" opacity="0.7"/>
<rect x="213.0" y="207.1" width="6" height="8" rx="1" fill="url(#windowGlow)" opacity="0.9151876645233424"/>
<rect x="227.0" y="207.1" width="6" height="8" rx="1" fill="url(#windowGlow)" opacity="0.7161009732708805"/>
<rect x="213.0" y="222.1" width="6" height="8" rx="1" fill="url(#windowGlow)" opacity="0.971569113466688"/>
<rect x="213.0" y="237.1" width="6" height="8" rx="1" fill="url(#windowGlow)" opacity="0.7230769567764722"/>
<rect x="213.0" y="252.1" width="6" height="8" rx="1" fill="url(#windowGlow)" opacity="0.8714325846039841"/>
<rect x="227.0" y="252.1" width="6" height="8" rx="1" fill="url(#windowGlow)" opacity="0.9476026427222428"/>
<rect x="581.6" y="203.4" width="82.0" height="96.6" rx="3" fill="url(#bldg_rose)" opacity="0.7"/>
<polygon points="581.6,203.4 622.6,182.7 663.6,203.4" fill="url(#roof_navyRoof)" opacity="0.7"/>
<rect x="598.6" y="213.4" width="6" height="8" rx="1" fill="url(#windowGlow)" opacity="0.7887565502378887"/>
<rect x="612.6" y="213.4" width="6" height="8" rx="1" fill="url(#windowGlow)" opacity="0.9440310296807581"/>
<rect x="626.6" y="213.4" width="6" height="8" rx="1" fill="url(#windowGlow)" opacity="0.7664503193769838"/>
<rect x="640.6" y="213.4" width="6" height="8" rx="1" fill="url(#windowGlow)" opacity="0.9719329308122084"/>
<rect x="598.6" y="228.4" width="6" height="8" rx="1" fill="url(#windowGlow)" opacity="0.8541069065938269"/>
<rect x="612.6" y="228.4" width="6" height="8" rx="1" fill="url(#windowGlow)" opacity="0.9794037395526671"/>
<rect x="626.6" y="228.4" width="6" height="8" rx="1" fill="url(#windowGlow)" opacity="0.8098836127248982"/>
<rect x="640.6" y="228.4" width="6" height="8" rx="1" fill="url(#windowGlow)" opacity="0.7407792693193905"/>
<rect x="598.6" y="243.4" width="6" height="8" rx="1" fill="url(#windowGlow)" opacity="0.7786130012379088"/>
<rect x="640.6" y="243.4" width="6" height="8" rx="1" fill="url(#windowGlow)" opacity="0.8513610034954552"/>
<rect x="598.6" y="258.4" width="6" height="8" rx="1" fill="url(#windowGlow)" opacity="0.8199105920828462"/>
<rect x="612.6" y="258.4" width="6" height="8" rx="1" fill="url(#windowGlow)" opacity="0.8294772116138959"/>
<rect x="626.6" y="258.4" width="6" height="8" rx="1" fill="url(#windowGlow)" opacity="0.7763000175712164"/>
<rect x="640.6" y="258.4" width="6" height="8" rx="1" fill="url(#windowGlow)" opacity="0.9900123592885268"/>
<rect x="979.8" y="201.7" width="77.4" height="98.3" rx="3" fill="url(#bldg_sky)" opacity="0.7"/>
<rect x="979.8" y="198.7" width="77.4" height="3" rx="1" fill="url(#roof_coralRoof)" opacity="0.7"/>
<rect x="994.5" y="211.7" width="6" height="8" rx="1" fill="url(#windowGlow)" opacity="0.9157859196494267"/>
<rect x="1008.5" y="211.7" width="6" height="8" rx="1" fill="url(#windowGlow)" opacity="0.8889758516517354"/>
<rect x="1022.5" y="211.7" width="6" height="8" rx="1" fill="url(#windowGlow)" opacity="0.8129488776498236"/>
<rect x="1036.5" y="211.7" width="6" height="8" rx="1" fill="url(#windowGlow)" opacity="0.9927732462961102"/>
<rect x="994.5" y="226.7" width="6" height="8" rx="1" fill="url(#windowGlow)" opacity="0.7054968715205308"/>
<rect x="1008.5" y="226.7" width="6" height="8" rx="1" fill="url(#windowGlow)" opacity="0.7828190714040859"/>
<rect x="1036.5" y="226.7" width="6" height="8" rx="1" fill="url(#windowGlow)" opacity="0.9001196194440683"/>
<rect x="994.5" y="241.7" width="6" height="8" rx="1" fill="url(#windowGlow)" opacity="0.9423749081056447"/>
<rect x="1008.5" y="241.7" width="6" height="8" rx="1" fill="url(#windowGlow)" opacity="0.8732896732042029"/>
<rect x="1022.5" y="241.7" width="6" height="8" rx="1" fill="url(#windowGlow)" opacity="0.8054118548079449"/>
<rect x="1036.5" y="241.7" width="6" height="8" rx="1" fill="url(#windowGlow)" opacity="0.9290515676276067"/>
<rect x="1008.5" y="256.7" width="6" height="8" rx="1" fill="url(#windowGlow)" opacity="0.8116000198813155"/>
<rect x="1022.5" y="256.7" width="6" height="8" rx="1" fill="url(#windowGlow)" opacity="0.8700532906083638"/>
<rect x="1036.5" y="256.7" width="6" height="8" rx="1" fill="url(#windowGlow)" opacity="0.9928707644310177"/>
<rect x="142.3" y="209.2" width="68.8" height="90.8" rx="3" fill="url(#bldg_coral)" opacity="0.85"/>
<rect x="156.1" y="198.3" width="41.3" height="10.9" rx="2" fill="url(#roof_tealRoof)" opacity="0.85"/>
<rect x="159.7" y="219.2" width="6" height="8" rx="1" fill="url(#windowGlow)" opacity="0.7173078639513384"/>
<rect x="173.7" y="219.2" width="6" height="8" rx="1" fill="url(#windowGlow)" opacity="0.917703400001723"/>
<rect x="187.7" y="219.2" width="6" height="8" rx="1" fill="url(#windowGlow)" opacity="0.9438153532537703"/>
<rect x="159.7" y="234.2" width="6" height="8" rx="1" fill="url(#windowGlow)" opacity="0.7644522971773763"/>
<rect x="173.7" y="234.2" width="6" height="8" rx="1" fill="url(#windowGlow)" opacity="0.9534108559849722"/>
<rect x="187.7" y="234.2" width="6" height="8" rx="1" fill="url(#windowGlow)" opacity="0.9310326343546773"/>
<rect x="159.7" y="249.2" width="6" height="8" rx="1" fill="url(#windowGlow)" opacity="0.7361536048521071"/>
<rect x="173.7" y="249.2" width="6" height="8" rx="1" fill="url(#windowGlow)" opacity="0.7375035676348505"/>
<rect x="187.7" y="249.2" width="6" height="8" rx="1" fill="url(#windowGlow)" opacity="0.8402929878515624"/>
<rect x="448.6" y="157.5" width="56.7" height="142.5" rx="3" fill="url(#bldg_teal)" opacity="0.85"/>
<polygon points="448.6,157.5 477.0,139.2 505.4,157.5" fill="url(#roof_navyRoof)" opacity="0.85"/>
<rect x="467.0" y="167.5" width="6" height="8" rx="1" fill="url(#windowGlow)" opacity="0.9879737514946487"/>
<rect x="481.0" y="167.5" width="6" height="8" rx="1" fill="url(#windowGlow)" opacity="0.932413161048858"/>
<rect x="467.0" y="182.5" width="6" height="8" rx="1" fill="url(#windowGlow)" opacity="0.9128997632828073"/>
<rect x="481.0" y="197.5" width="6" height="8" rx="1" fill="url(#windowGlow)" opacity="0.8955932706108285"/>
<rect x="467.0" y="212.5" width="6" height="8" rx="1" fill="url(#windowGlow)" opacity="0.8635036988479567"/>
<rect x="467.0" y="227.5" width="6" height="8" rx="1" fill="url(#windowGlow)" opacity="0.8880443060714958"/>
<rect x="481.0" y="227.5" width="6" height="8" rx="1" fill="url(#windowGlow)" opacity="0.776229811867806"/>
<rect x="467.0" y="242.5" width="6" height="8" rx="1" fill="url(#windowGlow)" opacity="0.7748581818653542"/>
<rect x="481.0" y="242.5" width="6" height="8" rx="1" fill="url(#windowGlow)" opacity="0.879682674528883"/>
<rect x="467.0" y="257.5" width="6" height="8" rx="1" fill="url(#windowGlow)" opacity="0.8443723788225894"/>
<rect x="481.0" y="257.5" width="6" height="8" rx="1" fill="url(#windowGlow)" opacity="0.7690143354558452"/>
<path d="M477.0 207.4 L499.7 207.4 L496.7 213.4 L480.0 213.4 Z" fill="url(#roof_tealRoof)" opacity="0.68"/>
<rect x="700.0" y="164.7" width="50.1" height="135.3" rx="3" fill="url(#bldg_amber)" opacity="0.85"/>
<rect x="710.0" y="148.4" width="30.1" height="16.2" rx="2" fill="url(#roof_coralRoof)" opacity="0.85"/>
<rect x="715.0" y="174.7" width="6" height="8" rx="1" fill="url(#windowGlow)" opacity="0.964235244488453"/>
<rect x="729.0" y="174.7" width="6" height="8" rx="1" fill="url(#windowGlow)" opacity="0.7651754479693134"/>
<rect x="729.0" y="189.7" width="6" height="8" rx="1" fill="url(#windowGlow)" opacity="0.9319373116045898"/>
<rect x="715.0" y="204.7" width="6" height="8" rx="1" fill="url(#windowGlow)" opacity="0.9853581088992571"/>
<rect x="729.0" y="219.7" width="6" height="8" rx="1" fill="url(#windowGlow)" opacity="0.9788406254159475"/>
<rect x="715.0" y="234.7" width="6" height="8" rx="1" fill="url(#windowGlow)" opacity="0.9018625568607181"/>
<rect x="715.0" y="249.7" width="6" height="8" rx="1" fill="url(#windowGlow)" opacity="0.9551782851830023"/>
<rect x="729.0" y="249.7" width="6" height="8" rx="1" fill="url(#windowGlow)" opacity="0.9019969884781153"/>
<path d="M705.0 212.0 L725.0 212.0 L722.0 218.0 L708.0 218.0 Z" fill="url(#roof_navyRoof)" opacity="0.68"/>
<rect x="991.1" y="197.5" width="75.1" height="102.5" rx="3" fill="url(#bldg_lavender)" opacity="0.85"/>
<polygon points="991.1,197.5 1028.7,176.3 1066.3,197.5" fill="url(#roof_tealRoof)" opacity="0.85"/>
<rect x="1004.7" y="207.5" width="6" height="8" rx="1" fill="url(#windowGlow)" opacity="0.9305425898779847"/>
<rect x="1018.7" y="207.5" width="6" height="8" rx="1" fill="url(#windowGlow)" opacity="0.7540204927111139"/>
<rect x="1032.7" y="207.5" width="6" height="8" rx="1" fill="url(#windowGlow)" opacity="0.8667637504016811"/>
<rect x="1046.7" y="207.5" width="6" height="8" rx="1" fill="url(#windowGlow)" opacity="0.9855645111694766"/>
<rect x="1004.7" y="222.5" width="6" height="8" rx="1" fill="url(#windowGlow)" opacity="0.9900988249062088"/>
<rect x="1018.7" y="222.5" width="6" height="8" rx="1" fill="url(#windowGlow)" opacity="0.754072501861524"/>
<rect x="1032.7" y="222.5" width="6" height="8" rx="1" fill="url(#windowGlow)" opacity="0.9561368692462038"/>
<rect x="1046.7" y="222.5" width="6" height="8" rx="1" fill="url(#windowGlow)" opacity="0.7125421972538075"/>
<rect x="1004.7" y="237.5" width="6" height="8" rx="1" fill="url(#windowGlow)" opacity="0.8490825095442507"/>
<rect x="1018.7" y="237.5" width="6" height="8" rx="1" fill="url(#windowGlow)" opacity="0.8039089210349641"/>
<rect x="1032.7" y="237.5" width="6" height="8" rx="1" fill="url(#windowGlow)" opacity="0.8627495943860847"/>
<rect x="1004.7" y="252.5" width="6" height="8" rx="1" fill="url(#windowGlow)" opacity="0.9613435327361074"/>
<rect x="1018.7" y="252.5" width="6" height="8" rx="1" fill="url(#windowGlow)" opacity="0.8713936978817888"/>
<rect x="1046.7" y="252.5" width="6" height="8" rx="1" fill="url(#windowGlow)" opacity="0.8718630801289635"/>
<rect x="235.6" y="134.7" width="67.8" height="165.3" rx="3" fill="url(#bldg_blue)" opacity="1"/>
<rect x="249.2" y="114.9" width="40.7" height="19.8" rx="2" fill="url(#roof_navyRoof)" opacity="1"/>
<rect x="252.6" y="144.7" width="6" height="8" rx="1" fill="url(#windowGlow)" opacity="0.7401292861160492"/>
<rect x="266.6" y="144.7" width="6" height="8" rx="1" fill="url(#windowGlow)" opacity="0.8139503091638676"/>
<rect x="280.6" y="144.7" width="6" height="8" rx="1" fill="url(#windowGlow)" opacity="0.8720954141915288"/>
<rect x="252.6" y="159.7" width="6" height="8" rx="1" fill="url(#windowGlow)" opacity="0.8743674612019059"/>
<rect x="266.6" y="159.7" width="6" height="8" rx="1" fill="url(#windowGlow)" opacity="0.9575340224232217"/>
<rect x="280.6" y="159.7" width="6" height="8" rx="1" fill="url(#windowGlow)" opacity="0.7632994126357601"/>
<rect x="252.6" y="174.7" width="6" height="8" rx="1" fill="url(#windowGlow)" opacity="0.8628434929358044"/>
<rect x="252.6" y="189.7" width="6" height="8" rx="1" fill="url(#windowGlow)" opacity="0.8598932468611249"/>
<rect x="266.6" y="189.7" width="6" height="8" rx="1" fill="url(#windowGlow)" opacity="0.9493149452606751"/>
<rect x="280.6" y="189.7" width="6" height="8" rx="1" fill="url(#windowGlow)" opacity="0.8992048963435016"/>
<rect x="252.6" y="204.7" width="6" height="8" rx="1" fill="url(#windowGlow)" opacity="0.9340964137269632"/>
<rect x="266.6" y="204.7" width="6" height="8" rx="1" fill="url(#windowGlow)" opacity="0.9618443345473353"/>
<rect x="280.6" y="204.7" width="6" height="8" rx="1" fill="url(#windowGlow)" opacity="0.8851663861820317"/>
<rect x="252.6" y="219.7" width="6" height="8" rx="1" fill="url(#windowGlow)" opacity="0.774399762868136"/>
<rect x="266.6" y="219.7" width="6" height="8" rx="1" fill="url(#windowGlow)" opacity="0.826253185619718"/>
<rect x="280.6" y="219.7" width="6" height="8" rx="1" fill="url(#windowGlow)" opacity="0.9214206562942922"/>
<rect x="252.6" y="234.7" width="6" height="8" rx="1" fill="url(#windowGlow)" opacity="0.7804465547112964"/>
<rect x="266.6" y="234.7" width="6" height="8" rx="1" fill="url(#windowGlow)" opacity="0.9396926648633985"/>
<rect x="280.6" y="234.7" width="6" height="8" rx="1" fill="url(#windowGlow)" opacity="0.8651561519434471"/>
<rect x="252.6" y="249.7" width="6" height="8" rx="1" fill="url(#windowGlow)" opacity="0.9287234542559475"/>
<rect x="266.6" y="249.7" width="6" height="8" rx="1" fill="url(#windowGlow)" opacity="0.7267184849487237"/>
<rect x="280.6" y="249.7" width="6" height="8" rx="1" fill="url(#windowGlow)" opacity="0.761814482771705"/>
<rect x="264.6" y="284.0" width="10" height="16" rx="2" fill="url(#roof_navyRoof)" opacity="0.8"/>
<rect x="266.6" y="287.0" width="6" height="10" rx="1" fill="url(#windowGlow)" opacity="0.45"/>
<path d="M242.4 192.6 L269.6 192.6 L266.6 198.6 L245.4 198.6 Z" fill="url(#roof_tealRoof)" opacity="0.8"/>
<rect x="587.7" y="167.1" width="74.1" height="132.9" rx="3" fill="url(#bldg_mint)" opacity="1"/>
<polygon points="587.7,167.1 624.7,143.6 661.8,167.1" fill="url(#roof_coralRoof)" opacity="1"/>
<rect x="600.7" y="177.1" width="6" height="8" rx="1" fill="url(#windowGlow)" opacity="0.8053541258468079"/>
<rect x="628.7" y="177.1" width="6" height="8" rx="1" fill="url(#windowGlow)" opacity="0.7941915733712686"/>
<rect x="642.7" y="177.1" width="6" height="8" rx="1" fill="url(#windowGlow)" opacity="0.8017840524212383"/>
<rect x="600.7" y="192.1" width="6" height="8" rx="1" fill="url(#windowGlow)" opacity="0.7241220909748795"/>
<rect x="614.7" y="192.1" width="6" height="8" rx="1" fill="url(#windowGlow)" opacity="0.7278311828746605"/>
<rect x="628.7" y="192.1" width="6" height="8" rx="1" fill="url(#windowGlow)" opacity="0.8643739247994375"/>
<rect x="642.7" y="192.1" width="6" height="8" rx="1" fill="url(#windowGlow)" opacity="0.8311305673006598"/>
<rect x="600.7" y="207.1" width="6" height="8" rx="1" fill="url(#windowGlow)" opacity="0.7631527840919572"/>
<rect x="614.7" y="207.1" width="6" height="8" rx="1" fill="url(#windowGlow)" opacity="0.924316244537158"/>
<rect x="628.7" y="207.1" width="6" height="8" rx="1" fill="url(#windowGlow)" opacity="0.9374960130720846"/>
<rect x="642.7" y="207.1" width="6" height="8" rx="1" fill="url(#windowGlow)" opacity="0.9752247376252081"/>
<rect x="600.7" y="222.1" width="6" height="8" rx="1" fill="url(#windowGlow)" opacity="0.9625670236361059"/>
<rect x="614.7" y="222.1" width="6" height="8" rx="1" fill="url(#windowGlow)" opacity="0.9601543310844126"/>
<rect x="628.7" y="237.1" width="6" height="8" rx="1" fill="url(#windowGlow)" opacity="0.7194820426029535"/>
<rect x="642.7" y="237.1" width="6" height="8" rx="1" fill="url(#windowGlow)" opacity="0.85323599123081"/>
<rect x="600.7" y="252.1" width="6" height="8" rx="1" fill="url(#windowGlow)" opacity="0.738511243247665"/>
<rect x="614.7" y="252.1" width="6" height="8" rx="1" fill="url(#windowGlow)" opacity="0.8313300554786482"/>
<rect x="628.7" y="252.1" width="6" height="8" rx="1" fill="url(#windowGlow)" opacity="0.913766539522338"/>
<rect x="642.7" y="252.1" width="6" height="8" rx="1" fill="url(#windowGlow)" opacity="0.9689493324463019"/>
<rect x="619.7" y="284.0" width="10" height="16" rx="2" fill="url(#roof_navyRoof)" opacity="0.8"/>
<rect x="621.7" y="287.0" width="6" height="10" rx="1" fill="url(#windowGlow)" opacity="0.45"/>
<rect x="948.2" y="156.2" width="51.2" height="143.8" rx="3" fill="url(#bldg_rose)" opacity="1"/>
<polygon points="948.2,156.2 973.8,145.1 999.5,156.2" fill="url(#roof_tealRoof)" opacity="1"/>
<rect x="963.8" y="166.2" width="6" height="8" rx="1" fill="url(#windowGlow)" opacity="0.9560875520836969"/>
<rect x="977.8" y="166.2" width="6" height="8" rx="1" fill="url(#windowGlow)" opacity="0.8401018954068896"/>
<rect x="963.8" y="196.2" width="6" height="8" rx="1" fill="url(#windowGlow)" opacity="0.877970489616492"/>
<rect x="977.8" y="196.2" width="6" height="8" rx="1" fill="url(#windowGlow)" opacity="0.9734573331537923"/>
<rect x="963.8" y="211.2" width="6" height="8" rx="1" fill="url(#windowGlow)" opacity="0.7243425297198549"/>
<rect x="977.8" y="211.2" width="6" height="8" rx="1" fill="url(#windowGlow)" opacity="0.7846418531540045"/>
<rect x="963.8" y="226.2" width="6" height="8" rx="1" fill="url(#windowGlow)" opacity="0.8156443216910791"/>
<rect x="977.8" y="226.2" width="6" height="8" rx="1" fill="url(#windowGlow)" opacity="0.7322802252752149"/>
<rect x="963.8" y="241.2" width="6" height="8" rx="1" fill="url(#windowGlow)" opacity="0.7990832685488664"/>
<rect x="977.8" y="241.2" width="6" height="8" rx="1" fill="url(#windowGlow)" opacity="0.9481833531279971"/>
<rect x="977.8" y="256.2" width="6" height="8" rx="1" fill="url(#windowGlow)" opacity="0.740110456310264"/>
<rect x="968.8" y="284.0" width="10" height="16" rx="2" fill="url(#roof_navyRoof)" opacity="0.8"/>
<rect x="970.8" y="287.0" width="6" height="10" rx="1" fill="url(#windowGlow)" opacity="0.45"/>
<path d="M953.4 206.6 L973.8 206.6 L970.8 212.6 L956.4 212.6 Z" fill="url(#roof_coralRoof)" opacity="0.8"/>
<rect x="964.9" y="197.2" width="17.9" height="5" rx="1" fill="#15803d" opacity="0.7"/>
<circle cx="967.9" cy="196.2" r="2.5" fill="#fb923c" opacity="0.85"/>
<circle cx="973.9" cy="196.2" r="2.5" fill="#f87171" opacity="0.85"/>
<circle cx="979.8" cy="196.2" r="2.5" fill="#a78bfa" opacity="0.85"/>
<rect x="442.6" y="268.5" width="6" height="16.5" rx="2" fill="#15803d"/>
<circle cx="445.6" cy="256.9" r="15.6" fill="#22c55e" opacity="0.9"/>
<circle cx="437.1" cy="259.9" r="11.7" fill="#16a34a" opacity="0.8"/>
<circle cx="451.1" cy="260.9" r="10.9" fill="#15803d" opacity="0.7"/>
<rect x="802.0" y="263.4" width="6" height="21.6" rx="2" fill="#15803d"/>
<circle cx="805.0" cy="254.0" r="13.4" fill="#22c55e" opacity="0.9"/>
<circle cx="797.8" cy="257.0" r="10.1" fill="#16a34a" opacity="0.8"/>
<circle cx="811.5" cy="258.0" r="9.4" fill="#15803d" opacity="0.7"/>
<rect x="208.9" y="263.4" width="6" height="21.6" rx="2" fill="#15803d"/>
<circle cx="211.9" cy="251.5" r="16.0" fill="#22c55e" opacity="0.9"/>
<circle cx="205.6" cy="254.5" r="12.0" fill="#16a34a" opacity="0.8"/>
<circle cx="217.1" cy="255.5" r="11.2" fill="#15803d" opacity="0.7"/>
<rect x="1027.3" y="266.8" width="6" height="18.2" rx="2" fill="#15803d"/>
<circle cx="1030.3" cy="254.5" r="16.3" fill="#22c55e" opacity="0.9"/>
<circle cx="1021.9" cy="257.5" r="12.2" fill="#16a34a" opacity="0.8"/>
<circle cx="1037.2" cy="258.5" r="11.4" fill="#15803d" opacity="0.7"/>
<rect x="636.4" y="264.8" width="6" height="20.2" rx="2" fill="#15803d"/>
<circle cx="639.4" cy="254.9" r="13.9" fill="#22c55e" opacity="0.9"/>
<circle cx="631.3" cy="257.9" r="10.4" fill="#16a34a" opacity="0.8"/>
<circle cx="645.0" cy="258.9" r="9.7" fill="#15803d" opacity="0.7"/>
<rect x="314.4" y="267.8" width="6" height="17.2" rx="2" fill="#15803d"/>
<circle cx="317.4" cy="254.1" r="17.8" fill="#22c55e" opacity="0.9"/>
<circle cx="309.2" cy="257.1" r="13.3" fill="#16a34a" opacity="0.8"/>
<circle cx="322.6" cy="258.1" r="12.4" fill="#15803d" opacity="0.7"/>
<rect x="847.0" y="268.2" width="6" height="16.8" rx="2" fill="#15803d"/>
<circle cx="850.0" cy="254.6" r="17.6" fill="#22c55e" opacity="0.9"/>
<circle cx="843.3" cy="257.6" r="13.2" fill="#16a34a" opacity="0.8"/>
<circle cx="857.6" cy="258.6" r="12.3" fill="#15803d" opacity="0.7"/>
<rect x="90.9" y="268.6" width="6" height="16.4" rx="2" fill="#15803d"/>
<circle cx="93.9" cy="257.1" r="15.6" fill="#22c55e" opacity="0.9"/>
<circle cx="87.4" cy="260.1" r="11.7" fill="#16a34a" opacity="0.8"/>
<circle cx="101.5" cy="261.1" r="10.9" fill="#15803d" opacity="0.7"/>
<rect x="0" y="282" width="1200" height="18" fill="url(#groundGrad)"/>
<line x1="624.8" y1="282.0" x2="624.8" y2="245.9" stroke="#92400e" stroke-width="2"/>
<circle cx="624.8" cy="245.9" r="4" fill="#fef08a" opacity="0.6"/>
<circle cx="624.8" cy="245.9" r="8" fill="#fef08a" opacity="0.15" filter="url(#softGlow)"/>
<line x1="341.0" y1="282.0" x2="341.0" y2="251.5" stroke="#92400e" stroke-width="2"/>
<circle cx="341.0" cy="251.5" r="4" fill="#fef08a" opacity="0.6"/>
<circle cx="341.0" cy="251.5" r="8" fill="#fef08a" opacity="0.15" filter="url(#softGlow)"/>
<ellipse cx="646.2" cy="282.0" rx="4.3" ry="3.0" fill="#22c55e" opacity="0.6"/>
<ellipse cx="803.1" cy="282.0" rx="5.7" ry="4.0" fill="#22c55e" opacity="0.6"/>
<ellipse cx="1041.6" cy="282.0" rx="6.3" ry="4.4" fill="#22c55e" opacity="0.6"/>
<ellipse cx="1148.8" cy="282.0" rx="5.9" ry="4.1" fill="#22c55e" opacity="0.6"/>
</svg>