<svg xmlns="http://www.w3.org/2000/svg" viewBox="0 0 1200 300" width="1200" height="300">
<rect width="1200" height="300" fill="#e0eff2"/>
<path d="M0 300 L0 210.0 C194.5 176.7, 902.8 188.3, 1200 210.0 L1200 300 Z" fill="#aac2c9" opacity="0.3"/>
<rect x="145.4" y="238.2" width="41.2" height="61.8" fill="#8aabb4"/>
<rect x="420.4" y="183.5" width="63.6" height="116.5" fill="#8aabb4"/>
<rect x="712.7" y="228.3" width="77.3" height="71.7" fill="#8aabb4"/>
<rect x="1006.2" y="181.3" width="72.3" height="118.7" fill="#8aabb4"/>
<rect x="137.0" y="185.2" width="62.5" height="114.8" fill="#558592"/>
<rect x="151.2" y="197.2" width="6" height="8" fill="#91b0b8" opacity="0.5"/>
<rect x="165.2" y="197.2" width="6" height="8" fill="#91b0b8" opacity="0.5"/>
<rect x="179.2" y="197.2" width="6" height="8" fill="#91b0b8" opacity="0.5"/>
<rect x="151.2" y="213.2" width="6" height="8" fill="#91b0b8" opacity="0.5"/>
<rect x="165.2" y="213.2" width="6" height="8" fill="#91b0b8" opacity="0.5"/>
<rect x="179.2" y="213.2" width="6" height="8" fill="#91b0b8" opacity="0.5"/>
<rect x="151.2" y="229.2" width="6" height="8" fill="#91b0b8" opacity="0.5"/>
<rect x="165.2" y="229.2" width="6" height="8" fill="#91b0b8" opacity="0.5"/>
<rect x="179.2" y="229.2" width="6" height="8" fill="#91b0b8" opacity="0.5"/>
<rect x="151.2" y="245.2" width="6" height="8" fill="#91b0b8" opacity="0.5"/>
<rect x="165.2" y="245.2" width="6" height="8" fill="#91b0b8" opacity="0.5"/>
<rect x="179.2" y="245.2" width="6" height="8" fill="#91b0b8" opacity="0.5"/>
<rect x="151.2" y="261.2" width="6" height="8" fill="#91b0b8" opacity="0.5"/>
<rect x="165.2" y="261.2" width="6" height="8" fill="#91b0b8" opacity="0.5"/>
<rect x="179.2" y="261.2" width="6" height="8" fill="#91b0b8" opacity="0.5"/>
<rect x="359.9" y="141.7" width="65.5" height="158.3" fill="#558592"/>
<rect x="375.7" y="153.7" width="6" height="8" fill="#91b0b8" opacity="0.5"/>
<rect x="389.7" y="153.7" width="6" height="8" fill="#91b0b8" opacity="0.5"/>
<rect x="403.7" y="153.7" width="6" height="8" fill="#91b0b8" opacity="0.5"/>
<rect x="375.7" y="169.7" width="6" height="8" fill="#91b0b8" opacity="0.5"/>
<rect x="389.7" y="169.7" width="6" height="8" fill="#91b0b8" opacity="0.5"/>
<rect x="403.7" y="169.7" width="6" height="8" fill="#91b0b8" opacity="0.5"/>
<rect x="375.7" y="185.7" width="6" height="8" fill="#91b0b8" opacity="0.5"/>
<rect x="389.7" y="185.7" width="6" height="8" fill="#91b0b8" opacity="0.5"/>
<rect x="403.7" y="185.7" width="6" height="8" fill="#91b0b8" opacity="0.5"/>
<rect x="375.7" y="201.7" width="6" height="8" fill="#91b0b8" opacity="0.5"/>
<rect x="389.7" y="201.7" width="6" height="8" fill="#91b0b8" opacity="0.5"/>
<rect x="403.7" y="201.7" width="6" height="8" fill="#91b0b8" opacity="0.5"/>
<rect x="375.7" y="217.7" width="6" height="8" fill="#91b0b8" opacity="0.5"/>
<rect x="389.7" y="217.7" width="6" height="8" fill="#91b0b8" opacity="0.5"/>
<rect x="403.7" y="217.7" width="6" height="8" fill="#91b0b8" opacity="0.5"/>
<rect x="375.7" y="233.7" width="6" height="8" fill="#91b0b8" opacity="0.5"/>
<rect x="389.7" y="233.7" width="6" height="8" fill="#91b0b8" opacity="0.5"/>
<rect x="375.7" y="249.7" width="6" height="8" fill="#91b0b8" opacity="0.5"/>
<rect x="389.7" y="249.7" width="6" height="8" fill="#91b0b8" opacity="0.5"/>
<rect x="375.7" y="265.7" width="6" height="8" fill="#91b0b8" opacity="0.5"/>
<rect x="546.7" y="200.7" width="77.0" height="99.3" fill="#558592"/>
<rect x="561.2" y="212.7" width="6" height="8" fill="#91b0b8" opacity="0.5"/>
<rect x="575.2" y="212.7" width="6" height="8" fill="#91b0b8" opacity="0.5"/>
<rect x="589.2" y="212.7" width="6" height="8" fill="#91b0b8" opacity="0.5"/>
<rect x="603.2" y="212.7" width="6" height="8" fill="#91b0b8" opacity="0.5"/>
<rect x="575.2" y="228.7" width="6" height="8" fill="#91b0b8" opacity="0.5"/>
<rect x="589.2" y="228.7" width="6" height="8" fill="#91b0b8" opacity="0.5"/>
<rect x="603.2" y="228.7" width="6" height="8" fill="#91b0b8" opacity="0.5"/>
<rect x="561.2" y="244.7" width="6" height="8" fill="#91b0b8" opacity="0.5"/>
<rect x="575.2" y="244.7" width="6" height="8" fill="#91b0b8" opacity="0.5"/>
<rect x="589.2" y="244.7" width="6" height="8" fill="#91b0b8" opacity="0.5"/>
<rect x="561.2" y="260.7" width="6" height="8" fill="#91b0b8" opacity="0.5"/>
<rect x="575.2" y="260.7" width="6" height="8" fill="#91b0b8" opacity="0.5"/>
<rect x="589.2" y="260.7" width="6" height="8" fill="#91b0b8" opacity="0.5"/>
<rect x="603.2" y="260.7" width="6" height="8" fill="#91b0b8" opacity="0.5"/>
<rect x="804.4" y="137.9" width="79.1" height="162.1" fill="#558592"/>
<rect x="819.9" y="149.9" width="6" height="8" fill="#91b0b8" opacity="0.5"/>
<rect x="833.9" y="149.9" width="6" height="8" fill="#91b0b8" opacity="0.5"/>
<rect x="847.9" y="149.9" width="6" height="8" fill="#91b0b8" opacity="0.5"/>
<rect x="861.9" y="149.9" width="6" height="8" fill="#91b0b8" opacity="0.5"/>
<rect x="819.9" y="165.9" width="6" height="8" fill="#91b0b8" opacity="0.5"/>
<rect x="847.9" y="165.9" width="6" height="8" fill="#91b0b8" opacity="0.5"/>
<rect x="861.9" y="165.9" width="6" height="8" fill="#91b0b8" opacity="0.5"/>
<rect x="847.9" y="181.9" width="6" height="8" fill="#91b0b8" opacity="0.5"/>
<rect x="861.9" y="181.9" width="6" height="8" fill="#91b0b8" opacity="0.5"/>
<rect x="819.9" y="197.9" width="6" height="8" fill="#91b0b8" opacity="0.5"/>
<rect x="833.9" y="197.9" width="6" height="8" fill="#91b0b8" opacity="0.5"/>
<rect x="847.9" y="197.9" width="6" height="8" fill="#91b0b8" opacity="0.5"/>
<rect x="861.9" y="197.9" width="6" height="8" fill="#91b0b8" opacity="0.5"/>
<rect x="819.9" y="213.9" width="6" height="8" fill="#91b0b8" opacity="0.5"/>
<rect x="833.9" y="213.9" width="6" height="8" fill="#91b0b8" opacity="0.5"/>
<rect x="847.9" y="213.9" width="6" height="8" fill="#91b0b8" opacity="0.5"/>
<rect x="861.9" y="213.9" width="6" height="8" fill="#91b0b8" opacity="0.5"/>
<rect x="819.9" y="229.9" width="6" height="8" fill="#91b0b8" opacity="0.5"/>
<rect x="833.9" y="229.9" width="6" height="8" fill="#91b0b8" opacity="0.5"/>
<rect x="847.9" y="229.9" width="6" height="8" fill="#91b0b8" opacity="0.5"/>
<rect x="861.9" y="229.9" width="6" height="8" fill="#91b0b8" opacity="0.5"/>
<rect x="819.9" y="245.9" width="6" height="8" fill="#91b0b8" opacity="0.5"/>
<rect x="847.9" y="245.9" width="6" height="8" fill="#91b0b8" opacity="0.5"/>
<rect x="861.9" y="245.9" width="6" height="8" fill="#91b0b8" opacity="0.5"/>
<rect x="819.9" y="261.9" width="6" height="8" fill="#91b0b8" opacity="0.5"/>
<rect x="833.9" y="261.9" width="6" height="8" fill="#91b0b8" opacity="0.5"/>
<rect x="861.9" y="261.9" width="6" height="8" fill="#91b0b8" opacity="0.5"/>
<rect x="1063.3" y="146.6" width="38.4" height="153.4" fill="#558592"/>
<rect x="1079.5" y="158.6" width="6" height="8" fill="#91b0b8" opacity="0.5"/>
<rect x="1079.5" y="190.6" width="6" height="8" fill="#91b0b8" opacity="0.5"/>
<rect x="1079.5" y="206.6" width="6" height="8" fill="#91b0b8" opacity="0.5"/>
<rect x="1079.5" y="222.6" width="6" height="8" fill="#91b0b8" opacity="0.5"/>
<rect x="1079.5" y="238.6" width="6" height="8" fill="#91b0b8" opacity="0.5"/>
<rect x="1079.5" y="254.6" width="6" height="8" fill="#91b0b8" opacity="0.5"/>
<rect x="1079.5" y="270.6" width="6" height="8" fill="#91b0b8" opacity="0.5"/>
<rect x="132.2" y="199.0" width="68.6" height="101.0" fill="#2b6777"/>
<rect x="149.5" y="211.0" width="6" height="8" fill="#759ca7" opacity="0.5"/>
<rect x="163.5" y="211.0" width="6" height="8" fill="#759ca7" opacity="0.5"/>
<rect x="177.5" y="211.0" width="6" height="8" fill="#759ca7" opacity="0.5"/>
<rect x="149.5" y="227.0" width="6" height="8" fill="#759ca7" opacity="0.5"/>
<rect x="177.5" y="227.0" width="6" height="8" fill="#759ca7" opacity="0.5"/>
<rect x="149.5" y="243.0" width="6" height="8" fill="#759ca7" opacity="0.5"/>
<rect x="163.5" y="243.0" width="6" height="8" fill="#759ca7" opacity="0.5"/>
<rect x="177.5" y="243.0" width="6" height="8" fill="#759ca7" opacity="0.5"/>
<rect x="149.5" y="259.0" width="6" height="8" fill="#759ca7" opacity="0.5"/>
<rect x="163.5" y="259.0" width="6" height="8" fill="#759ca7" opacity="0.5"/>
<rect x="177.5" y="259.0" width="6" height="8" fill="#759ca7" opacity="0.5"/>
<rect x="353.4" y="151.6" width="52.8" height="148.4" fill="#2b6777"/>
<rect x="369.8" y="163.6" width="6" height="8" fill="#759ca7" opacity="0.5"/>
<rect x="369.8" y="179.6" width="6" height="8" fill="#759ca7" opacity="0.5"/>
<rect x="383.8" y="179.6" width="6" height="8" fill="#759ca7" opacity="0.5"/>
<rect x="369.8" y="195.6" width="6" height="8" fill="#759ca7" opacity="0.5"/>
<rect x="383.8" y="195.6" width="6" height="8" fill="#759ca7" opacity="0.5"/>
<rect x="369.8" y="211.6" width="6" height="8" fill="#759ca7" opacity="0.5"/>
<rect x="369.8" y="227.6" width="6" height="8" fill="#759ca7" opacity="0.5"/>
<rect x="383.8" y="227.6" width="6" height="8" fill="#759ca7" opacity="0.5"/>
<rect x="369.8" y="243.6" width="6" height="8" fill="#759ca7" opacity="0.5"/>
<rect x="383.8" y="243.6" width="6" height="8" fill="#759ca7" opacity="0.5"/>
<rect x="369.8" y="259.6" width="6" height="8" fill="#759ca7" opacity="0.5"/>
<rect x="590.9" y="126.0" width="48.5" height="174.0" fill="#2b6777"/>
<rect x="605.2" y="138.0" width="6" height="8" fill="#759ca7" opacity="0.5"/>
<rect x="605.2" y="154.0" width="6" height="8" fill="#759ca7" opacity="0.5"/>
<rect x="619.2" y="154.0" width="6" height="8" fill="#759ca7" opacity="0.5"/>
<rect x="605.2" y="170.0" width="6" height="8" fill="#759ca7" opacity="0.5"/>
<rect x="605.2" y="186.0" width="6" height="8" fill="#759ca7" opacity="0.5"/>
<rect x="619.2" y="186.0" width="6" height="8" fill="#759ca7" opacity="0.5"/>
<rect x="605.2" y="202.0" width="6" height="8" fill="#759ca7" opacity="0.5"/>
<rect x="619.2" y="202.0" width="6" height="8" fill="#759ca7" opacity="0.5"/>
<rect x="605.2" y="218.0" width="6" height="8" fill="#759ca7" opacity="0.5"/>
<rect x="619.2" y="218.0" width="6" height="8" fill="#759ca7" opacity="0.5"/>
<rect x="605.2" y="234.0" width="6" height="8" fill="#759ca7" opacity="0.5"/>
<rect x="619.2" y="250.0" width="6" height="8" fill="#759ca7" opacity="0.5"/>
<rect x="605.2" y="266.0" width="6" height="8" fill="#759ca7" opacity="0.5"/>
<rect x="619.2" y="266.0" width="6" height="8" fill="#759ca7" opacity="0.5"/>
<rect x="796.4" y="239.8" width="72.4" height="60.2" fill="#2b6777"/>
<rect x="808.6" y="251.8" width="6" height="8" fill="#759ca7" opacity="0.5"/>
<rect x="836.6" y="251.8" width="6" height="8" fill="#759ca7" opacity="0.5"/>
<rect x="850.6" y="251.8" width="6" height="8" fill="#759ca7" opacity="0.5"/>
<rect x="808.6" y="267.8" width="6" height="8" fill="#759ca7" opacity="0.5"/>
<rect x="822.6" y="267.8" width="6" height="8" fill="#759ca7" opacity="0.5"/>
<rect x="1058.3" y="131.0" width="50.8" height="169.0" fill="#2b6777"/>
<rect x="1073.7" y="143.0" width="6" height="8" fill="#759ca7" opacity="0.5"/>
<rect x="1087.7" y="143.0" width="6" height="8" fill="#759ca7" opacity="0.5"/>
<rect x="1073.7" y="159.0" width="6" height="8" fill="#759ca7" opacity="0.5"/>
<rect x="1087.7" y="159.0" width="6" height="8" fill="#759ca7" opacity="0.5"/>
<rect x="1073.7" y="175.0" width="6" height="8" fill="#759ca7" opacity="0.5"/>
<rect x="1073.7" y="191.0" width="6" height="8" fill="#759ca7" opacity="0.5"/>
<rect x="1073.7" y="207.0" width="6" height="8" fill="#759ca7" opacity="0.5"/>
<rect x="1087.7" y="207.0" width="6" height="8" fill="#759ca7" opacity="0.5"/>
<rect x="1073.7" y="223.0" width="6" height="8" fill="#759ca7" opacity="0.5"/>
<rect x="1087.7" y="223.0" width="6" height="8" fill="#759ca7" opacity="0.5"/>
<rect x="1073.7" y="255.0" width="6" height="8" fill="#759ca7" opacity="0.5"/>
<rect x="1087.7" y="255.0" width="6" height="8" fill="#759ca7" opacity="0.5"/>
<rect x="1073.7" y="271.0" width="6" height="8" fill="#759ca7" opacity="0.5"/>
<rect x="1087.7" y="271.0" width="6" height="8" fill="#759ca7" opacity="0.5"/>
<rect x="0" y="298" width="1200" height="2" fill="#275d6b" opacity="0.15"/>
</svg>