<svg xmlns="http://www.w3.org/2000/svg" viewBox="0 0 1200 300" width="1200" height="300">
<rect width="1200" height="300" fill="#e0eff2"/>
<path d="M0 300 L0 210.0 C385.3 186.9, 831.8 194.8, 1200 210.0 L1200 300 Z" fill="#aac2c9" opacity="0.3"/>
<rect x="133.5" y="185.9" width="81.2" height="114.1" fill="#8aabb4"/>
<rect x="408.1" y="240.1" width="78.9" height="59.9" fill="#8aabb4"/>
<rect x="698.9" y="226.7" width="61.2" height="73.3" fill="#8aabb4"/>
<rect x="986.0" y="211.0" width="44.8" height="89.0" fill="#8aabb4"/>
<rect x="121.9" y="158.9" width="46.8" height="141.1" fill="#558592"/>
<rect x="135.3" y="170.9" width="6" height="8" fill="#91b0b8" opacity="0.5"/>
<rect x="149.3" y="170.9" width="6" height="8" fill="#91b0b8" opacity="0.5"/>
<rect x="135.3" y="186.9" width="6" height="8" fill="#91b0b8" opacity="0.5"/>
<rect x="149.3" y="202.9" width="6" height="8" fill="#91b0b8" opacity="0.5"/>
<rect x="135.3" y="218.9" width="6" height="8" fill="#91b0b8" opacity="0.5"/>
<rect x="149.3" y="218.9" width="6" height="8" fill="#91b0b8" opacity="0.5"/>
<rect x="135.3" y="234.9" width="6" height="8" fill="#91b0b8" opacity="0.5"/>
<rect x="149.3" y="234.9" width="6" height="8" fill="#91b0b8" opacity="0.5"/>
<rect x="149.3" y="250.9" width="6" height="8" fill="#91b0b8" opacity="0.5"/>
<rect x="407.9" y="185.4" width="65.9" height="114.6" fill="#558592"/>
<rect x="423.9" y="197.4" width="6" height="8" fill="#91b0b8" opacity="0.5"/>
<rect x="437.9" y="197.4" width="6" height="8" fill="#91b0b8" opacity="0.5"/>
<rect x="423.9" y="213.4" width="6" height="8" fill="#91b0b8" opacity="0.5"/>
<rect x="437.9" y="213.4" width="6" height="8" fill="#91b0b8" opacity="0.5"/>
<rect x="451.9" y="213.4" width="6" height="8" fill="#91b0b8" opacity="0.5"/>
<rect x="423.9" y="229.4" width="6" height="8" fill="#91b0b8" opacity="0.5"/>
<rect x="437.9" y="229.4" width="6" height="8" fill="#91b0b8" opacity="0.5"/>
<rect x="451.9" y="229.4" width="6" height="8" fill="#91b0b8" opacity="0.5"/>
<rect x="437.9" y="245.4" width="6" height="8" fill="#91b0b8" opacity="0.5"/>
<rect x="423.9" y="261.4" width="6" height="8" fill="#91b0b8" opacity="0.5"/>
<rect x="764.5" y="181.7" width="38.2" height="118.3" fill="#558592"/>
<rect x="780.6" y="193.7" width="6" height="8" fill="#91b0b8" opacity="0.5"/>
<rect x="780.6" y="209.7" width="6" height="8" fill="#91b0b8" opacity="0.5"/>
<rect x="780.6" y="225.7" width="6" height="8" fill="#91b0b8" opacity="0.5"/>
<rect x="780.6" y="241.7" width="6" height="8" fill="#91b0b8" opacity="0.5"/>
<rect x="780.6" y="273.7" width="6" height="8" fill="#91b0b8" opacity="0.5"/>
<rect x="968.7" y="199.1" width="65.7" height="100.9" fill="#558592"/>
<rect x="984.5" y="211.1" width="6" height="8" fill="#91b0b8" opacity="0.5"/>
<rect x="998.5" y="211.1" width="6" height="8" fill="#91b0b8" opacity="0.5"/>
<rect x="1012.5" y="211.1" width="6" height="8" fill="#91b0b8" opacity="0.5"/>
<rect x="984.5" y="227.1" width="6" height="8" fill="#91b0b8" opacity="0.5"/>
<rect x="1012.5" y="227.1" width="6" height="8" fill="#91b0b8" opacity="0.5"/>
<rect x="984.5" y="243.1" width="6" height="8" fill="#91b0b8" opacity="0.5"/>
<rect x="998.5" y="243.1" width="6" height="8" fill="#91b0b8" opacity="0.5"/>
<rect x="1012.5" y="243.1" width="6" height="8" fill="#91b0b8" opacity="0.5"/>
<rect x="998.5" y="259.1" width="6" height="8" fill="#91b0b8" opacity="0.5"/>
<rect x="1012.5" y="259.1" width="6" height="8" fill="#91b0b8" opacity="0.5"/>
<rect x="144.2" y="199.6" width="34.4" height="100.4" fill="#2b6777"/>
<rect x="158.4" y="211.6" width="6" height="8" fill="#759ca7" opacity="0.5"/>
<rect x="158.4" y="227.6" width="6" height="8" fill="#759ca7" opacity="0.5"/>
<rect x="158.4" y="243.6" width="6" height="8" fill="#759ca7" opacity="0.5"/>
<rect x="158.4" y="259.6" width="6" height="8" fill="#759ca7" opacity="0.5"/>
<rect x="384.2" y="249.4" width="61.3" height="50.6" fill="#2b6777"/>
<rect x="743.8" y="249.4" width="45.4" height="50.6" fill="#2b6777"/>
<rect x="1000.9" y="218.7" width="49.7" height="81.3" fill="#2b6777"/>
<rect x="1029.8" y="230.7" width="6" height="8" fill="#759ca7" opacity="0.5"/>
<rect x="1029.8" y="246.7" width="6" height="8" fill="#759ca7" opacity="0.5"/>
<rect x="1015.8" y="262.7" width="6" height="8" fill="#759ca7" opacity="0.5"/>
<rect x="1029.8" y="262.7" width="6" height="8" fill="#759ca7" opacity="0.5"/>
<rect x="0" y="298" width="1200" height="2" fill="#275d6b" opacity="0.15"/>
</svg>