<svg xmlns="http://www.w3.org/2000/svg" viewBox="0 0 1200 300" width="1200" height="300">
<rect width="1200" height="300" fill="#e0eff2"/>
<path d="M0 300 L0 210.0 C201.5 160.7, 836.8 194.2, 1200 210.0 L1200 300 Z" fill="#aac2c9" opacity="0.3"/>
<rect x="156.6" y="254.0" width="74.7" height="46.0" fill="#8aabb4"/>
<rect x="523.1" y="210.0" width="51.6" height="90.0" fill="#8aabb4"/>
<rect x="969.2" y="207.2" width="87.3" height="92.8" fill="#8aabb4"/>
<rect x="163.8" y="189.1" width="48.6" height="110.9" fill="#558592"/>
<rect x="178.1" y="201.1" width="6" height="8" fill="#91b0b8" opacity="0.5"/>
<rect x="192.1" y="201.1" width="6" height="8" fill="#91b0b8" opacity="0.5"/>
<rect x="178.1" y="217.1" width="6" height="8" fill="#91b0b8" opacity="0.5"/>
<rect x="178.1" y="233.1" width="6" height="8" fill="#91b0b8" opacity="0.5"/>
<rect x="192.1" y="233.1" width="6" height="8" fill="#91b0b8" opacity="0.5"/>
<rect x="178.1" y="265.1" width="6" height="8" fill="#91b0b8" opacity="0.5"/>
<rect x="192.1" y="265.1" width="6" height="8" fill="#91b0b8" opacity="0.5"/>
<rect x="561.9" y="221.7" width="35.4" height="78.3" fill="#558592"/>
<rect x="576.6" y="249.7" width="6" height="8" fill="#91b0b8" opacity="0.5"/>
<rect x="965.7" y="215.3" width="62.8" height="84.7" fill="#558592"/>
<rect x="980.1" y="227.3" width="6" height="8" fill="#91b0b8" opacity="0.5"/>
<rect x="994.1" y="227.3" width="6" height="8" fill="#91b0b8" opacity="0.5"/>
<rect x="1008.1" y="227.3" width="6" height="8" fill="#91b0b8" opacity="0.5"/>
<rect x="980.1" y="243.3" width="6" height="8" fill="#91b0b8" opacity="0.5"/>
<rect x="994.1" y="243.3" width="6" height="8" fill="#91b0b8" opacity="0.5"/>
<rect x="1008.1" y="243.3" width="6" height="8" fill="#91b0b8" opacity="0.5"/>
<rect x="174.8" y="171.0" width="31.1" height="129.0" fill="#2b6777"/>
<rect x="187.3" y="183.0" width="6" height="8" fill="#759ca7" opacity="0.5"/>
<rect x="187.3" y="199.0" width="6" height="8" fill="#759ca7" opacity="0.5"/>
<rect x="187.3" y="231.0" width="6" height="8" fill="#759ca7" opacity="0.5"/>
<rect x="187.3" y="247.0" width="6" height="8" fill="#759ca7" opacity="0.5"/>
<rect x="187.3" y="263.0" width="6" height="8" fill="#759ca7" opacity="0.5"/>
<rect x="558.9" y="151.9" width="67.6" height="148.1" fill="#2b6777"/>
<rect x="575.7" y="163.9" width="6" height="8" fill="#759ca7" opacity="0.5"/>
<rect x="589.7" y="163.9" width="6" height="8" fill="#759ca7" opacity="0.5"/>
<rect x="589.7" y="179.9" width="6" height="8" fill="#759ca7" opacity="0.5"/>
<rect x="603.7" y="179.9" width="6" height="8" fill="#759ca7" opacity="0.5"/>
<rect x="575.7" y="195.9" width="6" height="8" fill="#759ca7" opacity="0.5"/>
<rect x="589.7" y="195.9" width="6" height="8" fill="#759ca7" opacity="0.5"/>
<rect x="603.7" y="195.9" width="6" height="8" fill="#759ca7" opacity="0.5"/>
<rect x="575.7" y="211.9" width="6" height="8" fill="#759ca7" opacity="0.5"/>
<rect x="589.7" y="211.9" width="6" height="8" fill="#759ca7" opacity="0.5"/>
<rect x="575.7" y="227.9" width="6" height="8" fill="#759ca7" opacity="0.5"/>
<rect x="589.7" y="227.9" width="6" height="8" fill="#759ca7" opacity="0.5"/>
<rect x="603.7" y="227.9" width="6" height="8" fill="#759ca7" opacity="0.5"/>
<rect x="575.7" y="243.9" width="6" height="8" fill="#759ca7" opacity="0.5"/>
<rect x="589.7" y="243.9" width="6" height="8" fill="#759ca7" opacity="0.5"/>
<rect x="603.7" y="243.9" width="6" height="8" fill="#759ca7" opacity="0.5"/>
<rect x="575.7" y="259.9" width="6" height="8" fill="#759ca7" opacity="0.5"/>
<rect x="603.7" y="259.9" width="6" height="8" fill="#759ca7" opacity="0.5"/>
<rect x="912.5" y="225.6" width="52.2" height="74.4" fill="#2b6777"/>
<rect x="928.6" y="237.6" width="6" height="8" fill="#759ca7" opacity="0.5"/>
<rect x="942.6" y="237.6" width="6" height="8" fill="#759ca7" opacity="0.5"/>
<rect x="942.6" y="253.6" width="6" height="8" fill="#759ca7" opacity="0.5"/>
<rect x="0" y="298" width="1200" height="2" fill="#275d6b" opacity="0.15"/>
</svg>