<svg xmlns="http://www.w3.org/2000/svg" viewBox="0 0 1200 400" width="1200" height="400">
<defs>
<linearGradient id="bg" x1="0" y1="0" x2="0" y2="1"><stop offset="0%" stop-color="#166534"/><stop offset="100%" stop-color="#3b82f6"/></linearGradient>
<linearGradient id="warm" x1="0" y1="0" x2="1" y2="1"><stop offset="0%" stop-color="#858d98" stop-opacity="0.18"/><stop offset="100%" stop-color="#858d98" stop-opacity="0.06"/></linearGradient>
</defs>
<rect width="1200" height="400" fill="url(#bg)"/>
<path d="M0 400 L0 228.9471681232646 C60.0 219.4, 90.0 250.9, 150.0 242.7 C210.0 241.7, 240.0 236.4, 300.0 243.2 C360.0 249.3, 390.0 246.8, 450.0 239.5 C510.0 238.9, 540.0 231.2, 600.0 237.4 C660.0 230.2, 690.0 220.8, 750.0 221.4 C810.0 216.8, 840.0 226.3, 900.0 223.0 C960.0 224.8, 990.0 216.0, 1050.0 225.1 C1110.0 217.8, 1140.0 225.8, 1200.0 228.0 L1200 400 Z" fill="#2e78b2" opacity="0.45"/>
<path d="M0 400 L0 263.7103613095269 C52.5 266.9, 97.5 262.7, 150.0 259.5 C202.5 259.8, 247.5 269.5, 300.0 271.9 C352.5 269.4, 397.5 279.2, 450.0 278.3 C502.5 271.7, 547.5 277.8, 600.0 277.4 C652.5 280.1, 697.5 269.0, 750.0 274.5 C802.5 281.8, 847.5 278.1, 900.0 275.5 C952.5 268.7, 997.5 272.2, 1050.0 270.2 C1102.5 264.0, 1147.5 263.2, 1200.0 270.1 L1200 400 Z" fill="#3b82f6" opacity="0.3"/>
<rect x="299.2" y="356.0" width="36.0" height="44.0" rx="4.0" fill="#c08914" opacity="0.81"/>
<rect x="151.7" y="315.6" width="42.6" height="84.4" rx="6.0" fill="#9e884f" opacity="0.70"/>
<rect x="780.4" y="308.0" width="31.4" height="92.0" rx="4.5" fill="#888673" opacity="0.59"/>
<rect x="911.3" y="337.0" width="21.1" height="63.0" rx="7.8" fill="#97875a" opacity="0.64"/>
<rect x="253.4" y="329.0" width="33.6" height="71.0" rx="5.1" fill="#bf8917" opacity="0.59"/>
<rect x="403.2" y="291.0" width="19.0" height="109.0" rx="3.7" fill="#808682" opacity="0.79"/>
<rect x="132.4" y="319.3" width="46.5" height="80.7" rx="3.6" fill="#ca8a04" opacity="0.62"/>
<rect x="832.7" y="320.9" width="40.0" height="79.1" rx="5.3" fill="#97875b" opacity="0.73"/>
<rect x="1018.3" y="343.0" width="14.4" height="57.0" rx="8.0" fill="#b98921" opacity="0.55"/>
<rect x="347.9" y="350.9" width="35.8" height="49.1" rx="7.9" fill="#c18914" opacity="0.53"/>
<rect x="775.9" y="324.5" width="15.2" height="75.5" rx="4.8" fill="#a48844" opacity="0.70"/>
<rect x="217.8" y="326.7" width="42.6" height="73.3" rx="7.0" fill="#97875b" opacity="0.84"/>
<rect x="291.0" y="324.2" width="48.4" height="75.8" rx="3.3" fill="#998757" opacity="0.73"/>
<line x1="1178.7" y1="108.7" x2="1207.4" y2="108.7" stroke="#166534" stroke-width="1.4" opacity="0.38"/>
<line x1="493.3" y1="67.7" x2="557.5" y2="67.7" stroke="#166534" stroke-width="2.2" opacity="0.18"/>
<line x1="536.3" y1="134.7" x2="570.5" y2="134.7" stroke="#166534" stroke-width="1.2" opacity="0.15"/>
<line x1="1154.4" y1="151.5" x2="1194.6" y2="151.5" stroke="#166534" stroke-width="2.8" opacity="0.23"/>
<line x1="100.0" y1="90.0" x2="120.6" y2="90.0" stroke="#ca8a04" stroke-width="3.0" opacity="0.22"/>
<line x1="875.6" y1="123.0" x2="899.6" y2="123.0" stroke="#ca8a04" stroke-width="1.4" opacity="0.28"/>
<line x1="135.6" y1="96.7" x2="185.8" y2="96.7" stroke="#166534" stroke-width="1.2" opacity="0.33"/>
<line x1="670.8" y1="206.3" x2="691.9" y2="206.3" stroke="#ca8a04" stroke-width="2.1" opacity="0.32"/>
<line x1="1007.3" y1="62.4" x2="1036.4" y2="62.4" stroke="#166534" stroke-width="1.6" opacity="0.17"/>
<rect width="1200" height="400" fill="url(#warm)"/>
<rect width="1200" height="400" fill="#166534" opacity="0.40"/>
</svg>