<svg xmlns="http://www.w3.org/2000/svg" viewBox="0 0 1200 300" width="1200" height="300">
<defs><linearGradient id="skyGrad" x1="0" y1="0" x2="0" y2="1"><stop offset="0%" stop-color="#e0eaf4"/><stop offset="100%" stop-color="#f0f2f5"/></linearGradient></defs><rect width="1200" height="300" fill="url(#skyGrad)"/>
<rect x="203.1" y="193.9" width="55.2" height="106.1" fill="#99b6c9"/>
<rect x="518.6" y="229.0" width="49.5" height="71.0" fill="#99b6c9"/>
<rect x="925.6" y="230.9" width="36.1" height="69.1" fill="#99b6c9"/>
<rect x="137.9" y="210.0" width="60.7" height="90.0" fill="#6a95b1"/>
<rect x="148.5" y="194.1" width="39.5" height="15.9" fill="#658ea8"/>
<rect x="165.3" y="206.1" width="6" height="8" fill="#9ebacc" opacity="0.5"/>
<rect x="151.3" y="222.1" width="6" height="8" fill="#9ebacc" opacity="0.5"/>
<rect x="165.3" y="222.1" width="6" height="8" fill="#9ebacc" opacity="0.5"/>
<rect x="151.3" y="238.1" width="6" height="8" fill="#9ebacc" opacity="0.5"/>
<rect x="165.3" y="238.1" width="6" height="8" fill="#9ebacc" opacity="0.5"/>
<rect x="151.3" y="254.1" width="6" height="8" fill="#9ebacc" opacity="0.5"/>
<rect x="151.3" y="270.1" width="6" height="8" fill="#9ebacc" opacity="0.5"/>
<rect x="460.2" y="162.8" width="56.9" height="137.2" fill="#6a95b1"/>
<polygon points="460.2,162.8 488.7,148.6 517.2,162.8" fill="#6289a3"/>
<rect x="492.7" y="174.8" width="6" height="8" fill="#9ebacc" opacity="0.5"/>
<rect x="478.7" y="190.8" width="6" height="8" fill="#9ebacc" opacity="0.5"/>
<rect x="492.7" y="190.8" width="6" height="8" fill="#9ebacc" opacity="0.5"/>
<rect x="492.7" y="206.8" width="6" height="8" fill="#9ebacc" opacity="0.5"/>
<rect x="478.7" y="222.8" width="6" height="8" fill="#9ebacc" opacity="0.5"/>
<rect x="492.7" y="222.8" width="6" height="8" fill="#9ebacc" opacity="0.5"/>
<rect x="478.7" y="238.8" width="6" height="8" fill="#9ebacc" opacity="0.5"/>
<rect x="492.7" y="238.8" width="6" height="8" fill="#9ebacc" opacity="0.5"/>
<rect x="478.7" y="254.8" width="6" height="8" fill="#9ebacc" opacity="0.5"/>
<rect x="492.7" y="254.8" width="6" height="8" fill="#9ebacc" opacity="0.5"/>
<rect x="694.1" y="183.3" width="34.8" height="116.7" fill="#6a95b1"/>
<rect x="700.2" y="162.7" width="22.6" height="20.6" fill="#658ea8"/>
<rect x="708.5" y="174.7" width="6" height="8" fill="#9ebacc" opacity="0.5"/>
<rect x="708.5" y="254.7" width="6" height="8" fill="#9ebacc" opacity="0.5"/>
<rect x="1022.7" y="150.8" width="37.7" height="149.2" fill="#6a95b1"/>
<rect x="1038.5" y="162.8" width="6" height="8" fill="#9ebacc" opacity="0.5"/>
<rect x="1038.5" y="178.8" width="6" height="8" fill="#9ebacc" opacity="0.5"/>
<rect x="1038.5" y="194.8" width="6" height="8" fill="#9ebacc" opacity="0.5"/>
<rect x="1038.5" y="210.8" width="6" height="8" fill="#9ebacc" opacity="0.5"/>
<rect x="1038.5" y="242.8" width="6" height="8" fill="#9ebacc" opacity="0.5"/>
<rect x="128.4" y="178.3" width="25.6" height="121.7" fill="#457b9d"/>
<polygon points="128.4,178.3 141.2,171.9 154.1,178.3" fill="#3f7190"/>
<rect x="138.2" y="222.3" width="6" height="8" fill="#86a9bf" opacity="0.5"/>
<rect x="138.2" y="270.3" width="6" height="8" fill="#86a9bf" opacity="0.5"/>
<rect x="407.1" y="145.3" width="31.2" height="154.7" fill="#457b9d"/>
<rect x="419.7" y="157.3" width="6" height="8" fill="#86a9bf" opacity="0.5"/>
<rect x="419.7" y="173.3" width="6" height="8" fill="#86a9bf" opacity="0.5"/>
<rect x="419.7" y="189.3" width="6" height="8" fill="#86a9bf" opacity="0.5"/>
<rect x="741.5" y="153.8" width="54.4" height="146.2" fill="#457b9d"/>
<rect x="751.0" y="128.0" width="35.3" height="25.8" fill="#427595"/>
<rect x="772.7" y="140.0" width="6" height="8" fill="#86a9bf" opacity="0.5"/>
<rect x="758.7" y="156.0" width="6" height="8" fill="#86a9bf" opacity="0.5"/>
<rect x="772.7" y="156.0" width="6" height="8" fill="#86a9bf" opacity="0.5"/>
<rect x="758.7" y="172.0" width="6" height="8" fill="#86a9bf" opacity="0.5"/>
<rect x="772.7" y="172.0" width="6" height="8" fill="#86a9bf" opacity="0.5"/>
<rect x="758.7" y="188.0" width="6" height="8" fill="#86a9bf" opacity="0.5"/>
<rect x="772.7" y="204.0" width="6" height="8" fill="#86a9bf" opacity="0.5"/>
<rect x="758.7" y="220.0" width="6" height="8" fill="#86a9bf" opacity="0.5"/>
<rect x="1004.0" y="157.1" width="50.3" height="142.9" fill="#457b9d"/>
<polygon points="1004.0,157.1 1029.1,144.5 1054.3,157.1" fill="#3f7190"/>
<rect x="1019.1" y="169.1" width="6" height="8" fill="#86a9bf" opacity="0.5"/>
<rect x="1033.1" y="185.1" width="6" height="8" fill="#86a9bf" opacity="0.5"/>
<rect x="1033.1" y="217.1" width="6" height="8" fill="#86a9bf" opacity="0.5"/>
<rect x="1019.1" y="233.1" width="6" height="8" fill="#86a9bf" opacity="0.5"/>
<rect x="1033.1" y="233.1" width="6" height="8" fill="#86a9bf" opacity="0.5"/>
<rect x="1019.1" y="249.1" width="6" height="8" fill="#86a9bf" opacity="0.5"/>
<rect x="1033.1" y="249.1" width="6" height="8" fill="#86a9bf" opacity="0.5"/>
<line x1="280.6" y1="285.0" x2="280.6" y2="275.2" stroke="#5c4a32" stroke-width="3"/>
<polygon points="272.6,275.2 280.6,230.8 288.5,275.2" fill="#2d5927"/>
<line x1="589.9" y1="285.0" x2="589.9" y2="274.4" stroke="#5c4a32" stroke-width="3"/>
<polygon points="579.9,274.4 589.9,235.8 599.8,274.4" fill="#2a5424"/>
<line x1="899.9" y1="285.0" x2="899.9" y2="273.9" stroke="#5c4a32" stroke-width="3"/>
<polygon points="890.6,273.9 899.9,232.4 909.3,273.9" fill="#2c5826"/>
<line x1="518.1" y1="285.0" x2="518.1" y2="275.4" stroke="#5c4a32" stroke-width="3"/>
<polygon points="509.8,275.4 518.1,242.5 526.3,275.4" fill="#295324"/>
<line x1="162.0" y1="285.0" x2="162.0" y2="273.4" stroke="#5c4a32" stroke-width="3"/>
<polygon points="152.7,273.4 162.0,242.0 171.4,273.4" fill="#295223"/>
<line x1="936.6" y1="285.0" x2="936.6" y2="274.8" stroke="#5c4a32" stroke-width="3"/>
<polygon points="928.0,274.8 936.6,238.1 945.2,274.8" fill="#2d5a27"/>
<line x1="707.7" y1="285.0" x2="707.7" y2="276.1" stroke="#5c4a32" stroke-width="3"/>
<polygon points="699.9,276.1 707.7,236.7 715.4,276.1" fill="#274d21"/>
<line x1="1107.5" y1="285.0" x2="1107.5" y2="273.1" stroke="#5c4a32" stroke-width="3"/>
<polygon points="1099.3,273.1 1107.5,233.6 1115.6,273.1" fill="#295224"/>
<rect x="0" y="285" width="1200" height="15" fill="#8a9a82" opacity="0.4"/>
<ellipse cx="880.9" cy="27.0" rx="90.0" ry="16.7" fill="#c8c8c8" opacity="0.15"/>
</svg>