<svg xmlns="http://www.w3.org/2000/svg" viewBox="0 0 1200 300" width="1200" height="300">
<rect width="1200" height="300" fill="#e6eef4"/>
<path d="M0 300 L0 210.0 C322.6 172.6, 898.6 191.2, 1200 210.0 L1200 300 Z" fill="#b5cad8" opacity="0.3"/>
<rect x="148.3" y="234.5" width="40.1" height="65.5" fill="#99b6c9"/>
<rect x="521.1" y="179.5" width="49.1" height="120.5" fill="#99b6c9"/>
<rect x="910.0" y="186.7" width="62.5" height="113.3" fill="#99b6c9"/>
<rect x="133.0" y="205.4" width="73.9" height="94.6" fill="#6a95b1"/>
<rect x="146.0" y="217.4" width="6" height="8" fill="#9ebacc" opacity="0.5"/>
<rect x="160.0" y="217.4" width="6" height="8" fill="#9ebacc" opacity="0.5"/>
<rect x="188.0" y="217.4" width="6" height="8" fill="#9ebacc" opacity="0.5"/>
<rect x="146.0" y="233.4" width="6" height="8" fill="#9ebacc" opacity="0.5"/>
<rect x="174.0" y="233.4" width="6" height="8" fill="#9ebacc" opacity="0.5"/>
<rect x="188.0" y="233.4" width="6" height="8" fill="#9ebacc" opacity="0.5"/>
<rect x="160.0" y="249.4" width="6" height="8" fill="#9ebacc" opacity="0.5"/>
<rect x="146.0" y="265.4" width="6" height="8" fill="#9ebacc" opacity="0.5"/>
<rect x="434.5" y="198.4" width="41.2" height="101.6" fill="#6a95b1"/>
<rect x="452.1" y="226.4" width="6" height="8" fill="#9ebacc" opacity="0.5"/>
<rect x="452.1" y="242.4" width="6" height="8" fill="#9ebacc" opacity="0.5"/>
<rect x="452.1" y="258.4" width="6" height="8" fill="#9ebacc" opacity="0.5"/>
<rect x="717.8" y="218.0" width="64.9" height="82.0" fill="#6a95b1"/>
<rect x="747.2" y="230.0" width="6" height="8" fill="#9ebacc" opacity="0.5"/>
<rect x="761.2" y="230.0" width="6" height="8" fill="#9ebacc" opacity="0.5"/>
<rect x="733.2" y="246.0" width="6" height="8" fill="#9ebacc" opacity="0.5"/>
<rect x="747.2" y="246.0" width="6" height="8" fill="#9ebacc" opacity="0.5"/>
<rect x="761.2" y="246.0" width="6" height="8" fill="#9ebacc" opacity="0.5"/>
<rect x="733.2" y="262.0" width="6" height="8" fill="#9ebacc" opacity="0.5"/>
<rect x="747.2" y="262.0" width="6" height="8" fill="#9ebacc" opacity="0.5"/>
<rect x="761.2" y="262.0" width="6" height="8" fill="#9ebacc" opacity="0.5"/>
<rect x="997.6" y="204.5" width="41.0" height="95.5" fill="#6a95b1"/>
<rect x="1015.1" y="216.5" width="6" height="8" fill="#9ebacc" opacity="0.5"/>
<rect x="1015.1" y="248.5" width="6" height="8" fill="#9ebacc" opacity="0.5"/>
<rect x="162.8" y="127.8" width="34.2" height="172.2" fill="#457b9d"/>
<rect x="176.9" y="139.8" width="6" height="8" fill="#86a9bf" opacity="0.5"/>
<rect x="176.9" y="155.8" width="6" height="8" fill="#86a9bf" opacity="0.5"/>
<rect x="176.9" y="171.8" width="6" height="8" fill="#86a9bf" opacity="0.5"/>
<rect x="176.9" y="187.8" width="6" height="8" fill="#86a9bf" opacity="0.5"/>
<rect x="176.9" y="203.8" width="6" height="8" fill="#86a9bf" opacity="0.5"/>
<rect x="176.9" y="219.8" width="6" height="8" fill="#86a9bf" opacity="0.5"/>
<rect x="176.9" y="235.8" width="6" height="8" fill="#86a9bf" opacity="0.5"/>
<rect x="176.9" y="267.8" width="6" height="8" fill="#86a9bf" opacity="0.5"/>
<rect x="440.5" y="144.4" width="66.3" height="155.6" fill="#457b9d"/>
<rect x="470.7" y="156.4" width="6" height="8" fill="#86a9bf" opacity="0.5"/>
<rect x="456.7" y="172.4" width="6" height="8" fill="#86a9bf" opacity="0.5"/>
<rect x="470.7" y="172.4" width="6" height="8" fill="#86a9bf" opacity="0.5"/>
<rect x="456.7" y="188.4" width="6" height="8" fill="#86a9bf" opacity="0.5"/>
<rect x="470.7" y="188.4" width="6" height="8" fill="#86a9bf" opacity="0.5"/>
<rect x="484.7" y="188.4" width="6" height="8" fill="#86a9bf" opacity="0.5"/>
<rect x="456.7" y="204.4" width="6" height="8" fill="#86a9bf" opacity="0.5"/>
<rect x="470.7" y="204.4" width="6" height="8" fill="#86a9bf" opacity="0.5"/>
<rect x="484.7" y="220.4" width="6" height="8" fill="#86a9bf" opacity="0.5"/>
<rect x="456.7" y="236.4" width="6" height="8" fill="#86a9bf" opacity="0.5"/>
<rect x="470.7" y="236.4" width="6" height="8" fill="#86a9bf" opacity="0.5"/>
<rect x="484.7" y="236.4" width="6" height="8" fill="#86a9bf" opacity="0.5"/>
<rect x="456.7" y="252.4" width="6" height="8" fill="#86a9bf" opacity="0.5"/>
<rect x="470.7" y="252.4" width="6" height="8" fill="#86a9bf" opacity="0.5"/>
<rect x="484.7" y="252.4" width="6" height="8" fill="#86a9bf" opacity="0.5"/>
<rect x="456.7" y="268.4" width="6" height="8" fill="#86a9bf" opacity="0.5"/>
<rect x="484.7" y="268.4" width="6" height="8" fill="#86a9bf" opacity="0.5"/>
<rect x="717.2" y="146.9" width="53.4" height="153.1" fill="#457b9d"/>
<rect x="733.9" y="158.9" width="6" height="8" fill="#86a9bf" opacity="0.5"/>
<rect x="747.9" y="158.9" width="6" height="8" fill="#86a9bf" opacity="0.5"/>
<rect x="733.9" y="190.9" width="6" height="8" fill="#86a9bf" opacity="0.5"/>
<rect x="747.9" y="206.9" width="6" height="8" fill="#86a9bf" opacity="0.5"/>
<rect x="747.9" y="238.9" width="6" height="8" fill="#86a9bf" opacity="0.5"/>
<rect x="733.9" y="254.9" width="6" height="8" fill="#86a9bf" opacity="0.5"/>
<rect x="747.9" y="254.9" width="6" height="8" fill="#86a9bf" opacity="0.5"/>
<rect x="733.9" y="270.9" width="6" height="8" fill="#86a9bf" opacity="0.5"/>
<rect x="747.9" y="270.9" width="6" height="8" fill="#86a9bf" opacity="0.5"/>
<rect x="998.2" y="201.7" width="62.1" height="98.3" fill="#457b9d"/>
<rect x="1012.2" y="213.7" width="6" height="8" fill="#86a9bf" opacity="0.5"/>
<rect x="1026.2" y="213.7" width="6" height="8" fill="#86a9bf" opacity="0.5"/>
<rect x="1012.2" y="229.7" width="6" height="8" fill="#86a9bf" opacity="0.5"/>
<rect x="1026.2" y="229.7" width="6" height="8" fill="#86a9bf" opacity="0.5"/>
<rect x="1040.2" y="229.7" width="6" height="8" fill="#86a9bf" opacity="0.5"/>
<rect x="1012.2" y="245.7" width="6" height="8" fill="#86a9bf" opacity="0.5"/>
<rect x="1026.2" y="245.7" width="6" height="8" fill="#86a9bf" opacity="0.5"/>
<rect x="1026.2" y="261.7" width="6" height="8" fill="#86a9bf" opacity="0.5"/>
<rect x="1040.2" y="261.7" width="6" height="8" fill="#86a9bf" opacity="0.5"/>
<rect x="0" y="298" width="1200" height="2" fill="#3e6f8d" opacity="0.15"/>
</svg>