<svg xmlns="http://www.w3.org/2000/svg" viewBox="0 0 1200 300" width="1200" height="300">
<defs>
<linearGradient id="skyGrad" x1="0" y1="0" x2="0" y2="1">
<stop offset="0%" stop-color="#818cf8"/>
<stop offset="20%" stop-color="#c4b5fd"/>
<stop offset="38%" stop-color="#fda4af"/>
<stop offset="55%" stop-color="#fdba74"/>
<stop offset="75%" stop-color="#fef08a"/>
<stop offset="100%" stop-color="#fef9c3"/>
</linearGradient>
<linearGradient id="bldg_coral" x1="0" y1="0" x2="0" y2="1"><stop offset="0%" stop-color="#fecaca"/><stop offset="100%" stop-color="#fca5a5"/></linearGradient>
<linearGradient id="bldg_teal" x1="0" y1="0" x2="0" y2="1"><stop offset="0%" stop-color="#99f6e4"/><stop offset="100%" stop-color="#5eead4"/></linearGradient>
<linearGradient id="bldg_amber" x1="0" y1="0" x2="0" y2="1"><stop offset="0%" stop-color="#fde68a"/><stop offset="100%" stop-color="#fcd34d"/></linearGradient>
<linearGradient id="bldg_lavender" x1="0" y1="0" x2="0" y2="1"><stop offset="0%" stop-color="#ddd6fe"/><stop offset="100%" stop-color="#c4b5fd"/></linearGradient>
<linearGradient id="bldg_blue" x1="0" y1="0" x2="0" y2="1"><stop offset="0%" stop-color="#bfdbfe"/><stop offset="100%" stop-color="#93c5fd"/></linearGradient>
<linearGradient id="bldg_mint" x1="0" y1="0" x2="0" y2="1"><stop offset="0%" stop-color="#a7f3d0"/><stop offset="100%" stop-color="#6ee7b7"/></linearGradient>
<linearGradient id="bldg_rose" x1="0" y1="0" x2="0" y2="1"><stop offset="0%" stop-color="#fecdd3"/><stop offset="100%" stop-color="#fda4af"/></linearGradient>
<linearGradient id="bldg_sky" x1="0" y1="0" x2="0" y2="1"><stop offset="0%" stop-color="#bae6fd"/><stop offset="100%" stop-color="#7dd3fc"/></linearGradient>
<linearGradient id="roof_navyRoof" x1="0" y1="0" x2="0" y2="1"><stop offset="0%" stop-color="#4338ca"/><stop offset="100%" stop-color="#3730a3"/></linearGradient>
<linearGradient id="roof_coralRoof" x1="0" y1="0" x2="0" y2="1"><stop offset="0%" stop-color="#f87171"/><stop offset="100%" stop-color="#ef4444"/></linearGradient>
<linearGradient id="roof_tealRoof" x1="0" y1="0" x2="0" y2="1"><stop offset="0%" stop-color="#2dd4bf"/><stop offset="100%" stop-color="#14b8a6"/></linearGradient>
<radialGradient id="windowGlow" cx="50%" cy="50%" r="50%"><stop offset="0%" stop-color="#fef08a"/><stop offset="60%" stop-color="#fbbf24"/><stop offset="100%" stop-color="#f59e0b"/></radialGradient>
<linearGradient id="hillFar" x1="0" y1="0" x2="0" y2="1"><stop offset="0%" stop-color="#c4b5fd"/><stop offset="100%" stop-color="#a5b4fc"/></linearGradient>
<linearGradient id="hillMid" x1="0" y1="0" x2="0" y2="1"><stop offset="0%" stop-color="#86efac"/><stop offset="100%" stop-color="#4ade80"/></linearGradient>
<linearGradient id="hillNear" x1="0" y1="0" x2="0" y2="1"><stop offset="0%" stop-color="#34d399"/><stop offset="100%" stop-color="#10b981"/></linearGradient>
<linearGradient id="hillDesertFar" x1="0" y1="0" x2="0" y2="1"><stop offset="0%" stop-color="#fde68a"/><stop offset="100%" stop-color="#fcd34d"/></linearGradient>
<linearGradient id="hillDesertMid" x1="0" y1="0" x2="0" y2="1"><stop offset="0%" stop-color="#fcd34d"/><stop offset="100%" stop-color="#fbbf24"/></linearGradient>
<linearGradient id="hillDesertNear" x1="0" y1="0" x2="0" y2="1"><stop offset="0%" stop-color="#fbbf24"/><stop offset="100%" stop-color="#f59e0b"/></linearGradient>
<linearGradient id="groundGrad" x1="0" y1="0" x2="0" y2="1"><stop offset="0%" stop-color="#fef3c7"/><stop offset="100%" stop-color="#fde68a"/></linearGradient>
<linearGradient id="waterGrad" x1="0" y1="0" x2="0" y2="1"><stop offset="0%" stop-color="#bfdbfe"/><stop offset="100%" stop-color="#93c5fd"/></linearGradient>
<filter id="softGlow" x="-50%" y="-50%" width="200%" height="200%"><feGaussianBlur in="SourceGraphic" stdDeviation="12"/></filter>
</defs>
<rect width="1200" height="300" fill="url(#skyGrad)"/>
<circle cx="928.5" cy="47.4" r="45" fill="#fef08a" opacity="0.12" filter="url(#softGlow)"/>
<circle cx="928.5" cy="47.4" r="30" fill="#fde68a" opacity="0.18" filter="url(#softGlow)"/>
<circle cx="928.5" cy="47.4" r="16" fill="#fef9c3" opacity="0.25" filter="url(#softGlow)"/>
<ellipse cx="427.5" cy="27.8" rx="33.1" ry="11.6" fill="white" opacity="0.6"/>
<ellipse cx="406.9" cy="31.1" rx="23.2" ry="9.1" fill="white" opacity="0.5"/>
<ellipse cx="445.7" cy="30.3" rx="26.5" ry="9.9" fill="white" opacity="0.5"/>
<ellipse cx="1041.7" cy="36.5" rx="46.9" ry="16.4" fill="white" opacity="0.7"/>
<ellipse cx="1012.5" cy="41.2" rx="32.8" ry="12.9" fill="white" opacity="0.6"/>
<ellipse cx="1067.5" cy="40.0" rx="37.5" ry="14.1" fill="white" opacity="0.6"/>
<path d="M0 300 L0.0 192.2 C194.1 192.2, 194.1 191.7, 388.2 191.7 C566.2 191.7, 566.2 189.0, 744.3 189.0 C972.2 189.0, 972.2 201.9, 1200.0 201.9 L1200 300 Z" fill="url(#hillFar)" opacity="0.5"/>
<path d="M0 300 L0.0 202.0 C232.3 202.0, 232.3 210.3, 464.7 210.3 C673.5 210.3, 673.5 203.1, 882.4 203.1 C1041.2 203.1, 1041.2 213.2, 1200.0 213.2 L1200 300 Z" fill="url(#hillMid)" opacity="0.7"/>
<path d="M0 300 L0.0 234.1 C174.9 234.1, 174.9 229.8, 349.8 229.8 C572.6 229.8, 572.6 228.3, 795.3 228.3 C997.7 228.3, 997.7 232.1, 1200.0 232.1 L1200 300 Z" fill="url(#hillNear)" opacity="1"/>
<rect x="182.5" y="219.2" width="50.8" height="80.8" rx="3" fill="url(#bldg_coral)" opacity="0.7"/>
<rect x="182.5" y="216.2" width="50.8" height="3" rx="1" fill="url(#roof_navyRoof)" opacity="0.7"/>
<rect x="197.9" y="229.2" width="6" height="8" rx="1" fill="url(#windowGlow)" opacity="0.7113204657152855"/>
<rect x="197.9" y="244.2" width="6" height="8" rx="1" fill="url(#windowGlow)" opacity="0.9424006828770044"/>
<rect x="211.9" y="244.2" width="6" height="8" rx="1" fill="url(#windowGlow)" opacity="0.9433600165617466"/>
<rect x="197.9" y="259.2" width="6" height="8" rx="1" fill="url(#windowGlow)" opacity="0.8837475448305474"/>
<rect x="211.9" y="259.2" width="6" height="8" rx="1" fill="url(#windowGlow)" opacity="0.8679175956490996"/>
<rect x="561.4" y="219.0" width="73.9" height="81.0" rx="3" fill="url(#bldg_teal)" opacity="0.7"/>
<polygon points="561.4,219.0 598.4,195.4 635.3,219.0" fill="url(#roof_coralRoof)" opacity="0.7"/>
<rect x="574.4" y="229.0" width="6" height="8" rx="1" fill="url(#windowGlow)" opacity="0.9162904579733919"/>
<rect x="602.4" y="229.0" width="6" height="8" rx="1" fill="url(#windowGlow)" opacity="0.8902433626308307"/>
<rect x="616.4" y="229.0" width="6" height="8" rx="1" fill="url(#windowGlow)" opacity="0.8909293378661057"/>
<rect x="574.4" y="244.0" width="6" height="8" rx="1" fill="url(#windowGlow)" opacity="0.8608482768576816"/>
<rect x="588.4" y="244.0" width="6" height="8" rx="1" fill="url(#windowGlow)" opacity="0.7031664438560449"/>
<rect x="602.4" y="244.0" width="6" height="8" rx="1" fill="url(#windowGlow)" opacity="0.9654641945219897"/>
<rect x="616.4" y="244.0" width="6" height="8" rx="1" fill="url(#windowGlow)" opacity="0.8669771096515362"/>
<rect x="588.4" y="259.0" width="6" height="8" rx="1" fill="url(#windowGlow)" opacity="0.9136060875438181"/>
<rect x="616.4" y="259.0" width="6" height="8" rx="1" fill="url(#windowGlow)" opacity="0.8090553566389974"/>
<rect x="899.1" y="220.3" width="75.6" height="79.7" rx="3" fill="url(#bldg_amber)" opacity="0.7"/>
<polygon points="899.1,220.3 936.9,202.9 974.7,220.3" fill="url(#roof_tealRoof)" opacity="0.7"/>
<rect x="912.9" y="230.3" width="6" height="8" rx="1" fill="url(#windowGlow)" opacity="0.8460247380407642"/>
<rect x="926.9" y="230.3" width="6" height="8" rx="1" fill="url(#windowGlow)" opacity="0.7618929565241062"/>
<rect x="940.9" y="230.3" width="6" height="8" rx="1" fill="url(#windowGlow)" opacity="0.970586169916478"/>
<rect x="954.9" y="230.3" width="6" height="8" rx="1" fill="url(#windowGlow)" opacity="0.7094960106580965"/>
<rect x="912.9" y="245.3" width="6" height="8" rx="1" fill="url(#windowGlow)" opacity="0.7361690172162694"/>
<rect x="926.9" y="245.3" width="6" height="8" rx="1" fill="url(#windowGlow)" opacity="0.7276608046273052"/>
<rect x="954.9" y="245.3" width="6" height="8" rx="1" fill="url(#windowGlow)" opacity="0.8609483549655175"/>
<rect x="940.9" y="260.3" width="6" height="8" rx="1" fill="url(#windowGlow)" opacity="0.9914592728910312"/>
<rect x="954.9" y="260.3" width="6" height="8" rx="1" fill="url(#windowGlow)" opacity="0.7739407754381842"/>
<rect x="235.0" y="236.5" width="74.3" height="63.5" rx="3" fill="url(#bldg_lavender)" opacity="0.85"/>
<rect x="235.0" y="233.5" width="74.3" height="3" rx="1" fill="url(#roof_navyRoof)" opacity="0.85"/>
<rect x="262.1" y="246.5" width="6" height="8" rx="1" fill="url(#windowGlow)" opacity="0.9267132011832264"/>
<rect x="276.1" y="246.5" width="6" height="8" rx="1" fill="url(#windowGlow)" opacity="0.8305678691857344"/>
<rect x="290.1" y="246.5" width="6" height="8" rx="1" fill="url(#windowGlow)" opacity="0.924619321862524"/>
<rect x="611.1" y="218.4" width="50.1" height="81.6" rx="3" fill="url(#bldg_blue)" opacity="0.85"/>
<rect x="621.2" y="208.6" width="30.1" height="9.8" rx="2" fill="url(#roof_coralRoof)" opacity="0.85"/>
<rect x="626.2" y="228.4" width="6" height="8" rx="1" fill="url(#windowGlow)" opacity="0.9452475527046469"/>
<rect x="626.2" y="243.4" width="6" height="8" rx="1" fill="url(#windowGlow)" opacity="0.9248383925412029"/>
<rect x="640.2" y="243.4" width="6" height="8" rx="1" fill="url(#windowGlow)" opacity="0.7813033814920594"/>
<rect x="626.2" y="258.4" width="6" height="8" rx="1" fill="url(#windowGlow)" opacity="0.895755135917922"/>
<rect x="640.2" y="258.4" width="6" height="8" rx="1" fill="url(#windowGlow)" opacity="0.7834084981509524"/>
<rect x="945.4" y="219.8" width="76.2" height="80.2" rx="3" fill="url(#bldg_mint)" opacity="0.85"/>
<rect x="945.4" y="216.8" width="76.2" height="3" rx="1" fill="url(#roof_tealRoof)" opacity="0.85"/>
<rect x="959.4" y="229.8" width="6" height="8" rx="1" fill="url(#windowGlow)" opacity="0.8206645451116675"/>
<rect x="973.4" y="229.8" width="6" height="8" rx="1" fill="url(#windowGlow)" opacity="0.9883622344063419"/>
<rect x="987.4" y="229.8" width="6" height="8" rx="1" fill="url(#windowGlow)" opacity="0.8056485315345453"/>
<rect x="1001.4" y="229.8" width="6" height="8" rx="1" fill="url(#windowGlow)" opacity="0.7115707434767721"/>
<rect x="959.4" y="244.8" width="6" height="8" rx="1" fill="url(#windowGlow)" opacity="0.9879179049692666"/>
<rect x="973.4" y="244.8" width="6" height="8" rx="1" fill="url(#windowGlow)" opacity="0.8180048814592905"/>
<rect x="987.4" y="244.8" width="6" height="8" rx="1" fill="url(#windowGlow)" opacity="0.7043889687417023"/>
<rect x="1001.4" y="244.8" width="6" height="8" rx="1" fill="url(#windowGlow)" opacity="0.9243031655551415"/>
<rect x="959.4" y="259.8" width="6" height="8" rx="1" fill="url(#windowGlow)" opacity="0.9623324886254652"/>
<rect x="973.4" y="259.8" width="6" height="8" rx="1" fill="url(#windowGlow)" opacity="0.9252893853119059"/>
<rect x="987.4" y="259.8" width="6" height="8" rx="1" fill="url(#windowGlow)" opacity="0.701861484070244"/>
<rect x="1001.4" y="259.8" width="6" height="8" rx="1" fill="url(#windowGlow)" opacity="0.9669096143296498"/>
<rect x="170.3" y="164.4" width="38.4" height="135.6" rx="3" fill="url(#bldg_rose)" opacity="1"/>
<polygon points="170.3,164.4 189.5,151.7 208.8,164.4" fill="url(#roof_navyRoof)" opacity="1"/>
<rect x="186.5" y="174.4" width="6" height="8" rx="1" fill="url(#windowGlow)" opacity="0.8689890300244972"/>
<rect x="186.5" y="204.4" width="6" height="8" rx="1" fill="url(#windowGlow)" opacity="0.7133276965531183"/>
<rect x="186.5" y="234.4" width="6" height="8" rx="1" fill="url(#windowGlow)" opacity="0.7589257875266139"/>
<rect x="186.5" y="249.4" width="6" height="8" rx="1" fill="url(#windowGlow)" opacity="0.7200862333737715"/>
<rect x="184.5" y="284.0" width="10" height="16" rx="2" fill="url(#roof_navyRoof)" opacity="0.8"/>
<rect x="186.5" y="287.0" width="6" height="10" rx="1" fill="url(#windowGlow)" opacity="0.45"/>
<rect x="182.8" y="205.4" width="13.4" height="5" rx="1" fill="#15803d" opacity="0.7"/>
<circle cx="185.8" cy="204.4" r="2.5" fill="#f87171" opacity="0.85"/>
<circle cx="190.3" cy="204.4" r="2.5" fill="#a78bfa" opacity="0.85"/>
<circle cx="194.8" cy="204.4" r="2.5" fill="#a78bfa" opacity="0.85"/>
<rect x="607.5" y="200.3" width="55.2" height="99.7" rx="3" fill="url(#bldg_sky)" opacity="1"/>
<polygon points="607.5,200.3 635.1,184.9 662.7,200.3" fill="url(#roof_coralRoof)" opacity="1"/>
<rect x="625.1" y="210.3" width="6" height="8" rx="1" fill="url(#windowGlow)" opacity="0.8377612766054278"/>
<rect x="639.1" y="210.3" width="6" height="8" rx="1" fill="url(#windowGlow)" opacity="0.9297491449535586"/>
<rect x="625.1" y="225.3" width="6" height="8" rx="1" fill="url(#windowGlow)" opacity="0.9490220430069705"/>
<rect x="639.1" y="225.3" width="6" height="8" rx="1" fill="url(#windowGlow)" opacity="0.9546885082287194"/>
<rect x="625.1" y="240.3" width="6" height="8" rx="1" fill="url(#windowGlow)" opacity="0.7384900487672956"/>
<rect x="639.1" y="240.3" width="6" height="8" rx="1" fill="url(#windowGlow)" opacity="0.7038687555603071"/>
<rect x="625.1" y="255.3" width="6" height="8" rx="1" fill="url(#windowGlow)" opacity="0.9287843032408432"/>
<rect x="630.1" y="284.0" width="10" height="16" rx="2" fill="url(#roof_navyRoof)" opacity="0.8"/>
<rect x="632.1" y="287.0" width="6" height="10" rx="1" fill="url(#windowGlow)" opacity="0.45"/>
<rect x="944.0" y="239.2" width="44.7" height="60.8" rx="3" fill="url(#bldg_coral)" opacity="1"/>
<rect x="944.0" y="236.2" width="44.7" height="3" rx="1" fill="url(#roof_tealRoof)" opacity="1"/>
<rect x="956.4" y="249.2" width="6" height="8" rx="1" fill="url(#windowGlow)" opacity="0.8219594637965595"/>
<rect x="970.4" y="249.2" width="6" height="8" rx="1" fill="url(#windowGlow)" opacity="0.9781996334801426"/>
<rect x="961.4" y="284.0" width="10" height="16" rx="2" fill="url(#roof_navyRoof)" opacity="0.8"/>
<rect x="963.4" y="287.0" width="6" height="10" rx="1" fill="url(#windowGlow)" opacity="0.45"/>
<path d="M948.5 260.5 L966.4 260.5 L963.4 266.5 L951.5 266.5 Z" fill="url(#roof_coralRoof)" opacity="0.8"/>
<rect x="405.1" y="264.2" width="6" height="20.8" rx="2" fill="#15803d"/>
<circle cx="408.1" cy="250.6" r="17.6" fill="#22c55e" opacity="0.9"/>
<circle cx="401.1" cy="253.6" r="13.2" fill="#16a34a" opacity="0.8"/>
<circle cx="414.7" cy="254.6" r="12.3" fill="#15803d" opacity="0.7"/>
<rect x="800.4" y="264.4" width="6" height="20.6" rx="2" fill="#15803d"/>
<circle cx="803.4" cy="253.6" r="14.8" fill="#22c55e" opacity="0.9"/>
<circle cx="794.5" cy="256.6" r="11.1" fill="#16a34a" opacity="0.8"/>
<circle cx="809.2" cy="257.6" r="10.4" fill="#15803d" opacity="0.7"/>
<rect x="128.5" y="268.7" width="6" height="16.3" rx="2" fill="#15803d"/>
<circle cx="131.5" cy="254.9" r="17.7" fill="#22c55e" opacity="0.9"/>
<circle cx="123.2" cy="257.9" r="13.3" fill="#16a34a" opacity="0.8"/>
<circle cx="137.4" cy="258.9" r="12.4" fill="#15803d" opacity="0.7"/>
<rect x="1015.7" y="268.5" width="6" height="16.5" rx="2" fill="#15803d"/>
<circle cx="1018.7" cy="258.8" r="13.8" fill="#22c55e" opacity="0.9"/>
<circle cx="1011.4" cy="261.8" r="10.3" fill="#16a34a" opacity="0.8"/>
<circle cx="1025.7" cy="262.8" r="9.6" fill="#15803d" opacity="0.7"/>
<rect x="1042.3" y="266.3" width="6" height="18.7" rx="2" fill="#15803d"/>
<circle cx="1045.3" cy="256.0" r="14.3" fill="#22c55e" opacity="0.9"/>
<circle cx="1036.7" cy="259.0" r="10.8" fill="#16a34a" opacity="0.8"/>
<circle cx="1052.7" cy="260.0" r="10.0" fill="#15803d" opacity="0.7"/>
<rect x="330.1" y="269.0" width="6" height="16.0" rx="2" fill="#15803d"/>
<circle cx="333.1" cy="258.5" r="14.5" fill="#22c55e" opacity="0.9"/>
<circle cx="326.0" cy="261.5" r="10.9" fill="#16a34a" opacity="0.8"/>
<circle cx="338.3" cy="262.5" r="10.2" fill="#15803d" opacity="0.7"/>
<rect x="922.3" y="263.1" width="6" height="21.9" rx="2" fill="#15803d"/>
<circle cx="925.3" cy="249.2" r="17.8" fill="#22c55e" opacity="0.9"/>
<circle cx="918.5" cy="252.2" r="13.4" fill="#16a34a" opacity="0.8"/>
<circle cx="932.7" cy="253.2" r="12.5" fill="#15803d" opacity="0.7"/>
<rect x="0" y="282" width="1200" height="18" fill="url(#groundGrad)"/>
<line x1="493.2" y1="282.0" x2="493.2" y2="251.2" stroke="#92400e" stroke-width="2"/>
<circle cx="493.2" cy="251.2" r="4" fill="#fef08a" opacity="0.6"/>
<circle cx="493.2" cy="251.2" r="8" fill="#fef08a" opacity="0.15" filter="url(#softGlow)"/>
<line x1="296.4" y1="282.0" x2="296.4" y2="249.9" stroke="#92400e" stroke-width="2"/>
<circle cx="296.4" cy="249.9" r="4" fill="#fef08a" opacity="0.6"/>
<circle cx="296.4" cy="249.9" r="8" fill="#fef08a" opacity="0.15" filter="url(#softGlow)"/>
<ellipse cx="816.4" cy="282.0" rx="6.1" ry="4.2" fill="#22c55e" opacity="0.6"/>
<ellipse cx="961.9" cy="282.0" rx="4.2" ry="2.9" fill="#22c55e" opacity="0.6"/>
<ellipse cx="826.6" cy="282.0" rx="4.7" ry="3.3" fill="#22c55e" opacity="0.6"/>
</svg>