<svg xmlns="http://www.w3.org/2000/svg" viewBox="0 0 1200 400" width="1200" height="400">
<defs>
<linearGradient id="bg" x1="0" y1="0" x2="0" y2="1"><stop offset="0%" stop-color="#f5f0e8"/><stop offset="100%" stop-color="#475569"/></linearGradient>
<linearGradient id="warm" x1="0" y1="0" x2="1" y2="1"><stop offset="0%" stop-color="#c69746" stop-opacity="0.18"/><stop offset="100%" stop-color="#c69746" stop-opacity="0.06"/></linearGradient>
</defs>
<rect width="1200" height="400" fill="url(#bg)"/>
<path d="M0 400 L0 228.02274508085637 C60.0 235.5, 90.0 243.0, 150.0 237.3 C210.0 235.2, 240.0 219.5, 300.0 222.4 C360.0 221.3, 390.0 224.0, 450.0 231.5 C510.0 225.9, 540.0 224.7, 600.0 229.7 C660.0 222.7, 690.0 249.9, 750.0 240.4 C810.0 246.8, 840.0 225.6, 900.0 227.4 C960.0 235.6, 990.0 263.6, 1050.0 255.7 C1110.0 256.8, 1140.0 233.6, 1200.0 238.8 L1200 400 Z" fill="#848b95" opacity="0.45"/>
<path d="M0 400 L0 263.2628235097283 C52.5 265.4, 97.5 275.6, 150.0 275.9 C202.5 275.9, 247.5 270.4, 300.0 267.7 C352.5 261.8, 397.5 279.6, 450.0 280.0 C502.5 285.4, 547.5 279.6, 600.0 272.2 C652.5 264.8, 697.5 258.2, 750.0 261.9 C802.5 267.7, 847.5 255.0, 900.0 259.0 C952.5 265.1, 997.5 264.9, 1050.0 263.3 C1102.5 258.9, 1147.5 262.0, 1200.0 268.2 L1200 400 Z" fill="#475569" opacity="0.3"/>
<rect x="605.1" y="300.8" width="15.9" height="99.2" rx="7.4" fill="#883b25" opacity="0.58"/>
<rect x="366.3" y="370.5" width="14.1" height="29.5" rx="7.6" fill="#774237" opacity="0.51"/>
<rect x="895.7" y="279.2" width="17.0" height="120.8" rx="5.3" fill="#72443c" opacity="0.59"/>
<rect x="900.7" y="289.2" width="4" height="5" rx="0.5" fill="#f5f0e8" opacity="0.6"/>
<rect x="900.7" y="311.2" width="4" height="5" rx="0.5" fill="#f5f0e8" opacity="0.6"/>
<rect x="900.7" y="355.2" width="4" height="5" rx="0.5" fill="#f5f0e8" opacity="0.6"/>
<rect x="171.3" y="292.9" width="23.7" height="107.1" rx="6.9" fill="#7a4133" opacity="0.82"/>
<rect x="176.3" y="302.9" width="4" height="5" rx="0.5" fill="#f5f0e8" opacity="0.6"/>
<rect x="176.3" y="324.9" width="4" height="5" rx="0.5" fill="#f5f0e8" opacity="0.6"/>
<rect x="176.3" y="346.9" width="4" height="5" rx="0.5" fill="#f5f0e8" opacity="0.6"/>
<rect x="535.4" y="275.1" width="20.4" height="124.9" rx="5.8" fill="#983515" opacity="0.83"/>
<rect x="540.4" y="307.1" width="4" height="5" rx="0.5" fill="#f5f0e8" opacity="0.6"/>
<rect x="587.3" y="313.5" width="19.8" height="86.5" rx="5.8" fill="#90381d" opacity="0.63"/>
<rect x="208.5" y="344.0" width="16.6" height="56.0" rx="3.7" fill="#90381d" opacity="0.69"/>
<rect x="534.9" y="370.3" width="12.3" height="29.7" rx="7.9" fill="#6a4744" opacity="0.59"/>
<rect x="627.4" y="360.7" width="38.7" height="39.3" rx="6.8" fill="#73433a" opacity="0.65"/>
<rect x="178.2" y="289.9" width="27.7" height="110.1" rx="6.0" fill="#6b4743" opacity="0.79"/>
<rect x="653.8" y="289.8" width="22.4" height="110.2" rx="4.4" fill="#813e2d" opacity="0.73"/>
<rect x="987.7" y="308.9" width="22.6" height="91.1" rx="7.4" fill="#863c27" opacity="0.73"/>
<rect x="992.7" y="362.9" width="4" height="5" rx="0.5" fill="#f5f0e8" opacity="0.6"/>
<rect x="1041.3" y="286.7" width="13.5" height="113.3" rx="7.9" fill="#863c27" opacity="0.75"/>
<circle cx="359.3" cy="179.4" r="11.0" fill="#9a3412" opacity="0.41"/>
<circle cx="901.2" cy="204.4" r="3.1" fill="#f5f0e8" opacity="0.38"/>
<circle cx="268.9" cy="27.8" r="10.8" fill="#f5f0e8" opacity="0.38"/>
<circle cx="26.8" cy="169.1" r="3.4" fill="#f5f0e8" opacity="0.18"/>
<circle cx="235.7" cy="70.5" r="3.6" fill="#f5f0e8" opacity="0.23"/>
<circle cx="714.0" cy="42.3" r="9.4" fill="#9a3412" opacity="0.33"/>
<circle cx="640.3" cy="147.3" r="7.1" fill="#f5f0e8" opacity="0.28"/>
<circle cx="547.9" cy="199.2" r="7.7" fill="#9a3412" opacity="0.40"/>
<circle cx="154.0" cy="72.0" r="3.1" fill="#f5f0e8" opacity="0.43"/>
<rect width="1200" height="400" fill="url(#warm)"/>
<rect width="1200" height="400" fill="#f5f0e8" opacity="0.45"/>
</svg>