<svg xmlns="http://www.w3.org/2000/svg" viewBox="0 0 1200 300" width="1200" height="300">
<defs>
<linearGradient id="skyGrad" x1="0" y1="0" x2="0" y2="1">
<stop offset="0%" stop-color="#a78bfa"/>
<stop offset="18%" stop-color="#ddb4f0"/>
<stop offset="35%" stop-color="#fda4af"/>
<stop offset="52%" stop-color="#fdba74"/>
<stop offset="72%" stop-color="#fef08a"/>
<stop offset="100%" stop-color="#fef9c3"/>
</linearGradient>
<linearGradient id="bldg_coral" x1="0" y1="0" x2="0" y2="1"><stop offset="0%" stop-color="#fecaca"/><stop offset="100%" stop-color="#fca5a5"/></linearGradient>
<linearGradient id="bldg_teal" x1="0" y1="0" x2="0" y2="1"><stop offset="0%" stop-color="#99f6e4"/><stop offset="100%" stop-color="#5eead4"/></linearGradient>
<linearGradient id="bldg_amber" x1="0" y1="0" x2="0" y2="1"><stop offset="0%" stop-color="#fde68a"/><stop offset="100%" stop-color="#fcd34d"/></linearGradient>
<linearGradient id="bldg_lavender" x1="0" y1="0" x2="0" y2="1"><stop offset="0%" stop-color="#ddd6fe"/><stop offset="100%" stop-color="#c4b5fd"/></linearGradient>
<linearGradient id="bldg_blue" x1="0" y1="0" x2="0" y2="1"><stop offset="0%" stop-color="#bfdbfe"/><stop offset="100%" stop-color="#93c5fd"/></linearGradient>
<linearGradient id="bldg_mint" x1="0" y1="0" x2="0" y2="1"><stop offset="0%" stop-color="#a7f3d0"/><stop offset="100%" stop-color="#6ee7b7"/></linearGradient>
<linearGradient id="bldg_rose" x1="0" y1="0" x2="0" y2="1"><stop offset="0%" stop-color="#fecdd3"/><stop offset="100%" stop-color="#fda4af"/></linearGradient>
<linearGradient id="bldg_sky" x1="0" y1="0" x2="0" y2="1"><stop offset="0%" stop-color="#bae6fd"/><stop offset="100%" stop-color="#7dd3fc"/></linearGradient>
<linearGradient id="roof_navyRoof" x1="0" y1="0" x2="0" y2="1"><stop offset="0%" stop-color="#4338ca"/><stop offset="100%" stop-color="#3730a3"/></linearGradient>
<linearGradient id="roof_coralRoof" x1="0" y1="0" x2="0" y2="1"><stop offset="0%" stop-color="#f87171"/><stop offset="100%" stop-color="#ef4444"/></linearGradient>
<linearGradient id="roof_tealRoof" x1="0" y1="0" x2="0" y2="1"><stop offset="0%" stop-color="#2dd4bf"/><stop offset="100%" stop-color="#14b8a6"/></linearGradient>
<radialGradient id="windowGlow" cx="50%" cy="50%" r="50%"><stop offset="0%" stop-color="#fef08a"/><stop offset="60%" stop-color="#fbbf24"/><stop offset="100%" stop-color="#f59e0b"/></radialGradient>
<linearGradient id="hillFar" x1="0" y1="0" x2="0" y2="1"><stop offset="0%" stop-color="#c4b5fd"/><stop offset="100%" stop-color="#a5b4fc"/></linearGradient>
<linearGradient id="hillMid" x1="0" y1="0" x2="0" y2="1"><stop offset="0%" stop-color="#86efac"/><stop offset="100%" stop-color="#4ade80"/></linearGradient>
<linearGradient id="hillNear" x1="0" y1="0" x2="0" y2="1"><stop offset="0%" stop-color="#34d399"/><stop offset="100%" stop-color="#10b981"/></linearGradient>
<linearGradient id="hillDesertFar" x1="0" y1="0" x2="0" y2="1"><stop offset="0%" stop-color="#fde68a"/><stop offset="100%" stop-color="#fcd34d"/></linearGradient>
<linearGradient id="hillDesertMid" x1="0" y1="0" x2="0" y2="1"><stop offset="0%" stop-color="#fcd34d"/><stop offset="100%" stop-color="#fbbf24"/></linearGradient>
<linearGradient id="hillDesertNear" x1="0" y1="0" x2="0" y2="1"><stop offset="0%" stop-color="#fbbf24"/><stop offset="100%" stop-color="#f59e0b"/></linearGradient>
<linearGradient id="groundGrad" x1="0" y1="0" x2="0" y2="1"><stop offset="0%" stop-color="#fef3c7"/><stop offset="100%" stop-color="#fde68a"/></linearGradient>
<linearGradient id="waterGrad" x1="0" y1="0" x2="0" y2="1"><stop offset="0%" stop-color="#bfdbfe"/><stop offset="100%" stop-color="#93c5fd"/></linearGradient>
<filter id="softGlow" x="-50%" y="-50%" width="200%" height="200%"><feGaussianBlur in="SourceGraphic" stdDeviation="12"/></filter>
</defs>
<rect width="1200" height="300" fill="url(#skyGrad)"/>
<circle cx="979.5" cy="54.2" r="45" fill="#fef08a" opacity="0.12" filter="url(#softGlow)"/>
<circle cx="979.5" cy="54.2" r="30" fill="#fde68a" opacity="0.18" filter="url(#softGlow)"/>
<circle cx="979.5" cy="54.2" r="16" fill="#fef9c3" opacity="0.25" filter="url(#softGlow)"/>
<path d="M0 300 L0.0 196.6 C248.5 196.6, 248.5 188.3, 497.0 188.3 C622.2 188.3, 622.2 191.7, 747.4 191.7 C973.7 191.7, 973.7 202.8, 1200.0 202.8 L1200 300 Z" fill="url(#hillFar)" opacity="0.5"/>
<path d="M0 300 L0.0 205.3 C182.2 205.3, 182.2 208.7, 364.4 208.7 C585.0 208.7, 585.0 208.2, 805.5 208.2 C1002.7 208.2, 1002.7 216.8, 1200.0 216.8 L1200 300 Z" fill="url(#hillMid)" opacity="0.7"/>
<path d="M0 300 L0.0 232.3 C235.6 232.3, 235.6 233.3, 471.2 233.3 C596.9 233.3, 596.9 236.3, 722.5 236.3 C961.2 236.3, 961.2 228.7, 1200.0 228.7 L1200 300 Z" fill="url(#hillNear)" opacity="1"/>
<rect x="0" y="226.4" width="1200" height="73.6" fill="url(#waterGrad)" opacity="0.6"/>
<path d="M0 250.9 Q60.0 251.5 120.0 251.9 Q180.0 249.0 240.0 251.9 Q300.0 250.2 360.0 251.6 Q420.0 251.3 480.0 249.7 Q540.0 252.0 600.0 251.2 Q660.0 250.0 720.0 249.6 Q780.0 253.4 840.0 251.0 Q900.0 253.0 960.0 250.4 Q1020.0 253.3 1080.0 252.1 Q1140.0 251.3 1200.0 252.2" fill="none" stroke="#bfdbfe" stroke-width="1" opacity="0.5"/>
<path d="M0 275.5 Q60.0 274.0 120.0 274.1 Q180.0 273.3 240.0 276.8 Q300.0 275.8 360.0 275.4 Q420.0 277.0 480.0 276.8 Q540.0 277.8 600.0 274.9 Q660.0 273.7 720.0 276.1 Q780.0 274.6 840.0 275.1 Q900.0 275.8 960.0 275.8 Q1020.0 273.6 1080.0 275.1 Q1140.0 276.4 1200.0 276.0" fill="none" stroke="#bfdbfe" stroke-width="1" opacity="0.5"/>
<rect x="270.5" y="239.1" width="78.3" height="60.9" rx="3" fill="url(#bldg_teal)" opacity="0.7"/>
<polygon points="270.5,239.1 309.6,212.2 348.8,239.1" fill="url(#roof_coralRoof)" opacity="0.7"/>
<rect x="285.6" y="249.1" width="6" height="8" rx="1" fill="url(#windowGlow)" opacity="0.8410079331793858"/>
<rect x="299.6" y="249.1" width="6" height="8" rx="1" fill="url(#windowGlow)" opacity="0.8729133327365449"/>
<rect x="313.6" y="249.1" width="6" height="8" rx="1" fill="url(#windowGlow)" opacity="0.8605150162989809"/>
<rect x="327.6" y="249.1" width="6" height="8" rx="1" fill="url(#windowGlow)" opacity="0.7856857033845436"/>
<rect x="817.7" y="254.5" width="58.0" height="45.5" rx="3" fill="url(#bldg_amber)" opacity="0.7"/>
<rect x="829.3" y="249.0" width="34.8" height="5.5" rx="2" fill="url(#roof_tealRoof)" opacity="0.7"/>
<rect x="829.7" y="264.5" width="6" height="8" rx="1" fill="url(#windowGlow)" opacity="0.9837364175281191"/>
<rect x="843.7" y="264.5" width="6" height="8" rx="1" fill="url(#windowGlow)" opacity="0.7898544221137903"/>
<rect x="857.7" y="264.5" width="6" height="8" rx="1" fill="url(#windowGlow)" opacity="0.8666546685931527"/>
<rect x="244.5" y="198.2" width="44.8" height="101.8" rx="3" fill="url(#bldg_lavender)" opacity="0.85"/>
<polygon points="244.5,198.2 266.9,188.9 289.3,198.2" fill="url(#roof_navyRoof)" opacity="0.85"/>
<rect x="256.9" y="208.2" width="6" height="8" rx="1" fill="url(#windowGlow)" opacity="0.8190241891979352"/>
<rect x="270.9" y="208.2" width="6" height="8" rx="1" fill="url(#windowGlow)" opacity="0.7192520836923514"/>
<rect x="270.9" y="223.2" width="6" height="8" rx="1" fill="url(#windowGlow)" opacity="0.7993167365432329"/>
<rect x="270.9" y="238.2" width="6" height="8" rx="1" fill="url(#windowGlow)" opacity="0.9300782740721842"/>
<rect x="256.9" y="253.2" width="6" height="8" rx="1" fill="url(#windowGlow)" opacity="0.8826122216333692"/>
<path d="M249.0 233.8 L266.9 233.8 L263.9 239.8 L252.0 239.8 Z" fill="url(#roof_tealRoof)" opacity="0.68"/>
<rect x="862.7" y="239.0" width="60.8" height="61.0" rx="3" fill="url(#bldg_blue)" opacity="0.85"/>
<rect x="862.7" y="236.0" width="60.8" height="3" rx="1" fill="url(#roof_coralRoof)" opacity="0.85"/>
<rect x="904.1" y="249.0" width="6" height="8" rx="1" fill="url(#windowGlow)" opacity="0.9503278258956632"/>
<rect x="233.7" y="240.5" width="38.4" height="59.5" rx="3" fill="url(#bldg_mint)" opacity="1"/>
<rect x="233.7" y="237.5" width="38.4" height="3" rx="1" fill="url(#roof_tealRoof)" opacity="1"/>
<rect x="249.9" y="250.5" width="6" height="8" rx="1" fill="url(#windowGlow)" opacity="0.9309377127936751"/>
<rect x="247.9" y="284.0" width="10" height="16" rx="2" fill="url(#roof_navyRoof)" opacity="0.8"/>
<rect x="249.9" y="287.0" width="6" height="10" rx="1" fill="url(#windowGlow)" opacity="0.45"/>
<rect x="592.2" y="151.6" width="70.7" height="148.4" rx="3" fill="url(#bldg_rose)" opacity="1"/>
<polygon points="592.2,151.6 627.5,129.7 662.9,151.6" fill="url(#roof_navyRoof)" opacity="1"/>
<rect x="610.5" y="161.6" width="6" height="8" rx="1" fill="url(#windowGlow)" opacity="0.9354448585470415"/>
<rect x="624.5" y="161.6" width="6" height="8" rx="1" fill="url(#windowGlow)" opacity="0.7123663966135896"/>
<rect x="638.5" y="161.6" width="6" height="8" rx="1" fill="url(#windowGlow)" opacity="0.9455659155480405"/>
<rect x="610.5" y="176.6" width="6" height="8" rx="1" fill="url(#windowGlow)" opacity="0.8006976868029206"/>
<rect x="638.5" y="176.6" width="6" height="8" rx="1" fill="url(#windowGlow)" opacity="0.7505921790611894"/>
<rect x="610.5" y="191.6" width="6" height="8" rx="1" fill="url(#windowGlow)" opacity="0.7301370655326811"/>
<rect x="624.5" y="191.6" width="6" height="8" rx="1" fill="url(#windowGlow)" opacity="0.8908052974337736"/>
<rect x="638.5" y="191.6" width="6" height="8" rx="1" fill="url(#windowGlow)" opacity="0.9662390891771013"/>
<rect x="610.5" y="206.6" width="6" height="8" rx="1" fill="url(#windowGlow)" opacity="0.7490344649409104"/>
<rect x="624.5" y="221.6" width="6" height="8" rx="1" fill="url(#windowGlow)" opacity="0.8311130094486814"/>
<rect x="624.5" y="236.6" width="6" height="8" rx="1" fill="url(#windowGlow)" opacity="0.7053564288212715"/>
<rect x="610.5" y="251.6" width="6" height="8" rx="1" fill="url(#windowGlow)" opacity="0.8175965950440599"/>
<rect x="624.5" y="251.6" width="6" height="8" rx="1" fill="url(#windowGlow)" opacity="0.7861261363542295"/>
<rect x="622.5" y="284.0" width="10" height="16" rx="2" fill="url(#roof_navyRoof)" opacity="0.8"/>
<rect x="624.5" y="287.0" width="6" height="10" rx="1" fill="url(#windowGlow)" opacity="0.45"/>
<path d="M627.5 203.5 L655.8 203.5 L652.8 209.5 L630.5 209.5 Z" fill="url(#roof_tealRoof)" opacity="0.8"/>
<rect x="923.7" y="196.8" width="40.7" height="103.2" rx="3" fill="url(#bldg_sky)" opacity="1"/>
<rect x="931.8" y="184.5" width="24.4" height="12.4" rx="2" fill="url(#roof_coralRoof)" opacity="1"/>
<rect x="941.0" y="221.8" width="6" height="8" rx="1" fill="url(#windowGlow)" opacity="0.9563779555523665"/>
<rect x="941.0" y="251.8" width="6" height="8" rx="1" fill="url(#windowGlow)" opacity="0.7638337016868562"/>
<rect x="939.0" y="284.0" width="10" height="16" rx="2" fill="url(#roof_navyRoof)" opacity="0.8"/>
<rect x="941.0" y="287.0" width="6" height="10" rx="1" fill="url(#windowGlow)" opacity="0.45"/>
<rect x="936.9" y="237.8" width="14.2" height="5" rx="1" fill="#15803d" opacity="0.7"/>
<circle cx="939.9" cy="236.8" r="2.5" fill="#fb923c" opacity="0.85"/>
<circle cx="944.6" cy="236.8" r="2.5" fill="#fbbf24" opacity="0.85"/>
<circle cx="949.4" cy="236.8" r="2.5" fill="#a78bfa" opacity="0.85"/>
<path d="M432.1 285.0 Q460.0 255.1 448.9 225.2" stroke="#92400e" stroke-width="4" fill="none" stroke-linecap="round"/>
<path d="M448.9 225.2 Q435.2 213.5 426.1 212.6" stroke="#16a34a" stroke-width="2.5" fill="none" stroke-linecap="round"/>
<path d="M448.9 225.2 Q454.0 214.0 457.4 213.8" stroke="#22c55e" stroke-width="2.5" fill="none" stroke-linecap="round"/>
<path d="M448.9 225.2 Q467.1 219.2 479.3 225.2" stroke="#15803d" stroke-width="2.5" fill="none" stroke-linecap="round"/>
<path d="M448.9 225.2 Q456.1 226.5 461.0 241.2" stroke="#4ade80" stroke-width="2.5" fill="none" stroke-linecap="round"/>
<path d="M448.9 225.2 Q437.5 223.9 429.9 235.6" stroke="#16a34a" stroke-width="2.5" fill="none" stroke-linecap="round"/>
<path d="M793.3 285.0 Q805.9 254.9 800.9 224.9" stroke="#92400e" stroke-width="4" fill="none" stroke-linecap="round"/>
<path d="M800.9 224.9 Q789.4 214.1 781.7 214.4" stroke="#16a34a" stroke-width="2.5" fill="none" stroke-linecap="round"/>
<path d="M800.9 224.9 Q807.9 211.8 812.7 209.2" stroke="#22c55e" stroke-width="2.5" fill="none" stroke-linecap="round"/>
<path d="M800.9 224.9 Q815.6 218.9 825.5 224.9" stroke="#15803d" stroke-width="2.5" fill="none" stroke-linecap="round"/>
<path d="M800.9 224.9 Q806.5 224.5 810.2 237.3" stroke="#4ade80" stroke-width="2.5" fill="none" stroke-linecap="round"/>
<path d="M800.9 224.9 Q788.5 224.1 780.2 236.2" stroke="#16a34a" stroke-width="2.5" fill="none" stroke-linecap="round"/>
<path d="M191.4 285.0 Q219.4 261.5 208.2 238.0" stroke="#92400e" stroke-width="4" fill="none" stroke-linecap="round"/>
<path d="M208.2 238.0 Q197.0 227.3 189.5 227.7" stroke="#16a34a" stroke-width="2.5" fill="none" stroke-linecap="round"/>
<path d="M208.2 238.0 Q214.6 225.5 218.8 223.8" stroke="#22c55e" stroke-width="2.5" fill="none" stroke-linecap="round"/>
<path d="M208.2 238.0 Q227.4 232.0 240.2 238.0" stroke="#15803d" stroke-width="2.5" fill="none" stroke-linecap="round"/>
<path d="M208.2 238.0 Q213.5 237.3 217.0 249.7" stroke="#4ade80" stroke-width="2.5" fill="none" stroke-linecap="round"/>
<path d="M208.2 238.0 Q199.2 235.7 193.3 246.1" stroke="#16a34a" stroke-width="2.5" fill="none" stroke-linecap="round"/>
<path d="M993.1 285.0 Q1022.8 262.6 1011.0 240.1" stroke="#92400e" stroke-width="4" fill="none" stroke-linecap="round"/>
<path d="M1011.0 240.1 Q997.4 228.4 988.3 227.7" stroke="#16a34a" stroke-width="2.5" fill="none" stroke-linecap="round"/>
<path d="M1011.0 240.1 Q1015.6 229.4 1018.7 229.8" stroke="#22c55e" stroke-width="2.5" fill="none" stroke-linecap="round"/>
<path d="M1011.0 240.1 Q1028.9 234.1 1040.9 240.1" stroke="#15803d" stroke-width="2.5" fill="none" stroke-linecap="round"/>
<path d="M1011.0 240.1 Q1016.8 240.0 1020.7 253.1" stroke="#4ade80" stroke-width="2.5" fill="none" stroke-linecap="round"/>
<path d="M1011.0 240.1 Q1001.8 237.9 995.6 248.6" stroke="#16a34a" stroke-width="2.5" fill="none" stroke-linecap="round"/>
<path d="M635.7 285.0 Q663.7 261.3 652.5 237.6" stroke="#92400e" stroke-width="4" fill="none" stroke-linecap="round"/>
<path d="M652.5 237.6 Q640.8 226.7 633.0 226.8" stroke="#16a34a" stroke-width="2.5" fill="none" stroke-linecap="round"/>
<path d="M652.5 237.6 Q659.0 225.1 663.3 223.3" stroke="#22c55e" stroke-width="2.5" fill="none" stroke-linecap="round"/>
<path d="M652.5 237.6 Q664.6 231.6 672.6 237.6" stroke="#15803d" stroke-width="2.5" fill="none" stroke-linecap="round"/>
<path d="M652.5 237.6 Q657.4 236.5 660.7 248.3" stroke="#4ade80" stroke-width="2.5" fill="none" stroke-linecap="round"/>
<path d="M652.5 237.6 Q638.7 237.3 629.5 250.2" stroke="#16a34a" stroke-width="2.5" fill="none" stroke-linecap="round"/>
<path d="M480.6 285.0 Q504.5 256.1 494.9 227.1" stroke="#92400e" stroke-width="4" fill="none" stroke-linecap="round"/>
<path d="M494.9 227.1 Q485.2 217.1 478.7 218.2" stroke="#16a34a" stroke-width="2.5" fill="none" stroke-linecap="round"/>
<path d="M494.9 227.1 Q500.1 215.9 503.6 215.7" stroke="#22c55e" stroke-width="2.5" fill="none" stroke-linecap="round"/>
<path d="M494.9 227.1 Q512.7 221.1 524.5 227.1" stroke="#15803d" stroke-width="2.5" fill="none" stroke-linecap="round"/>
<path d="M494.9 227.1 Q500.2 226.4 503.7 238.7" stroke="#4ade80" stroke-width="2.5" fill="none" stroke-linecap="round"/>
<path d="M494.9 227.1 Q485.5 225.1 479.3 235.8" stroke="#16a34a" stroke-width="2.5" fill="none" stroke-linecap="round"/>
<path d="M412.9 285.0 Q438.0 258.0 428.0 231.0" stroke="#92400e" stroke-width="4" fill="none" stroke-linecap="round"/>
<path d="M428.0 231.0 Q415.4 219.7 407.0 219.5" stroke="#16a34a" stroke-width="2.5" fill="none" stroke-linecap="round"/>
<path d="M428.0 231.0 Q434.0 218.9 438.0 217.7" stroke="#22c55e" stroke-width="2.5" fill="none" stroke-linecap="round"/>
<path d="M428.0 231.0 Q443.5 225.0 453.9 231.0" stroke="#15803d" stroke-width="2.5" fill="none" stroke-linecap="round"/>
<path d="M428.0 231.0 Q433.5 230.5 437.1 243.2" stroke="#4ade80" stroke-width="2.5" fill="none" stroke-linecap="round"/>
<path d="M428.0 231.0 Q415.6 230.1 407.4 242.3" stroke="#16a34a" stroke-width="2.5" fill="none" stroke-linecap="round"/>
<path d="M440.8 285.0 Q456.6 255.9 450.3 226.8" stroke="#92400e" stroke-width="4" fill="none" stroke-linecap="round"/>
<path d="M450.3 226.8 Q438.9 216.0 431.4 216.3" stroke="#16a34a" stroke-width="2.5" fill="none" stroke-linecap="round"/>
<path d="M450.3 226.8 Q457.5 213.5 462.3 210.8" stroke="#22c55e" stroke-width="2.5" fill="none" stroke-linecap="round"/>
<path d="M450.3 226.8 Q467.3 220.8 478.6 226.8" stroke="#15803d" stroke-width="2.5" fill="none" stroke-linecap="round"/>
<path d="M450.3 226.8 Q456.1 226.6 459.9 239.5" stroke="#4ade80" stroke-width="2.5" fill="none" stroke-linecap="round"/>
<path d="M450.3 226.8 Q438.1 225.8 430.0 237.9" stroke="#16a34a" stroke-width="2.5" fill="none" stroke-linecap="round"/>
<path d="M259.0 285.0 Q273.4 263.4 267.7 241.8" stroke="#92400e" stroke-width="4" fill="none" stroke-linecap="round"/>
<path d="M267.7 241.8 Q258.3 231.9 252.0 233.2" stroke="#16a34a" stroke-width="2.5" fill="none" stroke-linecap="round"/>
<path d="M267.7 241.8 Q274.8 228.7 279.5 226.1" stroke="#22c55e" stroke-width="2.5" fill="none" stroke-linecap="round"/>
<path d="M267.7 241.8 Q287.3 235.8 300.5 241.8" stroke="#15803d" stroke-width="2.5" fill="none" stroke-linecap="round"/>
<path d="M267.7 241.8 Q272.3 240.4 275.4 252.0" stroke="#4ade80" stroke-width="2.5" fill="none" stroke-linecap="round"/>
<path d="M267.7 241.8 Q255.1 241.0 246.7 253.3" stroke="#16a34a" stroke-width="2.5" fill="none" stroke-linecap="round"/>
<rect x="0" y="282" width="1200" height="18" fill="url(#groundGrad)"/>
</svg>