<svg xmlns="http://www.w3.org/2000/svg" viewBox="0 0 1200 400" width="1200" height="400">
<defs>
<linearGradient id="bg" x1="0" y1="0" x2="0" y2="1"><stop offset="0%" stop-color="#a16207"/><stop offset="100%" stop-color="#c2410c"/></linearGradient>
<linearGradient id="warm" x1="0" y1="0" x2="1" y2="1"><stop offset="0%" stop-color="#a9936b" stop-opacity="0.18"/><stop offset="100%" stop-color="#a9936b" stop-opacity="0.06"/></linearGradient>
</defs>
<rect width="1200" height="400" fill="url(#bg)"/>
<path d="M0 400 L0 225.95626462943133 C60.0 228.7, 90.0 243.5, 150.0 238.0 C210.0 236.8, 240.0 227.3, 300.0 221.5 C360.0 221.9, 390.0 244.6, 450.0 252.3 C510.0 248.0, 540.0 227.6, 600.0 231.8 C660.0 222.6, 690.0 217.9, 750.0 227.1 C810.0 218.1, 840.0 251.7, 900.0 245.8 C960.0 254.9, 990.0 225.9, 1050.0 222.7 C1110.0 215.2, 1140.0 247.1, 1200.0 242.0 L1200 400 Z" fill="#b64d0a" opacity="0.45"/>
<path d="M0 400 L0 277.7524386074677 C52.5 273.6, 97.5 274.8, 150.0 270.2 C202.5 266.4, 247.5 267.3, 300.0 274.0 C352.5 267.7, 397.5 263.7, 450.0 261.4 C502.5 264.1, 547.5 263.2, 600.0 267.5 C652.5 273.8, 697.5 278.8, 750.0 277.3 C802.5 280.6, 847.5 262.5, 900.0 260.0 C952.5 261.1, 997.5 266.6, 1050.0 259.1 C1102.5 261.9, 1147.5 279.2, 1200.0 274.0 L1200 400 Z" fill="#c2410c" opacity="0.3"/>
<rect x="258.0" y="353.9" width="23.1" height="46.1" rx="4.2" fill="#6b9d0d" opacity="0.62"/>
<rect x="814.9" y="362.6" width="12.2" height="37.4" rx="3.2" fill="#6f980d" opacity="0.77"/>
<rect x="267.4" y="359.7" width="17.3" height="40.3" rx="6.6" fill="#7f880d" opacity="0.68"/>
<rect x="1029.5" y="288.6" width="17.8" height="111.4" rx="3.6" fill="#788f0d" opacity="0.77"/>
<rect x="1034.5" y="298.6" width="4" height="5" rx="0.5" fill="#a16207" opacity="0.6"/>
<rect x="1034.5" y="320.6" width="4" height="5" rx="0.5" fill="#a16207" opacity="0.6"/>
<rect x="1034.5" y="342.6" width="4" height="5" rx="0.5" fill="#a16207" opacity="0.6"/>
<rect x="1034.5" y="364.6" width="4" height="5" rx="0.5" fill="#a16207" opacity="0.6"/>
<rect x="1039.7" y="301.8" width="21.4" height="98.2" rx="5.8" fill="#6f980d" opacity="0.59"/>
<rect x="1044.7" y="311.8" width="4" height="5" rx="0.5" fill="#a16207" opacity="0.6"/>
<rect x="1044.7" y="333.8" width="4" height="5" rx="0.5" fill="#a16207" opacity="0.6"/>
<rect x="949.3" y="342.1" width="41.3" height="57.9" rx="5.6" fill="#91750d" opacity="0.84"/>
<rect x="380.7" y="320.4" width="25.9" height="79.6" rx="3.6" fill="#689f0d" opacity="0.81"/>
<rect x="685.6" y="300.6" width="44.3" height="99.4" rx="3.4" fill="#7c8b0d" opacity="0.65"/>
<rect x="690.6" y="310.6" width="4" height="5" rx="0.5" fill="#a16207" opacity="0.6"/>
<rect x="705.4" y="310.6" width="4" height="5" rx="0.5" fill="#a16207" opacity="0.6"/>
<rect x="130.8" y="344.3" width="33.7" height="55.7" rx="7.1" fill="#6d9b0d" opacity="0.82"/>
<rect x="137.1" y="313.7" width="37.5" height="86.3" rx="4.3" fill="#9c690c" opacity="0.73"/>
<rect x="1068.6" y="279.4" width="46.1" height="120.6" rx="4.6" fill="#8b7b0d" opacity="0.61"/>
<rect x="1010.5" y="281.2" width="45.0" height="118.8" rx="3.5" fill="#7b8b0d" opacity="0.78"/>
<rect x="757.8" y="288.5" width="46.9" height="111.5" rx="7.7" fill="#8d790d" opacity="0.81"/>
<rect x="778.4" y="298.5" width="4" height="5" rx="0.5" fill="#a16207" opacity="0.6"/>
<rect x="778.4" y="320.5" width="4" height="5" rx="0.5" fill="#a16207" opacity="0.6"/>
<rect x="778.4" y="342.5" width="4" height="5" rx="0.5" fill="#a16207" opacity="0.6"/>
<rect x="762.8" y="364.5" width="4" height="5" rx="0.5" fill="#a16207" opacity="0.6"/>
<rect x="778.4" y="364.5" width="4" height="5" rx="0.5" fill="#a16207" opacity="0.6"/>
<polygon points="400.0,-2.8 395.8,4.5 404.2,4.5" fill="#a16207" opacity="0.26"/>
<polygon points="493.8,-8.3 485.3,6.3 502.2,6.3" fill="#65a30d" opacity="0.27"/>
<polygon points="588.3,69.7 581.9,80.8 594.6,80.8" fill="#65a30d" opacity="0.38"/>
<polygon points="700.8,202.8 694.0,214.7 707.7,214.7" fill="#65a30d" opacity="0.23"/>
<rect width="1200" height="400" fill="url(#warm)"/>
<rect width="1200" height="400" fill="#a16207" opacity="0.36"/>
</svg>