<svg xmlns="http://www.w3.org/2000/svg" viewBox="0 0 1200 300" width="1200" height="300">
<defs>
<linearGradient id="skyGrad" x1="0" y1="0" x2="0" y2="1">
<stop offset="0%" stop-color="#a78bfa"/>
<stop offset="15%" stop-color="#c4b5fd"/>
<stop offset="30%" stop-color="#fda4af"/>
<stop offset="48%" stop-color="#fdba74"/>
<stop offset="65%" stop-color="#fcd34d"/>
<stop offset="85%" stop-color="#fef08a"/>
<stop offset="100%" stop-color="#fef9c3"/>
</linearGradient>
<linearGradient id="bldg_coral" x1="0" y1="0" x2="0" y2="1"><stop offset="0%" stop-color="#fecaca"/><stop offset="100%" stop-color="#fca5a5"/></linearGradient>
<linearGradient id="bldg_teal" x1="0" y1="0" x2="0" y2="1"><stop offset="0%" stop-color="#99f6e4"/><stop offset="100%" stop-color="#5eead4"/></linearGradient>
<linearGradient id="bldg_amber" x1="0" y1="0" x2="0" y2="1"><stop offset="0%" stop-color="#fde68a"/><stop offset="100%" stop-color="#fcd34d"/></linearGradient>
<linearGradient id="bldg_lavender" x1="0" y1="0" x2="0" y2="1"><stop offset="0%" stop-color="#ddd6fe"/><stop offset="100%" stop-color="#c4b5fd"/></linearGradient>
<linearGradient id="bldg_blue" x1="0" y1="0" x2="0" y2="1"><stop offset="0%" stop-color="#bfdbfe"/><stop offset="100%" stop-color="#93c5fd"/></linearGradient>
<linearGradient id="bldg_mint" x1="0" y1="0" x2="0" y2="1"><stop offset="0%" stop-color="#a7f3d0"/><stop offset="100%" stop-color="#6ee7b7"/></linearGradient>
<linearGradient id="bldg_rose" x1="0" y1="0" x2="0" y2="1"><stop offset="0%" stop-color="#fecdd3"/><stop offset="100%" stop-color="#fda4af"/></linearGradient>
<linearGradient id="bldg_sky" x1="0" y1="0" x2="0" y2="1"><stop offset="0%" stop-color="#bae6fd"/><stop offset="100%" stop-color="#7dd3fc"/></linearGradient>
<linearGradient id="roof_navyRoof" x1="0" y1="0" x2="0" y2="1"><stop offset="0%" stop-color="#4338ca"/><stop offset="100%" stop-color="#3730a3"/></linearGradient>
<linearGradient id="roof_coralRoof" x1="0" y1="0" x2="0" y2="1"><stop offset="0%" stop-color="#f87171"/><stop offset="100%" stop-color="#ef4444"/></linearGradient>
<linearGradient id="roof_tealRoof" x1="0" y1="0" x2="0" y2="1"><stop offset="0%" stop-color="#2dd4bf"/><stop offset="100%" stop-color="#14b8a6"/></linearGradient>
<radialGradient id="windowGlow" cx="50%" cy="50%" r="50%"><stop offset="0%" stop-color="#fef08a"/><stop offset="60%" stop-color="#fbbf24"/><stop offset="100%" stop-color="#f59e0b"/></radialGradient>
<linearGradient id="hillFar" x1="0" y1="0" x2="0" y2="1"><stop offset="0%" stop-color="#c4b5fd"/><stop offset="100%" stop-color="#a5b4fc"/></linearGradient>
<linearGradient id="hillMid" x1="0" y1="0" x2="0" y2="1"><stop offset="0%" stop-color="#86efac"/><stop offset="100%" stop-color="#4ade80"/></linearGradient>
<linearGradient id="hillNear" x1="0" y1="0" x2="0" y2="1"><stop offset="0%" stop-color="#34d399"/><stop offset="100%" stop-color="#10b981"/></linearGradient>
<linearGradient id="hillDesertFar" x1="0" y1="0" x2="0" y2="1"><stop offset="0%" stop-color="#fde68a"/><stop offset="100%" stop-color="#fcd34d"/></linearGradient>
<linearGradient id="hillDesertMid" x1="0" y1="0" x2="0" y2="1"><stop offset="0%" stop-color="#fcd34d"/><stop offset="100%" stop-color="#fbbf24"/></linearGradient>
<linearGradient id="hillDesertNear" x1="0" y1="0" x2="0" y2="1"><stop offset="0%" stop-color="#fbbf24"/><stop offset="100%" stop-color="#f59e0b"/></linearGradient>
<linearGradient id="groundGrad" x1="0" y1="0" x2="0" y2="1"><stop offset="0%" stop-color="#fef3c7"/><stop offset="100%" stop-color="#fde68a"/></linearGradient>
<linearGradient id="waterGrad" x1="0" y1="0" x2="0" y2="1"><stop offset="0%" stop-color="#bfdbfe"/><stop offset="100%" stop-color="#93c5fd"/></linearGradient>
<filter id="softGlow" x="-50%" y="-50%" width="200%" height="200%"><feGaussianBlur in="SourceGraphic" stdDeviation="12"/></filter>
</defs>
<rect width="1200" height="300" fill="url(#skyGrad)"/>
<circle cx="911.3" cy="47.3" r="45" fill="#fef08a" opacity="0.12" filter="url(#softGlow)"/>
<circle cx="911.3" cy="47.3" r="30" fill="#fde68a" opacity="0.18" filter="url(#softGlow)"/>
<circle cx="911.3" cy="47.3" r="16" fill="#fef9c3" opacity="0.25" filter="url(#softGlow)"/>
<path d="M0 300 L0.0 192.9 C135.3 192.9, 135.3 203.3, 270.6 203.3 C448.9 203.3, 448.9 204.5, 627.1 204.5 C769.5 204.5, 769.5 198.3, 911.9 198.3 C1056.0 198.3, 1056.0 197.7, 1200.0 197.7 L1200 300 Z" fill="url(#hillDesertFar)" opacity="0.45"/>
<path d="M0 300 L0.0 212.5 C202.3 212.5, 202.3 222.6, 404.5 222.6 C580.7 222.6, 580.7 221.3, 756.9 221.3 C978.5 221.3, 978.5 224.5, 1200.0 224.5 L1200 300 Z" fill="url(#hillDesertMid)" opacity="0.6"/>
<path d="M0 300 L0.0 238.3 C171.9 238.3, 171.9 234.3, 343.9 234.3 C483.8 234.3, 483.8 239.2, 623.8 239.2 C780.7 239.2, 780.7 234.4, 937.6 234.4 C1068.8 234.4, 1068.8 236.0, 1200.0 236.0 L1200 300 Z" fill="url(#hillDesertNear)" opacity="0.85"/>
<rect x="187.2" y="226.0" width="67.0" height="74.0" rx="3" fill="url(#bldg_rose)" opacity="0.7"/>
<polygon points="187.2,226.0 220.7,211.0 254.3,226.0" fill="url(#roof_navyRoof)" opacity="0.7"/>
<rect x="203.7" y="236.0" width="6" height="8" rx="1" fill="url(#windowGlow)" opacity="0.8386936286644514"/>
<rect x="217.7" y="236.0" width="6" height="8" rx="1" fill="url(#windowGlow)" opacity="0.7461699829186172"/>
<rect x="231.7" y="236.0" width="6" height="8" rx="1" fill="url(#windowGlow)" opacity="0.9842253462338006"/>
<rect x="217.7" y="251.0" width="6" height="8" rx="1" fill="url(#windowGlow)" opacity="0.9330577228372253"/>
<rect x="231.7" y="251.0" width="6" height="8" rx="1" fill="url(#windowGlow)" opacity="0.8585313833125547"/>
<rect x="530.8" y="231.3" width="64.0" height="68.7" rx="3" fill="url(#bldg_sky)" opacity="0.7"/>
<rect x="543.6" y="223.0" width="38.4" height="8.2" rx="2" fill="url(#roof_coralRoof)" opacity="0.7"/>
<rect x="545.8" y="241.3" width="6" height="8" rx="1" fill="url(#windowGlow)" opacity="0.9732936021747502"/>
<rect x="559.8" y="241.3" width="6" height="8" rx="1" fill="url(#windowGlow)" opacity="0.8951674777526256"/>
<rect x="573.8" y="241.3" width="6" height="8" rx="1" fill="url(#windowGlow)" opacity="0.8654197516224439"/>
<rect x="559.8" y="256.3" width="6" height="8" rx="1" fill="url(#windowGlow)" opacity="0.9891049025995213"/>
<rect x="573.8" y="256.3" width="6" height="8" rx="1" fill="url(#windowGlow)" opacity="0.9344436244268173"/>
<rect x="967.3" y="249.5" width="68.7" height="50.5" rx="3" fill="url(#bldg_coral)" opacity="0.7"/>
<polygon points="967.3,249.5 1001.6,227.9 1035.9,249.5" fill="url(#roof_tealRoof)" opacity="0.7"/>
<rect x="984.6" y="259.5" width="6" height="8" rx="1" fill="url(#windowGlow)" opacity="0.9591703444063524"/>
<rect x="998.6" y="259.5" width="6" height="8" rx="1" fill="url(#windowGlow)" opacity="0.9352558517992756"/>
<rect x="1012.6" y="259.5" width="6" height="8" rx="1" fill="url(#windowGlow)" opacity="0.809430499053295"/>
<rect x="124.0" y="213.1" width="52.5" height="86.9" rx="3" fill="url(#bldg_teal)" opacity="0.85"/>
<rect x="134.5" y="202.7" width="31.5" height="10.4" rx="2" fill="url(#roof_navyRoof)" opacity="0.85"/>
<rect x="140.3" y="223.1" width="6" height="8" rx="1" fill="url(#windowGlow)" opacity="0.7345231080122865"/>
<rect x="140.3" y="238.1" width="6" height="8" rx="1" fill="url(#windowGlow)" opacity="0.9550877621653897"/>
<rect x="154.3" y="238.1" width="6" height="8" rx="1" fill="url(#windowGlow)" opacity="0.8767463871169585"/>
<rect x="154.3" y="253.1" width="6" height="8" rx="1" fill="url(#windowGlow)" opacity="0.82429406103878"/>
<path d="M129.3 243.5 L150.3 243.5 L147.3 249.5 L132.3 249.5 Z" fill="url(#roof_tealRoof)" opacity="0.68"/>
<rect x="397.8" y="196.7" width="84.0" height="103.3" rx="3" fill="url(#bldg_amber)" opacity="0.85"/>
<rect x="397.8" y="193.7" width="84.0" height="3" rx="1" fill="url(#roof_coralRoof)" opacity="0.85"/>
<rect x="443.8" y="206.7" width="6" height="8" rx="1" fill="url(#windowGlow)" opacity="0.7149233742686563"/>
<rect x="457.8" y="206.7" width="6" height="8" rx="1" fill="url(#windowGlow)" opacity="0.775877960247862"/>
<rect x="429.8" y="221.7" width="6" height="8" rx="1" fill="url(#windowGlow)" opacity="0.7410251162671601"/>
<rect x="443.8" y="221.7" width="6" height="8" rx="1" fill="url(#windowGlow)" opacity="0.9014861419338203"/>
<rect x="457.8" y="221.7" width="6" height="8" rx="1" fill="url(#windowGlow)" opacity="0.7053355363688131"/>
<rect x="415.8" y="236.7" width="6" height="8" rx="1" fill="url(#windowGlow)" opacity="0.9953875487648823"/>
<rect x="429.8" y="236.7" width="6" height="8" rx="1" fill="url(#windowGlow)" opacity="0.8465629700788124"/>
<rect x="443.8" y="236.7" width="6" height="8" rx="1" fill="url(#windowGlow)" opacity="0.9580793048991258"/>
<rect x="457.8" y="236.7" width="6" height="8" rx="1" fill="url(#windowGlow)" opacity="0.7964801738022268"/>
<rect x="415.8" y="251.7" width="6" height="8" rx="1" fill="url(#windowGlow)" opacity="0.7961201623995416"/>
<rect x="443.8" y="251.7" width="6" height="8" rx="1" fill="url(#windowGlow)" opacity="0.9530448847697325"/>
<rect x="457.8" y="251.7" width="6" height="8" rx="1" fill="url(#windowGlow)" opacity="0.7327395978536175"/>
<rect x="715.4" y="212.3" width="80.0" height="87.7" rx="3" fill="url(#bldg_lavender)" opacity="0.85"/>
<rect x="715.4" y="209.3" width="80.0" height="3" rx="1" fill="url(#roof_tealRoof)" opacity="0.85"/>
<rect x="731.4" y="222.3" width="6" height="8" rx="1" fill="url(#windowGlow)" opacity="0.9753632964917287"/>
<rect x="745.4" y="222.3" width="6" height="8" rx="1" fill="url(#windowGlow)" opacity="0.8992974807505019"/>
<rect x="759.4" y="222.3" width="6" height="8" rx="1" fill="url(#windowGlow)" opacity="0.914202263957915"/>
<rect x="773.4" y="222.3" width="6" height="8" rx="1" fill="url(#windowGlow)" opacity="0.9086993279907383"/>
<rect x="731.4" y="237.3" width="6" height="8" rx="1" fill="url(#windowGlow)" opacity="0.9683307020311852"/>
<rect x="759.4" y="237.3" width="6" height="8" rx="1" fill="url(#windowGlow)" opacity="0.7535284875675703"/>
<rect x="773.4" y="237.3" width="6" height="8" rx="1" fill="url(#windowGlow)" opacity="0.8682241989617349"/>
<rect x="731.4" y="252.3" width="6" height="8" rx="1" fill="url(#windowGlow)" opacity="0.8000073661096427"/>
<rect x="759.4" y="252.3" width="6" height="8" rx="1" fill="url(#windowGlow)" opacity="0.8073322695248445"/>
<rect x="773.4" y="252.3" width="6" height="8" rx="1" fill="url(#windowGlow)" opacity="0.8234434209407508"/>
<rect x="1015.7" y="211.2" width="78.5" height="88.8" rx="3" fill="url(#bldg_blue)" opacity="0.85"/>
<rect x="1015.7" y="208.2" width="78.5" height="3" rx="1" fill="url(#roof_navyRoof)" opacity="0.85"/>
<rect x="1031.0" y="221.2" width="6" height="8" rx="1" fill="url(#windowGlow)" opacity="0.725342728675037"/>
<rect x="1045.0" y="221.2" width="6" height="8" rx="1" fill="url(#windowGlow)" opacity="0.7963720001729074"/>
<rect x="1059.0" y="221.2" width="6" height="8" rx="1" fill="url(#windowGlow)" opacity="0.9272770572580755"/>
<rect x="1073.0" y="221.2" width="6" height="8" rx="1" fill="url(#windowGlow)" opacity="0.8752069941606404"/>
<rect x="1031.0" y="236.2" width="6" height="8" rx="1" fill="url(#windowGlow)" opacity="0.864453725686508"/>
<rect x="1045.0" y="236.2" width="6" height="8" rx="1" fill="url(#windowGlow)" opacity="0.7391508851382652"/>
<rect x="1059.0" y="236.2" width="6" height="8" rx="1" fill="url(#windowGlow)" opacity="0.8338407650281865"/>
<rect x="1073.0" y="236.2" width="6" height="8" rx="1" fill="url(#windowGlow)" opacity="0.9918653536084412"/>
<rect x="1045.0" y="251.2" width="6" height="8" rx="1" fill="url(#windowGlow)" opacity="0.7366156451108938"/>
<rect x="1059.0" y="251.2" width="6" height="8" rx="1" fill="url(#windowGlow)" opacity="0.9247333928592193"/>
<rect x="1073.0" y="251.2" width="6" height="8" rx="1" fill="url(#windowGlow)" opacity="0.7861869810084752"/>
<path d="M1055.0 242.2 L1086.4 242.2 L1083.4 248.2 L1058.0 248.2 Z" fill="url(#roof_tealRoof)" opacity="0.68"/>
<rect x="122.3" y="244.1" width="86.2" height="55.9" rx="3" fill="url(#bldg_mint)" opacity="1"/>
<rect x="122.3" y="241.1" width="86.2" height="3" rx="1" fill="url(#roof_coralRoof)" opacity="1"/>
<rect x="141.4" y="254.1" width="6" height="8" rx="1" fill="url(#windowGlow)" opacity="0.7153069164675226"/>
<rect x="155.4" y="254.1" width="6" height="8" rx="1" fill="url(#windowGlow)" opacity="0.9970758147989752"/>
<rect x="169.4" y="254.1" width="6" height="8" rx="1" fill="url(#windowGlow)" opacity="0.9471197883817924"/>
<rect x="160.4" y="284.0" width="10" height="16" rx="2" fill="url(#roof_navyRoof)" opacity="0.8"/>
<rect x="162.4" y="287.0" width="6" height="10" rx="1" fill="url(#windowGlow)" opacity="0.45"/>
<rect x="416.7" y="249.4" width="50.9" height="50.6" rx="3" fill="url(#bldg_rose)" opacity="1"/>
<polygon points="416.7,249.4 442.2,232.7 467.7,249.4" fill="url(#roof_tealRoof)" opacity="1"/>
<rect x="446.2" y="259.4" width="6" height="8" rx="1" fill="url(#windowGlow)" opacity="0.7100315069826466"/>
<rect x="437.2" y="284.0" width="10" height="16" rx="2" fill="url(#roof_navyRoof)" opacity="0.8"/>
<rect x="439.2" y="287.0" width="6" height="10" rx="1" fill="url(#windowGlow)" opacity="0.45"/>
<rect x="675.0" y="251.8" width="60.7" height="48.2" rx="3" fill="url(#bldg_sky)" opacity="1"/>
<rect x="687.1" y="246.0" width="36.4" height="5.8" rx="2" fill="url(#roof_navyRoof)" opacity="1"/>
<rect x="688.3" y="261.8" width="6" height="8" rx="1" fill="url(#windowGlow)" opacity="0.9141589659797767"/>
<rect x="702.3" y="261.8" width="6" height="8" rx="1" fill="url(#windowGlow)" opacity="0.8281367780771742"/>
<rect x="716.3" y="261.8" width="6" height="8" rx="1" fill="url(#windowGlow)" opacity="0.779070443743407"/>
<rect x="947.5" y="242.1" width="79.9" height="57.9" rx="3" fill="url(#bldg_coral)" opacity="1"/>
<rect x="947.5" y="239.1" width="79.9" height="3" rx="1" fill="url(#roof_coralRoof)" opacity="1"/>
<rect x="963.5" y="252.1" width="6" height="8" rx="1" fill="url(#windowGlow)" opacity="0.7723827923985117"/>
<rect x="977.5" y="252.1" width="6" height="8" rx="1" fill="url(#windowGlow)" opacity="0.9357738464305987"/>
<rect x="1005.5" y="252.1" width="6" height="8" rx="1" fill="url(#windowGlow)" opacity="0.8660460133413067"/>
<rect x="982.5" y="284.0" width="10" height="16" rx="2" fill="url(#roof_navyRoof)" opacity="0.8"/>
<rect x="984.5" y="287.0" width="6" height="10" rx="1" fill="url(#windowGlow)" opacity="0.45"/>
<path d="M987.5 262.4 L1019.5 262.4 L1016.5 268.4 L990.5 268.4 Z" fill="url(#roof_navyRoof)" opacity="0.8"/>
<rect x="309.6" y="255.1" width="6" height="29.9" rx="3" fill="#16a34a"/>
<rect x="301.5" y="264.5" width="8.1" height="5" rx="2.5" fill="#22c55e"/>
<rect x="301.5" y="254.1" width="5" height="12.9" rx="2.5" fill="#22c55e"/>
<rect x="315.6" y="268.2" width="11.6" height="5" rx="2.5" fill="#22c55e"/>
<rect x="324.8" y="261.2" width="5" height="9.5" rx="2.5" fill="#22c55e"/>
<rect x="568.3" y="241.2" width="6" height="43.8" rx="3" fill="#16a34a"/>
<rect x="555.9" y="257.9" width="12.4" height="5" rx="2.5" fill="#22c55e"/>
<rect x="555.9" y="247.3" width="5" height="13.1" rx="2.5" fill="#22c55e"/>
<rect x="838.6" y="244.8" width="6" height="40.2" rx="3" fill="#16a34a"/>
<rect x="825.4" y="257.4" width="13.2" height="5" rx="2.5" fill="#22c55e"/>
<rect x="825.4" y="249.1" width="5" height="10.8" rx="2.5" fill="#22c55e"/>
<rect x="844.6" y="265.1" width="13.5" height="5" rx="2.5" fill="#22c55e"/>
<rect x="855.6" y="253.7" width="5" height="13.9" rx="2.5" fill="#22c55e"/>
<rect x="81.3" y="253.2" width="6" height="31.8" rx="3" fill="#16a34a"/>
<rect x="69.5" y="263.2" width="11.9" height="5" rx="2.5" fill="#22c55e"/>
<rect x="69.5" y="252.6" width="5" height="13.1" rx="2.5" fill="#22c55e"/>
<rect x="1051.1" y="250.2" width="6" height="34.8" rx="3" fill="#16a34a"/>
<rect x="1036.5" y="259.3" width="14.5" height="5" rx="2.5" fill="#22c55e"/>
<rect x="1036.5" y="245.9" width="5" height="15.9" rx="2.5" fill="#22c55e"/>
<rect x="1057.1" y="264.2" width="10.5" height="5" rx="2.5" fill="#22c55e"/>
<rect x="1065.1" y="256.1" width="5" height="10.6" rx="2.5" fill="#22c55e"/>
<rect x="1014.2" y="255.1" width="6" height="29.9" rx="3" fill="#16a34a"/>
<rect x="1002.4" y="262.0" width="11.7" height="5" rx="2.5" fill="#22c55e"/>
<rect x="1002.4" y="252.6" width="5" height="11.8" rx="2.5" fill="#22c55e"/>
<rect x="1020.2" y="263.3" width="12.6" height="5" rx="2.5" fill="#22c55e"/>
<rect x="1030.3" y="256.7" width="5" height="9.1" rx="2.5" fill="#22c55e"/>
<rect x="0" y="282" width="1200" height="18" fill="url(#groundGrad)"/>
<line x1="701.0" y1="282.0" x2="701.0" y2="251.1" stroke="#92400e" stroke-width="2"/>
<circle cx="701.0" cy="251.1" r="4" fill="#fef08a" opacity="0.6"/>
<circle cx="701.0" cy="251.1" r="8" fill="#fef08a" opacity="0.15" filter="url(#softGlow)"/>
<ellipse cx="1160.8" cy="282.0" rx="7.0" ry="4.9" fill="#22c55e" opacity="0.6"/>
<ellipse cx="924.0" cy="282.0" rx="6.1" ry="4.3" fill="#22c55e" opacity="0.6"/>
<ellipse cx="318.5" cy="282.0" rx="6.0" ry="4.2" fill="#22c55e" opacity="0.6"/>
<ellipse cx="186.5" cy="282.0" rx="6.6" ry="4.6" fill="#22c55e" opacity="0.6"/>
</svg>