<svg xmlns="http://www.w3.org/2000/svg" viewBox="0 0 1200 300" width="1200" height="300">
<defs>
<linearGradient id="skyGrad" x1="0" y1="0" x2="0" y2="1">
<stop offset="0%" stop-color="#a78bfa"/>
<stop offset="18%" stop-color="#ddb4f0"/>
<stop offset="35%" stop-color="#fda4af"/>
<stop offset="52%" stop-color="#fdba74"/>
<stop offset="72%" stop-color="#fef08a"/>
<stop offset="100%" stop-color="#fef9c3"/>
</linearGradient>
<linearGradient id="bldg_coral" x1="0" y1="0" x2="0" y2="1"><stop offset="0%" stop-color="#fecaca"/><stop offset="100%" stop-color="#fca5a5"/></linearGradient>
<linearGradient id="bldg_teal" x1="0" y1="0" x2="0" y2="1"><stop offset="0%" stop-color="#99f6e4"/><stop offset="100%" stop-color="#5eead4"/></linearGradient>
<linearGradient id="bldg_amber" x1="0" y1="0" x2="0" y2="1"><stop offset="0%" stop-color="#fde68a"/><stop offset="100%" stop-color="#fcd34d"/></linearGradient>
<linearGradient id="bldg_lavender" x1="0" y1="0" x2="0" y2="1"><stop offset="0%" stop-color="#ddd6fe"/><stop offset="100%" stop-color="#c4b5fd"/></linearGradient>
<linearGradient id="bldg_blue" x1="0" y1="0" x2="0" y2="1"><stop offset="0%" stop-color="#bfdbfe"/><stop offset="100%" stop-color="#93c5fd"/></linearGradient>
<linearGradient id="bldg_mint" x1="0" y1="0" x2="0" y2="1"><stop offset="0%" stop-color="#a7f3d0"/><stop offset="100%" stop-color="#6ee7b7"/></linearGradient>
<linearGradient id="bldg_rose" x1="0" y1="0" x2="0" y2="1"><stop offset="0%" stop-color="#fecdd3"/><stop offset="100%" stop-color="#fda4af"/></linearGradient>
<linearGradient id="bldg_sky" x1="0" y1="0" x2="0" y2="1"><stop offset="0%" stop-color="#bae6fd"/><stop offset="100%" stop-color="#7dd3fc"/></linearGradient>
<linearGradient id="roof_navyRoof" x1="0" y1="0" x2="0" y2="1"><stop offset="0%" stop-color="#4338ca"/><stop offset="100%" stop-color="#3730a3"/></linearGradient>
<linearGradient id="roof_coralRoof" x1="0" y1="0" x2="0" y2="1"><stop offset="0%" stop-color="#f87171"/><stop offset="100%" stop-color="#ef4444"/></linearGradient>
<linearGradient id="roof_tealRoof" x1="0" y1="0" x2="0" y2="1"><stop offset="0%" stop-color="#2dd4bf"/><stop offset="100%" stop-color="#14b8a6"/></linearGradient>
<radialGradient id="windowGlow" cx="50%" cy="50%" r="50%"><stop offset="0%" stop-color="#fef08a"/><stop offset="60%" stop-color="#fbbf24"/><stop offset="100%" stop-color="#f59e0b"/></radialGradient>
<linearGradient id="hillFar" x1="0" y1="0" x2="0" y2="1"><stop offset="0%" stop-color="#c4b5fd"/><stop offset="100%" stop-color="#a5b4fc"/></linearGradient>
<linearGradient id="hillMid" x1="0" y1="0" x2="0" y2="1"><stop offset="0%" stop-color="#86efac"/><stop offset="100%" stop-color="#4ade80"/></linearGradient>
<linearGradient id="hillNear" x1="0" y1="0" x2="0" y2="1"><stop offset="0%" stop-color="#34d399"/><stop offset="100%" stop-color="#10b981"/></linearGradient>
<linearGradient id="hillDesertFar" x1="0" y1="0" x2="0" y2="1"><stop offset="0%" stop-color="#fde68a"/><stop offset="100%" stop-color="#fcd34d"/></linearGradient>
<linearGradient id="hillDesertMid" x1="0" y1="0" x2="0" y2="1"><stop offset="0%" stop-color="#fcd34d"/><stop offset="100%" stop-color="#fbbf24"/></linearGradient>
<linearGradient id="hillDesertNear" x1="0" y1="0" x2="0" y2="1"><stop offset="0%" stop-color="#fbbf24"/><stop offset="100%" stop-color="#f59e0b"/></linearGradient>
<linearGradient id="groundGrad" x1="0" y1="0" x2="0" y2="1"><stop offset="0%" stop-color="#fef3c7"/><stop offset="100%" stop-color="#fde68a"/></linearGradient>
<linearGradient id="waterGrad" x1="0" y1="0" x2="0" y2="1"><stop offset="0%" stop-color="#bfdbfe"/><stop offset="100%" stop-color="#93c5fd"/></linearGradient>
<filter id="softGlow" x="-50%" y="-50%" width="200%" height="200%"><feGaussianBlur in="SourceGraphic" stdDeviation="12"/></filter>
</defs>
<rect width="1200" height="300" fill="url(#skyGrad)"/>
<circle cx="911.8" cy="42.1" r="45" fill="#fef08a" opacity="0.12" filter="url(#softGlow)"/>
<circle cx="911.8" cy="42.1" r="30" fill="#fde68a" opacity="0.18" filter="url(#softGlow)"/>
<circle cx="911.8" cy="42.1" r="16" fill="#fef9c3" opacity="0.25" filter="url(#softGlow)"/>
<path d="M0 300 L0.0 183.0 C161.3 183.0, 161.3 187.3, 322.7 187.3 C605.4 187.3, 605.4 173.9, 888.2 173.9 C1044.1 173.9, 1044.1 204.7, 1200.0 204.7 L1200 300 Z" fill="url(#hillFar)" opacity="0.5"/>
<path d="M0 300 L0.0 205.7 C186.3 205.7, 186.3 212.3, 372.7 212.3 C574.3 212.3, 574.3 202.5, 776.0 202.5 C988.0 202.5, 988.0 217.9, 1200.0 217.9 L1200 300 Z" fill="url(#hillMid)" opacity="0.7"/>
<path d="M0 300 L0.0 227.1 C205.8 227.1, 205.8 235.1, 411.5 235.1 C653.0 235.1, 653.0 234.5, 894.4 234.5 C1047.2 234.5, 1047.2 237.4, 1200.0 237.4 L1200 300 Z" fill="url(#hillNear)" opacity="1"/>
<rect x="168.6" y="211.5" width="63.9" height="88.5" rx="3" fill="url(#bldg_sky)" opacity="0.7"/>
<rect x="181.4" y="200.8" width="38.4" height="10.6" rx="2" fill="url(#roof_tealRoof)" opacity="0.7"/>
<rect x="183.5" y="221.5" width="6" height="8" rx="1" fill="url(#windowGlow)" opacity="0.8951671801950629"/>
<rect x="197.5" y="221.5" width="6" height="8" rx="1" fill="url(#windowGlow)" opacity="0.7460078729996494"/>
<rect x="211.5" y="221.5" width="6" height="8" rx="1" fill="url(#windowGlow)" opacity="0.8709448663848195"/>
<rect x="183.5" y="236.5" width="6" height="8" rx="1" fill="url(#windowGlow)" opacity="0.9049280290980488"/>
<rect x="197.5" y="236.5" width="6" height="8" rx="1" fill="url(#windowGlow)" opacity="0.8719229523427425"/>
<rect x="211.5" y="236.5" width="6" height="8" rx="1" fill="url(#windowGlow)" opacity="0.8628433074163474"/>
<rect x="183.5" y="251.5" width="6" height="8" rx="1" fill="url(#windowGlow)" opacity="0.7690099367727571"/>
<rect x="197.5" y="251.5" width="6" height="8" rx="1" fill="url(#windowGlow)" opacity="0.7652528897697352"/>
<rect x="211.5" y="251.5" width="6" height="8" rx="1" fill="url(#windowGlow)" opacity="0.9732960508080646"/>
<rect x="609.8" y="231.3" width="57.8" height="68.7" rx="3" fill="url(#bldg_coral)" opacity="0.7"/>
<rect x="609.8" y="228.3" width="57.8" height="3" rx="1" fill="url(#roof_navyRoof)" opacity="0.7"/>
<rect x="628.7" y="241.3" width="6" height="8" rx="1" fill="url(#windowGlow)" opacity="0.727354240709615"/>
<rect x="628.7" y="256.3" width="6" height="8" rx="1" fill="url(#windowGlow)" opacity="0.7035074737404973"/>
<rect x="642.7" y="256.3" width="6" height="8" rx="1" fill="url(#windowGlow)" opacity="0.8768846657485163"/>
<rect x="930.2" y="211.4" width="47.2" height="88.6" rx="3" fill="url(#bldg_teal)" opacity="0.7"/>
<polygon points="930.2,211.4 953.8,199.9 977.4,211.4" fill="url(#roof_coralRoof)" opacity="0.7"/>
<rect x="943.8" y="221.4" width="6" height="8" rx="1" fill="url(#windowGlow)" opacity="0.7146449418341019"/>
<rect x="957.8" y="221.4" width="6" height="8" rx="1" fill="url(#windowGlow)" opacity="0.8345366754729937"/>
<rect x="957.8" y="236.4" width="6" height="8" rx="1" fill="url(#windowGlow)" opacity="0.8016502365943278"/>
<rect x="943.8" y="251.4" width="6" height="8" rx="1" fill="url(#windowGlow)" opacity="0.831932526422633"/>
<rect x="209.1" y="183.2" width="53.2" height="116.8" rx="3" fill="url(#bldg_amber)" opacity="0.85"/>
<rect x="209.1" y="180.2" width="53.2" height="3" rx="1" fill="url(#roof_tealRoof)" opacity="0.85"/>
<rect x="225.7" y="193.2" width="6" height="8" rx="1" fill="url(#windowGlow)" opacity="0.8582633549153168"/>
<rect x="239.7" y="193.2" width="6" height="8" rx="1" fill="url(#windowGlow)" opacity="0.7251002650824842"/>
<rect x="225.7" y="208.2" width="6" height="8" rx="1" fill="url(#windowGlow)" opacity="0.8261919520451649"/>
<rect x="225.7" y="223.2" width="6" height="8" rx="1" fill="url(#windowGlow)" opacity="0.7856534899145613"/>
<rect x="239.7" y="223.2" width="6" height="8" rx="1" fill="url(#windowGlow)" opacity="0.7498381107811993"/>
<rect x="239.7" y="238.2" width="6" height="8" rx="1" fill="url(#windowGlow)" opacity="0.8175879586104247"/>
<rect x="225.7" y="253.2" width="6" height="8" rx="1" fill="url(#windowGlow)" opacity="0.7932241848172732"/>
<path d="M235.7 224.1 L257.0 224.1 L254.0 230.1 L238.7 230.1 Z" fill="url(#roof_coralRoof)" opacity="0.68"/>
<rect x="597.4" y="226.0" width="48.2" height="74.0" rx="3" fill="url(#bldg_lavender)" opacity="0.85"/>
<rect x="607.0" y="217.1" width="28.9" height="8.9" rx="2" fill="url(#roof_navyRoof)" opacity="0.85"/>
<rect x="611.5" y="236.0" width="6" height="8" rx="1" fill="url(#windowGlow)" opacity="0.8012098863260866"/>
<rect x="611.5" y="251.0" width="6" height="8" rx="1" fill="url(#windowGlow)" opacity="0.9216886603840108"/>
<rect x="625.5" y="251.0" width="6" height="8" rx="1" fill="url(#windowGlow)" opacity="0.7545684389558474"/>
<path d="M602.2 251.9 L621.5 251.9 L618.5 257.9 L605.2 257.9 Z" fill="url(#roof_tealRoof)" opacity="0.68"/>
<rect x="944.9" y="187.7" width="52.7" height="112.3" rx="3" fill="url(#bldg_blue)" opacity="0.85"/>
<rect x="944.9" y="184.7" width="52.7" height="3" rx="1" fill="url(#roof_coralRoof)" opacity="0.85"/>
<rect x="961.2" y="197.7" width="6" height="8" rx="1" fill="url(#windowGlow)" opacity="0.9648265286650631"/>
<rect x="975.2" y="197.7" width="6" height="8" rx="1" fill="url(#windowGlow)" opacity="0.8673213401657163"/>
<rect x="961.2" y="212.7" width="6" height="8" rx="1" fill="url(#windowGlow)" opacity="0.9653495398654367"/>
<rect x="975.2" y="212.7" width="6" height="8" rx="1" fill="url(#windowGlow)" opacity="0.9862676747544983"/>
<rect x="961.2" y="227.7" width="6" height="8" rx="1" fill="url(#windowGlow)" opacity="0.720354912625791"/>
<rect x="961.2" y="242.7" width="6" height="8" rx="1" fill="url(#windowGlow)" opacity="0.8249387875315448"/>
<rect x="975.2" y="242.7" width="6" height="8" rx="1" fill="url(#windowGlow)" opacity="0.8461969024716862"/>
<rect x="961.2" y="257.7" width="6" height="8" rx="1" fill="url(#windowGlow)" opacity="0.7084274908101313"/>
<rect x="975.2" y="257.7" width="6" height="8" rx="1" fill="url(#windowGlow)" opacity="0.9744044421121498"/>
<path d="M971.2 227.0 L992.3 227.0 L989.3 233.0 L974.2 233.0 Z" fill="url(#roof_navyRoof)" opacity="0.68"/>
<rect x="231.0" y="164.6" width="54.0" height="135.4" rx="3" fill="url(#bldg_mint)" opacity="1"/>
<polygon points="231.0,164.6 258.0,147.5 285.0,164.6" fill="url(#roof_tealRoof)" opacity="1"/>
<rect x="248.0" y="174.6" width="6" height="8" rx="1" fill="url(#windowGlow)" opacity="0.7762002171837725"/>
<rect x="248.0" y="189.6" width="6" height="8" rx="1" fill="url(#windowGlow)" opacity="0.7207299706622632"/>
<rect x="262.0" y="189.6" width="6" height="8" rx="1" fill="url(#windowGlow)" opacity="0.7189361050813161"/>
<rect x="248.0" y="204.6" width="6" height="8" rx="1" fill="url(#windowGlow)" opacity="0.9340823199758689"/>
<rect x="262.0" y="204.6" width="6" height="8" rx="1" fill="url(#windowGlow)" opacity="0.7633907227140808"/>
<rect x="248.0" y="219.6" width="6" height="8" rx="1" fill="url(#windowGlow)" opacity="0.9031018519788523"/>
<rect x="248.0" y="234.6" width="6" height="8" rx="1" fill="url(#windowGlow)" opacity="0.7870259265354955"/>
<rect x="262.0" y="234.6" width="6" height="8" rx="1" fill="url(#windowGlow)" opacity="0.7791376495636708"/>
<rect x="262.0" y="249.6" width="6" height="8" rx="1" fill="url(#windowGlow)" opacity="0.9932245186032841"/>
<rect x="253.0" y="284.0" width="10" height="16" rx="2" fill="url(#roof_navyRoof)" opacity="0.8"/>
<rect x="255.0" y="287.0" width="6" height="10" rx="1" fill="url(#windowGlow)" opacity="0.45"/>
<rect x="248.5" y="205.6" width="18.9" height="5" rx="1" fill="#15803d" opacity="0.7"/>
<circle cx="251.5" cy="204.6" r="2.5" fill="#a78bfa" opacity="0.85"/>
<circle cx="257.8" cy="204.6" r="2.5" fill="#f87171" opacity="0.85"/>
<circle cx="264.1" cy="204.6" r="2.5" fill="#a78bfa" opacity="0.85"/>
<rect x="554.1" y="161.8" width="43.6" height="138.2" rx="3" fill="url(#bldg_rose)" opacity="1"/>
<rect x="554.1" y="158.8" width="43.6" height="3" rx="1" fill="url(#roof_navyRoof)" opacity="1"/>
<rect x="572.9" y="171.8" width="6" height="8" rx="1" fill="url(#windowGlow)" opacity="0.8122178714779288"/>
<rect x="572.9" y="186.8" width="6" height="8" rx="1" fill="url(#windowGlow)" opacity="0.8341676476570626"/>
<rect x="572.9" y="201.8" width="6" height="8" rx="1" fill="url(#windowGlow)" opacity="0.8611069785715578"/>
<rect x="572.9" y="246.8" width="6" height="8" rx="1" fill="url(#windowGlow)" opacity="0.7196787736935908"/>
<rect x="570.9" y="284.0" width="10" height="16" rx="2" fill="url(#roof_navyRoof)" opacity="0.8"/>
<rect x="572.9" y="287.0" width="6" height="10" rx="1" fill="url(#windowGlow)" opacity="0.45"/>
<rect x="568.3" y="202.8" width="15.3" height="5" rx="1" fill="#15803d" opacity="0.7"/>
<circle cx="571.3" cy="201.8" r="2.5" fill="#f87171" opacity="0.85"/>
<circle cx="576.4" cy="201.8" r="2.5" fill="#f87171" opacity="0.85"/>
<circle cx="581.5" cy="201.8" r="2.5" fill="#f87171" opacity="0.85"/>
<rect x="935.6" y="242.8" width="72.4" height="57.2" rx="3" fill="url(#bldg_sky)" opacity="1"/>
<polygon points="935.6,242.8 971.8,222.6 1007.9,242.8" fill="url(#roof_coralRoof)" opacity="1"/>
<rect x="947.8" y="252.8" width="6" height="8" rx="1" fill="url(#windowGlow)" opacity="0.7803886438628606"/>
<rect x="975.8" y="252.8" width="6" height="8" rx="1" fill="url(#windowGlow)" opacity="0.8724573801143362"/>
<rect x="989.8" y="252.8" width="6" height="8" rx="1" fill="url(#windowGlow)" opacity="0.7320699011124996"/>
<rect x="966.8" y="284.0" width="10" height="16" rx="2" fill="url(#roof_navyRoof)" opacity="0.8"/>
<rect x="968.8" y="287.0" width="6" height="10" rx="1" fill="url(#windowGlow)" opacity="0.45"/>
<path d="M942.8 262.8 L971.8 262.8 L968.8 268.8 L945.8 268.8 Z" fill="url(#roof_navyRoof)" opacity="0.8"/>
<path d="M419.5 285.0 Q437.8 260.5 430.5 235.9" stroke="#92400e" stroke-width="4" fill="none" stroke-linecap="round"/>
<path d="M430.5 235.9 Q417.3 224.4 408.5 223.8" stroke="#16a34a" stroke-width="2.5" fill="none" stroke-linecap="round"/>
<path d="M430.5 235.9 Q436.1 224.3 439.8 223.5" stroke="#22c55e" stroke-width="2.5" fill="none" stroke-linecap="round"/>
<path d="M430.5 235.9 Q447.9 229.9 459.5 235.9" stroke="#15803d" stroke-width="2.5" fill="none" stroke-linecap="round"/>
<path d="M430.5 235.9 Q437.4 236.9 442.0 251.2" stroke="#4ade80" stroke-width="2.5" fill="none" stroke-linecap="round"/>
<path d="M430.5 235.9 Q418.9 234.7 411.2 246.5" stroke="#16a34a" stroke-width="2.5" fill="none" stroke-linecap="round"/>
<path d="M766.6 285.0 Q785.9 257.4 778.2 229.8" stroke="#92400e" stroke-width="4" fill="none" stroke-linecap="round"/>
<path d="M778.2 229.8 Q764.1 217.9 754.6 216.8" stroke="#16a34a" stroke-width="2.5" fill="none" stroke-linecap="round"/>
<path d="M778.2 229.8 Q784.8 217.2 789.1 215.3" stroke="#22c55e" stroke-width="2.5" fill="none" stroke-linecap="round"/>
<path d="M778.2 229.8 Q798.2 223.8 811.5 229.8" stroke="#15803d" stroke-width="2.5" fill="none" stroke-linecap="round"/>
<path d="M778.2 229.8 Q783.8 229.4 787.5 242.2" stroke="#4ade80" stroke-width="2.5" fill="none" stroke-linecap="round"/>
<path d="M778.2 229.8 Q766.2 228.8 758.2 240.8" stroke="#16a34a" stroke-width="2.5" fill="none" stroke-linecap="round"/>
<path d="M193.6 285.0 Q219.8 263.5 209.3 241.9" stroke="#92400e" stroke-width="4" fill="none" stroke-linecap="round"/>
<path d="M209.3 241.9 Q199.0 231.6 192.2 232.5" stroke="#16a34a" stroke-width="2.5" fill="none" stroke-linecap="round"/>
<path d="M209.3 241.9 Q216.4 228.8 221.1 226.3" stroke="#22c55e" stroke-width="2.5" fill="none" stroke-linecap="round"/>
<path d="M209.3 241.9 Q226.5 235.9 238.0 241.9" stroke="#15803d" stroke-width="2.5" fill="none" stroke-linecap="round"/>
<path d="M209.3 241.9 Q216.5 243.1 221.2 257.7" stroke="#4ade80" stroke-width="2.5" fill="none" stroke-linecap="round"/>
<path d="M209.3 241.9 Q197.8 240.8 190.1 252.5" stroke="#16a34a" stroke-width="2.5" fill="none" stroke-linecap="round"/>
<path d="M1037.0 285.0 Q1050.0 258.9 1044.8 232.7" stroke="#92400e" stroke-width="4" fill="none" stroke-linecap="round"/>
<path d="M1044.8 232.7 Q1034.4 222.4 1027.5 223.2" stroke="#16a34a" stroke-width="2.5" fill="none" stroke-linecap="round"/>
<path d="M1044.8 232.7 Q1051.1 220.4 1055.2 218.9" stroke="#22c55e" stroke-width="2.5" fill="none" stroke-linecap="round"/>
<path d="M1044.8 232.7 Q1062.7 226.7 1074.6 232.7" stroke="#15803d" stroke-width="2.5" fill="none" stroke-linecap="round"/>
<path d="M1044.8 232.7 Q1049.8 231.8 1053.2 243.8" stroke="#4ade80" stroke-width="2.5" fill="none" stroke-linecap="round"/>
<path d="M1044.8 232.7 Q1032.1 232.0 1023.6 244.4" stroke="#16a34a" stroke-width="2.5" fill="none" stroke-linecap="round"/>
<path d="M899.2 285.0 Q916.1 258.1 909.3 231.3" stroke="#92400e" stroke-width="4" fill="none" stroke-linecap="round"/>
<path d="M909.3 231.3 Q898.1 220.6 890.6 221.0" stroke="#16a34a" stroke-width="2.5" fill="none" stroke-linecap="round"/>
<path d="M909.3 231.3 Q916.7 217.9 921.6 214.9" stroke="#22c55e" stroke-width="2.5" fill="none" stroke-linecap="round"/>
<path d="M909.3 231.3 Q927.8 225.3 940.2 231.3" stroke="#15803d" stroke-width="2.5" fill="none" stroke-linecap="round"/>
<path d="M909.3 231.3 Q914.1 230.1 917.3 241.9" stroke="#4ade80" stroke-width="2.5" fill="none" stroke-linecap="round"/>
<path d="M909.3 231.3 Q898.6 229.8 891.4 241.1" stroke="#16a34a" stroke-width="2.5" fill="none" stroke-linecap="round"/>
<rect x="0" y="282" width="1200" height="18" fill="url(#groundGrad)"/>
<line x1="656.0" y1="282.0" x2="656.0" y2="247.4" stroke="#92400e" stroke-width="2"/>
<circle cx="656.0" cy="247.4" r="4" fill="#fef08a" opacity="0.6"/>
<circle cx="656.0" cy="247.4" r="8" fill="#fef08a" opacity="0.15" filter="url(#softGlow)"/>
<line x1="1077.8" y1="282.0" x2="1077.8" y2="251.3" stroke="#92400e" stroke-width="2"/>
<circle cx="1077.8" cy="251.3" r="4" fill="#fef08a" opacity="0.6"/>
<circle cx="1077.8" cy="251.3" r="8" fill="#fef08a" opacity="0.15" filter="url(#softGlow)"/>
<ellipse cx="572.1" cy="282.0" rx="5.1" ry="3.6" fill="#22c55e" opacity="0.6"/>
<ellipse cx="663.8" cy="282.0" rx="4.9" ry="3.5" fill="#22c55e" opacity="0.6"/>
<ellipse cx="736.3" cy="282.0" rx="6.0" ry="4.2" fill="#22c55e" opacity="0.6"/>
</svg>