<svg xmlns="http://www.w3.org/2000/svg" viewBox="0 0 1200 300" width="1200" height="300">
<defs><linearGradient id="skyGrad" x1="0" y1="0" x2="0" y2="1"><stop offset="0%" stop-color="#e8f0f8"/><stop offset="100%" stop-color="#f5e6d8"/></linearGradient></defs><rect width="1200" height="300" fill="url(#skyGrad)"/>
<rect x="189.0" y="205.0" width="52.7" height="95.0" fill="#aeb0a5"/>
<rect x="198.2" y="188.3" width="34.2" height="16.8" fill="#a5a79d"/>
<rect x="557.9" y="177.3" width="45.7" height="122.7" fill="#aeb0a5"/>
<rect x="882.0" y="189.9" width="87.4" height="110.1" fill="#aeb0a5"/>
<rect x="127.6" y="188.7" width="51.4" height="111.3" fill="#898d7d"/>
<polygon points="127.6,188.7 153.3,175.8 178.9,188.7" fill="#7e8273"/>
<rect x="143.3" y="200.7" width="6" height="8" fill="#b2b5ab" opacity="0.5"/>
<rect x="157.3" y="216.7" width="6" height="8" fill="#b2b5ab" opacity="0.5"/>
<rect x="143.3" y="232.7" width="6" height="8" fill="#b2b5ab" opacity="0.5"/>
<rect x="157.3" y="232.7" width="6" height="8" fill="#b2b5ab" opacity="0.5"/>
<rect x="143.3" y="248.7" width="6" height="8" fill="#b2b5ab" opacity="0.5"/>
<rect x="157.3" y="248.7" width="6" height="8" fill="#b2b5ab" opacity="0.5"/>
<rect x="400.3" y="149.8" width="77.1" height="150.2" fill="#898d7d"/>
<rect x="421.8" y="161.8" width="6" height="8" fill="#b2b5ab" opacity="0.5"/>
<rect x="435.8" y="161.8" width="6" height="8" fill="#b2b5ab" opacity="0.5"/>
<rect x="421.8" y="177.8" width="6" height="8" fill="#b2b5ab" opacity="0.5"/>
<rect x="435.8" y="177.8" width="6" height="8" fill="#b2b5ab" opacity="0.5"/>
<rect x="449.8" y="177.8" width="6" height="8" fill="#b2b5ab" opacity="0.5"/>
<rect x="421.8" y="193.8" width="6" height="8" fill="#b2b5ab" opacity="0.5"/>
<rect x="435.8" y="193.8" width="6" height="8" fill="#b2b5ab" opacity="0.5"/>
<rect x="449.8" y="209.8" width="6" height="8" fill="#b2b5ab" opacity="0.5"/>
<rect x="421.8" y="225.8" width="6" height="8" fill="#b2b5ab" opacity="0.5"/>
<rect x="435.8" y="225.8" width="6" height="8" fill="#b2b5ab" opacity="0.5"/>
<rect x="449.8" y="225.8" width="6" height="8" fill="#b2b5ab" opacity="0.5"/>
<rect x="421.8" y="241.8" width="6" height="8" fill="#b2b5ab" opacity="0.5"/>
<rect x="435.8" y="241.8" width="6" height="8" fill="#b2b5ab" opacity="0.5"/>
<rect x="449.8" y="241.8" width="6" height="8" fill="#b2b5ab" opacity="0.5"/>
<rect x="688.2" y="136.7" width="60.1" height="163.3" fill="#898d7d"/>
<rect x="715.3" y="148.7" width="6" height="8" fill="#b2b5ab" opacity="0.5"/>
<rect x="701.3" y="164.7" width="6" height="8" fill="#b2b5ab" opacity="0.5"/>
<rect x="715.3" y="164.7" width="6" height="8" fill="#b2b5ab" opacity="0.5"/>
<rect x="729.3" y="164.7" width="6" height="8" fill="#b2b5ab" opacity="0.5"/>
<rect x="701.3" y="180.7" width="6" height="8" fill="#b2b5ab" opacity="0.5"/>
<rect x="701.3" y="196.7" width="6" height="8" fill="#b2b5ab" opacity="0.5"/>
<rect x="729.3" y="196.7" width="6" height="8" fill="#b2b5ab" opacity="0.5"/>
<rect x="701.3" y="212.7" width="6" height="8" fill="#b2b5ab" opacity="0.5"/>
<rect x="701.3" y="228.7" width="6" height="8" fill="#b2b5ab" opacity="0.5"/>
<rect x="729.3" y="228.7" width="6" height="8" fill="#b2b5ab" opacity="0.5"/>
<rect x="979.6" y="214.6" width="47.4" height="85.4" fill="#898d7d"/>
<rect x="987.9" y="199.6" width="30.8" height="15.1" fill="#828677"/>
<rect x="1007.3" y="211.6" width="6" height="8" fill="#b2b5ab" opacity="0.5"/>
<rect x="993.3" y="243.6" width="6" height="8" fill="#b2b5ab" opacity="0.5"/>
<rect x="993.3" y="259.6" width="6" height="8" fill="#b2b5ab" opacity="0.5"/>
<rect x="1007.3" y="259.6" width="6" height="8" fill="#b2b5ab" opacity="0.5"/>
<rect x="163.6" y="157.7" width="48.9" height="142.3" fill="#6b705c"/>
<rect x="178.1" y="169.7" width="6" height="8" fill="#9fa295" opacity="0.5"/>
<rect x="192.1" y="185.7" width="6" height="8" fill="#9fa295" opacity="0.5"/>
<rect x="192.1" y="201.7" width="6" height="8" fill="#9fa295" opacity="0.5"/>
<rect x="192.1" y="217.7" width="6" height="8" fill="#9fa295" opacity="0.5"/>
<rect x="178.1" y="249.7" width="6" height="8" fill="#9fa295" opacity="0.5"/>
<rect x="192.1" y="249.7" width="6" height="8" fill="#9fa295" opacity="0.5"/>
<rect x="625.8" y="224.7" width="42.8" height="75.3" fill="#6b705c"/>
<rect x="633.3" y="211.4" width="27.8" height="13.3" fill="#666a57"/>
<rect x="644.2" y="255.4" width="6" height="8" fill="#9fa295" opacity="0.5"/>
<rect x="644.2" y="271.4" width="6" height="8" fill="#9fa295" opacity="0.5"/>
<rect x="940.0" y="179.0" width="32.2" height="121.0" fill="#6b705c"/>
<rect x="945.7" y="157.6" width="21.0" height="21.4" fill="#666a57"/>
<rect x="953.2" y="169.6" width="6" height="8" fill="#9fa295" opacity="0.5"/>
<rect x="953.2" y="217.6" width="6" height="8" fill="#9fa295" opacity="0.5"/>
<rect x="953.2" y="233.6" width="6" height="8" fill="#9fa295" opacity="0.5"/>
<rect x="953.2" y="249.6" width="6" height="8" fill="#9fa295" opacity="0.5"/>
<path d="M419.2 285.0 Q440.0 255.3 433.7 225.7" fill="none" stroke="#79644a" stroke-width="3"/>
<path d="M433.7 225.7 Q421.7 216.3 413.8 217.0" fill="none" stroke="#47863c" stroke-width="2.5"/>
<path d="M433.7 225.7 Q439.3 212.2 442.9 208.7" fill="none" stroke="#47863c" stroke-width="2.5"/>
<path d="M433.7 225.7 Q450.9 220.7 462.3 225.7" fill="none" stroke="#47863c" stroke-width="2.5"/>
<path d="M433.7 225.7 Q437.7 226.8 440.3 237.9" fill="none" stroke="#47863c" stroke-width="2.5"/>
<path d="M433.7 225.7 Q419.4 225.9 409.9 236.1" fill="none" stroke="#47863c" stroke-width="2.5"/>
<path d="M804.3 285.0 Q820.3 256.9 815.5 228.8" fill="none" stroke="#8b7355" stroke-width="3"/>
<path d="M815.5 228.8 Q804.4 219.8 796.9 220.7" fill="none" stroke="#46843b" stroke-width="2.5"/>
<path d="M815.5 228.8 Q820.9 215.5 824.5 212.2" fill="none" stroke="#46843b" stroke-width="2.5"/>
<path d="M815.5 228.8 Q829.8 223.8 839.4 228.8" fill="none" stroke="#46843b" stroke-width="2.5"/>
<path d="M815.5 228.8 Q820.7 231.7 824.1 244.6" fill="none" stroke="#46843b" stroke-width="2.5"/>
<path d="M815.5 228.8 Q806.6 227.1 800.7 235.3" fill="none" stroke="#46843b" stroke-width="2.5"/>
<path d="M1049.0 285.0 Q1077.7 258.0 1069.1 230.9" fill="none" stroke="#7d684d" stroke-width="3"/>
<path d="M1069.1 230.9 Q1059.0 222.3 1052.2 223.6" fill="none" stroke="#48883d" stroke-width="2.5"/>
<path d="M1069.1 230.9 Q1074.2 218.2 1077.5 215.4" fill="none" stroke="#48883d" stroke-width="2.5"/>
<path d="M1069.1 230.9 Q1082.3 225.9 1091.0 230.9" fill="none" stroke="#48883d" stroke-width="2.5"/>
<path d="M1069.1 230.9 Q1073.0 232.0 1075.6 243.0" fill="none" stroke="#48883d" stroke-width="2.5"/>
<path d="M1069.1 230.9 Q1060.2 229.2 1054.3 237.4" fill="none" stroke="#48883d" stroke-width="2.5"/>
<path d="M869.8 285.0 Q885.8 258.9 881.0 232.8" fill="none" stroke="#766248" stroke-width="3"/>
<path d="M881.0 232.8 Q867.2 222.8 858.0 222.8" fill="none" stroke="#4a8b3f" stroke-width="2.5"/>
<path d="M881.0 232.8 Q886.1 220.0 889.5 217.2" fill="none" stroke="#4a8b3f" stroke-width="2.5"/>
<path d="M881.0 232.8 Q897.0 227.8 907.6 232.8" fill="none" stroke="#4a8b3f" stroke-width="2.5"/>
<path d="M881.0 232.8 Q884.8 233.7 887.4 244.5" fill="none" stroke="#4a8b3f" stroke-width="2.5"/>
<path d="M881.0 232.8 Q868.7 232.3 860.5 241.8" fill="none" stroke="#4a8b3f" stroke-width="2.5"/>
<rect x="0" y="285" width="1200" height="15" fill="#d4c5a9" opacity="0.4"/>
<circle cx="1065.2" cy="28.1" r="34.5" fill="#f5e6a0" opacity="0.1"/>
</svg>