<svg xmlns="http://www.w3.org/2000/svg" viewBox="0 0 1200 300" width="1200" height="300">
<rect width="1200" height="300" fill="#ede8e0"/>
<path d="M0 300 L0 210.0 C284.4 172.7, 840.9 181.9, 1200 210.0 L1200 300 Z" fill="#c4c6be" opacity="0.3"/>
<rect x="153.0" y="192.0" width="56.7" height="108.0" fill="#aeb0a5"/>
<rect x="559.6" y="175.0" width="50.8" height="125.0" fill="#aeb0a5"/>
<rect x="976.0" y="233.0" width="52.8" height="67.0" fill="#aeb0a5"/>
<rect x="117.9" y="198.2" width="42.1" height="101.8" fill="#898d7d"/>
<rect x="136.0" y="210.2" width="6" height="8" fill="#b2b5ab" opacity="0.5"/>
<rect x="136.0" y="226.2" width="6" height="8" fill="#b2b5ab" opacity="0.5"/>
<rect x="136.0" y="242.2" width="6" height="8" fill="#b2b5ab" opacity="0.5"/>
<rect x="136.0" y="258.2" width="6" height="8" fill="#b2b5ab" opacity="0.5"/>
<rect x="379.7" y="204.5" width="73.1" height="95.5" fill="#898d7d"/>
<rect x="392.3" y="216.5" width="6" height="8" fill="#b2b5ab" opacity="0.5"/>
<rect x="420.3" y="216.5" width="6" height="8" fill="#b2b5ab" opacity="0.5"/>
<rect x="434.3" y="216.5" width="6" height="8" fill="#b2b5ab" opacity="0.5"/>
<rect x="406.3" y="232.5" width="6" height="8" fill="#b2b5ab" opacity="0.5"/>
<rect x="420.3" y="232.5" width="6" height="8" fill="#b2b5ab" opacity="0.5"/>
<rect x="434.3" y="232.5" width="6" height="8" fill="#b2b5ab" opacity="0.5"/>
<rect x="420.3" y="248.5" width="6" height="8" fill="#b2b5ab" opacity="0.5"/>
<rect x="434.3" y="248.5" width="6" height="8" fill="#b2b5ab" opacity="0.5"/>
<rect x="392.3" y="264.5" width="6" height="8" fill="#b2b5ab" opacity="0.5"/>
<rect x="406.3" y="264.5" width="6" height="8" fill="#b2b5ab" opacity="0.5"/>
<rect x="420.3" y="264.5" width="6" height="8" fill="#b2b5ab" opacity="0.5"/>
<rect x="701.4" y="201.7" width="38.0" height="98.3" fill="#898d7d"/>
<rect x="717.4" y="213.7" width="6" height="8" fill="#b2b5ab" opacity="0.5"/>
<rect x="717.4" y="229.7" width="6" height="8" fill="#b2b5ab" opacity="0.5"/>
<rect x="717.4" y="245.7" width="6" height="8" fill="#b2b5ab" opacity="0.5"/>
<rect x="717.4" y="261.7" width="6" height="8" fill="#b2b5ab" opacity="0.5"/>
<rect x="986.6" y="142.8" width="53.1" height="157.2" fill="#898d7d"/>
<rect x="1017.2" y="154.8" width="6" height="8" fill="#b2b5ab" opacity="0.5"/>
<rect x="1003.2" y="170.8" width="6" height="8" fill="#b2b5ab" opacity="0.5"/>
<rect x="1017.2" y="170.8" width="6" height="8" fill="#b2b5ab" opacity="0.5"/>
<rect x="1003.2" y="186.8" width="6" height="8" fill="#b2b5ab" opacity="0.5"/>
<rect x="1003.2" y="202.8" width="6" height="8" fill="#b2b5ab" opacity="0.5"/>
<rect x="1003.2" y="218.8" width="6" height="8" fill="#b2b5ab" opacity="0.5"/>
<rect x="1017.2" y="218.8" width="6" height="8" fill="#b2b5ab" opacity="0.5"/>
<rect x="1003.2" y="234.8" width="6" height="8" fill="#b2b5ab" opacity="0.5"/>
<rect x="1017.2" y="234.8" width="6" height="8" fill="#b2b5ab" opacity="0.5"/>
<rect x="1003.2" y="266.8" width="6" height="8" fill="#b2b5ab" opacity="0.5"/>
<rect x="170.4" y="193.2" width="72.6" height="106.8" fill="#6b705c"/>
<rect x="182.7" y="205.2" width="6" height="8" fill="#9fa295" opacity="0.5"/>
<rect x="210.7" y="205.2" width="6" height="8" fill="#9fa295" opacity="0.5"/>
<rect x="224.7" y="205.2" width="6" height="8" fill="#9fa295" opacity="0.5"/>
<rect x="182.7" y="221.2" width="6" height="8" fill="#9fa295" opacity="0.5"/>
<rect x="210.7" y="221.2" width="6" height="8" fill="#9fa295" opacity="0.5"/>
<rect x="224.7" y="221.2" width="6" height="8" fill="#9fa295" opacity="0.5"/>
<rect x="182.7" y="237.2" width="6" height="8" fill="#9fa295" opacity="0.5"/>
<rect x="196.7" y="237.2" width="6" height="8" fill="#9fa295" opacity="0.5"/>
<rect x="210.7" y="237.2" width="6" height="8" fill="#9fa295" opacity="0.5"/>
<rect x="224.7" y="237.2" width="6" height="8" fill="#9fa295" opacity="0.5"/>
<rect x="196.7" y="253.2" width="6" height="8" fill="#9fa295" opacity="0.5"/>
<rect x="210.7" y="253.2" width="6" height="8" fill="#9fa295" opacity="0.5"/>
<rect x="182.7" y="269.2" width="6" height="8" fill="#9fa295" opacity="0.5"/>
<rect x="196.7" y="269.2" width="6" height="8" fill="#9fa295" opacity="0.5"/>
<rect x="224.7" y="269.2" width="6" height="8" fill="#9fa295" opacity="0.5"/>
<rect x="465.0" y="152.7" width="41.3" height="147.3" fill="#6b705c"/>
<rect x="482.7" y="164.7" width="6" height="8" fill="#9fa295" opacity="0.5"/>
<rect x="482.7" y="180.7" width="6" height="8" fill="#9fa295" opacity="0.5"/>
<rect x="482.7" y="196.7" width="6" height="8" fill="#9fa295" opacity="0.5"/>
<rect x="482.7" y="212.7" width="6" height="8" fill="#9fa295" opacity="0.5"/>
<rect x="482.7" y="228.7" width="6" height="8" fill="#9fa295" opacity="0.5"/>
<rect x="482.7" y="244.7" width="6" height="8" fill="#9fa295" opacity="0.5"/>
<rect x="482.7" y="260.7" width="6" height="8" fill="#9fa295" opacity="0.5"/>
<rect x="709.2" y="150.8" width="33.9" height="149.2" fill="#6b705c"/>
<rect x="723.1" y="162.8" width="6" height="8" fill="#9fa295" opacity="0.5"/>
<rect x="723.1" y="178.8" width="6" height="8" fill="#9fa295" opacity="0.5"/>
<rect x="723.1" y="194.8" width="6" height="8" fill="#9fa295" opacity="0.5"/>
<rect x="723.1" y="210.8" width="6" height="8" fill="#9fa295" opacity="0.5"/>
<rect x="723.1" y="226.8" width="6" height="8" fill="#9fa295" opacity="0.5"/>
<rect x="723.1" y="242.8" width="6" height="8" fill="#9fa295" opacity="0.5"/>
<rect x="723.1" y="258.8" width="6" height="8" fill="#9fa295" opacity="0.5"/>
<rect x="997.0" y="244.2" width="57.8" height="55.8" fill="#6b705c"/>
<rect x="0" y="298" width="1200" height="2" fill="#606553" opacity="0.15"/>
</svg>