<svg xmlns="http://www.w3.org/2000/svg" viewBox="0 0 1200 300" width="1200" height="300">
<defs><linearGradient id="skyGrad" x1="0" y1="0" x2="0" y2="1"><stop offset="0%" stop-color="#ddf0f0"/><stop offset="100%" stop-color="#f0e8d8"/></linearGradient></defs><rect width="1200" height="300" fill="url(#skyGrad)"/>
<rect x="178.2" y="224.2" width="68.9" height="75.8" fill="#aeb0a5"/>
<rect x="538.5" y="230.5" width="85.2" height="69.5" fill="#aeb0a5"/>
<rect x="909.6" y="228.9" width="76.3" height="71.1" fill="#aeb0a5"/>
<rect x="922.9" y="216.3" width="49.6" height="12.5" fill="#a5a79d"/>
<rect x="112.3" y="160.9" width="78.9" height="139.1" fill="#898d7d"/>
<polygon points="112.3,160.9 151.7,141.2 191.2,160.9" fill="#7e8273"/>
<rect x="134.7" y="172.9" width="6" height="8" fill="#b2b5ab" opacity="0.5"/>
<rect x="162.7" y="172.9" width="6" height="8" fill="#b2b5ab" opacity="0.5"/>
<rect x="134.7" y="188.9" width="6" height="8" fill="#b2b5ab" opacity="0.5"/>
<rect x="148.7" y="188.9" width="6" height="8" fill="#b2b5ab" opacity="0.5"/>
<rect x="134.7" y="204.9" width="6" height="8" fill="#b2b5ab" opacity="0.5"/>
<rect x="148.7" y="204.9" width="6" height="8" fill="#b2b5ab" opacity="0.5"/>
<rect x="148.7" y="220.9" width="6" height="8" fill="#b2b5ab" opacity="0.5"/>
<rect x="162.7" y="220.9" width="6" height="8" fill="#b2b5ab" opacity="0.5"/>
<rect x="162.7" y="236.9" width="6" height="8" fill="#b2b5ab" opacity="0.5"/>
<rect x="134.7" y="252.9" width="6" height="8" fill="#b2b5ab" opacity="0.5"/>
<rect x="148.7" y="252.9" width="6" height="8" fill="#b2b5ab" opacity="0.5"/>
<rect x="407.9" y="212.5" width="40.6" height="87.5" fill="#898d7d"/>
<rect x="425.2" y="240.5" width="6" height="8" fill="#b2b5ab" opacity="0.5"/>
<rect x="425.2" y="256.5" width="6" height="8" fill="#b2b5ab" opacity="0.5"/>
<rect x="425.2" y="272.5" width="6" height="8" fill="#b2b5ab" opacity="0.5"/>
<rect x="748.4" y="232.4" width="47.2" height="67.6" fill="#898d7d"/>
<rect x="756.7" y="220.4" width="30.7" height="11.9" fill="#828677"/>
<rect x="762.0" y="248.4" width="6" height="8" fill="#b2b5ab" opacity="0.5"/>
<rect x="776.0" y="248.4" width="6" height="8" fill="#b2b5ab" opacity="0.5"/>
<rect x="762.0" y="264.4" width="6" height="8" fill="#b2b5ab" opacity="0.5"/>
<rect x="968.5" y="215.7" width="44.0" height="84.3" fill="#898d7d"/>
<rect x="976.2" y="200.8" width="28.6" height="14.9" fill="#828677"/>
<rect x="987.5" y="228.8" width="6" height="8" fill="#b2b5ab" opacity="0.5"/>
<rect x="987.5" y="244.8" width="6" height="8" fill="#b2b5ab" opacity="0.5"/>
<rect x="987.5" y="260.8" width="6" height="8" fill="#b2b5ab" opacity="0.5"/>
<rect x="143.9" y="202.7" width="40.4" height="97.3" fill="#6b705c"/>
<rect x="161.1" y="246.7" width="6" height="8" fill="#9fa295" opacity="0.5"/>
<rect x="460.5" y="146.7" width="70.6" height="153.3" fill="#6b705c"/>
<rect x="472.8" y="119.6" width="45.9" height="27.1" fill="#666a57"/>
<rect x="506.8" y="131.6" width="6" height="8" fill="#9fa295" opacity="0.5"/>
<rect x="478.8" y="147.6" width="6" height="8" fill="#9fa295" opacity="0.5"/>
<rect x="506.8" y="147.6" width="6" height="8" fill="#9fa295" opacity="0.5"/>
<rect x="478.8" y="163.6" width="6" height="8" fill="#9fa295" opacity="0.5"/>
<rect x="492.8" y="163.6" width="6" height="8" fill="#9fa295" opacity="0.5"/>
<rect x="478.8" y="179.6" width="6" height="8" fill="#9fa295" opacity="0.5"/>
<rect x="492.8" y="179.6" width="6" height="8" fill="#9fa295" opacity="0.5"/>
<rect x="478.8" y="211.6" width="6" height="8" fill="#9fa295" opacity="0.5"/>
<rect x="492.8" y="211.6" width="6" height="8" fill="#9fa295" opacity="0.5"/>
<rect x="697.4" y="155.4" width="47.9" height="144.6" fill="#6b705c"/>
<rect x="705.7" y="129.9" width="31.1" height="25.5" fill="#666a57"/>
<rect x="711.3" y="141.9" width="6" height="8" fill="#9fa295" opacity="0.5"/>
<rect x="711.3" y="157.9" width="6" height="8" fill="#9fa295" opacity="0.5"/>
<rect x="725.3" y="157.9" width="6" height="8" fill="#9fa295" opacity="0.5"/>
<rect x="711.3" y="173.9" width="6" height="8" fill="#9fa295" opacity="0.5"/>
<rect x="725.3" y="173.9" width="6" height="8" fill="#9fa295" opacity="0.5"/>
<rect x="711.3" y="189.9" width="6" height="8" fill="#9fa295" opacity="0.5"/>
<rect x="725.3" y="189.9" width="6" height="8" fill="#9fa295" opacity="0.5"/>
<rect x="711.3" y="205.9" width="6" height="8" fill="#9fa295" opacity="0.5"/>
<rect x="725.3" y="205.9" width="6" height="8" fill="#9fa295" opacity="0.5"/>
<rect x="711.3" y="221.9" width="6" height="8" fill="#9fa295" opacity="0.5"/>
<rect x="725.3" y="221.9" width="6" height="8" fill="#9fa295" opacity="0.5"/>
<rect x="962.0" y="206.2" width="60.3" height="93.8" fill="#6b705c"/>
<rect x="975.1" y="218.2" width="6" height="8" fill="#9fa295" opacity="0.5"/>
<rect x="1003.1" y="218.2" width="6" height="8" fill="#9fa295" opacity="0.5"/>
<rect x="975.1" y="234.2" width="6" height="8" fill="#9fa295" opacity="0.5"/>
<rect x="989.1" y="234.2" width="6" height="8" fill="#9fa295" opacity="0.5"/>
<rect x="1003.1" y="234.2" width="6" height="8" fill="#9fa295" opacity="0.5"/>
<rect x="975.1" y="250.2" width="6" height="8" fill="#9fa295" opacity="0.5"/>
<rect x="989.1" y="250.2" width="6" height="8" fill="#9fa295" opacity="0.5"/>
<rect x="989.1" y="266.2" width="6" height="8" fill="#9fa295" opacity="0.5"/>
<path d="M322.4 285.0 Q347.6 258.2 340.0 231.3" fill="none" stroke="#7c674c" stroke-width="3"/>
<path d="M340.0 231.3 Q325.7 221.1 316.2 220.9" fill="none" stroke="#45823a" stroke-width="2.5"/>
<path d="M340.0 231.3 Q343.7 220.6 346.2 219.9" fill="none" stroke="#45823a" stroke-width="2.5"/>
<path d="M340.0 231.3 Q354.8 226.3 364.6 231.3" fill="none" stroke="#45823a" stroke-width="2.5"/>
<path d="M340.0 231.3 Q344.0 232.5 346.7 243.6" fill="none" stroke="#45823a" stroke-width="2.5"/>
<path d="M340.0 231.3 Q328.5 230.5 320.8 239.7" fill="none" stroke="#45823a" stroke-width="2.5"/>
<path d="M614.2 285.0 Q640.2 263.8 632.4 242.7" fill="none" stroke="#826c50" stroke-width="3"/>
<path d="M632.4 242.7 Q618.3 232.6 608.9 232.5" fill="none" stroke="#47873d" stroke-width="2.5"/>
<path d="M632.4 242.7 Q636.1 232.1 638.5 231.5" fill="none" stroke="#47873d" stroke-width="2.5"/>
<path d="M632.4 242.7 Q649.9 237.7 661.6 242.7" fill="none" stroke="#47873d" stroke-width="2.5"/>
<path d="M632.4 242.7 Q636.3 243.7 638.9 254.8" fill="none" stroke="#47873d" stroke-width="2.5"/>
<path d="M632.4 242.7 Q623.6 240.9 617.7 249.1" fill="none" stroke="#47873d" stroke-width="2.5"/>
<path d="M853.6 285.0 Q871.7 255.3 866.3 225.5" fill="none" stroke="#7d674c" stroke-width="3"/>
<path d="M866.3 225.5 Q855.1 216.5 847.7 217.5" fill="none" stroke="#498a3e" stroke-width="2.5"/>
<path d="M866.3 225.5 Q870.8 213.5 873.9 211.4" fill="none" stroke="#498a3e" stroke-width="2.5"/>
<path d="M866.3 225.5 Q877.3 220.5 884.6 225.5" fill="none" stroke="#498a3e" stroke-width="2.5"/>
<path d="M866.3 225.5 Q870.1 226.4 872.6 237.3" fill="none" stroke="#498a3e" stroke-width="2.5"/>
<path d="M866.3 225.5 Q857.3 223.8 851.3 232.1" fill="none" stroke="#498a3e" stroke-width="2.5"/>
<path d="M159.1 285.0 Q177.2 258.4 171.7 231.8" fill="none" stroke="#8a7254" stroke-width="3"/>
<path d="M171.7 231.8 Q162.7 223.5 156.6 225.2" fill="none" stroke="#49893e" stroke-width="2.5"/>
<path d="M171.7 231.8 Q177.0 218.7 180.5 215.6" fill="none" stroke="#49893e" stroke-width="2.5"/>
<path d="M171.7 231.8 Q186.1 226.8 195.6 231.8" fill="none" stroke="#49893e" stroke-width="2.5"/>
<path d="M171.7 231.8 Q177.0 234.9 180.6 248.1" fill="none" stroke="#49893e" stroke-width="2.5"/>
<path d="M171.7 231.8 Q160.8 230.8 153.5 239.8" fill="none" stroke="#49893e" stroke-width="2.5"/>
<path d="M682.7 285.0 Q703.6 264.8 697.3 244.6" fill="none" stroke="#806a4e" stroke-width="3"/>
<path d="M697.3 244.6 Q686.5 235.7 679.3 236.7" fill="none" stroke="#49893e" stroke-width="2.5"/>
<path d="M697.3 244.6 Q701.7 232.8 704.6 231.1" fill="none" stroke="#49893e" stroke-width="2.5"/>
<path d="M697.3 244.6 Q708.3 239.6 715.6 244.6" fill="none" stroke="#49893e" stroke-width="2.5"/>
<path d="M697.3 244.6 Q700.8 244.9 703.1 255.2" fill="none" stroke="#49893e" stroke-width="2.5"/>
<path d="M697.3 244.6 Q687.3 243.2 680.6 251.9" fill="none" stroke="#49893e" stroke-width="2.5"/>
<path d="M241.6 285.0 Q262.0 257.9 255.9 230.8" fill="none" stroke="#7a654b" stroke-width="3"/>
<path d="M255.9 230.8 Q242.7 221.0 233.9 221.2" fill="none" stroke="#45823a" stroke-width="2.5"/>
<path d="M255.9 230.8 Q260.3 219.1 263.2 217.3" fill="none" stroke="#45823a" stroke-width="2.5"/>
<path d="M255.9 230.8 Q271.6 225.8 282.1 230.8" fill="none" stroke="#45823a" stroke-width="2.5"/>
<path d="M255.9 230.8 Q261.0 233.7 264.4 246.5" fill="none" stroke="#45823a" stroke-width="2.5"/>
<path d="M255.9 230.8 Q246.6 229.2 240.4 237.6" fill="none" stroke="#45823a" stroke-width="2.5"/>
<path d="M797.9 285.0 Q814.7 259.5 809.6 234.1" fill="none" stroke="#806a4e" stroke-width="3"/>
<path d="M809.6 234.1 Q800.0 225.5 793.5 227.0" fill="none" stroke="#498b3e" stroke-width="2.5"/>
<path d="M809.6 234.1 Q815.1 220.6 818.8 217.1" fill="none" stroke="#498b3e" stroke-width="2.5"/>
<path d="M809.6 234.1 Q821.2 229.1 828.9 234.1" fill="none" stroke="#498b3e" stroke-width="2.5"/>
<path d="M809.6 234.1 Q815.0 237.4 818.6 250.7" fill="none" stroke="#498b3e" stroke-width="2.5"/>
<path d="M809.6 234.1 Q796.3 233.9 787.4 243.8" fill="none" stroke="#498b3e" stroke-width="2.5"/>
<rect x="0" y="285" width="1200" height="15" fill="#d4c5a9" opacity="0.4"/>
<circle cx="994.9" cy="47.5" r="34.2" fill="#f5e6a0" opacity="0.1"/>
</svg>