<svg xmlns="http://www.w3.org/2000/svg" viewBox="0 0 1200 400" width="1200" height="400">
<defs>
<linearGradient id="bg" x1="0" y1="0" x2="0" y2="1"><stop offset="0%" stop-color="#94a3b8"/><stop offset="100%" stop-color="#0369a1"/></linearGradient>
<linearGradient id="warm" x1="0" y1="0" x2="1" y2="1"><stop offset="0%" stop-color="#858d98" stop-opacity="0.18"/><stop offset="100%" stop-color="#858d98" stop-opacity="0.06"/></linearGradient>
</defs>
<rect width="1200" height="400" fill="url(#bg)"/>
<path d="M0 400 L0 247.89414560867684 C60.0 244.8, 90.0 255.9, 150.0 252.2 C210.0 254.7, 240.0 232.0, 300.0 226.2 C360.0 230.6, 390.0 245.4, 450.0 246.1 C510.0 254.5, 540.0 233.0, 600.0 227.4 C660.0 225.2, 690.0 235.5, 750.0 228.1 C810.0 234.8, 840.0 242.0, 900.0 247.9 C960.0 257.2, 990.0 237.5, 1050.0 234.8 C1110.0 229.7, 1140.0 238.7, 1200.0 232.1 L1200 400 Z" fill="#367da9" opacity="0.45"/>
<path d="M0 400 L0 266.03770812168165 C52.5 264.9, 97.5 270.0, 150.0 268.2 C202.5 273.0, 247.5 260.1, 300.0 260.2 C352.5 261.9, 397.5 270.3, 450.0 274.8 C502.5 277.3, 547.5 272.6, 600.0 269.8 C652.5 263.9, 697.5 270.2, 750.0 270.7 C802.5 274.3, 847.5 271.9, 900.0 270.1 C952.5 269.5, 997.5 268.7, 1050.0 267.4 C1102.5 273.3, 1147.5 273.0, 1200.0 268.2 L1200 400 Z" fill="#0369a1" opacity="0.3"/>
<rect x="883.4" y="369.0" width="16.7" height="31.0" rx="6.2" fill="#047b8a" opacity="0.78"/>
<rect x="776.5" y="338.5" width="33.0" height="61.5" rx="7.1" fill="#05946c" opacity="0.68"/>
<rect x="603.2" y="314.1" width="39.4" height="85.9" rx="7.1" fill="#047d88" opacity="0.50"/>
<rect x="541.1" y="349.9" width="24.6" height="50.1" rx="4.5" fill="#058e73" opacity="0.62"/>
<rect x="661.8" y="339.5" width="34.0" height="60.5" rx="5.7" fill="#047c89" opacity="0.73"/>
<rect x="204.8" y="320.7" width="40.8" height="79.3" rx="6.6" fill="#058f71" opacity="0.50"/>
<rect x="704.6" y="267.8" width="12.6" height="132.2" rx="5.8" fill="#05956b" opacity="0.66"/>
<rect x="709.6" y="277.8" width="4" height="5" rx="0.5" fill="#94a3b8" opacity="0.6"/>
<rect x="709.6" y="343.8" width="4" height="5" rx="0.5" fill="#94a3b8" opacity="0.6"/>
<rect x="420.8" y="266.9" width="25.8" height="133.1" rx="5.0" fill="#04897a" opacity="0.68"/>
<rect x="425.8" y="276.9" width="4" height="5" rx="0.5" fill="#94a3b8" opacity="0.6"/>
<rect x="136.2" y="278.7" width="39.6" height="121.3" rx="7.4" fill="#047f85" opacity="0.53"/>
<rect x="434.2" y="294.3" width="44.2" height="105.7" rx="6.4" fill="#05916f" opacity="0.57"/>
<rect x="439.2" y="304.3" width="4" height="5" rx="0.5" fill="#94a3b8" opacity="0.6"/>
<rect x="439.2" y="326.3" width="4" height="5" rx="0.5" fill="#94a3b8" opacity="0.6"/>
<rect x="453.9" y="326.3" width="4" height="5" rx="0.5" fill="#94a3b8" opacity="0.6"/>
<rect x="453.9" y="348.3" width="4" height="5" rx="0.5" fill="#94a3b8" opacity="0.6"/>
<rect x="439.2" y="370.3" width="4" height="5" rx="0.5" fill="#94a3b8" opacity="0.6"/>
<rect x="892.3" y="273.5" width="45.6" height="126.5" rx="6.9" fill="#04877c" opacity="0.50"/>
<rect x="424.0" y="363.1" width="25.1" height="36.9" rx="6.5" fill="#047b8a" opacity="0.65"/>
<rect x="955.4" y="308.8" width="44.3" height="91.2" rx="7.6" fill="#05936d" opacity="0.63"/>
<rect x="975.2" y="318.8" width="4" height="5" rx="0.5" fill="#94a3b8" opacity="0.6"/>
<rect x="960.4" y="340.8" width="4" height="5" rx="0.5" fill="#94a3b8" opacity="0.6"/>
<rect x="975.2" y="340.8" width="4" height="5" rx="0.5" fill="#94a3b8" opacity="0.6"/>
<rect x="960.4" y="362.8" width="4" height="5" rx="0.5" fill="#94a3b8" opacity="0.6"/>
<circle cx="1191.5" cy="4.9" r="5.3" fill="#94a3b8" opacity="0.28"/>
<circle cx="46.5" cy="36.5" r="3.2" fill="#94a3b8" opacity="0.17"/>
<rect width="1200" height="400" fill="url(#warm)"/>
<rect width="1200" height="400" fill="#94a3b8" opacity="0.40"/>
</svg>