<svg xmlns="http://www.w3.org/2000/svg" viewBox="0 0 1200 300" width="1200" height="300">
<rect width="1200" height="300" fill="#e0eff2"/>
<path d="M0 300 L0 210.0 C212.2 164.9, 941.8 196.7, 1200 210.0 L1200 300 Z" fill="#aac2c9" opacity="0.3"/>
<rect x="166.9" y="216.5" width="49.2" height="83.5" fill="#8aabb4"/>
<rect x="416.9" y="194.6" width="54.7" height="105.4" fill="#8aabb4"/>
<rect x="731.5" y="192.6" width="71.3" height="107.4" fill="#8aabb4"/>
<rect x="1031.5" y="188.3" width="63.2" height="111.7" fill="#8aabb4"/>
<rect x="143.1" y="148.6" width="52.6" height="151.4" fill="#558592"/>
<rect x="159.4" y="160.6" width="6" height="8" fill="#91b0b8" opacity="0.5"/>
<rect x="173.4" y="160.6" width="6" height="8" fill="#91b0b8" opacity="0.5"/>
<rect x="159.4" y="176.6" width="6" height="8" fill="#91b0b8" opacity="0.5"/>
<rect x="173.4" y="192.6" width="6" height="8" fill="#91b0b8" opacity="0.5"/>
<rect x="159.4" y="208.6" width="6" height="8" fill="#91b0b8" opacity="0.5"/>
<rect x="173.4" y="208.6" width="6" height="8" fill="#91b0b8" opacity="0.5"/>
<rect x="159.4" y="224.6" width="6" height="8" fill="#91b0b8" opacity="0.5"/>
<rect x="173.4" y="224.6" width="6" height="8" fill="#91b0b8" opacity="0.5"/>
<rect x="159.4" y="240.6" width="6" height="8" fill="#91b0b8" opacity="0.5"/>
<rect x="173.4" y="240.6" width="6" height="8" fill="#91b0b8" opacity="0.5"/>
<rect x="159.4" y="256.6" width="6" height="8" fill="#91b0b8" opacity="0.5"/>
<rect x="159.4" y="272.6" width="6" height="8" fill="#91b0b8" opacity="0.5"/>
<rect x="173.4" y="272.6" width="6" height="8" fill="#91b0b8" opacity="0.5"/>
<rect x="381.7" y="166.4" width="44.3" height="133.6" fill="#558592"/>
<rect x="393.8" y="178.4" width="6" height="8" fill="#91b0b8" opacity="0.5"/>
<rect x="407.8" y="178.4" width="6" height="8" fill="#91b0b8" opacity="0.5"/>
<rect x="393.8" y="194.4" width="6" height="8" fill="#91b0b8" opacity="0.5"/>
<rect x="407.8" y="194.4" width="6" height="8" fill="#91b0b8" opacity="0.5"/>
<rect x="393.8" y="226.4" width="6" height="8" fill="#91b0b8" opacity="0.5"/>
<rect x="393.8" y="242.4" width="6" height="8" fill="#91b0b8" opacity="0.5"/>
<rect x="407.8" y="242.4" width="6" height="8" fill="#91b0b8" opacity="0.5"/>
<rect x="393.8" y="258.4" width="6" height="8" fill="#91b0b8" opacity="0.5"/>
<rect x="407.8" y="258.4" width="6" height="8" fill="#91b0b8" opacity="0.5"/>
<rect x="599.5" y="194.3" width="46.1" height="105.7" fill="#558592"/>
<rect x="612.5" y="206.3" width="6" height="8" fill="#91b0b8" opacity="0.5"/>
<rect x="626.5" y="206.3" width="6" height="8" fill="#91b0b8" opacity="0.5"/>
<rect x="612.5" y="222.3" width="6" height="8" fill="#91b0b8" opacity="0.5"/>
<rect x="626.5" y="222.3" width="6" height="8" fill="#91b0b8" opacity="0.5"/>
<rect x="612.5" y="238.3" width="6" height="8" fill="#91b0b8" opacity="0.5"/>
<rect x="626.5" y="238.3" width="6" height="8" fill="#91b0b8" opacity="0.5"/>
<rect x="612.5" y="254.3" width="6" height="8" fill="#91b0b8" opacity="0.5"/>
<rect x="626.5" y="254.3" width="6" height="8" fill="#91b0b8" opacity="0.5"/>
<rect x="626.5" y="270.3" width="6" height="8" fill="#91b0b8" opacity="0.5"/>
<rect x="774.4" y="160.4" width="54.8" height="139.6" fill="#558592"/>
<rect x="791.8" y="172.4" width="6" height="8" fill="#91b0b8" opacity="0.5"/>
<rect x="805.8" y="188.4" width="6" height="8" fill="#91b0b8" opacity="0.5"/>
<rect x="791.8" y="204.4" width="6" height="8" fill="#91b0b8" opacity="0.5"/>
<rect x="805.8" y="204.4" width="6" height="8" fill="#91b0b8" opacity="0.5"/>
<rect x="805.8" y="220.4" width="6" height="8" fill="#91b0b8" opacity="0.5"/>
<rect x="791.8" y="236.4" width="6" height="8" fill="#91b0b8" opacity="0.5"/>
<rect x="805.8" y="236.4" width="6" height="8" fill="#91b0b8" opacity="0.5"/>
<rect x="791.8" y="268.4" width="6" height="8" fill="#91b0b8" opacity="0.5"/>
<rect x="805.8" y="268.4" width="6" height="8" fill="#91b0b8" opacity="0.5"/>
<rect x="1029.9" y="176.9" width="57.6" height="123.1" fill="#558592"/>
<rect x="1048.7" y="188.9" width="6" height="8" fill="#91b0b8" opacity="0.5"/>
<rect x="1062.7" y="188.9" width="6" height="8" fill="#91b0b8" opacity="0.5"/>
<rect x="1048.7" y="204.9" width="6" height="8" fill="#91b0b8" opacity="0.5"/>
<rect x="1062.7" y="204.9" width="6" height="8" fill="#91b0b8" opacity="0.5"/>
<rect x="1048.7" y="220.9" width="6" height="8" fill="#91b0b8" opacity="0.5"/>
<rect x="1062.7" y="220.9" width="6" height="8" fill="#91b0b8" opacity="0.5"/>
<rect x="1048.7" y="236.9" width="6" height="8" fill="#91b0b8" opacity="0.5"/>
<rect x="1048.7" y="268.9" width="6" height="8" fill="#91b0b8" opacity="0.5"/>
<rect x="1062.7" y="268.9" width="6" height="8" fill="#91b0b8" opacity="0.5"/>
<rect x="115.6" y="189.3" width="48.4" height="110.7" fill="#2b6777"/>
<rect x="143.8" y="201.3" width="6" height="8" fill="#759ca7" opacity="0.5"/>
<rect x="129.8" y="217.3" width="6" height="8" fill="#759ca7" opacity="0.5"/>
<rect x="129.8" y="233.3" width="6" height="8" fill="#759ca7" opacity="0.5"/>
<rect x="143.8" y="233.3" width="6" height="8" fill="#759ca7" opacity="0.5"/>
<rect x="129.8" y="249.3" width="6" height="8" fill="#759ca7" opacity="0.5"/>
<rect x="143.8" y="249.3" width="6" height="8" fill="#759ca7" opacity="0.5"/>
<rect x="129.8" y="265.3" width="6" height="8" fill="#759ca7" opacity="0.5"/>
<rect x="364.9" y="179.0" width="57.8" height="121.0" fill="#2b6777"/>
<rect x="397.8" y="191.0" width="6" height="8" fill="#759ca7" opacity="0.5"/>
<rect x="383.8" y="207.0" width="6" height="8" fill="#759ca7" opacity="0.5"/>
<rect x="383.8" y="223.0" width="6" height="8" fill="#759ca7" opacity="0.5"/>
<rect x="397.8" y="223.0" width="6" height="8" fill="#759ca7" opacity="0.5"/>
<rect x="383.8" y="239.0" width="6" height="8" fill="#759ca7" opacity="0.5"/>
<rect x="397.8" y="239.0" width="6" height="8" fill="#759ca7" opacity="0.5"/>
<rect x="383.8" y="255.0" width="6" height="8" fill="#759ca7" opacity="0.5"/>
<rect x="397.8" y="255.0" width="6" height="8" fill="#759ca7" opacity="0.5"/>
<rect x="383.8" y="271.0" width="6" height="8" fill="#759ca7" opacity="0.5"/>
<rect x="397.8" y="271.0" width="6" height="8" fill="#759ca7" opacity="0.5"/>
<rect x="550.9" y="153.2" width="57.7" height="146.8" fill="#2b6777"/>
<rect x="569.8" y="165.2" width="6" height="8" fill="#759ca7" opacity="0.5"/>
<rect x="583.8" y="165.2" width="6" height="8" fill="#759ca7" opacity="0.5"/>
<rect x="569.8" y="181.2" width="6" height="8" fill="#759ca7" opacity="0.5"/>
<rect x="569.8" y="197.2" width="6" height="8" fill="#759ca7" opacity="0.5"/>
<rect x="583.8" y="197.2" width="6" height="8" fill="#759ca7" opacity="0.5"/>
<rect x="583.8" y="213.2" width="6" height="8" fill="#759ca7" opacity="0.5"/>
<rect x="569.8" y="229.2" width="6" height="8" fill="#759ca7" opacity="0.5"/>
<rect x="583.8" y="229.2" width="6" height="8" fill="#759ca7" opacity="0.5"/>
<rect x="569.8" y="245.2" width="6" height="8" fill="#759ca7" opacity="0.5"/>
<rect x="583.8" y="245.2" width="6" height="8" fill="#759ca7" opacity="0.5"/>
<rect x="569.8" y="261.2" width="6" height="8" fill="#759ca7" opacity="0.5"/>
<rect x="583.8" y="261.2" width="6" height="8" fill="#759ca7" opacity="0.5"/>
<rect x="770.6" y="183.5" width="60.9" height="116.5" fill="#2b6777"/>
<rect x="784.1" y="195.5" width="6" height="8" fill="#759ca7" opacity="0.5"/>
<rect x="812.1" y="195.5" width="6" height="8" fill="#759ca7" opacity="0.5"/>
<rect x="784.1" y="211.5" width="6" height="8" fill="#759ca7" opacity="0.5"/>
<rect x="812.1" y="211.5" width="6" height="8" fill="#759ca7" opacity="0.5"/>
<rect x="784.1" y="227.5" width="6" height="8" fill="#759ca7" opacity="0.5"/>
<rect x="798.1" y="227.5" width="6" height="8" fill="#759ca7" opacity="0.5"/>
<rect x="812.1" y="227.5" width="6" height="8" fill="#759ca7" opacity="0.5"/>
<rect x="784.1" y="243.5" width="6" height="8" fill="#759ca7" opacity="0.5"/>
<rect x="798.1" y="243.5" width="6" height="8" fill="#759ca7" opacity="0.5"/>
<rect x="784.1" y="259.5" width="6" height="8" fill="#759ca7" opacity="0.5"/>
<rect x="798.1" y="259.5" width="6" height="8" fill="#759ca7" opacity="0.5"/>
<rect x="812.1" y="259.5" width="6" height="8" fill="#759ca7" opacity="0.5"/>
<rect x="1032.6" y="184.1" width="63.3" height="115.9" fill="#2b6777"/>
<rect x="1061.2" y="212.1" width="6" height="8" fill="#759ca7" opacity="0.5"/>
<rect x="1075.2" y="212.1" width="6" height="8" fill="#759ca7" opacity="0.5"/>
<rect x="1061.2" y="228.1" width="6" height="8" fill="#759ca7" opacity="0.5"/>
<rect x="1061.2" y="244.1" width="6" height="8" fill="#759ca7" opacity="0.5"/>
<rect x="1075.2" y="244.1" width="6" height="8" fill="#759ca7" opacity="0.5"/>
<rect x="1047.2" y="260.1" width="6" height="8" fill="#759ca7" opacity="0.5"/>
<rect x="1061.2" y="260.1" width="6" height="8" fill="#759ca7" opacity="0.5"/>
<rect x="1075.2" y="260.1" width="6" height="8" fill="#759ca7" opacity="0.5"/>
<rect x="0" y="298" width="1200" height="2" fill="#275d6b" opacity="0.15"/>
</svg>