<svg xmlns="http://www.w3.org/2000/svg" viewBox="0 0 1200 300" width="1200" height="300">
<defs><linearGradient id="skyGrad" x1="0" y1="0" x2="0" y2="1"><stop offset="0%" stop-color="#f5ede0"/><stop offset="100%" stop-color="#ede0cc"/></linearGradient></defs><rect width="1200" height="300" fill="url(#skyGrad)"/>
<path d="M0 300 L0.0 209.6 Q100.0 165.7 200.0 180.8 Q300.0 144.7 400.0 160.8 Q500.0 141.7 600.0 154.6 Q700.0 169.8 800.0 192.4 Q900.0 189.1 1000.0 199.3 Q1100.0 181.8 1200.0 194.7 L1200 300 Z" fill="#d9bc9b" opacity="0.35"/>
<rect x="108.2" y="217.4" width="62.4" height="82.6" fill="#daae87"/>
<polygon points="108.2,217.4 139.4,201.8 170.6,217.4" fill="#c9a07c"/>
<rect x="301.9" y="212.4" width="72.7" height="87.6" fill="#daae87"/>
<rect x="521.5" y="230.4" width="108.1" height="69.6" fill="#daae87"/>
<rect x="832.5" y="243.4" width="54.5" height="56.6" fill="#daae87"/>
<rect x="842.0" y="233.4" width="35.4" height="10.0" fill="#cfa580"/>
<rect x="1050.7" y="232.0" width="55.4" height="68.0" fill="#daae87"/>
<rect x="86.7" y="227.5" width="71.2" height="72.5" fill="#c98951"/>
<polygon points="86.7,227.5 122.3,209.7 157.9,227.5" fill="#b97e4b"/>
<rect x="105.3" y="239.5" width="6" height="8" fill="#dcb28e" opacity="0.5"/>
<rect x="119.3" y="239.5" width="6" height="8" fill="#dcb28e" opacity="0.5"/>
<rect x="133.3" y="239.5" width="6" height="8" fill="#dcb28e" opacity="0.5"/>
<rect x="119.3" y="255.5" width="6" height="8" fill="#dcb28e" opacity="0.5"/>
<rect x="133.3" y="255.5" width="6" height="8" fill="#dcb28e" opacity="0.5"/>
<rect x="105.3" y="271.5" width="6" height="8" fill="#dcb28e" opacity="0.5"/>
<rect x="246.3" y="175.2" width="94.7" height="124.8" fill="#c98951"/>
<polygon points="246.3,175.2 293.6,151.5 341.0,175.2" fill="#b97e4b"/>
<rect x="276.6" y="187.2" width="6" height="8" fill="#dcb28e" opacity="0.5"/>
<rect x="304.6" y="187.2" width="6" height="8" fill="#dcb28e" opacity="0.5"/>
<rect x="276.6" y="203.2" width="6" height="8" fill="#dcb28e" opacity="0.5"/>
<rect x="290.6" y="203.2" width="6" height="8" fill="#dcb28e" opacity="0.5"/>
<rect x="304.6" y="203.2" width="6" height="8" fill="#dcb28e" opacity="0.5"/>
<rect x="276.6" y="219.2" width="6" height="8" fill="#dcb28e" opacity="0.5"/>
<rect x="290.6" y="219.2" width="6" height="8" fill="#dcb28e" opacity="0.5"/>
<rect x="290.6" y="235.2" width="6" height="8" fill="#dcb28e" opacity="0.5"/>
<rect x="290.6" y="251.2" width="6" height="8" fill="#dcb28e" opacity="0.5"/>
<rect x="276.6" y="267.2" width="6" height="8" fill="#dcb28e" opacity="0.5"/>
<rect x="290.6" y="267.2" width="6" height="8" fill="#dcb28e" opacity="0.5"/>
<rect x="304.6" y="267.2" width="6" height="8" fill="#dcb28e" opacity="0.5"/>
<rect x="448.2" y="214.7" width="71.3" height="85.3" fill="#c98951"/>
<polygon points="448.2,214.7 483.9,196.9 519.5,214.7" fill="#b97e4b"/>
<rect x="480.9" y="226.7" width="6" height="8" fill="#dcb28e" opacity="0.5"/>
<rect x="494.9" y="226.7" width="6" height="8" fill="#dcb28e" opacity="0.5"/>
<rect x="466.9" y="242.7" width="6" height="8" fill="#dcb28e" opacity="0.5"/>
<rect x="480.9" y="242.7" width="6" height="8" fill="#dcb28e" opacity="0.5"/>
<rect x="480.9" y="258.7" width="6" height="8" fill="#dcb28e" opacity="0.5"/>
<rect x="494.9" y="258.7" width="6" height="8" fill="#dcb28e" opacity="0.5"/>
<rect x="688.1" y="187.8" width="45.8" height="112.2" fill="#c98951"/>
<rect x="701.0" y="199.8" width="6" height="8" fill="#dcb28e" opacity="0.5"/>
<rect x="715.0" y="199.8" width="6" height="8" fill="#dcb28e" opacity="0.5"/>
<rect x="701.0" y="215.8" width="6" height="8" fill="#dcb28e" opacity="0.5"/>
<rect x="715.0" y="215.8" width="6" height="8" fill="#dcb28e" opacity="0.5"/>
<rect x="701.0" y="231.8" width="6" height="8" fill="#dcb28e" opacity="0.5"/>
<rect x="715.0" y="231.8" width="6" height="8" fill="#dcb28e" opacity="0.5"/>
<rect x="715.0" y="247.8" width="6" height="8" fill="#dcb28e" opacity="0.5"/>
<rect x="701.0" y="263.8" width="6" height="8" fill="#dcb28e" opacity="0.5"/>
<rect x="715.0" y="263.8" width="6" height="8" fill="#dcb28e" opacity="0.5"/>
<rect x="834.6" y="218.4" width="82.9" height="81.6" fill="#c98951"/>
<polygon points="834.6,218.4 876.1,197.7 917.6,218.4" fill="#b97e4b"/>
<rect x="859.1" y="230.4" width="6" height="8" fill="#dcb28e" opacity="0.5"/>
<rect x="873.1" y="230.4" width="6" height="8" fill="#dcb28e" opacity="0.5"/>
<rect x="887.1" y="230.4" width="6" height="8" fill="#dcb28e" opacity="0.5"/>
<rect x="873.1" y="246.4" width="6" height="8" fill="#dcb28e" opacity="0.5"/>
<rect x="887.1" y="246.4" width="6" height="8" fill="#dcb28e" opacity="0.5"/>
<rect x="1028.1" y="198.0" width="88.4" height="102.0" fill="#c98951"/>
<rect x="1043.6" y="180.0" width="57.5" height="18.0" fill="#bf824d"/>
<rect x="1055.3" y="192.0" width="6" height="8" fill="#dcb28e" opacity="0.5"/>
<rect x="1069.3" y="192.0" width="6" height="8" fill="#dcb28e" opacity="0.5"/>
<rect x="1083.3" y="192.0" width="6" height="8" fill="#dcb28e" opacity="0.5"/>
<rect x="1055.3" y="208.0" width="6" height="8" fill="#dcb28e" opacity="0.5"/>
<rect x="1083.3" y="208.0" width="6" height="8" fill="#dcb28e" opacity="0.5"/>
<rect x="1069.3" y="224.0" width="6" height="8" fill="#dcb28e" opacity="0.5"/>
<rect x="1083.3" y="224.0" width="6" height="8" fill="#dcb28e" opacity="0.5"/>
<rect x="1069.3" y="240.0" width="6" height="8" fill="#dcb28e" opacity="0.5"/>
<rect x="1083.3" y="240.0" width="6" height="8" fill="#dcb28e" opacity="0.5"/>
<rect x="1055.3" y="256.0" width="6" height="8" fill="#dcb28e" opacity="0.5"/>
<rect x="1055.3" y="272.0" width="6" height="8" fill="#dcb28e" opacity="0.5"/>
<rect x="1069.3" y="272.0" width="6" height="8" fill="#dcb28e" opacity="0.5"/>
<rect x="49.8" y="183.4" width="86.5" height="116.6" fill="#bc6c25"/>
<rect x="76.0" y="195.4" width="6" height="8" fill="#d39f71" opacity="0.5"/>
<rect x="104.0" y="195.4" width="6" height="8" fill="#d39f71" opacity="0.5"/>
<rect x="90.0" y="211.4" width="6" height="8" fill="#d39f71" opacity="0.5"/>
<rect x="104.0" y="211.4" width="6" height="8" fill="#d39f71" opacity="0.5"/>
<rect x="76.0" y="227.4" width="6" height="8" fill="#d39f71" opacity="0.5"/>
<rect x="90.0" y="227.4" width="6" height="8" fill="#d39f71" opacity="0.5"/>
<rect x="104.0" y="227.4" width="6" height="8" fill="#d39f71" opacity="0.5"/>
<rect x="76.0" y="243.4" width="6" height="8" fill="#d39f71" opacity="0.5"/>
<rect x="90.0" y="243.4" width="6" height="8" fill="#d39f71" opacity="0.5"/>
<rect x="76.0" y="259.4" width="6" height="8" fill="#d39f71" opacity="0.5"/>
<rect x="90.0" y="259.4" width="6" height="8" fill="#d39f71" opacity="0.5"/>
<rect x="104.0" y="259.4" width="6" height="8" fill="#d39f71" opacity="0.5"/>
<rect x="249.0" y="150.8" width="93.3" height="149.2" fill="#bc6c25"/>
<polygon points="249.0,150.8 295.7,127.5 342.3,150.8" fill="#ad6322"/>
<rect x="292.7" y="162.8" width="6" height="8" fill="#d39f71" opacity="0.5"/>
<rect x="306.7" y="162.8" width="6" height="8" fill="#d39f71" opacity="0.5"/>
<rect x="292.7" y="178.8" width="6" height="8" fill="#d39f71" opacity="0.5"/>
<rect x="278.7" y="194.8" width="6" height="8" fill="#d39f71" opacity="0.5"/>
<rect x="306.7" y="194.8" width="6" height="8" fill="#d39f71" opacity="0.5"/>
<rect x="278.7" y="210.8" width="6" height="8" fill="#d39f71" opacity="0.5"/>
<rect x="292.7" y="210.8" width="6" height="8" fill="#d39f71" opacity="0.5"/>
<rect x="292.7" y="226.8" width="6" height="8" fill="#d39f71" opacity="0.5"/>
<rect x="306.7" y="226.8" width="6" height="8" fill="#d39f71" opacity="0.5"/>
<rect x="278.7" y="242.8" width="6" height="8" fill="#d39f71" opacity="0.5"/>
<rect x="292.7" y="242.8" width="6" height="8" fill="#d39f71" opacity="0.5"/>
<rect x="306.7" y="242.8" width="6" height="8" fill="#d39f71" opacity="0.5"/>
<rect x="400.1" y="179.6" width="61.7" height="120.4" fill="#bc6c25"/>
<polygon points="400.1,179.6 430.9,164.2 461.8,179.6" fill="#ad6322"/>
<rect x="427.9" y="191.6" width="6" height="8" fill="#d39f71" opacity="0.5"/>
<rect x="441.9" y="191.6" width="6" height="8" fill="#d39f71" opacity="0.5"/>
<rect x="413.9" y="207.6" width="6" height="8" fill="#d39f71" opacity="0.5"/>
<rect x="427.9" y="223.6" width="6" height="8" fill="#d39f71" opacity="0.5"/>
<rect x="441.9" y="223.6" width="6" height="8" fill="#d39f71" opacity="0.5"/>
<rect x="413.9" y="239.6" width="6" height="8" fill="#d39f71" opacity="0.5"/>
<rect x="441.9" y="239.6" width="6" height="8" fill="#d39f71" opacity="0.5"/>
<rect x="427.9" y="255.6" width="6" height="8" fill="#d39f71" opacity="0.5"/>
<rect x="441.9" y="255.6" width="6" height="8" fill="#d39f71" opacity="0.5"/>
<rect x="413.9" y="271.6" width="6" height="8" fill="#d39f71" opacity="0.5"/>
<rect x="441.9" y="271.6" width="6" height="8" fill="#d39f71" opacity="0.5"/>
<rect x="580.6" y="257.6" width="59.2" height="42.4" fill="#bc6c25"/>
<rect x="715.2" y="191.9" width="64.4" height="108.1" fill="#bc6c25"/>
<rect x="730.4" y="203.9" width="6" height="8" fill="#d39f71" opacity="0.5"/>
<rect x="744.4" y="203.9" width="6" height="8" fill="#d39f71" opacity="0.5"/>
<rect x="758.4" y="203.9" width="6" height="8" fill="#d39f71" opacity="0.5"/>
<rect x="744.4" y="219.9" width="6" height="8" fill="#d39f71" opacity="0.5"/>
<rect x="758.4" y="219.9" width="6" height="8" fill="#d39f71" opacity="0.5"/>
<rect x="730.4" y="235.9" width="6" height="8" fill="#d39f71" opacity="0.5"/>
<rect x="758.4" y="235.9" width="6" height="8" fill="#d39f71" opacity="0.5"/>
<rect x="744.4" y="251.9" width="6" height="8" fill="#d39f71" opacity="0.5"/>
<rect x="758.4" y="251.9" width="6" height="8" fill="#d39f71" opacity="0.5"/>
<rect x="744.4" y="267.9" width="6" height="8" fill="#d39f71" opacity="0.5"/>
<rect x="758.4" y="267.9" width="6" height="8" fill="#d39f71" opacity="0.5"/>
<rect x="878.6" y="149.2" width="97.3" height="150.8" fill="#bc6c25"/>
<polygon points="878.6,149.2 927.3,124.9 975.9,149.2" fill="#ad6322"/>
<rect x="924.3" y="177.2" width="6" height="8" fill="#d39f71" opacity="0.5"/>
<rect x="938.3" y="177.2" width="6" height="8" fill="#d39f71" opacity="0.5"/>
<rect x="924.3" y="209.2" width="6" height="8" fill="#d39f71" opacity="0.5"/>
<rect x="938.3" y="209.2" width="6" height="8" fill="#d39f71" opacity="0.5"/>
<rect x="910.3" y="225.2" width="6" height="8" fill="#d39f71" opacity="0.5"/>
<rect x="924.3" y="225.2" width="6" height="8" fill="#d39f71" opacity="0.5"/>
<rect x="938.3" y="225.2" width="6" height="8" fill="#d39f71" opacity="0.5"/>
<rect x="910.3" y="241.2" width="6" height="8" fill="#d39f71" opacity="0.5"/>
<rect x="924.3" y="241.2" width="6" height="8" fill="#d39f71" opacity="0.5"/>
<rect x="1085.3" y="191.5" width="54.1" height="108.5" fill="#bc6c25"/>
<rect x="1094.8" y="172.3" width="35.2" height="19.2" fill="#b36723"/>
<rect x="1116.4" y="184.3" width="6" height="8" fill="#d39f71" opacity="0.5"/>
<rect x="1116.4" y="200.3" width="6" height="8" fill="#d39f71" opacity="0.5"/>
<rect x="1102.4" y="216.3" width="6" height="8" fill="#d39f71" opacity="0.5"/>
<rect x="1102.4" y="232.3" width="6" height="8" fill="#d39f71" opacity="0.5"/>
<rect x="1102.4" y="248.3" width="6" height="8" fill="#d39f71" opacity="0.5"/>
<rect x="1116.4" y="248.3" width="6" height="8" fill="#d39f71" opacity="0.5"/>
<line x1="192.7" y1="285.0" x2="192.7" y2="254.7" stroke="#5a7a4a" stroke-width="4" stroke-linecap="round"/>
<line x1="192.7" y1="272.4" x2="178.4" y2="272.4" stroke="#5a7a4a" stroke-width="3" stroke-linecap="round"/>
<line x1="178.4" y1="272.4" x2="178.4" y2="264.2" stroke="#5a7a4a" stroke-width="3" stroke-linecap="round"/>
<line x1="371.2" y1="285.0" x2="371.2" y2="252.9" stroke="#5a7a4a" stroke-width="4" stroke-linecap="round"/>
<line x1="371.2" y1="269.7" x2="363.0" y2="269.7" stroke="#5a7a4a" stroke-width="3" stroke-linecap="round"/>
<line x1="363.0" y1="269.7" x2="363.0" y2="260.9" stroke="#5a7a4a" stroke-width="3" stroke-linecap="round"/>
<line x1="371.2" y1="269.9" x2="383.4" y2="269.9" stroke="#5a7a4a" stroke-width="3" stroke-linecap="round"/>
<line x1="383.4" y1="269.9" x2="383.4" y2="259.6" stroke="#5a7a4a" stroke-width="3" stroke-linecap="round"/>
<rect x="0" y="285" width="1200" height="15" fill="#d9c4a0" opacity="0.4"/>
</svg>