<svg xmlns="http://www.w3.org/2000/svg" viewBox="0 0 1200 300" width="1200" height="300">
<rect width="1200" height="300" fill="#f0e6d8"/>
<path d="M0 300 L0 210.0 C275.1 183.6, 903.0 192.5, 1200 210.0 L1200 300 Z" fill="#e4c4a8" opacity="0.3"/>
<rect x="147.4" y="230.0" width="89.7" height="70.0" fill="#daae87"/>
<rect x="618.8" y="236.1" width="68.9" height="63.9" fill="#daae87"/>
<rect x="893.8" y="234.5" width="64.1" height="65.5" fill="#daae87"/>
<rect x="254.1" y="189.3" width="41.7" height="110.7" fill="#c98951"/>
<rect x="272.0" y="217.3" width="6" height="8" fill="#dcb28e" opacity="0.5"/>
<rect x="272.0" y="233.3" width="6" height="8" fill="#dcb28e" opacity="0.5"/>
<rect x="272.0" y="249.3" width="6" height="8" fill="#dcb28e" opacity="0.5"/>
<rect x="272.0" y="265.3" width="6" height="8" fill="#dcb28e" opacity="0.5"/>
<rect x="614.1" y="227.9" width="37.9" height="72.1" fill="#c98951"/>
<rect x="630.1" y="255.9" width="6" height="8" fill="#dcb28e" opacity="0.5"/>
<rect x="630.1" y="271.9" width="6" height="8" fill="#dcb28e" opacity="0.5"/>
<rect x="951.7" y="226.3" width="42.3" height="73.7" fill="#c98951"/>
<rect x="969.8" y="238.3" width="6" height="8" fill="#dcb28e" opacity="0.5"/>
<rect x="969.8" y="254.3" width="6" height="8" fill="#dcb28e" opacity="0.5"/>
<rect x="969.8" y="270.3" width="6" height="8" fill="#dcb28e" opacity="0.5"/>
<rect x="158.2" y="210.7" width="41.3" height="89.3" fill="#bc6c25"/>
<rect x="175.9" y="222.7" width="6" height="8" fill="#d39f71" opacity="0.5"/>
<rect x="175.9" y="238.7" width="6" height="8" fill="#d39f71" opacity="0.5"/>
<rect x="175.9" y="254.7" width="6" height="8" fill="#d39f71" opacity="0.5"/>
<rect x="175.9" y="270.7" width="6" height="8" fill="#d39f71" opacity="0.5"/>
<rect x="583.4" y="241.3" width="68.5" height="58.7" fill="#bc6c25"/>
<rect x="942.3" y="200.9" width="74.0" height="99.1" fill="#bc6c25"/>
<rect x="955.2" y="212.9" width="6" height="8" fill="#d39f71" opacity="0.5"/>
<rect x="983.2" y="212.9" width="6" height="8" fill="#d39f71" opacity="0.5"/>
<rect x="997.2" y="212.9" width="6" height="8" fill="#d39f71" opacity="0.5"/>
<rect x="969.2" y="228.9" width="6" height="8" fill="#d39f71" opacity="0.5"/>
<rect x="969.2" y="244.9" width="6" height="8" fill="#d39f71" opacity="0.5"/>
<rect x="997.2" y="244.9" width="6" height="8" fill="#d39f71" opacity="0.5"/>
<rect x="969.2" y="260.9" width="6" height="8" fill="#d39f71" opacity="0.5"/>
<rect x="983.2" y="260.9" width="6" height="8" fill="#d39f71" opacity="0.5"/>
<rect x="997.2" y="260.9" width="6" height="8" fill="#d39f71" opacity="0.5"/>
<rect x="0" y="298" width="1200" height="2" fill="#a96121" opacity="0.15"/>
</svg>