<svg xmlns="http://www.w3.org/2000/svg" viewBox="0 0 1200 300" width="1200" height="300">
<rect width="1200" height="300" fill="#e0eff2"/>
<path d="M0 300 L0 210.0 C291.5 183.6, 965.6 191.3, 1200 210.0 L1200 300 Z" fill="#aac2c9" opacity="0.3"/>
<rect x="84.8" y="183.7" width="70.1" height="116.3" fill="#8aabb4"/>
<rect x="370.2" y="228.4" width="44.0" height="71.6" fill="#8aabb4"/>
<rect x="574.0" y="188.0" width="83.4" height="112.0" fill="#8aabb4"/>
<rect x="804.3" y="225.9" width="87.5" height="74.1" fill="#8aabb4"/>
<rect x="1023.8" y="192.2" width="62.2" height="107.8" fill="#8aabb4"/>
<rect x="126.2" y="193.1" width="74.9" height="106.9" fill="#558592"/>
<rect x="139.6" y="205.1" width="6" height="8" fill="#91b0b8" opacity="0.5"/>
<rect x="167.6" y="205.1" width="6" height="8" fill="#91b0b8" opacity="0.5"/>
<rect x="181.6" y="205.1" width="6" height="8" fill="#91b0b8" opacity="0.5"/>
<rect x="139.6" y="221.1" width="6" height="8" fill="#91b0b8" opacity="0.5"/>
<rect x="167.6" y="221.1" width="6" height="8" fill="#91b0b8" opacity="0.5"/>
<rect x="181.6" y="221.1" width="6" height="8" fill="#91b0b8" opacity="0.5"/>
<rect x="139.6" y="237.1" width="6" height="8" fill="#91b0b8" opacity="0.5"/>
<rect x="167.6" y="237.1" width="6" height="8" fill="#91b0b8" opacity="0.5"/>
<rect x="181.6" y="237.1" width="6" height="8" fill="#91b0b8" opacity="0.5"/>
<rect x="139.6" y="253.1" width="6" height="8" fill="#91b0b8" opacity="0.5"/>
<rect x="153.6" y="253.1" width="6" height="8" fill="#91b0b8" opacity="0.5"/>
<rect x="167.6" y="253.1" width="6" height="8" fill="#91b0b8" opacity="0.5"/>
<rect x="181.6" y="253.1" width="6" height="8" fill="#91b0b8" opacity="0.5"/>
<rect x="153.6" y="269.1" width="6" height="8" fill="#91b0b8" opacity="0.5"/>
<rect x="167.6" y="269.1" width="6" height="8" fill="#91b0b8" opacity="0.5"/>
<rect x="181.6" y="269.1" width="6" height="8" fill="#91b0b8" opacity="0.5"/>
<rect x="345.6" y="147.2" width="75.7" height="152.8" fill="#558592"/>
<rect x="359.5" y="159.2" width="6" height="8" fill="#91b0b8" opacity="0.5"/>
<rect x="387.5" y="159.2" width="6" height="8" fill="#91b0b8" opacity="0.5"/>
<rect x="401.5" y="159.2" width="6" height="8" fill="#91b0b8" opacity="0.5"/>
<rect x="359.5" y="175.2" width="6" height="8" fill="#91b0b8" opacity="0.5"/>
<rect x="387.5" y="175.2" width="6" height="8" fill="#91b0b8" opacity="0.5"/>
<rect x="401.5" y="175.2" width="6" height="8" fill="#91b0b8" opacity="0.5"/>
<rect x="359.5" y="191.2" width="6" height="8" fill="#91b0b8" opacity="0.5"/>
<rect x="373.5" y="191.2" width="6" height="8" fill="#91b0b8" opacity="0.5"/>
<rect x="387.5" y="191.2" width="6" height="8" fill="#91b0b8" opacity="0.5"/>
<rect x="401.5" y="191.2" width="6" height="8" fill="#91b0b8" opacity="0.5"/>
<rect x="387.5" y="207.2" width="6" height="8" fill="#91b0b8" opacity="0.5"/>
<rect x="401.5" y="207.2" width="6" height="8" fill="#91b0b8" opacity="0.5"/>
<rect x="359.5" y="223.2" width="6" height="8" fill="#91b0b8" opacity="0.5"/>
<rect x="401.5" y="223.2" width="6" height="8" fill="#91b0b8" opacity="0.5"/>
<rect x="373.5" y="239.2" width="6" height="8" fill="#91b0b8" opacity="0.5"/>
<rect x="401.5" y="239.2" width="6" height="8" fill="#91b0b8" opacity="0.5"/>
<rect x="359.5" y="255.2" width="6" height="8" fill="#91b0b8" opacity="0.5"/>
<rect x="373.5" y="255.2" width="6" height="8" fill="#91b0b8" opacity="0.5"/>
<rect x="387.5" y="255.2" width="6" height="8" fill="#91b0b8" opacity="0.5"/>
<rect x="359.5" y="271.2" width="6" height="8" fill="#91b0b8" opacity="0.5"/>
<rect x="373.5" y="271.2" width="6" height="8" fill="#91b0b8" opacity="0.5"/>
<rect x="387.5" y="271.2" width="6" height="8" fill="#91b0b8" opacity="0.5"/>
<rect x="401.5" y="271.2" width="6" height="8" fill="#91b0b8" opacity="0.5"/>
<rect x="596.2" y="181.8" width="72.8" height="118.2" fill="#558592"/>
<rect x="608.6" y="193.8" width="6" height="8" fill="#91b0b8" opacity="0.5"/>
<rect x="622.6" y="193.8" width="6" height="8" fill="#91b0b8" opacity="0.5"/>
<rect x="636.6" y="193.8" width="6" height="8" fill="#91b0b8" opacity="0.5"/>
<rect x="650.6" y="193.8" width="6" height="8" fill="#91b0b8" opacity="0.5"/>
<rect x="622.6" y="209.8" width="6" height="8" fill="#91b0b8" opacity="0.5"/>
<rect x="636.6" y="209.8" width="6" height="8" fill="#91b0b8" opacity="0.5"/>
<rect x="650.6" y="209.8" width="6" height="8" fill="#91b0b8" opacity="0.5"/>
<rect x="608.6" y="225.8" width="6" height="8" fill="#91b0b8" opacity="0.5"/>
<rect x="622.6" y="225.8" width="6" height="8" fill="#91b0b8" opacity="0.5"/>
<rect x="636.6" y="225.8" width="6" height="8" fill="#91b0b8" opacity="0.5"/>
<rect x="650.6" y="225.8" width="6" height="8" fill="#91b0b8" opacity="0.5"/>
<rect x="608.6" y="241.8" width="6" height="8" fill="#91b0b8" opacity="0.5"/>
<rect x="636.6" y="241.8" width="6" height="8" fill="#91b0b8" opacity="0.5"/>
<rect x="650.6" y="241.8" width="6" height="8" fill="#91b0b8" opacity="0.5"/>
<rect x="608.6" y="257.8" width="6" height="8" fill="#91b0b8" opacity="0.5"/>
<rect x="636.6" y="257.8" width="6" height="8" fill="#91b0b8" opacity="0.5"/>
<rect x="650.6" y="257.8" width="6" height="8" fill="#91b0b8" opacity="0.5"/>
<rect x="608.6" y="273.8" width="6" height="8" fill="#91b0b8" opacity="0.5"/>
<rect x="813.2" y="137.9" width="59.4" height="162.1" fill="#558592"/>
<rect x="825.9" y="149.9" width="6" height="8" fill="#91b0b8" opacity="0.5"/>
<rect x="839.9" y="149.9" width="6" height="8" fill="#91b0b8" opacity="0.5"/>
<rect x="853.9" y="149.9" width="6" height="8" fill="#91b0b8" opacity="0.5"/>
<rect x="825.9" y="165.9" width="6" height="8" fill="#91b0b8" opacity="0.5"/>
<rect x="839.9" y="165.9" width="6" height="8" fill="#91b0b8" opacity="0.5"/>
<rect x="853.9" y="165.9" width="6" height="8" fill="#91b0b8" opacity="0.5"/>
<rect x="825.9" y="181.9" width="6" height="8" fill="#91b0b8" opacity="0.5"/>
<rect x="839.9" y="181.9" width="6" height="8" fill="#91b0b8" opacity="0.5"/>
<rect x="853.9" y="181.9" width="6" height="8" fill="#91b0b8" opacity="0.5"/>
<rect x="825.9" y="197.9" width="6" height="8" fill="#91b0b8" opacity="0.5"/>
<rect x="839.9" y="197.9" width="6" height="8" fill="#91b0b8" opacity="0.5"/>
<rect x="853.9" y="197.9" width="6" height="8" fill="#91b0b8" opacity="0.5"/>
<rect x="825.9" y="213.9" width="6" height="8" fill="#91b0b8" opacity="0.5"/>
<rect x="839.9" y="213.9" width="6" height="8" fill="#91b0b8" opacity="0.5"/>
<rect x="853.9" y="213.9" width="6" height="8" fill="#91b0b8" opacity="0.5"/>
<rect x="839.9" y="229.9" width="6" height="8" fill="#91b0b8" opacity="0.5"/>
<rect x="853.9" y="229.9" width="6" height="8" fill="#91b0b8" opacity="0.5"/>
<rect x="825.9" y="245.9" width="6" height="8" fill="#91b0b8" opacity="0.5"/>
<rect x="853.9" y="245.9" width="6" height="8" fill="#91b0b8" opacity="0.5"/>
<rect x="825.9" y="261.9" width="6" height="8" fill="#91b0b8" opacity="0.5"/>
<rect x="839.9" y="261.9" width="6" height="8" fill="#91b0b8" opacity="0.5"/>
<rect x="853.9" y="261.9" width="6" height="8" fill="#91b0b8" opacity="0.5"/>
<rect x="1009.7" y="139.8" width="48.4" height="160.2" fill="#558592"/>
<rect x="1023.9" y="151.8" width="6" height="8" fill="#91b0b8" opacity="0.5"/>
<rect x="1037.9" y="151.8" width="6" height="8" fill="#91b0b8" opacity="0.5"/>
<rect x="1023.9" y="167.8" width="6" height="8" fill="#91b0b8" opacity="0.5"/>
<rect x="1023.9" y="183.8" width="6" height="8" fill="#91b0b8" opacity="0.5"/>
<rect x="1037.9" y="183.8" width="6" height="8" fill="#91b0b8" opacity="0.5"/>
<rect x="1023.9" y="199.8" width="6" height="8" fill="#91b0b8" opacity="0.5"/>
<rect x="1037.9" y="199.8" width="6" height="8" fill="#91b0b8" opacity="0.5"/>
<rect x="1023.9" y="215.8" width="6" height="8" fill="#91b0b8" opacity="0.5"/>
<rect x="1037.9" y="215.8" width="6" height="8" fill="#91b0b8" opacity="0.5"/>
<rect x="1023.9" y="247.8" width="6" height="8" fill="#91b0b8" opacity="0.5"/>
<rect x="1037.9" y="247.8" width="6" height="8" fill="#91b0b8" opacity="0.5"/>
<rect x="1023.9" y="263.8" width="6" height="8" fill="#91b0b8" opacity="0.5"/>
<rect x="1037.9" y="263.8" width="6" height="8" fill="#91b0b8" opacity="0.5"/>
<rect x="94.2" y="243.5" width="33.0" height="56.5" fill="#2b6777"/>
<rect x="365.0" y="233.5" width="60.4" height="66.5" fill="#2b6777"/>
<rect x="378.2" y="245.5" width="6" height="8" fill="#759ca7" opacity="0.5"/>
<rect x="392.2" y="245.5" width="6" height="8" fill="#759ca7" opacity="0.5"/>
<rect x="406.2" y="245.5" width="6" height="8" fill="#759ca7" opacity="0.5"/>
<rect x="392.2" y="261.5" width="6" height="8" fill="#759ca7" opacity="0.5"/>
<rect x="406.2" y="261.5" width="6" height="8" fill="#759ca7" opacity="0.5"/>
<rect x="563.0" y="158.7" width="65.4" height="141.3" fill="#2b6777"/>
<rect x="578.7" y="170.7" width="6" height="8" fill="#759ca7" opacity="0.5"/>
<rect x="592.7" y="170.7" width="6" height="8" fill="#759ca7" opacity="0.5"/>
<rect x="592.7" y="186.7" width="6" height="8" fill="#759ca7" opacity="0.5"/>
<rect x="606.7" y="186.7" width="6" height="8" fill="#759ca7" opacity="0.5"/>
<rect x="578.7" y="202.7" width="6" height="8" fill="#759ca7" opacity="0.5"/>
<rect x="592.7" y="202.7" width="6" height="8" fill="#759ca7" opacity="0.5"/>
<rect x="606.7" y="202.7" width="6" height="8" fill="#759ca7" opacity="0.5"/>
<rect x="578.7" y="218.7" width="6" height="8" fill="#759ca7" opacity="0.5"/>
<rect x="606.7" y="218.7" width="6" height="8" fill="#759ca7" opacity="0.5"/>
<rect x="578.7" y="234.7" width="6" height="8" fill="#759ca7" opacity="0.5"/>
<rect x="592.7" y="234.7" width="6" height="8" fill="#759ca7" opacity="0.5"/>
<rect x="606.7" y="234.7" width="6" height="8" fill="#759ca7" opacity="0.5"/>
<rect x="578.7" y="250.7" width="6" height="8" fill="#759ca7" opacity="0.5"/>
<rect x="592.7" y="250.7" width="6" height="8" fill="#759ca7" opacity="0.5"/>
<rect x="606.7" y="250.7" width="6" height="8" fill="#759ca7" opacity="0.5"/>
<rect x="592.7" y="266.7" width="6" height="8" fill="#759ca7" opacity="0.5"/>
<rect x="606.7" y="266.7" width="6" height="8" fill="#759ca7" opacity="0.5"/>
<rect x="817.3" y="250.0" width="50.6" height="50.0" fill="#2b6777"/>
<rect x="1032.4" y="229.9" width="30.5" height="70.1" fill="#2b6777"/>
<rect x="1044.7" y="257.9" width="6" height="8" fill="#759ca7" opacity="0.5"/>
<rect x="1044.7" y="273.9" width="6" height="8" fill="#759ca7" opacity="0.5"/>
<rect x="0" y="298" width="1200" height="2" fill="#275d6b" opacity="0.15"/>
</svg>