<svg xmlns="http://www.w3.org/2000/svg" viewBox="0 0 1200 400" width="1200" height="400">
<defs>
<linearGradient id="bg" x1="0" y1="0" x2="0" y2="1"><stop offset="0%" stop-color="#d4a76a"/><stop offset="100%" stop-color="#ea580c"/></linearGradient>
<linearGradient id="warm" x1="0" y1="0" x2="1" y2="1"><stop offset="0%" stop-color="#7f8ca0" stop-opacity="0.18"/><stop offset="100%" stop-color="#7f8ca0" stop-opacity="0.06"/></linearGradient>
</defs>
<rect width="1200" height="400" fill="url(#bg)"/>
<path d="M0 400 L0 229.55968727398658 C60.0 234.1, 90.0 240.2, 150.0 239.4 C210.0 231.4, 240.0 234.1, 300.0 236.5 C360.0 243.7, 390.0 246.7, 450.0 240.6 C510.0 231.5, 540.0 216.2, 600.0 225.9 C660.0 228.4, 690.0 201.7, 750.0 210.8 C810.0 203.9, 840.0 242.4, 900.0 251.5 C960.0 242.8, 990.0 212.9, 1050.0 214.5 C1110.0 216.9, 1140.0 242.5, 1200.0 240.6 L1200 400 Z" fill="#e2742d" opacity="0.45"/>
<path d="M0 400 L0 265.6819873219366 C52.5 268.5, 97.5 261.5, 150.0 264.5 C202.5 259.7, 247.5 270.3, 300.0 263.2 C352.5 263.3, 397.5 256.0, 450.0 257.9 C502.5 251.4, 547.5 277.8, 600.0 273.2 C652.5 266.5, 697.5 265.4, 750.0 261.4 C802.5 268.8, 847.5 250.1, 900.0 251.7 C952.5 259.0, 997.5 253.5, 1050.0 252.3 C1102.5 254.1, 1147.5 258.4, 1200.0 253.3 L1200 400 Z" fill="#ea580c" opacity="0.3"/>
<rect x="235.0" y="247.2" width="44.5" height="152.8" rx="4.5" fill="#328693" opacity="0.84"/>
<rect x="226.3" y="337.8" width="46.0" height="62.2" rx="6.4" fill="#5b7c75" opacity="0.56"/>
<rect x="236.6" y="287.1" width="43.5" height="112.9" rx="6.4" fill="#6e7767" opacity="0.56"/>
<rect x="209.4" y="306.2" width="36.9" height="93.8" rx="4.9" fill="#6f7767" opacity="0.77"/>
<rect x="226.7" y="316.2" width="4" height="5" rx="0.5" fill="#d4a76a" opacity="0.6"/>
<rect x="214.4" y="338.2" width="4" height="5" rx="0.5" fill="#d4a76a" opacity="0.6"/>
<rect x="214.4" y="360.2" width="4" height="5" rx="0.5" fill="#d4a76a" opacity="0.6"/>
<rect x="226.7" y="360.2" width="4" height="5" rx="0.5" fill="#d4a76a" opacity="0.6"/>
<rect x="453.3" y="343.5" width="46.4" height="56.5" rx="6.5" fill="#637a6f" opacity="0.59"/>
<rect x="849.3" y="265.4" width="25.7" height="134.6" rx="3.9" fill="#717765" opacity="0.82"/>
<rect x="854.3" y="319.4" width="4" height="5" rx="0.5" fill="#d4a76a" opacity="0.6"/>
<rect x="854.3" y="341.4" width="4" height="5" rx="0.5" fill="#d4a76a" opacity="0.6"/>
<rect x="699.3" y="330.2" width="25.9" height="69.8" rx="7.2" fill="#458285" opacity="0.75"/>
<rect x="233.0" y="351.5" width="20.0" height="48.5" rx="5.6" fill="#877155" opacity="0.58"/>
<rect x="1073.0" y="360.1" width="30.5" height="39.9" rx="5.8" fill="#567d78" opacity="0.68"/>
<rect x="319.6" y="333.3" width="16.1" height="66.7" rx="4.2" fill="#4f7f7e" opacity="0.53"/>
<rect x="876.9" y="252.8" width="34.5" height="147.2" rx="5.2" fill="#3c848b" opacity="0.82"/>
<rect x="441.3" y="337.4" width="46.9" height="62.6" rx="4.0" fill="#27899b" opacity="0.74"/>
<rect x="1067.2" y="354.3" width="42.3" height="45.7" rx="3.5" fill="#1d8ca2" opacity="0.78"/>
<rect x="122.2" y="352.3" width="33.4" height="47.7" rx="7.5" fill="#627a70" opacity="0.82"/>
<rect x="1049.6" y="283.5" width="26.4" height="116.5" rx="4.4" fill="#428287" opacity="0.70"/>
<rect x="1054.6" y="315.5" width="4" height="5" rx="0.5" fill="#d4a76a" opacity="0.6"/>
<rect x="1054.6" y="337.5" width="4" height="5" rx="0.5" fill="#d4a76a" opacity="0.6"/>
<circle cx="1033.2" cy="100.5" r="6.6" fill="#d4a76a" opacity="0.17"/>
<circle cx="570.3" cy="224.2" r="3.5" fill="#0891b2" opacity="0.22"/>
<rect width="1200" height="400" fill="url(#warm)"/>
<rect width="1200" height="400" fill="#d4a76a" opacity="0.36"/>
</svg>