<svg xmlns="http://www.w3.org/2000/svg" viewBox="0 0 1200 300" width="1200" height="300">
<rect width="1200" height="300" fill="#e0eff2"/>
<path d="M0 300 L0 210.0 C270.8 182.4, 989.9 186.9, 1200 210.0 L1200 300 Z" fill="#aac2c9" opacity="0.3"/>
<rect x="163.9" y="230.0" width="58.7" height="70.0" fill="#8aabb4"/>
<rect x="390.0" y="229.5" width="49.9" height="70.5" fill="#8aabb4"/>
<rect x="672.1" y="206.3" width="77.1" height="93.7" fill="#8aabb4"/>
<rect x="973.2" y="182.4" width="46.4" height="117.6" fill="#8aabb4"/>
<rect x="141.2" y="219.6" width="73.9" height="80.4" fill="#558592"/>
<rect x="154.2" y="231.6" width="6" height="8" fill="#91b0b8" opacity="0.5"/>
<rect x="182.2" y="231.6" width="6" height="8" fill="#91b0b8" opacity="0.5"/>
<rect x="196.2" y="231.6" width="6" height="8" fill="#91b0b8" opacity="0.5"/>
<rect x="154.2" y="247.6" width="6" height="8" fill="#91b0b8" opacity="0.5"/>
<rect x="168.2" y="247.6" width="6" height="8" fill="#91b0b8" opacity="0.5"/>
<rect x="182.2" y="247.6" width="6" height="8" fill="#91b0b8" opacity="0.5"/>
<rect x="196.2" y="247.6" width="6" height="8" fill="#91b0b8" opacity="0.5"/>
<rect x="168.2" y="263.6" width="6" height="8" fill="#91b0b8" opacity="0.5"/>
<rect x="182.2" y="263.6" width="6" height="8" fill="#91b0b8" opacity="0.5"/>
<rect x="372.6" y="171.1" width="58.9" height="128.9" fill="#558592"/>
<rect x="385.1" y="183.1" width="6" height="8" fill="#91b0b8" opacity="0.5"/>
<rect x="399.1" y="183.1" width="6" height="8" fill="#91b0b8" opacity="0.5"/>
<rect x="385.1" y="199.1" width="6" height="8" fill="#91b0b8" opacity="0.5"/>
<rect x="399.1" y="199.1" width="6" height="8" fill="#91b0b8" opacity="0.5"/>
<rect x="413.1" y="199.1" width="6" height="8" fill="#91b0b8" opacity="0.5"/>
<rect x="385.1" y="215.1" width="6" height="8" fill="#91b0b8" opacity="0.5"/>
<rect x="413.1" y="215.1" width="6" height="8" fill="#91b0b8" opacity="0.5"/>
<rect x="399.1" y="231.1" width="6" height="8" fill="#91b0b8" opacity="0.5"/>
<rect x="413.1" y="231.1" width="6" height="8" fill="#91b0b8" opacity="0.5"/>
<rect x="385.1" y="247.1" width="6" height="8" fill="#91b0b8" opacity="0.5"/>
<rect x="399.1" y="247.1" width="6" height="8" fill="#91b0b8" opacity="0.5"/>
<rect x="413.1" y="247.1" width="6" height="8" fill="#91b0b8" opacity="0.5"/>
<rect x="385.1" y="263.1" width="6" height="8" fill="#91b0b8" opacity="0.5"/>
<rect x="399.1" y="263.1" width="6" height="8" fill="#91b0b8" opacity="0.5"/>
<rect x="413.1" y="263.1" width="6" height="8" fill="#91b0b8" opacity="0.5"/>
<rect x="570.8" y="207.1" width="35.6" height="92.9" fill="#558592"/>
<rect x="585.6" y="235.1" width="6" height="8" fill="#91b0b8" opacity="0.5"/>
<rect x="585.6" y="251.1" width="6" height="8" fill="#91b0b8" opacity="0.5"/>
<rect x="815.4" y="147.4" width="52.0" height="152.6" fill="#558592"/>
<rect x="831.5" y="159.4" width="6" height="8" fill="#91b0b8" opacity="0.5"/>
<rect x="845.5" y="159.4" width="6" height="8" fill="#91b0b8" opacity="0.5"/>
<rect x="831.5" y="191.4" width="6" height="8" fill="#91b0b8" opacity="0.5"/>
<rect x="831.5" y="223.4" width="6" height="8" fill="#91b0b8" opacity="0.5"/>
<rect x="845.5" y="223.4" width="6" height="8" fill="#91b0b8" opacity="0.5"/>
<rect x="831.5" y="239.4" width="6" height="8" fill="#91b0b8" opacity="0.5"/>
<rect x="845.5" y="239.4" width="6" height="8" fill="#91b0b8" opacity="0.5"/>
<rect x="845.5" y="255.4" width="6" height="8" fill="#91b0b8" opacity="0.5"/>
<rect x="1022.4" y="169.0" width="61.8" height="131.0" fill="#558592"/>
<rect x="1064.3" y="181.0" width="6" height="8" fill="#91b0b8" opacity="0.5"/>
<rect x="1036.3" y="197.0" width="6" height="8" fill="#91b0b8" opacity="0.5"/>
<rect x="1050.3" y="197.0" width="6" height="8" fill="#91b0b8" opacity="0.5"/>
<rect x="1064.3" y="197.0" width="6" height="8" fill="#91b0b8" opacity="0.5"/>
<rect x="1064.3" y="213.0" width="6" height="8" fill="#91b0b8" opacity="0.5"/>
<rect x="1064.3" y="229.0" width="6" height="8" fill="#91b0b8" opacity="0.5"/>
<rect x="1036.3" y="245.0" width="6" height="8" fill="#91b0b8" opacity="0.5"/>
<rect x="1050.3" y="245.0" width="6" height="8" fill="#91b0b8" opacity="0.5"/>
<rect x="1064.3" y="245.0" width="6" height="8" fill="#91b0b8" opacity="0.5"/>
<rect x="1036.3" y="261.0" width="6" height="8" fill="#91b0b8" opacity="0.5"/>
<rect x="1064.3" y="261.0" width="6" height="8" fill="#91b0b8" opacity="0.5"/>
<rect x="109.9" y="108.2" width="34.5" height="191.8" fill="#2b6777"/>
<rect x="124.2" y="120.2" width="6" height="8" fill="#759ca7" opacity="0.5"/>
<rect x="124.2" y="136.2" width="6" height="8" fill="#759ca7" opacity="0.5"/>
<rect x="124.2" y="152.2" width="6" height="8" fill="#759ca7" opacity="0.5"/>
<rect x="124.2" y="168.2" width="6" height="8" fill="#759ca7" opacity="0.5"/>
<rect x="124.2" y="184.2" width="6" height="8" fill="#759ca7" opacity="0.5"/>
<rect x="124.2" y="200.2" width="6" height="8" fill="#759ca7" opacity="0.5"/>
<rect x="124.2" y="216.2" width="6" height="8" fill="#759ca7" opacity="0.5"/>
<rect x="124.2" y="232.2" width="6" height="8" fill="#759ca7" opacity="0.5"/>
<rect x="124.2" y="248.2" width="6" height="8" fill="#759ca7" opacity="0.5"/>
<rect x="124.2" y="264.2" width="6" height="8" fill="#759ca7" opacity="0.5"/>
<rect x="357.1" y="235.9" width="73.0" height="64.1" fill="#2b6777"/>
<rect x="369.6" y="247.9" width="6" height="8" fill="#759ca7" opacity="0.5"/>
<rect x="397.6" y="247.9" width="6" height="8" fill="#759ca7" opacity="0.5"/>
<rect x="411.6" y="247.9" width="6" height="8" fill="#759ca7" opacity="0.5"/>
<rect x="369.6" y="263.9" width="6" height="8" fill="#759ca7" opacity="0.5"/>
<rect x="383.6" y="263.9" width="6" height="8" fill="#759ca7" opacity="0.5"/>
<rect x="411.6" y="263.9" width="6" height="8" fill="#759ca7" opacity="0.5"/>
<rect x="607.1" y="132.7" width="31.4" height="167.3" fill="#2b6777"/>
<rect x="619.8" y="144.7" width="6" height="8" fill="#759ca7" opacity="0.5"/>
<rect x="619.8" y="160.7" width="6" height="8" fill="#759ca7" opacity="0.5"/>
<rect x="619.8" y="176.7" width="6" height="8" fill="#759ca7" opacity="0.5"/>
<rect x="619.8" y="192.7" width="6" height="8" fill="#759ca7" opacity="0.5"/>
<rect x="619.8" y="208.7" width="6" height="8" fill="#759ca7" opacity="0.5"/>
<rect x="619.8" y="224.7" width="6" height="8" fill="#759ca7" opacity="0.5"/>
<rect x="619.8" y="240.7" width="6" height="8" fill="#759ca7" opacity="0.5"/>
<rect x="619.8" y="256.7" width="6" height="8" fill="#759ca7" opacity="0.5"/>
<rect x="619.8" y="272.7" width="6" height="8" fill="#759ca7" opacity="0.5"/>
<rect x="773.5" y="137.6" width="44.5" height="162.4" fill="#2b6777"/>
<rect x="785.8" y="149.6" width="6" height="8" fill="#759ca7" opacity="0.5"/>
<rect x="799.8" y="149.6" width="6" height="8" fill="#759ca7" opacity="0.5"/>
<rect x="785.8" y="165.6" width="6" height="8" fill="#759ca7" opacity="0.5"/>
<rect x="799.8" y="165.6" width="6" height="8" fill="#759ca7" opacity="0.5"/>
<rect x="785.8" y="181.6" width="6" height="8" fill="#759ca7" opacity="0.5"/>
<rect x="799.8" y="181.6" width="6" height="8" fill="#759ca7" opacity="0.5"/>
<rect x="785.8" y="197.6" width="6" height="8" fill="#759ca7" opacity="0.5"/>
<rect x="799.8" y="197.6" width="6" height="8" fill="#759ca7" opacity="0.5"/>
<rect x="785.8" y="213.6" width="6" height="8" fill="#759ca7" opacity="0.5"/>
<rect x="799.8" y="229.6" width="6" height="8" fill="#759ca7" opacity="0.5"/>
<rect x="799.8" y="245.6" width="6" height="8" fill="#759ca7" opacity="0.5"/>
<rect x="799.8" y="261.6" width="6" height="8" fill="#759ca7" opacity="0.5"/>
<rect x="1000.9" y="223.2" width="69.0" height="76.8" fill="#2b6777"/>
<rect x="1032.4" y="235.2" width="6" height="8" fill="#759ca7" opacity="0.5"/>
<rect x="1046.4" y="235.2" width="6" height="8" fill="#759ca7" opacity="0.5"/>
<rect x="1032.4" y="251.2" width="6" height="8" fill="#759ca7" opacity="0.5"/>
<rect x="1032.4" y="267.2" width="6" height="8" fill="#759ca7" opacity="0.5"/>
<rect x="0" y="298" width="1200" height="2" fill="#275d6b" opacity="0.15"/>
</svg>