<svg xmlns="http://www.w3.org/2000/svg" viewBox="0 0 1200 400" width="1200" height="400">
<defs>
<linearGradient id="bg" x1="0" y1="0" x2="0" y2="1"><stop offset="0%" stop-color="#94a3b8"/><stop offset="100%" stop-color="#0369a1"/></linearGradient>
<linearGradient id="warm" x1="0" y1="0" x2="1" y2="1"><stop offset="0%" stop-color="#858d98" stop-opacity="0.18"/><stop offset="100%" stop-color="#858d98" stop-opacity="0.06"/></linearGradient>
</defs>
<rect width="1200" height="400" fill="url(#bg)"/>
<path d="M0 400 L0 249.95149677694863 C60.0 240.0, 90.0 224.1, 150.0 230.6 C210.0 235.5, 240.0 227.8, 300.0 235.2 C360.0 235.6, 390.0 246.1, 450.0 253.5 C510.0 246.3, 540.0 252.7, 600.0 245.4 C660.0 252.6, 690.0 245.1, 750.0 235.1 C810.0 225.6, 840.0 249.3, 900.0 248.7 C960.0 257.5, 990.0 229.1, 1050.0 227.5 C1110.0 217.8, 1140.0 225.3, 1200.0 228.6 L1200 400 Z" fill="#367da9" opacity="0.45"/>
<path d="M0 400 L0 263.12021439885285 C52.5 270.3, 97.5 273.5, 150.0 266.7 C202.5 271.4, 247.5 268.7, 300.0 274.6 C352.5 267.6, 397.5 283.5, 450.0 278.5 C502.5 283.1, 547.5 269.5, 600.0 272.1 C652.5 265.1, 697.5 272.9, 750.0 268.7 C802.5 274.2, 847.5 267.8, 900.0 272.3 C952.5 267.7, 997.5 257.2, 1050.0 259.7 C1102.5 252.7, 1147.5 263.0, 1200.0 263.6 L1200 400 Z" fill="#0369a1" opacity="0.3"/>
<rect x="821.6" y="311.7" width="26.3" height="88.3" rx="4.4" fill="#047f85" opacity="0.55"/>
<rect x="826.6" y="321.7" width="4" height="5" rx="0.5" fill="#94a3b8" opacity="0.6"/>
<rect x="826.6" y="365.7" width="4" height="5" rx="0.5" fill="#94a3b8" opacity="0.6"/>
<rect x="946.7" y="355.8" width="35.9" height="44.2" rx="6.3" fill="#047f85" opacity="0.71"/>
<rect x="222.7" y="301.6" width="15.4" height="98.4" rx="6.8" fill="#048282" opacity="0.65"/>
<rect x="227.7" y="311.6" width="4" height="5" rx="0.5" fill="#94a3b8" opacity="0.6"/>
<rect x="227.7" y="333.6" width="4" height="5" rx="0.5" fill="#94a3b8" opacity="0.6"/>
<rect x="227.7" y="355.6" width="4" height="5" rx="0.5" fill="#94a3b8" opacity="0.6"/>
<rect x="899.4" y="352.2" width="31.0" height="47.8" rx="5.1" fill="#05956a" opacity="0.83"/>
<rect x="121.5" y="365.2" width="30.5" height="34.8" rx="6.7" fill="#05936c" opacity="0.55"/>
<rect x="900.3" y="316.9" width="12.9" height="83.1" rx="7.0" fill="#058c76" opacity="0.52"/>
<rect x="432.8" y="295.4" width="12.4" height="104.6" rx="5.8" fill="#04887a" opacity="0.50"/>
<rect x="316.5" y="355.3" width="33.7" height="44.7" rx="4.8" fill="#048281" opacity="0.75"/>
<rect x="268.5" y="273.3" width="41.6" height="126.7" rx="7.2" fill="#047e86" opacity="0.66"/>
<rect x="273.5" y="283.3" width="4" height="5" rx="0.5" fill="#94a3b8" opacity="0.6"/>
<rect x="287.4" y="283.3" width="4" height="5" rx="0.5" fill="#94a3b8" opacity="0.6"/>
<rect x="273.5" y="305.3" width="4" height="5" rx="0.5" fill="#94a3b8" opacity="0.6"/>
<rect x="287.4" y="305.3" width="4" height="5" rx="0.5" fill="#94a3b8" opacity="0.6"/>
<rect x="273.5" y="327.3" width="4" height="5" rx="0.5" fill="#94a3b8" opacity="0.6"/>
<rect x="975.7" y="309.1" width="12.8" height="90.9" rx="6.4" fill="#048a78" opacity="0.55"/>
<rect x="980.7" y="341.1" width="4" height="5" rx="0.5" fill="#94a3b8" opacity="0.6"/>
<rect x="482.6" y="268.4" width="44.3" height="131.6" rx="6.6" fill="#048a78" opacity="0.72"/>
<rect x="1071.2" y="268.7" width="32.5" height="131.3" rx="4.6" fill="#04847f" opacity="0.82"/>
<rect x="286.4" y="347.6" width="43.8" height="52.4" rx="5.3" fill="#05936c" opacity="0.81"/>
<circle cx="184.5" cy="150.0" r="3.5" fill="#94a3b8" opacity="0.38"/>
<circle cx="241.7" cy="119.4" r="4.8" fill="#059669" opacity="0.16"/>
<circle cx="267.6" cy="32.5" r="4.4" fill="#94a3b8" opacity="0.43"/>
<rect width="1200" height="400" fill="url(#warm)"/>
<rect width="1200" height="400" fill="#94a3b8" opacity="0.40"/>
</svg>