<svg xmlns="http://www.w3.org/2000/svg" viewBox="0 0 1200 300" width="1200" height="300">
<defs>
<linearGradient id="skyGrad" x1="0" y1="0" x2="0" y2="1">
<stop offset="0%" stop-color="#818cf8"/>
<stop offset="22%" stop-color="#a5b4fc"/>
<stop offset="42%" stop-color="#c4b5fd"/>
<stop offset="60%" stop-color="#e0c3fc"/>
<stop offset="80%" stop-color="#fde68a"/>
<stop offset="100%" stop-color="#fef9c3"/>
</linearGradient>
<linearGradient id="bldg_coral" x1="0" y1="0" x2="0" y2="1"><stop offset="0%" stop-color="#fecaca"/><stop offset="100%" stop-color="#fca5a5"/></linearGradient>
<linearGradient id="bldg_teal" x1="0" y1="0" x2="0" y2="1"><stop offset="0%" stop-color="#99f6e4"/><stop offset="100%" stop-color="#5eead4"/></linearGradient>
<linearGradient id="bldg_amber" x1="0" y1="0" x2="0" y2="1"><stop offset="0%" stop-color="#fde68a"/><stop offset="100%" stop-color="#fcd34d"/></linearGradient>
<linearGradient id="bldg_lavender" x1="0" y1="0" x2="0" y2="1"><stop offset="0%" stop-color="#ddd6fe"/><stop offset="100%" stop-color="#c4b5fd"/></linearGradient>
<linearGradient id="bldg_blue" x1="0" y1="0" x2="0" y2="1"><stop offset="0%" stop-color="#bfdbfe"/><stop offset="100%" stop-color="#93c5fd"/></linearGradient>
<linearGradient id="bldg_mint" x1="0" y1="0" x2="0" y2="1"><stop offset="0%" stop-color="#a7f3d0"/><stop offset="100%" stop-color="#6ee7b7"/></linearGradient>
<linearGradient id="bldg_rose" x1="0" y1="0" x2="0" y2="1"><stop offset="0%" stop-color="#fecdd3"/><stop offset="100%" stop-color="#fda4af"/></linearGradient>
<linearGradient id="bldg_sky" x1="0" y1="0" x2="0" y2="1"><stop offset="0%" stop-color="#bae6fd"/><stop offset="100%" stop-color="#7dd3fc"/></linearGradient>
<linearGradient id="roof_navyRoof" x1="0" y1="0" x2="0" y2="1"><stop offset="0%" stop-color="#4338ca"/><stop offset="100%" stop-color="#3730a3"/></linearGradient>
<linearGradient id="roof_coralRoof" x1="0" y1="0" x2="0" y2="1"><stop offset="0%" stop-color="#f87171"/><stop offset="100%" stop-color="#ef4444"/></linearGradient>
<linearGradient id="roof_tealRoof" x1="0" y1="0" x2="0" y2="1"><stop offset="0%" stop-color="#2dd4bf"/><stop offset="100%" stop-color="#14b8a6"/></linearGradient>
<radialGradient id="windowGlow" cx="50%" cy="50%" r="50%"><stop offset="0%" stop-color="#fef08a"/><stop offset="60%" stop-color="#fbbf24"/><stop offset="100%" stop-color="#f59e0b"/></radialGradient>
<linearGradient id="hillFar" x1="0" y1="0" x2="0" y2="1"><stop offset="0%" stop-color="#c4b5fd"/><stop offset="100%" stop-color="#a5b4fc"/></linearGradient>
<linearGradient id="hillMid" x1="0" y1="0" x2="0" y2="1"><stop offset="0%" stop-color="#86efac"/><stop offset="100%" stop-color="#4ade80"/></linearGradient>
<linearGradient id="hillNear" x1="0" y1="0" x2="0" y2="1"><stop offset="0%" stop-color="#34d399"/><stop offset="100%" stop-color="#10b981"/></linearGradient>
<linearGradient id="hillDesertFar" x1="0" y1="0" x2="0" y2="1"><stop offset="0%" stop-color="#fde68a"/><stop offset="100%" stop-color="#fcd34d"/></linearGradient>
<linearGradient id="hillDesertMid" x1="0" y1="0" x2="0" y2="1"><stop offset="0%" stop-color="#fcd34d"/><stop offset="100%" stop-color="#fbbf24"/></linearGradient>
<linearGradient id="hillDesertNear" x1="0" y1="0" x2="0" y2="1"><stop offset="0%" stop-color="#fbbf24"/><stop offset="100%" stop-color="#f59e0b"/></linearGradient>
<linearGradient id="groundGrad" x1="0" y1="0" x2="0" y2="1"><stop offset="0%" stop-color="#fef3c7"/><stop offset="100%" stop-color="#fde68a"/></linearGradient>
<linearGradient id="waterGrad" x1="0" y1="0" x2="0" y2="1"><stop offset="0%" stop-color="#bfdbfe"/><stop offset="100%" stop-color="#93c5fd"/></linearGradient>
<filter id="softGlow" x="-50%" y="-50%" width="200%" height="200%"><feGaussianBlur in="SourceGraphic" stdDeviation="12"/></filter>
</defs>
<rect width="1200" height="300" fill="url(#skyGrad)"/>
<circle cx="1072.8" cy="44.3" r="45" fill="#fef08a" opacity="0.12" filter="url(#softGlow)"/>
<circle cx="1072.8" cy="44.3" r="30" fill="#fde68a" opacity="0.18" filter="url(#softGlow)"/>
<circle cx="1072.8" cy="44.3" r="16" fill="#fef9c3" opacity="0.25" filter="url(#softGlow)"/>
<ellipse cx="213.2" cy="26.9" rx="40.8" ry="14.3" fill="white" opacity="0.6"/>
<ellipse cx="187.8" cy="31.0" rx="28.5" ry="11.2" fill="white" opacity="0.6"/>
<ellipse cx="235.7" cy="30.0" rx="32.6" ry="12.2" fill="white" opacity="0.5"/>
<ellipse cx="761.5" cy="27.7" rx="41.1" ry="14.4" fill="white" opacity="0.6"/>
<ellipse cx="735.8" cy="31.8" rx="28.8" ry="11.3" fill="white" opacity="0.5"/>
<ellipse cx="784.1" cy="30.8" rx="32.9" ry="12.3" fill="white" opacity="0.5"/>
<ellipse cx="657.1" cy="45.9" rx="39.1" ry="13.7" fill="white" opacity="0.5"/>
<ellipse cx="632.7" cy="49.8" rx="27.4" ry="10.7" fill="white" opacity="0.4"/>
<ellipse cx="678.6" cy="48.8" rx="31.3" ry="11.7" fill="white" opacity="0.4"/>
<path d="M0 300 L0.0 180.1 C120.2 180.1, 120.2 187.9, 240.4 187.9 C435.5 187.9, 435.5 185.8, 630.6 185.8 C798.4 185.8, 798.4 190.1, 966.2 190.1 C1083.1 190.1, 1083.1 196.1, 1200.0 196.1 L1200 300 Z" fill="url(#hillFar)" opacity="0.5"/>
<path d="M0 300 L0.0 206.9 C182.3 206.9, 182.3 206.6, 364.6 206.6 C500.6 206.6, 500.6 207.1, 636.5 207.1 C748.3 207.1, 748.3 206.3, 860.1 206.3 C1030.1 206.3, 1030.1 219.6, 1200.0 219.6 L1200 300 Z" fill="url(#hillMid)" opacity="0.7"/>
<path d="M0 300 L0.0 236.0 C113.3 236.0, 113.3 235.7, 226.5 235.7 C380.8 235.7, 380.8 234.4, 535.1 234.4 C656.2 234.4, 656.2 231.8, 777.3 231.8 C882.6 231.8, 882.6 231.8, 987.8 231.8 C1093.9 231.8, 1093.9 231.9, 1200.0 231.9 L1200 300 Z" fill="url(#hillNear)" opacity="1"/>
<ellipse cx="1091.1" cy="231.6" rx="131.9" ry="29.2" fill="url(#waterGrad)" opacity="0.55"/>
<path d="M984.2 231.6 Q1091.1 228.6 1198.0 231.6" fill="none" stroke="#bfdbfe" stroke-width="1" opacity="0.4"/>
<rect x="184.2" y="190.2" width="50.8" height="109.8" rx="3" fill="url(#bldg_teal)" opacity="0.7"/>
<polygon points="184.2,190.2 209.6,175.9 235.0,190.2" fill="url(#roof_coralRoof)" opacity="0.7"/>
<rect x="199.6" y="200.2" width="6" height="8" rx="1" fill="url(#windowGlow)" opacity="0.9491119738431237"/>
<rect x="213.6" y="200.2" width="6" height="8" rx="1" fill="url(#windowGlow)" opacity="0.9839827935136773"/>
<rect x="199.6" y="215.2" width="6" height="8" rx="1" fill="url(#windowGlow)" opacity="0.9098227666271025"/>
<rect x="213.6" y="215.2" width="6" height="8" rx="1" fill="url(#windowGlow)" opacity="0.9262808874837499"/>
<rect x="213.6" y="230.2" width="6" height="8" rx="1" fill="url(#windowGlow)" opacity="0.9540971670551677"/>
<rect x="199.6" y="245.2" width="6" height="8" rx="1" fill="url(#windowGlow)" opacity="0.9320624447576992"/>
<rect x="213.6" y="245.2" width="6" height="8" rx="1" fill="url(#windowGlow)" opacity="0.8708779604969908"/>
<rect x="199.6" y="260.2" width="6" height="8" rx="1" fill="url(#windowGlow)" opacity="0.9979560037599671"/>
<rect x="213.6" y="260.2" width="6" height="8" rx="1" fill="url(#windowGlow)" opacity="0.7008379816081551"/>
<rect x="544.1" y="226.6" width="49.5" height="73.4" rx="3" fill="url(#bldg_amber)" opacity="0.7"/>
<rect x="544.1" y="223.6" width="49.5" height="3" rx="1" fill="url(#roof_tealRoof)" opacity="0.7"/>
<rect x="558.9" y="236.6" width="6" height="8" rx="1" fill="url(#windowGlow)" opacity="0.9996481249107272"/>
<rect x="558.9" y="251.6" width="6" height="8" rx="1" fill="url(#windowGlow)" opacity="0.846574367651052"/>
<rect x="905.9" y="227.4" width="59.3" height="72.6" rx="3" fill="url(#bldg_lavender)" opacity="0.7"/>
<polygon points="905.9,227.4 935.6,210.4 965.2,227.4" fill="url(#roof_navyRoof)" opacity="0.7"/>
<rect x="918.6" y="237.4" width="6" height="8" rx="1" fill="url(#windowGlow)" opacity="0.8924076517542859"/>
<rect x="932.6" y="237.4" width="6" height="8" rx="1" fill="url(#windowGlow)" opacity="0.7658958691944814"/>
<rect x="946.6" y="237.4" width="6" height="8" rx="1" fill="url(#windowGlow)" opacity="0.9779988687383006"/>
<rect x="932.6" y="252.4" width="6" height="8" rx="1" fill="url(#windowGlow)" opacity="0.9830289747021295"/>
<rect x="154.3" y="229.7" width="47.8" height="70.3" rx="3" fill="url(#bldg_blue)" opacity="0.85"/>
<polygon points="154.3,229.7 178.2,213.8 202.0,229.7" fill="url(#roof_coralRoof)" opacity="0.85"/>
<rect x="168.2" y="239.7" width="6" height="8" rx="1" fill="url(#windowGlow)" opacity="0.8349279991513714"/>
<rect x="182.2" y="239.7" width="6" height="8" rx="1" fill="url(#windowGlow)" opacity="0.9683032042199294"/>
<rect x="168.2" y="254.7" width="6" height="8" rx="1" fill="url(#windowGlow)" opacity="0.7369806152474976"/>
<rect x="182.2" y="254.7" width="6" height="8" rx="1" fill="url(#windowGlow)" opacity="0.8331177335386712"/>
<rect x="442.9" y="227.0" width="66.2" height="73.0" rx="3" fill="url(#bldg_mint)" opacity="0.85"/>
<polygon points="442.9,227.0 476.0,211.2 509.1,227.0" fill="url(#roof_tealRoof)" opacity="0.85"/>
<rect x="459.0" y="237.0" width="6" height="8" rx="1" fill="url(#windowGlow)" opacity="0.7857289450642322"/>
<rect x="473.0" y="237.0" width="6" height="8" rx="1" fill="url(#windowGlow)" opacity="0.8902224106668598"/>
<rect x="487.0" y="237.0" width="6" height="8" rx="1" fill="url(#windowGlow)" opacity="0.7405098319242288"/>
<rect x="459.0" y="252.0" width="6" height="8" rx="1" fill="url(#windowGlow)" opacity="0.7321127723120677"/>
<rect x="473.0" y="252.0" width="6" height="8" rx="1" fill="url(#windowGlow)" opacity="0.8976590706955916"/>
<rect x="487.0" y="252.0" width="6" height="8" rx="1" fill="url(#windowGlow)" opacity="0.8927390882711573"/>
<rect x="692.8" y="226.8" width="41.6" height="73.2" rx="3" fill="url(#bldg_rose)" opacity="0.85"/>
<polygon points="692.8,226.8 713.6,215.3 734.5,226.8" fill="url(#roof_navyRoof)" opacity="0.85"/>
<rect x="710.6" y="236.8" width="6" height="8" rx="1" fill="url(#windowGlow)" opacity="0.8245406398663951"/>
<rect x="710.6" y="251.8" width="6" height="8" rx="1" fill="url(#windowGlow)" opacity="0.8778103606206413"/>
<rect x="983.8" y="150.1" width="57.6" height="149.9" rx="3" fill="url(#bldg_sky)" opacity="0.85"/>
<rect x="983.8" y="147.1" width="57.6" height="3" rx="1" fill="url(#roof_coralRoof)" opacity="0.85"/>
<rect x="1002.6" y="160.1" width="6" height="8" rx="1" fill="url(#windowGlow)" opacity="0.76310760144289"/>
<rect x="1016.6" y="160.1" width="6" height="8" rx="1" fill="url(#windowGlow)" opacity="0.7330562045485974"/>
<rect x="1016.6" y="175.1" width="6" height="8" rx="1" fill="url(#windowGlow)" opacity="0.9835656168328437"/>
<rect x="1002.6" y="190.1" width="6" height="8" rx="1" fill="url(#windowGlow)" opacity="0.8134132016978287"/>
<rect x="1002.6" y="205.1" width="6" height="8" rx="1" fill="url(#windowGlow)" opacity="0.920393082741831"/>
<rect x="1002.6" y="220.1" width="6" height="8" rx="1" fill="url(#windowGlow)" opacity="0.9143978981368234"/>
<rect x="1016.6" y="220.1" width="6" height="8" rx="1" fill="url(#windowGlow)" opacity="0.8580290899416567"/>
<rect x="1002.6" y="235.1" width="6" height="8" rx="1" fill="url(#windowGlow)" opacity="0.888462155679456"/>
<rect x="1002.6" y="250.1" width="6" height="8" rx="1" fill="url(#windowGlow)" opacity="0.7440188456997363"/>
<rect x="1016.6" y="250.1" width="6" height="8" rx="1" fill="url(#windowGlow)" opacity="0.9928415884230479"/>
<path d="M989.6 202.6 L1012.6 202.6 L1009.6 208.6 L992.6 208.6 Z" fill="url(#roof_navyRoof)" opacity="0.68"/>
<rect x="120.0" y="169.6" width="56.7" height="130.4" rx="3" fill="url(#bldg_coral)" opacity="1"/>
<polygon points="120.0,169.6 148.3,149.9 176.6,169.6" fill="url(#roof_tealRoof)" opacity="1"/>
<rect x="138.3" y="179.6" width="6" height="8" rx="1" fill="url(#windowGlow)" opacity="0.9446053089316027"/>
<rect x="152.3" y="179.6" width="6" height="8" rx="1" fill="url(#windowGlow)" opacity="0.8646852582994313"/>
<rect x="138.3" y="194.6" width="6" height="8" rx="1" fill="url(#windowGlow)" opacity="0.8308232984649125"/>
<rect x="152.3" y="194.6" width="6" height="8" rx="1" fill="url(#windowGlow)" opacity="0.8335107660077097"/>
<rect x="138.3" y="209.6" width="6" height="8" rx="1" fill="url(#windowGlow)" opacity="0.8708677721539828"/>
<rect x="138.3" y="224.6" width="6" height="8" rx="1" fill="url(#windowGlow)" opacity="0.8831623886633488"/>
<rect x="152.3" y="224.6" width="6" height="8" rx="1" fill="url(#windowGlow)" opacity="0.9525892928487572"/>
<rect x="138.3" y="254.6" width="6" height="8" rx="1" fill="url(#windowGlow)" opacity="0.7760197890345099"/>
<rect x="152.3" y="254.6" width="6" height="8" rx="1" fill="url(#windowGlow)" opacity="0.9416858525209528"/>
<rect x="143.3" y="284.0" width="10" height="16" rx="2" fill="url(#roof_navyRoof)" opacity="0.8"/>
<rect x="145.3" y="287.0" width="6" height="10" rx="1" fill="url(#windowGlow)" opacity="0.45"/>
<rect x="445.5" y="157.9" width="61.5" height="142.1" rx="3" fill="url(#bldg_teal)" opacity="1"/>
<polygon points="445.5,157.9 476.2,141.4 507.0,157.9" fill="url(#roof_navyRoof)" opacity="1"/>
<rect x="459.2" y="167.9" width="6" height="8" rx="1" fill="url(#windowGlow)" opacity="0.951982263686127"/>
<rect x="487.2" y="167.9" width="6" height="8" rx="1" fill="url(#windowGlow)" opacity="0.8252525861492624"/>
<rect x="473.2" y="182.9" width="6" height="8" rx="1" fill="url(#windowGlow)" opacity="0.9012597898958529"/>
<rect x="487.2" y="182.9" width="6" height="8" rx="1" fill="url(#windowGlow)" opacity="0.7087195103097331"/>
<rect x="459.2" y="197.9" width="6" height="8" rx="1" fill="url(#windowGlow)" opacity="0.8246655904337138"/>
<rect x="487.2" y="212.9" width="6" height="8" rx="1" fill="url(#windowGlow)" opacity="0.9302429886675639"/>
<rect x="459.2" y="227.9" width="6" height="8" rx="1" fill="url(#windowGlow)" opacity="0.7989135820879198"/>
<rect x="473.2" y="227.9" width="6" height="8" rx="1" fill="url(#windowGlow)" opacity="0.94368069769986"/>
<rect x="487.2" y="227.9" width="6" height="8" rx="1" fill="url(#windowGlow)" opacity="0.7400632949732538"/>
<rect x="459.2" y="242.9" width="6" height="8" rx="1" fill="url(#windowGlow)" opacity="0.8639308569784885"/>
<rect x="487.2" y="242.9" width="6" height="8" rx="1" fill="url(#windowGlow)" opacity="0.9626686841075628"/>
<rect x="459.2" y="257.9" width="6" height="8" rx="1" fill="url(#windowGlow)" opacity="0.9000115139875614"/>
<rect x="473.2" y="257.9" width="6" height="8" rx="1" fill="url(#windowGlow)" opacity="0.9315942426824915"/>
<rect x="487.2" y="257.9" width="6" height="8" rx="1" fill="url(#windowGlow)" opacity="0.8266438443337771"/>
<rect x="471.2" y="284.0" width="10" height="16" rx="2" fill="url(#roof_navyRoof)" opacity="0.8"/>
<rect x="473.2" y="287.0" width="6" height="10" rx="1" fill="url(#windowGlow)" opacity="0.45"/>
<rect x="465.5" y="183.9" width="21.5" height="5" rx="1" fill="#15803d" opacity="0.7"/>
<circle cx="468.5" cy="182.9" r="2.5" fill="#a78bfa" opacity="0.85"/>
<circle cx="475.6" cy="182.9" r="2.5" fill="#a78bfa" opacity="0.85"/>
<circle cx="482.8" cy="182.9" r="2.5" fill="#fb923c" opacity="0.85"/>
<rect x="717.9" y="226.5" width="53.3" height="73.5" rx="3" fill="url(#bldg_amber)" opacity="1"/>
<polygon points="717.9,226.5 744.6,212.2 771.2,226.5" fill="url(#roof_coralRoof)" opacity="1"/>
<rect x="734.6" y="236.5" width="6" height="8" rx="1" fill="url(#windowGlow)" opacity="0.9257809452366925"/>
<rect x="748.6" y="236.5" width="6" height="8" rx="1" fill="url(#windowGlow)" opacity="0.9566612905620882"/>
<rect x="734.6" y="251.5" width="6" height="8" rx="1" fill="url(#windowGlow)" opacity="0.8697718662534709"/>
<rect x="748.6" y="251.5" width="6" height="8" rx="1" fill="url(#windowGlow)" opacity="0.9900063794991031"/>
<rect x="739.6" y="284.0" width="10" height="16" rx="2" fill="url(#roof_navyRoof)" opacity="0.8"/>
<rect x="741.6" y="287.0" width="6" height="10" rx="1" fill="url(#windowGlow)" opacity="0.45"/>
<path d="M723.2 252.2 L744.6 252.2 L741.6 258.2 L726.2 258.2 Z" fill="url(#roof_navyRoof)" opacity="0.8"/>
<rect x="735.2" y="267.5" width="18.7" height="5" rx="1" fill="#15803d" opacity="0.7"/>
<circle cx="738.2" cy="266.5" r="2.5" fill="#fbbf24" opacity="0.85"/>
<circle cx="744.4" cy="266.5" r="2.5" fill="#a78bfa" opacity="0.85"/>
<circle cx="750.7" cy="266.5" r="2.5" fill="#fbbf24" opacity="0.85"/>
<rect x="1005.4" y="137.2" width="37.7" height="162.8" rx="3" fill="url(#bldg_lavender)" opacity="1"/>
<polygon points="1005.4,137.2 1024.3,124.7 1043.1,137.2" fill="url(#roof_tealRoof)" opacity="1"/>
<rect x="1021.3" y="147.2" width="6" height="8" rx="1" fill="url(#windowGlow)" opacity="0.8696704160280853"/>
<rect x="1021.3" y="162.2" width="6" height="8" rx="1" fill="url(#windowGlow)" opacity="0.7556491388267135"/>
<rect x="1021.3" y="192.2" width="6" height="8" rx="1" fill="url(#windowGlow)" opacity="0.7764750603476889"/>
<rect x="1021.3" y="207.2" width="6" height="8" rx="1" fill="url(#windowGlow)" opacity="0.8527733470558996"/>
<rect x="1021.3" y="222.2" width="6" height="8" rx="1" fill="url(#windowGlow)" opacity="0.7838553378283304"/>
<rect x="1021.3" y="237.2" width="6" height="8" rx="1" fill="url(#windowGlow)" opacity="0.872386165090085"/>
<rect x="1021.3" y="252.2" width="6" height="8" rx="1" fill="url(#windowGlow)" opacity="0.9160937414113868"/>
<rect x="1019.3" y="284.0" width="10" height="16" rx="2" fill="url(#roof_navyRoof)" opacity="0.8"/>
<rect x="1021.3" y="287.0" width="6" height="10" rx="1" fill="url(#windowGlow)" opacity="0.45"/>
<rect x="308.0" y="275.0" width="6" height="10.0" rx="2" fill="#92400e"/>
<polygon points="311.0,234.6 306.3,253.1 315.8,253.1" fill="#15803d" opacity="0.9"/>
<polygon points="311.0,248.1 304.4,266.5 317.7,266.5" fill="#16a34a" opacity="0.9"/>
<polygon points="311.0,261.5 302.5,280.0 319.6,280.0" fill="#22c55e" opacity="0.9"/>
<rect x="609.4" y="275.0" width="6" height="10.0" rx="2" fill="#92400e"/>
<polygon points="612.4,237.5 607.5,255.0 617.3,255.0" fill="#15803d" opacity="0.9"/>
<polygon points="612.4,250.0 605.5,267.5 619.3,267.5" fill="#16a34a" opacity="0.9"/>
<polygon points="612.4,262.5 603.6,280.0 621.2,280.0" fill="#22c55e" opacity="0.9"/>
<rect x="885.3" y="275.0" width="6" height="10.0" rx="2" fill="#92400e"/>
<polygon points="888.3,233.2 882.5,252.1 894.1,252.1" fill="#15803d" opacity="0.9"/>
<polygon points="888.3,247.1 880.2,266.1 896.4,266.1" fill="#16a34a" opacity="0.9"/>
<polygon points="888.3,261.1 877.9,280.0 898.8,280.0" fill="#22c55e" opacity="0.9"/>
<rect x="79.7" y="275.0" width="6" height="10.0" rx="2" fill="#92400e"/>
<polygon points="82.7,239.4 77.0,256.2 88.3,256.2" fill="#15803d" opacity="0.9"/>
<polygon points="82.7,251.2 74.8,268.1 90.6,268.1" fill="#16a34a" opacity="0.9"/>
<polygon points="82.7,263.1 72.5,280.0 92.8,280.0" fill="#22c55e" opacity="0.9"/>
<rect x="1061.6" y="275.0" width="6" height="10.0" rx="2" fill="#92400e"/>
<polygon points="1064.6,235.8 1058.7,253.9 1070.4,253.9" fill="#15803d" opacity="0.9"/>
<polygon points="1064.6,248.9 1056.3,266.9 1072.8,266.9" fill="#16a34a" opacity="0.9"/>
<polygon points="1064.6,261.9 1054.0,280.0 1075.1,280.0" fill="#22c55e" opacity="0.9"/>
<rect x="1029.5" y="275.0" width="6" height="10.0" rx="2" fill="#92400e"/>
<polygon points="1032.5,240.3 1027.4,256.9 1037.7,256.9" fill="#15803d" opacity="0.9"/>
<polygon points="1032.5,251.9 1025.3,268.4 1039.7,268.4" fill="#16a34a" opacity="0.9"/>
<polygon points="1032.5,263.4 1023.3,280.0 1041.8,280.0" fill="#22c55e" opacity="0.9"/>
<rect x="281.2" y="275.0" width="6" height="10.0" rx="2" fill="#92400e"/>
<polygon points="284.2,235.4 279.6,253.6 288.7,253.6" fill="#15803d" opacity="0.9"/>
<polygon points="284.2,248.6 277.8,266.8 290.6,266.8" fill="#16a34a" opacity="0.9"/>
<polygon points="284.2,261.8 275.9,280.0 292.4,280.0" fill="#22c55e" opacity="0.9"/>
<rect x="575.7" y="275.0" width="6" height="10.0" rx="2" fill="#92400e"/>
<polygon points="578.7,234.4 574.1,253.0 583.2,253.0" fill="#15803d" opacity="0.9"/>
<polygon points="578.7,248.0 572.3,266.5 585.1,266.5" fill="#16a34a" opacity="0.9"/>
<polygon points="578.7,261.5 570.4,280.0 586.9,280.0" fill="#22c55e" opacity="0.9"/>
<rect x="647.9" y="275.0" width="6" height="10.0" rx="2" fill="#92400e"/>
<polygon points="650.9,228.8 645.8,249.2 656.0,249.2" fill="#15803d" opacity="0.9"/>
<polygon points="650.9,244.2 643.8,264.6 658.0,264.6" fill="#16a34a" opacity="0.9"/>
<polygon points="650.9,259.6 641.7,280.0 660.1,280.0" fill="#22c55e" opacity="0.9"/>
<rect x="932.8" y="275.0" width="6" height="10.0" rx="2" fill="#92400e"/>
<polygon points="935.8,231.8 930.6,251.2 941.0,251.2" fill="#15803d" opacity="0.9"/>
<polygon points="935.8,246.2 928.5,265.6 943.1,265.6" fill="#16a34a" opacity="0.9"/>
<polygon points="935.8,260.6 926.4,280.0 945.2,280.0" fill="#22c55e" opacity="0.9"/>
<rect x="0" y="282" width="1200" height="18" fill="url(#groundGrad)"/>
<line x1="774.1" y1="282.0" x2="774.1" y2="246.4" stroke="#92400e" stroke-width="2"/>
<circle cx="774.1" cy="246.4" r="4" fill="#fef08a" opacity="0.6"/>
<circle cx="774.1" cy="246.4" r="8" fill="#fef08a" opacity="0.15" filter="url(#softGlow)"/>
<ellipse cx="344.3" cy="282.0" rx="6.1" ry="4.3" fill="#22c55e" opacity="0.6"/>
<ellipse cx="315.4" cy="282.0" rx="4.4" ry="3.1" fill="#22c55e" opacity="0.6"/>
<ellipse cx="187.3" cy="282.0" rx="6.0" ry="4.2" fill="#22c55e" opacity="0.6"/>
</svg>