<svg xmlns="http://www.w3.org/2000/svg" viewBox="0 0 1200 300" width="1200" height="300">
<rect width="1200" height="300" fill="#e6eef4"/>
<path d="M0 300 L0 210.0 C387.1 183.0, 963.6 181.1, 1200 210.0 L1200 300 Z" fill="#b5cad8" opacity="0.3"/>
<rect x="82.5" y="203.4" width="43.5" height="96.6" fill="#99b6c9"/>
<rect x="279.7" y="215.0" width="48.2" height="85.0" fill="#99b6c9"/>
<rect x="496.1" y="154.8" width="62.0" height="145.2" fill="#99b6c9"/>
<rect x="691.4" y="186.1" width="49.9" height="113.9" fill="#99b6c9"/>
<rect x="835.1" y="190.1" width="57.4" height="109.9" fill="#99b6c9"/>
<rect x="1012.4" y="192.3" width="71.7" height="107.7" fill="#99b6c9"/>
<rect x="67.8" y="117.3" width="74.4" height="182.7" fill="#6a95b1"/>
<rect x="81.0" y="129.3" width="6" height="8" fill="#9ebacc" opacity="0.5"/>
<rect x="109.0" y="129.3" width="6" height="8" fill="#9ebacc" opacity="0.5"/>
<rect x="109.0" y="145.3" width="6" height="8" fill="#9ebacc" opacity="0.5"/>
<rect x="123.0" y="145.3" width="6" height="8" fill="#9ebacc" opacity="0.5"/>
<rect x="81.0" y="161.3" width="6" height="8" fill="#9ebacc" opacity="0.5"/>
<rect x="95.0" y="161.3" width="6" height="8" fill="#9ebacc" opacity="0.5"/>
<rect x="109.0" y="161.3" width="6" height="8" fill="#9ebacc" opacity="0.5"/>
<rect x="95.0" y="177.3" width="6" height="8" fill="#9ebacc" opacity="0.5"/>
<rect x="109.0" y="177.3" width="6" height="8" fill="#9ebacc" opacity="0.5"/>
<rect x="123.0" y="177.3" width="6" height="8" fill="#9ebacc" opacity="0.5"/>
<rect x="81.0" y="193.3" width="6" height="8" fill="#9ebacc" opacity="0.5"/>
<rect x="95.0" y="193.3" width="6" height="8" fill="#9ebacc" opacity="0.5"/>
<rect x="123.0" y="193.3" width="6" height="8" fill="#9ebacc" opacity="0.5"/>
<rect x="95.0" y="209.3" width="6" height="8" fill="#9ebacc" opacity="0.5"/>
<rect x="95.0" y="225.3" width="6" height="8" fill="#9ebacc" opacity="0.5"/>
<rect x="109.0" y="225.3" width="6" height="8" fill="#9ebacc" opacity="0.5"/>
<rect x="123.0" y="225.3" width="6" height="8" fill="#9ebacc" opacity="0.5"/>
<rect x="81.0" y="241.3" width="6" height="8" fill="#9ebacc" opacity="0.5"/>
<rect x="109.0" y="241.3" width="6" height="8" fill="#9ebacc" opacity="0.5"/>
<rect x="123.0" y="241.3" width="6" height="8" fill="#9ebacc" opacity="0.5"/>
<rect x="81.0" y="257.3" width="6" height="8" fill="#9ebacc" opacity="0.5"/>
<rect x="95.0" y="257.3" width="6" height="8" fill="#9ebacc" opacity="0.5"/>
<rect x="109.0" y="257.3" width="6" height="8" fill="#9ebacc" opacity="0.5"/>
<rect x="123.0" y="257.3" width="6" height="8" fill="#9ebacc" opacity="0.5"/>
<rect x="81.0" y="273.3" width="6" height="8" fill="#9ebacc" opacity="0.5"/>
<rect x="95.0" y="273.3" width="6" height="8" fill="#9ebacc" opacity="0.5"/>
<rect x="109.0" y="273.3" width="6" height="8" fill="#9ebacc" opacity="0.5"/>
<rect x="246.0" y="107.3" width="48.9" height="192.7" fill="#6a95b1"/>
<rect x="274.4" y="119.3" width="6" height="8" fill="#9ebacc" opacity="0.5"/>
<rect x="260.4" y="135.3" width="6" height="8" fill="#9ebacc" opacity="0.5"/>
<rect x="274.4" y="135.3" width="6" height="8" fill="#9ebacc" opacity="0.5"/>
<rect x="260.4" y="151.3" width="6" height="8" fill="#9ebacc" opacity="0.5"/>
<rect x="274.4" y="151.3" width="6" height="8" fill="#9ebacc" opacity="0.5"/>
<rect x="260.4" y="167.3" width="6" height="8" fill="#9ebacc" opacity="0.5"/>
<rect x="260.4" y="183.3" width="6" height="8" fill="#9ebacc" opacity="0.5"/>
<rect x="260.4" y="199.3" width="6" height="8" fill="#9ebacc" opacity="0.5"/>
<rect x="274.4" y="199.3" width="6" height="8" fill="#9ebacc" opacity="0.5"/>
<rect x="260.4" y="215.3" width="6" height="8" fill="#9ebacc" opacity="0.5"/>
<rect x="260.4" y="231.3" width="6" height="8" fill="#9ebacc" opacity="0.5"/>
<rect x="274.4" y="231.3" width="6" height="8" fill="#9ebacc" opacity="0.5"/>
<rect x="260.4" y="247.3" width="6" height="8" fill="#9ebacc" opacity="0.5"/>
<rect x="274.4" y="247.3" width="6" height="8" fill="#9ebacc" opacity="0.5"/>
<rect x="260.4" y="263.3" width="6" height="8" fill="#9ebacc" opacity="0.5"/>
<rect x="274.4" y="263.3" width="6" height="8" fill="#9ebacc" opacity="0.5"/>
<rect x="421.7" y="193.8" width="76.5" height="106.2" fill="#6a95b1"/>
<rect x="450.0" y="205.8" width="6" height="8" fill="#9ebacc" opacity="0.5"/>
<rect x="464.0" y="205.8" width="6" height="8" fill="#9ebacc" opacity="0.5"/>
<rect x="478.0" y="205.8" width="6" height="8" fill="#9ebacc" opacity="0.5"/>
<rect x="464.0" y="221.8" width="6" height="8" fill="#9ebacc" opacity="0.5"/>
<rect x="436.0" y="237.8" width="6" height="8" fill="#9ebacc" opacity="0.5"/>
<rect x="464.0" y="237.8" width="6" height="8" fill="#9ebacc" opacity="0.5"/>
<rect x="436.0" y="253.8" width="6" height="8" fill="#9ebacc" opacity="0.5"/>
<rect x="464.0" y="253.8" width="6" height="8" fill="#9ebacc" opacity="0.5"/>
<rect x="478.0" y="253.8" width="6" height="8" fill="#9ebacc" opacity="0.5"/>
<rect x="436.0" y="269.8" width="6" height="8" fill="#9ebacc" opacity="0.5"/>
<rect x="450.0" y="269.8" width="6" height="8" fill="#9ebacc" opacity="0.5"/>
<rect x="464.0" y="269.8" width="6" height="8" fill="#9ebacc" opacity="0.5"/>
<rect x="576.1" y="158.5" width="37.8" height="141.5" fill="#6a95b1"/>
<rect x="592.0" y="170.5" width="6" height="8" fill="#9ebacc" opacity="0.5"/>
<rect x="592.0" y="186.5" width="6" height="8" fill="#9ebacc" opacity="0.5"/>
<rect x="592.0" y="202.5" width="6" height="8" fill="#9ebacc" opacity="0.5"/>
<rect x="592.0" y="250.5" width="6" height="8" fill="#9ebacc" opacity="0.5"/>
<rect x="592.0" y="266.5" width="6" height="8" fill="#9ebacc" opacity="0.5"/>
<rect x="740.5" y="190.7" width="41.2" height="109.3" fill="#6a95b1"/>
<rect x="758.0" y="202.7" width="6" height="8" fill="#9ebacc" opacity="0.5"/>
<rect x="758.0" y="218.7" width="6" height="8" fill="#9ebacc" opacity="0.5"/>
<rect x="758.0" y="234.7" width="6" height="8" fill="#9ebacc" opacity="0.5"/>
<rect x="758.0" y="266.7" width="6" height="8" fill="#9ebacc" opacity="0.5"/>
<rect x="897.2" y="156.8" width="38.4" height="143.2" fill="#6a95b1"/>
<rect x="913.4" y="168.8" width="6" height="8" fill="#9ebacc" opacity="0.5"/>
<rect x="913.4" y="184.8" width="6" height="8" fill="#9ebacc" opacity="0.5"/>
<rect x="913.4" y="200.8" width="6" height="8" fill="#9ebacc" opacity="0.5"/>
<rect x="913.4" y="216.8" width="6" height="8" fill="#9ebacc" opacity="0.5"/>
<rect x="913.4" y="232.8" width="6" height="8" fill="#9ebacc" opacity="0.5"/>
<rect x="913.4" y="248.8" width="6" height="8" fill="#9ebacc" opacity="0.5"/>
<rect x="913.4" y="264.8" width="6" height="8" fill="#9ebacc" opacity="0.5"/>
<rect x="1060.9" y="115.4" width="52.4" height="184.6" fill="#6a95b1"/>
<rect x="1077.1" y="143.4" width="6" height="8" fill="#9ebacc" opacity="0.5"/>
<rect x="1077.1" y="175.4" width="6" height="8" fill="#9ebacc" opacity="0.5"/>
<rect x="1091.1" y="175.4" width="6" height="8" fill="#9ebacc" opacity="0.5"/>
<rect x="1077.1" y="207.4" width="6" height="8" fill="#9ebacc" opacity="0.5"/>
<rect x="1091.1" y="207.4" width="6" height="8" fill="#9ebacc" opacity="0.5"/>
<rect x="1077.1" y="223.4" width="6" height="8" fill="#9ebacc" opacity="0.5"/>
<rect x="1077.1" y="239.4" width="6" height="8" fill="#9ebacc" opacity="0.5"/>
<rect x="1091.1" y="239.4" width="6" height="8" fill="#9ebacc" opacity="0.5"/>
<rect x="1077.1" y="255.4" width="6" height="8" fill="#9ebacc" opacity="0.5"/>
<rect x="1091.1" y="255.4" width="6" height="8" fill="#9ebacc" opacity="0.5"/>
<rect x="1077.1" y="271.4" width="6" height="8" fill="#9ebacc" opacity="0.5"/>
<rect x="1091.1" y="271.4" width="6" height="8" fill="#9ebacc" opacity="0.5"/>
<rect x="103.3" y="193.0" width="62.0" height="107.0" fill="#457b9d"/>
<rect x="117.3" y="205.0" width="6" height="8" fill="#86a9bf" opacity="0.5"/>
<rect x="131.3" y="205.0" width="6" height="8" fill="#86a9bf" opacity="0.5"/>
<rect x="145.3" y="221.0" width="6" height="8" fill="#86a9bf" opacity="0.5"/>
<rect x="117.3" y="237.0" width="6" height="8" fill="#86a9bf" opacity="0.5"/>
<rect x="131.3" y="237.0" width="6" height="8" fill="#86a9bf" opacity="0.5"/>
<rect x="145.3" y="237.0" width="6" height="8" fill="#86a9bf" opacity="0.5"/>
<rect x="117.3" y="253.0" width="6" height="8" fill="#86a9bf" opacity="0.5"/>
<rect x="145.3" y="253.0" width="6" height="8" fill="#86a9bf" opacity="0.5"/>
<rect x="117.3" y="269.0" width="6" height="8" fill="#86a9bf" opacity="0.5"/>
<rect x="131.3" y="269.0" width="6" height="8" fill="#86a9bf" opacity="0.5"/>
<rect x="145.3" y="269.0" width="6" height="8" fill="#86a9bf" opacity="0.5"/>
<rect x="274.9" y="165.3" width="45.7" height="134.7" fill="#457b9d"/>
<rect x="287.8" y="177.3" width="6" height="8" fill="#86a9bf" opacity="0.5"/>
<rect x="287.8" y="193.3" width="6" height="8" fill="#86a9bf" opacity="0.5"/>
<rect x="301.8" y="193.3" width="6" height="8" fill="#86a9bf" opacity="0.5"/>
<rect x="287.8" y="209.3" width="6" height="8" fill="#86a9bf" opacity="0.5"/>
<rect x="301.8" y="209.3" width="6" height="8" fill="#86a9bf" opacity="0.5"/>
<rect x="287.8" y="225.3" width="6" height="8" fill="#86a9bf" opacity="0.5"/>
<rect x="301.8" y="225.3" width="6" height="8" fill="#86a9bf" opacity="0.5"/>
<rect x="287.8" y="241.3" width="6" height="8" fill="#86a9bf" opacity="0.5"/>
<rect x="301.8" y="241.3" width="6" height="8" fill="#86a9bf" opacity="0.5"/>
<rect x="287.8" y="257.3" width="6" height="8" fill="#86a9bf" opacity="0.5"/>
<rect x="301.8" y="257.3" width="6" height="8" fill="#86a9bf" opacity="0.5"/>
<rect x="376.8" y="199.9" width="74.0" height="100.1" fill="#457b9d"/>
<rect x="403.7" y="211.9" width="6" height="8" fill="#86a9bf" opacity="0.5"/>
<rect x="417.7" y="211.9" width="6" height="8" fill="#86a9bf" opacity="0.5"/>
<rect x="431.7" y="211.9" width="6" height="8" fill="#86a9bf" opacity="0.5"/>
<rect x="389.7" y="227.9" width="6" height="8" fill="#86a9bf" opacity="0.5"/>
<rect x="417.7" y="227.9" width="6" height="8" fill="#86a9bf" opacity="0.5"/>
<rect x="389.7" y="243.9" width="6" height="8" fill="#86a9bf" opacity="0.5"/>
<rect x="403.7" y="243.9" width="6" height="8" fill="#86a9bf" opacity="0.5"/>
<rect x="417.7" y="243.9" width="6" height="8" fill="#86a9bf" opacity="0.5"/>
<rect x="431.7" y="243.9" width="6" height="8" fill="#86a9bf" opacity="0.5"/>
<rect x="417.7" y="259.9" width="6" height="8" fill="#86a9bf" opacity="0.5"/>
<rect x="431.7" y="259.9" width="6" height="8" fill="#86a9bf" opacity="0.5"/>
<rect x="572.4" y="96.1" width="62.5" height="203.9" fill="#457b9d"/>
<rect x="586.7" y="108.1" width="6" height="8" fill="#86a9bf" opacity="0.5"/>
<rect x="614.7" y="108.1" width="6" height="8" fill="#86a9bf" opacity="0.5"/>
<rect x="586.7" y="124.1" width="6" height="8" fill="#86a9bf" opacity="0.5"/>
<rect x="600.7" y="124.1" width="6" height="8" fill="#86a9bf" opacity="0.5"/>
<rect x="614.7" y="124.1" width="6" height="8" fill="#86a9bf" opacity="0.5"/>
<rect x="586.7" y="140.1" width="6" height="8" fill="#86a9bf" opacity="0.5"/>
<rect x="600.7" y="140.1" width="6" height="8" fill="#86a9bf" opacity="0.5"/>
<rect x="614.7" y="140.1" width="6" height="8" fill="#86a9bf" opacity="0.5"/>
<rect x="586.7" y="156.1" width="6" height="8" fill="#86a9bf" opacity="0.5"/>
<rect x="586.7" y="172.1" width="6" height="8" fill="#86a9bf" opacity="0.5"/>
<rect x="600.7" y="172.1" width="6" height="8" fill="#86a9bf" opacity="0.5"/>
<rect x="600.7" y="188.1" width="6" height="8" fill="#86a9bf" opacity="0.5"/>
<rect x="614.7" y="188.1" width="6" height="8" fill="#86a9bf" opacity="0.5"/>
<rect x="586.7" y="204.1" width="6" height="8" fill="#86a9bf" opacity="0.5"/>
<rect x="600.7" y="204.1" width="6" height="8" fill="#86a9bf" opacity="0.5"/>
<rect x="586.7" y="220.1" width="6" height="8" fill="#86a9bf" opacity="0.5"/>
<rect x="600.7" y="220.1" width="6" height="8" fill="#86a9bf" opacity="0.5"/>
<rect x="614.7" y="220.1" width="6" height="8" fill="#86a9bf" opacity="0.5"/>
<rect x="586.7" y="236.1" width="6" height="8" fill="#86a9bf" opacity="0.5"/>
<rect x="600.7" y="236.1" width="6" height="8" fill="#86a9bf" opacity="0.5"/>
<rect x="600.7" y="252.1" width="6" height="8" fill="#86a9bf" opacity="0.5"/>
<rect x="614.7" y="252.1" width="6" height="8" fill="#86a9bf" opacity="0.5"/>
<rect x="586.7" y="268.1" width="6" height="8" fill="#86a9bf" opacity="0.5"/>
<rect x="600.7" y="268.1" width="6" height="8" fill="#86a9bf" opacity="0.5"/>
<rect x="614.7" y="268.1" width="6" height="8" fill="#86a9bf" opacity="0.5"/>
<rect x="723.7" y="182.7" width="30.0" height="117.3" fill="#457b9d"/>
<rect x="735.7" y="194.7" width="6" height="8" fill="#86a9bf" opacity="0.5"/>
<rect x="735.7" y="210.7" width="6" height="8" fill="#86a9bf" opacity="0.5"/>
<rect x="735.7" y="226.7" width="6" height="8" fill="#86a9bf" opacity="0.5"/>
<rect x="735.7" y="242.7" width="6" height="8" fill="#86a9bf" opacity="0.5"/>
<rect x="910.1" y="171.4" width="36.2" height="128.6" fill="#457b9d"/>
<rect x="925.2" y="183.4" width="6" height="8" fill="#86a9bf" opacity="0.5"/>
<rect x="925.2" y="199.4" width="6" height="8" fill="#86a9bf" opacity="0.5"/>
<rect x="925.2" y="215.4" width="6" height="8" fill="#86a9bf" opacity="0.5"/>
<rect x="925.2" y="247.4" width="6" height="8" fill="#86a9bf" opacity="0.5"/>
<rect x="925.2" y="263.4" width="6" height="8" fill="#86a9bf" opacity="0.5"/>
<rect x="1065.4" y="70.1" width="31.1" height="229.9" fill="#457b9d"/>
<rect x="1078.0" y="82.1" width="6" height="8" fill="#86a9bf" opacity="0.5"/>
<rect x="1078.0" y="130.1" width="6" height="8" fill="#86a9bf" opacity="0.5"/>
<rect x="1078.0" y="146.1" width="6" height="8" fill="#86a9bf" opacity="0.5"/>
<rect x="1078.0" y="162.1" width="6" height="8" fill="#86a9bf" opacity="0.5"/>
<rect x="1078.0" y="178.1" width="6" height="8" fill="#86a9bf" opacity="0.5"/>
<rect x="1078.0" y="210.1" width="6" height="8" fill="#86a9bf" opacity="0.5"/>
<rect x="1078.0" y="226.1" width="6" height="8" fill="#86a9bf" opacity="0.5"/>
<line x1="1081.0" y1="70.1" x2="1081.0" y2="58.3" stroke="#457b9d" stroke-width="2"/>
<rect x="0" y="298" width="1200" height="2" fill="#3e6f8d" opacity="0.15"/>
</svg>