<svg xmlns="http://www.w3.org/2000/svg" viewBox="0 0 1200 300" width="1200" height="300">
<defs><linearGradient id="skyGrad" x1="0" y1="0" x2="0" y2="1"><stop offset="0%" stop-color="#e0eaf4"/><stop offset="100%" stop-color="#f0f2f5"/></linearGradient></defs><rect width="1200" height="300" fill="url(#skyGrad)"/>
<ellipse cx="171.8" cy="238.6" rx="117.5" ry="47.3" fill="#88b2ce" opacity="0.55"/>
<path d="M74.3 238.6 Q171.8 235.6 269.3 238.6" fill="none" stroke="#a4c4da" stroke-width="1" opacity="0.35"/>
<rect x="136.0" y="201.4" width="37.4" height="98.6" fill="#99b6c9"/>
<rect x="405.9" y="193.5" width="44.1" height="106.5" fill="#99b6c9"/>
<rect x="413.6" y="174.7" width="28.7" height="18.8" fill="#91adbf"/>
<rect x="740.5" y="198.1" width="67.5" height="101.9" fill="#99b6c9"/>
<rect x="993.9" y="183.7" width="67.0" height="116.3" fill="#99b6c9"/>
<polygon points="993.9,183.7 1027.4,166.9 1060.9,183.7" fill="#8da7b9"/>
<rect x="124.4" y="110.8" width="32.6" height="189.2" fill="#6a95b1"/>
<polygon points="124.4,110.8 140.7,102.6 156.9,110.8" fill="#6289a3"/>
<rect x="137.7" y="122.8" width="6" height="8" fill="#9ebacc" opacity="0.5"/>
<rect x="137.7" y="138.8" width="6" height="8" fill="#9ebacc" opacity="0.5"/>
<rect x="137.7" y="154.8" width="6" height="8" fill="#9ebacc" opacity="0.5"/>
<rect x="352.3" y="81.0" width="29.1" height="219.0" fill="#6a95b1"/>
<polygon points="352.3,81.0 366.8,73.7 381.4,81.0" fill="#6289a3"/>
<rect x="363.8" y="93.0" width="6" height="8" fill="#9ebacc" opacity="0.5"/>
<rect x="363.8" y="109.0" width="6" height="8" fill="#9ebacc" opacity="0.5"/>
<rect x="363.8" y="157.0" width="6" height="8" fill="#9ebacc" opacity="0.5"/>
<rect x="363.8" y="173.0" width="6" height="8" fill="#9ebacc" opacity="0.5"/>
<rect x="600.1" y="151.2" width="41.2" height="148.8" fill="#6a95b1"/>
<polygon points="600.1,151.2 620.7,140.9 641.3,151.2" fill="#6289a3"/>
<rect x="617.7" y="163.2" width="6" height="8" fill="#9ebacc" opacity="0.5"/>
<rect x="617.7" y="227.2" width="6" height="8" fill="#9ebacc" opacity="0.5"/>
<rect x="617.7" y="243.2" width="6" height="8" fill="#9ebacc" opacity="0.5"/>
<rect x="833.5" y="75.1" width="43.2" height="224.9" fill="#6a95b1"/>
<rect x="852.1" y="103.1" width="6" height="8" fill="#9ebacc" opacity="0.5"/>
<rect x="852.1" y="151.1" width="6" height="8" fill="#9ebacc" opacity="0.5"/>
<rect x="996.8" y="181.9" width="62.8" height="118.1" fill="#6a95b1"/>
<rect x="1025.2" y="193.9" width="6" height="8" fill="#9ebacc" opacity="0.5"/>
<rect x="1011.2" y="209.9" width="6" height="8" fill="#9ebacc" opacity="0.5"/>
<rect x="1039.2" y="209.9" width="6" height="8" fill="#9ebacc" opacity="0.5"/>
<rect x="1011.2" y="241.9" width="6" height="8" fill="#9ebacc" opacity="0.5"/>
<rect x="1025.2" y="241.9" width="6" height="8" fill="#9ebacc" opacity="0.5"/>
<rect x="1039.2" y="241.9" width="6" height="8" fill="#9ebacc" opacity="0.5"/>
<rect x="1011.2" y="257.9" width="6" height="8" fill="#9ebacc" opacity="0.5"/>
<rect x="1039.2" y="257.9" width="6" height="8" fill="#9ebacc" opacity="0.5"/>
<rect x="1011.2" y="273.9" width="6" height="8" fill="#9ebacc" opacity="0.5"/>
<rect x="1025.2" y="273.9" width="6" height="8" fill="#9ebacc" opacity="0.5"/>
<rect x="1039.2" y="273.9" width="6" height="8" fill="#9ebacc" opacity="0.5"/>
<rect x="119.4" y="217.2" width="38.3" height="82.8" fill="#457b9d"/>
<rect x="126.1" y="202.5" width="24.9" height="14.6" fill="#427595"/>
<rect x="135.6" y="214.5" width="6" height="8" fill="#86a9bf" opacity="0.5"/>
<rect x="135.6" y="230.5" width="6" height="8" fill="#86a9bf" opacity="0.5"/>
<rect x="135.6" y="262.5" width="6" height="8" fill="#86a9bf" opacity="0.5"/>
<rect x="325.9" y="215.2" width="40.7" height="84.8" fill="#457b9d"/>
<polygon points="325.9,215.2 346.2,205.0 366.5,215.2" fill="#3f7190"/>
<rect x="343.2" y="243.2" width="6" height="8" fill="#86a9bf" opacity="0.5"/>
<rect x="343.2" y="259.2" width="6" height="8" fill="#86a9bf" opacity="0.5"/>
<rect x="578.1" y="150.8" width="35.1" height="149.2" fill="#457b9d"/>
<rect x="592.7" y="162.8" width="6" height="8" fill="#86a9bf" opacity="0.5"/>
<rect x="592.7" y="194.8" width="6" height="8" fill="#86a9bf" opacity="0.5"/>
<rect x="592.7" y="226.8" width="6" height="8" fill="#86a9bf" opacity="0.5"/>
<rect x="829.5" y="83.9" width="40.9" height="216.1" fill="#457b9d"/>
<rect x="846.9" y="159.9" width="6" height="8" fill="#86a9bf" opacity="0.5"/>
<rect x="846.9" y="175.9" width="6" height="8" fill="#86a9bf" opacity="0.5"/>
<rect x="1010.2" y="159.0" width="58.8" height="141.0" fill="#457b9d"/>
<rect x="1022.7" y="171.0" width="6" height="8" fill="#86a9bf" opacity="0.5"/>
<rect x="1050.7" y="171.0" width="6" height="8" fill="#86a9bf" opacity="0.5"/>
<rect x="1022.7" y="187.0" width="6" height="8" fill="#86a9bf" opacity="0.5"/>
<rect x="1036.7" y="187.0" width="6" height="8" fill="#86a9bf" opacity="0.5"/>
<rect x="1036.7" y="203.0" width="6" height="8" fill="#86a9bf" opacity="0.5"/>
<rect x="1022.7" y="219.0" width="6" height="8" fill="#86a9bf" opacity="0.5"/>
<rect x="1050.7" y="219.0" width="6" height="8" fill="#86a9bf" opacity="0.5"/>
<rect x="1036.7" y="235.0" width="6" height="8" fill="#86a9bf" opacity="0.5"/>
<rect x="1022.7" y="251.0" width="6" height="8" fill="#86a9bf" opacity="0.5"/>
<rect x="1036.7" y="251.0" width="6" height="8" fill="#86a9bf" opacity="0.5"/>
<rect x="1050.7" y="251.0" width="6" height="8" fill="#86a9bf" opacity="0.5"/>
<line x1="241.8" y1="285.0" x2="241.8" y2="273.3" stroke="#5c4a32" stroke-width="3"/>
<polygon points="233.1,273.3 241.8,242.4 250.6,273.3" fill="#264d21"/>
<line x1="472.3" y1="285.0" x2="472.3" y2="276.4" stroke="#5c4a32" stroke-width="3"/>
<polygon points="462.4,276.4 472.3,245.2 482.3,276.4" fill="#274d21"/>
<line x1="721.4" y1="285.0" x2="721.4" y2="275.6" stroke="#5c4a32" stroke-width="3"/>
<polygon points="713.0,275.6 721.4,237.8 729.8,275.6" fill="#2d5927"/>
<line x1="940.3" y1="285.0" x2="940.3" y2="273.1" stroke="#5c4a32" stroke-width="3"/>
<polygon points="930.7,273.1 940.3,237.0 950.0,273.1" fill="#295223"/>
<line x1="880.7" y1="285.0" x2="880.7" y2="273.9" stroke="#5c4a32" stroke-width="3"/>
<polygon points="871.3,273.9 880.7,230.4 890.1,273.9" fill="#2b5625"/>
<rect x="0" y="285" width="1200" height="15" fill="#8a9a82" opacity="0.4"/>
<ellipse cx="359.0" cy="57.3" rx="78.3" ry="13.3" fill="#c8c8c8" opacity="0.15"/>
</svg>