<svg xmlns="http://www.w3.org/2000/svg" viewBox="0 0 1200 300" width="1200" height="300">
<rect width="1200" height="300" fill="#ede8e0"/>
<path d="M0 300 L0 210.0 C198.1 174.1, 889.7 185.5, 1200 210.0 L1200 300 Z" fill="#c4c6be" opacity="0.3"/>
<rect x="159.3" y="191.2" width="73.3" height="108.8" fill="#aeb0a5"/>
<rect x="596.6" y="201.3" width="71.7" height="98.7" fill="#aeb0a5"/>
<rect x="974.7" y="203.6" width="59.5" height="96.4" fill="#aeb0a5"/>
<rect x="149.0" y="180.1" width="64.3" height="119.9" fill="#898d7d"/>
<rect x="164.2" y="192.1" width="6" height="8" fill="#b2b5ab" opacity="0.5"/>
<rect x="178.2" y="192.1" width="6" height="8" fill="#b2b5ab" opacity="0.5"/>
<rect x="192.2" y="192.1" width="6" height="8" fill="#b2b5ab" opacity="0.5"/>
<rect x="164.2" y="208.1" width="6" height="8" fill="#b2b5ab" opacity="0.5"/>
<rect x="178.2" y="208.1" width="6" height="8" fill="#b2b5ab" opacity="0.5"/>
<rect x="192.2" y="208.1" width="6" height="8" fill="#b2b5ab" opacity="0.5"/>
<rect x="178.2" y="224.1" width="6" height="8" fill="#b2b5ab" opacity="0.5"/>
<rect x="192.2" y="224.1" width="6" height="8" fill="#b2b5ab" opacity="0.5"/>
<rect x="164.2" y="240.1" width="6" height="8" fill="#b2b5ab" opacity="0.5"/>
<rect x="192.2" y="240.1" width="6" height="8" fill="#b2b5ab" opacity="0.5"/>
<rect x="164.2" y="256.1" width="6" height="8" fill="#b2b5ab" opacity="0.5"/>
<rect x="192.2" y="256.1" width="6" height="8" fill="#b2b5ab" opacity="0.5"/>
<rect x="164.2" y="272.1" width="6" height="8" fill="#b2b5ab" opacity="0.5"/>
<rect x="178.2" y="272.1" width="6" height="8" fill="#b2b5ab" opacity="0.5"/>
<rect x="433.8" y="163.4" width="53.4" height="136.6" fill="#898d7d"/>
<rect x="464.5" y="175.4" width="6" height="8" fill="#b2b5ab" opacity="0.5"/>
<rect x="450.5" y="191.4" width="6" height="8" fill="#b2b5ab" opacity="0.5"/>
<rect x="464.5" y="207.4" width="6" height="8" fill="#b2b5ab" opacity="0.5"/>
<rect x="464.5" y="223.4" width="6" height="8" fill="#b2b5ab" opacity="0.5"/>
<rect x="450.5" y="239.4" width="6" height="8" fill="#b2b5ab" opacity="0.5"/>
<rect x="464.5" y="239.4" width="6" height="8" fill="#b2b5ab" opacity="0.5"/>
<rect x="450.5" y="255.4" width="6" height="8" fill="#b2b5ab" opacity="0.5"/>
<rect x="450.5" y="271.4" width="6" height="8" fill="#b2b5ab" opacity="0.5"/>
<rect x="464.5" y="271.4" width="6" height="8" fill="#b2b5ab" opacity="0.5"/>
<rect x="690.3" y="166.4" width="66.7" height="133.6" fill="#898d7d"/>
<rect x="706.7" y="178.4" width="6" height="8" fill="#b2b5ab" opacity="0.5"/>
<rect x="720.7" y="178.4" width="6" height="8" fill="#b2b5ab" opacity="0.5"/>
<rect x="734.7" y="178.4" width="6" height="8" fill="#b2b5ab" opacity="0.5"/>
<rect x="706.7" y="194.4" width="6" height="8" fill="#b2b5ab" opacity="0.5"/>
<rect x="720.7" y="194.4" width="6" height="8" fill="#b2b5ab" opacity="0.5"/>
<rect x="734.7" y="194.4" width="6" height="8" fill="#b2b5ab" opacity="0.5"/>
<rect x="720.7" y="210.4" width="6" height="8" fill="#b2b5ab" opacity="0.5"/>
<rect x="734.7" y="210.4" width="6" height="8" fill="#b2b5ab" opacity="0.5"/>
<rect x="706.7" y="226.4" width="6" height="8" fill="#b2b5ab" opacity="0.5"/>
<rect x="720.7" y="226.4" width="6" height="8" fill="#b2b5ab" opacity="0.5"/>
<rect x="720.7" y="242.4" width="6" height="8" fill="#b2b5ab" opacity="0.5"/>
<rect x="734.7" y="242.4" width="6" height="8" fill="#b2b5ab" opacity="0.5"/>
<rect x="706.7" y="258.4" width="6" height="8" fill="#b2b5ab" opacity="0.5"/>
<rect x="734.7" y="258.4" width="6" height="8" fill="#b2b5ab" opacity="0.5"/>
<rect x="998.9" y="169.4" width="64.3" height="130.6" fill="#898d7d"/>
<rect x="1014.0" y="181.4" width="6" height="8" fill="#b2b5ab" opacity="0.5"/>
<rect x="1028.0" y="181.4" width="6" height="8" fill="#b2b5ab" opacity="0.5"/>
<rect x="1042.0" y="181.4" width="6" height="8" fill="#b2b5ab" opacity="0.5"/>
<rect x="1042.0" y="197.4" width="6" height="8" fill="#b2b5ab" opacity="0.5"/>
<rect x="1014.0" y="213.4" width="6" height="8" fill="#b2b5ab" opacity="0.5"/>
<rect x="1042.0" y="213.4" width="6" height="8" fill="#b2b5ab" opacity="0.5"/>
<rect x="1014.0" y="229.4" width="6" height="8" fill="#b2b5ab" opacity="0.5"/>
<rect x="1042.0" y="229.4" width="6" height="8" fill="#b2b5ab" opacity="0.5"/>
<rect x="1014.0" y="245.4" width="6" height="8" fill="#b2b5ab" opacity="0.5"/>
<rect x="1028.0" y="245.4" width="6" height="8" fill="#b2b5ab" opacity="0.5"/>
<rect x="1042.0" y="245.4" width="6" height="8" fill="#b2b5ab" opacity="0.5"/>
<rect x="1014.0" y="261.4" width="6" height="8" fill="#b2b5ab" opacity="0.5"/>
<rect x="1028.0" y="261.4" width="6" height="8" fill="#b2b5ab" opacity="0.5"/>
<rect x="1042.0" y="261.4" width="6" height="8" fill="#b2b5ab" opacity="0.5"/>
<rect x="181.8" y="137.3" width="60.5" height="162.7" fill="#6b705c"/>
<rect x="195.0" y="149.3" width="6" height="8" fill="#9fa295" opacity="0.5"/>
<rect x="209.0" y="149.3" width="6" height="8" fill="#9fa295" opacity="0.5"/>
<rect x="223.0" y="149.3" width="6" height="8" fill="#9fa295" opacity="0.5"/>
<rect x="209.0" y="165.3" width="6" height="8" fill="#9fa295" opacity="0.5"/>
<rect x="223.0" y="165.3" width="6" height="8" fill="#9fa295" opacity="0.5"/>
<rect x="195.0" y="181.3" width="6" height="8" fill="#9fa295" opacity="0.5"/>
<rect x="209.0" y="181.3" width="6" height="8" fill="#9fa295" opacity="0.5"/>
<rect x="209.0" y="197.3" width="6" height="8" fill="#9fa295" opacity="0.5"/>
<rect x="195.0" y="213.3" width="6" height="8" fill="#9fa295" opacity="0.5"/>
<rect x="209.0" y="213.3" width="6" height="8" fill="#9fa295" opacity="0.5"/>
<rect x="223.0" y="213.3" width="6" height="8" fill="#9fa295" opacity="0.5"/>
<rect x="195.0" y="229.3" width="6" height="8" fill="#9fa295" opacity="0.5"/>
<rect x="209.0" y="229.3" width="6" height="8" fill="#9fa295" opacity="0.5"/>
<rect x="223.0" y="229.3" width="6" height="8" fill="#9fa295" opacity="0.5"/>
<rect x="195.0" y="245.3" width="6" height="8" fill="#9fa295" opacity="0.5"/>
<rect x="209.0" y="245.3" width="6" height="8" fill="#9fa295" opacity="0.5"/>
<rect x="223.0" y="245.3" width="6" height="8" fill="#9fa295" opacity="0.5"/>
<rect x="195.0" y="261.3" width="6" height="8" fill="#9fa295" opacity="0.5"/>
<rect x="223.0" y="261.3" width="6" height="8" fill="#9fa295" opacity="0.5"/>
<rect x="460.8" y="154.7" width="32.0" height="145.3" fill="#6b705c"/>
<rect x="473.8" y="182.7" width="6" height="8" fill="#9fa295" opacity="0.5"/>
<rect x="473.8" y="198.7" width="6" height="8" fill="#9fa295" opacity="0.5"/>
<rect x="473.8" y="214.7" width="6" height="8" fill="#9fa295" opacity="0.5"/>
<rect x="473.8" y="230.7" width="6" height="8" fill="#9fa295" opacity="0.5"/>
<rect x="473.8" y="246.7" width="6" height="8" fill="#9fa295" opacity="0.5"/>
<rect x="681.1" y="171.9" width="53.8" height="128.1" fill="#6b705c"/>
<rect x="698.0" y="183.9" width="6" height="8" fill="#9fa295" opacity="0.5"/>
<rect x="712.0" y="183.9" width="6" height="8" fill="#9fa295" opacity="0.5"/>
<rect x="698.0" y="199.9" width="6" height="8" fill="#9fa295" opacity="0.5"/>
<rect x="712.0" y="199.9" width="6" height="8" fill="#9fa295" opacity="0.5"/>
<rect x="698.0" y="215.9" width="6" height="8" fill="#9fa295" opacity="0.5"/>
<rect x="712.0" y="215.9" width="6" height="8" fill="#9fa295" opacity="0.5"/>
<rect x="712.0" y="231.9" width="6" height="8" fill="#9fa295" opacity="0.5"/>
<rect x="698.0" y="247.9" width="6" height="8" fill="#9fa295" opacity="0.5"/>
<rect x="712.0" y="247.9" width="6" height="8" fill="#9fa295" opacity="0.5"/>
<rect x="698.0" y="263.9" width="6" height="8" fill="#9fa295" opacity="0.5"/>
<rect x="1029.2" y="117.3" width="64.6" height="182.7" fill="#6b705c"/>
<rect x="1072.5" y="129.3" width="6" height="8" fill="#9fa295" opacity="0.5"/>
<rect x="1044.5" y="145.3" width="6" height="8" fill="#9fa295" opacity="0.5"/>
<rect x="1058.5" y="145.3" width="6" height="8" fill="#9fa295" opacity="0.5"/>
<rect x="1072.5" y="145.3" width="6" height="8" fill="#9fa295" opacity="0.5"/>
<rect x="1044.5" y="161.3" width="6" height="8" fill="#9fa295" opacity="0.5"/>
<rect x="1058.5" y="161.3" width="6" height="8" fill="#9fa295" opacity="0.5"/>
<rect x="1072.5" y="161.3" width="6" height="8" fill="#9fa295" opacity="0.5"/>
<rect x="1044.5" y="177.3" width="6" height="8" fill="#9fa295" opacity="0.5"/>
<rect x="1058.5" y="177.3" width="6" height="8" fill="#9fa295" opacity="0.5"/>
<rect x="1058.5" y="193.3" width="6" height="8" fill="#9fa295" opacity="0.5"/>
<rect x="1072.5" y="193.3" width="6" height="8" fill="#9fa295" opacity="0.5"/>
<rect x="1072.5" y="209.3" width="6" height="8" fill="#9fa295" opacity="0.5"/>
<rect x="1044.5" y="225.3" width="6" height="8" fill="#9fa295" opacity="0.5"/>
<rect x="1058.5" y="225.3" width="6" height="8" fill="#9fa295" opacity="0.5"/>
<rect x="1072.5" y="225.3" width="6" height="8" fill="#9fa295" opacity="0.5"/>
<rect x="1044.5" y="241.3" width="6" height="8" fill="#9fa295" opacity="0.5"/>
<rect x="1058.5" y="241.3" width="6" height="8" fill="#9fa295" opacity="0.5"/>
<rect x="1072.5" y="241.3" width="6" height="8" fill="#9fa295" opacity="0.5"/>
<rect x="1044.5" y="257.3" width="6" height="8" fill="#9fa295" opacity="0.5"/>
<rect x="1058.5" y="257.3" width="6" height="8" fill="#9fa295" opacity="0.5"/>
<rect x="1072.5" y="257.3" width="6" height="8" fill="#9fa295" opacity="0.5"/>
<rect x="1044.5" y="273.3" width="6" height="8" fill="#9fa295" opacity="0.5"/>
<rect x="1058.5" y="273.3" width="6" height="8" fill="#9fa295" opacity="0.5"/>
<rect x="1072.5" y="273.3" width="6" height="8" fill="#9fa295" opacity="0.5"/>
<rect x="0" y="298" width="1200" height="2" fill="#606553" opacity="0.15"/>
</svg>