<svg xmlns="http://www.w3.org/2000/svg" viewBox="0 0 1200 400" width="1200" height="400">
<defs>
<linearGradient id="bg" x1="0" y1="0" x2="0" y2="1"><stop offset="0%" stop-color="#94a3b8"/><stop offset="100%" stop-color="#0369a1"/></linearGradient>
<linearGradient id="warm" x1="0" y1="0" x2="1" y2="1"><stop offset="0%" stop-color="#858d98" stop-opacity="0.18"/><stop offset="100%" stop-color="#858d98" stop-opacity="0.06"/></linearGradient>
</defs>
<rect width="1200" height="400" fill="url(#bg)"/>
<path d="M0 400 L0 232.0942820812411 C60.0 231.1, 90.0 239.1, 150.0 242.5 C210.0 239.5, 240.0 242.0, 300.0 237.8 C360.0 237.6, 390.0 234.0, 450.0 228.3 C510.0 222.0, 540.0 232.0, 600.0 237.6 C660.0 238.2, 690.0 220.3, 750.0 224.7 C810.0 228.1, 840.0 219.7, 900.0 222.1 C960.0 222.4, 990.0 249.2, 1050.0 251.1 C1110.0 256.4, 1140.0 225.4, 1200.0 226.5 L1200 400 Z" fill="#367da9" opacity="0.45"/>
<path d="M0 400 L0 274.3180520511179 C52.5 271.1, 97.5 269.5, 150.0 267.6 C202.5 271.1, 247.5 259.2, 300.0 260.6 C352.5 263.2, 397.5 259.8, 450.0 263.0 C502.5 261.4, 547.5 284.9, 600.0 281.5 C652.5 282.2, 697.5 263.5, 750.0 266.6 C802.5 259.4, 847.5 252.6, 900.0 258.0 C952.5 252.6, 997.5 281.0, 1050.0 279.9 C1102.5 282.5, 1147.5 285.7, 1200.0 279.5 L1200 400 Z" fill="#0369a1" opacity="0.3"/>
<rect x="496.7" y="368.1" width="21.2" height="31.9" rx="5.3" fill="#04847f" opacity="0.77"/>
<rect x="756.0" y="335.8" width="25.6" height="64.2" rx="3.8" fill="#04877b" opacity="0.81"/>
<rect x="450.0" y="291.9" width="41.5" height="108.1" rx="5.2" fill="#047e87" opacity="0.55"/>
<rect x="810.2" y="363.9" width="34.2" height="36.1" rx="7.9" fill="#04847f" opacity="0.83"/>
<rect x="944.9" y="349.4" width="29.3" height="50.6" rx="3.6" fill="#04857e" opacity="0.77"/>
<rect x="737.9" y="315.0" width="14.0" height="85.0" rx="4.3" fill="#047e87" opacity="0.53"/>
<rect x="742.9" y="325.0" width="4" height="5" rx="0.5" fill="#94a3b8" opacity="0.6"/>
<rect x="742.9" y="369.0" width="4" height="5" rx="0.5" fill="#94a3b8" opacity="0.6"/>
<rect x="563.5" y="275.1" width="27.1" height="124.9" rx="7.2" fill="#04867d" opacity="0.67"/>
<rect x="314.7" y="284.5" width="37.8" height="115.5" rx="7.5" fill="#047d89" opacity="0.55"/>
<rect x="332.3" y="294.5" width="4" height="5" rx="0.5" fill="#94a3b8" opacity="0.6"/>
<rect x="319.7" y="316.5" width="4" height="5" rx="0.5" fill="#94a3b8" opacity="0.6"/>
<rect x="332.3" y="316.5" width="4" height="5" rx="0.5" fill="#94a3b8" opacity="0.6"/>
<rect x="332.3" y="338.5" width="4" height="5" rx="0.5" fill="#94a3b8" opacity="0.6"/>
<rect x="319.7" y="360.5" width="4" height="5" rx="0.5" fill="#94a3b8" opacity="0.6"/>
<rect x="730.9" y="303.7" width="25.0" height="96.3" rx="3.8" fill="#048480" opacity="0.73"/>
<rect x="832.5" y="287.0" width="45.2" height="113.0" rx="4.8" fill="#048a79" opacity="0.59"/>
<rect x="837.5" y="319.0" width="4" height="5" rx="0.5" fill="#94a3b8" opacity="0.6"/>
<rect x="837.5" y="341.0" width="4" height="5" rx="0.5" fill="#94a3b8" opacity="0.6"/>
<rect x="852.6" y="341.0" width="4" height="5" rx="0.5" fill="#94a3b8" opacity="0.6"/>
<rect x="837.5" y="363.0" width="4" height="5" rx="0.5" fill="#94a3b8" opacity="0.6"/>
<rect x="852.6" y="363.0" width="4" height="5" rx="0.5" fill="#94a3b8" opacity="0.6"/>
<rect x="643.9" y="351.2" width="16.1" height="48.8" rx="6.4" fill="#048979" opacity="0.63"/>
<rect x="541.2" y="310.1" width="34.8" height="89.9" rx="4.5" fill="#047c89" opacity="0.57"/>
<rect x="256.5" y="370.8" width="35.5" height="29.2" rx="6.6" fill="#047f86" opacity="0.63"/>
<circle cx="625.1" cy="149.5" r="9.6" fill="#94a3b8" opacity="0.19"/>
<circle cx="459.9" cy="46.4" r="6.3" fill="#059669" opacity="0.20"/>
<circle cx="677.9" cy="88.7" r="4.4" fill="#059669" opacity="0.37"/>
<circle cx="0.4" cy="31.0" r="6.9" fill="#059669" opacity="0.28"/>
<circle cx="617.6" cy="204.2" r="5.0" fill="#059669" opacity="0.40"/>
<circle cx="566.5" cy="151.2" r="6.1" fill="#94a3b8" opacity="0.40"/>
<circle cx="927.6" cy="60.5" r="3.2" fill="#94a3b8" opacity="0.37"/>
<circle cx="358.8" cy="236.6" r="7.8" fill="#94a3b8" opacity="0.19"/>
<circle cx="580.3" cy="163.5" r="12.0" fill="#059669" opacity="0.28"/>
<circle cx="725.3" cy="224.9" r="3.8" fill="#94a3b8" opacity="0.44"/>
<circle cx="621.7" cy="167.4" r="11.8" fill="#94a3b8" opacity="0.23"/>
<circle cx="909.9" cy="0.6" r="9.7" fill="#059669" opacity="0.32"/>
<rect width="1200" height="400" fill="url(#warm)"/>
<rect width="1200" height="400" fill="#94a3b8" opacity="0.40"/>
</svg>