<svg xmlns="http://www.w3.org/2000/svg" viewBox="0 0 1200 300" width="1200" height="300">
<rect width="1200" height="300" fill="#e6eef4"/>
<path d="M0 300 L0 210.0 C342.6 165.8, 910.5 197.9, 1200 210.0 L1200 300 Z" fill="#b5cad8" opacity="0.3"/>
<rect x="314.5" y="242.4" width="69.9" height="57.6" fill="#99b6c9"/>
<rect x="861.4" y="235.2" width="71.4" height="64.8" fill="#99b6c9"/>
<rect x="213.1" y="247.0" width="60.1" height="53.0" fill="#6a95b1"/>
<rect x="836.1" y="236.7" width="73.0" height="63.3" fill="#6a95b1"/>
<rect x="862.6" y="248.7" width="6" height="8" fill="#9ebacc" opacity="0.5"/>
<rect x="848.6" y="264.7" width="6" height="8" fill="#9ebacc" opacity="0.5"/>
<rect x="862.6" y="264.7" width="6" height="8" fill="#9ebacc" opacity="0.5"/>
<rect x="890.6" y="264.7" width="6" height="8" fill="#9ebacc" opacity="0.5"/>
<rect x="318.1" y="259.0" width="36.4" height="41.0" fill="#457b9d"/>
<rect x="876.1" y="239.8" width="71.3" height="60.2" fill="#457b9d"/>
<rect x="894.8" y="251.8" width="6" height="8" fill="#86a9bf" opacity="0.5"/>
<rect x="908.8" y="251.8" width="6" height="8" fill="#86a9bf" opacity="0.5"/>
<rect x="922.8" y="251.8" width="6" height="8" fill="#86a9bf" opacity="0.5"/>
<rect x="894.8" y="267.8" width="6" height="8" fill="#86a9bf" opacity="0.5"/>
<rect x="908.8" y="267.8" width="6" height="8" fill="#86a9bf" opacity="0.5"/>
<rect x="922.8" y="267.8" width="6" height="8" fill="#86a9bf" opacity="0.5"/>
<rect x="0" y="298" width="1200" height="2" fill="#3e6f8d" opacity="0.15"/>
</svg>