<svg xmlns="http://www.w3.org/2000/svg" viewBox="0 0 1200 400" width="1200" height="400">
<defs>
<linearGradient id="bg" x1="0" y1="0" x2="0" y2="1"><stop offset="0%" stop-color="#166534"/><stop offset="100%" stop-color="#3b82f6"/></linearGradient>
<linearGradient id="warm" x1="0" y1="0" x2="1" y2="1"><stop offset="0%" stop-color="#8f8f8b" stop-opacity="0.18"/><stop offset="100%" stop-color="#8f8f8b" stop-opacity="0.06"/></linearGradient>
</defs>
<rect width="1200" height="400" fill="url(#bg)"/>
<path d="M0 400 L0 255.6227195850912 C60.0 257.0, 90.0 264.1, 150.0 256.0 C210.0 257.1, 240.0 243.3, 300.0 251.7 C360.0 246.4, 390.0 254.2, 450.0 247.3 C510.0 245.9, 540.0 232.0, 600.0 233.0 C660.0 225.8, 690.0 251.6, 750.0 249.1 C810.0 242.9, 840.0 260.9, 900.0 252.5 C960.0 255.6, 990.0 251.4, 1050.0 252.8 C1110.0 243.3, 1140.0 248.9, 1200.0 250.1 L1200 400 Z" fill="#2e78b2" opacity="0.45"/>
<path d="M0 400 L0 269.2656021401824 C52.5 265.7, 97.5 269.8, 150.0 267.9 C202.5 271.5, 247.5 285.5, 300.0 283.3 C352.5 278.4, 397.5 278.8, 450.0 275.7 C502.5 277.0, 547.5 267.2, 600.0 265.4 C652.5 270.2, 697.5 291.6, 750.0 286.7 C802.5 281.6, 847.5 273.1, 900.0 275.0 C952.5 276.0, 997.5 289.2, 1050.0 284.2 C1102.5 286.6, 1147.5 264.4, 1200.0 271.2 L1200 400 Z" fill="#3b82f6" opacity="0.3"/>
<rect x="910.1" y="316.0" width="36.1" height="84.0" rx="4.2" fill="#778591" opacity="0.57"/>
<rect x="927.1" y="326.0" width="4" height="5" rx="0.5" fill="#166534" opacity="0.6"/>
<rect x="915.1" y="348.0" width="4" height="5" rx="0.5" fill="#166534" opacity="0.6"/>
<rect x="501.5" y="319.8" width="46.3" height="80.2" rx="7.4" fill="#c58a0d" opacity="0.59"/>
<rect x="593.8" y="362.5" width="16.3" height="37.5" rx="7.9" fill="#918764" opacity="0.75"/>
<rect x="468.5" y="346.7" width="41.8" height="53.3" rx="7.0" fill="#868677" opacity="0.80"/>
<rect x="719.3" y="362.9" width="44.5" height="37.1" rx="5.6" fill="#898672" opacity="0.63"/>
<rect x="570.2" y="339.5" width="24.7" height="60.5" rx="6.3" fill="#c58a0d" opacity="0.82"/>
<rect x="805.3" y="326.2" width="21.6" height="73.8" rx="5.2" fill="#8a8670" opacity="0.62"/>
<rect x="654.4" y="324.4" width="34.9" height="75.6" rx="4.3" fill="#7b8689" opacity="0.80"/>
<rect x="561.6" y="291.5" width="16.1" height="108.5" rx="4.3" fill="#aa883b" opacity="0.85"/>
<rect x="566.6" y="301.5" width="4" height="5" rx="0.5" fill="#166534" opacity="0.6"/>
<rect x="566.6" y="323.5" width="4" height="5" rx="0.5" fill="#166534" opacity="0.6"/>
<rect x="566.6" y="345.5" width="4" height="5" rx="0.5" fill="#166534" opacity="0.6"/>
<rect x="566.6" y="367.5" width="4" height="5" rx="0.5" fill="#166534" opacity="0.6"/>
<rect x="787.7" y="347.5" width="13.7" height="52.5" rx="7.3" fill="#808681" opacity="0.70"/>
<rect x="1007.6" y="327.7" width="45.2" height="72.3" rx="3.9" fill="#af8832" opacity="0.52"/>
<rect x="381.3" y="330.8" width="43.5" height="69.2" rx="5.0" fill="#a28847" opacity="0.66"/>
<line x1="274.4" y1="138.8" x2="314.4" y2="138.8" stroke="#ca8a04" stroke-width="1.3" opacity="0.22"/>
<line x1="779.0" y1="195.3" x2="809.5" y2="195.3" stroke="#166534" stroke-width="2.4" opacity="0.35"/>
<line x1="1085.6" y1="223.3" x2="1138.9" y2="223.3" stroke="#ca8a04" stroke-width="1.7" opacity="0.39"/>
<line x1="533.2" y1="221.9" x2="553.8" y2="221.9" stroke="#166534" stroke-width="1.1" opacity="0.19"/>
<line x1="1090.9" y1="212.8" x2="1132.6" y2="212.8" stroke="#166534" stroke-width="2.0" opacity="0.34"/>
<rect width="1200" height="400" fill="url(#warm)"/>
<rect width="1200" height="400" fill="#166534" opacity="0.45"/>
</svg>