<svg xmlns="http://www.w3.org/2000/svg" viewBox="0 0 1200 300" width="1200" height="300">
<rect width="1200" height="300" fill="#e0eff2"/>
<path d="M0 300 L0 210.0 C357.5 169.7, 885.5 192.6, 1200 210.0 L1200 300 Z" fill="#aac2c9" opacity="0.3"/>
<rect x="233.3" y="222.2" width="59.5" height="77.8" fill="#8aabb4"/>
<rect x="604.0" y="184.2" width="58.3" height="115.8" fill="#8aabb4"/>
<rect x="992.6" y="178.8" width="65.2" height="121.2" fill="#8aabb4"/>
<rect x="134.1" y="171.0" width="74.6" height="129.0" fill="#558592"/>
<rect x="147.5" y="183.0" width="6" height="8" fill="#91b0b8" opacity="0.5"/>
<rect x="161.5" y="183.0" width="6" height="8" fill="#91b0b8" opacity="0.5"/>
<rect x="175.5" y="183.0" width="6" height="8" fill="#91b0b8" opacity="0.5"/>
<rect x="189.5" y="183.0" width="6" height="8" fill="#91b0b8" opacity="0.5"/>
<rect x="147.5" y="199.0" width="6" height="8" fill="#91b0b8" opacity="0.5"/>
<rect x="175.5" y="199.0" width="6" height="8" fill="#91b0b8" opacity="0.5"/>
<rect x="147.5" y="215.0" width="6" height="8" fill="#91b0b8" opacity="0.5"/>
<rect x="175.5" y="215.0" width="6" height="8" fill="#91b0b8" opacity="0.5"/>
<rect x="189.5" y="215.0" width="6" height="8" fill="#91b0b8" opacity="0.5"/>
<rect x="147.5" y="231.0" width="6" height="8" fill="#91b0b8" opacity="0.5"/>
<rect x="161.5" y="231.0" width="6" height="8" fill="#91b0b8" opacity="0.5"/>
<rect x="189.5" y="231.0" width="6" height="8" fill="#91b0b8" opacity="0.5"/>
<rect x="147.5" y="247.0" width="6" height="8" fill="#91b0b8" opacity="0.5"/>
<rect x="161.5" y="247.0" width="6" height="8" fill="#91b0b8" opacity="0.5"/>
<rect x="147.5" y="263.0" width="6" height="8" fill="#91b0b8" opacity="0.5"/>
<rect x="161.5" y="263.0" width="6" height="8" fill="#91b0b8" opacity="0.5"/>
<rect x="175.5" y="263.0" width="6" height="8" fill="#91b0b8" opacity="0.5"/>
<rect x="452.8" y="138.1" width="40.6" height="161.9" fill="#558592"/>
<rect x="470.1" y="150.1" width="6" height="8" fill="#91b0b8" opacity="0.5"/>
<rect x="470.1" y="166.1" width="6" height="8" fill="#91b0b8" opacity="0.5"/>
<rect x="470.1" y="182.1" width="6" height="8" fill="#91b0b8" opacity="0.5"/>
<rect x="470.1" y="198.1" width="6" height="8" fill="#91b0b8" opacity="0.5"/>
<rect x="470.1" y="230.1" width="6" height="8" fill="#91b0b8" opacity="0.5"/>
<rect x="470.1" y="246.1" width="6" height="8" fill="#91b0b8" opacity="0.5"/>
<rect x="470.1" y="262.1" width="6" height="8" fill="#91b0b8" opacity="0.5"/>
<rect x="713.2" y="199.8" width="44.9" height="100.2" fill="#558592"/>
<rect x="725.7" y="211.8" width="6" height="8" fill="#91b0b8" opacity="0.5"/>
<rect x="725.7" y="227.8" width="6" height="8" fill="#91b0b8" opacity="0.5"/>
<rect x="725.7" y="243.8" width="6" height="8" fill="#91b0b8" opacity="0.5"/>
<rect x="739.7" y="243.8" width="6" height="8" fill="#91b0b8" opacity="0.5"/>
<rect x="739.7" y="259.8" width="6" height="8" fill="#91b0b8" opacity="0.5"/>
<rect x="960.6" y="169.2" width="52.3" height="130.8" fill="#558592"/>
<rect x="976.7" y="181.2" width="6" height="8" fill="#91b0b8" opacity="0.5"/>
<rect x="990.7" y="181.2" width="6" height="8" fill="#91b0b8" opacity="0.5"/>
<rect x="976.7" y="197.2" width="6" height="8" fill="#91b0b8" opacity="0.5"/>
<rect x="990.7" y="197.2" width="6" height="8" fill="#91b0b8" opacity="0.5"/>
<rect x="976.7" y="213.2" width="6" height="8" fill="#91b0b8" opacity="0.5"/>
<rect x="990.7" y="213.2" width="6" height="8" fill="#91b0b8" opacity="0.5"/>
<rect x="976.7" y="229.2" width="6" height="8" fill="#91b0b8" opacity="0.5"/>
<rect x="990.7" y="229.2" width="6" height="8" fill="#91b0b8" opacity="0.5"/>
<rect x="976.7" y="245.2" width="6" height="8" fill="#91b0b8" opacity="0.5"/>
<rect x="976.7" y="261.2" width="6" height="8" fill="#91b0b8" opacity="0.5"/>
<rect x="990.7" y="261.2" width="6" height="8" fill="#91b0b8" opacity="0.5"/>
<rect x="155.5" y="149.7" width="35.0" height="150.3" fill="#2b6777"/>
<rect x="170.0" y="161.7" width="6" height="8" fill="#759ca7" opacity="0.5"/>
<rect x="170.0" y="225.7" width="6" height="8" fill="#759ca7" opacity="0.5"/>
<rect x="170.0" y="241.7" width="6" height="8" fill="#759ca7" opacity="0.5"/>
<rect x="170.0" y="257.7" width="6" height="8" fill="#759ca7" opacity="0.5"/>
<rect x="170.0" y="273.7" width="6" height="8" fill="#759ca7" opacity="0.5"/>
<rect x="518.6" y="157.0" width="56.4" height="143.0" fill="#2b6777"/>
<rect x="536.7" y="169.0" width="6" height="8" fill="#759ca7" opacity="0.5"/>
<rect x="550.7" y="169.0" width="6" height="8" fill="#759ca7" opacity="0.5"/>
<rect x="536.7" y="185.0" width="6" height="8" fill="#759ca7" opacity="0.5"/>
<rect x="550.7" y="185.0" width="6" height="8" fill="#759ca7" opacity="0.5"/>
<rect x="536.7" y="217.0" width="6" height="8" fill="#759ca7" opacity="0.5"/>
<rect x="550.7" y="217.0" width="6" height="8" fill="#759ca7" opacity="0.5"/>
<rect x="550.7" y="233.0" width="6" height="8" fill="#759ca7" opacity="0.5"/>
<rect x="536.7" y="249.0" width="6" height="8" fill="#759ca7" opacity="0.5"/>
<rect x="550.7" y="249.0" width="6" height="8" fill="#759ca7" opacity="0.5"/>
<rect x="550.7" y="265.0" width="6" height="8" fill="#759ca7" opacity="0.5"/>
<rect x="984.4" y="228.9" width="71.3" height="71.1" fill="#2b6777"/>
<rect x="1003.0" y="240.9" width="6" height="8" fill="#759ca7" opacity="0.5"/>
<rect x="1017.0" y="240.9" width="6" height="8" fill="#759ca7" opacity="0.5"/>
<rect x="1031.0" y="240.9" width="6" height="8" fill="#759ca7" opacity="0.5"/>
<rect x="1003.0" y="256.9" width="6" height="8" fill="#759ca7" opacity="0.5"/>
<rect x="1003.0" y="272.9" width="6" height="8" fill="#759ca7" opacity="0.5"/>
<rect x="1017.0" y="272.9" width="6" height="8" fill="#759ca7" opacity="0.5"/>
<rect x="1031.0" y="272.9" width="6" height="8" fill="#759ca7" opacity="0.5"/>
<rect x="0" y="298" width="1200" height="2" fill="#275d6b" opacity="0.15"/>
</svg>