<svg xmlns="http://www.w3.org/2000/svg" viewBox="0 0 1200 400" width="1200" height="400">
<defs>
<linearGradient id="bg" x1="0" y1="0" x2="0" y2="1"><stop offset="0%" stop-color="#94a3b8"/><stop offset="100%" stop-color="#0369a1"/></linearGradient>
<linearGradient id="warm" x1="0" y1="0" x2="1" y2="1"><stop offset="0%" stop-color="#f59e0b" stop-opacity="0.18"/><stop offset="100%" stop-color="#f59e0b" stop-opacity="0.06"/></linearGradient>
</defs>
<rect width="1200" height="400" fill="url(#bg)"/>
<path d="M0 400 L0 225.05407103253887 C60.0 230.9, 90.0 251.4, 150.0 244.6 C210.0 244.7, 240.0 254.9, 300.0 247.0 C360.0 255.4, 390.0 243.2, 450.0 235.6 C510.0 235.3, 540.0 234.5, 600.0 232.9 C660.0 225.4, 690.0 237.4, 750.0 233.7 C810.0 242.8, 840.0 246.7, 900.0 252.3 C960.0 250.7, 990.0 224.7, 1050.0 229.6 C1110.0 227.3, 1140.0 223.2, 1200.0 232.7 L1200 400 Z" fill="#367da9" opacity="0.45"/>
<path d="M0 400 L0 269.8999109110113 C52.5 264.7, 97.5 262.9, 150.0 258.1 C202.5 254.5, 247.5 255.7, 300.0 257.6 C352.5 260.3, 397.5 274.8, 450.0 272.7 C502.5 265.5, 547.5 277.4, 600.0 270.0 C652.5 263.0, 697.5 259.9, 750.0 256.2 C802.5 250.0, 847.5 272.7, 900.0 271.5 C952.5 273.7, 997.5 282.6, 1050.0 278.3 C1102.5 275.5, 1147.5 269.2, 1200.0 276.7 L1200 400 Z" fill="#0369a1" opacity="0.3"/>
<rect x="496.3" y="281.3" width="22.8" height="118.7" rx="3.4" fill="#05946b" opacity="0.70"/>
<rect x="501.3" y="291.3" width="4" height="5" rx="0.5" fill="#94a3b8" opacity="0.6"/>
<rect x="501.3" y="335.3" width="4" height="5" rx="0.5" fill="#94a3b8" opacity="0.6"/>
<rect x="282.1" y="309.9" width="35.9" height="90.1" rx="7.6" fill="#048282" opacity="0.62"/>
<rect x="321.4" y="336.4" width="12.0" height="63.6" rx="6.0" fill="#048380" opacity="0.54"/>
<rect x="771.6" y="325.9" width="39.7" height="74.1" rx="6.4" fill="#04867d" opacity="0.73"/>
<rect x="909.3" y="280.2" width="47.0" height="119.8" rx="4.4" fill="#05956a" opacity="0.63"/>
<rect x="914.3" y="290.2" width="4" height="5" rx="0.5" fill="#94a3b8" opacity="0.6"/>
<rect x="914.3" y="334.2" width="4" height="5" rx="0.5" fill="#94a3b8" opacity="0.6"/>
<rect x="930.0" y="334.2" width="4" height="5" rx="0.5" fill="#94a3b8" opacity="0.6"/>
<rect x="914.3" y="356.2" width="4" height="5" rx="0.5" fill="#94a3b8" opacity="0.6"/>
<rect x="930.0" y="356.2" width="4" height="5" rx="0.5" fill="#94a3b8" opacity="0.6"/>
<rect x="458.3" y="292.4" width="26.6" height="107.6" rx="6.2" fill="#05936c" opacity="0.55"/>
<rect x="760.2" y="357.2" width="27.9" height="42.8" rx="5.2" fill="#047f86" opacity="0.61"/>
<rect x="277.6" y="345.8" width="49.1" height="54.2" rx="7.8" fill="#048085" opacity="0.69"/>
<rect x="968.8" y="284.3" width="36.2" height="115.7" rx="6.9" fill="#048281" opacity="0.59"/>
<rect x="1035.2" y="294.6" width="43.3" height="105.4" rx="6.9" fill="#047d88" opacity="0.65"/>
<rect x="619.9" y="305.3" width="31.8" height="94.7" rx="6.2" fill="#048085" opacity="0.52"/>
<rect x="624.9" y="315.3" width="4" height="5" rx="0.5" fill="#94a3b8" opacity="0.6"/>
<rect x="624.9" y="359.3" width="4" height="5" rx="0.5" fill="#94a3b8" opacity="0.6"/>
<rect x="895.1" y="275.1" width="16.5" height="124.9" rx="7.8" fill="#059070" opacity="0.80"/>
<rect x="900.1" y="285.1" width="4" height="5" rx="0.5" fill="#94a3b8" opacity="0.6"/>
<rect x="900.1" y="351.1" width="4" height="5" rx="0.5" fill="#94a3b8" opacity="0.6"/>
<rect x="497.3" y="313.7" width="23.8" height="86.3" rx="6.5" fill="#048183" opacity="0.73"/>
<rect x="247.5" y="289.1" width="25.3" height="110.9" rx="5.0" fill="#059071" opacity="0.79"/>
<rect x="252.5" y="321.1" width="4" height="5" rx="0.5" fill="#94a3b8" opacity="0.6"/>
<rect x="252.5" y="343.1" width="4" height="5" rx="0.5" fill="#94a3b8" opacity="0.6"/>
<rect x="252.5" y="365.1" width="4" height="5" rx="0.5" fill="#94a3b8" opacity="0.6"/>
<circle cx="269.3" cy="47.0" r="5.5" fill="#059669" opacity="0.32"/>
<circle cx="645.2" cy="234.0" r="10.8" fill="#059669" opacity="0.26"/>
<circle cx="65.8" cy="113.8" r="9.0" fill="#059669" opacity="0.44"/>
<circle cx="34.1" cy="187.1" r="9.3" fill="#94a3b8" opacity="0.24"/>
<circle cx="374.6" cy="99.0" r="6.4" fill="#94a3b8" opacity="0.21"/>
<circle cx="802.7" cy="196.2" r="5.3" fill="#059669" opacity="0.20"/>
<circle cx="134.4" cy="169.0" r="11.0" fill="#059669" opacity="0.19"/>
<circle cx="1160.9" cy="157.8" r="3.6" fill="#059669" opacity="0.25"/>
<rect width="1200" height="400" fill="url(#warm)"/>
<rect width="1200" height="400" fill="#94a3b8" opacity="0.35"/>
</svg>