<svg xmlns="http://www.w3.org/2000/svg" viewBox="0 0 1200 400" width="1200" height="400">
<defs>
<linearGradient id="bg" x1="0" y1="0" x2="0" y2="1"><stop offset="0%" stop-color="#94a3b8"/><stop offset="100%" stop-color="#0369a1"/></linearGradient>
<linearGradient id="warm" x1="0" y1="0" x2="1" y2="1"><stop offset="0%" stop-color="#c0964e" stop-opacity="0.18"/><stop offset="100%" stop-color="#c0964e" stop-opacity="0.06"/></linearGradient>
</defs>
<rect width="1200" height="400" fill="url(#bg)"/>
<path d="M0 400 L0 249.1416195439693 C60.0 256.2, 90.0 222.7, 150.0 217.3 C210.0 220.4, 240.0 238.1, 300.0 233.3 C360.0 230.0, 390.0 255.5, 450.0 247.2 C510.0 254.7, 540.0 234.3, 600.0 226.4 C660.0 223.0, 690.0 219.3, 750.0 223.4 C810.0 231.5, 840.0 234.6, 900.0 241.7 C960.0 244.4, 990.0 251.8, 1050.0 251.5 C1110.0 248.3, 1140.0 230.7, 1200.0 227.1 L1200 400 Z" fill="#367da9" opacity="0.45"/>
<path d="M0 400 L0 270.8833202410736 C52.5 271.2, 97.5 268.5, 150.0 272.6 C202.5 272.8, 247.5 274.0, 300.0 267.9 C352.5 269.1, 397.5 275.8, 450.0 276.3 C502.5 280.7, 547.5 255.2, 600.0 259.7 C652.5 259.4, 697.5 260.6, 750.0 267.2 C802.5 273.9, 847.5 276.5, 900.0 271.4 C952.5 278.2, 997.5 268.3, 1050.0 272.5 C1102.5 269.7, 1147.5 266.4, 1200.0 270.0 L1200 400 Z" fill="#0369a1" opacity="0.3"/>
<rect x="363.8" y="318.3" width="16.8" height="81.7" rx="4.7" fill="#05946c" opacity="0.67"/>
<rect x="393.7" y="305.6" width="40.9" height="94.4" rx="3.7" fill="#048084" opacity="0.79"/>
<rect x="412.3" y="337.6" width="4" height="5" rx="0.5" fill="#94a3b8" opacity="0.6"/>
<rect x="412.3" y="359.6" width="4" height="5" rx="0.5" fill="#94a3b8" opacity="0.6"/>
<rect x="200.6" y="343.5" width="26.6" height="56.5" rx="5.8" fill="#058b76" opacity="0.64"/>
<rect x="792.2" y="344.0" width="38.3" height="56.0" rx="3.7" fill="#05956b" opacity="0.66"/>
<rect x="858.2" y="334.7" width="16.9" height="65.3" rx="6.6" fill="#04857e" opacity="0.56"/>
<rect x="754.5" y="298.2" width="21.4" height="101.8" rx="7.0" fill="#04887b" opacity="0.83"/>
<rect x="759.5" y="308.2" width="4" height="5" rx="0.5" fill="#94a3b8" opacity="0.6"/>
<rect x="759.5" y="330.2" width="4" height="5" rx="0.5" fill="#94a3b8" opacity="0.6"/>
<rect x="759.5" y="352.2" width="4" height="5" rx="0.5" fill="#94a3b8" opacity="0.6"/>
<rect x="759.5" y="374.2" width="4" height="5" rx="0.5" fill="#94a3b8" opacity="0.6"/>
<rect x="392.9" y="312.7" width="30.4" height="87.3" rx="4.5" fill="#04867d" opacity="0.60"/>
<rect x="913.3" y="348.5" width="18.3" height="51.5" rx="5.5" fill="#05956a" opacity="0.78"/>
<rect x="300.4" y="288.5" width="47.3" height="111.5" rx="7.6" fill="#047f85" opacity="0.68"/>
<rect x="305.4" y="298.5" width="4" height="5" rx="0.5" fill="#94a3b8" opacity="0.6"/>
<rect x="305.4" y="342.5" width="4" height="5" rx="0.5" fill="#94a3b8" opacity="0.6"/>
<rect x="321.1" y="342.5" width="4" height="5" rx="0.5" fill="#94a3b8" opacity="0.6"/>
<rect x="321.1" y="364.5" width="4" height="5" rx="0.5" fill="#94a3b8" opacity="0.6"/>
<rect x="792.2" y="335.3" width="44.8" height="64.7" rx="3.1" fill="#05926f" opacity="0.68"/>
<rect x="738.1" y="311.7" width="25.5" height="88.3" rx="6.9" fill="#059669" opacity="0.80"/>
<rect x="800.7" y="359.9" width="44.8" height="40.1" rx="3.8" fill="#047c89" opacity="0.82"/>
<rect x="360.8" y="263.4" width="34.9" height="136.6" rx="7.7" fill="#04887b" opacity="0.84"/>
<rect x="155.4" y="328.5" width="40.2" height="71.5" rx="3.4" fill="#058d75" opacity="0.55"/>
<circle cx="732.3" cy="149.4" r="4.8" fill="#059669" opacity="0.41"/>
<circle cx="181.5" cy="126.4" r="4.1" fill="#94a3b8" opacity="0.25"/>
<rect width="1200" height="400" fill="url(#warm)"/>
<rect width="1200" height="400" fill="#94a3b8" opacity="0.40"/>
</svg>