<svg xmlns="http://www.w3.org/2000/svg" viewBox="0 0 1200 300" width="1200" height="300">
<rect width="1200" height="300" fill="#e0eff2"/>
<path d="M0 300 L0 210.0 C278.7 190.0, 964.9 195.3, 1200 210.0 L1200 300 Z" fill="#aac2c9" opacity="0.3"/>
<rect x="128.8" y="181.5" width="47.8" height="118.5" fill="#8aabb4"/>
<rect x="369.8" y="189.1" width="52.6" height="110.9" fill="#8aabb4"/>
<rect x="580.3" y="218.4" width="72.7" height="81.6" fill="#8aabb4"/>
<rect x="810.8" y="180.5" width="85.6" height="119.5" fill="#8aabb4"/>
<rect x="1014.0" y="179.5" width="56.3" height="120.5" fill="#8aabb4"/>
<rect x="132.5" y="176.5" width="41.7" height="123.5" fill="#558592"/>
<rect x="150.3" y="204.5" width="6" height="8" fill="#91b0b8" opacity="0.5"/>
<rect x="150.3" y="220.5" width="6" height="8" fill="#91b0b8" opacity="0.5"/>
<rect x="150.3" y="236.5" width="6" height="8" fill="#91b0b8" opacity="0.5"/>
<rect x="150.3" y="268.5" width="6" height="8" fill="#91b0b8" opacity="0.5"/>
<rect x="359.4" y="159.9" width="50.4" height="140.1" fill="#558592"/>
<rect x="388.6" y="171.9" width="6" height="8" fill="#91b0b8" opacity="0.5"/>
<rect x="374.6" y="187.9" width="6" height="8" fill="#91b0b8" opacity="0.5"/>
<rect x="388.6" y="187.9" width="6" height="8" fill="#91b0b8" opacity="0.5"/>
<rect x="388.6" y="203.9" width="6" height="8" fill="#91b0b8" opacity="0.5"/>
<rect x="374.6" y="219.9" width="6" height="8" fill="#91b0b8" opacity="0.5"/>
<rect x="388.6" y="219.9" width="6" height="8" fill="#91b0b8" opacity="0.5"/>
<rect x="374.6" y="235.9" width="6" height="8" fill="#91b0b8" opacity="0.5"/>
<rect x="388.6" y="235.9" width="6" height="8" fill="#91b0b8" opacity="0.5"/>
<rect x="388.6" y="251.9" width="6" height="8" fill="#91b0b8" opacity="0.5"/>
<rect x="388.6" y="267.9" width="6" height="8" fill="#91b0b8" opacity="0.5"/>
<rect x="569.2" y="144.4" width="68.0" height="155.6" fill="#558592"/>
<rect x="586.2" y="156.4" width="6" height="8" fill="#91b0b8" opacity="0.5"/>
<rect x="586.2" y="172.4" width="6" height="8" fill="#91b0b8" opacity="0.5"/>
<rect x="600.2" y="172.4" width="6" height="8" fill="#91b0b8" opacity="0.5"/>
<rect x="614.2" y="172.4" width="6" height="8" fill="#91b0b8" opacity="0.5"/>
<rect x="586.2" y="188.4" width="6" height="8" fill="#91b0b8" opacity="0.5"/>
<rect x="614.2" y="188.4" width="6" height="8" fill="#91b0b8" opacity="0.5"/>
<rect x="614.2" y="204.4" width="6" height="8" fill="#91b0b8" opacity="0.5"/>
<rect x="600.2" y="220.4" width="6" height="8" fill="#91b0b8" opacity="0.5"/>
<rect x="614.2" y="220.4" width="6" height="8" fill="#91b0b8" opacity="0.5"/>
<rect x="586.2" y="236.4" width="6" height="8" fill="#91b0b8" opacity="0.5"/>
<rect x="600.2" y="236.4" width="6" height="8" fill="#91b0b8" opacity="0.5"/>
<rect x="600.2" y="252.4" width="6" height="8" fill="#91b0b8" opacity="0.5"/>
<rect x="614.2" y="252.4" width="6" height="8" fill="#91b0b8" opacity="0.5"/>
<rect x="586.2" y="268.4" width="6" height="8" fill="#91b0b8" opacity="0.5"/>
<rect x="600.2" y="268.4" width="6" height="8" fill="#91b0b8" opacity="0.5"/>
<rect x="614.2" y="268.4" width="6" height="8" fill="#91b0b8" opacity="0.5"/>
<rect x="806.8" y="161.7" width="44.9" height="138.3" fill="#558592"/>
<rect x="819.3" y="173.7" width="6" height="8" fill="#91b0b8" opacity="0.5"/>
<rect x="833.3" y="173.7" width="6" height="8" fill="#91b0b8" opacity="0.5"/>
<rect x="819.3" y="189.7" width="6" height="8" fill="#91b0b8" opacity="0.5"/>
<rect x="833.3" y="189.7" width="6" height="8" fill="#91b0b8" opacity="0.5"/>
<rect x="819.3" y="205.7" width="6" height="8" fill="#91b0b8" opacity="0.5"/>
<rect x="833.3" y="205.7" width="6" height="8" fill="#91b0b8" opacity="0.5"/>
<rect x="819.3" y="221.7" width="6" height="8" fill="#91b0b8" opacity="0.5"/>
<rect x="833.3" y="221.7" width="6" height="8" fill="#91b0b8" opacity="0.5"/>
<rect x="819.3" y="237.7" width="6" height="8" fill="#91b0b8" opacity="0.5"/>
<rect x="833.3" y="237.7" width="6" height="8" fill="#91b0b8" opacity="0.5"/>
<rect x="819.3" y="253.7" width="6" height="8" fill="#91b0b8" opacity="0.5"/>
<rect x="1031.0" y="176.4" width="67.8" height="123.6" fill="#558592"/>
<rect x="1047.9" y="188.4" width="6" height="8" fill="#91b0b8" opacity="0.5"/>
<rect x="1061.9" y="188.4" width="6" height="8" fill="#91b0b8" opacity="0.5"/>
<rect x="1047.9" y="204.4" width="6" height="8" fill="#91b0b8" opacity="0.5"/>
<rect x="1061.9" y="204.4" width="6" height="8" fill="#91b0b8" opacity="0.5"/>
<rect x="1075.9" y="204.4" width="6" height="8" fill="#91b0b8" opacity="0.5"/>
<rect x="1061.9" y="220.4" width="6" height="8" fill="#91b0b8" opacity="0.5"/>
<rect x="1075.9" y="220.4" width="6" height="8" fill="#91b0b8" opacity="0.5"/>
<rect x="1047.9" y="236.4" width="6" height="8" fill="#91b0b8" opacity="0.5"/>
<rect x="1061.9" y="236.4" width="6" height="8" fill="#91b0b8" opacity="0.5"/>
<rect x="1075.9" y="236.4" width="6" height="8" fill="#91b0b8" opacity="0.5"/>
<rect x="1075.9" y="252.4" width="6" height="8" fill="#91b0b8" opacity="0.5"/>
<rect x="1047.9" y="268.4" width="6" height="8" fill="#91b0b8" opacity="0.5"/>
<rect x="1061.9" y="268.4" width="6" height="8" fill="#91b0b8" opacity="0.5"/>
<rect x="1075.9" y="268.4" width="6" height="8" fill="#91b0b8" opacity="0.5"/>
<rect x="124.9" y="119.1" width="40.4" height="180.9" fill="#2b6777"/>
<rect x="142.1" y="131.1" width="6" height="8" fill="#759ca7" opacity="0.5"/>
<rect x="142.1" y="147.1" width="6" height="8" fill="#759ca7" opacity="0.5"/>
<rect x="142.1" y="163.1" width="6" height="8" fill="#759ca7" opacity="0.5"/>
<rect x="142.1" y="179.1" width="6" height="8" fill="#759ca7" opacity="0.5"/>
<rect x="142.1" y="227.1" width="6" height="8" fill="#759ca7" opacity="0.5"/>
<rect x="142.1" y="243.1" width="6" height="8" fill="#759ca7" opacity="0.5"/>
<rect x="142.1" y="259.1" width="6" height="8" fill="#759ca7" opacity="0.5"/>
<rect x="341.4" y="135.2" width="56.1" height="164.8" fill="#2b6777"/>
<rect x="359.5" y="147.2" width="6" height="8" fill="#759ca7" opacity="0.5"/>
<rect x="373.5" y="147.2" width="6" height="8" fill="#759ca7" opacity="0.5"/>
<rect x="373.5" y="163.2" width="6" height="8" fill="#759ca7" opacity="0.5"/>
<rect x="373.5" y="179.2" width="6" height="8" fill="#759ca7" opacity="0.5"/>
<rect x="373.5" y="195.2" width="6" height="8" fill="#759ca7" opacity="0.5"/>
<rect x="373.5" y="211.2" width="6" height="8" fill="#759ca7" opacity="0.5"/>
<rect x="359.5" y="227.2" width="6" height="8" fill="#759ca7" opacity="0.5"/>
<rect x="373.5" y="227.2" width="6" height="8" fill="#759ca7" opacity="0.5"/>
<rect x="359.5" y="243.2" width="6" height="8" fill="#759ca7" opacity="0.5"/>
<rect x="373.5" y="243.2" width="6" height="8" fill="#759ca7" opacity="0.5"/>
<rect x="359.5" y="259.2" width="6" height="8" fill="#759ca7" opacity="0.5"/>
<rect x="373.5" y="259.2" width="6" height="8" fill="#759ca7" opacity="0.5"/>
<rect x="579.1" y="242.8" width="39.1" height="57.2" fill="#2b6777"/>
<rect x="815.0" y="112.0" width="72.7" height="188.0" fill="#2b6777"/>
<rect x="827.3" y="124.0" width="6" height="8" fill="#759ca7" opacity="0.5"/>
<rect x="841.3" y="124.0" width="6" height="8" fill="#759ca7" opacity="0.5"/>
<rect x="855.3" y="124.0" width="6" height="8" fill="#759ca7" opacity="0.5"/>
<rect x="869.3" y="124.0" width="6" height="8" fill="#759ca7" opacity="0.5"/>
<rect x="855.3" y="140.0" width="6" height="8" fill="#759ca7" opacity="0.5"/>
<rect x="827.3" y="156.0" width="6" height="8" fill="#759ca7" opacity="0.5"/>
<rect x="841.3" y="156.0" width="6" height="8" fill="#759ca7" opacity="0.5"/>
<rect x="869.3" y="156.0" width="6" height="8" fill="#759ca7" opacity="0.5"/>
<rect x="827.3" y="172.0" width="6" height="8" fill="#759ca7" opacity="0.5"/>
<rect x="855.3" y="172.0" width="6" height="8" fill="#759ca7" opacity="0.5"/>
<rect x="827.3" y="188.0" width="6" height="8" fill="#759ca7" opacity="0.5"/>
<rect x="841.3" y="188.0" width="6" height="8" fill="#759ca7" opacity="0.5"/>
<rect x="855.3" y="188.0" width="6" height="8" fill="#759ca7" opacity="0.5"/>
<rect x="869.3" y="188.0" width="6" height="8" fill="#759ca7" opacity="0.5"/>
<rect x="827.3" y="204.0" width="6" height="8" fill="#759ca7" opacity="0.5"/>
<rect x="841.3" y="204.0" width="6" height="8" fill="#759ca7" opacity="0.5"/>
<rect x="869.3" y="204.0" width="6" height="8" fill="#759ca7" opacity="0.5"/>
<rect x="841.3" y="220.0" width="6" height="8" fill="#759ca7" opacity="0.5"/>
<rect x="855.3" y="220.0" width="6" height="8" fill="#759ca7" opacity="0.5"/>
<rect x="827.3" y="236.0" width="6" height="8" fill="#759ca7" opacity="0.5"/>
<rect x="841.3" y="236.0" width="6" height="8" fill="#759ca7" opacity="0.5"/>
<rect x="855.3" y="236.0" width="6" height="8" fill="#759ca7" opacity="0.5"/>
<rect x="827.3" y="252.0" width="6" height="8" fill="#759ca7" opacity="0.5"/>
<rect x="855.3" y="252.0" width="6" height="8" fill="#759ca7" opacity="0.5"/>
<rect x="869.3" y="252.0" width="6" height="8" fill="#759ca7" opacity="0.5"/>
<rect x="827.3" y="268.0" width="6" height="8" fill="#759ca7" opacity="0.5"/>
<rect x="841.3" y="268.0" width="6" height="8" fill="#759ca7" opacity="0.5"/>
<rect x="855.3" y="268.0" width="6" height="8" fill="#759ca7" opacity="0.5"/>
<rect x="1023.4" y="212.9" width="40.1" height="87.1" fill="#2b6777"/>
<rect x="1040.4" y="240.9" width="6" height="8" fill="#759ca7" opacity="0.5"/>
<rect x="1040.4" y="272.9" width="6" height="8" fill="#759ca7" opacity="0.5"/>
<rect x="0" y="298" width="1200" height="2" fill="#275d6b" opacity="0.15"/>
</svg>