<svg xmlns="http://www.w3.org/2000/svg" viewBox="0 0 1200 300" width="1200" height="300">
<defs>
<linearGradient id="skyGrad" x1="0" y1="0" x2="0" y2="1">
<stop offset="0%" stop-color="#818cf8"/>
<stop offset="20%" stop-color="#c4b5fd"/>
<stop offset="38%" stop-color="#fda4af"/>
<stop offset="55%" stop-color="#fdba74"/>
<stop offset="75%" stop-color="#fef08a"/>
<stop offset="100%" stop-color="#fef9c3"/>
</linearGradient>
<linearGradient id="bldg_coral" x1="0" y1="0" x2="0" y2="1"><stop offset="0%" stop-color="#fecaca"/><stop offset="100%" stop-color="#fca5a5"/></linearGradient>
<linearGradient id="bldg_teal" x1="0" y1="0" x2="0" y2="1"><stop offset="0%" stop-color="#99f6e4"/><stop offset="100%" stop-color="#5eead4"/></linearGradient>
<linearGradient id="bldg_amber" x1="0" y1="0" x2="0" y2="1"><stop offset="0%" stop-color="#fde68a"/><stop offset="100%" stop-color="#fcd34d"/></linearGradient>
<linearGradient id="bldg_lavender" x1="0" y1="0" x2="0" y2="1"><stop offset="0%" stop-color="#ddd6fe"/><stop offset="100%" stop-color="#c4b5fd"/></linearGradient>
<linearGradient id="bldg_blue" x1="0" y1="0" x2="0" y2="1"><stop offset="0%" stop-color="#bfdbfe"/><stop offset="100%" stop-color="#93c5fd"/></linearGradient>
<linearGradient id="bldg_mint" x1="0" y1="0" x2="0" y2="1"><stop offset="0%" stop-color="#a7f3d0"/><stop offset="100%" stop-color="#6ee7b7"/></linearGradient>
<linearGradient id="bldg_rose" x1="0" y1="0" x2="0" y2="1"><stop offset="0%" stop-color="#fecdd3"/><stop offset="100%" stop-color="#fda4af"/></linearGradient>
<linearGradient id="bldg_sky" x1="0" y1="0" x2="0" y2="1"><stop offset="0%" stop-color="#bae6fd"/><stop offset="100%" stop-color="#7dd3fc"/></linearGradient>
<linearGradient id="roof_navyRoof" x1="0" y1="0" x2="0" y2="1"><stop offset="0%" stop-color="#4338ca"/><stop offset="100%" stop-color="#3730a3"/></linearGradient>
<linearGradient id="roof_coralRoof" x1="0" y1="0" x2="0" y2="1"><stop offset="0%" stop-color="#f87171"/><stop offset="100%" stop-color="#ef4444"/></linearGradient>
<linearGradient id="roof_tealRoof" x1="0" y1="0" x2="0" y2="1"><stop offset="0%" stop-color="#2dd4bf"/><stop offset="100%" stop-color="#14b8a6"/></linearGradient>
<radialGradient id="windowGlow" cx="50%" cy="50%" r="50%"><stop offset="0%" stop-color="#fef08a"/><stop offset="60%" stop-color="#fbbf24"/><stop offset="100%" stop-color="#f59e0b"/></radialGradient>
<linearGradient id="hillFar" x1="0" y1="0" x2="0" y2="1"><stop offset="0%" stop-color="#c4b5fd"/><stop offset="100%" stop-color="#a5b4fc"/></linearGradient>
<linearGradient id="hillMid" x1="0" y1="0" x2="0" y2="1"><stop offset="0%" stop-color="#86efac"/><stop offset="100%" stop-color="#4ade80"/></linearGradient>
<linearGradient id="hillNear" x1="0" y1="0" x2="0" y2="1"><stop offset="0%" stop-color="#34d399"/><stop offset="100%" stop-color="#10b981"/></linearGradient>
<linearGradient id="hillDesertFar" x1="0" y1="0" x2="0" y2="1"><stop offset="0%" stop-color="#fde68a"/><stop offset="100%" stop-color="#fcd34d"/></linearGradient>
<linearGradient id="hillDesertMid" x1="0" y1="0" x2="0" y2="1"><stop offset="0%" stop-color="#fcd34d"/><stop offset="100%" stop-color="#fbbf24"/></linearGradient>
<linearGradient id="hillDesertNear" x1="0" y1="0" x2="0" y2="1"><stop offset="0%" stop-color="#fbbf24"/><stop offset="100%" stop-color="#f59e0b"/></linearGradient>
<linearGradient id="groundGrad" x1="0" y1="0" x2="0" y2="1"><stop offset="0%" stop-color="#fef3c7"/><stop offset="100%" stop-color="#fde68a"/></linearGradient>
<linearGradient id="waterGrad" x1="0" y1="0" x2="0" y2="1"><stop offset="0%" stop-color="#bfdbfe"/><stop offset="100%" stop-color="#93c5fd"/></linearGradient>
<filter id="softGlow" x="-50%" y="-50%" width="200%" height="200%"><feGaussianBlur in="SourceGraphic" stdDeviation="12"/></filter>
</defs>
<rect width="1200" height="300" fill="url(#skyGrad)"/>
<circle cx="1055.6" cy="44.5" r="45" fill="#fef08a" opacity="0.12" filter="url(#softGlow)"/>
<circle cx="1055.6" cy="44.5" r="30" fill="#fde68a" opacity="0.18" filter="url(#softGlow)"/>
<circle cx="1055.6" cy="44.5" r="16" fill="#fef9c3" opacity="0.25" filter="url(#softGlow)"/>
<ellipse cx="286.3" cy="27.5" rx="44.2" ry="15.5" fill="white" opacity="0.5"/>
<ellipse cx="258.7" cy="31.9" rx="30.9" ry="12.2" fill="white" opacity="0.5"/>
<ellipse cx="310.6" cy="30.8" rx="35.3" ry="13.3" fill="white" opacity="0.4"/>
<ellipse cx="275.3" cy="38.1" rx="42.1" ry="14.7" fill="white" opacity="0.7"/>
<ellipse cx="249.0" cy="42.3" rx="29.5" ry="11.6" fill="white" opacity="0.6"/>
<ellipse cx="298.4" cy="41.3" rx="33.7" ry="12.6" fill="white" opacity="0.6"/>
<ellipse cx="828.4" cy="37.7" rx="37.0" ry="13.0" fill="white" opacity="0.7"/>
<ellipse cx="805.3" cy="41.4" rx="25.9" ry="10.2" fill="white" opacity="0.6"/>
<ellipse cx="848.8" cy="40.5" rx="29.6" ry="11.1" fill="white" opacity="0.6"/>
<path d="M0 300 L0.0 192.9 C99.9 192.9, 99.9 192.4, 199.8 192.4 C344.9 192.4, 344.9 186.8, 490.0 186.8 C622.8 186.8, 622.8 178.6, 755.7 178.6 C844.4 178.6, 844.4 186.9, 933.1 186.9 C1066.5 186.9, 1066.5 192.5, 1200.0 192.5 L1200 300 Z" fill="url(#hillFar)" opacity="0.5"/>
<path d="M0 300 L0.0 211.3 C126.5 211.3, 126.5 214.1, 252.9 214.1 C401.1 214.1, 401.1 203.3, 549.2 203.3 C745.2 203.3, 745.2 214.5, 941.2 214.5 C1070.6 214.5, 1070.6 215.8, 1200.0 215.8 L1200 300 Z" fill="url(#hillMid)" opacity="0.7"/>
<path d="M0 300 L0.0 234.0 C112.1 234.0, 112.1 231.4, 224.2 231.4 C368.8 231.4, 368.8 234.3, 513.4 234.3 C639.9 234.3, 639.9 231.3, 766.4 231.3 C852.7 231.3, 852.7 230.3, 939.1 230.3 C1069.5 230.3, 1069.5 235.7, 1200.0 235.7 L1200 300 Z" fill="url(#hillNear)" opacity="1"/>
<rect x="340.3" y="201.9" width="73.3" height="98.1" rx="3" fill="url(#bldg_coral)" opacity="0.7"/>
<rect x="355.0" y="190.2" width="44.0" height="11.8" rx="2" fill="url(#roof_coralRoof)" opacity="0.7"/>
<rect x="352.9" y="211.9" width="6" height="8" rx="1" fill="url(#windowGlow)" opacity="0.7819225032264006"/>
<rect x="366.9" y="211.9" width="6" height="8" rx="1" fill="url(#windowGlow)" opacity="0.9670492112948788"/>
<rect x="380.9" y="211.9" width="6" height="8" rx="1" fill="url(#windowGlow)" opacity="0.9833240243994277"/>
<rect x="394.9" y="211.9" width="6" height="8" rx="1" fill="url(#windowGlow)" opacity="0.9204408882281001"/>
<rect x="352.9" y="226.9" width="6" height="8" rx="1" fill="url(#windowGlow)" opacity="0.7241094783060762"/>
<rect x="366.9" y="226.9" width="6" height="8" rx="1" fill="url(#windowGlow)" opacity="0.9141685273564274"/>
<rect x="380.9" y="226.9" width="6" height="8" rx="1" fill="url(#windowGlow)" opacity="0.8508162169488223"/>
<rect x="394.9" y="226.9" width="6" height="8" rx="1" fill="url(#windowGlow)" opacity="0.7857496285279046"/>
<rect x="366.9" y="241.9" width="6" height="8" rx="1" fill="url(#windowGlow)" opacity="0.9220402460182273"/>
<rect x="380.9" y="241.9" width="6" height="8" rx="1" fill="url(#windowGlow)" opacity="0.7663086080766788"/>
<rect x="394.9" y="241.9" width="6" height="8" rx="1" fill="url(#windowGlow)" opacity="0.8425036699709033"/>
<rect x="352.9" y="256.9" width="6" height="8" rx="1" fill="url(#windowGlow)" opacity="0.7132710992886084"/>
<rect x="380.9" y="256.9" width="6" height="8" rx="1" fill="url(#windowGlow)" opacity="0.7440773087758931"/>
<rect x="394.9" y="256.9" width="6" height="8" rx="1" fill="url(#windowGlow)" opacity="0.7361627718602133"/>
<rect x="867.3" y="196.7" width="48.8" height="103.3" rx="3" fill="url(#bldg_teal)" opacity="0.7"/>
<rect x="877.1" y="184.3" width="29.3" height="12.4" rx="2" fill="url(#roof_tealRoof)" opacity="0.7"/>
<rect x="881.7" y="221.7" width="6" height="8" rx="1" fill="url(#windowGlow)" opacity="0.8366364958866669"/>
<rect x="895.7" y="221.7" width="6" height="8" rx="1" fill="url(#windowGlow)" opacity="0.7371558056851643"/>
<rect x="881.7" y="236.7" width="6" height="8" rx="1" fill="url(#windowGlow)" opacity="0.9202065879107483"/>
<rect x="895.7" y="236.7" width="6" height="8" rx="1" fill="url(#windowGlow)" opacity="0.9186398171440883"/>
<rect x="881.7" y="251.7" width="6" height="8" rx="1" fill="url(#windowGlow)" opacity="0.9935536816686176"/>
<rect x="895.7" y="251.7" width="6" height="8" rx="1" fill="url(#windowGlow)" opacity="0.8831945686057184"/>
<rect x="157.6" y="174.0" width="48.2" height="126.0" rx="3" fill="url(#bldg_amber)" opacity="0.85"/>
<polygon points="157.6,174.0 181.7,160.0 205.7,174.0" fill="url(#roof_navyRoof)" opacity="0.85"/>
<rect x="171.7" y="184.0" width="6" height="8" rx="1" fill="url(#windowGlow)" opacity="0.9211293463227941"/>
<rect x="185.7" y="184.0" width="6" height="8" rx="1" fill="url(#windowGlow)" opacity="0.7408393646314924"/>
<rect x="171.7" y="199.0" width="6" height="8" rx="1" fill="url(#windowGlow)" opacity="0.9916094849778383"/>
<rect x="185.7" y="199.0" width="6" height="8" rx="1" fill="url(#windowGlow)" opacity="0.8522584037167291"/>
<rect x="171.7" y="214.0" width="6" height="8" rx="1" fill="url(#windowGlow)" opacity="0.8592164263404982"/>
<rect x="185.7" y="214.0" width="6" height="8" rx="1" fill="url(#windowGlow)" opacity="0.9788792110881206"/>
<rect x="171.7" y="229.0" width="6" height="8" rx="1" fill="url(#windowGlow)" opacity="0.9107812157416628"/>
<rect x="185.7" y="229.0" width="6" height="8" rx="1" fill="url(#windowGlow)" opacity="0.9649238077760318"/>
<rect x="185.7" y="244.0" width="6" height="8" rx="1" fill="url(#windowGlow)" opacity="0.8693416763885606"/>
<rect x="171.7" y="259.0" width="6" height="8" rx="1" fill="url(#windowGlow)" opacity="0.7513173251651774"/>
<rect x="185.7" y="259.0" width="6" height="8" rx="1" fill="url(#windowGlow)" opacity="0.9838180247153239"/>
<rect x="590.9" y="226.3" width="45.4" height="73.7" rx="3" fill="url(#bldg_lavender)" opacity="0.85"/>
<rect x="599.9" y="217.5" width="27.3" height="8.8" rx="2" fill="url(#roof_coralRoof)" opacity="0.85"/>
<rect x="603.6" y="251.3" width="6" height="8" rx="1" fill="url(#windowGlow)" opacity="0.7260709758038031"/>
<rect x="922.9" y="182.3" width="57.9" height="117.7" rx="3" fill="url(#bldg_blue)" opacity="0.85"/>
<rect x="934.5" y="168.1" width="34.7" height="14.1" rx="2" fill="url(#roof_tealRoof)" opacity="0.85"/>
<rect x="955.9" y="207.3" width="6" height="8" rx="1" fill="url(#windowGlow)" opacity="0.9995576583312626"/>
<rect x="955.9" y="222.3" width="6" height="8" rx="1" fill="url(#windowGlow)" opacity="0.9626484753390068"/>
<rect x="941.9" y="237.3" width="6" height="8" rx="1" fill="url(#windowGlow)" opacity="0.7760104089863646"/>
<rect x="955.9" y="237.3" width="6" height="8" rx="1" fill="url(#windowGlow)" opacity="0.7590987226735328"/>
<rect x="941.9" y="252.3" width="6" height="8" rx="1" fill="url(#windowGlow)" opacity="0.9142242109934912"/>
<rect x="955.9" y="252.3" width="6" height="8" rx="1" fill="url(#windowGlow)" opacity="0.8088703882921815"/>
<path d="M928.7 223.5 L951.9 223.5 L948.9 229.5 L931.7 229.5 Z" fill="url(#roof_coralRoof)" opacity="0.68"/>
<rect x="167.5" y="232.2" width="44.9" height="67.8" rx="3" fill="url(#bldg_mint)" opacity="1"/>
<rect x="167.5" y="229.2" width="44.9" height="3" rx="1" fill="url(#roof_navyRoof)" opacity="1"/>
<rect x="194.0" y="242.2" width="6" height="8" rx="1" fill="url(#windowGlow)" opacity="0.8746208863680348"/>
<rect x="180.0" y="257.2" width="6" height="8" rx="1" fill="url(#windowGlow)" opacity="0.7246964477583283"/>
<rect x="194.0" y="257.2" width="6" height="8" rx="1" fill="url(#windowGlow)" opacity="0.7304199210975412"/>
<rect x="185.0" y="284.0" width="10" height="16" rx="2" fill="url(#roof_navyRoof)" opacity="0.8"/>
<rect x="187.0" y="287.0" width="6" height="10" rx="1" fill="url(#windowGlow)" opacity="0.45"/>
<path d="M190.0 255.9 L208.0 255.9 L205.0 261.9 L193.0 261.9 Z" fill="url(#roof_tealRoof)" opacity="0.8"/>
<rect x="534.5" y="214.6" width="59.2" height="85.4" rx="3" fill="url(#bldg_rose)" opacity="1"/>
<polygon points="534.5,214.6 564.2,194.0 593.8,214.6" fill="url(#roof_coralRoof)" opacity="1"/>
<rect x="547.2" y="224.6" width="6" height="8" rx="1" fill="url(#windowGlow)" opacity="0.8006217577963237"/>
<rect x="561.2" y="224.6" width="6" height="8" rx="1" fill="url(#windowGlow)" opacity="0.7501818921650675"/>
<rect x="575.2" y="224.6" width="6" height="8" rx="1" fill="url(#windowGlow)" opacity="0.8851239509811271"/>
<rect x="547.2" y="239.6" width="6" height="8" rx="1" fill="url(#windowGlow)" opacity="0.8057094017535957"/>
<rect x="561.2" y="239.6" width="6" height="8" rx="1" fill="url(#windowGlow)" opacity="0.7048384432703435"/>
<rect x="547.2" y="254.6" width="6" height="8" rx="1" fill="url(#windowGlow)" opacity="0.7981658524825078"/>
<rect x="561.2" y="254.6" width="6" height="8" rx="1" fill="url(#windowGlow)" opacity="0.942016228168279"/>
<rect x="575.2" y="254.6" width="6" height="8" rx="1" fill="url(#windowGlow)" opacity="0.735965734411015"/>
<rect x="559.2" y="284.0" width="10" height="16" rx="2" fill="url(#roof_navyRoof)" opacity="0.8"/>
<rect x="561.2" y="287.0" width="6" height="10" rx="1" fill="url(#windowGlow)" opacity="0.45"/>
<rect x="908.0" y="170.2" width="38.0" height="129.8" rx="3" fill="url(#bldg_sky)" opacity="1"/>
<rect x="908.0" y="167.2" width="38.0" height="3" rx="1" fill="url(#roof_tealRoof)" opacity="1"/>
<rect x="924.1" y="210.2" width="6" height="8" rx="1" fill="url(#windowGlow)" opacity="0.8864719065774567"/>
<rect x="924.1" y="225.2" width="6" height="8" rx="1" fill="url(#windowGlow)" opacity="0.7694801030072757"/>
<rect x="924.1" y="255.2" width="6" height="8" rx="1" fill="url(#windowGlow)" opacity="0.9990919202561918"/>
<rect x="922.1" y="284.0" width="10" height="16" rx="2" fill="url(#roof_navyRoof)" opacity="0.8"/>
<rect x="924.1" y="287.0" width="6" height="10" rx="1" fill="url(#windowGlow)" opacity="0.45"/>
<rect x="370.5" y="265.7" width="6" height="19.3" rx="2" fill="#15803d"/>
<circle cx="373.5" cy="252.2" r="17.6" fill="#22c55e" opacity="0.9"/>
<circle cx="366.2" cy="255.2" r="13.2" fill="#16a34a" opacity="0.8"/>
<circle cx="380.0" cy="256.2" r="12.3" fill="#15803d" opacity="0.7"/>
<rect x="747.9" y="265.8" width="6" height="19.2" rx="2" fill="#15803d"/>
<circle cx="750.9" cy="255.8" r="14.0" fill="#22c55e" opacity="0.9"/>
<circle cx="742.8" cy="258.8" r="10.5" fill="#16a34a" opacity="0.8"/>
<circle cx="756.3" cy="259.8" r="9.8" fill="#15803d" opacity="0.7"/>
<rect x="139.0" y="264.3" width="6" height="20.7" rx="2" fill="#15803d"/>
<circle cx="142.0" cy="253.2" r="15.1" fill="#22c55e" opacity="0.9"/>
<circle cx="135.2" cy="256.2" r="11.3" fill="#16a34a" opacity="0.8"/>
<circle cx="149.4" cy="257.2" r="10.6" fill="#15803d" opacity="0.7"/>
<rect x="969.1" y="263.7" width="6" height="21.3" rx="2" fill="#15803d"/>
<circle cx="972.1" cy="252.6" r="15.0" fill="#22c55e" opacity="0.9"/>
<circle cx="964.2" cy="255.6" r="11.3" fill="#16a34a" opacity="0.8"/>
<circle cx="979.5" cy="256.6" r="10.5" fill="#15803d" opacity="0.7"/>
<rect x="927.0" y="268.8" width="6" height="16.2" rx="2" fill="#15803d"/>
<circle cx="930.0" cy="256.7" r="16.1" fill="#22c55e" opacity="0.9"/>
<circle cx="922.3" cy="259.7" r="12.1" fill="#16a34a" opacity="0.8"/>
<circle cx="936.2" cy="260.7" r="11.3" fill="#15803d" opacity="0.7"/>
<rect x="180.8" y="263.7" width="6" height="21.3" rx="2" fill="#15803d"/>
<circle cx="183.8" cy="254.1" r="13.6" fill="#22c55e" opacity="0.9"/>
<circle cx="176.8" cy="257.1" r="10.2" fill="#16a34a" opacity="0.8"/>
<circle cx="190.3" cy="258.1" r="9.5" fill="#15803d" opacity="0.7"/>
<rect x="306.3" y="266.8" width="6" height="18.2" rx="2" fill="#15803d"/>
<circle cx="309.3" cy="254.9" r="15.9" fill="#22c55e" opacity="0.9"/>
<circle cx="302.4" cy="257.9" r="11.9" fill="#16a34a" opacity="0.8"/>
<circle cx="315.0" cy="258.9" r="11.1" fill="#15803d" opacity="0.7"/>
<rect x="310.1" y="263.7" width="6" height="21.3" rx="2" fill="#15803d"/>
<circle cx="313.1" cy="252.9" r="14.8" fill="#22c55e" opacity="0.9"/>
<circle cx="306.0" cy="255.9" r="11.1" fill="#16a34a" opacity="0.8"/>
<circle cx="320.7" cy="256.9" r="10.3" fill="#15803d" opacity="0.7"/>
<rect x="0" y="282" width="1200" height="18" fill="url(#groundGrad)"/>
<line x1="1066.8" y1="282.0" x2="1066.8" y2="250.3" stroke="#92400e" stroke-width="2"/>
<circle cx="1066.8" cy="250.3" r="4" fill="#fef08a" opacity="0.6"/>
<circle cx="1066.8" cy="250.3" r="8" fill="#fef08a" opacity="0.15" filter="url(#softGlow)"/>
<line x1="510.3" y1="282.0" x2="510.3" y2="242.0" stroke="#92400e" stroke-width="2"/>
<circle cx="510.3" cy="242.0" r="4" fill="#fef08a" opacity="0.6"/>
<circle cx="510.3" cy="242.0" r="8" fill="#fef08a" opacity="0.15" filter="url(#softGlow)"/>
<ellipse cx="338.8" cy="282.0" rx="7.0" ry="4.9" fill="#22c55e" opacity="0.6"/>
<ellipse cx="308.5" cy="282.0" rx="6.7" ry="4.7" fill="#22c55e" opacity="0.6"/>
<ellipse cx="1113.8" cy="282.0" rx="5.1" ry="3.6" fill="#22c55e" opacity="0.6"/>
<ellipse cx="574.8" cy="282.0" rx="6.1" ry="4.3" fill="#22c55e" opacity="0.6"/>
</svg>