<svg xmlns="http://www.w3.org/2000/svg" viewBox="0 0 1200 300" width="1200" height="300">
<rect width="1200" height="300" fill="#e0eff2"/>
<path d="M0 300 L0 210.0 C330.8 179.3, 821.6 194.7, 1200 210.0 L1200 300 Z" fill="#aac2c9" opacity="0.3"/>
<rect x="157.2" y="230.5" width="60.4" height="69.5" fill="#8aabb4"/>
<rect x="456.3" y="201.5" width="67.9" height="98.5" fill="#8aabb4"/>
<rect x="708.1" y="177.3" width="76.9" height="122.7" fill="#8aabb4"/>
<rect x="999.2" y="227.7" width="58.8" height="72.3" fill="#8aabb4"/>
<rect x="96.8" y="170.8" width="42.4" height="129.2" fill="#558592"/>
<rect x="115.0" y="182.8" width="6" height="8" fill="#91b0b8" opacity="0.5"/>
<rect x="115.0" y="198.8" width="6" height="8" fill="#91b0b8" opacity="0.5"/>
<rect x="115.0" y="214.8" width="6" height="8" fill="#91b0b8" opacity="0.5"/>
<rect x="115.0" y="246.8" width="6" height="8" fill="#91b0b8" opacity="0.5"/>
<rect x="115.0" y="262.8" width="6" height="8" fill="#91b0b8" opacity="0.5"/>
<rect x="364.1" y="134.5" width="56.4" height="165.5" fill="#558592"/>
<rect x="382.3" y="162.5" width="6" height="8" fill="#91b0b8" opacity="0.5"/>
<rect x="382.3" y="178.5" width="6" height="8" fill="#91b0b8" opacity="0.5"/>
<rect x="382.3" y="194.5" width="6" height="8" fill="#91b0b8" opacity="0.5"/>
<rect x="396.3" y="194.5" width="6" height="8" fill="#91b0b8" opacity="0.5"/>
<rect x="382.3" y="210.5" width="6" height="8" fill="#91b0b8" opacity="0.5"/>
<rect x="382.3" y="242.5" width="6" height="8" fill="#91b0b8" opacity="0.5"/>
<rect x="573.9" y="180.5" width="47.4" height="119.5" fill="#558592"/>
<rect x="601.6" y="192.5" width="6" height="8" fill="#91b0b8" opacity="0.5"/>
<rect x="601.6" y="208.5" width="6" height="8" fill="#91b0b8" opacity="0.5"/>
<rect x="587.6" y="224.5" width="6" height="8" fill="#91b0b8" opacity="0.5"/>
<rect x="601.6" y="224.5" width="6" height="8" fill="#91b0b8" opacity="0.5"/>
<rect x="587.6" y="240.5" width="6" height="8" fill="#91b0b8" opacity="0.5"/>
<rect x="601.6" y="240.5" width="6" height="8" fill="#91b0b8" opacity="0.5"/>
<rect x="587.6" y="256.5" width="6" height="8" fill="#91b0b8" opacity="0.5"/>
<rect x="601.6" y="256.5" width="6" height="8" fill="#91b0b8" opacity="0.5"/>
<rect x="587.6" y="272.5" width="6" height="8" fill="#91b0b8" opacity="0.5"/>
<rect x="787.2" y="205.7" width="69.2" height="94.3" fill="#558592"/>
<rect x="804.8" y="217.7" width="6" height="8" fill="#91b0b8" opacity="0.5"/>
<rect x="818.8" y="217.7" width="6" height="8" fill="#91b0b8" opacity="0.5"/>
<rect x="804.8" y="233.7" width="6" height="8" fill="#91b0b8" opacity="0.5"/>
<rect x="818.8" y="233.7" width="6" height="8" fill="#91b0b8" opacity="0.5"/>
<rect x="832.8" y="233.7" width="6" height="8" fill="#91b0b8" opacity="0.5"/>
<rect x="804.8" y="249.7" width="6" height="8" fill="#91b0b8" opacity="0.5"/>
<rect x="818.8" y="249.7" width="6" height="8" fill="#91b0b8" opacity="0.5"/>
<rect x="832.8" y="249.7" width="6" height="8" fill="#91b0b8" opacity="0.5"/>
<rect x="818.8" y="265.7" width="6" height="8" fill="#91b0b8" opacity="0.5"/>
<rect x="832.8" y="265.7" width="6" height="8" fill="#91b0b8" opacity="0.5"/>
<rect x="1013.0" y="137.5" width="39.7" height="162.5" fill="#558592"/>
<rect x="1029.8" y="149.5" width="6" height="8" fill="#91b0b8" opacity="0.5"/>
<rect x="1029.8" y="181.5" width="6" height="8" fill="#91b0b8" opacity="0.5"/>
<rect x="1029.8" y="197.5" width="6" height="8" fill="#91b0b8" opacity="0.5"/>
<rect x="1029.8" y="261.5" width="6" height="8" fill="#91b0b8" opacity="0.5"/>
<rect x="82.2" y="200.2" width="64.9" height="99.8" fill="#2b6777"/>
<rect x="111.7" y="212.2" width="6" height="8" fill="#759ca7" opacity="0.5"/>
<rect x="97.7" y="228.2" width="6" height="8" fill="#759ca7" opacity="0.5"/>
<rect x="97.7" y="244.2" width="6" height="8" fill="#759ca7" opacity="0.5"/>
<rect x="111.7" y="244.2" width="6" height="8" fill="#759ca7" opacity="0.5"/>
<rect x="125.7" y="244.2" width="6" height="8" fill="#759ca7" opacity="0.5"/>
<rect x="111.7" y="260.2" width="6" height="8" fill="#759ca7" opacity="0.5"/>
<rect x="125.7" y="260.2" width="6" height="8" fill="#759ca7" opacity="0.5"/>
<rect x="334.7" y="197.4" width="56.1" height="102.6" fill="#2b6777"/>
<rect x="352.7" y="209.4" width="6" height="8" fill="#759ca7" opacity="0.5"/>
<rect x="366.7" y="209.4" width="6" height="8" fill="#759ca7" opacity="0.5"/>
<rect x="352.7" y="225.4" width="6" height="8" fill="#759ca7" opacity="0.5"/>
<rect x="366.7" y="225.4" width="6" height="8" fill="#759ca7" opacity="0.5"/>
<rect x="352.7" y="241.4" width="6" height="8" fill="#759ca7" opacity="0.5"/>
<rect x="366.7" y="241.4" width="6" height="8" fill="#759ca7" opacity="0.5"/>
<rect x="352.7" y="257.4" width="6" height="8" fill="#759ca7" opacity="0.5"/>
<rect x="366.7" y="257.4" width="6" height="8" fill="#759ca7" opacity="0.5"/>
<rect x="352.7" y="273.4" width="6" height="8" fill="#759ca7" opacity="0.5"/>
<rect x="366.7" y="273.4" width="6" height="8" fill="#759ca7" opacity="0.5"/>
<rect x="585.9" y="186.9" width="66.2" height="113.1" fill="#2b6777"/>
<rect x="630.0" y="198.9" width="6" height="8" fill="#759ca7" opacity="0.5"/>
<rect x="602.0" y="214.9" width="6" height="8" fill="#759ca7" opacity="0.5"/>
<rect x="616.0" y="214.9" width="6" height="8" fill="#759ca7" opacity="0.5"/>
<rect x="630.0" y="214.9" width="6" height="8" fill="#759ca7" opacity="0.5"/>
<rect x="602.0" y="230.9" width="6" height="8" fill="#759ca7" opacity="0.5"/>
<rect x="616.0" y="230.9" width="6" height="8" fill="#759ca7" opacity="0.5"/>
<rect x="630.0" y="230.9" width="6" height="8" fill="#759ca7" opacity="0.5"/>
<rect x="602.0" y="246.9" width="6" height="8" fill="#759ca7" opacity="0.5"/>
<rect x="616.0" y="246.9" width="6" height="8" fill="#759ca7" opacity="0.5"/>
<rect x="630.0" y="246.9" width="6" height="8" fill="#759ca7" opacity="0.5"/>
<rect x="602.0" y="262.9" width="6" height="8" fill="#759ca7" opacity="0.5"/>
<rect x="616.0" y="262.9" width="6" height="8" fill="#759ca7" opacity="0.5"/>
<rect x="814.5" y="203.6" width="69.9" height="96.4" fill="#2b6777"/>
<rect x="832.5" y="215.6" width="6" height="8" fill="#759ca7" opacity="0.5"/>
<rect x="846.5" y="215.6" width="6" height="8" fill="#759ca7" opacity="0.5"/>
<rect x="860.5" y="215.6" width="6" height="8" fill="#759ca7" opacity="0.5"/>
<rect x="846.5" y="231.6" width="6" height="8" fill="#759ca7" opacity="0.5"/>
<rect x="860.5" y="231.6" width="6" height="8" fill="#759ca7" opacity="0.5"/>
<rect x="846.5" y="247.6" width="6" height="8" fill="#759ca7" opacity="0.5"/>
<rect x="1016.6" y="248.6" width="72.4" height="51.4" fill="#2b6777"/>
<rect x="0" y="298" width="1200" height="2" fill="#275d6b" opacity="0.15"/>
</svg>