<svg xmlns="http://www.w3.org/2000/svg" viewBox="0 0 1200 400" width="1200" height="400">
<defs>
<linearGradient id="bg" x1="0" y1="0" x2="0" y2="1"><stop offset="0%" stop-color="#94a3b8"/><stop offset="100%" stop-color="#0369a1"/></linearGradient>
<linearGradient id="warm" x1="0" y1="0" x2="1" y2="1"><stop offset="0%" stop-color="#858d98" stop-opacity="0.18"/><stop offset="100%" stop-color="#858d98" stop-opacity="0.06"/></linearGradient>
</defs>
<rect width="1200" height="400" fill="url(#bg)"/>
<path d="M0 400 L0 250.6518966389458 C60.0 258.3, 90.0 236.1, 150.0 234.4 C210.0 239.1, 240.0 245.4, 300.0 244.4 C360.0 253.3, 390.0 225.2, 450.0 227.7 C510.0 227.9, 540.0 225.1, 600.0 231.0 C660.0 224.3, 690.0 228.7, 750.0 236.4 C810.0 238.0, 840.0 245.7, 900.0 246.1 C960.0 252.1, 990.0 237.2, 1050.0 227.3 C1110.0 222.8, 1140.0 241.2, 1200.0 241.9 L1200 400 Z" fill="#367da9" opacity="0.45"/>
<path d="M0 400 L0 269.1875835628519 C52.5 266.9, 97.5 277.4, 150.0 276.2 C202.5 274.2, 247.5 265.5, 300.0 267.4 C352.5 272.0, 397.5 266.0, 450.0 261.9 C502.5 261.0, 547.5 265.7, 600.0 259.8 C652.5 264.6, 697.5 258.6, 750.0 261.3 C802.5 267.9, 847.5 280.6, 900.0 281.3 C952.5 274.1, 997.5 278.5, 1050.0 276.6 C1102.5 282.7, 1147.5 263.7, 1200.0 259.0 L1200 400 Z" fill="#0369a1" opacity="0.3"/>
<rect x="996.5" y="309.9" width="15.2" height="90.1" rx="4.0" fill="#05966a" opacity="0.77"/>
<rect x="549.1" y="357.7" width="36.5" height="42.3" rx="4.3" fill="#048480" opacity="0.59"/>
<rect x="701.7" y="360.0" width="16.1" height="40.0" rx="3.6" fill="#058f71" opacity="0.53"/>
<rect x="137.1" y="308.0" width="12.2" height="92.0" rx="5.3" fill="#04877b" opacity="0.74"/>
<rect x="855.6" y="277.6" width="36.9" height="122.4" rx="7.7" fill="#059070" opacity="0.76"/>
<rect x="805.3" y="276.2" width="15.1" height="123.8" rx="6.5" fill="#04887a" opacity="0.74"/>
<rect x="830.5" y="321.9" width="17.3" height="78.1" rx="4.4" fill="#059070" opacity="0.59"/>
<rect x="162.5" y="349.5" width="30.1" height="50.5" rx="3.3" fill="#04847f" opacity="0.55"/>
<rect x="694.2" y="358.9" width="40.4" height="41.1" rx="3.4" fill="#059669" opacity="0.67"/>
<rect x="238.9" y="299.5" width="29.3" height="100.5" rx="4.8" fill="#048282" opacity="0.63"/>
<rect x="243.9" y="331.5" width="4" height="5" rx="0.5" fill="#94a3b8" opacity="0.6"/>
<rect x="243.9" y="353.5" width="4" height="5" rx="0.5" fill="#94a3b8" opacity="0.6"/>
<rect x="243.9" y="375.5" width="4" height="5" rx="0.5" fill="#94a3b8" opacity="0.6"/>
<rect x="430.1" y="307.1" width="22.2" height="92.9" rx="6.7" fill="#059070" opacity="0.55"/>
<rect x="607.2" y="329.6" width="48.9" height="70.4" rx="5.7" fill="#04887b" opacity="0.69"/>
<rect x="794.5" y="315.2" width="47.3" height="84.8" rx="5.4" fill="#047e87" opacity="0.55"/>
<rect x="799.5" y="325.2" width="4" height="5" rx="0.5" fill="#94a3b8" opacity="0.6"/>
<rect x="815.3" y="325.2" width="4" height="5" rx="0.5" fill="#94a3b8" opacity="0.6"/>
<rect x="799.5" y="369.2" width="4" height="5" rx="0.5" fill="#94a3b8" opacity="0.6"/>
<circle cx="710.7" cy="47.9" r="3.3" fill="#059669" opacity="0.21"/>
<circle cx="130.5" cy="12.3" r="7.1" fill="#059669" opacity="0.18"/>
<circle cx="123.1" cy="126.8" r="12.0" fill="#94a3b8" opacity="0.20"/>
<circle cx="1050.6" cy="155.9" r="5.3" fill="#059669" opacity="0.42"/>
<circle cx="971.8" cy="171.4" r="8.9" fill="#94a3b8" opacity="0.26"/>
<circle cx="790.4" cy="169.9" r="3.7" fill="#94a3b8" opacity="0.33"/>
<circle cx="1089.5" cy="19.8" r="8.9" fill="#94a3b8" opacity="0.18"/>
<circle cx="198.9" cy="57.0" r="5.9" fill="#94a3b8" opacity="0.44"/>
<circle cx="402.5" cy="218.4" r="4.5" fill="#94a3b8" opacity="0.31"/>
<circle cx="344.0" cy="84.6" r="5.5" fill="#059669" opacity="0.15"/>
<rect width="1200" height="400" fill="url(#warm)"/>
<rect width="1200" height="400" fill="#94a3b8" opacity="0.40"/>
</svg>