<svg xmlns="http://www.w3.org/2000/svg" viewBox="0 0 1200 300" width="1200" height="300">
<rect width="1200" height="300" fill="#e0eff2"/>
<path d="M0 300 L0 210.0 C194.5 173.3, 853.4 181.1, 1200 210.0 L1200 300 Z" fill="#aac2c9" opacity="0.3"/>
<rect x="161.5" y="191.9" width="46.2" height="108.1" fill="#8aabb4"/>
<rect x="387.4" y="237.0" width="70.5" height="63.0" fill="#8aabb4"/>
<rect x="720.8" y="195.6" width="44.0" height="104.4" fill="#8aabb4"/>
<rect x="975.7" y="234.3" width="57.1" height="65.7" fill="#8aabb4"/>
<rect x="99.9" y="167.4" width="53.6" height="132.6" fill="#558592"/>
<rect x="116.7" y="179.4" width="6" height="8" fill="#91b0b8" opacity="0.5"/>
<rect x="130.7" y="179.4" width="6" height="8" fill="#91b0b8" opacity="0.5"/>
<rect x="116.7" y="195.4" width="6" height="8" fill="#91b0b8" opacity="0.5"/>
<rect x="130.7" y="195.4" width="6" height="8" fill="#91b0b8" opacity="0.5"/>
<rect x="116.7" y="211.4" width="6" height="8" fill="#91b0b8" opacity="0.5"/>
<rect x="116.7" y="227.4" width="6" height="8" fill="#91b0b8" opacity="0.5"/>
<rect x="130.7" y="227.4" width="6" height="8" fill="#91b0b8" opacity="0.5"/>
<rect x="116.7" y="243.4" width="6" height="8" fill="#91b0b8" opacity="0.5"/>
<rect x="130.7" y="243.4" width="6" height="8" fill="#91b0b8" opacity="0.5"/>
<rect x="343.9" y="155.9" width="60.5" height="144.1" fill="#558592"/>
<rect x="357.1" y="167.9" width="6" height="8" fill="#91b0b8" opacity="0.5"/>
<rect x="371.1" y="167.9" width="6" height="8" fill="#91b0b8" opacity="0.5"/>
<rect x="385.1" y="167.9" width="6" height="8" fill="#91b0b8" opacity="0.5"/>
<rect x="357.1" y="183.9" width="6" height="8" fill="#91b0b8" opacity="0.5"/>
<rect x="385.1" y="183.9" width="6" height="8" fill="#91b0b8" opacity="0.5"/>
<rect x="357.1" y="199.9" width="6" height="8" fill="#91b0b8" opacity="0.5"/>
<rect x="371.1" y="199.9" width="6" height="8" fill="#91b0b8" opacity="0.5"/>
<rect x="385.1" y="199.9" width="6" height="8" fill="#91b0b8" opacity="0.5"/>
<rect x="371.1" y="215.9" width="6" height="8" fill="#91b0b8" opacity="0.5"/>
<rect x="357.1" y="231.9" width="6" height="8" fill="#91b0b8" opacity="0.5"/>
<rect x="357.1" y="247.9" width="6" height="8" fill="#91b0b8" opacity="0.5"/>
<rect x="357.1" y="263.9" width="6" height="8" fill="#91b0b8" opacity="0.5"/>
<rect x="371.1" y="263.9" width="6" height="8" fill="#91b0b8" opacity="0.5"/>
<rect x="385.1" y="263.9" width="6" height="8" fill="#91b0b8" opacity="0.5"/>
<rect x="584.5" y="139.8" width="49.1" height="160.2" fill="#558592"/>
<rect x="599.1" y="151.8" width="6" height="8" fill="#91b0b8" opacity="0.5"/>
<rect x="613.1" y="151.8" width="6" height="8" fill="#91b0b8" opacity="0.5"/>
<rect x="599.1" y="167.8" width="6" height="8" fill="#91b0b8" opacity="0.5"/>
<rect x="613.1" y="167.8" width="6" height="8" fill="#91b0b8" opacity="0.5"/>
<rect x="599.1" y="183.8" width="6" height="8" fill="#91b0b8" opacity="0.5"/>
<rect x="613.1" y="183.8" width="6" height="8" fill="#91b0b8" opacity="0.5"/>
<rect x="599.1" y="199.8" width="6" height="8" fill="#91b0b8" opacity="0.5"/>
<rect x="613.1" y="199.8" width="6" height="8" fill="#91b0b8" opacity="0.5"/>
<rect x="599.1" y="215.8" width="6" height="8" fill="#91b0b8" opacity="0.5"/>
<rect x="613.1" y="215.8" width="6" height="8" fill="#91b0b8" opacity="0.5"/>
<rect x="599.1" y="231.8" width="6" height="8" fill="#91b0b8" opacity="0.5"/>
<rect x="599.1" y="247.8" width="6" height="8" fill="#91b0b8" opacity="0.5"/>
<rect x="613.1" y="247.8" width="6" height="8" fill="#91b0b8" opacity="0.5"/>
<rect x="599.1" y="263.8" width="6" height="8" fill="#91b0b8" opacity="0.5"/>
<rect x="613.1" y="263.8" width="6" height="8" fill="#91b0b8" opacity="0.5"/>
<rect x="771.2" y="165.7" width="63.0" height="134.3" fill="#558592"/>
<rect x="785.7" y="177.7" width="6" height="8" fill="#91b0b8" opacity="0.5"/>
<rect x="813.7" y="177.7" width="6" height="8" fill="#91b0b8" opacity="0.5"/>
<rect x="785.7" y="193.7" width="6" height="8" fill="#91b0b8" opacity="0.5"/>
<rect x="799.7" y="193.7" width="6" height="8" fill="#91b0b8" opacity="0.5"/>
<rect x="813.7" y="193.7" width="6" height="8" fill="#91b0b8" opacity="0.5"/>
<rect x="785.7" y="209.7" width="6" height="8" fill="#91b0b8" opacity="0.5"/>
<rect x="799.7" y="209.7" width="6" height="8" fill="#91b0b8" opacity="0.5"/>
<rect x="813.7" y="209.7" width="6" height="8" fill="#91b0b8" opacity="0.5"/>
<rect x="785.7" y="225.7" width="6" height="8" fill="#91b0b8" opacity="0.5"/>
<rect x="813.7" y="225.7" width="6" height="8" fill="#91b0b8" opacity="0.5"/>
<rect x="799.7" y="241.7" width="6" height="8" fill="#91b0b8" opacity="0.5"/>
<rect x="813.7" y="241.7" width="6" height="8" fill="#91b0b8" opacity="0.5"/>
<rect x="785.7" y="257.7" width="6" height="8" fill="#91b0b8" opacity="0.5"/>
<rect x="799.7" y="257.7" width="6" height="8" fill="#91b0b8" opacity="0.5"/>
<rect x="813.7" y="257.7" width="6" height="8" fill="#91b0b8" opacity="0.5"/>
<rect x="785.7" y="273.7" width="6" height="8" fill="#91b0b8" opacity="0.5"/>
<rect x="799.7" y="273.7" width="6" height="8" fill="#91b0b8" opacity="0.5"/>
<rect x="813.7" y="273.7" width="6" height="8" fill="#91b0b8" opacity="0.5"/>
<rect x="1043.5" y="195.5" width="35.3" height="104.5" fill="#558592"/>
<rect x="1058.1" y="207.5" width="6" height="8" fill="#91b0b8" opacity="0.5"/>
<rect x="1058.1" y="223.5" width="6" height="8" fill="#91b0b8" opacity="0.5"/>
<rect x="1058.1" y="239.5" width="6" height="8" fill="#91b0b8" opacity="0.5"/>
<rect x="1058.1" y="255.5" width="6" height="8" fill="#91b0b8" opacity="0.5"/>
<rect x="1058.1" y="271.5" width="6" height="8" fill="#91b0b8" opacity="0.5"/>
<rect x="162.8" y="114.0" width="39.7" height="186.0" fill="#2b6777"/>
<rect x="179.6" y="126.0" width="6" height="8" fill="#759ca7" opacity="0.5"/>
<rect x="179.6" y="142.0" width="6" height="8" fill="#759ca7" opacity="0.5"/>
<rect x="179.6" y="158.0" width="6" height="8" fill="#759ca7" opacity="0.5"/>
<rect x="179.6" y="206.0" width="6" height="8" fill="#759ca7" opacity="0.5"/>
<rect x="179.6" y="222.0" width="6" height="8" fill="#759ca7" opacity="0.5"/>
<rect x="179.6" y="238.0" width="6" height="8" fill="#759ca7" opacity="0.5"/>
<rect x="179.6" y="254.0" width="6" height="8" fill="#759ca7" opacity="0.5"/>
<rect x="464.1" y="180.7" width="43.0" height="119.3" fill="#2b6777"/>
<rect x="482.6" y="192.7" width="6" height="8" fill="#759ca7" opacity="0.5"/>
<rect x="482.6" y="208.7" width="6" height="8" fill="#759ca7" opacity="0.5"/>
<rect x="482.6" y="224.7" width="6" height="8" fill="#759ca7" opacity="0.5"/>
<rect x="482.6" y="240.7" width="6" height="8" fill="#759ca7" opacity="0.5"/>
<rect x="482.6" y="256.7" width="6" height="8" fill="#759ca7" opacity="0.5"/>
<rect x="482.6" y="272.7" width="6" height="8" fill="#759ca7" opacity="0.5"/>
<rect x="691.5" y="117.9" width="37.9" height="182.1" fill="#2b6777"/>
<rect x="707.4" y="129.9" width="6" height="8" fill="#759ca7" opacity="0.5"/>
<rect x="707.4" y="161.9" width="6" height="8" fill="#759ca7" opacity="0.5"/>
<rect x="707.4" y="177.9" width="6" height="8" fill="#759ca7" opacity="0.5"/>
<rect x="707.4" y="193.9" width="6" height="8" fill="#759ca7" opacity="0.5"/>
<rect x="707.4" y="209.9" width="6" height="8" fill="#759ca7" opacity="0.5"/>
<rect x="707.4" y="225.9" width="6" height="8" fill="#759ca7" opacity="0.5"/>
<rect x="707.4" y="241.9" width="6" height="8" fill="#759ca7" opacity="0.5"/>
<rect x="707.4" y="273.9" width="6" height="8" fill="#759ca7" opacity="0.5"/>
<rect x="980.1" y="246.2" width="43.8" height="53.8" fill="#2b6777"/>
<rect x="0" y="298" width="1200" height="2" fill="#275d6b" opacity="0.15"/>
</svg>