<svg xmlns="http://www.w3.org/2000/svg" viewBox="0 0 1200 400" width="1200" height="400">
<defs>
<linearGradient id="bg" x1="0" y1="0" x2="0" y2="1"><stop offset="0%" stop-color="#94a3b8"/><stop offset="100%" stop-color="#0369a1"/></linearGradient>
<linearGradient id="warm" x1="0" y1="0" x2="1" y2="1"><stop offset="0%" stop-color="#b79559" stop-opacity="0.18"/><stop offset="100%" stop-color="#b79559" stop-opacity="0.06"/></linearGradient>
</defs>
<rect width="1200" height="400" fill="url(#bg)"/>
<path d="M0 400 L0 243.00041431814407 C60.0 234.9, 90.0 231.5, 150.0 240.2 C210.0 231.8, 240.0 221.4, 300.0 221.3 C360.0 224.8, 390.0 227.5, 450.0 230.6 C510.0 225.2, 540.0 247.0, 600.0 254.9 C660.0 253.2, 690.0 218.7, 750.0 223.7 C810.0 226.2, 840.0 244.7, 900.0 243.4 C960.0 244.0, 990.0 251.7, 1050.0 246.6 C1110.0 242.9, 1140.0 244.8, 1200.0 242.2 L1200 400 Z" fill="#367da9" opacity="0.45"/>
<path d="M0 400 L0 276.74327515260427 C52.5 283.3, 97.5 267.9, 150.0 271.1 C202.5 276.0, 247.5 258.5, 300.0 258.8 C352.5 253.9, 397.5 265.9, 450.0 271.5 C502.5 277.7, 547.5 252.8, 600.0 255.7 C652.5 251.2, 697.5 262.9, 750.0 269.9 C802.5 271.6, 847.5 267.9, 900.0 263.1 C952.5 269.3, 997.5 262.8, 1050.0 260.9 C1102.5 267.3, 1147.5 266.6, 1200.0 271.0 L1200 400 Z" fill="#0369a1" opacity="0.3"/>
<rect x="406.5" y="324.8" width="43.0" height="75.2" rx="7.6" fill="#05936d" opacity="0.51"/>
<rect x="459.3" y="316.4" width="25.9" height="83.6" rx="6.2" fill="#05956b" opacity="0.62"/>
<rect x="464.3" y="326.4" width="4" height="5" rx="0.5" fill="#94a3b8" opacity="0.6"/>
<rect x="464.3" y="348.4" width="4" height="5" rx="0.5" fill="#94a3b8" opacity="0.6"/>
<rect x="661.3" y="355.2" width="48.1" height="44.8" rx="3.7" fill="#05936d" opacity="0.72"/>
<rect x="427.8" y="351.6" width="15.5" height="48.4" rx="7.4" fill="#058b76" opacity="0.74"/>
<rect x="503.7" y="283.4" width="38.2" height="116.6" rx="7.2" fill="#058b77" opacity="0.74"/>
<rect x="508.7" y="293.4" width="4" height="5" rx="0.5" fill="#94a3b8" opacity="0.6"/>
<rect x="521.4" y="293.4" width="4" height="5" rx="0.5" fill="#94a3b8" opacity="0.6"/>
<rect x="508.7" y="315.4" width="4" height="5" rx="0.5" fill="#94a3b8" opacity="0.6"/>
<rect x="508.7" y="337.4" width="4" height="5" rx="0.5" fill="#94a3b8" opacity="0.6"/>
<rect x="521.4" y="337.4" width="4" height="5" rx="0.5" fill="#94a3b8" opacity="0.6"/>
<rect x="508.7" y="359.4" width="4" height="5" rx="0.5" fill="#94a3b8" opacity="0.6"/>
<rect x="521.4" y="359.4" width="4" height="5" rx="0.5" fill="#94a3b8" opacity="0.6"/>
<rect x="869.5" y="356.9" width="49.0" height="43.1" rx="4.9" fill="#048a78" opacity="0.82"/>
<rect x="454.6" y="292.7" width="34.0" height="107.3" rx="5.4" fill="#058f71" opacity="0.65"/>
<rect x="745.7" y="267.1" width="46.9" height="132.9" rx="5.4" fill="#047c89" opacity="0.68"/>
<rect x="750.7" y="277.1" width="4" height="5" rx="0.5" fill="#94a3b8" opacity="0.6"/>
<rect x="766.4" y="277.1" width="4" height="5" rx="0.5" fill="#94a3b8" opacity="0.6"/>
<rect x="750.7" y="299.1" width="4" height="5" rx="0.5" fill="#94a3b8" opacity="0.6"/>
<rect x="766.4" y="299.1" width="4" height="5" rx="0.5" fill="#94a3b8" opacity="0.6"/>
<rect x="750.7" y="321.1" width="4" height="5" rx="0.5" fill="#94a3b8" opacity="0.6"/>
<rect x="766.4" y="321.1" width="4" height="5" rx="0.5" fill="#94a3b8" opacity="0.6"/>
<rect x="750.7" y="343.1" width="4" height="5" rx="0.5" fill="#94a3b8" opacity="0.6"/>
<rect x="766.4" y="343.1" width="4" height="5" rx="0.5" fill="#94a3b8" opacity="0.6"/>
<rect x="191.2" y="354.7" width="40.6" height="45.3" rx="4.5" fill="#048282" opacity="0.71"/>
<rect x="390.6" y="344.9" width="25.4" height="55.1" rx="7.3" fill="#058d74" opacity="0.59"/>
<rect x="585.1" y="269.2" width="38.5" height="130.8" rx="3.5" fill="#04877c" opacity="0.73"/>
<rect x="590.1" y="279.2" width="4" height="5" rx="0.5" fill="#94a3b8" opacity="0.6"/>
<rect x="603.0" y="279.2" width="4" height="5" rx="0.5" fill="#94a3b8" opacity="0.6"/>
<rect x="590.1" y="301.2" width="4" height="5" rx="0.5" fill="#94a3b8" opacity="0.6"/>
<rect x="590.1" y="323.2" width="4" height="5" rx="0.5" fill="#94a3b8" opacity="0.6"/>
<rect x="603.0" y="323.2" width="4" height="5" rx="0.5" fill="#94a3b8" opacity="0.6"/>
<rect x="590.1" y="345.2" width="4" height="5" rx="0.5" fill="#94a3b8" opacity="0.6"/>
<rect x="603.0" y="345.2" width="4" height="5" rx="0.5" fill="#94a3b8" opacity="0.6"/>
<rect x="840.1" y="351.3" width="49.9" height="48.7" rx="5.2" fill="#048084" opacity="0.83"/>
<rect x="634.0" y="291.5" width="31.8" height="108.5" rx="7.1" fill="#058b76" opacity="0.74"/>
<rect x="639.0" y="301.5" width="4" height="5" rx="0.5" fill="#94a3b8" opacity="0.6"/>
<rect x="639.0" y="323.5" width="4" height="5" rx="0.5" fill="#94a3b8" opacity="0.6"/>
<rect x="639.0" y="367.5" width="4" height="5" rx="0.5" fill="#94a3b8" opacity="0.6"/>
<circle cx="23.1" cy="189.8" r="6.6" fill="#059669" opacity="0.21"/>
<circle cx="387.0" cy="73.5" r="10.0" fill="#059669" opacity="0.20"/>
<rect width="1200" height="400" fill="url(#warm)"/>
<rect width="1200" height="400" fill="#94a3b8" opacity="0.40"/>
</svg>