<svg xmlns="http://www.w3.org/2000/svg" viewBox="0 0 1200 300" width="1200" height="300">
<rect width="1200" height="300" fill="#e0eff2"/>
<path d="M0 300 L0 210.0 C348.0 173.3, 940.9 196.9, 1200 210.0 L1200 300 Z" fill="#aac2c9" opacity="0.3"/>
<rect x="168.4" y="195.4" width="45.4" height="104.6" fill="#8aabb4"/>
<rect x="403.8" y="231.4" width="49.0" height="68.6" fill="#8aabb4"/>
<rect x="690.6" y="190.6" width="69.7" height="109.4" fill="#8aabb4"/>
<rect x="994.8" y="203.8" width="54.5" height="96.2" fill="#8aabb4"/>
<rect x="104.1" y="148.8" width="40.6" height="151.2" fill="#558592"/>
<rect x="121.4" y="192.8" width="6" height="8" fill="#91b0b8" opacity="0.5"/>
<rect x="121.4" y="208.8" width="6" height="8" fill="#91b0b8" opacity="0.5"/>
<rect x="121.4" y="224.8" width="6" height="8" fill="#91b0b8" opacity="0.5"/>
<rect x="121.4" y="240.8" width="6" height="8" fill="#91b0b8" opacity="0.5"/>
<rect x="121.4" y="256.8" width="6" height="8" fill="#91b0b8" opacity="0.5"/>
<rect x="349.3" y="173.6" width="37.6" height="126.4" fill="#558592"/>
<rect x="365.1" y="185.6" width="6" height="8" fill="#91b0b8" opacity="0.5"/>
<rect x="365.1" y="201.6" width="6" height="8" fill="#91b0b8" opacity="0.5"/>
<rect x="365.1" y="217.6" width="6" height="8" fill="#91b0b8" opacity="0.5"/>
<rect x="365.1" y="233.6" width="6" height="8" fill="#91b0b8" opacity="0.5"/>
<rect x="365.1" y="265.6" width="6" height="8" fill="#91b0b8" opacity="0.5"/>
<rect x="604.6" y="179.4" width="52.2" height="120.6" fill="#558592"/>
<rect x="634.7" y="191.4" width="6" height="8" fill="#91b0b8" opacity="0.5"/>
<rect x="620.7" y="207.4" width="6" height="8" fill="#91b0b8" opacity="0.5"/>
<rect x="634.7" y="207.4" width="6" height="8" fill="#91b0b8" opacity="0.5"/>
<rect x="620.7" y="223.4" width="6" height="8" fill="#91b0b8" opacity="0.5"/>
<rect x="620.7" y="239.4" width="6" height="8" fill="#91b0b8" opacity="0.5"/>
<rect x="634.7" y="239.4" width="6" height="8" fill="#91b0b8" opacity="0.5"/>
<rect x="634.7" y="255.4" width="6" height="8" fill="#91b0b8" opacity="0.5"/>
<rect x="634.7" y="271.4" width="6" height="8" fill="#91b0b8" opacity="0.5"/>
<rect x="814.2" y="156.8" width="35.3" height="143.2" fill="#558592"/>
<rect x="828.8" y="184.8" width="6" height="8" fill="#91b0b8" opacity="0.5"/>
<rect x="828.8" y="200.8" width="6" height="8" fill="#91b0b8" opacity="0.5"/>
<rect x="828.8" y="216.8" width="6" height="8" fill="#91b0b8" opacity="0.5"/>
<rect x="828.8" y="232.8" width="6" height="8" fill="#91b0b8" opacity="0.5"/>
<rect x="828.8" y="248.8" width="6" height="8" fill="#91b0b8" opacity="0.5"/>
<rect x="828.8" y="264.8" width="6" height="8" fill="#91b0b8" opacity="0.5"/>
<rect x="1011.3" y="212.9" width="40.4" height="87.1" fill="#558592"/>
<rect x="1028.6" y="240.9" width="6" height="8" fill="#91b0b8" opacity="0.5"/>
<rect x="1028.6" y="256.9" width="6" height="8" fill="#91b0b8" opacity="0.5"/>
<rect x="1028.6" y="272.9" width="6" height="8" fill="#91b0b8" opacity="0.5"/>
<rect x="146.7" y="183.2" width="71.5" height="116.8" fill="#2b6777"/>
<rect x="165.5" y="195.2" width="6" height="8" fill="#759ca7" opacity="0.5"/>
<rect x="179.5" y="195.2" width="6" height="8" fill="#759ca7" opacity="0.5"/>
<rect x="165.5" y="211.2" width="6" height="8" fill="#759ca7" opacity="0.5"/>
<rect x="179.5" y="211.2" width="6" height="8" fill="#759ca7" opacity="0.5"/>
<rect x="193.5" y="211.2" width="6" height="8" fill="#759ca7" opacity="0.5"/>
<rect x="165.5" y="227.2" width="6" height="8" fill="#759ca7" opacity="0.5"/>
<rect x="179.5" y="227.2" width="6" height="8" fill="#759ca7" opacity="0.5"/>
<rect x="193.5" y="227.2" width="6" height="8" fill="#759ca7" opacity="0.5"/>
<rect x="165.5" y="243.2" width="6" height="8" fill="#759ca7" opacity="0.5"/>
<rect x="179.5" y="243.2" width="6" height="8" fill="#759ca7" opacity="0.5"/>
<rect x="165.5" y="259.2" width="6" height="8" fill="#759ca7" opacity="0.5"/>
<rect x="179.5" y="259.2" width="6" height="8" fill="#759ca7" opacity="0.5"/>
<rect x="394.5" y="179.8" width="45.1" height="120.2" fill="#2b6777"/>
<rect x="407.0" y="191.8" width="6" height="8" fill="#759ca7" opacity="0.5"/>
<rect x="421.0" y="207.8" width="6" height="8" fill="#759ca7" opacity="0.5"/>
<rect x="407.0" y="223.8" width="6" height="8" fill="#759ca7" opacity="0.5"/>
<rect x="421.0" y="223.8" width="6" height="8" fill="#759ca7" opacity="0.5"/>
<rect x="407.0" y="239.8" width="6" height="8" fill="#759ca7" opacity="0.5"/>
<rect x="421.0" y="239.8" width="6" height="8" fill="#759ca7" opacity="0.5"/>
<rect x="407.0" y="255.8" width="6" height="8" fill="#759ca7" opacity="0.5"/>
<rect x="421.0" y="255.8" width="6" height="8" fill="#759ca7" opacity="0.5"/>
<rect x="421.0" y="271.8" width="6" height="8" fill="#759ca7" opacity="0.5"/>
<rect x="693.1" y="247.7" width="45.3" height="52.3" fill="#2b6777"/>
<rect x="1034.3" y="178.4" width="31.2" height="121.6" fill="#2b6777"/>
<rect x="1046.9" y="190.4" width="6" height="8" fill="#759ca7" opacity="0.5"/>
<rect x="1046.9" y="206.4" width="6" height="8" fill="#759ca7" opacity="0.5"/>
<rect x="1046.9" y="222.4" width="6" height="8" fill="#759ca7" opacity="0.5"/>
<rect x="1046.9" y="238.4" width="6" height="8" fill="#759ca7" opacity="0.5"/>
<rect x="1046.9" y="254.4" width="6" height="8" fill="#759ca7" opacity="0.5"/>
<rect x="1046.9" y="270.4" width="6" height="8" fill="#759ca7" opacity="0.5"/>
<rect x="0" y="298" width="1200" height="2" fill="#275d6b" opacity="0.15"/>
</svg>