<svg xmlns="http://www.w3.org/2000/svg" viewBox="0 0 1200 400" width="1200" height="400">
<defs>
<linearGradient id="bg" x1="0" y1="0" x2="0" y2="1"><stop offset="0%" stop-color="#94a3b8"/><stop offset="100%" stop-color="#0369a1"/></linearGradient>
<linearGradient id="warm" x1="0" y1="0" x2="1" y2="1"><stop offset="0%" stop-color="#858d98" stop-opacity="0.18"/><stop offset="100%" stop-color="#858d98" stop-opacity="0.06"/></linearGradient>
</defs>
<rect width="1200" height="400" fill="url(#bg)"/>
<path d="M0 400 L0 240.2568987020884 C60.0 233.4, 90.0 234.8, 150.0 241.8 C210.0 243.7, 240.0 243.1, 300.0 247.1 C360.0 252.0, 390.0 241.8, 450.0 246.0 C510.0 244.7, 540.0 228.2, 600.0 227.1 C660.0 219.6, 690.0 219.6, 750.0 225.3 C810.0 232.0, 840.0 238.9, 900.0 247.8 C960.0 246.6, 990.0 247.2, 1050.0 246.2 C1110.0 243.9, 1140.0 236.9, 1200.0 227.9 L1200 400 Z" fill="#367da9" opacity="0.45"/>
<path d="M0 400 L0 269.4423619034294 C52.5 268.9, 97.5 254.9, 150.0 257.4 C202.5 250.3, 247.5 270.9, 300.0 271.1 C352.5 268.7, 397.5 271.1, 450.0 275.8 C502.5 268.7, 547.5 253.1, 600.0 260.2 C652.5 264.2, 697.5 260.8, 750.0 260.8 C802.5 257.0, 847.5 254.6, 900.0 259.8 C952.5 260.3, 997.5 278.4, 1050.0 280.3 C1102.5 283.0, 1147.5 276.9, 1200.0 272.6 L1200 400 Z" fill="#0369a1" opacity="0.3"/>
<rect x="943.8" y="363.3" width="43.9" height="36.7" rx="4.8" fill="#048084" opacity="0.61"/>
<rect x="189.0" y="309.4" width="19.4" height="90.6" rx="5.0" fill="#047b8a" opacity="0.62"/>
<rect x="194.0" y="341.4" width="4" height="5" rx="0.5" fill="#94a3b8" opacity="0.6"/>
<rect x="194.0" y="363.4" width="4" height="5" rx="0.5" fill="#94a3b8" opacity="0.6"/>
<rect x="242.7" y="343.5" width="13.9" height="56.5" rx="4.6" fill="#05946c" opacity="0.75"/>
<rect x="587.5" y="284.3" width="24.0" height="115.7" rx="7.1" fill="#047c8a" opacity="0.55"/>
<rect x="592.5" y="294.3" width="4" height="5" rx="0.5" fill="#94a3b8" opacity="0.6"/>
<rect x="592.5" y="316.3" width="4" height="5" rx="0.5" fill="#94a3b8" opacity="0.6"/>
<rect x="592.5" y="338.3" width="4" height="5" rx="0.5" fill="#94a3b8" opacity="0.6"/>
<rect x="591.9" y="337.8" width="12.4" height="62.2" rx="6.6" fill="#04857f" opacity="0.65"/>
<rect x="700.4" y="310.8" width="44.3" height="89.2" rx="3.9" fill="#048381" opacity="0.64"/>
<rect x="340.7" y="370.0" width="35.0" height="30.0" rx="7.9" fill="#047c89" opacity="0.64"/>
<rect x="980.0" y="341.8" width="47.0" height="58.2" rx="7.3" fill="#05956b" opacity="0.63"/>
<rect x="656.2" y="332.1" width="39.1" height="67.9" rx="5.5" fill="#058c75" opacity="0.60"/>
<rect x="794.1" y="269.1" width="27.3" height="130.9" rx="5.9" fill="#04857e" opacity="0.65"/>
<rect x="415.2" y="278.4" width="41.1" height="121.6" rx="7.3" fill="#058d75" opacity="0.54"/>
<rect x="433.9" y="288.4" width="4" height="5" rx="0.5" fill="#94a3b8" opacity="0.6"/>
<rect x="433.9" y="310.4" width="4" height="5" rx="0.5" fill="#94a3b8" opacity="0.6"/>
<rect x="420.2" y="332.4" width="4" height="5" rx="0.5" fill="#94a3b8" opacity="0.6"/>
<rect x="420.2" y="354.4" width="4" height="5" rx="0.5" fill="#94a3b8" opacity="0.6"/>
<rect x="553.3" y="284.6" width="36.1" height="115.4" rx="6.1" fill="#058f72" opacity="0.62"/>
<rect x="213.3" y="327.9" width="37.6" height="72.1" rx="5.3" fill="#047c89" opacity="0.78"/>
<circle cx="336.3" cy="157.5" r="10.9" fill="#059669" opacity="0.25"/>
<circle cx="769.7" cy="69.0" r="3.5" fill="#94a3b8" opacity="0.22"/>
<circle cx="749.0" cy="77.3" r="11.5" fill="#059669" opacity="0.42"/>
<circle cx="483.0" cy="202.2" r="9.0" fill="#059669" opacity="0.22"/>
<circle cx="997.9" cy="236.2" r="8.8" fill="#94a3b8" opacity="0.43"/>
<circle cx="587.8" cy="118.8" r="8.6" fill="#94a3b8" opacity="0.42"/>
<rect width="1200" height="400" fill="url(#warm)"/>
<rect width="1200" height="400" fill="#94a3b8" opacity="0.40"/>
</svg>