<svg xmlns="http://www.w3.org/2000/svg" viewBox="0 0 1200 300" width="1200" height="300">
<rect width="1200" height="300" fill="#e6eef4"/>
<path d="M0 300 L0 210.0 C395.3 161.5, 927.0 181.6, 1200 210.0 L1200 300 Z" fill="#b5cad8" opacity="0.3"/>
<rect x="157.0" y="202.6" width="48.1" height="97.4" fill="#99b6c9"/>
<rect x="390.9" y="220.8" width="50.1" height="79.2" fill="#99b6c9"/>
<rect x="752.1" y="226.8" width="40.8" height="73.2" fill="#99b6c9"/>
<rect x="980.8" y="195.6" width="41.7" height="104.4" fill="#99b6c9"/>
<rect x="160.3" y="180.9" width="41.4" height="119.1" fill="#6a95b1"/>
<rect x="178.0" y="192.9" width="6" height="8" fill="#9ebacc" opacity="0.5"/>
<rect x="178.0" y="208.9" width="6" height="8" fill="#9ebacc" opacity="0.5"/>
<rect x="178.0" y="224.9" width="6" height="8" fill="#9ebacc" opacity="0.5"/>
<rect x="178.0" y="256.9" width="6" height="8" fill="#9ebacc" opacity="0.5"/>
<rect x="441.3" y="202.6" width="58.9" height="97.4" fill="#6a95b1"/>
<rect x="467.8" y="214.6" width="6" height="8" fill="#9ebacc" opacity="0.5"/>
<rect x="481.8" y="214.6" width="6" height="8" fill="#9ebacc" opacity="0.5"/>
<rect x="453.8" y="230.6" width="6" height="8" fill="#9ebacc" opacity="0.5"/>
<rect x="467.8" y="230.6" width="6" height="8" fill="#9ebacc" opacity="0.5"/>
<rect x="481.8" y="230.6" width="6" height="8" fill="#9ebacc" opacity="0.5"/>
<rect x="453.8" y="246.6" width="6" height="8" fill="#9ebacc" opacity="0.5"/>
<rect x="467.8" y="246.6" width="6" height="8" fill="#9ebacc" opacity="0.5"/>
<rect x="481.8" y="246.6" width="6" height="8" fill="#9ebacc" opacity="0.5"/>
<rect x="481.8" y="262.6" width="6" height="8" fill="#9ebacc" opacity="0.5"/>
<rect x="710.9" y="221.0" width="67.4" height="79.0" fill="#6a95b1"/>
<rect x="727.6" y="233.0" width="6" height="8" fill="#9ebacc" opacity="0.5"/>
<rect x="741.6" y="233.0" width="6" height="8" fill="#9ebacc" opacity="0.5"/>
<rect x="755.6" y="233.0" width="6" height="8" fill="#9ebacc" opacity="0.5"/>
<rect x="727.6" y="249.0" width="6" height="8" fill="#9ebacc" opacity="0.5"/>
<rect x="741.6" y="249.0" width="6" height="8" fill="#9ebacc" opacity="0.5"/>
<rect x="755.6" y="249.0" width="6" height="8" fill="#9ebacc" opacity="0.5"/>
<rect x="727.6" y="265.0" width="6" height="8" fill="#9ebacc" opacity="0.5"/>
<rect x="741.6" y="265.0" width="6" height="8" fill="#9ebacc" opacity="0.5"/>
<rect x="1018.6" y="200.2" width="48.9" height="99.8" fill="#6a95b1"/>
<rect x="1033.0" y="212.2" width="6" height="8" fill="#9ebacc" opacity="0.5"/>
<rect x="1047.0" y="212.2" width="6" height="8" fill="#9ebacc" opacity="0.5"/>
<rect x="1033.0" y="228.2" width="6" height="8" fill="#9ebacc" opacity="0.5"/>
<rect x="1047.0" y="228.2" width="6" height="8" fill="#9ebacc" opacity="0.5"/>
<rect x="1033.0" y="244.2" width="6" height="8" fill="#9ebacc" opacity="0.5"/>
<rect x="1047.0" y="244.2" width="6" height="8" fill="#9ebacc" opacity="0.5"/>
<rect x="1047.0" y="260.2" width="6" height="8" fill="#9ebacc" opacity="0.5"/>
<rect x="150.0" y="181.8" width="31.0" height="118.2" fill="#457b9d"/>
<rect x="162.4" y="193.8" width="6" height="8" fill="#86a9bf" opacity="0.5"/>
<rect x="162.4" y="225.8" width="6" height="8" fill="#86a9bf" opacity="0.5"/>
<rect x="162.4" y="257.8" width="6" height="8" fill="#86a9bf" opacity="0.5"/>
<rect x="162.4" y="273.8" width="6" height="8" fill="#86a9bf" opacity="0.5"/>
<rect x="398.7" y="119.9" width="49.8" height="180.1" fill="#457b9d"/>
<rect x="413.6" y="131.9" width="6" height="8" fill="#86a9bf" opacity="0.5"/>
<rect x="427.6" y="131.9" width="6" height="8" fill="#86a9bf" opacity="0.5"/>
<rect x="413.6" y="147.9" width="6" height="8" fill="#86a9bf" opacity="0.5"/>
<rect x="413.6" y="163.9" width="6" height="8" fill="#86a9bf" opacity="0.5"/>
<rect x="427.6" y="163.9" width="6" height="8" fill="#86a9bf" opacity="0.5"/>
<rect x="427.6" y="179.9" width="6" height="8" fill="#86a9bf" opacity="0.5"/>
<rect x="413.6" y="195.9" width="6" height="8" fill="#86a9bf" opacity="0.5"/>
<rect x="427.6" y="195.9" width="6" height="8" fill="#86a9bf" opacity="0.5"/>
<rect x="413.6" y="211.9" width="6" height="8" fill="#86a9bf" opacity="0.5"/>
<rect x="413.6" y="227.9" width="6" height="8" fill="#86a9bf" opacity="0.5"/>
<rect x="427.6" y="227.9" width="6" height="8" fill="#86a9bf" opacity="0.5"/>
<rect x="427.6" y="243.9" width="6" height="8" fill="#86a9bf" opacity="0.5"/>
<rect x="413.6" y="259.9" width="6" height="8" fill="#86a9bf" opacity="0.5"/>
<rect x="427.6" y="259.9" width="6" height="8" fill="#86a9bf" opacity="0.5"/>
<rect x="744.2" y="193.8" width="44.9" height="106.2" fill="#457b9d"/>
<rect x="756.6" y="205.8" width="6" height="8" fill="#86a9bf" opacity="0.5"/>
<rect x="770.6" y="205.8" width="6" height="8" fill="#86a9bf" opacity="0.5"/>
<rect x="756.6" y="221.8" width="6" height="8" fill="#86a9bf" opacity="0.5"/>
<rect x="770.6" y="221.8" width="6" height="8" fill="#86a9bf" opacity="0.5"/>
<rect x="756.6" y="237.8" width="6" height="8" fill="#86a9bf" opacity="0.5"/>
<rect x="770.6" y="253.8" width="6" height="8" fill="#86a9bf" opacity="0.5"/>
<rect x="1038.8" y="231.0" width="43.2" height="69.0" fill="#457b9d"/>
<rect x="1057.4" y="243.0" width="6" height="8" fill="#86a9bf" opacity="0.5"/>
<rect x="0" y="298" width="1200" height="2" fill="#3e6f8d" opacity="0.15"/>
</svg>