<svg xmlns="http://www.w3.org/2000/svg" viewBox="0 0 1200 300" width="1200" height="300">
<defs>
<linearGradient id="skyGrad" x1="0" y1="0" x2="0" y2="1">
<stop offset="0%" stop-color="#818cf8"/>
<stop offset="20%" stop-color="#c4b5fd"/>
<stop offset="38%" stop-color="#fda4af"/>
<stop offset="55%" stop-color="#fdba74"/>
<stop offset="75%" stop-color="#fef08a"/>
<stop offset="100%" stop-color="#fef9c3"/>
</linearGradient>
<linearGradient id="bldg_coral" x1="0" y1="0" x2="0" y2="1"><stop offset="0%" stop-color="#fecaca"/><stop offset="100%" stop-color="#fca5a5"/></linearGradient>
<linearGradient id="bldg_teal" x1="0" y1="0" x2="0" y2="1"><stop offset="0%" stop-color="#99f6e4"/><stop offset="100%" stop-color="#5eead4"/></linearGradient>
<linearGradient id="bldg_amber" x1="0" y1="0" x2="0" y2="1"><stop offset="0%" stop-color="#fde68a"/><stop offset="100%" stop-color="#fcd34d"/></linearGradient>
<linearGradient id="bldg_lavender" x1="0" y1="0" x2="0" y2="1"><stop offset="0%" stop-color="#ddd6fe"/><stop offset="100%" stop-color="#c4b5fd"/></linearGradient>
<linearGradient id="bldg_blue" x1="0" y1="0" x2="0" y2="1"><stop offset="0%" stop-color="#bfdbfe"/><stop offset="100%" stop-color="#93c5fd"/></linearGradient>
<linearGradient id="bldg_mint" x1="0" y1="0" x2="0" y2="1"><stop offset="0%" stop-color="#a7f3d0"/><stop offset="100%" stop-color="#6ee7b7"/></linearGradient>
<linearGradient id="bldg_rose" x1="0" y1="0" x2="0" y2="1"><stop offset="0%" stop-color="#fecdd3"/><stop offset="100%" stop-color="#fda4af"/></linearGradient>
<linearGradient id="bldg_sky" x1="0" y1="0" x2="0" y2="1"><stop offset="0%" stop-color="#bae6fd"/><stop offset="100%" stop-color="#7dd3fc"/></linearGradient>
<linearGradient id="roof_navyRoof" x1="0" y1="0" x2="0" y2="1"><stop offset="0%" stop-color="#4338ca"/><stop offset="100%" stop-color="#3730a3"/></linearGradient>
<linearGradient id="roof_coralRoof" x1="0" y1="0" x2="0" y2="1"><stop offset="0%" stop-color="#f87171"/><stop offset="100%" stop-color="#ef4444"/></linearGradient>
<linearGradient id="roof_tealRoof" x1="0" y1="0" x2="0" y2="1"><stop offset="0%" stop-color="#2dd4bf"/><stop offset="100%" stop-color="#14b8a6"/></linearGradient>
<radialGradient id="windowGlow" cx="50%" cy="50%" r="50%"><stop offset="0%" stop-color="#fef08a"/><stop offset="60%" stop-color="#fbbf24"/><stop offset="100%" stop-color="#f59e0b"/></radialGradient>
<linearGradient id="hillFar" x1="0" y1="0" x2="0" y2="1"><stop offset="0%" stop-color="#c4b5fd"/><stop offset="100%" stop-color="#a5b4fc"/></linearGradient>
<linearGradient id="hillMid" x1="0" y1="0" x2="0" y2="1"><stop offset="0%" stop-color="#86efac"/><stop offset="100%" stop-color="#4ade80"/></linearGradient>
<linearGradient id="hillNear" x1="0" y1="0" x2="0" y2="1"><stop offset="0%" stop-color="#34d399"/><stop offset="100%" stop-color="#10b981"/></linearGradient>
<linearGradient id="hillDesertFar" x1="0" y1="0" x2="0" y2="1"><stop offset="0%" stop-color="#fde68a"/><stop offset="100%" stop-color="#fcd34d"/></linearGradient>
<linearGradient id="hillDesertMid" x1="0" y1="0" x2="0" y2="1"><stop offset="0%" stop-color="#fcd34d"/><stop offset="100%" stop-color="#fbbf24"/></linearGradient>
<linearGradient id="hillDesertNear" x1="0" y1="0" x2="0" y2="1"><stop offset="0%" stop-color="#fbbf24"/><stop offset="100%" stop-color="#f59e0b"/></linearGradient>
<linearGradient id="groundGrad" x1="0" y1="0" x2="0" y2="1"><stop offset="0%" stop-color="#fef3c7"/><stop offset="100%" stop-color="#fde68a"/></linearGradient>
<linearGradient id="waterGrad" x1="0" y1="0" x2="0" y2="1"><stop offset="0%" stop-color="#bfdbfe"/><stop offset="100%" stop-color="#93c5fd"/></linearGradient>
<filter id="softGlow" x="-50%" y="-50%" width="200%" height="200%"><feGaussianBlur in="SourceGraphic" stdDeviation="12"/></filter>
</defs>
<rect width="1200" height="300" fill="url(#skyGrad)"/>
<circle cx="972.6" cy="58.8" r="45" fill="#fef08a" opacity="0.12" filter="url(#softGlow)"/>
<circle cx="972.6" cy="58.8" r="30" fill="#fde68a" opacity="0.18" filter="url(#softGlow)"/>
<circle cx="972.6" cy="58.8" r="16" fill="#fef9c3" opacity="0.25" filter="url(#softGlow)"/>
<ellipse cx="708.1" cy="51.1" rx="42.4" ry="14.8" fill="white" opacity="0.4"/>
<ellipse cx="681.6" cy="55.3" rx="29.7" ry="11.7" fill="white" opacity="0.4"/>
<ellipse cx="731.4" cy="54.3" rx="33.9" ry="12.7" fill="white" opacity="0.4"/>
<ellipse cx="667.3" cy="25.3" rx="35.3" ry="12.3" fill="white" opacity="0.4"/>
<ellipse cx="645.3" cy="28.8" rx="24.7" ry="9.7" fill="white" opacity="0.4"/>
<ellipse cx="686.7" cy="27.9" rx="28.2" ry="10.6" fill="white" opacity="0.3"/>
<ellipse cx="134.8" cy="48.6" rx="28.8" ry="10.1" fill="white" opacity="0.5"/>
<ellipse cx="116.8" cy="51.5" rx="20.2" ry="7.9" fill="white" opacity="0.4"/>
<ellipse cx="150.6" cy="50.8" rx="23.0" ry="8.6" fill="white" opacity="0.4"/>
<path d="M0 300 L0.0 184.4 C123.2 184.4, 123.2 184.8, 246.4 184.8 C420.8 184.8, 420.8 185.9, 595.3 185.9 C759.3 185.9, 759.3 190.8, 923.3 190.8 C1061.6 190.8, 1061.6 188.0, 1200.0 188.0 L1200 300 Z" fill="url(#hillFar)" opacity="0.5"/>
<path d="M0 300 L0.0 217.0 C135.7 217.0, 135.7 206.8, 271.4 206.8 C416.9 206.8, 416.9 215.1, 562.3 215.1 C725.0 215.1, 725.0 209.4, 887.6 209.4 C1043.8 209.4, 1043.8 214.5, 1200.0 214.5 L1200 300 Z" fill="url(#hillMid)" opacity="0.7"/>
<path d="M0 300 L0.0 228.2 C137.3 228.2, 137.3 231.6, 274.6 231.6 C429.2 231.6, 429.2 235.5, 583.9 235.5 C770.8 235.5, 770.8 236.8, 957.8 236.8 C1078.9 236.8, 1078.9 234.4, 1200.0 234.4 L1200 300 Z" fill="url(#hillNear)" opacity="1"/>
<rect x="102.8" y="215.9" width="87.7" height="84.1" rx="3" fill="url(#bldg_coral)" opacity="0.7"/>
<rect x="102.8" y="212.9" width="87.7" height="3" rx="1" fill="url(#roof_tealRoof)" opacity="0.7"/>
<rect x="122.7" y="225.9" width="6" height="8" rx="1" fill="url(#windowGlow)" opacity="0.8508445488991423"/>
<rect x="136.7" y="225.9" width="6" height="8" rx="1" fill="url(#windowGlow)" opacity="0.7552727592435072"/>
<rect x="150.7" y="225.9" width="6" height="8" rx="1" fill="url(#windowGlow)" opacity="0.9701424093312315"/>
<rect x="122.7" y="240.9" width="6" height="8" rx="1" fill="url(#windowGlow)" opacity="0.9213739811076661"/>
<rect x="136.7" y="240.9" width="6" height="8" rx="1" fill="url(#windowGlow)" opacity="0.8417703126751679"/>
<rect x="150.7" y="240.9" width="6" height="8" rx="1" fill="url(#windowGlow)" opacity="0.8280448828023136"/>
<rect x="164.7" y="240.9" width="6" height="8" rx="1" fill="url(#windowGlow)" opacity="0.7639687235299352"/>
<rect x="122.7" y="255.9" width="6" height="8" rx="1" fill="url(#windowGlow)" opacity="0.9103191594175617"/>
<rect x="136.7" y="255.9" width="6" height="8" rx="1" fill="url(#windowGlow)" opacity="0.8191341863102903"/>
<rect x="150.7" y="255.9" width="6" height="8" rx="1" fill="url(#windowGlow)" opacity="0.8618431940962761"/>
<rect x="164.7" y="255.9" width="6" height="8" rx="1" fill="url(#windowGlow)" opacity="0.8181246168064533"/>
<rect x="409.2" y="215.6" width="54.8" height="84.4" rx="3" fill="url(#bldg_teal)" opacity="0.7"/>
<polygon points="409.2,215.6 436.6,202.7 464.1,215.6" fill="url(#roof_navyRoof)" opacity="0.7"/>
<rect x="426.6" y="225.6" width="6" height="8" rx="1" fill="url(#windowGlow)" opacity="0.7384261962670955"/>
<rect x="426.6" y="240.6" width="6" height="8" rx="1" fill="url(#windowGlow)" opacity="0.7726639468561224"/>
<rect x="440.6" y="240.6" width="6" height="8" rx="1" fill="url(#windowGlow)" opacity="0.794833654116296"/>
<rect x="440.6" y="255.6" width="6" height="8" rx="1" fill="url(#windowGlow)" opacity="0.8624404558271357"/>
<rect x="719.3" y="221.4" width="77.7" height="78.6" rx="3" fill="url(#bldg_amber)" opacity="0.7"/>
<rect x="719.3" y="218.4" width="77.7" height="3" rx="1" fill="url(#roof_coralRoof)" opacity="0.7"/>
<rect x="734.2" y="231.4" width="6" height="8" rx="1" fill="url(#windowGlow)" opacity="0.9998271183575629"/>
<rect x="748.2" y="231.4" width="6" height="8" rx="1" fill="url(#windowGlow)" opacity="0.7623051430388843"/>
<rect x="762.2" y="231.4" width="6" height="8" rx="1" fill="url(#windowGlow)" opacity="0.7494784979380101"/>
<rect x="776.2" y="231.4" width="6" height="8" rx="1" fill="url(#windowGlow)" opacity="0.7037180923874108"/>
<rect x="734.2" y="246.4" width="6" height="8" rx="1" fill="url(#windowGlow)" opacity="0.9209920478151142"/>
<rect x="748.2" y="246.4" width="6" height="8" rx="1" fill="url(#windowGlow)" opacity="0.7017304888934505"/>
<rect x="762.2" y="246.4" width="6" height="8" rx="1" fill="url(#windowGlow)" opacity="0.714553495689553"/>
<rect x="776.2" y="246.4" width="6" height="8" rx="1" fill="url(#windowGlow)" opacity="0.8869979551001442"/>
<rect x="1003.0" y="209.5" width="78.3" height="90.5" rx="3" fill="url(#bldg_lavender)" opacity="0.7"/>
<polygon points="1003.0,209.5 1042.2,184.6 1081.3,209.5" fill="url(#roof_tealRoof)" opacity="0.7"/>
<rect x="1018.2" y="219.5" width="6" height="8" rx="1" fill="url(#windowGlow)" opacity="0.9273518640675358"/>
<rect x="1032.2" y="219.5" width="6" height="8" rx="1" fill="url(#windowGlow)" opacity="0.7418868204773807"/>
<rect x="1018.2" y="234.5" width="6" height="8" rx="1" fill="url(#windowGlow)" opacity="0.8572275106595957"/>
<rect x="1032.2" y="234.5" width="6" height="8" rx="1" fill="url(#windowGlow)" opacity="0.7841609522160892"/>
<rect x="1046.2" y="234.5" width="6" height="8" rx="1" fill="url(#windowGlow)" opacity="0.9792136866036866"/>
<rect x="1060.2" y="234.5" width="6" height="8" rx="1" fill="url(#windowGlow)" opacity="0.7386493307718305"/>
<rect x="1060.2" y="249.5" width="6" height="8" rx="1" fill="url(#windowGlow)" opacity="0.9318831710759006"/>
<rect x="126.5" y="224.2" width="66.3" height="75.8" rx="3" fill="url(#bldg_blue)" opacity="0.85"/>
<rect x="126.5" y="221.2" width="66.3" height="3" rx="1" fill="url(#roof_navyRoof)" opacity="0.85"/>
<rect x="142.6" y="234.2" width="6" height="8" rx="1" fill="url(#windowGlow)" opacity="0.9005930790680428"/>
<rect x="156.6" y="234.2" width="6" height="8" rx="1" fill="url(#windowGlow)" opacity="0.7683301743438142"/>
<rect x="170.6" y="234.2" width="6" height="8" rx="1" fill="url(#windowGlow)" opacity="0.7164628124872514"/>
<rect x="156.6" y="249.2" width="6" height="8" rx="1" fill="url(#windowGlow)" opacity="0.9556840972768534"/>
<rect x="170.6" y="249.2" width="6" height="8" rx="1" fill="url(#windowGlow)" opacity="0.9700922236638573"/>
<path d="M159.6 250.7 L186.1 250.7 L183.1 256.7 L162.6 256.7 Z" fill="url(#roof_tealRoof)" opacity="0.68"/>
<rect x="418.6" y="200.7" width="52.6" height="99.3" rx="3" fill="url(#bldg_mint)" opacity="0.85"/>
<polygon points="418.6,200.7 444.9,183.7 471.2,200.7" fill="url(#roof_coralRoof)" opacity="0.85"/>
<rect x="434.9" y="210.7" width="6" height="8" rx="1" fill="url(#windowGlow)" opacity="0.8342216936099444"/>
<rect x="448.9" y="210.7" width="6" height="8" rx="1" fill="url(#windowGlow)" opacity="0.9270177450622514"/>
<rect x="434.9" y="225.7" width="6" height="8" rx="1" fill="url(#windowGlow)" opacity="0.8996239233294613"/>
<rect x="434.9" y="240.7" width="6" height="8" rx="1" fill="url(#windowGlow)" opacity="0.7821476640562283"/>
<rect x="448.9" y="240.7" width="6" height="8" rx="1" fill="url(#windowGlow)" opacity="0.7050619092793492"/>
<rect x="448.9" y="255.7" width="6" height="8" rx="1" fill="url(#windowGlow)" opacity="0.9560255050454407"/>
<path d="M444.9 235.4 L465.9 235.4 L462.9 241.4 L447.9 241.4 Z" fill="url(#roof_navyRoof)" opacity="0.68"/>
<rect x="732.0" y="174.2" width="56.6" height="125.8" rx="3" fill="url(#bldg_rose)" opacity="0.85"/>
<rect x="732.0" y="171.2" width="56.6" height="3" rx="1" fill="url(#roof_tealRoof)" opacity="0.85"/>
<rect x="750.3" y="184.2" width="6" height="8" rx="1" fill="url(#windowGlow)" opacity="0.8624230140645164"/>
<rect x="750.3" y="199.2" width="6" height="8" rx="1" fill="url(#windowGlow)" opacity="0.7706712554072361"/>
<rect x="750.3" y="214.2" width="6" height="8" rx="1" fill="url(#windowGlow)" opacity="0.8428762848222983"/>
<rect x="764.3" y="214.2" width="6" height="8" rx="1" fill="url(#windowGlow)" opacity="0.9709400555449259"/>
<rect x="750.3" y="229.2" width="6" height="8" rx="1" fill="url(#windowGlow)" opacity="0.9293099680120637"/>
<rect x="764.3" y="229.2" width="6" height="8" rx="1" fill="url(#windowGlow)" opacity="0.9175607014529223"/>
<rect x="750.3" y="244.2" width="6" height="8" rx="1" fill="url(#windowGlow)" opacity="0.8122810474188444"/>
<rect x="764.3" y="244.2" width="6" height="8" rx="1" fill="url(#windowGlow)" opacity="0.8668217586198923"/>
<rect x="764.3" y="259.2" width="6" height="8" rx="1" fill="url(#windowGlow)" opacity="0.8563526722864958"/>
<rect x="986.4" y="205.5" width="62.1" height="94.5" rx="3" fill="url(#bldg_sky)" opacity="0.85"/>
<polygon points="986.4,205.5 1017.4,187.4 1048.4,205.5" fill="url(#roof_navyRoof)" opacity="0.85"/>
<rect x="1014.4" y="215.5" width="6" height="8" rx="1" fill="url(#windowGlow)" opacity="0.7816948883150214"/>
<rect x="1028.4" y="215.5" width="6" height="8" rx="1" fill="url(#windowGlow)" opacity="0.9932109400598383"/>
<rect x="1000.4" y="230.5" width="6" height="8" rx="1" fill="url(#windowGlow)" opacity="0.7358333704694329"/>
<rect x="1014.4" y="230.5" width="6" height="8" rx="1" fill="url(#windowGlow)" opacity="0.923572412656421"/>
<rect x="1028.4" y="230.5" width="6" height="8" rx="1" fill="url(#windowGlow)" opacity="0.7712826344982174"/>
<rect x="1000.4" y="245.5" width="6" height="8" rx="1" fill="url(#windowGlow)" opacity="0.8473023290966182"/>
<rect x="1014.4" y="260.5" width="6" height="8" rx="1" fill="url(#windowGlow)" opacity="0.899836326204164"/>
<rect x="1028.4" y="260.5" width="6" height="8" rx="1" fill="url(#windowGlow)" opacity="0.9785283112332821"/>
<rect x="153.2" y="172.6" width="41.8" height="127.4" rx="3" fill="url(#bldg_coral)" opacity="1"/>
<polygon points="153.2,172.6 174.1,160.4 195.0,172.6" fill="url(#roof_coralRoof)" opacity="1"/>
<rect x="171.1" y="182.6" width="6" height="8" rx="1" fill="url(#windowGlow)" opacity="0.7795067843885658"/>
<rect x="171.1" y="197.6" width="6" height="8" rx="1" fill="url(#windowGlow)" opacity="0.792469209056566"/>
<rect x="171.1" y="242.6" width="6" height="8" rx="1" fill="url(#windowGlow)" opacity="0.8165294291528544"/>
<rect x="171.1" y="257.6" width="6" height="8" rx="1" fill="url(#windowGlow)" opacity="0.7848967381682697"/>
<rect x="169.1" y="284.0" width="10" height="16" rx="2" fill="url(#roof_navyRoof)" opacity="0.8"/>
<rect x="171.1" y="287.0" width="6" height="10" rx="1" fill="url(#windowGlow)" opacity="0.45"/>
<path d="M174.1 217.2 L190.9 217.2 L187.9 223.2 L177.1 223.2 Z" fill="url(#roof_navyRoof)" opacity="0.8"/>
<rect x="166.8" y="213.6" width="14.6" height="5" rx="1" fill="#15803d" opacity="0.7"/>
<circle cx="169.8" cy="212.6" r="2.5" fill="#a78bfa" opacity="0.85"/>
<circle cx="174.7" cy="212.6" r="2.5" fill="#f87171" opacity="0.85"/>
<circle cx="179.6" cy="212.6" r="2.5" fill="#a78bfa" opacity="0.85"/>
<rect x="429.9" y="167.4" width="74.8" height="132.6" rx="3" fill="url(#bldg_teal)" opacity="1"/>
<rect x="444.8" y="151.4" width="44.9" height="15.9" rx="2" fill="url(#roof_tealRoof)" opacity="1"/>
<rect x="443.3" y="177.4" width="6" height="8" rx="1" fill="url(#windowGlow)" opacity="0.9618168611832972"/>
<rect x="457.3" y="177.4" width="6" height="8" rx="1" fill="url(#windowGlow)" opacity="0.8948476712661085"/>
<rect x="471.3" y="177.4" width="6" height="8" rx="1" fill="url(#windowGlow)" opacity="0.9468682135207895"/>
<rect x="443.3" y="192.4" width="6" height="8" rx="1" fill="url(#windowGlow)" opacity="0.8624314417887625"/>
<rect x="457.3" y="192.4" width="6" height="8" rx="1" fill="url(#windowGlow)" opacity="0.8980467566279912"/>
<rect x="471.3" y="192.4" width="6" height="8" rx="1" fill="url(#windowGlow)" opacity="0.7869863051394868"/>
<rect x="485.3" y="192.4" width="6" height="8" rx="1" fill="url(#windowGlow)" opacity="0.7835900387184648"/>
<rect x="443.3" y="207.4" width="6" height="8" rx="1" fill="url(#windowGlow)" opacity="0.7764671937918604"/>
<rect x="457.3" y="207.4" width="6" height="8" rx="1" fill="url(#windowGlow)" opacity="0.7809412841130705"/>
<rect x="471.3" y="207.4" width="6" height="8" rx="1" fill="url(#windowGlow)" opacity="0.826706884767258"/>
<rect x="443.3" y="222.4" width="6" height="8" rx="1" fill="url(#windowGlow)" opacity="0.8471589678186732"/>
<rect x="457.3" y="222.4" width="6" height="8" rx="1" fill="url(#windowGlow)" opacity="0.7216694198184038"/>
<rect x="471.3" y="222.4" width="6" height="8" rx="1" fill="url(#windowGlow)" opacity="0.84938589476486"/>
<rect x="485.3" y="222.4" width="6" height="8" rx="1" fill="url(#windowGlow)" opacity="0.994748017096309"/>
<rect x="443.3" y="237.4" width="6" height="8" rx="1" fill="url(#windowGlow)" opacity="0.8832146888054975"/>
<rect x="457.3" y="237.4" width="6" height="8" rx="1" fill="url(#windowGlow)" opacity="0.7035281125006863"/>
<rect x="471.3" y="237.4" width="6" height="8" rx="1" fill="url(#windowGlow)" opacity="0.8125992740563113"/>
<rect x="443.3" y="252.4" width="6" height="8" rx="1" fill="url(#windowGlow)" opacity="0.8087889085099049"/>
<rect x="457.3" y="252.4" width="6" height="8" rx="1" fill="url(#windowGlow)" opacity="0.942880675775409"/>
<rect x="471.3" y="252.4" width="6" height="8" rx="1" fill="url(#windowGlow)" opacity="0.735106515155689"/>
<rect x="462.3" y="284.0" width="10" height="16" rx="2" fill="url(#roof_navyRoof)" opacity="0.8"/>
<rect x="464.3" y="287.0" width="6" height="10" rx="1" fill="url(#windowGlow)" opacity="0.45"/>
<rect x="454.2" y="193.4" width="26.2" height="5" rx="1" fill="#15803d" opacity="0.7"/>
<circle cx="457.2" cy="192.4" r="2.5" fill="#fbbf24" opacity="0.85"/>
<circle cx="465.9" cy="192.4" r="2.5" fill="#fb923c" opacity="0.85"/>
<circle cx="474.7" cy="192.4" r="2.5" fill="#fbbf24" opacity="0.85"/>
<rect x="675.7" y="178.8" width="59.5" height="121.2" rx="3" fill="url(#bldg_amber)" opacity="1"/>
<rect x="675.7" y="175.8" width="59.5" height="3" rx="1" fill="url(#roof_navyRoof)" opacity="1"/>
<rect x="688.5" y="188.8" width="6" height="8" rx="1" fill="url(#windowGlow)" opacity="0.8657570451338574"/>
<rect x="702.5" y="188.8" width="6" height="8" rx="1" fill="url(#windowGlow)" opacity="0.7115391375550716"/>
<rect x="716.5" y="188.8" width="6" height="8" rx="1" fill="url(#windowGlow)" opacity="0.8783305553618495"/>
<rect x="688.5" y="203.8" width="6" height="8" rx="1" fill="url(#windowGlow)" opacity="0.9795915232410615"/>
<rect x="702.5" y="203.8" width="6" height="8" rx="1" fill="url(#windowGlow)" opacity="0.9459411081140586"/>
<rect x="716.5" y="203.8" width="6" height="8" rx="1" fill="url(#windowGlow)" opacity="0.8578915177648381"/>
<rect x="688.5" y="218.8" width="6" height="8" rx="1" fill="url(#windowGlow)" opacity="0.7361477070656361"/>
<rect x="716.5" y="218.8" width="6" height="8" rx="1" fill="url(#windowGlow)" opacity="0.9592241298217439"/>
<rect x="688.5" y="233.8" width="6" height="8" rx="1" fill="url(#windowGlow)" opacity="0.9036534006258721"/>
<rect x="702.5" y="233.8" width="6" height="8" rx="1" fill="url(#windowGlow)" opacity="0.9342637123233934"/>
<rect x="716.5" y="248.8" width="6" height="8" rx="1" fill="url(#windowGlow)" opacity="0.918245862805399"/>
<rect x="700.5" y="284.0" width="10" height="16" rx="2" fill="url(#roof_navyRoof)" opacity="0.8"/>
<rect x="702.5" y="287.0" width="6" height="10" rx="1" fill="url(#windowGlow)" opacity="0.45"/>
<rect x="966.8" y="143.5" width="66.9" height="156.5" rx="3" fill="url(#bldg_lavender)" opacity="1"/>
<polygon points="966.8,143.5 1000.3,122.9 1033.7,143.5" fill="url(#roof_coralRoof)" opacity="1"/>
<rect x="983.3" y="153.5" width="6" height="8" rx="1" fill="url(#windowGlow)" opacity="0.9942008351414469"/>
<rect x="997.3" y="153.5" width="6" height="8" rx="1" fill="url(#windowGlow)" opacity="0.970576973292314"/>
<rect x="1011.3" y="153.5" width="6" height="8" rx="1" fill="url(#windowGlow)" opacity="0.8833350765441241"/>
<rect x="983.3" y="168.5" width="6" height="8" rx="1" fill="url(#windowGlow)" opacity="0.8193286669996235"/>
<rect x="997.3" y="168.5" width="6" height="8" rx="1" fill="url(#windowGlow)" opacity="0.8465795845475883"/>
<rect x="983.3" y="183.5" width="6" height="8" rx="1" fill="url(#windowGlow)" opacity="0.7201505479962335"/>
<rect x="1011.3" y="183.5" width="6" height="8" rx="1" fill="url(#windowGlow)" opacity="0.7968002357970924"/>
<rect x="983.3" y="198.5" width="6" height="8" rx="1" fill="url(#windowGlow)" opacity="0.9529835907057782"/>
<rect x="997.3" y="198.5" width="6" height="8" rx="1" fill="url(#windowGlow)" opacity="0.9223377950593539"/>
<rect x="997.3" y="213.5" width="6" height="8" rx="1" fill="url(#windowGlow)" opacity="0.9033375924468681"/>
<rect x="997.3" y="228.5" width="6" height="8" rx="1" fill="url(#windowGlow)" opacity="0.8535843703679667"/>
<rect x="1011.3" y="228.5" width="6" height="8" rx="1" fill="url(#windowGlow)" opacity="0.7961383378580856"/>
<rect x="997.3" y="243.5" width="6" height="8" rx="1" fill="url(#windowGlow)" opacity="0.934908544707535"/>
<rect x="1011.3" y="243.5" width="6" height="8" rx="1" fill="url(#windowGlow)" opacity="0.7882197218892256"/>
<rect x="983.3" y="258.5" width="6" height="8" rx="1" fill="url(#windowGlow)" opacity="0.9827040973038896"/>
<rect x="997.3" y="258.5" width="6" height="8" rx="1" fill="url(#windowGlow)" opacity="0.9048231133747953"/>
<rect x="1011.3" y="258.5" width="6" height="8" rx="1" fill="url(#windowGlow)" opacity="0.8845842697120198"/>
<rect x="995.3" y="284.0" width="10" height="16" rx="2" fill="url(#roof_navyRoof)" opacity="0.8"/>
<rect x="997.3" y="287.0" width="6" height="10" rx="1" fill="url(#windowGlow)" opacity="0.45"/>
<path d="M973.5 198.3 L1000.3 198.3 L997.3 204.3 L976.5 204.3 Z" fill="url(#roof_navyRoof)" opacity="0.8"/>
<rect x="309.5" y="267.3" width="6" height="17.7" rx="2" fill="#15803d"/>
<circle cx="312.5" cy="256.1" r="15.2" fill="#22c55e" opacity="0.9"/>
<circle cx="305.3" cy="259.1" r="11.4" fill="#16a34a" opacity="0.8"/>
<circle cx="319.2" cy="260.1" r="10.6" fill="#15803d" opacity="0.7"/>
<rect x="587.2" y="267.5" width="6" height="17.5" rx="2" fill="#15803d"/>
<circle cx="590.2" cy="255.1" r="16.3" fill="#22c55e" opacity="0.9"/>
<circle cx="581.7" cy="258.1" r="12.3" fill="#16a34a" opacity="0.8"/>
<circle cx="595.4" cy="259.1" r="11.4" fill="#15803d" opacity="0.7"/>
<rect x="848.0" y="263.8" width="6" height="21.2" rx="2" fill="#15803d"/>
<circle cx="851.0" cy="253.6" r="14.2" fill="#22c55e" opacity="0.9"/>
<circle cx="844.2" cy="256.6" r="10.6" fill="#16a34a" opacity="0.8"/>
<circle cx="856.8" cy="257.6" r="9.9" fill="#15803d" opacity="0.7"/>
<rect x="102.0" y="264.1" width="6" height="20.9" rx="2" fill="#15803d"/>
<circle cx="105.0" cy="254.5" r="13.6" fill="#22c55e" opacity="0.9"/>
<circle cx="96.8" cy="257.5" r="10.2" fill="#16a34a" opacity="0.8"/>
<circle cx="111.9" cy="258.5" r="9.5" fill="#15803d" opacity="0.7"/>
<rect x="0" y="282" width="1200" height="18" fill="url(#groundGrad)"/>
<line x1="84.5" y1="282.0" x2="84.5" y2="251.8" stroke="#92400e" stroke-width="2"/>
<circle cx="84.5" cy="251.8" r="4" fill="#fef08a" opacity="0.6"/>
<circle cx="84.5" cy="251.8" r="8" fill="#fef08a" opacity="0.15" filter="url(#softGlow)"/>
<line x1="990.8" y1="282.0" x2="990.8" y2="248.7" stroke="#92400e" stroke-width="2"/>
<circle cx="990.8" cy="248.7" r="4" fill="#fef08a" opacity="0.6"/>
<circle cx="990.8" cy="248.7" r="8" fill="#fef08a" opacity="0.15" filter="url(#softGlow)"/>
<ellipse cx="199.3" cy="282.0" rx="6.2" ry="4.3" fill="#22c55e" opacity="0.6"/>
<ellipse cx="538.7" cy="282.0" rx="5.9" ry="4.1" fill="#22c55e" opacity="0.6"/>
<ellipse cx="772.1" cy="282.0" rx="5.8" ry="4.1" fill="#22c55e" opacity="0.6"/>
</svg>