<svg xmlns="http://www.w3.org/2000/svg" viewBox="0 0 1200 300" width="1200" height="300">
<rect width="1200" height="300" fill="#e8edf2"/>
<path d="M0 300 L0 210.0 C282.0 188.9, 936.1 197.4, 1200 210.0 L1200 300 Z" fill="#b1bdcc" opacity="0.3"/>
<rect x="57.2" y="144.4" width="81.1" height="155.6" fill="#94a4b9"/>
<rect x="291.9" y="165.0" width="76.5" height="135.0" fill="#94a4b9"/>
<rect x="448.8" y="159.0" width="61.5" height="141.0" fill="#94a4b9"/>
<rect x="652.2" y="206.6" width="66.0" height="93.4" fill="#94a4b9"/>
<rect x="836.5" y="178.7" width="76.5" height="121.3" fill="#94a4b9"/>
<rect x="1006.0" y="212.8" width="88.5" height="87.2" fill="#94a4b9"/>
<rect x="71.6" y="99.4" width="74.3" height="200.6" fill="#647b99"/>
<rect x="98.7" y="127.4" width="6" height="8" fill="#9aa9bd" opacity="0.5"/>
<rect x="84.7" y="143.4" width="6" height="8" fill="#9aa9bd" opacity="0.5"/>
<rect x="98.7" y="143.4" width="6" height="8" fill="#9aa9bd" opacity="0.5"/>
<rect x="126.7" y="143.4" width="6" height="8" fill="#9aa9bd" opacity="0.5"/>
<rect x="84.7" y="159.4" width="6" height="8" fill="#9aa9bd" opacity="0.5"/>
<rect x="98.7" y="159.4" width="6" height="8" fill="#9aa9bd" opacity="0.5"/>
<rect x="112.7" y="159.4" width="6" height="8" fill="#9aa9bd" opacity="0.5"/>
<rect x="126.7" y="159.4" width="6" height="8" fill="#9aa9bd" opacity="0.5"/>
<rect x="84.7" y="175.4" width="6" height="8" fill="#9aa9bd" opacity="0.5"/>
<rect x="98.7" y="175.4" width="6" height="8" fill="#9aa9bd" opacity="0.5"/>
<rect x="126.7" y="175.4" width="6" height="8" fill="#9aa9bd" opacity="0.5"/>
<rect x="98.7" y="191.4" width="6" height="8" fill="#9aa9bd" opacity="0.5"/>
<rect x="112.7" y="191.4" width="6" height="8" fill="#9aa9bd" opacity="0.5"/>
<rect x="126.7" y="191.4" width="6" height="8" fill="#9aa9bd" opacity="0.5"/>
<rect x="84.7" y="207.4" width="6" height="8" fill="#9aa9bd" opacity="0.5"/>
<rect x="98.7" y="207.4" width="6" height="8" fill="#9aa9bd" opacity="0.5"/>
<rect x="112.7" y="207.4" width="6" height="8" fill="#9aa9bd" opacity="0.5"/>
<rect x="84.7" y="223.4" width="6" height="8" fill="#9aa9bd" opacity="0.5"/>
<rect x="126.7" y="223.4" width="6" height="8" fill="#9aa9bd" opacity="0.5"/>
<rect x="84.7" y="239.4" width="6" height="8" fill="#9aa9bd" opacity="0.5"/>
<rect x="98.7" y="239.4" width="6" height="8" fill="#9aa9bd" opacity="0.5"/>
<rect x="112.7" y="239.4" width="6" height="8" fill="#9aa9bd" opacity="0.5"/>
<rect x="98.7" y="255.4" width="6" height="8" fill="#9aa9bd" opacity="0.5"/>
<rect x="112.7" y="255.4" width="6" height="8" fill="#9aa9bd" opacity="0.5"/>
<rect x="126.7" y="255.4" width="6" height="8" fill="#9aa9bd" opacity="0.5"/>
<rect x="84.7" y="271.4" width="6" height="8" fill="#9aa9bd" opacity="0.5"/>
<rect x="98.7" y="271.4" width="6" height="8" fill="#9aa9bd" opacity="0.5"/>
<rect x="112.7" y="271.4" width="6" height="8" fill="#9aa9bd" opacity="0.5"/>
<rect x="126.7" y="271.4" width="6" height="8" fill="#9aa9bd" opacity="0.5"/>
<rect x="262.3" y="144.9" width="44.3" height="155.1" fill="#647b99"/>
<rect x="274.5" y="172.9" width="6" height="8" fill="#9aa9bd" opacity="0.5"/>
<rect x="288.5" y="172.9" width="6" height="8" fill="#9aa9bd" opacity="0.5"/>
<rect x="288.5" y="188.9" width="6" height="8" fill="#9aa9bd" opacity="0.5"/>
<rect x="288.5" y="204.9" width="6" height="8" fill="#9aa9bd" opacity="0.5"/>
<rect x="274.5" y="220.9" width="6" height="8" fill="#9aa9bd" opacity="0.5"/>
<rect x="288.5" y="220.9" width="6" height="8" fill="#9aa9bd" opacity="0.5"/>
<rect x="274.5" y="236.9" width="6" height="8" fill="#9aa9bd" opacity="0.5"/>
<rect x="288.5" y="236.9" width="6" height="8" fill="#9aa9bd" opacity="0.5"/>
<rect x="274.5" y="252.9" width="6" height="8" fill="#9aa9bd" opacity="0.5"/>
<rect x="288.5" y="252.9" width="6" height="8" fill="#9aa9bd" opacity="0.5"/>
<rect x="274.5" y="268.9" width="6" height="8" fill="#9aa9bd" opacity="0.5"/>
<rect x="288.5" y="268.9" width="6" height="8" fill="#9aa9bd" opacity="0.5"/>
<rect x="406.4" y="145.1" width="57.0" height="154.9" fill="#647b99"/>
<rect x="424.9" y="157.1" width="6" height="8" fill="#9aa9bd" opacity="0.5"/>
<rect x="438.9" y="157.1" width="6" height="8" fill="#9aa9bd" opacity="0.5"/>
<rect x="424.9" y="173.1" width="6" height="8" fill="#9aa9bd" opacity="0.5"/>
<rect x="438.9" y="173.1" width="6" height="8" fill="#9aa9bd" opacity="0.5"/>
<rect x="424.9" y="189.1" width="6" height="8" fill="#9aa9bd" opacity="0.5"/>
<rect x="438.9" y="189.1" width="6" height="8" fill="#9aa9bd" opacity="0.5"/>
<rect x="438.9" y="205.1" width="6" height="8" fill="#9aa9bd" opacity="0.5"/>
<rect x="424.9" y="221.1" width="6" height="8" fill="#9aa9bd" opacity="0.5"/>
<rect x="438.9" y="221.1" width="6" height="8" fill="#9aa9bd" opacity="0.5"/>
<rect x="424.9" y="237.1" width="6" height="8" fill="#9aa9bd" opacity="0.5"/>
<rect x="438.9" y="237.1" width="6" height="8" fill="#9aa9bd" opacity="0.5"/>
<rect x="424.9" y="253.1" width="6" height="8" fill="#9aa9bd" opacity="0.5"/>
<rect x="438.9" y="253.1" width="6" height="8" fill="#9aa9bd" opacity="0.5"/>
<rect x="424.9" y="269.1" width="6" height="8" fill="#9aa9bd" opacity="0.5"/>
<rect x="438.9" y="269.1" width="6" height="8" fill="#9aa9bd" opacity="0.5"/>
<rect x="588.3" y="103.4" width="66.4" height="196.6" fill="#647b99"/>
<rect x="604.5" y="115.4" width="6" height="8" fill="#9aa9bd" opacity="0.5"/>
<rect x="618.5" y="115.4" width="6" height="8" fill="#9aa9bd" opacity="0.5"/>
<rect x="632.5" y="115.4" width="6" height="8" fill="#9aa9bd" opacity="0.5"/>
<rect x="604.5" y="131.4" width="6" height="8" fill="#9aa9bd" opacity="0.5"/>
<rect x="618.5" y="131.4" width="6" height="8" fill="#9aa9bd" opacity="0.5"/>
<rect x="632.5" y="131.4" width="6" height="8" fill="#9aa9bd" opacity="0.5"/>
<rect x="604.5" y="147.4" width="6" height="8" fill="#9aa9bd" opacity="0.5"/>
<rect x="618.5" y="147.4" width="6" height="8" fill="#9aa9bd" opacity="0.5"/>
<rect x="632.5" y="147.4" width="6" height="8" fill="#9aa9bd" opacity="0.5"/>
<rect x="604.5" y="163.4" width="6" height="8" fill="#9aa9bd" opacity="0.5"/>
<rect x="618.5" y="163.4" width="6" height="8" fill="#9aa9bd" opacity="0.5"/>
<rect x="632.5" y="163.4" width="6" height="8" fill="#9aa9bd" opacity="0.5"/>
<rect x="604.5" y="179.4" width="6" height="8" fill="#9aa9bd" opacity="0.5"/>
<rect x="604.5" y="195.4" width="6" height="8" fill="#9aa9bd" opacity="0.5"/>
<rect x="618.5" y="195.4" width="6" height="8" fill="#9aa9bd" opacity="0.5"/>
<rect x="632.5" y="195.4" width="6" height="8" fill="#9aa9bd" opacity="0.5"/>
<rect x="618.5" y="227.4" width="6" height="8" fill="#9aa9bd" opacity="0.5"/>
<rect x="632.5" y="227.4" width="6" height="8" fill="#9aa9bd" opacity="0.5"/>
<rect x="604.5" y="243.4" width="6" height="8" fill="#9aa9bd" opacity="0.5"/>
<rect x="618.5" y="243.4" width="6" height="8" fill="#9aa9bd" opacity="0.5"/>
<rect x="632.5" y="243.4" width="6" height="8" fill="#9aa9bd" opacity="0.5"/>
<rect x="618.5" y="259.4" width="6" height="8" fill="#9aa9bd" opacity="0.5"/>
<rect x="632.5" y="259.4" width="6" height="8" fill="#9aa9bd" opacity="0.5"/>
<rect x="722.9" y="186.5" width="57.1" height="113.5" fill="#647b99"/>
<rect x="741.4" y="198.5" width="6" height="8" fill="#9aa9bd" opacity="0.5"/>
<rect x="755.4" y="198.5" width="6" height="8" fill="#9aa9bd" opacity="0.5"/>
<rect x="741.4" y="214.5" width="6" height="8" fill="#9aa9bd" opacity="0.5"/>
<rect x="755.4" y="214.5" width="6" height="8" fill="#9aa9bd" opacity="0.5"/>
<rect x="741.4" y="230.5" width="6" height="8" fill="#9aa9bd" opacity="0.5"/>
<rect x="755.4" y="230.5" width="6" height="8" fill="#9aa9bd" opacity="0.5"/>
<rect x="741.4" y="246.5" width="6" height="8" fill="#9aa9bd" opacity="0.5"/>
<rect x="755.4" y="246.5" width="6" height="8" fill="#9aa9bd" opacity="0.5"/>
<rect x="741.4" y="262.5" width="6" height="8" fill="#9aa9bd" opacity="0.5"/>
<rect x="913.5" y="156.5" width="58.1" height="143.5" fill="#647b99"/>
<rect x="925.6" y="168.5" width="6" height="8" fill="#9aa9bd" opacity="0.5"/>
<rect x="939.6" y="168.5" width="6" height="8" fill="#9aa9bd" opacity="0.5"/>
<rect x="953.6" y="168.5" width="6" height="8" fill="#9aa9bd" opacity="0.5"/>
<rect x="925.6" y="184.5" width="6" height="8" fill="#9aa9bd" opacity="0.5"/>
<rect x="939.6" y="184.5" width="6" height="8" fill="#9aa9bd" opacity="0.5"/>
<rect x="953.6" y="184.5" width="6" height="8" fill="#9aa9bd" opacity="0.5"/>
<rect x="939.6" y="200.5" width="6" height="8" fill="#9aa9bd" opacity="0.5"/>
<rect x="953.6" y="200.5" width="6" height="8" fill="#9aa9bd" opacity="0.5"/>
<rect x="925.6" y="216.5" width="6" height="8" fill="#9aa9bd" opacity="0.5"/>
<rect x="939.6" y="216.5" width="6" height="8" fill="#9aa9bd" opacity="0.5"/>
<rect x="925.6" y="232.5" width="6" height="8" fill="#9aa9bd" opacity="0.5"/>
<rect x="939.6" y="232.5" width="6" height="8" fill="#9aa9bd" opacity="0.5"/>
<rect x="953.6" y="232.5" width="6" height="8" fill="#9aa9bd" opacity="0.5"/>
<rect x="939.6" y="248.5" width="6" height="8" fill="#9aa9bd" opacity="0.5"/>
<rect x="953.6" y="248.5" width="6" height="8" fill="#9aa9bd" opacity="0.5"/>
<rect x="925.6" y="264.5" width="6" height="8" fill="#9aa9bd" opacity="0.5"/>
<rect x="939.6" y="264.5" width="6" height="8" fill="#9aa9bd" opacity="0.5"/>
<rect x="1046.1" y="193.6" width="40.1" height="106.4" fill="#647b99"/>
<rect x="1063.2" y="205.6" width="6" height="8" fill="#9aa9bd" opacity="0.5"/>
<rect x="1063.2" y="221.6" width="6" height="8" fill="#9aa9bd" opacity="0.5"/>
<rect x="1063.2" y="237.6" width="6" height="8" fill="#9aa9bd" opacity="0.5"/>
<rect x="1063.2" y="253.6" width="6" height="8" fill="#9aa9bd" opacity="0.5"/>
<rect x="1063.2" y="269.6" width="6" height="8" fill="#9aa9bd" opacity="0.5"/>
<rect x="91.4" y="169.9" width="35.8" height="130.1" fill="#3d5a80"/>
<rect x="106.3" y="197.9" width="6" height="8" fill="#8194ac" opacity="0.5"/>
<rect x="106.3" y="213.9" width="6" height="8" fill="#8194ac" opacity="0.5"/>
<rect x="106.3" y="229.9" width="6" height="8" fill="#8194ac" opacity="0.5"/>
<rect x="106.3" y="245.9" width="6" height="8" fill="#8194ac" opacity="0.5"/>
<rect x="106.3" y="261.9" width="6" height="8" fill="#8194ac" opacity="0.5"/>
<rect x="233.9" y="209.4" width="54.0" height="90.6" fill="#3d5a80"/>
<rect x="250.9" y="221.4" width="6" height="8" fill="#8194ac" opacity="0.5"/>
<rect x="264.9" y="221.4" width="6" height="8" fill="#8194ac" opacity="0.5"/>
<rect x="264.9" y="237.4" width="6" height="8" fill="#8194ac" opacity="0.5"/>
<rect x="264.9" y="253.4" width="6" height="8" fill="#8194ac" opacity="0.5"/>
<rect x="250.9" y="269.4" width="6" height="8" fill="#8194ac" opacity="0.5"/>
<rect x="264.9" y="269.4" width="6" height="8" fill="#8194ac" opacity="0.5"/>
<rect x="338.1" y="147.4" width="65.8" height="152.6" fill="#3d5a80"/>
<rect x="354.0" y="159.4" width="6" height="8" fill="#8194ac" opacity="0.5"/>
<rect x="368.0" y="159.4" width="6" height="8" fill="#8194ac" opacity="0.5"/>
<rect x="382.0" y="159.4" width="6" height="8" fill="#8194ac" opacity="0.5"/>
<rect x="354.0" y="175.4" width="6" height="8" fill="#8194ac" opacity="0.5"/>
<rect x="368.0" y="175.4" width="6" height="8" fill="#8194ac" opacity="0.5"/>
<rect x="382.0" y="175.4" width="6" height="8" fill="#8194ac" opacity="0.5"/>
<rect x="354.0" y="191.4" width="6" height="8" fill="#8194ac" opacity="0.5"/>
<rect x="368.0" y="191.4" width="6" height="8" fill="#8194ac" opacity="0.5"/>
<rect x="382.0" y="191.4" width="6" height="8" fill="#8194ac" opacity="0.5"/>
<rect x="354.0" y="207.4" width="6" height="8" fill="#8194ac" opacity="0.5"/>
<rect x="382.0" y="207.4" width="6" height="8" fill="#8194ac" opacity="0.5"/>
<rect x="354.0" y="223.4" width="6" height="8" fill="#8194ac" opacity="0.5"/>
<rect x="368.0" y="223.4" width="6" height="8" fill="#8194ac" opacity="0.5"/>
<rect x="382.0" y="223.4" width="6" height="8" fill="#8194ac" opacity="0.5"/>
<rect x="354.0" y="239.4" width="6" height="8" fill="#8194ac" opacity="0.5"/>
<rect x="368.0" y="239.4" width="6" height="8" fill="#8194ac" opacity="0.5"/>
<rect x="382.0" y="239.4" width="6" height="8" fill="#8194ac" opacity="0.5"/>
<rect x="354.0" y="255.4" width="6" height="8" fill="#8194ac" opacity="0.5"/>
<rect x="368.0" y="255.4" width="6" height="8" fill="#8194ac" opacity="0.5"/>
<rect x="382.0" y="255.4" width="6" height="8" fill="#8194ac" opacity="0.5"/>
<rect x="368.0" y="271.4" width="6" height="8" fill="#8194ac" opacity="0.5"/>
<rect x="382.0" y="271.4" width="6" height="8" fill="#8194ac" opacity="0.5"/>
<rect x="496.4" y="72.8" width="40.0" height="227.2" fill="#3d5a80"/>
<rect x="513.4" y="84.8" width="6" height="8" fill="#8194ac" opacity="0.5"/>
<rect x="513.4" y="100.8" width="6" height="8" fill="#8194ac" opacity="0.5"/>
<rect x="513.4" y="116.8" width="6" height="8" fill="#8194ac" opacity="0.5"/>
<rect x="513.4" y="132.8" width="6" height="8" fill="#8194ac" opacity="0.5"/>
<rect x="513.4" y="148.8" width="6" height="8" fill="#8194ac" opacity="0.5"/>
<rect x="513.4" y="164.8" width="6" height="8" fill="#8194ac" opacity="0.5"/>
<rect x="513.4" y="180.8" width="6" height="8" fill="#8194ac" opacity="0.5"/>
<rect x="513.4" y="196.8" width="6" height="8" fill="#8194ac" opacity="0.5"/>
<rect x="513.4" y="212.8" width="6" height="8" fill="#8194ac" opacity="0.5"/>
<rect x="513.4" y="228.8" width="6" height="8" fill="#8194ac" opacity="0.5"/>
<rect x="513.4" y="244.8" width="6" height="8" fill="#8194ac" opacity="0.5"/>
<rect x="513.4" y="260.8" width="6" height="8" fill="#8194ac" opacity="0.5"/>
<rect x="669.7" y="63.7" width="31.7" height="236.3" fill="#3d5a80"/>
<rect x="682.6" y="75.7" width="6" height="8" fill="#8194ac" opacity="0.5"/>
<rect x="682.6" y="139.7" width="6" height="8" fill="#8194ac" opacity="0.5"/>
<rect x="682.6" y="155.7" width="6" height="8" fill="#8194ac" opacity="0.5"/>
<rect x="682.6" y="171.7" width="6" height="8" fill="#8194ac" opacity="0.5"/>
<rect x="682.6" y="187.7" width="6" height="8" fill="#8194ac" opacity="0.5"/>
<rect x="682.6" y="203.7" width="6" height="8" fill="#8194ac" opacity="0.5"/>
<rect x="682.6" y="219.7" width="6" height="8" fill="#8194ac" opacity="0.5"/>
<rect x="682.6" y="235.7" width="6" height="8" fill="#8194ac" opacity="0.5"/>
<rect x="682.6" y="251.7" width="6" height="8" fill="#8194ac" opacity="0.5"/>
<rect x="776.4" y="219.2" width="44.5" height="80.8" fill="#3d5a80"/>
<rect x="788.7" y="231.2" width="6" height="8" fill="#8194ac" opacity="0.5"/>
<rect x="802.7" y="231.2" width="6" height="8" fill="#8194ac" opacity="0.5"/>
<rect x="788.7" y="247.2" width="6" height="8" fill="#8194ac" opacity="0.5"/>
<rect x="802.7" y="247.2" width="6" height="8" fill="#8194ac" opacity="0.5"/>
<rect x="802.7" y="263.2" width="6" height="8" fill="#8194ac" opacity="0.5"/>
<rect x="942.3" y="139.6" width="56.8" height="160.4" fill="#3d5a80"/>
<rect x="960.7" y="151.6" width="6" height="8" fill="#8194ac" opacity="0.5"/>
<rect x="960.7" y="167.6" width="6" height="8" fill="#8194ac" opacity="0.5"/>
<rect x="974.7" y="167.6" width="6" height="8" fill="#8194ac" opacity="0.5"/>
<rect x="960.7" y="183.6" width="6" height="8" fill="#8194ac" opacity="0.5"/>
<rect x="974.7" y="183.6" width="6" height="8" fill="#8194ac" opacity="0.5"/>
<rect x="960.7" y="199.6" width="6" height="8" fill="#8194ac" opacity="0.5"/>
<rect x="974.7" y="199.6" width="6" height="8" fill="#8194ac" opacity="0.5"/>
<rect x="960.7" y="215.6" width="6" height="8" fill="#8194ac" opacity="0.5"/>
<rect x="974.7" y="215.6" width="6" height="8" fill="#8194ac" opacity="0.5"/>
<rect x="974.7" y="231.6" width="6" height="8" fill="#8194ac" opacity="0.5"/>
<rect x="974.7" y="263.6" width="6" height="8" fill="#8194ac" opacity="0.5"/>
<rect x="1091.3" y="126.6" width="45.3" height="173.4" fill="#3d5a80"/>
<rect x="1117.9" y="138.6" width="6" height="8" fill="#8194ac" opacity="0.5"/>
<rect x="1103.9" y="154.6" width="6" height="8" fill="#8194ac" opacity="0.5"/>
<rect x="1117.9" y="154.6" width="6" height="8" fill="#8194ac" opacity="0.5"/>
<rect x="1117.9" y="170.6" width="6" height="8" fill="#8194ac" opacity="0.5"/>
<rect x="1103.9" y="186.6" width="6" height="8" fill="#8194ac" opacity="0.5"/>
<rect x="1117.9" y="186.6" width="6" height="8" fill="#8194ac" opacity="0.5"/>
<rect x="1103.9" y="202.6" width="6" height="8" fill="#8194ac" opacity="0.5"/>
<rect x="1117.9" y="202.6" width="6" height="8" fill="#8194ac" opacity="0.5"/>
<rect x="1103.9" y="218.6" width="6" height="8" fill="#8194ac" opacity="0.5"/>
<rect x="1117.9" y="218.6" width="6" height="8" fill="#8194ac" opacity="0.5"/>
<rect x="1103.9" y="234.6" width="6" height="8" fill="#8194ac" opacity="0.5"/>
<rect x="1117.9" y="234.6" width="6" height="8" fill="#8194ac" opacity="0.5"/>
<rect x="1103.9" y="250.6" width="6" height="8" fill="#8194ac" opacity="0.5"/>
<rect x="1117.9" y="250.6" width="6" height="8" fill="#8194ac" opacity="0.5"/>
<rect x="1117.9" y="266.6" width="6" height="8" fill="#8194ac" opacity="0.5"/>
<rect x="0" y="298" width="1200" height="2" fill="#375173" opacity="0.15"/>
</svg>