<svg xmlns="http://www.w3.org/2000/svg" viewBox="0 0 1200 300" width="1200" height="300">
<defs>
<linearGradient id="skyGrad" x1="0" y1="0" x2="0" y2="1">
<stop offset="0%" stop-color="#a78bfa"/>
<stop offset="18%" stop-color="#ddb4f0"/>
<stop offset="35%" stop-color="#fda4af"/>
<stop offset="52%" stop-color="#fdba74"/>
<stop offset="72%" stop-color="#fef08a"/>
<stop offset="100%" stop-color="#fef9c3"/>
</linearGradient>
<linearGradient id="bldg_coral" x1="0" y1="0" x2="0" y2="1"><stop offset="0%" stop-color="#fecaca"/><stop offset="100%" stop-color="#fca5a5"/></linearGradient>
<linearGradient id="bldg_teal" x1="0" y1="0" x2="0" y2="1"><stop offset="0%" stop-color="#99f6e4"/><stop offset="100%" stop-color="#5eead4"/></linearGradient>
<linearGradient id="bldg_amber" x1="0" y1="0" x2="0" y2="1"><stop offset="0%" stop-color="#fde68a"/><stop offset="100%" stop-color="#fcd34d"/></linearGradient>
<linearGradient id="bldg_lavender" x1="0" y1="0" x2="0" y2="1"><stop offset="0%" stop-color="#ddd6fe"/><stop offset="100%" stop-color="#c4b5fd"/></linearGradient>
<linearGradient id="bldg_blue" x1="0" y1="0" x2="0" y2="1"><stop offset="0%" stop-color="#bfdbfe"/><stop offset="100%" stop-color="#93c5fd"/></linearGradient>
<linearGradient id="bldg_mint" x1="0" y1="0" x2="0" y2="1"><stop offset="0%" stop-color="#a7f3d0"/><stop offset="100%" stop-color="#6ee7b7"/></linearGradient>
<linearGradient id="bldg_rose" x1="0" y1="0" x2="0" y2="1"><stop offset="0%" stop-color="#fecdd3"/><stop offset="100%" stop-color="#fda4af"/></linearGradient>
<linearGradient id="bldg_sky" x1="0" y1="0" x2="0" y2="1"><stop offset="0%" stop-color="#bae6fd"/><stop offset="100%" stop-color="#7dd3fc"/></linearGradient>
<linearGradient id="roof_navyRoof" x1="0" y1="0" x2="0" y2="1"><stop offset="0%" stop-color="#4338ca"/><stop offset="100%" stop-color="#3730a3"/></linearGradient>
<linearGradient id="roof_coralRoof" x1="0" y1="0" x2="0" y2="1"><stop offset="0%" stop-color="#f87171"/><stop offset="100%" stop-color="#ef4444"/></linearGradient>
<linearGradient id="roof_tealRoof" x1="0" y1="0" x2="0" y2="1"><stop offset="0%" stop-color="#2dd4bf"/><stop offset="100%" stop-color="#14b8a6"/></linearGradient>
<radialGradient id="windowGlow" cx="50%" cy="50%" r="50%"><stop offset="0%" stop-color="#fef08a"/><stop offset="60%" stop-color="#fbbf24"/><stop offset="100%" stop-color="#f59e0b"/></radialGradient>
<linearGradient id="hillFar" x1="0" y1="0" x2="0" y2="1"><stop offset="0%" stop-color="#c4b5fd"/><stop offset="100%" stop-color="#a5b4fc"/></linearGradient>
<linearGradient id="hillMid" x1="0" y1="0" x2="0" y2="1"><stop offset="0%" stop-color="#86efac"/><stop offset="100%" stop-color="#4ade80"/></linearGradient>
<linearGradient id="hillNear" x1="0" y1="0" x2="0" y2="1"><stop offset="0%" stop-color="#34d399"/><stop offset="100%" stop-color="#10b981"/></linearGradient>
<linearGradient id="hillDesertFar" x1="0" y1="0" x2="0" y2="1"><stop offset="0%" stop-color="#fde68a"/><stop offset="100%" stop-color="#fcd34d"/></linearGradient>
<linearGradient id="hillDesertMid" x1="0" y1="0" x2="0" y2="1"><stop offset="0%" stop-color="#fcd34d"/><stop offset="100%" stop-color="#fbbf24"/></linearGradient>
<linearGradient id="hillDesertNear" x1="0" y1="0" x2="0" y2="1"><stop offset="0%" stop-color="#fbbf24"/><stop offset="100%" stop-color="#f59e0b"/></linearGradient>
<linearGradient id="groundGrad" x1="0" y1="0" x2="0" y2="1"><stop offset="0%" stop-color="#fef3c7"/><stop offset="100%" stop-color="#fde68a"/></linearGradient>
<linearGradient id="waterGrad" x1="0" y1="0" x2="0" y2="1"><stop offset="0%" stop-color="#bfdbfe"/><stop offset="100%" stop-color="#93c5fd"/></linearGradient>
<filter id="softGlow" x="-50%" y="-50%" width="200%" height="200%"><feGaussianBlur in="SourceGraphic" stdDeviation="12"/></filter>
</defs>
<rect width="1200" height="300" fill="url(#skyGrad)"/>
<circle cx="957.7" cy="55.1" r="45" fill="#fef08a" opacity="0.12" filter="url(#softGlow)"/>
<circle cx="957.7" cy="55.1" r="30" fill="#fde68a" opacity="0.18" filter="url(#softGlow)"/>
<circle cx="957.7" cy="55.1" r="16" fill="#fef9c3" opacity="0.25" filter="url(#softGlow)"/>
<path d="M0 300 L0.0 191.5 C135.2 191.5, 135.2 174.3, 270.4 174.3 C419.5 174.3, 419.5 189.6, 568.6 189.6 C710.0 189.6, 710.0 189.9, 851.4 189.9 C1025.7 189.9, 1025.7 199.6, 1200.0 199.6 L1200 300 Z" fill="url(#hillFar)" opacity="0.5"/>
<path d="M0 300 L0.0 212.8 C227.5 212.8, 227.5 203.3, 455.0 203.3 C609.8 203.3, 609.8 215.3, 764.6 215.3 C982.3 215.3, 982.3 221.9, 1200.0 221.9 L1200 300 Z" fill="url(#hillMid)" opacity="0.7"/>
<path d="M0 300 L0.0 230.9 C243.7 230.9, 243.7 232.5, 487.4 232.5 C624.1 232.5, 624.1 229.7, 760.7 229.7 C980.4 229.7, 980.4 236.3, 1200.0 236.3 L1200 300 Z" fill="url(#hillNear)" opacity="1"/>
<rect x="0" y="214.8" width="1200" height="85.2" fill="url(#waterGrad)" opacity="0.6"/>
<path d="M0 236.1 Q60.0 238.4 120.0 236.1 Q180.0 235.8 240.0 237.3 Q300.0 237.0 360.0 236.9 Q420.0 235.3 480.0 237.3 Q540.0 237.8 600.0 235.1 Q660.0 235.2 720.0 234.6 Q780.0 234.9 840.0 235.9 Q900.0 235.8 960.0 235.0 Q1020.0 236.7 1080.0 237.0 Q1140.0 235.2 1200.0 235.6" fill="none" stroke="#bfdbfe" stroke-width="1" opacity="0.5"/>
<path d="M0 257.4 Q60.0 256.1 120.0 258.6 Q180.0 255.0 240.0 256.5 Q300.0 257.9 360.0 257.0 Q420.0 258.5 480.0 255.9 Q540.0 256.5 600.0 256.3 Q660.0 258.5 720.0 256.5 Q780.0 259.5 840.0 258.7 Q900.0 258.1 960.0 257.6 Q1020.0 259.8 1080.0 258.5 Q1140.0 258.6 1200.0 256.7" fill="none" stroke="#bfdbfe" stroke-width="1" opacity="0.5"/>
<path d="M0 278.7 Q60.0 278.1 120.0 278.1 Q180.0 280.5 240.0 279.1 Q300.0 280.3 360.0 278.2 Q420.0 276.2 480.0 278.8 Q540.0 278.5 600.0 279.2 Q660.0 276.8 720.0 277.9 Q780.0 276.6 840.0 278.8 Q900.0 277.2 960.0 279.6 Q1020.0 277.6 1080.0 278.5 Q1140.0 276.8 1200.0 279.0" fill="none" stroke="#bfdbfe" stroke-width="1" opacity="0.5"/>
<rect x="287.9" y="237.0" width="58.7" height="63.0" rx="3" fill="url(#bldg_mint)" opacity="0.7"/>
<rect x="287.9" y="234.0" width="58.7" height="3" rx="1" fill="url(#roof_navyRoof)" opacity="0.7"/>
<rect x="300.2" y="247.0" width="6" height="8" rx="1" fill="url(#windowGlow)" opacity="0.8566783718097388"/>
<rect x="314.2" y="247.0" width="6" height="8" rx="1" fill="url(#windowGlow)" opacity="0.8245177930335131"/>
<rect x="908.1" y="214.3" width="56.0" height="85.7" rx="3" fill="url(#bldg_rose)" opacity="0.7"/>
<rect x="919.3" y="204.0" width="33.6" height="10.3" rx="2" fill="url(#roof_coralRoof)" opacity="0.7"/>
<rect x="926.2" y="224.3" width="6" height="8" rx="1" fill="url(#windowGlow)" opacity="0.785083035745231"/>
<rect x="940.2" y="224.3" width="6" height="8" rx="1" fill="url(#windowGlow)" opacity="0.9874795321316828"/>
<rect x="926.2" y="239.3" width="6" height="8" rx="1" fill="url(#windowGlow)" opacity="0.8410669075516364"/>
<rect x="940.2" y="239.3" width="6" height="8" rx="1" fill="url(#windowGlow)" opacity="0.9017028146896989"/>
<rect x="926.2" y="254.3" width="6" height="8" rx="1" fill="url(#windowGlow)" opacity="0.9468854450373376"/>
<rect x="940.2" y="254.3" width="6" height="8" rx="1" fill="url(#windowGlow)" opacity="0.7143426253061474"/>
<rect x="224.4" y="234.9" width="42.5" height="65.1" rx="3" fill="url(#bldg_sky)" opacity="0.85"/>
<polygon points="224.4,234.9 245.7,222.7 266.9,234.9" fill="url(#roof_tealRoof)" opacity="0.85"/>
<rect x="242.7" y="244.9" width="6" height="8" rx="1" fill="url(#windowGlow)" opacity="0.903083509720435"/>
<rect x="242.7" y="259.9" width="6" height="8" rx="1" fill="url(#windowGlow)" opacity="0.7024538162641477"/>
<rect x="542.4" y="234.1" width="65.3" height="65.9" rx="3" fill="url(#bldg_coral)" opacity="0.85"/>
<polygon points="542.4,234.1 575.1,215.5 607.7,234.1" fill="url(#roof_navyRoof)" opacity="0.85"/>
<rect x="558.1" y="244.1" width="6" height="8" rx="1" fill="url(#windowGlow)" opacity="0.7089159796055946"/>
<rect x="586.1" y="244.1" width="6" height="8" rx="1" fill="url(#windowGlow)" opacity="0.9671426878157736"/>
<rect x="558.1" y="259.1" width="6" height="8" rx="1" fill="url(#windowGlow)" opacity="0.8039764738660196"/>
<rect x="572.1" y="259.1" width="6" height="8" rx="1" fill="url(#windowGlow)" opacity="0.7992035022001729"/>
<rect x="586.1" y="259.1" width="6" height="8" rx="1" fill="url(#windowGlow)" opacity="0.7362321224698014"/>
<rect x="979.9" y="235.6" width="61.1" height="64.4" rx="3" fill="url(#bldg_teal)" opacity="0.85"/>
<polygon points="979.9,235.6 1010.4,215.8 1041.0,235.6" fill="url(#roof_coralRoof)" opacity="0.85"/>
<rect x="993.4" y="245.6" width="6" height="8" rx="1" fill="url(#windowGlow)" opacity="0.8431224375698354"/>
<rect x="1007.4" y="245.6" width="6" height="8" rx="1" fill="url(#windowGlow)" opacity="0.8241383614596623"/>
<rect x="1021.4" y="245.6" width="6" height="8" rx="1" fill="url(#windowGlow)" opacity="0.8976445524011014"/>
<rect x="993.4" y="260.6" width="6" height="8" rx="1" fill="url(#windowGlow)" opacity="0.9050400779606029"/>
<rect x="1007.4" y="260.6" width="6" height="8" rx="1" fill="url(#windowGlow)" opacity="0.8142334337878196"/>
<rect x="217.4" y="215.6" width="57.9" height="84.4" rx="3" fill="url(#bldg_amber)" opacity="1"/>
<rect x="229.0" y="205.4" width="34.7" height="10.1" rx="2" fill="url(#roof_tealRoof)" opacity="1"/>
<rect x="236.3" y="225.6" width="6" height="8" rx="1" fill="url(#windowGlow)" opacity="0.7404371548166672"/>
<rect x="250.3" y="225.6" width="6" height="8" rx="1" fill="url(#windowGlow)" opacity="0.7327728937066965"/>
<rect x="250.3" y="240.6" width="6" height="8" rx="1" fill="url(#windowGlow)" opacity="0.862933235877628"/>
<rect x="236.3" y="255.6" width="6" height="8" rx="1" fill="url(#windowGlow)" opacity="0.7731258173813698"/>
<rect x="250.3" y="255.6" width="6" height="8" rx="1" fill="url(#windowGlow)" opacity="0.8590186753119429"/>
<rect x="241.3" y="284.0" width="10" height="16" rx="2" fill="url(#roof_navyRoof)" opacity="0.8"/>
<rect x="243.3" y="287.0" width="6" height="10" rx="1" fill="url(#windowGlow)" opacity="0.45"/>
<rect x="534.0" y="241.0" width="66.6" height="59.0" rx="3" fill="url(#bldg_lavender)" opacity="1"/>
<polygon points="534.0,241.0 567.3,226.2 600.6,241.0" fill="url(#roof_navyRoof)" opacity="1"/>
<rect x="550.3" y="251.0" width="6" height="8" rx="1" fill="url(#windowGlow)" opacity="0.7537956522096859"/>
<rect x="578.3" y="251.0" width="6" height="8" rx="1" fill="url(#windowGlow)" opacity="0.7084742995484147"/>
<rect x="562.3" y="284.0" width="10" height="16" rx="2" fill="url(#roof_navyRoof)" opacity="0.8"/>
<rect x="564.3" y="287.0" width="6" height="10" rx="1" fill="url(#windowGlow)" opacity="0.45"/>
<rect x="944.4" y="143.1" width="66.0" height="156.9" rx="3" fill="url(#bldg_blue)" opacity="1"/>
<polygon points="944.4,143.1 977.4,125.7 1010.3,143.1" fill="url(#roof_coralRoof)" opacity="1"/>
<rect x="960.4" y="153.1" width="6" height="8" rx="1" fill="url(#windowGlow)" opacity="0.9200638644956349"/>
<rect x="974.4" y="153.1" width="6" height="8" rx="1" fill="url(#windowGlow)" opacity="0.9999433919787143"/>
<rect x="988.4" y="153.1" width="6" height="8" rx="1" fill="url(#windowGlow)" opacity="0.7425752637640457"/>
<rect x="960.4" y="168.1" width="6" height="8" rx="1" fill="url(#windowGlow)" opacity="0.7042731795945545"/>
<rect x="974.4" y="168.1" width="6" height="8" rx="1" fill="url(#windowGlow)" opacity="0.9804275964295619"/>
<rect x="988.4" y="168.1" width="6" height="8" rx="1" fill="url(#windowGlow)" opacity="0.9311919923551343"/>
<rect x="960.4" y="183.1" width="6" height="8" rx="1" fill="url(#windowGlow)" opacity="0.9853521148605979"/>
<rect x="974.4" y="183.1" width="6" height="8" rx="1" fill="url(#windowGlow)" opacity="0.8227444217646235"/>
<rect x="988.4" y="183.1" width="6" height="8" rx="1" fill="url(#windowGlow)" opacity="0.8221133664353346"/>
<rect x="960.4" y="198.1" width="6" height="8" rx="1" fill="url(#windowGlow)" opacity="0.8837581104988969"/>
<rect x="988.4" y="198.1" width="6" height="8" rx="1" fill="url(#windowGlow)" opacity="0.9910406089811774"/>
<rect x="974.4" y="213.1" width="6" height="8" rx="1" fill="url(#windowGlow)" opacity="0.8372701462531789"/>
<rect x="988.4" y="213.1" width="6" height="8" rx="1" fill="url(#windowGlow)" opacity="0.9233960646779258"/>
<rect x="960.4" y="228.1" width="6" height="8" rx="1" fill="url(#windowGlow)" opacity="0.9413548948901495"/>
<rect x="974.4" y="228.1" width="6" height="8" rx="1" fill="url(#windowGlow)" opacity="0.8260181137481788"/>
<rect x="988.4" y="228.1" width="6" height="8" rx="1" fill="url(#windowGlow)" opacity="0.8418139971987408"/>
<rect x="960.4" y="243.1" width="6" height="8" rx="1" fill="url(#windowGlow)" opacity="0.8949983566510483"/>
<rect x="974.4" y="243.1" width="6" height="8" rx="1" fill="url(#windowGlow)" opacity="0.9077996654937973"/>
<rect x="988.4" y="243.1" width="6" height="8" rx="1" fill="url(#windowGlow)" opacity="0.7149610359757026"/>
<rect x="960.4" y="258.1" width="6" height="8" rx="1" fill="url(#windowGlow)" opacity="0.8359749455172452"/>
<rect x="988.4" y="258.1" width="6" height="8" rx="1" fill="url(#windowGlow)" opacity="0.8237233452143722"/>
<rect x="972.4" y="284.0" width="10" height="16" rx="2" fill="url(#roof_navyRoof)" opacity="0.8"/>
<rect x="974.4" y="287.0" width="6" height="10" rx="1" fill="url(#windowGlow)" opacity="0.45"/>
<rect x="965.8" y="169.1" width="23.1" height="5" rx="1" fill="#15803d" opacity="0.7"/>
<circle cx="968.8" cy="168.1" r="2.5" fill="#f87171" opacity="0.85"/>
<circle cx="976.5" cy="168.1" r="2.5" fill="#a78bfa" opacity="0.85"/>
<circle cx="984.2" cy="168.1" r="2.5" fill="#a78bfa" opacity="0.85"/>
<path d="M404.6 285.0 Q430.1 258.8 419.9 232.6" stroke="#92400e" stroke-width="4" fill="none" stroke-linecap="round"/>
<path d="M419.9 232.6 Q405.9 220.8 396.5 219.8" stroke="#16a34a" stroke-width="2.5" fill="none" stroke-linecap="round"/>
<path d="M419.9 232.6 Q425.4 221.1 429.1 220.4" stroke="#22c55e" stroke-width="2.5" fill="none" stroke-linecap="round"/>
<path d="M419.9 232.6 Q434.2 226.6 443.7 232.6" stroke="#15803d" stroke-width="2.5" fill="none" stroke-linecap="round"/>
<path d="M419.9 232.6 Q424.5 231.3 427.6 242.9" stroke="#4ade80" stroke-width="2.5" fill="none" stroke-linecap="round"/>
<path d="M419.9 232.6 Q406.5 232.2 397.6 244.9" stroke="#16a34a" stroke-width="2.5" fill="none" stroke-linecap="round"/>
<path d="M772.5 285.0 Q787.2 257.3 781.3 229.6" stroke="#92400e" stroke-width="4" fill="none" stroke-linecap="round"/>
<path d="M781.3 229.6 Q771.9 219.6 765.6 220.9" stroke="#16a34a" stroke-width="2.5" fill="none" stroke-linecap="round"/>
<path d="M781.3 229.6 Q786.3 218.6 789.6 218.6" stroke="#22c55e" stroke-width="2.5" fill="none" stroke-linecap="round"/>
<path d="M781.3 229.6 Q794.9 223.6 804.0 229.6" stroke="#15803d" stroke-width="2.5" fill="none" stroke-linecap="round"/>
<path d="M781.3 229.6 Q788.3 230.7 793.0 245.1" stroke="#4ade80" stroke-width="2.5" fill="none" stroke-linecap="round"/>
<path d="M781.3 229.6 Q768.9 228.7 760.6 240.9" stroke="#16a34a" stroke-width="2.5" fill="none" stroke-linecap="round"/>
<path d="M185.6 285.0 Q205.8 258.6 197.7 232.2" stroke="#92400e" stroke-width="4" fill="none" stroke-linecap="round"/>
<path d="M197.7 232.2 Q189.1 222.6 183.4 224.3" stroke="#16a34a" stroke-width="2.5" fill="none" stroke-linecap="round"/>
<path d="M197.7 232.2 Q204.9 219.0 209.6 216.4" stroke="#22c55e" stroke-width="2.5" fill="none" stroke-linecap="round"/>
<path d="M197.7 232.2 Q211.9 226.2 221.4 232.2" stroke="#15803d" stroke-width="2.5" fill="none" stroke-linecap="round"/>
<path d="M197.7 232.2 Q204.6 233.1 209.2 247.4" stroke="#4ade80" stroke-width="2.5" fill="none" stroke-linecap="round"/>
<path d="M197.7 232.2 Q186.3 230.9 178.7 242.6" stroke="#16a34a" stroke-width="2.5" fill="none" stroke-linecap="round"/>
<path d="M1049.4 285.0 Q1077.7 262.8 1066.4 240.6" stroke="#92400e" stroke-width="4" fill="none" stroke-linecap="round"/>
<path d="M1066.4 240.6 Q1057.5 230.9 1051.7 232.5" stroke="#16a34a" stroke-width="2.5" fill="none" stroke-linecap="round"/>
<path d="M1066.4 240.6 Q1072.7 228.2 1077.0 226.5" stroke="#22c55e" stroke-width="2.5" fill="none" stroke-linecap="round"/>
<path d="M1066.4 240.6 Q1082.7 234.6 1093.6 240.6" stroke="#15803d" stroke-width="2.5" fill="none" stroke-linecap="round"/>
<path d="M1066.4 240.6 Q1071.3 239.5 1074.5 251.4" stroke="#4ade80" stroke-width="2.5" fill="none" stroke-linecap="round"/>
<path d="M1066.4 240.6 Q1052.5 240.4 1043.2 253.3" stroke="#16a34a" stroke-width="2.5" fill="none" stroke-linecap="round"/>
<path d="M498.4 285.0 Q523.7 255.4 513.5 225.9" stroke="#92400e" stroke-width="4" fill="none" stroke-linecap="round"/>
<path d="M513.5 225.9 Q500.1 214.3 491.1 213.6" stroke="#16a34a" stroke-width="2.5" fill="none" stroke-linecap="round"/>
<path d="M513.5 225.9 Q519.7 213.7 523.8 212.2" stroke="#22c55e" stroke-width="2.5" fill="none" stroke-linecap="round"/>
<path d="M513.5 225.9 Q531.2 219.9 543.0 225.9" stroke="#15803d" stroke-width="2.5" fill="none" stroke-linecap="round"/>
<path d="M513.5 225.9 Q520.6 227.0 525.3 241.5" stroke="#4ade80" stroke-width="2.5" fill="none" stroke-linecap="round"/>
<path d="M513.5 225.9 Q503.4 224.1 496.6 235.2" stroke="#16a34a" stroke-width="2.5" fill="none" stroke-linecap="round"/>
<path d="M48.6 285.0 Q64.2 255.7 58.0 226.4" stroke="#92400e" stroke-width="4" fill="none" stroke-linecap="round"/>
<path d="M58.0 226.4 Q49.2 216.8 43.4 218.4" stroke="#16a34a" stroke-width="2.5" fill="none" stroke-linecap="round"/>
<path d="M58.0 226.4 Q64.7 213.7 69.1 211.6" stroke="#22c55e" stroke-width="2.5" fill="none" stroke-linecap="round"/>
<path d="M58.0 226.4 Q70.6 220.4 79.0 226.4" stroke="#15803d" stroke-width="2.5" fill="none" stroke-linecap="round"/>
<path d="M58.0 226.4 Q63.1 225.6 66.5 237.8" stroke="#4ade80" stroke-width="2.5" fill="none" stroke-linecap="round"/>
<path d="M58.0 226.4 Q44.4 226.1 35.4 238.8" stroke="#16a34a" stroke-width="2.5" fill="none" stroke-linecap="round"/>
<path d="M1080.1 285.0 Q1096.0 254.9 1089.7 224.7" stroke="#92400e" stroke-width="4" fill="none" stroke-linecap="round"/>
<path d="M1089.7 224.7 Q1080.8 215.0 1074.8 216.5" stroke="#16a34a" stroke-width="2.5" fill="none" stroke-linecap="round"/>
<path d="M1089.7 224.7 Q1096.9 211.5 1101.6 208.8" stroke="#22c55e" stroke-width="2.5" fill="none" stroke-linecap="round"/>
<path d="M1089.7 224.7 Q1103.8 218.7 1113.2 224.7" stroke="#15803d" stroke-width="2.5" fill="none" stroke-linecap="round"/>
<path d="M1089.7 224.7 Q1096.9 226.0 1101.8 240.7" stroke="#4ade80" stroke-width="2.5" fill="none" stroke-linecap="round"/>
<path d="M1089.7 224.7 Q1079.8 222.8 1073.2 233.8" stroke="#16a34a" stroke-width="2.5" fill="none" stroke-linecap="round"/>
<rect x="0" y="282" width="1200" height="18" fill="url(#groundGrad)"/>
<line x1="549.5" y1="282.0" x2="549.5" y2="251.4" stroke="#92400e" stroke-width="2"/>
<circle cx="549.5" cy="251.4" r="4" fill="#fef08a" opacity="0.6"/>
<circle cx="549.5" cy="251.4" r="8" fill="#fef08a" opacity="0.15" filter="url(#softGlow)"/>
<line x1="124.7" y1="282.0" x2="124.7" y2="242.0" stroke="#92400e" stroke-width="2"/>
<circle cx="124.7" cy="242.0" r="4" fill="#fef08a" opacity="0.6"/>
<circle cx="124.7" cy="242.0" r="8" fill="#fef08a" opacity="0.15" filter="url(#softGlow)"/>
<ellipse cx="595.0" cy="282.0" rx="4.3" ry="3.0" fill="#22c55e" opacity="0.6"/>
<ellipse cx="501.6" cy="282.0" rx="4.5" ry="3.2" fill="#22c55e" opacity="0.6"/>
</svg>