<svg xmlns="http://www.w3.org/2000/svg" viewBox="0 0 1200 300" width="1200" height="300">
<defs>
<linearGradient id="skyGrad" x1="0" y1="0" x2="0" y2="1">
<stop offset="0%" stop-color="#818cf8"/>
<stop offset="22%" stop-color="#a5b4fc"/>
<stop offset="42%" stop-color="#c4b5fd"/>
<stop offset="60%" stop-color="#e0c3fc"/>
<stop offset="80%" stop-color="#fde68a"/>
<stop offset="100%" stop-color="#fef9c3"/>
</linearGradient>
<linearGradient id="bldg_coral" x1="0" y1="0" x2="0" y2="1"><stop offset="0%" stop-color="#fecaca"/><stop offset="100%" stop-color="#fca5a5"/></linearGradient>
<linearGradient id="bldg_teal" x1="0" y1="0" x2="0" y2="1"><stop offset="0%" stop-color="#99f6e4"/><stop offset="100%" stop-color="#5eead4"/></linearGradient>
<linearGradient id="bldg_amber" x1="0" y1="0" x2="0" y2="1"><stop offset="0%" stop-color="#fde68a"/><stop offset="100%" stop-color="#fcd34d"/></linearGradient>
<linearGradient id="bldg_lavender" x1="0" y1="0" x2="0" y2="1"><stop offset="0%" stop-color="#ddd6fe"/><stop offset="100%" stop-color="#c4b5fd"/></linearGradient>
<linearGradient id="bldg_blue" x1="0" y1="0" x2="0" y2="1"><stop offset="0%" stop-color="#bfdbfe"/><stop offset="100%" stop-color="#93c5fd"/></linearGradient>
<linearGradient id="bldg_mint" x1="0" y1="0" x2="0" y2="1"><stop offset="0%" stop-color="#a7f3d0"/><stop offset="100%" stop-color="#6ee7b7"/></linearGradient>
<linearGradient id="bldg_rose" x1="0" y1="0" x2="0" y2="1"><stop offset="0%" stop-color="#fecdd3"/><stop offset="100%" stop-color="#fda4af"/></linearGradient>
<linearGradient id="bldg_sky" x1="0" y1="0" x2="0" y2="1"><stop offset="0%" stop-color="#bae6fd"/><stop offset="100%" stop-color="#7dd3fc"/></linearGradient>
<linearGradient id="roof_navyRoof" x1="0" y1="0" x2="0" y2="1"><stop offset="0%" stop-color="#4338ca"/><stop offset="100%" stop-color="#3730a3"/></linearGradient>
<linearGradient id="roof_coralRoof" x1="0" y1="0" x2="0" y2="1"><stop offset="0%" stop-color="#f87171"/><stop offset="100%" stop-color="#ef4444"/></linearGradient>
<linearGradient id="roof_tealRoof" x1="0" y1="0" x2="0" y2="1"><stop offset="0%" stop-color="#2dd4bf"/><stop offset="100%" stop-color="#14b8a6"/></linearGradient>
<radialGradient id="windowGlow" cx="50%" cy="50%" r="50%"><stop offset="0%" stop-color="#fef08a"/><stop offset="60%" stop-color="#fbbf24"/><stop offset="100%" stop-color="#f59e0b"/></radialGradient>
<linearGradient id="hillFar" x1="0" y1="0" x2="0" y2="1"><stop offset="0%" stop-color="#c4b5fd"/><stop offset="100%" stop-color="#a5b4fc"/></linearGradient>
<linearGradient id="hillMid" x1="0" y1="0" x2="0" y2="1"><stop offset="0%" stop-color="#86efac"/><stop offset="100%" stop-color="#4ade80"/></linearGradient>
<linearGradient id="hillNear" x1="0" y1="0" x2="0" y2="1"><stop offset="0%" stop-color="#34d399"/><stop offset="100%" stop-color="#10b981"/></linearGradient>
<linearGradient id="hillDesertFar" x1="0" y1="0" x2="0" y2="1"><stop offset="0%" stop-color="#fde68a"/><stop offset="100%" stop-color="#fcd34d"/></linearGradient>
<linearGradient id="hillDesertMid" x1="0" y1="0" x2="0" y2="1"><stop offset="0%" stop-color="#fcd34d"/><stop offset="100%" stop-color="#fbbf24"/></linearGradient>
<linearGradient id="hillDesertNear" x1="0" y1="0" x2="0" y2="1"><stop offset="0%" stop-color="#fbbf24"/><stop offset="100%" stop-color="#f59e0b"/></linearGradient>
<linearGradient id="groundGrad" x1="0" y1="0" x2="0" y2="1"><stop offset="0%" stop-color="#fef3c7"/><stop offset="100%" stop-color="#fde68a"/></linearGradient>
<linearGradient id="waterGrad" x1="0" y1="0" x2="0" y2="1"><stop offset="0%" stop-color="#bfdbfe"/><stop offset="100%" stop-color="#93c5fd"/></linearGradient>
<filter id="softGlow" x="-50%" y="-50%" width="200%" height="200%"><feGaussianBlur in="SourceGraphic" stdDeviation="12"/></filter>
</defs>
<rect width="1200" height="300" fill="url(#skyGrad)"/>
<circle cx="917.5" cy="45.3" r="45" fill="#fef08a" opacity="0.12" filter="url(#softGlow)"/>
<circle cx="917.5" cy="45.3" r="30" fill="#fde68a" opacity="0.18" filter="url(#softGlow)"/>
<circle cx="917.5" cy="45.3" r="16" fill="#fef9c3" opacity="0.25" filter="url(#softGlow)"/>
<ellipse cx="576.9" cy="37.6" rx="47.7" ry="16.7" fill="white" opacity="0.4"/>
<ellipse cx="547.0" cy="42.4" rx="33.4" ry="13.1" fill="white" opacity="0.4"/>
<ellipse cx="603.1" cy="41.2" rx="38.2" ry="14.3" fill="white" opacity="0.4"/>
<ellipse cx="782.3" cy="51.3" rx="39.5" ry="13.8" fill="white" opacity="0.5"/>
<ellipse cx="757.6" cy="55.3" rx="27.7" ry="10.9" fill="white" opacity="0.5"/>
<ellipse cx="804.1" cy="54.3" rx="31.6" ry="11.9" fill="white" opacity="0.4"/>
<ellipse cx="338.3" cy="45.9" rx="38.0" ry="13.3" fill="white" opacity="0.7"/>
<ellipse cx="314.5" cy="49.7" rx="26.6" ry="10.5" fill="white" opacity="0.6"/>
<ellipse cx="359.2" cy="48.8" rx="30.4" ry="11.4" fill="white" opacity="0.6"/>
<path d="M0 300 L0.0 126.2 C126.0 126.2, 126.0 98.0, 252.0 98.0 C408.5 98.0, 408.5 98.3, 564.9 98.3 C745.8 98.3, 745.8 122.0, 926.6 122.0 C1063.3 122.0, 1063.3 172.8, 1200.0 172.8 L1200 300 Z" fill="url(#hillFar)" opacity="0.5"/>
<path d="M0 300 L0.0 183.5 C238.1 183.5, 238.1 183.1, 476.2 183.1 C614.0 183.1, 614.0 187.4, 751.8 187.4 C975.9 187.4, 975.9 218.7, 1200.0 218.7 L1200 300 Z" fill="url(#hillMid)" opacity="0.7"/>
<path d="M0 300 L0.0 215.9 C185.2 215.9, 185.2 219.6, 370.5 219.6 C479.3 219.6, 479.3 227.8, 588.1 227.8 C778.4 227.8, 778.4 211.1, 968.7 211.1 C1084.4 211.1, 1084.4 228.6, 1200.0 228.6 L1200 300 Z" fill="url(#hillNear)" opacity="1"/>
<rect x="249.7" y="196.9" width="41.0" height="103.1" rx="3" fill="url(#bldg_mint)" opacity="0.7"/>
<polygon points="249.7,196.9 270.2,187.0 290.7,196.9" fill="url(#roof_coralRoof)" opacity="0.7"/>
<rect x="267.2" y="206.9" width="6" height="8" rx="1" fill="url(#windowGlow)" opacity="0.7631768884897124"/>
<rect x="267.2" y="236.9" width="6" height="8" rx="1" fill="url(#windowGlow)" opacity="0.9425406116259007"/>
<rect x="267.2" y="251.9" width="6" height="8" rx="1" fill="url(#windowGlow)" opacity="0.8447631878521121"/>
<rect x="583.5" y="223.8" width="70.3" height="76.2" rx="3" fill="url(#bldg_rose)" opacity="0.7"/>
<rect x="583.5" y="220.8" width="70.3" height="3" rx="1" fill="url(#roof_tealRoof)" opacity="0.7"/>
<rect x="601.6" y="233.8" width="6" height="8" rx="1" fill="url(#windowGlow)" opacity="0.9799335136916179"/>
<rect x="615.6" y="233.8" width="6" height="8" rx="1" fill="url(#windowGlow)" opacity="0.964815136680759"/>
<rect x="601.6" y="248.8" width="6" height="8" rx="1" fill="url(#windowGlow)" opacity="0.7519597360174914"/>
<rect x="615.6" y="248.8" width="6" height="8" rx="1" fill="url(#windowGlow)" opacity="0.8899263140698551"/>
<rect x="629.6" y="248.8" width="6" height="8" rx="1" fill="url(#windowGlow)" opacity="0.7766169107875865"/>
<rect x="980.2" y="225.5" width="72.7" height="74.5" rx="3" fill="url(#bldg_sky)" opacity="0.7"/>
<polygon points="980.2,225.5 1016.5,204.2 1052.9,225.5" fill="url(#roof_navyRoof)" opacity="0.7"/>
<rect x="1006.5" y="235.5" width="6" height="8" rx="1" fill="url(#windowGlow)" opacity="0.7500556871062404"/>
<rect x="1020.5" y="235.5" width="6" height="8" rx="1" fill="url(#windowGlow)" opacity="0.7176100409206049"/>
<rect x="1034.5" y="235.5" width="6" height="8" rx="1" fill="url(#windowGlow)" opacity="0.8104235580239554"/>
<rect x="992.5" y="250.5" width="6" height="8" rx="1" fill="url(#windowGlow)" opacity="0.8715511945409473"/>
<rect x="1006.5" y="250.5" width="6" height="8" rx="1" fill="url(#windowGlow)" opacity="0.8857339170229312"/>
<rect x="1020.5" y="250.5" width="6" height="8" rx="1" fill="url(#windowGlow)" opacity="0.7965644585884011"/>
<rect x="1034.5" y="250.5" width="6" height="8" rx="1" fill="url(#windowGlow)" opacity="0.8953907462281132"/>
<rect x="172.1" y="183.9" width="54.2" height="116.1" rx="3" fill="url(#bldg_coral)" opacity="0.85"/>
<rect x="172.1" y="180.9" width="54.2" height="3" rx="1" fill="url(#roof_coralRoof)" opacity="0.85"/>
<rect x="189.2" y="193.9" width="6" height="8" rx="1" fill="url(#windowGlow)" opacity="0.8049433139641505"/>
<rect x="203.2" y="193.9" width="6" height="8" rx="1" fill="url(#windowGlow)" opacity="0.9108391390232551"/>
<rect x="189.2" y="208.9" width="6" height="8" rx="1" fill="url(#windowGlow)" opacity="0.7206358368604611"/>
<rect x="203.2" y="208.9" width="6" height="8" rx="1" fill="url(#windowGlow)" opacity="0.7415545998334673"/>
<rect x="189.2" y="223.9" width="6" height="8" rx="1" fill="url(#windowGlow)" opacity="0.9581187421726616"/>
<rect x="203.2" y="223.9" width="6" height="8" rx="1" fill="url(#windowGlow)" opacity="0.763490293577076"/>
<rect x="203.2" y="238.9" width="6" height="8" rx="1" fill="url(#windowGlow)" opacity="0.7092643433759288"/>
<rect x="189.2" y="253.9" width="6" height="8" rx="1" fill="url(#windowGlow)" opacity="0.9814388336527342"/>
<rect x="203.2" y="253.9" width="6" height="8" rx="1" fill="url(#windowGlow)" opacity="0.917724761421664"/>
<rect x="415.3" y="161.6" width="47.1" height="138.4" rx="3" fill="url(#bldg_teal)" opacity="0.85"/>
<polygon points="415.3,161.6 438.9,148.6 462.4,161.6" fill="url(#roof_tealRoof)" opacity="0.85"/>
<rect x="428.9" y="171.6" width="6" height="8" rx="1" fill="url(#windowGlow)" opacity="0.9147149137289798"/>
<rect x="442.9" y="171.6" width="6" height="8" rx="1" fill="url(#windowGlow)" opacity="0.7286883697978632"/>
<rect x="428.9" y="186.6" width="6" height="8" rx="1" fill="url(#windowGlow)" opacity="0.7210203502425087"/>
<rect x="442.9" y="201.6" width="6" height="8" rx="1" fill="url(#windowGlow)" opacity="0.8647673236973431"/>
<rect x="428.9" y="216.6" width="6" height="8" rx="1" fill="url(#windowGlow)" opacity="0.9236635936534328"/>
<rect x="442.9" y="216.6" width="6" height="8" rx="1" fill="url(#windowGlow)" opacity="0.9253735871172386"/>
<rect x="442.9" y="231.6" width="6" height="8" rx="1" fill="url(#windowGlow)" opacity="0.9668534098970021"/>
<rect x="428.9" y="246.6" width="6" height="8" rx="1" fill="url(#windowGlow)" opacity="0.990550122219394"/>
<rect x="442.9" y="246.6" width="6" height="8" rx="1" fill="url(#windowGlow)" opacity="0.8151554379682779"/>
<path d="M438.9 210.0 L457.7 210.0 L454.7 216.0 L441.9 216.0 Z" fill="url(#roof_coralRoof)" opacity="0.68"/>
<rect x="699.0" y="181.8" width="37.8" height="118.2" rx="3" fill="url(#bldg_amber)" opacity="0.85"/>
<polygon points="699.0,181.8 717.9,169.1 736.8,181.8" fill="url(#roof_navyRoof)" opacity="0.85"/>
<rect x="714.9" y="191.8" width="6" height="8" rx="1" fill="url(#windowGlow)" opacity="0.9312116490356678"/>
<rect x="714.9" y="221.8" width="6" height="8" rx="1" fill="url(#windowGlow)" opacity="0.9293585741097845"/>
<rect x="714.9" y="236.8" width="6" height="8" rx="1" fill="url(#windowGlow)" opacity="0.9807021949816039"/>
<rect x="714.9" y="251.8" width="6" height="8" rx="1" fill="url(#windowGlow)" opacity="0.7080545937679962"/>
<path d="M702.8 223.1 L717.9 223.1 L714.9 229.1 L705.8 229.1 Z" fill="url(#roof_tealRoof)" opacity="0.68"/>
<rect x="1025.8" y="228.3" width="47.8" height="71.7" rx="3" fill="url(#bldg_lavender)" opacity="0.85"/>
<rect x="1025.8" y="225.3" width="47.8" height="3" rx="1" fill="url(#roof_coralRoof)" opacity="0.85"/>
<rect x="1039.7" y="238.3" width="6" height="8" rx="1" fill="url(#windowGlow)" opacity="0.741548712803772"/>
<rect x="1053.7" y="253.3" width="6" height="8" rx="1" fill="url(#windowGlow)" opacity="0.8194848069080546"/>
<path d="M1049.7 253.4 L1068.9 253.4 L1065.9 259.4 L1052.7 259.4 Z" fill="url(#roof_navyRoof)" opacity="0.68"/>
<rect x="220.1" y="196.0" width="39.1" height="104.0" rx="3" fill="url(#bldg_blue)" opacity="1"/>
<polygon points="220.1,196.0 239.7,184.0 259.3,196.0" fill="url(#roof_tealRoof)" opacity="1"/>
<rect x="236.7" y="206.0" width="6" height="8" rx="1" fill="url(#windowGlow)" opacity="0.8538284523663243"/>
<rect x="236.7" y="221.0" width="6" height="8" rx="1" fill="url(#windowGlow)" opacity="0.9481900354606052"/>
<rect x="236.7" y="236.0" width="6" height="8" rx="1" fill="url(#windowGlow)" opacity="0.8204441506510806"/>
<rect x="236.7" y="251.0" width="6" height="8" rx="1" fill="url(#windowGlow)" opacity="0.7834076980982942"/>
<rect x="234.7" y="284.0" width="10" height="16" rx="2" fill="url(#roof_navyRoof)" opacity="0.8"/>
<rect x="236.7" y="287.0" width="6" height="10" rx="1" fill="url(#windowGlow)" opacity="0.45"/>
<rect x="232.8" y="222.0" width="13.7" height="5" rx="1" fill="#15803d" opacity="0.7"/>
<circle cx="235.8" cy="221.0" r="2.5" fill="#fbbf24" opacity="0.85"/>
<circle cx="240.4" cy="221.0" r="2.5" fill="#fb923c" opacity="0.85"/>
<circle cx="245.0" cy="221.0" r="2.5" fill="#a78bfa" opacity="0.85"/>
<rect x="597.9" y="152.4" width="38.0" height="147.6" rx="3" fill="url(#bldg_mint)" opacity="1"/>
<polygon points="597.9,152.4 616.9,140.6 635.9,152.4" fill="url(#roof_navyRoof)" opacity="1"/>
<rect x="613.9" y="162.4" width="6" height="8" rx="1" fill="url(#windowGlow)" opacity="0.7070572083383133"/>
<rect x="613.9" y="177.4" width="6" height="8" rx="1" fill="url(#windowGlow)" opacity="0.7363401931414102"/>
<rect x="613.9" y="207.4" width="6" height="8" rx="1" fill="url(#windowGlow)" opacity="0.8407244507878666"/>
<rect x="613.9" y="222.4" width="6" height="8" rx="1" fill="url(#windowGlow)" opacity="0.7213279171946122"/>
<rect x="613.9" y="237.4" width="6" height="8" rx="1" fill="url(#windowGlow)" opacity="0.973040636197217"/>
<rect x="613.9" y="252.4" width="6" height="8" rx="1" fill="url(#windowGlow)" opacity="0.9139707071771708"/>
<rect x="611.9" y="284.0" width="10" height="16" rx="2" fill="url(#roof_navyRoof)" opacity="0.8"/>
<rect x="613.9" y="287.0" width="6" height="10" rx="1" fill="url(#windowGlow)" opacity="0.45"/>
<rect x="923.9" y="204.5" width="48.1" height="95.5" rx="3" fill="url(#bldg_rose)" opacity="1"/>
<rect x="933.5" y="193.1" width="28.9" height="11.5" rx="2" fill="url(#roof_coralRoof)" opacity="1"/>
<rect x="951.9" y="214.5" width="6" height="8" rx="1" fill="url(#windowGlow)" opacity="0.8598042501880807"/>
<rect x="951.9" y="229.5" width="6" height="8" rx="1" fill="url(#windowGlow)" opacity="0.7170466068745808"/>
<rect x="951.9" y="244.5" width="6" height="8" rx="1" fill="url(#windowGlow)" opacity="0.9772252060832572"/>
<rect x="937.9" y="259.5" width="6" height="8" rx="1" fill="url(#windowGlow)" opacity="0.86926816206857"/>
<rect x="951.9" y="259.5" width="6" height="8" rx="1" fill="url(#windowGlow)" opacity="0.9993786728472349"/>
<rect x="942.9" y="284.0" width="10" height="16" rx="2" fill="url(#roof_navyRoof)" opacity="0.8"/>
<rect x="944.9" y="287.0" width="6" height="10" rx="1" fill="url(#windowGlow)" opacity="0.45"/>
<rect x="425.6" y="275.0" width="6" height="10.0" rx="2" fill="#92400e"/>
<polygon points="428.6,233.9 423.5,252.6 433.7,252.6" fill="#15803d" opacity="0.9"/>
<polygon points="428.6,247.6 421.4,266.3 435.8,266.3" fill="#16a34a" opacity="0.9"/>
<polygon points="428.6,261.3 419.4,280.0 437.8,280.0" fill="#22c55e" opacity="0.9"/>
<rect x="776.9" y="275.0" width="6" height="10.0" rx="2" fill="#92400e"/>
<polygon points="779.9,237.4 774.3,254.9 785.4,254.9" fill="#15803d" opacity="0.9"/>
<polygon points="779.9,249.9 772.1,267.5 787.6,267.5" fill="#16a34a" opacity="0.9"/>
<polygon points="779.9,262.5 769.9,280.0 789.8,280.0" fill="#22c55e" opacity="0.9"/>
<rect x="171.9" y="275.0" width="6" height="10.0" rx="2" fill="#92400e"/>
<polygon points="174.9,231.5 169.0,251.0 180.8,251.0" fill="#15803d" opacity="0.9"/>
<polygon points="174.9,246.0 166.6,265.5 183.1,265.5" fill="#16a34a" opacity="0.9"/>
<polygon points="174.9,260.5 164.3,280.0 185.5,280.0" fill="#22c55e" opacity="0.9"/>
<rect x="1012.7" y="275.0" width="6" height="10.0" rx="2" fill="#92400e"/>
<polygon points="1015.7,242.9 1011.1,258.6 1020.4,258.6" fill="#15803d" opacity="0.9"/>
<polygon points="1015.7,253.6 1009.2,269.3 1022.2,269.3" fill="#16a34a" opacity="0.9"/>
<polygon points="1015.7,264.3 1007.4,280.0 1024.1,280.0" fill="#22c55e" opacity="0.9"/>
<rect x="814.7" y="275.0" width="6" height="10.0" rx="2" fill="#92400e"/>
<polygon points="817.7,232.6 812.0,251.7 823.4,251.7" fill="#15803d" opacity="0.9"/>
<polygon points="817.7,246.7 809.8,265.9 825.6,265.9" fill="#16a34a" opacity="0.9"/>
<polygon points="817.7,260.9 807.5,280.0 827.9,280.0" fill="#22c55e" opacity="0.9"/>
<rect x="896.5" y="275.0" width="6" height="10.0" rx="2" fill="#92400e"/>
<polygon points="899.5,240.2 894.9,256.8 904.1,256.8" fill="#15803d" opacity="0.9"/>
<polygon points="899.5,251.8 893.1,268.4 905.9,268.4" fill="#16a34a" opacity="0.9"/>
<polygon points="899.5,263.4 891.2,280.0 907.8,280.0" fill="#22c55e" opacity="0.9"/>
<rect x="211.7" y="275.0" width="6" height="10.0" rx="2" fill="#92400e"/>
<polygon points="214.7,241.2 209.1,257.5 220.3,257.5" fill="#15803d" opacity="0.9"/>
<polygon points="214.7,252.5 206.9,268.7 222.6,268.7" fill="#16a34a" opacity="0.9"/>
<polygon points="214.7,263.7 204.6,280.0 224.8,280.0" fill="#22c55e" opacity="0.9"/>
<rect x="0" y="282" width="1200" height="18" fill="url(#groundGrad)"/>
<line x1="92.1" y1="282.0" x2="92.1" y2="242.0" stroke="#92400e" stroke-width="2"/>
<circle cx="92.1" cy="242.0" r="4" fill="#fef08a" opacity="0.6"/>
<circle cx="92.1" cy="242.0" r="8" fill="#fef08a" opacity="0.15" filter="url(#softGlow)"/>
<ellipse cx="854.3" cy="282.0" rx="6.8" ry="4.8" fill="#22c55e" opacity="0.6"/>
<ellipse cx="201.1" cy="282.0" rx="6.5" ry="4.5" fill="#22c55e" opacity="0.6"/>
<ellipse cx="860.4" cy="282.0" rx="5.6" ry="3.9" fill="#22c55e" opacity="0.6"/>
</svg>