<svg xmlns="http://www.w3.org/2000/svg" viewBox="0 0 1200 300" width="1200" height="300">
<rect width="1200" height="300" fill="#e6eef4"/>
<path d="M0 300 L0 210.0 C183.8 160.6, 845.3 194.4, 1200 210.0 L1200 300 Z" fill="#b5cad8" opacity="0.3"/>
<rect x="248.9" y="227.7" width="65.6" height="72.3" fill="#99b6c9"/>
<rect x="904.8" y="234.8" width="87.0" height="65.2" fill="#99b6c9"/>
<rect x="232.6" y="193.1" width="70.8" height="106.9" fill="#6a95b1"/>
<rect x="251.0" y="205.1" width="6" height="8" fill="#9ebacc" opacity="0.5"/>
<rect x="265.0" y="205.1" width="6" height="8" fill="#9ebacc" opacity="0.5"/>
<rect x="279.0" y="205.1" width="6" height="8" fill="#9ebacc" opacity="0.5"/>
<rect x="251.0" y="221.1" width="6" height="8" fill="#9ebacc" opacity="0.5"/>
<rect x="265.0" y="221.1" width="6" height="8" fill="#9ebacc" opacity="0.5"/>
<rect x="279.0" y="221.1" width="6" height="8" fill="#9ebacc" opacity="0.5"/>
<rect x="265.0" y="237.1" width="6" height="8" fill="#9ebacc" opacity="0.5"/>
<rect x="279.0" y="237.1" width="6" height="8" fill="#9ebacc" opacity="0.5"/>
<rect x="251.0" y="253.1" width="6" height="8" fill="#9ebacc" opacity="0.5"/>
<rect x="265.0" y="253.1" width="6" height="8" fill="#9ebacc" opacity="0.5"/>
<rect x="251.0" y="269.1" width="6" height="8" fill="#9ebacc" opacity="0.5"/>
<rect x="265.0" y="269.1" width="6" height="8" fill="#9ebacc" opacity="0.5"/>
<rect x="279.0" y="269.1" width="6" height="8" fill="#9ebacc" opacity="0.5"/>
<rect x="513.7" y="196.7" width="69.2" height="103.3" fill="#6a95b1"/>
<rect x="531.3" y="208.7" width="6" height="8" fill="#9ebacc" opacity="0.5"/>
<rect x="531.3" y="224.7" width="6" height="8" fill="#9ebacc" opacity="0.5"/>
<rect x="545.3" y="224.7" width="6" height="8" fill="#9ebacc" opacity="0.5"/>
<rect x="559.3" y="224.7" width="6" height="8" fill="#9ebacc" opacity="0.5"/>
<rect x="531.3" y="240.7" width="6" height="8" fill="#9ebacc" opacity="0.5"/>
<rect x="545.3" y="240.7" width="6" height="8" fill="#9ebacc" opacity="0.5"/>
<rect x="559.3" y="240.7" width="6" height="8" fill="#9ebacc" opacity="0.5"/>
<rect x="531.3" y="256.7" width="6" height="8" fill="#9ebacc" opacity="0.5"/>
<rect x="545.3" y="256.7" width="6" height="8" fill="#9ebacc" opacity="0.5"/>
<rect x="545.3" y="272.7" width="6" height="8" fill="#9ebacc" opacity="0.5"/>
<rect x="559.3" y="272.7" width="6" height="8" fill="#9ebacc" opacity="0.5"/>
<rect x="955.9" y="196.9" width="67.6" height="103.1" fill="#6a95b1"/>
<rect x="972.7" y="208.9" width="6" height="8" fill="#9ebacc" opacity="0.5"/>
<rect x="986.7" y="208.9" width="6" height="8" fill="#9ebacc" opacity="0.5"/>
<rect x="1000.7" y="224.9" width="6" height="8" fill="#9ebacc" opacity="0.5"/>
<rect x="972.7" y="240.9" width="6" height="8" fill="#9ebacc" opacity="0.5"/>
<rect x="1000.7" y="240.9" width="6" height="8" fill="#9ebacc" opacity="0.5"/>
<rect x="972.7" y="256.9" width="6" height="8" fill="#9ebacc" opacity="0.5"/>
<rect x="986.7" y="256.9" width="6" height="8" fill="#9ebacc" opacity="0.5"/>
<rect x="1000.7" y="256.9" width="6" height="8" fill="#9ebacc" opacity="0.5"/>
<rect x="972.7" y="272.9" width="6" height="8" fill="#9ebacc" opacity="0.5"/>
<rect x="986.7" y="272.9" width="6" height="8" fill="#9ebacc" opacity="0.5"/>
<rect x="1000.7" y="272.9" width="6" height="8" fill="#9ebacc" opacity="0.5"/>
<rect x="159.4" y="258.8" width="42.5" height="41.2" fill="#457b9d"/>
<rect x="556.8" y="163.9" width="36.5" height="136.1" fill="#457b9d"/>
<rect x="572.1" y="175.9" width="6" height="8" fill="#86a9bf" opacity="0.5"/>
<rect x="572.1" y="191.9" width="6" height="8" fill="#86a9bf" opacity="0.5"/>
<rect x="572.1" y="207.9" width="6" height="8" fill="#86a9bf" opacity="0.5"/>
<rect x="572.1" y="223.9" width="6" height="8" fill="#86a9bf" opacity="0.5"/>
<rect x="572.1" y="255.9" width="6" height="8" fill="#86a9bf" opacity="0.5"/>
<rect x="572.1" y="271.9" width="6" height="8" fill="#86a9bf" opacity="0.5"/>
<rect x="946.5" y="197.5" width="33.1" height="102.5" fill="#457b9d"/>
<rect x="960.1" y="209.5" width="6" height="8" fill="#86a9bf" opacity="0.5"/>
<rect x="960.1" y="225.5" width="6" height="8" fill="#86a9bf" opacity="0.5"/>
<rect x="960.1" y="241.5" width="6" height="8" fill="#86a9bf" opacity="0.5"/>
<rect x="960.1" y="273.5" width="6" height="8" fill="#86a9bf" opacity="0.5"/>
<rect x="0" y="298" width="1200" height="2" fill="#3e6f8d" opacity="0.15"/>
</svg>