<svg xmlns="http://www.w3.org/2000/svg" viewBox="0 0 1200 300" width="1200" height="300">
<rect width="1200" height="300" fill="#e0eff2"/>
<path d="M0 300 L0 210.0 C387.1 190.0, 802.8 189.9, 1200 210.0 L1200 300 Z" fill="#aac2c9" opacity="0.3"/>
<rect x="116.1" y="172.9" width="58.7" height="127.1" fill="#8aabb4"/>
<rect x="313.7" y="208.3" width="50.6" height="91.7" fill="#8aabb4"/>
<rect x="544.1" y="224.1" width="56.2" height="75.9" fill="#8aabb4"/>
<rect x="776.5" y="204.7" width="75.1" height="95.3" fill="#8aabb4"/>
<rect x="985.4" y="192.0" width="89.7" height="108.0" fill="#8aabb4"/>
<rect x="118.3" y="166.6" width="64.2" height="133.4" fill="#558592"/>
<rect x="133.4" y="178.6" width="6" height="8" fill="#91b0b8" opacity="0.5"/>
<rect x="147.4" y="178.6" width="6" height="8" fill="#91b0b8" opacity="0.5"/>
<rect x="161.4" y="178.6" width="6" height="8" fill="#91b0b8" opacity="0.5"/>
<rect x="133.4" y="194.6" width="6" height="8" fill="#91b0b8" opacity="0.5"/>
<rect x="147.4" y="194.6" width="6" height="8" fill="#91b0b8" opacity="0.5"/>
<rect x="161.4" y="194.6" width="6" height="8" fill="#91b0b8" opacity="0.5"/>
<rect x="133.4" y="210.6" width="6" height="8" fill="#91b0b8" opacity="0.5"/>
<rect x="147.4" y="210.6" width="6" height="8" fill="#91b0b8" opacity="0.5"/>
<rect x="161.4" y="210.6" width="6" height="8" fill="#91b0b8" opacity="0.5"/>
<rect x="133.4" y="226.6" width="6" height="8" fill="#91b0b8" opacity="0.5"/>
<rect x="147.4" y="226.6" width="6" height="8" fill="#91b0b8" opacity="0.5"/>
<rect x="161.4" y="226.6" width="6" height="8" fill="#91b0b8" opacity="0.5"/>
<rect x="133.4" y="258.6" width="6" height="8" fill="#91b0b8" opacity="0.5"/>
<rect x="147.4" y="258.6" width="6" height="8" fill="#91b0b8" opacity="0.5"/>
<rect x="161.4" y="258.6" width="6" height="8" fill="#91b0b8" opacity="0.5"/>
<rect x="344.3" y="116.5" width="53.5" height="183.5" fill="#558592"/>
<rect x="375.0" y="128.5" width="6" height="8" fill="#91b0b8" opacity="0.5"/>
<rect x="361.0" y="144.5" width="6" height="8" fill="#91b0b8" opacity="0.5"/>
<rect x="375.0" y="144.5" width="6" height="8" fill="#91b0b8" opacity="0.5"/>
<rect x="361.0" y="160.5" width="6" height="8" fill="#91b0b8" opacity="0.5"/>
<rect x="361.0" y="176.5" width="6" height="8" fill="#91b0b8" opacity="0.5"/>
<rect x="361.0" y="192.5" width="6" height="8" fill="#91b0b8" opacity="0.5"/>
<rect x="375.0" y="192.5" width="6" height="8" fill="#91b0b8" opacity="0.5"/>
<rect x="361.0" y="208.5" width="6" height="8" fill="#91b0b8" opacity="0.5"/>
<rect x="375.0" y="208.5" width="6" height="8" fill="#91b0b8" opacity="0.5"/>
<rect x="361.0" y="224.5" width="6" height="8" fill="#91b0b8" opacity="0.5"/>
<rect x="375.0" y="224.5" width="6" height="8" fill="#91b0b8" opacity="0.5"/>
<rect x="361.0" y="240.5" width="6" height="8" fill="#91b0b8" opacity="0.5"/>
<rect x="375.0" y="240.5" width="6" height="8" fill="#91b0b8" opacity="0.5"/>
<rect x="361.0" y="256.5" width="6" height="8" fill="#91b0b8" opacity="0.5"/>
<rect x="375.0" y="256.5" width="6" height="8" fill="#91b0b8" opacity="0.5"/>
<rect x="361.0" y="272.5" width="6" height="8" fill="#91b0b8" opacity="0.5"/>
<rect x="375.0" y="272.5" width="6" height="8" fill="#91b0b8" opacity="0.5"/>
<rect x="556.3" y="151.5" width="44.1" height="148.5" fill="#558592"/>
<rect x="568.3" y="179.5" width="6" height="8" fill="#91b0b8" opacity="0.5"/>
<rect x="582.3" y="179.5" width="6" height="8" fill="#91b0b8" opacity="0.5"/>
<rect x="568.3" y="195.5" width="6" height="8" fill="#91b0b8" opacity="0.5"/>
<rect x="582.3" y="195.5" width="6" height="8" fill="#91b0b8" opacity="0.5"/>
<rect x="582.3" y="211.5" width="6" height="8" fill="#91b0b8" opacity="0.5"/>
<rect x="568.3" y="227.5" width="6" height="8" fill="#91b0b8" opacity="0.5"/>
<rect x="582.3" y="227.5" width="6" height="8" fill="#91b0b8" opacity="0.5"/>
<rect x="568.3" y="243.5" width="6" height="8" fill="#91b0b8" opacity="0.5"/>
<rect x="568.3" y="259.5" width="6" height="8" fill="#91b0b8" opacity="0.5"/>
<rect x="582.3" y="259.5" width="6" height="8" fill="#91b0b8" opacity="0.5"/>
<rect x="794.8" y="145.1" width="69.8" height="154.9" fill="#558592"/>
<rect x="826.7" y="157.1" width="6" height="8" fill="#91b0b8" opacity="0.5"/>
<rect x="840.7" y="157.1" width="6" height="8" fill="#91b0b8" opacity="0.5"/>
<rect x="812.7" y="173.1" width="6" height="8" fill="#91b0b8" opacity="0.5"/>
<rect x="826.7" y="173.1" width="6" height="8" fill="#91b0b8" opacity="0.5"/>
<rect x="840.7" y="173.1" width="6" height="8" fill="#91b0b8" opacity="0.5"/>
<rect x="812.7" y="189.1" width="6" height="8" fill="#91b0b8" opacity="0.5"/>
<rect x="812.7" y="205.1" width="6" height="8" fill="#91b0b8" opacity="0.5"/>
<rect x="826.7" y="205.1" width="6" height="8" fill="#91b0b8" opacity="0.5"/>
<rect x="840.7" y="205.1" width="6" height="8" fill="#91b0b8" opacity="0.5"/>
<rect x="812.7" y="221.1" width="6" height="8" fill="#91b0b8" opacity="0.5"/>
<rect x="840.7" y="221.1" width="6" height="8" fill="#91b0b8" opacity="0.5"/>
<rect x="826.7" y="237.1" width="6" height="8" fill="#91b0b8" opacity="0.5"/>
<rect x="840.7" y="237.1" width="6" height="8" fill="#91b0b8" opacity="0.5"/>
<rect x="812.7" y="253.1" width="6" height="8" fill="#91b0b8" opacity="0.5"/>
<rect x="826.7" y="253.1" width="6" height="8" fill="#91b0b8" opacity="0.5"/>
<rect x="840.7" y="253.1" width="6" height="8" fill="#91b0b8" opacity="0.5"/>
<rect x="826.7" y="269.1" width="6" height="8" fill="#91b0b8" opacity="0.5"/>
<rect x="1035.0" y="103.2" width="77.2" height="196.8" fill="#558592"/>
<rect x="1063.6" y="115.2" width="6" height="8" fill="#91b0b8" opacity="0.5"/>
<rect x="1077.6" y="115.2" width="6" height="8" fill="#91b0b8" opacity="0.5"/>
<rect x="1091.6" y="115.2" width="6" height="8" fill="#91b0b8" opacity="0.5"/>
<rect x="1049.6" y="131.2" width="6" height="8" fill="#91b0b8" opacity="0.5"/>
<rect x="1077.6" y="131.2" width="6" height="8" fill="#91b0b8" opacity="0.5"/>
<rect x="1091.6" y="131.2" width="6" height="8" fill="#91b0b8" opacity="0.5"/>
<rect x="1049.6" y="147.2" width="6" height="8" fill="#91b0b8" opacity="0.5"/>
<rect x="1063.6" y="147.2" width="6" height="8" fill="#91b0b8" opacity="0.5"/>
<rect x="1091.6" y="147.2" width="6" height="8" fill="#91b0b8" opacity="0.5"/>
<rect x="1049.6" y="163.2" width="6" height="8" fill="#91b0b8" opacity="0.5"/>
<rect x="1049.6" y="179.2" width="6" height="8" fill="#91b0b8" opacity="0.5"/>
<rect x="1063.6" y="179.2" width="6" height="8" fill="#91b0b8" opacity="0.5"/>
<rect x="1077.6" y="179.2" width="6" height="8" fill="#91b0b8" opacity="0.5"/>
<rect x="1091.6" y="179.2" width="6" height="8" fill="#91b0b8" opacity="0.5"/>
<rect x="1049.6" y="195.2" width="6" height="8" fill="#91b0b8" opacity="0.5"/>
<rect x="1077.6" y="195.2" width="6" height="8" fill="#91b0b8" opacity="0.5"/>
<rect x="1063.6" y="211.2" width="6" height="8" fill="#91b0b8" opacity="0.5"/>
<rect x="1091.6" y="211.2" width="6" height="8" fill="#91b0b8" opacity="0.5"/>
<rect x="1049.6" y="227.2" width="6" height="8" fill="#91b0b8" opacity="0.5"/>
<rect x="1063.6" y="227.2" width="6" height="8" fill="#91b0b8" opacity="0.5"/>
<rect x="1077.6" y="227.2" width="6" height="8" fill="#91b0b8" opacity="0.5"/>
<rect x="1091.6" y="227.2" width="6" height="8" fill="#91b0b8" opacity="0.5"/>
<rect x="1049.6" y="243.2" width="6" height="8" fill="#91b0b8" opacity="0.5"/>
<rect x="1063.6" y="243.2" width="6" height="8" fill="#91b0b8" opacity="0.5"/>
<rect x="1077.6" y="243.2" width="6" height="8" fill="#91b0b8" opacity="0.5"/>
<rect x="1049.6" y="259.2" width="6" height="8" fill="#91b0b8" opacity="0.5"/>
<rect x="1063.6" y="259.2" width="6" height="8" fill="#91b0b8" opacity="0.5"/>
<rect x="1077.6" y="259.2" width="6" height="8" fill="#91b0b8" opacity="0.5"/>
<rect x="1091.6" y="259.2" width="6" height="8" fill="#91b0b8" opacity="0.5"/>
<rect x="110.6" y="79.6" width="44.3" height="220.4" fill="#2b6777"/>
<rect x="122.7" y="91.6" width="6" height="8" fill="#759ca7" opacity="0.5"/>
<rect x="136.7" y="91.6" width="6" height="8" fill="#759ca7" opacity="0.5"/>
<rect x="122.7" y="107.6" width="6" height="8" fill="#759ca7" opacity="0.5"/>
<rect x="136.7" y="107.6" width="6" height="8" fill="#759ca7" opacity="0.5"/>
<rect x="136.7" y="123.6" width="6" height="8" fill="#759ca7" opacity="0.5"/>
<rect x="122.7" y="139.6" width="6" height="8" fill="#759ca7" opacity="0.5"/>
<rect x="136.7" y="139.6" width="6" height="8" fill="#759ca7" opacity="0.5"/>
<rect x="122.7" y="155.6" width="6" height="8" fill="#759ca7" opacity="0.5"/>
<rect x="136.7" y="155.6" width="6" height="8" fill="#759ca7" opacity="0.5"/>
<rect x="122.7" y="171.6" width="6" height="8" fill="#759ca7" opacity="0.5"/>
<rect x="136.7" y="171.6" width="6" height="8" fill="#759ca7" opacity="0.5"/>
<rect x="136.7" y="187.6" width="6" height="8" fill="#759ca7" opacity="0.5"/>
<rect x="122.7" y="203.6" width="6" height="8" fill="#759ca7" opacity="0.5"/>
<rect x="136.7" y="203.6" width="6" height="8" fill="#759ca7" opacity="0.5"/>
<rect x="136.7" y="219.6" width="6" height="8" fill="#759ca7" opacity="0.5"/>
<rect x="122.7" y="235.6" width="6" height="8" fill="#759ca7" opacity="0.5"/>
<rect x="136.7" y="235.6" width="6" height="8" fill="#759ca7" opacity="0.5"/>
<rect x="122.7" y="251.6" width="6" height="8" fill="#759ca7" opacity="0.5"/>
<rect x="136.7" y="251.6" width="6" height="8" fill="#759ca7" opacity="0.5"/>
<rect x="122.7" y="267.6" width="6" height="8" fill="#759ca7" opacity="0.5"/>
<line x1="132.7" y1="79.6" x2="132.7" y2="70.7" stroke="#2b6777" stroke-width="2"/>
<rect x="370.9" y="199.6" width="68.3" height="100.4" fill="#2b6777"/>
<rect x="388.1" y="211.6" width="6" height="8" fill="#759ca7" opacity="0.5"/>
<rect x="402.1" y="211.6" width="6" height="8" fill="#759ca7" opacity="0.5"/>
<rect x="416.1" y="211.6" width="6" height="8" fill="#759ca7" opacity="0.5"/>
<rect x="388.1" y="243.6" width="6" height="8" fill="#759ca7" opacity="0.5"/>
<rect x="402.1" y="243.6" width="6" height="8" fill="#759ca7" opacity="0.5"/>
<rect x="416.1" y="243.6" width="6" height="8" fill="#759ca7" opacity="0.5"/>
<rect x="388.1" y="259.6" width="6" height="8" fill="#759ca7" opacity="0.5"/>
<rect x="402.1" y="259.6" width="6" height="8" fill="#759ca7" opacity="0.5"/>
<rect x="416.1" y="259.6" width="6" height="8" fill="#759ca7" opacity="0.5"/>
<rect x="593.3" y="198.6" width="62.2" height="101.4" fill="#2b6777"/>
<rect x="607.4" y="210.6" width="6" height="8" fill="#759ca7" opacity="0.5"/>
<rect x="621.4" y="210.6" width="6" height="8" fill="#759ca7" opacity="0.5"/>
<rect x="635.4" y="210.6" width="6" height="8" fill="#759ca7" opacity="0.5"/>
<rect x="607.4" y="226.6" width="6" height="8" fill="#759ca7" opacity="0.5"/>
<rect x="621.4" y="226.6" width="6" height="8" fill="#759ca7" opacity="0.5"/>
<rect x="635.4" y="226.6" width="6" height="8" fill="#759ca7" opacity="0.5"/>
<rect x="607.4" y="242.6" width="6" height="8" fill="#759ca7" opacity="0.5"/>
<rect x="621.4" y="242.6" width="6" height="8" fill="#759ca7" opacity="0.5"/>
<rect x="635.4" y="242.6" width="6" height="8" fill="#759ca7" opacity="0.5"/>
<rect x="635.4" y="258.6" width="6" height="8" fill="#759ca7" opacity="0.5"/>
<rect x="786.6" y="90.4" width="53.9" height="209.6" fill="#2b6777"/>
<rect x="817.6" y="102.4" width="6" height="8" fill="#759ca7" opacity="0.5"/>
<rect x="803.6" y="118.4" width="6" height="8" fill="#759ca7" opacity="0.5"/>
<rect x="817.6" y="118.4" width="6" height="8" fill="#759ca7" opacity="0.5"/>
<rect x="817.6" y="134.4" width="6" height="8" fill="#759ca7" opacity="0.5"/>
<rect x="817.6" y="150.4" width="6" height="8" fill="#759ca7" opacity="0.5"/>
<rect x="817.6" y="182.4" width="6" height="8" fill="#759ca7" opacity="0.5"/>
<rect x="803.6" y="198.4" width="6" height="8" fill="#759ca7" opacity="0.5"/>
<rect x="817.6" y="198.4" width="6" height="8" fill="#759ca7" opacity="0.5"/>
<rect x="817.6" y="214.4" width="6" height="8" fill="#759ca7" opacity="0.5"/>
<rect x="803.6" y="230.4" width="6" height="8" fill="#759ca7" opacity="0.5"/>
<rect x="817.6" y="230.4" width="6" height="8" fill="#759ca7" opacity="0.5"/>
<rect x="803.6" y="246.4" width="6" height="8" fill="#759ca7" opacity="0.5"/>
<rect x="817.6" y="246.4" width="6" height="8" fill="#759ca7" opacity="0.5"/>
<rect x="803.6" y="262.4" width="6" height="8" fill="#759ca7" opacity="0.5"/>
<rect x="817.6" y="262.4" width="6" height="8" fill="#759ca7" opacity="0.5"/>
<line x1="813.6" y1="90.4" x2="813.6" y2="73.1" stroke="#2b6777" stroke-width="2"/>
<rect x="1013.8" y="68.4" width="41.7" height="231.6" fill="#2b6777"/>
<rect x="1031.7" y="80.4" width="6" height="8" fill="#759ca7" opacity="0.5"/>
<rect x="1031.7" y="112.4" width="6" height="8" fill="#759ca7" opacity="0.5"/>
<rect x="1031.7" y="128.4" width="6" height="8" fill="#759ca7" opacity="0.5"/>
<rect x="1031.7" y="144.4" width="6" height="8" fill="#759ca7" opacity="0.5"/>
<rect x="1031.7" y="160.4" width="6" height="8" fill="#759ca7" opacity="0.5"/>
<rect x="1031.7" y="176.4" width="6" height="8" fill="#759ca7" opacity="0.5"/>
<rect x="1031.7" y="192.4" width="6" height="8" fill="#759ca7" opacity="0.5"/>
<rect x="1031.7" y="208.4" width="6" height="8" fill="#759ca7" opacity="0.5"/>
<rect x="1031.7" y="224.4" width="6" height="8" fill="#759ca7" opacity="0.5"/>
<rect x="1031.7" y="256.4" width="6" height="8" fill="#759ca7" opacity="0.5"/>
<line x1="1034.7" y1="68.4" x2="1034.7" y2="53.9" stroke="#2b6777" stroke-width="2"/>
<rect x="0" y="298" width="1200" height="2" fill="#275d6b" opacity="0.15"/>
</svg>