<svg xmlns="http://www.w3.org/2000/svg" viewBox="0 0 1200 400" width="1200" height="400">
<defs>
<linearGradient id="bg" x1="0" y1="0" x2="0" y2="1"><stop offset="0%" stop-color="#d4a76a"/><stop offset="100%" stop-color="#ea580c"/></linearGradient>
<linearGradient id="warm" x1="0" y1="0" x2="1" y2="1"><stop offset="0%" stop-color="#7a8ba7" stop-opacity="0.18"/><stop offset="100%" stop-color="#7a8ba7" stop-opacity="0.06"/></linearGradient>
</defs>
<rect width="1200" height="400" fill="url(#bg)"/>
<path d="M0 400 L0 225.6861098714548 C60.0 229.3, 90.0 230.8, 150.0 232.0 C210.0 235.9, 240.0 251.2, 300.0 246.4 C360.0 245.1, 390.0 242.2, 450.0 248.2 C510.0 250.8, 540.0 227.5, 600.0 234.7 C660.0 228.2, 690.0 216.0, 750.0 225.5 C810.0 229.7, 840.0 211.6, 900.0 221.2 C960.0 218.0, 990.0 260.9, 1050.0 252.2 C1110.0 261.6, 1140.0 219.9, 1200.0 229.1 L1200 400 Z" fill="#e2742d" opacity="0.45"/>
<path d="M0 400 L0 266.06131551091363 C52.5 271.6, 97.5 273.1, 150.0 280.0 C202.5 280.1, 247.5 271.4, 300.0 268.5 C352.5 264.4, 397.5 257.3, 450.0 258.9 C502.5 259.4, 547.5 265.0, 600.0 264.7 C652.5 270.3, 697.5 264.0, 750.0 256.6 C802.5 253.0, 847.5 252.9, 900.0 256.4 C952.5 252.1, 997.5 276.7, 1050.0 270.5 C1102.5 276.6, 1147.5 282.8, 1200.0 278.5 L1200 400 Z" fill="#ea580c" opacity="0.3"/>
<rect x="1073.3" y="313.2" width="43.6" height="86.8" rx="3.0" fill="#408389" opacity="0.76"/>
<rect x="1092.9" y="323.2" width="4" height="5" rx="0.5" fill="#d4a76a" opacity="0.6"/>
<rect x="1078.3" y="345.2" width="4" height="5" rx="0.5" fill="#d4a76a" opacity="0.6"/>
<rect x="1078.3" y="367.2" width="4" height="5" rx="0.5" fill="#d4a76a" opacity="0.6"/>
<rect x="443.5" y="345.4" width="20.6" height="54.6" rx="4.3" fill="#757562" opacity="0.75"/>
<rect x="618.2" y="309.8" width="17.3" height="90.2" rx="5.2" fill="#0a90b0" opacity="0.72"/>
<rect x="623.2" y="319.8" width="4" height="5" rx="0.5" fill="#d4a76a" opacity="0.6"/>
<rect x="623.2" y="341.8" width="4" height="5" rx="0.5" fill="#d4a76a" opacity="0.6"/>
<rect x="623.2" y="363.8" width="4" height="5" rx="0.5" fill="#d4a76a" opacity="0.6"/>
<rect x="865.9" y="332.8" width="33.0" height="67.2" rx="4.9" fill="#777561" opacity="0.53"/>
<rect x="935.3" y="327.7" width="35.1" height="72.3" rx="6.5" fill="#488183" opacity="0.65"/>
<rect x="289.9" y="280.1" width="42.6" height="119.9" rx="3.4" fill="#7e735c" opacity="0.79"/>
<rect x="294.9" y="290.1" width="4" height="5" rx="0.5" fill="#d4a76a" opacity="0.6"/>
<rect x="309.1" y="290.1" width="4" height="5" rx="0.5" fill="#d4a76a" opacity="0.6"/>
<rect x="294.9" y="312.1" width="4" height="5" rx="0.5" fill="#d4a76a" opacity="0.6"/>
<rect x="294.9" y="334.1" width="4" height="5" rx="0.5" fill="#d4a76a" opacity="0.6"/>
<rect x="309.1" y="334.1" width="4" height="5" rx="0.5" fill="#d4a76a" opacity="0.6"/>
<rect x="294.9" y="356.1" width="4" height="5" rx="0.5" fill="#d4a76a" opacity="0.6"/>
<rect x="309.1" y="356.1" width="4" height="5" rx="0.5" fill="#d4a76a" opacity="0.6"/>
<rect x="329.1" y="305.2" width="45.4" height="94.8" rx="5.1" fill="#238a9e" opacity="0.55"/>
<rect x="870.9" y="293.5" width="41.9" height="106.5" rx="4.5" fill="#67796c" opacity="0.50"/>
<rect x="769.1" y="276.4" width="26.6" height="123.6" rx="8.0" fill="#0d90ae" opacity="0.59"/>
<rect x="350.8" y="280.5" width="49.0" height="119.5" rx="7.6" fill="#358691" opacity="0.55"/>
<rect x="302.2" y="322.0" width="35.4" height="78.0" rx="3.1" fill="#7c745d" opacity="0.81"/>
<rect x="966.1" y="323.2" width="33.5" height="76.8" rx="4.0" fill="#627a70" opacity="0.71"/>
<rect x="1021.2" y="362.4" width="49.2" height="37.6" rx="5.5" fill="#7b745e" opacity="0.80"/>
<circle cx="833.4" cy="98.7" r="11.0" fill="#0891b2" opacity="0.42"/>
<circle cx="284.4" cy="160.0" r="7.5" fill="#0891b2" opacity="0.33"/>
<circle cx="469.4" cy="94.1" r="11.9" fill="#d4a76a" opacity="0.29"/>
<circle cx="575.8" cy="117.2" r="6.7" fill="#0891b2" opacity="0.39"/>
<circle cx="294.2" cy="235.6" r="9.5" fill="#0891b2" opacity="0.18"/>
<circle cx="188.4" cy="64.2" r="10.0" fill="#d4a76a" opacity="0.32"/>
<circle cx="116.4" cy="208.7" r="4.3" fill="#0891b2" opacity="0.20"/>
<circle cx="366.5" cy="179.5" r="9.9" fill="#0891b2" opacity="0.33"/>
<rect width="1200" height="400" fill="url(#warm)"/>
<rect width="1200" height="400" fill="#d4a76a" opacity="0.36"/>
</svg>