<svg xmlns="http://www.w3.org/2000/svg" viewBox="0 0 1200 300" width="1200" height="300">
<defs><linearGradient id="skyGrad" x1="0" y1="0" x2="0" y2="1"><stop offset="0%" stop-color="#ddf0f0"/><stop offset="100%" stop-color="#f0e8d8"/></linearGradient></defs><rect width="1200" height="300" fill="url(#skyGrad)"/>
<rect x="215.0" y="190.3" width="55.9" height="109.7" fill="#aeb0a5"/>
<polygon points="215.0,190.3 243.0,176.4 270.9,190.3" fill="#a0a298"/>
<rect x="529.7" y="239.5" width="59.5" height="60.5" fill="#aeb0a5"/>
<rect x="908.9" y="195.0" width="82.9" height="105.0" fill="#aeb0a5"/>
<rect x="161.7" y="156.8" width="54.9" height="143.2" fill="#898d7d"/>
<rect x="193.2" y="168.8" width="6" height="8" fill="#b2b5ab" opacity="0.5"/>
<rect x="179.2" y="184.8" width="6" height="8" fill="#b2b5ab" opacity="0.5"/>
<rect x="179.2" y="200.8" width="6" height="8" fill="#b2b5ab" opacity="0.5"/>
<rect x="193.2" y="200.8" width="6" height="8" fill="#b2b5ab" opacity="0.5"/>
<rect x="179.2" y="216.8" width="6" height="8" fill="#b2b5ab" opacity="0.5"/>
<rect x="193.2" y="216.8" width="6" height="8" fill="#b2b5ab" opacity="0.5"/>
<rect x="179.2" y="232.8" width="6" height="8" fill="#b2b5ab" opacity="0.5"/>
<rect x="404.5" y="166.8" width="54.7" height="133.2" fill="#898d7d"/>
<rect x="421.8" y="178.8" width="6" height="8" fill="#b2b5ab" opacity="0.5"/>
<rect x="435.8" y="178.8" width="6" height="8" fill="#b2b5ab" opacity="0.5"/>
<rect x="421.8" y="194.8" width="6" height="8" fill="#b2b5ab" opacity="0.5"/>
<rect x="435.8" y="194.8" width="6" height="8" fill="#b2b5ab" opacity="0.5"/>
<rect x="421.8" y="210.8" width="6" height="8" fill="#b2b5ab" opacity="0.5"/>
<rect x="421.8" y="226.8" width="6" height="8" fill="#b2b5ab" opacity="0.5"/>
<rect x="435.8" y="226.8" width="6" height="8" fill="#b2b5ab" opacity="0.5"/>
<rect x="421.8" y="242.8" width="6" height="8" fill="#b2b5ab" opacity="0.5"/>
<rect x="421.8" y="258.8" width="6" height="8" fill="#b2b5ab" opacity="0.5"/>
<rect x="435.8" y="258.8" width="6" height="8" fill="#b2b5ab" opacity="0.5"/>
<rect x="694.3" y="219.7" width="41.2" height="80.3" fill="#898d7d"/>
<polygon points="694.3,219.7 714.9,209.4 735.5,219.7" fill="#7e8273"/>
<rect x="711.9" y="231.7" width="6" height="8" fill="#b2b5ab" opacity="0.5"/>
<rect x="952.9" y="192.3" width="67.0" height="107.7" fill="#898d7d"/>
<polygon points="952.9,192.3 986.4,175.5 1019.9,192.3" fill="#7e8273"/>
<rect x="997.4" y="204.3" width="6" height="8" fill="#b2b5ab" opacity="0.5"/>
<rect x="969.4" y="220.3" width="6" height="8" fill="#b2b5ab" opacity="0.5"/>
<rect x="997.4" y="220.3" width="6" height="8" fill="#b2b5ab" opacity="0.5"/>
<rect x="969.4" y="236.3" width="6" height="8" fill="#b2b5ab" opacity="0.5"/>
<rect x="983.4" y="236.3" width="6" height="8" fill="#b2b5ab" opacity="0.5"/>
<rect x="969.4" y="252.3" width="6" height="8" fill="#b2b5ab" opacity="0.5"/>
<rect x="983.4" y="252.3" width="6" height="8" fill="#b2b5ab" opacity="0.5"/>
<rect x="997.4" y="252.3" width="6" height="8" fill="#b2b5ab" opacity="0.5"/>
<rect x="969.4" y="268.3" width="6" height="8" fill="#b2b5ab" opacity="0.5"/>
<rect x="983.4" y="268.3" width="6" height="8" fill="#b2b5ab" opacity="0.5"/>
<rect x="997.4" y="268.3" width="6" height="8" fill="#b2b5ab" opacity="0.5"/>
<rect x="237.1" y="253.6" width="72.1" height="46.4" fill="#6b705c"/>
<rect x="249.7" y="245.4" width="46.8" height="8.2" fill="#666a57"/>
<rect x="627.9" y="179.8" width="46.3" height="120.2" fill="#6b705c"/>
<rect x="641.0" y="191.8" width="6" height="8" fill="#9fa295" opacity="0.5"/>
<rect x="655.0" y="191.8" width="6" height="8" fill="#9fa295" opacity="0.5"/>
<rect x="655.0" y="207.8" width="6" height="8" fill="#9fa295" opacity="0.5"/>
<rect x="641.0" y="223.8" width="6" height="8" fill="#9fa295" opacity="0.5"/>
<rect x="655.0" y="223.8" width="6" height="8" fill="#9fa295" opacity="0.5"/>
<rect x="641.0" y="239.8" width="6" height="8" fill="#9fa295" opacity="0.5"/>
<rect x="655.0" y="239.8" width="6" height="8" fill="#9fa295" opacity="0.5"/>
<rect x="641.0" y="255.8" width="6" height="8" fill="#9fa295" opacity="0.5"/>
<rect x="655.0" y="255.8" width="6" height="8" fill="#9fa295" opacity="0.5"/>
<rect x="641.0" y="271.8" width="6" height="8" fill="#9fa295" opacity="0.5"/>
<rect x="944.0" y="249.9" width="34.7" height="50.1" fill="#6b705c"/>
<polygon points="944.0,249.9 961.3,241.2 978.6,249.9" fill="#626755"/>
<path d="M468.5 285.0 Q486.9 256.3 481.4 227.5" fill="none" stroke="#826c50" stroke-width="3"/>
<path d="M481.4 227.5 Q469.4 218.2 461.5 218.9" fill="none" stroke="#437e39" stroke-width="2.5"/>
<path d="M481.4 227.5 Q486.7 214.4 490.2 211.2" fill="none" stroke="#437e39" stroke-width="2.5"/>
<path d="M481.4 227.5 Q498.5 222.5 509.9 227.5" fill="none" stroke="#437e39" stroke-width="2.5"/>
<path d="M481.4 227.5 Q486.1 229.8 489.2 242.0" fill="none" stroke="#437e39" stroke-width="2.5"/>
<path d="M481.4 227.5 Q471.4 226.2 464.7 234.8" fill="none" stroke="#437e39" stroke-width="2.5"/>
<path d="M809.1 285.0 Q827.0 260.7 821.6 236.4" fill="none" stroke="#887153" stroke-width="3"/>
<path d="M821.6 236.4 Q808.3 226.6 799.4 226.8" fill="none" stroke="#498a3e" stroke-width="2.5"/>
<path d="M821.6 236.4 Q826.6 223.8 829.9 221.2" fill="none" stroke="#498a3e" stroke-width="2.5"/>
<path d="M821.6 236.4 Q838.1 231.4 849.0 236.4" fill="none" stroke="#498a3e" stroke-width="2.5"/>
<path d="M821.6 236.4 Q825.6 237.6 828.3 248.8" fill="none" stroke="#498a3e" stroke-width="2.5"/>
<path d="M821.6 236.4 Q808.8 236.1 800.3 245.8" fill="none" stroke="#498a3e" stroke-width="2.5"/>
<path d="M957.9 285.0 Q973.3 264.9 968.7 244.9" fill="none" stroke="#836c50" stroke-width="3"/>
<path d="M968.7 244.9 Q956.0 235.3 947.6 235.7" fill="none" stroke="#438039" stroke-width="2.5"/>
<path d="M968.7 244.9 Q974.2 231.4 977.9 227.8" fill="none" stroke="#438039" stroke-width="2.5"/>
<path d="M968.7 244.9 Q979.8 239.9 987.1 244.9" fill="none" stroke="#438039" stroke-width="2.5"/>
<path d="M968.7 244.9 Q972.6 245.9 975.2 257.0" fill="none" stroke="#438039" stroke-width="2.5"/>
<path d="M968.7 244.9 Q958.2 243.7 951.2 252.5" fill="none" stroke="#438039" stroke-width="2.5"/>
<path d="M840.5 285.0 Q868.2 255.3 859.9 225.5" fill="none" stroke="#866f52" stroke-width="3"/>
<path d="M859.9 225.5 Q849.2 216.6 842.1 217.8" fill="none" stroke="#437f39" stroke-width="2.5"/>
<path d="M859.9 225.5 Q863.5 214.9 866.0 214.2" fill="none" stroke="#437f39" stroke-width="2.5"/>
<path d="M859.9 225.5 Q873.0 220.5 881.7 225.5" fill="none" stroke="#437f39" stroke-width="2.5"/>
<path d="M859.9 225.5 Q864.6 227.8 867.7 240.0" fill="none" stroke="#437f39" stroke-width="2.5"/>
<path d="M859.9 225.5 Q848.5 224.7 840.8 233.8" fill="none" stroke="#437f39" stroke-width="2.5"/>
<path d="M503.3 285.0 Q518.5 263.1 514.0 241.2" fill="none" stroke="#79644a" stroke-width="3"/>
<path d="M514.0 241.2 Q501.9 231.8 493.9 232.5" fill="none" stroke="#44803a" stroke-width="2.5"/>
<path d="M514.0 241.2 Q518.3 229.5 521.2 227.9" fill="none" stroke="#44803a" stroke-width="2.5"/>
<path d="M514.0 241.2 Q531.1 236.2 542.5 241.2" fill="none" stroke="#44803a" stroke-width="2.5"/>
<path d="M514.0 241.2 Q517.7 242.0 520.2 252.8" fill="none" stroke="#44803a" stroke-width="2.5"/>
<path d="M514.0 241.2 Q501.4 240.8 493.0 250.4" fill="none" stroke="#44803a" stroke-width="2.5"/>
<path d="M697.9 285.0 Q727.5 259.0 718.6 233.0" fill="none" stroke="#897254" stroke-width="3"/>
<path d="M718.6 233.0 Q707.0 223.8 699.2 224.5" fill="none" stroke="#437f39" stroke-width="2.5"/>
<path d="M718.6 233.0 Q723.9 220.0 727.3 216.9" fill="none" stroke="#437f39" stroke-width="2.5"/>
<path d="M718.6 233.0 Q735.6 228.0 747.0 233.0" fill="none" stroke="#437f39" stroke-width="2.5"/>
<path d="M718.6 233.0 Q723.5 235.5 726.8 248.0" fill="none" stroke="#437f39" stroke-width="2.5"/>
<path d="M718.6 233.0 Q707.5 232.1 700.1 241.1" fill="none" stroke="#437f39" stroke-width="2.5"/>
<rect x="0" y="285" width="1200" height="15" fill="#d4c5a9" opacity="0.4"/>
<circle cx="1090.2" cy="45.6" r="29.9" fill="#f5e6a0" opacity="0.1"/>
</svg>