<svg xmlns="http://www.w3.org/2000/svg" viewBox="0 0 1200 300" width="1200" height="300">
<defs>
<linearGradient id="skyGrad" x1="0" y1="0" x2="0" y2="1">
<stop offset="0%" stop-color="#a78bfa"/>
<stop offset="18%" stop-color="#ddb4f0"/>
<stop offset="35%" stop-color="#fda4af"/>
<stop offset="52%" stop-color="#fdba74"/>
<stop offset="72%" stop-color="#fef08a"/>
<stop offset="100%" stop-color="#fef9c3"/>
</linearGradient>
<linearGradient id="bldg_coral" x1="0" y1="0" x2="0" y2="1"><stop offset="0%" stop-color="#fecaca"/><stop offset="100%" stop-color="#fca5a5"/></linearGradient>
<linearGradient id="bldg_teal" x1="0" y1="0" x2="0" y2="1"><stop offset="0%" stop-color="#99f6e4"/><stop offset="100%" stop-color="#5eead4"/></linearGradient>
<linearGradient id="bldg_amber" x1="0" y1="0" x2="0" y2="1"><stop offset="0%" stop-color="#fde68a"/><stop offset="100%" stop-color="#fcd34d"/></linearGradient>
<linearGradient id="bldg_lavender" x1="0" y1="0" x2="0" y2="1"><stop offset="0%" stop-color="#ddd6fe"/><stop offset="100%" stop-color="#c4b5fd"/></linearGradient>
<linearGradient id="bldg_blue" x1="0" y1="0" x2="0" y2="1"><stop offset="0%" stop-color="#bfdbfe"/><stop offset="100%" stop-color="#93c5fd"/></linearGradient>
<linearGradient id="bldg_mint" x1="0" y1="0" x2="0" y2="1"><stop offset="0%" stop-color="#a7f3d0"/><stop offset="100%" stop-color="#6ee7b7"/></linearGradient>
<linearGradient id="bldg_rose" x1="0" y1="0" x2="0" y2="1"><stop offset="0%" stop-color="#fecdd3"/><stop offset="100%" stop-color="#fda4af"/></linearGradient>
<linearGradient id="bldg_sky" x1="0" y1="0" x2="0" y2="1"><stop offset="0%" stop-color="#bae6fd"/><stop offset="100%" stop-color="#7dd3fc"/></linearGradient>
<linearGradient id="roof_navyRoof" x1="0" y1="0" x2="0" y2="1"><stop offset="0%" stop-color="#4338ca"/><stop offset="100%" stop-color="#3730a3"/></linearGradient>
<linearGradient id="roof_coralRoof" x1="0" y1="0" x2="0" y2="1"><stop offset="0%" stop-color="#f87171"/><stop offset="100%" stop-color="#ef4444"/></linearGradient>
<linearGradient id="roof_tealRoof" x1="0" y1="0" x2="0" y2="1"><stop offset="0%" stop-color="#2dd4bf"/><stop offset="100%" stop-color="#14b8a6"/></linearGradient>
<radialGradient id="windowGlow" cx="50%" cy="50%" r="50%"><stop offset="0%" stop-color="#fef08a"/><stop offset="60%" stop-color="#fbbf24"/><stop offset="100%" stop-color="#f59e0b"/></radialGradient>
<linearGradient id="hillFar" x1="0" y1="0" x2="0" y2="1"><stop offset="0%" stop-color="#c4b5fd"/><stop offset="100%" stop-color="#a5b4fc"/></linearGradient>
<linearGradient id="hillMid" x1="0" y1="0" x2="0" y2="1"><stop offset="0%" stop-color="#86efac"/><stop offset="100%" stop-color="#4ade80"/></linearGradient>
<linearGradient id="hillNear" x1="0" y1="0" x2="0" y2="1"><stop offset="0%" stop-color="#34d399"/><stop offset="100%" stop-color="#10b981"/></linearGradient>
<linearGradient id="hillDesertFar" x1="0" y1="0" x2="0" y2="1"><stop offset="0%" stop-color="#fde68a"/><stop offset="100%" stop-color="#fcd34d"/></linearGradient>
<linearGradient id="hillDesertMid" x1="0" y1="0" x2="0" y2="1"><stop offset="0%" stop-color="#fcd34d"/><stop offset="100%" stop-color="#fbbf24"/></linearGradient>
<linearGradient id="hillDesertNear" x1="0" y1="0" x2="0" y2="1"><stop offset="0%" stop-color="#fbbf24"/><stop offset="100%" stop-color="#f59e0b"/></linearGradient>
<linearGradient id="groundGrad" x1="0" y1="0" x2="0" y2="1"><stop offset="0%" stop-color="#fef3c7"/><stop offset="100%" stop-color="#fde68a"/></linearGradient>
<linearGradient id="waterGrad" x1="0" y1="0" x2="0" y2="1"><stop offset="0%" stop-color="#bfdbfe"/><stop offset="100%" stop-color="#93c5fd"/></linearGradient>
<filter id="softGlow" x="-50%" y="-50%" width="200%" height="200%"><feGaussianBlur in="SourceGraphic" stdDeviation="12"/></filter>
</defs>
<rect width="1200" height="300" fill="url(#skyGrad)"/>
<circle cx="911.1" cy="43.6" r="45" fill="#fef08a" opacity="0.12" filter="url(#softGlow)"/>
<circle cx="911.1" cy="43.6" r="30" fill="#fde68a" opacity="0.18" filter="url(#softGlow)"/>
<circle cx="911.1" cy="43.6" r="16" fill="#fef9c3" opacity="0.25" filter="url(#softGlow)"/>
<path d="M0 300 L0.0 183.6 C141.7 183.6, 141.7 191.3, 283.5 191.3 C406.4 191.3, 406.4 175.9, 529.4 175.9 C695.2 175.9, 695.2 179.7, 861.0 179.7 C1030.5 179.7, 1030.5 195.6, 1200.0 195.6 L1200 300 Z" fill="url(#hillFar)" opacity="0.5"/>
<path d="M0 300 L0.0 206.7 C224.4 206.7, 224.4 209.9, 448.7 209.9 C594.3 209.9, 594.3 207.0, 739.9 207.0 C969.9 207.0, 969.9 220.3, 1200.0 220.3 L1200 300 Z" fill="url(#hillMid)" opacity="0.7"/>
<path d="M0 300 L0.0 234.9 C152.6 234.9, 152.6 230.6, 305.2 230.6 C504.5 230.6, 504.5 234.0, 703.8 234.0 C951.9 234.0, 951.9 228.8, 1200.0 228.8 L1200 300 Z" fill="url(#hillNear)" opacity="1"/>
<rect x="146.9" y="194.8" width="46.8" height="105.2" rx="3" fill="url(#bldg_coral)" opacity="0.7"/>
<polygon points="146.9,194.8 170.3,183.9 193.7,194.8" fill="url(#roof_tealRoof)" opacity="0.7"/>
<rect x="160.3" y="204.8" width="6" height="8" rx="1" fill="url(#windowGlow)" opacity="0.8010855561593014"/>
<rect x="174.3" y="204.8" width="6" height="8" rx="1" fill="url(#windowGlow)" opacity="0.9415424647003143"/>
<rect x="160.3" y="219.8" width="6" height="8" rx="1" fill="url(#windowGlow)" opacity="0.7415969301208839"/>
<rect x="174.3" y="219.8" width="6" height="8" rx="1" fill="url(#windowGlow)" opacity="0.8556925207170156"/>
<rect x="160.3" y="234.8" width="6" height="8" rx="1" fill="url(#windowGlow)" opacity="0.7053305568198349"/>
<rect x="174.3" y="234.8" width="6" height="8" rx="1" fill="url(#windowGlow)" opacity="0.9139620034089134"/>
<rect x="160.3" y="249.8" width="6" height="8" rx="1" fill="url(#windowGlow)" opacity="0.8775452540151519"/>
<rect x="174.3" y="249.8" width="6" height="8" rx="1" fill="url(#windowGlow)" opacity="0.8657649274756036"/>
<rect x="398.7" y="227.9" width="67.0" height="72.1" rx="3" fill="url(#bldg_teal)" opacity="0.7"/>
<polygon points="398.7,227.9 432.2,206.7 465.7,227.9" fill="url(#roof_navyRoof)" opacity="0.7"/>
<rect x="415.2" y="237.9" width="6" height="8" rx="1" fill="url(#windowGlow)" opacity="0.9451886171685477"/>
<rect x="443.2" y="237.9" width="6" height="8" rx="1" fill="url(#windowGlow)" opacity="0.8217524598453904"/>
<rect x="415.2" y="252.9" width="6" height="8" rx="1" fill="url(#windowGlow)" opacity="0.9100464100530586"/>
<rect x="429.2" y="252.9" width="6" height="8" rx="1" fill="url(#windowGlow)" opacity="0.8297152639505059"/>
<rect x="443.2" y="252.9" width="6" height="8" rx="1" fill="url(#windowGlow)" opacity="0.9548045308118707"/>
<rect x="682.4" y="215.3" width="45.4" height="84.7" rx="3" fill="url(#bldg_amber)" opacity="0.7"/>
<polygon points="682.4,215.3 705.2,205.7 727.9,215.3" fill="url(#roof_coralRoof)" opacity="0.7"/>
<rect x="695.2" y="225.3" width="6" height="8" rx="1" fill="url(#windowGlow)" opacity="0.9476177132444539"/>
<rect x="709.2" y="225.3" width="6" height="8" rx="1" fill="url(#windowGlow)" opacity="0.8236369145212866"/>
<rect x="695.2" y="240.3" width="6" height="8" rx="1" fill="url(#windowGlow)" opacity="0.9618793499478508"/>
<rect x="709.2" y="240.3" width="6" height="8" rx="1" fill="url(#windowGlow)" opacity="0.82440927951802"/>
<rect x="695.2" y="255.3" width="6" height="8" rx="1" fill="url(#windowGlow)" opacity="0.865668960132482"/>
<rect x="709.2" y="255.3" width="6" height="8" rx="1" fill="url(#windowGlow)" opacity="0.9635543132031124"/>
<rect x="1003.4" y="243.9" width="84.9" height="56.1" rx="3" fill="url(#bldg_lavender)" opacity="0.7"/>
<rect x="1020.4" y="237.2" width="51.0" height="6.7" rx="2" fill="url(#roof_tealRoof)" opacity="0.7"/>
<rect x="1021.9" y="253.9" width="6" height="8" rx="1" fill="url(#windowGlow)" opacity="0.8283017784954523"/>
<rect x="163.1" y="219.0" width="60.2" height="81.0" rx="3" fill="url(#bldg_blue)" opacity="0.85"/>
<rect x="163.1" y="216.0" width="60.2" height="3" rx="1" fill="url(#roof_navyRoof)" opacity="0.85"/>
<rect x="176.2" y="229.0" width="6" height="8" rx="1" fill="url(#windowGlow)" opacity="0.9346474507984925"/>
<rect x="190.2" y="229.0" width="6" height="8" rx="1" fill="url(#windowGlow)" opacity="0.9111441162466742"/>
<rect x="190.2" y="244.0" width="6" height="8" rx="1" fill="url(#windowGlow)" opacity="0.9651232402143641"/>
<rect x="204.2" y="244.0" width="6" height="8" rx="1" fill="url(#windowGlow)" opacity="0.9979988104188808"/>
<rect x="190.2" y="259.0" width="6" height="8" rx="1" fill="url(#windowGlow)" opacity="0.7899125880514796"/>
<rect x="204.2" y="259.0" width="6" height="8" rx="1" fill="url(#windowGlow)" opacity="0.9538307509170056"/>
<rect x="434.5" y="194.9" width="55.6" height="105.1" rx="3" fill="url(#bldg_mint)" opacity="0.85"/>
<rect x="434.5" y="191.9" width="55.6" height="3" rx="1" fill="url(#roof_coralRoof)" opacity="0.85"/>
<rect x="452.3" y="204.9" width="6" height="8" rx="1" fill="url(#windowGlow)" opacity="0.7460084136324042"/>
<rect x="466.3" y="204.9" width="6" height="8" rx="1" fill="url(#windowGlow)" opacity="0.8850875753374247"/>
<rect x="452.3" y="219.9" width="6" height="8" rx="1" fill="url(#windowGlow)" opacity="0.756929671930582"/>
<rect x="452.3" y="234.9" width="6" height="8" rx="1" fill="url(#windowGlow)" opacity="0.961744779190861"/>
<rect x="466.3" y="234.9" width="6" height="8" rx="1" fill="url(#windowGlow)" opacity="0.8343315497666278"/>
<rect x="452.3" y="249.9" width="6" height="8" rx="1" fill="url(#windowGlow)" opacity="0.7575494255207244"/>
<rect x="466.3" y="249.9" width="6" height="8" rx="1" fill="url(#windowGlow)" opacity="0.8797283022570089"/>
<path d="M462.3 231.7 L484.5 231.7 L481.5 237.7 L465.3 237.7 Z" fill="url(#roof_navyRoof)" opacity="0.68"/>
<rect x="737.2" y="215.5" width="74.9" height="84.5" rx="3" fill="url(#bldg_rose)" opacity="0.85"/>
<rect x="737.2" y="212.5" width="74.9" height="3" rx="1" fill="url(#roof_tealRoof)" opacity="0.85"/>
<rect x="750.6" y="225.5" width="6" height="8" rx="1" fill="url(#windowGlow)" opacity="0.9542601745362673"/>
<rect x="764.6" y="225.5" width="6" height="8" rx="1" fill="url(#windowGlow)" opacity="0.9083576286716188"/>
<rect x="778.6" y="225.5" width="6" height="8" rx="1" fill="url(#windowGlow)" opacity="0.9654446335348508"/>
<rect x="792.6" y="225.5" width="6" height="8" rx="1" fill="url(#windowGlow)" opacity="0.7989914417262148"/>
<rect x="750.6" y="240.5" width="6" height="8" rx="1" fill="url(#windowGlow)" opacity="0.8999885908793605"/>
<rect x="764.6" y="240.5" width="6" height="8" rx="1" fill="url(#windowGlow)" opacity="0.8830988651528483"/>
<rect x="778.6" y="240.5" width="6" height="8" rx="1" fill="url(#windowGlow)" opacity="0.8173545462160159"/>
<rect x="792.6" y="240.5" width="6" height="8" rx="1" fill="url(#windowGlow)" opacity="0.9956333500312796"/>
<rect x="750.6" y="255.5" width="6" height="8" rx="1" fill="url(#windowGlow)" opacity="0.8733573857105138"/>
<rect x="764.6" y="255.5" width="6" height="8" rx="1" fill="url(#windowGlow)" opacity="0.8465079115920271"/>
<rect x="778.6" y="255.5" width="6" height="8" rx="1" fill="url(#windowGlow)" opacity="0.9396345967145797"/>
<rect x="974.8" y="163.0" width="50.7" height="137.0" rx="3" fill="url(#bldg_sky)" opacity="0.85"/>
<rect x="974.8" y="160.0" width="50.7" height="3" rx="1" fill="url(#roof_navyRoof)" opacity="0.85"/>
<rect x="990.2" y="173.0" width="6" height="8" rx="1" fill="url(#windowGlow)" opacity="0.7312985967059147"/>
<rect x="1004.2" y="188.0" width="6" height="8" rx="1" fill="url(#windowGlow)" opacity="0.9322825024054769"/>
<rect x="990.2" y="203.0" width="6" height="8" rx="1" fill="url(#windowGlow)" opacity="0.9637658116704624"/>
<rect x="990.2" y="218.0" width="6" height="8" rx="1" fill="url(#windowGlow)" opacity="0.7440215119831364"/>
<rect x="990.2" y="233.0" width="6" height="8" rx="1" fill="url(#windowGlow)" opacity="0.7916352008896113"/>
<rect x="1004.2" y="233.0" width="6" height="8" rx="1" fill="url(#windowGlow)" opacity="0.9286984198860351"/>
<rect x="990.2" y="248.0" width="6" height="8" rx="1" fill="url(#windowGlow)" opacity="0.7946213606254297"/>
<rect x="1004.2" y="248.0" width="6" height="8" rx="1" fill="url(#windowGlow)" opacity="0.7955223864389221"/>
<rect x="164.3" y="141.4" width="71.1" height="158.6" rx="3" fill="url(#bldg_coral)" opacity="1"/>
<rect x="178.5" y="122.3" width="42.7" height="19.0" rx="2" fill="url(#roof_coralRoof)" opacity="1"/>
<rect x="196.9" y="151.4" width="6" height="8" rx="1" fill="url(#windowGlow)" opacity="0.7681982028149991"/>
<rect x="210.9" y="151.4" width="6" height="8" rx="1" fill="url(#windowGlow)" opacity="0.8069378586518289"/>
<rect x="182.9" y="166.4" width="6" height="8" rx="1" fill="url(#windowGlow)" opacity="0.9960654893871701"/>
<rect x="210.9" y="166.4" width="6" height="8" rx="1" fill="url(#windowGlow)" opacity="0.7043006762882231"/>
<rect x="182.9" y="181.4" width="6" height="8" rx="1" fill="url(#windowGlow)" opacity="0.7592635805994568"/>
<rect x="196.9" y="181.4" width="6" height="8" rx="1" fill="url(#windowGlow)" opacity="0.8677634059301407"/>
<rect x="210.9" y="181.4" width="6" height="8" rx="1" fill="url(#windowGlow)" opacity="0.7947067671896455"/>
<rect x="196.9" y="196.4" width="6" height="8" rx="1" fill="url(#windowGlow)" opacity="0.8347804318344129"/>
<rect x="210.9" y="196.4" width="6" height="8" rx="1" fill="url(#windowGlow)" opacity="0.7121948176586045"/>
<rect x="182.9" y="211.4" width="6" height="8" rx="1" fill="url(#windowGlow)" opacity="0.7827192605392631"/>
<rect x="196.9" y="211.4" width="6" height="8" rx="1" fill="url(#windowGlow)" opacity="0.8782331318027494"/>
<rect x="210.9" y="226.4" width="6" height="8" rx="1" fill="url(#windowGlow)" opacity="0.7217296889152981"/>
<rect x="182.9" y="241.4" width="6" height="8" rx="1" fill="url(#windowGlow)" opacity="0.9636726962698962"/>
<rect x="196.9" y="241.4" width="6" height="8" rx="1" fill="url(#windowGlow)" opacity="0.8217259977579703"/>
<rect x="182.9" y="256.4" width="6" height="8" rx="1" fill="url(#windowGlow)" opacity="0.8451286928938369"/>
<rect x="196.9" y="256.4" width="6" height="8" rx="1" fill="url(#windowGlow)" opacity="0.9185003721707037"/>
<rect x="210.9" y="256.4" width="6" height="8" rx="1" fill="url(#windowGlow)" opacity="0.8564337663615279"/>
<rect x="194.9" y="284.0" width="10" height="16" rx="2" fill="url(#roof_navyRoof)" opacity="0.8"/>
<rect x="196.9" y="287.0" width="6" height="10" rx="1" fill="url(#windowGlow)" opacity="0.45"/>
<rect x="466.2" y="245.4" width="56.6" height="54.6" rx="3" fill="url(#bldg_teal)" opacity="1"/>
<rect x="466.2" y="242.4" width="56.6" height="3" rx="1" fill="url(#roof_tealRoof)" opacity="1"/>
<rect x="484.5" y="255.4" width="6" height="8" rx="1" fill="url(#windowGlow)" opacity="0.7182580275546098"/>
<rect x="498.5" y="255.4" width="6" height="8" rx="1" fill="url(#windowGlow)" opacity="0.8721592226867374"/>
<rect x="489.5" y="284.0" width="10" height="16" rx="2" fill="url(#roof_navyRoof)" opacity="0.8"/>
<rect x="491.5" y="287.0" width="6" height="10" rx="1" fill="url(#windowGlow)" opacity="0.45"/>
<rect x="730.2" y="132.1" width="51.7" height="167.9" rx="3" fill="url(#bldg_amber)" opacity="1"/>
<polygon points="730.2,132.1 756.0,114.3 781.9,132.1" fill="url(#roof_navyRoof)" opacity="1"/>
<rect x="746.0" y="142.1" width="6" height="8" rx="1" fill="url(#windowGlow)" opacity="0.8640631298367227"/>
<rect x="746.0" y="157.1" width="6" height="8" rx="1" fill="url(#windowGlow)" opacity="0.8359677806664108"/>
<rect x="760.0" y="157.1" width="6" height="8" rx="1" fill="url(#windowGlow)" opacity="0.8461929328023423"/>
<rect x="746.0" y="172.1" width="6" height="8" rx="1" fill="url(#windowGlow)" opacity="0.7455129643648457"/>
<rect x="760.0" y="172.1" width="6" height="8" rx="1" fill="url(#windowGlow)" opacity="0.7601722237468568"/>
<rect x="760.0" y="187.1" width="6" height="8" rx="1" fill="url(#windowGlow)" opacity="0.8615586121387586"/>
<rect x="746.0" y="202.1" width="6" height="8" rx="1" fill="url(#windowGlow)" opacity="0.7089378415648535"/>
<rect x="760.0" y="202.1" width="6" height="8" rx="1" fill="url(#windowGlow)" opacity="0.9672755095489673"/>
<rect x="746.0" y="217.1" width="6" height="8" rx="1" fill="url(#windowGlow)" opacity="0.7273702976421315"/>
<rect x="760.0" y="217.1" width="6" height="8" rx="1" fill="url(#windowGlow)" opacity="0.9403823212908498"/>
<rect x="746.0" y="232.1" width="6" height="8" rx="1" fill="url(#windowGlow)" opacity="0.9160245802328104"/>
<rect x="760.0" y="232.1" width="6" height="8" rx="1" fill="url(#windowGlow)" opacity="0.7219964770702628"/>
<rect x="760.0" y="247.1" width="6" height="8" rx="1" fill="url(#windowGlow)" opacity="0.8451058108569616"/>
<rect x="751.0" y="284.0" width="10" height="16" rx="2" fill="url(#roof_navyRoof)" opacity="0.8"/>
<rect x="753.0" y="287.0" width="6" height="10" rx="1" fill="url(#windowGlow)" opacity="0.45"/>
<path d="M735.4 190.9 L756.0 190.9 L753.0 196.9 L738.4 196.9 Z" fill="url(#roof_tealRoof)" opacity="0.8"/>
<rect x="1027.5" y="125.2" width="44.2" height="174.8" rx="3" fill="url(#bldg_lavender)" opacity="1"/>
<polygon points="1027.5,125.2 1049.6,115.2 1071.7,125.2" fill="url(#roof_coralRoof)" opacity="1"/>
<rect x="1053.6" y="135.2" width="6" height="8" rx="1" fill="url(#windowGlow)" opacity="0.7571780383387477"/>
<rect x="1053.6" y="150.2" width="6" height="8" rx="1" fill="url(#windowGlow)" opacity="0.9043813902905123"/>
<rect x="1039.6" y="165.2" width="6" height="8" rx="1" fill="url(#windowGlow)" opacity="0.7530286094420722"/>
<rect x="1053.6" y="165.2" width="6" height="8" rx="1" fill="url(#windowGlow)" opacity="0.9944286661662294"/>
<rect x="1039.6" y="180.2" width="6" height="8" rx="1" fill="url(#windowGlow)" opacity="0.8356500689571956"/>
<rect x="1053.6" y="180.2" width="6" height="8" rx="1" fill="url(#windowGlow)" opacity="0.9894165680228809"/>
<rect x="1053.6" y="195.2" width="6" height="8" rx="1" fill="url(#windowGlow)" opacity="0.7788625770150044"/>
<rect x="1039.6" y="210.2" width="6" height="8" rx="1" fill="url(#windowGlow)" opacity="0.916108920479244"/>
<rect x="1053.6" y="210.2" width="6" height="8" rx="1" fill="url(#windowGlow)" opacity="0.8269039227752498"/>
<rect x="1039.6" y="225.2" width="6" height="8" rx="1" fill="url(#windowGlow)" opacity="0.903015699844349"/>
<rect x="1039.6" y="240.2" width="6" height="8" rx="1" fill="url(#windowGlow)" opacity="0.9212697992200356"/>
<rect x="1053.6" y="240.2" width="6" height="8" rx="1" fill="url(#windowGlow)" opacity="0.8345586714030051"/>
<rect x="1044.6" y="284.0" width="10" height="16" rx="2" fill="url(#roof_navyRoof)" opacity="0.8"/>
<rect x="1046.6" y="287.0" width="6" height="10" rx="1" fill="url(#windowGlow)" opacity="0.45"/>
<path d="M350.8 285.0 Q380.0 255.9 368.3 226.8" stroke="#92400e" stroke-width="4" fill="none" stroke-linecap="round"/>
<path d="M368.3 226.8 Q357.0 216.0 349.4 216.4" stroke="#16a34a" stroke-width="2.5" fill="none" stroke-linecap="round"/>
<path d="M368.3 226.8 Q376.0 213.0 381.2 209.6" stroke="#22c55e" stroke-width="2.5" fill="none" stroke-linecap="round"/>
<path d="M368.3 226.8 Q383.5 220.8 393.7 226.8" stroke="#15803d" stroke-width="2.5" fill="none" stroke-linecap="round"/>
<path d="M368.3 226.8 Q372.9 225.4 376.0 237.0" stroke="#4ade80" stroke-width="2.5" fill="none" stroke-linecap="round"/>
<path d="M368.3 226.8 Q355.9 225.9 347.6 238.1" stroke="#16a34a" stroke-width="2.5" fill="none" stroke-linecap="round"/>
<path d="M626.5 285.0 Q640.0 254.3 634.6 223.5" stroke="#92400e" stroke-width="4" fill="none" stroke-linecap="round"/>
<path d="M634.6 223.5 Q624.0 213.1 616.9 213.8" stroke="#16a34a" stroke-width="2.5" fill="none" stroke-linecap="round"/>
<path d="M634.6 223.5 Q640.7 211.4 644.8 210.0" stroke="#22c55e" stroke-width="2.5" fill="none" stroke-linecap="round"/>
<path d="M634.6 223.5 Q654.2 217.5 667.3 223.5" stroke="#15803d" stroke-width="2.5" fill="none" stroke-linecap="round"/>
<path d="M634.6 223.5 Q641.9 224.8 646.7 239.6" stroke="#4ade80" stroke-width="2.5" fill="none" stroke-linecap="round"/>
<path d="M634.6 223.5 Q625.9 221.1 620.1 231.5" stroke="#16a34a" stroke-width="2.5" fill="none" stroke-linecap="round"/>
<path d="M904.7 285.0 Q931.6 258.7 920.8 232.4" stroke="#92400e" stroke-width="4" fill="none" stroke-linecap="round"/>
<path d="M920.8 232.4 Q908.5 221.3 900.4 221.1" stroke="#16a34a" stroke-width="2.5" fill="none" stroke-linecap="round"/>
<path d="M920.8 232.4 Q927.4 219.8 931.7 217.9" stroke="#22c55e" stroke-width="2.5" fill="none" stroke-linecap="round"/>
<path d="M920.8 232.4 Q939.7 226.4 952.3 232.4" stroke="#15803d" stroke-width="2.5" fill="none" stroke-linecap="round"/>
<path d="M920.8 232.4 Q925.4 231.1 928.5 242.6" stroke="#4ade80" stroke-width="2.5" fill="none" stroke-linecap="round"/>
<path d="M920.8 232.4 Q909.9 231.0 902.6 242.4" stroke="#16a34a" stroke-width="2.5" fill="none" stroke-linecap="round"/>
<path d="M143.9 285.0 Q156.9 262.4 151.7 239.8" stroke="#92400e" stroke-width="4" fill="none" stroke-linecap="round"/>
<path d="M151.7 239.8 Q137.8 228.0 128.5 227.0" stroke="#16a34a" stroke-width="2.5" fill="none" stroke-linecap="round"/>
<path d="M151.7 239.8 Q157.6 227.8 161.5 226.7" stroke="#22c55e" stroke-width="2.5" fill="none" stroke-linecap="round"/>
<path d="M151.7 239.8 Q169.1 233.8 180.7 239.8" stroke="#15803d" stroke-width="2.5" fill="none" stroke-linecap="round"/>
<path d="M151.7 239.8 Q158.5 240.6 163.0 254.8" stroke="#4ade80" stroke-width="2.5" fill="none" stroke-linecap="round"/>
<path d="M151.7 239.8 Q140.9 238.3 133.7 249.7" stroke="#16a34a" stroke-width="2.5" fill="none" stroke-linecap="round"/>
<path d="M1111.6 285.0 Q1130.1 255.2 1122.7 225.3" stroke="#92400e" stroke-width="4" fill="none" stroke-linecap="round"/>
<path d="M1122.7 225.3 Q1108.5 213.4 1099.1 212.3" stroke="#16a34a" stroke-width="2.5" fill="none" stroke-linecap="round"/>
<path d="M1122.7 225.3 Q1128.1 213.9 1131.7 213.3" stroke="#22c55e" stroke-width="2.5" fill="none" stroke-linecap="round"/>
<path d="M1122.7 225.3 Q1139.4 219.3 1150.5 225.3" stroke="#15803d" stroke-width="2.5" fill="none" stroke-linecap="round"/>
<path d="M1122.7 225.3 Q1127.8 224.5 1131.2 236.7" stroke="#4ade80" stroke-width="2.5" fill="none" stroke-linecap="round"/>
<path d="M1122.7 225.3 Q1110.8 224.3 1102.8 236.2" stroke="#16a34a" stroke-width="2.5" fill="none" stroke-linecap="round"/>
<rect x="0" y="282" width="1200" height="18" fill="url(#groundGrad)"/>
<line x1="367.2" y1="282.0" x2="367.2" y2="246.8" stroke="#92400e" stroke-width="2"/>
<circle cx="367.2" cy="246.8" r="4" fill="#fef08a" opacity="0.6"/>
<circle cx="367.2" cy="246.8" r="8" fill="#fef08a" opacity="0.15" filter="url(#softGlow)"/>
<line x1="205.6" y1="282.0" x2="205.6" y2="242.6" stroke="#92400e" stroke-width="2"/>
<circle cx="205.6" cy="242.6" r="4" fill="#fef08a" opacity="0.6"/>
<circle cx="205.6" cy="242.6" r="8" fill="#fef08a" opacity="0.15" filter="url(#softGlow)"/>
<ellipse cx="491.1" cy="282.0" rx="5.7" ry="4.0" fill="#22c55e" opacity="0.6"/>
<ellipse cx="643.7" cy="282.0" rx="5.9" ry="4.1" fill="#22c55e" opacity="0.6"/>
</svg>