<svg xmlns="http://www.w3.org/2000/svg" viewBox="0 0 1200 300" width="1200" height="300">
<rect width="1200" height="300" fill="#e0eff2"/>
<path d="M0 300 L0 210.0 C293.0 161.5, 918.6 191.8, 1200 210.0 L1200 300 Z" fill="#aac2c9" opacity="0.3"/>
<rect x="167.8" y="207.7" width="88.9" height="92.3" fill="#8aabb4"/>
<rect x="612.1" y="223.3" width="71.0" height="76.7" fill="#8aabb4"/>
<rect x="908.2" y="208.8" width="88.7" height="91.2" fill="#8aabb4"/>
<rect x="131.5" y="141.5" width="78.9" height="158.5" fill="#558592"/>
<rect x="147.0" y="153.5" width="6" height="8" fill="#91b0b8" opacity="0.5"/>
<rect x="161.0" y="153.5" width="6" height="8" fill="#91b0b8" opacity="0.5"/>
<rect x="175.0" y="153.5" width="6" height="8" fill="#91b0b8" opacity="0.5"/>
<rect x="189.0" y="153.5" width="6" height="8" fill="#91b0b8" opacity="0.5"/>
<rect x="147.0" y="169.5" width="6" height="8" fill="#91b0b8" opacity="0.5"/>
<rect x="161.0" y="169.5" width="6" height="8" fill="#91b0b8" opacity="0.5"/>
<rect x="189.0" y="169.5" width="6" height="8" fill="#91b0b8" opacity="0.5"/>
<rect x="161.0" y="185.5" width="6" height="8" fill="#91b0b8" opacity="0.5"/>
<rect x="175.0" y="185.5" width="6" height="8" fill="#91b0b8" opacity="0.5"/>
<rect x="147.0" y="201.5" width="6" height="8" fill="#91b0b8" opacity="0.5"/>
<rect x="161.0" y="201.5" width="6" height="8" fill="#91b0b8" opacity="0.5"/>
<rect x="175.0" y="201.5" width="6" height="8" fill="#91b0b8" opacity="0.5"/>
<rect x="189.0" y="201.5" width="6" height="8" fill="#91b0b8" opacity="0.5"/>
<rect x="147.0" y="217.5" width="6" height="8" fill="#91b0b8" opacity="0.5"/>
<rect x="161.0" y="217.5" width="6" height="8" fill="#91b0b8" opacity="0.5"/>
<rect x="175.0" y="217.5" width="6" height="8" fill="#91b0b8" opacity="0.5"/>
<rect x="147.0" y="233.5" width="6" height="8" fill="#91b0b8" opacity="0.5"/>
<rect x="161.0" y="233.5" width="6" height="8" fill="#91b0b8" opacity="0.5"/>
<rect x="175.0" y="233.5" width="6" height="8" fill="#91b0b8" opacity="0.5"/>
<rect x="189.0" y="233.5" width="6" height="8" fill="#91b0b8" opacity="0.5"/>
<rect x="147.0" y="249.5" width="6" height="8" fill="#91b0b8" opacity="0.5"/>
<rect x="161.0" y="249.5" width="6" height="8" fill="#91b0b8" opacity="0.5"/>
<rect x="175.0" y="249.5" width="6" height="8" fill="#91b0b8" opacity="0.5"/>
<rect x="189.0" y="249.5" width="6" height="8" fill="#91b0b8" opacity="0.5"/>
<rect x="161.0" y="265.5" width="6" height="8" fill="#91b0b8" opacity="0.5"/>
<rect x="189.0" y="265.5" width="6" height="8" fill="#91b0b8" opacity="0.5"/>
<rect x="440.7" y="217.5" width="41.2" height="82.5" fill="#558592"/>
<rect x="458.3" y="245.5" width="6" height="8" fill="#91b0b8" opacity="0.5"/>
<rect x="709.8" y="185.6" width="63.3" height="114.4" fill="#558592"/>
<rect x="724.4" y="197.6" width="6" height="8" fill="#91b0b8" opacity="0.5"/>
<rect x="738.4" y="197.6" width="6" height="8" fill="#91b0b8" opacity="0.5"/>
<rect x="724.4" y="213.6" width="6" height="8" fill="#91b0b8" opacity="0.5"/>
<rect x="738.4" y="213.6" width="6" height="8" fill="#91b0b8" opacity="0.5"/>
<rect x="752.4" y="213.6" width="6" height="8" fill="#91b0b8" opacity="0.5"/>
<rect x="724.4" y="229.6" width="6" height="8" fill="#91b0b8" opacity="0.5"/>
<rect x="752.4" y="229.6" width="6" height="8" fill="#91b0b8" opacity="0.5"/>
<rect x="724.4" y="245.6" width="6" height="8" fill="#91b0b8" opacity="0.5"/>
<rect x="738.4" y="245.6" width="6" height="8" fill="#91b0b8" opacity="0.5"/>
<rect x="724.4" y="261.6" width="6" height="8" fill="#91b0b8" opacity="0.5"/>
<rect x="738.4" y="261.6" width="6" height="8" fill="#91b0b8" opacity="0.5"/>
<rect x="1006.1" y="167.3" width="52.7" height="132.7" fill="#558592"/>
<rect x="1036.4" y="179.3" width="6" height="8" fill="#91b0b8" opacity="0.5"/>
<rect x="1022.4" y="195.3" width="6" height="8" fill="#91b0b8" opacity="0.5"/>
<rect x="1036.4" y="195.3" width="6" height="8" fill="#91b0b8" opacity="0.5"/>
<rect x="1022.4" y="211.3" width="6" height="8" fill="#91b0b8" opacity="0.5"/>
<rect x="1036.4" y="227.3" width="6" height="8" fill="#91b0b8" opacity="0.5"/>
<rect x="1022.4" y="243.3" width="6" height="8" fill="#91b0b8" opacity="0.5"/>
<rect x="1036.4" y="243.3" width="6" height="8" fill="#91b0b8" opacity="0.5"/>
<rect x="1022.4" y="259.3" width="6" height="8" fill="#91b0b8" opacity="0.5"/>
<rect x="1036.4" y="259.3" width="6" height="8" fill="#91b0b8" opacity="0.5"/>
<rect x="121.9" y="108.9" width="74.6" height="191.1" fill="#2b6777"/>
<rect x="135.2" y="120.9" width="6" height="8" fill="#759ca7" opacity="0.5"/>
<rect x="163.2" y="120.9" width="6" height="8" fill="#759ca7" opacity="0.5"/>
<rect x="135.2" y="136.9" width="6" height="8" fill="#759ca7" opacity="0.5"/>
<rect x="163.2" y="136.9" width="6" height="8" fill="#759ca7" opacity="0.5"/>
<rect x="135.2" y="152.9" width="6" height="8" fill="#759ca7" opacity="0.5"/>
<rect x="149.2" y="152.9" width="6" height="8" fill="#759ca7" opacity="0.5"/>
<rect x="163.2" y="152.9" width="6" height="8" fill="#759ca7" opacity="0.5"/>
<rect x="177.2" y="152.9" width="6" height="8" fill="#759ca7" opacity="0.5"/>
<rect x="135.2" y="168.9" width="6" height="8" fill="#759ca7" opacity="0.5"/>
<rect x="149.2" y="168.9" width="6" height="8" fill="#759ca7" opacity="0.5"/>
<rect x="163.2" y="168.9" width="6" height="8" fill="#759ca7" opacity="0.5"/>
<rect x="135.2" y="184.9" width="6" height="8" fill="#759ca7" opacity="0.5"/>
<rect x="177.2" y="184.9" width="6" height="8" fill="#759ca7" opacity="0.5"/>
<rect x="149.2" y="200.9" width="6" height="8" fill="#759ca7" opacity="0.5"/>
<rect x="177.2" y="200.9" width="6" height="8" fill="#759ca7" opacity="0.5"/>
<rect x="135.2" y="216.9" width="6" height="8" fill="#759ca7" opacity="0.5"/>
<rect x="149.2" y="216.9" width="6" height="8" fill="#759ca7" opacity="0.5"/>
<rect x="163.2" y="216.9" width="6" height="8" fill="#759ca7" opacity="0.5"/>
<rect x="135.2" y="232.9" width="6" height="8" fill="#759ca7" opacity="0.5"/>
<rect x="163.2" y="232.9" width="6" height="8" fill="#759ca7" opacity="0.5"/>
<rect x="177.2" y="232.9" width="6" height="8" fill="#759ca7" opacity="0.5"/>
<rect x="135.2" y="248.9" width="6" height="8" fill="#759ca7" opacity="0.5"/>
<rect x="149.2" y="248.9" width="6" height="8" fill="#759ca7" opacity="0.5"/>
<rect x="163.2" y="248.9" width="6" height="8" fill="#759ca7" opacity="0.5"/>
<rect x="177.2" y="248.9" width="6" height="8" fill="#759ca7" opacity="0.5"/>
<rect x="149.2" y="264.9" width="6" height="8" fill="#759ca7" opacity="0.5"/>
<rect x="163.2" y="264.9" width="6" height="8" fill="#759ca7" opacity="0.5"/>
<rect x="177.2" y="264.9" width="6" height="8" fill="#759ca7" opacity="0.5"/>
<rect x="420.5" y="152.6" width="43.0" height="147.4" fill="#2b6777"/>
<rect x="439.0" y="180.6" width="6" height="8" fill="#759ca7" opacity="0.5"/>
<rect x="439.0" y="196.6" width="6" height="8" fill="#759ca7" opacity="0.5"/>
<rect x="439.0" y="212.6" width="6" height="8" fill="#759ca7" opacity="0.5"/>
<rect x="439.0" y="244.6" width="6" height="8" fill="#759ca7" opacity="0.5"/>
<rect x="671.6" y="163.0" width="71.9" height="137.0" fill="#2b6777"/>
<rect x="690.6" y="175.0" width="6" height="8" fill="#759ca7" opacity="0.5"/>
<rect x="704.6" y="175.0" width="6" height="8" fill="#759ca7" opacity="0.5"/>
<rect x="718.6" y="175.0" width="6" height="8" fill="#759ca7" opacity="0.5"/>
<rect x="690.6" y="191.0" width="6" height="8" fill="#759ca7" opacity="0.5"/>
<rect x="704.6" y="191.0" width="6" height="8" fill="#759ca7" opacity="0.5"/>
<rect x="718.6" y="191.0" width="6" height="8" fill="#759ca7" opacity="0.5"/>
<rect x="690.6" y="207.0" width="6" height="8" fill="#759ca7" opacity="0.5"/>
<rect x="704.6" y="207.0" width="6" height="8" fill="#759ca7" opacity="0.5"/>
<rect x="718.6" y="207.0" width="6" height="8" fill="#759ca7" opacity="0.5"/>
<rect x="704.6" y="223.0" width="6" height="8" fill="#759ca7" opacity="0.5"/>
<rect x="718.6" y="223.0" width="6" height="8" fill="#759ca7" opacity="0.5"/>
<rect x="704.6" y="239.0" width="6" height="8" fill="#759ca7" opacity="0.5"/>
<rect x="718.6" y="239.0" width="6" height="8" fill="#759ca7" opacity="0.5"/>
<rect x="690.6" y="255.0" width="6" height="8" fill="#759ca7" opacity="0.5"/>
<rect x="704.6" y="255.0" width="6" height="8" fill="#759ca7" opacity="0.5"/>
<rect x="690.6" y="271.0" width="6" height="8" fill="#759ca7" opacity="0.5"/>
<rect x="704.6" y="271.0" width="6" height="8" fill="#759ca7" opacity="0.5"/>
<rect x="999.2" y="167.2" width="65.3" height="132.8" fill="#2b6777"/>
<rect x="1014.8" y="179.2" width="6" height="8" fill="#759ca7" opacity="0.5"/>
<rect x="1028.8" y="179.2" width="6" height="8" fill="#759ca7" opacity="0.5"/>
<rect x="1042.8" y="179.2" width="6" height="8" fill="#759ca7" opacity="0.5"/>
<rect x="1014.8" y="211.2" width="6" height="8" fill="#759ca7" opacity="0.5"/>
<rect x="1014.8" y="227.2" width="6" height="8" fill="#759ca7" opacity="0.5"/>
<rect x="1028.8" y="227.2" width="6" height="8" fill="#759ca7" opacity="0.5"/>
<rect x="1042.8" y="227.2" width="6" height="8" fill="#759ca7" opacity="0.5"/>
<rect x="1028.8" y="243.2" width="6" height="8" fill="#759ca7" opacity="0.5"/>
<rect x="1028.8" y="259.2" width="6" height="8" fill="#759ca7" opacity="0.5"/>
<rect x="0" y="298" width="1200" height="2" fill="#275d6b" opacity="0.15"/>
</svg>