<svg xmlns="http://www.w3.org/2000/svg" viewBox="0 0 1200 300" width="1200" height="300">
<defs><linearGradient id="skyGrad" x1="0" y1="0" x2="0" y2="1"><stop offset="0%" stop-color="#e8f0f8"/><stop offset="100%" stop-color="#f5e6d8"/></linearGradient></defs><rect width="1200" height="300" fill="url(#skyGrad)"/>
<rect x="172.9" y="202.1" width="87.5" height="97.9" fill="#8aabb4"/>
<rect x="624.4" y="212.0" width="60.4" height="88.0" fill="#8aabb4"/>
<rect x="961.2" y="178.9" width="64.7" height="121.1" fill="#8aabb4"/>
<rect x="189.5" y="199.3" width="47.0" height="100.7" fill="#558592"/>
<rect x="203.0" y="211.3" width="6" height="8" fill="#91b0b8" opacity="0.5"/>
<rect x="217.0" y="227.3" width="6" height="8" fill="#91b0b8" opacity="0.5"/>
<rect x="203.0" y="243.3" width="6" height="8" fill="#91b0b8" opacity="0.5"/>
<rect x="217.0" y="259.3" width="6" height="8" fill="#91b0b8" opacity="0.5"/>
<rect x="469.9" y="179.7" width="56.6" height="120.3" fill="#558592"/>
<polygon points="469.9,179.7 498.2,165.6 526.5,179.7" fill="#4e7a86"/>
<rect x="488.2" y="191.7" width="6" height="8" fill="#91b0b8" opacity="0.5"/>
<rect x="502.2" y="191.7" width="6" height="8" fill="#91b0b8" opacity="0.5"/>
<rect x="502.2" y="207.7" width="6" height="8" fill="#91b0b8" opacity="0.5"/>
<rect x="488.2" y="223.7" width="6" height="8" fill="#91b0b8" opacity="0.5"/>
<rect x="502.2" y="223.7" width="6" height="8" fill="#91b0b8" opacity="0.5"/>
<rect x="488.2" y="239.7" width="6" height="8" fill="#91b0b8" opacity="0.5"/>
<rect x="502.2" y="239.7" width="6" height="8" fill="#91b0b8" opacity="0.5"/>
<rect x="488.2" y="255.7" width="6" height="8" fill="#91b0b8" opacity="0.5"/>
<rect x="502.2" y="255.7" width="6" height="8" fill="#91b0b8" opacity="0.5"/>
<rect x="502.2" y="271.7" width="6" height="8" fill="#91b0b8" opacity="0.5"/>
<rect x="673.3" y="174.3" width="76.3" height="125.7" fill="#558592"/>
<rect x="694.5" y="186.3" width="6" height="8" fill="#91b0b8" opacity="0.5"/>
<rect x="722.5" y="186.3" width="6" height="8" fill="#91b0b8" opacity="0.5"/>
<rect x="694.5" y="202.3" width="6" height="8" fill="#91b0b8" opacity="0.5"/>
<rect x="708.5" y="202.3" width="6" height="8" fill="#91b0b8" opacity="0.5"/>
<rect x="722.5" y="202.3" width="6" height="8" fill="#91b0b8" opacity="0.5"/>
<rect x="694.5" y="234.3" width="6" height="8" fill="#91b0b8" opacity="0.5"/>
<rect x="722.5" y="234.3" width="6" height="8" fill="#91b0b8" opacity="0.5"/>
<rect x="708.5" y="250.3" width="6" height="8" fill="#91b0b8" opacity="0.5"/>
<rect x="722.5" y="250.3" width="6" height="8" fill="#91b0b8" opacity="0.5"/>
<rect x="708.5" y="266.3" width="6" height="8" fill="#91b0b8" opacity="0.5"/>
<rect x="722.5" y="266.3" width="6" height="8" fill="#91b0b8" opacity="0.5"/>
<rect x="1019.9" y="179.2" width="37.3" height="120.8" fill="#558592"/>
<rect x="1035.5" y="191.2" width="6" height="8" fill="#91b0b8" opacity="0.5"/>
<rect x="1035.5" y="223.2" width="6" height="8" fill="#91b0b8" opacity="0.5"/>
<rect x="1035.5" y="239.2" width="6" height="8" fill="#91b0b8" opacity="0.5"/>
<rect x="1035.5" y="255.2" width="6" height="8" fill="#91b0b8" opacity="0.5"/>
<rect x="139.0" y="169.8" width="48.7" height="130.2" fill="#2b6777"/>
<rect x="167.3" y="197.8" width="6" height="8" fill="#759ca7" opacity="0.5"/>
<rect x="153.3" y="213.8" width="6" height="8" fill="#759ca7" opacity="0.5"/>
<rect x="167.3" y="213.8" width="6" height="8" fill="#759ca7" opacity="0.5"/>
<rect x="153.3" y="229.8" width="6" height="8" fill="#759ca7" opacity="0.5"/>
<rect x="167.3" y="245.8" width="6" height="8" fill="#759ca7" opacity="0.5"/>
<rect x="153.3" y="261.8" width="6" height="8" fill="#759ca7" opacity="0.5"/>
<rect x="167.3" y="261.8" width="6" height="8" fill="#759ca7" opacity="0.5"/>
<rect x="470.5" y="200.9" width="58.1" height="99.1" fill="#2b6777"/>
<polygon points="470.5,200.9 499.5,186.4 528.6,200.9" fill="#285f6d"/>
<rect x="482.5" y="212.9" width="6" height="8" fill="#759ca7" opacity="0.5"/>
<rect x="496.5" y="212.9" width="6" height="8" fill="#759ca7" opacity="0.5"/>
<rect x="482.5" y="228.9" width="6" height="8" fill="#759ca7" opacity="0.5"/>
<rect x="510.5" y="228.9" width="6" height="8" fill="#759ca7" opacity="0.5"/>
<rect x="496.5" y="244.9" width="6" height="8" fill="#759ca7" opacity="0.5"/>
<rect x="482.5" y="260.9" width="6" height="8" fill="#759ca7" opacity="0.5"/>
<rect x="496.5" y="260.9" width="6" height="8" fill="#759ca7" opacity="0.5"/>
<rect x="687.5" y="204.6" width="73.8" height="95.4" fill="#2b6777"/>
<rect x="707.4" y="216.6" width="6" height="8" fill="#759ca7" opacity="0.5"/>
<rect x="721.4" y="216.6" width="6" height="8" fill="#759ca7" opacity="0.5"/>
<rect x="735.4" y="216.6" width="6" height="8" fill="#759ca7" opacity="0.5"/>
<rect x="721.4" y="232.6" width="6" height="8" fill="#759ca7" opacity="0.5"/>
<rect x="721.4" y="248.6" width="6" height="8" fill="#759ca7" opacity="0.5"/>
<rect x="707.4" y="264.6" width="6" height="8" fill="#759ca7" opacity="0.5"/>
<rect x="735.4" y="264.6" width="6" height="8" fill="#759ca7" opacity="0.5"/>
<rect x="1034.3" y="237.8" width="60.4" height="62.2" fill="#2b6777"/>
<rect x="1047.4" y="249.8" width="6" height="8" fill="#759ca7" opacity="0.5"/>
<rect x="1047.4" y="265.8" width="6" height="8" fill="#759ca7" opacity="0.5"/>
<rect x="1075.4" y="265.8" width="6" height="8" fill="#759ca7" opacity="0.5"/>
<path d="M329.1 285.0 Q355.9 264.2 347.9 243.4" fill="none" stroke="#79644a" stroke-width="3"/>
<path d="M347.9 243.4 Q337.9 234.7 331.2 236.1" fill="none" stroke="#47863c" stroke-width="2.5"/>
<path d="M347.9 243.4 Q351.9 232.1 354.6 230.9" fill="none" stroke="#47863c" stroke-width="2.5"/>
<path d="M347.9 243.4 Q360.7 238.4 369.2 243.4" fill="none" stroke="#47863c" stroke-width="2.5"/>
<path d="M347.9 243.4 Q352.0 244.7 354.7 256.1" fill="none" stroke="#47863c" stroke-width="2.5"/>
<path d="M347.9 243.4 Q338.4 241.8 332.2 250.2" fill="none" stroke="#47863c" stroke-width="2.5"/>
<path d="M608.0 285.0 Q625.0 256.1 619.9 227.3" fill="none" stroke="#79644a" stroke-width="3"/>
<path d="M619.9 227.3 Q608.4 218.1 600.7 218.9" fill="none" stroke="#48873d" stroke-width="2.5"/>
<path d="M619.9 227.3 Q624.8 214.8 628.0 212.4" fill="none" stroke="#48873d" stroke-width="2.5"/>
<path d="M619.9 227.3 Q636.4 222.3 647.3 227.3" fill="none" stroke="#48873d" stroke-width="2.5"/>
<path d="M619.9 227.3 Q624.8 229.7 628.0 242.1" fill="none" stroke="#48873d" stroke-width="2.5"/>
<path d="M619.9 227.3 Q608.2 226.5 600.4 235.8" fill="none" stroke="#48873d" stroke-width="2.5"/>
<path d="M897.8 285.0 Q921.1 259.9 914.1 234.9" fill="none" stroke="#8b7355" stroke-width="3"/>
<path d="M914.1 234.9 Q901.7 225.4 893.4 225.9" fill="none" stroke="#47863c" stroke-width="2.5"/>
<path d="M914.1 234.9 Q917.9 224.1 920.4 223.3" fill="none" stroke="#47863c" stroke-width="2.5"/>
<path d="M914.1 234.9 Q930.4 229.9 941.3 234.9" fill="none" stroke="#47863c" stroke-width="2.5"/>
<path d="M914.1 234.9 Q918.8 237.2 922.0 249.4" fill="none" stroke="#47863c" stroke-width="2.5"/>
<path d="M914.1 234.9 Q903.8 233.6 897.0 242.4" fill="none" stroke="#47863c" stroke-width="2.5"/>
<path d="M1109.8 285.0 Q1125.3 255.2 1120.6 225.3" fill="none" stroke="#786349" stroke-width="3"/>
<path d="M1120.6 225.3 Q1110.8 216.7 1104.2 218.1" fill="none" stroke="#45833b" stroke-width="2.5"/>
<path d="M1120.6 225.3 Q1125.3 213.1 1128.5 210.9" fill="none" stroke="#45833b" stroke-width="2.5"/>
<path d="M1120.6 225.3 Q1134.3 220.3 1143.5 225.3" fill="none" stroke="#45833b" stroke-width="2.5"/>
<path d="M1120.6 225.3 Q1125.2 227.3 1128.2 239.2" fill="none" stroke="#45833b" stroke-width="2.5"/>
<path d="M1120.6 225.3 Q1110.6 224.0 1104.0 232.6" fill="none" stroke="#45833b" stroke-width="2.5"/>
<path d="M822.2 285.0 Q838.8 264.0 833.9 243.0" fill="none" stroke="#816a4f" stroke-width="3"/>
<path d="M833.9 243.0 Q824.1 234.5 817.6 236.0" fill="none" stroke="#49893e" stroke-width="2.5"/>
<path d="M833.9 243.0 Q838.9 230.2 842.3 227.4" fill="none" stroke="#49893e" stroke-width="2.5"/>
<path d="M833.9 243.0 Q849.3 238.0 859.7 243.0" fill="none" stroke="#49893e" stroke-width="2.5"/>
<path d="M833.9 243.0 Q838.5 245.2 841.6 257.4" fill="none" stroke="#49893e" stroke-width="2.5"/>
<path d="M833.9 243.0 Q824.1 241.6 817.5 250.1" fill="none" stroke="#49893e" stroke-width="2.5"/>
<path d="M347.2 285.0 Q362.5 256.8 357.9 228.7" fill="none" stroke="#897254" stroke-width="3"/>
<path d="M357.9 228.7 Q348.0 220.1 341.4 221.5" fill="none" stroke="#47873d" stroke-width="2.5"/>
<path d="M357.9 228.7 Q361.6 218.0 364.1 217.2" fill="none" stroke="#47873d" stroke-width="2.5"/>
<path d="M357.9 228.7 Q372.9 223.7 383.0 228.7" fill="none" stroke="#47873d" stroke-width="2.5"/>
<path d="M357.9 228.7 Q362.4 230.7 365.5 242.7" fill="none" stroke="#47873d" stroke-width="2.5"/>
<path d="M357.9 228.7 Q345.1 228.3 336.5 238.0" fill="none" stroke="#47873d" stroke-width="2.5"/>
<path d="M510.9 285.0 Q530.8 261.8 524.9 238.6" fill="none" stroke="#78634a" stroke-width="3"/>
<path d="M524.9 238.6 Q513.4 229.4 505.8 230.3" fill="none" stroke="#48883d" stroke-width="2.5"/>
<path d="M524.9 238.6 Q529.9 225.8 533.2 223.1" fill="none" stroke="#48883d" stroke-width="2.5"/>
<path d="M524.9 238.6 Q538.7 233.6 547.9 238.6" fill="none" stroke="#48883d" stroke-width="2.5"/>
<path d="M524.9 238.6 Q529.7 240.9 532.8 253.3" fill="none" stroke="#48883d" stroke-width="2.5"/>
<path d="M524.9 238.6 Q511.6 238.4 502.8 248.2" fill="none" stroke="#48883d" stroke-width="2.5"/>
<rect x="0" y="285" width="1200" height="15" fill="#d4c5a9" opacity="0.4"/>
<circle cx="1082.9" cy="42.3" r="25.2" fill="#f5e6a0" opacity="0.1"/>
</svg>