<svg xmlns="http://www.w3.org/2000/svg" viewBox="0 0 1200 300" width="1200" height="300">
<defs>
<linearGradient id="skyGrad" x1="0" y1="0" x2="0" y2="1">
<stop offset="0%" stop-color="#a78bfa"/>
<stop offset="18%" stop-color="#ddb4f0"/>
<stop offset="35%" stop-color="#fda4af"/>
<stop offset="52%" stop-color="#fdba74"/>
<stop offset="72%" stop-color="#fef08a"/>
<stop offset="100%" stop-color="#fef9c3"/>
</linearGradient>
<linearGradient id="bldg_coral" x1="0" y1="0" x2="0" y2="1"><stop offset="0%" stop-color="#fecaca"/><stop offset="100%" stop-color="#fca5a5"/></linearGradient>
<linearGradient id="bldg_teal" x1="0" y1="0" x2="0" y2="1"><stop offset="0%" stop-color="#99f6e4"/><stop offset="100%" stop-color="#5eead4"/></linearGradient>
<linearGradient id="bldg_amber" x1="0" y1="0" x2="0" y2="1"><stop offset="0%" stop-color="#fde68a"/><stop offset="100%" stop-color="#fcd34d"/></linearGradient>
<linearGradient id="bldg_lavender" x1="0" y1="0" x2="0" y2="1"><stop offset="0%" stop-color="#ddd6fe"/><stop offset="100%" stop-color="#c4b5fd"/></linearGradient>
<linearGradient id="bldg_blue" x1="0" y1="0" x2="0" y2="1"><stop offset="0%" stop-color="#bfdbfe"/><stop offset="100%" stop-color="#93c5fd"/></linearGradient>
<linearGradient id="bldg_mint" x1="0" y1="0" x2="0" y2="1"><stop offset="0%" stop-color="#a7f3d0"/><stop offset="100%" stop-color="#6ee7b7"/></linearGradient>
<linearGradient id="bldg_rose" x1="0" y1="0" x2="0" y2="1"><stop offset="0%" stop-color="#fecdd3"/><stop offset="100%" stop-color="#fda4af"/></linearGradient>
<linearGradient id="bldg_sky" x1="0" y1="0" x2="0" y2="1"><stop offset="0%" stop-color="#bae6fd"/><stop offset="100%" stop-color="#7dd3fc"/></linearGradient>
<linearGradient id="roof_navyRoof" x1="0" y1="0" x2="0" y2="1"><stop offset="0%" stop-color="#4338ca"/><stop offset="100%" stop-color="#3730a3"/></linearGradient>
<linearGradient id="roof_coralRoof" x1="0" y1="0" x2="0" y2="1"><stop offset="0%" stop-color="#f87171"/><stop offset="100%" stop-color="#ef4444"/></linearGradient>
<linearGradient id="roof_tealRoof" x1="0" y1="0" x2="0" y2="1"><stop offset="0%" stop-color="#2dd4bf"/><stop offset="100%" stop-color="#14b8a6"/></linearGradient>
<radialGradient id="windowGlow" cx="50%" cy="50%" r="50%"><stop offset="0%" stop-color="#fef08a"/><stop offset="60%" stop-color="#fbbf24"/><stop offset="100%" stop-color="#f59e0b"/></radialGradient>
<linearGradient id="hillFar" x1="0" y1="0" x2="0" y2="1"><stop offset="0%" stop-color="#c4b5fd"/><stop offset="100%" stop-color="#a5b4fc"/></linearGradient>
<linearGradient id="hillMid" x1="0" y1="0" x2="0" y2="1"><stop offset="0%" stop-color="#86efac"/><stop offset="100%" stop-color="#4ade80"/></linearGradient>
<linearGradient id="hillNear" x1="0" y1="0" x2="0" y2="1"><stop offset="0%" stop-color="#34d399"/><stop offset="100%" stop-color="#10b981"/></linearGradient>
<linearGradient id="hillDesertFar" x1="0" y1="0" x2="0" y2="1"><stop offset="0%" stop-color="#fde68a"/><stop offset="100%" stop-color="#fcd34d"/></linearGradient>
<linearGradient id="hillDesertMid" x1="0" y1="0" x2="0" y2="1"><stop offset="0%" stop-color="#fcd34d"/><stop offset="100%" stop-color="#fbbf24"/></linearGradient>
<linearGradient id="hillDesertNear" x1="0" y1="0" x2="0" y2="1"><stop offset="0%" stop-color="#fbbf24"/><stop offset="100%" stop-color="#f59e0b"/></linearGradient>
<linearGradient id="groundGrad" x1="0" y1="0" x2="0" y2="1"><stop offset="0%" stop-color="#fef3c7"/><stop offset="100%" stop-color="#fde68a"/></linearGradient>
<linearGradient id="waterGrad" x1="0" y1="0" x2="0" y2="1"><stop offset="0%" stop-color="#bfdbfe"/><stop offset="100%" stop-color="#93c5fd"/></linearGradient>
<filter id="softGlow" x="-50%" y="-50%" width="200%" height="200%"><feGaussianBlur in="SourceGraphic" stdDeviation="12"/></filter>
</defs>
<rect width="1200" height="300" fill="url(#skyGrad)"/>
<circle cx="931.2" cy="58.8" r="45" fill="#fef08a" opacity="0.12" filter="url(#softGlow)"/>
<circle cx="931.2" cy="58.8" r="30" fill="#fde68a" opacity="0.18" filter="url(#softGlow)"/>
<circle cx="931.2" cy="58.8" r="16" fill="#fef9c3" opacity="0.25" filter="url(#softGlow)"/>
<path d="M0 300 L0.0 187.3 C190.8 187.3, 190.8 173.3, 381.5 173.3 C584.0 173.3, 584.0 183.7, 786.4 183.7 C993.2 183.7, 993.2 191.8, 1200.0 191.8 L1200 300 Z" fill="url(#hillFar)" opacity="0.5"/>
<path d="M0 300 L0.0 203.0 C176.7 203.0, 176.7 202.0, 353.3 202.0 C552.6 202.0, 552.6 209.2, 751.8 209.2 C975.9 209.2, 975.9 206.2, 1200.0 206.2 L1200 300 Z" fill="url(#hillMid)" opacity="0.7"/>
<path d="M0 300 L0.0 231.2 C241.8 231.2, 241.8 235.8, 483.5 235.8 C646.2 235.8, 646.2 236.5, 808.8 236.5 C1004.4 236.5, 1004.4 232.4, 1200.0 232.4 L1200 300 Z" fill="url(#hillNear)" opacity="1"/>
<rect x="184.8" y="215.9" width="63.7" height="84.1" rx="3" fill="url(#bldg_mint)" opacity="0.7"/>
<rect x="197.6" y="205.8" width="38.2" height="10.1" rx="2" fill="url(#roof_coralRoof)" opacity="0.7"/>
<rect x="199.7" y="225.9" width="6" height="8" rx="1" fill="url(#windowGlow)" opacity="0.8366360489915292"/>
<rect x="213.7" y="225.9" width="6" height="8" rx="1" fill="url(#windowGlow)" opacity="0.9403489515373245"/>
<rect x="227.7" y="225.9" width="6" height="8" rx="1" fill="url(#windowGlow)" opacity="0.9709938603783929"/>
<rect x="199.7" y="240.9" width="6" height="8" rx="1" fill="url(#windowGlow)" opacity="0.9624015314795084"/>
<rect x="213.7" y="240.9" width="6" height="8" rx="1" fill="url(#windowGlow)" opacity="0.8295588315136538"/>
<rect x="227.7" y="240.9" width="6" height="8" rx="1" fill="url(#windowGlow)" opacity="0.7165560494254138"/>
<rect x="199.7" y="255.9" width="6" height="8" rx="1" fill="url(#windowGlow)" opacity="0.7547606481494198"/>
<rect x="213.7" y="255.9" width="6" height="8" rx="1" fill="url(#windowGlow)" opacity="0.7023844488907532"/>
<rect x="227.7" y="255.9" width="6" height="8" rx="1" fill="url(#windowGlow)" opacity="0.7176659282379159"/>
<rect x="609.4" y="227.4" width="73.1" height="72.6" rx="3" fill="url(#bldg_rose)" opacity="0.7"/>
<polygon points="609.4,227.4 645.9,204.9 682.4,227.4" fill="url(#roof_tealRoof)" opacity="0.7"/>
<rect x="635.9" y="237.4" width="6" height="8" rx="1" fill="url(#windowGlow)" opacity="0.9886113600752369"/>
<rect x="649.9" y="237.4" width="6" height="8" rx="1" fill="url(#windowGlow)" opacity="0.8189427003352635"/>
<rect x="621.9" y="252.4" width="6" height="8" rx="1" fill="url(#windowGlow)" opacity="0.9985811297309497"/>
<rect x="635.9" y="252.4" width="6" height="8" rx="1" fill="url(#windowGlow)" opacity="0.7408280855234842"/>
<rect x="649.9" y="252.4" width="6" height="8" rx="1" fill="url(#windowGlow)" opacity="0.7928321780137867"/>
<rect x="909.2" y="228.8" width="88.8" height="71.2" rx="3" fill="url(#bldg_sky)" opacity="0.7"/>
<polygon points="909.2,228.8 953.6,199.1 998.0,228.8" fill="url(#roof_navyRoof)" opacity="0.7"/>
<rect x="929.6" y="238.8" width="6" height="8" rx="1" fill="url(#windowGlow)" opacity="0.8642023237721074"/>
<rect x="943.6" y="238.8" width="6" height="8" rx="1" fill="url(#windowGlow)" opacity="0.769566974867865"/>
<rect x="971.6" y="238.8" width="6" height="8" rx="1" fill="url(#windowGlow)" opacity="0.935059504320407"/>
<rect x="929.6" y="253.8" width="6" height="8" rx="1" fill="url(#windowGlow)" opacity="0.7800457830913577"/>
<rect x="943.6" y="253.8" width="6" height="8" rx="1" fill="url(#windowGlow)" opacity="0.8580134867494988"/>
<rect x="971.6" y="253.8" width="6" height="8" rx="1" fill="url(#windowGlow)" opacity="0.7493645477804189"/>
<rect x="176.7" y="229.6" width="67.0" height="70.4" rx="3" fill="url(#bldg_coral)" opacity="0.85"/>
<rect x="190.1" y="221.1" width="40.2" height="8.5" rx="2" fill="url(#roof_coralRoof)" opacity="0.85"/>
<rect x="193.2" y="239.6" width="6" height="8" rx="1" fill="url(#windowGlow)" opacity="0.9174450479529076"/>
<rect x="221.2" y="239.6" width="6" height="8" rx="1" fill="url(#windowGlow)" opacity="0.981305813966927"/>
<rect x="193.2" y="254.6" width="6" height="8" rx="1" fill="url(#windowGlow)" opacity="0.9779897958869066"/>
<rect x="207.2" y="254.6" width="6" height="8" rx="1" fill="url(#windowGlow)" opacity="0.8933831594387922"/>
<rect x="221.2" y="254.6" width="6" height="8" rx="1" fill="url(#windowGlow)" opacity="0.7065972363141352"/>
<path d="M210.2 254.2 L237.0 254.2 L234.0 260.2 L213.2 260.2 Z" fill="url(#roof_navyRoof)" opacity="0.68"/>
<rect x="447.8" y="192.4" width="64.1" height="107.6" rx="3" fill="url(#bldg_teal)" opacity="0.85"/>
<polygon points="447.8,192.4 479.8,174.7 511.9,192.4" fill="url(#roof_tealRoof)" opacity="0.85"/>
<rect x="462.8" y="202.4" width="6" height="8" rx="1" fill="url(#windowGlow)" opacity="0.9383859608035469"/>
<rect x="490.8" y="202.4" width="6" height="8" rx="1" fill="url(#windowGlow)" opacity="0.9622376012905676"/>
<rect x="462.8" y="217.4" width="6" height="8" rx="1" fill="url(#windowGlow)" opacity="0.7942423058181266"/>
<rect x="490.8" y="217.4" width="6" height="8" rx="1" fill="url(#windowGlow)" opacity="0.7026532097266303"/>
<rect x="462.8" y="232.4" width="6" height="8" rx="1" fill="url(#windowGlow)" opacity="0.8971653460046114"/>
<rect x="476.8" y="232.4" width="6" height="8" rx="1" fill="url(#windowGlow)" opacity="0.9106123005555068"/>
<rect x="490.8" y="232.4" width="6" height="8" rx="1" fill="url(#windowGlow)" opacity="0.8257136318952374"/>
<rect x="476.8" y="247.4" width="6" height="8" rx="1" fill="url(#windowGlow)" opacity="0.963031787454631"/>
<rect x="490.8" y="247.4" width="6" height="8" rx="1" fill="url(#windowGlow)" opacity="0.7637475291563884"/>
<rect x="724.4" y="210.6" width="63.0" height="89.4" rx="3" fill="url(#bldg_amber)" opacity="0.85"/>
<polygon points="724.4,210.6 755.9,194.6 787.4,210.6" fill="url(#roof_navyRoof)" opacity="0.85"/>
<rect x="752.9" y="220.6" width="6" height="8" rx="1" fill="url(#windowGlow)" opacity="0.7398454937338109"/>
<rect x="766.9" y="220.6" width="6" height="8" rx="1" fill="url(#windowGlow)" opacity="0.7993719554037656"/>
<rect x="738.9" y="235.6" width="6" height="8" rx="1" fill="url(#windowGlow)" opacity="0.9010314615448152"/>
<rect x="752.9" y="235.6" width="6" height="8" rx="1" fill="url(#windowGlow)" opacity="0.9004040260801109"/>
<rect x="766.9" y="235.6" width="6" height="8" rx="1" fill="url(#windowGlow)" opacity="0.851626515365963"/>
<rect x="738.9" y="250.6" width="6" height="8" rx="1" fill="url(#windowGlow)" opacity="0.7009301694114367"/>
<rect x="752.9" y="250.6" width="6" height="8" rx="1" fill="url(#windowGlow)" opacity="0.8901848373888921"/>
<path d="M730.7 241.9 L755.9 241.9 L752.9 247.9 L733.7 247.9 Z" fill="url(#roof_tealRoof)" opacity="0.68"/>
<rect x="987.0" y="203.4" width="51.9" height="96.6" rx="3" fill="url(#bldg_lavender)" opacity="0.85"/>
<polygon points="987.0,203.4 1013.0,185.3 1038.9,203.4" fill="url(#roof_coralRoof)" opacity="0.85"/>
<rect x="1017.0" y="213.4" width="6" height="8" rx="1" fill="url(#windowGlow)" opacity="0.8923780763486298"/>
<rect x="1017.0" y="228.4" width="6" height="8" rx="1" fill="url(#windowGlow)" opacity="0.8210833828063138"/>
<rect x="1003.0" y="243.4" width="6" height="8" rx="1" fill="url(#windowGlow)" opacity="0.7654324734422528"/>
<rect x="1017.0" y="258.4" width="6" height="8" rx="1" fill="url(#windowGlow)" opacity="0.7536494850896529"/>
<rect x="175.1" y="189.5" width="46.6" height="110.5" rx="3" fill="url(#bldg_blue)" opacity="1"/>
<rect x="175.1" y="186.5" width="46.6" height="3" rx="1" fill="url(#roof_tealRoof)" opacity="1"/>
<rect x="188.4" y="199.5" width="6" height="8" rx="1" fill="url(#windowGlow)" opacity="0.8798499947785632"/>
<rect x="188.4" y="214.5" width="6" height="8" rx="1" fill="url(#windowGlow)" opacity="0.7046814457535191"/>
<rect x="188.4" y="229.5" width="6" height="8" rx="1" fill="url(#windowGlow)" opacity="0.7578937592720117"/>
<rect x="188.4" y="244.5" width="6" height="8" rx="1" fill="url(#windowGlow)" opacity="0.864137317502935"/>
<rect x="202.4" y="244.5" width="6" height="8" rx="1" fill="url(#windowGlow)" opacity="0.7964741629997614"/>
<rect x="188.4" y="259.5" width="6" height="8" rx="1" fill="url(#windowGlow)" opacity="0.969577956325178"/>
<rect x="202.4" y="259.5" width="6" height="8" rx="1" fill="url(#windowGlow)" opacity="0.8383391570012733"/>
<rect x="193.4" y="284.0" width="10" height="16" rx="2" fill="url(#roof_navyRoof)" opacity="0.8"/>
<rect x="195.4" y="287.0" width="6" height="10" rx="1" fill="url(#windowGlow)" opacity="0.45"/>
<path d="M198.4 228.1 L217.0 228.1 L214.0 234.1 L201.4 234.1 Z" fill="url(#roof_coralRoof)" opacity="0.8"/>
<rect x="583.8" y="201.2" width="43.1" height="98.8" rx="3" fill="url(#bldg_mint)" opacity="1"/>
<rect x="583.8" y="198.2" width="43.1" height="3" rx="1" fill="url(#roof_navyRoof)" opacity="1"/>
<rect x="602.4" y="211.2" width="6" height="8" rx="1" fill="url(#windowGlow)" opacity="0.9285314199647546"/>
<rect x="602.4" y="241.2" width="6" height="8" rx="1" fill="url(#windowGlow)" opacity="0.9542106757658583"/>
<rect x="602.4" y="256.2" width="6" height="8" rx="1" fill="url(#windowGlow)" opacity="0.7869804994142523"/>
<rect x="600.4" y="284.0" width="10" height="16" rx="2" fill="url(#roof_navyRoof)" opacity="0.8"/>
<rect x="602.4" y="287.0" width="6" height="10" rx="1" fill="url(#windowGlow)" opacity="0.45"/>
<rect x="988.0" y="183.5" width="39.6" height="116.5" rx="3" fill="url(#bldg_rose)" opacity="1"/>
<polygon points="988.0,183.5 1007.8,172.5 1027.6,183.5" fill="url(#roof_coralRoof)" opacity="1"/>
<rect x="1004.8" y="193.5" width="6" height="8" rx="1" fill="url(#windowGlow)" opacity="0.7113861372281732"/>
<rect x="1004.8" y="208.5" width="6" height="8" rx="1" fill="url(#windowGlow)" opacity="0.8861435917607245"/>
<rect x="1004.8" y="223.5" width="6" height="8" rx="1" fill="url(#windowGlow)" opacity="0.9632382062092602"/>
<rect x="1004.8" y="238.5" width="6" height="8" rx="1" fill="url(#windowGlow)" opacity="0.8570573914130485"/>
<rect x="1004.8" y="253.5" width="6" height="8" rx="1" fill="url(#windowGlow)" opacity="0.7794996114352251"/>
<rect x="1002.8" y="284.0" width="10" height="16" rx="2" fill="url(#roof_navyRoof)" opacity="0.8"/>
<rect x="1004.8" y="287.0" width="6" height="10" rx="1" fill="url(#windowGlow)" opacity="0.45"/>
<rect x="1000.9" y="209.5" width="13.8" height="5" rx="1" fill="#15803d" opacity="0.7"/>
<circle cx="1003.9" cy="208.5" r="2.5" fill="#fb923c" opacity="0.85"/>
<circle cx="1008.5" cy="208.5" r="2.5" fill="#fb923c" opacity="0.85"/>
<circle cx="1013.1" cy="208.5" r="2.5" fill="#fbbf24" opacity="0.85"/>
<path d="M402.8 285.0 Q420.1 263.4 413.2 241.8" stroke="#92400e" stroke-width="4" fill="none" stroke-linecap="round"/>
<path d="M413.2 241.8 Q402.5 231.4 395.5 232.0" stroke="#16a34a" stroke-width="2.5" fill="none" stroke-linecap="round"/>
<path d="M413.2 241.8 Q419.7 229.2 424.0 227.4" stroke="#22c55e" stroke-width="2.5" fill="none" stroke-linecap="round"/>
<path d="M413.2 241.8 Q432.9 235.8 446.1 241.8" stroke="#15803d" stroke-width="2.5" fill="none" stroke-linecap="round"/>
<path d="M413.2 241.8 Q418.7 241.4 422.4 254.1" stroke="#4ade80" stroke-width="2.5" fill="none" stroke-linecap="round"/>
<path d="M413.2 241.8 Q402.5 240.2 395.4 251.5" stroke="#16a34a" stroke-width="2.5" fill="none" stroke-linecap="round"/>
<path d="M807.5 285.0 Q833.9 259.2 823.3 233.5" stroke="#92400e" stroke-width="4" fill="none" stroke-linecap="round"/>
<path d="M823.3 233.5 Q811.0 222.3 802.8 222.2" stroke="#16a34a" stroke-width="2.5" fill="none" stroke-linecap="round"/>
<path d="M823.3 233.5 Q830.5 220.2 835.3 217.5" stroke="#22c55e" stroke-width="2.5" fill="none" stroke-linecap="round"/>
<path d="M823.3 233.5 Q841.5 227.5 853.6 233.5" stroke="#15803d" stroke-width="2.5" fill="none" stroke-linecap="round"/>
<path d="M823.3 233.5 Q829.0 233.1 832.7 245.9" stroke="#4ade80" stroke-width="2.5" fill="none" stroke-linecap="round"/>
<path d="M823.3 233.5 Q811.4 232.4 803.5 244.4" stroke="#16a34a" stroke-width="2.5" fill="none" stroke-linecap="round"/>
<path d="M134.1 285.0 Q161.6 254.0 150.6 222.9" stroke="#92400e" stroke-width="4" fill="none" stroke-linecap="round"/>
<path d="M150.6 222.9 Q137.8 211.6 129.4 211.3" stroke="#16a34a" stroke-width="2.5" fill="none" stroke-linecap="round"/>
<path d="M150.6 222.9 Q155.4 212.1 158.6 212.2" stroke="#22c55e" stroke-width="2.5" fill="none" stroke-linecap="round"/>
<path d="M150.6 222.9 Q162.7 216.9 170.8 222.9" stroke="#15803d" stroke-width="2.5" fill="none" stroke-linecap="round"/>
<path d="M150.6 222.9 Q157.7 224.0 162.4 238.6" stroke="#4ade80" stroke-width="2.5" fill="none" stroke-linecap="round"/>
<path d="M150.6 222.9 Q138.1 222.1 129.8 234.3" stroke="#16a34a" stroke-width="2.5" fill="none" stroke-linecap="round"/>
<path d="M1076.8 285.0 Q1097.7 262.4 1089.4 239.9" stroke="#92400e" stroke-width="4" fill="none" stroke-linecap="round"/>
<path d="M1089.4 239.9 Q1080.1 230.0 1074.0 231.4" stroke="#16a34a" stroke-width="2.5" fill="none" stroke-linecap="round"/>
<path d="M1089.4 239.9 Q1094.2 229.0 1097.5 229.1" stroke="#22c55e" stroke-width="2.5" fill="none" stroke-linecap="round"/>
<path d="M1089.4 239.9 Q1106.3 233.9 1117.5 239.9" stroke="#15803d" stroke-width="2.5" fill="none" stroke-linecap="round"/>
<path d="M1089.4 239.9 Q1095.0 239.6 1098.8 252.4" stroke="#4ade80" stroke-width="2.5" fill="none" stroke-linecap="round"/>
<path d="M1089.4 239.9 Q1076.7 239.2 1068.2 251.5" stroke="#16a34a" stroke-width="2.5" fill="none" stroke-linecap="round"/>
<path d="M955.4 285.0 Q977.9 260.0 968.9 235.0" stroke="#92400e" stroke-width="4" fill="none" stroke-linecap="round"/>
<path d="M968.9 235.0 Q958.4 224.7 951.4 225.4" stroke="#16a34a" stroke-width="2.5" fill="none" stroke-linecap="round"/>
<path d="M968.9 235.0 Q975.6 222.3 980.1 220.1" stroke="#22c55e" stroke-width="2.5" fill="none" stroke-linecap="round"/>
<path d="M968.9 235.0 Q985.2 229.0 996.1 235.0" stroke="#15803d" stroke-width="2.5" fill="none" stroke-linecap="round"/>
<path d="M968.9 235.0 Q975.6 235.8 980.0 249.8" stroke="#4ade80" stroke-width="2.5" fill="none" stroke-linecap="round"/>
<path d="M968.9 235.0 Q956.9 234.0 948.9 246.0" stroke="#16a34a" stroke-width="2.5" fill="none" stroke-linecap="round"/>
<path d="M1029.0 285.0 Q1042.4 259.7 1037.0 234.4" stroke="#92400e" stroke-width="4" fill="none" stroke-linecap="round"/>
<path d="M1037.0 234.4 Q1027.6 224.5 1021.3 225.8" stroke="#16a34a" stroke-width="2.5" fill="none" stroke-linecap="round"/>
<path d="M1037.0 234.4 Q1042.0 223.4 1045.3 223.4" stroke="#22c55e" stroke-width="2.5" fill="none" stroke-linecap="round"/>
<path d="M1037.0 234.4 Q1052.6 228.4 1063.0 234.4" stroke="#15803d" stroke-width="2.5" fill="none" stroke-linecap="round"/>
<path d="M1037.0 234.4 Q1044.4 235.8 1049.2 250.6" stroke="#4ade80" stroke-width="2.5" fill="none" stroke-linecap="round"/>
<path d="M1037.0 234.4 Q1028.1 232.1 1022.2 242.6" stroke="#16a34a" stroke-width="2.5" fill="none" stroke-linecap="round"/>
<path d="M1057.8 285.0 Q1077.9 260.6 1069.8 236.2" stroke="#92400e" stroke-width="4" fill="none" stroke-linecap="round"/>
<path d="M1069.8 236.2 Q1059.0 225.7 1051.8 226.2" stroke="#16a34a" stroke-width="2.5" fill="none" stroke-linecap="round"/>
<path d="M1069.8 236.2 Q1074.5 225.5 1077.6 225.9" stroke="#22c55e" stroke-width="2.5" fill="none" stroke-linecap="round"/>
<path d="M1069.8 236.2 Q1083.7 230.2 1092.9 236.2" stroke="#15803d" stroke-width="2.5" fill="none" stroke-linecap="round"/>
<path d="M1069.8 236.2 Q1076.1 236.5 1080.4 250.1" stroke="#4ade80" stroke-width="2.5" fill="none" stroke-linecap="round"/>
<path d="M1069.8 236.2 Q1058.3 234.9 1050.7 246.7" stroke="#16a34a" stroke-width="2.5" fill="none" stroke-linecap="round"/>
<path d="M940.2 285.0 Q953.4 259.0 948.1 233.0" stroke="#92400e" stroke-width="4" fill="none" stroke-linecap="round"/>
<path d="M948.1 233.0 Q934.9 221.4 926.1 220.8" stroke="#16a34a" stroke-width="2.5" fill="none" stroke-linecap="round"/>
<path d="M948.1 233.0 Q954.4 220.6 958.6 219.0" stroke="#22c55e" stroke-width="2.5" fill="none" stroke-linecap="round"/>
<path d="M948.1 233.0 Q968.2 227.0 981.6 233.0" stroke="#15803d" stroke-width="2.5" fill="none" stroke-linecap="round"/>
<path d="M948.1 233.0 Q953.4 232.2 956.9 244.6" stroke="#4ade80" stroke-width="2.5" fill="none" stroke-linecap="round"/>
<path d="M948.1 233.0 Q935.7 232.1 927.4 244.3" stroke="#16a34a" stroke-width="2.5" fill="none" stroke-linecap="round"/>
<rect x="0" y="282" width="1200" height="18" fill="url(#groundGrad)"/>
<line x1="452.4" y1="282.0" x2="452.4" y2="240.7" stroke="#92400e" stroke-width="2"/>
<circle cx="452.4" cy="240.7" r="4" fill="#fef08a" opacity="0.6"/>
<circle cx="452.4" cy="240.7" r="8" fill="#fef08a" opacity="0.15" filter="url(#softGlow)"/>
<line x1="889.4" y1="282.0" x2="889.4" y2="248.9" stroke="#92400e" stroke-width="2"/>
<circle cx="889.4" cy="248.9" r="4" fill="#fef08a" opacity="0.6"/>
<circle cx="889.4" cy="248.9" r="8" fill="#fef08a" opacity="0.15" filter="url(#softGlow)"/>
<ellipse cx="356.9" cy="282.0" rx="6.8" ry="4.8" fill="#22c55e" opacity="0.6"/>
<ellipse cx="1046.7" cy="282.0" rx="7.0" ry="4.9" fill="#22c55e" opacity="0.6"/>
<ellipse cx="198.8" cy="282.0" rx="6.8" ry="4.8" fill="#22c55e" opacity="0.6"/>
<ellipse cx="1009.8" cy="282.0" rx="6.6" ry="4.6" fill="#22c55e" opacity="0.6"/>
</svg>