<svg xmlns="http://www.w3.org/2000/svg" viewBox="0 0 1200 300" width="1200" height="300">
<defs>
<linearGradient id="skyGrad" x1="0" y1="0" x2="0" y2="1">
<stop offset="0%" stop-color="#818cf8"/>
<stop offset="20%" stop-color="#c4b5fd"/>
<stop offset="38%" stop-color="#fda4af"/>
<stop offset="55%" stop-color="#fdba74"/>
<stop offset="75%" stop-color="#fef08a"/>
<stop offset="100%" stop-color="#fef9c3"/>
</linearGradient>
<linearGradient id="bldg_coral" x1="0" y1="0" x2="0" y2="1"><stop offset="0%" stop-color="#fecaca"/><stop offset="100%" stop-color="#fca5a5"/></linearGradient>
<linearGradient id="bldg_teal" x1="0" y1="0" x2="0" y2="1"><stop offset="0%" stop-color="#99f6e4"/><stop offset="100%" stop-color="#5eead4"/></linearGradient>
<linearGradient id="bldg_amber" x1="0" y1="0" x2="0" y2="1"><stop offset="0%" stop-color="#fde68a"/><stop offset="100%" stop-color="#fcd34d"/></linearGradient>
<linearGradient id="bldg_lavender" x1="0" y1="0" x2="0" y2="1"><stop offset="0%" stop-color="#ddd6fe"/><stop offset="100%" stop-color="#c4b5fd"/></linearGradient>
<linearGradient id="bldg_blue" x1="0" y1="0" x2="0" y2="1"><stop offset="0%" stop-color="#bfdbfe"/><stop offset="100%" stop-color="#93c5fd"/></linearGradient>
<linearGradient id="bldg_mint" x1="0" y1="0" x2="0" y2="1"><stop offset="0%" stop-color="#a7f3d0"/><stop offset="100%" stop-color="#6ee7b7"/></linearGradient>
<linearGradient id="bldg_rose" x1="0" y1="0" x2="0" y2="1"><stop offset="0%" stop-color="#fecdd3"/><stop offset="100%" stop-color="#fda4af"/></linearGradient>
<linearGradient id="bldg_sky" x1="0" y1="0" x2="0" y2="1"><stop offset="0%" stop-color="#bae6fd"/><stop offset="100%" stop-color="#7dd3fc"/></linearGradient>
<linearGradient id="roof_navyRoof" x1="0" y1="0" x2="0" y2="1"><stop offset="0%" stop-color="#4338ca"/><stop offset="100%" stop-color="#3730a3"/></linearGradient>
<linearGradient id="roof_coralRoof" x1="0" y1="0" x2="0" y2="1"><stop offset="0%" stop-color="#f87171"/><stop offset="100%" stop-color="#ef4444"/></linearGradient>
<linearGradient id="roof_tealRoof" x1="0" y1="0" x2="0" y2="1"><stop offset="0%" stop-color="#2dd4bf"/><stop offset="100%" stop-color="#14b8a6"/></linearGradient>
<radialGradient id="windowGlow" cx="50%" cy="50%" r="50%"><stop offset="0%" stop-color="#fef08a"/><stop offset="60%" stop-color="#fbbf24"/><stop offset="100%" stop-color="#f59e0b"/></radialGradient>
<linearGradient id="hillFar" x1="0" y1="0" x2="0" y2="1"><stop offset="0%" stop-color="#c4b5fd"/><stop offset="100%" stop-color="#a5b4fc"/></linearGradient>
<linearGradient id="hillMid" x1="0" y1="0" x2="0" y2="1"><stop offset="0%" stop-color="#86efac"/><stop offset="100%" stop-color="#4ade80"/></linearGradient>
<linearGradient id="hillNear" x1="0" y1="0" x2="0" y2="1"><stop offset="0%" stop-color="#34d399"/><stop offset="100%" stop-color="#10b981"/></linearGradient>
<linearGradient id="hillDesertFar" x1="0" y1="0" x2="0" y2="1"><stop offset="0%" stop-color="#fde68a"/><stop offset="100%" stop-color="#fcd34d"/></linearGradient>
<linearGradient id="hillDesertMid" x1="0" y1="0" x2="0" y2="1"><stop offset="0%" stop-color="#fcd34d"/><stop offset="100%" stop-color="#fbbf24"/></linearGradient>
<linearGradient id="hillDesertNear" x1="0" y1="0" x2="0" y2="1"><stop offset="0%" stop-color="#fbbf24"/><stop offset="100%" stop-color="#f59e0b"/></linearGradient>
<linearGradient id="groundGrad" x1="0" y1="0" x2="0" y2="1"><stop offset="0%" stop-color="#fef3c7"/><stop offset="100%" stop-color="#fde68a"/></linearGradient>
<linearGradient id="waterGrad" x1="0" y1="0" x2="0" y2="1"><stop offset="0%" stop-color="#bfdbfe"/><stop offset="100%" stop-color="#93c5fd"/></linearGradient>
<filter id="softGlow" x="-50%" y="-50%" width="200%" height="200%"><feGaussianBlur in="SourceGraphic" stdDeviation="12"/></filter>
</defs>
<rect width="1200" height="300" fill="url(#skyGrad)"/>
<circle cx="935.1" cy="36.7" r="45" fill="#fef08a" opacity="0.12" filter="url(#softGlow)"/>
<circle cx="935.1" cy="36.7" r="30" fill="#fde68a" opacity="0.18" filter="url(#softGlow)"/>
<circle cx="935.1" cy="36.7" r="16" fill="#fef9c3" opacity="0.25" filter="url(#softGlow)"/>
<ellipse cx="744.3" cy="44.3" rx="41.7" ry="14.6" fill="white" opacity="0.7"/>
<ellipse cx="718.2" cy="48.4" rx="29.2" ry="11.5" fill="white" opacity="0.6"/>
<ellipse cx="767.2" cy="47.4" rx="33.3" ry="12.5" fill="white" opacity="0.6"/>
<ellipse cx="887.5" cy="21.9" rx="44.2" ry="15.5" fill="white" opacity="0.4"/>
<ellipse cx="859.9" cy="26.3" rx="30.9" ry="12.2" fill="white" opacity="0.4"/>
<ellipse cx="911.8" cy="25.2" rx="35.4" ry="13.3" fill="white" opacity="0.4"/>
<ellipse cx="430.4" cy="52.7" rx="46.3" ry="16.2" fill="white" opacity="0.6"/>
<ellipse cx="401.5" cy="57.3" rx="32.4" ry="12.7" fill="white" opacity="0.6"/>
<ellipse cx="455.9" cy="56.1" rx="37.0" ry="13.9" fill="white" opacity="0.5"/>
<path d="M0 300 L0.0 187.6 C149.3 187.6, 149.3 190.1, 298.6 190.1 C402.0 190.1, 402.0 189.1, 505.3 189.1 C583.0 189.1, 583.0 179.3, 660.7 179.3 C804.9 179.3, 804.9 192.2, 949.0 192.2 C1074.5 192.2, 1074.5 194.4, 1200.0 194.4 L1200 300 Z" fill="url(#hillFar)" opacity="0.5"/>
<path d="M0 300 L0.0 212.9 C136.9 212.9, 136.9 204.6, 273.7 204.6 C416.2 204.6, 416.2 210.8, 558.7 210.8 C757.7 210.8, 757.7 214.8, 956.6 214.8 C1078.3 214.8, 1078.3 208.5, 1200.0 208.5 L1200 300 Z" fill="url(#hillMid)" opacity="0.7"/>
<path d="M0 300 L0.0 232.3 C158.0 232.3, 158.0 237.6, 316.0 237.6 C460.3 237.6, 460.3 235.3, 604.6 235.3 C731.2 235.3, 731.2 231.8, 857.8 231.8 C1028.9 231.8, 1028.9 235.7, 1200.0 235.7 L1200 300 Z" fill="url(#hillNear)" opacity="1"/>
<rect x="279.2" y="240.2" width="62.9" height="59.8" rx="3" fill="url(#bldg_sky)" opacity="0.7"/>
<polygon points="279.2,240.2 310.6,220.2 342.1,240.2" fill="url(#roof_tealRoof)" opacity="0.7"/>
<rect x="293.6" y="250.2" width="6" height="8" rx="1" fill="url(#windowGlow)" opacity="0.8703664922948771"/>
<rect x="307.6" y="250.2" width="6" height="8" rx="1" fill="url(#windowGlow)" opacity="0.9814344120591108"/>
<rect x="321.6" y="250.2" width="6" height="8" rx="1" fill="url(#windowGlow)" opacity="0.9988020532293254"/>
<rect x="918.7" y="211.5" width="46.6" height="88.5" rx="3" fill="url(#bldg_coral)" opacity="0.7"/>
<rect x="918.7" y="208.5" width="46.6" height="3" rx="1" fill="url(#roof_navyRoof)" opacity="0.7"/>
<rect x="932.0" y="221.5" width="6" height="8" rx="1" fill="url(#windowGlow)" opacity="0.9541908176402518"/>
<rect x="932.0" y="236.5" width="6" height="8" rx="1" fill="url(#windowGlow)" opacity="0.9888130137179107"/>
<rect x="946.0" y="236.5" width="6" height="8" rx="1" fill="url(#windowGlow)" opacity="0.9689947326057565"/>
<rect x="932.0" y="251.5" width="6" height="8" rx="1" fill="url(#windowGlow)" opacity="0.7461209556302618"/>
<rect x="946.0" y="251.5" width="6" height="8" rx="1" fill="url(#windowGlow)" opacity="0.9379726724875963"/>
<rect x="197.6" y="210.7" width="65.8" height="89.3" rx="3" fill="url(#bldg_teal)" opacity="0.85"/>
<polygon points="197.6,210.7 230.6,192.8 263.5,210.7" fill="url(#roof_coralRoof)" opacity="0.85"/>
<rect x="213.6" y="220.7" width="6" height="8" rx="1" fill="url(#windowGlow)" opacity="0.7216568633083519"/>
<rect x="227.6" y="220.7" width="6" height="8" rx="1" fill="url(#windowGlow)" opacity="0.7134713964599517"/>
<rect x="241.6" y="220.7" width="6" height="8" rx="1" fill="url(#windowGlow)" opacity="0.9095377666920132"/>
<rect x="213.6" y="235.7" width="6" height="8" rx="1" fill="url(#windowGlow)" opacity="0.8856948913008416"/>
<rect x="241.6" y="235.7" width="6" height="8" rx="1" fill="url(#windowGlow)" opacity="0.7676961807383672"/>
<rect x="227.6" y="250.7" width="6" height="8" rx="1" fill="url(#windowGlow)" opacity="0.9406927118267364"/>
<rect x="241.6" y="250.7" width="6" height="8" rx="1" fill="url(#windowGlow)" opacity="0.7654684003747386"/>
<rect x="571.7" y="196.1" width="75.7" height="103.9" rx="3" fill="url(#bldg_amber)" opacity="0.85"/>
<rect x="586.8" y="183.6" width="45.4" height="12.5" rx="2" fill="url(#roof_tealRoof)" opacity="0.85"/>
<rect x="599.5" y="206.1" width="6" height="8" rx="1" fill="url(#windowGlow)" opacity="0.7266729072326202"/>
<rect x="613.5" y="206.1" width="6" height="8" rx="1" fill="url(#windowGlow)" opacity="0.8644057140054207"/>
<rect x="627.5" y="206.1" width="6" height="8" rx="1" fill="url(#windowGlow)" opacity="0.9427218533785648"/>
<rect x="585.5" y="221.1" width="6" height="8" rx="1" fill="url(#windowGlow)" opacity="0.9408493867799869"/>
<rect x="599.5" y="221.1" width="6" height="8" rx="1" fill="url(#windowGlow)" opacity="0.9807586757376597"/>
<rect x="613.5" y="221.1" width="6" height="8" rx="1" fill="url(#windowGlow)" opacity="0.999519177991673"/>
<rect x="627.5" y="221.1" width="6" height="8" rx="1" fill="url(#windowGlow)" opacity="0.824863641255006"/>
<rect x="585.5" y="236.1" width="6" height="8" rx="1" fill="url(#windowGlow)" opacity="0.733427468097502"/>
<rect x="599.5" y="236.1" width="6" height="8" rx="1" fill="url(#windowGlow)" opacity="0.8467169621245548"/>
<rect x="613.5" y="236.1" width="6" height="8" rx="1" fill="url(#windowGlow)" opacity="0.89388360460004"/>
<rect x="627.5" y="236.1" width="6" height="8" rx="1" fill="url(#windowGlow)" opacity="0.9803424477485672"/>
<rect x="599.5" y="251.1" width="6" height="8" rx="1" fill="url(#windowGlow)" opacity="0.9824925183702691"/>
<rect x="613.5" y="251.1" width="6" height="8" rx="1" fill="url(#windowGlow)" opacity="0.862106692214546"/>
<rect x="627.5" y="251.1" width="6" height="8" rx="1" fill="url(#windowGlow)" opacity="0.7022792976360206"/>
<path d="M609.5 232.5 L639.8 232.5 L636.8 238.5 L612.5 238.5 Z" fill="url(#roof_coralRoof)" opacity="0.68"/>
<rect x="975.2" y="178.0" width="72.7" height="122.0" rx="3" fill="url(#bldg_lavender)" opacity="0.85"/>
<rect x="975.2" y="175.0" width="72.7" height="3" rx="1" fill="url(#roof_navyRoof)" opacity="0.85"/>
<rect x="1015.6" y="188.0" width="6" height="8" rx="1" fill="url(#windowGlow)" opacity="0.7268494158642597"/>
<rect x="1029.6" y="188.0" width="6" height="8" rx="1" fill="url(#windowGlow)" opacity="0.8799314163066128"/>
<rect x="987.6" y="203.0" width="6" height="8" rx="1" fill="url(#windowGlow)" opacity="0.7052985464713063"/>
<rect x="987.6" y="218.0" width="6" height="8" rx="1" fill="url(#windowGlow)" opacity="0.9083395515607388"/>
<rect x="1015.6" y="218.0" width="6" height="8" rx="1" fill="url(#windowGlow)" opacity="0.7089802102693264"/>
<rect x="1029.6" y="218.0" width="6" height="8" rx="1" fill="url(#windowGlow)" opacity="0.8309705400052343"/>
<rect x="987.6" y="233.0" width="6" height="8" rx="1" fill="url(#windowGlow)" opacity="0.7769109360766182"/>
<rect x="1001.6" y="233.0" width="6" height="8" rx="1" fill="url(#windowGlow)" opacity="0.9318299457113397"/>
<rect x="1015.6" y="233.0" width="6" height="8" rx="1" fill="url(#windowGlow)" opacity="0.7860171077707861"/>
<rect x="1029.6" y="233.0" width="6" height="8" rx="1" fill="url(#windowGlow)" opacity="0.9507543837422292"/>
<rect x="987.6" y="248.0" width="6" height="8" rx="1" fill="url(#windowGlow)" opacity="0.723568460682206"/>
<rect x="1015.6" y="248.0" width="6" height="8" rx="1" fill="url(#windowGlow)" opacity="0.9783256002135228"/>
<rect x="1029.6" y="248.0" width="6" height="8" rx="1" fill="url(#windowGlow)" opacity="0.8857798139498474"/>
<rect x="216.7" y="138.9" width="40.4" height="161.1" rx="3" fill="url(#bldg_blue)" opacity="1"/>
<rect x="224.8" y="119.5" width="24.2" height="19.3" rx="2" fill="url(#roof_coralRoof)" opacity="1"/>
<rect x="233.9" y="148.9" width="6" height="8" rx="1" fill="url(#windowGlow)" opacity="0.8761338376328972"/>
<rect x="233.9" y="163.9" width="6" height="8" rx="1" fill="url(#windowGlow)" opacity="0.9023538146178953"/>
<rect x="233.9" y="178.9" width="6" height="8" rx="1" fill="url(#windowGlow)" opacity="0.9967498518045758"/>
<rect x="233.9" y="193.9" width="6" height="8" rx="1" fill="url(#windowGlow)" opacity="0.8396098049076319"/>
<rect x="233.9" y="208.9" width="6" height="8" rx="1" fill="url(#windowGlow)" opacity="0.7547876138495223"/>
<rect x="233.9" y="223.9" width="6" height="8" rx="1" fill="url(#windowGlow)" opacity="0.922213602076384"/>
<rect x="233.9" y="253.9" width="6" height="8" rx="1" fill="url(#windowGlow)" opacity="0.9101099440409381"/>
<rect x="231.9" y="284.0" width="10" height="16" rx="2" fill="url(#roof_navyRoof)" opacity="0.8"/>
<rect x="233.9" y="287.0" width="6" height="10" rx="1" fill="url(#windowGlow)" opacity="0.45"/>
<path d="M236.9 195.3 L253.1 195.3 L250.1 201.3 L239.9 201.3 Z" fill="url(#roof_navyRoof)" opacity="0.8"/>
<rect x="588.7" y="156.1" width="43.0" height="143.9" rx="3" fill="url(#bldg_mint)" opacity="1"/>
<rect x="597.3" y="138.8" width="25.8" height="17.3" rx="2" fill="url(#roof_tealRoof)" opacity="1"/>
<rect x="607.2" y="166.1" width="6" height="8" rx="1" fill="url(#windowGlow)" opacity="0.971611992908461"/>
<rect x="607.2" y="181.1" width="6" height="8" rx="1" fill="url(#windowGlow)" opacity="0.8696789344165841"/>
<rect x="607.2" y="196.1" width="6" height="8" rx="1" fill="url(#windowGlow)" opacity="0.961742152721501"/>
<rect x="607.2" y="211.1" width="6" height="8" rx="1" fill="url(#windowGlow)" opacity="0.9414382498438647"/>
<rect x="607.2" y="226.1" width="6" height="8" rx="1" fill="url(#windowGlow)" opacity="0.7907321417661067"/>
<rect x="605.2" y="284.0" width="10" height="16" rx="2" fill="url(#roof_navyRoof)" opacity="0.8"/>
<rect x="607.2" y="287.0" width="6" height="10" rx="1" fill="url(#windowGlow)" opacity="0.45"/>
<rect x="602.7" y="182.1" width="15.1" height="5" rx="1" fill="#15803d" opacity="0.7"/>
<circle cx="605.7" cy="181.1" r="2.5" fill="#fbbf24" opacity="0.85"/>
<circle cx="610.7" cy="181.1" r="2.5" fill="#fb923c" opacity="0.85"/>
<circle cx="615.7" cy="181.1" r="2.5" fill="#a78bfa" opacity="0.85"/>
<rect x="910.5" y="183.3" width="65.0" height="116.7" rx="3" fill="url(#bldg_rose)" opacity="1"/>
<rect x="910.5" y="180.3" width="65.0" height="3" rx="1" fill="url(#roof_navyRoof)" opacity="1"/>
<rect x="940.0" y="193.3" width="6" height="8" rx="1" fill="url(#windowGlow)" opacity="0.9362828951963609"/>
<rect x="954.0" y="193.3" width="6" height="8" rx="1" fill="url(#windowGlow)" opacity="0.9024689021997474"/>
<rect x="926.0" y="208.3" width="6" height="8" rx="1" fill="url(#windowGlow)" opacity="0.932040231177602"/>
<rect x="940.0" y="208.3" width="6" height="8" rx="1" fill="url(#windowGlow)" opacity="0.9330365413488059"/>
<rect x="954.0" y="208.3" width="6" height="8" rx="1" fill="url(#windowGlow)" opacity="0.9923401796223317"/>
<rect x="926.0" y="223.3" width="6" height="8" rx="1" fill="url(#windowGlow)" opacity="0.8492262139214324"/>
<rect x="940.0" y="223.3" width="6" height="8" rx="1" fill="url(#windowGlow)" opacity="0.9757087319044901"/>
<rect x="954.0" y="223.3" width="6" height="8" rx="1" fill="url(#windowGlow)" opacity="0.7710808639279942"/>
<rect x="926.0" y="238.3" width="6" height="8" rx="1" fill="url(#windowGlow)" opacity="0.7458194318906494"/>
<rect x="940.0" y="238.3" width="6" height="8" rx="1" fill="url(#windowGlow)" opacity="0.8237360562308393"/>
<rect x="954.0" y="238.3" width="6" height="8" rx="1" fill="url(#windowGlow)" opacity="0.9684049974048533"/>
<rect x="926.0" y="253.3" width="6" height="8" rx="1" fill="url(#windowGlow)" opacity="0.7779839412206708"/>
<rect x="940.0" y="253.3" width="6" height="8" rx="1" fill="url(#windowGlow)" opacity="0.8290673777596407"/>
<rect x="938.0" y="284.0" width="10" height="16" rx="2" fill="url(#roof_navyRoof)" opacity="0.8"/>
<rect x="940.0" y="287.0" width="6" height="10" rx="1" fill="url(#windowGlow)" opacity="0.45"/>
<rect x="419.9" y="268.2" width="6" height="16.8" rx="2" fill="#15803d"/>
<circle cx="422.9" cy="256.3" r="15.9" fill="#22c55e" opacity="0.9"/>
<circle cx="416.3" cy="259.3" r="11.9" fill="#16a34a" opacity="0.8"/>
<circle cx="430.2" cy="260.3" r="11.1" fill="#15803d" opacity="0.7"/>
<rect x="768.1" y="265.2" width="6" height="19.8" rx="2" fill="#15803d"/>
<circle cx="771.1" cy="252.6" r="16.6" fill="#22c55e" opacity="0.9"/>
<circle cx="762.9" cy="255.6" r="12.4" fill="#16a34a" opacity="0.8"/>
<circle cx="777.8" cy="256.6" r="11.6" fill="#15803d" opacity="0.7"/>
<rect x="190.9" y="265.7" width="6" height="19.3" rx="2" fill="#15803d"/>
<circle cx="193.9" cy="252.6" r="17.1" fill="#22c55e" opacity="0.9"/>
<circle cx="187.1" cy="255.6" r="12.8" fill="#16a34a" opacity="0.8"/>
<circle cx="200.2" cy="256.6" r="12.0" fill="#15803d" opacity="0.7"/>
<rect x="1012.8" y="268.8" width="6" height="16.2" rx="2" fill="#15803d"/>
<circle cx="1015.8" cy="258.7" r="14.1" fill="#22c55e" opacity="0.9"/>
<circle cx="1008.1" cy="261.7" r="10.6" fill="#16a34a" opacity="0.8"/>
<circle cx="1021.3" cy="262.7" r="9.9" fill="#15803d" opacity="0.7"/>
<rect x="849.8" y="267.8" width="6" height="17.2" rx="2" fill="#15803d"/>
<circle cx="852.8" cy="257.7" r="14.2" fill="#22c55e" opacity="0.9"/>
<circle cx="846.6" cy="260.7" r="10.6" fill="#16a34a" opacity="0.8"/>
<circle cx="858.3" cy="261.7" r="9.9" fill="#15803d" opacity="0.7"/>
<rect x="725.9" y="264.9" width="6" height="20.1" rx="2" fill="#15803d"/>
<circle cx="728.9" cy="252.7" r="16.2" fill="#22c55e" opacity="0.9"/>
<circle cx="720.4" cy="255.7" r="12.1" fill="#16a34a" opacity="0.8"/>
<circle cx="736.6" cy="256.7" r="11.3" fill="#15803d" opacity="0.7"/>
<rect x="450.2" y="265.9" width="6" height="19.1" rx="2" fill="#15803d"/>
<circle cx="453.2" cy="252.3" r="17.6" fill="#22c55e" opacity="0.9"/>
<circle cx="445.0" cy="255.3" r="13.2" fill="#16a34a" opacity="0.8"/>
<circle cx="458.3" cy="256.3" r="12.3" fill="#15803d" opacity="0.7"/>
<rect x="452.5" y="265.6" width="6" height="19.4" rx="2" fill="#15803d"/>
<circle cx="455.5" cy="253.5" r="16.1" fill="#22c55e" opacity="0.9"/>
<circle cx="447.2" cy="256.5" r="12.1" fill="#16a34a" opacity="0.8"/>
<circle cx="461.6" cy="257.5" r="11.3" fill="#15803d" opacity="0.7"/>
<rect x="1123.6" y="268.1" width="6" height="16.9" rx="2" fill="#15803d"/>
<circle cx="1126.6" cy="255.6" r="16.5" fill="#22c55e" opacity="0.9"/>
<circle cx="1119.0" cy="258.6" r="12.4" fill="#16a34a" opacity="0.8"/>
<circle cx="1131.7" cy="259.6" r="11.6" fill="#15803d" opacity="0.7"/>
<rect x="0" y="282" width="1200" height="18" fill="url(#groundGrad)"/>
<line x1="592.9" y1="282.0" x2="592.9" y2="244.2" stroke="#92400e" stroke-width="2"/>
<circle cx="592.9" cy="244.2" r="4" fill="#fef08a" opacity="0.6"/>
<circle cx="592.9" cy="244.2" r="8" fill="#fef08a" opacity="0.15" filter="url(#softGlow)"/>
<line x1="1112.6" y1="282.0" x2="1112.6" y2="242.1" stroke="#92400e" stroke-width="2"/>
<circle cx="1112.6" cy="242.1" r="4" fill="#fef08a" opacity="0.6"/>
<circle cx="1112.6" cy="242.1" r="8" fill="#fef08a" opacity="0.15" filter="url(#softGlow)"/>
<ellipse cx="118.1" cy="282.0" rx="4.6" ry="3.2" fill="#22c55e" opacity="0.6"/>
<ellipse cx="1038.0" cy="282.0" rx="6.3" ry="4.4" fill="#22c55e" opacity="0.6"/>
<ellipse cx="863.6" cy="282.0" rx="5.6" ry="3.9" fill="#22c55e" opacity="0.6"/>
<ellipse cx="642.5" cy="282.0" rx="6.6" ry="4.6" fill="#22c55e" opacity="0.6"/>
</svg>