<svg xmlns="http://www.w3.org/2000/svg" viewBox="0 0 1200 300" width="1200" height="300">
<defs>
<linearGradient id="skyGrad" x1="0" y1="0" x2="0" y2="1">
<stop offset="0%" stop-color="#818cf8"/>
<stop offset="20%" stop-color="#c4b5fd"/>
<stop offset="38%" stop-color="#fda4af"/>
<stop offset="55%" stop-color="#fdba74"/>
<stop offset="75%" stop-color="#fef08a"/>
<stop offset="100%" stop-color="#fef9c3"/>
</linearGradient>
<linearGradient id="bldg_coral" x1="0" y1="0" x2="0" y2="1"><stop offset="0%" stop-color="#fecaca"/><stop offset="100%" stop-color="#fca5a5"/></linearGradient>
<linearGradient id="bldg_teal" x1="0" y1="0" x2="0" y2="1"><stop offset="0%" stop-color="#99f6e4"/><stop offset="100%" stop-color="#5eead4"/></linearGradient>
<linearGradient id="bldg_amber" x1="0" y1="0" x2="0" y2="1"><stop offset="0%" stop-color="#fde68a"/><stop offset="100%" stop-color="#fcd34d"/></linearGradient>
<linearGradient id="bldg_lavender" x1="0" y1="0" x2="0" y2="1"><stop offset="0%" stop-color="#ddd6fe"/><stop offset="100%" stop-color="#c4b5fd"/></linearGradient>
<linearGradient id="bldg_blue" x1="0" y1="0" x2="0" y2="1"><stop offset="0%" stop-color="#bfdbfe"/><stop offset="100%" stop-color="#93c5fd"/></linearGradient>
<linearGradient id="bldg_mint" x1="0" y1="0" x2="0" y2="1"><stop offset="0%" stop-color="#a7f3d0"/><stop offset="100%" stop-color="#6ee7b7"/></linearGradient>
<linearGradient id="bldg_rose" x1="0" y1="0" x2="0" y2="1"><stop offset="0%" stop-color="#fecdd3"/><stop offset="100%" stop-color="#fda4af"/></linearGradient>
<linearGradient id="bldg_sky" x1="0" y1="0" x2="0" y2="1"><stop offset="0%" stop-color="#bae6fd"/><stop offset="100%" stop-color="#7dd3fc"/></linearGradient>
<linearGradient id="roof_navyRoof" x1="0" y1="0" x2="0" y2="1"><stop offset="0%" stop-color="#4338ca"/><stop offset="100%" stop-color="#3730a3"/></linearGradient>
<linearGradient id="roof_coralRoof" x1="0" y1="0" x2="0" y2="1"><stop offset="0%" stop-color="#f87171"/><stop offset="100%" stop-color="#ef4444"/></linearGradient>
<linearGradient id="roof_tealRoof" x1="0" y1="0" x2="0" y2="1"><stop offset="0%" stop-color="#2dd4bf"/><stop offset="100%" stop-color="#14b8a6"/></linearGradient>
<radialGradient id="windowGlow" cx="50%" cy="50%" r="50%"><stop offset="0%" stop-color="#fef08a"/><stop offset="60%" stop-color="#fbbf24"/><stop offset="100%" stop-color="#f59e0b"/></radialGradient>
<linearGradient id="hillFar" x1="0" y1="0" x2="0" y2="1"><stop offset="0%" stop-color="#c4b5fd"/><stop offset="100%" stop-color="#a5b4fc"/></linearGradient>
<linearGradient id="hillMid" x1="0" y1="0" x2="0" y2="1"><stop offset="0%" stop-color="#86efac"/><stop offset="100%" stop-color="#4ade80"/></linearGradient>
<linearGradient id="hillNear" x1="0" y1="0" x2="0" y2="1"><stop offset="0%" stop-color="#34d399"/><stop offset="100%" stop-color="#10b981"/></linearGradient>
<linearGradient id="hillDesertFar" x1="0" y1="0" x2="0" y2="1"><stop offset="0%" stop-color="#fde68a"/><stop offset="100%" stop-color="#fcd34d"/></linearGradient>
<linearGradient id="hillDesertMid" x1="0" y1="0" x2="0" y2="1"><stop offset="0%" stop-color="#fcd34d"/><stop offset="100%" stop-color="#fbbf24"/></linearGradient>
<linearGradient id="hillDesertNear" x1="0" y1="0" x2="0" y2="1"><stop offset="0%" stop-color="#fbbf24"/><stop offset="100%" stop-color="#f59e0b"/></linearGradient>
<linearGradient id="groundGrad" x1="0" y1="0" x2="0" y2="1"><stop offset="0%" stop-color="#fef3c7"/><stop offset="100%" stop-color="#fde68a"/></linearGradient>
<linearGradient id="waterGrad" x1="0" y1="0" x2="0" y2="1"><stop offset="0%" stop-color="#bfdbfe"/><stop offset="100%" stop-color="#93c5fd"/></linearGradient>
<filter id="softGlow" x="-50%" y="-50%" width="200%" height="200%"><feGaussianBlur in="SourceGraphic" stdDeviation="12"/></filter>
</defs>
<rect width="1200" height="300" fill="url(#skyGrad)"/>
<circle cx="1075.5" cy="57.8" r="45" fill="#fef08a" opacity="0.12" filter="url(#softGlow)"/>
<circle cx="1075.5" cy="57.8" r="30" fill="#fde68a" opacity="0.18" filter="url(#softGlow)"/>
<circle cx="1075.5" cy="57.8" r="16" fill="#fef9c3" opacity="0.25" filter="url(#softGlow)"/>
<ellipse cx="465.8" cy="24.1" rx="31.1" ry="10.9" fill="white" opacity="0.4"/>
<ellipse cx="446.3" cy="27.2" rx="21.8" ry="8.6" fill="white" opacity="0.4"/>
<ellipse cx="482.9" cy="26.5" rx="24.9" ry="9.3" fill="white" opacity="0.4"/>
<ellipse cx="130.9" cy="49.1" rx="47.7" ry="16.7" fill="white" opacity="0.6"/>
<ellipse cx="101.0" cy="53.8" rx="33.4" ry="13.1" fill="white" opacity="0.5"/>
<ellipse cx="157.1" cy="52.7" rx="38.2" ry="14.3" fill="white" opacity="0.5"/>
<ellipse cx="791.1" cy="46.0" rx="34.9" ry="12.2" fill="white" opacity="0.5"/>
<ellipse cx="769.3" cy="49.5" rx="24.4" ry="9.6" fill="white" opacity="0.5"/>
<ellipse cx="810.3" cy="48.6" rx="27.9" ry="10.5" fill="white" opacity="0.4"/>
<path d="M0 300 L0.0 196.2 C154.0 196.2, 154.0 183.0, 308.0 183.0 C450.6 183.0, 450.6 184.5, 593.2 184.5 C737.6 184.5, 737.6 191.6, 882.0 191.6 C1041.0 191.6, 1041.0 198.0, 1200.0 198.0 L1200 300 Z" fill="url(#hillFar)" opacity="0.5"/>
<path d="M0 300 L0.0 206.2 C172.9 206.2, 172.9 212.8, 345.8 212.8 C482.9 212.8, 482.9 214.6, 620.0 214.6 C748.5 214.6, 748.5 213.5, 876.9 213.5 C1038.5 213.5, 1038.5 207.3, 1200.0 207.3 L1200 300 Z" fill="url(#hillMid)" opacity="0.7"/>
<path d="M0 300 L0.0 231.8 C114.7 231.8, 114.7 231.9, 229.4 231.9 C335.6 231.9, 335.6 230.9, 441.8 230.9 C600.4 230.9, 600.4 235.9, 759.1 235.9 C861.1 235.9, 861.1 232.8, 963.1 232.8 C1081.6 232.8, 1081.6 238.0, 1200.0 238.0 L1200 300 Z" fill="url(#hillNear)" opacity="1"/>
<rect x="144.8" y="233.2" width="77.1" height="66.8" rx="3" fill="url(#bldg_rose)" opacity="0.7"/>
<rect x="144.8" y="230.2" width="77.1" height="3" rx="1" fill="url(#roof_navyRoof)" opacity="0.7"/>
<rect x="159.3" y="243.2" width="6" height="8" rx="1" fill="url(#windowGlow)" opacity="0.7113428075385013"/>
<rect x="201.3" y="243.2" width="6" height="8" rx="1" fill="url(#windowGlow)" opacity="0.8323489110136166"/>
<rect x="159.3" y="258.2" width="6" height="8" rx="1" fill="url(#windowGlow)" opacity="0.8637769544794116"/>
<rect x="173.3" y="258.2" width="6" height="8" rx="1" fill="url(#windowGlow)" opacity="0.7797726125362201"/>
<rect x="201.3" y="258.2" width="6" height="8" rx="1" fill="url(#windowGlow)" opacity="0.8715362318658904"/>
<rect x="420.4" y="222.2" width="89.1" height="77.8" rx="3" fill="url(#bldg_sky)" opacity="0.7"/>
<rect x="420.4" y="219.2" width="89.1" height="3" rx="1" fill="url(#roof_coralRoof)" opacity="0.7"/>
<rect x="441.0" y="232.2" width="6" height="8" rx="1" fill="url(#windowGlow)" opacity="0.8603741174844904"/>
<rect x="455.0" y="232.2" width="6" height="8" rx="1" fill="url(#windowGlow)" opacity="0.9761153561883211"/>
<rect x="469.0" y="232.2" width="6" height="8" rx="1" fill="url(#windowGlow)" opacity="0.8733049493624385"/>
<rect x="483.0" y="232.2" width="6" height="8" rx="1" fill="url(#windowGlow)" opacity="0.8338664713473368"/>
<rect x="441.0" y="247.2" width="6" height="8" rx="1" fill="url(#windowGlow)" opacity="0.7950287388614512"/>
<rect x="455.0" y="247.2" width="6" height="8" rx="1" fill="url(#windowGlow)" opacity="0.9146788233493821"/>
<rect x="483.0" y="247.2" width="6" height="8" rx="1" fill="url(#windowGlow)" opacity="0.8751857639174841"/>
<rect x="720.3" y="234.4" width="69.4" height="65.6" rx="3" fill="url(#bldg_coral)" opacity="0.7"/>
<polygon points="720.3,234.4 755.0,213.4 789.6,234.4" fill="url(#roof_tealRoof)" opacity="0.7"/>
<rect x="738.0" y="244.4" width="6" height="8" rx="1" fill="url(#windowGlow)" opacity="0.7684548450952651"/>
<rect x="752.0" y="244.4" width="6" height="8" rx="1" fill="url(#windowGlow)" opacity="0.7643050500491191"/>
<rect x="766.0" y="244.4" width="6" height="8" rx="1" fill="url(#windowGlow)" opacity="0.933120321963504"/>
<rect x="752.0" y="259.4" width="6" height="8" rx="1" fill="url(#windowGlow)" opacity="0.9800774346012981"/>
<rect x="766.0" y="259.4" width="6" height="8" rx="1" fill="url(#windowGlow)" opacity="0.8911165492102114"/>
<rect x="943.3" y="193.5" width="86.9" height="106.5" rx="3" fill="url(#bldg_teal)" opacity="0.7"/>
<rect x="943.3" y="190.5" width="86.9" height="3" rx="1" fill="url(#roof_navyRoof)" opacity="0.7"/>
<rect x="962.7" y="203.5" width="6" height="8" rx="1" fill="url(#windowGlow)" opacity="0.9720847600475349"/>
<rect x="990.7" y="203.5" width="6" height="8" rx="1" fill="url(#windowGlow)" opacity="0.7001454283949664"/>
<rect x="1004.7" y="203.5" width="6" height="8" rx="1" fill="url(#windowGlow)" opacity="0.9640394834634101"/>
<rect x="962.7" y="218.5" width="6" height="8" rx="1" fill="url(#windowGlow)" opacity="0.9004344251474525"/>
<rect x="990.7" y="218.5" width="6" height="8" rx="1" fill="url(#windowGlow)" opacity="0.8331742852615072"/>
<rect x="1004.7" y="218.5" width="6" height="8" rx="1" fill="url(#windowGlow)" opacity="0.7658925654673449"/>
<rect x="962.7" y="233.5" width="6" height="8" rx="1" fill="url(#windowGlow)" opacity="0.9459934620400859"/>
<rect x="976.7" y="233.5" width="6" height="8" rx="1" fill="url(#windowGlow)" opacity="0.8614000902331435"/>
<rect x="990.7" y="233.5" width="6" height="8" rx="1" fill="url(#windowGlow)" opacity="0.9769600328416377"/>
<rect x="962.7" y="248.5" width="6" height="8" rx="1" fill="url(#windowGlow)" opacity="0.7566429664178951"/>
<rect x="976.7" y="248.5" width="6" height="8" rx="1" fill="url(#windowGlow)" opacity="0.9746090044149238"/>
<rect x="990.7" y="248.5" width="6" height="8" rx="1" fill="url(#windowGlow)" opacity="0.957589627410094"/>
<rect x="145.5" y="157.9" width="61.3" height="142.1" rx="3" fill="url(#bldg_amber)" opacity="0.85"/>
<rect x="145.5" y="154.9" width="61.3" height="3" rx="1" fill="url(#roof_coralRoof)" opacity="0.85"/>
<rect x="173.2" y="167.9" width="6" height="8" rx="1" fill="url(#windowGlow)" opacity="0.7446196397042925"/>
<rect x="187.2" y="167.9" width="6" height="8" rx="1" fill="url(#windowGlow)" opacity="0.8358533122278067"/>
<rect x="159.2" y="182.9" width="6" height="8" rx="1" fill="url(#windowGlow)" opacity="0.9103548754054842"/>
<rect x="173.2" y="182.9" width="6" height="8" rx="1" fill="url(#windowGlow)" opacity="0.9860064558154001"/>
<rect x="187.2" y="182.9" width="6" height="8" rx="1" fill="url(#windowGlow)" opacity="0.7353574142955976"/>
<rect x="173.2" y="197.9" width="6" height="8" rx="1" fill="url(#windowGlow)" opacity="0.769053438570841"/>
<rect x="187.2" y="197.9" width="6" height="8" rx="1" fill="url(#windowGlow)" opacity="0.7478914635013283"/>
<rect x="159.2" y="212.9" width="6" height="8" rx="1" fill="url(#windowGlow)" opacity="0.8666830265273726"/>
<rect x="173.2" y="212.9" width="6" height="8" rx="1" fill="url(#windowGlow)" opacity="0.9096783333037413"/>
<rect x="187.2" y="212.9" width="6" height="8" rx="1" fill="url(#windowGlow)" opacity="0.8791331037316159"/>
<rect x="159.2" y="227.9" width="6" height="8" rx="1" fill="url(#windowGlow)" opacity="0.9111040888871551"/>
<rect x="173.2" y="227.9" width="6" height="8" rx="1" fill="url(#windowGlow)" opacity="0.9609070634287349"/>
<rect x="187.2" y="227.9" width="6" height="8" rx="1" fill="url(#windowGlow)" opacity="0.8521581921969346"/>
<rect x="159.2" y="242.9" width="6" height="8" rx="1" fill="url(#windowGlow)" opacity="0.7870306069902286"/>
<rect x="173.2" y="242.9" width="6" height="8" rx="1" fill="url(#windowGlow)" opacity="0.7425064662203688"/>
<rect x="159.2" y="257.9" width="6" height="8" rx="1" fill="url(#windowGlow)" opacity="0.8645246689973979"/>
<rect x="173.2" y="257.9" width="6" height="8" rx="1" fill="url(#windowGlow)" opacity="0.9038330995495585"/>
<rect x="187.2" y="257.9" width="6" height="8" rx="1" fill="url(#windowGlow)" opacity="0.8909204337703625"/>
<rect x="413.1" y="172.1" width="69.7" height="127.9" rx="3" fill="url(#bldg_lavender)" opacity="0.85"/>
<rect x="413.1" y="169.1" width="69.7" height="3" rx="1" fill="url(#roof_tealRoof)" opacity="0.85"/>
<rect x="431.0" y="182.1" width="6" height="8" rx="1" fill="url(#windowGlow)" opacity="0.7936882229026817"/>
<rect x="445.0" y="182.1" width="6" height="8" rx="1" fill="url(#windowGlow)" opacity="0.9083163817451877"/>
<rect x="459.0" y="182.1" width="6" height="8" rx="1" fill="url(#windowGlow)" opacity="0.7124901591858315"/>
<rect x="445.0" y="197.1" width="6" height="8" rx="1" fill="url(#windowGlow)" opacity="0.8743815430786375"/>
<rect x="459.0" y="197.1" width="6" height="8" rx="1" fill="url(#windowGlow)" opacity="0.7300956107350511"/>
<rect x="431.0" y="212.1" width="6" height="8" rx="1" fill="url(#windowGlow)" opacity="0.9575292855303404"/>
<rect x="445.0" y="212.1" width="6" height="8" rx="1" fill="url(#windowGlow)" opacity="0.7133379203795166"/>
<rect x="459.0" y="212.1" width="6" height="8" rx="1" fill="url(#windowGlow)" opacity="0.7722823281643364"/>
<rect x="431.0" y="227.1" width="6" height="8" rx="1" fill="url(#windowGlow)" opacity="0.8137213189218758"/>
<rect x="445.0" y="227.1" width="6" height="8" rx="1" fill="url(#windowGlow)" opacity="0.9111163239512202"/>
<rect x="459.0" y="227.1" width="6" height="8" rx="1" fill="url(#windowGlow)" opacity="0.9712033773638323"/>
<rect x="431.0" y="242.1" width="6" height="8" rx="1" fill="url(#windowGlow)" opacity="0.8325736672769177"/>
<rect x="445.0" y="242.1" width="6" height="8" rx="1" fill="url(#windowGlow)" opacity="0.7949273049807768"/>
<rect x="459.0" y="242.1" width="6" height="8" rx="1" fill="url(#windowGlow)" opacity="0.7477258971648877"/>
<rect x="431.0" y="257.1" width="6" height="8" rx="1" fill="url(#windowGlow)" opacity="0.9378679460556563"/>
<rect x="445.0" y="257.1" width="6" height="8" rx="1" fill="url(#windowGlow)" opacity="0.797847036736946"/>
<rect x="459.0" y="257.1" width="6" height="8" rx="1" fill="url(#windowGlow)" opacity="0.8861262124432838"/>
<rect x="717.6" y="203.6" width="63.5" height="96.4" rx="3" fill="url(#bldg_blue)" opacity="0.85"/>
<rect x="717.6" y="200.6" width="63.5" height="3" rx="1" fill="url(#roof_navyRoof)" opacity="0.85"/>
<rect x="746.4" y="213.6" width="6" height="8" rx="1" fill="url(#windowGlow)" opacity="0.8552025395236921"/>
<rect x="760.4" y="213.6" width="6" height="8" rx="1" fill="url(#windowGlow)" opacity="0.776480816060901"/>
<rect x="732.4" y="228.6" width="6" height="8" rx="1" fill="url(#windowGlow)" opacity="0.9042704404351629"/>
<rect x="746.4" y="228.6" width="6" height="8" rx="1" fill="url(#windowGlow)" opacity="0.8506304513433158"/>
<rect x="760.4" y="228.6" width="6" height="8" rx="1" fill="url(#windowGlow)" opacity="0.833647061760373"/>
<rect x="746.4" y="243.6" width="6" height="8" rx="1" fill="url(#windowGlow)" opacity="0.9197231893053852"/>
<rect x="760.4" y="243.6" width="6" height="8" rx="1" fill="url(#windowGlow)" opacity="0.966638770311437"/>
<rect x="732.4" y="258.6" width="6" height="8" rx="1" fill="url(#windowGlow)" opacity="0.8105591246907409"/>
<rect x="746.4" y="258.6" width="6" height="8" rx="1" fill="url(#windowGlow)" opacity="0.9379140333914728"/>
<rect x="760.4" y="258.6" width="6" height="8" rx="1" fill="url(#windowGlow)" opacity="0.9276569948194813"/>
<rect x="959.2" y="207.7" width="79.8" height="92.3" rx="3" fill="url(#bldg_mint)" opacity="0.85"/>
<rect x="975.1" y="196.6" width="47.9" height="11.1" rx="2" fill="url(#roof_coralRoof)" opacity="0.85"/>
<rect x="975.1" y="217.7" width="6" height="8" rx="1" fill="url(#windowGlow)" opacity="0.7884630789926569"/>
<rect x="989.1" y="217.7" width="6" height="8" rx="1" fill="url(#windowGlow)" opacity="0.7376533356204877"/>
<rect x="1003.1" y="217.7" width="6" height="8" rx="1" fill="url(#windowGlow)" opacity="0.7102489437489998"/>
<rect x="1017.1" y="217.7" width="6" height="8" rx="1" fill="url(#windowGlow)" opacity="0.7581403660393042"/>
<rect x="975.1" y="232.7" width="6" height="8" rx="1" fill="url(#windowGlow)" opacity="0.9031168135363221"/>
<rect x="1003.1" y="232.7" width="6" height="8" rx="1" fill="url(#windowGlow)" opacity="0.8297815171674738"/>
<rect x="1017.1" y="232.7" width="6" height="8" rx="1" fill="url(#windowGlow)" opacity="0.7009820505981249"/>
<rect x="975.1" y="247.7" width="6" height="8" rx="1" fill="url(#windowGlow)" opacity="0.9287686225160809"/>
<path d="M999.1 240.0 L1031.0 240.0 L1028.0 246.0 L1002.1 246.0 Z" fill="url(#roof_navyRoof)" opacity="0.68"/>
<rect x="145.7" y="199.5" width="51.1" height="100.5" rx="3" fill="url(#bldg_rose)" opacity="1"/>
<rect x="145.7" y="196.5" width="51.1" height="3" rx="1" fill="url(#roof_tealRoof)" opacity="1"/>
<rect x="161.2" y="224.5" width="6" height="8" rx="1" fill="url(#windowGlow)" opacity="0.9100066478410767"/>
<rect x="175.2" y="224.5" width="6" height="8" rx="1" fill="url(#windowGlow)" opacity="0.8765304824228074"/>
<rect x="175.2" y="239.5" width="6" height="8" rx="1" fill="url(#windowGlow)" opacity="0.9784036062557266"/>
<rect x="161.2" y="254.5" width="6" height="8" rx="1" fill="url(#windowGlow)" opacity="0.8766152417643998"/>
<rect x="175.2" y="254.5" width="6" height="8" rx="1" fill="url(#windowGlow)" opacity="0.8677617204691105"/>
<rect x="166.2" y="284.0" width="10" height="16" rx="2" fill="url(#roof_navyRoof)" opacity="0.8"/>
<rect x="168.2" y="287.0" width="6" height="10" rx="1" fill="url(#windowGlow)" opacity="0.45"/>
<rect x="432.3" y="143.1" width="60.3" height="156.9" rx="3" fill="url(#bldg_sky)" opacity="1"/>
<polygon points="432.3,143.1 462.4,129.7 492.6,143.1" fill="url(#roof_navyRoof)" opacity="1"/>
<rect x="445.4" y="153.1" width="6" height="8" rx="1" fill="url(#windowGlow)" opacity="0.7608686523329786"/>
<rect x="473.4" y="153.1" width="6" height="8" rx="1" fill="url(#windowGlow)" opacity="0.9938684655790535"/>
<rect x="473.4" y="168.1" width="6" height="8" rx="1" fill="url(#windowGlow)" opacity="0.8139302234695899"/>
<rect x="445.4" y="183.1" width="6" height="8" rx="1" fill="url(#windowGlow)" opacity="0.9941045745714123"/>
<rect x="473.4" y="183.1" width="6" height="8" rx="1" fill="url(#windowGlow)" opacity="0.7286173794086171"/>
<rect x="445.4" y="198.1" width="6" height="8" rx="1" fill="url(#windowGlow)" opacity="0.8160368199534885"/>
<rect x="473.4" y="198.1" width="6" height="8" rx="1" fill="url(#windowGlow)" opacity="0.930671052183337"/>
<rect x="445.4" y="213.1" width="6" height="8" rx="1" fill="url(#windowGlow)" opacity="0.9763969069702536"/>
<rect x="459.4" y="213.1" width="6" height="8" rx="1" fill="url(#windowGlow)" opacity="0.9283138179352105"/>
<rect x="473.4" y="213.1" width="6" height="8" rx="1" fill="url(#windowGlow)" opacity="0.8261659893794757"/>
<rect x="445.4" y="228.1" width="6" height="8" rx="1" fill="url(#windowGlow)" opacity="0.9078482127784976"/>
<rect x="459.4" y="228.1" width="6" height="8" rx="1" fill="url(#windowGlow)" opacity="0.9663314493681916"/>
<rect x="473.4" y="228.1" width="6" height="8" rx="1" fill="url(#windowGlow)" opacity="0.9814144631295532"/>
<rect x="445.4" y="258.1" width="6" height="8" rx="1" fill="url(#windowGlow)" opacity="0.7252252765582992"/>
<rect x="459.4" y="258.1" width="6" height="8" rx="1" fill="url(#windowGlow)" opacity="0.7099241293547321"/>
<rect x="473.4" y="258.1" width="6" height="8" rx="1" fill="url(#windowGlow)" opacity="0.8104446857284962"/>
<rect x="457.4" y="284.0" width="10" height="16" rx="2" fill="url(#roof_navyRoof)" opacity="0.8"/>
<rect x="459.4" y="287.0" width="6" height="10" rx="1" fill="url(#windowGlow)" opacity="0.45"/>
<path d="M462.4 198.0 L486.5 198.0 L483.5 204.0 L465.4 204.0 Z" fill="url(#roof_tealRoof)" opacity="0.8"/>
<rect x="451.9" y="169.1" width="21.1" height="5" rx="1" fill="#15803d" opacity="0.7"/>
<circle cx="454.9" cy="168.1" r="2.5" fill="#a78bfa" opacity="0.85"/>
<circle cx="461.9" cy="168.1" r="2.5" fill="#fb923c" opacity="0.85"/>
<circle cx="468.9" cy="168.1" r="2.5" fill="#a78bfa" opacity="0.85"/>
<rect x="703.7" y="214.2" width="44.3" height="85.8" rx="3" fill="url(#bldg_coral)" opacity="1"/>
<rect x="703.7" y="211.2" width="44.3" height="3" rx="1" fill="url(#roof_coralRoof)" opacity="1"/>
<rect x="715.8" y="224.2" width="6" height="8" rx="1" fill="url(#windowGlow)" opacity="0.7366711819249536"/>
<rect x="729.8" y="224.2" width="6" height="8" rx="1" fill="url(#windowGlow)" opacity="0.9849932523374414"/>
<rect x="715.8" y="239.2" width="6" height="8" rx="1" fill="url(#windowGlow)" opacity="0.9555278421172535"/>
<rect x="729.8" y="239.2" width="6" height="8" rx="1" fill="url(#windowGlow)" opacity="0.7936905375652437"/>
<rect x="715.8" y="254.2" width="6" height="8" rx="1" fill="url(#windowGlow)" opacity="0.8307273751267825"/>
<rect x="729.8" y="254.2" width="6" height="8" rx="1" fill="url(#windowGlow)" opacity="0.9069902164428449"/>
<rect x="720.8" y="284.0" width="10" height="16" rx="2" fill="url(#roof_navyRoof)" opacity="0.8"/>
<rect x="722.8" y="287.0" width="6" height="10" rx="1" fill="url(#windowGlow)" opacity="0.45"/>
<rect x="984.2" y="217.4" width="39.1" height="82.6" rx="3" fill="url(#bldg_teal)" opacity="1"/>
<polygon points="984.2,217.4 1003.8,207.2 1023.4,217.4" fill="url(#roof_tealRoof)" opacity="1"/>
<rect x="1000.8" y="227.4" width="6" height="8" rx="1" fill="url(#windowGlow)" opacity="0.7565299914947384"/>
<rect x="1000.8" y="242.4" width="6" height="8" rx="1" fill="url(#windowGlow)" opacity="0.8671429627887639"/>
<rect x="1000.8" y="257.4" width="6" height="8" rx="1" fill="url(#windowGlow)" opacity="0.7432638846073597"/>
<rect x="998.8" y="284.0" width="10" height="16" rx="2" fill="url(#roof_navyRoof)" opacity="0.8"/>
<rect x="1000.8" y="287.0" width="6" height="10" rx="1" fill="url(#windowGlow)" opacity="0.45"/>
<rect x="311.5" y="263.3" width="6" height="21.7" rx="2" fill="#15803d"/>
<circle cx="314.5" cy="253.6" r="13.7" fill="#22c55e" opacity="0.9"/>
<circle cx="306.0" cy="256.6" r="10.3" fill="#16a34a" opacity="0.8"/>
<circle cx="321.4" cy="257.6" r="9.6" fill="#15803d" opacity="0.7"/>
<rect x="595.1" y="264.7" width="6" height="20.3" rx="2" fill="#15803d"/>
<circle cx="598.1" cy="252.4" r="16.2" fill="#22c55e" opacity="0.9"/>
<circle cx="590.8" cy="255.4" r="12.2" fill="#16a34a" opacity="0.8"/>
<circle cx="605.1" cy="256.4" r="11.3" fill="#15803d" opacity="0.7"/>
<rect x="863.1" y="263.2" width="6" height="21.8" rx="2" fill="#15803d"/>
<circle cx="866.1" cy="250.7" r="16.5" fill="#22c55e" opacity="0.9"/>
<circle cx="858.8" cy="253.7" r="12.4" fill="#16a34a" opacity="0.8"/>
<circle cx="872.1" cy="254.7" r="11.6" fill="#15803d" opacity="0.7"/>
<rect x="109.5" y="268.7" width="6" height="16.3" rx="2" fill="#15803d"/>
<circle cx="112.5" cy="255.4" r="17.3" fill="#22c55e" opacity="0.9"/>
<circle cx="103.8" cy="258.4" r="13.0" fill="#16a34a" opacity="0.8"/>
<circle cx="120.1" cy="259.4" r="12.1" fill="#15803d" opacity="0.7"/>
<rect x="0" y="282" width="1200" height="18" fill="url(#groundGrad)"/>
<line x1="658.7" y1="282.0" x2="658.7" y2="252.0" stroke="#92400e" stroke-width="2"/>
<circle cx="658.7" cy="252.0" r="4" fill="#fef08a" opacity="0.6"/>
<circle cx="658.7" cy="252.0" r="8" fill="#fef08a" opacity="0.15" filter="url(#softGlow)"/>
<ellipse cx="652.1" cy="282.0" rx="5.6" ry="3.9" fill="#22c55e" opacity="0.6"/>
<ellipse cx="239.5" cy="282.0" rx="5.5" ry="3.9" fill="#22c55e" opacity="0.6"/>
<ellipse cx="118.3" cy="282.0" rx="4.2" ry="3.0" fill="#22c55e" opacity="0.6"/>
</svg>