<svg xmlns="http://www.w3.org/2000/svg" viewBox="0 0 1200 400" width="1200" height="400">
<defs>
<linearGradient id="bg" x1="0" y1="0" x2="0" y2="1"><stop offset="0%" stop-color="#166534"/><stop offset="100%" stop-color="#3b82f6"/></linearGradient>
<linearGradient id="warm" x1="0" y1="0" x2="1" y2="1"><stop offset="0%" stop-color="#c1964d" stop-opacity="0.18"/><stop offset="100%" stop-color="#c1964d" stop-opacity="0.06"/></linearGradient>
</defs>
<rect width="1200" height="400" fill="url(#bg)"/>
<path d="M0 400 L0 250.0769094500018 C60.0 250.5, 90.0 258.3, 150.0 251.9 C210.0 255.9, 240.0 255.3, 300.0 249.8 C360.0 246.8, 390.0 226.1, 450.0 230.3 C510.0 228.2, 540.0 213.2, 600.0 222.8 C660.0 223.9, 690.0 226.0, 750.0 221.8 C810.0 220.9, 840.0 223.6, 900.0 221.2 C960.0 218.8, 990.0 210.0, 1050.0 216.6 C1110.0 209.8, 1140.0 253.1, 1200.0 250.2 L1200 400 Z" fill="#2e78b2" opacity="0.45"/>
<path d="M0 400 L0 271.07175700005627 C52.5 272.0, 97.5 272.2, 150.0 273.5 C202.5 277.1, 247.5 253.8, 300.0 258.5 C352.5 264.0, 397.5 274.1, 450.0 269.2 C502.5 265.5, 547.5 255.3, 600.0 254.9 C652.5 256.9, 697.5 258.0, 750.0 262.0 C802.5 267.9, 847.5 260.2, 900.0 257.0 C952.5 257.8, 997.5 272.8, 1050.0 276.7 C1102.5 283.9, 1147.5 267.5, 1200.0 266.5 L1200 400 Z" fill="#3b82f6" opacity="0.3"/>
<rect x="805.2" y="308.9" width="28.7" height="91.1" rx="4.1" fill="#7a868b" opacity="0.51"/>
<rect x="810.2" y="318.9" width="4" height="5" rx="0.5" fill="#166534" opacity="0.6"/>
<rect x="810.2" y="340.9" width="4" height="5" rx="0.5" fill="#166534" opacity="0.6"/>
<rect x="810.2" y="362.9" width="4" height="5" rx="0.5" fill="#166534" opacity="0.6"/>
<rect x="888.9" y="333.0" width="40.2" height="67.0" rx="5.9" fill="#948760" opacity="0.64"/>
<rect x="467.7" y="347.5" width="49.8" height="52.5" rx="5.0" fill="#aa883a" opacity="0.63"/>
<rect x="904.2" y="309.7" width="36.0" height="90.3" rx="4.2" fill="#b0892f" opacity="0.59"/>
<rect x="948.4" y="344.6" width="22.2" height="55.4" rx="3.6" fill="#7b868a" opacity="0.77"/>
<rect x="285.5" y="359.6" width="13.4" height="40.4" rx="4.1" fill="#a48844" opacity="0.63"/>
<rect x="375.3" y="341.3" width="32.7" height="58.7" rx="3.8" fill="#95875e" opacity="0.70"/>
<rect x="633.2" y="302.0" width="48.5" height="98.0" rx="7.5" fill="#7b868a" opacity="0.68"/>
<rect x="638.2" y="312.0" width="4" height="5" rx="0.5" fill="#166534" opacity="0.6"/>
<rect x="654.4" y="312.0" width="4" height="5" rx="0.5" fill="#166534" opacity="0.6"/>
<rect x="638.2" y="334.0" width="4" height="5" rx="0.5" fill="#166534" opacity="0.6"/>
<rect x="638.2" y="356.0" width="4" height="5" rx="0.5" fill="#166534" opacity="0.6"/>
<rect x="654.4" y="356.0" width="4" height="5" rx="0.5" fill="#166534" opacity="0.6"/>
<rect x="680.6" y="328.7" width="13.3" height="71.3" rx="3.4" fill="#8f8767" opacity="0.60"/>
<rect x="325.8" y="316.4" width="20.7" height="83.6" rx="6.4" fill="#878675" opacity="0.55"/>
<rect x="330.8" y="326.4" width="4" height="5" rx="0.5" fill="#166534" opacity="0.6"/>
<rect x="330.8" y="348.4" width="4" height="5" rx="0.5" fill="#166534" opacity="0.6"/>
<rect x="330.8" y="370.4" width="4" height="5" rx="0.5" fill="#166534" opacity="0.6"/>
<rect x="990.7" y="283.8" width="39.3" height="116.2" rx="3.4" fill="#8a8671" opacity="0.50"/>
<rect x="761.4" y="308.8" width="45.4" height="91.2" rx="3.9" fill="#8f8768" opacity="0.66"/>
<rect x="781.5" y="318.8" width="4" height="5" rx="0.5" fill="#166534" opacity="0.6"/>
<rect x="766.4" y="340.8" width="4" height="5" rx="0.5" fill="#166534" opacity="0.6"/>
<rect x="781.5" y="340.8" width="4" height="5" rx="0.5" fill="#166534" opacity="0.6"/>
<rect x="766.4" y="362.8" width="4" height="5" rx="0.5" fill="#166534" opacity="0.6"/>
<rect x="781.5" y="362.8" width="4" height="5" rx="0.5" fill="#166534" opacity="0.6"/>
<rect x="785.0" y="355.1" width="47.1" height="44.9" rx="3.9" fill="#b48928" opacity="0.82"/>
<rect x="171.2" y="273.0" width="36.6" height="127.0" rx="7.7" fill="#c48a0e" opacity="0.58"/>
<line x1="989.5" y1="108.7" x2="1066.7" y2="108.7" stroke="#166534" stroke-width="1.9" opacity="0.36"/>
<line x1="141.4" y1="33.3" x2="171.0" y2="33.3" stroke="#166534" stroke-width="1.5" opacity="0.22"/>
<rect width="1200" height="400" fill="url(#warm)"/>
<rect width="1200" height="400" fill="#166534" opacity="0.41"/>
</svg>