<svg xmlns="http://www.w3.org/2000/svg" viewBox="0 0 1200 300" width="1200" height="300">
<rect width="1200" height="300" fill="#e6eef4"/>
<path d="M0 300 L0 210.0 C384.8 162.8, 866.4 196.6, 1200 210.0 L1200 300 Z" fill="#b5cad8" opacity="0.3"/>
<rect x="95.0" y="240.7" width="47.2" height="59.3" fill="#99b6c9"/>
<rect x="331.9" y="185.4" width="83.2" height="114.6" fill="#99b6c9"/>
<rect x="581.5" y="217.5" width="75.0" height="82.5" fill="#99b6c9"/>
<rect x="793.5" y="240.4" width="54.4" height="59.6" fill="#99b6c9"/>
<rect x="1036.8" y="210.5" width="67.7" height="89.5" fill="#99b6c9"/>
<rect x="104.3" y="207.1" width="63.0" height="92.9" fill="#6a95b1"/>
<rect x="118.8" y="219.1" width="6" height="8" fill="#9ebacc" opacity="0.5"/>
<rect x="132.8" y="219.1" width="6" height="8" fill="#9ebacc" opacity="0.5"/>
<rect x="146.8" y="219.1" width="6" height="8" fill="#9ebacc" opacity="0.5"/>
<rect x="132.8" y="235.1" width="6" height="8" fill="#9ebacc" opacity="0.5"/>
<rect x="118.8" y="251.1" width="6" height="8" fill="#9ebacc" opacity="0.5"/>
<rect x="132.8" y="251.1" width="6" height="8" fill="#9ebacc" opacity="0.5"/>
<rect x="146.8" y="251.1" width="6" height="8" fill="#9ebacc" opacity="0.5"/>
<rect x="118.8" y="267.1" width="6" height="8" fill="#9ebacc" opacity="0.5"/>
<rect x="132.8" y="267.1" width="6" height="8" fill="#9ebacc" opacity="0.5"/>
<rect x="146.8" y="267.1" width="6" height="8" fill="#9ebacc" opacity="0.5"/>
<rect x="360.8" y="155.1" width="42.4" height="144.9" fill="#6a95b1"/>
<rect x="379.0" y="167.1" width="6" height="8" fill="#9ebacc" opacity="0.5"/>
<rect x="379.0" y="183.1" width="6" height="8" fill="#9ebacc" opacity="0.5"/>
<rect x="379.0" y="199.1" width="6" height="8" fill="#9ebacc" opacity="0.5"/>
<rect x="379.0" y="215.1" width="6" height="8" fill="#9ebacc" opacity="0.5"/>
<rect x="379.0" y="231.1" width="6" height="8" fill="#9ebacc" opacity="0.5"/>
<rect x="379.0" y="263.1" width="6" height="8" fill="#9ebacc" opacity="0.5"/>
<rect x="544.4" y="166.4" width="71.2" height="133.6" fill="#6a95b1"/>
<rect x="563.0" y="178.4" width="6" height="8" fill="#9ebacc" opacity="0.5"/>
<rect x="577.0" y="178.4" width="6" height="8" fill="#9ebacc" opacity="0.5"/>
<rect x="591.0" y="178.4" width="6" height="8" fill="#9ebacc" opacity="0.5"/>
<rect x="563.0" y="194.4" width="6" height="8" fill="#9ebacc" opacity="0.5"/>
<rect x="577.0" y="194.4" width="6" height="8" fill="#9ebacc" opacity="0.5"/>
<rect x="591.0" y="194.4" width="6" height="8" fill="#9ebacc" opacity="0.5"/>
<rect x="577.0" y="210.4" width="6" height="8" fill="#9ebacc" opacity="0.5"/>
<rect x="591.0" y="210.4" width="6" height="8" fill="#9ebacc" opacity="0.5"/>
<rect x="577.0" y="226.4" width="6" height="8" fill="#9ebacc" opacity="0.5"/>
<rect x="563.0" y="242.4" width="6" height="8" fill="#9ebacc" opacity="0.5"/>
<rect x="591.0" y="242.4" width="6" height="8" fill="#9ebacc" opacity="0.5"/>
<rect x="563.0" y="258.4" width="6" height="8" fill="#9ebacc" opacity="0.5"/>
<rect x="798.6" y="209.0" width="37.8" height="91.0" fill="#6a95b1"/>
<rect x="814.5" y="253.0" width="6" height="8" fill="#9ebacc" opacity="0.5"/>
<rect x="814.5" y="269.0" width="6" height="8" fill="#9ebacc" opacity="0.5"/>
<rect x="1019.2" y="172.5" width="77.1" height="127.5" fill="#6a95b1"/>
<rect x="1033.7" y="184.5" width="6" height="8" fill="#9ebacc" opacity="0.5"/>
<rect x="1047.7" y="184.5" width="6" height="8" fill="#9ebacc" opacity="0.5"/>
<rect x="1061.7" y="184.5" width="6" height="8" fill="#9ebacc" opacity="0.5"/>
<rect x="1033.7" y="200.5" width="6" height="8" fill="#9ebacc" opacity="0.5"/>
<rect x="1047.7" y="200.5" width="6" height="8" fill="#9ebacc" opacity="0.5"/>
<rect x="1061.7" y="200.5" width="6" height="8" fill="#9ebacc" opacity="0.5"/>
<rect x="1075.7" y="200.5" width="6" height="8" fill="#9ebacc" opacity="0.5"/>
<rect x="1033.7" y="216.5" width="6" height="8" fill="#9ebacc" opacity="0.5"/>
<rect x="1047.7" y="216.5" width="6" height="8" fill="#9ebacc" opacity="0.5"/>
<rect x="1061.7" y="216.5" width="6" height="8" fill="#9ebacc" opacity="0.5"/>
<rect x="1075.7" y="216.5" width="6" height="8" fill="#9ebacc" opacity="0.5"/>
<rect x="1033.7" y="232.5" width="6" height="8" fill="#9ebacc" opacity="0.5"/>
<rect x="1047.7" y="232.5" width="6" height="8" fill="#9ebacc" opacity="0.5"/>
<rect x="1061.7" y="232.5" width="6" height="8" fill="#9ebacc" opacity="0.5"/>
<rect x="1075.7" y="232.5" width="6" height="8" fill="#9ebacc" opacity="0.5"/>
<rect x="1033.7" y="248.5" width="6" height="8" fill="#9ebacc" opacity="0.5"/>
<rect x="1047.7" y="248.5" width="6" height="8" fill="#9ebacc" opacity="0.5"/>
<rect x="1061.7" y="248.5" width="6" height="8" fill="#9ebacc" opacity="0.5"/>
<rect x="1033.7" y="264.5" width="6" height="8" fill="#9ebacc" opacity="0.5"/>
<rect x="1047.7" y="264.5" width="6" height="8" fill="#9ebacc" opacity="0.5"/>
<rect x="1075.7" y="264.5" width="6" height="8" fill="#9ebacc" opacity="0.5"/>
<rect x="136.2" y="224.7" width="48.5" height="75.3" fill="#457b9d"/>
<rect x="150.5" y="236.7" width="6" height="8" fill="#86a9bf" opacity="0.5"/>
<rect x="150.5" y="252.7" width="6" height="8" fill="#86a9bf" opacity="0.5"/>
<rect x="150.5" y="268.7" width="6" height="8" fill="#86a9bf" opacity="0.5"/>
<rect x="164.5" y="268.7" width="6" height="8" fill="#86a9bf" opacity="0.5"/>
<rect x="359.9" y="214.3" width="68.8" height="85.7" fill="#457b9d"/>
<rect x="391.3" y="226.3" width="6" height="8" fill="#86a9bf" opacity="0.5"/>
<rect x="405.3" y="226.3" width="6" height="8" fill="#86a9bf" opacity="0.5"/>
<rect x="377.3" y="242.3" width="6" height="8" fill="#86a9bf" opacity="0.5"/>
<rect x="391.3" y="242.3" width="6" height="8" fill="#86a9bf" opacity="0.5"/>
<rect x="405.3" y="242.3" width="6" height="8" fill="#86a9bf" opacity="0.5"/>
<rect x="377.3" y="258.3" width="6" height="8" fill="#86a9bf" opacity="0.5"/>
<rect x="391.3" y="258.3" width="6" height="8" fill="#86a9bf" opacity="0.5"/>
<rect x="582.3" y="216.7" width="53.7" height="83.3" fill="#457b9d"/>
<rect x="599.1" y="228.7" width="6" height="8" fill="#86a9bf" opacity="0.5"/>
<rect x="599.1" y="244.7" width="6" height="8" fill="#86a9bf" opacity="0.5"/>
<rect x="613.1" y="244.7" width="6" height="8" fill="#86a9bf" opacity="0.5"/>
<rect x="599.1" y="260.7" width="6" height="8" fill="#86a9bf" opacity="0.5"/>
<rect x="613.1" y="260.7" width="6" height="8" fill="#86a9bf" opacity="0.5"/>
<rect x="807.4" y="171.2" width="70.3" height="128.8" fill="#457b9d"/>
<rect x="839.6" y="183.2" width="6" height="8" fill="#86a9bf" opacity="0.5"/>
<rect x="853.6" y="183.2" width="6" height="8" fill="#86a9bf" opacity="0.5"/>
<rect x="825.6" y="199.2" width="6" height="8" fill="#86a9bf" opacity="0.5"/>
<rect x="853.6" y="199.2" width="6" height="8" fill="#86a9bf" opacity="0.5"/>
<rect x="825.6" y="215.2" width="6" height="8" fill="#86a9bf" opacity="0.5"/>
<rect x="839.6" y="215.2" width="6" height="8" fill="#86a9bf" opacity="0.5"/>
<rect x="853.6" y="215.2" width="6" height="8" fill="#86a9bf" opacity="0.5"/>
<rect x="825.6" y="231.2" width="6" height="8" fill="#86a9bf" opacity="0.5"/>
<rect x="839.6" y="231.2" width="6" height="8" fill="#86a9bf" opacity="0.5"/>
<rect x="825.6" y="247.2" width="6" height="8" fill="#86a9bf" opacity="0.5"/>
<rect x="853.6" y="247.2" width="6" height="8" fill="#86a9bf" opacity="0.5"/>
<rect x="825.6" y="263.2" width="6" height="8" fill="#86a9bf" opacity="0.5"/>
<rect x="839.6" y="263.2" width="6" height="8" fill="#86a9bf" opacity="0.5"/>
<rect x="853.6" y="263.2" width="6" height="8" fill="#86a9bf" opacity="0.5"/>
<rect x="1068.5" y="167.7" width="40.7" height="132.3" fill="#457b9d"/>
<rect x="1085.9" y="195.7" width="6" height="8" fill="#86a9bf" opacity="0.5"/>
<rect x="1085.9" y="259.7" width="6" height="8" fill="#86a9bf" opacity="0.5"/>
<rect x="0" y="298" width="1200" height="2" fill="#3e6f8d" opacity="0.15"/>
</svg>