<svg xmlns="http://www.w3.org/2000/svg" viewBox="0 0 1200 300" width="1200" height="300">
<defs><linearGradient id="skyGrad" x1="0" y1="0" x2="0" y2="1"><stop offset="0%" stop-color="#e6ecf2"/><stop offset="100%" stop-color="#f0eeec"/></linearGradient></defs><rect width="1200" height="300" fill="url(#skyGrad)"/>
<rect x="0" y="230.7" width="1200" height="69.3" fill="#82acc5" opacity="0.6"/>
<path d="M0 248.0 Q75.0 246.8 150.0 247.0 Q225.0 249.7 300.0 247.0 Q375.0 248.9 450.0 248.5 Q525.0 250.9 600.0 247.0 Q675.0 245.2 750.0 246.1 Q825.0 246.3 900.0 249.3 Q975.0 248.5 1050.0 249.5 Q1125.0 251.0 1200.0 249.2" fill="none" stroke="#9fc0d2" stroke-width="1" opacity="0.4"/>
<path d="M0 265.3 Q75.0 263.1 150.0 265.7 Q225.0 266.7 300.0 263.9 Q375.0 267.1 450.0 266.1 Q525.0 263.2 600.0 263.4 Q675.0 262.7 750.0 267.0 Q825.0 267.6 900.0 266.5 Q975.0 262.8 1050.0 266.8 Q1125.0 264.3 1200.0 266.0" fill="none" stroke="#9fc0d2" stroke-width="1" opacity="0.4"/>
<path d="M0 282.7 Q75.0 280.2 150.0 282.5 Q225.0 284.0 300.0 284.4 Q375.0 283.4 450.0 283.1 Q525.0 282.4 600.0 284.6 Q675.0 281.8 750.0 283.6 Q825.0 284.6 900.0 281.8 Q975.0 281.5 1050.0 281.5 Q1125.0 285.7 1200.0 282.8" fill="none" stroke="#9fc0d2" stroke-width="1" opacity="0.4"/>
<rect x="178.7" y="208.4" width="51.3" height="91.6" fill="#8aabb4"/>
<rect x="462.9" y="204.4" width="72.5" height="95.6" fill="#8aabb4"/>
<rect x="475.6" y="187.5" width="47.1" height="16.9" fill="#83a2ab"/>
<rect x="682.8" y="197.0" width="82.7" height="103.0" fill="#8aabb4"/>
<rect x="962.8" y="193.3" width="55.7" height="106.7" fill="#8aabb4"/>
<rect x="130.4" y="209.6" width="37.4" height="90.4" fill="#558592"/>
<polygon points="130.4,209.6 149.1,200.3 167.9,209.6" fill="#4e7a86"/>
<rect x="146.1" y="237.6" width="6" height="8" fill="#91b0b8" opacity="0.5"/>
<rect x="146.1" y="269.6" width="6" height="8" fill="#91b0b8" opacity="0.5"/>
<rect x="451.2" y="149.0" width="55.6" height="151.0" fill="#558592"/>
<rect x="469.0" y="161.0" width="6" height="8" fill="#91b0b8" opacity="0.5"/>
<rect x="469.0" y="177.0" width="6" height="8" fill="#91b0b8" opacity="0.5"/>
<rect x="483.0" y="177.0" width="6" height="8" fill="#91b0b8" opacity="0.5"/>
<rect x="469.0" y="209.0" width="6" height="8" fill="#91b0b8" opacity="0.5"/>
<rect x="469.0" y="225.0" width="6" height="8" fill="#91b0b8" opacity="0.5"/>
<rect x="483.0" y="225.0" width="6" height="8" fill="#91b0b8" opacity="0.5"/>
<rect x="483.0" y="241.0" width="6" height="8" fill="#91b0b8" opacity="0.5"/>
<rect x="727.9" y="138.1" width="53.4" height="161.9" fill="#558592"/>
<rect x="744.6" y="150.1" width="6" height="8" fill="#91b0b8" opacity="0.5"/>
<rect x="758.6" y="150.1" width="6" height="8" fill="#91b0b8" opacity="0.5"/>
<rect x="758.6" y="166.1" width="6" height="8" fill="#91b0b8" opacity="0.5"/>
<rect x="744.6" y="182.1" width="6" height="8" fill="#91b0b8" opacity="0.5"/>
<rect x="758.6" y="182.1" width="6" height="8" fill="#91b0b8" opacity="0.5"/>
<rect x="744.6" y="198.1" width="6" height="8" fill="#91b0b8" opacity="0.5"/>
<rect x="758.6" y="198.1" width="6" height="8" fill="#91b0b8" opacity="0.5"/>
<rect x="758.6" y="214.1" width="6" height="8" fill="#91b0b8" opacity="0.5"/>
<rect x="744.6" y="230.1" width="6" height="8" fill="#91b0b8" opacity="0.5"/>
<rect x="758.6" y="230.1" width="6" height="8" fill="#91b0b8" opacity="0.5"/>
<rect x="984.8" y="168.9" width="40.7" height="131.1" fill="#558592"/>
<rect x="1002.2" y="180.9" width="6" height="8" fill="#91b0b8" opacity="0.5"/>
<rect x="1002.2" y="212.9" width="6" height="8" fill="#91b0b8" opacity="0.5"/>
<rect x="1002.2" y="228.9" width="6" height="8" fill="#91b0b8" opacity="0.5"/>
<rect x="1002.2" y="244.9" width="6" height="8" fill="#91b0b8" opacity="0.5"/>
<rect x="1002.2" y="260.9" width="6" height="8" fill="#91b0b8" opacity="0.5"/>
<rect x="173.4" y="193.2" width="49.8" height="106.8" fill="#2b6777"/>
<polygon points="173.4,193.2 198.3,180.8 223.2,193.2" fill="#285f6d"/>
<rect x="188.3" y="205.2" width="6" height="8" fill="#759ca7" opacity="0.5"/>
<rect x="202.3" y="205.2" width="6" height="8" fill="#759ca7" opacity="0.5"/>
<rect x="188.3" y="221.2" width="6" height="8" fill="#759ca7" opacity="0.5"/>
<rect x="202.3" y="221.2" width="6" height="8" fill="#759ca7" opacity="0.5"/>
<rect x="202.3" y="237.2" width="6" height="8" fill="#759ca7" opacity="0.5"/>
<rect x="188.3" y="253.2" width="6" height="8" fill="#759ca7" opacity="0.5"/>
<rect x="188.3" y="269.2" width="6" height="8" fill="#759ca7" opacity="0.5"/>
<rect x="202.3" y="269.2" width="6" height="8" fill="#759ca7" opacity="0.5"/>
<rect x="468.2" y="110.9" width="56.9" height="189.1" fill="#2b6777"/>
<rect x="486.7" y="122.9" width="6" height="8" fill="#759ca7" opacity="0.5"/>
<rect x="486.7" y="138.9" width="6" height="8" fill="#759ca7" opacity="0.5"/>
<rect x="500.7" y="170.9" width="6" height="8" fill="#759ca7" opacity="0.5"/>
<rect x="486.7" y="186.9" width="6" height="8" fill="#759ca7" opacity="0.5"/>
<rect x="500.7" y="186.9" width="6" height="8" fill="#759ca7" opacity="0.5"/>
<rect x="710.9" y="218.1" width="70.9" height="81.9" fill="#2b6777"/>
<polygon points="710.9,218.1 746.3,200.4 781.8,218.1" fill="#285f6d"/>
<rect x="729.3" y="230.1" width="6" height="8" fill="#759ca7" opacity="0.5"/>
<rect x="743.3" y="230.1" width="6" height="8" fill="#759ca7" opacity="0.5"/>
<rect x="757.3" y="230.1" width="6" height="8" fill="#759ca7" opacity="0.5"/>
<rect x="743.3" y="246.1" width="6" height="8" fill="#759ca7" opacity="0.5"/>
<rect x="729.3" y="262.1" width="6" height="8" fill="#759ca7" opacity="0.5"/>
<rect x="1004.7" y="165.6" width="73.9" height="134.4" fill="#2b6777"/>
<polygon points="1004.7,165.6 1041.6,147.1 1078.6,165.6" fill="#285f6d"/>
<rect x="1024.6" y="177.6" width="6" height="8" fill="#759ca7" opacity="0.5"/>
<rect x="1038.6" y="177.6" width="6" height="8" fill="#759ca7" opacity="0.5"/>
<rect x="1038.6" y="193.6" width="6" height="8" fill="#759ca7" opacity="0.5"/>
<rect x="1052.6" y="193.6" width="6" height="8" fill="#759ca7" opacity="0.5"/>
<rect x="1024.6" y="209.6" width="6" height="8" fill="#759ca7" opacity="0.5"/>
<rect x="1038.6" y="209.6" width="6" height="8" fill="#759ca7" opacity="0.5"/>
<rect x="1038.6" y="225.6" width="6" height="8" fill="#759ca7" opacity="0.5"/>
<rect x="1052.6" y="225.6" width="6" height="8" fill="#759ca7" opacity="0.5"/>
<rect x="1024.6" y="241.6" width="6" height="8" fill="#759ca7" opacity="0.5"/>
<rect x="1038.6" y="241.6" width="6" height="8" fill="#759ca7" opacity="0.5"/>
<rect x="1052.6" y="241.6" width="6" height="8" fill="#759ca7" opacity="0.5"/>
<rect x="1052.6" y="257.6" width="6" height="8" fill="#759ca7" opacity="0.5"/>
<rect x="625.8" y="216.9" width="67.2" height="68.1" fill="#4b7e8b"/>
<path d="M632.5 216.9 A26.9 45.4 0 0 1 686.3 216.9" fill="#44717d"/>
<line x1="345.7" y1="285.0" x2="345.7" y2="274.0" stroke="#5c4a32" stroke-width="3"/>
<polygon points="338.2,274.0 345.7,229.4 353.3,274.0" fill="#284f22"/>
<line x1="618.0" y1="285.0" x2="618.0" y2="273.9" stroke="#5c4a32" stroke-width="3"/>
<polygon points="609.1,273.9 618.0,242.7 626.9,273.9" fill="#295224"/>
<line x1="893.2" y1="285.0" x2="893.2" y2="276.4" stroke="#5c4a32" stroke-width="3"/>
<polygon points="885.2,276.4 893.2,245.7 901.2,276.4" fill="#2b5625"/>
<line x1="724.8" y1="285.0" x2="724.8" y2="275.6" stroke="#5c4a32" stroke-width="3"/>
<polygon points="715.7,275.6 724.8,242.9 733.9,275.6" fill="#285023"/>
<line x1="483.4" y1="285.0" x2="483.4" y2="274.5" stroke="#5c4a32" stroke-width="3"/>
<polygon points="475.5,274.5 483.4,242.1 491.3,274.5" fill="#264d21"/>
<rect x="0" y="285" width="1200" height="15" fill="#d4c5a9" opacity="0.4"/>
</svg>