<svg xmlns="http://www.w3.org/2000/svg" viewBox="0 0 1200 300" width="1200" height="300">
<defs>
<linearGradient id="skyGrad" x1="0" y1="0" x2="0" y2="1">
<stop offset="0%" stop-color="#818cf8"/>
<stop offset="20%" stop-color="#c4b5fd"/>
<stop offset="38%" stop-color="#fda4af"/>
<stop offset="55%" stop-color="#fdba74"/>
<stop offset="75%" stop-color="#fef08a"/>
<stop offset="100%" stop-color="#fef9c3"/>
</linearGradient>
<linearGradient id="bldg_coral" x1="0" y1="0" x2="0" y2="1"><stop offset="0%" stop-color="#fecaca"/><stop offset="100%" stop-color="#fca5a5"/></linearGradient>
<linearGradient id="bldg_teal" x1="0" y1="0" x2="0" y2="1"><stop offset="0%" stop-color="#99f6e4"/><stop offset="100%" stop-color="#5eead4"/></linearGradient>
<linearGradient id="bldg_amber" x1="0" y1="0" x2="0" y2="1"><stop offset="0%" stop-color="#fde68a"/><stop offset="100%" stop-color="#fcd34d"/></linearGradient>
<linearGradient id="bldg_lavender" x1="0" y1="0" x2="0" y2="1"><stop offset="0%" stop-color="#ddd6fe"/><stop offset="100%" stop-color="#c4b5fd"/></linearGradient>
<linearGradient id="bldg_blue" x1="0" y1="0" x2="0" y2="1"><stop offset="0%" stop-color="#bfdbfe"/><stop offset="100%" stop-color="#93c5fd"/></linearGradient>
<linearGradient id="bldg_mint" x1="0" y1="0" x2="0" y2="1"><stop offset="0%" stop-color="#a7f3d0"/><stop offset="100%" stop-color="#6ee7b7"/></linearGradient>
<linearGradient id="bldg_rose" x1="0" y1="0" x2="0" y2="1"><stop offset="0%" stop-color="#fecdd3"/><stop offset="100%" stop-color="#fda4af"/></linearGradient>
<linearGradient id="bldg_sky" x1="0" y1="0" x2="0" y2="1"><stop offset="0%" stop-color="#bae6fd"/><stop offset="100%" stop-color="#7dd3fc"/></linearGradient>
<linearGradient id="roof_navyRoof" x1="0" y1="0" x2="0" y2="1"><stop offset="0%" stop-color="#4338ca"/><stop offset="100%" stop-color="#3730a3"/></linearGradient>
<linearGradient id="roof_coralRoof" x1="0" y1="0" x2="0" y2="1"><stop offset="0%" stop-color="#f87171"/><stop offset="100%" stop-color="#ef4444"/></linearGradient>
<linearGradient id="roof_tealRoof" x1="0" y1="0" x2="0" y2="1"><stop offset="0%" stop-color="#2dd4bf"/><stop offset="100%" stop-color="#14b8a6"/></linearGradient>
<radialGradient id="windowGlow" cx="50%" cy="50%" r="50%"><stop offset="0%" stop-color="#fef08a"/><stop offset="60%" stop-color="#fbbf24"/><stop offset="100%" stop-color="#f59e0b"/></radialGradient>
<linearGradient id="hillFar" x1="0" y1="0" x2="0" y2="1"><stop offset="0%" stop-color="#c4b5fd"/><stop offset="100%" stop-color="#a5b4fc"/></linearGradient>
<linearGradient id="hillMid" x1="0" y1="0" x2="0" y2="1"><stop offset="0%" stop-color="#86efac"/><stop offset="100%" stop-color="#4ade80"/></linearGradient>
<linearGradient id="hillNear" x1="0" y1="0" x2="0" y2="1"><stop offset="0%" stop-color="#34d399"/><stop offset="100%" stop-color="#10b981"/></linearGradient>
<linearGradient id="hillDesertFar" x1="0" y1="0" x2="0" y2="1"><stop offset="0%" stop-color="#fde68a"/><stop offset="100%" stop-color="#fcd34d"/></linearGradient>
<linearGradient id="hillDesertMid" x1="0" y1="0" x2="0" y2="1"><stop offset="0%" stop-color="#fcd34d"/><stop offset="100%" stop-color="#fbbf24"/></linearGradient>
<linearGradient id="hillDesertNear" x1="0" y1="0" x2="0" y2="1"><stop offset="0%" stop-color="#fbbf24"/><stop offset="100%" stop-color="#f59e0b"/></linearGradient>
<linearGradient id="groundGrad" x1="0" y1="0" x2="0" y2="1"><stop offset="0%" stop-color="#fef3c7"/><stop offset="100%" stop-color="#fde68a"/></linearGradient>
<linearGradient id="waterGrad" x1="0" y1="0" x2="0" y2="1"><stop offset="0%" stop-color="#bfdbfe"/><stop offset="100%" stop-color="#93c5fd"/></linearGradient>
<filter id="softGlow" x="-50%" y="-50%" width="200%" height="200%"><feGaussianBlur in="SourceGraphic" stdDeviation="12"/></filter>
</defs>
<rect width="1200" height="300" fill="url(#skyGrad)"/>
<circle cx="1046.8" cy="53.0" r="45" fill="#fef08a" opacity="0.12" filter="url(#softGlow)"/>
<circle cx="1046.8" cy="53.0" r="30" fill="#fde68a" opacity="0.18" filter="url(#softGlow)"/>
<circle cx="1046.8" cy="53.0" r="16" fill="#fef9c3" opacity="0.25" filter="url(#softGlow)"/>
<ellipse cx="413.4" cy="27.2" rx="42.7" ry="14.9" fill="white" opacity="0.6"/>
<ellipse cx="386.7" cy="31.5" rx="29.9" ry="11.7" fill="white" opacity="0.6"/>
<ellipse cx="436.8" cy="30.4" rx="34.1" ry="12.8" fill="white" opacity="0.5"/>
<ellipse cx="750.0" cy="26.9" rx="28.8" ry="10.1" fill="white" opacity="0.7"/>
<ellipse cx="732.0" cy="29.8" rx="20.2" ry="7.9" fill="white" opacity="0.6"/>
<ellipse cx="765.9" cy="29.1" rx="23.1" ry="8.7" fill="white" opacity="0.6"/>
<path d="M0 300 L0.0 181.9 C171.9 181.9, 171.9 175.5, 343.9 175.5 C579.4 175.5, 579.4 177.2, 815.0 177.2 C1007.5 177.2, 1007.5 183.8, 1200.0 183.8 L1200 300 Z" fill="url(#hillFar)" opacity="0.5"/>
<path d="M0 300 L0.0 208.3 C162.9 208.3, 162.9 214.4, 325.7 214.4 C585.8 214.4, 585.8 206.3, 845.8 206.3 C1022.9 206.3, 1022.9 209.2, 1200.0 209.2 L1200 300 Z" fill="url(#hillMid)" opacity="0.7"/>
<path d="M0 300 L0.0 236.8 C164.0 236.8, 164.0 228.7, 328.1 228.7 C520.9 228.7, 520.9 229.9, 713.7 229.9 C956.8 229.9, 956.8 229.4, 1200.0 229.4 L1200 300 Z" fill="url(#hillNear)" opacity="1"/>
<rect x="0" y="225.7" width="1200" height="74.3" fill="url(#waterGrad)" opacity="0.6"/>
<path d="M0 250.5 Q60.0 249.6 120.0 251.0 Q180.0 248.4 240.0 250.4 Q300.0 251.6 360.0 251.8 Q420.0 251.1 480.0 250.8 Q540.0 250.2 600.0 251.9 Q660.0 249.8 720.0 251.2 Q780.0 252.1 840.0 249.8 Q900.0 249.5 960.0 249.6 Q1020.0 253.0 1080.0 250.6 Q1140.0 249.1 1200.0 250.3" fill="none" stroke="#bfdbfe" stroke-width="1" opacity="0.5"/>
<path d="M0 275.2 Q60.0 275.2 120.0 276.4 Q180.0 277.7 240.0 275.7 Q300.0 277.0 360.0 276.1 Q420.0 276.0 480.0 274.6 Q540.0 273.1 600.0 274.7 Q660.0 273.0 720.0 275.9 Q780.0 273.4 840.0 274.4 Q900.0 276.5 960.0 275.1 Q1020.0 274.8 1080.0 276.2 Q1140.0 277.5 1200.0 275.7" fill="none" stroke="#bfdbfe" stroke-width="1" opacity="0.5"/>
<rect x="208.6" y="222.2" width="55.7" height="77.8" rx="3" fill="url(#bldg_lavender)" opacity="0.7"/>
<polygon points="208.6,222.2 236.5,202.9 264.3,222.2" fill="url(#roof_navyRoof)" opacity="0.7"/>
<rect x="226.5" y="232.2" width="6" height="8" rx="1" fill="url(#windowGlow)" opacity="0.9790091501451139"/>
<rect x="240.5" y="232.2" width="6" height="8" rx="1" fill="url(#windowGlow)" opacity="0.7308585539138217"/>
<rect x="226.5" y="247.2" width="6" height="8" rx="1" fill="url(#windowGlow)" opacity="0.9064762956958619"/>
<rect x="240.5" y="247.2" width="6" height="8" rx="1" fill="url(#windowGlow)" opacity="0.8334134956977393"/>
<rect x="549.8" y="213.7" width="81.1" height="86.3" rx="3" fill="url(#bldg_blue)" opacity="0.7"/>
<polygon points="549.8,213.7 590.4,189.1 630.9,213.7" fill="url(#roof_coralRoof)" opacity="0.7"/>
<rect x="566.4" y="223.7" width="6" height="8" rx="1" fill="url(#windowGlow)" opacity="0.8973457094735213"/>
<rect x="580.4" y="223.7" width="6" height="8" rx="1" fill="url(#windowGlow)" opacity="0.8539555507963316"/>
<rect x="608.4" y="223.7" width="6" height="8" rx="1" fill="url(#windowGlow)" opacity="0.8768780919615542"/>
<rect x="566.4" y="238.7" width="6" height="8" rx="1" fill="url(#windowGlow)" opacity="0.9414787052392395"/>
<rect x="580.4" y="238.7" width="6" height="8" rx="1" fill="url(#windowGlow)" opacity="0.7871665671873682"/>
<rect x="594.4" y="238.7" width="6" height="8" rx="1" fill="url(#windowGlow)" opacity="0.81637318391184"/>
<rect x="608.4" y="238.7" width="6" height="8" rx="1" fill="url(#windowGlow)" opacity="0.8724754481448211"/>
<rect x="580.4" y="253.7" width="6" height="8" rx="1" fill="url(#windowGlow)" opacity="0.8512320120126158"/>
<rect x="594.4" y="253.7" width="6" height="8" rx="1" fill="url(#windowGlow)" opacity="0.846016715022743"/>
<rect x="972.2" y="196.9" width="88.1" height="103.1" rx="3" fill="url(#bldg_mint)" opacity="0.7"/>
<rect x="972.2" y="193.9" width="88.1" height="3" rx="1" fill="url(#roof_tealRoof)" opacity="0.7"/>
<rect x="992.2" y="206.9" width="6" height="8" rx="1" fill="url(#windowGlow)" opacity="0.7384398252416587"/>
<rect x="1006.2" y="206.9" width="6" height="8" rx="1" fill="url(#windowGlow)" opacity="0.8398114264196769"/>
<rect x="1020.2" y="206.9" width="6" height="8" rx="1" fill="url(#windowGlow)" opacity="0.9877200536372699"/>
<rect x="1034.2" y="206.9" width="6" height="8" rx="1" fill="url(#windowGlow)" opacity="0.833000976421405"/>
<rect x="992.2" y="221.9" width="6" height="8" rx="1" fill="url(#windowGlow)" opacity="0.7922115010173113"/>
<rect x="1006.2" y="221.9" width="6" height="8" rx="1" fill="url(#windowGlow)" opacity="0.7993334691968437"/>
<rect x="1020.2" y="221.9" width="6" height="8" rx="1" fill="url(#windowGlow)" opacity="0.9407612804047583"/>
<rect x="1034.2" y="221.9" width="6" height="8" rx="1" fill="url(#windowGlow)" opacity="0.7061682091588938"/>
<rect x="992.2" y="236.9" width="6" height="8" rx="1" fill="url(#windowGlow)" opacity="0.7884297304732863"/>
<rect x="1006.2" y="236.9" width="6" height="8" rx="1" fill="url(#windowGlow)" opacity="0.9648059987299171"/>
<rect x="1020.2" y="236.9" width="6" height="8" rx="1" fill="url(#windowGlow)" opacity="0.7265465690412309"/>
<rect x="1034.2" y="236.9" width="6" height="8" rx="1" fill="url(#windowGlow)" opacity="0.7324788836447889"/>
<rect x="992.2" y="251.9" width="6" height="8" rx="1" fill="url(#windowGlow)" opacity="0.7814779822628377"/>
<rect x="1006.2" y="251.9" width="6" height="8" rx="1" fill="url(#windowGlow)" opacity="0.7664883378737086"/>
<rect x="1020.2" y="251.9" width="6" height="8" rx="1" fill="url(#windowGlow)" opacity="0.8264796520706637"/>
<rect x="1034.2" y="251.9" width="6" height="8" rx="1" fill="url(#windowGlow)" opacity="0.7898668834892413"/>
<rect x="170.3" y="158.0" width="61.8" height="142.0" rx="3" fill="url(#bldg_rose)" opacity="0.85"/>
<polygon points="170.3,158.0 201.2,141.3 232.0,158.0" fill="url(#roof_navyRoof)" opacity="0.85"/>
<rect x="184.2" y="168.0" width="6" height="8" rx="1" fill="url(#windowGlow)" opacity="0.9779381499523008"/>
<rect x="184.2" y="183.0" width="6" height="8" rx="1" fill="url(#windowGlow)" opacity="0.8251503696782283"/>
<rect x="198.2" y="183.0" width="6" height="8" rx="1" fill="url(#windowGlow)" opacity="0.9406252829081496"/>
<rect x="212.2" y="183.0" width="6" height="8" rx="1" fill="url(#windowGlow)" opacity="0.8015583124019011"/>
<rect x="184.2" y="198.0" width="6" height="8" rx="1" fill="url(#windowGlow)" opacity="0.95142317300263"/>
<rect x="198.2" y="198.0" width="6" height="8" rx="1" fill="url(#windowGlow)" opacity="0.9583286556221211"/>
<rect x="212.2" y="198.0" width="6" height="8" rx="1" fill="url(#windowGlow)" opacity="0.8840337493848212"/>
<rect x="184.2" y="213.0" width="6" height="8" rx="1" fill="url(#windowGlow)" opacity="0.9916437932251225"/>
<rect x="198.2" y="213.0" width="6" height="8" rx="1" fill="url(#windowGlow)" opacity="0.7060257433476046"/>
<rect x="212.2" y="213.0" width="6" height="8" rx="1" fill="url(#windowGlow)" opacity="0.7243790818026191"/>
<rect x="184.2" y="228.0" width="6" height="8" rx="1" fill="url(#windowGlow)" opacity="0.8687348236649924"/>
<rect x="198.2" y="228.0" width="6" height="8" rx="1" fill="url(#windowGlow)" opacity="0.7149285245290624"/>
<rect x="184.2" y="243.0" width="6" height="8" rx="1" fill="url(#windowGlow)" opacity="0.7872893534075884"/>
<rect x="212.2" y="243.0" width="6" height="8" rx="1" fill="url(#windowGlow)" opacity="0.8871857048418306"/>
<rect x="184.2" y="258.0" width="6" height="8" rx="1" fill="url(#windowGlow)" opacity="0.7486322790145092"/>
<rect x="198.2" y="258.0" width="6" height="8" rx="1" fill="url(#windowGlow)" opacity="0.7474779627041322"/>
<rect x="212.2" y="258.0" width="6" height="8" rx="1" fill="url(#windowGlow)" opacity="0.8831771051898492"/>
<rect x="574.7" y="157.9" width="66.6" height="142.1" rx="3" fill="url(#bldg_sky)" opacity="0.85"/>
<polygon points="574.7,157.9 608.0,141.6 641.3,157.9" fill="url(#roof_coralRoof)" opacity="0.85"/>
<rect x="605.0" y="167.9" width="6" height="8" rx="1" fill="url(#windowGlow)" opacity="0.8367957207545618"/>
<rect x="605.0" y="182.9" width="6" height="8" rx="1" fill="url(#windowGlow)" opacity="0.8394894146544343"/>
<rect x="619.0" y="182.9" width="6" height="8" rx="1" fill="url(#windowGlow)" opacity="0.8593863956906769"/>
<rect x="591.0" y="197.9" width="6" height="8" rx="1" fill="url(#windowGlow)" opacity="0.7884565397111962"/>
<rect x="605.0" y="197.9" width="6" height="8" rx="1" fill="url(#windowGlow)" opacity="0.8317049620820698"/>
<rect x="619.0" y="197.9" width="6" height="8" rx="1" fill="url(#windowGlow)" opacity="0.8685959969966653"/>
<rect x="591.0" y="212.9" width="6" height="8" rx="1" fill="url(#windowGlow)" opacity="0.8507273767379705"/>
<rect x="605.0" y="212.9" width="6" height="8" rx="1" fill="url(#windowGlow)" opacity="0.8310321207302771"/>
<rect x="619.0" y="212.9" width="6" height="8" rx="1" fill="url(#windowGlow)" opacity="0.9617884079747778"/>
<rect x="591.0" y="227.9" width="6" height="8" rx="1" fill="url(#windowGlow)" opacity="0.7868036434924246"/>
<rect x="605.0" y="227.9" width="6" height="8" rx="1" fill="url(#windowGlow)" opacity="0.7396623685675032"/>
<rect x="619.0" y="227.9" width="6" height="8" rx="1" fill="url(#windowGlow)" opacity="0.7823885983705468"/>
<rect x="591.0" y="242.9" width="6" height="8" rx="1" fill="url(#windowGlow)" opacity="0.7147716125076504"/>
<rect x="605.0" y="242.9" width="6" height="8" rx="1" fill="url(#windowGlow)" opacity="0.891440158845596"/>
<rect x="619.0" y="242.9" width="6" height="8" rx="1" fill="url(#windowGlow)" opacity="0.739043467836009"/>
<rect x="591.0" y="257.9" width="6" height="8" rx="1" fill="url(#windowGlow)" opacity="0.707108415899383"/>
<rect x="605.0" y="257.9" width="6" height="8" rx="1" fill="url(#windowGlow)" opacity="0.8507906081391454"/>
<rect x="619.0" y="257.9" width="6" height="8" rx="1" fill="url(#windowGlow)" opacity="0.8693230935695222"/>
<rect x="950.2" y="191.4" width="56.0" height="108.6" rx="3" fill="url(#bldg_coral)" opacity="0.85"/>
<polygon points="950.2,191.4 978.2,178.4 1006.1,191.4" fill="url(#roof_tealRoof)" opacity="0.85"/>
<rect x="982.2" y="216.4" width="6" height="8" rx="1" fill="url(#windowGlow)" opacity="0.960431619528882"/>
<rect x="968.2" y="231.4" width="6" height="8" rx="1" fill="url(#windowGlow)" opacity="0.8124346990196195"/>
<rect x="968.2" y="246.4" width="6" height="8" rx="1" fill="url(#windowGlow)" opacity="0.8008518628314378"/>
<rect x="982.2" y="246.4" width="6" height="8" rx="1" fill="url(#windowGlow)" opacity="0.9007885838862455"/>
<rect x="188.2" y="194.3" width="39.8" height="105.7" rx="3" fill="url(#bldg_teal)" opacity="1"/>
<polygon points="188.2,194.3 208.1,185.9 228.0,194.3" fill="url(#roof_navyRoof)" opacity="1"/>
<rect x="205.1" y="204.3" width="6" height="8" rx="1" fill="url(#windowGlow)" opacity="0.9238763443771173"/>
<rect x="205.1" y="219.3" width="6" height="8" rx="1" fill="url(#windowGlow)" opacity="0.8619993215715509"/>
<rect x="205.1" y="234.3" width="6" height="8" rx="1" fill="url(#windowGlow)" opacity="0.7525814872945572"/>
<rect x="205.1" y="249.3" width="6" height="8" rx="1" fill="url(#windowGlow)" opacity="0.8514033895225279"/>
<rect x="203.1" y="284.0" width="10" height="16" rx="2" fill="url(#roof_navyRoof)" opacity="0.8"/>
<rect x="205.1" y="287.0" width="6" height="10" rx="1" fill="url(#windowGlow)" opacity="0.45"/>
<rect x="586.2" y="123.5" width="38.4" height="176.5" rx="3" fill="url(#bldg_amber)" opacity="1"/>
<polygon points="586.2,123.5 605.4,111.3 624.6,123.5" fill="url(#roof_coralRoof)" opacity="1"/>
<rect x="602.4" y="133.5" width="6" height="8" rx="1" fill="url(#windowGlow)" opacity="0.8974361532821488"/>
<rect x="602.4" y="148.5" width="6" height="8" rx="1" fill="url(#windowGlow)" opacity="0.9217852436573175"/>
<rect x="602.4" y="163.5" width="6" height="8" rx="1" fill="url(#windowGlow)" opacity="0.9718409672248367"/>
<rect x="602.4" y="178.5" width="6" height="8" rx="1" fill="url(#windowGlow)" opacity="0.9265204875387811"/>
<rect x="602.4" y="193.5" width="6" height="8" rx="1" fill="url(#windowGlow)" opacity="0.732986808257637"/>
<rect x="602.4" y="223.5" width="6" height="8" rx="1" fill="url(#windowGlow)" opacity="0.796395039230769"/>
<rect x="602.4" y="238.5" width="6" height="8" rx="1" fill="url(#windowGlow)" opacity="0.8462474860000645"/>
<rect x="600.4" y="284.0" width="10" height="16" rx="2" fill="url(#roof_navyRoof)" opacity="0.8"/>
<rect x="602.4" y="287.0" width="6" height="10" rx="1" fill="url(#windowGlow)" opacity="0.45"/>
<rect x="929.1" y="162.3" width="58.2" height="137.7" rx="3" fill="url(#bldg_lavender)" opacity="1"/>
<polygon points="929.1,162.3 958.2,146.3 987.3,162.3" fill="url(#roof_tealRoof)" opacity="1"/>
<rect x="941.2" y="172.3" width="6" height="8" rx="1" fill="url(#windowGlow)" opacity="0.7070254318448833"/>
<rect x="955.2" y="172.3" width="6" height="8" rx="1" fill="url(#windowGlow)" opacity="0.7771744850451008"/>
<rect x="969.2" y="172.3" width="6" height="8" rx="1" fill="url(#windowGlow)" opacity="0.825686938187893"/>
<rect x="941.2" y="187.3" width="6" height="8" rx="1" fill="url(#windowGlow)" opacity="0.7765502930975288"/>
<rect x="955.2" y="187.3" width="6" height="8" rx="1" fill="url(#windowGlow)" opacity="0.7529211629428533"/>
<rect x="941.2" y="202.3" width="6" height="8" rx="1" fill="url(#windowGlow)" opacity="0.791210171762486"/>
<rect x="955.2" y="202.3" width="6" height="8" rx="1" fill="url(#windowGlow)" opacity="0.8571049609487433"/>
<rect x="969.2" y="202.3" width="6" height="8" rx="1" fill="url(#windowGlow)" opacity="0.8294785983997762"/>
<rect x="941.2" y="217.3" width="6" height="8" rx="1" fill="url(#windowGlow)" opacity="0.7260660825884276"/>
<rect x="955.2" y="217.3" width="6" height="8" rx="1" fill="url(#windowGlow)" opacity="0.9668909921156665"/>
<rect x="969.2" y="217.3" width="6" height="8" rx="1" fill="url(#windowGlow)" opacity="0.9843816807420838"/>
<rect x="941.2" y="232.3" width="6" height="8" rx="1" fill="url(#windowGlow)" opacity="0.989648972912528"/>
<rect x="955.2" y="232.3" width="6" height="8" rx="1" fill="url(#windowGlow)" opacity="0.9456821929410482"/>
<rect x="969.2" y="232.3" width="6" height="8" rx="1" fill="url(#windowGlow)" opacity="0.7503688031576428"/>
<rect x="941.2" y="247.3" width="6" height="8" rx="1" fill="url(#windowGlow)" opacity="0.9453288616357971"/>
<rect x="955.2" y="247.3" width="6" height="8" rx="1" fill="url(#windowGlow)" opacity="0.7780789464610065"/>
<rect x="969.2" y="247.3" width="6" height="8" rx="1" fill="url(#windowGlow)" opacity="0.9925011359120258"/>
<rect x="953.2" y="284.0" width="10" height="16" rx="2" fill="url(#roof_navyRoof)" opacity="0.8"/>
<rect x="955.2" y="287.0" width="6" height="10" rx="1" fill="url(#windowGlow)" opacity="0.45"/>
<path d="M934.9 210.5 L958.2 210.5 L955.2 216.5 L937.9 216.5 Z" fill="url(#roof_coralRoof)" opacity="0.8"/>
<rect x="519.0" y="202.9" width="65.0" height="97.1" rx="2" fill="#c7d2fe" opacity="0.95"/>
<rect x="523.0" y="210.9" width="3" height="81.1" fill="#818cf8" opacity="0.5"/>
<rect x="537.3" y="210.9" width="3" height="81.1" fill="#818cf8" opacity="0.5"/>
<rect x="551.6" y="210.9" width="3" height="81.1" fill="#818cf8" opacity="0.5"/>
<rect x="565.8" y="210.9" width="3" height="81.1" fill="#818cf8" opacity="0.5"/>
<rect x="580.1" y="210.9" width="3" height="81.1" fill="#818cf8" opacity="0.5"/>
<polygon points="516.0,202.9 551.6,190.9 587.1,202.9" fill="#a5b4fc"/>
<path d="M532.1 190.9 A19.5 15.6 0 0 1 571.1 190.9" fill="#818cf8" opacity="0.85"/>
<circle cx="551.6" cy="177.3" r="3" fill="#fef08a" opacity="0.7"/>
<rect x="519.0" y="297.0" width="65.0" height="3" rx="1" fill="#e0e7ff" opacity="0.7"/>
<rect x="515.0" y="294.0" width="73.0" height="3" rx="1" fill="#e0e7ff" opacity="0.7"/>
<rect x="511.0" y="291.0" width="81.0" height="3" rx="1" fill="#e0e7ff" opacity="0.7"/>
<rect x="404.1" y="275.0" width="6" height="10.0" rx="2" fill="#92400e"/>
<polygon points="407.1,227.5 401.6,248.3 412.6,248.3" fill="#15803d" opacity="0.9"/>
<polygon points="407.1,243.3 399.4,264.2 414.8,264.2" fill="#16a34a" opacity="0.9"/>
<polygon points="407.1,259.2 397.2,280.0 416.9,280.0" fill="#22c55e" opacity="0.9"/>
<rect x="773.9" y="275.0" width="6" height="10.0" rx="2" fill="#92400e"/>
<polygon points="776.9,232.1 772.1,251.4 781.6,251.4" fill="#15803d" opacity="0.9"/>
<polygon points="776.9,246.4 770.2,265.7 783.5,265.7" fill="#16a34a" opacity="0.9"/>
<polygon points="776.9,260.7 768.3,280.0 785.4,280.0" fill="#22c55e" opacity="0.9"/>
<rect x="163.1" y="275.0" width="6" height="10.0" rx="2" fill="#92400e"/>
<polygon points="166.1,238.2 161.0,255.5 171.3,255.5" fill="#15803d" opacity="0.9"/>
<polygon points="166.1,250.5 158.9,267.7 173.3,267.7" fill="#16a34a" opacity="0.9"/>
<polygon points="166.1,262.7 156.8,280.0 175.4,280.0" fill="#22c55e" opacity="0.9"/>
<rect x="1016.4" y="275.0" width="6" height="10.0" rx="2" fill="#92400e"/>
<polygon points="1019.4,230.8 1014.7,250.5 1024.1,250.5" fill="#15803d" opacity="0.9"/>
<polygon points="1019.4,245.5 1012.8,265.3 1026.0,265.3" fill="#16a34a" opacity="0.9"/>
<polygon points="1019.4,260.3 1010.9,280.0 1027.9,280.0" fill="#22c55e" opacity="0.9"/>
<rect x="344.0" y="275.0" width="6" height="10.0" rx="2" fill="#92400e"/>
<polygon points="347.0,241.8 341.8,257.9 352.2,257.9" fill="#15803d" opacity="0.9"/>
<polygon points="347.0,252.9 339.7,268.9 354.3,268.9" fill="#16a34a" opacity="0.9"/>
<polygon points="347.0,263.9 337.6,280.0 356.4,280.0" fill="#22c55e" opacity="0.9"/>
<rect x="965.5" y="275.0" width="6" height="10.0" rx="2" fill="#92400e"/>
<polygon points="968.5,232.1 962.9,251.4 974.1,251.4" fill="#15803d" opacity="0.9"/>
<polygon points="968.5,246.4 960.6,265.7 976.3,265.7" fill="#16a34a" opacity="0.9"/>
<polygon points="968.5,260.7 958.4,280.0 978.5,280.0" fill="#22c55e" opacity="0.9"/>
<rect x="0" y="282" width="1200" height="18" fill="url(#groundGrad)"/>
<line x1="739.1" y1="282.0" x2="739.1" y2="248.0" stroke="#92400e" stroke-width="2"/>
<circle cx="739.1" cy="248.0" r="4" fill="#fef08a" opacity="0.6"/>
<circle cx="739.1" cy="248.0" r="8" fill="#fef08a" opacity="0.15" filter="url(#softGlow)"/>
<ellipse cx="199.5" cy="282.0" rx="4.9" ry="3.5" fill="#22c55e" opacity="0.6"/>
<ellipse cx="469.4" cy="282.0" rx="5.9" ry="4.1" fill="#22c55e" opacity="0.6"/>
</svg>