<svg xmlns="http://www.w3.org/2000/svg" viewBox="0 0 1200 300" width="1200" height="300">
<defs><linearGradient id="skyGrad" x1="0" y1="0" x2="0" y2="1"><stop offset="0%" stop-color="#e6ecf2"/><stop offset="100%" stop-color="#f0eeec"/></linearGradient></defs><rect width="1200" height="300" fill="url(#skyGrad)"/>
<path d="M0 300 L0 201.7 C404.9 183.2, 852.3 185.9, 1200 201.7 L1200 300 Z" fill="#aac2c9" opacity="0.25"/>
<rect x="162.9" y="184.5" width="59.4" height="115.5" fill="#8aabb4"/>
<rect x="569.9" y="237.1" width="67.7" height="62.9" fill="#8aabb4"/>
<rect x="581.8" y="226.0" width="44.0" height="11.1" fill="#83a2ab"/>
<rect x="902.4" y="240.6" width="41.4" height="59.4" fill="#8aabb4"/>
<rect x="909.6" y="230.1" width="26.9" height="10.5" fill="#83a2ab"/>
<rect x="153.7" y="212.2" width="57.0" height="87.8" fill="#558592"/>
<polygon points="153.7,212.2 182.2,197.9 210.6,212.2" fill="#4e7a86"/>
<rect x="172.2" y="224.2" width="6" height="8" fill="#91b0b8" opacity="0.5"/>
<rect x="172.2" y="256.2" width="6" height="8" fill="#91b0b8" opacity="0.5"/>
<rect x="186.2" y="256.2" width="6" height="8" fill="#91b0b8" opacity="0.5"/>
<rect x="172.2" y="272.2" width="6" height="8" fill="#91b0b8" opacity="0.5"/>
<rect x="433.2" y="206.0" width="79.4" height="94.0" fill="#558592"/>
<polygon points="433.2,206.0 472.9,186.2 512.6,206.0" fill="#4e7a86"/>
<rect x="455.9" y="218.0" width="6" height="8" fill="#91b0b8" opacity="0.5"/>
<rect x="469.9" y="218.0" width="6" height="8" fill="#91b0b8" opacity="0.5"/>
<rect x="455.9" y="234.0" width="6" height="8" fill="#91b0b8" opacity="0.5"/>
<rect x="483.9" y="234.0" width="6" height="8" fill="#91b0b8" opacity="0.5"/>
<rect x="469.9" y="250.0" width="6" height="8" fill="#91b0b8" opacity="0.5"/>
<rect x="455.9" y="266.0" width="6" height="8" fill="#91b0b8" opacity="0.5"/>
<rect x="469.9" y="266.0" width="6" height="8" fill="#91b0b8" opacity="0.5"/>
<rect x="483.9" y="266.0" width="6" height="8" fill="#91b0b8" opacity="0.5"/>
<rect x="674.7" y="179.7" width="57.0" height="120.3" fill="#558592"/>
<rect x="693.2" y="191.7" width="6" height="8" fill="#91b0b8" opacity="0.5"/>
<rect x="707.2" y="191.7" width="6" height="8" fill="#91b0b8" opacity="0.5"/>
<rect x="693.2" y="239.7" width="6" height="8" fill="#91b0b8" opacity="0.5"/>
<rect x="707.2" y="239.7" width="6" height="8" fill="#91b0b8" opacity="0.5"/>
<rect x="693.2" y="255.7" width="6" height="8" fill="#91b0b8" opacity="0.5"/>
<rect x="707.2" y="255.7" width="6" height="8" fill="#91b0b8" opacity="0.5"/>
<rect x="693.2" y="271.7" width="6" height="8" fill="#91b0b8" opacity="0.5"/>
<rect x="994.1" y="204.1" width="74.9" height="95.9" fill="#558592"/>
<rect x="1028.5" y="216.1" width="6" height="8" fill="#91b0b8" opacity="0.5"/>
<rect x="1014.5" y="232.1" width="6" height="8" fill="#91b0b8" opacity="0.5"/>
<rect x="1028.5" y="232.1" width="6" height="8" fill="#91b0b8" opacity="0.5"/>
<rect x="1042.5" y="232.1" width="6" height="8" fill="#91b0b8" opacity="0.5"/>
<rect x="1014.5" y="248.1" width="6" height="8" fill="#91b0b8" opacity="0.5"/>
<rect x="1042.5" y="248.1" width="6" height="8" fill="#91b0b8" opacity="0.5"/>
<rect x="1042.5" y="264.1" width="6" height="8" fill="#91b0b8" opacity="0.5"/>
<rect x="136.6" y="237.0" width="63.9" height="63.0" fill="#2b6777"/>
<rect x="147.8" y="225.8" width="41.5" height="11.1" fill="#296271"/>
<rect x="151.5" y="237.8" width="6" height="8" fill="#759ca7" opacity="0.5"/>
<rect x="179.5" y="237.8" width="6" height="8" fill="#759ca7" opacity="0.5"/>
<rect x="165.5" y="253.8" width="6" height="8" fill="#759ca7" opacity="0.5"/>
<rect x="179.5" y="253.8" width="6" height="8" fill="#759ca7" opacity="0.5"/>
<rect x="179.5" y="269.8" width="6" height="8" fill="#759ca7" opacity="0.5"/>
<rect x="402.8" y="193.5" width="51.1" height="106.5" fill="#2b6777"/>
<rect x="411.7" y="174.7" width="33.2" height="18.8" fill="#296271"/>
<rect x="418.4" y="186.7" width="6" height="8" fill="#759ca7" opacity="0.5"/>
<rect x="432.4" y="186.7" width="6" height="8" fill="#759ca7" opacity="0.5"/>
<rect x="418.4" y="202.7" width="6" height="8" fill="#759ca7" opacity="0.5"/>
<rect x="432.4" y="202.7" width="6" height="8" fill="#759ca7" opacity="0.5"/>
<rect x="418.4" y="218.7" width="6" height="8" fill="#759ca7" opacity="0.5"/>
<rect x="432.4" y="218.7" width="6" height="8" fill="#759ca7" opacity="0.5"/>
<rect x="418.4" y="234.7" width="6" height="8" fill="#759ca7" opacity="0.5"/>
<rect x="432.4" y="234.7" width="6" height="8" fill="#759ca7" opacity="0.5"/>
<rect x="418.4" y="250.7" width="6" height="8" fill="#759ca7" opacity="0.5"/>
<rect x="432.4" y="266.7" width="6" height="8" fill="#759ca7" opacity="0.5"/>
<rect x="730.2" y="131.6" width="56.2" height="168.4" fill="#2b6777"/>
<rect x="762.3" y="143.6" width="6" height="8" fill="#759ca7" opacity="0.5"/>
<rect x="748.3" y="159.6" width="6" height="8" fill="#759ca7" opacity="0.5"/>
<rect x="762.3" y="159.6" width="6" height="8" fill="#759ca7" opacity="0.5"/>
<rect x="762.3" y="175.6" width="6" height="8" fill="#759ca7" opacity="0.5"/>
<rect x="762.3" y="191.6" width="6" height="8" fill="#759ca7" opacity="0.5"/>
<rect x="748.3" y="207.6" width="6" height="8" fill="#759ca7" opacity="0.5"/>
<rect x="748.3" y="223.6" width="6" height="8" fill="#759ca7" opacity="0.5"/>
<rect x="762.3" y="223.6" width="6" height="8" fill="#759ca7" opacity="0.5"/>
<rect x="976.4" y="115.8" width="39.9" height="184.2" fill="#2b6777"/>
<polygon points="976.4,115.8 996.3,105.8 1016.2,115.8" fill="#285f6d"/>
<rect x="993.3" y="127.8" width="6" height="8" fill="#759ca7" opacity="0.5"/>
<rect x="993.3" y="143.8" width="6" height="8" fill="#759ca7" opacity="0.5"/>
<rect x="993.3" y="175.8" width="6" height="8" fill="#759ca7" opacity="0.5"/>
<rect x="993.3" y="191.8" width="6" height="8" fill="#759ca7" opacity="0.5"/>
<line x1="301.6" y1="285.0" x2="301.6" y2="270.8" stroke="#6b5a42" stroke-width="3"/>
<circle cx="301.6" cy="257.3" r="13.6" fill="#568647"/>
<line x1="592.1" y1="285.0" x2="592.1" y2="274.2" stroke="#6b5a42" stroke-width="3"/>
<circle cx="592.1" cy="257.3" r="16.8" fill="#568647"/>
<line x1="881.4" y1="285.0" x2="881.4" y2="273.6" stroke="#6b5a42" stroke-width="3"/>
<circle cx="881.4" cy="259.5" r="14.1" fill="#598a49"/>
<line x1="569.3" y1="285.0" x2="569.3" y2="269.4" stroke="#6b5a42" stroke-width="3"/>
<circle cx="569.3" cy="254.8" r="14.7" fill="#578848"/>
<line x1="77.0" y1="285.0" x2="77.0" y2="270.9" stroke="#6b5a42" stroke-width="3"/>
<circle cx="77.0" cy="256.3" r="14.6" fill="#588949"/>
<line x1="850.8" y1="285.0" x2="850.8" y2="269.9" stroke="#6b5a42" stroke-width="3"/>
<circle cx="850.8" cy="257.7" r="12.2" fill="#578848"/>
<line x1="690.3" y1="285.0" x2="690.3" y2="273.5" stroke="#6b5a42" stroke-width="3"/>
<circle cx="690.3" cy="260.0" r="13.5" fill="#517f43"/>
<rect x="0" y="285" width="1200" height="15" fill="#9aaa85" opacity="0.4"/>
</svg>