<svg xmlns="http://www.w3.org/2000/svg" viewBox="0 0 1200 300" width="1200" height="300">
<defs>
<linearGradient id="skyGrad" x1="0" y1="0" x2="0" y2="1">
<stop offset="0%" stop-color="#818cf8"/>
<stop offset="20%" stop-color="#c4b5fd"/>
<stop offset="38%" stop-color="#fda4af"/>
<stop offset="55%" stop-color="#fdba74"/>
<stop offset="75%" stop-color="#fef08a"/>
<stop offset="100%" stop-color="#fef9c3"/>
</linearGradient>
<linearGradient id="bldg_coral" x1="0" y1="0" x2="0" y2="1"><stop offset="0%" stop-color="#fecaca"/><stop offset="100%" stop-color="#fca5a5"/></linearGradient>
<linearGradient id="bldg_teal" x1="0" y1="0" x2="0" y2="1"><stop offset="0%" stop-color="#99f6e4"/><stop offset="100%" stop-color="#5eead4"/></linearGradient>
<linearGradient id="bldg_amber" x1="0" y1="0" x2="0" y2="1"><stop offset="0%" stop-color="#fde68a"/><stop offset="100%" stop-color="#fcd34d"/></linearGradient>
<linearGradient id="bldg_lavender" x1="0" y1="0" x2="0" y2="1"><stop offset="0%" stop-color="#ddd6fe"/><stop offset="100%" stop-color="#c4b5fd"/></linearGradient>
<linearGradient id="bldg_blue" x1="0" y1="0" x2="0" y2="1"><stop offset="0%" stop-color="#bfdbfe"/><stop offset="100%" stop-color="#93c5fd"/></linearGradient>
<linearGradient id="bldg_mint" x1="0" y1="0" x2="0" y2="1"><stop offset="0%" stop-color="#a7f3d0"/><stop offset="100%" stop-color="#6ee7b7"/></linearGradient>
<linearGradient id="bldg_rose" x1="0" y1="0" x2="0" y2="1"><stop offset="0%" stop-color="#fecdd3"/><stop offset="100%" stop-color="#fda4af"/></linearGradient>
<linearGradient id="bldg_sky" x1="0" y1="0" x2="0" y2="1"><stop offset="0%" stop-color="#bae6fd"/><stop offset="100%" stop-color="#7dd3fc"/></linearGradient>
<linearGradient id="roof_navyRoof" x1="0" y1="0" x2="0" y2="1"><stop offset="0%" stop-color="#4338ca"/><stop offset="100%" stop-color="#3730a3"/></linearGradient>
<linearGradient id="roof_coralRoof" x1="0" y1="0" x2="0" y2="1"><stop offset="0%" stop-color="#f87171"/><stop offset="100%" stop-color="#ef4444"/></linearGradient>
<linearGradient id="roof_tealRoof" x1="0" y1="0" x2="0" y2="1"><stop offset="0%" stop-color="#2dd4bf"/><stop offset="100%" stop-color="#14b8a6"/></linearGradient>
<radialGradient id="windowGlow" cx="50%" cy="50%" r="50%"><stop offset="0%" stop-color="#fef08a"/><stop offset="60%" stop-color="#fbbf24"/><stop offset="100%" stop-color="#f59e0b"/></radialGradient>
<linearGradient id="hillFar" x1="0" y1="0" x2="0" y2="1"><stop offset="0%" stop-color="#c4b5fd"/><stop offset="100%" stop-color="#a5b4fc"/></linearGradient>
<linearGradient id="hillMid" x1="0" y1="0" x2="0" y2="1"><stop offset="0%" stop-color="#86efac"/><stop offset="100%" stop-color="#4ade80"/></linearGradient>
<linearGradient id="hillNear" x1="0" y1="0" x2="0" y2="1"><stop offset="0%" stop-color="#34d399"/><stop offset="100%" stop-color="#10b981"/></linearGradient>
<linearGradient id="hillDesertFar" x1="0" y1="0" x2="0" y2="1"><stop offset="0%" stop-color="#fde68a"/><stop offset="100%" stop-color="#fcd34d"/></linearGradient>
<linearGradient id="hillDesertMid" x1="0" y1="0" x2="0" y2="1"><stop offset="0%" stop-color="#fcd34d"/><stop offset="100%" stop-color="#fbbf24"/></linearGradient>
<linearGradient id="hillDesertNear" x1="0" y1="0" x2="0" y2="1"><stop offset="0%" stop-color="#fbbf24"/><stop offset="100%" stop-color="#f59e0b"/></linearGradient>
<linearGradient id="groundGrad" x1="0" y1="0" x2="0" y2="1"><stop offset="0%" stop-color="#fef3c7"/><stop offset="100%" stop-color="#fde68a"/></linearGradient>
<linearGradient id="waterGrad" x1="0" y1="0" x2="0" y2="1"><stop offset="0%" stop-color="#bfdbfe"/><stop offset="100%" stop-color="#93c5fd"/></linearGradient>
<filter id="softGlow" x="-50%" y="-50%" width="200%" height="200%"><feGaussianBlur in="SourceGraphic" stdDeviation="12"/></filter>
</defs>
<rect width="1200" height="300" fill="url(#skyGrad)"/>
<circle cx="980.2" cy="58.0" r="45" fill="#fef08a" opacity="0.12" filter="url(#softGlow)"/>
<circle cx="980.2" cy="58.0" r="30" fill="#fde68a" opacity="0.18" filter="url(#softGlow)"/>
<circle cx="980.2" cy="58.0" r="16" fill="#fef9c3" opacity="0.25" filter="url(#softGlow)"/>
<ellipse cx="409.0" cy="50.3" rx="37.3" ry="13.1" fill="white" opacity="0.5"/>
<ellipse cx="385.7" cy="54.1" rx="26.1" ry="10.3" fill="white" opacity="0.4"/>
<ellipse cx="429.6" cy="53.1" rx="29.9" ry="11.2" fill="white" opacity="0.4"/>
<ellipse cx="369.7" cy="48.1" rx="40.8" ry="14.3" fill="white" opacity="0.6"/>
<ellipse cx="344.2" cy="52.2" rx="28.6" ry="11.2" fill="white" opacity="0.5"/>
<ellipse cx="392.1" cy="51.1" rx="32.6" ry="12.2" fill="white" opacity="0.5"/>
<ellipse cx="338.3" cy="19.0" rx="32.0" ry="11.2" fill="white" opacity="0.4"/>
<ellipse cx="318.3" cy="22.2" rx="22.4" ry="8.8" fill="white" opacity="0.4"/>
<ellipse cx="355.9" cy="21.4" rx="25.6" ry="9.6" fill="white" opacity="0.3"/>
<path d="M0 300 L0.0 185.5 C120.9 185.5, 120.9 178.7, 241.8 178.7 C434.4 178.7, 434.4 191.4, 627.0 191.4 C762.7 191.4, 762.7 193.6, 898.4 193.6 C1049.2 193.6, 1049.2 192.3, 1200.0 192.3 L1200 300 Z" fill="url(#hillFar)" opacity="0.5"/>
<path d="M0 300 L0.0 209.3 C127.8 209.3, 127.8 205.9, 255.7 205.9 C424.3 205.9, 424.3 213.2, 593.0 213.2 C744.2 213.2, 744.2 213.4, 895.5 213.4 C1047.7 213.4, 1047.7 213.3, 1200.0 213.3 L1200 300 Z" fill="url(#hillMid)" opacity="0.7"/>
<path d="M0 300 L0.0 230.5 C139.1 230.5, 139.1 236.1, 278.2 236.1 C357.2 236.1, 357.2 230.4, 436.2 230.4 C607.8 230.4, 607.8 235.1, 779.3 235.1 C864.2 235.1, 864.2 236.8, 949.1 236.8 C1074.5 236.8, 1074.5 236.6, 1200.0 236.6 L1200 300 Z" fill="url(#hillNear)" opacity="1"/>
<rect x="168.3" y="195.6" width="59.0" height="104.4" rx="3" fill="url(#bldg_sky)" opacity="0.7"/>
<rect x="168.3" y="192.6" width="59.0" height="3" rx="1" fill="url(#roof_tealRoof)" opacity="0.7"/>
<rect x="180.8" y="205.6" width="6" height="8" rx="1" fill="url(#windowGlow)" opacity="0.8022228720142612"/>
<rect x="194.8" y="205.6" width="6" height="8" rx="1" fill="url(#windowGlow)" opacity="0.7434446600468105"/>
<rect x="208.8" y="205.6" width="6" height="8" rx="1" fill="url(#windowGlow)" opacity="0.7575202450424061"/>
<rect x="180.8" y="220.6" width="6" height="8" rx="1" fill="url(#windowGlow)" opacity="0.9494034108004548"/>
<rect x="194.8" y="220.6" width="6" height="8" rx="1" fill="url(#windowGlow)" opacity="0.9934235035876853"/>
<rect x="208.8" y="220.6" width="6" height="8" rx="1" fill="url(#windowGlow)" opacity="0.9466319138401336"/>
<rect x="208.8" y="235.6" width="6" height="8" rx="1" fill="url(#windowGlow)" opacity="0.8496061347190319"/>
<rect x="180.8" y="250.6" width="6" height="8" rx="1" fill="url(#windowGlow)" opacity="0.7086839908774402"/>
<rect x="194.8" y="250.6" width="6" height="8" rx="1" fill="url(#windowGlow)" opacity="0.7299118717340342"/>
<rect x="208.8" y="250.6" width="6" height="8" rx="1" fill="url(#windowGlow)" opacity="0.9091394522269906"/>
<rect x="554.4" y="241.8" width="89.9" height="58.2" rx="3" fill="url(#bldg_coral)" opacity="0.7"/>
<polygon points="554.4,241.8 599.3,222.2 644.3,241.8" fill="url(#roof_navyRoof)" opacity="0.7"/>
<rect x="575.3" y="251.8" width="6" height="8" rx="1" fill="url(#windowGlow)" opacity="0.7983884742941654"/>
<rect x="589.3" y="251.8" width="6" height="8" rx="1" fill="url(#windowGlow)" opacity="0.9554698216055845"/>
<rect x="603.3" y="251.8" width="6" height="8" rx="1" fill="url(#windowGlow)" opacity="0.9600861762930109"/>
<rect x="617.3" y="251.8" width="6" height="8" rx="1" fill="url(#windowGlow)" opacity="0.8930048063364833"/>
<rect x="987.5" y="198.9" width="45.1" height="101.1" rx="3" fill="url(#bldg_teal)" opacity="0.7"/>
<rect x="996.5" y="186.8" width="27.0" height="12.1" rx="2" fill="url(#roof_coralRoof)" opacity="0.7"/>
<rect x="1000.0" y="208.9" width="6" height="8" rx="1" fill="url(#windowGlow)" opacity="0.9410018527605579"/>
<rect x="1014.0" y="223.9" width="6" height="8" rx="1" fill="url(#windowGlow)" opacity="0.9633127316661704"/>
<rect x="1000.0" y="238.9" width="6" height="8" rx="1" fill="url(#windowGlow)" opacity="0.9173073946113266"/>
<rect x="1014.0" y="238.9" width="6" height="8" rx="1" fill="url(#windowGlow)" opacity="0.9407720779724289"/>
<rect x="1000.0" y="253.9" width="6" height="8" rx="1" fill="url(#windowGlow)" opacity="0.8114184055530551"/>
<rect x="1014.0" y="253.9" width="6" height="8" rx="1" fill="url(#windowGlow)" opacity="0.8298020775568681"/>
<rect x="194.2" y="209.6" width="51.2" height="90.4" rx="3" fill="url(#bldg_amber)" opacity="0.85"/>
<rect x="204.4" y="198.8" width="30.7" height="10.8" rx="2" fill="url(#roof_tealRoof)" opacity="0.85"/>
<rect x="223.8" y="219.6" width="6" height="8" rx="1" fill="url(#windowGlow)" opacity="0.9033799396377894"/>
<rect x="223.8" y="234.6" width="6" height="8" rx="1" fill="url(#windowGlow)" opacity="0.8731016003401492"/>
<rect x="209.8" y="249.6" width="6" height="8" rx="1" fill="url(#windowGlow)" opacity="0.8152780267946785"/>
<rect x="223.8" y="249.6" width="6" height="8" rx="1" fill="url(#windowGlow)" opacity="0.7376128589909583"/>
<rect x="532.0" y="196.7" width="60.9" height="103.3" rx="3" fill="url(#bldg_lavender)" opacity="0.85"/>
<rect x="544.1" y="184.3" width="36.5" height="12.4" rx="2" fill="url(#roof_navyRoof)" opacity="0.85"/>
<rect x="559.4" y="206.7" width="6" height="8" rx="1" fill="url(#windowGlow)" opacity="0.8746226507586532"/>
<rect x="573.4" y="206.7" width="6" height="8" rx="1" fill="url(#windowGlow)" opacity="0.7778288544983737"/>
<rect x="545.4" y="221.7" width="6" height="8" rx="1" fill="url(#windowGlow)" opacity="0.740440786695313"/>
<rect x="559.4" y="221.7" width="6" height="8" rx="1" fill="url(#windowGlow)" opacity="0.8026649214339744"/>
<rect x="573.4" y="221.7" width="6" height="8" rx="1" fill="url(#windowGlow)" opacity="0.8053975730228227"/>
<rect x="559.4" y="236.7" width="6" height="8" rx="1" fill="url(#windowGlow)" opacity="0.8335849194478173"/>
<rect x="573.4" y="236.7" width="6" height="8" rx="1" fill="url(#windowGlow)" opacity="0.9046417975819864"/>
<rect x="545.4" y="251.7" width="6" height="8" rx="1" fill="url(#windowGlow)" opacity="0.7447007488667502"/>
<rect x="559.4" y="251.7" width="6" height="8" rx="1" fill="url(#windowGlow)" opacity="0.7083300820590602"/>
<rect x="573.4" y="251.7" width="6" height="8" rx="1" fill="url(#windowGlow)" opacity="0.7760029042493565"/>
<rect x="969.4" y="156.2" width="50.6" height="143.8" rx="3" fill="url(#bldg_blue)" opacity="0.85"/>
<rect x="969.4" y="153.2" width="50.6" height="3" rx="1" fill="url(#roof_coralRoof)" opacity="0.85"/>
<rect x="984.7" y="166.2" width="6" height="8" rx="1" fill="url(#windowGlow)" opacity="0.8805083819574249"/>
<rect x="984.7" y="181.2" width="6" height="8" rx="1" fill="url(#windowGlow)" opacity="0.7803818290961821"/>
<rect x="998.7" y="181.2" width="6" height="8" rx="1" fill="url(#windowGlow)" opacity="0.8009183806371495"/>
<rect x="984.7" y="196.2" width="6" height="8" rx="1" fill="url(#windowGlow)" opacity="0.8227248352126799"/>
<rect x="998.7" y="196.2" width="6" height="8" rx="1" fill="url(#windowGlow)" opacity="0.9948542837029575"/>
<rect x="984.7" y="211.2" width="6" height="8" rx="1" fill="url(#windowGlow)" opacity="0.9337988483411255"/>
<rect x="998.7" y="211.2" width="6" height="8" rx="1" fill="url(#windowGlow)" opacity="0.902319257847182"/>
<rect x="998.7" y="226.2" width="6" height="8" rx="1" fill="url(#windowGlow)" opacity="0.949763459083514"/>
<rect x="984.7" y="241.2" width="6" height="8" rx="1" fill="url(#windowGlow)" opacity="0.796775306340668"/>
<rect x="984.7" y="256.2" width="6" height="8" rx="1" fill="url(#windowGlow)" opacity="0.9163948839141032"/>
<rect x="998.7" y="256.2" width="6" height="8" rx="1" fill="url(#windowGlow)" opacity="0.9178109173280238"/>
<rect x="205.4" y="186.2" width="58.6" height="113.8" rx="3" fill="url(#bldg_mint)" opacity="1"/>
<polygon points="205.4,186.2 234.7,174.3 264.0,186.2" fill="url(#roof_tealRoof)" opacity="1"/>
<rect x="217.7" y="196.2" width="6" height="8" rx="1" fill="url(#windowGlow)" opacity="0.8560472677257132"/>
<rect x="231.7" y="196.2" width="6" height="8" rx="1" fill="url(#windowGlow)" opacity="0.7927941118799122"/>
<rect x="245.7" y="196.2" width="6" height="8" rx="1" fill="url(#windowGlow)" opacity="0.9411010080208541"/>
<rect x="217.7" y="211.2" width="6" height="8" rx="1" fill="url(#windowGlow)" opacity="0.8932893697141154"/>
<rect x="231.7" y="211.2" width="6" height="8" rx="1" fill="url(#windowGlow)" opacity="0.9712398893531597"/>
<rect x="245.7" y="211.2" width="6" height="8" rx="1" fill="url(#windowGlow)" opacity="0.8974782766762553"/>
<rect x="217.7" y="226.2" width="6" height="8" rx="1" fill="url(#windowGlow)" opacity="0.9199932982306895"/>
<rect x="231.7" y="226.2" width="6" height="8" rx="1" fill="url(#windowGlow)" opacity="0.7209384827972103"/>
<rect x="245.7" y="226.2" width="6" height="8" rx="1" fill="url(#windowGlow)" opacity="0.9297985497069539"/>
<rect x="217.7" y="241.2" width="6" height="8" rx="1" fill="url(#windowGlow)" opacity="0.7442187992130493"/>
<rect x="231.7" y="241.2" width="6" height="8" rx="1" fill="url(#windowGlow)" opacity="0.9240003989189864"/>
<rect x="217.7" y="256.2" width="6" height="8" rx="1" fill="url(#windowGlow)" opacity="0.8137811137427488"/>
<rect x="231.7" y="256.2" width="6" height="8" rx="1" fill="url(#windowGlow)" opacity="0.7618334878989651"/>
<rect x="245.7" y="256.2" width="6" height="8" rx="1" fill="url(#windowGlow)" opacity="0.9958439995515365"/>
<rect x="229.7" y="284.0" width="10" height="16" rx="2" fill="url(#roof_navyRoof)" opacity="0.8"/>
<rect x="231.7" y="287.0" width="6" height="10" rx="1" fill="url(#windowGlow)" opacity="0.45"/>
<rect x="224.4" y="212.2" width="20.5" height="5" rx="1" fill="#15803d" opacity="0.7"/>
<circle cx="227.4" cy="211.2" r="2.5" fill="#a78bfa" opacity="0.85"/>
<circle cx="234.3" cy="211.2" r="2.5" fill="#fbbf24" opacity="0.85"/>
<circle cx="241.1" cy="211.2" r="2.5" fill="#fbbf24" opacity="0.85"/>
<rect x="527.8" y="218.2" width="63.0" height="81.8" rx="3" fill="url(#bldg_rose)" opacity="1"/>
<polygon points="527.8,218.2 559.2,202.2 590.7,218.2" fill="url(#roof_navyRoof)" opacity="1"/>
<rect x="542.2" y="228.2" width="6" height="8" rx="1" fill="url(#windowGlow)" opacity="0.8538773319934855"/>
<rect x="570.2" y="228.2" width="6" height="8" rx="1" fill="url(#windowGlow)" opacity="0.9499687067465711"/>
<rect x="556.2" y="243.2" width="6" height="8" rx="1" fill="url(#windowGlow)" opacity="0.811084700753486"/>
<rect x="570.2" y="243.2" width="6" height="8" rx="1" fill="url(#windowGlow)" opacity="0.9495374057206964"/>
<rect x="542.2" y="258.2" width="6" height="8" rx="1" fill="url(#windowGlow)" opacity="0.7549492316110754"/>
<rect x="556.2" y="258.2" width="6" height="8" rx="1" fill="url(#windowGlow)" opacity="0.7058752798037022"/>
<rect x="570.2" y="258.2" width="6" height="8" rx="1" fill="url(#windowGlow)" opacity="0.7859950773352734"/>
<rect x="554.2" y="284.0" width="10" height="16" rx="2" fill="url(#roof_navyRoof)" opacity="0.8"/>
<rect x="556.2" y="287.0" width="6" height="10" rx="1" fill="url(#windowGlow)" opacity="0.45"/>
<path d="M534.1 246.8 L559.2 246.8 L556.2 252.8 L537.1 252.8 Z" fill="url(#roof_tealRoof)" opacity="0.8"/>
<rect x="916.2" y="184.6" width="41.3" height="115.4" rx="3" fill="url(#bldg_sky)" opacity="1"/>
<polygon points="916.2,184.6 936.9,172.3 957.6,184.6" fill="url(#roof_coralRoof)" opacity="1"/>
<rect x="933.9" y="194.6" width="6" height="8" rx="1" fill="url(#windowGlow)" opacity="0.9543314317494311"/>
<rect x="933.9" y="209.6" width="6" height="8" rx="1" fill="url(#windowGlow)" opacity="0.9598560360539033"/>
<rect x="933.9" y="239.6" width="6" height="8" rx="1" fill="url(#windowGlow)" opacity="0.9354471842457759"/>
<rect x="933.9" y="254.6" width="6" height="8" rx="1" fill="url(#windowGlow)" opacity="0.7341358587770423"/>
<rect x="931.9" y="284.0" width="10" height="16" rx="2" fill="url(#roof_navyRoof)" opacity="0.8"/>
<rect x="933.9" y="287.0" width="6" height="10" rx="1" fill="url(#windowGlow)" opacity="0.45"/>
<rect x="392.9" y="266.9" width="6" height="18.1" rx="2" fill="#15803d"/>
<circle cx="395.9" cy="253.0" r="17.9" fill="#22c55e" opacity="0.9"/>
<circle cx="389.2" cy="256.0" r="13.4" fill="#16a34a" opacity="0.8"/>
<circle cx="402.3" cy="257.0" r="12.5" fill="#15803d" opacity="0.7"/>
<rect x="750.5" y="267.5" width="6" height="17.5" rx="2" fill="#15803d"/>
<circle cx="753.5" cy="253.6" r="17.9" fill="#22c55e" opacity="0.9"/>
<circle cx="745.7" cy="256.6" r="13.4" fill="#16a34a" opacity="0.8"/>
<circle cx="759.2" cy="257.6" r="12.5" fill="#15803d" opacity="0.7"/>
<rect x="178.9" y="265.0" width="6" height="20.0" rx="2" fill="#15803d"/>
<circle cx="181.9" cy="254.4" r="14.6" fill="#22c55e" opacity="0.9"/>
<circle cx="175.2" cy="257.4" r="11.0" fill="#16a34a" opacity="0.8"/>
<circle cx="188.1" cy="258.4" r="10.3" fill="#15803d" opacity="0.7"/>
<rect x="974.7" y="268.1" width="6" height="16.9" rx="2" fill="#15803d"/>
<circle cx="977.7" cy="255.0" r="17.1" fill="#22c55e" opacity="0.9"/>
<circle cx="970.0" cy="258.0" r="12.8" fill="#16a34a" opacity="0.8"/>
<circle cx="984.4" cy="259.0" r="12.0" fill="#15803d" opacity="0.7"/>
<rect x="259.4" y="266.8" width="6" height="18.2" rx="2" fill="#15803d"/>
<circle cx="262.4" cy="254.1" r="16.7" fill="#22c55e" opacity="0.9"/>
<circle cx="255.6" cy="257.1" r="12.5" fill="#16a34a" opacity="0.8"/>
<circle cx="268.6" cy="258.1" r="11.7" fill="#15803d" opacity="0.7"/>
<rect x="426.4" y="268.1" width="6" height="16.9" rx="2" fill="#15803d"/>
<circle cx="429.4" cy="258.6" r="13.6" fill="#22c55e" opacity="0.9"/>
<circle cx="423.3" cy="261.6" r="10.2" fill="#16a34a" opacity="0.8"/>
<circle cx="435.8" cy="262.6" r="9.5" fill="#15803d" opacity="0.7"/>
<rect x="895.5" y="266.6" width="6" height="18.4" rx="2" fill="#15803d"/>
<circle cx="898.5" cy="255.2" r="15.4" fill="#22c55e" opacity="0.9"/>
<circle cx="890.6" cy="258.2" r="11.5" fill="#16a34a" opacity="0.8"/>
<circle cx="903.6" cy="259.2" r="10.8" fill="#15803d" opacity="0.7"/>
<rect x="0" y="282" width="1200" height="18" fill="url(#groundGrad)"/>
<line x1="738.9" y1="282.0" x2="738.9" y2="242.3" stroke="#92400e" stroke-width="2"/>
<circle cx="738.9" cy="242.3" r="4" fill="#fef08a" opacity="0.6"/>
<circle cx="738.9" cy="242.3" r="8" fill="#fef08a" opacity="0.15" filter="url(#softGlow)"/>
<line x1="368.0" y1="282.0" x2="368.0" y2="247.5" stroke="#92400e" stroke-width="2"/>
<circle cx="368.0" cy="247.5" r="4" fill="#fef08a" opacity="0.6"/>
<circle cx="368.0" cy="247.5" r="8" fill="#fef08a" opacity="0.15" filter="url(#softGlow)"/>
<ellipse cx="447.5" cy="282.0" rx="4.9" ry="3.4" fill="#22c55e" opacity="0.6"/>
<ellipse cx="563.9" cy="282.0" rx="5.2" ry="3.7" fill="#22c55e" opacity="0.6"/>
<ellipse cx="530.9" cy="282.0" rx="5.3" ry="3.7" fill="#22c55e" opacity="0.6"/>
</svg>