<svg xmlns="http://www.w3.org/2000/svg" viewBox="0 0 1200 300" width="1200" height="300">
<defs><linearGradient id="skyGrad" x1="0" y1="0" x2="0" y2="1"><stop offset="0%" stop-color="#e6ecf2"/><stop offset="100%" stop-color="#f0eeec"/></linearGradient></defs><rect width="1200" height="300" fill="url(#skyGrad)"/>
<path d="M0 300 L0 206.7 C323.7 181.9, 856.7 196.8, 1200 206.7 L1200 300 Z" fill="#b5cad8" opacity="0.25"/>
<rect x="163.9" y="176.0" width="73.3" height="124.0" fill="#99b6c9"/>
<polygon points="163.9,176.0 200.5,157.7 237.2,176.0" fill="#8da7b9"/>
<rect x="438.2" y="209.4" width="53.9" height="90.6" fill="#99b6c9"/>
<rect x="672.6" y="205.9" width="70.5" height="94.1" fill="#99b6c9"/>
<polygon points="672.6,205.9 707.8,188.3 743.1,205.9" fill="#8da7b9"/>
<rect x="975.1" y="196.7" width="42.3" height="103.3" fill="#99b6c9"/>
<rect x="128.8" y="190.2" width="35.1" height="109.8" fill="#6a95b1"/>
<rect x="143.4" y="202.2" width="6" height="8" fill="#9ebacc" opacity="0.5"/>
<rect x="143.4" y="218.2" width="6" height="8" fill="#9ebacc" opacity="0.5"/>
<rect x="143.4" y="234.2" width="6" height="8" fill="#9ebacc" opacity="0.5"/>
<rect x="323.5" y="134.4" width="74.9" height="165.6" fill="#6a95b1"/>
<polygon points="323.5,134.4 361.0,115.6 398.5,134.4" fill="#6289a3"/>
<rect x="344.0" y="146.4" width="6" height="8" fill="#9ebacc" opacity="0.5"/>
<rect x="372.0" y="146.4" width="6" height="8" fill="#9ebacc" opacity="0.5"/>
<rect x="344.0" y="178.4" width="6" height="8" fill="#9ebacc" opacity="0.5"/>
<rect x="372.0" y="178.4" width="6" height="8" fill="#9ebacc" opacity="0.5"/>
<rect x="358.0" y="194.4" width="6" height="8" fill="#9ebacc" opacity="0.5"/>
<rect x="372.0" y="194.4" width="6" height="8" fill="#9ebacc" opacity="0.5"/>
<rect x="344.0" y="210.4" width="6" height="8" fill="#9ebacc" opacity="0.5"/>
<rect x="358.0" y="210.4" width="6" height="8" fill="#9ebacc" opacity="0.5"/>
<rect x="372.0" y="210.4" width="6" height="8" fill="#9ebacc" opacity="0.5"/>
<rect x="344.0" y="226.4" width="6" height="8" fill="#9ebacc" opacity="0.5"/>
<rect x="358.0" y="226.4" width="6" height="8" fill="#9ebacc" opacity="0.5"/>
<rect x="551.8" y="217.2" width="54.6" height="82.8" fill="#6a95b1"/>
<rect x="561.3" y="202.6" width="35.5" height="14.6" fill="#658ea8"/>
<rect x="569.1" y="214.6" width="6" height="8" fill="#9ebacc" opacity="0.5"/>
<rect x="583.1" y="214.6" width="6" height="8" fill="#9ebacc" opacity="0.5"/>
<rect x="569.1" y="230.6" width="6" height="8" fill="#9ebacc" opacity="0.5"/>
<rect x="583.1" y="246.6" width="6" height="8" fill="#9ebacc" opacity="0.5"/>
<rect x="803.0" y="207.6" width="73.4" height="92.4" fill="#6a95b1"/>
<rect x="815.8" y="191.3" width="47.7" height="16.3" fill="#658ea8"/>
<rect x="836.7" y="203.3" width="6" height="8" fill="#9ebacc" opacity="0.5"/>
<rect x="822.7" y="219.3" width="6" height="8" fill="#9ebacc" opacity="0.5"/>
<rect x="836.7" y="219.3" width="6" height="8" fill="#9ebacc" opacity="0.5"/>
<rect x="850.7" y="219.3" width="6" height="8" fill="#9ebacc" opacity="0.5"/>
<rect x="822.7" y="235.3" width="6" height="8" fill="#9ebacc" opacity="0.5"/>
<rect x="836.7" y="235.3" width="6" height="8" fill="#9ebacc" opacity="0.5"/>
<rect x="822.7" y="251.3" width="6" height="8" fill="#9ebacc" opacity="0.5"/>
<rect x="836.7" y="251.3" width="6" height="8" fill="#9ebacc" opacity="0.5"/>
<rect x="850.7" y="251.3" width="6" height="8" fill="#9ebacc" opacity="0.5"/>
<rect x="822.7" y="267.3" width="6" height="8" fill="#9ebacc" opacity="0.5"/>
<rect x="836.7" y="267.3" width="6" height="8" fill="#9ebacc" opacity="0.5"/>
<rect x="1064.8" y="195.5" width="35.8" height="104.5" fill="#6a95b1"/>
<rect x="1079.6" y="207.5" width="6" height="8" fill="#9ebacc" opacity="0.5"/>
<rect x="1079.6" y="223.5" width="6" height="8" fill="#9ebacc" opacity="0.5"/>
<rect x="1079.6" y="239.5" width="6" height="8" fill="#9ebacc" opacity="0.5"/>
<rect x="121.2" y="111.6" width="64.3" height="188.4" fill="#457b9d"/>
<rect x="136.3" y="123.6" width="6" height="8" fill="#86a9bf" opacity="0.5"/>
<rect x="150.3" y="123.6" width="6" height="8" fill="#86a9bf" opacity="0.5"/>
<rect x="136.3" y="139.6" width="6" height="8" fill="#86a9bf" opacity="0.5"/>
<rect x="150.3" y="139.6" width="6" height="8" fill="#86a9bf" opacity="0.5"/>
<rect x="136.3" y="155.6" width="6" height="8" fill="#86a9bf" opacity="0.5"/>
<rect x="150.3" y="171.6" width="6" height="8" fill="#86a9bf" opacity="0.5"/>
<rect x="136.3" y="187.6" width="6" height="8" fill="#86a9bf" opacity="0.5"/>
<rect x="150.3" y="187.6" width="6" height="8" fill="#86a9bf" opacity="0.5"/>
<rect x="164.3" y="187.6" width="6" height="8" fill="#86a9bf" opacity="0.5"/>
<rect x="150.3" y="203.6" width="6" height="8" fill="#86a9bf" opacity="0.5"/>
<rect x="164.3" y="203.6" width="6" height="8" fill="#86a9bf" opacity="0.5"/>
<rect x="406.4" y="183.7" width="69.1" height="116.3" fill="#457b9d"/>
<polygon points="406.4,183.7 441.0,166.4 475.5,183.7" fill="#3f7190"/>
<rect x="424.0" y="195.7" width="6" height="8" fill="#86a9bf" opacity="0.5"/>
<rect x="438.0" y="195.7" width="6" height="8" fill="#86a9bf" opacity="0.5"/>
<rect x="452.0" y="211.7" width="6" height="8" fill="#86a9bf" opacity="0.5"/>
<rect x="438.0" y="227.7" width="6" height="8" fill="#86a9bf" opacity="0.5"/>
<rect x="452.0" y="227.7" width="6" height="8" fill="#86a9bf" opacity="0.5"/>
<rect x="424.0" y="243.7" width="6" height="8" fill="#86a9bf" opacity="0.5"/>
<rect x="438.0" y="243.7" width="6" height="8" fill="#86a9bf" opacity="0.5"/>
<rect x="452.0" y="243.7" width="6" height="8" fill="#86a9bf" opacity="0.5"/>
<rect x="424.0" y="259.7" width="6" height="8" fill="#86a9bf" opacity="0.5"/>
<rect x="438.0" y="259.7" width="6" height="8" fill="#86a9bf" opacity="0.5"/>
<rect x="716.1" y="197.0" width="62.7" height="103.0" fill="#457b9d"/>
<rect x="730.4" y="209.0" width="6" height="8" fill="#86a9bf" opacity="0.5"/>
<rect x="744.4" y="209.0" width="6" height="8" fill="#86a9bf" opacity="0.5"/>
<rect x="758.4" y="209.0" width="6" height="8" fill="#86a9bf" opacity="0.5"/>
<rect x="730.4" y="225.0" width="6" height="8" fill="#86a9bf" opacity="0.5"/>
<rect x="758.4" y="225.0" width="6" height="8" fill="#86a9bf" opacity="0.5"/>
<rect x="758.4" y="241.0" width="6" height="8" fill="#86a9bf" opacity="0.5"/>
<rect x="730.4" y="257.0" width="6" height="8" fill="#86a9bf" opacity="0.5"/>
<rect x="744.4" y="257.0" width="6" height="8" fill="#86a9bf" opacity="0.5"/>
<rect x="758.4" y="257.0" width="6" height="8" fill="#86a9bf" opacity="0.5"/>
<rect x="730.4" y="273.0" width="6" height="8" fill="#86a9bf" opacity="0.5"/>
<rect x="744.4" y="273.0" width="6" height="8" fill="#86a9bf" opacity="0.5"/>
<rect x="758.4" y="273.0" width="6" height="8" fill="#86a9bf" opacity="0.5"/>
<rect x="997.2" y="214.3" width="50.7" height="85.7" fill="#457b9d"/>
<polygon points="997.2,214.3 1022.6,201.6 1047.9,214.3" fill="#3f7190"/>
<rect x="1012.6" y="242.3" width="6" height="8" fill="#86a9bf" opacity="0.5"/>
<rect x="1026.6" y="242.3" width="6" height="8" fill="#86a9bf" opacity="0.5"/>
<rect x="1026.6" y="258.3" width="6" height="8" fill="#86a9bf" opacity="0.5"/>
<line x1="295.9" y1="285.0" x2="295.9" y2="272.1" stroke="#6b5a42" stroke-width="3"/>
<circle cx="295.9" cy="255.1" r="17.0" fill="#598a49"/>
<line x1="595.8" y1="285.0" x2="595.8" y2="271.2" stroke="#6b5a42" stroke-width="3"/>
<circle cx="595.8" cy="254.5" r="16.7" fill="#517e43"/>
<line x1="888.0" y1="285.0" x2="888.0" y2="273.4" stroke="#6b5a42" stroke-width="3"/>
<circle cx="888.0" cy="259.7" r="13.7" fill="#578848"/>
<line x1="248.5" y1="285.0" x2="248.5" y2="274.2" stroke="#6b5a42" stroke-width="3"/>
<circle cx="248.5" cy="261.7" r="12.5" fill="#568647"/>
<line x1="662.3" y1="285.0" x2="662.3" y2="273.0" stroke="#6b5a42" stroke-width="3"/>
<circle cx="662.3" cy="256.6" r="16.4" fill="#598b4a"/>
<line x1="306.1" y1="285.0" x2="306.1" y2="270.7" stroke="#6b5a42" stroke-width="3"/>
<circle cx="306.1" cy="258.6" r="12.1" fill="#568546"/>
<line x1="138.7" y1="285.0" x2="138.7" y2="273.9" stroke="#6b5a42" stroke-width="3"/>
<circle cx="138.7" cy="261.7" r="12.2" fill="#548345"/>
<line x1="81.0" y1="285.0" x2="81.0" y2="270.6" stroke="#6b5a42" stroke-width="3"/>
<circle cx="81.0" cy="255.3" r="15.3" fill="#578848"/>
<rect x="0" y="285" width="1200" height="15" fill="#9aaa85" opacity="0.4"/>
</svg>