<svg xmlns="http://www.w3.org/2000/svg" viewBox="0 0 1200 400" width="1200" height="400">
<defs>
<linearGradient id="bg" x1="0" y1="0" x2="0" y2="1"><stop offset="0%" stop-color="#166534"/><stop offset="100%" stop-color="#3b82f6"/></linearGradient>
<linearGradient id="warm" x1="0" y1="0" x2="1" y2="1"><stop offset="0%" stop-color="#858d98" stop-opacity="0.18"/><stop offset="100%" stop-color="#858d98" stop-opacity="0.06"/></linearGradient>
</defs>
<rect width="1200" height="400" fill="url(#bg)"/>
<path d="M0 400 L0 248.18714140442086 C60.0 243.8, 90.0 240.2, 150.0 238.4 C210.0 237.8, 240.0 260.0, 300.0 257.8 C360.0 249.6, 390.0 233.5, 450.0 233.1 C510.0 224.0, 540.0 229.1, 600.0 236.4 C660.0 239.5, 690.0 235.3, 750.0 245.3 C810.0 245.9, 840.0 243.1, 900.0 245.8 C960.0 253.6, 990.0 248.6, 1050.0 251.8 C1110.0 261.8, 1140.0 255.4, 1200.0 256.7 L1200 400 Z" fill="#2e78b2" opacity="0.45"/>
<path d="M0 400 L0 263.60629712244344 C52.5 260.2, 97.5 269.6, 150.0 262.7 C202.5 268.3, 247.5 275.7, 300.0 278.6 C352.5 278.0, 397.5 277.4, 450.0 274.0 C502.5 274.9, 547.5 264.0, 600.0 266.0 C652.5 265.4, 697.5 256.8, 750.0 257.6 C802.5 253.9, 847.5 275.9, 900.0 279.5 C952.5 285.1, 997.5 257.7, 1050.0 264.8 C1102.5 266.2, 1147.5 278.7, 1200.0 276.3 L1200 400 Z" fill="#3b82f6" opacity="0.3"/>
<rect x="919.6" y="316.9" width="37.7" height="83.1" rx="4.1" fill="#bc891c" opacity="0.56"/>
<rect x="937.2" y="326.9" width="4" height="5" rx="0.5" fill="#166534" opacity="0.6"/>
<rect x="937.2" y="370.9" width="4" height="5" rx="0.5" fill="#166534" opacity="0.6"/>
<rect x="412.6" y="319.4" width="22.4" height="80.6" rx="7.0" fill="#8b866e" opacity="0.71"/>
<rect x="417.6" y="329.4" width="4" height="5" rx="0.5" fill="#166534" opacity="0.6"/>
<rect x="417.6" y="351.4" width="4" height="5" rx="0.5" fill="#166534" opacity="0.6"/>
<rect x="417.6" y="373.4" width="4" height="5" rx="0.5" fill="#166534" opacity="0.6"/>
<rect x="784.7" y="325.0" width="20.4" height="75.0" rx="7.6" fill="#a28847" opacity="0.51"/>
<rect x="416.3" y="292.6" width="20.3" height="107.4" rx="3.6" fill="#b08930" opacity="0.53"/>
<rect x="421.3" y="324.6" width="4" height="5" rx="0.5" fill="#166534" opacity="0.6"/>
<rect x="421.3" y="346.6" width="4" height="5" rx="0.5" fill="#166534" opacity="0.6"/>
<rect x="421.3" y="368.6" width="4" height="5" rx="0.5" fill="#166534" opacity="0.6"/>
<rect x="451.5" y="327.0" width="26.9" height="73.0" rx="4.8" fill="#8f8767" opacity="0.81"/>
<rect x="208.4" y="307.7" width="31.9" height="92.3" rx="6.8" fill="#808681" opacity="0.65"/>
<rect x="213.4" y="361.7" width="4" height="5" rx="0.5" fill="#166534" opacity="0.6"/>
<rect x="353.1" y="293.3" width="35.6" height="106.7" rx="5.2" fill="#8f8768" opacity="0.61"/>
<rect x="187.2" y="343.7" width="14.1" height="56.3" rx="4.8" fill="#c78a0a" opacity="0.66"/>
<rect x="208.4" y="323.9" width="38.5" height="76.1" rx="6.3" fill="#83867d" opacity="0.58"/>
<rect x="340.1" y="320.3" width="40.0" height="79.7" rx="3.4" fill="#c38a10" opacity="0.65"/>
<rect x="962.0" y="271.8" width="23.1" height="128.2" rx="7.0" fill="#a38845" opacity="0.67"/>
<rect x="967.0" y="281.8" width="4" height="5" rx="0.5" fill="#166534" opacity="0.6"/>
<rect x="967.0" y="325.8" width="4" height="5" rx="0.5" fill="#166534" opacity="0.6"/>
<rect x="471.1" y="302.6" width="44.5" height="97.4" rx="4.4" fill="#878675" opacity="0.56"/>
<rect x="797.0" y="317.4" width="46.5" height="82.6" rx="7.2" fill="#7f8683" opacity="0.67"/>
<rect x="817.5" y="349.4" width="4" height="5" rx="0.5" fill="#166534" opacity="0.6"/>
<rect x="802.0" y="371.4" width="4" height="5" rx="0.5" fill="#166534" opacity="0.6"/>
<line x1="1110.3" y1="181.4" x2="1135.1" y2="181.4" stroke="#ca8a04" stroke-width="1.1" opacity="0.32"/>
<line x1="572.9" y1="200.6" x2="641.8" y2="200.6" stroke="#166534" stroke-width="1.5" opacity="0.34"/>
<line x1="343.3" y1="59.6" x2="383.5" y2="59.6" stroke="#ca8a04" stroke-width="2.5" opacity="0.17"/>
<line x1="61.1" y1="171.7" x2="82.7" y2="171.7" stroke="#ca8a04" stroke-width="2.1" opacity="0.27"/>
<line x1="876.1" y1="132.5" x2="939.6" y2="132.5" stroke="#ca8a04" stroke-width="2.8" opacity="0.38"/>
<line x1="569.5" y1="9.5" x2="646.7" y2="9.5" stroke="#ca8a04" stroke-width="1.5" opacity="0.38"/>
<line x1="152.6" y1="170.3" x2="181.7" y2="170.3" stroke="#166534" stroke-width="2.2" opacity="0.39"/>
<line x1="569.3" y1="186.9" x2="611.7" y2="186.9" stroke="#166534" stroke-width="2.1" opacity="0.33"/>
<line x1="857.2" y1="25.4" x2="928.5" y2="25.4" stroke="#ca8a04" stroke-width="2.8" opacity="0.42"/>
<line x1="384.6" y1="130.3" x2="426.4" y2="130.3" stroke="#ca8a04" stroke-width="1.4" opacity="0.32"/>
<line x1="283.0" y1="180.3" x2="333.1" y2="180.3" stroke="#ca8a04" stroke-width="2.2" opacity="0.39"/>
<line x1="709.7" y1="232.4" x2="769.8" y2="232.4" stroke="#ca8a04" stroke-width="1.2" opacity="0.21"/>
<rect width="1200" height="400" fill="url(#warm)"/>
<rect width="1200" height="400" fill="#166534" opacity="0.40"/>
</svg>