<svg xmlns="http://www.w3.org/2000/svg" viewBox="0 0 1200 400" width="1200" height="400">
<defs>
<linearGradient id="bg" x1="0" y1="0" x2="0" y2="1"><stop offset="0%" stop-color="#94a3b8"/><stop offset="100%" stop-color="#0369a1"/></linearGradient>
<linearGradient id="warm" x1="0" y1="0" x2="1" y2="1"><stop offset="0%" stop-color="#8f8f8c" stop-opacity="0.18"/><stop offset="100%" stop-color="#8f8f8c" stop-opacity="0.06"/></linearGradient>
</defs>
<rect width="1200" height="400" fill="url(#bg)"/>
<path d="M0 400 L0 238.47018836743712 C60.0 242.7, 90.0 246.5, 150.0 243.4 C210.0 244.4, 240.0 227.3, 300.0 223.6 C360.0 219.9, 390.0 229.6, 450.0 239.0 C510.0 238.7, 540.0 232.7, 600.0 237.6 C660.0 236.9, 690.0 247.3, 750.0 242.9 C810.0 244.9, 840.0 249.9, 900.0 256.2 C960.0 263.3, 990.0 233.5, 1050.0 227.6 C1110.0 225.3, 1140.0 245.8, 1200.0 237.0 L1200 400 Z" fill="#367da9" opacity="0.45"/>
<path d="M0 400 L0 263.09950180080733 C52.5 258.2, 97.5 283.3, 150.0 277.5 C202.5 283.9, 247.5 256.1, 300.0 259.3 C352.5 253.2, 397.5 261.8, 450.0 259.3 C502.5 262.2, 547.5 265.5, 600.0 266.6 C652.5 260.3, 697.5 260.8, 750.0 259.2 C802.5 265.5, 847.5 265.1, 900.0 268.5 C952.5 273.3, 997.5 280.7, 1050.0 281.1 C1102.5 277.8, 1147.5 276.2, 1200.0 270.9 L1200 400 Z" fill="#0369a1" opacity="0.3"/>
<rect x="980.4" y="366.9" width="47.1" height="33.1" rx="6.1" fill="#05916f" opacity="0.54"/>
<rect x="828.6" y="282.1" width="16.4" height="117.9" rx="6.2" fill="#048183" opacity="0.64"/>
<rect x="833.6" y="292.1" width="4" height="5" rx="0.5" fill="#94a3b8" opacity="0.6"/>
<rect x="833.6" y="314.1" width="4" height="5" rx="0.5" fill="#94a3b8" opacity="0.6"/>
<rect x="833.6" y="336.1" width="4" height="5" rx="0.5" fill="#94a3b8" opacity="0.6"/>
<rect x="833.6" y="358.1" width="4" height="5" rx="0.5" fill="#94a3b8" opacity="0.6"/>
<rect x="306.1" y="270.4" width="28.9" height="129.6" rx="6.2" fill="#047c8a" opacity="0.70"/>
<rect x="311.1" y="280.4" width="4" height="5" rx="0.5" fill="#94a3b8" opacity="0.6"/>
<rect x="311.1" y="302.4" width="4" height="5" rx="0.5" fill="#94a3b8" opacity="0.6"/>
<rect x="311.1" y="324.4" width="4" height="5" rx="0.5" fill="#94a3b8" opacity="0.6"/>
<rect x="311.1" y="346.4" width="4" height="5" rx="0.5" fill="#94a3b8" opacity="0.6"/>
<rect x="582.2" y="315.4" width="33.8" height="84.6" rx="3.9" fill="#04877c" opacity="0.76"/>
<rect x="587.2" y="325.4" width="4" height="5" rx="0.5" fill="#94a3b8" opacity="0.6"/>
<rect x="598.5" y="325.4" width="4" height="5" rx="0.5" fill="#94a3b8" opacity="0.6"/>
<rect x="598.5" y="347.4" width="4" height="5" rx="0.5" fill="#94a3b8" opacity="0.6"/>
<rect x="258.9" y="327.0" width="34.4" height="73.0" rx="6.7" fill="#05956a" opacity="0.77"/>
<rect x="655.6" y="370.8" width="43.3" height="29.2" rx="3.1" fill="#047e86" opacity="0.82"/>
<rect x="296.2" y="302.8" width="40.7" height="97.2" rx="6.0" fill="#048085" opacity="0.64"/>
<rect x="314.7" y="312.8" width="4" height="5" rx="0.5" fill="#94a3b8" opacity="0.6"/>
<rect x="301.2" y="334.8" width="4" height="5" rx="0.5" fill="#94a3b8" opacity="0.6"/>
<rect x="314.7" y="356.8" width="4" height="5" rx="0.5" fill="#94a3b8" opacity="0.6"/>
<rect x="287.6" y="367.0" width="18.8" height="33.0" rx="3.4" fill="#047f86" opacity="0.51"/>
<rect x="130.7" y="325.4" width="25.0" height="74.6" rx="7.8" fill="#059070" opacity="0.64"/>
<rect x="867.5" y="286.4" width="13.5" height="113.6" rx="4.6" fill="#05946c" opacity="0.78"/>
<rect x="872.5" y="296.4" width="4" height="5" rx="0.5" fill="#94a3b8" opacity="0.6"/>
<rect x="872.5" y="318.4" width="4" height="5" rx="0.5" fill="#94a3b8" opacity="0.6"/>
<rect x="872.5" y="362.4" width="4" height="5" rx="0.5" fill="#94a3b8" opacity="0.6"/>
<rect x="226.9" y="303.5" width="14.6" height="96.5" rx="4.7" fill="#058b76" opacity="0.61"/>
<rect x="857.0" y="303.2" width="31.8" height="96.8" rx="6.3" fill="#059669" opacity="0.83"/>
<rect x="862.0" y="357.2" width="4" height="5" rx="0.5" fill="#94a3b8" opacity="0.6"/>
<rect x="700.7" y="355.4" width="14.4" height="44.6" rx="7.1" fill="#05916f" opacity="0.78"/>
<circle cx="1148.8" cy="114.8" r="9.3" fill="#94a3b8" opacity="0.27"/>
<circle cx="220.8" cy="193.0" r="3.3" fill="#94a3b8" opacity="0.25"/>
<rect width="1200" height="400" fill="url(#warm)"/>
<rect width="1200" height="400" fill="#94a3b8" opacity="0.44"/>
</svg>