<svg xmlns="http://www.w3.org/2000/svg" viewBox="0 0 1200 300" width="1200" height="300">
<defs><linearGradient id="skyGrad" x1="0" y1="0" x2="0" y2="1"><stop offset="0%" stop-color="#ddf0f0"/><stop offset="100%" stop-color="#f0e8d8"/></linearGradient></defs><rect width="1200" height="300" fill="url(#skyGrad)"/>
<rect x="146.7" y="239.5" width="57.2" height="60.5" fill="#aeb0a5"/>
<rect x="459.7" y="197.3" width="42.9" height="102.7" fill="#aeb0a5"/>
<rect x="698.6" y="227.6" width="68.9" height="72.4" fill="#aeb0a5"/>
<rect x="710.7" y="214.9" width="44.8" height="12.8" fill="#a5a79d"/>
<rect x="1012.0" y="233.5" width="46.1" height="66.5" fill="#aeb0a5"/>
<rect x="175.9" y="218.7" width="51.8" height="81.3" fill="#898d7d"/>
<rect x="191.8" y="246.7" width="6" height="8" fill="#b2b5ab" opacity="0.5"/>
<rect x="205.8" y="246.7" width="6" height="8" fill="#b2b5ab" opacity="0.5"/>
<rect x="205.8" y="262.7" width="6" height="8" fill="#b2b5ab" opacity="0.5"/>
<rect x="450.0" y="212.0" width="74.4" height="88.0" fill="#898d7d"/>
<rect x="463.0" y="196.4" width="48.4" height="15.5" fill="#828677"/>
<rect x="498.2" y="224.4" width="6" height="8" fill="#b2b5ab" opacity="0.5"/>
<rect x="470.2" y="256.4" width="6" height="8" fill="#b2b5ab" opacity="0.5"/>
<rect x="498.2" y="256.4" width="6" height="8" fill="#b2b5ab" opacity="0.5"/>
<rect x="470.2" y="272.4" width="6" height="8" fill="#b2b5ab" opacity="0.5"/>
<rect x="498.2" y="272.4" width="6" height="8" fill="#b2b5ab" opacity="0.5"/>
<rect x="710.5" y="138.2" width="61.4" height="161.8" fill="#898d7d"/>
<polygon points="710.5,138.2 741.2,122.9 771.8,138.2" fill="#7e8273"/>
<rect x="738.2" y="150.2" width="6" height="8" fill="#b2b5ab" opacity="0.5"/>
<rect x="752.2" y="150.2" width="6" height="8" fill="#b2b5ab" opacity="0.5"/>
<rect x="738.2" y="166.2" width="6" height="8" fill="#b2b5ab" opacity="0.5"/>
<rect x="752.2" y="166.2" width="6" height="8" fill="#b2b5ab" opacity="0.5"/>
<rect x="724.2" y="182.2" width="6" height="8" fill="#b2b5ab" opacity="0.5"/>
<rect x="738.2" y="182.2" width="6" height="8" fill="#b2b5ab" opacity="0.5"/>
<rect x="752.2" y="182.2" width="6" height="8" fill="#b2b5ab" opacity="0.5"/>
<rect x="738.2" y="198.2" width="6" height="8" fill="#b2b5ab" opacity="0.5"/>
<rect x="752.2" y="198.2" width="6" height="8" fill="#b2b5ab" opacity="0.5"/>
<rect x="724.2" y="214.2" width="6" height="8" fill="#b2b5ab" opacity="0.5"/>
<rect x="738.2" y="214.2" width="6" height="8" fill="#b2b5ab" opacity="0.5"/>
<rect x="752.2" y="214.2" width="6" height="8" fill="#b2b5ab" opacity="0.5"/>
<rect x="738.2" y="230.2" width="6" height="8" fill="#b2b5ab" opacity="0.5"/>
<rect x="752.2" y="230.2" width="6" height="8" fill="#b2b5ab" opacity="0.5"/>
<rect x="1032.8" y="172.5" width="46.3" height="127.5" fill="#898d7d"/>
<rect x="1046.0" y="184.5" width="6" height="8" fill="#b2b5ab" opacity="0.5"/>
<rect x="1060.0" y="184.5" width="6" height="8" fill="#b2b5ab" opacity="0.5"/>
<rect x="1060.0" y="200.5" width="6" height="8" fill="#b2b5ab" opacity="0.5"/>
<rect x="1046.0" y="216.5" width="6" height="8" fill="#b2b5ab" opacity="0.5"/>
<rect x="1060.0" y="216.5" width="6" height="8" fill="#b2b5ab" opacity="0.5"/>
<rect x="1046.0" y="232.5" width="6" height="8" fill="#b2b5ab" opacity="0.5"/>
<rect x="1060.0" y="232.5" width="6" height="8" fill="#b2b5ab" opacity="0.5"/>
<rect x="1046.0" y="248.5" width="6" height="8" fill="#b2b5ab" opacity="0.5"/>
<rect x="1060.0" y="248.5" width="6" height="8" fill="#b2b5ab" opacity="0.5"/>
<rect x="1046.0" y="264.5" width="6" height="8" fill="#b2b5ab" opacity="0.5"/>
<rect x="1060.0" y="264.5" width="6" height="8" fill="#b2b5ab" opacity="0.5"/>
<rect x="144.8" y="208.3" width="44.0" height="91.7" fill="#6b705c"/>
<rect x="156.8" y="220.3" width="6" height="8" fill="#9fa295" opacity="0.5"/>
<rect x="156.8" y="236.3" width="6" height="8" fill="#9fa295" opacity="0.5"/>
<rect x="170.8" y="236.3" width="6" height="8" fill="#9fa295" opacity="0.5"/>
<rect x="156.8" y="268.3" width="6" height="8" fill="#9fa295" opacity="0.5"/>
<rect x="445.7" y="230.6" width="44.4" height="69.4" fill="#6b705c"/>
<rect x="457.9" y="242.6" width="6" height="8" fill="#9fa295" opacity="0.5"/>
<rect x="471.9" y="242.6" width="6" height="8" fill="#9fa295" opacity="0.5"/>
<rect x="471.9" y="258.6" width="6" height="8" fill="#9fa295" opacity="0.5"/>
<rect x="759.0" y="167.8" width="34.4" height="132.2" fill="#6b705c"/>
<rect x="765.0" y="144.4" width="22.4" height="23.3" fill="#666a57"/>
<rect x="773.2" y="156.4" width="6" height="8" fill="#9fa295" opacity="0.5"/>
<rect x="773.2" y="172.4" width="6" height="8" fill="#9fa295" opacity="0.5"/>
<rect x="773.2" y="204.4" width="6" height="8" fill="#9fa295" opacity="0.5"/>
<rect x="773.2" y="220.4" width="6" height="8" fill="#9fa295" opacity="0.5"/>
<rect x="773.2" y="236.4" width="6" height="8" fill="#9fa295" opacity="0.5"/>
<rect x="1037.2" y="221.1" width="60.1" height="78.9" fill="#6b705c"/>
<rect x="1050.3" y="233.1" width="6" height="8" fill="#9fa295" opacity="0.5"/>
<rect x="1064.3" y="233.1" width="6" height="8" fill="#9fa295" opacity="0.5"/>
<rect x="1050.3" y="249.1" width="6" height="8" fill="#9fa295" opacity="0.5"/>
<rect x="1050.3" y="265.1" width="6" height="8" fill="#9fa295" opacity="0.5"/>
<rect x="1064.3" y="265.1" width="6" height="8" fill="#9fa295" opacity="0.5"/>
<path d="M317.2 285.0 Q340.0 259.4 333.2 233.8" fill="none" stroke="#8b7355" stroke-width="3"/>
<path d="M333.2 233.8 Q324.2 225.5 318.1 227.2" fill="none" stroke="#45823a" stroke-width="2.5"/>
<path d="M333.2 233.8 Q338.0 221.4 341.2 219.0" fill="none" stroke="#45823a" stroke-width="2.5"/>
<path d="M333.2 233.8 Q346.2 228.8 354.8 233.8" fill="none" stroke="#45823a" stroke-width="2.5"/>
<path d="M333.2 233.8 Q337.4 235.3 340.2 246.7" fill="none" stroke="#45823a" stroke-width="2.5"/>
<path d="M333.2 233.8 Q324.1 232.1 318.0 240.4" fill="none" stroke="#45823a" stroke-width="2.5"/>
<path d="M624.5 285.0 Q640.0 258.9 635.4 232.9" fill="none" stroke="#876f52" stroke-width="3"/>
<path d="M635.4 232.9 Q622.3 223.1 613.6 223.4" fill="none" stroke="#48883d" stroke-width="2.5"/>
<path d="M635.4 232.9 Q640.0 220.8 643.0 218.7" fill="none" stroke="#48883d" stroke-width="2.5"/>
<path d="M635.4 232.9 Q650.1 227.9 660.0 232.9" fill="none" stroke="#48883d" stroke-width="2.5"/>
<path d="M635.4 232.9 Q640.0 235.0 643.1 247.2" fill="none" stroke="#48883d" stroke-width="2.5"/>
<path d="M635.4 232.9 Q623.5 232.2 615.6 241.5" fill="none" stroke="#48883d" stroke-width="2.5"/>
<path d="M915.3 285.0 Q943.6 260.3 935.1 235.5" fill="none" stroke="#7d684d" stroke-width="3"/>
<path d="M935.1 235.5 Q924.1 226.5 916.7 227.5" fill="none" stroke="#46843b" stroke-width="2.5"/>
<path d="M935.1 235.5 Q940.5 222.2 944.1 218.9" fill="none" stroke="#46843b" stroke-width="2.5"/>
<path d="M935.1 235.5 Q948.9 230.5 958.1 235.5" fill="none" stroke="#46843b" stroke-width="2.5"/>
<path d="M935.1 235.5 Q940.1 238.2 943.5 250.9" fill="none" stroke="#46843b" stroke-width="2.5"/>
<path d="M935.1 235.5 Q925.9 233.9 919.7 242.3" fill="none" stroke="#46843b" stroke-width="2.5"/>
<path d="M80.8 285.0 Q98.8 261.9 93.4 238.7" fill="none" stroke="#7b654b" stroke-width="3"/>
<path d="M93.4 238.7 Q80.5 229.0 71.9 229.3" fill="none" stroke="#498b3f" stroke-width="2.5"/>
<path d="M93.4 238.7 Q97.9 226.8 100.9 224.8" fill="none" stroke="#498b3f" stroke-width="2.5"/>
<path d="M93.4 238.7 Q105.5 233.7 113.6 238.7" fill="none" stroke="#498b3f" stroke-width="2.5"/>
<path d="M93.4 238.7 Q97.3 239.7 99.9 250.6" fill="none" stroke="#498b3f" stroke-width="2.5"/>
<path d="M93.4 238.7 Q84.0 237.1 77.7 245.6" fill="none" stroke="#498b3f" stroke-width="2.5"/>
<path d="M283.1 285.0 Q305.8 260.0 299.0 235.0" fill="none" stroke="#786349" stroke-width="3"/>
<path d="M299.0 235.0 Q289.1 226.4 282.5 227.8" fill="none" stroke="#4a8c3f" stroke-width="2.5"/>
<path d="M299.0 235.0 Q302.4 224.8 304.6 224.6" fill="none" stroke="#4a8c3f" stroke-width="2.5"/>
<path d="M299.0 235.0 Q314.4 230.0 324.7 235.0" fill="none" stroke="#4a8c3f" stroke-width="2.5"/>
<path d="M299.0 235.0 Q303.3 236.6 306.1 248.2" fill="none" stroke="#4a8c3f" stroke-width="2.5"/>
<path d="M299.0 235.0 Q289.3 233.5 282.8 242.0" fill="none" stroke="#4a8c3f" stroke-width="2.5"/>
<path d="M1022.9 285.0 Q1043.1 256.4 1037.1 227.7" fill="none" stroke="#856e51" stroke-width="3"/>
<path d="M1037.1 227.7 Q1024.9 218.3 1016.9 218.9" fill="none" stroke="#4a8b3f" stroke-width="2.5"/>
<path d="M1037.1 227.7 Q1042.3 214.6 1045.8 211.5" fill="none" stroke="#4a8b3f" stroke-width="2.5"/>
<path d="M1037.1 227.7 Q1050.6 222.7 1059.6 227.7" fill="none" stroke="#4a8b3f" stroke-width="2.5"/>
<path d="M1037.1 227.7 Q1042.1 230.5 1045.5 243.3" fill="none" stroke="#4a8b3f" stroke-width="2.5"/>
<path d="M1037.1 227.7 Q1026.6 226.5 1019.6 235.4" fill="none" stroke="#4a8b3f" stroke-width="2.5"/>
<path d="M889.8 285.0 Q919.4 257.5 910.5 230.0" fill="none" stroke="#776349" stroke-width="3"/>
<path d="M910.5 230.0 Q899.9 221.2 892.9 222.4" fill="none" stroke="#48883d" stroke-width="2.5"/>
<path d="M910.5 230.0 Q915.6 217.2 919.0 214.4" fill="none" stroke="#48883d" stroke-width="2.5"/>
<path d="M910.5 230.0 Q924.4 225.0 933.6 230.0" fill="none" stroke="#48883d" stroke-width="2.5"/>
<path d="M910.5 230.0 Q914.3 230.9 916.8 241.7" fill="none" stroke="#48883d" stroke-width="2.5"/>
<path d="M910.5 230.0 Q897.7 229.7 889.2 239.3" fill="none" stroke="#48883d" stroke-width="2.5"/>
<rect x="0" y="285" width="1200" height="15" fill="#d4c5a9" opacity="0.4"/>
<circle cx="1001.2" cy="30.1" r="37.7" fill="#f5e6a0" opacity="0.1"/>
</svg>