<svg xmlns="http://www.w3.org/2000/svg" viewBox="0 0 1200 300" width="1200" height="300">
<defs><linearGradient id="skyGrad" x1="0" y1="0" x2="0" y2="1"><stop offset="0%" stop-color="#e6ecf2"/><stop offset="100%" stop-color="#f0eeec"/></linearGradient></defs><rect width="1200" height="300" fill="url(#skyGrad)"/>
<path d="M0 300 L0 199.9 C399.8 181.8, 988.2 190.5, 1200 199.9 L1200 300 Z" fill="#aac2c9" opacity="0.25"/>
<rect x="173.9" y="190.4" width="78.5" height="109.6" fill="#8aabb4"/>
<rect x="395.7" y="227.4" width="49.4" height="72.6" fill="#8aabb4"/>
<rect x="404.4" y="214.6" width="32.1" height="12.8" fill="#83a2ab"/>
<rect x="723.3" y="247.4" width="45.6" height="52.6" fill="#8aabb4"/>
<rect x="731.3" y="238.1" width="29.7" height="9.3" fill="#83a2ab"/>
<rect x="1020.3" y="246.2" width="81.7" height="53.8" fill="#8aabb4"/>
<rect x="1034.6" y="236.7" width="53.1" height="9.5" fill="#83a2ab"/>
<rect x="143.5" y="215.1" width="58.3" height="84.9" fill="#558592"/>
<rect x="155.6" y="227.1" width="6" height="8" fill="#91b0b8" opacity="0.5"/>
<rect x="169.6" y="227.1" width="6" height="8" fill="#91b0b8" opacity="0.5"/>
<rect x="169.6" y="243.1" width="6" height="8" fill="#91b0b8" opacity="0.5"/>
<rect x="183.6" y="243.1" width="6" height="8" fill="#91b0b8" opacity="0.5"/>
<rect x="155.6" y="259.1" width="6" height="8" fill="#91b0b8" opacity="0.5"/>
<rect x="183.6" y="259.1" width="6" height="8" fill="#91b0b8" opacity="0.5"/>
<rect x="374.4" y="169.9" width="37.6" height="130.1" fill="#558592"/>
<rect x="381.0" y="147.0" width="24.5" height="23.0" fill="#517e8b"/>
<rect x="390.3" y="159.0" width="6" height="8" fill="#91b0b8" opacity="0.5"/>
<rect x="390.3" y="175.0" width="6" height="8" fill="#91b0b8" opacity="0.5"/>
<rect x="390.3" y="207.0" width="6" height="8" fill="#91b0b8" opacity="0.5"/>
<rect x="390.3" y="223.0" width="6" height="8" fill="#91b0b8" opacity="0.5"/>
<rect x="390.3" y="239.0" width="6" height="8" fill="#91b0b8" opacity="0.5"/>
<rect x="579.0" y="163.1" width="38.7" height="136.9" fill="#558592"/>
<rect x="595.3" y="191.1" width="6" height="8" fill="#91b0b8" opacity="0.5"/>
<rect x="595.3" y="255.1" width="6" height="8" fill="#91b0b8" opacity="0.5"/>
<rect x="773.2" y="188.9" width="58.6" height="111.1" fill="#558592"/>
<polygon points="773.2,188.9 802.5,174.3 831.8,188.9" fill="#4e7a86"/>
<rect x="785.5" y="200.9" width="6" height="8" fill="#91b0b8" opacity="0.5"/>
<rect x="813.5" y="216.9" width="6" height="8" fill="#91b0b8" opacity="0.5"/>
<rect x="785.5" y="232.9" width="6" height="8" fill="#91b0b8" opacity="0.5"/>
<rect x="799.5" y="232.9" width="6" height="8" fill="#91b0b8" opacity="0.5"/>
<rect x="813.5" y="232.9" width="6" height="8" fill="#91b0b8" opacity="0.5"/>
<rect x="785.5" y="248.9" width="6" height="8" fill="#91b0b8" opacity="0.5"/>
<rect x="799.5" y="248.9" width="6" height="8" fill="#91b0b8" opacity="0.5"/>
<rect x="785.5" y="264.9" width="6" height="8" fill="#91b0b8" opacity="0.5"/>
<rect x="799.5" y="264.9" width="6" height="8" fill="#91b0b8" opacity="0.5"/>
<rect x="813.5" y="264.9" width="6" height="8" fill="#91b0b8" opacity="0.5"/>
<rect x="1035.0" y="217.7" width="46.2" height="82.3" fill="#558592"/>
<rect x="1062.1" y="245.7" width="6" height="8" fill="#91b0b8" opacity="0.5"/>
<rect x="1048.1" y="261.7" width="6" height="8" fill="#91b0b8" opacity="0.5"/>
<rect x="1062.1" y="261.7" width="6" height="8" fill="#91b0b8" opacity="0.5"/>
<rect x="134.3" y="230.1" width="62.6" height="69.9" fill="#2b6777"/>
<rect x="145.2" y="217.8" width="40.7" height="12.3" fill="#296271"/>
<rect x="162.6" y="229.8" width="6" height="8" fill="#759ca7" opacity="0.5"/>
<rect x="176.6" y="229.8" width="6" height="8" fill="#759ca7" opacity="0.5"/>
<rect x="148.6" y="245.8" width="6" height="8" fill="#759ca7" opacity="0.5"/>
<rect x="176.6" y="245.8" width="6" height="8" fill="#759ca7" opacity="0.5"/>
<rect x="148.6" y="261.8" width="6" height="8" fill="#759ca7" opacity="0.5"/>
<rect x="162.6" y="261.8" width="6" height="8" fill="#759ca7" opacity="0.5"/>
<rect x="176.6" y="261.8" width="6" height="8" fill="#759ca7" opacity="0.5"/>
<rect x="455.7" y="242.7" width="70.9" height="57.3" fill="#2b6777"/>
<polygon points="455.7,242.7 491.1,225.0 526.5,242.7" fill="#285f6d"/>
<rect x="707.9" y="156.6" width="42.7" height="143.4" fill="#2b6777"/>
<polygon points="707.9,156.6 729.3,146.0 750.6,156.6" fill="#285f6d"/>
<rect x="726.3" y="168.6" width="6" height="8" fill="#759ca7" opacity="0.5"/>
<rect x="726.3" y="184.6" width="6" height="8" fill="#759ca7" opacity="0.5"/>
<rect x="726.3" y="200.6" width="6" height="8" fill="#759ca7" opacity="0.5"/>
<rect x="726.3" y="216.6" width="6" height="8" fill="#759ca7" opacity="0.5"/>
<rect x="726.3" y="232.6" width="6" height="8" fill="#759ca7" opacity="0.5"/>
<rect x="726.3" y="248.6" width="6" height="8" fill="#759ca7" opacity="0.5"/>
<rect x="1024.7" y="242.0" width="50.0" height="58.0" fill="#2b6777"/>
<line x1="326.3" y1="285.0" x2="326.3" y2="271.2" stroke="#6b5a42" stroke-width="3"/>
<circle cx="326.3" cy="253.2" r="17.9" fill="#558546"/>
<line x1="617.2" y1="285.0" x2="617.2" y2="270.9" stroke="#6b5a42" stroke-width="3"/>
<circle cx="617.2" cy="255.6" r="15.3" fill="#568647"/>
<line x1="887.7" y1="285.0" x2="887.7" y2="273.1" stroke="#6b5a42" stroke-width="3"/>
<circle cx="887.7" cy="259.1" r="14.0" fill="#588948"/>
<line x1="219.4" y1="285.0" x2="219.4" y2="271.0" stroke="#6b5a42" stroke-width="3"/>
<circle cx="219.4" cy="258.9" r="12.1" fill="#538245"/>
<line x1="500.6" y1="285.0" x2="500.6" y2="269.7" stroke="#6b5a42" stroke-width="3"/>
<circle cx="500.6" cy="252.5" r="17.2" fill="#548345"/>
<line x1="200.3" y1="285.0" x2="200.3" y2="269.4" stroke="#6b5a42" stroke-width="3"/>
<circle cx="200.3" cy="252.8" r="16.7" fill="#598a49"/>
<line x1="399.1" y1="285.0" x2="399.1" y2="270.0" stroke="#6b5a42" stroke-width="3"/>
<circle cx="399.1" cy="255.7" r="14.3" fill="#568647"/>
<rect x="0" y="285" width="1200" height="15" fill="#9aaa85" opacity="0.4"/>
</svg>