<svg xmlns="http://www.w3.org/2000/svg" viewBox="0 0 1200 300" width="1200" height="300">
<rect width="1200" height="300" fill="#e0eff2"/>
<path d="M0 300 L0 210.0 C309.7 163.4, 988.2 192.6, 1200 210.0 L1200 300 Z" fill="#aac2c9" opacity="0.3"/>
<rect x="160.2" y="175.0" width="70.7" height="125.0" fill="#8aabb4"/>
<rect x="392.1" y="237.0" width="77.4" height="63.0" fill="#8aabb4"/>
<rect x="679.5" y="204.5" width="59.7" height="95.5" fill="#8aabb4"/>
<rect x="1034.8" y="180.5" width="42.5" height="119.5" fill="#8aabb4"/>
<rect x="154.9" y="141.4" width="38.1" height="158.6" fill="#558592"/>
<rect x="171.0" y="153.4" width="6" height="8" fill="#91b0b8" opacity="0.5"/>
<rect x="171.0" y="169.4" width="6" height="8" fill="#91b0b8" opacity="0.5"/>
<rect x="171.0" y="185.4" width="6" height="8" fill="#91b0b8" opacity="0.5"/>
<rect x="171.0" y="217.4" width="6" height="8" fill="#91b0b8" opacity="0.5"/>
<rect x="171.0" y="233.4" width="6" height="8" fill="#91b0b8" opacity="0.5"/>
<rect x="171.0" y="249.4" width="6" height="8" fill="#91b0b8" opacity="0.5"/>
<rect x="171.0" y="265.4" width="6" height="8" fill="#91b0b8" opacity="0.5"/>
<rect x="400.5" y="150.9" width="38.5" height="149.1" fill="#558592"/>
<rect x="416.7" y="162.9" width="6" height="8" fill="#91b0b8" opacity="0.5"/>
<rect x="416.7" y="178.9" width="6" height="8" fill="#91b0b8" opacity="0.5"/>
<rect x="416.7" y="194.9" width="6" height="8" fill="#91b0b8" opacity="0.5"/>
<rect x="416.7" y="226.9" width="6" height="8" fill="#91b0b8" opacity="0.5"/>
<rect x="416.7" y="242.9" width="6" height="8" fill="#91b0b8" opacity="0.5"/>
<rect x="416.7" y="258.9" width="6" height="8" fill="#91b0b8" opacity="0.5"/>
<rect x="669.9" y="180.3" width="73.5" height="119.7" fill="#558592"/>
<rect x="682.7" y="192.3" width="6" height="8" fill="#91b0b8" opacity="0.5"/>
<rect x="710.7" y="192.3" width="6" height="8" fill="#91b0b8" opacity="0.5"/>
<rect x="724.7" y="192.3" width="6" height="8" fill="#91b0b8" opacity="0.5"/>
<rect x="682.7" y="208.3" width="6" height="8" fill="#91b0b8" opacity="0.5"/>
<rect x="696.7" y="208.3" width="6" height="8" fill="#91b0b8" opacity="0.5"/>
<rect x="710.7" y="208.3" width="6" height="8" fill="#91b0b8" opacity="0.5"/>
<rect x="724.7" y="208.3" width="6" height="8" fill="#91b0b8" opacity="0.5"/>
<rect x="682.7" y="224.3" width="6" height="8" fill="#91b0b8" opacity="0.5"/>
<rect x="696.7" y="224.3" width="6" height="8" fill="#91b0b8" opacity="0.5"/>
<rect x="710.7" y="224.3" width="6" height="8" fill="#91b0b8" opacity="0.5"/>
<rect x="724.7" y="224.3" width="6" height="8" fill="#91b0b8" opacity="0.5"/>
<rect x="682.7" y="240.3" width="6" height="8" fill="#91b0b8" opacity="0.5"/>
<rect x="696.7" y="240.3" width="6" height="8" fill="#91b0b8" opacity="0.5"/>
<rect x="682.7" y="256.3" width="6" height="8" fill="#91b0b8" opacity="0.5"/>
<rect x="710.7" y="256.3" width="6" height="8" fill="#91b0b8" opacity="0.5"/>
<rect x="724.7" y="256.3" width="6" height="8" fill="#91b0b8" opacity="0.5"/>
<rect x="696.7" y="272.3" width="6" height="8" fill="#91b0b8" opacity="0.5"/>
<rect x="724.7" y="272.3" width="6" height="8" fill="#91b0b8" opacity="0.5"/>
<rect x="997.1" y="210.8" width="65.2" height="89.2" fill="#558592"/>
<rect x="1012.7" y="222.8" width="6" height="8" fill="#91b0b8" opacity="0.5"/>
<rect x="1026.7" y="222.8" width="6" height="8" fill="#91b0b8" opacity="0.5"/>
<rect x="1040.7" y="222.8" width="6" height="8" fill="#91b0b8" opacity="0.5"/>
<rect x="1012.7" y="238.8" width="6" height="8" fill="#91b0b8" opacity="0.5"/>
<rect x="1026.7" y="238.8" width="6" height="8" fill="#91b0b8" opacity="0.5"/>
<rect x="1012.7" y="254.8" width="6" height="8" fill="#91b0b8" opacity="0.5"/>
<rect x="1026.7" y="254.8" width="6" height="8" fill="#91b0b8" opacity="0.5"/>
<rect x="1040.7" y="254.8" width="6" height="8" fill="#91b0b8" opacity="0.5"/>
<rect x="1012.7" y="270.8" width="6" height="8" fill="#91b0b8" opacity="0.5"/>
<rect x="1026.7" y="270.8" width="6" height="8" fill="#91b0b8" opacity="0.5"/>
<rect x="127.5" y="173.6" width="47.0" height="126.4" fill="#2b6777"/>
<rect x="155.0" y="185.6" width="6" height="8" fill="#759ca7" opacity="0.5"/>
<rect x="141.0" y="201.6" width="6" height="8" fill="#759ca7" opacity="0.5"/>
<rect x="155.0" y="201.6" width="6" height="8" fill="#759ca7" opacity="0.5"/>
<rect x="141.0" y="217.6" width="6" height="8" fill="#759ca7" opacity="0.5"/>
<rect x="141.0" y="233.6" width="6" height="8" fill="#759ca7" opacity="0.5"/>
<rect x="155.0" y="233.6" width="6" height="8" fill="#759ca7" opacity="0.5"/>
<rect x="141.0" y="249.6" width="6" height="8" fill="#759ca7" opacity="0.5"/>
<rect x="141.0" y="265.6" width="6" height="8" fill="#759ca7" opacity="0.5"/>
<rect x="155.0" y="265.6" width="6" height="8" fill="#759ca7" opacity="0.5"/>
<rect x="460.6" y="190.0" width="32.2" height="110.0" fill="#2b6777"/>
<rect x="473.7" y="202.0" width="6" height="8" fill="#759ca7" opacity="0.5"/>
<rect x="473.7" y="218.0" width="6" height="8" fill="#759ca7" opacity="0.5"/>
<rect x="473.7" y="266.0" width="6" height="8" fill="#759ca7" opacity="0.5"/>
<rect x="757.2" y="120.6" width="40.3" height="179.4" fill="#2b6777"/>
<rect x="774.4" y="132.6" width="6" height="8" fill="#759ca7" opacity="0.5"/>
<rect x="774.4" y="148.6" width="6" height="8" fill="#759ca7" opacity="0.5"/>
<rect x="774.4" y="164.6" width="6" height="8" fill="#759ca7" opacity="0.5"/>
<rect x="774.4" y="180.6" width="6" height="8" fill="#759ca7" opacity="0.5"/>
<rect x="774.4" y="196.6" width="6" height="8" fill="#759ca7" opacity="0.5"/>
<rect x="774.4" y="212.6" width="6" height="8" fill="#759ca7" opacity="0.5"/>
<rect x="774.4" y="228.6" width="6" height="8" fill="#759ca7" opacity="0.5"/>
<rect x="774.4" y="260.6" width="6" height="8" fill="#759ca7" opacity="0.5"/>
<rect x="992.6" y="200.8" width="32.6" height="99.2" fill="#2b6777"/>
<rect x="1005.9" y="228.8" width="6" height="8" fill="#759ca7" opacity="0.5"/>
<rect x="1005.9" y="244.8" width="6" height="8" fill="#759ca7" opacity="0.5"/>
<rect x="1005.9" y="260.8" width="6" height="8" fill="#759ca7" opacity="0.5"/>
<rect x="0" y="298" width="1200" height="2" fill="#275d6b" opacity="0.15"/>
</svg>