<svg xmlns="http://www.w3.org/2000/svg" viewBox="0 0 1200 300" width="1200" height="300">
<rect width="1200" height="300" fill="#ede8e0"/>
<path d="M0 300 L0 210.0 C285.9 161.9, 912.9 199.3, 1200 210.0 L1200 300 Z" fill="#c4c6be" opacity="0.3"/>
<rect x="115.1" y="236.1" width="42.4" height="63.9" fill="#aeb0a5"/>
<rect x="419.3" y="187.8" width="53.1" height="112.2" fill="#aeb0a5"/>
<rect x="723.8" y="240.4" width="86.3" height="59.6" fill="#aeb0a5"/>
<rect x="960.7" y="224.2" width="51.0" height="75.8" fill="#aeb0a5"/>
<rect x="137.9" y="155.3" width="78.6" height="144.7" fill="#898d7d"/>
<rect x="167.3" y="167.3" width="6" height="8" fill="#b2b5ab" opacity="0.5"/>
<rect x="181.3" y="167.3" width="6" height="8" fill="#b2b5ab" opacity="0.5"/>
<rect x="153.3" y="183.3" width="6" height="8" fill="#b2b5ab" opacity="0.5"/>
<rect x="181.3" y="183.3" width="6" height="8" fill="#b2b5ab" opacity="0.5"/>
<rect x="195.3" y="183.3" width="6" height="8" fill="#b2b5ab" opacity="0.5"/>
<rect x="167.3" y="199.3" width="6" height="8" fill="#b2b5ab" opacity="0.5"/>
<rect x="181.3" y="199.3" width="6" height="8" fill="#b2b5ab" opacity="0.5"/>
<rect x="195.3" y="199.3" width="6" height="8" fill="#b2b5ab" opacity="0.5"/>
<rect x="153.3" y="215.3" width="6" height="8" fill="#b2b5ab" opacity="0.5"/>
<rect x="167.3" y="215.3" width="6" height="8" fill="#b2b5ab" opacity="0.5"/>
<rect x="181.3" y="215.3" width="6" height="8" fill="#b2b5ab" opacity="0.5"/>
<rect x="195.3" y="215.3" width="6" height="8" fill="#b2b5ab" opacity="0.5"/>
<rect x="153.3" y="231.3" width="6" height="8" fill="#b2b5ab" opacity="0.5"/>
<rect x="167.3" y="231.3" width="6" height="8" fill="#b2b5ab" opacity="0.5"/>
<rect x="181.3" y="231.3" width="6" height="8" fill="#b2b5ab" opacity="0.5"/>
<rect x="195.3" y="231.3" width="6" height="8" fill="#b2b5ab" opacity="0.5"/>
<rect x="153.3" y="247.3" width="6" height="8" fill="#b2b5ab" opacity="0.5"/>
<rect x="181.3" y="247.3" width="6" height="8" fill="#b2b5ab" opacity="0.5"/>
<rect x="195.3" y="247.3" width="6" height="8" fill="#b2b5ab" opacity="0.5"/>
<rect x="153.3" y="263.3" width="6" height="8" fill="#b2b5ab" opacity="0.5"/>
<rect x="181.3" y="263.3" width="6" height="8" fill="#b2b5ab" opacity="0.5"/>
<rect x="313.4" y="158.1" width="53.1" height="141.9" fill="#898d7d"/>
<rect x="329.9" y="170.1" width="6" height="8" fill="#b2b5ab" opacity="0.5"/>
<rect x="343.9" y="170.1" width="6" height="8" fill="#b2b5ab" opacity="0.5"/>
<rect x="329.9" y="186.1" width="6" height="8" fill="#b2b5ab" opacity="0.5"/>
<rect x="343.9" y="186.1" width="6" height="8" fill="#b2b5ab" opacity="0.5"/>
<rect x="329.9" y="202.1" width="6" height="8" fill="#b2b5ab" opacity="0.5"/>
<rect x="329.9" y="218.1" width="6" height="8" fill="#b2b5ab" opacity="0.5"/>
<rect x="343.9" y="218.1" width="6" height="8" fill="#b2b5ab" opacity="0.5"/>
<rect x="329.9" y="234.1" width="6" height="8" fill="#b2b5ab" opacity="0.5"/>
<rect x="343.9" y="234.1" width="6" height="8" fill="#b2b5ab" opacity="0.5"/>
<rect x="343.9" y="250.1" width="6" height="8" fill="#b2b5ab" opacity="0.5"/>
<rect x="329.9" y="266.1" width="6" height="8" fill="#b2b5ab" opacity="0.5"/>
<rect x="343.9" y="266.1" width="6" height="8" fill="#b2b5ab" opacity="0.5"/>
<rect x="555.5" y="138.9" width="43.0" height="161.1" fill="#898d7d"/>
<rect x="574.0" y="150.9" width="6" height="8" fill="#b2b5ab" opacity="0.5"/>
<rect x="574.0" y="166.9" width="6" height="8" fill="#b2b5ab" opacity="0.5"/>
<rect x="574.0" y="214.9" width="6" height="8" fill="#b2b5ab" opacity="0.5"/>
<rect x="574.0" y="230.9" width="6" height="8" fill="#b2b5ab" opacity="0.5"/>
<rect x="574.0" y="246.9" width="6" height="8" fill="#b2b5ab" opacity="0.5"/>
<rect x="574.0" y="262.9" width="6" height="8" fill="#b2b5ab" opacity="0.5"/>
<rect x="829.8" y="145.4" width="50.3" height="154.6" fill="#898d7d"/>
<rect x="845.0" y="157.4" width="6" height="8" fill="#b2b5ab" opacity="0.5"/>
<rect x="859.0" y="157.4" width="6" height="8" fill="#b2b5ab" opacity="0.5"/>
<rect x="859.0" y="173.4" width="6" height="8" fill="#b2b5ab" opacity="0.5"/>
<rect x="845.0" y="189.4" width="6" height="8" fill="#b2b5ab" opacity="0.5"/>
<rect x="859.0" y="189.4" width="6" height="8" fill="#b2b5ab" opacity="0.5"/>
<rect x="845.0" y="237.4" width="6" height="8" fill="#b2b5ab" opacity="0.5"/>
<rect x="859.0" y="237.4" width="6" height="8" fill="#b2b5ab" opacity="0.5"/>
<rect x="845.0" y="253.4" width="6" height="8" fill="#b2b5ab" opacity="0.5"/>
<rect x="859.0" y="253.4" width="6" height="8" fill="#b2b5ab" opacity="0.5"/>
<rect x="859.0" y="269.4" width="6" height="8" fill="#b2b5ab" opacity="0.5"/>
<rect x="1011.5" y="189.3" width="68.7" height="110.7" fill="#898d7d"/>
<rect x="1028.8" y="201.3" width="6" height="8" fill="#b2b5ab" opacity="0.5"/>
<rect x="1042.8" y="201.3" width="6" height="8" fill="#b2b5ab" opacity="0.5"/>
<rect x="1056.8" y="201.3" width="6" height="8" fill="#b2b5ab" opacity="0.5"/>
<rect x="1028.8" y="217.3" width="6" height="8" fill="#b2b5ab" opacity="0.5"/>
<rect x="1042.8" y="217.3" width="6" height="8" fill="#b2b5ab" opacity="0.5"/>
<rect x="1056.8" y="217.3" width="6" height="8" fill="#b2b5ab" opacity="0.5"/>
<rect x="1056.8" y="233.3" width="6" height="8" fill="#b2b5ab" opacity="0.5"/>
<rect x="1028.8" y="249.3" width="6" height="8" fill="#b2b5ab" opacity="0.5"/>
<rect x="1056.8" y="249.3" width="6" height="8" fill="#b2b5ab" opacity="0.5"/>
<rect x="1028.8" y="265.3" width="6" height="8" fill="#b2b5ab" opacity="0.5"/>
<rect x="1042.8" y="265.3" width="6" height="8" fill="#b2b5ab" opacity="0.5"/>
<rect x="143.4" y="247.1" width="68.0" height="52.9" fill="#6b705c"/>
<rect x="323.3" y="244.5" width="44.6" height="55.5" fill="#6b705c"/>
<rect x="593.4" y="160.8" width="38.9" height="139.2" fill="#6b705c"/>
<rect x="609.8" y="188.8" width="6" height="8" fill="#9fa295" opacity="0.5"/>
<rect x="609.8" y="204.8" width="6" height="8" fill="#9fa295" opacity="0.5"/>
<rect x="609.8" y="220.8" width="6" height="8" fill="#9fa295" opacity="0.5"/>
<rect x="609.8" y="236.8" width="6" height="8" fill="#9fa295" opacity="0.5"/>
<rect x="799.1" y="238.1" width="36.3" height="61.9" fill="#6b705c"/>
<rect x="814.2" y="250.1" width="6" height="8" fill="#9fa295" opacity="0.5"/>
<rect x="814.2" y="266.1" width="6" height="8" fill="#9fa295" opacity="0.5"/>
<rect x="1007.5" y="250.0" width="56.8" height="50.0" fill="#6b705c"/>
<rect x="0" y="298" width="1200" height="2" fill="#606553" opacity="0.15"/>
</svg>