<svg xmlns="http://www.w3.org/2000/svg" viewBox="0 0 1200 300" width="1200" height="300">
<defs><linearGradient id="skyGrad" x1="0" y1="0" x2="0" y2="1"><stop offset="0%" stop-color="#e6ecf2"/><stop offset="100%" stop-color="#f0eeec"/></linearGradient></defs><rect width="1200" height="300" fill="url(#skyGrad)"/>
<path d="M0 300 L0 203.5 C304.4 183.0, 861.8 191.4, 1200 203.5 L1200 300 Z" fill="#b5cad8" opacity="0.25"/>
<rect x="141.9" y="237.2" width="87.3" height="62.8" fill="#99b6c9"/>
<rect x="157.2" y="226.1" width="56.7" height="11.1" fill="#91adbf"/>
<rect x="547.5" y="226.7" width="72.1" height="73.3" fill="#99b6c9"/>
<rect x="893.2" y="180.6" width="69.1" height="119.4" fill="#99b6c9"/>
<rect x="163.5" y="202.5" width="79.5" height="97.5" fill="#6a95b1"/>
<rect x="186.2" y="214.5" width="6" height="8" fill="#9ebacc" opacity="0.5"/>
<rect x="214.2" y="214.5" width="6" height="8" fill="#9ebacc" opacity="0.5"/>
<rect x="186.2" y="230.5" width="6" height="8" fill="#9ebacc" opacity="0.5"/>
<rect x="186.2" y="246.5" width="6" height="8" fill="#9ebacc" opacity="0.5"/>
<rect x="200.2" y="246.5" width="6" height="8" fill="#9ebacc" opacity="0.5"/>
<rect x="214.2" y="246.5" width="6" height="8" fill="#9ebacc" opacity="0.5"/>
<rect x="186.2" y="262.5" width="6" height="8" fill="#9ebacc" opacity="0.5"/>
<rect x="214.2" y="262.5" width="6" height="8" fill="#9ebacc" opacity="0.5"/>
<rect x="465.3" y="208.0" width="44.9" height="92.0" fill="#6a95b1"/>
<polygon points="465.3,208.0 487.7,196.7 510.2,208.0" fill="#6289a3"/>
<rect x="491.7" y="220.0" width="6" height="8" fill="#9ebacc" opacity="0.5"/>
<rect x="477.7" y="236.0" width="6" height="8" fill="#9ebacc" opacity="0.5"/>
<rect x="491.7" y="236.0" width="6" height="8" fill="#9ebacc" opacity="0.5"/>
<rect x="477.7" y="252.0" width="6" height="8" fill="#9ebacc" opacity="0.5"/>
<rect x="491.7" y="252.0" width="6" height="8" fill="#9ebacc" opacity="0.5"/>
<rect x="685.3" y="184.9" width="46.5" height="115.1" fill="#6a95b1"/>
<polygon points="685.3,184.9 708.5,173.3 731.7,184.9" fill="#6289a3"/>
<rect x="698.5" y="196.9" width="6" height="8" fill="#9ebacc" opacity="0.5"/>
<rect x="712.5" y="212.9" width="6" height="8" fill="#9ebacc" opacity="0.5"/>
<rect x="712.5" y="228.9" width="6" height="8" fill="#9ebacc" opacity="0.5"/>
<rect x="698.5" y="244.9" width="6" height="8" fill="#9ebacc" opacity="0.5"/>
<rect x="712.5" y="244.9" width="6" height="8" fill="#9ebacc" opacity="0.5"/>
<rect x="712.5" y="260.9" width="6" height="8" fill="#9ebacc" opacity="0.5"/>
<rect x="964.7" y="212.0" width="42.3" height="88.0" fill="#6a95b1"/>
<polygon points="964.7,212.0 985.9,201.4 1007.1,212.0" fill="#6289a3"/>
<rect x="982.9" y="224.0" width="6" height="8" fill="#9ebacc" opacity="0.5"/>
<rect x="982.9" y="240.0" width="6" height="8" fill="#9ebacc" opacity="0.5"/>
<rect x="982.9" y="256.0" width="6" height="8" fill="#9ebacc" opacity="0.5"/>
<rect x="982.9" y="272.0" width="6" height="8" fill="#9ebacc" opacity="0.5"/>
<rect x="128.4" y="150.6" width="44.3" height="149.4" fill="#457b9d"/>
<rect x="140.6" y="162.6" width="6" height="8" fill="#86a9bf" opacity="0.5"/>
<rect x="154.6" y="162.6" width="6" height="8" fill="#86a9bf" opacity="0.5"/>
<rect x="154.6" y="178.6" width="6" height="8" fill="#86a9bf" opacity="0.5"/>
<rect x="140.6" y="194.6" width="6" height="8" fill="#86a9bf" opacity="0.5"/>
<rect x="154.6" y="194.6" width="6" height="8" fill="#86a9bf" opacity="0.5"/>
<rect x="154.6" y="226.6" width="6" height="8" fill="#86a9bf" opacity="0.5"/>
<rect x="459.8" y="232.2" width="56.5" height="67.8" fill="#457b9d"/>
<rect x="469.7" y="220.2" width="36.7" height="12.0" fill="#427595"/>
<rect x="478.0" y="232.2" width="6" height="8" fill="#86a9bf" opacity="0.5"/>
<rect x="492.0" y="248.2" width="6" height="8" fill="#86a9bf" opacity="0.5"/>
<rect x="492.0" y="264.2" width="6" height="8" fill="#86a9bf" opacity="0.5"/>
<rect x="693.0" y="249.5" width="46.2" height="50.5" fill="#457b9d"/>
<polygon points="693.0,249.5 716.1,238.0 739.2,249.5" fill="#3f7190"/>
<rect x="974.7" y="245.3" width="44.9" height="54.7" fill="#457b9d"/>
<line x1="316.3" y1="285.0" x2="316.3" y2="270.3" stroke="#6b5a42" stroke-width="3"/>
<circle cx="316.3" cy="256.2" r="14.1" fill="#538144"/>
<line x1="604.6" y1="285.0" x2="604.6" y2="273.3" stroke="#6b5a42" stroke-width="3"/>
<circle cx="604.6" cy="256.2" r="17.1" fill="#588948"/>
<line x1="857.0" y1="285.0" x2="857.0" y2="270.9" stroke="#6b5a42" stroke-width="3"/>
<circle cx="857.0" cy="257.0" r="13.9" fill="#5a8b4a"/>
<line x1="296.7" y1="285.0" x2="296.7" y2="272.2" stroke="#6b5a42" stroke-width="3"/>
<circle cx="296.7" cy="255.3" r="16.9" fill="#538144"/>
<line x1="739.4" y1="285.0" x2="739.4" y2="269.6" stroke="#6b5a42" stroke-width="3"/>
<circle cx="739.4" cy="256.0" r="13.6" fill="#548345"/>
<rect x="0" y="285" width="1200" height="15" fill="#9aaa85" opacity="0.4"/>
</svg>