<svg xmlns="http://www.w3.org/2000/svg" viewBox="0 0 1200 300" width="1200" height="300">
<defs>
<linearGradient id="skyGrad" x1="0" y1="0" x2="0" y2="1">
<stop offset="0%" stop-color="#818cf8"/>
<stop offset="20%" stop-color="#c4b5fd"/>
<stop offset="38%" stop-color="#fda4af"/>
<stop offset="55%" stop-color="#fdba74"/>
<stop offset="75%" stop-color="#fef08a"/>
<stop offset="100%" stop-color="#fef9c3"/>
</linearGradient>
<linearGradient id="bldg_coral" x1="0" y1="0" x2="0" y2="1"><stop offset="0%" stop-color="#fecaca"/><stop offset="100%" stop-color="#fca5a5"/></linearGradient>
<linearGradient id="bldg_teal" x1="0" y1="0" x2="0" y2="1"><stop offset="0%" stop-color="#99f6e4"/><stop offset="100%" stop-color="#5eead4"/></linearGradient>
<linearGradient id="bldg_amber" x1="0" y1="0" x2="0" y2="1"><stop offset="0%" stop-color="#fde68a"/><stop offset="100%" stop-color="#fcd34d"/></linearGradient>
<linearGradient id="bldg_lavender" x1="0" y1="0" x2="0" y2="1"><stop offset="0%" stop-color="#ddd6fe"/><stop offset="100%" stop-color="#c4b5fd"/></linearGradient>
<linearGradient id="bldg_blue" x1="0" y1="0" x2="0" y2="1"><stop offset="0%" stop-color="#bfdbfe"/><stop offset="100%" stop-color="#93c5fd"/></linearGradient>
<linearGradient id="bldg_mint" x1="0" y1="0" x2="0" y2="1"><stop offset="0%" stop-color="#a7f3d0"/><stop offset="100%" stop-color="#6ee7b7"/></linearGradient>
<linearGradient id="bldg_rose" x1="0" y1="0" x2="0" y2="1"><stop offset="0%" stop-color="#fecdd3"/><stop offset="100%" stop-color="#fda4af"/></linearGradient>
<linearGradient id="bldg_sky" x1="0" y1="0" x2="0" y2="1"><stop offset="0%" stop-color="#bae6fd"/><stop offset="100%" stop-color="#7dd3fc"/></linearGradient>
<linearGradient id="roof_navyRoof" x1="0" y1="0" x2="0" y2="1"><stop offset="0%" stop-color="#4338ca"/><stop offset="100%" stop-color="#3730a3"/></linearGradient>
<linearGradient id="roof_coralRoof" x1="0" y1="0" x2="0" y2="1"><stop offset="0%" stop-color="#f87171"/><stop offset="100%" stop-color="#ef4444"/></linearGradient>
<linearGradient id="roof_tealRoof" x1="0" y1="0" x2="0" y2="1"><stop offset="0%" stop-color="#2dd4bf"/><stop offset="100%" stop-color="#14b8a6"/></linearGradient>
<radialGradient id="windowGlow" cx="50%" cy="50%" r="50%"><stop offset="0%" stop-color="#fef08a"/><stop offset="60%" stop-color="#fbbf24"/><stop offset="100%" stop-color="#f59e0b"/></radialGradient>
<linearGradient id="hillFar" x1="0" y1="0" x2="0" y2="1"><stop offset="0%" stop-color="#c4b5fd"/><stop offset="100%" stop-color="#a5b4fc"/></linearGradient>
<linearGradient id="hillMid" x1="0" y1="0" x2="0" y2="1"><stop offset="0%" stop-color="#86efac"/><stop offset="100%" stop-color="#4ade80"/></linearGradient>
<linearGradient id="hillNear" x1="0" y1="0" x2="0" y2="1"><stop offset="0%" stop-color="#34d399"/><stop offset="100%" stop-color="#10b981"/></linearGradient>
<linearGradient id="hillDesertFar" x1="0" y1="0" x2="0" y2="1"><stop offset="0%" stop-color="#fde68a"/><stop offset="100%" stop-color="#fcd34d"/></linearGradient>
<linearGradient id="hillDesertMid" x1="0" y1="0" x2="0" y2="1"><stop offset="0%" stop-color="#fcd34d"/><stop offset="100%" stop-color="#fbbf24"/></linearGradient>
<linearGradient id="hillDesertNear" x1="0" y1="0" x2="0" y2="1"><stop offset="0%" stop-color="#fbbf24"/><stop offset="100%" stop-color="#f59e0b"/></linearGradient>
<linearGradient id="groundGrad" x1="0" y1="0" x2="0" y2="1"><stop offset="0%" stop-color="#fef3c7"/><stop offset="100%" stop-color="#fde68a"/></linearGradient>
<linearGradient id="waterGrad" x1="0" y1="0" x2="0" y2="1"><stop offset="0%" stop-color="#bfdbfe"/><stop offset="100%" stop-color="#93c5fd"/></linearGradient>
<filter id="softGlow" x="-50%" y="-50%" width="200%" height="200%"><feGaussianBlur in="SourceGraphic" stdDeviation="12"/></filter>
</defs>
<rect width="1200" height="300" fill="url(#skyGrad)"/>
<circle cx="1002.2" cy="44.6" r="45" fill="#fef08a" opacity="0.12" filter="url(#softGlow)"/>
<circle cx="1002.2" cy="44.6" r="30" fill="#fde68a" opacity="0.18" filter="url(#softGlow)"/>
<circle cx="1002.2" cy="44.6" r="16" fill="#fef9c3" opacity="0.25" filter="url(#softGlow)"/>
<ellipse cx="447.0" cy="39.4" rx="50.7" ry="17.7" fill="white" opacity="0.5"/>
<ellipse cx="415.3" cy="44.5" rx="35.5" ry="13.9" fill="white" opacity="0.4"/>
<ellipse cx="474.9" cy="43.3" rx="40.5" ry="15.2" fill="white" opacity="0.4"/>
<ellipse cx="309.9" cy="26.1" rx="36.5" ry="12.8" fill="white" opacity="0.6"/>
<ellipse cx="287.1" cy="29.8" rx="25.6" ry="10.0" fill="white" opacity="0.5"/>
<ellipse cx="330.0" cy="28.8" rx="29.2" ry="11.0" fill="white" opacity="0.5"/>
<ellipse cx="327.7" cy="39.0" rx="49.4" ry="17.3" fill="white" opacity="0.4"/>
<ellipse cx="296.8" cy="43.9" rx="34.6" ry="13.6" fill="white" opacity="0.4"/>
<ellipse cx="354.8" cy="42.7" rx="39.5" ry="14.8" fill="white" opacity="0.4"/>
<path d="M0 300 L0.0 181.0 C103.3 181.0, 103.3 190.8, 206.7 190.8 C364.5 190.8, 364.5 191.7, 522.4 191.7 C606.5 191.7, 606.5 192.6, 690.6 192.6 C820.7 192.6, 820.7 191.7, 950.8 191.7 C1075.4 191.7, 1075.4 200.8, 1200.0 200.8 L1200 300 Z" fill="url(#hillFar)" opacity="0.5"/>
<path d="M0 300 L0.0 212.6 C174.4 212.6, 174.4 206.7, 348.7 206.7 C583.2 206.7, 583.2 204.6, 817.7 204.6 C1008.8 204.6, 1008.8 217.7, 1200.0 217.7 L1200 300 Z" fill="url(#hillMid)" opacity="0.7"/>
<path d="M0 300 L0.0 235.8 C113.4 235.8, 113.4 235.2, 226.7 235.2 C386.8 235.2, 386.8 237.6, 546.9 237.6 C714.5 237.6, 714.5 231.7, 882.2 231.7 C1041.1 231.7, 1041.1 230.3, 1200.0 230.3 L1200 300 Z" fill="url(#hillNear)" opacity="1"/>
<rect x="157.5" y="224.2" width="67.2" height="75.8" rx="3" fill="url(#bldg_rose)" opacity="0.7"/>
<rect x="157.5" y="221.2" width="67.2" height="3" rx="1" fill="url(#roof_tealRoof)" opacity="0.7"/>
<rect x="174.1" y="234.2" width="6" height="8" rx="1" fill="url(#windowGlow)" opacity="0.9693551237086556"/>
<rect x="188.1" y="234.2" width="6" height="8" rx="1" fill="url(#windowGlow)" opacity="0.9016965848401638"/>
<rect x="174.1" y="249.2" width="6" height="8" rx="1" fill="url(#windowGlow)" opacity="0.8976072008244727"/>
<rect x="188.1" y="249.2" width="6" height="8" rx="1" fill="url(#windowGlow)" opacity="0.7623582900326504"/>
<rect x="202.1" y="249.2" width="6" height="8" rx="1" fill="url(#windowGlow)" opacity="0.7081519692708514"/>
<rect x="538.4" y="235.1" width="66.1" height="64.9" rx="3" fill="url(#bldg_sky)" opacity="0.7"/>
<rect x="538.4" y="232.1" width="66.1" height="3" rx="1" fill="url(#roof_navyRoof)" opacity="0.7"/>
<rect x="582.5" y="245.1" width="6" height="8" rx="1" fill="url(#windowGlow)" opacity="0.9256171277843495"/>
<rect x="554.5" y="260.1" width="6" height="8" rx="1" fill="url(#windowGlow)" opacity="0.7401078568026925"/>
<rect x="568.5" y="260.1" width="6" height="8" rx="1" fill="url(#windowGlow)" opacity="0.7026714656514448"/>
<rect x="582.5" y="260.1" width="6" height="8" rx="1" fill="url(#windowGlow)" opacity="0.7524065210728005"/>
<rect x="960.8" y="223.5" width="84.2" height="76.5" rx="3" fill="url(#bldg_coral)" opacity="0.7"/>
<rect x="960.8" y="220.5" width="84.2" height="3" rx="1" fill="url(#roof_coralRoof)" opacity="0.7"/>
<rect x="978.9" y="233.5" width="6" height="8" rx="1" fill="url(#windowGlow)" opacity="0.7672785007242479"/>
<rect x="992.9" y="233.5" width="6" height="8" rx="1" fill="url(#windowGlow)" opacity="0.9349228554102232"/>
<rect x="1006.9" y="233.5" width="6" height="8" rx="1" fill="url(#windowGlow)" opacity="0.9044417127521902"/>
<rect x="1020.9" y="233.5" width="6" height="8" rx="1" fill="url(#windowGlow)" opacity="0.9566183863937008"/>
<rect x="978.9" y="248.5" width="6" height="8" rx="1" fill="url(#windowGlow)" opacity="0.9055577134273749"/>
<rect x="992.9" y="248.5" width="6" height="8" rx="1" fill="url(#windowGlow)" opacity="0.7102274212568194"/>
<rect x="1006.9" y="248.5" width="6" height="8" rx="1" fill="url(#windowGlow)" opacity="0.9472147043548592"/>
<rect x="1020.9" y="248.5" width="6" height="8" rx="1" fill="url(#windowGlow)" opacity="0.9694782833426623"/>
<rect x="131.7" y="198.5" width="69.2" height="101.5" rx="3" fill="url(#bldg_teal)" opacity="0.85"/>
<polygon points="131.7,198.5 166.3,179.0 200.9,198.5" fill="url(#roof_tealRoof)" opacity="0.85"/>
<rect x="149.3" y="208.5" width="6" height="8" rx="1" fill="url(#windowGlow)" opacity="0.7074607148335598"/>
<rect x="163.3" y="208.5" width="6" height="8" rx="1" fill="url(#windowGlow)" opacity="0.9425857312709958"/>
<rect x="149.3" y="223.5" width="6" height="8" rx="1" fill="url(#windowGlow)" opacity="0.9226433313557147"/>
<rect x="163.3" y="223.5" width="6" height="8" rx="1" fill="url(#windowGlow)" opacity="0.7432140560090607"/>
<rect x="149.3" y="238.5" width="6" height="8" rx="1" fill="url(#windowGlow)" opacity="0.8572856742224123"/>
<rect x="163.3" y="238.5" width="6" height="8" rx="1" fill="url(#windowGlow)" opacity="0.8461586298635968"/>
<rect x="177.3" y="238.5" width="6" height="8" rx="1" fill="url(#windowGlow)" opacity="0.8597914704400075"/>
<rect x="163.3" y="253.5" width="6" height="8" rx="1" fill="url(#windowGlow)" opacity="0.838569457893525"/>
<rect x="177.3" y="253.5" width="6" height="8" rx="1" fill="url(#windowGlow)" opacity="0.7755930568443579"/>
<rect x="406.2" y="178.8" width="44.3" height="121.2" rx="3" fill="url(#bldg_amber)" opacity="0.85"/>
<polygon points="406.2,178.8 428.4,167.4 450.6,178.8" fill="url(#roof_navyRoof)" opacity="0.85"/>
<rect x="418.4" y="188.8" width="6" height="8" rx="1" fill="url(#windowGlow)" opacity="0.7319956261347959"/>
<rect x="432.4" y="188.8" width="6" height="8" rx="1" fill="url(#windowGlow)" opacity="0.8959586243592009"/>
<rect x="418.4" y="203.8" width="6" height="8" rx="1" fill="url(#windowGlow)" opacity="0.8154115224328876"/>
<rect x="432.4" y="203.8" width="6" height="8" rx="1" fill="url(#windowGlow)" opacity="0.9939845712827446"/>
<rect x="418.4" y="218.8" width="6" height="8" rx="1" fill="url(#windowGlow)" opacity="0.7229794442295001"/>
<rect x="418.4" y="233.8" width="6" height="8" rx="1" fill="url(#windowGlow)" opacity="0.9088274914812424"/>
<rect x="432.4" y="233.8" width="6" height="8" rx="1" fill="url(#windowGlow)" opacity="0.8814949056978779"/>
<rect x="418.4" y="248.8" width="6" height="8" rx="1" fill="url(#windowGlow)" opacity="0.9059407310588009"/>
<rect x="432.4" y="248.8" width="6" height="8" rx="1" fill="url(#windowGlow)" opacity="0.8758423630967002"/>
<rect x="707.2" y="189.4" width="79.2" height="110.6" rx="3" fill="url(#bldg_lavender)" opacity="0.85"/>
<rect x="707.2" y="186.4" width="79.2" height="3" rx="1" fill="url(#roof_coralRoof)" opacity="0.85"/>
<rect x="722.8" y="199.4" width="6" height="8" rx="1" fill="url(#windowGlow)" opacity="0.9854992467376865"/>
<rect x="736.8" y="199.4" width="6" height="8" rx="1" fill="url(#windowGlow)" opacity="0.9446712000503535"/>
<rect x="750.8" y="199.4" width="6" height="8" rx="1" fill="url(#windowGlow)" opacity="0.8483671963905762"/>
<rect x="764.8" y="199.4" width="6" height="8" rx="1" fill="url(#windowGlow)" opacity="0.7697790871699243"/>
<rect x="722.8" y="214.4" width="6" height="8" rx="1" fill="url(#windowGlow)" opacity="0.8584383978314876"/>
<rect x="736.8" y="214.4" width="6" height="8" rx="1" fill="url(#windowGlow)" opacity="0.9422835121128166"/>
<rect x="750.8" y="214.4" width="6" height="8" rx="1" fill="url(#windowGlow)" opacity="0.9633419690017317"/>
<rect x="764.8" y="214.4" width="6" height="8" rx="1" fill="url(#windowGlow)" opacity="0.7974917388975116"/>
<rect x="722.8" y="229.4" width="6" height="8" rx="1" fill="url(#windowGlow)" opacity="0.7116950342486124"/>
<rect x="736.8" y="229.4" width="6" height="8" rx="1" fill="url(#windowGlow)" opacity="0.9072153961319548"/>
<rect x="750.8" y="229.4" width="6" height="8" rx="1" fill="url(#windowGlow)" opacity="0.9721334868446614"/>
<rect x="764.8" y="229.4" width="6" height="8" rx="1" fill="url(#windowGlow)" opacity="0.9084692064712145"/>
<rect x="722.8" y="244.4" width="6" height="8" rx="1" fill="url(#windowGlow)" opacity="0.9958974368385493"/>
<rect x="736.8" y="244.4" width="6" height="8" rx="1" fill="url(#windowGlow)" opacity="0.8929119052332415"/>
<rect x="764.8" y="244.4" width="6" height="8" rx="1" fill="url(#windowGlow)" opacity="0.8104387211661965"/>
<rect x="722.8" y="259.4" width="6" height="8" rx="1" fill="url(#windowGlow)" opacity="0.9723982008976852"/>
<rect x="750.8" y="259.4" width="6" height="8" rx="1" fill="url(#windowGlow)" opacity="0.9380597917540276"/>
<rect x="764.8" y="259.4" width="6" height="8" rx="1" fill="url(#windowGlow)" opacity="0.8699323222832438"/>
<path d="M715.1 228.1 L746.8 228.1 L743.8 234.1 L718.1 234.1 Z" fill="url(#roof_navyRoof)" opacity="0.68"/>
<rect x="955.4" y="222.6" width="79.5" height="77.4" rx="3" fill="url(#bldg_blue)" opacity="0.85"/>
<rect x="971.3" y="213.3" width="47.7" height="9.3" rx="2" fill="url(#roof_tealRoof)" opacity="0.85"/>
<rect x="971.2" y="232.6" width="6" height="8" rx="1" fill="url(#windowGlow)" opacity="0.8407533397156528"/>
<rect x="985.2" y="232.6" width="6" height="8" rx="1" fill="url(#windowGlow)" opacity="0.7723980713507151"/>
<rect x="1013.2" y="232.6" width="6" height="8" rx="1" fill="url(#windowGlow)" opacity="0.8402603707929422"/>
<rect x="971.2" y="247.6" width="6" height="8" rx="1" fill="url(#windowGlow)" opacity="0.9146930034340792"/>
<rect x="985.2" y="247.6" width="6" height="8" rx="1" fill="url(#windowGlow)" opacity="0.741571452208595"/>
<rect x="999.2" y="247.6" width="6" height="8" rx="1" fill="url(#windowGlow)" opacity="0.9329227605056589"/>
<rect x="1013.2" y="247.6" width="6" height="8" rx="1" fill="url(#windowGlow)" opacity="0.7228614020267787"/>
<rect x="189.2" y="203.0" width="42.2" height="97.0" rx="3" fill="url(#bldg_mint)" opacity="1"/>
<rect x="189.2" y="200.0" width="42.2" height="3" rx="1" fill="url(#roof_navyRoof)" opacity="1"/>
<rect x="207.3" y="213.0" width="6" height="8" rx="1" fill="url(#windowGlow)" opacity="0.7906266020101619"/>
<rect x="207.3" y="228.0" width="6" height="8" rx="1" fill="url(#windowGlow)" opacity="0.9609509741239952"/>
<rect x="207.3" y="243.0" width="6" height="8" rx="1" fill="url(#windowGlow)" opacity="0.8287491455342384"/>
<rect x="207.3" y="258.0" width="6" height="8" rx="1" fill="url(#windowGlow)" opacity="0.8885593938587975"/>
<rect x="205.3" y="284.0" width="10" height="16" rx="2" fill="url(#roof_navyRoof)" opacity="0.8"/>
<rect x="207.3" y="287.0" width="6" height="10" rx="1" fill="url(#windowGlow)" opacity="0.45"/>
<rect x="466.5" y="217.0" width="43.1" height="83.0" rx="3" fill="url(#bldg_rose)" opacity="1"/>
<rect x="475.2" y="207.0" width="25.9" height="10.0" rx="2" fill="url(#roof_coralRoof)" opacity="1"/>
<rect x="485.1" y="227.0" width="6" height="8" rx="1" fill="url(#windowGlow)" opacity="0.7951111718058173"/>
<rect x="485.1" y="242.0" width="6" height="8" rx="1" fill="url(#windowGlow)" opacity="0.7924828050623102"/>
<rect x="485.1" y="257.0" width="6" height="8" rx="1" fill="url(#windowGlow)" opacity="0.8360597645100484"/>
<rect x="483.1" y="284.0" width="10" height="16" rx="2" fill="url(#roof_navyRoof)" opacity="0.8"/>
<rect x="485.1" y="287.0" width="6" height="10" rx="1" fill="url(#windowGlow)" opacity="0.45"/>
<path d="M470.9 246.0 L488.1 246.0 L485.1 252.0 L473.9 252.0 Z" fill="url(#roof_navyRoof)" opacity="0.8"/>
<rect x="707.9" y="169.8" width="57.8" height="130.2" rx="3" fill="url(#bldg_sky)" opacity="1"/>
<rect x="707.9" y="166.8" width="57.8" height="3" rx="1" fill="url(#roof_tealRoof)" opacity="1"/>
<rect x="726.8" y="179.8" width="6" height="8" rx="1" fill="url(#windowGlow)" opacity="0.8979259768956926"/>
<rect x="740.8" y="179.8" width="6" height="8" rx="1" fill="url(#windowGlow)" opacity="0.9623267220157787"/>
<rect x="726.8" y="194.8" width="6" height="8" rx="1" fill="url(#windowGlow)" opacity="0.8288560822740458"/>
<rect x="740.8" y="194.8" width="6" height="8" rx="1" fill="url(#windowGlow)" opacity="0.7027204460011425"/>
<rect x="726.8" y="209.8" width="6" height="8" rx="1" fill="url(#windowGlow)" opacity="0.8127801379248407"/>
<rect x="740.8" y="209.8" width="6" height="8" rx="1" fill="url(#windowGlow)" opacity="0.80792049738016"/>
<rect x="726.8" y="224.8" width="6" height="8" rx="1" fill="url(#windowGlow)" opacity="0.9754047688913554"/>
<rect x="740.8" y="224.8" width="6" height="8" rx="1" fill="url(#windowGlow)" opacity="0.7897781389717842"/>
<rect x="726.8" y="239.8" width="6" height="8" rx="1" fill="url(#windowGlow)" opacity="0.96554069545378"/>
<rect x="740.8" y="239.8" width="6" height="8" rx="1" fill="url(#windowGlow)" opacity="0.7123930164204877"/>
<rect x="740.8" y="254.8" width="6" height="8" rx="1" fill="url(#windowGlow)" opacity="0.8654545799668201"/>
<rect x="731.8" y="284.0" width="10" height="16" rx="2" fill="url(#roof_navyRoof)" opacity="0.8"/>
<rect x="733.8" y="287.0" width="6" height="10" rx="1" fill="url(#windowGlow)" opacity="0.45"/>
<rect x="1014.7" y="236.5" width="42.6" height="63.5" rx="3" fill="url(#bldg_coral)" opacity="1"/>
<rect x="1023.2" y="228.9" width="25.5" height="7.6" rx="2" fill="url(#roof_navyRoof)" opacity="1"/>
<rect x="1031.0" y="284.0" width="10" height="16" rx="2" fill="url(#roof_navyRoof)" opacity="0.8"/>
<rect x="1033.0" y="287.0" width="6" height="10" rx="1" fill="url(#windowGlow)" opacity="0.45"/>
<rect x="346.0" y="265.3" width="6" height="19.7" rx="2" fill="#15803d"/>
<circle cx="349.0" cy="254.5" r="14.9" fill="#22c55e" opacity="0.9"/>
<circle cx="341.9" cy="257.5" r="11.2" fill="#16a34a" opacity="0.8"/>
<circle cx="356.6" cy="258.5" r="10.4" fill="#15803d" opacity="0.7"/>
<rect x="605.8" y="264.9" width="6" height="20.1" rx="2" fill="#15803d"/>
<circle cx="608.8" cy="251.0" r="17.9" fill="#22c55e" opacity="0.9"/>
<circle cx="601.4" cy="254.0" r="13.4" fill="#16a34a" opacity="0.8"/>
<circle cx="614.1" cy="255.0" r="12.5" fill="#15803d" opacity="0.7"/>
<rect x="887.2" y="268.4" width="6" height="16.6" rx="2" fill="#15803d"/>
<circle cx="890.2" cy="256.9" r="15.5" fill="#22c55e" opacity="0.9"/>
<circle cx="884.0" cy="259.9" r="11.7" fill="#16a34a" opacity="0.8"/>
<circle cx="897.5" cy="260.9" r="10.9" fill="#15803d" opacity="0.7"/>
<rect x="157.4" y="263.5" width="6" height="21.5" rx="2" fill="#15803d"/>
<circle cx="160.4" cy="253.6" r="13.9" fill="#22c55e" opacity="0.9"/>
<circle cx="153.4" cy="256.6" r="10.4" fill="#16a34a" opacity="0.8"/>
<circle cx="167.8" cy="257.6" r="9.7" fill="#15803d" opacity="0.7"/>
<rect x="0" y="282" width="1200" height="18" fill="url(#groundGrad)"/>
<line x1="402.9" y1="282.0" x2="402.9" y2="242.9" stroke="#92400e" stroke-width="2"/>
<circle cx="402.9" cy="242.9" r="4" fill="#fef08a" opacity="0.6"/>
<circle cx="402.9" cy="242.9" r="8" fill="#fef08a" opacity="0.15" filter="url(#softGlow)"/>
<line x1="844.0" y1="282.0" x2="844.0" y2="244.1" stroke="#92400e" stroke-width="2"/>
<circle cx="844.0" cy="244.1" r="4" fill="#fef08a" opacity="0.6"/>
<circle cx="844.0" cy="244.1" r="8" fill="#fef08a" opacity="0.15" filter="url(#softGlow)"/>
<ellipse cx="1132.5" cy="282.0" rx="4.1" ry="2.8" fill="#22c55e" opacity="0.6"/>
<ellipse cx="746.8" cy="282.0" rx="4.7" ry="3.3" fill="#22c55e" opacity="0.6"/>
</svg>