<svg xmlns="http://www.w3.org/2000/svg" viewBox="0 0 1200 400" width="1200" height="400">
<defs>
<linearGradient id="bg" x1="0" y1="0" x2="0" y2="1"><stop offset="0%" stop-color="#f5f0e8"/><stop offset="100%" stop-color="#475569"/></linearGradient>
<linearGradient id="warm" x1="0" y1="0" x2="1" y2="1"><stop offset="0%" stop-color="#858d98" stop-opacity="0.18"/><stop offset="100%" stop-color="#858d98" stop-opacity="0.06"/></linearGradient>
</defs>
<rect width="1200" height="400" fill="url(#bg)"/>
<path d="M0 400 L0 227.27473815853946 C60.0 222.9, 90.0 225.1, 150.0 228.6 C210.0 220.1, 240.0 215.1, 300.0 221.5 C360.0 220.5, 390.0 225.7, 450.0 226.1 C510.0 235.6, 540.0 230.6, 600.0 224.1 C660.0 218.3, 690.0 247.9, 750.0 238.0 C810.0 236.7, 840.0 222.2, 900.0 229.1 C960.0 221.4, 990.0 246.7, 1050.0 254.5 C1110.0 257.6, 1140.0 231.5, 1200.0 238.6 L1200 400 Z" fill="#848b95" opacity="0.45"/>
<path d="M0 400 L0 265.17206970688073 C52.5 267.1, 97.5 271.1, 150.0 272.3 C202.5 268.2, 247.5 262.5, 300.0 258.0 C352.5 261.3, 397.5 288.3, 450.0 281.2 C502.5 286.2, 547.5 264.3, 600.0 260.1 C652.5 260.0, 697.5 271.3, 750.0 276.5 C802.5 276.6, 847.5 253.7, 900.0 259.2 C952.5 261.3, 997.5 263.1, 1050.0 263.7 C1102.5 270.6, 1147.5 258.4, 1200.0 261.0 L1200 400 Z" fill="#475569" opacity="0.3"/>
<rect x="310.2" y="361.0" width="19.5" height="39.0" rx="6.4" fill="#973515" opacity="0.50"/>
<rect x="645.9" y="343.5" width="28.9" height="56.5" rx="3.2" fill="#933719" opacity="0.78"/>
<rect x="713.5" y="316.6" width="32.0" height="83.4" rx="6.1" fill="#943618" opacity="0.57"/>
<rect x="718.5" y="326.6" width="4" height="5" rx="0.5" fill="#f5f0e8" opacity="0.6"/>
<rect x="718.5" y="348.6" width="4" height="5" rx="0.5" fill="#f5f0e8" opacity="0.6"/>
<rect x="729.2" y="348.6" width="4" height="5" rx="0.5" fill="#f5f0e8" opacity="0.6"/>
<rect x="729.2" y="370.6" width="4" height="5" rx="0.5" fill="#f5f0e8" opacity="0.6"/>
<rect x="216.3" y="290.9" width="15.4" height="109.1" rx="4.3" fill="#8c3a21" opacity="0.74"/>
<rect x="954.8" y="336.7" width="33.9" height="63.3" rx="3.7" fill="#71443d" opacity="0.75"/>
<rect x="184.9" y="305.0" width="30.2" height="95.0" rx="6.4" fill="#803e2d" opacity="0.76"/>
<rect x="189.9" y="315.0" width="4" height="5" rx="0.5" fill="#f5f0e8" opacity="0.6"/>
<rect x="189.9" y="337.0" width="4" height="5" rx="0.5" fill="#f5f0e8" opacity="0.6"/>
<rect x="189.9" y="359.0" width="4" height="5" rx="0.5" fill="#f5f0e8" opacity="0.6"/>
<rect x="816.3" y="358.9" width="17.4" height="41.1" rx="7.8" fill="#694846" opacity="0.80"/>
<rect x="438.1" y="321.9" width="46.8" height="78.1" rx="4.0" fill="#883b24" opacity="0.61"/>
<rect x="298.5" y="301.6" width="49.0" height="98.4" rx="6.1" fill="#863c26" opacity="0.61"/>
<rect x="1066.3" y="309.4" width="37.3" height="90.6" rx="5.9" fill="#843d29" opacity="0.70"/>
<rect x="1058.3" y="321.4" width="38.6" height="78.6" rx="5.1" fill="#6f453f" opacity="0.62"/>
<rect x="890.6" y="276.1" width="32.5" height="123.9" rx="3.3" fill="#953617" opacity="0.55"/>
<rect x="903.9" y="284.3" width="43.1" height="115.7" rx="3.3" fill="#694846" opacity="0.53"/>
<circle cx="754.6" cy="21.8" r="3.5" fill="#f5f0e8" opacity="0.23"/>
<circle cx="789.2" cy="41.2" r="8.3" fill="#f5f0e8" opacity="0.44"/>
<circle cx="791.5" cy="45.7" r="9.2" fill="#9a3412" opacity="0.42"/>
<circle cx="431.8" cy="2.4" r="9.1" fill="#9a3412" opacity="0.24"/>
<rect width="1200" height="400" fill="url(#warm)"/>
<rect width="1200" height="400" fill="#f5f0e8" opacity="0.40"/>
</svg>