<svg xmlns="http://www.w3.org/2000/svg" viewBox="0 0 1200 300" width="1200" height="300">
<defs>
<linearGradient id="skyGrad" x1="0" y1="0" x2="0" y2="1">
<stop offset="0%" stop-color="#818cf8"/>
<stop offset="20%" stop-color="#c4b5fd"/>
<stop offset="38%" stop-color="#fda4af"/>
<stop offset="55%" stop-color="#fdba74"/>
<stop offset="75%" stop-color="#fef08a"/>
<stop offset="100%" stop-color="#fef9c3"/>
</linearGradient>
<linearGradient id="bldg_coral" x1="0" y1="0" x2="0" y2="1"><stop offset="0%" stop-color="#fecaca"/><stop offset="100%" stop-color="#fca5a5"/></linearGradient>
<linearGradient id="bldg_teal" x1="0" y1="0" x2="0" y2="1"><stop offset="0%" stop-color="#99f6e4"/><stop offset="100%" stop-color="#5eead4"/></linearGradient>
<linearGradient id="bldg_amber" x1="0" y1="0" x2="0" y2="1"><stop offset="0%" stop-color="#fde68a"/><stop offset="100%" stop-color="#fcd34d"/></linearGradient>
<linearGradient id="bldg_lavender" x1="0" y1="0" x2="0" y2="1"><stop offset="0%" stop-color="#ddd6fe"/><stop offset="100%" stop-color="#c4b5fd"/></linearGradient>
<linearGradient id="bldg_blue" x1="0" y1="0" x2="0" y2="1"><stop offset="0%" stop-color="#bfdbfe"/><stop offset="100%" stop-color="#93c5fd"/></linearGradient>
<linearGradient id="bldg_mint" x1="0" y1="0" x2="0" y2="1"><stop offset="0%" stop-color="#a7f3d0"/><stop offset="100%" stop-color="#6ee7b7"/></linearGradient>
<linearGradient id="bldg_rose" x1="0" y1="0" x2="0" y2="1"><stop offset="0%" stop-color="#fecdd3"/><stop offset="100%" stop-color="#fda4af"/></linearGradient>
<linearGradient id="bldg_sky" x1="0" y1="0" x2="0" y2="1"><stop offset="0%" stop-color="#bae6fd"/><stop offset="100%" stop-color="#7dd3fc"/></linearGradient>
<linearGradient id="roof_navyRoof" x1="0" y1="0" x2="0" y2="1"><stop offset="0%" stop-color="#4338ca"/><stop offset="100%" stop-color="#3730a3"/></linearGradient>
<linearGradient id="roof_coralRoof" x1="0" y1="0" x2="0" y2="1"><stop offset="0%" stop-color="#f87171"/><stop offset="100%" stop-color="#ef4444"/></linearGradient>
<linearGradient id="roof_tealRoof" x1="0" y1="0" x2="0" y2="1"><stop offset="0%" stop-color="#2dd4bf"/><stop offset="100%" stop-color="#14b8a6"/></linearGradient>
<radialGradient id="windowGlow" cx="50%" cy="50%" r="50%"><stop offset="0%" stop-color="#fef08a"/><stop offset="60%" stop-color="#fbbf24"/><stop offset="100%" stop-color="#f59e0b"/></radialGradient>
<linearGradient id="hillFar" x1="0" y1="0" x2="0" y2="1"><stop offset="0%" stop-color="#c4b5fd"/><stop offset="100%" stop-color="#a5b4fc"/></linearGradient>
<linearGradient id="hillMid" x1="0" y1="0" x2="0" y2="1"><stop offset="0%" stop-color="#86efac"/><stop offset="100%" stop-color="#4ade80"/></linearGradient>
<linearGradient id="hillNear" x1="0" y1="0" x2="0" y2="1"><stop offset="0%" stop-color="#34d399"/><stop offset="100%" stop-color="#10b981"/></linearGradient>
<linearGradient id="hillDesertFar" x1="0" y1="0" x2="0" y2="1"><stop offset="0%" stop-color="#fde68a"/><stop offset="100%" stop-color="#fcd34d"/></linearGradient>
<linearGradient id="hillDesertMid" x1="0" y1="0" x2="0" y2="1"><stop offset="0%" stop-color="#fcd34d"/><stop offset="100%" stop-color="#fbbf24"/></linearGradient>
<linearGradient id="hillDesertNear" x1="0" y1="0" x2="0" y2="1"><stop offset="0%" stop-color="#fbbf24"/><stop offset="100%" stop-color="#f59e0b"/></linearGradient>
<linearGradient id="groundGrad" x1="0" y1="0" x2="0" y2="1"><stop offset="0%" stop-color="#fef3c7"/><stop offset="100%" stop-color="#fde68a"/></linearGradient>
<linearGradient id="waterGrad" x1="0" y1="0" x2="0" y2="1"><stop offset="0%" stop-color="#bfdbfe"/><stop offset="100%" stop-color="#93c5fd"/></linearGradient>
<filter id="softGlow" x="-50%" y="-50%" width="200%" height="200%"><feGaussianBlur in="SourceGraphic" stdDeviation="12"/></filter>
</defs>
<rect width="1200" height="300" fill="url(#skyGrad)"/>
<circle cx="915.3" cy="40.8" r="45" fill="#fef08a" opacity="0.12" filter="url(#softGlow)"/>
<circle cx="915.3" cy="40.8" r="30" fill="#fde68a" opacity="0.18" filter="url(#softGlow)"/>
<circle cx="915.3" cy="40.8" r="16" fill="#fef9c3" opacity="0.25" filter="url(#softGlow)"/>
<ellipse cx="246.1" cy="20.7" rx="33.1" ry="11.6" fill="white" opacity="0.5"/>
<ellipse cx="225.4" cy="24.0" rx="23.2" ry="9.1" fill="white" opacity="0.5"/>
<ellipse cx="264.3" cy="23.2" rx="26.5" ry="9.9" fill="white" opacity="0.5"/>
<ellipse cx="985.0" cy="34.9" rx="35.8" ry="12.5" fill="white" opacity="0.5"/>
<ellipse cx="962.6" cy="38.4" rx="25.1" ry="9.8" fill="white" opacity="0.4"/>
<ellipse cx="1004.7" cy="37.5" rx="28.6" ry="10.7" fill="white" opacity="0.4"/>
<path d="M0 300 L0.0 195.9 C195.2 195.9, 195.2 184.1, 390.4 184.1 C642.7 184.1, 642.7 176.5, 895.0 176.5 C1047.5 176.5, 1047.5 200.6, 1200.0 200.6 L1200 300 Z" fill="url(#hillFar)" opacity="0.5"/>
<path d="M0 300 L0.0 201.7 C193.2 201.7, 193.2 214.1, 386.3 214.1 C554.7 214.1, 554.7 214.7, 723.0 214.7 C961.5 214.7, 961.5 211.6, 1200.0 211.6 L1200 300 Z" fill="url(#hillMid)" opacity="0.7"/>
<path d="M0 300 L0.0 235.2 C177.2 235.2, 177.2 231.6, 354.5 231.6 C530.3 231.6, 530.3 228.4, 706.1 228.4 C953.1 228.4, 953.1 238.6, 1200.0 238.6 L1200 300 Z" fill="url(#hillNear)" opacity="1"/>
<rect x="180.0" y="237.9" width="48.6" height="62.1" rx="3" fill="url(#bldg_blue)" opacity="0.7"/>
<polygon points="180.0,237.9 204.3,226.7 228.6,237.9" fill="url(#roof_coralRoof)" opacity="0.7"/>
<rect x="194.3" y="247.9" width="6" height="8" rx="1" fill="url(#windowGlow)" opacity="0.9914665249136585"/>
<rect x="556.4" y="233.7" width="73.4" height="66.3" rx="3" fill="url(#bldg_mint)" opacity="0.7"/>
<rect x="571.0" y="225.7" width="44.0" height="8.0" rx="2" fill="url(#roof_tealRoof)" opacity="0.7"/>
<rect x="569.0" y="243.7" width="6" height="8" rx="1" fill="url(#windowGlow)" opacity="0.7848036976460384"/>
<rect x="583.0" y="243.7" width="6" height="8" rx="1" fill="url(#windowGlow)" opacity="0.7266325154000113"/>
<rect x="597.0" y="243.7" width="6" height="8" rx="1" fill="url(#windowGlow)" opacity="0.7300991780730426"/>
<rect x="611.0" y="243.7" width="6" height="8" rx="1" fill="url(#windowGlow)" opacity="0.7843376099059067"/>
<rect x="569.0" y="258.7" width="6" height="8" rx="1" fill="url(#windowGlow)" opacity="0.8632898463230998"/>
<rect x="583.0" y="258.7" width="6" height="8" rx="1" fill="url(#windowGlow)" opacity="0.7991034795525965"/>
<rect x="597.0" y="258.7" width="6" height="8" rx="1" fill="url(#windowGlow)" opacity="0.7429406035425796"/>
<rect x="611.0" y="258.7" width="6" height="8" rx="1" fill="url(#windowGlow)" opacity="0.913955093507634"/>
<rect x="953.5" y="193.5" width="81.0" height="106.5" rx="3" fill="url(#bldg_rose)" opacity="0.7"/>
<rect x="969.8" y="180.7" width="48.6" height="12.8" rx="2" fill="url(#roof_navyRoof)" opacity="0.7"/>
<rect x="970.1" y="203.5" width="6" height="8" rx="1" fill="url(#windowGlow)" opacity="0.7202778929938924"/>
<rect x="984.1" y="203.5" width="6" height="8" rx="1" fill="url(#windowGlow)" opacity="0.8551138480916218"/>
<rect x="998.1" y="203.5" width="6" height="8" rx="1" fill="url(#windowGlow)" opacity="0.8814692475746708"/>
<rect x="1012.1" y="203.5" width="6" height="8" rx="1" fill="url(#windowGlow)" opacity="0.978456734529909"/>
<rect x="970.1" y="218.5" width="6" height="8" rx="1" fill="url(#windowGlow)" opacity="0.7427059939330005"/>
<rect x="998.1" y="218.5" width="6" height="8" rx="1" fill="url(#windowGlow)" opacity="0.9891303253309476"/>
<rect x="1012.1" y="218.5" width="6" height="8" rx="1" fill="url(#windowGlow)" opacity="0.960421041008281"/>
<rect x="970.1" y="233.5" width="6" height="8" rx="1" fill="url(#windowGlow)" opacity="0.8412867682246895"/>
<rect x="984.1" y="233.5" width="6" height="8" rx="1" fill="url(#windowGlow)" opacity="0.7592053376879567"/>
<rect x="998.1" y="233.5" width="6" height="8" rx="1" fill="url(#windowGlow)" opacity="0.7939225606592011"/>
<rect x="1012.1" y="233.5" width="6" height="8" rx="1" fill="url(#windowGlow)" opacity="0.8989514812356566"/>
<rect x="984.1" y="248.5" width="6" height="8" rx="1" fill="url(#windowGlow)" opacity="0.8177041812416651"/>
<rect x="998.1" y="248.5" width="6" height="8" rx="1" fill="url(#windowGlow)" opacity="0.7093697347721875"/>
<rect x="1012.1" y="248.5" width="6" height="8" rx="1" fill="url(#windowGlow)" opacity="0.8765697446542651"/>
<rect x="163.3" y="196.5" width="73.1" height="103.5" rx="3" fill="url(#bldg_sky)" opacity="0.85"/>
<rect x="163.3" y="193.5" width="73.1" height="3" rx="1" fill="url(#roof_coralRoof)" opacity="0.85"/>
<rect x="175.8" y="206.5" width="6" height="8" rx="1" fill="url(#windowGlow)" opacity="0.8343682626422346"/>
<rect x="189.8" y="206.5" width="6" height="8" rx="1" fill="url(#windowGlow)" opacity="0.7816626177083992"/>
<rect x="203.8" y="206.5" width="6" height="8" rx="1" fill="url(#windowGlow)" opacity="0.8425148025353042"/>
<rect x="217.8" y="206.5" width="6" height="8" rx="1" fill="url(#windowGlow)" opacity="0.8230986124943469"/>
<rect x="175.8" y="221.5" width="6" height="8" rx="1" fill="url(#windowGlow)" opacity="0.8001411935315194"/>
<rect x="189.8" y="221.5" width="6" height="8" rx="1" fill="url(#windowGlow)" opacity="0.9713956830889897"/>
<rect x="203.8" y="221.5" width="6" height="8" rx="1" fill="url(#windowGlow)" opacity="0.7171581621827362"/>
<rect x="189.8" y="236.5" width="6" height="8" rx="1" fill="url(#windowGlow)" opacity="0.9457211556591657"/>
<rect x="203.8" y="236.5" width="6" height="8" rx="1" fill="url(#windowGlow)" opacity="0.9449647674080751"/>
<rect x="175.8" y="251.5" width="6" height="8" rx="1" fill="url(#windowGlow)" opacity="0.7277183368931144"/>
<rect x="189.8" y="251.5" width="6" height="8" rx="1" fill="url(#windowGlow)" opacity="0.8886530306137413"/>
<rect x="437.2" y="226.7" width="46.0" height="73.3" rx="3" fill="url(#bldg_coral)" opacity="0.85"/>
<rect x="437.2" y="223.7" width="46.0" height="3" rx="1" fill="url(#roof_tealRoof)" opacity="0.85"/>
<rect x="450.3" y="236.7" width="6" height="8" rx="1" fill="url(#windowGlow)" opacity="0.7515585135908603"/>
<rect x="464.3" y="236.7" width="6" height="8" rx="1" fill="url(#windowGlow)" opacity="0.9876170270552938"/>
<rect x="450.3" y="251.7" width="6" height="8" rx="1" fill="url(#windowGlow)" opacity="0.8978720749718472"/>
<path d="M441.8 252.3 L460.3 252.3 L457.3 258.3 L444.8 258.3 Z" fill="url(#roof_coralRoof)" opacity="0.68"/>
<rect x="704.3" y="159.3" width="65.4" height="140.7" rx="3" fill="url(#bldg_teal)" opacity="0.85"/>
<polygon points="704.3,159.3 737.1,142.6 769.8,159.3" fill="url(#roof_navyRoof)" opacity="0.85"/>
<rect x="734.1" y="169.3" width="6" height="8" rx="1" fill="url(#windowGlow)" opacity="0.7890561839980335"/>
<rect x="748.1" y="169.3" width="6" height="8" rx="1" fill="url(#windowGlow)" opacity="0.9795243101564814"/>
<rect x="720.1" y="184.3" width="6" height="8" rx="1" fill="url(#windowGlow)" opacity="0.7644213263245399"/>
<rect x="734.1" y="184.3" width="6" height="8" rx="1" fill="url(#windowGlow)" opacity="0.7474133654718349"/>
<rect x="748.1" y="184.3" width="6" height="8" rx="1" fill="url(#windowGlow)" opacity="0.9584589320507175"/>
<rect x="720.1" y="199.3" width="6" height="8" rx="1" fill="url(#windowGlow)" opacity="0.7338668090449025"/>
<rect x="734.1" y="199.3" width="6" height="8" rx="1" fill="url(#windowGlow)" opacity="0.8699104846315041"/>
<rect x="748.1" y="199.3" width="6" height="8" rx="1" fill="url(#windowGlow)" opacity="0.7106192122262992"/>
<rect x="720.1" y="214.3" width="6" height="8" rx="1" fill="url(#windowGlow)" opacity="0.7395455135216682"/>
<rect x="734.1" y="214.3" width="6" height="8" rx="1" fill="url(#windowGlow)" opacity="0.796676112104522"/>
<rect x="748.1" y="214.3" width="6" height="8" rx="1" fill="url(#windowGlow)" opacity="0.7227079805092457"/>
<rect x="720.1" y="229.3" width="6" height="8" rx="1" fill="url(#windowGlow)" opacity="0.9311533667292228"/>
<rect x="734.1" y="229.3" width="6" height="8" rx="1" fill="url(#windowGlow)" opacity="0.7116673538515658"/>
<rect x="748.1" y="229.3" width="6" height="8" rx="1" fill="url(#windowGlow)" opacity="0.9631086981217882"/>
<rect x="734.1" y="244.3" width="6" height="8" rx="1" fill="url(#windowGlow)" opacity="0.9595124818196112"/>
<rect x="748.1" y="244.3" width="6" height="8" rx="1" fill="url(#windowGlow)" opacity="0.9063464513543743"/>
<rect x="720.1" y="259.3" width="6" height="8" rx="1" fill="url(#windowGlow)" opacity="0.711627825774079"/>
<rect x="734.1" y="259.3" width="6" height="8" rx="1" fill="url(#windowGlow)" opacity="0.7216301645718655"/>
<rect x="748.1" y="259.3" width="6" height="8" rx="1" fill="url(#windowGlow)" opacity="0.9945793796305449"/>
<path d="M710.9 208.5 L737.1 208.5 L734.1 214.5 L713.9 214.5 Z" fill="url(#roof_tealRoof)" opacity="0.68"/>
<rect x="972.1" y="228.9" width="53.2" height="71.1" rx="3" fill="url(#bldg_amber)" opacity="0.85"/>
<polygon points="972.1,228.9 998.7,217.4 1025.3,228.9" fill="url(#roof_coralRoof)" opacity="0.85"/>
<rect x="1002.7" y="253.9" width="6" height="8" rx="1" fill="url(#windowGlow)" opacity="0.803891050398299"/>
<rect x="170.6" y="237.7" width="42.9" height="62.3" rx="3" fill="url(#bldg_lavender)" opacity="1"/>
<polygon points="170.6,237.7 192.1,228.0 213.6,237.7" fill="url(#roof_tealRoof)" opacity="1"/>
<rect x="189.1" y="247.7" width="6" height="8" rx="1" fill="url(#windowGlow)" opacity="0.743488078165561"/>
<rect x="187.1" y="284.0" width="10" height="16" rx="2" fill="url(#roof_navyRoof)" opacity="0.8"/>
<rect x="189.1" y="287.0" width="6" height="10" rx="1" fill="url(#windowGlow)" opacity="0.45"/>
<rect x="438.3" y="212.5" width="35.5" height="87.5" rx="3" fill="url(#bldg_blue)" opacity="1"/>
<polygon points="438.3,212.5 456.1,204.7 473.8,212.5" fill="url(#roof_navyRoof)" opacity="1"/>
<rect x="453.1" y="222.5" width="6" height="8" rx="1" fill="url(#windowGlow)" opacity="0.8672912598900921"/>
<rect x="453.1" y="252.5" width="6" height="8" rx="1" fill="url(#windowGlow)" opacity="0.8206846155788212"/>
<rect x="451.1" y="284.0" width="10" height="16" rx="2" fill="url(#roof_navyRoof)" opacity="0.8"/>
<rect x="453.1" y="287.0" width="6" height="10" rx="1" fill="url(#windowGlow)" opacity="0.45"/>
<rect x="449.9" y="238.5" width="12.4" height="5" rx="1" fill="#15803d" opacity="0.7"/>
<circle cx="452.9" cy="237.5" r="2.5" fill="#a78bfa" opacity="0.85"/>
<circle cx="457.0" cy="237.5" r="2.5" fill="#fb923c" opacity="0.85"/>
<circle cx="461.1" cy="237.5" r="2.5" fill="#fbbf24" opacity="0.85"/>
<rect x="678.8" y="229.0" width="56.9" height="71.0" rx="3" fill="url(#bldg_mint)" opacity="1"/>
<rect x="678.8" y="226.0" width="56.9" height="3" rx="1" fill="url(#roof_coralRoof)" opacity="1"/>
<rect x="697.3" y="239.0" width="6" height="8" rx="1" fill="url(#windowGlow)" opacity="0.7541172715621615"/>
<rect x="711.3" y="239.0" width="6" height="8" rx="1" fill="url(#windowGlow)" opacity="0.7751990156132723"/>
<rect x="697.3" y="254.0" width="6" height="8" rx="1" fill="url(#windowGlow)" opacity="0.8822513723197631"/>
<rect x="702.3" y="284.0" width="10" height="16" rx="2" fill="url(#roof_navyRoof)" opacity="0.8"/>
<rect x="704.3" y="287.0" width="6" height="10" rx="1" fill="url(#windowGlow)" opacity="0.45"/>
<rect x="988.2" y="180.3" width="67.2" height="119.7" rx="3" fill="url(#bldg_rose)" opacity="1"/>
<rect x="988.2" y="177.3" width="67.2" height="3" rx="1" fill="url(#roof_tealRoof)" opacity="1"/>
<rect x="1004.8" y="190.3" width="6" height="8" rx="1" fill="url(#windowGlow)" opacity="0.7118626830688969"/>
<rect x="1018.8" y="190.3" width="6" height="8" rx="1" fill="url(#windowGlow)" opacity="0.908646849314052"/>
<rect x="1004.8" y="205.3" width="6" height="8" rx="1" fill="url(#windowGlow)" opacity="0.7299538519372948"/>
<rect x="1018.8" y="205.3" width="6" height="8" rx="1" fill="url(#windowGlow)" opacity="0.9245319314415249"/>
<rect x="1004.8" y="220.3" width="6" height="8" rx="1" fill="url(#windowGlow)" opacity="0.9623880194324943"/>
<rect x="1018.8" y="220.3" width="6" height="8" rx="1" fill="url(#windowGlow)" opacity="0.7453921034677848"/>
<rect x="1032.8" y="220.3" width="6" height="8" rx="1" fill="url(#windowGlow)" opacity="0.8161801046767179"/>
<rect x="1018.8" y="235.3" width="6" height="8" rx="1" fill="url(#windowGlow)" opacity="0.9925354219472666"/>
<rect x="1032.8" y="235.3" width="6" height="8" rx="1" fill="url(#windowGlow)" opacity="0.8441192062311429"/>
<rect x="1004.8" y="250.3" width="6" height="8" rx="1" fill="url(#windowGlow)" opacity="0.9972963591559307"/>
<rect x="1018.8" y="250.3" width="6" height="8" rx="1" fill="url(#windowGlow)" opacity="0.7471583365682318"/>
<rect x="1032.8" y="250.3" width="6" height="8" rx="1" fill="url(#windowGlow)" opacity="0.7237620623892927"/>
<rect x="1016.8" y="284.0" width="10" height="16" rx="2" fill="url(#roof_navyRoof)" opacity="0.8"/>
<rect x="1018.8" y="287.0" width="6" height="10" rx="1" fill="url(#windowGlow)" opacity="0.45"/>
<rect x="322.9" y="263.3" width="6" height="21.7" rx="2" fill="#15803d"/>
<circle cx="325.9" cy="251.3" r="16.0" fill="#22c55e" opacity="0.9"/>
<circle cx="318.5" cy="254.3" r="12.0" fill="#16a34a" opacity="0.8"/>
<circle cx="331.1" cy="255.3" r="11.2" fill="#15803d" opacity="0.7"/>
<rect x="573.3" y="264.7" width="6" height="20.3" rx="2" fill="#15803d"/>
<circle cx="576.3" cy="251.7" r="17.0" fill="#22c55e" opacity="0.9"/>
<circle cx="568.4" cy="254.7" r="12.8" fill="#16a34a" opacity="0.8"/>
<circle cx="582.1" cy="255.7" r="11.9" fill="#15803d" opacity="0.7"/>
<rect x="859.0" y="264.0" width="6" height="21.0" rx="2" fill="#15803d"/>
<circle cx="862.0" cy="252.0" r="15.9" fill="#22c55e" opacity="0.9"/>
<circle cx="855.6" cy="255.0" r="12.0" fill="#16a34a" opacity="0.8"/>
<circle cx="867.4" cy="256.0" r="11.2" fill="#15803d" opacity="0.7"/>
<rect x="132.6" y="268.9" width="6" height="16.1" rx="2" fill="#15803d"/>
<circle cx="135.6" cy="256.7" r="16.2" fill="#22c55e" opacity="0.9"/>
<circle cx="129.0" cy="259.7" r="12.2" fill="#16a34a" opacity="0.8"/>
<circle cx="142.6" cy="260.7" r="11.3" fill="#15803d" opacity="0.7"/>
<rect x="1096.8" y="264.8" width="6" height="20.2" rx="2" fill="#15803d"/>
<circle cx="1099.8" cy="253.2" r="15.6" fill="#22c55e" opacity="0.9"/>
<circle cx="1091.2" cy="256.2" r="11.7" fill="#16a34a" opacity="0.8"/>
<circle cx="1107.0" cy="257.2" r="10.9" fill="#15803d" opacity="0.7"/>
<rect x="1129.1" y="263.2" width="6" height="21.8" rx="2" fill="#15803d"/>
<circle cx="1132.1" cy="253.6" r="13.6" fill="#22c55e" opacity="0.9"/>
<circle cx="1123.3" cy="256.6" r="10.2" fill="#16a34a" opacity="0.8"/>
<circle cx="1139.1" cy="257.6" r="9.5" fill="#15803d" opacity="0.7"/>
<rect x="203.7" y="264.0" width="6" height="21.0" rx="2" fill="#15803d"/>
<circle cx="206.7" cy="250.5" r="17.6" fill="#22c55e" opacity="0.9"/>
<circle cx="200.5" cy="253.5" r="13.2" fill="#16a34a" opacity="0.8"/>
<circle cx="214.4" cy="254.5" r="12.3" fill="#15803d" opacity="0.7"/>
<rect x="1010.1" y="264.8" width="6" height="20.2" rx="2" fill="#15803d"/>
<circle cx="1013.1" cy="255.4" r="13.4" fill="#22c55e" opacity="0.9"/>
<circle cx="1005.9" cy="258.4" r="10.1" fill="#16a34a" opacity="0.8"/>
<circle cx="1020.2" cy="259.4" r="9.4" fill="#15803d" opacity="0.7"/>
<rect x="495.7" y="269.0" width="6" height="16.0" rx="2" fill="#15803d"/>
<circle cx="498.7" cy="259.5" r="13.4" fill="#22c55e" opacity="0.9"/>
<circle cx="490.5" cy="262.5" r="10.1" fill="#16a34a" opacity="0.8"/>
<circle cx="504.5" cy="263.5" r="9.4" fill="#15803d" opacity="0.7"/>
<rect x="0" y="282" width="1200" height="18" fill="url(#groundGrad)"/>
<line x1="880.6" y1="282.0" x2="880.6" y2="244.2" stroke="#92400e" stroke-width="2"/>
<circle cx="880.6" cy="244.2" r="4" fill="#fef08a" opacity="0.6"/>
<circle cx="880.6" cy="244.2" r="8" fill="#fef08a" opacity="0.15" filter="url(#softGlow)"/>
<line x1="265.9" y1="282.0" x2="265.9" y2="251.6" stroke="#92400e" stroke-width="2"/>
<circle cx="265.9" cy="251.6" r="4" fill="#fef08a" opacity="0.6"/>
<circle cx="265.9" cy="251.6" r="8" fill="#fef08a" opacity="0.15" filter="url(#softGlow)"/>
<ellipse cx="476.9" cy="282.0" rx="6.9" ry="4.9" fill="#22c55e" opacity="0.6"/>
<ellipse cx="760.6" cy="282.0" rx="4.4" ry="3.0" fill="#22c55e" opacity="0.6"/>
<ellipse cx="111.2" cy="282.0" rx="4.7" ry="3.3" fill="#22c55e" opacity="0.6"/>
</svg>