<svg xmlns="http://www.w3.org/2000/svg" viewBox="0 0 1200 300" width="1200" height="300">
<rect width="1200" height="300" fill="#f0e6d8"/>
<path d="M0 300 L0 210.0 C289.7 168.4, 954.5 186.9, 1200 210.0 L1200 300 Z" fill="#e4c4a8" opacity="0.3"/>
<rect x="144.3" y="211.1" width="43.0" height="88.9" fill="#daae87"/>
<rect x="399.6" y="225.8" width="50.1" height="74.2" fill="#daae87"/>
<rect x="743.4" y="234.1" width="66.2" height="65.9" fill="#daae87"/>
<rect x="989.5" y="234.8" width="42.9" height="65.2" fill="#daae87"/>
<rect x="183.9" y="214.1" width="38.0" height="85.9" fill="#c98951"/>
<rect x="199.9" y="226.1" width="6" height="8" fill="#dcb28e" opacity="0.5"/>
<rect x="199.9" y="242.1" width="6" height="8" fill="#dcb28e" opacity="0.5"/>
<rect x="199.9" y="258.1" width="6" height="8" fill="#dcb28e" opacity="0.5"/>
<rect x="400.6" y="178.7" width="36.7" height="121.3" fill="#c98951"/>
<rect x="416.0" y="206.7" width="6" height="8" fill="#dcb28e" opacity="0.5"/>
<rect x="416.0" y="222.7" width="6" height="8" fill="#dcb28e" opacity="0.5"/>
<rect x="416.0" y="238.7" width="6" height="8" fill="#dcb28e" opacity="0.5"/>
<rect x="416.0" y="254.7" width="6" height="8" fill="#dcb28e" opacity="0.5"/>
<rect x="416.0" y="270.7" width="6" height="8" fill="#dcb28e" opacity="0.5"/>
<rect x="753.3" y="200.9" width="48.9" height="99.1" fill="#c98951"/>
<rect x="781.7" y="212.9" width="6" height="8" fill="#dcb28e" opacity="0.5"/>
<rect x="767.7" y="228.9" width="6" height="8" fill="#dcb28e" opacity="0.5"/>
<rect x="781.7" y="228.9" width="6" height="8" fill="#dcb28e" opacity="0.5"/>
<rect x="767.7" y="244.9" width="6" height="8" fill="#dcb28e" opacity="0.5"/>
<rect x="781.7" y="244.9" width="6" height="8" fill="#dcb28e" opacity="0.5"/>
<rect x="767.7" y="260.9" width="6" height="8" fill="#dcb28e" opacity="0.5"/>
<rect x="781.7" y="260.9" width="6" height="8" fill="#dcb28e" opacity="0.5"/>
<rect x="989.0" y="195.0" width="38.8" height="105.0" fill="#c98951"/>
<rect x="1005.4" y="223.0" width="6" height="8" fill="#dcb28e" opacity="0.5"/>
<rect x="1005.4" y="239.0" width="6" height="8" fill="#dcb28e" opacity="0.5"/>
<rect x="1005.4" y="255.0" width="6" height="8" fill="#dcb28e" opacity="0.5"/>
<rect x="1005.4" y="271.0" width="6" height="8" fill="#dcb28e" opacity="0.5"/>
<rect x="141.5" y="208.4" width="49.0" height="91.6" fill="#bc6c25"/>
<rect x="170.0" y="220.4" width="6" height="8" fill="#d39f71" opacity="0.5"/>
<rect x="170.0" y="236.4" width="6" height="8" fill="#d39f71" opacity="0.5"/>
<rect x="170.0" y="252.4" width="6" height="8" fill="#d39f71" opacity="0.5"/>
<rect x="472.7" y="114.6" width="35.5" height="185.4" fill="#bc6c25"/>
<rect x="487.5" y="126.6" width="6" height="8" fill="#d39f71" opacity="0.5"/>
<rect x="487.5" y="142.6" width="6" height="8" fill="#d39f71" opacity="0.5"/>
<rect x="487.5" y="158.6" width="6" height="8" fill="#d39f71" opacity="0.5"/>
<rect x="487.5" y="174.6" width="6" height="8" fill="#d39f71" opacity="0.5"/>
<rect x="487.5" y="222.6" width="6" height="8" fill="#d39f71" opacity="0.5"/>
<rect x="487.5" y="254.6" width="6" height="8" fill="#d39f71" opacity="0.5"/>
<rect x="487.5" y="270.6" width="6" height="8" fill="#d39f71" opacity="0.5"/>
<rect x="731.3" y="209.1" width="46.0" height="90.9" fill="#bc6c25"/>
<rect x="744.3" y="221.1" width="6" height="8" fill="#d39f71" opacity="0.5"/>
<rect x="758.3" y="221.1" width="6" height="8" fill="#d39f71" opacity="0.5"/>
<rect x="744.3" y="237.1" width="6" height="8" fill="#d39f71" opacity="0.5"/>
<rect x="758.3" y="237.1" width="6" height="8" fill="#d39f71" opacity="0.5"/>
<rect x="744.3" y="253.1" width="6" height="8" fill="#d39f71" opacity="0.5"/>
<rect x="758.3" y="253.1" width="6" height="8" fill="#d39f71" opacity="0.5"/>
<rect x="744.3" y="269.1" width="6" height="8" fill="#d39f71" opacity="0.5"/>
<rect x="994.4" y="120.9" width="31.1" height="179.1" fill="#bc6c25"/>
<rect x="1007.0" y="132.9" width="6" height="8" fill="#d39f71" opacity="0.5"/>
<rect x="1007.0" y="148.9" width="6" height="8" fill="#d39f71" opacity="0.5"/>
<rect x="1007.0" y="164.9" width="6" height="8" fill="#d39f71" opacity="0.5"/>
<rect x="1007.0" y="180.9" width="6" height="8" fill="#d39f71" opacity="0.5"/>
<rect x="1007.0" y="196.9" width="6" height="8" fill="#d39f71" opacity="0.5"/>
<rect x="1007.0" y="212.9" width="6" height="8" fill="#d39f71" opacity="0.5"/>
<rect x="1007.0" y="244.9" width="6" height="8" fill="#d39f71" opacity="0.5"/>
<rect x="1007.0" y="260.9" width="6" height="8" fill="#d39f71" opacity="0.5"/>
<rect x="0" y="298" width="1200" height="2" fill="#a96121" opacity="0.15"/>
</svg>