<svg xmlns="http://www.w3.org/2000/svg" viewBox="0 0 1200 400" width="1200" height="400">
<defs>
<linearGradient id="bg" x1="0" y1="0" x2="0" y2="1"><stop offset="0%" stop-color="#94a3b8"/><stop offset="100%" stop-color="#0369a1"/></linearGradient>
<linearGradient id="warm" x1="0" y1="0" x2="1" y2="1"><stop offset="0%" stop-color="#858d98" stop-opacity="0.18"/><stop offset="100%" stop-color="#858d98" stop-opacity="0.06"/></linearGradient>
</defs>
<rect width="1200" height="400" fill="url(#bg)"/>
<path d="M0 400 L0 225.0607018250651 C60.0 223.7, 90.0 234.2, 150.0 230.0 C210.0 232.2, 240.0 260.6, 300.0 257.2 C360.0 258.5, 390.0 227.9, 450.0 235.0 C510.0 234.9, 540.0 224.9, 600.0 234.4 C660.0 232.3, 690.0 230.3, 750.0 227.0 C810.0 226.4, 840.0 238.1, 900.0 234.0 C960.0 240.2, 990.0 223.5, 1050.0 221.7 C1110.0 220.1, 1140.0 252.0, 1200.0 250.2 L1200 400 Z" fill="#367da9" opacity="0.45"/>
<path d="M0 400 L0 277.60953052634375 C52.5 283.2, 97.5 285.1, 150.0 277.8 C202.5 279.3, 247.5 254.3, 300.0 258.2 C352.5 262.3, 397.5 271.0, 450.0 263.8 C502.5 267.1, 547.5 288.2, 600.0 281.8 C652.5 285.8, 697.5 279.7, 750.0 276.2 C802.5 276.5, 847.5 267.4, 900.0 262.0 C952.5 264.0, 997.5 264.7, 1050.0 257.4 C1102.5 250.3, 1147.5 256.3, 1200.0 263.8 L1200 400 Z" fill="#0369a1" opacity="0.3"/>
<rect x="216.9" y="290.4" width="44.5" height="109.6" rx="5.3" fill="#048281" opacity="0.76"/>
<rect x="236.7" y="300.4" width="4" height="5" rx="0.5" fill="#94a3b8" opacity="0.6"/>
<rect x="236.7" y="344.4" width="4" height="5" rx="0.5" fill="#94a3b8" opacity="0.6"/>
<rect x="221.9" y="366.4" width="4" height="5" rx="0.5" fill="#94a3b8" opacity="0.6"/>
<rect x="236.7" y="366.4" width="4" height="5" rx="0.5" fill="#94a3b8" opacity="0.6"/>
<rect x="497.6" y="291.8" width="18.2" height="108.2" rx="5.3" fill="#04867d" opacity="0.61"/>
<rect x="887.0" y="321.7" width="12.7" height="78.3" rx="5.4" fill="#048084" opacity="0.66"/>
<rect x="500.7" y="340.5" width="35.9" height="59.5" rx="7.0" fill="#058f71" opacity="0.59"/>
<rect x="237.9" y="356.6" width="39.7" height="43.4" rx="7.7" fill="#058f72" opacity="0.72"/>
<rect x="193.3" y="363.4" width="18.0" height="36.6" rx="3.5" fill="#058f72" opacity="0.64"/>
<rect x="284.3" y="311.3" width="38.2" height="88.7" rx="6.4" fill="#058d74" opacity="0.82"/>
<rect x="289.3" y="321.3" width="4" height="5" rx="0.5" fill="#94a3b8" opacity="0.6"/>
<rect x="289.3" y="343.3" width="4" height="5" rx="0.5" fill="#94a3b8" opacity="0.6"/>
<rect x="302.0" y="365.3" width="4" height="5" rx="0.5" fill="#94a3b8" opacity="0.6"/>
<rect x="1078.3" y="319.8" width="22.9" height="80.2" rx="3.8" fill="#047d88" opacity="0.54"/>
<rect x="834.5" y="339.5" width="41.8" height="60.5" rx="4.9" fill="#048a78" opacity="0.58"/>
<rect x="1022.5" y="330.9" width="30.5" height="69.1" rx="6.5" fill="#04857f" opacity="0.80"/>
<rect x="198.1" y="356.3" width="27.8" height="43.7" rx="4.1" fill="#059071" opacity="0.63"/>
<rect x="369.7" y="355.8" width="39.3" height="44.2" rx="7.2" fill="#058c75" opacity="0.55"/>
<rect x="587.3" y="288.5" width="12.4" height="111.5" rx="5.4" fill="#048979" opacity="0.69"/>
<circle cx="1080.1" cy="30.0" r="11.1" fill="#059669" opacity="0.29"/>
<circle cx="1087.8" cy="181.7" r="8.8" fill="#94a3b8" opacity="0.26"/>
<rect width="1200" height="400" fill="url(#warm)"/>
<rect width="1200" height="400" fill="#94a3b8" opacity="0.40"/>
</svg>