<svg xmlns="http://www.w3.org/2000/svg" viewBox="0 0 1200 300" width="1200" height="300">
<defs>
<linearGradient id="skyGrad" x1="0" y1="0" x2="0" y2="1">
<stop offset="0%" stop-color="#818cf8"/>
<stop offset="20%" stop-color="#c4b5fd"/>
<stop offset="38%" stop-color="#fda4af"/>
<stop offset="55%" stop-color="#fdba74"/>
<stop offset="75%" stop-color="#fef08a"/>
<stop offset="100%" stop-color="#fef9c3"/>
</linearGradient>
<linearGradient id="bldg_coral" x1="0" y1="0" x2="0" y2="1"><stop offset="0%" stop-color="#fecaca"/><stop offset="100%" stop-color="#fca5a5"/></linearGradient>
<linearGradient id="bldg_teal" x1="0" y1="0" x2="0" y2="1"><stop offset="0%" stop-color="#99f6e4"/><stop offset="100%" stop-color="#5eead4"/></linearGradient>
<linearGradient id="bldg_amber" x1="0" y1="0" x2="0" y2="1"><stop offset="0%" stop-color="#fde68a"/><stop offset="100%" stop-color="#fcd34d"/></linearGradient>
<linearGradient id="bldg_lavender" x1="0" y1="0" x2="0" y2="1"><stop offset="0%" stop-color="#ddd6fe"/><stop offset="100%" stop-color="#c4b5fd"/></linearGradient>
<linearGradient id="bldg_blue" x1="0" y1="0" x2="0" y2="1"><stop offset="0%" stop-color="#bfdbfe"/><stop offset="100%" stop-color="#93c5fd"/></linearGradient>
<linearGradient id="bldg_mint" x1="0" y1="0" x2="0" y2="1"><stop offset="0%" stop-color="#a7f3d0"/><stop offset="100%" stop-color="#6ee7b7"/></linearGradient>
<linearGradient id="bldg_rose" x1="0" y1="0" x2="0" y2="1"><stop offset="0%" stop-color="#fecdd3"/><stop offset="100%" stop-color="#fda4af"/></linearGradient>
<linearGradient id="bldg_sky" x1="0" y1="0" x2="0" y2="1"><stop offset="0%" stop-color="#bae6fd"/><stop offset="100%" stop-color="#7dd3fc"/></linearGradient>
<linearGradient id="roof_navyRoof" x1="0" y1="0" x2="0" y2="1"><stop offset="0%" stop-color="#4338ca"/><stop offset="100%" stop-color="#3730a3"/></linearGradient>
<linearGradient id="roof_coralRoof" x1="0" y1="0" x2="0" y2="1"><stop offset="0%" stop-color="#f87171"/><stop offset="100%" stop-color="#ef4444"/></linearGradient>
<linearGradient id="roof_tealRoof" x1="0" y1="0" x2="0" y2="1"><stop offset="0%" stop-color="#2dd4bf"/><stop offset="100%" stop-color="#14b8a6"/></linearGradient>
<radialGradient id="windowGlow" cx="50%" cy="50%" r="50%"><stop offset="0%" stop-color="#fef08a"/><stop offset="60%" stop-color="#fbbf24"/><stop offset="100%" stop-color="#f59e0b"/></radialGradient>
<linearGradient id="hillFar" x1="0" y1="0" x2="0" y2="1"><stop offset="0%" stop-color="#c4b5fd"/><stop offset="100%" stop-color="#a5b4fc"/></linearGradient>
<linearGradient id="hillMid" x1="0" y1="0" x2="0" y2="1"><stop offset="0%" stop-color="#86efac"/><stop offset="100%" stop-color="#4ade80"/></linearGradient>
<linearGradient id="hillNear" x1="0" y1="0" x2="0" y2="1"><stop offset="0%" stop-color="#34d399"/><stop offset="100%" stop-color="#10b981"/></linearGradient>
<linearGradient id="hillDesertFar" x1="0" y1="0" x2="0" y2="1"><stop offset="0%" stop-color="#fde68a"/><stop offset="100%" stop-color="#fcd34d"/></linearGradient>
<linearGradient id="hillDesertMid" x1="0" y1="0" x2="0" y2="1"><stop offset="0%" stop-color="#fcd34d"/><stop offset="100%" stop-color="#fbbf24"/></linearGradient>
<linearGradient id="hillDesertNear" x1="0" y1="0" x2="0" y2="1"><stop offset="0%" stop-color="#fbbf24"/><stop offset="100%" stop-color="#f59e0b"/></linearGradient>
<linearGradient id="groundGrad" x1="0" y1="0" x2="0" y2="1"><stop offset="0%" stop-color="#fef3c7"/><stop offset="100%" stop-color="#fde68a"/></linearGradient>
<linearGradient id="waterGrad" x1="0" y1="0" x2="0" y2="1"><stop offset="0%" stop-color="#bfdbfe"/><stop offset="100%" stop-color="#93c5fd"/></linearGradient>
<filter id="softGlow" x="-50%" y="-50%" width="200%" height="200%"><feGaussianBlur in="SourceGraphic" stdDeviation="12"/></filter>
</defs>
<rect width="1200" height="300" fill="url(#skyGrad)"/>
<circle cx="902.0" cy="41.7" r="45" fill="#fef08a" opacity="0.12" filter="url(#softGlow)"/>
<circle cx="902.0" cy="41.7" r="30" fill="#fde68a" opacity="0.18" filter="url(#softGlow)"/>
<circle cx="902.0" cy="41.7" r="16" fill="#fef9c3" opacity="0.25" filter="url(#softGlow)"/>
<ellipse cx="477.9" cy="30.8" rx="36.3" ry="12.7" fill="white" opacity="0.4"/>
<ellipse cx="455.3" cy="34.4" rx="25.4" ry="10.0" fill="white" opacity="0.4"/>
<ellipse cx="497.9" cy="33.5" rx="29.0" ry="10.9" fill="white" opacity="0.4"/>
<ellipse cx="131.1" cy="46.2" rx="45.0" ry="15.8" fill="white" opacity="0.5"/>
<ellipse cx="102.9" cy="50.7" rx="31.5" ry="12.4" fill="white" opacity="0.5"/>
<ellipse cx="155.8" cy="49.6" rx="36.0" ry="13.5" fill="white" opacity="0.5"/>
<ellipse cx="701.4" cy="42.0" rx="31.5" ry="11.0" fill="white" opacity="0.6"/>
<ellipse cx="681.7" cy="45.1" rx="22.0" ry="8.7" fill="white" opacity="0.5"/>
<ellipse cx="718.7" cy="44.4" rx="25.2" ry="9.4" fill="white" opacity="0.5"/>
<path d="M0 300 L0.0 196.0 C142.3 196.0, 142.3 183.8, 284.5 183.8 C440.0 183.8, 440.0 183.1, 595.4 183.1 C770.9 183.1, 770.9 185.0, 946.4 185.0 C1073.2 185.0, 1073.2 193.4, 1200.0 193.4 L1200 300 Z" fill="url(#hillFar)" opacity="0.5"/>
<path d="M0 300 L0.0 204.3 C174.3 204.3, 174.3 214.9, 348.6 214.9 C456.5 214.9, 456.5 203.0, 564.4 203.0 C751.7 203.0, 751.7 213.0, 938.9 213.0 C1069.5 213.0, 1069.5 220.7, 1200.0 220.7 L1200 300 Z" fill="url(#hillMid)" opacity="0.7"/>
<path d="M0 300 L0.0 228.4 C186.1 228.4, 186.1 233.1, 372.3 233.1 C466.8 233.1, 466.8 231.6, 561.2 231.6 C766.9 231.6, 766.9 232.0, 972.5 232.0 C1086.3 232.0, 1086.3 230.7, 1200.0 230.7 L1200 300 Z" fill="url(#hillNear)" opacity="1"/>
<rect x="189.3" y="199.4" width="78.0" height="100.6" rx="3" fill="url(#bldg_rose)" opacity="0.7"/>
<rect x="204.9" y="187.4" width="46.8" height="12.1" rx="2" fill="url(#roof_coralRoof)" opacity="0.7"/>
<rect x="204.3" y="209.4" width="6" height="8" rx="1" fill="url(#windowGlow)" opacity="0.8189637264790776"/>
<rect x="218.3" y="209.4" width="6" height="8" rx="1" fill="url(#windowGlow)" opacity="0.7757141725512753"/>
<rect x="232.3" y="209.4" width="6" height="8" rx="1" fill="url(#windowGlow)" opacity="0.9185244445775284"/>
<rect x="218.3" y="224.4" width="6" height="8" rx="1" fill="url(#windowGlow)" opacity="0.7817359583832956"/>
<rect x="232.3" y="224.4" width="6" height="8" rx="1" fill="url(#windowGlow)" opacity="0.7475853962114012"/>
<rect x="232.3" y="239.4" width="6" height="8" rx="1" fill="url(#windowGlow)" opacity="0.8165383307340267"/>
<rect x="246.3" y="239.4" width="6" height="8" rx="1" fill="url(#windowGlow)" opacity="0.8712464575987525"/>
<rect x="218.3" y="254.4" width="6" height="8" rx="1" fill="url(#windowGlow)" opacity="0.8011599299037642"/>
<rect x="232.3" y="254.4" width="6" height="8" rx="1" fill="url(#windowGlow)" opacity="0.9992190875575035"/>
<rect x="246.3" y="254.4" width="6" height="8" rx="1" fill="url(#windowGlow)" opacity="0.7830053696795392"/>
<rect x="608.7" y="244.5" width="73.6" height="55.5" rx="3" fill="url(#bldg_sky)" opacity="0.7"/>
<rect x="608.7" y="241.5" width="73.6" height="3" rx="1" fill="url(#roof_tealRoof)" opacity="0.7"/>
<rect x="635.5" y="254.5" width="6" height="8" rx="1" fill="url(#windowGlow)" opacity="0.9111418240755526"/>
<rect x="649.5" y="254.5" width="6" height="8" rx="1" fill="url(#windowGlow)" opacity="0.8471123341224679"/>
<rect x="663.5" y="254.5" width="6" height="8" rx="1" fill="url(#windowGlow)" opacity="0.746404129847141"/>
<rect x="983.9" y="204.5" width="45.1" height="95.5" rx="3" fill="url(#bldg_coral)" opacity="0.7"/>
<rect x="983.9" y="201.5" width="45.1" height="3" rx="1" fill="url(#roof_navyRoof)" opacity="0.7"/>
<rect x="996.5" y="229.5" width="6" height="8" rx="1" fill="url(#windowGlow)" opacity="0.7911671387921866"/>
<rect x="1010.5" y="229.5" width="6" height="8" rx="1" fill="url(#windowGlow)" opacity="0.8155679198054446"/>
<rect x="996.5" y="244.5" width="6" height="8" rx="1" fill="url(#windowGlow)" opacity="0.7722460188773674"/>
<rect x="1010.5" y="244.5" width="6" height="8" rx="1" fill="url(#windowGlow)" opacity="0.8155146606338743"/>
<rect x="996.5" y="259.5" width="6" height="8" rx="1" fill="url(#windowGlow)" opacity="0.912498491961741"/>
<rect x="1010.5" y="259.5" width="6" height="8" rx="1" fill="url(#windowGlow)" opacity="0.9550716771534977"/>
<rect x="154.7" y="178.2" width="44.0" height="121.8" rx="3" fill="url(#bldg_teal)" opacity="0.85"/>
<polygon points="154.7,178.2 176.8,168.5 198.8,178.2" fill="url(#roof_coralRoof)" opacity="0.85"/>
<rect x="180.8" y="188.2" width="6" height="8" rx="1" fill="url(#windowGlow)" opacity="0.7694626789863512"/>
<rect x="166.8" y="203.2" width="6" height="8" rx="1" fill="url(#windowGlow)" opacity="0.9157616756929837"/>
<rect x="166.8" y="218.2" width="6" height="8" rx="1" fill="url(#windowGlow)" opacity="0.9526909889433024"/>
<rect x="180.8" y="218.2" width="6" height="8" rx="1" fill="url(#windowGlow)" opacity="0.7401007264573596"/>
<rect x="180.8" y="233.2" width="6" height="8" rx="1" fill="url(#windowGlow)" opacity="0.8460450876252935"/>
<rect x="166.8" y="248.2" width="6" height="8" rx="1" fill="url(#windowGlow)" opacity="0.8435312322077952"/>
<rect x="180.8" y="248.2" width="6" height="8" rx="1" fill="url(#windowGlow)" opacity="0.7305797920704725"/>
<path d="M176.8 220.9 L194.4 220.9 L191.4 226.9 L179.8 226.9 Z" fill="url(#roof_navyRoof)" opacity="0.68"/>
<rect x="428.4" y="228.7" width="70.1" height="71.3" rx="3" fill="url(#bldg_amber)" opacity="0.85"/>
<rect x="428.4" y="225.7" width="70.1" height="3" rx="1" fill="url(#roof_tealRoof)" opacity="0.85"/>
<rect x="446.5" y="238.7" width="6" height="8" rx="1" fill="url(#windowGlow)" opacity="0.7846272842886984"/>
<rect x="460.5" y="238.7" width="6" height="8" rx="1" fill="url(#windowGlow)" opacity="0.9270875179800612"/>
<rect x="474.5" y="238.7" width="6" height="8" rx="1" fill="url(#windowGlow)" opacity="0.8146194152602084"/>
<rect x="446.5" y="253.7" width="6" height="8" rx="1" fill="url(#windowGlow)" opacity="0.936539243132127"/>
<rect x="460.5" y="253.7" width="6" height="8" rx="1" fill="url(#windowGlow)" opacity="0.7921361742504575"/>
<rect x="474.5" y="253.7" width="6" height="8" rx="1" fill="url(#windowGlow)" opacity="0.8730052803983005"/>
<path d="M435.5 253.6 L463.5 253.6 L460.5 259.6 L438.5 259.6 Z" fill="url(#roof_coralRoof)" opacity="0.68"/>
<rect x="670.8" y="236.0" width="70.6" height="64.0" rx="3" fill="url(#bldg_lavender)" opacity="0.85"/>
<rect x="670.8" y="233.0" width="70.6" height="3" rx="1" fill="url(#roof_navyRoof)" opacity="0.85"/>
<rect x="689.1" y="246.0" width="6" height="8" rx="1" fill="url(#windowGlow)" opacity="0.7930813557901798"/>
<rect x="703.1" y="246.0" width="6" height="8" rx="1" fill="url(#windowGlow)" opacity="0.9664348940674378"/>
<rect x="717.1" y="246.0" width="6" height="8" rx="1" fill="url(#windowGlow)" opacity="0.9023648446436807"/>
<rect x="689.1" y="261.0" width="6" height="8" rx="1" fill="url(#windowGlow)" opacity="0.7606391869767751"/>
<rect x="703.1" y="261.0" width="6" height="8" rx="1" fill="url(#windowGlow)" opacity="0.9381218765108481"/>
<rect x="717.1" y="261.0" width="6" height="8" rx="1" fill="url(#windowGlow)" opacity="0.9103206194053965"/>
<path d="M706.1 258.4 L734.3 258.4 L731.3 264.4 L709.1 264.4 Z" fill="url(#roof_tealRoof)" opacity="0.68"/>
<rect x="1024.2" y="183.4" width="50.4" height="116.6" rx="3" fill="url(#bldg_blue)" opacity="0.85"/>
<polygon points="1024.2,183.4 1049.4,171.4 1074.6,183.4" fill="url(#roof_coralRoof)" opacity="0.85"/>
<rect x="1039.4" y="193.4" width="6" height="8" rx="1" fill="url(#windowGlow)" opacity="0.7138877688971756"/>
<rect x="1053.4" y="193.4" width="6" height="8" rx="1" fill="url(#windowGlow)" opacity="0.8970017048516318"/>
<rect x="1053.4" y="208.4" width="6" height="8" rx="1" fill="url(#windowGlow)" opacity="0.938003001426348"/>
<rect x="1039.4" y="223.4" width="6" height="8" rx="1" fill="url(#windowGlow)" opacity="0.8787415772111814"/>
<rect x="1053.4" y="223.4" width="6" height="8" rx="1" fill="url(#windowGlow)" opacity="0.9401097519975666"/>
<rect x="1039.4" y="238.4" width="6" height="8" rx="1" fill="url(#windowGlow)" opacity="0.8768976350672997"/>
<rect x="1053.4" y="238.4" width="6" height="8" rx="1" fill="url(#windowGlow)" opacity="0.9434152086001891"/>
<rect x="1039.4" y="253.4" width="6" height="8" rx="1" fill="url(#windowGlow)" opacity="0.7298719505452885"/>
<rect x="1053.4" y="253.4" width="6" height="8" rx="1" fill="url(#windowGlow)" opacity="0.8234238172059057"/>
<rect x="130.6" y="150.8" width="51.7" height="149.2" rx="3" fill="url(#bldg_mint)" opacity="1"/>
<polygon points="130.6,150.8 156.4,136.3 182.3,150.8" fill="url(#roof_tealRoof)" opacity="1"/>
<rect x="160.4" y="160.8" width="6" height="8" rx="1" fill="url(#windowGlow)" opacity="0.7854115775718407"/>
<rect x="146.4" y="175.8" width="6" height="8" rx="1" fill="url(#windowGlow)" opacity="0.7298924630181363"/>
<rect x="160.4" y="175.8" width="6" height="8" rx="1" fill="url(#windowGlow)" opacity="0.7614162009961046"/>
<rect x="160.4" y="190.8" width="6" height="8" rx="1" fill="url(#windowGlow)" opacity="0.802879697504863"/>
<rect x="146.4" y="205.8" width="6" height="8" rx="1" fill="url(#windowGlow)" opacity="0.7559357091113625"/>
<rect x="146.4" y="220.8" width="6" height="8" rx="1" fill="url(#windowGlow)" opacity="0.9651535803289868"/>
<rect x="146.4" y="235.8" width="6" height="8" rx="1" fill="url(#windowGlow)" opacity="0.7093492329164172"/>
<rect x="160.4" y="235.8" width="6" height="8" rx="1" fill="url(#windowGlow)" opacity="0.8746690522761404"/>
<rect x="160.4" y="250.8" width="6" height="8" rx="1" fill="url(#windowGlow)" opacity="0.9813337748783332"/>
<rect x="151.4" y="284.0" width="10" height="16" rx="2" fill="url(#roof_navyRoof)" opacity="0.8"/>
<rect x="153.4" y="287.0" width="6" height="10" rx="1" fill="url(#windowGlow)" opacity="0.45"/>
<rect x="432.3" y="169.6" width="50.7" height="130.4" rx="3" fill="url(#bldg_rose)" opacity="1"/>
<polygon points="432.3,169.6 457.7,156.1 483.0,169.6" fill="url(#roof_navyRoof)" opacity="1"/>
<rect x="447.7" y="179.6" width="6" height="8" rx="1" fill="url(#windowGlow)" opacity="0.9018786857379035"/>
<rect x="461.7" y="179.6" width="6" height="8" rx="1" fill="url(#windowGlow)" opacity="0.9792206244446433"/>
<rect x="447.7" y="194.6" width="6" height="8" rx="1" fill="url(#windowGlow)" opacity="0.8113029107504072"/>
<rect x="461.7" y="194.6" width="6" height="8" rx="1" fill="url(#windowGlow)" opacity="0.9536264277778688"/>
<rect x="447.7" y="209.6" width="6" height="8" rx="1" fill="url(#windowGlow)" opacity="0.970758592230621"/>
<rect x="461.7" y="209.6" width="6" height="8" rx="1" fill="url(#windowGlow)" opacity="0.9195208398250494"/>
<rect x="447.7" y="224.6" width="6" height="8" rx="1" fill="url(#windowGlow)" opacity="0.9393141713642115"/>
<rect x="461.7" y="224.6" width="6" height="8" rx="1" fill="url(#windowGlow)" opacity="0.9644020963294441"/>
<rect x="447.7" y="239.6" width="6" height="8" rx="1" fill="url(#windowGlow)" opacity="0.7876187475340528"/>
<rect x="461.7" y="239.6" width="6" height="8" rx="1" fill="url(#windowGlow)" opacity="0.7805558779186363"/>
<rect x="452.7" y="284.0" width="10" height="16" rx="2" fill="url(#roof_navyRoof)" opacity="0.8"/>
<rect x="454.7" y="287.0" width="6" height="10" rx="1" fill="url(#windowGlow)" opacity="0.45"/>
<rect x="717.6" y="243.6" width="47.9" height="56.4" rx="3" fill="url(#bldg_sky)" opacity="1"/>
<polygon points="717.6,243.6 741.5,227.1 765.4,243.6" fill="url(#roof_coralRoof)" opacity="1"/>
<rect x="731.5" y="253.6" width="6" height="8" rx="1" fill="url(#windowGlow)" opacity="0.8219338168492232"/>
<rect x="736.5" y="284.0" width="10" height="16" rx="2" fill="url(#roof_navyRoof)" opacity="0.8"/>
<rect x="738.5" y="287.0" width="6" height="10" rx="1" fill="url(#windowGlow)" opacity="0.45"/>
<path d="M722.4 263.4 L741.5 263.4 L738.5 269.4 L725.4 269.4 Z" fill="url(#roof_navyRoof)" opacity="0.8"/>
<rect x="1014.0" y="186.8" width="53.9" height="113.2" rx="3" fill="url(#bldg_coral)" opacity="1"/>
<polygon points="1014.0,186.8 1040.9,173.4 1067.9,186.8" fill="url(#roof_tealRoof)" opacity="1"/>
<rect x="1044.9" y="196.8" width="6" height="8" rx="1" fill="url(#windowGlow)" opacity="0.9729277870026081"/>
<rect x="1030.9" y="211.8" width="6" height="8" rx="1" fill="url(#windowGlow)" opacity="0.8865378537152604"/>
<rect x="1044.9" y="211.8" width="6" height="8" rx="1" fill="url(#windowGlow)" opacity="0.9764879394678808"/>
<rect x="1030.9" y="226.8" width="6" height="8" rx="1" fill="url(#windowGlow)" opacity="0.8315433493496586"/>
<rect x="1044.9" y="226.8" width="6" height="8" rx="1" fill="url(#windowGlow)" opacity="0.9441356467288619"/>
<rect x="1030.9" y="241.8" width="6" height="8" rx="1" fill="url(#windowGlow)" opacity="0.7989990506782192"/>
<rect x="1044.9" y="241.8" width="6" height="8" rx="1" fill="url(#windowGlow)" opacity="0.8171748771877841"/>
<rect x="1030.9" y="256.8" width="6" height="8" rx="1" fill="url(#windowGlow)" opacity="0.985340075513972"/>
<rect x="1035.9" y="284.0" width="10" height="16" rx="2" fill="url(#roof_navyRoof)" opacity="0.8"/>
<rect x="1037.9" y="287.0" width="6" height="10" rx="1" fill="url(#windowGlow)" opacity="0.45"/>
<rect x="1031.5" y="212.8" width="18.9" height="5" rx="1" fill="#15803d" opacity="0.7"/>
<circle cx="1034.5" cy="211.8" r="2.5" fill="#fb923c" opacity="0.85"/>
<circle cx="1040.8" cy="211.8" r="2.5" fill="#a78bfa" opacity="0.85"/>
<circle cx="1047.1" cy="211.8" r="2.5" fill="#a78bfa" opacity="0.85"/>
<rect x="304.3" y="268.5" width="6" height="16.5" rx="2" fill="#15803d"/>
<circle cx="307.3" cy="256.0" r="16.5" fill="#22c55e" opacity="0.9"/>
<circle cx="301.2" cy="259.0" r="12.4" fill="#16a34a" opacity="0.8"/>
<circle cx="313.7" cy="260.0" r="11.5" fill="#15803d" opacity="0.7"/>
<rect x="597.3" y="263.6" width="6" height="21.4" rx="2" fill="#15803d"/>
<circle cx="600.3" cy="253.7" r="13.9" fill="#22c55e" opacity="0.9"/>
<circle cx="592.9" cy="256.7" r="10.4" fill="#16a34a" opacity="0.8"/>
<circle cx="606.3" cy="257.7" r="9.7" fill="#15803d" opacity="0.7"/>
<rect x="886.7" y="263.3" width="6" height="21.7" rx="2" fill="#15803d"/>
<circle cx="889.7" cy="250.7" r="16.6" fill="#22c55e" opacity="0.9"/>
<circle cx="881.6" cy="253.7" r="12.4" fill="#16a34a" opacity="0.8"/>
<circle cx="896.5" cy="254.7" r="11.6" fill="#15803d" opacity="0.7"/>
<rect x="83.2" y="267.0" width="6" height="18.0" rx="2" fill="#15803d"/>
<circle cx="86.2" cy="253.8" r="17.2" fill="#22c55e" opacity="0.9"/>
<circle cx="79.5" cy="256.8" r="12.9" fill="#16a34a" opacity="0.8"/>
<circle cx="92.3" cy="257.8" r="12.0" fill="#15803d" opacity="0.7"/>
<rect x="1087.9" y="263.9" width="6" height="21.1" rx="2" fill="#15803d"/>
<circle cx="1090.9" cy="250.1" r="17.8" fill="#22c55e" opacity="0.9"/>
<circle cx="1083.8" cy="253.1" r="13.3" fill="#16a34a" opacity="0.8"/>
<circle cx="1097.0" cy="254.1" r="12.4" fill="#15803d" opacity="0.7"/>
<rect x="709.4" y="263.5" width="6" height="21.5" rx="2" fill="#15803d"/>
<circle cx="712.4" cy="250.5" r="17.0" fill="#22c55e" opacity="0.9"/>
<circle cx="704.3" cy="253.5" r="12.8" fill="#16a34a" opacity="0.8"/>
<circle cx="720.4" cy="254.5" r="11.9" fill="#15803d" opacity="0.7"/>
<rect x="1002.8" y="267.2" width="6" height="17.8" rx="2" fill="#15803d"/>
<circle cx="1005.8" cy="255.1" r="16.1" fill="#22c55e" opacity="0.9"/>
<circle cx="999.8" cy="258.1" r="12.1" fill="#16a34a" opacity="0.8"/>
<circle cx="1013.5" cy="259.1" r="11.3" fill="#15803d" opacity="0.7"/>
<rect x="801.3" y="264.2" width="6" height="20.8" rx="2" fill="#15803d"/>
<circle cx="804.3" cy="254.3" r="13.8" fill="#22c55e" opacity="0.9"/>
<circle cx="795.9" cy="257.3" r="10.4" fill="#16a34a" opacity="0.8"/>
<circle cx="811.0" cy="258.3" r="9.7" fill="#15803d" opacity="0.7"/>
<rect x="659.2" y="266.5" width="6" height="18.5" rx="2" fill="#15803d"/>
<circle cx="662.2" cy="253.5" r="17.0" fill="#22c55e" opacity="0.9"/>
<circle cx="655.8" cy="256.5" r="12.8" fill="#16a34a" opacity="0.8"/>
<circle cx="669.1" cy="257.5" r="11.9" fill="#15803d" opacity="0.7"/>
<rect x="0" y="282" width="1200" height="18" fill="url(#groundGrad)"/>
<line x1="913.5" y1="282.0" x2="913.5" y2="248.3" stroke="#92400e" stroke-width="2"/>
<circle cx="913.5" cy="248.3" r="4" fill="#fef08a" opacity="0.6"/>
<circle cx="913.5" cy="248.3" r="8" fill="#fef08a" opacity="0.15" filter="url(#softGlow)"/>
<line x1="651.8" y1="282.0" x2="651.8" y2="245.5" stroke="#92400e" stroke-width="2"/>
<circle cx="651.8" cy="245.5" r="4" fill="#fef08a" opacity="0.6"/>
<circle cx="651.8" cy="245.5" r="8" fill="#fef08a" opacity="0.15" filter="url(#softGlow)"/>
<ellipse cx="968.1" cy="282.0" rx="4.1" ry="2.9" fill="#22c55e" opacity="0.6"/>
<ellipse cx="824.4" cy="282.0" rx="5.6" ry="3.9" fill="#22c55e" opacity="0.6"/>
<ellipse cx="461.7" cy="282.0" rx="6.0" ry="4.2" fill="#22c55e" opacity="0.6"/>
<ellipse cx="242.7" cy="282.0" rx="5.7" ry="4.0" fill="#22c55e" opacity="0.6"/>
</svg>