<svg xmlns="http://www.w3.org/2000/svg" viewBox="0 0 1200 300" width="1200" height="300">
<rect width="1200" height="300" fill="#e0eff2"/>
<path d="M0 300 L0 210.0 C418.8 160.9, 1012.1 188.7, 1200 210.0 L1200 300 Z" fill="#aac2c9" opacity="0.3"/>
<rect x="131.3" y="208.0" width="42.7" height="92.0" fill="#8aabb4"/>
<rect x="443.2" y="241.2" width="44.7" height="58.8" fill="#8aabb4"/>
<rect x="702.6" y="224.4" width="82.4" height="75.6" fill="#8aabb4"/>
<rect x="959.0" y="211.9" width="84.6" height="88.1" fill="#8aabb4"/>
<rect x="98.0" y="189.3" width="50.6" height="110.7" fill="#558592"/>
<rect x="113.3" y="201.3" width="6" height="8" fill="#91b0b8" opacity="0.5"/>
<rect x="127.3" y="201.3" width="6" height="8" fill="#91b0b8" opacity="0.5"/>
<rect x="113.3" y="217.3" width="6" height="8" fill="#91b0b8" opacity="0.5"/>
<rect x="127.3" y="217.3" width="6" height="8" fill="#91b0b8" opacity="0.5"/>
<rect x="127.3" y="233.3" width="6" height="8" fill="#91b0b8" opacity="0.5"/>
<rect x="113.3" y="249.3" width="6" height="8" fill="#91b0b8" opacity="0.5"/>
<rect x="113.3" y="265.3" width="6" height="8" fill="#91b0b8" opacity="0.5"/>
<rect x="127.3" y="265.3" width="6" height="8" fill="#91b0b8" opacity="0.5"/>
<rect x="363.4" y="134.7" width="51.1" height="165.3" fill="#558592"/>
<rect x="379.0" y="146.7" width="6" height="8" fill="#91b0b8" opacity="0.5"/>
<rect x="393.0" y="146.7" width="6" height="8" fill="#91b0b8" opacity="0.5"/>
<rect x="379.0" y="162.7" width="6" height="8" fill="#91b0b8" opacity="0.5"/>
<rect x="393.0" y="178.7" width="6" height="8" fill="#91b0b8" opacity="0.5"/>
<rect x="379.0" y="210.7" width="6" height="8" fill="#91b0b8" opacity="0.5"/>
<rect x="393.0" y="210.7" width="6" height="8" fill="#91b0b8" opacity="0.5"/>
<rect x="379.0" y="226.7" width="6" height="8" fill="#91b0b8" opacity="0.5"/>
<rect x="393.0" y="226.7" width="6" height="8" fill="#91b0b8" opacity="0.5"/>
<rect x="379.0" y="242.7" width="6" height="8" fill="#91b0b8" opacity="0.5"/>
<rect x="393.0" y="242.7" width="6" height="8" fill="#91b0b8" opacity="0.5"/>
<rect x="379.0" y="258.7" width="6" height="8" fill="#91b0b8" opacity="0.5"/>
<rect x="584.5" y="171.7" width="72.4" height="128.3" fill="#558592"/>
<rect x="596.7" y="183.7" width="6" height="8" fill="#91b0b8" opacity="0.5"/>
<rect x="610.7" y="183.7" width="6" height="8" fill="#91b0b8" opacity="0.5"/>
<rect x="624.7" y="183.7" width="6" height="8" fill="#91b0b8" opacity="0.5"/>
<rect x="638.7" y="183.7" width="6" height="8" fill="#91b0b8" opacity="0.5"/>
<rect x="610.7" y="199.7" width="6" height="8" fill="#91b0b8" opacity="0.5"/>
<rect x="624.7" y="199.7" width="6" height="8" fill="#91b0b8" opacity="0.5"/>
<rect x="596.7" y="215.7" width="6" height="8" fill="#91b0b8" opacity="0.5"/>
<rect x="610.7" y="215.7" width="6" height="8" fill="#91b0b8" opacity="0.5"/>
<rect x="610.7" y="231.7" width="6" height="8" fill="#91b0b8" opacity="0.5"/>
<rect x="624.7" y="231.7" width="6" height="8" fill="#91b0b8" opacity="0.5"/>
<rect x="638.7" y="231.7" width="6" height="8" fill="#91b0b8" opacity="0.5"/>
<rect x="624.7" y="247.7" width="6" height="8" fill="#91b0b8" opacity="0.5"/>
<rect x="638.7" y="247.7" width="6" height="8" fill="#91b0b8" opacity="0.5"/>
<rect x="610.7" y="263.7" width="6" height="8" fill="#91b0b8" opacity="0.5"/>
<rect x="638.7" y="263.7" width="6" height="8" fill="#91b0b8" opacity="0.5"/>
<rect x="766.0" y="157.3" width="79.4" height="142.7" fill="#558592"/>
<rect x="781.7" y="169.3" width="6" height="8" fill="#91b0b8" opacity="0.5"/>
<rect x="795.7" y="169.3" width="6" height="8" fill="#91b0b8" opacity="0.5"/>
<rect x="809.7" y="169.3" width="6" height="8" fill="#91b0b8" opacity="0.5"/>
<rect x="823.7" y="169.3" width="6" height="8" fill="#91b0b8" opacity="0.5"/>
<rect x="795.7" y="185.3" width="6" height="8" fill="#91b0b8" opacity="0.5"/>
<rect x="823.7" y="185.3" width="6" height="8" fill="#91b0b8" opacity="0.5"/>
<rect x="781.7" y="201.3" width="6" height="8" fill="#91b0b8" opacity="0.5"/>
<rect x="809.7" y="201.3" width="6" height="8" fill="#91b0b8" opacity="0.5"/>
<rect x="823.7" y="201.3" width="6" height="8" fill="#91b0b8" opacity="0.5"/>
<rect x="795.7" y="217.3" width="6" height="8" fill="#91b0b8" opacity="0.5"/>
<rect x="809.7" y="217.3" width="6" height="8" fill="#91b0b8" opacity="0.5"/>
<rect x="781.7" y="233.3" width="6" height="8" fill="#91b0b8" opacity="0.5"/>
<rect x="795.7" y="233.3" width="6" height="8" fill="#91b0b8" opacity="0.5"/>
<rect x="823.7" y="233.3" width="6" height="8" fill="#91b0b8" opacity="0.5"/>
<rect x="795.7" y="249.3" width="6" height="8" fill="#91b0b8" opacity="0.5"/>
<rect x="809.7" y="249.3" width="6" height="8" fill="#91b0b8" opacity="0.5"/>
<rect x="823.7" y="249.3" width="6" height="8" fill="#91b0b8" opacity="0.5"/>
<rect x="781.7" y="265.3" width="6" height="8" fill="#91b0b8" opacity="0.5"/>
<rect x="795.7" y="265.3" width="6" height="8" fill="#91b0b8" opacity="0.5"/>
<rect x="809.7" y="265.3" width="6" height="8" fill="#91b0b8" opacity="0.5"/>
<rect x="823.7" y="265.3" width="6" height="8" fill="#91b0b8" opacity="0.5"/>
<rect x="997.4" y="186.4" width="56.8" height="113.6" fill="#558592"/>
<rect x="1015.8" y="198.4" width="6" height="8" fill="#91b0b8" opacity="0.5"/>
<rect x="1015.8" y="214.4" width="6" height="8" fill="#91b0b8" opacity="0.5"/>
<rect x="1029.8" y="214.4" width="6" height="8" fill="#91b0b8" opacity="0.5"/>
<rect x="1015.8" y="230.4" width="6" height="8" fill="#91b0b8" opacity="0.5"/>
<rect x="1029.8" y="246.4" width="6" height="8" fill="#91b0b8" opacity="0.5"/>
<rect x="1015.8" y="262.4" width="6" height="8" fill="#91b0b8" opacity="0.5"/>
<rect x="1029.8" y="262.4" width="6" height="8" fill="#91b0b8" opacity="0.5"/>
<rect x="171.0" y="214.8" width="66.0" height="85.2" fill="#2b6777"/>
<rect x="187.0" y="226.8" width="6" height="8" fill="#759ca7" opacity="0.5"/>
<rect x="201.0" y="226.8" width="6" height="8" fill="#759ca7" opacity="0.5"/>
<rect x="215.0" y="242.8" width="6" height="8" fill="#759ca7" opacity="0.5"/>
<rect x="187.0" y="258.8" width="6" height="8" fill="#759ca7" opacity="0.5"/>
<rect x="201.0" y="258.8" width="6" height="8" fill="#759ca7" opacity="0.5"/>
<rect x="215.0" y="258.8" width="6" height="8" fill="#759ca7" opacity="0.5"/>
<rect x="406.1" y="153.8" width="46.2" height="146.2" fill="#2b6777"/>
<rect x="419.2" y="165.8" width="6" height="8" fill="#759ca7" opacity="0.5"/>
<rect x="419.2" y="181.8" width="6" height="8" fill="#759ca7" opacity="0.5"/>
<rect x="433.2" y="181.8" width="6" height="8" fill="#759ca7" opacity="0.5"/>
<rect x="419.2" y="197.8" width="6" height="8" fill="#759ca7" opacity="0.5"/>
<rect x="433.2" y="197.8" width="6" height="8" fill="#759ca7" opacity="0.5"/>
<rect x="433.2" y="213.8" width="6" height="8" fill="#759ca7" opacity="0.5"/>
<rect x="433.2" y="229.8" width="6" height="8" fill="#759ca7" opacity="0.5"/>
<rect x="419.2" y="245.8" width="6" height="8" fill="#759ca7" opacity="0.5"/>
<rect x="433.2" y="245.8" width="6" height="8" fill="#759ca7" opacity="0.5"/>
<rect x="419.2" y="261.8" width="6" height="8" fill="#759ca7" opacity="0.5"/>
<rect x="433.2" y="261.8" width="6" height="8" fill="#759ca7" opacity="0.5"/>
<rect x="710.9" y="175.6" width="41.7" height="124.4" fill="#2b6777"/>
<rect x="728.8" y="187.6" width="6" height="8" fill="#759ca7" opacity="0.5"/>
<rect x="728.8" y="203.6" width="6" height="8" fill="#759ca7" opacity="0.5"/>
<rect x="728.8" y="219.6" width="6" height="8" fill="#759ca7" opacity="0.5"/>
<rect x="728.8" y="267.6" width="6" height="8" fill="#759ca7" opacity="0.5"/>
<rect x="982.8" y="143.6" width="36.6" height="156.4" fill="#2b6777"/>
<rect x="998.1" y="155.6" width="6" height="8" fill="#759ca7" opacity="0.5"/>
<rect x="998.1" y="171.6" width="6" height="8" fill="#759ca7" opacity="0.5"/>
<rect x="998.1" y="187.6" width="6" height="8" fill="#759ca7" opacity="0.5"/>
<rect x="998.1" y="203.6" width="6" height="8" fill="#759ca7" opacity="0.5"/>
<rect x="998.1" y="219.6" width="6" height="8" fill="#759ca7" opacity="0.5"/>
<rect x="998.1" y="235.6" width="6" height="8" fill="#759ca7" opacity="0.5"/>
<rect x="998.1" y="251.6" width="6" height="8" fill="#759ca7" opacity="0.5"/>
<rect x="998.1" y="267.6" width="6" height="8" fill="#759ca7" opacity="0.5"/>
<rect x="0" y="298" width="1200" height="2" fill="#275d6b" opacity="0.15"/>
</svg>