<svg xmlns="http://www.w3.org/2000/svg" viewBox="0 0 1200 300" width="1200" height="300">
<defs>
<linearGradient id="skyGrad" x1="0" y1="0" x2="0" y2="1">
<stop offset="0%" stop-color="#818cf8"/>
<stop offset="20%" stop-color="#c4b5fd"/>
<stop offset="38%" stop-color="#fda4af"/>
<stop offset="55%" stop-color="#fdba74"/>
<stop offset="75%" stop-color="#fef08a"/>
<stop offset="100%" stop-color="#fef9c3"/>
</linearGradient>
<linearGradient id="bldg_coral" x1="0" y1="0" x2="0" y2="1"><stop offset="0%" stop-color="#fecaca"/><stop offset="100%" stop-color="#fca5a5"/></linearGradient>
<linearGradient id="bldg_teal" x1="0" y1="0" x2="0" y2="1"><stop offset="0%" stop-color="#99f6e4"/><stop offset="100%" stop-color="#5eead4"/></linearGradient>
<linearGradient id="bldg_amber" x1="0" y1="0" x2="0" y2="1"><stop offset="0%" stop-color="#fde68a"/><stop offset="100%" stop-color="#fcd34d"/></linearGradient>
<linearGradient id="bldg_lavender" x1="0" y1="0" x2="0" y2="1"><stop offset="0%" stop-color="#ddd6fe"/><stop offset="100%" stop-color="#c4b5fd"/></linearGradient>
<linearGradient id="bldg_blue" x1="0" y1="0" x2="0" y2="1"><stop offset="0%" stop-color="#bfdbfe"/><stop offset="100%" stop-color="#93c5fd"/></linearGradient>
<linearGradient id="bldg_mint" x1="0" y1="0" x2="0" y2="1"><stop offset="0%" stop-color="#a7f3d0"/><stop offset="100%" stop-color="#6ee7b7"/></linearGradient>
<linearGradient id="bldg_rose" x1="0" y1="0" x2="0" y2="1"><stop offset="0%" stop-color="#fecdd3"/><stop offset="100%" stop-color="#fda4af"/></linearGradient>
<linearGradient id="bldg_sky" x1="0" y1="0" x2="0" y2="1"><stop offset="0%" stop-color="#bae6fd"/><stop offset="100%" stop-color="#7dd3fc"/></linearGradient>
<linearGradient id="roof_navyRoof" x1="0" y1="0" x2="0" y2="1"><stop offset="0%" stop-color="#4338ca"/><stop offset="100%" stop-color="#3730a3"/></linearGradient>
<linearGradient id="roof_coralRoof" x1="0" y1="0" x2="0" y2="1"><stop offset="0%" stop-color="#f87171"/><stop offset="100%" stop-color="#ef4444"/></linearGradient>
<linearGradient id="roof_tealRoof" x1="0" y1="0" x2="0" y2="1"><stop offset="0%" stop-color="#2dd4bf"/><stop offset="100%" stop-color="#14b8a6"/></linearGradient>
<radialGradient id="windowGlow" cx="50%" cy="50%" r="50%"><stop offset="0%" stop-color="#fef08a"/><stop offset="60%" stop-color="#fbbf24"/><stop offset="100%" stop-color="#f59e0b"/></radialGradient>
<linearGradient id="hillFar" x1="0" y1="0" x2="0" y2="1"><stop offset="0%" stop-color="#c4b5fd"/><stop offset="100%" stop-color="#a5b4fc"/></linearGradient>
<linearGradient id="hillMid" x1="0" y1="0" x2="0" y2="1"><stop offset="0%" stop-color="#86efac"/><stop offset="100%" stop-color="#4ade80"/></linearGradient>
<linearGradient id="hillNear" x1="0" y1="0" x2="0" y2="1"><stop offset="0%" stop-color="#34d399"/><stop offset="100%" stop-color="#10b981"/></linearGradient>
<linearGradient id="hillDesertFar" x1="0" y1="0" x2="0" y2="1"><stop offset="0%" stop-color="#fde68a"/><stop offset="100%" stop-color="#fcd34d"/></linearGradient>
<linearGradient id="hillDesertMid" x1="0" y1="0" x2="0" y2="1"><stop offset="0%" stop-color="#fcd34d"/><stop offset="100%" stop-color="#fbbf24"/></linearGradient>
<linearGradient id="hillDesertNear" x1="0" y1="0" x2="0" y2="1"><stop offset="0%" stop-color="#fbbf24"/><stop offset="100%" stop-color="#f59e0b"/></linearGradient>
<linearGradient id="groundGrad" x1="0" y1="0" x2="0" y2="1"><stop offset="0%" stop-color="#fef3c7"/><stop offset="100%" stop-color="#fde68a"/></linearGradient>
<linearGradient id="waterGrad" x1="0" y1="0" x2="0" y2="1"><stop offset="0%" stop-color="#bfdbfe"/><stop offset="100%" stop-color="#93c5fd"/></linearGradient>
<filter id="softGlow" x="-50%" y="-50%" width="200%" height="200%"><feGaussianBlur in="SourceGraphic" stdDeviation="12"/></filter>
</defs>
<rect width="1200" height="300" fill="url(#skyGrad)"/>
<circle cx="1040.0" cy="45.3" r="45" fill="#fef08a" opacity="0.12" filter="url(#softGlow)"/>
<circle cx="1040.0" cy="45.3" r="30" fill="#fde68a" opacity="0.18" filter="url(#softGlow)"/>
<circle cx="1040.0" cy="45.3" r="16" fill="#fef9c3" opacity="0.25" filter="url(#softGlow)"/>
<ellipse cx="559.5" cy="46.3" rx="47.2" ry="16.5" fill="white" opacity="0.6"/>
<ellipse cx="530.0" cy="51.0" rx="33.1" ry="13.0" fill="white" opacity="0.6"/>
<ellipse cx="585.4" cy="49.9" rx="37.8" ry="14.2" fill="white" opacity="0.5"/>
<ellipse cx="473.4" cy="40.7" rx="31.0" ry="10.8" fill="white" opacity="0.6"/>
<ellipse cx="454.0" cy="43.8" rx="21.7" ry="8.5" fill="white" opacity="0.5"/>
<ellipse cx="490.4" cy="43.0" rx="24.8" ry="9.3" fill="white" opacity="0.5"/>
<ellipse cx="518.0" cy="30.1" rx="32.0" ry="11.2" fill="white" opacity="0.7"/>
<ellipse cx="498.0" cy="33.3" rx="22.4" ry="8.8" fill="white" opacity="0.6"/>
<ellipse cx="535.6" cy="32.5" rx="25.6" ry="9.6" fill="white" opacity="0.6"/>
<path d="M0 300 L0.0 190.0 C140.3 190.0, 140.3 179.1, 280.6 179.1 C430.7 179.1, 430.7 188.8, 580.8 188.8 C721.1 188.8, 721.1 184.4, 861.4 184.4 C1030.7 184.4, 1030.7 200.6, 1200.0 200.6 L1200 300 Z" fill="url(#hillFar)" opacity="0.5"/>
<path d="M0 300 L0.0 215.7 C163.3 215.7, 163.3 207.4, 326.7 207.4 C452.5 207.4, 452.5 215.4, 578.2 215.4 C711.2 215.4, 711.2 211.2, 844.3 211.2 C1022.1 211.2, 1022.1 217.3, 1200.0 217.3 L1200 300 Z" fill="url(#hillMid)" opacity="0.7"/>
<path d="M0 300 L0.0 231.1 C119.8 231.1, 119.8 236.1, 239.7 236.1 C371.5 236.1, 371.5 234.0, 503.4 234.0 C611.2 234.0, 611.2 236.1, 718.9 236.1 C813.4 236.1, 813.4 231.8, 908.0 231.8 C1054.0 231.8, 1054.0 229.9, 1200.0 229.9 L1200 300 Z" fill="url(#hillNear)" opacity="1"/>
<rect x="176.1" y="238.1" width="67.7" height="61.9" rx="3" fill="url(#bldg_sky)" opacity="0.7"/>
<polygon points="176.1,238.1 210.0,220.4 243.9,238.1" fill="url(#roof_navyRoof)" opacity="0.7"/>
<rect x="221.0" y="248.1" width="6" height="8" rx="1" fill="url(#windowGlow)" opacity="0.8017642086845655"/>
<rect x="553.0" y="239.7" width="85.3" height="60.3" rx="3" fill="url(#bldg_coral)" opacity="0.7"/>
<rect x="553.0" y="236.7" width="85.3" height="3" rx="1" fill="url(#roof_coralRoof)" opacity="0.7"/>
<rect x="571.7" y="249.7" width="6" height="8" rx="1" fill="url(#windowGlow)" opacity="0.8115254189872767"/>
<rect x="585.7" y="249.7" width="6" height="8" rx="1" fill="url(#windowGlow)" opacity="0.8217833745394756"/>
<rect x="599.7" y="249.7" width="6" height="8" rx="1" fill="url(#windowGlow)" opacity="0.8382957430734744"/>
<rect x="613.7" y="249.7" width="6" height="8" rx="1" fill="url(#windowGlow)" opacity="0.8739415088081459"/>
<rect x="933.2" y="204.3" width="55.2" height="95.7" rx="3" fill="url(#bldg_teal)" opacity="0.7"/>
<polygon points="933.2,204.3 960.8,187.5 988.4,204.3" fill="url(#roof_tealRoof)" opacity="0.7"/>
<rect x="950.8" y="214.3" width="6" height="8" rx="1" fill="url(#windowGlow)" opacity="0.7134592710591197"/>
<rect x="950.8" y="244.3" width="6" height="8" rx="1" fill="url(#windowGlow)" opacity="0.8673741036874121"/>
<rect x="964.8" y="244.3" width="6" height="8" rx="1" fill="url(#windowGlow)" opacity="0.9349217874160602"/>
<rect x="950.8" y="259.3" width="6" height="8" rx="1" fill="url(#windowGlow)" opacity="0.9462709091819221"/>
<rect x="177.3" y="195.1" width="51.3" height="104.9" rx="3" fill="url(#bldg_amber)" opacity="0.85"/>
<rect x="177.3" y="192.1" width="51.3" height="3" rx="1" fill="url(#roof_navyRoof)" opacity="0.85"/>
<rect x="193.0" y="205.1" width="6" height="8" rx="1" fill="url(#windowGlow)" opacity="0.7558103879242252"/>
<rect x="207.0" y="205.1" width="6" height="8" rx="1" fill="url(#windowGlow)" opacity="0.716591713585235"/>
<rect x="193.0" y="220.1" width="6" height="8" rx="1" fill="url(#windowGlow)" opacity="0.8309747922844135"/>
<rect x="193.0" y="250.1" width="6" height="8" rx="1" fill="url(#windowGlow)" opacity="0.9216983747303944"/>
<rect x="207.0" y="250.1" width="6" height="8" rx="1" fill="url(#windowGlow)" opacity="0.9696215901382368"/>
<rect x="434.5" y="203.5" width="72.3" height="96.5" rx="3" fill="url(#bldg_lavender)" opacity="0.85"/>
<rect x="434.5" y="200.5" width="72.3" height="3" rx="1" fill="url(#roof_coralRoof)" opacity="0.85"/>
<rect x="446.7" y="213.5" width="6" height="8" rx="1" fill="url(#windowGlow)" opacity="0.7066455565889578"/>
<rect x="460.7" y="213.5" width="6" height="8" rx="1" fill="url(#windowGlow)" opacity="0.7858556918734012"/>
<rect x="474.7" y="213.5" width="6" height="8" rx="1" fill="url(#windowGlow)" opacity="0.90725710238668"/>
<rect x="488.7" y="213.5" width="6" height="8" rx="1" fill="url(#windowGlow)" opacity="0.7654758749368953"/>
<rect x="446.7" y="228.5" width="6" height="8" rx="1" fill="url(#windowGlow)" opacity="0.939045557910132"/>
<rect x="460.7" y="228.5" width="6" height="8" rx="1" fill="url(#windowGlow)" opacity="0.9003860269209305"/>
<rect x="474.7" y="228.5" width="6" height="8" rx="1" fill="url(#windowGlow)" opacity="0.824497562192612"/>
<rect x="488.7" y="228.5" width="6" height="8" rx="1" fill="url(#windowGlow)" opacity="0.8211504081362627"/>
<rect x="446.7" y="243.5" width="6" height="8" rx="1" fill="url(#windowGlow)" opacity="0.7034360275154169"/>
<rect x="460.7" y="243.5" width="6" height="8" rx="1" fill="url(#windowGlow)" opacity="0.9920696989596214"/>
<rect x="474.7" y="243.5" width="6" height="8" rx="1" fill="url(#windowGlow)" opacity="0.8772950417722086"/>
<rect x="488.7" y="243.5" width="6" height="8" rx="1" fill="url(#windowGlow)" opacity="0.8561394950636381"/>
<rect x="446.7" y="258.5" width="6" height="8" rx="1" fill="url(#windowGlow)" opacity="0.8696057078752693"/>
<rect x="460.7" y="258.5" width="6" height="8" rx="1" fill="url(#windowGlow)" opacity="0.8196572419347508"/>
<rect x="474.7" y="258.5" width="6" height="8" rx="1" fill="url(#windowGlow)" opacity="0.8870679217796157"/>
<rect x="488.7" y="258.5" width="6" height="8" rx="1" fill="url(#windowGlow)" opacity="0.73585260526084"/>
<path d="M470.7 237.3 L499.6 237.3 L496.6 243.3 L473.7 243.3 Z" fill="url(#roof_navyRoof)" opacity="0.68"/>
<rect x="685.5" y="219.3" width="41.3" height="80.7" rx="3" fill="url(#bldg_blue)" opacity="0.85"/>
<rect x="693.8" y="209.6" width="24.8" height="9.7" rx="2" fill="url(#roof_tealRoof)" opacity="0.85"/>
<rect x="703.1" y="229.3" width="6" height="8" rx="1" fill="url(#windowGlow)" opacity="0.7124333933053694"/>
<rect x="703.1" y="259.3" width="6" height="8" rx="1" fill="url(#windowGlow)" opacity="0.8938022358779806"/>
<rect x="971.6" y="194.1" width="49.9" height="105.9" rx="3" fill="url(#bldg_mint)" opacity="0.85"/>
<polygon points="971.6,194.1 996.6,177.9 1021.5,194.1" fill="url(#roof_navyRoof)" opacity="0.85"/>
<rect x="986.6" y="204.1" width="6" height="8" rx="1" fill="url(#windowGlow)" opacity="0.7205928754157354"/>
<rect x="1000.6" y="204.1" width="6" height="8" rx="1" fill="url(#windowGlow)" opacity="0.9642142169476553"/>
<rect x="1000.6" y="219.1" width="6" height="8" rx="1" fill="url(#windowGlow)" opacity="0.7198048741183266"/>
<rect x="1000.6" y="234.1" width="6" height="8" rx="1" fill="url(#windowGlow)" opacity="0.9826048084919363"/>
<rect x="986.6" y="249.1" width="6" height="8" rx="1" fill="url(#windowGlow)" opacity="0.8916586358061332"/>
<rect x="1000.6" y="249.1" width="6" height="8" rx="1" fill="url(#windowGlow)" opacity="0.944069626109707"/>
<rect x="140.0" y="226.2" width="72.2" height="73.8" rx="3" fill="url(#bldg_rose)" opacity="1"/>
<polygon points="140.0,226.2 176.1,207.3 212.2,226.2" fill="url(#roof_coralRoof)" opacity="1"/>
<rect x="152.1" y="236.2" width="6" height="8" rx="1" fill="url(#windowGlow)" opacity="0.8812268617941191"/>
<rect x="166.1" y="236.2" width="6" height="8" rx="1" fill="url(#windowGlow)" opacity="0.7214750038094236"/>
<rect x="180.1" y="236.2" width="6" height="8" rx="1" fill="url(#windowGlow)" opacity="0.8621554666488224"/>
<rect x="194.1" y="236.2" width="6" height="8" rx="1" fill="url(#windowGlow)" opacity="0.9442430042402088"/>
<rect x="152.1" y="251.2" width="6" height="8" rx="1" fill="url(#windowGlow)" opacity="0.7330045058080016"/>
<rect x="166.1" y="251.2" width="6" height="8" rx="1" fill="url(#windowGlow)" opacity="0.7524468568863565"/>
<rect x="180.1" y="251.2" width="6" height="8" rx="1" fill="url(#windowGlow)" opacity="0.723021024895376"/>
<rect x="194.1" y="251.2" width="6" height="8" rx="1" fill="url(#windowGlow)" opacity="0.8402532700636671"/>
<rect x="171.1" y="284.0" width="10" height="16" rx="2" fill="url(#roof_navyRoof)" opacity="0.8"/>
<rect x="173.1" y="287.0" width="6" height="10" rx="1" fill="url(#windowGlow)" opacity="0.45"/>
<rect x="163.5" y="267.2" width="25.3" height="5" rx="1" fill="#15803d" opacity="0.7"/>
<circle cx="166.5" cy="266.2" r="2.5" fill="#f87171" opacity="0.85"/>
<circle cx="174.9" cy="266.2" r="2.5" fill="#a78bfa" opacity="0.85"/>
<circle cx="183.3" cy="266.2" r="2.5" fill="#fb923c" opacity="0.85"/>
<rect x="437.4" y="216.5" width="58.0" height="83.5" rx="3" fill="url(#bldg_sky)" opacity="1"/>
<rect x="449.0" y="206.5" width="34.8" height="10.0" rx="2" fill="url(#roof_tealRoof)" opacity="1"/>
<rect x="456.4" y="226.5" width="6" height="8" rx="1" fill="url(#windowGlow)" opacity="0.7279218606780851"/>
<rect x="470.4" y="226.5" width="6" height="8" rx="1" fill="url(#windowGlow)" opacity="0.8894876066546363"/>
<rect x="456.4" y="241.5" width="6" height="8" rx="1" fill="url(#windowGlow)" opacity="0.9583683974381388"/>
<rect x="470.4" y="241.5" width="6" height="8" rx="1" fill="url(#windowGlow)" opacity="0.9915687026882398"/>
<rect x="461.4" y="284.0" width="10" height="16" rx="2" fill="url(#roof_navyRoof)" opacity="0.8"/>
<rect x="463.4" y="287.0" width="6" height="10" rx="1" fill="url(#windowGlow)" opacity="0.45"/>
<rect x="682.1" y="231.0" width="67.0" height="69.0" rx="3" fill="url(#bldg_coral)" opacity="1"/>
<polygon points="682.1,231.0 715.6,207.9 749.1,231.0" fill="url(#roof_navyRoof)" opacity="1"/>
<rect x="698.6" y="241.0" width="6" height="8" rx="1" fill="url(#windowGlow)" opacity="0.9406091062541162"/>
<rect x="726.6" y="241.0" width="6" height="8" rx="1" fill="url(#windowGlow)" opacity="0.9932255625693246"/>
<rect x="712.6" y="256.0" width="6" height="8" rx="1" fill="url(#windowGlow)" opacity="0.8531630514902822"/>
<rect x="726.6" y="256.0" width="6" height="8" rx="1" fill="url(#windowGlow)" opacity="0.7253242605483737"/>
<rect x="710.6" y="284.0" width="10" height="16" rx="2" fill="url(#roof_navyRoof)" opacity="0.8"/>
<rect x="712.6" y="287.0" width="6" height="10" rx="1" fill="url(#windowGlow)" opacity="0.45"/>
<rect x="1015.5" y="135.4" width="41.0" height="164.6" rx="3" fill="url(#bldg_teal)" opacity="1"/>
<rect x="1023.7" y="115.6" width="24.6" height="19.8" rx="2" fill="url(#roof_coralRoof)" opacity="1"/>
<rect x="1033.0" y="145.4" width="6" height="8" rx="1" fill="url(#windowGlow)" opacity="0.8816309804476942"/>
<rect x="1033.0" y="160.4" width="6" height="8" rx="1" fill="url(#windowGlow)" opacity="0.9060599090094025"/>
<rect x="1033.0" y="175.4" width="6" height="8" rx="1" fill="url(#windowGlow)" opacity="0.994879129619747"/>
<rect x="1033.0" y="190.4" width="6" height="8" rx="1" fill="url(#windowGlow)" opacity="0.9502684496111555"/>
<rect x="1033.0" y="220.4" width="6" height="8" rx="1" fill="url(#windowGlow)" opacity="0.8180374613581399"/>
<rect x="1033.0" y="235.4" width="6" height="8" rx="1" fill="url(#windowGlow)" opacity="0.7459667490077981"/>
<rect x="1031.0" y="284.0" width="10" height="16" rx="2" fill="url(#roof_navyRoof)" opacity="0.8"/>
<rect x="1033.0" y="287.0" width="6" height="10" rx="1" fill="url(#windowGlow)" opacity="0.45"/>
<rect x="321.8" y="263.5" width="6" height="21.5" rx="2" fill="#15803d"/>
<circle cx="324.8" cy="253.5" r="14.0" fill="#22c55e" opacity="0.9"/>
<circle cx="317.1" cy="256.5" r="10.5" fill="#16a34a" opacity="0.8"/>
<circle cx="330.7" cy="257.5" r="9.8" fill="#15803d" opacity="0.7"/>
<rect x="585.7" y="264.6" width="6" height="20.4" rx="2" fill="#15803d"/>
<circle cx="588.7" cy="253.2" r="15.4" fill="#22c55e" opacity="0.9"/>
<circle cx="580.9" cy="256.2" r="11.5" fill="#16a34a" opacity="0.8"/>
<circle cx="596.5" cy="257.2" r="10.8" fill="#15803d" opacity="0.7"/>
<rect x="879.3" y="263.4" width="6" height="21.6" rx="2" fill="#15803d"/>
<circle cx="882.3" cy="249.6" r="17.8" fill="#22c55e" opacity="0.9"/>
<circle cx="875.8" cy="252.6" r="13.3" fill="#16a34a" opacity="0.8"/>
<circle cx="888.2" cy="253.6" r="12.4" fill="#15803d" opacity="0.7"/>
<rect x="90.4" y="268.0" width="6" height="17.0" rx="2" fill="#15803d"/>
<circle cx="93.4" cy="254.7" r="17.3" fill="#22c55e" opacity="0.9"/>
<circle cx="87.0" cy="257.7" r="13.0" fill="#16a34a" opacity="0.8"/>
<circle cx="98.6" cy="258.7" r="12.1" fill="#15803d" opacity="0.7"/>
<rect x="1097.8" y="267.8" width="6" height="17.2" rx="2" fill="#15803d"/>
<circle cx="1100.8" cy="258.8" r="13.0" fill="#22c55e" opacity="0.9"/>
<circle cx="1093.2" cy="261.8" r="9.8" fill="#16a34a" opacity="0.8"/>
<circle cx="1108.4" cy="262.8" r="9.1" fill="#15803d" opacity="0.7"/>
<rect x="1010.2" y="264.2" width="6" height="20.8" rx="2" fill="#15803d"/>
<circle cx="1013.2" cy="253.4" r="14.8" fill="#22c55e" opacity="0.9"/>
<circle cx="1006.4" cy="256.4" r="11.1" fill="#16a34a" opacity="0.8"/>
<circle cx="1019.6" cy="257.4" r="10.4" fill="#15803d" opacity="0.7"/>
<rect x="957.6" y="266.6" width="6" height="18.4" rx="2" fill="#15803d"/>
<circle cx="960.6" cy="257.0" r="13.6" fill="#22c55e" opacity="0.9"/>
<circle cx="953.7" cy="260.0" r="10.2" fill="#16a34a" opacity="0.8"/>
<circle cx="966.2" cy="261.0" r="9.5" fill="#15803d" opacity="0.7"/>
<rect x="0" y="282" width="1200" height="18" fill="url(#groundGrad)"/>
<line x1="1004.8" y1="282.0" x2="1004.8" y2="240.7" stroke="#92400e" stroke-width="2"/>
<circle cx="1004.8" cy="240.7" r="4" fill="#fef08a" opacity="0.6"/>
<circle cx="1004.8" cy="240.7" r="8" fill="#fef08a" opacity="0.15" filter="url(#softGlow)"/>
<ellipse cx="363.5" cy="282.0" rx="6.3" ry="4.4" fill="#22c55e" opacity="0.6"/>
<ellipse cx="312.5" cy="282.0" rx="4.6" ry="3.2" fill="#22c55e" opacity="0.6"/>
<ellipse cx="385.1" cy="282.0" rx="6.8" ry="4.7" fill="#22c55e" opacity="0.6"/>
</svg>