<svg xmlns="http://www.w3.org/2000/svg" viewBox="0 0 1200 300" width="1200" height="300">
<rect width="1200" height="300" fill="#ede8e0"/>
<path d="M0 300 L0 210.0 C272.1 161.8, 864.2 184.5, 1200 210.0 L1200 300 Z" fill="#c4c6be" opacity="0.3"/>
<rect x="128.5" y="181.4" width="42.3" height="118.6" fill="#aeb0a5"/>
<rect x="468.7" y="192.9" width="54.1" height="107.1" fill="#aeb0a5"/>
<rect x="720.0" y="203.7" width="73.8" height="96.3" fill="#aeb0a5"/>
<rect x="987.4" y="212.3" width="54.6" height="87.7" fill="#aeb0a5"/>
<rect x="135.7" y="189.9" width="71.2" height="110.1" fill="#898d7d"/>
<rect x="154.3" y="201.9" width="6" height="8" fill="#b2b5ab" opacity="0.5"/>
<rect x="168.3" y="201.9" width="6" height="8" fill="#b2b5ab" opacity="0.5"/>
<rect x="182.3" y="201.9" width="6" height="8" fill="#b2b5ab" opacity="0.5"/>
<rect x="154.3" y="217.9" width="6" height="8" fill="#b2b5ab" opacity="0.5"/>
<rect x="168.3" y="217.9" width="6" height="8" fill="#b2b5ab" opacity="0.5"/>
<rect x="154.3" y="233.9" width="6" height="8" fill="#b2b5ab" opacity="0.5"/>
<rect x="182.3" y="233.9" width="6" height="8" fill="#b2b5ab" opacity="0.5"/>
<rect x="154.3" y="249.9" width="6" height="8" fill="#b2b5ab" opacity="0.5"/>
<rect x="168.3" y="249.9" width="6" height="8" fill="#b2b5ab" opacity="0.5"/>
<rect x="182.3" y="249.9" width="6" height="8" fill="#b2b5ab" opacity="0.5"/>
<rect x="154.3" y="265.9" width="6" height="8" fill="#b2b5ab" opacity="0.5"/>
<rect x="168.3" y="265.9" width="6" height="8" fill="#b2b5ab" opacity="0.5"/>
<rect x="182.3" y="265.9" width="6" height="8" fill="#b2b5ab" opacity="0.5"/>
<rect x="438.3" y="168.4" width="77.5" height="131.6" fill="#898d7d"/>
<rect x="467.0" y="180.4" width="6" height="8" fill="#b2b5ab" opacity="0.5"/>
<rect x="453.0" y="196.4" width="6" height="8" fill="#b2b5ab" opacity="0.5"/>
<rect x="467.0" y="196.4" width="6" height="8" fill="#b2b5ab" opacity="0.5"/>
<rect x="481.0" y="196.4" width="6" height="8" fill="#b2b5ab" opacity="0.5"/>
<rect x="495.0" y="196.4" width="6" height="8" fill="#b2b5ab" opacity="0.5"/>
<rect x="467.0" y="212.4" width="6" height="8" fill="#b2b5ab" opacity="0.5"/>
<rect x="495.0" y="212.4" width="6" height="8" fill="#b2b5ab" opacity="0.5"/>
<rect x="453.0" y="228.4" width="6" height="8" fill="#b2b5ab" opacity="0.5"/>
<rect x="467.0" y="228.4" width="6" height="8" fill="#b2b5ab" opacity="0.5"/>
<rect x="481.0" y="228.4" width="6" height="8" fill="#b2b5ab" opacity="0.5"/>
<rect x="453.0" y="244.4" width="6" height="8" fill="#b2b5ab" opacity="0.5"/>
<rect x="467.0" y="244.4" width="6" height="8" fill="#b2b5ab" opacity="0.5"/>
<rect x="495.0" y="244.4" width="6" height="8" fill="#b2b5ab" opacity="0.5"/>
<rect x="453.0" y="260.4" width="6" height="8" fill="#b2b5ab" opacity="0.5"/>
<rect x="481.0" y="260.4" width="6" height="8" fill="#b2b5ab" opacity="0.5"/>
<rect x="719.1" y="162.2" width="38.6" height="137.8" fill="#898d7d"/>
<rect x="735.4" y="206.2" width="6" height="8" fill="#b2b5ab" opacity="0.5"/>
<rect x="735.4" y="238.2" width="6" height="8" fill="#b2b5ab" opacity="0.5"/>
<rect x="735.4" y="254.2" width="6" height="8" fill="#b2b5ab" opacity="0.5"/>
<rect x="735.4" y="270.2" width="6" height="8" fill="#b2b5ab" opacity="0.5"/>
<rect x="988.4" y="215.2" width="75.5" height="84.8" fill="#898d7d"/>
<rect x="1002.1" y="227.2" width="6" height="8" fill="#b2b5ab" opacity="0.5"/>
<rect x="1016.1" y="227.2" width="6" height="8" fill="#b2b5ab" opacity="0.5"/>
<rect x="1002.1" y="243.2" width="6" height="8" fill="#b2b5ab" opacity="0.5"/>
<rect x="1016.1" y="243.2" width="6" height="8" fill="#b2b5ab" opacity="0.5"/>
<rect x="1044.1" y="243.2" width="6" height="8" fill="#b2b5ab" opacity="0.5"/>
<rect x="1002.1" y="259.2" width="6" height="8" fill="#b2b5ab" opacity="0.5"/>
<rect x="1044.1" y="259.2" width="6" height="8" fill="#b2b5ab" opacity="0.5"/>
<rect x="149.3" y="172.6" width="49.8" height="127.4" fill="#6b705c"/>
<rect x="164.1" y="184.6" width="6" height="8" fill="#9fa295" opacity="0.5"/>
<rect x="178.1" y="184.6" width="6" height="8" fill="#9fa295" opacity="0.5"/>
<rect x="164.1" y="200.6" width="6" height="8" fill="#9fa295" opacity="0.5"/>
<rect x="178.1" y="200.6" width="6" height="8" fill="#9fa295" opacity="0.5"/>
<rect x="164.1" y="232.6" width="6" height="8" fill="#9fa295" opacity="0.5"/>
<rect x="178.1" y="232.6" width="6" height="8" fill="#9fa295" opacity="0.5"/>
<rect x="164.1" y="248.6" width="6" height="8" fill="#9fa295" opacity="0.5"/>
<rect x="164.1" y="264.6" width="6" height="8" fill="#9fa295" opacity="0.5"/>
<rect x="178.1" y="264.6" width="6" height="8" fill="#9fa295" opacity="0.5"/>
<rect x="406.9" y="177.3" width="61.9" height="122.7" fill="#6b705c"/>
<rect x="420.9" y="189.3" width="6" height="8" fill="#9fa295" opacity="0.5"/>
<rect x="434.9" y="189.3" width="6" height="8" fill="#9fa295" opacity="0.5"/>
<rect x="448.9" y="189.3" width="6" height="8" fill="#9fa295" opacity="0.5"/>
<rect x="420.9" y="205.3" width="6" height="8" fill="#9fa295" opacity="0.5"/>
<rect x="434.9" y="205.3" width="6" height="8" fill="#9fa295" opacity="0.5"/>
<rect x="434.9" y="221.3" width="6" height="8" fill="#9fa295" opacity="0.5"/>
<rect x="448.9" y="221.3" width="6" height="8" fill="#9fa295" opacity="0.5"/>
<rect x="420.9" y="237.3" width="6" height="8" fill="#9fa295" opacity="0.5"/>
<rect x="434.9" y="237.3" width="6" height="8" fill="#9fa295" opacity="0.5"/>
<rect x="448.9" y="237.3" width="6" height="8" fill="#9fa295" opacity="0.5"/>
<rect x="420.9" y="253.3" width="6" height="8" fill="#9fa295" opacity="0.5"/>
<rect x="434.9" y="253.3" width="6" height="8" fill="#9fa295" opacity="0.5"/>
<rect x="420.9" y="269.3" width="6" height="8" fill="#9fa295" opacity="0.5"/>
<rect x="434.9" y="269.3" width="6" height="8" fill="#9fa295" opacity="0.5"/>
<rect x="448.9" y="269.3" width="6" height="8" fill="#9fa295" opacity="0.5"/>
<rect x="673.1" y="154.2" width="53.6" height="145.8" fill="#6b705c"/>
<rect x="689.9" y="166.2" width="6" height="8" fill="#9fa295" opacity="0.5"/>
<rect x="689.9" y="182.2" width="6" height="8" fill="#9fa295" opacity="0.5"/>
<rect x="703.9" y="182.2" width="6" height="8" fill="#9fa295" opacity="0.5"/>
<rect x="689.9" y="198.2" width="6" height="8" fill="#9fa295" opacity="0.5"/>
<rect x="703.9" y="198.2" width="6" height="8" fill="#9fa295" opacity="0.5"/>
<rect x="689.9" y="214.2" width="6" height="8" fill="#9fa295" opacity="0.5"/>
<rect x="689.9" y="230.2" width="6" height="8" fill="#9fa295" opacity="0.5"/>
<rect x="703.9" y="230.2" width="6" height="8" fill="#9fa295" opacity="0.5"/>
<rect x="703.9" y="246.2" width="6" height="8" fill="#9fa295" opacity="0.5"/>
<rect x="689.9" y="262.2" width="6" height="8" fill="#9fa295" opacity="0.5"/>
<rect x="703.9" y="262.2" width="6" height="8" fill="#9fa295" opacity="0.5"/>
<rect x="994.0" y="209.7" width="36.8" height="90.3" fill="#6b705c"/>
<rect x="1009.4" y="221.7" width="6" height="8" fill="#9fa295" opacity="0.5"/>
<rect x="1009.4" y="237.7" width="6" height="8" fill="#9fa295" opacity="0.5"/>
<rect x="1009.4" y="269.7" width="6" height="8" fill="#9fa295" opacity="0.5"/>
<rect x="0" y="298" width="1200" height="2" fill="#606553" opacity="0.15"/>
</svg>