<svg xmlns="http://www.w3.org/2000/svg" viewBox="0 0 1200 300" width="1200" height="300">
<defs><linearGradient id="skyGrad" x1="0" y1="0" x2="0" y2="1"><stop offset="0%" stop-color="#e8f0f8"/><stop offset="100%" stop-color="#f5e6d8"/></linearGradient></defs><rect width="1200" height="300" fill="url(#skyGrad)"/>
<rect x="98.2" y="177.5" width="89.3" height="122.5" fill="#8aabb4"/>
<rect x="396.4" y="199.6" width="44.6" height="100.4" fill="#8aabb4"/>
<rect x="698.2" y="214.2" width="75.6" height="85.8" fill="#8aabb4"/>
<rect x="1008.1" y="215.3" width="50.6" height="84.7" fill="#8aabb4"/>
<polygon points="1008.1,215.3 1033.4,202.7 1058.7,215.3" fill="#7f9da6"/>
<rect x="100.5" y="208.3" width="44.0" height="91.7" fill="#558592"/>
<rect x="108.2" y="192.1" width="28.6" height="16.2" fill="#517e8b"/>
<rect x="119.5" y="204.1" width="6" height="8" fill="#91b0b8" opacity="0.5"/>
<rect x="119.5" y="220.1" width="6" height="8" fill="#91b0b8" opacity="0.5"/>
<rect x="119.5" y="236.1" width="6" height="8" fill="#91b0b8" opacity="0.5"/>
<rect x="119.5" y="268.1" width="6" height="8" fill="#91b0b8" opacity="0.5"/>
<rect x="368.2" y="179.0" width="66.6" height="121.0" fill="#558592"/>
<rect x="379.9" y="157.7" width="43.3" height="21.4" fill="#517e8b"/>
<rect x="398.5" y="169.7" width="6" height="8" fill="#91b0b8" opacity="0.5"/>
<rect x="384.5" y="185.7" width="6" height="8" fill="#91b0b8" opacity="0.5"/>
<rect x="398.5" y="185.7" width="6" height="8" fill="#91b0b8" opacity="0.5"/>
<rect x="412.5" y="185.7" width="6" height="8" fill="#91b0b8" opacity="0.5"/>
<rect x="384.5" y="201.7" width="6" height="8" fill="#91b0b8" opacity="0.5"/>
<rect x="384.5" y="217.7" width="6" height="8" fill="#91b0b8" opacity="0.5"/>
<rect x="384.5" y="233.7" width="6" height="8" fill="#91b0b8" opacity="0.5"/>
<rect x="412.5" y="233.7" width="6" height="8" fill="#91b0b8" opacity="0.5"/>
<rect x="384.5" y="249.7" width="6" height="8" fill="#91b0b8" opacity="0.5"/>
<rect x="398.5" y="249.7" width="6" height="8" fill="#91b0b8" opacity="0.5"/>
<rect x="598.5" y="212.1" width="69.6" height="87.9" fill="#558592"/>
<polygon points="598.5,212.1 633.3,194.7 668.1,212.1" fill="#4e7a86"/>
<rect x="630.3" y="224.1" width="6" height="8" fill="#91b0b8" opacity="0.5"/>
<rect x="616.3" y="240.1" width="6" height="8" fill="#91b0b8" opacity="0.5"/>
<rect x="630.3" y="256.1" width="6" height="8" fill="#91b0b8" opacity="0.5"/>
<rect x="644.3" y="256.1" width="6" height="8" fill="#91b0b8" opacity="0.5"/>
<rect x="630.3" y="272.1" width="6" height="8" fill="#91b0b8" opacity="0.5"/>
<rect x="644.3" y="272.1" width="6" height="8" fill="#91b0b8" opacity="0.5"/>
<rect x="766.9" y="201.0" width="65.3" height="99.0" fill="#558592"/>
<rect x="778.4" y="183.5" width="42.4" height="17.5" fill="#517e8b"/>
<rect x="810.6" y="195.5" width="6" height="8" fill="#91b0b8" opacity="0.5"/>
<rect x="782.6" y="211.5" width="6" height="8" fill="#91b0b8" opacity="0.5"/>
<rect x="782.6" y="227.5" width="6" height="8" fill="#91b0b8" opacity="0.5"/>
<rect x="796.6" y="227.5" width="6" height="8" fill="#91b0b8" opacity="0.5"/>
<rect x="782.6" y="243.5" width="6" height="8" fill="#91b0b8" opacity="0.5"/>
<rect x="796.6" y="243.5" width="6" height="8" fill="#91b0b8" opacity="0.5"/>
<rect x="810.6" y="243.5" width="6" height="8" fill="#91b0b8" opacity="0.5"/>
<rect x="782.6" y="259.5" width="6" height="8" fill="#91b0b8" opacity="0.5"/>
<rect x="796.6" y="259.5" width="6" height="8" fill="#91b0b8" opacity="0.5"/>
<rect x="810.6" y="259.5" width="6" height="8" fill="#91b0b8" opacity="0.5"/>
<rect x="1047.2" y="228.2" width="74.8" height="71.8" fill="#558592"/>
<rect x="1060.3" y="215.5" width="48.6" height="12.7" fill="#517e8b"/>
<rect x="1067.6" y="227.5" width="6" height="8" fill="#91b0b8" opacity="0.5"/>
<rect x="1095.6" y="227.5" width="6" height="8" fill="#91b0b8" opacity="0.5"/>
<rect x="1081.6" y="243.5" width="6" height="8" fill="#91b0b8" opacity="0.5"/>
<rect x="1095.6" y="243.5" width="6" height="8" fill="#91b0b8" opacity="0.5"/>
<rect x="1067.6" y="259.5" width="6" height="8" fill="#91b0b8" opacity="0.5"/>
<rect x="1095.6" y="259.5" width="6" height="8" fill="#91b0b8" opacity="0.5"/>
<rect x="130.4" y="191.6" width="69.1" height="108.4" fill="#2b6777"/>
<polygon points="130.4,191.6 164.9,174.3 199.5,191.6" fill="#285f6d"/>
<rect x="147.9" y="203.6" width="6" height="8" fill="#759ca7" opacity="0.5"/>
<rect x="161.9" y="203.6" width="6" height="8" fill="#759ca7" opacity="0.5"/>
<rect x="175.9" y="203.6" width="6" height="8" fill="#759ca7" opacity="0.5"/>
<rect x="147.9" y="219.6" width="6" height="8" fill="#759ca7" opacity="0.5"/>
<rect x="161.9" y="219.6" width="6" height="8" fill="#759ca7" opacity="0.5"/>
<rect x="175.9" y="219.6" width="6" height="8" fill="#759ca7" opacity="0.5"/>
<rect x="147.9" y="235.6" width="6" height="8" fill="#759ca7" opacity="0.5"/>
<rect x="161.9" y="235.6" width="6" height="8" fill="#759ca7" opacity="0.5"/>
<rect x="161.9" y="251.6" width="6" height="8" fill="#759ca7" opacity="0.5"/>
<rect x="175.9" y="251.6" width="6" height="8" fill="#759ca7" opacity="0.5"/>
<rect x="147.9" y="267.6" width="6" height="8" fill="#759ca7" opacity="0.5"/>
<rect x="161.9" y="267.6" width="6" height="8" fill="#759ca7" opacity="0.5"/>
<rect x="175.9" y="267.6" width="6" height="8" fill="#759ca7" opacity="0.5"/>
<rect x="384.6" y="162.6" width="37.1" height="137.4" fill="#2b6777"/>
<rect x="400.2" y="174.6" width="6" height="8" fill="#759ca7" opacity="0.5"/>
<rect x="400.2" y="206.6" width="6" height="8" fill="#759ca7" opacity="0.5"/>
<rect x="400.2" y="222.6" width="6" height="8" fill="#759ca7" opacity="0.5"/>
<rect x="571.5" y="230.3" width="59.9" height="69.7" fill="#2b6777"/>
<polygon points="571.5,230.3 601.5,215.3 631.4,230.3" fill="#285f6d"/>
<rect x="584.5" y="242.3" width="6" height="8" fill="#759ca7" opacity="0.5"/>
<rect x="612.5" y="242.3" width="6" height="8" fill="#759ca7" opacity="0.5"/>
<rect x="584.5" y="258.3" width="6" height="8" fill="#759ca7" opacity="0.5"/>
<rect x="598.5" y="258.3" width="6" height="8" fill="#759ca7" opacity="0.5"/>
<rect x="816.5" y="129.5" width="39.0" height="170.5" fill="#2b6777"/>
<rect x="833.1" y="157.5" width="6" height="8" fill="#759ca7" opacity="0.5"/>
<rect x="833.1" y="189.5" width="6" height="8" fill="#759ca7" opacity="0.5"/>
<rect x="833.1" y="205.5" width="6" height="8" fill="#759ca7" opacity="0.5"/>
<rect x="1055.6" y="150.5" width="32.8" height="149.5" fill="#2b6777"/>
<rect x="1061.3" y="124.2" width="21.3" height="26.4" fill="#296271"/>
<rect x="1069.0" y="136.2" width="6" height="8" fill="#759ca7" opacity="0.5"/>
<rect x="1069.0" y="152.2" width="6" height="8" fill="#759ca7" opacity="0.5"/>
<rect x="1069.0" y="184.2" width="6" height="8" fill="#759ca7" opacity="0.5"/>
<rect x="1069.0" y="216.2" width="6" height="8" fill="#759ca7" opacity="0.5"/>
<path d="M292.1 285.0 Q310.0 256.5 304.6 228.0" fill="none" stroke="#826b4f" stroke-width="3"/>
<path d="M304.6 228.0 Q292.4 218.6 284.3 219.2" fill="none" stroke="#46843b" stroke-width="2.5"/>
<path d="M304.6 228.0 Q309.6 215.3 313.0 212.5" fill="none" stroke="#46843b" stroke-width="2.5"/>
<path d="M304.6 228.0 Q318.9 223.0 328.4 228.0" fill="none" stroke="#46843b" stroke-width="2.5"/>
<path d="M304.6 228.0 Q308.5 229.1 311.1 240.1" fill="none" stroke="#46843b" stroke-width="2.5"/>
<path d="M304.6 228.0 Q291.7 227.7 283.1 237.4" fill="none" stroke="#46843b" stroke-width="2.5"/>
<path d="M496.6 285.0 Q520.9 258.3 513.6 231.5" fill="none" stroke="#846d51" stroke-width="3"/>
<path d="M513.6 231.5 Q501.0 222.0 492.7 222.4" fill="none" stroke="#437f39" stroke-width="2.5"/>
<path d="M513.6 231.5 Q518.8 218.6 522.2 215.6" fill="none" stroke="#437f39" stroke-width="2.5"/>
<path d="M513.6 231.5 Q528.3 226.5 538.2 231.5" fill="none" stroke="#437f39" stroke-width="2.5"/>
<path d="M513.6 231.5 Q518.0 233.3 521.0 245.2" fill="none" stroke="#437f39" stroke-width="2.5"/>
<path d="M513.6 231.5 Q499.9 231.5 490.7 241.5" fill="none" stroke="#437f39" stroke-width="2.5"/>
<path d="M724.0 285.0 Q750.9 255.2 742.9 225.5" fill="none" stroke="#877053" stroke-width="3"/>
<path d="M742.9 225.5 Q733.4 217.0 727.1 218.6" fill="none" stroke="#46843b" stroke-width="2.5"/>
<path d="M742.9 225.5 Q747.2 213.9 750.0 212.2" fill="none" stroke="#46843b" stroke-width="2.5"/>
<path d="M742.9 225.5 Q760.8 220.5 772.8 225.5" fill="none" stroke="#46843b" stroke-width="2.5"/>
<path d="M742.9 225.5 Q747.5 227.6 750.6 239.7" fill="none" stroke="#46843b" stroke-width="2.5"/>
<path d="M742.9 225.5 Q728.4 225.7 718.8 236.0" fill="none" stroke="#46843b" stroke-width="2.5"/>
<path d="M955.6 285.0 Q972.5 256.4 967.4 227.7" fill="none" stroke="#836c50" stroke-width="3"/>
<path d="M967.4 227.7 Q955.4 218.4 947.5 219.0" fill="none" stroke="#437f39" stroke-width="2.5"/>
<path d="M967.4 227.7 Q971.8 216.0 974.7 214.3" fill="none" stroke="#437f39" stroke-width="2.5"/>
<path d="M967.4 227.7 Q982.5 222.7 992.5 227.7" fill="none" stroke="#437f39" stroke-width="2.5"/>
<path d="M967.4 227.7 Q972.2 230.2 975.5 242.6" fill="none" stroke="#437f39" stroke-width="2.5"/>
<path d="M967.4 227.7 Q957.4 226.4 950.7 235.0" fill="none" stroke="#437f39" stroke-width="2.5"/>
<path d="M447.6 285.0 Q470.5 264.6 463.7 244.3" fill="none" stroke="#826c50" stroke-width="3"/>
<path d="M463.7 244.3 Q454.7 236.0 448.7 237.8" fill="none" stroke="#46843c" stroke-width="2.5"/>
<path d="M463.7 244.3 Q469.0 231.1 472.6 227.8" fill="none" stroke="#46843c" stroke-width="2.5"/>
<path d="M463.7 244.3 Q476.3 239.3 484.7 244.3" fill="none" stroke="#46843c" stroke-width="2.5"/>
<path d="M463.7 244.3 Q467.4 245.1 469.9 255.8" fill="none" stroke="#46843c" stroke-width="2.5"/>
<path d="M463.7 244.3 Q452.5 243.3 445.1 252.4" fill="none" stroke="#46843c" stroke-width="2.5"/>
<path d="M816.6 285.0 Q839.2 263.3 832.4 241.6" fill="none" stroke="#846d51" stroke-width="3"/>
<path d="M832.4 241.6 Q822.1 232.8 815.1 234.1" fill="none" stroke="#437f39" stroke-width="2.5"/>
<path d="M832.4 241.6 Q836.2 230.8 838.7 230.0" fill="none" stroke="#437f39" stroke-width="2.5"/>
<path d="M832.4 241.6 Q847.4 236.6 857.4 241.6" fill="none" stroke="#437f39" stroke-width="2.5"/>
<path d="M832.4 241.6 Q836.8 243.3 839.7 255.1" fill="none" stroke="#437f39" stroke-width="2.5"/>
<path d="M832.4 241.6 Q818.2 241.8 808.7 252.0" fill="none" stroke="#437f39" stroke-width="2.5"/>
<rect x="0" y="285" width="1200" height="15" fill="#d4c5a9" opacity="0.4"/>
<circle cx="989.7" cy="37.1" r="39.8" fill="#f5e6a0" opacity="0.1"/>
</svg>