<svg xmlns="http://www.w3.org/2000/svg" viewBox="0 0 1200 300" width="1200" height="300">
<rect width="1200" height="300" fill="#e0eff2"/>
<path d="M0 300 L0 210.0 C216.8 160.4, 1005.1 198.1, 1200 210.0 L1200 300 Z" fill="#aac2c9" opacity="0.3"/>
<rect x="161.1" y="192.9" width="42.3" height="107.1" fill="#8aabb4"/>
<rect x="418.4" y="227.0" width="61.2" height="73.0" fill="#8aabb4"/>
<rect x="698.3" y="227.9" width="68.5" height="72.1" fill="#8aabb4"/>
<rect x="989.2" y="193.6" width="49.3" height="106.4" fill="#8aabb4"/>
<rect x="121.5" y="154.6" width="76.9" height="145.4" fill="#558592"/>
<rect x="136.0" y="166.6" width="6" height="8" fill="#91b0b8" opacity="0.5"/>
<rect x="150.0" y="166.6" width="6" height="8" fill="#91b0b8" opacity="0.5"/>
<rect x="164.0" y="166.6" width="6" height="8" fill="#91b0b8" opacity="0.5"/>
<rect x="178.0" y="166.6" width="6" height="8" fill="#91b0b8" opacity="0.5"/>
<rect x="150.0" y="182.6" width="6" height="8" fill="#91b0b8" opacity="0.5"/>
<rect x="164.0" y="182.6" width="6" height="8" fill="#91b0b8" opacity="0.5"/>
<rect x="136.0" y="198.6" width="6" height="8" fill="#91b0b8" opacity="0.5"/>
<rect x="164.0" y="198.6" width="6" height="8" fill="#91b0b8" opacity="0.5"/>
<rect x="178.0" y="198.6" width="6" height="8" fill="#91b0b8" opacity="0.5"/>
<rect x="136.0" y="214.6" width="6" height="8" fill="#91b0b8" opacity="0.5"/>
<rect x="150.0" y="214.6" width="6" height="8" fill="#91b0b8" opacity="0.5"/>
<rect x="164.0" y="214.6" width="6" height="8" fill="#91b0b8" opacity="0.5"/>
<rect x="136.0" y="230.6" width="6" height="8" fill="#91b0b8" opacity="0.5"/>
<rect x="178.0" y="230.6" width="6" height="8" fill="#91b0b8" opacity="0.5"/>
<rect x="136.0" y="246.6" width="6" height="8" fill="#91b0b8" opacity="0.5"/>
<rect x="150.0" y="246.6" width="6" height="8" fill="#91b0b8" opacity="0.5"/>
<rect x="164.0" y="246.6" width="6" height="8" fill="#91b0b8" opacity="0.5"/>
<rect x="178.0" y="246.6" width="6" height="8" fill="#91b0b8" opacity="0.5"/>
<rect x="150.0" y="262.6" width="6" height="8" fill="#91b0b8" opacity="0.5"/>
<rect x="178.0" y="262.6" width="6" height="8" fill="#91b0b8" opacity="0.5"/>
<rect x="305.8" y="162.9" width="79.4" height="137.1" fill="#558592"/>
<rect x="335.5" y="174.9" width="6" height="8" fill="#91b0b8" opacity="0.5"/>
<rect x="349.5" y="174.9" width="6" height="8" fill="#91b0b8" opacity="0.5"/>
<rect x="335.5" y="190.9" width="6" height="8" fill="#91b0b8" opacity="0.5"/>
<rect x="349.5" y="190.9" width="6" height="8" fill="#91b0b8" opacity="0.5"/>
<rect x="321.5" y="206.9" width="6" height="8" fill="#91b0b8" opacity="0.5"/>
<rect x="335.5" y="206.9" width="6" height="8" fill="#91b0b8" opacity="0.5"/>
<rect x="349.5" y="206.9" width="6" height="8" fill="#91b0b8" opacity="0.5"/>
<rect x="335.5" y="222.9" width="6" height="8" fill="#91b0b8" opacity="0.5"/>
<rect x="349.5" y="222.9" width="6" height="8" fill="#91b0b8" opacity="0.5"/>
<rect x="321.5" y="238.9" width="6" height="8" fill="#91b0b8" opacity="0.5"/>
<rect x="335.5" y="238.9" width="6" height="8" fill="#91b0b8" opacity="0.5"/>
<rect x="349.5" y="238.9" width="6" height="8" fill="#91b0b8" opacity="0.5"/>
<rect x="363.5" y="238.9" width="6" height="8" fill="#91b0b8" opacity="0.5"/>
<rect x="321.5" y="254.9" width="6" height="8" fill="#91b0b8" opacity="0.5"/>
<rect x="335.5" y="254.9" width="6" height="8" fill="#91b0b8" opacity="0.5"/>
<rect x="349.5" y="254.9" width="6" height="8" fill="#91b0b8" opacity="0.5"/>
<rect x="363.5" y="254.9" width="6" height="8" fill="#91b0b8" opacity="0.5"/>
<rect x="321.5" y="270.9" width="6" height="8" fill="#91b0b8" opacity="0.5"/>
<rect x="335.5" y="270.9" width="6" height="8" fill="#91b0b8" opacity="0.5"/>
<rect x="349.5" y="270.9" width="6" height="8" fill="#91b0b8" opacity="0.5"/>
<rect x="363.5" y="270.9" width="6" height="8" fill="#91b0b8" opacity="0.5"/>
<rect x="576.4" y="144.3" width="38.8" height="155.7" fill="#558592"/>
<rect x="592.8" y="172.3" width="6" height="8" fill="#91b0b8" opacity="0.5"/>
<rect x="592.8" y="188.3" width="6" height="8" fill="#91b0b8" opacity="0.5"/>
<rect x="592.8" y="204.3" width="6" height="8" fill="#91b0b8" opacity="0.5"/>
<rect x="592.8" y="220.3" width="6" height="8" fill="#91b0b8" opacity="0.5"/>
<rect x="592.8" y="236.3" width="6" height="8" fill="#91b0b8" opacity="0.5"/>
<rect x="592.8" y="268.3" width="6" height="8" fill="#91b0b8" opacity="0.5"/>
<rect x="760.7" y="145.8" width="76.3" height="154.2" fill="#558592"/>
<rect x="788.9" y="157.8" width="6" height="8" fill="#91b0b8" opacity="0.5"/>
<rect x="802.9" y="157.8" width="6" height="8" fill="#91b0b8" opacity="0.5"/>
<rect x="816.9" y="157.8" width="6" height="8" fill="#91b0b8" opacity="0.5"/>
<rect x="774.9" y="173.8" width="6" height="8" fill="#91b0b8" opacity="0.5"/>
<rect x="788.9" y="173.8" width="6" height="8" fill="#91b0b8" opacity="0.5"/>
<rect x="802.9" y="173.8" width="6" height="8" fill="#91b0b8" opacity="0.5"/>
<rect x="816.9" y="173.8" width="6" height="8" fill="#91b0b8" opacity="0.5"/>
<rect x="774.9" y="189.8" width="6" height="8" fill="#91b0b8" opacity="0.5"/>
<rect x="816.9" y="189.8" width="6" height="8" fill="#91b0b8" opacity="0.5"/>
<rect x="774.9" y="205.8" width="6" height="8" fill="#91b0b8" opacity="0.5"/>
<rect x="788.9" y="205.8" width="6" height="8" fill="#91b0b8" opacity="0.5"/>
<rect x="802.9" y="205.8" width="6" height="8" fill="#91b0b8" opacity="0.5"/>
<rect x="816.9" y="205.8" width="6" height="8" fill="#91b0b8" opacity="0.5"/>
<rect x="774.9" y="221.8" width="6" height="8" fill="#91b0b8" opacity="0.5"/>
<rect x="788.9" y="221.8" width="6" height="8" fill="#91b0b8" opacity="0.5"/>
<rect x="802.9" y="221.8" width="6" height="8" fill="#91b0b8" opacity="0.5"/>
<rect x="816.9" y="221.8" width="6" height="8" fill="#91b0b8" opacity="0.5"/>
<rect x="774.9" y="237.8" width="6" height="8" fill="#91b0b8" opacity="0.5"/>
<rect x="774.9" y="253.8" width="6" height="8" fill="#91b0b8" opacity="0.5"/>
<rect x="788.9" y="253.8" width="6" height="8" fill="#91b0b8" opacity="0.5"/>
<rect x="802.9" y="253.8" width="6" height="8" fill="#91b0b8" opacity="0.5"/>
<rect x="816.9" y="253.8" width="6" height="8" fill="#91b0b8" opacity="0.5"/>
<rect x="774.9" y="269.8" width="6" height="8" fill="#91b0b8" opacity="0.5"/>
<rect x="802.9" y="269.8" width="6" height="8" fill="#91b0b8" opacity="0.5"/>
<rect x="1014.1" y="208.2" width="71.3" height="91.8" fill="#558592"/>
<rect x="1032.7" y="220.2" width="6" height="8" fill="#91b0b8" opacity="0.5"/>
<rect x="1060.7" y="220.2" width="6" height="8" fill="#91b0b8" opacity="0.5"/>
<rect x="1032.7" y="236.2" width="6" height="8" fill="#91b0b8" opacity="0.5"/>
<rect x="1060.7" y="236.2" width="6" height="8" fill="#91b0b8" opacity="0.5"/>
<rect x="1032.7" y="252.2" width="6" height="8" fill="#91b0b8" opacity="0.5"/>
<rect x="1046.7" y="252.2" width="6" height="8" fill="#91b0b8" opacity="0.5"/>
<rect x="1060.7" y="252.2" width="6" height="8" fill="#91b0b8" opacity="0.5"/>
<rect x="1032.7" y="268.2" width="6" height="8" fill="#91b0b8" opacity="0.5"/>
<rect x="1060.7" y="268.2" width="6" height="8" fill="#91b0b8" opacity="0.5"/>
<rect x="114.8" y="154.1" width="73.0" height="145.9" fill="#2b6777"/>
<rect x="141.3" y="166.1" width="6" height="8" fill="#759ca7" opacity="0.5"/>
<rect x="155.3" y="166.1" width="6" height="8" fill="#759ca7" opacity="0.5"/>
<rect x="169.3" y="166.1" width="6" height="8" fill="#759ca7" opacity="0.5"/>
<rect x="141.3" y="182.1" width="6" height="8" fill="#759ca7" opacity="0.5"/>
<rect x="155.3" y="182.1" width="6" height="8" fill="#759ca7" opacity="0.5"/>
<rect x="169.3" y="182.1" width="6" height="8" fill="#759ca7" opacity="0.5"/>
<rect x="127.3" y="198.1" width="6" height="8" fill="#759ca7" opacity="0.5"/>
<rect x="141.3" y="198.1" width="6" height="8" fill="#759ca7" opacity="0.5"/>
<rect x="155.3" y="198.1" width="6" height="8" fill="#759ca7" opacity="0.5"/>
<rect x="169.3" y="198.1" width="6" height="8" fill="#759ca7" opacity="0.5"/>
<rect x="127.3" y="214.1" width="6" height="8" fill="#759ca7" opacity="0.5"/>
<rect x="141.3" y="214.1" width="6" height="8" fill="#759ca7" opacity="0.5"/>
<rect x="155.3" y="214.1" width="6" height="8" fill="#759ca7" opacity="0.5"/>
<rect x="169.3" y="214.1" width="6" height="8" fill="#759ca7" opacity="0.5"/>
<rect x="127.3" y="230.1" width="6" height="8" fill="#759ca7" opacity="0.5"/>
<rect x="141.3" y="230.1" width="6" height="8" fill="#759ca7" opacity="0.5"/>
<rect x="155.3" y="230.1" width="6" height="8" fill="#759ca7" opacity="0.5"/>
<rect x="169.3" y="230.1" width="6" height="8" fill="#759ca7" opacity="0.5"/>
<rect x="127.3" y="246.1" width="6" height="8" fill="#759ca7" opacity="0.5"/>
<rect x="141.3" y="246.1" width="6" height="8" fill="#759ca7" opacity="0.5"/>
<rect x="155.3" y="246.1" width="6" height="8" fill="#759ca7" opacity="0.5"/>
<rect x="127.3" y="262.1" width="6" height="8" fill="#759ca7" opacity="0.5"/>
<rect x="155.3" y="262.1" width="6" height="8" fill="#759ca7" opacity="0.5"/>
<rect x="169.3" y="262.1" width="6" height="8" fill="#759ca7" opacity="0.5"/>
<rect x="320.9" y="221.8" width="53.5" height="78.2" fill="#2b6777"/>
<rect x="337.6" y="233.8" width="6" height="8" fill="#759ca7" opacity="0.5"/>
<rect x="351.6" y="233.8" width="6" height="8" fill="#759ca7" opacity="0.5"/>
<rect x="337.6" y="249.8" width="6" height="8" fill="#759ca7" opacity="0.5"/>
<rect x="337.6" y="265.8" width="6" height="8" fill="#759ca7" opacity="0.5"/>
<rect x="351.6" y="265.8" width="6" height="8" fill="#759ca7" opacity="0.5"/>
<rect x="593.9" y="242.2" width="57.8" height="57.8" fill="#2b6777"/>
<rect x="821.7" y="170.0" width="63.0" height="130.0" fill="#2b6777"/>
<rect x="836.2" y="182.0" width="6" height="8" fill="#759ca7" opacity="0.5"/>
<rect x="850.2" y="182.0" width="6" height="8" fill="#759ca7" opacity="0.5"/>
<rect x="864.2" y="182.0" width="6" height="8" fill="#759ca7" opacity="0.5"/>
<rect x="836.2" y="198.0" width="6" height="8" fill="#759ca7" opacity="0.5"/>
<rect x="836.2" y="214.0" width="6" height="8" fill="#759ca7" opacity="0.5"/>
<rect x="850.2" y="214.0" width="6" height="8" fill="#759ca7" opacity="0.5"/>
<rect x="864.2" y="214.0" width="6" height="8" fill="#759ca7" opacity="0.5"/>
<rect x="850.2" y="230.0" width="6" height="8" fill="#759ca7" opacity="0.5"/>
<rect x="864.2" y="230.0" width="6" height="8" fill="#759ca7" opacity="0.5"/>
<rect x="850.2" y="246.0" width="6" height="8" fill="#759ca7" opacity="0.5"/>
<rect x="836.2" y="262.0" width="6" height="8" fill="#759ca7" opacity="0.5"/>
<rect x="850.2" y="262.0" width="6" height="8" fill="#759ca7" opacity="0.5"/>
<rect x="864.2" y="262.0" width="6" height="8" fill="#759ca7" opacity="0.5"/>
<rect x="1050.2" y="245.9" width="71.1" height="54.1" fill="#2b6777"/>
<rect x="0" y="298" width="1200" height="2" fill="#275d6b" opacity="0.15"/>
</svg>