<svg xmlns="http://www.w3.org/2000/svg" viewBox="0 0 1200 300" width="1200" height="300">
<rect width="1200" height="300" fill="#e0eff2"/>
<path d="M0 300 L0 210.0 C408.5 178.4, 889.9 184.3, 1200 210.0 L1200 300 Z" fill="#aac2c9" opacity="0.3"/>
<rect x="157.6" y="216.4" width="81.1" height="83.6" fill="#8aabb4"/>
<rect x="422.2" y="233.0" width="71.5" height="67.0" fill="#8aabb4"/>
<rect x="698.1" y="173.8" width="60.7" height="126.2" fill="#8aabb4"/>
<rect x="971.4" y="216.9" width="48.4" height="83.1" fill="#8aabb4"/>
<rect x="149.7" y="189.4" width="51.7" height="110.6" fill="#558592"/>
<rect x="179.5" y="201.4" width="6" height="8" fill="#91b0b8" opacity="0.5"/>
<rect x="165.5" y="217.4" width="6" height="8" fill="#91b0b8" opacity="0.5"/>
<rect x="179.5" y="233.4" width="6" height="8" fill="#91b0b8" opacity="0.5"/>
<rect x="165.5" y="249.4" width="6" height="8" fill="#91b0b8" opacity="0.5"/>
<rect x="179.5" y="249.4" width="6" height="8" fill="#91b0b8" opacity="0.5"/>
<rect x="165.5" y="265.4" width="6" height="8" fill="#91b0b8" opacity="0.5"/>
<rect x="179.5" y="265.4" width="6" height="8" fill="#91b0b8" opacity="0.5"/>
<rect x="329.1" y="167.2" width="50.7" height="132.8" fill="#558592"/>
<rect x="344.4" y="179.2" width="6" height="8" fill="#91b0b8" opacity="0.5"/>
<rect x="358.4" y="179.2" width="6" height="8" fill="#91b0b8" opacity="0.5"/>
<rect x="344.4" y="195.2" width="6" height="8" fill="#91b0b8" opacity="0.5"/>
<rect x="344.4" y="243.2" width="6" height="8" fill="#91b0b8" opacity="0.5"/>
<rect x="358.4" y="243.2" width="6" height="8" fill="#91b0b8" opacity="0.5"/>
<rect x="344.4" y="259.2" width="6" height="8" fill="#91b0b8" opacity="0.5"/>
<rect x="594.2" y="213.0" width="35.9" height="87.0" fill="#558592"/>
<rect x="609.2" y="225.0" width="6" height="8" fill="#91b0b8" opacity="0.5"/>
<rect x="609.2" y="241.0" width="6" height="8" fill="#91b0b8" opacity="0.5"/>
<rect x="609.2" y="273.0" width="6" height="8" fill="#91b0b8" opacity="0.5"/>
<rect x="804.4" y="190.9" width="65.5" height="109.1" fill="#558592"/>
<rect x="820.2" y="218.9" width="6" height="8" fill="#91b0b8" opacity="0.5"/>
<rect x="834.2" y="218.9" width="6" height="8" fill="#91b0b8" opacity="0.5"/>
<rect x="848.2" y="218.9" width="6" height="8" fill="#91b0b8" opacity="0.5"/>
<rect x="820.2" y="234.9" width="6" height="8" fill="#91b0b8" opacity="0.5"/>
<rect x="834.2" y="234.9" width="6" height="8" fill="#91b0b8" opacity="0.5"/>
<rect x="848.2" y="234.9" width="6" height="8" fill="#91b0b8" opacity="0.5"/>
<rect x="848.2" y="250.9" width="6" height="8" fill="#91b0b8" opacity="0.5"/>
<rect x="820.2" y="266.9" width="6" height="8" fill="#91b0b8" opacity="0.5"/>
<rect x="834.2" y="266.9" width="6" height="8" fill="#91b0b8" opacity="0.5"/>
<rect x="848.2" y="266.9" width="6" height="8" fill="#91b0b8" opacity="0.5"/>
<rect x="1013.0" y="193.0" width="35.1" height="107.0" fill="#558592"/>
<rect x="1027.6" y="205.0" width="6" height="8" fill="#91b0b8" opacity="0.5"/>
<rect x="1027.6" y="221.0" width="6" height="8" fill="#91b0b8" opacity="0.5"/>
<rect x="1027.6" y="237.0" width="6" height="8" fill="#91b0b8" opacity="0.5"/>
<rect x="1027.6" y="253.0" width="6" height="8" fill="#91b0b8" opacity="0.5"/>
<rect x="1027.6" y="269.0" width="6" height="8" fill="#91b0b8" opacity="0.5"/>
<rect x="151.8" y="159.3" width="41.1" height="140.7" fill="#2b6777"/>
<rect x="169.3" y="171.3" width="6" height="8" fill="#759ca7" opacity="0.5"/>
<rect x="169.3" y="187.3" width="6" height="8" fill="#759ca7" opacity="0.5"/>
<rect x="169.3" y="203.3" width="6" height="8" fill="#759ca7" opacity="0.5"/>
<rect x="169.3" y="219.3" width="6" height="8" fill="#759ca7" opacity="0.5"/>
<rect x="169.3" y="235.3" width="6" height="8" fill="#759ca7" opacity="0.5"/>
<rect x="326.8" y="149.6" width="52.4" height="150.4" fill="#2b6777"/>
<rect x="343.0" y="177.6" width="6" height="8" fill="#759ca7" opacity="0.5"/>
<rect x="357.0" y="177.6" width="6" height="8" fill="#759ca7" opacity="0.5"/>
<rect x="343.0" y="193.6" width="6" height="8" fill="#759ca7" opacity="0.5"/>
<rect x="357.0" y="193.6" width="6" height="8" fill="#759ca7" opacity="0.5"/>
<rect x="343.0" y="209.6" width="6" height="8" fill="#759ca7" opacity="0.5"/>
<rect x="357.0" y="209.6" width="6" height="8" fill="#759ca7" opacity="0.5"/>
<rect x="357.0" y="225.6" width="6" height="8" fill="#759ca7" opacity="0.5"/>
<rect x="343.0" y="241.6" width="6" height="8" fill="#759ca7" opacity="0.5"/>
<rect x="343.0" y="257.6" width="6" height="8" fill="#759ca7" opacity="0.5"/>
<rect x="357.0" y="273.6" width="6" height="8" fill="#759ca7" opacity="0.5"/>
<rect x="573.6" y="219.4" width="51.5" height="80.6" fill="#2b6777"/>
<rect x="603.4" y="247.4" width="6" height="8" fill="#759ca7" opacity="0.5"/>
<rect x="589.4" y="263.4" width="6" height="8" fill="#759ca7" opacity="0.5"/>
<rect x="603.4" y="263.4" width="6" height="8" fill="#759ca7" opacity="0.5"/>
<rect x="828.5" y="106.7" width="33.0" height="193.3" fill="#2b6777"/>
<rect x="842.0" y="118.7" width="6" height="8" fill="#759ca7" opacity="0.5"/>
<rect x="842.0" y="134.7" width="6" height="8" fill="#759ca7" opacity="0.5"/>
<rect x="842.0" y="150.7" width="6" height="8" fill="#759ca7" opacity="0.5"/>
<rect x="842.0" y="166.7" width="6" height="8" fill="#759ca7" opacity="0.5"/>
<rect x="842.0" y="198.7" width="6" height="8" fill="#759ca7" opacity="0.5"/>
<rect x="842.0" y="214.7" width="6" height="8" fill="#759ca7" opacity="0.5"/>
<rect x="842.0" y="230.7" width="6" height="8" fill="#759ca7" opacity="0.5"/>
<rect x="842.0" y="246.7" width="6" height="8" fill="#759ca7" opacity="0.5"/>
<rect x="1024.6" y="204.2" width="63.5" height="95.8" fill="#2b6777"/>
<rect x="1053.3" y="216.2" width="6" height="8" fill="#759ca7" opacity="0.5"/>
<rect x="1067.3" y="216.2" width="6" height="8" fill="#759ca7" opacity="0.5"/>
<rect x="1039.3" y="232.2" width="6" height="8" fill="#759ca7" opacity="0.5"/>
<rect x="1053.3" y="232.2" width="6" height="8" fill="#759ca7" opacity="0.5"/>
<rect x="1067.3" y="232.2" width="6" height="8" fill="#759ca7" opacity="0.5"/>
<rect x="1039.3" y="248.2" width="6" height="8" fill="#759ca7" opacity="0.5"/>
<rect x="1053.3" y="248.2" width="6" height="8" fill="#759ca7" opacity="0.5"/>
<rect x="1067.3" y="248.2" width="6" height="8" fill="#759ca7" opacity="0.5"/>
<rect x="1039.3" y="264.2" width="6" height="8" fill="#759ca7" opacity="0.5"/>
<rect x="1067.3" y="264.2" width="6" height="8" fill="#759ca7" opacity="0.5"/>
<rect x="0" y="298" width="1200" height="2" fill="#275d6b" opacity="0.15"/>
</svg>