<svg xmlns="http://www.w3.org/2000/svg" viewBox="0 0 1200 400" width="1200" height="400">
<defs>
<linearGradient id="bg" x1="0" y1="0" x2="0" y2="1"><stop offset="0%" stop-color="#94a3b8"/><stop offset="100%" stop-color="#0369a1"/></linearGradient>
<linearGradient id="warm" x1="0" y1="0" x2="1" y2="1"><stop offset="0%" stop-color="#858d98" stop-opacity="0.18"/><stop offset="100%" stop-color="#858d98" stop-opacity="0.06"/></linearGradient>
</defs>
<rect width="1200" height="400" fill="url(#bg)"/>
<path d="M0 400 L0 247.38995039791814 C60.0 245.4, 90.0 251.9, 150.0 257.6 C210.0 259.0, 240.0 224.6, 300.0 226.9 C360.0 220.9, 390.0 249.6, 450.0 255.9 C510.0 252.7, 540.0 228.7, 600.0 224.7 C660.0 233.3, 690.0 227.7, 750.0 223.0 C810.0 228.4, 840.0 253.7, 900.0 243.9 C960.0 236.2, 990.0 251.0, 1050.0 247.6 C1110.0 239.2, 1140.0 235.7, 1200.0 236.9 L1200 400 Z" fill="#367da9" opacity="0.45"/>
<path d="M0 400 L0 277.4243977545271 C52.5 279.9, 97.5 280.5, 150.0 280.2 C202.5 274.8, 247.5 254.6, 300.0 259.1 C352.5 260.8, 397.5 283.9, 450.0 278.9 C502.5 272.3, 547.5 280.9, 600.0 277.4 C652.5 282.9, 697.5 268.3, 750.0 267.4 C802.5 273.6, 847.5 267.7, 900.0 261.2 C952.5 254.2, 997.5 279.9, 1050.0 281.1 C1102.5 284.1, 1147.5 273.5, 1200.0 272.4 L1200 400 Z" fill="#0369a1" opacity="0.3"/>
<rect x="807.9" y="365.1" width="25.3" height="34.9" rx="4.5" fill="#05926e" opacity="0.63"/>
<rect x="508.1" y="305.8" width="20.1" height="94.2" rx="5.6" fill="#04857e" opacity="0.62"/>
<rect x="275.0" y="345.7" width="29.1" height="54.3" rx="7.9" fill="#058d74" opacity="0.82"/>
<rect x="296.4" y="278.6" width="48.0" height="121.4" rx="4.3" fill="#05956a" opacity="0.66"/>
<rect x="209.0" y="336.9" width="28.2" height="63.1" rx="4.2" fill="#04847f" opacity="0.69"/>
<rect x="658.5" y="320.6" width="16.1" height="79.4" rx="4.6" fill="#059669" opacity="0.52"/>
<rect x="261.3" y="326.8" width="36.0" height="73.2" rx="4.7" fill="#048183" opacity="0.85"/>
<rect x="527.9" y="311.1" width="23.2" height="88.9" rx="7.8" fill="#058c75" opacity="0.85"/>
<rect x="532.9" y="343.1" width="4" height="5" rx="0.5" fill="#94a3b8" opacity="0.6"/>
<rect x="572.8" y="343.9" width="29.9" height="56.1" rx="7.6" fill="#048380" opacity="0.58"/>
<rect x="1066.6" y="353.3" width="38.6" height="46.7" rx="6.4" fill="#047b8b" opacity="0.78"/>
<rect x="811.4" y="266.5" width="43.4" height="133.5" rx="7.3" fill="#059071" opacity="0.58"/>
<rect x="816.4" y="276.5" width="4" height="5" rx="0.5" fill="#94a3b8" opacity="0.6"/>
<rect x="830.9" y="276.5" width="4" height="5" rx="0.5" fill="#94a3b8" opacity="0.6"/>
<rect x="816.4" y="298.5" width="4" height="5" rx="0.5" fill="#94a3b8" opacity="0.6"/>
<rect x="830.9" y="298.5" width="4" height="5" rx="0.5" fill="#94a3b8" opacity="0.6"/>
<rect x="816.4" y="320.5" width="4" height="5" rx="0.5" fill="#94a3b8" opacity="0.6"/>
<rect x="830.9" y="320.5" width="4" height="5" rx="0.5" fill="#94a3b8" opacity="0.6"/>
<rect x="830.9" y="342.5" width="4" height="5" rx="0.5" fill="#94a3b8" opacity="0.6"/>
<rect x="208.5" y="360.0" width="27.5" height="40.0" rx="3.4" fill="#04857e" opacity="0.62"/>
<rect x="798.3" y="281.5" width="25.5" height="118.5" rx="3.7" fill="#047b8a" opacity="0.54"/>
<circle cx="229.8" cy="192.2" r="6.8" fill="#059669" opacity="0.16"/>
<circle cx="875.2" cy="150.5" r="5.6" fill="#059669" opacity="0.37"/>
<rect width="1200" height="400" fill="url(#warm)"/>
<rect width="1200" height="400" fill="#94a3b8" opacity="0.40"/>
</svg>