<svg xmlns="http://www.w3.org/2000/svg" viewBox="0 0 1200 300" width="1200" height="300">
<defs><linearGradient id="skyGrad" x1="0" y1="0" x2="0" y2="1"><stop offset="0%" stop-color="#e6ecf2"/><stop offset="100%" stop-color="#f0eeec"/></linearGradient></defs><rect width="1200" height="300" fill="url(#skyGrad)"/>
<path d="M0 300 L0 213.7 C475.2 200.9, 862.4 208.2, 1200 213.7 L1200 300 Z" fill="#b1bdcc" opacity="0.2"/>
<path d="M0 197.2 C364.7 139.8, 852.8 171.9, 1200 192.2" fill="none" stroke="#86a9c7" stroke-width="41.2" stroke-linecap="round" opacity="0.5"/>
<rect x="117.2" y="165.7" width="89.7" height="134.3" fill="#94a4b9"/>
<rect x="361.7" y="207.4" width="60.0" height="92.6" fill="#94a4b9"/>
<rect x="578.2" y="213.0" width="40.5" height="87.0" fill="#94a4b9"/>
<rect x="781.1" y="190.7" width="89.7" height="109.3" fill="#94a4b9"/>
<rect x="796.8" y="171.4" width="58.3" height="19.3" fill="#8d9cb0"/>
<rect x="1009.3" y="209.3" width="60.4" height="90.7" fill="#94a4b9"/>
<rect x="1019.8" y="193.3" width="39.2" height="16.0" fill="#8d9cb0"/>
<rect x="128.8" y="164.6" width="70.6" height="135.4" fill="#647b99"/>
<rect x="147.1" y="176.6" width="6" height="8" fill="#9aa9bd" opacity="0.5"/>
<rect x="161.1" y="176.6" width="6" height="8" fill="#9aa9bd" opacity="0.5"/>
<rect x="175.1" y="176.6" width="6" height="8" fill="#9aa9bd" opacity="0.5"/>
<rect x="147.1" y="192.6" width="6" height="8" fill="#9aa9bd" opacity="0.5"/>
<rect x="161.1" y="192.6" width="6" height="8" fill="#9aa9bd" opacity="0.5"/>
<rect x="147.1" y="208.6" width="6" height="8" fill="#9aa9bd" opacity="0.5"/>
<rect x="161.1" y="224.6" width="6" height="8" fill="#9aa9bd" opacity="0.5"/>
<rect x="161.1" y="240.6" width="6" height="8" fill="#9aa9bd" opacity="0.5"/>
<rect x="147.1" y="256.6" width="6" height="8" fill="#9aa9bd" opacity="0.5"/>
<rect x="161.1" y="256.6" width="6" height="8" fill="#9aa9bd" opacity="0.5"/>
<rect x="358.6" y="176.4" width="76.6" height="123.6" fill="#647b99"/>
<rect x="372.0" y="154.6" width="49.8" height="21.8" fill="#5f7591"/>
<rect x="379.9" y="166.6" width="6" height="8" fill="#9aa9bd" opacity="0.5"/>
<rect x="393.9" y="166.6" width="6" height="8" fill="#9aa9bd" opacity="0.5"/>
<rect x="407.9" y="166.6" width="6" height="8" fill="#9aa9bd" opacity="0.5"/>
<rect x="379.9" y="182.6" width="6" height="8" fill="#9aa9bd" opacity="0.5"/>
<rect x="407.9" y="182.6" width="6" height="8" fill="#9aa9bd" opacity="0.5"/>
<rect x="393.9" y="198.6" width="6" height="8" fill="#9aa9bd" opacity="0.5"/>
<rect x="379.9" y="214.6" width="6" height="8" fill="#9aa9bd" opacity="0.5"/>
<rect x="393.9" y="214.6" width="6" height="8" fill="#9aa9bd" opacity="0.5"/>
<rect x="407.9" y="214.6" width="6" height="8" fill="#9aa9bd" opacity="0.5"/>
<rect x="379.9" y="230.6" width="6" height="8" fill="#9aa9bd" opacity="0.5"/>
<rect x="379.9" y="246.6" width="6" height="8" fill="#9aa9bd" opacity="0.5"/>
<rect x="393.9" y="246.6" width="6" height="8" fill="#9aa9bd" opacity="0.5"/>
<rect x="407.9" y="246.6" width="6" height="8" fill="#9aa9bd" opacity="0.5"/>
<rect x="604.6" y="143.8" width="58.5" height="156.2" fill="#647b99"/>
<rect x="644.9" y="155.8" width="6" height="8" fill="#9aa9bd" opacity="0.5"/>
<rect x="616.9" y="171.8" width="6" height="8" fill="#9aa9bd" opacity="0.5"/>
<rect x="630.9" y="171.8" width="6" height="8" fill="#9aa9bd" opacity="0.5"/>
<rect x="644.9" y="171.8" width="6" height="8" fill="#9aa9bd" opacity="0.5"/>
<rect x="616.9" y="187.8" width="6" height="8" fill="#9aa9bd" opacity="0.5"/>
<rect x="630.9" y="187.8" width="6" height="8" fill="#9aa9bd" opacity="0.5"/>
<rect x="644.9" y="203.8" width="6" height="8" fill="#9aa9bd" opacity="0.5"/>
<rect x="616.9" y="219.8" width="6" height="8" fill="#9aa9bd" opacity="0.5"/>
<rect x="630.9" y="219.8" width="6" height="8" fill="#9aa9bd" opacity="0.5"/>
<rect x="644.9" y="219.8" width="6" height="8" fill="#9aa9bd" opacity="0.5"/>
<rect x="766.9" y="166.1" width="62.3" height="133.9" fill="#647b99"/>
<polygon points="766.9,166.1 798.1,150.6 829.2,166.1" fill="#5c718d"/>
<rect x="781.1" y="178.1" width="6" height="8" fill="#9aa9bd" opacity="0.5"/>
<rect x="795.1" y="178.1" width="6" height="8" fill="#9aa9bd" opacity="0.5"/>
<rect x="781.1" y="194.1" width="6" height="8" fill="#9aa9bd" opacity="0.5"/>
<rect x="795.1" y="194.1" width="6" height="8" fill="#9aa9bd" opacity="0.5"/>
<rect x="809.1" y="194.1" width="6" height="8" fill="#9aa9bd" opacity="0.5"/>
<rect x="781.1" y="210.1" width="6" height="8" fill="#9aa9bd" opacity="0.5"/>
<rect x="795.1" y="210.1" width="6" height="8" fill="#9aa9bd" opacity="0.5"/>
<rect x="809.1" y="210.1" width="6" height="8" fill="#9aa9bd" opacity="0.5"/>
<rect x="781.1" y="226.1" width="6" height="8" fill="#9aa9bd" opacity="0.5"/>
<rect x="795.1" y="226.1" width="6" height="8" fill="#9aa9bd" opacity="0.5"/>
<rect x="809.1" y="226.1" width="6" height="8" fill="#9aa9bd" opacity="0.5"/>
<rect x="781.1" y="242.1" width="6" height="8" fill="#9aa9bd" opacity="0.5"/>
<rect x="795.1" y="242.1" width="6" height="8" fill="#9aa9bd" opacity="0.5"/>
<rect x="809.1" y="242.1" width="6" height="8" fill="#9aa9bd" opacity="0.5"/>
<rect x="795.1" y="258.1" width="6" height="8" fill="#9aa9bd" opacity="0.5"/>
<rect x="809.1" y="258.1" width="6" height="8" fill="#9aa9bd" opacity="0.5"/>
<rect x="1007.4" y="106.7" width="72.1" height="193.3" fill="#647b99"/>
<rect x="1026.4" y="118.7" width="6" height="8" fill="#9aa9bd" opacity="0.5"/>
<rect x="1026.4" y="134.7" width="6" height="8" fill="#9aa9bd" opacity="0.5"/>
<rect x="1040.4" y="134.7" width="6" height="8" fill="#9aa9bd" opacity="0.5"/>
<rect x="1054.4" y="134.7" width="6" height="8" fill="#9aa9bd" opacity="0.5"/>
<rect x="1026.4" y="150.7" width="6" height="8" fill="#9aa9bd" opacity="0.5"/>
<rect x="1040.4" y="150.7" width="6" height="8" fill="#9aa9bd" opacity="0.5"/>
<rect x="1054.4" y="150.7" width="6" height="8" fill="#9aa9bd" opacity="0.5"/>
<rect x="1026.4" y="166.7" width="6" height="8" fill="#9aa9bd" opacity="0.5"/>
<rect x="1040.4" y="166.7" width="6" height="8" fill="#9aa9bd" opacity="0.5"/>
<rect x="1054.4" y="182.7" width="6" height="8" fill="#9aa9bd" opacity="0.5"/>
<rect x="1040.4" y="198.7" width="6" height="8" fill="#9aa9bd" opacity="0.5"/>
<rect x="1054.4" y="198.7" width="6" height="8" fill="#9aa9bd" opacity="0.5"/>
<rect x="150.8" y="208.2" width="36.3" height="91.8" fill="#3d5a80"/>
<rect x="165.9" y="220.2" width="6" height="8" fill="#8194ac" opacity="0.5"/>
<rect x="322.2" y="74.7" width="52.6" height="225.3" fill="#3d5a80"/>
<rect x="338.5" y="86.7" width="6" height="8" fill="#8194ac" opacity="0.5"/>
<rect x="338.5" y="118.7" width="6" height="8" fill="#8194ac" opacity="0.5"/>
<rect x="352.5" y="118.7" width="6" height="8" fill="#8194ac" opacity="0.5"/>
<rect x="352.5" y="134.7" width="6" height="8" fill="#8194ac" opacity="0.5"/>
<rect x="338.5" y="150.7" width="6" height="8" fill="#8194ac" opacity="0.5"/>
<rect x="352.5" y="166.7" width="6" height="8" fill="#8194ac" opacity="0.5"/>
<rect x="542.9" y="106.4" width="63.5" height="193.6" fill="#3d5a80"/>
<rect x="557.6" y="118.4" width="6" height="8" fill="#8194ac" opacity="0.5"/>
<rect x="585.6" y="118.4" width="6" height="8" fill="#8194ac" opacity="0.5"/>
<rect x="557.6" y="134.4" width="6" height="8" fill="#8194ac" opacity="0.5"/>
<rect x="571.6" y="134.4" width="6" height="8" fill="#8194ac" opacity="0.5"/>
<rect x="585.6" y="134.4" width="6" height="8" fill="#8194ac" opacity="0.5"/>
<rect x="557.6" y="150.4" width="6" height="8" fill="#8194ac" opacity="0.5"/>
<rect x="571.6" y="150.4" width="6" height="8" fill="#8194ac" opacity="0.5"/>
<rect x="585.6" y="150.4" width="6" height="8" fill="#8194ac" opacity="0.5"/>
<rect x="571.6" y="166.4" width="6" height="8" fill="#8194ac" opacity="0.5"/>
<rect x="585.6" y="182.4" width="6" height="8" fill="#8194ac" opacity="0.5"/>
<rect x="557.6" y="198.4" width="6" height="8" fill="#8194ac" opacity="0.5"/>
<rect x="571.6" y="198.4" width="6" height="8" fill="#8194ac" opacity="0.5"/>
<rect x="585.6" y="198.4" width="6" height="8" fill="#8194ac" opacity="0.5"/>
<line x1="574.6" y1="106.4" x2="574.6" y2="87.4" stroke="#3d5a80" stroke-width="2"/>
<rect x="770.9" y="123.6" width="71.1" height="176.4" fill="#3d5a80"/>
<polygon points="770.9,123.6 806.4,105.8 842.0,123.6" fill="#385376"/>
<rect x="789.4" y="135.6" width="6" height="8" fill="#8194ac" opacity="0.5"/>
<rect x="803.4" y="135.6" width="6" height="8" fill="#8194ac" opacity="0.5"/>
<rect x="803.4" y="151.6" width="6" height="8" fill="#8194ac" opacity="0.5"/>
<rect x="817.4" y="151.6" width="6" height="8" fill="#8194ac" opacity="0.5"/>
<rect x="789.4" y="167.6" width="6" height="8" fill="#8194ac" opacity="0.5"/>
<rect x="803.4" y="167.6" width="6" height="8" fill="#8194ac" opacity="0.5"/>
<rect x="789.4" y="183.6" width="6" height="8" fill="#8194ac" opacity="0.5"/>
<rect x="789.4" y="199.6" width="6" height="8" fill="#8194ac" opacity="0.5"/>
<rect x="789.4" y="215.6" width="6" height="8" fill="#8194ac" opacity="0.5"/>
<rect x="803.4" y="215.6" width="6" height="8" fill="#8194ac" opacity="0.5"/>
<rect x="817.4" y="215.6" width="6" height="8" fill="#8194ac" opacity="0.5"/>
<rect x="1040.8" y="236.0" width="31.0" height="64.0" fill="#3d5a80"/>
<rect x="1053.3" y="248.0" width="6" height="8" fill="#8194ac" opacity="0.5"/>
<rect x="492.7" y="225.5" width="8" height="59.5" fill="#3d5a80"/>
<rect x="664.6" y="225.5" width="8" height="59.5" fill="#3d5a80"/>
<line x1="496.7" y1="261.2" x2="668.6" y2="261.2" stroke="#3d5a80" stroke-width="3"/>
<path d="M496.7 230.5 Q582.6 256.2 668.6 230.5" fill="none" stroke="#5a7393" stroke-width="1.5"/>
<line x1="254.6" y1="285.0" x2="254.6" y2="272.8" stroke="#6b5a42" stroke-width="3"/>
<circle cx="254.6" cy="257.6" r="15.2" fill="#517f43"/>
<line x1="458.8" y1="285.0" x2="458.8" y2="271.0" stroke="#6b5a42" stroke-width="3"/>
<circle cx="458.8" cy="258.7" r="12.3" fill="#527f43"/>
<line x1="688.6" y1="285.0" x2="688.6" y2="270.0" stroke="#6b5a42" stroke-width="3"/>
<circle cx="688.6" cy="257.3" r="12.7" fill="#527f43"/>
<line x1="941.4" y1="285.0" x2="941.4" y2="271.0" stroke="#6b5a42" stroke-width="3"/>
<circle cx="941.4" cy="257.7" r="13.3" fill="#548245"/>
<line x1="192.5" y1="285.0" x2="192.5" y2="271.4" stroke="#6b5a42" stroke-width="3"/>
<circle cx="192.5" cy="256.2" r="15.2" fill="#4f7b41"/>
<rect x="0" y="285" width="1200" height="15" fill="#9aaa85" opacity="0.4"/>
</svg>