<svg xmlns="http://www.w3.org/2000/svg" viewBox="0 0 1200 300" width="1200" height="300">
<defs><linearGradient id="skyGrad" x1="0" y1="0" x2="0" y2="1"><stop offset="0%" stop-color="#e8f0f8"/><stop offset="100%" stop-color="#f5e6d8"/></linearGradient></defs><rect width="1200" height="300" fill="url(#skyGrad)"/>
<path d="M0 300 L0 206.5 C343.2 191.9, 957.8 196.8, 1200 206.5 L1200 300 Z" fill="#e4c4a8" opacity="0.25"/>
<rect x="87.5" y="213.9" width="64.3" height="86.1" fill="#daae87"/>
<rect x="357.3" y="149.5" width="53.0" height="150.5" fill="#daae87"/>
<polygon points="357.3,149.5 383.8,136.3 410.3,149.5" fill="#c9a07c"/>
<rect x="545.0" y="216.4" width="43.9" height="83.6" fill="#daae87"/>
<rect x="552.7" y="201.6" width="28.5" height="14.8" fill="#cfa580"/>
<rect x="805.2" y="220.8" width="85.1" height="79.2" fill="#daae87"/>
<rect x="1015.8" y="156.4" width="49.7" height="143.6" fill="#daae87"/>
<polygon points="1015.8,156.4 1040.6,144.0 1065.5,156.4" fill="#c9a07c"/>
<rect x="145.9" y="151.6" width="62.0" height="148.4" fill="#c98951"/>
<rect x="159.9" y="163.6" width="6" height="8" fill="#dcb28e" opacity="0.5"/>
<rect x="173.9" y="163.6" width="6" height="8" fill="#dcb28e" opacity="0.5"/>
<rect x="173.9" y="179.6" width="6" height="8" fill="#dcb28e" opacity="0.5"/>
<rect x="187.9" y="179.6" width="6" height="8" fill="#dcb28e" opacity="0.5"/>
<rect x="159.9" y="195.6" width="6" height="8" fill="#dcb28e" opacity="0.5"/>
<rect x="173.9" y="195.6" width="6" height="8" fill="#dcb28e" opacity="0.5"/>
<rect x="187.9" y="195.6" width="6" height="8" fill="#dcb28e" opacity="0.5"/>
<rect x="173.9" y="211.6" width="6" height="8" fill="#dcb28e" opacity="0.5"/>
<rect x="187.9" y="211.6" width="6" height="8" fill="#dcb28e" opacity="0.5"/>
<rect x="159.9" y="227.6" width="6" height="8" fill="#dcb28e" opacity="0.5"/>
<rect x="173.9" y="227.6" width="6" height="8" fill="#dcb28e" opacity="0.5"/>
<rect x="187.9" y="227.6" width="6" height="8" fill="#dcb28e" opacity="0.5"/>
<rect x="311.5" y="194.6" width="58.6" height="105.4" fill="#c98951"/>
<polygon points="311.5,194.6 340.8,179.9 370.1,194.6" fill="#b97e4b"/>
<rect x="337.8" y="206.6" width="6" height="8" fill="#dcb28e" opacity="0.5"/>
<rect x="351.8" y="206.6" width="6" height="8" fill="#dcb28e" opacity="0.5"/>
<rect x="337.8" y="222.6" width="6" height="8" fill="#dcb28e" opacity="0.5"/>
<rect x="351.8" y="222.6" width="6" height="8" fill="#dcb28e" opacity="0.5"/>
<rect x="337.8" y="238.6" width="6" height="8" fill="#dcb28e" opacity="0.5"/>
<rect x="351.8" y="238.6" width="6" height="8" fill="#dcb28e" opacity="0.5"/>
<rect x="323.8" y="254.6" width="6" height="8" fill="#dcb28e" opacity="0.5"/>
<rect x="337.8" y="254.6" width="6" height="8" fill="#dcb28e" opacity="0.5"/>
<rect x="323.8" y="270.6" width="6" height="8" fill="#dcb28e" opacity="0.5"/>
<rect x="598.2" y="97.7" width="35.6" height="202.3" fill="#c98951"/>
<rect x="613.0" y="125.7" width="6" height="8" fill="#dcb28e" opacity="0.5"/>
<rect x="613.0" y="141.7" width="6" height="8" fill="#dcb28e" opacity="0.5"/>
<rect x="613.0" y="157.7" width="6" height="8" fill="#dcb28e" opacity="0.5"/>
<rect x="613.0" y="189.7" width="6" height="8" fill="#dcb28e" opacity="0.5"/>
<rect x="795.1" y="180.6" width="63.1" height="119.4" fill="#c98951"/>
<rect x="809.6" y="192.6" width="6" height="8" fill="#dcb28e" opacity="0.5"/>
<rect x="823.6" y="208.6" width="6" height="8" fill="#dcb28e" opacity="0.5"/>
<rect x="809.6" y="224.6" width="6" height="8" fill="#dcb28e" opacity="0.5"/>
<rect x="837.6" y="224.6" width="6" height="8" fill="#dcb28e" opacity="0.5"/>
<rect x="809.6" y="240.6" width="6" height="8" fill="#dcb28e" opacity="0.5"/>
<rect x="823.6" y="240.6" width="6" height="8" fill="#dcb28e" opacity="0.5"/>
<rect x="837.6" y="240.6" width="6" height="8" fill="#dcb28e" opacity="0.5"/>
<rect x="837.6" y="256.6" width="6" height="8" fill="#dcb28e" opacity="0.5"/>
<rect x="823.6" y="272.6" width="6" height="8" fill="#dcb28e" opacity="0.5"/>
<rect x="837.6" y="272.6" width="6" height="8" fill="#dcb28e" opacity="0.5"/>
<rect x="1052.7" y="159.3" width="37.9" height="140.7" fill="#c98951"/>
<rect x="1059.3" y="134.5" width="24.6" height="24.8" fill="#bf824d"/>
<rect x="1068.6" y="146.5" width="6" height="8" fill="#dcb28e" opacity="0.5"/>
<rect x="1068.6" y="162.5" width="6" height="8" fill="#dcb28e" opacity="0.5"/>
<rect x="1068.6" y="178.5" width="6" height="8" fill="#dcb28e" opacity="0.5"/>
<rect x="1068.6" y="194.5" width="6" height="8" fill="#dcb28e" opacity="0.5"/>
<rect x="1068.6" y="210.5" width="6" height="8" fill="#dcb28e" opacity="0.5"/>
<rect x="1068.6" y="226.5" width="6" height="8" fill="#dcb28e" opacity="0.5"/>
<rect x="97.2" y="229.7" width="46.4" height="70.3" fill="#bc6c25"/>
<rect x="124.4" y="241.7" width="6" height="8" fill="#d39f71" opacity="0.5"/>
<rect x="124.4" y="257.7" width="6" height="8" fill="#d39f71" opacity="0.5"/>
<rect x="367.9" y="234.1" width="50.0" height="65.9" fill="#bc6c25"/>
<rect x="376.6" y="222.5" width="32.5" height="11.6" fill="#b36723"/>
<rect x="382.9" y="234.5" width="6" height="8" fill="#d39f71" opacity="0.5"/>
<rect x="382.9" y="250.5" width="6" height="8" fill="#d39f71" opacity="0.5"/>
<rect x="396.9" y="250.5" width="6" height="8" fill="#d39f71" opacity="0.5"/>
<rect x="396.9" y="266.5" width="6" height="8" fill="#d39f71" opacity="0.5"/>
<rect x="587.5" y="211.6" width="62.2" height="88.4" fill="#bc6c25"/>
<rect x="598.4" y="196.0" width="40.4" height="15.6" fill="#b36723"/>
<rect x="601.6" y="208.0" width="6" height="8" fill="#d39f71" opacity="0.5"/>
<rect x="615.6" y="208.0" width="6" height="8" fill="#d39f71" opacity="0.5"/>
<rect x="601.6" y="224.0" width="6" height="8" fill="#d39f71" opacity="0.5"/>
<rect x="615.6" y="224.0" width="6" height="8" fill="#d39f71" opacity="0.5"/>
<rect x="629.6" y="224.0" width="6" height="8" fill="#d39f71" opacity="0.5"/>
<rect x="601.6" y="240.0" width="6" height="8" fill="#d39f71" opacity="0.5"/>
<rect x="615.6" y="240.0" width="6" height="8" fill="#d39f71" opacity="0.5"/>
<rect x="629.6" y="240.0" width="6" height="8" fill="#d39f71" opacity="0.5"/>
<rect x="601.6" y="256.0" width="6" height="8" fill="#d39f71" opacity="0.5"/>
<rect x="629.6" y="256.0" width="6" height="8" fill="#d39f71" opacity="0.5"/>
<rect x="601.6" y="272.0" width="6" height="8" fill="#d39f71" opacity="0.5"/>
<rect x="615.6" y="272.0" width="6" height="8" fill="#d39f71" opacity="0.5"/>
<rect x="629.6" y="272.0" width="6" height="8" fill="#d39f71" opacity="0.5"/>
<rect x="786.0" y="224.0" width="70.4" height="76.0" fill="#bc6c25"/>
<rect x="804.2" y="236.0" width="6" height="8" fill="#d39f71" opacity="0.5"/>
<rect x="818.2" y="236.0" width="6" height="8" fill="#d39f71" opacity="0.5"/>
<rect x="832.2" y="236.0" width="6" height="8" fill="#d39f71" opacity="0.5"/>
<rect x="804.2" y="252.0" width="6" height="8" fill="#d39f71" opacity="0.5"/>
<rect x="818.2" y="252.0" width="6" height="8" fill="#d39f71" opacity="0.5"/>
<rect x="804.2" y="268.0" width="6" height="8" fill="#d39f71" opacity="0.5"/>
<rect x="1049.4" y="239.5" width="57.9" height="60.5" fill="#bc6c25"/>
<rect x="1059.6" y="228.8" width="37.6" height="10.7" fill="#b36723"/>
<rect x="1068.4" y="256.8" width="6" height="8" fill="#d39f71" opacity="0.5"/>
<rect x="1082.4" y="256.8" width="6" height="8" fill="#d39f71" opacity="0.5"/>
<rect x="1082.4" y="272.8" width="6" height="8" fill="#d39f71" opacity="0.5"/>
<path d="M255.8 285.0 Q281.6 261.1 273.9 237.1" fill="none" stroke="#816a4f" stroke-width="3"/>
<path d="M273.9 237.1 Q263.8 228.5 257.1 229.8" fill="none" stroke="#45833b" stroke-width="2.5"/>
<path d="M273.9 237.1 Q278.4 225.1 281.4 223.1" fill="none" stroke="#45833b" stroke-width="2.5"/>
<path d="M273.9 237.1 Q285.2 232.1 292.7 237.1" fill="none" stroke="#45833b" stroke-width="2.5"/>
<path d="M273.9 237.1 Q277.8 238.2 280.5 249.4" fill="none" stroke="#45833b" stroke-width="2.5"/>
<path d="M273.9 237.1 Q261.8 236.5 253.7 245.9" fill="none" stroke="#45833b" stroke-width="2.5"/>
<path d="M502.7 285.0 Q523.5 257.2 517.3 229.4" fill="none" stroke="#7b664b" stroke-width="3"/>
<path d="M517.3 229.4 Q505.3 220.1 497.3 220.7" fill="none" stroke="#48883d" stroke-width="2.5"/>
<path d="M517.3 229.4 Q521.3 218.3 523.9 217.1" fill="none" stroke="#48883d" stroke-width="2.5"/>
<path d="M517.3 229.4 Q531.6 224.4 541.1 229.4" fill="none" stroke="#48883d" stroke-width="2.5"/>
<path d="M517.3 229.4 Q521.0 230.2 523.5 241.0" fill="none" stroke="#48883d" stroke-width="2.5"/>
<path d="M517.3 229.4 Q508.0 227.8 501.9 236.1" fill="none" stroke="#48883d" stroke-width="2.5"/>
<path d="M717.8 285.0 Q740.9 261.0 733.9 237.0" fill="none" stroke="#7e684d" stroke-width="3"/>
<path d="M733.9 237.0 Q723.7 228.2 716.9 229.5" fill="none" stroke="#45823b" stroke-width="2.5"/>
<path d="M733.9 237.0 Q737.9 225.8 740.6 224.7" fill="none" stroke="#45823b" stroke-width="2.5"/>
<path d="M733.9 237.0 Q747.4 232.0 756.4 237.0" fill="none" stroke="#45823b" stroke-width="2.5"/>
<path d="M733.9 237.0 Q737.9 238.1 740.6 249.3" fill="none" stroke="#45823b" stroke-width="2.5"/>
<path d="M733.9 237.0 Q720.9 236.7 712.2 246.4" fill="none" stroke="#45823b" stroke-width="2.5"/>
<path d="M952.9 285.0 Q973.5 263.8 967.4 242.6" fill="none" stroke="#816b4f" stroke-width="3"/>
<path d="M967.4 242.6 Q955.4 233.2 947.5 233.9" fill="none" stroke="#46853c" stroke-width="2.5"/>
<path d="M967.4 242.6 Q971.2 231.7 973.8 230.8" fill="none" stroke="#46853c" stroke-width="2.5"/>
<path d="M967.4 242.6 Q979.6 237.6 987.7 242.6" fill="none" stroke="#46853c" stroke-width="2.5"/>
<path d="M967.4 242.6 Q971.9 244.5 974.9 256.5" fill="none" stroke="#46853c" stroke-width="2.5"/>
<path d="M967.4 242.6 Q952.9 242.8 943.3 253.1" fill="none" stroke="#46853c" stroke-width="2.5"/>
<path d="M490.4 285.0 Q520.1 257.3 511.2 229.5" fill="none" stroke="#856e51" stroke-width="3"/>
<path d="M511.2 229.5 Q497.9 219.7 489.1 219.9" fill="none" stroke="#46853c" stroke-width="2.5"/>
<path d="M511.2 229.5 Q516.7 216.1 520.3 212.7" fill="none" stroke="#46853c" stroke-width="2.5"/>
<path d="M511.2 229.5 Q522.8 224.5 530.6 229.5" fill="none" stroke="#46853c" stroke-width="2.5"/>
<path d="M511.2 229.5 Q516.4 232.5 519.9 245.5" fill="none" stroke="#46853c" stroke-width="2.5"/>
<path d="M511.2 229.5 Q502.4 227.7 496.5 235.9" fill="none" stroke="#46853c" stroke-width="2.5"/>
<rect x="0" y="285" width="1200" height="15" fill="#9aaa85" opacity="0.4"/>
<circle cx="1044.7" cy="47.1" r="37.3" fill="#f5e6a0" opacity="0.1"/>
</svg>