<svg xmlns="http://www.w3.org/2000/svg" viewBox="0 0 1200 300" width="1200" height="300">
<defs><linearGradient id="skyGrad" x1="0" y1="0" x2="0" y2="1"><stop offset="0%" stop-color="#ddf0f0"/><stop offset="100%" stop-color="#f0e8d8"/></linearGradient></defs><rect width="1200" height="300" fill="url(#skyGrad)"/>
<rect x="172.6" y="218.1" width="83.3" height="81.9" fill="#aeb0a5"/>
<rect x="534.0" y="200.1" width="67.3" height="99.9" fill="#aeb0a5"/>
<polygon points="534.0,200.1 567.7,183.2 601.4,200.1" fill="#a0a298"/>
<rect x="950.3" y="238.8" width="59.0" height="61.2" fill="#aeb0a5"/>
<rect x="960.6" y="228.0" width="38.3" height="10.8" fill="#a5a79d"/>
<rect x="108.5" y="173.8" width="50.6" height="126.2" fill="#898d7d"/>
<rect x="117.3" y="151.5" width="32.9" height="22.3" fill="#828677"/>
<rect x="123.7" y="179.5" width="6" height="8" fill="#b2b5ab" opacity="0.5"/>
<rect x="137.7" y="179.5" width="6" height="8" fill="#b2b5ab" opacity="0.5"/>
<rect x="123.7" y="195.5" width="6" height="8" fill="#b2b5ab" opacity="0.5"/>
<rect x="123.7" y="211.5" width="6" height="8" fill="#b2b5ab" opacity="0.5"/>
<rect x="137.7" y="211.5" width="6" height="8" fill="#b2b5ab" opacity="0.5"/>
<rect x="137.7" y="227.5" width="6" height="8" fill="#b2b5ab" opacity="0.5"/>
<rect x="123.7" y="243.5" width="6" height="8" fill="#b2b5ab" opacity="0.5"/>
<rect x="409.0" y="149.7" width="40.9" height="150.3" fill="#898d7d"/>
<rect x="426.4" y="161.7" width="6" height="8" fill="#b2b5ab" opacity="0.5"/>
<rect x="426.4" y="209.7" width="6" height="8" fill="#b2b5ab" opacity="0.5"/>
<rect x="426.4" y="225.7" width="6" height="8" fill="#b2b5ab" opacity="0.5"/>
<rect x="426.4" y="241.7" width="6" height="8" fill="#b2b5ab" opacity="0.5"/>
<rect x="717.3" y="198.8" width="66.4" height="101.2" fill="#898d7d"/>
<rect x="728.9" y="181.0" width="43.2" height="17.9" fill="#828677"/>
<rect x="733.5" y="193.0" width="6" height="8" fill="#b2b5ab" opacity="0.5"/>
<rect x="747.5" y="193.0" width="6" height="8" fill="#b2b5ab" opacity="0.5"/>
<rect x="761.5" y="193.0" width="6" height="8" fill="#b2b5ab" opacity="0.5"/>
<rect x="733.5" y="209.0" width="6" height="8" fill="#b2b5ab" opacity="0.5"/>
<rect x="747.5" y="209.0" width="6" height="8" fill="#b2b5ab" opacity="0.5"/>
<rect x="761.5" y="209.0" width="6" height="8" fill="#b2b5ab" opacity="0.5"/>
<rect x="733.5" y="225.0" width="6" height="8" fill="#b2b5ab" opacity="0.5"/>
<rect x="747.5" y="225.0" width="6" height="8" fill="#b2b5ab" opacity="0.5"/>
<rect x="761.5" y="225.0" width="6" height="8" fill="#b2b5ab" opacity="0.5"/>
<rect x="733.5" y="241.0" width="6" height="8" fill="#b2b5ab" opacity="0.5"/>
<rect x="747.5" y="241.0" width="6" height="8" fill="#b2b5ab" opacity="0.5"/>
<rect x="733.5" y="257.0" width="6" height="8" fill="#b2b5ab" opacity="0.5"/>
<rect x="989.8" y="192.3" width="73.6" height="107.7" fill="#898d7d"/>
<polygon points="989.8,192.3 1026.6,173.9 1063.4,192.3" fill="#7e8273"/>
<rect x="1009.6" y="204.3" width="6" height="8" fill="#b2b5ab" opacity="0.5"/>
<rect x="1037.6" y="204.3" width="6" height="8" fill="#b2b5ab" opacity="0.5"/>
<rect x="1023.6" y="220.3" width="6" height="8" fill="#b2b5ab" opacity="0.5"/>
<rect x="1009.6" y="236.3" width="6" height="8" fill="#b2b5ab" opacity="0.5"/>
<rect x="1023.6" y="236.3" width="6" height="8" fill="#b2b5ab" opacity="0.5"/>
<rect x="1037.6" y="236.3" width="6" height="8" fill="#b2b5ab" opacity="0.5"/>
<rect x="1009.6" y="252.3" width="6" height="8" fill="#b2b5ab" opacity="0.5"/>
<rect x="1023.6" y="252.3" width="6" height="8" fill="#b2b5ab" opacity="0.5"/>
<rect x="1037.6" y="252.3" width="6" height="8" fill="#b2b5ab" opacity="0.5"/>
<rect x="1009.6" y="268.3" width="6" height="8" fill="#b2b5ab" opacity="0.5"/>
<rect x="1023.6" y="268.3" width="6" height="8" fill="#b2b5ab" opacity="0.5"/>
<rect x="1037.6" y="268.3" width="6" height="8" fill="#b2b5ab" opacity="0.5"/>
<rect x="128.2" y="219.6" width="72.1" height="80.4" fill="#6b705c"/>
<rect x="161.2" y="231.6" width="6" height="8" fill="#9fa295" opacity="0.5"/>
<rect x="175.2" y="231.6" width="6" height="8" fill="#9fa295" opacity="0.5"/>
<rect x="161.2" y="247.6" width="6" height="8" fill="#9fa295" opacity="0.5"/>
<rect x="175.2" y="247.6" width="6" height="8" fill="#9fa295" opacity="0.5"/>
<rect x="161.2" y="263.6" width="6" height="8" fill="#9fa295" opacity="0.5"/>
<rect x="175.2" y="263.6" width="6" height="8" fill="#9fa295" opacity="0.5"/>
<rect x="461.0" y="218.5" width="32.1" height="81.5" fill="#6b705c"/>
<rect x="474.0" y="262.5" width="6" height="8" fill="#9fa295" opacity="0.5"/>
<rect x="734.4" y="243.0" width="67.2" height="57.0" fill="#6b705c"/>
<rect x="1043.9" y="152.3" width="35.3" height="147.7" fill="#6b705c"/>
<polygon points="1043.9,152.3 1061.6,143.5 1079.2,152.3" fill="#626755"/>
<rect x="1058.6" y="164.3" width="6" height="8" fill="#9fa295" opacity="0.5"/>
<rect x="1058.6" y="228.3" width="6" height="8" fill="#9fa295" opacity="0.5"/>
<path d="M330.6 285.0 Q357.6 259.2 349.5 233.4" fill="none" stroke="#846d50" stroke-width="3"/>
<path d="M349.5 233.4 Q340.6 225.2 334.7 227.0" fill="none" stroke="#44813a" stroke-width="2.5"/>
<path d="M349.5 233.4 Q353.0 223.0 355.4 222.5" fill="none" stroke="#44813a" stroke-width="2.5"/>
<path d="M349.5 233.4 Q363.5 228.4 372.8 233.4" fill="none" stroke="#44813a" stroke-width="2.5"/>
<path d="M349.5 233.4 Q353.8 235.2 356.7 246.9" fill="none" stroke="#44813a" stroke-width="2.5"/>
<path d="M349.5 233.4 Q335.7 233.5 326.5 243.5" fill="none" stroke="#44813a" stroke-width="2.5"/>
<path d="M613.7 285.0 Q632.5 257.7 626.9 230.4" fill="none" stroke="#8a7254" stroke-width="3"/>
<path d="M626.9 230.4 Q614.9 221.0 607.0 221.7" fill="none" stroke="#45823b" stroke-width="2.5"/>
<path d="M626.9 230.4 Q631.2 218.8 634.0 217.2" fill="none" stroke="#45823b" stroke-width="2.5"/>
<path d="M626.9 230.4 Q643.9 225.4 655.3 230.4" fill="none" stroke="#45823b" stroke-width="2.5"/>
<path d="M626.9 230.4 Q630.4 230.7 632.7 241.1" fill="none" stroke="#45823b" stroke-width="2.5"/>
<path d="M626.9 230.4 Q612.6 230.5 603.2 240.7" fill="none" stroke="#45823b" stroke-width="2.5"/>
<path d="M922.8 285.0 Q948.9 264.3 941.1 243.6" fill="none" stroke="#78634a" stroke-width="3"/>
<path d="M941.1 243.6 Q928.4 234.0 920.0 234.4" fill="none" stroke="#45833b" stroke-width="2.5"/>
<path d="M941.1 243.6 Q945.5 231.9 948.4 230.1" fill="none" stroke="#45833b" stroke-width="2.5"/>
<path d="M941.1 243.6 Q953.5 238.6 961.8 243.6" fill="none" stroke="#45833b" stroke-width="2.5"/>
<path d="M941.1 243.6 Q946.5 247.0 950.2 260.5" fill="none" stroke="#45833b" stroke-width="2.5"/>
<path d="M941.1 243.6 Q928.1 243.4 919.4 253.1" fill="none" stroke="#45833b" stroke-width="2.5"/>
<path d="M568.7 285.0 Q597.8 263.1 589.1 241.1" fill="none" stroke="#7c674c" stroke-width="3"/>
<path d="M589.1 241.1 Q579.7 232.7 573.4 234.3" fill="none" stroke="#44813a" stroke-width="2.5"/>
<path d="M589.1 241.1 Q593.6 229.2 596.6 227.3" fill="none" stroke="#44813a" stroke-width="2.5"/>
<path d="M589.1 241.1 Q603.8 236.1 613.5 241.1" fill="none" stroke="#44813a" stroke-width="2.5"/>
<path d="M589.1 241.1 Q592.5 241.4 594.8 251.6" fill="none" stroke="#44813a" stroke-width="2.5"/>
<path d="M589.1 241.1 Q578.8 239.9 571.9 248.6" fill="none" stroke="#44813a" stroke-width="2.5"/>
<path d="M1123.2 285.0 Q1144.2 262.4 1137.9 239.8" fill="none" stroke="#7f694d" stroke-width="3"/>
<path d="M1137.9 239.8 Q1128.9 231.6 1122.9 233.3" fill="none" stroke="#48873d" stroke-width="2.5"/>
<path d="M1137.9 239.8 Q1143.1 226.7 1146.6 223.7" fill="none" stroke="#48873d" stroke-width="2.5"/>
<path d="M1137.9 239.8 Q1151.0 234.8 1159.7 239.8" fill="none" stroke="#48873d" stroke-width="2.5"/>
<path d="M1137.9 239.8 Q1141.8 240.8 1144.3 251.8" fill="none" stroke="#48873d" stroke-width="2.5"/>
<path d="M1137.9 239.8 Q1127.7 238.5 1121.0 247.2" fill="none" stroke="#48873d" stroke-width="2.5"/>
<path d="M887.1 285.0 Q907.5 258.8 901.4 232.6" fill="none" stroke="#7c674c" stroke-width="3"/>
<path d="M901.4 232.6 Q890.3 223.6 883.0 224.6" fill="none" stroke="#45833b" stroke-width="2.5"/>
<path d="M901.4 232.6 Q905.4 221.3 908.1 220.1" fill="none" stroke="#45833b" stroke-width="2.5"/>
<path d="M901.4 232.6 Q915.2 227.6 924.5 232.6" fill="none" stroke="#45833b" stroke-width="2.5"/>
<path d="M901.4 232.6 Q905.2 233.5 907.8 244.4" fill="none" stroke="#45833b" stroke-width="2.5"/>
<path d="M901.4 232.6 Q891.6 231.1 885.1 239.7" fill="none" stroke="#45833b" stroke-width="2.5"/>
<path d="M216.0 285.0 Q243.3 263.2 235.1 241.3" fill="none" stroke="#887053" stroke-width="3"/>
<path d="M235.1 241.3 Q226.0 233.0 220.0 234.8" fill="none" stroke="#48883d" stroke-width="2.5"/>
<path d="M235.1 241.3 Q239.3 229.8 242.2 228.2" fill="none" stroke="#48883d" stroke-width="2.5"/>
<path d="M235.1 241.3 Q250.1 236.3 260.1 241.3" fill="none" stroke="#48883d" stroke-width="2.5"/>
<path d="M235.1 241.3 Q238.5 241.7 240.9 252.0" fill="none" stroke="#48883d" stroke-width="2.5"/>
<path d="M235.1 241.3 Q223.4 240.5 215.7 249.8" fill="none" stroke="#48883d" stroke-width="2.5"/>
<path d="M575.3 285.0 Q594.0 258.4 588.4 231.7" fill="none" stroke="#806a4e" stroke-width="3"/>
<path d="M588.4 231.7 Q574.2 221.6 564.7 221.4" fill="none" stroke="#437f39" stroke-width="2.5"/>
<path d="M588.4 231.7 Q593.9 218.3 597.6 214.8" fill="none" stroke="#437f39" stroke-width="2.5"/>
<path d="M588.4 231.7 Q601.7 226.7 610.5 231.7" fill="none" stroke="#437f39" stroke-width="2.5"/>
<path d="M588.4 231.7 Q593.3 234.2 596.5 246.7" fill="none" stroke="#437f39" stroke-width="2.5"/>
<path d="M588.4 231.7 Q573.9 232.0 564.3 242.3" fill="none" stroke="#437f39" stroke-width="2.5"/>
<rect x="0" y="285" width="1200" height="15" fill="#d4c5a9" opacity="0.4"/>
<circle cx="1103.0" cy="39.5" r="39.7" fill="#f5e6a0" opacity="0.1"/>
</svg>