<svg xmlns="http://www.w3.org/2000/svg" viewBox="0 0 1200 300" width="1200" height="300">
<defs>
<linearGradient id="skyGrad" x1="0" y1="0" x2="0" y2="1">
<stop offset="0%" stop-color="#a78bfa"/>
<stop offset="18%" stop-color="#ddb4f0"/>
<stop offset="35%" stop-color="#fda4af"/>
<stop offset="52%" stop-color="#fdba74"/>
<stop offset="72%" stop-color="#fef08a"/>
<stop offset="100%" stop-color="#fef9c3"/>
</linearGradient>
<linearGradient id="bldg_coral" x1="0" y1="0" x2="0" y2="1"><stop offset="0%" stop-color="#fecaca"/><stop offset="100%" stop-color="#fca5a5"/></linearGradient>
<linearGradient id="bldg_teal" x1="0" y1="0" x2="0" y2="1"><stop offset="0%" stop-color="#99f6e4"/><stop offset="100%" stop-color="#5eead4"/></linearGradient>
<linearGradient id="bldg_amber" x1="0" y1="0" x2="0" y2="1"><stop offset="0%" stop-color="#fde68a"/><stop offset="100%" stop-color="#fcd34d"/></linearGradient>
<linearGradient id="bldg_lavender" x1="0" y1="0" x2="0" y2="1"><stop offset="0%" stop-color="#ddd6fe"/><stop offset="100%" stop-color="#c4b5fd"/></linearGradient>
<linearGradient id="bldg_blue" x1="0" y1="0" x2="0" y2="1"><stop offset="0%" stop-color="#bfdbfe"/><stop offset="100%" stop-color="#93c5fd"/></linearGradient>
<linearGradient id="bldg_mint" x1="0" y1="0" x2="0" y2="1"><stop offset="0%" stop-color="#a7f3d0"/><stop offset="100%" stop-color="#6ee7b7"/></linearGradient>
<linearGradient id="bldg_rose" x1="0" y1="0" x2="0" y2="1"><stop offset="0%" stop-color="#fecdd3"/><stop offset="100%" stop-color="#fda4af"/></linearGradient>
<linearGradient id="bldg_sky" x1="0" y1="0" x2="0" y2="1"><stop offset="0%" stop-color="#bae6fd"/><stop offset="100%" stop-color="#7dd3fc"/></linearGradient>
<linearGradient id="roof_navyRoof" x1="0" y1="0" x2="0" y2="1"><stop offset="0%" stop-color="#4338ca"/><stop offset="100%" stop-color="#3730a3"/></linearGradient>
<linearGradient id="roof_coralRoof" x1="0" y1="0" x2="0" y2="1"><stop offset="0%" stop-color="#f87171"/><stop offset="100%" stop-color="#ef4444"/></linearGradient>
<linearGradient id="roof_tealRoof" x1="0" y1="0" x2="0" y2="1"><stop offset="0%" stop-color="#2dd4bf"/><stop offset="100%" stop-color="#14b8a6"/></linearGradient>
<radialGradient id="windowGlow" cx="50%" cy="50%" r="50%"><stop offset="0%" stop-color="#fef08a"/><stop offset="60%" stop-color="#fbbf24"/><stop offset="100%" stop-color="#f59e0b"/></radialGradient>
<linearGradient id="hillFar" x1="0" y1="0" x2="0" y2="1"><stop offset="0%" stop-color="#c4b5fd"/><stop offset="100%" stop-color="#a5b4fc"/></linearGradient>
<linearGradient id="hillMid" x1="0" y1="0" x2="0" y2="1"><stop offset="0%" stop-color="#86efac"/><stop offset="100%" stop-color="#4ade80"/></linearGradient>
<linearGradient id="hillNear" x1="0" y1="0" x2="0" y2="1"><stop offset="0%" stop-color="#34d399"/><stop offset="100%" stop-color="#10b981"/></linearGradient>
<linearGradient id="hillDesertFar" x1="0" y1="0" x2="0" y2="1"><stop offset="0%" stop-color="#fde68a"/><stop offset="100%" stop-color="#fcd34d"/></linearGradient>
<linearGradient id="hillDesertMid" x1="0" y1="0" x2="0" y2="1"><stop offset="0%" stop-color="#fcd34d"/><stop offset="100%" stop-color="#fbbf24"/></linearGradient>
<linearGradient id="hillDesertNear" x1="0" y1="0" x2="0" y2="1"><stop offset="0%" stop-color="#fbbf24"/><stop offset="100%" stop-color="#f59e0b"/></linearGradient>
<linearGradient id="groundGrad" x1="0" y1="0" x2="0" y2="1"><stop offset="0%" stop-color="#fef3c7"/><stop offset="100%" stop-color="#fde68a"/></linearGradient>
<linearGradient id="waterGrad" x1="0" y1="0" x2="0" y2="1"><stop offset="0%" stop-color="#bfdbfe"/><stop offset="100%" stop-color="#93c5fd"/></linearGradient>
<filter id="softGlow" x="-50%" y="-50%" width="200%" height="200%"><feGaussianBlur in="SourceGraphic" stdDeviation="12"/></filter>
</defs>
<rect width="1200" height="300" fill="url(#skyGrad)"/>
<circle cx="1038.0" cy="49.8" r="45" fill="#fef08a" opacity="0.12" filter="url(#softGlow)"/>
<circle cx="1038.0" cy="49.8" r="30" fill="#fde68a" opacity="0.18" filter="url(#softGlow)"/>
<circle cx="1038.0" cy="49.8" r="16" fill="#fef9c3" opacity="0.25" filter="url(#softGlow)"/>
<path d="M0 300 L0.0 183.2 C142.2 183.2, 142.2 191.9, 284.3 191.9 C441.1 191.9, 441.1 192.0, 597.8 192.0 C724.0 192.0, 724.0 190.2, 850.2 190.2 C1025.1 190.2, 1025.1 188.9, 1200.0 188.9 L1200 300 Z" fill="url(#hillFar)" opacity="0.5"/>
<path d="M0 300 L0.0 216.1 C113.8 216.1, 113.8 211.4, 227.5 211.4 C443.9 211.4, 443.9 205.5, 660.3 205.5 C749.1 205.5, 749.1 213.0, 837.9 213.0 C1018.9 213.0, 1018.9 216.8, 1200.0 216.8 L1200 300 Z" fill="url(#hillMid)" opacity="0.7"/>
<path d="M0 300 L0.0 231.4 C148.8 231.4, 148.8 234.0, 297.6 234.0 C390.3 234.0, 390.3 237.5, 483.0 237.5 C576.7 237.5, 576.7 237.8, 670.5 237.8 C829.3 237.8, 829.3 229.9, 988.1 229.9 C1094.0 229.9, 1094.0 233.9, 1200.0 233.9 L1200 300 Z" fill="url(#hillNear)" opacity="1"/>
<rect x="100.2" y="183.4" width="54.8" height="116.6" rx="3" fill="url(#bldg_mint)" opacity="0.7"/>
<polygon points="100.2,183.4 127.6,166.0 154.9,183.4" fill="url(#roof_coralRoof)" opacity="0.7"/>
<rect x="117.6" y="193.4" width="6" height="8" rx="1" fill="url(#windowGlow)" opacity="0.7444684001358544"/>
<rect x="131.6" y="193.4" width="6" height="8" rx="1" fill="url(#windowGlow)" opacity="0.9818200188604276"/>
<rect x="117.6" y="208.4" width="6" height="8" rx="1" fill="url(#windowGlow)" opacity="0.9265671157867494"/>
<rect x="131.6" y="208.4" width="6" height="8" rx="1" fill="url(#windowGlow)" opacity="0.9857839935392998"/>
<rect x="131.6" y="223.4" width="6" height="8" rx="1" fill="url(#windowGlow)" opacity="0.9611461621062578"/>
<rect x="131.6" y="238.4" width="6" height="8" rx="1" fill="url(#windowGlow)" opacity="0.9601288830675785"/>
<rect x="117.6" y="253.4" width="6" height="8" rx="1" fill="url(#windowGlow)" opacity="0.7585668537572803"/>
<rect x="131.6" y="253.4" width="6" height="8" rx="1" fill="url(#windowGlow)" opacity="0.9975175138551358"/>
<rect x="331.5" y="222.0" width="74.0" height="78.0" rx="3" fill="url(#bldg_rose)" opacity="0.7"/>
<rect x="346.3" y="212.6" width="44.4" height="9.4" rx="2" fill="url(#roof_tealRoof)" opacity="0.7"/>
<rect x="372.4" y="232.0" width="6" height="8" rx="1" fill="url(#windowGlow)" opacity="0.8296873693958331"/>
<rect x="344.4" y="247.0" width="6" height="8" rx="1" fill="url(#windowGlow)" opacity="0.7568753189206474"/>
<rect x="358.4" y="247.0" width="6" height="8" rx="1" fill="url(#windowGlow)" opacity="0.9705200633828155"/>
<rect x="372.4" y="247.0" width="6" height="8" rx="1" fill="url(#windowGlow)" opacity="0.8066905436137181"/>
<rect x="573.1" y="178.2" width="47.6" height="121.8" rx="3" fill="url(#bldg_sky)" opacity="0.7"/>
<polygon points="573.1,178.2 596.9,164.5 620.7,178.2" fill="url(#roof_navyRoof)" opacity="0.7"/>
<rect x="600.9" y="188.2" width="6" height="8" rx="1" fill="url(#windowGlow)" opacity="0.8647082330960353"/>
<rect x="586.9" y="203.2" width="6" height="8" rx="1" fill="url(#windowGlow)" opacity="0.9155545422414105"/>
<rect x="600.9" y="203.2" width="6" height="8" rx="1" fill="url(#windowGlow)" opacity="0.9604332961889138"/>
<rect x="586.9" y="218.2" width="6" height="8" rx="1" fill="url(#windowGlow)" opacity="0.8883883922772428"/>
<rect x="600.9" y="218.2" width="6" height="8" rx="1" fill="url(#windowGlow)" opacity="0.9378348274798294"/>
<rect x="600.9" y="233.2" width="6" height="8" rx="1" fill="url(#windowGlow)" opacity="0.7846654259993999"/>
<rect x="586.9" y="248.2" width="6" height="8" rx="1" fill="url(#windowGlow)" opacity="0.7820667636031595"/>
<rect x="811.3" y="180.4" width="49.4" height="119.6" rx="3" fill="url(#bldg_coral)" opacity="0.7"/>
<rect x="821.2" y="166.1" width="29.6" height="14.3" rx="2" fill="url(#roof_coralRoof)" opacity="0.7"/>
<rect x="826.0" y="190.4" width="6" height="8" rx="1" fill="url(#windowGlow)" opacity="0.7867370868505617"/>
<rect x="840.0" y="190.4" width="6" height="8" rx="1" fill="url(#windowGlow)" opacity="0.9883380880990709"/>
<rect x="826.0" y="205.4" width="6" height="8" rx="1" fill="url(#windowGlow)" opacity="0.9358524927105067"/>
<rect x="840.0" y="205.4" width="6" height="8" rx="1" fill="url(#windowGlow)" opacity="0.9331015009587171"/>
<rect x="826.0" y="220.4" width="6" height="8" rx="1" fill="url(#windowGlow)" opacity="0.7883984527030952"/>
<rect x="840.0" y="220.4" width="6" height="8" rx="1" fill="url(#windowGlow)" opacity="0.8931052701515635"/>
<rect x="826.0" y="235.4" width="6" height="8" rx="1" fill="url(#windowGlow)" opacity="0.8589993242914785"/>
<rect x="840.0" y="235.4" width="6" height="8" rx="1" fill="url(#windowGlow)" opacity="0.8977270945896054"/>
<rect x="826.0" y="250.4" width="6" height="8" rx="1" fill="url(#windowGlow)" opacity="0.7410506742266242"/>
<rect x="840.0" y="250.4" width="6" height="8" rx="1" fill="url(#windowGlow)" opacity="0.8082103652452166"/>
<rect x="1042.2" y="205.5" width="56.0" height="94.5" rx="3" fill="url(#bldg_teal)" opacity="0.7"/>
<rect x="1042.2" y="202.5" width="56.0" height="3" rx="1" fill="url(#roof_tealRoof)" opacity="0.7"/>
<rect x="1060.2" y="215.5" width="6" height="8" rx="1" fill="url(#windowGlow)" opacity="0.8763058676739716"/>
<rect x="1074.2" y="215.5" width="6" height="8" rx="1" fill="url(#windowGlow)" opacity="0.9946750967738567"/>
<rect x="1060.2" y="230.5" width="6" height="8" rx="1" fill="url(#windowGlow)" opacity="0.9347217207470544"/>
<rect x="1074.2" y="230.5" width="6" height="8" rx="1" fill="url(#windowGlow)" opacity="0.73308222924037"/>
<rect x="1060.2" y="245.5" width="6" height="8" rx="1" fill="url(#windowGlow)" opacity="0.7470521296127942"/>
<rect x="1074.2" y="245.5" width="6" height="8" rx="1" fill="url(#windowGlow)" opacity="0.8114825377294246"/>
<rect x="1074.2" y="260.5" width="6" height="8" rx="1" fill="url(#windowGlow)" opacity="0.9255851125463773"/>
<rect x="136.9" y="137.5" width="43.6" height="162.5" rx="3" fill="url(#bldg_amber)" opacity="0.85"/>
<rect x="136.9" y="134.5" width="43.6" height="3" rx="1" fill="url(#roof_navyRoof)" opacity="0.85"/>
<rect x="155.7" y="147.5" width="6" height="8" rx="1" fill="url(#windowGlow)" opacity="0.9717910803723107"/>
<rect x="155.7" y="162.5" width="6" height="8" rx="1" fill="url(#windowGlow)" opacity="0.8201075842697674"/>
<rect x="155.7" y="177.5" width="6" height="8" rx="1" fill="url(#windowGlow)" opacity="0.9175876644987555"/>
<rect x="155.7" y="192.5" width="6" height="8" rx="1" fill="url(#windowGlow)" opacity="0.8980872776816073"/>
<rect x="155.7" y="207.5" width="6" height="8" rx="1" fill="url(#windowGlow)" opacity="0.8618825066191528"/>
<rect x="155.7" y="237.5" width="6" height="8" rx="1" fill="url(#windowGlow)" opacity="0.8722904684824359"/>
<rect x="155.7" y="252.5" width="6" height="8" rx="1" fill="url(#windowGlow)" opacity="0.8168997076884376"/>
<path d="M158.7 194.4 L176.1 194.4 L173.1 200.4 L161.7 200.4 Z" fill="url(#roof_tealRoof)" opacity="0.68"/>
<rect x="360.3" y="213.9" width="42.5" height="86.1" rx="3" fill="url(#bldg_lavender)" opacity="0.85"/>
<rect x="368.8" y="203.6" width="25.5" height="10.3" rx="2" fill="url(#roof_coralRoof)" opacity="0.85"/>
<rect x="378.5" y="223.9" width="6" height="8" rx="1" fill="url(#windowGlow)" opacity="0.8460670246025859"/>
<rect x="592.3" y="213.9" width="52.4" height="86.1" rx="3" fill="url(#bldg_blue)" opacity="0.85"/>
<rect x="602.8" y="203.5" width="31.4" height="10.3" rx="2" fill="url(#roof_tealRoof)" opacity="0.85"/>
<rect x="608.5" y="223.9" width="6" height="8" rx="1" fill="url(#windowGlow)" opacity="0.9085497270843711"/>
<rect x="622.5" y="223.9" width="6" height="8" rx="1" fill="url(#windowGlow)" opacity="0.7873966270999035"/>
<rect x="608.5" y="238.9" width="6" height="8" rx="1" fill="url(#windowGlow)" opacity="0.7885901869221544"/>
<rect x="622.5" y="238.9" width="6" height="8" rx="1" fill="url(#windowGlow)" opacity="0.7362277954519856"/>
<rect x="608.5" y="253.9" width="6" height="8" rx="1" fill="url(#windowGlow)" opacity="0.8475985131448127"/>
<rect x="622.5" y="253.9" width="6" height="8" rx="1" fill="url(#windowGlow)" opacity="0.864628002636427"/>
<rect x="816.0" y="168.7" width="71.5" height="131.3" rx="3" fill="url(#bldg_mint)" opacity="0.85"/>
<polygon points="816.0,168.7 851.8,148.7 887.5,168.7" fill="url(#roof_navyRoof)" opacity="0.85"/>
<rect x="834.8" y="178.7" width="6" height="8" rx="1" fill="url(#windowGlow)" opacity="0.9321191047467845"/>
<rect x="848.8" y="178.7" width="6" height="8" rx="1" fill="url(#windowGlow)" opacity="0.7861009671753743"/>
<rect x="862.8" y="178.7" width="6" height="8" rx="1" fill="url(#windowGlow)" opacity="0.9342460143539337"/>
<rect x="834.8" y="193.7" width="6" height="8" rx="1" fill="url(#windowGlow)" opacity="0.7339338910923963"/>
<rect x="848.8" y="193.7" width="6" height="8" rx="1" fill="url(#windowGlow)" opacity="0.7033512324110377"/>
<rect x="862.8" y="193.7" width="6" height="8" rx="1" fill="url(#windowGlow)" opacity="0.9882866304778897"/>
<rect x="834.8" y="208.7" width="6" height="8" rx="1" fill="url(#windowGlow)" opacity="0.9055582924771859"/>
<rect x="848.8" y="208.7" width="6" height="8" rx="1" fill="url(#windowGlow)" opacity="0.9904913822610356"/>
<rect x="862.8" y="208.7" width="6" height="8" rx="1" fill="url(#windowGlow)" opacity="0.9069167223791204"/>
<rect x="834.8" y="223.7" width="6" height="8" rx="1" fill="url(#windowGlow)" opacity="0.8264047272160671"/>
<rect x="848.8" y="223.7" width="6" height="8" rx="1" fill="url(#windowGlow)" opacity="0.8363781193906339"/>
<rect x="834.8" y="238.7" width="6" height="8" rx="1" fill="url(#windowGlow)" opacity="0.7036807670740787"/>
<rect x="848.8" y="238.7" width="6" height="8" rx="1" fill="url(#windowGlow)" opacity="0.8096949703105236"/>
<rect x="862.8" y="238.7" width="6" height="8" rx="1" fill="url(#windowGlow)" opacity="0.8710950991469878"/>
<rect x="834.8" y="253.7" width="6" height="8" rx="1" fill="url(#windowGlow)" opacity="0.937740003847396"/>
<rect x="862.8" y="253.7" width="6" height="8" rx="1" fill="url(#windowGlow)" opacity="0.980955930557547"/>
<rect x="1011.9" y="124.6" width="41.5" height="175.4" rx="3" fill="url(#bldg_rose)" opacity="0.85"/>
<polygon points="1011.9,124.6 1032.6,112.1 1053.4,124.6" fill="url(#roof_coralRoof)" opacity="0.85"/>
<rect x="1029.6" y="149.6" width="6" height="8" rx="1" fill="url(#windowGlow)" opacity="0.7231556889708879"/>
<rect x="1029.6" y="164.6" width="6" height="8" rx="1" fill="url(#windowGlow)" opacity="0.8844000772500411"/>
<rect x="1029.6" y="179.6" width="6" height="8" rx="1" fill="url(#windowGlow)" opacity="0.9299643065919933"/>
<rect x="1029.6" y="194.6" width="6" height="8" rx="1" fill="url(#windowGlow)" opacity="0.804995289307551"/>
<rect x="1029.6" y="239.6" width="6" height="8" rx="1" fill="url(#windowGlow)" opacity="0.7728371929716491"/>
<rect x="121.5" y="111.0" width="53.6" height="189.0" rx="3" fill="url(#bldg_sky)" opacity="1"/>
<rect x="121.5" y="108.0" width="53.6" height="3" rx="1" fill="url(#roof_tealRoof)" opacity="1"/>
<rect x="138.3" y="121.0" width="6" height="8" rx="1" fill="url(#windowGlow)" opacity="0.882545110109516"/>
<rect x="152.3" y="121.0" width="6" height="8" rx="1" fill="url(#windowGlow)" opacity="0.7285817553422328"/>
<rect x="138.3" y="136.0" width="6" height="8" rx="1" fill="url(#windowGlow)" opacity="0.7590110369301452"/>
<rect x="152.3" y="136.0" width="6" height="8" rx="1" fill="url(#windowGlow)" opacity="0.7050558882789015"/>
<rect x="138.3" y="151.0" width="6" height="8" rx="1" fill="url(#windowGlow)" opacity="0.8715475938150414"/>
<rect x="138.3" y="166.0" width="6" height="8" rx="1" fill="url(#windowGlow)" opacity="0.9762976807431772"/>
<rect x="138.3" y="181.0" width="6" height="8" rx="1" fill="url(#windowGlow)" opacity="0.7468312545897584"/>
<rect x="152.3" y="181.0" width="6" height="8" rx="1" fill="url(#windowGlow)" opacity="0.8939567047143153"/>
<rect x="152.3" y="196.0" width="6" height="8" rx="1" fill="url(#windowGlow)" opacity="0.7436874769365822"/>
<rect x="138.3" y="211.0" width="6" height="8" rx="1" fill="url(#windowGlow)" opacity="0.9615935519158809"/>
<rect x="152.3" y="211.0" width="6" height="8" rx="1" fill="url(#windowGlow)" opacity="0.9694570570110609"/>
<rect x="138.3" y="226.0" width="6" height="8" rx="1" fill="url(#windowGlow)" opacity="0.9282257860192218"/>
<rect x="152.3" y="226.0" width="6" height="8" rx="1" fill="url(#windowGlow)" opacity="0.7586396220878882"/>
<rect x="143.3" y="284.0" width="10" height="16" rx="2" fill="url(#roof_navyRoof)" opacity="0.8"/>
<rect x="145.3" y="287.0" width="6" height="10" rx="1" fill="url(#windowGlow)" opacity="0.45"/>
<rect x="323.5" y="161.9" width="49.5" height="138.1" rx="3" fill="url(#bldg_coral)" opacity="1"/>
<polygon points="323.5,161.9 348.3,148.9 373.1,161.9" fill="url(#roof_navyRoof)" opacity="1"/>
<rect x="338.3" y="171.9" width="6" height="8" rx="1" fill="url(#windowGlow)" opacity="0.8602507428546672"/>
<rect x="352.3" y="171.9" width="6" height="8" rx="1" fill="url(#windowGlow)" opacity="0.9579930291315508"/>
<rect x="338.3" y="186.9" width="6" height="8" rx="1" fill="url(#windowGlow)" opacity="0.8711729265149556"/>
<rect x="338.3" y="201.9" width="6" height="8" rx="1" fill="url(#windowGlow)" opacity="0.91672252482582"/>
<rect x="352.3" y="201.9" width="6" height="8" rx="1" fill="url(#windowGlow)" opacity="0.9910749258897615"/>
<rect x="338.3" y="216.9" width="6" height="8" rx="1" fill="url(#windowGlow)" opacity="0.8261082579037679"/>
<rect x="352.3" y="216.9" width="6" height="8" rx="1" fill="url(#windowGlow)" opacity="0.8738979250071095"/>
<rect x="338.3" y="231.9" width="6" height="8" rx="1" fill="url(#windowGlow)" opacity="0.7807255210730831"/>
<rect x="352.3" y="231.9" width="6" height="8" rx="1" fill="url(#windowGlow)" opacity="0.9829082219316196"/>
<rect x="352.3" y="246.9" width="6" height="8" rx="1" fill="url(#windowGlow)" opacity="0.9651236295537666"/>
<rect x="343.3" y="284.0" width="10" height="16" rx="2" fill="url(#roof_navyRoof)" opacity="0.8"/>
<rect x="345.3" y="287.0" width="6" height="10" rx="1" fill="url(#windowGlow)" opacity="0.45"/>
<path d="M328.5 210.2 L348.3 210.2 L345.3 216.2 L331.5 216.2 Z" fill="url(#roof_tealRoof)" opacity="0.8"/>
<rect x="582.4" y="176.3" width="49.1" height="123.7" rx="3" fill="url(#bldg_teal)" opacity="1"/>
<rect x="592.2" y="161.4" width="29.4" height="14.8" rx="2" fill="url(#roof_coralRoof)" opacity="1"/>
<rect x="611.0" y="186.3" width="6" height="8" rx="1" fill="url(#windowGlow)" opacity="0.833956126558574"/>
<rect x="597.0" y="201.3" width="6" height="8" rx="1" fill="url(#windowGlow)" opacity="0.8492058239640694"/>
<rect x="611.0" y="201.3" width="6" height="8" rx="1" fill="url(#windowGlow)" opacity="0.7660375768626283"/>
<rect x="597.0" y="216.3" width="6" height="8" rx="1" fill="url(#windowGlow)" opacity="0.8924493929336077"/>
<rect x="611.0" y="216.3" width="6" height="8" rx="1" fill="url(#windowGlow)" opacity="0.9648030319552883"/>
<rect x="611.0" y="231.3" width="6" height="8" rx="1" fill="url(#windowGlow)" opacity="0.8797057545183719"/>
<rect x="597.0" y="246.3" width="6" height="8" rx="1" fill="url(#windowGlow)" opacity="0.8090647232760976"/>
<rect x="602.0" y="284.0" width="10" height="16" rx="2" fill="url(#roof_navyRoof)" opacity="0.8"/>
<rect x="604.0" y="287.0" width="6" height="10" rx="1" fill="url(#windowGlow)" opacity="0.45"/>
<rect x="767.1" y="186.5" width="60.4" height="113.5" rx="3" fill="url(#bldg_amber)" opacity="1"/>
<polygon points="767.1,186.5 797.3,171.2 827.5,186.5" fill="url(#roof_tealRoof)" opacity="1"/>
<rect x="780.3" y="196.5" width="6" height="8" rx="1" fill="url(#windowGlow)" opacity="0.8762374329270037"/>
<rect x="808.3" y="196.5" width="6" height="8" rx="1" fill="url(#windowGlow)" opacity="0.9279224150478478"/>
<rect x="780.3" y="211.5" width="6" height="8" rx="1" fill="url(#windowGlow)" opacity="0.7188709540846157"/>
<rect x="794.3" y="211.5" width="6" height="8" rx="1" fill="url(#windowGlow)" opacity="0.9795290826724512"/>
<rect x="808.3" y="211.5" width="6" height="8" rx="1" fill="url(#windowGlow)" opacity="0.8920588885862654"/>
<rect x="780.3" y="226.5" width="6" height="8" rx="1" fill="url(#windowGlow)" opacity="0.8014785144484967"/>
<rect x="794.3" y="226.5" width="6" height="8" rx="1" fill="url(#windowGlow)" opacity="0.9862702961947165"/>
<rect x="808.3" y="226.5" width="6" height="8" rx="1" fill="url(#windowGlow)" opacity="0.7540468850890393"/>
<rect x="794.3" y="241.5" width="6" height="8" rx="1" fill="url(#windowGlow)" opacity="0.9685349947160737"/>
<rect x="808.3" y="241.5" width="6" height="8" rx="1" fill="url(#windowGlow)" opacity="0.7921433233153742"/>
<rect x="808.3" y="256.5" width="6" height="8" rx="1" fill="url(#windowGlow)" opacity="0.7714791631658929"/>
<rect x="792.3" y="284.0" width="10" height="16" rx="2" fill="url(#roof_navyRoof)" opacity="0.8"/>
<rect x="794.3" y="287.0" width="6" height="10" rx="1" fill="url(#windowGlow)" opacity="0.45"/>
<path d="M773.2 226.2 L797.3 226.2 L794.3 232.2 L776.2 232.2 Z" fill="url(#roof_coralRoof)" opacity="0.8"/>
<rect x="786.8" y="227.5" width="21.1" height="5" rx="1" fill="#15803d" opacity="0.7"/>
<circle cx="789.8" cy="226.5" r="2.5" fill="#fb923c" opacity="0.85"/>
<circle cx="796.8" cy="226.5" r="2.5" fill="#f87171" opacity="0.85"/>
<circle cx="803.9" cy="226.5" r="2.5" fill="#fbbf24" opacity="0.85"/>
<rect x="999.2" y="217.7" width="42.3" height="82.3" rx="3" fill="url(#bldg_lavender)" opacity="1"/>
<rect x="1007.6" y="207.8" width="25.4" height="9.9" rx="2" fill="url(#roof_navyRoof)" opacity="1"/>
<rect x="1017.4" y="227.7" width="6" height="8" rx="1" fill="url(#windowGlow)" opacity="0.8443994937205684"/>
<rect x="1017.4" y="257.7" width="6" height="8" rx="1" fill="url(#windowGlow)" opacity="0.7104087679229717"/>
<rect x="1015.4" y="284.0" width="10" height="16" rx="2" fill="url(#roof_navyRoof)" opacity="0.8"/>
<rect x="1017.4" y="287.0" width="6" height="10" rx="1" fill="url(#windowGlow)" opacity="0.45"/>
<path d="M1020.4 246.5 L1037.3 246.5 L1034.3 252.5 L1023.4 252.5 Z" fill="url(#roof_tealRoof)" opacity="0.8"/>
<path d="M249.3 285.0 Q267.8 253.5 260.4 222.0" stroke="#92400e" stroke-width="4" fill="none" stroke-linecap="round"/>
<path d="M260.4 222.0 Q251.6 212.3 245.7 213.9" stroke="#16a34a" stroke-width="2.5" fill="none" stroke-linecap="round"/>
<path d="M260.4 222.0 Q266.0 210.3 269.7 209.6" stroke="#22c55e" stroke-width="2.5" fill="none" stroke-linecap="round"/>
<path d="M260.4 222.0 Q275.6 216.0 285.7 222.0" stroke="#15803d" stroke-width="2.5" fill="none" stroke-linecap="round"/>
<path d="M260.4 222.0 Q265.1 220.7 268.2 232.4" stroke="#4ade80" stroke-width="2.5" fill="none" stroke-linecap="round"/>
<path d="M260.4 222.0 Q246.3 221.8 237.0 234.8" stroke="#16a34a" stroke-width="2.5" fill="none" stroke-linecap="round"/>
<path d="M477.7 285.0 Q498.7 255.8 490.3 226.5" stroke="#92400e" stroke-width="4" fill="none" stroke-linecap="round"/>
<path d="M490.3 226.5 Q479.1 215.8 471.6 216.2" stroke="#16a34a" stroke-width="2.5" fill="none" stroke-linecap="round"/>
<path d="M490.3 226.5 Q496.8 214.1 501.0 212.3" stroke="#22c55e" stroke-width="2.5" fill="none" stroke-linecap="round"/>
<path d="M490.3 226.5 Q506.1 220.5 516.6 226.5" stroke="#15803d" stroke-width="2.5" fill="none" stroke-linecap="round"/>
<path d="M490.3 226.5 Q497.7 227.9 502.6 242.8" stroke="#4ade80" stroke-width="2.5" fill="none" stroke-linecap="round"/>
<path d="M490.3 226.5 Q479.0 225.3 471.4 236.9" stroke="#16a34a" stroke-width="2.5" fill="none" stroke-linecap="round"/>
<path d="M699.3 285.0 Q726.1 262.1 715.4 239.1" stroke="#92400e" stroke-width="4" fill="none" stroke-linecap="round"/>
<path d="M715.4 239.1 Q701.3 227.2 691.9 226.2" stroke="#16a34a" stroke-width="2.5" fill="none" stroke-linecap="round"/>
<path d="M715.4 239.1 Q721.7 226.8 725.9 225.2" stroke="#22c55e" stroke-width="2.5" fill="none" stroke-linecap="round"/>
<path d="M715.4 239.1 Q731.2 233.1 741.8 239.1" stroke="#15803d" stroke-width="2.5" fill="none" stroke-linecap="round"/>
<path d="M715.4 239.1 Q722.4 240.2 727.1 254.7" stroke="#4ade80" stroke-width="2.5" fill="none" stroke-linecap="round"/>
<path d="M715.4 239.1 Q704.1 237.8 696.6 249.5" stroke="#16a34a" stroke-width="2.5" fill="none" stroke-linecap="round"/>
<rect x="0" y="282" width="1200" height="18" fill="url(#groundGrad)"/>
<line x1="1075.4" y1="282.0" x2="1075.4" y2="241.8" stroke="#92400e" stroke-width="2"/>
<circle cx="1075.4" cy="241.8" r="4" fill="#fef08a" opacity="0.6"/>
<circle cx="1075.4" cy="241.8" r="8" fill="#fef08a" opacity="0.15" filter="url(#softGlow)"/>
<ellipse cx="434.8" cy="282.0" rx="5.1" ry="3.6" fill="#22c55e" opacity="0.6"/>
<ellipse cx="1119.4" cy="282.0" rx="4.1" ry="2.9" fill="#22c55e" opacity="0.6"/>
</svg>