<svg xmlns="http://www.w3.org/2000/svg" viewBox="0 0 1200 300" width="1200" height="300">
<defs>
<linearGradient id="skyGrad" x1="0" y1="0" x2="0" y2="1">
<stop offset="0%" stop-color="#a78bfa"/>
<stop offset="18%" stop-color="#ddb4f0"/>
<stop offset="35%" stop-color="#fda4af"/>
<stop offset="52%" stop-color="#fdba74"/>
<stop offset="72%" stop-color="#fef08a"/>
<stop offset="100%" stop-color="#fef9c3"/>
</linearGradient>
<linearGradient id="bldg_coral" x1="0" y1="0" x2="0" y2="1"><stop offset="0%" stop-color="#fecaca"/><stop offset="100%" stop-color="#fca5a5"/></linearGradient>
<linearGradient id="bldg_teal" x1="0" y1="0" x2="0" y2="1"><stop offset="0%" stop-color="#99f6e4"/><stop offset="100%" stop-color="#5eead4"/></linearGradient>
<linearGradient id="bldg_amber" x1="0" y1="0" x2="0" y2="1"><stop offset="0%" stop-color="#fde68a"/><stop offset="100%" stop-color="#fcd34d"/></linearGradient>
<linearGradient id="bldg_lavender" x1="0" y1="0" x2="0" y2="1"><stop offset="0%" stop-color="#ddd6fe"/><stop offset="100%" stop-color="#c4b5fd"/></linearGradient>
<linearGradient id="bldg_blue" x1="0" y1="0" x2="0" y2="1"><stop offset="0%" stop-color="#bfdbfe"/><stop offset="100%" stop-color="#93c5fd"/></linearGradient>
<linearGradient id="bldg_mint" x1="0" y1="0" x2="0" y2="1"><stop offset="0%" stop-color="#a7f3d0"/><stop offset="100%" stop-color="#6ee7b7"/></linearGradient>
<linearGradient id="bldg_rose" x1="0" y1="0" x2="0" y2="1"><stop offset="0%" stop-color="#fecdd3"/><stop offset="100%" stop-color="#fda4af"/></linearGradient>
<linearGradient id="bldg_sky" x1="0" y1="0" x2="0" y2="1"><stop offset="0%" stop-color="#bae6fd"/><stop offset="100%" stop-color="#7dd3fc"/></linearGradient>
<linearGradient id="roof_navyRoof" x1="0" y1="0" x2="0" y2="1"><stop offset="0%" stop-color="#4338ca"/><stop offset="100%" stop-color="#3730a3"/></linearGradient>
<linearGradient id="roof_coralRoof" x1="0" y1="0" x2="0" y2="1"><stop offset="0%" stop-color="#f87171"/><stop offset="100%" stop-color="#ef4444"/></linearGradient>
<linearGradient id="roof_tealRoof" x1="0" y1="0" x2="0" y2="1"><stop offset="0%" stop-color="#2dd4bf"/><stop offset="100%" stop-color="#14b8a6"/></linearGradient>
<radialGradient id="windowGlow" cx="50%" cy="50%" r="50%"><stop offset="0%" stop-color="#fef08a"/><stop offset="60%" stop-color="#fbbf24"/><stop offset="100%" stop-color="#f59e0b"/></radialGradient>
<linearGradient id="hillFar" x1="0" y1="0" x2="0" y2="1"><stop offset="0%" stop-color="#c4b5fd"/><stop offset="100%" stop-color="#a5b4fc"/></linearGradient>
<linearGradient id="hillMid" x1="0" y1="0" x2="0" y2="1"><stop offset="0%" stop-color="#86efac"/><stop offset="100%" stop-color="#4ade80"/></linearGradient>
<linearGradient id="hillNear" x1="0" y1="0" x2="0" y2="1"><stop offset="0%" stop-color="#34d399"/><stop offset="100%" stop-color="#10b981"/></linearGradient>
<linearGradient id="hillDesertFar" x1="0" y1="0" x2="0" y2="1"><stop offset="0%" stop-color="#fde68a"/><stop offset="100%" stop-color="#fcd34d"/></linearGradient>
<linearGradient id="hillDesertMid" x1="0" y1="0" x2="0" y2="1"><stop offset="0%" stop-color="#fcd34d"/><stop offset="100%" stop-color="#fbbf24"/></linearGradient>
<linearGradient id="hillDesertNear" x1="0" y1="0" x2="0" y2="1"><stop offset="0%" stop-color="#fbbf24"/><stop offset="100%" stop-color="#f59e0b"/></linearGradient>
<linearGradient id="groundGrad" x1="0" y1="0" x2="0" y2="1"><stop offset="0%" stop-color="#fef3c7"/><stop offset="100%" stop-color="#fde68a"/></linearGradient>
<linearGradient id="waterGrad" x1="0" y1="0" x2="0" y2="1"><stop offset="0%" stop-color="#bfdbfe"/><stop offset="100%" stop-color="#93c5fd"/></linearGradient>
<filter id="softGlow" x="-50%" y="-50%" width="200%" height="200%"><feGaussianBlur in="SourceGraphic" stdDeviation="12"/></filter>
</defs>
<rect width="1200" height="300" fill="url(#skyGrad)"/>
<circle cx="1075.8" cy="36.3" r="45" fill="#fef08a" opacity="0.12" filter="url(#softGlow)"/>
<circle cx="1075.8" cy="36.3" r="30" fill="#fde68a" opacity="0.18" filter="url(#softGlow)"/>
<circle cx="1075.8" cy="36.3" r="16" fill="#fef9c3" opacity="0.25" filter="url(#softGlow)"/>
<path d="M0 300 L0.0 193.7 C167.6 193.7, 167.6 175.7, 335.3 175.7 C569.9 175.7, 569.9 193.9, 804.5 193.9 C1002.2 193.9, 1002.2 193.3, 1200.0 193.3 L1200 300 Z" fill="url(#hillFar)" opacity="0.5"/>
<path d="M0 300 L0.0 216.6 C212.8 216.6, 212.8 210.9, 425.7 210.9 C568.8 210.9, 568.8 211.2, 712.0 211.2 C956.0 211.2, 956.0 207.5, 1200.0 207.5 L1200 300 Z" fill="url(#hillMid)" opacity="0.7"/>
<path d="M0 300 L0.0 229.4 C216.5 229.4, 216.5 234.8, 432.9 234.8 C627.6 234.8, 627.6 232.5, 822.3 232.5 C1011.2 232.5, 1011.2 234.4, 1200.0 234.4 L1200 300 Z" fill="url(#hillNear)" opacity="1"/>
<rect x="152.9" y="228.8" width="50.5" height="71.2" rx="3" fill="url(#bldg_coral)" opacity="0.7"/>
<polygon points="152.9,228.8 178.2,214.3 203.5,228.8" fill="url(#roof_coralRoof)" opacity="0.7"/>
<rect x="168.2" y="238.8" width="6" height="8" rx="1" fill="url(#windowGlow)" opacity="0.9885789367782785"/>
<rect x="182.2" y="238.8" width="6" height="8" rx="1" fill="url(#windowGlow)" opacity="0.8847173688862088"/>
<rect x="168.2" y="253.8" width="6" height="8" rx="1" fill="url(#windowGlow)" opacity="0.9390075640003231"/>
<rect x="437.1" y="218.1" width="62.7" height="81.9" rx="3" fill="url(#bldg_teal)" opacity="0.7"/>
<polygon points="437.1,218.1 468.4,205.1 499.8,218.1" fill="url(#roof_tealRoof)" opacity="0.7"/>
<rect x="451.4" y="228.1" width="6" height="8" rx="1" fill="url(#windowGlow)" opacity="0.9494981309163841"/>
<rect x="479.4" y="228.1" width="6" height="8" rx="1" fill="url(#windowGlow)" opacity="0.9811342549888111"/>
<rect x="451.4" y="243.1" width="6" height="8" rx="1" fill="url(#windowGlow)" opacity="0.7975261918723239"/>
<rect x="465.4" y="243.1" width="6" height="8" rx="1" fill="url(#windowGlow)" opacity="0.8469227994545003"/>
<rect x="479.4" y="243.1" width="6" height="8" rx="1" fill="url(#windowGlow)" opacity="0.9817511013158369"/>
<rect x="451.4" y="258.1" width="6" height="8" rx="1" fill="url(#windowGlow)" opacity="0.9390640803794674"/>
<rect x="465.4" y="258.1" width="6" height="8" rx="1" fill="url(#windowGlow)" opacity="0.7932975608358613"/>
<rect x="479.4" y="258.1" width="6" height="8" rx="1" fill="url(#windowGlow)" opacity="0.8022613427146623"/>
<rect x="683.0" y="196.8" width="52.0" height="103.2" rx="3" fill="url(#bldg_amber)" opacity="0.7"/>
<polygon points="683.0,196.8 709.0,179.6 735.0,196.8" fill="url(#roof_navyRoof)" opacity="0.7"/>
<rect x="699.0" y="206.8" width="6" height="8" rx="1" fill="url(#windowGlow)" opacity="0.8864660923306207"/>
<rect x="713.0" y="221.8" width="6" height="8" rx="1" fill="url(#windowGlow)" opacity="0.9137604194757344"/>
<rect x="699.0" y="236.8" width="6" height="8" rx="1" fill="url(#windowGlow)" opacity="0.8842005116791466"/>
<rect x="713.0" y="236.8" width="6" height="8" rx="1" fill="url(#windowGlow)" opacity="0.9294190109844407"/>
<rect x="699.0" y="251.8" width="6" height="8" rx="1" fill="url(#windowGlow)" opacity="0.7561221729294034"/>
<rect x="713.0" y="251.8" width="6" height="8" rx="1" fill="url(#windowGlow)" opacity="0.8090258492664554"/>
<rect x="1010.6" y="206.5" width="75.5" height="93.5" rx="3" fill="url(#bldg_lavender)" opacity="0.7"/>
<polygon points="1010.6,206.5 1048.3,180.6 1086.1,206.5" fill="url(#roof_coralRoof)" opacity="0.7"/>
<rect x="1024.3" y="216.5" width="6" height="8" rx="1" fill="url(#windowGlow)" opacity="0.7435205992513897"/>
<rect x="1038.3" y="216.5" width="6" height="8" rx="1" fill="url(#windowGlow)" opacity="0.771032319157865"/>
<rect x="1052.3" y="216.5" width="6" height="8" rx="1" fill="url(#windowGlow)" opacity="0.8740496824374653"/>
<rect x="1066.3" y="216.5" width="6" height="8" rx="1" fill="url(#windowGlow)" opacity="0.778073290492442"/>
<rect x="1024.3" y="231.5" width="6" height="8" rx="1" fill="url(#windowGlow)" opacity="0.7984970383804743"/>
<rect x="1052.3" y="231.5" width="6" height="8" rx="1" fill="url(#windowGlow)" opacity="0.9717107764313513"/>
<rect x="1024.3" y="246.5" width="6" height="8" rx="1" fill="url(#windowGlow)" opacity="0.9179411711254813"/>
<rect x="1038.3" y="246.5" width="6" height="8" rx="1" fill="url(#windowGlow)" opacity="0.7703123022198268"/>
<rect x="1052.3" y="246.5" width="6" height="8" rx="1" fill="url(#windowGlow)" opacity="0.7880337625220575"/>
<rect x="1066.3" y="246.5" width="6" height="8" rx="1" fill="url(#windowGlow)" opacity="0.8469281616373584"/>
<rect x="132.5" y="222.4" width="53.7" height="77.6" rx="3" fill="url(#bldg_blue)" opacity="0.85"/>
<polygon points="132.5,222.4 159.3,211.0 186.2,222.4" fill="url(#roof_tealRoof)" opacity="0.85"/>
<rect x="149.3" y="232.4" width="6" height="8" rx="1" fill="url(#windowGlow)" opacity="0.8407775328218832"/>
<rect x="163.3" y="232.4" width="6" height="8" rx="1" fill="url(#windowGlow)" opacity="0.873650908085355"/>
<rect x="163.3" y="247.4" width="6" height="8" rx="1" fill="url(#windowGlow)" opacity="0.7160522569511328"/>
<rect x="419.1" y="157.3" width="62.7" height="142.7" rx="3" fill="url(#bldg_mint)" opacity="0.85"/>
<rect x="431.6" y="140.2" width="37.6" height="17.1" rx="2" fill="url(#roof_navyRoof)" opacity="0.85"/>
<rect x="433.5" y="167.3" width="6" height="8" rx="1" fill="url(#windowGlow)" opacity="0.9188834737608598"/>
<rect x="433.5" y="182.3" width="6" height="8" rx="1" fill="url(#windowGlow)" opacity="0.9064735056396915"/>
<rect x="447.5" y="182.3" width="6" height="8" rx="1" fill="url(#windowGlow)" opacity="0.8120547920521604"/>
<rect x="447.5" y="197.3" width="6" height="8" rx="1" fill="url(#windowGlow)" opacity="0.7284832393417522"/>
<rect x="461.5" y="197.3" width="6" height="8" rx="1" fill="url(#windowGlow)" opacity="0.9097838891250005"/>
<rect x="433.5" y="212.3" width="6" height="8" rx="1" fill="url(#windowGlow)" opacity="0.9292629730558315"/>
<rect x="447.5" y="212.3" width="6" height="8" rx="1" fill="url(#windowGlow)" opacity="0.9063333842467206"/>
<rect x="433.5" y="227.3" width="6" height="8" rx="1" fill="url(#windowGlow)" opacity="0.7029014991609852"/>
<rect x="461.5" y="227.3" width="6" height="8" rx="1" fill="url(#windowGlow)" opacity="0.7671280614878647"/>
<rect x="433.5" y="242.3" width="6" height="8" rx="1" fill="url(#windowGlow)" opacity="0.8660119339199792"/>
<rect x="447.5" y="242.3" width="6" height="8" rx="1" fill="url(#windowGlow)" opacity="0.9607101320106117"/>
<rect x="461.5" y="242.3" width="6" height="8" rx="1" fill="url(#windowGlow)" opacity="0.7377304468945276"/>
<rect x="433.5" y="257.3" width="6" height="8" rx="1" fill="url(#windowGlow)" opacity="0.7265148494050441"/>
<rect x="447.5" y="257.3" width="6" height="8" rx="1" fill="url(#windowGlow)" opacity="0.7231726283781102"/>
<rect x="461.5" y="257.3" width="6" height="8" rx="1" fill="url(#windowGlow)" opacity="0.8642715135888529"/>
<rect x="714.7" y="176.0" width="63.2" height="124.0" rx="3" fill="url(#bldg_rose)" opacity="0.85"/>
<rect x="714.7" y="173.0" width="63.2" height="3" rx="1" fill="url(#roof_coralRoof)" opacity="0.85"/>
<rect x="729.3" y="186.0" width="6" height="8" rx="1" fill="url(#windowGlow)" opacity="0.9109614685694507"/>
<rect x="743.3" y="186.0" width="6" height="8" rx="1" fill="url(#windowGlow)" opacity="0.7058378523708497"/>
<rect x="757.3" y="186.0" width="6" height="8" rx="1" fill="url(#windowGlow)" opacity="0.7920265993066256"/>
<rect x="729.3" y="201.0" width="6" height="8" rx="1" fill="url(#windowGlow)" opacity="0.7944811639350285"/>
<rect x="743.3" y="201.0" width="6" height="8" rx="1" fill="url(#windowGlow)" opacity="0.9122262653485993"/>
<rect x="757.3" y="201.0" width="6" height="8" rx="1" fill="url(#windowGlow)" opacity="0.9137462991819466"/>
<rect x="743.3" y="216.0" width="6" height="8" rx="1" fill="url(#windowGlow)" opacity="0.7433747681059757"/>
<rect x="757.3" y="216.0" width="6" height="8" rx="1" fill="url(#windowGlow)" opacity="0.9747600017463601"/>
<rect x="729.3" y="231.0" width="6" height="8" rx="1" fill="url(#windowGlow)" opacity="0.9434256450475312"/>
<rect x="743.3" y="231.0" width="6" height="8" rx="1" fill="url(#windowGlow)" opacity="0.8535823788277722"/>
<rect x="757.3" y="231.0" width="6" height="8" rx="1" fill="url(#windowGlow)" opacity="0.7524126379063412"/>
<rect x="729.3" y="246.0" width="6" height="8" rx="1" fill="url(#windowGlow)" opacity="0.8450772488233993"/>
<rect x="743.3" y="246.0" width="6" height="8" rx="1" fill="url(#windowGlow)" opacity="0.767165304379149"/>
<rect x="757.3" y="246.0" width="6" height="8" rx="1" fill="url(#windowGlow)" opacity="0.9681761436481848"/>
<rect x="729.3" y="261.0" width="6" height="8" rx="1" fill="url(#windowGlow)" opacity="0.8875519896799474"/>
<rect x="1010.1" y="183.7" width="70.3" height="116.3" rx="3" fill="url(#bldg_sky)" opacity="0.85"/>
<rect x="1010.1" y="180.7" width="70.3" height="3" rx="1" fill="url(#roof_tealRoof)" opacity="0.85"/>
<rect x="1028.2" y="193.7" width="6" height="8" rx="1" fill="url(#windowGlow)" opacity="0.7118553417790007"/>
<rect x="1042.2" y="193.7" width="6" height="8" rx="1" fill="url(#windowGlow)" opacity="0.864508994559063"/>
<rect x="1056.2" y="193.7" width="6" height="8" rx="1" fill="url(#windowGlow)" opacity="0.8175177948165302"/>
<rect x="1056.2" y="208.7" width="6" height="8" rx="1" fill="url(#windowGlow)" opacity="0.9020725950608368"/>
<rect x="1028.2" y="223.7" width="6" height="8" rx="1" fill="url(#windowGlow)" opacity="0.9769173044138202"/>
<rect x="1028.2" y="238.7" width="6" height="8" rx="1" fill="url(#windowGlow)" opacity="0.8354476571713796"/>
<rect x="1042.2" y="238.7" width="6" height="8" rx="1" fill="url(#windowGlow)" opacity="0.9897644114167263"/>
<rect x="1028.2" y="253.7" width="6" height="8" rx="1" fill="url(#windowGlow)" opacity="0.9047396664995419"/>
<rect x="1042.2" y="253.7" width="6" height="8" rx="1" fill="url(#windowGlow)" opacity="0.8100237552123254"/>
<rect x="126.4" y="148.8" width="37.4" height="151.2" rx="3" fill="url(#bldg_coral)" opacity="1"/>
<rect x="126.4" y="145.8" width="37.4" height="3" rx="1" fill="url(#roof_navyRoof)" opacity="1"/>
<rect x="142.1" y="158.8" width="6" height="8" rx="1" fill="url(#windowGlow)" opacity="0.7198660979139926"/>
<rect x="142.1" y="173.8" width="6" height="8" rx="1" fill="url(#windowGlow)" opacity="0.8673915123415139"/>
<rect x="142.1" y="188.8" width="6" height="8" rx="1" fill="url(#windowGlow)" opacity="0.7191615335732519"/>
<rect x="142.1" y="203.8" width="6" height="8" rx="1" fill="url(#windowGlow)" opacity="0.8451434496534724"/>
<rect x="142.1" y="218.8" width="6" height="8" rx="1" fill="url(#windowGlow)" opacity="0.8049956625816391"/>
<rect x="142.1" y="248.8" width="6" height="8" rx="1" fill="url(#windowGlow)" opacity="0.9545965221499075"/>
<rect x="140.1" y="284.0" width="10" height="16" rx="2" fill="url(#roof_navyRoof)" opacity="0.8"/>
<rect x="142.1" y="287.0" width="6" height="10" rx="1" fill="url(#windowGlow)" opacity="0.45"/>
<rect x="407.0" y="137.1" width="74.5" height="162.9" rx="3" fill="url(#bldg_teal)" opacity="1"/>
<rect x="421.9" y="117.5" width="44.7" height="19.6" rx="2" fill="url(#roof_coralRoof)" opacity="1"/>
<rect x="420.2" y="147.1" width="6" height="8" rx="1" fill="url(#windowGlow)" opacity="0.8589734437684404"/>
<rect x="434.2" y="147.1" width="6" height="8" rx="1" fill="url(#windowGlow)" opacity="0.7300066140620068"/>
<rect x="448.2" y="147.1" width="6" height="8" rx="1" fill="url(#windowGlow)" opacity="0.9498815880389332"/>
<rect x="462.2" y="147.1" width="6" height="8" rx="1" fill="url(#windowGlow)" opacity="0.8590685065645112"/>
<rect x="420.2" y="162.1" width="6" height="8" rx="1" fill="url(#windowGlow)" opacity="0.8154111205206304"/>
<rect x="434.2" y="162.1" width="6" height="8" rx="1" fill="url(#windowGlow)" opacity="0.7211451464431105"/>
<rect x="448.2" y="162.1" width="6" height="8" rx="1" fill="url(#windowGlow)" opacity="0.725328610476725"/>
<rect x="420.2" y="177.1" width="6" height="8" rx="1" fill="url(#windowGlow)" opacity="0.8527023727319679"/>
<rect x="434.2" y="177.1" width="6" height="8" rx="1" fill="url(#windowGlow)" opacity="0.8374316037806829"/>
<rect x="448.2" y="177.1" width="6" height="8" rx="1" fill="url(#windowGlow)" opacity="0.984726557221602"/>
<rect x="420.2" y="192.1" width="6" height="8" rx="1" fill="url(#windowGlow)" opacity="0.8233578193575878"/>
<rect x="448.2" y="192.1" width="6" height="8" rx="1" fill="url(#windowGlow)" opacity="0.910698003839095"/>
<rect x="462.2" y="192.1" width="6" height="8" rx="1" fill="url(#windowGlow)" opacity="0.9286030959936804"/>
<rect x="420.2" y="207.1" width="6" height="8" rx="1" fill="url(#windowGlow)" opacity="0.994014600289061"/>
<rect x="434.2" y="207.1" width="6" height="8" rx="1" fill="url(#windowGlow)" opacity="0.914106096566704"/>
<rect x="448.2" y="207.1" width="6" height="8" rx="1" fill="url(#windowGlow)" opacity="0.7064921342332344"/>
<rect x="462.2" y="207.1" width="6" height="8" rx="1" fill="url(#windowGlow)" opacity="0.7840239934548847"/>
<rect x="420.2" y="222.1" width="6" height="8" rx="1" fill="url(#windowGlow)" opacity="0.9950389370299125"/>
<rect x="434.2" y="222.1" width="6" height="8" rx="1" fill="url(#windowGlow)" opacity="0.7758744774273943"/>
<rect x="448.2" y="222.1" width="6" height="8" rx="1" fill="url(#windowGlow)" opacity="0.7417951200817688"/>
<rect x="462.2" y="222.1" width="6" height="8" rx="1" fill="url(#windowGlow)" opacity="0.7602524790727777"/>
<rect x="420.2" y="237.1" width="6" height="8" rx="1" fill="url(#windowGlow)" opacity="0.7541106040375822"/>
<rect x="434.2" y="237.1" width="6" height="8" rx="1" fill="url(#windowGlow)" opacity="0.7096167901109982"/>
<rect x="448.2" y="237.1" width="6" height="8" rx="1" fill="url(#windowGlow)" opacity="0.7519840822331533"/>
<rect x="462.2" y="237.1" width="6" height="8" rx="1" fill="url(#windowGlow)" opacity="0.9379751220987993"/>
<rect x="420.2" y="252.1" width="6" height="8" rx="1" fill="url(#windowGlow)" opacity="0.8373379237192393"/>
<rect x="434.2" y="252.1" width="6" height="8" rx="1" fill="url(#windowGlow)" opacity="0.7708426019041066"/>
<rect x="448.2" y="252.1" width="6" height="8" rx="1" fill="url(#windowGlow)" opacity="0.7795040127725824"/>
<rect x="462.2" y="252.1" width="6" height="8" rx="1" fill="url(#windowGlow)" opacity="0.7548487063287053"/>
<rect x="439.2" y="284.0" width="10" height="16" rx="2" fill="url(#roof_navyRoof)" opacity="0.8"/>
<rect x="441.2" y="287.0" width="6" height="10" rx="1" fill="url(#windowGlow)" opacity="0.45"/>
<path d="M444.2 194.1 L474.0 194.1 L471.0 200.1 L447.2 200.1 Z" fill="url(#roof_navyRoof)" opacity="0.8"/>
<rect x="732.2" y="211.5" width="68.1" height="88.5" rx="3" fill="url(#bldg_amber)" opacity="1"/>
<polygon points="732.2,211.5 766.3,190.2 800.3,211.5" fill="url(#roof_tealRoof)" opacity="1"/>
<rect x="749.3" y="221.5" width="6" height="8" rx="1" fill="url(#windowGlow)" opacity="0.7397263405098237"/>
<rect x="763.3" y="221.5" width="6" height="8" rx="1" fill="url(#windowGlow)" opacity="0.7130750492276041"/>
<rect x="777.3" y="221.5" width="6" height="8" rx="1" fill="url(#windowGlow)" opacity="0.9352264788165812"/>
<rect x="749.3" y="236.5" width="6" height="8" rx="1" fill="url(#windowGlow)" opacity="0.8852325706673937"/>
<rect x="763.3" y="236.5" width="6" height="8" rx="1" fill="url(#windowGlow)" opacity="0.744825806582731"/>
<rect x="777.3" y="236.5" width="6" height="8" rx="1" fill="url(#windowGlow)" opacity="0.9058300209258823"/>
<rect x="763.3" y="251.5" width="6" height="8" rx="1" fill="url(#windowGlow)" opacity="0.9323902393376409"/>
<rect x="777.3" y="251.5" width="6" height="8" rx="1" fill="url(#windowGlow)" opacity="0.8086269767063795"/>
<rect x="761.3" y="284.0" width="10" height="16" rx="2" fill="url(#roof_navyRoof)" opacity="0.8"/>
<rect x="763.3" y="287.0" width="6" height="10" rx="1" fill="url(#windowGlow)" opacity="0.45"/>
<rect x="754.3" y="237.5" width="23.8" height="5" rx="1" fill="#15803d" opacity="0.7"/>
<circle cx="757.3" cy="236.5" r="2.5" fill="#fb923c" opacity="0.85"/>
<circle cx="765.3" cy="236.5" r="2.5" fill="#fbbf24" opacity="0.85"/>
<circle cx="773.2" cy="236.5" r="2.5" fill="#fb923c" opacity="0.85"/>
<rect x="1021.6" y="144.1" width="39.3" height="155.9" rx="3" fill="url(#bldg_lavender)" opacity="1"/>
<polygon points="1021.6,144.1 1041.2,132.8 1060.9,144.1" fill="url(#roof_navyRoof)" opacity="1"/>
<rect x="1038.2" y="169.1" width="6" height="8" rx="1" fill="url(#windowGlow)" opacity="0.8410927359671763"/>
<rect x="1038.2" y="184.1" width="6" height="8" rx="1" fill="url(#windowGlow)" opacity="0.8699206516006591"/>
<rect x="1038.2" y="214.1" width="6" height="8" rx="1" fill="url(#windowGlow)" opacity="0.9050501400162699"/>
<rect x="1038.2" y="244.1" width="6" height="8" rx="1" fill="url(#windowGlow)" opacity="0.7375670015986855"/>
<rect x="1038.2" y="259.1" width="6" height="8" rx="1" fill="url(#windowGlow)" opacity="0.8908596526788825"/>
<rect x="1036.2" y="284.0" width="10" height="16" rx="2" fill="url(#roof_navyRoof)" opacity="0.8"/>
<rect x="1038.2" y="287.0" width="6" height="10" rx="1" fill="url(#windowGlow)" opacity="0.45"/>
<rect x="1034.4" y="170.1" width="13.7" height="5" rx="1" fill="#15803d" opacity="0.7"/>
<circle cx="1037.4" cy="169.1" r="2.5" fill="#a78bfa" opacity="0.85"/>
<circle cx="1041.9" cy="169.1" r="2.5" fill="#fb923c" opacity="0.85"/>
<circle cx="1046.5" cy="169.1" r="2.5" fill="#a78bfa" opacity="0.85"/>
<path d="M285.4 285.0 Q304.8 260.2 297.0 235.4" stroke="#92400e" stroke-width="4" fill="none" stroke-linecap="round"/>
<path d="M297.0 235.4 Q283.7 223.8 274.8 223.1" stroke="#16a34a" stroke-width="2.5" fill="none" stroke-linecap="round"/>
<path d="M297.0 235.4 Q304.5 221.8 309.5 218.8" stroke="#22c55e" stroke-width="2.5" fill="none" stroke-linecap="round"/>
<path d="M297.0 235.4 Q314.2 229.4 325.6 235.4" stroke="#15803d" stroke-width="2.5" fill="none" stroke-linecap="round"/>
<path d="M297.0 235.4 Q303.1 235.5 307.2 248.8" stroke="#4ade80" stroke-width="2.5" fill="none" stroke-linecap="round"/>
<path d="M297.0 235.4 Q286.3 233.8 279.2 245.2" stroke="#16a34a" stroke-width="2.5" fill="none" stroke-linecap="round"/>
<path d="M606.8 285.0 Q634.4 253.8 623.4 222.7" stroke="#92400e" stroke-width="4" fill="none" stroke-linecap="round"/>
<path d="M623.4 222.7 Q612.4 212.1 605.0 212.6" stroke="#16a34a" stroke-width="2.5" fill="none" stroke-linecap="round"/>
<path d="M623.4 222.7 Q630.0 210.0 634.5 207.9" stroke="#22c55e" stroke-width="2.5" fill="none" stroke-linecap="round"/>
<path d="M623.4 222.7 Q636.0 216.7 644.4 222.7" stroke="#15803d" stroke-width="2.5" fill="none" stroke-linecap="round"/>
<path d="M623.4 222.7 Q629.9 223.2 634.2 237.0" stroke="#4ade80" stroke-width="2.5" fill="none" stroke-linecap="round"/>
<path d="M623.4 222.7 Q613.1 220.9 606.3 232.1" stroke="#16a34a" stroke-width="2.5" fill="none" stroke-linecap="round"/>
<path d="M911.0 285.0 Q927.0 253.1 920.6 221.3" stroke="#92400e" stroke-width="4" fill="none" stroke-linecap="round"/>
<path d="M920.6 221.3 Q909.7 210.7 902.4 211.3" stroke="#16a34a" stroke-width="2.5" fill="none" stroke-linecap="round"/>
<path d="M920.6 221.3 Q926.7 209.1 930.8 207.7" stroke="#22c55e" stroke-width="2.5" fill="none" stroke-linecap="round"/>
<path d="M920.6 221.3 Q932.6 215.3 940.7 221.3" stroke="#15803d" stroke-width="2.5" fill="none" stroke-linecap="round"/>
<path d="M920.6 221.3 Q927.2 222.0 931.7 236.0" stroke="#4ade80" stroke-width="2.5" fill="none" stroke-linecap="round"/>
<path d="M920.6 221.3 Q909.4 219.9 902.0 231.5" stroke="#16a34a" stroke-width="2.5" fill="none" stroke-linecap="round"/>
<path d="M84.7 285.0 Q113.4 258.9 101.9 232.7" stroke="#92400e" stroke-width="4" fill="none" stroke-linecap="round"/>
<path d="M101.9 232.7 Q90.8 222.1 83.4 222.5" stroke="#16a34a" stroke-width="2.5" fill="none" stroke-linecap="round"/>
<path d="M101.9 232.7 Q109.1 219.6 113.8 217.0" stroke="#22c55e" stroke-width="2.5" fill="none" stroke-linecap="round"/>
<path d="M101.9 232.7 Q114.1 226.7 122.3 232.7" stroke="#15803d" stroke-width="2.5" fill="none" stroke-linecap="round"/>
<path d="M101.9 232.7 Q108.2 233.1 112.4 246.7" stroke="#4ade80" stroke-width="2.5" fill="none" stroke-linecap="round"/>
<path d="M101.9 232.7 Q90.5 231.5 82.9 243.2" stroke="#16a34a" stroke-width="2.5" fill="none" stroke-linecap="round"/>
<rect x="0" y="282" width="1200" height="18" fill="url(#groundGrad)"/>
<line x1="970.8" y1="282.0" x2="970.8" y2="249.2" stroke="#92400e" stroke-width="2"/>
<circle cx="970.8" cy="249.2" r="4" fill="#fef08a" opacity="0.6"/>
<circle cx="970.8" cy="249.2" r="8" fill="#fef08a" opacity="0.15" filter="url(#softGlow)"/>
<ellipse cx="388.7" cy="282.0" rx="6.2" ry="4.4" fill="#22c55e" opacity="0.6"/>
<ellipse cx="581.2" cy="282.0" rx="6.2" ry="4.3" fill="#22c55e" opacity="0.6"/>
<ellipse cx="343.5" cy="282.0" rx="5.1" ry="3.6" fill="#22c55e" opacity="0.6"/>
</svg>