<svg xmlns="http://www.w3.org/2000/svg" viewBox="0 0 1200 400" width="1200" height="400">
<defs>
<linearGradient id="bg" x1="0" y1="0" x2="0" y2="1"><stop offset="0%" stop-color="#94a3b8"/><stop offset="100%" stop-color="#0369a1"/></linearGradient>
<linearGradient id="warm" x1="0" y1="0" x2="1" y2="1"><stop offset="0%" stop-color="#969083" stop-opacity="0.18"/><stop offset="100%" stop-color="#969083" stop-opacity="0.06"/></linearGradient>
</defs>
<rect width="1200" height="400" fill="url(#bg)"/>
<path d="M0 400 L0 249.92997619851812 C60.0 242.1, 90.0 218.9, 150.0 216.3 C210.0 213.6, 240.0 216.3, 300.0 225.1 C360.0 222.1, 390.0 235.1, 450.0 227.1 C510.0 229.8, 540.0 226.1, 600.0 222.8 C660.0 217.8, 690.0 252.4, 750.0 250.1 C810.0 250.1, 840.0 235.9, 900.0 236.5 C960.0 244.6, 990.0 209.1, 1050.0 216.7 C1110.0 216.2, 1140.0 234.1, 1200.0 237.7 L1200 400 Z" fill="#367da9" opacity="0.45"/>
<path d="M0 400 L0 263.5034291445838 C52.5 261.1, 97.5 264.2, 150.0 268.6 C202.5 263.8, 247.5 267.1, 300.0 266.0 C352.5 264.0, 397.5 264.3, 450.0 257.0 C502.5 258.2, 547.5 255.9, 600.0 254.6 C652.5 258.4, 697.5 279.8, 750.0 275.9 C802.5 281.3, 847.5 272.5, 900.0 270.1 C952.5 263.5, 997.5 268.3, 1050.0 275.8 C1102.5 279.8, 1147.5 278.7, 1200.0 271.4 L1200 400 Z" fill="#0369a1" opacity="0.3"/>
<rect x="914.6" y="271.9" width="22.4" height="128.1" rx="7.4" fill="#058f72" opacity="0.54"/>
<rect x="919.6" y="281.9" width="4" height="5" rx="0.5" fill="#94a3b8" opacity="0.6"/>
<rect x="919.6" y="325.9" width="4" height="5" rx="0.5" fill="#94a3b8" opacity="0.6"/>
<rect x="1043.5" y="333.2" width="34.2" height="66.8" rx="6.3" fill="#04857e" opacity="0.64"/>
<rect x="197.3" y="367.6" width="42.3" height="32.4" rx="3.3" fill="#04847f" opacity="0.79"/>
<rect x="1019.6" y="339.5" width="14.3" height="60.5" rx="5.3" fill="#058d74" opacity="0.65"/>
<rect x="1021.6" y="326.9" width="30.6" height="73.1" rx="7.9" fill="#048084" opacity="0.71"/>
<rect x="447.2" y="345.9" width="23.8" height="54.1" rx="3.1" fill="#047e86" opacity="0.83"/>
<rect x="168.2" y="365.0" width="35.6" height="35.0" rx="7.6" fill="#048381" opacity="0.62"/>
<rect x="854.1" y="295.1" width="35.3" height="104.9" rx="6.7" fill="#05916f" opacity="0.74"/>
<rect x="724.2" y="262.8" width="23.8" height="137.2" rx="3.7" fill="#047e87" opacity="0.58"/>
<rect x="369.8" y="298.5" width="34.0" height="101.5" rx="6.1" fill="#058d74" opacity="0.53"/>
<rect x="560.1" y="362.0" width="46.4" height="38.0" rx="6.6" fill="#047e87" opacity="0.58"/>
<rect x="568.4" y="336.8" width="28.0" height="63.2" rx="5.4" fill="#05926d" opacity="0.53"/>
<rect x="965.9" y="316.8" width="37.2" height="83.2" rx="5.9" fill="#05946b" opacity="0.70"/>
<rect x="390.9" y="306.0" width="15.1" height="94.0" rx="6.6" fill="#05916f" opacity="0.53"/>
<rect x="395.9" y="316.0" width="4" height="5" rx="0.5" fill="#94a3b8" opacity="0.6"/>
<rect x="395.9" y="338.0" width="4" height="5" rx="0.5" fill="#94a3b8" opacity="0.6"/>
<circle cx="177.2" cy="24.3" r="6.9" fill="#059669" opacity="0.18"/>
<circle cx="839.1" cy="215.6" r="9.9" fill="#94a3b8" opacity="0.44"/>
<circle cx="71.6" cy="129.9" r="3.1" fill="#94a3b8" opacity="0.21"/>
<circle cx="268.5" cy="222.5" r="8.0" fill="#94a3b8" opacity="0.41"/>
<circle cx="1095.7" cy="30.2" r="9.4" fill="#94a3b8" opacity="0.18"/>
<circle cx="92.7" cy="208.7" r="7.9" fill="#94a3b8" opacity="0.23"/>
<circle cx="793.2" cy="168.8" r="8.4" fill="#059669" opacity="0.16"/>
<circle cx="368.1" cy="93.4" r="5.8" fill="#94a3b8" opacity="0.25"/>
<rect width="1200" height="400" fill="url(#warm)"/>
<rect width="1200" height="400" fill="#94a3b8" opacity="0.45"/>
</svg>