<svg xmlns="http://www.w3.org/2000/svg" viewBox="0 0 1200 300" width="1200" height="300">
<rect width="1200" height="300" fill="#ede8e0"/>
<path d="M0 300 L0 210.0 C418.6 177.7, 794.3 195.4, 1200 210.0 L1200 300 Z" fill="#c4c6be" opacity="0.3"/>
<rect x="175.5" y="226.7" width="45.2" height="73.3" fill="#aeb0a5"/>
<rect x="623.3" y="231.0" width="48.8" height="69.0" fill="#aeb0a5"/>
<rect x="931.2" y="228.5" width="57.7" height="71.5" fill="#aeb0a5"/>
<rect x="148.0" y="207.1" width="63.5" height="92.9" fill="#898d7d"/>
<rect x="162.8" y="219.1" width="6" height="8" fill="#b2b5ab" opacity="0.5"/>
<rect x="190.8" y="219.1" width="6" height="8" fill="#b2b5ab" opacity="0.5"/>
<rect x="176.8" y="235.1" width="6" height="8" fill="#b2b5ab" opacity="0.5"/>
<rect x="190.8" y="235.1" width="6" height="8" fill="#b2b5ab" opacity="0.5"/>
<rect x="162.8" y="251.1" width="6" height="8" fill="#b2b5ab" opacity="0.5"/>
<rect x="176.8" y="251.1" width="6" height="8" fill="#b2b5ab" opacity="0.5"/>
<rect x="190.8" y="251.1" width="6" height="8" fill="#b2b5ab" opacity="0.5"/>
<rect x="190.8" y="267.1" width="6" height="8" fill="#b2b5ab" opacity="0.5"/>
<rect x="400.5" y="212.2" width="55.5" height="87.8" fill="#898d7d"/>
<rect x="418.2" y="224.2" width="6" height="8" fill="#b2b5ab" opacity="0.5"/>
<rect x="432.2" y="224.2" width="6" height="8" fill="#b2b5ab" opacity="0.5"/>
<rect x="418.2" y="240.2" width="6" height="8" fill="#b2b5ab" opacity="0.5"/>
<rect x="418.2" y="256.2" width="6" height="8" fill="#b2b5ab" opacity="0.5"/>
<rect x="432.2" y="256.2" width="6" height="8" fill="#b2b5ab" opacity="0.5"/>
<rect x="418.2" y="272.2" width="6" height="8" fill="#b2b5ab" opacity="0.5"/>
<rect x="689.7" y="183.9" width="69.2" height="116.1" fill="#898d7d"/>
<rect x="721.3" y="195.9" width="6" height="8" fill="#b2b5ab" opacity="0.5"/>
<rect x="735.3" y="195.9" width="6" height="8" fill="#b2b5ab" opacity="0.5"/>
<rect x="707.3" y="211.9" width="6" height="8" fill="#b2b5ab" opacity="0.5"/>
<rect x="721.3" y="211.9" width="6" height="8" fill="#b2b5ab" opacity="0.5"/>
<rect x="735.3" y="211.9" width="6" height="8" fill="#b2b5ab" opacity="0.5"/>
<rect x="707.3" y="227.9" width="6" height="8" fill="#b2b5ab" opacity="0.5"/>
<rect x="735.3" y="227.9" width="6" height="8" fill="#b2b5ab" opacity="0.5"/>
<rect x="721.3" y="243.9" width="6" height="8" fill="#b2b5ab" opacity="0.5"/>
<rect x="735.3" y="243.9" width="6" height="8" fill="#b2b5ab" opacity="0.5"/>
<rect x="707.3" y="259.9" width="6" height="8" fill="#b2b5ab" opacity="0.5"/>
<rect x="1041.7" y="205.5" width="48.1" height="94.5" fill="#898d7d"/>
<rect x="1055.7" y="217.5" width="6" height="8" fill="#b2b5ab" opacity="0.5"/>
<rect x="1055.7" y="233.5" width="6" height="8" fill="#b2b5ab" opacity="0.5"/>
<rect x="1069.7" y="233.5" width="6" height="8" fill="#b2b5ab" opacity="0.5"/>
<rect x="1055.7" y="249.5" width="6" height="8" fill="#b2b5ab" opacity="0.5"/>
<rect x="1069.7" y="249.5" width="6" height="8" fill="#b2b5ab" opacity="0.5"/>
<rect x="1055.7" y="265.5" width="6" height="8" fill="#b2b5ab" opacity="0.5"/>
<rect x="1069.7" y="265.5" width="6" height="8" fill="#b2b5ab" opacity="0.5"/>
<rect x="181.3" y="191.4" width="65.4" height="108.6" fill="#6b705c"/>
<rect x="211.0" y="203.4" width="6" height="8" fill="#9fa295" opacity="0.5"/>
<rect x="225.0" y="203.4" width="6" height="8" fill="#9fa295" opacity="0.5"/>
<rect x="197.0" y="219.4" width="6" height="8" fill="#9fa295" opacity="0.5"/>
<rect x="211.0" y="219.4" width="6" height="8" fill="#9fa295" opacity="0.5"/>
<rect x="225.0" y="219.4" width="6" height="8" fill="#9fa295" opacity="0.5"/>
<rect x="197.0" y="235.4" width="6" height="8" fill="#9fa295" opacity="0.5"/>
<rect x="225.0" y="235.4" width="6" height="8" fill="#9fa295" opacity="0.5"/>
<rect x="197.0" y="251.4" width="6" height="8" fill="#9fa295" opacity="0.5"/>
<rect x="211.0" y="251.4" width="6" height="8" fill="#9fa295" opacity="0.5"/>
<rect x="225.0" y="251.4" width="6" height="8" fill="#9fa295" opacity="0.5"/>
<rect x="197.0" y="267.4" width="6" height="8" fill="#9fa295" opacity="0.5"/>
<rect x="457.6" y="161.2" width="58.4" height="138.8" fill="#6b705c"/>
<rect x="469.8" y="173.2" width="6" height="8" fill="#9fa295" opacity="0.5"/>
<rect x="497.8" y="173.2" width="6" height="8" fill="#9fa295" opacity="0.5"/>
<rect x="483.8" y="189.2" width="6" height="8" fill="#9fa295" opacity="0.5"/>
<rect x="483.8" y="205.2" width="6" height="8" fill="#9fa295" opacity="0.5"/>
<rect x="483.8" y="221.2" width="6" height="8" fill="#9fa295" opacity="0.5"/>
<rect x="497.8" y="221.2" width="6" height="8" fill="#9fa295" opacity="0.5"/>
<rect x="497.8" y="237.2" width="6" height="8" fill="#9fa295" opacity="0.5"/>
<rect x="469.8" y="253.2" width="6" height="8" fill="#9fa295" opacity="0.5"/>
<rect x="483.8" y="253.2" width="6" height="8" fill="#9fa295" opacity="0.5"/>
<rect x="497.8" y="253.2" width="6" height="8" fill="#9fa295" opacity="0.5"/>
<rect x="469.8" y="269.2" width="6" height="8" fill="#9fa295" opacity="0.5"/>
<rect x="483.8" y="269.2" width="6" height="8" fill="#9fa295" opacity="0.5"/>
<rect x="750.6" y="237.4" width="63.7" height="62.6" fill="#6b705c"/>
<rect x="765.4" y="249.4" width="6" height="8" fill="#9fa295" opacity="0.5"/>
<rect x="793.4" y="249.4" width="6" height="8" fill="#9fa295" opacity="0.5"/>
<rect x="765.4" y="265.4" width="6" height="8" fill="#9fa295" opacity="0.5"/>
<rect x="779.4" y="265.4" width="6" height="8" fill="#9fa295" opacity="0.5"/>
<rect x="793.4" y="265.4" width="6" height="8" fill="#9fa295" opacity="0.5"/>
<rect x="988.2" y="206.6" width="66.5" height="93.4" fill="#6b705c"/>
<rect x="1004.4" y="218.6" width="6" height="8" fill="#9fa295" opacity="0.5"/>
<rect x="1032.4" y="218.6" width="6" height="8" fill="#9fa295" opacity="0.5"/>
<rect x="1004.4" y="234.6" width="6" height="8" fill="#9fa295" opacity="0.5"/>
<rect x="1018.4" y="234.6" width="6" height="8" fill="#9fa295" opacity="0.5"/>
<rect x="1032.4" y="234.6" width="6" height="8" fill="#9fa295" opacity="0.5"/>
<rect x="1018.4" y="250.6" width="6" height="8" fill="#9fa295" opacity="0.5"/>
<rect x="1018.4" y="266.6" width="6" height="8" fill="#9fa295" opacity="0.5"/>
<rect x="1032.4" y="266.6" width="6" height="8" fill="#9fa295" opacity="0.5"/>
<rect x="0" y="298" width="1200" height="2" fill="#606553" opacity="0.15"/>
</svg>