<svg xmlns="http://www.w3.org/2000/svg" viewBox="0 0 1200 300" width="1200" height="300">
<defs>
<linearGradient id="skyGrad" x1="0" y1="0" x2="0" y2="1">
<stop offset="0%" stop-color="#a78bfa"/>
<stop offset="18%" stop-color="#ddb4f0"/>
<stop offset="35%" stop-color="#fda4af"/>
<stop offset="52%" stop-color="#fdba74"/>
<stop offset="72%" stop-color="#fef08a"/>
<stop offset="100%" stop-color="#fef9c3"/>
</linearGradient>
<linearGradient id="bldg_coral" x1="0" y1="0" x2="0" y2="1"><stop offset="0%" stop-color="#fecaca"/><stop offset="100%" stop-color="#fca5a5"/></linearGradient>
<linearGradient id="bldg_teal" x1="0" y1="0" x2="0" y2="1"><stop offset="0%" stop-color="#99f6e4"/><stop offset="100%" stop-color="#5eead4"/></linearGradient>
<linearGradient id="bldg_amber" x1="0" y1="0" x2="0" y2="1"><stop offset="0%" stop-color="#fde68a"/><stop offset="100%" stop-color="#fcd34d"/></linearGradient>
<linearGradient id="bldg_lavender" x1="0" y1="0" x2="0" y2="1"><stop offset="0%" stop-color="#ddd6fe"/><stop offset="100%" stop-color="#c4b5fd"/></linearGradient>
<linearGradient id="bldg_blue" x1="0" y1="0" x2="0" y2="1"><stop offset="0%" stop-color="#bfdbfe"/><stop offset="100%" stop-color="#93c5fd"/></linearGradient>
<linearGradient id="bldg_mint" x1="0" y1="0" x2="0" y2="1"><stop offset="0%" stop-color="#a7f3d0"/><stop offset="100%" stop-color="#6ee7b7"/></linearGradient>
<linearGradient id="bldg_rose" x1="0" y1="0" x2="0" y2="1"><stop offset="0%" stop-color="#fecdd3"/><stop offset="100%" stop-color="#fda4af"/></linearGradient>
<linearGradient id="bldg_sky" x1="0" y1="0" x2="0" y2="1"><stop offset="0%" stop-color="#bae6fd"/><stop offset="100%" stop-color="#7dd3fc"/></linearGradient>
<linearGradient id="roof_navyRoof" x1="0" y1="0" x2="0" y2="1"><stop offset="0%" stop-color="#4338ca"/><stop offset="100%" stop-color="#3730a3"/></linearGradient>
<linearGradient id="roof_coralRoof" x1="0" y1="0" x2="0" y2="1"><stop offset="0%" stop-color="#f87171"/><stop offset="100%" stop-color="#ef4444"/></linearGradient>
<linearGradient id="roof_tealRoof" x1="0" y1="0" x2="0" y2="1"><stop offset="0%" stop-color="#2dd4bf"/><stop offset="100%" stop-color="#14b8a6"/></linearGradient>
<radialGradient id="windowGlow" cx="50%" cy="50%" r="50%"><stop offset="0%" stop-color="#fef08a"/><stop offset="60%" stop-color="#fbbf24"/><stop offset="100%" stop-color="#f59e0b"/></radialGradient>
<linearGradient id="hillFar" x1="0" y1="0" x2="0" y2="1"><stop offset="0%" stop-color="#c4b5fd"/><stop offset="100%" stop-color="#a5b4fc"/></linearGradient>
<linearGradient id="hillMid" x1="0" y1="0" x2="0" y2="1"><stop offset="0%" stop-color="#86efac"/><stop offset="100%" stop-color="#4ade80"/></linearGradient>
<linearGradient id="hillNear" x1="0" y1="0" x2="0" y2="1"><stop offset="0%" stop-color="#34d399"/><stop offset="100%" stop-color="#10b981"/></linearGradient>
<linearGradient id="hillDesertFar" x1="0" y1="0" x2="0" y2="1"><stop offset="0%" stop-color="#fde68a"/><stop offset="100%" stop-color="#fcd34d"/></linearGradient>
<linearGradient id="hillDesertMid" x1="0" y1="0" x2="0" y2="1"><stop offset="0%" stop-color="#fcd34d"/><stop offset="100%" stop-color="#fbbf24"/></linearGradient>
<linearGradient id="hillDesertNear" x1="0" y1="0" x2="0" y2="1"><stop offset="0%" stop-color="#fbbf24"/><stop offset="100%" stop-color="#f59e0b"/></linearGradient>
<linearGradient id="groundGrad" x1="0" y1="0" x2="0" y2="1"><stop offset="0%" stop-color="#fef3c7"/><stop offset="100%" stop-color="#fde68a"/></linearGradient>
<linearGradient id="waterGrad" x1="0" y1="0" x2="0" y2="1"><stop offset="0%" stop-color="#bfdbfe"/><stop offset="100%" stop-color="#93c5fd"/></linearGradient>
<filter id="softGlow" x="-50%" y="-50%" width="200%" height="200%"><feGaussianBlur in="SourceGraphic" stdDeviation="12"/></filter>
</defs>
<rect width="1200" height="300" fill="url(#skyGrad)"/>
<circle cx="953.7" cy="45.8" r="45" fill="#fef08a" opacity="0.12" filter="url(#softGlow)"/>
<circle cx="953.7" cy="45.8" r="30" fill="#fde68a" opacity="0.18" filter="url(#softGlow)"/>
<circle cx="953.7" cy="45.8" r="16" fill="#fef9c3" opacity="0.25" filter="url(#softGlow)"/>
<path d="M0 300 L0.0 198.5 C129.6 198.5, 129.6 192.1, 259.2 192.1 C415.2 192.1, 415.2 189.7, 571.3 189.7 C711.3 189.7, 711.3 174.6, 851.4 174.6 C1025.7 174.6, 1025.7 201.9, 1200.0 201.9 L1200 300 Z" fill="url(#hillFar)" opacity="0.5"/>
<path d="M0 300 L0.0 212.4 C182.5 212.4, 182.5 213.5, 365.1 213.5 C595.8 213.5, 595.8 207.7, 826.6 207.7 C1013.3 207.7, 1013.3 219.7, 1200.0 219.7 L1200 300 Z" fill="url(#hillMid)" opacity="0.7"/>
<path d="M0 300 L0.0 231.5 C165.7 231.5, 165.7 236.0, 331.5 236.0 C591.8 236.0, 591.8 234.4, 852.1 234.4 C1026.0 234.4, 1026.0 234.8, 1200.0 234.8 L1200 300 Z" fill="url(#hillNear)" opacity="1"/>
<rect x="153.7" y="203.5" width="87.6" height="96.5" rx="3" fill="url(#bldg_rose)" opacity="0.7"/>
<polygon points="153.7,203.5 197.5,179.3 241.3,203.5" fill="url(#roof_tealRoof)" opacity="0.7"/>
<rect x="173.5" y="213.5" width="6" height="8" rx="1" fill="url(#windowGlow)" opacity="0.8574587348184821"/>
<rect x="215.5" y="213.5" width="6" height="8" rx="1" fill="url(#windowGlow)" opacity="0.8396021300179893"/>
<rect x="173.5" y="228.5" width="6" height="8" rx="1" fill="url(#windowGlow)" opacity="0.95029503337587"/>
<rect x="187.5" y="228.5" width="6" height="8" rx="1" fill="url(#windowGlow)" opacity="0.8369375660256191"/>
<rect x="215.5" y="228.5" width="6" height="8" rx="1" fill="url(#windowGlow)" opacity="0.76400014295429"/>
<rect x="173.5" y="243.5" width="6" height="8" rx="1" fill="url(#windowGlow)" opacity="0.9661906132782765"/>
<rect x="187.5" y="243.5" width="6" height="8" rx="1" fill="url(#windowGlow)" opacity="0.7074384506826468"/>
<rect x="215.5" y="243.5" width="6" height="8" rx="1" fill="url(#windowGlow)" opacity="0.7489040443435795"/>
<rect x="173.5" y="258.5" width="6" height="8" rx="1" fill="url(#windowGlow)" opacity="0.7865037993465102"/>
<rect x="187.5" y="258.5" width="6" height="8" rx="1" fill="url(#windowGlow)" opacity="0.9442468867377596"/>
<rect x="201.5" y="258.5" width="6" height="8" rx="1" fill="url(#windowGlow)" opacity="0.9364293552639099"/>
<rect x="546.8" y="211.9" width="89.4" height="88.1" rx="3" fill="url(#bldg_sky)" opacity="0.7"/>
<rect x="546.8" y="208.9" width="89.4" height="3" rx="1" fill="url(#roof_navyRoof)" opacity="0.7"/>
<rect x="567.5" y="221.9" width="6" height="8" rx="1" fill="url(#windowGlow)" opacity="0.9512718645628876"/>
<rect x="581.5" y="221.9" width="6" height="8" rx="1" fill="url(#windowGlow)" opacity="0.9741216269201234"/>
<rect x="595.5" y="221.9" width="6" height="8" rx="1" fill="url(#windowGlow)" opacity="0.7508049535335996"/>
<rect x="609.5" y="221.9" width="6" height="8" rx="1" fill="url(#windowGlow)" opacity="0.918546846750447"/>
<rect x="567.5" y="236.9" width="6" height="8" rx="1" fill="url(#windowGlow)" opacity="0.9447459438558415"/>
<rect x="581.5" y="236.9" width="6" height="8" rx="1" fill="url(#windowGlow)" opacity="0.7706081695717797"/>
<rect x="609.5" y="236.9" width="6" height="8" rx="1" fill="url(#windowGlow)" opacity="0.7409525866810942"/>
<rect x="567.5" y="251.9" width="6" height="8" rx="1" fill="url(#windowGlow)" opacity="0.7720518706701938"/>
<rect x="581.5" y="251.9" width="6" height="8" rx="1" fill="url(#windowGlow)" opacity="0.7557549231945326"/>
<rect x="609.5" y="251.9" width="6" height="8" rx="1" fill="url(#windowGlow)" opacity="0.7068132231509374"/>
<rect x="942.7" y="205.5" width="82.9" height="94.5" rx="3" fill="url(#bldg_coral)" opacity="0.7"/>
<polygon points="942.7,205.5 984.1,184.9 1025.6,205.5" fill="url(#roof_coralRoof)" opacity="0.7"/>
<rect x="960.1" y="215.5" width="6" height="8" rx="1" fill="url(#windowGlow)" opacity="0.7215154529183709"/>
<rect x="988.1" y="215.5" width="6" height="8" rx="1" fill="url(#windowGlow)" opacity="0.894492463113038"/>
<rect x="1002.1" y="215.5" width="6" height="8" rx="1" fill="url(#windowGlow)" opacity="0.9115273762548004"/>
<rect x="960.1" y="230.5" width="6" height="8" rx="1" fill="url(#windowGlow)" opacity="0.7957740894033453"/>
<rect x="988.1" y="230.5" width="6" height="8" rx="1" fill="url(#windowGlow)" opacity="0.7119290124214854"/>
<rect x="1002.1" y="230.5" width="6" height="8" rx="1" fill="url(#windowGlow)" opacity="0.9149555775872225"/>
<rect x="960.1" y="245.5" width="6" height="8" rx="1" fill="url(#windowGlow)" opacity="0.976904459566299"/>
<rect x="974.1" y="245.5" width="6" height="8" rx="1" fill="url(#windowGlow)" opacity="0.7433351539742831"/>
<rect x="988.1" y="245.5" width="6" height="8" rx="1" fill="url(#windowGlow)" opacity="0.809169863913753"/>
<rect x="1002.1" y="245.5" width="6" height="8" rx="1" fill="url(#windowGlow)" opacity="0.8271068140059274"/>
<rect x="974.1" y="260.5" width="6" height="8" rx="1" fill="url(#windowGlow)" opacity="0.7065163714841549"/>
<rect x="1002.1" y="260.5" width="6" height="8" rx="1" fill="url(#windowGlow)" opacity="0.7779568288372628"/>
<rect x="149.5" y="171.3" width="78.7" height="128.7" rx="3" fill="url(#bldg_teal)" opacity="0.85"/>
<polygon points="149.5,171.3 188.8,153.0 228.2,171.3" fill="url(#roof_tealRoof)" opacity="0.85"/>
<rect x="164.8" y="181.3" width="6" height="8" rx="1" fill="url(#windowGlow)" opacity="0.9853153149528966"/>
<rect x="178.8" y="181.3" width="6" height="8" rx="1" fill="url(#windowGlow)" opacity="0.7935638115711341"/>
<rect x="192.8" y="181.3" width="6" height="8" rx="1" fill="url(#windowGlow)" opacity="0.8226092890010258"/>
<rect x="206.8" y="181.3" width="6" height="8" rx="1" fill="url(#windowGlow)" opacity="0.8912872857839275"/>
<rect x="178.8" y="196.3" width="6" height="8" rx="1" fill="url(#windowGlow)" opacity="0.8258576965545572"/>
<rect x="192.8" y="196.3" width="6" height="8" rx="1" fill="url(#windowGlow)" opacity="0.7630470068487557"/>
<rect x="206.8" y="196.3" width="6" height="8" rx="1" fill="url(#windowGlow)" opacity="0.7149057049373656"/>
<rect x="164.8" y="211.3" width="6" height="8" rx="1" fill="url(#windowGlow)" opacity="0.8397027373033122"/>
<rect x="178.8" y="211.3" width="6" height="8" rx="1" fill="url(#windowGlow)" opacity="0.7007408769804708"/>
<rect x="206.8" y="211.3" width="6" height="8" rx="1" fill="url(#windowGlow)" opacity="0.9459361710333899"/>
<rect x="164.8" y="226.3" width="6" height="8" rx="1" fill="url(#windowGlow)" opacity="0.820832738196865"/>
<rect x="178.8" y="226.3" width="6" height="8" rx="1" fill="url(#windowGlow)" opacity="0.9189151330473437"/>
<rect x="192.8" y="226.3" width="6" height="8" rx="1" fill="url(#windowGlow)" opacity="0.9287167509685814"/>
<rect x="206.8" y="226.3" width="6" height="8" rx="1" fill="url(#windowGlow)" opacity="0.8290379304574047"/>
<rect x="164.8" y="241.3" width="6" height="8" rx="1" fill="url(#windowGlow)" opacity="0.9458333890632882"/>
<rect x="178.8" y="241.3" width="6" height="8" rx="1" fill="url(#windowGlow)" opacity="0.7790795171535944"/>
<rect x="192.8" y="241.3" width="6" height="8" rx="1" fill="url(#windowGlow)" opacity="0.9218627424546809"/>
<rect x="206.8" y="241.3" width="6" height="8" rx="1" fill="url(#windowGlow)" opacity="0.7554536103994834"/>
<rect x="164.8" y="256.3" width="6" height="8" rx="1" fill="url(#windowGlow)" opacity="0.7015921703081541"/>
<rect x="178.8" y="256.3" width="6" height="8" rx="1" fill="url(#windowGlow)" opacity="0.7841086869985371"/>
<rect x="192.8" y="256.3" width="6" height="8" rx="1" fill="url(#windowGlow)" opacity="0.7338396412012351"/>
<rect x="206.8" y="256.3" width="6" height="8" rx="1" fill="url(#windowGlow)" opacity="0.801072416827582"/>
<rect x="553.2" y="203.4" width="57.2" height="96.6" rx="3" fill="url(#bldg_amber)" opacity="0.85"/>
<rect x="564.7" y="191.8" width="34.3" height="11.6" rx="2" fill="url(#roof_navyRoof)" opacity="0.85"/>
<rect x="571.8" y="213.4" width="6" height="8" rx="1" fill="url(#windowGlow)" opacity="0.9970195340910086"/>
<rect x="585.8" y="213.4" width="6" height="8" rx="1" fill="url(#windowGlow)" opacity="0.8883302324862825"/>
<rect x="585.8" y="228.4" width="6" height="8" rx="1" fill="url(#windowGlow)" opacity="0.7656031489677741"/>
<rect x="585.8" y="243.4" width="6" height="8" rx="1" fill="url(#windowGlow)" opacity="0.8723694770002595"/>
<path d="M559.0 237.2 L581.8 237.2 L578.8 243.2 L562.0 243.2 Z" fill="url(#roof_tealRoof)" opacity="0.68"/>
<rect x="983.3" y="232.2" width="43.1" height="67.8" rx="3" fill="url(#bldg_lavender)" opacity="0.85"/>
<rect x="991.9" y="224.1" width="25.8" height="8.1" rx="2" fill="url(#roof_coralRoof)" opacity="0.85"/>
<rect x="1001.8" y="242.2" width="6" height="8" rx="1" fill="url(#windowGlow)" opacity="0.821563295238448"/>
<rect x="1001.8" y="257.2" width="6" height="8" rx="1" fill="url(#windowGlow)" opacity="0.7099577317060706"/>
<rect x="177.3" y="213.0" width="74.8" height="87.0" rx="3" fill="url(#bldg_blue)" opacity="1"/>
<polygon points="177.3,213.0 214.7,195.6 252.1,213.0" fill="url(#roof_tealRoof)" opacity="1"/>
<rect x="190.7" y="223.0" width="6" height="8" rx="1" fill="url(#windowGlow)" opacity="0.9162036574986779"/>
<rect x="204.7" y="223.0" width="6" height="8" rx="1" fill="url(#windowGlow)" opacity="0.8996002128811553"/>
<rect x="218.7" y="223.0" width="6" height="8" rx="1" fill="url(#windowGlow)" opacity="0.7809800770976487"/>
<rect x="232.7" y="223.0" width="6" height="8" rx="1" fill="url(#windowGlow)" opacity="0.8982580449889683"/>
<rect x="190.7" y="238.0" width="6" height="8" rx="1" fill="url(#windowGlow)" opacity="0.7314038025827164"/>
<rect x="204.7" y="238.0" width="6" height="8" rx="1" fill="url(#windowGlow)" opacity="0.9694703551798455"/>
<rect x="218.7" y="238.0" width="6" height="8" rx="1" fill="url(#windowGlow)" opacity="0.7919138350486353"/>
<rect x="232.7" y="238.0" width="6" height="8" rx="1" fill="url(#windowGlow)" opacity="0.8557818420491097"/>
<rect x="204.7" y="253.0" width="6" height="8" rx="1" fill="url(#windowGlow)" opacity="0.9276030954102068"/>
<rect x="218.7" y="253.0" width="6" height="8" rx="1" fill="url(#windowGlow)" opacity="0.8618923722588887"/>
<rect x="232.7" y="253.0" width="6" height="8" rx="1" fill="url(#windowGlow)" opacity="0.8404171162938778"/>
<rect x="209.7" y="284.0" width="10" height="16" rx="2" fill="url(#roof_navyRoof)" opacity="0.8"/>
<rect x="211.7" y="287.0" width="6" height="10" rx="1" fill="url(#windowGlow)" opacity="0.45"/>
<rect x="604.4" y="244.7" width="46.5" height="55.3" rx="3" fill="url(#bldg_mint)" opacity="1"/>
<polygon points="604.4,244.7 627.6,228.8 650.9,244.7" fill="url(#roof_navyRoof)" opacity="1"/>
<rect x="617.6" y="254.7" width="6" height="8" rx="1" fill="url(#windowGlow)" opacity="0.9501879091608281"/>
<rect x="631.6" y="254.7" width="6" height="8" rx="1" fill="url(#windowGlow)" opacity="0.8881048044134419"/>
<rect x="622.6" y="284.0" width="10" height="16" rx="2" fill="url(#roof_navyRoof)" opacity="0.8"/>
<rect x="624.6" y="287.0" width="6" height="10" rx="1" fill="url(#windowGlow)" opacity="0.45"/>
<rect x="955.8" y="120.5" width="37.2" height="179.5" rx="3" fill="url(#bldg_rose)" opacity="1"/>
<polygon points="955.8,120.5 974.4,112.2 993.0,120.5" fill="url(#roof_coralRoof)" opacity="1"/>
<rect x="971.4" y="130.5" width="6" height="8" rx="1" fill="url(#windowGlow)" opacity="0.9750490240170848"/>
<rect x="971.4" y="160.5" width="6" height="8" rx="1" fill="url(#windowGlow)" opacity="0.7017110298861334"/>
<rect x="971.4" y="175.5" width="6" height="8" rx="1" fill="url(#windowGlow)" opacity="0.774816969304726"/>
<rect x="971.4" y="205.5" width="6" height="8" rx="1" fill="url(#windowGlow)" opacity="0.9620429623229629"/>
<rect x="971.4" y="235.5" width="6" height="8" rx="1" fill="url(#windowGlow)" opacity="0.8106483154048436"/>
<rect x="969.4" y="284.0" width="10" height="16" rx="2" fill="url(#roof_navyRoof)" opacity="0.8"/>
<rect x="971.4" y="287.0" width="6" height="10" rx="1" fill="url(#windowGlow)" opacity="0.45"/>
<rect x="967.9" y="146.5" width="13.0" height="5" rx="1" fill="#15803d" opacity="0.7"/>
<circle cx="970.9" cy="145.5" r="2.5" fill="#f87171" opacity="0.85"/>
<circle cx="975.2" cy="145.5" r="2.5" fill="#fb923c" opacity="0.85"/>
<circle cx="979.5" cy="145.5" r="2.5" fill="#fbbf24" opacity="0.85"/>
<path d="M428.2 285.0 Q457.5 260.3 445.8 235.6" stroke="#92400e" stroke-width="4" fill="none" stroke-linecap="round"/>
<path d="M445.8 235.6 Q434.8 225.0 427.4 225.5" stroke="#16a34a" stroke-width="2.5" fill="none" stroke-linecap="round"/>
<path d="M445.8 235.6 Q453.3 222.0 458.3 219.0" stroke="#22c55e" stroke-width="2.5" fill="none" stroke-linecap="round"/>
<path d="M445.8 235.6 Q465.6 229.6 478.7 235.6" stroke="#15803d" stroke-width="2.5" fill="none" stroke-linecap="round"/>
<path d="M445.8 235.6 Q452.7 236.5 457.2 250.7" stroke="#4ade80" stroke-width="2.5" fill="none" stroke-linecap="round"/>
<path d="M445.8 235.6 Q434.2 234.4 426.4 246.3" stroke="#16a34a" stroke-width="2.5" fill="none" stroke-linecap="round"/>
<path d="M803.3 285.0 Q825.0 259.5 816.4 233.9" stroke="#92400e" stroke-width="4" fill="none" stroke-linecap="round"/>
<path d="M816.4 233.9 Q803.1 222.4 794.2 221.8" stroke="#16a34a" stroke-width="2.5" fill="none" stroke-linecap="round"/>
<path d="M816.4 233.9 Q821.8 222.5 825.4 221.9" stroke="#22c55e" stroke-width="2.5" fill="none" stroke-linecap="round"/>
<path d="M816.4 233.9 Q834.6 227.9 846.7 233.9" stroke="#15803d" stroke-width="2.5" fill="none" stroke-linecap="round"/>
<path d="M816.4 233.9 Q823.2 234.8 827.7 249.0" stroke="#4ade80" stroke-width="2.5" fill="none" stroke-linecap="round"/>
<path d="M816.4 233.9 Q804.5 232.9 796.6 244.8" stroke="#16a34a" stroke-width="2.5" fill="none" stroke-linecap="round"/>
<path d="M137.0 285.0 Q160.9 262.3 151.3 239.7" stroke="#92400e" stroke-width="4" fill="none" stroke-linecap="round"/>
<path d="M151.3 239.7 Q140.2 229.0 132.7 229.5" stroke="#16a34a" stroke-width="2.5" fill="none" stroke-linecap="round"/>
<path d="M151.3 239.7 Q156.0 229.0 159.1 229.3" stroke="#22c55e" stroke-width="2.5" fill="none" stroke-linecap="round"/>
<path d="M151.3 239.7 Q166.8 233.7 177.1 239.7" stroke="#15803d" stroke-width="2.5" fill="none" stroke-linecap="round"/>
<path d="M151.3 239.7 Q157.1 239.5 161.0 252.5" stroke="#4ade80" stroke-width="2.5" fill="none" stroke-linecap="round"/>
<path d="M151.3 239.7 Q139.4 238.7 131.4 250.6" stroke="#16a34a" stroke-width="2.5" fill="none" stroke-linecap="round"/>
<path d="M1039.5 285.0 Q1065.1 256.5 1054.8 228.0" stroke="#92400e" stroke-width="4" fill="none" stroke-linecap="round"/>
<path d="M1054.8 228.0 Q1045.3 218.0 1038.9 219.2" stroke="#16a34a" stroke-width="2.5" fill="none" stroke-linecap="round"/>
<path d="M1054.8 228.0 Q1062.0 214.8 1066.8 212.1" stroke="#22c55e" stroke-width="2.5" fill="none" stroke-linecap="round"/>
<path d="M1054.8 228.0 Q1066.9 222.0 1075.0 228.0" stroke="#15803d" stroke-width="2.5" fill="none" stroke-linecap="round"/>
<path d="M1054.8 228.0 Q1059.7 226.9 1063.0 238.8" stroke="#4ade80" stroke-width="2.5" fill="none" stroke-linecap="round"/>
<path d="M1054.8 228.0 Q1042.0 227.4 1033.4 239.8" stroke="#16a34a" stroke-width="2.5" fill="none" stroke-linecap="round"/>
<rect x="0" y="282" width="1200" height="18" fill="url(#groundGrad)"/>
<line x1="1102.3" y1="282.0" x2="1102.3" y2="250.4" stroke="#92400e" stroke-width="2"/>
<circle cx="1102.3" cy="250.4" r="4" fill="#fef08a" opacity="0.6"/>
<circle cx="1102.3" cy="250.4" r="8" fill="#fef08a" opacity="0.15" filter="url(#softGlow)"/>
<line x1="483.4" y1="282.0" x2="483.4" y2="245.9" stroke="#92400e" stroke-width="2"/>
<circle cx="483.4" cy="245.9" r="4" fill="#fef08a" opacity="0.6"/>
<circle cx="483.4" cy="245.9" r="8" fill="#fef08a" opacity="0.15" filter="url(#softGlow)"/>
<ellipse cx="601.2" cy="282.0" rx="5.0" ry="3.5" fill="#22c55e" opacity="0.6"/>
<ellipse cx="67.9" cy="282.0" rx="6.8" ry="4.8" fill="#22c55e" opacity="0.6"/>
</svg>