<svg xmlns="http://www.w3.org/2000/svg" viewBox="0 0 1200 300" width="1200" height="300">
<rect width="1200" height="300" fill="#e0eff2"/>
<path d="M0 300 L0 210.0 C312.8 165.0, 990.4 193.7, 1200 210.0 L1200 300 Z" fill="#aac2c9" opacity="0.3"/>
<rect x="203.2" y="212.5" width="51.0" height="87.5" fill="#8aabb4"/>
<rect x="503.9" y="225.9" width="89.8" height="74.1" fill="#8aabb4"/>
<rect x="936.7" y="213.6" width="62.6" height="86.4" fill="#8aabb4"/>
<rect x="142.9" y="210.9" width="73.8" height="89.1" fill="#558592"/>
<rect x="155.8" y="222.9" width="6" height="8" fill="#91b0b8" opacity="0.5"/>
<rect x="169.8" y="222.9" width="6" height="8" fill="#91b0b8" opacity="0.5"/>
<rect x="183.8" y="222.9" width="6" height="8" fill="#91b0b8" opacity="0.5"/>
<rect x="197.8" y="222.9" width="6" height="8" fill="#91b0b8" opacity="0.5"/>
<rect x="155.8" y="238.9" width="6" height="8" fill="#91b0b8" opacity="0.5"/>
<rect x="169.8" y="238.9" width="6" height="8" fill="#91b0b8" opacity="0.5"/>
<rect x="183.8" y="238.9" width="6" height="8" fill="#91b0b8" opacity="0.5"/>
<rect x="197.8" y="238.9" width="6" height="8" fill="#91b0b8" opacity="0.5"/>
<rect x="155.8" y="254.9" width="6" height="8" fill="#91b0b8" opacity="0.5"/>
<rect x="169.8" y="254.9" width="6" height="8" fill="#91b0b8" opacity="0.5"/>
<rect x="183.8" y="254.9" width="6" height="8" fill="#91b0b8" opacity="0.5"/>
<rect x="197.8" y="254.9" width="6" height="8" fill="#91b0b8" opacity="0.5"/>
<rect x="155.8" y="270.9" width="6" height="8" fill="#91b0b8" opacity="0.5"/>
<rect x="183.8" y="270.9" width="6" height="8" fill="#91b0b8" opacity="0.5"/>
<rect x="452.5" y="149.3" width="61.5" height="150.7" fill="#558592"/>
<rect x="466.3" y="161.3" width="6" height="8" fill="#91b0b8" opacity="0.5"/>
<rect x="494.3" y="161.3" width="6" height="8" fill="#91b0b8" opacity="0.5"/>
<rect x="466.3" y="177.3" width="6" height="8" fill="#91b0b8" opacity="0.5"/>
<rect x="480.3" y="177.3" width="6" height="8" fill="#91b0b8" opacity="0.5"/>
<rect x="466.3" y="193.3" width="6" height="8" fill="#91b0b8" opacity="0.5"/>
<rect x="480.3" y="193.3" width="6" height="8" fill="#91b0b8" opacity="0.5"/>
<rect x="494.3" y="193.3" width="6" height="8" fill="#91b0b8" opacity="0.5"/>
<rect x="466.3" y="209.3" width="6" height="8" fill="#91b0b8" opacity="0.5"/>
<rect x="466.3" y="225.3" width="6" height="8" fill="#91b0b8" opacity="0.5"/>
<rect x="480.3" y="225.3" width="6" height="8" fill="#91b0b8" opacity="0.5"/>
<rect x="466.3" y="241.3" width="6" height="8" fill="#91b0b8" opacity="0.5"/>
<rect x="480.3" y="241.3" width="6" height="8" fill="#91b0b8" opacity="0.5"/>
<rect x="494.3" y="241.3" width="6" height="8" fill="#91b0b8" opacity="0.5"/>
<rect x="480.3" y="257.3" width="6" height="8" fill="#91b0b8" opacity="0.5"/>
<rect x="494.3" y="257.3" width="6" height="8" fill="#91b0b8" opacity="0.5"/>
<rect x="480.3" y="273.3" width="6" height="8" fill="#91b0b8" opacity="0.5"/>
<rect x="494.3" y="273.3" width="6" height="8" fill="#91b0b8" opacity="0.5"/>
<rect x="683.5" y="176.8" width="79.3" height="123.2" fill="#558592"/>
<rect x="713.1" y="188.8" width="6" height="8" fill="#91b0b8" opacity="0.5"/>
<rect x="727.1" y="188.8" width="6" height="8" fill="#91b0b8" opacity="0.5"/>
<rect x="741.1" y="188.8" width="6" height="8" fill="#91b0b8" opacity="0.5"/>
<rect x="699.1" y="204.8" width="6" height="8" fill="#91b0b8" opacity="0.5"/>
<rect x="713.1" y="204.8" width="6" height="8" fill="#91b0b8" opacity="0.5"/>
<rect x="727.1" y="204.8" width="6" height="8" fill="#91b0b8" opacity="0.5"/>
<rect x="741.1" y="204.8" width="6" height="8" fill="#91b0b8" opacity="0.5"/>
<rect x="699.1" y="220.8" width="6" height="8" fill="#91b0b8" opacity="0.5"/>
<rect x="713.1" y="220.8" width="6" height="8" fill="#91b0b8" opacity="0.5"/>
<rect x="727.1" y="220.8" width="6" height="8" fill="#91b0b8" opacity="0.5"/>
<rect x="741.1" y="220.8" width="6" height="8" fill="#91b0b8" opacity="0.5"/>
<rect x="699.1" y="236.8" width="6" height="8" fill="#91b0b8" opacity="0.5"/>
<rect x="713.1" y="236.8" width="6" height="8" fill="#91b0b8" opacity="0.5"/>
<rect x="727.1" y="236.8" width="6" height="8" fill="#91b0b8" opacity="0.5"/>
<rect x="741.1" y="236.8" width="6" height="8" fill="#91b0b8" opacity="0.5"/>
<rect x="699.1" y="252.8" width="6" height="8" fill="#91b0b8" opacity="0.5"/>
<rect x="713.1" y="252.8" width="6" height="8" fill="#91b0b8" opacity="0.5"/>
<rect x="727.1" y="252.8" width="6" height="8" fill="#91b0b8" opacity="0.5"/>
<rect x="741.1" y="252.8" width="6" height="8" fill="#91b0b8" opacity="0.5"/>
<rect x="699.1" y="268.8" width="6" height="8" fill="#91b0b8" opacity="0.5"/>
<rect x="713.1" y="268.8" width="6" height="8" fill="#91b0b8" opacity="0.5"/>
<rect x="741.1" y="268.8" width="6" height="8" fill="#91b0b8" opacity="0.5"/>
<rect x="983.1" y="166.8" width="38.9" height="133.2" fill="#558592"/>
<rect x="999.6" y="178.8" width="6" height="8" fill="#91b0b8" opacity="0.5"/>
<rect x="999.6" y="194.8" width="6" height="8" fill="#91b0b8" opacity="0.5"/>
<rect x="999.6" y="210.8" width="6" height="8" fill="#91b0b8" opacity="0.5"/>
<rect x="999.6" y="226.8" width="6" height="8" fill="#91b0b8" opacity="0.5"/>
<rect x="999.6" y="242.8" width="6" height="8" fill="#91b0b8" opacity="0.5"/>
<rect x="999.6" y="258.8" width="6" height="8" fill="#91b0b8" opacity="0.5"/>
<rect x="105.6" y="169.0" width="71.0" height="131.0" fill="#2b6777"/>
<rect x="124.1" y="181.0" width="6" height="8" fill="#759ca7" opacity="0.5"/>
<rect x="138.1" y="197.0" width="6" height="8" fill="#759ca7" opacity="0.5"/>
<rect x="152.1" y="197.0" width="6" height="8" fill="#759ca7" opacity="0.5"/>
<rect x="124.1" y="213.0" width="6" height="8" fill="#759ca7" opacity="0.5"/>
<rect x="138.1" y="213.0" width="6" height="8" fill="#759ca7" opacity="0.5"/>
<rect x="152.1" y="213.0" width="6" height="8" fill="#759ca7" opacity="0.5"/>
<rect x="124.1" y="229.0" width="6" height="8" fill="#759ca7" opacity="0.5"/>
<rect x="152.1" y="229.0" width="6" height="8" fill="#759ca7" opacity="0.5"/>
<rect x="124.1" y="245.0" width="6" height="8" fill="#759ca7" opacity="0.5"/>
<rect x="138.1" y="245.0" width="6" height="8" fill="#759ca7" opacity="0.5"/>
<rect x="152.1" y="245.0" width="6" height="8" fill="#759ca7" opacity="0.5"/>
<rect x="124.1" y="261.0" width="6" height="8" fill="#759ca7" opacity="0.5"/>
<rect x="138.1" y="261.0" width="6" height="8" fill="#759ca7" opacity="0.5"/>
<rect x="152.1" y="261.0" width="6" height="8" fill="#759ca7" opacity="0.5"/>
<rect x="422.8" y="113.2" width="30.2" height="186.8" fill="#2b6777"/>
<rect x="435.0" y="125.2" width="6" height="8" fill="#759ca7" opacity="0.5"/>
<rect x="435.0" y="141.2" width="6" height="8" fill="#759ca7" opacity="0.5"/>
<rect x="435.0" y="157.2" width="6" height="8" fill="#759ca7" opacity="0.5"/>
<rect x="435.0" y="173.2" width="6" height="8" fill="#759ca7" opacity="0.5"/>
<rect x="435.0" y="189.2" width="6" height="8" fill="#759ca7" opacity="0.5"/>
<rect x="435.0" y="205.2" width="6" height="8" fill="#759ca7" opacity="0.5"/>
<rect x="435.0" y="237.2" width="6" height="8" fill="#759ca7" opacity="0.5"/>
<rect x="435.0" y="269.2" width="6" height="8" fill="#759ca7" opacity="0.5"/>
<rect x="716.1" y="126.0" width="30.2" height="174.0" fill="#2b6777"/>
<rect x="728.2" y="138.0" width="6" height="8" fill="#759ca7" opacity="0.5"/>
<rect x="728.2" y="154.0" width="6" height="8" fill="#759ca7" opacity="0.5"/>
<rect x="728.2" y="170.0" width="6" height="8" fill="#759ca7" opacity="0.5"/>
<rect x="728.2" y="186.0" width="6" height="8" fill="#759ca7" opacity="0.5"/>
<rect x="728.2" y="218.0" width="6" height="8" fill="#759ca7" opacity="0.5"/>
<rect x="728.2" y="234.0" width="6" height="8" fill="#759ca7" opacity="0.5"/>
<rect x="728.2" y="250.0" width="6" height="8" fill="#759ca7" opacity="0.5"/>
<rect x="728.2" y="266.0" width="6" height="8" fill="#759ca7" opacity="0.5"/>
<rect x="972.7" y="231.6" width="64.9" height="68.4" fill="#2b6777"/>
<rect x="1002.1" y="243.6" width="6" height="8" fill="#759ca7" opacity="0.5"/>
<rect x="1016.1" y="243.6" width="6" height="8" fill="#759ca7" opacity="0.5"/>
<rect x="1002.1" y="259.6" width="6" height="8" fill="#759ca7" opacity="0.5"/>
<rect x="0" y="298" width="1200" height="2" fill="#275d6b" opacity="0.15"/>
</svg>