<svg xmlns="http://www.w3.org/2000/svg" viewBox="0 0 1200 300" width="1200" height="300">
<defs><linearGradient id="skyGrad" x1="0" y1="0" x2="0" y2="1"><stop offset="0%" stop-color="#e6ecf2"/><stop offset="100%" stop-color="#f0eeec"/></linearGradient></defs><rect width="1200" height="300" fill="url(#skyGrad)"/>
<path d="M0 300 L0 197.9 C389.8 179.6, 990.4 189.1, 1200 197.9 L1200 300 Z" fill="#aac2c9" opacity="0.25"/>
<rect x="177.1" y="173.6" width="68.8" height="126.4" fill="#8aabb4"/>
<rect x="547.8" y="210.7" width="42.5" height="89.3" fill="#8aabb4"/>
<rect x="939.7" y="182.6" width="59.7" height="117.4" fill="#8aabb4"/>
<rect x="109.9" y="170.3" width="61.3" height="129.7" fill="#558592"/>
<rect x="123.5" y="182.3" width="6" height="8" fill="#91b0b8" opacity="0.5"/>
<rect x="137.5" y="182.3" width="6" height="8" fill="#91b0b8" opacity="0.5"/>
<rect x="151.5" y="182.3" width="6" height="8" fill="#91b0b8" opacity="0.5"/>
<rect x="123.5" y="198.3" width="6" height="8" fill="#91b0b8" opacity="0.5"/>
<rect x="137.5" y="198.3" width="6" height="8" fill="#91b0b8" opacity="0.5"/>
<rect x="151.5" y="198.3" width="6" height="8" fill="#91b0b8" opacity="0.5"/>
<rect x="123.5" y="214.3" width="6" height="8" fill="#91b0b8" opacity="0.5"/>
<rect x="137.5" y="214.3" width="6" height="8" fill="#91b0b8" opacity="0.5"/>
<rect x="123.5" y="230.3" width="6" height="8" fill="#91b0b8" opacity="0.5"/>
<rect x="151.5" y="230.3" width="6" height="8" fill="#91b0b8" opacity="0.5"/>
<rect x="137.5" y="246.3" width="6" height="8" fill="#91b0b8" opacity="0.5"/>
<rect x="151.5" y="246.3" width="6" height="8" fill="#91b0b8" opacity="0.5"/>
<rect x="123.5" y="262.3" width="6" height="8" fill="#91b0b8" opacity="0.5"/>
<rect x="151.5" y="262.3" width="6" height="8" fill="#91b0b8" opacity="0.5"/>
<rect x="450.1" y="135.7" width="71.1" height="164.3" fill="#558592"/>
<rect x="468.6" y="147.7" width="6" height="8" fill="#91b0b8" opacity="0.5"/>
<rect x="482.6" y="147.7" width="6" height="8" fill="#91b0b8" opacity="0.5"/>
<rect x="482.6" y="163.7" width="6" height="8" fill="#91b0b8" opacity="0.5"/>
<rect x="496.6" y="163.7" width="6" height="8" fill="#91b0b8" opacity="0.5"/>
<rect x="482.6" y="179.7" width="6" height="8" fill="#91b0b8" opacity="0.5"/>
<rect x="496.6" y="179.7" width="6" height="8" fill="#91b0b8" opacity="0.5"/>
<rect x="468.6" y="195.7" width="6" height="8" fill="#91b0b8" opacity="0.5"/>
<rect x="496.6" y="195.7" width="6" height="8" fill="#91b0b8" opacity="0.5"/>
<rect x="468.6" y="211.7" width="6" height="8" fill="#91b0b8" opacity="0.5"/>
<rect x="496.6" y="211.7" width="6" height="8" fill="#91b0b8" opacity="0.5"/>
<rect x="496.6" y="227.7" width="6" height="8" fill="#91b0b8" opacity="0.5"/>
<rect x="720.1" y="227.3" width="47.3" height="72.7" fill="#558592"/>
<rect x="728.4" y="214.4" width="30.7" height="12.8" fill="#517e8b"/>
<rect x="733.8" y="226.4" width="6" height="8" fill="#91b0b8" opacity="0.5"/>
<rect x="747.8" y="226.4" width="6" height="8" fill="#91b0b8" opacity="0.5"/>
<rect x="747.8" y="242.4" width="6" height="8" fill="#91b0b8" opacity="0.5"/>
<rect x="733.8" y="258.4" width="6" height="8" fill="#91b0b8" opacity="0.5"/>
<rect x="747.8" y="258.4" width="6" height="8" fill="#91b0b8" opacity="0.5"/>
<rect x="1016.4" y="142.0" width="44.4" height="158.0" fill="#558592"/>
<rect x="1028.6" y="154.0" width="6" height="8" fill="#91b0b8" opacity="0.5"/>
<rect x="1042.6" y="154.0" width="6" height="8" fill="#91b0b8" opacity="0.5"/>
<rect x="1028.6" y="170.0" width="6" height="8" fill="#91b0b8" opacity="0.5"/>
<rect x="1042.6" y="170.0" width="6" height="8" fill="#91b0b8" opacity="0.5"/>
<rect x="1028.6" y="186.0" width="6" height="8" fill="#91b0b8" opacity="0.5"/>
<rect x="1042.6" y="186.0" width="6" height="8" fill="#91b0b8" opacity="0.5"/>
<rect x="1028.6" y="202.0" width="6" height="8" fill="#91b0b8" opacity="0.5"/>
<rect x="1042.6" y="202.0" width="6" height="8" fill="#91b0b8" opacity="0.5"/>
<rect x="1028.6" y="218.0" width="6" height="8" fill="#91b0b8" opacity="0.5"/>
<rect x="1042.6" y="218.0" width="6" height="8" fill="#91b0b8" opacity="0.5"/>
<rect x="1028.6" y="234.0" width="6" height="8" fill="#91b0b8" opacity="0.5"/>
<rect x="1042.6" y="234.0" width="6" height="8" fill="#91b0b8" opacity="0.5"/>
<rect x="159.8" y="250.4" width="36.0" height="49.6" fill="#2b6777"/>
<polygon points="159.8,250.4 177.8,241.4 195.8,250.4" fill="#285f6d"/>
<rect x="474.3" y="250.6" width="42.2" height="49.4" fill="#2b6777"/>
<polygon points="474.3,250.6 495.5,240.1 516.6,250.6" fill="#285f6d"/>
<rect x="749.7" y="162.2" width="46.5" height="137.8" fill="#2b6777"/>
<rect x="757.9" y="137.9" width="30.3" height="24.3" fill="#296271"/>
<rect x="763.0" y="149.9" width="6" height="8" fill="#759ca7" opacity="0.5"/>
<rect x="777.0" y="149.9" width="6" height="8" fill="#759ca7" opacity="0.5"/>
<rect x="763.0" y="165.9" width="6" height="8" fill="#759ca7" opacity="0.5"/>
<rect x="763.0" y="181.9" width="6" height="8" fill="#759ca7" opacity="0.5"/>
<rect x="777.0" y="181.9" width="6" height="8" fill="#759ca7" opacity="0.5"/>
<rect x="777.0" y="213.9" width="6" height="8" fill="#759ca7" opacity="0.5"/>
<rect x="763.0" y="229.9" width="6" height="8" fill="#759ca7" opacity="0.5"/>
<rect x="777.0" y="229.9" width="6" height="8" fill="#759ca7" opacity="0.5"/>
<rect x="975.9" y="145.9" width="40.7" height="154.1" fill="#2b6777"/>
<rect x="993.2" y="157.9" width="6" height="8" fill="#759ca7" opacity="0.5"/>
<rect x="993.2" y="173.9" width="6" height="8" fill="#759ca7" opacity="0.5"/>
<rect x="993.2" y="205.9" width="6" height="8" fill="#759ca7" opacity="0.5"/>
<rect x="993.2" y="221.9" width="6" height="8" fill="#759ca7" opacity="0.5"/>
<rect x="993.2" y="237.9" width="6" height="8" fill="#759ca7" opacity="0.5"/>
<line x1="335.1" y1="285.0" x2="335.1" y2="272.9" stroke="#6b5a42" stroke-width="3"/>
<circle cx="335.1" cy="255.5" r="17.3" fill="#507d42"/>
<line x1="633.1" y1="285.0" x2="633.1" y2="272.5" stroke="#6b5a42" stroke-width="3"/>
<circle cx="633.1" cy="256.2" r="16.3" fill="#598a49"/>
<line x1="886.1" y1="285.0" x2="886.1" y2="271.1" stroke="#6b5a42" stroke-width="3"/>
<circle cx="886.1" cy="259.1" r="12.0" fill="#507d42"/>
<line x1="1035.0" y1="285.0" x2="1035.0" y2="272.1" stroke="#6b5a42" stroke-width="3"/>
<circle cx="1035.0" cy="254.5" r="17.5" fill="#517e43"/>
<line x1="706.0" y1="285.0" x2="706.0" y2="272.2" stroke="#6b5a42" stroke-width="3"/>
<circle cx="706.0" cy="260.1" r="12.1" fill="#527f43"/>
<line x1="733.9" y1="285.0" x2="733.9" y2="273.3" stroke="#6b5a42" stroke-width="3"/>
<circle cx="733.9" cy="257.7" r="15.6" fill="#507c42"/>
<line x1="493.7" y1="285.0" x2="493.7" y2="274.0" stroke="#6b5a42" stroke-width="3"/>
<circle cx="493.7" cy="257.0" r="17.0" fill="#548345"/>
<rect x="0" y="285" width="1200" height="15" fill="#9aaa85" opacity="0.4"/>
</svg>