<svg xmlns="http://www.w3.org/2000/svg" viewBox="0 0 1200 400" width="1200" height="400">
<defs>
<linearGradient id="bg" x1="0" y1="0" x2="0" y2="1"><stop offset="0%" stop-color="#d4a76a"/><stop offset="100%" stop-color="#ea580c"/></linearGradient>
<linearGradient id="warm" x1="0" y1="0" x2="1" y2="1"><stop offset="0%" stop-color="#9b907c" stop-opacity="0.18"/><stop offset="100%" stop-color="#9b907c" stop-opacity="0.06"/></linearGradient>
</defs>
<rect width="1200" height="400" fill="url(#bg)"/>
<path d="M0 400 L0 234.034422121247 C60.0 230.4, 90.0 230.8, 150.0 226.2 C210.0 218.6, 240.0 243.4, 300.0 250.2 C360.0 245.3, 390.0 217.6, 450.0 215.4 C510.0 222.6, 540.0 234.9, 600.0 232.0 C660.0 230.8, 690.0 233.4, 750.0 228.5 C810.0 222.8, 840.0 235.4, 900.0 241.9 C960.0 248.4, 990.0 214.5, 1050.0 215.3 C1110.0 221.1, 1140.0 250.5, 1200.0 242.9 L1200 400 Z" fill="#e2742d" opacity="0.45"/>
<path d="M0 400 L0 265.1337293864259 C52.5 264.2, 97.5 262.7, 150.0 268.8 C202.5 262.5, 247.5 267.4, 300.0 269.4 C352.5 265.5, 397.5 267.6, 450.0 265.8 C502.5 266.7, 547.5 274.9, 600.0 277.5 C652.5 281.9, 697.5 261.5, 750.0 268.0 C802.5 274.3, 847.5 259.4, 900.0 261.8 C952.5 268.3, 997.5 259.1, 1050.0 254.2 C1102.5 256.3, 1147.5 265.6, 1200.0 270.8 L1200 400 Z" fill="#ea580c" opacity="0.3"/>
<rect x="502.3" y="257.2" width="13.2" height="142.8" rx="4.8" fill="#118fab" opacity="0.65"/>
<rect x="138.5" y="288.6" width="31.5" height="111.4" rx="6.6" fill="#318794" opacity="0.73"/>
<rect x="984.9" y="353.7" width="38.7" height="46.3" rx="4.2" fill="#2a8899" opacity="0.83"/>
<rect x="451.7" y="294.9" width="49.1" height="105.1" rx="4.2" fill="#0c90af" opacity="0.77"/>
<rect x="974.3" y="293.8" width="36.0" height="106.2" rx="6.3" fill="#627a70" opacity="0.63"/>
<rect x="677.6" y="367.1" width="19.1" height="32.9" rx="5.0" fill="#3b848d" opacity="0.60"/>
<rect x="376.0" y="337.1" width="17.5" height="62.9" rx="7.8" fill="#248a9d" opacity="0.66"/>
<rect x="406.3" y="330.8" width="32.2" height="69.2" rx="7.2" fill="#79755f" opacity="0.67"/>
<rect x="1072.1" y="307.6" width="38.8" height="92.4" rx="3.6" fill="#777560" opacity="0.59"/>
<rect x="1077.1" y="317.6" width="4" height="5" rx="0.5" fill="#d4a76a" opacity="0.6"/>
<rect x="1090.1" y="317.6" width="4" height="5" rx="0.5" fill="#d4a76a" opacity="0.6"/>
<rect x="1090.1" y="339.6" width="4" height="5" rx="0.5" fill="#d4a76a" opacity="0.6"/>
<rect x="1077.1" y="361.6" width="4" height="5" rx="0.5" fill="#d4a76a" opacity="0.6"/>
<rect x="1090.1" y="361.6" width="4" height="5" rx="0.5" fill="#d4a76a" opacity="0.6"/>
<rect x="361.0" y="311.9" width="47.9" height="88.1" rx="3.1" fill="#777561" opacity="0.65"/>
<rect x="170.6" y="328.8" width="42.4" height="71.2" rx="4.5" fill="#6c7868" opacity="0.82"/>
<rect x="678.2" y="292.5" width="25.5" height="107.5" rx="3.7" fill="#7d745c" opacity="0.66"/>
<rect x="683.2" y="302.5" width="4" height="5" rx="0.5" fill="#d4a76a" opacity="0.6"/>
<rect x="683.2" y="346.5" width="4" height="5" rx="0.5" fill="#d4a76a" opacity="0.6"/>
<rect x="683.2" y="368.5" width="4" height="5" rx="0.5" fill="#d4a76a" opacity="0.6"/>
<rect x="205.6" y="263.3" width="22.7" height="136.7" rx="7.5" fill="#148ea9" opacity="0.62"/>
<rect x="210.6" y="295.3" width="4" height="5" rx="0.5" fill="#d4a76a" opacity="0.6"/>
<rect x="210.6" y="317.3" width="4" height="5" rx="0.5" fill="#d4a76a" opacity="0.6"/>
<rect x="210.6" y="339.3" width="4" height="5" rx="0.5" fill="#d4a76a" opacity="0.6"/>
<rect x="435.3" y="256.0" width="42.1" height="144.0" rx="7.8" fill="#428287" opacity="0.82"/>
<circle cx="807.2" cy="38.1" r="11.1" fill="#0891b2" opacity="0.34"/>
<circle cx="726.3" cy="21.7" r="7.9" fill="#0891b2" opacity="0.24"/>
<circle cx="1195.0" cy="216.2" r="10.2" fill="#0891b2" opacity="0.20"/>
<circle cx="39.7" cy="228.0" r="4.7" fill="#d4a76a" opacity="0.24"/>
<circle cx="684.5" cy="42.1" r="7.4" fill="#0891b2" opacity="0.27"/>
<circle cx="882.7" cy="137.7" r="9.3" fill="#d4a76a" opacity="0.19"/>
<circle cx="438.9" cy="153.1" r="7.0" fill="#0891b2" opacity="0.38"/>
<circle cx="591.1" cy="195.3" r="4.2" fill="#0891b2" opacity="0.29"/>
<circle cx="680.8" cy="5.6" r="10.4" fill="#0891b2" opacity="0.25"/>
<circle cx="81.7" cy="228.2" r="3.1" fill="#0891b2" opacity="0.27"/>
<circle cx="974.4" cy="107.2" r="7.4" fill="#d4a76a" opacity="0.37"/>
<circle cx="812.9" cy="25.8" r="3.7" fill="#d4a76a" opacity="0.29"/>
<rect width="1200" height="400" fill="url(#warm)"/>
<rect width="1200" height="400" fill="#d4a76a" opacity="0.36"/>
</svg>