<svg xmlns="http://www.w3.org/2000/svg" viewBox="0 0 1200 300" width="1200" height="300">
<defs><linearGradient id="skyGrad" x1="0" y1="0" x2="0" y2="1"><stop offset="0%" stop-color="#e6ecf2"/><stop offset="100%" stop-color="#f0eeec"/></linearGradient></defs><rect width="1200" height="300" fill="url(#skyGrad)"/>
<rect x="309.8" y="213.3" width="72.1" height="86.7" fill="#94a4b9"/>
<rect x="854.5" y="207.2" width="54.9" height="92.8" fill="#94a4b9"/>
<rect x="350.2" y="186.9" width="56.0" height="113.1" fill="#647b99"/>
<rect x="382.2" y="198.9" width="6" height="8" fill="#9aa9bd" opacity="0.5"/>
<rect x="368.2" y="214.9" width="6" height="8" fill="#9aa9bd" opacity="0.5"/>
<rect x="382.2" y="214.9" width="6" height="8" fill="#9aa9bd" opacity="0.5"/>
<rect x="382.2" y="230.9" width="6" height="8" fill="#9aa9bd" opacity="0.5"/>
<rect x="368.2" y="246.9" width="6" height="8" fill="#9aa9bd" opacity="0.5"/>
<rect x="382.2" y="262.9" width="6" height="8" fill="#9aa9bd" opacity="0.5"/>
<rect x="922.1" y="186.6" width="44.8" height="113.4" fill="#647b99"/>
<rect x="934.5" y="198.6" width="6" height="8" fill="#9aa9bd" opacity="0.5"/>
<rect x="948.5" y="198.6" width="6" height="8" fill="#9aa9bd" opacity="0.5"/>
<rect x="948.5" y="214.6" width="6" height="8" fill="#9aa9bd" opacity="0.5"/>
<rect x="934.5" y="230.6" width="6" height="8" fill="#9aa9bd" opacity="0.5"/>
<rect x="948.5" y="230.6" width="6" height="8" fill="#9aa9bd" opacity="0.5"/>
<rect x="934.5" y="262.6" width="6" height="8" fill="#9aa9bd" opacity="0.5"/>
<rect x="948.5" y="262.6" width="6" height="8" fill="#9aa9bd" opacity="0.5"/>
<rect x="371.9" y="196.4" width="51.3" height="103.6" fill="#3d5a80"/>
<rect x="387.6" y="208.4" width="6" height="8" fill="#8194ac" opacity="0.5"/>
<rect x="401.6" y="208.4" width="6" height="8" fill="#8194ac" opacity="0.5"/>
<rect x="401.6" y="224.4" width="6" height="8" fill="#8194ac" opacity="0.5"/>
<rect x="401.6" y="240.4" width="6" height="8" fill="#8194ac" opacity="0.5"/>
<rect x="387.6" y="256.4" width="6" height="8" fill="#8194ac" opacity="0.5"/>
<rect x="401.6" y="256.4" width="6" height="8" fill="#8194ac" opacity="0.5"/>
<rect x="387.6" y="272.4" width="6" height="8" fill="#8194ac" opacity="0.5"/>
<rect x="812.0" y="153.1" width="56.4" height="146.9" fill="#3d5a80"/>
<polygon points="812.0,153.1 840.2,139.0 868.4,153.1" fill="#385376"/>
<rect x="830.2" y="165.1" width="6" height="8" fill="#8194ac" opacity="0.5"/>
<rect x="830.2" y="181.1" width="6" height="8" fill="#8194ac" opacity="0.5"/>
<rect x="830.2" y="197.1" width="6" height="8" fill="#8194ac" opacity="0.5"/>
<rect x="844.2" y="197.1" width="6" height="8" fill="#8194ac" opacity="0.5"/>
<rect x="830.2" y="213.1" width="6" height="8" fill="#8194ac" opacity="0.5"/>
<rect x="844.2" y="229.1" width="6" height="8" fill="#8194ac" opacity="0.5"/>
<rect x="844.2" y="245.1" width="6" height="8" fill="#8194ac" opacity="0.5"/>
<line x1="617.6" y1="285.0" x2="617.6" y2="273.0" stroke="#6b5a42" stroke-width="3"/>
<circle cx="617.6" cy="256.4" r="16.7" fill="#588948"/>
<line x1="140.9" y1="285.0" x2="140.9" y2="273.7" stroke="#6b5a42" stroke-width="3"/>
<circle cx="140.9" cy="259.6" r="14.1" fill="#568647"/>
<line x1="787.3" y1="285.0" x2="787.3" y2="272.8" stroke="#6b5a42" stroke-width="3"/>
<circle cx="787.3" cy="259.5" r="13.3" fill="#558546"/>
<line x1="468.9" y1="285.0" x2="468.9" y2="272.8" stroke="#6b5a42" stroke-width="3"/>
<circle cx="468.9" cy="255.1" r="17.7" fill="#527f43"/>
<line x1="294.3" y1="285.0" x2="294.3" y2="270.9" stroke="#6b5a42" stroke-width="3"/>
<circle cx="294.3" cy="255.2" r="15.7" fill="#558546"/>
<line x1="656.0" y1="285.0" x2="656.0" y2="270.1" stroke="#6b5a42" stroke-width="3"/>
<circle cx="656.0" cy="252.7" r="17.4" fill="#558546"/>
<line x1="192.8" y1="285.0" x2="192.8" y2="273.3" stroke="#6b5a42" stroke-width="3"/>
<circle cx="192.8" cy="255.6" r="17.7" fill="#527f43"/>
<rect x="0" y="285" width="1200" height="15" fill="#d4c5a9" opacity="0.4"/>
</svg>