<svg xmlns="http://www.w3.org/2000/svg" viewBox="0 0 1200 300" width="1200" height="300">
<defs><linearGradient id="skyGrad" x1="0" y1="0" x2="0" y2="1"><stop offset="0%" stop-color="#e6ecf2"/><stop offset="100%" stop-color="#f0eeec"/></linearGradient></defs><rect width="1200" height="300" fill="url(#skyGrad)"/>
<path d="M0 300 L0 206.2 C262.0 188.0, 911.7 191.3, 1200 206.2 L1200 300 Z" fill="#aac2c9" opacity="0.25"/>
<rect x="132.3" y="245.0" width="82.1" height="55.0" fill="#8aabb4"/>
<rect x="146.7" y="235.3" width="53.3" height="9.7" fill="#83a2ab"/>
<rect x="556.1" y="206.5" width="78.6" height="93.5" fill="#8aabb4"/>
<rect x="996.9" y="203.0" width="55.4" height="97.0" fill="#8aabb4"/>
<rect x="1006.6" y="185.8" width="36.0" height="17.1" fill="#83a2ab"/>
<rect x="107.7" y="206.5" width="56.9" height="93.5" fill="#558592"/>
<rect x="117.6" y="190.0" width="37.0" height="16.5" fill="#517e8b"/>
<rect x="126.1" y="202.0" width="6" height="8" fill="#91b0b8" opacity="0.5"/>
<rect x="140.1" y="202.0" width="6" height="8" fill="#91b0b8" opacity="0.5"/>
<rect x="126.1" y="218.0" width="6" height="8" fill="#91b0b8" opacity="0.5"/>
<rect x="140.1" y="218.0" width="6" height="8" fill="#91b0b8" opacity="0.5"/>
<rect x="126.1" y="234.0" width="6" height="8" fill="#91b0b8" opacity="0.5"/>
<rect x="140.1" y="234.0" width="6" height="8" fill="#91b0b8" opacity="0.5"/>
<rect x="126.1" y="250.0" width="6" height="8" fill="#91b0b8" opacity="0.5"/>
<rect x="140.1" y="250.0" width="6" height="8" fill="#91b0b8" opacity="0.5"/>
<rect x="430.5" y="141.0" width="62.0" height="159.0" fill="#558592"/>
<polygon points="430.5,141.0 461.5,125.5 492.5,141.0" fill="#4e7a86"/>
<rect x="444.5" y="153.0" width="6" height="8" fill="#91b0b8" opacity="0.5"/>
<rect x="472.5" y="153.0" width="6" height="8" fill="#91b0b8" opacity="0.5"/>
<rect x="458.5" y="169.0" width="6" height="8" fill="#91b0b8" opacity="0.5"/>
<rect x="472.5" y="169.0" width="6" height="8" fill="#91b0b8" opacity="0.5"/>
<rect x="458.5" y="185.0" width="6" height="8" fill="#91b0b8" opacity="0.5"/>
<rect x="472.5" y="185.0" width="6" height="8" fill="#91b0b8" opacity="0.5"/>
<rect x="444.5" y="201.0" width="6" height="8" fill="#91b0b8" opacity="0.5"/>
<rect x="458.5" y="201.0" width="6" height="8" fill="#91b0b8" opacity="0.5"/>
<rect x="444.5" y="217.0" width="6" height="8" fill="#91b0b8" opacity="0.5"/>
<rect x="444.5" y="233.0" width="6" height="8" fill="#91b0b8" opacity="0.5"/>
<rect x="458.5" y="233.0" width="6" height="8" fill="#91b0b8" opacity="0.5"/>
<rect x="698.7" y="158.1" width="53.5" height="141.9" fill="#558592"/>
<rect x="715.4" y="170.1" width="6" height="8" fill="#91b0b8" opacity="0.5"/>
<rect x="729.4" y="186.1" width="6" height="8" fill="#91b0b8" opacity="0.5"/>
<rect x="729.4" y="202.1" width="6" height="8" fill="#91b0b8" opacity="0.5"/>
<rect x="729.4" y="218.1" width="6" height="8" fill="#91b0b8" opacity="0.5"/>
<rect x="715.4" y="250.1" width="6" height="8" fill="#91b0b8" opacity="0.5"/>
<rect x="729.4" y="250.1" width="6" height="8" fill="#91b0b8" opacity="0.5"/>
<rect x="954.6" y="208.9" width="76.9" height="91.1" fill="#558592"/>
<polygon points="954.6,208.9 993.0,189.6 1031.5,208.9" fill="#4e7a86"/>
<rect x="1004.0" y="220.9" width="6" height="8" fill="#91b0b8" opacity="0.5"/>
<rect x="976.0" y="236.9" width="6" height="8" fill="#91b0b8" opacity="0.5"/>
<rect x="976.0" y="252.9" width="6" height="8" fill="#91b0b8" opacity="0.5"/>
<rect x="990.0" y="252.9" width="6" height="8" fill="#91b0b8" opacity="0.5"/>
<rect x="1004.0" y="252.9" width="6" height="8" fill="#91b0b8" opacity="0.5"/>
<rect x="120.8" y="241.7" width="67.3" height="58.3" fill="#2b6777"/>
<rect x="132.6" y="231.4" width="43.8" height="10.3" fill="#296271"/>
<rect x="137.5" y="243.4" width="6" height="8" fill="#759ca7" opacity="0.5"/>
<rect x="151.5" y="243.4" width="6" height="8" fill="#759ca7" opacity="0.5"/>
<rect x="165.5" y="243.4" width="6" height="8" fill="#759ca7" opacity="0.5"/>
<rect x="137.5" y="259.4" width="6" height="8" fill="#759ca7" opacity="0.5"/>
<rect x="151.5" y="259.4" width="6" height="8" fill="#759ca7" opacity="0.5"/>
<rect x="165.5" y="259.4" width="6" height="8" fill="#759ca7" opacity="0.5"/>
<rect x="466.4" y="146.0" width="37.2" height="154.0" fill="#2b6777"/>
<rect x="482.0" y="174.0" width="6" height="8" fill="#759ca7" opacity="0.5"/>
<rect x="482.0" y="206.0" width="6" height="8" fill="#759ca7" opacity="0.5"/>
<rect x="482.0" y="222.0" width="6" height="8" fill="#759ca7" opacity="0.5"/>
<rect x="701.8" y="190.4" width="65.0" height="109.6" fill="#2b6777"/>
<rect x="717.3" y="202.4" width="6" height="8" fill="#759ca7" opacity="0.5"/>
<rect x="745.3" y="202.4" width="6" height="8" fill="#759ca7" opacity="0.5"/>
<rect x="731.3" y="218.4" width="6" height="8" fill="#759ca7" opacity="0.5"/>
<rect x="731.3" y="234.4" width="6" height="8" fill="#759ca7" opacity="0.5"/>
<rect x="745.3" y="234.4" width="6" height="8" fill="#759ca7" opacity="0.5"/>
<rect x="731.3" y="250.4" width="6" height="8" fill="#759ca7" opacity="0.5"/>
<rect x="745.3" y="250.4" width="6" height="8" fill="#759ca7" opacity="0.5"/>
<rect x="717.3" y="266.4" width="6" height="8" fill="#759ca7" opacity="0.5"/>
<rect x="745.3" y="266.4" width="6" height="8" fill="#759ca7" opacity="0.5"/>
<rect x="973.0" y="222.9" width="37.0" height="77.1" fill="#2b6777"/>
<rect x="988.5" y="250.9" width="6" height="8" fill="#759ca7" opacity="0.5"/>
<line x1="327.3" y1="285.0" x2="327.3" y2="274.2" stroke="#6b5a42" stroke-width="3"/>
<circle cx="327.3" cy="257.2" r="16.9" fill="#527f43"/>
<line x1="602.7" y1="285.0" x2="602.7" y2="273.2" stroke="#6b5a42" stroke-width="3"/>
<circle cx="602.7" cy="258.9" r="14.2" fill="#598a49"/>
<line x1="869.9" y1="285.0" x2="869.9" y2="272.1" stroke="#6b5a42" stroke-width="3"/>
<circle cx="869.9" cy="257.9" r="14.2" fill="#598b49"/>
<line x1="557.2" y1="285.0" x2="557.2" y2="273.1" stroke="#6b5a42" stroke-width="3"/>
<circle cx="557.2" cy="255.4" r="17.7" fill="#507c42"/>
<line x1="487.1" y1="285.0" x2="487.1" y2="269.4" stroke="#6b5a42" stroke-width="3"/>
<circle cx="487.1" cy="256.6" r="12.8" fill="#578848"/>
<line x1="335.2" y1="285.0" x2="335.2" y2="274.9" stroke="#6b5a42" stroke-width="3"/>
<circle cx="335.2" cy="260.6" r="14.3" fill="#578748"/>
<line x1="935.8" y1="285.0" x2="935.8" y2="273.3" stroke="#6b5a42" stroke-width="3"/>
<circle cx="935.8" cy="255.8" r="17.5" fill="#598b4a"/>
<rect x="0" y="285" width="1200" height="15" fill="#9aaa85" opacity="0.4"/>
</svg>