<svg xmlns="http://www.w3.org/2000/svg" viewBox="0 0 1200 300" width="1200" height="300">
<defs>
<linearGradient id="skyGrad" x1="0" y1="0" x2="0" y2="1">
<stop offset="0%" stop-color="#818cf8"/>
<stop offset="20%" stop-color="#c4b5fd"/>
<stop offset="38%" stop-color="#fda4af"/>
<stop offset="55%" stop-color="#fdba74"/>
<stop offset="75%" stop-color="#fef08a"/>
<stop offset="100%" stop-color="#fef9c3"/>
</linearGradient>
<linearGradient id="bldg_coral" x1="0" y1="0" x2="0" y2="1"><stop offset="0%" stop-color="#fecaca"/><stop offset="100%" stop-color="#fca5a5"/></linearGradient>
<linearGradient id="bldg_teal" x1="0" y1="0" x2="0" y2="1"><stop offset="0%" stop-color="#99f6e4"/><stop offset="100%" stop-color="#5eead4"/></linearGradient>
<linearGradient id="bldg_amber" x1="0" y1="0" x2="0" y2="1"><stop offset="0%" stop-color="#fde68a"/><stop offset="100%" stop-color="#fcd34d"/></linearGradient>
<linearGradient id="bldg_lavender" x1="0" y1="0" x2="0" y2="1"><stop offset="0%" stop-color="#ddd6fe"/><stop offset="100%" stop-color="#c4b5fd"/></linearGradient>
<linearGradient id="bldg_blue" x1="0" y1="0" x2="0" y2="1"><stop offset="0%" stop-color="#bfdbfe"/><stop offset="100%" stop-color="#93c5fd"/></linearGradient>
<linearGradient id="bldg_mint" x1="0" y1="0" x2="0" y2="1"><stop offset="0%" stop-color="#a7f3d0"/><stop offset="100%" stop-color="#6ee7b7"/></linearGradient>
<linearGradient id="bldg_rose" x1="0" y1="0" x2="0" y2="1"><stop offset="0%" stop-color="#fecdd3"/><stop offset="100%" stop-color="#fda4af"/></linearGradient>
<linearGradient id="bldg_sky" x1="0" y1="0" x2="0" y2="1"><stop offset="0%" stop-color="#bae6fd"/><stop offset="100%" stop-color="#7dd3fc"/></linearGradient>
<linearGradient id="roof_navyRoof" x1="0" y1="0" x2="0" y2="1"><stop offset="0%" stop-color="#4338ca"/><stop offset="100%" stop-color="#3730a3"/></linearGradient>
<linearGradient id="roof_coralRoof" x1="0" y1="0" x2="0" y2="1"><stop offset="0%" stop-color="#f87171"/><stop offset="100%" stop-color="#ef4444"/></linearGradient>
<linearGradient id="roof_tealRoof" x1="0" y1="0" x2="0" y2="1"><stop offset="0%" stop-color="#2dd4bf"/><stop offset="100%" stop-color="#14b8a6"/></linearGradient>
<radialGradient id="windowGlow" cx="50%" cy="50%" r="50%"><stop offset="0%" stop-color="#fef08a"/><stop offset="60%" stop-color="#fbbf24"/><stop offset="100%" stop-color="#f59e0b"/></radialGradient>
<linearGradient id="hillFar" x1="0" y1="0" x2="0" y2="1"><stop offset="0%" stop-color="#c4b5fd"/><stop offset="100%" stop-color="#a5b4fc"/></linearGradient>
<linearGradient id="hillMid" x1="0" y1="0" x2="0" y2="1"><stop offset="0%" stop-color="#86efac"/><stop offset="100%" stop-color="#4ade80"/></linearGradient>
<linearGradient id="hillNear" x1="0" y1="0" x2="0" y2="1"><stop offset="0%" stop-color="#34d399"/><stop offset="100%" stop-color="#10b981"/></linearGradient>
<linearGradient id="hillDesertFar" x1="0" y1="0" x2="0" y2="1"><stop offset="0%" stop-color="#fde68a"/><stop offset="100%" stop-color="#fcd34d"/></linearGradient>
<linearGradient id="hillDesertMid" x1="0" y1="0" x2="0" y2="1"><stop offset="0%" stop-color="#fcd34d"/><stop offset="100%" stop-color="#fbbf24"/></linearGradient>
<linearGradient id="hillDesertNear" x1="0" y1="0" x2="0" y2="1"><stop offset="0%" stop-color="#fbbf24"/><stop offset="100%" stop-color="#f59e0b"/></linearGradient>
<linearGradient id="groundGrad" x1="0" y1="0" x2="0" y2="1"><stop offset="0%" stop-color="#fef3c7"/><stop offset="100%" stop-color="#fde68a"/></linearGradient>
<linearGradient id="waterGrad" x1="0" y1="0" x2="0" y2="1"><stop offset="0%" stop-color="#bfdbfe"/><stop offset="100%" stop-color="#93c5fd"/></linearGradient>
<filter id="softGlow" x="-50%" y="-50%" width="200%" height="200%"><feGaussianBlur in="SourceGraphic" stdDeviation="12"/></filter>
</defs>
<rect width="1200" height="300" fill="url(#skyGrad)"/>
<circle cx="1034.1" cy="38.9" r="45" fill="#fef08a" opacity="0.12" filter="url(#softGlow)"/>
<circle cx="1034.1" cy="38.9" r="30" fill="#fde68a" opacity="0.18" filter="url(#softGlow)"/>
<circle cx="1034.1" cy="38.9" r="16" fill="#fef9c3" opacity="0.25" filter="url(#softGlow)"/>
<ellipse cx="647.0" cy="47.6" rx="48.2" ry="16.9" fill="white" opacity="0.4"/>
<ellipse cx="616.9" cy="52.4" rx="33.7" ry="13.3" fill="white" opacity="0.4"/>
<ellipse cx="673.5" cy="51.2" rx="38.6" ry="14.5" fill="white" opacity="0.4"/>
<ellipse cx="207.3" cy="21.3" rx="39.0" ry="13.7" fill="white" opacity="0.6"/>
<ellipse cx="182.9" cy="25.2" rx="27.3" ry="10.7" fill="white" opacity="0.6"/>
<ellipse cx="228.7" cy="24.2" rx="31.2" ry="11.7" fill="white" opacity="0.5"/>
<ellipse cx="611.8" cy="29.1" rx="47.6" ry="16.7" fill="white" opacity="0.7"/>
<ellipse cx="582.0" cy="33.8" rx="33.3" ry="13.1" fill="white" opacity="0.6"/>
<ellipse cx="637.9" cy="32.6" rx="38.1" ry="14.3" fill="white" opacity="0.6"/>
<path d="M0 300 L0.0 195.2 C139.9 195.2, 139.9 184.8, 279.7 184.8 C443.4 184.8, 443.4 179.7, 607.1 179.7 C746.9 179.7, 746.9 189.5, 886.6 189.5 C1043.3 189.5, 1043.3 187.9, 1200.0 187.9 L1200 300 Z" fill="url(#hillFar)" opacity="0.5"/>
<path d="M0 300 L0.0 215.8 C123.7 215.8, 123.7 204.9, 247.4 204.9 C407.9 204.9, 407.9 213.7, 568.4 213.7 C708.7 213.7, 708.7 205.0, 849.0 205.0 C1024.5 205.0, 1024.5 210.4, 1200.0 210.4 L1200 300 Z" fill="url(#hillMid)" opacity="0.7"/>
<path d="M0 300 L0.0 233.5 C114.9 233.5, 114.9 236.6, 229.9 236.6 C329.7 236.6, 329.7 236.3, 429.5 236.3 C565.7 236.3, 565.7 233.1, 701.9 233.1 C820.7 233.1, 820.7 235.3, 939.4 235.3 C1069.7 235.3, 1069.7 236.3, 1200.0 236.3 L1200 300 Z" fill="url(#hillNear)" opacity="1"/>
<rect x="229.8" y="209.2" width="86.2" height="90.8" rx="3" fill="url(#bldg_teal)" opacity="0.7"/>
<polygon points="229.8,209.2 272.9,185.4 316.0,209.2" fill="url(#roof_tealRoof)" opacity="0.7"/>
<rect x="262.9" y="219.2" width="6" height="8" rx="1" fill="url(#windowGlow)" opacity="0.7215212297260394"/>
<rect x="276.9" y="219.2" width="6" height="8" rx="1" fill="url(#windowGlow)" opacity="0.9788464498607657"/>
<rect x="290.9" y="219.2" width="6" height="8" rx="1" fill="url(#windowGlow)" opacity="0.7291111263116408"/>
<rect x="276.9" y="234.2" width="6" height="8" rx="1" fill="url(#windowGlow)" opacity="0.8620960914819017"/>
<rect x="248.9" y="249.2" width="6" height="8" rx="1" fill="url(#windowGlow)" opacity="0.8588386387372569"/>
<rect x="262.9" y="249.2" width="6" height="8" rx="1" fill="url(#windowGlow)" opacity="0.9738003772095778"/>
<rect x="290.9" y="249.2" width="6" height="8" rx="1" fill="url(#windowGlow)" opacity="0.7251632068889043"/>
<rect x="554.4" y="208.9" width="75.0" height="91.1" rx="3" fill="url(#bldg_amber)" opacity="0.7"/>
<polygon points="554.4,208.9 591.9,188.4 629.4,208.9" fill="url(#roof_navyRoof)" opacity="0.7"/>
<rect x="567.9" y="218.9" width="6" height="8" rx="1" fill="url(#windowGlow)" opacity="0.9211025770386226"/>
<rect x="581.9" y="218.9" width="6" height="8" rx="1" fill="url(#windowGlow)" opacity="0.8387065032677289"/>
<rect x="595.9" y="218.9" width="6" height="8" rx="1" fill="url(#windowGlow)" opacity="0.9015684471938612"/>
<rect x="609.9" y="218.9" width="6" height="8" rx="1" fill="url(#windowGlow)" opacity="0.9411947027506281"/>
<rect x="581.9" y="233.9" width="6" height="8" rx="1" fill="url(#windowGlow)" opacity="0.8567945811696325"/>
<rect x="609.9" y="233.9" width="6" height="8" rx="1" fill="url(#windowGlow)" opacity="0.8642255542167581"/>
<rect x="567.9" y="248.9" width="6" height="8" rx="1" fill="url(#windowGlow)" opacity="0.847032367832508"/>
<rect x="581.9" y="248.9" width="6" height="8" rx="1" fill="url(#windowGlow)" opacity="0.9024290401034192"/>
<rect x="609.9" y="248.9" width="6" height="8" rx="1" fill="url(#windowGlow)" opacity="0.8689043137100079"/>
<rect x="912.1" y="236.6" width="54.4" height="63.4" rx="3" fill="url(#bldg_lavender)" opacity="0.7"/>
<rect x="912.1" y="233.6" width="54.4" height="3" rx="1" fill="url(#roof_coralRoof)" opacity="0.7"/>
<rect x="943.2" y="246.6" width="6" height="8" rx="1" fill="url(#windowGlow)" opacity="0.9803370074743111"/>
<rect x="139.2" y="188.8" width="57.8" height="111.2" rx="3" fill="url(#bldg_blue)" opacity="0.85"/>
<rect x="139.2" y="185.8" width="57.8" height="3" rx="1" fill="url(#roof_tealRoof)" opacity="0.85"/>
<rect x="172.1" y="198.8" width="6" height="8" rx="1" fill="url(#windowGlow)" opacity="0.8835595159714853"/>
<rect x="172.1" y="213.8" width="6" height="8" rx="1" fill="url(#windowGlow)" opacity="0.7771904904289126"/>
<rect x="158.1" y="228.8" width="6" height="8" rx="1" fill="url(#windowGlow)" opacity="0.8383340458564152"/>
<rect x="172.1" y="228.8" width="6" height="8" rx="1" fill="url(#windowGlow)" opacity="0.7777854943544535"/>
<rect x="158.1" y="243.8" width="6" height="8" rx="1" fill="url(#windowGlow)" opacity="0.741972938246081"/>
<rect x="172.1" y="243.8" width="6" height="8" rx="1" fill="url(#windowGlow)" opacity="0.9300349653372704"/>
<rect x="158.1" y="258.8" width="6" height="8" rx="1" fill="url(#windowGlow)" opacity="0.8115357211844696"/>
<rect x="467.0" y="156.6" width="47.7" height="143.4" rx="3" fill="url(#bldg_mint)" opacity="0.85"/>
<polygon points="467.0,156.6 490.8,146.5 514.7,156.6" fill="url(#roof_navyRoof)" opacity="0.85"/>
<rect x="480.8" y="166.6" width="6" height="8" rx="1" fill="url(#windowGlow)" opacity="0.9853040021775774"/>
<rect x="494.8" y="166.6" width="6" height="8" rx="1" fill="url(#windowGlow)" opacity="0.9790220621875589"/>
<rect x="494.8" y="181.6" width="6" height="8" rx="1" fill="url(#windowGlow)" opacity="0.7057877616983781"/>
<rect x="480.8" y="196.6" width="6" height="8" rx="1" fill="url(#windowGlow)" opacity="0.7835376722195826"/>
<rect x="494.8" y="196.6" width="6" height="8" rx="1" fill="url(#windowGlow)" opacity="0.9749553026049189"/>
<rect x="494.8" y="211.6" width="6" height="8" rx="1" fill="url(#windowGlow)" opacity="0.806962790902221"/>
<rect x="480.8" y="226.6" width="6" height="8" rx="1" fill="url(#windowGlow)" opacity="0.7454912130467086"/>
<rect x="494.8" y="226.6" width="6" height="8" rx="1" fill="url(#windowGlow)" opacity="0.9055861596509749"/>
<rect x="494.8" y="241.6" width="6" height="8" rx="1" fill="url(#windowGlow)" opacity="0.7839984394069753"/>
<rect x="480.8" y="256.6" width="6" height="8" rx="1" fill="url(#windowGlow)" opacity="0.8121379683316396"/>
<rect x="494.8" y="256.6" width="6" height="8" rx="1" fill="url(#windowGlow)" opacity="0.9890536701721389"/>
<path d="M490.8 206.8 L509.9 206.8 L506.9 212.8 L493.8 212.8 Z" fill="url(#roof_tealRoof)" opacity="0.68"/>
<rect x="718.7" y="170.5" width="49.9" height="129.5" rx="3" fill="url(#bldg_rose)" opacity="0.85"/>
<polygon points="718.7,170.5 743.7,158.2 768.6,170.5" fill="url(#roof_coralRoof)" opacity="0.85"/>
<rect x="733.7" y="180.5" width="6" height="8" rx="1" fill="url(#windowGlow)" opacity="0.963639260019939"/>
<rect x="747.7" y="180.5" width="6" height="8" rx="1" fill="url(#windowGlow)" opacity="0.7716999472452792"/>
<rect x="733.7" y="195.5" width="6" height="8" rx="1" fill="url(#windowGlow)" opacity="0.8509922553556934"/>
<rect x="747.7" y="195.5" width="6" height="8" rx="1" fill="url(#windowGlow)" opacity="0.9159512072875868"/>
<rect x="733.7" y="210.5" width="6" height="8" rx="1" fill="url(#windowGlow)" opacity="0.8453840317881591"/>
<rect x="747.7" y="210.5" width="6" height="8" rx="1" fill="url(#windowGlow)" opacity="0.7161901799105993"/>
<rect x="733.7" y="225.5" width="6" height="8" rx="1" fill="url(#windowGlow)" opacity="0.8758722350820304"/>
<rect x="747.7" y="225.5" width="6" height="8" rx="1" fill="url(#windowGlow)" opacity="0.8738328333822232"/>
<rect x="733.7" y="240.5" width="6" height="8" rx="1" fill="url(#windowGlow)" opacity="0.8556324003989028"/>
<rect x="747.7" y="240.5" width="6" height="8" rx="1" fill="url(#windowGlow)" opacity="0.9507496947658944"/>
<rect x="733.7" y="255.5" width="6" height="8" rx="1" fill="url(#windowGlow)" opacity="0.7404418390432567"/>
<rect x="747.7" y="255.5" width="6" height="8" rx="1" fill="url(#windowGlow)" opacity="0.9655427061326534"/>
<rect x="1002.8" y="220.7" width="56.7" height="79.3" rx="3" fill="url(#bldg_sky)" opacity="0.85"/>
<polygon points="1002.8,220.7 1031.2,208.5 1059.5,220.7" fill="url(#roof_tealRoof)" opacity="0.85"/>
<rect x="1021.2" y="230.7" width="6" height="8" rx="1" fill="url(#windowGlow)" opacity="0.8347634107036346"/>
<rect x="1021.2" y="245.7" width="6" height="8" rx="1" fill="url(#windowGlow)" opacity="0.9853034664342661"/>
<rect x="1035.2" y="245.7" width="6" height="8" rx="1" fill="url(#windowGlow)" opacity="0.7696584215712073"/>
<rect x="1021.2" y="260.7" width="6" height="8" rx="1" fill="url(#windowGlow)" opacity="0.7967644975971264"/>
<rect x="1035.2" y="260.7" width="6" height="8" rx="1" fill="url(#windowGlow)" opacity="0.8329721246533897"/>
<rect x="168.1" y="227.7" width="58.0" height="72.3" rx="3" fill="url(#bldg_coral)" opacity="1"/>
<polygon points="168.1,227.7 197.1,215.5 226.1,227.7" fill="url(#roof_navyRoof)" opacity="1"/>
<rect x="180.1" y="237.7" width="6" height="8" rx="1" fill="url(#windowGlow)" opacity="0.9185283565514387"/>
<rect x="194.1" y="237.7" width="6" height="8" rx="1" fill="url(#windowGlow)" opacity="0.723376261407219"/>
<rect x="208.1" y="237.7" width="6" height="8" rx="1" fill="url(#windowGlow)" opacity="0.8233127041828412"/>
<rect x="180.1" y="252.7" width="6" height="8" rx="1" fill="url(#windowGlow)" opacity="0.83603200895527"/>
<rect x="194.1" y="252.7" width="6" height="8" rx="1" fill="url(#windowGlow)" opacity="0.7417248283241525"/>
<rect x="208.1" y="252.7" width="6" height="8" rx="1" fill="url(#windowGlow)" opacity="0.920986697506619"/>
<rect x="192.1" y="284.0" width="10" height="16" rx="2" fill="url(#roof_navyRoof)" opacity="0.8"/>
<rect x="194.1" y="287.0" width="6" height="10" rx="1" fill="url(#windowGlow)" opacity="0.45"/>
<path d="M197.1 253.0 L220.3 253.0 L217.3 259.0 L200.1 259.0 Z" fill="url(#roof_tealRoof)" opacity="0.8"/>
<rect x="578.7" y="210.8" width="49.5" height="89.2" rx="3" fill="url(#bldg_teal)" opacity="1"/>
<rect x="578.7" y="207.8" width="49.5" height="3" rx="1" fill="url(#roof_coralRoof)" opacity="1"/>
<rect x="593.5" y="220.8" width="6" height="8" rx="1" fill="url(#windowGlow)" opacity="0.8398988292738323"/>
<rect x="607.5" y="220.8" width="6" height="8" rx="1" fill="url(#windowGlow)" opacity="0.7918137028775241"/>
<rect x="607.5" y="235.8" width="6" height="8" rx="1" fill="url(#windowGlow)" opacity="0.9598379884193828"/>
<rect x="593.5" y="250.8" width="6" height="8" rx="1" fill="url(#windowGlow)" opacity="0.8163359618356153"/>
<rect x="607.5" y="250.8" width="6" height="8" rx="1" fill="url(#windowGlow)" opacity="0.7792278440106789"/>
<rect x="598.5" y="284.0" width="10" height="16" rx="2" fill="url(#roof_navyRoof)" opacity="0.8"/>
<rect x="600.5" y="287.0" width="6" height="10" rx="1" fill="url(#windowGlow)" opacity="0.45"/>
<rect x="594.8" y="251.8" width="17.3" height="5" rx="1" fill="#15803d" opacity="0.7"/>
<circle cx="597.8" cy="250.8" r="2.5" fill="#a78bfa" opacity="0.85"/>
<circle cx="603.6" cy="250.8" r="2.5" fill="#fbbf24" opacity="0.85"/>
<circle cx="609.3" cy="250.8" r="2.5" fill="#fbbf24" opacity="0.85"/>
<rect x="930.8" y="220.5" width="57.6" height="79.5" rx="3" fill="url(#bldg_amber)" opacity="1"/>
<rect x="942.4" y="211.0" width="34.6" height="9.5" rx="2" fill="url(#roof_tealRoof)" opacity="1"/>
<rect x="949.6" y="230.5" width="6" height="8" rx="1" fill="url(#windowGlow)" opacity="0.8079803980924097"/>
<rect x="963.6" y="230.5" width="6" height="8" rx="1" fill="url(#windowGlow)" opacity="0.9781943291324164"/>
<rect x="949.6" y="245.5" width="6" height="8" rx="1" fill="url(#windowGlow)" opacity="0.8494619770205868"/>
<rect x="963.6" y="245.5" width="6" height="8" rx="1" fill="url(#windowGlow)" opacity="0.9366534074473443"/>
<rect x="954.6" y="284.0" width="10" height="16" rx="2" fill="url(#roof_navyRoof)" opacity="0.8"/>
<rect x="956.6" y="287.0" width="6" height="10" rx="1" fill="url(#windowGlow)" opacity="0.45"/>
<path d="M936.6 248.4 L959.6 248.4 L956.6 254.4 L939.6 254.4 Z" fill="url(#roof_coralRoof)" opacity="0.8"/>
<rect x="949.6" y="246.5" width="20.2" height="5" rx="1" fill="#15803d" opacity="0.7"/>
<circle cx="952.6" cy="245.5" r="2.5" fill="#fb923c" opacity="0.85"/>
<circle cx="959.3" cy="245.5" r="2.5" fill="#a78bfa" opacity="0.85"/>
<circle cx="966.0" cy="245.5" r="2.5" fill="#a78bfa" opacity="0.85"/>
<rect x="399.4" y="263.9" width="6" height="21.1" rx="2" fill="#15803d"/>
<circle cx="402.4" cy="251.4" r="16.4" fill="#22c55e" opacity="0.9"/>
<circle cx="394.0" cy="254.4" r="12.3" fill="#16a34a" opacity="0.8"/>
<circle cx="408.9" cy="255.4" r="11.5" fill="#15803d" opacity="0.7"/>
<rect x="776.5" y="267.1" width="6" height="17.9" rx="2" fill="#15803d"/>
<circle cx="779.5" cy="256.2" r="14.9" fill="#22c55e" opacity="0.9"/>
<circle cx="773.0" cy="259.2" r="11.2" fill="#16a34a" opacity="0.8"/>
<circle cx="786.3" cy="260.2" r="10.4" fill="#15803d" opacity="0.7"/>
<rect x="138.0" y="267.1" width="6" height="17.9" rx="2" fill="#15803d"/>
<circle cx="141.0" cy="254.8" r="16.4" fill="#22c55e" opacity="0.9"/>
<circle cx="133.9" cy="257.8" r="12.3" fill="#16a34a" opacity="0.8"/>
<circle cx="146.3" cy="258.8" r="11.4" fill="#15803d" opacity="0.7"/>
<rect x="1025.9" y="265.7" width="6" height="19.3" rx="2" fill="#15803d"/>
<circle cx="1028.9" cy="254.8" r="14.9" fill="#22c55e" opacity="0.9"/>
<circle cx="1020.8" cy="257.8" r="11.2" fill="#16a34a" opacity="0.8"/>
<circle cx="1035.6" cy="258.8" r="10.5" fill="#15803d" opacity="0.7"/>
<rect x="883.8" y="263.7" width="6" height="21.3" rx="2" fill="#15803d"/>
<circle cx="886.8" cy="253.0" r="14.7" fill="#22c55e" opacity="0.9"/>
<circle cx="879.1" cy="256.0" r="11.1" fill="#16a34a" opacity="0.8"/>
<circle cx="891.9" cy="257.0" r="10.3" fill="#15803d" opacity="0.7"/>
<rect x="869.8" y="264.2" width="6" height="20.8" rx="2" fill="#15803d"/>
<circle cx="872.8" cy="251.0" r="17.2" fill="#22c55e" opacity="0.9"/>
<circle cx="864.2" cy="254.0" r="12.9" fill="#16a34a" opacity="0.8"/>
<circle cx="878.0" cy="255.0" r="12.1" fill="#15803d" opacity="0.7"/>
<rect x="552.3" y="266.0" width="6" height="19.0" rx="2" fill="#15803d"/>
<circle cx="555.3" cy="253.5" r="16.5" fill="#22c55e" opacity="0.9"/>
<circle cx="548.5" cy="256.5" r="12.3" fill="#16a34a" opacity="0.8"/>
<circle cx="561.0" cy="257.5" r="11.5" fill="#15803d" opacity="0.7"/>
<rect x="738.1" y="266.9" width="6" height="18.1" rx="2" fill="#15803d"/>
<circle cx="741.1" cy="254.3" r="16.6" fill="#22c55e" opacity="0.9"/>
<circle cx="734.8" cy="257.3" r="12.4" fill="#16a34a" opacity="0.8"/>
<circle cx="747.7" cy="258.3" r="11.6" fill="#15803d" opacity="0.7"/>
<rect x="221.2" y="265.5" width="6" height="19.5" rx="2" fill="#15803d"/>
<circle cx="224.2" cy="255.5" r="14.1" fill="#22c55e" opacity="0.9"/>
<circle cx="217.0" cy="258.5" r="10.6" fill="#16a34a" opacity="0.8"/>
<circle cx="230.6" cy="259.5" r="9.9" fill="#15803d" opacity="0.7"/>
<rect x="0" y="282" width="1200" height="18" fill="url(#groundGrad)"/>
<line x1="185.4" y1="282.0" x2="185.4" y2="245.4" stroke="#92400e" stroke-width="2"/>
<circle cx="185.4" cy="245.4" r="4" fill="#fef08a" opacity="0.6"/>
<circle cx="185.4" cy="245.4" r="8" fill="#fef08a" opacity="0.15" filter="url(#softGlow)"/>
<line x1="679.0" y1="282.0" x2="679.0" y2="247.8" stroke="#92400e" stroke-width="2"/>
<circle cx="679.0" cy="247.8" r="4" fill="#fef08a" opacity="0.6"/>
<circle cx="679.0" cy="247.8" r="8" fill="#fef08a" opacity="0.15" filter="url(#softGlow)"/>
<ellipse cx="222.5" cy="282.0" rx="5.6" ry="3.9" fill="#22c55e" opacity="0.6"/>
<ellipse cx="392.4" cy="282.0" rx="5.1" ry="3.6" fill="#22c55e" opacity="0.6"/>
<ellipse cx="937.7" cy="282.0" rx="5.7" ry="4.0" fill="#22c55e" opacity="0.6"/>
</svg>