<svg xmlns="http://www.w3.org/2000/svg" viewBox="0 0 1200 300" width="1200" height="300">
<defs>
<linearGradient id="skyGrad" x1="0" y1="0" x2="0" y2="1">
<stop offset="0%" stop-color="#818cf8"/>
<stop offset="22%" stop-color="#a5b4fc"/>
<stop offset="42%" stop-color="#c4b5fd"/>
<stop offset="60%" stop-color="#e0c3fc"/>
<stop offset="80%" stop-color="#fde68a"/>
<stop offset="100%" stop-color="#fef9c3"/>
</linearGradient>
<linearGradient id="bldg_coral" x1="0" y1="0" x2="0" y2="1"><stop offset="0%" stop-color="#fecaca"/><stop offset="100%" stop-color="#fca5a5"/></linearGradient>
<linearGradient id="bldg_teal" x1="0" y1="0" x2="0" y2="1"><stop offset="0%" stop-color="#99f6e4"/><stop offset="100%" stop-color="#5eead4"/></linearGradient>
<linearGradient id="bldg_amber" x1="0" y1="0" x2="0" y2="1"><stop offset="0%" stop-color="#fde68a"/><stop offset="100%" stop-color="#fcd34d"/></linearGradient>
<linearGradient id="bldg_lavender" x1="0" y1="0" x2="0" y2="1"><stop offset="0%" stop-color="#ddd6fe"/><stop offset="100%" stop-color="#c4b5fd"/></linearGradient>
<linearGradient id="bldg_blue" x1="0" y1="0" x2="0" y2="1"><stop offset="0%" stop-color="#bfdbfe"/><stop offset="100%" stop-color="#93c5fd"/></linearGradient>
<linearGradient id="bldg_mint" x1="0" y1="0" x2="0" y2="1"><stop offset="0%" stop-color="#a7f3d0"/><stop offset="100%" stop-color="#6ee7b7"/></linearGradient>
<linearGradient id="bldg_rose" x1="0" y1="0" x2="0" y2="1"><stop offset="0%" stop-color="#fecdd3"/><stop offset="100%" stop-color="#fda4af"/></linearGradient>
<linearGradient id="bldg_sky" x1="0" y1="0" x2="0" y2="1"><stop offset="0%" stop-color="#bae6fd"/><stop offset="100%" stop-color="#7dd3fc"/></linearGradient>
<linearGradient id="roof_navyRoof" x1="0" y1="0" x2="0" y2="1"><stop offset="0%" stop-color="#4338ca"/><stop offset="100%" stop-color="#3730a3"/></linearGradient>
<linearGradient id="roof_coralRoof" x1="0" y1="0" x2="0" y2="1"><stop offset="0%" stop-color="#f87171"/><stop offset="100%" stop-color="#ef4444"/></linearGradient>
<linearGradient id="roof_tealRoof" x1="0" y1="0" x2="0" y2="1"><stop offset="0%" stop-color="#2dd4bf"/><stop offset="100%" stop-color="#14b8a6"/></linearGradient>
<radialGradient id="windowGlow" cx="50%" cy="50%" r="50%"><stop offset="0%" stop-color="#fef08a"/><stop offset="60%" stop-color="#fbbf24"/><stop offset="100%" stop-color="#f59e0b"/></radialGradient>
<linearGradient id="hillFar" x1="0" y1="0" x2="0" y2="1"><stop offset="0%" stop-color="#c4b5fd"/><stop offset="100%" stop-color="#a5b4fc"/></linearGradient>
<linearGradient id="hillMid" x1="0" y1="0" x2="0" y2="1"><stop offset="0%" stop-color="#86efac"/><stop offset="100%" stop-color="#4ade80"/></linearGradient>
<linearGradient id="hillNear" x1="0" y1="0" x2="0" y2="1"><stop offset="0%" stop-color="#34d399"/><stop offset="100%" stop-color="#10b981"/></linearGradient>
<linearGradient id="hillDesertFar" x1="0" y1="0" x2="0" y2="1"><stop offset="0%" stop-color="#fde68a"/><stop offset="100%" stop-color="#fcd34d"/></linearGradient>
<linearGradient id="hillDesertMid" x1="0" y1="0" x2="0" y2="1"><stop offset="0%" stop-color="#fcd34d"/><stop offset="100%" stop-color="#fbbf24"/></linearGradient>
<linearGradient id="hillDesertNear" x1="0" y1="0" x2="0" y2="1"><stop offset="0%" stop-color="#fbbf24"/><stop offset="100%" stop-color="#f59e0b"/></linearGradient>
<linearGradient id="groundGrad" x1="0" y1="0" x2="0" y2="1"><stop offset="0%" stop-color="#fef3c7"/><stop offset="100%" stop-color="#fde68a"/></linearGradient>
<linearGradient id="waterGrad" x1="0" y1="0" x2="0" y2="1"><stop offset="0%" stop-color="#bfdbfe"/><stop offset="100%" stop-color="#93c5fd"/></linearGradient>
<filter id="softGlow" x="-50%" y="-50%" width="200%" height="200%"><feGaussianBlur in="SourceGraphic" stdDeviation="12"/></filter>
</defs>
<rect width="1200" height="300" fill="url(#skyGrad)"/>
<circle cx="1030.5" cy="48.9" r="45" fill="#fef08a" opacity="0.12" filter="url(#softGlow)"/>
<circle cx="1030.5" cy="48.9" r="30" fill="#fde68a" opacity="0.18" filter="url(#softGlow)"/>
<circle cx="1030.5" cy="48.9" r="16" fill="#fef9c3" opacity="0.25" filter="url(#softGlow)"/>
<ellipse cx="495.0" cy="29.3" rx="32.2" ry="11.3" fill="white" opacity="0.6"/>
<ellipse cx="474.9" cy="32.5" rx="22.5" ry="8.8" fill="white" opacity="0.5"/>
<ellipse cx="512.7" cy="31.7" rx="25.7" ry="9.6" fill="white" opacity="0.5"/>
<ellipse cx="197.8" cy="25.1" rx="37.3" ry="13.1" fill="white" opacity="0.6"/>
<ellipse cx="174.5" cy="28.9" rx="26.1" ry="10.3" fill="white" opacity="0.5"/>
<ellipse cx="218.3" cy="27.9" rx="29.8" ry="11.2" fill="white" opacity="0.5"/>
<ellipse cx="720.6" cy="40.4" rx="36.2" ry="12.7" fill="white" opacity="0.4"/>
<ellipse cx="698.0" cy="44.0" rx="25.3" ry="10.0" fill="white" opacity="0.4"/>
<ellipse cx="740.5" cy="43.1" rx="29.0" ry="10.9" fill="white" opacity="0.4"/>
<path d="M0 300 L0.0 190.1 C126.0 190.1, 126.0 193.8, 252.0 193.8 C365.5 193.8, 365.5 193.1, 479.0 193.1 C603.6 193.1, 603.6 191.2, 728.1 191.2 C820.9 191.2, 820.9 193.0, 913.8 193.0 C1056.9 193.0, 1056.9 195.6, 1200.0 195.6 L1200 300 Z" fill="url(#hillFar)" opacity="0.5"/>
<path d="M0 300 L0.0 207.7 C150.5 207.7, 150.5 213.8, 301.1 213.8 C460.2 213.8, 460.2 215.1, 619.3 215.1 C793.5 215.1, 793.5 205.6, 967.7 205.6 C1083.9 205.6, 1083.9 214.5, 1200.0 214.5 L1200 300 Z" fill="url(#hillMid)" opacity="0.7"/>
<path d="M0 300 L0.0 230.6 C147.3 230.6, 147.3 233.3, 294.7 233.3 C357.6 233.3, 357.6 236.0, 420.6 236.0 C554.1 236.0, 554.1 232.5, 687.5 232.5 C795.2 232.5, 795.2 231.2, 903.0 231.2 C1051.5 231.2, 1051.5 231.4, 1200.0 231.4 L1200 300 Z" fill="url(#hillNear)" opacity="1"/>
<rect x="148.8" y="197.5" width="67.8" height="102.5" rx="3" fill="url(#bldg_lavender)" opacity="0.7"/>
<rect x="148.8" y="194.5" width="67.8" height="3" rx="1" fill="url(#roof_coralRoof)" opacity="0.7"/>
<rect x="179.7" y="207.5" width="6" height="8" rx="1" fill="url(#windowGlow)" opacity="0.7996522426137943"/>
<rect x="193.7" y="207.5" width="6" height="8" rx="1" fill="url(#windowGlow)" opacity="0.7067067893253205"/>
<rect x="165.7" y="222.5" width="6" height="8" rx="1" fill="url(#windowGlow)" opacity="0.7048857507318658"/>
<rect x="179.7" y="222.5" width="6" height="8" rx="1" fill="url(#windowGlow)" opacity="0.9375703112397205"/>
<rect x="193.7" y="222.5" width="6" height="8" rx="1" fill="url(#windowGlow)" opacity="0.9904591884885259"/>
<rect x="179.7" y="237.5" width="6" height="8" rx="1" fill="url(#windowGlow)" opacity="0.9643321594057288"/>
<rect x="193.7" y="237.5" width="6" height="8" rx="1" fill="url(#windowGlow)" opacity="0.8808910746504045"/>
<rect x="165.7" y="252.5" width="6" height="8" rx="1" fill="url(#windowGlow)" opacity="0.8230162183861324"/>
<rect x="179.7" y="252.5" width="6" height="8" rx="1" fill="url(#windowGlow)" opacity="0.7517252409605892"/>
<rect x="193.7" y="252.5" width="6" height="8" rx="1" fill="url(#windowGlow)" opacity="0.8198274702857375"/>
<rect x="562.7" y="217.4" width="47.8" height="82.6" rx="3" fill="url(#bldg_blue)" opacity="0.7"/>
<polygon points="562.7,217.4 586.6,205.5 610.5,217.4" fill="url(#roof_tealRoof)" opacity="0.7"/>
<rect x="576.6" y="227.4" width="6" height="8" rx="1" fill="url(#windowGlow)" opacity="0.7337817898643118"/>
<rect x="590.6" y="227.4" width="6" height="8" rx="1" fill="url(#windowGlow)" opacity="0.8728238230910262"/>
<rect x="590.6" y="242.4" width="6" height="8" rx="1" fill="url(#windowGlow)" opacity="0.8660948531544277"/>
<rect x="576.6" y="257.4" width="6" height="8" rx="1" fill="url(#windowGlow)" opacity="0.9823980336461207"/>
<rect x="590.6" y="257.4" width="6" height="8" rx="1" fill="url(#windowGlow)" opacity="0.9760103330370087"/>
<rect x="925.6" y="214.0" width="44.0" height="86.0" rx="3" fill="url(#bldg_mint)" opacity="0.7"/>
<rect x="925.6" y="211.0" width="44.0" height="3" rx="1" fill="url(#roof_navyRoof)" opacity="0.7"/>
<rect x="951.6" y="224.0" width="6" height="8" rx="1" fill="url(#windowGlow)" opacity="0.9246791048090341"/>
<rect x="937.6" y="239.0" width="6" height="8" rx="1" fill="url(#windowGlow)" opacity="0.906501197911101"/>
<rect x="937.6" y="254.0" width="6" height="8" rx="1" fill="url(#windowGlow)" opacity="0.7659651366835297"/>
<rect x="951.6" y="254.0" width="6" height="8" rx="1" fill="url(#windowGlow)" opacity="0.793260944352141"/>
<rect x="153.1" y="208.3" width="50.5" height="91.7" rx="3" fill="url(#bldg_rose)" opacity="0.85"/>
<polygon points="153.1,208.3 178.3,195.0 203.5,208.3" fill="url(#roof_coralRoof)" opacity="0.85"/>
<rect x="168.3" y="218.3" width="6" height="8" rx="1" fill="url(#windowGlow)" opacity="0.7248330677509461"/>
<rect x="182.3" y="218.3" width="6" height="8" rx="1" fill="url(#windowGlow)" opacity="0.7406163582301775"/>
<rect x="168.3" y="233.3" width="6" height="8" rx="1" fill="url(#windowGlow)" opacity="0.8536765949119238"/>
<rect x="182.3" y="233.3" width="6" height="8" rx="1" fill="url(#windowGlow)" opacity="0.984504751947012"/>
<rect x="168.3" y="248.3" width="6" height="8" rx="1" fill="url(#windowGlow)" opacity="0.702624539147422"/>
<rect x="182.3" y="248.3" width="6" height="8" rx="1" fill="url(#windowGlow)" opacity="0.7080861618314339"/>
<path d="M158.1 240.4 L178.3 240.4 L175.3 246.4 L161.1 246.4 Z" fill="url(#roof_navyRoof)" opacity="0.68"/>
<rect x="458.5" y="198.6" width="44.5" height="101.4" rx="3" fill="url(#bldg_sky)" opacity="0.85"/>
<rect x="458.5" y="195.6" width="44.5" height="3" rx="1" fill="url(#roof_tealRoof)" opacity="0.85"/>
<rect x="484.8" y="208.6" width="6" height="8" rx="1" fill="url(#windowGlow)" opacity="0.9934491503953231"/>
<rect x="470.8" y="223.6" width="6" height="8" rx="1" fill="url(#windowGlow)" opacity="0.9659129234803434"/>
<rect x="470.8" y="238.6" width="6" height="8" rx="1" fill="url(#windowGlow)" opacity="0.9721776513718895"/>
<rect x="484.8" y="238.6" width="6" height="8" rx="1" fill="url(#windowGlow)" opacity="0.7703049406736646"/>
<rect x="470.8" y="253.6" width="6" height="8" rx="1" fill="url(#windowGlow)" opacity="0.9526683386660498"/>
<rect x="484.8" y="253.6" width="6" height="8" rx="1" fill="url(#windowGlow)" opacity="0.7782773672036255"/>
<path d="M480.8 234.1 L498.6 234.1 L495.6 240.1 L483.8 240.1 Z" fill="url(#roof_coralRoof)" opacity="0.68"/>
<rect x="700.8" y="211.0" width="34.9" height="89.0" rx="3" fill="url(#bldg_coral)" opacity="0.85"/>
<rect x="700.8" y="208.0" width="34.9" height="3" rx="1" fill="url(#roof_navyRoof)" opacity="0.85"/>
<rect x="715.3" y="221.0" width="6" height="8" rx="1" fill="url(#windowGlow)" opacity="0.8127497325710717"/>
<rect x="715.3" y="236.0" width="6" height="8" rx="1" fill="url(#windowGlow)" opacity="0.7032278352897744"/>
<rect x="715.3" y="251.0" width="6" height="8" rx="1" fill="url(#windowGlow)" opacity="0.9081805886273182"/>
<rect x="969.8" y="189.1" width="60.3" height="110.9" rx="3" fill="url(#bldg_teal)" opacity="0.85"/>
<rect x="969.8" y="186.1" width="60.3" height="3" rx="1" fill="url(#roof_coralRoof)" opacity="0.85"/>
<rect x="983.0" y="199.1" width="6" height="8" rx="1" fill="url(#windowGlow)" opacity="0.8502611956793168"/>
<rect x="1011.0" y="199.1" width="6" height="8" rx="1" fill="url(#windowGlow)" opacity="0.7948710611531842"/>
<rect x="983.0" y="214.1" width="6" height="8" rx="1" fill="url(#windowGlow)" opacity="0.9564127432445123"/>
<rect x="997.0" y="214.1" width="6" height="8" rx="1" fill="url(#windowGlow)" opacity="0.8646303628406629"/>
<rect x="1011.0" y="214.1" width="6" height="8" rx="1" fill="url(#windowGlow)" opacity="0.7231549575101374"/>
<rect x="983.0" y="229.1" width="6" height="8" rx="1" fill="url(#windowGlow)" opacity="0.9294514405678266"/>
<rect x="997.0" y="229.1" width="6" height="8" rx="1" fill="url(#windowGlow)" opacity="0.7393491638076255"/>
<rect x="983.0" y="244.1" width="6" height="8" rx="1" fill="url(#windowGlow)" opacity="0.7795534475611305"/>
<rect x="1011.0" y="244.1" width="6" height="8" rx="1" fill="url(#windowGlow)" opacity="0.892649857603316"/>
<rect x="997.0" y="259.1" width="6" height="8" rx="1" fill="url(#windowGlow)" opacity="0.7358361158221196"/>
<path d="M1000.0 227.9 L1024.1 227.9 L1021.1 233.9 L1003.0 233.9 Z" fill="url(#roof_navyRoof)" opacity="0.68"/>
<rect x="150.2" y="161.2" width="43.8" height="138.8" rx="3" fill="url(#bldg_amber)" opacity="1"/>
<polygon points="150.2,161.2 172.1,152.3 194.0,161.2" fill="url(#roof_tealRoof)" opacity="1"/>
<rect x="169.1" y="171.2" width="6" height="8" rx="1" fill="url(#windowGlow)" opacity="0.8947211569150542"/>
<rect x="169.1" y="186.2" width="6" height="8" rx="1" fill="url(#windowGlow)" opacity="0.8884726607187058"/>
<rect x="169.1" y="201.2" width="6" height="8" rx="1" fill="url(#windowGlow)" opacity="0.9697010968205058"/>
<rect x="169.1" y="216.2" width="6" height="8" rx="1" fill="url(#windowGlow)" opacity="0.8447552359405697"/>
<rect x="169.1" y="231.2" width="6" height="8" rx="1" fill="url(#windowGlow)" opacity="0.8034535737258631"/>
<rect x="167.1" y="284.0" width="10" height="16" rx="2" fill="url(#roof_navyRoof)" opacity="0.8"/>
<rect x="169.1" y="287.0" width="6" height="10" rx="1" fill="url(#windowGlow)" opacity="0.45"/>
<rect x="459.1" y="165.6" width="45.5" height="134.4" rx="3" fill="url(#bldg_lavender)" opacity="1"/>
<rect x="459.1" y="162.6" width="45.5" height="3" rx="1" fill="url(#roof_navyRoof)" opacity="1"/>
<rect x="471.9" y="175.6" width="6" height="8" rx="1" fill="url(#windowGlow)" opacity="0.8966253015197"/>
<rect x="485.9" y="175.6" width="6" height="8" rx="1" fill="url(#windowGlow)" opacity="0.8400364158395847"/>
<rect x="471.9" y="190.6" width="6" height="8" rx="1" fill="url(#windowGlow)" opacity="0.849620838532979"/>
<rect x="485.9" y="190.6" width="6" height="8" rx="1" fill="url(#windowGlow)" opacity="0.9691430833512651"/>
<rect x="471.9" y="205.6" width="6" height="8" rx="1" fill="url(#windowGlow)" opacity="0.8022583632274802"/>
<rect x="485.9" y="205.6" width="6" height="8" rx="1" fill="url(#windowGlow)" opacity="0.9449020410165665"/>
<rect x="485.9" y="220.6" width="6" height="8" rx="1" fill="url(#windowGlow)" opacity="0.7784254769694178"/>
<rect x="471.9" y="235.6" width="6" height="8" rx="1" fill="url(#windowGlow)" opacity="0.8803735876830171"/>
<rect x="485.9" y="235.6" width="6" height="8" rx="1" fill="url(#windowGlow)" opacity="0.8778836519820074"/>
<rect x="485.9" y="250.6" width="6" height="8" rx="1" fill="url(#windowGlow)" opacity="0.8250450917170593"/>
<rect x="476.9" y="284.0" width="10" height="16" rx="2" fill="url(#roof_navyRoof)" opacity="0.8"/>
<rect x="478.9" y="287.0" width="6" height="10" rx="1" fill="url(#windowGlow)" opacity="0.45"/>
<path d="M481.9 212.6 L500.1 212.6 L497.1 218.6 L484.9 218.6 Z" fill="url(#roof_tealRoof)" opacity="0.8"/>
<rect x="708.5" y="156.2" width="40.5" height="143.8" rx="3" fill="url(#bldg_blue)" opacity="1"/>
<rect x="716.6" y="138.9" width="24.3" height="17.3" rx="2" fill="url(#roof_coralRoof)" opacity="1"/>
<rect x="725.8" y="166.2" width="6" height="8" rx="1" fill="url(#windowGlow)" opacity="0.868122692577598"/>
<rect x="725.8" y="181.2" width="6" height="8" rx="1" fill="url(#windowGlow)" opacity="0.8879019682239284"/>
<rect x="725.8" y="196.2" width="6" height="8" rx="1" fill="url(#windowGlow)" opacity="0.7629684969144727"/>
<rect x="725.8" y="211.2" width="6" height="8" rx="1" fill="url(#windowGlow)" opacity="0.9229817110220816"/>
<rect x="725.8" y="226.2" width="6" height="8" rx="1" fill="url(#windowGlow)" opacity="0.8099571806890691"/>
<rect x="725.8" y="241.2" width="6" height="8" rx="1" fill="url(#windowGlow)" opacity="0.9908654154701462"/>
<rect x="725.8" y="256.2" width="6" height="8" rx="1" fill="url(#windowGlow)" opacity="0.8137822996423497"/>
<rect x="723.8" y="284.0" width="10" height="16" rx="2" fill="url(#roof_navyRoof)" opacity="0.8"/>
<rect x="725.8" y="287.0" width="6" height="10" rx="1" fill="url(#windowGlow)" opacity="0.45"/>
<rect x="980.1" y="109.8" width="43.4" height="190.2" rx="3" fill="url(#bldg_mint)" opacity="1"/>
<polygon points="980.1,109.8 1001.8,98.1 1023.5,109.8" fill="url(#roof_tealRoof)" opacity="1"/>
<rect x="998.8" y="119.8" width="6" height="8" rx="1" fill="url(#windowGlow)" opacity="0.83531444637818"/>
<rect x="998.8" y="134.8" width="6" height="8" rx="1" fill="url(#windowGlow)" opacity="0.7003789997661388"/>
<rect x="998.8" y="149.8" width="6" height="8" rx="1" fill="url(#windowGlow)" opacity="0.89416117174279"/>
<rect x="998.8" y="164.8" width="6" height="8" rx="1" fill="url(#windowGlow)" opacity="0.7302108799248053"/>
<rect x="998.8" y="194.8" width="6" height="8" rx="1" fill="url(#windowGlow)" opacity="0.866667029944559"/>
<rect x="998.8" y="209.8" width="6" height="8" rx="1" fill="url(#windowGlow)" opacity="0.7256335487242944"/>
<rect x="996.8" y="284.0" width="10" height="16" rx="2" fill="url(#roof_navyRoof)" opacity="0.8"/>
<rect x="998.8" y="287.0" width="6" height="10" rx="1" fill="url(#windowGlow)" opacity="0.45"/>
<rect x="323.5" y="275.0" width="6" height="10.0" rx="2" fill="#92400e"/>
<polygon points="326.5,232.2 321.1,251.4 331.9,251.4" fill="#15803d" opacity="0.9"/>
<polygon points="326.5,246.4 319.0,265.7 334.1,265.7" fill="#16a34a" opacity="0.9"/>
<polygon points="326.5,260.7 316.8,280.0 336.2,280.0" fill="#22c55e" opacity="0.9"/>
<rect x="603.6" y="275.0" width="6" height="10.0" rx="2" fill="#92400e"/>
<polygon points="606.6,233.1 600.9,252.0 612.3,252.0" fill="#15803d" opacity="0.9"/>
<polygon points="606.6,247.0 598.6,266.0 614.5,266.0" fill="#16a34a" opacity="0.9"/>
<polygon points="606.6,261.0 596.4,280.0 616.8,280.0" fill="#22c55e" opacity="0.9"/>
<rect x="861.6" y="275.0" width="6" height="10.0" rx="2" fill="#92400e"/>
<polygon points="864.6,230.6 859.9,250.4 869.2,250.4" fill="#15803d" opacity="0.9"/>
<polygon points="864.6,245.4 858.0,265.2 871.1,265.2" fill="#16a34a" opacity="0.9"/>
<polygon points="864.6,260.2 856.1,280.0 873.0,280.0" fill="#22c55e" opacity="0.9"/>
<rect x="111.0" y="275.0" width="6" height="10.0" rx="2" fill="#92400e"/>
<polygon points="114.0,235.6 108.5,253.7 119.5,253.7" fill="#15803d" opacity="0.9"/>
<polygon points="114.0,248.7 106.4,266.9 121.7,266.9" fill="#16a34a" opacity="0.9"/>
<polygon points="114.0,261.9 104.2,280.0 123.9,280.0" fill="#22c55e" opacity="0.9"/>
<rect x="1046.0" y="275.0" width="6" height="10.0" rx="2" fill="#92400e"/>
<polygon points="1049.0,230.5 1043.1,250.4 1055.0,250.4" fill="#15803d" opacity="0.9"/>
<polygon points="1049.0,245.4 1040.7,265.2 1057.4,265.2" fill="#16a34a" opacity="0.9"/>
<polygon points="1049.0,260.2 1038.3,280.0 1059.7,280.0" fill="#22c55e" opacity="0.9"/>
<rect x="782.5" y="275.0" width="6" height="10.0" rx="2" fill="#92400e"/>
<polygon points="785.5,238.9 780.5,255.9 790.6,255.9" fill="#15803d" opacity="0.9"/>
<polygon points="785.5,250.9 778.5,268.0 792.6,268.0" fill="#16a34a" opacity="0.9"/>
<polygon points="785.5,263.0 776.5,280.0 794.6,280.0" fill="#22c55e" opacity="0.9"/>
<rect x="1026.0" y="275.0" width="6" height="10.0" rx="2" fill="#92400e"/>
<polygon points="1029.0,227.6 1024.1,248.4 1033.8,248.4" fill="#15803d" opacity="0.9"/>
<polygon points="1029.0,243.4 1022.2,264.2 1035.7,264.2" fill="#16a34a" opacity="0.9"/>
<polygon points="1029.0,259.2 1020.3,280.0 1037.7,280.0" fill="#22c55e" opacity="0.9"/>
<rect x="135.8" y="275.0" width="6" height="10.0" rx="2" fill="#92400e"/>
<polygon points="138.8,241.9 133.2,258.0 144.4,258.0" fill="#15803d" opacity="0.9"/>
<polygon points="138.8,253.0 130.9,269.0 146.7,269.0" fill="#16a34a" opacity="0.9"/>
<polygon points="138.8,264.0 128.7,280.0 148.9,280.0" fill="#22c55e" opacity="0.9"/>
<rect x="424.8" y="275.0" width="6" height="10.0" rx="2" fill="#92400e"/>
<polygon points="427.8,231.7 421.8,251.1 433.8,251.1" fill="#15803d" opacity="0.9"/>
<polygon points="427.8,246.1 419.4,265.6 436.1,265.6" fill="#16a34a" opacity="0.9"/>
<polygon points="427.8,260.6 417.0,280.0 438.5,280.0" fill="#22c55e" opacity="0.9"/>
<rect x="808.7" y="275.0" width="6" height="10.0" rx="2" fill="#92400e"/>
<polygon points="811.7,241.6 805.7,257.7 817.7,257.7" fill="#15803d" opacity="0.9"/>
<polygon points="811.7,252.7 803.3,268.9 820.0,268.9" fill="#16a34a" opacity="0.9"/>
<polygon points="811.7,263.9 801.0,280.0 822.4,280.0" fill="#22c55e" opacity="0.9"/>
<rect x="0" y="282" width="1200" height="18" fill="url(#groundGrad)"/>
<line x1="559.5" y1="282.0" x2="559.5" y2="245.2" stroke="#92400e" stroke-width="2"/>
<circle cx="559.5" cy="245.2" r="4" fill="#fef08a" opacity="0.6"/>
<circle cx="559.5" cy="245.2" r="8" fill="#fef08a" opacity="0.15" filter="url(#softGlow)"/>
<line x1="186.5" y1="282.0" x2="186.5" y2="245.2" stroke="#92400e" stroke-width="2"/>
<circle cx="186.5" cy="245.2" r="4" fill="#fef08a" opacity="0.6"/>
<circle cx="186.5" cy="245.2" r="8" fill="#fef08a" opacity="0.15" filter="url(#softGlow)"/>
<ellipse cx="522.1" cy="282.0" rx="5.2" ry="3.7" fill="#22c55e" opacity="0.6"/>
<ellipse cx="329.2" cy="282.0" rx="6.7" ry="4.7" fill="#22c55e" opacity="0.6"/>
</svg>