<svg xmlns="http://www.w3.org/2000/svg" viewBox="0 0 1200 300" width="1200" height="300">
<rect width="1200" height="300" fill="#f0e6d8"/>
<path d="M0 300 L0 210.0 C206.5 174.2, 945.9 185.2, 1200 210.0 L1200 300 Z" fill="#e4c4a8" opacity="0.3"/>
<rect x="212.4" y="207.6" width="76.0" height="92.4" fill="#daae87"/>
<rect x="533.1" y="200.7" width="87.7" height="99.3" fill="#daae87"/>
<rect x="895.9" y="222.8" width="88.8" height="77.2" fill="#daae87"/>
<rect x="187.1" y="173.6" width="45.8" height="126.4" fill="#c98951"/>
<rect x="200.0" y="185.6" width="6" height="8" fill="#dcb28e" opacity="0.5"/>
<rect x="214.0" y="185.6" width="6" height="8" fill="#dcb28e" opacity="0.5"/>
<rect x="200.0" y="201.6" width="6" height="8" fill="#dcb28e" opacity="0.5"/>
<rect x="214.0" y="217.6" width="6" height="8" fill="#dcb28e" opacity="0.5"/>
<rect x="200.0" y="233.6" width="6" height="8" fill="#dcb28e" opacity="0.5"/>
<rect x="200.0" y="265.6" width="6" height="8" fill="#dcb28e" opacity="0.5"/>
<rect x="214.0" y="265.6" width="6" height="8" fill="#dcb28e" opacity="0.5"/>
<rect x="437.7" y="185.9" width="56.2" height="114.1" fill="#c98951"/>
<rect x="455.8" y="197.9" width="6" height="8" fill="#dcb28e" opacity="0.5"/>
<rect x="469.8" y="197.9" width="6" height="8" fill="#dcb28e" opacity="0.5"/>
<rect x="455.8" y="213.9" width="6" height="8" fill="#dcb28e" opacity="0.5"/>
<rect x="469.8" y="213.9" width="6" height="8" fill="#dcb28e" opacity="0.5"/>
<rect x="455.8" y="229.9" width="6" height="8" fill="#dcb28e" opacity="0.5"/>
<rect x="469.8" y="229.9" width="6" height="8" fill="#dcb28e" opacity="0.5"/>
<rect x="455.8" y="245.9" width="6" height="8" fill="#dcb28e" opacity="0.5"/>
<rect x="469.8" y="245.9" width="6" height="8" fill="#dcb28e" opacity="0.5"/>
<rect x="469.8" y="261.9" width="6" height="8" fill="#dcb28e" opacity="0.5"/>
<rect x="754.5" y="172.4" width="56.8" height="127.6" fill="#c98951"/>
<rect x="773.0" y="200.4" width="6" height="8" fill="#dcb28e" opacity="0.5"/>
<rect x="787.0" y="200.4" width="6" height="8" fill="#dcb28e" opacity="0.5"/>
<rect x="787.0" y="216.4" width="6" height="8" fill="#dcb28e" opacity="0.5"/>
<rect x="773.0" y="232.4" width="6" height="8" fill="#dcb28e" opacity="0.5"/>
<rect x="773.0" y="248.4" width="6" height="8" fill="#dcb28e" opacity="0.5"/>
<rect x="787.0" y="248.4" width="6" height="8" fill="#dcb28e" opacity="0.5"/>
<rect x="773.0" y="264.4" width="6" height="8" fill="#dcb28e" opacity="0.5"/>
<rect x="787.0" y="264.4" width="6" height="8" fill="#dcb28e" opacity="0.5"/>
<rect x="975.8" y="144.3" width="76.8" height="155.7" fill="#c98951"/>
<rect x="990.2" y="156.3" width="6" height="8" fill="#dcb28e" opacity="0.5"/>
<rect x="1018.2" y="156.3" width="6" height="8" fill="#dcb28e" opacity="0.5"/>
<rect x="990.2" y="172.3" width="6" height="8" fill="#dcb28e" opacity="0.5"/>
<rect x="1004.2" y="172.3" width="6" height="8" fill="#dcb28e" opacity="0.5"/>
<rect x="1032.2" y="172.3" width="6" height="8" fill="#dcb28e" opacity="0.5"/>
<rect x="1018.2" y="188.3" width="6" height="8" fill="#dcb28e" opacity="0.5"/>
<rect x="1032.2" y="188.3" width="6" height="8" fill="#dcb28e" opacity="0.5"/>
<rect x="990.2" y="204.3" width="6" height="8" fill="#dcb28e" opacity="0.5"/>
<rect x="1004.2" y="204.3" width="6" height="8" fill="#dcb28e" opacity="0.5"/>
<rect x="1018.2" y="204.3" width="6" height="8" fill="#dcb28e" opacity="0.5"/>
<rect x="1032.2" y="204.3" width="6" height="8" fill="#dcb28e" opacity="0.5"/>
<rect x="990.2" y="220.3" width="6" height="8" fill="#dcb28e" opacity="0.5"/>
<rect x="1004.2" y="220.3" width="6" height="8" fill="#dcb28e" opacity="0.5"/>
<rect x="1018.2" y="220.3" width="6" height="8" fill="#dcb28e" opacity="0.5"/>
<rect x="1032.2" y="220.3" width="6" height="8" fill="#dcb28e" opacity="0.5"/>
<rect x="990.2" y="236.3" width="6" height="8" fill="#dcb28e" opacity="0.5"/>
<rect x="1018.2" y="236.3" width="6" height="8" fill="#dcb28e" opacity="0.5"/>
<rect x="1032.2" y="236.3" width="6" height="8" fill="#dcb28e" opacity="0.5"/>
<rect x="990.2" y="252.3" width="6" height="8" fill="#dcb28e" opacity="0.5"/>
<rect x="1018.2" y="252.3" width="6" height="8" fill="#dcb28e" opacity="0.5"/>
<rect x="1032.2" y="252.3" width="6" height="8" fill="#dcb28e" opacity="0.5"/>
<rect x="990.2" y="268.3" width="6" height="8" fill="#dcb28e" opacity="0.5"/>
<rect x="1018.2" y="268.3" width="6" height="8" fill="#dcb28e" opacity="0.5"/>
<rect x="1032.2" y="268.3" width="6" height="8" fill="#dcb28e" opacity="0.5"/>
<rect x="163.3" y="145.9" width="49.2" height="154.1" fill="#bc6c25"/>
<rect x="191.9" y="157.9" width="6" height="8" fill="#d39f71" opacity="0.5"/>
<rect x="177.9" y="173.9" width="6" height="8" fill="#d39f71" opacity="0.5"/>
<rect x="177.9" y="189.9" width="6" height="8" fill="#d39f71" opacity="0.5"/>
<rect x="191.9" y="189.9" width="6" height="8" fill="#d39f71" opacity="0.5"/>
<rect x="177.9" y="205.9" width="6" height="8" fill="#d39f71" opacity="0.5"/>
<rect x="191.9" y="205.9" width="6" height="8" fill="#d39f71" opacity="0.5"/>
<rect x="177.9" y="221.9" width="6" height="8" fill="#d39f71" opacity="0.5"/>
<rect x="191.9" y="221.9" width="6" height="8" fill="#d39f71" opacity="0.5"/>
<rect x="177.9" y="237.9" width="6" height="8" fill="#d39f71" opacity="0.5"/>
<rect x="191.9" y="253.9" width="6" height="8" fill="#d39f71" opacity="0.5"/>
<rect x="436.4" y="242.9" width="58.6" height="57.1" fill="#bc6c25"/>
<rect x="724.4" y="127.5" width="59.7" height="172.5" fill="#bc6c25"/>
<rect x="751.3" y="139.5" width="6" height="8" fill="#d39f71" opacity="0.5"/>
<rect x="737.3" y="155.5" width="6" height="8" fill="#d39f71" opacity="0.5"/>
<rect x="751.3" y="155.5" width="6" height="8" fill="#d39f71" opacity="0.5"/>
<rect x="765.3" y="155.5" width="6" height="8" fill="#d39f71" opacity="0.5"/>
<rect x="751.3" y="171.5" width="6" height="8" fill="#d39f71" opacity="0.5"/>
<rect x="765.3" y="171.5" width="6" height="8" fill="#d39f71" opacity="0.5"/>
<rect x="737.3" y="187.5" width="6" height="8" fill="#d39f71" opacity="0.5"/>
<rect x="751.3" y="187.5" width="6" height="8" fill="#d39f71" opacity="0.5"/>
<rect x="737.3" y="203.5" width="6" height="8" fill="#d39f71" opacity="0.5"/>
<rect x="751.3" y="203.5" width="6" height="8" fill="#d39f71" opacity="0.5"/>
<rect x="765.3" y="203.5" width="6" height="8" fill="#d39f71" opacity="0.5"/>
<rect x="737.3" y="219.5" width="6" height="8" fill="#d39f71" opacity="0.5"/>
<rect x="737.3" y="235.5" width="6" height="8" fill="#d39f71" opacity="0.5"/>
<rect x="751.3" y="235.5" width="6" height="8" fill="#d39f71" opacity="0.5"/>
<rect x="765.3" y="235.5" width="6" height="8" fill="#d39f71" opacity="0.5"/>
<rect x="737.3" y="251.5" width="6" height="8" fill="#d39f71" opacity="0.5"/>
<rect x="765.3" y="251.5" width="6" height="8" fill="#d39f71" opacity="0.5"/>
<rect x="737.3" y="267.5" width="6" height="8" fill="#d39f71" opacity="0.5"/>
<rect x="751.3" y="267.5" width="6" height="8" fill="#d39f71" opacity="0.5"/>
<rect x="765.3" y="267.5" width="6" height="8" fill="#d39f71" opacity="0.5"/>
<rect x="991.5" y="167.9" width="57.6" height="132.1" fill="#bc6c25"/>
<rect x="1010.4" y="179.9" width="6" height="8" fill="#d39f71" opacity="0.5"/>
<rect x="1024.4" y="179.9" width="6" height="8" fill="#d39f71" opacity="0.5"/>
<rect x="1010.4" y="195.9" width="6" height="8" fill="#d39f71" opacity="0.5"/>
<rect x="1024.4" y="195.9" width="6" height="8" fill="#d39f71" opacity="0.5"/>
<rect x="1010.4" y="211.9" width="6" height="8" fill="#d39f71" opacity="0.5"/>
<rect x="1024.4" y="211.9" width="6" height="8" fill="#d39f71" opacity="0.5"/>
<rect x="1010.4" y="227.9" width="6" height="8" fill="#d39f71" opacity="0.5"/>
<rect x="1024.4" y="227.9" width="6" height="8" fill="#d39f71" opacity="0.5"/>
<rect x="1010.4" y="259.9" width="6" height="8" fill="#d39f71" opacity="0.5"/>
<rect x="1024.4" y="259.9" width="6" height="8" fill="#d39f71" opacity="0.5"/>
<rect x="0" y="298" width="1200" height="2" fill="#a96121" opacity="0.15"/>
</svg>