<svg xmlns="http://www.w3.org/2000/svg" viewBox="0 0 1200 400" width="1200" height="400">
<defs>
<linearGradient id="bg" x1="0" y1="0" x2="0" y2="1"><stop offset="0%" stop-color="#a16207"/><stop offset="100%" stop-color="#c2410c"/></linearGradient>
<linearGradient id="warm" x1="0" y1="0" x2="1" y2="1"><stop offset="0%" stop-color="#b3945f" stop-opacity="0.18"/><stop offset="100%" stop-color="#b3945f" stop-opacity="0.06"/></linearGradient>
</defs>
<rect width="1200" height="400" fill="url(#bg)"/>
<path d="M0 400 L0 229.70700790780992 C60.0 225.7, 90.0 240.3, 150.0 238.3 C210.0 247.8, 240.0 215.4, 300.0 222.4 C360.0 217.9, 390.0 239.5, 450.0 244.7 C510.0 253.5, 540.0 247.6, 600.0 246.5 C660.0 246.0, 690.0 247.8, 750.0 245.8 C810.0 244.1, 840.0 247.3, 900.0 247.6 C960.0 257.1, 990.0 238.5, 1050.0 237.2 C1110.0 245.8, 1140.0 251.7, 1200.0 254.8 L1200 400 Z" fill="#b64d0a" opacity="0.45"/>
<path d="M0 400 L0 275.06798627944175 C52.5 280.3, 97.5 267.2, 150.0 265.5 C202.5 264.3, 247.5 272.9, 300.0 271.9 C352.5 274.8, 397.5 280.3, 450.0 272.9 C502.5 274.7, 547.5 264.4, 600.0 270.8 C652.5 264.8, 697.5 275.0, 750.0 269.8 C802.5 266.7, 847.5 250.8, 900.0 256.3 C952.5 250.3, 997.5 267.3, 1050.0 271.4 C1102.5 272.1, 1147.5 277.2, 1200.0 270.8 L1200 400 Z" fill="#c2410c" opacity="0.3"/>
<rect x="552.5" y="303.8" width="35.0" height="96.2" rx="5.2" fill="#986d0c" opacity="0.81"/>
<rect x="557.5" y="313.8" width="4" height="5" rx="0.5" fill="#a16207" opacity="0.6"/>
<rect x="557.5" y="335.8" width="4" height="5" rx="0.5" fill="#a16207" opacity="0.6"/>
<rect x="569.2" y="357.8" width="4" height="5" rx="0.5" fill="#a16207" opacity="0.6"/>
<rect x="469.9" y="349.5" width="40.5" height="50.5" rx="4.3" fill="#6e9a0d" opacity="0.65"/>
<rect x="402.6" y="283.6" width="26.6" height="116.4" rx="6.9" fill="#72950d" opacity="0.82"/>
<rect x="129.9" y="267.0" width="45.6" height="133.0" rx="7.8" fill="#71960d" opacity="0.58"/>
<rect x="399.2" y="293.0" width="34.6" height="107.0" rx="4.6" fill="#80860d" opacity="0.69"/>
<rect x="892.5" y="284.9" width="23.7" height="115.1" rx="3.0" fill="#92740d" opacity="0.63"/>
<rect x="1058.8" y="271.2" width="18.8" height="128.8" rx="7.2" fill="#6f990d" opacity="0.69"/>
<rect x="400.5" y="327.8" width="21.5" height="72.2" rx="3.2" fill="#91740d" opacity="0.84"/>
<rect x="897.1" y="280.9" width="42.1" height="119.1" rx="4.8" fill="#83830d" opacity="0.56"/>
<rect x="327.8" y="351.2" width="24.4" height="48.8" rx="3.3" fill="#8d790d" opacity="0.53"/>
<rect x="891.8" y="281.0" width="46.6" height="119.0" rx="3.8" fill="#81850d" opacity="0.64"/>
<rect x="896.8" y="291.0" width="4" height="5" rx="0.5" fill="#a16207" opacity="0.6"/>
<rect x="896.8" y="313.0" width="4" height="5" rx="0.5" fill="#a16207" opacity="0.6"/>
<rect x="912.3" y="313.0" width="4" height="5" rx="0.5" fill="#a16207" opacity="0.6"/>
<rect x="912.3" y="335.0" width="4" height="5" rx="0.5" fill="#a16207" opacity="0.6"/>
<rect x="654.1" y="274.7" width="45.6" height="125.3" rx="8.0" fill="#6f980d" opacity="0.59"/>
<rect x="659.1" y="306.7" width="4" height="5" rx="0.5" fill="#a16207" opacity="0.6"/>
<rect x="659.1" y="328.7" width="4" height="5" rx="0.5" fill="#a16207" opacity="0.6"/>
<rect x="674.3" y="328.7" width="4" height="5" rx="0.5" fill="#a16207" opacity="0.6"/>
<rect x="674.3" y="350.7" width="4" height="5" rx="0.5" fill="#a16207" opacity="0.6"/>
<rect x="168.5" y="321.8" width="29.7" height="78.2" rx="3.3" fill="#86800d" opacity="0.83"/>
<rect x="229.0" y="273.0" width="31.1" height="127.0" rx="7.6" fill="#85810d" opacity="0.69"/>
<polygon points="463.9,233.3 459.7,240.6 468.1,240.6" fill="#a16207" opacity="0.22"/>
<polygon points="406.2,80.3 400.8,89.7 411.7,89.7" fill="#a16207" opacity="0.40"/>
<polygon points="579.2,50.9 569.5,67.6 588.9,67.6" fill="#a16207" opacity="0.39"/>
<polygon points="809.6,130.8 799.3,148.6 819.8,148.6" fill="#65a30d" opacity="0.21"/>
<rect width="1200" height="400" fill="url(#warm)"/>
<rect width="1200" height="400" fill="#a16207" opacity="0.44"/>
</svg>