<svg xmlns="http://www.w3.org/2000/svg" viewBox="0 0 1200 300" width="1200" height="300">
<defs>
<linearGradient id="skyGrad" x1="0" y1="0" x2="0" y2="1">
<stop offset="0%" stop-color="#a78bfa"/>
<stop offset="18%" stop-color="#ddb4f0"/>
<stop offset="35%" stop-color="#fda4af"/>
<stop offset="52%" stop-color="#fdba74"/>
<stop offset="72%" stop-color="#fef08a"/>
<stop offset="100%" stop-color="#fef9c3"/>
</linearGradient>
<linearGradient id="bldg_coral" x1="0" y1="0" x2="0" y2="1"><stop offset="0%" stop-color="#fecaca"/><stop offset="100%" stop-color="#fca5a5"/></linearGradient>
<linearGradient id="bldg_teal" x1="0" y1="0" x2="0" y2="1"><stop offset="0%" stop-color="#99f6e4"/><stop offset="100%" stop-color="#5eead4"/></linearGradient>
<linearGradient id="bldg_amber" x1="0" y1="0" x2="0" y2="1"><stop offset="0%" stop-color="#fde68a"/><stop offset="100%" stop-color="#fcd34d"/></linearGradient>
<linearGradient id="bldg_lavender" x1="0" y1="0" x2="0" y2="1"><stop offset="0%" stop-color="#ddd6fe"/><stop offset="100%" stop-color="#c4b5fd"/></linearGradient>
<linearGradient id="bldg_blue" x1="0" y1="0" x2="0" y2="1"><stop offset="0%" stop-color="#bfdbfe"/><stop offset="100%" stop-color="#93c5fd"/></linearGradient>
<linearGradient id="bldg_mint" x1="0" y1="0" x2="0" y2="1"><stop offset="0%" stop-color="#a7f3d0"/><stop offset="100%" stop-color="#6ee7b7"/></linearGradient>
<linearGradient id="bldg_rose" x1="0" y1="0" x2="0" y2="1"><stop offset="0%" stop-color="#fecdd3"/><stop offset="100%" stop-color="#fda4af"/></linearGradient>
<linearGradient id="bldg_sky" x1="0" y1="0" x2="0" y2="1"><stop offset="0%" stop-color="#bae6fd"/><stop offset="100%" stop-color="#7dd3fc"/></linearGradient>
<linearGradient id="roof_navyRoof" x1="0" y1="0" x2="0" y2="1"><stop offset="0%" stop-color="#4338ca"/><stop offset="100%" stop-color="#3730a3"/></linearGradient>
<linearGradient id="roof_coralRoof" x1="0" y1="0" x2="0" y2="1"><stop offset="0%" stop-color="#f87171"/><stop offset="100%" stop-color="#ef4444"/></linearGradient>
<linearGradient id="roof_tealRoof" x1="0" y1="0" x2="0" y2="1"><stop offset="0%" stop-color="#2dd4bf"/><stop offset="100%" stop-color="#14b8a6"/></linearGradient>
<radialGradient id="windowGlow" cx="50%" cy="50%" r="50%"><stop offset="0%" stop-color="#fef08a"/><stop offset="60%" stop-color="#fbbf24"/><stop offset="100%" stop-color="#f59e0b"/></radialGradient>
<linearGradient id="hillFar" x1="0" y1="0" x2="0" y2="1"><stop offset="0%" stop-color="#c4b5fd"/><stop offset="100%" stop-color="#a5b4fc"/></linearGradient>
<linearGradient id="hillMid" x1="0" y1="0" x2="0" y2="1"><stop offset="0%" stop-color="#86efac"/><stop offset="100%" stop-color="#4ade80"/></linearGradient>
<linearGradient id="hillNear" x1="0" y1="0" x2="0" y2="1"><stop offset="0%" stop-color="#34d399"/><stop offset="100%" stop-color="#10b981"/></linearGradient>
<linearGradient id="hillDesertFar" x1="0" y1="0" x2="0" y2="1"><stop offset="0%" stop-color="#fde68a"/><stop offset="100%" stop-color="#fcd34d"/></linearGradient>
<linearGradient id="hillDesertMid" x1="0" y1="0" x2="0" y2="1"><stop offset="0%" stop-color="#fcd34d"/><stop offset="100%" stop-color="#fbbf24"/></linearGradient>
<linearGradient id="hillDesertNear" x1="0" y1="0" x2="0" y2="1"><stop offset="0%" stop-color="#fbbf24"/><stop offset="100%" stop-color="#f59e0b"/></linearGradient>
<linearGradient id="groundGrad" x1="0" y1="0" x2="0" y2="1"><stop offset="0%" stop-color="#fef3c7"/><stop offset="100%" stop-color="#fde68a"/></linearGradient>
<linearGradient id="waterGrad" x1="0" y1="0" x2="0" y2="1"><stop offset="0%" stop-color="#bfdbfe"/><stop offset="100%" stop-color="#93c5fd"/></linearGradient>
<filter id="softGlow" x="-50%" y="-50%" width="200%" height="200%"><feGaussianBlur in="SourceGraphic" stdDeviation="12"/></filter>
</defs>
<rect width="1200" height="300" fill="url(#skyGrad)"/>
<circle cx="944.1" cy="48.6" r="45" fill="#fef08a" opacity="0.12" filter="url(#softGlow)"/>
<circle cx="944.1" cy="48.6" r="30" fill="#fde68a" opacity="0.18" filter="url(#softGlow)"/>
<circle cx="944.1" cy="48.6" r="16" fill="#fef9c3" opacity="0.25" filter="url(#softGlow)"/>
<path d="M0 300 L0.0 184.1 C167.9 184.1, 167.9 182.9, 335.9 182.9 C487.9 182.9, 487.9 186.4, 640.0 186.4 C804.0 186.4, 804.0 189.6, 968.1 189.6 C1084.0 189.6, 1084.0 190.2, 1200.0 190.2 L1200 300 Z" fill="url(#hillFar)" opacity="0.5"/>
<path d="M0 300 L0.0 215.0 C133.1 215.0, 133.1 212.4, 266.2 212.4 C466.0 212.4, 466.0 208.5, 665.7 208.5 C780.7 208.5, 780.7 207.9, 895.6 207.9 C1047.8 207.9, 1047.8 214.9, 1200.0 214.9 L1200 300 Z" fill="url(#hillMid)" opacity="0.7"/>
<path d="M0 300 L0.0 227.4 C154.9 227.4, 154.9 230.4, 309.7 230.4 C443.2 230.4, 443.2 230.7, 576.6 230.7 C732.8 230.7, 732.8 232.4, 889.1 232.4 C1044.5 232.4, 1044.5 232.8, 1200.0 232.8 L1200 300 Z" fill="url(#hillNear)" opacity="1"/>
<rect x="149.4" y="210.3" width="71.8" height="89.7" rx="3" fill="url(#bldg_rose)" opacity="0.7"/>
<polygon points="149.4,210.3 185.3,193.1 221.2,210.3" fill="url(#roof_navyRoof)" opacity="0.7"/>
<rect x="182.3" y="220.3" width="6" height="8" rx="1" fill="url(#windowGlow)" opacity="0.8152504141513492"/>
<rect x="196.3" y="220.3" width="6" height="8" rx="1" fill="url(#windowGlow)" opacity="0.7883018234690193"/>
<rect x="168.3" y="235.3" width="6" height="8" rx="1" fill="url(#windowGlow)" opacity="0.7709094987115401"/>
<rect x="182.3" y="235.3" width="6" height="8" rx="1" fill="url(#windowGlow)" opacity="0.7490291967750662"/>
<rect x="196.3" y="235.3" width="6" height="8" rx="1" fill="url(#windowGlow)" opacity="0.9822954066015293"/>
<rect x="182.3" y="250.3" width="6" height="8" rx="1" fill="url(#windowGlow)" opacity="0.7656850016050436"/>
<rect x="196.3" y="250.3" width="6" height="8" rx="1" fill="url(#windowGlow)" opacity="0.85342577414281"/>
<rect x="595.5" y="212.8" width="73.7" height="87.2" rx="3" fill="url(#bldg_sky)" opacity="0.7"/>
<rect x="610.2" y="202.4" width="44.2" height="10.5" rx="2" fill="url(#roof_coralRoof)" opacity="0.7"/>
<rect x="608.3" y="222.8" width="6" height="8" rx="1" fill="url(#windowGlow)" opacity="0.7872362094871868"/>
<rect x="622.3" y="222.8" width="6" height="8" rx="1" fill="url(#windowGlow)" opacity="0.846556419342084"/>
<rect x="636.3" y="222.8" width="6" height="8" rx="1" fill="url(#windowGlow)" opacity="0.7895056852090664"/>
<rect x="650.3" y="222.8" width="6" height="8" rx="1" fill="url(#windowGlow)" opacity="0.9336220242705298"/>
<rect x="608.3" y="237.8" width="6" height="8" rx="1" fill="url(#windowGlow)" opacity="0.701332512358824"/>
<rect x="622.3" y="237.8" width="6" height="8" rx="1" fill="url(#windowGlow)" opacity="0.8134343488204452"/>
<rect x="636.3" y="237.8" width="6" height="8" rx="1" fill="url(#windowGlow)" opacity="0.7534102697639773"/>
<rect x="650.3" y="237.8" width="6" height="8" rx="1" fill="url(#windowGlow)" opacity="0.9933742125487766"/>
<rect x="608.3" y="252.8" width="6" height="8" rx="1" fill="url(#windowGlow)" opacity="0.751154063153618"/>
<rect x="622.3" y="252.8" width="6" height="8" rx="1" fill="url(#windowGlow)" opacity="0.850166764319952"/>
<rect x="636.3" y="252.8" width="6" height="8" rx="1" fill="url(#windowGlow)" opacity="0.8168269903477406"/>
<rect x="650.3" y="252.8" width="6" height="8" rx="1" fill="url(#windowGlow)" opacity="0.7117540418690788"/>
<rect x="948.0" y="208.4" width="63.7" height="91.6" rx="3" fill="url(#bldg_coral)" opacity="0.7"/>
<rect x="948.0" y="205.4" width="63.7" height="3" rx="1" fill="url(#roof_tealRoof)" opacity="0.7"/>
<rect x="962.9" y="218.4" width="6" height="8" rx="1" fill="url(#windowGlow)" opacity="0.9374937612737965"/>
<rect x="976.9" y="218.4" width="6" height="8" rx="1" fill="url(#windowGlow)" opacity="0.9428303382558889"/>
<rect x="990.9" y="218.4" width="6" height="8" rx="1" fill="url(#windowGlow)" opacity="0.8624857621092749"/>
<rect x="990.9" y="233.4" width="6" height="8" rx="1" fill="url(#windowGlow)" opacity="0.7532185598524374"/>
<rect x="962.9" y="248.4" width="6" height="8" rx="1" fill="url(#windowGlow)" opacity="0.7197247700857579"/>
<rect x="976.9" y="248.4" width="6" height="8" rx="1" fill="url(#windowGlow)" opacity="0.7270634752824267"/>
<rect x="990.9" y="248.4" width="6" height="8" rx="1" fill="url(#windowGlow)" opacity="0.9442803801243567"/>
<rect x="148.7" y="231.0" width="79.9" height="69.0" rx="3" fill="url(#bldg_teal)" opacity="0.85"/>
<rect x="148.7" y="228.0" width="79.9" height="3" rx="1" fill="url(#roof_navyRoof)" opacity="0.85"/>
<rect x="178.7" y="241.0" width="6" height="8" rx="1" fill="url(#windowGlow)" opacity="0.8230369223854677"/>
<rect x="192.7" y="241.0" width="6" height="8" rx="1" fill="url(#windowGlow)" opacity="0.9026348480967036"/>
<rect x="164.7" y="256.0" width="6" height="8" rx="1" fill="url(#windowGlow)" opacity="0.8405647541585214"/>
<rect x="178.7" y="256.0" width="6" height="8" rx="1" fill="url(#windowGlow)" opacity="0.8525733540079432"/>
<path d="M156.7 255.1 L188.7 255.1 L185.7 261.1 L159.7 261.1 Z" fill="url(#roof_tealRoof)" opacity="0.68"/>
<rect x="462.3" y="213.0" width="44.0" height="87.0" rx="3" fill="url(#bldg_amber)" opacity="0.85"/>
<rect x="471.1" y="202.6" width="26.4" height="10.4" rx="2" fill="url(#roof_coralRoof)" opacity="0.85"/>
<rect x="474.3" y="223.0" width="6" height="8" rx="1" fill="url(#windowGlow)" opacity="0.7554170313549307"/>
<rect x="488.3" y="223.0" width="6" height="8" rx="1" fill="url(#windowGlow)" opacity="0.914003194036895"/>
<rect x="474.3" y="238.0" width="6" height="8" rx="1" fill="url(#windowGlow)" opacity="0.7983293117481886"/>
<rect x="488.3" y="238.0" width="6" height="8" rx="1" fill="url(#windowGlow)" opacity="0.8198973347059904"/>
<rect x="474.3" y="253.0" width="6" height="8" rx="1" fill="url(#windowGlow)" opacity="0.9570888191727402"/>
<rect x="488.3" y="253.0" width="6" height="8" rx="1" fill="url(#windowGlow)" opacity="0.8644251051193219"/>
<rect x="689.5" y="218.3" width="45.4" height="81.7" rx="3" fill="url(#bldg_lavender)" opacity="0.85"/>
<polygon points="689.5,218.3 712.2,208.9 734.9,218.3" fill="url(#roof_tealRoof)" opacity="0.85"/>
<rect x="716.2" y="228.3" width="6" height="8" rx="1" fill="url(#windowGlow)" opacity="0.9821552750105761"/>
<rect x="702.2" y="243.3" width="6" height="8" rx="1" fill="url(#windowGlow)" opacity="0.9660190700860782"/>
<rect x="702.2" y="258.3" width="6" height="8" rx="1" fill="url(#windowGlow)" opacity="0.8716459203845104"/>
<rect x="716.2" y="258.3" width="6" height="8" rx="1" fill="url(#windowGlow)" opacity="0.8046494792237177"/>
<rect x="1019.0" y="188.0" width="61.8" height="112.0" rx="3" fill="url(#bldg_blue)" opacity="0.85"/>
<rect x="1019.0" y="185.0" width="61.8" height="3" rx="1" fill="url(#roof_navyRoof)" opacity="0.85"/>
<rect x="1032.9" y="198.0" width="6" height="8" rx="1" fill="url(#windowGlow)" opacity="0.7744840026714298"/>
<rect x="1046.9" y="198.0" width="6" height="8" rx="1" fill="url(#windowGlow)" opacity="0.8015563398606871"/>
<rect x="1060.9" y="198.0" width="6" height="8" rx="1" fill="url(#windowGlow)" opacity="0.8091247103219501"/>
<rect x="1032.9" y="213.0" width="6" height="8" rx="1" fill="url(#windowGlow)" opacity="0.8556766664868577"/>
<rect x="1046.9" y="213.0" width="6" height="8" rx="1" fill="url(#windowGlow)" opacity="0.7775677931390552"/>
<rect x="1060.9" y="213.0" width="6" height="8" rx="1" fill="url(#windowGlow)" opacity="0.9437515509052907"/>
<rect x="1032.9" y="228.0" width="6" height="8" rx="1" fill="url(#windowGlow)" opacity="0.9023883912257795"/>
<rect x="1046.9" y="228.0" width="6" height="8" rx="1" fill="url(#windowGlow)" opacity="0.995676918605192"/>
<rect x="1060.9" y="228.0" width="6" height="8" rx="1" fill="url(#windowGlow)" opacity="0.7698358082072044"/>
<rect x="1032.9" y="243.0" width="6" height="8" rx="1" fill="url(#windowGlow)" opacity="0.856188630338846"/>
<rect x="1060.9" y="243.0" width="6" height="8" rx="1" fill="url(#windowGlow)" opacity="0.7818386654750623"/>
<rect x="1032.9" y="258.0" width="6" height="8" rx="1" fill="url(#windowGlow)" opacity="0.7190077407374083"/>
<rect x="1046.9" y="258.0" width="6" height="8" rx="1" fill="url(#windowGlow)" opacity="0.8154806235411579"/>
<rect x="146.9" y="191.7" width="59.3" height="108.3" rx="3" fill="url(#bldg_mint)" opacity="1"/>
<polygon points="146.9,191.7 176.5,171.0 206.2,191.7" fill="url(#roof_coralRoof)" opacity="1"/>
<rect x="159.5" y="201.7" width="6" height="8" rx="1" fill="url(#windowGlow)" opacity="0.7376317897986768"/>
<rect x="173.5" y="201.7" width="6" height="8" rx="1" fill="url(#windowGlow)" opacity="0.8108060126708848"/>
<rect x="187.5" y="201.7" width="6" height="8" rx="1" fill="url(#windowGlow)" opacity="0.7154619716179845"/>
<rect x="159.5" y="216.7" width="6" height="8" rx="1" fill="url(#windowGlow)" opacity="0.7862718495942055"/>
<rect x="173.5" y="216.7" width="6" height="8" rx="1" fill="url(#windowGlow)" opacity="0.9477088070696726"/>
<rect x="159.5" y="231.7" width="6" height="8" rx="1" fill="url(#windowGlow)" opacity="0.9647000727079342"/>
<rect x="173.5" y="231.7" width="6" height="8" rx="1" fill="url(#windowGlow)" opacity="0.7574300902697397"/>
<rect x="187.5" y="231.7" width="6" height="8" rx="1" fill="url(#windowGlow)" opacity="0.9812277915800119"/>
<rect x="159.5" y="246.7" width="6" height="8" rx="1" fill="url(#windowGlow)" opacity="0.9197500535844592"/>
<rect x="173.5" y="246.7" width="6" height="8" rx="1" fill="url(#windowGlow)" opacity="0.9759078183099198"/>
<rect x="171.5" y="284.0" width="10" height="16" rx="2" fill="url(#roof_navyRoof)" opacity="0.8"/>
<rect x="173.5" y="287.0" width="6" height="10" rx="1" fill="url(#windowGlow)" opacity="0.45"/>
<rect x="451.7" y="126.9" width="71.7" height="173.1" rx="3" fill="url(#bldg_rose)" opacity="1"/>
<polygon points="451.7,126.9 487.5,110.1 523.4,126.9" fill="url(#roof_tealRoof)" opacity="1"/>
<rect x="470.5" y="136.9" width="6" height="8" rx="1" fill="url(#windowGlow)" opacity="0.7633178674910766"/>
<rect x="484.5" y="136.9" width="6" height="8" rx="1" fill="url(#windowGlow)" opacity="0.8153816234857689"/>
<rect x="498.5" y="136.9" width="6" height="8" rx="1" fill="url(#windowGlow)" opacity="0.7699811390926973"/>
<rect x="470.5" y="151.9" width="6" height="8" rx="1" fill="url(#windowGlow)" opacity="0.7663511181559186"/>
<rect x="498.5" y="151.9" width="6" height="8" rx="1" fill="url(#windowGlow)" opacity="0.7883274793570523"/>
<rect x="470.5" y="181.9" width="6" height="8" rx="1" fill="url(#windowGlow)" opacity="0.8820677361367585"/>
<rect x="498.5" y="181.9" width="6" height="8" rx="1" fill="url(#windowGlow)" opacity="0.8827850919602369"/>
<rect x="470.5" y="196.9" width="6" height="8" rx="1" fill="url(#windowGlow)" opacity="0.7873289289825265"/>
<rect x="484.5" y="196.9" width="6" height="8" rx="1" fill="url(#windowGlow)" opacity="0.9529868173194056"/>
<rect x="498.5" y="196.9" width="6" height="8" rx="1" fill="url(#windowGlow)" opacity="0.9132561796872206"/>
<rect x="470.5" y="211.9" width="6" height="8" rx="1" fill="url(#windowGlow)" opacity="0.7386314235341881"/>
<rect x="484.5" y="211.9" width="6" height="8" rx="1" fill="url(#windowGlow)" opacity="0.8300758495135585"/>
<rect x="498.5" y="211.9" width="6" height="8" rx="1" fill="url(#windowGlow)" opacity="0.9661648242576815"/>
<rect x="470.5" y="226.9" width="6" height="8" rx="1" fill="url(#windowGlow)" opacity="0.7862976794067293"/>
<rect x="484.5" y="226.9" width="6" height="8" rx="1" fill="url(#windowGlow)" opacity="0.8601492349338481"/>
<rect x="498.5" y="241.9" width="6" height="8" rx="1" fill="url(#windowGlow)" opacity="0.7299243817245236"/>
<rect x="482.5" y="284.0" width="10" height="16" rx="2" fill="url(#roof_navyRoof)" opacity="0.8"/>
<rect x="484.5" y="287.0" width="6" height="10" rx="1" fill="url(#windowGlow)" opacity="0.45"/>
<rect x="475.0" y="167.9" width="25.1" height="5" rx="1" fill="#15803d" opacity="0.7"/>
<circle cx="478.0" cy="166.9" r="2.5" fill="#fb923c" opacity="0.85"/>
<circle cx="486.4" cy="166.9" r="2.5" fill="#fb923c" opacity="0.85"/>
<circle cx="494.7" cy="166.9" r="2.5" fill="#fbbf24" opacity="0.85"/>
<rect x="692.9" y="167.7" width="57.5" height="132.3" rx="3" fill="url(#bldg_sky)" opacity="1"/>
<rect x="704.4" y="151.9" width="34.5" height="15.9" rx="2" fill="url(#roof_navyRoof)" opacity="1"/>
<rect x="711.6" y="177.7" width="6" height="8" rx="1" fill="url(#windowGlow)" opacity="0.8103692201014464"/>
<rect x="725.6" y="177.7" width="6" height="8" rx="1" fill="url(#windowGlow)" opacity="0.7631189133800188"/>
<rect x="711.6" y="192.7" width="6" height="8" rx="1" fill="url(#windowGlow)" opacity="0.821064399472002"/>
<rect x="725.6" y="192.7" width="6" height="8" rx="1" fill="url(#windowGlow)" opacity="0.7334881754282341"/>
<rect x="711.6" y="207.7" width="6" height="8" rx="1" fill="url(#windowGlow)" opacity="0.9836305538116165"/>
<rect x="725.6" y="207.7" width="6" height="8" rx="1" fill="url(#windowGlow)" opacity="0.7930655010012283"/>
<rect x="711.6" y="222.7" width="6" height="8" rx="1" fill="url(#windowGlow)" opacity="0.8209830938936131"/>
<rect x="711.6" y="237.7" width="6" height="8" rx="1" fill="url(#windowGlow)" opacity="0.8315187512578064"/>
<rect x="725.6" y="237.7" width="6" height="8" rx="1" fill="url(#windowGlow)" opacity="0.8727536851413332"/>
<rect x="711.6" y="252.7" width="6" height="8" rx="1" fill="url(#windowGlow)" opacity="0.8939733964362989"/>
<rect x="725.6" y="252.7" width="6" height="8" rx="1" fill="url(#windowGlow)" opacity="0.8594889305343334"/>
<rect x="716.6" y="284.0" width="10" height="16" rx="2" fill="url(#roof_navyRoof)" opacity="0.8"/>
<rect x="718.6" y="287.0" width="6" height="10" rx="1" fill="url(#windowGlow)" opacity="0.45"/>
<rect x="972.8" y="155.8" width="42.0" height="144.2" rx="3" fill="url(#bldg_coral)" opacity="1"/>
<rect x="972.8" y="152.8" width="42.0" height="3" rx="1" fill="url(#roof_coralRoof)" opacity="1"/>
<rect x="990.8" y="165.8" width="6" height="8" rx="1" fill="url(#windowGlow)" opacity="0.9867158980046938"/>
<rect x="990.8" y="180.8" width="6" height="8" rx="1" fill="url(#windowGlow)" opacity="0.8196263990456361"/>
<rect x="990.8" y="195.8" width="6" height="8" rx="1" fill="url(#windowGlow)" opacity="0.7318597649838122"/>
<rect x="990.8" y="210.8" width="6" height="8" rx="1" fill="url(#windowGlow)" opacity="0.7074736070388339"/>
<rect x="988.8" y="284.0" width="10" height="16" rx="2" fill="url(#roof_navyRoof)" opacity="0.8"/>
<rect x="990.8" y="287.0" width="6" height="10" rx="1" fill="url(#windowGlow)" opacity="0.45"/>
<rect x="986.5" y="196.8" width="14.7" height="5" rx="1" fill="#15803d" opacity="0.7"/>
<circle cx="989.5" cy="195.8" r="2.5" fill="#a78bfa" opacity="0.85"/>
<circle cx="994.4" cy="195.8" r="2.5" fill="#f87171" opacity="0.85"/>
<circle cx="999.3" cy="195.8" r="2.5" fill="#fbbf24" opacity="0.85"/>
<rect x="325.9" y="264.0" width="6" height="21.0" rx="2" fill="#15803d"/>
<circle cx="328.9" cy="252.0" r="16.0" fill="#22c55e" opacity="0.9"/>
<circle cx="321.6" cy="255.0" r="12.0" fill="#16a34a" opacity="0.8"/>
<circle cx="334.3" cy="256.0" r="11.2" fill="#15803d" opacity="0.7"/>
<rect x="605.1" y="265.8" width="6" height="19.2" rx="2" fill="#15803d"/>
<circle cx="608.1" cy="256.1" r="13.7" fill="#22c55e" opacity="0.9"/>
<circle cx="601.1" cy="259.1" r="10.3" fill="#16a34a" opacity="0.8"/>
<circle cx="615.6" cy="260.1" r="9.6" fill="#15803d" opacity="0.7"/>
<rect x="858.6" y="266.5" width="6" height="18.5" rx="2" fill="#15803d"/>
<circle cx="861.6" cy="254.2" r="16.3" fill="#22c55e" opacity="0.9"/>
<circle cx="853.0" cy="257.2" r="12.2" fill="#16a34a" opacity="0.8"/>
<circle cx="868.4" cy="258.2" r="11.4" fill="#15803d" opacity="0.7"/>
<rect x="94.5" y="265.7" width="6" height="19.3" rx="2" fill="#15803d"/>
<circle cx="97.5" cy="251.8" r="17.9" fill="#22c55e" opacity="0.9"/>
<circle cx="88.9" cy="254.8" r="13.4" fill="#16a34a" opacity="0.8"/>
<circle cx="104.1" cy="255.8" r="12.5" fill="#15803d" opacity="0.7"/>
<rect x="1051.0" y="265.6" width="6" height="19.4" rx="2" fill="#15803d"/>
<circle cx="1054.0" cy="255.0" r="14.6" fill="#22c55e" opacity="0.9"/>
<circle cx="1046.5" cy="258.0" r="10.9" fill="#16a34a" opacity="0.8"/>
<circle cx="1059.9" cy="259.0" r="10.2" fill="#15803d" opacity="0.7"/>
<rect x="800.9" y="264.2" width="6" height="20.8" rx="2" fill="#15803d"/>
<circle cx="803.9" cy="254.9" r="13.2" fill="#22c55e" opacity="0.9"/>
<circle cx="797.4" cy="257.9" r="9.9" fill="#16a34a" opacity="0.8"/>
<circle cx="809.7" cy="258.9" r="9.2" fill="#15803d" opacity="0.7"/>
<rect x="501.7" y="264.2" width="6" height="20.8" rx="2" fill="#15803d"/>
<circle cx="504.7" cy="252.9" r="15.2" fill="#22c55e" opacity="0.9"/>
<circle cx="496.2" cy="255.9" r="11.4" fill="#16a34a" opacity="0.8"/>
<circle cx="511.6" cy="256.9" r="10.7" fill="#15803d" opacity="0.7"/>
<rect x="0" y="282" width="1200" height="18" fill="url(#groundGrad)"/>
<line x1="486.6" y1="282.0" x2="486.6" y2="241.2" stroke="#92400e" stroke-width="2"/>
<circle cx="486.6" cy="241.2" r="4" fill="#fef08a" opacity="0.6"/>
<circle cx="486.6" cy="241.2" r="8" fill="#fef08a" opacity="0.15" filter="url(#softGlow)"/>
<ellipse cx="1100.2" cy="282.0" rx="6.6" ry="4.6" fill="#22c55e" opacity="0.6"/>
<ellipse cx="398.6" cy="282.0" rx="4.3" ry="3.0" fill="#22c55e" opacity="0.6"/>
<ellipse cx="218.4" cy="282.0" rx="6.2" ry="4.4" fill="#22c55e" opacity="0.6"/>
</svg>