<svg xmlns="http://www.w3.org/2000/svg" viewBox="0 0 1200 300" width="1200" height="300">
<defs>
<linearGradient id="skyGrad" x1="0" y1="0" x2="0" y2="1">
<stop offset="0%" stop-color="#a78bfa"/>
<stop offset="18%" stop-color="#ddb4f0"/>
<stop offset="35%" stop-color="#fda4af"/>
<stop offset="52%" stop-color="#fdba74"/>
<stop offset="72%" stop-color="#fef08a"/>
<stop offset="100%" stop-color="#fef9c3"/>
</linearGradient>
<linearGradient id="bldg_coral" x1="0" y1="0" x2="0" y2="1"><stop offset="0%" stop-color="#fecaca"/><stop offset="100%" stop-color="#fca5a5"/></linearGradient>
<linearGradient id="bldg_teal" x1="0" y1="0" x2="0" y2="1"><stop offset="0%" stop-color="#99f6e4"/><stop offset="100%" stop-color="#5eead4"/></linearGradient>
<linearGradient id="bldg_amber" x1="0" y1="0" x2="0" y2="1"><stop offset="0%" stop-color="#fde68a"/><stop offset="100%" stop-color="#fcd34d"/></linearGradient>
<linearGradient id="bldg_lavender" x1="0" y1="0" x2="0" y2="1"><stop offset="0%" stop-color="#ddd6fe"/><stop offset="100%" stop-color="#c4b5fd"/></linearGradient>
<linearGradient id="bldg_blue" x1="0" y1="0" x2="0" y2="1"><stop offset="0%" stop-color="#bfdbfe"/><stop offset="100%" stop-color="#93c5fd"/></linearGradient>
<linearGradient id="bldg_mint" x1="0" y1="0" x2="0" y2="1"><stop offset="0%" stop-color="#a7f3d0"/><stop offset="100%" stop-color="#6ee7b7"/></linearGradient>
<linearGradient id="bldg_rose" x1="0" y1="0" x2="0" y2="1"><stop offset="0%" stop-color="#fecdd3"/><stop offset="100%" stop-color="#fda4af"/></linearGradient>
<linearGradient id="bldg_sky" x1="0" y1="0" x2="0" y2="1"><stop offset="0%" stop-color="#bae6fd"/><stop offset="100%" stop-color="#7dd3fc"/></linearGradient>
<linearGradient id="roof_navyRoof" x1="0" y1="0" x2="0" y2="1"><stop offset="0%" stop-color="#4338ca"/><stop offset="100%" stop-color="#3730a3"/></linearGradient>
<linearGradient id="roof_coralRoof" x1="0" y1="0" x2="0" y2="1"><stop offset="0%" stop-color="#f87171"/><stop offset="100%" stop-color="#ef4444"/></linearGradient>
<linearGradient id="roof_tealRoof" x1="0" y1="0" x2="0" y2="1"><stop offset="0%" stop-color="#2dd4bf"/><stop offset="100%" stop-color="#14b8a6"/></linearGradient>
<radialGradient id="windowGlow" cx="50%" cy="50%" r="50%"><stop offset="0%" stop-color="#fef08a"/><stop offset="60%" stop-color="#fbbf24"/><stop offset="100%" stop-color="#f59e0b"/></radialGradient>
<linearGradient id="hillFar" x1="0" y1="0" x2="0" y2="1"><stop offset="0%" stop-color="#c4b5fd"/><stop offset="100%" stop-color="#a5b4fc"/></linearGradient>
<linearGradient id="hillMid" x1="0" y1="0" x2="0" y2="1"><stop offset="0%" stop-color="#86efac"/><stop offset="100%" stop-color="#4ade80"/></linearGradient>
<linearGradient id="hillNear" x1="0" y1="0" x2="0" y2="1"><stop offset="0%" stop-color="#34d399"/><stop offset="100%" stop-color="#10b981"/></linearGradient>
<linearGradient id="hillDesertFar" x1="0" y1="0" x2="0" y2="1"><stop offset="0%" stop-color="#fde68a"/><stop offset="100%" stop-color="#fcd34d"/></linearGradient>
<linearGradient id="hillDesertMid" x1="0" y1="0" x2="0" y2="1"><stop offset="0%" stop-color="#fcd34d"/><stop offset="100%" stop-color="#fbbf24"/></linearGradient>
<linearGradient id="hillDesertNear" x1="0" y1="0" x2="0" y2="1"><stop offset="0%" stop-color="#fbbf24"/><stop offset="100%" stop-color="#f59e0b"/></linearGradient>
<linearGradient id="groundGrad" x1="0" y1="0" x2="0" y2="1"><stop offset="0%" stop-color="#fef3c7"/><stop offset="100%" stop-color="#fde68a"/></linearGradient>
<linearGradient id="waterGrad" x1="0" y1="0" x2="0" y2="1"><stop offset="0%" stop-color="#bfdbfe"/><stop offset="100%" stop-color="#93c5fd"/></linearGradient>
<filter id="softGlow" x="-50%" y="-50%" width="200%" height="200%"><feGaussianBlur in="SourceGraphic" stdDeviation="12"/></filter>
</defs>
<rect width="1200" height="300" fill="url(#skyGrad)"/>
<circle cx="981.1" cy="49.8" r="45" fill="#fef08a" opacity="0.12" filter="url(#softGlow)"/>
<circle cx="981.1" cy="49.8" r="30" fill="#fde68a" opacity="0.18" filter="url(#softGlow)"/>
<circle cx="981.1" cy="49.8" r="16" fill="#fef9c3" opacity="0.25" filter="url(#softGlow)"/>
<path d="M0 300 L0.0 190.6 C152.9 190.6, 152.9 179.1, 305.9 179.1 C568.0 179.1, 568.0 189.1, 830.0 189.1 C1015.0 189.1, 1015.0 193.9, 1200.0 193.9 L1200 300 Z" fill="url(#hillFar)" opacity="0.5"/>
<path d="M0 300 L0.0 213.0 C247.2 213.0, 247.2 213.3, 494.4 213.3 C612.5 213.3, 612.5 215.0, 730.7 215.0 C965.4 215.0, 965.4 219.6, 1200.0 219.6 L1200 300 Z" fill="url(#hillMid)" opacity="0.7"/>
<path d="M0 300 L0.0 235.2 C157.1 235.2, 157.1 232.5, 314.3 232.5 C572.5 232.5, 572.5 236.4, 830.7 236.4 C1015.4 236.4, 1015.4 232.4, 1200.0 232.4 L1200 300 Z" fill="url(#hillNear)" opacity="1"/>
<rect x="190.8" y="241.5" width="53.4" height="58.5" rx="3" fill="url(#bldg_sky)" opacity="0.7"/>
<rect x="201.5" y="234.5" width="32.1" height="7.0" rx="2" fill="url(#roof_tealRoof)" opacity="0.7"/>
<rect x="207.5" y="251.5" width="6" height="8" rx="1" fill="url(#windowGlow)" opacity="0.811869348730831"/>
<rect x="221.5" y="251.5" width="6" height="8" rx="1" fill="url(#windowGlow)" opacity="0.9304582004577192"/>
<rect x="550.0" y="224.5" width="67.4" height="75.5" rx="3" fill="url(#bldg_coral)" opacity="0.7"/>
<rect x="563.5" y="215.5" width="40.4" height="9.1" rx="2" fill="url(#roof_navyRoof)" opacity="0.7"/>
<rect x="566.7" y="234.5" width="6" height="8" rx="1" fill="url(#windowGlow)" opacity="0.8258609818415068"/>
<rect x="580.7" y="234.5" width="6" height="8" rx="1" fill="url(#windowGlow)" opacity="0.8113142126292522"/>
<rect x="594.7" y="249.5" width="6" height="8" rx="1" fill="url(#windowGlow)" opacity="0.9590751480586245"/>
<rect x="936.7" y="243.3" width="54.8" height="56.7" rx="3" fill="url(#bldg_teal)" opacity="0.7"/>
<polygon points="936.7,243.3 964.0,231.7 991.4,243.3" fill="url(#roof_coralRoof)" opacity="0.7"/>
<rect x="968.0" y="253.3" width="6" height="8" rx="1" fill="url(#windowGlow)" opacity="0.7832171861004164"/>
<rect x="141.3" y="182.0" width="45.8" height="118.0" rx="3" fill="url(#bldg_amber)" opacity="0.85"/>
<polygon points="141.3,182.0 164.2,168.5 187.1,182.0" fill="url(#roof_tealRoof)" opacity="0.85"/>
<rect x="154.2" y="192.0" width="6" height="8" rx="1" fill="url(#windowGlow)" opacity="0.750140024139611"/>
<rect x="168.2" y="192.0" width="6" height="8" rx="1" fill="url(#windowGlow)" opacity="0.7708055273493777"/>
<rect x="168.2" y="207.0" width="6" height="8" rx="1" fill="url(#windowGlow)" opacity="0.8214016907482415"/>
<rect x="154.2" y="222.0" width="6" height="8" rx="1" fill="url(#windowGlow)" opacity="0.9964106683136944"/>
<rect x="168.2" y="222.0" width="6" height="8" rx="1" fill="url(#windowGlow)" opacity="0.827187830827752"/>
<rect x="154.2" y="237.0" width="6" height="8" rx="1" fill="url(#windowGlow)" opacity="0.9792245867099727"/>
<rect x="168.2" y="237.0" width="6" height="8" rx="1" fill="url(#windowGlow)" opacity="0.8898377050598327"/>
<rect x="168.2" y="252.0" width="6" height="8" rx="1" fill="url(#windowGlow)" opacity="0.8606225939749845"/>
<rect x="455.0" y="185.7" width="45.5" height="114.3" rx="3" fill="url(#bldg_lavender)" opacity="0.85"/>
<rect x="455.0" y="182.7" width="45.5" height="3" rx="1" fill="url(#roof_navyRoof)" opacity="0.85"/>
<rect x="467.8" y="195.7" width="6" height="8" rx="1" fill="url(#windowGlow)" opacity="0.979777861470253"/>
<rect x="481.8" y="195.7" width="6" height="8" rx="1" fill="url(#windowGlow)" opacity="0.7748837171936798"/>
<rect x="467.8" y="210.7" width="6" height="8" rx="1" fill="url(#windowGlow)" opacity="0.9700009240629155"/>
<rect x="467.8" y="225.7" width="6" height="8" rx="1" fill="url(#windowGlow)" opacity="0.9958632166012484"/>
<rect x="481.8" y="225.7" width="6" height="8" rx="1" fill="url(#windowGlow)" opacity="0.8251677971916123"/>
<rect x="467.8" y="240.7" width="6" height="8" rx="1" fill="url(#windowGlow)" opacity="0.8718700073528429"/>
<rect x="481.8" y="240.7" width="6" height="8" rx="1" fill="url(#windowGlow)" opacity="0.9987564917182347"/>
<rect x="467.8" y="255.7" width="6" height="8" rx="1" fill="url(#windowGlow)" opacity="0.7584511121075838"/>
<rect x="481.8" y="255.7" width="6" height="8" rx="1" fill="url(#windowGlow)" opacity="0.9572100379770667"/>
<path d="M477.8 225.7 L496.0 225.7 L493.0 231.7 L480.8 231.7 Z" fill="url(#roof_tealRoof)" opacity="0.68"/>
<rect x="691.6" y="207.6" width="44.1" height="92.4" rx="3" fill="url(#bldg_blue)" opacity="0.85"/>
<rect x="691.6" y="204.6" width="44.1" height="3" rx="1" fill="url(#roof_coralRoof)" opacity="0.85"/>
<rect x="703.7" y="217.6" width="6" height="8" rx="1" fill="url(#windowGlow)" opacity="0.876097436005295"/>
<rect x="717.7" y="217.6" width="6" height="8" rx="1" fill="url(#windowGlow)" opacity="0.9310338926180424"/>
<rect x="703.7" y="232.6" width="6" height="8" rx="1" fill="url(#windowGlow)" opacity="0.7174412997986381"/>
<rect x="703.7" y="247.6" width="6" height="8" rx="1" fill="url(#windowGlow)" opacity="0.884479342673197"/>
<rect x="717.7" y="247.6" width="6" height="8" rx="1" fill="url(#windowGlow)" opacity="0.7374655020597696"/>
<path d="M696.0 240.0 L713.7 240.0 L710.7 246.0 L699.0 246.0 Z" fill="url(#roof_navyRoof)" opacity="0.68"/>
<rect x="1016.2" y="213.7" width="60.7" height="86.3" rx="3" fill="url(#bldg_mint)" opacity="0.85"/>
<polygon points="1016.2,213.7 1046.5,198.2 1076.9,213.7" fill="url(#roof_tealRoof)" opacity="0.85"/>
<rect x="1043.5" y="223.7" width="6" height="8" rx="1" fill="url(#windowGlow)" opacity="0.871151766679786"/>
<rect x="1057.5" y="223.7" width="6" height="8" rx="1" fill="url(#windowGlow)" opacity="0.7917650017849006"/>
<rect x="1029.5" y="238.7" width="6" height="8" rx="1" fill="url(#windowGlow)" opacity="0.9251615102985694"/>
<rect x="1043.5" y="238.7" width="6" height="8" rx="1" fill="url(#windowGlow)" opacity="0.9706623176907478"/>
<rect x="1057.5" y="238.7" width="6" height="8" rx="1" fill="url(#windowGlow)" opacity="0.9754409180839736"/>
<rect x="1029.5" y="253.7" width="6" height="8" rx="1" fill="url(#windowGlow)" opacity="0.8200758710597064"/>
<rect x="1043.5" y="253.7" width="6" height="8" rx="1" fill="url(#windowGlow)" opacity="0.7117053276448069"/>
<rect x="1057.5" y="253.7" width="6" height="8" rx="1" fill="url(#windowGlow)" opacity="0.8025325080391637"/>
<rect x="189.7" y="224.8" width="45.1" height="75.2" rx="3" fill="url(#bldg_rose)" opacity="1"/>
<rect x="189.7" y="221.8" width="45.1" height="3" rx="1" fill="url(#roof_navyRoof)" opacity="1"/>
<rect x="202.3" y="234.8" width="6" height="8" rx="1" fill="url(#windowGlow)" opacity="0.9563609239442091"/>
<rect x="216.3" y="234.8" width="6" height="8" rx="1" fill="url(#windowGlow)" opacity="0.9351073581423178"/>
<rect x="216.3" y="249.8" width="6" height="8" rx="1" fill="url(#windowGlow)" opacity="0.9507178399016698"/>
<rect x="207.3" y="284.0" width="10" height="16" rx="2" fill="url(#roof_navyRoof)" opacity="0.8"/>
<rect x="209.3" y="287.0" width="6" height="10" rx="1" fill="url(#windowGlow)" opacity="0.45"/>
<rect x="608.6" y="133.3" width="56.3" height="166.7" rx="3" fill="url(#bldg_sky)" opacity="1"/>
<polygon points="608.6,133.3 636.8,117.8 664.9,133.3" fill="url(#roof_coralRoof)" opacity="1"/>
<rect x="626.8" y="143.3" width="6" height="8" rx="1" fill="url(#windowGlow)" opacity="0.7010612632152909"/>
<rect x="640.8" y="143.3" width="6" height="8" rx="1" fill="url(#windowGlow)" opacity="0.8646558790303095"/>
<rect x="626.8" y="158.3" width="6" height="8" rx="1" fill="url(#windowGlow)" opacity="0.8576237106498441"/>
<rect x="640.8" y="158.3" width="6" height="8" rx="1" fill="url(#windowGlow)" opacity="0.9974111509962991"/>
<rect x="626.8" y="173.3" width="6" height="8" rx="1" fill="url(#windowGlow)" opacity="0.9705262057811609"/>
<rect x="640.8" y="173.3" width="6" height="8" rx="1" fill="url(#windowGlow)" opacity="0.8990008200514134"/>
<rect x="626.8" y="188.3" width="6" height="8" rx="1" fill="url(#windowGlow)" opacity="0.7932271053517364"/>
<rect x="640.8" y="188.3" width="6" height="8" rx="1" fill="url(#windowGlow)" opacity="0.7801078983024264"/>
<rect x="626.8" y="203.3" width="6" height="8" rx="1" fill="url(#windowGlow)" opacity="0.7624542671546592"/>
<rect x="640.8" y="203.3" width="6" height="8" rx="1" fill="url(#windowGlow)" opacity="0.8872422716520924"/>
<rect x="626.8" y="218.3" width="6" height="8" rx="1" fill="url(#windowGlow)" opacity="0.9642084675208704"/>
<rect x="626.8" y="233.3" width="6" height="8" rx="1" fill="url(#windowGlow)" opacity="0.8076110246626711"/>
<rect x="640.8" y="233.3" width="6" height="8" rx="1" fill="url(#windowGlow)" opacity="0.7802032219153844"/>
<rect x="626.8" y="248.3" width="6" height="8" rx="1" fill="url(#windowGlow)" opacity="0.7542165093842039"/>
<rect x="640.8" y="248.3" width="6" height="8" rx="1" fill="url(#windowGlow)" opacity="0.7242389224116871"/>
<rect x="631.8" y="284.0" width="10" height="16" rx="2" fill="url(#roof_navyRoof)" opacity="0.8"/>
<rect x="633.8" y="287.0" width="6" height="10" rx="1" fill="url(#windowGlow)" opacity="0.45"/>
<rect x="964.2" y="225.4" width="38.5" height="74.6" rx="3" fill="url(#bldg_coral)" opacity="1"/>
<rect x="964.2" y="222.4" width="38.5" height="3" rx="1" fill="url(#roof_tealRoof)" opacity="1"/>
<rect x="980.4" y="250.4" width="6" height="8" rx="1" fill="url(#windowGlow)" opacity="0.8735354368917343"/>
<rect x="978.4" y="284.0" width="10" height="16" rx="2" fill="url(#roof_navyRoof)" opacity="0.8"/>
<rect x="980.4" y="287.0" width="6" height="10" rx="1" fill="url(#windowGlow)" opacity="0.45"/>
<path d="M421.7 285.0 Q445.9 253.9 436.2 222.8" stroke="#92400e" stroke-width="4" fill="none" stroke-linecap="round"/>
<path d="M436.2 222.8 Q422.2 211.0 412.9 210.0" stroke="#16a34a" stroke-width="2.5" fill="none" stroke-linecap="round"/>
<path d="M436.2 222.8 Q441.3 211.8 444.6 211.7" stroke="#22c55e" stroke-width="2.5" fill="none" stroke-linecap="round"/>
<path d="M436.2 222.8 Q450.5 216.8 460.1 222.8" stroke="#15803d" stroke-width="2.5" fill="none" stroke-linecap="round"/>
<path d="M436.2 222.8 Q441.5 222.2 445.1 234.5" stroke="#4ade80" stroke-width="2.5" fill="none" stroke-linecap="round"/>
<path d="M436.2 222.8 Q422.7 222.5 413.7 235.2" stroke="#16a34a" stroke-width="2.5" fill="none" stroke-linecap="round"/>
<path d="M814.5 285.0 Q828.5 254.6 822.9 224.3" stroke="#92400e" stroke-width="4" fill="none" stroke-linecap="round"/>
<path d="M822.9 224.3 Q813.2 214.2 806.7 215.4" stroke="#16a34a" stroke-width="2.5" fill="none" stroke-linecap="round"/>
<path d="M822.9 224.3 Q830.6 210.6 835.7 207.3" stroke="#22c55e" stroke-width="2.5" fill="none" stroke-linecap="round"/>
<path d="M822.9 224.3 Q836.7 218.3 845.8 224.3" stroke="#15803d" stroke-width="2.5" fill="none" stroke-linecap="round"/>
<path d="M822.9 224.3 Q828.6 224.0 832.4 236.8" stroke="#4ade80" stroke-width="2.5" fill="none" stroke-linecap="round"/>
<path d="M822.9 224.3 Q812.6 222.6 805.7 233.8" stroke="#16a34a" stroke-width="2.5" fill="none" stroke-linecap="round"/>
<path d="M155.4 285.0 Q176.7 258.7 168.2 232.4" stroke="#92400e" stroke-width="4" fill="none" stroke-linecap="round"/>
<path d="M168.2 232.4 Q155.9 221.3 147.7 221.2" stroke="#16a34a" stroke-width="2.5" fill="none" stroke-linecap="round"/>
<path d="M168.2 232.4 Q174.4 220.2 178.5 218.7" stroke="#22c55e" stroke-width="2.5" fill="none" stroke-linecap="round"/>
<path d="M168.2 232.4 Q180.3 226.4 188.3 232.4" stroke="#15803d" stroke-width="2.5" fill="none" stroke-linecap="round"/>
<path d="M168.2 232.4 Q175.3 233.6 180.0 248.1" stroke="#4ade80" stroke-width="2.5" fill="none" stroke-linecap="round"/>
<path d="M168.2 232.4 Q156.9 231.1 149.4 242.8" stroke="#16a34a" stroke-width="2.5" fill="none" stroke-linecap="round"/>
<path d="M1048.8 285.0 Q1065.6 256.5 1058.8 227.9" stroke="#92400e" stroke-width="4" fill="none" stroke-linecap="round"/>
<path d="M1058.8 227.9 Q1048.0 217.4 1040.8 218.0" stroke="#16a34a" stroke-width="2.5" fill="none" stroke-linecap="round"/>
<path d="M1058.8 227.9 Q1064.7 216.0 1068.7 214.9" stroke="#22c55e" stroke-width="2.5" fill="none" stroke-linecap="round"/>
<path d="M1058.8 227.9 Q1078.8 221.9 1092.0 227.9" stroke="#15803d" stroke-width="2.5" fill="none" stroke-linecap="round"/>
<path d="M1058.8 227.9 Q1064.2 227.3 1067.7 239.7" stroke="#4ade80" stroke-width="2.5" fill="none" stroke-linecap="round"/>
<path d="M1058.8 227.9 Q1048.4 226.3 1041.4 237.5" stroke="#16a34a" stroke-width="2.5" fill="none" stroke-linecap="round"/>
<path d="M109.8 285.0 Q136.1 262.6 125.5 240.2" stroke="#92400e" stroke-width="4" fill="none" stroke-linecap="round"/>
<path d="M125.5 240.2 Q115.4 230.0 108.7 231.0" stroke="#16a34a" stroke-width="2.5" fill="none" stroke-linecap="round"/>
<path d="M125.5 240.2 Q132.6 227.1 137.3 224.6" stroke="#22c55e" stroke-width="2.5" fill="none" stroke-linecap="round"/>
<path d="M125.5 240.2 Q144.0 234.2 156.3 240.2" stroke="#15803d" stroke-width="2.5" fill="none" stroke-linecap="round"/>
<path d="M125.5 240.2 Q132.9 241.6 137.8 256.5" stroke="#4ade80" stroke-width="2.5" fill="none" stroke-linecap="round"/>
<path d="M125.5 240.2 Q115.6 238.3 109.0 249.3" stroke="#16a34a" stroke-width="2.5" fill="none" stroke-linecap="round"/>
<path d="M1002.9 285.0 Q1015.3 258.8 1010.4 232.6" stroke="#92400e" stroke-width="4" fill="none" stroke-linecap="round"/>
<path d="M1010.4 232.6 Q999.3 222.0 991.9 222.5" stroke="#16a34a" stroke-width="2.5" fill="none" stroke-linecap="round"/>
<path d="M1010.4 232.6 Q1015.2 221.8 1018.4 222.0" stroke="#22c55e" stroke-width="2.5" fill="none" stroke-linecap="round"/>
<path d="M1010.4 232.6 Q1022.6 226.6 1030.8 232.6" stroke="#15803d" stroke-width="2.5" fill="none" stroke-linecap="round"/>
<path d="M1010.4 232.6 Q1017.1 233.4 1021.5 247.5" stroke="#4ade80" stroke-width="2.5" fill="none" stroke-linecap="round"/>
<path d="M1010.4 232.6 Q1000.8 230.6 994.4 241.4" stroke="#16a34a" stroke-width="2.5" fill="none" stroke-linecap="round"/>
<rect x="0" y="282" width="1200" height="18" fill="url(#groundGrad)"/>
<line x1="181.8" y1="282.0" x2="181.8" y2="242.3" stroke="#92400e" stroke-width="2"/>
<circle cx="181.8" cy="242.3" r="4" fill="#fef08a" opacity="0.6"/>
<circle cx="181.8" cy="242.3" r="8" fill="#fef08a" opacity="0.15" filter="url(#softGlow)"/>
<line x1="781.9" y1="282.0" x2="781.9" y2="245.4" stroke="#92400e" stroke-width="2"/>
<circle cx="781.9" cy="245.4" r="4" fill="#fef08a" opacity="0.6"/>
<circle cx="781.9" cy="245.4" r="8" fill="#fef08a" opacity="0.15" filter="url(#softGlow)"/>
<ellipse cx="959.4" cy="282.0" rx="6.2" ry="4.4" fill="#22c55e" opacity="0.6"/>
<ellipse cx="519.5" cy="282.0" rx="4.8" ry="3.3" fill="#22c55e" opacity="0.6"/>
<ellipse cx="1009.6" cy="282.0" rx="5.6" ry="3.9" fill="#22c55e" opacity="0.6"/>
</svg>