<svg xmlns="http://www.w3.org/2000/svg" viewBox="0 0 1200 300" width="1200" height="300">
<defs>
<linearGradient id="skyGrad" x1="0" y1="0" x2="0" y2="1">
<stop offset="0%" stop-color="#a78bfa"/>
<stop offset="18%" stop-color="#ddb4f0"/>
<stop offset="35%" stop-color="#fda4af"/>
<stop offset="52%" stop-color="#fdba74"/>
<stop offset="72%" stop-color="#fef08a"/>
<stop offset="100%" stop-color="#fef9c3"/>
</linearGradient>
<linearGradient id="bldg_coral" x1="0" y1="0" x2="0" y2="1"><stop offset="0%" stop-color="#fecaca"/><stop offset="100%" stop-color="#fca5a5"/></linearGradient>
<linearGradient id="bldg_teal" x1="0" y1="0" x2="0" y2="1"><stop offset="0%" stop-color="#99f6e4"/><stop offset="100%" stop-color="#5eead4"/></linearGradient>
<linearGradient id="bldg_amber" x1="0" y1="0" x2="0" y2="1"><stop offset="0%" stop-color="#fde68a"/><stop offset="100%" stop-color="#fcd34d"/></linearGradient>
<linearGradient id="bldg_lavender" x1="0" y1="0" x2="0" y2="1"><stop offset="0%" stop-color="#ddd6fe"/><stop offset="100%" stop-color="#c4b5fd"/></linearGradient>
<linearGradient id="bldg_blue" x1="0" y1="0" x2="0" y2="1"><stop offset="0%" stop-color="#bfdbfe"/><stop offset="100%" stop-color="#93c5fd"/></linearGradient>
<linearGradient id="bldg_mint" x1="0" y1="0" x2="0" y2="1"><stop offset="0%" stop-color="#a7f3d0"/><stop offset="100%" stop-color="#6ee7b7"/></linearGradient>
<linearGradient id="bldg_rose" x1="0" y1="0" x2="0" y2="1"><stop offset="0%" stop-color="#fecdd3"/><stop offset="100%" stop-color="#fda4af"/></linearGradient>
<linearGradient id="bldg_sky" x1="0" y1="0" x2="0" y2="1"><stop offset="0%" stop-color="#bae6fd"/><stop offset="100%" stop-color="#7dd3fc"/></linearGradient>
<linearGradient id="roof_navyRoof" x1="0" y1="0" x2="0" y2="1"><stop offset="0%" stop-color="#4338ca"/><stop offset="100%" stop-color="#3730a3"/></linearGradient>
<linearGradient id="roof_coralRoof" x1="0" y1="0" x2="0" y2="1"><stop offset="0%" stop-color="#f87171"/><stop offset="100%" stop-color="#ef4444"/></linearGradient>
<linearGradient id="roof_tealRoof" x1="0" y1="0" x2="0" y2="1"><stop offset="0%" stop-color="#2dd4bf"/><stop offset="100%" stop-color="#14b8a6"/></linearGradient>
<radialGradient id="windowGlow" cx="50%" cy="50%" r="50%"><stop offset="0%" stop-color="#fef08a"/><stop offset="60%" stop-color="#fbbf24"/><stop offset="100%" stop-color="#f59e0b"/></radialGradient>
<linearGradient id="hillFar" x1="0" y1="0" x2="0" y2="1"><stop offset="0%" stop-color="#c4b5fd"/><stop offset="100%" stop-color="#a5b4fc"/></linearGradient>
<linearGradient id="hillMid" x1="0" y1="0" x2="0" y2="1"><stop offset="0%" stop-color="#86efac"/><stop offset="100%" stop-color="#4ade80"/></linearGradient>
<linearGradient id="hillNear" x1="0" y1="0" x2="0" y2="1"><stop offset="0%" stop-color="#34d399"/><stop offset="100%" stop-color="#10b981"/></linearGradient>
<linearGradient id="hillDesertFar" x1="0" y1="0" x2="0" y2="1"><stop offset="0%" stop-color="#fde68a"/><stop offset="100%" stop-color="#fcd34d"/></linearGradient>
<linearGradient id="hillDesertMid" x1="0" y1="0" x2="0" y2="1"><stop offset="0%" stop-color="#fcd34d"/><stop offset="100%" stop-color="#fbbf24"/></linearGradient>
<linearGradient id="hillDesertNear" x1="0" y1="0" x2="0" y2="1"><stop offset="0%" stop-color="#fbbf24"/><stop offset="100%" stop-color="#f59e0b"/></linearGradient>
<linearGradient id="groundGrad" x1="0" y1="0" x2="0" y2="1"><stop offset="0%" stop-color="#fef3c7"/><stop offset="100%" stop-color="#fde68a"/></linearGradient>
<linearGradient id="waterGrad" x1="0" y1="0" x2="0" y2="1"><stop offset="0%" stop-color="#bfdbfe"/><stop offset="100%" stop-color="#93c5fd"/></linearGradient>
<filter id="softGlow" x="-50%" y="-50%" width="200%" height="200%"><feGaussianBlur in="SourceGraphic" stdDeviation="12"/></filter>
</defs>
<rect width="1200" height="300" fill="url(#skyGrad)"/>
<circle cx="1064.8" cy="43.1" r="45" fill="#fef08a" opacity="0.12" filter="url(#softGlow)"/>
<circle cx="1064.8" cy="43.1" r="30" fill="#fde68a" opacity="0.18" filter="url(#softGlow)"/>
<circle cx="1064.8" cy="43.1" r="16" fill="#fef9c3" opacity="0.25" filter="url(#softGlow)"/>
<path d="M0 300 L0.0 195.4 C214.3 195.4, 214.3 186.4, 428.6 186.4 C657.0 186.4, 657.0 175.6, 885.4 175.6 C1042.7 175.6, 1042.7 198.3, 1200.0 198.3 L1200 300 Z" fill="url(#hillFar)" opacity="0.5"/>
<path d="M0 300 L0.0 211.2 C197.7 211.2, 197.7 204.6, 395.4 204.6 C640.6 204.6, 640.6 214.0, 885.8 214.0 C1042.9 214.0, 1042.9 207.6, 1200.0 207.6 L1200 300 Z" fill="url(#hillMid)" opacity="0.7"/>
<path d="M0 300 L0.0 227.0 C209.8 227.0, 209.8 233.3, 419.6 233.3 C578.1 233.3, 578.1 236.6, 736.6 236.6 C968.3 236.6, 968.3 233.2, 1200.0 233.2 L1200 300 Z" fill="url(#hillNear)" opacity="1"/>
<rect x="181.4" y="216.2" width="47.4" height="83.8" rx="3" fill="url(#bldg_blue)" opacity="0.7"/>
<rect x="181.4" y="213.2" width="47.4" height="3" rx="1" fill="url(#roof_tealRoof)" opacity="0.7"/>
<rect x="195.1" y="226.2" width="6" height="8" rx="1" fill="url(#windowGlow)" opacity="0.9733767239718589"/>
<rect x="209.1" y="226.2" width="6" height="8" rx="1" fill="url(#windowGlow)" opacity="0.9291310713762095"/>
<rect x="209.1" y="241.2" width="6" height="8" rx="1" fill="url(#windowGlow)" opacity="0.7065227938380664"/>
<rect x="195.1" y="256.2" width="6" height="8" rx="1" fill="url(#windowGlow)" opacity="0.9372282137802002"/>
<rect x="209.1" y="256.2" width="6" height="8" rx="1" fill="url(#windowGlow)" opacity="0.9841346909218163"/>
<rect x="557.3" y="235.3" width="69.1" height="64.7" rx="3" fill="url(#bldg_mint)" opacity="0.7"/>
<polygon points="557.3,235.3 591.8,216.7 626.4,235.3" fill="url(#roof_navyRoof)" opacity="0.7"/>
<rect x="588.8" y="245.3" width="6" height="8" rx="1" fill="url(#windowGlow)" opacity="0.8900609190529496"/>
<rect x="602.8" y="245.3" width="6" height="8" rx="1" fill="url(#windowGlow)" opacity="0.9001481195912454"/>
<rect x="574.8" y="260.3" width="6" height="8" rx="1" fill="url(#windowGlow)" opacity="0.7362979926337944"/>
<rect x="588.8" y="260.3" width="6" height="8" rx="1" fill="url(#windowGlow)" opacity="0.7429948854460356"/>
<rect x="958.3" y="206.6" width="56.4" height="93.4" rx="3" fill="url(#bldg_rose)" opacity="0.7"/>
<polygon points="958.3,206.6 986.5,188.4 1014.8,206.6" fill="url(#roof_coralRoof)" opacity="0.7"/>
<rect x="990.5" y="216.6" width="6" height="8" rx="1" fill="url(#windowGlow)" opacity="0.7653023872828587"/>
<rect x="976.5" y="231.6" width="6" height="8" rx="1" fill="url(#windowGlow)" opacity="0.9048728480957787"/>
<rect x="990.5" y="231.6" width="6" height="8" rx="1" fill="url(#windowGlow)" opacity="0.8251570152701609"/>
<rect x="976.5" y="246.6" width="6" height="8" rx="1" fill="url(#windowGlow)" opacity="0.861912829969969"/>
<rect x="990.5" y="246.6" width="6" height="8" rx="1" fill="url(#windowGlow)" opacity="0.7448839336842689"/>
<rect x="119.7" y="226.5" width="56.1" height="73.5" rx="3" fill="url(#bldg_sky)" opacity="0.85"/>
<polygon points="119.7,226.5 147.8,210.6 175.8,226.5" fill="url(#roof_tealRoof)" opacity="0.85"/>
<rect x="137.8" y="236.5" width="6" height="8" rx="1" fill="url(#windowGlow)" opacity="0.8458556993612347"/>
<rect x="151.8" y="236.5" width="6" height="8" rx="1" fill="url(#windowGlow)" opacity="0.8134057381718446"/>
<rect x="137.8" y="251.5" width="6" height="8" rx="1" fill="url(#windowGlow)" opacity="0.811480238713082"/>
<rect x="151.8" y="251.5" width="6" height="8" rx="1" fill="url(#windowGlow)" opacity="0.9557017393669587"/>
<rect x="448.1" y="190.1" width="65.9" height="109.9" rx="3" fill="url(#bldg_coral)" opacity="0.85"/>
<polygon points="448.1,190.1 481.0,175.3 513.9,190.1" fill="url(#roof_navyRoof)" opacity="0.85"/>
<rect x="464.0" y="200.1" width="6" height="8" rx="1" fill="url(#windowGlow)" opacity="0.8436227157915116"/>
<rect x="492.0" y="200.1" width="6" height="8" rx="1" fill="url(#windowGlow)" opacity="0.9596726570556278"/>
<rect x="464.0" y="215.1" width="6" height="8" rx="1" fill="url(#windowGlow)" opacity="0.9257606840812418"/>
<rect x="478.0" y="215.1" width="6" height="8" rx="1" fill="url(#windowGlow)" opacity="0.824313023837429"/>
<rect x="492.0" y="215.1" width="6" height="8" rx="1" fill="url(#windowGlow)" opacity="0.7685940165392094"/>
<rect x="464.0" y="230.1" width="6" height="8" rx="1" fill="url(#windowGlow)" opacity="0.842641651603692"/>
<rect x="478.0" y="230.1" width="6" height="8" rx="1" fill="url(#windowGlow)" opacity="0.7772269638614854"/>
<rect x="492.0" y="230.1" width="6" height="8" rx="1" fill="url(#windowGlow)" opacity="0.8826951442205789"/>
<rect x="464.0" y="245.1" width="6" height="8" rx="1" fill="url(#windowGlow)" opacity="0.7729412928563268"/>
<rect x="492.0" y="245.1" width="6" height="8" rx="1" fill="url(#windowGlow)" opacity="0.7460301680239058"/>
<rect x="492.0" y="260.1" width="6" height="8" rx="1" fill="url(#windowGlow)" opacity="0.9588686485583282"/>
<rect x="738.7" y="214.7" width="40.3" height="85.3" rx="3" fill="url(#bldg_teal)" opacity="0.85"/>
<rect x="738.7" y="211.7" width="40.3" height="3" rx="1" fill="url(#roof_coralRoof)" opacity="0.85"/>
<rect x="755.9" y="224.7" width="6" height="8" rx="1" fill="url(#windowGlow)" opacity="0.8723131740802494"/>
<rect x="755.9" y="239.7" width="6" height="8" rx="1" fill="url(#windowGlow)" opacity="0.7299376696953259"/>
<rect x="1008.6" y="235.8" width="60.5" height="64.2" rx="3" fill="url(#bldg_amber)" opacity="0.85"/>
<polygon points="1008.6,235.8 1038.9,217.6 1069.2,235.8" fill="url(#roof_tealRoof)" opacity="0.85"/>
<rect x="1021.9" y="245.8" width="6" height="8" rx="1" fill="url(#windowGlow)" opacity="0.8092568641571593"/>
<rect x="1049.9" y="245.8" width="6" height="8" rx="1" fill="url(#windowGlow)" opacity="0.7952344314638685"/>
<rect x="1021.9" y="260.8" width="6" height="8" rx="1" fill="url(#windowGlow)" opacity="0.7210858944901665"/>
<rect x="1035.9" y="260.8" width="6" height="8" rx="1" fill="url(#windowGlow)" opacity="0.8595103010346695"/>
<rect x="227.1" y="198.0" width="64.1" height="102.0" rx="3" fill="url(#bldg_lavender)" opacity="1"/>
<rect x="227.1" y="195.0" width="64.1" height="3" rx="1" fill="url(#roof_navyRoof)" opacity="1"/>
<rect x="242.1" y="208.0" width="6" height="8" rx="1" fill="url(#windowGlow)" opacity="0.8920648657214199"/>
<rect x="256.1" y="208.0" width="6" height="8" rx="1" fill="url(#windowGlow)" opacity="0.7122562779636384"/>
<rect x="270.1" y="208.0" width="6" height="8" rx="1" fill="url(#windowGlow)" opacity="0.8556093899792103"/>
<rect x="242.1" y="223.0" width="6" height="8" rx="1" fill="url(#windowGlow)" opacity="0.7883423809839144"/>
<rect x="256.1" y="223.0" width="6" height="8" rx="1" fill="url(#windowGlow)" opacity="0.950015324796557"/>
<rect x="270.1" y="223.0" width="6" height="8" rx="1" fill="url(#windowGlow)" opacity="0.848259421739848"/>
<rect x="242.1" y="238.0" width="6" height="8" rx="1" fill="url(#windowGlow)" opacity="0.9309079656987022"/>
<rect x="270.1" y="238.0" width="6" height="8" rx="1" fill="url(#windowGlow)" opacity="0.8826630806469652"/>
<rect x="242.1" y="253.0" width="6" height="8" rx="1" fill="url(#windowGlow)" opacity="0.8760331385657345"/>
<rect x="256.1" y="253.0" width="6" height="8" rx="1" fill="url(#windowGlow)" opacity="0.7964837435150909"/>
<rect x="270.1" y="253.0" width="6" height="8" rx="1" fill="url(#windowGlow)" opacity="0.9481068915911516"/>
<rect x="254.1" y="284.0" width="10" height="16" rx="2" fill="url(#roof_navyRoof)" opacity="0.8"/>
<rect x="256.1" y="287.0" width="6" height="10" rx="1" fill="url(#windowGlow)" opacity="0.45"/>
<path d="M233.5 233.7 L259.1 233.7 L256.1 239.7 L236.5 239.7 Z" fill="url(#roof_tealRoof)" opacity="0.8"/>
<rect x="559.9" y="220.5" width="52.9" height="79.5" rx="3" fill="url(#bldg_blue)" opacity="1"/>
<polygon points="559.9,220.5 586.3,204.5 612.7,220.5" fill="url(#roof_coralRoof)" opacity="1"/>
<rect x="576.3" y="230.5" width="6" height="8" rx="1" fill="url(#windowGlow)" opacity="0.7575358601089268"/>
<rect x="590.3" y="230.5" width="6" height="8" rx="1" fill="url(#windowGlow)" opacity="0.7062585987645473"/>
<rect x="576.3" y="245.5" width="6" height="8" rx="1" fill="url(#windowGlow)" opacity="0.7404228932878109"/>
<rect x="590.3" y="245.5" width="6" height="8" rx="1" fill="url(#windowGlow)" opacity="0.8731861054306784"/>
<rect x="590.3" y="260.5" width="6" height="8" rx="1" fill="url(#windowGlow)" opacity="0.7385394392714554"/>
<rect x="581.3" y="284.0" width="10" height="16" rx="2" fill="url(#roof_navyRoof)" opacity="0.8"/>
<rect x="583.3" y="287.0" width="6" height="10" rx="1" fill="url(#windowGlow)" opacity="0.45"/>
<rect x="577.1" y="261.5" width="18.5" height="5" rx="1" fill="#15803d" opacity="0.7"/>
<circle cx="580.1" cy="260.5" r="2.5" fill="#f87171" opacity="0.85"/>
<circle cx="586.2" cy="260.5" r="2.5" fill="#a78bfa" opacity="0.85"/>
<circle cx="592.4" cy="260.5" r="2.5" fill="#fbbf24" opacity="0.85"/>
<rect x="991.5" y="194.3" width="56.6" height="105.7" rx="3" fill="url(#bldg_mint)" opacity="1"/>
<polygon points="991.5,194.3 1019.7,178.5 1048.0,194.3" fill="url(#roof_tealRoof)" opacity="1"/>
<rect x="1009.7" y="204.3" width="6" height="8" rx="1" fill="url(#windowGlow)" opacity="0.8053652366182604"/>
<rect x="1023.7" y="204.3" width="6" height="8" rx="1" fill="url(#windowGlow)" opacity="0.9946570375443702"/>
<rect x="1009.7" y="219.3" width="6" height="8" rx="1" fill="url(#windowGlow)" opacity="0.9060213554678583"/>
<rect x="1023.7" y="219.3" width="6" height="8" rx="1" fill="url(#windowGlow)" opacity="0.9030800632215478"/>
<rect x="1009.7" y="234.3" width="6" height="8" rx="1" fill="url(#windowGlow)" opacity="0.8508996115768792"/>
<rect x="1023.7" y="234.3" width="6" height="8" rx="1" fill="url(#windowGlow)" opacity="0.9063852404273978"/>
<rect x="1009.7" y="249.3" width="6" height="8" rx="1" fill="url(#windowGlow)" opacity="0.7593557312429676"/>
<rect x="1023.7" y="249.3" width="6" height="8" rx="1" fill="url(#windowGlow)" opacity="0.7667547570852351"/>
<rect x="1014.7" y="284.0" width="10" height="16" rx="2" fill="url(#roof_navyRoof)" opacity="0.8"/>
<rect x="1016.7" y="287.0" width="6" height="10" rx="1" fill="url(#windowGlow)" opacity="0.45"/>
<path d="M1019.7 231.3 L1042.4 231.3 L1039.4 237.3 L1022.7 237.3 Z" fill="url(#roof_coralRoof)" opacity="0.8"/>
<path d="M425.5 285.0 Q438.4 255.8 433.3 226.7" stroke="#92400e" stroke-width="4" fill="none" stroke-linecap="round"/>
<path d="M433.3 226.7 Q422.1 216.0 414.7 216.5" stroke="#16a34a" stroke-width="2.5" fill="none" stroke-linecap="round"/>
<path d="M433.3 226.7 Q439.1 214.8 443.0 213.7" stroke="#22c55e" stroke-width="2.5" fill="none" stroke-linecap="round"/>
<path d="M433.3 226.7 Q446.0 220.7 454.5 226.7" stroke="#15803d" stroke-width="2.5" fill="none" stroke-linecap="round"/>
<path d="M433.3 226.7 Q438.2 225.6 441.5 237.6" stroke="#4ade80" stroke-width="2.5" fill="none" stroke-linecap="round"/>
<path d="M433.3 226.7 Q419.7 226.4 410.6 239.2" stroke="#16a34a" stroke-width="2.5" fill="none" stroke-linecap="round"/>
<path d="M802.1 285.0 Q828.4 260.8 817.8 236.6" stroke="#92400e" stroke-width="4" fill="none" stroke-linecap="round"/>
<path d="M817.8 236.6 Q806.2 225.8 798.4 225.9" stroke="#16a34a" stroke-width="2.5" fill="none" stroke-linecap="round"/>
<path d="M817.8 236.6 Q822.5 226.0 825.6 226.3" stroke="#22c55e" stroke-width="2.5" fill="none" stroke-linecap="round"/>
<path d="M817.8 236.6 Q837.9 230.6 851.3 236.6" stroke="#15803d" stroke-width="2.5" fill="none" stroke-linecap="round"/>
<path d="M817.8 236.6 Q824.7 237.5 829.2 251.7" stroke="#4ade80" stroke-width="2.5" fill="none" stroke-linecap="round"/>
<path d="M817.8 236.6 Q808.0 234.8 801.4 245.7" stroke="#16a34a" stroke-width="2.5" fill="none" stroke-linecap="round"/>
<path d="M177.5 285.0 Q202.8 257.3 192.7 229.5" stroke="#92400e" stroke-width="4" fill="none" stroke-linecap="round"/>
<path d="M192.7 229.5 Q178.6 217.6 169.2 216.6" stroke="#16a34a" stroke-width="2.5" fill="none" stroke-linecap="round"/>
<path d="M192.7 229.5 Q198.8 217.4 202.8 216.1" stroke="#22c55e" stroke-width="2.5" fill="none" stroke-linecap="round"/>
<path d="M192.7 229.5 Q211.8 223.5 224.6 229.5" stroke="#15803d" stroke-width="2.5" fill="none" stroke-linecap="round"/>
<path d="M192.7 229.5 Q199.0 229.8 203.1 243.4" stroke="#4ade80" stroke-width="2.5" fill="none" stroke-linecap="round"/>
<path d="M192.7 229.5 Q181.7 228.1 174.3 239.6" stroke="#16a34a" stroke-width="2.5" fill="none" stroke-linecap="round"/>
<path d="M1090.4 285.0 Q1103.6 254.9 1098.3 224.8" stroke="#92400e" stroke-width="4" fill="none" stroke-linecap="round"/>
<path d="M1098.3 224.8 Q1087.1 214.2 1079.7 214.6" stroke="#16a34a" stroke-width="2.5" fill="none" stroke-linecap="round"/>
<path d="M1098.3 224.8 Q1104.1 213.0 1108.0 212.0" stroke="#22c55e" stroke-width="2.5" fill="none" stroke-linecap="round"/>
<path d="M1098.3 224.8 Q1114.5 218.8 1125.2 224.8" stroke="#15803d" stroke-width="2.5" fill="none" stroke-linecap="round"/>
<path d="M1098.3 224.8 Q1103.4 224.0 1106.8 236.1" stroke="#4ade80" stroke-width="2.5" fill="none" stroke-linecap="round"/>
<path d="M1098.3 224.8 Q1084.3 224.7 1074.9 237.7" stroke="#16a34a" stroke-width="2.5" fill="none" stroke-linecap="round"/>
<rect x="0" y="282" width="1200" height="18" fill="url(#groundGrad)"/>
<line x1="209.7" y1="282.0" x2="209.7" y2="251.8" stroke="#92400e" stroke-width="2"/>
<circle cx="209.7" cy="251.8" r="4" fill="#fef08a" opacity="0.6"/>
<circle cx="209.7" cy="251.8" r="8" fill="#fef08a" opacity="0.15" filter="url(#softGlow)"/>
<line x1="430.8" y1="282.0" x2="430.8" y2="241.2" stroke="#92400e" stroke-width="2"/>
<circle cx="430.8" cy="241.2" r="4" fill="#fef08a" opacity="0.6"/>
<circle cx="430.8" cy="241.2" r="8" fill="#fef08a" opacity="0.15" filter="url(#softGlow)"/>
<ellipse cx="995.5" cy="282.0" rx="6.4" ry="4.5" fill="#22c55e" opacity="0.6"/>
<ellipse cx="1091.3" cy="282.0" rx="5.5" ry="3.8" fill="#22c55e" opacity="0.6"/>
<ellipse cx="750.4" cy="282.0" rx="5.8" ry="4.0" fill="#22c55e" opacity="0.6"/>
</svg>