<svg xmlns="http://www.w3.org/2000/svg" viewBox="0 0 1200 300" width="1200" height="300">
<defs><linearGradient id="skyGrad" x1="0" y1="0" x2="0" y2="1"><stop offset="0%" stop-color="#e8f0f8"/><stop offset="100%" stop-color="#f5e6d8"/></linearGradient></defs><rect width="1200" height="300" fill="url(#skyGrad)"/>
<rect x="108.3" y="238.6" width="54.8" height="61.4" fill="#8aabb4"/>
<rect x="117.9" y="227.7" width="35.6" height="10.8" fill="#83a2ab"/>
<rect x="327.0" y="196.5" width="72.2" height="103.5" fill="#8aabb4"/>
<rect x="339.6" y="178.2" width="46.9" height="18.3" fill="#83a2ab"/>
<rect x="546.0" y="212.3" width="83.6" height="87.7" fill="#8aabb4"/>
<polygon points="546.0,212.3 587.7,191.4 629.5,212.3" fill="#7f9da6"/>
<rect x="816.1" y="178.1" width="63.8" height="121.9" fill="#8aabb4"/>
<rect x="1059.0" y="184.3" width="47.7" height="115.7" fill="#8aabb4"/>
<rect x="107.3" y="220.1" width="61.9" height="79.9" fill="#558592"/>
<rect x="118.1" y="206.0" width="40.2" height="14.1" fill="#517e8b"/>
<rect x="121.2" y="218.0" width="6" height="8" fill="#91b0b8" opacity="0.5"/>
<rect x="135.2" y="218.0" width="6" height="8" fill="#91b0b8" opacity="0.5"/>
<rect x="149.2" y="218.0" width="6" height="8" fill="#91b0b8" opacity="0.5"/>
<rect x="135.2" y="234.0" width="6" height="8" fill="#91b0b8" opacity="0.5"/>
<rect x="149.2" y="234.0" width="6" height="8" fill="#91b0b8" opacity="0.5"/>
<rect x="121.2" y="250.0" width="6" height="8" fill="#91b0b8" opacity="0.5"/>
<rect x="149.2" y="250.0" width="6" height="8" fill="#91b0b8" opacity="0.5"/>
<rect x="135.2" y="266.0" width="6" height="8" fill="#91b0b8" opacity="0.5"/>
<rect x="149.2" y="266.0" width="6" height="8" fill="#91b0b8" opacity="0.5"/>
<rect x="357.9" y="189.4" width="36.9" height="110.6" fill="#558592"/>
<rect x="364.4" y="169.9" width="24.0" height="19.5" fill="#517e8b"/>
<rect x="373.3" y="181.9" width="6" height="8" fill="#91b0b8" opacity="0.5"/>
<rect x="373.3" y="213.9" width="6" height="8" fill="#91b0b8" opacity="0.5"/>
<rect x="373.3" y="261.9" width="6" height="8" fill="#91b0b8" opacity="0.5"/>
<rect x="565.5" y="173.5" width="37.4" height="126.5" fill="#558592"/>
<rect x="581.2" y="185.5" width="6" height="8" fill="#91b0b8" opacity="0.5"/>
<rect x="581.2" y="201.5" width="6" height="8" fill="#91b0b8" opacity="0.5"/>
<rect x="581.2" y="233.5" width="6" height="8" fill="#91b0b8" opacity="0.5"/>
<rect x="792.5" y="218.9" width="59.1" height="81.1" fill="#558592"/>
<rect x="802.8" y="204.5" width="38.4" height="14.3" fill="#517e8b"/>
<rect x="805.0" y="216.5" width="6" height="8" fill="#91b0b8" opacity="0.5"/>
<rect x="833.0" y="216.5" width="6" height="8" fill="#91b0b8" opacity="0.5"/>
<rect x="833.0" y="232.5" width="6" height="8" fill="#91b0b8" opacity="0.5"/>
<rect x="805.0" y="248.5" width="6" height="8" fill="#91b0b8" opacity="0.5"/>
<rect x="819.0" y="248.5" width="6" height="8" fill="#91b0b8" opacity="0.5"/>
<rect x="833.0" y="248.5" width="6" height="8" fill="#91b0b8" opacity="0.5"/>
<rect x="805.0" y="264.5" width="6" height="8" fill="#91b0b8" opacity="0.5"/>
<rect x="1042.5" y="158.0" width="46.4" height="142.0" fill="#558592"/>
<polygon points="1042.5,158.0 1065.7,146.4 1088.9,158.0" fill="#4e7a86"/>
<rect x="1055.7" y="170.0" width="6" height="8" fill="#91b0b8" opacity="0.5"/>
<rect x="1069.7" y="170.0" width="6" height="8" fill="#91b0b8" opacity="0.5"/>
<rect x="1055.7" y="186.0" width="6" height="8" fill="#91b0b8" opacity="0.5"/>
<rect x="1069.7" y="186.0" width="6" height="8" fill="#91b0b8" opacity="0.5"/>
<rect x="1055.7" y="202.0" width="6" height="8" fill="#91b0b8" opacity="0.5"/>
<rect x="1069.7" y="202.0" width="6" height="8" fill="#91b0b8" opacity="0.5"/>
<rect x="1055.7" y="218.0" width="6" height="8" fill="#91b0b8" opacity="0.5"/>
<rect x="1055.7" y="234.0" width="6" height="8" fill="#91b0b8" opacity="0.5"/>
<rect x="88.5" y="232.2" width="48.1" height="67.8" fill="#2b6777"/>
<rect x="102.5" y="244.2" width="6" height="8" fill="#759ca7" opacity="0.5"/>
<rect x="102.5" y="260.2" width="6" height="8" fill="#759ca7" opacity="0.5"/>
<rect x="116.5" y="260.2" width="6" height="8" fill="#759ca7" opacity="0.5"/>
<rect x="363.0" y="166.7" width="59.1" height="133.3" fill="#2b6777"/>
<rect x="375.5" y="178.7" width="6" height="8" fill="#759ca7" opacity="0.5"/>
<rect x="389.5" y="178.7" width="6" height="8" fill="#759ca7" opacity="0.5"/>
<rect x="403.5" y="178.7" width="6" height="8" fill="#759ca7" opacity="0.5"/>
<rect x="375.5" y="194.7" width="6" height="8" fill="#759ca7" opacity="0.5"/>
<rect x="403.5" y="194.7" width="6" height="8" fill="#759ca7" opacity="0.5"/>
<rect x="375.5" y="210.7" width="6" height="8" fill="#759ca7" opacity="0.5"/>
<rect x="389.5" y="210.7" width="6" height="8" fill="#759ca7" opacity="0.5"/>
<rect x="375.5" y="226.7" width="6" height="8" fill="#759ca7" opacity="0.5"/>
<rect x="389.5" y="226.7" width="6" height="8" fill="#759ca7" opacity="0.5"/>
<rect x="603.3" y="224.4" width="30.3" height="75.6" fill="#2b6777"/>
<rect x="608.6" y="211.0" width="19.7" height="13.3" fill="#296271"/>
<rect x="615.4" y="223.0" width="6" height="8" fill="#759ca7" opacity="0.5"/>
<rect x="615.4" y="239.0" width="6" height="8" fill="#759ca7" opacity="0.5"/>
<rect x="615.4" y="255.0" width="6" height="8" fill="#759ca7" opacity="0.5"/>
<rect x="615.4" y="271.0" width="6" height="8" fill="#759ca7" opacity="0.5"/>
<rect x="819.9" y="249.2" width="53.1" height="50.8" fill="#2b6777"/>
<rect x="1048.4" y="195.5" width="62.8" height="104.5" fill="#2b6777"/>
<rect x="1076.8" y="223.5" width="6" height="8" fill="#759ca7" opacity="0.5"/>
<rect x="1090.8" y="223.5" width="6" height="8" fill="#759ca7" opacity="0.5"/>
<rect x="1062.8" y="239.5" width="6" height="8" fill="#759ca7" opacity="0.5"/>
<rect x="1090.8" y="239.5" width="6" height="8" fill="#759ca7" opacity="0.5"/>
<rect x="1076.8" y="255.5" width="6" height="8" fill="#759ca7" opacity="0.5"/>
<rect x="1062.8" y="271.5" width="6" height="8" fill="#759ca7" opacity="0.5"/>
<rect x="1076.8" y="271.5" width="6" height="8" fill="#759ca7" opacity="0.5"/>
<path d="M249.8 285.0 Q274.4 258.0 267.0 231.1" fill="none" stroke="#836d50" stroke-width="3"/>
<path d="M267.0 231.1 Q255.9 222.0 248.5 223.0" fill="none" stroke="#4a8b3f" stroke-width="2.5"/>
<path d="M267.0 231.1 Q271.5 219.2 274.5 217.2" fill="none" stroke="#4a8b3f" stroke-width="2.5"/>
<path d="M267.0 231.1 Q279.3 226.1 287.4 231.1" fill="none" stroke="#4a8b3f" stroke-width="2.5"/>
<path d="M267.0 231.1 Q271.0 232.2 273.6 243.4" fill="none" stroke="#4a8b3f" stroke-width="2.5"/>
<path d="M267.0 231.1 Q253.5 231.0 244.6 240.9" fill="none" stroke="#4a8b3f" stroke-width="2.5"/>
<path d="M512.7 285.0 Q537.7 256.7 530.2 228.3" fill="none" stroke="#816a4f" stroke-width="3"/>
<path d="M530.2 228.3 Q517.0 218.5 508.1 218.7" fill="none" stroke="#46853c" stroke-width="2.5"/>
<path d="M530.2 228.3 Q533.7 217.9 536.0 217.5" fill="none" stroke="#46853c" stroke-width="2.5"/>
<path d="M530.2 228.3 Q545.9 223.3 556.4 228.3" fill="none" stroke="#46853c" stroke-width="2.5"/>
<path d="M530.2 228.3 Q534.9 230.6 538.0 242.8" fill="none" stroke="#46853c" stroke-width="2.5"/>
<path d="M530.2 228.3 Q519.4 227.3 512.2 236.2" fill="none" stroke="#46853c" stroke-width="2.5"/>
<path d="M726.8 285.0 Q751.8 259.1 744.3 233.3" fill="none" stroke="#846d51" stroke-width="3"/>
<path d="M744.3 233.3 Q730.8 223.3 721.7 223.4" fill="none" stroke="#46853c" stroke-width="2.5"/>
<path d="M744.3 233.3 Q749.6 220.1 753.2 216.9" fill="none" stroke="#46853c" stroke-width="2.5"/>
<path d="M744.3 233.3 Q759.6 228.3 769.8 233.3" fill="none" stroke="#46853c" stroke-width="2.5"/>
<path d="M744.3 233.3 Q748.2 234.3 750.9 245.4" fill="none" stroke="#46853c" stroke-width="2.5"/>
<path d="M744.3 233.3 Q733.0 232.4 725.5 241.5" fill="none" stroke="#46853c" stroke-width="2.5"/>
<path d="M960.7 285.0 Q980.4 258.1 974.5 231.2" fill="none" stroke="#877053" stroke-width="3"/>
<path d="M974.5 231.2 Q965.7 223.0 959.8 224.8" fill="none" stroke="#47863c" stroke-width="2.5"/>
<path d="M974.5 231.2 Q979.6 218.4 983.0 215.6" fill="none" stroke="#47863c" stroke-width="2.5"/>
<path d="M974.5 231.2 Q986.3 226.2 994.1 231.2" fill="none" stroke="#47863c" stroke-width="2.5"/>
<path d="M974.5 231.2 Q979.0 233.2 982.0 245.1" fill="none" stroke="#47863c" stroke-width="2.5"/>
<path d="M974.5 231.2 Q962.4 230.6 954.4 240.0" fill="none" stroke="#47863c" stroke-width="2.5"/>
<path d="M980.6 285.0 Q1007.5 263.5 999.4 242.1" fill="none" stroke="#887153" stroke-width="3"/>
<path d="M999.4 242.1 Q985.9 232.2 976.9 232.2" fill="none" stroke="#47873d" stroke-width="2.5"/>
<path d="M999.4 242.1 Q1004.0 230.1 1007.0 228.2" fill="none" stroke="#47873d" stroke-width="2.5"/>
<path d="M999.4 242.1 Q1011.0 237.1 1018.8 242.1" fill="none" stroke="#47873d" stroke-width="2.5"/>
<path d="M999.4 242.1 Q1004.4 244.7 1007.7 257.4" fill="none" stroke="#47873d" stroke-width="2.5"/>
<path d="M999.4 242.1 Q988.7 241.0 981.6 249.9" fill="none" stroke="#47873d" stroke-width="2.5"/>
<rect x="0" y="285" width="1200" height="15" fill="#d4c5a9" opacity="0.4"/>
<circle cx="1001.9" cy="36.7" r="28.2" fill="#f5e6a0" opacity="0.1"/>
</svg>