<svg xmlns="http://www.w3.org/2000/svg" viewBox="0 0 1200 300" width="1200" height="300">
<defs>
<linearGradient id="skyGrad" x1="0" y1="0" x2="0" y2="1">
<stop offset="0%" stop-color="#818cf8"/>
<stop offset="20%" stop-color="#c4b5fd"/>
<stop offset="38%" stop-color="#fda4af"/>
<stop offset="55%" stop-color="#fdba74"/>
<stop offset="75%" stop-color="#fef08a"/>
<stop offset="100%" stop-color="#fef9c3"/>
</linearGradient>
<linearGradient id="bldg_coral" x1="0" y1="0" x2="0" y2="1"><stop offset="0%" stop-color="#fecaca"/><stop offset="100%" stop-color="#fca5a5"/></linearGradient>
<linearGradient id="bldg_teal" x1="0" y1="0" x2="0" y2="1"><stop offset="0%" stop-color="#99f6e4"/><stop offset="100%" stop-color="#5eead4"/></linearGradient>
<linearGradient id="bldg_amber" x1="0" y1="0" x2="0" y2="1"><stop offset="0%" stop-color="#fde68a"/><stop offset="100%" stop-color="#fcd34d"/></linearGradient>
<linearGradient id="bldg_lavender" x1="0" y1="0" x2="0" y2="1"><stop offset="0%" stop-color="#ddd6fe"/><stop offset="100%" stop-color="#c4b5fd"/></linearGradient>
<linearGradient id="bldg_blue" x1="0" y1="0" x2="0" y2="1"><stop offset="0%" stop-color="#bfdbfe"/><stop offset="100%" stop-color="#93c5fd"/></linearGradient>
<linearGradient id="bldg_mint" x1="0" y1="0" x2="0" y2="1"><stop offset="0%" stop-color="#a7f3d0"/><stop offset="100%" stop-color="#6ee7b7"/></linearGradient>
<linearGradient id="bldg_rose" x1="0" y1="0" x2="0" y2="1"><stop offset="0%" stop-color="#fecdd3"/><stop offset="100%" stop-color="#fda4af"/></linearGradient>
<linearGradient id="bldg_sky" x1="0" y1="0" x2="0" y2="1"><stop offset="0%" stop-color="#bae6fd"/><stop offset="100%" stop-color="#7dd3fc"/></linearGradient>
<linearGradient id="roof_navyRoof" x1="0" y1="0" x2="0" y2="1"><stop offset="0%" stop-color="#4338ca"/><stop offset="100%" stop-color="#3730a3"/></linearGradient>
<linearGradient id="roof_coralRoof" x1="0" y1="0" x2="0" y2="1"><stop offset="0%" stop-color="#f87171"/><stop offset="100%" stop-color="#ef4444"/></linearGradient>
<linearGradient id="roof_tealRoof" x1="0" y1="0" x2="0" y2="1"><stop offset="0%" stop-color="#2dd4bf"/><stop offset="100%" stop-color="#14b8a6"/></linearGradient>
<radialGradient id="windowGlow" cx="50%" cy="50%" r="50%"><stop offset="0%" stop-color="#fef08a"/><stop offset="60%" stop-color="#fbbf24"/><stop offset="100%" stop-color="#f59e0b"/></radialGradient>
<linearGradient id="hillFar" x1="0" y1="0" x2="0" y2="1"><stop offset="0%" stop-color="#c4b5fd"/><stop offset="100%" stop-color="#a5b4fc"/></linearGradient>
<linearGradient id="hillMid" x1="0" y1="0" x2="0" y2="1"><stop offset="0%" stop-color="#86efac"/><stop offset="100%" stop-color="#4ade80"/></linearGradient>
<linearGradient id="hillNear" x1="0" y1="0" x2="0" y2="1"><stop offset="0%" stop-color="#34d399"/><stop offset="100%" stop-color="#10b981"/></linearGradient>
<linearGradient id="hillDesertFar" x1="0" y1="0" x2="0" y2="1"><stop offset="0%" stop-color="#fde68a"/><stop offset="100%" stop-color="#fcd34d"/></linearGradient>
<linearGradient id="hillDesertMid" x1="0" y1="0" x2="0" y2="1"><stop offset="0%" stop-color="#fcd34d"/><stop offset="100%" stop-color="#fbbf24"/></linearGradient>
<linearGradient id="hillDesertNear" x1="0" y1="0" x2="0" y2="1"><stop offset="0%" stop-color="#fbbf24"/><stop offset="100%" stop-color="#f59e0b"/></linearGradient>
<linearGradient id="groundGrad" x1="0" y1="0" x2="0" y2="1"><stop offset="0%" stop-color="#fef3c7"/><stop offset="100%" stop-color="#fde68a"/></linearGradient>
<linearGradient id="waterGrad" x1="0" y1="0" x2="0" y2="1"><stop offset="0%" stop-color="#bfdbfe"/><stop offset="100%" stop-color="#93c5fd"/></linearGradient>
<filter id="softGlow" x="-50%" y="-50%" width="200%" height="200%"><feGaussianBlur in="SourceGraphic" stdDeviation="12"/></filter>
</defs>
<rect width="1200" height="300" fill="url(#skyGrad)"/>
<circle cx="1035.3" cy="49.2" r="45" fill="#fef08a" opacity="0.12" filter="url(#softGlow)"/>
<circle cx="1035.3" cy="49.2" r="30" fill="#fde68a" opacity="0.18" filter="url(#softGlow)"/>
<circle cx="1035.3" cy="49.2" r="16" fill="#fef9c3" opacity="0.25" filter="url(#softGlow)"/>
<ellipse cx="384.4" cy="49.0" rx="49.8" ry="17.4" fill="white" opacity="0.6"/>
<ellipse cx="353.3" cy="54.0" rx="34.9" ry="13.7" fill="white" opacity="0.5"/>
<ellipse cx="411.8" cy="52.8" rx="39.9" ry="15.0" fill="white" opacity="0.5"/>
<ellipse cx="155.0" cy="31.0" rx="29.9" ry="10.5" fill="white" opacity="0.6"/>
<ellipse cx="136.3" cy="34.0" rx="20.9" ry="8.2" fill="white" opacity="0.6"/>
<ellipse cx="171.5" cy="33.2" rx="23.9" ry="9.0" fill="white" opacity="0.5"/>
<path d="M0 300 L0.0 190.3 C180.0 190.3, 180.0 186.8, 360.0 186.8 C531.2 186.8, 531.2 174.4, 702.5 174.4 C951.2 174.4, 951.2 196.9, 1200.0 196.9 L1200 300 Z" fill="url(#hillFar)" opacity="0.5"/>
<path d="M0 300 L0.0 213.5 C179.1 213.5, 179.1 209.3, 358.2 209.3 C619.7 209.3, 619.7 206.9, 881.1 206.9 C1040.6 206.9, 1040.6 212.0, 1200.0 212.0 L1200 300 Z" fill="url(#hillMid)" opacity="0.7"/>
<path d="M0 300 L0.0 233.3 C200.6 233.3, 200.6 234.7, 401.2 234.7 C578.2 234.7, 578.2 231.8, 755.2 231.8 C977.6 231.8, 977.6 230.4, 1200.0 230.4 L1200 300 Z" fill="url(#hillNear)" opacity="1"/>
<path d="M0 196.1 C466.6 155.6, 869.3 211.1, 1200 177.2" fill="none" stroke="url(#waterGrad)" stroke-width="33.0" stroke-linecap="round" opacity="0.5"/>
<rect x="103.4" y="194.8" width="61.4" height="105.2" rx="3" fill="url(#bldg_rose)" opacity="0.7"/>
<polygon points="103.4,194.8 134.1,178.5 164.8,194.8" fill="url(#roof_coralRoof)" opacity="0.7"/>
<rect x="117.1" y="204.8" width="6" height="8" rx="1" fill="url(#windowGlow)" opacity="0.9600959241670071"/>
<rect x="145.1" y="204.8" width="6" height="8" rx="1" fill="url(#windowGlow)" opacity="0.9110548147517511"/>
<rect x="117.1" y="219.8" width="6" height="8" rx="1" fill="url(#windowGlow)" opacity="0.7505225635834608"/>
<rect x="131.1" y="219.8" width="6" height="8" rx="1" fill="url(#windowGlow)" opacity="0.9490275770188437"/>
<rect x="145.1" y="219.8" width="6" height="8" rx="1" fill="url(#windowGlow)" opacity="0.7380604130858837"/>
<rect x="117.1" y="234.8" width="6" height="8" rx="1" fill="url(#windowGlow)" opacity="0.9582815429001494"/>
<rect x="145.1" y="234.8" width="6" height="8" rx="1" fill="url(#windowGlow)" opacity="0.7425848078180964"/>
<rect x="117.1" y="249.8" width="6" height="8" rx="1" fill="url(#windowGlow)" opacity="0.8785924903948756"/>
<rect x="145.1" y="249.8" width="6" height="8" rx="1" fill="url(#windowGlow)" opacity="0.771329000672013"/>
<rect x="354.1" y="184.9" width="66.3" height="115.1" rx="3" fill="url(#bldg_sky)" opacity="0.7"/>
<rect x="367.4" y="171.1" width="39.8" height="13.8" rx="2" fill="url(#roof_tealRoof)" opacity="0.7"/>
<rect x="384.3" y="194.9" width="6" height="8" rx="1" fill="url(#windowGlow)" opacity="0.915927832534503"/>
<rect x="370.3" y="209.9" width="6" height="8" rx="1" fill="url(#windowGlow)" opacity="0.931688656579558"/>
<rect x="384.3" y="209.9" width="6" height="8" rx="1" fill="url(#windowGlow)" opacity="0.720654840870134"/>
<rect x="384.3" y="224.9" width="6" height="8" rx="1" fill="url(#windowGlow)" opacity="0.9931304976777781"/>
<rect x="398.3" y="224.9" width="6" height="8" rx="1" fill="url(#windowGlow)" opacity="0.8207992749851193"/>
<rect x="384.3" y="239.9" width="6" height="8" rx="1" fill="url(#windowGlow)" opacity="0.7523979328351085"/>
<rect x="370.3" y="254.9" width="6" height="8" rx="1" fill="url(#windowGlow)" opacity="0.8810033213258736"/>
<rect x="384.3" y="254.9" width="6" height="8" rx="1" fill="url(#windowGlow)" opacity="0.7272455824665937"/>
<rect x="398.3" y="254.9" width="6" height="8" rx="1" fill="url(#windowGlow)" opacity="0.9862616906344246"/>
<rect x="549.0" y="222.3" width="71.5" height="77.7" rx="3" fill="url(#bldg_coral)" opacity="0.7"/>
<rect x="563.3" y="212.9" width="42.9" height="9.3" rx="2" fill="url(#roof_navyRoof)" opacity="0.7"/>
<rect x="567.7" y="232.3" width="6" height="8" rx="1" fill="url(#windowGlow)" opacity="0.9044310833813767"/>
<rect x="581.7" y="232.3" width="6" height="8" rx="1" fill="url(#windowGlow)" opacity="0.9757681439517849"/>
<rect x="567.7" y="247.3" width="6" height="8" rx="1" fill="url(#windowGlow)" opacity="0.7436515365930514"/>
<rect x="581.7" y="247.3" width="6" height="8" rx="1" fill="url(#windowGlow)" opacity="0.9925731712452011"/>
<rect x="595.7" y="247.3" width="6" height="8" rx="1" fill="url(#windowGlow)" opacity="0.8269726458596869"/>
<rect x="793.4" y="179.2" width="71.6" height="120.8" rx="3" fill="url(#bldg_teal)" opacity="0.7"/>
<rect x="807.7" y="164.7" width="43.0" height="14.5" rx="2" fill="url(#roof_coralRoof)" opacity="0.7"/>
<rect x="826.2" y="189.2" width="6" height="8" rx="1" fill="url(#windowGlow)" opacity="0.7054607928755976"/>
<rect x="840.2" y="189.2" width="6" height="8" rx="1" fill="url(#windowGlow)" opacity="0.9357621838505203"/>
<rect x="812.2" y="204.2" width="6" height="8" rx="1" fill="url(#windowGlow)" opacity="0.9371740967208398"/>
<rect x="840.2" y="204.2" width="6" height="8" rx="1" fill="url(#windowGlow)" opacity="0.9093789794991626"/>
<rect x="812.2" y="219.2" width="6" height="8" rx="1" fill="url(#windowGlow)" opacity="0.7058470554211396"/>
<rect x="826.2" y="219.2" width="6" height="8" rx="1" fill="url(#windowGlow)" opacity="0.7216114519730263"/>
<rect x="840.2" y="219.2" width="6" height="8" rx="1" fill="url(#windowGlow)" opacity="0.8329732133229137"/>
<rect x="812.2" y="234.2" width="6" height="8" rx="1" fill="url(#windowGlow)" opacity="0.7301274169842374"/>
<rect x="826.2" y="234.2" width="6" height="8" rx="1" fill="url(#windowGlow)" opacity="0.80863618143305"/>
<rect x="840.2" y="234.2" width="6" height="8" rx="1" fill="url(#windowGlow)" opacity="0.9006325076802785"/>
<rect x="812.2" y="249.2" width="6" height="8" rx="1" fill="url(#windowGlow)" opacity="0.9611602301528492"/>
<rect x="826.2" y="249.2" width="6" height="8" rx="1" fill="url(#windowGlow)" opacity="0.7381412864374655"/>
<rect x="840.2" y="249.2" width="6" height="8" rx="1" fill="url(#windowGlow)" opacity="0.7659849554141913"/>
<rect x="984.5" y="183.4" width="75.5" height="116.6" rx="3" fill="url(#bldg_amber)" opacity="0.7"/>
<rect x="999.6" y="169.4" width="45.3" height="14.0" rx="2" fill="url(#roof_tealRoof)" opacity="0.7"/>
<rect x="998.2" y="193.4" width="6" height="8" rx="1" fill="url(#windowGlow)" opacity="0.8308744240230296"/>
<rect x="1012.2" y="193.4" width="6" height="8" rx="1" fill="url(#windowGlow)" opacity="0.8020950904591452"/>
<rect x="1026.2" y="193.4" width="6" height="8" rx="1" fill="url(#windowGlow)" opacity="0.8207368300858591"/>
<rect x="1040.2" y="193.4" width="6" height="8" rx="1" fill="url(#windowGlow)" opacity="0.9244208251239828"/>
<rect x="998.2" y="208.4" width="6" height="8" rx="1" fill="url(#windowGlow)" opacity="0.865835119767969"/>
<rect x="1012.2" y="208.4" width="6" height="8" rx="1" fill="url(#windowGlow)" opacity="0.7237037824577204"/>
<rect x="1026.2" y="208.4" width="6" height="8" rx="1" fill="url(#windowGlow)" opacity="0.702278406639713"/>
<rect x="998.2" y="223.4" width="6" height="8" rx="1" fill="url(#windowGlow)" opacity="0.9076067015098439"/>
<rect x="1012.2" y="223.4" width="6" height="8" rx="1" fill="url(#windowGlow)" opacity="0.8926916717051955"/>
<rect x="1040.2" y="223.4" width="6" height="8" rx="1" fill="url(#windowGlow)" opacity="0.9314072707814198"/>
<rect x="998.2" y="238.4" width="6" height="8" rx="1" fill="url(#windowGlow)" opacity="0.7383339669733932"/>
<rect x="1012.2" y="238.4" width="6" height="8" rx="1" fill="url(#windowGlow)" opacity="0.8654906101364133"/>
<rect x="1026.2" y="238.4" width="6" height="8" rx="1" fill="url(#windowGlow)" opacity="0.9082314412147884"/>
<rect x="1040.2" y="238.4" width="6" height="8" rx="1" fill="url(#windowGlow)" opacity="0.7551353697921779"/>
<rect x="998.2" y="253.4" width="6" height="8" rx="1" fill="url(#windowGlow)" opacity="0.9021428608345532"/>
<rect x="1012.2" y="253.4" width="6" height="8" rx="1" fill="url(#windowGlow)" opacity="0.8936428938031395"/>
<rect x="1026.2" y="253.4" width="6" height="8" rx="1" fill="url(#windowGlow)" opacity="0.7462473010859672"/>
<rect x="1040.2" y="253.4" width="6" height="8" rx="1" fill="url(#windowGlow)" opacity="0.899856975860827"/>
<rect x="100.2" y="134.3" width="77.1" height="165.7" rx="3" fill="url(#bldg_lavender)" opacity="0.85"/>
<polygon points="100.2,134.3 138.7,108.9 177.2,134.3" fill="url(#roof_navyRoof)" opacity="0.85"/>
<rect x="114.7" y="144.3" width="6" height="8" rx="1" fill="url(#windowGlow)" opacity="0.8245969652778454"/>
<rect x="128.7" y="144.3" width="6" height="8" rx="1" fill="url(#windowGlow)" opacity="0.9517228278572312"/>
<rect x="142.7" y="144.3" width="6" height="8" rx="1" fill="url(#windowGlow)" opacity="0.8115830597987319"/>
<rect x="156.7" y="144.3" width="6" height="8" rx="1" fill="url(#windowGlow)" opacity="0.9356875077987497"/>
<rect x="114.7" y="159.3" width="6" height="8" rx="1" fill="url(#windowGlow)" opacity="0.7097287858881656"/>
<rect x="128.7" y="159.3" width="6" height="8" rx="1" fill="url(#windowGlow)" opacity="0.7138361064781602"/>
<rect x="142.7" y="159.3" width="6" height="8" rx="1" fill="url(#windowGlow)" opacity="0.8836756670771518"/>
<rect x="156.7" y="159.3" width="6" height="8" rx="1" fill="url(#windowGlow)" opacity="0.8727442753374317"/>
<rect x="114.7" y="174.3" width="6" height="8" rx="1" fill="url(#windowGlow)" opacity="0.8194450787824787"/>
<rect x="128.7" y="174.3" width="6" height="8" rx="1" fill="url(#windowGlow)" opacity="0.9504639531720727"/>
<rect x="142.7" y="174.3" width="6" height="8" rx="1" fill="url(#windowGlow)" opacity="0.9720822921358432"/>
<rect x="156.7" y="174.3" width="6" height="8" rx="1" fill="url(#windowGlow)" opacity="0.7008666284386379"/>
<rect x="114.7" y="189.3" width="6" height="8" rx="1" fill="url(#windowGlow)" opacity="0.8521677035615629"/>
<rect x="128.7" y="189.3" width="6" height="8" rx="1" fill="url(#windowGlow)" opacity="0.8265412888147594"/>
<rect x="142.7" y="189.3" width="6" height="8" rx="1" fill="url(#windowGlow)" opacity="0.8980702536171629"/>
<rect x="156.7" y="189.3" width="6" height="8" rx="1" fill="url(#windowGlow)" opacity="0.9021220569508718"/>
<rect x="114.7" y="204.3" width="6" height="8" rx="1" fill="url(#windowGlow)" opacity="0.8308180316960523"/>
<rect x="128.7" y="204.3" width="6" height="8" rx="1" fill="url(#windowGlow)" opacity="0.7599205153341966"/>
<rect x="142.7" y="204.3" width="6" height="8" rx="1" fill="url(#windowGlow)" opacity="0.8384610695477859"/>
<rect x="114.7" y="219.3" width="6" height="8" rx="1" fill="url(#windowGlow)" opacity="0.8668700351691199"/>
<rect x="128.7" y="219.3" width="6" height="8" rx="1" fill="url(#windowGlow)" opacity="0.9110423533763001"/>
<rect x="142.7" y="219.3" width="6" height="8" rx="1" fill="url(#windowGlow)" opacity="0.7761665110365331"/>
<rect x="114.7" y="234.3" width="6" height="8" rx="1" fill="url(#windowGlow)" opacity="0.9952098128829197"/>
<rect x="128.7" y="234.3" width="6" height="8" rx="1" fill="url(#windowGlow)" opacity="0.9314910926071419"/>
<rect x="142.7" y="234.3" width="6" height="8" rx="1" fill="url(#windowGlow)" opacity="0.7822379002730538"/>
<rect x="156.7" y="234.3" width="6" height="8" rx="1" fill="url(#windowGlow)" opacity="0.9014145826927453"/>
<rect x="114.7" y="249.3" width="6" height="8" rx="1" fill="url(#windowGlow)" opacity="0.8929129593972642"/>
<rect x="128.7" y="249.3" width="6" height="8" rx="1" fill="url(#windowGlow)" opacity="0.8152135017864468"/>
<rect x="142.7" y="249.3" width="6" height="8" rx="1" fill="url(#windowGlow)" opacity="0.7492026394462225"/>
<rect x="156.7" y="249.3" width="6" height="8" rx="1" fill="url(#windowGlow)" opacity="0.8925006868282801"/>
<rect x="334.8" y="138.5" width="44.8" height="161.5" rx="3" fill="url(#bldg_blue)" opacity="0.85"/>
<polygon points="334.8,138.5 357.2,123.4 379.6,138.5" fill="url(#roof_coralRoof)" opacity="0.85"/>
<rect x="347.2" y="148.5" width="6" height="8" rx="1" fill="url(#windowGlow)" opacity="0.8285030337183285"/>
<rect x="361.2" y="148.5" width="6" height="8" rx="1" fill="url(#windowGlow)" opacity="0.7810830035158819"/>
<rect x="347.2" y="163.5" width="6" height="8" rx="1" fill="url(#windowGlow)" opacity="0.8126271732210307"/>
<rect x="361.2" y="163.5" width="6" height="8" rx="1" fill="url(#windowGlow)" opacity="0.8934096037845172"/>
<rect x="347.2" y="178.5" width="6" height="8" rx="1" fill="url(#windowGlow)" opacity="0.9225554360647478"/>
<rect x="361.2" y="178.5" width="6" height="8" rx="1" fill="url(#windowGlow)" opacity="0.8006570865403195"/>
<rect x="347.2" y="193.5" width="6" height="8" rx="1" fill="url(#windowGlow)" opacity="0.9585519422583989"/>
<rect x="361.2" y="193.5" width="6" height="8" rx="1" fill="url(#windowGlow)" opacity="0.9930183898625049"/>
<rect x="347.2" y="208.5" width="6" height="8" rx="1" fill="url(#windowGlow)" opacity="0.7122954541408901"/>
<rect x="361.2" y="208.5" width="6" height="8" rx="1" fill="url(#windowGlow)" opacity="0.807417255736616"/>
<rect x="361.2" y="223.5" width="6" height="8" rx="1" fill="url(#windowGlow)" opacity="0.8223980643425127"/>
<rect x="347.2" y="238.5" width="6" height="8" rx="1" fill="url(#windowGlow)" opacity="0.8634199369528424"/>
<rect x="361.2" y="238.5" width="6" height="8" rx="1" fill="url(#windowGlow)" opacity="0.8673319390822816"/>
<rect x="347.2" y="253.5" width="6" height="8" rx="1" fill="url(#windowGlow)" opacity="0.7821472988846466"/>
<rect x="361.2" y="253.5" width="6" height="8" rx="1" fill="url(#windowGlow)" opacity="0.9452766274312867"/>
<rect x="559.3" y="123.7" width="64.3" height="176.3" rx="3" fill="url(#bldg_mint)" opacity="0.85"/>
<rect x="559.3" y="120.7" width="64.3" height="3" rx="1" fill="url(#roof_tealRoof)" opacity="0.85"/>
<rect x="574.5" y="133.7" width="6" height="8" rx="1" fill="url(#windowGlow)" opacity="0.8855041610940844"/>
<rect x="588.5" y="133.7" width="6" height="8" rx="1" fill="url(#windowGlow)" opacity="0.7471832526136111"/>
<rect x="602.5" y="133.7" width="6" height="8" rx="1" fill="url(#windowGlow)" opacity="0.7602057308238958"/>
<rect x="574.5" y="148.7" width="6" height="8" rx="1" fill="url(#windowGlow)" opacity="0.852592853807189"/>
<rect x="588.5" y="148.7" width="6" height="8" rx="1" fill="url(#windowGlow)" opacity="0.9822333856868712"/>
<rect x="602.5" y="148.7" width="6" height="8" rx="1" fill="url(#windowGlow)" opacity="0.9191265622242942"/>
<rect x="574.5" y="163.7" width="6" height="8" rx="1" fill="url(#windowGlow)" opacity="0.8307714190943033"/>
<rect x="588.5" y="163.7" width="6" height="8" rx="1" fill="url(#windowGlow)" opacity="0.9024163492035197"/>
<rect x="602.5" y="163.7" width="6" height="8" rx="1" fill="url(#windowGlow)" opacity="0.77681244410426"/>
<rect x="574.5" y="178.7" width="6" height="8" rx="1" fill="url(#windowGlow)" opacity="0.8432313626367745"/>
<rect x="588.5" y="178.7" width="6" height="8" rx="1" fill="url(#windowGlow)" opacity="0.9303131544172358"/>
<rect x="602.5" y="178.7" width="6" height="8" rx="1" fill="url(#windowGlow)" opacity="0.7493016573830049"/>
<rect x="574.5" y="193.7" width="6" height="8" rx="1" fill="url(#windowGlow)" opacity="0.9809047735672931"/>
<rect x="602.5" y="193.7" width="6" height="8" rx="1" fill="url(#windowGlow)" opacity="0.9453076478770503"/>
<rect x="574.5" y="208.7" width="6" height="8" rx="1" fill="url(#windowGlow)" opacity="0.9403458911647767"/>
<rect x="588.5" y="208.7" width="6" height="8" rx="1" fill="url(#windowGlow)" opacity="0.9425638022565114"/>
<rect x="602.5" y="208.7" width="6" height="8" rx="1" fill="url(#windowGlow)" opacity="0.711884737811929"/>
<rect x="574.5" y="223.7" width="6" height="8" rx="1" fill="url(#windowGlow)" opacity="0.7683796740921119"/>
<rect x="588.5" y="223.7" width="6" height="8" rx="1" fill="url(#windowGlow)" opacity="0.918795755467748"/>
<rect x="602.5" y="223.7" width="6" height="8" rx="1" fill="url(#windowGlow)" opacity="0.7402717334871514"/>
<rect x="574.5" y="238.7" width="6" height="8" rx="1" fill="url(#windowGlow)" opacity="0.8942627569168167"/>
<rect x="796.5" y="170.4" width="60.9" height="129.6" rx="3" fill="url(#bldg_rose)" opacity="0.85"/>
<polygon points="796.5,170.4 826.9,151.3 857.3,170.4" fill="url(#roof_navyRoof)" opacity="0.85"/>
<rect x="809.9" y="180.4" width="6" height="8" rx="1" fill="url(#windowGlow)" opacity="0.9380017127087348"/>
<rect x="809.9" y="195.4" width="6" height="8" rx="1" fill="url(#windowGlow)" opacity="0.9545244404368682"/>
<rect x="837.9" y="195.4" width="6" height="8" rx="1" fill="url(#windowGlow)" opacity="0.887540406588251"/>
<rect x="809.9" y="210.4" width="6" height="8" rx="1" fill="url(#windowGlow)" opacity="0.9032838863801601"/>
<rect x="837.9" y="210.4" width="6" height="8" rx="1" fill="url(#windowGlow)" opacity="0.8880642239880115"/>
<rect x="823.9" y="225.4" width="6" height="8" rx="1" fill="url(#windowGlow)" opacity="0.9708131539499447"/>
<rect x="837.9" y="225.4" width="6" height="8" rx="1" fill="url(#windowGlow)" opacity="0.9124121957982015"/>
<rect x="809.9" y="240.4" width="6" height="8" rx="1" fill="url(#windowGlow)" opacity="0.8841146015022483"/>
<rect x="823.9" y="240.4" width="6" height="8" rx="1" fill="url(#windowGlow)" opacity="0.9271638229150156"/>
<rect x="809.9" y="255.4" width="6" height="8" rx="1" fill="url(#windowGlow)" opacity="0.8486486925504397"/>
<rect x="823.9" y="255.4" width="6" height="8" rx="1" fill="url(#windowGlow)" opacity="0.8456846484661495"/>
<rect x="837.9" y="255.4" width="6" height="8" rx="1" fill="url(#windowGlow)" opacity="0.8666984733970362"/>
<rect x="1019.0" y="201.0" width="60.8" height="99.0" rx="3" fill="url(#bldg_sky)" opacity="0.85"/>
<rect x="1031.2" y="189.1" width="36.5" height="11.9" rx="2" fill="url(#roof_coralRoof)" opacity="0.85"/>
<rect x="1032.4" y="211.0" width="6" height="8" rx="1" fill="url(#windowGlow)" opacity="0.8855097602054056"/>
<rect x="1046.4" y="211.0" width="6" height="8" rx="1" fill="url(#windowGlow)" opacity="0.9913278973155318"/>
<rect x="1032.4" y="226.0" width="6" height="8" rx="1" fill="url(#windowGlow)" opacity="0.9662605620763546"/>
<rect x="1032.4" y="241.0" width="6" height="8" rx="1" fill="url(#windowGlow)" opacity="0.8492608395634502"/>
<rect x="1046.4" y="241.0" width="6" height="8" rx="1" fill="url(#windowGlow)" opacity="0.8768487420290936"/>
<rect x="1060.4" y="241.0" width="6" height="8" rx="1" fill="url(#windowGlow)" opacity="0.9969535280004858"/>
<rect x="1032.4" y="256.0" width="6" height="8" rx="1" fill="url(#windowGlow)" opacity="0.8151290567662236"/>
<rect x="1046.4" y="256.0" width="6" height="8" rx="1" fill="url(#windowGlow)" opacity="0.9276008704340089"/>
<rect x="1060.4" y="256.0" width="6" height="8" rx="1" fill="url(#windowGlow)" opacity="0.7785717196662778"/>
<rect x="120.9" y="167.4" width="35.1" height="132.6" rx="3" fill="url(#bldg_coral)" opacity="1"/>
<polygon points="120.9,167.4 138.4,157.7 156.0,167.4" fill="url(#roof_tealRoof)" opacity="1"/>
<rect x="135.4" y="177.4" width="6" height="8" rx="1" fill="url(#windowGlow)" opacity="0.7489657400403943"/>
<rect x="135.4" y="192.4" width="6" height="8" rx="1" fill="url(#windowGlow)" opacity="0.7609005087338856"/>
<rect x="135.4" y="207.4" width="6" height="8" rx="1" fill="url(#windowGlow)" opacity="0.7779020708417064"/>
<rect x="135.4" y="222.4" width="6" height="8" rx="1" fill="url(#windowGlow)" opacity="0.8097007833000741"/>
<rect x="133.4" y="284.0" width="10" height="16" rx="2" fill="url(#roof_navyRoof)" opacity="0.8"/>
<rect x="135.4" y="287.0" width="6" height="10" rx="1" fill="url(#windowGlow)" opacity="0.45"/>
<rect x="361.0" y="153.0" width="64.7" height="147.0" rx="3" fill="url(#bldg_teal)" opacity="1"/>
<rect x="361.0" y="150.0" width="64.7" height="3" rx="1" fill="url(#roof_navyRoof)" opacity="1"/>
<rect x="376.3" y="163.0" width="6" height="8" rx="1" fill="url(#windowGlow)" opacity="0.9101260087965642"/>
<rect x="404.3" y="163.0" width="6" height="8" rx="1" fill="url(#windowGlow)" opacity="0.8971653453061195"/>
<rect x="376.3" y="178.0" width="6" height="8" rx="1" fill="url(#windowGlow)" opacity="0.9385010050788991"/>
<rect x="390.3" y="178.0" width="6" height="8" rx="1" fill="url(#windowGlow)" opacity="0.7146645341136793"/>
<rect x="404.3" y="178.0" width="6" height="8" rx="1" fill="url(#windowGlow)" opacity="0.7931083812811917"/>
<rect x="376.3" y="193.0" width="6" height="8" rx="1" fill="url(#windowGlow)" opacity="0.7789909409726927"/>
<rect x="404.3" y="193.0" width="6" height="8" rx="1" fill="url(#windowGlow)" opacity="0.9223320834908317"/>
<rect x="376.3" y="208.0" width="6" height="8" rx="1" fill="url(#windowGlow)" opacity="0.8043661518974071"/>
<rect x="390.3" y="208.0" width="6" height="8" rx="1" fill="url(#windowGlow)" opacity="0.9548654555132916"/>
<rect x="404.3" y="208.0" width="6" height="8" rx="1" fill="url(#windowGlow)" opacity="0.9399093186202967"/>
<rect x="376.3" y="223.0" width="6" height="8" rx="1" fill="url(#windowGlow)" opacity="0.9052788232012087"/>
<rect x="390.3" y="223.0" width="6" height="8" rx="1" fill="url(#windowGlow)" opacity="0.9271430726755144"/>
<rect x="404.3" y="223.0" width="6" height="8" rx="1" fill="url(#windowGlow)" opacity="0.9409284393028022"/>
<rect x="376.3" y="238.0" width="6" height="8" rx="1" fill="url(#windowGlow)" opacity="0.948737006051809"/>
<rect x="404.3" y="238.0" width="6" height="8" rx="1" fill="url(#windowGlow)" opacity="0.85672258369472"/>
<rect x="376.3" y="253.0" width="6" height="8" rx="1" fill="url(#windowGlow)" opacity="0.8354993614999109"/>
<rect x="390.3" y="253.0" width="6" height="8" rx="1" fill="url(#windowGlow)" opacity="0.8297681784861572"/>
<rect x="404.3" y="253.0" width="6" height="8" rx="1" fill="url(#windowGlow)" opacity="0.9548388632269758"/>
<rect x="388.3" y="284.0" width="10" height="16" rx="2" fill="url(#roof_navyRoof)" opacity="0.8"/>
<rect x="390.3" y="287.0" width="6" height="10" rx="1" fill="url(#windowGlow)" opacity="0.45"/>
<path d="M367.4 204.5 L393.3 204.5 L390.3 210.5 L370.4 210.5 Z" fill="url(#roof_tealRoof)" opacity="0.8"/>
<rect x="554.9" y="203.0" width="48.0" height="97.0" rx="3" fill="url(#bldg_amber)" opacity="1"/>
<polygon points="554.9,203.0 579.0,189.4 603.0,203.0" fill="url(#roof_coralRoof)" opacity="1"/>
<rect x="569.0" y="213.0" width="6" height="8" rx="1" fill="url(#windowGlow)" opacity="0.9319423386510193"/>
<rect x="583.0" y="213.0" width="6" height="8" rx="1" fill="url(#windowGlow)" opacity="0.9703517475027366"/>
<rect x="569.0" y="228.0" width="6" height="8" rx="1" fill="url(#windowGlow)" opacity="0.7389718978381584"/>
<rect x="583.0" y="228.0" width="6" height="8" rx="1" fill="url(#windowGlow)" opacity="0.9041718883924986"/>
<rect x="583.0" y="243.0" width="6" height="8" rx="1" fill="url(#windowGlow)" opacity="0.7823884808842039"/>
<rect x="583.0" y="258.0" width="6" height="8" rx="1" fill="url(#windowGlow)" opacity="0.9561444084887134"/>
<rect x="574.0" y="284.0" width="10" height="16" rx="2" fill="url(#roof_navyRoof)" opacity="0.8"/>
<rect x="576.0" y="287.0" width="6" height="10" rx="1" fill="url(#windowGlow)" opacity="0.45"/>
<rect x="779.1" y="221.1" width="52.0" height="78.9" rx="3" fill="url(#bldg_lavender)" opacity="1"/>
<rect x="789.5" y="211.6" width="31.2" height="9.5" rx="2" fill="url(#roof_tealRoof)" opacity="1"/>
<rect x="795.1" y="231.1" width="6" height="8" rx="1" fill="url(#windowGlow)" opacity="0.7163238992059249"/>
<rect x="809.1" y="231.1" width="6" height="8" rx="1" fill="url(#windowGlow)" opacity="0.9622807630627792"/>
<rect x="795.1" y="246.1" width="6" height="8" rx="1" fill="url(#windowGlow)" opacity="0.9131022352786279"/>
<rect x="809.1" y="246.1" width="6" height="8" rx="1" fill="url(#windowGlow)" opacity="0.7608174762040457"/>
<rect x="800.1" y="284.0" width="10" height="16" rx="2" fill="url(#roof_navyRoof)" opacity="0.8"/>
<rect x="802.1" y="287.0" width="6" height="10" rx="1" fill="url(#windowGlow)" opacity="0.45"/>
<rect x="1028.5" y="113.1" width="62.7" height="186.9" rx="3" fill="url(#bldg_blue)" opacity="1"/>
<rect x="1041.0" y="90.7" width="37.6" height="22.4" rx="2" fill="url(#roof_navyRoof)" opacity="1"/>
<rect x="1042.8" y="123.1" width="6" height="8" rx="1" fill="url(#windowGlow)" opacity="0.7081006588917694"/>
<rect x="1056.8" y="123.1" width="6" height="8" rx="1" fill="url(#windowGlow)" opacity="0.7604428695330595"/>
<rect x="1070.8" y="123.1" width="6" height="8" rx="1" fill="url(#windowGlow)" opacity="0.9095228666018335"/>
<rect x="1042.8" y="138.1" width="6" height="8" rx="1" fill="url(#windowGlow)" opacity="0.9619617664078072"/>
<rect x="1056.8" y="138.1" width="6" height="8" rx="1" fill="url(#windowGlow)" opacity="0.88038668775949"/>
<rect x="1070.8" y="138.1" width="6" height="8" rx="1" fill="url(#windowGlow)" opacity="0.9708083002692127"/>
<rect x="1042.8" y="153.1" width="6" height="8" rx="1" fill="url(#windowGlow)" opacity="0.9654420977297435"/>
<rect x="1056.8" y="153.1" width="6" height="8" rx="1" fill="url(#windowGlow)" opacity="0.8261442963155659"/>
<rect x="1070.8" y="153.1" width="6" height="8" rx="1" fill="url(#windowGlow)" opacity="0.9473441924654618"/>
<rect x="1056.8" y="168.1" width="6" height="8" rx="1" fill="url(#windowGlow)" opacity="0.9694914589959622"/>
<rect x="1070.8" y="168.1" width="6" height="8" rx="1" fill="url(#windowGlow)" opacity="0.9993289804548625"/>
<rect x="1042.8" y="183.1" width="6" height="8" rx="1" fill="url(#windowGlow)" opacity="0.8265911929898854"/>
<rect x="1070.8" y="183.1" width="6" height="8" rx="1" fill="url(#windowGlow)" opacity="0.9104162028573528"/>
<rect x="1042.8" y="198.1" width="6" height="8" rx="1" fill="url(#windowGlow)" opacity="0.9033281830620616"/>
<rect x="1056.8" y="198.1" width="6" height="8" rx="1" fill="url(#windowGlow)" opacity="0.8239282753429973"/>
<rect x="1056.8" y="213.1" width="6" height="8" rx="1" fill="url(#windowGlow)" opacity="0.7568667741291536"/>
<rect x="1042.8" y="228.1" width="6" height="8" rx="1" fill="url(#windowGlow)" opacity="0.9302218226856653"/>
<rect x="1070.8" y="228.1" width="6" height="8" rx="1" fill="url(#windowGlow)" opacity="0.7599337636306573"/>
<rect x="1054.8" y="284.0" width="10" height="16" rx="2" fill="url(#roof_navyRoof)" opacity="0.8"/>
<rect x="1056.8" y="287.0" width="6" height="10" rx="1" fill="url(#windowGlow)" opacity="0.45"/>
<path d="M1059.8 178.5 L1084.9 178.5 L1081.9 184.5 L1062.8 184.5 Z" fill="url(#roof_tealRoof)" opacity="0.8"/>
<rect x="1048.9" y="154.1" width="21.9" height="5" rx="1" fill="#15803d" opacity="0.7"/>
<circle cx="1051.9" cy="153.1" r="2.5" fill="#f87171" opacity="0.85"/>
<circle cx="1059.2" cy="153.1" r="2.5" fill="#fbbf24" opacity="0.85"/>
<circle cx="1066.5" cy="153.1" r="2.5" fill="#fbbf24" opacity="0.85"/>
<rect x="502.7" y="197.2" width="65.1" height="102.8" rx="2" fill="#c7d2fe" opacity="0.95"/>
<rect x="506.7" y="205.2" width="3" height="86.8" fill="#818cf8" opacity="0.5"/>
<rect x="521.0" y="205.2" width="3" height="86.8" fill="#818cf8" opacity="0.5"/>
<rect x="535.3" y="205.2" width="3" height="86.8" fill="#818cf8" opacity="0.5"/>
<rect x="549.5" y="205.2" width="3" height="86.8" fill="#818cf8" opacity="0.5"/>
<rect x="563.8" y="205.2" width="3" height="86.8" fill="#818cf8" opacity="0.5"/>
<polygon points="499.7,197.2 535.3,185.2 570.8,197.2" fill="#a5b4fc"/>
<path d="M515.7 185.2 A19.5 15.6 0 0 1 554.8 185.2" fill="#818cf8" opacity="0.85"/>
<circle cx="535.3" cy="171.6" r="3" fill="#fef08a" opacity="0.7"/>
<rect x="502.7" y="297.0" width="65.1" height="3" rx="1" fill="#e0e7ff" opacity="0.7"/>
<rect x="498.7" y="294.0" width="73.1" height="3" rx="1" fill="#e0e7ff" opacity="0.7"/>
<rect x="494.7" y="291.0" width="81.1" height="3" rx="1" fill="#e0e7ff" opacity="0.7"/>
<rect x="255.5" y="267.2" width="6" height="17.8" rx="2" fill="#15803d"/>
<circle cx="258.5" cy="254.2" r="16.9" fill="#22c55e" opacity="0.9"/>
<circle cx="252.4" cy="257.2" r="12.7" fill="#16a34a" opacity="0.8"/>
<circle cx="264.2" cy="258.2" r="11.9" fill="#15803d" opacity="0.7"/>
<rect x="487.3" y="265.7" width="6" height="19.3" rx="2" fill="#15803d"/>
<circle cx="490.3" cy="254.8" r="14.8" fill="#22c55e" opacity="0.9"/>
<circle cx="482.2" cy="257.8" r="11.1" fill="#16a34a" opacity="0.8"/>
<circle cx="498.2" cy="258.8" r="10.4" fill="#15803d" opacity="0.7"/>
<rect x="688.0" y="266.9" width="6" height="18.1" rx="2" fill="#15803d"/>
<circle cx="691.0" cy="255.8" r="15.1" fill="#22c55e" opacity="0.9"/>
<circle cx="684.6" cy="258.8" r="11.3" fill="#16a34a" opacity="0.8"/>
<circle cx="696.1" cy="259.8" r="10.6" fill="#15803d" opacity="0.7"/>
<rect x="0" y="282" width="1200" height="18" fill="url(#groundGrad)"/>
<line x1="124.2" y1="282.0" x2="124.2" y2="240.6" stroke="#92400e" stroke-width="2"/>
<circle cx="124.2" cy="240.6" r="4" fill="#fef08a" opacity="0.6"/>
<circle cx="124.2" cy="240.6" r="8" fill="#fef08a" opacity="0.15" filter="url(#softGlow)"/>
<ellipse cx="626.2" cy="282.0" rx="6.2" ry="4.4" fill="#22c55e" opacity="0.6"/>
<ellipse cx="239.6" cy="282.0" rx="4.7" ry="3.3" fill="#22c55e" opacity="0.6"/>
<ellipse cx="1049.6" cy="282.0" rx="6.2" ry="4.3" fill="#22c55e" opacity="0.6"/>
<ellipse cx="276.8" cy="282.0" rx="4.9" ry="3.4" fill="#22c55e" opacity="0.6"/>
</svg>