<svg xmlns="http://www.w3.org/2000/svg" viewBox="0 0 1200 400" width="1200" height="400">
<defs>
<linearGradient id="bg" x1="0" y1="0" x2="0" y2="1"><stop offset="0%" stop-color="#f5f0e8"/><stop offset="100%" stop-color="#475569"/></linearGradient>
<linearGradient id="warm" x1="0" y1="0" x2="1" y2="1"><stop offset="0%" stop-color="#858d99" stop-opacity="0.18"/><stop offset="100%" stop-color="#858d99" stop-opacity="0.06"/></linearGradient>
</defs>
<rect width="1200" height="400" fill="url(#bg)"/>
<path d="M0 400 L0 241.6354862197319 C60.0 248.0, 90.0 227.7, 150.0 236.1 C210.0 233.6, 240.0 224.5, 300.0 225.7 C360.0 221.7, 390.0 222.0, 450.0 225.0 C510.0 215.2, 540.0 257.3, 600.0 248.8 C660.0 246.5, 690.0 235.8, 750.0 240.0 C810.0 235.8, 840.0 250.3, 900.0 250.7 C960.0 258.9, 990.0 218.0, 1050.0 215.3 C1110.0 217.9, 1140.0 224.6, 1200.0 228.5 L1200 400 Z" fill="#848b95" opacity="0.45"/>
<path d="M0 400 L0 264.2108085104166 C52.5 261.9, 97.5 262.9, 150.0 258.0 C202.5 262.0, 247.5 258.2, 300.0 258.5 C352.5 256.5, 397.5 261.2, 450.0 266.0 C502.5 266.8, 547.5 271.3, 600.0 271.7 C652.5 274.7, 697.5 261.6, 750.0 258.5 C802.5 259.9, 847.5 262.9, 900.0 267.0 C952.5 261.7, 997.5 256.4, 1050.0 255.0 C1102.5 256.4, 1147.5 279.1, 1200.0 274.7 L1200 400 Z" fill="#475569" opacity="0.3"/>
<rect x="818.7" y="365.0" width="37.7" height="35.0" rx="7.6" fill="#8d3920" opacity="0.80"/>
<rect x="904.5" y="350.4" width="16.6" height="49.6" rx="6.0" fill="#893b24" opacity="0.84"/>
<rect x="602.4" y="305.3" width="31.8" height="94.7" rx="5.6" fill="#803e2d" opacity="0.57"/>
<rect x="832.6" y="321.4" width="21.8" height="78.6" rx="7.0" fill="#813e2c" opacity="0.61"/>
<rect x="528.8" y="347.8" width="16.7" height="52.2" rx="3.8" fill="#963516" opacity="0.74"/>
<rect x="925.0" y="281.2" width="39.0" height="118.8" rx="5.6" fill="#973515" opacity="0.65"/>
<rect x="930.0" y="291.2" width="4" height="5" rx="0.5" fill="#f5f0e8" opacity="0.6"/>
<rect x="930.0" y="313.2" width="4" height="5" rx="0.5" fill="#f5f0e8" opacity="0.6"/>
<rect x="943.0" y="313.2" width="4" height="5" rx="0.5" fill="#f5f0e8" opacity="0.6"/>
<rect x="930.0" y="335.2" width="4" height="5" rx="0.5" fill="#f5f0e8" opacity="0.6"/>
<rect x="930.0" y="357.2" width="4" height="5" rx="0.5" fill="#f5f0e8" opacity="0.6"/>
<rect x="943.0" y="357.2" width="4" height="5" rx="0.5" fill="#f5f0e8" opacity="0.6"/>
<rect x="602.2" y="354.9" width="20.8" height="45.1" rx="7.3" fill="#963617" opacity="0.73"/>
<rect x="691.5" y="284.5" width="17.4" height="115.5" rx="3.1" fill="#73433b" opacity="0.58"/>
<rect x="811.0" y="339.4" width="12.5" height="60.6" rx="3.3" fill="#71443d" opacity="0.77"/>
<rect x="250.0" y="361.7" width="37.7" height="38.3" rx="3.5" fill="#794134" opacity="0.84"/>
<rect x="295.2" y="322.7" width="35.2" height="77.3" rx="5.8" fill="#91371b" opacity="0.51"/>
<rect x="423.8" y="299.2" width="49.3" height="100.8" rx="3.5" fill="#8a3a22" opacity="0.83"/>
<rect x="445.2" y="309.2" width="4" height="5" rx="0.5" fill="#f5f0e8" opacity="0.6"/>
<rect x="445.2" y="331.2" width="4" height="5" rx="0.5" fill="#f5f0e8" opacity="0.6"/>
<rect x="445.2" y="353.2" width="4" height="5" rx="0.5" fill="#f5f0e8" opacity="0.6"/>
<rect x="526.3" y="331.0" width="49.1" height="69.0" rx="6.1" fill="#943618" opacity="0.70"/>
<rect x="874.4" y="343.3" width="12.7" height="56.7" rx="4.5" fill="#73443b" opacity="0.56"/>
<circle cx="469.2" cy="167.5" r="5.6" fill="#9a3412" opacity="0.16"/>
<circle cx="86.4" cy="195.0" r="7.0" fill="#9a3412" opacity="0.23"/>
<circle cx="1121.5" cy="86.9" r="5.4" fill="#9a3412" opacity="0.35"/>
<circle cx="1044.6" cy="58.8" r="4.1" fill="#9a3412" opacity="0.22"/>
<rect width="1200" height="400" fill="url(#warm)"/>
<rect width="1200" height="400" fill="#f5f0e8" opacity="0.43"/>
</svg>