<svg xmlns="http://www.w3.org/2000/svg" viewBox="0 0 1200 300" width="1200" height="300">
<defs>
<linearGradient id="skyGrad" x1="0" y1="0" x2="0" y2="1">
<stop offset="0%" stop-color="#818cf8"/>
<stop offset="20%" stop-color="#c4b5fd"/>
<stop offset="38%" stop-color="#fda4af"/>
<stop offset="55%" stop-color="#fdba74"/>
<stop offset="75%" stop-color="#fef08a"/>
<stop offset="100%" stop-color="#fef9c3"/>
</linearGradient>
<linearGradient id="bldg_coral" x1="0" y1="0" x2="0" y2="1"><stop offset="0%" stop-color="#fecaca"/><stop offset="100%" stop-color="#fca5a5"/></linearGradient>
<linearGradient id="bldg_teal" x1="0" y1="0" x2="0" y2="1"><stop offset="0%" stop-color="#99f6e4"/><stop offset="100%" stop-color="#5eead4"/></linearGradient>
<linearGradient id="bldg_amber" x1="0" y1="0" x2="0" y2="1"><stop offset="0%" stop-color="#fde68a"/><stop offset="100%" stop-color="#fcd34d"/></linearGradient>
<linearGradient id="bldg_lavender" x1="0" y1="0" x2="0" y2="1"><stop offset="0%" stop-color="#ddd6fe"/><stop offset="100%" stop-color="#c4b5fd"/></linearGradient>
<linearGradient id="bldg_blue" x1="0" y1="0" x2="0" y2="1"><stop offset="0%" stop-color="#bfdbfe"/><stop offset="100%" stop-color="#93c5fd"/></linearGradient>
<linearGradient id="bldg_mint" x1="0" y1="0" x2="0" y2="1"><stop offset="0%" stop-color="#a7f3d0"/><stop offset="100%" stop-color="#6ee7b7"/></linearGradient>
<linearGradient id="bldg_rose" x1="0" y1="0" x2="0" y2="1"><stop offset="0%" stop-color="#fecdd3"/><stop offset="100%" stop-color="#fda4af"/></linearGradient>
<linearGradient id="bldg_sky" x1="0" y1="0" x2="0" y2="1"><stop offset="0%" stop-color="#bae6fd"/><stop offset="100%" stop-color="#7dd3fc"/></linearGradient>
<linearGradient id="roof_navyRoof" x1="0" y1="0" x2="0" y2="1"><stop offset="0%" stop-color="#4338ca"/><stop offset="100%" stop-color="#3730a3"/></linearGradient>
<linearGradient id="roof_coralRoof" x1="0" y1="0" x2="0" y2="1"><stop offset="0%" stop-color="#f87171"/><stop offset="100%" stop-color="#ef4444"/></linearGradient>
<linearGradient id="roof_tealRoof" x1="0" y1="0" x2="0" y2="1"><stop offset="0%" stop-color="#2dd4bf"/><stop offset="100%" stop-color="#14b8a6"/></linearGradient>
<radialGradient id="windowGlow" cx="50%" cy="50%" r="50%"><stop offset="0%" stop-color="#fef08a"/><stop offset="60%" stop-color="#fbbf24"/><stop offset="100%" stop-color="#f59e0b"/></radialGradient>
<linearGradient id="hillFar" x1="0" y1="0" x2="0" y2="1"><stop offset="0%" stop-color="#c4b5fd"/><stop offset="100%" stop-color="#a5b4fc"/></linearGradient>
<linearGradient id="hillMid" x1="0" y1="0" x2="0" y2="1"><stop offset="0%" stop-color="#86efac"/><stop offset="100%" stop-color="#4ade80"/></linearGradient>
<linearGradient id="hillNear" x1="0" y1="0" x2="0" y2="1"><stop offset="0%" stop-color="#34d399"/><stop offset="100%" stop-color="#10b981"/></linearGradient>
<linearGradient id="hillDesertFar" x1="0" y1="0" x2="0" y2="1"><stop offset="0%" stop-color="#fde68a"/><stop offset="100%" stop-color="#fcd34d"/></linearGradient>
<linearGradient id="hillDesertMid" x1="0" y1="0" x2="0" y2="1"><stop offset="0%" stop-color="#fcd34d"/><stop offset="100%" stop-color="#fbbf24"/></linearGradient>
<linearGradient id="hillDesertNear" x1="0" y1="0" x2="0" y2="1"><stop offset="0%" stop-color="#fbbf24"/><stop offset="100%" stop-color="#f59e0b"/></linearGradient>
<linearGradient id="groundGrad" x1="0" y1="0" x2="0" y2="1"><stop offset="0%" stop-color="#fef3c7"/><stop offset="100%" stop-color="#fde68a"/></linearGradient>
<linearGradient id="waterGrad" x1="0" y1="0" x2="0" y2="1"><stop offset="0%" stop-color="#bfdbfe"/><stop offset="100%" stop-color="#93c5fd"/></linearGradient>
<filter id="softGlow" x="-50%" y="-50%" width="200%" height="200%"><feGaussianBlur in="SourceGraphic" stdDeviation="12"/></filter>
</defs>
<rect width="1200" height="300" fill="url(#skyGrad)"/>
<circle cx="1057.7" cy="53.6" r="45" fill="#fef08a" opacity="0.12" filter="url(#softGlow)"/>
<circle cx="1057.7" cy="53.6" r="30" fill="#fde68a" opacity="0.18" filter="url(#softGlow)"/>
<circle cx="1057.7" cy="53.6" r="16" fill="#fef9c3" opacity="0.25" filter="url(#softGlow)"/>
<ellipse cx="774.4" cy="52.1" rx="47.7" ry="16.7" fill="white" opacity="0.6"/>
<ellipse cx="744.6" cy="56.9" rx="33.4" ry="13.1" fill="white" opacity="0.5"/>
<ellipse cx="800.6" cy="55.7" rx="38.1" ry="14.3" fill="white" opacity="0.5"/>
<ellipse cx="1077.8" cy="45.2" rx="28.4" ry="9.9" fill="white" opacity="0.6"/>
<ellipse cx="1060.0" cy="48.1" rx="19.9" ry="7.8" fill="white" opacity="0.6"/>
<ellipse cx="1093.4" cy="47.4" rx="22.7" ry="8.5" fill="white" opacity="0.5"/>
<path d="M0 300 L0.0 184.1 C164.4 184.1, 164.4 191.9, 328.8 191.9 C534.6 191.9, 534.6 184.7, 740.5 184.7 C970.3 184.7, 970.3 195.9, 1200.0 195.9 L1200 300 Z" fill="url(#hillFar)" opacity="0.5"/>
<path d="M0 300 L0.0 211.9 C171.8 211.9, 171.8 208.7, 343.7 208.7 C552.4 208.7, 552.4 209.4, 761.1 209.4 C980.5 209.4, 980.5 215.0, 1200.0 215.0 L1200 300 Z" fill="url(#hillMid)" opacity="0.7"/>
<path d="M0 300 L0.0 231.0 C216.8 231.0, 216.8 232.9, 433.5 232.9 C646.9 232.9, 646.9 233.4, 860.3 233.4 C1030.2 233.4, 1030.2 228.5, 1200.0 228.5 L1200 300 Z" fill="url(#hillNear)" opacity="1"/>
<rect x="166.8" y="230.4" width="76.2" height="69.6" rx="3" fill="url(#bldg_amber)" opacity="0.7"/>
<polygon points="166.8,230.4 204.9,207.6 243.1,230.4" fill="url(#roof_tealRoof)" opacity="0.7"/>
<rect x="194.9" y="240.4" width="6" height="8" rx="1" fill="url(#windowGlow)" opacity="0.8276869428472998"/>
<rect x="208.9" y="240.4" width="6" height="8" rx="1" fill="url(#windowGlow)" opacity="0.9013512265409115"/>
<rect x="222.9" y="240.4" width="6" height="8" rx="1" fill="url(#windowGlow)" opacity="0.8555446121168996"/>
<rect x="180.9" y="255.4" width="6" height="8" rx="1" fill="url(#windowGlow)" opacity="0.9956431942971624"/>
<rect x="222.9" y="255.4" width="6" height="8" rx="1" fill="url(#windowGlow)" opacity="0.8280716769527977"/>
<rect x="588.4" y="225.5" width="52.4" height="74.5" rx="3" fill="url(#bldg_lavender)" opacity="0.7"/>
<rect x="598.9" y="216.6" width="31.4" height="8.9" rx="2" fill="url(#roof_navyRoof)" opacity="0.7"/>
<rect x="618.6" y="235.5" width="6" height="8" rx="1" fill="url(#windowGlow)" opacity="0.7537080762692299"/>
<rect x="604.6" y="250.5" width="6" height="8" rx="1" fill="url(#windowGlow)" opacity="0.7857184921324805"/>
<rect x="618.6" y="250.5" width="6" height="8" rx="1" fill="url(#windowGlow)" opacity="0.9446854089129182"/>
<rect x="947.6" y="207.7" width="49.5" height="92.3" rx="3" fill="url(#bldg_blue)" opacity="0.7"/>
<polygon points="947.6,207.7 972.3,193.1 997.1,207.7" fill="url(#roof_coralRoof)" opacity="0.7"/>
<rect x="962.3" y="217.7" width="6" height="8" rx="1" fill="url(#windowGlow)" opacity="0.7527349272522772"/>
<rect x="976.3" y="217.7" width="6" height="8" rx="1" fill="url(#windowGlow)" opacity="0.8104397342588937"/>
<rect x="976.3" y="232.7" width="6" height="8" rx="1" fill="url(#windowGlow)" opacity="0.7594134711005787"/>
<rect x="976.3" y="247.7" width="6" height="8" rx="1" fill="url(#windowGlow)" opacity="0.7558505018967439"/>
<rect x="193.5" y="176.8" width="66.4" height="123.2" rx="3" fill="url(#bldg_mint)" opacity="0.85"/>
<polygon points="193.5,176.8 226.7,156.7 259.9,176.8" fill="url(#roof_tealRoof)" opacity="0.85"/>
<rect x="223.7" y="186.8" width="6" height="8" rx="1" fill="url(#windowGlow)" opacity="0.9295780201580273"/>
<rect x="237.7" y="186.8" width="6" height="8" rx="1" fill="url(#windowGlow)" opacity="0.7129397152983302"/>
<rect x="209.7" y="201.8" width="6" height="8" rx="1" fill="url(#windowGlow)" opacity="0.9363472971303143"/>
<rect x="223.7" y="201.8" width="6" height="8" rx="1" fill="url(#windowGlow)" opacity="0.9448688565031014"/>
<rect x="237.7" y="201.8" width="6" height="8" rx="1" fill="url(#windowGlow)" opacity="0.8143196598227692"/>
<rect x="209.7" y="216.8" width="6" height="8" rx="1" fill="url(#windowGlow)" opacity="0.8992582883682373"/>
<rect x="223.7" y="216.8" width="6" height="8" rx="1" fill="url(#windowGlow)" opacity="0.9494123428358754"/>
<rect x="209.7" y="231.8" width="6" height="8" rx="1" fill="url(#windowGlow)" opacity="0.7252327579656768"/>
<rect x="223.7" y="231.8" width="6" height="8" rx="1" fill="url(#windowGlow)" opacity="0.7395878593156058"/>
<rect x="237.7" y="231.8" width="6" height="8" rx="1" fill="url(#windowGlow)" opacity="0.7351206505369025"/>
<rect x="209.7" y="246.8" width="6" height="8" rx="1" fill="url(#windowGlow)" opacity="0.7298382133850074"/>
<rect x="223.7" y="246.8" width="6" height="8" rx="1" fill="url(#windowGlow)" opacity="0.8478516698106432"/>
<rect x="578.3" y="160.8" width="77.9" height="139.2" rx="3" fill="url(#bldg_rose)" opacity="0.85"/>
<polygon points="578.3,160.8 617.3,135.9 656.2,160.8" fill="url(#roof_navyRoof)" opacity="0.85"/>
<rect x="593.3" y="170.8" width="6" height="8" rx="1" fill="url(#windowGlow)" opacity="0.821248934893519"/>
<rect x="621.3" y="170.8" width="6" height="8" rx="1" fill="url(#windowGlow)" opacity="0.9471776251900836"/>
<rect x="635.3" y="170.8" width="6" height="8" rx="1" fill="url(#windowGlow)" opacity="0.7502017363208354"/>
<rect x="593.3" y="185.8" width="6" height="8" rx="1" fill="url(#windowGlow)" opacity="0.8670288103479095"/>
<rect x="607.3" y="185.8" width="6" height="8" rx="1" fill="url(#windowGlow)" opacity="0.9105759067510142"/>
<rect x="621.3" y="185.8" width="6" height="8" rx="1" fill="url(#windowGlow)" opacity="0.9020402194010281"/>
<rect x="635.3" y="185.8" width="6" height="8" rx="1" fill="url(#windowGlow)" opacity="0.7006823251958388"/>
<rect x="593.3" y="200.8" width="6" height="8" rx="1" fill="url(#windowGlow)" opacity="0.8922733738051137"/>
<rect x="607.3" y="200.8" width="6" height="8" rx="1" fill="url(#windowGlow)" opacity="0.844873208713193"/>
<rect x="621.3" y="200.8" width="6" height="8" rx="1" fill="url(#windowGlow)" opacity="0.9216611025024489"/>
<rect x="635.3" y="200.8" width="6" height="8" rx="1" fill="url(#windowGlow)" opacity="0.8387829698337163"/>
<rect x="593.3" y="215.8" width="6" height="8" rx="1" fill="url(#windowGlow)" opacity="0.8591086159269831"/>
<rect x="607.3" y="215.8" width="6" height="8" rx="1" fill="url(#windowGlow)" opacity="0.7079097603484568"/>
<rect x="635.3" y="215.8" width="6" height="8" rx="1" fill="url(#windowGlow)" opacity="0.7423872506909013"/>
<rect x="593.3" y="230.8" width="6" height="8" rx="1" fill="url(#windowGlow)" opacity="0.9068662455803091"/>
<rect x="607.3" y="230.8" width="6" height="8" rx="1" fill="url(#windowGlow)" opacity="0.9947916535636371"/>
<rect x="621.3" y="230.8" width="6" height="8" rx="1" fill="url(#windowGlow)" opacity="0.8289110329136768"/>
<rect x="635.3" y="230.8" width="6" height="8" rx="1" fill="url(#windowGlow)" opacity="0.7071811305858107"/>
<rect x="593.3" y="245.8" width="6" height="8" rx="1" fill="url(#windowGlow)" opacity="0.7897181840565606"/>
<rect x="607.3" y="245.8" width="6" height="8" rx="1" fill="url(#windowGlow)" opacity="0.8469146051662576"/>
<rect x="621.3" y="245.8" width="6" height="8" rx="1" fill="url(#windowGlow)" opacity="0.7352991945740297"/>
<rect x="593.3" y="260.8" width="6" height="8" rx="1" fill="url(#windowGlow)" opacity="0.9330799874072335"/>
<rect x="607.3" y="260.8" width="6" height="8" rx="1" fill="url(#windowGlow)" opacity="0.8604973732309869"/>
<rect x="621.3" y="260.8" width="6" height="8" rx="1" fill="url(#windowGlow)" opacity="0.8808951908633555"/>
<rect x="635.3" y="260.8" width="6" height="8" rx="1" fill="url(#windowGlow)" opacity="0.874880538589731"/>
<rect x="918.9" y="234.8" width="57.9" height="65.2" rx="3" fill="url(#bldg_sky)" opacity="0.85"/>
<rect x="930.5" y="227.0" width="34.7" height="7.8" rx="2" fill="url(#roof_coralRoof)" opacity="0.85"/>
<rect x="937.8" y="244.8" width="6" height="8" rx="1" fill="url(#windowGlow)" opacity="0.7002466911451176"/>
<rect x="951.8" y="244.8" width="6" height="8" rx="1" fill="url(#windowGlow)" opacity="0.7637250145262688"/>
<rect x="937.8" y="259.8" width="6" height="8" rx="1" fill="url(#windowGlow)" opacity="0.8656992533084467"/>
<rect x="951.8" y="259.8" width="6" height="8" rx="1" fill="url(#windowGlow)" opacity="0.8671729195710145"/>
<rect x="179.5" y="201.0" width="50.5" height="99.0" rx="3" fill="url(#bldg_coral)" opacity="1"/>
<rect x="179.5" y="198.0" width="50.5" height="3" rx="1" fill="url(#roof_tealRoof)" opacity="1"/>
<rect x="194.8" y="211.0" width="6" height="8" rx="1" fill="url(#windowGlow)" opacity="0.9744285332385583"/>
<rect x="208.8" y="211.0" width="6" height="8" rx="1" fill="url(#windowGlow)" opacity="0.7546846125529542"/>
<rect x="194.8" y="226.0" width="6" height="8" rx="1" fill="url(#windowGlow)" opacity="0.937513597327058"/>
<rect x="208.8" y="226.0" width="6" height="8" rx="1" fill="url(#windowGlow)" opacity="0.7682441698705051"/>
<rect x="194.8" y="241.0" width="6" height="8" rx="1" fill="url(#windowGlow)" opacity="0.8791827333994129"/>
<rect x="208.8" y="241.0" width="6" height="8" rx="1" fill="url(#windowGlow)" opacity="0.7261379927518489"/>
<rect x="194.8" y="256.0" width="6" height="8" rx="1" fill="url(#windowGlow)" opacity="0.9880284231566024"/>
<rect x="199.8" y="284.0" width="10" height="16" rx="2" fill="url(#roof_navyRoof)" opacity="0.8"/>
<rect x="201.8" y="287.0" width="6" height="10" rx="1" fill="url(#windowGlow)" opacity="0.45"/>
<rect x="591.1" y="230.5" width="44.0" height="69.5" rx="3" fill="url(#bldg_teal)" opacity="1"/>
<rect x="591.1" y="227.5" width="44.0" height="3" rx="1" fill="url(#roof_navyRoof)" opacity="1"/>
<rect x="610.0" y="240.5" width="6" height="8" rx="1" fill="url(#windowGlow)" opacity="0.9370048132897376"/>
<rect x="610.0" y="255.5" width="6" height="8" rx="1" fill="url(#windowGlow)" opacity="0.9210088856616099"/>
<rect x="608.0" y="284.0" width="10" height="16" rx="2" fill="url(#roof_navyRoof)" opacity="0.8"/>
<rect x="610.0" y="287.0" width="6" height="10" rx="1" fill="url(#windowGlow)" opacity="0.45"/>
<path d="M613.0 254.8 L630.6 254.8 L627.6 260.8 L616.0 260.8 Z" fill="url(#roof_tealRoof)" opacity="0.8"/>
<rect x="605.3" y="256.5" width="15.4" height="5" rx="1" fill="#15803d" opacity="0.7"/>
<circle cx="608.3" cy="255.5" r="2.5" fill="#a78bfa" opacity="0.85"/>
<circle cx="613.5" cy="255.5" r="2.5" fill="#fb923c" opacity="0.85"/>
<circle cx="618.6" cy="255.5" r="2.5" fill="#fb923c" opacity="0.85"/>
<rect x="910.0" y="125.0" width="63.5" height="175.0" rx="3" fill="url(#bldg_amber)" opacity="1"/>
<rect x="922.7" y="104.0" width="38.1" height="21.0" rx="2" fill="url(#roof_coralRoof)" opacity="1"/>
<rect x="924.8" y="135.0" width="6" height="8" rx="1" fill="url(#windowGlow)" opacity="0.7875083839928304"/>
<rect x="938.8" y="135.0" width="6" height="8" rx="1" fill="url(#windowGlow)" opacity="0.9883791538366951"/>
<rect x="924.8" y="150.0" width="6" height="8" rx="1" fill="url(#windowGlow)" opacity="0.7181291299490858"/>
<rect x="938.8" y="150.0" width="6" height="8" rx="1" fill="url(#windowGlow)" opacity="0.8700234594149624"/>
<rect x="952.8" y="150.0" width="6" height="8" rx="1" fill="url(#windowGlow)" opacity="0.763662994729198"/>
<rect x="924.8" y="165.0" width="6" height="8" rx="1" fill="url(#windowGlow)" opacity="0.931661436768091"/>
<rect x="938.8" y="165.0" width="6" height="8" rx="1" fill="url(#windowGlow)" opacity="0.806736388712533"/>
<rect x="952.8" y="165.0" width="6" height="8" rx="1" fill="url(#windowGlow)" opacity="0.7112841708172504"/>
<rect x="924.8" y="180.0" width="6" height="8" rx="1" fill="url(#windowGlow)" opacity="0.8615389843757911"/>
<rect x="924.8" y="195.0" width="6" height="8" rx="1" fill="url(#windowGlow)" opacity="0.7654194812129342"/>
<rect x="952.8" y="195.0" width="6" height="8" rx="1" fill="url(#windowGlow)" opacity="0.7058590615195497"/>
<rect x="924.8" y="210.0" width="6" height="8" rx="1" fill="url(#windowGlow)" opacity="0.9338251045131241"/>
<rect x="938.8" y="210.0" width="6" height="8" rx="1" fill="url(#windowGlow)" opacity="0.7114944525116562"/>
<rect x="952.8" y="210.0" width="6" height="8" rx="1" fill="url(#windowGlow)" opacity="0.7391574221845517"/>
<rect x="938.8" y="225.0" width="6" height="8" rx="1" fill="url(#windowGlow)" opacity="0.7842831057423181"/>
<rect x="952.8" y="225.0" width="6" height="8" rx="1" fill="url(#windowGlow)" opacity="0.7923692386561861"/>
<rect x="924.8" y="240.0" width="6" height="8" rx="1" fill="url(#windowGlow)" opacity="0.7047487022842972"/>
<rect x="938.8" y="240.0" width="6" height="8" rx="1" fill="url(#windowGlow)" opacity="0.8143052207372641"/>
<rect x="952.8" y="240.0" width="6" height="8" rx="1" fill="url(#windowGlow)" opacity="0.8689801865578536"/>
<rect x="936.8" y="284.0" width="10" height="16" rx="2" fill="url(#roof_navyRoof)" opacity="0.8"/>
<rect x="938.8" y="287.0" width="6" height="10" rx="1" fill="url(#windowGlow)" opacity="0.45"/>
<path d="M916.4 186.2 L941.8 186.2 L938.8 192.2 L919.4 192.2 Z" fill="url(#roof_navyRoof)" opacity="0.8"/>
<rect x="407.6" y="263.8" width="6" height="21.2" rx="2" fill="#15803d"/>
<circle cx="410.6" cy="252.5" r="15.4" fill="#22c55e" opacity="0.9"/>
<circle cx="403.7" cy="255.5" r="11.5" fill="#16a34a" opacity="0.8"/>
<circle cx="417.0" cy="256.5" r="10.8" fill="#15803d" opacity="0.7"/>
<rect x="769.5" y="267.5" width="6" height="17.5" rx="2" fill="#15803d"/>
<circle cx="772.5" cy="254.1" r="17.3" fill="#22c55e" opacity="0.9"/>
<circle cx="765.4" cy="257.1" r="13.0" fill="#16a34a" opacity="0.8"/>
<circle cx="778.0" cy="258.1" r="12.1" fill="#15803d" opacity="0.7"/>
<rect x="127.4" y="268.6" width="6" height="16.4" rx="2" fill="#15803d"/>
<circle cx="130.4" cy="254.7" r="17.9" fill="#22c55e" opacity="0.9"/>
<circle cx="123.6" cy="257.7" r="13.4" fill="#16a34a" opacity="0.8"/>
<circle cx="136.1" cy="258.7" r="12.5" fill="#15803d" opacity="0.7"/>
<rect x="991.1" y="267.1" width="6" height="17.9" rx="2" fill="#15803d"/>
<circle cx="994.1" cy="257.1" r="14.0" fill="#22c55e" opacity="0.9"/>
<circle cx="986.0" cy="260.1" r="10.5" fill="#16a34a" opacity="0.8"/>
<circle cx="1001.7" cy="261.1" r="9.8" fill="#15803d" opacity="0.7"/>
<rect x="660.9" y="263.3" width="6" height="21.7" rx="2" fill="#15803d"/>
<circle cx="663.9" cy="252.8" r="14.6" fill="#22c55e" opacity="0.9"/>
<circle cx="655.7" cy="255.8" r="10.9" fill="#16a34a" opacity="0.8"/>
<circle cx="669.3" cy="256.8" r="10.2" fill="#15803d" opacity="0.7"/>
<rect x="902.5" y="268.6" width="6" height="16.4" rx="2" fill="#15803d"/>
<circle cx="905.5" cy="259.1" r="13.5" fill="#22c55e" opacity="0.9"/>
<circle cx="897.2" cy="262.1" r="10.1" fill="#16a34a" opacity="0.8"/>
<circle cx="912.8" cy="263.1" r="9.4" fill="#15803d" opacity="0.7"/>
<rect x="0" y="282" width="1200" height="18" fill="url(#groundGrad)"/>
<line x1="915.7" y1="282.0" x2="915.7" y2="252.0" stroke="#92400e" stroke-width="2"/>
<circle cx="915.7" cy="252.0" r="4" fill="#fef08a" opacity="0.6"/>
<circle cx="915.7" cy="252.0" r="8" fill="#fef08a" opacity="0.15" filter="url(#softGlow)"/>
<line x1="1115.1" y1="282.0" x2="1115.1" y2="248.7" stroke="#92400e" stroke-width="2"/>
<circle cx="1115.1" cy="248.7" r="4" fill="#fef08a" opacity="0.6"/>
<circle cx="1115.1" cy="248.7" r="8" fill="#fef08a" opacity="0.15" filter="url(#softGlow)"/>
<ellipse cx="489.5" cy="282.0" rx="4.8" ry="3.4" fill="#22c55e" opacity="0.6"/>
<ellipse cx="36.0" cy="282.0" rx="6.3" ry="4.4" fill="#22c55e" opacity="0.6"/>
<ellipse cx="876.1" cy="282.0" rx="4.8" ry="3.4" fill="#22c55e" opacity="0.6"/>
<ellipse cx="335.9" cy="282.0" rx="4.3" ry="3.0" fill="#22c55e" opacity="0.6"/>
</svg>