<svg xmlns="http://www.w3.org/2000/svg" viewBox="0 0 1200 300" width="1200" height="300">
<rect width="1200" height="300" fill="#e6eef4"/>
<path d="M0 300 L0 210.0 C350.7 173.4, 847.6 184.1, 1200 210.0 L1200 300 Z" fill="#b5cad8" opacity="0.3"/>
<rect x="132.9" y="189.7" width="70.6" height="110.3" fill="#99b6c9"/>
<rect x="395.7" y="175.4" width="83.5" height="124.6" fill="#99b6c9"/>
<rect x="690.1" y="240.6" width="60.8" height="59.4" fill="#99b6c9"/>
<rect x="991.4" y="202.8" width="77.5" height="97.2" fill="#99b6c9"/>
<rect x="148.1" y="202.3" width="45.2" height="97.7" fill="#6a95b1"/>
<rect x="160.7" y="230.3" width="6" height="8" fill="#9ebacc" opacity="0.5"/>
<rect x="174.7" y="230.3" width="6" height="8" fill="#9ebacc" opacity="0.5"/>
<rect x="174.7" y="246.3" width="6" height="8" fill="#9ebacc" opacity="0.5"/>
<rect x="160.7" y="262.3" width="6" height="8" fill="#9ebacc" opacity="0.5"/>
<rect x="174.7" y="262.3" width="6" height="8" fill="#9ebacc" opacity="0.5"/>
<rect x="308.7" y="187.2" width="79.2" height="112.8" fill="#6a95b1"/>
<rect x="324.3" y="199.2" width="6" height="8" fill="#9ebacc" opacity="0.5"/>
<rect x="338.3" y="199.2" width="6" height="8" fill="#9ebacc" opacity="0.5"/>
<rect x="352.3" y="199.2" width="6" height="8" fill="#9ebacc" opacity="0.5"/>
<rect x="366.3" y="199.2" width="6" height="8" fill="#9ebacc" opacity="0.5"/>
<rect x="324.3" y="215.2" width="6" height="8" fill="#9ebacc" opacity="0.5"/>
<rect x="338.3" y="215.2" width="6" height="8" fill="#9ebacc" opacity="0.5"/>
<rect x="366.3" y="215.2" width="6" height="8" fill="#9ebacc" opacity="0.5"/>
<rect x="338.3" y="231.2" width="6" height="8" fill="#9ebacc" opacity="0.5"/>
<rect x="352.3" y="231.2" width="6" height="8" fill="#9ebacc" opacity="0.5"/>
<rect x="366.3" y="231.2" width="6" height="8" fill="#9ebacc" opacity="0.5"/>
<rect x="324.3" y="247.2" width="6" height="8" fill="#9ebacc" opacity="0.5"/>
<rect x="338.3" y="247.2" width="6" height="8" fill="#9ebacc" opacity="0.5"/>
<rect x="352.3" y="247.2" width="6" height="8" fill="#9ebacc" opacity="0.5"/>
<rect x="324.3" y="263.2" width="6" height="8" fill="#9ebacc" opacity="0.5"/>
<rect x="338.3" y="263.2" width="6" height="8" fill="#9ebacc" opacity="0.5"/>
<rect x="352.3" y="263.2" width="6" height="8" fill="#9ebacc" opacity="0.5"/>
<rect x="366.3" y="263.2" width="6" height="8" fill="#9ebacc" opacity="0.5"/>
<rect x="573.9" y="196.4" width="65.4" height="103.6" fill="#6a95b1"/>
<rect x="589.5" y="208.4" width="6" height="8" fill="#9ebacc" opacity="0.5"/>
<rect x="603.5" y="208.4" width="6" height="8" fill="#9ebacc" opacity="0.5"/>
<rect x="617.5" y="208.4" width="6" height="8" fill="#9ebacc" opacity="0.5"/>
<rect x="589.5" y="224.4" width="6" height="8" fill="#9ebacc" opacity="0.5"/>
<rect x="603.5" y="224.4" width="6" height="8" fill="#9ebacc" opacity="0.5"/>
<rect x="589.5" y="240.4" width="6" height="8" fill="#9ebacc" opacity="0.5"/>
<rect x="617.5" y="240.4" width="6" height="8" fill="#9ebacc" opacity="0.5"/>
<rect x="603.5" y="256.4" width="6" height="8" fill="#9ebacc" opacity="0.5"/>
<rect x="589.5" y="272.4" width="6" height="8" fill="#9ebacc" opacity="0.5"/>
<rect x="603.5" y="272.4" width="6" height="8" fill="#9ebacc" opacity="0.5"/>
<rect x="617.5" y="272.4" width="6" height="8" fill="#9ebacc" opacity="0.5"/>
<rect x="800.1" y="149.5" width="42.9" height="150.5" fill="#6a95b1"/>
<rect x="818.5" y="161.5" width="6" height="8" fill="#9ebacc" opacity="0.5"/>
<rect x="818.5" y="177.5" width="6" height="8" fill="#9ebacc" opacity="0.5"/>
<rect x="818.5" y="193.5" width="6" height="8" fill="#9ebacc" opacity="0.5"/>
<rect x="818.5" y="209.5" width="6" height="8" fill="#9ebacc" opacity="0.5"/>
<rect x="818.5" y="225.5" width="6" height="8" fill="#9ebacc" opacity="0.5"/>
<rect x="818.5" y="273.5" width="6" height="8" fill="#9ebacc" opacity="0.5"/>
<rect x="1031.7" y="186.9" width="64.3" height="113.1" fill="#6a95b1"/>
<rect x="1046.8" y="198.9" width="6" height="8" fill="#9ebacc" opacity="0.5"/>
<rect x="1060.8" y="198.9" width="6" height="8" fill="#9ebacc" opacity="0.5"/>
<rect x="1060.8" y="214.9" width="6" height="8" fill="#9ebacc" opacity="0.5"/>
<rect x="1074.8" y="214.9" width="6" height="8" fill="#9ebacc" opacity="0.5"/>
<rect x="1046.8" y="230.9" width="6" height="8" fill="#9ebacc" opacity="0.5"/>
<rect x="1060.8" y="230.9" width="6" height="8" fill="#9ebacc" opacity="0.5"/>
<rect x="1074.8" y="230.9" width="6" height="8" fill="#9ebacc" opacity="0.5"/>
<rect x="1046.8" y="246.9" width="6" height="8" fill="#9ebacc" opacity="0.5"/>
<rect x="1046.8" y="262.9" width="6" height="8" fill="#9ebacc" opacity="0.5"/>
<rect x="1060.8" y="262.9" width="6" height="8" fill="#9ebacc" opacity="0.5"/>
<rect x="1074.8" y="262.9" width="6" height="8" fill="#9ebacc" opacity="0.5"/>
<rect x="178.1" y="222.2" width="62.6" height="77.8" fill="#457b9d"/>
<rect x="192.4" y="234.2" width="6" height="8" fill="#86a9bf" opacity="0.5"/>
<rect x="206.4" y="234.2" width="6" height="8" fill="#86a9bf" opacity="0.5"/>
<rect x="220.4" y="234.2" width="6" height="8" fill="#86a9bf" opacity="0.5"/>
<rect x="192.4" y="250.2" width="6" height="8" fill="#86a9bf" opacity="0.5"/>
<rect x="206.4" y="250.2" width="6" height="8" fill="#86a9bf" opacity="0.5"/>
<rect x="220.4" y="250.2" width="6" height="8" fill="#86a9bf" opacity="0.5"/>
<rect x="206.4" y="266.2" width="6" height="8" fill="#86a9bf" opacity="0.5"/>
<rect x="220.4" y="266.2" width="6" height="8" fill="#86a9bf" opacity="0.5"/>
<rect x="472.5" y="225.5" width="46.5" height="74.5" fill="#457b9d"/>
<rect x="499.8" y="237.5" width="6" height="8" fill="#86a9bf" opacity="0.5"/>
<rect x="499.8" y="253.5" width="6" height="8" fill="#86a9bf" opacity="0.5"/>
<rect x="485.8" y="269.5" width="6" height="8" fill="#86a9bf" opacity="0.5"/>
<rect x="499.8" y="269.5" width="6" height="8" fill="#86a9bf" opacity="0.5"/>
<rect x="760.5" y="170.4" width="30.6" height="129.6" fill="#457b9d"/>
<rect x="772.8" y="182.4" width="6" height="8" fill="#86a9bf" opacity="0.5"/>
<rect x="772.8" y="198.4" width="6" height="8" fill="#86a9bf" opacity="0.5"/>
<rect x="772.8" y="214.4" width="6" height="8" fill="#86a9bf" opacity="0.5"/>
<rect x="772.8" y="246.4" width="6" height="8" fill="#86a9bf" opacity="0.5"/>
<rect x="772.8" y="262.4" width="6" height="8" fill="#86a9bf" opacity="0.5"/>
<rect x="1000.5" y="136.1" width="70.0" height="163.9" fill="#457b9d"/>
<rect x="1018.5" y="148.1" width="6" height="8" fill="#86a9bf" opacity="0.5"/>
<rect x="1032.5" y="148.1" width="6" height="8" fill="#86a9bf" opacity="0.5"/>
<rect x="1046.5" y="148.1" width="6" height="8" fill="#86a9bf" opacity="0.5"/>
<rect x="1032.5" y="164.1" width="6" height="8" fill="#86a9bf" opacity="0.5"/>
<rect x="1046.5" y="164.1" width="6" height="8" fill="#86a9bf" opacity="0.5"/>
<rect x="1018.5" y="180.1" width="6" height="8" fill="#86a9bf" opacity="0.5"/>
<rect x="1032.5" y="180.1" width="6" height="8" fill="#86a9bf" opacity="0.5"/>
<rect x="1046.5" y="180.1" width="6" height="8" fill="#86a9bf" opacity="0.5"/>
<rect x="1018.5" y="196.1" width="6" height="8" fill="#86a9bf" opacity="0.5"/>
<rect x="1032.5" y="196.1" width="6" height="8" fill="#86a9bf" opacity="0.5"/>
<rect x="1046.5" y="196.1" width="6" height="8" fill="#86a9bf" opacity="0.5"/>
<rect x="1032.5" y="212.1" width="6" height="8" fill="#86a9bf" opacity="0.5"/>
<rect x="1018.5" y="228.1" width="6" height="8" fill="#86a9bf" opacity="0.5"/>
<rect x="1032.5" y="228.1" width="6" height="8" fill="#86a9bf" opacity="0.5"/>
<rect x="1046.5" y="228.1" width="6" height="8" fill="#86a9bf" opacity="0.5"/>
<rect x="1018.5" y="244.1" width="6" height="8" fill="#86a9bf" opacity="0.5"/>
<rect x="1046.5" y="244.1" width="6" height="8" fill="#86a9bf" opacity="0.5"/>
<rect x="1018.5" y="260.1" width="6" height="8" fill="#86a9bf" opacity="0.5"/>
<rect x="1032.5" y="260.1" width="6" height="8" fill="#86a9bf" opacity="0.5"/>
<rect x="1046.5" y="260.1" width="6" height="8" fill="#86a9bf" opacity="0.5"/>
<rect x="0" y="298" width="1200" height="2" fill="#3e6f8d" opacity="0.15"/>
</svg>