<svg xmlns="http://www.w3.org/2000/svg" viewBox="0 0 1200 300" width="1200" height="300">
<rect width="1200" height="300" fill="#e8edf2"/>
<path d="M0 300 L0 210.0 C249.5 168.0, 943.6 181.0, 1200 210.0 L1200 300 Z" fill="#b1bdcc" opacity="0.3"/>
<rect x="165.5" y="173.4" width="68.6" height="126.6" fill="#94a4b9"/>
<rect x="446.1" y="240.4" width="77.8" height="59.6" fill="#94a4b9"/>
<rect x="734.2" y="231.7" width="55.2" height="68.3" fill="#94a4b9"/>
<rect x="979.1" y="210.9" width="45.9" height="89.1" fill="#94a4b9"/>
<rect x="109.2" y="202.8" width="54.4" height="97.2" fill="#647b99"/>
<rect x="126.4" y="230.8" width="6" height="8" fill="#9aa9bd" opacity="0.5"/>
<rect x="140.4" y="230.8" width="6" height="8" fill="#9aa9bd" opacity="0.5"/>
<rect x="126.4" y="246.8" width="6" height="8" fill="#9aa9bd" opacity="0.5"/>
<rect x="126.4" y="262.8" width="6" height="8" fill="#9aa9bd" opacity="0.5"/>
<rect x="329.6" y="180.6" width="58.2" height="119.4" fill="#647b99"/>
<rect x="341.7" y="192.6" width="6" height="8" fill="#9aa9bd" opacity="0.5"/>
<rect x="369.7" y="192.6" width="6" height="8" fill="#9aa9bd" opacity="0.5"/>
<rect x="341.7" y="208.6" width="6" height="8" fill="#9aa9bd" opacity="0.5"/>
<rect x="355.7" y="208.6" width="6" height="8" fill="#9aa9bd" opacity="0.5"/>
<rect x="341.7" y="224.6" width="6" height="8" fill="#9aa9bd" opacity="0.5"/>
<rect x="369.7" y="224.6" width="6" height="8" fill="#9aa9bd" opacity="0.5"/>
<rect x="341.7" y="240.6" width="6" height="8" fill="#9aa9bd" opacity="0.5"/>
<rect x="355.7" y="240.6" width="6" height="8" fill="#9aa9bd" opacity="0.5"/>
<rect x="369.7" y="240.6" width="6" height="8" fill="#9aa9bd" opacity="0.5"/>
<rect x="341.7" y="256.6" width="6" height="8" fill="#9aa9bd" opacity="0.5"/>
<rect x="355.7" y="256.6" width="6" height="8" fill="#9aa9bd" opacity="0.5"/>
<rect x="369.7" y="256.6" width="6" height="8" fill="#9aa9bd" opacity="0.5"/>
<rect x="341.7" y="272.6" width="6" height="8" fill="#9aa9bd" opacity="0.5"/>
<rect x="572.4" y="163.4" width="55.2" height="136.6" fill="#647b99"/>
<rect x="590.1" y="175.4" width="6" height="8" fill="#9aa9bd" opacity="0.5"/>
<rect x="604.1" y="175.4" width="6" height="8" fill="#9aa9bd" opacity="0.5"/>
<rect x="590.1" y="191.4" width="6" height="8" fill="#9aa9bd" opacity="0.5"/>
<rect x="590.1" y="207.4" width="6" height="8" fill="#9aa9bd" opacity="0.5"/>
<rect x="590.1" y="223.4" width="6" height="8" fill="#9aa9bd" opacity="0.5"/>
<rect x="604.1" y="223.4" width="6" height="8" fill="#9aa9bd" opacity="0.5"/>
<rect x="590.1" y="239.4" width="6" height="8" fill="#9aa9bd" opacity="0.5"/>
<rect x="604.1" y="239.4" width="6" height="8" fill="#9aa9bd" opacity="0.5"/>
<rect x="604.1" y="255.4" width="6" height="8" fill="#9aa9bd" opacity="0.5"/>
<rect x="820.8" y="187.0" width="55.6" height="113.0" fill="#647b99"/>
<rect x="838.6" y="199.0" width="6" height="8" fill="#9aa9bd" opacity="0.5"/>
<rect x="852.6" y="199.0" width="6" height="8" fill="#9aa9bd" opacity="0.5"/>
<rect x="852.6" y="215.0" width="6" height="8" fill="#9aa9bd" opacity="0.5"/>
<rect x="838.6" y="263.0" width="6" height="8" fill="#9aa9bd" opacity="0.5"/>
<rect x="852.6" y="263.0" width="6" height="8" fill="#9aa9bd" opacity="0.5"/>
<rect x="999.4" y="161.1" width="78.1" height="138.9" fill="#647b99"/>
<rect x="1028.4" y="173.1" width="6" height="8" fill="#9aa9bd" opacity="0.5"/>
<rect x="1042.4" y="173.1" width="6" height="8" fill="#9aa9bd" opacity="0.5"/>
<rect x="1056.4" y="173.1" width="6" height="8" fill="#9aa9bd" opacity="0.5"/>
<rect x="1028.4" y="189.1" width="6" height="8" fill="#9aa9bd" opacity="0.5"/>
<rect x="1042.4" y="189.1" width="6" height="8" fill="#9aa9bd" opacity="0.5"/>
<rect x="1056.4" y="189.1" width="6" height="8" fill="#9aa9bd" opacity="0.5"/>
<rect x="1014.4" y="205.1" width="6" height="8" fill="#9aa9bd" opacity="0.5"/>
<rect x="1028.4" y="205.1" width="6" height="8" fill="#9aa9bd" opacity="0.5"/>
<rect x="1042.4" y="205.1" width="6" height="8" fill="#9aa9bd" opacity="0.5"/>
<rect x="1056.4" y="205.1" width="6" height="8" fill="#9aa9bd" opacity="0.5"/>
<rect x="1014.4" y="221.1" width="6" height="8" fill="#9aa9bd" opacity="0.5"/>
<rect x="1028.4" y="221.1" width="6" height="8" fill="#9aa9bd" opacity="0.5"/>
<rect x="1042.4" y="221.1" width="6" height="8" fill="#9aa9bd" opacity="0.5"/>
<rect x="1014.4" y="237.1" width="6" height="8" fill="#9aa9bd" opacity="0.5"/>
<rect x="1042.4" y="237.1" width="6" height="8" fill="#9aa9bd" opacity="0.5"/>
<rect x="1014.4" y="253.1" width="6" height="8" fill="#9aa9bd" opacity="0.5"/>
<rect x="1042.4" y="253.1" width="6" height="8" fill="#9aa9bd" opacity="0.5"/>
<rect x="1014.4" y="269.1" width="6" height="8" fill="#9aa9bd" opacity="0.5"/>
<rect x="1028.4" y="269.1" width="6" height="8" fill="#9aa9bd" opacity="0.5"/>
<rect x="108.5" y="227.2" width="42.0" height="72.8" fill="#3d5a80"/>
<rect x="126.5" y="239.2" width="6" height="8" fill="#8194ac" opacity="0.5"/>
<rect x="126.5" y="255.2" width="6" height="8" fill="#8194ac" opacity="0.5"/>
<rect x="126.5" y="271.2" width="6" height="8" fill="#8194ac" opacity="0.5"/>
<rect x="333.9" y="236.6" width="59.5" height="63.4" fill="#3d5a80"/>
<rect x="346.7" y="248.6" width="6" height="8" fill="#8194ac" opacity="0.5"/>
<rect x="374.7" y="248.6" width="6" height="8" fill="#8194ac" opacity="0.5"/>
<rect x="346.7" y="264.6" width="6" height="8" fill="#8194ac" opacity="0.5"/>
<rect x="360.7" y="264.6" width="6" height="8" fill="#8194ac" opacity="0.5"/>
<rect x="588.3" y="154.8" width="52.0" height="145.2" fill="#3d5a80"/>
<rect x="604.3" y="166.8" width="6" height="8" fill="#8194ac" opacity="0.5"/>
<rect x="618.3" y="166.8" width="6" height="8" fill="#8194ac" opacity="0.5"/>
<rect x="604.3" y="182.8" width="6" height="8" fill="#8194ac" opacity="0.5"/>
<rect x="618.3" y="182.8" width="6" height="8" fill="#8194ac" opacity="0.5"/>
<rect x="604.3" y="198.8" width="6" height="8" fill="#8194ac" opacity="0.5"/>
<rect x="618.3" y="198.8" width="6" height="8" fill="#8194ac" opacity="0.5"/>
<rect x="604.3" y="214.8" width="6" height="8" fill="#8194ac" opacity="0.5"/>
<rect x="604.3" y="230.8" width="6" height="8" fill="#8194ac" opacity="0.5"/>
<rect x="618.3" y="230.8" width="6" height="8" fill="#8194ac" opacity="0.5"/>
<rect x="604.3" y="246.8" width="6" height="8" fill="#8194ac" opacity="0.5"/>
<rect x="618.3" y="246.8" width="6" height="8" fill="#8194ac" opacity="0.5"/>
<rect x="604.3" y="262.8" width="6" height="8" fill="#8194ac" opacity="0.5"/>
<rect x="618.3" y="262.8" width="6" height="8" fill="#8194ac" opacity="0.5"/>
<rect x="818.4" y="112.7" width="52.5" height="187.3" fill="#3d5a80"/>
<rect x="834.7" y="124.7" width="6" height="8" fill="#8194ac" opacity="0.5"/>
<rect x="848.7" y="124.7" width="6" height="8" fill="#8194ac" opacity="0.5"/>
<rect x="848.7" y="140.7" width="6" height="8" fill="#8194ac" opacity="0.5"/>
<rect x="834.7" y="156.7" width="6" height="8" fill="#8194ac" opacity="0.5"/>
<rect x="848.7" y="172.7" width="6" height="8" fill="#8194ac" opacity="0.5"/>
<rect x="848.7" y="188.7" width="6" height="8" fill="#8194ac" opacity="0.5"/>
<rect x="834.7" y="204.7" width="6" height="8" fill="#8194ac" opacity="0.5"/>
<rect x="848.7" y="204.7" width="6" height="8" fill="#8194ac" opacity="0.5"/>
<rect x="834.7" y="220.7" width="6" height="8" fill="#8194ac" opacity="0.5"/>
<rect x="848.7" y="220.7" width="6" height="8" fill="#8194ac" opacity="0.5"/>
<rect x="834.7" y="236.7" width="6" height="8" fill="#8194ac" opacity="0.5"/>
<rect x="848.7" y="236.7" width="6" height="8" fill="#8194ac" opacity="0.5"/>
<rect x="848.7" y="252.7" width="6" height="8" fill="#8194ac" opacity="0.5"/>
<rect x="834.7" y="268.7" width="6" height="8" fill="#8194ac" opacity="0.5"/>
<rect x="848.7" y="268.7" width="6" height="8" fill="#8194ac" opacity="0.5"/>
<rect x="1055.8" y="185.9" width="60.8" height="114.1" fill="#3d5a80"/>
<rect x="1069.2" y="197.9" width="6" height="8" fill="#8194ac" opacity="0.5"/>
<rect x="1083.2" y="197.9" width="6" height="8" fill="#8194ac" opacity="0.5"/>
<rect x="1083.2" y="213.9" width="6" height="8" fill="#8194ac" opacity="0.5"/>
<rect x="1097.2" y="213.9" width="6" height="8" fill="#8194ac" opacity="0.5"/>
<rect x="1069.2" y="229.9" width="6" height="8" fill="#8194ac" opacity="0.5"/>
<rect x="1083.2" y="229.9" width="6" height="8" fill="#8194ac" opacity="0.5"/>
<rect x="1097.2" y="229.9" width="6" height="8" fill="#8194ac" opacity="0.5"/>
<rect x="1069.2" y="245.9" width="6" height="8" fill="#8194ac" opacity="0.5"/>
<rect x="1083.2" y="245.9" width="6" height="8" fill="#8194ac" opacity="0.5"/>
<rect x="1097.2" y="245.9" width="6" height="8" fill="#8194ac" opacity="0.5"/>
<rect x="1069.2" y="261.9" width="6" height="8" fill="#8194ac" opacity="0.5"/>
<rect x="1083.2" y="261.9" width="6" height="8" fill="#8194ac" opacity="0.5"/>
<rect x="1097.2" y="261.9" width="6" height="8" fill="#8194ac" opacity="0.5"/>
<rect x="0" y="298" width="1200" height="2" fill="#375173" opacity="0.15"/>
</svg>