<svg xmlns="http://www.w3.org/2000/svg" viewBox="0 0 1200 300" width="1200" height="300">
<defs>
<linearGradient id="skyGrad" x1="0" y1="0" x2="0" y2="1">
<stop offset="0%" stop-color="#a78bfa"/>
<stop offset="18%" stop-color="#ddb4f0"/>
<stop offset="35%" stop-color="#fda4af"/>
<stop offset="52%" stop-color="#fdba74"/>
<stop offset="72%" stop-color="#fef08a"/>
<stop offset="100%" stop-color="#fef9c3"/>
</linearGradient>
<linearGradient id="bldg_coral" x1="0" y1="0" x2="0" y2="1"><stop offset="0%" stop-color="#fecaca"/><stop offset="100%" stop-color="#fca5a5"/></linearGradient>
<linearGradient id="bldg_teal" x1="0" y1="0" x2="0" y2="1"><stop offset="0%" stop-color="#99f6e4"/><stop offset="100%" stop-color="#5eead4"/></linearGradient>
<linearGradient id="bldg_amber" x1="0" y1="0" x2="0" y2="1"><stop offset="0%" stop-color="#fde68a"/><stop offset="100%" stop-color="#fcd34d"/></linearGradient>
<linearGradient id="bldg_lavender" x1="0" y1="0" x2="0" y2="1"><stop offset="0%" stop-color="#ddd6fe"/><stop offset="100%" stop-color="#c4b5fd"/></linearGradient>
<linearGradient id="bldg_blue" x1="0" y1="0" x2="0" y2="1"><stop offset="0%" stop-color="#bfdbfe"/><stop offset="100%" stop-color="#93c5fd"/></linearGradient>
<linearGradient id="bldg_mint" x1="0" y1="0" x2="0" y2="1"><stop offset="0%" stop-color="#a7f3d0"/><stop offset="100%" stop-color="#6ee7b7"/></linearGradient>
<linearGradient id="bldg_rose" x1="0" y1="0" x2="0" y2="1"><stop offset="0%" stop-color="#fecdd3"/><stop offset="100%" stop-color="#fda4af"/></linearGradient>
<linearGradient id="bldg_sky" x1="0" y1="0" x2="0" y2="1"><stop offset="0%" stop-color="#bae6fd"/><stop offset="100%" stop-color="#7dd3fc"/></linearGradient>
<linearGradient id="roof_navyRoof" x1="0" y1="0" x2="0" y2="1"><stop offset="0%" stop-color="#4338ca"/><stop offset="100%" stop-color="#3730a3"/></linearGradient>
<linearGradient id="roof_coralRoof" x1="0" y1="0" x2="0" y2="1"><stop offset="0%" stop-color="#f87171"/><stop offset="100%" stop-color="#ef4444"/></linearGradient>
<linearGradient id="roof_tealRoof" x1="0" y1="0" x2="0" y2="1"><stop offset="0%" stop-color="#2dd4bf"/><stop offset="100%" stop-color="#14b8a6"/></linearGradient>
<radialGradient id="windowGlow" cx="50%" cy="50%" r="50%"><stop offset="0%" stop-color="#fef08a"/><stop offset="60%" stop-color="#fbbf24"/><stop offset="100%" stop-color="#f59e0b"/></radialGradient>
<linearGradient id="hillFar" x1="0" y1="0" x2="0" y2="1"><stop offset="0%" stop-color="#c4b5fd"/><stop offset="100%" stop-color="#a5b4fc"/></linearGradient>
<linearGradient id="hillMid" x1="0" y1="0" x2="0" y2="1"><stop offset="0%" stop-color="#86efac"/><stop offset="100%" stop-color="#4ade80"/></linearGradient>
<linearGradient id="hillNear" x1="0" y1="0" x2="0" y2="1"><stop offset="0%" stop-color="#34d399"/><stop offset="100%" stop-color="#10b981"/></linearGradient>
<linearGradient id="hillDesertFar" x1="0" y1="0" x2="0" y2="1"><stop offset="0%" stop-color="#fde68a"/><stop offset="100%" stop-color="#fcd34d"/></linearGradient>
<linearGradient id="hillDesertMid" x1="0" y1="0" x2="0" y2="1"><stop offset="0%" stop-color="#fcd34d"/><stop offset="100%" stop-color="#fbbf24"/></linearGradient>
<linearGradient id="hillDesertNear" x1="0" y1="0" x2="0" y2="1"><stop offset="0%" stop-color="#fbbf24"/><stop offset="100%" stop-color="#f59e0b"/></linearGradient>
<linearGradient id="groundGrad" x1="0" y1="0" x2="0" y2="1"><stop offset="0%" stop-color="#fef3c7"/><stop offset="100%" stop-color="#fde68a"/></linearGradient>
<linearGradient id="waterGrad" x1="0" y1="0" x2="0" y2="1"><stop offset="0%" stop-color="#bfdbfe"/><stop offset="100%" stop-color="#93c5fd"/></linearGradient>
<filter id="softGlow" x="-50%" y="-50%" width="200%" height="200%"><feGaussianBlur in="SourceGraphic" stdDeviation="12"/></filter>
</defs>
<rect width="1200" height="300" fill="url(#skyGrad)"/>
<circle cx="1078.1" cy="42.2" r="45" fill="#fef08a" opacity="0.12" filter="url(#softGlow)"/>
<circle cx="1078.1" cy="42.2" r="30" fill="#fde68a" opacity="0.18" filter="url(#softGlow)"/>
<circle cx="1078.1" cy="42.2" r="16" fill="#fef9c3" opacity="0.25" filter="url(#softGlow)"/>
<path d="M0 300 L0.0 185.8 C185.1 185.8, 185.1 193.4, 370.2 193.4 C572.5 193.4, 572.5 173.4, 774.7 173.4 C987.4 173.4, 987.4 187.3, 1200.0 187.3 L1200 300 Z" fill="url(#hillFar)" opacity="0.5"/>
<path d="M0 300 L0.0 209.5 C221.9 209.5, 221.9 207.5, 443.9 207.5 C622.5 207.5, 622.5 212.5, 801.0 212.5 C1000.5 212.5, 1000.5 207.4, 1200.0 207.4 L1200 300 Z" fill="url(#hillMid)" opacity="0.7"/>
<path d="M0 300 L0.0 236.4 C156.3 236.4, 156.3 229.5, 312.6 229.5 C507.2 229.5, 507.2 233.4, 701.8 233.4 C950.9 233.4, 950.9 233.5, 1200.0 233.5 L1200 300 Z" fill="url(#hillNear)" opacity="1"/>
<rect x="243.7" y="206.1" width="55.7" height="93.9" rx="3" fill="url(#bldg_amber)" opacity="0.7"/>
<polygon points="243.7,206.1 271.5,186.7 299.4,206.1" fill="url(#roof_coralRoof)" opacity="0.7"/>
<rect x="261.5" y="216.1" width="6" height="8" rx="1" fill="url(#windowGlow)" opacity="0.9806815708897456"/>
<rect x="275.5" y="216.1" width="6" height="8" rx="1" fill="url(#windowGlow)" opacity="0.7866771907483586"/>
<rect x="261.5" y="231.1" width="6" height="8" rx="1" fill="url(#windowGlow)" opacity="0.9814830780874393"/>
<rect x="275.5" y="231.1" width="6" height="8" rx="1" fill="url(#windowGlow)" opacity="0.7090926996008924"/>
<rect x="261.5" y="246.1" width="6" height="8" rx="1" fill="url(#windowGlow)" opacity="0.766663957185421"/>
<rect x="275.5" y="246.1" width="6" height="8" rx="1" fill="url(#windowGlow)" opacity="0.889903937042646"/>
<rect x="583.7" y="238.3" width="59.3" height="61.7" rx="3" fill="url(#bldg_lavender)" opacity="0.7"/>
<rect x="595.6" y="230.9" width="35.6" height="7.4" rx="2" fill="url(#roof_tealRoof)" opacity="0.7"/>
<rect x="596.4" y="248.3" width="6" height="8" rx="1" fill="url(#windowGlow)" opacity="0.8515471105238176"/>
<rect x="610.4" y="248.3" width="6" height="8" rx="1" fill="url(#windowGlow)" opacity="0.8800143942143834"/>
<rect x="624.4" y="248.3" width="6" height="8" rx="1" fill="url(#windowGlow)" opacity="0.784335269259445"/>
<rect x="947.6" y="211.6" width="68.0" height="88.4" rx="3" fill="url(#bldg_blue)" opacity="0.7"/>
<rect x="947.6" y="208.6" width="68.0" height="3" rx="1" fill="url(#roof_navyRoof)" opacity="0.7"/>
<rect x="992.7" y="221.6" width="6" height="8" rx="1" fill="url(#windowGlow)" opacity="0.875576914788958"/>
<rect x="964.7" y="236.6" width="6" height="8" rx="1" fill="url(#windowGlow)" opacity="0.9344337193921365"/>
<rect x="978.7" y="236.6" width="6" height="8" rx="1" fill="url(#windowGlow)" opacity="0.8302595143347324"/>
<rect x="992.7" y="236.6" width="6" height="8" rx="1" fill="url(#windowGlow)" opacity="0.9163350765203755"/>
<rect x="964.7" y="251.6" width="6" height="8" rx="1" fill="url(#windowGlow)" opacity="0.9690904345219444"/>
<rect x="978.7" y="251.6" width="6" height="8" rx="1" fill="url(#windowGlow)" opacity="0.8133608350592483"/>
<rect x="992.7" y="251.6" width="6" height="8" rx="1" fill="url(#windowGlow)" opacity="0.9191606537993814"/>
<rect x="221.8" y="167.9" width="79.1" height="132.1" rx="3" fill="url(#bldg_mint)" opacity="0.85"/>
<polygon points="221.8,167.9 261.4,145.2 300.9,167.9" fill="url(#roof_coralRoof)" opacity="0.85"/>
<rect x="251.4" y="177.9" width="6" height="8" rx="1" fill="url(#windowGlow)" opacity="0.8708299998058145"/>
<rect x="265.4" y="177.9" width="6" height="8" rx="1" fill="url(#windowGlow)" opacity="0.9656515426308157"/>
<rect x="279.4" y="177.9" width="6" height="8" rx="1" fill="url(#windowGlow)" opacity="0.8144307376418405"/>
<rect x="237.4" y="192.9" width="6" height="8" rx="1" fill="url(#windowGlow)" opacity="0.8524457801843275"/>
<rect x="279.4" y="192.9" width="6" height="8" rx="1" fill="url(#windowGlow)" opacity="0.8543674829203484"/>
<rect x="237.4" y="207.9" width="6" height="8" rx="1" fill="url(#windowGlow)" opacity="0.822009387389761"/>
<rect x="251.4" y="207.9" width="6" height="8" rx="1" fill="url(#windowGlow)" opacity="0.9976666794613314"/>
<rect x="265.4" y="207.9" width="6" height="8" rx="1" fill="url(#windowGlow)" opacity="0.8192216094207119"/>
<rect x="279.4" y="207.9" width="6" height="8" rx="1" fill="url(#windowGlow)" opacity="0.7571644125772474"/>
<rect x="237.4" y="222.9" width="6" height="8" rx="1" fill="url(#windowGlow)" opacity="0.7009866648358231"/>
<rect x="251.4" y="222.9" width="6" height="8" rx="1" fill="url(#windowGlow)" opacity="0.8959866267610279"/>
<rect x="265.4" y="222.9" width="6" height="8" rx="1" fill="url(#windowGlow)" opacity="0.8028254411662116"/>
<rect x="279.4" y="222.9" width="6" height="8" rx="1" fill="url(#windowGlow)" opacity="0.9301027412666485"/>
<rect x="237.4" y="237.9" width="6" height="8" rx="1" fill="url(#windowGlow)" opacity="0.9603374084738723"/>
<rect x="251.4" y="237.9" width="6" height="8" rx="1" fill="url(#windowGlow)" opacity="0.7395439125781618"/>
<rect x="265.4" y="237.9" width="6" height="8" rx="1" fill="url(#windowGlow)" opacity="0.8175868499640314"/>
<rect x="279.4" y="237.9" width="6" height="8" rx="1" fill="url(#windowGlow)" opacity="0.8981759837820082"/>
<rect x="237.4" y="252.9" width="6" height="8" rx="1" fill="url(#windowGlow)" opacity="0.7712312803935405"/>
<rect x="251.4" y="252.9" width="6" height="8" rx="1" fill="url(#windowGlow)" opacity="0.9439021204802682"/>
<path d="M229.7 214.2 L261.4 214.2 L258.4 220.2 L232.7 220.2 Z" fill="url(#roof_navyRoof)" opacity="0.68"/>
<rect x="569.6" y="235.4" width="51.7" height="64.6" rx="3" fill="url(#bldg_rose)" opacity="0.85"/>
<polygon points="569.6,235.4 595.4,223.6 621.3,235.4" fill="url(#roof_tealRoof)" opacity="0.85"/>
<rect x="585.4" y="245.4" width="6" height="8" rx="1" fill="url(#windowGlow)" opacity="0.8976595015254148"/>
<rect x="599.4" y="245.4" width="6" height="8" rx="1" fill="url(#windowGlow)" opacity="0.7309861461776244"/>
<rect x="585.4" y="260.4" width="6" height="8" rx="1" fill="url(#windowGlow)" opacity="0.8870230480036805"/>
<rect x="599.4" y="260.4" width="6" height="8" rx="1" fill="url(#windowGlow)" opacity="0.8722074309234541"/>
<rect x="996.7" y="169.8" width="41.7" height="130.2" rx="3" fill="url(#bldg_sky)" opacity="0.85"/>
<rect x="996.7" y="166.8" width="41.7" height="3" rx="1" fill="url(#roof_navyRoof)" opacity="0.85"/>
<rect x="1014.6" y="179.8" width="6" height="8" rx="1" fill="url(#windowGlow)" opacity="0.934707499311635"/>
<rect x="1014.6" y="194.8" width="6" height="8" rx="1" fill="url(#windowGlow)" opacity="0.8926838020760024"/>
<rect x="1014.6" y="209.8" width="6" height="8" rx="1" fill="url(#windowGlow)" opacity="0.8652125304402841"/>
<rect x="1014.6" y="224.8" width="6" height="8" rx="1" fill="url(#windowGlow)" opacity="0.9830943786926075"/>
<rect x="1014.6" y="254.8" width="6" height="8" rx="1" fill="url(#windowGlow)" opacity="0.8000070115551384"/>
<rect x="230.0" y="204.1" width="42.7" height="95.9" rx="3" fill="url(#bldg_coral)" opacity="1"/>
<rect x="230.0" y="201.1" width="42.7" height="3" rx="1" fill="url(#roof_coralRoof)" opacity="1"/>
<rect x="248.3" y="214.1" width="6" height="8" rx="1" fill="url(#windowGlow)" opacity="0.9189664241480484"/>
<rect x="248.3" y="229.1" width="6" height="8" rx="1" fill="url(#windowGlow)" opacity="0.8876781064493945"/>
<rect x="248.3" y="244.1" width="6" height="8" rx="1" fill="url(#windowGlow)" opacity="0.9975431504647914"/>
<rect x="248.3" y="259.1" width="6" height="8" rx="1" fill="url(#windowGlow)" opacity="0.9645029792396831"/>
<rect x="246.3" y="284.0" width="10" height="16" rx="2" fill="url(#roof_navyRoof)" opacity="0.8"/>
<rect x="248.3" y="287.0" width="6" height="10" rx="1" fill="url(#windowGlow)" opacity="0.45"/>
<rect x="573.6" y="152.1" width="66.0" height="147.9" rx="3" fill="url(#bldg_teal)" opacity="1"/>
<polygon points="573.6,152.1 606.6,130.4 639.6,152.1" fill="url(#roof_tealRoof)" opacity="1"/>
<rect x="589.6" y="162.1" width="6" height="8" rx="1" fill="url(#windowGlow)" opacity="0.9936527236335224"/>
<rect x="589.6" y="177.1" width="6" height="8" rx="1" fill="url(#windowGlow)" opacity="0.8790027816216474"/>
<rect x="603.6" y="177.1" width="6" height="8" rx="1" fill="url(#windowGlow)" opacity="0.9651923041628637"/>
<rect x="617.6" y="177.1" width="6" height="8" rx="1" fill="url(#windowGlow)" opacity="0.7200293803215163"/>
<rect x="589.6" y="192.1" width="6" height="8" rx="1" fill="url(#windowGlow)" opacity="0.8466926009611657"/>
<rect x="603.6" y="207.1" width="6" height="8" rx="1" fill="url(#windowGlow)" opacity="0.723125429741631"/>
<rect x="617.6" y="207.1" width="6" height="8" rx="1" fill="url(#windowGlow)" opacity="0.7053904315481849"/>
<rect x="589.6" y="222.1" width="6" height="8" rx="1" fill="url(#windowGlow)" opacity="0.9942113714731351"/>
<rect x="603.6" y="222.1" width="6" height="8" rx="1" fill="url(#windowGlow)" opacity="0.7062026564060723"/>
<rect x="617.6" y="222.1" width="6" height="8" rx="1" fill="url(#windowGlow)" opacity="0.7923448726033535"/>
<rect x="589.6" y="237.1" width="6" height="8" rx="1" fill="url(#windowGlow)" opacity="0.7287391023844196"/>
<rect x="603.6" y="237.1" width="6" height="8" rx="1" fill="url(#windowGlow)" opacity="0.8997898323460434"/>
<rect x="617.6" y="237.1" width="6" height="8" rx="1" fill="url(#windowGlow)" opacity="0.8799443782213816"/>
<rect x="589.6" y="252.1" width="6" height="8" rx="1" fill="url(#windowGlow)" opacity="0.9746089469988871"/>
<rect x="603.6" y="252.1" width="6" height="8" rx="1" fill="url(#windowGlow)" opacity="0.7900411380874184"/>
<rect x="617.6" y="252.1" width="6" height="8" rx="1" fill="url(#windowGlow)" opacity="0.853385878518869"/>
<rect x="601.6" y="284.0" width="10" height="16" rx="2" fill="url(#roof_navyRoof)" opacity="0.8"/>
<rect x="603.6" y="287.0" width="6" height="10" rx="1" fill="url(#windowGlow)" opacity="0.45"/>
<rect x="912.6" y="242.9" width="42.9" height="57.1" rx="3" fill="url(#bldg_amber)" opacity="1"/>
<rect x="912.6" y="239.9" width="42.9" height="3" rx="1" fill="url(#roof_navyRoof)" opacity="1"/>
<rect x="931.0" y="252.9" width="6" height="8" rx="1" fill="url(#windowGlow)" opacity="0.7867014119339647"/>
<rect x="929.0" y="284.0" width="10" height="16" rx="2" fill="url(#roof_navyRoof)" opacity="0.8"/>
<rect x="931.0" y="287.0" width="6" height="10" rx="1" fill="url(#windowGlow)" opacity="0.45"/>
<path d="M423.1 285.0 Q444.1 263.9 435.7 242.8" stroke="#92400e" stroke-width="4" fill="none" stroke-linecap="round"/>
<path d="M435.7 242.8 Q422.9 231.5 414.3 231.0" stroke="#16a34a" stroke-width="2.5" fill="none" stroke-linecap="round"/>
<path d="M435.7 242.8 Q441.2 231.3 444.9 230.6" stroke="#22c55e" stroke-width="2.5" fill="none" stroke-linecap="round"/>
<path d="M435.7 242.8 Q449.6 236.8 458.9 242.8" stroke="#15803d" stroke-width="2.5" fill="none" stroke-linecap="round"/>
<path d="M435.7 242.8 Q440.9 242.1 444.4 254.3" stroke="#4ade80" stroke-width="2.5" fill="none" stroke-linecap="round"/>
<path d="M435.7 242.8 Q421.8 242.6 412.6 255.5" stroke="#16a34a" stroke-width="2.5" fill="none" stroke-linecap="round"/>
<path d="M776.1 285.0 Q801.7 259.3 791.4 233.7" stroke="#92400e" stroke-width="4" fill="none" stroke-linecap="round"/>
<path d="M791.4 233.7 Q778.6 222.4 770.1 221.9" stroke="#16a34a" stroke-width="2.5" fill="none" stroke-linecap="round"/>
<path d="M791.4 233.7 Q797.4 221.7 801.4 220.5" stroke="#22c55e" stroke-width="2.5" fill="none" stroke-linecap="round"/>
<path d="M791.4 233.7 Q811.2 227.7 824.4 233.7" stroke="#15803d" stroke-width="2.5" fill="none" stroke-linecap="round"/>
<path d="M791.4 233.7 Q796.6 232.9 800.0 245.1" stroke="#4ade80" stroke-width="2.5" fill="none" stroke-linecap="round"/>
<path d="M791.4 233.7 Q781.7 231.8 775.2 242.7" stroke="#16a34a" stroke-width="2.5" fill="none" stroke-linecap="round"/>
<path d="M180.8 285.0 Q202.9 259.2 194.0 233.3" stroke="#92400e" stroke-width="4" fill="none" stroke-linecap="round"/>
<path d="M194.0 233.3 Q179.6 221.3 170.0 220.1" stroke="#16a34a" stroke-width="2.5" fill="none" stroke-linecap="round"/>
<path d="M194.0 233.3 Q200.8 220.5 205.3 218.4" stroke="#22c55e" stroke-width="2.5" fill="none" stroke-linecap="round"/>
<path d="M194.0 233.3 Q213.0 227.3 225.7 233.3" stroke="#15803d" stroke-width="2.5" fill="none" stroke-linecap="round"/>
<path d="M194.0 233.3 Q201.5 234.9 206.5 249.9" stroke="#4ade80" stroke-width="2.5" fill="none" stroke-linecap="round"/>
<path d="M194.0 233.3 Q181.7 232.5 173.5 244.6" stroke="#16a34a" stroke-width="2.5" fill="none" stroke-linecap="round"/>
<path d="M977.4 285.0 Q993.0 253.5 986.7 222.0" stroke="#92400e" stroke-width="4" fill="none" stroke-linecap="round"/>
<path d="M986.7 222.0 Q978.1 212.4 972.3 214.1" stroke="#16a34a" stroke-width="2.5" fill="none" stroke-linecap="round"/>
<path d="M986.7 222.0 Q992.8 209.9 996.8 208.7" stroke="#22c55e" stroke-width="2.5" fill="none" stroke-linecap="round"/>
<path d="M986.7 222.0 Q1003.5 216.0 1014.6 222.0" stroke="#15803d" stroke-width="2.5" fill="none" stroke-linecap="round"/>
<path d="M986.7 222.0 Q991.8 221.2 995.3 233.3" stroke="#4ade80" stroke-width="2.5" fill="none" stroke-linecap="round"/>
<path d="M986.7 222.0 Q974.3 221.2 966.1 233.4" stroke="#16a34a" stroke-width="2.5" fill="none" stroke-linecap="round"/>
<path d="M525.3 285.0 Q547.2 263.0 538.5 241.0" stroke="#92400e" stroke-width="4" fill="none" stroke-linecap="round"/>
<path d="M538.5 241.0 Q526.5 230.0 518.5 230.0" stroke="#16a34a" stroke-width="2.5" fill="none" stroke-linecap="round"/>
<path d="M538.5 241.0 Q546.2 227.2 551.4 223.9" stroke="#22c55e" stroke-width="2.5" fill="none" stroke-linecap="round"/>
<path d="M538.5 241.0 Q557.9 235.0 570.9 241.0" stroke="#15803d" stroke-width="2.5" fill="none" stroke-linecap="round"/>
<path d="M538.5 241.0 Q545.8 242.4 550.7 257.2" stroke="#4ade80" stroke-width="2.5" fill="none" stroke-linecap="round"/>
<path d="M538.5 241.0 Q527.0 239.8 519.4 251.5" stroke="#16a34a" stroke-width="2.5" fill="none" stroke-linecap="round"/>
<rect x="0" y="282" width="1200" height="18" fill="url(#groundGrad)"/>
<line x1="394.5" y1="282.0" x2="394.5" y2="249.8" stroke="#92400e" stroke-width="2"/>
<circle cx="394.5" cy="249.8" r="4" fill="#fef08a" opacity="0.6"/>
<circle cx="394.5" cy="249.8" r="8" fill="#fef08a" opacity="0.15" filter="url(#softGlow)"/>
<line x1="158.4" y1="282.0" x2="158.4" y2="248.4" stroke="#92400e" stroke-width="2"/>
<circle cx="158.4" cy="248.4" r="4" fill="#fef08a" opacity="0.6"/>
<circle cx="158.4" cy="248.4" r="8" fill="#fef08a" opacity="0.15" filter="url(#softGlow)"/>
<ellipse cx="132.1" cy="282.0" rx="6.4" ry="4.5" fill="#22c55e" opacity="0.6"/>
<ellipse cx="172.4" cy="282.0" rx="6.2" ry="4.3" fill="#22c55e" opacity="0.6"/>
</svg>