<svg xmlns="http://www.w3.org/2000/svg" viewBox="0 0 1200 300" width="1200" height="300">
<defs><linearGradient id="skyGrad" x1="0" y1="0" x2="0" y2="1"><stop offset="0%" stop-color="#e8f0f8"/><stop offset="100%" stop-color="#f5e6d8"/></linearGradient></defs><rect width="1200" height="300" fill="url(#skyGrad)"/>
<path d="M0 300 L0 204.0 C302.0 185.1, 1005.3 194.6, 1200 204.0 L1200 300 Z" fill="#e4c4a8" opacity="0.25"/>
<rect x="150.9" y="233.3" width="43.7" height="66.7" fill="#daae87"/>
<rect x="598.0" y="244.9" width="70.7" height="55.1" fill="#daae87"/>
<rect x="610.4" y="235.1" width="46.0" height="9.7" fill="#cfa580"/>
<rect x="1006.5" y="195.0" width="48.5" height="105.0" fill="#daae87"/>
<rect x="1015.0" y="176.4" width="31.6" height="18.5" fill="#cfa580"/>
<rect x="184.2" y="141.5" width="39.3" height="158.5" fill="#c98951"/>
<polygon points="184.2,141.5 203.8,131.7 223.4,141.5" fill="#b97e4b"/>
<rect x="200.8" y="169.5" width="6" height="8" fill="#dcb28e" opacity="0.5"/>
<rect x="200.8" y="217.5" width="6" height="8" fill="#dcb28e" opacity="0.5"/>
<rect x="200.8" y="233.5" width="6" height="8" fill="#dcb28e" opacity="0.5"/>
<rect x="412.1" y="201.9" width="65.4" height="98.1" fill="#c98951"/>
<rect x="427.8" y="213.9" width="6" height="8" fill="#dcb28e" opacity="0.5"/>
<rect x="441.8" y="213.9" width="6" height="8" fill="#dcb28e" opacity="0.5"/>
<rect x="455.8" y="213.9" width="6" height="8" fill="#dcb28e" opacity="0.5"/>
<rect x="427.8" y="229.9" width="6" height="8" fill="#dcb28e" opacity="0.5"/>
<rect x="441.8" y="229.9" width="6" height="8" fill="#dcb28e" opacity="0.5"/>
<rect x="455.8" y="229.9" width="6" height="8" fill="#dcb28e" opacity="0.5"/>
<rect x="441.8" y="245.9" width="6" height="8" fill="#dcb28e" opacity="0.5"/>
<rect x="427.8" y="261.9" width="6" height="8" fill="#dcb28e" opacity="0.5"/>
<rect x="455.8" y="261.9" width="6" height="8" fill="#dcb28e" opacity="0.5"/>
<rect x="743.4" y="176.6" width="74.9" height="123.4" fill="#c98951"/>
<rect x="763.9" y="188.6" width="6" height="8" fill="#dcb28e" opacity="0.5"/>
<rect x="777.9" y="188.6" width="6" height="8" fill="#dcb28e" opacity="0.5"/>
<rect x="791.9" y="188.6" width="6" height="8" fill="#dcb28e" opacity="0.5"/>
<rect x="763.9" y="204.6" width="6" height="8" fill="#dcb28e" opacity="0.5"/>
<rect x="777.9" y="204.6" width="6" height="8" fill="#dcb28e" opacity="0.5"/>
<rect x="763.9" y="220.6" width="6" height="8" fill="#dcb28e" opacity="0.5"/>
<rect x="777.9" y="220.6" width="6" height="8" fill="#dcb28e" opacity="0.5"/>
<rect x="791.9" y="220.6" width="6" height="8" fill="#dcb28e" opacity="0.5"/>
<rect x="763.9" y="236.6" width="6" height="8" fill="#dcb28e" opacity="0.5"/>
<rect x="777.9" y="236.6" width="6" height="8" fill="#dcb28e" opacity="0.5"/>
<rect x="791.9" y="236.6" width="6" height="8" fill="#dcb28e" opacity="0.5"/>
<rect x="763.9" y="252.6" width="6" height="8" fill="#dcb28e" opacity="0.5"/>
<rect x="791.9" y="252.6" width="6" height="8" fill="#dcb28e" opacity="0.5"/>
<rect x="763.9" y="268.6" width="6" height="8" fill="#dcb28e" opacity="0.5"/>
<rect x="791.9" y="268.6" width="6" height="8" fill="#dcb28e" opacity="0.5"/>
<rect x="996.8" y="163.2" width="58.4" height="136.8" fill="#c98951"/>
<polygon points="996.8,163.2 1026.0,148.6 1055.2,163.2" fill="#b97e4b"/>
<rect x="1009.0" y="175.2" width="6" height="8" fill="#dcb28e" opacity="0.5"/>
<rect x="1023.0" y="175.2" width="6" height="8" fill="#dcb28e" opacity="0.5"/>
<rect x="1009.0" y="191.2" width="6" height="8" fill="#dcb28e" opacity="0.5"/>
<rect x="1023.0" y="191.2" width="6" height="8" fill="#dcb28e" opacity="0.5"/>
<rect x="1037.0" y="191.2" width="6" height="8" fill="#dcb28e" opacity="0.5"/>
<rect x="1009.0" y="207.2" width="6" height="8" fill="#dcb28e" opacity="0.5"/>
<rect x="1023.0" y="207.2" width="6" height="8" fill="#dcb28e" opacity="0.5"/>
<rect x="1037.0" y="207.2" width="6" height="8" fill="#dcb28e" opacity="0.5"/>
<rect x="1037.0" y="223.2" width="6" height="8" fill="#dcb28e" opacity="0.5"/>
<rect x="1023.0" y="239.2" width="6" height="8" fill="#dcb28e" opacity="0.5"/>
<rect x="1009.0" y="255.2" width="6" height="8" fill="#dcb28e" opacity="0.5"/>
<rect x="1023.0" y="255.2" width="6" height="8" fill="#dcb28e" opacity="0.5"/>
<rect x="1037.0" y="255.2" width="6" height="8" fill="#dcb28e" opacity="0.5"/>
<rect x="222.2" y="179.5" width="31.6" height="120.5" fill="#bc6c25"/>
<polygon points="222.2,179.5 238.0,171.6 253.8,179.5" fill="#ad6322"/>
<rect x="235.0" y="191.5" width="6" height="8" fill="#d39f71" opacity="0.5"/>
<rect x="235.0" y="223.5" width="6" height="8" fill="#d39f71" opacity="0.5"/>
<rect x="235.0" y="239.5" width="6" height="8" fill="#d39f71" opacity="0.5"/>
<rect x="235.0" y="255.5" width="6" height="8" fill="#d39f71" opacity="0.5"/>
<rect x="235.0" y="271.5" width="6" height="8" fill="#d39f71" opacity="0.5"/>
<rect x="589.6" y="120.4" width="71.3" height="179.6" fill="#bc6c25"/>
<rect x="622.3" y="132.4" width="6" height="8" fill="#d39f71" opacity="0.5"/>
<rect x="636.3" y="132.4" width="6" height="8" fill="#d39f71" opacity="0.5"/>
<rect x="622.3" y="148.4" width="6" height="8" fill="#d39f71" opacity="0.5"/>
<rect x="636.3" y="148.4" width="6" height="8" fill="#d39f71" opacity="0.5"/>
<rect x="636.3" y="164.4" width="6" height="8" fill="#d39f71" opacity="0.5"/>
<rect x="608.3" y="180.4" width="6" height="8" fill="#d39f71" opacity="0.5"/>
<rect x="636.3" y="180.4" width="6" height="8" fill="#d39f71" opacity="0.5"/>
<rect x="622.3" y="196.4" width="6" height="8" fill="#d39f71" opacity="0.5"/>
<rect x="636.3" y="196.4" width="6" height="8" fill="#d39f71" opacity="0.5"/>
<rect x="608.3" y="212.4" width="6" height="8" fill="#d39f71" opacity="0.5"/>
<rect x="622.3" y="212.4" width="6" height="8" fill="#d39f71" opacity="0.5"/>
<rect x="636.3" y="212.4" width="6" height="8" fill="#d39f71" opacity="0.5"/>
<rect x="920.5" y="253.8" width="36.0" height="46.2" fill="#bc6c25"/>
<rect x="926.8" y="245.7" width="23.4" height="8.1" fill="#b36723"/>
<path d="M421.7 285.0 Q445.2 262.1 438.1 239.3" fill="none" stroke="#7f694d" stroke-width="3"/>
<path d="M438.1 239.3 Q426.5 230.0 418.7 230.8" fill="none" stroke="#47863c" stroke-width="2.5"/>
<path d="M438.1 239.3 Q442.4 227.7 445.2 226.2" fill="none" stroke="#47863c" stroke-width="2.5"/>
<path d="M438.1 239.3 Q455.4 234.3 466.9 239.3" fill="none" stroke="#47863c" stroke-width="2.5"/>
<path d="M438.1 239.3 Q443.4 242.3 446.8 255.3" fill="none" stroke="#47863c" stroke-width="2.5"/>
<path d="M438.1 239.3 Q428.3 237.8 421.8 246.4" fill="none" stroke="#47863c" stroke-width="2.5"/>
<path d="M790.7 285.0 Q818.2 260.8 809.9 236.6" fill="none" stroke="#8a7254" stroke-width="3"/>
<path d="M809.9 236.6 Q797.9 227.2 789.9 227.9" fill="none" stroke="#47863c" stroke-width="2.5"/>
<path d="M809.9 236.6 Q815.3 223.3 818.9 220.0" fill="none" stroke="#47863c" stroke-width="2.5"/>
<path d="M809.9 236.6 Q821.9 231.6 829.9 236.6" fill="none" stroke="#47863c" stroke-width="2.5"/>
<path d="M809.9 236.6 Q815.5 240.1 819.2 253.6" fill="none" stroke="#47863c" stroke-width="2.5"/>
<path d="M809.9 236.6 Q800.2 235.1 793.7 243.6" fill="none" stroke="#47863c" stroke-width="2.5"/>
<path d="M369.1 285.0 Q391.3 259.8 384.6 234.7" fill="none" stroke="#7a654b" stroke-width="3"/>
<path d="M384.6 234.7 Q375.3 226.3 369.1 227.9" fill="none" stroke="#437e39" stroke-width="2.5"/>
<path d="M384.6 234.7 Q389.7 221.8 393.1 219.0" fill="none" stroke="#437e39" stroke-width="2.5"/>
<path d="M384.6 234.7 Q397.4 229.7 405.9 234.7" fill="none" stroke="#437e39" stroke-width="2.5"/>
<path d="M384.6 234.7 Q389.2 236.7 392.2 248.6" fill="none" stroke="#437e39" stroke-width="2.5"/>
<path d="M384.6 234.7 Q372.4 234.1 364.2 243.6" fill="none" stroke="#437e39" stroke-width="2.5"/>
<path d="M524.6 285.0 Q548.0 256.6 540.9 228.2" fill="none" stroke="#7f694e" stroke-width="3"/>
<path d="M540.9 228.2 Q526.6 218.0 517.0 217.7" fill="none" stroke="#437e39" stroke-width="2.5"/>
<path d="M540.9 228.2 Q544.4 217.9 546.7 217.6" fill="none" stroke="#437e39" stroke-width="2.5"/>
<path d="M540.9 228.2 Q558.4 223.2 570.0 228.2" fill="none" stroke="#437e39" stroke-width="2.5"/>
<path d="M540.9 228.2 Q546.0 231.0 549.4 243.9" fill="none" stroke="#437e39" stroke-width="2.5"/>
<path d="M540.9 228.2 Q529.7 227.3 522.2 236.3" fill="none" stroke="#437e39" stroke-width="2.5"/>
<path d="M114.8 285.0 Q136.2 265.0 129.8 245.0" fill="none" stroke="#7e694d" stroke-width="3"/>
<path d="M129.8 245.0 Q116.2 235.0 107.2 235.1" fill="none" stroke="#46853c" stroke-width="2.5"/>
<path d="M129.8 245.0 Q134.1 233.3 137.0 231.7" fill="none" stroke="#46853c" stroke-width="2.5"/>
<path d="M129.8 245.0 Q143.4 240.0 152.5 245.0" fill="none" stroke="#46853c" stroke-width="2.5"/>
<path d="M129.8 245.0 Q135.1 248.1 138.6 261.2" fill="none" stroke="#46853c" stroke-width="2.5"/>
<path d="M129.8 245.0 Q116.7 244.7 108.0 254.5" fill="none" stroke="#46853c" stroke-width="2.5"/>
<rect x="0" y="285" width="1200" height="15" fill="#9aaa85" opacity="0.4"/>
<circle cx="1033.4" cy="38.4" r="27.5" fill="#f5e6a0" opacity="0.1"/>
</svg>