<svg xmlns="http://www.w3.org/2000/svg" viewBox="0 0 1200 300" width="1200" height="300">
<defs>
<linearGradient id="skyGrad" x1="0" y1="0" x2="0" y2="1">
<stop offset="0%" stop-color="#a78bfa"/>
<stop offset="18%" stop-color="#ddb4f0"/>
<stop offset="35%" stop-color="#fda4af"/>
<stop offset="52%" stop-color="#fdba74"/>
<stop offset="72%" stop-color="#fef08a"/>
<stop offset="100%" stop-color="#fef9c3"/>
</linearGradient>
<linearGradient id="bldg_coral" x1="0" y1="0" x2="0" y2="1"><stop offset="0%" stop-color="#fecaca"/><stop offset="100%" stop-color="#fca5a5"/></linearGradient>
<linearGradient id="bldg_teal" x1="0" y1="0" x2="0" y2="1"><stop offset="0%" stop-color="#99f6e4"/><stop offset="100%" stop-color="#5eead4"/></linearGradient>
<linearGradient id="bldg_amber" x1="0" y1="0" x2="0" y2="1"><stop offset="0%" stop-color="#fde68a"/><stop offset="100%" stop-color="#fcd34d"/></linearGradient>
<linearGradient id="bldg_lavender" x1="0" y1="0" x2="0" y2="1"><stop offset="0%" stop-color="#ddd6fe"/><stop offset="100%" stop-color="#c4b5fd"/></linearGradient>
<linearGradient id="bldg_blue" x1="0" y1="0" x2="0" y2="1"><stop offset="0%" stop-color="#bfdbfe"/><stop offset="100%" stop-color="#93c5fd"/></linearGradient>
<linearGradient id="bldg_mint" x1="0" y1="0" x2="0" y2="1"><stop offset="0%" stop-color="#a7f3d0"/><stop offset="100%" stop-color="#6ee7b7"/></linearGradient>
<linearGradient id="bldg_rose" x1="0" y1="0" x2="0" y2="1"><stop offset="0%" stop-color="#fecdd3"/><stop offset="100%" stop-color="#fda4af"/></linearGradient>
<linearGradient id="bldg_sky" x1="0" y1="0" x2="0" y2="1"><stop offset="0%" stop-color="#bae6fd"/><stop offset="100%" stop-color="#7dd3fc"/></linearGradient>
<linearGradient id="roof_navyRoof" x1="0" y1="0" x2="0" y2="1"><stop offset="0%" stop-color="#4338ca"/><stop offset="100%" stop-color="#3730a3"/></linearGradient>
<linearGradient id="roof_coralRoof" x1="0" y1="0" x2="0" y2="1"><stop offset="0%" stop-color="#f87171"/><stop offset="100%" stop-color="#ef4444"/></linearGradient>
<linearGradient id="roof_tealRoof" x1="0" y1="0" x2="0" y2="1"><stop offset="0%" stop-color="#2dd4bf"/><stop offset="100%" stop-color="#14b8a6"/></linearGradient>
<radialGradient id="windowGlow" cx="50%" cy="50%" r="50%"><stop offset="0%" stop-color="#fef08a"/><stop offset="60%" stop-color="#fbbf24"/><stop offset="100%" stop-color="#f59e0b"/></radialGradient>
<linearGradient id="hillFar" x1="0" y1="0" x2="0" y2="1"><stop offset="0%" stop-color="#c4b5fd"/><stop offset="100%" stop-color="#a5b4fc"/></linearGradient>
<linearGradient id="hillMid" x1="0" y1="0" x2="0" y2="1"><stop offset="0%" stop-color="#86efac"/><stop offset="100%" stop-color="#4ade80"/></linearGradient>
<linearGradient id="hillNear" x1="0" y1="0" x2="0" y2="1"><stop offset="0%" stop-color="#34d399"/><stop offset="100%" stop-color="#10b981"/></linearGradient>
<linearGradient id="hillDesertFar" x1="0" y1="0" x2="0" y2="1"><stop offset="0%" stop-color="#fde68a"/><stop offset="100%" stop-color="#fcd34d"/></linearGradient>
<linearGradient id="hillDesertMid" x1="0" y1="0" x2="0" y2="1"><stop offset="0%" stop-color="#fcd34d"/><stop offset="100%" stop-color="#fbbf24"/></linearGradient>
<linearGradient id="hillDesertNear" x1="0" y1="0" x2="0" y2="1"><stop offset="0%" stop-color="#fbbf24"/><stop offset="100%" stop-color="#f59e0b"/></linearGradient>
<linearGradient id="groundGrad" x1="0" y1="0" x2="0" y2="1"><stop offset="0%" stop-color="#fef3c7"/><stop offset="100%" stop-color="#fde68a"/></linearGradient>
<linearGradient id="waterGrad" x1="0" y1="0" x2="0" y2="1"><stop offset="0%" stop-color="#bfdbfe"/><stop offset="100%" stop-color="#93c5fd"/></linearGradient>
<filter id="softGlow" x="-50%" y="-50%" width="200%" height="200%"><feGaussianBlur in="SourceGraphic" stdDeviation="12"/></filter>
</defs>
<rect width="1200" height="300" fill="url(#skyGrad)"/>
<circle cx="1071.5" cy="59.1" r="45" fill="#fef08a" opacity="0.12" filter="url(#softGlow)"/>
<circle cx="1071.5" cy="59.1" r="30" fill="#fde68a" opacity="0.18" filter="url(#softGlow)"/>
<circle cx="1071.5" cy="59.1" r="16" fill="#fef9c3" opacity="0.25" filter="url(#softGlow)"/>
<path d="M0 300 L0.0 196.9 C167.8 196.9, 167.8 178.8, 335.6 178.8 C521.3 178.8, 521.3 194.0, 707.1 194.0 C953.6 194.0, 953.6 202.3, 1200.0 202.3 L1200 300 Z" fill="url(#hillFar)" opacity="0.5"/>
<path d="M0 300 L0.0 205.2 C217.7 205.2, 217.7 212.4, 435.3 212.4 C654.6 212.4, 654.6 206.8, 873.9 206.8 C1036.9 206.8, 1036.9 210.8, 1200.0 210.8 L1200 300 Z" fill="url(#hillMid)" opacity="0.7"/>
<path d="M0 300 L0.0 234.1 C216.9 234.1, 216.9 234.2, 433.9 234.2 C621.5 234.2, 621.5 233.0, 809.0 233.0 C1004.5 233.0, 1004.5 236.1, 1200.0 236.1 L1200 300 Z" fill="url(#hillNear)" opacity="1"/>
<rect x="126.1" y="240.0" width="52.3" height="60.0" rx="3" fill="url(#bldg_coral)" opacity="0.7"/>
<rect x="136.6" y="232.8" width="31.4" height="7.2" rx="2" fill="url(#roof_coralRoof)" opacity="0.7"/>
<rect x="156.3" y="250.0" width="6" height="8" rx="1" fill="url(#windowGlow)" opacity="0.7358283090572004"/>
<rect x="441.5" y="199.8" width="60.9" height="100.2" rx="3" fill="url(#bldg_teal)" opacity="0.7"/>
<rect x="441.5" y="196.8" width="60.9" height="3" rx="1" fill="url(#roof_tealRoof)" opacity="0.7"/>
<rect x="483.0" y="209.8" width="6" height="8" rx="1" fill="url(#windowGlow)" opacity="0.9253825676279992"/>
<rect x="455.0" y="224.8" width="6" height="8" rx="1" fill="url(#windowGlow)" opacity="0.8092362734532152"/>
<rect x="469.0" y="224.8" width="6" height="8" rx="1" fill="url(#windowGlow)" opacity="0.8717922645023988"/>
<rect x="483.0" y="224.8" width="6" height="8" rx="1" fill="url(#windowGlow)" opacity="0.9394572043509488"/>
<rect x="455.0" y="239.8" width="6" height="8" rx="1" fill="url(#windowGlow)" opacity="0.8828246824829022"/>
<rect x="469.0" y="239.8" width="6" height="8" rx="1" fill="url(#windowGlow)" opacity="0.7555572791749412"/>
<rect x="483.0" y="239.8" width="6" height="8" rx="1" fill="url(#windowGlow)" opacity="0.9158461450207261"/>
<rect x="455.0" y="254.8" width="6" height="8" rx="1" fill="url(#windowGlow)" opacity="0.7690955553991233"/>
<rect x="469.0" y="254.8" width="6" height="8" rx="1" fill="url(#windowGlow)" opacity="0.8882533405387091"/>
<rect x="483.0" y="254.8" width="6" height="8" rx="1" fill="url(#windowGlow)" opacity="0.7719190235118936"/>
<rect x="672.0" y="225.0" width="66.0" height="75.0" rx="3" fill="url(#bldg_amber)" opacity="0.7"/>
<polygon points="672.0,225.0 705.0,207.6 738.0,225.0" fill="url(#roof_navyRoof)" opacity="0.7"/>
<rect x="688.0" y="235.0" width="6" height="8" rx="1" fill="url(#windowGlow)" opacity="0.8548515723342316"/>
<rect x="702.0" y="235.0" width="6" height="8" rx="1" fill="url(#windowGlow)" opacity="0.7920816734396301"/>
<rect x="716.0" y="235.0" width="6" height="8" rx="1" fill="url(#windowGlow)" opacity="0.9082188911308622"/>
<rect x="688.0" y="250.0" width="6" height="8" rx="1" fill="url(#windowGlow)" opacity="0.722644790039698"/>
<rect x="702.0" y="250.0" width="6" height="8" rx="1" fill="url(#windowGlow)" opacity="0.938584309601497"/>
<rect x="716.0" y="250.0" width="6" height="8" rx="1" fill="url(#windowGlow)" opacity="0.8329430278544048"/>
<rect x="1029.0" y="237.4" width="51.2" height="62.6" rx="3" fill="url(#bldg_lavender)" opacity="0.7"/>
<rect x="1029.0" y="234.4" width="51.2" height="3" rx="1" fill="url(#roof_coralRoof)" opacity="0.7"/>
<rect x="1044.5" y="247.4" width="6" height="8" rx="1" fill="url(#windowGlow)" opacity="0.9655806660957544"/>
<rect x="1058.5" y="247.4" width="6" height="8" rx="1" fill="url(#windowGlow)" opacity="0.8635883721353431"/>
<rect x="153.6" y="179.1" width="44.6" height="120.9" rx="3" fill="url(#bldg_blue)" opacity="0.85"/>
<rect x="153.6" y="176.1" width="44.6" height="3" rx="1" fill="url(#roof_tealRoof)" opacity="0.85"/>
<rect x="165.9" y="189.1" width="6" height="8" rx="1" fill="url(#windowGlow)" opacity="0.8607378401145049"/>
<rect x="179.9" y="189.1" width="6" height="8" rx="1" fill="url(#windowGlow)" opacity="0.8937259524565776"/>
<rect x="165.9" y="204.1" width="6" height="8" rx="1" fill="url(#windowGlow)" opacity="0.7813497824507531"/>
<rect x="179.9" y="204.1" width="6" height="8" rx="1" fill="url(#windowGlow)" opacity="0.8035367687249262"/>
<rect x="165.9" y="219.1" width="6" height="8" rx="1" fill="url(#windowGlow)" opacity="0.7971805114285929"/>
<rect x="179.9" y="219.1" width="6" height="8" rx="1" fill="url(#windowGlow)" opacity="0.918496958500937"/>
<rect x="165.9" y="234.1" width="6" height="8" rx="1" fill="url(#windowGlow)" opacity="0.8941104496336125"/>
<rect x="448.7" y="229.4" width="79.0" height="70.6" rx="3" fill="url(#bldg_mint)" opacity="0.85"/>
<polygon points="448.7,229.4 488.2,209.0 527.7,229.4" fill="url(#roof_navyRoof)" opacity="0.85"/>
<rect x="464.2" y="239.4" width="6" height="8" rx="1" fill="url(#windowGlow)" opacity="0.9848169571649361"/>
<rect x="478.2" y="239.4" width="6" height="8" rx="1" fill="url(#windowGlow)" opacity="0.9972140414627333"/>
<rect x="492.2" y="239.4" width="6" height="8" rx="1" fill="url(#windowGlow)" opacity="0.7677181105910419"/>
<rect x="506.2" y="239.4" width="6" height="8" rx="1" fill="url(#windowGlow)" opacity="0.7209651413005614"/>
<rect x="464.2" y="254.4" width="6" height="8" rx="1" fill="url(#windowGlow)" opacity="0.8750799464411474"/>
<rect x="478.2" y="254.4" width="6" height="8" rx="1" fill="url(#windowGlow)" opacity="0.9218729370841164"/>
<rect x="492.2" y="254.4" width="6" height="8" rx="1" fill="url(#windowGlow)" opacity="0.8742335401821106"/>
<rect x="506.2" y="254.4" width="6" height="8" rx="1" fill="url(#windowGlow)" opacity="0.8853833570542667"/>
<rect x="744.9" y="227.2" width="47.1" height="72.8" rx="3" fill="url(#bldg_rose)" opacity="0.85"/>
<polygon points="744.9,227.2 768.4,216.1 792.0,227.2" fill="url(#roof_coralRoof)" opacity="0.85"/>
<rect x="758.4" y="237.2" width="6" height="8" rx="1" fill="url(#windowGlow)" opacity="0.9677307198139515"/>
<rect x="758.4" y="252.2" width="6" height="8" rx="1" fill="url(#windowGlow)" opacity="0.7677030290326583"/>
<path d="M768.4 252.7 L787.3 252.7 L784.3 258.7 L771.4 258.7 Z" fill="url(#roof_navyRoof)" opacity="0.68"/>
<rect x="979.9" y="201.9" width="69.0" height="98.1" rx="3" fill="url(#bldg_sky)" opacity="0.85"/>
<polygon points="979.9,201.9 1014.4,185.7 1048.9,201.9" fill="url(#roof_tealRoof)" opacity="0.85"/>
<rect x="997.4" y="211.9" width="6" height="8" rx="1" fill="url(#windowGlow)" opacity="0.7545103304341949"/>
<rect x="1011.4" y="211.9" width="6" height="8" rx="1" fill="url(#windowGlow)" opacity="0.703953397555255"/>
<rect x="1025.4" y="211.9" width="6" height="8" rx="1" fill="url(#windowGlow)" opacity="0.9857714004282706"/>
<rect x="997.4" y="226.9" width="6" height="8" rx="1" fill="url(#windowGlow)" opacity="0.7775773288112028"/>
<rect x="1011.4" y="226.9" width="6" height="8" rx="1" fill="url(#windowGlow)" opacity="0.8527353157069232"/>
<rect x="1025.4" y="226.9" width="6" height="8" rx="1" fill="url(#windowGlow)" opacity="0.7224607794650182"/>
<rect x="997.4" y="241.9" width="6" height="8" rx="1" fill="url(#windowGlow)" opacity="0.9933227899918904"/>
<rect x="1011.4" y="241.9" width="6" height="8" rx="1" fill="url(#windowGlow)" opacity="0.8808468965724329"/>
<rect x="1025.4" y="241.9" width="6" height="8" rx="1" fill="url(#windowGlow)" opacity="0.7822213516022177"/>
<rect x="997.4" y="256.9" width="6" height="8" rx="1" fill="url(#windowGlow)" opacity="0.7406018431487501"/>
<rect x="1011.4" y="256.9" width="6" height="8" rx="1" fill="url(#windowGlow)" opacity="0.9176895438775836"/>
<rect x="1025.4" y="256.9" width="6" height="8" rx="1" fill="url(#windowGlow)" opacity="0.9176244670607263"/>
<path d="M1014.4 236.2 L1042.0 236.2 L1039.0 242.2 L1017.4 242.2 Z" fill="url(#roof_coralRoof)" opacity="0.68"/>
<rect x="130.3" y="205.1" width="38.2" height="94.9" rx="3" fill="url(#bldg_coral)" opacity="1"/>
<polygon points="130.3,205.1 149.4,192.1 168.5,205.1" fill="url(#roof_navyRoof)" opacity="1"/>
<rect x="146.4" y="215.1" width="6" height="8" rx="1" fill="url(#windowGlow)" opacity="0.9024320716980994"/>
<rect x="146.4" y="230.1" width="6" height="8" rx="1" fill="url(#windowGlow)" opacity="0.9843848785778437"/>
<rect x="146.4" y="245.1" width="6" height="8" rx="1" fill="url(#windowGlow)" opacity="0.8695819833174263"/>
<rect x="146.4" y="260.1" width="6" height="8" rx="1" fill="url(#windowGlow)" opacity="0.8506614196815814"/>
<rect x="144.4" y="284.0" width="10" height="16" rx="2" fill="url(#roof_navyRoof)" opacity="0.8"/>
<rect x="146.4" y="287.0" width="6" height="10" rx="1" fill="url(#windowGlow)" opacity="0.45"/>
<path d="M134.1 238.3 L149.4 238.3 L146.4 244.3 L137.1 244.3 Z" fill="url(#roof_tealRoof)" opacity="0.8"/>
<rect x="459.9" y="216.7" width="69.6" height="83.3" rx="3" fill="url(#bldg_teal)" opacity="1"/>
<polygon points="459.9,216.7 494.7,200.5 529.5,216.7" fill="url(#roof_coralRoof)" opacity="1"/>
<rect x="477.7" y="226.7" width="6" height="8" rx="1" fill="url(#windowGlow)" opacity="0.8402280363441574"/>
<rect x="505.7" y="226.7" width="6" height="8" rx="1" fill="url(#windowGlow)" opacity="0.9778109896359084"/>
<rect x="477.7" y="241.7" width="6" height="8" rx="1" fill="url(#windowGlow)" opacity="0.9949620737205083"/>
<rect x="491.7" y="241.7" width="6" height="8" rx="1" fill="url(#windowGlow)" opacity="0.7591184705771126"/>
<rect x="505.7" y="241.7" width="6" height="8" rx="1" fill="url(#windowGlow)" opacity="0.8991925518956"/>
<rect x="477.7" y="256.7" width="6" height="8" rx="1" fill="url(#windowGlow)" opacity="0.9111712261155114"/>
<rect x="491.7" y="256.7" width="6" height="8" rx="1" fill="url(#windowGlow)" opacity="0.99114015497786"/>
<rect x="505.7" y="256.7" width="6" height="8" rx="1" fill="url(#windowGlow)" opacity="0.9027043310006635"/>
<rect x="489.7" y="284.0" width="10" height="16" rx="2" fill="url(#roof_navyRoof)" opacity="0.8"/>
<rect x="491.7" y="287.0" width="6" height="10" rx="1" fill="url(#windowGlow)" opacity="0.45"/>
<rect x="725.8" y="171.0" width="50.8" height="129.0" rx="3" fill="url(#bldg_amber)" opacity="1"/>
<polygon points="725.8,171.0 751.2,156.6 776.5,171.0" fill="url(#roof_tealRoof)" opacity="1"/>
<rect x="741.2" y="181.0" width="6" height="8" rx="1" fill="url(#windowGlow)" opacity="0.9649924224545212"/>
<rect x="755.2" y="181.0" width="6" height="8" rx="1" fill="url(#windowGlow)" opacity="0.8619117461898884"/>
<rect x="741.2" y="196.0" width="6" height="8" rx="1" fill="url(#windowGlow)" opacity="0.9369978521191504"/>
<rect x="755.2" y="196.0" width="6" height="8" rx="1" fill="url(#windowGlow)" opacity="0.7598380362893631"/>
<rect x="741.2" y="211.0" width="6" height="8" rx="1" fill="url(#windowGlow)" opacity="0.7013115854008642"/>
<rect x="755.2" y="211.0" width="6" height="8" rx="1" fill="url(#windowGlow)" opacity="0.804599221471976"/>
<rect x="741.2" y="226.0" width="6" height="8" rx="1" fill="url(#windowGlow)" opacity="0.7002324639820644"/>
<rect x="755.2" y="226.0" width="6" height="8" rx="1" fill="url(#windowGlow)" opacity="0.7920139642860805"/>
<rect x="741.2" y="241.0" width="6" height="8" rx="1" fill="url(#windowGlow)" opacity="0.9732570527462554"/>
<rect x="755.2" y="241.0" width="6" height="8" rx="1" fill="url(#windowGlow)" opacity="0.9450974301645054"/>
<rect x="755.2" y="256.0" width="6" height="8" rx="1" fill="url(#windowGlow)" opacity="0.9134902937866236"/>
<rect x="746.2" y="284.0" width="10" height="16" rx="2" fill="url(#roof_navyRoof)" opacity="0.8"/>
<rect x="748.2" y="287.0" width="6" height="10" rx="1" fill="url(#windowGlow)" opacity="0.45"/>
<rect x="997.8" y="225.7" width="43.2" height="74.3" rx="3" fill="url(#bldg_lavender)" opacity="1"/>
<rect x="997.8" y="222.7" width="43.2" height="3" rx="1" fill="url(#roof_navyRoof)" opacity="1"/>
<rect x="1016.4" y="235.7" width="6" height="8" rx="1" fill="url(#windowGlow)" opacity="0.9313185882900462"/>
<rect x="1016.4" y="250.7" width="6" height="8" rx="1" fill="url(#windowGlow)" opacity="0.7263469806994995"/>
<rect x="1014.4" y="284.0" width="10" height="16" rx="2" fill="url(#roof_navyRoof)" opacity="0.8"/>
<rect x="1016.4" y="287.0" width="6" height="10" rx="1" fill="url(#windowGlow)" opacity="0.45"/>
<rect x="311.2" y="266.3" width="6" height="18.7" rx="2" fill="#15803d"/>
<circle cx="314.2" cy="254.7" r="15.5" fill="#22c55e" opacity="0.9"/>
<circle cx="305.4" cy="257.7" r="11.6" fill="#16a34a" opacity="0.8"/>
<circle cx="320.9" cy="258.7" r="10.9" fill="#15803d" opacity="0.7"/>
<rect x="624.7" y="263.9" width="6" height="21.1" rx="2" fill="#15803d"/>
<circle cx="627.7" cy="250.8" r="17.1" fill="#22c55e" opacity="0.9"/>
<circle cx="621.3" cy="253.8" r="12.8" fill="#16a34a" opacity="0.8"/>
<circle cx="633.8" cy="254.8" r="12.0" fill="#15803d" opacity="0.7"/>
<rect x="884.2" y="268.3" width="6" height="16.7" rx="2" fill="#15803d"/>
<circle cx="887.2" cy="257.3" r="15.0" fill="#22c55e" opacity="0.9"/>
<circle cx="878.9" cy="260.3" r="11.2" fill="#16a34a" opacity="0.8"/>
<circle cx="895.1" cy="261.3" r="10.5" fill="#15803d" opacity="0.7"/>
<rect x="106.0" y="265.5" width="6" height="19.5" rx="2" fill="#15803d"/>
<circle cx="109.0" cy="254.4" r="15.1" fill="#22c55e" opacity="0.9"/>
<circle cx="102.8" cy="257.4" r="11.3" fill="#16a34a" opacity="0.8"/>
<circle cx="115.1" cy="258.4" r="10.5" fill="#15803d" opacity="0.7"/>
<rect x="1075.6" y="268.6" width="6" height="16.4" rx="2" fill="#15803d"/>
<circle cx="1078.6" cy="256.5" r="16.2" fill="#22c55e" opacity="0.9"/>
<circle cx="1069.9" cy="259.5" r="12.1" fill="#16a34a" opacity="0.8"/>
<circle cx="1085.8" cy="260.5" r="11.3" fill="#15803d" opacity="0.7"/>
<rect x="856.0" y="267.8" width="6" height="17.2" rx="2" fill="#15803d"/>
<circle cx="859.0" cy="255.0" r="16.8" fill="#22c55e" opacity="0.9"/>
<circle cx="850.0" cy="258.0" r="12.6" fill="#16a34a" opacity="0.8"/>
<circle cx="864.5" cy="259.0" r="11.8" fill="#15803d" opacity="0.7"/>
<rect x="596.2" y="264.6" width="6" height="20.4" rx="2" fill="#15803d"/>
<circle cx="599.2" cy="252.8" r="15.8" fill="#22c55e" opacity="0.9"/>
<circle cx="592.1" cy="255.8" r="11.8" fill="#16a34a" opacity="0.8"/>
<circle cx="604.8" cy="256.8" r="11.1" fill="#15803d" opacity="0.7"/>
<rect x="0" y="282" width="1200" height="18" fill="url(#groundGrad)"/>
<line x1="745.6" y1="282.0" x2="745.6" y2="246.9" stroke="#92400e" stroke-width="2"/>
<circle cx="745.6" cy="246.9" r="4" fill="#fef08a" opacity="0.6"/>
<circle cx="745.6" cy="246.9" r="8" fill="#fef08a" opacity="0.15" filter="url(#softGlow)"/>
<line x1="195.2" y1="282.0" x2="195.2" y2="240.1" stroke="#92400e" stroke-width="2"/>
<circle cx="195.2" cy="240.1" r="4" fill="#fef08a" opacity="0.6"/>
<circle cx="195.2" cy="240.1" r="8" fill="#fef08a" opacity="0.15" filter="url(#softGlow)"/>
<ellipse cx="297.0" cy="282.0" rx="4.8" ry="3.3" fill="#22c55e" opacity="0.6"/>
<ellipse cx="87.3" cy="282.0" rx="5.3" ry="3.7" fill="#22c55e" opacity="0.6"/>
<ellipse cx="1169.0" cy="282.0" rx="4.1" ry="2.9" fill="#22c55e" opacity="0.6"/>
</svg>