<svg xmlns="http://www.w3.org/2000/svg" viewBox="0 0 1200 300" width="1200" height="300">
<rect width="1200" height="300" fill="#e0eff2"/>
<path d="M0 300 L0 210.0 C238.5 165.4, 848.4 190.8, 1200 210.0 L1200 300 Z" fill="#aac2c9" opacity="0.3"/>
<rect x="141.6" y="235.7" width="88.5" height="64.3" fill="#8aabb4"/>
<rect x="520.2" y="198.1" width="53.1" height="101.9" fill="#8aabb4"/>
<rect x="918.9" y="198.8" width="71.1" height="101.2" fill="#8aabb4"/>
<rect x="168.3" y="141.9" width="53.6" height="158.1" fill="#558592"/>
<rect x="199.2" y="153.9" width="6" height="8" fill="#91b0b8" opacity="0.5"/>
<rect x="185.2" y="169.9" width="6" height="8" fill="#91b0b8" opacity="0.5"/>
<rect x="185.2" y="185.9" width="6" height="8" fill="#91b0b8" opacity="0.5"/>
<rect x="199.2" y="185.9" width="6" height="8" fill="#91b0b8" opacity="0.5"/>
<rect x="185.2" y="201.9" width="6" height="8" fill="#91b0b8" opacity="0.5"/>
<rect x="199.2" y="201.9" width="6" height="8" fill="#91b0b8" opacity="0.5"/>
<rect x="185.2" y="217.9" width="6" height="8" fill="#91b0b8" opacity="0.5"/>
<rect x="199.2" y="217.9" width="6" height="8" fill="#91b0b8" opacity="0.5"/>
<rect x="185.2" y="233.9" width="6" height="8" fill="#91b0b8" opacity="0.5"/>
<rect x="199.2" y="233.9" width="6" height="8" fill="#91b0b8" opacity="0.5"/>
<rect x="185.2" y="249.9" width="6" height="8" fill="#91b0b8" opacity="0.5"/>
<rect x="199.2" y="249.9" width="6" height="8" fill="#91b0b8" opacity="0.5"/>
<rect x="185.2" y="265.9" width="6" height="8" fill="#91b0b8" opacity="0.5"/>
<rect x="199.2" y="265.9" width="6" height="8" fill="#91b0b8" opacity="0.5"/>
<rect x="396.9" y="212.6" width="54.6" height="87.4" fill="#558592"/>
<rect x="414.2" y="224.6" width="6" height="8" fill="#91b0b8" opacity="0.5"/>
<rect x="428.2" y="224.6" width="6" height="8" fill="#91b0b8" opacity="0.5"/>
<rect x="428.2" y="240.6" width="6" height="8" fill="#91b0b8" opacity="0.5"/>
<rect x="414.2" y="256.6" width="6" height="8" fill="#91b0b8" opacity="0.5"/>
<rect x="414.2" y="272.6" width="6" height="8" fill="#91b0b8" opacity="0.5"/>
<rect x="750.1" y="194.1" width="66.0" height="105.9" fill="#558592"/>
<rect x="780.1" y="206.1" width="6" height="8" fill="#91b0b8" opacity="0.5"/>
<rect x="794.1" y="206.1" width="6" height="8" fill="#91b0b8" opacity="0.5"/>
<rect x="766.1" y="222.1" width="6" height="8" fill="#91b0b8" opacity="0.5"/>
<rect x="794.1" y="222.1" width="6" height="8" fill="#91b0b8" opacity="0.5"/>
<rect x="766.1" y="238.1" width="6" height="8" fill="#91b0b8" opacity="0.5"/>
<rect x="794.1" y="238.1" width="6" height="8" fill="#91b0b8" opacity="0.5"/>
<rect x="780.1" y="254.1" width="6" height="8" fill="#91b0b8" opacity="0.5"/>
<rect x="794.1" y="254.1" width="6" height="8" fill="#91b0b8" opacity="0.5"/>
<rect x="766.1" y="270.1" width="6" height="8" fill="#91b0b8" opacity="0.5"/>
<rect x="780.1" y="270.1" width="6" height="8" fill="#91b0b8" opacity="0.5"/>
<rect x="794.1" y="270.1" width="6" height="8" fill="#91b0b8" opacity="0.5"/>
<rect x="989.0" y="174.1" width="65.8" height="125.9" fill="#558592"/>
<rect x="1004.9" y="186.1" width="6" height="8" fill="#91b0b8" opacity="0.5"/>
<rect x="1018.9" y="186.1" width="6" height="8" fill="#91b0b8" opacity="0.5"/>
<rect x="1032.9" y="186.1" width="6" height="8" fill="#91b0b8" opacity="0.5"/>
<rect x="1004.9" y="202.1" width="6" height="8" fill="#91b0b8" opacity="0.5"/>
<rect x="1018.9" y="202.1" width="6" height="8" fill="#91b0b8" opacity="0.5"/>
<rect x="1032.9" y="202.1" width="6" height="8" fill="#91b0b8" opacity="0.5"/>
<rect x="1018.9" y="218.1" width="6" height="8" fill="#91b0b8" opacity="0.5"/>
<rect x="1032.9" y="218.1" width="6" height="8" fill="#91b0b8" opacity="0.5"/>
<rect x="1004.9" y="234.1" width="6" height="8" fill="#91b0b8" opacity="0.5"/>
<rect x="1004.9" y="250.1" width="6" height="8" fill="#91b0b8" opacity="0.5"/>
<rect x="1018.9" y="250.1" width="6" height="8" fill="#91b0b8" opacity="0.5"/>
<rect x="1032.9" y="250.1" width="6" height="8" fill="#91b0b8" opacity="0.5"/>
<rect x="1004.9" y="266.1" width="6" height="8" fill="#91b0b8" opacity="0.5"/>
<rect x="1018.9" y="266.1" width="6" height="8" fill="#91b0b8" opacity="0.5"/>
<rect x="1032.9" y="266.1" width="6" height="8" fill="#91b0b8" opacity="0.5"/>
<rect x="105.1" y="119.3" width="53.5" height="180.7" fill="#2b6777"/>
<rect x="135.9" y="131.3" width="6" height="8" fill="#759ca7" opacity="0.5"/>
<rect x="121.9" y="147.3" width="6" height="8" fill="#759ca7" opacity="0.5"/>
<rect x="135.9" y="147.3" width="6" height="8" fill="#759ca7" opacity="0.5"/>
<rect x="121.9" y="179.3" width="6" height="8" fill="#759ca7" opacity="0.5"/>
<rect x="135.9" y="179.3" width="6" height="8" fill="#759ca7" opacity="0.5"/>
<rect x="121.9" y="195.3" width="6" height="8" fill="#759ca7" opacity="0.5"/>
<rect x="121.9" y="211.3" width="6" height="8" fill="#759ca7" opacity="0.5"/>
<rect x="135.9" y="211.3" width="6" height="8" fill="#759ca7" opacity="0.5"/>
<rect x="121.9" y="227.3" width="6" height="8" fill="#759ca7" opacity="0.5"/>
<rect x="135.9" y="227.3" width="6" height="8" fill="#759ca7" opacity="0.5"/>
<rect x="121.9" y="243.3" width="6" height="8" fill="#759ca7" opacity="0.5"/>
<rect x="135.9" y="243.3" width="6" height="8" fill="#759ca7" opacity="0.5"/>
<rect x="121.9" y="259.3" width="6" height="8" fill="#759ca7" opacity="0.5"/>
<rect x="420.6" y="150.2" width="43.2" height="149.8" fill="#2b6777"/>
<rect x="439.2" y="162.2" width="6" height="8" fill="#759ca7" opacity="0.5"/>
<rect x="439.2" y="178.2" width="6" height="8" fill="#759ca7" opacity="0.5"/>
<rect x="439.2" y="210.2" width="6" height="8" fill="#759ca7" opacity="0.5"/>
<rect x="439.2" y="226.2" width="6" height="8" fill="#759ca7" opacity="0.5"/>
<rect x="439.2" y="242.2" width="6" height="8" fill="#759ca7" opacity="0.5"/>
<rect x="439.2" y="258.2" width="6" height="8" fill="#759ca7" opacity="0.5"/>
<rect x="733.5" y="211.5" width="65.9" height="88.5" fill="#2b6777"/>
<rect x="749.4" y="223.5" width="6" height="8" fill="#759ca7" opacity="0.5"/>
<rect x="763.4" y="223.5" width="6" height="8" fill="#759ca7" opacity="0.5"/>
<rect x="777.4" y="223.5" width="6" height="8" fill="#759ca7" opacity="0.5"/>
<rect x="763.4" y="239.5" width="6" height="8" fill="#759ca7" opacity="0.5"/>
<rect x="749.4" y="255.5" width="6" height="8" fill="#759ca7" opacity="0.5"/>
<rect x="763.4" y="255.5" width="6" height="8" fill="#759ca7" opacity="0.5"/>
<rect x="777.4" y="255.5" width="6" height="8" fill="#759ca7" opacity="0.5"/>
<rect x="763.4" y="271.5" width="6" height="8" fill="#759ca7" opacity="0.5"/>
<rect x="777.4" y="271.5" width="6" height="8" fill="#759ca7" opacity="0.5"/>
<rect x="1012.9" y="110.0" width="74.2" height="190.0" fill="#2b6777"/>
<rect x="1025.9" y="122.0" width="6" height="8" fill="#759ca7" opacity="0.5"/>
<rect x="1039.9" y="122.0" width="6" height="8" fill="#759ca7" opacity="0.5"/>
<rect x="1053.9" y="122.0" width="6" height="8" fill="#759ca7" opacity="0.5"/>
<rect x="1067.9" y="122.0" width="6" height="8" fill="#759ca7" opacity="0.5"/>
<rect x="1025.9" y="138.0" width="6" height="8" fill="#759ca7" opacity="0.5"/>
<rect x="1053.9" y="138.0" width="6" height="8" fill="#759ca7" opacity="0.5"/>
<rect x="1067.9" y="138.0" width="6" height="8" fill="#759ca7" opacity="0.5"/>
<rect x="1025.9" y="154.0" width="6" height="8" fill="#759ca7" opacity="0.5"/>
<rect x="1039.9" y="154.0" width="6" height="8" fill="#759ca7" opacity="0.5"/>
<rect x="1053.9" y="154.0" width="6" height="8" fill="#759ca7" opacity="0.5"/>
<rect x="1067.9" y="154.0" width="6" height="8" fill="#759ca7" opacity="0.5"/>
<rect x="1025.9" y="170.0" width="6" height="8" fill="#759ca7" opacity="0.5"/>
<rect x="1039.9" y="170.0" width="6" height="8" fill="#759ca7" opacity="0.5"/>
<rect x="1053.9" y="170.0" width="6" height="8" fill="#759ca7" opacity="0.5"/>
<rect x="1067.9" y="170.0" width="6" height="8" fill="#759ca7" opacity="0.5"/>
<rect x="1025.9" y="186.0" width="6" height="8" fill="#759ca7" opacity="0.5"/>
<rect x="1053.9" y="186.0" width="6" height="8" fill="#759ca7" opacity="0.5"/>
<rect x="1067.9" y="186.0" width="6" height="8" fill="#759ca7" opacity="0.5"/>
<rect x="1025.9" y="202.0" width="6" height="8" fill="#759ca7" opacity="0.5"/>
<rect x="1039.9" y="202.0" width="6" height="8" fill="#759ca7" opacity="0.5"/>
<rect x="1053.9" y="202.0" width="6" height="8" fill="#759ca7" opacity="0.5"/>
<rect x="1067.9" y="202.0" width="6" height="8" fill="#759ca7" opacity="0.5"/>
<rect x="1025.9" y="218.0" width="6" height="8" fill="#759ca7" opacity="0.5"/>
<rect x="1039.9" y="218.0" width="6" height="8" fill="#759ca7" opacity="0.5"/>
<rect x="1067.9" y="218.0" width="6" height="8" fill="#759ca7" opacity="0.5"/>
<rect x="1025.9" y="234.0" width="6" height="8" fill="#759ca7" opacity="0.5"/>
<rect x="1053.9" y="234.0" width="6" height="8" fill="#759ca7" opacity="0.5"/>
<rect x="1067.9" y="234.0" width="6" height="8" fill="#759ca7" opacity="0.5"/>
<rect x="1053.9" y="250.0" width="6" height="8" fill="#759ca7" opacity="0.5"/>
<rect x="1067.9" y="250.0" width="6" height="8" fill="#759ca7" opacity="0.5"/>
<rect x="1025.9" y="266.0" width="6" height="8" fill="#759ca7" opacity="0.5"/>
<rect x="1053.9" y="266.0" width="6" height="8" fill="#759ca7" opacity="0.5"/>
<rect x="1067.9" y="266.0" width="6" height="8" fill="#759ca7" opacity="0.5"/>
<rect x="0" y="298" width="1200" height="2" fill="#275d6b" opacity="0.15"/>
</svg>