<svg xmlns="http://www.w3.org/2000/svg" viewBox="0 0 1200 400" width="1200" height="400">
<defs>
<linearGradient id="bg" x1="0" y1="0" x2="0" y2="1"><stop offset="0%" stop-color="#94a3b8"/><stop offset="100%" stop-color="#0369a1"/></linearGradient>
<linearGradient id="warm" x1="0" y1="0" x2="1" y2="1"><stop offset="0%" stop-color="#8f8f8c" stop-opacity="0.18"/><stop offset="100%" stop-color="#8f8f8c" stop-opacity="0.06"/></linearGradient>
</defs>
<rect width="1200" height="400" fill="url(#bg)"/>
<path d="M0 400 L0 226.54304350887284 C60.0 217.2, 90.0 250.5, 150.0 247.8 C210.0 250.3, 240.0 220.3, 300.0 224.8 C360.0 227.3, 390.0 224.7, 450.0 226.5 C510.0 231.8, 540.0 241.8, 600.0 233.5 C660.0 232.2, 690.0 246.0, 750.0 253.8 C810.0 246.0, 840.0 226.9, 900.0 223.1 C960.0 232.6, 990.0 214.8, 1050.0 218.4 C1110.0 222.2, 1140.0 224.2, 1200.0 225.5 L1200 400 Z" fill="#367da9" opacity="0.45"/>
<path d="M0 400 L0 265.97099177440856 C52.5 262.5, 97.5 272.8, 150.0 265.6 C202.5 269.5, 247.5 260.2, 300.0 253.2 C352.5 247.9, 397.5 281.5, 450.0 275.1 C502.5 272.8, 547.5 252.8, 600.0 259.9 C652.5 265.5, 697.5 257.1, 750.0 260.6 C802.5 260.4, 847.5 275.4, 900.0 269.8 C952.5 276.8, 997.5 272.9, 1050.0 272.5 C1102.5 273.5, 1147.5 277.3, 1200.0 272.0 L1200 400 Z" fill="#0369a1" opacity="0.3"/>
<rect x="612.8" y="270.6" width="37.1" height="129.4" rx="5.1" fill="#04847f" opacity="0.81"/>
<rect x="140.9" y="304.1" width="25.0" height="95.9" rx="5.3" fill="#05916f" opacity="0.55"/>
<rect x="145.9" y="336.1" width="4" height="5" rx="0.5" fill="#94a3b8" opacity="0.6"/>
<rect x="255.2" y="340.2" width="32.0" height="59.8" rx="7.9" fill="#05936c" opacity="0.69"/>
<rect x="652.3" y="317.5" width="35.0" height="82.5" rx="4.6" fill="#04857f" opacity="0.81"/>
<rect x="657.3" y="327.5" width="4" height="5" rx="0.5" fill="#94a3b8" opacity="0.6"/>
<rect x="657.3" y="349.5" width="4" height="5" rx="0.5" fill="#94a3b8" opacity="0.6"/>
<rect x="657.3" y="371.5" width="4" height="5" rx="0.5" fill="#94a3b8" opacity="0.6"/>
<rect x="668.9" y="371.5" width="4" height="5" rx="0.5" fill="#94a3b8" opacity="0.6"/>
<rect x="182.8" y="349.4" width="34.9" height="50.6" rx="6.9" fill="#048979" opacity="0.64"/>
<rect x="741.9" y="255.5" width="38.8" height="144.5" rx="3.0" fill="#048282" opacity="0.80"/>
<rect x="746.9" y="287.5" width="4" height="5" rx="0.5" fill="#94a3b8" opacity="0.6"/>
<rect x="759.9" y="287.5" width="4" height="5" rx="0.5" fill="#94a3b8" opacity="0.6"/>
<rect x="746.9" y="309.5" width="4" height="5" rx="0.5" fill="#94a3b8" opacity="0.6"/>
<rect x="759.9" y="331.5" width="4" height="5" rx="0.5" fill="#94a3b8" opacity="0.6"/>
<rect x="900.7" y="303.5" width="47.2" height="96.5" rx="4.6" fill="#047f86" opacity="0.51"/>
<rect x="663.9" y="364.0" width="36.2" height="36.0" rx="7.3" fill="#047d88" opacity="0.72"/>
<rect x="947.8" y="293.7" width="28.3" height="106.3" rx="3.2" fill="#058d74" opacity="0.57"/>
<rect x="186.3" y="255.1" width="26.1" height="144.9" rx="4.8" fill="#048979" opacity="0.70"/>
<rect x="191.3" y="309.1" width="4" height="5" rx="0.5" fill="#94a3b8" opacity="0.6"/>
<rect x="939.5" y="283.5" width="39.7" height="116.5" rx="5.0" fill="#058c76" opacity="0.68"/>
<rect x="944.5" y="293.5" width="4" height="5" rx="0.5" fill="#94a3b8" opacity="0.6"/>
<rect x="944.5" y="315.5" width="4" height="5" rx="0.5" fill="#94a3b8" opacity="0.6"/>
<rect x="957.7" y="315.5" width="4" height="5" rx="0.5" fill="#94a3b8" opacity="0.6"/>
<rect x="944.5" y="359.5" width="4" height="5" rx="0.5" fill="#94a3b8" opacity="0.6"/>
<rect x="886.2" y="261.5" width="31.2" height="138.5" rx="6.9" fill="#058c76" opacity="0.59"/>
<rect x="891.2" y="271.5" width="4" height="5" rx="0.5" fill="#94a3b8" opacity="0.6"/>
<rect x="891.2" y="315.5" width="4" height="5" rx="0.5" fill="#94a3b8" opacity="0.6"/>
<rect x="891.2" y="337.5" width="4" height="5" rx="0.5" fill="#94a3b8" opacity="0.6"/>
<rect x="368.1" y="367.2" width="19.8" height="32.8" rx="4.6" fill="#04867c" opacity="0.56"/>
<rect x="612.3" y="335.6" width="42.4" height="64.4" rx="5.8" fill="#058f71" opacity="0.60"/>
<circle cx="387.8" cy="25.2" r="9.8" fill="#94a3b8" opacity="0.27"/>
<circle cx="437.0" cy="197.3" r="6.3" fill="#059669" opacity="0.17"/>
<rect width="1200" height="400" fill="url(#warm)"/>
<rect width="1200" height="400" fill="#94a3b8" opacity="0.45"/>
</svg>