<svg xmlns="http://www.w3.org/2000/svg" viewBox="0 0 1200 300" width="1200" height="300">
<defs>
<linearGradient id="skyGrad" x1="0" y1="0" x2="0" y2="1">
<stop offset="0%" stop-color="#818cf8"/>
<stop offset="20%" stop-color="#c4b5fd"/>
<stop offset="38%" stop-color="#fda4af"/>
<stop offset="55%" stop-color="#fdba74"/>
<stop offset="75%" stop-color="#fef08a"/>
<stop offset="100%" stop-color="#fef9c3"/>
</linearGradient>
<linearGradient id="bldg_coral" x1="0" y1="0" x2="0" y2="1"><stop offset="0%" stop-color="#fecaca"/><stop offset="100%" stop-color="#fca5a5"/></linearGradient>
<linearGradient id="bldg_teal" x1="0" y1="0" x2="0" y2="1"><stop offset="0%" stop-color="#99f6e4"/><stop offset="100%" stop-color="#5eead4"/></linearGradient>
<linearGradient id="bldg_amber" x1="0" y1="0" x2="0" y2="1"><stop offset="0%" stop-color="#fde68a"/><stop offset="100%" stop-color="#fcd34d"/></linearGradient>
<linearGradient id="bldg_lavender" x1="0" y1="0" x2="0" y2="1"><stop offset="0%" stop-color="#ddd6fe"/><stop offset="100%" stop-color="#c4b5fd"/></linearGradient>
<linearGradient id="bldg_blue" x1="0" y1="0" x2="0" y2="1"><stop offset="0%" stop-color="#bfdbfe"/><stop offset="100%" stop-color="#93c5fd"/></linearGradient>
<linearGradient id="bldg_mint" x1="0" y1="0" x2="0" y2="1"><stop offset="0%" stop-color="#a7f3d0"/><stop offset="100%" stop-color="#6ee7b7"/></linearGradient>
<linearGradient id="bldg_rose" x1="0" y1="0" x2="0" y2="1"><stop offset="0%" stop-color="#fecdd3"/><stop offset="100%" stop-color="#fda4af"/></linearGradient>
<linearGradient id="bldg_sky" x1="0" y1="0" x2="0" y2="1"><stop offset="0%" stop-color="#bae6fd"/><stop offset="100%" stop-color="#7dd3fc"/></linearGradient>
<linearGradient id="roof_navyRoof" x1="0" y1="0" x2="0" y2="1"><stop offset="0%" stop-color="#4338ca"/><stop offset="100%" stop-color="#3730a3"/></linearGradient>
<linearGradient id="roof_coralRoof" x1="0" y1="0" x2="0" y2="1"><stop offset="0%" stop-color="#f87171"/><stop offset="100%" stop-color="#ef4444"/></linearGradient>
<linearGradient id="roof_tealRoof" x1="0" y1="0" x2="0" y2="1"><stop offset="0%" stop-color="#2dd4bf"/><stop offset="100%" stop-color="#14b8a6"/></linearGradient>
<radialGradient id="windowGlow" cx="50%" cy="50%" r="50%"><stop offset="0%" stop-color="#fef08a"/><stop offset="60%" stop-color="#fbbf24"/><stop offset="100%" stop-color="#f59e0b"/></radialGradient>
<linearGradient id="hillFar" x1="0" y1="0" x2="0" y2="1"><stop offset="0%" stop-color="#c4b5fd"/><stop offset="100%" stop-color="#a5b4fc"/></linearGradient>
<linearGradient id="hillMid" x1="0" y1="0" x2="0" y2="1"><stop offset="0%" stop-color="#86efac"/><stop offset="100%" stop-color="#4ade80"/></linearGradient>
<linearGradient id="hillNear" x1="0" y1="0" x2="0" y2="1"><stop offset="0%" stop-color="#34d399"/><stop offset="100%" stop-color="#10b981"/></linearGradient>
<linearGradient id="hillDesertFar" x1="0" y1="0" x2="0" y2="1"><stop offset="0%" stop-color="#fde68a"/><stop offset="100%" stop-color="#fcd34d"/></linearGradient>
<linearGradient id="hillDesertMid" x1="0" y1="0" x2="0" y2="1"><stop offset="0%" stop-color="#fcd34d"/><stop offset="100%" stop-color="#fbbf24"/></linearGradient>
<linearGradient id="hillDesertNear" x1="0" y1="0" x2="0" y2="1"><stop offset="0%" stop-color="#fbbf24"/><stop offset="100%" stop-color="#f59e0b"/></linearGradient>
<linearGradient id="groundGrad" x1="0" y1="0" x2="0" y2="1"><stop offset="0%" stop-color="#fef3c7"/><stop offset="100%" stop-color="#fde68a"/></linearGradient>
<linearGradient id="waterGrad" x1="0" y1="0" x2="0" y2="1"><stop offset="0%" stop-color="#bfdbfe"/><stop offset="100%" stop-color="#93c5fd"/></linearGradient>
<filter id="softGlow" x="-50%" y="-50%" width="200%" height="200%"><feGaussianBlur in="SourceGraphic" stdDeviation="12"/></filter>
</defs>
<rect width="1200" height="300" fill="url(#skyGrad)"/>
<circle cx="939.0" cy="55.7" r="45" fill="#fef08a" opacity="0.12" filter="url(#softGlow)"/>
<circle cx="939.0" cy="55.7" r="30" fill="#fde68a" opacity="0.18" filter="url(#softGlow)"/>
<circle cx="939.0" cy="55.7" r="16" fill="#fef9c3" opacity="0.25" filter="url(#softGlow)"/>
<ellipse cx="393.7" cy="34.6" rx="32.8" ry="11.5" fill="white" opacity="0.7"/>
<ellipse cx="373.2" cy="37.9" rx="23.0" ry="9.0" fill="white" opacity="0.6"/>
<ellipse cx="411.8" cy="37.1" rx="26.3" ry="9.8" fill="white" opacity="0.6"/>
<ellipse cx="201.4" cy="27.4" rx="43.3" ry="15.1" fill="white" opacity="0.4"/>
<ellipse cx="174.4" cy="31.8" rx="30.3" ry="11.9" fill="white" opacity="0.4"/>
<ellipse cx="225.2" cy="30.7" rx="34.6" ry="13.0" fill="white" opacity="0.3"/>
<path d="M0 300 L0.0 193.8 C159.4 193.8, 159.4 185.5, 318.9 185.5 C479.3 185.5, 479.3 174.7, 639.7 174.7 C765.0 174.7, 765.0 192.0, 890.3 192.0 C1045.1 192.0, 1045.1 202.9, 1200.0 202.9 L1200 300 Z" fill="url(#hillFar)" opacity="0.5"/>
<path d="M0 300 L0.0 206.8 C247.5 206.8, 247.5 211.6, 495.0 211.6 C666.0 211.6, 666.0 209.9, 837.0 209.9 C1018.5 209.9, 1018.5 213.4, 1200.0 213.4 L1200 300 Z" fill="url(#hillMid)" opacity="0.7"/>
<path d="M0 300 L0.0 230.7 C152.5 230.7, 152.5 228.9, 305.0 228.9 C531.9 228.9, 531.9 234.1, 758.8 234.1 C979.4 234.1, 979.4 231.7, 1200.0 231.7 L1200 300 Z" fill="url(#hillNear)" opacity="1"/>
<path d="M0 208.5 C476.6 180.7, 893.8 173.8, 1200 189.4" fill="none" stroke="url(#waterGrad)" stroke-width="42.4" stroke-linecap="round" opacity="0.5"/>
<path d="M195.4 180.0 Q389.8 19.0 458.1 19.0 Q526.4 19.0 720.8 180.0 Z" fill="#c4b5fd" opacity="0.35"/>
<path d="M313.4 180.0 Q517.1 54.7 588.7 54.7 Q660.2 54.7 863.9 180.0 Z" fill="#c4b5fd" opacity="0.35"/>
<path d="M533.6 73.5 Q572.1 52.7 588.7 54.7 Q605.2 52.7 643.7 73.5 Z" fill="white" opacity="0.5"/>
<path d="M429.8 180.0 Q601.9 53.7 662.4 53.7 Q722.9 53.7 895.0 180.0 Z" fill="#c4b5fd" opacity="0.35"/>
<path d="M615.9 72.6 Q648.4 51.7 662.4 53.7 Q676.3 51.7 708.9 72.6 Z" fill="white" opacity="0.5"/>
<rect x="208.6" y="198.0" width="63.9" height="102.0" rx="3" fill="url(#bldg_teal)" opacity="0.7"/>
<rect x="208.6" y="195.0" width="63.9" height="3" rx="1" fill="url(#roof_tealRoof)" opacity="0.7"/>
<rect x="223.6" y="208.0" width="6" height="8" rx="1" fill="url(#windowGlow)" opacity="0.7537480530579332"/>
<rect x="251.6" y="208.0" width="6" height="8" rx="1" fill="url(#windowGlow)" opacity="0.8403436272592952"/>
<rect x="223.6" y="223.0" width="6" height="8" rx="1" fill="url(#windowGlow)" opacity="0.9117143674342494"/>
<rect x="237.6" y="223.0" width="6" height="8" rx="1" fill="url(#windowGlow)" opacity="0.8943557222813161"/>
<rect x="223.6" y="238.0" width="6" height="8" rx="1" fill="url(#windowGlow)" opacity="0.9593337071404483"/>
<rect x="237.6" y="238.0" width="6" height="8" rx="1" fill="url(#windowGlow)" opacity="0.7073559216257911"/>
<rect x="223.6" y="253.0" width="6" height="8" rx="1" fill="url(#windowGlow)" opacity="0.8285737962595064"/>
<rect x="237.6" y="253.0" width="6" height="8" rx="1" fill="url(#windowGlow)" opacity="0.7233619451165952"/>
<rect x="251.6" y="253.0" width="6" height="8" rx="1" fill="url(#windowGlow)" opacity="0.9302003495070152"/>
<rect x="562.2" y="215.0" width="46.2" height="85.0" rx="3" fill="url(#bldg_amber)" opacity="0.7"/>
<rect x="562.2" y="212.0" width="46.2" height="3" rx="1" fill="url(#roof_navyRoof)" opacity="0.7"/>
<rect x="575.3" y="225.0" width="6" height="8" rx="1" fill="url(#windowGlow)" opacity="0.9439839921165183"/>
<rect x="589.3" y="225.0" width="6" height="8" rx="1" fill="url(#windowGlow)" opacity="0.9564339773992234"/>
<rect x="589.3" y="240.0" width="6" height="8" rx="1" fill="url(#windowGlow)" opacity="0.890657919966922"/>
<rect x="589.3" y="255.0" width="6" height="8" rx="1" fill="url(#windowGlow)" opacity="0.9605297225809328"/>
<rect x="947.2" y="236.5" width="46.0" height="63.5" rx="3" fill="url(#bldg_lavender)" opacity="0.7"/>
<rect x="947.2" y="233.5" width="46.0" height="3" rx="1" fill="url(#roof_coralRoof)" opacity="0.7"/>
<rect x="960.2" y="246.5" width="6" height="8" rx="1" fill="url(#windowGlow)" opacity="0.828664668662783"/>
<rect x="974.2" y="246.5" width="6" height="8" rx="1" fill="url(#windowGlow)" opacity="0.9586825504706624"/>
<rect x="165.9" y="206.4" width="45.7" height="93.6" rx="3" fill="url(#bldg_blue)" opacity="0.85"/>
<polygon points="165.9,206.4 188.7,195.0 211.6,206.4" fill="url(#roof_tealRoof)" opacity="0.85"/>
<rect x="192.7" y="216.4" width="6" height="8" rx="1" fill="url(#windowGlow)" opacity="0.8114600011666584"/>
<rect x="178.7" y="231.4" width="6" height="8" rx="1" fill="url(#windowGlow)" opacity="0.7207152601427935"/>
<rect x="192.7" y="231.4" width="6" height="8" rx="1" fill="url(#windowGlow)" opacity="0.846208576087937"/>
<rect x="178.7" y="246.4" width="6" height="8" rx="1" fill="url(#windowGlow)" opacity="0.9956644903382585"/>
<rect x="192.7" y="246.4" width="6" height="8" rx="1" fill="url(#windowGlow)" opacity="0.7935551618661523"/>
<rect x="402.5" y="194.4" width="62.3" height="105.6" rx="3" fill="url(#bldg_mint)" opacity="0.85"/>
<polygon points="402.5,194.4 433.7,175.1 464.8,194.4" fill="url(#roof_navyRoof)" opacity="0.85"/>
<rect x="416.7" y="204.4" width="6" height="8" rx="1" fill="url(#windowGlow)" opacity="0.956092684602408"/>
<rect x="430.7" y="204.4" width="6" height="8" rx="1" fill="url(#windowGlow)" opacity="0.8139011529339016"/>
<rect x="444.7" y="204.4" width="6" height="8" rx="1" fill="url(#windowGlow)" opacity="0.994097593144559"/>
<rect x="416.7" y="219.4" width="6" height="8" rx="1" fill="url(#windowGlow)" opacity="0.8163245427498242"/>
<rect x="430.7" y="219.4" width="6" height="8" rx="1" fill="url(#windowGlow)" opacity="0.9493469211037023"/>
<rect x="416.7" y="234.4" width="6" height="8" rx="1" fill="url(#windowGlow)" opacity="0.9190959839239232"/>
<rect x="430.7" y="234.4" width="6" height="8" rx="1" fill="url(#windowGlow)" opacity="0.8513219938386799"/>
<rect x="444.7" y="234.4" width="6" height="8" rx="1" fill="url(#windowGlow)" opacity="0.9394355710779482"/>
<rect x="416.7" y="249.4" width="6" height="8" rx="1" fill="url(#windowGlow)" opacity="0.8150475560291891"/>
<rect x="430.7" y="249.4" width="6" height="8" rx="1" fill="url(#windowGlow)" opacity="0.9095318490683715"/>
<rect x="444.7" y="249.4" width="6" height="8" rx="1" fill="url(#windowGlow)" opacity="0.7587995033985001"/>
<path d="M408.8 231.3 L433.7 231.3 L430.7 237.3 L411.8 237.3 Z" fill="url(#roof_tealRoof)" opacity="0.68"/>
<rect x="689.7" y="157.7" width="50.4" height="142.3" rx="3" fill="url(#bldg_rose)" opacity="0.85"/>
<polygon points="689.7,157.7 714.9,147.4 740.1,157.7" fill="url(#roof_coralRoof)" opacity="0.85"/>
<rect x="704.9" y="167.7" width="6" height="8" rx="1" fill="url(#windowGlow)" opacity="0.7970159848672412"/>
<rect x="718.9" y="167.7" width="6" height="8" rx="1" fill="url(#windowGlow)" opacity="0.7545563437298668"/>
<rect x="704.9" y="182.7" width="6" height="8" rx="1" fill="url(#windowGlow)" opacity="0.7899660337203955"/>
<rect x="718.9" y="182.7" width="6" height="8" rx="1" fill="url(#windowGlow)" opacity="0.8672941735793342"/>
<rect x="704.9" y="197.7" width="6" height="8" rx="1" fill="url(#windowGlow)" opacity="0.7863118038914687"/>
<rect x="718.9" y="197.7" width="6" height="8" rx="1" fill="url(#windowGlow)" opacity="0.7314998481569345"/>
<rect x="704.9" y="212.7" width="6" height="8" rx="1" fill="url(#windowGlow)" opacity="0.8154676153862233"/>
<rect x="718.9" y="212.7" width="6" height="8" rx="1" fill="url(#windowGlow)" opacity="0.8092578994618997"/>
<rect x="704.9" y="227.7" width="6" height="8" rx="1" fill="url(#windowGlow)" opacity="0.8096119178038146"/>
<rect x="704.9" y="242.7" width="6" height="8" rx="1" fill="url(#windowGlow)" opacity="0.8299476846260706"/>
<rect x="718.9" y="242.7" width="6" height="8" rx="1" fill="url(#windowGlow)" opacity="0.8087780294980751"/>
<rect x="704.9" y="257.7" width="6" height="8" rx="1" fill="url(#windowGlow)" opacity="0.9094534253279927"/>
<rect x="718.9" y="257.7" width="6" height="8" rx="1" fill="url(#windowGlow)" opacity="0.9454093728891617"/>
<path d="M714.9 207.5 L735.0 207.5 L732.0 213.5 L717.9 213.5 Z" fill="url(#roof_navyRoof)" opacity="0.68"/>
<rect x="1000.6" y="188.0" width="43.9" height="112.0" rx="3" fill="url(#bldg_sky)" opacity="0.85"/>
<rect x="1000.6" y="185.0" width="43.9" height="3" rx="1" fill="url(#roof_tealRoof)" opacity="0.85"/>
<rect x="1019.5" y="198.0" width="6" height="8" rx="1" fill="url(#windowGlow)" opacity="0.9946335654215112"/>
<rect x="1019.5" y="213.0" width="6" height="8" rx="1" fill="url(#windowGlow)" opacity="0.8780477231266199"/>
<rect x="1019.5" y="228.0" width="6" height="8" rx="1" fill="url(#windowGlow)" opacity="0.9091999494513496"/>
<rect x="1019.5" y="243.0" width="6" height="8" rx="1" fill="url(#windowGlow)" opacity="0.9229668948906319"/>
<rect x="1019.5" y="258.0" width="6" height="8" rx="1" fill="url(#windowGlow)" opacity="0.8940017736488961"/>
<rect x="205.1" y="205.7" width="53.3" height="94.3" rx="3" fill="url(#bldg_coral)" opacity="1"/>
<polygon points="205.1,205.7 231.7,188.4 258.4,205.7" fill="url(#roof_navyRoof)" opacity="1"/>
<rect x="221.7" y="215.7" width="6" height="8" rx="1" fill="url(#windowGlow)" opacity="0.7685231524373046"/>
<rect x="235.7" y="215.7" width="6" height="8" rx="1" fill="url(#windowGlow)" opacity="0.9353803458322679"/>
<rect x="221.7" y="230.7" width="6" height="8" rx="1" fill="url(#windowGlow)" opacity="0.7131149776806659"/>
<rect x="235.7" y="230.7" width="6" height="8" rx="1" fill="url(#windowGlow)" opacity="0.8508995868502648"/>
<rect x="221.7" y="245.7" width="6" height="8" rx="1" fill="url(#windowGlow)" opacity="0.8736453800805124"/>
<rect x="235.7" y="245.7" width="6" height="8" rx="1" fill="url(#windowGlow)" opacity="0.7282176715918899"/>
<rect x="221.7" y="260.7" width="6" height="8" rx="1" fill="url(#windowGlow)" opacity="0.8598606725502109"/>
<rect x="226.7" y="284.0" width="10" height="16" rx="2" fill="url(#roof_navyRoof)" opacity="0.8"/>
<rect x="228.7" y="287.0" width="6" height="10" rx="1" fill="url(#windowGlow)" opacity="0.45"/>
<path d="M210.4 238.7 L231.7 238.7 L228.7 244.7 L213.4 244.7 Z" fill="url(#roof_tealRoof)" opacity="0.8"/>
<rect x="606.6" y="169.5" width="60.9" height="130.5" rx="3" fill="url(#bldg_teal)" opacity="1"/>
<polygon points="606.6,169.5 637.0,154.4 667.5,169.5" fill="url(#roof_coralRoof)" opacity="1"/>
<rect x="620.0" y="179.5" width="6" height="8" rx="1" fill="url(#windowGlow)" opacity="0.7320340306181619"/>
<rect x="634.0" y="179.5" width="6" height="8" rx="1" fill="url(#windowGlow)" opacity="0.8192072331994805"/>
<rect x="648.0" y="179.5" width="6" height="8" rx="1" fill="url(#windowGlow)" opacity="0.9169029049188377"/>
<rect x="634.0" y="194.5" width="6" height="8" rx="1" fill="url(#windowGlow)" opacity="0.7442534944248634"/>
<rect x="648.0" y="194.5" width="6" height="8" rx="1" fill="url(#windowGlow)" opacity="0.9274254398548162"/>
<rect x="620.0" y="209.5" width="6" height="8" rx="1" fill="url(#windowGlow)" opacity="0.7396194759940818"/>
<rect x="634.0" y="209.5" width="6" height="8" rx="1" fill="url(#windowGlow)" opacity="0.8352219506796551"/>
<rect x="620.0" y="224.5" width="6" height="8" rx="1" fill="url(#windowGlow)" opacity="0.9797068888227021"/>
<rect x="634.0" y="224.5" width="6" height="8" rx="1" fill="url(#windowGlow)" opacity="0.88152709234577"/>
<rect x="648.0" y="224.5" width="6" height="8" rx="1" fill="url(#windowGlow)" opacity="0.7488591505907751"/>
<rect x="620.0" y="239.5" width="6" height="8" rx="1" fill="url(#windowGlow)" opacity="0.9404755740149298"/>
<rect x="648.0" y="239.5" width="6" height="8" rx="1" fill="url(#windowGlow)" opacity="0.7328813799810043"/>
<rect x="634.0" y="254.5" width="6" height="8" rx="1" fill="url(#windowGlow)" opacity="0.7588885928312729"/>
<rect x="648.0" y="254.5" width="6" height="8" rx="1" fill="url(#windowGlow)" opacity="0.7936014125093824"/>
<rect x="632.0" y="284.0" width="10" height="16" rx="2" fill="url(#roof_navyRoof)" opacity="0.8"/>
<rect x="634.0" y="287.0" width="6" height="10" rx="1" fill="url(#windowGlow)" opacity="0.45"/>
<rect x="923.2" y="178.4" width="73.4" height="121.6" rx="3" fill="url(#bldg_amber)" opacity="1"/>
<polygon points="923.2,178.4 959.9,162.2 996.6,178.4" fill="url(#roof_tealRoof)" opacity="1"/>
<rect x="935.9" y="188.4" width="6" height="8" rx="1" fill="url(#windowGlow)" opacity="0.7424724912934343"/>
<rect x="949.9" y="188.4" width="6" height="8" rx="1" fill="url(#windowGlow)" opacity="0.7632335772566653"/>
<rect x="963.9" y="188.4" width="6" height="8" rx="1" fill="url(#windowGlow)" opacity="0.9936429349675975"/>
<rect x="977.9" y="188.4" width="6" height="8" rx="1" fill="url(#windowGlow)" opacity="0.9645322290084009"/>
<rect x="935.9" y="203.4" width="6" height="8" rx="1" fill="url(#windowGlow)" opacity="0.73694719548195"/>
<rect x="949.9" y="203.4" width="6" height="8" rx="1" fill="url(#windowGlow)" opacity="0.9049182566371365"/>
<rect x="963.9" y="203.4" width="6" height="8" rx="1" fill="url(#windowGlow)" opacity="0.8172100165007682"/>
<rect x="977.9" y="203.4" width="6" height="8" rx="1" fill="url(#windowGlow)" opacity="0.8971267886912109"/>
<rect x="949.9" y="218.4" width="6" height="8" rx="1" fill="url(#windowGlow)" opacity="0.9478603717162555"/>
<rect x="977.9" y="218.4" width="6" height="8" rx="1" fill="url(#windowGlow)" opacity="0.8221453894964165"/>
<rect x="935.9" y="233.4" width="6" height="8" rx="1" fill="url(#windowGlow)" opacity="0.8982111264477535"/>
<rect x="949.9" y="233.4" width="6" height="8" rx="1" fill="url(#windowGlow)" opacity="0.7891522119702549"/>
<rect x="977.9" y="233.4" width="6" height="8" rx="1" fill="url(#windowGlow)" opacity="0.9695063407856535"/>
<rect x="935.9" y="248.4" width="6" height="8" rx="1" fill="url(#windowGlow)" opacity="0.99374616355344"/>
<rect x="949.9" y="248.4" width="6" height="8" rx="1" fill="url(#windowGlow)" opacity="0.9942477860926873"/>
<rect x="963.9" y="248.4" width="6" height="8" rx="1" fill="url(#windowGlow)" opacity="0.9387926746340434"/>
<rect x="977.9" y="248.4" width="6" height="8" rx="1" fill="url(#windowGlow)" opacity="0.7371666422286847"/>
<rect x="954.9" y="284.0" width="10" height="16" rx="2" fill="url(#roof_navyRoof)" opacity="0.8"/>
<rect x="956.9" y="287.0" width="6" height="10" rx="1" fill="url(#windowGlow)" opacity="0.45"/>
<rect x="455.7" y="209.4" width="10" height="60.6" rx="2" fill="url(#roof_coralRoof)"/>
<rect x="667.9" y="209.4" width="10" height="60.6" rx="2" fill="url(#roof_coralRoof)"/>
<line x1="445.7" y1="270.0" x2="687.9" y2="270.0" stroke="#f87171" stroke-width="4"/>
<path d="M460.7 214.4 Q566.8 262.0 672.9 214.4" fill="none" stroke="#fda4af" stroke-width="2"/>
<line x1="491.1" y1="254.4" x2="491.1" y2="270.0" stroke="#fda4af" stroke-width="1" opacity="0.6"/>
<line x1="521.4" y1="277.7" x2="521.4" y2="270.0" stroke="#fda4af" stroke-width="1" opacity="0.6"/>
<line x1="551.7" y1="289.3" x2="551.7" y2="270.0" stroke="#fda4af" stroke-width="1" opacity="0.6"/>
<line x1="582.0" y1="289.3" x2="582.0" y2="270.0" stroke="#fda4af" stroke-width="1" opacity="0.6"/>
<line x1="612.3" y1="277.7" x2="612.3" y2="270.0" stroke="#fda4af" stroke-width="1" opacity="0.6"/>
<line x1="642.6" y1="254.4" x2="642.6" y2="270.0" stroke="#fda4af" stroke-width="1" opacity="0.6"/>
<rect x="429.5" y="275.0" width="6" height="10.0" rx="2" fill="#92400e"/>
<polygon points="432.5,237.4 427.6,254.9 437.4,254.9" fill="#15803d" opacity="0.9"/>
<polygon points="432.5,249.9 425.6,267.5 439.4,267.5" fill="#16a34a" opacity="0.9"/>
<polygon points="432.5,262.5 423.6,280.0 441.4,280.0" fill="#22c55e" opacity="0.9"/>
<rect x="792.3" y="275.0" width="6" height="10.0" rx="2" fill="#92400e"/>
<polygon points="795.3,239.4 789.5,256.2 801.1,256.2" fill="#15803d" opacity="0.9"/>
<polygon points="795.3,251.2 787.2,268.1 803.5,268.1" fill="#16a34a" opacity="0.9"/>
<polygon points="795.3,263.1 784.9,280.0 805.8,280.0" fill="#22c55e" opacity="0.9"/>
<rect x="165.4" y="275.0" width="6" height="10.0" rx="2" fill="#92400e"/>
<polygon points="168.4,236.1 163.8,254.1 172.9,254.1" fill="#15803d" opacity="0.9"/>
<polygon points="168.4,249.1 162.0,267.0 174.7,267.0" fill="#16a34a" opacity="0.9"/>
<polygon points="168.4,262.0 160.2,280.0 176.5,280.0" fill="#22c55e" opacity="0.9"/>
<rect x="1026.0" y="275.0" width="6" height="10.0" rx="2" fill="#92400e"/>
<polygon points="1029.0,237.5 1023.1,255.0 1034.9,255.0" fill="#15803d" opacity="0.9"/>
<polygon points="1029.0,250.0 1020.8,267.5 1037.2,267.5" fill="#16a34a" opacity="0.9"/>
<polygon points="1029.0,262.5 1018.4,280.0 1039.6,280.0" fill="#22c55e" opacity="0.9"/>
<rect x="0" y="282" width="1200" height="18" fill="url(#groundGrad)"/>
<line x1="822.8" y1="282.0" x2="822.8" y2="246.1" stroke="#92400e" stroke-width="2"/>
<circle cx="822.8" cy="246.1" r="4" fill="#fef08a" opacity="0.6"/>
<circle cx="822.8" cy="246.1" r="8" fill="#fef08a" opacity="0.15" filter="url(#softGlow)"/>
<ellipse cx="214.9" cy="282.0" rx="5.0" ry="3.5" fill="#22c55e" opacity="0.6"/>
<ellipse cx="912.9" cy="282.0" rx="6.5" ry="4.6" fill="#22c55e" opacity="0.6"/>
<ellipse cx="941.2" cy="282.0" rx="5.0" ry="3.5" fill="#22c55e" opacity="0.6"/>
</svg>