<svg xmlns="http://www.w3.org/2000/svg" viewBox="0 0 1200 400" width="1200" height="400">
<defs>
<linearGradient id="bg" x1="0" y1="0" x2="0" y2="1"><stop offset="0%" stop-color="#94a3b8"/><stop offset="100%" stop-color="#0369a1"/></linearGradient>
<linearGradient id="warm" x1="0" y1="0" x2="1" y2="1"><stop offset="0%" stop-color="#a39272" stop-opacity="0.18"/><stop offset="100%" stop-color="#a39272" stop-opacity="0.06"/></linearGradient>
</defs>
<rect width="1200" height="400" fill="url(#bg)"/>
<path d="M0 400 L0 234.59263017905195 C60.0 228.1, 90.0 242.6, 150.0 234.6 C210.0 243.5, 240.0 226.9, 300.0 222.4 C360.0 220.6, 390.0 213.9, 450.0 216.1 C510.0 216.4, 540.0 227.7, 600.0 232.2 C660.0 232.3, 690.0 220.1, 750.0 221.2 C810.0 226.6, 840.0 248.1, 900.0 254.1 C960.0 244.7, 990.0 250.0, 1050.0 248.6 C1110.0 256.2, 1140.0 215.8, 1200.0 220.6 L1200 400 Z" fill="#367da9" opacity="0.45"/>
<path d="M0 400 L0 259.4097292891901 C52.5 254.2, 97.5 274.0, 150.0 273.7 C202.5 275.8, 247.5 275.2, 300.0 272.6 C352.5 273.7, 397.5 275.1, 450.0 274.7 C502.5 277.9, 547.5 250.8, 600.0 253.1 C652.5 253.8, 697.5 260.7, 750.0 259.3 C802.5 256.2, 847.5 262.3, 900.0 256.2 C952.5 252.6, 997.5 256.7, 1050.0 260.8 C1102.5 262.3, 1147.5 247.5, 1200.0 253.2 L1200 400 Z" fill="#0369a1" opacity="0.3"/>
<rect x="267.1" y="292.3" width="42.9" height="107.7" rx="5.9" fill="#048480" opacity="0.64"/>
<rect x="727.4" y="295.4" width="37.5" height="104.6" rx="4.8" fill="#047b8a" opacity="0.60"/>
<rect x="637.9" y="270.7" width="23.1" height="129.3" rx="6.4" fill="#048183" opacity="0.68"/>
<rect x="642.9" y="280.7" width="4" height="5" rx="0.5" fill="#94a3b8" opacity="0.6"/>
<rect x="532.0" y="319.9" width="42.6" height="80.1" rx="4.4" fill="#05946b" opacity="0.66"/>
<rect x="888.1" y="350.9" width="38.7" height="49.1" rx="6.2" fill="#047c8a" opacity="0.62"/>
<rect x="371.5" y="325.5" width="24.2" height="74.5" rx="6.7" fill="#048a77" opacity="0.80"/>
<rect x="736.7" y="322.8" width="47.5" height="77.2" rx="3.9" fill="#04887b" opacity="0.52"/>
<rect x="525.5" y="304.0" width="28.1" height="96.0" rx="3.2" fill="#04857e" opacity="0.70"/>
<rect x="530.5" y="314.0" width="4" height="5" rx="0.5" fill="#94a3b8" opacity="0.6"/>
<rect x="530.5" y="336.0" width="4" height="5" rx="0.5" fill="#94a3b8" opacity="0.6"/>
<rect x="530.5" y="358.0" width="4" height="5" rx="0.5" fill="#94a3b8" opacity="0.6"/>
<rect x="561.0" y="293.1" width="21.9" height="106.9" rx="7.3" fill="#048183" opacity="0.74"/>
<rect x="615.1" y="284.2" width="34.6" height="115.8" rx="7.5" fill="#048183" opacity="0.65"/>
<rect x="620.1" y="294.2" width="4" height="5" rx="0.5" fill="#94a3b8" opacity="0.6"/>
<rect x="631.7" y="316.2" width="4" height="5" rx="0.5" fill="#94a3b8" opacity="0.6"/>
<rect x="631.7" y="338.2" width="4" height="5" rx="0.5" fill="#94a3b8" opacity="0.6"/>
<rect x="631.7" y="360.2" width="4" height="5" rx="0.5" fill="#94a3b8" opacity="0.6"/>
<rect x="387.8" y="288.2" width="25.9" height="111.8" rx="5.6" fill="#05916f" opacity="0.66"/>
<rect x="392.8" y="320.2" width="4" height="5" rx="0.5" fill="#94a3b8" opacity="0.6"/>
<rect x="392.8" y="342.2" width="4" height="5" rx="0.5" fill="#94a3b8" opacity="0.6"/>
<rect x="392.8" y="364.2" width="4" height="5" rx="0.5" fill="#94a3b8" opacity="0.6"/>
<rect x="431.5" y="277.0" width="48.2" height="123.0" rx="5.9" fill="#048a78" opacity="0.54"/>
<rect x="436.5" y="287.0" width="4" height="5" rx="0.5" fill="#94a3b8" opacity="0.6"/>
<rect x="452.5" y="309.0" width="4" height="5" rx="0.5" fill="#94a3b8" opacity="0.6"/>
<rect x="436.5" y="331.0" width="4" height="5" rx="0.5" fill="#94a3b8" opacity="0.6"/>
<rect x="452.5" y="331.0" width="4" height="5" rx="0.5" fill="#94a3b8" opacity="0.6"/>
<rect x="436.5" y="353.0" width="4" height="5" rx="0.5" fill="#94a3b8" opacity="0.6"/>
<rect x="852.9" y="289.5" width="36.3" height="110.5" rx="5.1" fill="#048381" opacity="0.69"/>
<rect x="498.7" y="274.2" width="45.0" height="125.8" rx="4.9" fill="#04857e" opacity="0.75"/>
<circle cx="1095.4" cy="40.1" r="7.1" fill="#059669" opacity="0.18"/>
<circle cx="368.4" cy="147.6" r="7.5" fill="#94a3b8" opacity="0.34"/>
<circle cx="16.4" cy="77.6" r="3.8" fill="#94a3b8" opacity="0.41"/>
<circle cx="397.3" cy="94.9" r="3.0" fill="#059669" opacity="0.44"/>
<rect width="1200" height="400" fill="url(#warm)"/>
<rect width="1200" height="400" fill="#94a3b8" opacity="0.28"/>
</svg>