<svg xmlns="http://www.w3.org/2000/svg" viewBox="0 0 1200 300" width="1200" height="300">
<defs><linearGradient id="skyGrad" x1="0" y1="0" x2="0" y2="1"><stop offset="0%" stop-color="#e8f0f8"/><stop offset="100%" stop-color="#f5e6d8"/></linearGradient></defs><rect width="1200" height="300" fill="url(#skyGrad)"/>
<path d="M0 300 L0 200.2 C347.7 189.0, 980.6 192.0, 1200 200.2 L1200 300 Z" fill="#e4c4a8" opacity="0.25"/>
<path d="M0 163.5 C311.4 135.6, 894.2 215.4, 1200 240.9" fill="none" stroke="#a7aeaf" stroke-width="40.4" stroke-linecap="round" opacity="0.5"/>
<rect x="83.9" y="206.1" width="87.9" height="93.9" fill="#daae87"/>
<rect x="260.8" y="151.2" width="56.3" height="148.8" fill="#daae87"/>
<rect x="270.7" y="124.9" width="36.6" height="26.3" fill="#cfa580"/>
<rect x="399.7" y="142.3" width="87.2" height="157.7" fill="#daae87"/>
<rect x="571.7" y="183.5" width="58.4" height="116.5" fill="#daae87"/>
<polygon points="571.7,183.5 600.9,168.9 630.1,183.5" fill="#c9a07c"/>
<rect x="705.0" y="189.8" width="78.3" height="110.2" fill="#daae87"/>
<rect x="718.7" y="170.3" width="50.9" height="19.4" fill="#cfa580"/>
<rect x="909.1" y="169.1" width="46.3" height="130.9" fill="#daae87"/>
<rect x="1048.6" y="177.7" width="71.9" height="122.3" fill="#daae87"/>
<rect x="57.5" y="78.9" width="46.2" height="221.1" fill="#c98951"/>
<rect x="70.6" y="90.9" width="6" height="8" fill="#dcb28e" opacity="0.5"/>
<rect x="84.6" y="90.9" width="6" height="8" fill="#dcb28e" opacity="0.5"/>
<rect x="70.6" y="106.9" width="6" height="8" fill="#dcb28e" opacity="0.5"/>
<rect x="70.6" y="122.9" width="6" height="8" fill="#dcb28e" opacity="0.5"/>
<rect x="84.6" y="122.9" width="6" height="8" fill="#dcb28e" opacity="0.5"/>
<rect x="84.6" y="138.9" width="6" height="8" fill="#dcb28e" opacity="0.5"/>
<rect x="70.6" y="170.9" width="6" height="8" fill="#dcb28e" opacity="0.5"/>
<rect x="84.6" y="170.9" width="6" height="8" fill="#dcb28e" opacity="0.5"/>
<rect x="201.5" y="171.8" width="78.7" height="128.2" fill="#c98951"/>
<polygon points="201.5,171.8 240.8,152.2 280.1,171.8" fill="#b97e4b"/>
<rect x="237.8" y="183.8" width="6" height="8" fill="#dcb28e" opacity="0.5"/>
<rect x="251.8" y="183.8" width="6" height="8" fill="#dcb28e" opacity="0.5"/>
<rect x="223.8" y="199.8" width="6" height="8" fill="#dcb28e" opacity="0.5"/>
<rect x="237.8" y="199.8" width="6" height="8" fill="#dcb28e" opacity="0.5"/>
<rect x="251.8" y="199.8" width="6" height="8" fill="#dcb28e" opacity="0.5"/>
<rect x="223.8" y="215.8" width="6" height="8" fill="#dcb28e" opacity="0.5"/>
<rect x="237.8" y="215.8" width="6" height="8" fill="#dcb28e" opacity="0.5"/>
<rect x="223.8" y="231.8" width="6" height="8" fill="#dcb28e" opacity="0.5"/>
<rect x="237.8" y="231.8" width="6" height="8" fill="#dcb28e" opacity="0.5"/>
<rect x="251.8" y="231.8" width="6" height="8" fill="#dcb28e" opacity="0.5"/>
<rect x="223.8" y="263.8" width="6" height="8" fill="#dcb28e" opacity="0.5"/>
<rect x="237.8" y="263.8" width="6" height="8" fill="#dcb28e" opacity="0.5"/>
<rect x="251.8" y="263.8" width="6" height="8" fill="#dcb28e" opacity="0.5"/>
<rect x="357.4" y="96.0" width="57.5" height="204.0" fill="#c98951"/>
<rect x="376.1" y="108.0" width="6" height="8" fill="#dcb28e" opacity="0.5"/>
<rect x="390.1" y="124.0" width="6" height="8" fill="#dcb28e" opacity="0.5"/>
<rect x="376.1" y="140.0" width="6" height="8" fill="#dcb28e" opacity="0.5"/>
<rect x="376.1" y="156.0" width="6" height="8" fill="#dcb28e" opacity="0.5"/>
<rect x="390.1" y="156.0" width="6" height="8" fill="#dcb28e" opacity="0.5"/>
<rect x="376.1" y="172.0" width="6" height="8" fill="#dcb28e" opacity="0.5"/>
<rect x="390.1" y="172.0" width="6" height="8" fill="#dcb28e" opacity="0.5"/>
<rect x="376.1" y="188.0" width="6" height="8" fill="#dcb28e" opacity="0.5"/>
<rect x="390.1" y="188.0" width="6" height="8" fill="#dcb28e" opacity="0.5"/>
<rect x="477.8" y="180.0" width="78.3" height="120.0" fill="#c98951"/>
<rect x="500.0" y="192.0" width="6" height="8" fill="#dcb28e" opacity="0.5"/>
<rect x="514.0" y="192.0" width="6" height="8" fill="#dcb28e" opacity="0.5"/>
<rect x="528.0" y="192.0" width="6" height="8" fill="#dcb28e" opacity="0.5"/>
<rect x="500.0" y="208.0" width="6" height="8" fill="#dcb28e" opacity="0.5"/>
<rect x="528.0" y="208.0" width="6" height="8" fill="#dcb28e" opacity="0.5"/>
<rect x="514.0" y="224.0" width="6" height="8" fill="#dcb28e" opacity="0.5"/>
<rect x="528.0" y="224.0" width="6" height="8" fill="#dcb28e" opacity="0.5"/>
<rect x="500.0" y="256.0" width="6" height="8" fill="#dcb28e" opacity="0.5"/>
<rect x="514.0" y="256.0" width="6" height="8" fill="#dcb28e" opacity="0.5"/>
<rect x="528.0" y="256.0" width="6" height="8" fill="#dcb28e" opacity="0.5"/>
<rect x="500.0" y="272.0" width="6" height="8" fill="#dcb28e" opacity="0.5"/>
<rect x="514.0" y="272.0" width="6" height="8" fill="#dcb28e" opacity="0.5"/>
<rect x="528.0" y="272.0" width="6" height="8" fill="#dcb28e" opacity="0.5"/>
<rect x="652.6" y="128.8" width="40.4" height="171.2" fill="#c98951"/>
<polygon points="652.6,128.8 672.8,118.6 693.1,128.8" fill="#b97e4b"/>
<rect x="669.8" y="140.8" width="6" height="8" fill="#dcb28e" opacity="0.5"/>
<rect x="669.8" y="156.8" width="6" height="8" fill="#dcb28e" opacity="0.5"/>
<rect x="669.8" y="172.8" width="6" height="8" fill="#dcb28e" opacity="0.5"/>
<rect x="669.8" y="188.8" width="6" height="8" fill="#dcb28e" opacity="0.5"/>
<rect x="669.8" y="204.8" width="6" height="8" fill="#dcb28e" opacity="0.5"/>
<rect x="669.8" y="220.8" width="6" height="8" fill="#dcb28e" opacity="0.5"/>
<rect x="768.6" y="132.1" width="72.9" height="167.9" fill="#c98951"/>
<polygon points="768.6,132.1 805.1,113.9 841.5,132.1" fill="#b97e4b"/>
<rect x="788.1" y="144.1" width="6" height="8" fill="#dcb28e" opacity="0.5"/>
<rect x="802.1" y="144.1" width="6" height="8" fill="#dcb28e" opacity="0.5"/>
<rect x="816.1" y="144.1" width="6" height="8" fill="#dcb28e" opacity="0.5"/>
<rect x="788.1" y="160.1" width="6" height="8" fill="#dcb28e" opacity="0.5"/>
<rect x="802.1" y="160.1" width="6" height="8" fill="#dcb28e" opacity="0.5"/>
<rect x="816.1" y="160.1" width="6" height="8" fill="#dcb28e" opacity="0.5"/>
<rect x="802.1" y="176.1" width="6" height="8" fill="#dcb28e" opacity="0.5"/>
<rect x="788.1" y="192.1" width="6" height="8" fill="#dcb28e" opacity="0.5"/>
<rect x="816.1" y="192.1" width="6" height="8" fill="#dcb28e" opacity="0.5"/>
<rect x="788.1" y="208.1" width="6" height="8" fill="#dcb28e" opacity="0.5"/>
<rect x="802.1" y="224.1" width="6" height="8" fill="#dcb28e" opacity="0.5"/>
<rect x="816.1" y="224.1" width="6" height="8" fill="#dcb28e" opacity="0.5"/>
<rect x="926.4" y="156.3" width="50.2" height="143.7" fill="#c98951"/>
<polygon points="926.4,156.3 951.5,143.8 976.6,156.3" fill="#b97e4b"/>
<rect x="941.5" y="168.3" width="6" height="8" fill="#dcb28e" opacity="0.5"/>
<rect x="941.5" y="184.3" width="6" height="8" fill="#dcb28e" opacity="0.5"/>
<rect x="955.5" y="184.3" width="6" height="8" fill="#dcb28e" opacity="0.5"/>
<rect x="941.5" y="200.3" width="6" height="8" fill="#dcb28e" opacity="0.5"/>
<rect x="955.5" y="200.3" width="6" height="8" fill="#dcb28e" opacity="0.5"/>
<rect x="941.5" y="248.3" width="6" height="8" fill="#dcb28e" opacity="0.5"/>
<rect x="1067.4" y="161.6" width="50.4" height="138.4" fill="#c98951"/>
<polygon points="1067.4,161.6 1092.6,149.0 1117.8,161.6" fill="#b97e4b"/>
<rect x="1082.6" y="189.6" width="6" height="8" fill="#dcb28e" opacity="0.5"/>
<rect x="1096.6" y="189.6" width="6" height="8" fill="#dcb28e" opacity="0.5"/>
<rect x="1082.6" y="205.6" width="6" height="8" fill="#dcb28e" opacity="0.5"/>
<rect x="1096.6" y="205.6" width="6" height="8" fill="#dcb28e" opacity="0.5"/>
<rect x="1096.6" y="237.6" width="6" height="8" fill="#dcb28e" opacity="0.5"/>
<rect x="1082.6" y="253.6" width="6" height="8" fill="#dcb28e" opacity="0.5"/>
<rect x="1096.6" y="253.6" width="6" height="8" fill="#dcb28e" opacity="0.5"/>
<rect x="76.1" y="143.8" width="41.5" height="156.2" fill="#bc6c25"/>
<polygon points="76.1,143.8 96.8,133.4 117.6,143.8" fill="#ad6322"/>
<rect x="93.8" y="155.8" width="6" height="8" fill="#d39f71" opacity="0.5"/>
<rect x="93.8" y="171.8" width="6" height="8" fill="#d39f71" opacity="0.5"/>
<rect x="93.8" y="187.8" width="6" height="8" fill="#d39f71" opacity="0.5"/>
<rect x="93.8" y="203.8" width="6" height="8" fill="#d39f71" opacity="0.5"/>
<rect x="93.8" y="219.8" width="6" height="8" fill="#d39f71" opacity="0.5"/>
<rect x="184.9" y="161.3" width="43.1" height="138.7" fill="#bc6c25"/>
<rect x="203.4" y="221.3" width="6" height="8" fill="#d39f71" opacity="0.5"/>
<rect x="203.4" y="237.3" width="6" height="8" fill="#d39f71" opacity="0.5"/>
<rect x="203.4" y="253.3" width="6" height="8" fill="#d39f71" opacity="0.5"/>
<rect x="336.3" y="30.7" width="34.9" height="269.3" fill="#bc6c25"/>
<polygon points="336.3,30.7 353.8,22.0 371.3,30.7" fill="#ad6322"/>
<rect x="350.8" y="74.7" width="6" height="8" fill="#d39f71" opacity="0.5"/>
<rect x="350.8" y="106.7" width="6" height="8" fill="#d39f71" opacity="0.5"/>
<rect x="432.2" y="39.3" width="71.0" height="260.7" fill="#bc6c25"/>
<rect x="464.7" y="51.3" width="6" height="8" fill="#d39f71" opacity="0.5"/>
<rect x="478.7" y="51.3" width="6" height="8" fill="#d39f71" opacity="0.5"/>
<rect x="450.7" y="67.3" width="6" height="8" fill="#d39f71" opacity="0.5"/>
<rect x="464.7" y="67.3" width="6" height="8" fill="#d39f71" opacity="0.5"/>
<rect x="450.7" y="83.3" width="6" height="8" fill="#d39f71" opacity="0.5"/>
<rect x="478.7" y="83.3" width="6" height="8" fill="#d39f71" opacity="0.5"/>
<rect x="450.7" y="99.3" width="6" height="8" fill="#d39f71" opacity="0.5"/>
<rect x="464.7" y="99.3" width="6" height="8" fill="#d39f71" opacity="0.5"/>
<rect x="478.7" y="99.3" width="6" height="8" fill="#d39f71" opacity="0.5"/>
<rect x="464.7" y="115.3" width="6" height="8" fill="#d39f71" opacity="0.5"/>
<rect x="478.7" y="115.3" width="6" height="8" fill="#d39f71" opacity="0.5"/>
<rect x="450.7" y="131.3" width="6" height="8" fill="#d39f71" opacity="0.5"/>
<rect x="478.7" y="131.3" width="6" height="8" fill="#d39f71" opacity="0.5"/>
<rect x="564.2" y="132.1" width="45.1" height="167.9" fill="#bc6c25"/>
<rect x="576.8" y="144.1" width="6" height="8" fill="#d39f71" opacity="0.5"/>
<rect x="590.8" y="144.1" width="6" height="8" fill="#d39f71" opacity="0.5"/>
<rect x="590.8" y="160.1" width="6" height="8" fill="#d39f71" opacity="0.5"/>
<rect x="590.8" y="176.1" width="6" height="8" fill="#d39f71" opacity="0.5"/>
<rect x="576.8" y="192.1" width="6" height="8" fill="#d39f71" opacity="0.5"/>
<rect x="590.8" y="192.1" width="6" height="8" fill="#d39f71" opacity="0.5"/>
<rect x="576.8" y="224.1" width="6" height="8" fill="#d39f71" opacity="0.5"/>
<rect x="590.8" y="224.1" width="6" height="8" fill="#d39f71" opacity="0.5"/>
<rect x="715.4" y="185.7" width="40.3" height="114.3" fill="#bc6c25"/>
<rect x="732.6" y="197.7" width="6" height="8" fill="#d39f71" opacity="0.5"/>
<rect x="732.6" y="229.7" width="6" height="8" fill="#d39f71" opacity="0.5"/>
<rect x="732.6" y="245.7" width="6" height="8" fill="#d39f71" opacity="0.5"/>
<rect x="825.5" y="211.0" width="52.3" height="89.0" fill="#bc6c25"/>
<rect x="855.6" y="223.0" width="6" height="8" fill="#d39f71" opacity="0.5"/>
<rect x="841.6" y="239.0" width="6" height="8" fill="#d39f71" opacity="0.5"/>
<rect x="855.6" y="239.0" width="6" height="8" fill="#d39f71" opacity="0.5"/>
<rect x="855.6" y="255.0" width="6" height="8" fill="#d39f71" opacity="0.5"/>
<rect x="841.6" y="271.0" width="6" height="8" fill="#d39f71" opacity="0.5"/>
<rect x="855.6" y="271.0" width="6" height="8" fill="#d39f71" opacity="0.5"/>
<rect x="949.5" y="108.7" width="49.0" height="191.3" fill="#bc6c25"/>
<polygon points="949.5,108.7 974.1,96.5 998.6,108.7" fill="#ad6322"/>
<rect x="978.1" y="120.7" width="6" height="8" fill="#d39f71" opacity="0.5"/>
<rect x="978.1" y="136.7" width="6" height="8" fill="#d39f71" opacity="0.5"/>
<rect x="964.1" y="152.7" width="6" height="8" fill="#d39f71" opacity="0.5"/>
<rect x="964.1" y="168.7" width="6" height="8" fill="#d39f71" opacity="0.5"/>
<rect x="978.1" y="168.7" width="6" height="8" fill="#d39f71" opacity="0.5"/>
<rect x="964.1" y="184.7" width="6" height="8" fill="#d39f71" opacity="0.5"/>
<rect x="978.1" y="184.7" width="6" height="8" fill="#d39f71" opacity="0.5"/>
<rect x="964.1" y="200.7" width="6" height="8" fill="#d39f71" opacity="0.5"/>
<rect x="978.1" y="200.7" width="6" height="8" fill="#d39f71" opacity="0.5"/>
<rect x="1077.0" y="40.0" width="62.4" height="260.0" fill="#bc6c25"/>
<rect x="1091.2" y="52.0" width="6" height="8" fill="#d39f71" opacity="0.5"/>
<rect x="1105.2" y="52.0" width="6" height="8" fill="#d39f71" opacity="0.5"/>
<rect x="1119.2" y="100.0" width="6" height="8" fill="#d39f71" opacity="0.5"/>
<rect x="1091.2" y="116.0" width="6" height="8" fill="#d39f71" opacity="0.5"/>
<rect x="1105.2" y="116.0" width="6" height="8" fill="#d39f71" opacity="0.5"/>
<rect x="1091.2" y="132.0" width="6" height="8" fill="#d39f71" opacity="0.5"/>
<rect x="1119.2" y="132.0" width="6" height="8" fill="#d39f71" opacity="0.5"/>
<rect x="652.8" y="231.1" width="23.4" height="53.9" fill="#c68246"/>
<polygon points="660.5,231.1 664.5,200.8 668.5,231.1" fill="#a86f3c"/>
<path d="M151.2 285.0 Q178.4 260.8 170.3 236.5" fill="none" stroke="#786349" stroke-width="3"/>
<path d="M170.3 236.5 Q156.8 226.7 147.8 226.8" fill="none" stroke="#48883d" stroke-width="2.5"/>
<path d="M170.3 236.5 Q175.4 223.7 178.8 220.8" fill="none" stroke="#48883d" stroke-width="2.5"/>
<path d="M170.3 236.5 Q182.5 231.5 190.7 236.5" fill="none" stroke="#48883d" stroke-width="2.5"/>
<path d="M170.3 236.5 Q174.8 238.5 177.8 250.4" fill="none" stroke="#48883d" stroke-width="2.5"/>
<path d="M170.3 236.5 Q158.7 235.7 151.1 244.9" fill="none" stroke="#48883d" stroke-width="2.5"/>
<path d="M282.2 285.0 Q304.2 260.3 297.6 235.7" fill="none" stroke="#7e684d" stroke-width="3"/>
<path d="M297.6 235.7 Q288.4 227.3 282.2 229.0" fill="none" stroke="#47853c" stroke-width="2.5"/>
<path d="M297.6 235.7 Q301.8 224.2 304.6 222.7" fill="none" stroke="#47853c" stroke-width="2.5"/>
<path d="M297.6 235.7 Q309.7 230.7 317.8 235.7" fill="none" stroke="#47853c" stroke-width="2.5"/>
<path d="M297.6 235.7 Q301.7 237.1 304.5 248.5" fill="none" stroke="#47853c" stroke-width="2.5"/>
<path d="M297.6 235.7 Q286.9 234.5 279.9 243.4" fill="none" stroke="#47853c" stroke-width="2.5"/>
<rect x="0" y="285" width="1200" height="15" fill="#9aaa85" opacity="0.4"/>
<circle cx="1071.7" cy="45.7" r="30.0" fill="#f5e6a0" opacity="0.1"/>
</svg>