<svg xmlns="http://www.w3.org/2000/svg" viewBox="0 0 1200 400" width="1200" height="400">
<defs>
<linearGradient id="bg" x1="0" y1="0" x2="0" y2="1"><stop offset="0%" stop-color="#a16207"/><stop offset="100%" stop-color="#c2410c"/></linearGradient>
<linearGradient id="warm" x1="0" y1="0" x2="1" y2="1"><stop offset="0%" stop-color="#858d99" stop-opacity="0.18"/><stop offset="100%" stop-color="#858d99" stop-opacity="0.06"/></linearGradient>
</defs>
<rect width="1200" height="400" fill="url(#bg)"/>
<path d="M0 400 L0 222.5130389877739 C60.0 212.7, 90.0 241.0, 150.0 231.6 C210.0 238.4, 240.0 214.5, 300.0 208.0 C360.0 217.2, 390.0 249.1, 450.0 242.4 C510.0 235.1, 540.0 212.9, 600.0 216.4 C660.0 222.4, 690.0 238.0, 750.0 228.1 C810.0 237.0, 840.0 213.9, 900.0 211.4 C960.0 217.6, 990.0 238.7, 1050.0 241.3 C1110.0 241.7, 1140.0 205.0, 1200.0 207.5 L1200 400 Z" fill="#b64d0a" opacity="0.45"/>
<path d="M0 400 L0 262.5321219898993 C52.5 258.8, 97.5 240.4, 150.0 247.6 C202.5 254.1, 247.5 264.6, 300.0 257.6 C352.5 256.5, 397.5 242.9, 450.0 247.9 C502.5 247.8, 547.5 260.5, 600.0 260.5 C652.5 264.9, 697.5 264.8, 750.0 257.9 C802.5 253.8, 847.5 254.6, 900.0 260.7 C952.5 255.0, 997.5 255.7, 1050.0 255.1 C1102.5 255.4, 1147.5 260.7, 1200.0 255.6 L1200 400 Z" fill="#c2410c" opacity="0.3"/>
<rect x="443.6" y="303.0" width="23.3" height="97.0" rx="4.9" fill="#75920d" opacity="0.62"/>
<rect x="688.1" y="334.1" width="21.5" height="65.9" rx="5.2" fill="#75920d" opacity="0.55"/>
<rect x="780.3" y="353.1" width="25.4" height="46.9" rx="8.0" fill="#986d0c" opacity="0.62"/>
<rect x="266.0" y="323.6" width="48.3" height="76.4" rx="5.5" fill="#72960d" opacity="0.76"/>
<rect x="556.4" y="302.8" width="20.8" height="97.2" rx="3.5" fill="#7d8a0d" opacity="0.62"/>
<rect x="561.4" y="312.8" width="4" height="5" rx="0.5" fill="#a16207" opacity="0.6"/>
<rect x="561.4" y="334.8" width="4" height="5" rx="0.5" fill="#a16207" opacity="0.6"/>
<rect x="561.4" y="356.8" width="4" height="5" rx="0.5" fill="#a16207" opacity="0.6"/>
<rect x="915.8" y="304.2" width="37.5" height="95.8" rx="4.1" fill="#7c8b0d" opacity="0.69"/>
<rect x="920.8" y="314.2" width="4" height="5" rx="0.5" fill="#a16207" opacity="0.6"/>
<rect x="933.3" y="314.2" width="4" height="5" rx="0.5" fill="#a16207" opacity="0.6"/>
<rect x="920.8" y="336.2" width="4" height="5" rx="0.5" fill="#a16207" opacity="0.6"/>
<rect x="933.3" y="336.2" width="4" height="5" rx="0.5" fill="#a16207" opacity="0.6"/>
<rect x="933.3" y="358.2" width="4" height="5" rx="0.5" fill="#a16207" opacity="0.6"/>
<rect x="800.2" y="366.9" width="30.3" height="33.1" rx="4.4" fill="#788f0d" opacity="0.63"/>
<rect x="270.4" y="345.5" width="39.1" height="54.5" rx="6.4" fill="#93720d" opacity="0.83"/>
<rect x="685.1" y="294.5" width="34.5" height="105.5" rx="7.0" fill="#699f0d" opacity="0.82"/>
<rect x="690.1" y="304.5" width="4" height="5" rx="0.5" fill="#a16207" opacity="0.6"/>
<rect x="690.1" y="348.5" width="4" height="5" rx="0.5" fill="#a16207" opacity="0.6"/>
<rect x="701.6" y="348.5" width="4" height="5" rx="0.5" fill="#a16207" opacity="0.6"/>
<rect x="690.1" y="370.5" width="4" height="5" rx="0.5" fill="#a16207" opacity="0.6"/>
<rect x="701.6" y="370.5" width="4" height="5" rx="0.5" fill="#a16207" opacity="0.6"/>
<rect x="157.5" y="341.7" width="46.6" height="58.3" rx="5.5" fill="#90760d" opacity="0.55"/>
<rect x="781.7" y="273.0" width="28.6" height="127.0" rx="6.6" fill="#85810d" opacity="0.80"/>
<rect x="786.7" y="283.0" width="4" height="5" rx="0.5" fill="#a16207" opacity="0.6"/>
<rect x="786.7" y="305.0" width="4" height="5" rx="0.5" fill="#a16207" opacity="0.6"/>
<rect x="786.7" y="327.0" width="4" height="5" rx="0.5" fill="#a16207" opacity="0.6"/>
<rect x="197.5" y="254.9" width="18.0" height="145.1" rx="5.5" fill="#7d8a0d" opacity="0.52"/>
<rect x="745.0" y="247.3" width="24.2" height="152.7" rx="4.8" fill="#92730d" opacity="0.77"/>
<rect x="884.5" y="300.1" width="18.5" height="99.9" rx="7.3" fill="#94720c" opacity="0.77"/>
<rect x="889.5" y="332.1" width="4" height="5" rx="0.5" fill="#a16207" opacity="0.6"/>
<rect x="889.5" y="354.1" width="4" height="5" rx="0.5" fill="#a16207" opacity="0.6"/>
<rect x="706.3" y="279.4" width="30.4" height="120.6" rx="5.7" fill="#74930d" opacity="0.66"/>
<rect x="511.3" y="345.6" width="31.4" height="54.4" rx="6.4" fill="#70980d" opacity="0.55"/>
<polygon points="113.1,83.1 103.1,100.4 123.0,100.4" fill="#a16207" opacity="0.22"/>
<polygon points="72.5,135.5 65.3,147.9 79.7,147.9" fill="#a16207" opacity="0.30"/>
<polygon points="312.8,40.7 309.2,46.9 316.4,46.9" fill="#a16207" opacity="0.18"/>
<polygon points="254.2,35.9 249.7,43.8 258.8,43.8" fill="#65a30d" opacity="0.19"/>
<polygon points="887.7,172.8 878.0,189.7 897.4,189.7" fill="#65a30d" opacity="0.18"/>
<polygon points="210.9,220.4 202.4,235.2 219.4,235.2" fill="#65a30d" opacity="0.28"/>
<polygon points="969.0,207.3 959.9,223.1 978.1,223.1" fill="#a16207" opacity="0.29"/>
<polygon points="6.3,58.5 -0.5,70.4 13.2,70.4" fill="#65a30d" opacity="0.20"/>
<polygon points="54.5,168.1 46.2,182.5 62.8,182.5" fill="#65a30d" opacity="0.42"/>
<polygon points="203.1,56.4 193.5,73.1 212.7,73.1" fill="#a16207" opacity="0.16"/>
<polygon points="161.6,62.5 151.3,80.4 172.0,80.4" fill="#65a30d" opacity="0.18"/>
<polygon points="757.5,143.3 752.0,152.7 762.9,152.7" fill="#a16207" opacity="0.23"/>
<rect width="1200" height="400" fill="url(#warm)"/>
<rect width="1200" height="400" fill="#a16207" opacity="0.40"/>
</svg>