<svg xmlns="http://www.w3.org/2000/svg" viewBox="0 0 1200 400" width="1200" height="400">
<defs>
<linearGradient id="bg" x1="0" y1="0" x2="0" y2="1"><stop offset="0%" stop-color="#94a3b8"/><stop offset="100%" stop-color="#0369a1"/></linearGradient>
<linearGradient id="warm" x1="0" y1="0" x2="1" y2="1"><stop offset="0%" stop-color="#b3945e" stop-opacity="0.18"/><stop offset="100%" stop-color="#b3945e" stop-opacity="0.06"/></linearGradient>
</defs>
<rect width="1200" height="400" fill="url(#bg)"/>
<path d="M0 400 L0 235.491686137063 C60.0 226.2, 90.0 215.2, 150.0 225.1 C210.0 232.0, 240.0 218.6, 300.0 225.7 C360.0 231.6, 390.0 219.8, 450.0 229.3 C510.0 235.5, 540.0 225.5, 600.0 223.7 C660.0 228.2, 690.0 251.4, 750.0 246.4 C810.0 254.1, 840.0 243.5, 900.0 236.0 C960.0 234.4, 990.0 230.7, 1050.0 223.2 C1110.0 220.0, 1140.0 247.2, 1200.0 255.5 L1200 400 Z" fill="#367da9" opacity="0.45"/>
<path d="M0 400 L0 273.211079427046 C52.5 273.4, 97.5 265.6, 150.0 265.8 C202.5 259.8, 247.5 267.1, 300.0 269.3 C352.5 276.3, 397.5 271.4, 450.0 265.6 C502.5 272.0, 547.5 265.0, 600.0 272.2 C652.5 274.7, 697.5 260.4, 750.0 264.3 C802.5 259.4, 847.5 277.8, 900.0 272.2 C952.5 269.1, 997.5 260.2, 1050.0 256.8 C1102.5 254.9, 1147.5 262.0, 1200.0 260.9 L1200 400 Z" fill="#0369a1" opacity="0.3"/>
<rect x="433.0" y="350.4" width="16.2" height="49.6" rx="5.7" fill="#047e86" opacity="0.69"/>
<rect x="728.2" y="313.6" width="38.7" height="86.4" rx="4.4" fill="#04867d" opacity="0.74"/>
<rect x="570.8" y="306.2" width="14.6" height="93.8" rx="3.9" fill="#059669" opacity="0.53"/>
<rect x="650.0" y="310.2" width="28.8" height="89.8" rx="7.9" fill="#05946b" opacity="0.71"/>
<rect x="939.0" y="313.5" width="34.4" height="86.5" rx="3.2" fill="#04867d" opacity="0.83"/>
<rect x="842.7" y="320.0" width="33.6" height="80.0" rx="6.8" fill="#05926e" opacity="0.54"/>
<rect x="587.6" y="294.0" width="17.8" height="106.0" rx="5.1" fill="#047d88" opacity="0.63"/>
<rect x="592.6" y="304.0" width="4" height="5" rx="0.5" fill="#94a3b8" opacity="0.6"/>
<rect x="592.6" y="326.0" width="4" height="5" rx="0.5" fill="#94a3b8" opacity="0.6"/>
<rect x="592.6" y="348.0" width="4" height="5" rx="0.5" fill="#94a3b8" opacity="0.6"/>
<rect x="771.1" y="282.8" width="25.5" height="117.2" rx="4.6" fill="#048183" opacity="0.53"/>
<rect x="776.1" y="292.8" width="4" height="5" rx="0.5" fill="#94a3b8" opacity="0.6"/>
<rect x="776.1" y="314.8" width="4" height="5" rx="0.5" fill="#94a3b8" opacity="0.6"/>
<rect x="564.9" y="267.3" width="44.2" height="132.7" rx="3.2" fill="#059070" opacity="0.52"/>
<rect x="297.2" y="293.9" width="38.0" height="106.1" rx="7.0" fill="#059071" opacity="0.63"/>
<rect x="710.8" y="346.2" width="45.5" height="53.8" rx="5.5" fill="#048b77" opacity="0.68"/>
<rect x="446.8" y="320.2" width="31.7" height="79.8" rx="3.4" fill="#058d74" opacity="0.80"/>
<rect x="372.4" y="275.8" width="30.2" height="124.2" rx="7.2" fill="#048381" opacity="0.84"/>
<rect x="377.4" y="307.8" width="4" height="5" rx="0.5" fill="#94a3b8" opacity="0.6"/>
<rect x="377.4" y="329.8" width="4" height="5" rx="0.5" fill="#94a3b8" opacity="0.6"/>
<rect x="397.1" y="266.8" width="20.2" height="133.2" rx="4.6" fill="#047d89" opacity="0.60"/>
<circle cx="796.1" cy="27.5" r="7.5" fill="#94a3b8" opacity="0.31"/>
<circle cx="779.5" cy="57.1" r="4.3" fill="#94a3b8" opacity="0.30"/>
<circle cx="925.2" cy="213.2" r="6.5" fill="#94a3b8" opacity="0.20"/>
<circle cx="136.8" cy="34.4" r="7.0" fill="#94a3b8" opacity="0.19"/>
<circle cx="186.4" cy="188.5" r="11.1" fill="#94a3b8" opacity="0.30"/>
<circle cx="1037.5" cy="164.4" r="10.4" fill="#059669" opacity="0.33"/>
<circle cx="267.9" cy="238.4" r="11.8" fill="#059669" opacity="0.20"/>
<rect width="1200" height="400" fill="url(#warm)"/>
<rect width="1200" height="400" fill="#94a3b8" opacity="0.40"/>
</svg>