<svg xmlns="http://www.w3.org/2000/svg" viewBox="0 0 1200 400" width="1200" height="400">
<defs>
<linearGradient id="bg" x1="0" y1="0" x2="0" y2="1"><stop offset="0%" stop-color="#94a3b8"/><stop offset="100%" stop-color="#0369a1"/></linearGradient>
<linearGradient id="warm" x1="0" y1="0" x2="1" y2="1"><stop offset="0%" stop-color="#b6955a" stop-opacity="0.18"/><stop offset="100%" stop-color="#b6955a" stop-opacity="0.06"/></linearGradient>
</defs>
<rect width="1200" height="400" fill="url(#bg)"/>
<path d="M0 400 L0 237.72366976802982 C60.0 242.7, 90.0 245.9, 150.0 239.6 C210.0 236.6, 240.0 233.0, 300.0 230.1 C360.0 220.6, 390.0 249.0, 450.0 253.9 C510.0 245.6, 540.0 252.1, 600.0 255.1 C660.0 251.6, 690.0 217.2, 750.0 224.2 C810.0 227.0, 840.0 231.3, 900.0 234.1 C960.0 226.9, 990.0 249.0, 1050.0 240.6 C1110.0 231.3, 1140.0 222.6, 1200.0 229.5 L1200 400 Z" fill="#367da9" opacity="0.45"/>
<path d="M0 400 L0 270.51600280552555 C52.5 270.5, 97.5 280.7, 150.0 273.8 C202.5 280.0, 247.5 267.3, 300.0 263.4 C352.5 257.6, 397.5 271.5, 450.0 270.6 C502.5 268.7, 547.5 269.7, 600.0 270.5 C652.5 266.3, 697.5 259.9, 750.0 266.1 C802.5 269.1, 847.5 263.0, 900.0 269.7 C952.5 266.7, 997.5 276.9, 1050.0 275.4 C1102.5 277.2, 1147.5 264.5, 1200.0 262.2 L1200 400 Z" fill="#0369a1" opacity="0.3"/>
<rect x="306.7" y="292.4" width="46.9" height="107.6" rx="5.1" fill="#047b8a" opacity="0.69"/>
<rect x="311.7" y="302.4" width="4" height="5" rx="0.5" fill="#94a3b8" opacity="0.6"/>
<rect x="327.4" y="302.4" width="4" height="5" rx="0.5" fill="#94a3b8" opacity="0.6"/>
<rect x="311.7" y="324.4" width="4" height="5" rx="0.5" fill="#94a3b8" opacity="0.6"/>
<rect x="327.4" y="324.4" width="4" height="5" rx="0.5" fill="#94a3b8" opacity="0.6"/>
<rect x="311.7" y="346.4" width="4" height="5" rx="0.5" fill="#94a3b8" opacity="0.6"/>
<rect x="327.4" y="346.4" width="4" height="5" rx="0.5" fill="#94a3b8" opacity="0.6"/>
<rect x="311.7" y="368.4" width="4" height="5" rx="0.5" fill="#94a3b8" opacity="0.6"/>
<rect x="1003.2" y="331.4" width="30.1" height="68.6" rx="5.2" fill="#05916f" opacity="0.54"/>
<rect x="197.6" y="268.3" width="36.3" height="131.7" rx="3.8" fill="#048282" opacity="0.63"/>
<rect x="202.6" y="278.3" width="4" height="5" rx="0.5" fill="#94a3b8" opacity="0.6"/>
<rect x="214.7" y="300.3" width="4" height="5" rx="0.5" fill="#94a3b8" opacity="0.6"/>
<rect x="202.6" y="322.3" width="4" height="5" rx="0.5" fill="#94a3b8" opacity="0.6"/>
<rect x="214.7" y="322.3" width="4" height="5" rx="0.5" fill="#94a3b8" opacity="0.6"/>
<rect x="214.7" y="344.3" width="4" height="5" rx="0.5" fill="#94a3b8" opacity="0.6"/>
<rect x="687.2" y="282.6" width="19.7" height="117.4" rx="6.0" fill="#04887a" opacity="0.54"/>
<rect x="495.3" y="260.9" width="17.6" height="139.1" rx="8.0" fill="#047d88" opacity="0.80"/>
<rect x="500.3" y="270.9" width="4" height="5" rx="0.5" fill="#94a3b8" opacity="0.6"/>
<rect x="500.3" y="314.9" width="4" height="5" rx="0.5" fill="#94a3b8" opacity="0.6"/>
<rect x="500.3" y="336.9" width="4" height="5" rx="0.5" fill="#94a3b8" opacity="0.6"/>
<rect x="458.0" y="305.4" width="31.4" height="94.6" rx="5.5" fill="#048183" opacity="0.80"/>
<rect x="313.5" y="310.6" width="37.6" height="89.4" rx="5.4" fill="#059071" opacity="0.65"/>
<rect x="569.9" y="275.4" width="49.0" height="124.6" rx="7.7" fill="#04857e" opacity="0.75"/>
<rect x="574.9" y="285.4" width="4" height="5" rx="0.5" fill="#94a3b8" opacity="0.6"/>
<rect x="591.2" y="307.4" width="4" height="5" rx="0.5" fill="#94a3b8" opacity="0.6"/>
<rect x="574.9" y="329.4" width="4" height="5" rx="0.5" fill="#94a3b8" opacity="0.6"/>
<rect x="591.2" y="329.4" width="4" height="5" rx="0.5" fill="#94a3b8" opacity="0.6"/>
<rect x="574.9" y="351.4" width="4" height="5" rx="0.5" fill="#94a3b8" opacity="0.6"/>
<rect x="768.6" y="298.1" width="25.8" height="101.9" rx="7.1" fill="#047c89" opacity="0.82"/>
<rect x="773.6" y="308.1" width="4" height="5" rx="0.5" fill="#94a3b8" opacity="0.6"/>
<rect x="773.6" y="374.1" width="4" height="5" rx="0.5" fill="#94a3b8" opacity="0.6"/>
<rect x="178.5" y="357.9" width="22.5" height="42.1" rx="6.8" fill="#048183" opacity="0.59"/>
<rect x="221.0" y="301.5" width="35.1" height="98.5" rx="5.7" fill="#05916f" opacity="0.67"/>
<rect x="226.0" y="311.5" width="4" height="5" rx="0.5" fill="#94a3b8" opacity="0.6"/>
<rect x="226.0" y="333.5" width="4" height="5" rx="0.5" fill="#94a3b8" opacity="0.6"/>
<rect x="237.7" y="355.5" width="4" height="5" rx="0.5" fill="#94a3b8" opacity="0.6"/>
<rect x="546.4" y="281.0" width="29.0" height="119.0" rx="7.2" fill="#058b76" opacity="0.75"/>
<rect x="466.2" y="301.8" width="26.2" height="98.2" rx="6.5" fill="#047e87" opacity="0.82"/>
<rect x="471.2" y="311.8" width="4" height="5" rx="0.5" fill="#94a3b8" opacity="0.6"/>
<rect x="427.5" y="364.6" width="35.7" height="35.4" rx="6.7" fill="#048a78" opacity="0.64"/>
<circle cx="1153.9" cy="220.1" r="3.1" fill="#94a3b8" opacity="0.43"/>
<circle cx="642.8" cy="39.1" r="7.5" fill="#94a3b8" opacity="0.25"/>
<rect width="1200" height="400" fill="url(#warm)"/>
<rect width="1200" height="400" fill="#94a3b8" opacity="0.40"/>
</svg>