<svg xmlns="http://www.w3.org/2000/svg" viewBox="0 0 1200 300" width="1200" height="300">
<defs><linearGradient id="skyGrad" x1="0" y1="0" x2="0" y2="1"><stop offset="0%" stop-color="#e6ecf2"/><stop offset="100%" stop-color="#f0eeec"/></linearGradient></defs><rect width="1200" height="300" fill="url(#skyGrad)"/>
<path d="M0 300 L0 206.7 C345.9 187.9, 919.9 199.2, 1200 206.7 L1200 300 Z" fill="#aac2c9" opacity="0.25"/>
<rect x="111.0" y="185.6" width="62.4" height="114.4" fill="#8aabb4"/>
<rect x="469.3" y="183.6" width="43.8" height="116.4" fill="#8aabb4"/>
<rect x="727.5" y="231.3" width="66.5" height="68.7" fill="#8aabb4"/>
<polygon points="727.5,231.3 760.8,214.7 794.0,231.3" fill="#7f9da6"/>
<rect x="979.9" y="178.1" width="78.2" height="121.9" fill="#8aabb4"/>
<rect x="144.3" y="210.4" width="78.0" height="89.6" fill="#558592"/>
<rect x="166.3" y="222.4" width="6" height="8" fill="#91b0b8" opacity="0.5"/>
<rect x="194.3" y="222.4" width="6" height="8" fill="#91b0b8" opacity="0.5"/>
<rect x="180.3" y="238.4" width="6" height="8" fill="#91b0b8" opacity="0.5"/>
<rect x="194.3" y="238.4" width="6" height="8" fill="#91b0b8" opacity="0.5"/>
<rect x="194.3" y="254.4" width="6" height="8" fill="#91b0b8" opacity="0.5"/>
<rect x="166.3" y="270.4" width="6" height="8" fill="#91b0b8" opacity="0.5"/>
<rect x="194.3" y="270.4" width="6" height="8" fill="#91b0b8" opacity="0.5"/>
<rect x="422.7" y="145.9" width="67.8" height="154.1" fill="#558592"/>
<rect x="439.6" y="157.9" width="6" height="8" fill="#91b0b8" opacity="0.5"/>
<rect x="453.6" y="157.9" width="6" height="8" fill="#91b0b8" opacity="0.5"/>
<rect x="467.6" y="173.9" width="6" height="8" fill="#91b0b8" opacity="0.5"/>
<rect x="439.6" y="189.9" width="6" height="8" fill="#91b0b8" opacity="0.5"/>
<rect x="453.6" y="189.9" width="6" height="8" fill="#91b0b8" opacity="0.5"/>
<rect x="439.6" y="221.9" width="6" height="8" fill="#91b0b8" opacity="0.5"/>
<rect x="453.6" y="221.9" width="6" height="8" fill="#91b0b8" opacity="0.5"/>
<rect x="467.6" y="221.9" width="6" height="8" fill="#91b0b8" opacity="0.5"/>
<rect x="439.6" y="237.9" width="6" height="8" fill="#91b0b8" opacity="0.5"/>
<rect x="467.6" y="237.9" width="6" height="8" fill="#91b0b8" opacity="0.5"/>
<rect x="708.2" y="173.0" width="69.8" height="127.0" fill="#558592"/>
<polygon points="708.2,173.0 743.1,155.5 778.0,173.0" fill="#4e7a86"/>
<rect x="726.1" y="185.0" width="6" height="8" fill="#91b0b8" opacity="0.5"/>
<rect x="740.1" y="185.0" width="6" height="8" fill="#91b0b8" opacity="0.5"/>
<rect x="754.1" y="185.0" width="6" height="8" fill="#91b0b8" opacity="0.5"/>
<rect x="726.1" y="201.0" width="6" height="8" fill="#91b0b8" opacity="0.5"/>
<rect x="740.1" y="201.0" width="6" height="8" fill="#91b0b8" opacity="0.5"/>
<rect x="726.1" y="217.0" width="6" height="8" fill="#91b0b8" opacity="0.5"/>
<rect x="740.1" y="217.0" width="6" height="8" fill="#91b0b8" opacity="0.5"/>
<rect x="754.1" y="217.0" width="6" height="8" fill="#91b0b8" opacity="0.5"/>
<rect x="726.1" y="233.0" width="6" height="8" fill="#91b0b8" opacity="0.5"/>
<rect x="740.1" y="233.0" width="6" height="8" fill="#91b0b8" opacity="0.5"/>
<rect x="754.1" y="233.0" width="6" height="8" fill="#91b0b8" opacity="0.5"/>
<rect x="726.1" y="249.0" width="6" height="8" fill="#91b0b8" opacity="0.5"/>
<rect x="740.1" y="249.0" width="6" height="8" fill="#91b0b8" opacity="0.5"/>
<rect x="726.1" y="265.0" width="6" height="8" fill="#91b0b8" opacity="0.5"/>
<rect x="754.1" y="265.0" width="6" height="8" fill="#91b0b8" opacity="0.5"/>
<rect x="1036.0" y="178.5" width="58.1" height="121.5" fill="#558592"/>
<polygon points="1036.0,178.5 1065.0,164.0 1094.1,178.5" fill="#4e7a86"/>
<rect x="1048.0" y="190.5" width="6" height="8" fill="#91b0b8" opacity="0.5"/>
<rect x="1062.0" y="190.5" width="6" height="8" fill="#91b0b8" opacity="0.5"/>
<rect x="1076.0" y="190.5" width="6" height="8" fill="#91b0b8" opacity="0.5"/>
<rect x="1048.0" y="206.5" width="6" height="8" fill="#91b0b8" opacity="0.5"/>
<rect x="1062.0" y="206.5" width="6" height="8" fill="#91b0b8" opacity="0.5"/>
<rect x="1076.0" y="206.5" width="6" height="8" fill="#91b0b8" opacity="0.5"/>
<rect x="1048.0" y="222.5" width="6" height="8" fill="#91b0b8" opacity="0.5"/>
<rect x="1062.0" y="222.5" width="6" height="8" fill="#91b0b8" opacity="0.5"/>
<rect x="1076.0" y="222.5" width="6" height="8" fill="#91b0b8" opacity="0.5"/>
<rect x="1062.0" y="238.5" width="6" height="8" fill="#91b0b8" opacity="0.5"/>
<rect x="1076.0" y="238.5" width="6" height="8" fill="#91b0b8" opacity="0.5"/>
<rect x="1076.0" y="254.5" width="6" height="8" fill="#91b0b8" opacity="0.5"/>
<rect x="1048.0" y="270.5" width="6" height="8" fill="#91b0b8" opacity="0.5"/>
<rect x="1062.0" y="270.5" width="6" height="8" fill="#91b0b8" opacity="0.5"/>
<rect x="175.4" y="206.8" width="59.5" height="93.2" fill="#2b6777"/>
<polygon points="175.4,206.8 205.1,191.9 234.8,206.8" fill="#285f6d"/>
<rect x="188.1" y="218.8" width="6" height="8" fill="#759ca7" opacity="0.5"/>
<rect x="188.1" y="234.8" width="6" height="8" fill="#759ca7" opacity="0.5"/>
<rect x="202.1" y="234.8" width="6" height="8" fill="#759ca7" opacity="0.5"/>
<rect x="202.1" y="250.8" width="6" height="8" fill="#759ca7" opacity="0.5"/>
<rect x="216.1" y="250.8" width="6" height="8" fill="#759ca7" opacity="0.5"/>
<rect x="188.1" y="266.8" width="6" height="8" fill="#759ca7" opacity="0.5"/>
<rect x="202.1" y="266.8" width="6" height="8" fill="#759ca7" opacity="0.5"/>
<rect x="451.1" y="181.1" width="72.0" height="118.9" fill="#2b6777"/>
<rect x="470.1" y="209.1" width="6" height="8" fill="#759ca7" opacity="0.5"/>
<rect x="484.1" y="209.1" width="6" height="8" fill="#759ca7" opacity="0.5"/>
<rect x="470.1" y="225.1" width="6" height="8" fill="#759ca7" opacity="0.5"/>
<rect x="484.1" y="225.1" width="6" height="8" fill="#759ca7" opacity="0.5"/>
<rect x="498.1" y="225.1" width="6" height="8" fill="#759ca7" opacity="0.5"/>
<rect x="470.1" y="241.1" width="6" height="8" fill="#759ca7" opacity="0.5"/>
<rect x="470.1" y="257.1" width="6" height="8" fill="#759ca7" opacity="0.5"/>
<rect x="498.1" y="257.1" width="6" height="8" fill="#759ca7" opacity="0.5"/>
<rect x="484.1" y="273.1" width="6" height="8" fill="#759ca7" opacity="0.5"/>
<rect x="716.1" y="240.9" width="60.0" height="59.1" fill="#2b6777"/>
<rect x="1000.5" y="193.9" width="30.0" height="106.1" fill="#2b6777"/>
<rect x="1005.7" y="175.2" width="19.5" height="18.7" fill="#296271"/>
<rect x="1012.5" y="251.2" width="6" height="8" fill="#759ca7" opacity="0.5"/>
<rect x="1012.5" y="267.2" width="6" height="8" fill="#759ca7" opacity="0.5"/>
<line x1="342.9" y1="285.0" x2="342.9" y2="272.2" stroke="#6b5a42" stroke-width="3"/>
<circle cx="342.9" cy="258.6" r="13.6" fill="#548345"/>
<line x1="619.6" y1="285.0" x2="619.6" y2="274.7" stroke="#6b5a42" stroke-width="3"/>
<circle cx="619.6" cy="262.1" r="12.5" fill="#558446"/>
<line x1="888.3" y1="285.0" x2="888.3" y2="270.1" stroke="#6b5a42" stroke-width="3"/>
<circle cx="888.3" cy="255.6" r="14.5" fill="#528044"/>
<line x1="423.2" y1="285.0" x2="423.2" y2="271.8" stroke="#6b5a42" stroke-width="3"/>
<circle cx="423.2" cy="257.4" r="14.4" fill="#568647"/>
<line x1="677.7" y1="285.0" x2="677.7" y2="274.5" stroke="#6b5a42" stroke-width="3"/>
<circle cx="677.7" cy="257.6" r="16.9" fill="#578848"/>
<line x1="530.5" y1="285.0" x2="530.5" y2="271.2" stroke="#6b5a42" stroke-width="3"/>
<circle cx="530.5" cy="258.9" r="12.3" fill="#558446"/>
<line x1="341.3" y1="285.0" x2="341.3" y2="270.1" stroke="#6b5a42" stroke-width="3"/>
<circle cx="341.3" cy="256.1" r="14.0" fill="#588a49"/>
<rect x="0" y="285" width="1200" height="15" fill="#9aaa85" opacity="0.4"/>
</svg>