<svg xmlns="http://www.w3.org/2000/svg" viewBox="0 0 1200 300" width="1200" height="300">
<rect width="1200" height="300" fill="#e0eff2"/>
<path d="M0 300 L0 210.0 C254.5 173.3, 1003.0 180.8, 1200 210.0 L1200 300 Z" fill="#aac2c9" opacity="0.3"/>
<rect x="141.3" y="201.7" width="47.9" height="98.3" fill="#8aabb4"/>
<rect x="451.4" y="185.8" width="54.8" height="114.2" fill="#8aabb4"/>
<rect x="726.1" y="239.8" width="57.6" height="60.2" fill="#8aabb4"/>
<rect x="965.9" y="217.6" width="52.8" height="82.4" fill="#8aabb4"/>
<rect x="95.3" y="166.1" width="49.6" height="133.9" fill="#558592"/>
<rect x="110.1" y="178.1" width="6" height="8" fill="#91b0b8" opacity="0.5"/>
<rect x="110.1" y="194.1" width="6" height="8" fill="#91b0b8" opacity="0.5"/>
<rect x="124.1" y="194.1" width="6" height="8" fill="#91b0b8" opacity="0.5"/>
<rect x="110.1" y="210.1" width="6" height="8" fill="#91b0b8" opacity="0.5"/>
<rect x="124.1" y="210.1" width="6" height="8" fill="#91b0b8" opacity="0.5"/>
<rect x="110.1" y="226.1" width="6" height="8" fill="#91b0b8" opacity="0.5"/>
<rect x="124.1" y="226.1" width="6" height="8" fill="#91b0b8" opacity="0.5"/>
<rect x="124.1" y="242.1" width="6" height="8" fill="#91b0b8" opacity="0.5"/>
<rect x="110.1" y="258.1" width="6" height="8" fill="#91b0b8" opacity="0.5"/>
<rect x="124.1" y="258.1" width="6" height="8" fill="#91b0b8" opacity="0.5"/>
<rect x="321.8" y="141.0" width="51.2" height="159.0" fill="#558592"/>
<rect x="337.3" y="153.0" width="6" height="8" fill="#91b0b8" opacity="0.5"/>
<rect x="351.3" y="153.0" width="6" height="8" fill="#91b0b8" opacity="0.5"/>
<rect x="337.3" y="169.0" width="6" height="8" fill="#91b0b8" opacity="0.5"/>
<rect x="351.3" y="169.0" width="6" height="8" fill="#91b0b8" opacity="0.5"/>
<rect x="337.3" y="185.0" width="6" height="8" fill="#91b0b8" opacity="0.5"/>
<rect x="351.3" y="185.0" width="6" height="8" fill="#91b0b8" opacity="0.5"/>
<rect x="337.3" y="201.0" width="6" height="8" fill="#91b0b8" opacity="0.5"/>
<rect x="351.3" y="201.0" width="6" height="8" fill="#91b0b8" opacity="0.5"/>
<rect x="351.3" y="217.0" width="6" height="8" fill="#91b0b8" opacity="0.5"/>
<rect x="337.3" y="233.0" width="6" height="8" fill="#91b0b8" opacity="0.5"/>
<rect x="351.3" y="233.0" width="6" height="8" fill="#91b0b8" opacity="0.5"/>
<rect x="337.3" y="249.0" width="6" height="8" fill="#91b0b8" opacity="0.5"/>
<rect x="351.3" y="265.0" width="6" height="8" fill="#91b0b8" opacity="0.5"/>
<rect x="558.0" y="164.3" width="36.6" height="135.7" fill="#558592"/>
<rect x="573.3" y="176.3" width="6" height="8" fill="#91b0b8" opacity="0.5"/>
<rect x="573.3" y="224.3" width="6" height="8" fill="#91b0b8" opacity="0.5"/>
<rect x="573.3" y="240.3" width="6" height="8" fill="#91b0b8" opacity="0.5"/>
<rect x="573.3" y="256.3" width="6" height="8" fill="#91b0b8" opacity="0.5"/>
<rect x="573.3" y="272.3" width="6" height="8" fill="#91b0b8" opacity="0.5"/>
<rect x="782.6" y="166.9" width="69.1" height="133.1" fill="#558592"/>
<rect x="800.1" y="178.9" width="6" height="8" fill="#91b0b8" opacity="0.5"/>
<rect x="814.1" y="178.9" width="6" height="8" fill="#91b0b8" opacity="0.5"/>
<rect x="828.1" y="178.9" width="6" height="8" fill="#91b0b8" opacity="0.5"/>
<rect x="800.1" y="194.9" width="6" height="8" fill="#91b0b8" opacity="0.5"/>
<rect x="814.1" y="194.9" width="6" height="8" fill="#91b0b8" opacity="0.5"/>
<rect x="800.1" y="210.9" width="6" height="8" fill="#91b0b8" opacity="0.5"/>
<rect x="828.1" y="210.9" width="6" height="8" fill="#91b0b8" opacity="0.5"/>
<rect x="800.1" y="226.9" width="6" height="8" fill="#91b0b8" opacity="0.5"/>
<rect x="814.1" y="226.9" width="6" height="8" fill="#91b0b8" opacity="0.5"/>
<rect x="828.1" y="226.9" width="6" height="8" fill="#91b0b8" opacity="0.5"/>
<rect x="800.1" y="258.9" width="6" height="8" fill="#91b0b8" opacity="0.5"/>
<rect x="814.1" y="258.9" width="6" height="8" fill="#91b0b8" opacity="0.5"/>
<rect x="828.1" y="258.9" width="6" height="8" fill="#91b0b8" opacity="0.5"/>
<rect x="1021.0" y="169.9" width="63.1" height="130.1" fill="#558592"/>
<rect x="1035.6" y="181.9" width="6" height="8" fill="#91b0b8" opacity="0.5"/>
<rect x="1049.6" y="181.9" width="6" height="8" fill="#91b0b8" opacity="0.5"/>
<rect x="1063.6" y="181.9" width="6" height="8" fill="#91b0b8" opacity="0.5"/>
<rect x="1035.6" y="197.9" width="6" height="8" fill="#91b0b8" opacity="0.5"/>
<rect x="1063.6" y="197.9" width="6" height="8" fill="#91b0b8" opacity="0.5"/>
<rect x="1035.6" y="213.9" width="6" height="8" fill="#91b0b8" opacity="0.5"/>
<rect x="1049.6" y="213.9" width="6" height="8" fill="#91b0b8" opacity="0.5"/>
<rect x="1063.6" y="213.9" width="6" height="8" fill="#91b0b8" opacity="0.5"/>
<rect x="1035.6" y="229.9" width="6" height="8" fill="#91b0b8" opacity="0.5"/>
<rect x="1049.6" y="229.9" width="6" height="8" fill="#91b0b8" opacity="0.5"/>
<rect x="1063.6" y="229.9" width="6" height="8" fill="#91b0b8" opacity="0.5"/>
<rect x="1035.6" y="245.9" width="6" height="8" fill="#91b0b8" opacity="0.5"/>
<rect x="1063.6" y="245.9" width="6" height="8" fill="#91b0b8" opacity="0.5"/>
<rect x="1035.6" y="261.9" width="6" height="8" fill="#91b0b8" opacity="0.5"/>
<rect x="1063.6" y="261.9" width="6" height="8" fill="#91b0b8" opacity="0.5"/>
<rect x="121.3" y="177.9" width="67.0" height="122.1" fill="#2b6777"/>
<rect x="151.8" y="189.9" width="6" height="8" fill="#759ca7" opacity="0.5"/>
<rect x="137.8" y="205.9" width="6" height="8" fill="#759ca7" opacity="0.5"/>
<rect x="151.8" y="205.9" width="6" height="8" fill="#759ca7" opacity="0.5"/>
<rect x="165.8" y="205.9" width="6" height="8" fill="#759ca7" opacity="0.5"/>
<rect x="137.8" y="221.9" width="6" height="8" fill="#759ca7" opacity="0.5"/>
<rect x="151.8" y="221.9" width="6" height="8" fill="#759ca7" opacity="0.5"/>
<rect x="165.8" y="221.9" width="6" height="8" fill="#759ca7" opacity="0.5"/>
<rect x="137.8" y="237.9" width="6" height="8" fill="#759ca7" opacity="0.5"/>
<rect x="151.8" y="237.9" width="6" height="8" fill="#759ca7" opacity="0.5"/>
<rect x="151.8" y="253.9" width="6" height="8" fill="#759ca7" opacity="0.5"/>
<rect x="165.8" y="253.9" width="6" height="8" fill="#759ca7" opacity="0.5"/>
<rect x="137.8" y="269.9" width="6" height="8" fill="#759ca7" opacity="0.5"/>
<rect x="151.8" y="269.9" width="6" height="8" fill="#759ca7" opacity="0.5"/>
<rect x="456.3" y="140.3" width="73.1" height="159.7" fill="#2b6777"/>
<rect x="468.8" y="152.3" width="6" height="8" fill="#759ca7" opacity="0.5"/>
<rect x="482.8" y="152.3" width="6" height="8" fill="#759ca7" opacity="0.5"/>
<rect x="496.8" y="152.3" width="6" height="8" fill="#759ca7" opacity="0.5"/>
<rect x="510.8" y="152.3" width="6" height="8" fill="#759ca7" opacity="0.5"/>
<rect x="468.8" y="168.3" width="6" height="8" fill="#759ca7" opacity="0.5"/>
<rect x="482.8" y="168.3" width="6" height="8" fill="#759ca7" opacity="0.5"/>
<rect x="496.8" y="168.3" width="6" height="8" fill="#759ca7" opacity="0.5"/>
<rect x="510.8" y="168.3" width="6" height="8" fill="#759ca7" opacity="0.5"/>
<rect x="468.8" y="184.3" width="6" height="8" fill="#759ca7" opacity="0.5"/>
<rect x="482.8" y="184.3" width="6" height="8" fill="#759ca7" opacity="0.5"/>
<rect x="496.8" y="184.3" width="6" height="8" fill="#759ca7" opacity="0.5"/>
<rect x="510.8" y="184.3" width="6" height="8" fill="#759ca7" opacity="0.5"/>
<rect x="496.8" y="200.3" width="6" height="8" fill="#759ca7" opacity="0.5"/>
<rect x="510.8" y="200.3" width="6" height="8" fill="#759ca7" opacity="0.5"/>
<rect x="468.8" y="216.3" width="6" height="8" fill="#759ca7" opacity="0.5"/>
<rect x="482.8" y="216.3" width="6" height="8" fill="#759ca7" opacity="0.5"/>
<rect x="496.8" y="216.3" width="6" height="8" fill="#759ca7" opacity="0.5"/>
<rect x="468.8" y="232.3" width="6" height="8" fill="#759ca7" opacity="0.5"/>
<rect x="496.8" y="232.3" width="6" height="8" fill="#759ca7" opacity="0.5"/>
<rect x="510.8" y="232.3" width="6" height="8" fill="#759ca7" opacity="0.5"/>
<rect x="468.8" y="248.3" width="6" height="8" fill="#759ca7" opacity="0.5"/>
<rect x="482.8" y="248.3" width="6" height="8" fill="#759ca7" opacity="0.5"/>
<rect x="496.8" y="248.3" width="6" height="8" fill="#759ca7" opacity="0.5"/>
<rect x="482.8" y="264.3" width="6" height="8" fill="#759ca7" opacity="0.5"/>
<rect x="496.8" y="264.3" width="6" height="8" fill="#759ca7" opacity="0.5"/>
<rect x="510.8" y="264.3" width="6" height="8" fill="#759ca7" opacity="0.5"/>
<rect x="730.4" y="196.8" width="35.0" height="103.2" fill="#2b6777"/>
<rect x="744.9" y="208.8" width="6" height="8" fill="#759ca7" opacity="0.5"/>
<rect x="744.9" y="224.8" width="6" height="8" fill="#759ca7" opacity="0.5"/>
<rect x="744.9" y="240.8" width="6" height="8" fill="#759ca7" opacity="0.5"/>
<rect x="744.9" y="256.8" width="6" height="8" fill="#759ca7" opacity="0.5"/>
<rect x="978.9" y="238.6" width="50.2" height="61.4" fill="#2b6777"/>
<rect x="994.0" y="250.6" width="6" height="8" fill="#759ca7" opacity="0.5"/>
<rect x="1008.0" y="250.6" width="6" height="8" fill="#759ca7" opacity="0.5"/>
<rect x="994.0" y="266.6" width="6" height="8" fill="#759ca7" opacity="0.5"/>
<rect x="1008.0" y="266.6" width="6" height="8" fill="#759ca7" opacity="0.5"/>
<rect x="0" y="298" width="1200" height="2" fill="#275d6b" opacity="0.15"/>
</svg>