<svg xmlns="http://www.w3.org/2000/svg" viewBox="0 0 1200 400" width="1200" height="400">
<defs>
<linearGradient id="bg" x1="0" y1="0" x2="0" y2="1"><stop offset="0%" stop-color="#94a3b8"/><stop offset="100%" stop-color="#0369a1"/></linearGradient>
<linearGradient id="warm" x1="0" y1="0" x2="1" y2="1"><stop offset="0%" stop-color="#ae9365" stop-opacity="0.18"/><stop offset="100%" stop-color="#ae9365" stop-opacity="0.06"/></linearGradient>
</defs>
<rect width="1200" height="400" fill="url(#bg)"/>
<path d="M0 400 L0 222.01071798138972 C60.0 230.9, 90.0 225.8, 150.0 235.2 C210.0 226.0, 240.0 230.7, 300.0 237.2 C360.0 245.6, 390.0 231.6, 450.0 238.8 C510.0 234.4, 540.0 247.7, 600.0 242.7 C660.0 238.4, 690.0 226.3, 750.0 233.3 C810.0 239.7, 840.0 209.9, 900.0 218.0 C960.0 216.5, 990.0 222.2, 1050.0 218.6 C1110.0 212.4, 1140.0 213.2, 1200.0 222.6 L1200 400 Z" fill="#367da9" opacity="0.45"/>
<path d="M0 400 L0 267.1212429534107 C52.5 268.4, 97.5 250.2, 150.0 255.0 C202.5 254.0, 247.5 248.4, 300.0 252.5 C352.5 251.7, 397.5 257.5, 450.0 259.0 C502.5 265.6, 547.5 280.1, 600.0 274.7 C652.5 267.6, 697.5 253.7, 750.0 258.9 C802.5 256.7, 847.5 255.8, 900.0 259.8 C952.5 265.7, 997.5 269.0, 1050.0 262.2 C1102.5 267.8, 1147.5 269.9, 1200.0 264.9 L1200 400 Z" fill="#0369a1" opacity="0.3"/>
<rect x="424.3" y="281.3" width="26.6" height="118.7" rx="5.9" fill="#047d88" opacity="0.62"/>
<rect x="915.1" y="299.3" width="41.6" height="100.7" rx="5.1" fill="#048085" opacity="0.80"/>
<rect x="861.4" y="311.7" width="13.8" height="88.3" rx="3.9" fill="#048a78" opacity="0.76"/>
<rect x="866.4" y="321.7" width="4" height="5" rx="0.5" fill="#94a3b8" opacity="0.6"/>
<rect x="866.4" y="343.7" width="4" height="5" rx="0.5" fill="#94a3b8" opacity="0.6"/>
<rect x="866.4" y="365.7" width="4" height="5" rx="0.5" fill="#94a3b8" opacity="0.6"/>
<rect x="466.6" y="270.0" width="38.4" height="130.0" rx="6.1" fill="#048a77" opacity="0.52"/>
<rect x="640.1" y="330.2" width="26.6" height="69.8" rx="4.7" fill="#048480" opacity="0.73"/>
<rect x="495.7" y="281.7" width="48.5" height="118.3" rx="6.8" fill="#048184" opacity="0.71"/>
<rect x="500.7" y="291.7" width="4" height="5" rx="0.5" fill="#94a3b8" opacity="0.6"/>
<rect x="516.9" y="291.7" width="4" height="5" rx="0.5" fill="#94a3b8" opacity="0.6"/>
<rect x="500.7" y="313.7" width="4" height="5" rx="0.5" fill="#94a3b8" opacity="0.6"/>
<rect x="500.7" y="335.7" width="4" height="5" rx="0.5" fill="#94a3b8" opacity="0.6"/>
<rect x="516.9" y="335.7" width="4" height="5" rx="0.5" fill="#94a3b8" opacity="0.6"/>
<rect x="500.7" y="357.7" width="4" height="5" rx="0.5" fill="#94a3b8" opacity="0.6"/>
<rect x="138.7" y="351.4" width="20.3" height="48.6" rx="3.6" fill="#04857e" opacity="0.81"/>
<rect x="444.7" y="257.0" width="42.8" height="143.0" rx="3.7" fill="#047e87" opacity="0.55"/>
<rect x="449.7" y="267.0" width="4" height="5" rx="0.5" fill="#94a3b8" opacity="0.6"/>
<rect x="463.9" y="267.0" width="4" height="5" rx="0.5" fill="#94a3b8" opacity="0.6"/>
<rect x="449.7" y="289.0" width="4" height="5" rx="0.5" fill="#94a3b8" opacity="0.6"/>
<rect x="449.7" y="311.0" width="4" height="5" rx="0.5" fill="#94a3b8" opacity="0.6"/>
<rect x="463.9" y="311.0" width="4" height="5" rx="0.5" fill="#94a3b8" opacity="0.6"/>
<rect x="449.7" y="333.0" width="4" height="5" rx="0.5" fill="#94a3b8" opacity="0.6"/>
<rect x="463.9" y="333.0" width="4" height="5" rx="0.5" fill="#94a3b8" opacity="0.6"/>
<rect x="293.6" y="324.9" width="26.0" height="75.1" rx="3.3" fill="#05956a" opacity="0.68"/>
<rect x="814.6" y="311.2" width="14.8" height="88.8" rx="4.6" fill="#058e73" opacity="0.72"/>
<rect x="219.5" y="342.8" width="33.9" height="57.2" rx="5.3" fill="#059071" opacity="0.52"/>
<rect x="560.8" y="275.4" width="26.1" height="124.6" rx="5.9" fill="#048480" opacity="0.83"/>
<rect x="565.8" y="285.4" width="4" height="5" rx="0.5" fill="#94a3b8" opacity="0.6"/>
<rect x="565.8" y="307.4" width="4" height="5" rx="0.5" fill="#94a3b8" opacity="0.6"/>
<rect x="565.8" y="351.4" width="4" height="5" rx="0.5" fill="#94a3b8" opacity="0.6"/>
<rect x="661.3" y="326.7" width="41.0" height="73.3" rx="4.2" fill="#05956b" opacity="0.55"/>
<rect x="678.0" y="319.6" width="31.7" height="80.4" rx="3.8" fill="#058e73" opacity="0.82"/>
<rect x="683.0" y="351.6" width="4" height="5" rx="0.5" fill="#94a3b8" opacity="0.6"/>
<circle cx="798.3" cy="5.0" r="6.2" fill="#059669" opacity="0.17"/>
<circle cx="512.7" cy="168.7" r="8.0" fill="#94a3b8" opacity="0.28"/>
<circle cx="132.3" cy="107.4" r="10.5" fill="#059669" opacity="0.32"/>
<circle cx="11.2" cy="35.4" r="8.9" fill="#94a3b8" opacity="0.43"/>
<circle cx="360.9" cy="30.3" r="8.8" fill="#059669" opacity="0.41"/>
<circle cx="189.0" cy="61.6" r="5.8" fill="#94a3b8" opacity="0.30"/>
<circle cx="0.5" cy="206.8" r="7.5" fill="#94a3b8" opacity="0.44"/>
<circle cx="738.9" cy="43.9" r="8.1" fill="#059669" opacity="0.28"/>
<circle cx="935.0" cy="37.0" r="4.4" fill="#94a3b8" opacity="0.28"/>
<circle cx="981.9" cy="34.6" r="4.5" fill="#059669" opacity="0.21"/>
<circle cx="609.8" cy="149.8" r="8.5" fill="#059669" opacity="0.20"/>
<circle cx="1063.8" cy="6.4" r="9.2" fill="#059669" opacity="0.44"/>
<rect width="1200" height="400" fill="url(#warm)"/>
<rect width="1200" height="400" fill="#94a3b8" opacity="0.27"/>
</svg>