<svg xmlns="http://www.w3.org/2000/svg" viewBox="0 0 1200 300" width="1200" height="300">
<defs><linearGradient id="skyGrad" x1="0" y1="0" x2="0" y2="1"><stop offset="0%" stop-color="#e8f0f8"/><stop offset="100%" stop-color="#f5e6d8"/></linearGradient></defs><rect width="1200" height="300" fill="url(#skyGrad)"/>
<rect x="193.8" y="200.9" width="65.2" height="99.1" fill="#8aabb4"/>
<polygon points="193.8,200.9 226.4,184.6 259.0,200.9" fill="#7f9da6"/>
<rect x="558.0" y="246.0" width="74.6" height="54.0" fill="#8aabb4"/>
<rect x="571.1" y="236.4" width="48.5" height="9.5" fill="#83a2ab"/>
<rect x="922.4" y="195.5" width="44.5" height="104.5" fill="#8aabb4"/>
<rect x="930.1" y="177.1" width="28.9" height="18.4" fill="#83a2ab"/>
<rect x="115.0" y="206.6" width="36.5" height="93.4" fill="#558592"/>
<rect x="130.3" y="234.6" width="6" height="8" fill="#91b0b8" opacity="0.5"/>
<rect x="130.3" y="266.6" width="6" height="8" fill="#91b0b8" opacity="0.5"/>
<rect x="388.7" y="212.5" width="76.3" height="87.5" fill="#558592"/>
<rect x="402.0" y="197.1" width="49.6" height="15.4" fill="#517e8b"/>
<rect x="409.8" y="209.1" width="6" height="8" fill="#91b0b8" opacity="0.5"/>
<rect x="423.8" y="209.1" width="6" height="8" fill="#91b0b8" opacity="0.5"/>
<rect x="423.8" y="225.1" width="6" height="8" fill="#91b0b8" opacity="0.5"/>
<rect x="409.8" y="241.1" width="6" height="8" fill="#91b0b8" opacity="0.5"/>
<rect x="423.8" y="241.1" width="6" height="8" fill="#91b0b8" opacity="0.5"/>
<rect x="437.8" y="241.1" width="6" height="8" fill="#91b0b8" opacity="0.5"/>
<rect x="409.8" y="257.1" width="6" height="8" fill="#91b0b8" opacity="0.5"/>
<rect x="423.8" y="257.1" width="6" height="8" fill="#91b0b8" opacity="0.5"/>
<rect x="437.8" y="257.1" width="6" height="8" fill="#91b0b8" opacity="0.5"/>
<rect x="423.8" y="273.1" width="6" height="8" fill="#91b0b8" opacity="0.5"/>
<rect x="437.8" y="273.1" width="6" height="8" fill="#91b0b8" opacity="0.5"/>
<rect x="689.9" y="222.6" width="68.9" height="77.4" fill="#558592"/>
<rect x="702.0" y="209.0" width="44.8" height="13.7" fill="#517e8b"/>
<rect x="721.3" y="221.0" width="6" height="8" fill="#91b0b8" opacity="0.5"/>
<rect x="735.3" y="221.0" width="6" height="8" fill="#91b0b8" opacity="0.5"/>
<rect x="707.3" y="237.0" width="6" height="8" fill="#91b0b8" opacity="0.5"/>
<rect x="721.3" y="237.0" width="6" height="8" fill="#91b0b8" opacity="0.5"/>
<rect x="735.3" y="237.0" width="6" height="8" fill="#91b0b8" opacity="0.5"/>
<rect x="707.3" y="253.0" width="6" height="8" fill="#91b0b8" opacity="0.5"/>
<rect x="721.3" y="253.0" width="6" height="8" fill="#91b0b8" opacity="0.5"/>
<rect x="707.3" y="269.0" width="6" height="8" fill="#91b0b8" opacity="0.5"/>
<rect x="721.3" y="269.0" width="6" height="8" fill="#91b0b8" opacity="0.5"/>
<rect x="957.1" y="201.9" width="71.9" height="98.1" fill="#558592"/>
<rect x="969.7" y="184.5" width="46.7" height="17.3" fill="#517e8b"/>
<rect x="976.0" y="196.5" width="6" height="8" fill="#91b0b8" opacity="0.5"/>
<rect x="990.0" y="196.5" width="6" height="8" fill="#91b0b8" opacity="0.5"/>
<rect x="1004.0" y="196.5" width="6" height="8" fill="#91b0b8" opacity="0.5"/>
<rect x="976.0" y="212.5" width="6" height="8" fill="#91b0b8" opacity="0.5"/>
<rect x="990.0" y="212.5" width="6" height="8" fill="#91b0b8" opacity="0.5"/>
<rect x="1004.0" y="212.5" width="6" height="8" fill="#91b0b8" opacity="0.5"/>
<rect x="976.0" y="228.5" width="6" height="8" fill="#91b0b8" opacity="0.5"/>
<rect x="990.0" y="228.5" width="6" height="8" fill="#91b0b8" opacity="0.5"/>
<rect x="1004.0" y="228.5" width="6" height="8" fill="#91b0b8" opacity="0.5"/>
<rect x="976.0" y="244.5" width="6" height="8" fill="#91b0b8" opacity="0.5"/>
<rect x="1004.0" y="244.5" width="6" height="8" fill="#91b0b8" opacity="0.5"/>
<rect x="976.0" y="260.5" width="6" height="8" fill="#91b0b8" opacity="0.5"/>
<rect x="1004.0" y="260.5" width="6" height="8" fill="#91b0b8" opacity="0.5"/>
<rect x="154.8" y="254.5" width="60.7" height="45.5" fill="#2b6777"/>
<rect x="165.4" y="246.5" width="39.5" height="8.0" fill="#296271"/>
<rect x="525.7" y="251.1" width="57.3" height="48.9" fill="#2b6777"/>
<rect x="1003.3" y="214.0" width="41.7" height="86.0" fill="#2b6777"/>
<rect x="1021.1" y="226.0" width="6" height="8" fill="#759ca7" opacity="0.5"/>
<rect x="1021.1" y="242.0" width="6" height="8" fill="#759ca7" opacity="0.5"/>
<rect x="1021.1" y="258.0" width="6" height="8" fill="#759ca7" opacity="0.5"/>
<path d="M370.6 285.0 Q392.8 259.3 386.1 233.6" fill="none" stroke="#897154" stroke-width="3"/>
<path d="M386.1 233.6 Q372.9 223.8 364.0 224.0" fill="none" stroke="#45833b" stroke-width="2.5"/>
<path d="M386.1 233.6 Q391.2 220.8 394.6 217.9" fill="none" stroke="#45833b" stroke-width="2.5"/>
<path d="M386.1 233.6 Q397.9 228.6 405.8 233.6" fill="none" stroke="#45833b" stroke-width="2.5"/>
<path d="M386.1 233.6 Q389.9 234.5 392.5 245.3" fill="none" stroke="#45833b" stroke-width="2.5"/>
<path d="M386.1 233.6 Q376.4 232.1 370.0 240.6" fill="none" stroke="#45833b" stroke-width="2.5"/>
<path d="M793.1 285.0 Q809.9 264.8 804.9 244.6" fill="none" stroke="#7e684d" stroke-width="3"/>
<path d="M804.9 244.6 Q791.4 234.7 782.5 234.8" fill="none" stroke="#438039" stroke-width="2.5"/>
<path d="M804.9 244.6 Q810.4 231.1 814.1 227.6" fill="none" stroke="#438039" stroke-width="2.5"/>
<path d="M804.9 244.6 Q818.1 239.6 827.0 244.6" fill="none" stroke="#438039" stroke-width="2.5"/>
<path d="M804.9 244.6 Q808.6 245.2 811.0 255.9" fill="none" stroke="#438039" stroke-width="2.5"/>
<path d="M804.9 244.6 Q791.0 244.6 781.8 254.7" fill="none" stroke="#438039" stroke-width="2.5"/>
<path d="M920.4 285.0 Q949.4 263.6 940.7 242.2" fill="none" stroke="#7e694d" stroke-width="3"/>
<path d="M940.7 242.2 Q927.4 232.4 918.6 232.6" fill="none" stroke="#45833b" stroke-width="2.5"/>
<path d="M940.7 242.2 Q944.8 230.8 947.6 229.4" fill="none" stroke="#45833b" stroke-width="2.5"/>
<path d="M940.7 242.2 Q954.7 237.2 964.1 242.2" fill="none" stroke="#45833b" stroke-width="2.5"/>
<path d="M940.7 242.2 Q945.0 243.9 947.9 255.5" fill="none" stroke="#45833b" stroke-width="2.5"/>
<path d="M940.7 242.2 Q927.1 242.2 918.1 252.1" fill="none" stroke="#45833b" stroke-width="2.5"/>
<path d="M723.1 285.0 Q743.6 255.1 737.5 225.1" fill="none" stroke="#836c50" stroke-width="3"/>
<path d="M737.5 225.1 Q728.4 216.8 722.3 218.5" fill="none" stroke="#49893e" stroke-width="2.5"/>
<path d="M737.5 225.1 Q740.9 214.8 743.2 214.6" fill="none" stroke="#49893e" stroke-width="2.5"/>
<path d="M737.5 225.1 Q752.1 220.1 761.8 225.1" fill="none" stroke="#49893e" stroke-width="2.5"/>
<path d="M737.5 225.1 Q741.0 225.5 743.3 235.9" fill="none" stroke="#49893e" stroke-width="2.5"/>
<path d="M737.5 225.1 Q725.8 224.4 718.0 233.6" fill="none" stroke="#49893e" stroke-width="2.5"/>
<path d="M940.7 285.0 Q960.6 257.8 954.6 230.5" fill="none" stroke="#856e51" stroke-width="3"/>
<path d="M954.6 230.5 Q943.0 221.3 935.2 222.1" fill="none" stroke="#45833b" stroke-width="2.5"/>
<path d="M954.6 230.5 Q959.2 218.4 962.3 216.3" fill="none" stroke="#45833b" stroke-width="2.5"/>
<path d="M954.6 230.5 Q967.1 225.5 975.4 230.5" fill="none" stroke="#45833b" stroke-width="2.5"/>
<path d="M954.6 230.5 Q958.2 231.0 960.5 241.5" fill="none" stroke="#45833b" stroke-width="2.5"/>
<path d="M954.6 230.5 Q943.2 229.7 935.6 238.8" fill="none" stroke="#45833b" stroke-width="2.5"/>
<path d="M1051.6 285.0 Q1067.7 262.7 1062.8 240.4" fill="none" stroke="#836d50" stroke-width="3"/>
<path d="M1062.8 240.4 Q1051.4 231.3 1043.8 232.1" fill="none" stroke="#44803a" stroke-width="2.5"/>
<path d="M1062.8 240.4 Q1067.5 228.3 1070.5 226.2" fill="none" stroke="#44803a" stroke-width="2.5"/>
<path d="M1062.8 240.4 Q1078.5 235.4 1089.0 240.4" fill="none" stroke="#44803a" stroke-width="2.5"/>
<path d="M1062.8 240.4 Q1068.3 243.8 1071.9 257.2" fill="none" stroke="#44803a" stroke-width="2.5"/>
<path d="M1062.8 240.4 Q1050.8 239.8 1042.7 249.2" fill="none" stroke="#44803a" stroke-width="2.5"/>
<rect x="0" y="285" width="1200" height="15" fill="#d4c5a9" opacity="0.4"/>
<circle cx="1060.1" cy="41.7" r="29.6" fill="#f5e6a0" opacity="0.1"/>
</svg>