<svg xmlns="http://www.w3.org/2000/svg" viewBox="0 0 1200 400" width="1200" height="400">
<defs>
<linearGradient id="bg" x1="0" y1="0" x2="0" y2="1"><stop offset="0%" stop-color="#94a3b8"/><stop offset="100%" stop-color="#0369a1"/></linearGradient>
<linearGradient id="warm" x1="0" y1="0" x2="1" y2="1"><stop offset="0%" stop-color="#858d98" stop-opacity="0.18"/><stop offset="100%" stop-color="#858d98" stop-opacity="0.06"/></linearGradient>
</defs>
<rect width="1200" height="400" fill="url(#bg)"/>
<path d="M0 400 L0 250.7495168654341 C60.0 247.4, 90.0 247.5, 150.0 248.3 C210.0 239.5, 240.0 242.0, 300.0 235.6 C360.0 244.3, 390.0 233.8, 450.0 235.7 C510.0 231.8, 540.0 254.5, 600.0 245.8 C660.0 243.4, 690.0 252.5, 750.0 252.8 C810.0 253.7, 840.0 219.0, 900.0 224.3 C960.0 233.8, 990.0 251.0, 1050.0 245.5 C1110.0 252.8, 1140.0 246.0, 1200.0 237.0 L1200 400 Z" fill="#367da9" opacity="0.45"/>
<path d="M0 400 L0 262.1003259805826 C52.5 268.8, 97.5 273.3, 150.0 279.5 C202.5 274.4, 247.5 256.3, 300.0 262.1 C352.5 256.9, 397.5 271.4, 450.0 267.4 C502.5 264.8, 547.5 275.3, 600.0 268.6 C652.5 275.2, 697.5 265.4, 750.0 271.2 C802.5 274.0, 847.5 276.3, 900.0 271.0 C952.5 267.1, 997.5 285.6, 1050.0 278.3 C1102.5 271.8, 1147.5 270.0, 1200.0 275.7 L1200 400 Z" fill="#0369a1" opacity="0.3"/>
<rect x="856.2" y="301.1" width="29.0" height="98.9" rx="3.8" fill="#05946c" opacity="0.60"/>
<rect x="1058.5" y="292.7" width="16.7" height="107.3" rx="3.2" fill="#058d74" opacity="0.51"/>
<rect x="465.8" y="294.2" width="29.7" height="105.8" rx="3.4" fill="#04887a" opacity="0.52"/>
<rect x="768.4" y="299.6" width="48.4" height="100.4" rx="6.5" fill="#058b76" opacity="0.53"/>
<rect x="773.4" y="309.6" width="4" height="5" rx="0.5" fill="#94a3b8" opacity="0.6"/>
<rect x="789.6" y="309.6" width="4" height="5" rx="0.5" fill="#94a3b8" opacity="0.6"/>
<rect x="773.4" y="331.6" width="4" height="5" rx="0.5" fill="#94a3b8" opacity="0.6"/>
<rect x="773.4" y="353.6" width="4" height="5" rx="0.5" fill="#94a3b8" opacity="0.6"/>
<rect x="789.6" y="353.6" width="4" height="5" rx="0.5" fill="#94a3b8" opacity="0.6"/>
<rect x="789.6" y="375.6" width="4" height="5" rx="0.5" fill="#94a3b8" opacity="0.6"/>
<rect x="999.7" y="322.9" width="44.3" height="77.1" rx="7.8" fill="#04857e" opacity="0.54"/>
<rect x="140.5" y="336.6" width="39.1" height="63.4" rx="5.1" fill="#047f86" opacity="0.77"/>
<rect x="986.0" y="346.9" width="19.7" height="53.1" rx="4.0" fill="#04867d" opacity="0.62"/>
<rect x="866.3" y="339.7" width="40.8" height="60.3" rx="5.8" fill="#058c76" opacity="0.55"/>
<rect x="687.7" y="316.6" width="26.4" height="83.4" rx="6.7" fill="#04887b" opacity="0.51"/>
<rect x="646.8" y="266.8" width="21.0" height="133.2" rx="6.1" fill="#04867e" opacity="0.55"/>
<rect x="651.8" y="298.8" width="4" height="5" rx="0.5" fill="#94a3b8" opacity="0.6"/>
<rect x="651.8" y="320.8" width="4" height="5" rx="0.5" fill="#94a3b8" opacity="0.6"/>
<rect x="438.5" y="340.6" width="19.6" height="59.4" rx="3.3" fill="#059669" opacity="0.83"/>
<rect x="930.1" y="355.1" width="42.5" height="44.9" rx="3.1" fill="#048a78" opacity="0.83"/>
<rect x="741.1" y="358.2" width="33.9" height="41.8" rx="5.8" fill="#058e73" opacity="0.69"/>
<circle cx="447.1" cy="81.0" r="10.9" fill="#059669" opacity="0.44"/>
<circle cx="1080.0" cy="206.3" r="7.2" fill="#059669" opacity="0.24"/>
<circle cx="489.2" cy="223.3" r="4.4" fill="#94a3b8" opacity="0.35"/>
<circle cx="226.4" cy="213.0" r="9.9" fill="#94a3b8" opacity="0.17"/>
<circle cx="991.6" cy="203.3" r="5.4" fill="#059669" opacity="0.27"/>
<circle cx="563.1" cy="32.8" r="8.6" fill="#94a3b8" opacity="0.25"/>
<circle cx="310.0" cy="67.2" r="9.2" fill="#94a3b8" opacity="0.40"/>
<circle cx="1028.8" cy="225.9" r="3.1" fill="#059669" opacity="0.45"/>
<circle cx="357.5" cy="178.5" r="6.7" fill="#94a3b8" opacity="0.41"/>
<circle cx="786.6" cy="113.7" r="9.5" fill="#059669" opacity="0.24"/>
<circle cx="968.3" cy="118.8" r="7.8" fill="#059669" opacity="0.44"/>
<circle cx="551.2" cy="61.6" r="10.2" fill="#059669" opacity="0.17"/>
<rect width="1200" height="400" fill="url(#warm)"/>
<rect width="1200" height="400" fill="#94a3b8" opacity="0.40"/>
</svg>