<svg xmlns="http://www.w3.org/2000/svg" viewBox="0 0 1200 300" width="1200" height="300">
<defs>
<linearGradient id="skyGrad" x1="0" y1="0" x2="0" y2="1">
<stop offset="0%" stop-color="#a78bfa"/>
<stop offset="18%" stop-color="#ddb4f0"/>
<stop offset="35%" stop-color="#fda4af"/>
<stop offset="52%" stop-color="#fdba74"/>
<stop offset="72%" stop-color="#fef08a"/>
<stop offset="100%" stop-color="#fef9c3"/>
</linearGradient>
<linearGradient id="bldg_coral" x1="0" y1="0" x2="0" y2="1"><stop offset="0%" stop-color="#fecaca"/><stop offset="100%" stop-color="#fca5a5"/></linearGradient>
<linearGradient id="bldg_teal" x1="0" y1="0" x2="0" y2="1"><stop offset="0%" stop-color="#99f6e4"/><stop offset="100%" stop-color="#5eead4"/></linearGradient>
<linearGradient id="bldg_amber" x1="0" y1="0" x2="0" y2="1"><stop offset="0%" stop-color="#fde68a"/><stop offset="100%" stop-color="#fcd34d"/></linearGradient>
<linearGradient id="bldg_lavender" x1="0" y1="0" x2="0" y2="1"><stop offset="0%" stop-color="#ddd6fe"/><stop offset="100%" stop-color="#c4b5fd"/></linearGradient>
<linearGradient id="bldg_blue" x1="0" y1="0" x2="0" y2="1"><stop offset="0%" stop-color="#bfdbfe"/><stop offset="100%" stop-color="#93c5fd"/></linearGradient>
<linearGradient id="bldg_mint" x1="0" y1="0" x2="0" y2="1"><stop offset="0%" stop-color="#a7f3d0"/><stop offset="100%" stop-color="#6ee7b7"/></linearGradient>
<linearGradient id="bldg_rose" x1="0" y1="0" x2="0" y2="1"><stop offset="0%" stop-color="#fecdd3"/><stop offset="100%" stop-color="#fda4af"/></linearGradient>
<linearGradient id="bldg_sky" x1="0" y1="0" x2="0" y2="1"><stop offset="0%" stop-color="#bae6fd"/><stop offset="100%" stop-color="#7dd3fc"/></linearGradient>
<linearGradient id="roof_navyRoof" x1="0" y1="0" x2="0" y2="1"><stop offset="0%" stop-color="#4338ca"/><stop offset="100%" stop-color="#3730a3"/></linearGradient>
<linearGradient id="roof_coralRoof" x1="0" y1="0" x2="0" y2="1"><stop offset="0%" stop-color="#f87171"/><stop offset="100%" stop-color="#ef4444"/></linearGradient>
<linearGradient id="roof_tealRoof" x1="0" y1="0" x2="0" y2="1"><stop offset="0%" stop-color="#2dd4bf"/><stop offset="100%" stop-color="#14b8a6"/></linearGradient>
<radialGradient id="windowGlow" cx="50%" cy="50%" r="50%"><stop offset="0%" stop-color="#fef08a"/><stop offset="60%" stop-color="#fbbf24"/><stop offset="100%" stop-color="#f59e0b"/></radialGradient>
<linearGradient id="hillFar" x1="0" y1="0" x2="0" y2="1"><stop offset="0%" stop-color="#c4b5fd"/><stop offset="100%" stop-color="#a5b4fc"/></linearGradient>
<linearGradient id="hillMid" x1="0" y1="0" x2="0" y2="1"><stop offset="0%" stop-color="#86efac"/><stop offset="100%" stop-color="#4ade80"/></linearGradient>
<linearGradient id="hillNear" x1="0" y1="0" x2="0" y2="1"><stop offset="0%" stop-color="#34d399"/><stop offset="100%" stop-color="#10b981"/></linearGradient>
<linearGradient id="hillDesertFar" x1="0" y1="0" x2="0" y2="1"><stop offset="0%" stop-color="#fde68a"/><stop offset="100%" stop-color="#fcd34d"/></linearGradient>
<linearGradient id="hillDesertMid" x1="0" y1="0" x2="0" y2="1"><stop offset="0%" stop-color="#fcd34d"/><stop offset="100%" stop-color="#fbbf24"/></linearGradient>
<linearGradient id="hillDesertNear" x1="0" y1="0" x2="0" y2="1"><stop offset="0%" stop-color="#fbbf24"/><stop offset="100%" stop-color="#f59e0b"/></linearGradient>
<linearGradient id="groundGrad" x1="0" y1="0" x2="0" y2="1"><stop offset="0%" stop-color="#fef3c7"/><stop offset="100%" stop-color="#fde68a"/></linearGradient>
<linearGradient id="waterGrad" x1="0" y1="0" x2="0" y2="1"><stop offset="0%" stop-color="#bfdbfe"/><stop offset="100%" stop-color="#93c5fd"/></linearGradient>
<filter id="softGlow" x="-50%" y="-50%" width="200%" height="200%"><feGaussianBlur in="SourceGraphic" stdDeviation="12"/></filter>
</defs>
<rect width="1200" height="300" fill="url(#skyGrad)"/>
<circle cx="1017.2" cy="40.8" r="45" fill="#fef08a" opacity="0.12" filter="url(#softGlow)"/>
<circle cx="1017.2" cy="40.8" r="30" fill="#fde68a" opacity="0.18" filter="url(#softGlow)"/>
<circle cx="1017.2" cy="40.8" r="16" fill="#fef9c3" opacity="0.25" filter="url(#softGlow)"/>
<path d="M0 300 L0.0 189.8 C180.3 189.8, 180.3 187.6, 360.6 187.6 C505.2 187.6, 505.2 193.8, 649.9 193.8 C759.5 193.8, 759.5 187.4, 869.1 187.4 C1034.6 187.4, 1034.6 193.8, 1200.0 193.8 L1200 300 Z" fill="url(#hillFar)" opacity="0.5"/>
<path d="M0 300 L0.0 216.3 C230.5 216.3, 230.5 201.9, 461.0 201.9 C621.3 201.9, 621.3 202.2, 781.6 202.2 C990.8 202.2, 990.8 206.5, 1200.0 206.5 L1200 300 Z" fill="url(#hillMid)" opacity="0.7"/>
<path d="M0 300 L0.0 231.1 C176.8 231.1, 176.8 229.9, 353.6 229.9 C572.3 229.9, 572.3 235.3, 791.0 235.3 C995.5 235.3, 995.5 239.9, 1200.0 239.9 L1200 300 Z" fill="url(#hillNear)" opacity="1"/>
<rect x="255.6" y="203.4" width="55.8" height="96.6" rx="3" fill="url(#bldg_coral)" opacity="0.7"/>
<rect x="266.8" y="191.8" width="33.5" height="11.6" rx="2" fill="url(#roof_coralRoof)" opacity="0.7"/>
<rect x="273.5" y="213.4" width="6" height="8" rx="1" fill="url(#windowGlow)" opacity="0.9628272347910456"/>
<rect x="287.5" y="213.4" width="6" height="8" rx="1" fill="url(#windowGlow)" opacity="0.7429746969337456"/>
<rect x="273.5" y="228.4" width="6" height="8" rx="1" fill="url(#windowGlow)" opacity="0.7662879405386224"/>
<rect x="287.5" y="228.4" width="6" height="8" rx="1" fill="url(#windowGlow)" opacity="0.79580368744014"/>
<rect x="273.5" y="243.4" width="6" height="8" rx="1" fill="url(#windowGlow)" opacity="0.8037281904386953"/>
<rect x="287.5" y="243.4" width="6" height="8" rx="1" fill="url(#windowGlow)" opacity="0.9977094348509374"/>
<rect x="273.5" y="258.4" width="6" height="8" rx="1" fill="url(#windowGlow)" opacity="0.7237298229354107"/>
<rect x="287.5" y="258.4" width="6" height="8" rx="1" fill="url(#windowGlow)" opacity="0.7834855542441297"/>
<rect x="908.6" y="194.9" width="68.7" height="105.1" rx="3" fill="url(#bldg_teal)" opacity="0.7"/>
<polygon points="908.6,194.9 942.9,178.1 977.2,194.9" fill="url(#roof_tealRoof)" opacity="0.7"/>
<rect x="925.9" y="204.9" width="6" height="8" rx="1" fill="url(#windowGlow)" opacity="0.7128180867586369"/>
<rect x="939.9" y="204.9" width="6" height="8" rx="1" fill="url(#windowGlow)" opacity="0.742041434879434"/>
<rect x="953.9" y="204.9" width="6" height="8" rx="1" fill="url(#windowGlow)" opacity="0.7432713386338536"/>
<rect x="925.9" y="219.9" width="6" height="8" rx="1" fill="url(#windowGlow)" opacity="0.9858358618737365"/>
<rect x="939.9" y="219.9" width="6" height="8" rx="1" fill="url(#windowGlow)" opacity="0.9038596588670553"/>
<rect x="953.9" y="219.9" width="6" height="8" rx="1" fill="url(#windowGlow)" opacity="0.8963978710101907"/>
<rect x="925.9" y="234.9" width="6" height="8" rx="1" fill="url(#windowGlow)" opacity="0.7035801537817251"/>
<rect x="939.9" y="234.9" width="6" height="8" rx="1" fill="url(#windowGlow)" opacity="0.8190919853835794"/>
<rect x="953.9" y="234.9" width="6" height="8" rx="1" fill="url(#windowGlow)" opacity="0.959281340222471"/>
<rect x="925.9" y="249.9" width="6" height="8" rx="1" fill="url(#windowGlow)" opacity="0.7425772530690661"/>
<rect x="939.9" y="249.9" width="6" height="8" rx="1" fill="url(#windowGlow)" opacity="0.7772427339932149"/>
<rect x="953.9" y="249.9" width="6" height="8" rx="1" fill="url(#windowGlow)" opacity="0.748257930925236"/>
<rect x="185.1" y="209.7" width="73.1" height="90.3" rx="3" fill="url(#bldg_amber)" opacity="0.85"/>
<rect x="199.7" y="198.8" width="43.8" height="10.8" rx="2" fill="url(#roof_navyRoof)" opacity="0.85"/>
<rect x="197.6" y="219.7" width="6" height="8" rx="1" fill="url(#windowGlow)" opacity="0.972940301184049"/>
<rect x="211.6" y="219.7" width="6" height="8" rx="1" fill="url(#windowGlow)" opacity="0.7325078452157359"/>
<rect x="225.6" y="219.7" width="6" height="8" rx="1" fill="url(#windowGlow)" opacity="0.93212286738312"/>
<rect x="239.6" y="219.7" width="6" height="8" rx="1" fill="url(#windowGlow)" opacity="0.7952275105264166"/>
<rect x="197.6" y="234.7" width="6" height="8" rx="1" fill="url(#windowGlow)" opacity="0.9335256654925297"/>
<rect x="225.6" y="234.7" width="6" height="8" rx="1" fill="url(#windowGlow)" opacity="0.9825414819561603"/>
<rect x="239.6" y="234.7" width="6" height="8" rx="1" fill="url(#windowGlow)" opacity="0.9918092173486059"/>
<rect x="197.6" y="249.7" width="6" height="8" rx="1" fill="url(#windowGlow)" opacity="0.7329810621836134"/>
<rect x="239.6" y="249.7" width="6" height="8" rx="1" fill="url(#windowGlow)" opacity="0.7599440985172726"/>
<rect x="579.3" y="202.5" width="55.6" height="97.5" rx="3" fill="url(#bldg_lavender)" opacity="0.85"/>
<rect x="579.3" y="199.5" width="55.6" height="3" rx="1" fill="url(#roof_coralRoof)" opacity="0.85"/>
<rect x="597.1" y="212.5" width="6" height="8" rx="1" fill="url(#windowGlow)" opacity="0.9104243710219972"/>
<rect x="611.1" y="212.5" width="6" height="8" rx="1" fill="url(#windowGlow)" opacity="0.8728176383640699"/>
<rect x="597.1" y="227.5" width="6" height="8" rx="1" fill="url(#windowGlow)" opacity="0.7320771281291159"/>
<rect x="611.1" y="227.5" width="6" height="8" rx="1" fill="url(#windowGlow)" opacity="0.8038279775547925"/>
<rect x="597.1" y="242.5" width="6" height="8" rx="1" fill="url(#windowGlow)" opacity="0.7350721145677716"/>
<rect x="597.1" y="257.5" width="6" height="8" rx="1" fill="url(#windowGlow)" opacity="0.833417076865871"/>
<rect x="980.1" y="187.1" width="67.6" height="112.9" rx="3" fill="url(#bldg_blue)" opacity="0.85"/>
<rect x="980.1" y="184.1" width="67.6" height="3" rx="1" fill="url(#roof_tealRoof)" opacity="0.85"/>
<rect x="996.9" y="197.1" width="6" height="8" rx="1" fill="url(#windowGlow)" opacity="0.8260599590027984"/>
<rect x="1010.9" y="197.1" width="6" height="8" rx="1" fill="url(#windowGlow)" opacity="0.7853041877901666"/>
<rect x="1024.9" y="197.1" width="6" height="8" rx="1" fill="url(#windowGlow)" opacity="0.8243451562823472"/>
<rect x="996.9" y="212.1" width="6" height="8" rx="1" fill="url(#windowGlow)" opacity="0.7956759061644206"/>
<rect x="1010.9" y="212.1" width="6" height="8" rx="1" fill="url(#windowGlow)" opacity="0.9898648787242662"/>
<rect x="1024.9" y="212.1" width="6" height="8" rx="1" fill="url(#windowGlow)" opacity="0.909029653905439"/>
<rect x="1010.9" y="227.1" width="6" height="8" rx="1" fill="url(#windowGlow)" opacity="0.8328223196476802"/>
<rect x="996.9" y="242.1" width="6" height="8" rx="1" fill="url(#windowGlow)" opacity="0.9152270316682881"/>
<rect x="1010.9" y="242.1" width="6" height="8" rx="1" fill="url(#windowGlow)" opacity="0.9631370260208552"/>
<rect x="1024.9" y="242.1" width="6" height="8" rx="1" fill="url(#windowGlow)" opacity="0.8209269871101375"/>
<rect x="996.9" y="257.1" width="6" height="8" rx="1" fill="url(#windowGlow)" opacity="0.7402381349076694"/>
<rect x="1010.9" y="257.1" width="6" height="8" rx="1" fill="url(#windowGlow)" opacity="0.9055716346509622"/>
<rect x="1024.9" y="257.1" width="6" height="8" rx="1" fill="url(#windowGlow)" opacity="0.8971910471549216"/>
<rect x="226.9" y="188.4" width="45.1" height="111.6" rx="3" fill="url(#bldg_mint)" opacity="1"/>
<polygon points="226.9,188.4 249.4,179.1 271.9,188.4" fill="url(#roof_navyRoof)" opacity="1"/>
<rect x="239.4" y="198.4" width="6" height="8" rx="1" fill="url(#windowGlow)" opacity="0.9024172105837693"/>
<rect x="253.4" y="198.4" width="6" height="8" rx="1" fill="url(#windowGlow)" opacity="0.9444620419500684"/>
<rect x="239.4" y="213.4" width="6" height="8" rx="1" fill="url(#windowGlow)" opacity="0.9889786831517604"/>
<rect x="253.4" y="213.4" width="6" height="8" rx="1" fill="url(#windowGlow)" opacity="0.8614370273246602"/>
<rect x="239.4" y="228.4" width="6" height="8" rx="1" fill="url(#windowGlow)" opacity="0.7487990770716215"/>
<rect x="239.4" y="243.4" width="6" height="8" rx="1" fill="url(#windowGlow)" opacity="0.863053770578957"/>
<rect x="253.4" y="243.4" width="6" height="8" rx="1" fill="url(#windowGlow)" opacity="0.8411429428687053"/>
<rect x="239.4" y="258.4" width="6" height="8" rx="1" fill="url(#windowGlow)" opacity="0.8577291481465702"/>
<rect x="253.4" y="258.4" width="6" height="8" rx="1" fill="url(#windowGlow)" opacity="0.8518875642921251"/>
<rect x="244.4" y="284.0" width="10" height="16" rx="2" fill="url(#roof_navyRoof)" opacity="0.8"/>
<rect x="246.4" y="287.0" width="6" height="10" rx="1" fill="url(#windowGlow)" opacity="0.45"/>
<path d="M249.4 227.5 L267.4 227.5 L264.4 233.5 L252.4 233.5 Z" fill="url(#roof_tealRoof)" opacity="0.8"/>
<rect x="241.5" y="229.4" width="15.8" height="5" rx="1" fill="#15803d" opacity="0.7"/>
<circle cx="244.5" cy="228.4" r="2.5" fill="#f87171" opacity="0.85"/>
<circle cx="249.8" cy="228.4" r="2.5" fill="#f87171" opacity="0.85"/>
<circle cx="255.0" cy="228.4" r="2.5" fill="#fb923c" opacity="0.85"/>
<rect x="556.9" y="224.9" width="35.1" height="75.1" rx="3" fill="url(#bldg_rose)" opacity="1"/>
<rect x="556.9" y="221.9" width="35.1" height="3" rx="1" fill="url(#roof_coralRoof)" opacity="1"/>
<rect x="571.4" y="234.9" width="6" height="8" rx="1" fill="url(#windowGlow)" opacity="0.8644150654153968"/>
<rect x="571.4" y="249.9" width="6" height="8" rx="1" fill="url(#windowGlow)" opacity="0.7687458679865793"/>
<rect x="569.4" y="284.0" width="10" height="16" rx="2" fill="url(#roof_navyRoof)" opacity="0.8"/>
<rect x="571.4" y="287.0" width="6" height="10" rx="1" fill="url(#windowGlow)" opacity="0.45"/>
<rect x="929.8" y="218.7" width="62.9" height="81.3" rx="3" fill="url(#bldg_sky)" opacity="1"/>
<rect x="929.8" y="215.7" width="62.9" height="3" rx="1" fill="url(#roof_tealRoof)" opacity="1"/>
<rect x="944.2" y="228.7" width="6" height="8" rx="1" fill="url(#windowGlow)" opacity="0.9475198183429985"/>
<rect x="958.2" y="228.7" width="6" height="8" rx="1" fill="url(#windowGlow)" opacity="0.835773715998872"/>
<rect x="972.2" y="228.7" width="6" height="8" rx="1" fill="url(#windowGlow)" opacity="0.9309441359857769"/>
<rect x="944.2" y="243.7" width="6" height="8" rx="1" fill="url(#windowGlow)" opacity="0.7527041096485704"/>
<rect x="958.2" y="243.7" width="6" height="8" rx="1" fill="url(#windowGlow)" opacity="0.9056604743030203"/>
<rect x="972.2" y="243.7" width="6" height="8" rx="1" fill="url(#windowGlow)" opacity="0.9342195185992026"/>
<rect x="944.2" y="258.7" width="6" height="8" rx="1" fill="url(#windowGlow)" opacity="0.8905843434811496"/>
<rect x="958.2" y="258.7" width="6" height="8" rx="1" fill="url(#windowGlow)" opacity="0.9001368657686453"/>
<rect x="956.2" y="284.0" width="10" height="16" rx="2" fill="url(#roof_navyRoof)" opacity="0.8"/>
<rect x="958.2" y="287.0" width="6" height="10" rx="1" fill="url(#windowGlow)" opacity="0.45"/>
<path d="M414.4 285.0 Q431.1 254.6 424.4 224.2" stroke="#92400e" stroke-width="4" fill="none" stroke-linecap="round"/>
<path d="M424.4 224.2 Q410.9 212.6 401.9 211.8" stroke="#16a34a" stroke-width="2.5" fill="none" stroke-linecap="round"/>
<path d="M424.4 224.2 Q430.1 212.4 433.9 211.6" stroke="#22c55e" stroke-width="2.5" fill="none" stroke-linecap="round"/>
<path d="M424.4 224.2 Q443.7 218.2 456.5 224.2" stroke="#15803d" stroke-width="2.5" fill="none" stroke-linecap="round"/>
<path d="M424.4 224.2 Q430.6 224.4 434.7 237.8" stroke="#4ade80" stroke-width="2.5" fill="none" stroke-linecap="round"/>
<path d="M424.4 224.2 Q413.4 222.8 406.1 234.3" stroke="#16a34a" stroke-width="2.5" fill="none" stroke-linecap="round"/>
<path d="M760.9 285.0 Q784.7 259.9 775.2 234.9" stroke="#92400e" stroke-width="4" fill="none" stroke-linecap="round"/>
<path d="M775.2 234.9 Q765.9 225.0 759.6 226.3" stroke="#16a34a" stroke-width="2.5" fill="none" stroke-linecap="round"/>
<path d="M775.2 234.9 Q782.1 221.9 786.7 219.6" stroke="#22c55e" stroke-width="2.5" fill="none" stroke-linecap="round"/>
<path d="M775.2 234.9 Q788.3 228.9 797.1 234.9" stroke="#15803d" stroke-width="2.5" fill="none" stroke-linecap="round"/>
<path d="M775.2 234.9 Q781.5 235.3 785.8 248.9" stroke="#4ade80" stroke-width="2.5" fill="none" stroke-linecap="round"/>
<path d="M775.2 234.9 Q760.9 234.8 751.3 248.0" stroke="#16a34a" stroke-width="2.5" fill="none" stroke-linecap="round"/>
<path d="M187.9 285.0 Q213.5 258.0 203.2 230.9" stroke="#92400e" stroke-width="4" fill="none" stroke-linecap="round"/>
<path d="M203.2 230.9 Q192.0 220.2 184.6 220.7" stroke="#16a34a" stroke-width="2.5" fill="none" stroke-linecap="round"/>
<path d="M203.2 230.9 Q210.5 217.6 215.4 214.7" stroke="#22c55e" stroke-width="2.5" fill="none" stroke-linecap="round"/>
<path d="M203.2 230.9 Q216.1 224.9 224.7 230.9" stroke="#15803d" stroke-width="2.5" fill="none" stroke-linecap="round"/>
<path d="M203.2 230.9 Q209.5 231.3 213.7 244.9" stroke="#4ade80" stroke-width="2.5" fill="none" stroke-linecap="round"/>
<path d="M203.2 230.9 Q194.0 228.7 187.9 239.3" stroke="#16a34a" stroke-width="2.5" fill="none" stroke-linecap="round"/>
<rect x="0" y="282" width="1200" height="18" fill="url(#groundGrad)"/>
<line x1="1102.2" y1="282.0" x2="1102.2" y2="246.7" stroke="#92400e" stroke-width="2"/>
<circle cx="1102.2" cy="246.7" r="4" fill="#fef08a" opacity="0.6"/>
<circle cx="1102.2" cy="246.7" r="8" fill="#fef08a" opacity="0.15" filter="url(#softGlow)"/>
<line x1="918.1" y1="282.0" x2="918.1" y2="251.2" stroke="#92400e" stroke-width="2"/>
<circle cx="918.1" cy="251.2" r="4" fill="#fef08a" opacity="0.6"/>
<circle cx="918.1" cy="251.2" r="8" fill="#fef08a" opacity="0.15" filter="url(#softGlow)"/>
<ellipse cx="731.5" cy="282.0" rx="4.7" ry="3.3" fill="#22c55e" opacity="0.6"/>
<ellipse cx="292.4" cy="282.0" rx="6.4" ry="4.5" fill="#22c55e" opacity="0.6"/>
<ellipse cx="227.5" cy="282.0" rx="6.0" ry="4.2" fill="#22c55e" opacity="0.6"/>
</svg>