<svg xmlns="http://www.w3.org/2000/svg" viewBox="0 0 1200 300" width="1200" height="300">
<rect width="1200" height="300" fill="#e0eff2"/>
<path d="M0 300 L0 210.0 C379.0 184.0, 891.5 181.9, 1200 210.0 L1200 300 Z" fill="#aac2c9" opacity="0.3"/>
<rect x="173.1" y="239.7" width="55.7" height="60.3" fill="#8aabb4"/>
<rect x="415.1" y="205.6" width="54.7" height="94.4" fill="#8aabb4"/>
<rect x="745.4" y="174.6" width="46.3" height="125.4" fill="#8aabb4"/>
<rect x="1036.8" y="176.3" width="60.4" height="123.7" fill="#8aabb4"/>
<rect x="99.5" y="153.2" width="57.2" height="146.8" fill="#558592"/>
<rect x="132.1" y="165.2" width="6" height="8" fill="#91b0b8" opacity="0.5"/>
<rect x="118.1" y="181.2" width="6" height="8" fill="#91b0b8" opacity="0.5"/>
<rect x="132.1" y="197.2" width="6" height="8" fill="#91b0b8" opacity="0.5"/>
<rect x="118.1" y="213.2" width="6" height="8" fill="#91b0b8" opacity="0.5"/>
<rect x="132.1" y="213.2" width="6" height="8" fill="#91b0b8" opacity="0.5"/>
<rect x="118.1" y="229.2" width="6" height="8" fill="#91b0b8" opacity="0.5"/>
<rect x="132.1" y="229.2" width="6" height="8" fill="#91b0b8" opacity="0.5"/>
<rect x="132.1" y="245.2" width="6" height="8" fill="#91b0b8" opacity="0.5"/>
<rect x="132.1" y="261.2" width="6" height="8" fill="#91b0b8" opacity="0.5"/>
<rect x="322.8" y="221.4" width="55.5" height="78.6" fill="#558592"/>
<rect x="340.6" y="233.4" width="6" height="8" fill="#91b0b8" opacity="0.5"/>
<rect x="340.6" y="249.4" width="6" height="8" fill="#91b0b8" opacity="0.5"/>
<rect x="354.6" y="249.4" width="6" height="8" fill="#91b0b8" opacity="0.5"/>
<rect x="340.6" y="265.4" width="6" height="8" fill="#91b0b8" opacity="0.5"/>
<rect x="354.6" y="265.4" width="6" height="8" fill="#91b0b8" opacity="0.5"/>
<rect x="562.0" y="201.0" width="40.5" height="99.0" fill="#558592"/>
<rect x="579.3" y="229.0" width="6" height="8" fill="#91b0b8" opacity="0.5"/>
<rect x="579.3" y="245.0" width="6" height="8" fill="#91b0b8" opacity="0.5"/>
<rect x="794.5" y="138.7" width="70.5" height="161.3" fill="#558592"/>
<rect x="812.8" y="150.7" width="6" height="8" fill="#91b0b8" opacity="0.5"/>
<rect x="826.8" y="150.7" width="6" height="8" fill="#91b0b8" opacity="0.5"/>
<rect x="812.8" y="166.7" width="6" height="8" fill="#91b0b8" opacity="0.5"/>
<rect x="840.8" y="166.7" width="6" height="8" fill="#91b0b8" opacity="0.5"/>
<rect x="826.8" y="182.7" width="6" height="8" fill="#91b0b8" opacity="0.5"/>
<rect x="840.8" y="182.7" width="6" height="8" fill="#91b0b8" opacity="0.5"/>
<rect x="812.8" y="198.7" width="6" height="8" fill="#91b0b8" opacity="0.5"/>
<rect x="826.8" y="198.7" width="6" height="8" fill="#91b0b8" opacity="0.5"/>
<rect x="840.8" y="198.7" width="6" height="8" fill="#91b0b8" opacity="0.5"/>
<rect x="812.8" y="214.7" width="6" height="8" fill="#91b0b8" opacity="0.5"/>
<rect x="826.8" y="214.7" width="6" height="8" fill="#91b0b8" opacity="0.5"/>
<rect x="812.8" y="230.7" width="6" height="8" fill="#91b0b8" opacity="0.5"/>
<rect x="826.8" y="230.7" width="6" height="8" fill="#91b0b8" opacity="0.5"/>
<rect x="840.8" y="230.7" width="6" height="8" fill="#91b0b8" opacity="0.5"/>
<rect x="812.8" y="246.7" width="6" height="8" fill="#91b0b8" opacity="0.5"/>
<rect x="826.8" y="246.7" width="6" height="8" fill="#91b0b8" opacity="0.5"/>
<rect x="812.8" y="262.7" width="6" height="8" fill="#91b0b8" opacity="0.5"/>
<rect x="826.8" y="262.7" width="6" height="8" fill="#91b0b8" opacity="0.5"/>
<rect x="840.8" y="262.7" width="6" height="8" fill="#91b0b8" opacity="0.5"/>
<rect x="1039.5" y="182.8" width="77.6" height="117.2" fill="#558592"/>
<rect x="1068.3" y="194.8" width="6" height="8" fill="#91b0b8" opacity="0.5"/>
<rect x="1082.3" y="194.8" width="6" height="8" fill="#91b0b8" opacity="0.5"/>
<rect x="1096.3" y="194.8" width="6" height="8" fill="#91b0b8" opacity="0.5"/>
<rect x="1054.3" y="210.8" width="6" height="8" fill="#91b0b8" opacity="0.5"/>
<rect x="1082.3" y="210.8" width="6" height="8" fill="#91b0b8" opacity="0.5"/>
<rect x="1096.3" y="210.8" width="6" height="8" fill="#91b0b8" opacity="0.5"/>
<rect x="1054.3" y="226.8" width="6" height="8" fill="#91b0b8" opacity="0.5"/>
<rect x="1068.3" y="226.8" width="6" height="8" fill="#91b0b8" opacity="0.5"/>
<rect x="1082.3" y="226.8" width="6" height="8" fill="#91b0b8" opacity="0.5"/>
<rect x="1096.3" y="226.8" width="6" height="8" fill="#91b0b8" opacity="0.5"/>
<rect x="1068.3" y="242.8" width="6" height="8" fill="#91b0b8" opacity="0.5"/>
<rect x="1082.3" y="242.8" width="6" height="8" fill="#91b0b8" opacity="0.5"/>
<rect x="1096.3" y="242.8" width="6" height="8" fill="#91b0b8" opacity="0.5"/>
<rect x="1054.3" y="258.8" width="6" height="8" fill="#91b0b8" opacity="0.5"/>
<rect x="1068.3" y="258.8" width="6" height="8" fill="#91b0b8" opacity="0.5"/>
<rect x="140.5" y="167.0" width="45.2" height="133.0" fill="#2b6777"/>
<rect x="167.0" y="179.0" width="6" height="8" fill="#759ca7" opacity="0.5"/>
<rect x="167.0" y="195.0" width="6" height="8" fill="#759ca7" opacity="0.5"/>
<rect x="153.0" y="211.0" width="6" height="8" fill="#759ca7" opacity="0.5"/>
<rect x="153.0" y="227.0" width="6" height="8" fill="#759ca7" opacity="0.5"/>
<rect x="167.0" y="227.0" width="6" height="8" fill="#759ca7" opacity="0.5"/>
<rect x="153.0" y="243.0" width="6" height="8" fill="#759ca7" opacity="0.5"/>
<rect x="167.0" y="243.0" width="6" height="8" fill="#759ca7" opacity="0.5"/>
<rect x="167.0" y="259.0" width="6" height="8" fill="#759ca7" opacity="0.5"/>
<rect x="449.1" y="114.5" width="49.2" height="185.5" fill="#2b6777"/>
<rect x="463.7" y="126.5" width="6" height="8" fill="#759ca7" opacity="0.5"/>
<rect x="477.7" y="126.5" width="6" height="8" fill="#759ca7" opacity="0.5"/>
<rect x="463.7" y="158.5" width="6" height="8" fill="#759ca7" opacity="0.5"/>
<rect x="477.7" y="158.5" width="6" height="8" fill="#759ca7" opacity="0.5"/>
<rect x="463.7" y="190.5" width="6" height="8" fill="#759ca7" opacity="0.5"/>
<rect x="477.7" y="190.5" width="6" height="8" fill="#759ca7" opacity="0.5"/>
<rect x="463.7" y="206.5" width="6" height="8" fill="#759ca7" opacity="0.5"/>
<rect x="477.7" y="206.5" width="6" height="8" fill="#759ca7" opacity="0.5"/>
<rect x="463.7" y="222.5" width="6" height="8" fill="#759ca7" opacity="0.5"/>
<rect x="477.7" y="222.5" width="6" height="8" fill="#759ca7" opacity="0.5"/>
<rect x="463.7" y="238.5" width="6" height="8" fill="#759ca7" opacity="0.5"/>
<rect x="463.7" y="254.5" width="6" height="8" fill="#759ca7" opacity="0.5"/>
<rect x="477.7" y="254.5" width="6" height="8" fill="#759ca7" opacity="0.5"/>
<rect x="463.7" y="270.5" width="6" height="8" fill="#759ca7" opacity="0.5"/>
<rect x="477.7" y="270.5" width="6" height="8" fill="#759ca7" opacity="0.5"/>
<rect x="692.4" y="142.5" width="57.7" height="157.5" fill="#2b6777"/>
<rect x="711.3" y="154.5" width="6" height="8" fill="#759ca7" opacity="0.5"/>
<rect x="711.3" y="170.5" width="6" height="8" fill="#759ca7" opacity="0.5"/>
<rect x="725.3" y="170.5" width="6" height="8" fill="#759ca7" opacity="0.5"/>
<rect x="725.3" y="186.5" width="6" height="8" fill="#759ca7" opacity="0.5"/>
<rect x="711.3" y="202.5" width="6" height="8" fill="#759ca7" opacity="0.5"/>
<rect x="725.3" y="202.5" width="6" height="8" fill="#759ca7" opacity="0.5"/>
<rect x="711.3" y="218.5" width="6" height="8" fill="#759ca7" opacity="0.5"/>
<rect x="725.3" y="218.5" width="6" height="8" fill="#759ca7" opacity="0.5"/>
<rect x="711.3" y="234.5" width="6" height="8" fill="#759ca7" opacity="0.5"/>
<rect x="725.3" y="234.5" width="6" height="8" fill="#759ca7" opacity="0.5"/>
<rect x="725.3" y="250.5" width="6" height="8" fill="#759ca7" opacity="0.5"/>
<rect x="711.3" y="266.5" width="6" height="8" fill="#759ca7" opacity="0.5"/>
<rect x="725.3" y="266.5" width="6" height="8" fill="#759ca7" opacity="0.5"/>
<rect x="959.6" y="218.2" width="50.6" height="81.8" fill="#2b6777"/>
<rect x="974.9" y="230.2" width="6" height="8" fill="#759ca7" opacity="0.5"/>
<rect x="988.9" y="230.2" width="6" height="8" fill="#759ca7" opacity="0.5"/>
<rect x="974.9" y="246.2" width="6" height="8" fill="#759ca7" opacity="0.5"/>
<rect x="974.9" y="262.2" width="6" height="8" fill="#759ca7" opacity="0.5"/>
<rect x="988.9" y="262.2" width="6" height="8" fill="#759ca7" opacity="0.5"/>
<rect x="0" y="298" width="1200" height="2" fill="#275d6b" opacity="0.15"/>
</svg>