<svg xmlns="http://www.w3.org/2000/svg" viewBox="0 0 1200 300" width="1200" height="300">
<rect width="1200" height="300" fill="#e0eff2"/>
<path d="M0 300 L0 210.0 C302.5 163.5, 907.1 188.1, 1200 210.0 L1200 300 Z" fill="#aac2c9" opacity="0.3"/>
<rect x="139.7" y="205.5" width="52.3" height="94.5" fill="#8aabb4"/>
<rect x="434.3" y="200.5" width="56.9" height="99.5" fill="#8aabb4"/>
<rect x="707.0" y="201.9" width="72.5" height="98.1" fill="#8aabb4"/>
<rect x="1037.5" y="233.1" width="45.4" height="66.9" fill="#8aabb4"/>
<rect x="122.4" y="174.0" width="37.5" height="126.0" fill="#558592"/>
<rect x="138.1" y="186.0" width="6" height="8" fill="#91b0b8" opacity="0.5"/>
<rect x="138.1" y="218.0" width="6" height="8" fill="#91b0b8" opacity="0.5"/>
<rect x="138.1" y="234.0" width="6" height="8" fill="#91b0b8" opacity="0.5"/>
<rect x="138.1" y="266.0" width="6" height="8" fill="#91b0b8" opacity="0.5"/>
<rect x="351.6" y="150.8" width="42.2" height="149.2" fill="#558592"/>
<rect x="369.6" y="162.8" width="6" height="8" fill="#91b0b8" opacity="0.5"/>
<rect x="369.6" y="178.8" width="6" height="8" fill="#91b0b8" opacity="0.5"/>
<rect x="369.6" y="194.8" width="6" height="8" fill="#91b0b8" opacity="0.5"/>
<rect x="369.6" y="210.8" width="6" height="8" fill="#91b0b8" opacity="0.5"/>
<rect x="369.6" y="226.8" width="6" height="8" fill="#91b0b8" opacity="0.5"/>
<rect x="369.6" y="242.8" width="6" height="8" fill="#91b0b8" opacity="0.5"/>
<rect x="580.1" y="216.7" width="45.8" height="83.3" fill="#558592"/>
<rect x="593.0" y="228.7" width="6" height="8" fill="#91b0b8" opacity="0.5"/>
<rect x="607.0" y="244.7" width="6" height="8" fill="#91b0b8" opacity="0.5"/>
<rect x="593.0" y="260.7" width="6" height="8" fill="#91b0b8" opacity="0.5"/>
<rect x="607.0" y="260.7" width="6" height="8" fill="#91b0b8" opacity="0.5"/>
<rect x="760.9" y="184.5" width="71.2" height="115.5" fill="#558592"/>
<rect x="779.5" y="196.5" width="6" height="8" fill="#91b0b8" opacity="0.5"/>
<rect x="793.5" y="196.5" width="6" height="8" fill="#91b0b8" opacity="0.5"/>
<rect x="807.5" y="196.5" width="6" height="8" fill="#91b0b8" opacity="0.5"/>
<rect x="779.5" y="212.5" width="6" height="8" fill="#91b0b8" opacity="0.5"/>
<rect x="793.5" y="212.5" width="6" height="8" fill="#91b0b8" opacity="0.5"/>
<rect x="807.5" y="212.5" width="6" height="8" fill="#91b0b8" opacity="0.5"/>
<rect x="793.5" y="228.5" width="6" height="8" fill="#91b0b8" opacity="0.5"/>
<rect x="807.5" y="228.5" width="6" height="8" fill="#91b0b8" opacity="0.5"/>
<rect x="779.5" y="244.5" width="6" height="8" fill="#91b0b8" opacity="0.5"/>
<rect x="793.5" y="244.5" width="6" height="8" fill="#91b0b8" opacity="0.5"/>
<rect x="807.5" y="244.5" width="6" height="8" fill="#91b0b8" opacity="0.5"/>
<rect x="779.5" y="260.5" width="6" height="8" fill="#91b0b8" opacity="0.5"/>
<rect x="793.5" y="260.5" width="6" height="8" fill="#91b0b8" opacity="0.5"/>
<rect x="807.5" y="260.5" width="6" height="8" fill="#91b0b8" opacity="0.5"/>
<rect x="1048.7" y="158.1" width="71.6" height="141.9" fill="#558592"/>
<rect x="1081.5" y="170.1" width="6" height="8" fill="#91b0b8" opacity="0.5"/>
<rect x="1067.5" y="186.1" width="6" height="8" fill="#91b0b8" opacity="0.5"/>
<rect x="1081.5" y="186.1" width="6" height="8" fill="#91b0b8" opacity="0.5"/>
<rect x="1095.5" y="186.1" width="6" height="8" fill="#91b0b8" opacity="0.5"/>
<rect x="1067.5" y="202.1" width="6" height="8" fill="#91b0b8" opacity="0.5"/>
<rect x="1081.5" y="202.1" width="6" height="8" fill="#91b0b8" opacity="0.5"/>
<rect x="1095.5" y="202.1" width="6" height="8" fill="#91b0b8" opacity="0.5"/>
<rect x="1067.5" y="218.1" width="6" height="8" fill="#91b0b8" opacity="0.5"/>
<rect x="1081.5" y="218.1" width="6" height="8" fill="#91b0b8" opacity="0.5"/>
<rect x="1067.5" y="234.1" width="6" height="8" fill="#91b0b8" opacity="0.5"/>
<rect x="1095.5" y="234.1" width="6" height="8" fill="#91b0b8" opacity="0.5"/>
<rect x="1067.5" y="250.1" width="6" height="8" fill="#91b0b8" opacity="0.5"/>
<rect x="1067.5" y="266.1" width="6" height="8" fill="#91b0b8" opacity="0.5"/>
<rect x="1081.5" y="266.1" width="6" height="8" fill="#91b0b8" opacity="0.5"/>
<rect x="1095.5" y="266.1" width="6" height="8" fill="#91b0b8" opacity="0.5"/>
<rect x="134.9" y="136.5" width="69.2" height="163.5" fill="#2b6777"/>
<rect x="166.4" y="148.5" width="6" height="8" fill="#759ca7" opacity="0.5"/>
<rect x="180.4" y="148.5" width="6" height="8" fill="#759ca7" opacity="0.5"/>
<rect x="166.4" y="164.5" width="6" height="8" fill="#759ca7" opacity="0.5"/>
<rect x="180.4" y="164.5" width="6" height="8" fill="#759ca7" opacity="0.5"/>
<rect x="152.4" y="180.5" width="6" height="8" fill="#759ca7" opacity="0.5"/>
<rect x="166.4" y="180.5" width="6" height="8" fill="#759ca7" opacity="0.5"/>
<rect x="180.4" y="180.5" width="6" height="8" fill="#759ca7" opacity="0.5"/>
<rect x="180.4" y="196.5" width="6" height="8" fill="#759ca7" opacity="0.5"/>
<rect x="152.4" y="212.5" width="6" height="8" fill="#759ca7" opacity="0.5"/>
<rect x="166.4" y="212.5" width="6" height="8" fill="#759ca7" opacity="0.5"/>
<rect x="180.4" y="212.5" width="6" height="8" fill="#759ca7" opacity="0.5"/>
<rect x="152.4" y="228.5" width="6" height="8" fill="#759ca7" opacity="0.5"/>
<rect x="166.4" y="228.5" width="6" height="8" fill="#759ca7" opacity="0.5"/>
<rect x="180.4" y="228.5" width="6" height="8" fill="#759ca7" opacity="0.5"/>
<rect x="152.4" y="244.5" width="6" height="8" fill="#759ca7" opacity="0.5"/>
<rect x="166.4" y="244.5" width="6" height="8" fill="#759ca7" opacity="0.5"/>
<rect x="180.4" y="244.5" width="6" height="8" fill="#759ca7" opacity="0.5"/>
<rect x="152.4" y="260.5" width="6" height="8" fill="#759ca7" opacity="0.5"/>
<rect x="166.4" y="260.5" width="6" height="8" fill="#759ca7" opacity="0.5"/>
<rect x="180.4" y="260.5" width="6" height="8" fill="#759ca7" opacity="0.5"/>
<rect x="358.7" y="179.1" width="45.6" height="120.9" fill="#2b6777"/>
<rect x="371.5" y="191.1" width="6" height="8" fill="#759ca7" opacity="0.5"/>
<rect x="371.5" y="207.1" width="6" height="8" fill="#759ca7" opacity="0.5"/>
<rect x="385.5" y="207.1" width="6" height="8" fill="#759ca7" opacity="0.5"/>
<rect x="371.5" y="223.1" width="6" height="8" fill="#759ca7" opacity="0.5"/>
<rect x="385.5" y="223.1" width="6" height="8" fill="#759ca7" opacity="0.5"/>
<rect x="371.5" y="239.1" width="6" height="8" fill="#759ca7" opacity="0.5"/>
<rect x="371.5" y="255.1" width="6" height="8" fill="#759ca7" opacity="0.5"/>
<rect x="385.5" y="255.1" width="6" height="8" fill="#759ca7" opacity="0.5"/>
<rect x="371.5" y="271.1" width="6" height="8" fill="#759ca7" opacity="0.5"/>
<rect x="385.5" y="271.1" width="6" height="8" fill="#759ca7" opacity="0.5"/>
<rect x="599.3" y="217.4" width="47.0" height="82.6" fill="#2b6777"/>
<rect x="612.8" y="229.4" width="6" height="8" fill="#759ca7" opacity="0.5"/>
<rect x="626.8" y="229.4" width="6" height="8" fill="#759ca7" opacity="0.5"/>
<rect x="612.8" y="245.4" width="6" height="8" fill="#759ca7" opacity="0.5"/>
<rect x="626.8" y="245.4" width="6" height="8" fill="#759ca7" opacity="0.5"/>
<rect x="612.8" y="261.4" width="6" height="8" fill="#759ca7" opacity="0.5"/>
<rect x="626.8" y="261.4" width="6" height="8" fill="#759ca7" opacity="0.5"/>
<rect x="798.4" y="245.5" width="48.6" height="54.5" fill="#2b6777"/>
<rect x="1048.4" y="105.8" width="66.2" height="194.2" fill="#2b6777"/>
<rect x="1064.5" y="117.8" width="6" height="8" fill="#759ca7" opacity="0.5"/>
<rect x="1078.5" y="117.8" width="6" height="8" fill="#759ca7" opacity="0.5"/>
<rect x="1092.5" y="117.8" width="6" height="8" fill="#759ca7" opacity="0.5"/>
<rect x="1064.5" y="133.8" width="6" height="8" fill="#759ca7" opacity="0.5"/>
<rect x="1078.5" y="133.8" width="6" height="8" fill="#759ca7" opacity="0.5"/>
<rect x="1092.5" y="133.8" width="6" height="8" fill="#759ca7" opacity="0.5"/>
<rect x="1064.5" y="149.8" width="6" height="8" fill="#759ca7" opacity="0.5"/>
<rect x="1092.5" y="149.8" width="6" height="8" fill="#759ca7" opacity="0.5"/>
<rect x="1064.5" y="165.8" width="6" height="8" fill="#759ca7" opacity="0.5"/>
<rect x="1078.5" y="165.8" width="6" height="8" fill="#759ca7" opacity="0.5"/>
<rect x="1092.5" y="165.8" width="6" height="8" fill="#759ca7" opacity="0.5"/>
<rect x="1064.5" y="181.8" width="6" height="8" fill="#759ca7" opacity="0.5"/>
<rect x="1092.5" y="181.8" width="6" height="8" fill="#759ca7" opacity="0.5"/>
<rect x="1064.5" y="197.8" width="6" height="8" fill="#759ca7" opacity="0.5"/>
<rect x="1078.5" y="197.8" width="6" height="8" fill="#759ca7" opacity="0.5"/>
<rect x="1092.5" y="197.8" width="6" height="8" fill="#759ca7" opacity="0.5"/>
<rect x="1064.5" y="213.8" width="6" height="8" fill="#759ca7" opacity="0.5"/>
<rect x="1078.5" y="213.8" width="6" height="8" fill="#759ca7" opacity="0.5"/>
<rect x="1092.5" y="213.8" width="6" height="8" fill="#759ca7" opacity="0.5"/>
<rect x="1092.5" y="229.8" width="6" height="8" fill="#759ca7" opacity="0.5"/>
<rect x="1064.5" y="245.8" width="6" height="8" fill="#759ca7" opacity="0.5"/>
<rect x="1078.5" y="245.8" width="6" height="8" fill="#759ca7" opacity="0.5"/>
<rect x="1064.5" y="261.8" width="6" height="8" fill="#759ca7" opacity="0.5"/>
<rect x="1092.5" y="261.8" width="6" height="8" fill="#759ca7" opacity="0.5"/>
<rect x="0" y="298" width="1200" height="2" fill="#275d6b" opacity="0.15"/>
</svg>