<svg xmlns="http://www.w3.org/2000/svg" viewBox="0 0 1200 300" width="1200" height="300">
<defs><linearGradient id="skyGrad" x1="0" y1="0" x2="0" y2="1"><stop offset="0%" stop-color="#e6ecf2"/><stop offset="100%" stop-color="#f0eeec"/></linearGradient></defs><rect width="1200" height="300" fill="url(#skyGrad)"/>
<path d="M0 300 L0 207.8 C399.1 190.2, 907.1 195.7, 1200 207.8 L1200 300 Z" fill="#aac2c9" opacity="0.25"/>
<rect x="192.6" y="218.4" width="61.1" height="81.6" fill="#8aabb4"/>
<rect x="577.5" y="197.2" width="68.1" height="102.8" fill="#8aabb4"/>
<polygon points="577.5,197.2 611.6,180.1 645.6,197.2" fill="#7f9da6"/>
<rect x="956.5" y="244.0" width="65.5" height="56.0" fill="#8aabb4"/>
<rect x="967.9" y="234.1" width="42.6" height="9.9" fill="#83a2ab"/>
<rect x="102.9" y="229.6" width="74.7" height="70.4" fill="#558592"/>
<rect x="116.0" y="217.2" width="48.6" height="12.4" fill="#517e8b"/>
<rect x="137.3" y="229.2" width="6" height="8" fill="#91b0b8" opacity="0.5"/>
<rect x="151.3" y="229.2" width="6" height="8" fill="#91b0b8" opacity="0.5"/>
<rect x="123.3" y="245.2" width="6" height="8" fill="#91b0b8" opacity="0.5"/>
<rect x="137.3" y="245.2" width="6" height="8" fill="#91b0b8" opacity="0.5"/>
<rect x="123.3" y="261.2" width="6" height="8" fill="#91b0b8" opacity="0.5"/>
<rect x="137.3" y="261.2" width="6" height="8" fill="#91b0b8" opacity="0.5"/>
<rect x="433.7" y="221.8" width="55.6" height="78.2" fill="#558592"/>
<rect x="443.5" y="208.1" width="36.1" height="13.8" fill="#517e8b"/>
<rect x="451.5" y="220.1" width="6" height="8" fill="#91b0b8" opacity="0.5"/>
<rect x="451.5" y="236.1" width="6" height="8" fill="#91b0b8" opacity="0.5"/>
<rect x="465.5" y="236.1" width="6" height="8" fill="#91b0b8" opacity="0.5"/>
<rect x="451.5" y="252.1" width="6" height="8" fill="#91b0b8" opacity="0.5"/>
<rect x="740.2" y="200.9" width="57.9" height="99.1" fill="#558592"/>
<polygon points="740.2,200.9 769.1,186.4 798.1,200.9" fill="#4e7a86"/>
<rect x="773.1" y="212.9" width="6" height="8" fill="#91b0b8" opacity="0.5"/>
<rect x="759.1" y="228.9" width="6" height="8" fill="#91b0b8" opacity="0.5"/>
<rect x="759.1" y="244.9" width="6" height="8" fill="#91b0b8" opacity="0.5"/>
<rect x="773.1" y="244.9" width="6" height="8" fill="#91b0b8" opacity="0.5"/>
<rect x="759.1" y="260.9" width="6" height="8" fill="#91b0b8" opacity="0.5"/>
<rect x="773.1" y="260.9" width="6" height="8" fill="#91b0b8" opacity="0.5"/>
<rect x="960.2" y="173.7" width="59.5" height="126.3" fill="#558592"/>
<rect x="970.6" y="151.4" width="38.7" height="22.3" fill="#517e8b"/>
<rect x="972.9" y="163.4" width="6" height="8" fill="#91b0b8" opacity="0.5"/>
<rect x="1000.9" y="163.4" width="6" height="8" fill="#91b0b8" opacity="0.5"/>
<rect x="972.9" y="179.4" width="6" height="8" fill="#91b0b8" opacity="0.5"/>
<rect x="1000.9" y="179.4" width="6" height="8" fill="#91b0b8" opacity="0.5"/>
<rect x="972.9" y="195.4" width="6" height="8" fill="#91b0b8" opacity="0.5"/>
<rect x="986.9" y="195.4" width="6" height="8" fill="#91b0b8" opacity="0.5"/>
<rect x="1000.9" y="195.4" width="6" height="8" fill="#91b0b8" opacity="0.5"/>
<rect x="1000.9" y="211.4" width="6" height="8" fill="#91b0b8" opacity="0.5"/>
<rect x="986.9" y="227.4" width="6" height="8" fill="#91b0b8" opacity="0.5"/>
<rect x="1000.9" y="227.4" width="6" height="8" fill="#91b0b8" opacity="0.5"/>
<rect x="1000.9" y="243.4" width="6" height="8" fill="#91b0b8" opacity="0.5"/>
<rect x="150.4" y="132.4" width="31.8" height="167.6" fill="#2b6777"/>
<rect x="163.3" y="144.4" width="6" height="8" fill="#759ca7" opacity="0.5"/>
<rect x="163.3" y="160.4" width="6" height="8" fill="#759ca7" opacity="0.5"/>
<rect x="163.3" y="192.4" width="6" height="8" fill="#759ca7" opacity="0.5"/>
<rect x="163.3" y="224.4" width="6" height="8" fill="#759ca7" opacity="0.5"/>
<rect x="441.4" y="124.0" width="71.2" height="176.0" fill="#2b6777"/>
<rect x="488.0" y="136.0" width="6" height="8" fill="#759ca7" opacity="0.5"/>
<rect x="460.0" y="152.0" width="6" height="8" fill="#759ca7" opacity="0.5"/>
<rect x="474.0" y="152.0" width="6" height="8" fill="#759ca7" opacity="0.5"/>
<rect x="460.0" y="168.0" width="6" height="8" fill="#759ca7" opacity="0.5"/>
<rect x="474.0" y="168.0" width="6" height="8" fill="#759ca7" opacity="0.5"/>
<rect x="460.0" y="184.0" width="6" height="8" fill="#759ca7" opacity="0.5"/>
<rect x="474.0" y="184.0" width="6" height="8" fill="#759ca7" opacity="0.5"/>
<rect x="460.0" y="200.0" width="6" height="8" fill="#759ca7" opacity="0.5"/>
<rect x="474.0" y="200.0" width="6" height="8" fill="#759ca7" opacity="0.5"/>
<rect x="474.0" y="216.0" width="6" height="8" fill="#759ca7" opacity="0.5"/>
<rect x="488.0" y="216.0" width="6" height="8" fill="#759ca7" opacity="0.5"/>
<rect x="732.2" y="215.4" width="69.2" height="84.6" fill="#2b6777"/>
<rect x="744.4" y="200.5" width="45.0" height="14.9" fill="#296271"/>
<rect x="749.9" y="212.5" width="6" height="8" fill="#759ca7" opacity="0.5"/>
<rect x="763.9" y="212.5" width="6" height="8" fill="#759ca7" opacity="0.5"/>
<rect x="777.9" y="212.5" width="6" height="8" fill="#759ca7" opacity="0.5"/>
<rect x="749.9" y="228.5" width="6" height="8" fill="#759ca7" opacity="0.5"/>
<rect x="763.9" y="228.5" width="6" height="8" fill="#759ca7" opacity="0.5"/>
<rect x="777.9" y="228.5" width="6" height="8" fill="#759ca7" opacity="0.5"/>
<rect x="763.9" y="244.5" width="6" height="8" fill="#759ca7" opacity="0.5"/>
<rect x="777.9" y="244.5" width="6" height="8" fill="#759ca7" opacity="0.5"/>
<rect x="749.9" y="260.5" width="6" height="8" fill="#759ca7" opacity="0.5"/>
<rect x="763.9" y="260.5" width="6" height="8" fill="#759ca7" opacity="0.5"/>
<rect x="997.6" y="195.9" width="58.8" height="104.1" fill="#2b6777"/>
<rect x="1009.9" y="207.9" width="6" height="8" fill="#759ca7" opacity="0.5"/>
<rect x="1023.9" y="207.9" width="6" height="8" fill="#759ca7" opacity="0.5"/>
<rect x="1037.9" y="207.9" width="6" height="8" fill="#759ca7" opacity="0.5"/>
<rect x="1009.9" y="223.9" width="6" height="8" fill="#759ca7" opacity="0.5"/>
<rect x="1037.9" y="223.9" width="6" height="8" fill="#759ca7" opacity="0.5"/>
<rect x="1009.9" y="239.9" width="6" height="8" fill="#759ca7" opacity="0.5"/>
<rect x="1023.9" y="239.9" width="6" height="8" fill="#759ca7" opacity="0.5"/>
<rect x="1009.9" y="255.9" width="6" height="8" fill="#759ca7" opacity="0.5"/>
<rect x="1023.9" y="255.9" width="6" height="8" fill="#759ca7" opacity="0.5"/>
<rect x="1037.9" y="255.9" width="6" height="8" fill="#759ca7" opacity="0.5"/>
<rect x="1009.9" y="271.9" width="6" height="8" fill="#759ca7" opacity="0.5"/>
<rect x="1023.9" y="271.9" width="6" height="8" fill="#759ca7" opacity="0.5"/>
<rect x="1037.9" y="271.9" width="6" height="8" fill="#759ca7" opacity="0.5"/>
<line x1="311.8" y1="285.0" x2="311.8" y2="269.4" stroke="#6b5a42" stroke-width="3"/>
<circle cx="311.8" cy="255.2" r="14.3" fill="#5a8c4a"/>
<line x1="622.4" y1="285.0" x2="622.4" y2="272.0" stroke="#6b5a42" stroke-width="3"/>
<circle cx="622.4" cy="256.3" r="15.7" fill="#538244"/>
<line x1="899.5" y1="285.0" x2="899.5" y2="272.5" stroke="#6b5a42" stroke-width="3"/>
<circle cx="899.5" cy="256.8" r="15.8" fill="#588948"/>
<line x1="562.0" y1="285.0" x2="562.0" y2="269.5" stroke="#6b5a42" stroke-width="3"/>
<circle cx="562.0" cy="255.3" r="14.2" fill="#517e43"/>
<line x1="379.5" y1="285.0" x2="379.5" y2="272.9" stroke="#6b5a42" stroke-width="3"/>
<circle cx="379.5" cy="257.7" r="15.2" fill="#568647"/>
<line x1="642.1" y1="285.0" x2="642.1" y2="272.3" stroke="#6b5a42" stroke-width="3"/>
<circle cx="642.1" cy="259.2" r="13.1" fill="#588948"/>
<line x1="512.1" y1="285.0" x2="512.1" y2="270.7" stroke="#6b5a42" stroke-width="3"/>
<circle cx="512.1" cy="256.8" r="14.0" fill="#558446"/>
<rect x="0" y="285" width="1200" height="15" fill="#9aaa85" opacity="0.4"/>
</svg>