<svg xmlns="http://www.w3.org/2000/svg" viewBox="0 0 1200 400" width="1200" height="400">
<defs>
<linearGradient id="bg" x1="0" y1="0" x2="0" y2="1"><stop offset="0%" stop-color="#94a3b8"/><stop offset="100%" stop-color="#0369a1"/></linearGradient>
<linearGradient id="warm" x1="0" y1="0" x2="1" y2="1"><stop offset="0%" stop-color="#cb9840" stop-opacity="0.18"/><stop offset="100%" stop-color="#cb9840" stop-opacity="0.06"/></linearGradient>
</defs>
<rect width="1200" height="400" fill="url(#bg)"/>
<path d="M0 400 L0 229.5618684955458 C60.0 225.3, 90.0 225.8, 150.0 218.4 C210.0 212.5, 240.0 211.3, 300.0 210.4 C360.0 212.3, 390.0 218.8, 450.0 213.3 C510.0 213.9, 540.0 235.6, 600.0 228.5 C660.0 226.8, 690.0 221.7, 750.0 223.8 C810.0 215.9, 840.0 237.6, 900.0 245.7 C960.0 244.3, 990.0 220.2, 1050.0 226.5 C1110.0 230.5, 1140.0 244.1, 1200.0 243.6 L1200 400 Z" fill="#367da9" opacity="0.45"/>
<path d="M0 400 L0 261.02635140762453 C52.5 265.0, 97.5 251.9, 150.0 254.6 C202.5 256.8, 247.5 271.5, 300.0 269.4 C352.5 266.6, 397.5 260.5, 450.0 263.9 C502.5 265.4, 547.5 255.1, 600.0 254.7 C652.5 259.0, 697.5 261.3, 750.0 257.7 C802.5 263.4, 847.5 255.8, 900.0 262.5 C952.5 262.2, 997.5 264.0, 1050.0 261.4 C1102.5 258.6, 1147.5 254.7, 1200.0 259.2 L1200 400 Z" fill="#0369a1" opacity="0.3"/>
<rect x="522.8" y="294.9" width="27.7" height="105.1" rx="3.8" fill="#048183" opacity="0.56"/>
<rect x="527.8" y="348.9" width="4" height="5" rx="0.5" fill="#94a3b8" opacity="0.6"/>
<rect x="527.8" y="370.9" width="4" height="5" rx="0.5" fill="#94a3b8" opacity="0.6"/>
<rect x="505.6" y="278.3" width="47.9" height="121.7" rx="7.8" fill="#058b76" opacity="0.61"/>
<rect x="419.4" y="256.6" width="16.6" height="143.4" rx="7.5" fill="#05936c" opacity="0.74"/>
<rect x="683.9" y="367.0" width="46.9" height="33.0" rx="6.5" fill="#058f72" opacity="0.72"/>
<rect x="1062.0" y="331.5" width="33.3" height="68.5" rx="3.2" fill="#05946b" opacity="0.54"/>
<rect x="425.8" y="266.1" width="13.8" height="133.9" rx="7.8" fill="#05946b" opacity="0.51"/>
<rect x="430.8" y="276.1" width="4" height="5" rx="0.5" fill="#94a3b8" opacity="0.6"/>
<rect x="430.8" y="320.1" width="4" height="5" rx="0.5" fill="#94a3b8" opacity="0.6"/>
<rect x="430.8" y="342.1" width="4" height="5" rx="0.5" fill="#94a3b8" opacity="0.6"/>
<rect x="261.4" y="355.9" width="19.3" height="44.1" rx="7.5" fill="#047e87" opacity="0.84"/>
<rect x="151.4" y="283.5" width="40.0" height="116.5" rx="4.3" fill="#04867c" opacity="0.83"/>
<rect x="1033.0" y="282.5" width="12.1" height="117.5" rx="7.7" fill="#048979" opacity="0.58"/>
<rect x="363.3" y="328.4" width="47.5" height="71.6" rx="3.4" fill="#058f71" opacity="0.70"/>
<rect x="149.1" y="347.9" width="36.9" height="52.1" rx="5.0" fill="#047e87" opacity="0.57"/>
<rect x="140.5" y="362.3" width="39.5" height="37.7" rx="7.4" fill="#058c75" opacity="0.77"/>
<rect x="436.1" y="340.7" width="29.9" height="59.3" rx="5.2" fill="#058f72" opacity="0.61"/>
<rect x="1057.5" y="338.7" width="42.3" height="61.3" rx="6.7" fill="#05946b" opacity="0.65"/>
<rect x="247.0" y="261.7" width="23.6" height="138.3" rx="6.1" fill="#058d74" opacity="0.77"/>
<rect x="252.0" y="293.7" width="4" height="5" rx="0.5" fill="#94a3b8" opacity="0.6"/>
<rect x="930.0" y="323.3" width="23.9" height="76.7" rx="7.9" fill="#04877b" opacity="0.52"/>
<circle cx="468.1" cy="67.1" r="5.9" fill="#059669" opacity="0.38"/>
<circle cx="816.8" cy="74.9" r="9.8" fill="#94a3b8" opacity="0.23"/>
<circle cx="1169.2" cy="117.8" r="5.0" fill="#059669" opacity="0.18"/>
<circle cx="722.3" cy="213.4" r="11.5" fill="#94a3b8" opacity="0.22"/>
<circle cx="589.5" cy="119.3" r="9.6" fill="#94a3b8" opacity="0.38"/>
<circle cx="509.0" cy="175.6" r="11.9" fill="#94a3b8" opacity="0.34"/>
<circle cx="194.2" cy="154.3" r="7.0" fill="#059669" opacity="0.31"/>
<circle cx="825.4" cy="149.1" r="7.7" fill="#94a3b8" opacity="0.40"/>
<circle cx="887.8" cy="41.5" r="11.0" fill="#94a3b8" opacity="0.37"/>
<circle cx="411.4" cy="186.9" r="7.4" fill="#94a3b8" opacity="0.30"/>
<circle cx="192.6" cy="234.0" r="5.7" fill="#059669" opacity="0.25"/>
<circle cx="903.7" cy="192.6" r="10.9" fill="#059669" opacity="0.20"/>
<rect width="1200" height="400" fill="url(#warm)"/>
<rect width="1200" height="400" fill="#94a3b8" opacity="0.34"/>
</svg>