<svg xmlns="http://www.w3.org/2000/svg" viewBox="0 0 1200 300" width="1200" height="300">
<defs><linearGradient id="skyGrad" x1="0" y1="0" x2="0" y2="1"><stop offset="0%" stop-color="#e6ecf2"/><stop offset="100%" stop-color="#f0eeec"/></linearGradient></defs><rect width="1200" height="300" fill="url(#skyGrad)"/>
<path d="M0 300 L0 209.5 C263.4 189.1, 996.9 199.6, 1200 209.5 L1200 300 Z" fill="#aac2c9" opacity="0.25"/>
<rect x="153.8" y="235.2" width="85.7" height="64.8" fill="#8aabb4"/>
<polygon points="153.8,235.2 196.6,213.7 239.5,235.2" fill="#7f9da6"/>
<rect x="383.9" y="221.2" width="65.7" height="78.8" fill="#8aabb4"/>
<polygon points="383.9,221.2 416.7,204.7 449.6,221.2" fill="#7f9da6"/>
<rect x="752.4" y="174.3" width="56.4" height="125.7" fill="#8aabb4"/>
<polygon points="752.4,174.3 780.6,160.2 808.8,174.3" fill="#7f9da6"/>
<rect x="998.2" y="191.9" width="71.5" height="108.1" fill="#8aabb4"/>
<rect x="91.8" y="206.0" width="58.7" height="94.0" fill="#558592"/>
<rect x="104.2" y="218.0" width="6" height="8" fill="#91b0b8" opacity="0.5"/>
<rect x="132.2" y="218.0" width="6" height="8" fill="#91b0b8" opacity="0.5"/>
<rect x="104.2" y="234.0" width="6" height="8" fill="#91b0b8" opacity="0.5"/>
<rect x="118.2" y="234.0" width="6" height="8" fill="#91b0b8" opacity="0.5"/>
<rect x="104.2" y="250.0" width="6" height="8" fill="#91b0b8" opacity="0.5"/>
<rect x="118.2" y="250.0" width="6" height="8" fill="#91b0b8" opacity="0.5"/>
<rect x="104.2" y="266.0" width="6" height="8" fill="#91b0b8" opacity="0.5"/>
<rect x="118.2" y="266.0" width="6" height="8" fill="#91b0b8" opacity="0.5"/>
<rect x="311.8" y="189.4" width="66.4" height="110.6" fill="#558592"/>
<polygon points="311.8,189.4 345.0,172.8 378.2,189.4" fill="#4e7a86"/>
<rect x="328.0" y="201.4" width="6" height="8" fill="#91b0b8" opacity="0.5"/>
<rect x="342.0" y="201.4" width="6" height="8" fill="#91b0b8" opacity="0.5"/>
<rect x="328.0" y="233.4" width="6" height="8" fill="#91b0b8" opacity="0.5"/>
<rect x="342.0" y="233.4" width="6" height="8" fill="#91b0b8" opacity="0.5"/>
<rect x="356.0" y="233.4" width="6" height="8" fill="#91b0b8" opacity="0.5"/>
<rect x="342.0" y="265.4" width="6" height="8" fill="#91b0b8" opacity="0.5"/>
<rect x="356.0" y="265.4" width="6" height="8" fill="#91b0b8" opacity="0.5"/>
<rect x="560.2" y="138.3" width="53.9" height="161.7" fill="#558592"/>
<rect x="591.1" y="150.3" width="6" height="8" fill="#91b0b8" opacity="0.5"/>
<rect x="577.1" y="166.3" width="6" height="8" fill="#91b0b8" opacity="0.5"/>
<rect x="577.1" y="182.3" width="6" height="8" fill="#91b0b8" opacity="0.5"/>
<rect x="591.1" y="182.3" width="6" height="8" fill="#91b0b8" opacity="0.5"/>
<rect x="577.1" y="198.3" width="6" height="8" fill="#91b0b8" opacity="0.5"/>
<rect x="591.1" y="198.3" width="6" height="8" fill="#91b0b8" opacity="0.5"/>
<rect x="577.1" y="214.3" width="6" height="8" fill="#91b0b8" opacity="0.5"/>
<rect x="591.1" y="214.3" width="6" height="8" fill="#91b0b8" opacity="0.5"/>
<rect x="577.1" y="230.3" width="6" height="8" fill="#91b0b8" opacity="0.5"/>
<rect x="778.5" y="164.0" width="35.5" height="136.0" fill="#558592"/>
<rect x="793.3" y="192.0" width="6" height="8" fill="#91b0b8" opacity="0.5"/>
<rect x="793.3" y="208.0" width="6" height="8" fill="#91b0b8" opacity="0.5"/>
<rect x="793.3" y="224.0" width="6" height="8" fill="#91b0b8" opacity="0.5"/>
<rect x="793.3" y="256.0" width="6" height="8" fill="#91b0b8" opacity="0.5"/>
<rect x="989.5" y="138.6" width="64.7" height="161.4" fill="#558592"/>
<rect x="1004.9" y="150.6" width="6" height="8" fill="#91b0b8" opacity="0.5"/>
<rect x="1018.9" y="150.6" width="6" height="8" fill="#91b0b8" opacity="0.5"/>
<rect x="1004.9" y="166.6" width="6" height="8" fill="#91b0b8" opacity="0.5"/>
<rect x="1032.9" y="166.6" width="6" height="8" fill="#91b0b8" opacity="0.5"/>
<rect x="1004.9" y="182.6" width="6" height="8" fill="#91b0b8" opacity="0.5"/>
<rect x="1032.9" y="182.6" width="6" height="8" fill="#91b0b8" opacity="0.5"/>
<rect x="1018.9" y="198.6" width="6" height="8" fill="#91b0b8" opacity="0.5"/>
<rect x="1032.9" y="198.6" width="6" height="8" fill="#91b0b8" opacity="0.5"/>
<rect x="1018.9" y="214.6" width="6" height="8" fill="#91b0b8" opacity="0.5"/>
<rect x="1004.9" y="230.6" width="6" height="8" fill="#91b0b8" opacity="0.5"/>
<rect x="1018.9" y="230.6" width="6" height="8" fill="#91b0b8" opacity="0.5"/>
<rect x="117.4" y="155.8" width="50.8" height="144.2" fill="#2b6777"/>
<rect x="132.8" y="167.8" width="6" height="8" fill="#759ca7" opacity="0.5"/>
<rect x="146.8" y="167.8" width="6" height="8" fill="#759ca7" opacity="0.5"/>
<rect x="132.8" y="183.8" width="6" height="8" fill="#759ca7" opacity="0.5"/>
<rect x="146.8" y="199.8" width="6" height="8" fill="#759ca7" opacity="0.5"/>
<rect x="132.8" y="215.8" width="6" height="8" fill="#759ca7" opacity="0.5"/>
<rect x="132.8" y="231.8" width="6" height="8" fill="#759ca7" opacity="0.5"/>
<rect x="146.8" y="231.8" width="6" height="8" fill="#759ca7" opacity="0.5"/>
<rect x="132.8" y="247.8" width="6" height="8" fill="#759ca7" opacity="0.5"/>
<rect x="146.8" y="247.8" width="6" height="8" fill="#759ca7" opacity="0.5"/>
<rect x="395.9" y="177.3" width="41.5" height="122.7" fill="#2b6777"/>
<rect x="413.6" y="189.3" width="6" height="8" fill="#759ca7" opacity="0.5"/>
<rect x="413.6" y="221.3" width="6" height="8" fill="#759ca7" opacity="0.5"/>
<rect x="413.6" y="237.3" width="6" height="8" fill="#759ca7" opacity="0.5"/>
<rect x="686.0" y="143.5" width="58.3" height="156.5" fill="#2b6777"/>
<polygon points="686.0,143.5 715.2,129.0 744.3,143.5" fill="#285f6d"/>
<rect x="712.2" y="155.5" width="6" height="8" fill="#759ca7" opacity="0.5"/>
<rect x="698.2" y="171.5" width="6" height="8" fill="#759ca7" opacity="0.5"/>
<rect x="726.2" y="171.5" width="6" height="8" fill="#759ca7" opacity="0.5"/>
<rect x="698.2" y="187.5" width="6" height="8" fill="#759ca7" opacity="0.5"/>
<rect x="712.2" y="187.5" width="6" height="8" fill="#759ca7" opacity="0.5"/>
<rect x="726.2" y="187.5" width="6" height="8" fill="#759ca7" opacity="0.5"/>
<rect x="698.2" y="203.5" width="6" height="8" fill="#759ca7" opacity="0.5"/>
<rect x="712.2" y="219.5" width="6" height="8" fill="#759ca7" opacity="0.5"/>
<rect x="726.2" y="219.5" width="6" height="8" fill="#759ca7" opacity="0.5"/>
<rect x="698.2" y="235.5" width="6" height="8" fill="#759ca7" opacity="0.5"/>
<rect x="712.2" y="235.5" width="6" height="8" fill="#759ca7" opacity="0.5"/>
<rect x="989.1" y="224.5" width="51.5" height="75.5" fill="#2b6777"/>
<polygon points="989.1,224.5 1014.9,211.7 1040.6,224.5" fill="#285f6d"/>
<rect x="1004.9" y="236.5" width="6" height="8" fill="#759ca7" opacity="0.5"/>
<rect x="1004.9" y="252.5" width="6" height="8" fill="#759ca7" opacity="0.5"/>
<rect x="1018.9" y="252.5" width="6" height="8" fill="#759ca7" opacity="0.5"/>
<rect x="1004.9" y="268.5" width="6" height="8" fill="#759ca7" opacity="0.5"/>
<rect x="1018.9" y="268.5" width="6" height="8" fill="#759ca7" opacity="0.5"/>
<line x1="282.0" y1="285.0" x2="282.0" y2="271.7" stroke="#6b5a42" stroke-width="3"/>
<circle cx="282.0" cy="256.5" r="15.1" fill="#568647"/>
<line x1="561.7" y1="285.0" x2="561.7" y2="274.3" stroke="#6b5a42" stroke-width="3"/>
<circle cx="561.7" cy="259.9" r="14.4" fill="#588949"/>
<line x1="866.7" y1="285.0" x2="866.7" y2="272.5" stroke="#6b5a42" stroke-width="3"/>
<circle cx="866.7" cy="259.3" r="13.2" fill="#527f43"/>
<line x1="878.5" y1="285.0" x2="878.5" y2="272.0" stroke="#6b5a42" stroke-width="3"/>
<circle cx="878.5" cy="257.6" r="14.4" fill="#5a8c4a"/>
<line x1="1008.8" y1="285.0" x2="1008.8" y2="273.5" stroke="#6b5a42" stroke-width="3"/>
<circle cx="1008.8" cy="256.5" r="17.1" fill="#5a8b4a"/>
<line x1="1045.7" y1="285.0" x2="1045.7" y2="274.9" stroke="#6b5a42" stroke-width="3"/>
<circle cx="1045.7" cy="261.7" r="13.2" fill="#4f7c41"/>
<line x1="1087.5" y1="285.0" x2="1087.5" y2="269.4" stroke="#6b5a42" stroke-width="3"/>
<circle cx="1087.5" cy="251.5" r="17.9" fill="#578748"/>
<rect x="0" y="285" width="1200" height="15" fill="#9aaa85" opacity="0.4"/>
</svg>