<svg xmlns="http://www.w3.org/2000/svg" viewBox="0 0 1200 300" width="1200" height="300">
<rect width="1200" height="300" fill="#ede8e0"/>
<path d="M0 300 L0 210.0 C371.8 160.1, 1013.7 194.1, 1200 210.0 L1200 300 Z" fill="#c4c6be" opacity="0.3"/>
<rect x="84.7" y="176.8" width="75.9" height="123.2" fill="#aeb0a5"/>
<rect x="303.8" y="219.4" width="68.6" height="80.6" fill="#aeb0a5"/>
<rect x="555.4" y="188.3" width="62.5" height="111.7" fill="#aeb0a5"/>
<rect x="765.5" y="228.1" width="65.0" height="71.9" fill="#aeb0a5"/>
<rect x="1026.3" y="177.3" width="70.0" height="122.7" fill="#aeb0a5"/>
<rect x="113.8" y="177.3" width="55.2" height="122.7" fill="#898d7d"/>
<rect x="131.4" y="189.3" width="6" height="8" fill="#b2b5ab" opacity="0.5"/>
<rect x="145.4" y="205.3" width="6" height="8" fill="#b2b5ab" opacity="0.5"/>
<rect x="131.4" y="221.3" width="6" height="8" fill="#b2b5ab" opacity="0.5"/>
<rect x="145.4" y="221.3" width="6" height="8" fill="#b2b5ab" opacity="0.5"/>
<rect x="131.4" y="237.3" width="6" height="8" fill="#b2b5ab" opacity="0.5"/>
<rect x="145.4" y="237.3" width="6" height="8" fill="#b2b5ab" opacity="0.5"/>
<rect x="131.4" y="253.3" width="6" height="8" fill="#b2b5ab" opacity="0.5"/>
<rect x="145.4" y="253.3" width="6" height="8" fill="#b2b5ab" opacity="0.5"/>
<rect x="131.4" y="269.3" width="6" height="8" fill="#b2b5ab" opacity="0.5"/>
<rect x="145.4" y="269.3" width="6" height="8" fill="#b2b5ab" opacity="0.5"/>
<rect x="351.6" y="170.7" width="77.5" height="129.3" fill="#898d7d"/>
<rect x="366.4" y="182.7" width="6" height="8" fill="#b2b5ab" opacity="0.5"/>
<rect x="394.4" y="182.7" width="6" height="8" fill="#b2b5ab" opacity="0.5"/>
<rect x="408.4" y="182.7" width="6" height="8" fill="#b2b5ab" opacity="0.5"/>
<rect x="366.4" y="198.7" width="6" height="8" fill="#b2b5ab" opacity="0.5"/>
<rect x="380.4" y="198.7" width="6" height="8" fill="#b2b5ab" opacity="0.5"/>
<rect x="408.4" y="198.7" width="6" height="8" fill="#b2b5ab" opacity="0.5"/>
<rect x="380.4" y="214.7" width="6" height="8" fill="#b2b5ab" opacity="0.5"/>
<rect x="394.4" y="214.7" width="6" height="8" fill="#b2b5ab" opacity="0.5"/>
<rect x="408.4" y="214.7" width="6" height="8" fill="#b2b5ab" opacity="0.5"/>
<rect x="394.4" y="230.7" width="6" height="8" fill="#b2b5ab" opacity="0.5"/>
<rect x="408.4" y="230.7" width="6" height="8" fill="#b2b5ab" opacity="0.5"/>
<rect x="366.4" y="246.7" width="6" height="8" fill="#b2b5ab" opacity="0.5"/>
<rect x="380.4" y="246.7" width="6" height="8" fill="#b2b5ab" opacity="0.5"/>
<rect x="394.4" y="246.7" width="6" height="8" fill="#b2b5ab" opacity="0.5"/>
<rect x="366.4" y="262.7" width="6" height="8" fill="#b2b5ab" opacity="0.5"/>
<rect x="380.4" y="262.7" width="6" height="8" fill="#b2b5ab" opacity="0.5"/>
<rect x="571.8" y="147.4" width="53.2" height="152.6" fill="#898d7d"/>
<rect x="588.4" y="159.4" width="6" height="8" fill="#b2b5ab" opacity="0.5"/>
<rect x="588.4" y="191.4" width="6" height="8" fill="#b2b5ab" opacity="0.5"/>
<rect x="602.4" y="191.4" width="6" height="8" fill="#b2b5ab" opacity="0.5"/>
<rect x="588.4" y="207.4" width="6" height="8" fill="#b2b5ab" opacity="0.5"/>
<rect x="602.4" y="207.4" width="6" height="8" fill="#b2b5ab" opacity="0.5"/>
<rect x="588.4" y="223.4" width="6" height="8" fill="#b2b5ab" opacity="0.5"/>
<rect x="588.4" y="239.4" width="6" height="8" fill="#b2b5ab" opacity="0.5"/>
<rect x="602.4" y="239.4" width="6" height="8" fill="#b2b5ab" opacity="0.5"/>
<rect x="588.4" y="255.4" width="6" height="8" fill="#b2b5ab" opacity="0.5"/>
<rect x="602.4" y="255.4" width="6" height="8" fill="#b2b5ab" opacity="0.5"/>
<rect x="777.4" y="180.3" width="48.8" height="119.7" fill="#898d7d"/>
<rect x="805.8" y="192.3" width="6" height="8" fill="#b2b5ab" opacity="0.5"/>
<rect x="791.8" y="208.3" width="6" height="8" fill="#b2b5ab" opacity="0.5"/>
<rect x="791.8" y="224.3" width="6" height="8" fill="#b2b5ab" opacity="0.5"/>
<rect x="805.8" y="224.3" width="6" height="8" fill="#b2b5ab" opacity="0.5"/>
<rect x="805.8" y="240.3" width="6" height="8" fill="#b2b5ab" opacity="0.5"/>
<rect x="791.8" y="256.3" width="6" height="8" fill="#b2b5ab" opacity="0.5"/>
<rect x="805.8" y="256.3" width="6" height="8" fill="#b2b5ab" opacity="0.5"/>
<rect x="791.8" y="272.3" width="6" height="8" fill="#b2b5ab" opacity="0.5"/>
<rect x="805.8" y="272.3" width="6" height="8" fill="#b2b5ab" opacity="0.5"/>
<rect x="1042.3" y="140.3" width="62.0" height="159.7" fill="#898d7d"/>
<rect x="1056.3" y="152.3" width="6" height="8" fill="#b2b5ab" opacity="0.5"/>
<rect x="1070.3" y="152.3" width="6" height="8" fill="#b2b5ab" opacity="0.5"/>
<rect x="1084.3" y="152.3" width="6" height="8" fill="#b2b5ab" opacity="0.5"/>
<rect x="1056.3" y="168.3" width="6" height="8" fill="#b2b5ab" opacity="0.5"/>
<rect x="1070.3" y="168.3" width="6" height="8" fill="#b2b5ab" opacity="0.5"/>
<rect x="1084.3" y="168.3" width="6" height="8" fill="#b2b5ab" opacity="0.5"/>
<rect x="1056.3" y="184.3" width="6" height="8" fill="#b2b5ab" opacity="0.5"/>
<rect x="1070.3" y="184.3" width="6" height="8" fill="#b2b5ab" opacity="0.5"/>
<rect x="1084.3" y="184.3" width="6" height="8" fill="#b2b5ab" opacity="0.5"/>
<rect x="1056.3" y="200.3" width="6" height="8" fill="#b2b5ab" opacity="0.5"/>
<rect x="1070.3" y="200.3" width="6" height="8" fill="#b2b5ab" opacity="0.5"/>
<rect x="1084.3" y="200.3" width="6" height="8" fill="#b2b5ab" opacity="0.5"/>
<rect x="1056.3" y="216.3" width="6" height="8" fill="#b2b5ab" opacity="0.5"/>
<rect x="1070.3" y="216.3" width="6" height="8" fill="#b2b5ab" opacity="0.5"/>
<rect x="1084.3" y="216.3" width="6" height="8" fill="#b2b5ab" opacity="0.5"/>
<rect x="1056.3" y="232.3" width="6" height="8" fill="#b2b5ab" opacity="0.5"/>
<rect x="1070.3" y="232.3" width="6" height="8" fill="#b2b5ab" opacity="0.5"/>
<rect x="1084.3" y="232.3" width="6" height="8" fill="#b2b5ab" opacity="0.5"/>
<rect x="1056.3" y="248.3" width="6" height="8" fill="#b2b5ab" opacity="0.5"/>
<rect x="1070.3" y="248.3" width="6" height="8" fill="#b2b5ab" opacity="0.5"/>
<rect x="1056.3" y="264.3" width="6" height="8" fill="#b2b5ab" opacity="0.5"/>
<rect x="1070.3" y="264.3" width="6" height="8" fill="#b2b5ab" opacity="0.5"/>
<rect x="146.8" y="185.8" width="49.3" height="114.2" fill="#6b705c"/>
<rect x="161.4" y="197.8" width="6" height="8" fill="#9fa295" opacity="0.5"/>
<rect x="175.4" y="197.8" width="6" height="8" fill="#9fa295" opacity="0.5"/>
<rect x="161.4" y="213.8" width="6" height="8" fill="#9fa295" opacity="0.5"/>
<rect x="161.4" y="229.8" width="6" height="8" fill="#9fa295" opacity="0.5"/>
<rect x="161.4" y="245.8" width="6" height="8" fill="#9fa295" opacity="0.5"/>
<rect x="175.4" y="245.8" width="6" height="8" fill="#9fa295" opacity="0.5"/>
<rect x="161.4" y="261.8" width="6" height="8" fill="#9fa295" opacity="0.5"/>
<rect x="175.4" y="261.8" width="6" height="8" fill="#9fa295" opacity="0.5"/>
<rect x="373.6" y="223.8" width="45.8" height="76.2" fill="#6b705c"/>
<rect x="386.5" y="235.8" width="6" height="8" fill="#9fa295" opacity="0.5"/>
<rect x="400.5" y="235.8" width="6" height="8" fill="#9fa295" opacity="0.5"/>
<rect x="386.5" y="267.8" width="6" height="8" fill="#9fa295" opacity="0.5"/>
<rect x="400.5" y="267.8" width="6" height="8" fill="#9fa295" opacity="0.5"/>
<rect x="576.2" y="231.2" width="52.4" height="68.8" fill="#6b705c"/>
<rect x="592.4" y="243.2" width="6" height="8" fill="#9fa295" opacity="0.5"/>
<rect x="606.4" y="243.2" width="6" height="8" fill="#9fa295" opacity="0.5"/>
<rect x="592.4" y="259.2" width="6" height="8" fill="#9fa295" opacity="0.5"/>
<rect x="801.4" y="192.5" width="58.1" height="107.5" fill="#6b705c"/>
<rect x="813.5" y="204.5" width="6" height="8" fill="#9fa295" opacity="0.5"/>
<rect x="827.5" y="204.5" width="6" height="8" fill="#9fa295" opacity="0.5"/>
<rect x="841.5" y="204.5" width="6" height="8" fill="#9fa295" opacity="0.5"/>
<rect x="813.5" y="220.5" width="6" height="8" fill="#9fa295" opacity="0.5"/>
<rect x="827.5" y="220.5" width="6" height="8" fill="#9fa295" opacity="0.5"/>
<rect x="827.5" y="236.5" width="6" height="8" fill="#9fa295" opacity="0.5"/>
<rect x="841.5" y="236.5" width="6" height="8" fill="#9fa295" opacity="0.5"/>
<rect x="813.5" y="252.5" width="6" height="8" fill="#9fa295" opacity="0.5"/>
<rect x="827.5" y="252.5" width="6" height="8" fill="#9fa295" opacity="0.5"/>
<rect x="841.5" y="252.5" width="6" height="8" fill="#9fa295" opacity="0.5"/>
<rect x="841.5" y="268.5" width="6" height="8" fill="#9fa295" opacity="0.5"/>
<rect x="1015.5" y="243.6" width="33.6" height="56.4" fill="#6b705c"/>
<rect x="0" y="298" width="1200" height="2" fill="#606553" opacity="0.15"/>
</svg>