<svg xmlns="http://www.w3.org/2000/svg" viewBox="0 0 1200 300" width="1200" height="300">
<defs>
<linearGradient id="skyGrad" x1="0" y1="0" x2="0" y2="1">
<stop offset="0%" stop-color="#818cf8"/>
<stop offset="20%" stop-color="#c4b5fd"/>
<stop offset="38%" stop-color="#fda4af"/>
<stop offset="55%" stop-color="#fdba74"/>
<stop offset="75%" stop-color="#fef08a"/>
<stop offset="100%" stop-color="#fef9c3"/>
</linearGradient>
<linearGradient id="bldg_coral" x1="0" y1="0" x2="0" y2="1"><stop offset="0%" stop-color="#fecaca"/><stop offset="100%" stop-color="#fca5a5"/></linearGradient>
<linearGradient id="bldg_teal" x1="0" y1="0" x2="0" y2="1"><stop offset="0%" stop-color="#99f6e4"/><stop offset="100%" stop-color="#5eead4"/></linearGradient>
<linearGradient id="bldg_amber" x1="0" y1="0" x2="0" y2="1"><stop offset="0%" stop-color="#fde68a"/><stop offset="100%" stop-color="#fcd34d"/></linearGradient>
<linearGradient id="bldg_lavender" x1="0" y1="0" x2="0" y2="1"><stop offset="0%" stop-color="#ddd6fe"/><stop offset="100%" stop-color="#c4b5fd"/></linearGradient>
<linearGradient id="bldg_blue" x1="0" y1="0" x2="0" y2="1"><stop offset="0%" stop-color="#bfdbfe"/><stop offset="100%" stop-color="#93c5fd"/></linearGradient>
<linearGradient id="bldg_mint" x1="0" y1="0" x2="0" y2="1"><stop offset="0%" stop-color="#a7f3d0"/><stop offset="100%" stop-color="#6ee7b7"/></linearGradient>
<linearGradient id="bldg_rose" x1="0" y1="0" x2="0" y2="1"><stop offset="0%" stop-color="#fecdd3"/><stop offset="100%" stop-color="#fda4af"/></linearGradient>
<linearGradient id="bldg_sky" x1="0" y1="0" x2="0" y2="1"><stop offset="0%" stop-color="#bae6fd"/><stop offset="100%" stop-color="#7dd3fc"/></linearGradient>
<linearGradient id="roof_navyRoof" x1="0" y1="0" x2="0" y2="1"><stop offset="0%" stop-color="#4338ca"/><stop offset="100%" stop-color="#3730a3"/></linearGradient>
<linearGradient id="roof_coralRoof" x1="0" y1="0" x2="0" y2="1"><stop offset="0%" stop-color="#f87171"/><stop offset="100%" stop-color="#ef4444"/></linearGradient>
<linearGradient id="roof_tealRoof" x1="0" y1="0" x2="0" y2="1"><stop offset="0%" stop-color="#2dd4bf"/><stop offset="100%" stop-color="#14b8a6"/></linearGradient>
<radialGradient id="windowGlow" cx="50%" cy="50%" r="50%"><stop offset="0%" stop-color="#fef08a"/><stop offset="60%" stop-color="#fbbf24"/><stop offset="100%" stop-color="#f59e0b"/></radialGradient>
<linearGradient id="hillFar" x1="0" y1="0" x2="0" y2="1"><stop offset="0%" stop-color="#c4b5fd"/><stop offset="100%" stop-color="#a5b4fc"/></linearGradient>
<linearGradient id="hillMid" x1="0" y1="0" x2="0" y2="1"><stop offset="0%" stop-color="#86efac"/><stop offset="100%" stop-color="#4ade80"/></linearGradient>
<linearGradient id="hillNear" x1="0" y1="0" x2="0" y2="1"><stop offset="0%" stop-color="#34d399"/><stop offset="100%" stop-color="#10b981"/></linearGradient>
<linearGradient id="hillDesertFar" x1="0" y1="0" x2="0" y2="1"><stop offset="0%" stop-color="#fde68a"/><stop offset="100%" stop-color="#fcd34d"/></linearGradient>
<linearGradient id="hillDesertMid" x1="0" y1="0" x2="0" y2="1"><stop offset="0%" stop-color="#fcd34d"/><stop offset="100%" stop-color="#fbbf24"/></linearGradient>
<linearGradient id="hillDesertNear" x1="0" y1="0" x2="0" y2="1"><stop offset="0%" stop-color="#fbbf24"/><stop offset="100%" stop-color="#f59e0b"/></linearGradient>
<linearGradient id="groundGrad" x1="0" y1="0" x2="0" y2="1"><stop offset="0%" stop-color="#fef3c7"/><stop offset="100%" stop-color="#fde68a"/></linearGradient>
<linearGradient id="waterGrad" x1="0" y1="0" x2="0" y2="1"><stop offset="0%" stop-color="#bfdbfe"/><stop offset="100%" stop-color="#93c5fd"/></linearGradient>
<filter id="softGlow" x="-50%" y="-50%" width="200%" height="200%"><feGaussianBlur in="SourceGraphic" stdDeviation="12"/></filter>
</defs>
<rect width="1200" height="300" fill="url(#skyGrad)"/>
<circle cx="935.1" cy="50.0" r="45" fill="#fef08a" opacity="0.12" filter="url(#softGlow)"/>
<circle cx="935.1" cy="50.0" r="30" fill="#fde68a" opacity="0.18" filter="url(#softGlow)"/>
<circle cx="935.1" cy="50.0" r="16" fill="#fef9c3" opacity="0.25" filter="url(#softGlow)"/>
<ellipse cx="811.1" cy="50.0" rx="32.3" ry="11.3" fill="white" opacity="0.4"/>
<ellipse cx="790.9" cy="53.3" rx="22.6" ry="8.9" fill="white" opacity="0.4"/>
<ellipse cx="828.8" cy="52.4" rx="25.8" ry="9.7" fill="white" opacity="0.4"/>
<ellipse cx="589.7" cy="32.2" rx="33.2" ry="11.6" fill="white" opacity="0.4"/>
<ellipse cx="568.9" cy="35.6" rx="23.2" ry="9.1" fill="white" opacity="0.4"/>
<ellipse cx="608.0" cy="34.7" rx="26.6" ry="10.0" fill="white" opacity="0.4"/>
<path d="M0 300 L0.0 186.7 C180.5 186.7, 180.5 180.0, 360.9 180.0 C472.0 180.0, 472.0 173.1, 583.0 173.1 C732.7 173.1, 732.7 185.0, 882.4 185.0 C1041.2 185.0, 1041.2 188.8, 1200.0 188.8 L1200 300 Z" fill="url(#hillFar)" opacity="0.5"/>
<path d="M0 300 L0.0 201.9 C211.4 201.9, 211.4 216.1, 422.8 216.1 C587.5 216.1, 587.5 214.9, 752.2 214.9 C976.1 214.9, 976.1 213.2, 1200.0 213.2 L1200 300 Z" fill="url(#hillMid)" opacity="0.7"/>
<path d="M0 300 L0.0 226.6 C169.2 226.6, 169.2 235.0, 338.5 235.0 C543.9 235.0, 543.9 233.6, 749.3 233.6 C974.6 233.6, 974.6 234.9, 1200.0 234.9 L1200 300 Z" fill="url(#hillNear)" opacity="1"/>
<rect x="0" y="216.5" width="1200" height="83.5" fill="url(#waterGrad)" opacity="0.6"/>
<path d="M0 237.4 Q60.0 236.1 120.0 238.0 Q180.0 236.9 240.0 237.5 Q300.0 236.6 360.0 237.6 Q420.0 237.1 480.0 238.4 Q540.0 235.6 600.0 236.3 Q660.0 236.6 720.0 237.1 Q780.0 235.9 840.0 236.7 Q900.0 235.5 960.0 237.5 Q1020.0 236.4 1080.0 236.8 Q1140.0 235.5 1200.0 237.1" fill="none" stroke="#bfdbfe" stroke-width="1" opacity="0.5"/>
<path d="M0 258.3 Q60.0 258.0 120.0 256.8 Q180.0 256.1 240.0 258.7 Q300.0 258.8 360.0 257.0 Q420.0 256.2 480.0 258.8 Q540.0 258.8 600.0 258.6 Q660.0 258.3 720.0 257.7 Q780.0 259.0 840.0 258.2 Q900.0 256.5 960.0 257.2 Q1020.0 256.4 1080.0 257.8 Q1140.0 260.6 1200.0 256.8" fill="none" stroke="#bfdbfe" stroke-width="1" opacity="0.5"/>
<path d="M0 279.1 Q60.0 277.5 120.0 279.0 Q180.0 279.6 240.0 277.9 Q300.0 278.7 360.0 279.8 Q420.0 276.7 480.0 279.8 Q540.0 280.1 600.0 279.5 Q660.0 279.8 720.0 279.7 Q780.0 281.4 840.0 280.2 Q900.0 281.5 960.0 278.9 Q1020.0 277.4 1080.0 278.5 Q1140.0 278.4 1200.0 280.3" fill="none" stroke="#bfdbfe" stroke-width="1" opacity="0.5"/>
<ellipse cx="636.6" cy="193.5" rx="267.1" ry="58.9" fill="url(#hillMid)" opacity="0.3"/>
<ellipse cx="894.0" cy="202.1" rx="154.8" ry="51.5" fill="url(#hillMid)" opacity="0.3"/>
<ellipse cx="766.6" cy="192.6" rx="344.7" ry="40.7" fill="url(#hillMid)" opacity="0.3"/>
<ellipse cx="996.2" cy="192.7" rx="172.6" ry="39.3" fill="url(#hillMid)" opacity="0.3"/>
<rect x="132.8" y="219.7" width="55.7" height="80.3" rx="3" fill="url(#bldg_coral)" opacity="0.7"/>
<rect x="132.8" y="216.7" width="55.7" height="3" rx="1" fill="url(#roof_coralRoof)" opacity="0.7"/>
<rect x="150.7" y="229.7" width="6" height="8" rx="1" fill="url(#windowGlow)" opacity="0.9233677404110169"/>
<rect x="164.7" y="229.7" width="6" height="8" rx="1" fill="url(#windowGlow)" opacity="0.9650560145569294"/>
<rect x="150.7" y="244.7" width="6" height="8" rx="1" fill="url(#windowGlow)" opacity="0.7184757097710276"/>
<rect x="164.7" y="244.7" width="6" height="8" rx="1" fill="url(#windowGlow)" opacity="0.7689533727564631"/>
<rect x="150.7" y="259.7" width="6" height="8" rx="1" fill="url(#windowGlow)" opacity="0.738121883309503"/>
<rect x="164.7" y="259.7" width="6" height="8" rx="1" fill="url(#windowGlow)" opacity="0.9951520682755635"/>
<rect x="449.0" y="225.2" width="47.0" height="74.8" rx="3" fill="url(#bldg_teal)" opacity="0.7"/>
<polygon points="449.0,225.2 472.5,211.6 496.0,225.2" fill="url(#roof_tealRoof)" opacity="0.7"/>
<rect x="462.5" y="235.2" width="6" height="8" rx="1" fill="url(#windowGlow)" opacity="0.9089089348022401"/>
<rect x="476.5" y="235.2" width="6" height="8" rx="1" fill="url(#windowGlow)" opacity="0.7320154377408397"/>
<rect x="462.5" y="250.2" width="6" height="8" rx="1" fill="url(#windowGlow)" opacity="0.7974771138734543"/>
<rect x="680.1" y="241.4" width="66.9" height="58.6" rx="3" fill="url(#bldg_amber)" opacity="0.7"/>
<rect x="693.4" y="234.4" width="40.1" height="7.0" rx="2" fill="url(#roof_navyRoof)" opacity="0.7"/>
<rect x="710.5" y="251.4" width="6" height="8" rx="1" fill="url(#windowGlow)" opacity="0.737211288575647"/>
<rect x="724.5" y="251.4" width="6" height="8" rx="1" fill="url(#windowGlow)" opacity="0.9734744355890315"/>
<rect x="1003.8" y="220.8" width="51.0" height="79.2" rx="3" fill="url(#bldg_lavender)" opacity="0.7"/>
<rect x="1014.0" y="211.3" width="30.6" height="9.5" rx="2" fill="url(#roof_coralRoof)" opacity="0.7"/>
<rect x="1019.3" y="230.8" width="6" height="8" rx="1" fill="url(#windowGlow)" opacity="0.8262236121698392"/>
<rect x="1033.3" y="230.8" width="6" height="8" rx="1" fill="url(#windowGlow)" opacity="0.9012809223501388"/>
<rect x="1019.3" y="245.8" width="6" height="8" rx="1" fill="url(#windowGlow)" opacity="0.9726977708156676"/>
<rect x="1033.3" y="245.8" width="6" height="8" rx="1" fill="url(#windowGlow)" opacity="0.8484879483228959"/>
<rect x="1019.3" y="260.8" width="6" height="8" rx="1" fill="url(#windowGlow)" opacity="0.8644091099334923"/>
<rect x="1033.3" y="260.8" width="6" height="8" rx="1" fill="url(#windowGlow)" opacity="0.8934182646653699"/>
<rect x="132.3" y="168.0" width="49.9" height="132.0" rx="3" fill="url(#bldg_blue)" opacity="0.85"/>
<rect x="142.2" y="152.1" width="29.9" height="15.8" rx="2" fill="url(#roof_tealRoof)" opacity="0.85"/>
<rect x="147.2" y="178.0" width="6" height="8" rx="1" fill="url(#windowGlow)" opacity="0.8439401038195659"/>
<rect x="147.2" y="193.0" width="6" height="8" rx="1" fill="url(#windowGlow)" opacity="0.8569279964812695"/>
<rect x="161.2" y="193.0" width="6" height="8" rx="1" fill="url(#windowGlow)" opacity="0.8341214595987095"/>
<rect x="147.2" y="208.0" width="6" height="8" rx="1" fill="url(#windowGlow)" opacity="0.7928482109181807"/>
<rect x="147.2" y="223.0" width="6" height="8" rx="1" fill="url(#windowGlow)" opacity="0.7288577447314084"/>
<rect x="161.2" y="223.0" width="6" height="8" rx="1" fill="url(#windowGlow)" opacity="0.8638852173759999"/>
<rect x="147.2" y="238.0" width="6" height="8" rx="1" fill="url(#windowGlow)" opacity="0.9244392813762833"/>
<rect x="147.2" y="253.0" width="6" height="8" rx="1" fill="url(#windowGlow)" opacity="0.7842841245626491"/>
<rect x="161.2" y="253.0" width="6" height="8" rx="1" fill="url(#windowGlow)" opacity="0.793904839779206"/>
<path d="M137.3 214.2 L157.2 214.2 L154.2 220.2 L140.3 220.2 Z" fill="url(#roof_coralRoof)" opacity="0.68"/>
<rect x="407.1" y="197.2" width="46.8" height="102.8" rx="3" fill="url(#bldg_mint)" opacity="0.85"/>
<polygon points="407.1,197.2 430.5,184.4 453.9,197.2" fill="url(#roof_navyRoof)" opacity="0.85"/>
<rect x="420.5" y="207.2" width="6" height="8" rx="1" fill="url(#windowGlow)" opacity="0.8711103652469396"/>
<rect x="420.5" y="222.2" width="6" height="8" rx="1" fill="url(#windowGlow)" opacity="0.8625364082225302"/>
<rect x="420.5" y="237.2" width="6" height="8" rx="1" fill="url(#windowGlow)" opacity="0.7692409170182612"/>
<rect x="434.5" y="237.2" width="6" height="8" rx="1" fill="url(#windowGlow)" opacity="0.7713128298853118"/>
<rect x="420.5" y="252.2" width="6" height="8" rx="1" fill="url(#windowGlow)" opacity="0.7553395669233703"/>
<rect x="434.5" y="252.2" width="6" height="8" rx="1" fill="url(#windowGlow)" opacity="0.7182662887583795"/>
<rect x="743.3" y="199.6" width="54.8" height="100.4" rx="3" fill="url(#bldg_rose)" opacity="0.85"/>
<polygon points="743.3,199.6 770.7,185.5 798.1,199.6" fill="url(#roof_coralRoof)" opacity="0.85"/>
<rect x="774.7" y="209.6" width="6" height="8" rx="1" fill="url(#windowGlow)" opacity="0.7704016334705062"/>
<rect x="774.7" y="224.6" width="6" height="8" rx="1" fill="url(#windowGlow)" opacity="0.9495828853685329"/>
<rect x="760.7" y="239.6" width="6" height="8" rx="1" fill="url(#windowGlow)" opacity="0.8479321137293857"/>
<rect x="774.7" y="239.6" width="6" height="8" rx="1" fill="url(#windowGlow)" opacity="0.9458873875187185"/>
<rect x="774.7" y="254.6" width="6" height="8" rx="1" fill="url(#windowGlow)" opacity="0.8129238522206078"/>
<rect x="1019.1" y="177.7" width="44.4" height="122.3" rx="3" fill="url(#bldg_sky)" opacity="0.85"/>
<rect x="1019.1" y="174.7" width="44.4" height="3" rx="1" fill="url(#roof_tealRoof)" opacity="0.85"/>
<rect x="1031.3" y="187.7" width="6" height="8" rx="1" fill="url(#windowGlow)" opacity="0.960633226232898"/>
<rect x="1045.3" y="187.7" width="6" height="8" rx="1" fill="url(#windowGlow)" opacity="0.9766076743959484"/>
<rect x="1031.3" y="217.7" width="6" height="8" rx="1" fill="url(#windowGlow)" opacity="0.9916292189115794"/>
<rect x="1045.3" y="217.7" width="6" height="8" rx="1" fill="url(#windowGlow)" opacity="0.7950008348072882"/>
<rect x="1031.3" y="232.7" width="6" height="8" rx="1" fill="url(#windowGlow)" opacity="0.8405353095105548"/>
<rect x="1045.3" y="232.7" width="6" height="8" rx="1" fill="url(#windowGlow)" opacity="0.9097565083809925"/>
<rect x="1031.3" y="247.7" width="6" height="8" rx="1" fill="url(#windowGlow)" opacity="0.7209020399585842"/>
<rect x="1045.3" y="247.7" width="6" height="8" rx="1" fill="url(#windowGlow)" opacity="0.8039121937490591"/>
<path d="M1041.3 220.5 L1059.0 220.5 L1056.0 226.5 L1044.3 226.5 Z" fill="url(#roof_coralRoof)" opacity="0.68"/>
<rect x="181.0" y="211.7" width="37.6" height="88.3" rx="3" fill="url(#bldg_coral)" opacity="1"/>
<polygon points="181.0,211.7 199.8,203.8 218.6,211.7" fill="url(#roof_navyRoof)" opacity="1"/>
<rect x="196.8" y="221.7" width="6" height="8" rx="1" fill="url(#windowGlow)" opacity="0.8587557246716486"/>
<rect x="196.8" y="236.7" width="6" height="8" rx="1" fill="url(#windowGlow)" opacity="0.8657360621568448"/>
<rect x="196.8" y="251.7" width="6" height="8" rx="1" fill="url(#windowGlow)" opacity="0.7793781119768406"/>
<rect x="194.8" y="284.0" width="10" height="16" rx="2" fill="url(#roof_navyRoof)" opacity="0.8"/>
<rect x="196.8" y="287.0" width="6" height="10" rx="1" fill="url(#windowGlow)" opacity="0.45"/>
<rect x="193.2" y="252.7" width="13.2" height="5" rx="1" fill="#15803d" opacity="0.7"/>
<circle cx="196.2" cy="251.7" r="2.5" fill="#a78bfa" opacity="0.85"/>
<circle cx="200.6" cy="251.7" r="2.5" fill="#fbbf24" opacity="0.85"/>
<circle cx="205.0" cy="251.7" r="2.5" fill="#fb923c" opacity="0.85"/>
<rect x="455.0" y="229.6" width="55.3" height="70.4" rx="3" fill="url(#bldg_teal)" opacity="1"/>
<polygon points="455.0,229.6 482.6,212.1 510.3,229.6" fill="url(#roof_coralRoof)" opacity="1"/>
<rect x="472.6" y="239.6" width="6" height="8" rx="1" fill="url(#windowGlow)" opacity="0.9416347938783628"/>
<rect x="486.6" y="239.6" width="6" height="8" rx="1" fill="url(#windowGlow)" opacity="0.892235408533474"/>
<rect x="472.6" y="254.6" width="6" height="8" rx="1" fill="url(#windowGlow)" opacity="0.7252072036383707"/>
<rect x="486.6" y="254.6" width="6" height="8" rx="1" fill="url(#windowGlow)" opacity="0.7478423725105088"/>
<rect x="477.6" y="284.0" width="10" height="16" rx="2" fill="url(#roof_navyRoof)" opacity="0.8"/>
<rect x="479.6" y="287.0" width="6" height="10" rx="1" fill="url(#windowGlow)" opacity="0.45"/>
<path d="M460.5 254.2 L482.6 254.2 L479.6 260.2 L463.5 260.2 Z" fill="url(#roof_navyRoof)" opacity="0.8"/>
<rect x="473.0" y="255.6" width="19.4" height="5" rx="1" fill="#15803d" opacity="0.7"/>
<circle cx="476.0" cy="254.6" r="2.5" fill="#fbbf24" opacity="0.85"/>
<circle cx="482.4" cy="254.6" r="2.5" fill="#fb923c" opacity="0.85"/>
<circle cx="488.9" cy="254.6" r="2.5" fill="#a78bfa" opacity="0.85"/>
<rect x="741.4" y="217.8" width="51.1" height="82.2" rx="3" fill="url(#bldg_amber)" opacity="1"/>
<rect x="751.6" y="208.0" width="30.7" height="9.9" rx="2" fill="url(#roof_tealRoof)" opacity="1"/>
<rect x="757.0" y="227.8" width="6" height="8" rx="1" fill="url(#windowGlow)" opacity="0.7792433927204662"/>
<rect x="771.0" y="227.8" width="6" height="8" rx="1" fill="url(#windowGlow)" opacity="0.9780759608736616"/>
<rect x="757.0" y="242.8" width="6" height="8" rx="1" fill="url(#windowGlow)" opacity="0.8618389420964936"/>
<rect x="771.0" y="242.8" width="6" height="8" rx="1" fill="url(#windowGlow)" opacity="0.9678244535195755"/>
<rect x="771.0" y="257.8" width="6" height="8" rx="1" fill="url(#windowGlow)" opacity="0.8150480476278104"/>
<rect x="762.0" y="284.0" width="10" height="16" rx="2" fill="url(#roof_navyRoof)" opacity="0.8"/>
<rect x="764.0" y="287.0" width="6" height="10" rx="1" fill="url(#windowGlow)" opacity="0.45"/>
<path d="M767.0 246.6 L787.4 246.6 L784.4 252.6 L770.0 252.6 Z" fill="url(#roof_coralRoof)" opacity="0.8"/>
<rect x="1009.6" y="120.7" width="45.7" height="179.3" rx="3" fill="url(#bldg_lavender)" opacity="1"/>
<rect x="1009.6" y="117.7" width="45.7" height="3" rx="1" fill="url(#roof_navyRoof)" opacity="1"/>
<rect x="1022.4" y="130.7" width="6" height="8" rx="1" fill="url(#windowGlow)" opacity="0.7662984402693335"/>
<rect x="1036.4" y="130.7" width="6" height="8" rx="1" fill="url(#windowGlow)" opacity="0.972797487104683"/>
<rect x="1022.4" y="145.7" width="6" height="8" rx="1" fill="url(#windowGlow)" opacity="0.8937652655382479"/>
<rect x="1036.4" y="145.7" width="6" height="8" rx="1" fill="url(#windowGlow)" opacity="0.9669715642775276"/>
<rect x="1022.4" y="160.7" width="6" height="8" rx="1" fill="url(#windowGlow)" opacity="0.7576944781270317"/>
<rect x="1036.4" y="160.7" width="6" height="8" rx="1" fill="url(#windowGlow)" opacity="0.9807506671085724"/>
<rect x="1036.4" y="175.7" width="6" height="8" rx="1" fill="url(#windowGlow)" opacity="0.9276531976776444"/>
<rect x="1022.4" y="190.7" width="6" height="8" rx="1" fill="url(#windowGlow)" opacity="0.887428804481136"/>
<rect x="1036.4" y="190.7" width="6" height="8" rx="1" fill="url(#windowGlow)" opacity="0.7033579999596615"/>
<rect x="1022.4" y="220.7" width="6" height="8" rx="1" fill="url(#windowGlow)" opacity="0.738056377339203"/>
<rect x="1027.4" y="284.0" width="10" height="16" rx="2" fill="url(#roof_navyRoof)" opacity="0.8"/>
<rect x="1029.4" y="287.0" width="6" height="10" rx="1" fill="url(#windowGlow)" opacity="0.45"/>
<path d="M1032.4 183.4 L1050.7 183.4 L1047.7 189.4 L1035.4 189.4 Z" fill="url(#roof_tealRoof)" opacity="0.8"/>
<rect x="383.8" y="208.0" width="10" height="62.0" rx="2" fill="url(#roof_coralRoof)"/>
<rect x="597.5" y="208.0" width="10" height="62.0" rx="2" fill="url(#roof_coralRoof)"/>
<line x1="373.8" y1="270.0" x2="617.5" y2="270.0" stroke="#f87171" stroke-width="4"/>
<path d="M388.8 213.0 Q495.6 262.0 602.5 213.0" fill="none" stroke="#fda4af" stroke-width="2"/>
<line x1="419.4" y1="254.0" x2="419.4" y2="270.0" stroke="#fda4af" stroke-width="1" opacity="0.6"/>
<line x1="449.9" y1="278.0" x2="449.9" y2="270.0" stroke="#fda4af" stroke-width="1" opacity="0.6"/>
<line x1="480.4" y1="290.0" x2="480.4" y2="270.0" stroke="#fda4af" stroke-width="1" opacity="0.6"/>
<line x1="510.9" y1="290.0" x2="510.9" y2="270.0" stroke="#fda4af" stroke-width="1" opacity="0.6"/>
<line x1="541.4" y1="278.0" x2="541.4" y2="270.0" stroke="#fda4af" stroke-width="1" opacity="0.6"/>
<line x1="571.9" y1="254.0" x2="571.9" y2="270.0" stroke="#fda4af" stroke-width="1" opacity="0.6"/>
<rect x="333.8" y="266.4" width="6" height="18.6" rx="2" fill="#15803d"/>
<circle cx="336.8" cy="255.1" r="15.4" fill="#22c55e" opacity="0.9"/>
<circle cx="328.6" cy="258.1" r="11.5" fill="#16a34a" opacity="0.8"/>
<circle cx="343.2" cy="259.1" r="10.7" fill="#15803d" opacity="0.7"/>
<rect x="622.9" y="265.8" width="6" height="19.2" rx="2" fill="#15803d"/>
<circle cx="625.9" cy="255.5" r="14.4" fill="#22c55e" opacity="0.9"/>
<circle cx="618.7" cy="258.5" r="10.8" fill="#16a34a" opacity="0.8"/>
<circle cx="632.0" cy="259.5" r="10.1" fill="#15803d" opacity="0.7"/>
<rect x="898.1" y="267.7" width="6" height="17.3" rx="2" fill="#15803d"/>
<circle cx="901.1" cy="255.5" r="16.2" fill="#22c55e" opacity="0.9"/>
<circle cx="894.7" cy="258.5" r="12.1" fill="#16a34a" opacity="0.8"/>
<circle cx="907.1" cy="259.5" r="11.3" fill="#15803d" opacity="0.7"/>
<rect x="154.2" y="263.5" width="6" height="21.5" rx="2" fill="#15803d"/>
<circle cx="157.2" cy="254.3" r="13.2" fill="#22c55e" opacity="0.9"/>
<circle cx="149.2" cy="257.3" r="9.9" fill="#16a34a" opacity="0.8"/>
<circle cx="164.6" cy="258.3" r="9.2" fill="#15803d" opacity="0.7"/>
<rect x="1100.4" y="268.0" width="6" height="17.0" rx="2" fill="#15803d"/>
<circle cx="1103.4" cy="256.6" r="15.4" fill="#22c55e" opacity="0.9"/>
<circle cx="1097.3" cy="259.6" r="11.6" fill="#16a34a" opacity="0.8"/>
<circle cx="1108.8" cy="260.6" r="10.8" fill="#15803d" opacity="0.7"/>
<rect x="228.5" y="268.5" width="6" height="16.5" rx="2" fill="#15803d"/>
<circle cx="231.5" cy="255.3" r="17.2" fill="#22c55e" opacity="0.9"/>
<circle cx="224.2" cy="258.3" r="12.9" fill="#16a34a" opacity="0.8"/>
<circle cx="238.2" cy="259.3" r="12.1" fill="#15803d" opacity="0.7"/>
<rect x="710.3" y="264.6" width="6" height="20.4" rx="2" fill="#15803d"/>
<circle cx="713.3" cy="253.2" r="15.3" fill="#22c55e" opacity="0.9"/>
<circle cx="704.4" cy="256.2" r="11.5" fill="#16a34a" opacity="0.8"/>
<circle cx="721.3" cy="257.2" r="10.7" fill="#15803d" opacity="0.7"/>
<rect x="930.2" y="264.0" width="6" height="21.0" rx="2" fill="#15803d"/>
<circle cx="933.2" cy="254.2" r="13.9" fill="#22c55e" opacity="0.9"/>
<circle cx="926.0" cy="257.2" r="10.4" fill="#16a34a" opacity="0.8"/>
<circle cx="941.2" cy="258.2" r="9.7" fill="#15803d" opacity="0.7"/>
<rect x="913.5" y="268.3" width="6" height="16.7" rx="2" fill="#15803d"/>
<circle cx="916.5" cy="258.6" r="13.7" fill="#22c55e" opacity="0.9"/>
<circle cx="909.9" cy="261.6" r="10.3" fill="#16a34a" opacity="0.8"/>
<circle cx="922.9" cy="262.6" r="9.6" fill="#15803d" opacity="0.7"/>
<rect x="964.6" y="263.8" width="6" height="21.2" rx="2" fill="#15803d"/>
<circle cx="967.6" cy="251.2" r="16.6" fill="#22c55e" opacity="0.9"/>
<circle cx="961.6" cy="254.2" r="12.5" fill="#16a34a" opacity="0.8"/>
<circle cx="974.8" cy="255.2" r="11.6" fill="#15803d" opacity="0.7"/>
<rect x="0" y="282" width="1200" height="18" fill="url(#groundGrad)"/>
<line x1="830.2" y1="282.0" x2="830.2" y2="246.0" stroke="#92400e" stroke-width="2"/>
<circle cx="830.2" cy="246.0" r="4" fill="#fef08a" opacity="0.6"/>
<circle cx="830.2" cy="246.0" r="8" fill="#fef08a" opacity="0.15" filter="url(#softGlow)"/>
<line x1="1058.1" y1="282.0" x2="1058.1" y2="241.7" stroke="#92400e" stroke-width="2"/>
<circle cx="1058.1" cy="241.7" r="4" fill="#fef08a" opacity="0.6"/>
<circle cx="1058.1" cy="241.7" r="8" fill="#fef08a" opacity="0.15" filter="url(#softGlow)"/>
<ellipse cx="188.4" cy="282.0" rx="5.2" ry="3.6" fill="#22c55e" opacity="0.6"/>
<ellipse cx="977.4" cy="282.0" rx="6.5" ry="4.6" fill="#22c55e" opacity="0.6"/>
</svg>