<svg xmlns="http://www.w3.org/2000/svg" viewBox="0 0 1200 300" width="1200" height="300">
<defs><linearGradient id="skyGrad" x1="0" y1="0" x2="0" y2="1"><stop offset="0%" stop-color="#e6ecf2"/><stop offset="100%" stop-color="#f0eeec"/></linearGradient></defs><rect width="1200" height="300" fill="url(#skyGrad)"/>
<ellipse cx="700.6" cy="206.7" rx="172.4" ry="66.0" fill="#95b3bb" opacity="0.25"/>
<ellipse cx="62.5" cy="191.9" rx="126.8" ry="54.5" fill="#95b3bb" opacity="0.25"/>
<ellipse cx="102.8" cy="198.2" rx="132.6" ry="74.0" fill="#95b3bb" opacity="0.25"/>
<rect x="0" y="232.3" width="1200" height="67.7" fill="#82acc5" opacity="0.6"/>
<path d="M0 249.2 Q75.0 252.1 150.0 248.8 Q225.0 248.8 300.0 248.8 Q375.0 252.1 450.0 250.3 Q525.0 246.3 600.0 249.7 Q675.0 246.8 750.0 248.3 Q825.0 251.4 900.0 249.5 Q975.0 247.5 1050.0 248.0 Q1125.0 248.5 1200.0 248.2" fill="none" stroke="#9fc0d2" stroke-width="1" opacity="0.4"/>
<path d="M0 266.2 Q75.0 265.3 150.0 265.8 Q225.0 267.4 300.0 266.6 Q375.0 266.4 450.0 265.1 Q525.0 266.6 600.0 265.8 Q675.0 268.2 750.0 265.6 Q825.0 263.9 900.0 265.9 Q975.0 265.6 1050.0 264.7 Q1125.0 264.9 1200.0 265.5" fill="none" stroke="#9fc0d2" stroke-width="1" opacity="0.4"/>
<path d="M0 283.1 Q75.0 283.3 150.0 281.9 Q225.0 281.8 300.0 281.6 Q375.0 282.5 450.0 282.3 Q525.0 280.3 600.0 281.6 Q675.0 284.0 750.0 282.9 Q825.0 280.6 900.0 281.4 Q975.0 284.2 1050.0 283.5 Q1125.0 283.8 1200.0 281.4" fill="none" stroke="#9fc0d2" stroke-width="1" opacity="0.4"/>
<rect x="144.5" y="208.4" width="56.0" height="91.6" fill="#8aabb4"/>
<rect x="390.2" y="231.2" width="71.9" height="68.8" fill="#8aabb4"/>
<rect x="681.8" y="248.6" width="57.6" height="51.4" fill="#8aabb4"/>
<rect x="691.9" y="239.5" width="37.5" height="9.1" fill="#83a2ab"/>
<rect x="980.5" y="230.1" width="88.1" height="69.9" fill="#8aabb4"/>
<rect x="130.5" y="158.7" width="39.2" height="141.3" fill="#558592"/>
<rect x="147.1" y="186.7" width="6" height="8" fill="#91b0b8" opacity="0.5"/>
<rect x="147.1" y="202.7" width="6" height="8" fill="#91b0b8" opacity="0.5"/>
<rect x="147.1" y="218.7" width="6" height="8" fill="#91b0b8" opacity="0.5"/>
<rect x="359.9" y="233.1" width="54.0" height="66.9" fill="#558592"/>
<rect x="369.4" y="221.2" width="35.1" height="11.8" fill="#517e8b"/>
<rect x="390.9" y="233.2" width="6" height="8" fill="#91b0b8" opacity="0.5"/>
<rect x="376.9" y="249.2" width="6" height="8" fill="#91b0b8" opacity="0.5"/>
<rect x="390.9" y="249.2" width="6" height="8" fill="#91b0b8" opacity="0.5"/>
<rect x="582.1" y="160.9" width="62.3" height="139.1" fill="#558592"/>
<polygon points="582.1,160.9 613.2,145.3 644.4,160.9" fill="#4e7a86"/>
<rect x="596.2" y="172.9" width="6" height="8" fill="#91b0b8" opacity="0.5"/>
<rect x="610.2" y="172.9" width="6" height="8" fill="#91b0b8" opacity="0.5"/>
<rect x="610.2" y="188.9" width="6" height="8" fill="#91b0b8" opacity="0.5"/>
<rect x="610.2" y="204.9" width="6" height="8" fill="#91b0b8" opacity="0.5"/>
<rect x="624.2" y="204.9" width="6" height="8" fill="#91b0b8" opacity="0.5"/>
<rect x="596.2" y="220.9" width="6" height="8" fill="#91b0b8" opacity="0.5"/>
<rect x="610.2" y="220.9" width="6" height="8" fill="#91b0b8" opacity="0.5"/>
<rect x="596.2" y="236.9" width="6" height="8" fill="#91b0b8" opacity="0.5"/>
<rect x="610.2" y="236.9" width="6" height="8" fill="#91b0b8" opacity="0.5"/>
<rect x="596.2" y="252.9" width="6" height="8" fill="#91b0b8" opacity="0.5"/>
<rect x="624.2" y="252.9" width="6" height="8" fill="#91b0b8" opacity="0.5"/>
<rect x="821.5" y="138.0" width="63.4" height="162.0" fill="#558592"/>
<rect x="850.2" y="150.0" width="6" height="8" fill="#91b0b8" opacity="0.5"/>
<rect x="864.2" y="150.0" width="6" height="8" fill="#91b0b8" opacity="0.5"/>
<rect x="864.2" y="166.0" width="6" height="8" fill="#91b0b8" opacity="0.5"/>
<rect x="836.2" y="182.0" width="6" height="8" fill="#91b0b8" opacity="0.5"/>
<rect x="864.2" y="182.0" width="6" height="8" fill="#91b0b8" opacity="0.5"/>
<rect x="836.2" y="198.0" width="6" height="8" fill="#91b0b8" opacity="0.5"/>
<rect x="864.2" y="198.0" width="6" height="8" fill="#91b0b8" opacity="0.5"/>
<rect x="836.2" y="214.0" width="6" height="8" fill="#91b0b8" opacity="0.5"/>
<rect x="850.2" y="214.0" width="6" height="8" fill="#91b0b8" opacity="0.5"/>
<rect x="864.2" y="214.0" width="6" height="8" fill="#91b0b8" opacity="0.5"/>
<rect x="850.2" y="230.0" width="6" height="8" fill="#91b0b8" opacity="0.5"/>
<rect x="1060.8" y="195.9" width="54.1" height="104.1" fill="#558592"/>
<rect x="1091.8" y="207.9" width="6" height="8" fill="#91b0b8" opacity="0.5"/>
<rect x="1077.8" y="223.9" width="6" height="8" fill="#91b0b8" opacity="0.5"/>
<rect x="1077.8" y="239.9" width="6" height="8" fill="#91b0b8" opacity="0.5"/>
<rect x="1091.8" y="239.9" width="6" height="8" fill="#91b0b8" opacity="0.5"/>
<rect x="1077.8" y="255.9" width="6" height="8" fill="#91b0b8" opacity="0.5"/>
<rect x="1091.8" y="271.9" width="6" height="8" fill="#91b0b8" opacity="0.5"/>
<rect x="187.1" y="214.2" width="37.1" height="85.8" fill="#2b6777"/>
<rect x="193.6" y="199.0" width="24.1" height="15.1" fill="#296271"/>
<rect x="202.7" y="227.0" width="6" height="8" fill="#759ca7" opacity="0.5"/>
<rect x="432.1" y="165.6" width="56.0" height="134.4" fill="#2b6777"/>
<polygon points="432.1,165.6 460.1,151.6 488.1,165.6" fill="#285f6d"/>
<rect x="464.1" y="177.6" width="6" height="8" fill="#759ca7" opacity="0.5"/>
<rect x="450.1" y="193.6" width="6" height="8" fill="#759ca7" opacity="0.5"/>
<rect x="464.1" y="193.6" width="6" height="8" fill="#759ca7" opacity="0.5"/>
<rect x="450.1" y="209.6" width="6" height="8" fill="#759ca7" opacity="0.5"/>
<rect x="464.1" y="209.6" width="6" height="8" fill="#759ca7" opacity="0.5"/>
<rect x="450.1" y="225.6" width="6" height="8" fill="#759ca7" opacity="0.5"/>
<rect x="464.1" y="225.6" width="6" height="8" fill="#759ca7" opacity="0.5"/>
<rect x="450.1" y="241.6" width="6" height="8" fill="#759ca7" opacity="0.5"/>
<rect x="450.1" y="257.6" width="6" height="8" fill="#759ca7" opacity="0.5"/>
<rect x="464.1" y="257.6" width="6" height="8" fill="#759ca7" opacity="0.5"/>
<rect x="713.8" y="142.3" width="68.1" height="157.7" fill="#2b6777"/>
<rect x="730.9" y="154.3" width="6" height="8" fill="#759ca7" opacity="0.5"/>
<rect x="744.9" y="154.3" width="6" height="8" fill="#759ca7" opacity="0.5"/>
<rect x="758.9" y="154.3" width="6" height="8" fill="#759ca7" opacity="0.5"/>
<rect x="730.9" y="170.3" width="6" height="8" fill="#759ca7" opacity="0.5"/>
<rect x="744.9" y="170.3" width="6" height="8" fill="#759ca7" opacity="0.5"/>
<rect x="730.9" y="186.3" width="6" height="8" fill="#759ca7" opacity="0.5"/>
<rect x="744.9" y="186.3" width="6" height="8" fill="#759ca7" opacity="0.5"/>
<rect x="758.9" y="186.3" width="6" height="8" fill="#759ca7" opacity="0.5"/>
<rect x="730.9" y="202.3" width="6" height="8" fill="#759ca7" opacity="0.5"/>
<rect x="744.9" y="218.3" width="6" height="8" fill="#759ca7" opacity="0.5"/>
<rect x="744.9" y="234.3" width="6" height="8" fill="#759ca7" opacity="0.5"/>
<rect x="758.9" y="234.3" width="6" height="8" fill="#759ca7" opacity="0.5"/>
<rect x="1025.9" y="116.7" width="31.1" height="183.3" fill="#2b6777"/>
<rect x="1038.4" y="176.7" width="6" height="8" fill="#759ca7" opacity="0.5"/>
<rect x="1038.4" y="208.7" width="6" height="8" fill="#759ca7" opacity="0.5"/>
<rect x="609.4" y="220.2" width="8" height="64.8" fill="#2b6777"/>
<rect x="792.2" y="220.2" width="8" height="64.8" fill="#2b6777"/>
<line x1="613.4" y1="259.1" x2="796.2" y2="259.1" stroke="#2b6777" stroke-width="3"/>
<path d="M613.4 225.2 Q704.8 254.1 796.2 225.2" fill="none" stroke="#4b7e8b" stroke-width="1.5"/>
<line x1="328.2" y1="285.0" x2="328.2" y2="273.9" stroke="#6b5a42" stroke-width="3"/>
<circle cx="328.2" cy="259.1" r="14.8" fill="#588848"/>
<line x1="601.0" y1="285.0" x2="601.0" y2="269.4" stroke="#6b5a42" stroke-width="3"/>
<circle cx="601.0" cy="256.0" r="13.4" fill="#527f43"/>
<line x1="903.9" y1="285.0" x2="903.9" y2="273.9" stroke="#6b5a42" stroke-width="3"/>
<circle cx="903.9" cy="259.2" r="14.7" fill="#598b49"/>
<line x1="677.4" y1="285.0" x2="677.4" y2="272.3" stroke="#6b5a42" stroke-width="3"/>
<circle cx="677.4" cy="258.5" r="13.7" fill="#568547"/>
<line x1="131.5" y1="285.0" x2="131.5" y2="274.4" stroke="#6b5a42" stroke-width="3"/>
<circle cx="131.5" cy="259.8" r="14.6" fill="#578848"/>
<line x1="958.6" y1="285.0" x2="958.6" y2="274.6" stroke="#6b5a42" stroke-width="3"/>
<circle cx="958.6" cy="257.8" r="16.7" fill="#517e43"/>
<line x1="646.0" y1="285.0" x2="646.0" y2="273.1" stroke="#6b5a42" stroke-width="3"/>
<circle cx="646.0" cy="258.2" r="15.0" fill="#558446"/>
<rect x="0" y="285" width="1200" height="15" fill="#d4c5a9" opacity="0.4"/>
</svg>