<svg xmlns="http://www.w3.org/2000/svg" viewBox="0 0 1200 400" width="1200" height="400">
<defs>
<linearGradient id="bg" x1="0" y1="0" x2="0" y2="1"><stop offset="0%" stop-color="#15803d"/><stop offset="100%" stop-color="#1d4ed8"/></linearGradient>
<linearGradient id="warm" x1="0" y1="0" x2="1" y2="1"><stop offset="0%" stop-color="#858d98" stop-opacity="0.18"/><stop offset="100%" stop-color="#858d98" stop-opacity="0.06"/></linearGradient>
</defs>
<rect width="1200" height="400" fill="url(#bg)"/>
<path d="M0 400 L0 225.91441027241981 C60.0 226.4, 90.0 232.6, 150.0 241.2 C210.0 239.9, 240.0 248.8, 300.0 254.6 C360.0 256.3, 390.0 244.3, 450.0 236.2 C510.0 240.8, 540.0 235.3, 600.0 225.6 C660.0 230.9, 690.0 242.6, 750.0 252.5 C810.0 246.5, 840.0 221.2, 900.0 229.2 C960.0 232.0, 990.0 238.8, 1050.0 239.0 C1110.0 248.4, 1140.0 241.2, 1200.0 236.8 L1200 400 Z" fill="#1a60a2" opacity="0.45"/>
<path d="M0 400 L0 269.50922952321343 C52.5 266.1, 97.5 255.8, 150.0 260.9 C202.5 263.4, 247.5 262.5, 300.0 269.7 C352.5 267.9, 397.5 260.0, 450.0 265.7 C502.5 263.9, 547.5 264.7, 600.0 269.1 C652.5 263.7, 697.5 275.2, 750.0 273.8 C802.5 274.5, 847.5 270.2, 900.0 277.6 C952.5 279.0, 997.5 269.6, 1050.0 271.4 C1102.5 265.6, 1147.5 262.6, 1200.0 264.6 L1200 400 Z" fill="#1d4ed8" opacity="0.3"/>
<rect x="990.1" y="366.9" width="23.6" height="33.1" rx="7.9" fill="#e3eaf7" opacity="0.75"/>
<rect x="1073.6" y="341.2" width="12.6" height="58.8" rx="4.9" fill="#819de8" opacity="0.81"/>
<rect x="180.6" y="315.7" width="32.7" height="84.3" rx="7.2" fill="#dce4f6" opacity="0.70"/>
<rect x="196.5" y="325.7" width="4" height="5" rx="0.5" fill="#15803d" opacity="0.6"/>
<rect x="185.6" y="347.7" width="4" height="5" rx="0.5" fill="#15803d" opacity="0.6"/>
<rect x="196.5" y="347.7" width="4" height="5" rx="0.5" fill="#15803d" opacity="0.6"/>
<rect x="185.6" y="369.7" width="4" height="5" rx="0.5" fill="#15803d" opacity="0.6"/>
<rect x="196.5" y="369.7" width="4" height="5" rx="0.5" fill="#15803d" opacity="0.6"/>
<rect x="519.0" y="336.3" width="39.8" height="63.7" rx="5.0" fill="#7492e6" opacity="0.54"/>
<rect x="1014.4" y="319.7" width="46.4" height="80.3" rx="5.3" fill="#ced9f4" opacity="0.72"/>
<rect x="356.2" y="280.6" width="40.5" height="119.4" rx="5.0" fill="#f1f5f9" opacity="0.55"/>
<rect x="690.3" y="331.9" width="39.8" height="68.1" rx="6.1" fill="#a9bcee" opacity="0.85"/>
<rect x="346.1" y="284.3" width="16.5" height="115.7" rx="5.7" fill="#c1cff2" opacity="0.54"/>
<rect x="351.1" y="316.3" width="4" height="5" rx="0.5" fill="#15803d" opacity="0.6"/>
<rect x="351.1" y="360.3" width="4" height="5" rx="0.5" fill="#15803d" opacity="0.6"/>
<rect x="841.1" y="319.5" width="26.9" height="80.5" rx="6.3" fill="#7f9be7" opacity="0.79"/>
<rect x="846.1" y="329.5" width="4" height="5" rx="0.5" fill="#15803d" opacity="0.6"/>
<rect x="846.1" y="351.5" width="4" height="5" rx="0.5" fill="#15803d" opacity="0.6"/>
<rect x="846.1" y="373.5" width="4" height="5" rx="0.5" fill="#15803d" opacity="0.6"/>
<rect x="692.3" y="302.0" width="13.4" height="98.0" rx="5.0" fill="#9fb4ec" opacity="0.54"/>
<rect x="892.8" y="267.2" width="24.8" height="132.8" rx="3.3" fill="#9db3ec" opacity="0.80"/>
<rect x="392.5" y="317.8" width="39.7" height="82.2" rx="6.1" fill="#c8d5f3" opacity="0.81"/>
<rect x="727.8" y="339.2" width="36.8" height="60.8" rx="5.8" fill="#9db3ec" opacity="0.82"/>
<polygon points="1004.2,154.5 1000.1,161.6 1008.2,161.6" fill="#f1f5f9" opacity="0.32"/>
<polygon points="935.1,207.7 931.7,213.7 938.6,213.7" fill="#15803d" opacity="0.37"/>
<polygon points="636.9,233.7 632.0,242.1 641.7,242.1" fill="#15803d" opacity="0.41"/>
<polygon points="590.1,19.4 582.9,31.8 597.3,31.8" fill="#f1f5f9" opacity="0.42"/>
<rect width="1200" height="400" fill="url(#warm)"/>
<rect width="1200" height="400" fill="#15803d" opacity="0.40"/>
</svg>