<svg xmlns="http://www.w3.org/2000/svg" viewBox="0 0 1200 300" width="1200" height="300">
<defs><linearGradient id="skyGrad" x1="0" y1="0" x2="0" y2="1"><stop offset="0%" stop-color="#e0eaf4"/><stop offset="100%" stop-color="#f0f2f5"/></linearGradient></defs><rect width="1200" height="300" fill="url(#skyGrad)"/>
<path d="M477.2 210.0 Q589.5 127.7 637.7 127.7 Q685.8 127.7 798.2 210.0 Z" fill="#bbcbbe" opacity="0.5"/>
<path d="M101.0 210.0 Q193.6 123.5 233.2 123.5 Q272.9 123.5 365.4 210.0 Z" fill="#bbcbbe" opacity="0.5"/>
<path d="M398.5 180.0 Q500.2 47.5 532.3 47.5 Q564.4 47.5 666.1 180.0 Z" fill="#a5baaa" opacity="0.35"/>
<path d="M349.9 180.0 Q500.6 33.5 548.2 33.5 Q595.9 33.5 746.6 180.0 Z" fill="#a5baaa" opacity="0.35"/>
<rect x="0" y="232.3" width="1200" height="67.7" fill="#85acb7" opacity="0.6"/>
<path d="M0 249.2 Q75.0 250.8 150.0 251.2 Q225.0 247.4 300.0 247.2 Q375.0 250.0 450.0 247.6 Q525.0 252.0 600.0 249.2 Q675.0 249.2 750.0 250.1 Q825.0 249.2 900.0 247.8 Q975.0 249.1 1050.0 248.6 Q1125.0 251.1 1200.0 249.9" fill="none" stroke="#a1bfc8" stroke-width="1" opacity="0.4"/>
<path d="M0 266.1 Q75.0 264.9 150.0 266.4 Q225.0 264.1 300.0 265.2 Q375.0 263.3 450.0 266.8 Q525.0 263.9 600.0 265.7 Q675.0 264.4 750.0 265.7 Q825.0 266.7 900.0 264.7 Q975.0 263.2 1050.0 266.3 Q1125.0 265.4 1200.0 266.5" fill="none" stroke="#a1bfc8" stroke-width="1" opacity="0.4"/>
<path d="M0 283.1 Q75.0 282.3 150.0 281.5 Q225.0 280.3 300.0 282.3 Q375.0 286.0 450.0 284.7 Q525.0 284.3 600.0 281.5 Q675.0 281.8 750.0 281.1 Q825.0 282.3 900.0 285.0 Q975.0 285.4 1050.0 284.6 Q1125.0 283.2 1200.0 283.3" fill="none" stroke="#a1bfc8" stroke-width="1" opacity="0.4"/>
<rect x="148.8" y="189.0" width="65.9" height="111.0" fill="#92ab97"/>
<rect x="547.7" y="214.8" width="65.0" height="85.2" fill="#92ab97"/>
<rect x="559.1" y="199.8" width="42.3" height="15.0" fill="#8ba28f"/>
<rect x="939.8" y="170.9" width="64.4" height="129.1" fill="#92ab97"/>
<rect x="166.5" y="176.6" width="51.8" height="123.4" fill="#608567"/>
<rect x="182.4" y="188.6" width="6" height="8" fill="#98b09c" opacity="0.5"/>
<rect x="196.4" y="188.6" width="6" height="8" fill="#98b09c" opacity="0.5"/>
<rect x="196.4" y="204.6" width="6" height="8" fill="#98b09c" opacity="0.5"/>
<rect x="196.4" y="220.6" width="6" height="8" fill="#98b09c" opacity="0.5"/>
<rect x="182.4" y="236.6" width="6" height="8" fill="#98b09c" opacity="0.5"/>
<rect x="182.4" y="252.6" width="6" height="8" fill="#98b09c" opacity="0.5"/>
<rect x="182.4" y="268.6" width="6" height="8" fill="#98b09c" opacity="0.5"/>
<rect x="196.4" y="268.6" width="6" height="8" fill="#98b09c" opacity="0.5"/>
<rect x="427.5" y="111.1" width="43.0" height="188.9" fill="#608567"/>
<rect x="446.0" y="123.1" width="6" height="8" fill="#98b09c" opacity="0.5"/>
<rect x="446.0" y="139.1" width="6" height="8" fill="#98b09c" opacity="0.5"/>
<rect x="446.0" y="155.1" width="6" height="8" fill="#98b09c" opacity="0.5"/>
<rect x="446.0" y="171.1" width="6" height="8" fill="#98b09c" opacity="0.5"/>
<rect x="446.0" y="187.1" width="6" height="8" fill="#98b09c" opacity="0.5"/>
<rect x="446.0" y="203.1" width="6" height="8" fill="#98b09c" opacity="0.5"/>
<rect x="761.0" y="160.7" width="32.5" height="139.3" fill="#608567"/>
<rect x="774.2" y="172.7" width="6" height="8" fill="#98b09c" opacity="0.5"/>
<rect x="774.2" y="188.7" width="6" height="8" fill="#98b09c" opacity="0.5"/>
<rect x="774.2" y="204.7" width="6" height="8" fill="#98b09c" opacity="0.5"/>
<rect x="774.2" y="236.7" width="6" height="8" fill="#98b09c" opacity="0.5"/>
<rect x="774.2" y="252.7" width="6" height="8" fill="#98b09c" opacity="0.5"/>
<rect x="992.9" y="200.0" width="61.5" height="100.0" fill="#608567"/>
<rect x="1003.7" y="182.4" width="40.0" height="17.6" fill="#5b7e62"/>
<rect x="1006.7" y="194.4" width="6" height="8" fill="#98b09c" opacity="0.5"/>
<rect x="1034.7" y="194.4" width="6" height="8" fill="#98b09c" opacity="0.5"/>
<rect x="1020.7" y="210.4" width="6" height="8" fill="#98b09c" opacity="0.5"/>
<rect x="1034.7" y="210.4" width="6" height="8" fill="#98b09c" opacity="0.5"/>
<rect x="1020.7" y="226.4" width="6" height="8" fill="#98b09c" opacity="0.5"/>
<rect x="1034.7" y="226.4" width="6" height="8" fill="#98b09c" opacity="0.5"/>
<rect x="1020.7" y="242.4" width="6" height="8" fill="#98b09c" opacity="0.5"/>
<rect x="1034.7" y="242.4" width="6" height="8" fill="#98b09c" opacity="0.5"/>
<rect x="1020.7" y="258.4" width="6" height="8" fill="#98b09c" opacity="0.5"/>
<rect x="190.9" y="117.6" width="46.8" height="182.4" fill="#386641"/>
<rect x="204.4" y="129.6" width="6" height="8" fill="#7e9c84" opacity="0.5"/>
<rect x="218.4" y="129.6" width="6" height="8" fill="#7e9c84" opacity="0.5"/>
<rect x="218.4" y="145.6" width="6" height="8" fill="#7e9c84" opacity="0.5"/>
<rect x="204.4" y="161.6" width="6" height="8" fill="#7e9c84" opacity="0.5"/>
<rect x="218.4" y="161.6" width="6" height="8" fill="#7e9c84" opacity="0.5"/>
<rect x="204.4" y="177.6" width="6" height="8" fill="#7e9c84" opacity="0.5"/>
<rect x="218.4" y="177.6" width="6" height="8" fill="#7e9c84" opacity="0.5"/>
<rect x="204.4" y="193.6" width="6" height="8" fill="#7e9c84" opacity="0.5"/>
<rect x="204.4" y="209.6" width="6" height="8" fill="#7e9c84" opacity="0.5"/>
<rect x="543.5" y="176.2" width="55.0" height="123.8" fill="#386641"/>
<rect x="561.0" y="188.2" width="6" height="8" fill="#7e9c84" opacity="0.5"/>
<rect x="561.0" y="204.2" width="6" height="8" fill="#7e9c84" opacity="0.5"/>
<rect x="575.0" y="204.2" width="6" height="8" fill="#7e9c84" opacity="0.5"/>
<rect x="561.0" y="220.2" width="6" height="8" fill="#7e9c84" opacity="0.5"/>
<rect x="575.0" y="220.2" width="6" height="8" fill="#7e9c84" opacity="0.5"/>
<rect x="575.0" y="236.2" width="6" height="8" fill="#7e9c84" opacity="0.5"/>
<rect x="561.0" y="252.2" width="6" height="8" fill="#7e9c84" opacity="0.5"/>
<rect x="575.0" y="252.2" width="6" height="8" fill="#7e9c84" opacity="0.5"/>
<rect x="575.0" y="268.2" width="6" height="8" fill="#7e9c84" opacity="0.5"/>
<rect x="927.7" y="206.3" width="24.0" height="93.7" fill="#386641"/>
<rect x="936.7" y="266.3" width="6" height="8" fill="#7e9c84" opacity="0.5"/>
<line x1="390.7" y1="285.0" x2="390.7" y2="276.8" stroke="#5c4a32" stroke-width="3"/>
<polygon points="381.4,276.8 390.7,237.2 399.9,276.8" fill="#2a5424"/>
<line x1="763.1" y1="285.0" x2="763.1" y2="276.2" stroke="#5c4a32" stroke-width="3"/>
<polygon points="753.8,276.2 763.1,242.1 772.5,276.2" fill="#295324"/>
<line x1="158.5" y1="285.0" x2="158.5" y2="275.1" stroke="#5c4a32" stroke-width="3"/>
<polygon points="149.8,275.1 158.5,242.7 167.3,275.1" fill="#2c5826"/>
<line x1="1124.7" y1="285.0" x2="1124.7" y2="273.1" stroke="#5c4a32" stroke-width="3"/>
<polygon points="1116.8,273.1 1124.7,236.9 1132.6,273.1" fill="#2d5927"/>
<line x1="508.0" y1="285.0" x2="508.0" y2="274.1" stroke="#5c4a32" stroke-width="3"/>
<polygon points="499.9,274.1 508.0,242.5 516.2,274.1" fill="#295224"/>
<line x1="372.1" y1="285.0" x2="372.1" y2="275.8" stroke="#5c4a32" stroke-width="3"/>
<polygon points="363.2,275.8 372.1,233.4 380.9,275.8" fill="#295224"/>
<line x1="311.5" y1="285.0" x2="311.5" y2="273.1" stroke="#5c4a32" stroke-width="3"/>
<polygon points="302.3,273.1 311.5,239.5 320.7,273.1" fill="#295324"/>
<rect x="0" y="285" width="1200" height="15" fill="#d4c5a9" opacity="0.4"/>
<ellipse cx="619.8" cy="53.1" rx="110.2" ry="12.5" fill="#c8c8c8" opacity="0.15"/>
<ellipse cx="668.0" cy="24.0" rx="112.5" ry="21.7" fill="#c8c8c8" opacity="0.15"/>
</svg>