<svg xmlns="http://www.w3.org/2000/svg" viewBox="0 0 1200 300" width="1200" height="300">
<rect width="1200" height="300" fill="#e0eff2"/>
<path d="M0 300 L0 210.0 C331.0 184.1, 902.0 180.7, 1200 210.0 L1200 300 Z" fill="#aac2c9" opacity="0.3"/>
<rect x="94.2" y="193.9" width="89.5" height="106.1" fill="#8aabb4"/>
<rect x="406.2" y="231.2" width="40.0" height="68.8" fill="#8aabb4"/>
<rect x="719.0" y="233.8" width="85.6" height="66.2" fill="#8aabb4"/>
<rect x="1012.0" y="230.6" width="62.8" height="69.4" fill="#8aabb4"/>
<rect x="115.2" y="203.9" width="55.2" height="96.1" fill="#558592"/>
<rect x="132.8" y="215.9" width="6" height="8" fill="#91b0b8" opacity="0.5"/>
<rect x="132.8" y="231.9" width="6" height="8" fill="#91b0b8" opacity="0.5"/>
<rect x="146.8" y="231.9" width="6" height="8" fill="#91b0b8" opacity="0.5"/>
<rect x="132.8" y="247.9" width="6" height="8" fill="#91b0b8" opacity="0.5"/>
<rect x="146.8" y="247.9" width="6" height="8" fill="#91b0b8" opacity="0.5"/>
<rect x="378.3" y="219.5" width="43.2" height="80.5" fill="#558592"/>
<rect x="396.9" y="231.5" width="6" height="8" fill="#91b0b8" opacity="0.5"/>
<rect x="396.9" y="247.5" width="6" height="8" fill="#91b0b8" opacity="0.5"/>
<rect x="396.9" y="263.5" width="6" height="8" fill="#91b0b8" opacity="0.5"/>
<rect x="577.1" y="209.5" width="40.6" height="90.5" fill="#558592"/>
<rect x="787.8" y="162.0" width="54.8" height="138.0" fill="#558592"/>
<rect x="805.1" y="174.0" width="6" height="8" fill="#91b0b8" opacity="0.5"/>
<rect x="805.1" y="190.0" width="6" height="8" fill="#91b0b8" opacity="0.5"/>
<rect x="805.1" y="206.0" width="6" height="8" fill="#91b0b8" opacity="0.5"/>
<rect x="819.1" y="206.0" width="6" height="8" fill="#91b0b8" opacity="0.5"/>
<rect x="805.1" y="222.0" width="6" height="8" fill="#91b0b8" opacity="0.5"/>
<rect x="819.1" y="222.0" width="6" height="8" fill="#91b0b8" opacity="0.5"/>
<rect x="805.1" y="238.0" width="6" height="8" fill="#91b0b8" opacity="0.5"/>
<rect x="819.1" y="238.0" width="6" height="8" fill="#91b0b8" opacity="0.5"/>
<rect x="805.1" y="254.0" width="6" height="8" fill="#91b0b8" opacity="0.5"/>
<rect x="805.1" y="270.0" width="6" height="8" fill="#91b0b8" opacity="0.5"/>
<rect x="819.1" y="270.0" width="6" height="8" fill="#91b0b8" opacity="0.5"/>
<rect x="1059.5" y="181.2" width="53.1" height="118.8" fill="#558592"/>
<rect x="1076.1" y="193.2" width="6" height="8" fill="#91b0b8" opacity="0.5"/>
<rect x="1090.1" y="193.2" width="6" height="8" fill="#91b0b8" opacity="0.5"/>
<rect x="1076.1" y="209.2" width="6" height="8" fill="#91b0b8" opacity="0.5"/>
<rect x="1090.1" y="209.2" width="6" height="8" fill="#91b0b8" opacity="0.5"/>
<rect x="1090.1" y="225.2" width="6" height="8" fill="#91b0b8" opacity="0.5"/>
<rect x="1090.1" y="241.2" width="6" height="8" fill="#91b0b8" opacity="0.5"/>
<rect x="1076.1" y="257.2" width="6" height="8" fill="#91b0b8" opacity="0.5"/>
<rect x="1090.1" y="257.2" width="6" height="8" fill="#91b0b8" opacity="0.5"/>
<rect x="1076.1" y="273.2" width="6" height="8" fill="#91b0b8" opacity="0.5"/>
<rect x="139.1" y="228.8" width="69.3" height="71.2" fill="#2b6777"/>
<rect x="156.8" y="240.8" width="6" height="8" fill="#759ca7" opacity="0.5"/>
<rect x="170.8" y="240.8" width="6" height="8" fill="#759ca7" opacity="0.5"/>
<rect x="184.8" y="240.8" width="6" height="8" fill="#759ca7" opacity="0.5"/>
<rect x="184.8" y="256.8" width="6" height="8" fill="#759ca7" opacity="0.5"/>
<rect x="156.8" y="272.8" width="6" height="8" fill="#759ca7" opacity="0.5"/>
<rect x="387.8" y="142.5" width="73.6" height="157.5" fill="#2b6777"/>
<rect x="400.6" y="154.5" width="6" height="8" fill="#759ca7" opacity="0.5"/>
<rect x="414.6" y="154.5" width="6" height="8" fill="#759ca7" opacity="0.5"/>
<rect x="428.6" y="154.5" width="6" height="8" fill="#759ca7" opacity="0.5"/>
<rect x="428.6" y="170.5" width="6" height="8" fill="#759ca7" opacity="0.5"/>
<rect x="442.6" y="170.5" width="6" height="8" fill="#759ca7" opacity="0.5"/>
<rect x="442.6" y="202.5" width="6" height="8" fill="#759ca7" opacity="0.5"/>
<rect x="400.6" y="218.5" width="6" height="8" fill="#759ca7" opacity="0.5"/>
<rect x="414.6" y="218.5" width="6" height="8" fill="#759ca7" opacity="0.5"/>
<rect x="428.6" y="218.5" width="6" height="8" fill="#759ca7" opacity="0.5"/>
<rect x="442.6" y="218.5" width="6" height="8" fill="#759ca7" opacity="0.5"/>
<rect x="414.6" y="234.5" width="6" height="8" fill="#759ca7" opacity="0.5"/>
<rect x="442.6" y="234.5" width="6" height="8" fill="#759ca7" opacity="0.5"/>
<rect x="414.6" y="266.5" width="6" height="8" fill="#759ca7" opacity="0.5"/>
<rect x="428.6" y="266.5" width="6" height="8" fill="#759ca7" opacity="0.5"/>
<rect x="758.0" y="191.9" width="44.2" height="108.1" fill="#2b6777"/>
<rect x="770.1" y="203.9" width="6" height="8" fill="#759ca7" opacity="0.5"/>
<rect x="784.1" y="203.9" width="6" height="8" fill="#759ca7" opacity="0.5"/>
<rect x="770.1" y="219.9" width="6" height="8" fill="#759ca7" opacity="0.5"/>
<rect x="784.1" y="219.9" width="6" height="8" fill="#759ca7" opacity="0.5"/>
<rect x="770.1" y="235.9" width="6" height="8" fill="#759ca7" opacity="0.5"/>
<rect x="784.1" y="235.9" width="6" height="8" fill="#759ca7" opacity="0.5"/>
<rect x="770.1" y="251.9" width="6" height="8" fill="#759ca7" opacity="0.5"/>
<rect x="784.1" y="251.9" width="6" height="8" fill="#759ca7" opacity="0.5"/>
<rect x="770.1" y="267.9" width="6" height="8" fill="#759ca7" opacity="0.5"/>
<rect x="784.1" y="267.9" width="6" height="8" fill="#759ca7" opacity="0.5"/>
<rect x="973.6" y="131.9" width="62.2" height="168.1" fill="#2b6777"/>
<rect x="987.8" y="143.9" width="6" height="8" fill="#759ca7" opacity="0.5"/>
<rect x="1015.8" y="143.9" width="6" height="8" fill="#759ca7" opacity="0.5"/>
<rect x="987.8" y="175.9" width="6" height="8" fill="#759ca7" opacity="0.5"/>
<rect x="1015.8" y="175.9" width="6" height="8" fill="#759ca7" opacity="0.5"/>
<rect x="987.8" y="191.9" width="6" height="8" fill="#759ca7" opacity="0.5"/>
<rect x="987.8" y="207.9" width="6" height="8" fill="#759ca7" opacity="0.5"/>
<rect x="1001.8" y="207.9" width="6" height="8" fill="#759ca7" opacity="0.5"/>
<rect x="1015.8" y="207.9" width="6" height="8" fill="#759ca7" opacity="0.5"/>
<rect x="987.8" y="223.9" width="6" height="8" fill="#759ca7" opacity="0.5"/>
<rect x="1015.8" y="223.9" width="6" height="8" fill="#759ca7" opacity="0.5"/>
<rect x="987.8" y="239.9" width="6" height="8" fill="#759ca7" opacity="0.5"/>
<rect x="1015.8" y="239.9" width="6" height="8" fill="#759ca7" opacity="0.5"/>
<rect x="1015.8" y="255.9" width="6" height="8" fill="#759ca7" opacity="0.5"/>
<rect x="1001.8" y="271.9" width="6" height="8" fill="#759ca7" opacity="0.5"/>
<rect x="0" y="298" width="1200" height="2" fill="#275d6b" opacity="0.15"/>
</svg>