<svg xmlns="http://www.w3.org/2000/svg" viewBox="0 0 1200 400" width="1200" height="400">
<defs>
<linearGradient id="bg" x1="0" y1="0" x2="0" y2="1"><stop offset="0%" stop-color="#94a3b8"/><stop offset="100%" stop-color="#0369a1"/></linearGradient>
<linearGradient id="warm" x1="0" y1="0" x2="1" y2="1"><stop offset="0%" stop-color="#858d98" stop-opacity="0.18"/><stop offset="100%" stop-color="#858d98" stop-opacity="0.06"/></linearGradient>
</defs>
<rect width="1200" height="400" fill="url(#bg)"/>
<path d="M0 400 L0 241.86969466672284 C60.0 234.6, 90.0 221.6, 150.0 228.6 C210.0 236.8, 240.0 249.0, 300.0 244.5 C360.0 236.7, 390.0 239.2, 450.0 240.0 C510.0 243.8, 540.0 250.0, 600.0 256.8 C660.0 255.7, 690.0 257.4, 750.0 257.7 C810.0 251.9, 840.0 218.9, 900.0 225.2 C960.0 233.4, 990.0 237.5, 1050.0 247.0 C1110.0 239.5, 1140.0 220.6, 1200.0 221.3 L1200 400 Z" fill="#367da9" opacity="0.45"/>
<path d="M0 400 L0 262.56650761665634 C52.5 257.4, 97.5 275.3, 150.0 268.2 C202.5 262.4, 247.5 268.7, 300.0 265.0 C352.5 262.3, 397.5 280.9, 450.0 274.3 C502.5 272.9, 547.5 270.5, 600.0 267.3 C652.5 263.3, 697.5 285.5, 750.0 280.7 C802.5 287.7, 847.5 262.3, 900.0 268.8 C952.5 269.0, 997.5 278.4, 1050.0 279.1 C1102.5 282.9, 1147.5 276.4, 1200.0 270.1 L1200 400 Z" fill="#0369a1" opacity="0.3"/>
<rect x="605.8" y="362.1" width="14.1" height="37.9" rx="7.8" fill="#048a78" opacity="0.54"/>
<rect x="273.4" y="358.1" width="13.5" height="41.9" rx="7.8" fill="#05936d" opacity="0.72"/>
<rect x="800.4" y="337.7" width="16.7" height="62.3" rx="5.9" fill="#048084" opacity="0.68"/>
<rect x="269.9" y="308.1" width="40.8" height="91.9" rx="6.2" fill="#04887a" opacity="0.80"/>
<rect x="288.5" y="318.1" width="4" height="5" rx="0.5" fill="#94a3b8" opacity="0.6"/>
<rect x="288.5" y="340.1" width="4" height="5" rx="0.5" fill="#94a3b8" opacity="0.6"/>
<rect x="288.5" y="362.1" width="4" height="5" rx="0.5" fill="#94a3b8" opacity="0.6"/>
<rect x="608.9" y="334.7" width="29.8" height="65.3" rx="3.3" fill="#047f86" opacity="0.68"/>
<rect x="340.4" y="367.2" width="23.3" height="32.8" rx="7.3" fill="#047d88" opacity="0.52"/>
<rect x="991.2" y="323.2" width="19.6" height="76.8" rx="6.2" fill="#05926e" opacity="0.53"/>
<rect x="850.7" y="320.0" width="20.3" height="80.0" rx="3.4" fill="#05936d" opacity="0.51"/>
<rect x="299.1" y="347.0" width="13.0" height="53.0" rx="3.2" fill="#04857e" opacity="0.71"/>
<rect x="634.0" y="270.5" width="26.7" height="129.5" rx="3.1" fill="#058d75" opacity="0.57"/>
<rect x="683.9" y="337.8" width="17.9" height="62.2" rx="3.4" fill="#047f86" opacity="0.68"/>
<rect x="907.7" y="332.1" width="22.4" height="67.9" rx="6.9" fill="#048a78" opacity="0.61"/>
<rect x="760.8" y="289.4" width="24.8" height="110.6" rx="3.5" fill="#058d75" opacity="0.50"/>
<circle cx="288.2" cy="110.5" r="4.1" fill="#94a3b8" opacity="0.38"/>
<circle cx="9.7" cy="35.1" r="10.3" fill="#94a3b8" opacity="0.36"/>
<circle cx="1171.8" cy="49.3" r="10.9" fill="#059669" opacity="0.42"/>
<circle cx="465.9" cy="51.1" r="3.2" fill="#059669" opacity="0.32"/>
<circle cx="944.9" cy="14.0" r="8.0" fill="#059669" opacity="0.24"/>
<rect width="1200" height="400" fill="url(#warm)"/>
<rect width="1200" height="400" fill="#94a3b8" opacity="0.40"/>
</svg>