<svg xmlns="http://www.w3.org/2000/svg" viewBox="0 0 1200 300" width="1200" height="300">
<defs>
<linearGradient id="skyGrad" x1="0" y1="0" x2="0" y2="1">
<stop offset="0%" stop-color="#a78bfa"/>
<stop offset="18%" stop-color="#ddb4f0"/>
<stop offset="35%" stop-color="#fda4af"/>
<stop offset="52%" stop-color="#fdba74"/>
<stop offset="72%" stop-color="#fef08a"/>
<stop offset="100%" stop-color="#fef9c3"/>
</linearGradient>
<linearGradient id="bldg_coral" x1="0" y1="0" x2="0" y2="1"><stop offset="0%" stop-color="#fecaca"/><stop offset="100%" stop-color="#fca5a5"/></linearGradient>
<linearGradient id="bldg_teal" x1="0" y1="0" x2="0" y2="1"><stop offset="0%" stop-color="#99f6e4"/><stop offset="100%" stop-color="#5eead4"/></linearGradient>
<linearGradient id="bldg_amber" x1="0" y1="0" x2="0" y2="1"><stop offset="0%" stop-color="#fde68a"/><stop offset="100%" stop-color="#fcd34d"/></linearGradient>
<linearGradient id="bldg_lavender" x1="0" y1="0" x2="0" y2="1"><stop offset="0%" stop-color="#ddd6fe"/><stop offset="100%" stop-color="#c4b5fd"/></linearGradient>
<linearGradient id="bldg_blue" x1="0" y1="0" x2="0" y2="1"><stop offset="0%" stop-color="#bfdbfe"/><stop offset="100%" stop-color="#93c5fd"/></linearGradient>
<linearGradient id="bldg_mint" x1="0" y1="0" x2="0" y2="1"><stop offset="0%" stop-color="#a7f3d0"/><stop offset="100%" stop-color="#6ee7b7"/></linearGradient>
<linearGradient id="bldg_rose" x1="0" y1="0" x2="0" y2="1"><stop offset="0%" stop-color="#fecdd3"/><stop offset="100%" stop-color="#fda4af"/></linearGradient>
<linearGradient id="bldg_sky" x1="0" y1="0" x2="0" y2="1"><stop offset="0%" stop-color="#bae6fd"/><stop offset="100%" stop-color="#7dd3fc"/></linearGradient>
<linearGradient id="roof_navyRoof" x1="0" y1="0" x2="0" y2="1"><stop offset="0%" stop-color="#4338ca"/><stop offset="100%" stop-color="#3730a3"/></linearGradient>
<linearGradient id="roof_coralRoof" x1="0" y1="0" x2="0" y2="1"><stop offset="0%" stop-color="#f87171"/><stop offset="100%" stop-color="#ef4444"/></linearGradient>
<linearGradient id="roof_tealRoof" x1="0" y1="0" x2="0" y2="1"><stop offset="0%" stop-color="#2dd4bf"/><stop offset="100%" stop-color="#14b8a6"/></linearGradient>
<radialGradient id="windowGlow" cx="50%" cy="50%" r="50%"><stop offset="0%" stop-color="#fef08a"/><stop offset="60%" stop-color="#fbbf24"/><stop offset="100%" stop-color="#f59e0b"/></radialGradient>
<linearGradient id="hillFar" x1="0" y1="0" x2="0" y2="1"><stop offset="0%" stop-color="#c4b5fd"/><stop offset="100%" stop-color="#a5b4fc"/></linearGradient>
<linearGradient id="hillMid" x1="0" y1="0" x2="0" y2="1"><stop offset="0%" stop-color="#86efac"/><stop offset="100%" stop-color="#4ade80"/></linearGradient>
<linearGradient id="hillNear" x1="0" y1="0" x2="0" y2="1"><stop offset="0%" stop-color="#34d399"/><stop offset="100%" stop-color="#10b981"/></linearGradient>
<linearGradient id="hillDesertFar" x1="0" y1="0" x2="0" y2="1"><stop offset="0%" stop-color="#fde68a"/><stop offset="100%" stop-color="#fcd34d"/></linearGradient>
<linearGradient id="hillDesertMid" x1="0" y1="0" x2="0" y2="1"><stop offset="0%" stop-color="#fcd34d"/><stop offset="100%" stop-color="#fbbf24"/></linearGradient>
<linearGradient id="hillDesertNear" x1="0" y1="0" x2="0" y2="1"><stop offset="0%" stop-color="#fbbf24"/><stop offset="100%" stop-color="#f59e0b"/></linearGradient>
<linearGradient id="groundGrad" x1="0" y1="0" x2="0" y2="1"><stop offset="0%" stop-color="#fef3c7"/><stop offset="100%" stop-color="#fde68a"/></linearGradient>
<linearGradient id="waterGrad" x1="0" y1="0" x2="0" y2="1"><stop offset="0%" stop-color="#bfdbfe"/><stop offset="100%" stop-color="#93c5fd"/></linearGradient>
<filter id="softGlow" x="-50%" y="-50%" width="200%" height="200%"><feGaussianBlur in="SourceGraphic" stdDeviation="12"/></filter>
</defs>
<rect width="1200" height="300" fill="url(#skyGrad)"/>
<circle cx="1026.6" cy="52.9" r="45" fill="#fef08a" opacity="0.12" filter="url(#softGlow)"/>
<circle cx="1026.6" cy="52.9" r="30" fill="#fde68a" opacity="0.18" filter="url(#softGlow)"/>
<circle cx="1026.6" cy="52.9" r="16" fill="#fef9c3" opacity="0.25" filter="url(#softGlow)"/>
<path d="M0 300 L0.0 199.4 C190.2 199.4, 190.2 182.9, 380.3 182.9 C554.6 182.9, 554.6 182.6, 728.8 182.6 C964.4 182.6, 964.4 186.7, 1200.0 186.7 L1200 300 Z" fill="url(#hillFar)" opacity="0.5"/>
<path d="M0 300 L0.0 207.6 C156.1 207.6, 156.1 208.8, 312.2 208.8 C520.2 208.8, 520.2 205.3, 728.3 205.3 C964.1 205.3, 964.1 212.8, 1200.0 212.8 L1200 300 Z" fill="url(#hillMid)" opacity="0.7"/>
<path d="M0 300 L0.0 227.1 C176.6 227.1, 176.6 233.3, 353.1 233.3 C598.2 233.3, 598.2 235.6, 843.2 235.6 C1021.6 235.6, 1021.6 234.8, 1200.0 234.8 L1200 300 Z" fill="url(#hillNear)" opacity="1"/>
<rect x="177.7" y="232.9" width="49.9" height="67.1" rx="3" fill="url(#bldg_amber)" opacity="0.7"/>
<rect x="177.7" y="229.9" width="49.9" height="3" rx="1" fill="url(#roof_coralRoof)" opacity="0.7"/>
<rect x="192.6" y="242.9" width="6" height="8" rx="1" fill="url(#windowGlow)" opacity="0.7244801345860958"/>
<rect x="206.6" y="242.9" width="6" height="8" rx="1" fill="url(#windowGlow)" opacity="0.7717649306039163"/>
<rect x="192.6" y="257.9" width="6" height="8" rx="1" fill="url(#windowGlow)" opacity="0.8988345751999107"/>
<rect x="206.6" y="257.9" width="6" height="8" rx="1" fill="url(#windowGlow)" opacity="0.8354995862746143"/>
<rect x="553.4" y="199.7" width="60.8" height="100.3" rx="3" fill="url(#bldg_lavender)" opacity="0.7"/>
<rect x="565.6" y="187.6" width="36.5" height="12.0" rx="2" fill="url(#roof_tealRoof)" opacity="0.7"/>
<rect x="566.8" y="209.7" width="6" height="8" rx="1" fill="url(#windowGlow)" opacity="0.9362009876576256"/>
<rect x="580.8" y="209.7" width="6" height="8" rx="1" fill="url(#windowGlow)" opacity="0.8067813876582223"/>
<rect x="580.8" y="224.7" width="6" height="8" rx="1" fill="url(#windowGlow)" opacity="0.8775620343059124"/>
<rect x="594.8" y="224.7" width="6" height="8" rx="1" fill="url(#windowGlow)" opacity="0.9586832513374663"/>
<rect x="566.8" y="239.7" width="6" height="8" rx="1" fill="url(#windowGlow)" opacity="0.8321907013338947"/>
<rect x="580.8" y="239.7" width="6" height="8" rx="1" fill="url(#windowGlow)" opacity="0.9655482295274493"/>
<rect x="594.8" y="239.7" width="6" height="8" rx="1" fill="url(#windowGlow)" opacity="0.8592484263513462"/>
<rect x="594.8" y="254.7" width="6" height="8" rx="1" fill="url(#windowGlow)" opacity="0.7030955131180098"/>
<rect x="915.5" y="192.2" width="58.6" height="107.8" rx="3" fill="url(#bldg_blue)" opacity="0.7"/>
<rect x="915.5" y="189.2" width="58.6" height="3" rx="1" fill="url(#roof_navyRoof)" opacity="0.7"/>
<rect x="927.8" y="202.2" width="6" height="8" rx="1" fill="url(#windowGlow)" opacity="0.7412531305762254"/>
<rect x="955.8" y="202.2" width="6" height="8" rx="1" fill="url(#windowGlow)" opacity="0.8589051586384443"/>
<rect x="927.8" y="217.2" width="6" height="8" rx="1" fill="url(#windowGlow)" opacity="0.8120705149658353"/>
<rect x="941.8" y="217.2" width="6" height="8" rx="1" fill="url(#windowGlow)" opacity="0.80124823995924"/>
<rect x="955.8" y="217.2" width="6" height="8" rx="1" fill="url(#windowGlow)" opacity="0.8214633186913389"/>
<rect x="927.8" y="232.2" width="6" height="8" rx="1" fill="url(#windowGlow)" opacity="0.9760117152128422"/>
<rect x="941.8" y="232.2" width="6" height="8" rx="1" fill="url(#windowGlow)" opacity="0.9890805352894032"/>
<rect x="955.8" y="232.2" width="6" height="8" rx="1" fill="url(#windowGlow)" opacity="0.7686336925572872"/>
<rect x="927.8" y="247.2" width="6" height="8" rx="1" fill="url(#windowGlow)" opacity="0.8172925697254447"/>
<rect x="941.8" y="247.2" width="6" height="8" rx="1" fill="url(#windowGlow)" opacity="0.8324958537390902"/>
<rect x="955.8" y="247.2" width="6" height="8" rx="1" fill="url(#windowGlow)" opacity="0.7979649140955717"/>
<rect x="139.1" y="231.3" width="64.7" height="68.7" rx="3" fill="url(#bldg_mint)" opacity="0.85"/>
<rect x="152.1" y="223.0" width="38.8" height="8.2" rx="2" fill="url(#roof_coralRoof)" opacity="0.85"/>
<rect x="168.5" y="241.3" width="6" height="8" rx="1" fill="url(#windowGlow)" opacity="0.8311959398590009"/>
<rect x="182.5" y="241.3" width="6" height="8" rx="1" fill="url(#windowGlow)" opacity="0.9314089507942129"/>
<rect x="154.5" y="256.3" width="6" height="8" rx="1" fill="url(#windowGlow)" opacity="0.9204218786304919"/>
<rect x="168.5" y="256.3" width="6" height="8" rx="1" fill="url(#windowGlow)" opacity="0.960780470008394"/>
<path d="M145.6 255.3 L171.5 255.3 L168.5 261.3 L148.6 261.3 Z" fill="url(#roof_navyRoof)" opacity="0.68"/>
<rect x="416.7" y="193.8" width="46.6" height="106.2" rx="3" fill="url(#bldg_rose)" opacity="0.85"/>
<rect x="426.0" y="181.1" width="28.0" height="12.7" rx="2" fill="url(#roof_tealRoof)" opacity="0.85"/>
<rect x="444.0" y="203.8" width="6" height="8" rx="1" fill="url(#windowGlow)" opacity="0.789702937933478"/>
<rect x="430.0" y="218.8" width="6" height="8" rx="1" fill="url(#windowGlow)" opacity="0.8192456946797881"/>
<rect x="444.0" y="218.8" width="6" height="8" rx="1" fill="url(#windowGlow)" opacity="0.8444332257120093"/>
<rect x="444.0" y="233.8" width="6" height="8" rx="1" fill="url(#windowGlow)" opacity="0.8385471556049525"/>
<rect x="430.0" y="248.8" width="6" height="8" rx="1" fill="url(#windowGlow)" opacity="0.7796171104906207"/>
<rect x="444.0" y="248.8" width="6" height="8" rx="1" fill="url(#windowGlow)" opacity="0.9994804950894232"/>
<rect x="721.2" y="214.2" width="54.7" height="85.8" rx="3" fill="url(#bldg_sky)" opacity="0.85"/>
<polygon points="721.2,214.2 748.5,199.7 775.9,214.2" fill="url(#roof_navyRoof)" opacity="0.85"/>
<rect x="738.5" y="224.2" width="6" height="8" rx="1" fill="url(#windowGlow)" opacity="0.9942450704957568"/>
<rect x="752.5" y="224.2" width="6" height="8" rx="1" fill="url(#windowGlow)" opacity="0.8244980701359446"/>
<rect x="738.5" y="239.2" width="6" height="8" rx="1" fill="url(#windowGlow)" opacity="0.7004844881130775"/>
<rect x="752.5" y="239.2" width="6" height="8" rx="1" fill="url(#windowGlow)" opacity="0.7583398966856021"/>
<rect x="738.5" y="254.2" width="6" height="8" rx="1" fill="url(#windowGlow)" opacity="0.7980973346150002"/>
<rect x="752.5" y="254.2" width="6" height="8" rx="1" fill="url(#windowGlow)" opacity="0.9565964719078487"/>
<path d="M748.5 244.2 L770.4 244.2 L767.4 250.2 L751.5 250.2 Z" fill="url(#roof_tealRoof)" opacity="0.68"/>
<rect x="1002.7" y="199.2" width="52.7" height="100.8" rx="3" fill="url(#bldg_coral)" opacity="0.85"/>
<rect x="1002.7" y="196.2" width="52.7" height="3" rx="1" fill="url(#roof_coralRoof)" opacity="0.85"/>
<rect x="1019.1" y="209.2" width="6" height="8" rx="1" fill="url(#windowGlow)" opacity="0.8028867475236239"/>
<rect x="1019.1" y="239.2" width="6" height="8" rx="1" fill="url(#windowGlow)" opacity="0.8968522847149764"/>
<rect x="1033.1" y="239.2" width="6" height="8" rx="1" fill="url(#windowGlow)" opacity="0.7164190462401225"/>
<rect x="1033.1" y="254.2" width="6" height="8" rx="1" fill="url(#windowGlow)" opacity="0.9920743368063467"/>
<rect x="202.5" y="146.0" width="56.7" height="154.0" rx="3" fill="url(#bldg_teal)" opacity="1"/>
<polygon points="202.5,146.0 230.8,130.5 259.2,146.0" fill="url(#roof_tealRoof)" opacity="1"/>
<rect x="220.8" y="156.0" width="6" height="8" rx="1" fill="url(#windowGlow)" opacity="0.8425155404221805"/>
<rect x="220.8" y="171.0" width="6" height="8" rx="1" fill="url(#windowGlow)" opacity="0.7369642215021719"/>
<rect x="234.8" y="171.0" width="6" height="8" rx="1" fill="url(#windowGlow)" opacity="0.7265903336119792"/>
<rect x="220.8" y="186.0" width="6" height="8" rx="1" fill="url(#windowGlow)" opacity="0.7833868205935632"/>
<rect x="234.8" y="186.0" width="6" height="8" rx="1" fill="url(#windowGlow)" opacity="0.7515355239862276"/>
<rect x="234.8" y="201.0" width="6" height="8" rx="1" fill="url(#windowGlow)" opacity="0.7524495427275306"/>
<rect x="220.8" y="216.0" width="6" height="8" rx="1" fill="url(#windowGlow)" opacity="0.9453744415870748"/>
<rect x="220.8" y="231.0" width="6" height="8" rx="1" fill="url(#windowGlow)" opacity="0.7040479040723516"/>
<rect x="234.8" y="231.0" width="6" height="8" rx="1" fill="url(#windowGlow)" opacity="0.9617401789230016"/>
<rect x="234.8" y="246.0" width="6" height="8" rx="1" fill="url(#windowGlow)" opacity="0.998367069753989"/>
<rect x="225.8" y="284.0" width="10" height="16" rx="2" fill="url(#roof_navyRoof)" opacity="0.8"/>
<rect x="227.8" y="287.0" width="6" height="10" rx="1" fill="url(#windowGlow)" opacity="0.45"/>
<rect x="556.3" y="160.7" width="63.8" height="139.3" rx="3" fill="url(#bldg_amber)" opacity="1"/>
<polygon points="556.3,160.7 588.2,139.5 620.1,160.7" fill="url(#roof_navyRoof)" opacity="1"/>
<rect x="571.2" y="170.7" width="6" height="8" rx="1" fill="url(#windowGlow)" opacity="0.9880296437014031"/>
<rect x="585.2" y="170.7" width="6" height="8" rx="1" fill="url(#windowGlow)" opacity="0.8429001655629371"/>
<rect x="571.2" y="185.7" width="6" height="8" rx="1" fill="url(#windowGlow)" opacity="0.9107557684233205"/>
<rect x="585.2" y="185.7" width="6" height="8" rx="1" fill="url(#windowGlow)" opacity="0.960628789970944"/>
<rect x="599.2" y="185.7" width="6" height="8" rx="1" fill="url(#windowGlow)" opacity="0.743347760775754"/>
<rect x="571.2" y="200.7" width="6" height="8" rx="1" fill="url(#windowGlow)" opacity="0.7370976373726025"/>
<rect x="585.2" y="200.7" width="6" height="8" rx="1" fill="url(#windowGlow)" opacity="0.8078521009105499"/>
<rect x="599.2" y="200.7" width="6" height="8" rx="1" fill="url(#windowGlow)" opacity="0.8829281686725692"/>
<rect x="585.2" y="215.7" width="6" height="8" rx="1" fill="url(#windowGlow)" opacity="0.9705815960516135"/>
<rect x="599.2" y="215.7" width="6" height="8" rx="1" fill="url(#windowGlow)" opacity="0.8703108857713224"/>
<rect x="571.2" y="230.7" width="6" height="8" rx="1" fill="url(#windowGlow)" opacity="0.7644672626464009"/>
<rect x="585.2" y="230.7" width="6" height="8" rx="1" fill="url(#windowGlow)" opacity="0.8467612386898888"/>
<rect x="599.2" y="230.7" width="6" height="8" rx="1" fill="url(#windowGlow)" opacity="0.9023711354017123"/>
<rect x="571.2" y="245.7" width="6" height="8" rx="1" fill="url(#windowGlow)" opacity="0.749388625356084"/>
<rect x="599.2" y="245.7" width="6" height="8" rx="1" fill="url(#windowGlow)" opacity="0.7431875577397586"/>
<rect x="585.2" y="260.7" width="6" height="8" rx="1" fill="url(#windowGlow)" opacity="0.9565773022158897"/>
<rect x="599.2" y="260.7" width="6" height="8" rx="1" fill="url(#windowGlow)" opacity="0.7545350882013026"/>
<rect x="583.2" y="284.0" width="10" height="16" rx="2" fill="url(#roof_navyRoof)" opacity="0.8"/>
<rect x="585.2" y="287.0" width="6" height="10" rx="1" fill="url(#windowGlow)" opacity="0.45"/>
<path d="M562.7 209.4 L588.2 209.4 L585.2 215.4 L565.7 215.4 Z" fill="url(#roof_tealRoof)" opacity="0.8"/>
<rect x="924.4" y="186.1" width="50.5" height="113.9" rx="3" fill="url(#bldg_lavender)" opacity="1"/>
<polygon points="924.4,186.1 949.7,171.6 974.9,186.1" fill="url(#roof_coralRoof)" opacity="1"/>
<rect x="939.7" y="196.1" width="6" height="8" rx="1" fill="url(#windowGlow)" opacity="0.7504029900070294"/>
<rect x="953.7" y="196.1" width="6" height="8" rx="1" fill="url(#windowGlow)" opacity="0.9061530452250284"/>
<rect x="939.7" y="211.1" width="6" height="8" rx="1" fill="url(#windowGlow)" opacity="0.8429084165687246"/>
<rect x="953.7" y="211.1" width="6" height="8" rx="1" fill="url(#windowGlow)" opacity="0.725910649553831"/>
<rect x="939.7" y="226.1" width="6" height="8" rx="1" fill="url(#windowGlow)" opacity="0.9654840973510799"/>
<rect x="953.7" y="226.1" width="6" height="8" rx="1" fill="url(#windowGlow)" opacity="0.9062307901709483"/>
<rect x="939.7" y="241.1" width="6" height="8" rx="1" fill="url(#windowGlow)" opacity="0.8185415903658334"/>
<rect x="953.7" y="241.1" width="6" height="8" rx="1" fill="url(#windowGlow)" opacity="0.9346843725231868"/>
<rect x="953.7" y="256.1" width="6" height="8" rx="1" fill="url(#windowGlow)" opacity="0.7961004084889313"/>
<rect x="944.7" y="284.0" width="10" height="16" rx="2" fill="url(#roof_navyRoof)" opacity="0.8"/>
<rect x="946.7" y="287.0" width="6" height="10" rx="1" fill="url(#windowGlow)" opacity="0.45"/>
<path d="M407.7 285.0 Q429.5 257.7 420.8 230.3" stroke="#92400e" stroke-width="4" fill="none" stroke-linecap="round"/>
<path d="M420.8 230.3 Q410.8 220.2 404.2 221.2" stroke="#16a34a" stroke-width="2.5" fill="none" stroke-linecap="round"/>
<path d="M420.8 230.3 Q425.6 219.5 428.9 219.6" stroke="#22c55e" stroke-width="2.5" fill="none" stroke-linecap="round"/>
<path d="M420.8 230.3 Q439.8 224.3 452.6 230.3" stroke="#15803d" stroke-width="2.5" fill="none" stroke-linecap="round"/>
<path d="M420.8 230.3 Q427.5 231.1 431.9 245.2" stroke="#4ade80" stroke-width="2.5" fill="none" stroke-linecap="round"/>
<path d="M420.8 230.3 Q410.8 228.5 404.2 239.4" stroke="#16a34a" stroke-width="2.5" fill="none" stroke-linecap="round"/>
<path d="M772.3 285.0 Q793.2 254.8 784.8 224.7" stroke="#92400e" stroke-width="4" fill="none" stroke-linecap="round"/>
<path d="M784.8 224.7 Q771.0 212.9 761.8 212.0" stroke="#16a34a" stroke-width="2.5" fill="none" stroke-linecap="round"/>
<path d="M784.8 224.7 Q789.6 213.8 792.8 214.1" stroke="#22c55e" stroke-width="2.5" fill="none" stroke-linecap="round"/>
<path d="M784.8 224.7 Q798.9 218.7 808.3 224.7" stroke="#15803d" stroke-width="2.5" fill="none" stroke-linecap="round"/>
<path d="M784.8 224.7 Q790.5 224.4 794.3 237.2" stroke="#4ade80" stroke-width="2.5" fill="none" stroke-linecap="round"/>
<path d="M784.8 224.7 Q770.4 224.7 760.8 237.9" stroke="#16a34a" stroke-width="2.5" fill="none" stroke-linecap="round"/>
<path d="M170.4 285.0 Q198.4 258.5 187.2 232.1" stroke="#92400e" stroke-width="4" fill="none" stroke-linecap="round"/>
<path d="M187.2 232.1 Q175.0 221.0 166.8 220.9" stroke="#16a34a" stroke-width="2.5" fill="none" stroke-linecap="round"/>
<path d="M187.2 232.1 Q193.4 219.8 197.5 218.4" stroke="#22c55e" stroke-width="2.5" fill="none" stroke-linecap="round"/>
<path d="M187.2 232.1 Q200.7 226.1 209.7 232.1" stroke="#15803d" stroke-width="2.5" fill="none" stroke-linecap="round"/>
<path d="M187.2 232.1 Q194.1 233.0 198.6 247.2" stroke="#4ade80" stroke-width="2.5" fill="none" stroke-linecap="round"/>
<path d="M187.2 232.1 Q175.4 231.0 167.6 242.9" stroke="#16a34a" stroke-width="2.5" fill="none" stroke-linecap="round"/>
<path d="M998.5 285.0 Q1025.9 257.1 1014.9 229.2" stroke="#92400e" stroke-width="4" fill="none" stroke-linecap="round"/>
<path d="M1014.9 229.2 Q1001.8 217.8 993.1 217.2" stroke="#16a34a" stroke-width="2.5" fill="none" stroke-linecap="round"/>
<path d="M1014.9 229.2 Q1021.7 216.4 1026.2 214.3" stroke="#22c55e" stroke-width="2.5" fill="none" stroke-linecap="round"/>
<path d="M1014.9 229.2 Q1033.5 223.2 1045.9 229.2" stroke="#15803d" stroke-width="2.5" fill="none" stroke-linecap="round"/>
<path d="M1014.9 229.2 Q1021.8 230.2 1026.4 244.4" stroke="#4ade80" stroke-width="2.5" fill="none" stroke-linecap="round"/>
<path d="M1014.9 229.2 Q1002.6 228.4 994.4 240.5" stroke="#16a34a" stroke-width="2.5" fill="none" stroke-linecap="round"/>
<path d="M922.0 285.0 Q939.3 257.3 932.4 229.6" stroke="#92400e" stroke-width="4" fill="none" stroke-linecap="round"/>
<path d="M932.4 229.6 Q922.4 219.4 915.7 220.4" stroke="#16a34a" stroke-width="2.5" fill="none" stroke-linecap="round"/>
<path d="M932.4 229.6 Q937.4 218.6 940.8 218.5" stroke="#22c55e" stroke-width="2.5" fill="none" stroke-linecap="round"/>
<path d="M932.4 229.6 Q951.1 223.6 963.6 229.6" stroke="#15803d" stroke-width="2.5" fill="none" stroke-linecap="round"/>
<path d="M932.4 229.6 Q939.0 230.2 943.4 244.2" stroke="#4ade80" stroke-width="2.5" fill="none" stroke-linecap="round"/>
<path d="M932.4 229.6 Q918.7 229.3 909.6 242.1" stroke="#16a34a" stroke-width="2.5" fill="none" stroke-linecap="round"/>
<path d="M124.2 285.0 Q145.6 261.8 137.0 238.6" stroke="#92400e" stroke-width="4" fill="none" stroke-linecap="round"/>
<path d="M137.0 238.6 Q124.5 227.3 116.1 227.1" stroke="#16a34a" stroke-width="2.5" fill="none" stroke-linecap="round"/>
<path d="M137.0 238.6 Q142.9 226.7 146.8 225.6" stroke="#22c55e" stroke-width="2.5" fill="none" stroke-linecap="round"/>
<path d="M137.0 238.6 Q154.2 232.6 165.7 238.6" stroke="#15803d" stroke-width="2.5" fill="none" stroke-linecap="round"/>
<path d="M137.0 238.6 Q141.8 237.3 144.9 249.1" stroke="#4ade80" stroke-width="2.5" fill="none" stroke-linecap="round"/>
<path d="M137.0 238.6 Q126.8 236.8 120.1 247.9" stroke="#16a34a" stroke-width="2.5" fill="none" stroke-linecap="round"/>
<path d="M93.3 285.0 Q121.2 263.9 110.1 242.7" stroke="#92400e" stroke-width="4" fill="none" stroke-linecap="round"/>
<path d="M110.1 242.7 Q100.7 232.8 94.4 234.1" stroke="#16a34a" stroke-width="2.5" fill="none" stroke-linecap="round"/>
<path d="M110.1 242.7 Q116.8 230.0 121.3 227.9" stroke="#22c55e" stroke-width="2.5" fill="none" stroke-linecap="round"/>
<path d="M110.1 242.7 Q128.4 236.7 140.6 242.7" stroke="#15803d" stroke-width="2.5" fill="none" stroke-linecap="round"/>
<path d="M110.1 242.7 Q115.6 242.3 119.3 255.0" stroke="#4ade80" stroke-width="2.5" fill="none" stroke-linecap="round"/>
<path d="M110.1 242.7 Q96.8 242.3 87.9 255.0" stroke="#16a34a" stroke-width="2.5" fill="none" stroke-linecap="round"/>
<path d="M273.4 285.0 Q299.2 254.2 288.9 223.3" stroke="#92400e" stroke-width="4" fill="none" stroke-linecap="round"/>
<path d="M288.9 223.3 Q276.5 212.2 268.2 212.0" stroke="#16a34a" stroke-width="2.5" fill="none" stroke-linecap="round"/>
<path d="M288.9 223.3 Q294.4 211.8 298.1 211.1" stroke="#22c55e" stroke-width="2.5" fill="none" stroke-linecap="round"/>
<path d="M288.9 223.3 Q302.1 217.3 310.9 223.3" stroke="#15803d" stroke-width="2.5" fill="none" stroke-linecap="round"/>
<path d="M288.9 223.3 Q296.2 224.7 301.1 239.6" stroke="#4ade80" stroke-width="2.5" fill="none" stroke-linecap="round"/>
<path d="M288.9 223.3 Q278.0 221.9 270.7 233.3" stroke="#16a34a" stroke-width="2.5" fill="none" stroke-linecap="round"/>
<path d="M1027.3 285.0 Q1051.8 258.6 1042.0 232.3" stroke="#92400e" stroke-width="4" fill="none" stroke-linecap="round"/>
<path d="M1042.0 232.3 Q1031.5 221.9 1024.5 222.7" stroke="#16a34a" stroke-width="2.5" fill="none" stroke-linecap="round"/>
<path d="M1042.0 232.3 Q1048.7 219.6 1053.2 217.5" stroke="#22c55e" stroke-width="2.5" fill="none" stroke-linecap="round"/>
<path d="M1042.0 232.3 Q1060.7 226.3 1073.2 232.3" stroke="#15803d" stroke-width="2.5" fill="none" stroke-linecap="round"/>
<path d="M1042.0 232.3 Q1048.5 232.8 1052.8 246.6" stroke="#4ade80" stroke-width="2.5" fill="none" stroke-linecap="round"/>
<path d="M1042.0 232.3 Q1029.7 231.4 1021.5 243.6" stroke="#16a34a" stroke-width="2.5" fill="none" stroke-linecap="round"/>
<path d="M511.7 285.0 Q527.4 253.2 521.1 221.3" stroke="#92400e" stroke-width="4" fill="none" stroke-linecap="round"/>
<path d="M521.1 221.3 Q507.8 209.8 498.8 209.1" stroke="#16a34a" stroke-width="2.5" fill="none" stroke-linecap="round"/>
<path d="M521.1 221.3 Q528.7 207.7 533.8 204.6" stroke="#22c55e" stroke-width="2.5" fill="none" stroke-linecap="round"/>
<path d="M521.1 221.3 Q537.4 215.3 548.2 221.3" stroke="#15803d" stroke-width="2.5" fill="none" stroke-linecap="round"/>
<path d="M521.1 221.3 Q528.9 223.1 534.1 238.5" stroke="#4ade80" stroke-width="2.5" fill="none" stroke-linecap="round"/>
<path d="M521.1 221.3 Q512.2 219.0 506.3 229.5" stroke="#16a34a" stroke-width="2.5" fill="none" stroke-linecap="round"/>
<rect x="0" y="282" width="1200" height="18" fill="url(#groundGrad)"/>
<line x1="1062.5" y1="282.0" x2="1062.5" y2="243.2" stroke="#92400e" stroke-width="2"/>
<circle cx="1062.5" cy="243.2" r="4" fill="#fef08a" opacity="0.6"/>
<circle cx="1062.5" cy="243.2" r="8" fill="#fef08a" opacity="0.15" filter="url(#softGlow)"/>
<line x1="818.6" y1="282.0" x2="818.6" y2="248.9" stroke="#92400e" stroke-width="2"/>
<circle cx="818.6" cy="248.9" r="4" fill="#fef08a" opacity="0.6"/>
<circle cx="818.6" cy="248.9" r="8" fill="#fef08a" opacity="0.15" filter="url(#softGlow)"/>
<ellipse cx="47.6" cy="282.0" rx="4.3" ry="3.0" fill="#22c55e" opacity="0.6"/>
<ellipse cx="1035.0" cy="282.0" rx="6.6" ry="4.6" fill="#22c55e" opacity="0.6"/>
<ellipse cx="549.4" cy="282.0" rx="4.5" ry="3.1" fill="#22c55e" opacity="0.6"/>
</svg>