<svg xmlns="http://www.w3.org/2000/svg" viewBox="0 0 1200 300" width="1200" height="300">
<defs>
<linearGradient id="skyGrad" x1="0" y1="0" x2="0" y2="1">
<stop offset="0%" stop-color="#818cf8"/>
<stop offset="20%" stop-color="#c4b5fd"/>
<stop offset="38%" stop-color="#fda4af"/>
<stop offset="55%" stop-color="#fdba74"/>
<stop offset="75%" stop-color="#fef08a"/>
<stop offset="100%" stop-color="#fef9c3"/>
</linearGradient>
<linearGradient id="bldg_coral" x1="0" y1="0" x2="0" y2="1"><stop offset="0%" stop-color="#fecaca"/><stop offset="100%" stop-color="#fca5a5"/></linearGradient>
<linearGradient id="bldg_teal" x1="0" y1="0" x2="0" y2="1"><stop offset="0%" stop-color="#99f6e4"/><stop offset="100%" stop-color="#5eead4"/></linearGradient>
<linearGradient id="bldg_amber" x1="0" y1="0" x2="0" y2="1"><stop offset="0%" stop-color="#fde68a"/><stop offset="100%" stop-color="#fcd34d"/></linearGradient>
<linearGradient id="bldg_lavender" x1="0" y1="0" x2="0" y2="1"><stop offset="0%" stop-color="#ddd6fe"/><stop offset="100%" stop-color="#c4b5fd"/></linearGradient>
<linearGradient id="bldg_blue" x1="0" y1="0" x2="0" y2="1"><stop offset="0%" stop-color="#bfdbfe"/><stop offset="100%" stop-color="#93c5fd"/></linearGradient>
<linearGradient id="bldg_mint" x1="0" y1="0" x2="0" y2="1"><stop offset="0%" stop-color="#a7f3d0"/><stop offset="100%" stop-color="#6ee7b7"/></linearGradient>
<linearGradient id="bldg_rose" x1="0" y1="0" x2="0" y2="1"><stop offset="0%" stop-color="#fecdd3"/><stop offset="100%" stop-color="#fda4af"/></linearGradient>
<linearGradient id="bldg_sky" x1="0" y1="0" x2="0" y2="1"><stop offset="0%" stop-color="#bae6fd"/><stop offset="100%" stop-color="#7dd3fc"/></linearGradient>
<linearGradient id="roof_navyRoof" x1="0" y1="0" x2="0" y2="1"><stop offset="0%" stop-color="#4338ca"/><stop offset="100%" stop-color="#3730a3"/></linearGradient>
<linearGradient id="roof_coralRoof" x1="0" y1="0" x2="0" y2="1"><stop offset="0%" stop-color="#f87171"/><stop offset="100%" stop-color="#ef4444"/></linearGradient>
<linearGradient id="roof_tealRoof" x1="0" y1="0" x2="0" y2="1"><stop offset="0%" stop-color="#2dd4bf"/><stop offset="100%" stop-color="#14b8a6"/></linearGradient>
<radialGradient id="windowGlow" cx="50%" cy="50%" r="50%"><stop offset="0%" stop-color="#fef08a"/><stop offset="60%" stop-color="#fbbf24"/><stop offset="100%" stop-color="#f59e0b"/></radialGradient>
<linearGradient id="hillFar" x1="0" y1="0" x2="0" y2="1"><stop offset="0%" stop-color="#c4b5fd"/><stop offset="100%" stop-color="#a5b4fc"/></linearGradient>
<linearGradient id="hillMid" x1="0" y1="0" x2="0" y2="1"><stop offset="0%" stop-color="#86efac"/><stop offset="100%" stop-color="#4ade80"/></linearGradient>
<linearGradient id="hillNear" x1="0" y1="0" x2="0" y2="1"><stop offset="0%" stop-color="#34d399"/><stop offset="100%" stop-color="#10b981"/></linearGradient>
<linearGradient id="hillDesertFar" x1="0" y1="0" x2="0" y2="1"><stop offset="0%" stop-color="#fde68a"/><stop offset="100%" stop-color="#fcd34d"/></linearGradient>
<linearGradient id="hillDesertMid" x1="0" y1="0" x2="0" y2="1"><stop offset="0%" stop-color="#fcd34d"/><stop offset="100%" stop-color="#fbbf24"/></linearGradient>
<linearGradient id="hillDesertNear" x1="0" y1="0" x2="0" y2="1"><stop offset="0%" stop-color="#fbbf24"/><stop offset="100%" stop-color="#f59e0b"/></linearGradient>
<linearGradient id="groundGrad" x1="0" y1="0" x2="0" y2="1"><stop offset="0%" stop-color="#fef3c7"/><stop offset="100%" stop-color="#fde68a"/></linearGradient>
<linearGradient id="waterGrad" x1="0" y1="0" x2="0" y2="1"><stop offset="0%" stop-color="#bfdbfe"/><stop offset="100%" stop-color="#93c5fd"/></linearGradient>
<filter id="softGlow" x="-50%" y="-50%" width="200%" height="200%"><feGaussianBlur in="SourceGraphic" stdDeviation="12"/></filter>
</defs>
<rect width="1200" height="300" fill="url(#skyGrad)"/>
<circle cx="904.5" cy="43.0" r="45" fill="#fef08a" opacity="0.12" filter="url(#softGlow)"/>
<circle cx="904.5" cy="43.0" r="30" fill="#fde68a" opacity="0.18" filter="url(#softGlow)"/>
<circle cx="904.5" cy="43.0" r="16" fill="#fef9c3" opacity="0.25" filter="url(#softGlow)"/>
<ellipse cx="594.1" cy="44.8" rx="48.3" ry="16.9" fill="white" opacity="0.5"/>
<ellipse cx="563.9" cy="49.6" rx="33.8" ry="13.3" fill="white" opacity="0.5"/>
<ellipse cx="620.7" cy="48.4" rx="38.6" ry="14.5" fill="white" opacity="0.5"/>
<ellipse cx="842.5" cy="23.2" rx="38.3" ry="13.4" fill="white" opacity="0.7"/>
<ellipse cx="818.5" cy="27.0" rx="26.8" ry="10.5" fill="white" opacity="0.6"/>
<ellipse cx="863.5" cy="26.1" rx="30.7" ry="11.5" fill="white" opacity="0.6"/>
<ellipse cx="562.7" cy="31.1" rx="37.7" ry="13.2" fill="white" opacity="0.6"/>
<ellipse cx="539.2" cy="34.9" rx="26.4" ry="10.4" fill="white" opacity="0.6"/>
<ellipse cx="583.4" cy="34.0" rx="30.2" ry="11.3" fill="white" opacity="0.5"/>
<path d="M0 300 L0.0 183.5 C117.7 183.5, 117.7 190.3, 235.4 190.3 C337.8 190.3, 337.8 179.1, 440.2 179.1 C562.5 179.1, 562.5 191.9, 684.9 191.9 C839.0 191.9, 839.0 187.9, 993.0 187.9 C1096.5 187.9, 1096.5 189.3, 1200.0 189.3 L1200 300 Z" fill="url(#hillFar)" opacity="0.5"/>
<path d="M0 300 L0.0 210.6 C247.6 210.6, 247.6 208.4, 495.2 208.4 C652.8 208.4, 652.8 209.4, 810.4 209.4 C1005.2 209.4, 1005.2 209.8, 1200.0 209.8 L1200 300 Z" fill="url(#hillMid)" opacity="0.7"/>
<path d="M0 300 L0.0 233.7 C112.9 233.7, 112.9 229.9, 225.7 229.9 C347.4 229.9, 347.4 236.1, 469.1 236.1 C603.0 236.1, 603.0 237.7, 736.8 237.7 C837.7 237.7, 837.7 237.6, 938.7 237.6 C1069.3 237.6, 1069.3 231.2, 1200.0 231.2 L1200 300 Z" fill="url(#hillNear)" opacity="1"/>
<rect x="210.1" y="225.8" width="52.0" height="74.2" rx="3" fill="url(#bldg_blue)" opacity="0.7"/>
<polygon points="210.1,225.8 236.1,208.8 262.2,225.8" fill="url(#roof_navyRoof)" opacity="0.7"/>
<rect x="226.1" y="235.8" width="6" height="8" rx="1" fill="url(#windowGlow)" opacity="0.9303683253612222"/>
<rect x="240.1" y="235.8" width="6" height="8" rx="1" fill="url(#windowGlow)" opacity="0.7776649393968587"/>
<rect x="226.1" y="250.8" width="6" height="8" rx="1" fill="url(#windowGlow)" opacity="0.8827282436577268"/>
<rect x="240.1" y="250.8" width="6" height="8" rx="1" fill="url(#windowGlow)" opacity="0.7109006582344419"/>
<rect x="601.7" y="199.6" width="86.5" height="100.4" rx="3" fill="url(#bldg_mint)" opacity="0.7"/>
<rect x="601.7" y="196.6" width="86.5" height="3" rx="1" fill="url(#roof_coralRoof)" opacity="0.7"/>
<rect x="620.9" y="209.6" width="6" height="8" rx="1" fill="url(#windowGlow)" opacity="0.8557006894404537"/>
<rect x="634.9" y="209.6" width="6" height="8" rx="1" fill="url(#windowGlow)" opacity="0.892509048614888"/>
<rect x="648.9" y="209.6" width="6" height="8" rx="1" fill="url(#windowGlow)" opacity="0.9109501344202785"/>
<rect x="662.9" y="209.6" width="6" height="8" rx="1" fill="url(#windowGlow)" opacity="0.9646904610398646"/>
<rect x="620.9" y="224.6" width="6" height="8" rx="1" fill="url(#windowGlow)" opacity="0.9427373762441507"/>
<rect x="634.9" y="224.6" width="6" height="8" rx="1" fill="url(#windowGlow)" opacity="0.779013570155489"/>
<rect x="648.9" y="224.6" width="6" height="8" rx="1" fill="url(#windowGlow)" opacity="0.7692771651173369"/>
<rect x="620.9" y="239.6" width="6" height="8" rx="1" fill="url(#windowGlow)" opacity="0.9263046121812912"/>
<rect x="634.9" y="239.6" width="6" height="8" rx="1" fill="url(#windowGlow)" opacity="0.9336918307159523"/>
<rect x="662.9" y="239.6" width="6" height="8" rx="1" fill="url(#windowGlow)" opacity="0.7110369537077085"/>
<rect x="634.9" y="254.6" width="6" height="8" rx="1" fill="url(#windowGlow)" opacity="0.8338210003608004"/>
<rect x="662.9" y="254.6" width="6" height="8" rx="1" fill="url(#windowGlow)" opacity="0.8924823058734099"/>
<rect x="987.8" y="199.8" width="47.5" height="100.2" rx="3" fill="url(#bldg_rose)" opacity="0.7"/>
<rect x="997.3" y="187.8" width="28.5" height="12.0" rx="2" fill="url(#roof_tealRoof)" opacity="0.7"/>
<rect x="1001.6" y="209.8" width="6" height="8" rx="1" fill="url(#windowGlow)" opacity="0.8695788606393984"/>
<rect x="1015.6" y="209.8" width="6" height="8" rx="1" fill="url(#windowGlow)" opacity="0.8499038039007707"/>
<rect x="1001.6" y="224.8" width="6" height="8" rx="1" fill="url(#windowGlow)" opacity="0.7039475773013883"/>
<rect x="1015.6" y="224.8" width="6" height="8" rx="1" fill="url(#windowGlow)" opacity="0.991190603836994"/>
<rect x="1001.6" y="239.8" width="6" height="8" rx="1" fill="url(#windowGlow)" opacity="0.9498655851696922"/>
<rect x="1015.6" y="239.8" width="6" height="8" rx="1" fill="url(#windowGlow)" opacity="0.9260220626955954"/>
<rect x="1015.6" y="254.8" width="6" height="8" rx="1" fill="url(#windowGlow)" opacity="0.7114002888143994"/>
<rect x="142.7" y="184.6" width="72.2" height="115.4" rx="3" fill="url(#bldg_sky)" opacity="0.85"/>
<polygon points="142.7,184.6 178.8,166.0 214.8,184.6" fill="url(#roof_navyRoof)" opacity="0.85"/>
<rect x="154.8" y="194.6" width="6" height="8" rx="1" fill="url(#windowGlow)" opacity="0.8401680323948003"/>
<rect x="182.8" y="194.6" width="6" height="8" rx="1" fill="url(#windowGlow)" opacity="0.7854049441336677"/>
<rect x="196.8" y="194.6" width="6" height="8" rx="1" fill="url(#windowGlow)" opacity="0.7433414574448678"/>
<rect x="154.8" y="209.6" width="6" height="8" rx="1" fill="url(#windowGlow)" opacity="0.9503448802746575"/>
<rect x="182.8" y="209.6" width="6" height="8" rx="1" fill="url(#windowGlow)" opacity="0.8854152771576378"/>
<rect x="196.8" y="209.6" width="6" height="8" rx="1" fill="url(#windowGlow)" opacity="0.8582986471980337"/>
<rect x="154.8" y="224.6" width="6" height="8" rx="1" fill="url(#windowGlow)" opacity="0.8292606905704647"/>
<rect x="168.8" y="224.6" width="6" height="8" rx="1" fill="url(#windowGlow)" opacity="0.8373234893834793"/>
<rect x="182.8" y="224.6" width="6" height="8" rx="1" fill="url(#windowGlow)" opacity="0.7909213094464136"/>
<rect x="196.8" y="224.6" width="6" height="8" rx="1" fill="url(#windowGlow)" opacity="0.9498994255670808"/>
<rect x="154.8" y="239.6" width="6" height="8" rx="1" fill="url(#windowGlow)" opacity="0.9196436834613064"/>
<rect x="182.8" y="239.6" width="6" height="8" rx="1" fill="url(#windowGlow)" opacity="0.7832895303067237"/>
<rect x="196.8" y="239.6" width="6" height="8" rx="1" fill="url(#windowGlow)" opacity="0.803209701275085"/>
<rect x="154.8" y="254.6" width="6" height="8" rx="1" fill="url(#windowGlow)" opacity="0.9272900999185116"/>
<rect x="168.8" y="254.6" width="6" height="8" rx="1" fill="url(#windowGlow)" opacity="0.8005831531251701"/>
<rect x="182.8" y="254.6" width="6" height="8" rx="1" fill="url(#windowGlow)" opacity="0.8398359960130584"/>
<rect x="196.8" y="254.6" width="6" height="8" rx="1" fill="url(#windowGlow)" opacity="0.7569611591086541"/>
<path d="M178.8 225.0 L207.6 225.0 L204.6 231.0 L181.8 231.0 Z" fill="url(#roof_tealRoof)" opacity="0.68"/>
<rect x="423.6" y="224.2" width="49.7" height="75.8" rx="3" fill="url(#bldg_coral)" opacity="0.85"/>
<polygon points="423.6,224.2 448.4,213.5 473.2,224.2" fill="url(#roof_coralRoof)" opacity="0.85"/>
<rect x="438.4" y="234.2" width="6" height="8" rx="1" fill="url(#windowGlow)" opacity="0.9903176057107362"/>
<rect x="452.4" y="234.2" width="6" height="8" rx="1" fill="url(#windowGlow)" opacity="0.8275121980474852"/>
<rect x="438.4" y="249.2" width="6" height="8" rx="1" fill="url(#windowGlow)" opacity="0.7212688944867202"/>
<rect x="724.8" y="194.2" width="57.3" height="105.8" rx="3" fill="url(#bldg_teal)" opacity="0.85"/>
<rect x="724.8" y="191.2" width="57.3" height="3" rx="1" fill="url(#roof_tealRoof)" opacity="0.85"/>
<rect x="743.4" y="204.2" width="6" height="8" rx="1" fill="url(#windowGlow)" opacity="0.9366151346995565"/>
<rect x="757.4" y="204.2" width="6" height="8" rx="1" fill="url(#windowGlow)" opacity="0.8476578959951446"/>
<rect x="743.4" y="234.2" width="6" height="8" rx="1" fill="url(#windowGlow)" opacity="0.9869702794062766"/>
<rect x="743.4" y="249.2" width="6" height="8" rx="1" fill="url(#windowGlow)" opacity="0.8065053896077468"/>
<rect x="757.4" y="249.2" width="6" height="8" rx="1" fill="url(#windowGlow)" opacity="0.8582192525538705"/>
<path d="M753.4 231.2 L776.4 231.2 L773.4 237.2 L756.4 237.2 Z" fill="url(#roof_coralRoof)" opacity="0.68"/>
<rect x="1018.7" y="181.3" width="68.0" height="118.7" rx="3" fill="url(#bldg_amber)" opacity="0.85"/>
<rect x="1032.3" y="167.0" width="40.8" height="14.2" rx="2" fill="url(#roof_navyRoof)" opacity="0.85"/>
<rect x="1035.7" y="191.3" width="6" height="8" rx="1" fill="url(#windowGlow)" opacity="0.76161384641268"/>
<rect x="1049.7" y="191.3" width="6" height="8" rx="1" fill="url(#windowGlow)" opacity="0.7268660009963744"/>
<rect x="1063.7" y="191.3" width="6" height="8" rx="1" fill="url(#windowGlow)" opacity="0.8449537803162604"/>
<rect x="1035.7" y="206.3" width="6" height="8" rx="1" fill="url(#windowGlow)" opacity="0.7772848635340504"/>
<rect x="1035.7" y="221.3" width="6" height="8" rx="1" fill="url(#windowGlow)" opacity="0.9991699545174697"/>
<rect x="1063.7" y="221.3" width="6" height="8" rx="1" fill="url(#windowGlow)" opacity="0.7283134339974789"/>
<rect x="1035.7" y="236.3" width="6" height="8" rx="1" fill="url(#windowGlow)" opacity="0.7919387413151276"/>
<rect x="1049.7" y="236.3" width="6" height="8" rx="1" fill="url(#windowGlow)" opacity="0.982667373671507"/>
<rect x="1063.7" y="236.3" width="6" height="8" rx="1" fill="url(#windowGlow)" opacity="0.8901959706517848"/>
<rect x="1035.7" y="251.3" width="6" height="8" rx="1" fill="url(#windowGlow)" opacity="0.7116416642962217"/>
<rect x="1049.7" y="251.3" width="6" height="8" rx="1" fill="url(#windowGlow)" opacity="0.7906164044470603"/>
<path d="M1025.5 222.8 L1052.7 222.8 L1049.7 228.8 L1028.5 228.8 Z" fill="url(#roof_tealRoof)" opacity="0.68"/>
<rect x="168.0" y="200.3" width="38.0" height="99.7" rx="3" fill="url(#bldg_lavender)" opacity="1"/>
<polygon points="168.0,200.3 187.0,191.0 206.0,200.3" fill="url(#roof_coralRoof)" opacity="1"/>
<rect x="184.0" y="210.3" width="6" height="8" rx="1" fill="url(#windowGlow)" opacity="0.9204103160744581"/>
<rect x="184.0" y="225.3" width="6" height="8" rx="1" fill="url(#windowGlow)" opacity="0.7392394533563589"/>
<rect x="184.0" y="240.3" width="6" height="8" rx="1" fill="url(#windowGlow)" opacity="0.7284198091497737"/>
<rect x="184.0" y="255.3" width="6" height="8" rx="1" fill="url(#windowGlow)" opacity="0.8286182199272412"/>
<rect x="182.0" y="284.0" width="10" height="16" rx="2" fill="url(#roof_navyRoof)" opacity="0.8"/>
<rect x="184.0" y="287.0" width="6" height="10" rx="1" fill="url(#windowGlow)" opacity="0.45"/>
<path d="M187.0 235.2 L202.2 235.2 L199.2 241.2 L190.0 241.2 Z" fill="url(#roof_navyRoof)" opacity="0.8"/>
<rect x="547.3" y="175.7" width="37.5" height="124.3" rx="3" fill="url(#bldg_blue)" opacity="1"/>
<rect x="547.3" y="172.7" width="37.5" height="3" rx="1" fill="url(#roof_tealRoof)" opacity="1"/>
<rect x="563.0" y="185.7" width="6" height="8" rx="1" fill="url(#windowGlow)" opacity="0.7612854671949918"/>
<rect x="563.0" y="200.7" width="6" height="8" rx="1" fill="url(#windowGlow)" opacity="0.7319626599699085"/>
<rect x="563.0" y="215.7" width="6" height="8" rx="1" fill="url(#windowGlow)" opacity="0.9768344384044569"/>
<rect x="563.0" y="230.7" width="6" height="8" rx="1" fill="url(#windowGlow)" opacity="0.7199852449912508"/>
<rect x="563.0" y="245.7" width="6" height="8" rx="1" fill="url(#windowGlow)" opacity="0.9591090182117694"/>
<rect x="563.0" y="260.7" width="6" height="8" rx="1" fill="url(#windowGlow)" opacity="0.9077344563825681"/>
<rect x="561.0" y="284.0" width="10" height="16" rx="2" fill="url(#roof_navyRoof)" opacity="0.8"/>
<rect x="563.0" y="287.0" width="6" height="10" rx="1" fill="url(#windowGlow)" opacity="0.45"/>
<path d="M551.0 219.2 L566.0 219.2 L563.0 225.2 L554.0 225.2 Z" fill="url(#roof_coralRoof)" opacity="0.8"/>
<rect x="983.6" y="191.3" width="52.6" height="108.7" rx="3" fill="url(#bldg_mint)" opacity="1"/>
<polygon points="983.6,191.3 1009.9,179.0 1036.2,191.3" fill="url(#roof_navyRoof)" opacity="1"/>
<rect x="999.9" y="216.3" width="6" height="8" rx="1" fill="url(#windowGlow)" opacity="0.8853411144974367"/>
<rect x="1013.9" y="216.3" width="6" height="8" rx="1" fill="url(#windowGlow)" opacity="0.832655521311171"/>
<rect x="999.9" y="231.3" width="6" height="8" rx="1" fill="url(#windowGlow)" opacity="0.7468895849524483"/>
<rect x="1013.9" y="231.3" width="6" height="8" rx="1" fill="url(#windowGlow)" opacity="0.8361317452211545"/>
<rect x="1013.9" y="246.3" width="6" height="8" rx="1" fill="url(#windowGlow)" opacity="0.8358472585379366"/>
<rect x="1004.9" y="284.0" width="10" height="16" rx="2" fill="url(#roof_navyRoof)" opacity="0.8"/>
<rect x="1006.9" y="287.0" width="6" height="10" rx="1" fill="url(#windowGlow)" opacity="0.45"/>
<path d="M988.9 229.3 L1009.9 229.3 L1006.9 235.3 L991.9 235.3 Z" fill="url(#roof_tealRoof)" opacity="0.8"/>
<rect x="373.7" y="263.2" width="6" height="21.8" rx="2" fill="#15803d"/>
<circle cx="376.7" cy="249.5" r="17.7" fill="#22c55e" opacity="0.9"/>
<circle cx="370.0" cy="252.5" r="13.3" fill="#16a34a" opacity="0.8"/>
<circle cx="381.9" cy="253.5" r="12.4" fill="#15803d" opacity="0.7"/>
<rect x="781.2" y="264.9" width="6" height="20.1" rx="2" fill="#15803d"/>
<circle cx="784.2" cy="255.7" r="13.1" fill="#22c55e" opacity="0.9"/>
<circle cx="777.6" cy="258.7" r="9.9" fill="#16a34a" opacity="0.8"/>
<circle cx="789.2" cy="259.7" r="9.2" fill="#15803d" opacity="0.7"/>
<rect x="140.2" y="266.6" width="6" height="18.4" rx="2" fill="#15803d"/>
<circle cx="143.2" cy="253.9" r="16.7" fill="#22c55e" opacity="0.9"/>
<circle cx="136.3" cy="256.9" r="12.5" fill="#16a34a" opacity="0.8"/>
<circle cx="150.6" cy="257.9" r="11.7" fill="#15803d" opacity="0.7"/>
<rect x="1068.6" y="265.3" width="6" height="19.7" rx="2" fill="#15803d"/>
<circle cx="1071.6" cy="253.0" r="16.3" fill="#22c55e" opacity="0.9"/>
<circle cx="1063.6" cy="256.0" r="12.2" fill="#16a34a" opacity="0.8"/>
<circle cx="1078.6" cy="257.0" r="11.4" fill="#15803d" opacity="0.7"/>
<rect x="60.9" y="267.9" width="6" height="17.1" rx="2" fill="#15803d"/>
<circle cx="63.9" cy="256.2" r="15.7" fill="#22c55e" opacity="0.9"/>
<circle cx="56.9" cy="259.2" r="11.8" fill="#16a34a" opacity="0.8"/>
<circle cx="70.2" cy="260.2" r="11.0" fill="#15803d" opacity="0.7"/>
<rect x="313.1" y="265.8" width="6" height="19.2" rx="2" fill="#15803d"/>
<circle cx="316.1" cy="256.4" r="13.4" fill="#22c55e" opacity="0.9"/>
<circle cx="307.7" cy="259.4" r="10.0" fill="#16a34a" opacity="0.8"/>
<circle cx="324.0" cy="260.4" r="9.4" fill="#15803d" opacity="0.7"/>
<rect x="1052.8" y="268.0" width="6" height="17.0" rx="2" fill="#15803d"/>
<circle cx="1055.8" cy="257.5" r="14.5" fill="#22c55e" opacity="0.9"/>
<circle cx="1049.6" cy="260.5" r="10.9" fill="#16a34a" opacity="0.8"/>
<circle cx="1061.4" cy="261.5" r="10.2" fill="#15803d" opacity="0.7"/>
<rect x="905.4" y="267.0" width="6" height="18.0" rx="2" fill="#15803d"/>
<circle cx="908.4" cy="257.4" r="13.6" fill="#22c55e" opacity="0.9"/>
<circle cx="900.2" cy="260.4" r="10.2" fill="#16a34a" opacity="0.8"/>
<circle cx="913.4" cy="261.4" r="9.5" fill="#15803d" opacity="0.7"/>
<rect x="782.0" y="263.3" width="6" height="21.7" rx="2" fill="#15803d"/>
<circle cx="785.0" cy="249.3" r="18.0" fill="#22c55e" opacity="0.9"/>
<circle cx="778.4" cy="252.3" r="13.5" fill="#16a34a" opacity="0.8"/>
<circle cx="792.4" cy="253.3" r="12.6" fill="#15803d" opacity="0.7"/>
<rect x="0" y="282" width="1200" height="18" fill="url(#groundGrad)"/>
<line x1="452.8" y1="282.0" x2="452.8" y2="249.5" stroke="#92400e" stroke-width="2"/>
<circle cx="452.8" cy="249.5" r="4" fill="#fef08a" opacity="0.6"/>
<circle cx="452.8" cy="249.5" r="8" fill="#fef08a" opacity="0.15" filter="url(#softGlow)"/>
<ellipse cx="489.2" cy="282.0" rx="6.3" ry="4.4" fill="#22c55e" opacity="0.6"/>
<ellipse cx="37.4" cy="282.0" rx="7.0" ry="4.9" fill="#22c55e" opacity="0.6"/>
</svg>