<svg xmlns="http://www.w3.org/2000/svg" viewBox="0 0 1200 300" width="1200" height="300">
<rect width="1200" height="300" fill="#e0eff2"/>
<path d="M0 300 L0 210.0 C228.0 177.0, 973.1 196.5, 1200 210.0 L1200 300 Z" fill="#aac2c9" opacity="0.3"/>
<rect x="134.6" y="148.3" width="53.2" height="151.7" fill="#8aabb4"/>
<rect x="365.7" y="210.8" width="47.8" height="89.2" fill="#8aabb4"/>
<rect x="580.8" y="177.6" width="63.3" height="122.4" fill="#8aabb4"/>
<rect x="772.5" y="160.1" width="85.8" height="139.9" fill="#8aabb4"/>
<rect x="1021.8" y="212.0" width="47.7" height="88.0" fill="#8aabb4"/>
<rect x="127.6" y="126.0" width="51.6" height="174.0" fill="#558592"/>
<rect x="157.4" y="154.0" width="6" height="8" fill="#91b0b8" opacity="0.5"/>
<rect x="143.4" y="170.0" width="6" height="8" fill="#91b0b8" opacity="0.5"/>
<rect x="157.4" y="170.0" width="6" height="8" fill="#91b0b8" opacity="0.5"/>
<rect x="143.4" y="186.0" width="6" height="8" fill="#91b0b8" opacity="0.5"/>
<rect x="157.4" y="186.0" width="6" height="8" fill="#91b0b8" opacity="0.5"/>
<rect x="143.4" y="202.0" width="6" height="8" fill="#91b0b8" opacity="0.5"/>
<rect x="157.4" y="218.0" width="6" height="8" fill="#91b0b8" opacity="0.5"/>
<rect x="143.4" y="234.0" width="6" height="8" fill="#91b0b8" opacity="0.5"/>
<rect x="157.4" y="234.0" width="6" height="8" fill="#91b0b8" opacity="0.5"/>
<rect x="143.4" y="266.0" width="6" height="8" fill="#91b0b8" opacity="0.5"/>
<rect x="157.4" y="266.0" width="6" height="8" fill="#91b0b8" opacity="0.5"/>
<rect x="308.6" y="133.1" width="36.1" height="166.9" fill="#558592"/>
<rect x="323.6" y="145.1" width="6" height="8" fill="#91b0b8" opacity="0.5"/>
<rect x="323.6" y="177.1" width="6" height="8" fill="#91b0b8" opacity="0.5"/>
<rect x="323.6" y="209.1" width="6" height="8" fill="#91b0b8" opacity="0.5"/>
<rect x="323.6" y="241.1" width="6" height="8" fill="#91b0b8" opacity="0.5"/>
<rect x="323.6" y="273.1" width="6" height="8" fill="#91b0b8" opacity="0.5"/>
<rect x="484.4" y="139.9" width="41.4" height="160.1" fill="#558592"/>
<rect x="502.1" y="167.9" width="6" height="8" fill="#91b0b8" opacity="0.5"/>
<rect x="502.1" y="183.9" width="6" height="8" fill="#91b0b8" opacity="0.5"/>
<rect x="502.1" y="215.9" width="6" height="8" fill="#91b0b8" opacity="0.5"/>
<rect x="502.1" y="231.9" width="6" height="8" fill="#91b0b8" opacity="0.5"/>
<rect x="502.1" y="263.9" width="6" height="8" fill="#91b0b8" opacity="0.5"/>
<rect x="661.8" y="135.0" width="47.9" height="165.0" fill="#558592"/>
<rect x="675.8" y="147.0" width="6" height="8" fill="#91b0b8" opacity="0.5"/>
<rect x="689.8" y="163.0" width="6" height="8" fill="#91b0b8" opacity="0.5"/>
<rect x="675.8" y="179.0" width="6" height="8" fill="#91b0b8" opacity="0.5"/>
<rect x="689.8" y="179.0" width="6" height="8" fill="#91b0b8" opacity="0.5"/>
<rect x="675.8" y="195.0" width="6" height="8" fill="#91b0b8" opacity="0.5"/>
<rect x="689.8" y="195.0" width="6" height="8" fill="#91b0b8" opacity="0.5"/>
<rect x="675.8" y="211.0" width="6" height="8" fill="#91b0b8" opacity="0.5"/>
<rect x="675.8" y="227.0" width="6" height="8" fill="#91b0b8" opacity="0.5"/>
<rect x="689.8" y="227.0" width="6" height="8" fill="#91b0b8" opacity="0.5"/>
<rect x="675.8" y="243.0" width="6" height="8" fill="#91b0b8" opacity="0.5"/>
<rect x="689.8" y="243.0" width="6" height="8" fill="#91b0b8" opacity="0.5"/>
<rect x="675.8" y="259.0" width="6" height="8" fill="#91b0b8" opacity="0.5"/>
<rect x="689.8" y="259.0" width="6" height="8" fill="#91b0b8" opacity="0.5"/>
<rect x="856.5" y="130.7" width="72.8" height="169.3" fill="#558592"/>
<rect x="868.9" y="142.7" width="6" height="8" fill="#91b0b8" opacity="0.5"/>
<rect x="882.9" y="142.7" width="6" height="8" fill="#91b0b8" opacity="0.5"/>
<rect x="896.9" y="142.7" width="6" height="8" fill="#91b0b8" opacity="0.5"/>
<rect x="910.9" y="142.7" width="6" height="8" fill="#91b0b8" opacity="0.5"/>
<rect x="868.9" y="158.7" width="6" height="8" fill="#91b0b8" opacity="0.5"/>
<rect x="882.9" y="158.7" width="6" height="8" fill="#91b0b8" opacity="0.5"/>
<rect x="896.9" y="158.7" width="6" height="8" fill="#91b0b8" opacity="0.5"/>
<rect x="910.9" y="158.7" width="6" height="8" fill="#91b0b8" opacity="0.5"/>
<rect x="868.9" y="174.7" width="6" height="8" fill="#91b0b8" opacity="0.5"/>
<rect x="896.9" y="174.7" width="6" height="8" fill="#91b0b8" opacity="0.5"/>
<rect x="868.9" y="190.7" width="6" height="8" fill="#91b0b8" opacity="0.5"/>
<rect x="896.9" y="190.7" width="6" height="8" fill="#91b0b8" opacity="0.5"/>
<rect x="910.9" y="190.7" width="6" height="8" fill="#91b0b8" opacity="0.5"/>
<rect x="896.9" y="206.7" width="6" height="8" fill="#91b0b8" opacity="0.5"/>
<rect x="910.9" y="206.7" width="6" height="8" fill="#91b0b8" opacity="0.5"/>
<rect x="896.9" y="222.7" width="6" height="8" fill="#91b0b8" opacity="0.5"/>
<rect x="910.9" y="222.7" width="6" height="8" fill="#91b0b8" opacity="0.5"/>
<rect x="868.9" y="238.7" width="6" height="8" fill="#91b0b8" opacity="0.5"/>
<rect x="882.9" y="238.7" width="6" height="8" fill="#91b0b8" opacity="0.5"/>
<rect x="896.9" y="238.7" width="6" height="8" fill="#91b0b8" opacity="0.5"/>
<rect x="882.9" y="254.7" width="6" height="8" fill="#91b0b8" opacity="0.5"/>
<rect x="910.9" y="254.7" width="6" height="8" fill="#91b0b8" opacity="0.5"/>
<rect x="882.9" y="270.7" width="6" height="8" fill="#91b0b8" opacity="0.5"/>
<rect x="896.9" y="270.7" width="6" height="8" fill="#91b0b8" opacity="0.5"/>
<rect x="910.9" y="270.7" width="6" height="8" fill="#91b0b8" opacity="0.5"/>
<rect x="1030.3" y="201.3" width="76.5" height="98.7" fill="#558592"/>
<rect x="1058.6" y="213.3" width="6" height="8" fill="#91b0b8" opacity="0.5"/>
<rect x="1072.6" y="213.3" width="6" height="8" fill="#91b0b8" opacity="0.5"/>
<rect x="1086.6" y="213.3" width="6" height="8" fill="#91b0b8" opacity="0.5"/>
<rect x="1044.6" y="229.3" width="6" height="8" fill="#91b0b8" opacity="0.5"/>
<rect x="1058.6" y="229.3" width="6" height="8" fill="#91b0b8" opacity="0.5"/>
<rect x="1044.6" y="245.3" width="6" height="8" fill="#91b0b8" opacity="0.5"/>
<rect x="1058.6" y="245.3" width="6" height="8" fill="#91b0b8" opacity="0.5"/>
<rect x="1072.6" y="245.3" width="6" height="8" fill="#91b0b8" opacity="0.5"/>
<rect x="1058.6" y="261.3" width="6" height="8" fill="#91b0b8" opacity="0.5"/>
<rect x="1072.6" y="261.3" width="6" height="8" fill="#91b0b8" opacity="0.5"/>
<rect x="1086.6" y="261.3" width="6" height="8" fill="#91b0b8" opacity="0.5"/>
<rect x="85.7" y="170.8" width="57.9" height="129.2" fill="#2b6777"/>
<rect x="104.7" y="182.8" width="6" height="8" fill="#759ca7" opacity="0.5"/>
<rect x="118.7" y="182.8" width="6" height="8" fill="#759ca7" opacity="0.5"/>
<rect x="104.7" y="198.8" width="6" height="8" fill="#759ca7" opacity="0.5"/>
<rect x="104.7" y="214.8" width="6" height="8" fill="#759ca7" opacity="0.5"/>
<rect x="118.7" y="214.8" width="6" height="8" fill="#759ca7" opacity="0.5"/>
<rect x="118.7" y="230.8" width="6" height="8" fill="#759ca7" opacity="0.5"/>
<rect x="104.7" y="246.8" width="6" height="8" fill="#759ca7" opacity="0.5"/>
<rect x="118.7" y="246.8" width="6" height="8" fill="#759ca7" opacity="0.5"/>
<rect x="104.7" y="262.8" width="6" height="8" fill="#759ca7" opacity="0.5"/>
<rect x="118.7" y="262.8" width="6" height="8" fill="#759ca7" opacity="0.5"/>
<rect x="325.4" y="69.9" width="58.2" height="230.1" fill="#2b6777"/>
<rect x="337.5" y="81.9" width="6" height="8" fill="#759ca7" opacity="0.5"/>
<rect x="351.5" y="81.9" width="6" height="8" fill="#759ca7" opacity="0.5"/>
<rect x="365.5" y="81.9" width="6" height="8" fill="#759ca7" opacity="0.5"/>
<rect x="337.5" y="97.9" width="6" height="8" fill="#759ca7" opacity="0.5"/>
<rect x="351.5" y="97.9" width="6" height="8" fill="#759ca7" opacity="0.5"/>
<rect x="351.5" y="113.9" width="6" height="8" fill="#759ca7" opacity="0.5"/>
<rect x="365.5" y="113.9" width="6" height="8" fill="#759ca7" opacity="0.5"/>
<rect x="351.5" y="129.9" width="6" height="8" fill="#759ca7" opacity="0.5"/>
<rect x="365.5" y="129.9" width="6" height="8" fill="#759ca7" opacity="0.5"/>
<rect x="337.5" y="145.9" width="6" height="8" fill="#759ca7" opacity="0.5"/>
<rect x="351.5" y="145.9" width="6" height="8" fill="#759ca7" opacity="0.5"/>
<rect x="365.5" y="145.9" width="6" height="8" fill="#759ca7" opacity="0.5"/>
<rect x="337.5" y="161.9" width="6" height="8" fill="#759ca7" opacity="0.5"/>
<rect x="351.5" y="161.9" width="6" height="8" fill="#759ca7" opacity="0.5"/>
<rect x="365.5" y="161.9" width="6" height="8" fill="#759ca7" opacity="0.5"/>
<rect x="337.5" y="177.9" width="6" height="8" fill="#759ca7" opacity="0.5"/>
<rect x="351.5" y="177.9" width="6" height="8" fill="#759ca7" opacity="0.5"/>
<rect x="365.5" y="177.9" width="6" height="8" fill="#759ca7" opacity="0.5"/>
<rect x="337.5" y="193.9" width="6" height="8" fill="#759ca7" opacity="0.5"/>
<rect x="337.5" y="209.9" width="6" height="8" fill="#759ca7" opacity="0.5"/>
<rect x="351.5" y="209.9" width="6" height="8" fill="#759ca7" opacity="0.5"/>
<rect x="337.5" y="225.9" width="6" height="8" fill="#759ca7" opacity="0.5"/>
<rect x="351.5" y="225.9" width="6" height="8" fill="#759ca7" opacity="0.5"/>
<rect x="365.5" y="225.9" width="6" height="8" fill="#759ca7" opacity="0.5"/>
<rect x="337.5" y="241.9" width="6" height="8" fill="#759ca7" opacity="0.5"/>
<rect x="351.5" y="241.9" width="6" height="8" fill="#759ca7" opacity="0.5"/>
<rect x="337.5" y="257.9" width="6" height="8" fill="#759ca7" opacity="0.5"/>
<rect x="351.5" y="257.9" width="6" height="8" fill="#759ca7" opacity="0.5"/>
<line x1="354.5" y1="69.9" x2="354.5" y2="53.8" stroke="#2b6777" stroke-width="2"/>
<rect x="608.5" y="233.9" width="34.8" height="66.1" fill="#2b6777"/>
<rect x="622.9" y="245.9" width="6" height="8" fill="#759ca7" opacity="0.5"/>
<rect x="622.9" y="261.9" width="6" height="8" fill="#759ca7" opacity="0.5"/>
<rect x="774.1" y="196.4" width="57.5" height="103.6" fill="#2b6777"/>
<rect x="792.9" y="208.4" width="6" height="8" fill="#759ca7" opacity="0.5"/>
<rect x="792.9" y="224.4" width="6" height="8" fill="#759ca7" opacity="0.5"/>
<rect x="806.9" y="224.4" width="6" height="8" fill="#759ca7" opacity="0.5"/>
<rect x="792.9" y="240.4" width="6" height="8" fill="#759ca7" opacity="0.5"/>
<rect x="806.9" y="240.4" width="6" height="8" fill="#759ca7" opacity="0.5"/>
<rect x="806.9" y="256.4" width="6" height="8" fill="#759ca7" opacity="0.5"/>
<rect x="792.9" y="272.4" width="6" height="8" fill="#759ca7" opacity="0.5"/>
<rect x="1003.5" y="114.9" width="55.1" height="185.1" fill="#2b6777"/>
<rect x="1021.1" y="126.9" width="6" height="8" fill="#759ca7" opacity="0.5"/>
<rect x="1035.1" y="126.9" width="6" height="8" fill="#759ca7" opacity="0.5"/>
<rect x="1021.1" y="142.9" width="6" height="8" fill="#759ca7" opacity="0.5"/>
<rect x="1021.1" y="158.9" width="6" height="8" fill="#759ca7" opacity="0.5"/>
<rect x="1035.1" y="158.9" width="6" height="8" fill="#759ca7" opacity="0.5"/>
<rect x="1021.1" y="174.9" width="6" height="8" fill="#759ca7" opacity="0.5"/>
<rect x="1021.1" y="190.9" width="6" height="8" fill="#759ca7" opacity="0.5"/>
<rect x="1035.1" y="190.9" width="6" height="8" fill="#759ca7" opacity="0.5"/>
<rect x="1021.1" y="206.9" width="6" height="8" fill="#759ca7" opacity="0.5"/>
<rect x="1035.1" y="206.9" width="6" height="8" fill="#759ca7" opacity="0.5"/>
<rect x="1021.1" y="222.9" width="6" height="8" fill="#759ca7" opacity="0.5"/>
<rect x="1021.1" y="238.9" width="6" height="8" fill="#759ca7" opacity="0.5"/>
<rect x="1035.1" y="238.9" width="6" height="8" fill="#759ca7" opacity="0.5"/>
<rect x="1021.1" y="254.9" width="6" height="8" fill="#759ca7" opacity="0.5"/>
<rect x="1021.1" y="270.9" width="6" height="8" fill="#759ca7" opacity="0.5"/>
<line x1="1031.1" y1="114.9" x2="1031.1" y2="99.8" stroke="#2b6777" stroke-width="2"/>
<rect x="0" y="298" width="1200" height="2" fill="#275d6b" opacity="0.15"/>
</svg>