<svg xmlns="http://www.w3.org/2000/svg" viewBox="0 0 1200 300" width="1200" height="300">
<rect width="1200" height="300" fill="#e0eff2"/>
<path d="M0 300 L0 210.0 C185.9 179.8, 925.1 184.2, 1200 210.0 L1200 300 Z" fill="#aac2c9" opacity="0.3"/>
<rect x="132.1" y="238.2" width="77.6" height="61.8" fill="#8aabb4"/>
<rect x="407.6" y="185.7" width="40.4" height="114.3" fill="#8aabb4"/>
<rect x="692.8" y="176.9" width="71.2" height="123.1" fill="#8aabb4"/>
<rect x="999.3" y="228.0" width="70.8" height="72.0" fill="#8aabb4"/>
<rect x="157.8" y="215.0" width="58.2" height="85.0" fill="#558592"/>
<rect x="169.9" y="243.0" width="6" height="8" fill="#91b0b8" opacity="0.5"/>
<rect x="183.9" y="243.0" width="6" height="8" fill="#91b0b8" opacity="0.5"/>
<rect x="197.9" y="243.0" width="6" height="8" fill="#91b0b8" opacity="0.5"/>
<rect x="169.9" y="259.0" width="6" height="8" fill="#91b0b8" opacity="0.5"/>
<rect x="183.9" y="259.0" width="6" height="8" fill="#91b0b8" opacity="0.5"/>
<rect x="197.9" y="259.0" width="6" height="8" fill="#91b0b8" opacity="0.5"/>
<rect x="415.2" y="141.3" width="73.0" height="158.7" fill="#558592"/>
<rect x="427.7" y="153.3" width="6" height="8" fill="#91b0b8" opacity="0.5"/>
<rect x="441.7" y="153.3" width="6" height="8" fill="#91b0b8" opacity="0.5"/>
<rect x="455.7" y="153.3" width="6" height="8" fill="#91b0b8" opacity="0.5"/>
<rect x="469.7" y="153.3" width="6" height="8" fill="#91b0b8" opacity="0.5"/>
<rect x="427.7" y="169.3" width="6" height="8" fill="#91b0b8" opacity="0.5"/>
<rect x="441.7" y="169.3" width="6" height="8" fill="#91b0b8" opacity="0.5"/>
<rect x="455.7" y="169.3" width="6" height="8" fill="#91b0b8" opacity="0.5"/>
<rect x="469.7" y="169.3" width="6" height="8" fill="#91b0b8" opacity="0.5"/>
<rect x="427.7" y="185.3" width="6" height="8" fill="#91b0b8" opacity="0.5"/>
<rect x="441.7" y="185.3" width="6" height="8" fill="#91b0b8" opacity="0.5"/>
<rect x="469.7" y="185.3" width="6" height="8" fill="#91b0b8" opacity="0.5"/>
<rect x="427.7" y="201.3" width="6" height="8" fill="#91b0b8" opacity="0.5"/>
<rect x="455.7" y="201.3" width="6" height="8" fill="#91b0b8" opacity="0.5"/>
<rect x="469.7" y="201.3" width="6" height="8" fill="#91b0b8" opacity="0.5"/>
<rect x="441.7" y="217.3" width="6" height="8" fill="#91b0b8" opacity="0.5"/>
<rect x="455.7" y="217.3" width="6" height="8" fill="#91b0b8" opacity="0.5"/>
<rect x="469.7" y="217.3" width="6" height="8" fill="#91b0b8" opacity="0.5"/>
<rect x="427.7" y="233.3" width="6" height="8" fill="#91b0b8" opacity="0.5"/>
<rect x="441.7" y="233.3" width="6" height="8" fill="#91b0b8" opacity="0.5"/>
<rect x="455.7" y="233.3" width="6" height="8" fill="#91b0b8" opacity="0.5"/>
<rect x="427.7" y="249.3" width="6" height="8" fill="#91b0b8" opacity="0.5"/>
<rect x="455.7" y="249.3" width="6" height="8" fill="#91b0b8" opacity="0.5"/>
<rect x="427.7" y="265.3" width="6" height="8" fill="#91b0b8" opacity="0.5"/>
<rect x="715.0" y="216.1" width="36.1" height="83.9" fill="#558592"/>
<rect x="730.0" y="260.1" width="6" height="8" fill="#91b0b8" opacity="0.5"/>
<rect x="982.4" y="190.9" width="59.4" height="109.1" fill="#558592"/>
<rect x="995.1" y="202.9" width="6" height="8" fill="#91b0b8" opacity="0.5"/>
<rect x="1009.1" y="202.9" width="6" height="8" fill="#91b0b8" opacity="0.5"/>
<rect x="1023.1" y="202.9" width="6" height="8" fill="#91b0b8" opacity="0.5"/>
<rect x="995.1" y="218.9" width="6" height="8" fill="#91b0b8" opacity="0.5"/>
<rect x="995.1" y="234.9" width="6" height="8" fill="#91b0b8" opacity="0.5"/>
<rect x="1023.1" y="234.9" width="6" height="8" fill="#91b0b8" opacity="0.5"/>
<rect x="1009.1" y="250.9" width="6" height="8" fill="#91b0b8" opacity="0.5"/>
<rect x="1023.1" y="250.9" width="6" height="8" fill="#91b0b8" opacity="0.5"/>
<rect x="1009.1" y="266.9" width="6" height="8" fill="#91b0b8" opacity="0.5"/>
<rect x="142.9" y="148.0" width="57.8" height="152.0" fill="#2b6777"/>
<rect x="161.8" y="160.0" width="6" height="8" fill="#759ca7" opacity="0.5"/>
<rect x="175.8" y="176.0" width="6" height="8" fill="#759ca7" opacity="0.5"/>
<rect x="161.8" y="192.0" width="6" height="8" fill="#759ca7" opacity="0.5"/>
<rect x="175.8" y="192.0" width="6" height="8" fill="#759ca7" opacity="0.5"/>
<rect x="161.8" y="208.0" width="6" height="8" fill="#759ca7" opacity="0.5"/>
<rect x="175.8" y="208.0" width="6" height="8" fill="#759ca7" opacity="0.5"/>
<rect x="161.8" y="224.0" width="6" height="8" fill="#759ca7" opacity="0.5"/>
<rect x="175.8" y="224.0" width="6" height="8" fill="#759ca7" opacity="0.5"/>
<rect x="161.8" y="240.0" width="6" height="8" fill="#759ca7" opacity="0.5"/>
<rect x="175.8" y="240.0" width="6" height="8" fill="#759ca7" opacity="0.5"/>
<rect x="161.8" y="256.0" width="6" height="8" fill="#759ca7" opacity="0.5"/>
<rect x="161.8" y="272.0" width="6" height="8" fill="#759ca7" opacity="0.5"/>
<rect x="175.8" y="272.0" width="6" height="8" fill="#759ca7" opacity="0.5"/>
<rect x="399.2" y="177.0" width="46.9" height="123.0" fill="#2b6777"/>
<rect x="412.6" y="189.0" width="6" height="8" fill="#759ca7" opacity="0.5"/>
<rect x="412.6" y="205.0" width="6" height="8" fill="#759ca7" opacity="0.5"/>
<rect x="426.6" y="205.0" width="6" height="8" fill="#759ca7" opacity="0.5"/>
<rect x="412.6" y="221.0" width="6" height="8" fill="#759ca7" opacity="0.5"/>
<rect x="412.6" y="237.0" width="6" height="8" fill="#759ca7" opacity="0.5"/>
<rect x="412.6" y="253.0" width="6" height="8" fill="#759ca7" opacity="0.5"/>
<rect x="426.6" y="253.0" width="6" height="8" fill="#759ca7" opacity="0.5"/>
<rect x="412.6" y="269.0" width="6" height="8" fill="#759ca7" opacity="0.5"/>
<rect x="426.6" y="269.0" width="6" height="8" fill="#759ca7" opacity="0.5"/>
<rect x="701.3" y="210.1" width="30.3" height="89.9" fill="#2b6777"/>
<rect x="713.5" y="222.1" width="6" height="8" fill="#759ca7" opacity="0.5"/>
<rect x="713.5" y="238.1" width="6" height="8" fill="#759ca7" opacity="0.5"/>
<rect x="713.5" y="270.1" width="6" height="8" fill="#759ca7" opacity="0.5"/>
<rect x="956.6" y="157.9" width="70.9" height="142.1" fill="#2b6777"/>
<rect x="975.0" y="169.9" width="6" height="8" fill="#759ca7" opacity="0.5"/>
<rect x="1003.0" y="169.9" width="6" height="8" fill="#759ca7" opacity="0.5"/>
<rect x="989.0" y="185.9" width="6" height="8" fill="#759ca7" opacity="0.5"/>
<rect x="1003.0" y="185.9" width="6" height="8" fill="#759ca7" opacity="0.5"/>
<rect x="975.0" y="201.9" width="6" height="8" fill="#759ca7" opacity="0.5"/>
<rect x="989.0" y="201.9" width="6" height="8" fill="#759ca7" opacity="0.5"/>
<rect x="975.0" y="217.9" width="6" height="8" fill="#759ca7" opacity="0.5"/>
<rect x="989.0" y="217.9" width="6" height="8" fill="#759ca7" opacity="0.5"/>
<rect x="1003.0" y="217.9" width="6" height="8" fill="#759ca7" opacity="0.5"/>
<rect x="975.0" y="233.9" width="6" height="8" fill="#759ca7" opacity="0.5"/>
<rect x="1003.0" y="233.9" width="6" height="8" fill="#759ca7" opacity="0.5"/>
<rect x="975.0" y="249.9" width="6" height="8" fill="#759ca7" opacity="0.5"/>
<rect x="989.0" y="249.9" width="6" height="8" fill="#759ca7" opacity="0.5"/>
<rect x="1003.0" y="249.9" width="6" height="8" fill="#759ca7" opacity="0.5"/>
<rect x="975.0" y="265.9" width="6" height="8" fill="#759ca7" opacity="0.5"/>
<rect x="989.0" y="265.9" width="6" height="8" fill="#759ca7" opacity="0.5"/>
<rect x="1003.0" y="265.9" width="6" height="8" fill="#759ca7" opacity="0.5"/>
<rect x="0" y="298" width="1200" height="2" fill="#275d6b" opacity="0.15"/>
</svg>