<svg xmlns="http://www.w3.org/2000/svg" viewBox="0 0 1200 300" width="1200" height="300">
<defs>
<linearGradient id="skyGrad" x1="0" y1="0" x2="0" y2="1">
<stop offset="0%" stop-color="#a78bfa"/>
<stop offset="18%" stop-color="#ddb4f0"/>
<stop offset="35%" stop-color="#fda4af"/>
<stop offset="52%" stop-color="#fdba74"/>
<stop offset="72%" stop-color="#fef08a"/>
<stop offset="100%" stop-color="#fef9c3"/>
</linearGradient>
<linearGradient id="bldg_coral" x1="0" y1="0" x2="0" y2="1"><stop offset="0%" stop-color="#fecaca"/><stop offset="100%" stop-color="#fca5a5"/></linearGradient>
<linearGradient id="bldg_teal" x1="0" y1="0" x2="0" y2="1"><stop offset="0%" stop-color="#99f6e4"/><stop offset="100%" stop-color="#5eead4"/></linearGradient>
<linearGradient id="bldg_amber" x1="0" y1="0" x2="0" y2="1"><stop offset="0%" stop-color="#fde68a"/><stop offset="100%" stop-color="#fcd34d"/></linearGradient>
<linearGradient id="bldg_lavender" x1="0" y1="0" x2="0" y2="1"><stop offset="0%" stop-color="#ddd6fe"/><stop offset="100%" stop-color="#c4b5fd"/></linearGradient>
<linearGradient id="bldg_blue" x1="0" y1="0" x2="0" y2="1"><stop offset="0%" stop-color="#bfdbfe"/><stop offset="100%" stop-color="#93c5fd"/></linearGradient>
<linearGradient id="bldg_mint" x1="0" y1="0" x2="0" y2="1"><stop offset="0%" stop-color="#a7f3d0"/><stop offset="100%" stop-color="#6ee7b7"/></linearGradient>
<linearGradient id="bldg_rose" x1="0" y1="0" x2="0" y2="1"><stop offset="0%" stop-color="#fecdd3"/><stop offset="100%" stop-color="#fda4af"/></linearGradient>
<linearGradient id="bldg_sky" x1="0" y1="0" x2="0" y2="1"><stop offset="0%" stop-color="#bae6fd"/><stop offset="100%" stop-color="#7dd3fc"/></linearGradient>
<linearGradient id="roof_navyRoof" x1="0" y1="0" x2="0" y2="1"><stop offset="0%" stop-color="#4338ca"/><stop offset="100%" stop-color="#3730a3"/></linearGradient>
<linearGradient id="roof_coralRoof" x1="0" y1="0" x2="0" y2="1"><stop offset="0%" stop-color="#f87171"/><stop offset="100%" stop-color="#ef4444"/></linearGradient>
<linearGradient id="roof_tealRoof" x1="0" y1="0" x2="0" y2="1"><stop offset="0%" stop-color="#2dd4bf"/><stop offset="100%" stop-color="#14b8a6"/></linearGradient>
<radialGradient id="windowGlow" cx="50%" cy="50%" r="50%"><stop offset="0%" stop-color="#fef08a"/><stop offset="60%" stop-color="#fbbf24"/><stop offset="100%" stop-color="#f59e0b"/></radialGradient>
<linearGradient id="hillFar" x1="0" y1="0" x2="0" y2="1"><stop offset="0%" stop-color="#c4b5fd"/><stop offset="100%" stop-color="#a5b4fc"/></linearGradient>
<linearGradient id="hillMid" x1="0" y1="0" x2="0" y2="1"><stop offset="0%" stop-color="#86efac"/><stop offset="100%" stop-color="#4ade80"/></linearGradient>
<linearGradient id="hillNear" x1="0" y1="0" x2="0" y2="1"><stop offset="0%" stop-color="#34d399"/><stop offset="100%" stop-color="#10b981"/></linearGradient>
<linearGradient id="hillDesertFar" x1="0" y1="0" x2="0" y2="1"><stop offset="0%" stop-color="#fde68a"/><stop offset="100%" stop-color="#fcd34d"/></linearGradient>
<linearGradient id="hillDesertMid" x1="0" y1="0" x2="0" y2="1"><stop offset="0%" stop-color="#fcd34d"/><stop offset="100%" stop-color="#fbbf24"/></linearGradient>
<linearGradient id="hillDesertNear" x1="0" y1="0" x2="0" y2="1"><stop offset="0%" stop-color="#fbbf24"/><stop offset="100%" stop-color="#f59e0b"/></linearGradient>
<linearGradient id="groundGrad" x1="0" y1="0" x2="0" y2="1"><stop offset="0%" stop-color="#fef3c7"/><stop offset="100%" stop-color="#fde68a"/></linearGradient>
<linearGradient id="waterGrad" x1="0" y1="0" x2="0" y2="1"><stop offset="0%" stop-color="#bfdbfe"/><stop offset="100%" stop-color="#93c5fd"/></linearGradient>
<filter id="softGlow" x="-50%" y="-50%" width="200%" height="200%"><feGaussianBlur in="SourceGraphic" stdDeviation="12"/></filter>
</defs>
<rect width="1200" height="300" fill="url(#skyGrad)"/>
<circle cx="938.4" cy="43.3" r="45" fill="#fef08a" opacity="0.12" filter="url(#softGlow)"/>
<circle cx="938.4" cy="43.3" r="30" fill="#fde68a" opacity="0.18" filter="url(#softGlow)"/>
<circle cx="938.4" cy="43.3" r="16" fill="#fef9c3" opacity="0.25" filter="url(#softGlow)"/>
<path d="M0 300 L0.0 194.7 C133.7 194.7, 133.7 183.0, 267.5 183.0 C400.8 183.0, 400.8 182.0, 534.2 182.0 C749.7 182.0, 749.7 184.3, 965.3 184.3 C1082.6 184.3, 1082.6 183.9, 1200.0 183.9 L1200 300 Z" fill="url(#hillFar)" opacity="0.5"/>
<path d="M0 300 L0.0 211.6 C127.9 211.6, 127.9 209.0, 255.7 209.0 C461.2 209.0, 461.2 214.2, 666.7 214.2 C758.4 214.2, 758.4 209.4, 850.2 209.4 C1025.1 209.4, 1025.1 214.7, 1200.0 214.7 L1200 300 Z" fill="url(#hillMid)" opacity="0.7"/>
<path d="M0 300 L0.0 233.5 C112.6 233.5, 112.6 237.3, 225.2 237.3 C351.5 237.3, 351.5 234.7, 477.8 234.7 C582.1 234.7, 582.1 234.4, 686.4 234.4 C828.5 234.4, 828.5 236.5, 970.5 236.5 C1085.3 236.5, 1085.3 240.3, 1200.0 240.3 L1200 300 Z" fill="url(#hillNear)" opacity="1"/>
<rect x="148.2" y="232.1" width="68.1" height="67.9" rx="3" fill="url(#bldg_sky)" opacity="0.7"/>
<rect x="161.8" y="223.9" width="40.9" height="8.2" rx="2" fill="url(#roof_navyRoof)" opacity="0.7"/>
<rect x="165.3" y="242.1" width="6" height="8" rx="1" fill="url(#windowGlow)" opacity="0.8410396497422082"/>
<rect x="179.3" y="242.1" width="6" height="8" rx="1" fill="url(#windowGlow)" opacity="0.8849298878502705"/>
<rect x="193.3" y="242.1" width="6" height="8" rx="1" fill="url(#windowGlow)" opacity="0.8891054550135067"/>
<rect x="165.3" y="257.1" width="6" height="8" rx="1" fill="url(#windowGlow)" opacity="0.9563376036734961"/>
<rect x="179.3" y="257.1" width="6" height="8" rx="1" fill="url(#windowGlow)" opacity="0.9641293652654296"/>
<rect x="193.3" y="257.1" width="6" height="8" rx="1" fill="url(#windowGlow)" opacity="0.7275157669687251"/>
<rect x="555.1" y="223.8" width="75.3" height="76.2" rx="3" fill="url(#bldg_coral)" opacity="0.7"/>
<polygon points="555.1,223.8 592.7,205.7 630.3,223.8" fill="url(#roof_coralRoof)" opacity="0.7"/>
<rect x="568.7" y="233.8" width="6" height="8" rx="1" fill="url(#windowGlow)" opacity="0.9232159935977384"/>
<rect x="582.7" y="233.8" width="6" height="8" rx="1" fill="url(#windowGlow)" opacity="0.9037999365496449"/>
<rect x="596.7" y="233.8" width="6" height="8" rx="1" fill="url(#windowGlow)" opacity="0.7908331787636658"/>
<rect x="610.7" y="233.8" width="6" height="8" rx="1" fill="url(#windowGlow)" opacity="0.8058358760112132"/>
<rect x="610.7" y="248.8" width="6" height="8" rx="1" fill="url(#windowGlow)" opacity="0.9354908170809461"/>
<rect x="902.1" y="240.5" width="70.4" height="59.5" rx="3" fill="url(#bldg_teal)" opacity="0.7"/>
<rect x="916.2" y="233.3" width="42.3" height="7.1" rx="2" fill="url(#roof_tealRoof)" opacity="0.7"/>
<rect x="920.4" y="250.5" width="6" height="8" rx="1" fill="url(#windowGlow)" opacity="0.8577148912277607"/>
<rect x="934.4" y="250.5" width="6" height="8" rx="1" fill="url(#windowGlow)" opacity="0.9882353262455367"/>
<rect x="118.6" y="162.8" width="59.8" height="137.2" rx="3" fill="url(#bldg_amber)" opacity="0.85"/>
<rect x="118.6" y="159.8" width="59.8" height="3" rx="1" fill="url(#roof_navyRoof)" opacity="0.85"/>
<rect x="131.5" y="172.8" width="6" height="8" rx="1" fill="url(#windowGlow)" opacity="0.8342631249382454"/>
<rect x="145.5" y="172.8" width="6" height="8" rx="1" fill="url(#windowGlow)" opacity="0.7173542284487533"/>
<rect x="159.5" y="172.8" width="6" height="8" rx="1" fill="url(#windowGlow)" opacity="0.7212754082033761"/>
<rect x="131.5" y="187.8" width="6" height="8" rx="1" fill="url(#windowGlow)" opacity="0.8608244649883473"/>
<rect x="145.5" y="187.8" width="6" height="8" rx="1" fill="url(#windowGlow)" opacity="0.9202586854902369"/>
<rect x="159.5" y="187.8" width="6" height="8" rx="1" fill="url(#windowGlow)" opacity="0.9573029449476408"/>
<rect x="131.5" y="202.8" width="6" height="8" rx="1" fill="url(#windowGlow)" opacity="0.9793471404720782"/>
<rect x="145.5" y="202.8" width="6" height="8" rx="1" fill="url(#windowGlow)" opacity="0.9227655727522287"/>
<rect x="159.5" y="202.8" width="6" height="8" rx="1" fill="url(#windowGlow)" opacity="0.8879705808069419"/>
<rect x="131.5" y="217.8" width="6" height="8" rx="1" fill="url(#windowGlow)" opacity="0.7466799215631"/>
<rect x="159.5" y="217.8" width="6" height="8" rx="1" fill="url(#windowGlow)" opacity="0.7157490494268709"/>
<rect x="131.5" y="232.8" width="6" height="8" rx="1" fill="url(#windowGlow)" opacity="0.9035396682580652"/>
<rect x="145.5" y="232.8" width="6" height="8" rx="1" fill="url(#windowGlow)" opacity="0.9493088418381794"/>
<rect x="159.5" y="232.8" width="6" height="8" rx="1" fill="url(#windowGlow)" opacity="0.990704908310764"/>
<rect x="131.5" y="247.8" width="6" height="8" rx="1" fill="url(#windowGlow)" opacity="0.7870804502568582"/>
<rect x="159.5" y="247.8" width="6" height="8" rx="1" fill="url(#windowGlow)" opacity="0.9776360883739013"/>
<rect x="448.4" y="203.6" width="60.1" height="96.4" rx="3" fill="url(#bldg_lavender)" opacity="0.85"/>
<polygon points="448.4,203.6 478.4,188.0 508.5,203.6" fill="url(#roof_coralRoof)" opacity="0.85"/>
<rect x="461.4" y="213.6" width="6" height="8" rx="1" fill="url(#windowGlow)" opacity="0.8600352312717751"/>
<rect x="475.4" y="213.6" width="6" height="8" rx="1" fill="url(#windowGlow)" opacity="0.9742607424847133"/>
<rect x="489.4" y="213.6" width="6" height="8" rx="1" fill="url(#windowGlow)" opacity="0.9602379159816716"/>
<rect x="461.4" y="228.6" width="6" height="8" rx="1" fill="url(#windowGlow)" opacity="0.8787256703147318"/>
<rect x="475.4" y="228.6" width="6" height="8" rx="1" fill="url(#windowGlow)" opacity="0.895155308346802"/>
<rect x="489.4" y="228.6" width="6" height="8" rx="1" fill="url(#windowGlow)" opacity="0.933585213745751"/>
<rect x="461.4" y="243.6" width="6" height="8" rx="1" fill="url(#windowGlow)" opacity="0.7360602107532602"/>
<rect x="475.4" y="243.6" width="6" height="8" rx="1" fill="url(#windowGlow)" opacity="0.9259839859446435"/>
<rect x="489.4" y="243.6" width="6" height="8" rx="1" fill="url(#windowGlow)" opacity="0.8653239059566166"/>
<rect x="461.4" y="258.6" width="6" height="8" rx="1" fill="url(#windowGlow)" opacity="0.810116008115055"/>
<rect x="475.4" y="258.6" width="6" height="8" rx="1" fill="url(#windowGlow)" opacity="0.9443238714450615"/>
<rect x="713.0" y="159.0" width="77.5" height="141.0" rx="3" fill="url(#bldg_blue)" opacity="0.85"/>
<polygon points="713.0,159.0 751.7,137.6 790.5,159.0" fill="url(#roof_tealRoof)" opacity="0.85"/>
<rect x="741.7" y="169.0" width="6" height="8" rx="1" fill="url(#windowGlow)" opacity="0.8572118638815414"/>
<rect x="755.7" y="169.0" width="6" height="8" rx="1" fill="url(#windowGlow)" opacity="0.9734529489993364"/>
<rect x="769.7" y="169.0" width="6" height="8" rx="1" fill="url(#windowGlow)" opacity="0.9905852598559973"/>
<rect x="727.7" y="184.0" width="6" height="8" rx="1" fill="url(#windowGlow)" opacity="0.9738750420854776"/>
<rect x="741.7" y="184.0" width="6" height="8" rx="1" fill="url(#windowGlow)" opacity="0.8695592577427436"/>
<rect x="755.7" y="184.0" width="6" height="8" rx="1" fill="url(#windowGlow)" opacity="0.9552404066804985"/>
<rect x="769.7" y="184.0" width="6" height="8" rx="1" fill="url(#windowGlow)" opacity="0.8554394283124429"/>
<rect x="741.7" y="199.0" width="6" height="8" rx="1" fill="url(#windowGlow)" opacity="0.8355786239894007"/>
<rect x="769.7" y="199.0" width="6" height="8" rx="1" fill="url(#windowGlow)" opacity="0.7190458462662277"/>
<rect x="727.7" y="214.0" width="6" height="8" rx="1" fill="url(#windowGlow)" opacity="0.9750947629451261"/>
<rect x="741.7" y="214.0" width="6" height="8" rx="1" fill="url(#windowGlow)" opacity="0.7648136153187666"/>
<rect x="755.7" y="214.0" width="6" height="8" rx="1" fill="url(#windowGlow)" opacity="0.7550978588196904"/>
<rect x="769.7" y="214.0" width="6" height="8" rx="1" fill="url(#windowGlow)" opacity="0.7636634421831292"/>
<rect x="727.7" y="229.0" width="6" height="8" rx="1" fill="url(#windowGlow)" opacity="0.9461573274089756"/>
<rect x="741.7" y="229.0" width="6" height="8" rx="1" fill="url(#windowGlow)" opacity="0.8447883944701349"/>
<rect x="755.7" y="229.0" width="6" height="8" rx="1" fill="url(#windowGlow)" opacity="0.9620285376263915"/>
<rect x="769.7" y="229.0" width="6" height="8" rx="1" fill="url(#windowGlow)" opacity="0.8243009427209854"/>
<rect x="727.7" y="244.0" width="6" height="8" rx="1" fill="url(#windowGlow)" opacity="0.7316272284982852"/>
<rect x="741.7" y="244.0" width="6" height="8" rx="1" fill="url(#windowGlow)" opacity="0.7374473161238465"/>
<rect x="755.7" y="244.0" width="6" height="8" rx="1" fill="url(#windowGlow)" opacity="0.7557555834091061"/>
<rect x="769.7" y="244.0" width="6" height="8" rx="1" fill="url(#windowGlow)" opacity="0.9378140455287947"/>
<rect x="727.7" y="259.0" width="6" height="8" rx="1" fill="url(#windowGlow)" opacity="0.9855079912978727"/>
<rect x="741.7" y="259.0" width="6" height="8" rx="1" fill="url(#windowGlow)" opacity="0.7604016932940119"/>
<rect x="755.7" y="259.0" width="6" height="8" rx="1" fill="url(#windowGlow)" opacity="0.8942314959104319"/>
<rect x="769.7" y="259.0" width="6" height="8" rx="1" fill="url(#windowGlow)" opacity="0.8954407723599302"/>
<rect x="988.3" y="206.1" width="44.6" height="93.9" rx="3" fill="url(#bldg_mint)" opacity="0.85"/>
<rect x="997.2" y="194.8" width="26.8" height="11.3" rx="2" fill="url(#roof_navyRoof)" opacity="0.85"/>
<rect x="1000.6" y="216.1" width="6" height="8" rx="1" fill="url(#windowGlow)" opacity="0.9698248505917493"/>
<rect x="1000.6" y="231.1" width="6" height="8" rx="1" fill="url(#windowGlow)" opacity="0.8960133620984914"/>
<rect x="1014.6" y="231.1" width="6" height="8" rx="1" fill="url(#windowGlow)" opacity="0.9803493418639289"/>
<rect x="1000.6" y="246.1" width="6" height="8" rx="1" fill="url(#windowGlow)" opacity="0.7231576292417746"/>
<rect x="1014.6" y="246.1" width="6" height="8" rx="1" fill="url(#windowGlow)" opacity="0.755156688185016"/>
<path d="M1010.6 239.0 L1028.4 239.0 L1025.4 245.0 L1013.6 245.0 Z" fill="url(#roof_tealRoof)" opacity="0.68"/>
<rect x="131.5" y="158.1" width="35.4" height="141.9" rx="3" fill="url(#bldg_rose)" opacity="1"/>
<polygon points="131.5,158.1 149.2,149.7 166.9,158.1" fill="url(#roof_coralRoof)" opacity="1"/>
<rect x="146.2" y="168.1" width="6" height="8" rx="1" fill="url(#windowGlow)" opacity="0.9991172950710716"/>
<rect x="146.2" y="183.1" width="6" height="8" rx="1" fill="url(#windowGlow)" opacity="0.7141133391829735"/>
<rect x="146.2" y="213.1" width="6" height="8" rx="1" fill="url(#windowGlow)" opacity="0.718539654192766"/>
<rect x="146.2" y="243.1" width="6" height="8" rx="1" fill="url(#windowGlow)" opacity="0.7865235677857527"/>
<rect x="146.2" y="258.1" width="6" height="8" rx="1" fill="url(#windowGlow)" opacity="0.8292873149874095"/>
<rect x="144.2" y="284.0" width="10" height="16" rx="2" fill="url(#roof_navyRoof)" opacity="0.8"/>
<rect x="146.2" y="287.0" width="6" height="10" rx="1" fill="url(#windowGlow)" opacity="0.45"/>
<rect x="402.7" y="143.7" width="45.4" height="156.3" rx="3" fill="url(#bldg_sky)" opacity="1"/>
<rect x="402.7" y="140.7" width="45.4" height="3" rx="1" fill="url(#roof_tealRoof)" opacity="1"/>
<rect x="415.4" y="153.7" width="6" height="8" rx="1" fill="url(#windowGlow)" opacity="0.9172186021773231"/>
<rect x="429.4" y="153.7" width="6" height="8" rx="1" fill="url(#windowGlow)" opacity="0.9984671816688344"/>
<rect x="415.4" y="168.7" width="6" height="8" rx="1" fill="url(#windowGlow)" opacity="0.7279051678385143"/>
<rect x="429.4" y="168.7" width="6" height="8" rx="1" fill="url(#windowGlow)" opacity="0.9649034781683717"/>
<rect x="415.4" y="183.7" width="6" height="8" rx="1" fill="url(#windowGlow)" opacity="0.8626112104219437"/>
<rect x="429.4" y="183.7" width="6" height="8" rx="1" fill="url(#windowGlow)" opacity="0.7114107678697494"/>
<rect x="415.4" y="213.7" width="6" height="8" rx="1" fill="url(#windowGlow)" opacity="0.9431518146969153"/>
<rect x="415.4" y="228.7" width="6" height="8" rx="1" fill="url(#windowGlow)" opacity="0.7553240979813617"/>
<rect x="429.4" y="228.7" width="6" height="8" rx="1" fill="url(#windowGlow)" opacity="0.8870941171828164"/>
<rect x="415.4" y="243.7" width="6" height="8" rx="1" fill="url(#windowGlow)" opacity="0.8713450924825599"/>
<rect x="429.4" y="243.7" width="6" height="8" rx="1" fill="url(#windowGlow)" opacity="0.8676854297833915"/>
<rect x="420.4" y="284.0" width="10" height="16" rx="2" fill="url(#roof_navyRoof)" opacity="0.8"/>
<rect x="422.4" y="287.0" width="6" height="10" rx="1" fill="url(#windowGlow)" opacity="0.45"/>
<path d="M425.4 198.4 L443.6 198.4 L440.6 204.4 L428.4 204.4 Z" fill="url(#roof_coralRoof)" opacity="0.8"/>
<rect x="417.5" y="169.7" width="15.9" height="5" rx="1" fill="#15803d" opacity="0.7"/>
<circle cx="420.5" cy="168.7" r="2.5" fill="#fb923c" opacity="0.85"/>
<circle cx="425.8" cy="168.7" r="2.5" fill="#f87171" opacity="0.85"/>
<circle cx="431.1" cy="168.7" r="2.5" fill="#f87171" opacity="0.85"/>
<rect x="713.4" y="240.9" width="68.6" height="59.1" rx="3" fill="url(#bldg_coral)" opacity="1"/>
<rect x="713.4" y="237.9" width="68.6" height="3" rx="1" fill="url(#roof_navyRoof)" opacity="1"/>
<rect x="730.7" y="250.9" width="6" height="8" rx="1" fill="url(#windowGlow)" opacity="0.7255048485125902"/>
<rect x="744.7" y="250.9" width="6" height="8" rx="1" fill="url(#windowGlow)" opacity="0.8736328759573553"/>
<rect x="742.7" y="284.0" width="10" height="16" rx="2" fill="url(#roof_navyRoof)" opacity="0.8"/>
<rect x="744.7" y="287.0" width="6" height="10" rx="1" fill="url(#windowGlow)" opacity="0.45"/>
<path d="M747.7 261.6 L775.1 261.6 L772.1 267.6 L750.7 267.6 Z" fill="url(#roof_tealRoof)" opacity="0.8"/>
<rect x="968.1" y="143.0" width="71.1" height="157.0" rx="3" fill="url(#bldg_teal)" opacity="1"/>
<rect x="968.1" y="140.0" width="71.1" height="3" rx="1" fill="url(#roof_coralRoof)" opacity="1"/>
<rect x="986.6" y="153.0" width="6" height="8" rx="1" fill="url(#windowGlow)" opacity="0.7214298067714227"/>
<rect x="1000.6" y="153.0" width="6" height="8" rx="1" fill="url(#windowGlow)" opacity="0.7654027396186267"/>
<rect x="986.6" y="168.0" width="6" height="8" rx="1" fill="url(#windowGlow)" opacity="0.9314197789558301"/>
<rect x="1000.6" y="168.0" width="6" height="8" rx="1" fill="url(#windowGlow)" opacity="0.9441468174309222"/>
<rect x="1014.6" y="168.0" width="6" height="8" rx="1" fill="url(#windowGlow)" opacity="0.7661032975493479"/>
<rect x="1000.6" y="183.0" width="6" height="8" rx="1" fill="url(#windowGlow)" opacity="0.9388228872040393"/>
<rect x="1014.6" y="183.0" width="6" height="8" rx="1" fill="url(#windowGlow)" opacity="0.7391417491432007"/>
<rect x="986.6" y="198.0" width="6" height="8" rx="1" fill="url(#windowGlow)" opacity="0.9269402793734056"/>
<rect x="1000.6" y="198.0" width="6" height="8" rx="1" fill="url(#windowGlow)" opacity="0.8140866862209917"/>
<rect x="1014.6" y="198.0" width="6" height="8" rx="1" fill="url(#windowGlow)" opacity="0.7419832799779172"/>
<rect x="986.6" y="213.0" width="6" height="8" rx="1" fill="url(#windowGlow)" opacity="0.7554537250918586"/>
<rect x="1000.6" y="213.0" width="6" height="8" rx="1" fill="url(#windowGlow)" opacity="0.9822668898302441"/>
<rect x="1014.6" y="213.0" width="6" height="8" rx="1" fill="url(#windowGlow)" opacity="0.7183705342087757"/>
<rect x="986.6" y="228.0" width="6" height="8" rx="1" fill="url(#windowGlow)" opacity="0.9562127680779493"/>
<rect x="1000.6" y="228.0" width="6" height="8" rx="1" fill="url(#windowGlow)" opacity="0.898021392150792"/>
<rect x="1014.6" y="228.0" width="6" height="8" rx="1" fill="url(#windowGlow)" opacity="0.9550909324805675"/>
<rect x="986.6" y="243.0" width="6" height="8" rx="1" fill="url(#windowGlow)" opacity="0.8354943552685409"/>
<rect x="1000.6" y="243.0" width="6" height="8" rx="1" fill="url(#windowGlow)" opacity="0.8536911454767413"/>
<rect x="1014.6" y="243.0" width="6" height="8" rx="1" fill="url(#windowGlow)" opacity="0.9437456138635731"/>
<rect x="986.6" y="258.0" width="6" height="8" rx="1" fill="url(#windowGlow)" opacity="0.71079898868259"/>
<rect x="1000.6" y="258.0" width="6" height="8" rx="1" fill="url(#windowGlow)" opacity="0.9005560344087686"/>
<rect x="1014.6" y="258.0" width="6" height="8" rx="1" fill="url(#windowGlow)" opacity="0.7913516246207764"/>
<rect x="998.6" y="284.0" width="10" height="16" rx="2" fill="url(#roof_navyRoof)" opacity="0.8"/>
<rect x="1000.6" y="287.0" width="6" height="10" rx="1" fill="url(#windowGlow)" opacity="0.45"/>
<path d="M284.8 285.0 Q313.5 263.2 302.0 241.4" stroke="#92400e" stroke-width="4" fill="none" stroke-linecap="round"/>
<path d="M302.0 241.4 Q290.5 230.6 282.8 230.8" stroke="#16a34a" stroke-width="2.5" fill="none" stroke-linecap="round"/>
<path d="M302.0 241.4 Q307.9 229.4 311.9 228.2" stroke="#22c55e" stroke-width="2.5" fill="none" stroke-linecap="round"/>
<path d="M302.0 241.4 Q321.9 235.4 335.1 241.4" stroke="#15803d" stroke-width="2.5" fill="none" stroke-linecap="round"/>
<path d="M302.0 241.4 Q309.2 242.6 314.0 257.4" stroke="#4ade80" stroke-width="2.5" fill="none" stroke-linecap="round"/>
<path d="M302.0 241.4 Q292.8 239.2 286.7 249.8" stroke="#16a34a" stroke-width="2.5" fill="none" stroke-linecap="round"/>
<path d="M580.8 285.0 Q609.5 253.0 598.0 221.1" stroke="#92400e" stroke-width="4" fill="none" stroke-linecap="round"/>
<path d="M598.0 221.1 Q588.1 210.9 581.5 212.0" stroke="#16a34a" stroke-width="2.5" fill="none" stroke-linecap="round"/>
<path d="M598.0 221.1 Q604.1 208.9 608.2 207.5" stroke="#22c55e" stroke-width="2.5" fill="none" stroke-linecap="round"/>
<path d="M598.0 221.1 Q617.4 215.1 630.2 221.1" stroke="#15803d" stroke-width="2.5" fill="none" stroke-linecap="round"/>
<path d="M598.0 221.1 Q604.8 221.9 609.4 236.2" stroke="#4ade80" stroke-width="2.5" fill="none" stroke-linecap="round"/>
<path d="M598.0 221.1 Q584.9 220.6 576.1 233.1" stroke="#16a34a" stroke-width="2.5" fill="none" stroke-linecap="round"/>
<path d="M875.0 285.0 Q902.2 253.7 891.4 222.4" stroke="#92400e" stroke-width="4" fill="none" stroke-linecap="round"/>
<path d="M891.4 222.4 Q879.4 211.4 871.4 211.4" stroke="#16a34a" stroke-width="2.5" fill="none" stroke-linecap="round"/>
<path d="M891.4 222.4 Q898.5 209.2 903.3 206.5" stroke="#22c55e" stroke-width="2.5" fill="none" stroke-linecap="round"/>
<path d="M891.4 222.4 Q904.5 216.4 913.3 222.4" stroke="#15803d" stroke-width="2.5" fill="none" stroke-linecap="round"/>
<path d="M891.4 222.4 Q896.1 221.1 899.2 232.9" stroke="#4ade80" stroke-width="2.5" fill="none" stroke-linecap="round"/>
<path d="M891.4 222.4 Q879.6 221.3 871.8 233.1" stroke="#16a34a" stroke-width="2.5" fill="none" stroke-linecap="round"/>
<path d="M83.3 285.0 Q101.8 262.7 94.4 240.5" stroke="#92400e" stroke-width="4" fill="none" stroke-linecap="round"/>
<path d="M94.4 240.5 Q84.4 230.3 77.7 231.3" stroke="#16a34a" stroke-width="2.5" fill="none" stroke-linecap="round"/>
<path d="M94.4 240.5 Q99.4 229.4 102.8 229.3" stroke="#22c55e" stroke-width="2.5" fill="none" stroke-linecap="round"/>
<path d="M94.4 240.5 Q108.4 234.5 117.7 240.5" stroke="#15803d" stroke-width="2.5" fill="none" stroke-linecap="round"/>
<path d="M94.4 240.5 Q101.7 241.9 106.6 256.7" stroke="#4ade80" stroke-width="2.5" fill="none" stroke-linecap="round"/>
<path d="M94.4 240.5 Q83.6 239.0 76.4 250.4" stroke="#16a34a" stroke-width="2.5" fill="none" stroke-linecap="round"/>
<path d="M1074.2 285.0 Q1089.0 257.6 1083.1 230.3" stroke="#92400e" stroke-width="4" fill="none" stroke-linecap="round"/>
<path d="M1083.1 230.3 Q1073.3 220.2 1066.8 221.3" stroke="#16a34a" stroke-width="2.5" fill="none" stroke-linecap="round"/>
<path d="M1083.1 230.3 Q1089.6 217.7 1094.0 215.8" stroke="#22c55e" stroke-width="2.5" fill="none" stroke-linecap="round"/>
<path d="M1083.1 230.3 Q1102.7 224.3 1115.8 230.3" stroke="#15803d" stroke-width="2.5" fill="none" stroke-linecap="round"/>
<path d="M1083.1 230.3 Q1088.9 230.1 1092.7 243.1" stroke="#4ade80" stroke-width="2.5" fill="none" stroke-linecap="round"/>
<path d="M1083.1 230.3 Q1072.7 228.6 1065.7 239.8" stroke="#16a34a" stroke-width="2.5" fill="none" stroke-linecap="round"/>
<path d="M961.3 285.0 Q980.5 263.1 972.8 241.2" stroke="#92400e" stroke-width="4" fill="none" stroke-linecap="round"/>
<path d="M972.8 241.2 Q961.4 230.5 953.8 230.8" stroke="#16a34a" stroke-width="2.5" fill="none" stroke-linecap="round"/>
<path d="M972.8 241.2 Q980.5 227.5 985.6 224.2" stroke="#22c55e" stroke-width="2.5" fill="none" stroke-linecap="round"/>
<path d="M972.8 241.2 Q989.2 235.2 1000.0 241.2" stroke="#15803d" stroke-width="2.5" fill="none" stroke-linecap="round"/>
<path d="M972.8 241.2 Q977.7 240.1 981.0 252.0" stroke="#4ade80" stroke-width="2.5" fill="none" stroke-linecap="round"/>
<path d="M972.8 241.2 Q959.9 240.6 951.3 253.1" stroke="#16a34a" stroke-width="2.5" fill="none" stroke-linecap="round"/>
<path d="M949.3 285.0 Q974.1 258.4 964.2 231.8" stroke="#92400e" stroke-width="4" fill="none" stroke-linecap="round"/>
<path d="M964.2 231.8 Q952.5 220.9 944.7 221.1" stroke="#16a34a" stroke-width="2.5" fill="none" stroke-linecap="round"/>
<path d="M964.2 231.8 Q971.6 218.3 976.6 215.2" stroke="#22c55e" stroke-width="2.5" fill="none" stroke-linecap="round"/>
<path d="M964.2 231.8 Q982.9 225.8 995.4 231.8" stroke="#15803d" stroke-width="2.5" fill="none" stroke-linecap="round"/>
<path d="M964.2 231.8 Q969.6 231.3 973.3 243.8" stroke="#4ade80" stroke-width="2.5" fill="none" stroke-linecap="round"/>
<path d="M964.2 231.8 Q950.6 231.4 941.6 244.2" stroke="#16a34a" stroke-width="2.5" fill="none" stroke-linecap="round"/>
<path d="M872.5 285.0 Q898.5 253.9 888.1 222.8" stroke="#92400e" stroke-width="4" fill="none" stroke-linecap="round"/>
<path d="M888.1 222.8 Q876.6 212.0 868.9 212.3" stroke="#16a34a" stroke-width="2.5" fill="none" stroke-linecap="round"/>
<path d="M888.1 222.8 Q895.8 209.1 900.9 205.8" stroke="#22c55e" stroke-width="2.5" fill="none" stroke-linecap="round"/>
<path d="M888.1 222.8 Q907.2 216.8 920.0 222.8" stroke="#15803d" stroke-width="2.5" fill="none" stroke-linecap="round"/>
<path d="M888.1 222.8 Q895.1 223.9 899.8 238.3" stroke="#4ade80" stroke-width="2.5" fill="none" stroke-linecap="round"/>
<path d="M888.1 222.8 Q874.0 222.7 864.7 235.7" stroke="#16a34a" stroke-width="2.5" fill="none" stroke-linecap="round"/>
<rect x="0" y="282" width="1200" height="18" fill="url(#groundGrad)"/>
<line x1="379.0" y1="282.0" x2="379.0" y2="251.1" stroke="#92400e" stroke-width="2"/>
<circle cx="379.0" cy="251.1" r="4" fill="#fef08a" opacity="0.6"/>
<circle cx="379.0" cy="251.1" r="8" fill="#fef08a" opacity="0.15" filter="url(#softGlow)"/>
<ellipse cx="834.2" cy="282.0" rx="6.3" ry="4.4" fill="#22c55e" opacity="0.6"/>
<ellipse cx="1146.1" cy="282.0" rx="4.2" ry="2.9" fill="#22c55e" opacity="0.6"/>
</svg>