<svg xmlns="http://www.w3.org/2000/svg" viewBox="0 0 1200 400" width="1200" height="400">
<defs>
<linearGradient id="bg" x1="0" y1="0" x2="0" y2="1"><stop offset="0%" stop-color="#a16207"/><stop offset="100%" stop-color="#c2410c"/></linearGradient>
<linearGradient id="warm" x1="0" y1="0" x2="1" y2="1"><stop offset="0%" stop-color="#858d98" stop-opacity="0.18"/><stop offset="100%" stop-color="#858d98" stop-opacity="0.06"/></linearGradient>
</defs>
<rect width="1200" height="400" fill="url(#bg)"/>
<path d="M0 400 L0 231.11877362839374 C60.0 233.7, 90.0 241.5, 150.0 232.5 C210.0 235.8, 240.0 235.5, 300.0 237.8 C360.0 231.9, 390.0 225.2, 450.0 225.0 C510.0 233.9, 540.0 223.6, 600.0 231.7 C660.0 225.1, 690.0 247.0, 750.0 247.5 C810.0 246.0, 840.0 228.5, 900.0 223.6 C960.0 221.6, 990.0 247.6, 1050.0 250.1 C1110.0 241.5, 1140.0 255.4, 1200.0 255.8 L1200 400 Z" fill="#b64d0a" opacity="0.45"/>
<path d="M0 400 L0 267.50348099701756 C52.5 263.9, 97.5 265.3, 150.0 262.7 C202.5 261.5, 247.5 266.8, 300.0 268.1 C352.5 269.1, 397.5 266.1, 450.0 271.9 C502.5 265.9, 547.5 261.5, 600.0 261.6 C652.5 254.8, 697.5 264.2, 750.0 258.0 C802.5 258.0, 847.5 281.6, 900.0 277.7 C952.5 276.3, 997.5 276.6, 1050.0 270.0 C1102.5 272.6, 1147.5 264.8, 1200.0 257.8 L1200 400 Z" fill="#c2410c" opacity="0.3"/>
<rect x="486.1" y="333.0" width="16.4" height="67.0" rx="3.0" fill="#689f0d" opacity="0.74"/>
<rect x="899.1" y="371.0" width="21.9" height="29.0" rx="7.2" fill="#877f0d" opacity="0.51"/>
<rect x="904.6" y="343.5" width="46.3" height="56.5" rx="7.6" fill="#73940d" opacity="0.71"/>
<rect x="326.5" y="322.0" width="32.8" height="78.0" rx="6.1" fill="#83830d" opacity="0.72"/>
<rect x="411.8" y="281.4" width="24.5" height="118.6" rx="7.4" fill="#73950d" opacity="0.53"/>
<rect x="834.3" y="277.5" width="22.5" height="122.5" rx="7.1" fill="#8b7b0d" opacity="0.65"/>
<rect x="129.8" y="334.3" width="42.2" height="65.7" rx="3.7" fill="#65a30d" opacity="0.71"/>
<rect x="327.5" y="303.4" width="41.8" height="96.6" rx="5.6" fill="#7b8b0d" opacity="0.84"/>
<rect x="549.6" y="339.7" width="41.2" height="60.3" rx="4.2" fill="#68a00d" opacity="0.84"/>
<rect x="634.6" y="339.7" width="14.7" height="60.3" rx="6.1" fill="#8e780d" opacity="0.65"/>
<rect x="1013.9" y="327.3" width="44.6" height="72.7" rx="7.0" fill="#8e770d" opacity="0.74"/>
<rect x="269.4" y="310.9" width="35.8" height="89.1" rx="3.6" fill="#90760d" opacity="0.52"/>
<rect x="274.4" y="320.9" width="4" height="5" rx="0.5" fill="#a16207" opacity="0.6"/>
<rect x="274.4" y="342.9" width="4" height="5" rx="0.5" fill="#a16207" opacity="0.6"/>
<rect x="286.3" y="342.9" width="4" height="5" rx="0.5" fill="#a16207" opacity="0.6"/>
<rect x="274.4" y="364.9" width="4" height="5" rx="0.5" fill="#a16207" opacity="0.6"/>
<rect x="286.3" y="364.9" width="4" height="5" rx="0.5" fill="#a16207" opacity="0.6"/>
<rect x="981.4" y="361.7" width="23.0" height="38.3" rx="7.6" fill="#6f990d" opacity="0.57"/>
<polygon points="478.4,186.4 471.6,198.1 485.1,198.1" fill="#a16207" opacity="0.33"/>
<polygon points="415.3,197.4 405.9,213.6 424.6,213.6" fill="#a16207" opacity="0.33"/>
<rect width="1200" height="400" fill="url(#warm)"/>
<rect width="1200" height="400" fill="#a16207" opacity="0.40"/>
</svg>