<svg xmlns="http://www.w3.org/2000/svg" viewBox="0 0 1200 300" width="1200" height="300">
<defs><linearGradient id="skyGrad" x1="0" y1="0" x2="0" y2="1"><stop offset="0%" stop-color="#e8f0f8"/><stop offset="100%" stop-color="#f5e6d8"/></linearGradient></defs><rect width="1200" height="300" fill="url(#skyGrad)"/>
<path d="M0 300 L0 198.2 C294.5 181.5, 804.3 189.8, 1200 198.2 L1200 300 Z" fill="#e4c4a8" opacity="0.25"/>
<rect x="174.9" y="177.7" width="43.1" height="122.3" fill="#daae87"/>
<rect x="460.4" y="195.8" width="71.5" height="104.2" fill="#daae87"/>
<rect x="687.6" y="206.9" width="59.3" height="93.1" fill="#daae87"/>
<polygon points="687.6,206.9 717.3,192.1 746.9,206.9" fill="#c9a07c"/>
<rect x="949.1" y="240.5" width="87.2" height="59.5" fill="#daae87"/>
<rect x="964.4" y="230.0" width="56.7" height="10.5" fill="#cfa580"/>
<rect x="110.4" y="178.0" width="56.3" height="122.0" fill="#c98951"/>
<rect x="120.2" y="156.4" width="36.6" height="21.5" fill="#bf824d"/>
<rect x="128.5" y="184.4" width="6" height="8" fill="#dcb28e" opacity="0.5"/>
<rect x="142.5" y="200.4" width="6" height="8" fill="#dcb28e" opacity="0.5"/>
<rect x="128.5" y="216.4" width="6" height="8" fill="#dcb28e" opacity="0.5"/>
<rect x="142.5" y="216.4" width="6" height="8" fill="#dcb28e" opacity="0.5"/>
<rect x="142.5" y="232.4" width="6" height="8" fill="#dcb28e" opacity="0.5"/>
<rect x="142.5" y="248.4" width="6" height="8" fill="#dcb28e" opacity="0.5"/>
<rect x="337.0" y="215.8" width="53.1" height="84.2" fill="#c98951"/>
<rect x="367.6" y="227.8" width="6" height="8" fill="#dcb28e" opacity="0.5"/>
<rect x="353.6" y="243.8" width="6" height="8" fill="#dcb28e" opacity="0.5"/>
<rect x="367.6" y="243.8" width="6" height="8" fill="#dcb28e" opacity="0.5"/>
<rect x="367.6" y="259.8" width="6" height="8" fill="#dcb28e" opacity="0.5"/>
<rect x="564.1" y="202.7" width="56.7" height="97.3" fill="#c98951"/>
<rect x="582.4" y="214.7" width="6" height="8" fill="#dcb28e" opacity="0.5"/>
<rect x="582.4" y="230.7" width="6" height="8" fill="#dcb28e" opacity="0.5"/>
<rect x="582.4" y="246.7" width="6" height="8" fill="#dcb28e" opacity="0.5"/>
<rect x="596.4" y="262.7" width="6" height="8" fill="#dcb28e" opacity="0.5"/>
<rect x="806.7" y="206.7" width="54.6" height="93.3" fill="#c98951"/>
<polygon points="806.7,206.7 834.0,193.0 861.3,206.7" fill="#b97e4b"/>
<rect x="824.0" y="218.7" width="6" height="8" fill="#dcb28e" opacity="0.5"/>
<rect x="838.0" y="218.7" width="6" height="8" fill="#dcb28e" opacity="0.5"/>
<rect x="824.0" y="234.7" width="6" height="8" fill="#dcb28e" opacity="0.5"/>
<rect x="838.0" y="234.7" width="6" height="8" fill="#dcb28e" opacity="0.5"/>
<rect x="824.0" y="250.7" width="6" height="8" fill="#dcb28e" opacity="0.5"/>
<rect x="824.0" y="266.7" width="6" height="8" fill="#dcb28e" opacity="0.5"/>
<rect x="838.0" y="266.7" width="6" height="8" fill="#dcb28e" opacity="0.5"/>
<rect x="1059.5" y="177.0" width="36.4" height="123.0" fill="#c98951"/>
<polygon points="1059.5,177.0 1077.7,167.9 1095.9,177.0" fill="#b97e4b"/>
<rect x="1074.7" y="221.0" width="6" height="8" fill="#dcb28e" opacity="0.5"/>
<rect x="1074.7" y="237.0" width="6" height="8" fill="#dcb28e" opacity="0.5"/>
<rect x="1074.7" y="253.0" width="6" height="8" fill="#dcb28e" opacity="0.5"/>
<rect x="111.9" y="152.9" width="31.1" height="147.1" fill="#bc6c25"/>
<rect x="124.4" y="164.9" width="6" height="8" fill="#d39f71" opacity="0.5"/>
<rect x="124.4" y="180.9" width="6" height="8" fill="#d39f71" opacity="0.5"/>
<rect x="124.4" y="212.9" width="6" height="8" fill="#d39f71" opacity="0.5"/>
<rect x="124.4" y="244.9" width="6" height="8" fill="#d39f71" opacity="0.5"/>
<rect x="341.4" y="168.6" width="49.0" height="131.4" fill="#bc6c25"/>
<polygon points="341.4,168.6 365.9,156.3 390.4,168.6" fill="#ad6322"/>
<rect x="369.9" y="180.6" width="6" height="8" fill="#d39f71" opacity="0.5"/>
<rect x="355.9" y="212.6" width="6" height="8" fill="#d39f71" opacity="0.5"/>
<rect x="369.9" y="212.6" width="6" height="8" fill="#d39f71" opacity="0.5"/>
<rect x="355.9" y="228.6" width="6" height="8" fill="#d39f71" opacity="0.5"/>
<rect x="369.9" y="228.6" width="6" height="8" fill="#d39f71" opacity="0.5"/>
<rect x="355.9" y="244.6" width="6" height="8" fill="#d39f71" opacity="0.5"/>
<rect x="369.9" y="244.6" width="6" height="8" fill="#d39f71" opacity="0.5"/>
<rect x="355.9" y="260.6" width="6" height="8" fill="#d39f71" opacity="0.5"/>
<rect x="369.9" y="260.6" width="6" height="8" fill="#d39f71" opacity="0.5"/>
<rect x="555.2" y="178.8" width="35.2" height="121.2" fill="#bc6c25"/>
<rect x="569.8" y="190.8" width="6" height="8" fill="#d39f71" opacity="0.5"/>
<rect x="569.8" y="206.8" width="6" height="8" fill="#d39f71" opacity="0.5"/>
<rect x="569.8" y="222.8" width="6" height="8" fill="#d39f71" opacity="0.5"/>
<rect x="569.8" y="270.8" width="6" height="8" fill="#d39f71" opacity="0.5"/>
<rect x="840.4" y="177.9" width="32.2" height="122.1" fill="#bc6c25"/>
<polygon points="840.4,177.9 856.5,169.8 872.6,177.9" fill="#ad6322"/>
<rect x="853.5" y="189.9" width="6" height="8" fill="#d39f71" opacity="0.5"/>
<rect x="853.5" y="205.9" width="6" height="8" fill="#d39f71" opacity="0.5"/>
<rect x="853.5" y="221.9" width="6" height="8" fill="#d39f71" opacity="0.5"/>
<rect x="853.5" y="237.9" width="6" height="8" fill="#d39f71" opacity="0.5"/>
<rect x="853.5" y="253.9" width="6" height="8" fill="#d39f71" opacity="0.5"/>
<rect x="853.5" y="269.9" width="6" height="8" fill="#d39f71" opacity="0.5"/>
<rect x="1017.8" y="142.1" width="64.3" height="157.9" fill="#bc6c25"/>
<rect x="1029.1" y="114.2" width="41.8" height="27.9" fill="#b36723"/>
<rect x="1061.0" y="126.2" width="6" height="8" fill="#d39f71" opacity="0.5"/>
<rect x="1033.0" y="142.2" width="6" height="8" fill="#d39f71" opacity="0.5"/>
<rect x="1033.0" y="158.2" width="6" height="8" fill="#d39f71" opacity="0.5"/>
<rect x="1047.0" y="158.2" width="6" height="8" fill="#d39f71" opacity="0.5"/>
<rect x="1061.0" y="158.2" width="6" height="8" fill="#d39f71" opacity="0.5"/>
<rect x="1033.0" y="174.2" width="6" height="8" fill="#d39f71" opacity="0.5"/>
<rect x="1047.0" y="174.2" width="6" height="8" fill="#d39f71" opacity="0.5"/>
<rect x="1033.0" y="190.2" width="6" height="8" fill="#d39f71" opacity="0.5"/>
<rect x="1047.0" y="190.2" width="6" height="8" fill="#d39f71" opacity="0.5"/>
<rect x="1061.0" y="190.2" width="6" height="8" fill="#d39f71" opacity="0.5"/>
<rect x="1033.0" y="206.2" width="6" height="8" fill="#d39f71" opacity="0.5"/>
<rect x="1047.0" y="206.2" width="6" height="8" fill="#d39f71" opacity="0.5"/>
<rect x="1061.0" y="206.2" width="6" height="8" fill="#d39f71" opacity="0.5"/>
<path d="M242.2 285.0 Q265.4 257.1 258.5 229.3" fill="none" stroke="#836c50" stroke-width="3"/>
<path d="M258.5 229.3 Q244.1 219.1 234.5 218.9" fill="none" stroke="#47873d" stroke-width="2.5"/>
<path d="M258.5 229.3 Q263.6 216.4 267.0 213.4" fill="none" stroke="#47873d" stroke-width="2.5"/>
<path d="M258.5 229.3 Q270.1 224.3 277.8 229.3" fill="none" stroke="#47873d" stroke-width="2.5"/>
<path d="M258.5 229.3 Q262.9 231.1 265.8 242.9" fill="none" stroke="#47873d" stroke-width="2.5"/>
<path d="M258.5 229.3 Q247.5 228.3 240.2 237.2" fill="none" stroke="#47873d" stroke-width="2.5"/>
<path d="M472.8 285.0 Q489.8 260.0 484.7 235.0" fill="none" stroke="#79644a" stroke-width="3"/>
<path d="M484.7 235.0 Q473.6 225.9 466.3 226.9" fill="none" stroke="#46853c" stroke-width="2.5"/>
<path d="M484.7 235.0 Q490.0 221.7 493.6 218.4" fill="none" stroke="#46853c" stroke-width="2.5"/>
<path d="M484.7 235.0 Q498.1 230.0 507.1 235.0" fill="none" stroke="#46853c" stroke-width="2.5"/>
<path d="M484.7 235.0 Q490.2 238.4 493.8 251.9" fill="none" stroke="#46853c" stroke-width="2.5"/>
<path d="M484.7 235.0 Q472.6 234.3 464.6 243.7" fill="none" stroke="#46853c" stroke-width="2.5"/>
<path d="M715.4 285.0 Q735.2 255.9 729.2 226.7" fill="none" stroke="#7f694e" stroke-width="3"/>
<path d="M729.2 226.7 Q715.5 216.8 706.4 216.8" fill="none" stroke="#438039" stroke-width="2.5"/>
<path d="M729.2 226.7 Q733.9 214.6 737.0 212.4" fill="none" stroke="#438039" stroke-width="2.5"/>
<path d="M729.2 226.7 Q743.7 221.7 753.4 226.7" fill="none" stroke="#438039" stroke-width="2.5"/>
<path d="M729.2 226.7 Q733.0 227.5 735.5 238.3" fill="none" stroke="#438039" stroke-width="2.5"/>
<path d="M729.2 226.7 Q715.2 226.8 705.9 236.9" fill="none" stroke="#438039" stroke-width="2.5"/>
<path d="M945.2 285.0 Q962.7 260.5 957.5 236.0" fill="none" stroke="#776248" stroke-width="3"/>
<path d="M957.5 236.0 Q944.3 226.2 935.5 226.4" fill="none" stroke="#4a8b3f" stroke-width="2.5"/>
<path d="M957.5 236.0 Q962.8 222.7 966.4 219.4" fill="none" stroke="#4a8b3f" stroke-width="2.5"/>
<path d="M957.5 236.0 Q974.3 231.0 985.5 236.0" fill="none" stroke="#4a8b3f" stroke-width="2.5"/>
<path d="M957.5 236.0 Q961.3 236.8 963.8 247.7" fill="none" stroke="#4a8b3f" stroke-width="2.5"/>
<path d="M957.5 236.0 Q946.3 235.0 938.9 244.1" fill="none" stroke="#4a8b3f" stroke-width="2.5"/>
<path d="M671.0 285.0 Q691.3 263.2 685.2 241.3" fill="none" stroke="#876f52" stroke-width="3"/>
<path d="M685.2 241.3 Q671.7 231.4 662.7 231.5" fill="none" stroke="#44813a" stroke-width="2.5"/>
<path d="M685.2 241.3 Q690.5 228.1 694.1 225.0" fill="none" stroke="#44813a" stroke-width="2.5"/>
<path d="M685.2 241.3 Q699.5 236.3 709.0 241.3" fill="none" stroke="#44813a" stroke-width="2.5"/>
<path d="M685.2 241.3 Q690.3 244.2 693.8 257.2" fill="none" stroke="#44813a" stroke-width="2.5"/>
<path d="M685.2 241.3 Q671.4 241.3 662.2 251.4" fill="none" stroke="#44813a" stroke-width="2.5"/>
<path d="M182.2 285.0 Q203.4 255.2 197.1 225.5" fill="none" stroke="#78644a" stroke-width="3"/>
<path d="M197.1 225.5 Q185.3 216.2 177.5 216.9" fill="none" stroke="#498b3e" stroke-width="2.5"/>
<path d="M197.1 225.5 Q200.7 214.9 203.1 214.3" fill="none" stroke="#498b3e" stroke-width="2.5"/>
<path d="M197.1 225.5 Q213.5 220.5 224.5 225.5" fill="none" stroke="#498b3e" stroke-width="2.5"/>
<path d="M197.1 225.5 Q200.8 226.2 203.3 237.0" fill="none" stroke="#498b3e" stroke-width="2.5"/>
<path d="M197.1 225.5 Q184.4 225.1 175.9 234.7" fill="none" stroke="#498b3e" stroke-width="2.5"/>
<path d="M651.0 285.0 Q679.3 257.1 670.8 229.1" fill="none" stroke="#776349" stroke-width="3"/>
<path d="M670.8 229.1 Q660.9 220.5 654.3 221.9" fill="none" stroke="#44813a" stroke-width="2.5"/>
<path d="M670.8 229.1 Q674.7 218.2 677.3 217.3" fill="none" stroke="#44813a" stroke-width="2.5"/>
<path d="M670.8 229.1 Q686.3 224.1 696.6 229.1" fill="none" stroke="#44813a" stroke-width="2.5"/>
<path d="M670.8 229.1 Q675.8 231.8 679.1 244.5" fill="none" stroke="#44813a" stroke-width="2.5"/>
<path d="M670.8 229.1 Q658.3 228.7 649.9 238.3" fill="none" stroke="#44813a" stroke-width="2.5"/>
<path d="M878.6 285.0 Q901.9 261.9 894.9 238.8" fill="none" stroke="#7b654b" stroke-width="3"/>
<path d="M894.9 238.8 Q885.2 230.3 878.7 231.7" fill="none" stroke="#437f39" stroke-width="2.5"/>
<path d="M894.9 238.8 Q900.2 225.6 903.7 222.5" fill="none" stroke="#437f39" stroke-width="2.5"/>
<path d="M894.9 238.8 Q910.4 233.8 920.7 238.8" fill="none" stroke="#437f39" stroke-width="2.5"/>
<path d="M894.9 238.8 Q898.8 239.9 901.5 251.0" fill="none" stroke="#437f39" stroke-width="2.5"/>
<path d="M894.9 238.8 Q880.7 238.9 871.2 249.1" fill="none" stroke="#437f39" stroke-width="2.5"/>
<rect x="0" y="285" width="1200" height="15" fill="#9aaa85" opacity="0.4"/>
<circle cx="1035.9" cy="25.9" r="34.7" fill="#f5e6a0" opacity="0.1"/>
</svg>