<svg xmlns="http://www.w3.org/2000/svg" viewBox="0 0 1200 300" width="1200" height="300">
<defs><linearGradient id="skyGrad" x1="0" y1="0" x2="0" y2="1"><stop offset="0%" stop-color="#e8f0f8"/><stop offset="100%" stop-color="#f5e6d8"/></linearGradient></defs><rect width="1200" height="300" fill="url(#skyGrad)"/>
<rect x="163.3" y="228.6" width="40.8" height="71.4" fill="#aeb0a5"/>
<rect x="402.9" y="234.2" width="41.7" height="65.8" fill="#aeb0a5"/>
<polygon points="402.9,234.2 423.8,223.8 444.6,234.2" fill="#a0a298"/>
<rect x="736.8" y="227.1" width="84.5" height="72.9" fill="#aeb0a5"/>
<polygon points="736.8,227.1 779.1,205.9 821.4,227.1" fill="#a0a298"/>
<rect x="1006.0" y="200.7" width="49.7" height="99.3" fill="#aeb0a5"/>
<polygon points="1006.0,200.7 1030.9,188.3 1055.8,200.7" fill="#a0a298"/>
<rect x="117.2" y="179.1" width="50.5" height="120.9" fill="#898d7d"/>
<rect x="132.5" y="191.1" width="6" height="8" fill="#b2b5ab" opacity="0.5"/>
<rect x="146.5" y="191.1" width="6" height="8" fill="#b2b5ab" opacity="0.5"/>
<rect x="132.5" y="207.1" width="6" height="8" fill="#b2b5ab" opacity="0.5"/>
<rect x="146.5" y="207.1" width="6" height="8" fill="#b2b5ab" opacity="0.5"/>
<rect x="132.5" y="255.1" width="6" height="8" fill="#b2b5ab" opacity="0.5"/>
<rect x="132.5" y="271.1" width="6" height="8" fill="#b2b5ab" opacity="0.5"/>
<rect x="352.7" y="169.9" width="36.7" height="130.1" fill="#898d7d"/>
<rect x="368.0" y="181.9" width="6" height="8" fill="#b2b5ab" opacity="0.5"/>
<rect x="368.0" y="197.9" width="6" height="8" fill="#b2b5ab" opacity="0.5"/>
<rect x="368.0" y="213.9" width="6" height="8" fill="#b2b5ab" opacity="0.5"/>
<rect x="368.0" y="229.9" width="6" height="8" fill="#b2b5ab" opacity="0.5"/>
<rect x="368.0" y="245.9" width="6" height="8" fill="#b2b5ab" opacity="0.5"/>
<rect x="368.0" y="261.9" width="6" height="8" fill="#b2b5ab" opacity="0.5"/>
<rect x="558.6" y="172.4" width="64.7" height="127.6" fill="#898d7d"/>
<rect x="587.9" y="184.4" width="6" height="8" fill="#b2b5ab" opacity="0.5"/>
<rect x="573.9" y="200.4" width="6" height="8" fill="#b2b5ab" opacity="0.5"/>
<rect x="587.9" y="200.4" width="6" height="8" fill="#b2b5ab" opacity="0.5"/>
<rect x="601.9" y="200.4" width="6" height="8" fill="#b2b5ab" opacity="0.5"/>
<rect x="573.9" y="232.4" width="6" height="8" fill="#b2b5ab" opacity="0.5"/>
<rect x="601.9" y="232.4" width="6" height="8" fill="#b2b5ab" opacity="0.5"/>
<rect x="573.9" y="248.4" width="6" height="8" fill="#b2b5ab" opacity="0.5"/>
<rect x="587.9" y="248.4" width="6" height="8" fill="#b2b5ab" opacity="0.5"/>
<rect x="601.9" y="248.4" width="6" height="8" fill="#b2b5ab" opacity="0.5"/>
<rect x="587.9" y="264.4" width="6" height="8" fill="#b2b5ab" opacity="0.5"/>
<rect x="601.9" y="264.4" width="6" height="8" fill="#b2b5ab" opacity="0.5"/>
<rect x="809.8" y="205.4" width="47.0" height="94.6" fill="#898d7d"/>
<rect x="823.2" y="217.4" width="6" height="8" fill="#b2b5ab" opacity="0.5"/>
<rect x="823.2" y="233.4" width="6" height="8" fill="#b2b5ab" opacity="0.5"/>
<rect x="823.2" y="249.4" width="6" height="8" fill="#b2b5ab" opacity="0.5"/>
<rect x="823.2" y="265.4" width="6" height="8" fill="#b2b5ab" opacity="0.5"/>
<rect x="1041.2" y="215.0" width="44.7" height="85.0" fill="#898d7d"/>
<rect x="1067.6" y="227.0" width="6" height="8" fill="#b2b5ab" opacity="0.5"/>
<rect x="1053.6" y="243.0" width="6" height="8" fill="#b2b5ab" opacity="0.5"/>
<rect x="1067.6" y="243.0" width="6" height="8" fill="#b2b5ab" opacity="0.5"/>
<rect x="159.2" y="257.1" width="65.7" height="42.9" fill="#6b705c"/>
<rect x="170.7" y="249.5" width="42.7" height="7.6" fill="#666a57"/>
<rect x="457.2" y="234.1" width="46.9" height="65.9" fill="#6b705c"/>
<rect x="484.7" y="246.1" width="6" height="8" fill="#9fa295" opacity="0.5"/>
<rect x="470.7" y="262.1" width="6" height="8" fill="#9fa295" opacity="0.5"/>
<rect x="484.7" y="262.1" width="6" height="8" fill="#9fa295" opacity="0.5"/>
<rect x="726.9" y="245.8" width="45.4" height="54.2" fill="#6b705c"/>
<polygon points="726.9,245.8 749.6,234.5 772.3,245.8" fill="#626755"/>
<rect x="1023.2" y="188.3" width="60.8" height="111.7" fill="#6b705c"/>
<polygon points="1023.2,188.3 1053.6,173.1 1084.0,188.3" fill="#626755"/>
<rect x="1036.6" y="200.3" width="6" height="8" fill="#9fa295" opacity="0.5"/>
<rect x="1050.6" y="216.3" width="6" height="8" fill="#9fa295" opacity="0.5"/>
<rect x="1036.6" y="232.3" width="6" height="8" fill="#9fa295" opacity="0.5"/>
<rect x="1050.6" y="232.3" width="6" height="8" fill="#9fa295" opacity="0.5"/>
<rect x="1064.6" y="232.3" width="6" height="8" fill="#9fa295" opacity="0.5"/>
<rect x="1036.6" y="248.3" width="6" height="8" fill="#9fa295" opacity="0.5"/>
<rect x="1050.6" y="248.3" width="6" height="8" fill="#9fa295" opacity="0.5"/>
<rect x="1064.6" y="248.3" width="6" height="8" fill="#9fa295" opacity="0.5"/>
<rect x="1036.6" y="264.3" width="6" height="8" fill="#9fa295" opacity="0.5"/>
<rect x="1050.6" y="264.3" width="6" height="8" fill="#9fa295" opacity="0.5"/>
<rect x="1064.6" y="264.3" width="6" height="8" fill="#9fa295" opacity="0.5"/>
<line x1="341.1" y1="285.0" x2="341.1" y2="273.2" stroke="#6b5a42" stroke-width="3"/>
<circle cx="341.1" cy="261.2" r="12.1" fill="#598b49"/>
<line x1="615.5" y1="285.0" x2="615.5" y2="269.3" stroke="#6b5a42" stroke-width="3"/>
<circle cx="615.5" cy="254.5" r="14.8" fill="#568647"/>
<line x1="897.7" y1="285.0" x2="897.7" y2="274.6" stroke="#6b5a42" stroke-width="3"/>
<circle cx="897.7" cy="261.7" r="12.9" fill="#4f7c41"/>
<line x1="1147.7" y1="285.0" x2="1147.7" y2="273.3" stroke="#6b5a42" stroke-width="3"/>
<circle cx="1147.7" cy="255.5" r="17.8" fill="#527f43"/>
<line x1="378.3" y1="285.0" x2="378.3" y2="271.7" stroke="#6b5a42" stroke-width="3"/>
<circle cx="378.3" cy="259.4" r="12.4" fill="#588948"/>
<line x1="986.8" y1="285.0" x2="986.8" y2="271.9" stroke="#6b5a42" stroke-width="3"/>
<circle cx="986.8" cy="258.9" r="13.0" fill="#527f43"/>
<rect x="0" y="285" width="1200" height="15" fill="#d4c5a9" opacity="0.4"/>
<circle cx="1000.0" cy="35.8" r="27.9" fill="#f5e6a0" opacity="0.1"/>
</svg>