<svg xmlns="http://www.w3.org/2000/svg" viewBox="0 0 1200 400" width="1200" height="400">
<defs>
<linearGradient id="bg" x1="0" y1="0" x2="0" y2="1"><stop offset="0%" stop-color="#15803d"/><stop offset="100%" stop-color="#1d4ed8"/></linearGradient>
<linearGradient id="warm" x1="0" y1="0" x2="1" y2="1"><stop offset="0%" stop-color="#aa936a" stop-opacity="0.18"/><stop offset="100%" stop-color="#aa936a" stop-opacity="0.06"/></linearGradient>
</defs>
<rect width="1200" height="400" fill="url(#bg)"/>
<path d="M0 400 L0 247.78007352685927 C60.0 248.4, 90.0 252.6, 150.0 260.9 C210.0 263.1, 240.0 236.9, 300.0 244.1 C360.0 250.8, 390.0 243.8, 450.0 252.3 C510.0 246.1, 540.0 246.0, 600.0 245.5 C660.0 243.8, 690.0 238.3, 750.0 244.7 C810.0 246.9, 840.0 245.6, 900.0 238.5 C960.0 236.9, 990.0 232.1, 1050.0 238.7 C1110.0 230.8, 1140.0 227.7, 1200.0 236.9 L1200 400 Z" fill="#1a60a2" opacity="0.45"/>
<path d="M0 400 L0 281.8989189100856 C52.5 289.2, 97.5 283.1, 150.0 276.6 C202.5 281.4, 247.5 272.8, 300.0 279.7 C352.5 286.2, 397.5 281.1, 450.0 273.9 C502.5 272.4, 547.5 284.5, 600.0 280.6 C652.5 278.7, 697.5 270.7, 750.0 270.6 C802.5 272.2, 847.5 294.6, 900.0 291.4 C952.5 289.4, 997.5 285.7, 1050.0 286.7 C1102.5 287.3, 1147.5 289.2, 1200.0 283.5 L1200 400 Z" fill="#1d4ed8" opacity="0.3"/>
<rect x="895.0" y="291.7" width="13.2" height="108.3" rx="6.9" fill="#dae3f5" opacity="0.78"/>
<rect x="900.0" y="323.7" width="4" height="5" rx="0.5" fill="#15803d" opacity="0.6"/>
<rect x="900.0" y="345.7" width="4" height="5" rx="0.5" fill="#15803d" opacity="0.6"/>
<rect x="900.0" y="367.7" width="4" height="5" rx="0.5" fill="#15803d" opacity="0.6"/>
<rect x="181.3" y="371.2" width="37.5" height="28.8" rx="7.6" fill="#e9eff8" opacity="0.53"/>
<rect x="774.5" y="327.3" width="25.9" height="72.7" rx="6.3" fill="#89a3e9" opacity="0.55"/>
<rect x="239.4" y="292.1" width="27.6" height="107.9" rx="5.5" fill="#e8eef8" opacity="0.55"/>
<rect x="244.4" y="324.1" width="4" height="5" rx="0.5" fill="#15803d" opacity="0.6"/>
<rect x="244.4" y="346.1" width="4" height="5" rx="0.5" fill="#15803d" opacity="0.6"/>
<rect x="244.4" y="368.1" width="4" height="5" rx="0.5" fill="#15803d" opacity="0.6"/>
<rect x="397.5" y="296.2" width="15.3" height="103.8" rx="3.6" fill="#7795e6" opacity="0.59"/>
<rect x="402.5" y="306.2" width="4" height="5" rx="0.5" fill="#15803d" opacity="0.6"/>
<rect x="402.5" y="328.2" width="4" height="5" rx="0.5" fill="#15803d" opacity="0.6"/>
<rect x="402.5" y="350.2" width="4" height="5" rx="0.5" fill="#15803d" opacity="0.6"/>
<rect x="389.9" y="326.6" width="28.8" height="73.4" rx="5.6" fill="#b6c7f0" opacity="0.82"/>
<rect x="412.1" y="356.1" width="23.2" height="43.9" rx="4.6" fill="#eaf0f8" opacity="0.59"/>
<rect x="985.8" y="325.6" width="29.3" height="74.4" rx="7.8" fill="#b2c3ef" opacity="0.79"/>
<rect x="863.0" y="288.6" width="13.4" height="111.4" rx="3.3" fill="#edf2f8" opacity="0.50"/>
<rect x="365.0" y="336.8" width="34.1" height="63.2" rx="7.5" fill="#94aceb" opacity="0.71"/>
<rect x="130.0" y="321.4" width="33.8" height="78.6" rx="5.3" fill="#7c99e7" opacity="0.84"/>
<polygon points="357.0,56.8 348.7,71.1 365.3,71.1" fill="#15803d" opacity="0.37"/>
<polygon points="220.6,107.7 212.9,120.9 228.2,120.9" fill="#15803d" opacity="0.32"/>
<polygon points="787.6,63.7 779.6,77.4 795.5,77.4" fill="#f1f5f9" opacity="0.15"/>
<rect width="1200" height="400" fill="url(#warm)"/>
<rect width="1200" height="400" fill="#15803d" opacity="0.38"/>
</svg>