<svg xmlns="http://www.w3.org/2000/svg" viewBox="0 0 1200 300" width="1200" height="300">
<defs>
<linearGradient id="skyGrad" x1="0" y1="0" x2="0" y2="1">
<stop offset="0%" stop-color="#a78bfa"/>
<stop offset="18%" stop-color="#ddb4f0"/>
<stop offset="35%" stop-color="#fda4af"/>
<stop offset="52%" stop-color="#fdba74"/>
<stop offset="72%" stop-color="#fef08a"/>
<stop offset="100%" stop-color="#fef9c3"/>
</linearGradient>
<linearGradient id="bldg_coral" x1="0" y1="0" x2="0" y2="1"><stop offset="0%" stop-color="#fecaca"/><stop offset="100%" stop-color="#fca5a5"/></linearGradient>
<linearGradient id="bldg_teal" x1="0" y1="0" x2="0" y2="1"><stop offset="0%" stop-color="#99f6e4"/><stop offset="100%" stop-color="#5eead4"/></linearGradient>
<linearGradient id="bldg_amber" x1="0" y1="0" x2="0" y2="1"><stop offset="0%" stop-color="#fde68a"/><stop offset="100%" stop-color="#fcd34d"/></linearGradient>
<linearGradient id="bldg_lavender" x1="0" y1="0" x2="0" y2="1"><stop offset="0%" stop-color="#ddd6fe"/><stop offset="100%" stop-color="#c4b5fd"/></linearGradient>
<linearGradient id="bldg_blue" x1="0" y1="0" x2="0" y2="1"><stop offset="0%" stop-color="#bfdbfe"/><stop offset="100%" stop-color="#93c5fd"/></linearGradient>
<linearGradient id="bldg_mint" x1="0" y1="0" x2="0" y2="1"><stop offset="0%" stop-color="#a7f3d0"/><stop offset="100%" stop-color="#6ee7b7"/></linearGradient>
<linearGradient id="bldg_rose" x1="0" y1="0" x2="0" y2="1"><stop offset="0%" stop-color="#fecdd3"/><stop offset="100%" stop-color="#fda4af"/></linearGradient>
<linearGradient id="bldg_sky" x1="0" y1="0" x2="0" y2="1"><stop offset="0%" stop-color="#bae6fd"/><stop offset="100%" stop-color="#7dd3fc"/></linearGradient>
<linearGradient id="roof_navyRoof" x1="0" y1="0" x2="0" y2="1"><stop offset="0%" stop-color="#4338ca"/><stop offset="100%" stop-color="#3730a3"/></linearGradient>
<linearGradient id="roof_coralRoof" x1="0" y1="0" x2="0" y2="1"><stop offset="0%" stop-color="#f87171"/><stop offset="100%" stop-color="#ef4444"/></linearGradient>
<linearGradient id="roof_tealRoof" x1="0" y1="0" x2="0" y2="1"><stop offset="0%" stop-color="#2dd4bf"/><stop offset="100%" stop-color="#14b8a6"/></linearGradient>
<radialGradient id="windowGlow" cx="50%" cy="50%" r="50%"><stop offset="0%" stop-color="#fef08a"/><stop offset="60%" stop-color="#fbbf24"/><stop offset="100%" stop-color="#f59e0b"/></radialGradient>
<linearGradient id="hillFar" x1="0" y1="0" x2="0" y2="1"><stop offset="0%" stop-color="#c4b5fd"/><stop offset="100%" stop-color="#a5b4fc"/></linearGradient>
<linearGradient id="hillMid" x1="0" y1="0" x2="0" y2="1"><stop offset="0%" stop-color="#86efac"/><stop offset="100%" stop-color="#4ade80"/></linearGradient>
<linearGradient id="hillNear" x1="0" y1="0" x2="0" y2="1"><stop offset="0%" stop-color="#34d399"/><stop offset="100%" stop-color="#10b981"/></linearGradient>
<linearGradient id="hillDesertFar" x1="0" y1="0" x2="0" y2="1"><stop offset="0%" stop-color="#fde68a"/><stop offset="100%" stop-color="#fcd34d"/></linearGradient>
<linearGradient id="hillDesertMid" x1="0" y1="0" x2="0" y2="1"><stop offset="0%" stop-color="#fcd34d"/><stop offset="100%" stop-color="#fbbf24"/></linearGradient>
<linearGradient id="hillDesertNear" x1="0" y1="0" x2="0" y2="1"><stop offset="0%" stop-color="#fbbf24"/><stop offset="100%" stop-color="#f59e0b"/></linearGradient>
<linearGradient id="groundGrad" x1="0" y1="0" x2="0" y2="1"><stop offset="0%" stop-color="#fef3c7"/><stop offset="100%" stop-color="#fde68a"/></linearGradient>
<linearGradient id="waterGrad" x1="0" y1="0" x2="0" y2="1"><stop offset="0%" stop-color="#bfdbfe"/><stop offset="100%" stop-color="#93c5fd"/></linearGradient>
<filter id="softGlow" x="-50%" y="-50%" width="200%" height="200%"><feGaussianBlur in="SourceGraphic" stdDeviation="12"/></filter>
</defs>
<rect width="1200" height="300" fill="url(#skyGrad)"/>
<circle cx="955.5" cy="60.0" r="45" fill="#fef08a" opacity="0.12" filter="url(#softGlow)"/>
<circle cx="955.5" cy="60.0" r="30" fill="#fde68a" opacity="0.18" filter="url(#softGlow)"/>
<circle cx="955.5" cy="60.0" r="16" fill="#fef9c3" opacity="0.25" filter="url(#softGlow)"/>
<path d="M0 300 L0.0 181.0 C173.0 181.0, 173.0 188.9, 346.1 188.9 C460.3 188.9, 460.3 182.3, 574.4 182.3 C729.1 182.3, 729.1 192.8, 883.8 192.8 C1041.9 192.8, 1041.9 204.7, 1200.0 204.7 L1200 300 Z" fill="url(#hillFar)" opacity="0.5"/>
<path d="M0 300 L0.0 202.8 C153.6 202.8, 153.6 202.0, 307.1 202.0 C560.3 202.0, 560.3 204.7, 813.4 204.7 C1006.7 204.7, 1006.7 212.2, 1200.0 212.2 L1200 300 Z" fill="url(#hillMid)" opacity="0.7"/>
<path d="M0 300 L0.0 236.0 C203.4 236.0, 203.4 232.4, 406.8 232.4 C633.5 232.4, 633.5 235.8, 860.1 235.8 C1030.0 235.8, 1030.0 238.2, 1200.0 238.2 L1200 300 Z" fill="url(#hillNear)" opacity="1"/>
<rect x="305.1" y="227.1" width="75.0" height="72.9" rx="3" fill="url(#bldg_amber)" opacity="0.7"/>
<rect x="305.1" y="224.1" width="75.0" height="3" rx="1" fill="url(#roof_tealRoof)" opacity="0.7"/>
<rect x="318.6" y="237.1" width="6" height="8" rx="1" fill="url(#windowGlow)" opacity="0.7427898114280728"/>
<rect x="346.6" y="237.1" width="6" height="8" rx="1" fill="url(#windowGlow)" opacity="0.9480980472863176"/>
<rect x="360.6" y="237.1" width="6" height="8" rx="1" fill="url(#windowGlow)" opacity="0.9145401303724107"/>
<rect x="318.6" y="252.1" width="6" height="8" rx="1" fill="url(#windowGlow)" opacity="0.8280625268481963"/>
<rect x="332.6" y="252.1" width="6" height="8" rx="1" fill="url(#windowGlow)" opacity="0.7497150497742533"/>
<rect x="346.6" y="252.1" width="6" height="8" rx="1" fill="url(#windowGlow)" opacity="0.7327376348118938"/>
<rect x="360.6" y="252.1" width="6" height="8" rx="1" fill="url(#windowGlow)" opacity="0.8972685159171319"/>
<rect x="846.2" y="253.4" width="55.7" height="46.6" rx="3" fill="url(#bldg_lavender)" opacity="0.7"/>
<polygon points="846.2,253.4 874.1,237.2 901.9,253.4" fill="url(#roof_navyRoof)" opacity="0.7"/>
<rect x="864.1" y="263.4" width="6" height="8" rx="1" fill="url(#windowGlow)" opacity="0.9994349017271003"/>
<rect x="270.8" y="239.4" width="51.4" height="60.6" rx="3" fill="url(#bldg_blue)" opacity="0.85"/>
<polygon points="270.8,239.4 296.5,221.8 322.3,239.4" fill="url(#roof_coralRoof)" opacity="0.85"/>
<rect x="300.5" y="249.4" width="6" height="8" rx="1" fill="url(#windowGlow)" opacity="0.9799650647118524"/>
<rect x="892.4" y="244.1" width="57.5" height="55.9" rx="3" fill="url(#bldg_mint)" opacity="0.85"/>
<rect x="892.4" y="241.1" width="57.5" height="3" rx="1" fill="url(#roof_tealRoof)" opacity="0.85"/>
<rect x="911.1" y="254.1" width="6" height="8" rx="1" fill="url(#windowGlow)" opacity="0.9053129589209858"/>
<rect x="925.1" y="254.1" width="6" height="8" rx="1" fill="url(#windowGlow)" opacity="0.7694204263712374"/>
<path d="M898.1 263.6 L921.1 263.6 L918.1 269.6 L901.1 269.6 Z" fill="url(#roof_coralRoof)" opacity="0.68"/>
<rect x="310.4" y="186.9" width="35.2" height="113.1" rx="3" fill="url(#bldg_rose)" opacity="1"/>
<rect x="310.4" y="183.9" width="35.2" height="3" rx="1" fill="url(#roof_navyRoof)" opacity="1"/>
<rect x="325.0" y="196.9" width="6" height="8" rx="1" fill="url(#windowGlow)" opacity="0.8216153469968658"/>
<rect x="325.0" y="226.9" width="6" height="8" rx="1" fill="url(#windowGlow)" opacity="0.7271903563417449"/>
<rect x="325.0" y="241.9" width="6" height="8" rx="1" fill="url(#windowGlow)" opacity="0.7611060648509794"/>
<rect x="325.0" y="256.9" width="6" height="8" rx="1" fill="url(#windowGlow)" opacity="0.8137620034226039"/>
<rect x="323.0" y="284.0" width="10" height="16" rx="2" fill="url(#roof_navyRoof)" opacity="0.8"/>
<rect x="325.0" y="287.0" width="6" height="10" rx="1" fill="url(#windowGlow)" opacity="0.45"/>
<rect x="855.2" y="250.0" width="40.8" height="50.0" rx="3" fill="url(#bldg_sky)" opacity="1"/>
<polygon points="855.2,250.0 875.6,238.6 896.1,250.0" fill="url(#roof_coralRoof)" opacity="1"/>
<rect x="870.6" y="284.0" width="10" height="16" rx="2" fill="url(#roof_navyRoof)" opacity="0.8"/>
<rect x="872.6" y="287.0" width="6" height="10" rx="1" fill="url(#windowGlow)" opacity="0.45"/>
<path d="M875.6 267.5 L892.0 267.5 L889.0 273.5 L878.6 273.5 Z" fill="url(#roof_navyRoof)" opacity="0.8"/>
<path d="M600.4 285.0 Q621.1 263.5 612.9 242.0" stroke="#92400e" stroke-width="4" fill="none" stroke-linecap="round"/>
<path d="M612.9 242.0 Q601.9 231.4 594.5 231.9" stroke="#16a34a" stroke-width="2.5" fill="none" stroke-linecap="round"/>
<path d="M612.9 242.0 Q618.2 230.6 621.8 230.1" stroke="#22c55e" stroke-width="2.5" fill="none" stroke-linecap="round"/>
<path d="M612.9 242.0 Q627.6 236.0 637.5 242.0" stroke="#15803d" stroke-width="2.5" fill="none" stroke-linecap="round"/>
<path d="M612.9 242.0 Q620.4 243.6 625.4 258.7" stroke="#4ade80" stroke-width="2.5" fill="none" stroke-linecap="round"/>
<path d="M612.9 242.0 Q602.0 240.5 594.8 251.9" stroke="#16a34a" stroke-width="2.5" fill="none" stroke-linecap="round"/>
<path d="M268.7 285.0 Q293.4 262.3 283.5 239.5" stroke="#92400e" stroke-width="4" fill="none" stroke-linecap="round"/>
<path d="M283.5 239.5 Q274.3 229.7 268.2 231.1" stroke="#16a34a" stroke-width="2.5" fill="none" stroke-linecap="round"/>
<path d="M283.5 239.5 Q288.3 228.7 291.5 228.9" stroke="#22c55e" stroke-width="2.5" fill="none" stroke-linecap="round"/>
<path d="M283.5 239.5 Q303.5 233.5 316.9 239.5" stroke="#15803d" stroke-width="2.5" fill="none" stroke-linecap="round"/>
<path d="M283.5 239.5 Q289.4 239.5 293.4 252.7" stroke="#4ade80" stroke-width="2.5" fill="none" stroke-linecap="round"/>
<path d="M283.5 239.5 Q271.5 238.5 263.6 250.5" stroke="#16a34a" stroke-width="2.5" fill="none" stroke-linecap="round"/>
<path d="M933.6 285.0 Q953.7 262.3 945.6 239.6" stroke="#92400e" stroke-width="4" fill="none" stroke-linecap="round"/>
<path d="M945.6 239.6 Q932.9 228.3 924.5 227.9" stroke="#16a34a" stroke-width="2.5" fill="none" stroke-linecap="round"/>
<path d="M945.6 239.6 Q952.2 226.9 956.6 225.0" stroke="#22c55e" stroke-width="2.5" fill="none" stroke-linecap="round"/>
<path d="M945.6 239.6 Q960.7 233.6 970.7 239.6" stroke="#15803d" stroke-width="2.5" fill="none" stroke-linecap="round"/>
<path d="M945.6 239.6 Q951.4 239.4 955.3 252.4" stroke="#4ade80" stroke-width="2.5" fill="none" stroke-linecap="round"/>
<path d="M945.6 239.6 Q932.5 239.0 923.8 251.6" stroke="#16a34a" stroke-width="2.5" fill="none" stroke-linecap="round"/>
<path d="M1002.0 285.0 Q1024.2 258.2 1015.3 231.4" stroke="#92400e" stroke-width="4" fill="none" stroke-linecap="round"/>
<path d="M1015.3 231.4 Q1005.9 221.5 999.7 222.8" stroke="#16a34a" stroke-width="2.5" fill="none" stroke-linecap="round"/>
<path d="M1015.3 231.4 Q1021.3 219.3 1025.4 218.0" stroke="#22c55e" stroke-width="2.5" fill="none" stroke-linecap="round"/>
<path d="M1015.3 231.4 Q1031.0 225.4 1041.5 231.4" stroke="#15803d" stroke-width="2.5" fill="none" stroke-linecap="round"/>
<path d="M1015.3 231.4 Q1023.0 233.2 1028.1 248.4" stroke="#4ade80" stroke-width="2.5" fill="none" stroke-linecap="round"/>
<path d="M1015.3 231.4 Q1001.0 231.4 991.5 244.5" stroke="#16a34a" stroke-width="2.5" fill="none" stroke-linecap="round"/>
<path d="M597.9 285.0 Q627.2 263.0 615.5 241.0" stroke="#92400e" stroke-width="4" fill="none" stroke-linecap="round"/>
<path d="M615.5 241.0 Q602.0 229.3 593.0 228.6" stroke="#16a34a" stroke-width="2.5" fill="none" stroke-linecap="round"/>
<path d="M615.5 241.0 Q622.0 228.4 626.3 226.5" stroke="#22c55e" stroke-width="2.5" fill="none" stroke-linecap="round"/>
<path d="M615.5 241.0 Q633.2 235.0 645.0 241.0" stroke="#15803d" stroke-width="2.5" fill="none" stroke-linecap="round"/>
<path d="M615.5 241.0 Q622.3 241.9 626.9 256.2" stroke="#4ade80" stroke-width="2.5" fill="none" stroke-linecap="round"/>
<path d="M615.5 241.0 Q605.4 239.1 598.7 250.2" stroke="#16a34a" stroke-width="2.5" fill="none" stroke-linecap="round"/>
<path d="M1072.9 285.0 Q1097.7 261.6 1087.8 238.3" stroke="#92400e" stroke-width="4" fill="none" stroke-linecap="round"/>
<path d="M1087.8 238.3 Q1079.1 228.7 1073.3 230.3" stroke="#16a34a" stroke-width="2.5" fill="none" stroke-linecap="round"/>
<path d="M1087.8 238.3 Q1094.2 225.9 1098.4 224.3" stroke="#22c55e" stroke-width="2.5" fill="none" stroke-linecap="round"/>
<path d="M1087.8 238.3 Q1105.9 232.3 1117.9 238.3" stroke="#15803d" stroke-width="2.5" fill="none" stroke-linecap="round"/>
<path d="M1087.8 238.3 Q1095.1 239.6 1100.0 254.5" stroke="#4ade80" stroke-width="2.5" fill="none" stroke-linecap="round"/>
<path d="M1087.8 238.3 Q1073.8 238.2 1064.4 251.2" stroke="#16a34a" stroke-width="2.5" fill="none" stroke-linecap="round"/>
<path d="M281.5 285.0 Q295.0 257.2 289.6 229.5" stroke="#92400e" stroke-width="4" fill="none" stroke-linecap="round"/>
<path d="M289.6 229.5 Q275.5 217.6 266.1 216.6" stroke="#16a34a" stroke-width="2.5" fill="none" stroke-linecap="round"/>
<path d="M289.6 229.5 Q295.5 217.6 299.4 216.5" stroke="#22c55e" stroke-width="2.5" fill="none" stroke-linecap="round"/>
<path d="M289.6 229.5 Q304.2 223.5 314.0 229.5" stroke="#15803d" stroke-width="2.5" fill="none" stroke-linecap="round"/>
<path d="M289.6 229.5 Q296.7 230.6 301.4 245.2" stroke="#4ade80" stroke-width="2.5" fill="none" stroke-linecap="round"/>
<path d="M289.6 229.5 Q278.5 228.1 271.1 239.6" stroke="#16a34a" stroke-width="2.5" fill="none" stroke-linecap="round"/>
<path d="M462.2 285.0 Q485.2 260.0 476.0 235.1" stroke="#92400e" stroke-width="4" fill="none" stroke-linecap="round"/>
<path d="M476.0 235.1 Q466.5 225.1 460.1 226.4" stroke="#16a34a" stroke-width="2.5" fill="none" stroke-linecap="round"/>
<path d="M476.0 235.1 Q482.4 222.6 486.7 220.8" stroke="#22c55e" stroke-width="2.5" fill="none" stroke-linecap="round"/>
<path d="M476.0 235.1 Q490.6 229.1 500.3 235.1" stroke="#15803d" stroke-width="2.5" fill="none" stroke-linecap="round"/>
<path d="M476.0 235.1 Q483.1 236.2 487.8 250.7" stroke="#4ade80" stroke-width="2.5" fill="none" stroke-linecap="round"/>
<path d="M476.0 235.1 Q462.7 234.6 453.8 247.3" stroke="#16a34a" stroke-width="2.5" fill="none" stroke-linecap="round"/>
<path d="M890.8 285.0 Q918.7 257.4 907.5 229.8" stroke="#92400e" stroke-width="4" fill="none" stroke-linecap="round"/>
<path d="M907.5 229.8 Q895.6 218.9 887.7 218.9" stroke="#16a34a" stroke-width="2.5" fill="none" stroke-linecap="round"/>
<path d="M907.5 229.8 Q913.6 217.8 917.6 216.5" stroke="#22c55e" stroke-width="2.5" fill="none" stroke-linecap="round"/>
<path d="M907.5 229.8 Q923.1 223.8 933.4 229.8" stroke="#15803d" stroke-width="2.5" fill="none" stroke-linecap="round"/>
<path d="M907.5 229.8 Q913.4 229.7 917.3 242.8" stroke="#4ade80" stroke-width="2.5" fill="none" stroke-linecap="round"/>
<path d="M907.5 229.8 Q896.0 228.6 888.4 240.4" stroke="#16a34a" stroke-width="2.5" fill="none" stroke-linecap="round"/>
<path d="M371.6 285.0 Q396.6 256.0 386.6 227.1" stroke="#92400e" stroke-width="4" fill="none" stroke-linecap="round"/>
<path d="M386.6 227.1 Q374.2 215.9 365.9 215.7" stroke="#16a34a" stroke-width="2.5" fill="none" stroke-linecap="round"/>
<path d="M386.6 227.1 Q391.5 216.2 394.8 216.3" stroke="#22c55e" stroke-width="2.5" fill="none" stroke-linecap="round"/>
<path d="M386.6 227.1 Q403.3 221.1 414.4 227.1" stroke="#15803d" stroke-width="2.5" fill="none" stroke-linecap="round"/>
<path d="M386.6 227.1 Q391.5 226.0 394.8 237.9" stroke="#4ade80" stroke-width="2.5" fill="none" stroke-linecap="round"/>
<path d="M386.6 227.1 Q377.6 224.8 371.6 235.3" stroke="#16a34a" stroke-width="2.5" fill="none" stroke-linecap="round"/>
<rect x="0" y="282" width="1200" height="18" fill="url(#groundGrad)"/>
</svg>