<svg xmlns="http://www.w3.org/2000/svg" viewBox="0 0 1200 300" width="1200" height="300">
<defs><linearGradient id="skyGrad" x1="0" y1="0" x2="0" y2="1"><stop offset="0%" stop-color="#e8f0f8"/><stop offset="100%" stop-color="#f5e6d8"/></linearGradient></defs><rect width="1200" height="300" fill="url(#skyGrad)"/>
<rect x="182.4" y="225.3" width="44.9" height="74.7" fill="#8aabb4"/>
<rect x="617.0" y="188.7" width="60.8" height="111.3" fill="#8aabb4"/>
<rect x="1000.9" y="202.8" width="46.5" height="97.2" fill="#8aabb4"/>
<polygon points="1000.9,202.8 1024.1,191.2 1047.4,202.8" fill="#7f9da6"/>
<rect x="140.1" y="164.4" width="68.8" height="135.6" fill="#558592"/>
<rect x="157.5" y="176.4" width="6" height="8" fill="#91b0b8" opacity="0.5"/>
<rect x="185.5" y="176.4" width="6" height="8" fill="#91b0b8" opacity="0.5"/>
<rect x="157.5" y="192.4" width="6" height="8" fill="#91b0b8" opacity="0.5"/>
<rect x="171.5" y="192.4" width="6" height="8" fill="#91b0b8" opacity="0.5"/>
<rect x="185.5" y="192.4" width="6" height="8" fill="#91b0b8" opacity="0.5"/>
<rect x="157.5" y="208.4" width="6" height="8" fill="#91b0b8" opacity="0.5"/>
<rect x="171.5" y="208.4" width="6" height="8" fill="#91b0b8" opacity="0.5"/>
<rect x="185.5" y="208.4" width="6" height="8" fill="#91b0b8" opacity="0.5"/>
<rect x="157.5" y="240.4" width="6" height="8" fill="#91b0b8" opacity="0.5"/>
<rect x="185.5" y="240.4" width="6" height="8" fill="#91b0b8" opacity="0.5"/>
<rect x="157.5" y="256.4" width="6" height="8" fill="#91b0b8" opacity="0.5"/>
<rect x="458.9" y="171.1" width="46.3" height="128.9" fill="#558592"/>
<rect x="472.0" y="183.1" width="6" height="8" fill="#91b0b8" opacity="0.5"/>
<rect x="486.0" y="183.1" width="6" height="8" fill="#91b0b8" opacity="0.5"/>
<rect x="472.0" y="199.1" width="6" height="8" fill="#91b0b8" opacity="0.5"/>
<rect x="472.0" y="215.1" width="6" height="8" fill="#91b0b8" opacity="0.5"/>
<rect x="472.0" y="231.1" width="6" height="8" fill="#91b0b8" opacity="0.5"/>
<rect x="472.0" y="247.1" width="6" height="8" fill="#91b0b8" opacity="0.5"/>
<rect x="486.0" y="247.1" width="6" height="8" fill="#91b0b8" opacity="0.5"/>
<rect x="472.0" y="263.1" width="6" height="8" fill="#91b0b8" opacity="0.5"/>
<rect x="486.0" y="263.1" width="6" height="8" fill="#91b0b8" opacity="0.5"/>
<rect x="766.5" y="137.2" width="37.1" height="162.8" fill="#558592"/>
<rect x="782.0" y="149.2" width="6" height="8" fill="#91b0b8" opacity="0.5"/>
<rect x="782.0" y="165.2" width="6" height="8" fill="#91b0b8" opacity="0.5"/>
<rect x="782.0" y="181.2" width="6" height="8" fill="#91b0b8" opacity="0.5"/>
<rect x="782.0" y="197.2" width="6" height="8" fill="#91b0b8" opacity="0.5"/>
<rect x="782.0" y="213.2" width="6" height="8" fill="#91b0b8" opacity="0.5"/>
<rect x="782.0" y="229.2" width="6" height="8" fill="#91b0b8" opacity="0.5"/>
<rect x="988.6" y="207.9" width="59.2" height="92.1" fill="#558592"/>
<rect x="1029.2" y="219.9" width="6" height="8" fill="#91b0b8" opacity="0.5"/>
<rect x="1015.2" y="235.9" width="6" height="8" fill="#91b0b8" opacity="0.5"/>
<rect x="1001.2" y="251.9" width="6" height="8" fill="#91b0b8" opacity="0.5"/>
<rect x="1029.2" y="267.9" width="6" height="8" fill="#91b0b8" opacity="0.5"/>
<rect x="169.7" y="170.9" width="55.3" height="129.1" fill="#2b6777"/>
<rect x="179.3" y="148.1" width="35.9" height="22.8" fill="#296271"/>
<rect x="187.3" y="160.1" width="6" height="8" fill="#759ca7" opacity="0.5"/>
<rect x="201.3" y="160.1" width="6" height="8" fill="#759ca7" opacity="0.5"/>
<rect x="187.3" y="176.1" width="6" height="8" fill="#759ca7" opacity="0.5"/>
<rect x="201.3" y="176.1" width="6" height="8" fill="#759ca7" opacity="0.5"/>
<rect x="187.3" y="192.1" width="6" height="8" fill="#759ca7" opacity="0.5"/>
<rect x="187.3" y="208.1" width="6" height="8" fill="#759ca7" opacity="0.5"/>
<rect x="201.3" y="224.1" width="6" height="8" fill="#759ca7" opacity="0.5"/>
<rect x="187.3" y="240.1" width="6" height="8" fill="#759ca7" opacity="0.5"/>
<rect x="404.6" y="138.6" width="30.9" height="161.4" fill="#2b6777"/>
<rect x="417.1" y="150.6" width="6" height="8" fill="#759ca7" opacity="0.5"/>
<rect x="417.1" y="166.6" width="6" height="8" fill="#759ca7" opacity="0.5"/>
<rect x="417.1" y="198.6" width="6" height="8" fill="#759ca7" opacity="0.5"/>
<rect x="417.1" y="214.6" width="6" height="8" fill="#759ca7" opacity="0.5"/>
<rect x="417.1" y="230.6" width="6" height="8" fill="#759ca7" opacity="0.5"/>
<rect x="666.5" y="168.2" width="72.1" height="131.8" fill="#2b6777"/>
<polygon points="666.5,168.2 702.5,150.1 738.6,168.2" fill="#285f6d"/>
<rect x="685.5" y="180.2" width="6" height="8" fill="#759ca7" opacity="0.5"/>
<rect x="699.5" y="180.2" width="6" height="8" fill="#759ca7" opacity="0.5"/>
<rect x="713.5" y="180.2" width="6" height="8" fill="#759ca7" opacity="0.5"/>
<rect x="685.5" y="196.2" width="6" height="8" fill="#759ca7" opacity="0.5"/>
<rect x="699.5" y="196.2" width="6" height="8" fill="#759ca7" opacity="0.5"/>
<rect x="713.5" y="196.2" width="6" height="8" fill="#759ca7" opacity="0.5"/>
<rect x="685.5" y="212.2" width="6" height="8" fill="#759ca7" opacity="0.5"/>
<rect x="713.5" y="212.2" width="6" height="8" fill="#759ca7" opacity="0.5"/>
<rect x="699.5" y="228.2" width="6" height="8" fill="#759ca7" opacity="0.5"/>
<rect x="713.5" y="228.2" width="6" height="8" fill="#759ca7" opacity="0.5"/>
<rect x="685.5" y="244.2" width="6" height="8" fill="#759ca7" opacity="0.5"/>
<rect x="699.5" y="244.2" width="6" height="8" fill="#759ca7" opacity="0.5"/>
<rect x="713.5" y="244.2" width="6" height="8" fill="#759ca7" opacity="0.5"/>
<rect x="699.5" y="260.2" width="6" height="8" fill="#759ca7" opacity="0.5"/>
<rect x="1042.5" y="142.6" width="49.8" height="157.4" fill="#2b6777"/>
<polygon points="1042.5,142.6 1067.4,130.2 1092.3,142.6" fill="#285f6d"/>
<rect x="1057.4" y="154.6" width="6" height="8" fill="#759ca7" opacity="0.5"/>
<rect x="1071.4" y="154.6" width="6" height="8" fill="#759ca7" opacity="0.5"/>
<rect x="1057.4" y="170.6" width="6" height="8" fill="#759ca7" opacity="0.5"/>
<rect x="1071.4" y="170.6" width="6" height="8" fill="#759ca7" opacity="0.5"/>
<rect x="1071.4" y="186.6" width="6" height="8" fill="#759ca7" opacity="0.5"/>
<rect x="1057.4" y="202.6" width="6" height="8" fill="#759ca7" opacity="0.5"/>
<rect x="1071.4" y="202.6" width="6" height="8" fill="#759ca7" opacity="0.5"/>
<rect x="1071.4" y="218.6" width="6" height="8" fill="#759ca7" opacity="0.5"/>
<rect x="1057.4" y="234.6" width="6" height="8" fill="#759ca7" opacity="0.5"/>
<rect x="1071.4" y="234.6" width="6" height="8" fill="#759ca7" opacity="0.5"/>
<path d="M314.8 285.0 Q340.0 260.0 332.5 235.0" fill="none" stroke="#897154" stroke-width="3"/>
<path d="M332.5 235.0 Q322.4 226.3 315.7 227.7" fill="none" stroke="#47863c" stroke-width="2.5"/>
<path d="M332.5 235.0 Q335.8 224.8 338.0 224.7" fill="none" stroke="#47863c" stroke-width="2.5"/>
<path d="M332.5 235.0 Q347.1 230.0 356.9 235.0" fill="none" stroke="#47863c" stroke-width="2.5"/>
<path d="M332.5 235.0 Q335.9 235.3 338.3 245.7" fill="none" stroke="#47863c" stroke-width="2.5"/>
<path d="M332.5 235.0 Q323.2 233.3 317.0 241.7" fill="none" stroke="#47863c" stroke-width="2.5"/>
<path d="M551.0 285.0 Q576.3 256.9 568.7 228.9" fill="none" stroke="#7c674c" stroke-width="3"/>
<path d="M568.7 228.9 Q556.9 219.6 549.0 220.3" fill="none" stroke="#46853c" stroke-width="2.5"/>
<path d="M568.7 228.9 Q573.9 215.9 577.4 212.8" fill="none" stroke="#46853c" stroke-width="2.5"/>
<path d="M568.7 228.9 Q583.1 223.9 592.7 228.9" fill="none" stroke="#46853c" stroke-width="2.5"/>
<path d="M568.7 228.9 Q573.8 231.6 577.1 244.3" fill="none" stroke="#46853c" stroke-width="2.5"/>
<path d="M568.7 228.9 Q554.5 229.0 545.1 239.2" fill="none" stroke="#46853c" stroke-width="2.5"/>
<path d="M890.6 285.0 Q905.9 255.9 901.3 226.7" fill="none" stroke="#816b4f" stroke-width="3"/>
<path d="M901.3 226.7 Q891.9 218.3 885.6 219.9" fill="none" stroke="#48883d" stroke-width="2.5"/>
<path d="M901.3 226.7 Q904.7 216.5 907.0 216.3" fill="none" stroke="#48883d" stroke-width="2.5"/>
<path d="M901.3 226.7 Q913.7 221.7 921.9 226.7" fill="none" stroke="#48883d" stroke-width="2.5"/>
<path d="M901.3 226.7 Q906.3 229.4 909.6 242.1" fill="none" stroke="#48883d" stroke-width="2.5"/>
<path d="M901.3 226.7 Q888.9 226.2 880.7 235.7" fill="none" stroke="#48883d" stroke-width="2.5"/>
<path d="M969.5 285.0 Q995.3 256.2 987.6 227.4" fill="none" stroke="#7e684d" stroke-width="3"/>
<path d="M987.6 227.4 Q974.2 217.6 965.3 217.7" fill="none" stroke="#48883d" stroke-width="2.5"/>
<path d="M987.6 227.4 Q992.8 214.4 996.2 211.4" fill="none" stroke="#48883d" stroke-width="2.5"/>
<path d="M987.6 227.4 Q1001.0 222.4 1009.9 227.4" fill="none" stroke="#48883d" stroke-width="2.5"/>
<path d="M987.6 227.4 Q992.2 229.6 995.3 241.8" fill="none" stroke="#48883d" stroke-width="2.5"/>
<path d="M987.6 227.4 Q978.1 225.9 971.9 234.3" fill="none" stroke="#48883d" stroke-width="2.5"/>
<path d="M339.5 285.0 Q366.2 260.7 358.2 236.4" fill="none" stroke="#866f52" stroke-width="3"/>
<path d="M358.2 236.4 Q347.3 227.4 340.0 228.5" fill="none" stroke="#48873d" stroke-width="2.5"/>
<path d="M358.2 236.4 Q363.4 223.4 366.9 220.4" fill="none" stroke="#48873d" stroke-width="2.5"/>
<path d="M358.2 236.4 Q375.6 231.4 387.1 236.4" fill="none" stroke="#48873d" stroke-width="2.5"/>
<path d="M358.2 236.4 Q361.8 237.0 364.3 247.6" fill="none" stroke="#48873d" stroke-width="2.5"/>
<path d="M358.2 236.4 Q346.6 235.6 338.8 244.9" fill="none" stroke="#48873d" stroke-width="2.5"/>
<rect x="0" y="285" width="1200" height="15" fill="#d4c5a9" opacity="0.4"/>
<circle cx="1005.7" cy="27.2" r="31.5" fill="#f5e6a0" opacity="0.1"/>
</svg>