<svg xmlns="http://www.w3.org/2000/svg" viewBox="0 0 1200 300" width="1200" height="300">
<rect width="1200" height="300" fill="#e0eff2"/>
<path d="M0 300 L0 210.0 C268.0 187.1, 837.0 191.7, 1200 210.0 L1200 300 Z" fill="#aac2c9" opacity="0.3"/>
<rect x="208.4" y="232.6" width="85.8" height="67.4" fill="#8aabb4"/>
<rect x="565.5" y="190.2" width="84.3" height="109.8" fill="#8aabb4"/>
<rect x="964.8" y="224.4" width="66.2" height="75.6" fill="#8aabb4"/>
<rect x="144.1" y="217.9" width="70.4" height="82.1" fill="#558592"/>
<rect x="162.3" y="229.9" width="6" height="8" fill="#91b0b8" opacity="0.5"/>
<rect x="190.3" y="229.9" width="6" height="8" fill="#91b0b8" opacity="0.5"/>
<rect x="162.3" y="245.9" width="6" height="8" fill="#91b0b8" opacity="0.5"/>
<rect x="176.3" y="245.9" width="6" height="8" fill="#91b0b8" opacity="0.5"/>
<rect x="190.3" y="245.9" width="6" height="8" fill="#91b0b8" opacity="0.5"/>
<rect x="162.3" y="261.9" width="6" height="8" fill="#91b0b8" opacity="0.5"/>
<rect x="176.3" y="261.9" width="6" height="8" fill="#91b0b8" opacity="0.5"/>
<rect x="190.3" y="261.9" width="6" height="8" fill="#91b0b8" opacity="0.5"/>
<rect x="457.5" y="174.8" width="79.9" height="125.2" fill="#558592"/>
<rect x="515.4" y="186.8" width="6" height="8" fill="#91b0b8" opacity="0.5"/>
<rect x="473.4" y="202.8" width="6" height="8" fill="#91b0b8" opacity="0.5"/>
<rect x="487.4" y="202.8" width="6" height="8" fill="#91b0b8" opacity="0.5"/>
<rect x="501.4" y="202.8" width="6" height="8" fill="#91b0b8" opacity="0.5"/>
<rect x="515.4" y="202.8" width="6" height="8" fill="#91b0b8" opacity="0.5"/>
<rect x="487.4" y="218.8" width="6" height="8" fill="#91b0b8" opacity="0.5"/>
<rect x="501.4" y="218.8" width="6" height="8" fill="#91b0b8" opacity="0.5"/>
<rect x="515.4" y="218.8" width="6" height="8" fill="#91b0b8" opacity="0.5"/>
<rect x="473.4" y="234.8" width="6" height="8" fill="#91b0b8" opacity="0.5"/>
<rect x="501.4" y="234.8" width="6" height="8" fill="#91b0b8" opacity="0.5"/>
<rect x="515.4" y="234.8" width="6" height="8" fill="#91b0b8" opacity="0.5"/>
<rect x="473.4" y="250.8" width="6" height="8" fill="#91b0b8" opacity="0.5"/>
<rect x="487.4" y="250.8" width="6" height="8" fill="#91b0b8" opacity="0.5"/>
<rect x="501.4" y="250.8" width="6" height="8" fill="#91b0b8" opacity="0.5"/>
<rect x="515.4" y="250.8" width="6" height="8" fill="#91b0b8" opacity="0.5"/>
<rect x="473.4" y="266.8" width="6" height="8" fill="#91b0b8" opacity="0.5"/>
<rect x="487.4" y="266.8" width="6" height="8" fill="#91b0b8" opacity="0.5"/>
<rect x="501.4" y="266.8" width="6" height="8" fill="#91b0b8" opacity="0.5"/>
<rect x="515.4" y="266.8" width="6" height="8" fill="#91b0b8" opacity="0.5"/>
<rect x="687.2" y="172.7" width="52.6" height="127.3" fill="#558592"/>
<rect x="703.5" y="184.7" width="6" height="8" fill="#91b0b8" opacity="0.5"/>
<rect x="717.5" y="184.7" width="6" height="8" fill="#91b0b8" opacity="0.5"/>
<rect x="703.5" y="200.7" width="6" height="8" fill="#91b0b8" opacity="0.5"/>
<rect x="717.5" y="200.7" width="6" height="8" fill="#91b0b8" opacity="0.5"/>
<rect x="703.5" y="216.7" width="6" height="8" fill="#91b0b8" opacity="0.5"/>
<rect x="717.5" y="216.7" width="6" height="8" fill="#91b0b8" opacity="0.5"/>
<rect x="703.5" y="232.7" width="6" height="8" fill="#91b0b8" opacity="0.5"/>
<rect x="703.5" y="248.7" width="6" height="8" fill="#91b0b8" opacity="0.5"/>
<rect x="703.5" y="264.7" width="6" height="8" fill="#91b0b8" opacity="0.5"/>
<rect x="1009.8" y="220.2" width="70.6" height="79.8" fill="#558592"/>
<rect x="1028.0" y="232.2" width="6" height="8" fill="#91b0b8" opacity="0.5"/>
<rect x="1042.0" y="232.2" width="6" height="8" fill="#91b0b8" opacity="0.5"/>
<rect x="1056.0" y="232.2" width="6" height="8" fill="#91b0b8" opacity="0.5"/>
<rect x="1056.0" y="248.2" width="6" height="8" fill="#91b0b8" opacity="0.5"/>
<rect x="1028.0" y="264.2" width="6" height="8" fill="#91b0b8" opacity="0.5"/>
<rect x="1042.0" y="264.2" width="6" height="8" fill="#91b0b8" opacity="0.5"/>
<rect x="1056.0" y="264.2" width="6" height="8" fill="#91b0b8" opacity="0.5"/>
<rect x="179.2" y="114.3" width="32.8" height="185.7" fill="#2b6777"/>
<rect x="192.6" y="126.3" width="6" height="8" fill="#759ca7" opacity="0.5"/>
<rect x="192.6" y="142.3" width="6" height="8" fill="#759ca7" opacity="0.5"/>
<rect x="192.6" y="158.3" width="6" height="8" fill="#759ca7" opacity="0.5"/>
<rect x="192.6" y="190.3" width="6" height="8" fill="#759ca7" opacity="0.5"/>
<rect x="192.6" y="238.3" width="6" height="8" fill="#759ca7" opacity="0.5"/>
<rect x="192.6" y="254.3" width="6" height="8" fill="#759ca7" opacity="0.5"/>
<rect x="192.6" y="270.3" width="6" height="8" fill="#759ca7" opacity="0.5"/>
<rect x="447.6" y="186.9" width="31.5" height="113.1" fill="#2b6777"/>
<rect x="460.3" y="198.9" width="6" height="8" fill="#759ca7" opacity="0.5"/>
<rect x="460.3" y="214.9" width="6" height="8" fill="#759ca7" opacity="0.5"/>
<rect x="460.3" y="230.9" width="6" height="8" fill="#759ca7" opacity="0.5"/>
<rect x="460.3" y="246.9" width="6" height="8" fill="#759ca7" opacity="0.5"/>
<rect x="460.3" y="262.9" width="6" height="8" fill="#759ca7" opacity="0.5"/>
<rect x="726.5" y="114.6" width="73.5" height="185.4" fill="#2b6777"/>
<rect x="739.3" y="126.6" width="6" height="8" fill="#759ca7" opacity="0.5"/>
<rect x="753.3" y="126.6" width="6" height="8" fill="#759ca7" opacity="0.5"/>
<rect x="767.3" y="126.6" width="6" height="8" fill="#759ca7" opacity="0.5"/>
<rect x="781.3" y="126.6" width="6" height="8" fill="#759ca7" opacity="0.5"/>
<rect x="739.3" y="142.6" width="6" height="8" fill="#759ca7" opacity="0.5"/>
<rect x="753.3" y="142.6" width="6" height="8" fill="#759ca7" opacity="0.5"/>
<rect x="767.3" y="142.6" width="6" height="8" fill="#759ca7" opacity="0.5"/>
<rect x="781.3" y="142.6" width="6" height="8" fill="#759ca7" opacity="0.5"/>
<rect x="739.3" y="158.6" width="6" height="8" fill="#759ca7" opacity="0.5"/>
<rect x="753.3" y="158.6" width="6" height="8" fill="#759ca7" opacity="0.5"/>
<rect x="781.3" y="158.6" width="6" height="8" fill="#759ca7" opacity="0.5"/>
<rect x="753.3" y="174.6" width="6" height="8" fill="#759ca7" opacity="0.5"/>
<rect x="767.3" y="174.6" width="6" height="8" fill="#759ca7" opacity="0.5"/>
<rect x="781.3" y="174.6" width="6" height="8" fill="#759ca7" opacity="0.5"/>
<rect x="739.3" y="190.6" width="6" height="8" fill="#759ca7" opacity="0.5"/>
<rect x="753.3" y="190.6" width="6" height="8" fill="#759ca7" opacity="0.5"/>
<rect x="767.3" y="190.6" width="6" height="8" fill="#759ca7" opacity="0.5"/>
<rect x="781.3" y="190.6" width="6" height="8" fill="#759ca7" opacity="0.5"/>
<rect x="753.3" y="206.6" width="6" height="8" fill="#759ca7" opacity="0.5"/>
<rect x="767.3" y="206.6" width="6" height="8" fill="#759ca7" opacity="0.5"/>
<rect x="781.3" y="206.6" width="6" height="8" fill="#759ca7" opacity="0.5"/>
<rect x="739.3" y="222.6" width="6" height="8" fill="#759ca7" opacity="0.5"/>
<rect x="753.3" y="222.6" width="6" height="8" fill="#759ca7" opacity="0.5"/>
<rect x="781.3" y="222.6" width="6" height="8" fill="#759ca7" opacity="0.5"/>
<rect x="739.3" y="238.6" width="6" height="8" fill="#759ca7" opacity="0.5"/>
<rect x="753.3" y="238.6" width="6" height="8" fill="#759ca7" opacity="0.5"/>
<rect x="781.3" y="238.6" width="6" height="8" fill="#759ca7" opacity="0.5"/>
<rect x="739.3" y="254.6" width="6" height="8" fill="#759ca7" opacity="0.5"/>
<rect x="753.3" y="254.6" width="6" height="8" fill="#759ca7" opacity="0.5"/>
<rect x="767.3" y="254.6" width="6" height="8" fill="#759ca7" opacity="0.5"/>
<rect x="781.3" y="254.6" width="6" height="8" fill="#759ca7" opacity="0.5"/>
<rect x="739.3" y="270.6" width="6" height="8" fill="#759ca7" opacity="0.5"/>
<rect x="753.3" y="270.6" width="6" height="8" fill="#759ca7" opacity="0.5"/>
<rect x="767.3" y="270.6" width="6" height="8" fill="#759ca7" opacity="0.5"/>
<rect x="956.0" y="117.0" width="59.3" height="183.0" fill="#2b6777"/>
<rect x="968.7" y="129.0" width="6" height="8" fill="#759ca7" opacity="0.5"/>
<rect x="968.7" y="145.0" width="6" height="8" fill="#759ca7" opacity="0.5"/>
<rect x="968.7" y="161.0" width="6" height="8" fill="#759ca7" opacity="0.5"/>
<rect x="982.7" y="161.0" width="6" height="8" fill="#759ca7" opacity="0.5"/>
<rect x="996.7" y="161.0" width="6" height="8" fill="#759ca7" opacity="0.5"/>
<rect x="968.7" y="177.0" width="6" height="8" fill="#759ca7" opacity="0.5"/>
<rect x="982.7" y="177.0" width="6" height="8" fill="#759ca7" opacity="0.5"/>
<rect x="996.7" y="177.0" width="6" height="8" fill="#759ca7" opacity="0.5"/>
<rect x="968.7" y="193.0" width="6" height="8" fill="#759ca7" opacity="0.5"/>
<rect x="982.7" y="193.0" width="6" height="8" fill="#759ca7" opacity="0.5"/>
<rect x="996.7" y="193.0" width="6" height="8" fill="#759ca7" opacity="0.5"/>
<rect x="968.7" y="209.0" width="6" height="8" fill="#759ca7" opacity="0.5"/>
<rect x="996.7" y="209.0" width="6" height="8" fill="#759ca7" opacity="0.5"/>
<rect x="968.7" y="225.0" width="6" height="8" fill="#759ca7" opacity="0.5"/>
<rect x="982.7" y="241.0" width="6" height="8" fill="#759ca7" opacity="0.5"/>
<rect x="996.7" y="241.0" width="6" height="8" fill="#759ca7" opacity="0.5"/>
<rect x="968.7" y="257.0" width="6" height="8" fill="#759ca7" opacity="0.5"/>
<rect x="982.7" y="257.0" width="6" height="8" fill="#759ca7" opacity="0.5"/>
<rect x="996.7" y="257.0" width="6" height="8" fill="#759ca7" opacity="0.5"/>
<rect x="968.7" y="273.0" width="6" height="8" fill="#759ca7" opacity="0.5"/>
<rect x="982.7" y="273.0" width="6" height="8" fill="#759ca7" opacity="0.5"/>
<rect x="996.7" y="273.0" width="6" height="8" fill="#759ca7" opacity="0.5"/>
<rect x="0" y="298" width="1200" height="2" fill="#275d6b" opacity="0.15"/>
</svg>