<svg xmlns="http://www.w3.org/2000/svg" viewBox="0 0 1200 300" width="1200" height="300">
<rect width="1200" height="300" fill="#e0eff2"/>
<path d="M0 300 L0 210.0 C303.0 160.9, 797.6 191.6, 1200 210.0 L1200 300 Z" fill="#aac2c9" opacity="0.3"/>
<rect x="247.8" y="239.5" width="54.0" height="60.5" fill="#8aabb4"/>
<rect x="599.4" y="237.6" width="86.7" height="62.4" fill="#8aabb4"/>
<rect x="947.0" y="236.3" width="44.4" height="63.7" fill="#8aabb4"/>
<rect x="150.0" y="186.1" width="69.9" height="113.9" fill="#558592"/>
<rect x="168.0" y="198.1" width="6" height="8" fill="#91b0b8" opacity="0.5"/>
<rect x="196.0" y="198.1" width="6" height="8" fill="#91b0b8" opacity="0.5"/>
<rect x="168.0" y="214.1" width="6" height="8" fill="#91b0b8" opacity="0.5"/>
<rect x="182.0" y="214.1" width="6" height="8" fill="#91b0b8" opacity="0.5"/>
<rect x="196.0" y="214.1" width="6" height="8" fill="#91b0b8" opacity="0.5"/>
<rect x="182.0" y="230.1" width="6" height="8" fill="#91b0b8" opacity="0.5"/>
<rect x="196.0" y="230.1" width="6" height="8" fill="#91b0b8" opacity="0.5"/>
<rect x="168.0" y="246.1" width="6" height="8" fill="#91b0b8" opacity="0.5"/>
<rect x="196.0" y="246.1" width="6" height="8" fill="#91b0b8" opacity="0.5"/>
<rect x="182.0" y="262.1" width="6" height="8" fill="#91b0b8" opacity="0.5"/>
<rect x="406.3" y="173.7" width="58.3" height="126.3" fill="#558592"/>
<rect x="418.5" y="185.7" width="6" height="8" fill="#91b0b8" opacity="0.5"/>
<rect x="432.5" y="185.7" width="6" height="8" fill="#91b0b8" opacity="0.5"/>
<rect x="446.5" y="185.7" width="6" height="8" fill="#91b0b8" opacity="0.5"/>
<rect x="432.5" y="201.7" width="6" height="8" fill="#91b0b8" opacity="0.5"/>
<rect x="418.5" y="217.7" width="6" height="8" fill="#91b0b8" opacity="0.5"/>
<rect x="446.5" y="217.7" width="6" height="8" fill="#91b0b8" opacity="0.5"/>
<rect x="432.5" y="233.7" width="6" height="8" fill="#91b0b8" opacity="0.5"/>
<rect x="446.5" y="233.7" width="6" height="8" fill="#91b0b8" opacity="0.5"/>
<rect x="418.5" y="249.7" width="6" height="8" fill="#91b0b8" opacity="0.5"/>
<rect x="446.5" y="249.7" width="6" height="8" fill="#91b0b8" opacity="0.5"/>
<rect x="418.5" y="265.7" width="6" height="8" fill="#91b0b8" opacity="0.5"/>
<rect x="432.5" y="265.7" width="6" height="8" fill="#91b0b8" opacity="0.5"/>
<rect x="446.5" y="265.7" width="6" height="8" fill="#91b0b8" opacity="0.5"/>
<rect x="730.1" y="188.7" width="55.3" height="111.3" fill="#558592"/>
<rect x="747.7" y="200.7" width="6" height="8" fill="#91b0b8" opacity="0.5"/>
<rect x="761.7" y="200.7" width="6" height="8" fill="#91b0b8" opacity="0.5"/>
<rect x="747.7" y="216.7" width="6" height="8" fill="#91b0b8" opacity="0.5"/>
<rect x="761.7" y="216.7" width="6" height="8" fill="#91b0b8" opacity="0.5"/>
<rect x="747.7" y="232.7" width="6" height="8" fill="#91b0b8" opacity="0.5"/>
<rect x="747.7" y="248.7" width="6" height="8" fill="#91b0b8" opacity="0.5"/>
<rect x="761.7" y="248.7" width="6" height="8" fill="#91b0b8" opacity="0.5"/>
<rect x="747.7" y="264.7" width="6" height="8" fill="#91b0b8" opacity="0.5"/>
<rect x="761.7" y="264.7" width="6" height="8" fill="#91b0b8" opacity="0.5"/>
<rect x="1018.8" y="138.4" width="36.9" height="161.6" fill="#558592"/>
<rect x="1034.2" y="166.4" width="6" height="8" fill="#91b0b8" opacity="0.5"/>
<rect x="1034.2" y="182.4" width="6" height="8" fill="#91b0b8" opacity="0.5"/>
<rect x="1034.2" y="198.4" width="6" height="8" fill="#91b0b8" opacity="0.5"/>
<rect x="1034.2" y="214.4" width="6" height="8" fill="#91b0b8" opacity="0.5"/>
<rect x="1034.2" y="230.4" width="6" height="8" fill="#91b0b8" opacity="0.5"/>
<rect x="1034.2" y="246.4" width="6" height="8" fill="#91b0b8" opacity="0.5"/>
<rect x="1034.2" y="262.4" width="6" height="8" fill="#91b0b8" opacity="0.5"/>
<rect x="158.9" y="231.2" width="71.4" height="68.8" fill="#2b6777"/>
<rect x="205.6" y="243.2" width="6" height="8" fill="#759ca7" opacity="0.5"/>
<rect x="177.6" y="259.2" width="6" height="8" fill="#759ca7" opacity="0.5"/>
<rect x="191.6" y="259.2" width="6" height="8" fill="#759ca7" opacity="0.5"/>
<rect x="205.6" y="259.2" width="6" height="8" fill="#759ca7" opacity="0.5"/>
<rect x="391.5" y="143.9" width="72.8" height="156.1" fill="#2b6777"/>
<rect x="403.9" y="155.9" width="6" height="8" fill="#759ca7" opacity="0.5"/>
<rect x="431.9" y="155.9" width="6" height="8" fill="#759ca7" opacity="0.5"/>
<rect x="445.9" y="155.9" width="6" height="8" fill="#759ca7" opacity="0.5"/>
<rect x="445.9" y="171.9" width="6" height="8" fill="#759ca7" opacity="0.5"/>
<rect x="403.9" y="187.9" width="6" height="8" fill="#759ca7" opacity="0.5"/>
<rect x="417.9" y="187.9" width="6" height="8" fill="#759ca7" opacity="0.5"/>
<rect x="431.9" y="187.9" width="6" height="8" fill="#759ca7" opacity="0.5"/>
<rect x="445.9" y="187.9" width="6" height="8" fill="#759ca7" opacity="0.5"/>
<rect x="403.9" y="203.9" width="6" height="8" fill="#759ca7" opacity="0.5"/>
<rect x="417.9" y="203.9" width="6" height="8" fill="#759ca7" opacity="0.5"/>
<rect x="431.9" y="203.9" width="6" height="8" fill="#759ca7" opacity="0.5"/>
<rect x="445.9" y="203.9" width="6" height="8" fill="#759ca7" opacity="0.5"/>
<rect x="417.9" y="219.9" width="6" height="8" fill="#759ca7" opacity="0.5"/>
<rect x="445.9" y="219.9" width="6" height="8" fill="#759ca7" opacity="0.5"/>
<rect x="403.9" y="235.9" width="6" height="8" fill="#759ca7" opacity="0.5"/>
<rect x="417.9" y="235.9" width="6" height="8" fill="#759ca7" opacity="0.5"/>
<rect x="445.9" y="235.9" width="6" height="8" fill="#759ca7" opacity="0.5"/>
<rect x="403.9" y="251.9" width="6" height="8" fill="#759ca7" opacity="0.5"/>
<rect x="417.9" y="251.9" width="6" height="8" fill="#759ca7" opacity="0.5"/>
<rect x="445.9" y="251.9" width="6" height="8" fill="#759ca7" opacity="0.5"/>
<rect x="403.9" y="267.9" width="6" height="8" fill="#759ca7" opacity="0.5"/>
<rect x="417.9" y="267.9" width="6" height="8" fill="#759ca7" opacity="0.5"/>
<rect x="431.9" y="267.9" width="6" height="8" fill="#759ca7" opacity="0.5"/>
<rect x="445.9" y="267.9" width="6" height="8" fill="#759ca7" opacity="0.5"/>
<rect x="682.2" y="180.1" width="62.7" height="119.9" fill="#2b6777"/>
<rect x="696.6" y="208.1" width="6" height="8" fill="#759ca7" opacity="0.5"/>
<rect x="710.6" y="208.1" width="6" height="8" fill="#759ca7" opacity="0.5"/>
<rect x="710.6" y="224.1" width="6" height="8" fill="#759ca7" opacity="0.5"/>
<rect x="724.6" y="224.1" width="6" height="8" fill="#759ca7" opacity="0.5"/>
<rect x="696.6" y="240.1" width="6" height="8" fill="#759ca7" opacity="0.5"/>
<rect x="724.6" y="240.1" width="6" height="8" fill="#759ca7" opacity="0.5"/>
<rect x="696.6" y="256.1" width="6" height="8" fill="#759ca7" opacity="0.5"/>
<rect x="724.6" y="256.1" width="6" height="8" fill="#759ca7" opacity="0.5"/>
<rect x="710.6" y="272.1" width="6" height="8" fill="#759ca7" opacity="0.5"/>
<rect x="1026.4" y="158.1" width="64.5" height="141.9" fill="#2b6777"/>
<rect x="1041.7" y="170.1" width="6" height="8" fill="#759ca7" opacity="0.5"/>
<rect x="1055.7" y="170.1" width="6" height="8" fill="#759ca7" opacity="0.5"/>
<rect x="1069.7" y="170.1" width="6" height="8" fill="#759ca7" opacity="0.5"/>
<rect x="1041.7" y="186.1" width="6" height="8" fill="#759ca7" opacity="0.5"/>
<rect x="1055.7" y="202.1" width="6" height="8" fill="#759ca7" opacity="0.5"/>
<rect x="1069.7" y="202.1" width="6" height="8" fill="#759ca7" opacity="0.5"/>
<rect x="1041.7" y="218.1" width="6" height="8" fill="#759ca7" opacity="0.5"/>
<rect x="1055.7" y="218.1" width="6" height="8" fill="#759ca7" opacity="0.5"/>
<rect x="1069.7" y="218.1" width="6" height="8" fill="#759ca7" opacity="0.5"/>
<rect x="1041.7" y="234.1" width="6" height="8" fill="#759ca7" opacity="0.5"/>
<rect x="1055.7" y="234.1" width="6" height="8" fill="#759ca7" opacity="0.5"/>
<rect x="1069.7" y="234.1" width="6" height="8" fill="#759ca7" opacity="0.5"/>
<rect x="1041.7" y="250.1" width="6" height="8" fill="#759ca7" opacity="0.5"/>
<rect x="1055.7" y="250.1" width="6" height="8" fill="#759ca7" opacity="0.5"/>
<rect x="1069.7" y="250.1" width="6" height="8" fill="#759ca7" opacity="0.5"/>
<rect x="1069.7" y="266.1" width="6" height="8" fill="#759ca7" opacity="0.5"/>
<rect x="0" y="298" width="1200" height="2" fill="#275d6b" opacity="0.15"/>
</svg>