<svg xmlns="http://www.w3.org/2000/svg" viewBox="0 0 1200 300" width="1200" height="300">
<defs>
<linearGradient id="skyGrad" x1="0" y1="0" x2="0" y2="1">
<stop offset="0%" stop-color="#818cf8"/>
<stop offset="20%" stop-color="#c4b5fd"/>
<stop offset="38%" stop-color="#fda4af"/>
<stop offset="55%" stop-color="#fdba74"/>
<stop offset="75%" stop-color="#fef08a"/>
<stop offset="100%" stop-color="#fef9c3"/>
</linearGradient>
<linearGradient id="bldg_coral" x1="0" y1="0" x2="0" y2="1"><stop offset="0%" stop-color="#fecaca"/><stop offset="100%" stop-color="#fca5a5"/></linearGradient>
<linearGradient id="bldg_teal" x1="0" y1="0" x2="0" y2="1"><stop offset="0%" stop-color="#99f6e4"/><stop offset="100%" stop-color="#5eead4"/></linearGradient>
<linearGradient id="bldg_amber" x1="0" y1="0" x2="0" y2="1"><stop offset="0%" stop-color="#fde68a"/><stop offset="100%" stop-color="#fcd34d"/></linearGradient>
<linearGradient id="bldg_lavender" x1="0" y1="0" x2="0" y2="1"><stop offset="0%" stop-color="#ddd6fe"/><stop offset="100%" stop-color="#c4b5fd"/></linearGradient>
<linearGradient id="bldg_blue" x1="0" y1="0" x2="0" y2="1"><stop offset="0%" stop-color="#bfdbfe"/><stop offset="100%" stop-color="#93c5fd"/></linearGradient>
<linearGradient id="bldg_mint" x1="0" y1="0" x2="0" y2="1"><stop offset="0%" stop-color="#a7f3d0"/><stop offset="100%" stop-color="#6ee7b7"/></linearGradient>
<linearGradient id="bldg_rose" x1="0" y1="0" x2="0" y2="1"><stop offset="0%" stop-color="#fecdd3"/><stop offset="100%" stop-color="#fda4af"/></linearGradient>
<linearGradient id="bldg_sky" x1="0" y1="0" x2="0" y2="1"><stop offset="0%" stop-color="#bae6fd"/><stop offset="100%" stop-color="#7dd3fc"/></linearGradient>
<linearGradient id="roof_navyRoof" x1="0" y1="0" x2="0" y2="1"><stop offset="0%" stop-color="#4338ca"/><stop offset="100%" stop-color="#3730a3"/></linearGradient>
<linearGradient id="roof_coralRoof" x1="0" y1="0" x2="0" y2="1"><stop offset="0%" stop-color="#f87171"/><stop offset="100%" stop-color="#ef4444"/></linearGradient>
<linearGradient id="roof_tealRoof" x1="0" y1="0" x2="0" y2="1"><stop offset="0%" stop-color="#2dd4bf"/><stop offset="100%" stop-color="#14b8a6"/></linearGradient>
<radialGradient id="windowGlow" cx="50%" cy="50%" r="50%"><stop offset="0%" stop-color="#fef08a"/><stop offset="60%" stop-color="#fbbf24"/><stop offset="100%" stop-color="#f59e0b"/></radialGradient>
<linearGradient id="hillFar" x1="0" y1="0" x2="0" y2="1"><stop offset="0%" stop-color="#c4b5fd"/><stop offset="100%" stop-color="#a5b4fc"/></linearGradient>
<linearGradient id="hillMid" x1="0" y1="0" x2="0" y2="1"><stop offset="0%" stop-color="#86efac"/><stop offset="100%" stop-color="#4ade80"/></linearGradient>
<linearGradient id="hillNear" x1="0" y1="0" x2="0" y2="1"><stop offset="0%" stop-color="#34d399"/><stop offset="100%" stop-color="#10b981"/></linearGradient>
<linearGradient id="hillDesertFar" x1="0" y1="0" x2="0" y2="1"><stop offset="0%" stop-color="#fde68a"/><stop offset="100%" stop-color="#fcd34d"/></linearGradient>
<linearGradient id="hillDesertMid" x1="0" y1="0" x2="0" y2="1"><stop offset="0%" stop-color="#fcd34d"/><stop offset="100%" stop-color="#fbbf24"/></linearGradient>
<linearGradient id="hillDesertNear" x1="0" y1="0" x2="0" y2="1"><stop offset="0%" stop-color="#fbbf24"/><stop offset="100%" stop-color="#f59e0b"/></linearGradient>
<linearGradient id="groundGrad" x1="0" y1="0" x2="0" y2="1"><stop offset="0%" stop-color="#fef3c7"/><stop offset="100%" stop-color="#fde68a"/></linearGradient>
<linearGradient id="waterGrad" x1="0" y1="0" x2="0" y2="1"><stop offset="0%" stop-color="#bfdbfe"/><stop offset="100%" stop-color="#93c5fd"/></linearGradient>
<filter id="softGlow" x="-50%" y="-50%" width="200%" height="200%"><feGaussianBlur in="SourceGraphic" stdDeviation="12"/></filter>
</defs>
<rect width="1200" height="300" fill="url(#skyGrad)"/>
<circle cx="939.8" cy="59.3" r="45" fill="#fef08a" opacity="0.12" filter="url(#softGlow)"/>
<circle cx="939.8" cy="59.3" r="30" fill="#fde68a" opacity="0.18" filter="url(#softGlow)"/>
<circle cx="939.8" cy="59.3" r="16" fill="#fef9c3" opacity="0.25" filter="url(#softGlow)"/>
<ellipse cx="190.4" cy="33.0" rx="51.5" ry="18.0" fill="white" opacity="0.5"/>
<ellipse cx="158.1" cy="38.2" rx="36.1" ry="14.2" fill="white" opacity="0.4"/>
<ellipse cx="218.7" cy="36.9" rx="41.2" ry="15.5" fill="white" opacity="0.4"/>
<ellipse cx="148.3" cy="51.6" rx="29.4" ry="10.3" fill="white" opacity="0.7"/>
<ellipse cx="130.0" cy="54.6" rx="20.6" ry="8.1" fill="white" opacity="0.6"/>
<ellipse cx="164.5" cy="53.8" rx="23.5" ry="8.8" fill="white" opacity="0.6"/>
<ellipse cx="204.8" cy="32.6" rx="46.6" ry="16.3" fill="white" opacity="0.4"/>
<ellipse cx="175.6" cy="37.2" rx="32.6" ry="12.8" fill="white" opacity="0.4"/>
<ellipse cx="230.4" cy="36.1" rx="37.3" ry="14.0" fill="white" opacity="0.4"/>
<path d="M0 300 L0.0 189.1 C121.1 189.1, 121.1 190.4, 242.2 190.4 C364.1 190.4, 364.1 187.1, 486.1 187.1 C613.7 187.1, 613.7 188.3, 741.4 188.3 C823.2 188.3, 823.2 184.6, 904.9 184.6 C1052.5 184.6, 1052.5 183.9, 1200.0 183.9 L1200 300 Z" fill="url(#hillFar)" opacity="0.5"/>
<path d="M0 300 L0.0 206.3 C122.8 206.3, 122.8 203.4, 245.6 203.4 C396.8 203.4, 396.8 206.2, 548.0 206.2 C741.1 206.2, 741.1 213.4, 934.1 213.4 C1067.1 213.4, 1067.1 213.8, 1200.0 213.8 L1200 300 Z" fill="url(#hillMid)" opacity="0.7"/>
<path d="M0 300 L0.0 228.6 C128.2 228.6, 128.2 235.3, 256.4 235.3 C343.6 235.3, 343.6 230.7, 430.9 230.7 C597.2 230.7, 597.2 235.5, 763.5 235.5 C875.5 235.5, 875.5 236.5, 987.5 236.5 C1093.8 236.5, 1093.8 235.5, 1200.0 235.5 L1200 300 Z" fill="url(#hillNear)" opacity="1"/>
<rect x="156.1" y="195.9" width="66.2" height="104.1" rx="3" fill="url(#bldg_lavender)" opacity="0.7"/>
<rect x="156.1" y="192.9" width="66.2" height="3" rx="1" fill="url(#roof_tealRoof)" opacity="0.7"/>
<rect x="172.2" y="205.9" width="6" height="8" rx="1" fill="url(#windowGlow)" opacity="0.7529366323039571"/>
<rect x="186.2" y="205.9" width="6" height="8" rx="1" fill="url(#windowGlow)" opacity="0.8878831145297191"/>
<rect x="200.2" y="205.9" width="6" height="8" rx="1" fill="url(#windowGlow)" opacity="0.8348806418175253"/>
<rect x="172.2" y="220.9" width="6" height="8" rx="1" fill="url(#windowGlow)" opacity="0.7857357869323975"/>
<rect x="186.2" y="220.9" width="6" height="8" rx="1" fill="url(#windowGlow)" opacity="0.774783990287587"/>
<rect x="200.2" y="220.9" width="6" height="8" rx="1" fill="url(#windowGlow)" opacity="0.9886319154354892"/>
<rect x="172.2" y="235.9" width="6" height="8" rx="1" fill="url(#windowGlow)" opacity="0.9645686272832419"/>
<rect x="186.2" y="235.9" width="6" height="8" rx="1" fill="url(#windowGlow)" opacity="0.902132899222026"/>
<rect x="172.2" y="250.9" width="6" height="8" rx="1" fill="url(#windowGlow)" opacity="0.8728079583834893"/>
<rect x="605.4" y="235.6" width="53.3" height="64.4" rx="3" fill="url(#bldg_blue)" opacity="0.7"/>
<polygon points="605.4,235.6 632.0,221.2 658.6,235.6" fill="url(#roof_navyRoof)" opacity="0.7"/>
<rect x="622.0" y="245.6" width="6" height="8" rx="1" fill="url(#windowGlow)" opacity="0.8062308230466353"/>
<rect x="636.0" y="245.6" width="6" height="8" rx="1" fill="url(#windowGlow)" opacity="0.9440539845004928"/>
<rect x="622.0" y="260.6" width="6" height="8" rx="1" fill="url(#windowGlow)" opacity="0.8687985121592872"/>
<rect x="636.0" y="260.6" width="6" height="8" rx="1" fill="url(#windowGlow)" opacity="0.9228512658378347"/>
<rect x="973.9" y="192.1" width="85.9" height="107.9" rx="3" fill="url(#bldg_mint)" opacity="0.7"/>
<polygon points="973.9,192.1 1016.8,165.5 1059.8,192.1" fill="url(#roof_coralRoof)" opacity="0.7"/>
<rect x="992.8" y="202.1" width="6" height="8" rx="1" fill="url(#windowGlow)" opacity="0.9831367124724838"/>
<rect x="1006.8" y="202.1" width="6" height="8" rx="1" fill="url(#windowGlow)" opacity="0.9683523665966244"/>
<rect x="1020.8" y="202.1" width="6" height="8" rx="1" fill="url(#windowGlow)" opacity="0.9095578367400717"/>
<rect x="1034.8" y="202.1" width="6" height="8" rx="1" fill="url(#windowGlow)" opacity="0.968392712049369"/>
<rect x="1006.8" y="217.1" width="6" height="8" rx="1" fill="url(#windowGlow)" opacity="0.8924090125562665"/>
<rect x="1020.8" y="217.1" width="6" height="8" rx="1" fill="url(#windowGlow)" opacity="0.7931217420348533"/>
<rect x="1034.8" y="217.1" width="6" height="8" rx="1" fill="url(#windowGlow)" opacity="0.723851065907558"/>
<rect x="1006.8" y="232.1" width="6" height="8" rx="1" fill="url(#windowGlow)" opacity="0.822067828114176"/>
<rect x="1020.8" y="232.1" width="6" height="8" rx="1" fill="url(#windowGlow)" opacity="0.7334264072279568"/>
<rect x="992.8" y="247.1" width="6" height="8" rx="1" fill="url(#windowGlow)" opacity="0.9881353485808406"/>
<rect x="1006.8" y="247.1" width="6" height="8" rx="1" fill="url(#windowGlow)" opacity="0.761580492305374"/>
<rect x="1020.8" y="247.1" width="6" height="8" rx="1" fill="url(#windowGlow)" opacity="0.8771283001532444"/>
<rect x="152.2" y="225.3" width="47.1" height="74.7" rx="3" fill="url(#bldg_rose)" opacity="0.85"/>
<rect x="161.6" y="216.3" width="28.3" height="9.0" rx="2" fill="url(#roof_tealRoof)" opacity="0.85"/>
<rect x="179.8" y="235.3" width="6" height="8" rx="1" fill="url(#windowGlow)" opacity="0.7052032802743852"/>
<rect x="165.8" y="250.3" width="6" height="8" rx="1" fill="url(#windowGlow)" opacity="0.927720812395085"/>
<rect x="179.8" y="250.3" width="6" height="8" rx="1" fill="url(#windowGlow)" opacity="0.9329434927240682"/>
<rect x="399.1" y="195.0" width="77.6" height="105.0" rx="3" fill="url(#bldg_sky)" opacity="0.85"/>
<polygon points="399.1,195.0 437.9,178.8 476.6,195.0" fill="url(#roof_navyRoof)" opacity="0.85"/>
<rect x="413.9" y="205.0" width="6" height="8" rx="1" fill="url(#windowGlow)" opacity="0.9968253797371058"/>
<rect x="427.9" y="205.0" width="6" height="8" rx="1" fill="url(#windowGlow)" opacity="0.8339910947410347"/>
<rect x="441.9" y="205.0" width="6" height="8" rx="1" fill="url(#windowGlow)" opacity="0.9937251422990696"/>
<rect x="455.9" y="205.0" width="6" height="8" rx="1" fill="url(#windowGlow)" opacity="0.8503877675861062"/>
<rect x="413.9" y="220.0" width="6" height="8" rx="1" fill="url(#windowGlow)" opacity="0.8939866753267062"/>
<rect x="427.9" y="220.0" width="6" height="8" rx="1" fill="url(#windowGlow)" opacity="0.7129052240461601"/>
<rect x="455.9" y="220.0" width="6" height="8" rx="1" fill="url(#windowGlow)" opacity="0.8643989386336872"/>
<rect x="413.9" y="235.0" width="6" height="8" rx="1" fill="url(#windowGlow)" opacity="0.8631556042764129"/>
<rect x="427.9" y="235.0" width="6" height="8" rx="1" fill="url(#windowGlow)" opacity="0.7646014071836142"/>
<rect x="441.9" y="235.0" width="6" height="8" rx="1" fill="url(#windowGlow)" opacity="0.9945264607642434"/>
<rect x="455.9" y="235.0" width="6" height="8" rx="1" fill="url(#windowGlow)" opacity="0.7483312351388536"/>
<rect x="413.9" y="250.0" width="6" height="8" rx="1" fill="url(#windowGlow)" opacity="0.9737013479572261"/>
<rect x="427.9" y="250.0" width="6" height="8" rx="1" fill="url(#windowGlow)" opacity="0.7992876011874934"/>
<rect x="441.9" y="250.0" width="6" height="8" rx="1" fill="url(#windowGlow)" opacity="0.7538981060282783"/>
<rect x="455.9" y="250.0" width="6" height="8" rx="1" fill="url(#windowGlow)" opacity="0.8228577638151393"/>
<rect x="750.3" y="160.4" width="42.4" height="139.6" rx="3" fill="url(#bldg_coral)" opacity="0.85"/>
<rect x="758.8" y="143.7" width="25.5" height="16.7" rx="2" fill="url(#roof_coralRoof)" opacity="0.85"/>
<rect x="768.6" y="170.4" width="6" height="8" rx="1" fill="url(#windowGlow)" opacity="0.9654896200473837"/>
<rect x="768.6" y="185.4" width="6" height="8" rx="1" fill="url(#windowGlow)" opacity="0.7813997081394306"/>
<rect x="768.6" y="200.4" width="6" height="8" rx="1" fill="url(#windowGlow)" opacity="0.7393377011359379"/>
<rect x="768.6" y="215.4" width="6" height="8" rx="1" fill="url(#windowGlow)" opacity="0.7869094890481371"/>
<rect x="768.6" y="230.4" width="6" height="8" rx="1" fill="url(#windowGlow)" opacity="0.8615576070088695"/>
<rect x="768.6" y="245.4" width="6" height="8" rx="1" fill="url(#windowGlow)" opacity="0.9407836321465595"/>
<rect x="768.6" y="260.4" width="6" height="8" rx="1" fill="url(#windowGlow)" opacity="0.7676238762064016"/>
<path d="M754.6 209.3 L771.6 209.3 L768.6 215.3 L757.6 215.3 Z" fill="url(#roof_navyRoof)" opacity="0.68"/>
<rect x="964.8" y="181.4" width="54.6" height="118.6" rx="3" fill="url(#bldg_teal)" opacity="0.85"/>
<rect x="964.8" y="178.4" width="54.6" height="3" rx="1" fill="url(#roof_tealRoof)" opacity="0.85"/>
<rect x="982.1" y="191.4" width="6" height="8" rx="1" fill="url(#windowGlow)" opacity="0.8015701592441509"/>
<rect x="982.1" y="206.4" width="6" height="8" rx="1" fill="url(#windowGlow)" opacity="0.8878596453405263"/>
<rect x="996.1" y="221.4" width="6" height="8" rx="1" fill="url(#windowGlow)" opacity="0.958261883705045"/>
<rect x="996.1" y="236.4" width="6" height="8" rx="1" fill="url(#windowGlow)" opacity="0.8887848354823816"/>
<rect x="982.1" y="251.4" width="6" height="8" rx="1" fill="url(#windowGlow)" opacity="0.8002381155734127"/>
<rect x="996.1" y="251.4" width="6" height="8" rx="1" fill="url(#windowGlow)" opacity="0.8626465236594185"/>
<rect x="244.5" y="202.4" width="45.2" height="97.6" rx="3" fill="url(#bldg_amber)" opacity="1"/>
<rect x="253.5" y="190.6" width="27.1" height="11.7" rx="2" fill="url(#roof_navyRoof)" opacity="1"/>
<rect x="271.1" y="212.4" width="6" height="8" rx="1" fill="url(#windowGlow)" opacity="0.9894872776183705"/>
<rect x="257.1" y="227.4" width="6" height="8" rx="1" fill="url(#windowGlow)" opacity="0.9576667157735985"/>
<rect x="271.1" y="227.4" width="6" height="8" rx="1" fill="url(#windowGlow)" opacity="0.7726371254644528"/>
<rect x="257.1" y="242.4" width="6" height="8" rx="1" fill="url(#windowGlow)" opacity="0.9931981492755926"/>
<rect x="271.1" y="242.4" width="6" height="8" rx="1" fill="url(#windowGlow)" opacity="0.8337903650634877"/>
<rect x="271.1" y="257.4" width="6" height="8" rx="1" fill="url(#windowGlow)" opacity="0.72130769166225"/>
<rect x="262.1" y="284.0" width="10" height="16" rx="2" fill="url(#roof_navyRoof)" opacity="0.8"/>
<rect x="264.1" y="287.0" width="6" height="10" rx="1" fill="url(#windowGlow)" opacity="0.45"/>
<rect x="259.2" y="243.4" width="15.8" height="5" rx="1" fill="#15803d" opacity="0.7"/>
<circle cx="262.2" cy="242.4" r="2.5" fill="#fbbf24" opacity="0.85"/>
<circle cx="267.5" cy="242.4" r="2.5" fill="#f87171" opacity="0.85"/>
<circle cx="272.7" cy="242.4" r="2.5" fill="#fb923c" opacity="0.85"/>
<rect x="561.3" y="138.1" width="66.3" height="161.9" rx="3" fill="url(#bldg_lavender)" opacity="1"/>
<rect x="574.6" y="118.6" width="39.8" height="19.4" rx="2" fill="url(#roof_coralRoof)" opacity="1"/>
<rect x="577.5" y="148.1" width="6" height="8" rx="1" fill="url(#windowGlow)" opacity="0.9494434644232705"/>
<rect x="591.5" y="148.1" width="6" height="8" rx="1" fill="url(#windowGlow)" opacity="0.7714407632925737"/>
<rect x="605.5" y="148.1" width="6" height="8" rx="1" fill="url(#windowGlow)" opacity="0.7350430363486721"/>
<rect x="577.5" y="163.1" width="6" height="8" rx="1" fill="url(#windowGlow)" opacity="0.9934395553513613"/>
<rect x="591.5" y="163.1" width="6" height="8" rx="1" fill="url(#windowGlow)" opacity="0.7274690419097752"/>
<rect x="577.5" y="178.1" width="6" height="8" rx="1" fill="url(#windowGlow)" opacity="0.9311085391934535"/>
<rect x="591.5" y="178.1" width="6" height="8" rx="1" fill="url(#windowGlow)" opacity="0.8617899409317364"/>
<rect x="605.5" y="178.1" width="6" height="8" rx="1" fill="url(#windowGlow)" opacity="0.8985342310734717"/>
<rect x="591.5" y="193.1" width="6" height="8" rx="1" fill="url(#windowGlow)" opacity="0.8927842590458617"/>
<rect x="605.5" y="193.1" width="6" height="8" rx="1" fill="url(#windowGlow)" opacity="0.8573075847967097"/>
<rect x="577.5" y="208.1" width="6" height="8" rx="1" fill="url(#windowGlow)" opacity="0.9421200656993873"/>
<rect x="591.5" y="208.1" width="6" height="8" rx="1" fill="url(#windowGlow)" opacity="0.9923086994291789"/>
<rect x="605.5" y="208.1" width="6" height="8" rx="1" fill="url(#windowGlow)" opacity="0.819672052478265"/>
<rect x="577.5" y="223.1" width="6" height="8" rx="1" fill="url(#windowGlow)" opacity="0.726132964867229"/>
<rect x="605.5" y="223.1" width="6" height="8" rx="1" fill="url(#windowGlow)" opacity="0.8512144068028844"/>
<rect x="591.5" y="238.1" width="6" height="8" rx="1" fill="url(#windowGlow)" opacity="0.7197377915120393"/>
<rect x="605.5" y="238.1" width="6" height="8" rx="1" fill="url(#windowGlow)" opacity="0.7802562514228076"/>
<rect x="577.5" y="253.1" width="6" height="8" rx="1" fill="url(#windowGlow)" opacity="0.843770079428223"/>
<rect x="591.5" y="253.1" width="6" height="8" rx="1" fill="url(#windowGlow)" opacity="0.9717385724986617"/>
<rect x="605.5" y="253.1" width="6" height="8" rx="1" fill="url(#windowGlow)" opacity="0.8432694859072889"/>
<rect x="589.5" y="284.0" width="10" height="16" rx="2" fill="url(#roof_navyRoof)" opacity="0.8"/>
<rect x="591.5" y="287.0" width="6" height="10" rx="1" fill="url(#windowGlow)" opacity="0.45"/>
<rect x="932.5" y="225.0" width="68.0" height="75.0" rx="3" fill="url(#bldg_blue)" opacity="1"/>
<rect x="946.1" y="216.0" width="40.8" height="9.0" rx="2" fill="url(#roof_tealRoof)" opacity="1"/>
<rect x="949.5" y="235.0" width="6" height="8" rx="1" fill="url(#windowGlow)" opacity="0.9682656439339117"/>
<rect x="977.5" y="235.0" width="6" height="8" rx="1" fill="url(#windowGlow)" opacity="0.8247714537311212"/>
<rect x="949.5" y="250.0" width="6" height="8" rx="1" fill="url(#windowGlow)" opacity="0.8669597151069713"/>
<rect x="963.5" y="250.0" width="6" height="8" rx="1" fill="url(#windowGlow)" opacity="0.9979592988258037"/>
<rect x="977.5" y="250.0" width="6" height="8" rx="1" fill="url(#windowGlow)" opacity="0.9586633243405555"/>
<rect x="961.5" y="284.0" width="10" height="16" rx="2" fill="url(#roof_navyRoof)" opacity="0.8"/>
<rect x="963.5" y="287.0" width="6" height="10" rx="1" fill="url(#windowGlow)" opacity="0.45"/>
<rect x="954.6" y="266.0" width="23.8" height="5" rx="1" fill="#15803d" opacity="0.7"/>
<circle cx="957.6" cy="265.0" r="2.5" fill="#a78bfa" opacity="0.85"/>
<circle cx="965.5" cy="265.0" r="2.5" fill="#f87171" opacity="0.85"/>
<circle cx="973.5" cy="265.0" r="2.5" fill="#f87171" opacity="0.85"/>
<rect x="422.5" y="264.3" width="6" height="20.7" rx="2" fill="#15803d"/>
<circle cx="425.5" cy="251.2" r="17.1" fill="#22c55e" opacity="0.9"/>
<circle cx="419.2" cy="254.2" r="12.8" fill="#16a34a" opacity="0.8"/>
<circle cx="432.8" cy="255.2" r="12.0" fill="#15803d" opacity="0.7"/>
<rect x="777.1" y="263.4" width="6" height="21.6" rx="2" fill="#15803d"/>
<circle cx="780.1" cy="251.9" r="15.4" fill="#22c55e" opacity="0.9"/>
<circle cx="773.4" cy="254.9" r="11.6" fill="#16a34a" opacity="0.8"/>
<circle cx="786.4" cy="255.9" r="10.8" fill="#15803d" opacity="0.7"/>
<rect x="208.6" y="267.7" width="6" height="17.3" rx="2" fill="#15803d"/>
<circle cx="211.6" cy="255.8" r="15.8" fill="#22c55e" opacity="0.9"/>
<circle cx="204.9" cy="258.8" r="11.9" fill="#16a34a" opacity="0.8"/>
<circle cx="218.2" cy="259.8" r="11.1" fill="#15803d" opacity="0.7"/>
<rect x="1036.4" y="266.3" width="6" height="18.7" rx="2" fill="#15803d"/>
<circle cx="1039.4" cy="256.7" r="13.7" fill="#22c55e" opacity="0.9"/>
<circle cx="1032.1" cy="259.7" r="10.2" fill="#16a34a" opacity="0.8"/>
<circle cx="1044.6" cy="260.7" r="9.6" fill="#15803d" opacity="0.7"/>
<rect x="887.5" y="263.8" width="6" height="21.2" rx="2" fill="#15803d"/>
<circle cx="890.5" cy="252.9" r="15.0" fill="#22c55e" opacity="0.9"/>
<circle cx="883.9" cy="255.9" r="11.2" fill="#16a34a" opacity="0.8"/>
<circle cx="895.9" cy="256.9" r="10.5" fill="#15803d" opacity="0.7"/>
<rect x="141.6" y="268.7" width="6" height="16.3" rx="2" fill="#15803d"/>
<circle cx="144.6" cy="257.7" r="15.0" fill="#22c55e" opacity="0.9"/>
<circle cx="136.4" cy="260.7" r="11.3" fill="#16a34a" opacity="0.8"/>
<circle cx="152.6" cy="261.7" r="10.5" fill="#15803d" opacity="0.7"/>
<rect x="415.5" y="263.3" width="6" height="21.7" rx="2" fill="#15803d"/>
<circle cx="418.5" cy="249.7" r="17.6" fill="#22c55e" opacity="0.9"/>
<circle cx="411.2" cy="252.7" r="13.2" fill="#16a34a" opacity="0.8"/>
<circle cx="424.6" cy="253.7" r="12.3" fill="#15803d" opacity="0.7"/>
<rect x="375.7" y="267.6" width="6" height="17.4" rx="2" fill="#15803d"/>
<circle cx="378.7" cy="257.4" r="14.2" fill="#22c55e" opacity="0.9"/>
<circle cx="370.9" cy="260.4" r="10.7" fill="#16a34a" opacity="0.8"/>
<circle cx="386.2" cy="261.4" r="10.0" fill="#15803d" opacity="0.7"/>
<rect x="0" y="282" width="1200" height="18" fill="url(#groundGrad)"/>
<line x1="144.5" y1="282.0" x2="144.5" y2="247.1" stroke="#92400e" stroke-width="2"/>
<circle cx="144.5" cy="247.1" r="4" fill="#fef08a" opacity="0.6"/>
<circle cx="144.5" cy="247.1" r="8" fill="#fef08a" opacity="0.15" filter="url(#softGlow)"/>
<line x1="1047.7" y1="282.0" x2="1047.7" y2="248.8" stroke="#92400e" stroke-width="2"/>
<circle cx="1047.7" cy="248.8" r="4" fill="#fef08a" opacity="0.6"/>
<circle cx="1047.7" cy="248.8" r="8" fill="#fef08a" opacity="0.15" filter="url(#softGlow)"/>
<ellipse cx="482.7" cy="282.0" rx="6.2" ry="4.3" fill="#22c55e" opacity="0.6"/>
<ellipse cx="142.5" cy="282.0" rx="4.6" ry="3.2" fill="#22c55e" opacity="0.6"/>
</svg>