<svg xmlns="http://www.w3.org/2000/svg" viewBox="0 0 1200 300" width="1200" height="300">
<rect width="1200" height="300" fill="#f0e6d8"/>
<path d="M0 300 L0 210.0 C195.7 164.2, 958.7 197.1, 1200 210.0 L1200 300 Z" fill="#e4c4a8" opacity="0.3"/>
<rect x="219.3" y="183.1" width="56.1" height="116.9" fill="#daae87"/>
<rect x="571.4" y="184.7" width="54.5" height="115.3" fill="#daae87"/>
<rect x="902.4" y="241.5" width="72.9" height="58.5" fill="#daae87"/>
<rect x="153.2" y="202.6" width="79.1" height="97.4" fill="#c98951"/>
<rect x="168.7" y="214.6" width="6" height="8" fill="#dcb28e" opacity="0.5"/>
<rect x="182.7" y="214.6" width="6" height="8" fill="#dcb28e" opacity="0.5"/>
<rect x="210.7" y="214.6" width="6" height="8" fill="#dcb28e" opacity="0.5"/>
<rect x="168.7" y="230.6" width="6" height="8" fill="#dcb28e" opacity="0.5"/>
<rect x="168.7" y="246.6" width="6" height="8" fill="#dcb28e" opacity="0.5"/>
<rect x="196.7" y="246.6" width="6" height="8" fill="#dcb28e" opacity="0.5"/>
<rect x="168.7" y="262.6" width="6" height="8" fill="#dcb28e" opacity="0.5"/>
<rect x="182.7" y="262.6" width="6" height="8" fill="#dcb28e" opacity="0.5"/>
<rect x="210.7" y="262.6" width="6" height="8" fill="#dcb28e" opacity="0.5"/>
<rect x="400.4" y="194.0" width="64.5" height="106.0" fill="#c98951"/>
<rect x="415.6" y="206.0" width="6" height="8" fill="#dcb28e" opacity="0.5"/>
<rect x="429.6" y="206.0" width="6" height="8" fill="#dcb28e" opacity="0.5"/>
<rect x="443.6" y="206.0" width="6" height="8" fill="#dcb28e" opacity="0.5"/>
<rect x="415.6" y="222.0" width="6" height="8" fill="#dcb28e" opacity="0.5"/>
<rect x="415.6" y="238.0" width="6" height="8" fill="#dcb28e" opacity="0.5"/>
<rect x="429.6" y="238.0" width="6" height="8" fill="#dcb28e" opacity="0.5"/>
<rect x="415.6" y="254.0" width="6" height="8" fill="#dcb28e" opacity="0.5"/>
<rect x="429.6" y="254.0" width="6" height="8" fill="#dcb28e" opacity="0.5"/>
<rect x="443.6" y="254.0" width="6" height="8" fill="#dcb28e" opacity="0.5"/>
<rect x="443.6" y="270.0" width="6" height="8" fill="#dcb28e" opacity="0.5"/>
<rect x="749.9" y="147.9" width="49.5" height="152.1" fill="#c98951"/>
<rect x="764.6" y="159.9" width="6" height="8" fill="#dcb28e" opacity="0.5"/>
<rect x="778.6" y="159.9" width="6" height="8" fill="#dcb28e" opacity="0.5"/>
<rect x="764.6" y="175.9" width="6" height="8" fill="#dcb28e" opacity="0.5"/>
<rect x="778.6" y="175.9" width="6" height="8" fill="#dcb28e" opacity="0.5"/>
<rect x="764.6" y="191.9" width="6" height="8" fill="#dcb28e" opacity="0.5"/>
<rect x="778.6" y="191.9" width="6" height="8" fill="#dcb28e" opacity="0.5"/>
<rect x="764.6" y="207.9" width="6" height="8" fill="#dcb28e" opacity="0.5"/>
<rect x="778.6" y="223.9" width="6" height="8" fill="#dcb28e" opacity="0.5"/>
<rect x="764.6" y="239.9" width="6" height="8" fill="#dcb28e" opacity="0.5"/>
<rect x="778.6" y="239.9" width="6" height="8" fill="#dcb28e" opacity="0.5"/>
<rect x="778.6" y="255.9" width="6" height="8" fill="#dcb28e" opacity="0.5"/>
<rect x="764.6" y="271.9" width="6" height="8" fill="#dcb28e" opacity="0.5"/>
<rect x="1004.8" y="139.7" width="49.6" height="160.3" fill="#c98951"/>
<rect x="1019.6" y="151.7" width="6" height="8" fill="#dcb28e" opacity="0.5"/>
<rect x="1033.6" y="151.7" width="6" height="8" fill="#dcb28e" opacity="0.5"/>
<rect x="1019.6" y="167.7" width="6" height="8" fill="#dcb28e" opacity="0.5"/>
<rect x="1033.6" y="167.7" width="6" height="8" fill="#dcb28e" opacity="0.5"/>
<rect x="1019.6" y="183.7" width="6" height="8" fill="#dcb28e" opacity="0.5"/>
<rect x="1019.6" y="199.7" width="6" height="8" fill="#dcb28e" opacity="0.5"/>
<rect x="1033.6" y="199.7" width="6" height="8" fill="#dcb28e" opacity="0.5"/>
<rect x="1019.6" y="215.7" width="6" height="8" fill="#dcb28e" opacity="0.5"/>
<rect x="1033.6" y="215.7" width="6" height="8" fill="#dcb28e" opacity="0.5"/>
<rect x="1019.6" y="231.7" width="6" height="8" fill="#dcb28e" opacity="0.5"/>
<rect x="1033.6" y="231.7" width="6" height="8" fill="#dcb28e" opacity="0.5"/>
<rect x="1019.6" y="247.7" width="6" height="8" fill="#dcb28e" opacity="0.5"/>
<rect x="1033.6" y="247.7" width="6" height="8" fill="#dcb28e" opacity="0.5"/>
<rect x="1033.6" y="263.7" width="6" height="8" fill="#dcb28e" opacity="0.5"/>
<rect x="142.1" y="137.3" width="52.7" height="162.7" fill="#bc6c25"/>
<rect x="158.5" y="149.3" width="6" height="8" fill="#d39f71" opacity="0.5"/>
<rect x="172.5" y="149.3" width="6" height="8" fill="#d39f71" opacity="0.5"/>
<rect x="158.5" y="165.3" width="6" height="8" fill="#d39f71" opacity="0.5"/>
<rect x="172.5" y="165.3" width="6" height="8" fill="#d39f71" opacity="0.5"/>
<rect x="158.5" y="181.3" width="6" height="8" fill="#d39f71" opacity="0.5"/>
<rect x="172.5" y="181.3" width="6" height="8" fill="#d39f71" opacity="0.5"/>
<rect x="172.5" y="197.3" width="6" height="8" fill="#d39f71" opacity="0.5"/>
<rect x="158.5" y="213.3" width="6" height="8" fill="#d39f71" opacity="0.5"/>
<rect x="158.5" y="229.3" width="6" height="8" fill="#d39f71" opacity="0.5"/>
<rect x="158.5" y="245.3" width="6" height="8" fill="#d39f71" opacity="0.5"/>
<rect x="172.5" y="245.3" width="6" height="8" fill="#d39f71" opacity="0.5"/>
<rect x="172.5" y="261.3" width="6" height="8" fill="#d39f71" opacity="0.5"/>
<rect x="413.6" y="146.5" width="36.5" height="153.5" fill="#bc6c25"/>
<rect x="428.9" y="158.5" width="6" height="8" fill="#d39f71" opacity="0.5"/>
<rect x="428.9" y="190.5" width="6" height="8" fill="#d39f71" opacity="0.5"/>
<rect x="428.9" y="206.5" width="6" height="8" fill="#d39f71" opacity="0.5"/>
<rect x="428.9" y="222.5" width="6" height="8" fill="#d39f71" opacity="0.5"/>
<rect x="428.9" y="238.5" width="6" height="8" fill="#d39f71" opacity="0.5"/>
<rect x="428.9" y="270.5" width="6" height="8" fill="#d39f71" opacity="0.5"/>
<rect x="727.2" y="238.2" width="43.5" height="61.8" fill="#bc6c25"/>
<rect x="746.0" y="250.2" width="6" height="8" fill="#d39f71" opacity="0.5"/>
<rect x="746.0" y="266.2" width="6" height="8" fill="#d39f71" opacity="0.5"/>
<rect x="1009.0" y="165.5" width="44.8" height="134.5" fill="#bc6c25"/>
<rect x="1021.4" y="177.5" width="6" height="8" fill="#d39f71" opacity="0.5"/>
<rect x="1035.4" y="177.5" width="6" height="8" fill="#d39f71" opacity="0.5"/>
<rect x="1021.4" y="193.5" width="6" height="8" fill="#d39f71" opacity="0.5"/>
<rect x="1035.4" y="193.5" width="6" height="8" fill="#d39f71" opacity="0.5"/>
<rect x="1021.4" y="209.5" width="6" height="8" fill="#d39f71" opacity="0.5"/>
<rect x="1035.4" y="209.5" width="6" height="8" fill="#d39f71" opacity="0.5"/>
<rect x="1021.4" y="225.5" width="6" height="8" fill="#d39f71" opacity="0.5"/>
<rect x="1035.4" y="225.5" width="6" height="8" fill="#d39f71" opacity="0.5"/>
<rect x="1021.4" y="241.5" width="6" height="8" fill="#d39f71" opacity="0.5"/>
<rect x="1035.4" y="241.5" width="6" height="8" fill="#d39f71" opacity="0.5"/>
<rect x="1021.4" y="257.5" width="6" height="8" fill="#d39f71" opacity="0.5"/>
<rect x="1021.4" y="273.5" width="6" height="8" fill="#d39f71" opacity="0.5"/>
<rect x="1035.4" y="273.5" width="6" height="8" fill="#d39f71" opacity="0.5"/>
<rect x="0" y="298" width="1200" height="2" fill="#a96121" opacity="0.15"/>
</svg>