<svg xmlns="http://www.w3.org/2000/svg" viewBox="0 0 1200 300" width="1200" height="300">
<defs>
<linearGradient id="skyGrad" x1="0" y1="0" x2="0" y2="1">
<stop offset="0%" stop-color="#a78bfa"/>
<stop offset="15%" stop-color="#c4b5fd"/>
<stop offset="30%" stop-color="#fda4af"/>
<stop offset="48%" stop-color="#fdba74"/>
<stop offset="65%" stop-color="#fcd34d"/>
<stop offset="85%" stop-color="#fef08a"/>
<stop offset="100%" stop-color="#fef9c3"/>
</linearGradient>
<linearGradient id="bldg_coral" x1="0" y1="0" x2="0" y2="1"><stop offset="0%" stop-color="#fecaca"/><stop offset="100%" stop-color="#fca5a5"/></linearGradient>
<linearGradient id="bldg_teal" x1="0" y1="0" x2="0" y2="1"><stop offset="0%" stop-color="#99f6e4"/><stop offset="100%" stop-color="#5eead4"/></linearGradient>
<linearGradient id="bldg_amber" x1="0" y1="0" x2="0" y2="1"><stop offset="0%" stop-color="#fde68a"/><stop offset="100%" stop-color="#fcd34d"/></linearGradient>
<linearGradient id="bldg_lavender" x1="0" y1="0" x2="0" y2="1"><stop offset="0%" stop-color="#ddd6fe"/><stop offset="100%" stop-color="#c4b5fd"/></linearGradient>
<linearGradient id="bldg_blue" x1="0" y1="0" x2="0" y2="1"><stop offset="0%" stop-color="#bfdbfe"/><stop offset="100%" stop-color="#93c5fd"/></linearGradient>
<linearGradient id="bldg_mint" x1="0" y1="0" x2="0" y2="1"><stop offset="0%" stop-color="#a7f3d0"/><stop offset="100%" stop-color="#6ee7b7"/></linearGradient>
<linearGradient id="bldg_rose" x1="0" y1="0" x2="0" y2="1"><stop offset="0%" stop-color="#fecdd3"/><stop offset="100%" stop-color="#fda4af"/></linearGradient>
<linearGradient id="bldg_sky" x1="0" y1="0" x2="0" y2="1"><stop offset="0%" stop-color="#bae6fd"/><stop offset="100%" stop-color="#7dd3fc"/></linearGradient>
<linearGradient id="roof_navyRoof" x1="0" y1="0" x2="0" y2="1"><stop offset="0%" stop-color="#4338ca"/><stop offset="100%" stop-color="#3730a3"/></linearGradient>
<linearGradient id="roof_coralRoof" x1="0" y1="0" x2="0" y2="1"><stop offset="0%" stop-color="#f87171"/><stop offset="100%" stop-color="#ef4444"/></linearGradient>
<linearGradient id="roof_tealRoof" x1="0" y1="0" x2="0" y2="1"><stop offset="0%" stop-color="#2dd4bf"/><stop offset="100%" stop-color="#14b8a6"/></linearGradient>
<radialGradient id="windowGlow" cx="50%" cy="50%" r="50%"><stop offset="0%" stop-color="#fef08a"/><stop offset="60%" stop-color="#fbbf24"/><stop offset="100%" stop-color="#f59e0b"/></radialGradient>
<linearGradient id="hillFar" x1="0" y1="0" x2="0" y2="1"><stop offset="0%" stop-color="#c4b5fd"/><stop offset="100%" stop-color="#a5b4fc"/></linearGradient>
<linearGradient id="hillMid" x1="0" y1="0" x2="0" y2="1"><stop offset="0%" stop-color="#86efac"/><stop offset="100%" stop-color="#4ade80"/></linearGradient>
<linearGradient id="hillNear" x1="0" y1="0" x2="0" y2="1"><stop offset="0%" stop-color="#34d399"/><stop offset="100%" stop-color="#10b981"/></linearGradient>
<linearGradient id="hillDesertFar" x1="0" y1="0" x2="0" y2="1"><stop offset="0%" stop-color="#fde68a"/><stop offset="100%" stop-color="#fcd34d"/></linearGradient>
<linearGradient id="hillDesertMid" x1="0" y1="0" x2="0" y2="1"><stop offset="0%" stop-color="#fcd34d"/><stop offset="100%" stop-color="#fbbf24"/></linearGradient>
<linearGradient id="hillDesertNear" x1="0" y1="0" x2="0" y2="1"><stop offset="0%" stop-color="#fbbf24"/><stop offset="100%" stop-color="#f59e0b"/></linearGradient>
<linearGradient id="groundGrad" x1="0" y1="0" x2="0" y2="1"><stop offset="0%" stop-color="#fef3c7"/><stop offset="100%" stop-color="#fde68a"/></linearGradient>
<linearGradient id="waterGrad" x1="0" y1="0" x2="0" y2="1"><stop offset="0%" stop-color="#bfdbfe"/><stop offset="100%" stop-color="#93c5fd"/></linearGradient>
<filter id="softGlow" x="-50%" y="-50%" width="200%" height="200%"><feGaussianBlur in="SourceGraphic" stdDeviation="12"/></filter>
</defs>
<rect width="1200" height="300" fill="url(#skyGrad)"/>
<circle cx="923.2" cy="56.7" r="45" fill="#fef08a" opacity="0.12" filter="url(#softGlow)"/>
<circle cx="923.2" cy="56.7" r="30" fill="#fde68a" opacity="0.18" filter="url(#softGlow)"/>
<circle cx="923.2" cy="56.7" r="16" fill="#fef9c3" opacity="0.25" filter="url(#softGlow)"/>
<path d="M0 300 L0.0 194.5 C123.2 194.5, 123.2 201.7, 246.4 201.7 C441.2 201.7, 441.2 196.0, 635.9 196.0 C752.2 196.0, 752.2 199.9, 868.5 199.9 C1034.2 199.9, 1034.2 196.8, 1200.0 196.8 L1200 300 Z" fill="url(#hillDesertFar)" opacity="0.45"/>
<path d="M0 300 L0.0 220.3 C112.5 220.3, 112.5 216.2, 225.0 216.2 C430.3 216.2, 430.3 221.8, 635.5 221.8 C779.4 221.8, 779.4 221.9, 923.3 221.9 C1061.7 221.9, 1061.7 221.2, 1200.0 221.2 L1200 300 Z" fill="url(#hillDesertMid)" opacity="0.6"/>
<path d="M0 300 L0.0 230.4 C175.9 230.4, 175.9 238.1, 351.7 238.1 C477.7 238.1, 477.7 234.4, 603.7 234.4 C752.1 234.4, 752.1 237.3, 900.6 237.3 C1050.3 237.3, 1050.3 233.7, 1200.0 233.7 L1200 300 Z" fill="url(#hillDesertNear)" opacity="0.85"/>
<rect x="213.1" y="247.4" width="67.5" height="52.6" rx="3" fill="url(#bldg_amber)" opacity="0.7"/>
<polygon points="213.1,247.4 246.8,225.4 280.6,247.4" fill="url(#roof_navyRoof)" opacity="0.7"/>
<rect x="229.8" y="257.4" width="6" height="8" rx="1" fill="url(#windowGlow)" opacity="0.7535945690952216"/>
<rect x="243.8" y="257.4" width="6" height="8" rx="1" fill="url(#windowGlow)" opacity="0.9294452875524039"/>
<rect x="257.8" y="257.4" width="6" height="8" rx="1" fill="url(#windowGlow)" opacity="0.7109471959578558"/>
<rect x="517.3" y="246.2" width="88.6" height="53.8" rx="3" fill="url(#bldg_lavender)" opacity="0.7"/>
<polygon points="517.3,246.2 561.6,221.2 606.0,246.2" fill="url(#roof_coralRoof)" opacity="0.7"/>
<rect x="537.6" y="256.2" width="6" height="8" rx="1" fill="url(#windowGlow)" opacity="0.78879631943479"/>
<rect x="551.6" y="256.2" width="6" height="8" rx="1" fill="url(#windowGlow)" opacity="0.9183287661142315"/>
<rect x="565.6" y="256.2" width="6" height="8" rx="1" fill="url(#windowGlow)" opacity="0.9356688464692182"/>
<rect x="579.6" y="256.2" width="6" height="8" rx="1" fill="url(#windowGlow)" opacity="0.7210917085973041"/>
<rect x="937.9" y="223.6" width="86.9" height="76.4" rx="3" fill="url(#bldg_blue)" opacity="0.7"/>
<polygon points="937.9,223.6 981.4,199.3 1024.9,223.6" fill="url(#roof_tealRoof)" opacity="0.7"/>
<rect x="957.4" y="233.6" width="6" height="8" rx="1" fill="url(#windowGlow)" opacity="0.9072208635076977"/>
<rect x="985.4" y="233.6" width="6" height="8" rx="1" fill="url(#windowGlow)" opacity="0.7902126988816134"/>
<rect x="957.4" y="248.6" width="6" height="8" rx="1" fill="url(#windowGlow)" opacity="0.7920205336026942"/>
<rect x="971.4" y="248.6" width="6" height="8" rx="1" fill="url(#windowGlow)" opacity="0.8799911323375957"/>
<rect x="985.4" y="248.6" width="6" height="8" rx="1" fill="url(#windowGlow)" opacity="0.761861579288664"/>
<rect x="999.4" y="248.6" width="6" height="8" rx="1" fill="url(#windowGlow)" opacity="0.8502369635972367"/>
<rect x="154.1" y="209.7" width="67.7" height="90.3" rx="3" fill="url(#bldg_mint)" opacity="0.85"/>
<rect x="154.1" y="206.7" width="67.7" height="3" rx="1" fill="url(#roof_navyRoof)" opacity="0.85"/>
<rect x="171.0" y="219.7" width="6" height="8" rx="1" fill="url(#windowGlow)" opacity="0.79671902661059"/>
<rect x="185.0" y="219.7" width="6" height="8" rx="1" fill="url(#windowGlow)" opacity="0.8141693066405921"/>
<rect x="199.0" y="219.7" width="6" height="8" rx="1" fill="url(#windowGlow)" opacity="0.7544589711606776"/>
<rect x="171.0" y="234.7" width="6" height="8" rx="1" fill="url(#windowGlow)" opacity="0.886929602356129"/>
<rect x="185.0" y="234.7" width="6" height="8" rx="1" fill="url(#windowGlow)" opacity="0.7788742419699552"/>
<rect x="199.0" y="234.7" width="6" height="8" rx="1" fill="url(#windowGlow)" opacity="0.8291658557621603"/>
<rect x="171.0" y="249.7" width="6" height="8" rx="1" fill="url(#windowGlow)" opacity="0.7690458307364237"/>
<rect x="185.0" y="249.7" width="6" height="8" rx="1" fill="url(#windowGlow)" opacity="0.9660832500392957"/>
<rect x="199.0" y="249.7" width="6" height="8" rx="1" fill="url(#windowGlow)" opacity="0.942120372616742"/>
<rect x="517.9" y="245.6" width="75.0" height="54.4" rx="3" fill="url(#bldg_rose)" opacity="0.85"/>
<rect x="532.9" y="239.1" width="45.0" height="6.5" rx="2" fill="url(#roof_coralRoof)" opacity="0.85"/>
<rect x="531.4" y="255.6" width="6" height="8" rx="1" fill="url(#windowGlow)" opacity="0.7146455949240575"/>
<rect x="545.4" y="255.6" width="6" height="8" rx="1" fill="url(#windowGlow)" opacity="0.8585979582549063"/>
<rect x="573.4" y="255.6" width="6" height="8" rx="1" fill="url(#windowGlow)" opacity="0.9395032752023559"/>
<rect x="981.0" y="246.0" width="55.4" height="54.0" rx="3" fill="url(#bldg_sky)" opacity="0.85"/>
<rect x="992.1" y="239.5" width="33.2" height="6.5" rx="2" fill="url(#roof_tealRoof)" opacity="0.85"/>
<rect x="1012.7" y="256.0" width="6" height="8" rx="1" fill="url(#windowGlow)" opacity="0.8662464169628202"/>
<path d="M986.5 264.9 L1008.7 264.9 L1005.7 270.9 L989.5 270.9 Z" fill="url(#roof_coralRoof)" opacity="0.68"/>
<rect x="157.8" y="197.5" width="90.1" height="102.5" rx="3" fill="url(#bldg_coral)" opacity="1"/>
<rect x="157.8" y="194.5" width="90.1" height="3" rx="1" fill="url(#roof_navyRoof)" opacity="1"/>
<rect x="178.9" y="207.5" width="6" height="8" rx="1" fill="url(#windowGlow)" opacity="0.7825277818285523"/>
<rect x="192.9" y="207.5" width="6" height="8" rx="1" fill="url(#windowGlow)" opacity="0.9734224965672114"/>
<rect x="206.9" y="207.5" width="6" height="8" rx="1" fill="url(#windowGlow)" opacity="0.8455912817481864"/>
<rect x="220.9" y="207.5" width="6" height="8" rx="1" fill="url(#windowGlow)" opacity="0.921941674836884"/>
<rect x="178.9" y="222.5" width="6" height="8" rx="1" fill="url(#windowGlow)" opacity="0.7202891165019427"/>
<rect x="192.9" y="222.5" width="6" height="8" rx="1" fill="url(#windowGlow)" opacity="0.9938320340559967"/>
<rect x="220.9" y="222.5" width="6" height="8" rx="1" fill="url(#windowGlow)" opacity="0.8801885464136434"/>
<rect x="178.9" y="237.5" width="6" height="8" rx="1" fill="url(#windowGlow)" opacity="0.805194507867654"/>
<rect x="192.9" y="237.5" width="6" height="8" rx="1" fill="url(#windowGlow)" opacity="0.845679252476282"/>
<rect x="206.9" y="237.5" width="6" height="8" rx="1" fill="url(#windowGlow)" opacity="0.8525185571762354"/>
<rect x="220.9" y="237.5" width="6" height="8" rx="1" fill="url(#windowGlow)" opacity="0.9656437849000299"/>
<rect x="178.9" y="252.5" width="6" height="8" rx="1" fill="url(#windowGlow)" opacity="0.8375385120220196"/>
<rect x="192.9" y="252.5" width="6" height="8" rx="1" fill="url(#windowGlow)" opacity="0.7967467533875008"/>
<rect x="206.9" y="252.5" width="6" height="8" rx="1" fill="url(#windowGlow)" opacity="0.8264660251915762"/>
<rect x="220.9" y="252.5" width="6" height="8" rx="1" fill="url(#windowGlow)" opacity="0.9706031770774177"/>
<rect x="197.9" y="284.0" width="10" height="16" rx="2" fill="url(#roof_navyRoof)" opacity="0.8"/>
<rect x="199.9" y="287.0" width="6" height="10" rx="1" fill="url(#windowGlow)" opacity="0.45"/>
<path d="M166.8 233.4 L202.9 233.4 L199.9 239.4 L169.8 239.4 Z" fill="url(#roof_tealRoof)" opacity="0.8"/>
<rect x="187.1" y="223.5" width="31.5" height="5" rx="1" fill="#15803d" opacity="0.7"/>
<circle cx="190.1" cy="222.5" r="2.5" fill="#f87171" opacity="0.85"/>
<circle cx="200.6" cy="222.5" r="2.5" fill="#a78bfa" opacity="0.85"/>
<circle cx="211.1" cy="222.5" r="2.5" fill="#fb923c" opacity="0.85"/>
<rect x="530.6" y="172.3" width="59.5" height="127.7" rx="3" fill="url(#bldg_teal)" opacity="1"/>
<rect x="530.6" y="169.3" width="59.5" height="3" rx="1" fill="url(#roof_coralRoof)" opacity="1"/>
<rect x="543.3" y="182.3" width="6" height="8" rx="1" fill="url(#windowGlow)" opacity="0.938766039180926"/>
<rect x="557.3" y="182.3" width="6" height="8" rx="1" fill="url(#windowGlow)" opacity="0.7715579966416386"/>
<rect x="543.3" y="197.3" width="6" height="8" rx="1" fill="url(#windowGlow)" opacity="0.7419058218327843"/>
<rect x="557.3" y="197.3" width="6" height="8" rx="1" fill="url(#windowGlow)" opacity="0.9087184793822087"/>
<rect x="571.3" y="197.3" width="6" height="8" rx="1" fill="url(#windowGlow)" opacity="0.7702526947344899"/>
<rect x="543.3" y="212.3" width="6" height="8" rx="1" fill="url(#windowGlow)" opacity="0.7175660487811854"/>
<rect x="557.3" y="212.3" width="6" height="8" rx="1" fill="url(#windowGlow)" opacity="0.9056555506333968"/>
<rect x="557.3" y="227.3" width="6" height="8" rx="1" fill="url(#windowGlow)" opacity="0.8054944457511857"/>
<rect x="571.3" y="227.3" width="6" height="8" rx="1" fill="url(#windowGlow)" opacity="0.858430589110791"/>
<rect x="543.3" y="242.3" width="6" height="8" rx="1" fill="url(#windowGlow)" opacity="0.9012667157227484"/>
<rect x="571.3" y="242.3" width="6" height="8" rx="1" fill="url(#windowGlow)" opacity="0.8537430073850523"/>
<rect x="543.3" y="257.3" width="6" height="8" rx="1" fill="url(#windowGlow)" opacity="0.9720576434731751"/>
<rect x="557.3" y="257.3" width="6" height="8" rx="1" fill="url(#windowGlow)" opacity="0.7286268734506456"/>
<rect x="571.3" y="257.3" width="6" height="8" rx="1" fill="url(#windowGlow)" opacity="0.7071873735669941"/>
<rect x="555.3" y="284.0" width="10" height="16" rx="2" fill="url(#roof_navyRoof)" opacity="0.8"/>
<rect x="557.3" y="287.0" width="6" height="10" rx="1" fill="url(#windowGlow)" opacity="0.45"/>
<rect x="983.2" y="205.8" width="72.2" height="94.2" rx="3" fill="url(#bldg_amber)" opacity="1"/>
<polygon points="983.2,205.8 1019.3,181.2 1055.3,205.8" fill="url(#roof_tealRoof)" opacity="1"/>
<rect x="995.3" y="215.8" width="6" height="8" rx="1" fill="url(#windowGlow)" opacity="0.705862729719776"/>
<rect x="1009.3" y="215.8" width="6" height="8" rx="1" fill="url(#windowGlow)" opacity="0.7535044975827934"/>
<rect x="1023.3" y="215.8" width="6" height="8" rx="1" fill="url(#windowGlow)" opacity="0.9969360907082148"/>
<rect x="1037.3" y="215.8" width="6" height="8" rx="1" fill="url(#windowGlow)" opacity="0.9743261955093248"/>
<rect x="995.3" y="230.8" width="6" height="8" rx="1" fill="url(#windowGlow)" opacity="0.9757153230140523"/>
<rect x="1009.3" y="230.8" width="6" height="8" rx="1" fill="url(#windowGlow)" opacity="0.7676873628365283"/>
<rect x="995.3" y="245.8" width="6" height="8" rx="1" fill="url(#windowGlow)" opacity="0.9715880590824354"/>
<rect x="1023.3" y="245.8" width="6" height="8" rx="1" fill="url(#windowGlow)" opacity="0.8829638623087498"/>
<rect x="1037.3" y="245.8" width="6" height="8" rx="1" fill="url(#windowGlow)" opacity="0.7992294265885043"/>
<rect x="995.3" y="260.8" width="6" height="8" rx="1" fill="url(#windowGlow)" opacity="0.8925419597386112"/>
<rect x="1009.3" y="260.8" width="6" height="8" rx="1" fill="url(#windowGlow)" opacity="0.9877042358683907"/>
<rect x="1023.3" y="260.8" width="6" height="8" rx="1" fill="url(#windowGlow)" opacity="0.7094478372062779"/>
<rect x="1014.3" y="284.0" width="10" height="16" rx="2" fill="url(#roof_navyRoof)" opacity="0.8"/>
<rect x="1016.3" y="287.0" width="6" height="10" rx="1" fill="url(#windowGlow)" opacity="0.45"/>
<path d="M1019.3 238.7 L1048.1 238.7 L1045.1 244.7 L1022.3 244.7 Z" fill="url(#roof_coralRoof)" opacity="0.8"/>
<rect x="1006.6" y="231.8" width="25.3" height="5" rx="1" fill="#15803d" opacity="0.7"/>
<circle cx="1009.6" cy="230.8" r="2.5" fill="#fbbf24" opacity="0.85"/>
<circle cx="1018.0" cy="230.8" r="2.5" fill="#fb923c" opacity="0.85"/>
<circle cx="1026.5" cy="230.8" r="2.5" fill="#fbbf24" opacity="0.85"/>
<rect x="386.2" y="240.7" width="6" height="44.3" rx="3" fill="#16a34a"/>
<rect x="374.9" y="258.7" width="11.3" height="5" rx="2.5" fill="#22c55e"/>
<rect x="374.9" y="251.2" width="5" height="10.0" rx="2.5" fill="#22c55e"/>
<rect x="392.2" y="261.3" width="10.8" height="5" rx="2.5" fill="#22c55e"/>
<rect x="400.5" y="248.9" width="5" height="14.9" rx="2.5" fill="#22c55e"/>
<rect x="783.6" y="247.5" width="6" height="37.5" rx="3" fill="#16a34a"/>
<rect x="771.2" y="259.7" width="12.4" height="5" rx="2.5" fill="#22c55e"/>
<rect x="771.2" y="247.2" width="5" height="15.0" rx="2.5" fill="#22c55e"/>
<rect x="120.7" y="243.7" width="6" height="41.3" rx="3" fill="#16a34a"/>
<rect x="111.2" y="264.5" width="9.5" height="5" rx="2.5" fill="#22c55e"/>
<rect x="111.2" y="257.8" width="5" height="9.2" rx="2.5" fill="#22c55e"/>
<rect x="126.7" y="256.8" width="11.4" height="5" rx="2.5" fill="#22c55e"/>
<rect x="135.6" y="249.8" width="5" height="9.5" rx="2.5" fill="#22c55e"/>
<rect x="1083.6" y="245.5" width="6" height="39.5" rx="3" fill="#16a34a"/>
<rect x="1074.2" y="258.9" width="9.4" height="5" rx="2.5" fill="#22c55e"/>
<rect x="1074.2" y="251.8" width="5" height="9.6" rx="2.5" fill="#22c55e"/>
<rect x="116.7" y="252.0" width="6" height="33.0" rx="3" fill="#16a34a"/>
<rect x="107.8" y="261.2" width="8.9" height="5" rx="2.5" fill="#22c55e"/>
<rect x="107.8" y="250.3" width="5" height="13.4" rx="2.5" fill="#22c55e"/>
<rect x="643.7" y="254.6" width="6" height="30.4" rx="3" fill="#16a34a"/>
<rect x="630.3" y="263.9" width="13.5" height="5" rx="2.5" fill="#22c55e"/>
<rect x="630.3" y="256.4" width="5" height="10.0" rx="2.5" fill="#22c55e"/>
<rect x="649.7" y="264.9" width="14.2" height="5" rx="2.5" fill="#22c55e"/>
<rect x="661.5" y="252.7" width="5" height="14.7" rx="2.5" fill="#22c55e"/>
<rect x="68.8" y="248.3" width="6" height="36.7" rx="3" fill="#16a34a"/>
<rect x="58.3" y="262.1" width="10.5" height="5" rx="2.5" fill="#22c55e"/>
<rect x="58.3" y="252.8" width="5" height="11.7" rx="2.5" fill="#22c55e"/>
<rect x="74.8" y="261.5" width="13.4" height="5" rx="2.5" fill="#22c55e"/>
<rect x="85.7" y="254.3" width="5" height="9.7" rx="2.5" fill="#22c55e"/>
<rect x="269.8" y="241.7" width="6" height="43.3" rx="3" fill="#16a34a"/>
<rect x="257.2" y="258.8" width="12.6" height="5" rx="2.5" fill="#22c55e"/>
<rect x="257.2" y="246.8" width="5" height="14.5" rx="2.5" fill="#22c55e"/>
<rect x="0" y="282" width="1200" height="18" fill="url(#groundGrad)"/>
<line x1="153.1" y1="282.0" x2="153.1" y2="240.3" stroke="#92400e" stroke-width="2"/>
<circle cx="153.1" cy="240.3" r="4" fill="#fef08a" opacity="0.6"/>
<circle cx="153.1" cy="240.3" r="8" fill="#fef08a" opacity="0.15" filter="url(#softGlow)"/>
<ellipse cx="581.7" cy="282.0" rx="5.5" ry="3.9" fill="#22c55e" opacity="0.6"/>
<ellipse cx="38.2" cy="282.0" rx="5.5" ry="3.8" fill="#22c55e" opacity="0.6"/>
</svg>