<svg xmlns="http://www.w3.org/2000/svg" viewBox="0 0 1200 300" width="1200" height="300">
<rect width="1200" height="300" fill="#e6eef4"/>
<path d="M0 300 L0 210.0 C394.5 175.1, 989.8 184.8, 1200 210.0 L1200 300 Z" fill="#b5cad8" opacity="0.3"/>
<rect x="356.8" y="262.3" width="69.7" height="37.7" fill="#99b6c9"/>
<rect x="861.3" y="239.0" width="49.9" height="61.0" fill="#99b6c9"/>
<rect x="215.2" y="221.1" width="79.3" height="78.9" fill="#6a95b1"/>
<rect x="230.8" y="233.1" width="6" height="8" fill="#9ebacc" opacity="0.5"/>
<rect x="258.8" y="233.1" width="6" height="8" fill="#9ebacc" opacity="0.5"/>
<rect x="272.8" y="233.1" width="6" height="8" fill="#9ebacc" opacity="0.5"/>
<rect x="230.8" y="249.1" width="6" height="8" fill="#9ebacc" opacity="0.5"/>
<rect x="272.8" y="249.1" width="6" height="8" fill="#9ebacc" opacity="0.5"/>
<rect x="230.8" y="265.1" width="6" height="8" fill="#9ebacc" opacity="0.5"/>
<rect x="244.8" y="265.1" width="6" height="8" fill="#9ebacc" opacity="0.5"/>
<rect x="258.8" y="265.1" width="6" height="8" fill="#9ebacc" opacity="0.5"/>
<rect x="950.4" y="234.2" width="38.9" height="65.8" fill="#6a95b1"/>
<rect x="966.8" y="246.2" width="6" height="8" fill="#9ebacc" opacity="0.5"/>
<rect x="966.8" y="262.2" width="6" height="8" fill="#9ebacc" opacity="0.5"/>
<rect x="254.1" y="225.3" width="44.8" height="74.7" fill="#457b9d"/>
<rect x="266.5" y="237.3" width="6" height="8" fill="#86a9bf" opacity="0.5"/>
<rect x="280.5" y="237.3" width="6" height="8" fill="#86a9bf" opacity="0.5"/>
<rect x="266.5" y="253.3" width="6" height="8" fill="#86a9bf" opacity="0.5"/>
<rect x="280.5" y="253.3" width="6" height="8" fill="#86a9bf" opacity="0.5"/>
<rect x="280.5" y="269.3" width="6" height="8" fill="#86a9bf" opacity="0.5"/>
<rect x="837.8" y="212.1" width="47.8" height="87.9" fill="#457b9d"/>
<rect x="851.7" y="224.1" width="6" height="8" fill="#86a9bf" opacity="0.5"/>
<rect x="865.7" y="224.1" width="6" height="8" fill="#86a9bf" opacity="0.5"/>
<rect x="851.7" y="240.1" width="6" height="8" fill="#86a9bf" opacity="0.5"/>
<rect x="851.7" y="256.1" width="6" height="8" fill="#86a9bf" opacity="0.5"/>
<rect x="865.7" y="256.1" width="6" height="8" fill="#86a9bf" opacity="0.5"/>
<rect x="851.7" y="272.1" width="6" height="8" fill="#86a9bf" opacity="0.5"/>
<rect x="0" y="298" width="1200" height="2" fill="#3e6f8d" opacity="0.15"/>
</svg>