<svg xmlns="http://www.w3.org/2000/svg" viewBox="0 0 1200 400" width="1200" height="400">
<defs>
<linearGradient id="bg" x1="0" y1="0" x2="0" y2="1"><stop offset="0%" stop-color="#166534"/><stop offset="100%" stop-color="#3b82f6"/></linearGradient>
<linearGradient id="warm" x1="0" y1="0" x2="1" y2="1"><stop offset="0%" stop-color="#d89a30" stop-opacity="0.18"/><stop offset="100%" stop-color="#d89a30" stop-opacity="0.06"/></linearGradient>
</defs>
<rect width="1200" height="400" fill="url(#bg)"/>
<path d="M0 400 L0 260.50309795944065 C60.0 260.6, 90.0 252.3, 150.0 246.2 C210.0 255.9, 240.0 252.1, 300.0 259.1 C360.0 264.7, 390.0 250.2, 450.0 258.5 C510.0 268.4, 540.0 254.9, 600.0 254.8 C660.0 251.4, 690.0 244.9, 750.0 249.4 C810.0 251.7, 840.0 258.8, 900.0 260.9 C960.0 258.1, 990.0 241.2, 1050.0 235.6 C1110.0 239.4, 1140.0 226.9, 1200.0 236.5 L1200 400 Z" fill="#2e78b2" opacity="0.45"/>
<path d="M0 400 L0 285.1063290754539 C52.5 281.1, 97.5 279.6, 150.0 274.4 C202.5 281.4, 247.5 284.9, 300.0 283.9 C352.5 285.7, 397.5 272.8, 450.0 268.9 C502.5 267.5, 547.5 261.5, 600.0 268.7 C652.5 268.0, 697.5 285.6, 750.0 279.0 C802.5 285.8, 847.5 275.1, 900.0 274.9 C952.5 268.6, 997.5 274.9, 1050.0 272.5 C1102.5 279.2, 1147.5 288.7, 1200.0 283.5 L1200 400 Z" fill="#3b82f6" opacity="0.3"/>
<rect x="204.8" y="286.4" width="16.7" height="113.6" rx="4.0" fill="#878675" opacity="0.84"/>
<rect x="209.8" y="296.4" width="4" height="5" rx="0.5" fill="#166534" opacity="0.6"/>
<rect x="209.8" y="318.4" width="4" height="5" rx="0.5" fill="#166534" opacity="0.6"/>
<rect x="209.8" y="362.4" width="4" height="5" rx="0.5" fill="#166534" opacity="0.6"/>
<rect x="932.8" y="283.0" width="30.1" height="117.0" rx="6.9" fill="#b78924" opacity="0.81"/>
<rect x="937.8" y="315.0" width="4" height="5" rx="0.5" fill="#166534" opacity="0.6"/>
<rect x="975.6" y="349.0" width="41.3" height="51.0" rx="3.3" fill="#c28a12" opacity="0.73"/>
<rect x="126.2" y="327.3" width="34.3" height="72.7" rx="5.4" fill="#94875f" opacity="0.73"/>
<rect x="437.6" y="357.1" width="34.2" height="42.9" rx="5.9" fill="#a0884c" opacity="0.80"/>
<rect x="801.0" y="341.2" width="20.0" height="58.8" rx="5.7" fill="#998757" opacity="0.68"/>
<rect x="420.7" y="357.2" width="16.8" height="42.8" rx="6.7" fill="#b68926" opacity="0.62"/>
<rect x="623.0" y="301.4" width="21.8" height="98.6" rx="4.0" fill="#c98a06" opacity="0.80"/>
<rect x="628.0" y="311.4" width="4" height="5" rx="0.5" fill="#166534" opacity="0.6"/>
<rect x="628.0" y="333.4" width="4" height="5" rx="0.5" fill="#166534" opacity="0.6"/>
<rect x="447.2" y="373.6" width="32.4" height="26.4" rx="7.5" fill="#b58927" opacity="0.79"/>
<rect x="450.8" y="369.2" width="42.8" height="30.8" rx="5.3" fill="#a7883f" opacity="0.56"/>
<rect x="392.3" y="363.4" width="48.2" height="36.6" rx="3.2" fill="#b88922" opacity="0.80"/>
<line x1="211.8" y1="233.8" x2="252.6" y2="233.8" stroke="#166534" stroke-width="2.6" opacity="0.22"/>
<line x1="684.8" y1="209.8" x2="709.6" y2="209.8" stroke="#166534" stroke-width="2.0" opacity="0.25"/>
<line x1="332.0" y1="237.5" x2="411.6" y2="237.5" stroke="#166534" stroke-width="1.5" opacity="0.41"/>
<line x1="580.0" y1="183.5" x2="622.7" y2="183.5" stroke="#166534" stroke-width="1.4" opacity="0.43"/>
<line x1="798.2" y1="123.8" x2="857.3" y2="123.8" stroke="#ca8a04" stroke-width="1.8" opacity="0.20"/>
<line x1="744.5" y1="109.1" x2="805.2" y2="109.1" stroke="#166534" stroke-width="2.4" opacity="0.35"/>
<line x1="1088.9" y1="173.8" x2="1155.9" y2="173.8" stroke="#166534" stroke-width="1.9" opacity="0.41"/>
<line x1="902.7" y1="120.9" x2="938.2" y2="120.9" stroke="#166534" stroke-width="1.3" opacity="0.23"/>
<line x1="651.2" y1="42.5" x2="705.0" y2="42.5" stroke="#166534" stroke-width="1.5" opacity="0.19"/>
<line x1="1089.5" y1="124.5" x2="1156.5" y2="124.5" stroke="#ca8a04" stroke-width="1.7" opacity="0.36"/>
<line x1="101.2" y1="118.7" x2="131.0" y2="118.7" stroke="#166534" stroke-width="1.0" opacity="0.44"/>
<line x1="1000.9" y1="216.3" x2="1072.4" y2="216.3" stroke="#166534" stroke-width="1.9" opacity="0.36"/>
<rect width="1200" height="400" fill="url(#warm)"/>
<rect width="1200" height="400" fill="#166534" opacity="0.45"/>
</svg>