<svg xmlns="http://www.w3.org/2000/svg" viewBox="0 0 1200 300" width="1200" height="300">
<defs>
<linearGradient id="skyGrad" x1="0" y1="0" x2="0" y2="1">
<stop offset="0%" stop-color="#818cf8"/>
<stop offset="22%" stop-color="#a5b4fc"/>
<stop offset="42%" stop-color="#c4b5fd"/>
<stop offset="60%" stop-color="#e0c3fc"/>
<stop offset="80%" stop-color="#fde68a"/>
<stop offset="100%" stop-color="#fef9c3"/>
</linearGradient>
<linearGradient id="bldg_coral" x1="0" y1="0" x2="0" y2="1"><stop offset="0%" stop-color="#fecaca"/><stop offset="100%" stop-color="#fca5a5"/></linearGradient>
<linearGradient id="bldg_teal" x1="0" y1="0" x2="0" y2="1"><stop offset="0%" stop-color="#99f6e4"/><stop offset="100%" stop-color="#5eead4"/></linearGradient>
<linearGradient id="bldg_amber" x1="0" y1="0" x2="0" y2="1"><stop offset="0%" stop-color="#fde68a"/><stop offset="100%" stop-color="#fcd34d"/></linearGradient>
<linearGradient id="bldg_lavender" x1="0" y1="0" x2="0" y2="1"><stop offset="0%" stop-color="#ddd6fe"/><stop offset="100%" stop-color="#c4b5fd"/></linearGradient>
<linearGradient id="bldg_blue" x1="0" y1="0" x2="0" y2="1"><stop offset="0%" stop-color="#bfdbfe"/><stop offset="100%" stop-color="#93c5fd"/></linearGradient>
<linearGradient id="bldg_mint" x1="0" y1="0" x2="0" y2="1"><stop offset="0%" stop-color="#a7f3d0"/><stop offset="100%" stop-color="#6ee7b7"/></linearGradient>
<linearGradient id="bldg_rose" x1="0" y1="0" x2="0" y2="1"><stop offset="0%" stop-color="#fecdd3"/><stop offset="100%" stop-color="#fda4af"/></linearGradient>
<linearGradient id="bldg_sky" x1="0" y1="0" x2="0" y2="1"><stop offset="0%" stop-color="#bae6fd"/><stop offset="100%" stop-color="#7dd3fc"/></linearGradient>
<linearGradient id="roof_navyRoof" x1="0" y1="0" x2="0" y2="1"><stop offset="0%" stop-color="#4338ca"/><stop offset="100%" stop-color="#3730a3"/></linearGradient>
<linearGradient id="roof_coralRoof" x1="0" y1="0" x2="0" y2="1"><stop offset="0%" stop-color="#f87171"/><stop offset="100%" stop-color="#ef4444"/></linearGradient>
<linearGradient id="roof_tealRoof" x1="0" y1="0" x2="0" y2="1"><stop offset="0%" stop-color="#2dd4bf"/><stop offset="100%" stop-color="#14b8a6"/></linearGradient>
<radialGradient id="windowGlow" cx="50%" cy="50%" r="50%"><stop offset="0%" stop-color="#fef08a"/><stop offset="60%" stop-color="#fbbf24"/><stop offset="100%" stop-color="#f59e0b"/></radialGradient>
<linearGradient id="hillFar" x1="0" y1="0" x2="0" y2="1"><stop offset="0%" stop-color="#c4b5fd"/><stop offset="100%" stop-color="#a5b4fc"/></linearGradient>
<linearGradient id="hillMid" x1="0" y1="0" x2="0" y2="1"><stop offset="0%" stop-color="#86efac"/><stop offset="100%" stop-color="#4ade80"/></linearGradient>
<linearGradient id="hillNear" x1="0" y1="0" x2="0" y2="1"><stop offset="0%" stop-color="#34d399"/><stop offset="100%" stop-color="#10b981"/></linearGradient>
<linearGradient id="hillDesertFar" x1="0" y1="0" x2="0" y2="1"><stop offset="0%" stop-color="#fde68a"/><stop offset="100%" stop-color="#fcd34d"/></linearGradient>
<linearGradient id="hillDesertMid" x1="0" y1="0" x2="0" y2="1"><stop offset="0%" stop-color="#fcd34d"/><stop offset="100%" stop-color="#fbbf24"/></linearGradient>
<linearGradient id="hillDesertNear" x1="0" y1="0" x2="0" y2="1"><stop offset="0%" stop-color="#fbbf24"/><stop offset="100%" stop-color="#f59e0b"/></linearGradient>
<linearGradient id="groundGrad" x1="0" y1="0" x2="0" y2="1"><stop offset="0%" stop-color="#fef3c7"/><stop offset="100%" stop-color="#fde68a"/></linearGradient>
<linearGradient id="waterGrad" x1="0" y1="0" x2="0" y2="1"><stop offset="0%" stop-color="#bfdbfe"/><stop offset="100%" stop-color="#93c5fd"/></linearGradient>
<filter id="softGlow" x="-50%" y="-50%" width="200%" height="200%"><feGaussianBlur in="SourceGraphic" stdDeviation="12"/></filter>
</defs>
<rect width="1200" height="300" fill="url(#skyGrad)"/>
<circle cx="1046.9" cy="42.1" r="45" fill="#fef08a" opacity="0.12" filter="url(#softGlow)"/>
<circle cx="1046.9" cy="42.1" r="30" fill="#fde68a" opacity="0.18" filter="url(#softGlow)"/>
<circle cx="1046.9" cy="42.1" r="16" fill="#fef9c3" opacity="0.25" filter="url(#softGlow)"/>
<ellipse cx="278.8" cy="24.8" rx="50.4" ry="17.6" fill="white" opacity="0.6"/>
<ellipse cx="247.3" cy="29.8" rx="35.3" ry="13.9" fill="white" opacity="0.6"/>
<ellipse cx="306.6" cy="28.5" rx="40.3" ry="15.1" fill="white" opacity="0.5"/>
<ellipse cx="280.1" cy="40.6" rx="41.4" ry="14.5" fill="white" opacity="0.6"/>
<ellipse cx="254.3" cy="44.7" rx="28.9" ry="11.4" fill="white" opacity="0.6"/>
<ellipse cx="302.9" cy="43.7" rx="33.1" ry="12.4" fill="white" opacity="0.5"/>
<ellipse cx="867.2" cy="53.7" rx="41.9" ry="14.7" fill="white" opacity="0.7"/>
<ellipse cx="841.0" cy="57.9" rx="29.3" ry="11.5" fill="white" opacity="0.6"/>
<ellipse cx="890.2" cy="56.8" rx="33.5" ry="12.6" fill="white" opacity="0.6"/>
<path d="M0 300 L0.0 124.4 C155.7 124.4, 155.7 70.0, 311.4 70.0 C473.8 70.0, 473.8 95.3, 636.2 95.3 C775.1 95.3, 775.1 92.4, 914.1 92.4 C1057.0 92.4, 1057.0 162.1, 1200.0 162.1 L1200 300 Z" fill="url(#hillFar)" opacity="0.5"/>
<path d="M0 300 L0.0 181.7 C157.2 181.7, 157.2 170.3, 314.3 170.3 C431.7 170.3, 431.7 190.6, 549.1 190.6 C742.3 190.6, 742.3 169.6, 935.5 169.6 C1067.8 169.6, 1067.8 194.2, 1200.0 194.2 L1200 300 Z" fill="url(#hillMid)" opacity="0.7"/>
<path d="M0 300 L0.0 226.8 C184.2 226.8, 184.2 210.7, 368.5 210.7 C509.6 210.7, 509.6 224.8, 650.8 224.8 C796.5 224.8, 796.5 212.7, 942.1 212.7 C1071.1 212.7, 1071.1 236.7, 1200.0 236.7 L1200 300 Z" fill="url(#hillNear)" opacity="1"/>
<rect x="222.7" y="227.6" width="62.4" height="72.4" rx="3" fill="url(#bldg_lavender)" opacity="0.7"/>
<rect x="222.7" y="224.6" width="62.4" height="3" rx="1" fill="url(#roof_navyRoof)" opacity="0.7"/>
<rect x="236.9" y="237.6" width="6" height="8" rx="1" fill="url(#windowGlow)" opacity="0.9219966228222458"/>
<rect x="250.9" y="237.6" width="6" height="8" rx="1" fill="url(#windowGlow)" opacity="0.8907268783034415"/>
<rect x="264.9" y="237.6" width="6" height="8" rx="1" fill="url(#windowGlow)" opacity="0.8487835087574941"/>
<rect x="236.9" y="252.6" width="6" height="8" rx="1" fill="url(#windowGlow)" opacity="0.7556716132236978"/>
<rect x="250.9" y="252.6" width="6" height="8" rx="1" fill="url(#windowGlow)" opacity="0.9974709502875203"/>
<rect x="264.9" y="252.6" width="6" height="8" rx="1" fill="url(#windowGlow)" opacity="0.7627556608350741"/>
<rect x="542.3" y="226.1" width="40.9" height="73.9" rx="3" fill="url(#bldg_blue)" opacity="0.7"/>
<polygon points="542.3,226.1 562.7,217.2 583.2,226.1" fill="url(#roof_coralRoof)" opacity="0.7"/>
<rect x="559.7" y="251.1" width="6" height="8" rx="1" fill="url(#windowGlow)" opacity="0.9163263397832989"/>
<rect x="960.1" y="199.0" width="67.6" height="101.0" rx="3" fill="url(#bldg_mint)" opacity="0.7"/>
<polygon points="960.1,199.0 993.9,178.7 1027.7,199.0" fill="url(#roof_tealRoof)" opacity="0.7"/>
<rect x="990.9" y="209.0" width="6" height="8" rx="1" fill="url(#windowGlow)" opacity="0.7056734353330328"/>
<rect x="976.9" y="224.0" width="6" height="8" rx="1" fill="url(#windowGlow)" opacity="0.7518768785297297"/>
<rect x="1004.9" y="224.0" width="6" height="8" rx="1" fill="url(#windowGlow)" opacity="0.8696014860503383"/>
<rect x="1004.9" y="239.0" width="6" height="8" rx="1" fill="url(#windowGlow)" opacity="0.7841114229914319"/>
<rect x="976.9" y="254.0" width="6" height="8" rx="1" fill="url(#windowGlow)" opacity="0.9937840740633123"/>
<rect x="990.9" y="254.0" width="6" height="8" rx="1" fill="url(#windowGlow)" opacity="0.7803882246280034"/>
<rect x="1004.9" y="254.0" width="6" height="8" rx="1" fill="url(#windowGlow)" opacity="0.8063621424633833"/>
<rect x="161.7" y="165.9" width="53.5" height="134.1" rx="3" fill="url(#bldg_rose)" opacity="0.85"/>
<rect x="161.7" y="162.9" width="53.5" height="3" rx="1" fill="url(#roof_navyRoof)" opacity="0.85"/>
<rect x="178.4" y="175.9" width="6" height="8" rx="1" fill="url(#windowGlow)" opacity="0.9929261646200558"/>
<rect x="192.4" y="175.9" width="6" height="8" rx="1" fill="url(#windowGlow)" opacity="0.8518177447150543"/>
<rect x="178.4" y="190.9" width="6" height="8" rx="1" fill="url(#windowGlow)" opacity="0.9620083150276952"/>
<rect x="192.4" y="190.9" width="6" height="8" rx="1" fill="url(#windowGlow)" opacity="0.7124961870315001"/>
<rect x="178.4" y="205.9" width="6" height="8" rx="1" fill="url(#windowGlow)" opacity="0.7603595735320633"/>
<rect x="192.4" y="205.9" width="6" height="8" rx="1" fill="url(#windowGlow)" opacity="0.8110021778433594"/>
<rect x="178.4" y="220.9" width="6" height="8" rx="1" fill="url(#windowGlow)" opacity="0.8237985648325638"/>
<rect x="192.4" y="220.9" width="6" height="8" rx="1" fill="url(#windowGlow)" opacity="0.8259273975276981"/>
<rect x="192.4" y="235.9" width="6" height="8" rx="1" fill="url(#windowGlow)" opacity="0.9570826023151551"/>
<rect x="178.4" y="250.9" width="6" height="8" rx="1" fill="url(#windowGlow)" opacity="0.8650507295341466"/>
<rect x="192.4" y="250.9" width="6" height="8" rx="1" fill="url(#windowGlow)" opacity="0.9518510234783641"/>
<path d="M167.1 212.8 L188.4 212.8 L185.4 218.8 L170.1 218.8 Z" fill="url(#roof_tealRoof)" opacity="0.68"/>
<rect x="413.5" y="184.1" width="58.2" height="115.9" rx="3" fill="url(#bldg_sky)" opacity="0.85"/>
<rect x="425.2" y="170.2" width="34.9" height="13.9" rx="2" fill="url(#roof_coralRoof)" opacity="0.85"/>
<rect x="425.6" y="194.1" width="6" height="8" rx="1" fill="url(#windowGlow)" opacity="0.9460387082519189"/>
<rect x="439.6" y="194.1" width="6" height="8" rx="1" fill="url(#windowGlow)" opacity="0.9147880197105873"/>
<rect x="453.6" y="194.1" width="6" height="8" rx="1" fill="url(#windowGlow)" opacity="0.7043636790031398"/>
<rect x="425.6" y="209.1" width="6" height="8" rx="1" fill="url(#windowGlow)" opacity="0.8083164101505262"/>
<rect x="453.6" y="209.1" width="6" height="8" rx="1" fill="url(#windowGlow)" opacity="0.7952007786814127"/>
<rect x="439.6" y="224.1" width="6" height="8" rx="1" fill="url(#windowGlow)" opacity="0.9497665468369454"/>
<rect x="453.6" y="224.1" width="6" height="8" rx="1" fill="url(#windowGlow)" opacity="0.9919681477323026"/>
<rect x="425.6" y="239.1" width="6" height="8" rx="1" fill="url(#windowGlow)" opacity="0.8956444734221531"/>
<rect x="439.6" y="239.1" width="6" height="8" rx="1" fill="url(#windowGlow)" opacity="0.9275973044930013"/>
<rect x="425.6" y="254.1" width="6" height="8" rx="1" fill="url(#windowGlow)" opacity="0.8152415465168847"/>
<rect x="439.6" y="254.1" width="6" height="8" rx="1" fill="url(#windowGlow)" opacity="0.726561064844281"/>
<rect x="453.6" y="254.1" width="6" height="8" rx="1" fill="url(#windowGlow)" opacity="0.9581941793012405"/>
<rect x="709.3" y="145.6" width="37.9" height="154.4" rx="3" fill="url(#bldg_coral)" opacity="0.85"/>
<polygon points="709.3,145.6 728.3,138.0 747.2,145.6" fill="url(#roof_tealRoof)" opacity="0.85"/>
<rect x="725.3" y="155.6" width="6" height="8" rx="1" fill="url(#windowGlow)" opacity="0.8767810950413257"/>
<rect x="725.3" y="170.6" width="6" height="8" rx="1" fill="url(#windowGlow)" opacity="0.9798969881515469"/>
<rect x="725.3" y="185.6" width="6" height="8" rx="1" fill="url(#windowGlow)" opacity="0.720951394699957"/>
<rect x="725.3" y="200.6" width="6" height="8" rx="1" fill="url(#windowGlow)" opacity="0.9159401930477191"/>
<rect x="725.3" y="215.6" width="6" height="8" rx="1" fill="url(#windowGlow)" opacity="0.9312099746108101"/>
<rect x="725.3" y="230.6" width="6" height="8" rx="1" fill="url(#windowGlow)" opacity="0.727387717053009"/>
<rect x="725.3" y="245.6" width="6" height="8" rx="1" fill="url(#windowGlow)" opacity="0.7151360179833769"/>
<rect x="725.3" y="260.6" width="6" height="8" rx="1" fill="url(#windowGlow)" opacity="0.7250532257021652"/>
<rect x="962.3" y="172.3" width="56.2" height="127.7" rx="3" fill="url(#bldg_teal)" opacity="0.85"/>
<rect x="962.3" y="169.3" width="56.2" height="3" rx="1" fill="url(#roof_navyRoof)" opacity="0.85"/>
<rect x="980.3" y="182.3" width="6" height="8" rx="1" fill="url(#windowGlow)" opacity="0.8632097044322684"/>
<rect x="994.3" y="182.3" width="6" height="8" rx="1" fill="url(#windowGlow)" opacity="0.9463487037207692"/>
<rect x="980.3" y="197.3" width="6" height="8" rx="1" fill="url(#windowGlow)" opacity="0.7580831109350934"/>
<rect x="994.3" y="197.3" width="6" height="8" rx="1" fill="url(#windowGlow)" opacity="0.7490700496123498"/>
<rect x="980.3" y="212.3" width="6" height="8" rx="1" fill="url(#windowGlow)" opacity="0.7100569654768598"/>
<rect x="994.3" y="212.3" width="6" height="8" rx="1" fill="url(#windowGlow)" opacity="0.9393311966859414"/>
<rect x="980.3" y="227.3" width="6" height="8" rx="1" fill="url(#windowGlow)" opacity="0.8139628778276792"/>
<rect x="980.3" y="242.3" width="6" height="8" rx="1" fill="url(#windowGlow)" opacity="0.982771992256293"/>
<rect x="994.3" y="242.3" width="6" height="8" rx="1" fill="url(#windowGlow)" opacity="0.9213895520294967"/>
<rect x="980.3" y="257.3" width="6" height="8" rx="1" fill="url(#windowGlow)" opacity="0.8011916257912254"/>
<rect x="994.3" y="257.3" width="6" height="8" rx="1" fill="url(#windowGlow)" opacity="0.7567412960607285"/>
<path d="M990.3 217.0 L1012.8 217.0 L1009.8 223.0 L993.3 223.0 Z" fill="url(#roof_tealRoof)" opacity="0.68"/>
<rect x="161.5" y="126.6" width="44.9" height="173.4" rx="3" fill="url(#bldg_amber)" opacity="1"/>
<polygon points="161.5,126.6 183.9,115.3 206.3,126.6" fill="url(#roof_coralRoof)" opacity="1"/>
<rect x="173.9" y="136.6" width="6" height="8" rx="1" fill="url(#windowGlow)" opacity="0.9790579055804096"/>
<rect x="173.9" y="151.6" width="6" height="8" rx="1" fill="url(#windowGlow)" opacity="0.9424230354569959"/>
<rect x="187.9" y="151.6" width="6" height="8" rx="1" fill="url(#windowGlow)" opacity="0.731349238069425"/>
<rect x="187.9" y="166.6" width="6" height="8" rx="1" fill="url(#windowGlow)" opacity="0.8835816592832941"/>
<rect x="187.9" y="181.6" width="6" height="8" rx="1" fill="url(#windowGlow)" opacity="0.9204897104392246"/>
<rect x="173.9" y="196.6" width="6" height="8" rx="1" fill="url(#windowGlow)" opacity="0.9784857964042973"/>
<rect x="187.9" y="196.6" width="6" height="8" rx="1" fill="url(#windowGlow)" opacity="0.9685329113940395"/>
<rect x="173.9" y="211.6" width="6" height="8" rx="1" fill="url(#windowGlow)" opacity="0.9929933961448228"/>
<rect x="187.9" y="211.6" width="6" height="8" rx="1" fill="url(#windowGlow)" opacity="0.7170757272825928"/>
<rect x="173.9" y="226.6" width="6" height="8" rx="1" fill="url(#windowGlow)" opacity="0.7041826472171501"/>
<rect x="187.9" y="226.6" width="6" height="8" rx="1" fill="url(#windowGlow)" opacity="0.908885635486285"/>
<rect x="187.9" y="241.6" width="6" height="8" rx="1" fill="url(#windowGlow)" opacity="0.7182501527565764"/>
<rect x="178.9" y="284.0" width="10" height="16" rx="2" fill="url(#roof_navyRoof)" opacity="0.8"/>
<rect x="180.9" y="287.0" width="6" height="10" rx="1" fill="url(#windowGlow)" opacity="0.45"/>
<path d="M166.0 187.3 L183.9 187.3 L180.9 193.3 L169.0 193.3 Z" fill="url(#roof_navyRoof)" opacity="0.8"/>
<rect x="447.1" y="150.0" width="46.8" height="150.0" rx="3" fill="url(#bldg_lavender)" opacity="1"/>
<rect x="447.1" y="147.0" width="46.8" height="3" rx="1" fill="url(#roof_tealRoof)" opacity="1"/>
<rect x="460.5" y="160.0" width="6" height="8" rx="1" fill="url(#windowGlow)" opacity="0.715553422651977"/>
<rect x="474.5" y="160.0" width="6" height="8" rx="1" fill="url(#windowGlow)" opacity="0.8385896384430069"/>
<rect x="460.5" y="175.0" width="6" height="8" rx="1" fill="url(#windowGlow)" opacity="0.7062978239759327"/>
<rect x="474.5" y="175.0" width="6" height="8" rx="1" fill="url(#windowGlow)" opacity="0.894443702508902"/>
<rect x="474.5" y="190.0" width="6" height="8" rx="1" fill="url(#windowGlow)" opacity="0.8805609374682237"/>
<rect x="460.5" y="205.0" width="6" height="8" rx="1" fill="url(#windowGlow)" opacity="0.8784043891720493"/>
<rect x="474.5" y="205.0" width="6" height="8" rx="1" fill="url(#windowGlow)" opacity="0.9952367326222531"/>
<rect x="460.5" y="220.0" width="6" height="8" rx="1" fill="url(#windowGlow)" opacity="0.9463970024820403"/>
<rect x="474.5" y="220.0" width="6" height="8" rx="1" fill="url(#windowGlow)" opacity="0.792254589028775"/>
<rect x="460.5" y="235.0" width="6" height="8" rx="1" fill="url(#windowGlow)" opacity="0.9832405949864725"/>
<rect x="474.5" y="235.0" width="6" height="8" rx="1" fill="url(#windowGlow)" opacity="0.7486627609229939"/>
<rect x="460.5" y="250.0" width="6" height="8" rx="1" fill="url(#windowGlow)" opacity="0.9755686105115192"/>
<rect x="474.5" y="250.0" width="6" height="8" rx="1" fill="url(#windowGlow)" opacity="0.8213823965850204"/>
<rect x="465.5" y="284.0" width="10" height="16" rx="2" fill="url(#roof_navyRoof)" opacity="0.8"/>
<rect x="467.5" y="287.0" width="6" height="10" rx="1" fill="url(#windowGlow)" opacity="0.45"/>
<rect x="723.3" y="122.3" width="55.1" height="177.7" rx="3" fill="url(#bldg_blue)" opacity="1"/>
<polygon points="723.3,122.3 750.8,106.8 778.4,122.3" fill="url(#roof_navyRoof)" opacity="1"/>
<rect x="740.8" y="132.3" width="6" height="8" rx="1" fill="url(#windowGlow)" opacity="0.9246330421998319"/>
<rect x="740.8" y="147.3" width="6" height="8" rx="1" fill="url(#windowGlow)" opacity="0.9435755059325953"/>
<rect x="754.8" y="147.3" width="6" height="8" rx="1" fill="url(#windowGlow)" opacity="0.9143406349301061"/>
<rect x="740.8" y="162.3" width="6" height="8" rx="1" fill="url(#windowGlow)" opacity="0.8474912984052166"/>
<rect x="754.8" y="162.3" width="6" height="8" rx="1" fill="url(#windowGlow)" opacity="0.7501713454956986"/>
<rect x="740.8" y="192.3" width="6" height="8" rx="1" fill="url(#windowGlow)" opacity="0.7531729592257984"/>
<rect x="754.8" y="192.3" width="6" height="8" rx="1" fill="url(#windowGlow)" opacity="0.8970655092955871"/>
<rect x="740.8" y="222.3" width="6" height="8" rx="1" fill="url(#windowGlow)" opacity="0.7782867289512821"/>
<rect x="754.8" y="222.3" width="6" height="8" rx="1" fill="url(#windowGlow)" opacity="0.7559043118990512"/>
<rect x="740.8" y="237.3" width="6" height="8" rx="1" fill="url(#windowGlow)" opacity="0.8517400538324099"/>
<rect x="754.8" y="237.3" width="6" height="8" rx="1" fill="url(#windowGlow)" opacity="0.7477894120140883"/>
<rect x="745.8" y="284.0" width="10" height="16" rx="2" fill="url(#roof_navyRoof)" opacity="0.8"/>
<rect x="747.8" y="287.0" width="6" height="10" rx="1" fill="url(#windowGlow)" opacity="0.45"/>
<rect x="741.2" y="163.3" width="19.3" height="5" rx="1" fill="#15803d" opacity="0.7"/>
<circle cx="744.2" cy="162.3" r="2.5" fill="#fb923c" opacity="0.85"/>
<circle cx="750.6" cy="162.3" r="2.5" fill="#a78bfa" opacity="0.85"/>
<circle cx="757.0" cy="162.3" r="2.5" fill="#a78bfa" opacity="0.85"/>
<rect x="976.0" y="169.6" width="32.3" height="130.4" rx="3" fill="url(#bldg_mint)" opacity="1"/>
<polygon points="976.0,169.6 992.2,161.1 1008.3,169.6" fill="url(#roof_coralRoof)" opacity="1"/>
<rect x="989.2" y="179.6" width="6" height="8" rx="1" fill="url(#windowGlow)" opacity="0.7380860238513378"/>
<rect x="989.2" y="194.6" width="6" height="8" rx="1" fill="url(#windowGlow)" opacity="0.7366197051650936"/>
<rect x="989.2" y="209.6" width="6" height="8" rx="1" fill="url(#windowGlow)" opacity="0.9988495557097948"/>
<rect x="989.2" y="224.6" width="6" height="8" rx="1" fill="url(#windowGlow)" opacity="0.9701724456018639"/>
<rect x="989.2" y="239.6" width="6" height="8" rx="1" fill="url(#windowGlow)" opacity="0.9503755327548717"/>
<rect x="989.2" y="254.6" width="6" height="8" rx="1" fill="url(#windowGlow)" opacity="0.7562533734628247"/>
<rect x="987.2" y="284.0" width="10" height="16" rx="2" fill="url(#roof_navyRoof)" opacity="0.8"/>
<rect x="989.2" y="287.0" width="6" height="10" rx="1" fill="url(#windowGlow)" opacity="0.45"/>
<path d="M979.2 215.2 L992.2 215.2 L989.2 221.2 L982.2 221.2 Z" fill="url(#roof_navyRoof)" opacity="0.8"/>
<rect x="323.7" y="275.0" width="6" height="10.0" rx="2" fill="#92400e"/>
<polygon points="326.7,236.9 321.2,254.6 332.2,254.6" fill="#15803d" opacity="0.9"/>
<polygon points="326.7,249.6 319.0,267.3 334.4,267.3" fill="#16a34a" opacity="0.9"/>
<polygon points="326.7,262.3 316.8,280.0 336.6,280.0" fill="#22c55e" opacity="0.9"/>
<rect x="605.6" y="275.0" width="6" height="10.0" rx="2" fill="#92400e"/>
<polygon points="608.6,237.4 603.8,254.9 613.3,254.9" fill="#15803d" opacity="0.9"/>
<polygon points="608.6,249.9 601.9,267.5 615.2,267.5" fill="#16a34a" opacity="0.9"/>
<polygon points="608.6,262.5 600.1,280.0 617.1,280.0" fill="#22c55e" opacity="0.9"/>
<rect x="874.2" y="275.0" width="6" height="10.0" rx="2" fill="#92400e"/>
<polygon points="877.2,235.9 872.4,254.0 882.0,254.0" fill="#15803d" opacity="0.9"/>
<polygon points="877.2,249.0 870.4,267.0 883.9,267.0" fill="#16a34a" opacity="0.9"/>
<polygon points="877.2,262.0 868.5,280.0 885.9,280.0" fill="#22c55e" opacity="0.9"/>
<rect x="112.7" y="275.0" width="6" height="10.0" rx="2" fill="#92400e"/>
<polygon points="115.7,231.0 110.3,250.6 121.1,250.6" fill="#15803d" opacity="0.9"/>
<polygon points="115.7,245.6 108.1,265.3 123.2,265.3" fill="#16a34a" opacity="0.9"/>
<polygon points="115.7,260.3 106.0,280.0 125.4,280.0" fill="#22c55e" opacity="0.9"/>
<rect x="1036.6" y="275.0" width="6" height="10.0" rx="2" fill="#92400e"/>
<polygon points="1039.6,236.2 1034.9,254.1 1044.3,254.1" fill="#15803d" opacity="0.9"/>
<polygon points="1039.6,249.1 1033.0,267.1 1046.1,267.1" fill="#16a34a" opacity="0.9"/>
<polygon points="1039.6,262.1 1031.1,280.0 1048.0,280.0" fill="#22c55e" opacity="0.9"/>
<rect x="1145.2" y="275.0" width="6" height="10.0" rx="2" fill="#92400e"/>
<polygon points="1148.2,236.0 1143.4,254.0 1153.0,254.0" fill="#15803d" opacity="0.9"/>
<polygon points="1148.2,249.0 1141.4,267.0 1155.0,267.0" fill="#16a34a" opacity="0.9"/>
<polygon points="1148.2,262.0 1139.5,280.0 1156.9,280.0" fill="#22c55e" opacity="0.9"/>
<rect x="1146.9" y="275.0" width="6" height="10.0" rx="2" fill="#92400e"/>
<polygon points="1149.9,240.6 1145.0,257.0 1154.9,257.0" fill="#15803d" opacity="0.9"/>
<polygon points="1149.9,252.0 1143.0,268.5 1156.9,268.5" fill="#16a34a" opacity="0.9"/>
<polygon points="1149.9,263.5 1141.0,280.0 1158.8,280.0" fill="#22c55e" opacity="0.9"/>
<rect x="439.2" y="275.0" width="6" height="10.0" rx="2" fill="#92400e"/>
<polygon points="442.2,227.6 437.3,248.4 447.2,248.4" fill="#15803d" opacity="0.9"/>
<polygon points="442.2,243.4 435.3,264.2 449.2,264.2" fill="#16a34a" opacity="0.9"/>
<polygon points="442.2,259.2 433.3,280.0 451.2,280.0" fill="#22c55e" opacity="0.9"/>
<rect x="0" y="282" width="1200" height="18" fill="url(#groundGrad)"/>
<line x1="81.2" y1="282.0" x2="81.2" y2="251.1" stroke="#92400e" stroke-width="2"/>
<circle cx="81.2" cy="251.1" r="4" fill="#fef08a" opacity="0.6"/>
<circle cx="81.2" cy="251.1" r="8" fill="#fef08a" opacity="0.15" filter="url(#softGlow)"/>
<line x1="85.9" y1="282.0" x2="85.9" y2="244.0" stroke="#92400e" stroke-width="2"/>
<circle cx="85.9" cy="244.0" r="4" fill="#fef08a" opacity="0.6"/>
<circle cx="85.9" cy="244.0" r="8" fill="#fef08a" opacity="0.15" filter="url(#softGlow)"/>
<ellipse cx="51.5" cy="282.0" rx="4.9" ry="3.5" fill="#22c55e" opacity="0.6"/>
<ellipse cx="909.0" cy="282.0" rx="5.5" ry="3.8" fill="#22c55e" opacity="0.6"/>
<ellipse cx="629.7" cy="282.0" rx="6.3" ry="4.4" fill="#22c55e" opacity="0.6"/>
</svg>