<svg xmlns="http://www.w3.org/2000/svg" viewBox="0 0 1200 400" width="1200" height="400">
<defs>
<linearGradient id="bg" x1="0" y1="0" x2="0" y2="1"><stop offset="0%" stop-color="#94a3b8"/><stop offset="100%" stop-color="#0369a1"/></linearGradient>
<linearGradient id="warm" x1="0" y1="0" x2="1" y2="1"><stop offset="0%" stop-color="#858d98" stop-opacity="0.18"/><stop offset="100%" stop-color="#858d98" stop-opacity="0.06"/></linearGradient>
</defs>
<rect width="1200" height="400" fill="url(#bg)"/>
<path d="M0 400 L0 228.92492938348806 C60.0 230.7, 90.0 239.1, 150.0 246.5 C210.0 251.5, 240.0 248.5, 300.0 256.3 C360.0 256.4, 390.0 239.4, 450.0 229.9 C510.0 239.2, 540.0 264.3, 600.0 255.1 C660.0 252.9, 690.0 221.6, 750.0 223.8 C810.0 219.5, 840.0 252.0, 900.0 248.5 C960.0 251.4, 990.0 249.3, 1050.0 255.1 C1110.0 255.9, 1140.0 227.0, 1200.0 229.6 L1200 400 Z" fill="#367da9" opacity="0.45"/>
<path d="M0 400 L0 274.7628855106576 C52.5 268.5, 97.5 266.0, 150.0 263.1 C202.5 267.7, 247.5 255.9, 300.0 260.1 C352.5 254.9, 397.5 263.6, 450.0 257.7 C502.5 250.3, 547.5 279.4, 600.0 279.9 C652.5 279.9, 697.5 268.6, 750.0 270.5 C802.5 265.2, 847.5 281.0, 900.0 280.7 C952.5 285.4, 997.5 268.9, 1050.0 274.6 C1102.5 281.6, 1147.5 269.1, 1200.0 263.2 L1200 400 Z" fill="#0369a1" opacity="0.3"/>
<rect x="995.2" y="296.3" width="36.3" height="103.7" rx="7.3" fill="#05926e" opacity="0.66"/>
<rect x="1012.3" y="306.3" width="4" height="5" rx="0.5" fill="#94a3b8" opacity="0.6"/>
<rect x="1000.2" y="328.3" width="4" height="5" rx="0.5" fill="#94a3b8" opacity="0.6"/>
<rect x="1000.2" y="372.3" width="4" height="5" rx="0.5" fill="#94a3b8" opacity="0.6"/>
<rect x="1012.3" y="372.3" width="4" height="5" rx="0.5" fill="#94a3b8" opacity="0.6"/>
<rect x="168.3" y="273.3" width="39.2" height="126.7" rx="7.0" fill="#048979" opacity="0.51"/>
<rect x="173.3" y="283.3" width="4" height="5" rx="0.5" fill="#94a3b8" opacity="0.6"/>
<rect x="173.3" y="305.3" width="4" height="5" rx="0.5" fill="#94a3b8" opacity="0.6"/>
<rect x="186.4" y="305.3" width="4" height="5" rx="0.5" fill="#94a3b8" opacity="0.6"/>
<rect x="173.3" y="349.3" width="4" height="5" rx="0.5" fill="#94a3b8" opacity="0.6"/>
<rect x="186.4" y="349.3" width="4" height="5" rx="0.5" fill="#94a3b8" opacity="0.6"/>
<rect x="326.5" y="328.4" width="48.2" height="71.6" rx="5.6" fill="#04847f" opacity="0.67"/>
<rect x="393.4" y="350.8" width="16.0" height="49.2" rx="6.6" fill="#047b8a" opacity="0.55"/>
<rect x="274.4" y="318.2" width="23.1" height="81.8" rx="5.7" fill="#04867d" opacity="0.72"/>
<rect x="520.8" y="361.1" width="38.7" height="38.9" rx="4.0" fill="#058e73" opacity="0.61"/>
<rect x="173.7" y="343.4" width="33.7" height="56.6" rx="6.3" fill="#048282" opacity="0.61"/>
<rect x="759.2" y="272.9" width="36.9" height="127.1" rx="5.6" fill="#048979" opacity="0.62"/>
<rect x="764.2" y="282.9" width="4" height="5" rx="0.5" fill="#94a3b8" opacity="0.6"/>
<rect x="776.5" y="282.9" width="4" height="5" rx="0.5" fill="#94a3b8" opacity="0.6"/>
<rect x="764.2" y="304.9" width="4" height="5" rx="0.5" fill="#94a3b8" opacity="0.6"/>
<rect x="764.2" y="326.9" width="4" height="5" rx="0.5" fill="#94a3b8" opacity="0.6"/>
<rect x="776.5" y="326.9" width="4" height="5" rx="0.5" fill="#94a3b8" opacity="0.6"/>
<rect x="764.2" y="348.9" width="4" height="5" rx="0.5" fill="#94a3b8" opacity="0.6"/>
<rect x="133.3" y="295.5" width="46.1" height="104.5" rx="7.8" fill="#05926e" opacity="0.75"/>
<rect x="497.3" y="343.1" width="34.4" height="56.9" rx="6.3" fill="#059071" opacity="0.81"/>
<rect x="407.3" y="368.1" width="37.0" height="31.9" rx="3.3" fill="#05946b" opacity="0.84"/>
<rect x="1004.7" y="344.7" width="42.6" height="55.3" rx="7.8" fill="#05936d" opacity="0.78"/>
<rect x="641.4" y="289.4" width="40.5" height="110.6" rx="3.8" fill="#048979" opacity="0.73"/>
<circle cx="510.8" cy="82.8" r="4.3" fill="#94a3b8" opacity="0.45"/>
<circle cx="968.1" cy="212.6" r="6.7" fill="#94a3b8" opacity="0.35"/>
<rect width="1200" height="400" fill="url(#warm)"/>
<rect width="1200" height="400" fill="#94a3b8" opacity="0.40"/>
</svg>