<svg xmlns="http://www.w3.org/2000/svg" viewBox="0 0 1200 300" width="1200" height="300">
<defs>
<linearGradient id="skyGrad" x1="0" y1="0" x2="0" y2="1">
<stop offset="0%" stop-color="#818cf8"/>
<stop offset="20%" stop-color="#c4b5fd"/>
<stop offset="38%" stop-color="#fda4af"/>
<stop offset="55%" stop-color="#fdba74"/>
<stop offset="75%" stop-color="#fef08a"/>
<stop offset="100%" stop-color="#fef9c3"/>
</linearGradient>
<linearGradient id="bldg_coral" x1="0" y1="0" x2="0" y2="1"><stop offset="0%" stop-color="#fecaca"/><stop offset="100%" stop-color="#fca5a5"/></linearGradient>
<linearGradient id="bldg_teal" x1="0" y1="0" x2="0" y2="1"><stop offset="0%" stop-color="#99f6e4"/><stop offset="100%" stop-color="#5eead4"/></linearGradient>
<linearGradient id="bldg_amber" x1="0" y1="0" x2="0" y2="1"><stop offset="0%" stop-color="#fde68a"/><stop offset="100%" stop-color="#fcd34d"/></linearGradient>
<linearGradient id="bldg_lavender" x1="0" y1="0" x2="0" y2="1"><stop offset="0%" stop-color="#ddd6fe"/><stop offset="100%" stop-color="#c4b5fd"/></linearGradient>
<linearGradient id="bldg_blue" x1="0" y1="0" x2="0" y2="1"><stop offset="0%" stop-color="#bfdbfe"/><stop offset="100%" stop-color="#93c5fd"/></linearGradient>
<linearGradient id="bldg_mint" x1="0" y1="0" x2="0" y2="1"><stop offset="0%" stop-color="#a7f3d0"/><stop offset="100%" stop-color="#6ee7b7"/></linearGradient>
<linearGradient id="bldg_rose" x1="0" y1="0" x2="0" y2="1"><stop offset="0%" stop-color="#fecdd3"/><stop offset="100%" stop-color="#fda4af"/></linearGradient>
<linearGradient id="bldg_sky" x1="0" y1="0" x2="0" y2="1"><stop offset="0%" stop-color="#bae6fd"/><stop offset="100%" stop-color="#7dd3fc"/></linearGradient>
<linearGradient id="roof_navyRoof" x1="0" y1="0" x2="0" y2="1"><stop offset="0%" stop-color="#4338ca"/><stop offset="100%" stop-color="#3730a3"/></linearGradient>
<linearGradient id="roof_coralRoof" x1="0" y1="0" x2="0" y2="1"><stop offset="0%" stop-color="#f87171"/><stop offset="100%" stop-color="#ef4444"/></linearGradient>
<linearGradient id="roof_tealRoof" x1="0" y1="0" x2="0" y2="1"><stop offset="0%" stop-color="#2dd4bf"/><stop offset="100%" stop-color="#14b8a6"/></linearGradient>
<radialGradient id="windowGlow" cx="50%" cy="50%" r="50%"><stop offset="0%" stop-color="#fef08a"/><stop offset="60%" stop-color="#fbbf24"/><stop offset="100%" stop-color="#f59e0b"/></radialGradient>
<linearGradient id="hillFar" x1="0" y1="0" x2="0" y2="1"><stop offset="0%" stop-color="#c4b5fd"/><stop offset="100%" stop-color="#a5b4fc"/></linearGradient>
<linearGradient id="hillMid" x1="0" y1="0" x2="0" y2="1"><stop offset="0%" stop-color="#86efac"/><stop offset="100%" stop-color="#4ade80"/></linearGradient>
<linearGradient id="hillNear" x1="0" y1="0" x2="0" y2="1"><stop offset="0%" stop-color="#34d399"/><stop offset="100%" stop-color="#10b981"/></linearGradient>
<linearGradient id="hillDesertFar" x1="0" y1="0" x2="0" y2="1"><stop offset="0%" stop-color="#fde68a"/><stop offset="100%" stop-color="#fcd34d"/></linearGradient>
<linearGradient id="hillDesertMid" x1="0" y1="0" x2="0" y2="1"><stop offset="0%" stop-color="#fcd34d"/><stop offset="100%" stop-color="#fbbf24"/></linearGradient>
<linearGradient id="hillDesertNear" x1="0" y1="0" x2="0" y2="1"><stop offset="0%" stop-color="#fbbf24"/><stop offset="100%" stop-color="#f59e0b"/></linearGradient>
<linearGradient id="groundGrad" x1="0" y1="0" x2="0" y2="1"><stop offset="0%" stop-color="#fef3c7"/><stop offset="100%" stop-color="#fde68a"/></linearGradient>
<linearGradient id="waterGrad" x1="0" y1="0" x2="0" y2="1"><stop offset="0%" stop-color="#bfdbfe"/><stop offset="100%" stop-color="#93c5fd"/></linearGradient>
<filter id="softGlow" x="-50%" y="-50%" width="200%" height="200%"><feGaussianBlur in="SourceGraphic" stdDeviation="12"/></filter>
</defs>
<rect width="1200" height="300" fill="url(#skyGrad)"/>
<circle cx="1020.7" cy="39.7" r="45" fill="#fef08a" opacity="0.12" filter="url(#softGlow)"/>
<circle cx="1020.7" cy="39.7" r="30" fill="#fde68a" opacity="0.18" filter="url(#softGlow)"/>
<circle cx="1020.7" cy="39.7" r="16" fill="#fef9c3" opacity="0.25" filter="url(#softGlow)"/>
<ellipse cx="805.7" cy="49.7" rx="38.9" ry="13.6" fill="white" opacity="0.4"/>
<ellipse cx="781.4" cy="53.6" rx="27.2" ry="10.7" fill="white" opacity="0.4"/>
<ellipse cx="827.1" cy="52.6" rx="31.1" ry="11.7" fill="white" opacity="0.4"/>
<ellipse cx="284.1" cy="51.3" rx="44.6" ry="15.6" fill="white" opacity="0.6"/>
<ellipse cx="256.3" cy="55.8" rx="31.2" ry="12.3" fill="white" opacity="0.6"/>
<ellipse cx="308.6" cy="54.6" rx="35.7" ry="13.4" fill="white" opacity="0.5"/>
<ellipse cx="129.2" cy="33.2" rx="29.1" ry="10.2" fill="white" opacity="0.5"/>
<ellipse cx="111.0" cy="36.1" rx="20.3" ry="8.0" fill="white" opacity="0.4"/>
<ellipse cx="145.1" cy="35.4" rx="23.2" ry="8.7" fill="white" opacity="0.4"/>
<path d="M0 300 L0.0 186.6 C174.7 186.6, 174.7 188.8, 349.5 188.8 C459.6 188.8, 459.6 189.9, 569.8 189.9 C738.3 189.9, 738.3 193.6, 906.7 193.6 C1053.4 193.6, 1053.4 197.1, 1200.0 197.1 L1200 300 Z" fill="url(#hillFar)" opacity="0.5"/>
<path d="M0 300 L0.0 209.6 C238.6 209.6, 238.6 204.5, 477.3 204.5 C657.7 204.5, 657.7 205.8, 838.2 205.8 C1019.1 205.8, 1019.1 213.6, 1200.0 213.6 L1200 300 Z" fill="url(#hillMid)" opacity="0.7"/>
<path d="M0 300 L0.0 230.5 C185.0 230.5, 185.0 230.8, 370.0 230.8 C463.9 230.8, 463.9 230.4, 557.8 230.4 C705.8 230.4, 705.8 235.2, 853.7 235.2 C1026.9 235.2, 1026.9 233.6, 1200.0 233.6 L1200 300 Z" fill="url(#hillNear)" opacity="1"/>
<rect x="243.6" y="208.0" width="50.3" height="92.0" rx="3" fill="url(#bldg_blue)" opacity="0.7"/>
<rect x="253.7" y="196.9" width="30.2" height="11.0" rx="2" fill="url(#roof_coralRoof)" opacity="0.7"/>
<rect x="258.8" y="218.0" width="6" height="8" rx="1" fill="url(#windowGlow)" opacity="0.8197969665843048"/>
<rect x="272.8" y="218.0" width="6" height="8" rx="1" fill="url(#windowGlow)" opacity="0.7775505510054298"/>
<rect x="258.8" y="233.0" width="6" height="8" rx="1" fill="url(#windowGlow)" opacity="0.9308446493609084"/>
<rect x="272.8" y="233.0" width="6" height="8" rx="1" fill="url(#windowGlow)" opacity="0.7776207494445241"/>
<rect x="258.8" y="248.0" width="6" height="8" rx="1" fill="url(#windowGlow)" opacity="0.7160413534920855"/>
<rect x="272.8" y="248.0" width="6" height="8" rx="1" fill="url(#windowGlow)" opacity="0.9119425991140038"/>
<rect x="595.7" y="243.7" width="81.5" height="56.3" rx="3" fill="url(#bldg_mint)" opacity="0.7"/>
<polygon points="595.7,243.7 636.5,221.6 677.3,243.7" fill="url(#roof_tealRoof)" opacity="0.7"/>
<rect x="612.5" y="253.7" width="6" height="8" rx="1" fill="url(#windowGlow)" opacity="0.8299207686585937"/>
<rect x="640.5" y="253.7" width="6" height="8" rx="1" fill="url(#windowGlow)" opacity="0.7237578032648925"/>
<rect x="654.5" y="253.7" width="6" height="8" rx="1" fill="url(#windowGlow)" opacity="0.872182535553436"/>
<rect x="943.6" y="217.0" width="82.1" height="83.0" rx="3" fill="url(#bldg_rose)" opacity="0.7"/>
<rect x="943.6" y="214.0" width="82.1" height="3" rx="1" fill="url(#roof_navyRoof)" opacity="0.7"/>
<rect x="960.6" y="227.0" width="6" height="8" rx="1" fill="url(#windowGlow)" opacity="0.8092149565970594"/>
<rect x="974.6" y="227.0" width="6" height="8" rx="1" fill="url(#windowGlow)" opacity="0.7704319948192835"/>
<rect x="988.6" y="227.0" width="6" height="8" rx="1" fill="url(#windowGlow)" opacity="0.9986730458208699"/>
<rect x="1002.6" y="227.0" width="6" height="8" rx="1" fill="url(#windowGlow)" opacity="0.7648464113310195"/>
<rect x="960.6" y="242.0" width="6" height="8" rx="1" fill="url(#windowGlow)" opacity="0.9879104636553258"/>
<rect x="974.6" y="242.0" width="6" height="8" rx="1" fill="url(#windowGlow)" opacity="0.8075295126100673"/>
<rect x="1002.6" y="242.0" width="6" height="8" rx="1" fill="url(#windowGlow)" opacity="0.9949406551639273"/>
<rect x="974.6" y="257.0" width="6" height="8" rx="1" fill="url(#windowGlow)" opacity="0.8304432484463058"/>
<rect x="988.6" y="257.0" width="6" height="8" rx="1" fill="url(#windowGlow)" opacity="0.8599458413477734"/>
<rect x="1002.6" y="257.0" width="6" height="8" rx="1" fill="url(#windowGlow)" opacity="0.7679536842591844"/>
<rect x="160.0" y="197.7" width="65.4" height="102.3" rx="3" fill="url(#bldg_sky)" opacity="0.85"/>
<rect x="160.0" y="194.7" width="65.4" height="3" rx="1" fill="url(#roof_coralRoof)" opacity="0.85"/>
<rect x="175.7" y="207.7" width="6" height="8" rx="1" fill="url(#windowGlow)" opacity="0.9008857161742102"/>
<rect x="203.7" y="207.7" width="6" height="8" rx="1" fill="url(#windowGlow)" opacity="0.8202266810556066"/>
<rect x="189.7" y="222.7" width="6" height="8" rx="1" fill="url(#windowGlow)" opacity="0.8331226924122882"/>
<rect x="203.7" y="222.7" width="6" height="8" rx="1" fill="url(#windowGlow)" opacity="0.8548515585040913"/>
<rect x="175.7" y="237.7" width="6" height="8" rx="1" fill="url(#windowGlow)" opacity="0.8042780227513415"/>
<rect x="189.7" y="237.7" width="6" height="8" rx="1" fill="url(#windowGlow)" opacity="0.8094467560339005"/>
<rect x="203.7" y="237.7" width="6" height="8" rx="1" fill="url(#windowGlow)" opacity="0.7086192850994967"/>
<rect x="175.7" y="252.7" width="6" height="8" rx="1" fill="url(#windowGlow)" opacity="0.8190983795184168"/>
<rect x="189.7" y="252.7" width="6" height="8" rx="1" fill="url(#windowGlow)" opacity="0.7205025109557912"/>
<rect x="203.7" y="252.7" width="6" height="8" rx="1" fill="url(#windowGlow)" opacity="0.9082276917101012"/>
<rect x="432.0" y="195.2" width="66.9" height="104.8" rx="3" fill="url(#bldg_coral)" opacity="0.85"/>
<polygon points="432.0,195.2 465.5,178.5 498.9,195.2" fill="url(#roof_tealRoof)" opacity="0.85"/>
<rect x="448.5" y="205.2" width="6" height="8" rx="1" fill="url(#windowGlow)" opacity="0.814299644815875"/>
<rect x="462.5" y="205.2" width="6" height="8" rx="1" fill="url(#windowGlow)" opacity="0.9589305522660401"/>
<rect x="448.5" y="220.2" width="6" height="8" rx="1" fill="url(#windowGlow)" opacity="0.9493168531215361"/>
<rect x="462.5" y="220.2" width="6" height="8" rx="1" fill="url(#windowGlow)" opacity="0.7439973965492087"/>
<rect x="476.5" y="220.2" width="6" height="8" rx="1" fill="url(#windowGlow)" opacity="0.9536019530396918"/>
<rect x="448.5" y="235.2" width="6" height="8" rx="1" fill="url(#windowGlow)" opacity="0.9542314141309967"/>
<rect x="462.5" y="235.2" width="6" height="8" rx="1" fill="url(#windowGlow)" opacity="0.8257658445861962"/>
<rect x="476.5" y="235.2" width="6" height="8" rx="1" fill="url(#windowGlow)" opacity="0.8188456070231486"/>
<rect x="448.5" y="250.2" width="6" height="8" rx="1" fill="url(#windowGlow)" opacity="0.8141345910328135"/>
<rect x="462.5" y="250.2" width="6" height="8" rx="1" fill="url(#windowGlow)" opacity="0.9053841020005681"/>
<rect x="716.8" y="218.7" width="66.6" height="81.3" rx="3" fill="url(#bldg_teal)" opacity="0.85"/>
<rect x="716.8" y="215.7" width="66.6" height="3" rx="1" fill="url(#roof_navyRoof)" opacity="0.85"/>
<rect x="733.1" y="228.7" width="6" height="8" rx="1" fill="url(#windowGlow)" opacity="0.9331931225644392"/>
<rect x="761.1" y="228.7" width="6" height="8" rx="1" fill="url(#windowGlow)" opacity="0.9607812009103508"/>
<rect x="733.1" y="243.7" width="6" height="8" rx="1" fill="url(#windowGlow)" opacity="0.9280235903468093"/>
<rect x="747.1" y="243.7" width="6" height="8" rx="1" fill="url(#windowGlow)" opacity="0.9502222900512731"/>
<rect x="761.1" y="243.7" width="6" height="8" rx="1" fill="url(#windowGlow)" opacity="0.8414468750084968"/>
<rect x="733.1" y="258.7" width="6" height="8" rx="1" fill="url(#windowGlow)" opacity="0.8117126124499889"/>
<rect x="747.1" y="258.7" width="6" height="8" rx="1" fill="url(#windowGlow)" opacity="0.823796181158999"/>
<rect x="761.1" y="258.7" width="6" height="8" rx="1" fill="url(#windowGlow)" opacity="0.7189204096882233"/>
<path d="M750.1 247.1 L776.7 247.1 L773.7 253.1 L753.1 253.1 Z" fill="url(#roof_tealRoof)" opacity="0.68"/>
<rect x="968.2" y="177.2" width="54.9" height="122.8" rx="3" fill="url(#bldg_amber)" opacity="0.85"/>
<polygon points="968.2,177.2 995.7,162.2 1023.1,177.2" fill="url(#roof_coralRoof)" opacity="0.85"/>
<rect x="985.7" y="187.2" width="6" height="8" rx="1" fill="url(#windowGlow)" opacity="0.7162985154503484"/>
<rect x="999.7" y="187.2" width="6" height="8" rx="1" fill="url(#windowGlow)" opacity="0.8201136347465746"/>
<rect x="985.7" y="202.2" width="6" height="8" rx="1" fill="url(#windowGlow)" opacity="0.9000514544546843"/>
<rect x="999.7" y="202.2" width="6" height="8" rx="1" fill="url(#windowGlow)" opacity="0.7275816330814648"/>
<rect x="985.7" y="217.2" width="6" height="8" rx="1" fill="url(#windowGlow)" opacity="0.9251011347515048"/>
<rect x="999.7" y="217.2" width="6" height="8" rx="1" fill="url(#windowGlow)" opacity="0.7866140835390492"/>
<rect x="985.7" y="232.2" width="6" height="8" rx="1" fill="url(#windowGlow)" opacity="0.7245804431962689"/>
<rect x="985.7" y="247.2" width="6" height="8" rx="1" fill="url(#windowGlow)" opacity="0.9869462637169968"/>
<rect x="999.7" y="247.2" width="6" height="8" rx="1" fill="url(#windowGlow)" opacity="0.822168567414474"/>
<rect x="137.1" y="182.1" width="46.5" height="117.9" rx="3" fill="url(#bldg_lavender)" opacity="1"/>
<rect x="137.1" y="179.1" width="46.5" height="3" rx="1" fill="url(#roof_tealRoof)" opacity="1"/>
<rect x="150.4" y="192.1" width="6" height="8" rx="1" fill="url(#windowGlow)" opacity="0.809152361941129"/>
<rect x="164.4" y="192.1" width="6" height="8" rx="1" fill="url(#windowGlow)" opacity="0.9887979904137543"/>
<rect x="150.4" y="222.1" width="6" height="8" rx="1" fill="url(#windowGlow)" opacity="0.879917162600866"/>
<rect x="164.4" y="222.1" width="6" height="8" rx="1" fill="url(#windowGlow)" opacity="0.8933582677009321"/>
<rect x="150.4" y="237.1" width="6" height="8" rx="1" fill="url(#windowGlow)" opacity="0.8396266509963323"/>
<rect x="164.4" y="237.1" width="6" height="8" rx="1" fill="url(#windowGlow)" opacity="0.9805899728930507"/>
<rect x="150.4" y="252.1" width="6" height="8" rx="1" fill="url(#windowGlow)" opacity="0.7821428309111589"/>
<rect x="155.4" y="284.0" width="10" height="16" rx="2" fill="url(#roof_navyRoof)" opacity="0.8"/>
<rect x="157.4" y="287.0" width="6" height="10" rx="1" fill="url(#windowGlow)" opacity="0.45"/>
<path d="M160.4 223.4 L179.0 223.4 L176.0 229.4 L163.4 229.4 Z" fill="url(#roof_coralRoof)" opacity="0.8"/>
<rect x="152.3" y="208.1" width="16.3" height="5" rx="1" fill="#15803d" opacity="0.7"/>
<circle cx="155.3" cy="207.1" r="2.5" fill="#a78bfa" opacity="0.85"/>
<circle cx="160.7" cy="207.1" r="2.5" fill="#f87171" opacity="0.85"/>
<circle cx="166.1" cy="207.1" r="2.5" fill="#a78bfa" opacity="0.85"/>
<rect x="453.0" y="206.7" width="61.5" height="93.3" rx="3" fill="url(#bldg_blue)" opacity="1"/>
<polygon points="453.0,206.7 483.7,190.3 514.4,206.7" fill="url(#roof_navyRoof)" opacity="1"/>
<rect x="466.7" y="216.7" width="6" height="8" rx="1" fill="url(#windowGlow)" opacity="0.9440176916979335"/>
<rect x="480.7" y="216.7" width="6" height="8" rx="1" fill="url(#windowGlow)" opacity="0.9924184274824421"/>
<rect x="494.7" y="216.7" width="6" height="8" rx="1" fill="url(#windowGlow)" opacity="0.8449921402358413"/>
<rect x="466.7" y="231.7" width="6" height="8" rx="1" fill="url(#windowGlow)" opacity="0.7398328201565113"/>
<rect x="480.7" y="231.7" width="6" height="8" rx="1" fill="url(#windowGlow)" opacity="0.9576043331798185"/>
<rect x="494.7" y="231.7" width="6" height="8" rx="1" fill="url(#windowGlow)" opacity="0.8039924316126817"/>
<rect x="466.7" y="246.7" width="6" height="8" rx="1" fill="url(#windowGlow)" opacity="0.8538602574979235"/>
<rect x="480.7" y="246.7" width="6" height="8" rx="1" fill="url(#windowGlow)" opacity="0.9639188586566219"/>
<rect x="494.7" y="246.7" width="6" height="8" rx="1" fill="url(#windowGlow)" opacity="0.8300601815013495"/>
<rect x="478.7" y="284.0" width="10" height="16" rx="2" fill="url(#roof_navyRoof)" opacity="0.8"/>
<rect x="480.7" y="287.0" width="6" height="10" rx="1" fill="url(#windowGlow)" opacity="0.45"/>
<rect x="472.9" y="247.7" width="21.5" height="5" rx="1" fill="#15803d" opacity="0.7"/>
<circle cx="475.9" cy="246.7" r="2.5" fill="#f87171" opacity="0.85"/>
<circle cx="483.1" cy="246.7" r="2.5" fill="#a78bfa" opacity="0.85"/>
<circle cx="490.3" cy="246.7" r="2.5" fill="#f87171" opacity="0.85"/>
<rect x="749.7" y="241.9" width="37.3" height="58.1" rx="3" fill="url(#bldg_mint)" opacity="1"/>
<polygon points="749.7,241.9 768.3,234.1 787.0,241.9" fill="url(#roof_coralRoof)" opacity="1"/>
<rect x="763.3" y="284.0" width="10" height="16" rx="2" fill="url(#roof_navyRoof)" opacity="0.8"/>
<rect x="765.3" y="287.0" width="6" height="10" rx="1" fill="url(#windowGlow)" opacity="0.45"/>
<rect x="972.1" y="225.5" width="63.7" height="74.5" rx="3" fill="url(#bldg_rose)" opacity="1"/>
<rect x="972.1" y="222.5" width="63.7" height="3" rx="1" fill="url(#roof_tealRoof)" opacity="1"/>
<rect x="1001.0" y="235.5" width="6" height="8" rx="1" fill="url(#windowGlow)" opacity="0.8022357499703"/>
<rect x="1001.0" y="250.5" width="6" height="8" rx="1" fill="url(#windowGlow)" opacity="0.9475252707710141"/>
<rect x="1015.0" y="250.5" width="6" height="8" rx="1" fill="url(#windowGlow)" opacity="0.9365463078192184"/>
<rect x="999.0" y="284.0" width="10" height="16" rx="2" fill="url(#roof_navyRoof)" opacity="0.8"/>
<rect x="1001.0" y="287.0" width="6" height="10" rx="1" fill="url(#windowGlow)" opacity="0.45"/>
<path d="M1004.0 251.6 L1029.4 251.6 L1026.4 257.6 L1007.0 257.6 Z" fill="url(#roof_coralRoof)" opacity="0.8"/>
<rect x="315.3" y="268.6" width="6" height="16.4" rx="2" fill="#15803d"/>
<circle cx="318.3" cy="256.5" r="16.0" fill="#22c55e" opacity="0.9"/>
<circle cx="310.7" cy="259.5" r="12.0" fill="#16a34a" opacity="0.8"/>
<circle cx="324.4" cy="260.5" r="11.2" fill="#15803d" opacity="0.7"/>
<rect x="629.1" y="264.9" width="6" height="20.1" rx="2" fill="#15803d"/>
<circle cx="632.1" cy="252.8" r="16.1" fill="#22c55e" opacity="0.9"/>
<circle cx="623.8" cy="255.8" r="12.1" fill="#16a34a" opacity="0.8"/>
<circle cx="637.4" cy="256.8" r="11.3" fill="#15803d" opacity="0.7"/>
<rect x="876.6" y="267.5" width="6" height="17.5" rx="2" fill="#15803d"/>
<circle cx="879.6" cy="258.0" r="13.5" fill="#22c55e" opacity="0.9"/>
<circle cx="871.5" cy="261.0" r="10.1" fill="#16a34a" opacity="0.8"/>
<circle cx="885.2" cy="262.0" r="9.5" fill="#15803d" opacity="0.7"/>
<rect x="96.7" y="263.1" width="6" height="21.9" rx="2" fill="#15803d"/>
<circle cx="99.7" cy="249.4" r="17.7" fill="#22c55e" opacity="0.9"/>
<circle cx="92.9" cy="252.4" r="13.2" fill="#16a34a" opacity="0.8"/>
<circle cx="107.3" cy="253.4" r="12.4" fill="#15803d" opacity="0.7"/>
<rect x="1070.4" y="267.5" width="6" height="17.5" rx="2" fill="#15803d"/>
<circle cx="1073.4" cy="254.5" r="16.9" fill="#22c55e" opacity="0.9"/>
<circle cx="1065.8" cy="257.5" r="12.7" fill="#16a34a" opacity="0.8"/>
<circle cx="1078.6" cy="258.5" r="11.9" fill="#15803d" opacity="0.7"/>
<rect x="908.6" y="263.1" width="6" height="21.9" rx="2" fill="#15803d"/>
<circle cx="911.6" cy="250.5" r="16.6" fill="#22c55e" opacity="0.9"/>
<circle cx="902.7" cy="253.5" r="12.4" fill="#16a34a" opacity="0.8"/>
<circle cx="918.3" cy="254.5" r="11.6" fill="#15803d" opacity="0.7"/>
<rect x="272.4" y="265.7" width="6" height="19.3" rx="2" fill="#15803d"/>
<circle cx="275.4" cy="253.6" r="16.1" fill="#22c55e" opacity="0.9"/>
<circle cx="268.5" cy="256.6" r="12.1" fill="#16a34a" opacity="0.8"/>
<circle cx="282.9" cy="257.6" r="11.3" fill="#15803d" opacity="0.7"/>
<rect x="906.5" y="264.9" width="6" height="20.1" rx="2" fill="#15803d"/>
<circle cx="909.5" cy="255.0" r="13.9" fill="#22c55e" opacity="0.9"/>
<circle cx="903.0" cy="258.0" r="10.4" fill="#16a34a" opacity="0.8"/>
<circle cx="914.9" cy="259.0" r="9.7" fill="#15803d" opacity="0.7"/>
<rect x="0" y="282" width="1200" height="18" fill="url(#groundGrad)"/>
<line x1="851.6" y1="282.0" x2="851.6" y2="246.1" stroke="#92400e" stroke-width="2"/>
<circle cx="851.6" cy="246.1" r="4" fill="#fef08a" opacity="0.6"/>
<circle cx="851.6" cy="246.1" r="8" fill="#fef08a" opacity="0.15" filter="url(#softGlow)"/>
<ellipse cx="1166.2" cy="282.0" rx="6.1" ry="4.3" fill="#22c55e" opacity="0.6"/>
<ellipse cx="356.3" cy="282.0" rx="4.9" ry="3.5" fill="#22c55e" opacity="0.6"/>
<ellipse cx="257.0" cy="282.0" rx="6.9" ry="4.8" fill="#22c55e" opacity="0.6"/>
</svg>