<svg xmlns="http://www.w3.org/2000/svg" viewBox="0 0 1200 300" width="1200" height="300">
<defs>
<linearGradient id="skyGrad" x1="0" y1="0" x2="0" y2="1">
<stop offset="0%" stop-color="#818cf8"/>
<stop offset="20%" stop-color="#c4b5fd"/>
<stop offset="38%" stop-color="#fda4af"/>
<stop offset="55%" stop-color="#fdba74"/>
<stop offset="75%" stop-color="#fef08a"/>
<stop offset="100%" stop-color="#fef9c3"/>
</linearGradient>
<linearGradient id="bldg_coral" x1="0" y1="0" x2="0" y2="1"><stop offset="0%" stop-color="#fecaca"/><stop offset="100%" stop-color="#fca5a5"/></linearGradient>
<linearGradient id="bldg_teal" x1="0" y1="0" x2="0" y2="1"><stop offset="0%" stop-color="#99f6e4"/><stop offset="100%" stop-color="#5eead4"/></linearGradient>
<linearGradient id="bldg_amber" x1="0" y1="0" x2="0" y2="1"><stop offset="0%" stop-color="#fde68a"/><stop offset="100%" stop-color="#fcd34d"/></linearGradient>
<linearGradient id="bldg_lavender" x1="0" y1="0" x2="0" y2="1"><stop offset="0%" stop-color="#ddd6fe"/><stop offset="100%" stop-color="#c4b5fd"/></linearGradient>
<linearGradient id="bldg_blue" x1="0" y1="0" x2="0" y2="1"><stop offset="0%" stop-color="#bfdbfe"/><stop offset="100%" stop-color="#93c5fd"/></linearGradient>
<linearGradient id="bldg_mint" x1="0" y1="0" x2="0" y2="1"><stop offset="0%" stop-color="#a7f3d0"/><stop offset="100%" stop-color="#6ee7b7"/></linearGradient>
<linearGradient id="bldg_rose" x1="0" y1="0" x2="0" y2="1"><stop offset="0%" stop-color="#fecdd3"/><stop offset="100%" stop-color="#fda4af"/></linearGradient>
<linearGradient id="bldg_sky" x1="0" y1="0" x2="0" y2="1"><stop offset="0%" stop-color="#bae6fd"/><stop offset="100%" stop-color="#7dd3fc"/></linearGradient>
<linearGradient id="roof_navyRoof" x1="0" y1="0" x2="0" y2="1"><stop offset="0%" stop-color="#4338ca"/><stop offset="100%" stop-color="#3730a3"/></linearGradient>
<linearGradient id="roof_coralRoof" x1="0" y1="0" x2="0" y2="1"><stop offset="0%" stop-color="#f87171"/><stop offset="100%" stop-color="#ef4444"/></linearGradient>
<linearGradient id="roof_tealRoof" x1="0" y1="0" x2="0" y2="1"><stop offset="0%" stop-color="#2dd4bf"/><stop offset="100%" stop-color="#14b8a6"/></linearGradient>
<radialGradient id="windowGlow" cx="50%" cy="50%" r="50%"><stop offset="0%" stop-color="#fef08a"/><stop offset="60%" stop-color="#fbbf24"/><stop offset="100%" stop-color="#f59e0b"/></radialGradient>
<linearGradient id="hillFar" x1="0" y1="0" x2="0" y2="1"><stop offset="0%" stop-color="#c4b5fd"/><stop offset="100%" stop-color="#a5b4fc"/></linearGradient>
<linearGradient id="hillMid" x1="0" y1="0" x2="0" y2="1"><stop offset="0%" stop-color="#86efac"/><stop offset="100%" stop-color="#4ade80"/></linearGradient>
<linearGradient id="hillNear" x1="0" y1="0" x2="0" y2="1"><stop offset="0%" stop-color="#34d399"/><stop offset="100%" stop-color="#10b981"/></linearGradient>
<linearGradient id="hillDesertFar" x1="0" y1="0" x2="0" y2="1"><stop offset="0%" stop-color="#fde68a"/><stop offset="100%" stop-color="#fcd34d"/></linearGradient>
<linearGradient id="hillDesertMid" x1="0" y1="0" x2="0" y2="1"><stop offset="0%" stop-color="#fcd34d"/><stop offset="100%" stop-color="#fbbf24"/></linearGradient>
<linearGradient id="hillDesertNear" x1="0" y1="0" x2="0" y2="1"><stop offset="0%" stop-color="#fbbf24"/><stop offset="100%" stop-color="#f59e0b"/></linearGradient>
<linearGradient id="groundGrad" x1="0" y1="0" x2="0" y2="1"><stop offset="0%" stop-color="#fef3c7"/><stop offset="100%" stop-color="#fde68a"/></linearGradient>
<linearGradient id="waterGrad" x1="0" y1="0" x2="0" y2="1"><stop offset="0%" stop-color="#bfdbfe"/><stop offset="100%" stop-color="#93c5fd"/></linearGradient>
<filter id="softGlow" x="-50%" y="-50%" width="200%" height="200%"><feGaussianBlur in="SourceGraphic" stdDeviation="12"/></filter>
</defs>
<rect width="1200" height="300" fill="url(#skyGrad)"/>
<circle cx="960.7" cy="44.3" r="45" fill="#fef08a" opacity="0.12" filter="url(#softGlow)"/>
<circle cx="960.7" cy="44.3" r="30" fill="#fde68a" opacity="0.18" filter="url(#softGlow)"/>
<circle cx="960.7" cy="44.3" r="16" fill="#fef9c3" opacity="0.25" filter="url(#softGlow)"/>
<ellipse cx="1004.2" cy="18.3" rx="34.9" ry="12.2" fill="white" opacity="0.6"/>
<ellipse cx="982.3" cy="21.8" rx="24.5" ry="9.6" fill="white" opacity="0.5"/>
<ellipse cx="1023.4" cy="21.0" rx="27.9" ry="10.5" fill="white" opacity="0.5"/>
<ellipse cx="644.0" cy="51.8" rx="43.7" ry="15.3" fill="white" opacity="0.5"/>
<ellipse cx="616.8" cy="56.1" rx="30.6" ry="12.0" fill="white" opacity="0.5"/>
<ellipse cx="668.0" cy="55.1" rx="34.9" ry="13.1" fill="white" opacity="0.4"/>
<path d="M0 300 L0.0 195.5 C132.6 195.5, 132.6 190.5, 265.2 190.5 C379.1 190.5, 379.1 188.8, 492.9 188.8 C609.2 188.8, 609.2 189.3, 725.4 189.3 C852.1 189.3, 852.1 181.7, 978.8 181.7 C1089.4 181.7, 1089.4 198.7, 1200.0 198.7 L1200 300 Z" fill="url(#hillFar)" opacity="0.5"/>
<path d="M0 300 L0.0 214.3 C131.5 214.3, 131.5 215.1, 263.1 215.1 C455.2 215.1, 455.2 213.9, 647.3 213.9 C805.3 213.9, 805.3 209.2, 963.3 209.2 C1081.7 209.2, 1081.7 212.5, 1200.0 212.5 L1200 300 Z" fill="url(#hillMid)" opacity="0.7"/>
<path d="M0 300 L0.0 237.3 C130.2 237.3, 130.2 234.3, 260.4 234.3 C374.9 234.3, 374.9 232.6, 489.3 232.6 C589.3 232.6, 589.3 236.9, 689.2 236.9 C810.0 236.9, 810.0 232.7, 930.8 232.7 C1065.4 232.7, 1065.4 229.9, 1200.0 229.9 L1200 300 Z" fill="url(#hillNear)" opacity="1"/>
<rect x="175.1" y="198.3" width="77.0" height="101.7" rx="3" fill="url(#bldg_coral)" opacity="0.7"/>
<polygon points="175.1,198.3 213.6,173.1 252.2,198.3" fill="url(#roof_navyRoof)" opacity="0.7"/>
<rect x="189.6" y="208.3" width="6" height="8" rx="1" fill="url(#windowGlow)" opacity="0.7964758316969852"/>
<rect x="203.6" y="208.3" width="6" height="8" rx="1" fill="url(#windowGlow)" opacity="0.9434628809538962"/>
<rect x="217.6" y="208.3" width="6" height="8" rx="1" fill="url(#windowGlow)" opacity="0.934633633650203"/>
<rect x="231.6" y="208.3" width="6" height="8" rx="1" fill="url(#windowGlow)" opacity="0.7687635183188894"/>
<rect x="203.6" y="223.3" width="6" height="8" rx="1" fill="url(#windowGlow)" opacity="0.7085872667881601"/>
<rect x="217.6" y="223.3" width="6" height="8" rx="1" fill="url(#windowGlow)" opacity="0.8550021729222508"/>
<rect x="231.6" y="238.3" width="6" height="8" rx="1" fill="url(#windowGlow)" opacity="0.7051636203216219"/>
<rect x="189.6" y="253.3" width="6" height="8" rx="1" fill="url(#windowGlow)" opacity="0.911629690514705"/>
<rect x="231.6" y="253.3" width="6" height="8" rx="1" fill="url(#windowGlow)" opacity="0.8438474059774761"/>
<rect x="534.7" y="198.8" width="49.2" height="101.2" rx="3" fill="url(#bldg_teal)" opacity="0.7"/>
<rect x="534.7" y="195.8" width="49.2" height="3" rx="1" fill="url(#roof_coralRoof)" opacity="0.7"/>
<rect x="549.3" y="208.8" width="6" height="8" rx="1" fill="url(#windowGlow)" opacity="0.8766866175814935"/>
<rect x="563.3" y="208.8" width="6" height="8" rx="1" fill="url(#windowGlow)" opacity="0.9237581019866085"/>
<rect x="549.3" y="223.8" width="6" height="8" rx="1" fill="url(#windowGlow)" opacity="0.7088317337952702"/>
<rect x="563.3" y="223.8" width="6" height="8" rx="1" fill="url(#windowGlow)" opacity="0.9947999443834648"/>
<rect x="549.3" y="238.8" width="6" height="8" rx="1" fill="url(#windowGlow)" opacity="0.8811439762269817"/>
<rect x="563.3" y="238.8" width="6" height="8" rx="1" fill="url(#windowGlow)" opacity="0.9155515448728351"/>
<rect x="549.3" y="253.8" width="6" height="8" rx="1" fill="url(#windowGlow)" opacity="0.8764420912025692"/>
<rect x="563.3" y="253.8" width="6" height="8" rx="1" fill="url(#windowGlow)" opacity="0.7545002138961573"/>
<rect x="986.1" y="218.9" width="47.9" height="81.1" rx="3" fill="url(#bldg_amber)" opacity="0.7"/>
<polygon points="986.1,218.9 1010.1,209.2 1034.0,218.9" fill="url(#roof_tealRoof)" opacity="0.7"/>
<rect x="1000.1" y="228.9" width="6" height="8" rx="1" fill="url(#windowGlow)" opacity="0.9172693399327199"/>
<rect x="1014.1" y="228.9" width="6" height="8" rx="1" fill="url(#windowGlow)" opacity="0.7908602502154467"/>
<rect x="1000.1" y="243.9" width="6" height="8" rx="1" fill="url(#windowGlow)" opacity="0.8233151662272006"/>
<rect x="1014.1" y="243.9" width="6" height="8" rx="1" fill="url(#windowGlow)" opacity="0.8739263506950468"/>
<rect x="1000.1" y="258.9" width="6" height="8" rx="1" fill="url(#windowGlow)" opacity="0.9675845065934511"/>
<rect x="1014.1" y="258.9" width="6" height="8" rx="1" fill="url(#windowGlow)" opacity="0.7147796161075959"/>
<rect x="143.0" y="224.9" width="74.8" height="75.1" rx="3" fill="url(#bldg_lavender)" opacity="0.85"/>
<rect x="143.0" y="221.9" width="74.8" height="3" rx="1" fill="url(#roof_navyRoof)" opacity="0.85"/>
<rect x="156.4" y="234.9" width="6" height="8" rx="1" fill="url(#windowGlow)" opacity="0.9556981977334702"/>
<rect x="170.4" y="234.9" width="6" height="8" rx="1" fill="url(#windowGlow)" opacity="0.780814272016666"/>
<rect x="184.4" y="234.9" width="6" height="8" rx="1" fill="url(#windowGlow)" opacity="0.9618021661703484"/>
<rect x="198.4" y="234.9" width="6" height="8" rx="1" fill="url(#windowGlow)" opacity="0.7629909020210573"/>
<rect x="156.4" y="249.9" width="6" height="8" rx="1" fill="url(#windowGlow)" opacity="0.7737403533764836"/>
<rect x="170.4" y="249.9" width="6" height="8" rx="1" fill="url(#windowGlow)" opacity="0.9652356024203987"/>
<rect x="198.4" y="249.9" width="6" height="8" rx="1" fill="url(#windowGlow)" opacity="0.7458872884259965"/>
<rect x="447.8" y="189.1" width="50.9" height="110.9" rx="3" fill="url(#bldg_blue)" opacity="0.85"/>
<rect x="458.0" y="175.8" width="30.6" height="13.3" rx="2" fill="url(#roof_coralRoof)" opacity="0.85"/>
<rect x="463.3" y="199.1" width="6" height="8" rx="1" fill="url(#windowGlow)" opacity="0.777311978292331"/>
<rect x="477.3" y="199.1" width="6" height="8" rx="1" fill="url(#windowGlow)" opacity="0.8294249964083661"/>
<rect x="463.3" y="214.1" width="6" height="8" rx="1" fill="url(#windowGlow)" opacity="0.8140947293555805"/>
<rect x="477.3" y="214.1" width="6" height="8" rx="1" fill="url(#windowGlow)" opacity="0.9035508427319818"/>
<rect x="463.3" y="229.1" width="6" height="8" rx="1" fill="url(#windowGlow)" opacity="0.885814084338869"/>
<rect x="477.3" y="229.1" width="6" height="8" rx="1" fill="url(#windowGlow)" opacity="0.9541703903834198"/>
<rect x="463.3" y="244.1" width="6" height="8" rx="1" fill="url(#windowGlow)" opacity="0.7224353961285368"/>
<rect x="477.3" y="244.1" width="6" height="8" rx="1" fill="url(#windowGlow)" opacity="0.7144224389057711"/>
<rect x="477.3" y="259.1" width="6" height="8" rx="1" fill="url(#windowGlow)" opacity="0.7707162423388642"/>
<path d="M473.3 227.9 L493.7 227.9 L490.7 233.9 L476.3 233.9 Z" fill="url(#roof_navyRoof)" opacity="0.68"/>
<rect x="709.5" y="211.0" width="52.0" height="89.0" rx="3" fill="url(#bldg_mint)" opacity="0.85"/>
<polygon points="709.5,211.0 735.5,198.2 761.4,211.0" fill="url(#roof_tealRoof)" opacity="0.85"/>
<rect x="725.5" y="221.0" width="6" height="8" rx="1" fill="url(#windowGlow)" opacity="0.9870768793332748"/>
<rect x="739.5" y="221.0" width="6" height="8" rx="1" fill="url(#windowGlow)" opacity="0.8092467168854767"/>
<rect x="725.5" y="236.0" width="6" height="8" rx="1" fill="url(#windowGlow)" opacity="0.716615647550959"/>
<rect x="725.5" y="251.0" width="6" height="8" rx="1" fill="url(#windowGlow)" opacity="0.9553466088861908"/>
<rect x="739.5" y="251.0" width="6" height="8" rx="1" fill="url(#windowGlow)" opacity="0.7173621436196203"/>
<path d="M735.5 242.2 L756.2 242.2 L753.2 248.2 L738.5 248.2 Z" fill="url(#roof_coralRoof)" opacity="0.68"/>
<rect x="1020.2" y="204.0" width="56.7" height="96.0" rx="3" fill="url(#bldg_rose)" opacity="0.85"/>
<polygon points="1020.2,204.0 1048.5,191.3 1076.9,204.0" fill="url(#roof_navyRoof)" opacity="0.85"/>
<rect x="1038.5" y="214.0" width="6" height="8" rx="1" fill="url(#windowGlow)" opacity="0.950269635371058"/>
<rect x="1052.5" y="214.0" width="6" height="8" rx="1" fill="url(#windowGlow)" opacity="0.8437000097910408"/>
<rect x="1052.5" y="229.0" width="6" height="8" rx="1" fill="url(#windowGlow)" opacity="0.7253243086046186"/>
<rect x="1038.5" y="244.0" width="6" height="8" rx="1" fill="url(#windowGlow)" opacity="0.8949763850285561"/>
<rect x="1052.5" y="244.0" width="6" height="8" rx="1" fill="url(#windowGlow)" opacity="0.7293110038290317"/>
<rect x="1052.5" y="259.0" width="6" height="8" rx="1" fill="url(#windowGlow)" opacity="0.7721033711787795"/>
<rect x="119.4" y="201.3" width="65.6" height="98.7" rx="3" fill="url(#bldg_sky)" opacity="1"/>
<rect x="119.4" y="198.3" width="65.6" height="3" rx="1" fill="url(#roof_coralRoof)" opacity="1"/>
<rect x="135.2" y="211.3" width="6" height="8" rx="1" fill="url(#windowGlow)" opacity="0.9992422681298303"/>
<rect x="149.2" y="211.3" width="6" height="8" rx="1" fill="url(#windowGlow)" opacity="0.9317242647203263"/>
<rect x="163.2" y="211.3" width="6" height="8" rx="1" fill="url(#windowGlow)" opacity="0.8735430867753657"/>
<rect x="135.2" y="226.3" width="6" height="8" rx="1" fill="url(#windowGlow)" opacity="0.8555267751475455"/>
<rect x="149.2" y="226.3" width="6" height="8" rx="1" fill="url(#windowGlow)" opacity="0.8527570537537136"/>
<rect x="163.2" y="226.3" width="6" height="8" rx="1" fill="url(#windowGlow)" opacity="0.8069322293656562"/>
<rect x="149.2" y="241.3" width="6" height="8" rx="1" fill="url(#windowGlow)" opacity="0.7474081591923759"/>
<rect x="163.2" y="241.3" width="6" height="8" rx="1" fill="url(#windowGlow)" opacity="0.7497068707131347"/>
<rect x="135.2" y="256.3" width="6" height="8" rx="1" fill="url(#windowGlow)" opacity="0.7183119698512889"/>
<rect x="149.2" y="256.3" width="6" height="8" rx="1" fill="url(#windowGlow)" opacity="0.7567537384371988"/>
<rect x="163.2" y="256.3" width="6" height="8" rx="1" fill="url(#windowGlow)" opacity="0.8974713308724906"/>
<rect x="147.2" y="284.0" width="10" height="16" rx="2" fill="url(#roof_navyRoof)" opacity="0.8"/>
<rect x="149.2" y="287.0" width="6" height="10" rx="1" fill="url(#windowGlow)" opacity="0.45"/>
<path d="M152.2 235.8 L178.4 235.8 L175.4 241.8 L155.2 241.8 Z" fill="url(#roof_navyRoof)" opacity="0.8"/>
<rect x="439.7" y="134.7" width="69.3" height="165.3" rx="3" fill="url(#bldg_coral)" opacity="1"/>
<polygon points="439.7,134.7 474.4,115.7 509.0,134.7" fill="url(#roof_tealRoof)" opacity="1"/>
<rect x="457.4" y="144.7" width="6" height="8" rx="1" fill="url(#windowGlow)" opacity="0.7756667082084653"/>
<rect x="471.4" y="144.7" width="6" height="8" rx="1" fill="url(#windowGlow)" opacity="0.7485065582899872"/>
<rect x="457.4" y="159.7" width="6" height="8" rx="1" fill="url(#windowGlow)" opacity="0.9366085507146122"/>
<rect x="471.4" y="159.7" width="6" height="8" rx="1" fill="url(#windowGlow)" opacity="0.9265866111156468"/>
<rect x="485.4" y="159.7" width="6" height="8" rx="1" fill="url(#windowGlow)" opacity="0.9753078854062165"/>
<rect x="457.4" y="174.7" width="6" height="8" rx="1" fill="url(#windowGlow)" opacity="0.9190708094365293"/>
<rect x="471.4" y="174.7" width="6" height="8" rx="1" fill="url(#windowGlow)" opacity="0.9336989943095012"/>
<rect x="485.4" y="174.7" width="6" height="8" rx="1" fill="url(#windowGlow)" opacity="0.8966944701022908"/>
<rect x="457.4" y="189.7" width="6" height="8" rx="1" fill="url(#windowGlow)" opacity="0.8243390502055823"/>
<rect x="471.4" y="189.7" width="6" height="8" rx="1" fill="url(#windowGlow)" opacity="0.7531529952088152"/>
<rect x="485.4" y="189.7" width="6" height="8" rx="1" fill="url(#windowGlow)" opacity="0.7208623438239388"/>
<rect x="457.4" y="204.7" width="6" height="8" rx="1" fill="url(#windowGlow)" opacity="0.7924559655098504"/>
<rect x="471.4" y="204.7" width="6" height="8" rx="1" fill="url(#windowGlow)" opacity="0.8595305768584509"/>
<rect x="485.4" y="204.7" width="6" height="8" rx="1" fill="url(#windowGlow)" opacity="0.7034266516582233"/>
<rect x="457.4" y="219.7" width="6" height="8" rx="1" fill="url(#windowGlow)" opacity="0.9421503421115457"/>
<rect x="471.4" y="219.7" width="6" height="8" rx="1" fill="url(#windowGlow)" opacity="0.9652562140791007"/>
<rect x="485.4" y="219.7" width="6" height="8" rx="1" fill="url(#windowGlow)" opacity="0.787232791766167"/>
<rect x="457.4" y="234.7" width="6" height="8" rx="1" fill="url(#windowGlow)" opacity="0.8059875887380855"/>
<rect x="471.4" y="234.7" width="6" height="8" rx="1" fill="url(#windowGlow)" opacity="0.7262704930390559"/>
<rect x="457.4" y="249.7" width="6" height="8" rx="1" fill="url(#windowGlow)" opacity="0.7488117933966274"/>
<rect x="471.4" y="249.7" width="6" height="8" rx="1" fill="url(#windowGlow)" opacity="0.812330415850659"/>
<rect x="485.4" y="249.7" width="6" height="8" rx="1" fill="url(#windowGlow)" opacity="0.9122311494835798"/>
<rect x="469.4" y="284.0" width="10" height="16" rx="2" fill="url(#roof_navyRoof)" opacity="0.8"/>
<rect x="471.4" y="287.0" width="6" height="10" rx="1" fill="url(#windowGlow)" opacity="0.45"/>
<rect x="739.4" y="136.0" width="63.3" height="164.0" rx="3" fill="url(#bldg_teal)" opacity="1"/>
<rect x="752.0" y="116.3" width="38.0" height="19.7" rx="2" fill="url(#roof_navyRoof)" opacity="1"/>
<rect x="754.0" y="146.0" width="6" height="8" rx="1" fill="url(#windowGlow)" opacity="0.7393572137874351"/>
<rect x="768.0" y="146.0" width="6" height="8" rx="1" fill="url(#windowGlow)" opacity="0.924793509126079"/>
<rect x="782.0" y="146.0" width="6" height="8" rx="1" fill="url(#windowGlow)" opacity="0.7625223293260309"/>
<rect x="754.0" y="161.0" width="6" height="8" rx="1" fill="url(#windowGlow)" opacity="0.947252850535909"/>
<rect x="768.0" y="161.0" width="6" height="8" rx="1" fill="url(#windowGlow)" opacity="0.765969820071929"/>
<rect x="782.0" y="161.0" width="6" height="8" rx="1" fill="url(#windowGlow)" opacity="0.9994972021782291"/>
<rect x="754.0" y="176.0" width="6" height="8" rx="1" fill="url(#windowGlow)" opacity="0.8137072067305944"/>
<rect x="768.0" y="176.0" width="6" height="8" rx="1" fill="url(#windowGlow)" opacity="0.7289245112002475"/>
<rect x="782.0" y="176.0" width="6" height="8" rx="1" fill="url(#windowGlow)" opacity="0.7574426629848046"/>
<rect x="754.0" y="191.0" width="6" height="8" rx="1" fill="url(#windowGlow)" opacity="0.8301243451098559"/>
<rect x="768.0" y="191.0" width="6" height="8" rx="1" fill="url(#windowGlow)" opacity="0.8812993712636173"/>
<rect x="782.0" y="191.0" width="6" height="8" rx="1" fill="url(#windowGlow)" opacity="0.8141039649555943"/>
<rect x="754.0" y="206.0" width="6" height="8" rx="1" fill="url(#windowGlow)" opacity="0.9135220652509117"/>
<rect x="768.0" y="206.0" width="6" height="8" rx="1" fill="url(#windowGlow)" opacity="0.9991940879724892"/>
<rect x="782.0" y="206.0" width="6" height="8" rx="1" fill="url(#windowGlow)" opacity="0.9020507607618582"/>
<rect x="754.0" y="221.0" width="6" height="8" rx="1" fill="url(#windowGlow)" opacity="0.8955093360485087"/>
<rect x="768.0" y="221.0" width="6" height="8" rx="1" fill="url(#windowGlow)" opacity="0.7008366734724663"/>
<rect x="782.0" y="221.0" width="6" height="8" rx="1" fill="url(#windowGlow)" opacity="0.7048383731417536"/>
<rect x="754.0" y="236.0" width="6" height="8" rx="1" fill="url(#windowGlow)" opacity="0.9637753248511698"/>
<rect x="768.0" y="236.0" width="6" height="8" rx="1" fill="url(#windowGlow)" opacity="0.8078387292604142"/>
<rect x="782.0" y="236.0" width="6" height="8" rx="1" fill="url(#windowGlow)" opacity="0.8931318340791071"/>
<rect x="754.0" y="251.0" width="6" height="8" rx="1" fill="url(#windowGlow)" opacity="0.8604113117607363"/>
<rect x="768.0" y="251.0" width="6" height="8" rx="1" fill="url(#windowGlow)" opacity="0.7393333996829267"/>
<rect x="782.0" y="251.0" width="6" height="8" rx="1" fill="url(#windowGlow)" opacity="0.8711296050674885"/>
<rect x="766.0" y="284.0" width="10" height="16" rx="2" fill="url(#roof_navyRoof)" opacity="0.8"/>
<rect x="768.0" y="287.0" width="6" height="10" rx="1" fill="url(#windowGlow)" opacity="0.45"/>
<path d="M745.7 193.4 L771.0 193.4 L768.0 199.4 L748.7 199.4 Z" fill="url(#roof_tealRoof)" opacity="0.8"/>
<rect x="991.7" y="189.5" width="45.5" height="110.5" rx="3" fill="url(#bldg_amber)" opacity="1"/>
<polygon points="991.7,189.5 1014.4,178.6 1037.2,189.5" fill="url(#roof_coralRoof)" opacity="1"/>
<rect x="1004.4" y="199.5" width="6" height="8" rx="1" fill="url(#windowGlow)" opacity="0.7655270302507686"/>
<rect x="1018.4" y="199.5" width="6" height="8" rx="1" fill="url(#windowGlow)" opacity="0.7995710701679676"/>
<rect x="1004.4" y="214.5" width="6" height="8" rx="1" fill="url(#windowGlow)" opacity="0.7809466481120076"/>
<rect x="1018.4" y="214.5" width="6" height="8" rx="1" fill="url(#windowGlow)" opacity="0.9781894676285746"/>
<rect x="1004.4" y="229.5" width="6" height="8" rx="1" fill="url(#windowGlow)" opacity="0.8548453694464849"/>
<rect x="1004.4" y="244.5" width="6" height="8" rx="1" fill="url(#windowGlow)" opacity="0.7390264527122613"/>
<rect x="1018.4" y="244.5" width="6" height="8" rx="1" fill="url(#windowGlow)" opacity="0.9303725485831371"/>
<rect x="1004.4" y="259.5" width="6" height="8" rx="1" fill="url(#windowGlow)" opacity="0.8169797286004664"/>
<rect x="1018.4" y="259.5" width="6" height="8" rx="1" fill="url(#windowGlow)" opacity="0.9077829378693285"/>
<rect x="1009.4" y="284.0" width="10" height="16" rx="2" fill="url(#roof_navyRoof)" opacity="0.8"/>
<rect x="1011.4" y="287.0" width="6" height="10" rx="1" fill="url(#windowGlow)" opacity="0.45"/>
<path d="M1014.4 228.2 L1032.7 228.2 L1029.7 234.2 L1017.4 234.2 Z" fill="url(#roof_navyRoof)" opacity="0.8"/>
<rect x="309.3" y="263.2" width="6" height="21.8" rx="2" fill="#15803d"/>
<circle cx="312.3" cy="251.7" r="15.4" fill="#22c55e" opacity="0.9"/>
<circle cx="303.9" cy="254.7" r="11.6" fill="#16a34a" opacity="0.8"/>
<circle cx="319.2" cy="255.7" r="10.8" fill="#15803d" opacity="0.7"/>
<rect x="621.2" y="267.4" width="6" height="17.6" rx="2" fill="#15803d"/>
<circle cx="624.2" cy="257.3" r="14.1" fill="#22c55e" opacity="0.9"/>
<circle cx="616.0" cy="260.3" r="10.6" fill="#16a34a" opacity="0.8"/>
<circle cx="631.6" cy="261.3" r="9.9" fill="#15803d" opacity="0.7"/>
<rect x="894.2" y="266.7" width="6" height="18.3" rx="2" fill="#15803d"/>
<circle cx="897.2" cy="255.4" r="15.2" fill="#22c55e" opacity="0.9"/>
<circle cx="888.6" cy="258.4" r="11.4" fill="#16a34a" opacity="0.8"/>
<circle cx="903.9" cy="259.4" r="10.7" fill="#15803d" opacity="0.7"/>
<rect x="82.8" y="265.2" width="6" height="19.8" rx="2" fill="#15803d"/>
<circle cx="85.8" cy="255.4" r="13.8" fill="#22c55e" opacity="0.9"/>
<circle cx="78.7" cy="258.4" r="10.3" fill="#16a34a" opacity="0.8"/>
<circle cx="90.8" cy="259.4" r="9.7" fill="#15803d" opacity="0.7"/>
<rect x="1060.9" y="265.5" width="6" height="19.5" rx="2" fill="#15803d"/>
<circle cx="1063.9" cy="254.2" r="15.3" fill="#22c55e" opacity="0.9"/>
<circle cx="1055.1" cy="257.2" r="11.4" fill="#16a34a" opacity="0.8"/>
<circle cx="1071.8" cy="258.2" r="10.7" fill="#15803d" opacity="0.7"/>
<rect x="935.1" y="265.0" width="6" height="20.0" rx="2" fill="#15803d"/>
<circle cx="938.1" cy="252.2" r="16.8" fill="#22c55e" opacity="0.9"/>
<circle cx="930.0" cy="255.2" r="12.6" fill="#16a34a" opacity="0.8"/>
<circle cx="944.3" cy="256.2" r="11.8" fill="#15803d" opacity="0.7"/>
<rect x="1155.7" y="265.8" width="6" height="19.2" rx="2" fill="#15803d"/>
<circle cx="1158.7" cy="255.6" r="14.1" fill="#22c55e" opacity="0.9"/>
<circle cx="1150.5" cy="258.6" r="10.6" fill="#16a34a" opacity="0.8"/>
<circle cx="1165.9" cy="259.6" r="9.9" fill="#15803d" opacity="0.7"/>
<rect x="806.8" y="263.7" width="6" height="21.3" rx="2" fill="#15803d"/>
<circle cx="809.8" cy="253.6" r="14.2" fill="#22c55e" opacity="0.9"/>
<circle cx="803.2" cy="256.6" r="10.6" fill="#16a34a" opacity="0.8"/>
<circle cx="817.6" cy="257.6" r="9.9" fill="#15803d" opacity="0.7"/>
<rect x="608.6" y="265.3" width="6" height="19.7" rx="2" fill="#15803d"/>
<circle cx="611.6" cy="254.5" r="14.8" fill="#22c55e" opacity="0.9"/>
<circle cx="603.6" cy="257.5" r="11.1" fill="#16a34a" opacity="0.8"/>
<circle cx="618.2" cy="258.5" r="10.3" fill="#15803d" opacity="0.7"/>
<rect x="0" y="282" width="1200" height="18" fill="url(#groundGrad)"/>
<line x1="943.9" y1="282.0" x2="943.9" y2="251.3" stroke="#92400e" stroke-width="2"/>
<circle cx="943.9" cy="251.3" r="4" fill="#fef08a" opacity="0.6"/>
<circle cx="943.9" cy="251.3" r="8" fill="#fef08a" opacity="0.15" filter="url(#softGlow)"/>
<ellipse cx="318.9" cy="282.0" rx="6.4" ry="4.5" fill="#22c55e" opacity="0.6"/>
<ellipse cx="509.6" cy="282.0" rx="4.7" ry="3.3" fill="#22c55e" opacity="0.6"/>
<ellipse cx="300.5" cy="282.0" rx="4.8" ry="3.3" fill="#22c55e" opacity="0.6"/>
</svg>