<svg xmlns="http://www.w3.org/2000/svg" viewBox="0 0 1200 300" width="1200" height="300">
<rect width="1200" height="300" fill="#e0eff2"/>
<path d="M0 300 L0 210.0 C234.9 179.7, 1001.0 199.8, 1200 210.0 L1200 300 Z" fill="#aac2c9" opacity="0.3"/>
<rect x="121.7" y="204.2" width="65.4" height="95.8" fill="#8aabb4"/>
<rect x="400.8" y="197.0" width="86.9" height="103.0" fill="#8aabb4"/>
<rect x="667.6" y="193.0" width="74.1" height="107.0" fill="#8aabb4"/>
<rect x="1010.8" y="218.0" width="51.8" height="82.0" fill="#8aabb4"/>
<rect x="126.7" y="164.4" width="59.5" height="135.6" fill="#558592"/>
<rect x="139.4" y="176.4" width="6" height="8" fill="#91b0b8" opacity="0.5"/>
<rect x="153.4" y="176.4" width="6" height="8" fill="#91b0b8" opacity="0.5"/>
<rect x="167.4" y="176.4" width="6" height="8" fill="#91b0b8" opacity="0.5"/>
<rect x="139.4" y="192.4" width="6" height="8" fill="#91b0b8" opacity="0.5"/>
<rect x="153.4" y="192.4" width="6" height="8" fill="#91b0b8" opacity="0.5"/>
<rect x="153.4" y="208.4" width="6" height="8" fill="#91b0b8" opacity="0.5"/>
<rect x="139.4" y="224.4" width="6" height="8" fill="#91b0b8" opacity="0.5"/>
<rect x="153.4" y="224.4" width="6" height="8" fill="#91b0b8" opacity="0.5"/>
<rect x="167.4" y="224.4" width="6" height="8" fill="#91b0b8" opacity="0.5"/>
<rect x="139.4" y="240.4" width="6" height="8" fill="#91b0b8" opacity="0.5"/>
<rect x="167.4" y="240.4" width="6" height="8" fill="#91b0b8" opacity="0.5"/>
<rect x="139.4" y="256.4" width="6" height="8" fill="#91b0b8" opacity="0.5"/>
<rect x="153.4" y="256.4" width="6" height="8" fill="#91b0b8" opacity="0.5"/>
<rect x="167.4" y="256.4" width="6" height="8" fill="#91b0b8" opacity="0.5"/>
<rect x="139.4" y="272.4" width="6" height="8" fill="#91b0b8" opacity="0.5"/>
<rect x="153.4" y="272.4" width="6" height="8" fill="#91b0b8" opacity="0.5"/>
<rect x="167.4" y="272.4" width="6" height="8" fill="#91b0b8" opacity="0.5"/>
<rect x="390.3" y="176.5" width="70.9" height="123.5" fill="#558592"/>
<rect x="408.7" y="188.5" width="6" height="8" fill="#91b0b8" opacity="0.5"/>
<rect x="422.7" y="188.5" width="6" height="8" fill="#91b0b8" opacity="0.5"/>
<rect x="436.7" y="188.5" width="6" height="8" fill="#91b0b8" opacity="0.5"/>
<rect x="422.7" y="204.5" width="6" height="8" fill="#91b0b8" opacity="0.5"/>
<rect x="436.7" y="204.5" width="6" height="8" fill="#91b0b8" opacity="0.5"/>
<rect x="408.7" y="220.5" width="6" height="8" fill="#91b0b8" opacity="0.5"/>
<rect x="422.7" y="220.5" width="6" height="8" fill="#91b0b8" opacity="0.5"/>
<rect x="436.7" y="220.5" width="6" height="8" fill="#91b0b8" opacity="0.5"/>
<rect x="408.7" y="236.5" width="6" height="8" fill="#91b0b8" opacity="0.5"/>
<rect x="422.7" y="236.5" width="6" height="8" fill="#91b0b8" opacity="0.5"/>
<rect x="436.7" y="236.5" width="6" height="8" fill="#91b0b8" opacity="0.5"/>
<rect x="408.7" y="252.5" width="6" height="8" fill="#91b0b8" opacity="0.5"/>
<rect x="422.7" y="252.5" width="6" height="8" fill="#91b0b8" opacity="0.5"/>
<rect x="436.7" y="268.5" width="6" height="8" fill="#91b0b8" opacity="0.5"/>
<rect x="699.5" y="219.8" width="43.9" height="80.2" fill="#558592"/>
<rect x="718.4" y="231.8" width="6" height="8" fill="#91b0b8" opacity="0.5"/>
<rect x="718.4" y="247.8" width="6" height="8" fill="#91b0b8" opacity="0.5"/>
<rect x="718.4" y="263.8" width="6" height="8" fill="#91b0b8" opacity="0.5"/>
<rect x="959.3" y="141.1" width="71.7" height="158.9" fill="#558592"/>
<rect x="978.2" y="153.1" width="6" height="8" fill="#91b0b8" opacity="0.5"/>
<rect x="992.2" y="153.1" width="6" height="8" fill="#91b0b8" opacity="0.5"/>
<rect x="1006.2" y="153.1" width="6" height="8" fill="#91b0b8" opacity="0.5"/>
<rect x="978.2" y="169.1" width="6" height="8" fill="#91b0b8" opacity="0.5"/>
<rect x="978.2" y="185.1" width="6" height="8" fill="#91b0b8" opacity="0.5"/>
<rect x="978.2" y="201.1" width="6" height="8" fill="#91b0b8" opacity="0.5"/>
<rect x="1006.2" y="217.1" width="6" height="8" fill="#91b0b8" opacity="0.5"/>
<rect x="992.2" y="233.1" width="6" height="8" fill="#91b0b8" opacity="0.5"/>
<rect x="1006.2" y="233.1" width="6" height="8" fill="#91b0b8" opacity="0.5"/>
<rect x="1006.2" y="249.1" width="6" height="8" fill="#91b0b8" opacity="0.5"/>
<rect x="978.2" y="265.1" width="6" height="8" fill="#91b0b8" opacity="0.5"/>
<rect x="992.2" y="265.1" width="6" height="8" fill="#91b0b8" opacity="0.5"/>
<rect x="1006.2" y="265.1" width="6" height="8" fill="#91b0b8" opacity="0.5"/>
<rect x="152.9" y="123.3" width="52.3" height="176.7" fill="#2b6777"/>
<rect x="169.0" y="135.3" width="6" height="8" fill="#759ca7" opacity="0.5"/>
<rect x="183.0" y="135.3" width="6" height="8" fill="#759ca7" opacity="0.5"/>
<rect x="169.0" y="151.3" width="6" height="8" fill="#759ca7" opacity="0.5"/>
<rect x="183.0" y="151.3" width="6" height="8" fill="#759ca7" opacity="0.5"/>
<rect x="183.0" y="167.3" width="6" height="8" fill="#759ca7" opacity="0.5"/>
<rect x="169.0" y="183.3" width="6" height="8" fill="#759ca7" opacity="0.5"/>
<rect x="183.0" y="183.3" width="6" height="8" fill="#759ca7" opacity="0.5"/>
<rect x="169.0" y="199.3" width="6" height="8" fill="#759ca7" opacity="0.5"/>
<rect x="183.0" y="199.3" width="6" height="8" fill="#759ca7" opacity="0.5"/>
<rect x="169.0" y="215.3" width="6" height="8" fill="#759ca7" opacity="0.5"/>
<rect x="183.0" y="215.3" width="6" height="8" fill="#759ca7" opacity="0.5"/>
<rect x="169.0" y="231.3" width="6" height="8" fill="#759ca7" opacity="0.5"/>
<rect x="183.0" y="231.3" width="6" height="8" fill="#759ca7" opacity="0.5"/>
<rect x="183.0" y="247.3" width="6" height="8" fill="#759ca7" opacity="0.5"/>
<rect x="183.0" y="263.3" width="6" height="8" fill="#759ca7" opacity="0.5"/>
<rect x="455.9" y="186.2" width="32.3" height="113.8" fill="#2b6777"/>
<rect x="469.1" y="198.2" width="6" height="8" fill="#759ca7" opacity="0.5"/>
<rect x="469.1" y="214.2" width="6" height="8" fill="#759ca7" opacity="0.5"/>
<rect x="469.1" y="230.2" width="6" height="8" fill="#759ca7" opacity="0.5"/>
<rect x="469.1" y="246.2" width="6" height="8" fill="#759ca7" opacity="0.5"/>
<rect x="469.1" y="262.2" width="6" height="8" fill="#759ca7" opacity="0.5"/>
<rect x="727.3" y="215.6" width="56.0" height="84.4" fill="#2b6777"/>
<rect x="745.3" y="227.6" width="6" height="8" fill="#759ca7" opacity="0.5"/>
<rect x="759.3" y="227.6" width="6" height="8" fill="#759ca7" opacity="0.5"/>
<rect x="745.3" y="243.6" width="6" height="8" fill="#759ca7" opacity="0.5"/>
<rect x="759.3" y="243.6" width="6" height="8" fill="#759ca7" opacity="0.5"/>
<rect x="745.3" y="259.6" width="6" height="8" fill="#759ca7" opacity="0.5"/>
<rect x="988.8" y="158.2" width="35.7" height="141.8" fill="#2b6777"/>
<rect x="1003.7" y="170.2" width="6" height="8" fill="#759ca7" opacity="0.5"/>
<rect x="1003.7" y="186.2" width="6" height="8" fill="#759ca7" opacity="0.5"/>
<rect x="1003.7" y="202.2" width="6" height="8" fill="#759ca7" opacity="0.5"/>
<rect x="1003.7" y="218.2" width="6" height="8" fill="#759ca7" opacity="0.5"/>
<rect x="1003.7" y="234.2" width="6" height="8" fill="#759ca7" opacity="0.5"/>
<rect x="1003.7" y="250.2" width="6" height="8" fill="#759ca7" opacity="0.5"/>
<rect x="1003.7" y="266.2" width="6" height="8" fill="#759ca7" opacity="0.5"/>
<rect x="0" y="298" width="1200" height="2" fill="#275d6b" opacity="0.15"/>
</svg>