<svg xmlns="http://www.w3.org/2000/svg" viewBox="0 0 1200 300" width="1200" height="300">
<defs><linearGradient id="skyGrad" x1="0" y1="0" x2="0" y2="1"><stop offset="0%" stop-color="#e6ecf2"/><stop offset="100%" stop-color="#f0eeec"/></linearGradient></defs><rect width="1200" height="300" fill="url(#skyGrad)"/>
<path d="M0 300 L0 200.1 C301.9 186.6, 1001.0 194.9, 1200 200.1 L1200 300 Z" fill="#aac2c9" opacity="0.25"/>
<rect x="149.2" y="177.5" width="54.4" height="122.5" fill="#8aabb4"/>
<rect x="441.9" y="194.9" width="57.2" height="105.1" fill="#8aabb4"/>
<polygon points="441.9,194.9 470.5,180.6 499.1,194.9" fill="#7f9da6"/>
<rect x="739.0" y="225.4" width="42.9" height="74.6" fill="#8aabb4"/>
<polygon points="739.0,225.4 760.5,214.7 781.9,225.4" fill="#7f9da6"/>
<rect x="978.9" y="204.3" width="70.4" height="95.7" fill="#8aabb4"/>
<rect x="130.2" y="152.1" width="49.0" height="147.9" fill="#558592"/>
<polygon points="130.2,152.1 154.7,139.8 179.2,152.1" fill="#4e7a86"/>
<rect x="144.7" y="164.1" width="6" height="8" fill="#91b0b8" opacity="0.5"/>
<rect x="158.7" y="164.1" width="6" height="8" fill="#91b0b8" opacity="0.5"/>
<rect x="144.7" y="180.1" width="6" height="8" fill="#91b0b8" opacity="0.5"/>
<rect x="158.7" y="180.1" width="6" height="8" fill="#91b0b8" opacity="0.5"/>
<rect x="144.7" y="212.1" width="6" height="8" fill="#91b0b8" opacity="0.5"/>
<rect x="158.7" y="212.1" width="6" height="8" fill="#91b0b8" opacity="0.5"/>
<rect x="158.7" y="228.1" width="6" height="8" fill="#91b0b8" opacity="0.5"/>
<rect x="158.7" y="244.1" width="6" height="8" fill="#91b0b8" opacity="0.5"/>
<rect x="352.9" y="204.6" width="40.8" height="95.4" fill="#558592"/>
<rect x="370.3" y="216.6" width="6" height="8" fill="#91b0b8" opacity="0.5"/>
<rect x="370.3" y="232.6" width="6" height="8" fill="#91b0b8" opacity="0.5"/>
<rect x="370.3" y="264.6" width="6" height="8" fill="#91b0b8" opacity="0.5"/>
<rect x="544.3" y="150.4" width="46.4" height="149.6" fill="#558592"/>
<rect x="557.5" y="162.4" width="6" height="8" fill="#91b0b8" opacity="0.5"/>
<rect x="571.5" y="162.4" width="6" height="8" fill="#91b0b8" opacity="0.5"/>
<rect x="557.5" y="178.4" width="6" height="8" fill="#91b0b8" opacity="0.5"/>
<rect x="571.5" y="178.4" width="6" height="8" fill="#91b0b8" opacity="0.5"/>
<rect x="557.5" y="194.4" width="6" height="8" fill="#91b0b8" opacity="0.5"/>
<rect x="557.5" y="210.4" width="6" height="8" fill="#91b0b8" opacity="0.5"/>
<rect x="571.5" y="210.4" width="6" height="8" fill="#91b0b8" opacity="0.5"/>
<rect x="571.5" y="242.4" width="6" height="8" fill="#91b0b8" opacity="0.5"/>
<rect x="836.6" y="178.5" width="40.5" height="121.5" fill="#558592"/>
<rect x="853.9" y="206.5" width="6" height="8" fill="#91b0b8" opacity="0.5"/>
<rect x="853.9" y="222.5" width="6" height="8" fill="#91b0b8" opacity="0.5"/>
<rect x="853.9" y="238.5" width="6" height="8" fill="#91b0b8" opacity="0.5"/>
<rect x="853.9" y="254.5" width="6" height="8" fill="#91b0b8" opacity="0.5"/>
<rect x="853.9" y="270.5" width="6" height="8" fill="#91b0b8" opacity="0.5"/>
<rect x="1051.1" y="217.4" width="60.9" height="82.6" fill="#558592"/>
<polygon points="1051.1,217.4 1081.6,202.2 1112.1,217.4" fill="#4e7a86"/>
<rect x="1078.6" y="229.4" width="6" height="8" fill="#91b0b8" opacity="0.5"/>
<rect x="1078.6" y="245.4" width="6" height="8" fill="#91b0b8" opacity="0.5"/>
<rect x="137.7" y="166.8" width="60.2" height="133.2" fill="#2b6777"/>
<rect x="164.8" y="178.8" width="6" height="8" fill="#759ca7" opacity="0.5"/>
<rect x="178.8" y="178.8" width="6" height="8" fill="#759ca7" opacity="0.5"/>
<rect x="178.8" y="194.8" width="6" height="8" fill="#759ca7" opacity="0.5"/>
<rect x="150.8" y="210.8" width="6" height="8" fill="#759ca7" opacity="0.5"/>
<rect x="164.8" y="210.8" width="6" height="8" fill="#759ca7" opacity="0.5"/>
<rect x="178.8" y="210.8" width="6" height="8" fill="#759ca7" opacity="0.5"/>
<rect x="150.8" y="226.8" width="6" height="8" fill="#759ca7" opacity="0.5"/>
<rect x="164.8" y="226.8" width="6" height="8" fill="#759ca7" opacity="0.5"/>
<rect x="178.8" y="226.8" width="6" height="8" fill="#759ca7" opacity="0.5"/>
<rect x="150.8" y="242.8" width="6" height="8" fill="#759ca7" opacity="0.5"/>
<rect x="178.8" y="242.8" width="6" height="8" fill="#759ca7" opacity="0.5"/>
<rect x="150.8" y="258.8" width="6" height="8" fill="#759ca7" opacity="0.5"/>
<rect x="164.8" y="258.8" width="6" height="8" fill="#759ca7" opacity="0.5"/>
<rect x="178.8" y="258.8" width="6" height="8" fill="#759ca7" opacity="0.5"/>
<rect x="406.0" y="232.7" width="59.2" height="67.3" fill="#2b6777"/>
<rect x="418.6" y="244.7" width="6" height="8" fill="#759ca7" opacity="0.5"/>
<rect x="446.6" y="244.7" width="6" height="8" fill="#759ca7" opacity="0.5"/>
<rect x="418.6" y="260.7" width="6" height="8" fill="#759ca7" opacity="0.5"/>
<rect x="446.6" y="260.7" width="6" height="8" fill="#759ca7" opacity="0.5"/>
<rect x="733.4" y="106.2" width="41.5" height="193.8" fill="#2b6777"/>
<polygon points="733.4,106.2 754.1,95.8 774.9,106.2" fill="#285f6d"/>
<rect x="751.1" y="118.2" width="6" height="8" fill="#759ca7" opacity="0.5"/>
<rect x="751.1" y="134.2" width="6" height="8" fill="#759ca7" opacity="0.5"/>
<rect x="751.1" y="182.2" width="6" height="8" fill="#759ca7" opacity="0.5"/>
<rect x="751.1" y="198.2" width="6" height="8" fill="#759ca7" opacity="0.5"/>
<rect x="1013.3" y="213.7" width="64.7" height="86.3" fill="#2b6777"/>
<rect x="1024.6" y="198.5" width="42.1" height="15.2" fill="#296271"/>
<rect x="1028.6" y="210.5" width="6" height="8" fill="#759ca7" opacity="0.5"/>
<rect x="1056.6" y="210.5" width="6" height="8" fill="#759ca7" opacity="0.5"/>
<rect x="1028.6" y="226.5" width="6" height="8" fill="#759ca7" opacity="0.5"/>
<rect x="1056.6" y="226.5" width="6" height="8" fill="#759ca7" opacity="0.5"/>
<rect x="1028.6" y="242.5" width="6" height="8" fill="#759ca7" opacity="0.5"/>
<rect x="1042.6" y="242.5" width="6" height="8" fill="#759ca7" opacity="0.5"/>
<rect x="1056.6" y="242.5" width="6" height="8" fill="#759ca7" opacity="0.5"/>
<rect x="1042.6" y="258.5" width="6" height="8" fill="#759ca7" opacity="0.5"/>
<rect x="1056.6" y="258.5" width="6" height="8" fill="#759ca7" opacity="0.5"/>
<line x1="301.9" y1="285.0" x2="301.9" y2="274.3" stroke="#6b5a42" stroke-width="3"/>
<circle cx="301.9" cy="258.2" r="16.2" fill="#588949"/>
<line x1="599.3" y1="285.0" x2="599.3" y2="273.4" stroke="#6b5a42" stroke-width="3"/>
<circle cx="599.3" cy="257.9" r="15.5" fill="#548245"/>
<line x1="894.1" y1="285.0" x2="894.1" y2="273.5" stroke="#6b5a42" stroke-width="3"/>
<circle cx="894.1" cy="258.2" r="15.2" fill="#558546"/>
<line x1="281.0" y1="285.0" x2="281.0" y2="273.3" stroke="#6b5a42" stroke-width="3"/>
<circle cx="281.0" cy="259.0" r="14.3" fill="#548245"/>
<line x1="316.9" y1="285.0" x2="316.9" y2="270.9" stroke="#6b5a42" stroke-width="3"/>
<circle cx="316.9" cy="256.8" r="14.2" fill="#538244"/>
<line x1="320.4" y1="285.0" x2="320.4" y2="272.4" stroke="#6b5a42" stroke-width="3"/>
<circle cx="320.4" cy="255.3" r="17.1" fill="#528044"/>
<line x1="795.4" y1="285.0" x2="795.4" y2="274.6" stroke="#6b5a42" stroke-width="3"/>
<circle cx="795.4" cy="260.2" r="14.4" fill="#598b4a"/>
<line x1="1022.5" y1="285.0" x2="1022.5" y2="274.0" stroke="#6b5a42" stroke-width="3"/>
<circle cx="1022.5" cy="257.3" r="16.7" fill="#578848"/>
<rect x="0" y="285" width="1200" height="15" fill="#9aaa85" opacity="0.4"/>
</svg>