<svg xmlns="http://www.w3.org/2000/svg" viewBox="0 0 1200 400" width="1200" height="400">
<defs>
<linearGradient id="bg" x1="0" y1="0" x2="0" y2="1"><stop offset="0%" stop-color="#d4a76a"/><stop offset="100%" stop-color="#ea580c"/></linearGradient>
<linearGradient id="warm" x1="0" y1="0" x2="1" y2="1"><stop offset="0%" stop-color="#848d9a" stop-opacity="0.18"/><stop offset="100%" stop-color="#848d9a" stop-opacity="0.06"/></linearGradient>
</defs>
<rect width="1200" height="400" fill="url(#bg)"/>
<path d="M0 400 L0 240.36491412116635 C60.0 232.2, 90.0 231.0, 150.0 238.2 C210.0 243.3, 240.0 255.4, 300.0 255.3 C360.0 245.8, 390.0 225.1, 450.0 231.4 C510.0 225.4, 540.0 211.5, 600.0 220.2 C660.0 229.5, 690.0 240.9, 750.0 234.8 C810.0 239.5, 840.0 232.5, 900.0 230.8 C960.0 232.6, 990.0 254.5, 1050.0 245.5 C1110.0 249.9, 1140.0 215.1, 1200.0 220.1 L1200 400 Z" fill="#e2742d" opacity="0.45"/>
<path d="M0 400 L0 258.4311804553472 C52.5 259.3, 97.5 272.0, 150.0 277.3 C202.5 270.1, 247.5 260.2, 300.0 264.3 C352.5 266.8, 397.5 255.3, 450.0 254.4 C502.5 254.3, 547.5 256.7, 600.0 261.0 C652.5 265.2, 697.5 254.9, 750.0 256.0 C802.5 251.0, 847.5 257.0, 900.0 261.5 C952.5 261.1, 997.5 276.6, 1050.0 278.5 C1102.5 276.1, 1147.5 266.9, 1200.0 259.6 L1200 400 Z" fill="#ea580c" opacity="0.3"/>
<rect x="400.7" y="337.8" width="40.5" height="62.2" rx="7.2" fill="#0c90af" opacity="0.56"/>
<rect x="941.6" y="362.5" width="45.4" height="37.5" rx="5.2" fill="#5a7c76" opacity="0.68"/>
<rect x="965.3" y="283.7" width="44.1" height="116.3" rx="6.7" fill="#8e6f4f" opacity="0.81"/>
<rect x="970.3" y="293.7" width="4" height="5" rx="0.5" fill="#d4a76a" opacity="0.6"/>
<rect x="985.0" y="293.7" width="4" height="5" rx="0.5" fill="#d4a76a" opacity="0.6"/>
<rect x="970.3" y="315.7" width="4" height="5" rx="0.5" fill="#d4a76a" opacity="0.6"/>
<rect x="970.3" y="337.7" width="4" height="5" rx="0.5" fill="#d4a76a" opacity="0.6"/>
<rect x="985.0" y="337.7" width="4" height="5" rx="0.5" fill="#d4a76a" opacity="0.6"/>
<rect x="970.3" y="359.7" width="4" height="5" rx="0.5" fill="#d4a76a" opacity="0.6"/>
<rect x="985.0" y="359.7" width="4" height="5" rx="0.5" fill="#d4a76a" opacity="0.6"/>
<rect x="705.2" y="331.7" width="39.5" height="68.3" rx="4.0" fill="#358691" opacity="0.53"/>
<rect x="297.6" y="290.0" width="24.9" height="110.0" rx="6.5" fill="#418388" opacity="0.72"/>
<rect x="156.3" y="336.7" width="39.0" height="63.3" rx="6.3" fill="#857156" opacity="0.63"/>
<rect x="273.8" y="297.8" width="45.8" height="102.2" rx="4.6" fill="#7a745e" opacity="0.51"/>
<rect x="921.1" y="289.6" width="38.1" height="110.4" rx="5.7" fill="#66796d" opacity="0.79"/>
<rect x="784.4" y="309.9" width="29.0" height="90.1" rx="4.1" fill="#777561" opacity="0.65"/>
<rect x="789.4" y="341.9" width="4" height="5" rx="0.5" fill="#d4a76a" opacity="0.6"/>
<rect x="1035.4" y="261.7" width="38.4" height="138.3" rx="4.8" fill="#657a6e" opacity="0.77"/>
<rect x="1053.2" y="271.7" width="4" height="5" rx="0.5" fill="#d4a76a" opacity="0.6"/>
<rect x="1040.4" y="293.7" width="4" height="5" rx="0.5" fill="#d4a76a" opacity="0.6"/>
<rect x="1040.4" y="315.7" width="4" height="5" rx="0.5" fill="#d4a76a" opacity="0.6"/>
<rect x="1053.2" y="315.7" width="4" height="5" rx="0.5" fill="#d4a76a" opacity="0.6"/>
<rect x="1040.4" y="337.7" width="4" height="5" rx="0.5" fill="#d4a76a" opacity="0.6"/>
<rect x="376.6" y="265.2" width="34.2" height="134.8" rx="5.9" fill="#8c7051" opacity="0.68"/>
<rect x="1011.7" y="263.6" width="19.2" height="136.4" rx="4.6" fill="#298999" opacity="0.78"/>
<rect x="1016.7" y="273.6" width="4" height="5" rx="0.5" fill="#d4a76a" opacity="0.6"/>
<rect x="1016.7" y="317.6" width="4" height="5" rx="0.5" fill="#d4a76a" opacity="0.6"/>
<rect x="725.4" y="334.4" width="21.1" height="65.6" rx="5.2" fill="#737663" opacity="0.81"/>
<rect x="888.1" y="305.3" width="44.9" height="94.7" rx="6.0" fill="#438287" opacity="0.67"/>
<rect x="908.1" y="315.3" width="4" height="5" rx="0.5" fill="#d4a76a" opacity="0.6"/>
<rect x="908.1" y="337.3" width="4" height="5" rx="0.5" fill="#d4a76a" opacity="0.6"/>
<rect x="893.1" y="359.3" width="4" height="5" rx="0.5" fill="#d4a76a" opacity="0.6"/>
<rect x="908.1" y="359.3" width="4" height="5" rx="0.5" fill="#d4a76a" opacity="0.6"/>
<circle cx="1026.2" cy="212.3" r="9.9" fill="#0891b2" opacity="0.39"/>
<circle cx="823.6" cy="228.1" r="5.5" fill="#0891b2" opacity="0.45"/>
<circle cx="744.4" cy="169.1" r="9.7" fill="#d4a76a" opacity="0.34"/>
<rect width="1200" height="400" fill="url(#warm)"/>
<rect width="1200" height="400" fill="#d4a76a" opacity="0.44"/>
</svg>