<svg xmlns="http://www.w3.org/2000/svg" viewBox="0 0 1200 300" width="1200" height="300">
<rect width="1200" height="300" fill="#ede8e0"/>
<path d="M0 300 L0 210.0 C415.7 173.7, 868.0 198.4, 1200 210.0 L1200 300 Z" fill="#c4c6be" opacity="0.3"/>
<rect x="128.5" y="191.8" width="62.7" height="108.2" fill="#aeb0a5"/>
<rect x="400.5" y="232.2" width="43.9" height="67.8" fill="#aeb0a5"/>
<rect x="704.0" y="240.1" width="77.6" height="59.9" fill="#aeb0a5"/>
<rect x="977.5" y="237.2" width="49.3" height="62.8" fill="#aeb0a5"/>
<rect x="125.7" y="157.4" width="78.5" height="142.6" fill="#898d7d"/>
<rect x="169.0" y="169.4" width="6" height="8" fill="#b2b5ab" opacity="0.5"/>
<rect x="183.0" y="169.4" width="6" height="8" fill="#b2b5ab" opacity="0.5"/>
<rect x="141.0" y="185.4" width="6" height="8" fill="#b2b5ab" opacity="0.5"/>
<rect x="155.0" y="185.4" width="6" height="8" fill="#b2b5ab" opacity="0.5"/>
<rect x="169.0" y="185.4" width="6" height="8" fill="#b2b5ab" opacity="0.5"/>
<rect x="183.0" y="185.4" width="6" height="8" fill="#b2b5ab" opacity="0.5"/>
<rect x="141.0" y="201.4" width="6" height="8" fill="#b2b5ab" opacity="0.5"/>
<rect x="155.0" y="201.4" width="6" height="8" fill="#b2b5ab" opacity="0.5"/>
<rect x="141.0" y="217.4" width="6" height="8" fill="#b2b5ab" opacity="0.5"/>
<rect x="169.0" y="217.4" width="6" height="8" fill="#b2b5ab" opacity="0.5"/>
<rect x="183.0" y="217.4" width="6" height="8" fill="#b2b5ab" opacity="0.5"/>
<rect x="141.0" y="233.4" width="6" height="8" fill="#b2b5ab" opacity="0.5"/>
<rect x="155.0" y="233.4" width="6" height="8" fill="#b2b5ab" opacity="0.5"/>
<rect x="169.0" y="233.4" width="6" height="8" fill="#b2b5ab" opacity="0.5"/>
<rect x="183.0" y="233.4" width="6" height="8" fill="#b2b5ab" opacity="0.5"/>
<rect x="141.0" y="249.4" width="6" height="8" fill="#b2b5ab" opacity="0.5"/>
<rect x="155.0" y="249.4" width="6" height="8" fill="#b2b5ab" opacity="0.5"/>
<rect x="169.0" y="249.4" width="6" height="8" fill="#b2b5ab" opacity="0.5"/>
<rect x="183.0" y="249.4" width="6" height="8" fill="#b2b5ab" opacity="0.5"/>
<rect x="141.0" y="265.4" width="6" height="8" fill="#b2b5ab" opacity="0.5"/>
<rect x="155.0" y="265.4" width="6" height="8" fill="#b2b5ab" opacity="0.5"/>
<rect x="169.0" y="265.4" width="6" height="8" fill="#b2b5ab" opacity="0.5"/>
<rect x="183.0" y="265.4" width="6" height="8" fill="#b2b5ab" opacity="0.5"/>
<rect x="347.5" y="138.3" width="61.3" height="161.7" fill="#898d7d"/>
<rect x="361.1" y="150.3" width="6" height="8" fill="#b2b5ab" opacity="0.5"/>
<rect x="375.1" y="150.3" width="6" height="8" fill="#b2b5ab" opacity="0.5"/>
<rect x="389.1" y="150.3" width="6" height="8" fill="#b2b5ab" opacity="0.5"/>
<rect x="361.1" y="166.3" width="6" height="8" fill="#b2b5ab" opacity="0.5"/>
<rect x="375.1" y="166.3" width="6" height="8" fill="#b2b5ab" opacity="0.5"/>
<rect x="389.1" y="166.3" width="6" height="8" fill="#b2b5ab" opacity="0.5"/>
<rect x="361.1" y="182.3" width="6" height="8" fill="#b2b5ab" opacity="0.5"/>
<rect x="375.1" y="182.3" width="6" height="8" fill="#b2b5ab" opacity="0.5"/>
<rect x="361.1" y="198.3" width="6" height="8" fill="#b2b5ab" opacity="0.5"/>
<rect x="389.1" y="198.3" width="6" height="8" fill="#b2b5ab" opacity="0.5"/>
<rect x="361.1" y="214.3" width="6" height="8" fill="#b2b5ab" opacity="0.5"/>
<rect x="389.1" y="214.3" width="6" height="8" fill="#b2b5ab" opacity="0.5"/>
<rect x="361.1" y="230.3" width="6" height="8" fill="#b2b5ab" opacity="0.5"/>
<rect x="375.1" y="230.3" width="6" height="8" fill="#b2b5ab" opacity="0.5"/>
<rect x="361.1" y="246.3" width="6" height="8" fill="#b2b5ab" opacity="0.5"/>
<rect x="375.1" y="246.3" width="6" height="8" fill="#b2b5ab" opacity="0.5"/>
<rect x="361.1" y="262.3" width="6" height="8" fill="#b2b5ab" opacity="0.5"/>
<rect x="375.1" y="262.3" width="6" height="8" fill="#b2b5ab" opacity="0.5"/>
<rect x="389.1" y="262.3" width="6" height="8" fill="#b2b5ab" opacity="0.5"/>
<rect x="549.2" y="213.8" width="67.5" height="86.2" fill="#898d7d"/>
<rect x="566.0" y="225.8" width="6" height="8" fill="#b2b5ab" opacity="0.5"/>
<rect x="580.0" y="225.8" width="6" height="8" fill="#b2b5ab" opacity="0.5"/>
<rect x="566.0" y="241.8" width="6" height="8" fill="#b2b5ab" opacity="0.5"/>
<rect x="580.0" y="241.8" width="6" height="8" fill="#b2b5ab" opacity="0.5"/>
<rect x="580.0" y="257.8" width="6" height="8" fill="#b2b5ab" opacity="0.5"/>
<rect x="594.0" y="257.8" width="6" height="8" fill="#b2b5ab" opacity="0.5"/>
<rect x="566.0" y="273.8" width="6" height="8" fill="#b2b5ab" opacity="0.5"/>
<rect x="580.0" y="273.8" width="6" height="8" fill="#b2b5ab" opacity="0.5"/>
<rect x="594.0" y="273.8" width="6" height="8" fill="#b2b5ab" opacity="0.5"/>
<rect x="783.6" y="220.6" width="76.8" height="79.4" fill="#898d7d"/>
<rect x="797.9" y="232.6" width="6" height="8" fill="#b2b5ab" opacity="0.5"/>
<rect x="825.9" y="232.6" width="6" height="8" fill="#b2b5ab" opacity="0.5"/>
<rect x="839.9" y="232.6" width="6" height="8" fill="#b2b5ab" opacity="0.5"/>
<rect x="797.9" y="248.6" width="6" height="8" fill="#b2b5ab" opacity="0.5"/>
<rect x="825.9" y="248.6" width="6" height="8" fill="#b2b5ab" opacity="0.5"/>
<rect x="839.9" y="248.6" width="6" height="8" fill="#b2b5ab" opacity="0.5"/>
<rect x="797.9" y="264.6" width="6" height="8" fill="#b2b5ab" opacity="0.5"/>
<rect x="811.9" y="264.6" width="6" height="8" fill="#b2b5ab" opacity="0.5"/>
<rect x="825.9" y="264.6" width="6" height="8" fill="#b2b5ab" opacity="0.5"/>
<rect x="839.9" y="264.6" width="6" height="8" fill="#b2b5ab" opacity="0.5"/>
<rect x="1003.3" y="195.8" width="47.5" height="104.2" fill="#898d7d"/>
<rect x="1017.1" y="207.8" width="6" height="8" fill="#b2b5ab" opacity="0.5"/>
<rect x="1031.1" y="207.8" width="6" height="8" fill="#b2b5ab" opacity="0.5"/>
<rect x="1017.1" y="223.8" width="6" height="8" fill="#b2b5ab" opacity="0.5"/>
<rect x="1031.1" y="223.8" width="6" height="8" fill="#b2b5ab" opacity="0.5"/>
<rect x="1017.1" y="239.8" width="6" height="8" fill="#b2b5ab" opacity="0.5"/>
<rect x="1031.1" y="239.8" width="6" height="8" fill="#b2b5ab" opacity="0.5"/>
<rect x="1017.1" y="255.8" width="6" height="8" fill="#b2b5ab" opacity="0.5"/>
<rect x="1031.1" y="255.8" width="6" height="8" fill="#b2b5ab" opacity="0.5"/>
<rect x="1017.1" y="271.8" width="6" height="8" fill="#b2b5ab" opacity="0.5"/>
<rect x="1031.1" y="271.8" width="6" height="8" fill="#b2b5ab" opacity="0.5"/>
<rect x="111.6" y="170.0" width="73.9" height="130.0" fill="#6b705c"/>
<rect x="138.6" y="182.0" width="6" height="8" fill="#9fa295" opacity="0.5"/>
<rect x="152.6" y="182.0" width="6" height="8" fill="#9fa295" opacity="0.5"/>
<rect x="166.6" y="182.0" width="6" height="8" fill="#9fa295" opacity="0.5"/>
<rect x="124.6" y="198.0" width="6" height="8" fill="#9fa295" opacity="0.5"/>
<rect x="138.6" y="198.0" width="6" height="8" fill="#9fa295" opacity="0.5"/>
<rect x="152.6" y="198.0" width="6" height="8" fill="#9fa295" opacity="0.5"/>
<rect x="166.6" y="198.0" width="6" height="8" fill="#9fa295" opacity="0.5"/>
<rect x="124.6" y="214.0" width="6" height="8" fill="#9fa295" opacity="0.5"/>
<rect x="138.6" y="214.0" width="6" height="8" fill="#9fa295" opacity="0.5"/>
<rect x="152.6" y="214.0" width="6" height="8" fill="#9fa295" opacity="0.5"/>
<rect x="138.6" y="230.0" width="6" height="8" fill="#9fa295" opacity="0.5"/>
<rect x="152.6" y="230.0" width="6" height="8" fill="#9fa295" opacity="0.5"/>
<rect x="166.6" y="230.0" width="6" height="8" fill="#9fa295" opacity="0.5"/>
<rect x="138.6" y="246.0" width="6" height="8" fill="#9fa295" opacity="0.5"/>
<rect x="152.6" y="246.0" width="6" height="8" fill="#9fa295" opacity="0.5"/>
<rect x="166.6" y="246.0" width="6" height="8" fill="#9fa295" opacity="0.5"/>
<rect x="124.6" y="262.0" width="6" height="8" fill="#9fa295" opacity="0.5"/>
<rect x="138.6" y="262.0" width="6" height="8" fill="#9fa295" opacity="0.5"/>
<rect x="152.6" y="262.0" width="6" height="8" fill="#9fa295" opacity="0.5"/>
<rect x="398.2" y="218.4" width="36.7" height="81.6" fill="#6b705c"/>
<rect x="413.6" y="230.4" width="6" height="8" fill="#9fa295" opacity="0.5"/>
<rect x="413.6" y="246.4" width="6" height="8" fill="#9fa295" opacity="0.5"/>
<rect x="413.6" y="262.4" width="6" height="8" fill="#9fa295" opacity="0.5"/>
<rect x="717.2" y="179.5" width="59.7" height="120.5" fill="#6b705c"/>
<rect x="730.1" y="191.5" width="6" height="8" fill="#9fa295" opacity="0.5"/>
<rect x="744.1" y="191.5" width="6" height="8" fill="#9fa295" opacity="0.5"/>
<rect x="758.1" y="191.5" width="6" height="8" fill="#9fa295" opacity="0.5"/>
<rect x="730.1" y="207.5" width="6" height="8" fill="#9fa295" opacity="0.5"/>
<rect x="744.1" y="207.5" width="6" height="8" fill="#9fa295" opacity="0.5"/>
<rect x="758.1" y="207.5" width="6" height="8" fill="#9fa295" opacity="0.5"/>
<rect x="730.1" y="223.5" width="6" height="8" fill="#9fa295" opacity="0.5"/>
<rect x="744.1" y="223.5" width="6" height="8" fill="#9fa295" opacity="0.5"/>
<rect x="758.1" y="223.5" width="6" height="8" fill="#9fa295" opacity="0.5"/>
<rect x="744.1" y="239.5" width="6" height="8" fill="#9fa295" opacity="0.5"/>
<rect x="730.1" y="255.5" width="6" height="8" fill="#9fa295" opacity="0.5"/>
<rect x="744.1" y="255.5" width="6" height="8" fill="#9fa295" opacity="0.5"/>
<rect x="758.1" y="255.5" width="6" height="8" fill="#9fa295" opacity="0.5"/>
<rect x="730.1" y="271.5" width="6" height="8" fill="#9fa295" opacity="0.5"/>
<rect x="744.1" y="271.5" width="6" height="8" fill="#9fa295" opacity="0.5"/>
<rect x="758.1" y="271.5" width="6" height="8" fill="#9fa295" opacity="0.5"/>
<rect x="1031.5" y="188.6" width="39.6" height="111.4" fill="#6b705c"/>
<rect x="1048.3" y="200.6" width="6" height="8" fill="#9fa295" opacity="0.5"/>
<rect x="1048.3" y="232.6" width="6" height="8" fill="#9fa295" opacity="0.5"/>
<rect x="1048.3" y="248.6" width="6" height="8" fill="#9fa295" opacity="0.5"/>
<rect x="1048.3" y="264.6" width="6" height="8" fill="#9fa295" opacity="0.5"/>
<rect x="0" y="298" width="1200" height="2" fill="#606553" opacity="0.15"/>
</svg>