<svg xmlns="http://www.w3.org/2000/svg" viewBox="0 0 1200 300" width="1200" height="300">
<rect width="1200" height="300" fill="#e8edf2"/>
<path d="M0 300 L0 210.0 C392.1 179.9, 984.4 199.9, 1200 210.0 L1200 300 Z" fill="#b1bdcc" opacity="0.3"/>
<rect x="100.8" y="203.1" width="83.4" height="96.9" fill="#94a4b9"/>
<rect x="345.6" y="163.1" width="78.8" height="136.9" fill="#94a4b9"/>
<rect x="574.3" y="188.9" width="48.3" height="111.1" fill="#94a4b9"/>
<rect x="787.6" y="198.5" width="84.8" height="101.5" fill="#94a4b9"/>
<rect x="1015.8" y="146.4" width="60.7" height="153.6" fill="#94a4b9"/>
<rect x="63.1" y="104.7" width="71.7" height="195.3" fill="#647b99"/>
<rect x="81.9" y="116.7" width="6" height="8" fill="#9aa9bd" opacity="0.5"/>
<rect x="95.9" y="116.7" width="6" height="8" fill="#9aa9bd" opacity="0.5"/>
<rect x="109.9" y="132.7" width="6" height="8" fill="#9aa9bd" opacity="0.5"/>
<rect x="81.9" y="148.7" width="6" height="8" fill="#9aa9bd" opacity="0.5"/>
<rect x="95.9" y="148.7" width="6" height="8" fill="#9aa9bd" opacity="0.5"/>
<rect x="81.9" y="164.7" width="6" height="8" fill="#9aa9bd" opacity="0.5"/>
<rect x="95.9" y="164.7" width="6" height="8" fill="#9aa9bd" opacity="0.5"/>
<rect x="109.9" y="164.7" width="6" height="8" fill="#9aa9bd" opacity="0.5"/>
<rect x="81.9" y="180.7" width="6" height="8" fill="#9aa9bd" opacity="0.5"/>
<rect x="81.9" y="196.7" width="6" height="8" fill="#9aa9bd" opacity="0.5"/>
<rect x="109.9" y="196.7" width="6" height="8" fill="#9aa9bd" opacity="0.5"/>
<rect x="95.9" y="212.7" width="6" height="8" fill="#9aa9bd" opacity="0.5"/>
<rect x="109.9" y="212.7" width="6" height="8" fill="#9aa9bd" opacity="0.5"/>
<rect x="81.9" y="228.7" width="6" height="8" fill="#9aa9bd" opacity="0.5"/>
<rect x="95.9" y="228.7" width="6" height="8" fill="#9aa9bd" opacity="0.5"/>
<rect x="81.9" y="244.7" width="6" height="8" fill="#9aa9bd" opacity="0.5"/>
<rect x="95.9" y="244.7" width="6" height="8" fill="#9aa9bd" opacity="0.5"/>
<rect x="109.9" y="244.7" width="6" height="8" fill="#9aa9bd" opacity="0.5"/>
<rect x="81.9" y="260.7" width="6" height="8" fill="#9aa9bd" opacity="0.5"/>
<rect x="95.9" y="260.7" width="6" height="8" fill="#9aa9bd" opacity="0.5"/>
<rect x="109.9" y="260.7" width="6" height="8" fill="#9aa9bd" opacity="0.5"/>
<rect x="294.7" y="119.6" width="66.4" height="180.4" fill="#647b99"/>
<rect x="324.9" y="131.6" width="6" height="8" fill="#9aa9bd" opacity="0.5"/>
<rect x="310.9" y="147.6" width="6" height="8" fill="#9aa9bd" opacity="0.5"/>
<rect x="324.9" y="147.6" width="6" height="8" fill="#9aa9bd" opacity="0.5"/>
<rect x="310.9" y="163.6" width="6" height="8" fill="#9aa9bd" opacity="0.5"/>
<rect x="338.9" y="163.6" width="6" height="8" fill="#9aa9bd" opacity="0.5"/>
<rect x="310.9" y="179.6" width="6" height="8" fill="#9aa9bd" opacity="0.5"/>
<rect x="338.9" y="179.6" width="6" height="8" fill="#9aa9bd" opacity="0.5"/>
<rect x="310.9" y="195.6" width="6" height="8" fill="#9aa9bd" opacity="0.5"/>
<rect x="324.9" y="195.6" width="6" height="8" fill="#9aa9bd" opacity="0.5"/>
<rect x="338.9" y="195.6" width="6" height="8" fill="#9aa9bd" opacity="0.5"/>
<rect x="310.9" y="211.6" width="6" height="8" fill="#9aa9bd" opacity="0.5"/>
<rect x="324.9" y="211.6" width="6" height="8" fill="#9aa9bd" opacity="0.5"/>
<rect x="338.9" y="211.6" width="6" height="8" fill="#9aa9bd" opacity="0.5"/>
<rect x="324.9" y="227.6" width="6" height="8" fill="#9aa9bd" opacity="0.5"/>
<rect x="310.9" y="243.6" width="6" height="8" fill="#9aa9bd" opacity="0.5"/>
<rect x="324.9" y="243.6" width="6" height="8" fill="#9aa9bd" opacity="0.5"/>
<rect x="338.9" y="243.6" width="6" height="8" fill="#9aa9bd" opacity="0.5"/>
<rect x="310.9" y="259.6" width="6" height="8" fill="#9aa9bd" opacity="0.5"/>
<rect x="338.9" y="259.6" width="6" height="8" fill="#9aa9bd" opacity="0.5"/>
<rect x="475.1" y="190.0" width="52.9" height="110.0" fill="#647b99"/>
<rect x="491.5" y="202.0" width="6" height="8" fill="#9aa9bd" opacity="0.5"/>
<rect x="505.5" y="202.0" width="6" height="8" fill="#9aa9bd" opacity="0.5"/>
<rect x="491.5" y="218.0" width="6" height="8" fill="#9aa9bd" opacity="0.5"/>
<rect x="505.5" y="218.0" width="6" height="8" fill="#9aa9bd" opacity="0.5"/>
<rect x="505.5" y="234.0" width="6" height="8" fill="#9aa9bd" opacity="0.5"/>
<rect x="491.5" y="250.0" width="6" height="8" fill="#9aa9bd" opacity="0.5"/>
<rect x="491.5" y="266.0" width="6" height="8" fill="#9aa9bd" opacity="0.5"/>
<rect x="662.9" y="115.2" width="78.0" height="184.8" fill="#647b99"/>
<rect x="691.9" y="127.2" width="6" height="8" fill="#9aa9bd" opacity="0.5"/>
<rect x="719.9" y="127.2" width="6" height="8" fill="#9aa9bd" opacity="0.5"/>
<rect x="677.9" y="143.2" width="6" height="8" fill="#9aa9bd" opacity="0.5"/>
<rect x="691.9" y="143.2" width="6" height="8" fill="#9aa9bd" opacity="0.5"/>
<rect x="705.9" y="143.2" width="6" height="8" fill="#9aa9bd" opacity="0.5"/>
<rect x="719.9" y="143.2" width="6" height="8" fill="#9aa9bd" opacity="0.5"/>
<rect x="677.9" y="159.2" width="6" height="8" fill="#9aa9bd" opacity="0.5"/>
<rect x="691.9" y="159.2" width="6" height="8" fill="#9aa9bd" opacity="0.5"/>
<rect x="705.9" y="159.2" width="6" height="8" fill="#9aa9bd" opacity="0.5"/>
<rect x="719.9" y="159.2" width="6" height="8" fill="#9aa9bd" opacity="0.5"/>
<rect x="677.9" y="191.2" width="6" height="8" fill="#9aa9bd" opacity="0.5"/>
<rect x="691.9" y="191.2" width="6" height="8" fill="#9aa9bd" opacity="0.5"/>
<rect x="705.9" y="191.2" width="6" height="8" fill="#9aa9bd" opacity="0.5"/>
<rect x="677.9" y="207.2" width="6" height="8" fill="#9aa9bd" opacity="0.5"/>
<rect x="719.9" y="207.2" width="6" height="8" fill="#9aa9bd" opacity="0.5"/>
<rect x="677.9" y="223.2" width="6" height="8" fill="#9aa9bd" opacity="0.5"/>
<rect x="691.9" y="223.2" width="6" height="8" fill="#9aa9bd" opacity="0.5"/>
<rect x="705.9" y="223.2" width="6" height="8" fill="#9aa9bd" opacity="0.5"/>
<rect x="677.9" y="239.2" width="6" height="8" fill="#9aa9bd" opacity="0.5"/>
<rect x="705.9" y="239.2" width="6" height="8" fill="#9aa9bd" opacity="0.5"/>
<rect x="677.9" y="255.2" width="6" height="8" fill="#9aa9bd" opacity="0.5"/>
<rect x="691.9" y="255.2" width="6" height="8" fill="#9aa9bd" opacity="0.5"/>
<rect x="705.9" y="255.2" width="6" height="8" fill="#9aa9bd" opacity="0.5"/>
<rect x="719.9" y="255.2" width="6" height="8" fill="#9aa9bd" opacity="0.5"/>
<rect x="677.9" y="271.2" width="6" height="8" fill="#9aa9bd" opacity="0.5"/>
<rect x="691.9" y="271.2" width="6" height="8" fill="#9aa9bd" opacity="0.5"/>
<rect x="719.9" y="271.2" width="6" height="8" fill="#9aa9bd" opacity="0.5"/>
<rect x="893.6" y="162.0" width="36.3" height="138.0" fill="#647b99"/>
<rect x="908.8" y="174.0" width="6" height="8" fill="#9aa9bd" opacity="0.5"/>
<rect x="908.8" y="190.0" width="6" height="8" fill="#9aa9bd" opacity="0.5"/>
<rect x="908.8" y="222.0" width="6" height="8" fill="#9aa9bd" opacity="0.5"/>
<rect x="908.8" y="238.0" width="6" height="8" fill="#9aa9bd" opacity="0.5"/>
<rect x="908.8" y="270.0" width="6" height="8" fill="#9aa9bd" opacity="0.5"/>
<rect x="1032.6" y="188.3" width="51.6" height="111.7" fill="#647b99"/>
<rect x="1048.4" y="200.3" width="6" height="8" fill="#9aa9bd" opacity="0.5"/>
<rect x="1048.4" y="216.3" width="6" height="8" fill="#9aa9bd" opacity="0.5"/>
<rect x="1062.4" y="216.3" width="6" height="8" fill="#9aa9bd" opacity="0.5"/>
<rect x="1048.4" y="232.3" width="6" height="8" fill="#9aa9bd" opacity="0.5"/>
<rect x="1062.4" y="232.3" width="6" height="8" fill="#9aa9bd" opacity="0.5"/>
<rect x="1048.4" y="248.3" width="6" height="8" fill="#9aa9bd" opacity="0.5"/>
<rect x="1062.4" y="248.3" width="6" height="8" fill="#9aa9bd" opacity="0.5"/>
<rect x="1048.4" y="264.3" width="6" height="8" fill="#9aa9bd" opacity="0.5"/>
<rect x="109.4" y="126.7" width="59.8" height="173.3" fill="#3d5a80"/>
<rect x="136.3" y="138.7" width="6" height="8" fill="#8194ac" opacity="0.5"/>
<rect x="122.3" y="154.7" width="6" height="8" fill="#8194ac" opacity="0.5"/>
<rect x="136.3" y="154.7" width="6" height="8" fill="#8194ac" opacity="0.5"/>
<rect x="122.3" y="170.7" width="6" height="8" fill="#8194ac" opacity="0.5"/>
<rect x="150.3" y="170.7" width="6" height="8" fill="#8194ac" opacity="0.5"/>
<rect x="122.3" y="186.7" width="6" height="8" fill="#8194ac" opacity="0.5"/>
<rect x="150.3" y="186.7" width="6" height="8" fill="#8194ac" opacity="0.5"/>
<rect x="122.3" y="202.7" width="6" height="8" fill="#8194ac" opacity="0.5"/>
<rect x="122.3" y="218.7" width="6" height="8" fill="#8194ac" opacity="0.5"/>
<rect x="150.3" y="218.7" width="6" height="8" fill="#8194ac" opacity="0.5"/>
<rect x="122.3" y="234.7" width="6" height="8" fill="#8194ac" opacity="0.5"/>
<rect x="136.3" y="234.7" width="6" height="8" fill="#8194ac" opacity="0.5"/>
<rect x="136.3" y="250.7" width="6" height="8" fill="#8194ac" opacity="0.5"/>
<rect x="150.3" y="250.7" width="6" height="8" fill="#8194ac" opacity="0.5"/>
<rect x="136.3" y="266.7" width="6" height="8" fill="#8194ac" opacity="0.5"/>
<line x1="139.3" y1="126.7" x2="139.3" y2="116.1" stroke="#3d5a80" stroke-width="2"/>
<rect x="315.4" y="150.1" width="33.7" height="149.9" fill="#3d5a80"/>
<rect x="329.2" y="162.1" width="6" height="8" fill="#8194ac" opacity="0.5"/>
<rect x="329.2" y="178.1" width="6" height="8" fill="#8194ac" opacity="0.5"/>
<rect x="329.2" y="194.1" width="6" height="8" fill="#8194ac" opacity="0.5"/>
<rect x="329.2" y="210.1" width="6" height="8" fill="#8194ac" opacity="0.5"/>
<rect x="329.2" y="242.1" width="6" height="8" fill="#8194ac" opacity="0.5"/>
<rect x="329.2" y="258.1" width="6" height="8" fill="#8194ac" opacity="0.5"/>
<rect x="507.3" y="220.4" width="49.8" height="79.6" fill="#3d5a80"/>
<rect x="522.2" y="232.4" width="6" height="8" fill="#8194ac" opacity="0.5"/>
<rect x="536.2" y="232.4" width="6" height="8" fill="#8194ac" opacity="0.5"/>
<rect x="536.2" y="248.4" width="6" height="8" fill="#8194ac" opacity="0.5"/>
<rect x="522.2" y="264.4" width="6" height="8" fill="#8194ac" opacity="0.5"/>
<rect x="536.2" y="264.4" width="6" height="8" fill="#8194ac" opacity="0.5"/>
<rect x="641.1" y="97.3" width="65.1" height="202.7" fill="#3d5a80"/>
<rect x="656.7" y="109.3" width="6" height="8" fill="#8194ac" opacity="0.5"/>
<rect x="670.7" y="109.3" width="6" height="8" fill="#8194ac" opacity="0.5"/>
<rect x="684.7" y="125.3" width="6" height="8" fill="#8194ac" opacity="0.5"/>
<rect x="684.7" y="141.3" width="6" height="8" fill="#8194ac" opacity="0.5"/>
<rect x="656.7" y="157.3" width="6" height="8" fill="#8194ac" opacity="0.5"/>
<rect x="670.7" y="157.3" width="6" height="8" fill="#8194ac" opacity="0.5"/>
<rect x="656.7" y="173.3" width="6" height="8" fill="#8194ac" opacity="0.5"/>
<rect x="684.7" y="173.3" width="6" height="8" fill="#8194ac" opacity="0.5"/>
<rect x="656.7" y="189.3" width="6" height="8" fill="#8194ac" opacity="0.5"/>
<rect x="684.7" y="189.3" width="6" height="8" fill="#8194ac" opacity="0.5"/>
<rect x="656.7" y="205.3" width="6" height="8" fill="#8194ac" opacity="0.5"/>
<rect x="670.7" y="205.3" width="6" height="8" fill="#8194ac" opacity="0.5"/>
<rect x="684.7" y="205.3" width="6" height="8" fill="#8194ac" opacity="0.5"/>
<rect x="656.7" y="221.3" width="6" height="8" fill="#8194ac" opacity="0.5"/>
<rect x="670.7" y="221.3" width="6" height="8" fill="#8194ac" opacity="0.5"/>
<rect x="684.7" y="221.3" width="6" height="8" fill="#8194ac" opacity="0.5"/>
<rect x="684.7" y="237.3" width="6" height="8" fill="#8194ac" opacity="0.5"/>
<rect x="670.7" y="253.3" width="6" height="8" fill="#8194ac" opacity="0.5"/>
<rect x="684.7" y="253.3" width="6" height="8" fill="#8194ac" opacity="0.5"/>
<rect x="656.7" y="269.3" width="6" height="8" fill="#8194ac" opacity="0.5"/>
<rect x="684.7" y="269.3" width="6" height="8" fill="#8194ac" opacity="0.5"/>
<rect x="855.5" y="88.7" width="51.1" height="211.3" fill="#3d5a80"/>
<rect x="885.0" y="100.7" width="6" height="8" fill="#8194ac" opacity="0.5"/>
<rect x="871.0" y="116.7" width="6" height="8" fill="#8194ac" opacity="0.5"/>
<rect x="885.0" y="116.7" width="6" height="8" fill="#8194ac" opacity="0.5"/>
<rect x="871.0" y="132.7" width="6" height="8" fill="#8194ac" opacity="0.5"/>
<rect x="885.0" y="132.7" width="6" height="8" fill="#8194ac" opacity="0.5"/>
<rect x="885.0" y="148.7" width="6" height="8" fill="#8194ac" opacity="0.5"/>
<rect x="885.0" y="164.7" width="6" height="8" fill="#8194ac" opacity="0.5"/>
<rect x="871.0" y="180.7" width="6" height="8" fill="#8194ac" opacity="0.5"/>
<rect x="885.0" y="196.7" width="6" height="8" fill="#8194ac" opacity="0.5"/>
<rect x="871.0" y="212.7" width="6" height="8" fill="#8194ac" opacity="0.5"/>
<rect x="871.0" y="228.7" width="6" height="8" fill="#8194ac" opacity="0.5"/>
<rect x="885.0" y="228.7" width="6" height="8" fill="#8194ac" opacity="0.5"/>
<rect x="885.0" y="244.7" width="6" height="8" fill="#8194ac" opacity="0.5"/>
<rect x="885.0" y="260.7" width="6" height="8" fill="#8194ac" opacity="0.5"/>
<rect x="1037.2" y="80.4" width="61.0" height="219.6" fill="#3d5a80"/>
<rect x="1078.7" y="92.4" width="6" height="8" fill="#8194ac" opacity="0.5"/>
<rect x="1064.7" y="108.4" width="6" height="8" fill="#8194ac" opacity="0.5"/>
<rect x="1078.7" y="108.4" width="6" height="8" fill="#8194ac" opacity="0.5"/>
<rect x="1064.7" y="124.4" width="6" height="8" fill="#8194ac" opacity="0.5"/>
<rect x="1078.7" y="124.4" width="6" height="8" fill="#8194ac" opacity="0.5"/>
<rect x="1050.7" y="140.4" width="6" height="8" fill="#8194ac" opacity="0.5"/>
<rect x="1064.7" y="140.4" width="6" height="8" fill="#8194ac" opacity="0.5"/>
<rect x="1064.7" y="156.4" width="6" height="8" fill="#8194ac" opacity="0.5"/>
<rect x="1078.7" y="156.4" width="6" height="8" fill="#8194ac" opacity="0.5"/>
<rect x="1078.7" y="172.4" width="6" height="8" fill="#8194ac" opacity="0.5"/>
<rect x="1050.7" y="188.4" width="6" height="8" fill="#8194ac" opacity="0.5"/>
<rect x="1064.7" y="188.4" width="6" height="8" fill="#8194ac" opacity="0.5"/>
<rect x="1078.7" y="188.4" width="6" height="8" fill="#8194ac" opacity="0.5"/>
<rect x="1050.7" y="204.4" width="6" height="8" fill="#8194ac" opacity="0.5"/>
<rect x="1064.7" y="204.4" width="6" height="8" fill="#8194ac" opacity="0.5"/>
<rect x="1078.7" y="204.4" width="6" height="8" fill="#8194ac" opacity="0.5"/>
<rect x="1050.7" y="220.4" width="6" height="8" fill="#8194ac" opacity="0.5"/>
<rect x="1078.7" y="220.4" width="6" height="8" fill="#8194ac" opacity="0.5"/>
<rect x="1050.7" y="236.4" width="6" height="8" fill="#8194ac" opacity="0.5"/>
<rect x="1064.7" y="236.4" width="6" height="8" fill="#8194ac" opacity="0.5"/>
<rect x="1078.7" y="236.4" width="6" height="8" fill="#8194ac" opacity="0.5"/>
<rect x="1050.7" y="252.4" width="6" height="8" fill="#8194ac" opacity="0.5"/>
<rect x="1064.7" y="252.4" width="6" height="8" fill="#8194ac" opacity="0.5"/>
<rect x="1078.7" y="252.4" width="6" height="8" fill="#8194ac" opacity="0.5"/>
<rect x="1050.7" y="268.4" width="6" height="8" fill="#8194ac" opacity="0.5"/>
<rect x="1078.7" y="268.4" width="6" height="8" fill="#8194ac" opacity="0.5"/>
<line x1="1067.7" y1="80.4" x2="1067.7" y2="61.7" stroke="#3d5a80" stroke-width="2"/>
<rect x="0" y="298" width="1200" height="2" fill="#375173" opacity="0.15"/>
</svg>